<?xml version="1.0" encoding="UTF-8"?>
<!DOCTYPE svg  PUBLIC '-//W3C//DTD SVG 1.1//EN'  'http://www.w3.org/Graphics/SVG/1.1/DTD/svg11.dtd'>
<svg width="1672pt" height="880pt" version="1.1" viewBox="0 0 1672 880" xmlns="http://www.w3.org/2000/svg" xmlns:xlink="http://www.w3.org/1999/xlink">
<defs>
<style type="text/css">*{stroke-linecap:butt;stroke-linejoin:round;}</style>
</defs>
<path d="m0 880h1672v-880h-1672z" fill="#fff"/>
<g fill="none" stroke="#000">
<path d="m568.79 40-453.88 161.43" clip-path="url(#a)"/>
<path d="m568.79 40-230.9 642.55" clip-path="url(#a)"/>
<path d="m568.79 40 98.178 322.45" clip-path="url(#a)"/>
<path d="m568.79 40 519.47 161.43" clip-path="url(#a)"/>
<path d="m568.79 40-266.84 642.55" clip-path="url(#a)"/>
<path d="m568.79 40 333.97 642.55" clip-path="url(#a)"/>
<path d="m114.91 201.43-38.915 481.13" clip-path="url(#a)"/>
<path d="m114.91 201.43-26.077 481.13" clip-path="url(#a)"/>
<path d="m114.91 201.43-8.1039 481.13" clip-path="url(#a)"/>
<path d="m114.91 201.43 73.095 161.02" clip-path="url(#a)"/>
<path d="m337.89 682.55v157.45" clip-path="url(#a)"/>
<path d="m666.97 362.45-248.63 160.47" clip-path="url(#a)"/>
<path d="m666.97 362.45-83.874 160.47" clip-path="url(#a)"/>
<path d="m666.97 362.45 50.923 320.11" clip-path="url(#a)"/>
<path d="m666.97 362.45 109.98 320.11" clip-path="url(#a)"/>
<path d="m666.97 362.45 171.6 320.11" clip-path="url(#a)"/>
<path d="m1088.3 201.43-118.75 481.13" clip-path="url(#a)"/>
<path d="m1088.3 201.43-49.426 481.13" clip-path="url(#a)"/>
<path d="m1088.3 201.43 168.18 161.02" clip-path="url(#a)"/>
<path d="m969.51 682.55v157.45" clip-path="url(#a)"/>
<path d="m1038.8 682.55v157.45" clip-path="url(#a)"/>
<path d="m1256.4 362.45-145.71 320.11" clip-path="url(#a)"/>
<path d="m1256.4 362.45-71.25 320.11" clip-path="url(#a)"/>
<path d="m1256.4 362.45 5.777 320.11" clip-path="url(#a)"/>
<path d="m1256.4 362.45 211.18 160.47" clip-path="url(#a)"/>
<path d="m1110.7 682.55v157.45" clip-path="url(#a)"/>
<path d="m1185.2 682.55v157.45" clip-path="url(#a)"/>
<path d="m1262.2 682.55v157.45" clip-path="url(#a)"/>
<path d="m1467.6 522.92-125.81 159.64" clip-path="url(#a)"/>
<path d="m1467.6 522.92-43.649 159.64" clip-path="url(#a)"/>
<path d="m1467.6 522.92 41.081 159.64" clip-path="url(#a)"/>
<path d="m1467.6 522.92 128.38 159.64" clip-path="url(#a)"/>
<path d="m1341.8 682.55v157.45" clip-path="url(#a)"/>
<path d="m1424 682.55v157.45" clip-path="url(#a)"/>
<path d="m1508.7 682.55v157.45" clip-path="url(#a)"/>
<path d="m418.34 522.92-41.937 159.64" clip-path="url(#a)"/>
<path d="m418.34 522.92-0.85586 159.64" clip-path="url(#a)"/>
<path d="m418.34 522.92 42.793 159.64" clip-path="url(#a)"/>
<path d="m583.09 522.92-75.743 159.64" clip-path="url(#a)"/>
<path d="m583.09 522.92-26.959 159.64" clip-path="url(#a)"/>
<path d="m583.09 522.92 24.392 159.64" clip-path="url(#a)"/>
<path d="m583.09 522.92 78.311 159.64" clip-path="url(#a)"/>
<path d="m717.89 682.55v157.45" clip-path="url(#a)"/>
<path d="m776.95 682.55v157.45" clip-path="url(#a)"/>
<path d="m838.57 682.55v157.45" clip-path="url(#a)"/>
<path d="m507.35 682.55v157.45" clip-path="url(#a)"/>
<path d="m556.14 682.55v157.45" clip-path="url(#a)"/>
<path d="m607.49 682.55v157.45" clip-path="url(#a)"/>
<path d="m661.41 682.55v157.45" clip-path="url(#a)"/>
<path d="m376.41 682.55v157.45" clip-path="url(#a)"/>
<path d="m417.49 682.55v157.45" clip-path="url(#a)"/>
<path d="m461.14 682.55v157.45" clip-path="url(#a)"/>
<path d="m76 682.55v157.45" clip-path="url(#a)"/>
<path d="m88.838 682.55-5.1351 157.45" clip-path="url(#a)"/>
<path d="m88.838 682.55 5.1351 157.45" clip-path="url(#a)"/>
<path d="m106.81 682.55v157.45" clip-path="url(#a)"/>
<path d="m188.01 362.45-65.794 320.11" clip-path="url(#a)"/>
<path d="m188.01 362.45-20.861 160.47" clip-path="url(#a)"/>
<path d="m188.01 362.45 21.503 320.11" clip-path="url(#a)"/>
<path d="m188.01 362.45 65.152 320.11" clip-path="url(#a)"/>
<path d="m122.22 682.55v157.45" clip-path="url(#a)"/>
<path d="m167.15 522.92-16.689 159.64" clip-path="url(#a)"/>
<path d="m167.15 522.92 16.689 159.64" clip-path="url(#a)"/>
<path d="m209.51 682.55v157.45" clip-path="url(#a)"/>
<path d="m253.16 682.55-15.405 157.45" clip-path="url(#a)"/>
<path d="m253.16 682.55 15.405 157.45" clip-path="url(#a)"/>
<path d="m150.46 682.55-10.27 157.45" clip-path="url(#a)"/>
<path d="m150.46 682.55 10.27 157.45" clip-path="url(#a)"/>
<path d="m183.84 682.55v157.45" clip-path="url(#a)"/>
<path d="m301.95 682.55v157.45" clip-path="url(#a)"/>
<path d="m902.76 682.55v157.45" clip-path="url(#a)"/>
<path d="m1596 682.55v157.45" clip-path="url(#a)"/>
</g>
<path d="m341.12 127.63 5.6684-2.016q2.2612-0.80424 1.457-3.0655l-2.5945-7.2949q-0.80424-2.2612-3.0655-1.457l-5.6684 2.016q-2.2612 0.80424-1.457 3.0655l2.5945 7.2949q0.80424 2.2612 3.0655 1.457z" clip-path="url(#a)" fill="#fff" stroke="#fff"/>
<g clip-path="url(#a)">
<defs>
<path id="ae" d="m9.8125 72.906h9.8594v-29.891h35.844v29.891h9.8594v-72.906h-9.8594v34.719h-35.844v-34.719h-9.8594z"/>
</defs>
<g transform="translate(339.76 123.8) rotate(-19.579) scale(.08 -.08)">
<use xlink:href="#ae"/>
</g>
</g>
<path d="m458.49 365.5 1.5074-4.1949q0.81162-2.2586-1.447-3.0702l-7.2863-2.6183q-2.2586-0.81162-3.0702 1.447l-1.5074 4.1949q-0.81162 2.2586 1.447 3.0702l7.2863 2.6183q2.2586 0.81162 3.0702-1.447z" clip-path="url(#a)" fill="#fff" stroke="#fff"/>
<g clip-path="url(#a)">
<defs>
<path id="al" d="m9.8125 72.906h9.8594v-64.609h35.5v-8.2969h-45.359z"/>
</defs>
<g transform="translate(454.66 364.12) rotate(-70.234) scale(.08 -.08)">
<use xlink:href="#al"/>
</g>
</g>
<path d="m611 200.17 1.7524 5.7554q0.69906 2.2959 2.995 1.5969l7.4068-2.2552q2.2959-0.69907 1.5969-2.995l-1.7524-5.7554q-0.69907-2.2959-2.995-1.5969l-7.4068 2.2552q-2.2959 0.69907-1.5969 2.995z" clip-path="url(#a)" fill="#fff" stroke="#fff"/>
<g clip-path="url(#a)">
<g transform="translate(614.89 198.99) rotate(73.066) scale(.08 -.08)">
<use xlink:href="#ae"/>
</g>
</g>
<path d="m823.79 125.81 5.7452 1.7853q2.2919 0.71221 3.0041-1.5797l2.2976-7.3937q0.71221-2.2919-1.5797-3.0041l-5.7452-1.7853q-2.2919-0.71221-3.0041 1.5797l-2.2976 7.3937q-0.71221 2.2919 1.5797 3.0041z" clip-path="url(#a)" fill="#fff" stroke="#fff"/>
<g clip-path="url(#a)">
<g transform="translate(825 121.93) rotate(17.263) scale(.08 -.08)">
<use xlink:href="#ae"/>
</g>
</g>
<path d="m440.04 366.39 2.2456-5.4073q0.92047-2.2165-1.296-3.1369l-7.1504-2.9695q-2.2165-0.92047-3.1369 1.296l-2.2456 5.4073q-0.92047 2.2165 1.296 3.1369l7.1504 2.9695q2.2165 0.92047 3.1369-1.296z" clip-path="url(#a)" fill="#fff" stroke="#fff"/>
<g clip-path="url(#a)">
<defs>
<path id="ad" d="m8.6875 72.906h9.9219v-44.297q0-11.719 4.2344-16.875 4.25-5.1406 13.781-5.1406 9.4688 0 13.719 5.1406 4.25 5.1562 4.25 16.875v44.297h9.9062v-45.516q0-14.25-7.0625-21.531-7.0469-7.2812-20.812-7.2812-13.828 0-20.891 7.2812-7.0469 7.2812-7.0469 21.531z"/>
</defs>
<g transform="translate(436.28 364.83) rotate(-67.448) scale(.08 -.08)">
<use xlink:href="#ad"/>
</g>
</g>
<path d="m728.86 361.57 2.7002 5.1952q1.1068 2.1295 3.2364 1.0227l6.87-3.5707q2.1295-1.1068 1.0227-3.2364l-2.7002-5.1952q-1.1068-2.1295-3.2364-1.0227l-6.87 3.5707q-2.1295 1.1068-1.0227 3.2364z" clip-path="url(#a)" fill="#fff" stroke="#fff"/>
<g clip-path="url(#a)">
<g transform="translate(732.46 359.7) rotate(62.537) scale(.08 -.08)">
<use xlink:href="#ad"/>
</g>
</g>
<path d="m101.49 445.22 0.44119-5.4547q0.19348-2.3922-2.1987-2.5857l-7.7173-0.62419q-2.3922-0.19348-2.5857 2.1987l-0.44119 5.4547q-0.19348 2.3922 2.1987 2.5857l7.7173 0.62419q2.3922 0.19349 2.5857-2.1987z" clip-path="url(#a)" fill="#fff" stroke="#fff"/>
<g clip-path="url(#a)">
<defs>
<path id="q" d="m34.188 63.188-13.391-36.281h26.812zm-5.5781 9.7188h11.188l27.781-72.906h-10.25l-6.6406 18.703h-32.859l-6.6406-18.703h-10.406z"/>
</defs>
<g transform="translate(97.437 444.9) rotate(-85.376) scale(.08 -.08)">
<use xlink:href="#q"/>
</g>
</g>
<path d="m108 444.87 0.27486-5.0713q0.12989-2.3965-2.2666-2.5264l-7.7312-0.41902q-2.3965-0.12989-2.5264 2.2666l-0.27486 5.0713q-0.12989 2.3965 2.2666 2.5264l7.7312 0.41902q2.3965 0.12989 2.5264-2.2666z" clip-path="url(#a)" fill="#fff" stroke="#fff"/>
<g clip-path="url(#a)">
<defs>
<path id="aj" d="m53.516 70.516v-9.625q-5.6094 2.6875-10.594 4-4.9844 1.3281-9.625 1.3281-8.0469 0-12.422-3.125t-4.375-8.8906q0-4.8438 2.9062-7.3125 2.9062-2.4531 11.016-3.9688l5.9531-1.2188q11.031-2.1094 16.281-7.4062t5.25-14.172q0-10.609-7.1094-16.078-7.0938-5.4688-20.812-5.4688-5.1719 0-11.016 1.1719-5.8281 1.1719-12.078 3.4688v10.156q6-3.3594 11.766-5.0781 5.7656-1.7031 11.328-1.7031 8.4375 0 13.031 3.3125 4.5938 3.3281 4.5938 9.4844 0 5.3594-3.2969 8.3906t-10.812 4.5469l-6.0156 1.1719q-11.031 2.1875-15.969 6.875-4.9219 4.6875-4.9219 13.047 0 9.6719 6.8125 15.234t18.766 5.5625q5.1406 0 10.453-0.9375 5.3281-0.92188 10.891-2.7656z"/>
</defs>
<g transform="translate(103.94 444.65) rotate(-86.898) scale(.08 -.08)">
<use xlink:href="#aj"/>
</g>
</g>
<path d="m117.09 444.54 0.08229-4.8856q0.040419-2.3997-2.3592-2.4401l-7.7414-0.13039q-2.3997-0.040418-2.4401 2.3592l-0.08229 4.8856q-0.040419 2.3997 2.3592 2.4401l7.7414 0.13039q2.3997 0.040419 2.4401-2.3592z" clip-path="url(#a)" fill="#fff" stroke="#fff"/>
<g clip-path="url(#a)">
<defs>
<path id="l" d="m-0.29688 72.906h61.672v-8.3125h-25.875v-64.594h-9.9062v64.594h-25.891z"/>
</defs>
<g transform="translate(113.03 444.47) rotate(-89.035) scale(.08 -.08)">
<use xlink:href="#l"/>
</g>
</g>
<path d="m144.62 282.04 2.2621 4.9831q0.99206 2.1854 3.1774 1.1933l7.0501-3.2004q2.1854-0.99206 1.1933-3.1774l-2.2621-4.9831q-0.99206-2.1854-3.1774-1.1933l-7.0501 3.2004q-2.1854 0.99206-1.1933 3.1774z" clip-path="url(#a)" fill="#fff" stroke="#fff"/>
<g clip-path="url(#a)">
<g transform="translate(148.32 280.36) rotate(65.584) scale(.08 -.08)">
<use xlink:href="#q"/>
</g>
</g>
<path d="m331.62 744.37v33.808q0 2.4 2.4 2.4h7.7425q2.4 0 2.4-2.4v-33.808q0-2.4-2.4-2.4h-7.7425q-2.4 0-2.4 2.4z" clip-path="url(#a)" fill="#fff" stroke="#fff"/>
<g clip-path="url(#a)">
<defs>
<path id="d" d="m56.203 29.594v-4.3906h-41.312q0.59375-9.2812 5.5938-14.141t13.938-4.8594q5.1719 0 10.031 1.2656t9.6562 3.8125v-8.5q-4.8438-2.0469-9.9219-3.125t-10.297-1.0781q-13.094 0-20.734 7.6094-7.6406 7.625-7.6406 20.625 0 13.422 7.25 21.297 7.25 7.8906 19.562 7.8906 11.031 0 17.453-7.1094 6.4219-7.0938 6.4219-19.297zm-8.9844 2.6406q-0.09375 7.3594-4.125 11.75-4.0312 4.4062-10.672 4.4062-7.5156 0-12.031-4.25t-5.2031-11.969z"/>
<path id="g" d="m41.109 46.297q-1.5156 0.875-3.2969 1.2812-1.7812 0.42188-3.9219 0.42188-7.625 0-11.703-4.9531t-4.0781-14.234v-28.812h-9.0312v54.688h9.0312v-8.5q2.8438 4.9844 7.375 7.3906 4.5469 2.4219 11.047 2.4219 0.92188 0 2.0469-0.125 1.125-0.10938 2.4844-0.35938z"/>
<path id="k" d="m52 44.188q3.375 6.0625 8.0625 8.9375t11.031 2.875q8.5469 0 13.188-5.9844 4.6406-5.9688 4.6406-17v-33.016h-9.0312v32.719q0 7.8594-2.7969 11.656-2.7812 3.8125-8.4844 3.8125-6.9844 0-11.047-4.6406-4.0469-4.625-4.0469-12.641v-30.906h-9.0312v32.719q0 7.9062-2.7812 11.688t-8.5938 3.7812q-6.8906 0-10.953-4.6562-4.0469-4.6562-4.0469-12.625v-30.906h-9.0312v54.688h9.0312v-8.5q3.0781 5.0312 7.375 7.4219t10.203 2.3906q5.9688 0 10.141-3.0312 4.1719-3.0156 6.1719-8.7812z"/>
<path id="f" d="m9.4219 54.688h8.9844v-54.688h-8.9844zm0 21.297h8.9844v-11.391h-8.9844z"/>
<path id="j" d="m54.891 33.016v-33.016h-8.9844v32.719q0 7.7656-3.0312 11.609-3.0312 3.8594-9.0781 3.8594-7.2812 0-11.484-4.6406-4.2031-4.625-4.2031-12.641v-30.906h-9.0312v54.688h9.0312v-8.5q3.2344 4.9375 7.5938 7.375 4.375 2.4375 10.094 2.4375 9.4219 0 14.25-5.8281 4.8438-5.8281 4.8438-17.156z"/>
<path id="e" d="m34.281 27.484q-10.891 0-15.094-2.4844t-4.2031-8.5q0-4.7812 3.1562-7.5938 3.1562-2.7969 8.5625-2.7969 7.4844 0 12 5.2969t4.5156 14.078v2zm17.922 3.7188v-31.203h-8.9844v8.2969q-3.0781-4.9688-7.6719-7.3438t-11.234-2.375q-8.3906 0-13.359 4.7188-4.9531 4.7188-4.9531 12.625 0 9.2188 6.1719 13.906 6.1875 4.6875 18.438 4.6875h12.609v0.89062q0 6.2031-4.0781 9.5938t-11.453 3.3906q-4.6875 0-9.1406-1.125-4.4375-1.125-8.5312-3.375v8.3125q4.9219 1.9062 9.5625 2.8438 4.6406 0.95312 9.0312 0.95312 11.875 0 17.734-6.1562 5.8594-6.1406 5.8594-18.641z"/>
<path id="h" d="m9.4219 75.984h8.9844v-75.984h-8.9844z"/>
</defs>
<g transform="translate(335.68 744.37) rotate(90) scale(.08 -.08)">
<use xlink:href="#l"/>
<use x="44.083984" xlink:href="#d"/>
<use x="105.607422" xlink:href="#g"/>
<use x="144.970703" xlink:href="#k"/>
<use x="242.382812" xlink:href="#f"/>
<use x="270.166016" xlink:href="#j"/>
<use x="333.544922" xlink:href="#e"/>
<use x="394.824219" xlink:href="#h"/>
</g>
</g>
<path d="m544 449.28 4.1054-2.6498q2.0165-1.3015 0.71496-3.318l-4.1987-6.5052q-1.3015-2.0165-3.318-0.71496l-4.1054 2.6498q-2.0165 1.3015-0.71496 3.318l4.1987 6.5052q1.3015 2.0165 3.318 0.71496z" clip-path="url(#a)" fill="#fff" stroke="#fff"/>
<g clip-path="url(#a)">
<g transform="translate(541.8 445.86) rotate(-32.84) scale(.08 -.08)">
<use xlink:href="#l"/>
</g>
</g>
<path d="m629.32 448.01 2.5349-4.85q1.1117-2.127-1.0153-3.2387l-6.8618-3.5864q-2.127-1.1117-3.2387 1.0153l-2.5349 4.85q-1.1117 2.127 1.0153 3.2387l6.8618 3.5864q2.127 1.1117 3.2387-1.0153z" clip-path="url(#a)" fill="#fff" stroke="#fff"/>
<g clip-path="url(#a)">
<g transform="translate(625.72 446.13) rotate(-62.405) scale(.08 -.08)">
<use xlink:href="#q"/>
</g>
</g>
<path d="m685.86 521.1 0.75784 4.7638q0.37705 2.3702 2.7472 1.9931l7.6464-1.2164q2.3702-0.37706 1.9931-2.7473l-0.75784-4.7638q-0.37706-2.3702-2.7473-1.9931l-7.6464 1.2164q-2.3702 0.37706-1.9931 2.7473z" clip-path="url(#a)" fill="#fff" stroke="#fff"/>
<g clip-path="url(#a)">
<defs>
<path id="ak" d="m19.672 64.797v-27.391h12.406q6.8906 0 10.641 3.5625 3.7656 3.5625 3.7656 10.156 0 6.5469-3.7656 10.109-3.75 3.5625-10.641 3.5625zm-9.8594 8.1094h22.266q12.266 0 18.531-5.5469 6.2812-5.5469 6.2812-16.234 0-10.797-6.2812-16.312-6.2656-5.5156-18.531-5.5156h-12.406v-29.297h-9.8594z"/>
</defs>
<g transform="translate(689.87 520.46) rotate(80.961) scale(.08 -.08)">
<use xlink:href="#ak"/>
</g>
</g>
<path d="m715.03 521.62 2.0015 5.8258q0.77981 2.2698 3.0496 1.49l7.3224-2.5157q2.2698-0.77981 1.49-3.0496l-2.0015-5.8258q-0.77981-2.2698-3.0496-1.49l-7.3224 2.5157q-2.2698 0.77981-1.49 3.0496z" clip-path="url(#a)" fill="#fff" stroke="#fff"/>
<g clip-path="url(#a)">
<defs>
<path id="aq" d="m19.672 64.797v-56.688h11.922q15.094 0 22.094 6.8281 7 6.8438 7 21.594 0 14.641-7 21.453t-22.094 6.8125zm-9.8594 8.1094h20.266q21.188 0 31.094-8.8125 9.9219-8.8125 9.9219-27.562 0-18.859-9.9688-27.703-9.9531-8.8281-31.047-8.8281h-20.266z"/>
</defs>
<g transform="translate(718.87 520.3) rotate(71.039) scale(.08 -.08)">
<use xlink:href="#aq"/>
</g>
</g>
<path d="m745.95 523.05 2.5855 4.8232q1.1339 2.1152 3.2492 0.98134l6.8239-3.658q2.1152-1.1339 0.98134-3.2492l-2.5855-4.8232q-1.1339-2.1152-3.2492-0.98134l-6.8239 3.658q-2.1152 1.1339-0.98134 3.2492z" clip-path="url(#a)" fill="#fff" stroke="#fff"/>
<g clip-path="url(#a)">
<g transform="translate(749.53 521.13) rotate(61.806) scale(.08 -.08)">
<use xlink:href="#q"/>
</g>
</g>
<path d="m1034.3 446.15 1.3113-5.3131q0.5751-2.3301-1.755-2.9052l-7.5169-1.8553q-2.3301-0.5751-2.9052 1.755l-1.3113 5.3131q-0.5751 2.3301 1.755 2.9052l7.5169 1.8553q2.3301 0.5751 2.9052-1.755z" clip-path="url(#a)" fill="#fff" stroke="#fff"/>
<g clip-path="url(#a)">
<g transform="translate(1030.4 445.18) rotate(-76.136) scale(.08 -.08)">
<use xlink:href="#q"/>
</g>
</g>
<path d="m1069.5 445.03 0.49294-4.7985q0.24526-2.3874-2.1422-2.6327l-7.702-0.79121q-2.3874-0.24526-2.6327 2.1422l-0.49294 4.7985q-0.24526 2.3874 2.1422 2.6327l7.702 0.79121q2.3874 0.24526 2.6327-2.1422z" clip-path="url(#a)" fill="#fff" stroke="#fff"/>
<g clip-path="url(#a)">
<g transform="translate(1065.5 444.62) rotate(-84.135) scale(.08 -.08)">
<use xlink:href="#ak"/>
</g>
</g>
<path d="m1166 284.57 3.9528 3.7846q1.7335 1.6598 3.3933-0.073768l5.3545-5.5925q1.6598-1.7335-0.073768-3.3933l-3.9528-3.7846q-1.7335-1.6598-3.3933 0.073768l-5.3545 5.5925q-1.6598 1.7335 0.073769 3.3933z" clip-path="url(#a)" fill="#fff" stroke="#fff"/>
<g clip-path="url(#a)">
<g transform="translate(1168.8 281.64) rotate(43.755) scale(.08 -.08)">
<use xlink:href="#q"/>
</g>
</g>
<path d="m963.24 744.37v33.808q0 2.4 2.4 2.4h7.7425q2.4 0 2.4-2.4v-33.808q0-2.4-2.4-2.4h-7.7425q-2.4 0-2.4 2.4z" clip-path="url(#a)" fill="#fff" stroke="#fff"/>
<g clip-path="url(#a)">
<g transform="translate(967.31 744.37) rotate(90) scale(.08 -.08)">
<use xlink:href="#l"/>
<use x="44.083984" xlink:href="#d"/>
<use x="105.607422" xlink:href="#g"/>
<use x="144.970703" xlink:href="#k"/>
<use x="242.382812" xlink:href="#f"/>
<use x="270.166016" xlink:href="#j"/>
<use x="333.544922" xlink:href="#e"/>
<use x="394.824219" xlink:href="#h"/>
</g>
</g>
<path d="m1032.6 744.37v33.808q0 2.4 2.4 2.4h7.7425q2.4 0 2.4-2.4v-33.808q0-2.4-2.4-2.4h-7.7425q-2.4 0-2.4 2.4z" clip-path="url(#a)" fill="#fff" stroke="#fff"/>
<g clip-path="url(#a)">
<g transform="translate(1036.6 744.37) rotate(90) scale(.08 -.08)">
<use xlink:href="#l"/>
<use x="44.083984" xlink:href="#d"/>
<use x="105.607422" xlink:href="#g"/>
<use x="144.970703" xlink:href="#k"/>
<use x="242.382812" xlink:href="#f"/>
<use x="270.166016" xlink:href="#j"/>
<use x="333.544922" xlink:href="#e"/>
<use x="394.824219" xlink:href="#h"/>
</g>
</g>
<path d="m1188.1 527.63 2.3029-5.0593q0.99429-2.1844-1.1901-3.1786l-7.0468-3.2076q-2.1844-0.99429-3.1786 1.1901l-2.3029 5.0593q-0.99429 2.1844 1.1901 3.1786l7.0468 3.2076q2.1844 0.99429 3.1786-1.1901z" clip-path="url(#a)" fill="#fff" stroke="#fff"/>
<g clip-path="url(#a)">
<defs>
<path id="u" d="m44.391 34.188q3.1719-1.0781 6.1719-4.5938t6.0312-9.6719l10.016-19.922h-10.609l-9.3125 18.703q-3.625 7.3281-7.0156 9.7188t-9.25 2.3906h-10.75v-30.812h-9.8594v72.906h22.266q12.5 0 18.656-5.2344 6.1562-5.2188 6.1562-15.766 0-6.8906-3.2031-11.438-3.2031-4.5312-9.2969-6.2812zm-24.719 30.609v-25.875h12.406q7.125 0 10.766 3.2969t3.6406 9.6875-3.6406 9.6406-10.766 3.25z"/>
</defs>
<g transform="translate(1184.4 525.94) rotate(-65.526) scale(.08 -.08)">
<use xlink:href="#u"/>
</g>
</g>
<path d="m1226.4 526.33 1.0983-4.9343q0.52143-2.3427-1.8212-2.8641l-7.5576-1.6822q-2.3427-0.52143-2.8641 1.8212l-1.0983 4.9343q-0.52143 2.3427 1.8212 2.8641l7.5576 1.6822q2.3427 0.52143 2.8641-1.8212z" clip-path="url(#a)" fill="#fff" stroke="#fff"/>
<g clip-path="url(#a)">
<defs>
<path id="v" d="m9.8125 72.906h46.094v-8.3125h-36.234v-21.578h34.719v-8.2969h-34.719v-26.422h37.109v-8.2969h-46.969z"/>
</defs>
<g transform="translate(1222.4 525.45) rotate(-77.452) scale(.08 -.08)">
<use xlink:href="#v"/>
</g>
</g>
<path d="m1253 519.82 0.1008 5.5853q0.043306 2.3996 2.4429 2.3563l7.7412-0.13971q2.3996-0.043306 2.3563-2.4429l-0.1008-5.5853q-0.043306-2.3996-2.4429-2.3563l-7.7412 0.13971q-2.3996 0.043306-2.3563 2.4429z" clip-path="url(#a)" fill="#fff" stroke="#fff"/>
<g clip-path="url(#a)">
<defs>
<path id="t" d="m64.406 67.281v-10.391q-4.9844 4.6406-10.625 6.9219-5.6406 2.2969-11.984 2.2969-12.5 0-19.141-7.6406t-6.6406-22.094q0-14.406 6.6406-22.047t19.141-7.6406q6.3438 0 11.984 2.2969t10.625 6.9375v-10.312q-5.1719-3.5156-10.969-5.2812-5.7812-1.75-12.219-1.75-16.562 0-26.094 10.125-9.5156 10.141-9.5156 27.672 0 17.578 9.5156 27.703 9.5312 10.141 26.094 10.141 6.5312 0 12.312-1.7344 5.7969-1.7344 10.875-5.2031z"/>
</defs>
<g transform="translate(1257.1 519.75) rotate(88.966) scale(.08 -.08)">
<use xlink:href="#t"/>
</g>
</g>
<path d="m1356.2 446.15 4.0248 3.0584q1.9109 1.4521 3.363-0.45885l4.6844-6.1646q1.4521-1.9109-0.45885-3.363l-4.0248-3.0584q-1.9109-1.4521-3.363 0.45885l-4.6844 6.1646q-1.4521 1.9109 0.45885 3.363z" clip-path="url(#a)" fill="#fff" stroke="#fff"/>
<g clip-path="url(#a)">
<g transform="translate(1358.7 442.91) rotate(37.23) scale(.08 -.08)">
<use xlink:href="#v"/>
</g>
</g>
<path d="m1104.5 744.37v33.808q0 2.4 2.4 2.4h7.7425q2.4 0 2.4-2.4v-33.808q0-2.4-2.4-2.4h-7.7425q-2.4 0-2.4 2.4z" clip-path="url(#a)" fill="#fff" stroke="#fff"/>
<g clip-path="url(#a)">
<g transform="translate(1108.5 744.37) rotate(90) scale(.08 -.08)">
<use xlink:href="#l"/>
<use x="44.083984" xlink:href="#d"/>
<use x="105.607422" xlink:href="#g"/>
<use x="144.970703" xlink:href="#k"/>
<use x="242.382812" xlink:href="#f"/>
<use x="270.166016" xlink:href="#j"/>
<use x="333.544922" xlink:href="#e"/>
<use x="394.824219" xlink:href="#h"/>
</g>
</g>
<path d="m1178.9 744.37v33.808q0 2.4 2.4 2.4h7.7425q2.4 0 2.4-2.4v-33.808q0-2.4-2.4-2.4h-7.7425q-2.4 0-2.4 2.4z" clip-path="url(#a)" fill="#fff" stroke="#fff"/>
<g clip-path="url(#a)">
<g transform="translate(1183 744.37) rotate(90) scale(.08 -.08)">
<use xlink:href="#l"/>
<use x="44.083984" xlink:href="#d"/>
<use x="105.607422" xlink:href="#g"/>
<use x="144.970703" xlink:href="#k"/>
<use x="242.382812" xlink:href="#f"/>
<use x="270.166016" xlink:href="#j"/>
<use x="333.544922" xlink:href="#e"/>
<use x="394.824219" xlink:href="#h"/>
</g>
</g>
<path d="m1255.9 744.37v33.808q0 2.4 2.4 2.4h7.7425q2.4 0 2.4-2.4v-33.808q0-2.4-2.4-2.4h-7.7425q-2.4 0-2.4 2.4z" clip-path="url(#a)" fill="#fff" stroke="#fff"/>
<g clip-path="url(#a)">
<g transform="translate(1260 744.37) rotate(90) scale(.08 -.08)">
<use xlink:href="#l"/>
<use x="44.083984" xlink:href="#d"/>
<use x="105.607422" xlink:href="#g"/>
<use x="144.970703" xlink:href="#k"/>
<use x="242.382812" xlink:href="#f"/>
<use x="270.166016" xlink:href="#j"/>
<use x="333.544922" xlink:href="#e"/>
<use x="394.824219" xlink:href="#h"/>
</g>
</g>
<path d="m1407.9 608.8 3.4408-4.3659q1.4856-1.885-0.3994-3.3705l-6.081-4.7925q-1.885-1.4856-3.3705 0.3994l-3.4408 4.3659q-1.4856 1.885 0.3994 3.3705l6.081 4.7925q1.885 1.4856 3.3705-0.3994z" clip-path="url(#a)" fill="#fff" stroke="#fff"/>
<g clip-path="url(#a)">
<g transform="translate(1404.7 606.29) rotate(-51.758) scale(.08 -.08)">
<use xlink:href="#u"/>
</g>
</g>
<path d="m1451.2 606.83 1.3332-4.876q0.63299-2.315-1.682-2.948l-7.4684-2.042q-2.315-0.63299-2.948 1.682l-1.3332 4.876q-0.63299 2.315 1.682 2.948l7.4684 2.042q2.315 0.63299 2.948-1.682z" clip-path="url(#a)" fill="#fff" stroke="#fff"/>
<g clip-path="url(#a)">
<g transform="translate(1447.3 605.76) rotate(-74.708) scale(.08 -.08)">
<use xlink:href="#v"/>
</g>
</g>
<path d="m1481.4 601.59 1.3922 5.41q0.59813 2.3243 2.9224 1.7261l7.4982-1.9296q2.3243-0.59813 1.7261-2.9224l-1.3922-5.41q-0.59813-2.3243-2.9224-1.7261l-7.4982 1.9296q-2.3243 0.59813-1.7261 2.9224z" clip-path="url(#a)" fill="#fff" stroke="#fff"/>
<g clip-path="url(#a)">
<g transform="translate(1485.3 600.58) rotate(75.568) scale(.08 -.08)">
<use xlink:href="#t"/>
</g>
</g>
<path d="m1525.1 604.39 3.6692 4.5626q1.504 1.8703 3.3743 0.3662l6.0335-4.8521q1.8703-1.504 0.3662-3.3743l-3.6692-4.5626q-1.504-1.8703-3.3743-0.3662l-6.0335 4.8521q-1.8703 1.504-0.3662 3.3743z" clip-path="url(#a)" fill="#fff" stroke="#fff"/>
<g clip-path="url(#a)">
<g transform="translate(1528.3 601.84) rotate(51.194) scale(.08 -.08)">
<use xlink:href="#ad"/>
</g>
</g>
<path d="m1335.5 744.37v33.808q0 2.4 2.4 2.4h7.7425q2.4 0 2.4-2.4v-33.808q0-2.4-2.4-2.4h-7.7425q-2.4 0-2.4 2.4z" clip-path="url(#a)" fill="#fff" stroke="#fff"/>
<g clip-path="url(#a)">
<g transform="translate(1339.6 744.37) rotate(90) scale(.08 -.08)">
<use xlink:href="#l"/>
<use x="44.083984" xlink:href="#d"/>
<use x="105.607422" xlink:href="#g"/>
<use x="144.970703" xlink:href="#k"/>
<use x="242.382812" xlink:href="#f"/>
<use x="270.166016" xlink:href="#j"/>
<use x="333.544922" xlink:href="#e"/>
<use x="394.824219" xlink:href="#h"/>
</g>
</g>
<path d="m1417.7 744.37v33.808q0 2.4 2.4 2.4h7.7425q2.4 0 2.4-2.4v-33.808q0-2.4-2.4-2.4h-7.7425q-2.4 0-2.4 2.4z" clip-path="url(#a)" fill="#fff" stroke="#fff"/>
<g clip-path="url(#a)">
<g transform="translate(1421.8 744.37) rotate(90) scale(.08 -.08)">
<use xlink:href="#l"/>
<use x="44.083984" xlink:href="#d"/>
<use x="105.607422" xlink:href="#g"/>
<use x="144.970703" xlink:href="#k"/>
<use x="242.382812" xlink:href="#f"/>
<use x="270.166016" xlink:href="#j"/>
<use x="333.544922" xlink:href="#e"/>
<use x="394.824219" xlink:href="#h"/>
</g>
</g>
<path d="m1502.4 744.37v33.808q0 2.4 2.4 2.4h7.7425q2.4 0 2.4-2.4v-33.808q0-2.4-2.4-2.4h-7.7425q-2.4 0-2.4 2.4z" clip-path="url(#a)" fill="#fff" stroke="#fff"/>
<g clip-path="url(#a)">
<g transform="translate(1506.5 744.37) rotate(90) scale(.08 -.08)">
<use xlink:href="#l"/>
<use x="44.083984" xlink:href="#d"/>
<use x="105.607422" xlink:href="#g"/>
<use x="144.970703" xlink:href="#k"/>
<use x="242.382812" xlink:href="#f"/>
<use x="270.166016" xlink:href="#j"/>
<use x="333.544922" xlink:href="#e"/>
<use x="394.824219" xlink:href="#h"/>
</g>
</g>
<path d="m402.73 607.02 1.4124-5.3763q0.6098-2.3212-1.7114-2.931l-7.4884-1.9672q-2.3212-0.6098-2.931 1.7114l-1.4124 5.3763q-0.6098 2.3212 1.7114 2.931l7.4884 1.9672q2.3212 0.6098 2.931-1.7114z" clip-path="url(#a)" fill="#fff" stroke="#fff"/>
<g clip-path="url(#a)">
<g transform="translate(398.8 605.99) rotate(-75.281) scale(.08 -.08)">
<use xlink:href="#u"/>
</g>
</g>
<path d="m424.17 605.3 0.027101-5.0549q0.012867-2.4-2.3871-2.4128l-7.7424-0.041509q-2.4-0.012867-2.4128 2.3871l-0.027101 5.0549q-0.012867 2.4 2.3871 2.4128l7.7424 0.041509q2.4 0.012867 2.4128-2.3871z" clip-path="url(#a)" fill="#fff" stroke="#fff"/>
<g clip-path="url(#a)">
<g transform="translate(420.11 605.28) rotate(-89.693) scale(.08 -.08)">
<use xlink:href="#v"/>
</g>
</g>
<path d="m432.96 601.66 1.4464 5.3957q0.62142 2.3182 2.9396 1.6967l7.4785-2.0047q2.3182-0.62142 1.6967-2.9396l-1.4464-5.3957q-0.62142-2.3182-2.9396-1.6967l-7.4785 2.0047q-2.3182 0.62142-1.6967 2.9396z" clip-path="url(#a)" fill="#fff" stroke="#fff"/>
<g clip-path="url(#a)">
<g transform="translate(436.88 600.61) rotate(74.994) scale(.08 -.08)">
<use xlink:href="#t"/>
</g>
</g>
<path d="m549.7 607.94 2.3829-5.0221q1.0288-2.1683-1.1395-3.1971l-6.995-3.319q-2.1683-1.0288-3.1971 1.1395l-2.3829 5.0221q-1.0288 2.1683 1.1395 3.1971l6.995 3.319q2.1683 1.0288 3.1971-1.1395z" clip-path="url(#a)" fill="#fff" stroke="#fff"/>
<g clip-path="url(#a)">
<g transform="translate(546.03 606.19) rotate(-64.617) scale(.08 -.08)">
<use xlink:href="#u"/>
</g>
</g>
<path d="m575.38 606.27 0.84177-4.9844q0.39966-2.3665-1.9668-2.7661l-7.6344-1.2893q-2.3665-0.39966-2.7661 1.9668l-0.84177 4.9844q-0.39966 2.3665 1.9668 2.7661l7.6344 1.2893q2.3665 0.39966 2.7661-1.9668z" clip-path="url(#a)" fill="#fff" stroke="#fff"/>
<g clip-path="url(#a)">
<g transform="translate(571.37 605.6) rotate(-80.414) scale(.08 -.08)">
<use xlink:href="#v"/>
</g>
</g>
<path d="m588.67 600.92 0.84377 5.5222q0.36251 2.3725 2.735 2.01l7.6537-1.1695q2.3725-0.36251 2.01-2.735l-0.84377-5.5222q-0.3625-2.3725-2.735-2.01l-7.6537 1.1695q-2.3725 0.36251-2.01 2.735z" clip-path="url(#a)" fill="#fff" stroke="#fff"/>
<g clip-path="url(#a)">
<g transform="translate(592.69 600.31) rotate(81.313) scale(.08 -.08)">
<use xlink:href="#t"/>
</g>
</g>
<path d="m615.4 603 2.4482 4.9906q1.057 2.1547 3.2117 1.0977l6.9512-3.41q2.1547-1.057 1.0977-3.2117l-2.4482-4.9906q-1.057-2.1547-3.2117-1.0977l-6.9512 3.41q-2.1547 1.057-1.0977 3.2117z" clip-path="url(#a)" fill="#fff" stroke="#fff"/>
<g clip-path="url(#a)">
<g transform="translate(619.04 601.21) rotate(63.869) scale(.08 -.08)">
<use xlink:href="#u"/>
</g>
</g>
<path d="m711.62 744.37v33.808q0 2.4 2.4 2.4h7.7425q2.4 0 2.4-2.4v-33.808q0-2.4-2.4-2.4h-7.7425q-2.4 0-2.4 2.4z" clip-path="url(#a)" fill="#fff" stroke="#fff"/>
<g clip-path="url(#a)">
<g transform="translate(715.68 744.37) rotate(90) scale(.08 -.08)">
<use xlink:href="#l"/>
<use x="44.083984" xlink:href="#d"/>
<use x="105.607422" xlink:href="#g"/>
<use x="144.970703" xlink:href="#k"/>
<use x="242.382812" xlink:href="#f"/>
<use x="270.166016" xlink:href="#j"/>
<use x="333.544922" xlink:href="#e"/>
<use x="394.824219" xlink:href="#h"/>
</g>
</g>
<path d="m770.67 744.37v33.808q0 2.4 2.4 2.4h7.7425q2.4 0 2.4-2.4v-33.808q0-2.4-2.4-2.4h-7.7425q-2.4 0-2.4 2.4z" clip-path="url(#a)" fill="#fff" stroke="#fff"/>
<g clip-path="url(#a)">
<g transform="translate(774.74 744.37) rotate(90) scale(.08 -.08)">
<use xlink:href="#l"/>
<use x="44.083984" xlink:href="#d"/>
<use x="105.607422" xlink:href="#g"/>
<use x="144.970703" xlink:href="#k"/>
<use x="242.382812" xlink:href="#f"/>
<use x="270.166016" xlink:href="#j"/>
<use x="333.544922" xlink:href="#e"/>
<use x="394.824219" xlink:href="#h"/>
</g>
</g>
<path d="m832.3 744.37v33.808q0 2.4 2.4 2.4h7.7425q2.4 0 2.4-2.4v-33.808q0-2.4-2.4-2.4h-7.7425q-2.4 0-2.4 2.4z" clip-path="url(#a)" fill="#fff" stroke="#fff"/>
<g clip-path="url(#a)">
<g transform="translate(836.36 744.37) rotate(90) scale(.08 -.08)">
<use xlink:href="#l"/>
<use x="44.083984" xlink:href="#d"/>
<use x="105.607422" xlink:href="#g"/>
<use x="144.970703" xlink:href="#k"/>
<use x="242.382812" xlink:href="#f"/>
<use x="270.166016" xlink:href="#j"/>
<use x="333.544922" xlink:href="#e"/>
<use x="394.824219" xlink:href="#h"/>
</g>
</g>
<path d="m501.08 744.37v33.808q0 2.4 2.4 2.4h7.7425q2.4 0 2.4-2.4v-33.808q0-2.4-2.4-2.4h-7.7425q-2.4 0-2.4 2.4z" clip-path="url(#a)" fill="#fff" stroke="#fff"/>
<g clip-path="url(#a)">
<g transform="translate(505.14 744.37) rotate(90) scale(.08 -.08)">
<use xlink:href="#l"/>
<use x="44.083984" xlink:href="#d"/>
<use x="105.607422" xlink:href="#g"/>
<use x="144.970703" xlink:href="#k"/>
<use x="242.382812" xlink:href="#f"/>
<use x="270.166016" xlink:href="#j"/>
<use x="333.544922" xlink:href="#e"/>
<use x="394.824219" xlink:href="#h"/>
</g>
</g>
<path d="m549.86 744.37v33.808q0 2.4 2.4 2.4h7.7425q2.4 0 2.4-2.4v-33.808q0-2.4-2.4-2.4h-7.7425q-2.4 0-2.4 2.4z" clip-path="url(#a)" fill="#fff" stroke="#fff"/>
<g clip-path="url(#a)">
<g transform="translate(553.93 744.37) rotate(90) scale(.08 -.08)">
<use xlink:href="#l"/>
<use x="44.083984" xlink:href="#d"/>
<use x="105.607422" xlink:href="#g"/>
<use x="144.970703" xlink:href="#k"/>
<use x="242.382812" xlink:href="#f"/>
<use x="270.166016" xlink:href="#j"/>
<use x="333.544922" xlink:href="#e"/>
<use x="394.824219" xlink:href="#h"/>
</g>
</g>
<path d="m601.22 744.37v33.808q0 2.4 2.4 2.4h7.7425q2.4 0 2.4-2.4v-33.808q0-2.4-2.4-2.4h-7.7425q-2.4 0-2.4 2.4z" clip-path="url(#a)" fill="#fff" stroke="#fff"/>
<g clip-path="url(#a)">
<g transform="translate(605.28 744.37) rotate(90) scale(.08 -.08)">
<use xlink:href="#l"/>
<use x="44.083984" xlink:href="#d"/>
<use x="105.607422" xlink:href="#g"/>
<use x="144.970703" xlink:href="#k"/>
<use x="242.382812" xlink:href="#f"/>
<use x="270.166016" xlink:href="#j"/>
<use x="333.544922" xlink:href="#e"/>
<use x="394.824219" xlink:href="#h"/>
</g>
</g>
<path d="m655.13 744.37v33.808q0 2.4 2.4 2.4h7.7425q2.4 0 2.4-2.4v-33.808q0-2.4-2.4-2.4h-7.7425q-2.4 0-2.4 2.4z" clip-path="url(#a)" fill="#fff" stroke="#fff"/>
<g clip-path="url(#a)">
<g transform="translate(659.2 744.37) rotate(90) scale(.08 -.08)">
<use xlink:href="#l"/>
<use x="44.083984" xlink:href="#d"/>
<use x="105.607422" xlink:href="#g"/>
<use x="144.970703" xlink:href="#k"/>
<use x="242.382812" xlink:href="#f"/>
<use x="270.166016" xlink:href="#j"/>
<use x="333.544922" xlink:href="#e"/>
<use x="394.824219" xlink:href="#h"/>
</g>
</g>
<path d="m370.13 744.37v33.808q0 2.4 2.4 2.4h7.7425q2.4 0 2.4-2.4v-33.808q0-2.4-2.4-2.4h-7.7425q-2.4 0-2.4 2.4z" clip-path="url(#a)" fill="#fff" stroke="#fff"/>
<g clip-path="url(#a)">
<g transform="translate(374.2 744.37) rotate(90) scale(.08 -.08)">
<use xlink:href="#l"/>
<use x="44.083984" xlink:href="#d"/>
<use x="105.607422" xlink:href="#g"/>
<use x="144.970703" xlink:href="#k"/>
<use x="242.382812" xlink:href="#f"/>
<use x="270.166016" xlink:href="#j"/>
<use x="333.544922" xlink:href="#e"/>
<use x="394.824219" xlink:href="#h"/>
</g>
</g>
<path d="m411.22 744.37v33.808q0 2.4 2.4 2.4h7.7425q2.4 0 2.4-2.4v-33.808q0-2.4-2.4-2.4h-7.7425q-2.4 0-2.4 2.4z" clip-path="url(#a)" fill="#fff" stroke="#fff"/>
<g clip-path="url(#a)">
<g transform="translate(415.28 744.37) rotate(90) scale(.08 -.08)">
<use xlink:href="#l"/>
<use x="44.083984" xlink:href="#d"/>
<use x="105.607422" xlink:href="#g"/>
<use x="144.970703" xlink:href="#k"/>
<use x="242.382812" xlink:href="#f"/>
<use x="270.166016" xlink:href="#j"/>
<use x="333.544922" xlink:href="#e"/>
<use x="394.824219" xlink:href="#h"/>
</g>
</g>
<path d="m454.86 744.37v33.808q0 2.4 2.4 2.4h7.7425q2.4 0 2.4-2.4v-33.808q0-2.4-2.4-2.4h-7.7425q-2.4 0-2.4 2.4z" clip-path="url(#a)" fill="#fff" stroke="#fff"/>
<g clip-path="url(#a)">
<g transform="translate(458.93 744.37) rotate(90) scale(.08 -.08)">
<use xlink:href="#l"/>
<use x="44.083984" xlink:href="#d"/>
<use x="105.607422" xlink:href="#g"/>
<use x="144.970703" xlink:href="#k"/>
<use x="242.382812" xlink:href="#f"/>
<use x="270.166016" xlink:href="#j"/>
<use x="333.544922" xlink:href="#e"/>
<use x="394.824219" xlink:href="#h"/>
</g>
</g>
<path d="m69.729 744.37v33.808q0 2.4 2.4 2.4h7.7425q2.4 0 2.4-2.4v-33.808q0-2.4-2.4-2.4h-7.7425q-2.4 0-2.4 2.4z" clip-path="url(#a)" fill="#fff" stroke="#fff"/>
<g clip-path="url(#a)">
<g transform="translate(73.792 744.37) rotate(90) scale(.08 -.08)">
<use xlink:href="#l"/>
<use x="44.083984" xlink:href="#d"/>
<use x="105.607422" xlink:href="#g"/>
<use x="144.970703" xlink:href="#k"/>
<use x="242.382812" xlink:href="#f"/>
<use x="270.166016" xlink:href="#j"/>
<use x="333.544922" xlink:href="#e"/>
<use x="394.824219" xlink:href="#h"/>
</g>
</g>
<path d="m91.987 778.38 1.1021-33.79q0.078235-2.3987-2.3205-2.477l-7.7384-0.25239q-2.3987-0.078235-2.477 2.3205l-1.1021 33.79q-0.078235 2.3987 2.3205 2.477l7.7384 0.25239q2.3987 0.078236 2.477-2.3205z" clip-path="url(#a)" fill="#fff" stroke="#fff"/>
<g clip-path="url(#a)">
<g transform="translate(87.926 778.24) rotate(-88.132) scale(.08 -.08)">
<use xlink:href="#l"/>
<use x="44.083984" xlink:href="#d"/>
<use x="105.607422" xlink:href="#g"/>
<use x="144.970703" xlink:href="#k"/>
<use x="242.382812" xlink:href="#f"/>
<use x="270.166016" xlink:href="#j"/>
<use x="333.544922" xlink:href="#e"/>
<use x="394.824219" xlink:href="#h"/>
</g>
</g>
<path d="m84.586 744.59 1.1021 33.79q0.078236 2.3987 2.477 2.3205l7.7384-0.25239q2.3987-0.078236 2.3205-2.477l-1.1021-33.79q-0.078235-2.3987-2.477-2.3205l-7.7384 0.25239q-2.3987 0.078235-2.3205 2.477z" clip-path="url(#a)" fill="#fff" stroke="#fff"/>
<g clip-path="url(#a)">
<g transform="translate(88.648 744.45) rotate(88.132) scale(.08 -.08)">
<use xlink:href="#l"/>
<use x="44.083984" xlink:href="#d"/>
<use x="105.607422" xlink:href="#g"/>
<use x="144.970703" xlink:href="#k"/>
<use x="242.382812" xlink:href="#f"/>
<use x="270.166016" xlink:href="#j"/>
<use x="333.544922" xlink:href="#e"/>
<use x="394.824219" xlink:href="#h"/>
</g>
</g>
<path d="m100.54 744.37v33.808q0 2.4 2.4 2.4h7.7425q2.4 0 2.4-2.4v-33.808q0-2.4-2.4-2.4h-7.7425q-2.4 0-2.4 2.4z" clip-path="url(#a)" fill="#fff" stroke="#fff"/>
<g clip-path="url(#a)">
<g transform="translate(104.6 744.37) rotate(90) scale(.08 -.08)">
<use xlink:href="#l"/>
<use x="44.083984" xlink:href="#d"/>
<use x="105.607422" xlink:href="#g"/>
<use x="144.970703" xlink:href="#k"/>
<use x="242.382812" xlink:href="#f"/>
<use x="270.166016" xlink:href="#j"/>
<use x="333.544922" xlink:href="#e"/>
<use x="394.824219" xlink:href="#h"/>
</g>
</g>
<path d="m160.7 526.49 1.1191-5.4449q0.48319-2.3509-1.8677-2.834l-7.584-1.5588q-2.3509-0.48319-2.834 1.8677l-1.1191 5.4449q-0.48319 2.3509 1.8677 2.834l7.584 1.5588q2.3509 0.48319 2.834-1.8677z" clip-path="url(#a)" fill="#fff" stroke="#fff"/>
<g clip-path="url(#a)">
<g transform="translate(156.72 525.67) rotate(-78.385) scale(.08 -.08)">
<use xlink:href="#u"/>
</g>
</g>
<path d="m183.45 446.2 0.70549-5.4268q0.3094-2.38-2.0706-2.6894l-7.6779-0.99813q-2.38-0.3094-2.6894 2.0706l-0.70549 5.4268q-0.3094 2.38 2.0706 2.6894l7.6779 0.99813q2.38 0.3094 2.6894-2.0706z" clip-path="url(#a)" fill="#fff" stroke="#fff"/>
<g clip-path="url(#a)">
<g transform="translate(179.42 445.68) rotate(-82.593) scale(.08 -.08)">
<use xlink:href="#q"/>
</g>
</g>
<path d="m192.33 520.39 0.3404 5.0673q0.16086 2.3946 2.5555 2.2337l7.7251-0.51893q2.3946-0.16086 2.2337-2.5555l-0.3404-5.0673q-0.16086-2.3946-2.5555-2.2337l-7.7251 0.51893q-2.3946 0.16086-2.2337 2.5555z" clip-path="url(#a)" fill="#fff" stroke="#fff"/>
<g clip-path="url(#a)">
<g transform="translate(196.39 520.11) rotate(86.157) scale(.08 -.08)">
<use xlink:href="#aj"/>
</g>
</g>
<path d="m213.9 521.07 1.0914 5.3626q0.47866 2.3518 2.8304 1.8731l7.587-1.5442q2.3518-0.47866 1.8731-2.8304l-1.0914-5.3626q-0.47866-2.3518-2.8304-1.8731l-7.587 1.5442q-2.3518 0.47866-1.8731 2.8304z" clip-path="url(#a)" fill="#fff" stroke="#fff"/>
<g clip-path="url(#a)">
<g transform="translate(217.88 520.26) rotate(78.496) scale(.08 -.08)">
<use xlink:href="#q"/>
</g>
</g>
<path d="m115.94 744.37v33.808q0 2.4 2.4 2.4h7.7425q2.4 0 2.4-2.4v-33.808q0-2.4-2.4-2.4h-7.7425q-2.4 0-2.4 2.4z" clip-path="url(#a)" fill="#fff" stroke="#fff"/>
<g clip-path="url(#a)">
<g transform="translate(120.01 744.37) rotate(90) scale(.08 -.08)">
<use xlink:href="#l"/>
<use x="44.083984" xlink:href="#d"/>
<use x="105.607422" xlink:href="#g"/>
<use x="144.970703" xlink:href="#k"/>
<use x="242.382812" xlink:href="#f"/>
<use x="270.166016" xlink:href="#j"/>
<use x="333.544922" xlink:href="#e"/>
<use x="394.824219" xlink:href="#h"/>
</g>
</g>
<path d="m164.78 605.9 0.52561-5.0276q0.24955-2.387-2.1374-2.6365l-7.7005-0.80506q-2.387-0.24955-2.6365 2.1374l-0.52561 5.0276q-0.24955 2.387 2.1374 2.6365l7.7005 0.80506q2.387 0.24955 2.6365-2.1374z" clip-path="url(#a)" fill="#fff" stroke="#fff"/>
<g clip-path="url(#a)">
<g transform="translate(160.74 605.48) rotate(-84.032) scale(.08 -.08)">
<use xlink:href="#v"/>
</g>
</g>
<path d="m168.97 600.61 0.58085 5.556q0.24955 2.387 2.6365 2.1374l7.7005-0.80506q2.387-0.24955 2.1374-2.6365l-0.58085-5.556q-0.24955-2.387-2.6365-2.1374l-7.7005 0.80506q-2.387 0.24955-2.1374 2.6365z" clip-path="url(#a)" fill="#fff" stroke="#fff"/>
<g clip-path="url(#a)">
<g transform="translate(173.01 600.19) rotate(84.032) scale(.08 -.08)">
<use xlink:href="#t"/>
</g>
</g>
<path d="m203.24 744.37v33.808q0 2.4 2.4 2.4h7.7425q2.4 0 2.4-2.4v-33.808q0-2.4-2.4-2.4h-7.7425q-2.4 0-2.4 2.4z" clip-path="url(#a)" fill="#fff" stroke="#fff"/>
<g clip-path="url(#a)">
<g transform="translate(207.31 744.37) rotate(90) scale(.08 -.08)">
<use xlink:href="#l"/>
<use x="44.083984" xlink:href="#d"/>
<use x="105.607422" xlink:href="#g"/>
<use x="144.970703" xlink:href="#k"/>
<use x="242.382812" xlink:href="#f"/>
<use x="270.166016" xlink:href="#j"/>
<use x="333.544922" xlink:href="#e"/>
<use x="394.824219" xlink:href="#h"/>
</g>
</g>
<path d="m250.05 778.71 3.2922-33.647q0.23371-2.3886-2.1549-2.6223l-7.7057-0.75397q-2.3886-0.23371-2.6223 2.1549l-3.2922 33.647q-0.23371 2.3886 2.1549 2.6223l7.7057 0.75397q2.3886 0.23371 2.6223-2.1549z" clip-path="url(#a)" fill="#fff" stroke="#fff"/>
<g clip-path="url(#a)">
<g transform="translate(246.01 778.32) rotate(-84.412) scale(.08 -.08)">
<use xlink:href="#l"/>
<use x="44.083984" xlink:href="#d"/>
<use x="105.607422" xlink:href="#g"/>
<use x="144.970703" xlink:href="#k"/>
<use x="242.382812" xlink:href="#f"/>
<use x="270.166016" xlink:href="#j"/>
<use x="333.544922" xlink:href="#e"/>
<use x="394.824219" xlink:href="#h"/>
</g>
</g>
<path d="m252.98 745.06 3.2922 33.647q0.23372 2.3886 2.6223 2.1549l7.7057-0.75397q2.3886-0.23372 2.1549-2.6223l-3.2922-33.647q-0.23371-2.3886-2.6223-2.1549l-7.7057 0.75397q-2.3886 0.23371-2.1549 2.6223z" clip-path="url(#a)" fill="#fff" stroke="#fff"/>
<g clip-path="url(#a)">
<g transform="translate(257.02 744.67) rotate(84.412) scale(.08 -.08)">
<use xlink:href="#l"/>
<use x="44.083984" xlink:href="#d"/>
<use x="105.607422" xlink:href="#g"/>
<use x="144.970703" xlink:href="#k"/>
<use x="242.382812" xlink:href="#f"/>
<use x="270.166016" xlink:href="#j"/>
<use x="333.544922" xlink:href="#e"/>
<use x="394.824219" xlink:href="#h"/>
</g>
</g>
<path d="m150.48 778.55 2.2006-33.736q0.15622-2.3949-2.2387-2.5511l-7.7261-0.50398q-2.3949-0.15622-2.5511 2.2387l-2.2006 33.736q-0.15622 2.3949 2.2387 2.5511l7.7261 0.50398q2.3949 0.15622 2.5511-2.2387z" clip-path="url(#a)" fill="#fff" stroke="#fff"/>
<g clip-path="url(#a)">
<g transform="translate(146.43 778.29) rotate(-86.268) scale(.08 -.08)">
<use xlink:href="#l"/>
<use x="44.083984" xlink:href="#d"/>
<use x="105.607422" xlink:href="#g"/>
<use x="144.970703" xlink:href="#k"/>
<use x="242.382812" xlink:href="#f"/>
<use x="270.166016" xlink:href="#j"/>
<use x="333.544922" xlink:href="#e"/>
<use x="394.824219" xlink:href="#h"/>
</g>
</g>
<path d="m148.24 744.82 2.2006 33.736q0.15622 2.3949 2.5511 2.2387l7.7261-0.50398q2.3949-0.15622 2.2387-2.5511l-2.2006-33.736q-0.15622-2.3949-2.5511-2.2387l-7.7261 0.50398q-2.3949 0.15622-2.2387 2.5511z" clip-path="url(#a)" fill="#fff" stroke="#fff"/>
<g clip-path="url(#a)">
<g transform="translate(152.29 744.55) rotate(86.268) scale(.08 -.08)">
<use xlink:href="#l"/>
<use x="44.083984" xlink:href="#d"/>
<use x="105.607422" xlink:href="#g"/>
<use x="144.970703" xlink:href="#k"/>
<use x="242.382812" xlink:href="#f"/>
<use x="270.166016" xlink:href="#j"/>
<use x="333.544922" xlink:href="#e"/>
<use x="394.824219" xlink:href="#h"/>
</g>
</g>
<path d="m177.57 744.37v33.808q0 2.4 2.4 2.4h7.7425q2.4 0 2.4-2.4v-33.808q0-2.4-2.4-2.4h-7.7425q-2.4 0-2.4 2.4z" clip-path="url(#a)" fill="#fff" stroke="#fff"/>
<g clip-path="url(#a)">
<g transform="translate(181.63 744.37) rotate(90) scale(.08 -.08)">
<use xlink:href="#l"/>
<use x="44.083984" xlink:href="#d"/>
<use x="105.607422" xlink:href="#g"/>
<use x="144.970703" xlink:href="#k"/>
<use x="242.382812" xlink:href="#f"/>
<use x="270.166016" xlink:href="#j"/>
<use x="333.544922" xlink:href="#e"/>
<use x="394.824219" xlink:href="#h"/>
</g>
</g>
<path d="m295.67 744.37v33.808q0 2.4 2.4 2.4h7.7425q2.4 0 2.4-2.4v-33.808q0-2.4-2.4-2.4h-7.7425q-2.4 0-2.4 2.4z" clip-path="url(#a)" fill="#fff" stroke="#fff"/>
<g clip-path="url(#a)">
<g transform="translate(299.74 744.37) rotate(90) scale(.08 -.08)">
<use xlink:href="#l"/>
<use x="44.083984" xlink:href="#d"/>
<use x="105.607422" xlink:href="#g"/>
<use x="144.970703" xlink:href="#k"/>
<use x="242.382812" xlink:href="#f"/>
<use x="270.166016" xlink:href="#j"/>
<use x="333.544922" xlink:href="#e"/>
<use x="394.824219" xlink:href="#h"/>
</g>
</g>
<path d="m896.49 744.37v33.808q0 2.4 2.4 2.4h7.7425q2.4 0 2.4-2.4v-33.808q0-2.4-2.4-2.4h-7.7425q-2.4 0-2.4 2.4z" clip-path="url(#a)" fill="#fff" stroke="#fff"/>
<g clip-path="url(#a)">
<g transform="translate(900.55 744.37) rotate(90) scale(.08 -.08)">
<use xlink:href="#l"/>
<use x="44.083984" xlink:href="#d"/>
<use x="105.607422" xlink:href="#g"/>
<use x="144.970703" xlink:href="#k"/>
<use x="242.382812" xlink:href="#f"/>
<use x="270.166016" xlink:href="#j"/>
<use x="333.544922" xlink:href="#e"/>
<use x="394.824219" xlink:href="#h"/>
</g>
</g>
<path d="m1589.7 744.37v33.808q0 2.4 2.4 2.4h7.7425q2.4 0 2.4-2.4v-33.808q0-2.4-2.4-2.4h-7.7425q-2.4 0-2.4 2.4z" clip-path="url(#a)" fill="#fff" stroke="#fff"/>
<g clip-path="url(#a)">
<g transform="translate(1593.8 744.37) rotate(90) scale(.08 -.08)">
<use xlink:href="#l"/>
<use x="44.083984" xlink:href="#d"/>
<use x="105.607422" xlink:href="#g"/>
<use x="144.970703" xlink:href="#k"/>
<use x="242.382812" xlink:href="#f"/>
<use x="270.166016" xlink:href="#j"/>
<use x="333.544922" xlink:href="#e"/>
<use x="394.824219" xlink:href="#h"/>
</g>
</g>
<defs>
<path id="b" d="m0 8.6603c2.2967 0 4.4997-0.9125 6.1237-2.5365 1.624-1.624 2.5365-3.827 2.5365-6.1237s-0.9125-4.4997-2.5365-6.1237c-1.624-1.624-3.827-2.5365-6.1237-2.5365s-4.4997 0.9125-6.1237 2.5365c-1.624 1.624-2.5365 3.827-2.5365 6.1237s0.9125 4.4997 2.5365 6.1237c1.624 1.624 3.827 2.5365 6.1237 2.5365z"/>
</defs>
<g clip-path="url(#a)" fill="#ffffff" stroke="#ffffff">
<use x="76" y="840" xlink:href="#b"/>
<use x="83.702703" y="840" xlink:href="#b"/>
<use x="93.972973" y="840" xlink:href="#b"/>
<use x="106.810811" y="840" xlink:href="#b"/>
<use x="122.216216" y="840" xlink:href="#b"/>
<use x="140.189189" y="840" xlink:href="#b"/>
<use x="160.72973" y="840" xlink:href="#b"/>
<use x="183.837838" y="840" xlink:href="#b"/>
<use x="209.513514" y="840" xlink:href="#b"/>
<use x="237.756757" y="840" xlink:href="#b"/>
<use x="268.567568" y="840" xlink:href="#b"/>
<use x="301.945946" y="840" xlink:href="#b"/>
<use x="337.891892" y="840" xlink:href="#b"/>
<use x="376.405405" y="840" xlink:href="#b"/>
<use x="417.486486" y="840" xlink:href="#b"/>
<use x="461.135135" y="840" xlink:href="#b"/>
<use x="507.351351" y="840" xlink:href="#b"/>
<use x="556.135135" y="840" xlink:href="#b"/>
<use x="607.486486" y="840" xlink:href="#b"/>
<use x="661.405405" y="840" xlink:href="#b"/>
<use x="717.891892" y="840" xlink:href="#b"/>
<use x="776.945946" y="840" xlink:href="#b"/>
<use x="838.567568" y="840" xlink:href="#b"/>
<use x="902.756757" y="840" xlink:href="#b"/>
<use x="969.513514" y="840" xlink:href="#b"/>
<use x="1038.837838" y="840" xlink:href="#b"/>
<use x="1110.72973" y="840" xlink:href="#b"/>
<use x="1185.189189" y="840" xlink:href="#b"/>
<use x="1262.216216" y="840" xlink:href="#b"/>
<use x="1341.810811" y="840" xlink:href="#b"/>
<use x="1423.972973" y="840" xlink:href="#b"/>
<use x="1508.702703" y="840" xlink:href="#b"/>
<use x="1596" y="840" xlink:href="#b"/>
<use x="568.790212" y="40" xlink:href="#b"/>
<use x="114.914696" y="201.426527" xlink:href="#b"/>
<use x="337.891892" y="682.554489" xlink:href="#b"/>
<use x="666.968468" y="362.445711" xlink:href="#b"/>
<use x="1088.263514" y="201.426527" xlink:href="#b"/>
<use x="969.513514" y="682.554489" xlink:href="#b"/>
<use x="1038.837838" y="682.554489" xlink:href="#b"/>
<use x="1256.439189" y="362.445711" xlink:href="#b"/>
<use x="1110.72973" y="682.554489" xlink:href="#b"/>
<use x="1185.189189" y="682.554489" xlink:href="#b"/>
<use x="1262.216216" y="682.554489" xlink:href="#b"/>
<use x="1467.621622" y="522.918738" xlink:href="#b"/>
<use x="1341.810811" y="682.554489" xlink:href="#b"/>
<use x="1423.972973" y="682.554489" xlink:href="#b"/>
<use x="1508.702703" y="682.554489" xlink:href="#b"/>
<use x="418.342342" y="522.918738" xlink:href="#b"/>
<use x="583.094595" y="522.918738" xlink:href="#b"/>
<use x="717.891892" y="682.554489" xlink:href="#b"/>
<use x="776.945946" y="682.554489" xlink:href="#b"/>
<use x="838.567568" y="682.554489" xlink:href="#b"/>
<use x="507.351351" y="682.554489" xlink:href="#b"/>
<use x="556.135135" y="682.554489" xlink:href="#b"/>
<use x="607.486486" y="682.554489" xlink:href="#b"/>
<use x="661.405405" y="682.554489" xlink:href="#b"/>
<use x="376.405405" y="682.554489" xlink:href="#b"/>
<use x="417.486486" y="682.554489" xlink:href="#b"/>
<use x="461.135135" y="682.554489" xlink:href="#b"/>
<use x="76" y="682.554489" xlink:href="#b"/>
<use x="88.837838" y="682.554489" xlink:href="#b"/>
<use x="106.810811" y="682.554489" xlink:href="#b"/>
<use x="188.010135" y="362.445711" xlink:href="#b"/>
<use x="122.216216" y="682.554489" xlink:href="#b"/>
<use x="167.148649" y="522.918738" xlink:href="#b"/>
<use x="209.513514" y="682.554489" xlink:href="#b"/>
<use x="253.162162" y="682.554489" xlink:href="#b"/>
<use x="150.459459" y="682.554489" xlink:href="#b"/>
<use x="183.837838" y="682.554489" xlink:href="#b"/>
<use x="301.945946" y="682.554489" xlink:href="#b"/>
<use x="902.756757" y="682.554489" xlink:href="#b"/>
<use x="1596" y="682.554489" xlink:href="#b"/>
</g>
<g clip-path="url(#a)">
<defs>
<path id="ap" d="m9.8125 72.906h9.8594v-72.906h-9.8594z"/>
</defs>
<g transform="translate(73.136 842.76) scale(.1 -.1)">
<use xlink:href="#ap"/>
<use x="29.492188" xlink:href="#h"/>
</g>
</g>
<g clip-path="url(#a)">
<defs>
<path id="o" d="m44.281 53.078v-8.5q-3.7969 1.9531-7.9062 2.9219-4.0938 0.98438-8.5 0.98438-6.6875 0-10.031-2.0469t-3.3438-6.1562q0-3.125 2.3906-4.9062t9.625-3.3906l3.0781-0.6875q9.5625-2.0469 13.594-5.7812t4.0312-10.422q0-7.625-6.0312-12.078-6.0312-4.4375-16.578-4.4375-4.3906 0-9.1562 0.85938t-10.031 2.5625v9.2812q4.9844-2.5938 9.8125-3.8906 4.8281-1.2812 9.5781-1.2812 6.3438 0 9.75 2.1719 3.4219 2.1719 3.4219 6.125 0 3.6562-2.4688 5.6094-2.4531 1.9531-10.812 3.7656l-3.125 0.73438q-8.3438 1.75-12.062 5.3906-3.7031 3.6406-3.7031 9.9844 0 7.7188 5.4688 11.906 5.4688 4.2031 15.531 4.2031 4.9688 0 9.3594-0.73438 4.4062-0.71875 8.1094-2.1875z"/>
</defs>
<g transform="translate(78.021 842.76) scale(.1 -.1)">
<use xlink:href="#o"/>
<use x="52.099609" xlink:href="#d"/>
</g>
</g>
<g clip-path="url(#a)">
<defs>
<path id="p" d="m18.312 70.219v-15.531h18.5v-6.9844h-18.5v-29.688q0-6.6875 1.8281-8.5938t7.4531-1.9062h9.2188v-7.5156h-9.2188q-10.406 0-14.359 3.875-3.9531 3.8906-3.9531 14.141v29.688h-6.5938v6.9844h6.5938v15.531z"/>
<path id="s" d="m30.609 48.391q-7.2188 0-11.422-5.6406t-4.2031-15.453 4.1719-15.453q4.1875-5.6406 11.453-5.6406 7.1875 0 11.375 5.6562 4.2031 5.6719 4.2031 15.438 0 9.7188-4.2031 15.406-4.1875 5.6875-11.375 5.6875zm0 7.6094q11.719 0 18.406-7.625 6.7031-7.6094 6.7031-21.078 0-13.422-6.7031-21.078-6.6875-7.6406-18.406-7.6406-11.766 0-18.438 7.6406-6.6562 7.6562-6.6562 21.078 0 13.469 6.6562 21.078 6.6719 7.625 18.438 7.625z"/>
<path id="w" d="m8.5 21.578v33.109h8.9844v-32.766q0-7.7656 3.0156-11.656 3.0312-3.875 9.0938-3.875 7.2656 0 11.484 4.6406 4.2344 4.6406 4.2344 12.656v31h8.9844v-54.688h-8.9844v8.4062q-3.2656-4.9844-7.5938-7.4062-4.3125-2.4219-10.031-2.4219-9.4219 0-14.312 5.8594-4.875 5.8594-4.875 17.141z"/>
<path id="ab" d="m2.9844 54.688h9.5156l17.094-45.891 17.094 45.891h9.5156l-20.516-54.688h-12.203z"/>
</defs>
<g transform="translate(74.469 842.76) scale(.1 -.1)">
<use xlink:href="#p"/>
<use x="39.208984" xlink:href="#g"/>
<use x="78.072266" xlink:href="#s"/>
<use x="139.253906" xlink:href="#w"/>
<use x="202.632812" xlink:href="#ab"/>
<use x="261.8125" xlink:href="#e"/>
<use x="323.091797" xlink:href="#f"/>
<use x="350.875" xlink:href="#p"/>
</g>
</g>
<g clip-path="url(#a)">
<g transform="translate(94.638 842.76) scale(.1 -.1)">
<use xlink:href="#e"/>
<use x="61.279297" xlink:href="#h"/>
<use x="89.0625" xlink:href="#s"/>
<use x="150.244141" xlink:href="#g"/>
<use x="191.357422" xlink:href="#o"/>
</g>
</g>
<g clip-path="url(#a)">
<defs>
<path id="au" d="m34.281 27.484q-10.891 0-15.094-2.4844t-4.2031-8.5q0-4.7812 3.1562-7.5938 3.1562-2.7969 8.5625-2.7969 7.4844 0 12 5.2969t4.5156 14.078v2zm17.922 3.7188v-31.203h-8.9844v8.2969q-3.0781-4.9688-7.6719-7.3438t-11.234-2.375q-8.3906 0-13.359 4.7188-4.9531 4.7188-4.9531 12.625 0 9.2188 6.1719 13.906 6.1875 4.6875 18.438 4.6875h12.609v0.89062q0 6.2031-4.0781 9.5938t-11.453 3.3906q-4.6875 0-9.1406-1.125-4.4375-1.125-8.5312-3.375v8.3125q4.9219 1.9062 9.5625 2.8438 4.6406 0.95312 9.0312 0.95312 11.875 0 17.734-6.1562 5.8594-6.1406 5.8594-18.641zm-30.281 48.781 13.766-18.266h-7.4688l-15.922 18.266z"/>
</defs>
<g transform="translate(119.15 842.76) scale(.1 -.1)">
<use xlink:href="#au"/>
</g>
</g>
<g clip-path="url(#a)">
<g transform="translate(129.23 842.76) scale(.1 -.1)">
<use xlink:href="#p"/>
<use x="39.208984" xlink:href="#g"/>
<use x="78.072266" xlink:href="#s"/>
<use x="139.253906" xlink:href="#f"/>
<use x="167.037109" xlink:href="#o"/>
</g>
</g>
<g clip-path="url(#a)">
<defs>
<path id="ai" d="m48.781 52.594v-8.4062q-3.8125 2.1094-7.6406 3.1562t-7.7344 1.0469q-8.75 0-13.594-5.5469-4.8281-5.5312-4.8281-15.547t4.8281-15.562q4.8438-5.5312 13.594-5.5312 3.9062 0 7.7344 1.0469t7.6406 3.1562v-8.3125q-3.7656-1.75-7.7969-2.625-4.0156-0.89062-8.5625-0.89062-12.359 0-19.641 7.7656-7.2656 7.7656-7.2656 20.953 0 13.375 7.3438 21.031 7.3594 7.6719 20.156 7.6719 4.1406 0 8.0938-0.85938 3.9531-0.84375 7.6719-2.5469z"/>
</defs>
<g transform="translate(149.78 842.76) scale(.1 -.1)">
<use xlink:href="#ai"/>
<use x="54.980469" xlink:href="#d"/>
<use x="116.503906" xlink:href="#j"/>
<use x="179.882812" xlink:href="#p"/>
</g>
</g>
<g clip-path="url(#a)">
<g transform="translate(171.72 842.76) scale(.1 -.1)">
<use xlink:href="#k"/>
<use x="97.412109" xlink:href="#f"/>
<use x="125.195312" xlink:href="#h"/>
<use x="152.978516" xlink:href="#h"/>
<use x="180.761719" xlink:href="#d"/>
</g>
</g>
<g clip-path="url(#a)">
<defs>
<path id="x" d="m45.406 46.391v29.594h8.9844v-75.984h-8.9844v8.2031q-2.8281-4.875-7.1562-7.25-4.3125-2.375-10.375-2.375-9.9062 0-16.141 7.9062-6.2188 7.9219-6.2188 20.812t6.2188 20.797q6.2344 7.9062 16.141 7.9062 6.0625 0 10.375-2.375 4.3281-2.3594 7.1562-7.2344zm-30.609-19.094q0-9.9062 4.0781-15.547t11.203-5.6406 11.219 5.6406q4.1094 5.6406 4.1094 15.547t-4.1094 15.547q-4.0938 5.6406-11.219 5.6406t-11.203-5.6406-4.0781-15.547z"/>
</defs>
<g transform="translate(203.17 842.76) scale(.1 -.1)">
<use xlink:href="#x"/>
<use x="63.476562" xlink:href="#w"/>
</g>
</g>
<g clip-path="url(#a)">
<defs>
<path id="ac" d="m18.109 8.2031v-29h-9.0312v75.484h9.0312v-8.2969q2.8438 4.875 7.1562 7.2344 4.3281 2.375 10.328 2.375 9.9688 0 16.188-7.9062 6.2344-7.9062 6.2344-20.797t-6.2344-20.812q-6.2188-7.9062-16.188-7.9062-6 0-10.328 2.375-4.3125 2.375-7.1562 7.25zm30.578 19.094q0 9.9062-4.0781 15.547t-11.203 5.6406q-7.1406 0-11.219-5.6406t-4.0781-15.547 4.0781-15.547 11.219-5.6406q7.125 0 11.203 5.6406t4.0781 15.547z"/>
</defs>
<g transform="translate(228.77 842.76) scale(.1 -.1)">
<use xlink:href="#ai"/>
<use x="54.980469" xlink:href="#e"/>
<use x="116.259766" xlink:href="#ac"/>
</g>
</g>
<g clip-path="url(#a)">
<g transform="translate(255.49 842.76) scale(.1 -.1)">
<use xlink:href="#t"/>
<use x="69.824219" xlink:href="#h"/>
<use x="97.607422" xlink:href="#d"/>
<use x="159.130859" xlink:href="#e"/>
<use x="220.410156" xlink:href="#g"/>
</g>
</g>
<g clip-path="url(#a)">
<defs>
<path id="am" d="m11.719 12.406h10.297v-8.4062l-8-15.625h-6.2969l4 15.625z"/>
</defs>
<g transform="translate(300.36 842.76) scale(.1 -.1)">
<use xlink:href="#am"/>
</g>
</g>
<g clip-path="url(#a)">
<g transform="translate(332.86 842.76) scale(.1 -.1)">
<use xlink:href="#d"/>
<use x="61.523438" xlink:href="#p"/>
</g>
</g>
<g clip-path="url(#a)">
<defs>
<path id="at" d="m56.203 29.594v-4.3906h-41.312q0.59375-9.2812 5.5938-14.141t13.938-4.8594q5.1719 0 10.031 1.2656t9.6562 3.8125v-8.5q-4.8438-2.0469-9.9219-3.125t-10.297-1.0781q-13.094 0-20.734 7.6094-7.6406 7.625-7.6406 20.625 0 13.422 7.25 21.297 7.25 7.8906 19.562 7.8906 11.031 0 17.453-7.1094 6.4219-7.0938 6.4219-19.297zm-8.9844 2.6406q-0.09375 7.3594-4.125 11.75-4.0312 4.4062-10.672 4.4062-7.5156 0-12.031-4.25t-5.2031-11.969zm-22.547 47.75 13.766-18.266h-7.4688l-15.922 18.266z"/>
</defs>
<g transform="translate(362.54 842.96) scale(.1 -.1)">
<use xlink:href="#e"/>
<use x="61.279297" xlink:href="#ac"/>
<use x="124.755859" xlink:href="#g"/>
<use x="163.619141" xlink:href="#at"/>
<use x="225.142578" xlink:href="#o"/>
</g>
</g>
<g clip-path="url(#a)">
<g transform="translate(406.53 842.76) scale(.1 -.1)">
<use xlink:href="#p"/>
<use x="39.208984" xlink:href="#g"/>
<use x="78.072266" xlink:href="#s"/>
<use x="139.253906" xlink:href="#f"/>
<use x="167.037109" xlink:href="#o"/>
</g>
</g>
<g clip-path="url(#a)">
<defs>
<path id="av" d="m9.4219 54.688h8.9844v-55.672q0-10.438-3.9844-15.125-3.9688-4.6875-12.812-4.6875h-3.4219v7.6094h2.4062q5.125 0 6.9688 2.375 1.8594 2.3594 1.8594 9.8281zm0 21.297h8.9844v-11.391h-8.9844z"/>
</defs>
<g transform="translate(448.86 842.76) scale(.1 -.1)">
<use xlink:href="#av"/>
<use x="27.783203" xlink:href="#s"/>
<use x="88.964844" xlink:href="#w"/>
<use x="152.34375" xlink:href="#g"/>
<use x="193.457031" xlink:href="#o"/>
</g>
</g>
<g clip-path="url(#a)">
<defs>
<path id="ar" d="m17.922 72.906v-27.109h-8.2969v27.109z"/>
</defs>
<g transform="translate(502.8 842.76) scale(.1 -.1)">
<use xlink:href="#x"/>
<use x="63.476562" xlink:href="#ar"/>
</g>
</g>
<g clip-path="url(#a)">
<g transform="translate(549.8 842.76) scale(.1 -.1)">
<use xlink:href="#w"/>
<use x="63.378906" xlink:href="#j"/>
</g>
</g>
<g clip-path="url(#a)">
<g transform="translate(592.3 842.76) scale(.1 -.1)">
<use xlink:href="#g"/>
<use x="38.863281" xlink:href="#d"/>
<use x="100.386719" xlink:href="#p"/>
<use x="139.595703" xlink:href="#e"/>
<use x="200.875" xlink:href="#g"/>
<use x="240.238281" xlink:href="#x"/>
</g>
</g>
<g clip-path="url(#a)">
<defs>
<path id="an" d="m14.797 27.297q0-9.9062 4.0781-15.547t11.203-5.6406 11.219 5.6406q4.1094 5.6406 4.1094 15.547t-4.1094 15.547q-4.0938 5.6406-11.219 5.6406t-11.203-5.6406-4.0781-15.547zm30.609-19.094q-2.8281-4.875-7.1562-7.25-4.3125-2.375-10.375-2.375-9.9062 0-16.141 7.9062-6.2188 7.9219-6.2188 20.812t6.2188 20.797q6.2344 7.9062 16.141 7.9062 6.0625 0 10.375-2.375 4.3281-2.3594 7.1562-7.2344v8.2969h8.9844v-75.484h-8.9844z"/>
</defs>
<g transform="translate(653.67 842.76) scale(.1 -.1)">
<use xlink:href="#an"/>
<use x="63.476562" xlink:href="#w"/>
<use x="126.855469" xlink:href="#f"/>
</g>
</g>
<g clip-path="url(#a)">
<defs>
<path id="as" d="m56.203 29.594v-4.3906h-41.312q0.59375-9.2812 5.5938-14.141t13.938-4.8594q5.1719 0 10.031 1.2656t9.6562 3.8125v-8.5q-4.8438-2.0469-9.9219-3.125t-10.297-1.0781q-13.094 0-20.734 7.6094-7.6406 7.625-7.6406 20.625 0 13.422 7.25 21.297 7.25 7.8906 19.562 7.8906 11.031 0 17.453-7.1094 6.4219-7.0938 6.4219-19.297zm-8.9844 2.6406q-0.09375 7.3594-4.125 11.75-4.0312 4.4062-10.672 4.4062-7.5156 0-12.031-4.25t-5.2031-11.969zm-8.6875 47.75h9.7188l-15.906-18.359h-7.4844z"/>
</defs>
<g transform="translate(697.5 842.96) scale(.1 -.1)">
<use xlink:href="#f"/>
<use x="27.783203" xlink:href="#j"/>
<use x="91.162109" xlink:href="#an"/>
<use x="154.638672" xlink:href="#w"/>
<use x="218.017578" xlink:href="#f"/>
<use x="245.800781" xlink:href="#as"/>
<use x="307.324219" xlink:href="#p"/>
<use x="346.533203" xlink:href="#e"/>
</g>
</g>
<g clip-path="url(#a)">
<g transform="translate(753.49 842.76) scale(.1 -.1)">
<use xlink:href="#ab"/>
<use x="59.179688" xlink:href="#f"/>
<use x="86.962891" xlink:href="#ab"/>
<use x="146.142578" xlink:href="#d"/>
<use x="207.666016" xlink:href="#k"/>
<use x="305.078125" xlink:href="#d"/>
<use x="366.601562" xlink:href="#j"/>
<use x="429.980469" xlink:href="#p"/>
</g>
</g>
<g clip-path="url(#a)">
<g transform="translate(815.62 842.76) scale(.1 -.1)">
<use xlink:href="#al"/>
<use x="55.712891" xlink:href="#f"/>
<use x="83.496094" xlink:href="#ab"/>
<use x="142.675781" xlink:href="#d"/>
<use x="204.199219" xlink:href="#g"/>
<use x="245.3125" xlink:href="#ac"/>
<use x="308.789062" xlink:href="#s"/>
<use x="369.970703" xlink:href="#s"/>
<use x="431.152344" xlink:href="#h"/>
</g>
</g>
<g clip-path="url(#a)">
<g transform="translate(901.17 842.76) scale(.1 -.1)">
<use xlink:href="#am"/>
</g>
</g>
<g clip-path="url(#a)">
<g transform="translate(966.74 842.76) scale(.1 -.1)">
<use xlink:href="#f"/>
<use x="27.783203" xlink:href="#h"/>
</g>
</g>
<g clip-path="url(#a)">
<g transform="translate(1025.5 842.76) scale(.1 -.1)">
<use xlink:href="#d"/>
<use x="61.523438" xlink:href="#j"/>
<use x="124.902344" xlink:href="#p"/>
<use x="164.111328" xlink:href="#g"/>
<use x="205.224609" xlink:href="#e"/>
</g>
</g>
<g clip-path="url(#a)">
<g transform="translate(1098.7 842.76) scale(.1 -.1)">
<use xlink:href="#x"/>
<use x="63.476562" xlink:href="#e"/>
<use x="124.755859" xlink:href="#j"/>
<use x="188.134766" xlink:href="#o"/>
</g>
</g>
<g clip-path="url(#a)">
<g transform="translate(1178.1 842.76) scale(.1 -.1)">
<use xlink:href="#h"/>
<use x="27.783203" xlink:href="#d"/>
<use x="89.306641" xlink:href="#o"/>
</g>
</g>
<g clip-path="url(#a)">
<defs>
<path id="ao" d="m48.688 27.297q0 9.9062-4.0781 15.547t-11.203 5.6406q-7.1406 0-11.219-5.6406t-4.0781-15.547 4.0781-15.547 11.219-5.6406q7.125 0 11.203 5.6406t4.0781 15.547zm-30.578 19.094q2.8438 4.875 7.1562 7.2344 4.3281 2.375 10.328 2.375 9.9688 0 16.188-7.9062 6.2344-7.9062 6.2344-20.797t-6.2344-20.812q-6.2188-7.9062-16.188-7.9062-6 0-10.328 2.375-4.3125 2.375-7.1562 7.25v-8.2031h-9.0312v75.984h9.0312z"/>
</defs>
<g transform="translate(1243.6 842.76) scale(.1 -.1)">
<use xlink:href="#ao"/>
<use x="63.476562" xlink:href="#e"/>
<use x="124.755859" xlink:href="#o"/>
<use x="176.855469" xlink:href="#o"/>
<use x="228.955078" xlink:href="#f"/>
<use x="256.738281" xlink:href="#j"/>
<use x="320.117188" xlink:href="#o"/>
</g>
</g>
<g clip-path="url(#a)">
<g transform="translate(1335.6 842.76) scale(.1 -.1)">
<use xlink:href="#x"/>
<use x="63.476562" xlink:href="#d"/>
</g>
</g>
<g clip-path="url(#a)">
<g transform="translate(1419.5 842.76) scale(.1 -.1)">
<use xlink:href="#h"/>
<use x="27.783203" xlink:href="#e"/>
</g>
</g>
<g clip-path="url(#a)">
<defs>
<path id="aw" d="m45.406 27.984q0 9.7656-4.0312 15.125-4.0156 5.375-11.297 5.375-7.2188 0-11.25-5.375-4.0312-5.3594-4.0312-15.125 0-9.7188 4.0312-15.094t11.25-5.375q7.2812 0 11.297 5.375 4.0312 5.375 4.0312 15.094zm8.9844-21.203q0-13.953-6.2031-20.766-6.1875-6.8125-18.984-6.8125-4.7344 0-8.9375 0.70312t-8.1562 2.1719v8.7344q3.9531-2.1406 7.8125-3.1562 3.8594-1.0312 7.8594-1.0312 8.8438 0 13.234 4.6094t4.3906 13.938v4.4531q-2.7812-4.8438-7.125-7.2344t-10.406-2.3906q-10.047 0-16.203 7.6562-6.1562 7.6719-6.1562 20.328 0 12.688 6.1562 20.344 6.1562 7.6719 16.203 7.6719 6.0625 0 10.406-2.3906t7.125-7.2188v8.2969h8.9844z"/>
</defs>
<g transform="translate(1480.2 842.76) scale(.1 -.1)">
<use xlink:href="#t"/>
<use x="69.824219" xlink:href="#s"/>
<use x="131.005859" xlink:href="#k"/>
<use x="228.417969" xlink:href="#ac"/>
<use x="291.894531" xlink:href="#e"/>
<use x="353.173828" xlink:href="#aw"/>
<use x="416.650391" xlink:href="#j"/>
<use x="480.029297" xlink:href="#f"/>
<use x="507.8125" xlink:href="#d"/>
</g>
</g>
<g clip-path="url(#a)">
<defs>
<path id="i" d="m10.688 12.406h10.312v-12.406h-10.312z"/>
</defs>
<g transform="translate(1594.4 842.76) scale(.1 -.1)">
<use xlink:href="#i"/>
</g>
</g>
<g clip-path="url(#a)">
<defs>
<path id="c" d="m12.406 8.2969h16.109v55.625l-17.531-3.5156v8.9844l17.438 3.5156h9.8594v-64.609h16.109v-8.2969h-41.984z"/>
</defs>
<g transform="translate(560.84 42.759) scale(.1 -.1)">
<use xlink:href="#c"/>
<use x="63.623047" xlink:href="#i"/>
<use x="95.410156" xlink:href="#c"/>
</g>
</g>
<g clip-path="url(#a)">
<defs>
<path id="n" d="m19.188 8.2969h34.422v-8.2969h-46.281v8.2969q5.6094 5.8125 15.297 15.594 9.7031 9.7969 12.188 12.641 4.7344 5.3125 6.6094 9 1.8906 3.6875 1.8906 7.25 0 5.8125-4.0781 9.4688-4.0781 3.6719-10.625 3.6719-4.6406 0-9.7969-1.6094-5.1406-1.6094-11-4.8906v9.9688q5.9531 2.3906 11.125 3.6094 5.1875 1.2188 9.4844 1.2188 11.328 0 18.062-5.6719 6.7344-5.6562 6.7344-15.125 0-4.5-1.6875-8.5312-1.6719-4.0156-6.125-9.4844-1.2188-1.4219-7.7656-8.1875-6.5312-6.7656-18.453-18.922z"/>
</defs>
<g transform="translate(106.96 204.19) scale(.1 -.1)">
<use xlink:href="#c"/>
<use x="63.623047" xlink:href="#i"/>
<use x="95.410156" xlink:href="#n"/>
</g>
</g>
<g clip-path="url(#a)">
<defs>
<path id="m" d="m40.578 39.312q7.0781-1.5156 11.047-6.3125 3.9844-4.7812 3.9844-11.812 0-10.781-7.4219-16.703-7.4219-5.9062-21.094-5.9062-4.5781 0-9.4375 0.90625t-10.031 2.7188v9.5156q4.0938-2.3906 8.9688-3.6094 4.8906-1.2188 10.219-1.2188 9.2656 0 14.125 3.6562t4.8594 10.641q0 6.4531-4.5156 10.078-4.5156 3.6406-12.562 3.6406h-8.5v8.1094h8.8906q7.2656 0 11.125 2.9062t3.8594 8.375q0 5.6094-3.9844 8.6094-3.9688 3.0156-11.391 3.0156-4.0625 0-8.7031-0.89062-4.6406-0.875-10.203-2.7188v8.7812q5.625 1.5625 10.531 2.3438t9.25 0.78125q11.234 0 17.766-5.1094 6.5469-5.0938 6.5469-13.781 0-6.0625-3.4688-10.234t-9.8594-5.7812z"/>
</defs>
<g transform="translate(329.94 685.31) scale(.1 -.1)">
<use xlink:href="#c"/>
<use x="63.623047" xlink:href="#i"/>
<use x="95.410156" xlink:href="#m"/>
</g>
</g>
<g clip-path="url(#a)">
<defs>
<path id="r" d="m37.797 64.312-24.906-38.922h24.906zm-2.5938 8.5938h12.406v-47.516h10.406v-8.2031h-10.406v-17.188h-9.8125v17.188h-32.906v9.5156z"/>
</defs>
<g transform="translate(659.02 365.21) scale(.1 -.1)">
<use xlink:href="#c"/>
<use x="63.623047" xlink:href="#i"/>
<use x="95.410156" xlink:href="#r"/>
</g>
</g>
<g clip-path="url(#a)">
<defs>
<path id="z" d="m10.797 72.906h38.719v-8.3125h-29.688v-17.859q2.1406 0.73438 4.2812 1.0938 2.1562 0.35938 4.3125 0.35938 12.203 0 19.328-6.6875 7.1406-6.6875 7.1406-18.109 0-11.766-7.3281-18.297-7.3281-6.5156-20.656-6.5156-4.5938 0-9.3594 0.78125-4.75 0.78125-9.8281 2.3438v9.9219q4.3906-2.3906 9.0781-3.5625t9.9062-1.1719q8.4531 0 13.375 4.4375 4.9375 4.4375 4.9375 12.062 0 7.6094-4.9375 12.047-4.9219 4.4531-13.375 4.4531-3.9531 0-7.8906-0.875-3.9219-0.875-8.0156-2.7344z"/>
</defs>
<g transform="translate(1080.3 204.19) scale(.1 -.1)">
<use xlink:href="#c"/>
<use x="63.623047" xlink:href="#i"/>
<use x="95.410156" xlink:href="#z"/>
</g>
</g>
<g clip-path="url(#a)">
<defs>
<path id="af" d="m31.781 34.625q-7.0312 0-11.062-3.7656-4.0156-3.7656-4.0156-10.344 0-6.5938 4.0156-10.359 4.0312-3.7656 11.062-3.7656t11.078 3.7812q4.0625 3.7969 4.0625 10.344 0 6.5781-4.0312 10.344-4.0156 3.7656-11.109 3.7656zm-9.8594 4.1875q-6.3438 1.5625-9.8906 5.9062-3.5312 4.3594-3.5312 10.609 0 8.7344 6.2188 13.812 6.2344 5.0781 17.062 5.0781 10.891 0 17.094-5.0781t6.2031-13.812q0-6.25-3.5469-10.609-3.5312-4.3438-9.8281-5.9062 7.125-1.6562 11.094-6.5 3.9844-4.8281 3.9844-11.797 0-10.609-6.4688-16.281-6.4688-5.6562-18.531-5.6562-12.047 0-18.531 5.6562-6.4688 5.6719-6.4688 16.281 0 6.9688 4 11.797 4.0156 4.8438 11.141 6.5zm-3.6094 15.578q0-5.6562 3.5312-8.8281 3.5469-3.1719 9.9375-3.1719 6.3594 0 9.9375 3.1719 3.5938 3.1719 3.5938 8.8281 0 5.6719-3.5938 8.8438-3.5781 3.1719-9.9375 3.1719-6.3906 0-9.9375-3.1719-3.5312-3.1719-3.5312-8.8438z"/>
</defs>
<g transform="translate(961.56 685.31) scale(.1 -.1)">
<use xlink:href="#c"/>
<use x="63.623047" xlink:href="#i"/>
<use x="95.410156" xlink:href="#af"/>
</g>
</g>
<g clip-path="url(#a)">
<defs>
<path id="y" d="m10.984 1.5156v8.9844q3.7188-1.7656 7.5156-2.6875 3.8125-0.92188 7.4844-0.92188 9.7656 0 14.906 6.5625 5.1562 6.5625 5.8906 19.953-2.8281-4.2031-7.1875-6.4531-4.3438-2.25-9.6094-2.25-10.938 0-17.312 6.6094-6.375 6.625-6.375 18.109 0 11.219 6.6406 18 6.6406 6.7969 17.672 6.7969 12.656 0 19.312-9.7031 6.6719-9.6875 6.6719-28.141 0-17.234-8.1875-27.516-8.1719-10.281-21.984-10.281-3.7188 0-7.5312 0.73438-3.7969 0.73438-7.9062 2.2031zm19.625 30.906q6.6406 0 10.516 4.5312 3.8906 4.5469 3.8906 12.469 0 7.8594-3.8906 12.422-3.875 4.5625-10.516 4.5625t-10.516-4.5625-3.875-12.422q0-7.9219 3.875-12.469 3.875-4.5312 10.516-4.5312z"/>
</defs>
<g transform="translate(1030.9 685.31) scale(.1 -.1)">
<use xlink:href="#c"/>
<use x="63.623047" xlink:href="#i"/>
<use x="95.410156" xlink:href="#y"/>
</g>
</g>
<g clip-path="url(#a)">
<defs>
<path id="aa" d="m31.781 66.406q-7.6094 0-11.453-7.5-3.8281-7.4844-3.8281-22.531 0-14.984 3.8281-22.484 3.8438-7.5 11.453-7.5 7.6719 0 11.5 7.5 3.8438 7.5 3.8438 22.484 0 15.047-3.8438 22.531-3.8281 7.5-11.5 7.5zm0 7.8125q12.266 0 18.734-9.7031 6.4688-9.6875 6.4688-28.141 0-18.406-6.4688-28.109-6.4688-9.6875-18.734-9.6875-12.25 0-18.719 9.6875-6.4688 9.7031-6.4688 28.109 0 18.453 6.4688 28.141 6.4688 9.7031 18.719 9.7031z"/>
</defs>
<g transform="translate(1245.3 365.21) scale(.1 -.1)">
<use xlink:href="#c"/>
<use x="63.623047" xlink:href="#i"/>
<use x="95.410156" xlink:href="#c"/>
<use x="159.033203" xlink:href="#aa"/>
</g>
</g>
<g clip-path="url(#a)">
<g transform="translate(1099.6 685.31) scale(.1 -.1)">
<use xlink:href="#c"/>
<use x="63.623047" xlink:href="#i"/>
<use x="95.410156" xlink:href="#c"/>
<use x="159.033203" xlink:href="#c"/>
</g>
</g>
<g clip-path="url(#a)">
<g transform="translate(1174.1 685.31) scale(.1 -.1)">
<use xlink:href="#c"/>
<use x="63.623047" xlink:href="#i"/>
<use x="95.410156" xlink:href="#c"/>
<use x="159.033203" xlink:href="#n"/>
</g>
</g>
<g clip-path="url(#a)">
<g transform="translate(1251.1 685.31) scale(.1 -.1)">
<use xlink:href="#c"/>
<use x="63.623047" xlink:href="#i"/>
<use x="95.410156" xlink:href="#c"/>
<use x="159.033203" xlink:href="#m"/>
</g>
</g>
<g clip-path="url(#a)">
<g transform="translate(1456.5 525.68) scale(.1 -.1)">
<use xlink:href="#c"/>
<use x="63.623047" xlink:href="#i"/>
<use x="95.410156" xlink:href="#c"/>
<use x="159.033203" xlink:href="#r"/>
</g>
</g>
<g clip-path="url(#a)">
<g transform="translate(1330.7 685.31) scale(.1 -.1)">
<use xlink:href="#c"/>
<use x="63.623047" xlink:href="#i"/>
<use x="95.410156" xlink:href="#c"/>
<use x="159.033203" xlink:href="#z"/>
</g>
</g>
<g clip-path="url(#a)">
<defs>
<path id="ah" d="m33.016 40.375q-6.6406 0-10.531-4.5469-3.875-4.5312-3.875-12.438 0-7.8594 3.875-12.438 3.8906-4.5625 10.531-4.5625t10.516 4.5625q3.875 4.5781 3.875 12.438 0 7.9062-3.875 12.438-3.875 4.5469-10.516 4.5469zm19.578 30.922v-8.9844q-3.7188 1.75-7.5 2.6719-3.7812 0.9375-7.5 0.9375-9.7656 0-14.922-6.5938-5.1406-6.5938-5.875-19.922 2.875 4.25 7.2188 6.5156 4.3594 2.2656 9.5781 2.2656 10.984 0 17.359-6.6719 6.375-6.6562 6.375-18.125 0-11.234-6.6406-18.031-6.6406-6.7812-17.672-6.7812-12.656 0-19.344 9.6875-6.6875 9.7031-6.6875 28.109 0 17.281 8.2031 27.562t22.016 10.281q3.7188 0 7.5-0.73438t7.8906-2.1875z"/>
</defs>
<g transform="translate(1412.8 685.31) scale(.1 -.1)">
<use xlink:href="#c"/>
<use x="63.623047" xlink:href="#i"/>
<use x="95.410156" xlink:href="#c"/>
<use x="159.033203" xlink:href="#ah"/>
</g>
</g>
<g clip-path="url(#a)">
<defs>
<path id="ag" d="m8.2031 72.906h46.875v-4.2031l-26.469-68.703h-10.297l24.906 64.594h-35.016z"/>
</defs>
<g transform="translate(1497.6 685.31) scale(.1 -.1)">
<use xlink:href="#c"/>
<use x="63.623047" xlink:href="#i"/>
<use x="95.410156" xlink:href="#c"/>
<use x="159.033203" xlink:href="#ag"/>
</g>
</g>
<g clip-path="url(#a)">
<g transform="translate(407.21 525.68) scale(.1 -.1)">
<use xlink:href="#c"/>
<use x="63.623047" xlink:href="#i"/>
<use x="95.410156" xlink:href="#c"/>
<use x="159.033203" xlink:href="#y"/>
</g>
</g>
<g clip-path="url(#a)">
<g transform="translate(571.96 525.68) scale(.1 -.1)">
<use xlink:href="#c"/>
<use x="63.623047" xlink:href="#i"/>
<use x="95.410156" xlink:href="#n"/>
<use x="159.033203" xlink:href="#aa"/>
</g>
</g>
<g clip-path="url(#a)">
<g transform="translate(706.76 685.31) scale(.1 -.1)">
<use xlink:href="#c"/>
<use x="63.623047" xlink:href="#i"/>
<use x="95.410156" xlink:href="#n"/>
<use x="159.033203" xlink:href="#c"/>
</g>
</g>
<g clip-path="url(#a)">
<g transform="translate(765.81 685.31) scale(.1 -.1)">
<use xlink:href="#c"/>
<use x="63.623047" xlink:href="#i"/>
<use x="95.410156" xlink:href="#n"/>
<use x="159.033203" xlink:href="#n"/>
</g>
</g>
<g clip-path="url(#a)">
<g transform="translate(827.43 685.31) scale(.1 -.1)">
<use xlink:href="#c"/>
<use x="63.623047" xlink:href="#i"/>
<use x="95.410156" xlink:href="#n"/>
<use x="159.033203" xlink:href="#m"/>
</g>
</g>
<g clip-path="url(#a)">
<g transform="translate(496.22 685.31) scale(.1 -.1)">
<use xlink:href="#c"/>
<use x="63.623047" xlink:href="#i"/>
<use x="95.410156" xlink:href="#n"/>
<use x="159.033203" xlink:href="#r"/>
</g>
</g>
<g clip-path="url(#a)">
<g transform="translate(545 685.31) scale(.1 -.1)">
<use xlink:href="#c"/>
<use x="63.623047" xlink:href="#i"/>
<use x="95.410156" xlink:href="#n"/>
<use x="159.033203" xlink:href="#z"/>
</g>
</g>
<g clip-path="url(#a)">
<g transform="translate(596.35 685.31) scale(.1 -.1)">
<use xlink:href="#c"/>
<use x="63.623047" xlink:href="#i"/>
<use x="95.410156" xlink:href="#n"/>
<use x="159.033203" xlink:href="#ah"/>
</g>
</g>
<g clip-path="url(#a)">
<g transform="translate(650.27 685.31) scale(.1 -.1)">
<use xlink:href="#c"/>
<use x="63.623047" xlink:href="#i"/>
<use x="95.410156" xlink:href="#n"/>
<use x="159.033203" xlink:href="#ag"/>
</g>
</g>
<g clip-path="url(#a)">
<g transform="translate(365.27 685.31) scale(.1 -.1)">
<use xlink:href="#c"/>
<use x="63.623047" xlink:href="#i"/>
<use x="95.410156" xlink:href="#n"/>
<use x="159.033203" xlink:href="#af"/>
</g>
</g>
<g clip-path="url(#a)">
<g transform="translate(406.35 685.31) scale(.1 -.1)">
<use xlink:href="#c"/>
<use x="63.623047" xlink:href="#i"/>
<use x="95.410156" xlink:href="#n"/>
<use x="159.033203" xlink:href="#y"/>
</g>
</g>
<g clip-path="url(#a)">
<g transform="translate(450 685.31) scale(.1 -.1)">
<use xlink:href="#c"/>
<use x="63.623047" xlink:href="#i"/>
<use x="95.410156" xlink:href="#m"/>
<use x="159.033203" xlink:href="#aa"/>
</g>
</g>
<g clip-path="url(#a)">
<g transform="translate(64.867 685.31) scale(.1 -.1)">
<use xlink:href="#c"/>
<use x="63.623047" xlink:href="#i"/>
<use x="95.410156" xlink:href="#m"/>
<use x="159.033203" xlink:href="#c"/>
</g>
</g>
<g clip-path="url(#a)">
<g transform="translate(77.705 685.31) scale(.1 -.1)">
<use xlink:href="#c"/>
<use x="63.623047" xlink:href="#i"/>
<use x="95.410156" xlink:href="#m"/>
<use x="159.033203" xlink:href="#n"/>
</g>
</g>
<g clip-path="url(#a)">
<g transform="translate(95.678 685.31) scale(.1 -.1)">
<use xlink:href="#c"/>
<use x="63.623047" xlink:href="#i"/>
<use x="95.410156" xlink:href="#m"/>
<use x="159.033203" xlink:href="#m"/>
</g>
</g>
<g clip-path="url(#a)">
<g transform="translate(176.88 365.21) scale(.1 -.1)">
<use xlink:href="#c"/>
<use x="63.623047" xlink:href="#i"/>
<use x="95.410156" xlink:href="#m"/>
<use x="159.033203" xlink:href="#r"/>
</g>
</g>
<g clip-path="url(#a)">
<g transform="translate(111.08 685.31) scale(.1 -.1)">
<use xlink:href="#c"/>
<use x="63.623047" xlink:href="#i"/>
<use x="95.410156" xlink:href="#m"/>
<use x="159.033203" xlink:href="#z"/>
</g>
</g>
<g clip-path="url(#a)">
<g transform="translate(156.02 525.68) scale(.1 -.1)">
<use xlink:href="#c"/>
<use x="63.623047" xlink:href="#i"/>
<use x="95.410156" xlink:href="#m"/>
<use x="159.033203" xlink:href="#ah"/>
</g>
</g>
<g clip-path="url(#a)">
<g transform="translate(198.38 685.31) scale(.1 -.1)">
<use xlink:href="#c"/>
<use x="63.623047" xlink:href="#i"/>
<use x="95.410156" xlink:href="#m"/>
<use x="159.033203" xlink:href="#ag"/>
</g>
</g>
<g clip-path="url(#a)">
<g transform="translate(242.03 685.31) scale(.1 -.1)">
<use xlink:href="#c"/>
<use x="63.623047" xlink:href="#i"/>
<use x="95.410156" xlink:href="#m"/>
<use x="159.033203" xlink:href="#af"/>
</g>
</g>
<g clip-path="url(#a)">
<g transform="translate(139.33 685.31) scale(.1 -.1)">
<use xlink:href="#c"/>
<use x="63.623047" xlink:href="#i"/>
<use x="95.410156" xlink:href="#m"/>
<use x="159.033203" xlink:href="#y"/>
</g>
</g>
<g clip-path="url(#a)">
<g transform="translate(172.71 685.31) scale(.1 -.1)">
<use xlink:href="#c"/>
<use x="63.623047" xlink:href="#i"/>
<use x="95.410156" xlink:href="#r"/>
<use x="159.033203" xlink:href="#aa"/>
</g>
</g>
<g clip-path="url(#a)">
<g transform="translate(290.81 685.31) scale(.1 -.1)">
<use xlink:href="#c"/>
<use x="63.623047" xlink:href="#i"/>
<use x="95.410156" xlink:href="#r"/>
<use x="159.033203" xlink:href="#c"/>
</g>
</g>
<g clip-path="url(#a)">
<g transform="translate(891.62 685.31) scale(.1 -.1)">
<use xlink:href="#c"/>
<use x="63.623047" xlink:href="#i"/>
<use x="95.410156" xlink:href="#r"/>
<use x="159.033203" xlink:href="#n"/>
</g>
</g>
<g clip-path="url(#a)">
<g transform="translate(1584.9 685.31) scale(.1 -.1)">
<use xlink:href="#c"/>
<use x="63.623047" xlink:href="#i"/>
<use x="95.410156" xlink:href="#r"/>
<use x="159.033203" xlink:href="#m"/>
</g>
</g>
<defs>
<clipPath id="a">
<rect width="1672" height="880"/>
</clipPath>
</defs>
</svg>
