<?xml version="1.0" encoding="UTF-8"?>
<!DOCTYPE svg  PUBLIC '-//W3C//DTD SVG 1.1//EN'  'http://www.w3.org/Graphics/SVG/1.1/DTD/svg11.dtd'>
<svg width="861.33pt" height="453.33pt" version="1.1" viewBox="0 0 861.33 453.33" xmlns="http://www.w3.org/2000/svg" xmlns:xlink="http://www.w3.org/1999/xlink">
<defs>
<style type="text/css">*{stroke-linecap:butt;stroke-linejoin:round;}</style>
</defs>
<path d="m0 453.33h861.33v-453.33h-861.33z" fill="#fff"/>
<g fill="none" stroke="#000">
<path d="m127.73 21.379v62.627" clip-path="url(#a)"/>
<path d="m127.73 84.007-88.229 291.72" clip-path="url(#a)"/>
<path d="m127.73 84.007-39.333 291.72" clip-path="url(#a)"/>
<path d="m127.73 84.007 127.56 60.944" clip-path="url(#a)"/>
<path d="m39.505 375.73v56.227" clip-path="url(#a)"/>
<path d="m88.401 375.73v56.227" clip-path="url(#a)"/>
<path d="m255.3 144.95-118 230.78" clip-path="url(#a)"/>
<path d="m255.3 144.95-69.105 230.78" clip-path="url(#a)"/>
<path d="m255.3 144.95-20.21 230.78" clip-path="url(#a)"/>
<path d="m255.3 144.95 178.63 59.431" clip-path="url(#a)"/>
<path d="m255.3 144.95 28.685 230.78" clip-path="url(#a)"/>
<path d="m137.3 375.73v56.227" clip-path="url(#a)"/>
<path d="m186.19 375.73v56.227" clip-path="url(#a)"/>
<path d="m235.09 375.73v56.227" clip-path="url(#a)"/>
<path d="m433.93 204.38-198.84 171.34" clip-path="url(#a)" stroke-dasharray="3.7,1.6"/>
<path d="m433.93 204.38-101.05 171.34" clip-path="url(#a)"/>
<path d="m433.93 204.38-3.2597 115.12" clip-path="url(#a)"/>
<path d="m433.93 204.38 86.381 58.107" clip-path="url(#a)"/>
<path d="m433.93 204.38 216.77 115.12" clip-path="url(#a)"/>
<path d="m332.88 375.73v56.227" clip-path="url(#a)"/>
<path d="m430.67 319.5-48.895 56.227" clip-path="url(#a)"/>
<path d="m430.67 319.5v56.227" clip-path="url(#a)"/>
<path d="m430.67 319.5 48.895 56.227" clip-path="url(#a)"/>
<path d="m520.31 262.49-285.22 113.24" clip-path="url(#a)" stroke-dasharray="3.7,1.6"/>
<path d="m520.31 262.49 32.597 57.01" clip-path="url(#a)"/>
<path d="m520.31 262.49 252.62 57.01" clip-path="url(#a)"/>
<path d="m650.69 319.5-24.448 56.227" clip-path="url(#a)"/>
<path d="m650.69 319.5 24.448 56.227" clip-path="url(#a)"/>
<path d="m626.25 375.73v56.227" clip-path="url(#a)"/>
<path d="m675.14 375.73v56.227" clip-path="url(#a)"/>
<path d="m552.9 319.5-24.448 56.227" clip-path="url(#a)"/>
<path d="m552.9 319.5 24.448 56.227" clip-path="url(#a)"/>
<path d="m772.93 319.5-48.895 56.227" clip-path="url(#a)"/>
<path d="m772.93 319.5v56.227" clip-path="url(#a)"/>
<path d="m772.93 319.5 48.895 56.227" clip-path="url(#a)"/>
<path d="m724.04 375.73v56.227" clip-path="url(#a)"/>
<path d="m772.93 375.73v56.227" clip-path="url(#a)"/>
<path d="m528.46 375.73v56.227" clip-path="url(#a)"/>
<path d="m577.35 375.73v56.227" clip-path="url(#a)"/>
<path d="m381.77 375.73v56.227" clip-path="url(#a)"/>
<path d="m430.67 375.73v56.227" clip-path="url(#a)"/>
<path d="m479.56 375.73v56.227" clip-path="url(#a)"/>
<path d="m283.98 375.73v56.227" clip-path="url(#a)"/>
<path d="m821.83 375.73v56.227" clip-path="url(#a)"/>
</g>
<path d="m121.46 49.685v6.0162q0 2.4 2.4 2.4h7.7425q2.4 0 2.4-2.4v-6.0162q0-2.4-2.4-2.4h-7.7425q-2.4 0-2.4 2.4z" clip-path="url(#a)" fill="#fff" stroke="#fff"/>
<g clip-path="url(#a)">
<defs>
<path id="an" d="m9.8125 72.906h9.8594v-29.891h35.844v29.891h9.8594v-72.906h-9.8594v34.719h-35.844v-34.719h-9.8594z"/>
</defs>
<g transform="translate(125.53 49.685) rotate(90) scale(.08 -.08)">
<use xlink:href="#an"/>
</g>
</g>
<path d="m88.83 234.3 1.5842-5.2382q0.69478-2.2972-1.6025-2.992l-7.411-2.2414q-2.2972-0.69478-2.992 1.6025l-1.5842 5.2382q-0.69478 2.2972 1.6025 2.992l7.411 2.2414q2.2972 0.69478 2.992-1.6025z" clip-path="url(#a)" fill="#fff" stroke="#fff"/>
<g clip-path="url(#a)">
<defs>
<path id="o" d="m34.188 63.188-13.391-36.281h26.812zm-5.5781 9.7188h11.188l27.781-72.906h-10.25l-6.6406 18.703h-32.859l-6.6406-18.703h-10.406z"/>
</defs>
<g transform="translate(84.941 233.12) rotate(-73.172) scale(.08 -.08)">
<use xlink:href="#o"/>
</g>
</g>
<path d="m113.94 233.22 0.67864-5.0332q0.3207-2.3785-2.0578-2.6992l-7.6731-1.0346q-2.3785-0.3207-2.6992 2.0578l-0.67864 5.0332q-0.3207 2.3785 2.0578 2.6992l7.6731 1.0346q2.3785 0.3207 2.6992-2.0578z" clip-path="url(#a)" fill="#fff" stroke="#fff"/>
<g clip-path="url(#a)">
<defs>
<path id="am" d="m53.516 70.516v-9.625q-5.6094 2.6875-10.594 4-4.9844 1.3281-9.625 1.3281-8.0469 0-12.422-3.125t-4.375-8.8906q0-4.8438 2.9062-7.3125 2.9062-2.4531 11.016-3.9688l5.9531-1.2188q11.031-2.1094 16.281-7.4062t5.25-14.172q0-10.609-7.1094-16.078-7.0938-5.4688-20.812-5.4688-5.1719 0-11.016 1.1719-5.8281 1.1719-12.078 3.4688v10.156q6-3.3594 11.766-5.0781 5.7656-1.7031 11.328-1.7031 8.4375 0 13.031 3.3125 4.5938 3.3281 4.5938 9.4844 0 5.3594-3.2969 8.3906t-10.812 4.5469l-6.0156 1.1719q-11.031 2.1875-15.969 6.875-4.9219 4.6875-4.9219 13.047 0 9.6719 6.8125 15.234t18.766 5.5625q5.1406 0 10.453-0.9375 5.3281-0.92188 10.891-2.7656z"/>
</defs>
<g transform="translate(109.92 232.68) rotate(-82.321) scale(.08 -.08)">
<use xlink:href="#am"/>
</g>
</g>
<path d="m186.34 118.96 4.9379 2.3591q2.1655 1.0346 3.2002-1.1309l3.3377-6.9861q1.0346-2.1655-1.1309-3.2002l-4.9379-2.3591q-2.1655-1.0346-3.2002 1.1309l-3.3377 6.9861q-1.0346 2.1655 1.1309 3.2002z" clip-path="url(#a)" fill="#fff" stroke="#fff"/>
<g clip-path="url(#a)">
<g transform="translate(188.09 115.29) rotate(25.537) scale(.08 -.08)">
<use xlink:href="#o"/>
</g>
</g>
<path d="m33.234 386.2v35.285q0 2.4 2.4 2.4h7.7425q2.4 0 2.4-2.4v-35.285q0-2.4-2.4-2.4h-7.7425q-2.4 0-2.4 2.4z" clip-path="url(#a)" fill="#fff" stroke="#fff"/>
<g clip-path="url(#a)">
<defs>
<path id="k" d="m-0.29688 72.906h61.672v-8.3125h-25.875v-64.594h-9.9062v64.594h-25.891z"/>
<path id="e" d="m56.203 29.594v-4.3906h-41.312q0.59375-9.2812 5.5938-14.141t13.938-4.8594q5.1719 0 10.031 1.2656t9.6562 3.8125v-8.5q-4.8438-2.0469-9.9219-3.125t-10.297-1.0781q-13.094 0-20.734 7.6094-7.6406 7.625-7.6406 20.625 0 13.422 7.25 21.297 7.25 7.8906 19.562 7.8906 11.031 0 17.453-7.1094 6.4219-7.0938 6.4219-19.297zm-8.9844 2.6406q-0.09375 7.3594-4.125 11.75-4.0312 4.4062-10.672 4.4062-7.5156 0-12.031-4.25t-5.2031-11.969z"/>
<path id="i" d="m41.109 46.297q-1.5156 0.875-3.2969 1.2812-1.7812 0.42188-3.9219 0.42188-7.625 0-11.703-4.9531t-4.0781-14.234v-28.812h-9.0312v54.688h9.0312v-8.5q2.8438 4.9844 7.375 7.3906 4.5469 2.4219 11.047 2.4219 0.92188 0 2.0469-0.125 1.125-0.10938 2.4844-0.35938z"/>
<path id="l" d="m52 44.188q3.375 6.0625 8.0625 8.9375t11.031 2.875q8.5469 0 13.188-5.9844 4.6406-5.9688 4.6406-17v-33.016h-9.0312v32.719q0 7.8594-2.7969 11.656-2.7812 3.8125-8.4844 3.8125-6.9844 0-11.047-4.6406-4.0469-4.625-4.0469-12.641v-30.906h-9.0312v32.719q0 7.9062-2.7812 11.688t-8.5938 3.7812q-6.8906 0-10.953-4.6562-4.0469-4.6562-4.0469-12.625v-30.906h-9.0312v54.688h9.0312v-8.5q3.0781 5.0312 7.375 7.4219t10.203 2.3906q5.9688 0 10.141-3.0312 4.1719-3.0156 6.1719-8.7812z"/>
<path id="f" d="m9.4219 54.688h8.9844v-54.688h-8.9844zm0 21.297h8.9844v-11.391h-8.9844z"/>
<path id="g" d="m54.891 33.016v-33.016h-8.9844v32.719q0 7.7656-3.0312 11.609-3.0312 3.8594-9.0781 3.8594-7.2812 0-11.484-4.6406-4.2031-4.625-4.2031-12.641v-30.906h-9.0312v54.688h9.0312v-8.5q3.2344 4.9375 7.5938 7.375 4.375 2.4375 10.094 2.4375 9.4219 0 14.25-5.8281 4.8438-5.8281 4.8438-17.156z"/>
<path id="h" d="m34.281 27.484q-10.891 0-15.094-2.4844t-4.2031-8.5q0-4.7812 3.1562-7.5938 3.1562-2.7969 8.5625-2.7969 7.4844 0 12 5.2969t4.5156 14.078v2zm17.922 3.7188v-31.203h-8.9844v8.2969q-3.0781-4.9688-7.6719-7.3438t-11.234-2.375q-8.3906 0-13.359 4.7188-4.9531 4.7188-4.9531 12.625 0 9.2188 6.1719 13.906 6.1875 4.6875 18.438 4.6875h12.609v0.89062q0 6.2031-4.0781 9.5938t-11.453 3.3906q-4.6875 0-9.1406-1.125-4.4375-1.125-8.5312-3.375v8.3125q4.9219 1.9062 9.5625 2.8438 4.6406 0.95312 9.0312 0.95312 11.875 0 17.734-6.1562 5.8594-6.1406 5.8594-18.641z"/>
<path id="j" d="m9.4219 75.984h8.9844v-75.984h-8.9844z"/>
</defs>
<g transform="translate(37.298 386.2) rotate(90) scale(.08 -.08)">
<use xlink:href="#k"/>
<use x="60.818359" xlink:href="#e"/>
<use x="122.341797" xlink:href="#i"/>
<use x="163.439453" xlink:href="#l"/>
<use x="260.851562" xlink:href="#f"/>
<use x="288.634766" xlink:href="#g"/>
<use x="352.013672" xlink:href="#h"/>
<use x="413.292969" xlink:href="#j"/>
</g>
</g>
<path d="m82.129 386.2v35.285q0 2.4 2.4 2.4h7.7425q2.4 0 2.4-2.4v-35.285q0-2.4-2.4-2.4h-7.7425q-2.4 0-2.4 2.4z" clip-path="url(#a)" fill="#fff" stroke="#fff"/>
<g clip-path="url(#a)">
<g transform="translate(86.193 386.2) rotate(90) scale(.08 -.08)">
<use xlink:href="#k"/>
<use x="60.818359" xlink:href="#e"/>
<use x="122.341797" xlink:href="#i"/>
<use x="163.439453" xlink:href="#l"/>
<use x="260.851562" xlink:href="#f"/>
<use x="288.634766" xlink:href="#g"/>
<use x="352.013672" xlink:href="#h"/>
<use x="413.292969" xlink:href="#j"/>
</g>
</g>
<path d="m200.73 265.44 2.3013-4.5008q1.0926-2.1369-1.0442-3.2295l-6.8936-3.5248q-2.1369-1.0926-3.2295 1.0442l-2.3013 4.5008q-1.0926 2.1369 1.0442 3.2295l6.8936 3.5248q2.1369 1.0926 3.2295-1.0442z" clip-path="url(#a)" fill="#fff" stroke="#fff"/>
<g clip-path="url(#a)">
<defs>
<path id="s" d="m9.8125 72.906h46.094v-8.3125h-36.234v-21.578h34.719v-8.2969h-34.719v-26.422h37.109v-8.2969h-46.969z"/>
</defs>
<g transform="translate(197.11 263.59) rotate(-62.918) scale(.08 -.08)">
<use xlink:href="#s"/>
</g>
</g>
<path d="m226.03 264.56 1.4501-4.8425q0.68847-2.2991-1.6107-2.9876l-7.4171-2.221q-2.2991-0.68847-2.9876 1.6107l-1.4501 4.8425q-0.68847 2.2991 1.6107 2.9876l7.4171 2.221q2.2991 0.68847 2.9876-1.6107z" clip-path="url(#a)" fill="#fff" stroke="#fff"/>
<g clip-path="url(#a)">
<g transform="translate(222.13 263.39) rotate(-73.33) scale(.08 -.08)">
<use xlink:href="#s"/>
</g>
</g>
<path d="m251.19 263.67 0.48735-5.565q0.20938-2.3908-2.1815-2.6002l-7.713-0.67546q-2.3908-0.20938-2.6002 2.1815l-0.48735 5.565q-0.20938 2.3908 2.1815 2.6002l7.713 0.67546q2.3908 0.20938 2.6002-2.1815z" clip-path="url(#a)" fill="#fff" stroke="#fff"/>
<g clip-path="url(#a)">
<defs>
<path id="q" d="m64.406 67.281v-10.391q-4.9844 4.6406-10.625 6.9219-5.6406 2.2969-11.984 2.2969-12.5 0-19.141-7.6406t-6.6406-22.094q0-14.406 6.6406-22.047t19.141-7.6406q6.3438 0 11.984 2.2969t10.625 6.9375v-10.312q-5.1719-3.5156-10.969-5.2812-5.7812-1.75-12.219-1.75-16.562 0-26.094 10.125-9.5156 10.141-9.5156 27.672 0 17.578 9.5156 27.703 9.5312 10.141 26.094 10.141 6.5312 0 12.312-1.7344 5.7969-1.7344 10.875-5.2031z"/>
</defs>
<g transform="translate(247.15 263.31) rotate(-84.995) scale(.08 -.08)">
<use xlink:href="#q"/>
</g>
</g>
<path d="m340.23 179.82 4.7965 1.5958q2.2773 0.75766 3.0349-1.5196l2.4442-7.3466q0.75766-2.2773-1.5196-3.0349l-4.7965-1.5958q-2.2773-0.75766-3.0349 1.5196l-2.4442 7.3466q-0.75766 2.2773 1.5196 3.0349z" clip-path="url(#a)" fill="#fff" stroke="#fff"/>
<g clip-path="url(#a)">
<g transform="translate(341.52 175.96) rotate(18.403) scale(.08 -.08)">
<use xlink:href="#s"/>
</g>
</g>
<path d="m263.05 258.21 0.72221 5.8103q0.29604 2.3817 2.6777 2.0856l7.6834-0.95504q2.3817-0.29604 2.0856-2.6777l-0.72221-5.8103q-0.29604-2.3817-2.6777-2.0856l-7.6834 0.95503q-2.3817 0.29604-2.0856 2.6777z" clip-path="url(#a)" fill="#fff" stroke="#fff"/>
<g clip-path="url(#a)">
<defs>
<path id="ab" d="m8.6875 72.906h9.9219v-44.297q0-11.719 4.2344-16.875 4.25-5.1406 13.781-5.1406 9.4688 0 13.719 5.1406 4.25 5.1562 4.25 16.875v44.297h9.9062v-45.516q0-14.25-7.0625-21.531-7.0469-7.2812-20.812-7.2812-13.828 0-20.891 7.2812-7.0469 7.2812-7.0469 21.531z"/>
</defs>
<g transform="translate(267.09 257.71) rotate(82.915) scale(.08 -.08)">
<use xlink:href="#ab"/>
</g>
</g>
<path d="m131.02 386.2v35.285q0 2.4 2.4 2.4h7.7425q2.4 0 2.4-2.4v-35.285q0-2.4-2.4-2.4h-7.7425q-2.4 0-2.4 2.4z" clip-path="url(#a)" fill="#fff" stroke="#fff"/>
<g clip-path="url(#a)">
<g transform="translate(135.09 386.2) rotate(90) scale(.08 -.08)">
<use xlink:href="#k"/>
<use x="60.818359" xlink:href="#e"/>
<use x="122.341797" xlink:href="#i"/>
<use x="163.439453" xlink:href="#l"/>
<use x="260.851562" xlink:href="#f"/>
<use x="288.634766" xlink:href="#g"/>
<use x="352.013672" xlink:href="#h"/>
<use x="413.292969" xlink:href="#j"/>
</g>
</g>
<path d="m179.92 386.2v35.285q0 2.4 2.4 2.4h7.7425q2.4 0 2.4-2.4v-35.285q0-2.4-2.4-2.4h-7.7425q-2.4 0-2.4 2.4z" clip-path="url(#a)" fill="#fff" stroke="#fff"/>
<g clip-path="url(#a)">
<g transform="translate(183.98 386.2) rotate(90) scale(.08 -.08)">
<use xlink:href="#k"/>
<use x="60.818359" xlink:href="#e"/>
<use x="122.341797" xlink:href="#i"/>
<use x="163.439453" xlink:href="#l"/>
<use x="260.851562" xlink:href="#f"/>
<use x="288.634766" xlink:href="#g"/>
<use x="352.013672" xlink:href="#h"/>
<use x="413.292969" xlink:href="#j"/>
</g>
</g>
<path d="m228.81 386.2v35.285q0 2.4 2.4 2.4h7.7425q2.4 0 2.4-2.4v-35.285q0-2.4-2.4-2.4h-7.7425q-2.4 0-2.4 2.4z" clip-path="url(#a)" fill="#fff" stroke="#fff"/>
<g clip-path="url(#a)">
<g transform="translate(232.88 386.2) rotate(90) scale(.08 -.08)">
<use xlink:href="#k"/>
<use x="60.818359" xlink:href="#e"/>
<use x="122.341797" xlink:href="#i"/>
<use x="163.439453" xlink:href="#l"/>
<use x="260.851562" xlink:href="#f"/>
<use x="288.634766" xlink:href="#g"/>
<use x="352.013672" xlink:href="#h"/>
<use x="413.292969" xlink:href="#j"/>
</g>
</g>
<path d="m336.53 296.59 4.1456-3.5724q1.8181-1.5667 0.25141-3.3848l-5.0542-5.8653q-1.5667-1.8181-3.3848-0.25141l-4.1456 3.5724q-1.8181 1.5667-0.25141 3.3848l5.0542 5.8653q1.5667 1.8181 3.3848 0.25141z" clip-path="url(#a)" fill="#fff" stroke="#fff"/>
<g clip-path="url(#a)">
<g transform="translate(333.87 293.51) rotate(-40.752) scale(.08 -.08)">
<use xlink:href="#o"/>
</g>
</g>
<path d="m387.39 295.63 2.8238-4.7881q1.2192-2.0673-0.8481-3.2864l-6.6691-3.9331q-2.0673-1.2192-3.2864 0.8481l-2.8238 4.7881q-1.2192 2.0673 0.8481 3.2864l6.6691 3.9331q2.0673 1.2192 3.2864-0.8481z" clip-path="url(#a)" fill="#fff" stroke="#fff"/>
<g clip-path="url(#a)">
<defs>
<path id="u" d="m44.391 34.188q3.1719-1.0781 6.1719-4.5938t6.0312-9.6719l10.016-19.922h-10.609l-9.3125 18.703q-3.625 7.3281-7.0156 9.7188t-9.25 2.3906h-10.75v-30.812h-9.8594v72.906h22.266q12.5 0 18.656-5.2344 6.1562-5.2188 6.1562-15.766 0-6.8906-3.2031-11.438-3.2031-4.5312-9.2969-6.2812zm-24.719 30.609v-25.875h12.406q7.125 0 10.766 3.2969t3.6406 9.6875-3.6406 9.6406-10.766 3.25z"/>
</defs>
<g transform="translate(383.89 293.57) rotate(-59.47) scale(.08 -.08)">
<use xlink:href="#u"/>
</g>
</g>
<path d="m438.5 264.53 0.13654-4.8218q0.067932-2.399-2.3311-2.467l-7.7394-0.21915q-2.399-0.067932-2.467 2.3311l-0.13654 4.8218q-0.067932 2.399 2.3311 2.467l7.7394 0.21915q2.399 0.067932 2.467-2.3311z" clip-path="url(#a)" fill="#fff" stroke="#fff"/>
<g clip-path="url(#a)">
<defs>
<path id="ac" d="m19.672 64.797v-27.391h12.406q6.8906 0 10.641 3.5625 3.7656 3.5625 3.7656 10.156 0 6.5469-3.7656 10.109-3.75 3.5625-10.641 3.5625zm-9.8594 8.1094h22.266q12.266 0 18.531-5.5469 6.2812-5.5469 6.2812-16.234 0-10.797-6.2812-16.312-6.2656-5.5156-18.531-5.5156h-12.406v-29.297h-9.8594z"/>
</defs>
<g transform="translate(434.43 264.41) rotate(-88.378) scale(.08 -.08)">
<use xlink:href="#ac"/>
</g>
</g>
<path d="m471.35 237.11 4.5407 3.0545q1.9914 1.3396 3.3309-0.65181l4.3215-6.4243q1.3396-1.9914-0.65181-3.3309l-4.5407-3.0545q-1.9914-1.3396-3.3309 0.65181l-4.3215 6.4243q-1.3396 1.9914 0.65181 3.3309z" clip-path="url(#a)" fill="#fff" stroke="#fff"/>
<g clip-path="url(#a)">
<g transform="translate(473.61 233.74) rotate(33.928) scale(.08 -.08)">
<use xlink:href="#o"/>
</g>
</g>
<path d="m536.65 266.03 5.4404 2.8892q2.1196 1.1257 3.2453-0.99399l3.6314-6.8381q1.1257-2.1196-0.99399-3.2453l-5.4404-2.8892q-2.1196-1.1257-3.2453 0.99399l-3.6314 6.8381q-1.1257 2.1196 0.99399 3.2453z" clip-path="url(#a)" fill="#fff" stroke="#fff"/>
<g clip-path="url(#a)">
<defs>
<path id="ao" d="m19.672 64.797v-56.688h11.922q15.094 0 22.094 6.8281 7 6.8438 7 21.594 0 14.641-7 21.453t-22.094 6.8125zm-9.8594 8.1094h20.266q21.188 0 31.094-8.8125 9.9219-8.8125 9.9219-27.562 0-18.859-9.9688-27.703-9.9531-8.8281-31.047-8.8281h-20.266z"/>
</defs>
<g transform="translate(538.56 262.45) rotate(27.971) scale(.08 -.08)">
<use xlink:href="#ao"/>
</g>
</g>
<path d="m326.61 386.2v35.285q0 2.4 2.4 2.4h7.7425q2.4 0 2.4-2.4v-35.285q0-2.4-2.4-2.4h-7.7425q-2.4 0-2.4 2.4z" clip-path="url(#a)" fill="#fff" stroke="#fff"/>
<g clip-path="url(#a)">
<g transform="translate(330.67 386.2) rotate(90) scale(.08 -.08)">
<use xlink:href="#k"/>
<use x="60.818359" xlink:href="#e"/>
<use x="122.341797" xlink:href="#i"/>
<use x="163.439453" xlink:href="#l"/>
<use x="260.851562" xlink:href="#f"/>
<use x="288.634766" xlink:href="#g"/>
<use x="352.013672" xlink:href="#h"/>
<use x="413.292969" xlink:href="#j"/>
</g>
</g>
<path d="m409.44 353.46 3.0193-3.4721q1.5749-1.811-0.23616-3.3859l-5.8424-5.0806q-1.811-1.5749-3.3859 0.23616l-3.0193 3.4721q-1.5749 1.811 0.23616 3.3859l5.8424 5.0806q1.811 1.5749 3.3859-0.23616z" clip-path="url(#a)" fill="#fff" stroke="#fff"/>
<g clip-path="url(#a)">
<defs>
<path id="ad" d="m9.8125 72.906h41.891v-8.3125h-32.031v-21.484h28.906v-8.2969h-28.906v-34.812h-9.8594z"/>
</defs>
<g transform="translate(406.38 350.8) rotate(-48.99) scale(.08 -.08)">
<use xlink:href="#ad"/>
</g>
</g>
<path d="m424.4 344.83v5.5588q0 2.4 2.4 2.4h7.7425q2.4 0 2.4-2.4v-5.5588q0-2.4-2.4-2.4h-7.7425q-2.4 0-2.4 2.4z" clip-path="url(#a)" fill="#fff" stroke="#fff"/>
<g clip-path="url(#a)">
<g transform="translate(428.46 344.83) rotate(90) scale(.08 -.08)">
<use xlink:href="#u"/>
</g>
</g>
<path d="m448.55 349.62 3.6657 4.2153q1.5749 1.811 3.3859 0.23616l5.8424-5.0806q1.811-1.5749 0.23616-3.3859l-3.6657-4.2153q-1.5749-1.811-3.3859-0.23616l-5.8424 5.0806q-1.811 1.5749-0.23616 3.3859z" clip-path="url(#a)" fill="#fff" stroke="#fff"/>
<g clip-path="url(#a)">
<g transform="translate(451.62 346.95) rotate(48.99) scale(.08 -.08)">
<use xlink:href="#q"/>
</g>
</g>
<path d="m377.47 325.95 5.0863-2.0193q2.2306-0.88559 1.345-3.1162l-2.857-7.1961q-0.88559-2.2306-3.1162-1.345l-5.0863 2.0193q-2.2306 0.88559-1.345 3.1162l2.857 7.1961q0.88559 2.2306 3.1162 1.345z" clip-path="url(#a)" fill="#fff" stroke="#fff"/>
<g clip-path="url(#a)">
<g transform="translate(375.97 322.17) rotate(-21.654) scale(.08 -.08)">
<use xlink:href="#o"/>
</g>
</g>
<path d="m529.96 292.01 2.3944 4.1876q1.1913 2.0835 3.2748 0.89219l6.7214-3.8431q2.0835-1.1913 0.89219-3.2748l-2.3944-4.1876q-1.1913-2.0835-3.2748-0.89219l-6.7214 3.8431q-2.0835 1.1913-0.89219 3.2748z" clip-path="url(#a)" fill="#fff" stroke="#fff"/>
<g clip-path="url(#a)">
<g transform="translate(533.49 290) rotate(60.24) scale(.08 -.08)">
<use xlink:href="#ac"/>
</g>
</g>
<path d="m642.57 296.51 5.3383 1.2047q2.3411 0.52832 2.8694-1.8128l1.7044-7.5526q0.52832-2.3411-1.8128-2.8694l-5.3383-1.2047q-2.3411-0.52832-2.8694 1.8128l-1.7044 7.5526q-0.52832 2.3411 1.8128 2.8694z" clip-path="url(#a)" fill="#fff" stroke="#fff"/>
<g clip-path="url(#a)">
<g transform="translate(643.47 292.55) rotate(12.717) scale(.08 -.08)">
<use xlink:href="#o"/>
</g>
</g>
<path d="m643.11 352.66 2.2165-5.0977q0.95697-2.201-1.244-3.1579l-7.1004-3.0872q-2.201-0.95697-3.1579 1.244l-2.2165 5.0977q-0.95697 2.201 1.244 3.1579l7.1004 3.0872q2.201 0.95697 3.1579-1.244z" clip-path="url(#a)" fill="#fff" stroke="#fff"/>
<g clip-path="url(#a)">
<g transform="translate(639.39 351.04) rotate(-66.501) scale(.08 -.08)">
<use xlink:href="#u"/>
</g>
</g>
<path d="m656.05 347.55 2.2275 5.123q0.95697 2.201 3.1579 1.244l7.1004-3.0872q2.201-0.95697 1.244-3.1579l-2.2275-5.123q-0.95697-2.201-3.1579-1.244l-7.1004 3.0872q-2.201 0.95697-1.244 3.1579z" clip-path="url(#a)" fill="#fff" stroke="#fff"/>
<g clip-path="url(#a)">
<g transform="translate(659.78 345.93) rotate(66.501) scale(.08 -.08)">
<use xlink:href="#q"/>
</g>
</g>
<path d="m619.98 386.2v35.285q0 2.4 2.4 2.4h7.7425q2.4 0 2.4-2.4v-35.285q0-2.4-2.4-2.4h-7.7425q-2.4 0-2.4 2.4z" clip-path="url(#a)" fill="#fff" stroke="#fff"/>
<g clip-path="url(#a)">
<g transform="translate(624.04 386.2) rotate(90) scale(.08 -.08)">
<use xlink:href="#k"/>
<use x="60.818359" xlink:href="#e"/>
<use x="122.341797" xlink:href="#i"/>
<use x="163.439453" xlink:href="#l"/>
<use x="260.851562" xlink:href="#f"/>
<use x="288.634766" xlink:href="#g"/>
<use x="352.013672" xlink:href="#h"/>
<use x="413.292969" xlink:href="#j"/>
</g>
</g>
<path d="m668.87 386.2v35.285q0 2.4 2.4 2.4h7.7425q2.4 0 2.4-2.4v-35.285q0-2.4-2.4-2.4h-7.7425q-2.4 0-2.4 2.4z" clip-path="url(#a)" fill="#fff" stroke="#fff"/>
<g clip-path="url(#a)">
<g transform="translate(672.93 386.2) rotate(90) scale(.08 -.08)">
<use xlink:href="#k"/>
<use x="60.818359" xlink:href="#e"/>
<use x="122.341797" xlink:href="#i"/>
<use x="163.439453" xlink:href="#l"/>
<use x="260.851562" xlink:href="#f"/>
<use x="288.634766" xlink:href="#g"/>
<use x="352.013672" xlink:href="#h"/>
<use x="413.292969" xlink:href="#j"/>
</g>
</g>
<path d="m545.51 352.22 1.8347-4.2196q0.95697-2.201-1.244-3.1579l-7.1004-3.0872q-2.201-0.95697-3.1579 1.244l-1.8347 4.2196q-0.95697 2.201 1.244 3.1579l7.1004 3.0872q2.201 0.95697 3.1579-1.244z" clip-path="url(#a)" fill="#fff" stroke="#fff"/>
<g clip-path="url(#a)">
<g transform="translate(541.79 350.6) rotate(-66.501) scale(.08 -.08)">
<use xlink:href="#ad"/>
</g>
</g>
<path d="m558.26 347.55 2.2275 5.123q0.95697 2.201 3.1579 1.244l7.1004-3.0872q2.201-0.95697 1.244-3.1579l-2.2275-5.123q-0.95697-2.201-3.1579-1.244l-7.1004 3.0872q-2.201 0.95697-1.244 3.1579z" clip-path="url(#a)" fill="#fff" stroke="#fff"/>
<g clip-path="url(#a)">
<g transform="translate(561.99 345.93) rotate(66.501) scale(.08 -.08)">
<use xlink:href="#q"/>
</g>
</g>
<path d="m751.38 353.84 3.6657-4.2153q1.5749-1.811-0.23616-3.3859l-5.8424-5.0806q-1.811-1.5749-3.3859 0.23616l-3.6657 4.2153q-1.5749 1.811 0.23616 3.3859l5.8424 5.0806q1.811 1.5749 3.3859-0.23616z" clip-path="url(#a)" fill="#fff" stroke="#fff"/>
<g clip-path="url(#a)">
<g transform="translate(748.32 351.17) rotate(-48.99) scale(.08 -.08)">
<use xlink:href="#q"/>
</g>
</g>
<path d="m766.66 345.09v5.055q0 2.4 2.4 2.4h7.7425q2.4 0 2.4-2.4v-5.055q0-2.4-2.4-2.4h-7.7425q-2.4 0-2.4 2.4z" clip-path="url(#a)" fill="#fff" stroke="#fff"/>
<g clip-path="url(#a)">
<g transform="translate(770.73 345.09) rotate(90) scale(.08 -.08)">
<use xlink:href="#s"/>
</g>
</g>
<path d="m790.73 349.52 3.842 4.4181q1.5749 1.811 3.3859 0.23616l5.8424-5.0806q1.811-1.5749 0.23616-3.3859l-3.842-4.4181q-1.5749-1.811-3.3859-0.23616l-5.8424 5.0806q-1.811 1.5749-0.23616 3.3859z" clip-path="url(#a)" fill="#fff" stroke="#fff"/>
<g clip-path="url(#a)">
<g transform="translate(793.79 346.85) rotate(48.99) scale(.08 -.08)">
<use xlink:href="#ab"/>
</g>
</g>
<path d="m717.77 386.2v35.285q0 2.4 2.4 2.4h7.7425q2.4 0 2.4-2.4v-35.285q0-2.4-2.4-2.4h-7.7425q-2.4 0-2.4 2.4z" clip-path="url(#a)" fill="#fff" stroke="#fff"/>
<g clip-path="url(#a)">
<g transform="translate(721.83 386.2) rotate(90) scale(.08 -.08)">
<use xlink:href="#k"/>
<use x="60.818359" xlink:href="#e"/>
<use x="122.341797" xlink:href="#i"/>
<use x="163.439453" xlink:href="#l"/>
<use x="260.851562" xlink:href="#f"/>
<use x="288.634766" xlink:href="#g"/>
<use x="352.013672" xlink:href="#h"/>
<use x="413.292969" xlink:href="#j"/>
</g>
</g>
<path d="m766.66 386.2v35.285q0 2.4 2.4 2.4h7.7425q2.4 0 2.4-2.4v-35.285q0-2.4-2.4-2.4h-7.7425q-2.4 0-2.4 2.4z" clip-path="url(#a)" fill="#fff" stroke="#fff"/>
<g clip-path="url(#a)">
<g transform="translate(770.73 386.2) rotate(90) scale(.08 -.08)">
<use xlink:href="#k"/>
<use x="60.818359" xlink:href="#e"/>
<use x="122.341797" xlink:href="#i"/>
<use x="163.439453" xlink:href="#l"/>
<use x="260.851562" xlink:href="#f"/>
<use x="288.634766" xlink:href="#g"/>
<use x="352.013672" xlink:href="#h"/>
<use x="413.292969" xlink:href="#j"/>
</g>
</g>
<path d="m522.19 386.2v35.285q0 2.4 2.4 2.4h7.7425q2.4 0 2.4-2.4v-35.285q0-2.4-2.4-2.4h-7.7425q-2.4 0-2.4 2.4z" clip-path="url(#a)" fill="#fff" stroke="#fff"/>
<g clip-path="url(#a)">
<g transform="translate(526.25 386.2) rotate(90) scale(.08 -.08)">
<use xlink:href="#k"/>
<use x="60.818359" xlink:href="#e"/>
<use x="122.341797" xlink:href="#i"/>
<use x="163.439453" xlink:href="#l"/>
<use x="260.851562" xlink:href="#f"/>
<use x="288.634766" xlink:href="#g"/>
<use x="352.013672" xlink:href="#h"/>
<use x="413.292969" xlink:href="#j"/>
</g>
</g>
<path d="m571.08 386.2v35.285q0 2.4 2.4 2.4h7.7425q2.4 0 2.4-2.4v-35.285q0-2.4-2.4-2.4h-7.7425q-2.4 0-2.4 2.4z" clip-path="url(#a)" fill="#fff" stroke="#fff"/>
<g clip-path="url(#a)">
<g transform="translate(575.14 386.2) rotate(90) scale(.08 -.08)">
<use xlink:href="#k"/>
<use x="60.818359" xlink:href="#e"/>
<use x="122.341797" xlink:href="#i"/>
<use x="163.439453" xlink:href="#l"/>
<use x="260.851562" xlink:href="#f"/>
<use x="288.634766" xlink:href="#g"/>
<use x="352.013672" xlink:href="#h"/>
<use x="413.292969" xlink:href="#j"/>
</g>
</g>
<path d="m375.5 386.2v35.285q0 2.4 2.4 2.4h7.7425q2.4 0 2.4-2.4v-35.285q0-2.4-2.4-2.4h-7.7425q-2.4 0-2.4 2.4z" clip-path="url(#a)" fill="#fff" stroke="#fff"/>
<g clip-path="url(#a)">
<g transform="translate(379.56 386.2) rotate(90) scale(.08 -.08)">
<use xlink:href="#k"/>
<use x="60.818359" xlink:href="#e"/>
<use x="122.341797" xlink:href="#i"/>
<use x="163.439453" xlink:href="#l"/>
<use x="260.851562" xlink:href="#f"/>
<use x="288.634766" xlink:href="#g"/>
<use x="352.013672" xlink:href="#h"/>
<use x="413.292969" xlink:href="#j"/>
</g>
</g>
<path d="m424.4 386.2v35.285q0 2.4 2.4 2.4h7.7425q2.4 0 2.4-2.4v-35.285q0-2.4-2.4-2.4h-7.7425q-2.4 0-2.4 2.4z" clip-path="url(#a)" fill="#fff" stroke="#fff"/>
<g clip-path="url(#a)">
<g transform="translate(428.46 386.2) rotate(90) scale(.08 -.08)">
<use xlink:href="#k"/>
<use x="60.818359" xlink:href="#e"/>
<use x="122.341797" xlink:href="#i"/>
<use x="163.439453" xlink:href="#l"/>
<use x="260.851562" xlink:href="#f"/>
<use x="288.634766" xlink:href="#g"/>
<use x="352.013672" xlink:href="#h"/>
<use x="413.292969" xlink:href="#j"/>
</g>
</g>
<path d="m473.29 386.2v35.285q0 2.4 2.4 2.4h7.7425q2.4 0 2.4-2.4v-35.285q0-2.4-2.4-2.4h-7.7425q-2.4 0-2.4 2.4z" clip-path="url(#a)" fill="#fff" stroke="#fff"/>
<g clip-path="url(#a)">
<g transform="translate(477.35 386.2) rotate(90) scale(.08 -.08)">
<use xlink:href="#k"/>
<use x="60.818359" xlink:href="#e"/>
<use x="122.341797" xlink:href="#i"/>
<use x="163.439453" xlink:href="#l"/>
<use x="260.851562" xlink:href="#f"/>
<use x="288.634766" xlink:href="#g"/>
<use x="352.013672" xlink:href="#h"/>
<use x="413.292969" xlink:href="#j"/>
</g>
</g>
<path d="m277.71 386.2v35.285q0 2.4 2.4 2.4h7.7425q2.4 0 2.4-2.4v-35.285q0-2.4-2.4-2.4h-7.7425q-2.4 0-2.4 2.4z" clip-path="url(#a)" fill="#fff" stroke="#fff"/>
<g clip-path="url(#a)">
<g transform="translate(281.77 386.2) rotate(90) scale(.08 -.08)">
<use xlink:href="#k"/>
<use x="60.818359" xlink:href="#e"/>
<use x="122.341797" xlink:href="#i"/>
<use x="163.439453" xlink:href="#l"/>
<use x="260.851562" xlink:href="#f"/>
<use x="288.634766" xlink:href="#g"/>
<use x="352.013672" xlink:href="#h"/>
<use x="413.292969" xlink:href="#j"/>
</g>
</g>
<path d="m815.56 386.2v35.285q0 2.4 2.4 2.4h7.7425q2.4 0 2.4-2.4v-35.285q0-2.4-2.4-2.4h-7.7425q-2.4 0-2.4 2.4z" clip-path="url(#a)" fill="#fff" stroke="#fff"/>
<g clip-path="url(#a)">
<g transform="translate(819.62 386.2) rotate(90) scale(.08 -.08)">
<use xlink:href="#k"/>
<use x="60.818359" xlink:href="#e"/>
<use x="122.341797" xlink:href="#i"/>
<use x="163.439453" xlink:href="#l"/>
<use x="260.851562" xlink:href="#f"/>
<use x="288.634766" xlink:href="#g"/>
<use x="352.013672" xlink:href="#h"/>
<use x="413.292969" xlink:href="#j"/>
</g>
</g>
<defs>
<path id="b" d="m0 8.6603c2.2967 0 4.4997-0.9125 6.1237-2.5365 1.624-1.624 2.5365-3.827 2.5365-6.1237s-0.9125-4.4997-2.5365-6.1237c-1.624-1.624-3.827-2.5365-6.1237-2.5365s-4.4997 0.9125-6.1237 2.5365c-1.624 1.624-2.5365 3.827-2.5365 6.1237s0.9125 4.4997 2.5365 6.1237c1.624 1.624 3.827 2.5365 6.1237 2.5365z"/>
</defs>
<g clip-path="url(#a)">
<use x="39.505478" y="431.953892" fill="#ffffff" stroke="#ffffff" xlink:href="#b"/>
</g>
<g clip-path="url(#a)">
<use x="88.400627" y="431.953892" fill="#ffffff" stroke="#ffffff" xlink:href="#b"/>
</g>
<g clip-path="url(#a)">
<use x="137.295775" y="431.953892" fill="#ffffff" stroke="#ffffff" xlink:href="#b"/>
</g>
<g clip-path="url(#a)">
<use x="186.190924" y="431.953892" fill="#ffffff" stroke="#ffffff" xlink:href="#b"/>
</g>
<g clip-path="url(#a)">
<use x="235.086072" y="431.953892" fill="#ffffff" stroke="#ffffff" xlink:href="#b"/>
</g>
<g clip-path="url(#a)">
<use x="283.981221" y="431.953892" fill="#ffffff" stroke="#ffffff" xlink:href="#b"/>
</g>
<g clip-path="url(#a)">
<use x="332.876369" y="431.953892" fill="#ffffff" stroke="#ffffff" xlink:href="#b"/>
</g>
<g clip-path="url(#a)">
<use x="381.771518" y="431.953892" fill="#ffffff" stroke="#ffffff" xlink:href="#b"/>
</g>
<g clip-path="url(#a)">
<use x="430.666667" y="431.953892" fill="#ffffff" stroke="#ffffff" xlink:href="#b"/>
</g>
<g clip-path="url(#a)">
<use x="479.561815" y="431.953892" fill="#ffffff" stroke="#ffffff" xlink:href="#b"/>
</g>
<g clip-path="url(#a)">
<use x="528.456964" y="431.953892" fill="#ffffff" stroke="#ffffff" xlink:href="#b"/>
</g>
<g clip-path="url(#a)">
<use x="577.352112" y="431.953892" fill="#ffffff" stroke="#ffffff" xlink:href="#b"/>
</g>
<g clip-path="url(#a)">
<use x="626.247261" y="431.953892" fill="#ffffff" stroke="#ffffff" xlink:href="#b"/>
</g>
<g clip-path="url(#a)">
<use x="675.14241" y="431.953892" fill="#ffffff" stroke="#ffffff" xlink:href="#b"/>
</g>
<g clip-path="url(#a)">
<use x="724.037558" y="431.953892" fill="#ffffff" stroke="#ffffff" xlink:href="#b"/>
</g>
<g clip-path="url(#a)">
<use x="772.932707" y="431.953892" fill="#ffffff" stroke="#ffffff" xlink:href="#b"/>
</g>
<g clip-path="url(#a)">
<use x="821.827855" y="431.953892" fill="#ffffff" stroke="#ffffff" xlink:href="#b"/>
</g>
<g clip-path="url(#a)">
<use x="127.734057" y="21.379441" fill="#ffffff" stroke="#ffffff" xlink:href="#b"/>
</g>
<g clip-path="url(#a)">
<use x="127.734057" y="84.006813" fill="#ffffff" stroke="#ffffff" xlink:href="#b"/>
</g>
<g clip-path="url(#a)">
<use x="39.505478" y="375.726514" fill="#ffffff" stroke="#ffffff" xlink:href="#b"/>
</g>
<g clip-path="url(#a)">
<use x="88.400627" y="375.726514" fill="#ffffff" stroke="#ffffff" xlink:href="#b"/>
</g>
<g clip-path="url(#a)">
<use x="255.296067" y="144.950933" fill="#ffffff" stroke="#ffffff" xlink:href="#b"/>
</g>
<g clip-path="url(#a)">
<use x="137.295775" y="375.726514" fill="#ffffff" stroke="#ffffff" xlink:href="#b"/>
</g>
<g clip-path="url(#a)">
<use x="186.190924" y="375.726514" fill="#ffffff" stroke="#ffffff" xlink:href="#b"/>
</g>
<g clip-path="url(#a)">
<use x="235.086072" y="375.726514" fill="#ffffff" stroke="#ffffff" xlink:href="#b"/>
</g>
<g clip-path="url(#a)">
<use x="433.926343" y="204.382247" fill="#ffffff" stroke="#ffffff" xlink:href="#b"/>
</g>
<g clip-path="url(#a)">
<use x="332.876369" y="375.726514" fill="#ffffff" stroke="#ffffff" xlink:href="#b"/>
</g>
<g clip-path="url(#a)">
<use x="430.666667" y="319.499135" fill="#ffffff" stroke="#ffffff" xlink:href="#b"/>
</g>
<g clip-path="url(#a)">
<use x="520.307772" y="262.489572" fill="#ffffff" stroke="#ffffff" xlink:href="#b"/>
</g>
<g clip-path="url(#a)">
<use x="650.694835" y="319.499135" fill="#ffffff" stroke="#ffffff" xlink:href="#b"/>
</g>
<g clip-path="url(#a)">
<use x="626.247261" y="375.726514" fill="#ffffff" stroke="#ffffff" xlink:href="#b"/>
</g>
<g clip-path="url(#a)">
<use x="675.14241" y="375.726514" fill="#ffffff" stroke="#ffffff" xlink:href="#b"/>
</g>
<g clip-path="url(#a)">
<use x="552.904538" y="319.499135" fill="#ffffff" stroke="#ffffff" xlink:href="#b"/>
</g>
<g clip-path="url(#a)">
<use x="772.932707" y="319.499135" fill="#ffffff" stroke="#ffffff" xlink:href="#b"/>
</g>
<g clip-path="url(#a)">
<use x="724.037558" y="375.726514" fill="#ffffff" stroke="#ffffff" xlink:href="#b"/>
</g>
<g clip-path="url(#a)">
<use x="772.932707" y="375.726514" fill="#ffffff" stroke="#ffffff" xlink:href="#b"/>
</g>
<g clip-path="url(#a)">
<use x="528.456964" y="375.726514" fill="#ffffff" stroke="#ffffff" xlink:href="#b"/>
</g>
<g clip-path="url(#a)">
<use x="577.352112" y="375.726514" fill="#ffffff" stroke="#ffffff" xlink:href="#b"/>
</g>
<g clip-path="url(#a)">
<use x="381.771518" y="375.726514" fill="#ffffff" stroke="#ffffff" xlink:href="#b"/>
</g>
<g clip-path="url(#a)">
<use x="430.666667" y="375.726514" fill="#ffffff" stroke="#ffffff" xlink:href="#b"/>
</g>
<g clip-path="url(#a)">
<use x="479.561815" y="375.726514" fill="#ffffff" stroke="#ffffff" xlink:href="#b"/>
</g>
<g clip-path="url(#a)">
<use x="283.981221" y="375.726514" fill="#ffffff" stroke="#ffffff" xlink:href="#b"/>
</g>
<g clip-path="url(#a)">
<use x="821.827855" y="375.726514" fill="#ffffff" stroke="#ffffff" xlink:href="#b"/>
</g>
<g clip-path="url(#a)">
<g transform="translate(31.999 434.71) scale(.1 -.1)">
<use xlink:href="#k"/>
<use x="60.818359" xlink:href="#e"/>
<use x="122.341797" xlink:href="#j"/>
</g>
</g>
<g clip-path="url(#a)">
<defs>
<path id="ah" d="m56.203 29.594v-4.3906h-41.312q0.59375-9.2812 5.5938-14.141t13.938-4.8594q5.1719 0 10.031 1.2656t9.6562 3.8125v-8.5q-4.8438-2.0469-9.9219-3.125t-10.297-1.0781q-13.094 0-20.734 7.6094-7.6406 7.625-7.6406 20.625 0 13.422 7.25 21.297 7.25 7.8906 19.562 7.8906 11.031 0 17.453-7.1094 6.4219-7.0938 6.4219-19.297zm-8.9844 2.6406q-0.09375 7.3594-4.125 11.75-4.0312 4.4062-10.672 4.4062-7.5156 0-12.031-4.25t-5.2031-11.969zm-8.6875 47.75h9.7188l-15.906-18.359h-7.4844z"/>
<path id="p" d="m18.312 70.219v-15.531h18.5v-6.9844h-18.5v-29.688q0-6.6875 1.8281-8.5938t7.4531-1.9062h9.2188v-7.5156h-9.2188q-10.406 0-14.359 3.875-3.9531 3.8906-3.9531 14.141v29.688h-6.5938v6.9844h6.5938v15.531z"/>
</defs>
<g transform="translate(76.951 434.71) scale(.1 -.1)">
<use xlink:href="#ah"/>
<use x="61.523438" xlink:href="#p"/>
<use x="100.732422" xlink:href="#h"/>
<use x="162.011719" xlink:href="#f"/>
<use x="189.794922" xlink:href="#p"/>
</g>
</g>
<g clip-path="url(#a)">
<defs>
<path id="ak" d="m48.781 52.594v-8.4062q-3.8125 2.1094-7.6406 3.1562t-7.7344 1.0469q-8.75 0-13.594-5.5469-4.8281-5.5312-4.8281-15.547t4.8281-15.562q4.8438-5.5312 13.594-5.5312 3.9062 0 7.7344 1.0469t7.6406 3.1562v-8.3125q-3.7656-1.75-7.7969-2.625-4.0156-0.89062-8.5625-0.89062-12.359 0-19.641 7.7656-7.2656 7.7656-7.2656 20.953 0 13.375 7.3438 21.031 7.3594 7.6719 20.156 7.6719 4.1406 0 8.0938-0.85938 3.9531-0.84375 7.6719-2.5469z"/>
</defs>
<g transform="translate(131.47 434.71) scale(.1 -.1)">
<use xlink:href="#ak"/>
<use x="54.980469" xlink:href="#e"/>
</g>
</g>
<g clip-path="url(#a)">
<defs>
<path id="aj" d="m45.406 46.391v29.594h8.9844v-75.984h-8.9844v8.2031q-2.8281-4.875-7.1562-7.25-4.3125-2.375-10.375-2.375-9.9062 0-16.141 7.9062-6.2188 7.9219-6.2188 20.812t6.2188 20.797q6.2344 7.9062 16.141 7.9062 6.0625 0 10.375-2.375 4.3281-2.3594 7.1562-7.2344zm-30.609-19.094q0-9.9062 4.0781-15.547t11.203-5.6406 11.219 5.6406q4.1094 5.6406 4.1094 15.547t-4.1094 15.547q-4.0938 5.6406-11.219 5.6406t-11.203-5.6406-4.0781-15.547z"/>
</defs>
<g transform="translate(168.2 434.71) scale(.1 -.1)">
<use xlink:href="#aj"/>
<use x="63.476562" xlink:href="#e"/>
<use x="125" xlink:href="#i"/>
<use x="166.097656" xlink:href="#g"/>
<use x="229.476562" xlink:href="#f"/>
<use x="257.259766" xlink:href="#e"/>
<use x="318.783203" xlink:href="#i"/>
</g>
</g>
<g clip-path="url(#a)">
<defs>
<path id="at" d="m37.109 75.984v-7.4844h-8.5938q-4.8281 0-6.7188-1.9531-1.875-1.9531-1.875-7.0312v-4.8281h14.797v-6.9844h-14.797v-47.703h-9.0312v47.703h-8.5938v6.9844h8.5938v3.8125q0 9.125 4.25 13.297 4.25 4.1875 13.469 4.1875z"/>
</defs>
<g transform="translate(226.91 434.71) scale(.1 -.1)">
<use xlink:href="#at"/>
<use x="35.205078" xlink:href="#h"/>
<use x="96.484375" xlink:href="#f"/>
<use x="124.267578" xlink:href="#p"/>
</g>
</g>
<g clip-path="url(#a)">
<defs>
<path id="ap" d="m11.719 12.406h10.297v-8.4062l-8-15.625h-6.2969l4 15.625z"/>
</defs>
<g transform="translate(282.39 434.71) scale(.1 -.1)">
<use xlink:href="#ap"/>
</g>
</g>
<g clip-path="url(#a)">
<defs>
<path id="ai" d="m14.797 27.297q0-9.9062 4.0781-15.547t11.203-5.6406 11.219 5.6406q4.1094 5.6406 4.1094 15.547t-4.1094 15.547q-4.0938 5.6406-11.219 5.6406t-11.203-5.6406-4.0781-15.547zm30.609-19.094q-2.8281-4.875-7.1562-7.25-4.3125-2.375-10.375-2.375-9.9062 0-16.141 7.9062-6.2188 7.9219-6.2188 20.812t6.2188 20.797q6.2344 7.9062 16.141 7.9062 6.0625 0 10.375-2.375 4.3281-2.3594 7.1562-7.2344v8.2969h8.9844v-75.484h-8.9844z"/>
<path id="n" d="m8.5 21.578v33.109h8.9844v-32.766q0-7.7656 3.0156-11.656 3.0312-3.875 9.0938-3.875 7.2656 0 11.484 4.6406 4.2344 4.6406 4.2344 12.656v31h8.9844v-54.688h-8.9844v8.4062q-3.2656-4.9844-7.5938-7.4062-4.3125-2.4219-10.031-2.4219-9.4219 0-14.312 5.8594-4.875 5.8594-4.875 17.141z"/>
</defs>
<g transform="translate(325.14 434.71) scale(.1 -.1)">
<use xlink:href="#ai"/>
<use x="63.476562" xlink:href="#n"/>
<use x="126.855469" xlink:href="#f"/>
</g>
</g>
<g clip-path="url(#a)">
<g transform="translate(373.57 434.71) scale(.1 -.1)">
<use xlink:href="#e"/>
<use x="61.523438" xlink:href="#n"/>
<use x="124.902344" xlink:href="#p"/>
</g>
</g>
<g clip-path="url(#a)">
<defs>
<path id="t" d="m18.109 8.2031v-29h-9.0312v75.484h9.0312v-8.2969q2.8438 4.875 7.1562 7.2344 4.3281 2.375 10.328 2.375 9.9688 0 16.188-7.9062 6.2344-7.9062 6.2344-20.797t-6.2344-20.812q-6.2188-7.9062-16.188-7.9062-6 0-10.328 2.375-4.3125 2.375-7.1562 7.25zm30.578 19.094q0 9.9062-4.0781 15.547t-11.203 5.6406q-7.1406 0-11.219-5.6406t-4.0781-15.547 4.0781-15.547 11.219-5.6406q7.125 0 11.203 5.6406t4.0781 15.547z"/>
<path id="r" d="m30.609 48.391q-7.2188 0-11.422-5.6406t-4.2031-15.453 4.1719-15.453q4.1875-5.6406 11.453-5.6406 7.1875 0 11.375 5.6562 4.2031 5.6719 4.2031 15.438 0 9.7188-4.2031 15.406-4.1875 5.6875-11.375 5.6875zm0 7.6094q11.719 0 18.406-7.625 6.7031-7.6094 6.7031-21.078 0-13.422-6.7031-21.078-6.6875-7.6406-18.406-7.6406-11.766 0-18.438 7.6406-6.6562 7.6562-6.6562 21.078 0 13.469 6.6562 21.078 6.6719 7.625 18.438 7.625z"/>
</defs>
<g transform="translate(419.21 434.71) scale(.1 -.1)">
<use xlink:href="#t"/>
<use x="63.476562" xlink:href="#r"/>
<use x="124.658203" xlink:href="#n"/>
<use x="188.037109" xlink:href="#i"/>
</g>
</g>
<g clip-path="url(#a)">
<defs>
<path id="aa" d="m44.281 53.078v-8.5q-3.7969 1.9531-7.9062 2.9219-4.0938 0.98438-8.5 0.98438-6.6875 0-10.031-2.0469t-3.3438-6.1562q0-3.125 2.3906-4.9062t9.625-3.3906l3.0781-0.6875q9.5625-2.0469 13.594-5.7812t4.0312-10.422q0-7.625-6.0312-12.078-6.0312-4.4375-16.578-4.4375-4.3906 0-9.1562 0.85938t-10.031 2.5625v9.2812q4.9844-2.5938 9.8125-3.8906 4.8281-1.2812 9.5781-1.2812 6.3438 0 9.75 2.1719 3.4219 2.1719 3.4219 6.125 0 3.6562-2.4688 5.6094-2.4531 1.9531-10.812 3.7656l-3.125 0.73438q-8.3438 1.75-12.062 5.3906-3.7031 3.6406-3.7031 9.9844 0 7.7188 5.4688 11.906 5.4688 4.2031 15.531 4.2031 4.9688 0 9.3594-0.73438 4.4062-0.71875 8.1094-2.1875z"/>
</defs>
<g transform="translate(460.28 434.71) scale(.1 -.1)">
<use xlink:href="#i"/>
<use x="41.082031" xlink:href="#ah"/>
<use x="102.605469" xlink:href="#aa"/>
<use x="154.705078" xlink:href="#n"/>
<use x="218.083984" xlink:href="#j"/>
<use x="245.867188" xlink:href="#p"/>
<use x="285.076172" xlink:href="#h"/>
<use x="346.355469" xlink:href="#p"/>
</g>
</g>
<g clip-path="url(#a)">
<g transform="translate(522.21 434.71) scale(.1 -.1)">
<use xlink:href="#aj"/>
<use x="63.476562" xlink:href="#e"/>
</g>
</g>
<g clip-path="url(#a)">
<g transform="translate(549.99 434.71) scale(.1 -.1)">
<use xlink:href="#t"/>
<use x="63.476562" xlink:href="#h"/>
<use x="124.755859" xlink:href="#aa"/>
<use x="176.855469" xlink:href="#aa"/>
<use x="228.955078" xlink:href="#f"/>
<use x="256.738281" xlink:href="#r"/>
<use x="317.919922" xlink:href="#g"/>
<use x="381.298828" xlink:href="#g"/>
<use x="444.677734" xlink:href="#e"/>
<use x="506.201172" xlink:href="#i"/>
</g>
</g>
<g clip-path="url(#a)">
<defs>
<path id="ar" d="m34.281 27.484q-10.891 0-15.094-2.4844t-4.2031-8.5q0-4.7812 3.1562-7.5938 3.1562-2.7969 8.5625-2.7969 7.4844 0 12 5.2969t4.5156 14.078v2zm17.922 3.7188v-31.203h-8.9844v8.2969q-3.0781-4.9688-7.6719-7.3438t-11.234-2.375q-8.3906 0-13.359 4.7188-4.9531 4.7188-4.9531 12.625 0 9.2188 6.1719 13.906 6.1875 4.6875 18.438 4.6875h12.609v0.89062q0 6.2031-4.0781 9.5938t-11.453 3.3906q-4.6875 0-9.1406-1.125-4.4375-1.125-8.5312-3.375v8.3125q4.9219 1.9062 9.5625 2.8438 4.6406 0.95312 9.0312 0.95312 11.875 0 17.734-6.1562 5.8594-6.1406 5.8594-18.641zm-30.281 48.781 13.766-18.266h-7.4688l-15.922 18.266z"/>
</defs>
<g transform="translate(623.18 434.71) scale(.1 -.1)">
<use xlink:href="#ar"/>
</g>
</g>
<g clip-path="url(#a)">
<defs>
<path id="as" d="m2.9844 54.688h9.5156l17.094-45.891 17.094 45.891h9.5156l-20.516-54.688h-12.203z"/>
</defs>
<g transform="translate(653.48 434.71) scale(.1 -.1)">
<use xlink:href="#g"/>
<use x="63.378906" xlink:href="#r"/>
<use x="124.560547" xlink:href="#n"/>
<use x="187.939453" xlink:href="#as"/>
<use x="247.119141" xlink:href="#e"/>
<use x="308.642578" xlink:href="#h"/>
<use x="369.921875" xlink:href="#n"/>
</g>
</g>
<g clip-path="url(#a)">
<defs>
<path id="aq" d="m17.922 72.906v-27.109h-8.2969v27.109z"/>
</defs>
<g transform="translate(702.87 434.71) scale(.1 -.1)">
<use xlink:href="#j"/>
<use x="27.783203" xlink:href="#aq"/>
<use x="55.273438" xlink:href="#r"/>
<use x="116.455078" xlink:href="#t"/>
<use x="179.931641" xlink:href="#f"/>
<use x="207.714844" xlink:href="#g"/>
<use x="271.09375" xlink:href="#f"/>
<use x="298.876953" xlink:href="#r"/>
<use x="360.058594" xlink:href="#g"/>
</g>
</g>
<g clip-path="url(#a)">
<defs>
<path id="al" d="m48.688 27.297q0 9.9062-4.0781 15.547t-11.203 5.6406q-7.1406 0-11.219-5.6406t-4.0781-15.547 4.0781-15.547 11.219-5.6406q7.125 0 11.203 5.6406t4.0781 15.547zm-30.578 19.094q2.8438 4.875 7.1562 7.2344 4.3281 2.375 10.328 2.375 9.9688 0 16.188-7.9062 6.2344-7.9062 6.2344-20.797t-6.2344-20.812q-6.2188-7.9062-16.188-7.9062-6 0-10.328 2.375-4.3125 2.375-7.1562 7.25v-8.2031h-9.0312v75.984h9.0312z"/>
</defs>
<g transform="translate(751.22 434.71) scale(.1 -.1)">
<use xlink:href="#t"/>
<use x="63.476562" xlink:href="#n"/>
<use x="126.855469" xlink:href="#al"/>
<use x="190.332031" xlink:href="#j"/>
<use x="218.115234" xlink:href="#f"/>
<use x="245.898438" xlink:href="#ai"/>
<use x="309.375" xlink:href="#n"/>
<use x="372.753906" xlink:href="#e"/>
</g>
</g>
<g clip-path="url(#a)">
<defs>
<path id="d" d="m10.688 12.406h10.312v-12.406h-10.312z"/>
</defs>
<g transform="translate(820.24 434.71) scale(.1 -.1)">
<use xlink:href="#d"/>
</g>
</g>
<g clip-path="url(#a)">
<defs>
<path id="c" d="m12.406 8.2969h16.109v55.625l-17.531-3.5156v8.9844l17.438 3.5156h9.8594v-64.609h16.109v-8.2969h-41.984z"/>
</defs>
<g transform="translate(119.78 24.139) scale(.1 -.1)">
<use xlink:href="#c"/>
<use x="63.623047" xlink:href="#d"/>
<use x="95.410156" xlink:href="#c"/>
</g>
</g>
<g clip-path="url(#a)">
<defs>
<path id="m" d="m19.188 8.2969h34.422v-8.2969h-46.281v8.2969q5.6094 5.8125 15.297 15.594 9.7031 9.7969 12.188 12.641 4.7344 5.3125 6.6094 9 1.8906 3.6875 1.8906 7.25 0 5.8125-4.0781 9.4688-4.0781 3.6719-10.625 3.6719-4.6406 0-9.7969-1.6094-5.1406-1.6094-11-4.8906v9.9688q5.9531 2.3906 11.125 3.6094 5.1875 1.2188 9.4844 1.2188 11.328 0 18.062-5.6719 6.7344-5.6562 6.7344-15.125 0-4.5-1.6875-8.5312-1.6719-4.0156-6.125-9.4844-1.2188-1.4219-7.7656-8.1875-6.5312-6.7656-18.453-18.922z"/>
</defs>
<g transform="translate(119.78 86.766) scale(.1 -.1)">
<use xlink:href="#c"/>
<use x="63.623047" xlink:href="#d"/>
<use x="95.410156" xlink:href="#m"/>
</g>
</g>
<g clip-path="url(#a)">
<defs>
<path id="z" d="m37.797 64.312-24.906-38.922h24.906zm-2.5938 8.5938h12.406v-47.516h10.406v-8.2031h-10.406v-17.188h-9.8125v17.188h-32.906v9.5156z"/>
</defs>
<g transform="translate(31.554 378.49) scale(.1 -.1)">
<use xlink:href="#c"/>
<use x="63.623047" xlink:href="#d"/>
<use x="95.410156" xlink:href="#z"/>
</g>
</g>
<g clip-path="url(#a)">
<defs>
<path id="y" d="m10.797 72.906h38.719v-8.3125h-29.688v-17.859q2.1406 0.73438 4.2812 1.0938 2.1562 0.35938 4.3125 0.35938 12.203 0 19.328-6.6875 7.1406-6.6875 7.1406-18.109 0-11.766-7.3281-18.297-7.3281-6.5156-20.656-6.5156-4.5938 0-9.3594 0.78125-4.75 0.78125-9.8281 2.3438v9.9219q4.3906-2.3906 9.0781-3.5625t9.9062-1.1719q8.4531 0 13.375 4.4375 4.9375 4.4375 4.9375 12.062 0 7.6094-4.9375 12.047-4.9219 4.4531-13.375 4.4531-3.9531 0-7.8906-0.875-3.9219-0.875-8.0156-2.7344z"/>
</defs>
<g transform="translate(80.449 378.49) scale(.1 -.1)">
<use xlink:href="#c"/>
<use x="63.623047" xlink:href="#d"/>
<use x="95.410156" xlink:href="#y"/>
</g>
</g>
<g clip-path="url(#a)">
<defs>
<path id="x" d="m33.016 40.375q-6.6406 0-10.531-4.5469-3.875-4.5312-3.875-12.438 0-7.8594 3.875-12.438 3.8906-4.5625 10.531-4.5625t10.516 4.5625q3.875 4.5781 3.875 12.438 0 7.9062-3.875 12.438-3.875 4.5469-10.516 4.5469zm19.578 30.922v-8.9844q-3.7188 1.75-7.5 2.6719-3.7812 0.9375-7.5 0.9375-9.7656 0-14.922-6.5938-5.1406-6.5938-5.875-19.922 2.875 4.25 7.2188 6.5156 4.3594 2.2656 9.5781 2.2656 10.984 0 17.359-6.6719 6.375-6.6562 6.375-18.125 0-11.234-6.6406-18.031-6.6406-6.7812-17.672-6.7812-12.656 0-19.344 9.6875-6.6875 9.7031-6.6875 28.109 0 17.281 8.2031 27.562t22.016 10.281q3.7188 0 7.5-0.73438t7.8906-2.1875z"/>
</defs>
<g transform="translate(247.34 147.71) scale(.1 -.1)">
<use xlink:href="#c"/>
<use x="63.623047" xlink:href="#d"/>
<use x="95.410156" xlink:href="#x"/>
</g>
</g>
<g clip-path="url(#a)">
<defs>
<path id="w" d="m8.2031 72.906h46.875v-4.2031l-26.469-68.703h-10.297l24.906 64.594h-35.016z"/>
</defs>
<g transform="translate(129.34 378.49) scale(.1 -.1)">
<use xlink:href="#c"/>
<use x="63.623047" xlink:href="#d"/>
<use x="95.410156" xlink:href="#w"/>
</g>
</g>
<g clip-path="url(#a)">
<defs>
<path id="v" d="m31.781 34.625q-7.0312 0-11.062-3.7656-4.0156-3.7656-4.0156-10.344 0-6.5938 4.0156-10.359 4.0312-3.7656 11.062-3.7656t11.078 3.7812q4.0625 3.7969 4.0625 10.344 0 6.5781-4.0312 10.344-4.0156 3.7656-11.109 3.7656zm-9.8594 4.1875q-6.3438 1.5625-9.8906 5.9062-3.5312 4.3594-3.5312 10.609 0 8.7344 6.2188 13.812 6.2344 5.0781 17.062 5.0781 10.891 0 17.094-5.0781t6.2031-13.812q0-6.25-3.5469-10.609-3.5312-4.3438-9.8281-5.9062 7.125-1.6562 11.094-6.5 3.9844-4.8281 3.9844-11.797 0-10.609-6.4688-16.281-6.4688-5.6562-18.531-5.6562-12.047 0-18.531 5.6562-6.4688 5.6719-6.4688 16.281 0 6.9688 4 11.797 4.0156 4.8438 11.141 6.5zm-3.6094 15.578q0-5.6562 3.5312-8.8281 3.5469-3.1719 9.9375-3.1719 6.3594 0 9.9375 3.1719 3.5938 3.1719 3.5938 8.8281 0 5.6719-3.5938 8.8438-3.5781 3.1719-9.9375 3.1719-6.3906 0-9.9375-3.1719-3.5312-3.1719-3.5312-8.8438z"/>
</defs>
<g transform="translate(178.24 378.49) scale(.1 -.1)">
<use xlink:href="#c"/>
<use x="63.623047" xlink:href="#d"/>
<use x="95.410156" xlink:href="#v"/>
</g>
</g>
<g clip-path="url(#a)">
<defs>
<path id="ae" d="m10.984 1.5156v8.9844q3.7188-1.7656 7.5156-2.6875 3.8125-0.92188 7.4844-0.92188 9.7656 0 14.906 6.5625 5.1562 6.5625 5.8906 19.953-2.8281-4.2031-7.1875-6.4531-4.3438-2.25-9.6094-2.25-10.938 0-17.312 6.6094-6.375 6.625-6.375 18.109 0 11.219 6.6406 18 6.6406 6.7969 17.672 6.7969 12.656 0 19.312-9.7031 6.6719-9.6875 6.6719-28.141 0-17.234-8.1875-27.516-8.1719-10.281-21.984-10.281-3.7188 0-7.5312 0.73438-3.7969 0.73438-7.9062 2.2031zm19.625 30.906q6.6406 0 10.516 4.5312 3.8906 4.5469 3.8906 12.469 0 7.8594-3.8906 12.422-3.875 4.5625-10.516 4.5625t-10.516-4.5625-3.875-12.422q0-7.9219 3.875-12.469 3.875-4.5312 10.516-4.5312z"/>
</defs>
<g transform="translate(227.13 378.49) scale(.1 -.1)">
<use xlink:href="#c"/>
<use x="63.623047" xlink:href="#d"/>
<use x="95.410156" xlink:href="#ae"/>
</g>
</g>
<g clip-path="url(#a)">
<defs>
<path id="ag" d="m31.781 66.406q-7.6094 0-11.453-7.5-3.8281-7.4844-3.8281-22.531 0-14.984 3.8281-22.484 3.8438-7.5 11.453-7.5 7.6719 0 11.5 7.5 3.8438 7.5 3.8438 22.484 0 15.047-3.8438 22.531-3.8281 7.5-11.5 7.5zm0 7.8125q12.266 0 18.734-9.7031 6.4688-9.6875 6.4688-28.141 0-18.406-6.4688-28.109-6.4688-9.6875-18.734-9.6875-12.25 0-18.719 9.6875-6.4688 9.7031-6.4688 28.109 0 18.453 6.4688 28.141 6.4688 9.7031 18.719 9.7031z"/>
</defs>
<g transform="translate(422.79 207.14) scale(.1 -.1)">
<use xlink:href="#c"/>
<use x="63.623047" xlink:href="#d"/>
<use x="95.410156" xlink:href="#c"/>
<use x="159.033203" xlink:href="#ag"/>
</g>
</g>
<g clip-path="url(#a)">
<g transform="translate(321.74 378.49) scale(.1 -.1)">
<use xlink:href="#c"/>
<use x="63.623047" xlink:href="#d"/>
<use x="95.410156" xlink:href="#c"/>
<use x="159.033203" xlink:href="#m"/>
</g>
</g>
<g clip-path="url(#a)">
<defs>
<path id="af" d="m40.578 39.312q7.0781-1.5156 11.047-6.3125 3.9844-4.7812 3.9844-11.812 0-10.781-7.4219-16.703-7.4219-5.9062-21.094-5.9062-4.5781 0-9.4375 0.90625t-10.031 2.7188v9.5156q4.0938-2.3906 8.9688-3.6094 4.8906-1.2188 10.219-1.2188 9.2656 0 14.125 3.6562t4.8594 10.641q0 6.4531-4.5156 10.078-4.5156 3.6406-12.562 3.6406h-8.5v8.1094h8.8906q7.2656 0 11.125 2.9062t3.8594 8.375q0 5.6094-3.9844 8.6094-3.9688 3.0156-11.391 3.0156-4.0625 0-8.7031-0.89062-4.6406-0.875-10.203-2.7188v8.7812q5.625 1.5625 10.531 2.3438t9.25 0.78125q11.234 0 17.766-5.1094 6.5469-5.0938 6.5469-13.781 0-6.0625-3.4688-10.234t-9.8594-5.7812z"/>
</defs>
<g transform="translate(419.53 322.26) scale(.1 -.1)">
<use xlink:href="#c"/>
<use x="63.623047" xlink:href="#d"/>
<use x="95.410156" xlink:href="#c"/>
<use x="159.033203" xlink:href="#af"/>
</g>
</g>
<g clip-path="url(#a)">
<g transform="translate(509.17 265.25) scale(.1 -.1)">
<use xlink:href="#c"/>
<use x="63.623047" xlink:href="#d"/>
<use x="95.410156" xlink:href="#c"/>
<use x="159.033203" xlink:href="#z"/>
</g>
</g>
<g clip-path="url(#a)">
<g transform="translate(639.56 322.26) scale(.1 -.1)">
<use xlink:href="#c"/>
<use x="63.623047" xlink:href="#d"/>
<use x="95.410156" xlink:href="#c"/>
<use x="159.033203" xlink:href="#y"/>
</g>
</g>
<g clip-path="url(#a)">
<g transform="translate(615.11 378.49) scale(.1 -.1)">
<use xlink:href="#c"/>
<use x="63.623047" xlink:href="#d"/>
<use x="95.410156" xlink:href="#c"/>
<use x="159.033203" xlink:href="#x"/>
</g>
</g>
<g clip-path="url(#a)">
<g transform="translate(664.01 378.49) scale(.1 -.1)">
<use xlink:href="#c"/>
<use x="63.623047" xlink:href="#d"/>
<use x="95.410156" xlink:href="#c"/>
<use x="159.033203" xlink:href="#w"/>
</g>
</g>
<g clip-path="url(#a)">
<g transform="translate(541.77 322.26) scale(.1 -.1)">
<use xlink:href="#c"/>
<use x="63.623047" xlink:href="#d"/>
<use x="95.410156" xlink:href="#c"/>
<use x="159.033203" xlink:href="#v"/>
</g>
</g>
<g clip-path="url(#a)">
<g transform="translate(761.8 322.26) scale(.1 -.1)">
<use xlink:href="#c"/>
<use x="63.623047" xlink:href="#d"/>
<use x="95.410156" xlink:href="#c"/>
<use x="159.033203" xlink:href="#ae"/>
</g>
</g>
<g clip-path="url(#a)">
<g transform="translate(712.9 378.49) scale(.1 -.1)">
<use xlink:href="#c"/>
<use x="63.623047" xlink:href="#d"/>
<use x="95.410156" xlink:href="#m"/>
<use x="159.033203" xlink:href="#ag"/>
</g>
</g>
<g clip-path="url(#a)">
<g transform="translate(761.8 378.49) scale(.1 -.1)">
<use xlink:href="#c"/>
<use x="63.623047" xlink:href="#d"/>
<use x="95.410156" xlink:href="#m"/>
<use x="159.033203" xlink:href="#c"/>
</g>
</g>
<g clip-path="url(#a)">
<g transform="translate(517.32 378.49) scale(.1 -.1)">
<use xlink:href="#c"/>
<use x="63.623047" xlink:href="#d"/>
<use x="95.410156" xlink:href="#m"/>
<use x="159.033203" xlink:href="#m"/>
</g>
</g>
<g clip-path="url(#a)">
<g transform="translate(566.22 378.49) scale(.1 -.1)">
<use xlink:href="#c"/>
<use x="63.623047" xlink:href="#d"/>
<use x="95.410156" xlink:href="#m"/>
<use x="159.033203" xlink:href="#af"/>
</g>
</g>
<g clip-path="url(#a)">
<g transform="translate(370.64 378.49) scale(.1 -.1)">
<use xlink:href="#c"/>
<use x="63.623047" xlink:href="#d"/>
<use x="95.410156" xlink:href="#m"/>
<use x="159.033203" xlink:href="#z"/>
</g>
</g>
<g clip-path="url(#a)">
<g transform="translate(419.53 378.49) scale(.1 -.1)">
<use xlink:href="#c"/>
<use x="63.623047" xlink:href="#d"/>
<use x="95.410156" xlink:href="#m"/>
<use x="159.033203" xlink:href="#y"/>
</g>
</g>
<g clip-path="url(#a)">
<g transform="translate(468.43 378.49) scale(.1 -.1)">
<use xlink:href="#c"/>
<use x="63.623047" xlink:href="#d"/>
<use x="95.410156" xlink:href="#m"/>
<use x="159.033203" xlink:href="#x"/>
</g>
</g>
<g clip-path="url(#a)">
<g transform="translate(272.85 378.49) scale(.1 -.1)">
<use xlink:href="#c"/>
<use x="63.623047" xlink:href="#d"/>
<use x="95.410156" xlink:href="#m"/>
<use x="159.033203" xlink:href="#w"/>
</g>
</g>
<g clip-path="url(#a)">
<g transform="translate(810.7 378.49) scale(.1 -.1)">
<use xlink:href="#c"/>
<use x="63.623047" xlink:href="#d"/>
<use x="95.410156" xlink:href="#m"/>
<use x="159.033203" xlink:href="#v"/>
</g>
</g>
<defs>
<clipPath id="a">
<rect width="861.33" height="453.33"/>
</clipPath>
</defs>
</svg>
