<?xml version="1.0" encoding="UTF-8"?>
<!DOCTYPE svg  PUBLIC '-//W3C//DTD SVG 1.1//EN'  'http://www.w3.org/Graphics/SVG/1.1/DTD/svg11.dtd'>
<svg width="1672pt" height="880pt" version="1.1" viewBox="0 0 1672 880" xmlns="http://www.w3.org/2000/svg" xmlns:xlink="http://www.w3.org/1999/xlink">
<metadata>
<rdf:RDF xmlns:cc="http://creativecommons.org/ns#" xmlns:dc="http://purl.org/dc/elements/1.1/" xmlns:rdf="http://www.w3.org/1999/02/22-rdf-syntax-ns#">
<cc:Work>
<dc:type rdf:resource="http://purl.org/dc/dcmitype/StillImage"/>
<dc:date>2021-05-05T07:20:31.321638</dc:date>
<dc:format>image/svg+xml</dc:format>
<dc:creator>
<cc:Agent>
<dc:title>Matplotlib v3.3.3, https://matplotlib.org/</dc:title>
</cc:Agent>
</dc:creator>
</cc:Work>
</rdf:RDF>
</metadata>
<defs>
<style type="text/css">*{stroke-linecap:butt;stroke-linejoin:round;}</style>
</defs>
<path d="m0 880h1672v-880h-1672z" fill="#fff"/>
<g fill="none" stroke="#000">
<path d="m526.92 40-412.01 268.82" clip-path="url(#a)"/>
<path d="m526.92 40-189.03 669.03" clip-path="url(#a)"/>
<path d="m526.92 40-150.51 669.03" clip-path="url(#a)"/>
<path d="m526.92 40 39.343 134.55" clip-path="url(#a)"/>
<path d="m526.92 40 561.34 268.82" clip-path="url(#a)"/>
<path d="m526.92 40-224.97 669.03" clip-path="url(#a)"/>
<path d="m526.92 40 375.84 669.03" clip-path="url(#a)"/>
<path d="m114.91 308.82-38.915 400.21" clip-path="url(#a)"/>
<path d="m114.91 308.82-26.077 400.21" clip-path="url(#a)"/>
<path d="m114.91 308.82-8.1039 400.21" clip-path="url(#a)"/>
<path d="m114.91 308.82 73.095 133.94" clip-path="url(#a)"/>
<path d="m337.89 709.03v130.97" clip-path="url(#a)"/>
<path d="m376.41 709.03v130.97" clip-path="url(#a)"/>
<path d="m566.26 174.55-126.95 401.7" clip-path="url(#a)"/>
<path d="m566.26 174.55-9.2718 401.7" clip-path="url(#a)"/>
<path d="m566.26 174.55 136.22 134.28" clip-path="url(#a)"/>
<path d="m1088.3 308.82-118.75 400.21" clip-path="url(#a)"/>
<path d="m1088.3 308.82-49.426 400.21" clip-path="url(#a)"/>
<path d="m1088.3 308.82 168.18 133.94" clip-path="url(#a)"/>
<path d="m969.51 709.03v130.97" clip-path="url(#a)"/>
<path d="m1038.8 709.03v130.97" clip-path="url(#a)"/>
<path d="m1256.4 442.76-145.71 266.27" clip-path="url(#a)"/>
<path d="m1256.4 442.76-71.25 266.27" clip-path="url(#a)"/>
<path d="m1256.4 442.76 5.777 266.27" clip-path="url(#a)"/>
<path d="m1256.4 442.76 211.18 133.48" clip-path="url(#a)"/>
<path d="m1110.7 709.03v130.97" clip-path="url(#a)"/>
<path d="m1185.2 709.03v130.97" clip-path="url(#a)"/>
<path d="m1262.2 709.03v130.97" clip-path="url(#a)"/>
<path d="m1467.6 576.25-125.81 132.79" clip-path="url(#a)"/>
<path d="m1467.6 576.25-43.649 132.79" clip-path="url(#a)"/>
<path d="m1467.6 576.25 41.081 132.79" clip-path="url(#a)"/>
<path d="m1467.6 576.25 128.38 132.79" clip-path="url(#a)"/>
<path d="m1341.8 709.03v130.97" clip-path="url(#a)"/>
<path d="m1424 709.03v130.97" clip-path="url(#a)"/>
<path d="m1508.7 709.03v130.97" clip-path="url(#a)"/>
<path d="m439.31 576.25-21.824 132.79" clip-path="url(#a)"/>
<path d="m439.31 576.25 21.824 132.79" clip-path="url(#a)"/>
<path d="m556.99 576.25-49.64 132.79" clip-path="url(#a)"/>
<path d="m556.99 576.25-0.85586 132.79" clip-path="url(#a)"/>
<path d="m556.99 576.25 50.495 132.79" clip-path="url(#a)"/>
<path d="m702.49 308.82-41.081 400.21" clip-path="url(#a)"/>
<path d="m702.49 308.82 15.405 400.21" clip-path="url(#a)"/>
<path d="m702.49 308.82 120.68 133.94" clip-path="url(#a)"/>
<path d="m702.49 308.82-95 400.21" clip-path="url(#a)" stroke-dasharray="3.7,1.6"/>
<path d="m661.41 709.03v130.97" clip-path="url(#a)"/>
<path d="m717.89 709.03v130.97" clip-path="url(#a)"/>
<path d="m823.16 442.76-15.405 133.48" clip-path="url(#a)"/>
<path d="m823.16 442.76 15.405 266.27" clip-path="url(#a)"/>
<path d="m807.76 576.25 30.811 132.79" clip-path="url(#a)" stroke-dasharray="3.7,1.6"/>
<path d="m807.76 576.25-30.811 132.79" clip-path="url(#a)"/>
<path d="m838.57 709.03v130.97" clip-path="url(#a)"/>
<path d="m776.95 709.03v130.97" clip-path="url(#a)"/>
<path d="m507.35 709.03v130.97" clip-path="url(#a)"/>
<path d="m556.14 709.03v130.97" clip-path="url(#a)"/>
<path d="m607.49 709.03v130.97" clip-path="url(#a)"/>
<path d="m417.49 709.03v130.97" clip-path="url(#a)"/>
<path d="m461.14 709.03v130.97" clip-path="url(#a)"/>
<path d="m76 709.03v130.97" clip-path="url(#a)"/>
<path d="m88.838 709.03-5.1351 130.97" clip-path="url(#a)"/>
<path d="m88.838 709.03 5.1351 130.97" clip-path="url(#a)"/>
<path d="m106.81 709.03v130.97" clip-path="url(#a)"/>
<path d="m188.01 442.76-65.794 266.27" clip-path="url(#a)"/>
<path d="m188.01 442.76-20.861 133.48" clip-path="url(#a)"/>
<path d="m188.01 442.76 21.503 266.27" clip-path="url(#a)"/>
<path d="m188.01 442.76 65.152 266.27" clip-path="url(#a)"/>
<path d="m122.22 709.03v130.97" clip-path="url(#a)"/>
<path d="m167.15 576.25-16.689 132.79" clip-path="url(#a)"/>
<path d="m167.15 576.25 16.689 132.79" clip-path="url(#a)"/>
<path d="m209.51 709.03v130.97" clip-path="url(#a)"/>
<path d="m253.16 709.03-15.405 130.97" clip-path="url(#a)"/>
<path d="m253.16 709.03 15.405 130.97" clip-path="url(#a)"/>
<path d="m150.46 709.03-10.27 130.97" clip-path="url(#a)"/>
<path d="m150.46 709.03 10.27 130.97" clip-path="url(#a)"/>
<path d="m183.84 709.03v130.97" clip-path="url(#a)"/>
<path d="m301.95 709.03v130.97" clip-path="url(#a)"/>
<path d="m902.76 709.03v130.97" clip-path="url(#a)"/>
<path d="m1596 709.03v130.97" clip-path="url(#a)"/>
</g>
<path d="m321.83 181.31 5.0386-3.2876q2.01-1.3115 0.69851-3.3215l-4.2309-6.4843q-1.3115-2.01-3.3215-0.69851l-5.0386 3.2876q-2.01 1.3115-0.69851 3.3215l4.2309 6.4843q1.3115 2.01 3.3215 0.69851z" clip-path="url(#a)" fill="#fff" stroke="#fff"/>
<g clip-path="url(#a)">
<g transform="translate(319.6 177.9) rotate(-33.124) scale(.08 -.08)">
<defs>
<path id="af" d="m9.8125 72.906h9.8594v-29.891h35.844v29.891h9.8594v-72.906h-9.8594v34.719h-35.844v-34.719h-9.8594z"/>
</defs>
<use xlink:href="#af"/>
</g>
</g>
<path d="m437.84 378.37 1.212-4.2896q0.65255-2.3096-1.657-2.9621l-7.4508-2.1051q-2.3096-0.65255-2.9621 1.657l-1.212 4.2896q-0.65255 2.3096 1.657 2.9621l7.4508 2.1051q2.3096 0.65255 2.9621-1.657z" clip-path="url(#a)" fill="#fff" stroke="#fff"/>
<g clip-path="url(#a)">
<g transform="translate(433.92 377.26) rotate(-74.223) scale(.08 -.08)">
<defs>
<path id="ae" d="m9.8125 72.906h9.8594v-64.609h35.5v-8.2969h-45.359z"/>
</defs>
<use xlink:href="#ae"/>
</g>
</g>
<path d="m457.29 378.07 0.97836-4.3488q0.52677-2.3415-1.8147-2.8682l-7.5537-1.6994q-2.3415-0.52677-2.8682 1.8147l-0.97836 4.3488q-0.52677 2.3415 1.8147 2.8682l7.5537 1.6994q2.3415 0.52677 2.8682-1.8147z" clip-path="url(#a)" fill="#fff" stroke="#fff"/>
<g clip-path="url(#a)">
<g transform="translate(453.33 377.18) rotate(-77.321) scale(.08 -.08)">
<use xlink:href="#ae"/>
</g>
</g>
<path d="m539.73 106.15 1.6885 5.7744q0.67357 2.3035 2.9771 1.63l7.4313-2.173q2.3035-0.67357 1.63-2.9771l-1.6885-5.7744q-0.67357-2.3035-2.9771-1.63l-7.4313 2.173q-2.3035 0.67357-1.63 2.9771z" clip-path="url(#a)" fill="#fff" stroke="#fff"/>
<g clip-path="url(#a)">
<g transform="translate(543.63 105.01) rotate(73.701) scale(.08 -.08)">
<use xlink:href="#af"/>
</g>
</g>
<path d="m802.17 178.77 5.4261 2.5985q2.1646 1.0366 3.2012-1.128l3.3442-6.983q1.0366-2.1646-1.128-3.2012l-5.4261-2.5985q-2.1646-1.0366-3.2012 1.128l-3.3442 6.983q-1.0366 2.1646 1.128 3.2012z" clip-path="url(#a)" fill="#fff" stroke="#fff"/>
<g clip-path="url(#a)">
<g transform="translate(803.93 175.1) rotate(25.59) scale(.08 -.08)">
<use xlink:href="#af"/>
</g>
</g>
<path d="m419.44 379.29 1.8662-5.5496q0.76495-2.2748-1.5099-3.0398l-7.3387-2.4678q-2.2748-0.76495-3.0398 1.5099l-1.8662 5.5496q-0.76495 2.2748 1.5099 3.0398l7.3387 2.4678q2.2748 0.76495 3.0398-1.5099z" clip-path="url(#a)" fill="#fff" stroke="#fff"/>
<g clip-path="url(#a)">
<g transform="translate(415.59 378) rotate(-71.414) scale(.08 -.08)">
<defs>
<path id="ad" d="m8.6875 72.906h9.9219v-44.297q0-11.719 4.2344-16.875 4.25-5.1406 13.781-5.1406 9.4688 0 13.719 5.1406 4.25 5.1562 4.25 16.875v44.297h9.9062v-45.516q0-14.25-7.0625-21.531-7.0469-7.2812-20.812-7.2812-13.828 0-20.891 7.2812-7.0469 7.2812-7.0469 21.531z"/>
</defs>
<use xlink:href="#ad"/>
</g>
</g>
<path d="m707.94 375.04 2.8676 5.1047q1.1754 2.0924 3.2679 0.91699l6.7503-3.7921q2.0924-1.1754 0.91699-3.2679l-2.8676-5.1047q-1.1754-2.0924-3.2679-0.91699l-6.7503 3.7921q-2.0924 1.1754-0.91699 3.2679z" clip-path="url(#a)" fill="#fff" stroke="#fff"/>
<g clip-path="url(#a)">
<g transform="translate(711.48 373.05) rotate(60.674) scale(.08 -.08)">
<use xlink:href="#ad"/>
</g>
</g>
<path d="m101.43 512.26 0.52962-5.4468q0.23227-2.3887-2.1565-2.621l-7.7062-0.74931q-2.3887-0.23227-2.621 2.1565l-0.52962 5.4468q-0.23227 2.3887 2.1565 2.621l7.7062 0.74931q2.3887 0.23227 2.621-2.1565z" clip-path="url(#a)" fill="#fff" stroke="#fff"/>
<g clip-path="url(#a)">
<g transform="translate(97.39 511.87) rotate(-84.446) scale(.08 -.08)">
<defs>
<path id="q" d="m34.188 63.188-13.391-36.281h26.812zm-5.5781 9.7188h11.188l27.781-72.906h-10.25l-6.6406 18.703h-32.859l-6.6406-18.703h-10.406z"/>
</defs>
<use xlink:href="#q"/>
</g>
</g>
<path d="m107.97 511.87 0.33022-5.068q0.15605-2.3949-2.2389-2.551l-7.7261-0.50342q-2.3949-0.15605-2.551 2.2389l-0.33022 5.068q-0.15605 2.3949 2.2389 2.551l7.7261 0.50342q2.3949 0.15605 2.551-2.2389z" clip-path="url(#a)" fill="#fff" stroke="#fff"/>
<g clip-path="url(#a)">
<g transform="translate(103.91 511.61) rotate(-86.272) scale(.08 -.08)">
<defs>
<path id="z" d="m53.516 70.516v-9.625q-5.6094 2.6875-10.594 4-4.9844 1.3281-9.625 1.3281-8.0469 0-12.422-3.125t-4.375-8.8906q0-4.8438 2.9062-7.3125 2.9062-2.4531 11.016-3.9688l5.9531-1.2188q11.031-2.1094 16.281-7.4062t5.25-14.172q0-10.609-7.1094-16.078-7.0938-5.4688-20.812-5.4688-5.1719 0-11.016 1.1719-5.8281 1.1719-12.078 3.4688v10.156q6-3.3594 11.766-5.0781 5.7656-1.7031 11.328-1.7031 8.4375 0 13.031 3.3125 4.5938 3.3281 4.5938 9.4844 0 5.3594-3.2969 8.3906t-10.812 4.5469l-6.0156 1.1719q-11.031 2.1875-15.969 6.875-4.9219 4.6875-4.9219 13.047 0 9.6719 6.8125 15.234t18.766 5.5625q5.1406 0 10.453-0.9375 5.3281-0.92188 10.891-2.7656z"/>
</defs>
<use xlink:href="#z"/>
</g>
</g>
<path d="m117.08 511.5 0.098922-4.8852q0.048588-2.3995-2.3509-2.4481l-7.7409-0.15675q-2.3995-0.048588-2.4481 2.3509l-0.098922 4.8852q-0.048588 2.3995 2.3509 2.4481l7.7409 0.15675q2.3995 0.048588 2.4481-2.3509z" clip-path="url(#a)" fill="#fff" stroke="#fff"/>
<g clip-path="url(#a)">
<g transform="translate(113.02 511.42) rotate(-88.84) scale(.08 -.08)">
<defs>
<path id="l" d="m-0.29688 72.906h61.672v-8.3125h-25.875v-64.594h-9.9062v64.594h-25.891z"/>
</defs>
<use xlink:href="#l"/>
</g>
</g>
<path d="m144.65 376.4 2.6216 4.8037q1.1497 2.1067 3.2564 0.95699l6.7963-3.709q2.1067-1.1497 0.95699-3.2564l-2.6216-4.8037q-1.1497-2.1067-3.2564-0.95699l-6.7963 3.709q-2.1067 1.1497-0.95699 3.2564z" clip-path="url(#a)" fill="#fff" stroke="#fff"/>
<g clip-path="url(#a)">
<g transform="translate(148.21 374.45) rotate(61.377) scale(.08 -.08)">
<use xlink:href="#q"/>
</g>
</g>
<path d="m331.62 757.61v33.808q0 2.4 2.4 2.4h7.7425q2.4 0 2.4-2.4v-33.808q0-2.4-2.4-2.4h-7.7425q-2.4 0-2.4 2.4z" clip-path="url(#a)" fill="#fff" stroke="#fff"/>
<g clip-path="url(#a)">
<g transform="translate(335.68 757.61) rotate(90) scale(.08 -.08)">
<defs>
<path id="d" d="m56.203 29.594v-4.3906h-41.312q0.59375-9.2812 5.5938-14.141t13.938-4.8594q5.1719 0 10.031 1.2656t9.6562 3.8125v-8.5q-4.8438-2.0469-9.9219-3.125t-10.297-1.0781q-13.094 0-20.734 7.6094-7.6406 7.625-7.6406 20.625 0 13.422 7.25 21.297 7.25 7.8906 19.562 7.8906 11.031 0 17.453-7.1094 6.4219-7.0938 6.4219-19.297zm-8.9844 2.6406q-0.09375 7.3594-4.125 11.75-4.0312 4.4062-10.672 4.4062-7.5156 0-12.031-4.25t-5.2031-11.969z"/>
<path id="h" d="m41.109 46.297q-1.5156 0.875-3.2969 1.2812-1.7812 0.42188-3.9219 0.42188-7.625 0-11.703-4.9531t-4.0781-14.234v-28.812h-9.0312v54.688h9.0312v-8.5q2.8438 4.9844 7.375 7.3906 4.5469 2.4219 11.047 2.4219 0.92188 0 2.0469-0.125 1.125-0.10938 2.4844-0.35938z"/>
<path id="k" d="m52 44.188q3.375 6.0625 8.0625 8.9375t11.031 2.875q8.5469 0 13.188-5.9844 4.6406-5.9688 4.6406-17v-33.016h-9.0312v32.719q0 7.8594-2.7969 11.656-2.7812 3.8125-8.4844 3.8125-6.9844 0-11.047-4.6406-4.0469-4.625-4.0469-12.641v-30.906h-9.0312v32.719q0 7.9062-2.7812 11.688t-8.5938 3.7812q-6.8906 0-10.953-4.6562-4.0469-4.6562-4.0469-12.625v-30.906h-9.0312v54.688h9.0312v-8.5q3.0781 5.0312 7.375 7.4219t10.203 2.3906q5.9688 0 10.141-3.0312 4.1719-3.0156 6.1719-8.7812z"/>
<path id="f" d="m9.4219 54.688h8.9844v-54.688h-8.9844zm0 21.297h8.9844v-11.391h-8.9844z"/>
<path id="j" d="m54.891 33.016v-33.016h-8.9844v32.719q0 7.7656-3.0312 11.609-3.0312 3.8594-9.0781 3.8594-7.2812 0-11.484-4.6406-4.2031-4.625-4.2031-12.641v-30.906h-9.0312v54.688h9.0312v-8.5q3.2344 4.9375 7.5938 7.375 4.375 2.4375 10.094 2.4375 9.4219 0 14.25-5.8281 4.8438-5.8281 4.8438-17.156z"/>
<path id="e" d="m34.281 27.484q-10.891 0-15.094-2.4844t-4.2031-8.5q0-4.7812 3.1562-7.5938 3.1562-2.7969 8.5625-2.7969 7.4844 0 12 5.2969t4.5156 14.078v2zm17.922 3.7188v-31.203h-8.9844v8.2969q-3.0781-4.9688-7.6719-7.3438t-11.234-2.375q-8.3906 0-13.359 4.7188-4.9531 4.7188-4.9531 12.625 0 9.2188 6.1719 13.906 6.1875 4.6875 18.438 4.6875h12.609v0.89062q0 6.2031-4.0781 9.5938t-11.453 3.3906q-4.6875 0-9.1406-1.125-4.4375-1.125-8.5312-3.375v8.3125q4.9219 1.9062 9.5625 2.8438 4.6406 0.95312 9.0312 0.95312 11.875 0 17.734-6.1562 5.8594-6.1406 5.8594-18.641z"/>
<path id="i" d="m9.4219 75.984h8.9844v-75.984h-8.9844z"/>
</defs>
<use xlink:href="#l"/>
<use x="44.083984" xlink:href="#d"/>
<use x="105.607422" xlink:href="#h"/>
<use x="144.970703" xlink:href="#k"/>
<use x="242.382812" xlink:href="#f"/>
<use x="270.166016" xlink:href="#j"/>
<use x="333.544922" xlink:href="#e"/>
<use x="394.824219" xlink:href="#i"/>
</g>
</g>
<path d="m370.13 757.61v33.808q0 2.4 2.4 2.4h7.7425q2.4 0 2.4-2.4v-33.808q0-2.4-2.4-2.4h-7.7425q-2.4 0-2.4 2.4z" clip-path="url(#a)" fill="#fff" stroke="#fff"/>
<g clip-path="url(#a)">
<g transform="translate(374.2 757.61) rotate(90) scale(.08 -.08)">
<use xlink:href="#l"/>
<use x="44.083984" xlink:href="#d"/>
<use x="105.607422" xlink:href="#h"/>
<use x="144.970703" xlink:href="#k"/>
<use x="242.382812" xlink:href="#f"/>
<use x="270.166016" xlink:href="#j"/>
<use x="333.544922" xlink:href="#e"/>
<use x="394.824219" xlink:href="#i"/>
</g>
</g>
<path d="m508.03 379.62 1.4725-4.6591q0.72323-2.2884-1.5652-3.0117l-7.3826-2.3332q-2.2884-0.72323-3.0117 1.5652l-1.4725 4.6591q-0.72323 2.2884 1.5652 3.0117l7.3826 2.3332q2.2884 0.72323 3.0117-1.5652z" clip-path="url(#a)" fill="#fff" stroke="#fff"/>
<g clip-path="url(#a)">
<g transform="translate(504.16 378.39) rotate(-72.462) scale(.08 -.08)">
<use xlink:href="#l"/>
</g>
</g>
<path d="m567.84 378.08 0.11719-5.0774q0.05538-2.3994-2.344-2.4547l-7.7404-0.17866q-2.3994-0.055381-2.4547 2.344l-0.11719 5.0774q-0.055381 2.3994 2.344 2.4547l7.7404 0.17866q2.3994 0.055381 2.4547-2.344z" clip-path="url(#a)" fill="#fff" stroke="#fff"/>
<g clip-path="url(#a)">
<g transform="translate(563.78 377.99) rotate(-88.678) scale(.08 -.08)">
<use xlink:href="#z"/>
</g>
</g>
<path d="m628.02 244.23 3.8974 3.8417q1.7092 1.6848 3.394-0.024426l5.4352-5.514q1.6848-1.7092-0.024425-3.394l-3.8974-3.8417q-1.7092-1.6848-3.394 0.024425l-5.4352 5.514q-1.6848 1.7092 0.024425 3.394z" clip-path="url(#a)" fill="#fff" stroke="#fff"/>
<g clip-path="url(#a)">
<g transform="translate(630.88 241.34) rotate(44.588) scale(.08 -.08)">
<use xlink:href="#q"/>
</g>
</g>
<path d="m1034.1 513.34 1.5567-5.2464q0.68271-2.3009-1.6181-2.9836l-7.4226-2.2024q-2.3008-0.68271-2.9836 1.6181l-1.5567 5.2464q-0.68271 2.3009 1.6181 2.9836l7.4226 2.2024q2.3008 0.68271 2.9836-1.6181z" clip-path="url(#a)" fill="#fff" stroke="#fff"/>
<g clip-path="url(#a)">
<g transform="translate(1030.2 512.18) rotate(-73.473) scale(.08 -.08)">
<use xlink:href="#q"/>
</g>
</g>
<path d="m1069.5 512.09 0.59124-4.7874q0.29416-2.3819-2.0877-2.6761l-7.6841-0.94898q-2.3819-0.29416-2.6761 2.0877l-0.59124 4.7874q-0.29416 2.3819 2.0877 2.6761l7.6841 0.94898q2.3819 0.29416 2.6761-2.0877z" clip-path="url(#a)" fill="#fff" stroke="#fff"/>
<g clip-path="url(#a)">
<g transform="translate(1065.4 511.59) rotate(-82.96) scale(.08 -.08)">
<defs>
<path id="am" d="m19.672 64.797v-27.391h12.406q6.8906 0 10.641 3.5625 3.7656 3.5625 3.7656 10.156 0 6.5469-3.7656 10.109-3.75 3.5625-10.641 3.5625zm-9.8594 8.1094h22.266q12.266 0 18.531-5.5469 6.2812-5.5469 6.2812-16.234 0-10.797-6.2812-16.312-6.2656-5.5156-18.531-5.5156h-12.406v-29.297h-9.8594z"/>
</defs>
<use xlink:href="#am"/>
</g>
</g>
<path d="m1166.3 378.99 4.2808 3.4093q1.8774 1.4952 3.3725-0.3822l4.8235-6.0564q1.4952-1.8774-0.3822-3.3725l-4.2808-3.4093q-1.8774-1.4952-3.3725 0.3822l-4.8235 6.0564q-1.4952 1.8774 0.3822 3.3725z" clip-path="url(#a)" fill="#fff" stroke="#fff"/>
<g clip-path="url(#a)">
<g transform="translate(1168.8 375.82) rotate(38.534) scale(.08 -.08)">
<use xlink:href="#q"/>
</g>
</g>
<path d="m963.24 757.61v33.808q0 2.4 2.4 2.4h7.7425q2.4 0 2.4-2.4v-33.808q0-2.4-2.4-2.4h-7.7425q-2.4 0-2.4 2.4z" clip-path="url(#a)" fill="#fff" stroke="#fff"/>
<g clip-path="url(#a)">
<g transform="translate(967.31 757.61) rotate(90) scale(.08 -.08)">
<use xlink:href="#l"/>
<use x="44.083984" xlink:href="#d"/>
<use x="105.607422" xlink:href="#h"/>
<use x="144.970703" xlink:href="#k"/>
<use x="242.382812" xlink:href="#f"/>
<use x="270.166016" xlink:href="#j"/>
<use x="333.544922" xlink:href="#e"/>
<use x="394.824219" xlink:href="#i"/>
</g>
</g>
<path d="m1032.6 757.61v33.808q0 2.4 2.4 2.4h7.7425q2.4 0 2.4-2.4v-33.808q0-2.4-2.4-2.4h-7.7425q-2.4 0-2.4 2.4z" clip-path="url(#a)" fill="#fff" stroke="#fff"/>
<g clip-path="url(#a)">
<g transform="translate(1036.6 757.61) rotate(90) scale(.08 -.08)">
<use xlink:href="#l"/>
<use x="44.083984" xlink:href="#d"/>
<use x="105.607422" xlink:href="#h"/>
<use x="144.970703" xlink:href="#k"/>
<use x="242.382812" xlink:href="#f"/>
<use x="270.166016" xlink:href="#j"/>
<use x="333.544922" xlink:href="#e"/>
<use x="394.824219" xlink:href="#i"/>
</g>
</g>
<path d="m1187.8 581.35 2.6685-4.8764q1.1521-2.1054-0.95327-3.2575l-6.7921-3.7168q-2.1054-1.1521-3.2575 0.95327l-2.6685 4.8764q-1.1521 2.1054 0.95327 3.2575l6.7921 3.7168q2.1054 1.1521 3.2575-0.95327z" clip-path="url(#a)" fill="#fff" stroke="#fff"/>
<g clip-path="url(#a)">
<g transform="translate(1184.2 579.4) rotate(-61.312) scale(.08 -.08)">
<defs>
<path id="v" d="m44.391 34.188q3.1719-1.0781 6.1719-4.5938t6.0312-9.6719l10.016-19.922h-10.609l-9.3125 18.703q-3.625 7.3281-7.0156 9.7188t-9.25 2.3906h-10.75v-30.812h-9.8594v72.906h22.266q12.5 0 18.656-5.2344 6.1562-5.2188 6.1562-15.766 0-6.8906-3.2031-11.438-3.2031-4.5312-9.2969-6.2812zm-24.719 30.609v-25.875h12.406q7.125 0 10.766 3.2969t3.6406 9.6875-3.6406 9.6406-10.766 3.25z"/>
</defs>
<use xlink:href="#v"/>
</g>
</g>
<path d="m1226.3 579.74 1.1894-4.4449q0.62038-2.3184-1.6981-2.9388l-7.4794-2.0014q-2.3184-0.62038-2.9388 1.6981l-1.1894 4.4449q-0.62038 2.3184 1.6981 2.9388l7.4794 2.0014q2.3184 0.62038 2.9388-1.6981z" clip-path="url(#a)" fill="#fff" stroke="#fff"/>
<g clip-path="url(#a)">
<g transform="translate(1222.4 578.69) rotate(-75.02) scale(.08 -.08)">
<defs>
<path id="ag" d="m9.8125 72.906h41.891v-8.3125h-32.031v-21.484h28.906v-8.2969h-28.906v-34.812h-9.8594z"/>
</defs>
<use xlink:href="#ag"/>
</g>
</g>
<path d="m1253 573.24 0.12117 5.5849q0.052058 2.3994 2.4515 2.3474l7.7407-0.16794q2.3994-0.052058 2.3474-2.4515l-0.12117-5.5849q-0.052058-2.3994-2.4515-2.3474l-7.7407 0.16794q-2.3994 0.052058-2.3474 2.4515z" clip-path="url(#a)" fill="#fff" stroke="#fff"/>
<g clip-path="url(#a)">
<g transform="translate(1257.1 573.15) rotate(88.757) scale(.08 -.08)">
<defs>
<path id="s" d="m64.406 67.281v-10.391q-4.9844 4.6406-10.625 6.9219-5.6406 2.2969-11.984 2.2969-12.5 0-19.141-7.6406t-6.6406-22.094q0-14.406 6.6406-22.047t19.141-7.6406q6.3438 0 11.984 2.2969t10.625 6.9375v-10.312q-5.1719-3.5156-10.969-5.2812-5.7812-1.75-12.219-1.75-16.562 0-26.094 10.125-9.5156 10.141-9.5156 27.672 0 17.578 9.5156 27.703 9.5312 10.141 26.094 10.141 6.5312 0 12.312-1.7344 5.7969-1.7344 10.875-5.2031z"/>
</defs>
<use xlink:href="#s"/>
</g>
</g>
<path d="m1356.5 513.46 4.273 2.7009q2.0287 1.2823 3.311-0.74641l4.1368-6.5447q1.2823-2.0287-0.74641-3.311l-4.273-2.7009q-2.0287-1.2823-3.311 0.74641l-4.1368 6.5447q-1.2823 2.0287 0.74641 3.311z" clip-path="url(#a)" fill="#fff" stroke="#fff"/>
<g clip-path="url(#a)">
<g transform="translate(1358.7 510.02) rotate(32.296) scale(.08 -.08)">
<defs>
<path id="an" d="m9.8125 72.906h46.094v-8.3125h-36.234v-21.578h34.719v-8.2969h-34.719v-26.422h37.109v-8.2969h-46.969z"/>
</defs>
<use xlink:href="#an"/>
</g>
</g>
<path d="m1104.5 757.61v33.808q0 2.4 2.4 2.4h7.7425q2.4 0 2.4-2.4v-33.808q0-2.4-2.4-2.4h-7.7425q-2.4 0-2.4 2.4z" clip-path="url(#a)" fill="#fff" stroke="#fff"/>
<g clip-path="url(#a)">
<g transform="translate(1108.5 757.61) rotate(90) scale(.08 -.08)">
<use xlink:href="#l"/>
<use x="44.083984" xlink:href="#d"/>
<use x="105.607422" xlink:href="#h"/>
<use x="144.970703" xlink:href="#k"/>
<use x="242.382812" xlink:href="#f"/>
<use x="270.166016" xlink:href="#j"/>
<use x="333.544922" xlink:href="#e"/>
<use x="394.824219" xlink:href="#i"/>
</g>
</g>
<path d="m1178.9 757.61v33.808q0 2.4 2.4 2.4h7.7425q2.4 0 2.4-2.4v-33.808q0-2.4-2.4-2.4h-7.7425q-2.4 0-2.4 2.4z" clip-path="url(#a)" fill="#fff" stroke="#fff"/>
<g clip-path="url(#a)">
<g transform="translate(1183 757.61) rotate(90) scale(.08 -.08)">
<use xlink:href="#l"/>
<use x="44.083984" xlink:href="#d"/>
<use x="105.607422" xlink:href="#h"/>
<use x="144.970703" xlink:href="#k"/>
<use x="242.382812" xlink:href="#f"/>
<use x="270.166016" xlink:href="#j"/>
<use x="333.544922" xlink:href="#e"/>
<use x="394.824219" xlink:href="#i"/>
</g>
</g>
<path d="m1255.9 757.61v33.808q0 2.4 2.4 2.4h7.7425q2.4 0 2.4-2.4v-33.808q0-2.4-2.4-2.4h-7.7425q-2.4 0-2.4 2.4z" clip-path="url(#a)" fill="#fff" stroke="#fff"/>
<g clip-path="url(#a)">
<g transform="translate(1260 757.61) rotate(90) scale(.08 -.08)">
<use xlink:href="#l"/>
<use x="44.083984" xlink:href="#d"/>
<use x="105.607422" xlink:href="#h"/>
<use x="144.970703" xlink:href="#k"/>
<use x="242.382812" xlink:href="#f"/>
<use x="270.166016" xlink:href="#j"/>
<use x="333.544922" xlink:href="#e"/>
<use x="394.824219" xlink:href="#i"/>
</g>
</g>
<path d="m1407.4 648.97 3.8232-4.0352q1.6507-1.7422-0.091536-3.3929l-5.6204-5.3251q-1.7422-1.6507-3.3929 0.091535l-3.8232 4.0352q-1.6507 1.7422 0.091536 3.3929l5.6204 5.3251q1.7422 1.6507 3.3929-0.091535z" clip-path="url(#a)" fill="#fff" stroke="#fff"/>
<g clip-path="url(#a)">
<g transform="translate(1404.4 646.18) rotate(-46.545) scale(.08 -.08)">
<use xlink:href="#v"/>
</g>
</g>
<path d="m1451 646.78 1.4368-4.3712q0.74945-2.28-1.5305-3.0294l-7.3553-2.4178q-2.28-0.74945-3.0294 1.5305l-1.4368 4.3712q-0.74945 2.28 1.5305 3.0294l7.3553 2.4178q2.28 0.74945 3.0294-1.5305z" clip-path="url(#a)" fill="#fff" stroke="#fff"/>
<g clip-path="url(#a)">
<g transform="translate(1447.2 645.52) rotate(-71.804) scale(.08 -.08)">
<use xlink:href="#ag"/>
</g>
</g>
<path d="m1481.3 641.83 1.651 5.3367q0.70933 2.2928 3.0021 1.5835l7.3966-2.2883q2.2928-0.70933 1.5835-3.0021l-1.651-5.3367q-0.70933-2.2928-3.0021-1.5835l-7.3966 2.2883q-2.2928 0.70933-1.5835 3.0021z" clip-path="url(#a)" fill="#fff" stroke="#fff"/>
<g clip-path="url(#a)">
<g transform="translate(1485.2 640.62) rotate(72.809) scale(.08 -.08)">
<use xlink:href="#s"/>
</g>
</g>
<path d="m1525.3 644.89 4.0696 4.2094q1.6682 1.7255 3.3936 0.057292l5.5664-5.3816q1.7255-1.6682 0.057292-3.3936l-4.0696-4.2094q-1.6682-1.7255-3.3936-0.057292l-5.5664 5.3816q-1.7255 1.6682-0.057293 3.3936z" clip-path="url(#a)" fill="#fff" stroke="#fff"/>
<g clip-path="url(#a)">
<g transform="translate(1528.2 642.07) rotate(45.967) scale(.08 -.08)">
<use xlink:href="#ad"/>
</g>
</g>
<path d="m1335.5 757.61v33.808q0 2.4 2.4 2.4h7.7425q2.4 0 2.4-2.4v-33.808q0-2.4-2.4-2.4h-7.7425q-2.4 0-2.4 2.4z" clip-path="url(#a)" fill="#fff" stroke="#fff"/>
<g clip-path="url(#a)">
<g transform="translate(1339.6 757.61) rotate(90) scale(.08 -.08)">
<use xlink:href="#l"/>
<use x="44.083984" xlink:href="#d"/>
<use x="105.607422" xlink:href="#h"/>
<use x="144.970703" xlink:href="#k"/>
<use x="242.382812" xlink:href="#f"/>
<use x="270.166016" xlink:href="#j"/>
<use x="333.544922" xlink:href="#e"/>
<use x="394.824219" xlink:href="#i"/>
</g>
</g>
<path d="m1417.7 757.61v33.808q0 2.4 2.4 2.4h7.7425q2.4 0 2.4-2.4v-33.808q0-2.4-2.4-2.4h-7.7425q-2.4 0-2.4 2.4z" clip-path="url(#a)" fill="#fff" stroke="#fff"/>
<g clip-path="url(#a)">
<g transform="translate(1421.8 757.61) rotate(90) scale(.08 -.08)">
<use xlink:href="#l"/>
<use x="44.083984" xlink:href="#d"/>
<use x="105.607422" xlink:href="#h"/>
<use x="144.970703" xlink:href="#k"/>
<use x="242.382812" xlink:href="#f"/>
<use x="270.166016" xlink:href="#j"/>
<use x="333.544922" xlink:href="#e"/>
<use x="394.824219" xlink:href="#i"/>
</g>
</g>
<path d="m1502.4 757.61v33.808q0 2.4 2.4 2.4h7.7425q2.4 0 2.4-2.4v-33.808q0-2.4-2.4-2.4h-7.7425q-2.4 0-2.4 2.4z" clip-path="url(#a)" fill="#fff" stroke="#fff"/>
<g clip-path="url(#a)">
<g transform="translate(1506.5 757.61) rotate(90) scale(.08 -.08)">
<use xlink:href="#l"/>
<use x="44.083984" xlink:href="#d"/>
<use x="105.607422" xlink:href="#h"/>
<use x="144.970703" xlink:href="#k"/>
<use x="242.382812" xlink:href="#f"/>
<use x="270.166016" xlink:href="#j"/>
<use x="333.544922" xlink:href="#e"/>
<use x="394.824219" xlink:href="#i"/>
</g>
</g>
<path d="m434.08 646.76 1.0213-6.2141q0.38923-2.3682-1.979-2.7575l-7.64-1.2557q-2.3682-0.38923-2.7575 1.979l-1.0213 6.2141q-0.38923 2.3682 1.979 2.7575l7.64 1.2557q2.3682 0.38923 2.7575-1.979z" clip-path="url(#a)" fill="#fff" stroke="#fff"/>
<g clip-path="url(#a)">
<g transform="translate(430.07 646.11) rotate(-80.667) scale(.08 -.08)">
<defs>
<path id="al" d="m39.406 66.219q-10.75 0-17.078-8.0156-6.3125-8-6.3125-21.828 0-13.766 6.3125-21.781 6.3281-8 17.078-8 10.734 0 17.016 8 6.2812 8.0156 6.2812 21.781 0 13.828-6.2812 21.828-6.2812 8.0156-17.016 8.0156zm13.812-64.906 13-14.203h-11.922l-10.797 11.672q-1.6094-0.09375-2.4688-0.14062-0.84375-0.0625-1.625-0.0625-15.375 0-24.594 10.281-9.2031 10.281-9.2031 27.516 0 17.281 9.2031 27.562 9.2188 10.281 24.594 10.281 15.328 0 24.5-10.281 9.1875-10.281 9.1875-27.562 0-12.688-5.1094-21.734-5.0938-9.0312-14.766-13.328z"/>
</defs>
<use xlink:href="#al"/>
</g>
</g>
<path d="m443.58 640.9 0.90598 5.5123q0.38923 2.3682 2.7575 1.979l7.64-1.2557q2.3682-0.38923 1.979-2.7575l-0.90598-5.5123q-0.38923-2.3682-2.7575-1.979l-7.64 1.2557q-2.3682 0.38923-1.979 2.7575z" clip-path="url(#a)" fill="#fff" stroke="#fff"/>
<g clip-path="url(#a)">
<g transform="translate(447.59 640.24) rotate(80.667) scale(.08 -.08)">
<use xlink:href="#s"/>
</g>
</g>
<path d="m537.07 647.44 1.9465-5.2068q0.84038-2.2481-1.4077-3.0884l-7.2523-2.7111q-2.2481-0.84039-3.0884 1.4077l-1.9465 5.2068q-0.84038 2.2481 1.4077 3.0884l7.2523 2.7111q2.2481 0.84039 3.0884-1.4077z" clip-path="url(#a)" fill="#fff" stroke="#fff"/>
<g clip-path="url(#a)">
<g transform="translate(533.27 646.02) rotate(-69.503) scale(.08 -.08)">
<use xlink:href="#v"/>
</g>
</g>
<path d="m562.82 644.98 0.029656-4.6012q0.015468-2.4-2.3845-2.4154l-7.7423-0.049902q-2.4-0.015469-2.4154 2.3845l-0.029656 4.6012q-0.015468 2.4 2.3845 2.4154l7.7423 0.049901q2.4 0.015469 2.4154-2.3845z" clip-path="url(#a)" fill="#fff" stroke="#fff"/>
<g clip-path="url(#a)">
<g transform="translate(558.76 644.96) rotate(-89.631) scale(.08 -.08)">
<use xlink:href="#ag"/>
</g>
</g>
<path d="m575.38 642.26 1.9856 5.2215q0.85306 2.2433 3.0963 1.3902l7.2369-2.752q2.2433-0.85306 1.3902-3.0963l-1.9856-5.2215q-0.85306-2.2433-3.0963-1.3902l-7.2369 2.752q-2.2433 0.85306-1.3902 3.0963z" clip-path="url(#a)" fill="#fff" stroke="#fff"/>
<g clip-path="url(#a)">
<g transform="translate(579.18 640.81) rotate(69.18) scale(.08 -.08)">
<use xlink:href="#s"/>
</g>
</g>
<path d="m687.9 512.33 0.56762-5.5297q0.24507-2.3875-2.1424-2.6325l-7.702-0.7906q-2.3875-0.24507-2.6325 2.1424l-0.56762 5.5297q-0.24507 2.3875 2.1424 2.6325l7.702 0.7906q2.3875 0.24507 2.6325-2.1424z" clip-path="url(#a)" fill="#fff" stroke="#fff"/>
<g clip-path="url(#a)">
<g transform="translate(683.86 511.92) rotate(-84.139) scale(.08 -.08)">
<use xlink:href="#v"/>
</g>
</g>
<path d="m703.83 506.76 0.18554 4.8202q0.092315 2.3982 2.4905 2.3059l7.7368-0.29782q2.3982-0.092315 2.3059-2.4905l-0.18554-4.8202q-0.092316-2.3982-2.4905-2.3059l-7.7368 0.29782q-2.3982 0.092315-2.3059 2.4905z" clip-path="url(#a)" fill="#fff" stroke="#fff"/>
<g clip-path="url(#a)">
<g transform="translate(707.89 506.6) rotate(87.796) scale(.08 -.08)">
<use xlink:href="#am"/>
</g>
</g>
<path d="m756.33 377.96 3.6631 4.0657q1.6065 1.783 3.3895 0.17656l5.7522-5.1826q1.783-1.6065 0.17656-3.3895l-3.6631-4.0657q-1.6065-1.783-3.3895-0.17656l-5.7522 5.1826q-1.783 1.6065-0.17656 3.3895z" clip-path="url(#a)" fill="#fff" stroke="#fff"/>
<g clip-path="url(#a)">
<g transform="translate(759.35 375.24) rotate(47.982) scale(.08 -.08)">
<use xlink:href="#q"/>
</g>
</g>
<path d="m660.46 513.04 1.2639-5.3245q0.5543-2.3351-1.7808-2.8894l-7.5332-1.7882q-2.3351-0.5543-2.8894 1.7808l-1.2639 5.3245q-0.5543 2.3351 1.7808 2.8894l7.5332 1.7882q2.3351 0.5543 2.8894-1.7808z" clip-path="url(#a)" fill="#fff" stroke="#fff"/>
<g clip-path="url(#a)">
<g transform="translate(656.5 512.1) rotate(-76.647) scale(.08 -.08)">
<use xlink:href="#q"/>
</g>
</g>
<path d="m655.13 757.61v33.808q0 2.4 2.4 2.4h7.7425q2.4 0 2.4-2.4v-33.808q0-2.4-2.4-2.4h-7.7425q-2.4 0-2.4 2.4z" clip-path="url(#a)" fill="#fff" stroke="#fff"/>
<g clip-path="url(#a)">
<g transform="translate(659.2 757.61) rotate(90) scale(.08 -.08)">
<use xlink:href="#l"/>
<use x="44.083984" xlink:href="#d"/>
<use x="105.607422" xlink:href="#h"/>
<use x="144.970703" xlink:href="#k"/>
<use x="242.382812" xlink:href="#f"/>
<use x="270.166016" xlink:href="#j"/>
<use x="333.544922" xlink:href="#e"/>
<use x="394.824219" xlink:href="#i"/>
</g>
</g>
<path d="m711.62 757.61v33.808q0 2.4 2.4 2.4h7.7425q2.4 0 2.4-2.4v-33.808q0-2.4-2.4-2.4h-7.7425q-2.4 0-2.4 2.4z" clip-path="url(#a)" fill="#fff" stroke="#fff"/>
<g clip-path="url(#a)">
<g transform="translate(715.68 757.61) rotate(90) scale(.08 -.08)">
<use xlink:href="#l"/>
<use x="44.083984" xlink:href="#d"/>
<use x="105.607422" xlink:href="#h"/>
<use x="144.970703" xlink:href="#k"/>
<use x="242.382812" xlink:href="#f"/>
<use x="270.166016" xlink:href="#j"/>
<use x="333.544922" xlink:href="#e"/>
<use x="394.824219" xlink:href="#i"/>
</g>
</g>
<path d="m821.4 512.73 0.57955-5.0217q0.27516-2.3842-2.109-2.6593l-7.6914-0.88767q-2.3842-0.27516-2.6593 2.109l-0.57955 5.0217q-0.27516 2.3842 2.109 2.6593l7.6914 0.88767q2.3842 0.27516 2.6593-2.109z" clip-path="url(#a)" fill="#fff" stroke="#fff"/>
<g clip-path="url(#a)">
<g transform="translate(817.36 512.27) rotate(-83.417) scale(.08 -.08)">
<use xlink:href="#an"/>
</g>
</g>
<path d="m824.44 573.47 0.32266 5.5769q0.13862 2.396 2.5346 2.2574l7.7296-0.4472q2.396-0.13862 2.2574-2.5346l-0.32266-5.5769q-0.13862-2.396-2.5346-2.2574l-7.7296 0.4472q-2.396 0.13862-2.2574 2.5346z" clip-path="url(#a)" fill="#fff" stroke="#fff"/>
<g clip-path="url(#a)">
<g transform="translate(828.5 573.24) rotate(86.689) scale(.08 -.08)">
<use xlink:href="#s"/>
</g>
</g>
<path d="m816.43 641.39 1.2369 5.3309q0.54246 2.3379 2.8804 1.7954l7.5421-1.75q2.3379-0.54246 1.7954-2.8804l-1.2369-5.3309q-0.54246-2.3379-2.8804-1.7954l-7.5421 1.75q-2.3379 0.54246-1.7954 2.8804z" clip-path="url(#a)" fill="#fff" stroke="#fff"/>
<g clip-path="url(#a)">
<g transform="translate(820.39 640.47) rotate(76.937) scale(.08 -.08)">
<use xlink:href="#q"/>
</g>
</g>
<path d="m797.89 646.53 1.1479-4.9473q0.54246-2.3379-1.7954-2.8804l-7.5421-1.75q-2.3379-0.54246-2.8804 1.7954l-1.1479 4.9473q-0.54246 2.3379 1.7954 2.8804l7.5421 1.75q2.3379 0.54246 2.8804-1.7954z" clip-path="url(#a)" fill="#fff" stroke="#fff"/>
<g clip-path="url(#a)">
<g transform="translate(793.93 645.61) rotate(-76.937) scale(.08 -.08)">
<use xlink:href="#z"/>
</g>
</g>
<path d="m832.3 757.61v33.808q0 2.4 2.4 2.4h7.7425q2.4 0 2.4-2.4v-33.808q0-2.4-2.4-2.4h-7.7425q-2.4 0-2.4 2.4z" clip-path="url(#a)" fill="#fff" stroke="#fff"/>
<g clip-path="url(#a)">
<g transform="translate(836.36 757.61) rotate(90) scale(.08 -.08)">
<use xlink:href="#l"/>
<use x="44.083984" xlink:href="#d"/>
<use x="105.607422" xlink:href="#h"/>
<use x="144.970703" xlink:href="#k"/>
<use x="242.382812" xlink:href="#f"/>
<use x="270.166016" xlink:href="#j"/>
<use x="333.544922" xlink:href="#e"/>
<use x="394.824219" xlink:href="#i"/>
</g>
</g>
<path d="m770.67 757.61v33.808q0 2.4 2.4 2.4h7.7425q2.4 0 2.4-2.4v-33.808q0-2.4-2.4-2.4h-7.7425q-2.4 0-2.4 2.4z" clip-path="url(#a)" fill="#fff" stroke="#fff"/>
<g clip-path="url(#a)">
<g transform="translate(774.74 757.61) rotate(90) scale(.08 -.08)">
<use xlink:href="#l"/>
<use x="44.083984" xlink:href="#d"/>
<use x="105.607422" xlink:href="#h"/>
<use x="144.970703" xlink:href="#k"/>
<use x="242.382812" xlink:href="#f"/>
<use x="270.166016" xlink:href="#j"/>
<use x="333.544922" xlink:href="#e"/>
<use x="394.824219" xlink:href="#i"/>
</g>
</g>
<path d="m501.08 757.61v33.808q0 2.4 2.4 2.4h7.7425q2.4 0 2.4-2.4v-33.808q0-2.4-2.4-2.4h-7.7425q-2.4 0-2.4 2.4z" clip-path="url(#a)" fill="#fff" stroke="#fff"/>
<g clip-path="url(#a)">
<g transform="translate(505.14 757.61) rotate(90) scale(.08 -.08)">
<use xlink:href="#l"/>
<use x="44.083984" xlink:href="#d"/>
<use x="105.607422" xlink:href="#h"/>
<use x="144.970703" xlink:href="#k"/>
<use x="242.382812" xlink:href="#f"/>
<use x="270.166016" xlink:href="#j"/>
<use x="333.544922" xlink:href="#e"/>
<use x="394.824219" xlink:href="#i"/>
</g>
</g>
<path d="m549.86 757.61v33.808q0 2.4 2.4 2.4h7.7425q2.4 0 2.4-2.4v-33.808q0-2.4-2.4-2.4h-7.7425q-2.4 0-2.4 2.4z" clip-path="url(#a)" fill="#fff" stroke="#fff"/>
<g clip-path="url(#a)">
<g transform="translate(553.93 757.61) rotate(90) scale(.08 -.08)">
<use xlink:href="#l"/>
<use x="44.083984" xlink:href="#d"/>
<use x="105.607422" xlink:href="#h"/>
<use x="144.970703" xlink:href="#k"/>
<use x="242.382812" xlink:href="#f"/>
<use x="270.166016" xlink:href="#j"/>
<use x="333.544922" xlink:href="#e"/>
<use x="394.824219" xlink:href="#i"/>
</g>
</g>
<path d="m601.22 757.61v33.808q0 2.4 2.4 2.4h7.7425q2.4 0 2.4-2.4v-33.808q0-2.4-2.4-2.4h-7.7425q-2.4 0-2.4 2.4z" clip-path="url(#a)" fill="#fff" stroke="#fff"/>
<g clip-path="url(#a)">
<g transform="translate(605.28 757.61) rotate(90) scale(.08 -.08)">
<use xlink:href="#l"/>
<use x="44.083984" xlink:href="#d"/>
<use x="105.607422" xlink:href="#h"/>
<use x="144.970703" xlink:href="#k"/>
<use x="242.382812" xlink:href="#f"/>
<use x="270.166016" xlink:href="#j"/>
<use x="333.544922" xlink:href="#e"/>
<use x="394.824219" xlink:href="#i"/>
</g>
</g>
<path d="m411.22 757.61v33.808q0 2.4 2.4 2.4h7.7425q2.4 0 2.4-2.4v-33.808q0-2.4-2.4-2.4h-7.7425q-2.4 0-2.4 2.4z" clip-path="url(#a)" fill="#fff" stroke="#fff"/>
<g clip-path="url(#a)">
<g transform="translate(415.28 757.61) rotate(90) scale(.08 -.08)">
<use xlink:href="#l"/>
<use x="44.083984" xlink:href="#d"/>
<use x="105.607422" xlink:href="#h"/>
<use x="144.970703" xlink:href="#k"/>
<use x="242.382812" xlink:href="#f"/>
<use x="270.166016" xlink:href="#j"/>
<use x="333.544922" xlink:href="#e"/>
<use x="394.824219" xlink:href="#i"/>
</g>
</g>
<path d="m454.86 757.61v33.808q0 2.4 2.4 2.4h7.7425q2.4 0 2.4-2.4v-33.808q0-2.4-2.4-2.4h-7.7425q-2.4 0-2.4 2.4z" clip-path="url(#a)" fill="#fff" stroke="#fff"/>
<g clip-path="url(#a)">
<g transform="translate(458.93 757.61) rotate(90) scale(.08 -.08)">
<use xlink:href="#l"/>
<use x="44.083984" xlink:href="#d"/>
<use x="105.607422" xlink:href="#h"/>
<use x="144.970703" xlink:href="#k"/>
<use x="242.382812" xlink:href="#f"/>
<use x="270.166016" xlink:href="#j"/>
<use x="333.544922" xlink:href="#e"/>
<use x="394.824219" xlink:href="#i"/>
</g>
</g>
<path d="m69.729 757.61v33.808q0 2.4 2.4 2.4h7.7425q2.4 0 2.4-2.4v-33.808q0-2.4-2.4-2.4h-7.7425q-2.4 0-2.4 2.4z" clip-path="url(#a)" fill="#fff" stroke="#fff"/>
<g clip-path="url(#a)">
<g transform="translate(73.792 757.61) rotate(90) scale(.08 -.08)">
<use xlink:href="#l"/>
<use x="44.083984" xlink:href="#d"/>
<use x="105.607422" xlink:href="#h"/>
<use x="144.970703" xlink:href="#k"/>
<use x="242.382812" xlink:href="#f"/>
<use x="270.166016" xlink:href="#j"/>
<use x="333.544922" xlink:href="#e"/>
<use x="394.824219" xlink:href="#i"/>
</g>
</g>
<path d="m91.874 791.65 1.3246-33.782q0.094031-2.3982-2.3041-2.4922l-7.7366-0.30335q-2.3982-0.094031-2.4922 2.3041l-1.3246 33.782q-0.094032 2.3982 2.3041 2.4922l7.7366 0.30335q2.3982 0.094031 2.4922-2.3041z" clip-path="url(#a)" fill="#fff" stroke="#fff"/>
<g clip-path="url(#a)">
<g transform="translate(87.814 791.49) rotate(-87.755) scale(.08 -.08)">
<use xlink:href="#l"/>
<use x="44.083984" xlink:href="#d"/>
<use x="105.607422" xlink:href="#h"/>
<use x="144.970703" xlink:href="#k"/>
<use x="242.382812" xlink:href="#f"/>
<use x="270.166016" xlink:href="#j"/>
<use x="333.544922" xlink:href="#e"/>
<use x="394.824219" xlink:href="#i"/>
</g>
</g>
<path d="m84.477 757.87 1.3246 33.782q0.094032 2.3982 2.4922 2.3041l7.7366-0.30335q2.3982-0.094032 2.3041-2.4922l-1.3246-33.782q-0.094031-2.3982-2.4922-2.3041l-7.7366 0.30335q-2.3982 0.094031-2.3041 2.4922z" clip-path="url(#a)" fill="#fff" stroke="#fff"/>
<g clip-path="url(#a)">
<g transform="translate(88.537 757.71) rotate(87.755) scale(.08 -.08)">
<use xlink:href="#l"/>
<use x="44.083984" xlink:href="#d"/>
<use x="105.607422" xlink:href="#h"/>
<use x="144.970703" xlink:href="#k"/>
<use x="242.382812" xlink:href="#f"/>
<use x="270.166016" xlink:href="#j"/>
<use x="333.544922" xlink:href="#e"/>
<use x="394.824219" xlink:href="#i"/>
</g>
</g>
<path d="m100.54 757.61v33.808q0 2.4 2.4 2.4h7.7425q2.4 0 2.4-2.4v-33.808q0-2.4-2.4-2.4h-7.7425q-2.4 0-2.4 2.4z" clip-path="url(#a)" fill="#fff" stroke="#fff"/>
<g clip-path="url(#a)">
<g transform="translate(104.6 757.61) rotate(90) scale(.08 -.08)">
<use xlink:href="#l"/>
<use x="44.083984" xlink:href="#d"/>
<use x="105.607422" xlink:href="#h"/>
<use x="144.970703" xlink:href="#k"/>
<use x="242.382812" xlink:href="#f"/>
<use x="270.166016" xlink:href="#j"/>
<use x="333.544922" xlink:href="#e"/>
<use x="394.824219" xlink:href="#i"/>
</g>
</g>
<path d="m160.53 580.1 1.3334-5.3964q0.57571-2.3299-1.7542-2.9056l-7.5164-1.8573q-2.3299-0.57571-2.9056 1.7542l-1.3334 5.3964q-0.57571 2.3299 1.7542 2.9056l7.5164 1.8573q2.3299 0.57571 2.9056-1.7542z" clip-path="url(#a)" fill="#fff" stroke="#fff"/>
<g clip-path="url(#a)">
<g transform="translate(156.59 579.13) rotate(-76.121) scale(.08 -.08)">
<use xlink:href="#v"/>
</g>
</g>
<path d="m183.35 513.18 0.84501-5.4069q0.37058-2.3712-2.0006-2.7418l-7.6496-1.1955q-2.3712-0.37058-2.7418 2.0006l-0.84501 5.4069q-0.37058 2.3712 2.0006 2.7418l7.6496 1.1955q2.3712 0.37058 2.7418-2.0006z" clip-path="url(#a)" fill="#fff" stroke="#fff"/>
<g clip-path="url(#a)">
<g transform="translate(179.34 512.55) rotate(-81.117) scale(.08 -.08)">
<use xlink:href="#q"/>
</g>
</g>
<path d="m192.31 573.87 0.40882 5.0623q0.19319 2.3922 2.5854 2.199l7.7174-0.62324q2.3922-0.19319 2.199-2.5854l-0.40882-5.0623q-0.19319-2.3922-2.5854-2.199l-7.7174 0.62324q-2.3922 0.19319-2.199 2.5854z" clip-path="url(#a)" fill="#fff" stroke="#fff"/>
<g clip-path="url(#a)">
<g transform="translate(196.36 573.55) rotate(85.383) scale(.08 -.08)">
<use xlink:href="#z"/>
</g>
</g>
<path d="m213.84 574.73 1.3007 5.3157q0.57041 2.3312 2.9016 1.7608l7.5206-1.8402q2.3312-0.57041 1.7608-2.9016l-1.3007-5.3157q-0.57041-2.3312-2.9016-1.7608l-7.5206 1.8402q-2.3312 0.57041-1.7608 2.9016z" clip-path="url(#a)" fill="#fff" stroke="#fff"/>
<g clip-path="url(#a)">
<g transform="translate(217.79 573.77) rotate(76.251) scale(.08 -.08)">
<use xlink:href="#q"/>
</g>
</g>
<path d="m115.94 757.61v33.808q0 2.4 2.4 2.4h7.7425q2.4 0 2.4-2.4v-33.808q0-2.4-2.4-2.4h-7.7425q-2.4 0-2.4 2.4z" clip-path="url(#a)" fill="#fff" stroke="#fff"/>
<g clip-path="url(#a)">
<g transform="translate(120.01 757.61) rotate(90) scale(.08 -.08)">
<use xlink:href="#l"/>
<use x="44.083984" xlink:href="#d"/>
<use x="105.607422" xlink:href="#h"/>
<use x="144.970703" xlink:href="#k"/>
<use x="242.382812" xlink:href="#f"/>
<use x="270.166016" xlink:href="#j"/>
<use x="333.544922" xlink:href="#e"/>
<use x="394.824219" xlink:href="#i"/>
</g>
</g>
<path d="m164.63 646.55 0.78531-6.2483q0.29928-2.3813-2.082-2.6806l-7.6821-0.96551q-2.3813-0.29928-2.6806 2.082l-0.78531 6.2483q-0.29929 2.3813 2.082 2.6806l7.6821 0.96551q2.3813 0.29928 2.6806-2.082z" clip-path="url(#a)" fill="#fff" stroke="#fff"/>
<g clip-path="url(#a)">
<g transform="translate(160.6 646.04) rotate(-82.836) scale(.08 -.08)">
<use xlink:href="#al"/>
</g>
</g>
<path d="m168.92 640.65 0.69662 5.5426q0.29929 2.3813 2.6806 2.082l7.6821-0.96551q2.3813-0.29928 2.082-2.6806l-0.69662-5.5426q-0.29929-2.3813-2.6806-2.082l-7.6821 0.96551q-2.3813 0.29929-2.082 2.6806z" clip-path="url(#a)" fill="#fff" stroke="#fff"/>
<g clip-path="url(#a)">
<g transform="translate(172.95 640.14) rotate(82.836) scale(.08 -.08)">
<use xlink:href="#s"/>
</g>
</g>
<path d="m203.24 757.61v33.808q0 2.4 2.4 2.4h7.7425q2.4 0 2.4-2.4v-33.808q0-2.4-2.4-2.4h-7.7425q-2.4 0-2.4 2.4z" clip-path="url(#a)" fill="#fff" stroke="#fff"/>
<g clip-path="url(#a)">
<g transform="translate(207.31 757.61) rotate(90) scale(.08 -.08)">
<use xlink:href="#l"/>
<use x="44.083984" xlink:href="#d"/>
<use x="105.607422" xlink:href="#h"/>
<use x="144.970703" xlink:href="#k"/>
<use x="242.382812" xlink:href="#f"/>
<use x="270.166016" xlink:href="#j"/>
<use x="333.544922" xlink:href="#e"/>
<use x="394.824219" xlink:href="#i"/>
</g>
</g>
<path d="m249.71 792.04 3.9495-33.576q0.28038-2.3836-2.1032-2.6639l-7.6895-0.90451q-2.3836-0.28038-2.6639 2.1032l-3.9495 33.576q-0.28038 2.3836 2.1032 2.6639l7.6895 0.90451q2.3836 0.28038 2.6639-2.1032z" clip-path="url(#a)" fill="#fff" stroke="#fff"/>
<g clip-path="url(#a)">
<g transform="translate(245.68 791.56) rotate(-83.291) scale(.08 -.08)">
<use xlink:href="#l"/>
<use x="44.083984" xlink:href="#d"/>
<use x="105.607422" xlink:href="#h"/>
<use x="144.970703" xlink:href="#k"/>
<use x="242.382812" xlink:href="#f"/>
<use x="270.166016" xlink:href="#j"/>
<use x="333.544922" xlink:href="#e"/>
<use x="394.824219" xlink:href="#i"/>
</g>
</g>
<path d="m252.66 758.46 3.9495 33.576q0.28038 2.3836 2.6639 2.1032l7.6895-0.90451q2.3836-0.28038 2.1032-2.6639l-3.9495-33.576q-0.28038-2.3836-2.6639-2.1032l-7.6895 0.90451q-2.3836 0.28038-2.1032 2.6639z" clip-path="url(#a)" fill="#fff" stroke="#fff"/>
<g clip-path="url(#a)">
<g transform="translate(256.7 757.99) rotate(83.291) scale(.08 -.08)">
<use xlink:href="#l"/>
<use x="44.083984" xlink:href="#d"/>
<use x="105.607422" xlink:href="#h"/>
<use x="144.970703" xlink:href="#k"/>
<use x="242.382812" xlink:href="#f"/>
<use x="270.166016" xlink:href="#j"/>
<use x="333.544922" xlink:href="#e"/>
<use x="394.824219" xlink:href="#i"/>
</g>
</g>
<path d="m150.25 791.86 2.6431-33.704q0.18763-2.3927-2.205-2.5803l-7.7188-0.60531q-2.3927-0.18763-2.5803 2.205l-2.6431 33.704q-0.18763 2.3927 2.205 2.5803l7.7188 0.60531q2.3927 0.18763 2.5803-2.205z" clip-path="url(#a)" fill="#fff" stroke="#fff"/>
<g clip-path="url(#a)">
<g transform="translate(146.2 791.54) rotate(-85.516) scale(.08 -.08)">
<use xlink:href="#l"/>
<use x="44.083984" xlink:href="#d"/>
<use x="105.607422" xlink:href="#h"/>
<use x="144.970703" xlink:href="#k"/>
<use x="242.382812" xlink:href="#f"/>
<use x="270.166016" xlink:href="#j"/>
<use x="333.544922" xlink:href="#e"/>
<use x="394.824219" xlink:href="#i"/>
</g>
</g>
<path d="m148.02 758.16 2.6431 33.704q0.18763 2.3927 2.5803 2.205l7.7188-0.60531q2.3927-0.18763 2.205-2.5803l-2.6431-33.704q-0.18763-2.3927-2.5803-2.205l-7.7188 0.60531q-2.3927 0.18763-2.205 2.5803z" clip-path="url(#a)" fill="#fff" stroke="#fff"/>
<g clip-path="url(#a)">
<g transform="translate(152.07 757.84) rotate(85.516) scale(.08 -.08)">
<use xlink:href="#l"/>
<use x="44.083984" xlink:href="#d"/>
<use x="105.607422" xlink:href="#h"/>
<use x="144.970703" xlink:href="#k"/>
<use x="242.382812" xlink:href="#f"/>
<use x="270.166016" xlink:href="#j"/>
<use x="333.544922" xlink:href="#e"/>
<use x="394.824219" xlink:href="#i"/>
</g>
</g>
<path d="m177.57 757.61v33.808q0 2.4 2.4 2.4h7.7425q2.4 0 2.4-2.4v-33.808q0-2.4-2.4-2.4h-7.7425q-2.4 0-2.4 2.4z" clip-path="url(#a)" fill="#fff" stroke="#fff"/>
<g clip-path="url(#a)">
<g transform="translate(181.63 757.61) rotate(90) scale(.08 -.08)">
<use xlink:href="#l"/>
<use x="44.083984" xlink:href="#d"/>
<use x="105.607422" xlink:href="#h"/>
<use x="144.970703" xlink:href="#k"/>
<use x="242.382812" xlink:href="#f"/>
<use x="270.166016" xlink:href="#j"/>
<use x="333.544922" xlink:href="#e"/>
<use x="394.824219" xlink:href="#i"/>
</g>
</g>
<path d="m295.67 757.61v33.808q0 2.4 2.4 2.4h7.7425q2.4 0 2.4-2.4v-33.808q0-2.4-2.4-2.4h-7.7425q-2.4 0-2.4 2.4z" clip-path="url(#a)" fill="#fff" stroke="#fff"/>
<g clip-path="url(#a)">
<g transform="translate(299.74 757.61) rotate(90) scale(.08 -.08)">
<use xlink:href="#l"/>
<use x="44.083984" xlink:href="#d"/>
<use x="105.607422" xlink:href="#h"/>
<use x="144.970703" xlink:href="#k"/>
<use x="242.382812" xlink:href="#f"/>
<use x="270.166016" xlink:href="#j"/>
<use x="333.544922" xlink:href="#e"/>
<use x="394.824219" xlink:href="#i"/>
</g>
</g>
<path d="m896.49 757.61v33.808q0 2.4 2.4 2.4h7.7425q2.4 0 2.4-2.4v-33.808q0-2.4-2.4-2.4h-7.7425q-2.4 0-2.4 2.4z" clip-path="url(#a)" fill="#fff" stroke="#fff"/>
<g clip-path="url(#a)">
<g transform="translate(900.55 757.61) rotate(90) scale(.08 -.08)">
<use xlink:href="#l"/>
<use x="44.083984" xlink:href="#d"/>
<use x="105.607422" xlink:href="#h"/>
<use x="144.970703" xlink:href="#k"/>
<use x="242.382812" xlink:href="#f"/>
<use x="270.166016" xlink:href="#j"/>
<use x="333.544922" xlink:href="#e"/>
<use x="394.824219" xlink:href="#i"/>
</g>
</g>
<path d="m1589.7 757.61v33.808q0 2.4 2.4 2.4h7.7425q2.4 0 2.4-2.4v-33.808q0-2.4-2.4-2.4h-7.7425q-2.4 0-2.4 2.4z" clip-path="url(#a)" fill="#fff" stroke="#fff"/>
<g clip-path="url(#a)">
<g transform="translate(1593.8 757.61) rotate(90) scale(.08 -.08)">
<use xlink:href="#l"/>
<use x="44.083984" xlink:href="#d"/>
<use x="105.607422" xlink:href="#h"/>
<use x="144.970703" xlink:href="#k"/>
<use x="242.382812" xlink:href="#f"/>
<use x="270.166016" xlink:href="#j"/>
<use x="333.544922" xlink:href="#e"/>
<use x="394.824219" xlink:href="#i"/>
</g>
</g>
<defs>
<path id="b" d="m0 8.6603c2.2967 0 4.4997-0.9125 6.1237-2.5365 1.624-1.624 2.5365-3.827 2.5365-6.1237s-0.9125-4.4997-2.5365-6.1237c-1.624-1.624-3.827-2.5365-6.1237-2.5365s-4.4997 0.9125-6.1237 2.5365c-1.624 1.624-2.5365 3.827-2.5365 6.1237s0.9125 4.4997 2.5365 6.1237c1.624 1.624 3.827 2.5365 6.1237 2.5365z"/>
</defs>
<g clip-path="url(#a)" fill="#ffffff" stroke="#ffffff">
<use x="76" y="840" xlink:href="#b"/>
<use x="83.702703" y="840" xlink:href="#b"/>
<use x="93.972973" y="840" xlink:href="#b"/>
<use x="106.810811" y="840" xlink:href="#b"/>
<use x="122.216216" y="840" xlink:href="#b"/>
<use x="140.189189" y="840" xlink:href="#b"/>
<use x="160.72973" y="840" xlink:href="#b"/>
<use x="183.837838" y="840" xlink:href="#b"/>
<use x="209.513514" y="840" xlink:href="#b"/>
<use x="237.756757" y="840" xlink:href="#b"/>
<use x="268.567568" y="840" xlink:href="#b"/>
<use x="301.945946" y="840" xlink:href="#b"/>
<use x="337.891892" y="840" xlink:href="#b"/>
<use x="376.405405" y="840" xlink:href="#b"/>
<use x="417.486486" y="840" xlink:href="#b"/>
<use x="461.135135" y="840" xlink:href="#b"/>
<use x="507.351351" y="840" xlink:href="#b"/>
<use x="556.135135" y="840" xlink:href="#b"/>
<use x="607.486486" y="840" xlink:href="#b"/>
<use x="661.405405" y="840" xlink:href="#b"/>
<use x="717.891892" y="840" xlink:href="#b"/>
<use x="776.945946" y="840" xlink:href="#b"/>
<use x="838.567568" y="840" xlink:href="#b"/>
<use x="902.756757" y="840" xlink:href="#b"/>
<use x="969.513514" y="840" xlink:href="#b"/>
<use x="1038.837838" y="840" xlink:href="#b"/>
<use x="1110.72973" y="840" xlink:href="#b"/>
<use x="1185.189189" y="840" xlink:href="#b"/>
<use x="1262.216216" y="840" xlink:href="#b"/>
<use x="1341.810811" y="840" xlink:href="#b"/>
<use x="1423.972973" y="840" xlink:href="#b"/>
<use x="1508.702703" y="840" xlink:href="#b"/>
<use x="1596" y="840" xlink:href="#b"/>
<use x="526.920139" y="40" xlink:href="#b"/>
<use x="114.914696" y="308.824769" xlink:href="#b"/>
<use x="337.891892" y="709.034404" xlink:href="#b"/>
<use x="376.405405" y="709.034404" xlink:href="#b"/>
<use x="566.262763" y="174.547703" xlink:href="#b"/>
<use x="1088.263514" y="308.824769" xlink:href="#b"/>
<use x="969.513514" y="709.034404" xlink:href="#b"/>
<use x="1038.837838" y="709.034404" xlink:href="#b"/>
<use x="1256.439189" y="442.763002" xlink:href="#b"/>
<use x="1110.72973" y="709.034404" xlink:href="#b"/>
<use x="1185.189189" y="709.034404" xlink:href="#b"/>
<use x="1262.216216" y="709.034404" xlink:href="#b"/>
<use x="1467.621622" y="576.246932" xlink:href="#b"/>
<use x="1341.810811" y="709.034404" xlink:href="#b"/>
<use x="1423.972973" y="709.034404" xlink:href="#b"/>
<use x="1508.702703" y="709.034404" xlink:href="#b"/>
<use x="439.310811" y="576.246932" xlink:href="#b"/>
<use x="556.990991" y="576.246932" xlink:href="#b"/>
<use x="702.486486" y="308.824769" xlink:href="#b"/>
<use x="661.405405" y="709.034404" xlink:href="#b"/>
<use x="717.891892" y="709.034404" xlink:href="#b"/>
<use x="823.162162" y="442.763002" xlink:href="#b"/>
<use x="807.756757" y="576.246932" xlink:href="#b"/>
<use x="838.567568" y="709.034404" xlink:href="#b"/>
<use x="776.945946" y="709.034404" xlink:href="#b"/>
<use x="507.351351" y="709.034404" xlink:href="#b"/>
<use x="556.135135" y="709.034404" xlink:href="#b"/>
<use x="607.486486" y="709.034404" xlink:href="#b"/>
<use x="417.486486" y="709.034404" xlink:href="#b"/>
<use x="461.135135" y="709.034404" xlink:href="#b"/>
<use x="76" y="709.034404" xlink:href="#b"/>
<use x="88.837838" y="709.034404" xlink:href="#b"/>
<use x="106.810811" y="709.034404" xlink:href="#b"/>
<use x="188.010135" y="442.763002" xlink:href="#b"/>
<use x="122.216216" y="709.034404" xlink:href="#b"/>
<use x="167.148649" y="576.246932" xlink:href="#b"/>
<use x="209.513514" y="709.034404" xlink:href="#b"/>
<use x="253.162162" y="709.034404" xlink:href="#b"/>
<use x="150.459459" y="709.034404" xlink:href="#b"/>
<use x="183.837838" y="709.034404" xlink:href="#b"/>
<use x="301.945946" y="709.034404" xlink:href="#b"/>
<use x="902.756757" y="709.034404" xlink:href="#b"/>
<use x="1596" y="709.034404" xlink:href="#b"/>
</g>
<g clip-path="url(#a)">
<g transform="translate(73.136 842.76) scale(.1 -.1)">
<defs>
<path id="ar" d="m9.8125 72.906h9.8594v-72.906h-9.8594z"/>
</defs>
<use xlink:href="#ar"/>
<use x="29.492188" xlink:href="#i"/>
</g>
</g>
<g clip-path="url(#a)">
<g transform="translate(78.021 842.76) scale(.1 -.1)">
<defs>
<path id="p" d="m44.281 53.078v-8.5q-3.7969 1.9531-7.9062 2.9219-4.0938 0.98438-8.5 0.98438-6.6875 0-10.031-2.0469t-3.3438-6.1562q0-3.125 2.3906-4.9062t9.625-3.3906l3.0781-0.6875q9.5625-2.0469 13.594-5.7812t4.0312-10.422q0-7.625-6.0312-12.078-6.0312-4.4375-16.578-4.4375-4.3906 0-9.1562 0.85938t-10.031 2.5625v9.2812q4.9844-2.5938 9.8125-3.8906 4.8281-1.2812 9.5781-1.2812 6.3438 0 9.75 2.1719 3.4219 2.1719 3.4219 6.125 0 3.6562-2.4688 5.6094-2.4531 1.9531-10.812 3.7656l-3.125 0.73438q-8.3438 1.75-12.062 5.3906-3.7031 3.6406-3.7031 9.9844 0 7.7188 5.4688 11.906 5.4688 4.2031 15.531 4.2031 4.9688 0 9.3594-0.73438 4.4062-0.71875 8.1094-2.1875z"/>
</defs>
<use xlink:href="#p"/>
<use x="52.099609" xlink:href="#d"/>
</g>
</g>
<g clip-path="url(#a)">
<g transform="translate(74.469 842.76) scale(.1 -.1)">
<defs>
<path id="r" d="m18.312 70.219v-15.531h18.5v-6.9844h-18.5v-29.688q0-6.6875 1.8281-8.5938t7.4531-1.9062h9.2188v-7.5156h-9.2188q-10.406 0-14.359 3.875-3.9531 3.8906-3.9531 14.141v29.688h-6.5938v6.9844h6.5938v15.531z"/>
<path id="t" d="m30.609 48.391q-7.2188 0-11.422-5.6406t-4.2031-15.453 4.1719-15.453q4.1875-5.6406 11.453-5.6406 7.1875 0 11.375 5.6562 4.2031 5.6719 4.2031 15.438 0 9.7188-4.2031 15.406-4.1875 5.6875-11.375 5.6875zm0 7.6094q11.719 0 18.406-7.625 6.7031-7.6094 6.7031-21.078 0-13.422-6.7031-21.078-6.6875-7.6406-18.406-7.6406-11.766 0-18.438 7.6406-6.6562 7.6562-6.6562 21.078 0 13.469 6.6562 21.078 6.6719 7.625 18.438 7.625z"/>
<path id="u" d="m8.5 21.578v33.109h8.9844v-32.766q0-7.7656 3.0156-11.656 3.0312-3.875 9.0938-3.875 7.2656 0 11.484 4.6406 4.2344 4.6406 4.2344 12.656v31h8.9844v-54.688h-8.9844v8.4062q-3.2656-4.9844-7.5938-7.4062-4.3125-2.4219-10.031-2.4219-9.4219 0-14.312 5.8594-4.875 5.8594-4.875 17.141z"/>
<path id="ab" d="m2.9844 54.688h9.5156l17.094-45.891 17.094 45.891h9.5156l-20.516-54.688h-12.203z"/>
</defs>
<use xlink:href="#r"/>
<use x="39.208984" xlink:href="#h"/>
<use x="78.072266" xlink:href="#t"/>
<use x="139.253906" xlink:href="#u"/>
<use x="202.632812" xlink:href="#ab"/>
<use x="261.8125" xlink:href="#e"/>
<use x="323.091797" xlink:href="#f"/>
<use x="350.875" xlink:href="#r"/>
</g>
</g>
<g clip-path="url(#a)">
<g transform="translate(94.638 842.76) scale(.1 -.1)">
<use xlink:href="#e"/>
<use x="61.279297" xlink:href="#i"/>
<use x="89.0625" xlink:href="#t"/>
<use x="150.244141" xlink:href="#h"/>
<use x="191.357422" xlink:href="#p"/>
</g>
</g>
<g clip-path="url(#a)">
<g transform="translate(119.15 842.76) scale(.1 -.1)">
<defs>
<path id="av" d="m34.281 27.484q-10.891 0-15.094-2.4844t-4.2031-8.5q0-4.7812 3.1562-7.5938 3.1562-2.7969 8.5625-2.7969 7.4844 0 12 5.2969t4.5156 14.078v2zm17.922 3.7188v-31.203h-8.9844v8.2969q-3.0781-4.9688-7.6719-7.3438t-11.234-2.375q-8.3906 0-13.359 4.7188-4.9531 4.7188-4.9531 12.625 0 9.2188 6.1719 13.906 6.1875 4.6875 18.438 4.6875h12.609v0.89062q0 6.2031-4.0781 9.5938t-11.453 3.3906q-4.6875 0-9.1406-1.125-4.4375-1.125-8.5312-3.375v8.3125q4.9219 1.9062 9.5625 2.8438 4.6406 0.95312 9.0312 0.95312 11.875 0 17.734-6.1562 5.8594-6.1406 5.8594-18.641zm-30.281 48.781 13.766-18.266h-7.4688l-15.922 18.266z"/>
</defs>
<use xlink:href="#av"/>
</g>
</g>
<g clip-path="url(#a)">
<g transform="translate(129.23 842.76) scale(.1 -.1)">
<use xlink:href="#r"/>
<use x="39.208984" xlink:href="#h"/>
<use x="78.072266" xlink:href="#t"/>
<use x="139.253906" xlink:href="#f"/>
<use x="167.037109" xlink:href="#p"/>
</g>
</g>
<g clip-path="url(#a)">
<g transform="translate(149.78 842.76) scale(.1 -.1)">
<defs>
<path id="ak" d="m48.781 52.594v-8.4062q-3.8125 2.1094-7.6406 3.1562t-7.7344 1.0469q-8.75 0-13.594-5.5469-4.8281-5.5312-4.8281-15.547t4.8281-15.562q4.8438-5.5312 13.594-5.5312 3.9062 0 7.7344 1.0469t7.6406 3.1562v-8.3125q-3.7656-1.75-7.7969-2.625-4.0156-0.89062-8.5625-0.89062-12.359 0-19.641 7.7656-7.2656 7.7656-7.2656 20.953 0 13.375 7.3438 21.031 7.3594 7.6719 20.156 7.6719 4.1406 0 8.0938-0.85938 3.9531-0.84375 7.6719-2.5469z"/>
</defs>
<use xlink:href="#ak"/>
<use x="54.980469" xlink:href="#d"/>
<use x="116.503906" xlink:href="#j"/>
<use x="179.882812" xlink:href="#r"/>
</g>
</g>
<g clip-path="url(#a)">
<g transform="translate(171.72 842.76) scale(.1 -.1)">
<use xlink:href="#k"/>
<use x="97.412109" xlink:href="#f"/>
<use x="125.195312" xlink:href="#i"/>
<use x="152.978516" xlink:href="#i"/>
<use x="180.761719" xlink:href="#d"/>
</g>
</g>
<g clip-path="url(#a)">
<g transform="translate(203.17 842.76) scale(.1 -.1)">
<defs>
<path id="y" d="m45.406 46.391v29.594h8.9844v-75.984h-8.9844v8.2031q-2.8281-4.875-7.1562-7.25-4.3125-2.375-10.375-2.375-9.9062 0-16.141 7.9062-6.2188 7.9219-6.2188 20.812t6.2188 20.797q6.2344 7.9062 16.141 7.9062 6.0625 0 10.375-2.375 4.3281-2.3594 7.1562-7.2344zm-30.609-19.094q0-9.9062 4.0781-15.547t11.203-5.6406 11.219 5.6406q4.1094 5.6406 4.1094 15.547t-4.1094 15.547q-4.0938 5.6406-11.219 5.6406t-11.203-5.6406-4.0781-15.547z"/>
</defs>
<use xlink:href="#y"/>
<use x="63.476562" xlink:href="#u"/>
</g>
</g>
<g clip-path="url(#a)">
<g transform="translate(228.77 842.76) scale(.1 -.1)">
<defs>
<path id="ac" d="m18.109 8.2031v-29h-9.0312v75.484h9.0312v-8.2969q2.8438 4.875 7.1562 7.2344 4.3281 2.375 10.328 2.375 9.9688 0 16.188-7.9062 6.2344-7.9062 6.2344-20.797t-6.2344-20.812q-6.2188-7.9062-16.188-7.9062-6 0-10.328 2.375-4.3125 2.375-7.1562 7.25zm30.578 19.094q0 9.9062-4.0781 15.547t-11.203 5.6406q-7.1406 0-11.219-5.6406t-4.0781-15.547 4.0781-15.547 11.219-5.6406q7.125 0 11.203 5.6406t4.0781 15.547z"/>
</defs>
<use xlink:href="#ak"/>
<use x="54.980469" xlink:href="#e"/>
<use x="116.259766" xlink:href="#ac"/>
</g>
</g>
<g clip-path="url(#a)">
<g transform="translate(255.49 842.76) scale(.1 -.1)">
<use xlink:href="#s"/>
<use x="69.824219" xlink:href="#i"/>
<use x="97.607422" xlink:href="#d"/>
<use x="159.130859" xlink:href="#e"/>
<use x="220.410156" xlink:href="#h"/>
</g>
</g>
<g clip-path="url(#a)">
<g transform="translate(300.36 842.76) scale(.1 -.1)">
<defs>
<path id="ao" d="m11.719 12.406h10.297v-8.4062l-8-15.625h-6.2969l4 15.625z"/>
</defs>
<use xlink:href="#ao"/>
</g>
</g>
<g clip-path="url(#a)">
<g transform="translate(332.86 842.76) scale(.1 -.1)">
<use xlink:href="#d"/>
<use x="61.523438" xlink:href="#r"/>
</g>
</g>
<g clip-path="url(#a)">
<g transform="translate(362.54 842.96) scale(.1 -.1)">
<defs>
<path id="au" d="m56.203 29.594v-4.3906h-41.312q0.59375-9.2812 5.5938-14.141t13.938-4.8594q5.1719 0 10.031 1.2656t9.6562 3.8125v-8.5q-4.8438-2.0469-9.9219-3.125t-10.297-1.0781q-13.094 0-20.734 7.6094-7.6406 7.625-7.6406 20.625 0 13.422 7.25 21.297 7.25 7.8906 19.562 7.8906 11.031 0 17.453-7.1094 6.4219-7.0938 6.4219-19.297zm-8.9844 2.6406q-0.09375 7.3594-4.125 11.75-4.0312 4.4062-10.672 4.4062-7.5156 0-12.031-4.25t-5.2031-11.969zm-22.547 47.75 13.766-18.266h-7.4688l-15.922 18.266z"/>
</defs>
<use xlink:href="#e"/>
<use x="61.279297" xlink:href="#ac"/>
<use x="124.755859" xlink:href="#h"/>
<use x="163.619141" xlink:href="#au"/>
<use x="225.142578" xlink:href="#p"/>
</g>
</g>
<g clip-path="url(#a)">
<g transform="translate(406.53 842.76) scale(.1 -.1)">
<use xlink:href="#r"/>
<use x="39.208984" xlink:href="#h"/>
<use x="78.072266" xlink:href="#t"/>
<use x="139.253906" xlink:href="#f"/>
<use x="167.037109" xlink:href="#p"/>
</g>
</g>
<g clip-path="url(#a)">
<g transform="translate(448.86 842.76) scale(.1 -.1)">
<defs>
<path id="aw" d="m9.4219 54.688h8.9844v-55.672q0-10.438-3.9844-15.125-3.9688-4.6875-12.812-4.6875h-3.4219v7.6094h2.4062q5.125 0 6.9688 2.375 1.8594 2.3594 1.8594 9.8281zm0 21.297h8.9844v-11.391h-8.9844z"/>
</defs>
<use xlink:href="#aw"/>
<use x="27.783203" xlink:href="#t"/>
<use x="88.964844" xlink:href="#u"/>
<use x="152.34375" xlink:href="#h"/>
<use x="193.457031" xlink:href="#p"/>
</g>
</g>
<g clip-path="url(#a)">
<g transform="translate(502.8 842.76) scale(.1 -.1)">
<defs>
<path id="as" d="m17.922 72.906v-27.109h-8.2969v27.109z"/>
</defs>
<use xlink:href="#y"/>
<use x="63.476562" xlink:href="#as"/>
</g>
</g>
<g clip-path="url(#a)">
<g transform="translate(549.8 842.76) scale(.1 -.1)">
<use xlink:href="#u"/>
<use x="63.378906" xlink:href="#j"/>
</g>
</g>
<g clip-path="url(#a)">
<g transform="translate(592.3 842.76) scale(.1 -.1)">
<use xlink:href="#h"/>
<use x="38.863281" xlink:href="#d"/>
<use x="100.386719" xlink:href="#r"/>
<use x="139.595703" xlink:href="#e"/>
<use x="200.875" xlink:href="#h"/>
<use x="240.238281" xlink:href="#y"/>
</g>
</g>
<g clip-path="url(#a)">
<g transform="translate(653.67 842.76) scale(.1 -.1)">
<defs>
<path id="ap" d="m14.797 27.297q0-9.9062 4.0781-15.547t11.203-5.6406 11.219 5.6406q4.1094 5.6406 4.1094 15.547t-4.1094 15.547q-4.0938 5.6406-11.219 5.6406t-11.203-5.6406-4.0781-15.547zm30.609-19.094q-2.8281-4.875-7.1562-7.25-4.3125-2.375-10.375-2.375-9.9062 0-16.141 7.9062-6.2188 7.9219-6.2188 20.812t6.2188 20.797q6.2344 7.9062 16.141 7.9062 6.0625 0 10.375-2.375 4.3281-2.3594 7.1562-7.2344v8.2969h8.9844v-75.484h-8.9844z"/>
</defs>
<use xlink:href="#ap"/>
<use x="63.476562" xlink:href="#u"/>
<use x="126.855469" xlink:href="#f"/>
</g>
</g>
<g clip-path="url(#a)">
<g transform="translate(697.5 842.96) scale(.1 -.1)">
<defs>
<path id="at" d="m56.203 29.594v-4.3906h-41.312q0.59375-9.2812 5.5938-14.141t13.938-4.8594q5.1719 0 10.031 1.2656t9.6562 3.8125v-8.5q-4.8438-2.0469-9.9219-3.125t-10.297-1.0781q-13.094 0-20.734 7.6094-7.6406 7.625-7.6406 20.625 0 13.422 7.25 21.297 7.25 7.8906 19.562 7.8906 11.031 0 17.453-7.1094 6.4219-7.0938 6.4219-19.297zm-8.9844 2.6406q-0.09375 7.3594-4.125 11.75-4.0312 4.4062-10.672 4.4062-7.5156 0-12.031-4.25t-5.2031-11.969zm-8.6875 47.75h9.7188l-15.906-18.359h-7.4844z"/>
</defs>
<use xlink:href="#f"/>
<use x="27.783203" xlink:href="#j"/>
<use x="91.162109" xlink:href="#ap"/>
<use x="154.638672" xlink:href="#u"/>
<use x="218.017578" xlink:href="#f"/>
<use x="245.800781" xlink:href="#at"/>
<use x="307.324219" xlink:href="#r"/>
<use x="346.533203" xlink:href="#e"/>
</g>
</g>
<g clip-path="url(#a)">
<g transform="translate(753.49 842.76) scale(.1 -.1)">
<use xlink:href="#ab"/>
<use x="59.179688" xlink:href="#f"/>
<use x="86.962891" xlink:href="#ab"/>
<use x="146.142578" xlink:href="#d"/>
<use x="207.666016" xlink:href="#k"/>
<use x="305.078125" xlink:href="#d"/>
<use x="366.601562" xlink:href="#j"/>
<use x="429.980469" xlink:href="#r"/>
</g>
</g>
<g clip-path="url(#a)">
<g transform="translate(815.62 842.76) scale(.1 -.1)">
<use xlink:href="#ae"/>
<use x="55.712891" xlink:href="#f"/>
<use x="83.496094" xlink:href="#ab"/>
<use x="142.675781" xlink:href="#d"/>
<use x="204.199219" xlink:href="#h"/>
<use x="245.3125" xlink:href="#ac"/>
<use x="308.789062" xlink:href="#t"/>
<use x="369.970703" xlink:href="#t"/>
<use x="431.152344" xlink:href="#i"/>
</g>
</g>
<g clip-path="url(#a)">
<g transform="translate(901.17 842.76) scale(.1 -.1)">
<use xlink:href="#ao"/>
</g>
</g>
<g clip-path="url(#a)">
<g transform="translate(966.74 842.76) scale(.1 -.1)">
<use xlink:href="#f"/>
<use x="27.783203" xlink:href="#i"/>
</g>
</g>
<g clip-path="url(#a)">
<g transform="translate(1025.5 842.76) scale(.1 -.1)">
<use xlink:href="#d"/>
<use x="61.523438" xlink:href="#j"/>
<use x="124.902344" xlink:href="#r"/>
<use x="164.111328" xlink:href="#h"/>
<use x="205.224609" xlink:href="#e"/>
</g>
</g>
<g clip-path="url(#a)">
<g transform="translate(1098.7 842.76) scale(.1 -.1)">
<use xlink:href="#y"/>
<use x="63.476562" xlink:href="#e"/>
<use x="124.755859" xlink:href="#j"/>
<use x="188.134766" xlink:href="#p"/>
</g>
</g>
<g clip-path="url(#a)">
<g transform="translate(1178.1 842.76) scale(.1 -.1)">
<use xlink:href="#i"/>
<use x="27.783203" xlink:href="#d"/>
<use x="89.306641" xlink:href="#p"/>
</g>
</g>
<g clip-path="url(#a)">
<g transform="translate(1243.6 842.76) scale(.1 -.1)">
<defs>
<path id="aq" d="m48.688 27.297q0 9.9062-4.0781 15.547t-11.203 5.6406q-7.1406 0-11.219-5.6406t-4.0781-15.547 4.0781-15.547 11.219-5.6406q7.125 0 11.203 5.6406t4.0781 15.547zm-30.578 19.094q2.8438 4.875 7.1562 7.2344 4.3281 2.375 10.328 2.375 9.9688 0 16.188-7.9062 6.2344-7.9062 6.2344-20.797t-6.2344-20.812q-6.2188-7.9062-16.188-7.9062-6 0-10.328 2.375-4.3125 2.375-7.1562 7.25v-8.2031h-9.0312v75.984h9.0312z"/>
</defs>
<use xlink:href="#aq"/>
<use x="63.476562" xlink:href="#e"/>
<use x="124.755859" xlink:href="#p"/>
<use x="176.855469" xlink:href="#p"/>
<use x="228.955078" xlink:href="#f"/>
<use x="256.738281" xlink:href="#j"/>
<use x="320.117188" xlink:href="#p"/>
</g>
</g>
<g clip-path="url(#a)">
<g transform="translate(1335.6 842.76) scale(.1 -.1)">
<use xlink:href="#y"/>
<use x="63.476562" xlink:href="#d"/>
</g>
</g>
<g clip-path="url(#a)">
<g transform="translate(1419.5 842.76) scale(.1 -.1)">
<use xlink:href="#i"/>
<use x="27.783203" xlink:href="#e"/>
</g>
</g>
<g clip-path="url(#a)">
<g transform="translate(1480.2 842.76) scale(.1 -.1)">
<defs>
<path id="ax" d="m45.406 27.984q0 9.7656-4.0312 15.125-4.0156 5.375-11.297 5.375-7.2188 0-11.25-5.375-4.0312-5.3594-4.0312-15.125 0-9.7188 4.0312-15.094t11.25-5.375q7.2812 0 11.297 5.375 4.0312 5.375 4.0312 15.094zm8.9844-21.203q0-13.953-6.2031-20.766-6.1875-6.8125-18.984-6.8125-4.7344 0-8.9375 0.70312t-8.1562 2.1719v8.7344q3.9531-2.1406 7.8125-3.1562 3.8594-1.0312 7.8594-1.0312 8.8438 0 13.234 4.6094t4.3906 13.938v4.4531q-2.7812-4.8438-7.125-7.2344t-10.406-2.3906q-10.047 0-16.203 7.6562-6.1562 7.6719-6.1562 20.328 0 12.688 6.1562 20.344 6.1562 7.6719 16.203 7.6719 6.0625 0 10.406-2.3906t7.125-7.2188v8.2969h8.9844z"/>
</defs>
<use xlink:href="#s"/>
<use x="69.824219" xlink:href="#t"/>
<use x="131.005859" xlink:href="#k"/>
<use x="228.417969" xlink:href="#ac"/>
<use x="291.894531" xlink:href="#e"/>
<use x="353.173828" xlink:href="#ax"/>
<use x="416.650391" xlink:href="#j"/>
<use x="480.029297" xlink:href="#f"/>
<use x="507.8125" xlink:href="#d"/>
</g>
</g>
<g clip-path="url(#a)">
<g transform="translate(1594.4 842.76) scale(.1 -.1)">
<defs>
<path id="g" d="m10.688 12.406h10.312v-12.406h-10.312z"/>
</defs>
<use xlink:href="#g"/>
</g>
</g>
<g clip-path="url(#a)">
<g transform="translate(518.97 42.759) scale(.1 -.1)">
<defs>
<path id="c" d="m12.406 8.2969h16.109v55.625l-17.531-3.5156v8.9844l17.438 3.5156h9.8594v-64.609h16.109v-8.2969h-41.984z"/>
</defs>
<use xlink:href="#c"/>
<use x="63.623047" xlink:href="#g"/>
<use x="95.410156" xlink:href="#c"/>
</g>
</g>
<g clip-path="url(#a)">
<g transform="translate(106.96 311.58) scale(.1 -.1)">
<defs>
<path id="n" d="m19.188 8.2969h34.422v-8.2969h-46.281v8.2969q5.6094 5.8125 15.297 15.594 9.7031 9.7969 12.188 12.641 4.7344 5.3125 6.6094 9 1.8906 3.6875 1.8906 7.25 0 5.8125-4.0781 9.4688-4.0781 3.6719-10.625 3.6719-4.6406 0-9.7969-1.6094-5.1406-1.6094-11-4.8906v9.9688q5.9531 2.3906 11.125 3.6094 5.1875 1.2188 9.4844 1.2188 11.328 0 18.062-5.6719 6.7344-5.6562 6.7344-15.125 0-4.5-1.6875-8.5312-1.6719-4.0156-6.125-9.4844-1.2188-1.4219-7.7656-8.1875-6.5312-6.7656-18.453-18.922z"/>
</defs>
<use xlink:href="#c"/>
<use x="63.623047" xlink:href="#g"/>
<use x="95.410156" xlink:href="#n"/>
</g>
</g>
<g clip-path="url(#a)">
<g transform="translate(329.94 711.79) scale(.1 -.1)">
<defs>
<path id="m" d="m40.578 39.312q7.0781-1.5156 11.047-6.3125 3.9844-4.7812 3.9844-11.812 0-10.781-7.4219-16.703-7.4219-5.9062-21.094-5.9062-4.5781 0-9.4375 0.90625t-10.031 2.7188v9.5156q4.0938-2.3906 8.9688-3.6094 4.8906-1.2188 10.219-1.2188 9.2656 0 14.125 3.6562t4.8594 10.641q0 6.4531-4.5156 10.078-4.5156 3.6406-12.562 3.6406h-8.5v8.1094h8.8906q7.2656 0 11.125 2.9062t3.8594 8.375q0 5.6094-3.9844 8.6094-3.9688 3.0156-11.391 3.0156-4.0625 0-8.7031-0.89062-4.6406-0.875-10.203-2.7188v8.7812q5.625 1.5625 10.531 2.3438t9.25 0.78125q11.234 0 17.766-5.1094 6.5469-5.0938 6.5469-13.781 0-6.0625-3.4688-10.234t-9.8594-5.7812z"/>
</defs>
<use xlink:href="#c"/>
<use x="63.623047" xlink:href="#g"/>
<use x="95.410156" xlink:href="#m"/>
</g>
</g>
<g clip-path="url(#a)">
<g transform="translate(368.45 711.79) scale(.1 -.1)">
<defs>
<path id="o" d="m37.797 64.312-24.906-38.922h24.906zm-2.5938 8.5938h12.406v-47.516h10.406v-8.2031h-10.406v-17.188h-9.8125v17.188h-32.906v9.5156z"/>
</defs>
<use xlink:href="#c"/>
<use x="63.623047" xlink:href="#g"/>
<use x="95.410156" xlink:href="#o"/>
</g>
</g>
<g clip-path="url(#a)">
<g transform="translate(558.31 177.31) scale(.1 -.1)">
<defs>
<path id="x" d="m10.797 72.906h38.719v-8.3125h-29.688v-17.859q2.1406 0.73438 4.2812 1.0938 2.1562 0.35938 4.3125 0.35938 12.203 0 19.328-6.6875 7.1406-6.6875 7.1406-18.109 0-11.766-7.3281-18.297-7.3281-6.5156-20.656-6.5156-4.5938 0-9.3594 0.78125-4.75 0.78125-9.8281 2.3438v9.9219q4.3906-2.3906 9.0781-3.5625t9.9062-1.1719q8.4531 0 13.375 4.4375 4.9375 4.4375 4.9375 12.062 0 7.6094-4.9375 12.047-4.9219 4.4531-13.375 4.4531-3.9531 0-7.8906-0.875-3.9219-0.875-8.0156-2.7344z"/>
</defs>
<use xlink:href="#c"/>
<use x="63.623047" xlink:href="#g"/>
<use x="95.410156" xlink:href="#x"/>
</g>
</g>
<g clip-path="url(#a)">
<g transform="translate(1080.3 311.58) scale(.1 -.1)">
<defs>
<path id="w" d="m33.016 40.375q-6.6406 0-10.531-4.5469-3.875-4.5312-3.875-12.438 0-7.8594 3.875-12.438 3.8906-4.5625 10.531-4.5625t10.516 4.5625q3.875 4.5781 3.875 12.438 0 7.9062-3.875 12.438-3.875 4.5469-10.516 4.5469zm19.578 30.922v-8.9844q-3.7188 1.75-7.5 2.6719-3.7812 0.9375-7.5 0.9375-9.7656 0-14.922-6.5938-5.1406-6.5938-5.875-19.922 2.875 4.25 7.2188 6.5156 4.3594 2.2656 9.5781 2.2656 10.984 0 17.359-6.6719 6.375-6.6562 6.375-18.125 0-11.234-6.6406-18.031-6.6406-6.7812-17.672-6.7812-12.656 0-19.344 9.6875-6.6875 9.7031-6.6875 28.109 0 17.281 8.2031 27.562t22.016 10.281q3.7188 0 7.5-0.73438t7.8906-2.1875z"/>
</defs>
<use xlink:href="#c"/>
<use x="63.623047" xlink:href="#g"/>
<use x="95.410156" xlink:href="#w"/>
</g>
</g>
<g clip-path="url(#a)">
<g transform="translate(961.56 711.79) scale(.1 -.1)">
<defs>
<path id="ah" d="m10.984 1.5156v8.9844q3.7188-1.7656 7.5156-2.6875 3.8125-0.92188 7.4844-0.92188 9.7656 0 14.906 6.5625 5.1562 6.5625 5.8906 19.953-2.8281-4.2031-7.1875-6.4531-4.3438-2.25-9.6094-2.25-10.938 0-17.312 6.6094-6.375 6.625-6.375 18.109 0 11.219 6.6406 18 6.6406 6.7969 17.672 6.7969 12.656 0 19.312-9.7031 6.6719-9.6875 6.6719-28.141 0-17.234-8.1875-27.516-8.1719-10.281-21.984-10.281-3.7188 0-7.5312 0.73438-3.7969 0.73438-7.9062 2.2031zm19.625 30.906q6.6406 0 10.516 4.5312 3.8906 4.5469 3.8906 12.469 0 7.8594-3.8906 12.422-3.875 4.5625-10.516 4.5625t-10.516-4.5625-3.875-12.422q0-7.9219 3.875-12.469 3.875-4.5312 10.516-4.5312z"/>
</defs>
<use xlink:href="#c"/>
<use x="63.623047" xlink:href="#g"/>
<use x="95.410156" xlink:href="#ah"/>
</g>
</g>
<g clip-path="url(#a)">
<g transform="translate(1027.7 711.79) scale(.1 -.1)">
<defs>
<path id="aa" d="m31.781 66.406q-7.6094 0-11.453-7.5-3.8281-7.4844-3.8281-22.531 0-14.984 3.8281-22.484 3.8438-7.5 11.453-7.5 7.6719 0 11.5 7.5 3.8438 7.5 3.8438 22.484 0 15.047-3.8438 22.531-3.8281 7.5-11.5 7.5zm0 7.8125q12.266 0 18.734-9.7031 6.4688-9.6875 6.4688-28.141 0-18.406-6.4688-28.109-6.4688-9.6875-18.734-9.6875-12.25 0-18.719 9.6875-6.4688 9.7031-6.4688 28.109 0 18.453 6.4688 28.141 6.4688 9.7031 18.719 9.7031z"/>
</defs>
<use xlink:href="#c"/>
<use x="63.623047" xlink:href="#g"/>
<use x="95.410156" xlink:href="#c"/>
<use x="159.033203" xlink:href="#aa"/>
</g>
</g>
<g clip-path="url(#a)">
<g transform="translate(1245.3 445.52) scale(.1 -.1)">
<use xlink:href="#c"/>
<use x="63.623047" xlink:href="#g"/>
<use x="95.410156" xlink:href="#c"/>
<use x="159.033203" xlink:href="#c"/>
</g>
</g>
<g clip-path="url(#a)">
<g transform="translate(1099.6 711.79) scale(.1 -.1)">
<use xlink:href="#c"/>
<use x="63.623047" xlink:href="#g"/>
<use x="95.410156" xlink:href="#c"/>
<use x="159.033203" xlink:href="#n"/>
</g>
</g>
<g clip-path="url(#a)">
<g transform="translate(1174.1 711.79) scale(.1 -.1)">
<use xlink:href="#c"/>
<use x="63.623047" xlink:href="#g"/>
<use x="95.410156" xlink:href="#c"/>
<use x="159.033203" xlink:href="#m"/>
</g>
</g>
<g clip-path="url(#a)">
<g transform="translate(1251.1 711.79) scale(.1 -.1)">
<use xlink:href="#c"/>
<use x="63.623047" xlink:href="#g"/>
<use x="95.410156" xlink:href="#c"/>
<use x="159.033203" xlink:href="#o"/>
</g>
</g>
<g clip-path="url(#a)">
<g transform="translate(1456.5 579.01) scale(.1 -.1)">
<use xlink:href="#c"/>
<use x="63.623047" xlink:href="#g"/>
<use x="95.410156" xlink:href="#c"/>
<use x="159.033203" xlink:href="#x"/>
</g>
</g>
<g clip-path="url(#a)">
<g transform="translate(1330.7 711.79) scale(.1 -.1)">
<use xlink:href="#c"/>
<use x="63.623047" xlink:href="#g"/>
<use x="95.410156" xlink:href="#c"/>
<use x="159.033203" xlink:href="#w"/>
</g>
</g>
<g clip-path="url(#a)">
<g transform="translate(1412.8 711.79) scale(.1 -.1)">
<defs>
<path id="aj" d="m8.2031 72.906h46.875v-4.2031l-26.469-68.703h-10.297l24.906 64.594h-35.016z"/>
</defs>
<use xlink:href="#c"/>
<use x="63.623047" xlink:href="#g"/>
<use x="95.410156" xlink:href="#c"/>
<use x="159.033203" xlink:href="#aj"/>
</g>
</g>
<g clip-path="url(#a)">
<g transform="translate(1497.6 711.79) scale(.1 -.1)">
<defs>
<path id="ai" d="m31.781 34.625q-7.0312 0-11.062-3.7656-4.0156-3.7656-4.0156-10.344 0-6.5938 4.0156-10.359 4.0312-3.7656 11.062-3.7656t11.078 3.7812q4.0625 3.7969 4.0625 10.344 0 6.5781-4.0312 10.344-4.0156 3.7656-11.109 3.7656zm-9.8594 4.1875q-6.3438 1.5625-9.8906 5.9062-3.5312 4.3594-3.5312 10.609 0 8.7344 6.2188 13.812 6.2344 5.0781 17.062 5.0781 10.891 0 17.094-5.0781t6.2031-13.812q0-6.25-3.5469-10.609-3.5312-4.3438-9.8281-5.9062 7.125-1.6562 11.094-6.5 3.9844-4.8281 3.9844-11.797 0-10.609-6.4688-16.281-6.4688-5.6562-18.531-5.6562-12.047 0-18.531 5.6562-6.4688 5.6719-6.4688 16.281 0 6.9688 4 11.797 4.0156 4.8438 11.141 6.5zm-3.6094 15.578q0-5.6562 3.5312-8.8281 3.5469-3.1719 9.9375-3.1719 6.3594 0 9.9375 3.1719 3.5938 3.1719 3.5938 8.8281 0 5.6719-3.5938 8.8438-3.5781 3.1719-9.9375 3.1719-6.3906 0-9.9375-3.1719-3.5312-3.1719-3.5312-8.8438z"/>
</defs>
<use xlink:href="#c"/>
<use x="63.623047" xlink:href="#g"/>
<use x="95.410156" xlink:href="#c"/>
<use x="159.033203" xlink:href="#ai"/>
</g>
</g>
<g clip-path="url(#a)">
<g transform="translate(428.18 579.01) scale(.1 -.1)">
<use xlink:href="#c"/>
<use x="63.623047" xlink:href="#g"/>
<use x="95.410156" xlink:href="#n"/>
<use x="159.033203" xlink:href="#aa"/>
</g>
</g>
<g clip-path="url(#a)">
<g transform="translate(545.86 579.01) scale(.1 -.1)">
<use xlink:href="#c"/>
<use x="63.623047" xlink:href="#g"/>
<use x="95.410156" xlink:href="#n"/>
<use x="159.033203" xlink:href="#c"/>
</g>
</g>
<g clip-path="url(#a)">
<g transform="translate(691.35 311.58) scale(.1 -.1)">
<use xlink:href="#c"/>
<use x="63.623047" xlink:href="#g"/>
<use x="95.410156" xlink:href="#n"/>
<use x="159.033203" xlink:href="#n"/>
</g>
</g>
<g clip-path="url(#a)">
<g transform="translate(650.27 711.79) scale(.1 -.1)">
<use xlink:href="#c"/>
<use x="63.623047" xlink:href="#g"/>
<use x="95.410156" xlink:href="#n"/>
<use x="159.033203" xlink:href="#m"/>
</g>
</g>
<g clip-path="url(#a)">
<g transform="translate(706.76 711.79) scale(.1 -.1)">
<use xlink:href="#c"/>
<use x="63.623047" xlink:href="#g"/>
<use x="95.410156" xlink:href="#n"/>
<use x="159.033203" xlink:href="#o"/>
</g>
</g>
<g clip-path="url(#a)">
<g transform="translate(812.03 445.52) scale(.1 -.1)">
<use xlink:href="#c"/>
<use x="63.623047" xlink:href="#g"/>
<use x="95.410156" xlink:href="#n"/>
<use x="159.033203" xlink:href="#x"/>
</g>
</g>
<g clip-path="url(#a)">
<g transform="translate(796.62 579.01) scale(.1 -.1)">
<use xlink:href="#c"/>
<use x="63.623047" xlink:href="#g"/>
<use x="95.410156" xlink:href="#n"/>
<use x="159.033203" xlink:href="#w"/>
</g>
</g>
<g clip-path="url(#a)">
<g transform="translate(827.43 711.79) scale(.1 -.1)">
<use xlink:href="#c"/>
<use x="63.623047" xlink:href="#g"/>
<use x="95.410156" xlink:href="#n"/>
<use x="159.033203" xlink:href="#aj"/>
</g>
</g>
<g clip-path="url(#a)">
<g transform="translate(765.81 711.79) scale(.1 -.1)">
<use xlink:href="#c"/>
<use x="63.623047" xlink:href="#g"/>
<use x="95.410156" xlink:href="#n"/>
<use x="159.033203" xlink:href="#ai"/>
</g>
</g>
<g clip-path="url(#a)">
<g transform="translate(496.22 711.79) scale(.1 -.1)">
<use xlink:href="#c"/>
<use x="63.623047" xlink:href="#g"/>
<use x="95.410156" xlink:href="#n"/>
<use x="159.033203" xlink:href="#ah"/>
</g>
</g>
<g clip-path="url(#a)">
<g transform="translate(545 711.79) scale(.1 -.1)">
<use xlink:href="#c"/>
<use x="63.623047" xlink:href="#g"/>
<use x="95.410156" xlink:href="#m"/>
<use x="159.033203" xlink:href="#aa"/>
</g>
</g>
<g clip-path="url(#a)">
<g transform="translate(596.35 711.79) scale(.1 -.1)">
<use xlink:href="#c"/>
<use x="63.623047" xlink:href="#g"/>
<use x="95.410156" xlink:href="#m"/>
<use x="159.033203" xlink:href="#c"/>
</g>
</g>
<g clip-path="url(#a)">
<g transform="translate(406.35 711.79) scale(.1 -.1)">
<use xlink:href="#c"/>
<use x="63.623047" xlink:href="#g"/>
<use x="95.410156" xlink:href="#m"/>
<use x="159.033203" xlink:href="#n"/>
</g>
</g>
<g clip-path="url(#a)">
<g transform="translate(450 711.79) scale(.1 -.1)">
<use xlink:href="#c"/>
<use x="63.623047" xlink:href="#g"/>
<use x="95.410156" xlink:href="#m"/>
<use x="159.033203" xlink:href="#m"/>
</g>
</g>
<g clip-path="url(#a)">
<g transform="translate(64.867 711.79) scale(.1 -.1)">
<use xlink:href="#c"/>
<use x="63.623047" xlink:href="#g"/>
<use x="95.410156" xlink:href="#m"/>
<use x="159.033203" xlink:href="#o"/>
</g>
</g>
<g clip-path="url(#a)">
<g transform="translate(77.705 711.79) scale(.1 -.1)">
<use xlink:href="#c"/>
<use x="63.623047" xlink:href="#g"/>
<use x="95.410156" xlink:href="#m"/>
<use x="159.033203" xlink:href="#x"/>
</g>
</g>
<g clip-path="url(#a)">
<g transform="translate(95.678 711.79) scale(.1 -.1)">
<use xlink:href="#c"/>
<use x="63.623047" xlink:href="#g"/>
<use x="95.410156" xlink:href="#m"/>
<use x="159.033203" xlink:href="#w"/>
</g>
</g>
<g clip-path="url(#a)">
<g transform="translate(176.88 445.52) scale(.1 -.1)">
<use xlink:href="#c"/>
<use x="63.623047" xlink:href="#g"/>
<use x="95.410156" xlink:href="#m"/>
<use x="159.033203" xlink:href="#aj"/>
</g>
</g>
<g clip-path="url(#a)">
<g transform="translate(111.08 711.79) scale(.1 -.1)">
<use xlink:href="#c"/>
<use x="63.623047" xlink:href="#g"/>
<use x="95.410156" xlink:href="#m"/>
<use x="159.033203" xlink:href="#ai"/>
</g>
</g>
<g clip-path="url(#a)">
<g transform="translate(156.02 579.01) scale(.1 -.1)">
<use xlink:href="#c"/>
<use x="63.623047" xlink:href="#g"/>
<use x="95.410156" xlink:href="#m"/>
<use x="159.033203" xlink:href="#ah"/>
</g>
</g>
<g clip-path="url(#a)">
<g transform="translate(198.38 711.79) scale(.1 -.1)">
<use xlink:href="#c"/>
<use x="63.623047" xlink:href="#g"/>
<use x="95.410156" xlink:href="#o"/>
<use x="159.033203" xlink:href="#aa"/>
</g>
</g>
<g clip-path="url(#a)">
<g transform="translate(242.03 711.79) scale(.1 -.1)">
<use xlink:href="#c"/>
<use x="63.623047" xlink:href="#g"/>
<use x="95.410156" xlink:href="#o"/>
<use x="159.033203" xlink:href="#c"/>
</g>
</g>
<g clip-path="url(#a)">
<g transform="translate(139.33 711.79) scale(.1 -.1)">
<use xlink:href="#c"/>
<use x="63.623047" xlink:href="#g"/>
<use x="95.410156" xlink:href="#o"/>
<use x="159.033203" xlink:href="#n"/>
</g>
</g>
<g clip-path="url(#a)">
<g transform="translate(172.71 711.79) scale(.1 -.1)">
<use xlink:href="#c"/>
<use x="63.623047" xlink:href="#g"/>
<use x="95.410156" xlink:href="#o"/>
<use x="159.033203" xlink:href="#m"/>
</g>
</g>
<g clip-path="url(#a)">
<g transform="translate(290.81 711.79) scale(.1 -.1)">
<use xlink:href="#c"/>
<use x="63.623047" xlink:href="#g"/>
<use x="95.410156" xlink:href="#o"/>
<use x="159.033203" xlink:href="#o"/>
</g>
</g>
<g clip-path="url(#a)">
<g transform="translate(891.62 711.79) scale(.1 -.1)">
<use xlink:href="#c"/>
<use x="63.623047" xlink:href="#g"/>
<use x="95.410156" xlink:href="#o"/>
<use x="159.033203" xlink:href="#x"/>
</g>
</g>
<g clip-path="url(#a)">
<g transform="translate(1584.9 711.79) scale(.1 -.1)">
<use xlink:href="#c"/>
<use x="63.623047" xlink:href="#g"/>
<use x="95.410156" xlink:href="#o"/>
<use x="159.033203" xlink:href="#w"/>
</g>
</g>
<defs>
<clipPath id="a">
<rect width="1672" height="880"/>
</clipPath>
</defs>
</svg>
