<?xml version="1.0" encoding="UTF-8"?>
<!DOCTYPE svg  PUBLIC '-//W3C//DTD SVG 1.1//EN'  'http://www.w3.org/Graphics/SVG/1.1/DTD/svg11.dtd'>
<svg width="1064pt" height="560pt" version="1.1" viewBox="0 0 1064 560" xmlns="http://www.w3.org/2000/svg" xmlns:xlink="http://www.w3.org/1999/xlink">
<metadata>
<rdf:RDF xmlns:cc="http://creativecommons.org/ns#" xmlns:dc="http://purl.org/dc/elements/1.1/" xmlns:rdf="http://www.w3.org/1999/02/22-rdf-syntax-ns#">
<cc:Work>
<dc:type rdf:resource="http://purl.org/dc/dcmitype/StillImage"/>
<dc:date>2021-03-08T10:58:55.267202</dc:date>
<dc:format>image/svg+xml</dc:format>
<dc:creator>
<cc:Agent>
<dc:title>Matplotlib v3.3.3, https://matplotlib.org/</dc:title>
</cc:Agent>
</dc:creator>
</cc:Work>
</rdf:RDF>
</metadata>
<defs>
<style type="text/css">*{stroke-linecap:butt;stroke-linejoin:round;}</style>
</defs>
<path d="m0 560h1064v-560h-1064z" fill="#fff"/>
<g fill="none" stroke="#000">
<path d="m144.84 25.455v73.399" clip-path="url(#a)"/>
<path d="m144.84 98.854-80.034 219.35" clip-path="url(#a)"/>
<path d="m144.84 98.854-26.834 364.37" clip-path="url(#a)"/>
<path d="m144.84 98.854 0.24934 364.37" clip-path="url(#a)"/>
<path d="m144.84 98.854 156.67 73.277" clip-path="url(#a)"/>
<path d="m144.84 98.854-50.049 364.37" clip-path="url(#a)"/>
<path d="m64.807 318.2-10.64 72.697" clip-path="url(#a)"/>
<path d="m64.807 318.2 10.64 145.02" clip-path="url(#a)"/>
<path d="m118.01 463.22v71.326" clip-path="url(#a)"/>
<path d="m145.09 463.22v71.326" clip-path="url(#a)"/>
<path d="m301.51 172.13-108.06 218.77" clip-path="url(#a)"/>
<path d="m301.51 172.13 108.06 73.129" clip-path="url(#a)"/>
<path d="m193.45 390.9-17.411 72.318" clip-path="url(#a)"/>
<path d="m193.45 390.9 17.411 72.318" clip-path="url(#a)"/>
<path d="m409.56 245.26-160.01 217.96" clip-path="url(#a)"/>
<path d="m409.56 245.26-117.45 217.96" clip-path="url(#a)"/>
<path d="m409.56 245.26-71.019 217.96" clip-path="url(#a)"/>
<path d="m409.56 245.26 0.34392 72.945" clip-path="url(#a)"/>
<path d="m409.56 245.26 348.13 72.945" clip-path="url(#a)"/>
<path d="m249.56 463.22v71.326" clip-path="url(#a)"/>
<path d="m292.12 463.22v71.326" clip-path="url(#a)"/>
<path d="m338.55 463.22v71.326" clip-path="url(#a)"/>
<path d="m409.91 318.2-71.363 145.02" clip-path="url(#a)" stroke-dasharray="3.7,1.6"/>
<path d="m409.91 318.2-21.065 145.02" clip-path="url(#a)"/>
<path d="m409.91 318.2 92.428 72.697" clip-path="url(#a)"/>
<path d="m757.7 318.2-128.97 145.02" clip-path="url(#a)"/>
<path d="m757.7 318.2-59.326 145.02" clip-path="url(#a)"/>
<path d="m757.7 318.2 14.187 145.02" clip-path="url(#a)"/>
<path d="m757.7 318.2 174.11 72.697" clip-path="url(#a)"/>
<path d="m628.73 463.22v71.326" clip-path="url(#a)"/>
<path d="m698.37 463.22v71.326" clip-path="url(#a)"/>
<path d="m771.88 463.22v71.326" clip-path="url(#a)"/>
<path d="m931.81 390.9-82.541 72.318" clip-path="url(#a)"/>
<path d="m931.81 390.9-1.2897 72.318" clip-path="url(#a)"/>
<path d="m931.81 390.9 83.83 72.318" clip-path="url(#a)"/>
<path d="m849.27 463.22v71.326" clip-path="url(#a)"/>
<path d="m930.52 463.22v71.326" clip-path="url(#a)"/>
<path d="m388.84 463.22v71.326" clip-path="url(#a)"/>
<path d="m502.34 390.9-59.326 72.318" clip-path="url(#a)"/>
<path d="m502.34 390.9-1.2897 72.318" clip-path="url(#a)"/>
<path d="m502.34 390.9 60.616 72.318" clip-path="url(#a)"/>
<path d="m443.01 463.22v71.326" clip-path="url(#a)"/>
<path d="m501.05 463.22v71.326" clip-path="url(#a)"/>
<path d="m562.95 463.22v71.326" clip-path="url(#a)"/>
<path d="m176.04 463.22v71.326" clip-path="url(#a)"/>
<path d="m210.87 463.22v71.326" clip-path="url(#a)"/>
<path d="m54.167 390.9-5.8036 72.318" clip-path="url(#a)"/>
<path d="m54.167 390.9 5.8036 72.318" clip-path="url(#a)"/>
<path d="m75.447 463.22v71.326" clip-path="url(#a)"/>
<path d="m48.364 463.22v71.326" clip-path="url(#a)"/>
<path d="m59.971 463.22v71.326" clip-path="url(#a)"/>
<path d="m94.793 463.22v71.326" clip-path="url(#a)"/>
<path d="m1015.6 463.22v71.326" clip-path="url(#a)"/>
</g>
<path d="m138.57 59.146v6.0162q0 2.4 2.4 2.4h7.7425q2.4 0 2.4-2.4v-6.0162q0-2.4-2.4-2.4h-7.7425q-2.4 0-2.4 2.4z" clip-path="url(#a)" fill="#fff" stroke="#fff"/>
<g clip-path="url(#a)">
<g transform="translate(142.63 59.146) rotate(90) scale(.08 -.08)">
<defs>
<path id="an" d="m9.8125 72.906h9.8594v-29.891h35.844v29.891h9.8594v-72.906h-9.8594v34.719h-35.844v-34.719h-9.8594z"/>
</defs>
<use xlink:href="#an"/>
</g>
</g>
<path d="m109.88 212.97 1.6748-4.5902q0.82264-2.2546-1.432-3.0772l-7.2735-2.6539q-2.2546-0.82264-3.0772 1.432l-1.6748 4.5902q-0.82264 2.2546 1.432 3.0772l7.2735 2.6539q2.2546 0.82264 3.0772-1.432z" clip-path="url(#a)" fill="#fff" stroke="#fff"/>
<g clip-path="url(#a)">
<g transform="translate(106.06 211.58) rotate(-69.955) scale(.08 -.08)">
<defs>
<path id="l" d="m-0.29688 72.906h61.672v-8.3125h-25.875v-64.594h-9.9062v64.594h-25.891z"/>
</defs>
<use xlink:href="#l"/>
</g>
</g>
<path d="m137.48 284.23 0.40194-5.4577q0.17628-2.3935-2.2172-2.5698l-7.7216-0.56867q-2.3935-0.17627-2.5698 2.2172l-0.40194 5.4577q-0.17627 2.3935 2.2172 2.5698l7.7216 0.56867q2.3935 0.17627 2.5698-2.2172z" clip-path="url(#a)" fill="#fff" stroke="#fff"/>
<g clip-path="url(#a)">
<g transform="translate(133.42 283.93) rotate(-85.788) scale(.08 -.08)">
<defs>
<path id="s" d="m34.188 63.188-13.391-36.281h26.812zm-5.5781 9.7188h11.188l27.781-72.906h-10.25l-6.6406 18.703h-32.859l-6.6406-18.703h-10.406z"/>
</defs>
<use xlink:href="#s"/>
</g>
</g>
<path d="m138.69 278.63 0.003301 4.8237q0.001643 2.4 2.4016 2.3984l7.7425-0.005298q2.4-0.001643 2.3984-2.4016l-0.003301-4.8237q-0.001642-2.4-2.4016-2.3984l-7.7425 0.005298q-2.4 0.001643-2.3984 2.4016z" clip-path="url(#a)" fill="#fff" stroke="#fff"/>
<g clip-path="url(#a)">
<g transform="translate(142.76 278.63) rotate(89.961) scale(.08 -.08)">
<defs>
<path id="am" d="m19.672 64.797v-27.391h12.406q6.8906 0 10.641 3.5625 3.7656 3.5625 3.7656 10.156 0 6.5469-3.7656 10.109-3.75 3.5625-10.641 3.5625zm-9.8594 8.1094h22.266q12.266 0 18.531-5.5469 6.2812-5.5469 6.2812-16.234 0-10.797-6.2812-16.312-6.2656-5.5156-18.531-5.5156h-12.406v-29.297h-9.8594z"/>
</defs>
<use xlink:href="#am"/>
</g>
</g>
<path d="m218.04 140.01 4.9571 2.3185q2.174 1.0168 3.1908-1.1572l3.2802-7.0133q1.0168-2.174-1.1572-3.1908l-4.9571-2.3185q-2.174-1.0168-3.1908 1.1572l-3.2802 7.0133q-1.0168 2.174 1.1572 3.1908z" clip-path="url(#a)" fill="#fff" stroke="#fff"/>
<g clip-path="url(#a)">
<g transform="translate(219.76 136.33) rotate(25.066) scale(.08 -.08)">
<use xlink:href="#s"/>
</g>
</g>
<path d="m125.63 284.79 0.79676-5.8005q0.32659-2.3777-2.0511-2.7043l-7.6705-1.0536q-2.3777-0.32659-2.7043 2.0511l-0.79676 5.8005q-0.32659 2.3777 2.0511 2.7043l7.6705 1.0536q2.3777 0.32659 2.7043-2.0511z" clip-path="url(#a)" fill="#fff" stroke="#fff"/>
<g clip-path="url(#a)">
<g transform="translate(121.61 284.24) rotate(-82.179) scale(.08 -.08)">
<defs>
<path id="ah" d="m8.6875 72.906h9.9219v-44.297q0-11.719 4.2344-16.875 4.25-5.1406 13.781-5.1406 9.4688 0 13.719 5.1406 4.25 5.1562 4.25 16.875v44.297h9.9062v-45.516q0-14.25-7.0625-21.531-7.0469-7.2812-20.812-7.2812-13.828 0-20.891 7.2812-7.0469 7.2812-7.0469 21.531z"/>
</defs>
<use xlink:href="#ah"/>
</g>
</g>
<path d="m65.326 357.96 0.73205-5.0017q0.34756-2.3747-2.0271-2.7223l-7.6609-1.1212q-2.3747-0.34756-2.7223 2.0271l-0.73205 5.0017q-0.34756 2.3747 2.0271 2.7223l7.6609 1.1212q2.3747 0.34756 2.7223-2.0271z" clip-path="url(#a)" fill="#fff" stroke="#fff"/>
<g clip-path="url(#a)">
<g transform="translate(61.305 357.37) rotate(-81.673) scale(.08 -.08)">
<defs>
<path id="v" d="m9.8125 72.906h46.094v-8.3125h-36.234v-21.578h34.719v-8.2969h-34.719v-26.422h37.109v-8.2969h-46.969z"/>
</defs>
<use xlink:href="#v"/>
</g>
</g>
<path d="m63.668 388.39 0.40877 5.5713q0.17562 2.3936 2.5692 2.2179l7.7217-0.56656q2.3936-0.17562 2.2179-2.5692l-0.40877-5.5713q-0.17562-2.3936-2.5692-2.2179l-7.7217 0.56656q-2.3936 0.17562-2.2179 2.5692z" clip-path="url(#a)" fill="#fff" stroke="#fff"/>
<g clip-path="url(#a)">
<g transform="translate(67.721 388.09) rotate(85.804) scale(.08 -.08)">
<defs>
<path id="q" d="m64.406 67.281v-10.391q-4.9844 4.6406-10.625 6.9219-5.6406 2.2969-11.984 2.2969-12.5 0-19.141-7.6406t-6.6406-22.094q0-14.406 6.6406-22.047t19.141-7.6406q6.3438 0 11.984 2.2969t10.625 6.9375v-10.312q-5.1719-3.5156-10.969-5.2812-5.7812-1.75-12.219-1.75-16.562 0-26.094 10.125-9.5156 10.141-9.5156 27.672 0 17.578 9.5156 27.703 9.5312 10.141 26.094 10.141 6.5312 0 12.312-1.7344 5.7969-1.7344 10.875-5.2031z"/>
</defs>
<use xlink:href="#q"/>
</g>
</g>
<path d="m111.74 481.98v33.808q0 2.4 2.4 2.4h7.7425q2.4 0 2.4-2.4v-33.808q0-2.4-2.4-2.4h-7.7425q-2.4 0-2.4 2.4z" clip-path="url(#a)" fill="#fff" stroke="#fff"/>
<g clip-path="url(#a)">
<g transform="translate(115.8 481.98) rotate(90) scale(.08 -.08)">
<defs>
<path id="e" d="m56.203 29.594v-4.3906h-41.312q0.59375-9.2812 5.5938-14.141t13.938-4.8594q5.1719 0 10.031 1.2656t9.6562 3.8125v-8.5q-4.8438-2.0469-9.9219-3.125t-10.297-1.0781q-13.094 0-20.734 7.6094-7.6406 7.625-7.6406 20.625 0 13.422 7.25 21.297 7.25 7.8906 19.562 7.8906 11.031 0 17.453-7.1094 6.4219-7.0938 6.4219-19.297zm-8.9844 2.6406q-0.09375 7.3594-4.125 11.75-4.0312 4.4062-10.672 4.4062-7.5156 0-12.031-4.25t-5.2031-11.969z"/>
<path id="h" d="m41.109 46.297q-1.5156 0.875-3.2969 1.2812-1.7812 0.42188-3.9219 0.42188-7.625 0-11.703-4.9531t-4.0781-14.234v-28.812h-9.0312v54.688h9.0312v-8.5q2.8438 4.9844 7.375 7.3906 4.5469 2.4219 11.047 2.4219 0.92188 0 2.0469-0.125 1.125-0.10938 2.4844-0.35938z"/>
<path id="k" d="m52 44.188q3.375 6.0625 8.0625 8.9375t11.031 2.875q8.5469 0 13.188-5.9844 4.6406-5.9688 4.6406-17v-33.016h-9.0312v32.719q0 7.8594-2.7969 11.656-2.7812 3.8125-8.4844 3.8125-6.9844 0-11.047-4.6406-4.0469-4.625-4.0469-12.641v-30.906h-9.0312v32.719q0 7.9062-2.7812 11.688t-8.5938 3.7812q-6.8906 0-10.953-4.6562-4.0469-4.6562-4.0469-12.625v-30.906h-9.0312v54.688h9.0312v-8.5q3.0781 5.0312 7.375 7.4219t10.203 2.3906q5.9688 0 10.141-3.0312 4.1719-3.0156 6.1719-8.7812z"/>
<path id="j" d="m9.4219 54.688h8.9844v-54.688h-8.9844zm0 21.297h8.9844v-11.391h-8.9844z"/>
<path id="g" d="m54.891 33.016v-33.016h-8.9844v32.719q0 7.7656-3.0312 11.609-3.0312 3.8594-9.0781 3.8594-7.2812 0-11.484-4.6406-4.2031-4.625-4.2031-12.641v-30.906h-9.0312v54.688h9.0312v-8.5q3.2344 4.9375 7.5938 7.375 4.375 2.4375 10.094 2.4375 9.4219 0 14.25-5.8281 4.8438-5.8281 4.8438-17.156z"/>
<path id="f" d="m34.281 27.484q-10.891 0-15.094-2.4844t-4.2031-8.5q0-4.7812 3.1562-7.5938 3.1562-2.7969 8.5625-2.7969 7.4844 0 12 5.2969t4.5156 14.078v2zm17.922 3.7188v-31.203h-8.9844v8.2969q-3.0781-4.9688-7.6719-7.3438t-11.234-2.375q-8.3906 0-13.359 4.7188-4.9531 4.7188-4.9531 12.625 0 9.2188 6.1719 13.906 6.1875 4.6875 18.438 4.6875h12.609v0.89062q0 6.2031-4.0781 9.5938t-11.453 3.3906q-4.6875 0-9.1406-1.125-4.4375-1.125-8.5312-3.375v8.3125q4.9219 1.9062 9.5625 2.8438 4.6406 0.95312 9.0312 0.95312 11.875 0 17.734-6.1562 5.8594-6.1406 5.8594-18.641z"/>
<path id="i" d="m9.4219 75.984h8.9844v-75.984h-8.9844z"/>
</defs>
<use xlink:href="#l"/>
<use x="44.083984" xlink:href="#e"/>
<use x="105.607422" xlink:href="#h"/>
<use x="144.970703" xlink:href="#k"/>
<use x="242.382812" xlink:href="#j"/>
<use x="270.166016" xlink:href="#g"/>
<use x="333.544922" xlink:href="#f"/>
<use x="394.824219" xlink:href="#i"/>
</g>
</g>
<path d="m138.82 481.98v33.808q0 2.4 2.4 2.4h7.7425q2.4 0 2.4-2.4v-33.808q0-2.4-2.4-2.4h-7.7425q-2.4 0-2.4 2.4z" clip-path="url(#a)" fill="#fff" stroke="#fff"/>
<g clip-path="url(#a)">
<g transform="translate(142.88 481.98) rotate(90) scale(.08 -.08)">
<use xlink:href="#l"/>
<use x="44.083984" xlink:href="#e"/>
<use x="105.607422" xlink:href="#h"/>
<use x="144.970703" xlink:href="#k"/>
<use x="242.382812" xlink:href="#j"/>
<use x="270.166016" xlink:href="#g"/>
<use x="333.544922" xlink:href="#f"/>
<use x="394.824219" xlink:href="#i"/>
</g>
</g>
<path d="m251.98 286.57 2.2491-4.5536q1.0628-2.1518-1.089-3.2147l-6.9419-3.4287q-2.1518-1.0628-3.2147 1.089l-2.2491 4.5536q-1.0628 2.1518 1.089 3.2147l6.9419 3.4287q2.1518 1.0628 3.2147-1.089z" clip-path="url(#a)" fill="#fff" stroke="#fff"/>
<g clip-path="url(#a)">
<g transform="translate(248.34 284.77) rotate(-63.714) scale(.08 -.08)">
<defs>
<path id="ai" d="m53.516 70.516v-9.625q-5.6094 2.6875-10.594 4-4.9844 1.3281-9.625 1.3281-8.0469 0-12.422-3.125t-4.375-8.8906q0-4.8438 2.9062-7.3125 2.9062-2.4531 11.016-3.9688l5.9531-1.2188q11.031-2.1094 16.281-7.4062t5.25-14.172q0-10.609-7.1094-16.078-7.0938-5.4688-20.812-5.4688-5.1719 0-11.016 1.1719-5.8281 1.1719-12.078 3.4688v10.156q6-3.3594 11.766-5.0781 5.7656-1.7031 11.328-1.7031 8.4375 0 13.031 3.3125 4.5938 3.3281 4.5938 9.4844 0 5.3594-3.2969 8.3906t-10.812 4.5469l-6.0156 1.1719q-11.031 2.1875-15.969 6.875-4.9219 4.6875-4.9219 13.047 0 9.6719 6.8125 15.234t18.766 5.5625q5.1406 0 10.453-0.9375 5.3281-0.92188 10.891-2.7656z"/>
</defs>
<use xlink:href="#ai"/>
</g>
</g>
<path d="m349.76 212.36 4.5321 3.0672q1.9876 1.3452 3.3328-0.64244l4.3395-6.4121q1.3452-1.9876-0.64244-3.3328l-4.5321-3.0672q-1.9876-1.3452-3.3328 0.64244l-4.3395 6.4121q-1.3452 1.9876 0.64244 3.3328z" clip-path="url(#a)" fill="#fff" stroke="#fff"/>
<g clip-path="url(#a)">
<g transform="translate(352.03 208.99) rotate(34.089) scale(.08 -.08)">
<use xlink:href="#s"/>
</g>
</g>
<path d="m190.31 430.77 1.077-4.4734q0.56176-2.3333-1.7716-2.8951l-7.5274-1.8123q-2.3333-0.56176-2.8951 1.7716l-1.077 4.4734q-0.56176 2.3333 1.7716 2.8951l7.5274 1.8123q2.3333 0.56176 2.8951-1.7716z" clip-path="url(#a)" fill="#fff" stroke="#fff"/>
<g clip-path="url(#a)">
<g transform="translate(186.36 429.81) rotate(-76.463) scale(.08 -.08)">
<defs>
<path id="z" d="m9.8125 72.906h41.891v-8.3125h-32.031v-21.484h28.906v-8.2969h-28.906v-34.812h-9.8594z"/>
</defs>
<use xlink:href="#z"/>
</g>
</g>
<path d="m195.41 425.81 1.3076 5.4311q0.56176 2.3333 2.8951 1.7716l7.5274-1.8123q2.3333-0.56176 1.7716-2.8951l-1.3076-5.4311q-0.56176-2.3333-2.8951-1.7716l-7.5274 1.8123q-2.3333 0.56176-1.7716 2.8951z" clip-path="url(#a)" fill="#fff" stroke="#fff"/>
<g clip-path="url(#a)">
<g transform="translate(199.36 424.86) rotate(76.463) scale(.08 -.08)">
<use xlink:href="#q"/>
</g>
</g>
<path d="m332.97 360.19 3.2895-4.4809q1.4203-1.9346-0.51439-3.3549l-6.2413-4.5818q-1.9346-1.4203-3.3549 0.51439l-3.2895 4.4809q-1.4203 1.9346 0.51439 3.3549l6.2413 4.5818q1.9346 1.4203 3.3549-0.51439z" clip-path="url(#a)" fill="#fff" stroke="#fff"/>
<g clip-path="url(#a)">
<g transform="translate(329.7 357.79) rotate(-53.717) scale(.08 -.08)">
<defs>
<path id="u" d="m44.391 34.188q3.1719-1.0781 6.1719-4.5938t6.0312-9.6719l10.016-19.922h-10.609l-9.3125 18.703q-3.625 7.3281-7.0156 9.7188t-9.25 2.3906h-10.75v-30.812h-9.8594v72.906h22.266q12.5 0 18.656-5.2344 6.1562-5.2188 6.1562-15.766 0-6.8906-3.2031-11.438-3.2031-4.5312-9.2969-6.2812zm-24.719 30.609v-25.875h12.406q7.125 0 10.766 3.2969t3.6406 9.6875-3.6406 9.6406-10.766 3.25z"/>
</defs>
<use xlink:href="#u"/>
</g>
</g>
<path d="m355.27 359.24 2.1827-4.0506q1.1385-2.1128-0.9743-3.2513l-6.8159-3.6728q-2.1128-1.1385-3.2513 0.9743l-2.1827 4.0506q-1.1385 2.1128 0.9743 3.2513l6.8159 3.6728q2.1128 1.1385 3.2513-0.9743z" clip-path="url(#a)" fill="#fff" stroke="#fff"/>
<g clip-path="url(#a)">
<g transform="translate(351.69 357.31) rotate(-61.682) scale(.08 -.08)">
<use xlink:href="#z"/>
</g>
</g>
<path d="m379.15 358.84 1.7307-5.3114q0.74353-2.2819-1.5384-3.0255l-7.3616-2.3987q-2.2819-0.74353-3.0255 1.5384l-1.7307 5.3114q-0.74353 2.2819 1.5384 3.0255l7.3616 2.3987q2.2819 0.74353 3.0255-1.5384z" clip-path="url(#a)" fill="#fff" stroke="#fff"/>
<g clip-path="url(#a)">
<g transform="translate(375.29 357.58) rotate(-71.952) scale(.08 -.08)">
<use xlink:href="#q"/>
</g>
</g>
<path d="m403.45 279.23 0.023833 5.0549q0.011316 2.4 2.4113 2.3887l7.7424-0.036504q2.4-0.011316 2.3887-2.4113l-0.023833-5.0549q-0.011315-2.4-2.4113-2.3887l-7.7424 0.036504q-2.4 0.011315-2.3887 2.4113z" clip-path="url(#a)" fill="#fff" stroke="#fff"/>
<g clip-path="url(#a)">
<g transform="translate(407.52 279.22) rotate(89.73) scale(.08 -.08)">
<use xlink:href="#v"/>
</g>
</g>
<path d="m579.87 287.35 4.9476 1.0367q2.349 0.49219 2.8412-1.8568l1.5878-7.5779q0.49219-2.349-1.8568-2.8412l-4.9476-1.0367q-2.349-0.49219-2.8412 1.8568l-1.5878 7.5779q-0.49219 2.349 1.8568 2.8412z" clip-path="url(#a)" fill="#fff" stroke="#fff"/>
<g clip-path="url(#a)">
<g transform="translate(580.7 283.37) rotate(11.834) scale(.08 -.08)">
<use xlink:href="#v"/>
</g>
</g>
<path d="m243.29 481.98v33.808q0 2.4 2.4 2.4h7.7425q2.4 0 2.4-2.4v-33.808q0-2.4-2.4-2.4h-7.7425q-2.4 0-2.4 2.4z" clip-path="url(#a)" fill="#fff" stroke="#fff"/>
<g clip-path="url(#a)">
<g transform="translate(247.35 481.98) rotate(90) scale(.08 -.08)">
<use xlink:href="#l"/>
<use x="44.083984" xlink:href="#e"/>
<use x="105.607422" xlink:href="#h"/>
<use x="144.970703" xlink:href="#k"/>
<use x="242.382812" xlink:href="#j"/>
<use x="270.166016" xlink:href="#g"/>
<use x="333.544922" xlink:href="#f"/>
<use x="394.824219" xlink:href="#i"/>
</g>
</g>
<path d="m285.85 481.98v33.808q0 2.4 2.4 2.4h7.7425q2.4 0 2.4-2.4v-33.808q0-2.4-2.4-2.4h-7.7425q-2.4 0-2.4 2.4z" clip-path="url(#a)" fill="#fff" stroke="#fff"/>
<g clip-path="url(#a)">
<g transform="translate(289.91 481.98) rotate(90) scale(.08 -.08)">
<use xlink:href="#l"/>
<use x="44.083984" xlink:href="#e"/>
<use x="105.607422" xlink:href="#h"/>
<use x="144.970703" xlink:href="#k"/>
<use x="242.382812" xlink:href="#j"/>
<use x="270.166016" xlink:href="#g"/>
<use x="333.544922" xlink:href="#f"/>
<use x="394.824219" xlink:href="#i"/>
</g>
</g>
<path d="m332.27 481.98v33.808q0 2.4 2.4 2.4h7.7425q2.4 0 2.4-2.4v-33.808q0-2.4-2.4-2.4h-7.7425q-2.4 0-2.4 2.4z" clip-path="url(#a)" fill="#fff" stroke="#fff"/>
<g clip-path="url(#a)">
<g transform="translate(336.34 481.98) rotate(90) scale(.08 -.08)">
<use xlink:href="#l"/>
<use x="44.083984" xlink:href="#e"/>
<use x="105.607422" xlink:href="#h"/>
<use x="144.970703" xlink:href="#k"/>
<use x="242.382812" xlink:href="#j"/>
<use x="270.166016" xlink:href="#g"/>
<use x="333.544922" xlink:href="#f"/>
<use x="394.824219" xlink:href="#i"/>
</g>
</g>
<path d="m378.65 395.94 2.4163-4.9102q1.0597-2.1534-1.0937-3.2131l-6.9469-3.4186q-2.1534-1.0597-3.2131 1.0937l-2.4163 4.9102q-1.0597 2.1534 1.0937 3.2131l6.9469 3.4186q2.1534 1.0597 3.2131-1.0937z" clip-path="url(#a)" fill="#fff" stroke="#fff"/>
<g clip-path="url(#a)">
<g transform="translate(375 394.14) rotate(-63.798) scale(.08 -.08)">
<use xlink:href="#s"/>
</g>
</g>
<path d="m405.22 394.13 0.73008-5.026q0.34501-2.3751-2.0301-2.7201l-7.6621-1.113q-2.3751-0.34501-2.7201 2.0301l-0.73008 5.026q-0.34501 2.3751 2.0301 2.7201l7.6621 1.113q2.3751 0.345 2.7201-2.0301z" clip-path="url(#a)" fill="#fff" stroke="#fff"/>
<g clip-path="url(#a)">
<g transform="translate(401.2 393.54) rotate(-81.735) scale(.08 -.08)">
<use xlink:href="#ai"/>
</g>
</g>
<path d="m450.1 357.79 4.3014 3.3832q1.8864 1.4837 3.3701-0.4027l4.7865-6.0857q1.4837-1.8864-0.4027-3.3701l-4.3014-3.3832q-1.8864-1.4837-3.3701 0.4027l-4.7865 6.0857q-1.4837 1.8864 0.4027 3.3701z" clip-path="url(#a)" fill="#fff" stroke="#fff"/>
<g clip-path="url(#a)">
<g transform="translate(452.61 354.6) rotate(38.186) scale(.08 -.08)">
<use xlink:href="#s"/>
</g>
</g>
<path d="m696.05 396.96 3.6941-4.1537q1.5949-1.7934-0.19843-3.3883l-5.7855-5.1453q-1.7934-1.5949-3.3883 0.19843l-3.6941 4.1537q-1.5949 1.7934 0.19843 3.3883l5.7855 5.1453q1.7934 1.5949 3.3883-0.19843z" clip-path="url(#a)" fill="#fff" stroke="#fff"/>
<g clip-path="url(#a)">
<g transform="translate(693.01 394.26) rotate(-48.352) scale(.08 -.08)">
<use xlink:href="#u"/>
</g>
</g>
<path d="m732.97 395.22 1.7422-4.2587q0.90874-2.2213-1.3126-3.13l-7.166-2.9316q-2.2213-0.90874-3.13 1.3126l-1.7422 4.2587q-0.90874 2.2213 1.3126 3.13l7.166 2.9316q2.2213 0.90874 3.13-1.3126z" clip-path="url(#a)" fill="#fff" stroke="#fff"/>
<g clip-path="url(#a)">
<g transform="translate(729.21 393.68) rotate(-67.75) scale(.08 -.08)">
<use xlink:href="#z"/>
</g>
</g>
<path d="m758.28 388.54 0.5439 5.5597q0.23367 2.3886 2.6223 2.1549l7.7057-0.75384q2.3886-0.23367 2.1549-2.6223l-0.5439-5.5597q-0.23367-2.3886-2.6223-2.1549l-7.7057 0.75384q-2.3886 0.23367-2.1549 2.6223z" clip-path="url(#a)" fill="#fff" stroke="#fff"/>
<g clip-path="url(#a)">
<g transform="translate(762.32 388.15) rotate(84.413) scale(.08 -.08)">
<use xlink:href="#q"/>
</g>
</g>
<path d="m840 359.37 4.6647 1.9477q2.2147 0.92472 3.1394-1.29l2.9832-7.1447q0.92472-2.2147-1.29-3.1394l-4.6647-1.9477q-2.2147-0.92472-3.1394 1.29l-2.9832 7.1447q-0.92472 2.2147 1.29 3.1394z" clip-path="url(#a)" fill="#fff" stroke="#fff"/>
<g clip-path="url(#a)">
<g transform="translate(841.57 355.62) rotate(22.662) scale(.08 -.08)">
<use xlink:href="#v"/>
</g>
</g>
<path d="m622.46 481.98v33.808q0 2.4 2.4 2.4h7.7425q2.4 0 2.4-2.4v-33.808q0-2.4-2.4-2.4h-7.7425q-2.4 0-2.4 2.4z" clip-path="url(#a)" fill="#fff" stroke="#fff"/>
<g clip-path="url(#a)">
<g transform="translate(626.52 481.98) rotate(90) scale(.08 -.08)">
<use xlink:href="#l"/>
<use x="44.083984" xlink:href="#e"/>
<use x="105.607422" xlink:href="#h"/>
<use x="144.970703" xlink:href="#k"/>
<use x="242.382812" xlink:href="#j"/>
<use x="270.166016" xlink:href="#g"/>
<use x="333.544922" xlink:href="#f"/>
<use x="394.824219" xlink:href="#i"/>
</g>
</g>
<path d="m692.1 481.98v33.808q0 2.4 2.4 2.4h7.7425q2.4 0 2.4-2.4v-33.808q0-2.4-2.4-2.4h-7.7425q-2.4 0-2.4 2.4z" clip-path="url(#a)" fill="#fff" stroke="#fff"/>
<g clip-path="url(#a)">
<g transform="translate(696.16 481.98) rotate(90) scale(.08 -.08)">
<use xlink:href="#l"/>
<use x="44.083984" xlink:href="#e"/>
<use x="105.607422" xlink:href="#h"/>
<use x="144.970703" xlink:href="#k"/>
<use x="242.382812" xlink:href="#j"/>
<use x="270.166016" xlink:href="#g"/>
<use x="333.544922" xlink:href="#f"/>
<use x="394.824219" xlink:href="#i"/>
</g>
</g>
<path d="m765.61 481.98v33.808q0 2.4 2.4 2.4h7.7425q2.4 0 2.4-2.4v-33.808q0-2.4-2.4-2.4h-7.7425q-2.4 0-2.4 2.4z" clip-path="url(#a)" fill="#fff" stroke="#fff"/>
<g clip-path="url(#a)">
<g transform="translate(769.68 481.98) rotate(90) scale(.08 -.08)">
<use xlink:href="#l"/>
<use x="44.083984" xlink:href="#e"/>
<use x="105.607422" xlink:href="#h"/>
<use x="144.970703" xlink:href="#k"/>
<use x="242.382812" xlink:href="#j"/>
<use x="270.166016" xlink:href="#g"/>
<use x="333.544922" xlink:href="#f"/>
<use x="394.824219" xlink:href="#i"/>
</g>
</g>
<path d="m892.58 433.61 4.181-3.6632q1.8052-1.5816 0.22357-3.3867l-5.1023-5.8235q-1.5816-1.8052-3.3867-0.22357l-4.181 3.6632q-1.8052 1.5816-0.22357 3.3867l5.1023 5.8235q1.5816 1.8052 3.3867 0.22357z" clip-path="url(#a)" fill="#fff" stroke="#fff"/>
<g clip-path="url(#a)">
<g transform="translate(889.9 430.55) rotate(-41.223) scale(.08 -.08)">
<use xlink:href="#u"/>
</g>
</g>
<path d="m937.38 429.97 0.099608-5.5854q0.042794-2.3996-2.3568-2.4424l-7.7413-0.13806q-2.3996-0.042794-2.4424 2.3568l-0.099608 5.5854q-0.042794 2.3996 2.3568 2.4424l7.7413 0.13806q2.3996 0.042794 2.4424-2.3568z" clip-path="url(#a)" fill="#fff" stroke="#fff"/>
<g clip-path="url(#a)">
<g transform="translate(933.32 429.89) rotate(-88.978) scale(.08 -.08)">
<use xlink:href="#q"/>
</g>
</g>
<path d="m967.41 429.9 4.4333 3.8245q1.8172 1.5677 3.3849-0.24956l5.0574-5.8625q1.5677-1.8172-0.24956-3.3849l-4.4333-3.8245q-1.8172-1.5677-3.3849 0.24956l-5.0574 5.8625q-1.5677 1.8172 0.24956 3.3849z" clip-path="url(#a)" fill="#fff" stroke="#fff"/>
<g clip-path="url(#a)">
<g transform="translate(970.06 426.82) rotate(40.783) scale(.08 -.08)">
<use xlink:href="#ah"/>
</g>
</g>
<path d="m842.99 481.98v33.808q0 2.4 2.4 2.4h7.7425q2.4 0 2.4-2.4v-33.808q0-2.4-2.4-2.4h-7.7425q-2.4 0-2.4 2.4z" clip-path="url(#a)" fill="#fff" stroke="#fff"/>
<g clip-path="url(#a)">
<g transform="translate(847.06 481.98) rotate(90) scale(.08 -.08)">
<use xlink:href="#l"/>
<use x="44.083984" xlink:href="#e"/>
<use x="105.607422" xlink:href="#h"/>
<use x="144.970703" xlink:href="#k"/>
<use x="242.382812" xlink:href="#j"/>
<use x="270.166016" xlink:href="#g"/>
<use x="333.544922" xlink:href="#f"/>
<use x="394.824219" xlink:href="#i"/>
</g>
</g>
<path d="m924.25 481.98v33.808q0 2.4 2.4 2.4h7.7425q2.4 0 2.4-2.4v-33.808q0-2.4-2.4-2.4h-7.7425q-2.4 0-2.4 2.4z" clip-path="url(#a)" fill="#fff" stroke="#fff"/>
<g clip-path="url(#a)">
<g transform="translate(928.31 481.98) rotate(90) scale(.08 -.08)">
<use xlink:href="#l"/>
<use x="44.083984" xlink:href="#e"/>
<use x="105.607422" xlink:href="#h"/>
<use x="144.970703" xlink:href="#k"/>
<use x="242.382812" xlink:href="#j"/>
<use x="270.166016" xlink:href="#g"/>
<use x="333.544922" xlink:href="#f"/>
<use x="394.824219" xlink:href="#i"/>
</g>
</g>
<path d="m382.57 481.98v33.808q0 2.4 2.4 2.4h7.7425q2.4 0 2.4-2.4v-33.808q0-2.4-2.4-2.4h-7.7425q-2.4 0-2.4 2.4z" clip-path="url(#a)" fill="#fff" stroke="#fff"/>
<g clip-path="url(#a)">
<g transform="translate(386.64 481.98) rotate(90) scale(.08 -.08)">
<use xlink:href="#l"/>
<use x="44.083984" xlink:href="#e"/>
<use x="105.607422" xlink:href="#h"/>
<use x="144.970703" xlink:href="#k"/>
<use x="242.382812" xlink:href="#j"/>
<use x="270.166016" xlink:href="#g"/>
<use x="333.544922" xlink:href="#f"/>
<use x="394.824219" xlink:href="#i"/>
</g>
</g>
<path d="m475.76 433.19 3.5256-4.2977q1.5222-1.8555-0.33334-3.3777l-5.986-4.9106q-1.8555-1.5222-3.3777 0.33334l-3.5256 4.2977q-1.5222 1.8555 0.33334 3.3777l5.986 4.9106q1.8555 1.5222 3.3777-0.33334z" clip-path="url(#a)" fill="#fff" stroke="#fff"/>
<g clip-path="url(#a)">
<g transform="translate(472.62 430.61) rotate(-50.636) scale(.08 -.08)">
<use xlink:href="#u"/>
</g>
</g>
<path d="m507.91 430.32 0.11229-6.2965q0.042794-2.3996-2.3568-2.4424l-7.7413-0.13806q-2.3996-0.042794-2.4424 2.3568l-0.11229 6.2965q-0.042794 2.3996 2.3568 2.4424l7.7413 0.13806q2.3996 0.042794 2.4424-2.3568z" clip-path="url(#a)" fill="#fff" stroke="#fff"/>
<g clip-path="url(#a)">
<g transform="translate(503.84 430.25) rotate(-88.978) scale(.08 -.08)">
<defs>
<path id="y" d="m39.406 66.219q-10.75 0-17.078-8.0156-6.3125-8-6.3125-21.828 0-13.766 6.3125-21.781 6.3281-8 17.078-8 10.734 0 17.016 8 6.2812 8.0156 6.2812 21.781 0 13.828-6.2812 21.828-6.2812 8.0156-17.016 8.0156zm13.812-64.906 13-14.203h-11.922l-10.797 11.672q-1.6094-0.09375-2.4688-0.14062-0.84375-0.0625-1.625-0.0625-15.375 0-24.594 10.281-9.2031 10.281-9.2031 27.516 0 17.281 9.2031 27.562 9.2188 10.281 24.594 10.281 15.328 0 24.5-10.281 9.1875-10.281 9.1875-27.562 0-12.688-5.1094-21.734-5.0938-9.0312-14.766-13.328z"/>
</defs>
<use xlink:href="#y"/>
</g>
</g>
<path d="m526.04 428.95 3.5885 4.2812q1.5417 1.8393 3.381 0.29763l5.9338-4.9736q1.8393-1.5417 0.29763-3.381l-3.5885-4.2812q-1.5417-1.8393-3.381-0.29763l-5.9338 4.9736q-1.8393 1.5417-0.29763 3.381z" clip-path="url(#a)" fill="#fff" stroke="#fff"/>
<g clip-path="url(#a)">
<g transform="translate(529.16 426.34) rotate(50.031) scale(.08 -.08)">
<use xlink:href="#q"/>
</g>
</g>
<path d="m436.74 481.98v33.808q0 2.4 2.4 2.4h7.7425q2.4 0 2.4-2.4v-33.808q0-2.4-2.4-2.4h-7.7425q-2.4 0-2.4 2.4z" clip-path="url(#a)" fill="#fff" stroke="#fff"/>
<g clip-path="url(#a)">
<g transform="translate(440.8 481.98) rotate(90) scale(.08 -.08)">
<use xlink:href="#l"/>
<use x="44.083984" xlink:href="#e"/>
<use x="105.607422" xlink:href="#h"/>
<use x="144.970703" xlink:href="#k"/>
<use x="242.382812" xlink:href="#j"/>
<use x="270.166016" xlink:href="#g"/>
<use x="333.544922" xlink:href="#f"/>
<use x="394.824219" xlink:href="#i"/>
</g>
</g>
<path d="m494.78 481.98v33.808q0 2.4 2.4 2.4h7.7425q2.4 0 2.4-2.4v-33.808q0-2.4-2.4-2.4h-7.7425q-2.4 0-2.4 2.4z" clip-path="url(#a)" fill="#fff" stroke="#fff"/>
<g clip-path="url(#a)">
<g transform="translate(498.84 481.98) rotate(90) scale(.08 -.08)">
<use xlink:href="#l"/>
<use x="44.083984" xlink:href="#e"/>
<use x="105.607422" xlink:href="#h"/>
<use x="144.970703" xlink:href="#k"/>
<use x="242.382812" xlink:href="#j"/>
<use x="270.166016" xlink:href="#g"/>
<use x="333.544922" xlink:href="#f"/>
<use x="394.824219" xlink:href="#i"/>
</g>
</g>
<path d="m556.68 481.98v33.808q0 2.4 2.4 2.4h7.7425q2.4 0 2.4-2.4v-33.808q0-2.4-2.4-2.4h-7.7425q-2.4 0-2.4 2.4z" clip-path="url(#a)" fill="#fff" stroke="#fff"/>
<g clip-path="url(#a)">
<g transform="translate(560.75 481.98) rotate(90) scale(.08 -.08)">
<use xlink:href="#l"/>
<use x="44.083984" xlink:href="#e"/>
<use x="105.607422" xlink:href="#h"/>
<use x="144.970703" xlink:href="#k"/>
<use x="242.382812" xlink:href="#j"/>
<use x="270.166016" xlink:href="#g"/>
<use x="333.544922" xlink:href="#f"/>
<use x="394.824219" xlink:href="#i"/>
</g>
</g>
<path d="m169.77 481.98v33.808q0 2.4 2.4 2.4h7.7425q2.4 0 2.4-2.4v-33.808q0-2.4-2.4-2.4h-7.7425q-2.4 0-2.4 2.4z" clip-path="url(#a)" fill="#fff" stroke="#fff"/>
<g clip-path="url(#a)">
<g transform="translate(173.84 481.98) rotate(90) scale(.08 -.08)">
<use xlink:href="#l"/>
<use x="44.083984" xlink:href="#e"/>
<use x="105.607422" xlink:href="#h"/>
<use x="144.970703" xlink:href="#k"/>
<use x="242.382812" xlink:href="#j"/>
<use x="270.166016" xlink:href="#g"/>
<use x="333.544922" xlink:href="#f"/>
<use x="394.824219" xlink:href="#i"/>
</g>
</g>
<path d="m204.59 481.98v33.808q0 2.4 2.4 2.4h7.7425q2.4 0 2.4-2.4v-33.808q0-2.4-2.4-2.4h-7.7425q-2.4 0-2.4 2.4z" clip-path="url(#a)" fill="#fff" stroke="#fff"/>
<g clip-path="url(#a)">
<g transform="translate(208.66 481.98) rotate(90) scale(.08 -.08)">
<use xlink:href="#l"/>
<use x="44.083984" xlink:href="#e"/>
<use x="105.607422" xlink:href="#h"/>
<use x="144.970703" xlink:href="#k"/>
<use x="242.382812" xlink:href="#j"/>
<use x="270.166016" xlink:href="#g"/>
<use x="333.544922" xlink:href="#f"/>
<use x="394.824219" xlink:href="#i"/>
</g>
</g>
<path d="m57.265 430.7 0.50376-6.2773q0.19199-2.3923-2.2003-2.5843l-7.7177-0.61936q-2.3923-0.19199-2.5843 2.2003l-0.50377 6.2773q-0.19199 2.3923 2.2003 2.5843l7.7177 0.61936q2.3923 0.19199 2.5843-2.2003z" clip-path="url(#a)" fill="#fff" stroke="#fff"/>
<g clip-path="url(#a)">
<g transform="translate(53.214 430.38) rotate(-85.412) scale(.08 -.08)">
<use xlink:href="#y"/>
</g>
</g>
<path d="m50.595 424.78 0.44687 5.5683q0.19199 2.3923 2.5843 2.2003l7.7177-0.61936q2.3923-0.19199 2.2003-2.5843l-0.44687-5.5683q-0.19199-2.3923-2.5843-2.2003l-7.7177 0.61936q-2.3923 0.19199-2.2003 2.5843z" clip-path="url(#a)" fill="#fff" stroke="#fff"/>
<g clip-path="url(#a)">
<g transform="translate(54.645 424.45) rotate(85.412) scale(.08 -.08)">
<use xlink:href="#q"/>
</g>
</g>
<path d="m69.176 481.98v33.808q0 2.4 2.4 2.4h7.7425q2.4 0 2.4-2.4v-33.808q0-2.4-2.4-2.4h-7.7425q-2.4 0-2.4 2.4z" clip-path="url(#a)" fill="#fff" stroke="#fff"/>
<g clip-path="url(#a)">
<g transform="translate(73.24 481.98) rotate(90) scale(.08 -.08)">
<use xlink:href="#l"/>
<use x="44.083984" xlink:href="#e"/>
<use x="105.607422" xlink:href="#h"/>
<use x="144.970703" xlink:href="#k"/>
<use x="242.382812" xlink:href="#j"/>
<use x="270.166016" xlink:href="#g"/>
<use x="333.544922" xlink:href="#f"/>
<use x="394.824219" xlink:href="#i"/>
</g>
</g>
<path d="m42.092 481.98v33.808q0 2.4 2.4 2.4h7.7425q2.4 0 2.4-2.4v-33.808q0-2.4-2.4-2.4h-7.7425q-2.4 0-2.4 2.4z" clip-path="url(#a)" fill="#fff" stroke="#fff"/>
<g clip-path="url(#a)">
<g transform="translate(46.156 481.98) rotate(90) scale(.08 -.08)">
<use xlink:href="#l"/>
<use x="44.083984" xlink:href="#e"/>
<use x="105.607422" xlink:href="#h"/>
<use x="144.970703" xlink:href="#k"/>
<use x="242.382812" xlink:href="#j"/>
<use x="270.166016" xlink:href="#g"/>
<use x="333.544922" xlink:href="#f"/>
<use x="394.824219" xlink:href="#i"/>
</g>
</g>
<path d="m53.7 481.98v33.808q0 2.4 2.4 2.4h7.7425q2.4 0 2.4-2.4v-33.808q0-2.4-2.4-2.4h-7.7425q-2.4 0-2.4 2.4z" clip-path="url(#a)" fill="#fff" stroke="#fff"/>
<g clip-path="url(#a)">
<g transform="translate(57.763 481.98) rotate(90) scale(.08 -.08)">
<use xlink:href="#l"/>
<use x="44.083984" xlink:href="#e"/>
<use x="105.607422" xlink:href="#h"/>
<use x="144.970703" xlink:href="#k"/>
<use x="242.382812" xlink:href="#j"/>
<use x="270.166016" xlink:href="#g"/>
<use x="333.544922" xlink:href="#f"/>
<use x="394.824219" xlink:href="#i"/>
</g>
</g>
<path d="m88.521 481.98v33.808q0 2.4 2.4 2.4h7.7425q2.4 0 2.4-2.4v-33.808q0-2.4-2.4-2.4h-7.7425q-2.4 0-2.4 2.4z" clip-path="url(#a)" fill="#fff" stroke="#fff"/>
<g clip-path="url(#a)">
<g transform="translate(92.585 481.98) rotate(90) scale(.08 -.08)">
<use xlink:href="#l"/>
<use x="44.083984" xlink:href="#e"/>
<use x="105.607422" xlink:href="#h"/>
<use x="144.970703" xlink:href="#k"/>
<use x="242.382812" xlink:href="#j"/>
<use x="270.166016" xlink:href="#g"/>
<use x="333.544922" xlink:href="#f"/>
<use x="394.824219" xlink:href="#i"/>
</g>
</g>
<path d="m1009.4 481.98v33.808q0 2.4 2.4 2.4h7.7425q2.4 0 2.4-2.4v-33.808q0-2.4-2.4-2.4h-7.7425q-2.4 0-2.4 2.4z" clip-path="url(#a)" fill="#fff" stroke="#fff"/>
<g clip-path="url(#a)">
<g transform="translate(1013.4 481.98) rotate(90) scale(.08 -.08)">
<use xlink:href="#l"/>
<use x="44.083984" xlink:href="#e"/>
<use x="105.607422" xlink:href="#h"/>
<use x="144.970703" xlink:href="#k"/>
<use x="242.382812" xlink:href="#j"/>
<use x="270.166016" xlink:href="#g"/>
<use x="333.544922" xlink:href="#f"/>
<use x="394.824219" xlink:href="#i"/>
</g>
</g>
<defs>
<path id="b" d="m0 8.6603c2.2967 0 4.4997-0.9125 6.1237-2.5365 1.624-1.624 2.5365-3.827 2.5365-6.1237s-0.9125-4.4997-2.5365-6.1237c-1.624-1.624-3.827-2.5365-6.1237-2.5365s-4.4997 0.9125-6.1237 2.5365c-1.624 1.624-2.5365 3.827-2.5365 6.1237s0.9125 4.4997 2.5365 6.1237c1.624 1.624 3.827 2.5365 6.1237 2.5365z"/>
</defs>
<g clip-path="url(#a)" fill="#ffffff" stroke="#ffffff">
<use x="48.363636" y="534.545455" xlink:href="#b"/>
<use x="59.970909" y="534.545455" xlink:href="#b"/>
<use x="75.447273" y="534.545455" xlink:href="#b"/>
<use x="94.792727" y="534.545455" xlink:href="#b"/>
<use x="118.007273" y="534.545455" xlink:href="#b"/>
<use x="145.090909" y="534.545455" xlink:href="#b"/>
<use x="176.043636" y="534.545455" xlink:href="#b"/>
<use x="210.865455" y="534.545455" xlink:href="#b"/>
<use x="249.556364" y="534.545455" xlink:href="#b"/>
<use x="292.116364" y="534.545455" xlink:href="#b"/>
<use x="338.545455" y="534.545455" xlink:href="#b"/>
<use x="388.843636" y="534.545455" xlink:href="#b"/>
<use x="443.010909" y="534.545455" xlink:href="#b"/>
<use x="501.047273" y="534.545455" xlink:href="#b"/>
<use x="562.952727" y="534.545455" xlink:href="#b"/>
<use x="628.727273" y="534.545455" xlink:href="#b"/>
<use x="698.370909" y="534.545455" xlink:href="#b"/>
<use x="771.883636" y="534.545455" xlink:href="#b"/>
<use x="849.265455" y="534.545455" xlink:href="#b"/>
<use x="930.516364" y="534.545455" xlink:href="#b"/>
<use x="1015.636364" y="534.545455" xlink:href="#b"/>
<use x="144.841568" y="25.454545" xlink:href="#b"/>
<use x="144.841568" y="98.853958" xlink:href="#b"/>
<use x="64.807273" y="318.204477" xlink:href="#b"/>
<use x="118.007273" y="463.219709" xlink:href="#b"/>
<use x="145.090909" y="463.219709" xlink:href="#b"/>
<use x="301.509657" y="172.13057" xlink:href="#b"/>
<use x="193.454545" y="390.901743" xlink:href="#b"/>
<use x="409.564768" y="245.25979" xlink:href="#b"/>
<use x="249.556364" y="463.219709" xlink:href="#b"/>
<use x="292.116364" y="463.219709" xlink:href="#b"/>
<use x="338.545455" y="463.219709" xlink:href="#b"/>
<use x="409.908687" y="318.204477" xlink:href="#b"/>
<use x="757.69697" y="318.204477" xlink:href="#b"/>
<use x="628.727273" y="463.219709" xlink:href="#b"/>
<use x="698.370909" y="463.219709" xlink:href="#b"/>
<use x="771.883636" y="463.219709" xlink:href="#b"/>
<use x="931.806061" y="390.901743" xlink:href="#b"/>
<use x="849.265455" y="463.219709" xlink:href="#b"/>
<use x="930.516364" y="463.219709" xlink:href="#b"/>
<use x="388.843636" y="463.219709" xlink:href="#b"/>
<use x="502.33697" y="390.901743" xlink:href="#b"/>
<use x="443.010909" y="463.219709" xlink:href="#b"/>
<use x="501.047273" y="463.219709" xlink:href="#b"/>
<use x="562.952727" y="463.219709" xlink:href="#b"/>
<use x="176.043636" y="463.219709" xlink:href="#b"/>
<use x="210.865455" y="463.219709" xlink:href="#b"/>
<use x="54.167273" y="390.901743" xlink:href="#b"/>
<use x="75.447273" y="463.219709" xlink:href="#b"/>
<use x="48.363636" y="463.219709" xlink:href="#b"/>
<use x="59.970909" y="463.219709" xlink:href="#b"/>
<use x="94.792727" y="463.219709" xlink:href="#b"/>
<use x="1015.636364" y="463.219709" xlink:href="#b"/>
</g>
<g clip-path="url(#a)">
<g transform="translate(24.769 537.3) scale(.1 -.1)">
<defs>
<path id="r" d="m8.5 21.578v33.109h8.9844v-32.766q0-7.7656 3.0156-11.656 3.0312-3.875 9.0938-3.875 7.2656 0 11.484 4.6406 4.2344 4.6406 4.2344 12.656v31h8.9844v-54.688h-8.9844v8.4062q-3.2656-4.9844-7.5938-7.4062-4.3125-2.4219-10.031-2.4219-9.4219 0-14.312 5.8594-4.875 5.8594-4.875 17.141z"/>
<path id="ap" d="m14.797 27.297q0-9.9062 4.0781-15.547t11.203-5.6406 11.219 5.6406q4.1094 5.6406 4.1094 15.547t-4.1094 15.547q-4.0938 5.6406-11.219 5.6406t-11.203-5.6406-4.0781-15.547zm30.609-19.094q-2.8281-4.875-7.1562-7.25-4.3125-2.375-10.375-2.375-9.9062 0-16.141 7.9062-6.2188 7.9219-6.2188 20.812t6.2188 20.797q6.2344 7.9062 16.141 7.9062 6.0625 0 10.375-2.375 4.3281-2.3594 7.1562-7.2344v8.2969h8.9844v-75.484h-8.9844z"/>
<path id="o" d="m44.281 53.078v-8.5q-3.7969 1.9531-7.9062 2.9219-4.0938 0.98438-8.5 0.98438-6.6875 0-10.031-2.0469t-3.3438-6.1562q0-3.125 2.3906-4.9062t9.625-3.3906l3.0781-0.6875q9.5625-2.0469 13.594-5.7812t4.0312-10.422q0-7.625-6.0312-12.078-6.0312-4.4375-16.578-4.4375-4.3906 0-9.1562 0.85938t-10.031 2.5625v9.2812q4.9844-2.5938 9.8125-3.8906 4.8281-1.2812 9.5781-1.2812 6.3438 0 9.75 2.1719 3.4219 2.1719 3.4219 6.125 0 3.6562-2.4688 5.6094-2.4531 1.9531-10.812 3.7656l-3.125 0.73438q-8.3438 1.75-12.062 5.3906-3.7031 3.6406-3.7031 9.9844 0 7.7188 5.4688 11.906 5.4688 4.2031 15.531 4.2031 4.9688 0 9.3594-0.73438 4.4062-0.71875 8.1094-2.1875z"/>
</defs>
<use xlink:href="#y"/>
<use x="78.710938" xlink:href="#r"/>
<use x="142.089844" xlink:href="#e"/>
<use x="203.613281" xlink:href="#i"/>
<use x="231.396484" xlink:href="#ap"/>
<use x="294.873047" xlink:href="#r"/>
<use x="358.251953" xlink:href="#e"/>
<use x="419.775391" xlink:href="#o"/>
</g>
</g>
<g clip-path="url(#a)">
<g transform="translate(40.051 537.3) scale(.1 -.1)">
<defs>
<path id="n" d="m18.312 70.219v-15.531h18.5v-6.9844h-18.5v-29.688q0-6.6875 1.8281-8.5938t7.4531-1.9062h9.2188v-7.5156h-9.2188q-10.406 0-14.359 3.875-3.9531 3.8906-3.9531 14.141v29.688h-6.5938v6.9844h6.5938v15.531z"/>
</defs>
<use xlink:href="#j"/>
<use x="27.783203" xlink:href="#g"/>
<use x="91.162109" xlink:href="#o"/>
<use x="143.261719" xlink:href="#n"/>
<use x="182.470703" xlink:href="#f"/>
<use x="243.75" xlink:href="#g"/>
<use x="307.128906" xlink:href="#n"/>
<use x="346.337891" xlink:href="#o"/>
</g>
</g>
<g clip-path="url(#a)">
<g transform="translate(61.585 537.5) scale(.1 -.1)">
<defs>
<path id="aq" d="m18.109 8.2031v-29h-9.0312v75.484h9.0312v-8.2969q2.8438 4.875 7.1562 7.2344 4.3281 2.375 10.328 2.375 9.9688 0 16.188-7.9062 6.2344-7.9062 6.2344-20.797t-6.2344-20.812q-6.2188-7.9062-16.188-7.9062-6 0-10.328 2.375-4.3125 2.375-7.1562 7.25zm30.578 19.094q0 9.9062-4.0781 15.547t-11.203 5.6406q-7.1406 0-11.219-5.6406t-4.0781-15.547 4.0781-15.547 11.219-5.6406q7.125 0 11.203 5.6406t4.0781 15.547z"/>
<path id="af" d="m56.203 29.594v-4.3906h-41.312q0.59375-9.2812 5.5938-14.141t13.938-4.8594q5.1719 0 10.031 1.2656t9.6562 3.8125v-8.5q-4.8438-2.0469-9.9219-3.125t-10.297-1.0781q-13.094 0-20.734 7.6094-7.6406 7.625-7.6406 20.625 0 13.422 7.25 21.297 7.25 7.8906 19.562 7.8906 11.031 0 17.453-7.1094 6.4219-7.0938 6.4219-19.297zm-8.9844 2.6406q-0.09375 7.3594-4.125 11.75-4.0312 4.4062-10.672 4.4062-7.5156 0-12.031-4.25t-5.2031-11.969zm-22.547 47.75 13.766-18.266h-7.4688l-15.922 18.266z"/>
</defs>
<use xlink:href="#f"/>
<use x="61.279297" xlink:href="#aq"/>
<use x="124.755859" xlink:href="#h"/>
<use x="163.619141" xlink:href="#af"/>
<use x="225.142578" xlink:href="#o"/>
</g>
</g>
<g clip-path="url(#a)">
<g transform="translate(93.204 537.3) scale(.1 -.1)">
<defs>
<path id="ao" d="m11.719 12.406h10.297v-8.4062l-8-15.625h-6.2969l4 15.625z"/>
</defs>
<use xlink:href="#ao"/>
</g>
</g>
<g clip-path="url(#a)">
<g transform="translate(111.78 537.3) scale(.1 -.1)">
<defs>
<path id="ag" d="m30.609 48.391q-7.2188 0-11.422-5.6406t-4.2031-15.453 4.1719-15.453q4.1875-5.6406 11.453-5.6406 7.1875 0 11.375 5.6562 4.2031 5.6719 4.2031 15.438 0 9.7188-4.2031 15.406-4.1875 5.6875-11.375 5.6875zm0 7.6094q11.719 0 18.406-7.625 6.7031-7.6094 6.7031-21.078 0-13.422-6.7031-21.078-6.6875-7.6406-18.406-7.6406-11.766 0-18.438 7.6406-6.6562 7.6562-6.6562 21.078 0 13.469 6.6562 21.078 6.6719 7.625 18.438 7.625z"/>
</defs>
<use xlink:href="#ag"/>
<use x="61.181641" xlink:href="#g"/>
</g>
</g>
<g clip-path="url(#a)">
<g transform="translate(120.11 537.3) scale(.1 -.1)">
<defs>
<path id="x" d="m48.781 52.594v-8.4062q-3.8125 2.1094-7.6406 3.1562t-7.7344 1.0469q-8.75 0-13.594-5.5469-4.8281-5.5312-4.8281-15.547t4.8281-15.562q4.8438-5.5312 13.594-5.5312 3.9062 0 7.7344 1.0469t7.6406 3.1562v-8.3125q-3.7656-1.75-7.7969-2.625-4.0156-0.89062-8.5625-0.89062-12.359 0-19.641 7.7656-7.2656 7.7656-7.2656 20.953 0 13.375 7.3438 21.031 7.3594 7.6719 20.156 7.6719 4.1406 0 8.0938-0.85938 3.9531-0.84375 7.6719-2.5469z"/>
</defs>
<use xlink:href="#x"/>
<use x="54.980469" xlink:href="#ag"/>
<use x="116.162109" xlink:href="#g"/>
<use x="179.541016" xlink:href="#o"/>
<use x="231.640625" xlink:href="#n"/>
<use x="270.849609" xlink:href="#f"/>
<use x="332.128906" xlink:href="#n"/>
<use x="371.337891" xlink:href="#f"/>
<use x="432.617188" xlink:href="#j"/>
<use x="460.400391" xlink:href="#n"/>
</g>
</g>
<g clip-path="url(#a)">
<g transform="translate(173.28 537.3) scale(.1 -.1)">
<defs>
<path id="ak" d="m17.922 72.906v-27.109h-8.2969v27.109z"/>
</defs>
<use xlink:href="#i"/>
<use x="27.783203" xlink:href="#ak"/>
</g>
</g>
<g clip-path="url(#a)">
<g transform="translate(186.89 537.3) scale(.1 -.1)">
<defs>
<path id="al" d="m54.891 54.688-19.781-26.609 20.797-28.078h-10.594l-15.922 21.484-15.906-21.484h-10.609l21.25 28.609-19.438 26.078h10.594l14.5-19.484 14.5 19.484z"/>
</defs>
<use xlink:href="#e"/>
<use x="59.773438" xlink:href="#al"/>
<use x="118.953125" xlink:href="#j"/>
<use x="146.736328" xlink:href="#o"/>
<use x="198.835938" xlink:href="#n"/>
<use x="238.044922" xlink:href="#e"/>
<use x="299.568359" xlink:href="#g"/>
<use x="362.947266" xlink:href="#x"/>
<use x="417.927734" xlink:href="#e"/>
</g>
</g>
<g clip-path="url(#a)">
<g transform="translate(245.01 537.3) scale(.1 -.1)">
<defs>
<path id="t" d="m45.406 46.391v29.594h8.9844v-75.984h-8.9844v8.2031q-2.8281-4.875-7.1562-7.25-4.3125-2.375-10.375-2.375-9.9062 0-16.141 7.9062-6.2188 7.9219-6.2188 20.812t6.2188 20.797q6.2344 7.9062 16.141 7.9062 6.0625 0 10.375-2.375 4.3281-2.3594 7.1562-7.2344zm-30.609-19.094q0-9.9062 4.0781-15.547t11.203-5.6406 11.219 5.6406q4.1094 5.6406 4.1094 15.547t-4.1094 15.547q-4.0938 5.6406-11.219 5.6406t-11.203-5.6406-4.0781-15.547z"/>
</defs>
<use xlink:href="#t"/>
<use x="63.476562" xlink:href="#ak"/>
</g>
</g>
<g clip-path="url(#a)">
<g transform="translate(285.78 537.3) scale(.1 -.1)">
<use xlink:href="#r"/>
<use x="63.378906" xlink:href="#g"/>
</g>
</g>
<g clip-path="url(#a)">
<g transform="translate(328.41 537.3) scale(.1 -.1)">
<use xlink:href="#n"/>
<use x="39.208984" xlink:href="#h"/>
<use x="78.072266" xlink:href="#ag"/>
<use x="139.253906" xlink:href="#r"/>
</g>
</g>
<g clip-path="url(#a)">
<g transform="translate(376.17 537.3) scale(.1 -.1)">
<defs>
<path id="ar" d="m45.406 27.984q0 9.7656-4.0312 15.125-4.0156 5.375-11.297 5.375-7.2188 0-11.25-5.375-4.0312-5.3594-4.0312-15.125 0-9.7188 4.0312-15.094t11.25-5.375q7.2812 0 11.297 5.375 4.0312 5.375 4.0312 15.094zm8.9844-21.203q0-13.953-6.2031-20.766-6.1875-6.8125-18.984-6.8125-4.7344 0-8.9375 0.70312t-8.1562 2.1719v8.7344q3.9531-2.1406 7.8125-3.1562 3.8594-1.0312 7.8594-1.0312 8.8438 0 13.234 4.6094t4.3906 13.938v4.4531q-2.7812-4.8438-7.125-7.2344t-10.406-2.3906q-10.047 0-16.203 7.6562-6.1562 7.6719-6.1562 20.328 0 12.688 6.1562 20.344 6.1562 7.6719 16.203 7.6719 6.0625 0 10.406-2.3906t7.125-7.2188v8.2969h8.9844z"/>
</defs>
<use xlink:href="#i"/>
<use x="27.783203" xlink:href="#f"/>
<use x="89.0625" xlink:href="#h"/>
<use x="128.425781" xlink:href="#ar"/>
<use x="191.902344" xlink:href="#e"/>
</g>
</g>
<g clip-path="url(#a)">
<g transform="translate(436.76 537.3) scale(.1 -.1)">
<use xlink:href="#t"/>
<use x="63.476562" xlink:href="#e"/>
</g>
</g>
<g clip-path="url(#a)">
<g transform="translate(488.67 537.3) scale(.1 -.1)">
<use xlink:href="#t"/>
<use x="63.476562" xlink:href="#e"/>
<use x="125" xlink:href="#r"/>
<use x="188.378906" xlink:href="#al"/>
</g>
</g>
<g clip-path="url(#a)">
<g transform="translate(545.42 537.3) scale(.1 -.1)">
<use xlink:href="#k"/>
<use x="97.412109" xlink:href="#af"/>
<use x="158.935547" xlink:href="#n"/>
<use x="198.144531" xlink:href="#h"/>
<use x="237.007812" xlink:href="#e"/>
<use x="298.53125" xlink:href="#o"/>
</g>
</g>
<g clip-path="url(#a)">
<g transform="translate(616.72 537.3) scale(.1 -.1)">
<use xlink:href="#t"/>
<use x="63.476562" xlink:href="#f"/>
<use x="124.755859" xlink:href="#g"/>
<use x="188.134766" xlink:href="#o"/>
</g>
</g>
<g clip-path="url(#a)">
<g transform="translate(693.92 537.3) scale(.1 -.1)">
<use xlink:href="#i"/>
<use x="27.783203" xlink:href="#f"/>
</g>
</g>
<g clip-path="url(#a)">
<g transform="translate(754.81 537.3) scale(.1 -.1)">
<use xlink:href="#x"/>
<use x="54.980469" xlink:href="#f"/>
<use x="116.259766" xlink:href="#h"/>
<use x="155.123047" xlink:href="#af"/>
<use x="216.646484" xlink:href="#g"/>
<use x="280.025391" xlink:href="#e"/>
</g>
</g>
<g clip-path="url(#a)">
<g transform="translate(842.92 537.3) scale(.1 -.1)">
<use xlink:href="#t"/>
<use x="63.476562" xlink:href="#r"/>
</g>
</g>
<g clip-path="url(#a)">
<g transform="translate(909.81 537.3) scale(.1 -.1)">
<use xlink:href="#o"/>
<use x="52.099609" xlink:href="#n"/>
<use x="91.308594" xlink:href="#e"/>
<use x="152.832031" xlink:href="#f"/>
<use x="214.111328" xlink:href="#k"/>
<use x="311.523438" xlink:href="#e"/>
<use x="373.046875" xlink:href="#h"/>
</g>
</g>
<g clip-path="url(#a)">
<g transform="translate(1014 537.3) scale(.1 -.1)">
<defs>
<path id="d" d="m10.688 12.406h10.312v-12.406h-10.312z"/>
</defs>
<use xlink:href="#d"/>
</g>
</g>
<g clip-path="url(#a)">
<g transform="translate(136.89 28.214) scale(.1 -.1)">
<defs>
<path id="c" d="m12.406 8.2969h16.109v55.625l-17.531-3.5156v8.9844l17.438 3.5156h9.8594v-64.609h16.109v-8.2969h-41.984z"/>
</defs>
<use xlink:href="#c"/>
<use x="63.623047" xlink:href="#d"/>
<use x="95.410156" xlink:href="#c"/>
</g>
</g>
<g clip-path="url(#a)">
<g transform="translate(136.89 101.61) scale(.1 -.1)">
<defs>
<path id="m" d="m19.188 8.2969h34.422v-8.2969h-46.281v8.2969q5.6094 5.8125 15.297 15.594 9.7031 9.7969 12.188 12.641 4.7344 5.3125 6.6094 9 1.8906 3.6875 1.8906 7.25 0 5.8125-4.0781 9.4688-4.0781 3.6719-10.625 3.6719-4.6406 0-9.7969-1.6094-5.1406-1.6094-11-4.8906v9.9688q5.9531 2.3906 11.125 3.6094 5.1875 1.2188 9.4844 1.2188 11.328 0 18.062-5.6719 6.7344-5.6562 6.7344-15.125 0-4.5-1.6875-8.5312-1.6719-4.0156-6.125-9.4844-1.2188-1.4219-7.7656-8.1875-6.5312-6.7656-18.453-18.922z"/>
</defs>
<use xlink:href="#c"/>
<use x="63.623047" xlink:href="#d"/>
<use x="95.410156" xlink:href="#m"/>
</g>
</g>
<g clip-path="url(#a)">
<g transform="translate(56.856 320.96) scale(.1 -.1)">
<defs>
<path id="w" d="m37.797 64.312-24.906-38.922h24.906zm-2.5938 8.5938h12.406v-47.516h10.406v-8.2031h-10.406v-17.188h-9.8125v17.188h-32.906v9.5156z"/>
</defs>
<use xlink:href="#c"/>
<use x="63.623047" xlink:href="#d"/>
<use x="95.410156" xlink:href="#w"/>
</g>
</g>
<g clip-path="url(#a)">
<g transform="translate(110.06 465.98) scale(.1 -.1)">
<defs>
<path id="ad" d="m10.797 72.906h38.719v-8.3125h-29.688v-17.859q2.1406 0.73438 4.2812 1.0938 2.1562 0.35938 4.3125 0.35938 12.203 0 19.328-6.6875 7.1406-6.6875 7.1406-18.109 0-11.766-7.3281-18.297-7.3281-6.5156-20.656-6.5156-4.5938 0-9.3594 0.78125-4.75 0.78125-9.8281 2.3438v9.9219q4.3906-2.3906 9.0781-3.5625t9.9062-1.1719q8.4531 0 13.375 4.4375 4.9375 4.4375 4.9375 12.062 0 7.6094-4.9375 12.047-4.9219 4.4531-13.375 4.4531-3.9531 0-7.8906-0.875-3.9219-0.875-8.0156-2.7344z"/>
</defs>
<use xlink:href="#c"/>
<use x="63.623047" xlink:href="#d"/>
<use x="95.410156" xlink:href="#ad"/>
</g>
</g>
<g clip-path="url(#a)">
<g transform="translate(137.14 465.98) scale(.1 -.1)">
<defs>
<path id="ac" d="m33.016 40.375q-6.6406 0-10.531-4.5469-3.875-4.5312-3.875-12.438 0-7.8594 3.875-12.438 3.8906-4.5625 10.531-4.5625t10.516 4.5625q3.875 4.5781 3.875 12.438 0 7.9062-3.875 12.438-3.875 4.5469-10.516 4.5469zm19.578 30.922v-8.9844q-3.7188 1.75-7.5 2.6719-3.7812 0.9375-7.5 0.9375-9.7656 0-14.922-6.5938-5.1406-6.5938-5.875-19.922 2.875 4.25 7.2188 6.5156 4.3594 2.2656 9.5781 2.2656 10.984 0 17.359-6.6719 6.375-6.6562 6.375-18.125 0-11.234-6.6406-18.031-6.6406-6.7812-17.672-6.7812-12.656 0-19.344 9.6875-6.6875 9.7031-6.6875 28.109 0 17.281 8.2031 27.562t22.016 10.281q3.7188 0 7.5-0.73438t7.8906-2.1875z"/>
</defs>
<use xlink:href="#c"/>
<use x="63.623047" xlink:href="#d"/>
<use x="95.410156" xlink:href="#ac"/>
</g>
</g>
<g clip-path="url(#a)">
<g transform="translate(293.56 174.89) scale(.1 -.1)">
<defs>
<path id="ab" d="m8.2031 72.906h46.875v-4.2031l-26.469-68.703h-10.297l24.906 64.594h-35.016z"/>
</defs>
<use xlink:href="#c"/>
<use x="63.623047" xlink:href="#d"/>
<use x="95.410156" xlink:href="#ab"/>
</g>
</g>
<g clip-path="url(#a)">
<g transform="translate(185.5 393.66) scale(.1 -.1)">
<defs>
<path id="aa" d="m10.984 1.5156v8.9844q3.7188-1.7656 7.5156-2.6875 3.8125-0.92188 7.4844-0.92188 9.7656 0 14.906 6.5625 5.1562 6.5625 5.8906 19.953-2.8281-4.2031-7.1875-6.4531-4.3438-2.25-9.6094-2.25-10.938 0-17.312 6.6094-6.375 6.625-6.375 18.109 0 11.219 6.6406 18 6.6406 6.7969 17.672 6.7969 12.656 0 19.312-9.7031 6.6719-9.6875 6.6719-28.141 0-17.234-8.1875-27.516-8.1719-10.281-21.984-10.281-3.7188 0-7.5312 0.73438-3.7969 0.73438-7.9062 2.2031zm19.625 30.906q6.6406 0 10.516 4.5312 3.8906 4.5469 3.8906 12.469 0 7.8594-3.8906 12.422-3.875 4.5625-10.516 4.5625t-10.516-4.5625-3.875-12.422q0-7.9219 3.875-12.469 3.875-4.5312 10.516-4.5312z"/>
</defs>
<use xlink:href="#c"/>
<use x="63.623047" xlink:href="#d"/>
<use x="95.410156" xlink:href="#aa"/>
</g>
</g>
<g clip-path="url(#a)">
<g transform="translate(398.43 248.02) scale(.1 -.1)">
<defs>
<path id="ae" d="m31.781 66.406q-7.6094 0-11.453-7.5-3.8281-7.4844-3.8281-22.531 0-14.984 3.8281-22.484 3.8438-7.5 11.453-7.5 7.6719 0 11.5 7.5 3.8438 7.5 3.8438 22.484 0 15.047-3.8438 22.531-3.8281 7.5-11.5 7.5zm0 7.8125q12.266 0 18.734-9.7031 6.4688-9.6875 6.4688-28.141 0-18.406-6.4688-28.109-6.4688-9.6875-18.734-9.6875-12.25 0-18.719 9.6875-6.4688 9.7031-6.4688 28.109 0 18.453 6.4688 28.141 6.4688 9.7031 18.719 9.7031z"/>
</defs>
<use xlink:href="#c"/>
<use x="63.623047" xlink:href="#d"/>
<use x="95.410156" xlink:href="#c"/>
<use x="159.033203" xlink:href="#ae"/>
</g>
</g>
<g clip-path="url(#a)">
<g transform="translate(238.42 465.98) scale(.1 -.1)">
<use xlink:href="#c"/>
<use x="63.623047" xlink:href="#d"/>
<use x="95.410156" xlink:href="#c"/>
<use x="159.033203" xlink:href="#c"/>
</g>
</g>
<g clip-path="url(#a)">
<g transform="translate(280.98 465.98) scale(.1 -.1)">
<use xlink:href="#c"/>
<use x="63.623047" xlink:href="#d"/>
<use x="95.410156" xlink:href="#c"/>
<use x="159.033203" xlink:href="#m"/>
</g>
</g>
<g clip-path="url(#a)">
<g transform="translate(327.41 465.98) scale(.1 -.1)">
<defs>
<path id="p" d="m40.578 39.312q7.0781-1.5156 11.047-6.3125 3.9844-4.7812 3.9844-11.812 0-10.781-7.4219-16.703-7.4219-5.9062-21.094-5.9062-4.5781 0-9.4375 0.90625t-10.031 2.7188v9.5156q4.0938-2.3906 8.9688-3.6094 4.8906-1.2188 10.219-1.2188 9.2656 0 14.125 3.6562t4.8594 10.641q0 6.4531-4.5156 10.078-4.5156 3.6406-12.562 3.6406h-8.5v8.1094h8.8906q7.2656 0 11.125 2.9062t3.8594 8.375q0 5.6094-3.9844 8.6094-3.9688 3.0156-11.391 3.0156-4.0625 0-8.7031-0.89062-4.6406-0.875-10.203-2.7188v8.7812q5.625 1.5625 10.531 2.3438t9.25 0.78125q11.234 0 17.766-5.1094 6.5469-5.0938 6.5469-13.781 0-6.0625-3.4688-10.234t-9.8594-5.7812z"/>
</defs>
<use xlink:href="#c"/>
<use x="63.623047" xlink:href="#d"/>
<use x="95.410156" xlink:href="#c"/>
<use x="159.033203" xlink:href="#p"/>
</g>
</g>
<g clip-path="url(#a)">
<g transform="translate(398.78 320.96) scale(.1 -.1)">
<use xlink:href="#c"/>
<use x="63.623047" xlink:href="#d"/>
<use x="95.410156" xlink:href="#c"/>
<use x="159.033203" xlink:href="#w"/>
</g>
</g>
<g clip-path="url(#a)">
<g transform="translate(746.56 320.96) scale(.1 -.1)">
<use xlink:href="#c"/>
<use x="63.623047" xlink:href="#d"/>
<use x="95.410156" xlink:href="#c"/>
<use x="159.033203" xlink:href="#ad"/>
</g>
</g>
<g clip-path="url(#a)">
<g transform="translate(617.59 465.98) scale(.1 -.1)">
<use xlink:href="#c"/>
<use x="63.623047" xlink:href="#d"/>
<use x="95.410156" xlink:href="#c"/>
<use x="159.033203" xlink:href="#ac"/>
</g>
</g>
<g clip-path="url(#a)">
<g transform="translate(687.24 465.98) scale(.1 -.1)">
<use xlink:href="#c"/>
<use x="63.623047" xlink:href="#d"/>
<use x="95.410156" xlink:href="#c"/>
<use x="159.033203" xlink:href="#ab"/>
</g>
</g>
<g clip-path="url(#a)">
<g transform="translate(760.75 465.98) scale(.1 -.1)">
<defs>
<path id="aj" d="m31.781 34.625q-7.0312 0-11.062-3.7656-4.0156-3.7656-4.0156-10.344 0-6.5938 4.0156-10.359 4.0312-3.7656 11.062-3.7656t11.078 3.7812q4.0625 3.7969 4.0625 10.344 0 6.5781-4.0312 10.344-4.0156 3.7656-11.109 3.7656zm-9.8594 4.1875q-6.3438 1.5625-9.8906 5.9062-3.5312 4.3594-3.5312 10.609 0 8.7344 6.2188 13.812 6.2344 5.0781 17.062 5.0781 10.891 0 17.094-5.0781t6.2031-13.812q0-6.25-3.5469-10.609-3.5312-4.3438-9.8281-5.9062 7.125-1.6562 11.094-6.5 3.9844-4.8281 3.9844-11.797 0-10.609-6.4688-16.281-6.4688-5.6562-18.531-5.6562-12.047 0-18.531 5.6562-6.4688 5.6719-6.4688 16.281 0 6.9688 4 11.797 4.0156 4.8438 11.141 6.5zm-3.6094 15.578q0-5.6562 3.5312-8.8281 3.5469-3.1719 9.9375-3.1719 6.3594 0 9.9375 3.1719 3.5938 3.1719 3.5938 8.8281 0 5.6719-3.5938 8.8438-3.5781 3.1719-9.9375 3.1719-6.3906 0-9.9375-3.1719-3.5312-3.1719-3.5312-8.8438z"/>
</defs>
<use xlink:href="#c"/>
<use x="63.623047" xlink:href="#d"/>
<use x="95.410156" xlink:href="#c"/>
<use x="159.033203" xlink:href="#aj"/>
</g>
</g>
<g clip-path="url(#a)">
<g transform="translate(920.67 393.66) scale(.1 -.1)">
<use xlink:href="#c"/>
<use x="63.623047" xlink:href="#d"/>
<use x="95.410156" xlink:href="#c"/>
<use x="159.033203" xlink:href="#aa"/>
</g>
</g>
<g clip-path="url(#a)">
<g transform="translate(838.13 465.98) scale(.1 -.1)">
<use xlink:href="#c"/>
<use x="63.623047" xlink:href="#d"/>
<use x="95.410156" xlink:href="#m"/>
<use x="159.033203" xlink:href="#ae"/>
</g>
</g>
<g clip-path="url(#a)">
<g transform="translate(919.38 465.98) scale(.1 -.1)">
<use xlink:href="#c"/>
<use x="63.623047" xlink:href="#d"/>
<use x="95.410156" xlink:href="#m"/>
<use x="159.033203" xlink:href="#c"/>
</g>
</g>
<g clip-path="url(#a)">
<g transform="translate(377.71 465.98) scale(.1 -.1)">
<use xlink:href="#c"/>
<use x="63.623047" xlink:href="#d"/>
<use x="95.410156" xlink:href="#m"/>
<use x="159.033203" xlink:href="#m"/>
</g>
</g>
<g clip-path="url(#a)">
<g transform="translate(491.2 393.66) scale(.1 -.1)">
<use xlink:href="#c"/>
<use x="63.623047" xlink:href="#d"/>
<use x="95.410156" xlink:href="#m"/>
<use x="159.033203" xlink:href="#p"/>
</g>
</g>
<g clip-path="url(#a)">
<g transform="translate(431.88 465.98) scale(.1 -.1)">
<use xlink:href="#c"/>
<use x="63.623047" xlink:href="#d"/>
<use x="95.410156" xlink:href="#m"/>
<use x="159.033203" xlink:href="#w"/>
</g>
</g>
<g clip-path="url(#a)">
<g transform="translate(489.91 465.98) scale(.1 -.1)">
<use xlink:href="#c"/>
<use x="63.623047" xlink:href="#d"/>
<use x="95.410156" xlink:href="#m"/>
<use x="159.033203" xlink:href="#ad"/>
</g>
</g>
<g clip-path="url(#a)">
<g transform="translate(551.82 465.98) scale(.1 -.1)">
<use xlink:href="#c"/>
<use x="63.623047" xlink:href="#d"/>
<use x="95.410156" xlink:href="#m"/>
<use x="159.033203" xlink:href="#ac"/>
</g>
</g>
<g clip-path="url(#a)">
<g transform="translate(164.91 465.98) scale(.1 -.1)">
<use xlink:href="#c"/>
<use x="63.623047" xlink:href="#d"/>
<use x="95.410156" xlink:href="#m"/>
<use x="159.033203" xlink:href="#ab"/>
</g>
</g>
<g clip-path="url(#a)">
<g transform="translate(199.73 465.98) scale(.1 -.1)">
<use xlink:href="#c"/>
<use x="63.623047" xlink:href="#d"/>
<use x="95.410156" xlink:href="#m"/>
<use x="159.033203" xlink:href="#aj"/>
</g>
</g>
<g clip-path="url(#a)">
<g transform="translate(43.034 393.66) scale(.1 -.1)">
<use xlink:href="#c"/>
<use x="63.623047" xlink:href="#d"/>
<use x="95.410156" xlink:href="#m"/>
<use x="159.033203" xlink:href="#aa"/>
</g>
</g>
<g clip-path="url(#a)">
<g transform="translate(64.314 465.98) scale(.1 -.1)">
<use xlink:href="#c"/>
<use x="63.623047" xlink:href="#d"/>
<use x="95.410156" xlink:href="#p"/>
<use x="159.033203" xlink:href="#ae"/>
</g>
</g>
<g clip-path="url(#a)">
<g transform="translate(37.231 465.98) scale(.1 -.1)">
<use xlink:href="#c"/>
<use x="63.623047" xlink:href="#d"/>
<use x="95.410156" xlink:href="#p"/>
<use x="159.033203" xlink:href="#c"/>
</g>
</g>
<g clip-path="url(#a)">
<g transform="translate(48.838 465.98) scale(.1 -.1)">
<use xlink:href="#c"/>
<use x="63.623047" xlink:href="#d"/>
<use x="95.410156" xlink:href="#p"/>
<use x="159.033203" xlink:href="#m"/>
</g>
</g>
<g clip-path="url(#a)">
<g transform="translate(83.66 465.98) scale(.1 -.1)">
<use xlink:href="#c"/>
<use x="63.623047" xlink:href="#d"/>
<use x="95.410156" xlink:href="#p"/>
<use x="159.033203" xlink:href="#p"/>
</g>
</g>
<g clip-path="url(#a)">
<g transform="translate(1004.5 465.98) scale(.1 -.1)">
<use xlink:href="#c"/>
<use x="63.623047" xlink:href="#d"/>
<use x="95.410156" xlink:href="#p"/>
<use x="159.033203" xlink:href="#w"/>
</g>
</g>
<defs>
<clipPath id="a">
<rect width="1064" height="560"/>
</clipPath>
</defs>
</svg>
