<?xml version="1.0" encoding="UTF-8"?>
<!DOCTYPE svg  PUBLIC '-//W3C//DTD SVG 1.1//EN'  'http://www.w3.org/Graphics/SVG/1.1/DTD/svg11.dtd'>
<svg width="1976pt" height="1040pt" version="1.1" viewBox="0 0 1976 1040" xmlns="http://www.w3.org/2000/svg" xmlns:xlink="http://www.w3.org/1999/xlink">
<metadata>
<rdf:RDF xmlns:cc="http://creativecommons.org/ns#" xmlns:dc="http://purl.org/dc/elements/1.1/" xmlns:rdf="http://www.w3.org/1999/02/22-rdf-syntax-ns#">
<cc:Work>
<dc:type rdf:resource="http://purl.org/dc/dcmitype/StillImage"/>
<dc:date>2021-06-09T07:15:33.730564</dc:date>
<dc:format>image/svg+xml</dc:format>
<dc:creator>
<cc:Agent>
<dc:title>Matplotlib v3.3.3, https://matplotlib.org/</dc:title>
</cc:Agent>
</dc:creator>
</cc:Work>
</rdf:RDF>
</metadata>
<defs>
<style type="text/css">*{stroke-linecap:butt;stroke-linejoin:round;}</style>
</defs>
<path d="m0 1040h1976v-1040h-1976z" fill="#fff"/>
<g fill="none" stroke="#000">
<path d="m117.06 47.273-27.246 861.54" clip-path="url(#a)"/>
<path d="m117.06 47.273 27.246 86.769" clip-path="url(#a)"/>
<path d="m89.818 908.81v83.914" clip-path="url(#a)"/>
<path d="m144.31 134.04-43.499 689.69" clip-path="url(#a)"/>
<path d="m144.31 134.04-28.108 774.77" clip-path="url(#a)"/>
<path d="m144.31 134.04-14.915 774.77" clip-path="url(#a)"/>
<path d="m144.31 134.04 86.521 86.682" clip-path="url(#a)"/>
<path d="m100.81 823.73-4.3975 85.081" clip-path="url(#a)"/>
<path d="m100.81 823.73 4.3975 85.081" clip-path="url(#a)"/>
<path d="m116.2 908.81v83.914" clip-path="url(#a)"/>
<path d="m129.4 908.81v83.914" clip-path="url(#a)"/>
<path d="m230.83 220.72-86.046 688.09" clip-path="url(#a)"/>
<path d="m230.83 220.72-58.561 603.01" clip-path="url(#a)"/>
<path d="m230.83 220.72-48.667 688.09" clip-path="url(#a)"/>
<path d="m230.83 220.72 219.95 86.586" clip-path="url(#a)"/>
<path d="m230.83 220.72-26.68 688.09" clip-path="url(#a)"/>
<path d="m144.79 908.81v83.914" clip-path="url(#a)"/>
<path d="m172.27 823.73 9.8943 85.081" clip-path="url(#a)" stroke-dasharray="3.7,1.6"/>
<path d="m172.27 823.73-9.8943 85.081" clip-path="url(#a)"/>
<path d="m182.16 908.81v83.914" clip-path="url(#a)"/>
<path d="m450.79 307.31-222.45 601.5" clip-path="url(#a)"/>
<path d="m450.79 307.31-196.06 601.5" clip-path="url(#a)"/>
<path d="m450.79 307.31-167.48 601.5" clip-path="url(#a)"/>
<path d="m450.79 307.31 585.99 86.477" clip-path="url(#a)"/>
<path d="m228.34 908.81v83.914" clip-path="url(#a)"/>
<path d="m254.72 908.81v83.914" clip-path="url(#a)"/>
<path d="m283.31 908.81v83.914" clip-path="url(#a)"/>
<path d="m1036.8 393.79-722.69 515.03" clip-path="url(#a)"/>
<path d="m1036.8 393.79 592.15 515.03" clip-path="url(#a)"/>
<path d="m1036.8 393.79 3.9284 86.354" clip-path="url(#a)"/>
<path d="m1036.8 393.79 126.6 86.354" clip-path="url(#a)"/>
<path d="m314.09 908.81v83.914" clip-path="url(#a)"/>
<path d="m1628.9 908.81v83.914" clip-path="url(#a)"/>
<path d="m1040.7 480.14-757.4 428.67" clip-path="url(#a)" stroke-dasharray="3.7,1.6"/>
<path d="m1040.7 480.14-540.11 86.209" clip-path="url(#a)"/>
<path d="m1040.7 480.14 350.76 428.67" clip-path="url(#a)"/>
<path d="m1040.7 480.14 467.3 428.67" clip-path="url(#a)"/>
<path d="m1040.7 480.14 203.45 428.67" clip-path="url(#a)"/>
<path d="m1040.7 480.14 276.01 428.67" clip-path="url(#a)"/>
<path d="m1163.4 480.14-880.07 428.67" clip-path="url(#a)" stroke-dasharray="3.7,1.6"/>
<path d="m1163.4 480.14 591.98 428.67" clip-path="url(#a)"/>
<path d="m1163.4 480.14-662.79 86.209" clip-path="url(#a)" stroke-dasharray="3.7,1.6"/>
<path d="m1163.4 480.14 228.09 428.67" clip-path="url(#a)" stroke-dasharray="3.7,1.6"/>
<path d="m1163.4 480.14 722.8 428.67" clip-path="url(#a)"/>
<path d="m1755.4 908.81-42.875 83.914" clip-path="url(#a)"/>
<path d="m1755.4 908.81 42.875 83.914" clip-path="url(#a)"/>
<path d="m500.59 566.35-153.52 342.46" clip-path="url(#a)"/>
<path d="m500.59 566.35-118.34 342.46" clip-path="url(#a)"/>
<path d="m500.59 566.35 271.86 86.036" clip-path="url(#a)"/>
<path d="m1391.5 908.81v83.914" clip-path="url(#a)"/>
<path d="m1508 908.81-39.577 83.914" clip-path="url(#a)"/>
<path d="m1508 908.81 39.577 83.914" clip-path="url(#a)"/>
<path d="m347.07 908.81v83.914" clip-path="url(#a)"/>
<path d="m382.25 908.81v83.914" clip-path="url(#a)"/>
<path d="m772.45 652.39-371.51 171.35" clip-path="url(#a)"/>
<path d="m772.45 652.39-313.25 256.43" clip-path="url(#a)"/>
<path d="m772.45 652.39-173.04 85.819" clip-path="url(#a)"/>
<path d="m772.45 652.39 204.56 256.43" clip-path="url(#a)"/>
<path d="m772.45 652.39 203.46 256.43" clip-path="url(#a)"/>
<path d="m772.45 652.39 367.26 171.35" clip-path="url(#a)"/>
<path d="m772.45 652.39 82.526 256.43" clip-path="url(#a)"/>
<path d="m400.94 823.73-18.689 85.081" clip-path="url(#a)" stroke-dasharray="3.7,1.6"/>
<path d="m400.94 823.73 18.689 85.081" clip-path="url(#a)"/>
<path d="m459.21 908.81v83.914" clip-path="url(#a)"/>
<path d="m599.41 738.2-98.43 170.61" clip-path="url(#a)"/>
<path d="m599.41 738.2-54.455 170.61" clip-path="url(#a)"/>
<path d="m599.41 738.2-31.369 85.528" clip-path="url(#a)"/>
<path d="m599.41 738.2 144.16 85.528" clip-path="url(#a)"/>
<path d="m599.41 738.2 40.09 170.61" clip-path="url(#a)"/>
<path d="m977.01 908.81-62.664 83.914" clip-path="url(#a)"/>
<path d="m977.01 908.81 62.664 83.914" clip-path="url(#a)"/>
<path d="m975.91 908.81v83.914" clip-path="url(#a)"/>
<path d="m1139.7 823.73-34.08 85.081" clip-path="url(#a)"/>
<path d="m1139.7 823.73 34.08 85.081" clip-path="url(#a)"/>
<path d="m1105.6 908.81v83.914" clip-path="url(#a)"/>
<path d="m1173.8 908.81v83.914" clip-path="url(#a)"/>
<path d="m500.98 908.81v83.914" clip-path="url(#a)"/>
<path d="m544.96 908.81v83.914" clip-path="url(#a)"/>
<path d="m568.04 823.73-23.087 85.081" clip-path="url(#a)" stroke-dasharray="3.7,1.6"/>
<path d="m568.04 823.73 23.087 85.081" clip-path="url(#a)"/>
<path d="m743.57 823.73-53.502 85.081" clip-path="url(#a)"/>
<path d="m743.57 823.73-0.73291 85.081" clip-path="url(#a)"/>
<path d="m743.57 823.73 54.235 85.081" clip-path="url(#a)"/>
<path d="m690.07 908.81v83.914" clip-path="url(#a)"/>
<path d="m742.84 908.81v83.914" clip-path="url(#a)"/>
<path d="m797.81 908.81v83.914" clip-path="url(#a)"/>
<path d="m591.13 908.81v83.914" clip-path="url(#a)"/>
<path d="m419.63 908.81v83.914" clip-path="url(#a)"/>
<path d="m162.38 908.81v83.914" clip-path="url(#a)"/>
<path d="m96.414 908.81v83.914" clip-path="url(#a)"/>
<path d="m105.21 908.81v83.914" clip-path="url(#a)"/>
<path d="m204.15 908.81v83.914" clip-path="url(#a)"/>
<path d="m639.5 908.81v83.914" clip-path="url(#a)"/>
<path d="m854.98 908.81v83.914" clip-path="url(#a)"/>
<path d="m1244.2 908.81v83.914" clip-path="url(#a)"/>
<path d="m1316.7 908.81v83.914" clip-path="url(#a)"/>
<path d="m1886.2 908.81v83.914" clip-path="url(#a)"/>
</g>
<path d="m109.64 480.47 0.1409-4.4553q0.075862-2.3988-2.3229-2.4747l-7.7386-0.24473q-2.3988-0.075862-2.4747 2.3229l-0.1409 4.4553q-0.075862 2.3988 2.3229 2.4747l7.7386 0.24473q2.3988 0.075862 2.4747-2.3229z" clip-path="url(#a)" fill="#fff" stroke="#fff"/>
<g clip-path="url(#a)">
<g transform="translate(105.58 480.34) rotate(-88.189) scale(.08 -.08)">
<defs>
<path id="ap" d="m9.8125 72.906h9.8594v-64.609h35.5v-8.2969h-45.359z"/>
</defs>
<use xlink:href="#ap"/>
</g>
</g>
<path d="m123.8 89.666 1.8024 5.7399q0.719 2.2898 3.0088 1.5708l7.3869-2.3195q2.2898-0.719 1.5708-3.0088l-1.8024-5.7399q-0.719-2.2898-3.0088-1.5708l-7.3869 2.3195q-2.2898 0.719-1.5708 3.0088z" clip-path="url(#a)" fill="#fff" stroke="#fff"/>
<g clip-path="url(#a)">
<g transform="translate(127.68 88.449) rotate(72.567) scale(.08 -.08)">
<defs>
<path id="al" d="m9.8125 72.906h9.8594v-29.891h35.844v29.891h9.8594v-72.906h-9.8594v34.719h-35.844v-34.719h-9.8594z"/>
</defs>
<use xlink:href="#al"/>
</g>
</g>
<path d="m83.547 933.87v33.808q0 2.4 2.4 2.4h7.7425q2.4 0 2.4-2.4v-33.808q0-2.4-2.4-2.4h-7.7425q-2.4 0-2.4 2.4z" clip-path="url(#a)" fill="#fff" stroke="#fff"/>
<g clip-path="url(#a)">
<g transform="translate(87.611 933.87) rotate(90) scale(.08 -.08)">
<defs>
<path id="l" d="m-0.29688 72.906h61.672v-8.3125h-25.875v-64.594h-9.9062v64.594h-25.891z"/>
<path id="d" d="m56.203 29.594v-4.3906h-41.312q0.59375-9.2812 5.5938-14.141t13.938-4.8594q5.1719 0 10.031 1.2656t9.6562 3.8125v-8.5q-4.8438-2.0469-9.9219-3.125t-10.297-1.0781q-13.094 0-20.734 7.6094-7.6406 7.625-7.6406 20.625 0 13.422 7.25 21.297 7.25 7.8906 19.562 7.8906 11.031 0 17.453-7.1094 6.4219-7.0938 6.4219-19.297zm-8.9844 2.6406q-0.09375 7.3594-4.125 11.75-4.0312 4.4062-10.672 4.4062-7.5156 0-12.031-4.25t-5.2031-11.969z"/>
<path id="f" d="m41.109 46.297q-1.5156 0.875-3.2969 1.2812-1.7812 0.42188-3.9219 0.42188-7.625 0-11.703-4.9531t-4.0781-14.234v-28.812h-9.0312v54.688h9.0312v-8.5q2.8438 4.9844 7.375 7.3906 4.5469 2.4219 11.047 2.4219 0.92188 0 2.0469-0.125 1.125-0.10938 2.4844-0.35938z"/>
<path id="k" d="m52 44.188q3.375 6.0625 8.0625 8.9375t11.031 2.875q8.5469 0 13.188-5.9844 4.6406-5.9688 4.6406-17v-33.016h-9.0312v32.719q0 7.8594-2.7969 11.656-2.7812 3.8125-8.4844 3.8125-6.9844 0-11.047-4.6406-4.0469-4.625-4.0469-12.641v-30.906h-9.0312v32.719q0 7.9062-2.7812 11.688t-8.5938 3.7812q-6.8906 0-10.953-4.6562-4.0469-4.6562-4.0469-12.625v-30.906h-9.0312v54.688h9.0312v-8.5q3.0781 5.0312 7.375 7.4219t10.203 2.3906q5.9688 0 10.141-3.0312 4.1719-3.0156 6.1719-8.7812z"/>
<path id="i" d="m9.4219 54.688h8.9844v-54.688h-8.9844zm0 21.297h8.9844v-11.391h-8.9844z"/>
<path id="h" d="m54.891 33.016v-33.016h-8.9844v32.719q0 7.7656-3.0312 11.609-3.0312 3.8594-9.0781 3.8594-7.2812 0-11.484-4.6406-4.2031-4.625-4.2031-12.641v-30.906h-9.0312v54.688h9.0312v-8.5q3.2344 4.9375 7.5938 7.375 4.375 2.4375 10.094 2.4375 9.4219 0 14.25-5.8281 4.8438-5.8281 4.8438-17.156z"/>
<path id="j" d="m34.281 27.484q-10.891 0-15.094-2.4844t-4.2031-8.5q0-4.7812 3.1562-7.5938 3.1562-2.7969 8.5625-2.7969 7.4844 0 12 5.2969t4.5156 14.078v2zm17.922 3.7188v-31.203h-8.9844v8.2969q-3.0781-4.9688-7.6719-7.3438t-11.234-2.375q-8.3906 0-13.359 4.7188-4.9531 4.7188-4.9531 12.625 0 9.2188 6.1719 13.906 6.1875 4.6875 18.438 4.6875h12.609v0.89062q0 6.2031-4.0781 9.5938t-11.453 3.3906q-4.6875 0-9.1406-1.125-4.4375-1.125-8.5312-3.375v8.3125q4.9219 1.9062 9.5625 2.8438 4.6406 0.95312 9.0312 0.95312 11.875 0 17.734-6.1562 5.8594-6.1406 5.8594-18.641z"/>
<path id="g" d="m9.4219 75.984h8.9844v-75.984h-8.9844z"/>
</defs>
<use xlink:href="#l"/>
<use x="44.083984" xlink:href="#d"/>
<use x="105.607422" xlink:href="#f"/>
<use x="144.970703" xlink:href="#k"/>
<use x="242.382812" xlink:href="#i"/>
<use x="270.166016" xlink:href="#h"/>
<use x="333.544922" xlink:href="#j"/>
<use x="394.824219" xlink:href="#g"/>
</g>
</g>
<path d="m128.65 482.01 0.34447-5.4616q0.15107-2.3952-2.2442-2.5463l-7.7271-0.48735q-2.3952-0.15107-2.5463 2.2442l-0.34446 5.4616q-0.15107 2.3952 2.2442 2.5463l7.7271 0.48735q2.3952 0.15107 2.5463-2.2442z" clip-path="url(#a)" fill="#fff" stroke="#fff"/>
<g clip-path="url(#a)">
<g transform="translate(124.59 481.76) rotate(-86.391) scale(.08 -.08)">
<defs>
<path id="r" d="m34.188 63.188-13.391-36.281h26.812zm-5.5781 9.7188h11.188l27.781-72.906h-10.25l-6.6406 18.703h-32.859l-6.6406-18.703h-10.406z"/>
</defs>
<use xlink:href="#r"/>
</g>
</g>
<path d="m136.43 524.19 0.18413-5.0754q0.087012-2.3984-2.3114-2.4854l-7.7374-0.2807q-2.3984-0.087011-2.4854 2.3114l-0.18413 5.0754q-0.087011 2.3984 2.3114 2.4854l7.7374 0.2807q2.3984 0.087011 2.4854-2.3114z" clip-path="url(#a)" fill="#fff" stroke="#fff"/>
<g clip-path="url(#a)">
<g transform="translate(132.37 524.05) rotate(-87.922) scale(.08 -.08)">
<defs>
<path id="af" d="m53.516 70.516v-9.625q-5.6094 2.6875-10.594 4-4.9844 1.3281-9.625 1.3281-8.0469 0-12.422-3.125t-4.375-8.8906q0-4.8438 2.9062-7.3125 2.9062-2.4531 11.016-3.9688l5.9531-1.2188q11.031-2.1094 16.281-7.4062t5.25-14.172q0-10.609-7.1094-16.078-7.0938-5.4688-20.812-5.4688-5.1719 0-11.016 1.1719-5.8281 1.1719-12.078 3.4688v10.156q6-3.3594 11.766-5.0781 5.7656-1.7031 11.328-1.7031 8.4375 0 13.031 3.3125 4.5938 3.3281 4.5938 9.4844 0 5.3594-3.2969 8.3906t-10.812 4.5469l-6.0156 1.1719q-11.031 2.1875-15.969 6.875-4.9219 4.6875-4.9219 13.047 0 9.6719 6.8125 15.234t18.766 5.5625q5.1406 0 10.453-0.9375 5.3281-0.92188 10.891-2.7656z"/>
</defs>
<use xlink:href="#af"/>
</g>
</g>
<path d="m143.06 524.63 0.11856-6.1589q0.046194-2.3996-2.3534-2.4457l-7.7411-0.14902q-2.3996-0.046194-2.4458 2.3534l-0.11856 6.1589q-0.046194 2.3996 2.3534 2.4458l7.7411 0.14902q2.3996 0.046194 2.4457-2.3534z" clip-path="url(#a)" fill="#fff" stroke="#fff"/>
<g clip-path="url(#a)">
<g transform="translate(139 524.55) rotate(-88.897) scale(.08 -.08)">
<defs>
<path id="ag" d="m19.672 64.797v-56.688h11.922q15.094 0 22.094 6.8281 7 6.8438 7 21.594 0 14.641-7 21.453t-22.094 6.8125zm-9.8594 8.1094h20.266q21.188 0 31.094-8.8125 9.9219-8.8125 9.9219-27.562 0-18.859-9.9688-27.703-9.9531-8.8281-31.047-8.8281h-20.266z"/>
</defs>
<use xlink:href="#ag"/>
</g>
</g>
<path d="m181.2 179.88 3.866 3.8732q1.6955 1.6986 3.3941 0.003152l5.4799-5.4697q1.6986-1.6955 0.003152-3.3941l-3.866-3.8732q-1.6955-1.6986-3.3941-0.003152l-5.4799 5.4697q-1.6986 1.6955-0.003153 3.3941z" clip-path="url(#a)" fill="#fff" stroke="#fff"/>
<g clip-path="url(#a)">
<g transform="translate(184.08 177.01) rotate(45.053) scale(.08 -.08)">
<use xlink:href="#r"/>
</g>
</g>
<path d="m104.76 868.89 0.2375-4.5951q0.12388-2.3968-2.2729-2.5207l-7.7322-0.39964q-2.3968-0.12388-2.5207 2.2729l-0.2375 4.5951q-0.12388 2.3968 2.2729 2.5207l7.7322 0.39964q2.3968 0.12388 2.5207-2.2729z" clip-path="url(#a)" fill="#fff" stroke="#fff"/>
<g clip-path="url(#a)">
<g transform="translate(100.7 868.68) rotate(-87.041) scale(.08 -.08)">
<defs>
<path id="am" d="m9.8125 72.906h41.891v-8.3125h-32.031v-21.484h28.906v-8.2969h-28.906v-34.812h-9.8594z"/>
</defs>
<use xlink:href="#am"/>
</g>
</g>
<path d="m96.604 863.81 0.28834 5.5788q0.12388 2.3968 2.5207 2.2729l7.7322-0.39964q2.3968-0.12388 2.2729-2.5207l-0.28834-5.5788q-0.12388-2.3968-2.5207-2.2729l-7.7322 0.39964q-2.3968 0.12388-2.2729 2.5207z" clip-path="url(#a)" fill="#fff" stroke="#fff"/>
<g clip-path="url(#a)">
<g transform="translate(100.66 863.6) rotate(87.041) scale(.08 -.08)">
<defs>
<path id="u" d="m64.406 67.281v-10.391q-4.9844 4.6406-10.625 6.9219-5.6406 2.2969-11.984 2.2969-12.5 0-19.141-7.6406t-6.6406-22.094q0-14.406 6.6406-22.047t19.141-7.6406q6.3438 0 11.984 2.2969t10.625 6.9375v-10.312q-5.1719-3.5156-10.969-5.2812-5.7812-1.75-12.219-1.75-16.562 0-26.094 10.125-9.5156 10.141-9.5156 27.672 0 17.578 9.5156 27.703 9.5312 10.141 26.094 10.141 6.5312 0 12.312-1.7344 5.7969-1.7344 10.875-5.2031z"/>
</defs>
<use xlink:href="#u"/>
</g>
</g>
<path d="m109.93 933.87v33.808q0 2.4 2.4 2.4h7.7425q2.4 0 2.4-2.4v-33.808q0-2.4-2.4-2.4h-7.7425q-2.4 0-2.4 2.4z" clip-path="url(#a)" fill="#fff" stroke="#fff"/>
<g clip-path="url(#a)">
<g transform="translate(114 933.87) rotate(90) scale(.08 -.08)">
<use xlink:href="#l"/>
<use x="44.083984" xlink:href="#d"/>
<use x="105.607422" xlink:href="#f"/>
<use x="144.970703" xlink:href="#k"/>
<use x="242.382812" xlink:href="#i"/>
<use x="270.166016" xlink:href="#h"/>
<use x="333.544922" xlink:href="#j"/>
<use x="394.824219" xlink:href="#g"/>
</g>
</g>
<path d="m123.12 933.87v33.808q0 2.4 2.4 2.4h7.7425q2.4 0 2.4-2.4v-33.808q0-2.4-2.4-2.4h-7.7425q-2.4 0-2.4 2.4z" clip-path="url(#a)" fill="#fff" stroke="#fff"/>
<g clip-path="url(#a)">
<g transform="translate(127.19 933.87) rotate(90) scale(.08 -.08)">
<use xlink:href="#l"/>
<use x="44.083984" xlink:href="#d"/>
<use x="105.607422" xlink:href="#f"/>
<use x="144.970703" xlink:href="#k"/>
<use x="242.382812" xlink:href="#i"/>
<use x="270.166016" xlink:href="#h"/>
<use x="333.544922" xlink:href="#j"/>
<use x="394.824219" xlink:href="#g"/>
</g>
</g>
<path d="m193.72 568.05 0.62724-5.0159q0.2978-2.3815-2.0837-2.6793l-7.6827-0.96072q-2.3815-0.2978-2.6793 2.0837l-0.62724 5.0159q-0.2978 2.3815 2.0837 2.6793l7.6827 0.96072q2.3815 0.2978 2.6793-2.0837z" clip-path="url(#a)" fill="#fff" stroke="#fff"/>
<g clip-path="url(#a)">
<g transform="translate(189.69 567.55) rotate(-82.872) scale(.08 -.08)">
<defs>
<path id="t" d="m9.8125 72.906h46.094v-8.3125h-36.234v-21.578h34.719v-8.2969h-34.719v-26.422h37.109v-8.2969h-46.969z"/>
</defs>
<use xlink:href="#t"/>
</g>
</g>
<path d="m207.55 525.35 0.48862-5.0313q0.23199-2.3888-2.1568-2.6207l-7.7062-0.7484q-2.3888-0.23199-2.6207 2.1568l-0.48862 5.0313q-0.23199 2.3888 2.1568 2.6207l7.7062 0.7484q2.3888 0.23199 2.6207-2.1568z" clip-path="url(#a)" fill="#fff" stroke="#fff"/>
<g clip-path="url(#a)">
<g transform="translate(203.5 524.96) rotate(-84.453) scale(.08 -.08)">
<use xlink:href="#t"/>
</g>
</g>
<path d="m212.56 568 0.39412-5.5723q0.16932-2.394-2.2247-2.5633l-7.7232-0.54625q-2.394-0.16932-2.5633 2.2247l-0.39412 5.5723q-0.16932 2.394 2.2247 2.5633l7.7232 0.54625q2.394 0.16932 2.5633-2.2247z" clip-path="url(#a)" fill="#fff" stroke="#fff"/>
<g clip-path="url(#a)">
<g transform="translate(208.5 567.71) rotate(-85.954) scale(.08 -.08)">
<use xlink:href="#u"/>
</g>
</g>
<path d="m336.16 268.93 4.7037 1.8516q2.2332 0.87911 3.1123-1.3541l2.836-7.2044q0.87911-2.2332-1.3541-3.1123l-4.7037-1.8516q-2.2332-0.87911-3.1123 1.3541l-2.836 7.2044q-0.87911 2.2332 1.3541 3.1123z" clip-path="url(#a)" fill="#fff" stroke="#fff"/>
<g clip-path="url(#a)">
<g transform="translate(337.65 265.15) rotate(21.487) scale(.08 -.08)">
<use xlink:href="#t"/>
</g>
</g>
<path d="m223.65 567.94 0.22685-5.8506q0.092987-2.3982-2.3052-2.4912l-7.7367-0.29998q-2.3982-0.092988-2.4912 2.3052l-0.22685 5.8506q-0.092987 2.3982 2.3052 2.4912l7.7367 0.29998q2.3982 0.092987 2.4912-2.3052z" clip-path="url(#a)" fill="#fff" stroke="#fff"/>
<g clip-path="url(#a)">
<g transform="translate(219.58 567.78) rotate(-87.78) scale(.08 -.08)">
<defs>
<path id="z" d="m8.6875 72.906h9.9219v-44.297q0-11.719 4.2344-16.875 4.25-5.1406 13.781-5.1406 9.4688 0 13.719 5.1406 4.25 5.1562 4.25 16.875v44.297h9.9062v-45.516q0-14.25-7.0625-21.531-7.0469-7.2812-20.812-7.2812-13.828 0-20.891 7.2812-7.0469 7.2812-7.0469 21.531z"/>
</defs>
<use xlink:href="#z"/>
</g>
</g>
<path d="m138.52 933.87v33.808q0 2.4 2.4 2.4h7.7425q2.4 0 2.4-2.4v-33.808q0-2.4-2.4-2.4h-7.7425q-2.4 0-2.4 2.4z" clip-path="url(#a)" fill="#fff" stroke="#fff"/>
<g clip-path="url(#a)">
<g transform="translate(142.58 933.87) rotate(90) scale(.08 -.08)">
<use xlink:href="#l"/>
<use x="44.083984" xlink:href="#d"/>
<use x="105.607422" xlink:href="#f"/>
<use x="144.970703" xlink:href="#k"/>
<use x="242.382812" xlink:href="#i"/>
<use x="270.166016" xlink:href="#h"/>
<use x="333.544922" xlink:href="#j"/>
<use x="394.824219" xlink:href="#g"/>
</g>
</g>
<path d="m170.67 864.28 0.63215 5.4359q0.27723 2.3839 2.6612 2.1067l7.6907-0.89437q2.3839-0.27723 2.1067-2.6612l-0.63215-5.4359q-0.27723-2.3839-2.6612-2.1067l-7.6907 0.89436q-2.3839 0.27723-2.1067 2.6612z" clip-path="url(#a)" fill="#fff" stroke="#fff"/>
<g clip-path="url(#a)">
<g transform="translate(174.71 863.81) rotate(83.367) scale(.08 -.08)">
<use xlink:href="#r"/>
</g>
</g>
<path d="m173.26 869.52 0.58667-5.0448q0.27723-2.3839-2.1067-2.6612l-7.6907-0.89436q-2.3839-0.27723-2.6612 2.1067l-0.58667 5.0448q-0.27723 2.3839 2.1067 2.6612l7.6907 0.89437q2.3839 0.27723 2.6612-2.1067z" clip-path="url(#a)" fill="#fff" stroke="#fff"/>
<g clip-path="url(#a)">
<g transform="translate(169.22 869.05) rotate(-83.367) scale(.08 -.08)">
<use xlink:href="#af"/>
</g>
</g>
<path d="m175.89 933.87v33.808q0 2.4 2.4 2.4h7.7425q2.4 0 2.4-2.4v-33.808q0-2.4-2.4-2.4h-7.7425q-2.4 0-2.4 2.4z" clip-path="url(#a)" fill="#fff" stroke="#fff"/>
<g clip-path="url(#a)">
<g transform="translate(179.96 933.87) rotate(90) scale(.08 -.08)">
<use xlink:href="#l"/>
<use x="44.083984" xlink:href="#d"/>
<use x="105.607422" xlink:href="#f"/>
<use x="144.970703" xlink:href="#k"/>
<use x="242.382812" xlink:href="#i"/>
<use x="270.166016" xlink:href="#h"/>
<use x="333.544922" xlink:href="#j"/>
<use x="394.824219" xlink:href="#g"/>
</g>
</g>
<path d="m344.65 612.39 1.596-4.3156q0.83246-2.251-1.4185-3.0835l-7.2618-2.6856q-2.251-0.83246-3.0835 1.4185l-1.596 4.3156q-0.83246 2.251 1.4185 3.0835l7.2618 2.6856q2.251 0.83246 3.0835-1.4185z" clip-path="url(#a)" fill="#fff" stroke="#fff"/>
<g clip-path="url(#a)">
<g transform="translate(340.83 610.99) rotate(-69.705) scale(.08 -.08)">
<use xlink:href="#am"/>
</g>
</g>
<path d="m357.93 612.41 1.5666-4.8061q0.74378-2.2818-1.5381-3.0256l-7.3613-2.3995q-2.2818-0.74378-3.0256 1.5381l-1.5666 4.8061q-0.74378 2.2818 1.5381 3.0256l7.3613 2.3995q2.2818 0.74378 3.0256-1.5381z" clip-path="url(#a)" fill="#fff" stroke="#fff"/>
<g clip-path="url(#a)">
<g transform="translate(354.07 611.15) rotate(-71.946) scale(.08 -.08)">
<use xlink:href="#t"/>
</g>
</g>
<path d="m372.34 612.43 1.4984-5.3815q0.64376-2.3121-1.6683-2.9558l-7.4588-2.0768q-2.3121-0.64376-2.9558 1.6683l-1.4984 5.3815q-0.64376 2.312 1.6683 2.9558l7.4588 2.0768q2.3121 0.64376 2.9558-1.6683z" clip-path="url(#a)" fill="#fff" stroke="#fff"/>
<g clip-path="url(#a)">
<g transform="translate(368.42 611.34) rotate(-74.441) scale(.08 -.08)">
<use xlink:href="#u"/>
</g>
</g>
<path d="m740.37 356.38 5.0008 0.738q2.3743 0.35038 2.7247-2.0239l1.1304-7.6595q0.35038-2.3743-2.0239-2.7247l-5.0008-0.738q-2.3743-0.35038-2.7247 2.0239l-1.1304 7.6595q-0.35038 2.3743 2.0239 2.7247z" clip-path="url(#a)" fill="#fff" stroke="#fff"/>
<g clip-path="url(#a)">
<g transform="translate(740.96 352.36) rotate(8.3948) scale(.08 -.08)">
<use xlink:href="#t"/>
</g>
</g>
<path d="m222.07 933.87v33.808q0 2.4 2.4 2.4h7.7425q2.4 0 2.4-2.4v-33.808q0-2.4-2.4-2.4h-7.7425q-2.4 0-2.4 2.4z" clip-path="url(#a)" fill="#fff" stroke="#fff"/>
<g clip-path="url(#a)">
<g transform="translate(226.13 933.87) rotate(90) scale(.08 -.08)">
<use xlink:href="#l"/>
<use x="44.083984" xlink:href="#d"/>
<use x="105.607422" xlink:href="#f"/>
<use x="144.970703" xlink:href="#k"/>
<use x="242.382812" xlink:href="#i"/>
<use x="270.166016" xlink:href="#h"/>
<use x="333.544922" xlink:href="#j"/>
<use x="394.824219" xlink:href="#g"/>
</g>
</g>
<path d="m248.45 933.87v33.808q0 2.4 2.4 2.4h7.7425q2.4 0 2.4-2.4v-33.808q0-2.4-2.4-2.4h-7.7425q-2.4 0-2.4 2.4z" clip-path="url(#a)" fill="#fff" stroke="#fff"/>
<g clip-path="url(#a)">
<g transform="translate(252.52 933.87) rotate(90) scale(.08 -.08)">
<use xlink:href="#l"/>
<use x="44.083984" xlink:href="#d"/>
<use x="105.607422" xlink:href="#f"/>
<use x="144.970703" xlink:href="#k"/>
<use x="242.382812" xlink:href="#i"/>
<use x="270.166016" xlink:href="#h"/>
<use x="333.544922" xlink:href="#j"/>
<use x="394.824219" xlink:href="#g"/>
</g>
</g>
<path d="m277.04 933.87v33.808q0 2.4 2.4 2.4h7.7425q2.4 0 2.4-2.4v-33.808q0-2.4-2.4-2.4h-7.7425q-2.4 0-2.4 2.4z" clip-path="url(#a)" fill="#fff" stroke="#fff"/>
<g clip-path="url(#a)">
<g transform="translate(281.1 933.87) rotate(90) scale(.08 -.08)">
<use xlink:href="#l"/>
<use x="44.083984" xlink:href="#d"/>
<use x="105.607422" xlink:href="#f"/>
<use x="144.970703" xlink:href="#k"/>
<use x="242.382812" xlink:href="#i"/>
<use x="270.166016" xlink:href="#h"/>
<use x="333.544922" xlink:href="#j"/>
<use x="394.824219" xlink:href="#g"/>
</g>
</g>
<path d="m676.81 658.02 4.5268-3.2261q1.9545-1.3929 0.56161-3.3473l-4.4934-6.3052q-1.3929-1.9545-3.3473-0.56161l-4.5268 3.2261q-1.9545 1.3929-0.56161 3.3473l4.4934 6.3052q1.3929 1.9545 3.3473 0.56161z" clip-path="url(#a)" fill="#fff" stroke="#fff"/>
<g clip-path="url(#a)">
<g transform="translate(674.45 654.71) rotate(-35.476) scale(.08 -.08)">
<defs>
<path id="ak" d="m44.391 34.188q3.1719-1.0781 6.1719-4.5938t6.0312-9.6719l10.016-19.922h-10.609l-9.3125 18.703q-3.625 7.3281-7.0156 9.7188t-9.25 2.3906h-10.75v-30.812h-9.8594v72.906h22.266q12.5 0 18.656-5.2344 6.1562-5.2188 6.1562-15.766 0-6.8906-3.2031-11.438-3.2031-4.5312-9.2969-6.2812zm-24.719 30.609v-25.875h12.406q7.125 0 10.766 3.2969t3.6406 9.6875-3.6406 9.6406-10.766 3.25z"/>
</defs>
<use xlink:href="#ak"/>
</g>
</g>
<path d="m1327.1 654.57 3.3633 2.9253q1.8109 1.575 3.3859-0.23587l5.0811-5.842q1.575-1.8109-0.23587-3.3859l-3.3633-2.9253q-1.8109-1.575-3.3859 0.23587l-5.0811 5.842q-1.575 1.8109 0.23587 3.3859z" clip-path="url(#a)" fill="#fff" stroke="#fff"/>
<g clip-path="url(#a)">
<g transform="translate(1329.7 651.5) rotate(41.015) scale(.08 -.08)">
<use xlink:href="#ap"/>
</g>
</g>
<path d="m1032.3 434.24 0.27341 6.01q0.10907 2.3975 2.5066 2.2885l7.7345-0.35186q2.3975-0.10907 2.2885-2.5066l-0.27341-6.01q-0.10907-2.3975-2.5066-2.2885l-7.7345 0.35186q-2.3975 0.10907-2.2885 2.5066z" clip-path="url(#a)" fill="#fff" stroke="#fff"/>
<g clip-path="url(#a)">
<g transform="translate(1036.4 434.06) rotate(87.395) scale(.08 -.08)">
<use xlink:href="#al"/>
</g>
</g>
<path d="m1094.1 440.45 4.9702 3.39q1.9827 1.3524 3.3351-0.63036l4.3627-6.3963q1.3524-1.9827-0.63036-3.3351l-4.9702-3.39q-1.9827-1.3524-3.3351 0.63036l-4.3627 6.3963q-1.3524 1.9827 0.63036 3.3351z" clip-path="url(#a)" fill="#fff" stroke="#fff"/>
<g clip-path="url(#a)">
<g transform="translate(1096.3 437.09) rotate(34.297) scale(.08 -.08)">
<use xlink:href="#al"/>
</g>
</g>
<path d="m307.82 933.87v33.808q0 2.4 2.4 2.4h7.7425q2.4 0 2.4-2.4v-33.808q0-2.4-2.4-2.4h-7.7425q-2.4 0-2.4 2.4z" clip-path="url(#a)" fill="#fff" stroke="#fff"/>
<g clip-path="url(#a)">
<g transform="translate(311.88 933.87) rotate(90) scale(.08 -.08)">
<use xlink:href="#l"/>
<use x="44.083984" xlink:href="#d"/>
<use x="105.607422" xlink:href="#f"/>
<use x="144.970703" xlink:href="#k"/>
<use x="242.382812" xlink:href="#i"/>
<use x="270.166016" xlink:href="#h"/>
<use x="333.544922" xlink:href="#j"/>
<use x="394.824219" xlink:href="#g"/>
</g>
</g>
<path d="m1622.7 933.87v33.808q0 2.4 2.4 2.4h7.7425q2.4 0 2.4-2.4v-33.808q0-2.4-2.4-2.4h-7.7425q-2.4 0-2.4 2.4z" clip-path="url(#a)" fill="#fff" stroke="#fff"/>
<g clip-path="url(#a)">
<g transform="translate(1626.7 933.87) rotate(90) scale(.08 -.08)">
<use xlink:href="#l"/>
<use x="44.083984" xlink:href="#d"/>
<use x="105.607422" xlink:href="#f"/>
<use x="144.970703" xlink:href="#k"/>
<use x="242.382812" xlink:href="#i"/>
<use x="270.166016" xlink:href="#h"/>
<use x="333.544922" xlink:href="#j"/>
<use x="394.824219" xlink:href="#g"/>
</g>
</g>
<path d="m662.71 701.28 4.7626-2.6955q2.0887-1.1821 0.90652-3.2708l-3.8136-6.7381q-1.1821-2.0887-3.2708-0.90652l-4.7626 2.6955q-2.0887 1.1821-0.90652 3.2708l3.8136 6.7381q1.1821 2.0887 3.2708 0.90652z" clip-path="url(#a)" fill="#fff" stroke="#fff"/>
<g clip-path="url(#a)">
<g transform="translate(660.71 697.75) rotate(-29.509) scale(.08 -.08)">
<use xlink:href="#r"/>
</g>
</g>
<path d="m768.93 529.87 5.4041-0.86256q2.37-0.37828 1.9917-2.7483l-1.2204-7.6457q-0.37828-2.37-2.7483-1.9917l-5.4041 0.86256q-2.37 0.37828-1.9917 2.7483l1.2204 7.6457q0.37828 2.37 2.7483 1.9917z" clip-path="url(#a)" fill="#fff" stroke="#fff"/>
<g clip-path="url(#a)">
<g transform="translate(768.29 525.86) rotate(-9.0686) scale(.08 -.08)">
<use xlink:href="#r"/>
</g>
</g>
<path d="m1209.3 696.06 3.901 4.7674q1.5199 1.8574 3.3773 0.33758l5.9922-4.9031q1.8574-1.5199 0.33758-3.3773l-3.901-4.7674q-1.5199-1.8574-3.3773-0.33758l-5.9922 4.9031q-1.8574 1.5199-0.33758 3.3773z" clip-path="url(#a)" fill="#fff" stroke="#fff"/>
<g clip-path="url(#a)">
<g transform="translate(1212.4 693.49) rotate(50.708) scale(.08 -.08)">
<use xlink:href="#ag"/>
</g>
</g>
<path d="m1268.3 697.47 3.5546 3.2608q1.7686 1.6224 3.391-0.14618l5.2339-5.7055q1.6224-1.7686-0.14618-3.391l-3.5546-3.2608q-1.7686-1.6224-3.391 0.14618l-5.2339 5.7055q-1.6224 1.7686 0.14618 3.391z" clip-path="url(#a)" fill="#fff" stroke="#fff"/>
<g clip-path="url(#a)">
<g transform="translate(1271.1 694.47) rotate(42.532) scale(.08 -.08)">
<defs>
<path id="ao" d="m19.672 64.797v-27.391h12.406q6.8906 0 10.641 3.5625 3.7656 3.5625 3.7656 10.156 0 6.5469-3.7656 10.109-3.75 3.5625-10.641 3.5625zm-9.8594 8.1094h22.266q12.266 0 18.531-5.5469 6.2812-5.5469 6.2812-16.234 0-10.797-6.2812-16.312-6.2656-5.5156-18.531-5.5156h-12.406v-29.297h-9.8594z"/>
</defs>
<use xlink:href="#ao"/>
</g>
</g>
<path d="m1135.5 694.52 2.5104 5.2895q1.029 2.1682 3.1972 1.1392l6.9947-3.3197q2.1682-1.029 1.1392-3.1972l-2.5104-5.2895q-1.029-2.1682-3.1972-1.1392l-6.9947 3.3197q-2.1682 1.029-1.1392 3.1972z" clip-path="url(#a)" fill="#fff" stroke="#fff"/>
<g clip-path="url(#a)">
<g transform="translate(1139.2 692.78) rotate(64.611) scale(.08 -.08)">
<use xlink:href="#z"/>
</g>
</g>
<path d="m1171.8 695.41 3.1696 4.9228q1.2993 2.0179 3.3172 0.71865l6.5098-4.1914q2.0179-1.2993 0.71865-3.3172l-3.1696-4.9228q-1.2993-2.0179-3.3172-0.71865l-6.5098 4.1914q-2.0179 1.2993-0.71865 3.3172z" clip-path="url(#a)" fill="#fff" stroke="#fff"/>
<g clip-path="url(#a)">
<g transform="translate(1175.3 693.21) rotate(57.224) scale(.08 -.08)">
<use xlink:href="#z"/>
</g>
</g>
<path d="m723.63 701.31 4.9199-2.3964q2.1577-1.051 1.1067-3.2086l-3.3905-6.9607q-1.051-2.1577-3.2086-1.1067l-4.9199 2.3964q-2.1577 1.051-1.1067 3.2086l3.3905 6.9607q1.051 2.1577 3.2086 1.1067z" clip-path="url(#a)" fill="#fff" stroke="#fff"/>
<g clip-path="url(#a)">
<g transform="translate(721.85 697.66) rotate(-25.97) scale(.08 -.08)">
<use xlink:href="#r"/>
</g>
</g>
<path d="m1453.7 698.14 3.907 2.8292q1.9439 1.4076 3.3515-0.53624l4.541-6.271q1.4076-1.9439-0.53624-3.3515l-3.907-2.8292q-1.9439-1.4076-3.3515 0.53624l-4.541 6.271q-1.4076 1.9439 0.53624 3.3515z" clip-path="url(#a)" fill="#fff" stroke="#fff"/>
<g clip-path="url(#a)">
<g transform="translate(1456.1 694.85) rotate(35.91) scale(.08 -.08)">
<use xlink:href="#ao"/>
</g>
</g>
<path d="m830.08 529.82 5.4268-0.70586q2.38-0.30956 2.0704-2.6895l-0.99865-7.6778q-0.30956-2.38-2.6895-2.0704l-5.4268 0.70586q-2.38 0.30956-2.0704 2.6895l0.99865 7.6778q0.30956 2.38 2.6895 2.0704z" clip-path="url(#a)" fill="#fff" stroke="#fff"/>
<g clip-path="url(#a)">
<g transform="translate(829.56 525.79) rotate(-7.4109) scale(.08 -.08)">
<use xlink:href="#r"/>
</g>
</g>
<path d="m1270.4 694.7 2.8935 5.4381q1.1273 2.1188 3.2461 0.99141l6.8352-3.6368q2.1188-1.1273 0.99141-3.2461l-2.8935-5.4381q-1.1273-2.1188-3.2461-0.99141l-6.8352 3.6368q-2.1188 1.1273-0.99141 3.2461z" clip-path="url(#a)" fill="#fff" stroke="#fff"/>
<g clip-path="url(#a)">
<g transform="translate(1274 692.8) rotate(61.984) scale(.08 -.08)">
<use xlink:href="#ag"/>
</g>
</g>
<path d="m1519.1 698.38 5.036 2.9867q2.0643 1.2243 3.2885-0.84001l3.9495-6.6594q1.2243-2.0643-0.84001-3.2885l-5.036-2.9867q-2.0643-1.2243-3.2885 0.84001l-3.9495 6.6594q-1.2243 2.0643 0.84001 3.2885z" clip-path="url(#a)" fill="#fff" stroke="#fff"/>
<g clip-path="url(#a)">
<g transform="translate(1521.1 694.88) rotate(30.671) scale(.08 -.08)">
<use xlink:href="#z"/>
</g>
</g>
<path d="m1731.8 968.68 15.382-30.105q1.092-2.1372-1.0452-3.2292l-6.8947-3.5228q-2.1372-1.092-3.2292 1.0452l-15.382 30.105q-1.092 2.1372 1.0452 3.2292l6.8947 3.5228q2.1372 1.092 3.2292-1.0452z" clip-path="url(#a)" fill="#fff" stroke="#fff"/>
<g clip-path="url(#a)">
<g transform="translate(1728.2 966.83) rotate(-62.936) scale(.08 -.08)">
<use xlink:href="#l"/>
<use x="44.083984" xlink:href="#d"/>
<use x="105.607422" xlink:href="#f"/>
<use x="144.970703" xlink:href="#k"/>
<use x="242.382812" xlink:href="#i"/>
<use x="270.166016" xlink:href="#h"/>
<use x="333.544922" xlink:href="#j"/>
<use x="394.824219" xlink:href="#g"/>
</g>
</g>
<path d="m1763.5 938.57 15.382 30.105q1.092 2.1372 3.2292 1.0452l6.8947-3.5228q2.1372-1.092 1.0452-3.2292l-15.382-30.105q-1.092-2.1372-3.2292-1.0452l-6.8947 3.5228q-2.1372 1.092-1.0452 3.2292z" clip-path="url(#a)" fill="#fff" stroke="#fff"/>
<g clip-path="url(#a)">
<g transform="translate(1767.1 936.72) rotate(62.936) scale(.08 -.08)">
<use xlink:href="#l"/>
<use x="44.083984" xlink:href="#d"/>
<use x="105.607422" xlink:href="#f"/>
<use x="144.970703" xlink:href="#k"/>
<use x="242.382812" xlink:href="#i"/>
<use x="270.166016" xlink:href="#h"/>
<use x="333.544922" xlink:href="#j"/>
<use x="394.824219" xlink:href="#g"/>
</g>
</g>
<path d="m428.52 742.45 2.0678-4.6127q0.98175-2.19-1.2083-3.1718l-7.0651-3.1672q-2.19-0.98175-3.1718 1.2083l-2.0678 4.6127q-0.98175 2.19 1.2083 3.1718l7.0651 3.1672q2.19 0.98175 3.1718-1.2083z" clip-path="url(#a)" fill="#fff" stroke="#fff"/>
<g clip-path="url(#a)">
<g transform="translate(424.81 740.79) rotate(-65.854) scale(.08 -.08)">
<use xlink:href="#t"/>
</g>
</g>
<path d="m446.43 742.27 1.8245-5.2799q0.78386-2.2684-1.4845-3.0522l-7.3179-2.5288q-2.2684-0.78386-3.0522 1.4845l-1.8245 5.2799q-0.78386 2.2684 1.4845 3.0522l7.3179 2.5288q2.2684 0.78386 3.0522-1.4845z" clip-path="url(#a)" fill="#fff" stroke="#fff"/>
<g clip-path="url(#a)">
<g transform="translate(442.59 740.94) rotate(-70.937) scale(.08 -.08)">
<use xlink:href="#u"/>
</g>
</g>
<path d="m632.22 614.58 4.8194 1.5252q2.2882 0.72413 3.0123-1.564l2.3361-7.3817q0.72413-2.2882-1.564-3.0123l-4.8194-1.5252q-2.2882-0.72413-3.0123 1.564l-2.3361 7.3817q-0.72413 2.2882 1.564 3.0123z" clip-path="url(#a)" fill="#fff" stroke="#fff"/>
<g clip-path="url(#a)">
<g transform="translate(633.44 610.71) rotate(17.561) scale(.08 -.08)">
<use xlink:href="#t"/>
</g>
</g>
<path d="m1385.2 933.87v33.808q0 2.4 2.4 2.4h7.7425q2.4 0 2.4-2.4v-33.808q0-2.4-2.4-2.4h-7.7425q-2.4 0-2.4 2.4z" clip-path="url(#a)" fill="#fff" stroke="#fff"/>
<g clip-path="url(#a)">
<g transform="translate(1389.3 933.87) rotate(90) scale(.08 -.08)">
<use xlink:href="#l"/>
<use x="44.083984" xlink:href="#d"/>
<use x="105.607422" xlink:href="#f"/>
<use x="144.970703" xlink:href="#k"/>
<use x="242.382812" xlink:href="#i"/>
<use x="270.166016" xlink:href="#h"/>
<use x="333.544922" xlink:href="#j"/>
<use x="394.824219" xlink:href="#g"/>
</g>
</g>
<path d="m1486.7 968.73 14.421-30.577q1.0238-2.1707-1.1469-3.1945l-7.0027-3.3028q-2.1707-1.0238-3.1945 1.1469l-14.421 30.577q-1.0238 2.1707 1.1469 3.1945l7.0027 3.3028q2.1707 1.0238 3.1945-1.1469z" clip-path="url(#a)" fill="#fff" stroke="#fff"/>
<g clip-path="url(#a)">
<g transform="translate(1483 967) rotate(-64.75) scale(.08 -.08)">
<use xlink:href="#l"/>
<use x="44.083984" xlink:href="#d"/>
<use x="105.607422" xlink:href="#f"/>
<use x="144.970703" xlink:href="#k"/>
<use x="242.382812" xlink:href="#i"/>
<use x="270.166016" xlink:href="#h"/>
<use x="333.544922" xlink:href="#j"/>
<use x="394.824219" xlink:href="#g"/>
</g>
</g>
<path d="m1514.9 938.16 14.421 30.577q1.0238 2.1707 3.1945 1.1469l7.0027-3.3028q2.1707-1.0238 1.1469-3.1945l-14.421-30.577q-1.0238-2.1707-3.1945-1.1469l-7.0027 3.3028q-2.1707 1.0238-1.1469 3.1945z" clip-path="url(#a)" fill="#fff" stroke="#fff"/>
<g clip-path="url(#a)">
<g transform="translate(1518.6 936.42) rotate(64.75) scale(.08 -.08)">
<use xlink:href="#l"/>
<use x="44.083984" xlink:href="#d"/>
<use x="105.607422" xlink:href="#f"/>
<use x="144.970703" xlink:href="#k"/>
<use x="242.382812" xlink:href="#i"/>
<use x="270.166016" xlink:href="#h"/>
<use x="333.544922" xlink:href="#j"/>
<use x="394.824219" xlink:href="#g"/>
</g>
</g>
<path d="m340.8 933.87v33.808q0 2.4 2.4 2.4h7.7425q2.4 0 2.4-2.4v-33.808q0-2.4-2.4-2.4h-7.7425q-2.4 0-2.4 2.4z" clip-path="url(#a)" fill="#fff" stroke="#fff"/>
<g clip-path="url(#a)">
<g transform="translate(344.86 933.87) rotate(90) scale(.08 -.08)">
<use xlink:href="#l"/>
<use x="44.083984" xlink:href="#d"/>
<use x="105.607422" xlink:href="#f"/>
<use x="144.970703" xlink:href="#k"/>
<use x="242.382812" xlink:href="#i"/>
<use x="270.166016" xlink:href="#h"/>
<use x="333.544922" xlink:href="#j"/>
<use x="394.824219" xlink:href="#g"/>
</g>
</g>
<path d="m375.98 933.87v33.808q0 2.4 2.4 2.4h7.7425q2.4 0 2.4-2.4v-33.808q0-2.4-2.4-2.4h-7.7425q-2.4 0-2.4 2.4z" clip-path="url(#a)" fill="#fff" stroke="#fff"/>
<g clip-path="url(#a)">
<g transform="translate(380.04 933.87) rotate(90) scale(.08 -.08)">
<use xlink:href="#l"/>
<use x="44.083984" xlink:href="#d"/>
<use x="105.607422" xlink:href="#f"/>
<use x="144.970703" xlink:href="#k"/>
<use x="242.382812" xlink:href="#i"/>
<use x="270.166016" xlink:href="#h"/>
<use x="333.544922" xlink:href="#j"/>
<use x="394.824219" xlink:href="#g"/>
</g>
</g>
<path d="m586.84 744.9 4.9694-2.292q2.1794-1.0052 1.1742-3.1845l-3.2427-7.0307q-1.0052-2.1794-3.1845-1.1742l-4.9694 2.292q-2.1794 1.0052-1.1742 3.1845l3.2427 7.0307q1.0052 2.1794 3.1845 1.1742z" clip-path="url(#a)" fill="#fff" stroke="#fff"/>
<g clip-path="url(#a)">
<g transform="translate(585.13 741.21) rotate(-24.76) scale(.08 -.08)">
<use xlink:href="#r"/>
</g>
</g>
<path d="m617.65 787.21 4.3013-3.5211q1.8571-1.5203 0.33685-3.3774l-4.9044-5.9911q-1.5203-1.8571-3.3774-0.33685l-4.3013 3.5211q-1.8571 1.5203-0.33685 3.3774l4.9044 5.9911q1.5203 1.8571 3.3774 0.33685z" clip-path="url(#a)" fill="#fff" stroke="#fff"/>
<g clip-path="url(#a)">
<g transform="translate(615.08 784.07) rotate(-39.304) scale(.08 -.08)">
<use xlink:href="#ak"/>
</g>
</g>
<path d="m686.27 702.13 4.9027-2.4315q2.1501-1.0663 1.0838-3.2164l-3.44-6.9363q-1.0663-2.1501-3.2164-1.0838l-4.9027 2.4315q-2.1501 1.0663-1.0838 3.2164l3.44 6.9363q1.0663 2.1501 3.2164 1.0838z" clip-path="url(#a)" fill="#fff" stroke="#fff"/>
<g clip-path="url(#a)">
<g transform="translate(684.46 698.49) rotate(-26.379) scale(.08 -.08)">
<use xlink:href="#r"/>
</g>
</g>
<path d="m867.91 782.1 3.8414 4.8155q1.4966 1.8762 3.3728 0.37953l6.0526-4.8283q1.8762-1.4966 0.37953-3.3728l-3.8414-4.8155q-1.4966-1.8762-3.3728-0.37953l-6.0526 4.8283q-1.8762 1.4966-0.37953 3.3728z" clip-path="url(#a)" fill="#fff" stroke="#fff"/>
<g clip-path="url(#a)">
<g transform="translate(871.08 779.57) rotate(51.42) scale(.08 -.08)">
<use xlink:href="#ag"/>
</g>
</g>
<path d="m867.69 782.51 3.1567 3.9786q1.4917 1.8801 3.3718 0.38838l6.0653-4.8123q1.8801-1.4917 0.38838-3.3718l-3.1567-3.9786q-1.4917-1.8801-3.3718-0.38838l-6.0653 4.8123q-1.8801 1.4917-0.38838 3.3718z" clip-path="url(#a)" fill="#fff" stroke="#fff"/>
<g clip-path="url(#a)">
<g transform="translate(870.87 779.98) rotate(51.571) scale(.08 -.08)">
<use xlink:href="#af"/>
</g>
</g>
<path d="m950.95 742.59 4.9593 2.3138q2.1749 1.0147 3.1897-1.1602l3.2735-7.0164q1.0147-2.1749-1.1602-3.1897l-4.9593-2.3138q-2.1749-1.0147-3.1897 1.1602l-3.2735 7.0164q-1.0147 2.1749 1.1602 3.1897z" clip-path="url(#a)" fill="#fff" stroke="#fff"/>
<g clip-path="url(#a)">
<g transform="translate(952.67 738.9) rotate(25.011) scale(.08 -.08)">
<use xlink:href="#r"/>
</g>
</g>
<path d="m806.85 779.73 1.7937 5.5735q0.73525 2.2846 3.0199 1.5494l7.3702-2.372q2.2846-0.73525 1.5494-3.0199l-1.7937-5.5735q-0.73525-2.2846-3.0199-1.5494l-7.3702 2.372q-2.2846 0.73525-1.5494 3.0199z" clip-path="url(#a)" fill="#fff" stroke="#fff"/>
<g clip-path="url(#a)">
<g transform="translate(810.72 778.49) rotate(72.16) scale(.08 -.08)">
<use xlink:href="#z"/>
</g>
</g>
<path d="m397.12 870.35 1.1985-5.4562q0.51492-2.3441-1.8292-2.859l-7.5622-1.6611q-2.3441-0.51492-2.859 1.8292l-1.1985 5.4562q-0.51492 2.3441 1.8292 2.859l7.5622 1.6611q2.3441 0.51492 2.859-1.8292z" clip-path="url(#a)" fill="#fff" stroke="#fff"/>
<g clip-path="url(#a)">
<g transform="translate(393.15 869.47) rotate(-77.611) scale(.08 -.08)">
<use xlink:href="#u"/>
</g>
</g>
<path d="m403.56 864.9 1.1926 5.4293q0.51492 2.3441 2.859 1.8292l7.5622-1.6611q2.3441-0.51492 1.8292-2.859l-1.1926-5.4293q-0.51492-2.3441-2.859-1.8292l-7.5622 1.6611q-2.3441 0.51492-1.8292 2.859z" clip-path="url(#a)" fill="#fff" stroke="#fff"/>
<g clip-path="url(#a)">
<g transform="translate(407.53 864.03) rotate(77.611) scale(.08 -.08)">
<use xlink:href="#ak"/>
</g>
</g>
<path d="m452.93 933.87v33.808q0 2.4 2.4 2.4h7.7425q2.4 0 2.4-2.4v-33.808q0-2.4-2.4-2.4h-7.7425q-2.4 0-2.4 2.4z" clip-path="url(#a)" fill="#fff" stroke="#fff"/>
<g clip-path="url(#a)">
<g transform="translate(457 933.87) rotate(90) scale(.08 -.08)">
<use xlink:href="#l"/>
<use x="44.083984" xlink:href="#d"/>
<use x="105.607422" xlink:href="#f"/>
<use x="144.970703" xlink:href="#k"/>
<use x="242.382812" xlink:href="#i"/>
<use x="270.166016" xlink:href="#h"/>
<use x="333.544922" xlink:href="#j"/>
<use x="394.824219" xlink:href="#g"/>
</g>
</g>
<path d="m554.48 828.64 2.2994-3.9855q1.1994-2.0788-0.87949-3.2782l-6.7064-3.8692q-2.0788-1.1994-3.2782 0.87949l-2.2994 3.9855q-1.1994 2.0788 0.87949 3.2782l6.7064 3.8692q2.0788 1.1994 3.2782-0.87949z" clip-path="url(#a)" fill="#fff" stroke="#fff"/>
<g clip-path="url(#a)">
<g transform="translate(550.96 826.6) rotate(-60.018) scale(.08 -.08)">
<use xlink:href="#am"/>
</g>
</g>
<path d="m577.31 828.08 1.6986-5.3217q0.72976-2.2864-1.5566-3.0161l-7.3759-2.3543q-2.2864-0.72976-3.0161 1.5566l-1.6986 5.3217q-0.72976 2.2864 1.5566 3.0161l7.3759 2.3543q2.2864 0.72976 3.0161-1.5566z" clip-path="url(#a)" fill="#fff" stroke="#fff"/>
<g clip-path="url(#a)">
<g transform="translate(573.44 826.84) rotate(-72.298) scale(.08 -.08)">
<use xlink:href="#u"/>
</g>
</g>
<path d="m588.74 785.5 1.7406-4.7459q0.82641-2.2532-1.4268-3.0796l-7.269-2.666q-2.2532-0.82641-3.0796 1.4268l-1.7406 4.7459q-0.82641 2.2532 1.4268 3.0796l7.269 2.666q2.2532 0.82641 3.0796-1.4268z" clip-path="url(#a)" fill="#fff" stroke="#fff"/>
<g clip-path="url(#a)">
<g transform="translate(584.93 784.1) rotate(-69.859) scale(.08 -.08)">
<use xlink:href="#t"/>
</g>
</g>
<path d="m666.12 785.07 4.3475 2.5792q2.0641 1.2246 3.2886-0.83953l3.9505-6.6588q1.2246-2.0641-0.83953-3.2886l-4.3475-2.5792q-2.0641-1.2246-3.2886 0.83953l-3.9505 6.6588q-1.2246 2.0641 0.83953 3.2886z" clip-path="url(#a)" fill="#fff" stroke="#fff"/>
<g clip-path="url(#a)">
<g transform="translate(668.19 781.58) rotate(30.679) scale(.08 -.08)">
<use xlink:href="#t"/>
</g>
</g>
<path d="m612.68 822.09 1.3393 5.6998q0.54901 2.3364 2.8854 1.7874l7.5372-1.7711q2.3364-0.54901 1.7874-2.8854l-1.3393-5.6998q-0.54901-2.3364-2.8854-1.7874l-7.5372 1.7711q-2.3364 0.54901-1.7874 2.8854z" clip-path="url(#a)" fill="#fff" stroke="#fff"/>
<g clip-path="url(#a)">
<g transform="translate(616.64 821.16) rotate(76.776) scale(.08 -.08)">
<use xlink:href="#z"/>
</g>
</g>
<path d="m940.59 968.07 20.228-27.088q1.436-1.923-0.48697-3.359l-6.2036-4.6326q-1.923-1.436-3.359 0.48697l-20.228 27.088q-1.436 1.923 0.48697 3.359l6.2036 4.6326q1.923 1.436 3.359-0.48697z" clip-path="url(#a)" fill="#fff" stroke="#fff"/>
<g clip-path="url(#a)">
<g transform="translate(937.33 965.64) rotate(-53.249) scale(.08 -.08)">
<use xlink:href="#l"/>
<use x="44.083984" xlink:href="#d"/>
<use x="105.607422" xlink:href="#f"/>
<use x="144.970703" xlink:href="#k"/>
<use x="242.382812" xlink:href="#i"/>
<use x="270.166016" xlink:href="#h"/>
<use x="333.544922" xlink:href="#j"/>
<use x="394.824219" xlink:href="#g"/>
</g>
</g>
<path d="m993.2 940.98 20.228 27.088q1.436 1.923 3.359 0.48697l6.2036-4.6326q1.923-1.436 0.48697-3.359l-20.228-27.088q-1.436-1.923-3.359-0.48697l-6.2036 4.6326q-1.923 1.436-0.48697 3.359z" clip-path="url(#a)" fill="#fff" stroke="#fff"/>
<g clip-path="url(#a)">
<g transform="translate(996.46 938.55) rotate(53.249) scale(.08 -.08)">
<use xlink:href="#l"/>
<use x="44.083984" xlink:href="#d"/>
<use x="105.607422" xlink:href="#f"/>
<use x="144.970703" xlink:href="#k"/>
<use x="242.382812" xlink:href="#i"/>
<use x="270.166016" xlink:href="#h"/>
<use x="333.544922" xlink:href="#j"/>
<use x="394.824219" xlink:href="#g"/>
</g>
</g>
<path d="m969.64 933.87v33.808q0 2.4 2.4 2.4h7.7425q2.4 0 2.4-2.4v-33.808q0-2.4-2.4-2.4h-7.7425q-2.4 0-2.4 2.4z" clip-path="url(#a)" fill="#fff" stroke="#fff"/>
<g clip-path="url(#a)">
<g transform="translate(973.7 933.87) rotate(90) scale(.08 -.08)">
<use xlink:href="#l"/>
<use x="44.083984" xlink:href="#d"/>
<use x="105.607422" xlink:href="#f"/>
<use x="144.970703" xlink:href="#k"/>
<use x="242.382812" xlink:href="#i"/>
<use x="270.166016" xlink:href="#h"/>
<use x="333.544922" xlink:href="#j"/>
<use x="394.824219" xlink:href="#g"/>
</g>
</g>
<path d="m1127.6 870.95 1.8797-4.6925q0.89242-2.2279-1.3355-3.1203l-7.1873-2.879q-2.2279-0.89242-3.1203 1.3355l-1.8797 4.6925q-0.89242 2.2279 1.3355 3.1203l7.1873 2.879q2.2279 0.89242 3.1203-1.3355z" clip-path="url(#a)" fill="#fff" stroke="#fff"/>
<g clip-path="url(#a)">
<g transform="translate(1123.8 869.44) rotate(-68.171) scale(.08 -.08)">
<use xlink:href="#t"/>
</g>
</g>
<path d="m1149.9 866.01 2.0772 5.1857q0.89242 2.2279 3.1203 1.3355l7.1873-2.879q2.2279-0.89242 1.3355-3.1203l-2.0772-5.1857q-0.89242-2.2279-3.1203-1.3355l-7.1873 2.879q-2.2279 0.89242-1.3355 3.1203z" clip-path="url(#a)" fill="#fff" stroke="#fff"/>
<g clip-path="url(#a)">
<g transform="translate(1153.7 864.5) rotate(68.171) scale(.08 -.08)">
<use xlink:href="#u"/>
</g>
</g>
<path d="m1099.4 933.87v33.808q0 2.4 2.4 2.4h7.7425q2.4 0 2.4-2.4v-33.808q0-2.4-2.4-2.4h-7.7425q-2.4 0-2.4 2.4z" clip-path="url(#a)" fill="#fff" stroke="#fff"/>
<g clip-path="url(#a)">
<g transform="translate(1103.4 933.87) rotate(90) scale(.08 -.08)">
<use xlink:href="#l"/>
<use x="44.083984" xlink:href="#d"/>
<use x="105.607422" xlink:href="#f"/>
<use x="144.970703" xlink:href="#k"/>
<use x="242.382812" xlink:href="#i"/>
<use x="270.166016" xlink:href="#h"/>
<use x="333.544922" xlink:href="#j"/>
<use x="394.824219" xlink:href="#g"/>
</g>
</g>
<path d="m1167.5 933.87v33.808q0 2.4 2.4 2.4h7.7425q2.4 0 2.4-2.4v-33.808q0-2.4-2.4-2.4h-7.7425q-2.4 0-2.4 2.4z" clip-path="url(#a)" fill="#fff" stroke="#fff"/>
<g clip-path="url(#a)">
<g transform="translate(1171.6 933.87) rotate(90) scale(.08 -.08)">
<use xlink:href="#l"/>
<use x="44.083984" xlink:href="#d"/>
<use x="105.607422" xlink:href="#f"/>
<use x="144.970703" xlink:href="#k"/>
<use x="242.382812" xlink:href="#i"/>
<use x="270.166016" xlink:href="#h"/>
<use x="333.544922" xlink:href="#j"/>
<use x="394.824219" xlink:href="#g"/>
</g>
</g>
<path d="m494.71 933.87v33.808q0 2.4 2.4 2.4h7.7425q2.4 0 2.4-2.4v-33.808q0-2.4-2.4-2.4h-7.7425q-2.4 0-2.4 2.4z" clip-path="url(#a)" fill="#fff" stroke="#fff"/>
<g clip-path="url(#a)">
<g transform="translate(498.77 933.87) rotate(90) scale(.08 -.08)">
<use xlink:href="#l"/>
<use x="44.083984" xlink:href="#d"/>
<use x="105.607422" xlink:href="#f"/>
<use x="144.970703" xlink:href="#k"/>
<use x="242.382812" xlink:href="#i"/>
<use x="270.166016" xlink:href="#h"/>
<use x="333.544922" xlink:href="#j"/>
<use x="394.824219" xlink:href="#g"/>
</g>
</g>
<path d="m538.68 933.87v33.808q0 2.4 2.4 2.4h7.7425q2.4 0 2.4-2.4v-33.808q0-2.4-2.4-2.4h-7.7425q-2.4 0-2.4 2.4z" clip-path="url(#a)" fill="#fff" stroke="#fff"/>
<g clip-path="url(#a)">
<g transform="translate(542.75 933.87) rotate(90) scale(.08 -.08)">
<use xlink:href="#l"/>
<use x="44.083984" xlink:href="#d"/>
<use x="105.607422" xlink:href="#f"/>
<use x="144.970703" xlink:href="#k"/>
<use x="242.382812" xlink:href="#i"/>
<use x="270.166016" xlink:href="#h"/>
<use x="333.544922" xlink:href="#j"/>
<use x="394.824219" xlink:href="#g"/>
</g>
</g>
<path d="m561.83 870.56 1.4331-5.2815q0.62851-2.3162-1.6877-2.9448l-7.4723-2.0276q-2.3162-0.62851-2.9448 1.6877l-1.4331 5.2815q-0.62851 2.3162 1.6877 2.9448l7.4723 2.0276q2.3162 0.62851 2.9448-1.6877z" clip-path="url(#a)" fill="#fff" stroke="#fff"/>
<g clip-path="url(#a)">
<g transform="translate(557.91 869.49) rotate(-74.818) scale(.08 -.08)">
<use xlink:href="#r"/>
</g>
</g>
<path d="m572.87 865.46 1.33 4.9015q0.62851 2.3162 2.9448 1.6877l7.4723-2.0276q2.3162-0.62851 1.6877-2.9448l-1.33-4.9015q-0.62851-2.3162-2.9448-1.6877l-7.4723 2.0276q-2.3162 0.62851-1.6877 2.9448z" clip-path="url(#a)" fill="#fff" stroke="#fff"/>
<g clip-path="url(#a)">
<g transform="translate(576.79 864.4) rotate(74.818) scale(.08 -.08)">
<use xlink:href="#af"/>
</g>
</g>
<path d="m720.65 871.98 2.9738-4.729q1.2776-2.0317-0.75408-3.3093l-6.5543-4.1216q-2.0317-1.2776-3.3093 0.75408l-2.9738 4.729q-1.2776 2.0317 0.75408 3.3093l6.5543 4.1216q2.0317 1.2776 3.3093-0.75408z" clip-path="url(#a)" fill="#fff" stroke="#fff"/>
<g clip-path="url(#a)">
<g transform="translate(717.2 869.81) rotate(-57.837) scale(.08 -.08)">
<use xlink:href="#u"/>
</g>
</g>
<path d="m749.45 869.32 0.051554-5.9848q0.020674-2.3999-2.3792-2.4206l-7.7422-0.066693q-2.3999-0.020673-2.4206 2.3792l-0.051555 5.9848q-0.020673 2.3999 2.3792 2.4206l7.7422 0.066693q2.3999 0.020674 2.4206-2.3792z" clip-path="url(#a)" fill="#fff" stroke="#fff"/>
<g clip-path="url(#a)">
<g transform="translate(745.39 869.28) rotate(-89.506) scale(.08 -.08)">
<defs>
<path id="at" d="m9.8125 72.906h13.281l32.328-60.984v60.984h9.5625v-72.906h-13.281l-32.312 60.984v-60.984h-9.5781z"/>
</defs>
<use xlink:href="#at"/>
</g>
</g>
<path d="m763.9 867.29 3.0028 4.7106q1.2901 2.0238 3.3139 0.73372l6.5288-4.1618q2.0238-1.2901 0.73372-3.3139l-3.0028-4.7106q-1.2901-2.0238-3.3139-0.73372l-6.5288 4.1618q-2.0238 1.2901-0.73372 3.3139z" clip-path="url(#a)" fill="#fff" stroke="#fff"/>
<g clip-path="url(#a)">
<g transform="translate(767.33 865.1) rotate(57.484) scale(.08 -.08)">
<use xlink:href="#u"/>
</g>
</g>
<path d="m683.8 933.87v33.808q0 2.4 2.4 2.4h7.7425q2.4 0 2.4-2.4v-33.808q0-2.4-2.4-2.4h-7.7425q-2.4 0-2.4 2.4z" clip-path="url(#a)" fill="#fff" stroke="#fff"/>
<g clip-path="url(#a)">
<g transform="translate(687.86 933.87) rotate(90) scale(.08 -.08)">
<use xlink:href="#l"/>
<use x="44.083984" xlink:href="#d"/>
<use x="105.607422" xlink:href="#f"/>
<use x="144.970703" xlink:href="#k"/>
<use x="242.382812" xlink:href="#i"/>
<use x="270.166016" xlink:href="#h"/>
<use x="333.544922" xlink:href="#j"/>
<use x="394.824219" xlink:href="#g"/>
</g>
</g>
<path d="m736.57 933.87v33.808q0 2.4 2.4 2.4h7.7425q2.4 0 2.4-2.4v-33.808q0-2.4-2.4-2.4h-7.7425q-2.4 0-2.4 2.4z" clip-path="url(#a)" fill="#fff" stroke="#fff"/>
<g clip-path="url(#a)">
<g transform="translate(740.63 933.87) rotate(90) scale(.08 -.08)">
<use xlink:href="#l"/>
<use x="44.083984" xlink:href="#d"/>
<use x="105.607422" xlink:href="#f"/>
<use x="144.970703" xlink:href="#k"/>
<use x="242.382812" xlink:href="#i"/>
<use x="270.166016" xlink:href="#h"/>
<use x="333.544922" xlink:href="#j"/>
<use x="394.824219" xlink:href="#g"/>
</g>
</g>
<path d="m791.54 933.87v33.808q0 2.4 2.4 2.4h7.7425q2.4 0 2.4-2.4v-33.808q0-2.4-2.4-2.4h-7.7425q-2.4 0-2.4 2.4z" clip-path="url(#a)" fill="#fff" stroke="#fff"/>
<g clip-path="url(#a)">
<g transform="translate(795.6 933.87) rotate(90) scale(.08 -.08)">
<use xlink:href="#l"/>
<use x="44.083984" xlink:href="#d"/>
<use x="105.607422" xlink:href="#f"/>
<use x="144.970703" xlink:href="#k"/>
<use x="242.382812" xlink:href="#i"/>
<use x="270.166016" xlink:href="#h"/>
<use x="333.544922" xlink:href="#j"/>
<use x="394.824219" xlink:href="#g"/>
</g>
</g>
<path d="m584.86 933.87v33.808q0 2.4 2.4 2.4h7.7425q2.4 0 2.4-2.4v-33.808q0-2.4-2.4-2.4h-7.7425q-2.4 0-2.4 2.4z" clip-path="url(#a)" fill="#fff" stroke="#fff"/>
<g clip-path="url(#a)">
<g transform="translate(588.92 933.87) rotate(90) scale(.08 -.08)">
<use xlink:href="#l"/>
<use x="44.083984" xlink:href="#d"/>
<use x="105.607422" xlink:href="#f"/>
<use x="144.970703" xlink:href="#k"/>
<use x="242.382812" xlink:href="#i"/>
<use x="270.166016" xlink:href="#h"/>
<use x="333.544922" xlink:href="#j"/>
<use x="394.824219" xlink:href="#g"/>
</g>
</g>
<path d="m413.36 933.87v33.808q0 2.4 2.4 2.4h7.7425q2.4 0 2.4-2.4v-33.808q0-2.4-2.4-2.4h-7.7425q-2.4 0-2.4 2.4z" clip-path="url(#a)" fill="#fff" stroke="#fff"/>
<g clip-path="url(#a)">
<g transform="translate(417.42 933.87) rotate(90) scale(.08 -.08)">
<use xlink:href="#l"/>
<use x="44.083984" xlink:href="#d"/>
<use x="105.607422" xlink:href="#f"/>
<use x="144.970703" xlink:href="#k"/>
<use x="242.382812" xlink:href="#i"/>
<use x="270.166016" xlink:href="#h"/>
<use x="333.544922" xlink:href="#j"/>
<use x="394.824219" xlink:href="#g"/>
</g>
</g>
<path d="m156.11 933.87v33.808q0 2.4 2.4 2.4h7.7425q2.4 0 2.4-2.4v-33.808q0-2.4-2.4-2.4h-7.7425q-2.4 0-2.4 2.4z" clip-path="url(#a)" fill="#fff" stroke="#fff"/>
<g clip-path="url(#a)">
<g transform="translate(160.17 933.87) rotate(90) scale(.08 -.08)">
<use xlink:href="#l"/>
<use x="44.083984" xlink:href="#d"/>
<use x="105.607422" xlink:href="#f"/>
<use x="144.970703" xlink:href="#k"/>
<use x="242.382812" xlink:href="#i"/>
<use x="270.166016" xlink:href="#h"/>
<use x="333.544922" xlink:href="#j"/>
<use x="394.824219" xlink:href="#g"/>
</g>
</g>
<path d="m90.143 933.87v33.808q0 2.4 2.4 2.4h7.7425q2.4 0 2.4-2.4v-33.808q0-2.4-2.4-2.4h-7.7425q-2.4 0-2.4 2.4z" clip-path="url(#a)" fill="#fff" stroke="#fff"/>
<g clip-path="url(#a)">
<g transform="translate(94.207 933.87) rotate(90) scale(.08 -.08)">
<use xlink:href="#l"/>
<use x="44.083984" xlink:href="#d"/>
<use x="105.607422" xlink:href="#f"/>
<use x="144.970703" xlink:href="#k"/>
<use x="242.382812" xlink:href="#i"/>
<use x="270.166016" xlink:href="#h"/>
<use x="333.544922" xlink:href="#j"/>
<use x="394.824219" xlink:href="#g"/>
</g>
</g>
<path d="m98.938 933.87v33.808q0 2.4 2.4 2.4h7.7425q2.4 0 2.4-2.4v-33.808q0-2.4-2.4-2.4h-7.7425q-2.4 0-2.4 2.4z" clip-path="url(#a)" fill="#fff" stroke="#fff"/>
<g clip-path="url(#a)">
<g transform="translate(103 933.87) rotate(90) scale(.08 -.08)">
<use xlink:href="#l"/>
<use x="44.083984" xlink:href="#d"/>
<use x="105.607422" xlink:href="#f"/>
<use x="144.970703" xlink:href="#k"/>
<use x="242.382812" xlink:href="#i"/>
<use x="270.166016" xlink:href="#h"/>
<use x="333.544922" xlink:href="#j"/>
<use x="394.824219" xlink:href="#g"/>
</g>
</g>
<path d="m197.88 933.87v33.808q0 2.4 2.4 2.4h7.7425q2.4 0 2.4-2.4v-33.808q0-2.4-2.4-2.4h-7.7425q-2.4 0-2.4 2.4z" clip-path="url(#a)" fill="#fff" stroke="#fff"/>
<g clip-path="url(#a)">
<g transform="translate(201.94 933.87) rotate(90) scale(.08 -.08)">
<use xlink:href="#l"/>
<use x="44.083984" xlink:href="#d"/>
<use x="105.607422" xlink:href="#f"/>
<use x="144.970703" xlink:href="#k"/>
<use x="242.382812" xlink:href="#i"/>
<use x="270.166016" xlink:href="#h"/>
<use x="333.544922" xlink:href="#j"/>
<use x="394.824219" xlink:href="#g"/>
</g>
</g>
<path d="m633.23 933.87v33.808q0 2.4 2.4 2.4h7.7425q2.4 0 2.4-2.4v-33.808q0-2.4-2.4-2.4h-7.7425q-2.4 0-2.4 2.4z" clip-path="url(#a)" fill="#fff" stroke="#fff"/>
<g clip-path="url(#a)">
<g transform="translate(637.29 933.87) rotate(90) scale(.08 -.08)">
<use xlink:href="#l"/>
<use x="44.083984" xlink:href="#d"/>
<use x="105.607422" xlink:href="#f"/>
<use x="144.970703" xlink:href="#k"/>
<use x="242.382812" xlink:href="#i"/>
<use x="270.166016" xlink:href="#h"/>
<use x="333.544922" xlink:href="#j"/>
<use x="394.824219" xlink:href="#g"/>
</g>
</g>
<path d="m848.71 933.87v33.808q0 2.4 2.4 2.4h7.7425q2.4 0 2.4-2.4v-33.808q0-2.4-2.4-2.4h-7.7425q-2.4 0-2.4 2.4z" clip-path="url(#a)" fill="#fff" stroke="#fff"/>
<g clip-path="url(#a)">
<g transform="translate(852.77 933.87) rotate(90) scale(.08 -.08)">
<use xlink:href="#l"/>
<use x="44.083984" xlink:href="#d"/>
<use x="105.607422" xlink:href="#f"/>
<use x="144.970703" xlink:href="#k"/>
<use x="242.382812" xlink:href="#i"/>
<use x="270.166016" xlink:href="#h"/>
<use x="333.544922" xlink:href="#j"/>
<use x="394.824219" xlink:href="#g"/>
</g>
</g>
<path d="m1237.9 933.87v33.808q0 2.4 2.4 2.4h7.7425q2.4 0 2.4-2.4v-33.808q0-2.4-2.4-2.4h-7.7425q-2.4 0-2.4 2.4z" clip-path="url(#a)" fill="#fff" stroke="#fff"/>
<g clip-path="url(#a)">
<g transform="translate(1241.9 933.87) rotate(90) scale(.08 -.08)">
<use xlink:href="#l"/>
<use x="44.083984" xlink:href="#d"/>
<use x="105.607422" xlink:href="#f"/>
<use x="144.970703" xlink:href="#k"/>
<use x="242.382812" xlink:href="#i"/>
<use x="270.166016" xlink:href="#h"/>
<use x="333.544922" xlink:href="#j"/>
<use x="394.824219" xlink:href="#g"/>
</g>
</g>
<path d="m1310.4 933.87v33.808q0 2.4 2.4 2.4h7.7425q2.4 0 2.4-2.4v-33.808q0-2.4-2.4-2.4h-7.7425q-2.4 0-2.4 2.4z" clip-path="url(#a)" fill="#fff" stroke="#fff"/>
<g clip-path="url(#a)">
<g transform="translate(1314.5 933.87) rotate(90) scale(.08 -.08)">
<use xlink:href="#l"/>
<use x="44.083984" xlink:href="#d"/>
<use x="105.607422" xlink:href="#f"/>
<use x="144.970703" xlink:href="#k"/>
<use x="242.382812" xlink:href="#i"/>
<use x="270.166016" xlink:href="#h"/>
<use x="333.544922" xlink:href="#j"/>
<use x="394.824219" xlink:href="#g"/>
</g>
</g>
<path d="m1879.9 933.87v33.808q0 2.4 2.4 2.4h7.7425q2.4 0 2.4-2.4v-33.808q0-2.4-2.4-2.4h-7.7425q-2.4 0-2.4 2.4z" clip-path="url(#a)" fill="#fff" stroke="#fff"/>
<g clip-path="url(#a)">
<g transform="translate(1884 933.87) rotate(90) scale(.08 -.08)">
<use xlink:href="#l"/>
<use x="44.083984" xlink:href="#d"/>
<use x="105.607422" xlink:href="#f"/>
<use x="144.970703" xlink:href="#k"/>
<use x="242.382812" xlink:href="#i"/>
<use x="270.166016" xlink:href="#h"/>
<use x="333.544922" xlink:href="#j"/>
<use x="394.824219" xlink:href="#g"/>
</g>
</g>
<defs>
<path id="b" d="m0 8.6603c2.2967 0 4.4997-0.9125 6.1237-2.5365 1.624-1.624 2.5365-3.827 2.5365-6.1237s-0.9125-4.4997-2.5365-6.1237c-1.624-1.624-3.827-2.5365-6.1237-2.5365s-4.4997 0.9125-6.1237 2.5365c-1.624 1.624-2.5365 3.827-2.5365 6.1237s0.9125 4.4997 2.5365 6.1237c1.624 1.624 3.827 2.5365 6.1237 2.5365z"/>
</defs>
<g clip-path="url(#a)" fill="#ffffff" stroke="#ffffff">
<use x="89.818182" y="992.727273" xlink:href="#b"/>
<use x="96.414376" y="992.727273" xlink:href="#b"/>
<use x="105.209302" y="992.727273" xlink:href="#b"/>
<use x="116.20296" y="992.727273" xlink:href="#b"/>
<use x="129.395349" y="992.727273" xlink:href="#b"/>
<use x="144.786469" y="992.727273" xlink:href="#b"/>
<use x="162.376321" y="992.727273" xlink:href="#b"/>
<use x="182.164905" y="992.727273" xlink:href="#b"/>
<use x="204.15222" y="992.727273" xlink:href="#b"/>
<use x="228.338266" y="992.727273" xlink:href="#b"/>
<use x="254.723044" y="992.727273" xlink:href="#b"/>
<use x="283.306554" y="992.727273" xlink:href="#b"/>
<use x="314.088795" y="992.727273" xlink:href="#b"/>
<use x="347.069767" y="992.727273" xlink:href="#b"/>
<use x="382.249471" y="992.727273" xlink:href="#b"/>
<use x="419.627907" y="992.727273" xlink:href="#b"/>
<use x="459.205074" y="992.727273" xlink:href="#b"/>
<use x="500.980973" y="992.727273" xlink:href="#b"/>
<use x="544.955603" y="992.727273" xlink:href="#b"/>
<use x="591.128964" y="992.727273" xlink:href="#b"/>
<use x="639.501057" y="992.727273" xlink:href="#b"/>
<use x="690.071882" y="992.727273" xlink:href="#b"/>
<use x="742.841438" y="992.727273" xlink:href="#b"/>
<use x="797.809725" y="992.727273" xlink:href="#b"/>
<use x="854.976744" y="992.727273" xlink:href="#b"/>
<use x="914.342495" y="992.727273" xlink:href="#b"/>
<use x="975.906977" y="992.727273" xlink:href="#b"/>
<use x="1039.67019" y="992.727273" xlink:href="#b"/>
<use x="1105.632135" y="992.727273" xlink:href="#b"/>
<use x="1173.792812" y="992.727273" xlink:href="#b"/>
<use x="1244.15222" y="992.727273" xlink:href="#b"/>
<use x="1316.710359" y="992.727273" xlink:href="#b"/>
<use x="1391.46723" y="992.727273" xlink:href="#b"/>
<use x="1468.422833" y="992.727273" xlink:href="#b"/>
<use x="1547.577167" y="992.727273" xlink:href="#b"/>
<use x="1628.930233" y="992.727273" xlink:href="#b"/>
<use x="1712.48203" y="992.727273" xlink:href="#b"/>
<use x="1798.232558" y="992.727273" xlink:href="#b"/>
<use x="1886.181818" y="992.727273" xlink:href="#b"/>
<use x="117.064364" y="47.272727" xlink:href="#b"/>
<use x="89.818182" y="908.813346" xlink:href="#b"/>
<use x="144.310546" y="134.041945" xlink:href="#b"/>
<use x="100.811839" y="823.732085" xlink:href="#b"/>
<use x="116.20296" y="908.813346" xlink:href="#b"/>
<use x="129.395349" y="908.813346" xlink:href="#b"/>
<use x="230.832035" y="220.724293" xlink:href="#b"/>
<use x="144.786469" y="908.813346" xlink:href="#b"/>
<use x="172.270613" y="823.732085" xlink:href="#b"/>
<use x="182.164905" y="908.813346" xlink:href="#b"/>
<use x="450.785968" y="307.310182" xlink:href="#b"/>
<use x="228.338266" y="908.813346" xlink:href="#b"/>
<use x="254.723044" y="908.813346" xlink:href="#b"/>
<use x="283.306554" y="908.813346" xlink:href="#b"/>
<use x="1036.776008" y="393.787625" xlink:href="#b"/>
<use x="314.088795" y="908.813346" xlink:href="#b"/>
<use x="1628.930233" y="908.813346" xlink:href="#b"/>
<use x="1040.704408" y="480.141196" xlink:href="#b"/>
<use x="1163.380597" y="480.141196" xlink:href="#b"/>
<use x="1755.357294" y="908.813346" xlink:href="#b"/>
<use x="500.590087" y="566.350295" xlink:href="#b"/>
<use x="1391.46723" y="908.813346" xlink:href="#b"/>
<use x="1508" y="908.813346" xlink:href="#b"/>
<use x="347.069767" y="908.813346" xlink:href="#b"/>
<use x="382.249471" y="908.813346" xlink:href="#b"/>
<use x="772.451022" y="652.385988" xlink:href="#b"/>
<use x="400.938689" y="823.732085" xlink:href="#b"/>
<use x="459.205074" y="908.813346" xlink:href="#b"/>
<use x="599.410853" y="738.20458" xlink:href="#b"/>
<use x="977.006342" y="908.813346" xlink:href="#b"/>
<use x="975.906977" y="908.813346" xlink:href="#b"/>
<use x="1139.712474" y="823.732085" xlink:href="#b"/>
<use x="1105.632135" y="908.813346" xlink:href="#b"/>
<use x="1173.792812" y="908.813346" xlink:href="#b"/>
<use x="500.980973" y="908.813346" xlink:href="#b"/>
<use x="544.955603" y="908.813346" xlink:href="#b"/>
<use x="568.042283" y="823.732085" xlink:href="#b"/>
<use x="743.574348" y="823.732085" xlink:href="#b"/>
<use x="690.071882" y="908.813346" xlink:href="#b"/>
<use x="742.841438" y="908.813346" xlink:href="#b"/>
<use x="797.809725" y="908.813346" xlink:href="#b"/>
<use x="591.128964" y="908.813346" xlink:href="#b"/>
<use x="419.627907" y="908.813346" xlink:href="#b"/>
<use x="162.376321" y="908.813346" xlink:href="#b"/>
<use x="96.414376" y="908.813346" xlink:href="#b"/>
<use x="105.209302" y="908.813346" xlink:href="#b"/>
<use x="204.15222" y="908.813346" xlink:href="#b"/>
<use x="639.501057" y="908.813346" xlink:href="#b"/>
<use x="854.976744" y="908.813346" xlink:href="#b"/>
<use x="1244.15222" y="908.813346" xlink:href="#b"/>
<use x="1316.710359" y="908.813346" xlink:href="#b"/>
<use x="1886.181818" y="908.813346" xlink:href="#b"/>
</g>
<g clip-path="url(#a)">
<g transform="translate(83.827 995.49) scale(.1 -.1)">
<defs>
<path id="as" d="m39.406 66.219q-10.75 0-17.078-8.0156-6.3125-8-6.3125-21.828 0-13.766 6.3125-21.781 6.3281-8 17.078-8 10.734 0 17.016 8 6.2812 8.0156 6.2812 21.781 0 13.828-6.2812 21.828-6.2812 8.0156-17.016 8.0156zm0 8q15.328 0 24.5-10.281 9.1875-10.281 9.1875-27.562 0-17.234-9.1875-27.516-9.1719-10.281-24.5-10.281-15.375 0-24.594 10.25-9.2031 10.266-9.2031 27.547t9.2031 27.562q9.2188 10.281 24.594 10.281z"/>
</defs>
<use xlink:href="#as"/>
<use x="78.710938" xlink:href="#f"/>
</g>
</g>
<g clip-path="url(#a)">
<g transform="translate(91.961 995.49) scale(.1 -.1)">
<use xlink:href="#g"/>
<use x="27.783203" xlink:href="#j"/>
</g>
</g>
<g clip-path="url(#a)">
<g transform="translate(95.207 995.49) scale(.1 -.1)">
<use xlink:href="#k"/>
<use x="97.412109" xlink:href="#d"/>
<use x="158.935547" xlink:href="#f"/>
</g>
</g>
<g clip-path="url(#a)">
<g transform="translate(108.56 995.49) scale(.1 -.1)">
<defs>
<path id="m" d="m44.281 53.078v-8.5q-3.7969 1.9531-7.9062 2.9219-4.0938 0.98438-8.5 0.98438-6.6875 0-10.031-2.0469t-3.3438-6.1562q0-3.125 2.3906-4.9062t9.625-3.3906l3.0781-0.6875q9.5625-2.0469 13.594-5.7812t4.0312-10.422q0-7.625-6.0312-12.078-6.0312-4.4375-16.578-4.4375-4.3906 0-9.1562 0.85938t-10.031 2.5625v9.2812q4.9844-2.5938 9.8125-3.8906 4.8281-1.2812 9.5781-1.2812 6.3438 0 9.75 2.1719 3.4219 2.1719 3.4219 6.125 0 3.6562-2.4688 5.6094-2.4531 1.9531-10.812 3.7656l-3.125 0.73438q-8.3438 1.75-12.062 5.3906-3.7031 3.6406-3.7031 9.9844 0 7.7188 5.4688 11.906 5.4688 4.2031 15.531 4.2031 4.9688 0 9.3594-0.73438 4.4062-0.71875 8.1094-2.1875z"/>
<path id="v" d="m18.312 70.219v-15.531h18.5v-6.9844h-18.5v-29.688q0-6.6875 1.8281-8.5938t7.4531-1.9062h9.2188v-7.5156h-9.2188q-10.406 0-14.359 3.875-3.9531 3.8906-3.9531 14.141v29.688h-6.5938v6.9844h6.5938v15.531z"/>
</defs>
<use xlink:href="#d"/>
<use x="61.523438" xlink:href="#m"/>
<use x="113.623047" xlink:href="#v"/>
</g>
</g>
<g clip-path="url(#a)">
<g transform="translate(98.306 995.69) scale(.1 -.1)">
<defs>
<path id="x" d="m18.109 8.2031v-29h-9.0312v75.484h9.0312v-8.2969q2.8438 4.875 7.1562 7.2344 4.3281 2.375 10.328 2.375 9.9688 0 16.188-7.9062 6.2344-7.9062 6.2344-20.797t-6.2344-20.812q-6.2188-7.9062-16.188-7.9062-6 0-10.328 2.375-4.3125 2.375-7.1562 7.25zm30.578 19.094q0 9.9062-4.0781 15.547t-11.203 5.6406q-7.1406 0-11.219-5.6406t-4.0781-15.547 4.0781-15.547 11.219-5.6406q7.125 0 11.203 5.6406t4.0781 15.547z"/>
<path id="w" d="m56.203 29.594v-4.3906h-41.312q0.59375-9.2812 5.5938-14.141t13.938-4.8594q5.1719 0 10.031 1.2656t9.6562 3.8125v-8.5q-4.8438-2.0469-9.9219-3.125t-10.297-1.0781q-13.094 0-20.734 7.6094-7.6406 7.625-7.6406 20.625 0 13.422 7.25 21.297 7.25 7.8906 19.562 7.8906 11.031 0 17.453-7.1094 6.4219-7.0938 6.4219-19.297zm-8.9844 2.6406q-0.09375 7.3594-4.125 11.75-4.0312 4.4062-10.672 4.4062-7.5156 0-12.031-4.25t-5.2031-11.969zm-8.6875 47.75h9.7188l-15.906-18.359h-7.4844z"/>
<path id="ae" d="m48.781 52.594v-8.4062q-3.8125 2.1094-7.6406 3.1562t-7.7344 1.0469q-8.75 0-13.594-5.5469-4.8281-5.5312-4.8281-15.547t4.8281-15.562q4.8438-5.5312 13.594-5.5312 3.9062 0 7.7344 1.0469t7.6406 3.1562v-8.3125q-3.7656-1.75-7.7969-2.625-4.0156-0.89062-8.5625-0.89062-12.359 0-19.641 7.7656-7.2656 7.7656-7.2656 20.953 0 13.375 7.3438 21.031 7.3594 7.6719 20.156 7.6719 4.1406 0 8.0938-0.85938 3.9531-0.84375 7.6719-2.5469z"/>
</defs>
<use xlink:href="#x"/>
<use x="63.476562" xlink:href="#f"/>
<use x="102.339844" xlink:href="#w"/>
<use x="163.863281" xlink:href="#ae"/>
<use x="218.84375" xlink:href="#i"/>
<use x="246.626953" xlink:href="#m"/>
<use x="298.726562" xlink:href="#w"/>
<use x="360.25" xlink:href="#k"/>
<use x="457.662109" xlink:href="#d"/>
<use x="519.185547" xlink:href="#h"/>
<use x="582.564453" xlink:href="#v"/>
</g>
</g>
<g clip-path="url(#a)">
<g transform="translate(135.1 995.49) scale(.1 -.1)">
<defs>
<path id="s" d="m8.5 21.578v33.109h8.9844v-32.766q0-7.7656 3.0156-11.656 3.0312-3.875 9.0938-3.875 7.2656 0 11.484 4.6406 4.2344 4.6406 4.2344 12.656v31h8.9844v-54.688h-8.9844v8.4062q-3.2656-4.9844-7.5938-7.4062-4.3125-2.4219-10.031-2.4219-9.4219 0-14.312 5.8594-4.875 5.8594-4.875 17.141z"/>
</defs>
<use xlink:href="#g"/>
<use x="27.783203" xlink:href="#d"/>
<use x="89.306641" xlink:href="#s"/>
<use x="152.685547" xlink:href="#f"/>
</g>
</g>
<g clip-path="url(#a)">
<g transform="translate(141.96 995.49) scale(.1 -.1)">
<use xlink:href="#k"/>
<use x="97.412109" xlink:href="#d"/>
<use x="158.935547" xlink:href="#i"/>
<use x="186.71875" xlink:href="#g"/>
<use x="214.501953" xlink:href="#g"/>
<use x="242.285156" xlink:href="#d"/>
<use x="303.808594" xlink:href="#s"/>
<use x="367.1875" xlink:href="#f"/>
</g>
</g>
<g clip-path="url(#a)">
<g transform="translate(161.19 995.49) scale(.1 -.1)">
<defs>
<path id="aq" d="m2.9844 54.688h9.5156l17.094-45.891 17.094 45.891h9.5156l-20.516-54.688h-12.203z"/>
<path id="an" d="m54.891 33.016v-33.016h-8.9844v32.719q0 7.7656-3.0312 11.609-3.0312 3.8594-9.0781 3.8594-7.2812 0-11.484-4.6406-4.2031-4.625-4.2031-12.641v-30.906h-9.0312v75.984h9.0312v-29.797q3.2344 4.9375 7.5938 7.375 4.375 2.4375 10.094 2.4375 9.4219 0 14.25-5.8281 4.8438-5.8281 4.8438-17.156z"/>
</defs>
<use xlink:href="#aq"/>
<use x="59.179688" xlink:href="#w"/>
<use x="120.703125" xlink:href="#an"/>
<use x="184.082031" xlink:href="#i"/>
<use x="211.865234" xlink:href="#ae"/>
<use x="266.845703" xlink:href="#s"/>
<use x="330.224609" xlink:href="#g"/>
<use x="358.007812" xlink:href="#d"/>
</g>
</g>
<g clip-path="url(#a)">
<g transform="translate(202.56 995.49) scale(.1 -.1)">
<defs>
<path id="ai" d="m11.719 12.406h10.297v-8.4062l-8-15.625h-6.2969l4 15.625z"/>
</defs>
<use xlink:href="#ai"/>
</g>
</g>
<g clip-path="url(#a)">
<g transform="translate(223.87 995.49) scale(.1 -.1)">
<use xlink:href="#g"/>
<use x="27.783203" xlink:href="#d"/>
</g>
</g>
<g clip-path="url(#a)">
<g transform="translate(244.48 995.49) scale(.1 -.1)">
<use xlink:href="#m"/>
<use x="52.099609" xlink:href="#d"/>
<use x="113.623047" xlink:href="#s"/>
<use x="177.001953" xlink:href="#g"/>
</g>
</g>
<g clip-path="url(#a)">
<g transform="translate(268.02 995.49) scale(.1 -.1)">
<use xlink:href="#k"/>
<use x="97.412109" xlink:href="#i"/>
<use x="125.195312" xlink:href="#g"/>
<use x="152.978516" xlink:href="#i"/>
<use x="180.761719" xlink:href="#d"/>
<use x="242.285156" xlink:href="#s"/>
</g>
</g>
<g clip-path="url(#a)">
<g transform="translate(307.86 995.49) scale(.1 -.1)">
<defs>
<path id="y" d="m30.609 48.391q-7.2188 0-11.422-5.6406t-4.2031-15.453 4.1719-15.453q4.1875-5.6406 11.453-5.6406 7.1875 0 11.375 5.6562 4.2031 5.6719 4.2031 15.438 0 9.7188-4.2031 15.406-4.1875 5.6875-11.375 5.6875zm0 7.6094q11.719 0 18.406-7.625 6.7031-7.6094 6.7031-21.078 0-13.422-6.7031-21.078-6.6875-7.6406-18.406-7.6406-11.766 0-18.438 7.6406-6.6562 7.6562-6.6562 21.078 0 13.469 6.6562 21.078 6.6719 7.625 18.438 7.625z"/>
<path id="av" d="m8.5 21.578v33.109h8.9844v-32.766q0-7.7656 3.0156-11.656 3.0312-3.875 9.0938-3.875 7.2656 0 11.484 4.6406 4.2344 4.6406 4.2344 12.656v31h8.9844v-54.688h-8.9844v8.4062q-3.2656-4.9844-7.5938-7.4062-4.3125-2.4219-10.031-2.4219-9.4219 0-14.312 5.8594-4.875 5.8594-4.875 17.141zm22.609 34.422m-7.1875 23.984 13.766-18.266h-7.4688l-15.922 18.266z"/>
</defs>
<use xlink:href="#y"/>
<use x="61.181641" xlink:href="#av"/>
</g>
</g>
<g clip-path="url(#a)">
<g transform="translate(338.64 995.49) scale(.1 -.1)">
<use xlink:href="#ae"/>
<use x="54.980469" xlink:href="#d"/>
<use x="116.503906" xlink:href="#m"/>
</g>
</g>
<g clip-path="url(#a)">
<g transform="translate(365.2 995.69) scale(.1 -.1)">
<defs>
<path id="ay" d="m45.406 27.984q0 9.7656-4.0312 15.125-4.0156 5.375-11.297 5.375-7.2188 0-11.25-5.375-4.0312-5.3594-4.0312-15.125 0-9.7188 4.0312-15.094t11.25-5.375q7.2812 0 11.297 5.375 4.0312 5.375 4.0312 15.094zm8.9844-21.203q0-13.953-6.2031-20.766-6.1875-6.8125-18.984-6.8125-4.7344 0-8.9375 0.70312t-8.1562 2.1719v8.7344q3.9531-2.1406 7.8125-3.1562 3.8594-1.0312 7.8594-1.0312 8.8438 0 13.234 4.6094t4.3906 13.938v4.4531q-2.7812-4.8438-7.125-7.2344t-10.406-2.3906q-10.047 0-16.203 7.6562-6.1562 7.6719-6.1562 20.328 0 12.688 6.1562 20.344 6.1562 7.6719 16.203 7.6719 6.0625 0 10.406-2.3906t7.125-7.2188v8.2969h8.9844z"/>
</defs>
<use xlink:href="#ay"/>
<use x="63.476562" xlink:href="#w"/>
<use x="125" xlink:href="#j"/>
<use x="186.279297" xlink:href="#h"/>
<use x="249.658203" xlink:href="#v"/>
<use x="288.867188" xlink:href="#m"/>
</g>
</g>
<g clip-path="url(#a)">
<g transform="translate(408.83 995.69) scale(.1 -.1)">
<defs>
<path id="aw" d="m56.203 29.594v-4.3906h-41.312q0.59375-9.2812 5.5938-14.141t13.938-4.8594q5.1719 0 10.031 1.2656t9.6562 3.8125v-8.5q-4.8438-2.0469-9.9219-3.125t-10.297-1.0781q-13.094 0-20.734 7.6094-7.6406 7.625-7.6406 20.625 0 13.422 7.25 21.297 7.25 7.8906 19.562 7.8906 11.031 0 17.453-7.1094 6.4219-7.0938 6.4219-19.297zm-8.9844 2.6406q-0.09375 7.3594-4.125 11.75-4.0312 4.4062-10.672 4.4062-7.5156 0-12.031-4.25t-5.2031-11.969zm-22.547 47.75 13.766-18.266h-7.4688l-15.922 18.266z"/>
</defs>
<use xlink:href="#x"/>
<use x="63.476562" xlink:href="#f"/>
<use x="102.339844" xlink:href="#aw"/>
<use x="163.863281" xlink:href="#m"/>
</g>
</g>
<g clip-path="url(#a)">
<g transform="translate(436.94 995.49) scale(.1 -.1)">
<defs>
<path id="aj" d="m45.406 46.391v29.594h8.9844v-75.984h-8.9844v8.2031q-2.8281-4.875-7.1562-7.25-4.3125-2.375-10.375-2.375-9.9062 0-16.141 7.9062-6.2188 7.9219-6.2188 20.812t6.2188 20.797q6.2344 7.9062 16.141 7.9062 6.0625 0 10.375-2.375 4.3281-2.3594 7.1562-7.2344zm-30.609-19.094q0-9.9062 4.0781-15.547t11.203-5.6406 11.219 5.6406q4.1094 5.6406 4.1094 15.547t-4.1094 15.547q-4.0938 5.6406-11.219 5.6406t-11.203-5.6406-4.0781-15.547z"/>
<path id="ar" d="m14.797 27.297q0-9.9062 4.0781-15.547t11.203-5.6406 11.219 5.6406q4.1094 5.6406 4.1094 15.547t-4.1094 15.547q-4.0938 5.6406-11.219 5.6406t-11.203-5.6406-4.0781-15.547zm30.609-19.094q-2.8281-4.875-7.1562-7.25-4.3125-2.375-10.375-2.375-9.9062 0-16.141 7.9062-6.2188 7.9219-6.2188 20.812t6.2188 20.797q6.2344 7.9062 16.141 7.9062 6.0625 0 10.375-2.375 4.3281-2.3594 7.1562-7.2344v8.2969h8.9844v-75.484h-8.9844z"/>
</defs>
<use xlink:href="#aj"/>
<use x="63.476562" xlink:href="#d"/>
<use x="125" xlink:href="#m"/>
<use x="177.099609" xlink:href="#ar"/>
<use x="240.576172" xlink:href="#s"/>
<use x="303.955078" xlink:href="#d"/>
<use x="365.478516" xlink:href="#g"/>
<use x="393.261719" xlink:href="#m"/>
</g>
</g>
<g clip-path="url(#a)">
<g transform="translate(493.91 995.49) scale(.1 -.1)">
<use xlink:href="#g"/>
<use x="27.783203" xlink:href="#d"/>
<use x="89.306641" xlink:href="#m"/>
</g>
</g>
<g clip-path="url(#a)">
<g transform="translate(523.27 995.49) scale(.1 -.1)">
<defs>
<path id="ax" d="m54.891 54.688-19.781-26.609 20.797-28.078h-10.594l-15.922 21.484-15.906-21.484h-10.609l21.25 28.609-19.438 26.078h10.594l14.5-19.484 14.5 19.484z"/>
</defs>
<use xlink:href="#j"/>
<use x="61.279297" xlink:href="#h"/>
<use x="124.658203" xlink:href="#i"/>
<use x="152.441406" xlink:href="#k"/>
<use x="249.853516" xlink:href="#j"/>
<use x="311.132812" xlink:href="#s"/>
<use x="374.511719" xlink:href="#ax"/>
</g>
</g>
<g clip-path="url(#a)">
<g transform="translate(566.92 995.49) scale(.1 -.1)">
<use xlink:href="#v"/>
<use x="39.208984" xlink:href="#d"/>
<use x="100.732422" xlink:href="#f"/>
<use x="140.095703" xlink:href="#f"/>
<use x="178.958984" xlink:href="#d"/>
<use x="240.482422" xlink:href="#m"/>
<use x="292.582031" xlink:href="#v"/>
<use x="331.791016" xlink:href="#f"/>
<use x="370.654297" xlink:href="#d"/>
<use x="432.177734" xlink:href="#m"/>
</g>
</g>
<g clip-path="url(#a)">
<g transform="translate(637.91 995.49) scale(.1 -.1)">
<use xlink:href="#ai"/>
</g>
</g>
<g clip-path="url(#a)">
<g transform="translate(665.39 995.69) scale(.1 -.1)">
<use xlink:href="#w"/>
<use x="61.523438" xlink:href="#g"/>
<use x="89.306641" xlink:href="#w"/>
<use x="150.830078" xlink:href="#x"/>
<use x="214.306641" xlink:href="#an"/>
<use x="277.685547" xlink:href="#j"/>
<use x="338.964844" xlink:href="#h"/>
<use x="402.34375" xlink:href="#v"/>
<use x="441.552734" xlink:href="#m"/>
</g>
</g>
<g clip-path="url(#a)">
<g transform="translate(736.61 995.49) scale(.1 -.1)">
<use xlink:href="#y"/>
<use x="61.181641" xlink:href="#s"/>
</g>
</g>
<g clip-path="url(#a)">
<g transform="translate(771.62 995.49) scale(.1 -.1)">
<use xlink:href="#f"/>
<use x="39.363281" xlink:href="#an"/>
<use x="102.742188" xlink:href="#i"/>
<use x="130.525391" xlink:href="#h"/>
<use x="193.904297" xlink:href="#y"/>
<use x="255.085938" xlink:href="#ae"/>
<use x="310.066406" xlink:href="#w"/>
<use x="371.589844" xlink:href="#f"/>
<use x="410.453125" xlink:href="#y"/>
<use x="471.634766" xlink:href="#m"/>
</g>
</g>
<g clip-path="url(#a)">
<g transform="translate(853.39 995.49) scale(.1 -.1)">
<use xlink:href="#ai"/>
</g>
</g>
<g clip-path="url(#a)">
<g transform="translate(908.1 995.49) scale(.1 -.1)">
<use xlink:href="#h"/>
<use x="63.378906" xlink:href="#d"/>
</g>
</g>
<g clip-path="url(#a)">
<g transform="translate(965.11 995.49) scale(.1 -.1)">
<use xlink:href="#m"/>
<use x="52.099609" xlink:href="#y"/>
<use x="113.28125" xlink:href="#h"/>
<use x="176.660156" xlink:href="#v"/>
</g>
</g>
<g clip-path="url(#a)">
<g transform="translate(1030.3 995.49) scale(.1 -.1)">
<use xlink:href="#ar"/>
<use x="63.476562" xlink:href="#s"/>
<use x="126.855469" xlink:href="#d"/>
</g>
</g>
<g clip-path="url(#a)">
<g transform="translate(1096.8 995.49) scale(.1 -.1)">
<use xlink:href="#aj"/>
<use x="63.476562" xlink:href="#d"/>
<use x="125" xlink:href="#m"/>
</g>
</g>
<g clip-path="url(#a)">
<g transform="translate(1160.4 995.49) scale(.1 -.1)">
<use xlink:href="#h"/>
<use x="63.378906" xlink:href="#j"/>
<use x="124.658203" xlink:href="#i"/>
<use x="152.441406" xlink:href="#h"/>
<use x="215.820312" xlink:href="#m"/>
</g>
</g>
<g clip-path="url(#a)">
<g transform="translate(1242.6 995.49) scale(.1 -.1)">
<use xlink:href="#ai"/>
</g>
</g>
<g clip-path="url(#a)">
<g transform="translate(1314.9 995.49) scale(.1 -.1)">
<defs>
<path id="au" d="m4.8906 31.391h26.312v-8h-26.312z"/>
</defs>
<use xlink:href="#au"/>
</g>
</g>
<g clip-path="url(#a)">
<g transform="translate(1370.3 995.49) scale(.1 -.1)">
<use xlink:href="#x"/>
<use x="63.476562" xlink:href="#s"/>
<use x="126.855469" xlink:href="#i"/>
<use x="154.638672" xlink:href="#m"/>
<use x="206.738281" xlink:href="#m"/>
<use x="258.837891" xlink:href="#d"/>
<use x="320.361328" xlink:href="#h"/>
<use x="383.740234" xlink:href="#v"/>
</g>
</g>
<g clip-path="url(#a)">
<g transform="translate(1462.7 995.49) scale(.1 -.1)">
<use xlink:href="#m"/>
<use x="52.099609" xlink:href="#d"/>
</g>
</g>
<g clip-path="url(#a)">
<g transform="translate(1526.6 995.49) scale(.1 -.1)">
<use xlink:href="#x"/>
<use x="63.476562" xlink:href="#f"/>
<use x="102.339844" xlink:href="#y"/>
<use x="163.521484" xlink:href="#aj"/>
<use x="226.998047" xlink:href="#s"/>
<use x="290.376953" xlink:href="#i"/>
<use x="318.160156" xlink:href="#f"/>
<use x="357.023438" xlink:href="#d"/>
</g>
</g>
<g clip-path="url(#a)">
<g transform="translate(1623.9 995.49) scale(.1 -.1)">
<use xlink:href="#d"/>
<use x="61.523438" xlink:href="#v"/>
</g>
</g>
<g clip-path="url(#a)">
<g transform="translate(1706.8 995.49) scale(.1 -.1)">
<use xlink:href="#m"/>
<use x="52.099609" xlink:href="#d"/>
</g>
</g>
<g clip-path="url(#a)">
<g transform="translate(1770 995.69) scale(.1 -.1)">
<use xlink:href="#aj"/>
<use x="63.476562" xlink:href="#w"/>
<use x="125" xlink:href="#aq"/>
<use x="184.179688" xlink:href="#d"/>
<use x="245.703125" xlink:href="#g"/>
<use x="273.486328" xlink:href="#y"/>
<use x="334.667969" xlink:href="#x"/>
<use x="398.144531" xlink:href="#x"/>
<use x="461.621094" xlink:href="#d"/>
<use x="523.144531" xlink:href="#f"/>
</g>
</g>
<g clip-path="url(#a)">
<g transform="translate(1884.6 995.49) scale(.1 -.1)">
<defs>
<path id="e" d="m10.688 12.406h10.312v-12.406h-10.312z"/>
</defs>
<use xlink:href="#e"/>
</g>
</g>
<g clip-path="url(#a)">
<g transform="translate(109.11 50.032) scale(.1 -.1)">
<defs>
<path id="c" d="m12.406 8.2969h16.109v55.625l-17.531-3.5156v8.9844l17.438 3.5156h9.8594v-64.609h16.109v-8.2969h-41.984z"/>
</defs>
<use xlink:href="#c"/>
<use x="63.623047" xlink:href="#e"/>
<use x="95.410156" xlink:href="#c"/>
</g>
</g>
<g clip-path="url(#a)">
<g transform="translate(81.867 911.57) scale(.1 -.1)">
<defs>
<path id="p" d="m19.188 8.2969h34.422v-8.2969h-46.281v8.2969q5.6094 5.8125 15.297 15.594 9.7031 9.7969 12.188 12.641 4.7344 5.3125 6.6094 9 1.8906 3.6875 1.8906 7.25 0 5.8125-4.0781 9.4688-4.0781 3.6719-10.625 3.6719-4.6406 0-9.7969-1.6094-5.1406-1.6094-11-4.8906v9.9688q5.9531 2.3906 11.125 3.6094 5.1875 1.2188 9.4844 1.2188 11.328 0 18.062-5.6719 6.7344-5.6562 6.7344-15.125 0-4.5-1.6875-8.5312-1.6719-4.0156-6.125-9.4844-1.2188-1.4219-7.7656-8.1875-6.5312-6.7656-18.453-18.922z"/>
</defs>
<use xlink:href="#c"/>
<use x="63.623047" xlink:href="#e"/>
<use x="95.410156" xlink:href="#p"/>
</g>
</g>
<g clip-path="url(#a)">
<g transform="translate(136.36 136.8) scale(.1 -.1)">
<defs>
<path id="o" d="m40.578 39.312q7.0781-1.5156 11.047-6.3125 3.9844-4.7812 3.9844-11.812 0-10.781-7.4219-16.703-7.4219-5.9062-21.094-5.9062-4.5781 0-9.4375 0.90625t-10.031 2.7188v9.5156q4.0938-2.3906 8.9688-3.6094 4.8906-1.2188 10.219-1.2188 9.2656 0 14.125 3.6562t4.8594 10.641q0 6.4531-4.5156 10.078-4.5156 3.6406-12.562 3.6406h-8.5v8.1094h8.8906q7.2656 0 11.125 2.9062t3.8594 8.375q0 5.6094-3.9844 8.6094-3.9688 3.0156-11.391 3.0156-4.0625 0-8.7031-0.89062-4.6406-0.875-10.203-2.7188v8.7812q5.625 1.5625 10.531 2.3438t9.25 0.78125q11.234 0 17.766-5.1094 6.5469-5.0938 6.5469-13.781 0-6.0625-3.4688-10.234t-9.8594-5.7812z"/>
</defs>
<use xlink:href="#c"/>
<use x="63.623047" xlink:href="#e"/>
<use x="95.410156" xlink:href="#o"/>
</g>
</g>
<g clip-path="url(#a)">
<g transform="translate(92.86 826.49) scale(.1 -.1)">
<defs>
<path id="n" d="m10.797 72.906h38.719v-8.3125h-29.688v-17.859q2.1406 0.73438 4.2812 1.0938 2.1562 0.35938 4.3125 0.35938 12.203 0 19.328-6.6875 7.1406-6.6875 7.1406-18.109 0-11.766-7.3281-18.297-7.3281-6.5156-20.656-6.5156-4.5938 0-9.3594 0.78125-4.75 0.78125-9.8281 2.3438v9.9219q4.3906-2.3906 9.0781-3.5625t9.9062-1.1719q8.4531 0 13.375 4.4375 4.9375 4.4375 4.9375 12.062 0 7.6094-4.9375 12.047-4.9219 4.4531-13.375 4.4531-3.9531 0-7.8906-0.875-3.9219-0.875-8.0156-2.7344z"/>
</defs>
<use xlink:href="#c"/>
<use x="63.623047" xlink:href="#e"/>
<use x="95.410156" xlink:href="#n"/>
</g>
</g>
<g clip-path="url(#a)">
<g transform="translate(108.25 911.57) scale(.1 -.1)">
<defs>
<path id="ac" d="m33.016 40.375q-6.6406 0-10.531-4.5469-3.875-4.5312-3.875-12.438 0-7.8594 3.875-12.438 3.8906-4.5625 10.531-4.5625t10.516 4.5625q3.875 4.5781 3.875 12.438 0 7.9062-3.875 12.438-3.875 4.5469-10.516 4.5469zm19.578 30.922v-8.9844q-3.7188 1.75-7.5 2.6719-3.7812 0.9375-7.5 0.9375-9.7656 0-14.922-6.5938-5.1406-6.5938-5.875-19.922 2.875 4.25 7.2188 6.5156 4.3594 2.2656 9.5781 2.2656 10.984 0 17.359-6.6719 6.375-6.6562 6.375-18.125 0-11.234-6.6406-18.031-6.6406-6.7812-17.672-6.7812-12.656 0-19.344 9.6875-6.6875 9.7031-6.6875 28.109 0 17.281 8.2031 27.562t22.016 10.281q3.7188 0 7.5-0.73438t7.8906-2.1875z"/>
</defs>
<use xlink:href="#c"/>
<use x="63.623047" xlink:href="#e"/>
<use x="95.410156" xlink:href="#ac"/>
</g>
</g>
<g clip-path="url(#a)">
<g transform="translate(121.44 911.57) scale(.1 -.1)">
<defs>
<path id="ah" d="m8.2031 72.906h46.875v-4.2031l-26.469-68.703h-10.297l24.906 64.594h-35.016z"/>
</defs>
<use xlink:href="#c"/>
<use x="63.623047" xlink:href="#e"/>
<use x="95.410156" xlink:href="#ah"/>
</g>
</g>
<g clip-path="url(#a)">
<g transform="translate(222.88 223.48) scale(.1 -.1)">
<defs>
<path id="aa" d="m31.781 34.625q-7.0312 0-11.062-3.7656-4.0156-3.7656-4.0156-10.344 0-6.5938 4.0156-10.359 4.0312-3.7656 11.062-3.7656t11.078 3.7812q4.0625 3.7969 4.0625 10.344 0 6.5781-4.0312 10.344-4.0156 3.7656-11.109 3.7656zm-9.8594 4.1875q-6.3438 1.5625-9.8906 5.9062-3.5312 4.3594-3.5312 10.609 0 8.7344 6.2188 13.812 6.2344 5.0781 17.062 5.0781 10.891 0 17.094-5.0781t6.2031-13.812q0-6.25-3.5469-10.609-3.5312-4.3438-9.8281-5.9062 7.125-1.6562 11.094-6.5 3.9844-4.8281 3.9844-11.797 0-10.609-6.4688-16.281-6.4688-5.6562-18.531-5.6562-12.047 0-18.531 5.6562-6.4688 5.6719-6.4688 16.281 0 6.9688 4 11.797 4.0156 4.8438 11.141 6.5zm-3.6094 15.578q0-5.6562 3.5312-8.8281 3.5469-3.1719 9.9375-3.1719 6.3594 0 9.9375 3.1719 3.5938 3.1719 3.5938 8.8281 0 5.6719-3.5938 8.8438-3.5781 3.1719-9.9375 3.1719-6.3906 0-9.9375-3.1719-3.5312-3.1719-3.5312-8.8438z"/>
</defs>
<use xlink:href="#c"/>
<use x="63.623047" xlink:href="#e"/>
<use x="95.410156" xlink:href="#aa"/>
</g>
</g>
<g clip-path="url(#a)">
<g transform="translate(136.83 911.57) scale(.1 -.1)">
<defs>
<path id="ab" d="m10.984 1.5156v8.9844q3.7188-1.7656 7.5156-2.6875 3.8125-0.92188 7.4844-0.92188 9.7656 0 14.906 6.5625 5.1562 6.5625 5.8906 19.953-2.8281-4.2031-7.1875-6.4531-4.3438-2.25-9.6094-2.25-10.938 0-17.312 6.6094-6.375 6.625-6.375 18.109 0 11.219 6.6406 18 6.6406 6.7969 17.672 6.7969 12.656 0 19.312-9.7031 6.6719-9.6875 6.6719-28.141 0-17.234-8.1875-27.516-8.1719-10.281-21.984-10.281-3.7188 0-7.5312 0.73438-3.7969 0.73438-7.9062 2.2031zm19.625 30.906q6.6406 0 10.516 4.5312 3.8906 4.5469 3.8906 12.469 0 7.8594-3.8906 12.422-3.875 4.5625-10.516 4.5625t-10.516-4.5625-3.875-12.422q0-7.9219 3.875-12.469 3.875-4.5312 10.516-4.5312z"/>
</defs>
<use xlink:href="#c"/>
<use x="63.623047" xlink:href="#e"/>
<use x="95.410156" xlink:href="#ab"/>
</g>
</g>
<g clip-path="url(#a)">
<g transform="translate(161.14 826.49) scale(.1 -.1)">
<defs>
<path id="ad" d="m31.781 66.406q-7.6094 0-11.453-7.5-3.8281-7.4844-3.8281-22.531 0-14.984 3.8281-22.484 3.8438-7.5 11.453-7.5 7.6719 0 11.5 7.5 3.8438 7.5 3.8438 22.484 0 15.047-3.8438 22.531-3.8281 7.5-11.5 7.5zm0 7.8125q12.266 0 18.734-9.7031 6.4688-9.6875 6.4688-28.141 0-18.406-6.4688-28.109-6.4688-9.6875-18.734-9.6875-12.25 0-18.719 9.6875-6.4688 9.7031-6.4688 28.109 0 18.453 6.4688 28.141 6.4688 9.7031 18.719 9.7031z"/>
</defs>
<use xlink:href="#c"/>
<use x="63.623047" xlink:href="#e"/>
<use x="95.410156" xlink:href="#c"/>
<use x="159.033203" xlink:href="#ad"/>
</g>
</g>
<g clip-path="url(#a)">
<g transform="translate(171.03 911.57) scale(.1 -.1)">
<use xlink:href="#c"/>
<use x="63.623047" xlink:href="#e"/>
<use x="95.410156" xlink:href="#c"/>
<use x="159.033203" xlink:href="#c"/>
</g>
</g>
<g clip-path="url(#a)">
<g transform="translate(439.65 310.07) scale(.1 -.1)">
<use xlink:href="#c"/>
<use x="63.623047" xlink:href="#e"/>
<use x="95.410156" xlink:href="#c"/>
<use x="159.033203" xlink:href="#p"/>
</g>
</g>
<g clip-path="url(#a)">
<g transform="translate(217.21 911.57) scale(.1 -.1)">
<defs>
<path id="q" d="m37.797 64.312-24.906-38.922h24.906zm-2.5938 8.5938h12.406v-47.516h10.406v-8.2031h-10.406v-17.188h-9.8125v17.188h-32.906v9.5156z"/>
</defs>
<use xlink:href="#c"/>
<use x="63.623047" xlink:href="#e"/>
<use x="95.410156" xlink:href="#c"/>
<use x="159.033203" xlink:href="#q"/>
</g>
</g>
<g clip-path="url(#a)">
<g transform="translate(243.59 911.57) scale(.1 -.1)">
<use xlink:href="#c"/>
<use x="63.623047" xlink:href="#e"/>
<use x="95.410156" xlink:href="#c"/>
<use x="159.033203" xlink:href="#n"/>
</g>
</g>
<g clip-path="url(#a)">
<g transform="translate(272.17 911.57) scale(.1 -.1)">
<use xlink:href="#c"/>
<use x="63.623047" xlink:href="#e"/>
<use x="95.410156" xlink:href="#c"/>
<use x="159.033203" xlink:href="#ac"/>
</g>
</g>
<g clip-path="url(#a)">
<g transform="translate(1025.6 396.55) scale(.1 -.1)">
<use xlink:href="#c"/>
<use x="63.623047" xlink:href="#e"/>
<use x="95.410156" xlink:href="#c"/>
<use x="159.033203" xlink:href="#ah"/>
</g>
</g>
<g clip-path="url(#a)">
<g transform="translate(302.96 911.57) scale(.1 -.1)">
<use xlink:href="#c"/>
<use x="63.623047" xlink:href="#e"/>
<use x="95.410156" xlink:href="#c"/>
<use x="159.033203" xlink:href="#aa"/>
</g>
</g>
<g clip-path="url(#a)">
<g transform="translate(1617.8 911.57) scale(.1 -.1)">
<use xlink:href="#c"/>
<use x="63.623047" xlink:href="#e"/>
<use x="95.410156" xlink:href="#c"/>
<use x="159.033203" xlink:href="#ab"/>
</g>
</g>
<g clip-path="url(#a)">
<g transform="translate(1029.6 482.9) scale(.1 -.1)">
<use xlink:href="#c"/>
<use x="63.623047" xlink:href="#e"/>
<use x="95.410156" xlink:href="#p"/>
<use x="159.033203" xlink:href="#ad"/>
</g>
</g>
<g clip-path="url(#a)">
<g transform="translate(1152.2 482.9) scale(.1 -.1)">
<use xlink:href="#c"/>
<use x="63.623047" xlink:href="#e"/>
<use x="95.410156" xlink:href="#p"/>
<use x="159.033203" xlink:href="#c"/>
</g>
</g>
<g clip-path="url(#a)">
<g transform="translate(1744.2 911.57) scale(.1 -.1)">
<use xlink:href="#c"/>
<use x="63.623047" xlink:href="#e"/>
<use x="95.410156" xlink:href="#p"/>
<use x="159.033203" xlink:href="#p"/>
</g>
</g>
<g clip-path="url(#a)">
<g transform="translate(489.46 569.11) scale(.1 -.1)">
<use xlink:href="#c"/>
<use x="63.623047" xlink:href="#e"/>
<use x="95.410156" xlink:href="#p"/>
<use x="159.033203" xlink:href="#o"/>
</g>
</g>
<g clip-path="url(#a)">
<g transform="translate(1380.3 911.57) scale(.1 -.1)">
<use xlink:href="#c"/>
<use x="63.623047" xlink:href="#e"/>
<use x="95.410156" xlink:href="#p"/>
<use x="159.033203" xlink:href="#q"/>
</g>
</g>
<g clip-path="url(#a)">
<g transform="translate(1496.9 911.57) scale(.1 -.1)">
<use xlink:href="#c"/>
<use x="63.623047" xlink:href="#e"/>
<use x="95.410156" xlink:href="#p"/>
<use x="159.033203" xlink:href="#n"/>
</g>
</g>
<g clip-path="url(#a)">
<g transform="translate(335.94 911.57) scale(.1 -.1)">
<use xlink:href="#c"/>
<use x="63.623047" xlink:href="#e"/>
<use x="95.410156" xlink:href="#p"/>
<use x="159.033203" xlink:href="#aa"/>
</g>
</g>
<g clip-path="url(#a)">
<g transform="translate(371.12 911.57) scale(.1 -.1)">
<use xlink:href="#c"/>
<use x="63.623047" xlink:href="#e"/>
<use x="95.410156" xlink:href="#p"/>
<use x="159.033203" xlink:href="#ab"/>
</g>
</g>
<g clip-path="url(#a)">
<g transform="translate(761.32 655.15) scale(.1 -.1)">
<use xlink:href="#c"/>
<use x="63.623047" xlink:href="#e"/>
<use x="95.410156" xlink:href="#o"/>
<use x="159.033203" xlink:href="#ad"/>
</g>
</g>
<g clip-path="url(#a)">
<g transform="translate(389.81 826.49) scale(.1 -.1)">
<use xlink:href="#c"/>
<use x="63.623047" xlink:href="#e"/>
<use x="95.410156" xlink:href="#o"/>
<use x="159.033203" xlink:href="#c"/>
</g>
</g>
<g clip-path="url(#a)">
<g transform="translate(448.07 911.57) scale(.1 -.1)">
<use xlink:href="#c"/>
<use x="63.623047" xlink:href="#e"/>
<use x="95.410156" xlink:href="#o"/>
<use x="159.033203" xlink:href="#p"/>
</g>
</g>
<g clip-path="url(#a)">
<g transform="translate(588.28 740.96) scale(.1 -.1)">
<use xlink:href="#c"/>
<use x="63.623047" xlink:href="#e"/>
<use x="95.410156" xlink:href="#o"/>
<use x="159.033203" xlink:href="#o"/>
</g>
</g>
<g clip-path="url(#a)">
<g transform="translate(965.87 911.57) scale(.1 -.1)">
<use xlink:href="#c"/>
<use x="63.623047" xlink:href="#e"/>
<use x="95.410156" xlink:href="#o"/>
<use x="159.033203" xlink:href="#q"/>
</g>
</g>
<g clip-path="url(#a)">
<g transform="translate(964.77 911.57) scale(.1 -.1)">
<use xlink:href="#c"/>
<use x="63.623047" xlink:href="#e"/>
<use x="95.410156" xlink:href="#o"/>
<use x="159.033203" xlink:href="#n"/>
</g>
</g>
<g clip-path="url(#a)">
<g transform="translate(1128.6 826.49) scale(.1 -.1)">
<use xlink:href="#c"/>
<use x="63.623047" xlink:href="#e"/>
<use x="95.410156" xlink:href="#o"/>
<use x="159.033203" xlink:href="#ac"/>
</g>
</g>
<g clip-path="url(#a)">
<g transform="translate(1094.5 911.57) scale(.1 -.1)">
<use xlink:href="#c"/>
<use x="63.623047" xlink:href="#e"/>
<use x="95.410156" xlink:href="#o"/>
<use x="159.033203" xlink:href="#aa"/>
</g>
</g>
<g clip-path="url(#a)">
<g transform="translate(1162.7 911.57) scale(.1 -.1)">
<use xlink:href="#c"/>
<use x="63.623047" xlink:href="#e"/>
<use x="95.410156" xlink:href="#o"/>
<use x="159.033203" xlink:href="#ab"/>
</g>
</g>
<g clip-path="url(#a)">
<g transform="translate(489.85 911.57) scale(.1 -.1)">
<use xlink:href="#c"/>
<use x="63.623047" xlink:href="#e"/>
<use x="95.410156" xlink:href="#q"/>
<use x="159.033203" xlink:href="#ad"/>
</g>
</g>
<g clip-path="url(#a)">
<g transform="translate(533.82 911.57) scale(.1 -.1)">
<use xlink:href="#c"/>
<use x="63.623047" xlink:href="#e"/>
<use x="95.410156" xlink:href="#q"/>
<use x="159.033203" xlink:href="#c"/>
</g>
</g>
<g clip-path="url(#a)">
<g transform="translate(556.91 826.49) scale(.1 -.1)">
<use xlink:href="#c"/>
<use x="63.623047" xlink:href="#e"/>
<use x="95.410156" xlink:href="#q"/>
<use x="159.033203" xlink:href="#p"/>
</g>
</g>
<g clip-path="url(#a)">
<g transform="translate(732.44 826.49) scale(.1 -.1)">
<use xlink:href="#c"/>
<use x="63.623047" xlink:href="#e"/>
<use x="95.410156" xlink:href="#q"/>
<use x="159.033203" xlink:href="#o"/>
</g>
</g>
<g clip-path="url(#a)">
<g transform="translate(678.94 911.57) scale(.1 -.1)">
<use xlink:href="#c"/>
<use x="63.623047" xlink:href="#e"/>
<use x="95.410156" xlink:href="#q"/>
<use x="159.033203" xlink:href="#n"/>
</g>
</g>
<g clip-path="url(#a)">
<g transform="translate(731.71 911.57) scale(.1 -.1)">
<use xlink:href="#c"/>
<use x="63.623047" xlink:href="#e"/>
<use x="95.410156" xlink:href="#q"/>
<use x="159.033203" xlink:href="#ac"/>
</g>
</g>
<g clip-path="url(#a)">
<g transform="translate(786.68 911.57) scale(.1 -.1)">
<use xlink:href="#c"/>
<use x="63.623047" xlink:href="#e"/>
<use x="95.410156" xlink:href="#q"/>
<use x="159.033203" xlink:href="#ah"/>
</g>
</g>
<g clip-path="url(#a)">
<g transform="translate(580 911.57) scale(.1 -.1)">
<use xlink:href="#c"/>
<use x="63.623047" xlink:href="#e"/>
<use x="95.410156" xlink:href="#q"/>
<use x="159.033203" xlink:href="#aa"/>
</g>
</g>
<g clip-path="url(#a)">
<g transform="translate(408.5 911.57) scale(.1 -.1)">
<use xlink:href="#c"/>
<use x="63.623047" xlink:href="#e"/>
<use x="95.410156" xlink:href="#q"/>
<use x="159.033203" xlink:href="#ab"/>
</g>
</g>
<g clip-path="url(#a)">
<g transform="translate(151.24 911.57) scale(.1 -.1)">
<use xlink:href="#c"/>
<use x="63.623047" xlink:href="#e"/>
<use x="95.410156" xlink:href="#n"/>
<use x="159.033203" xlink:href="#ad"/>
</g>
</g>
<g clip-path="url(#a)">
<g transform="translate(85.282 911.57) scale(.1 -.1)">
<use xlink:href="#c"/>
<use x="63.623047" xlink:href="#e"/>
<use x="95.410156" xlink:href="#n"/>
<use x="159.033203" xlink:href="#c"/>
</g>
</g>
<g clip-path="url(#a)">
<g transform="translate(94.076 911.57) scale(.1 -.1)">
<use xlink:href="#c"/>
<use x="63.623047" xlink:href="#e"/>
<use x="95.410156" xlink:href="#n"/>
<use x="159.033203" xlink:href="#p"/>
</g>
</g>
<g clip-path="url(#a)">
<g transform="translate(193.02 911.57) scale(.1 -.1)">
<use xlink:href="#c"/>
<use x="63.623047" xlink:href="#e"/>
<use x="95.410156" xlink:href="#n"/>
<use x="159.033203" xlink:href="#o"/>
</g>
</g>
<g clip-path="url(#a)">
<g transform="translate(628.37 911.57) scale(.1 -.1)">
<use xlink:href="#c"/>
<use x="63.623047" xlink:href="#e"/>
<use x="95.410156" xlink:href="#n"/>
<use x="159.033203" xlink:href="#q"/>
</g>
</g>
<g clip-path="url(#a)">
<g transform="translate(843.84 911.57) scale(.1 -.1)">
<use xlink:href="#c"/>
<use x="63.623047" xlink:href="#e"/>
<use x="95.410156" xlink:href="#n"/>
<use x="159.033203" xlink:href="#n"/>
</g>
</g>
<g clip-path="url(#a)">
<g transform="translate(1233 911.57) scale(.1 -.1)">
<use xlink:href="#c"/>
<use x="63.623047" xlink:href="#e"/>
<use x="95.410156" xlink:href="#n"/>
<use x="159.033203" xlink:href="#ac"/>
</g>
</g>
<g clip-path="url(#a)">
<g transform="translate(1305.6 911.57) scale(.1 -.1)">
<use xlink:href="#c"/>
<use x="63.623047" xlink:href="#e"/>
<use x="95.410156" xlink:href="#n"/>
<use x="159.033203" xlink:href="#ah"/>
</g>
</g>
<g clip-path="url(#a)">
<g transform="translate(1875 911.57) scale(.1 -.1)">
<use xlink:href="#c"/>
<use x="63.623047" xlink:href="#e"/>
<use x="95.410156" xlink:href="#n"/>
<use x="159.033203" xlink:href="#aa"/>
</g>
</g>
<defs>
<clipPath id="a">
<rect width="1976" height="1040"/>
</clipPath>
</defs>
</svg>
