<?xml version="1.0" encoding="UTF-8"?>
<!DOCTYPE svg  PUBLIC '-//W3C//DTD SVG 1.1//EN'  'http://www.w3.org/Graphics/SVG/1.1/DTD/svg11.dtd'>
<svg width="1165.3pt" height="613.33pt" version="1.1" viewBox="0 0 1165.3 613.33" xmlns="http://www.w3.org/2000/svg" xmlns:xlink="http://www.w3.org/1999/xlink">
<metadata>
<rdf:RDF xmlns:cc="http://creativecommons.org/ns#" xmlns:dc="http://purl.org/dc/elements/1.1/" xmlns:rdf="http://www.w3.org/1999/02/22-rdf-syntax-ns#">
<cc:Work>
<dc:type rdf:resource="http://purl.org/dc/dcmitype/StillImage"/>
<dc:date>2021-04-28T07:14:56.538938</dc:date>
<dc:format>image/svg+xml</dc:format>
<dc:creator>
<cc:Agent>
<dc:title>Matplotlib v3.3.3, https://matplotlib.org/</dc:title>
</cc:Agent>
</dc:creator>
</cc:Work>
</rdf:RDF>
</metadata>
<defs>
<style type="text/css">*{stroke-linecap:butt;stroke-linejoin:round;}</style>
</defs>
<path d="m0 613.33h1165.3v-613.33h-1165.3z" fill="#fff"/>
<g fill="none" stroke="#000">
<path d="m393.13 27.879-340.16 466.3" clip-path="url(#a)"/>
<path d="m393.13 27.879-89.452 93.776" clip-path="url(#a)"/>
<path d="m393.13 27.879 429.61 373.75" clip-path="url(#a)"/>
<path d="m52.97 494.18v91.279" clip-path="url(#a)"/>
<path d="m303.68 121.65 223.7 372.52" clip-path="url(#a)" stroke-dasharray="3.7,1.6"/>
<path d="m303.68 121.65-232.87 372.52" clip-path="url(#a)"/>
<path d="m303.68 121.65-157.45 93.587" clip-path="url(#a)"/>
<path d="m303.68 121.65 166.63 372.52" clip-path="url(#a)"/>
<path d="m822.74 401.63-295.37 92.549" clip-path="url(#a)"/>
<path d="m822.74 401.63-169.33 92.549" clip-path="url(#a)"/>
<path d="m822.74 401.63-31.409 92.549" clip-path="url(#a)"/>
<path d="m822.74 401.63 43.497 92.549" clip-path="url(#a)"/>
<path d="m822.74 401.63 162.99 92.549" clip-path="url(#a)"/>
<path d="m822.74 401.63 289.62 92.549" clip-path="url(#a)"/>
<path d="m527.38 494.18v91.279" clip-path="url(#a)"/>
<path d="m653.41 494.18-65.395 91.279" clip-path="url(#a)"/>
<path d="m653.41 494.18-1.189 91.279" clip-path="url(#a)"/>
<path d="m653.41 494.18 66.584 91.279" clip-path="url(#a)"/>
<path d="m791.34 494.18v91.279" clip-path="url(#a)"/>
<path d="m866.24 494.18v91.279" clip-path="url(#a)"/>
<path d="m985.74 494.18-41.02 91.279" clip-path="url(#a)"/>
<path d="m985.74 494.18 41.02 91.279" clip-path="url(#a)"/>
<path d="m70.805 494.18-7.134 91.279" clip-path="url(#a)"/>
<path d="m70.805 494.18 7.134 91.279" clip-path="url(#a)"/>
<path d="m146.23 215.24-50.453 278.93" clip-path="url(#a)"/>
<path d="m146.23 215.24-29.051 186.39" clip-path="url(#a)"/>
<path d="m146.23 215.24 79.504 93.351" clip-path="url(#a)"/>
<path d="m95.773 494.18v91.279" clip-path="url(#a)"/>
<path d="m117.18 401.63v92.549" clip-path="url(#a)"/>
<path d="m225.73 308.59-83.586 185.58" clip-path="url(#a)"/>
<path d="m225.73 308.59-21.164 93.034" clip-path="url(#a)"/>
<path d="m225.73 308.59-5.1127 93.034" clip-path="url(#a)"/>
<path d="m225.73 308.59 12.722 185.58" clip-path="url(#a)"/>
<path d="m225.73 308.59 97.141 93.034" clip-path="url(#a)"/>
<path d="m142.14 494.18v91.279" clip-path="url(#a)"/>
<path d="m204.57 401.63 33.886 92.549" clip-path="url(#a)" stroke-dasharray="3.7,1.6"/>
<path d="m204.57 401.63-33.886 92.549" clip-path="url(#a)"/>
<path d="m220.62 401.63 17.835 92.549" clip-path="url(#a)" stroke-dasharray="3.7,1.6"/>
<path d="m220.62 401.63-17.835 92.549" clip-path="url(#a)"/>
<path d="m238.45 494.18v91.279" clip-path="url(#a)"/>
<path d="m322.87 401.63-45.182 92.549" clip-path="url(#a)"/>
<path d="m322.87 401.63 45.182 92.549" clip-path="url(#a)"/>
<path d="m277.69 494.18v91.279" clip-path="url(#a)"/>
<path d="m368.05 494.18-47.56 91.279" clip-path="url(#a)"/>
<path d="m368.05 494.18-1.189 91.279" clip-path="url(#a)"/>
<path d="m368.05 494.18 48.749 91.279" clip-path="url(#a)"/>
<path d="m202.78 494.18v91.279" clip-path="url(#a)"/>
<path d="m170.68 494.18v91.279" clip-path="url(#a)"/>
<path d="m117.18 494.18v91.279" clip-path="url(#a)"/>
<path d="m470.31 494.18v91.279" clip-path="url(#a)"/>
<path d="m1112.4 494.18v91.279" clip-path="url(#a)"/>
</g>
<path d="m226.8 266.52 2.627-3.6011q1.4144-1.9389-0.52448-3.3533l-6.255-4.563q-1.9389-1.4144-3.3533 0.52448l-2.627 3.6011q-1.4144 1.9389 0.52448 3.3533l6.255 4.563q1.9389 1.4144 3.3533-0.52448z" clip-path="url(#a)" fill="#fff" stroke="#fff"/>
<g clip-path="url(#a)">
<g transform="translate(223.52 264.13) rotate(-53.889) scale(.08 -.08)">
<defs>
<path id="am" d="m9.8125 72.906h9.8594v-64.609h35.5v-8.2969h-45.359z"/>
</defs>
<use xlink:href="#am"/>
</g>
</g>
<path d="m350.87 81.272 4.1526-4.3533q1.6566-1.7366-0.080069-3.3932l-5.6024-5.3441q-1.7366-1.6565-3.3932 0.080069l-4.1526 4.3533q-1.6565 1.7366 0.08007 3.3932l5.6024 5.3441q1.7366 1.6565 3.3932-0.08007z" clip-path="url(#a)" fill="#fff" stroke="#fff"/>
<g clip-path="url(#a)">
<g transform="translate(347.93 78.467) rotate(-46.352) scale(.08 -.08)">
<defs>
<path id="ae" d="m9.8125 72.906h9.8594v-29.891h35.844v29.891h9.8594v-72.906h-9.8594v34.719h-35.844v-34.719h-9.8594z"/>
</defs>
<use xlink:href="#ae"/>
</g>
</g>
<path d="m601.55 217.51 4.539 3.9488q1.8107 1.5752 3.3859-0.23546l5.0818-5.8414q1.5752-1.8107-0.23546-3.3859l-4.539-3.9488q-1.8107-1.5752-3.3859 0.23546l-5.0818 5.8414q-1.5752 1.8107 0.23546 3.3859z" clip-path="url(#a)" fill="#fff" stroke="#fff"/>
<g clip-path="url(#a)">
<g transform="translate(604.22 214.44) rotate(41.022) scale(.08 -.08)">
<use xlink:href="#ae"/>
</g>
</g>
<path d="m46.698 522.91v33.808q0 2.4 2.4 2.4h7.7425q2.4 0 2.4-2.4v-33.808q0-2.4-2.4-2.4h-7.7425q-2.4 0-2.4 2.4z" clip-path="url(#a)" fill="#fff" stroke="#fff"/>
<g clip-path="url(#a)">
<g transform="translate(50.762 522.91) rotate(90) scale(.08 -.08)">
<defs>
<path id="l" d="m-0.29688 72.906h61.672v-8.3125h-25.875v-64.594h-9.9062v64.594h-25.891z"/>
<path id="d" d="m56.203 29.594v-4.3906h-41.312q0.59375-9.2812 5.5938-14.141t13.938-4.8594q5.1719 0 10.031 1.2656t9.6562 3.8125v-8.5q-4.8438-2.0469-9.9219-3.125t-10.297-1.0781q-13.094 0-20.734 7.6094-7.6406 7.625-7.6406 20.625 0 13.422 7.25 21.297 7.25 7.8906 19.562 7.8906 11.031 0 17.453-7.1094 6.4219-7.0938 6.4219-19.297zm-8.9844 2.6406q-0.09375 7.3594-4.125 11.75-4.0312 4.4062-10.672 4.4062-7.5156 0-12.031-4.25t-5.2031-11.969z"/>
<path id="g" d="m41.109 46.297q-1.5156 0.875-3.2969 1.2812-1.7812 0.42188-3.9219 0.42188-7.625 0-11.703-4.9531t-4.0781-14.234v-28.812h-9.0312v54.688h9.0312v-8.5q2.8438 4.9844 7.375 7.3906 4.5469 2.4219 11.047 2.4219 0.92188 0 2.0469-0.125 1.125-0.10938 2.4844-0.35938z"/>
<path id="k" d="m52 44.188q3.375 6.0625 8.0625 8.9375t11.031 2.875q8.5469 0 13.188-5.9844 4.6406-5.9688 4.6406-17v-33.016h-9.0312v32.719q0 7.8594-2.7969 11.656-2.7812 3.8125-8.4844 3.8125-6.9844 0-11.047-4.6406-4.0469-4.625-4.0469-12.641v-30.906h-9.0312v32.719q0 7.9062-2.7812 11.688t-8.5938 3.7812q-6.8906 0-10.953-4.6562-4.0469-4.6562-4.0469-12.625v-30.906h-9.0312v54.688h9.0312v-8.5q3.0781 5.0312 7.375 7.4219t10.203 2.3906q5.9688 0 10.141-3.0312 4.1719-3.0156 6.1719-8.7812z"/>
<path id="h" d="m9.4219 54.688h8.9844v-54.688h-8.9844zm0 21.297h8.9844v-11.391h-8.9844z"/>
<path id="e" d="m54.891 33.016v-33.016h-8.9844v32.719q0 7.7656-3.0312 11.609-3.0312 3.8594-9.0781 3.8594-7.2812 0-11.484-4.6406-4.2031-4.625-4.2031-12.641v-30.906h-9.0312v54.688h9.0312v-8.5q3.2344 4.9375 7.5938 7.375 4.375 2.4375 10.094 2.4375 9.4219 0 14.25-5.8281 4.8438-5.8281 4.8438-17.156z"/>
<path id="f" d="m34.281 27.484q-10.891 0-15.094-2.4844t-4.2031-8.5q0-4.7812 3.1562-7.5938 3.1562-2.7969 8.5625-2.7969 7.4844 0 12 5.2969t4.5156 14.078v2zm17.922 3.7188v-31.203h-8.9844v8.2969q-3.0781-4.9688-7.6719-7.3438t-11.234-2.375q-8.3906 0-13.359 4.7188-4.9531 4.7188-4.9531 12.625 0 9.2188 6.1719 13.906 6.1875 4.6875 18.438 4.6875h12.609v0.89062q0 6.2031-4.0781 9.5938t-11.453 3.3906q-4.6875 0-9.1406-1.125-4.4375-1.125-8.5312-3.375v8.3125q4.9219 1.9062 9.5625 2.8438 4.6406 0.95312 9.0312 0.95312 11.875 0 17.734-6.1562 5.8594-6.1406 5.8594-18.641z"/>
<path id="j" d="m9.4219 75.984h8.9844v-75.984h-8.9844z"/>
</defs>
<use xlink:href="#l"/>
<use x="44.083984" xlink:href="#d"/>
<use x="105.607422" xlink:href="#g"/>
<use x="144.970703" xlink:href="#k"/>
<use x="242.382812" xlink:href="#h"/>
<use x="270.166016" xlink:href="#e"/>
<use x="333.544922" xlink:href="#f"/>
<use x="394.824219" xlink:href="#j"/>
</g>
</g>
<path d="m408.74 308.8 2.8173 4.6916q1.2355 2.0575 3.2931 0.82198l6.6377-3.9859q2.0575-1.2355 0.82198-3.2931l-2.8173-4.6916q-1.2355-2.0575-3.2931-0.82198l-6.6377 3.9859q-2.0575 1.2355-0.82198 3.2931z" clip-path="url(#a)" fill="#fff" stroke="#fff"/>
<g clip-path="url(#a)">
<g transform="translate(412.23 306.71) rotate(59.015) scale(.08 -.08)">
<defs>
<path id="o" d="m34.188 63.188-13.391-36.281h26.812zm-5.5781 9.7188h11.188l27.781-72.906h-10.25l-6.6406 18.703h-32.859l-6.6406-18.703h-10.406z"/>
</defs>
<use xlink:href="#o"/>
</g>
</g>
<path d="m191.28 313.28 2.557-4.0903q1.2722-2.0351-0.76289-3.3073l-6.5652-4.1041q-2.0351-1.2722-3.3073 0.76289l-2.557 4.0903q-1.2722 2.0351 0.76289 3.3073l6.5652 4.1041q2.0351 1.2722 3.3073-0.76289z" clip-path="url(#a)" fill="#fff" stroke="#fff"/>
<g clip-path="url(#a)">
<g transform="translate(187.84 311.13) rotate(-57.989) scale(.08 -.08)">
<defs>
<path id="x" d="m19.672 64.797v-27.391h12.406q6.8906 0 10.641 3.5625 3.7656 3.5625 3.7656 10.156 0 6.5469-3.7656 10.109-3.75 3.5625-10.641 3.5625zm-9.8594 8.1094h22.266q12.266 0 18.531-5.5469 6.2812-5.5469 6.2812-16.234 0-10.797-6.2812-16.312-6.2656-5.5156-18.531-5.5156h-12.406v-29.297h-9.8594z"/>
</defs>
<use xlink:href="#x"/>
</g>
</g>
<path d="m225.8 175.24 4.7042-2.7961q2.0631-1.2263 0.83682-3.2893l-3.956-6.6556q-1.2263-2.0631-3.2893-0.83682l-4.7042 2.7961q-2.0631 1.2263-0.83682 3.2893l3.956 6.6556q1.2263 2.0631 3.2893 0.83682z" clip-path="url(#a)" fill="#fff" stroke="#fff"/>
<g clip-path="url(#a)">
<g transform="translate(223.73 171.74) rotate(-30.727) scale(.08 -.08)">
<use xlink:href="#o"/>
</g>
</g>
<path d="m380.07 307.8 2.3907 5.3447q0.97995 2.1908 3.1708 1.2109l7.0677-3.1614q2.1908-0.97995 1.2109-3.1708l-2.3907-5.3447q-0.97995-2.1908-3.1708-1.2109l-7.0677 3.1614q-2.1908 0.97995-1.2109 3.1708z" clip-path="url(#a)" fill="#fff" stroke="#fff"/>
<g clip-path="url(#a)">
<g transform="translate(383.78 306.14) rotate(65.901) scale(.08 -.08)">
<defs>
<path id="ad" d="m8.6875 72.906h9.9219v-44.297q0-11.719 4.2344-16.875 4.25-5.1406 13.781-5.1406 9.4688 0 13.719 5.1406 4.25 5.1562 4.25 16.875v44.297h9.9062v-45.516q0-14.25-7.0625-21.531-7.0469-7.2812-20.812-7.2812-13.828 0-20.891 7.2812-7.0469 7.2812-7.0469 21.531z"/>
</defs>
<use xlink:href="#ad"/>
</g>
</g>
<path d="m674.33 454.7 5.2221-1.6363q2.2902-0.7176 1.5726-3.0078l-2.315-7.3883q-0.7176-2.2902-3.0078-1.5726l-5.2221 1.6363q-2.2902 0.7176-1.5726 3.0078l2.315 7.3883q0.7176 2.2902 3.0078 1.5726z" clip-path="url(#a)" fill="#fff" stroke="#fff"/>
<g clip-path="url(#a)">
<g transform="translate(673.11 450.83) rotate(-17.398) scale(.08 -.08)">
<use xlink:href="#o"/>
</g>
</g>
<path d="m738.38 454.88 5.4053-2.9543q2.106-1.151 0.95495-3.257l-3.7132-6.794q-1.151-2.106-3.257-0.95495l-5.4053 2.9543q-2.106 1.151-0.95496 3.257l3.7133 6.794q1.151 2.106 3.257 0.95496z" clip-path="url(#a)" fill="#fff" stroke="#fff"/>
<g clip-path="url(#a)">
<g transform="translate(736.43 451.32) rotate(-28.659) scale(.08 -.08)">
<defs>
<path id="ap" d="m19.672 64.797v-56.688h11.922q15.094 0 22.094 6.8281 7 6.8438 7 21.594 0 14.641-7 21.453t-22.094 6.8125zm-9.8594 8.1094h20.266q21.188 0 31.094-8.8125 9.9219-8.8125 9.9219-27.562 0-18.859-9.9688-27.703-9.9531-8.8281-31.047-8.8281h-20.266z"/>
</defs>
<use xlink:href="#ap"/>
</g>
</g>
<path d="m812.24 452.1 1.4787-4.3572q0.7713-2.2727-1.5014-3.044l-7.3318-2.4883q-2.2727-0.7713-3.044 1.5014l-1.4787 4.3572q-0.7713 2.2727 1.5014 3.044l7.3318 2.4883q2.2727 0.7713 3.044-1.5014z" clip-path="url(#a)" fill="#fff" stroke="#fff"/>
<g clip-path="url(#a)">
<g transform="translate(808.39 450.79) rotate(-71.254) scale(.08 -.08)">
<defs>
<path id="ao" d="m9.8125 72.906h41.891v-8.3125h-32.031v-21.484h28.906v-8.2969h-28.906v-34.812h-9.8594z"/>
</defs>
<use xlink:href="#ao"/>
</g>
</g>
<path d="m837.79 448.39 2.0518 4.3656q1.0209 2.1721 3.1929 1.1512l7.0072-3.2933q2.1721-1.0209 1.1512-3.1929l-2.0518-4.3656q-1.0209-2.1721-3.1929-1.1512l-7.0072 3.2933q-2.1721 1.0209-1.1512 3.1929z" clip-path="url(#a)" fill="#fff" stroke="#fff"/>
<g clip-path="url(#a)">
<g transform="translate(841.47 446.66) rotate(64.827) scale(.08 -.08)">
<use xlink:href="#x"/>
</g>
</g>
<path d="m898.76 452 4.7589 2.7021q2.087 1.185 3.2721-0.90198l3.823-6.7328q1.185-2.087-0.90198-3.2721l-4.7589-2.7021q-2.087-1.185-3.2721 0.90198l-3.823 6.7328q-1.185 2.087 0.90198 3.2721z" clip-path="url(#a)" fill="#fff" stroke="#fff"/>
<g clip-path="url(#a)">
<g transform="translate(900.77 448.47) rotate(29.589) scale(.08 -.08)">
<use xlink:href="#o"/>
</g>
</g>
<path d="m962.86 452.98 5.5772 1.7822q2.2861 0.73054 3.0166-1.5556l2.3567-7.3751q0.73054-2.2861-1.5556-3.0166l-5.5772-1.7822q-2.2861-0.73054-3.0166 1.5556l-2.3567 7.3751q-0.73054 2.2861 1.5556 3.0166z" clip-path="url(#a)" fill="#fff" stroke="#fff"/>
<g clip-path="url(#a)">
<g transform="translate(964.09 449.11) rotate(17.721) scale(.08 -.08)">
<use xlink:href="#ad"/>
</g>
</g>
<path d="m521.11 522.91v33.808q0 2.4 2.4 2.4h7.7425q2.4 0 2.4-2.4v-33.808q0-2.4-2.4-2.4h-7.7425q-2.4 0-2.4 2.4z" clip-path="url(#a)" fill="#fff" stroke="#fff"/>
<g clip-path="url(#a)">
<g transform="translate(525.17 522.91) rotate(90) scale(.08 -.08)">
<use xlink:href="#l"/>
<use x="44.083984" xlink:href="#d"/>
<use x="105.607422" xlink:href="#g"/>
<use x="144.970703" xlink:href="#k"/>
<use x="242.382812" xlink:href="#h"/>
<use x="270.166016" xlink:href="#e"/>
<use x="333.544922" xlink:href="#f"/>
<use x="394.824219" xlink:href="#j"/>
</g>
</g>
<path d="m615.97 557.21 19.689-27.482q1.3977-1.951-0.55325-3.3487l-6.294-4.5092q-1.951-1.3977-3.3487 0.55325l-19.689 27.482q-1.3977 1.951 0.55325 3.3487l6.294 4.5092q1.951 1.3977 3.3487-0.55325z" clip-path="url(#a)" fill="#fff" stroke="#fff"/>
<g clip-path="url(#a)">
<g transform="translate(612.66 554.84) rotate(-54.381) scale(.08 -.08)">
<use xlink:href="#l"/>
<use x="44.083984" xlink:href="#d"/>
<use x="105.607422" xlink:href="#g"/>
<use x="144.970703" xlink:href="#k"/>
<use x="242.382812" xlink:href="#h"/>
<use x="270.166016" xlink:href="#e"/>
<use x="333.544922" xlink:href="#f"/>
<use x="394.824219" xlink:href="#j"/>
</g>
</g>
<path d="m658.87 556.8 0.44034-33.805q0.03126-2.3998-2.3685-2.4311l-7.7418-0.10084q-2.3998-0.03126-2.4311 2.3685l-0.44034 33.805q-0.031259 2.3998 2.3685 2.4311l7.7418 0.10084q2.3998 0.03126 2.4311-2.3685z" clip-path="url(#a)" fill="#fff" stroke="#fff"/>
<g clip-path="url(#a)">
<g transform="translate(654.8 556.75) rotate(-89.254) scale(.08 -.08)">
<use xlink:href="#l"/>
<use x="44.083984" xlink:href="#d"/>
<use x="105.607422" xlink:href="#g"/>
<use x="144.970703" xlink:href="#k"/>
<use x="242.382812" xlink:href="#h"/>
<use x="270.166016" xlink:href="#e"/>
<use x="333.544922" xlink:href="#f"/>
<use x="394.824219" xlink:href="#j"/>
</g>
</g>
<path d="m671.68 529.85 19.924 27.313q1.4144 1.939 3.3533 0.52458l6.2551-4.5628q1.939-1.4144 0.52458-3.3533l-19.924-27.313q-1.4144-1.939-3.3533-0.52458l-6.2551 4.5628q-1.939 1.4144-0.52458 3.3533z" clip-path="url(#a)" fill="#fff" stroke="#fff"/>
<g clip-path="url(#a)">
<g transform="translate(674.96 527.46) rotate(53.891) scale(.08 -.08)">
<use xlink:href="#l"/>
<use x="44.083984" xlink:href="#d"/>
<use x="105.607422" xlink:href="#g"/>
<use x="144.970703" xlink:href="#k"/>
<use x="242.382812" xlink:href="#h"/>
<use x="270.166016" xlink:href="#e"/>
<use x="333.544922" xlink:href="#f"/>
<use x="394.824219" xlink:href="#j"/>
</g>
</g>
<path d="m785.06 522.91v33.808q0 2.4 2.4 2.4h7.7425q2.4 0 2.4-2.4v-33.808q0-2.4-2.4-2.4h-7.7425q-2.4 0-2.4 2.4z" clip-path="url(#a)" fill="#fff" stroke="#fff"/>
<g clip-path="url(#a)">
<g transform="translate(789.13 522.91) rotate(90) scale(.08 -.08)">
<use xlink:href="#l"/>
<use x="44.083984" xlink:href="#d"/>
<use x="105.607422" xlink:href="#g"/>
<use x="144.970703" xlink:href="#k"/>
<use x="242.382812" xlink:href="#h"/>
<use x="270.166016" xlink:href="#e"/>
<use x="333.544922" xlink:href="#f"/>
<use x="394.824219" xlink:href="#j"/>
</g>
</g>
<path d="m859.97 522.91v33.808q0 2.4 2.4 2.4h7.7425q2.4 0 2.4-2.4v-33.808q0-2.4-2.4-2.4h-7.7425q-2.4 0-2.4 2.4z" clip-path="url(#a)" fill="#fff" stroke="#fff"/>
<g clip-path="url(#a)">
<g transform="translate(864.03 522.91) rotate(90) scale(.08 -.08)">
<use xlink:href="#l"/>
<use x="44.083984" xlink:href="#d"/>
<use x="105.607422" xlink:href="#g"/>
<use x="144.970703" xlink:href="#k"/>
<use x="242.382812" xlink:href="#h"/>
<use x="270.166016" xlink:href="#e"/>
<use x="333.544922" xlink:href="#f"/>
<use x="394.824219" xlink:href="#j"/>
</g>
</g>
<path d="m964.02 557.8 13.858-30.837q0.98377-2.1891-1.2053-3.1729l-7.0622-3.1737q-2.1891-0.98377-3.1729 1.2053l-13.858 30.837q-0.98377 2.1891 1.2053 3.1729l7.0622 3.1737q2.1891 0.98377 3.1729-1.2053z" clip-path="url(#a)" fill="#fff" stroke="#fff"/>
<g clip-path="url(#a)">
<g transform="translate(960.31 556.14) rotate(-65.801) scale(.08 -.08)">
<use xlink:href="#l"/>
<use x="44.083984" xlink:href="#d"/>
<use x="105.607422" xlink:href="#g"/>
<use x="144.970703" xlink:href="#k"/>
<use x="242.382812" xlink:href="#h"/>
<use x="270.166016" xlink:href="#e"/>
<use x="333.544922" xlink:href="#f"/>
<use x="394.824219" xlink:href="#j"/>
</g>
</g>
<path d="m993.6 526.97 13.858 30.837q0.98377 2.1891 3.1729 1.2053l7.0622-3.1737q2.1891-0.98377 1.2053-3.1729l-13.858-30.837q-0.98377-2.1891-3.1729-1.2053l-7.0622 3.1737q-2.1891 0.98377-1.2053 3.1729z" clip-path="url(#a)" fill="#fff" stroke="#fff"/>
<g clip-path="url(#a)">
<g transform="translate(997.3 525.3) rotate(65.801) scale(.08 -.08)">
<use xlink:href="#l"/>
<use x="44.083984" xlink:href="#d"/>
<use x="105.607422" xlink:href="#g"/>
<use x="144.970703" xlink:href="#k"/>
<use x="242.382812" xlink:href="#h"/>
<use x="270.166016" xlink:href="#e"/>
<use x="333.544922" xlink:href="#f"/>
<use x="394.824219" xlink:href="#j"/>
</g>
</g>
<path d="m72.173 557.16 2.6342-33.705q0.187-2.3927-2.2057-2.5797l-7.719-0.60328q-2.3927-0.187-2.5797 2.2057l-2.6342 33.705q-0.187 2.3927 2.2057 2.5797l7.719 0.60328q2.3927 0.187 2.5797-2.2057z" clip-path="url(#a)" fill="#fff" stroke="#fff"/>
<g clip-path="url(#a)">
<g transform="translate(68.121 556.84) rotate(-85.531) scale(.08 -.08)">
<use xlink:href="#l"/>
<use x="44.083984" xlink:href="#d"/>
<use x="105.607422" xlink:href="#g"/>
<use x="144.970703" xlink:href="#k"/>
<use x="242.382812" xlink:href="#h"/>
<use x="270.166016" xlink:href="#e"/>
<use x="333.544922" xlink:href="#f"/>
<use x="394.824219" xlink:href="#j"/>
</g>
</g>
<path d="m66.802 523.45 2.6342 33.705q0.187 2.3927 2.5797 2.2057l7.719-0.60328q2.3927-0.187 2.2057-2.5797l-2.6342-33.705q-0.187-2.3927-2.5797-2.2057l-7.719 0.60328q-2.3927 0.187-2.2057 2.5797z" clip-path="url(#a)" fill="#fff" stroke="#fff"/>
<g clip-path="url(#a)">
<g transform="translate(70.854 523.13) rotate(85.531) scale(.08 -.08)">
<use xlink:href="#l"/>
<use x="44.083984" xlink:href="#d"/>
<use x="105.607422" xlink:href="#g"/>
<use x="144.970703" xlink:href="#k"/>
<use x="242.382812" xlink:href="#h"/>
<use x="270.166016" xlink:href="#e"/>
<use x="333.544922" xlink:href="#f"/>
<use x="394.824219" xlink:href="#j"/>
</g>
</g>
<path d="m126.68 358.56 0.9894-5.47q0.42718-2.3617-1.9345-2.7889l-7.6189-1.3781q-2.3617-0.42718-2.7889 1.9345l-0.9894 5.47q-0.42718 2.3617 1.9345 2.7889l7.6189 1.3781q2.3617 0.42718 2.7889-1.9345z" clip-path="url(#a)" fill="#fff" stroke="#fff"/>
<g clip-path="url(#a)">
<g transform="translate(122.68 357.84) rotate(-79.747) scale(.08 -.08)">
<defs>
<path id="w" d="m44.391 34.188q3.1719-1.0781 6.1719-4.5938t6.0312-9.6719l10.016-19.922h-10.609l-9.3125 18.703q-3.625 7.3281-7.0156 9.7188t-9.25 2.3906h-10.75v-30.812h-9.8594v72.906h22.266q12.5 0 18.656-5.2344 6.1562-5.2188 6.1562-15.766 0-6.8906-3.2031-11.438-3.2031-4.5312-9.2969-6.2812zm-24.719 30.609v-25.875h12.406q7.125 0 10.766 3.2969t3.6406 9.6875-3.6406 9.6406-10.766 3.25z"/>
</defs>
<use xlink:href="#w"/>
</g>
</g>
<path d="m137.47 312.16 0.86032-5.5196q0.36962-2.3714-2.0018-2.741l-7.6501-1.1924q-2.3714-0.36962-2.741 2.0018l-0.86032 5.5196q-0.36962 2.3714 2.0018 2.741l7.6501 1.1924q2.3714 0.36962 2.741-2.0018z" clip-path="url(#a)" fill="#fff" stroke="#fff"/>
<g clip-path="url(#a)">
<g transform="translate(133.45 311.53) rotate(-81.141) scale(.08 -.08)">
<defs>
<path id="u" d="m64.406 67.281v-10.391q-4.9844 4.6406-10.625 6.9219-5.6406 2.2969-11.984 2.2969-12.5 0-19.141-7.6406t-6.6406-22.094q0-14.406 6.6406-22.047t19.141-7.6406q6.3438 0 11.984 2.2969t10.625 6.9375v-10.312q-5.1719-3.5156-10.969-5.2812-5.7812-1.75-12.219-1.75-16.562 0-26.094 10.125-9.5156 10.141-9.5156 27.672 0 17.578 9.5156 27.703 9.5312 10.141 26.094 10.141 6.5312 0 12.312-1.7344 5.7969-1.7344 10.875-5.2031z"/>
</defs>
<use xlink:href="#u"/>
</g>
</g>
<path d="m179.57 264.06 3.2776 3.8484q1.5561 1.8271 3.3833 0.27102l5.8945-5.0201q1.8271-1.5561 0.27102-3.3833l-3.2776-3.8484q-1.5561-1.8271-3.3833-0.27102l-5.8945 5.0201q-1.8271 1.5561-0.27102 3.3833z" clip-path="url(#a)" fill="#fff" stroke="#fff"/>
<g clip-path="url(#a)">
<g transform="translate(182.66 261.42) rotate(49.58) scale(.08 -.08)">
<defs>
<path id="t" d="m9.8125 72.906h46.094v-8.3125h-36.234v-21.578h34.719v-8.2969h-34.719v-26.422h37.109v-8.2969h-46.969z"/>
</defs>
<use xlink:href="#t"/>
</g>
</g>
<path d="m89.502 522.91v33.808q0 2.4 2.4 2.4h7.7425q2.4 0 2.4-2.4v-33.808q0-2.4-2.4-2.4h-7.7425q-2.4 0-2.4 2.4z" clip-path="url(#a)" fill="#fff" stroke="#fff"/>
<g clip-path="url(#a)">
<g transform="translate(93.566 522.91) rotate(90) scale(.08 -.08)">
<use xlink:href="#l"/>
<use x="44.083984" xlink:href="#d"/>
<use x="105.607422" xlink:href="#g"/>
<use x="144.970703" xlink:href="#k"/>
<use x="242.382812" xlink:href="#h"/>
<use x="270.166016" xlink:href="#e"/>
<use x="333.544922" xlink:href="#f"/>
<use x="394.824219" xlink:href="#j"/>
</g>
</g>
<path d="m110.78 441.28v13.246q0 2.4 2.4 2.4h8q2.4 0 2.4-2.4v-13.246q0-2.4-2.4-2.4h-8q-2.4 0-2.4 2.4z" clip-path="url(#a)" fill="#fff" stroke="#fff"/>
<g clip-path="url(#a)">
<g transform="translate(115.06 441.28) rotate(90) scale(.08 -.08)">
<defs>
<path id="aj" d="m21 76.422v-100h-8.2969v100z"/>
<path id="v" d="m53.516 70.516v-9.625q-5.6094 2.6875-10.594 4-4.9844 1.3281-9.625 1.3281-8.0469 0-12.422-3.125t-4.375-8.8906q0-4.8438 2.9062-7.3125 2.9062-2.4531 11.016-3.9688l5.9531-1.2188q11.031-2.1094 16.281-7.4062t5.25-14.172q0-10.609-7.1094-16.078-7.0938-5.4688-20.812-5.4688-5.1719 0-11.016 1.1719-5.8281 1.1719-12.078 3.4688v10.156q6-3.3594 11.766-5.0781 5.7656-1.7031 11.328-1.7031 8.4375 0 13.031 3.3125 4.5938 3.3281 4.5938 9.4844 0 5.3594-3.2969 8.3906t-10.812 4.5469l-6.0156 1.1719q-11.031 2.1875-15.969 6.875-4.9219 4.6875-4.9219 13.047 0 9.6719 6.8125 15.234t18.766 5.5625q5.1406 0 10.453-0.9375 5.3281-0.92188 10.891-2.7656z"/>
</defs>
<use xlink:href="#o"/>
<use x="68.408203" xlink:href="#aj"/>
<use x="102.099609" xlink:href="#v"/>
</g>
</g>
<path d="m188.51 406.49 2.2828-5.0684q0.9856-2.1883-1.2027-3.1739l-7.0595-3.1796q-2.1883-0.9856-3.1739 1.2027l-2.2828 5.0684q-0.9856 2.1883 1.2027 3.1739l7.0595 3.1796q2.1883 0.9856 3.1739-1.2027z" clip-path="url(#a)" fill="#fff" stroke="#fff"/>
<g clip-path="url(#a)">
<g transform="translate(184.81 404.82) rotate(-65.753) scale(.08 -.08)">
<use xlink:href="#w"/>
</g>
</g>
<path d="m220.7 358.97 1.1213-4.9291q0.53237-2.3402-1.8078-2.8726l-7.5496-1.7174q-2.3402-0.53237-2.8726 1.8078l-1.1213 4.9291q-0.53237 2.3402 1.8078 2.8726l7.5496 1.7174q2.3402 0.53237 2.8726-1.8078z" clip-path="url(#a)" fill="#fff" stroke="#fff"/>
<g clip-path="url(#a)">
<g transform="translate(216.74 358.06) rotate(-77.184) scale(.08 -.08)">
<use xlink:href="#t"/>
</g>
</g>
<path d="m229.3 357.98 0.27738-5.0474q0.13169-2.3964-2.2647-2.5281l-7.7308-0.42485q-2.3964-0.13169-2.5281 2.2647l-0.27738 5.0474q-0.13169 2.3964 2.2647 2.5281l7.7308 0.42485q2.3964 0.13169 2.5281-2.2647z" clip-path="url(#a)" fill="#fff" stroke="#fff"/>
<g clip-path="url(#a)">
<g transform="translate(225.24 357.75) rotate(-86.854) scale(.08 -.08)">
<use xlink:href="#t"/>
</g>
</g>
<path d="m225.64 399.03 0.38206 5.5732q0.16414 2.3944 2.5585 2.2302l7.7244-0.52953q2.3944-0.16414 2.2302-2.5585l-0.38206-5.5732q-0.16414-2.3944-2.5585-2.2302l-7.7244 0.52953q-2.3944 0.16414-2.2302 2.5585z" clip-path="url(#a)" fill="#fff" stroke="#fff"/>
<g clip-path="url(#a)">
<g transform="translate(229.7 398.75) rotate(86.078) scale(.08 -.08)">
<use xlink:href="#u"/>
</g>
</g>
<path d="m268.14 357.89 3.6508 3.4964q1.7333 1.66 3.3933-0.073274l5.3553-5.5917q1.66-1.7333-0.073275-3.3933l-3.6508-3.4964q-1.7333-1.66-3.3933 0.073274l-5.3553 5.5917q-1.66 1.7333 0.073274 3.3933z" clip-path="url(#a)" fill="#fff" stroke="#fff"/>
<g clip-path="url(#a)">
<g transform="translate(270.95 354.96) rotate(43.763) scale(.08 -.08)">
<use xlink:href="#t"/>
</g>
</g>
<path d="m135.87 522.91v33.808q0 2.4 2.4 2.4h7.7425q2.4 0 2.4-2.4v-33.808q0-2.4-2.4-2.4h-7.7425q-2.4 0-2.4 2.4z" clip-path="url(#a)" fill="#fff" stroke="#fff"/>
<g clip-path="url(#a)">
<g transform="translate(139.94 522.91) rotate(90) scale(.08 -.08)">
<use xlink:href="#l"/>
<use x="44.083984" xlink:href="#d"/>
<use x="105.607422" xlink:href="#g"/>
<use x="144.970703" xlink:href="#k"/>
<use x="242.382812" xlink:href="#h"/>
<use x="270.166016" xlink:href="#e"/>
<use x="333.544922" xlink:href="#f"/>
<use x="394.824219" xlink:href="#j"/>
</g>
</g>
<path d="m214.68 447.49 1.8816 5.1389q0.82518 2.2537 3.0789 1.4285l7.2705-2.6621q2.2537-0.82518 1.4285-3.0789l-1.8816-5.1389q-0.82518-2.2537-3.0789-1.4285l-7.2705 2.6621q-2.2537 0.82518-1.4285 3.0789z" clip-path="url(#a)" fill="#fff" stroke="#fff"/>
<g clip-path="url(#a)">
<g transform="translate(218.5 446.09) rotate(69.89) scale(.08 -.08)">
<use xlink:href="#o"/>
</g>
</g>
<path d="m191.36 456.32 4.5544-12.439q0.82518-2.2537-1.4285-3.0789l-7.5123-2.7506q-2.2537-0.82518-3.0789 1.4285l-4.5544 12.439q-0.82518 2.2537 1.4285 3.0789l7.5123 2.7506q2.2537 0.82518 3.0789-1.4285z" clip-path="url(#a)" fill="#fff" stroke="#fff"/>
<g clip-path="url(#a)">
<g transform="translate(187.33 454.85) rotate(-69.89) scale(.08 -.08)">
<use xlink:href="#o"/>
<use x="68.408203" xlink:href="#aj"/>
<use x="102.099609" xlink:href="#v"/>
</g>
</g>
<path d="m222.86 446.4 1.0355 5.3736q0.45414 2.3566 2.8108 1.9025l7.6026-1.4651q2.3566-0.45414 1.9025-2.8108l-1.0355-5.3736q-0.45414-2.3566-2.8108-1.9025l-7.6026 1.4651q-2.3566 0.45414-1.9025 2.8108z" clip-path="url(#a)" fill="#fff" stroke="#fff"/>
<g clip-path="url(#a)">
<g transform="translate(226.85 445.63) rotate(79.092) scale(.08 -.08)">
<use xlink:href="#o"/>
</g>
</g>
<path d="m217.38 451.58 0.96103-4.987q0.45414-2.3566-1.9025-2.8108l-7.6026-1.4651q-2.3566-0.45414-2.8108 1.9025l-0.96104 4.987q-0.45414 2.3566 1.9025 2.8108l7.6026 1.4651q2.3566 0.45414 2.8108-1.9025z" clip-path="url(#a)" fill="#fff" stroke="#fff"/>
<g clip-path="url(#a)">
<g transform="translate(213.39 450.81) rotate(-79.092) scale(.08 -.08)">
<use xlink:href="#v"/>
</g>
</g>
<path d="m232.18 522.91v33.808q0 2.4 2.4 2.4h7.7425q2.4 0 2.4-2.4v-33.808q0-2.4-2.4-2.4h-7.7425q-2.4 0-2.4 2.4z" clip-path="url(#a)" fill="#fff" stroke="#fff"/>
<g clip-path="url(#a)">
<g transform="translate(236.25 522.91) rotate(90) scale(.08 -.08)">
<use xlink:href="#l"/>
<use x="44.083984" xlink:href="#d"/>
<use x="105.607422" xlink:href="#g"/>
<use x="144.970703" xlink:href="#k"/>
<use x="242.382812" xlink:href="#h"/>
<use x="270.166016" xlink:href="#e"/>
<use x="333.544922" xlink:href="#f"/>
<use x="394.824219" xlink:href="#j"/>
</g>
</g>
<path d="m304.7 453.15 2.4387-4.9953q1.0529-2.1567-1.1038-3.2096l-6.9576-3.3967q-2.1567-1.0529-3.2096 1.1038l-2.4387 4.9953q-1.0529 2.1567 1.1038 3.2096l6.9576 3.3967q2.1567 1.0529 3.2096-1.1038z" clip-path="url(#a)" fill="#fff" stroke="#fff"/>
<g clip-path="url(#a)">
<g transform="translate(301.04 451.37) rotate(-63.979) scale(.08 -.08)">
<use xlink:href="#w"/>
</g>
</g>
<path d="m338.6 448.14 2.4507 5.02q1.0529 2.1567 3.2096 1.1038l6.9576-3.3967q2.1567-1.0529 1.1038-3.2096l-2.4507-5.02q-1.0529-2.1567-3.2096-1.1038l-6.9576 3.3967q-2.1567 1.0529-1.1038 3.2096z" clip-path="url(#a)" fill="#fff" stroke="#fff"/>
<g clip-path="url(#a)">
<g transform="translate(342.25 446.36) rotate(63.979) scale(.08 -.08)">
<use xlink:href="#u"/>
</g>
</g>
<path d="m271.42 522.91v33.808q0 2.4 2.4 2.4h7.7425q2.4 0 2.4-2.4v-33.808q0-2.4-2.4-2.4h-7.7425q-2.4 0-2.4 2.4z" clip-path="url(#a)" fill="#fff" stroke="#fff"/>
<g clip-path="url(#a)">
<g transform="translate(275.48 522.91) rotate(90) scale(.08 -.08)">
<use xlink:href="#l"/>
<use x="44.083984" xlink:href="#d"/>
<use x="105.607422" xlink:href="#g"/>
<use x="144.970703" xlink:href="#k"/>
<use x="242.382812" xlink:href="#h"/>
<use x="270.166016" xlink:href="#e"/>
<use x="333.544922" xlink:href="#f"/>
<use x="394.824219" xlink:href="#j"/>
</g>
</g>
<path d="m342.02 557.7 15.622-29.982q1.109-2.1284-1.0194-3.2374l-6.8664-3.5776q-2.1284-1.109-3.2374 1.0194l-15.622 29.982q-1.109 2.1284 1.0194 3.2374l6.8664 3.5776q2.1284 1.109 3.2374-1.0194z" clip-path="url(#a)" fill="#fff" stroke="#fff"/>
<g clip-path="url(#a)">
<g transform="translate(338.42 555.83) rotate(-62.479) scale(.08 -.08)">
<use xlink:href="#l"/>
<use x="44.083984" xlink:href="#d"/>
<use x="105.607422" xlink:href="#g"/>
<use x="144.970703" xlink:href="#k"/>
<use x="242.382812" xlink:href="#h"/>
<use x="270.166016" xlink:href="#e"/>
<use x="333.544922" xlink:href="#f"/>
<use x="394.824219" xlink:href="#j"/>
</g>
</g>
<path d="m373.51 556.8 0.44034-33.805q0.03126-2.3998-2.3685-2.4311l-7.7418-0.10084q-2.3998-0.03126-2.4311 2.3685l-0.44034 33.805q-0.031259 2.3998 2.3685 2.4311l7.7418 0.10084q2.3998 0.03126 2.4311-2.3685z" clip-path="url(#a)" fill="#fff" stroke="#fff"/>
<g clip-path="url(#a)">
<g transform="translate(369.45 556.75) rotate(-89.254) scale(.08 -.08)">
<use xlink:href="#l"/>
<use x="44.083984" xlink:href="#d"/>
<use x="105.607422" xlink:href="#g"/>
<use x="144.970703" xlink:href="#k"/>
<use x="242.382812" xlink:href="#h"/>
<use x="270.166016" xlink:href="#e"/>
<use x="333.544922" xlink:href="#f"/>
<use x="394.824219" xlink:href="#j"/>
</g>
</g>
<path d="m378.93 527.86 15.926 29.821q1.1306 2.117 3.2476 0.98639l6.8295-3.6474q2.117-1.1306 0.98639-3.2476l-15.926-29.821q-1.1306-2.117-3.2476-0.98639l-6.8295 3.6474q-2.117 1.1306-0.98639 3.2476z" clip-path="url(#a)" fill="#fff" stroke="#fff"/>
<g clip-path="url(#a)">
<g transform="translate(382.52 525.94) rotate(61.895) scale(.08 -.08)">
<use xlink:href="#l"/>
<use x="44.083984" xlink:href="#d"/>
<use x="105.607422" xlink:href="#g"/>
<use x="144.970703" xlink:href="#k"/>
<use x="242.382812" xlink:href="#h"/>
<use x="270.166016" xlink:href="#e"/>
<use x="333.544922" xlink:href="#f"/>
<use x="394.824219" xlink:href="#j"/>
</g>
</g>
<path d="m196.51 522.91v33.808q0 2.4 2.4 2.4h7.7425q2.4 0 2.4-2.4v-33.808q0-2.4-2.4-2.4h-7.7425q-2.4 0-2.4 2.4z" clip-path="url(#a)" fill="#fff" stroke="#fff"/>
<g clip-path="url(#a)">
<g transform="translate(200.58 522.91) rotate(90) scale(.08 -.08)">
<use xlink:href="#l"/>
<use x="44.083984" xlink:href="#d"/>
<use x="105.607422" xlink:href="#g"/>
<use x="144.970703" xlink:href="#k"/>
<use x="242.382812" xlink:href="#h"/>
<use x="270.166016" xlink:href="#e"/>
<use x="333.544922" xlink:href="#f"/>
<use x="394.824219" xlink:href="#j"/>
</g>
</g>
<path d="m164.41 522.91v33.808q0 2.4 2.4 2.4h7.7425q2.4 0 2.4-2.4v-33.808q0-2.4-2.4-2.4h-7.7425q-2.4 0-2.4 2.4z" clip-path="url(#a)" fill="#fff" stroke="#fff"/>
<g clip-path="url(#a)">
<g transform="translate(168.47 522.91) rotate(90) scale(.08 -.08)">
<use xlink:href="#l"/>
<use x="44.083984" xlink:href="#d"/>
<use x="105.607422" xlink:href="#g"/>
<use x="144.970703" xlink:href="#k"/>
<use x="242.382812" xlink:href="#h"/>
<use x="270.166016" xlink:href="#e"/>
<use x="333.544922" xlink:href="#f"/>
<use x="394.824219" xlink:href="#j"/>
</g>
</g>
<path d="m110.9 522.91v33.808q0 2.4 2.4 2.4h7.7425q2.4 0 2.4-2.4v-33.808q0-2.4-2.4-2.4h-7.7425q-2.4 0-2.4 2.4z" clip-path="url(#a)" fill="#fff" stroke="#fff"/>
<g clip-path="url(#a)">
<g transform="translate(114.97 522.91) rotate(90) scale(.08 -.08)">
<use xlink:href="#l"/>
<use x="44.083984" xlink:href="#d"/>
<use x="105.607422" xlink:href="#g"/>
<use x="144.970703" xlink:href="#k"/>
<use x="242.382812" xlink:href="#h"/>
<use x="270.166016" xlink:href="#e"/>
<use x="333.544922" xlink:href="#f"/>
<use x="394.824219" xlink:href="#j"/>
</g>
</g>
<path d="m464.04 522.91v33.808q0 2.4 2.4 2.4h7.7425q2.4 0 2.4-2.4v-33.808q0-2.4-2.4-2.4h-7.7425q-2.4 0-2.4 2.4z" clip-path="url(#a)" fill="#fff" stroke="#fff"/>
<g clip-path="url(#a)">
<g transform="translate(468.1 522.91) rotate(90) scale(.08 -.08)">
<use xlink:href="#l"/>
<use x="44.083984" xlink:href="#d"/>
<use x="105.607422" xlink:href="#g"/>
<use x="144.970703" xlink:href="#k"/>
<use x="242.382812" xlink:href="#h"/>
<use x="270.166016" xlink:href="#e"/>
<use x="333.544922" xlink:href="#f"/>
<use x="394.824219" xlink:href="#j"/>
</g>
</g>
<path d="m1106.1 522.91v33.808q0 2.4 2.4 2.4h7.7425q2.4 0 2.4-2.4v-33.808q0-2.4-2.4-2.4h-7.7425q-2.4 0-2.4 2.4z" clip-path="url(#a)" fill="#fff" stroke="#fff"/>
<g clip-path="url(#a)">
<g transform="translate(1110.2 522.91) rotate(90) scale(.08 -.08)">
<use xlink:href="#l"/>
<use x="44.083984" xlink:href="#d"/>
<use x="105.607422" xlink:href="#g"/>
<use x="144.970703" xlink:href="#k"/>
<use x="242.382812" xlink:href="#h"/>
<use x="270.166016" xlink:href="#e"/>
<use x="333.544922" xlink:href="#f"/>
<use x="394.824219" xlink:href="#j"/>
</g>
</g>
<defs>
<path id="b" d="m0 8.6603c2.2967 0 4.4997-0.9125 6.1237-2.5365 1.624-1.624 2.5365-3.827 2.5365-6.1237s-0.9125-4.4997-2.5365-6.1237c-1.624-1.624-3.827-2.5365-6.1237-2.5365s-4.4997 0.9125-6.1237 2.5365c-1.624 1.624-2.5365 3.827-2.5365 6.1237s0.9125 4.4997 2.5365 6.1237c1.624 1.624 3.827 2.5365 6.1237 2.5365z"/>
</defs>
<g clip-path="url(#a)" fill="#ffffff" stroke="#ffffff">
<use x="52.969697" y="585.454545" xlink:href="#b"/>
<use x="63.670646" y="585.454545" xlink:href="#b"/>
<use x="77.938578" y="585.454545" xlink:href="#b"/>
<use x="95.773493" y="585.454545" xlink:href="#b"/>
<use x="117.17539" y="585.454545" xlink:href="#b"/>
<use x="142.144271" y="585.454545" xlink:href="#b"/>
<use x="170.680135" y="585.454545" xlink:href="#b"/>
<use x="202.782981" y="585.454545" xlink:href="#b"/>
<use x="238.452811" y="585.454545" xlink:href="#b"/>
<use x="277.689624" y="585.454545" xlink:href="#b"/>
<use x="320.493419" y="585.454545" xlink:href="#b"/>
<use x="366.864198" y="585.454545" xlink:href="#b"/>
<use x="416.801959" y="585.454545" xlink:href="#b"/>
<use x="470.306703" y="585.454545" xlink:href="#b"/>
<use x="527.378431" y="585.454545" xlink:href="#b"/>
<use x="588.017141" y="585.454545" xlink:href="#b"/>
<use x="652.222834" y="585.454545" xlink:href="#b"/>
<use x="719.995511" y="585.454545" xlink:href="#b"/>
<use x="791.33517" y="585.454545" xlink:href="#b"/>
<use x="866.241812" y="585.454545" xlink:href="#b"/>
<use x="944.715437" y="585.454545" xlink:href="#b"/>
<use x="1026.756045" y="585.454545" xlink:href="#b"/>
<use x="1112.363636" y="585.454545" xlink:href="#b"/>
<use x="393.131064" y="27.878788" xlink:href="#b"/>
<use x="52.969697" y="494.175494" xlink:href="#b"/>
<use x="303.679058" y="121.65446" xlink:href="#b"/>
<use x="822.744437" y="401.62665" xlink:href="#b"/>
<use x="527.378431" y="494.175494" xlink:href="#b"/>
<use x="653.411829" y="494.175494" xlink:href="#b"/>
<use x="791.33517" y="494.175494" xlink:href="#b"/>
<use x="866.241812" y="494.175494" xlink:href="#b"/>
<use x="985.735741" y="494.175494" xlink:href="#b"/>
<use x="70.804612" y="494.175494" xlink:href="#b"/>
<use x="146.226485" y="215.241506" xlink:href="#b"/>
<use x="95.773493" y="494.175494" xlink:href="#b"/>
<use x="117.17539" y="401.62665" xlink:href="#b"/>
<use x="225.730572" y="308.592395" xlink:href="#b"/>
<use x="142.144271" y="494.175494" xlink:href="#b"/>
<use x="204.566473" y="401.62665" xlink:href="#b"/>
<use x="220.617896" y="401.62665" xlink:href="#b"/>
<use x="238.452811" y="494.175494" xlink:href="#b"/>
<use x="322.871408" y="401.62665" xlink:href="#b"/>
<use x="277.689624" y="494.175494" xlink:href="#b"/>
<use x="368.053192" y="494.175494" xlink:href="#b"/>
<use x="202.782981" y="494.175494" xlink:href="#b"/>
<use x="170.680135" y="494.175494" xlink:href="#b"/>
<use x="117.17539" y="494.175494" xlink:href="#b"/>
<use x="470.306703" y="494.175494" xlink:href="#b"/>
<use x="1112.363636" y="494.175494" xlink:href="#b"/>
</g>
<g clip-path="url(#a)">
<g transform="translate(49.549 588.21) scale(.1 -.1)">
<defs>
<path id="at" d="m34.188 63.188-13.391-36.281h26.812zm-5.5781 9.7188h11.188l27.781-72.906h-10.25l-6.6406 18.703h-32.859l-6.6406-18.703h-10.406zm2.7344 19.609 9.5625-12.891h-7.4688l-11.219 12.891z"/>
</defs>
<use xlink:href="#at"/>
</g>
</g>
<g clip-path="url(#a)">
<g transform="translate(57.989 588.21) scale(.1 -.1)">
<defs>
<path id="p" d="m44.281 53.078v-8.5q-3.7969 1.9531-7.9062 2.9219-4.0938 0.98438-8.5 0.98438-6.6875 0-10.031-2.0469t-3.3438-6.1562q0-3.125 2.3906-4.9062t9.625-3.3906l3.0781-0.6875q9.5625-2.0469 13.594-5.7812t4.0312-10.422q0-7.625-6.0312-12.078-6.0312-4.4375-16.578-4.4375-4.3906 0-9.1562 0.85938t-10.031 2.5625v9.2812q4.9844-2.5938 9.8125-3.8906 4.8281-1.2812 9.5781-1.2812 6.3438 0 9.75 2.1719 3.4219 2.1719 3.4219 6.125 0 3.6562-2.4688 5.6094-2.4531 1.9531-10.812 3.7656l-3.125 0.73438q-8.3438 1.75-12.062 5.3906-3.7031 3.6406-3.7031 9.9844 0 7.7188 5.4688 11.906 5.4688 4.2031 15.531 4.2031 4.9688 0 9.3594-0.73438 4.4062-0.71875 8.1094-2.1875z"/>
</defs>
<use xlink:href="#p"/>
<use x="52.099609" xlink:href="#d"/>
</g>
</g>
<g clip-path="url(#a)">
<g transform="translate(62.124 588.21) scale(.1 -.1)">
<defs>
<path id="ax" d="m37.109 75.984v-7.4844h-8.5938q-4.8281 0-6.7188-1.9531-1.875-1.9531-1.875-7.0312v-4.8281h14.797v-6.9844h-14.797v-47.703h-9.0312v47.703h-8.5938v6.9844h8.5938v3.8125q0 9.125 4.25 13.297 4.25 4.1875 13.469 4.1875z"/>
<path id="q" d="m30.609 48.391q-7.2188 0-11.422-5.6406t-4.2031-15.453 4.1719-15.453q4.1875-5.6406 11.453-5.6406 7.1875 0 11.375 5.6562 4.2031 5.6719 4.2031 15.438 0 9.7188-4.2031 15.406-4.1875 5.6875-11.375 5.6875zm0 7.6094q11.719 0 18.406-7.625 6.7031-7.6094 6.7031-21.078 0-13.422-6.7031-21.078-6.6875-7.6406-18.406-7.6406-11.766 0-18.438 7.6406-6.6562 7.6562-6.6562 21.078 0 13.469 6.6562 21.078 6.6719 7.625 18.438 7.625z"/>
<path id="n" d="m18.312 70.219v-15.531h18.5v-6.9844h-18.5v-29.688q0-6.6875 1.8281-8.5938t7.4531-1.9062h9.2188v-7.5156h-9.2188q-10.406 0-14.359 3.875-3.9531 3.8906-3.9531 14.141v29.688h-6.5938v6.9844h6.5938v15.531z"/>
</defs>
<use xlink:href="#ax"/>
<use x="35.205078" xlink:href="#g"/>
<use x="74.068359" xlink:href="#q"/>
<use x="135.25" xlink:href="#n"/>
<use x="174.458984" xlink:href="#n"/>
<use x="213.667969" xlink:href="#d"/>
<use x="275.191406" xlink:href="#g"/>
</g>
</g>
<g clip-path="url(#a)">
<g transform="translate(86.581 588.21) scale(.1 -.1)">
<defs>
<path id="r" d="m8.5 21.578v33.109h8.9844v-32.766q0-7.7656 3.0156-11.656 3.0312-3.875 9.0938-3.875 7.2656 0 11.484 4.6406 4.2344 4.6406 4.2344 12.656v31h8.9844v-54.688h-8.9844v8.4062q-3.2656-4.9844-7.5938-7.4062-4.3125-2.4219-10.031-2.4219-9.4219 0-14.312 5.8594-4.875 5.8594-4.875 17.141z"/>
<path id="au" d="m54.891 54.688-19.781-26.609 20.797-28.078h-10.594l-15.922 21.484-15.906-21.484h-10.609l21.25 28.609-19.438 26.078h10.594l14.5-19.484 14.5 19.484z"/>
</defs>
<use xlink:href="#f"/>
<use x="61.279297" xlink:href="#r"/>
<use x="124.658203" xlink:href="#au"/>
</g>
</g>
<g clip-path="url(#a)">
<g transform="translate(97.75 588.21) scale(.1 -.1)">
<defs>
<path id="ac" d="m2.9844 54.688h9.5156l17.094-45.891 17.094 45.891h9.5156l-20.516-54.688h-12.203z"/>
</defs>
<use xlink:href="#p"/>
<use x="52.099609" xlink:href="#f"/>
<use x="113.378906" xlink:href="#ac"/>
<use x="172.558594" xlink:href="#f"/>
<use x="233.837891" xlink:href="#e"/>
<use x="297.216797" xlink:href="#n"/>
<use x="336.425781" xlink:href="#p"/>
</g>
</g>
<g clip-path="url(#a)">
<g transform="translate(135.89 588.21) scale(.1 -.1)">
<defs>
<path id="s" d="m45.406 46.391v29.594h8.9844v-75.984h-8.9844v8.2031q-2.8281-4.875-7.1562-7.25-4.3125-2.375-10.375-2.375-9.9062 0-16.141 7.9062-6.2188 7.9219-6.2188 20.812t6.2188 20.797q6.2344 7.9062 16.141 7.9062 6.0625 0 10.375-2.375 4.3281-2.3594 7.1562-7.2344zm-30.609-19.094q0-9.9062 4.0781-15.547t11.203-5.6406 11.219 5.6406q4.1094 5.6406 4.1094 15.547t-4.1094 15.547q-4.0938 5.6406-11.219 5.6406t-11.203-5.6406-4.0781-15.547z"/>
</defs>
<use xlink:href="#s"/>
<use x="63.476562" xlink:href="#d"/>
</g>
</g>
<g clip-path="url(#a)">
<g transform="translate(157.47 588.21) scale(.1 -.1)">
<use xlink:href="#e"/>
<use x="63.378906" xlink:href="#q"/>
<use x="124.560547" xlink:href="#n"/>
<use x="163.769531" xlink:href="#g"/>
<use x="202.632812" xlink:href="#d"/>
</g>
</g>
<g clip-path="url(#a)">
<g transform="translate(191.22 588.21) scale(.1 -.1)">
<defs>
<path id="av" d="m18.109 8.2031v-29h-9.0312v75.484h9.0312v-8.2969q2.8438 4.875 7.1562 7.2344 4.3281 2.375 10.328 2.375 9.9688 0 16.188-7.9062 6.2344-7.9062 6.2344-20.797t-6.2344-20.812q-6.2188-7.9062-16.188-7.9062-6 0-10.328 2.375-4.3125 2.375-7.1562 7.25zm30.578 19.094q0 9.9062-4.0781 15.547t-11.203 5.6406q-7.1406 0-11.219-5.6406t-4.0781-15.547 4.0781-15.547 11.219-5.6406q7.125 0 11.203 5.6406t4.0781 15.547z"/>
</defs>
<use xlink:href="#av"/>
<use x="63.476562" xlink:href="#d"/>
<use x="125" xlink:href="#n"/>
<use x="164.208984" xlink:href="#h"/>
<use x="191.992188" xlink:href="#n"/>
</g>
</g>
<g clip-path="url(#a)">
<g transform="translate(221.1 588.21) scale(.1 -.1)">
<use xlink:href="#k"/>
<use x="97.412109" xlink:href="#q"/>
<use x="158.59375" xlink:href="#e"/>
<use x="221.972656" xlink:href="#s"/>
<use x="285.449219" xlink:href="#d"/>
</g>
</g>
<g clip-path="url(#a)">
<g transform="translate(271.35 588.21) scale(.1 -.1)">
<use xlink:href="#s"/>
<use x="63.476562" xlink:href="#r"/>
</g>
</g>
<g clip-path="url(#a)">
<g transform="translate(306.25 588.21) scale(.1 -.1)">
<defs>
<path id="an" d="m9.8125 72.906h9.8594v-67.828q0-13.188-5-19.141t-16.094-5.9531h-3.75v8.2969h3.0781q6.5312 0 9.2188 3.6719 2.6875 3.6562 2.6875 13.125z"/>
</defs>
<use xlink:href="#an"/>
<use x="29.492188" xlink:href="#f"/>
<use x="90.771484" xlink:href="#g"/>
<use x="130.134766" xlink:href="#s"/>
<use x="193.611328" xlink:href="#h"/>
<use x="221.394531" xlink:href="#e"/>
</g>
</g>
<g clip-path="url(#a)">
<g transform="translate(358.01 588.21) scale(.1 -.1)">
<use xlink:href="#s"/>
<use x="63.476562" xlink:href="#d"/>
<use x="125" xlink:href="#p"/>
</g>
</g>
<g clip-path="url(#a)">
<g transform="translate(398.52 588.21) scale(.1 -.1)">
<use xlink:href="#x"/>
<use x="60.302734" xlink:href="#j"/>
<use x="88.085938" xlink:href="#f"/>
<use x="149.365234" xlink:href="#e"/>
<use x="212.744141" xlink:href="#n"/>
<use x="251.953125" xlink:href="#d"/>
<use x="313.476562" xlink:href="#p"/>
</g>
</g>
<g clip-path="url(#a)">
<g transform="translate(468.72 588.21) scale(.1 -.1)">
<defs>
<path id="aq" d="m11.719 12.406h10.297v-8.4062l-8-15.625h-6.2969l4 15.625z"/>
</defs>
<use xlink:href="#aq"/>
</g>
</g>
<g clip-path="url(#a)">
<g transform="translate(509.2 588.21) scale(.1 -.1)">
<use xlink:href="#u"/>
<use x="69.824219" xlink:href="#q"/>
<use x="131.005859" xlink:href="#e"/>
<use x="194.384766" xlink:href="#p"/>
<use x="246.484375" xlink:href="#d"/>
<use x="308.007812" xlink:href="#h"/>
<use x="335.791016" xlink:href="#j"/>
</g>
</g>
<g clip-path="url(#a)">
<g transform="translate(581.77 588.21) scale(.1 -.1)">
<use xlink:href="#d"/>
<use x="61.523438" xlink:href="#e"/>
</g>
</g>
<g clip-path="url(#a)">
<g transform="translate(640.77 588.21) scale(.1 -.1)">
<defs>
<path id="ar" d="m56.203 29.594v-4.3906h-41.312q0.59375-9.2812 5.5938-14.141t13.938-4.8594q5.1719 0 10.031 1.2656t9.6562 3.8125v-8.5q-4.8438-2.0469-9.9219-3.125t-10.297-1.0781q-13.094 0-20.734 7.6094-7.6406 7.625-7.6406 20.625 0 13.422 7.25 21.297 7.25 7.8906 19.562 7.8906 11.031 0 17.453-7.1094 6.4219-7.0938 6.4219-19.297zm-8.9844 2.6406q-0.09375 7.3594-4.125 11.75-4.0312 4.4062-10.672 4.4062-7.5156 0-12.031-4.25t-5.2031-11.969zm-8.6875 47.75h9.7188l-15.906-18.359h-7.4844z"/>
</defs>
<use xlink:href="#ar"/>
<use x="61.523438" xlink:href="#n"/>
<use x="100.732422" xlink:href="#f"/>
<use x="162.011719" xlink:href="#h"/>
<use x="189.794922" xlink:href="#n"/>
</g>
</g>
<g clip-path="url(#a)">
<g transform="translate(707.62 588.21) scale(.1 -.1)">
<use xlink:href="#ac"/>
<use x="59.179688" xlink:href="#d"/>
<use x="120.703125" xlink:href="#e"/>
<use x="184.082031" xlink:href="#r"/>
</g>
</g>
<g clip-path="url(#a)">
<g transform="translate(788.27 588.21) scale(.1 -.1)">
<defs>
<path id="as" d="m34.281 27.484q-10.891 0-15.094-2.4844t-4.2031-8.5q0-4.7812 3.1562-7.5938 3.1562-2.7969 8.5625-2.7969 7.4844 0 12 5.2969t4.5156 14.078v2zm17.922 3.7188v-31.203h-8.9844v8.2969q-3.0781-4.9688-7.6719-7.3438t-11.234-2.375q-8.3906 0-13.359 4.7188-4.9531 4.7188-4.9531 12.625 0 9.2188 6.1719 13.906 6.1875 4.6875 18.438 4.6875h12.609v0.89062q0 6.2031-4.0781 9.5938t-11.453 3.3906q-4.6875 0-9.1406-1.125-4.4375-1.125-8.5312-3.375v8.3125q4.9219 1.9062 9.5625 2.8438 4.6406 0.95312 9.0312 0.95312 11.875 0 17.734-6.1562 5.8594-6.1406 5.8594-18.641zm-30.281 48.781 13.766-18.266h-7.4688l-15.922 18.266z"/>
</defs>
<use xlink:href="#as"/>
</g>
</g>
<g clip-path="url(#a)">
<g transform="translate(851.11 588.21) scale(.1 -.1)">
<use xlink:href="#p"/>
<use x="52.099609" xlink:href="#f"/>
<use x="113.378906" xlink:href="#ac"/>
<use x="172.558594" xlink:href="#q"/>
<use x="233.740234" xlink:href="#h"/>
<use x="261.523438" xlink:href="#g"/>
</g>
</g>
<g clip-path="url(#a)">
<g transform="translate(924.49 588.21) scale(.1 -.1)">
<defs>
<path id="ak" d="m14.797 27.297q0-9.9062 4.0781-15.547t11.203-5.6406 11.219 5.6406q4.1094 5.6406 4.1094 15.547t-4.1094 15.547q-4.0938 5.6406-11.219 5.6406t-11.203-5.6406-4.0781-15.547zm30.609-19.094q-2.8281-4.875-7.1562-7.25-4.3125-2.375-10.375-2.375-9.9062 0-16.141 7.9062-6.2188 7.9219-6.2188 20.812t6.2188 20.797q6.2344 7.9062 16.141 7.9062 6.0625 0 10.375-2.375 4.3281-2.3594 7.1562-7.2344v8.2969h8.9844v-75.484h-8.9844z"/>
</defs>
<use xlink:href="#ak"/>
<use x="63.476562" xlink:href="#r"/>
<use x="126.855469" xlink:href="#d"/>
<use x="188.378906" xlink:href="#j"/>
<use x="216.162109" xlink:href="#ak"/>
<use x="279.638672" xlink:href="#r"/>
<use x="343.017578" xlink:href="#d"/>
</g>
</g>
<g clip-path="url(#a)">
<g transform="translate(1012.1 588.21) scale(.1 -.1)">
<defs>
<path id="al" d="m48.781 52.594v-8.4062q-3.8125 2.1094-7.6406 3.1562t-7.7344 1.0469q-8.75 0-13.594-5.5469-4.8281-5.5312-4.8281-15.547t4.8281-15.562q4.8438-5.5312 13.594-5.5312 3.9062 0 7.7344 1.0469t7.6406 3.1562v-8.3125q-3.7656-1.75-7.7969-2.625-4.0156-0.89062-8.5625-0.89062-12.359 0-19.641 7.7656-7.2656 7.7656-7.2656 20.953 0 13.375 7.3438 21.031 7.3594 7.6719 20.156 7.6719 4.1406 0 8.0938-0.85938 3.9531-0.84375 7.6719-2.5469z"/>
<path id="aw" d="m54.891 33.016v-33.016h-8.9844v32.719q0 7.7656-3.0312 11.609-3.0312 3.8594-9.0781 3.8594-7.2812 0-11.484-4.6406-4.2031-4.625-4.2031-12.641v-30.906h-9.0312v75.984h9.0312v-29.797q3.2344 4.9375 7.5938 7.375 4.375 2.4375 10.094 2.4375 9.4219 0 14.25-5.8281 4.8438-5.8281 4.8438-17.156z"/>
</defs>
<use xlink:href="#al"/>
<use x="54.980469" xlink:href="#aw"/>
<use x="118.359375" xlink:href="#q"/>
<use x="179.541016" xlink:href="#p"/>
<use x="231.640625" xlink:href="#d"/>
</g>
</g>
<g clip-path="url(#a)">
<g transform="translate(1110.8 588.21) scale(.1 -.1)">
<defs>
<path id="i" d="m10.688 12.406h10.312v-12.406h-10.312z"/>
</defs>
<use xlink:href="#i"/>
</g>
</g>
<g clip-path="url(#a)">
<g transform="translate(385.18 30.638) scale(.1 -.1)">
<defs>
<path id="c" d="m12.406 8.2969h16.109v55.625l-17.531-3.5156v8.9844l17.438 3.5156h9.8594v-64.609h16.109v-8.2969h-41.984z"/>
</defs>
<use xlink:href="#c"/>
<use x="63.623047" xlink:href="#i"/>
<use x="95.410156" xlink:href="#c"/>
</g>
</g>
<g clip-path="url(#a)">
<g transform="translate(45.018 496.93) scale(.1 -.1)">
<defs>
<path id="m" d="m19.188 8.2969h34.422v-8.2969h-46.281v8.2969q5.6094 5.8125 15.297 15.594 9.7031 9.7969 12.188 12.641 4.7344 5.3125 6.6094 9 1.8906 3.6875 1.8906 7.25 0 5.8125-4.0781 9.4688-4.0781 3.6719-10.625 3.6719-4.6406 0-9.7969-1.6094-5.1406-1.6094-11-4.8906v9.9688q5.9531 2.3906 11.125 3.6094 5.1875 1.2188 9.4844 1.2188 11.328 0 18.062-5.6719 6.7344-5.6562 6.7344-15.125 0-4.5-1.6875-8.5312-1.6719-4.0156-6.125-9.4844-1.2188-1.4219-7.7656-8.1875-6.5312-6.7656-18.453-18.922z"/>
</defs>
<use xlink:href="#c"/>
<use x="63.623047" xlink:href="#i"/>
<use x="95.410156" xlink:href="#m"/>
</g>
</g>
<g clip-path="url(#a)">
<g transform="translate(295.73 124.41) scale(.1 -.1)">
<defs>
<path id="ah" d="m40.578 39.312q7.0781-1.5156 11.047-6.3125 3.9844-4.7812 3.9844-11.812 0-10.781-7.4219-16.703-7.4219-5.9062-21.094-5.9062-4.5781 0-9.4375 0.90625t-10.031 2.7188v9.5156q4.0938-2.3906 8.9688-3.6094 4.8906-1.2188 10.219-1.2188 9.2656 0 14.125 3.6562t4.8594 10.641q0 6.4531-4.5156 10.078-4.5156 3.6406-12.562 3.6406h-8.5v8.1094h8.8906q7.2656 0 11.125 2.9062t3.8594 8.375q0 5.6094-3.9844 8.6094-3.9688 3.0156-11.391 3.0156-4.0625 0-8.7031-0.89062-4.6406-0.875-10.203-2.7188v8.7812q5.625 1.5625 10.531 2.3438t9.25 0.78125q11.234 0 17.766-5.1094 6.5469-5.0938 6.5469-13.781 0-6.0625-3.4688-10.234t-9.8594-5.7812z"/>
</defs>
<use xlink:href="#c"/>
<use x="63.623047" xlink:href="#i"/>
<use x="95.410156" xlink:href="#ah"/>
</g>
</g>
<g clip-path="url(#a)">
<g transform="translate(814.79 404.39) scale(.1 -.1)">
<defs>
<path id="ab" d="m37.797 64.312-24.906-38.922h24.906zm-2.5938 8.5938h12.406v-47.516h10.406v-8.2031h-10.406v-17.188h-9.8125v17.188h-32.906v9.5156z"/>
</defs>
<use xlink:href="#c"/>
<use x="63.623047" xlink:href="#i"/>
<use x="95.410156" xlink:href="#ab"/>
</g>
</g>
<g clip-path="url(#a)">
<g transform="translate(519.43 496.93) scale(.1 -.1)">
<defs>
<path id="aa" d="m33.016 40.375q-6.6406 0-10.531-4.5469-3.875-4.5312-3.875-12.438 0-7.8594 3.875-12.438 3.8906-4.5625 10.531-4.5625t10.516 4.5625q3.875 4.5781 3.875 12.438 0 7.9062-3.875 12.438-3.875 4.5469-10.516 4.5469zm19.578 30.922v-8.9844q-3.7188 1.75-7.5 2.6719-3.7812 0.9375-7.5 0.9375-9.7656 0-14.922-6.5938-5.1406-6.5938-5.875-19.922 2.875 4.25 7.2188 6.5156 4.3594 2.2656 9.5781 2.2656 10.984 0 17.359-6.6719 6.375-6.6562 6.375-18.125 0-11.234-6.6406-18.031-6.6406-6.7812-17.672-6.7812-12.656 0-19.344 9.6875-6.6875 9.7031-6.6875 28.109 0 17.281 8.2031 27.562t22.016 10.281q3.7188 0 7.5-0.73438t7.8906-2.1875z"/>
</defs>
<use xlink:href="#c"/>
<use x="63.623047" xlink:href="#i"/>
<use x="95.410156" xlink:href="#aa"/>
</g>
</g>
<g clip-path="url(#a)">
<g transform="translate(645.46 496.93) scale(.1 -.1)">
<defs>
<path id="z" d="m8.2031 72.906h46.875v-4.2031l-26.469-68.703h-10.297l24.906 64.594h-35.016z"/>
</defs>
<use xlink:href="#c"/>
<use x="63.623047" xlink:href="#i"/>
<use x="95.410156" xlink:href="#z"/>
</g>
</g>
<g clip-path="url(#a)">
<g transform="translate(783.38 496.93) scale(.1 -.1)">
<defs>
<path id="y" d="m31.781 34.625q-7.0312 0-11.062-3.7656-4.0156-3.7656-4.0156-10.344 0-6.5938 4.0156-10.359 4.0312-3.7656 11.062-3.7656t11.078 3.7812q4.0625 3.7969 4.0625 10.344 0 6.5781-4.0312 10.344-4.0156 3.7656-11.109 3.7656zm-9.8594 4.1875q-6.3438 1.5625-9.8906 5.9062-3.5312 4.3594-3.5312 10.609 0 8.7344 6.2188 13.812 6.2344 5.0781 17.062 5.0781 10.891 0 17.094-5.0781t6.2031-13.812q0-6.25-3.5469-10.609-3.5312-4.3438-9.8281-5.9062 7.125-1.6562 11.094-6.5 3.9844-4.8281 3.9844-11.797 0-10.609-6.4688-16.281-6.4688-5.6562-18.531-5.6562-12.047 0-18.531 5.6562-6.4688 5.6719-6.4688 16.281 0 6.9688 4 11.797 4.0156 4.8438 11.141 6.5zm-3.6094 15.578q0-5.6562 3.5312-8.8281 3.5469-3.1719 9.9375-3.1719 6.3594 0 9.9375 3.1719 3.5938 3.1719 3.5938 8.8281 0 5.6719-3.5938 8.8438-3.5781 3.1719-9.9375 3.1719-6.3906 0-9.9375-3.1719-3.5312-3.1719-3.5312-8.8438z"/>
</defs>
<use xlink:href="#c"/>
<use x="63.623047" xlink:href="#i"/>
<use x="95.410156" xlink:href="#y"/>
</g>
</g>
<g clip-path="url(#a)">
<g transform="translate(858.29 496.93) scale(.1 -.1)">
<defs>
<path id="af" d="m10.984 1.5156v8.9844q3.7188-1.7656 7.5156-2.6875 3.8125-0.92188 7.4844-0.92188 9.7656 0 14.906 6.5625 5.1562 6.5625 5.8906 19.953-2.8281-4.2031-7.1875-6.4531-4.3438-2.25-9.6094-2.25-10.938 0-17.312 6.6094-6.375 6.625-6.375 18.109 0 11.219 6.6406 18 6.6406 6.7969 17.672 6.7969 12.656 0 19.312-9.7031 6.6719-9.6875 6.6719-28.141 0-17.234-8.1875-27.516-8.1719-10.281-21.984-10.281-3.7188 0-7.5312 0.73438-3.7969 0.73438-7.9062 2.2031zm19.625 30.906q6.6406 0 10.516 4.5312 3.8906 4.5469 3.8906 12.469 0 7.8594-3.8906 12.422-3.875 4.5625-10.516 4.5625t-10.516-4.5625-3.875-12.422q0-7.9219 3.875-12.469 3.875-4.5312 10.516-4.5312z"/>
</defs>
<use xlink:href="#c"/>
<use x="63.623047" xlink:href="#i"/>
<use x="95.410156" xlink:href="#af"/>
</g>
</g>
<g clip-path="url(#a)">
<g transform="translate(974.6 496.93) scale(.1 -.1)">
<defs>
<path id="ai" d="m31.781 66.406q-7.6094 0-11.453-7.5-3.8281-7.4844-3.8281-22.531 0-14.984 3.8281-22.484 3.8438-7.5 11.453-7.5 7.6719 0 11.5 7.5 3.8438 7.5 3.8438 22.484 0 15.047-3.8438 22.531-3.8281 7.5-11.5 7.5zm0 7.8125q12.266 0 18.734-9.7031 6.4688-9.6875 6.4688-28.141 0-18.406-6.4688-28.109-6.4688-9.6875-18.734-9.6875-12.25 0-18.719 9.6875-6.4688 9.7031-6.4688 28.109 0 18.453 6.4688 28.141 6.4688 9.7031 18.719 9.7031z"/>
</defs>
<use xlink:href="#c"/>
<use x="63.623047" xlink:href="#i"/>
<use x="95.410156" xlink:href="#c"/>
<use x="159.033203" xlink:href="#ai"/>
</g>
</g>
<g clip-path="url(#a)">
<g transform="translate(59.672 496.93) scale(.1 -.1)">
<use xlink:href="#c"/>
<use x="63.623047" xlink:href="#i"/>
<use x="95.410156" xlink:href="#c"/>
<use x="159.033203" xlink:href="#c"/>
</g>
</g>
<g clip-path="url(#a)">
<g transform="translate(135.09 218) scale(.1 -.1)">
<use xlink:href="#c"/>
<use x="63.623047" xlink:href="#i"/>
<use x="95.410156" xlink:href="#c"/>
<use x="159.033203" xlink:href="#m"/>
</g>
</g>
<g clip-path="url(#a)">
<g transform="translate(84.641 496.93) scale(.1 -.1)">
<use xlink:href="#c"/>
<use x="63.623047" xlink:href="#i"/>
<use x="95.410156" xlink:href="#c"/>
<use x="159.033203" xlink:href="#ab"/>
</g>
</g>
<g clip-path="url(#a)">
<g transform="translate(106.04 404.39) scale(.1 -.1)">
<defs>
<path id="ag" d="m10.797 72.906h38.719v-8.3125h-29.688v-17.859q2.1406 0.73438 4.2812 1.0938 2.1562 0.35938 4.3125 0.35938 12.203 0 19.328-6.6875 7.1406-6.6875 7.1406-18.109 0-11.766-7.3281-18.297-7.3281-6.5156-20.656-6.5156-4.5938 0-9.3594 0.78125-4.75 0.78125-9.8281 2.3438v9.9219q4.3906-2.3906 9.0781-3.5625t9.9062-1.1719q8.4531 0 13.375 4.4375 4.9375 4.4375 4.9375 12.062 0 7.6094-4.9375 12.047-4.9219 4.4531-13.375 4.4531-3.9531 0-7.8906-0.875-3.9219-0.875-8.0156-2.7344z"/>
</defs>
<use xlink:href="#c"/>
<use x="63.623047" xlink:href="#i"/>
<use x="95.410156" xlink:href="#c"/>
<use x="159.033203" xlink:href="#ag"/>
</g>
</g>
<g clip-path="url(#a)">
<g transform="translate(214.6 311.35) scale(.1 -.1)">
<use xlink:href="#c"/>
<use x="63.623047" xlink:href="#i"/>
<use x="95.410156" xlink:href="#c"/>
<use x="159.033203" xlink:href="#aa"/>
</g>
</g>
<g clip-path="url(#a)">
<g transform="translate(131.01 496.93) scale(.1 -.1)">
<use xlink:href="#c"/>
<use x="63.623047" xlink:href="#i"/>
<use x="95.410156" xlink:href="#c"/>
<use x="159.033203" xlink:href="#z"/>
</g>
</g>
<g clip-path="url(#a)">
<g transform="translate(193.43 404.39) scale(.1 -.1)">
<use xlink:href="#c"/>
<use x="63.623047" xlink:href="#i"/>
<use x="95.410156" xlink:href="#c"/>
<use x="159.033203" xlink:href="#y"/>
</g>
</g>
<g clip-path="url(#a)">
<g transform="translate(209.49 404.39) scale(.1 -.1)">
<use xlink:href="#c"/>
<use x="63.623047" xlink:href="#i"/>
<use x="95.410156" xlink:href="#c"/>
<use x="159.033203" xlink:href="#af"/>
</g>
</g>
<g clip-path="url(#a)">
<g transform="translate(227.32 496.93) scale(.1 -.1)">
<use xlink:href="#c"/>
<use x="63.623047" xlink:href="#i"/>
<use x="95.410156" xlink:href="#m"/>
<use x="159.033203" xlink:href="#ai"/>
</g>
</g>
<g clip-path="url(#a)">
<g transform="translate(311.74 404.39) scale(.1 -.1)">
<use xlink:href="#c"/>
<use x="63.623047" xlink:href="#i"/>
<use x="95.410156" xlink:href="#m"/>
<use x="159.033203" xlink:href="#c"/>
</g>
</g>
<g clip-path="url(#a)">
<g transform="translate(266.56 496.93) scale(.1 -.1)">
<use xlink:href="#c"/>
<use x="63.623047" xlink:href="#i"/>
<use x="95.410156" xlink:href="#m"/>
<use x="159.033203" xlink:href="#m"/>
</g>
</g>
<g clip-path="url(#a)">
<g transform="translate(356.92 496.93) scale(.1 -.1)">
<use xlink:href="#c"/>
<use x="63.623047" xlink:href="#i"/>
<use x="95.410156" xlink:href="#m"/>
<use x="159.033203" xlink:href="#ah"/>
</g>
</g>
<g clip-path="url(#a)">
<g transform="translate(191.65 496.93) scale(.1 -.1)">
<use xlink:href="#c"/>
<use x="63.623047" xlink:href="#i"/>
<use x="95.410156" xlink:href="#m"/>
<use x="159.033203" xlink:href="#ab"/>
</g>
</g>
<g clip-path="url(#a)">
<g transform="translate(159.55 496.93) scale(.1 -.1)">
<use xlink:href="#c"/>
<use x="63.623047" xlink:href="#i"/>
<use x="95.410156" xlink:href="#m"/>
<use x="159.033203" xlink:href="#ag"/>
</g>
</g>
<g clip-path="url(#a)">
<g transform="translate(106.04 496.93) scale(.1 -.1)">
<use xlink:href="#c"/>
<use x="63.623047" xlink:href="#i"/>
<use x="95.410156" xlink:href="#m"/>
<use x="159.033203" xlink:href="#aa"/>
</g>
</g>
<g clip-path="url(#a)">
<g transform="translate(459.17 496.93) scale(.1 -.1)">
<use xlink:href="#c"/>
<use x="63.623047" xlink:href="#i"/>
<use x="95.410156" xlink:href="#m"/>
<use x="159.033203" xlink:href="#z"/>
</g>
</g>
<g clip-path="url(#a)">
<g transform="translate(1101.2 496.93) scale(.1 -.1)">
<use xlink:href="#c"/>
<use x="63.623047" xlink:href="#i"/>
<use x="95.410156" xlink:href="#m"/>
<use x="159.033203" xlink:href="#y"/>
</g>
</g>
<defs>
<clipPath id="a">
<rect width="1165.3" height="613.33"/>
</clipPath>
</defs>
</svg>
