<?xml version="1.0" encoding="UTF-8"?>
<!DOCTYPE svg  PUBLIC '-//W3C//DTD SVG 1.1//EN'  'http://www.w3.org/Graphics/SVG/1.1/DTD/svg11.dtd'>
<svg width="1013.3pt" height="533.33pt" version="1.1" viewBox="0 0 1013.3 533.33" xmlns="http://www.w3.org/2000/svg" xmlns:xlink="http://www.w3.org/1999/xlink">
<metadata>
<rdf:RDF xmlns:cc="http://creativecommons.org/ns#" xmlns:dc="http://purl.org/dc/elements/1.1/" xmlns:rdf="http://www.w3.org/1999/02/22-rdf-syntax-ns#">
<cc:Work>
<dc:type rdf:resource="http://purl.org/dc/dcmitype/StillImage"/>
<dc:date>2021-04-21T07:11:44.692692</dc:date>
<dc:format>image/svg+xml</dc:format>
<dc:creator>
<cc:Agent>
<dc:title>Matplotlib v3.3.3, https://matplotlib.org/</dc:title>
</cc:Agent>
</dc:creator>
</cc:Work>
</rdf:RDF>
</metadata>
<defs>
<style type="text/css">*{stroke-linecap:butt;stroke-linejoin:round;}</style>
</defs>
<path d="m0 533.33h1013.3v-533.33h-1013.3z" fill="#fff"/>
<g fill="none" stroke="#000">
<path d="m213.66 24.242-95.503 195.42" clip-path="url(#a)"/>
<path d="m213.66 24.242 48.686 389.43" clip-path="url(#a)"/>
<path d="m213.66 24.242 205.78 97.834" clip-path="url(#a)"/>
<path d="m213.66 24.242-167.6 389.43" clip-path="url(#a)"/>
<path d="m213.66 24.242 8.6336 389.43" clip-path="url(#a)"/>
<path d="m118.16 219.66-60.079 97.256" clip-path="url(#a)"/>
<path d="m118.16 219.66 8.0105 194.01" clip-path="url(#a)"/>
<path d="m118.16 219.66 68.09 194.01" clip-path="url(#a)"/>
<path d="m118.16 219.66-36.047 194.01" clip-path="url(#a)"/>
<path d="m118.16 219.66-16.021 194.01" clip-path="url(#a)"/>
<path d="m118.16 219.66 36.047 194.01" clip-path="url(#a)"/>
<path d="m262.35 413.67v95.422" clip-path="url(#a)"/>
<path d="m419.44 122.08-113.04 291.59" clip-path="url(#a)"/>
<path d="m419.44 122.08-64.974 291.59" clip-path="url(#a)"/>
<path d="m419.44 122.08 75.21 194.84" clip-path="url(#a)"/>
<path d="m419.44 122.08 336 97.587" clip-path="url(#a)"/>
<path d="m419.44 122.08-233.2 291.59" clip-path="url(#a)" stroke-dasharray="3.7,1.6"/>
<path d="m306.4 413.67v95.422" clip-path="url(#a)"/>
<path d="m354.47 413.67v95.422" clip-path="url(#a)"/>
<path d="m494.65 316.92-88.116 96.749" clip-path="url(#a)"/>
<path d="m494.65 316.92-32.042 96.749" clip-path="url(#a)"/>
<path d="m494.65 316.92 28.037 96.749" clip-path="url(#a)"/>
<path d="m494.65 316.92 92.121 96.749" clip-path="url(#a)"/>
<path d="m755.44 219.66-100.58 194.01" clip-path="url(#a)"/>
<path d="m755.44 219.66-28.482 194.01" clip-path="url(#a)"/>
<path d="m755.44 219.66 129.06 97.256" clip-path="url(#a)"/>
<path d="m654.86 413.67v95.422" clip-path="url(#a)"/>
<path d="m726.96 413.67v95.422" clip-path="url(#a)"/>
<path d="m884.5 316.92-81.44 96.749" clip-path="url(#a)"/>
<path d="m884.5 316.92-1.3351 96.749" clip-path="url(#a)"/>
<path d="m884.5 316.92 82.776 96.749" clip-path="url(#a)"/>
<path d="m803.06 413.67v95.422" clip-path="url(#a)"/>
<path d="m883.16 413.67v95.422" clip-path="url(#a)"/>
<path d="m406.53 413.67v95.422" clip-path="url(#a)"/>
<path d="m462.61 413.67v95.422" clip-path="url(#a)"/>
<path d="m522.69 413.67v95.422" clip-path="url(#a)"/>
<path d="m586.77 413.67v95.422" clip-path="url(#a)"/>
<path d="m58.076 316.92 8.0105 96.749" clip-path="url(#a)"/>
<path d="m58.076 316.92 8.0105 96.749" clip-path="url(#a)"/>
<path d="m58.076 316.92v96.749" clip-path="url(#a)"/>
<path d="m126.17 413.67v95.422" clip-path="url(#a)"/>
<path d="m186.25 413.67v95.422" clip-path="url(#a)"/>
<path d="m46.061 413.67v95.422" clip-path="url(#a)"/>
<path d="m82.108 413.67v95.422" clip-path="url(#a)"/>
<path d="m102.13 413.67v95.422" clip-path="url(#a)"/>
<path d="m58.076 413.67v95.422" clip-path="url(#a)"/>
<path d="m154.2 413.67v95.422" clip-path="url(#a)"/>
<path d="m222.29 413.67v95.422" clip-path="url(#a)"/>
<path d="m967.27 413.67v95.422" clip-path="url(#a)"/>
</g>
<path d="m170.22 127.41 2.6416-5.4053q1.0538-2.1563-1.1025-3.2101l-6.9562-3.3995q-2.1563-1.0538-3.2101 1.1025l-2.6416 5.4053q-1.0538 2.1563 1.1025 3.2101l6.9562 3.3996q2.1563 1.0538 3.2101-1.1025z" clip-path="url(#a)" fill="#fff" stroke="#fff"/>
<g clip-path="url(#a)">
<g transform="translate(166.57 125.63) rotate(-63.955) scale(.08 -.08)">
<defs>
<path id="af" d="m9.8125 72.906h9.8594v-29.891h35.844v29.891h9.8594v-72.906h-9.8594v34.719h-35.844v-34.719h-9.8594z"/>
</defs>
<use xlink:href="#af"/>
</g>
</g>
<path d="m231.5 217.52 0.55297 4.4231q0.29773 2.3815 2.6792 2.0837l7.6827-0.96049q2.3815-0.29773 2.0837-2.6792l-0.55297-4.4231q-0.29773-2.3815-2.6792-2.0837l-7.6827 0.96049q-2.3815 0.29773-2.0837 2.6792z" clip-path="url(#a)" fill="#fff" stroke="#fff"/>
<g clip-path="url(#a)">
<g transform="translate(235.54 217.02) rotate(82.874) scale(.08 -.08)">
<defs>
<path id="w" d="m9.8125 72.906h9.8594v-64.609h35.5v-8.2969h-45.359z"/>
</defs>
<use xlink:href="#w"/>
</g>
</g>
<path d="m311.14 77.532 5.4334 2.5832q2.1675 1.0305 3.198-1.137l3.3244-6.9925q1.0305-2.1675-1.137-3.198l-5.4334-2.5832q-2.1675-1.0305-3.198 1.137l-3.3244 6.9925q-1.0305 2.1675 1.137 3.198z" clip-path="url(#a)" fill="#fff" stroke="#fff"/>
<g clip-path="url(#a)">
<g transform="translate(312.89 73.862) rotate(25.428) scale(.08 -.08)">
<use xlink:href="#af"/>
</g>
</g>
<path d="m134.46 224.12 2.3146-5.3781q0.94876-2.2045-1.2558-3.1533l-7.1118-3.0607q-2.2045-0.94876-3.1533 1.2558l-2.3146 5.3781q-0.94876 2.2045 1.2558 3.1533l7.1118 3.0607q2.2045 0.94876 3.1533-1.2558z" clip-path="url(#a)" fill="#fff" stroke="#fff"/>
<g clip-path="url(#a)">
<g transform="translate(130.73 222.52) rotate(-66.714) scale(.08 -.08)">
<defs>
<path id="o" d="m8.6875 72.906h9.9219v-44.297q0-11.719 4.2344-16.875 4.25-5.1406 13.781-5.1406 9.4688 0 13.719 5.1406 4.25 5.1562 4.25 16.875v44.297h9.9062v-45.516q0-14.25-7.0625-21.531-7.0469-7.2812-20.812-7.2812-13.828 0-20.891 7.2812-7.0469 7.2812-7.0469 21.531z"/>
</defs>
<use xlink:href="#o"/>
</g>
</g>
<path d="m211.64 216.17 0.12977 5.8536q0.053195 2.3994 2.4526 2.3462l7.7406-0.17161q2.3994-0.053195 2.3462-2.4526l-0.12977-5.8536q-0.053195-2.3994-2.4526-2.3462l-7.7406 0.17161q-2.3994 0.053195-2.3462 2.4526z" clip-path="url(#a)" fill="#fff" stroke="#fff"/>
<g clip-path="url(#a)">
<g transform="translate(215.7 216.08) rotate(88.73) scale(.08 -.08)">
<use xlink:href="#o"/>
</g>
</g>
<path d="m92.013 273.92 2.8761-4.6558q1.2613-2.0418-0.78051-3.3032l-6.587-4.0691q-2.0418-1.2613-3.3032 0.78051l-2.8761 4.6558q-1.2613 2.0418 0.78051 3.3032l6.587 4.0691q2.0418 1.2613 3.3032-0.78051z" clip-path="url(#a)" fill="#fff" stroke="#fff"/>
<g clip-path="url(#a)">
<g transform="translate(88.556 271.78) rotate(-58.295) scale(.08 -.08)">
<defs>
<path id="n" d="m34.188 63.188-13.391-36.281h26.812zm-5.5781 9.7188h11.188l27.781-72.906h-10.25l-6.6406 18.703h-32.859l-6.6406-18.703h-10.406z"/>
</defs>
<use xlink:href="#n"/>
</g>
</g>
<path d="m115.8 314.52 0.199 4.8196q0.099013 2.398 2.497 2.2989l7.7359-0.31942q2.398-0.099013 2.2989-2.497l-0.199-4.8196q-0.099012-2.398-2.497-2.2989l-7.7359 0.31942q-2.398 0.099012-2.2989 2.497z" clip-path="url(#a)" fill="#fff" stroke="#fff"/>
<g clip-path="url(#a)">
<g transform="translate(119.86 314.35) rotate(87.636) scale(.08 -.08)">
<defs>
<path id="p" d="m19.672 64.797v-27.391h12.406q6.8906 0 10.641 3.5625 3.7656 3.5625 3.7656 10.156 0 6.5469-3.7656 10.109-3.75 3.5625-10.641 3.5625zm-9.8594 8.1094h22.266q12.266 0 18.531-5.5469 6.2812-5.5469 6.2812-16.234 0-10.797-6.2812-16.312-6.2656-5.5156-18.531-5.5156h-12.406v-29.297h-9.8594z"/>
</defs>
<use xlink:href="#p"/>
</g>
</g>
<path d="m145.38 316.16 1.8123 5.1637q0.79479 2.2646 3.0594 1.4698l7.3056-2.564q2.2646-0.79479 1.4698-3.0594l-1.8123-5.1637q-0.79479-2.2646-3.0594-1.4698l-7.3056 2.564q-2.2646 0.79479-1.4698 3.0594z" clip-path="url(#a)" fill="#fff" stroke="#fff"/>
<g clip-path="url(#a)">
<g transform="translate(149.21 314.82) rotate(70.661) scale(.08 -.08)">
<use xlink:href="#n"/>
</g>
</g>
<path d="m105.76 320.69 1.0696-5.7565q0.43843-2.3596-1.9212-2.798l-7.6122-1.4144q-2.3596-0.43843-2.798 1.9212l-1.0696 5.7565q-0.43843 2.3596 1.9212 2.798l7.6122 1.4144q2.3596 0.43843 2.798-1.9212z" clip-path="url(#a)" fill="#fff" stroke="#fff"/>
<g clip-path="url(#a)">
<g transform="translate(101.77 319.95) rotate(-79.474) scale(.08 -.08)">
<use xlink:href="#o"/>
</g>
</g>
<path d="m116.15 320.1 0.48187-5.8351q0.19752-2.3919-2.1943-2.5894l-7.7162-0.63721q-2.3919-0.19752-2.5894 2.1943l-0.48187 5.8351q-0.19752 2.3919 2.1943 2.5894l7.7162 0.63721q2.3919 0.19752 2.5894-2.1943z" clip-path="url(#a)" fill="#fff" stroke="#fff"/>
<g clip-path="url(#a)">
<g transform="translate(112.1 319.77) rotate(-85.279) scale(.08 -.08)">
<use xlink:href="#o"/>
</g>
</g>
<path d="m129.48 314.93 1.0696 5.7565q0.43843 2.3596 2.798 1.9212l7.6122-1.4144q2.3596-0.43843 1.9212-2.798l-1.0696-5.7565q-0.43843-2.3596-2.798-1.9212l-7.6122 1.4144q-2.3596 0.43843-1.9212 2.798z" clip-path="url(#a)" fill="#fff" stroke="#fff"/>
<g clip-path="url(#a)">
<g transform="translate(133.47 314.19) rotate(79.474) scale(.08 -.08)">
<use xlink:href="#o"/>
</g>
</g>
<path d="m256.07 444.48v33.808q0 2.4 2.4 2.4h7.7425q2.4 0 2.4-2.4v-33.808q0-2.4-2.4-2.4h-7.7425q-2.4 0-2.4 2.4z" clip-path="url(#a)" fill="#fff" stroke="#fff"/>
<g clip-path="url(#a)">
<g transform="translate(260.14 444.48) rotate(90) scale(.08 -.08)">
<defs>
<path id="k" d="m-0.29688 72.906h61.672v-8.3125h-25.875v-64.594h-9.9062v64.594h-25.891z"/>
<path id="e" d="m56.203 29.594v-4.3906h-41.312q0.59375-9.2812 5.5938-14.141t13.938-4.8594q5.1719 0 10.031 1.2656t9.6562 3.8125v-8.5q-4.8438-2.0469-9.9219-3.125t-10.297-1.0781q-13.094 0-20.734 7.6094-7.6406 7.625-7.6406 20.625 0 13.422 7.25 21.297 7.25 7.8906 19.562 7.8906 11.031 0 17.453-7.1094 6.4219-7.0938 6.4219-19.297zm-8.9844 2.6406q-0.09375 7.3594-4.125 11.75-4.0312 4.4062-10.672 4.4062-7.5156 0-12.031-4.25t-5.2031-11.969z"/>
<path id="h" d="m41.109 46.297q-1.5156 0.875-3.2969 1.2812-1.7812 0.42188-3.9219 0.42188-7.625 0-11.703-4.9531t-4.0781-14.234v-28.812h-9.0312v54.688h9.0312v-8.5q2.8438 4.9844 7.375 7.3906 4.5469 2.4219 11.047 2.4219 0.92188 0 2.0469-0.125 1.125-0.10938 2.4844-0.35938z"/>
<path id="j" d="m52 44.188q3.375 6.0625 8.0625 8.9375t11.031 2.875q8.5469 0 13.188-5.9844 4.6406-5.9688 4.6406-17v-33.016h-9.0312v32.719q0 7.8594-2.7969 11.656-2.7812 3.8125-8.4844 3.8125-6.9844 0-11.047-4.6406-4.0469-4.625-4.0469-12.641v-30.906h-9.0312v32.719q0 7.9062-2.7812 11.688t-8.5938 3.7812q-6.8906 0-10.953-4.6562-4.0469-4.6562-4.0469-12.625v-30.906h-9.0312v54.688h9.0312v-8.5q3.0781 5.0312 7.375 7.4219t10.203 2.3906q5.9688 0 10.141-3.0312 4.1719-3.0156 6.1719-8.7812z"/>
<path id="i" d="m9.4219 54.688h8.9844v-54.688h-8.9844zm0 21.297h8.9844v-11.391h-8.9844z"/>
<path id="g" d="m54.891 33.016v-33.016h-8.9844v32.719q0 7.7656-3.0312 11.609-3.0312 3.8594-9.0781 3.8594-7.2812 0-11.484-4.6406-4.2031-4.625-4.2031-12.641v-30.906h-9.0312v54.688h9.0312v-8.5q3.2344 4.9375 7.5938 7.375 4.375 2.4375 10.094 2.4375 9.4219 0 14.25-5.8281 4.8438-5.8281 4.8438-17.156z"/>
<path id="f" d="m34.281 27.484q-10.891 0-15.094-2.4844t-4.2031-8.5q0-4.7812 3.1562-7.5938 3.1562-2.7969 8.5625-2.7969 7.4844 0 12 5.2969t4.5156 14.078v2zm17.922 3.7188v-31.203h-8.9844v8.2969q-3.0781-4.9688-7.6719-7.3438t-11.234-2.375q-8.3906 0-13.359 4.7188-4.9531 4.7188-4.9531 12.625 0 9.2188 6.1719 13.906 6.1875 4.6875 18.438 4.6875h12.609v0.89062q0 6.2031-4.0781 9.5938t-11.453 3.3906q-4.6875 0-9.1406-1.125-4.4375-1.125-8.5312-3.375v8.3125q4.9219 1.9062 9.5625 2.8438 4.6406 0.95312 9.0312 0.95312 11.875 0 17.734-6.1562 5.8594-6.1406 5.8594-18.641z"/>
<path id="l" d="m9.4219 75.984h8.9844v-75.984h-8.9844z"/>
</defs>
<use xlink:href="#k"/>
<use x="44.083984" xlink:href="#e"/>
<use x="105.607422" xlink:href="#h"/>
<use x="144.970703" xlink:href="#j"/>
<use x="242.382812" xlink:href="#i"/>
<use x="270.166016" xlink:href="#g"/>
<use x="333.544922" xlink:href="#f"/>
<use x="394.824219" xlink:href="#l"/>
</g>
</g>
<path d="m367.94 272.28 1.6631-4.2902q0.86747-2.2377-1.3703-3.1052l-7.219-2.7985q-2.2377-0.86747-3.1052 1.3703l-1.6631 4.2902q-0.86747 2.2377 1.3703 3.1052l7.219 2.7985q2.2377 0.86747 3.1052-1.3703z" clip-path="url(#a)" fill="#fff" stroke="#fff"/>
<g clip-path="url(#a)">
<g transform="translate(364.15 270.82) rotate(-68.811) scale(.08 -.08)">
<defs>
<path id="ag" d="m9.8125 72.906h41.891v-8.3125h-32.031v-21.484h28.906v-8.2969h-28.906v-34.812h-9.8594z"/>
</defs>
<use xlink:href="#ag"/>
</g>
</g>
<path d="m392.55 271.59 1.0491-4.7083q0.52198-2.3425-1.8206-2.8645l-7.5572-1.6839q-2.3425-0.52198-2.8645 1.8206l-1.0491 4.7083q-0.52198 2.3425 1.8206 2.8645l7.5572 1.6839q2.3425 0.52198 2.8645-1.8206z" clip-path="url(#a)" fill="#fff" stroke="#fff"/>
<g clip-path="url(#a)">
<g transform="translate(388.58 270.71) rotate(-77.438) scale(.08 -.08)">
<use xlink:href="#p"/>
</g>
</g>
<path d="m450.09 218.88 2.2183 5.7467q0.86425 2.239 3.1032 1.3747l7.2231-2.7881q2.239-0.86425 1.3747-3.1032l-2.2183-5.7467q-0.86425-2.239-3.1032-1.3747l-7.2231 2.7881q-2.239 0.86425-1.3747 3.1032z" clip-path="url(#a)" fill="#fff" stroke="#fff"/>
<g clip-path="url(#a)">
<g transform="translate(453.88 217.42) rotate(68.893) scale(.08 -.08)">
<defs>
<path id="aq" d="m19.672 64.797v-56.688h11.922q15.094 0 22.094 6.8281 7 6.8438 7 21.594 0 14.641-7 21.453t-22.094 6.8125zm-9.8594 8.1094h20.266q21.188 0 31.094-8.8125 9.9219-8.8125 9.9219-27.562 0-18.859-9.9688-27.703-9.9531-8.8281-31.047-8.8281h-20.266z"/>
</defs>
<use xlink:href="#aq"/>
</g>
</g>
<path d="m583.06 176.13 5.2553 1.5264q2.3048 0.6694 2.9742-1.6354l2.1595-7.4352q0.6694-2.3048-1.6354-2.9742l-5.2553-1.5264q-2.3048-0.6694-2.9742 1.6354l-2.1595 7.4352q-0.6694 2.3048 1.6354 2.9742z" clip-path="url(#a)" fill="#fff" stroke="#fff"/>
<g clip-path="url(#a)">
<g transform="translate(584.2 172.23) rotate(16.195) scale(.08 -.08)">
<use xlink:href="#n"/>
</g>
</g>
<path d="m306.03 273.93 3.4179-4.2739q1.499-1.8743-0.37537-3.3733l-6.0467-4.8357q-1.8743-1.499-3.3733 0.37537l-3.4179 4.2739q-1.499 1.8743 0.37537 3.3733l6.0467 4.8357q1.8743 1.499 3.3733-0.37537z" clip-path="url(#a)" fill="#fff" stroke="#fff"/>
<g clip-path="url(#a)">
<g transform="translate(302.86 271.39) rotate(-51.35) scale(.08 -.08)">
<use xlink:href="#n"/>
</g>
</g>
<path d="m300.13 444.48v33.808q0 2.4 2.4 2.4h7.7425q2.4 0 2.4-2.4v-33.808q0-2.4-2.4-2.4h-7.7425q-2.4 0-2.4 2.4z" clip-path="url(#a)" fill="#fff" stroke="#fff"/>
<g clip-path="url(#a)">
<g transform="translate(304.2 444.48) rotate(90) scale(.08 -.08)">
<use xlink:href="#k"/>
<use x="44.083984" xlink:href="#e"/>
<use x="105.607422" xlink:href="#h"/>
<use x="144.970703" xlink:href="#j"/>
<use x="242.382812" xlink:href="#i"/>
<use x="270.166016" xlink:href="#g"/>
<use x="333.544922" xlink:href="#f"/>
<use x="394.824219" xlink:href="#l"/>
</g>
</g>
<path d="m348.2 444.48v33.808q0 2.4 2.4 2.4h7.7425q2.4 0 2.4-2.4v-33.808q0-2.4-2.4-2.4h-7.7425q-2.4 0-2.4 2.4z" clip-path="url(#a)" fill="#fff" stroke="#fff"/>
<g clip-path="url(#a)">
<g transform="translate(352.26 444.48) rotate(90) scale(.08 -.08)">
<use xlink:href="#k"/>
<use x="44.083984" xlink:href="#e"/>
<use x="105.607422" xlink:href="#h"/>
<use x="144.970703" xlink:href="#j"/>
<use x="242.382812" xlink:href="#i"/>
<use x="270.166016" xlink:href="#g"/>
<use x="333.544922" xlink:href="#f"/>
<use x="394.824219" xlink:href="#l"/>
</g>
</g>
<path d="m453.36 371.57 3.743-4.1097q1.616-1.7744-0.15833-3.3904l-5.7242-5.2134q-1.7744-1.616-3.3904 0.15833l-3.743 4.1097q-1.616 1.7744 0.15833 3.3904l5.7242 5.2134q1.7744 1.616 3.3904-0.15833z" clip-path="url(#a)" fill="#fff" stroke="#fff"/>
<g clip-path="url(#a)">
<g transform="translate(450.35 368.84) rotate(-47.674) scale(.08 -.08)">
<defs>
<path id="ad" d="m44.391 34.188q3.1719-1.0781 6.1719-4.5938t6.0312-9.6719l10.016-19.922h-10.609l-9.3125 18.703q-3.625 7.3281-7.0156 9.7188t-9.25 2.3906h-10.75v-30.812h-9.8594v72.906h22.266q12.5 0 18.656-5.2344 6.1562-5.2188 6.1562-15.766 0-6.8906-3.2031-11.438-3.2031-4.5312-9.2969-6.2812zm-24.719 30.609v-25.875h12.406q7.125 0 10.766 3.2969t3.6406 9.6875-3.6406 9.6406-10.766 3.25z"/>
</defs>
<use xlink:href="#ad"/>
</g>
</g>
<path d="m483.86 369.45 1.4466-4.3679q0.75455-2.2783-1.5238-3.0328l-7.3499-2.4342q-2.2783-0.75455-3.0328 1.5238l-1.4466 4.3679q-0.75455 2.2783 1.5238 3.0328l7.3499 2.4342q2.2783 0.75455 3.0328-1.5238z" clip-path="url(#a)" fill="#fff" stroke="#fff"/>
<g clip-path="url(#a)">
<g transform="translate(480 368.17) rotate(-71.676) scale(.08 -.08)">
<use xlink:href="#ag"/>
</g>
</g>
<path d="m501.87 364.36 1.5549 5.3655q0.66801 2.3052 2.9732 1.6371l7.4365-2.155q2.3052-0.66801 1.6371-2.9732l-1.5549-5.3655q-0.66801-2.3052-2.9732-1.6371l-7.4365 2.155q-2.3052 0.66801-1.6371 2.9732z" clip-path="url(#a)" fill="#fff" stroke="#fff"/>
<g clip-path="url(#a)">
<g transform="translate(505.77 363.23) rotate(73.839) scale(.08 -.08)">
<defs>
<path id="t" d="m64.406 67.281v-10.391q-4.9844 4.6406-10.625 6.9219-5.6406 2.2969-11.984 2.2969-12.5 0-19.141-7.6406t-6.6406-22.094q0-14.406 6.6406-22.047t19.141-7.6406q6.3438 0 11.984 2.2969t10.625 6.9375v-10.312q-5.1719-3.5156-10.969-5.2812-5.7812-1.75-12.219-1.75-16.562 0-26.094 10.125-9.5156 10.141-9.5156 27.672 0 17.578 9.5156 27.703 9.5312 10.141 26.094 10.141 6.5312 0 12.312-1.7344 5.7969-1.7344 10.875-5.2031z"/>
</defs>
<use xlink:href="#t"/>
</g>
</g>
<path d="m534.43 367.79 3.4858 3.6609q1.655 1.7381 3.3931 0.083138l5.6072-5.339q1.7381-1.655 0.083138-3.3931l-3.4858-3.6609q-1.655-1.7381-3.3931-0.083139l-5.6072 5.339q-1.7381 1.655-0.083138 3.3931z" clip-path="url(#a)" fill="#fff" stroke="#fff"/>
<g clip-path="url(#a)">
<g transform="translate(537.37 364.99) rotate(46.404) scale(.08 -.08)">
<defs>
<path id="ap" d="m9.8125 72.906h46.094v-8.3125h-36.234v-21.578h34.719v-8.2969h-34.719v-26.422h37.109v-8.2969h-46.969z"/>
</defs>
<use xlink:href="#ap"/>
</g>
</g>
<path d="m709.46 321.98 2.5187-4.8584q1.1046-2.1307-1.0261-3.2353l-6.8737-3.5635q-2.1307-1.1046-3.2353 1.0261l-2.5187 4.8584q-1.1046 2.1307 1.0261 3.2353l6.8737 3.5635q2.1307 1.1046 3.2353-1.0261z" clip-path="url(#a)" fill="#fff" stroke="#fff"/>
<g clip-path="url(#a)">
<g transform="translate(705.85 320.11) rotate(-62.597) scale(.08 -.08)">
<use xlink:href="#n"/>
</g>
</g>
<path d="m747.05 319.96 0.70066-4.7726q0.34861-2.3745-2.0259-2.7232l-7.6604-1.1246q-2.3745-0.34861-2.7232 2.0259l-0.70066 4.7726q-0.34861 2.3745 2.0259 2.7232l7.6604 1.1246q2.3745 0.34861 2.7232-2.0259z" clip-path="url(#a)" fill="#fff" stroke="#fff"/>
<g clip-path="url(#a)">
<g transform="translate(743.03 319.37) rotate(-81.648) scale(.08 -.08)">
<use xlink:href="#p"/>
</g>
</g>
<path d="m814.01 271.65 4.3705 3.2935q1.9167 1.4444 3.3611-0.47231l4.6597-6.1834q1.4444-1.9167-0.47231-3.3611l-4.3705-3.2935q-1.9167-1.4444-3.3611 0.47231l-4.6597 6.1834q-1.4444 1.9167 0.47231 3.3611z" clip-path="url(#a)" fill="#fff" stroke="#fff"/>
<g clip-path="url(#a)">
<g transform="translate(816.45 268.41) rotate(37.001) scale(.08 -.08)">
<use xlink:href="#n"/>
</g>
</g>
<path d="m648.59 444.48v33.808q0 2.4 2.4 2.4h7.7425q2.4 0 2.4-2.4v-33.808q0-2.4-2.4-2.4h-7.7425q-2.4 0-2.4 2.4z" clip-path="url(#a)" fill="#fff" stroke="#fff"/>
<g clip-path="url(#a)">
<g transform="translate(652.65 444.48) rotate(90) scale(.08 -.08)">
<use xlink:href="#k"/>
<use x="44.083984" xlink:href="#e"/>
<use x="105.607422" xlink:href="#h"/>
<use x="144.970703" xlink:href="#j"/>
<use x="242.382812" xlink:href="#i"/>
<use x="270.166016" xlink:href="#g"/>
<use x="333.544922" xlink:href="#f"/>
<use x="394.824219" xlink:href="#l"/>
</g>
</g>
<path d="m720.69 444.48v33.808q0 2.4 2.4 2.4h7.7425q2.4 0 2.4-2.4v-33.808q0-2.4-2.4-2.4h-7.7425q-2.4 0-2.4 2.4z" clip-path="url(#a)" fill="#fff" stroke="#fff"/>
<g clip-path="url(#a)">
<g transform="translate(724.75 444.48) rotate(90) scale(.08 -.08)">
<use xlink:href="#k"/>
<use x="44.083984" xlink:href="#e"/>
<use x="105.607422" xlink:href="#h"/>
<use x="144.970703" xlink:href="#j"/>
<use x="242.382812" xlink:href="#i"/>
<use x="270.166016" xlink:href="#g"/>
<use x="333.544922" xlink:href="#f"/>
<use x="394.824219" xlink:href="#l"/>
</g>
</g>
<path d="m846.78 371.46 3.5798-4.2526q1.5456-1.8361-0.29052-3.3817l-5.9233-4.9861q-1.8361-1.5456-3.3817 0.29052l-3.5798 4.2526q-1.5456 1.8361 0.29052 3.3817l5.9233 4.9861q1.8361 1.5456 3.3817-0.29052z" clip-path="url(#a)" fill="#fff" stroke="#fff"/>
<g clip-path="url(#a)">
<g transform="translate(843.68 368.84) rotate(-49.91) scale(.08 -.08)">
<use xlink:href="#ad"/>
</g>
</g>
<path d="m890.06 368.17 0.07708-5.5857q0.033116-2.3998-2.3667-2.4329l-7.7418-0.10683q-2.3998-0.033115-2.4329 2.3667l-0.077081 5.5857q-0.033115 2.3998 2.3667 2.4329l7.7418 0.10683q2.3998 0.033116 2.4329-2.3667z" clip-path="url(#a)" fill="#fff" stroke="#fff"/>
<g clip-path="url(#a)">
<g transform="translate(886 368.12) rotate(-89.209) scale(.08 -.08)">
<use xlink:href="#t"/>
</g>
</g>
<path d="m919.22 367.15 3.8064 4.4489q1.5602 1.8236 3.3839 0.26339l5.8831-5.0334q1.8236-1.5602 0.26339-3.3839l-3.8064-4.4489q-1.5602-1.8236-3.3839-0.26338l-5.8831 5.0334q-1.8236 1.5602-0.26338 3.3839z" clip-path="url(#a)" fill="#fff" stroke="#fff"/>
<g clip-path="url(#a)">
<g transform="translate(922.3 364.51) rotate(49.451) scale(.08 -.08)">
<use xlink:href="#o"/>
</g>
</g>
<path d="m796.79 444.48v33.808q0 2.4 2.4 2.4h7.7425q2.4 0 2.4-2.4v-33.808q0-2.4-2.4-2.4h-7.7425q-2.4 0-2.4 2.4z" clip-path="url(#a)" fill="#fff" stroke="#fff"/>
<g clip-path="url(#a)">
<g transform="translate(800.85 444.48) rotate(90) scale(.08 -.08)">
<use xlink:href="#k"/>
<use x="44.083984" xlink:href="#e"/>
<use x="105.607422" xlink:href="#h"/>
<use x="144.970703" xlink:href="#j"/>
<use x="242.382812" xlink:href="#i"/>
<use x="270.166016" xlink:href="#g"/>
<use x="333.544922" xlink:href="#f"/>
<use x="394.824219" xlink:href="#l"/>
</g>
</g>
<path d="m876.89 444.48v33.808q0 2.4 2.4 2.4h7.7425q2.4 0 2.4-2.4v-33.808q0-2.4-2.4-2.4h-7.7425q-2.4 0-2.4 2.4z" clip-path="url(#a)" fill="#fff" stroke="#fff"/>
<g clip-path="url(#a)">
<g transform="translate(880.95 444.48) rotate(90) scale(.08 -.08)">
<use xlink:href="#k"/>
<use x="44.083984" xlink:href="#e"/>
<use x="105.607422" xlink:href="#h"/>
<use x="144.970703" xlink:href="#j"/>
<use x="242.382812" xlink:href="#i"/>
<use x="270.166016" xlink:href="#g"/>
<use x="333.544922" xlink:href="#f"/>
<use x="394.824219" xlink:href="#l"/>
</g>
</g>
<path d="m400.26 444.48v33.808q0 2.4 2.4 2.4h7.7425q2.4 0 2.4-2.4v-33.808q0-2.4-2.4-2.4h-7.7425q-2.4 0-2.4 2.4z" clip-path="url(#a)" fill="#fff" stroke="#fff"/>
<g clip-path="url(#a)">
<g transform="translate(404.33 444.48) rotate(90) scale(.08 -.08)">
<use xlink:href="#k"/>
<use x="44.083984" xlink:href="#e"/>
<use x="105.607422" xlink:href="#h"/>
<use x="144.970703" xlink:href="#j"/>
<use x="242.382812" xlink:href="#i"/>
<use x="270.166016" xlink:href="#g"/>
<use x="333.544922" xlink:href="#f"/>
<use x="394.824219" xlink:href="#l"/>
</g>
</g>
<path d="m456.34 444.48v33.808q0 2.4 2.4 2.4h7.7425q2.4 0 2.4-2.4v-33.808q0-2.4-2.4-2.4h-7.7425q-2.4 0-2.4 2.4z" clip-path="url(#a)" fill="#fff" stroke="#fff"/>
<g clip-path="url(#a)">
<g transform="translate(460.4 444.48) rotate(90) scale(.08 -.08)">
<use xlink:href="#k"/>
<use x="44.083984" xlink:href="#e"/>
<use x="105.607422" xlink:href="#h"/>
<use x="144.970703" xlink:href="#j"/>
<use x="242.382812" xlink:href="#i"/>
<use x="270.166016" xlink:href="#g"/>
<use x="333.544922" xlink:href="#f"/>
<use x="394.824219" xlink:href="#l"/>
</g>
</g>
<path d="m516.42 444.48v33.808q0 2.4 2.4 2.4h7.7425q2.4 0 2.4-2.4v-33.808q0-2.4-2.4-2.4h-7.7425q-2.4 0-2.4 2.4z" clip-path="url(#a)" fill="#fff" stroke="#fff"/>
<g clip-path="url(#a)">
<g transform="translate(520.48 444.48) rotate(90) scale(.08 -.08)">
<use xlink:href="#k"/>
<use x="44.083984" xlink:href="#e"/>
<use x="105.607422" xlink:href="#h"/>
<use x="144.970703" xlink:href="#j"/>
<use x="242.382812" xlink:href="#i"/>
<use x="270.166016" xlink:href="#g"/>
<use x="333.544922" xlink:href="#f"/>
<use x="394.824219" xlink:href="#l"/>
</g>
</g>
<path d="m580.5 444.48v33.808q0 2.4 2.4 2.4h7.7425q2.4 0 2.4-2.4v-33.808q0-2.4-2.4-2.4h-7.7425q-2.4 0-2.4 2.4z" clip-path="url(#a)" fill="#fff" stroke="#fff"/>
<g clip-path="url(#a)">
<g transform="translate(584.56 444.48) rotate(90) scale(.08 -.08)">
<use xlink:href="#k"/>
<use x="44.083984" xlink:href="#e"/>
<use x="105.607422" xlink:href="#h"/>
<use x="144.970703" xlink:href="#j"/>
<use x="242.382812" xlink:href="#i"/>
<use x="270.166016" xlink:href="#g"/>
<use x="333.544922" xlink:href="#f"/>
<use x="394.824219" xlink:href="#l"/>
</g>
</g>
<path d="m55.633 363.41 0.39803 4.8073q0.19804 2.3918 2.5899 2.1938l7.7161-0.63887q2.3918-0.19804 2.1938-2.5899l-0.39803-4.8073q-0.19804-2.3918-2.5899-2.1938l-7.7161 0.63887q-2.3918 0.19804-2.1938 2.5899z" clip-path="url(#a)" fill="#fff" stroke="#fff"/>
<g clip-path="url(#a)">
<g transform="translate(59.683 363.07) rotate(85.267) scale(.08 -.08)">
<use xlink:href="#p"/>
</g>
</g>
<path d="m55.606 363.09 0.45156 5.4538q0.19804 2.3918 2.5899 2.1938l7.7161-0.63887q2.3918-0.19804 2.1938-2.5899l-0.45156-5.4538q-0.19804-2.3918-2.5899-2.1938l-7.7161 0.63887q-2.3918 0.19804-2.1938 2.5899z" clip-path="url(#a)" fill="#fff" stroke="#fff"/>
<g clip-path="url(#a)">
<g transform="translate(59.656 362.75) rotate(85.267) scale(.08 -.08)">
<use xlink:href="#n"/>
</g>
</g>
<path d="m51.805 362.2v6.1988q0 2.4 2.4 2.4h7.7425q2.4 0 2.4-2.4v-6.1988q0-2.4-2.4-2.4h-7.7425q-2.4 0-2.4 2.4z" clip-path="url(#a)" fill="#fff" stroke="#fff"/>
<g clip-path="url(#a)">
<g transform="translate(55.869 362.2) rotate(90) scale(.08 -.08)">
<defs>
<path id="ao" d="m59.516 10.406v19.578h-16.109v8.1094h25.875v-31.312q-5.7031-4.0469-12.594-6.125-6.875-2.0781-14.688-2.0781-17.094 0-26.75 9.9844-9.6406 10-9.6406 27.812 0 17.875 9.6406 27.859 9.6562 9.9844 26.75 9.9844 7.125 0 13.547-1.7656 6.4219-1.75 11.844-5.1719v-10.5q-5.4688 4.6406-11.625 6.9844t-12.938 2.3438q-13.391 0-20.109-7.4688-6.7031-7.4688-6.7031-22.266 0-14.75 6.7031-22.219 6.7188-7.4688 20.109-7.4688 5.2188 0 9.3125 0.90625 4.1094 0.90625 7.375 2.8125z"/>
</defs>
<use xlink:href="#ao"/>
</g>
</g>
<path d="m119.89 444.48v33.808q0 2.4 2.4 2.4h7.7425q2.4 0 2.4-2.4v-33.808q0-2.4-2.4-2.4h-7.7425q-2.4 0-2.4 2.4z" clip-path="url(#a)" fill="#fff" stroke="#fff"/>
<g clip-path="url(#a)">
<g transform="translate(123.96 444.48) rotate(90) scale(.08 -.08)">
<use xlink:href="#k"/>
<use x="44.083984" xlink:href="#e"/>
<use x="105.607422" xlink:href="#h"/>
<use x="144.970703" xlink:href="#j"/>
<use x="242.382812" xlink:href="#i"/>
<use x="270.166016" xlink:href="#g"/>
<use x="333.544922" xlink:href="#f"/>
<use x="394.824219" xlink:href="#l"/>
</g>
</g>
<path d="m179.97 444.48v33.808q0 2.4 2.4 2.4h7.7425q2.4 0 2.4-2.4v-33.808q0-2.4-2.4-2.4h-7.7425q-2.4 0-2.4 2.4z" clip-path="url(#a)" fill="#fff" stroke="#fff"/>
<g clip-path="url(#a)">
<g transform="translate(184.04 444.48) rotate(90) scale(.08 -.08)">
<use xlink:href="#k"/>
<use x="44.083984" xlink:href="#e"/>
<use x="105.607422" xlink:href="#h"/>
<use x="144.970703" xlink:href="#j"/>
<use x="242.382812" xlink:href="#i"/>
<use x="270.166016" xlink:href="#g"/>
<use x="333.544922" xlink:href="#f"/>
<use x="394.824219" xlink:href="#l"/>
</g>
</g>
<path d="m39.789 444.48v33.808q0 2.4 2.4 2.4h7.7425q2.4 0 2.4-2.4v-33.808q0-2.4-2.4-2.4h-7.7425q-2.4 0-2.4 2.4z" clip-path="url(#a)" fill="#fff" stroke="#fff"/>
<g clip-path="url(#a)">
<g transform="translate(43.853 444.48) rotate(90) scale(.08 -.08)">
<use xlink:href="#k"/>
<use x="44.083984" xlink:href="#e"/>
<use x="105.607422" xlink:href="#h"/>
<use x="144.970703" xlink:href="#j"/>
<use x="242.382812" xlink:href="#i"/>
<use x="270.166016" xlink:href="#g"/>
<use x="333.544922" xlink:href="#f"/>
<use x="394.824219" xlink:href="#l"/>
</g>
</g>
<path d="m75.837 444.48v33.808q0 2.4 2.4 2.4h7.7425q2.4 0 2.4-2.4v-33.808q0-2.4-2.4-2.4h-7.7425q-2.4 0-2.4 2.4z" clip-path="url(#a)" fill="#fff" stroke="#fff"/>
<g clip-path="url(#a)">
<g transform="translate(79.901 444.48) rotate(90) scale(.08 -.08)">
<use xlink:href="#k"/>
<use x="44.083984" xlink:href="#e"/>
<use x="105.607422" xlink:href="#h"/>
<use x="144.970703" xlink:href="#j"/>
<use x="242.382812" xlink:href="#i"/>
<use x="270.166016" xlink:href="#g"/>
<use x="333.544922" xlink:href="#f"/>
<use x="394.824219" xlink:href="#l"/>
</g>
</g>
<path d="m95.863 444.48v33.808q0 2.4 2.4 2.4h7.7425q2.4 0 2.4-2.4v-33.808q0-2.4-2.4-2.4h-7.7425q-2.4 0-2.4 2.4z" clip-path="url(#a)" fill="#fff" stroke="#fff"/>
<g clip-path="url(#a)">
<g transform="translate(99.927 444.48) rotate(90) scale(.08 -.08)">
<use xlink:href="#k"/>
<use x="44.083984" xlink:href="#e"/>
<use x="105.607422" xlink:href="#h"/>
<use x="144.970703" xlink:href="#j"/>
<use x="242.382812" xlink:href="#i"/>
<use x="270.166016" xlink:href="#g"/>
<use x="333.544922" xlink:href="#f"/>
<use x="394.824219" xlink:href="#l"/>
</g>
</g>
<path d="m51.805 444.48v33.808q0 2.4 2.4 2.4h7.7425q2.4 0 2.4-2.4v-33.808q0-2.4-2.4-2.4h-7.7425q-2.4 0-2.4 2.4z" clip-path="url(#a)" fill="#fff" stroke="#fff"/>
<g clip-path="url(#a)">
<g transform="translate(55.869 444.48) rotate(90) scale(.08 -.08)">
<use xlink:href="#k"/>
<use x="44.083984" xlink:href="#e"/>
<use x="105.607422" xlink:href="#h"/>
<use x="144.970703" xlink:href="#j"/>
<use x="242.382812" xlink:href="#i"/>
<use x="270.166016" xlink:href="#g"/>
<use x="333.544922" xlink:href="#f"/>
<use x="394.824219" xlink:href="#l"/>
</g>
</g>
<path d="m147.93 444.48v33.808q0 2.4 2.4 2.4h7.7425q2.4 0 2.4-2.4v-33.808q0-2.4-2.4-2.4h-7.7425q-2.4 0-2.4 2.4z" clip-path="url(#a)" fill="#fff" stroke="#fff"/>
<g clip-path="url(#a)">
<g transform="translate(152 444.48) rotate(90) scale(.08 -.08)">
<use xlink:href="#k"/>
<use x="44.083984" xlink:href="#e"/>
<use x="105.607422" xlink:href="#h"/>
<use x="144.970703" xlink:href="#j"/>
<use x="242.382812" xlink:href="#i"/>
<use x="270.166016" xlink:href="#g"/>
<use x="333.544922" xlink:href="#f"/>
<use x="394.824219" xlink:href="#l"/>
</g>
</g>
<path d="m216.02 444.48v33.808q0 2.4 2.4 2.4h7.7425q2.4 0 2.4-2.4v-33.808q0-2.4-2.4-2.4h-7.7425q-2.4 0-2.4 2.4z" clip-path="url(#a)" fill="#fff" stroke="#fff"/>
<g clip-path="url(#a)">
<g transform="translate(220.08 444.48) rotate(90) scale(.08 -.08)">
<use xlink:href="#k"/>
<use x="44.083984" xlink:href="#e"/>
<use x="105.607422" xlink:href="#h"/>
<use x="144.970703" xlink:href="#j"/>
<use x="242.382812" xlink:href="#i"/>
<use x="270.166016" xlink:href="#g"/>
<use x="333.544922" xlink:href="#f"/>
<use x="394.824219" xlink:href="#l"/>
</g>
</g>
<path d="m961 444.48v33.808q0 2.4 2.4 2.4h7.7425q2.4 0 2.4-2.4v-33.808q0-2.4-2.4-2.4h-7.7425q-2.4 0-2.4 2.4z" clip-path="url(#a)" fill="#fff" stroke="#fff"/>
<g clip-path="url(#a)">
<g transform="translate(965.07 444.48) rotate(90) scale(.08 -.08)">
<use xlink:href="#k"/>
<use x="44.083984" xlink:href="#e"/>
<use x="105.607422" xlink:href="#h"/>
<use x="144.970703" xlink:href="#j"/>
<use x="242.382812" xlink:href="#i"/>
<use x="270.166016" xlink:href="#g"/>
<use x="333.544922" xlink:href="#f"/>
<use x="394.824219" xlink:href="#l"/>
</g>
</g>
<defs>
<path id="b" d="m0 8.6603c2.2967 0 4.4997-0.9125 6.1237-2.5365 1.624-1.624 2.5365-3.827 2.5365-6.1237s-0.9125-4.4997-2.5365-6.1237c-1.624-1.624-3.827-2.5365-6.1237-2.5365s-4.4997 0.9125-6.1237 2.5365c-1.624 1.624-2.5365 3.827-2.5365 6.1237s0.9125 4.4997 2.5365 6.1237c1.624 1.624 3.827 2.5365 6.1237 2.5365z"/>
</defs>
<g clip-path="url(#a)" fill="#ffffff" stroke="#ffffff">
<use x="46.060606" y="509.090909" xlink:href="#b"/>
<use x="58.076416" y="509.090909" xlink:href="#b"/>
<use x="82.108037" y="509.090909" xlink:href="#b"/>
<use x="102.134387" y="509.090909" xlink:href="#b"/>
<use x="126.166008" y="509.090909" xlink:href="#b"/>
<use x="154.202899" y="509.090909" xlink:href="#b"/>
<use x="186.245059" y="509.090909" xlink:href="#b"/>
<use x="222.29249" y="509.090909" xlink:href="#b"/>
<use x="262.345191" y="509.090909" xlink:href="#b"/>
<use x="306.403162" y="509.090909" xlink:href="#b"/>
<use x="354.466403" y="509.090909" xlink:href="#b"/>
<use x="406.534914" y="509.090909" xlink:href="#b"/>
<use x="462.608696" y="509.090909" xlink:href="#b"/>
<use x="522.687747" y="509.090909" xlink:href="#b"/>
<use x="586.772069" y="509.090909" xlink:href="#b"/>
<use x="654.86166" y="509.090909" xlink:href="#b"/>
<use x="726.956522" y="509.090909" xlink:href="#b"/>
<use x="803.056653" y="509.090909" xlink:href="#b"/>
<use x="883.162055" y="509.090909" xlink:href="#b"/>
<use x="967.272727" y="509.090909" xlink:href="#b"/>
<use x="66.086957" y="413.669387" xlink:href="#b"/>
<use x="66.086957" y="413.669387" xlink:href="#b"/>
<use x="213.658908" y="24.242424" xlink:href="#b"/>
<use x="118.155468" y="219.664067" xlink:href="#b"/>
<use x="262.345191" y="413.669387" xlink:href="#b"/>
<use x="419.440785" y="122.076683" xlink:href="#b"/>
<use x="306.403162" y="413.669387" xlink:href="#b"/>
<use x="354.466403" y="413.669387" xlink:href="#b"/>
<use x="494.650856" y="316.920447" xlink:href="#b"/>
<use x="755.438442" y="219.664067" xlink:href="#b"/>
<use x="654.86166" y="413.669387" xlink:href="#b"/>
<use x="726.956522" y="413.669387" xlink:href="#b"/>
<use x="884.497145" y="316.920447" xlink:href="#b"/>
<use x="803.056653" y="413.669387" xlink:href="#b"/>
<use x="883.162055" y="413.669387" xlink:href="#b"/>
<use x="406.534914" y="413.669387" xlink:href="#b"/>
<use x="462.608696" y="413.669387" xlink:href="#b"/>
<use x="522.687747" y="413.669387" xlink:href="#b"/>
<use x="586.772069" y="413.669387" xlink:href="#b"/>
<use x="58.076416" y="316.920447" xlink:href="#b"/>
<use x="126.166008" y="413.669387" xlink:href="#b"/>
<use x="186.245059" y="413.669387" xlink:href="#b"/>
<use x="46.060606" y="413.669387" xlink:href="#b"/>
<use x="82.108037" y="413.669387" xlink:href="#b"/>
<use x="102.134387" y="413.669387" xlink:href="#b"/>
<use x="58.076416" y="413.669387" xlink:href="#b"/>
<use x="154.202899" y="413.669387" xlink:href="#b"/>
<use x="222.29249" y="413.669387" xlink:href="#b"/>
<use x="967.272727" y="413.669387" xlink:href="#b"/>
</g>
<g clip-path="url(#a)">
<g transform="translate(43.001 511.85) scale(.1 -.1)">
<defs>
<path id="ay" d="m51.812 51.703v-9.3125l-14.703-13.094 14.703-13.078v-9.3281l-22.906 20.406v4zm-21.203 0v-9.3125l-14.688-13.094 14.688-13.078v-9.3281l-22.891 20.406v4z"/>
</defs>
<use xlink:href="#ay"/>
</g>
</g>
<g clip-path="url(#a)">
<g transform="translate(39.898 511.85) scale(.1 -.1)">
<defs>
<path id="ab" d="m30.609 48.391q-7.2188 0-11.422-5.6406t-4.2031-15.453 4.1719-15.453q4.1875-5.6406 11.453-5.6406 7.1875 0 11.375 5.6562 4.2031 5.6719 4.2031 15.438 0 9.7188-4.2031 15.406-4.1875 5.6875-11.375 5.6875zm0 7.6094q11.719 0 18.406-7.625 6.7031-7.6094 6.7031-21.078 0-13.422-6.7031-21.078-6.6875-7.6406-18.406-7.6406-11.766 0-18.438 7.6406-6.6562 7.6562-6.6562 21.078 0 13.469 6.6562 21.078 6.6719 7.625 18.438 7.625z"/>
<path id="aa" d="m44.281 53.078v-8.5q-3.7969 1.9531-7.9062 2.9219-4.0938 0.98438-8.5 0.98438-6.6875 0-10.031-2.0469t-3.3438-6.1562q0-3.125 2.3906-4.9062t9.625-3.3906l3.0781-0.6875q9.5625-2.0469 13.594-5.7812t4.0312-10.422q0-7.625-6.0312-12.078-6.0312-4.4375-16.578-4.4375-4.3906 0-9.1562 0.85938t-10.031 2.5625v9.2812q4.9844-2.5938 9.8125-3.8906 4.8281-1.2812 9.5781-1.2812 6.3438 0 9.75 2.1719 3.4219 2.1719 3.4219 6.125 0 3.6562-2.4688 5.6094-2.4531 1.9531-10.812 3.7656l-3.125 0.73438q-8.3438 1.75-12.062 5.3906-3.7031 3.6406-3.7031 9.9844 0 7.7188 5.4688 11.906 5.4688 4.2031 15.531 4.2031 4.9688 0 9.3594-0.73438 4.4062-0.71875 8.1094-2.1875z"/>
</defs>
<use xlink:href="#t"/>
<use x="69.824219" xlink:href="#ab"/>
<use x="131.005859" xlink:href="#g"/>
<use x="194.384766" xlink:href="#aa"/>
<use x="246.484375" xlink:href="#e"/>
<use x="308.007812" xlink:href="#i"/>
<use x="335.791016" xlink:href="#l"/>
</g>
</g>
<g clip-path="url(#a)">
<g transform="translate(80.103 511.85) scale(.1 -.1)">
<defs>
<path id="av" d="m15.094 12.406h9.9062v-12.406h-9.9062zm0 60.5h9.9062v-31.984l-0.96875-17.438h-7.9219l-1.0156 17.438z"/>
</defs>
<use xlink:href="#av"/>
</g>
</g>
<g clip-path="url(#a)">
<g transform="translate(99.075 511.85) scale(.1 -.1)">
<defs>
<path id="ax" d="m9.4219 51.703 22.906-20.406v-4l-22.906-20.406v9.3281l14.703 13.078-14.703 13.094zm21.188 0 22.906-20.406v-4l-22.906-20.406v9.3281l14.703 13.078-14.703 13.094z"/>
</defs>
<use xlink:href="#ax"/>
</g>
</g>
<g clip-path="url(#a)">
<g transform="translate(108.48 512.05) scale(.1 -.1)">
<defs>
<path id="u" d="m56.203 29.594v-4.3906h-41.312q0.59375-9.2812 5.5938-14.141t13.938-4.8594q5.1719 0 10.031 1.2656t9.6562 3.8125v-8.5q-4.8438-2.0469-9.9219-3.125t-10.297-1.0781q-13.094 0-20.734 7.6094-7.6406 7.625-7.6406 20.625 0 13.422 7.25 21.297 7.25 7.8906 19.562 7.8906 11.031 0 17.453-7.1094 6.4219-7.0938 6.4219-19.297zm-8.9844 2.6406q-0.09375 7.3594-4.125 11.75-4.0312 4.4062-10.672 4.4062-7.5156 0-12.031-4.25t-5.2031-11.969zm-8.6875 47.75h9.7188l-15.906-18.359h-7.4844z"/>
<path id="v" d="m18.109 8.2031v-29h-9.0312v75.484h9.0312v-8.2969q2.8438 4.875 7.1562 7.2344 4.3281 2.375 10.328 2.375 9.9688 0 16.188-7.9062 6.2344-7.9062 6.2344-20.797t-6.2344-20.812q-6.2188-7.9062-16.188-7.9062-6 0-10.328 2.375-4.3125 2.375-7.1562 7.25zm30.578 19.094q0 9.9062-4.0781 15.547t-11.203 5.6406q-7.1406 0-11.219-5.6406t-4.0781-15.547 4.0781-15.547 11.219-5.6406q7.125 0 11.203 5.6406t4.0781 15.547z"/>
<path id="s" d="m18.312 70.219v-15.531h18.5v-6.9844h-18.5v-29.688q0-6.6875 1.8281-8.5938t7.4531-1.9062h9.2188v-7.5156h-9.2188q-10.406 0-14.359 3.875-3.9531 3.8906-3.9531 14.141v29.688h-6.5938v6.9844h6.5938v15.531z"/>
</defs>
<use xlink:href="#h"/>
<use x="38.863281" xlink:href="#u"/>
<use x="100.386719" xlink:href="#v"/>
<use x="163.863281" xlink:href="#u"/>
<use x="225.386719" xlink:href="#s"/>
<use x="264.595703" xlink:href="#f"/>
<use x="325.875" xlink:href="#i"/>
</g>
</g>
<g clip-path="url(#a)">
<g transform="translate(152.4 511.85) scale(.1 -.1)">
<defs>
<path id="as" d="m4.8906 31.391h26.312v-8h-26.312z"/>
</defs>
<use xlink:href="#as"/>
</g>
</g>
<g clip-path="url(#a)">
<g transform="translate(181.78 511.85) scale(.1 -.1)">
<defs>
<path id="az" d="m9.4219 54.688h8.9844v-55.672q0-10.438-3.9844-15.125-3.9688-4.6875-12.812-4.6875h-3.4219v7.6094h2.4062q5.125 0 6.9688 2.375 1.8594 2.3594 1.8594 9.8281zm0 21.297h8.9844v-11.391h-8.9844z"/>
</defs>
<use xlink:href="#az"/>
<use x="27.783203" xlink:href="#e"/>
</g>
</g>
<g clip-path="url(#a)">
<g transform="translate(220.7 511.85) scale(.1 -.1)">
<defs>
<path id="at" d="m11.719 12.406h10.297v-8.4062l-8-15.625h-6.2969l4 15.625z"/>
</defs>
<use xlink:href="#at"/>
</g>
</g>
<g clip-path="url(#a)">
<g transform="translate(252.2 511.85) scale(.1 -.1)">
<defs>
<path id="ak" d="m8.5 21.578v33.109h8.9844v-32.766q0-7.7656 3.0156-11.656 3.0312-3.875 9.0938-3.875 7.2656 0 11.484 4.6406 4.2344 4.6406 4.2344 12.656v31h8.9844v-54.688h-8.9844v8.4062q-3.2656-4.9844-7.5938-7.4062-4.3125-2.4219-10.031-2.4219-9.4219 0-14.312 5.8594-4.875 5.8594-4.875 17.141z"/>
</defs>
<use xlink:href="#s"/>
<use x="39.208984" xlink:href="#ab"/>
<use x="100.390625" xlink:href="#ak"/>
<use x="163.769531" xlink:href="#s"/>
</g>
</g>
<g clip-path="url(#a)">
<g transform="translate(300.16 511.85) scale(.1 -.1)">
<use xlink:href="#e"/>
<use x="61.523438" xlink:href="#g"/>
</g>
</g>
<g clip-path="url(#a)">
<g transform="translate(321.73 511.85) scale(.1 -.1)">
<defs>
<path id="am" d="m48.781 52.594v-8.4062q-3.8125 2.1094-7.6406 3.1562t-7.7344 1.0469q-8.75 0-13.594-5.5469-4.8281-5.5312-4.8281-15.547t4.8281-15.562q4.8438-5.5312 13.594-5.5312 3.9062 0 7.7344 1.0469t7.6406 3.1562v-8.3125q-3.7656-1.75-7.7969-2.625-4.0156-0.89062-8.5625-0.89062-12.359 0-19.641 7.7656-7.2656 7.7656-7.2656 20.953 0 13.375 7.3438 21.031 7.3594 7.6719 20.156 7.6719 4.1406 0 8.0938-0.85938 3.9531-0.84375 7.6719-2.5469z"/>
<path id="aw" d="m48.781 52.594v-8.4062q-3.8125 2.1094-7.6406 3.1562t-7.7344 1.0469q-8.75 0-13.594-5.5469-4.8281-5.5312-4.8281-15.547t4.8281-15.562q4.8438-5.5312 13.594-5.5312 3.9062 0 7.7344 1.0469t7.6406 3.1562v-8.3125q-3.7656-1.75-7.7969-2.625-4.0156-0.89062-8.5625-0.89062-12.359 0-19.641 7.7656-7.2656 7.7656-7.2656 20.953 0 13.375 7.3438 21.031 7.3594 7.6719 20.156 7.6719 4.1406 0 8.0938-0.85938 3.9531-0.84375 7.6719-2.5469zm-12.672-52.594q2.6719-3.0312 3.9844-5.5938 1.3281-2.5625 1.3281-4.9062 0-4.3438-2.9375-6.5625-2.9219-2.2188-8.6875-2.2188-2.2344 0-4.3594 0.29688-2.125 0.28125-4.2344 0.875v6.3906q1.6719-0.82812 3.4688-1.1875 1.8125-0.375 4.1094-0.375 2.875 0 4.3438 1.1719t1.4688 3.4219q0 1.4531-1.0625 3.5781-1.0469 2.125-3.2344 5.1094z"/>
</defs>
<use xlink:href="#am"/>
<use x="54.980469" xlink:href="#ab"/>
<use x="116.162109" xlink:href="#j"/>
<use x="213.574219" xlink:href="#j"/>
<use x="310.986328" xlink:href="#e"/>
<use x="372.509766" xlink:href="#g"/>
<use x="435.888672" xlink:href="#aw"/>
<use x="490.869141" xlink:href="#f"/>
<use x="552.148438" xlink:href="#g"/>
<use x="615.527344" xlink:href="#s"/>
</g>
</g>
<g clip-path="url(#a)">
<g transform="translate(401.99 511.85) scale(.1 -.1)">
<defs>
<path id="ac" d="m45.406 46.391v29.594h8.9844v-75.984h-8.9844v8.2031q-2.8281-4.875-7.1562-7.25-4.3125-2.375-10.375-2.375-9.9062 0-16.141 7.9062-6.2188 7.9219-6.2188 20.812t6.2188 20.797q6.2344 7.9062 16.141 7.9062 6.0625 0 10.375-2.375 4.3281-2.3594 7.1562-7.2344zm-30.609-19.094q0-9.9062 4.0781-15.547t11.203-5.6406 11.219 5.6406q4.1094 5.6406 4.1094 15.547t-4.1094 15.547q-4.0938 5.6406-11.219 5.6406t-11.203-5.6406-4.0781-15.547z"/>
<path id="au" d="m17.922 72.906v-27.109h-8.2969v27.109z"/>
</defs>
<use xlink:href="#ac"/>
<use x="63.476562" xlink:href="#au"/>
</g>
</g>
<g clip-path="url(#a)">
<g transform="translate(453.19 511.85) scale(.1 -.1)">
<use xlink:href="#ak"/>
<use x="63.378906" xlink:href="#g"/>
<use x="126.757812" xlink:href="#e"/>
</g>
</g>
<g clip-path="url(#a)">
<g transform="translate(510.2 511.85) scale(.1 -.1)">
<use xlink:href="#j"/>
<use x="97.412109" xlink:href="#f"/>
<use x="158.691406" xlink:href="#i"/>
<use x="186.474609" xlink:href="#g"/>
</g>
</g>
<g clip-path="url(#a)">
<g transform="translate(570.85 511.85) scale(.1 -.1)">
<defs>
<path id="al" d="m37.109 75.984v-7.4844h-8.5938q-4.8281 0-6.7188-1.9531-1.875-1.9531-1.875-7.0312v-4.8281h14.797v-6.9844h-14.797v-47.703h-9.0312v47.703h-8.5938v6.9844h8.5938v3.8125q0 9.125 4.25 13.297 4.25 4.1875 13.469 4.1875z"/>
<path id="an" d="m48.688 27.297q0 9.9062-4.0781 15.547t-11.203 5.6406q-7.1406 0-11.219-5.6406t-4.0781-15.547 4.0781-15.547 11.219-5.6406q7.125 0 11.203 5.6406t4.0781 15.547zm-30.578 19.094q2.8438 4.875 7.1562 7.2344 4.3281 2.375 10.328 2.375 9.9688 0 16.188-7.9062 6.2344-7.9062 6.2344-20.797t-6.2344-20.812q-6.2188-7.9062-16.188-7.9062-6 0-10.328 2.375-4.3125 2.375-7.1562 7.25v-8.2031h-9.0312v75.984h9.0312z"/>
</defs>
<use xlink:href="#al"/>
<use x="35.205078" xlink:href="#u"/>
<use x="96.728516" xlink:href="#an"/>
<use x="160.205078" xlink:href="#h"/>
<use x="201.318359" xlink:href="#i"/>
<use x="229.101562" xlink:href="#l"/>
<use x="256.884766" xlink:href="#e"/>
</g>
</g>
<g clip-path="url(#a)">
<g transform="translate(644.31 511.85) scale(.1 -.1)">
<use xlink:href="#j"/>
<use x="97.412109" xlink:href="#e"/>
<use x="158.935547" xlink:href="#aa"/>
</g>
</g>
<g clip-path="url(#a)">
<g transform="translate(699.69 512.05) scale(.1 -.1)">
<use xlink:href="#v"/>
<use x="63.476562" xlink:href="#h"/>
<use x="102.339844" xlink:href="#u"/>
<use x="163.863281" xlink:href="#v"/>
<use x="227.339844" xlink:href="#f"/>
<use x="288.619141" xlink:href="#h"/>
<use x="329.732422" xlink:href="#f"/>
<use x="391.011719" xlink:href="#s"/>
<use x="430.220703" xlink:href="#i"/>
<use x="458.003906" xlink:href="#al"/>
<use x="493.208984" xlink:href="#aa"/>
</g>
</g>
<g clip-path="url(#a)">
<g transform="translate(796.81 511.85) scale(.1 -.1)">
<use xlink:href="#ac"/>
<use x="63.476562" xlink:href="#e"/>
</g>
</g>
<g clip-path="url(#a)">
<g transform="translate(866.66 512.05) scale(.1 -.1)">
<use xlink:href="#ac"/>
<use x="63.476562" xlink:href="#u"/>
<use x="125" xlink:href="#v"/>
<use x="188.476562" xlink:href="#f"/>
<use x="249.755859" xlink:href="#h"/>
<use x="290.869141" xlink:href="#s"/>
</g>
</g>
<g clip-path="url(#a)">
<g transform="translate(965.68 511.85) scale(.1 -.1)">
<defs>
<path id="d" d="m10.688 12.406h10.312v-12.406h-10.312z"/>
</defs>
<use xlink:href="#d"/>
</g>
</g>
<g clip-path="url(#a)">
<g transform="translate(45.002 416.43) scale(.1 -.1)">
<defs>
<path id="q" d="m9.8125 72.906h9.8594v-72.906h-9.8594z"/>
<path id="ae" d="m9.8125 72.906h14.703l18.594-49.609 18.703 49.609h14.703v-72.906h-9.625v64.016l-18.797-50h-9.9062l-18.797 50v-64.016h-9.5781z"/>
</defs>
<use xlink:href="#q"/>
<use x="29.492188" xlink:href="#ae"/>
<use x="115.771484" xlink:href="#p"/>
<use x="176.074219" xlink:href="#w"/>
<use x="231.787109" xlink:href="#q"/>
<use x="261.279297" xlink:href="#t"/>
<use x="331.103516" xlink:href="#q"/>
<use x="360.595703" xlink:href="#k"/>
</g>
</g>
<g clip-path="url(#a)">
<g transform="translate(45.002 416.43) scale(.1 -.1)">
<use xlink:href="#q"/>
<use x="29.492188" xlink:href="#ae"/>
<use x="115.771484" xlink:href="#p"/>
<use x="176.074219" xlink:href="#w"/>
<use x="231.787109" xlink:href="#q"/>
<use x="261.279297" xlink:href="#t"/>
<use x="331.103516" xlink:href="#q"/>
<use x="360.595703" xlink:href="#k"/>
</g>
</g>
<g clip-path="url(#a)">
<g transform="translate(205.71 27.002) scale(.1 -.1)">
<defs>
<path id="c" d="m12.406 8.2969h16.109v55.625l-17.531-3.5156v8.9844l17.438 3.5156h9.8594v-64.609h16.109v-8.2969h-41.984z"/>
</defs>
<use xlink:href="#c"/>
<use x="63.623047" xlink:href="#d"/>
<use x="95.410156" xlink:href="#c"/>
</g>
</g>
<g clip-path="url(#a)">
<g transform="translate(110.2 222.42) scale(.1 -.1)">
<defs>
<path id="m" d="m19.188 8.2969h34.422v-8.2969h-46.281v8.2969q5.6094 5.8125 15.297 15.594 9.7031 9.7969 12.188 12.641 4.7344 5.3125 6.6094 9 1.8906 3.6875 1.8906 7.25 0 5.8125-4.0781 9.4688-4.0781 3.6719-10.625 3.6719-4.6406 0-9.7969-1.6094-5.1406-1.6094-11-4.8906v9.9688q5.9531 2.3906 11.125 3.6094 5.1875 1.2188 9.4844 1.2188 11.328 0 18.062-5.6719 6.7344-5.6562 6.7344-15.125 0-4.5-1.6875-8.5312-1.6719-4.0156-6.125-9.4844-1.2188-1.4219-7.7656-8.1875-6.5312-6.7656-18.453-18.922z"/>
</defs>
<use xlink:href="#c"/>
<use x="63.623047" xlink:href="#d"/>
<use x="95.410156" xlink:href="#m"/>
</g>
</g>
<g clip-path="url(#a)">
<g transform="translate(254.39 416.43) scale(.1 -.1)">
<defs>
<path id="r" d="m40.578 39.312q7.0781-1.5156 11.047-6.3125 3.9844-4.7812 3.9844-11.812 0-10.781-7.4219-16.703-7.4219-5.9062-21.094-5.9062-4.5781 0-9.4375 0.90625t-10.031 2.7188v9.5156q4.0938-2.3906 8.9688-3.6094 4.8906-1.2188 10.219-1.2188 9.2656 0 14.125 3.6562t4.8594 10.641q0 6.4531-4.5156 10.078-4.5156 3.6406-12.562 3.6406h-8.5v8.1094h8.8906q7.2656 0 11.125 2.9062t3.8594 8.375q0 5.6094-3.9844 8.6094-3.9688 3.0156-11.391 3.0156-4.0625 0-8.7031-0.89062-4.6406-0.875-10.203-2.7188v8.7812q5.625 1.5625 10.531 2.3438t9.25 0.78125q11.234 0 17.766-5.1094 6.5469-5.0938 6.5469-13.781 0-6.0625-3.4688-10.234t-9.8594-5.7812z"/>
</defs>
<use xlink:href="#c"/>
<use x="63.623047" xlink:href="#d"/>
<use x="95.410156" xlink:href="#r"/>
</g>
</g>
<g clip-path="url(#a)">
<g transform="translate(411.49 124.84) scale(.1 -.1)">
<defs>
<path id="y" d="m37.797 64.312-24.906-38.922h24.906zm-2.5938 8.5938h12.406v-47.516h10.406v-8.2031h-10.406v-17.188h-9.8125v17.188h-32.906v9.5156z"/>
</defs>
<use xlink:href="#c"/>
<use x="63.623047" xlink:href="#d"/>
<use x="95.410156" xlink:href="#y"/>
</g>
</g>
<g clip-path="url(#a)">
<g transform="translate(298.45 416.43) scale(.1 -.1)">
<defs>
<path id="ai" d="m8.2031 72.906h46.875v-4.2031l-26.469-68.703h-10.297l24.906 64.594h-35.016z"/>
</defs>
<use xlink:href="#c"/>
<use x="63.623047" xlink:href="#d"/>
<use x="95.410156" xlink:href="#ai"/>
</g>
</g>
<g clip-path="url(#a)">
<g transform="translate(346.51 416.43) scale(.1 -.1)">
<defs>
<path id="ah" d="m31.781 34.625q-7.0312 0-11.062-3.7656-4.0156-3.7656-4.0156-10.344 0-6.5938 4.0156-10.359 4.0312-3.7656 11.062-3.7656t11.078 3.7812q4.0625 3.7969 4.0625 10.344 0 6.5781-4.0312 10.344-4.0156 3.7656-11.109 3.7656zm-9.8594 4.1875q-6.3438 1.5625-9.8906 5.9062-3.5312 4.3594-3.5312 10.609 0 8.7344 6.2188 13.812 6.2344 5.0781 17.062 5.0781 10.891 0 17.094-5.0781t6.2031-13.812q0-6.25-3.5469-10.609-3.5312-4.3438-9.8281-5.9062 7.125-1.6562 11.094-6.5 3.9844-4.8281 3.9844-11.797 0-10.609-6.4688-16.281-6.4688-5.6562-18.531-5.6562-12.047 0-18.531 5.6562-6.4688 5.6719-6.4688 16.281 0 6.9688 4 11.797 4.0156 4.8438 11.141 6.5zm-3.6094 15.578q0-5.6562 3.5312-8.8281 3.5469-3.1719 9.9375-3.1719 6.3594 0 9.9375 3.1719 3.5938 3.1719 3.5938 8.8281 0 5.6719-3.5938 8.8438-3.5781 3.1719-9.9375 3.1719-6.3906 0-9.9375-3.1719-3.5312-3.1719-3.5312-8.8438z"/>
</defs>
<use xlink:href="#c"/>
<use x="63.623047" xlink:href="#d"/>
<use x="95.410156" xlink:href="#ah"/>
</g>
</g>
<g clip-path="url(#a)">
<g transform="translate(486.7 319.68) scale(.1 -.1)">
<defs>
<path id="x" d="m10.984 1.5156v8.9844q3.7188-1.7656 7.5156-2.6875 3.8125-0.92188 7.4844-0.92188 9.7656 0 14.906 6.5625 5.1562 6.5625 5.8906 19.953-2.8281-4.2031-7.1875-6.4531-4.3438-2.25-9.6094-2.25-10.938 0-17.312 6.6094-6.375 6.625-6.375 18.109 0 11.219 6.6406 18 6.6406 6.7969 17.672 6.7969 12.656 0 19.312-9.7031 6.6719-9.6875 6.6719-28.141 0-17.234-8.1875-27.516-8.1719-10.281-21.984-10.281-3.7188 0-7.5312 0.73438-3.7969 0.73438-7.9062 2.2031zm19.625 30.906q6.6406 0 10.516 4.5312 3.8906 4.5469 3.8906 12.469 0 7.8594-3.8906 12.422-3.875 4.5625-10.516 4.5625t-10.516-4.5625-3.875-12.422q0-7.9219 3.875-12.469 3.875-4.5312 10.516-4.5312z"/>
</defs>
<use xlink:href="#c"/>
<use x="63.623047" xlink:href="#d"/>
<use x="95.410156" xlink:href="#x"/>
</g>
</g>
<g clip-path="url(#a)">
<g transform="translate(744.31 222.42) scale(.1 -.1)">
<defs>
<path id="z" d="m31.781 66.406q-7.6094 0-11.453-7.5-3.8281-7.4844-3.8281-22.531 0-14.984 3.8281-22.484 3.8438-7.5 11.453-7.5 7.6719 0 11.5 7.5 3.8438 7.5 3.8438 22.484 0 15.047-3.8438 22.531-3.8281 7.5-11.5 7.5zm0 7.8125q12.266 0 18.734-9.7031 6.4688-9.6875 6.4688-28.141 0-18.406-6.4688-28.109-6.4688-9.6875-18.734-9.6875-12.25 0-18.719 9.6875-6.4688 9.7031-6.4688 28.109 0 18.453 6.4688 28.141 6.4688 9.7031 18.719 9.7031z"/>
</defs>
<use xlink:href="#c"/>
<use x="63.623047" xlink:href="#d"/>
<use x="95.410156" xlink:href="#c"/>
<use x="159.033203" xlink:href="#z"/>
</g>
</g>
<g clip-path="url(#a)">
<g transform="translate(643.73 416.43) scale(.1 -.1)">
<use xlink:href="#c"/>
<use x="63.623047" xlink:href="#d"/>
<use x="95.410156" xlink:href="#c"/>
<use x="159.033203" xlink:href="#c"/>
</g>
</g>
<g clip-path="url(#a)">
<g transform="translate(715.82 416.43) scale(.1 -.1)">
<use xlink:href="#c"/>
<use x="63.623047" xlink:href="#d"/>
<use x="95.410156" xlink:href="#c"/>
<use x="159.033203" xlink:href="#m"/>
</g>
</g>
<g clip-path="url(#a)">
<g transform="translate(873.36 319.68) scale(.1 -.1)">
<use xlink:href="#c"/>
<use x="63.623047" xlink:href="#d"/>
<use x="95.410156" xlink:href="#c"/>
<use x="159.033203" xlink:href="#r"/>
</g>
</g>
<g clip-path="url(#a)">
<g transform="translate(791.92 416.43) scale(.1 -.1)">
<use xlink:href="#c"/>
<use x="63.623047" xlink:href="#d"/>
<use x="95.410156" xlink:href="#c"/>
<use x="159.033203" xlink:href="#y"/>
</g>
</g>
<g clip-path="url(#a)">
<g transform="translate(872.03 416.43) scale(.1 -.1)">
<defs>
<path id="aj" d="m10.797 72.906h38.719v-8.3125h-29.688v-17.859q2.1406 0.73438 4.2812 1.0938 2.1562 0.35938 4.3125 0.35938 12.203 0 19.328-6.6875 7.1406-6.6875 7.1406-18.109 0-11.766-7.3281-18.297-7.3281-6.5156-20.656-6.5156-4.5938 0-9.3594 0.78125-4.75 0.78125-9.8281 2.3438v9.9219q4.3906-2.3906 9.0781-3.5625t9.9062-1.1719q8.4531 0 13.375 4.4375 4.9375 4.4375 4.9375 12.062 0 7.6094-4.9375 12.047-4.9219 4.4531-13.375 4.4531-3.9531 0-7.8906-0.875-3.9219-0.875-8.0156-2.7344z"/>
</defs>
<use xlink:href="#c"/>
<use x="63.623047" xlink:href="#d"/>
<use x="95.410156" xlink:href="#c"/>
<use x="159.033203" xlink:href="#aj"/>
</g>
</g>
<g clip-path="url(#a)">
<g transform="translate(395.4 416.43) scale(.1 -.1)">
<use xlink:href="#c"/>
<use x="63.623047" xlink:href="#d"/>
<use x="95.410156" xlink:href="#c"/>
<use x="159.033203" xlink:href="#ai"/>
</g>
</g>
<g clip-path="url(#a)">
<g transform="translate(451.48 416.43) scale(.1 -.1)">
<use xlink:href="#c"/>
<use x="63.623047" xlink:href="#d"/>
<use x="95.410156" xlink:href="#c"/>
<use x="159.033203" xlink:href="#ah"/>
</g>
</g>
<g clip-path="url(#a)">
<g transform="translate(511.55 416.43) scale(.1 -.1)">
<use xlink:href="#c"/>
<use x="63.623047" xlink:href="#d"/>
<use x="95.410156" xlink:href="#c"/>
<use x="159.033203" xlink:href="#x"/>
</g>
</g>
<g clip-path="url(#a)">
<g transform="translate(575.64 416.43) scale(.1 -.1)">
<use xlink:href="#c"/>
<use x="63.623047" xlink:href="#d"/>
<use x="95.410156" xlink:href="#m"/>
<use x="159.033203" xlink:href="#z"/>
</g>
</g>
<g clip-path="url(#a)">
<g transform="translate(46.944 319.68) scale(.1 -.1)">
<use xlink:href="#c"/>
<use x="63.623047" xlink:href="#d"/>
<use x="95.410156" xlink:href="#m"/>
<use x="159.033203" xlink:href="#c"/>
</g>
</g>
<g clip-path="url(#a)">
<g transform="translate(115.03 416.43) scale(.1 -.1)">
<use xlink:href="#c"/>
<use x="63.623047" xlink:href="#d"/>
<use x="95.410156" xlink:href="#m"/>
<use x="159.033203" xlink:href="#m"/>
</g>
</g>
<g clip-path="url(#a)">
<g transform="translate(175.11 416.43) scale(.1 -.1)">
<use xlink:href="#c"/>
<use x="63.623047" xlink:href="#d"/>
<use x="95.410156" xlink:href="#m"/>
<use x="159.033203" xlink:href="#r"/>
</g>
</g>
<g clip-path="url(#a)">
<g transform="translate(34.928 416.43) scale(.1 -.1)">
<use xlink:href="#c"/>
<use x="63.623047" xlink:href="#d"/>
<use x="95.410156" xlink:href="#m"/>
<use x="159.033203" xlink:href="#y"/>
</g>
</g>
<g clip-path="url(#a)">
<g transform="translate(70.975 416.43) scale(.1 -.1)">
<use xlink:href="#c"/>
<use x="63.623047" xlink:href="#d"/>
<use x="95.410156" xlink:href="#m"/>
<use x="159.033203" xlink:href="#aj"/>
</g>
</g>
<g clip-path="url(#a)">
<g transform="translate(91.002 416.43) scale(.1 -.1)">
<defs>
<path id="ar" d="m33.016 40.375q-6.6406 0-10.531-4.5469-3.875-4.5312-3.875-12.438 0-7.8594 3.875-12.438 3.8906-4.5625 10.531-4.5625t10.516 4.5625q3.875 4.5781 3.875 12.438 0 7.9062-3.875 12.438-3.875 4.5469-10.516 4.5469zm19.578 30.922v-8.9844q-3.7188 1.75-7.5 2.6719-3.7812 0.9375-7.5 0.9375-9.7656 0-14.922-6.5938-5.1406-6.5938-5.875-19.922 2.875 4.25 7.2188 6.5156 4.3594 2.2656 9.5781 2.2656 10.984 0 17.359-6.6719 6.375-6.6562 6.375-18.125 0-11.234-6.6406-18.031-6.6406-6.7812-17.672-6.7812-12.656 0-19.344 9.6875-6.6875 9.7031-6.6875 28.109 0 17.281 8.2031 27.562t22.016 10.281q3.7188 0 7.5-0.73438t7.8906-2.1875z"/>
</defs>
<use xlink:href="#c"/>
<use x="63.623047" xlink:href="#d"/>
<use x="95.410156" xlink:href="#m"/>
<use x="159.033203" xlink:href="#ar"/>
</g>
</g>
<g clip-path="url(#a)">
<g transform="translate(46.944 416.43) scale(.1 -.1)">
<use xlink:href="#c"/>
<use x="63.623047" xlink:href="#d"/>
<use x="95.410156" xlink:href="#m"/>
<use x="159.033203" xlink:href="#x"/>
</g>
</g>
<g clip-path="url(#a)">
<g transform="translate(143.07 416.43) scale(.1 -.1)">
<use xlink:href="#c"/>
<use x="63.623047" xlink:href="#d"/>
<use x="95.410156" xlink:href="#r"/>
<use x="159.033203" xlink:href="#z"/>
</g>
</g>
<g clip-path="url(#a)">
<g transform="translate(211.16 416.43) scale(.1 -.1)">
<use xlink:href="#c"/>
<use x="63.623047" xlink:href="#d"/>
<use x="95.410156" xlink:href="#r"/>
<use x="159.033203" xlink:href="#c"/>
</g>
</g>
<g clip-path="url(#a)">
<g transform="translate(956.14 416.43) scale(.1 -.1)">
<use xlink:href="#c"/>
<use x="63.623047" xlink:href="#d"/>
<use x="95.410156" xlink:href="#r"/>
<use x="159.033203" xlink:href="#m"/>
</g>
</g>
<defs>
<clipPath id="a">
<rect width="1013.3" height="533.33"/>
</clipPath>
</defs>
</svg>
