<?xml version="1.0" encoding="UTF-8"?>
<!DOCTYPE svg  PUBLIC '-//W3C//DTD SVG 1.1//EN'  'http://www.w3.org/Graphics/SVG/1.1/DTD/svg11.dtd'>
<svg width="1925.3pt" height="1013.3pt" version="1.1" viewBox="0 0 1925.3 1013.3" xmlns="http://www.w3.org/2000/svg" xmlns:xlink="http://www.w3.org/1999/xlink">
<metadata>
<rdf:RDF xmlns:cc="http://creativecommons.org/ns#" xmlns:dc="http://purl.org/dc/elements/1.1/" xmlns:rdf="http://www.w3.org/1999/02/22-rdf-syntax-ns#">
<cc:Work>
<dc:type rdf:resource="http://purl.org/dc/dcmitype/StillImage"/>
<dc:date>2021-03-17T07:11:53.432062</dc:date>
<dc:format>image/svg+xml</dc:format>
<dc:creator>
<cc:Agent>
<dc:title>Matplotlib v3.3.3, https://matplotlib.org/</dc:title>
</cc:Agent>
</dc:creator>
</cc:Work>
</rdf:RDF>
</metadata>
<defs>
<style type="text/css">*{stroke-linecap:butt;stroke-linejoin:round;}</style>
</defs>
<path d="m0 1013.3h1925.3v-1013.3h-1925.3z" fill="#fff"/>
<g fill="none" stroke="#000">
<path d="m363.46 46.061-178.42 348.15" clip-path="url(#a)"/>
<path d="m363.46 46.061-46.173 808.43" clip-path="url(#a)"/>
<path d="m363.46 46.061 43.933 694.08" clip-path="url(#a)"/>
<path d="m363.46 46.061 145.3 808.43" clip-path="url(#a)"/>
<path d="m363.46 46.061 113.07 116.23" clip-path="url(#a)"/>
<path d="m363.46 46.061-77.71 808.43" clip-path="url(#a)"/>
<path d="m185.04 394.21-74.619 115.63" clip-path="url(#a)"/>
<path d="m185.04 394.21-2.9097 460.28" clip-path="url(#a)"/>
<path d="m185.04 394.21 19.617 460.28" clip-path="url(#a)"/>
<path d="m185.04 394.21 57.912 345.93" clip-path="url(#a)"/>
<path d="m317.28 854.49v112.78" clip-path="url(#a)"/>
<path d="m407.39 740.14-56.316 114.35" clip-path="url(#a)"/>
<path d="m407.39 740.14-20.274 114.35" clip-path="url(#a)"/>
<path d="m407.39 740.14 18.021 114.35" clip-path="url(#a)"/>
<path d="m407.39 740.14 58.569 114.35" clip-path="url(#a)"/>
<path d="m508.76 854.49v112.78" clip-path="url(#a)"/>
<path d="m476.53 162.29 187.13 116.06" clip-path="url(#a)"/>
<path d="m476.53 162.29-125.45 692.2" clip-path="url(#a)" stroke-dasharray="3.7,1.6"/>
<path d="m476.53 162.29-51.115 692.2" clip-path="url(#a)" stroke-dasharray="3.7,1.6"/>
<path d="m476.53 162.29-10.567 692.2" clip-path="url(#a)" stroke-dasharray="3.7,1.6"/>
<path d="m663.66 278.35-109.85 576.14" clip-path="url(#a)"/>
<path d="m663.66 278.35-62.542 576.14" clip-path="url(#a)"/>
<path d="m663.66 278.35-12.984 576.14" clip-path="url(#a)"/>
<path d="m663.66 278.35 185.37 115.87" clip-path="url(#a)"/>
<path d="m553.81 854.49v112.78" clip-path="url(#a)"/>
<path d="m601.12 854.49v112.78" clip-path="url(#a)"/>
<path d="m650.68 854.49v112.78" clip-path="url(#a)"/>
<path d="m849.03 394.21-146.55 460.28" clip-path="url(#a)"/>
<path d="m849.03 394.21-92.482 460.28" clip-path="url(#a)"/>
<path d="m849.03 394.21 22.403 460.28" clip-path="url(#a)"/>
<path d="m849.03 394.21 252.79 115.63" clip-path="url(#a)"/>
<path d="m849.03 394.21-36.166 460.28" clip-path="url(#a)"/>
<path d="m702.49 854.49v112.78" clip-path="url(#a)"/>
<path d="m756.55 854.49v112.78" clip-path="url(#a)"/>
<path d="m871.43 854.49v112.78" clip-path="url(#a)"/>
<path d="m1101.8 509.85-230.39 344.64" clip-path="url(#a)" stroke-dasharray="3.7,1.6"/>
<path d="m1101.8 509.85-169.57 344.64" clip-path="url(#a)"/>
<path d="m1101.8 509.85-40.416 230.29" clip-path="url(#a)"/>
<path d="m1101.8 509.85 96.244 344.64" clip-path="url(#a)"/>
<path d="m1101.8 509.85 344.13 115.34" clip-path="url(#a)"/>
<path d="m932.26 854.49v112.78" clip-path="url(#a)"/>
<path d="m1061.4 740.14-66.078 114.35" clip-path="url(#a)"/>
<path d="m1061.4 740.14-0.75088 114.35" clip-path="url(#a)"/>
<path d="m1061.4 740.14 66.828 114.35" clip-path="url(#a)"/>
<path d="m1198.1 854.49v112.78" clip-path="url(#a)"/>
<path d="m1446 625.19-175.8 229.3" clip-path="url(#a)"/>
<path d="m1446 625.19-101.46 229.3" clip-path="url(#a)"/>
<path d="m1446 625.19 14.548 114.95" clip-path="url(#a)"/>
<path d="m1446 625.19 262.71 114.95" clip-path="url(#a)"/>
<path d="m1270.2 854.49v112.78" clip-path="url(#a)"/>
<path d="m1344.5 854.49v112.78" clip-path="url(#a)"/>
<path d="m1460.5 740.14-39.421 114.35" clip-path="url(#a)"/>
<path d="m1460.5 740.14 39.421 114.35" clip-path="url(#a)"/>
<path d="m1708.7 740.14-127.65 114.35" clip-path="url(#a)"/>
<path d="m1708.7 740.14-1.5018 114.35" clip-path="url(#a)"/>
<path d="m1708.7 740.14 129.15 114.35" clip-path="url(#a)"/>
<path d="m1581 854.49v112.78" clip-path="url(#a)"/>
<path d="m1707.2 854.49-42.8 112.78" clip-path="url(#a)"/>
<path d="m1707.2 854.49 42.8 112.78" clip-path="url(#a)"/>
<path d="m1421.1 854.49v112.78" clip-path="url(#a)"/>
<path d="m1499.9 854.49v112.78" clip-path="url(#a)"/>
<path d="m995.33 854.49v112.78" clip-path="url(#a)"/>
<path d="m1060.7 854.49v112.78" clip-path="url(#a)"/>
<path d="m1128.2 854.49v112.78" clip-path="url(#a)"/>
<path d="m351.07 854.49v112.78" clip-path="url(#a)"/>
<path d="m387.12 854.49v112.78" clip-path="url(#a)"/>
<path d="m425.41 854.49v112.78" clip-path="url(#a)"/>
<path d="m465.96 854.49v112.78" clip-path="url(#a)"/>
<path d="m110.42 509.85-19.523 115.34" clip-path="url(#a)"/>
<path d="m110.42 509.85 19.523 115.34" clip-path="url(#a)"/>
<path d="m182.13 854.49v112.78" clip-path="url(#a)"/>
<path d="m204.65 854.49v112.78" clip-path="url(#a)"/>
<path d="m242.95 740.14-13.516 114.35" clip-path="url(#a)"/>
<path d="m242.95 740.14 13.516 114.35" clip-path="url(#a)"/>
<path d="m229.43 854.49v112.78" clip-path="url(#a)"/>
<path d="m256.46 854.49v112.78" clip-path="url(#a)"/>
<path d="m90.894 625.19v114.95" clip-path="url(#a)"/>
<path d="m129.94 625.19-21.025 114.95" clip-path="url(#a)"/>
<path d="m129.94 625.19-1.8772 229.3" clip-path="url(#a)"/>
<path d="m129.94 625.19 22.902 114.95" clip-path="url(#a)"/>
<path d="m108.92 740.14-5.6316 114.35" clip-path="url(#a)"/>
<path d="m108.92 740.14 5.6316 114.35" clip-path="url(#a)"/>
<path d="m128.06 854.49v112.78" clip-path="url(#a)"/>
<path d="m152.84 740.14-9.0106 114.35" clip-path="url(#a)"/>
<path d="m152.84 740.14 9.0106 114.35" clip-path="url(#a)"/>
<path d="m143.83 854.49v112.78" clip-path="url(#a)"/>
<path d="m161.85 854.49v112.78" clip-path="url(#a)"/>
<path d="m103.28 854.49v112.78" clip-path="url(#a)"/>
<path d="m114.55 854.49v112.78" clip-path="url(#a)"/>
<path d="m90.894 740.14-3.379 114.35" clip-path="url(#a)"/>
<path d="m90.894 740.14 3.379 114.35" clip-path="url(#a)"/>
<path d="m87.515 854.49v112.78" clip-path="url(#a)"/>
<path d="m94.273 854.49v112.78" clip-path="url(#a)"/>
<path d="m285.75 854.49v112.78" clip-path="url(#a)"/>
<path d="m812.87 854.49v112.78" clip-path="url(#a)"/>
<path d="m1837.8 854.49v112.78" clip-path="url(#a)"/>
</g>
<path d="m278.46 225.67 2.7439-5.3541q1.0946-2.1359-1.0413-3.2304l-6.8904-3.5312q-2.1359-1.0946-3.2304 1.0413l-2.7439 5.3541q-1.0946 2.1359 1.0413 3.2304l6.8904 3.5312q2.1359 1.0946 3.2304-1.0413z" clip-path="url(#a)" fill="#fff" stroke="#fff"/>
<g clip-path="url(#a)">
<g transform="translate(274.84 223.82) rotate(-62.866) scale(.08 -.08)">
<defs>
<path id="ai" d="m9.8125 72.906h9.8594v-29.891h35.844v29.891h9.8594v-72.906h-9.8594v34.719h-35.844v-34.719h-9.8594z"/>
</defs>
<use xlink:href="#ai"/>
</g>
</g>
<path d="m346.5 452.86 0.25417-4.4502q0.13685-2.3961-2.2592-2.5329l-7.7299-0.44148q-2.3961-0.13685-2.5329 2.2592l-0.25417 4.4502q-0.13685 2.3961 2.2592 2.5329l7.7299 0.44149q2.3961 0.13685 2.5329-2.2592z" clip-path="url(#a)" fill="#fff" stroke="#fff"/>
<g clip-path="url(#a)">
<g transform="translate(342.45 452.63) rotate(-86.731) scale(.08 -.08)">
<defs>
<path id="ah" d="m9.8125 72.906h9.8594v-64.609h35.5v-8.2969h-45.359z"/>
</defs>
<use xlink:href="#ah"/>
</g>
</g>
<path d="m378.98 390.49 0.38005 6.0042q0.15161 2.3952 2.5468 2.2436l7.727-0.4891q2.3952-0.15161 2.2436-2.5468l-0.38005-6.0042q-0.15161-2.3952-2.5468-2.2436l-7.727 0.4891q-2.3952 0.15161-2.2436 2.5468z" clip-path="url(#a)" fill="#fff" stroke="#fff"/>
<g clip-path="url(#a)">
<g transform="translate(383.03 390.24) rotate(86.378) scale(.08 -.08)">
<use xlink:href="#ai"/>
</g>
</g>
<path d="m429.54 449.19 0.78853 4.3872q0.42456 2.3622 2.7867 1.9376l7.6204-1.3696q2.3621-0.42456 1.9376-2.7867l-0.78853-4.3872q-0.42456-2.3622-2.7867-1.9376l-7.6204 1.3696q-2.3621 0.42456-1.9376 2.7867z" clip-path="url(#a)" fill="#fff" stroke="#fff"/>
<g clip-path="url(#a)">
<g transform="translate(433.54 448.47) rotate(79.811) scale(.08 -.08)">
<use xlink:href="#ah"/>
</g>
</g>
<path d="m413.4 106.39 4.1951 4.3123q1.6735 1.7203 3.3938 0.046747l5.5497-5.3989q1.7203-1.6735 0.046747-3.3938l-4.1951-4.3123q-1.6735-1.7203-3.3938-0.046747l-5.5497 5.3989q-1.7203 1.6735-0.046747 3.3938z" clip-path="url(#a)" fill="#fff" stroke="#fff"/>
<g clip-path="url(#a)">
<g transform="translate(416.31 103.56) rotate(45.789) scale(.08 -.08)">
<use xlink:href="#ai"/>
</g>
</g>
<path d="m330.56 453.79 0.56022-5.8281q0.22964-2.389-2.1593-2.6186l-7.707-0.74083q-2.389-0.22964-2.6186 2.1594l-0.56022 5.8281q-0.22964 2.389 2.1593 2.6186l7.707 0.74083q2.389 0.22964 2.6186-2.1593z" clip-path="url(#a)" fill="#fff" stroke="#fff"/>
<g clip-path="url(#a)">
<g transform="translate(326.52 453.4) rotate(-84.509) scale(.08 -.08)">
<defs>
<path id="ag" d="m8.6875 72.906h9.9219v-44.297q0-11.719 4.2344-16.875 4.25-5.1406 13.781-5.1406 9.4688 0 13.719 5.1406 4.25 5.1562 4.25 16.875v44.297h9.9062v-45.516q0-14.25-7.0625-21.531-7.0469-7.2812-20.812-7.2812-13.828 0-20.891 7.2812-7.0469 7.2812-7.0469 21.531z"/>
</defs>
<use xlink:href="#ag"/>
</g>
</g>
<path d="m151.51 457.73 2.9673-4.5982q1.3013-2.0166-0.71527-3.3179l-6.5056-4.1981q-2.0166-1.3013-3.3179 0.71527l-2.9673 4.5982q-1.3013 2.0166 0.71527 3.3179l6.5056 4.1981q2.0166 1.3013 3.3179-0.71527z" clip-path="url(#a)" fill="#fff" stroke="#fff"/>
<g clip-path="url(#a)">
<g transform="translate(148.1 455.53) rotate(-57.166) scale(.08 -.08)">
<defs>
<path id="s" d="m34.188 63.188-13.391-36.281h26.812zm-5.5781 9.7188h11.188l27.781-72.906h-10.25l-6.6406 18.703h-32.859l-6.6406-18.703h-10.406z"/>
</defs>
<use xlink:href="#s"/>
</g>
</g>
<path d="m189.84 626.8 0.030493-4.8237q0.015171-2.4-2.3848-2.4151l-7.7423-0.048944q-2.4-0.015171-2.4151 2.3848l-0.030493 4.8237q-0.015171 2.4 2.3848 2.4151l7.7423 0.048944q2.4 0.015171 2.4151-2.3848z" clip-path="url(#a)" fill="#fff" stroke="#fff"/>
<g clip-path="url(#a)">
<g transform="translate(185.77 626.78) rotate(-89.638) scale(.08 -.08)">
<defs>
<path id="aa" d="m19.672 64.797v-27.391h12.406q6.8906 0 10.641 3.5625 3.7656 3.5625 3.7656 10.156 0 6.5469-3.7656 10.109-3.75 3.5625-10.641 3.5625zm-9.8594 8.1094h22.266q12.266 0 18.531-5.5469 6.2812-5.5469 6.2812-16.234 0-10.797-6.2812-16.312-6.2656-5.5156-18.531-5.5156h-12.406v-29.297h-9.8594z"/>
</defs>
<use xlink:href="#aa"/>
</g>
</g>
<path d="m188.47 622.18 0.20806 4.8818q0.10219 2.3978 2.5 2.2956l7.7355-0.32968q2.3978-0.10219 2.2956-2.5l-0.20806-4.8818q-0.1022-2.3978-2.5-2.2956l-7.7355 0.32968q-2.3978 0.10219-2.2956 2.5z" clip-path="url(#a)" fill="#fff" stroke="#fff"/>
<g clip-path="url(#a)">
<g transform="translate(192.53 622.01) rotate(87.56) scale(.08 -.08)">
<defs>
<path id="k" d="m-0.29688 72.906h61.672v-8.3125h-25.875v-64.594h-9.9062v64.594h-25.891z"/>
</defs>
<use xlink:href="#k"/>
</g>
</g>
<path d="m207.35 565.51 0.90358 5.3974q0.39627 2.3671 2.7633 1.9708l7.6362-1.2784q2.3671-0.39627 1.9708-2.7633l-0.90358-5.3974q-0.39627-2.3671-2.7633-1.9708l-7.6362 1.2784q-2.3671 0.39627-1.9708 2.7633z" clip-path="url(#a)" fill="#fff" stroke="#fff"/>
<g clip-path="url(#a)">
<g transform="translate(211.36 564.84) rotate(80.496) scale(.08 -.08)">
<use xlink:href="#s"/>
</g>
</g>
<path d="m311.01 893.98v33.808q0 2.4 2.4 2.4h7.7425q2.4 0 2.4-2.4v-33.808q0-2.4-2.4-2.4h-7.7425q-2.4 0-2.4 2.4z" clip-path="url(#a)" fill="#fff" stroke="#fff"/>
<g clip-path="url(#a)">
<g transform="translate(315.08 893.98) rotate(90) scale(.08 -.08)">
<defs>
<path id="d" d="m56.203 29.594v-4.3906h-41.312q0.59375-9.2812 5.5938-14.141t13.938-4.8594q5.1719 0 10.031 1.2656t9.6562 3.8125v-8.5q-4.8438-2.0469-9.9219-3.125t-10.297-1.0781q-13.094 0-20.734 7.6094-7.6406 7.625-7.6406 20.625 0 13.422 7.25 21.297 7.25 7.8906 19.562 7.8906 11.031 0 17.453-7.1094 6.4219-7.0938 6.4219-19.297zm-8.9844 2.6406q-0.09375 7.3594-4.125 11.75-4.0312 4.4062-10.672 4.4062-7.5156 0-12.031-4.25t-5.2031-11.969z"/>
<path id="g" d="m41.109 46.297q-1.5156 0.875-3.2969 1.2812-1.7812 0.42188-3.9219 0.42188-7.625 0-11.703-4.9531t-4.0781-14.234v-28.812h-9.0312v54.688h9.0312v-8.5q2.8438 4.9844 7.375 7.3906 4.5469 2.4219 11.047 2.4219 0.92188 0 2.0469-0.125 1.125-0.10938 2.4844-0.35938z"/>
<path id="l" d="m52 44.188q3.375 6.0625 8.0625 8.9375t11.031 2.875q8.5469 0 13.188-5.9844 4.6406-5.9688 4.6406-17v-33.016h-9.0312v32.719q0 7.8594-2.7969 11.656-2.7812 3.8125-8.4844 3.8125-6.9844 0-11.047-4.6406-4.0469-4.625-4.0469-12.641v-30.906h-9.0312v32.719q0 7.9062-2.7812 11.688t-8.5938 3.7812q-6.8906 0-10.953-4.6562-4.0469-4.6562-4.0469-12.625v-30.906h-9.0312v54.688h9.0312v-8.5q3.0781 5.0312 7.375 7.4219t10.203 2.3906q5.9688 0 10.141-3.0312 4.1719-3.0156 6.1719-8.7812z"/>
<path id="j" d="m9.4219 54.688h8.9844v-54.688h-8.9844zm0 21.297h8.9844v-11.391h-8.9844z"/>
<path id="i" d="m54.891 33.016v-33.016h-8.9844v32.719q0 7.7656-3.0312 11.609-3.0312 3.8594-9.0781 3.8594-7.2812 0-11.484-4.6406-4.2031-4.625-4.2031-12.641v-30.906h-9.0312v54.688h9.0312v-8.5q3.2344 4.9375 7.5938 7.375 4.375 2.4375 10.094 2.4375 9.4219 0 14.25-5.8281 4.8438-5.8281 4.8438-17.156z"/>
<path id="f" d="m34.281 27.484q-10.891 0-15.094-2.4844t-4.2031-8.5q0-4.7812 3.1562-7.5938 3.1562-2.7969 8.5625-2.7969 7.4844 0 12 5.2969t4.5156 14.078v2zm17.922 3.7188v-31.203h-8.9844v8.2969q-3.0781-4.9688-7.6719-7.3438t-11.234-2.375q-8.3906 0-13.359 4.7188-4.9531 4.7188-4.9531 12.625 0 9.2188 6.1719 13.906 6.1875 4.6875 18.438 4.6875h12.609v0.89062q0 6.2031-4.0781 9.5938t-11.453 3.3906q-4.6875 0-9.1406-1.125-4.4375-1.125-8.5312-3.375v8.3125q4.9219 1.9062 9.5625 2.8438 4.6406 0.95312 9.0312 0.95312 11.875 0 17.734-6.1562 5.8594-6.1406 5.8594-18.641z"/>
<path id="h" d="m9.4219 75.984h8.9844v-75.984h-8.9844z"/>
</defs>
<use xlink:href="#k"/>
<use x="44.083984" xlink:href="#d"/>
<use x="105.607422" xlink:href="#g"/>
<use x="144.970703" xlink:href="#l"/>
<use x="242.382812" xlink:href="#j"/>
<use x="270.166016" xlink:href="#i"/>
<use x="333.544922" xlink:href="#f"/>
<use x="394.824219" xlink:href="#h"/>
</g>
</g>
<path d="m383.65 802.54 2.4178-4.9094q1.0604-2.1531-1.0927-3.2134l-6.9459-3.4207q-2.1531-1.0604-3.2134 1.0927l-2.4178 4.9094q-1.0604 2.1531 1.0927 3.2134l6.9459 3.4207q2.1531 1.0604 3.2134-1.0927z" clip-path="url(#a)" fill="#fff" stroke="#fff"/>
<g clip-path="url(#a)">
<g transform="translate(380 800.75) rotate(-63.78) scale(.08 -.08)">
<use xlink:href="#s"/>
</g>
</g>
<path d="m402.89 801.44 1.0754-6.0654q0.41897-2.3631-1.9442-2.7821l-7.6236-1.3516q-2.3631-0.41897-2.7821 1.9442l-1.0754 6.0654q-0.41897 2.3631 1.9442 2.7821l7.6236 1.3516q2.3631 0.41897 2.7821-1.9442z" clip-path="url(#a)" fill="#fff" stroke="#fff"/>
<g clip-path="url(#a)">
<g transform="translate(398.89 800.73) rotate(-79.946) scale(.08 -.08)">
<defs>
<path id="av" d="m19.672 64.797v-56.688h11.922q15.094 0 22.094 6.8281 7 6.8438 7 21.594 0 14.641-7 21.453t-22.094 6.8125zm-9.8594 8.1094h20.266q21.188 0 31.094-8.8125 9.9219-8.8125 9.9219-27.562 0-18.859-9.9688-27.703-9.9531-8.8281-31.047-8.8281h-20.266z"/>
</defs>
<use xlink:href="#av"/>
</g>
</g>
<path d="m409.78 795.59 0.85193 5.4058q0.37362 2.3707 2.7444 1.9971l7.6481-1.2053q2.3707-0.37362 1.9971-2.7444l-0.85193-5.4058q-0.37362-2.3707-2.7444-1.9971l-7.6481 1.2053q-2.3707 0.37362-1.9971 2.7444z" clip-path="url(#a)" fill="#fff" stroke="#fff"/>
<g clip-path="url(#a)">
<g transform="translate(413.79 794.96) rotate(81.044) scale(.08 -.08)">
<use xlink:href="#s"/>
</g>
</g>
<path d="m429.99 798.03 2.199 4.2934q1.0941 2.1361 3.2302 1.042l6.8912-3.5296q2.1361-1.0941 1.042-3.2302l-2.199-4.2934q-1.0941-2.1361-3.2302-1.042l-6.8912 3.5296q-2.1361 1.0941-1.042 3.2302z" clip-path="url(#a)" fill="#fff" stroke="#fff"/>
<g clip-path="url(#a)">
<g transform="translate(433.61 796.18) rotate(62.879) scale(.08 -.08)">
<use xlink:href="#aa"/>
</g>
</g>
<path d="m502.49 893.98v33.808q0 2.4 2.4 2.4h7.7425q2.4 0 2.4-2.4v-33.808q0-2.4-2.4-2.4h-7.7425q-2.4 0-2.4 2.4z" clip-path="url(#a)" fill="#fff" stroke="#fff"/>
<g clip-path="url(#a)">
<g transform="translate(506.55 893.98) rotate(90) scale(.08 -.08)">
<use xlink:href="#k"/>
<use x="44.083984" xlink:href="#d"/>
<use x="105.607422" xlink:href="#g"/>
<use x="144.970703" xlink:href="#l"/>
<use x="242.382812" xlink:href="#j"/>
<use x="270.166016" xlink:href="#i"/>
<use x="333.544922" xlink:href="#f"/>
<use x="394.824219" xlink:href="#h"/>
</g>
</g>
<path d="m564.46 224.21 4.6507 2.8844q2.0396 1.265 3.3045-0.77463l4.0808-6.5798q1.265-2.0396-0.77463-3.3045l-4.6507-2.8844q-2.0396-1.265-3.3045 0.77463l-4.0808 6.5798q-1.265 2.0396 0.77463 3.3045z" clip-path="url(#a)" fill="#fff" stroke="#fff"/>
<g clip-path="url(#a)">
<g transform="translate(566.6 220.75) rotate(31.807) scale(.08 -.08)">
<use xlink:href="#s"/>
</g>
</g>
<path d="m419.48 512.2 0.97591-5.3848q0.42799-2.3615-1.9335-2.7895l-7.6184-1.3807q-2.3615-0.42799-2.7895 1.9335l-0.97591 5.3848q-0.42799 2.3615 1.9335 2.7895l7.6184 1.3807q2.3615 0.42799 2.7895-1.9335z" clip-path="url(#a)" fill="#fff" stroke="#fff"/>
<g clip-path="url(#a)">
<g transform="translate(415.48 511.48) rotate(-79.727) scale(.08 -.08)">
<use xlink:href="#s"/>
</g>
</g>
<path d="m457.02 511.58 0.40301-5.4576q0.17674-2.3935-2.2167-2.5702l-7.7215-0.57018q-2.3935-0.17674-2.5702 2.2167l-0.40301 5.4576q-0.17674 2.3935 2.2167 2.5702l7.7215 0.57018q2.3935 0.17674 2.5702-2.2167z" clip-path="url(#a)" fill="#fff" stroke="#fff"/>
<g clip-path="url(#a)">
<g transform="translate(452.97 511.28) rotate(-85.777) scale(.08 -.08)">
<use xlink:href="#s"/>
</g>
</g>
<path d="m477.48 510.9 0.073629-4.8232q0.036634-2.3997-2.3631-2.4364l-7.7416-0.11818q-2.3997-0.036633-2.4364 2.3631l-0.073629 4.8232q-0.036634 2.3997 2.3631 2.4364l7.7416 0.11818q2.3997 0.036633 2.4364-2.3631z" clip-path="url(#a)" fill="#fff" stroke="#fff"/>
<g clip-path="url(#a)">
<g transform="translate(473.41 510.83) rotate(-89.125) scale(.08 -.08)">
<use xlink:href="#aa"/>
</g>
</g>
<path d="m614.38 570.32 1.0411-5.4604q0.44949-2.3575-1.908-2.807l-7.6055-1.4501q-2.3575-0.44949-2.807 1.908l-1.0411 5.4604q-0.44949 2.3575 1.908 2.807l7.6055 1.4501q2.3575 0.44949 2.807-1.908z" clip-path="url(#a)" fill="#fff" stroke="#fff"/>
<g clip-path="url(#a)">
<g transform="translate(610.38 569.56) rotate(-79.206) scale(.08 -.08)">
<defs>
<path id="w" d="m44.391 34.188q3.1719-1.0781 6.1719-4.5938t6.0312-9.6719l10.016-19.922h-10.609l-9.3125 18.703q-3.625 7.3281-7.0156 9.7188t-9.25 2.3906h-10.75v-30.812h-9.8594v72.906h22.266q12.5 0 18.656-5.2344 6.1562-5.2188 6.1562-15.766 0-6.8906-3.2031-11.438-3.2031-4.5312-9.2969-6.2812zm-24.719 30.609v-25.875h12.406q7.125 0 10.766 3.2969t3.6406 9.6875-3.6406 9.6406-10.766 3.25z"/>
</defs>
<use xlink:href="#w"/>
</g>
</g>
<path d="m638.37 569.38 0.49656-4.5744q0.259-2.386-2.127-2.645l-7.6973-0.83556q-2.386-0.259-2.645 2.127l-0.49656 4.5744q-0.259 2.386 2.127 2.645l7.6973 0.83556q2.386 0.259 2.645-2.127z" clip-path="url(#a)" fill="#fff" stroke="#fff"/>
<g clip-path="url(#a)">
<g transform="translate(634.33 568.95) rotate(-83.805) scale(.08 -.08)">
<defs>
<path id="ab" d="m9.8125 72.906h41.891v-8.3125h-32.031v-21.484h28.906v-8.2969h-28.906v-34.812h-9.8594z"/>
</defs>
<use xlink:href="#ab"/>
</g>
</g>
<path d="m663.37 569.35 0.12586-5.5848q0.054071-2.3994-2.3453-2.4535l-7.7405-0.17444q-2.3994-0.054072-2.4535 2.3453l-0.12586 5.5848q-0.054071 2.3994 2.3453 2.4535l7.7405 0.17444q2.3994 0.054072 2.4535-2.3453z" clip-path="url(#a)" fill="#fff" stroke="#fff"/>
<g clip-path="url(#a)">
<g transform="translate(659.31 569.26) rotate(-88.709) scale(.08 -.08)">
<defs>
<path id="r" d="m64.406 67.281v-10.391q-4.9844 4.6406-10.625 6.9219-5.6406 2.2969-11.984 2.2969-12.5 0-19.141-7.6406t-6.6406-22.094q0-14.406 6.6406-22.047t19.141-7.6406q6.3438 0 11.984 2.2969t10.625 6.9375v-10.312q-5.1719-3.5156-10.969-5.2812-5.7812-1.75-12.219-1.75-16.562 0-26.094 10.125-9.5156 10.141-9.5156 27.672 0 17.578 9.5156 27.703 9.5312 10.141 26.094 10.141 6.5312 0 12.312-1.7344 5.7969-1.7344 10.875-5.2031z"/>
</defs>
<use xlink:href="#r"/>
</g>
</g>
<path d="m750.88 340.26 4.2865 2.6793q2.0352 1.2721 3.3072-0.76309l4.1037-6.5655q1.2721-2.0352-0.76309-3.3072l-4.2865-2.6793q-2.0352-1.2721-3.3072 0.76309l-4.1037 6.5655q-1.2721 2.0352 0.76309 3.3072z" clip-path="url(#a)" fill="#fff" stroke="#fff"/>
<g clip-path="url(#a)">
<g transform="translate(753.03 336.81) rotate(32.007) scale(.08 -.08)">
<defs>
<path id="y" d="m9.8125 72.906h46.094v-8.3125h-36.234v-21.578h34.719v-8.2969h-34.719v-26.422h37.109v-8.2969h-46.969z"/>
</defs>
<use xlink:href="#y"/>
</g>
</g>
<path d="m547.54 893.98v33.808q0 2.4 2.4 2.4h7.7425q2.4 0 2.4-2.4v-33.808q0-2.4-2.4-2.4h-7.7425q-2.4 0-2.4 2.4z" clip-path="url(#a)" fill="#fff" stroke="#fff"/>
<g clip-path="url(#a)">
<g transform="translate(551.6 893.98) rotate(90) scale(.08 -.08)">
<use xlink:href="#k"/>
<use x="44.083984" xlink:href="#d"/>
<use x="105.607422" xlink:href="#g"/>
<use x="144.970703" xlink:href="#l"/>
<use x="242.382812" xlink:href="#j"/>
<use x="270.166016" xlink:href="#i"/>
<use x="333.544922" xlink:href="#f"/>
<use x="394.824219" xlink:href="#h"/>
</g>
</g>
<path d="m594.85 893.98v33.808q0 2.4 2.4 2.4h7.7425q2.4 0 2.4-2.4v-33.808q0-2.4-2.4-2.4h-7.7425q-2.4 0-2.4 2.4z" clip-path="url(#a)" fill="#fff" stroke="#fff"/>
<g clip-path="url(#a)">
<g transform="translate(598.91 893.98) rotate(90) scale(.08 -.08)">
<use xlink:href="#k"/>
<use x="44.083984" xlink:href="#d"/>
<use x="105.607422" xlink:href="#g"/>
<use x="144.970703" xlink:href="#l"/>
<use x="242.382812" xlink:href="#j"/>
<use x="270.166016" xlink:href="#i"/>
<use x="333.544922" xlink:href="#f"/>
<use x="394.824219" xlink:href="#h"/>
</g>
</g>
<path d="m644.4 893.98v33.808q0 2.4 2.4 2.4h7.7425q2.4 0 2.4-2.4v-33.808q0-2.4-2.4-2.4h-7.7425q-2.4 0-2.4 2.4z" clip-path="url(#a)" fill="#fff" stroke="#fff"/>
<g clip-path="url(#a)">
<g transform="translate(648.47 893.98) rotate(90) scale(.08 -.08)">
<use xlink:href="#k"/>
<use x="44.083984" xlink:href="#d"/>
<use x="105.607422" xlink:href="#g"/>
<use x="144.970703" xlink:href="#l"/>
<use x="242.382812" xlink:href="#j"/>
<use x="270.166016" xlink:href="#i"/>
<use x="333.544922" xlink:href="#f"/>
<use x="394.824219" xlink:href="#h"/>
</g>
</g>
<path d="m780.89 628.9 1.6864-5.2968q0.72811-2.2869-1.5588-3.015l-7.3776-2.3489q-2.2869-0.72811-3.015 1.5588l-1.6864 5.2968q-0.72811 2.2869 1.5588 3.015l7.3776 2.3489q2.2869 0.72811 3.015-1.5588z" clip-path="url(#a)" fill="#fff" stroke="#fff"/>
<g clip-path="url(#a)">
<g transform="translate(777.02 627.67) rotate(-72.339) scale(.08 -.08)">
<use xlink:href="#w"/>
</g>
</g>
<path d="m808.44 628.07 0.99579-4.9559q0.47278-2.353-1.8802-2.8258l-7.5908-1.5252q-2.353-0.47278-2.8258 1.8802l-0.99579 4.9559q-0.47278 2.353 1.8802 2.8258l7.5908 1.5252q2.353 0.47278 2.8258-1.8802z" clip-path="url(#a)" fill="#fff" stroke="#fff"/>
<g clip-path="url(#a)">
<g transform="translate(804.46 627.27) rotate(-78.639) scale(.08 -.08)">
<use xlink:href="#y"/>
</g>
</g>
<path d="m853.83 621.87 0.27157 5.5796q0.11667 2.3972 2.5138 2.2805l7.7333-0.3764q2.3972-0.11667 2.2805-2.5138l-0.27157-5.5796q-0.11668-2.3972-2.5138-2.2805l-7.7333 0.3764q-2.3972 0.11668-2.2805 2.5138z" clip-path="url(#a)" fill="#fff" stroke="#fff"/>
<g clip-path="url(#a)">
<g transform="translate(857.89 621.67) rotate(87.214) scale(.08 -.08)">
<use xlink:href="#r"/>
</g>
</g>
<path d="m970.52 456.68 4.5969 2.1027q2.1825 0.99833 3.1808-1.1842l3.2207-7.0409q0.99834-2.1825-1.1842-3.1808l-4.5969-2.1027q-2.1825-0.99833-3.1808 1.1842l-3.2207 7.0409q-0.99834 2.1825 1.1842 3.1808z" clip-path="url(#a)" fill="#fff" stroke="#fff"/>
<g clip-path="url(#a)">
<g transform="translate(972.21 452.99) rotate(24.581) scale(.08 -.08)">
<use xlink:href="#y"/>
</g>
</g>
<path d="m836.97 627.76 0.45864-5.837q0.188-2.3926-2.2046-2.5806l-7.7187-0.6065q-2.3926-0.188-2.5806 2.2046l-0.45864 5.837q-0.188 2.3926 2.2046 2.5806l7.7187 0.6065q2.3926 0.188 2.5806-2.2046z" clip-path="url(#a)" fill="#fff" stroke="#fff"/>
<g clip-path="url(#a)">
<g transform="translate(832.92 627.44) rotate(-85.507) scale(.08 -.08)">
<use xlink:href="#ag"/>
</g>
</g>
<path d="m696.22 893.98v33.808q0 2.4 2.4 2.4h7.7425q2.4 0 2.4-2.4v-33.808q0-2.4-2.4-2.4h-7.7425q-2.4 0-2.4 2.4z" clip-path="url(#a)" fill="#fff" stroke="#fff"/>
<g clip-path="url(#a)">
<g transform="translate(700.28 893.98) rotate(90) scale(.08 -.08)">
<use xlink:href="#k"/>
<use x="44.083984" xlink:href="#d"/>
<use x="105.607422" xlink:href="#g"/>
<use x="144.970703" xlink:href="#l"/>
<use x="242.382812" xlink:href="#j"/>
<use x="270.166016" xlink:href="#i"/>
<use x="333.544922" xlink:href="#f"/>
<use x="394.824219" xlink:href="#h"/>
</g>
</g>
<path d="m750.28 893.98v33.808q0 2.4 2.4 2.4h7.7425q2.4 0 2.4-2.4v-33.808q0-2.4-2.4-2.4h-7.7425q-2.4 0-2.4 2.4z" clip-path="url(#a)" fill="#fff" stroke="#fff"/>
<g clip-path="url(#a)">
<g transform="translate(754.34 893.98) rotate(90) scale(.08 -.08)">
<use xlink:href="#k"/>
<use x="44.083984" xlink:href="#d"/>
<use x="105.607422" xlink:href="#g"/>
<use x="144.970703" xlink:href="#l"/>
<use x="242.382812" xlink:href="#j"/>
<use x="270.166016" xlink:href="#i"/>
<use x="333.544922" xlink:href="#f"/>
<use x="394.824219" xlink:href="#h"/>
</g>
</g>
<path d="m865.16 893.98v33.808q0 2.4 2.4 2.4h7.7425q2.4 0 2.4-2.4v-33.808q0-2.4-2.4-2.4h-7.7425q-2.4 0-2.4 2.4z" clip-path="url(#a)" fill="#fff" stroke="#fff"/>
<g clip-path="url(#a)">
<g transform="translate(869.23 893.98) rotate(90) scale(.08 -.08)">
<use xlink:href="#k"/>
<use x="44.083984" xlink:href="#d"/>
<use x="105.607422" xlink:href="#g"/>
<use x="144.970703" xlink:href="#l"/>
<use x="242.382812" xlink:href="#j"/>
<use x="270.166016" xlink:href="#i"/>
<use x="333.544922" xlink:href="#f"/>
<use x="394.824219" xlink:href="#h"/>
</g>
</g>
<path d="m990.32 687.93 3.0413-4.5496q1.3338-1.9952-0.66145-3.329l-6.4367-4.3029q-1.9952-1.3338-3.329 0.66145l-3.0413 4.5496q-1.3338 1.9952 0.66145 3.329l6.4367 4.3029q1.9952 1.3338 3.329-0.66145z" clip-path="url(#a)" fill="#fff" stroke="#fff"/>
<g clip-path="url(#a)">
<g transform="translate(986.94 685.67) rotate(-56.238) scale(.08 -.08)">
<use xlink:href="#s"/>
</g>
</g>
<path d="m1021.4 687.43 2.454-4.9877q1.0595-2.1535-1.0939-3.213l-6.9472-3.4181q-2.1535-1.0595-3.213 1.0939l-2.454 4.9877q-1.0595 2.1535 1.0939 3.213l6.9472 3.4181q2.1535 1.0595 3.213-1.0939z" clip-path="url(#a)" fill="#fff" stroke="#fff"/>
<g clip-path="url(#a)">
<g transform="translate(1017.8 685.64) rotate(-63.802) scale(.08 -.08)">
<use xlink:href="#w"/>
</g>
</g>
<path d="m1087.3 628.77 0.94596-5.3901q0.41486-2.3639-1.949-2.7787l-7.626-1.3384q-2.3639-0.41486-2.7787 1.949l-0.94596 5.3901q-0.41486 2.3639 1.949 2.7787l7.626 1.3384q2.3639 0.41486 2.7787-1.949z" clip-path="url(#a)" fill="#fff" stroke="#fff"/>
<g clip-path="url(#a)">
<g transform="translate(1083.3 628.07) rotate(-80.046) scale(.08 -.08)">
<use xlink:href="#s"/>
</g>
</g>
<path d="m1143.3 681.53 1.2974 4.646q0.64552 2.3116 2.9571 1.666l7.4572-2.0825q2.3116-0.64552 1.666-2.9571l-1.2974-4.646q-0.64552-2.3116-2.9571-1.666l-7.4572 2.0825q-2.3116 0.64552-1.666 2.9571z" clip-path="url(#a)" fill="#fff" stroke="#fff"/>
<g clip-path="url(#a)">
<g transform="translate(1147.2 680.44) rotate(74.397) scale(.08 -.08)">
<use xlink:href="#aa"/>
</g>
</g>
<path d="m1269.3 572.6 5.1888 1.7391q2.2756 0.76271 3.0383-1.5129l2.4605-7.3411q0.76271-2.2756-1.5129-3.0383l-5.1888-1.7391q-2.2756-0.76271-3.0383 1.5129l-2.4605 7.3411q-0.76271 2.2756 1.5129 3.0383z" clip-path="url(#a)" fill="#fff" stroke="#fff"/>
<g clip-path="url(#a)">
<g transform="translate(1270.6 568.74) rotate(18.53) scale(.08 -.08)">
<use xlink:href="#s"/>
</g>
</g>
<path d="m925.98 893.98v33.808q0 2.4 2.4 2.4h7.7425q2.4 0 2.4-2.4v-33.808q0-2.4-2.4-2.4h-7.7425q-2.4 0-2.4 2.4z" clip-path="url(#a)" fill="#fff" stroke="#fff"/>
<g clip-path="url(#a)">
<g transform="translate(930.05 893.98) rotate(90) scale(.08 -.08)">
<use xlink:href="#k"/>
<use x="44.083984" xlink:href="#d"/>
<use x="105.607422" xlink:href="#g"/>
<use x="144.970703" xlink:href="#l"/>
<use x="242.382812" xlink:href="#j"/>
<use x="270.166016" xlink:href="#i"/>
<use x="333.544922" xlink:href="#f"/>
<use x="394.824219" xlink:href="#h"/>
</g>
</g>
<path d="m1032.6 802.45 2.3021-3.9839q1.2008-2.078-0.87723-3.2788l-6.7038-3.8738q-2.078-1.2008-3.2788 0.87723l-2.3021 3.9839q-1.2008 2.078 0.87723 3.2788l6.7038 3.8738q2.078 1.2008 3.2788-0.87723z" clip-path="url(#a)" fill="#fff" stroke="#fff"/>
<g clip-path="url(#a)">
<g transform="translate(1029.1 800.41) rotate(-59.979) scale(.08 -.08)">
<use xlink:href="#ab"/>
</g>
</g>
<path d="m1067.3 800.51 0.041352-6.2974q0.015759-2.3999-2.3842-2.4157l-7.7423-0.05084q-2.3999-0.015759-2.4157 2.3842l-0.041352 6.2974q-0.015759 2.3999 2.3842 2.4157l7.7423 0.05084q2.3999 0.015759 2.4157-2.3842z" clip-path="url(#a)" fill="#fff" stroke="#fff"/>
<g clip-path="url(#a)">
<g transform="translate(1063.2 800.48) rotate(-89.624) scale(.08 -.08)">
<defs>
<path id="au" d="m39.406 66.219q-10.75 0-17.078-8.0156-6.3125-8-6.3125-21.828 0-13.766 6.3125-21.781 6.3281-8 17.078-8 10.734 0 17.016 8 6.2812 8.0156 6.2812 21.781 0 13.828-6.2812 21.828-6.2812 8.0156-17.016 8.0156zm13.812-64.906 13-14.203h-11.922l-10.797 11.672q-1.6094-0.09375-2.4688-0.14062-0.84375-0.0625-1.625-0.0625-15.375 0-24.594 10.281-9.2031 10.281-9.2031 27.516 0 17.281 9.2031 27.562 9.2188 10.281 24.594 10.281 15.328 0 24.5-10.281 9.1875-10.281 9.1875-27.562 0-12.688-5.1094-21.734-5.0938-9.0312-14.766-13.328z"/>
</defs>
<use xlink:href="#au"/>
</g>
</g>
<path d="m1088 798.07 2.8186 4.823q1.211 2.0721 3.2831 0.86113l6.6847-3.9066q2.0721-1.211 0.86113-3.2831l-2.8186-4.823q-1.211-2.0721-3.2831-0.86113l-6.6847 3.9066q-2.0721 1.211-0.86113 3.2831z" clip-path="url(#a)" fill="#fff" stroke="#fff"/>
<g clip-path="url(#a)">
<g transform="translate(1091.5 796.02) rotate(59.697) scale(.08 -.08)">
<use xlink:href="#r"/>
</g>
</g>
<path d="m1191.8 893.98v33.808q0 2.4 2.4 2.4h7.7425q2.4 0 2.4-2.4v-33.808q0-2.4-2.4-2.4h-7.7425q-2.4 0-2.4 2.4z" clip-path="url(#a)" fill="#fff" stroke="#fff"/>
<g clip-path="url(#a)">
<g transform="translate(1195.9 893.98) rotate(90) scale(.08 -.08)">
<use xlink:href="#k"/>
<use x="44.083984" xlink:href="#d"/>
<use x="105.607422" xlink:href="#g"/>
<use x="144.970703" xlink:href="#l"/>
<use x="242.382812" xlink:href="#j"/>
<use x="270.166016" xlink:href="#i"/>
<use x="333.544922" xlink:href="#f"/>
<use x="394.824219" xlink:href="#h"/>
</g>
</g>
<path d="m1361.6 745.48 2.7996-3.6516q1.4602-1.9046-0.4444-3.3649l-6.1445-4.7108q-1.9046-1.4602-3.3649 0.4444l-2.7996 3.6516q-1.4602 1.9046 0.4444 3.3649l6.1445 4.7108q1.9046 1.4602 3.3649-0.4444z" clip-path="url(#a)" fill="#fff" stroke="#fff"/>
<g clip-path="url(#a)">
<g transform="translate(1358.4 743.01) rotate(-52.523) scale(.08 -.08)">
<use xlink:href="#ab"/>
</g>
</g>
<path d="m1399.8 744.93 2.2604-5.1085q0.97114-2.1947-1.2236-3.1659l-7.0803-3.133q-2.1947-0.97114-3.1659 1.2236l-2.2604 5.1085q-0.97114 2.1947 1.2236 3.1659l7.0803 3.133q2.1947 0.97114 3.1659-1.2236z" clip-path="url(#a)" fill="#fff" stroke="#fff"/>
<g clip-path="url(#a)">
<g transform="translate(1396.1 743.29) rotate(-66.131) scale(.08 -.08)">
<use xlink:href="#r"/>
</g>
</g>
<path d="m1446.7 680.95 0.63471 5.015q0.30134 2.381 2.6824 2.0797l7.6812-0.97215q2.381-0.30134 2.0797-2.6824l-0.63471-5.015q-0.30134-2.381-2.6824-2.0797l-7.6812 0.97215q-2.381 0.30134-2.0797 2.6824z" clip-path="url(#a)" fill="#fff" stroke="#fff"/>
<g clip-path="url(#a)">
<g transform="translate(1450.7 680.43) rotate(82.787) scale(.08 -.08)">
<use xlink:href="#y"/>
</g>
</g>
<path d="m1572.5 687.4 4.6311 2.0263q2.1987 0.96206 3.1608-1.2367l3.1036-7.0932q0.96206-2.1987-1.2367-3.1608l-4.6311-2.0263q-2.1987-0.96206-3.1608 1.2367l-3.1036 7.0932q-0.96206 2.1987 1.2367 3.1608z" clip-path="url(#a)" fill="#fff" stroke="#fff"/>
<g clip-path="url(#a)">
<g transform="translate(1574.1 683.67) rotate(23.632) scale(.08 -.08)">
<use xlink:href="#y"/>
</g>
</g>
<path d="m1263.9 893.98v33.808q0 2.4 2.4 2.4h7.7425q2.4 0 2.4-2.4v-33.808q0-2.4-2.4-2.4h-7.7425q-2.4 0-2.4 2.4z" clip-path="url(#a)" fill="#fff" stroke="#fff"/>
<g clip-path="url(#a)">
<g transform="translate(1267.9 893.98) rotate(90) scale(.08 -.08)">
<use xlink:href="#k"/>
<use x="44.083984" xlink:href="#d"/>
<use x="105.607422" xlink:href="#g"/>
<use x="144.970703" xlink:href="#l"/>
<use x="242.382812" xlink:href="#j"/>
<use x="270.166016" xlink:href="#i"/>
<use x="333.544922" xlink:href="#f"/>
<use x="394.824219" xlink:href="#h"/>
</g>
</g>
<path d="m1338.2 893.98v33.808q0 2.4 2.4 2.4h7.7425q2.4 0 2.4-2.4v-33.808q0-2.4-2.4-2.4h-7.7425q-2.4 0-2.4 2.4z" clip-path="url(#a)" fill="#fff" stroke="#fff"/>
<g clip-path="url(#a)">
<g transform="translate(1342.3 893.98) rotate(90) scale(.08 -.08)">
<use xlink:href="#k"/>
<use x="44.083984" xlink:href="#d"/>
<use x="105.607422" xlink:href="#g"/>
<use x="144.970703" xlink:href="#l"/>
<use x="242.382812" xlink:href="#j"/>
<use x="270.166016" xlink:href="#i"/>
<use x="333.544922" xlink:href="#f"/>
<use x="394.824219" xlink:href="#h"/>
</g>
</g>
<path d="m1445.8 801.99 1.8117-5.2552q0.7822-2.269-1.4868-3.0512l-7.3197-2.5234q-2.269-0.7822-3.0512 1.4868l-1.8117 5.2552q-0.7822 2.269 1.4868 3.0512l7.3197 2.5234q2.269 0.7822 3.0512-1.4868z" clip-path="url(#a)" fill="#fff" stroke="#fff"/>
<g clip-path="url(#a)">
<g transform="translate(1442 800.66) rotate(-70.979) scale(.08 -.08)">
<use xlink:href="#w"/>
</g>
</g>
<path d="m1473.4 796.72 1.8207 5.2812q0.7822 2.269 3.0512 1.4868l7.3197-2.5234q2.269-0.7822 1.4868-3.0512l-1.8207-5.2812q-0.7822-2.269-3.0512-1.4868l-7.3197 2.5234q-2.269 0.7822-1.4868 3.0512z" clip-path="url(#a)" fill="#fff" stroke="#fff"/>
<g clip-path="url(#a)">
<g transform="translate(1477.2 795.39) rotate(70.979) scale(.08 -.08)">
<use xlink:href="#r"/>
</g>
</g>
<path d="m1647 803.84 4.1404-3.709q1.7876-1.6014 0.18624-3.389l-5.1661-5.7669q-1.6014-1.7876-3.389-0.18624l-4.1404 3.709q-1.7876 1.6014-0.18624 3.389l5.1661 5.7669q1.6014 1.7876 3.389 0.18624z" clip-path="url(#a)" fill="#fff" stroke="#fff"/>
<g clip-path="url(#a)">
<g transform="translate(1644.2 800.81) rotate(-41.854) scale(.08 -.08)">
<use xlink:href="#w"/>
</g>
</g>
<path d="m1714.1 800.19 0.073358-5.5858q0.031516-2.3998-2.3683-2.4313l-7.7418-0.10167q-2.3998-0.031517-2.4313 2.3683l-0.073357 5.5858q-0.031517 2.3998 2.3683 2.4313l7.7418 0.10167q2.3998 0.031517 2.4313-2.3683z" clip-path="url(#a)" fill="#fff" stroke="#fff"/>
<g clip-path="url(#a)">
<g transform="translate(1710.1 800.14) rotate(-89.248) scale(.08 -.08)">
<use xlink:href="#r"/>
</g>
</g>
<path d="m1766.9 800.07 4.3837 3.8813q1.7969 1.591 3.3879-0.20592l5.1325-5.7968q1.591-1.7969-0.20592-3.3879l-4.3837-3.8813q-1.7969-1.591-3.3879 0.20592l-5.1325 5.7968q-1.591 1.7969 0.20592 3.3879z" clip-path="url(#a)" fill="#fff" stroke="#fff"/>
<g clip-path="url(#a)">
<g transform="translate(1769.6 797.03) rotate(41.522) scale(.08 -.08)">
<use xlink:href="#ag"/>
</g>
</g>
<path d="m1574.7 893.98v33.808q0 2.4 2.4 2.4h7.7425q2.4 0 2.4-2.4v-33.808q0-2.4-2.4-2.4h-7.7425q-2.4 0-2.4 2.4z" clip-path="url(#a)" fill="#fff" stroke="#fff"/>
<g clip-path="url(#a)">
<g transform="translate(1578.8 893.98) rotate(90) scale(.08 -.08)">
<use xlink:href="#k"/>
<use x="44.083984" xlink:href="#d"/>
<use x="105.607422" xlink:href="#g"/>
<use x="144.970703" xlink:href="#l"/>
<use x="242.382812" xlink:href="#j"/>
<use x="270.166016" xlink:href="#i"/>
<use x="333.544922" xlink:href="#f"/>
<use x="394.824219" xlink:href="#h"/>
</g>
</g>
<path d="m1685.6 928.91 11.995-31.608q0.85153-2.2439-1.3923-3.0954l-7.2388-2.7471q-2.2439-0.85154-3.0954 1.3923l-11.995 31.608q-0.85153 2.2439 1.3923 3.0954l7.2388 2.7471q2.2439 0.85153 3.0954-1.3923z" clip-path="url(#a)" fill="#fff" stroke="#fff"/>
<g clip-path="url(#a)">
<g transform="translate(1681.8 927.47) rotate(-69.218) scale(.08 -.08)">
<use xlink:href="#k"/>
<use x="44.083984" xlink:href="#d"/>
<use x="105.607422" xlink:href="#g"/>
<use x="144.970703" xlink:href="#l"/>
<use x="242.382812" xlink:href="#j"/>
<use x="270.166016" xlink:href="#i"/>
<use x="333.544922" xlink:href="#f"/>
<use x="394.824219" xlink:href="#h"/>
</g>
</g>
<path d="m1716.7 897.3 11.995 31.608q0.85153 2.2439 3.0954 1.3923l7.2388-2.7471q2.2439-0.85153 1.3923-3.0954l-11.995-31.608q-0.85153-2.2439-3.0954-1.3923l-7.2388 2.7471q-2.2439 0.85153-1.3923 3.0954z" clip-path="url(#a)" fill="#fff" stroke="#fff"/>
<g clip-path="url(#a)">
<g transform="translate(1720.5 895.86) rotate(69.218) scale(.08 -.08)">
<use xlink:href="#k"/>
<use x="44.083984" xlink:href="#d"/>
<use x="105.607422" xlink:href="#g"/>
<use x="144.970703" xlink:href="#l"/>
<use x="242.382812" xlink:href="#j"/>
<use x="270.166016" xlink:href="#i"/>
<use x="333.544922" xlink:href="#f"/>
<use x="394.824219" xlink:href="#h"/>
</g>
</g>
<path d="m1414.8 893.98v33.808q0 2.4 2.4 2.4h7.7425q2.4 0 2.4-2.4v-33.808q0-2.4-2.4-2.4h-7.7425q-2.4 0-2.4 2.4z" clip-path="url(#a)" fill="#fff" stroke="#fff"/>
<g clip-path="url(#a)">
<g transform="translate(1418.9 893.98) rotate(90) scale(.08 -.08)">
<use xlink:href="#k"/>
<use x="44.083984" xlink:href="#d"/>
<use x="105.607422" xlink:href="#g"/>
<use x="144.970703" xlink:href="#l"/>
<use x="242.382812" xlink:href="#j"/>
<use x="270.166016" xlink:href="#i"/>
<use x="333.544922" xlink:href="#f"/>
<use x="394.824219" xlink:href="#h"/>
</g>
</g>
<path d="m1493.7 893.98v33.808q0 2.4 2.4 2.4h7.7425q2.4 0 2.4-2.4v-33.808q0-2.4-2.4-2.4h-7.7425q-2.4 0-2.4 2.4z" clip-path="url(#a)" fill="#fff" stroke="#fff"/>
<g clip-path="url(#a)">
<g transform="translate(1497.7 893.98) rotate(90) scale(.08 -.08)">
<use xlink:href="#k"/>
<use x="44.083984" xlink:href="#d"/>
<use x="105.607422" xlink:href="#g"/>
<use x="144.970703" xlink:href="#l"/>
<use x="242.382812" xlink:href="#j"/>
<use x="270.166016" xlink:href="#i"/>
<use x="333.544922" xlink:href="#f"/>
<use x="394.824219" xlink:href="#h"/>
</g>
</g>
<path d="m989.06 893.98v33.808q0 2.4 2.4 2.4h7.7425q2.4 0 2.4-2.4v-33.808q0-2.4-2.4-2.4h-7.7425q-2.4 0-2.4 2.4z" clip-path="url(#a)" fill="#fff" stroke="#fff"/>
<g clip-path="url(#a)">
<g transform="translate(993.12 893.98) rotate(90) scale(.08 -.08)">
<use xlink:href="#k"/>
<use x="44.083984" xlink:href="#d"/>
<use x="105.607422" xlink:href="#g"/>
<use x="144.970703" xlink:href="#l"/>
<use x="242.382812" xlink:href="#j"/>
<use x="270.166016" xlink:href="#i"/>
<use x="333.544922" xlink:href="#f"/>
<use x="394.824219" xlink:href="#h"/>
</g>
</g>
<path d="m1054.4 893.98v33.808q0 2.4 2.4 2.4h7.7425q2.4 0 2.4-2.4v-33.808q0-2.4-2.4-2.4h-7.7425q-2.4 0-2.4 2.4z" clip-path="url(#a)" fill="#fff" stroke="#fff"/>
<g clip-path="url(#a)">
<g transform="translate(1058.4 893.98) rotate(90) scale(.08 -.08)">
<use xlink:href="#k"/>
<use x="44.083984" xlink:href="#d"/>
<use x="105.607422" xlink:href="#g"/>
<use x="144.970703" xlink:href="#l"/>
<use x="242.382812" xlink:href="#j"/>
<use x="270.166016" xlink:href="#i"/>
<use x="333.544922" xlink:href="#f"/>
<use x="394.824219" xlink:href="#h"/>
</g>
</g>
<path d="m1122 893.98v33.808q0 2.4 2.4 2.4h7.7425q2.4 0 2.4-2.4v-33.808q0-2.4-2.4-2.4h-7.7425q-2.4 0-2.4 2.4z" clip-path="url(#a)" fill="#fff" stroke="#fff"/>
<g clip-path="url(#a)">
<g transform="translate(1126 893.98) rotate(90) scale(.08 -.08)">
<use xlink:href="#k"/>
<use x="44.083984" xlink:href="#d"/>
<use x="105.607422" xlink:href="#g"/>
<use x="144.970703" xlink:href="#l"/>
<use x="242.382812" xlink:href="#j"/>
<use x="270.166016" xlink:href="#i"/>
<use x="333.544922" xlink:href="#f"/>
<use x="394.824219" xlink:href="#h"/>
</g>
</g>
<path d="m344.8 893.98v33.808q0 2.4 2.4 2.4h7.7425q2.4 0 2.4-2.4v-33.808q0-2.4-2.4-2.4h-7.7425q-2.4 0-2.4 2.4z" clip-path="url(#a)" fill="#fff" stroke="#fff"/>
<g clip-path="url(#a)">
<g transform="translate(348.87 893.98) rotate(90) scale(.08 -.08)">
<use xlink:href="#k"/>
<use x="44.083984" xlink:href="#d"/>
<use x="105.607422" xlink:href="#g"/>
<use x="144.970703" xlink:href="#l"/>
<use x="242.382812" xlink:href="#j"/>
<use x="270.166016" xlink:href="#i"/>
<use x="333.544922" xlink:href="#f"/>
<use x="394.824219" xlink:href="#h"/>
</g>
</g>
<path d="m380.85 893.98v33.808q0 2.4 2.4 2.4h7.7425q2.4 0 2.4-2.4v-33.808q0-2.4-2.4-2.4h-7.7425q-2.4 0-2.4 2.4z" clip-path="url(#a)" fill="#fff" stroke="#fff"/>
<g clip-path="url(#a)">
<g transform="translate(384.91 893.98) rotate(90) scale(.08 -.08)">
<use xlink:href="#k"/>
<use x="44.083984" xlink:href="#d"/>
<use x="105.607422" xlink:href="#g"/>
<use x="144.970703" xlink:href="#l"/>
<use x="242.382812" xlink:href="#j"/>
<use x="270.166016" xlink:href="#i"/>
<use x="333.544922" xlink:href="#f"/>
<use x="394.824219" xlink:href="#h"/>
</g>
</g>
<path d="m419.14 893.98v33.808q0 2.4 2.4 2.4h7.7425q2.4 0 2.4-2.4v-33.808q0-2.4-2.4-2.4h-7.7425q-2.4 0-2.4 2.4z" clip-path="url(#a)" fill="#fff" stroke="#fff"/>
<g clip-path="url(#a)">
<g transform="translate(423.2 893.98) rotate(90) scale(.08 -.08)">
<use xlink:href="#k"/>
<use x="44.083984" xlink:href="#d"/>
<use x="105.607422" xlink:href="#g"/>
<use x="144.970703" xlink:href="#l"/>
<use x="242.382812" xlink:href="#j"/>
<use x="270.166016" xlink:href="#i"/>
<use x="333.544922" xlink:href="#f"/>
<use x="394.824219" xlink:href="#h"/>
</g>
</g>
<path d="m459.69 893.98v33.808q0 2.4 2.4 2.4h7.7425q2.4 0 2.4-2.4v-33.808q0-2.4-2.4-2.4h-7.7425q-2.4 0-2.4 2.4z" clip-path="url(#a)" fill="#fff" stroke="#fff"/>
<g clip-path="url(#a)">
<g transform="translate(463.75 893.98) rotate(90) scale(.08 -.08)">
<use xlink:href="#k"/>
<use x="44.083984" xlink:href="#d"/>
<use x="105.607422" xlink:href="#g"/>
<use x="144.970703" xlink:href="#l"/>
<use x="242.382812" xlink:href="#j"/>
<use x="270.166016" xlink:href="#i"/>
<use x="333.544922" xlink:href="#f"/>
<use x="394.824219" xlink:href="#h"/>
</g>
</g>
<path d="m106.37 571.32 0.93228-5.5079q0.40053-2.3663-1.9658-2.7669l-7.6339-1.2921q-2.3663-0.40053-2.7669 1.9658l-0.93228 5.5079q-0.40053 2.3663 1.9658 2.7669l7.6339 1.2921q2.3663 0.40053 2.7669-1.9658z" clip-path="url(#a)" fill="#fff" stroke="#fff"/>
<g clip-path="url(#a)">
<g transform="translate(102.37 570.64) rotate(-80.393) scale(.08 -.08)">
<use xlink:href="#r"/>
</g>
</g>
<path d="m113.57 566.07 0.84362 4.9841q0.40053 2.3663 2.7669 1.9658l7.6339-1.2921q2.3663-0.40053 1.9658-2.7669l-0.84362-4.9841q-0.40053-2.3663-2.7669-1.9658l-7.6339 1.2921q-2.3663 0.40053-1.9658 2.7669z" clip-path="url(#a)" fill="#fff" stroke="#fff"/>
<g clip-path="url(#a)">
<g transform="translate(117.58 565.4) rotate(80.393) scale(.08 -.08)">
<use xlink:href="#y"/>
</g>
</g>
<path d="m175.85 893.98v33.808q0 2.4 2.4 2.4h7.7425q2.4 0 2.4-2.4v-33.808q0-2.4-2.4-2.4h-7.7425q-2.4 0-2.4 2.4z" clip-path="url(#a)" fill="#fff" stroke="#fff"/>
<g clip-path="url(#a)">
<g transform="translate(179.92 893.98) rotate(90) scale(.08 -.08)">
<use xlink:href="#k"/>
<use x="44.083984" xlink:href="#d"/>
<use x="105.607422" xlink:href="#g"/>
<use x="144.970703" xlink:href="#l"/>
<use x="242.382812" xlink:href="#j"/>
<use x="270.166016" xlink:href="#i"/>
<use x="333.544922" xlink:href="#f"/>
<use x="394.824219" xlink:href="#h"/>
</g>
</g>
<path d="m198.38 893.98v33.808q0 2.4 2.4 2.4h7.7425q2.4 0 2.4-2.4v-33.808q0-2.4-2.4-2.4h-7.7425q-2.4 0-2.4 2.4z" clip-path="url(#a)" fill="#fff" stroke="#fff"/>
<g clip-path="url(#a)">
<g transform="translate(202.45 893.98) rotate(90) scale(.08 -.08)">
<use xlink:href="#k"/>
<use x="44.083984" xlink:href="#d"/>
<use x="105.607422" xlink:href="#g"/>
<use x="144.970703" xlink:href="#l"/>
<use x="242.382812" xlink:href="#j"/>
<use x="270.166016" xlink:href="#i"/>
<use x="333.544922" xlink:href="#f"/>
<use x="394.824219" xlink:href="#h"/>
</g>
</g>
<path d="m242.15 800.34 0.54009-4.5694q0.28171-2.3834-2.1017-2.6651l-7.689-0.90881q-2.3834-0.28171-2.6651 2.1017l-0.54009 4.5694q-0.28171 2.3834 2.1017 2.6651l7.689 0.90881q2.3834 0.28171 2.6651-2.1017z" clip-path="url(#a)" fill="#fff" stroke="#fff"/>
<g clip-path="url(#a)">
<g transform="translate(238.11 799.86) rotate(-83.259) scale(.08 -.08)">
<use xlink:href="#ab"/>
</g>
</g>
<path d="m243.15 795.28 0.65571 5.5476q0.28171 2.3834 2.6651 2.1017l7.689-0.90881q2.3834-0.28171 2.1017-2.6651l-0.65571-5.5476q-0.28171-2.3834-2.6651-2.1017l-7.689 0.90881q-2.3834 0.28171-2.1017 2.6651z" clip-path="url(#a)" fill="#fff" stroke="#fff"/>
<g clip-path="url(#a)">
<g transform="translate(247.19 794.8) rotate(83.259) scale(.08 -.08)">
<use xlink:href="#r"/>
</g>
</g>
<path d="m223.16 893.98v33.808q0 2.4 2.4 2.4h7.7425q2.4 0 2.4-2.4v-33.808q0-2.4-2.4-2.4h-7.7425q-2.4 0-2.4 2.4z" clip-path="url(#a)" fill="#fff" stroke="#fff"/>
<g clip-path="url(#a)">
<g transform="translate(227.22 893.98) rotate(90) scale(.08 -.08)">
<use xlink:href="#k"/>
<use x="44.083984" xlink:href="#d"/>
<use x="105.607422" xlink:href="#g"/>
<use x="144.970703" xlink:href="#l"/>
<use x="242.382812" xlink:href="#j"/>
<use x="270.166016" xlink:href="#i"/>
<use x="333.544922" xlink:href="#f"/>
<use x="394.824219" xlink:href="#h"/>
</g>
</g>
<path d="m250.19 893.98v33.808q0 2.4 2.4 2.4h7.7425q2.4 0 2.4-2.4v-33.808q0-2.4-2.4-2.4h-7.7425q-2.4 0-2.4 2.4z" clip-path="url(#a)" fill="#fff" stroke="#fff"/>
<g clip-path="url(#a)">
<g transform="translate(254.26 893.98) rotate(90) scale(.08 -.08)">
<use xlink:href="#k"/>
<use x="44.083984" xlink:href="#d"/>
<use x="105.607422" xlink:href="#g"/>
<use x="144.970703" xlink:href="#l"/>
<use x="242.382812" xlink:href="#j"/>
<use x="270.166016" xlink:href="#i"/>
<use x="333.544922" xlink:href="#f"/>
<use x="394.824219" xlink:href="#h"/>
</g>
</g>
<path d="m84.494 676.17v12.991q0 2.4 2.4 2.4h8q2.4 0 2.4-2.4v-12.991q0-2.4-2.4-2.4h-8q-2.4 0-2.4 2.4z" clip-path="url(#a)" fill="#fff" stroke="#fff"/>
<g clip-path="url(#a)">
<g transform="translate(88.78 676.17) rotate(90) scale(.08 -.08)">
<defs>
<path id="ba" d="m21 76.422v-100h-8.2969v100z"/>
</defs>
<use xlink:href="#s"/>
<use x="68.408203" xlink:href="#ba"/>
<use x="102.099609" xlink:href="#aa"/>
</g>
</g>
<path d="m125.09 686.54 1.0051-5.4951q0.4318-2.3608-1.929-2.7926l-7.6162-1.393q-2.3608-0.4318-2.7926 1.929l-1.0051 5.4951q-0.4318 2.3608 1.929 2.7926l7.6162 1.393q2.3608 0.4318 2.7926-1.929z" clip-path="url(#a)" fill="#fff" stroke="#fff"/>
<g clip-path="url(#a)">
<g transform="translate(121.1 685.81) rotate(-79.635) scale(.08 -.08)">
<use xlink:href="#r"/>
</g>
</g>
<path d="m135.25 742.88 0.048996-5.9848q0.019647-2.3999-2.3803-2.4196l-7.7422-0.063382q-2.3999-0.019648-2.4196 2.3803l-0.048996 5.9848q-0.019647 2.3999 2.3803 2.4196l7.7422 0.063383q2.3999 0.019647 2.4196-2.3803z" clip-path="url(#a)" fill="#fff" stroke="#fff"/>
<g clip-path="url(#a)">
<g transform="translate(131.18 742.85) rotate(-89.531) scale(.08 -.08)">
<defs>
<path id="am" d="m9.8125 72.906h13.281l32.328-60.984v60.984h9.5625v-72.906h-13.281l-32.312 60.984v-60.984h-9.5781z"/>
</defs>
<use xlink:href="#am"/>
</g>
</g>
<path d="m134.69 681.15 1.0915 5.4786q0.46894 2.3537 2.8227 1.8848l7.5933-1.5128q2.3537-0.46894 1.8848-2.8227l-1.0915-5.4786q-0.46894-2.3537-2.8227-1.8848l-7.5933 1.5128q-2.3537 0.46894-1.8848 2.8227z" clip-path="url(#a)" fill="#fff" stroke="#fff"/>
<g clip-path="url(#a)">
<g transform="translate(138.68 680.36) rotate(78.732) scale(.08 -.08)">
<use xlink:href="#r"/>
</g>
</g>
<path d="m112.23 800.4 0.27343-5.552q0.11805-2.3971-2.279-2.5151l-7.7331-0.38085q-2.3971-0.11805-2.5151 2.279l-0.27343 5.552q-0.11805 2.3971 2.279 2.5151l7.7331 0.38084q2.3971 0.11805 2.5151-2.279z" clip-path="url(#a)" fill="#fff" stroke="#fff"/>
<g clip-path="url(#a)">
<g transform="translate(108.17 800.2) rotate(-87.181) scale(.08 -.08)">
<use xlink:href="#w"/>
</g>
</g>
<path d="m105.33 794.83 0.27478 5.5795q0.11805 2.3971 2.5151 2.279l7.7331-0.38085q2.3971-0.11805 2.279-2.5151l-0.27478-5.5795q-0.11805-2.3971-2.5151-2.279l-7.7331 0.38084q-2.3971 0.11805-2.279 2.5151z" clip-path="url(#a)" fill="#fff" stroke="#fff"/>
<g clip-path="url(#a)">
<g transform="translate(109.39 794.63) rotate(87.181) scale(.08 -.08)">
<use xlink:href="#r"/>
</g>
</g>
<path d="m121.79 893.98v33.808q0 2.4 2.4 2.4h7.7425q2.4 0 2.4-2.4v-33.808q0-2.4-2.4-2.4h-7.7425q-2.4 0-2.4 2.4z" clip-path="url(#a)" fill="#fff" stroke="#fff"/>
<g clip-path="url(#a)">
<g transform="translate(125.86 893.98) rotate(90) scale(.08 -.08)">
<use xlink:href="#k"/>
<use x="44.083984" xlink:href="#d"/>
<use x="105.607422" xlink:href="#g"/>
<use x="144.970703" xlink:href="#l"/>
<use x="242.382812" xlink:href="#j"/>
<use x="270.166016" xlink:href="#i"/>
<use x="333.544922" xlink:href="#f"/>
<use x="394.824219" xlink:href="#h"/>
</g>
</g>
<path d="m154.37 800.58 0.43666-5.5416q0.18853-2.3926-2.2041-2.5811l-7.7186-0.60821q-2.3926-0.18853-2.5811 2.2041l-0.43666 5.5416q-0.18853 2.3926 2.2041 2.5811l7.7186 0.60821q2.3926 0.18853 2.5811-2.2041z" clip-path="url(#a)" fill="#fff" stroke="#fff"/>
<g clip-path="url(#a)">
<g transform="translate(150.32 800.26) rotate(-85.495) scale(.08 -.08)">
<use xlink:href="#w"/>
</g>
</g>
<path d="m150.88 795.02 0.43882 5.569q0.18853 2.3926 2.5811 2.2041l7.7186-0.60821q2.3926-0.18853 2.2041-2.5811l-0.43882-5.569q-0.18853-2.3926-2.5811-2.2041l-7.7186 0.60821q-2.3926 0.18853-2.2041 2.5811z" clip-path="url(#a)" fill="#fff" stroke="#fff"/>
<g clip-path="url(#a)">
<g transform="translate(154.93 794.7) rotate(85.495) scale(.08 -.08)">
<use xlink:href="#r"/>
</g>
</g>
<path d="m137.56 893.98v33.808q0 2.4 2.4 2.4h7.7425q2.4 0 2.4-2.4v-33.808q0-2.4-2.4-2.4h-7.7425q-2.4 0-2.4 2.4z" clip-path="url(#a)" fill="#fff" stroke="#fff"/>
<g clip-path="url(#a)">
<g transform="translate(141.62 893.98) rotate(90) scale(.08 -.08)">
<use xlink:href="#k"/>
<use x="44.083984" xlink:href="#d"/>
<use x="105.607422" xlink:href="#g"/>
<use x="144.970703" xlink:href="#l"/>
<use x="242.382812" xlink:href="#j"/>
<use x="270.166016" xlink:href="#i"/>
<use x="333.544922" xlink:href="#f"/>
<use x="394.824219" xlink:href="#h"/>
</g>
</g>
<path d="m155.58 893.98v33.808q0 2.4 2.4 2.4h7.7425q2.4 0 2.4-2.4v-33.808q0-2.4-2.4-2.4h-7.7425q-2.4 0-2.4 2.4z" clip-path="url(#a)" fill="#fff" stroke="#fff"/>
<g clip-path="url(#a)">
<g transform="translate(159.64 893.98) rotate(90) scale(.08 -.08)">
<use xlink:href="#k"/>
<use x="44.083984" xlink:href="#d"/>
<use x="105.607422" xlink:href="#g"/>
<use x="144.970703" xlink:href="#l"/>
<use x="242.382812" xlink:href="#j"/>
<use x="270.166016" xlink:href="#i"/>
<use x="333.544922" xlink:href="#f"/>
<use x="394.824219" xlink:href="#h"/>
</g>
</g>
<path d="m97.012 893.98v33.808q0 2.4 2.4 2.4h7.7425q2.4 0 2.4-2.4v-33.808q0-2.4-2.4-2.4h-7.7425q-2.4 0-2.4 2.4z" clip-path="url(#a)" fill="#fff" stroke="#fff"/>
<g clip-path="url(#a)">
<g transform="translate(101.08 893.98) rotate(90) scale(.08 -.08)">
<use xlink:href="#k"/>
<use x="44.083984" xlink:href="#d"/>
<use x="105.607422" xlink:href="#g"/>
<use x="144.970703" xlink:href="#l"/>
<use x="242.382812" xlink:href="#j"/>
<use x="270.166016" xlink:href="#i"/>
<use x="333.544922" xlink:href="#f"/>
<use x="394.824219" xlink:href="#h"/>
</g>
</g>
<path d="m108.28 893.98v33.808q0 2.4 2.4 2.4h7.7425q2.4 0 2.4-2.4v-33.808q0-2.4-2.4-2.4h-7.7425q-2.4 0-2.4 2.4z" clip-path="url(#a)" fill="#fff" stroke="#fff"/>
<g clip-path="url(#a)">
<g transform="translate(112.34 893.98) rotate(90) scale(.08 -.08)">
<use xlink:href="#k"/>
<use x="44.083984" xlink:href="#d"/>
<use x="105.607422" xlink:href="#g"/>
<use x="144.970703" xlink:href="#l"/>
<use x="242.382812" xlink:href="#j"/>
<use x="270.166016" xlink:href="#i"/>
<use x="333.544922" xlink:href="#f"/>
<use x="394.824219" xlink:href="#h"/>
</g>
</g>
<path d="m95.405 799.8 0.1359-4.5992q0.070887-2.399-2.3281-2.4698l-7.7391-0.22868q-2.399-0.070887-2.4698 2.3281l-0.1359 4.5992q-0.070887 2.399 2.3281 2.4698l7.7391 0.22868q2.399 0.070887 2.4698-2.3281z" clip-path="url(#a)" fill="#fff" stroke="#fff"/>
<g clip-path="url(#a)">
<g transform="translate(91.343 799.68) rotate(-88.307) scale(.08 -.08)">
<use xlink:href="#ab"/>
</g>
</g>
<path d="m86.233 794.71 0.165 5.5838q0.070887 2.399 2.4698 2.3281l7.7391-0.22868q2.399-0.070887 2.3281-2.4698l-0.165-5.5838q-0.070887-2.399-2.4698-2.3281l-7.7391 0.22868q-2.399 0.070887-2.3281 2.4698z" clip-path="url(#a)" fill="#fff" stroke="#fff"/>
<g clip-path="url(#a)">
<g transform="translate(90.295 794.59) rotate(88.307) scale(.08 -.08)">
<use xlink:href="#r"/>
</g>
</g>
<path d="m81.244 893.98v33.808q0 2.4 2.4 2.4h7.7425q2.4 0 2.4-2.4v-33.808q0-2.4-2.4-2.4h-7.7425q-2.4 0-2.4 2.4z" clip-path="url(#a)" fill="#fff" stroke="#fff"/>
<g clip-path="url(#a)">
<g transform="translate(85.308 893.98) rotate(90) scale(.08 -.08)">
<use xlink:href="#k"/>
<use x="44.083984" xlink:href="#d"/>
<use x="105.607422" xlink:href="#g"/>
<use x="144.970703" xlink:href="#l"/>
<use x="242.382812" xlink:href="#j"/>
<use x="270.166016" xlink:href="#i"/>
<use x="333.544922" xlink:href="#f"/>
<use x="394.824219" xlink:href="#h"/>
</g>
</g>
<path d="m88.002 893.98v33.808q0 2.4 2.4 2.4h7.7425q2.4 0 2.4-2.4v-33.808q0-2.4-2.4-2.4h-7.7425q-2.4 0-2.4 2.4z" clip-path="url(#a)" fill="#fff" stroke="#fff"/>
<g clip-path="url(#a)">
<g transform="translate(92.066 893.98) rotate(90) scale(.08 -.08)">
<use xlink:href="#k"/>
<use x="44.083984" xlink:href="#d"/>
<use x="105.607422" xlink:href="#g"/>
<use x="144.970703" xlink:href="#l"/>
<use x="242.382812" xlink:href="#j"/>
<use x="270.166016" xlink:href="#i"/>
<use x="333.544922" xlink:href="#f"/>
<use x="394.824219" xlink:href="#h"/>
</g>
</g>
<path d="m279.48 893.98v33.808q0 2.4 2.4 2.4h7.7425q2.4 0 2.4-2.4v-33.808q0-2.4-2.4-2.4h-7.7425q-2.4 0-2.4 2.4z" clip-path="url(#a)" fill="#fff" stroke="#fff"/>
<g clip-path="url(#a)">
<g transform="translate(283.54 893.98) rotate(90) scale(.08 -.08)">
<use xlink:href="#k"/>
<use x="44.083984" xlink:href="#d"/>
<use x="105.607422" xlink:href="#g"/>
<use x="144.970703" xlink:href="#l"/>
<use x="242.382812" xlink:href="#j"/>
<use x="270.166016" xlink:href="#i"/>
<use x="333.544922" xlink:href="#f"/>
<use x="394.824219" xlink:href="#h"/>
</g>
</g>
<path d="m806.59 893.98v33.808q0 2.4 2.4 2.4h7.7425q2.4 0 2.4-2.4v-33.808q0-2.4-2.4-2.4h-7.7425q-2.4 0-2.4 2.4z" clip-path="url(#a)" fill="#fff" stroke="#fff"/>
<g clip-path="url(#a)">
<g transform="translate(810.66 893.98) rotate(90) scale(.08 -.08)">
<use xlink:href="#k"/>
<use x="44.083984" xlink:href="#d"/>
<use x="105.607422" xlink:href="#g"/>
<use x="144.970703" xlink:href="#l"/>
<use x="242.382812" xlink:href="#j"/>
<use x="270.166016" xlink:href="#i"/>
<use x="333.544922" xlink:href="#f"/>
<use x="394.824219" xlink:href="#h"/>
</g>
</g>
<path d="m1831.5 893.98v33.808q0 2.4 2.4 2.4h7.7425q2.4 0 2.4-2.4v-33.808q0-2.4-2.4-2.4h-7.7425q-2.4 0-2.4 2.4z" clip-path="url(#a)" fill="#fff" stroke="#fff"/>
<g clip-path="url(#a)">
<g transform="translate(1835.6 893.98) rotate(90) scale(.08 -.08)">
<use xlink:href="#k"/>
<use x="44.083984" xlink:href="#d"/>
<use x="105.607422" xlink:href="#g"/>
<use x="144.970703" xlink:href="#l"/>
<use x="242.382812" xlink:href="#j"/>
<use x="270.166016" xlink:href="#i"/>
<use x="333.544922" xlink:href="#f"/>
<use x="394.824219" xlink:href="#h"/>
</g>
</g>
<defs>
<path id="b" d="m0 8.6603c2.2967 0 4.4997-0.9125 6.1237-2.5365 1.624-1.624 2.5365-3.827 2.5365-6.1237s-0.9125-4.4997-2.5365-6.1237c-1.624-1.624-3.827-2.5365-6.1237-2.5365s-4.4997 0.9125-6.1237 2.5365c-1.624 1.624-2.5365 3.827-2.5365 6.1237s0.9125 4.4997 2.5365 6.1237c1.624 1.624 3.827 2.5365 6.1237 2.5365z"/>
</defs>
<g clip-path="url(#a)" fill="#ffffff" stroke="#ffffff">
<use x="87.515152" y="967.272727" xlink:href="#b"/>
<use x="94.273078" y="967.272727" xlink:href="#b"/>
<use x="103.283647" y="967.272727" xlink:href="#b"/>
<use x="114.546859" y="967.272727" xlink:href="#b"/>
<use x="128.062712" y="967.272727" xlink:href="#b"/>
<use x="143.831208" y="967.272727" xlink:href="#b"/>
<use x="161.852346" y="967.272727" xlink:href="#b"/>
<use x="182.126126" y="967.272727" xlink:href="#b"/>
<use x="204.652549" y="967.272727" xlink:href="#b"/>
<use x="229.431613" y="967.272727" xlink:href="#b"/>
<use x="256.46332" y="967.272727" xlink:href="#b"/>
<use x="285.74767" y="967.272727" xlink:href="#b"/>
<use x="317.284661" y="967.272727" xlink:href="#b"/>
<use x="351.074295" y="967.272727" xlink:href="#b"/>
<use x="387.116571" y="967.272727" xlink:href="#b"/>
<use x="425.411489" y="967.272727" xlink:href="#b"/>
<use x="465.95905" y="967.272727" xlink:href="#b"/>
<use x="508.759253" y="967.272727" xlink:href="#b"/>
<use x="553.812098" y="967.272727" xlink:href="#b"/>
<use x="601.117585" y="967.272727" xlink:href="#b"/>
<use x="650.675715" y="967.272727" xlink:href="#b"/>
<use x="702.486486" y="967.272727" xlink:href="#b"/>
<use x="756.549901" y="967.272727" xlink:href="#b"/>
<use x="812.865957" y="967.272727" xlink:href="#b"/>
<use x="871.434655" y="967.272727" xlink:href="#b"/>
<use x="932.255996" y="967.272727" xlink:href="#b"/>
<use x="995.329979" y="967.272727" xlink:href="#b"/>
<use x="1060.656605" y="967.272727" xlink:href="#b"/>
<use x="1128.235872" y="967.272727" xlink:href="#b"/>
<use x="1198.067782" y="967.272727" xlink:href="#b"/>
<use x="1270.152334" y="967.272727" xlink:href="#b"/>
<use x="1344.489528" y="967.272727" xlink:href="#b"/>
<use x="1421.079365" y="967.272727" xlink:href="#b"/>
<use x="1499.921844" y="967.272727" xlink:href="#b"/>
<use x="1581.016965" y="967.272727" xlink:href="#b"/>
<use x="1664.364728" y="967.272727" xlink:href="#b"/>
<use x="1749.965134" y="967.272727" xlink:href="#b"/>
<use x="1837.818182" y="967.272727" xlink:href="#b"/>
<use x="363.457296" y="46.060606" xlink:href="#b"/>
<use x="185.035789" y="394.214884" xlink:href="#b"/>
<use x="317.284661" y="854.490996" xlink:href="#b"/>
<use x="407.390351" y="740.140347" xlink:href="#b"/>
<use x="508.759253" y="854.490996" xlink:href="#b"/>
<use x="476.526054" y="162.287747" xlink:href="#b"/>
<use x="663.659381" y="278.348402" xlink:href="#b"/>
<use x="553.812098" y="854.490996" xlink:href="#b"/>
<use x="601.117585" y="854.490996" xlink:href="#b"/>
<use x="650.675715" y="854.490996" xlink:href="#b"/>
<use x="849.032128" y="394.214884" xlink:href="#b"/>
<use x="702.486486" y="854.490996" xlink:href="#b"/>
<use x="756.549901" y="854.490996" xlink:href="#b"/>
<use x="871.434655" y="854.490996" xlink:href="#b"/>
<use x="1101.823642" y="509.848305" xlink:href="#b"/>
<use x="932.255996" y="854.490996" xlink:href="#b"/>
<use x="1061.407485" y="740.140347" xlink:href="#b"/>
<use x="1198.067782" y="854.490996" xlink:href="#b"/>
<use x="1445.95229" y="625.189938" xlink:href="#b"/>
<use x="1270.152334" y="854.490996" xlink:href="#b"/>
<use x="1344.489528" y="854.490996" xlink:href="#b"/>
<use x="1460.500605" y="740.140347" xlink:href="#b"/>
<use x="1708.666693" y="740.140347" xlink:href="#b"/>
<use x="1581.016965" y="854.490996" xlink:href="#b"/>
<use x="1707.164931" y="854.490996" xlink:href="#b"/>
<use x="1421.079365" y="854.490996" xlink:href="#b"/>
<use x="1499.921844" y="854.490996" xlink:href="#b"/>
<use x="995.329979" y="854.490996" xlink:href="#b"/>
<use x="1060.656605" y="854.490996" xlink:href="#b"/>
<use x="1128.235872" y="854.490996" xlink:href="#b"/>
<use x="351.074295" y="854.490996" xlink:href="#b"/>
<use x="387.116571" y="854.490996" xlink:href="#b"/>
<use x="425.411489" y="854.490996" xlink:href="#b"/>
<use x="465.95905" y="854.490996" xlink:href="#b"/>
<use x="110.417014" y="509.848305" xlink:href="#b"/>
<use x="182.126126" y="854.490996" xlink:href="#b"/>
<use x="204.652549" y="854.490996" xlink:href="#b"/>
<use x="242.947467" y="740.140347" xlink:href="#b"/>
<use x="229.431613" y="854.490996" xlink:href="#b"/>
<use x="256.46332" y="854.490996" xlink:href="#b"/>
<use x="90.894115" y="625.189938" xlink:href="#b"/>
<use x="129.939914" y="625.189938" xlink:href="#b"/>
<use x="108.915253" y="740.140347" xlink:href="#b"/>
<use x="128.062712" y="854.490996" xlink:href="#b"/>
<use x="152.841777" y="740.140347" xlink:href="#b"/>
<use x="143.831208" y="854.490996" xlink:href="#b"/>
<use x="161.852346" y="854.490996" xlink:href="#b"/>
<use x="103.283647" y="854.490996" xlink:href="#b"/>
<use x="114.546859" y="854.490996" xlink:href="#b"/>
<use x="90.894115" y="740.140347" xlink:href="#b"/>
<use x="87.515152" y="854.490996" xlink:href="#b"/>
<use x="94.273078" y="854.490996" xlink:href="#b"/>
<use x="285.74767" y="854.490996" xlink:href="#b"/>
<use x="812.865957" y="854.490996" xlink:href="#b"/>
<use x="1837.818182" y="854.490996" xlink:href="#b"/>
</g>
<g clip-path="url(#a)">
<g transform="translate(81.74 970.03) scale(.1 -.1)">
<use xlink:href="#ah"/>
<use x="53.962891" xlink:href="#d"/>
</g>
</g>
<g clip-path="url(#a)">
<g transform="translate(75.122 970.23) scale(.1 -.1)">
<defs>
<path id="as" d="m48.781 52.594v-8.4062q-3.8125 2.1094-7.6406 3.1562t-7.7344 1.0469q-8.75 0-13.594-5.5469-4.8281-5.5312-4.8281-15.547t4.8281-15.562q4.8438-5.5312 13.594-5.5312 3.9062 0 7.7344 1.0469t7.6406 3.1562v-8.3125q-3.7656-1.75-7.7969-2.625-4.0156-0.89062-8.5625-0.89062-12.359 0-19.641 7.7656-7.2656 7.7656-7.2656 20.953 0 13.375 7.3438 21.031 7.3594 7.6719 20.156 7.6719 4.1406 0 8.0938-0.85938 3.9531-0.84375 7.6719-2.5469z"/>
<path id="x" d="m30.609 48.391q-7.2188 0-11.422-5.6406t-4.2031-15.453 4.1719-15.453q4.1875-5.6406 11.453-5.6406 7.1875 0 11.375 5.6562 4.2031 5.6719 4.2031 15.438 0 9.7188-4.2031 15.406-4.1875 5.6875-11.375 5.6875zm0 7.6094q11.719 0 18.406-7.625 6.7031-7.6094 6.7031-21.078 0-13.422-6.7031-21.078-6.6875-7.6406-18.406-7.6406-11.766 0-18.438 7.6406-6.6562 7.6562-6.6562 21.078 0 13.469 6.6562 21.078 6.6719 7.625 18.438 7.625z"/>
<path id="o" d="m18.312 70.219v-15.531h18.5v-6.9844h-18.5v-29.688q0-6.6875 1.8281-8.5938t7.4531-1.9062h9.2188v-7.5156h-9.2188q-10.406 0-14.359 3.875-3.9531 3.8906-3.9531 14.141v29.688h-6.5938v6.9844h6.5938v15.531z"/>
<path id="ay" d="m56.203 29.594v-4.3906h-41.312q0.59375-9.2812 5.5938-14.141t13.938-4.8594q5.1719 0 10.031 1.2656t9.6562 3.8125v-8.5q-4.8438-2.0469-9.9219-3.125t-10.297-1.0781q-13.094 0-20.734 7.6094-7.6406 7.625-7.6406 20.625 0 13.422 7.25 21.297 7.25 7.8906 19.562 7.8906 11.031 0 17.453-7.1094 6.4219-7.0938 6.4219-19.297zm-8.9844 2.6406q-0.09375 7.3594-4.125 11.75-4.0312 4.4062-10.672 4.4062-7.5156 0-12.031-4.25t-5.2031-11.969zm-22.547 47.75 13.766-18.266h-7.4688l-15.922 18.266z"/>
<path id="ak" d="m45.406 27.984q0 9.7656-4.0312 15.125-4.0156 5.375-11.297 5.375-7.2188 0-11.25-5.375-4.0312-5.3594-4.0312-15.125 0-9.7188 4.0312-15.094t11.25-5.375q7.2812 0 11.297 5.375 4.0312 5.375 4.0312 15.094zm8.9844-21.203q0-13.953-6.2031-20.766-6.1875-6.8125-18.984-6.8125-4.7344 0-8.9375 0.70312t-8.1562 2.1719v8.7344q3.9531-2.1406 7.8125-3.1562 3.8594-1.0312 7.8594-1.0312 8.8438 0 13.234 4.6094t4.3906 13.938v4.4531q-2.7812-4.8438-7.125-7.2344t-10.406-2.3906q-10.047 0-16.203 7.6562-6.1562 7.6719-6.1562 20.328 0 12.688 6.1562 20.344 6.1562 7.6719 16.203 7.6719 6.0625 0 10.406-2.3906t7.125-7.2188v8.2969h8.9844z"/>
</defs>
<use xlink:href="#as"/>
<use x="54.980469" xlink:href="#x"/>
<use x="116.162109" xlink:href="#g"/>
<use x="157.275391" xlink:href="#o"/>
<use x="196.484375" xlink:href="#ay"/>
<use x="258.007812" xlink:href="#ak"/>
<use x="321.484375" xlink:href="#d"/>
</g>
</g>
<g clip-path="url(#a)">
<g transform="translate(94.428 970.03) scale(.1 -.1)">
<defs>
<path id="v" d="m45.406 46.391v29.594h8.9844v-75.984h-8.9844v8.2031q-2.8281-4.875-7.1562-7.25-4.3125-2.375-10.375-2.375-9.9062 0-16.141 7.9062-6.2188 7.9219-6.2188 20.812t6.2188 20.797q6.2344 7.9062 16.141 7.9062 6.0625 0 10.375-2.375 4.3281-2.3594 7.1562-7.2344zm-30.609-19.094q0-9.9062 4.0781-15.547t11.203-5.6406 11.219 5.6406q4.1094 5.6406 4.1094 15.547t-4.1094 15.547q-4.0938 5.6406-11.219 5.6406t-11.203-5.6406-4.0781-15.547z"/>
<path id="u" d="m44.281 53.078v-8.5q-3.7969 1.9531-7.9062 2.9219-4.0938 0.98438-8.5 0.98438-6.6875 0-10.031-2.0469t-3.3438-6.1562q0-3.125 2.3906-4.9062t9.625-3.3906l3.0781-0.6875q9.5625-2.0469 13.594-5.7812t4.0312-10.422q0-7.625-6.0312-12.078-6.0312-4.4375-16.578-4.4375-4.3906 0-9.1562 0.85938t-10.031 2.5625v9.2812q4.9844-2.5938 9.8125-3.8906 4.8281-1.2812 9.5781-1.2812 6.3438 0 9.75 2.1719 3.4219 2.1719 3.4219 6.125 0 3.6562-2.4688 5.6094-2.4531 1.9531-10.812 3.7656l-3.125 0.73438q-8.3438 1.75-12.062 5.3906-3.7031 3.6406-3.7031 9.9844 0 7.7188 5.4688 11.906 5.4688 4.2031 15.531 4.2031 4.9688 0 9.3594-0.73438 4.4062-0.71875 8.1094-2.1875z"/>
</defs>
<use xlink:href="#v"/>
<use x="63.476562" xlink:href="#d"/>
<use x="125" xlink:href="#u"/>
</g>
</g>
<g clip-path="url(#a)">
<g transform="translate(100.68 970.03) scale(.1 -.1)">
<defs>
<path id="al" d="m48.688 27.297q0 9.9062-4.0781 15.547t-11.203 5.6406q-7.1406 0-11.219-5.6406t-4.0781-15.547 4.0781-15.547 11.219-5.6406q7.125 0 11.203 5.6406t4.0781 15.547zm-30.578 19.094q2.8438 4.875 7.1562 7.2344 4.3281 2.375 10.328 2.375 9.9688 0 16.188-7.9062 6.2344-7.9062 6.2344-20.797t-6.2344-20.812q-6.2188-7.9062-16.188-7.9062-6 0-10.328 2.375-4.3125 2.375-7.1562 7.25v-8.2031h-9.0312v75.984h9.0312z"/>
</defs>
<use xlink:href="#al"/>
<use x="63.476562" xlink:href="#x"/>
<use x="124.658203" xlink:href="#f"/>
<use x="185.9375" xlink:href="#o"/>
<use x="225.146484" xlink:href="#u"/>
</g>
</g>
<g clip-path="url(#a)">
<g transform="translate(123.03 970.03) scale(.1 -.1)">
<use xlink:href="#d"/>
<use x="61.523438" xlink:href="#o"/>
</g>
</g>
<g clip-path="url(#a)">
<g transform="translate(134.98 970.03) scale(.1 -.1)">
<use xlink:href="#v"/>
<use x="63.476562" xlink:href="#d"/>
<use x="125" xlink:href="#u"/>
</g>
</g>
<g clip-path="url(#a)">
<g transform="translate(142.74 970.03) scale(.1 -.1)">
<use xlink:href="#o"/>
<use x="39.208984" xlink:href="#d"/>
<use x="100.732422" xlink:href="#i"/>
<use x="164.111328" xlink:href="#v"/>
<use x="227.587891" xlink:href="#d"/>
<use x="289.111328" xlink:href="#g"/>
<use x="330.224609" xlink:href="#u"/>
</g>
</g>
<g clip-path="url(#a)">
<g transform="translate(165.59 970.03) scale(.1 -.1)">
<defs>
<path id="t" d="m8.5 21.578v33.109h8.9844v-32.766q0-7.7656 3.0156-11.656 3.0312-3.875 9.0938-3.875 7.2656 0 11.484 4.6406 4.2344 4.6406 4.2344 12.656v31h8.9844v-54.688h-8.9844v8.4062q-3.2656-4.9844-7.5938-7.4062-4.3125-2.4219-10.031-2.4219-9.4219 0-14.312 5.8594-4.875 5.8594-4.875 17.141z"/>
<path id="bc" d="m2.9844 54.688h9.5156l17.094-45.891 17.094 45.891h9.5156l-20.516-54.688h-12.203z"/>
</defs>
<use xlink:href="#u"/>
<use x="52.099609" xlink:href="#t"/>
<use x="115.478516" xlink:href="#j"/>
<use x="143.261719" xlink:href="#bc"/>
<use x="202.441406" xlink:href="#f"/>
<use x="263.720703" xlink:href="#j"/>
<use x="291.503906" xlink:href="#o"/>
</g>
</g>
<g clip-path="url(#a)">
<g transform="translate(184.19 970.03) scale(.1 -.1)">
<defs>
<path id="bf" d="m9.4219 54.688h8.9844v-55.672q0-10.438-3.9844-15.125-3.9688-4.6875-12.812-4.6875h-3.4219v7.6094h2.4062q5.125 0 6.9688 2.375 1.8594 2.3594 1.8594 9.8281zm0 21.297h8.9844v-11.391h-8.9844z"/>
</defs>
<use xlink:href="#o"/>
<use x="39.208984" xlink:href="#x"/>
<use x="100.390625" xlink:href="#t"/>
<use x="163.769531" xlink:href="#bf"/>
<use x="191.552734" xlink:href="#x"/>
<use x="252.734375" xlink:href="#t"/>
<use x="316.113281" xlink:href="#g"/>
<use x="357.226562" xlink:href="#u"/>
</g>
</g>
<g clip-path="url(#a)">
<g transform="translate(224.98 970.03) scale(.1 -.1)">
<use xlink:href="#h"/>
<use x="27.783203" xlink:href="#f"/>
</g>
</g>
<g clip-path="url(#a)">
<g transform="translate(238.41 970.23) scale(.1 -.1)">
<defs>
<path id="ar" d="m37.109 75.984v-7.4844h-8.5938q-4.8281 0-6.7188-1.9531-1.875-1.9531-1.875-7.0312v-4.8281h14.797v-6.9844h-14.797v-47.703h-9.0312v47.703h-8.5938v6.9844h8.5938v3.8125q0 9.125 4.25 13.297 4.25 4.1875 13.469 4.1875z"/>
<path id="ao" d="m56.203 29.594v-4.3906h-41.312q0.59375-9.2812 5.5938-14.141t13.938-4.8594q5.1719 0 10.031 1.2656t9.6562 3.8125v-8.5q-4.8438-2.0469-9.9219-3.125t-10.297-1.0781q-13.094 0-20.734 7.6094-7.6406 7.625-7.6406 20.625 0 13.422 7.25 21.297 7.25 7.8906 19.562 7.8906 11.031 0 17.453-7.1094 6.4219-7.0938 6.4219-19.297zm-8.9844 2.6406q-0.09375 7.3594-4.125 11.75-4.0312 4.4062-10.672 4.4062-7.5156 0-12.031-4.25t-5.2031-11.969zm-8.6875 47.75h9.7188l-15.906-18.359h-7.4844z"/>
</defs>
<use xlink:href="#ar"/>
<use x="35.205078" xlink:href="#g"/>
<use x="74.068359" xlink:href="#ao"/>
<use x="135.591797" xlink:href="#ak"/>
<use x="199.068359" xlink:href="#f"/>
<use x="260.347656" xlink:href="#o"/>
<use x="299.556641" xlink:href="#d"/>
</g>
</g>
<g clip-path="url(#a)">
<g transform="translate(284.16 970.03) scale(.1 -.1)">
<defs>
<path id="ax" d="m11.719 12.406h10.297v-8.4062l-8-15.625h-6.2969l4 15.625z"/>
</defs>
<use xlink:href="#ax"/>
</g>
</g>
<g clip-path="url(#a)">
<g transform="translate(312.25 970.03) scale(.1 -.1)">
<use xlink:href="#d"/>
<use x="61.523438" xlink:href="#o"/>
</g>
</g>
<g clip-path="url(#a)">
<g transform="translate(348.3 970.03) scale(.1 -.1)">
<use xlink:href="#j"/>
<use x="27.783203" xlink:href="#h"/>
</g>
</g>
<g clip-path="url(#a)">
<g transform="translate(380.87 970.03) scale(.1 -.1)">
<use xlink:href="#i"/>
<use x="63.378906" xlink:href="#d"/>
</g>
</g>
<g clip-path="url(#a)">
<g transform="translate(420.96 970.03) scale(.1 -.1)">
<use xlink:href="#h"/>
<use x="27.783203" xlink:href="#f"/>
</g>
</g>
<g clip-path="url(#a)">
<g transform="translate(451.24 970.03) scale(.1 -.1)">
<defs>
<path id="aj" d="m14.797 27.297q0-9.9062 4.0781-15.547t11.203-5.6406 11.219 5.6406q4.1094 5.6406 4.1094 15.547t-4.1094 15.547q-4.0938 5.6406-11.219 5.6406t-11.203-5.6406-4.0781-15.547zm30.609-19.094q-2.8281-4.875-7.1562-7.25-4.3125-2.375-10.375-2.375-9.9062 0-16.141 7.9062-6.2188 7.9219-6.2188 20.812t6.2188 20.797q6.2344 7.9062 16.141 7.9062 6.0625 0 10.375-2.375 4.3281-2.3594 7.1562-7.2344v8.2969h8.9844v-75.484h-8.9844z"/>
</defs>
<use xlink:href="#aj"/>
<use x="63.476562" xlink:href="#t"/>
<use x="126.855469" xlink:href="#j"/>
<use x="154.638672" xlink:href="#o"/>
<use x="193.847656" xlink:href="#o"/>
<use x="233.056641" xlink:href="#f"/>
</g>
</g>
<g clip-path="url(#a)">
<g transform="translate(501.04 970.03) scale(.1 -.1)">
<defs>
<path id="an" d="m17.922 72.906v-27.109h-8.2969v27.109z"/>
</defs>
<use xlink:href="#aj"/>
<use x="63.476562" xlink:href="#t"/>
<use x="126.855469" xlink:href="#an"/>
</g>
</g>
<g clip-path="url(#a)">
<g transform="translate(550.75 970.03) scale(.1 -.1)">
<defs>
<path id="az" d="m34.281 27.484q-10.891 0-15.094-2.4844t-4.2031-8.5q0-4.7812 3.1562-7.5938 3.1562-2.7969 8.5625-2.7969 7.4844 0 12 5.2969t4.5156 14.078v2zm17.922 3.7188v-31.203h-8.9844v8.2969q-3.0781-4.9688-7.6719-7.3438t-11.234-2.375q-8.3906 0-13.359 4.7188-4.9531 4.7188-4.9531 12.625 0 9.2188 6.1719 13.906 6.1875 4.6875 18.438 4.6875h12.609v0.89062q0 6.2031-4.0781 9.5938t-11.453 3.3906q-4.6875 0-9.1406-1.125-4.4375-1.125-8.5312-3.375v8.3125q4.9219 1.9062 9.5625 2.8438 4.6406 0.95312 9.0312 0.95312 11.875 0 17.734-6.1562 5.8594-6.1406 5.8594-18.641zm-30.281 48.781 13.766-18.266h-7.4688l-15.922 18.266z"/>
</defs>
<use xlink:href="#az"/>
</g>
</g>
<g clip-path="url(#a)">
<g transform="translate(596.66 970.03) scale(.1 -.1)">
<use xlink:href="#h"/>
<use x="27.783203" xlink:href="#f"/>
</g>
</g>
<g clip-path="url(#a)">
<g transform="translate(631.01 970.03) scale(.1 -.1)">
<defs>
<path id="aq" d="m54.891 33.016v-33.016h-8.9844v32.719q0 7.7656-3.0312 11.609-3.0312 3.8594-9.0781 3.8594-7.2812 0-11.484-4.6406-4.2031-4.625-4.2031-12.641v-30.906h-9.0312v75.984h9.0312v-29.797q3.2344 4.9375 7.5938 7.375 4.375 2.4375 10.094 2.4375 9.4219 0 14.25-5.8281 4.8438-5.8281 4.8438-17.156z"/>
</defs>
<use xlink:href="#aq"/>
<use x="63.378906" xlink:href="#f"/>
<use x="124.658203" xlink:href="#t"/>
<use x="188.037109" xlink:href="#o"/>
<use x="227.246094" xlink:href="#d"/>
<use x="288.769531" xlink:href="#t"/>
<use x="352.148438" xlink:href="#g"/>
</g>
</g>
<g clip-path="url(#a)">
<g transform="translate(696.14 970.03) scale(.1 -.1)">
<use xlink:href="#v"/>
<use x="63.476562" xlink:href="#t"/>
</g>
</g>
<g clip-path="url(#a)">
<g transform="translate(745.47 970.03) scale(.1 -.1)">
<use xlink:href="#h"/>
<use x="27.783203" xlink:href="#j"/>
<use x="55.566406" xlink:href="#ak"/>
<use x="119.042969" xlink:href="#aq"/>
<use x="182.421875" xlink:href="#o"/>
</g>
</g>
<g clip-path="url(#a)">
<g transform="translate(811.06 970.03) scale(.1 -.1)">
<defs>
<path id="aw" d="m4.8906 31.391h26.312v-8h-26.312z"/>
</defs>
<use xlink:href="#aw"/>
</g>
</g>
<g clip-path="url(#a)">
<g transform="translate(860.18 970.03) scale(.1 -.1)">
<use xlink:href="#al"/>
<use x="63.476562" xlink:href="#x"/>
<use x="124.658203" xlink:href="#f"/>
<use x="185.9375" xlink:href="#o"/>
</g>
</g>
<g clip-path="url(#a)">
<g transform="translate(920.89 970.03) scale(.1 -.1)">
<use xlink:href="#v"/>
<use x="63.476562" xlink:href="#x"/>
<use x="124.658203" xlink:href="#i"/>
<use x="188.037109" xlink:href="#o"/>
</g>
</g>
<g clip-path="url(#a)">
<g transform="translate(988.26 970.03) scale(.1 -.1)">
<use xlink:href="#h"/>
<use x="27.783203" xlink:href="#d"/>
<use x="89.306641" xlink:href="#u"/>
</g>
</g>
<g clip-path="url(#a)">
<g transform="translate(1048.3 970.03) scale(.1 -.1)">
<defs>
<path id="ap" d="m54.891 54.688-19.781-26.609 20.797-28.078h-10.594l-15.922 21.484-15.906-21.484h-10.609l21.25 28.609-19.438 26.078h10.594l14.5-19.484 14.5 19.484z"/>
</defs>
<use xlink:href="#v"/>
<use x="63.476562" xlink:href="#d"/>
<use x="125" xlink:href="#t"/>
<use x="188.378906" xlink:href="#ap"/>
</g>
</g>
<g clip-path="url(#a)">
<g transform="translate(1117.3 970.03) scale(.1 -.1)">
<use xlink:href="#ar"/>
<use x="35.205078" xlink:href="#d"/>
<use x="96.728516" xlink:href="#t"/>
<use x="160.107422" xlink:href="#ap"/>
</g>
</g>
<g clip-path="url(#a)">
<g transform="translate(1173.6 970.03) scale(.1 -.1)">
<use xlink:href="#l"/>
<use x="97.412109" xlink:href="#f"/>
<use x="158.691406" xlink:href="#g"/>
<use x="198.054688" xlink:href="#aj"/>
<use x="261.53125" xlink:href="#t"/>
<use x="324.910156" xlink:href="#d"/>
<use x="386.433594" xlink:href="#i"/>
<use x="449.8125" xlink:href="#o"/>
</g>
</g>
<g clip-path="url(#a)">
<g transform="translate(1267.4 970.03) scale(.1 -.1)">
<use xlink:href="#h"/>
<use x="27.783203" xlink:href="#an"/>
</g>
</g>
<g clip-path="url(#a)">
<g transform="translate(1328.2 970.03) scale(.1 -.1)">
<use xlink:href="#d"/>
<use x="61.523438" xlink:href="#i"/>
<use x="124.902344" xlink:href="#o"/>
<use x="164.111328" xlink:href="#g"/>
<use x="202.974609" xlink:href="#ao"/>
<use x="264.498047" xlink:href="#d"/>
</g>
</g>
<g clip-path="url(#a)">
<g transform="translate(1412.2 970.03) scale(.1 -.1)">
<use xlink:href="#v"/>
<use x="63.476562" xlink:href="#d"/>
<use x="125" xlink:href="#u"/>
</g>
</g>
<g clip-path="url(#a)">
<g transform="translate(1482.8 970.03) scale(.1 -.1)">
<defs>
<path id="bd" d="m18.109 8.2031v-29h-9.0312v75.484h9.0312v-8.2969q2.8438 4.875 7.1562 7.2344 4.3281 2.375 10.328 2.375 9.9688 0 16.188-7.9062 6.2344-7.9062 6.2344-20.797t-6.2344-20.812q-6.2188-7.9062-16.188-7.9062-6 0-10.328 2.375-4.3125 2.375-7.1562 7.25zm30.578 19.094q0 9.9062-4.0781 15.547t-11.203 5.6406q-7.1406 0-11.219-5.6406t-4.0781-15.547 4.0781-15.547 11.219-5.6406q7.125 0 11.203 5.6406t4.0781 15.547z"/>
</defs>
<use xlink:href="#bd"/>
<use x="63.476562" xlink:href="#f"/>
<use x="124.755859" xlink:href="#u"/>
<use x="176.855469" xlink:href="#u"/>
<use x="228.955078" xlink:href="#d"/>
<use x="290.478516" xlink:href="#u"/>
</g>
</g>
<g clip-path="url(#a)">
<g transform="translate(1574.8 970.03) scale(.1 -.1)">
<use xlink:href="#v"/>
<use x="63.476562" xlink:href="#d"/>
</g>
</g>
<g clip-path="url(#a)">
<g transform="translate(1653.5 970.03) scale(.1 -.1)">
<defs>
<path id="bb" d="m4.2031 54.688h8.9844l11.234-42.672 11.172 42.672h10.594l11.234-42.672 11.188 42.672h8.9844l-14.312-54.688h-10.594l-11.766 44.828-11.812-44.828h-10.609z"/>
</defs>
<use xlink:href="#am"/>
<use x="74.804688" xlink:href="#d"/>
<use x="136.328125" xlink:href="#bb"/>
</g>
</g>
<g clip-path="url(#a)">
<g transform="translate(1739.6 970.03) scale(.1 -.1)">
<defs>
<path id="at" d="m-0.20312 72.906h10.609l20.203-29.984 20.078 29.984h10.594l-25.781-38.188v-34.719h-9.9062v34.719z"/>
<path id="be" d="m9.0781 75.984h9.0312v-44.875l26.812 23.578h11.469l-29-25.578 30.234-29.109h-11.719l-27.797 26.703v-26.703h-9.0312z"/>
</defs>
<use xlink:href="#at"/>
<use x="47.833984" xlink:href="#x"/>
<use x="109.015625" xlink:href="#g"/>
<use x="150.128906" xlink:href="#be"/>
</g>
</g>
<g clip-path="url(#a)">
<g transform="translate(1836.2 970.03) scale(.1 -.1)">
<defs>
<path id="e" d="m10.688 12.406h10.312v-12.406h-10.312z"/>
</defs>
<use xlink:href="#e"/>
</g>
</g>
<g clip-path="url(#a)">
<g transform="translate(355.51 48.82) scale(.1 -.1)">
<defs>
<path id="c" d="m12.406 8.2969h16.109v55.625l-17.531-3.5156v8.9844l17.438 3.5156h9.8594v-64.609h16.109v-8.2969h-41.984z"/>
</defs>
<use xlink:href="#c"/>
<use x="63.623047" xlink:href="#e"/>
<use x="95.410156" xlink:href="#c"/>
</g>
</g>
<g clip-path="url(#a)">
<g transform="translate(177.08 396.97) scale(.1 -.1)">
<defs>
<path id="q" d="m19.188 8.2969h34.422v-8.2969h-46.281v8.2969q5.6094 5.8125 15.297 15.594 9.7031 9.7969 12.188 12.641 4.7344 5.3125 6.6094 9 1.8906 3.6875 1.8906 7.25 0 5.8125-4.0781 9.4688-4.0781 3.6719-10.625 3.6719-4.6406 0-9.7969-1.6094-5.1406-1.6094-11-4.8906v9.9688q5.9531 2.3906 11.125 3.6094 5.1875 1.2188 9.4844 1.2188 11.328 0 18.062-5.6719 6.7344-5.6562 6.7344-15.125 0-4.5-1.6875-8.5312-1.6719-4.0156-6.125-9.4844-1.2188-1.4219-7.7656-8.1875-6.5312-6.7656-18.453-18.922z"/>
</defs>
<use xlink:href="#c"/>
<use x="63.623047" xlink:href="#e"/>
<use x="95.410156" xlink:href="#q"/>
</g>
</g>
<g clip-path="url(#a)">
<g transform="translate(309.33 857.25) scale(.1 -.1)">
<defs>
<path id="n" d="m40.578 39.312q7.0781-1.5156 11.047-6.3125 3.9844-4.7812 3.9844-11.812 0-10.781-7.4219-16.703-7.4219-5.9062-21.094-5.9062-4.5781 0-9.4375 0.90625t-10.031 2.7188v9.5156q4.0938-2.3906 8.9688-3.6094 4.8906-1.2188 10.219-1.2188 9.2656 0 14.125 3.6562t4.8594 10.641q0 6.4531-4.5156 10.078-4.5156 3.6406-12.562 3.6406h-8.5v8.1094h8.8906q7.2656 0 11.125 2.9062t3.8594 8.375q0 5.6094-3.9844 8.6094-3.9688 3.0156-11.391 3.0156-4.0625 0-8.7031-0.89062-4.6406-0.875-10.203-2.7188v8.7812q5.625 1.5625 10.531 2.3438t9.25 0.78125q11.234 0 17.766-5.1094 6.5469-5.0938 6.5469-13.781 0-6.0625-3.4688-10.234t-9.8594-5.7812z"/>
</defs>
<use xlink:href="#c"/>
<use x="63.623047" xlink:href="#e"/>
<use x="95.410156" xlink:href="#n"/>
</g>
</g>
<g clip-path="url(#a)">
<g transform="translate(399.44 742.9) scale(.1 -.1)">
<defs>
<path id="m" d="m37.797 64.312-24.906-38.922h24.906zm-2.5938 8.5938h12.406v-47.516h10.406v-8.2031h-10.406v-17.188h-9.8125v17.188h-32.906v9.5156z"/>
</defs>
<use xlink:href="#c"/>
<use x="63.623047" xlink:href="#e"/>
<use x="95.410156" xlink:href="#m"/>
</g>
</g>
<g clip-path="url(#a)">
<g transform="translate(500.81 857.25) scale(.1 -.1)">
<defs>
<path id="p" d="m10.797 72.906h38.719v-8.3125h-29.688v-17.859q2.1406 0.73438 4.2812 1.0938 2.1562 0.35938 4.3125 0.35938 12.203 0 19.328-6.6875 7.1406-6.6875 7.1406-18.109 0-11.766-7.3281-18.297-7.3281-6.5156-20.656-6.5156-4.5938 0-9.3594 0.78125-4.75 0.78125-9.8281 2.3438v9.9219q4.3906-2.3906 9.0781-3.5625t9.9062-1.1719q8.4531 0 13.375 4.4375 4.9375 4.4375 4.9375 12.062 0 7.6094-4.9375 12.047-4.9219 4.4531-13.375 4.4531-3.9531 0-7.8906-0.875-3.9219-0.875-8.0156-2.7344z"/>
</defs>
<use xlink:href="#c"/>
<use x="63.623047" xlink:href="#e"/>
<use x="95.410156" xlink:href="#p"/>
</g>
</g>
<g clip-path="url(#a)">
<g transform="translate(468.57 165.05) scale(.1 -.1)">
<defs>
<path id="z" d="m33.016 40.375q-6.6406 0-10.531-4.5469-3.875-4.5312-3.875-12.438 0-7.8594 3.875-12.438 3.8906-4.5625 10.531-4.5625t10.516 4.5625q3.875 4.5781 3.875 12.438 0 7.9062-3.875 12.438-3.875 4.5469-10.516 4.5469zm19.578 30.922v-8.9844q-3.7188 1.75-7.5 2.6719-3.7812 0.9375-7.5 0.9375-9.7656 0-14.922-6.5938-5.1406-6.5938-5.875-19.922 2.875 4.25 7.2188 6.5156 4.3594 2.2656 9.5781 2.2656 10.984 0 17.359-6.6719 6.375-6.6562 6.375-18.125 0-11.234-6.6406-18.031-6.6406-6.7812-17.672-6.7812-12.656 0-19.344 9.6875-6.6875 9.7031-6.6875 28.109 0 17.281 8.2031 27.562t22.016 10.281q3.7188 0 7.5-0.73438t7.8906-2.1875z"/>
</defs>
<use xlink:href="#c"/>
<use x="63.623047" xlink:href="#e"/>
<use x="95.410156" xlink:href="#z"/>
</g>
</g>
<g clip-path="url(#a)">
<g transform="translate(655.71 281.11) scale(.1 -.1)">
<defs>
<path id="ad" d="m31.781 34.625q-7.0312 0-11.062-3.7656-4.0156-3.7656-4.0156-10.344 0-6.5938 4.0156-10.359 4.0312-3.7656 11.062-3.7656t11.078 3.7812q4.0625 3.7969 4.0625 10.344 0 6.5781-4.0312 10.344-4.0156 3.7656-11.109 3.7656zm-9.8594 4.1875q-6.3438 1.5625-9.8906 5.9062-3.5312 4.3594-3.5312 10.609 0 8.7344 6.2188 13.812 6.2344 5.0781 17.062 5.0781 10.891 0 17.094-5.0781t6.2031-13.812q0-6.25-3.5469-10.609-3.5312-4.3438-9.8281-5.9062 7.125-1.6562 11.094-6.5 3.9844-4.8281 3.9844-11.797 0-10.609-6.4688-16.281-6.4688-5.6562-18.531-5.6562-12.047 0-18.531 5.6562-6.4688 5.6719-6.4688 16.281 0 6.9688 4 11.797 4.0156 4.8438 11.141 6.5zm-3.6094 15.578q0-5.6562 3.5312-8.8281 3.5469-3.1719 9.9375-3.1719 6.3594 0 9.9375 3.1719 3.5938 3.1719 3.5938 8.8281 0 5.6719-3.5938 8.8438-3.5781 3.1719-9.9375 3.1719-6.3906 0-9.9375-3.1719-3.5312-3.1719-3.5312-8.8438z"/>
</defs>
<use xlink:href="#c"/>
<use x="63.623047" xlink:href="#e"/>
<use x="95.410156" xlink:href="#ad"/>
</g>
</g>
<g clip-path="url(#a)">
<g transform="translate(545.86 857.25) scale(.1 -.1)">
<defs>
<path id="ac" d="m10.984 1.5156v8.9844q3.7188-1.7656 7.5156-2.6875 3.8125-0.92188 7.4844-0.92188 9.7656 0 14.906 6.5625 5.1562 6.5625 5.8906 19.953-2.8281-4.2031-7.1875-6.4531-4.3438-2.25-9.6094-2.25-10.938 0-17.312 6.6094-6.375 6.625-6.375 18.109 0 11.219 6.6406 18 6.6406 6.7969 17.672 6.7969 12.656 0 19.312-9.7031 6.6719-9.6875 6.6719-28.141 0-17.234-8.1875-27.516-8.1719-10.281-21.984-10.281-3.7188 0-7.5312 0.73438-3.7969 0.73438-7.9062 2.2031zm19.625 30.906q6.6406 0 10.516 4.5312 3.8906 4.5469 3.8906 12.469 0 7.8594-3.8906 12.422-3.875 4.5625-10.516 4.5625t-10.516-4.5625-3.875-12.422q0-7.9219 3.875-12.469 3.875-4.5312 10.516-4.5312z"/>
</defs>
<use xlink:href="#c"/>
<use x="63.623047" xlink:href="#e"/>
<use x="95.410156" xlink:href="#ac"/>
</g>
</g>
<g clip-path="url(#a)">
<g transform="translate(589.98 857.25) scale(.1 -.1)">
<defs>
<path id="ae" d="m31.781 66.406q-7.6094 0-11.453-7.5-3.8281-7.4844-3.8281-22.531 0-14.984 3.8281-22.484 3.8438-7.5 11.453-7.5 7.6719 0 11.5 7.5 3.8438 7.5 3.8438 22.484 0 15.047-3.8438 22.531-3.8281 7.5-11.5 7.5zm0 7.8125q12.266 0 18.734-9.7031 6.4688-9.6875 6.4688-28.141 0-18.406-6.4688-28.109-6.4688-9.6875-18.734-9.6875-12.25 0-18.719 9.6875-6.4688 9.7031-6.4688 28.109 0 18.453 6.4688 28.141 6.4688 9.7031 18.719 9.7031z"/>
</defs>
<use xlink:href="#c"/>
<use x="63.623047" xlink:href="#e"/>
<use x="95.410156" xlink:href="#c"/>
<use x="159.033203" xlink:href="#ae"/>
</g>
</g>
<g clip-path="url(#a)">
<g transform="translate(639.54 857.25) scale(.1 -.1)">
<use xlink:href="#c"/>
<use x="63.623047" xlink:href="#e"/>
<use x="95.410156" xlink:href="#c"/>
<use x="159.033203" xlink:href="#c"/>
</g>
</g>
<g clip-path="url(#a)">
<g transform="translate(837.9 396.97) scale(.1 -.1)">
<use xlink:href="#c"/>
<use x="63.623047" xlink:href="#e"/>
<use x="95.410156" xlink:href="#c"/>
<use x="159.033203" xlink:href="#q"/>
</g>
</g>
<g clip-path="url(#a)">
<g transform="translate(691.35 857.25) scale(.1 -.1)">
<use xlink:href="#c"/>
<use x="63.623047" xlink:href="#e"/>
<use x="95.410156" xlink:href="#c"/>
<use x="159.033203" xlink:href="#n"/>
</g>
</g>
<g clip-path="url(#a)">
<g transform="translate(745.42 857.25) scale(.1 -.1)">
<use xlink:href="#c"/>
<use x="63.623047" xlink:href="#e"/>
<use x="95.410156" xlink:href="#c"/>
<use x="159.033203" xlink:href="#m"/>
</g>
</g>
<g clip-path="url(#a)">
<g transform="translate(860.3 857.25) scale(.1 -.1)">
<use xlink:href="#c"/>
<use x="63.623047" xlink:href="#e"/>
<use x="95.410156" xlink:href="#c"/>
<use x="159.033203" xlink:href="#p"/>
</g>
</g>
<g clip-path="url(#a)">
<g transform="translate(1090.7 512.61) scale(.1 -.1)">
<use xlink:href="#c"/>
<use x="63.623047" xlink:href="#e"/>
<use x="95.410156" xlink:href="#c"/>
<use x="159.033203" xlink:href="#z"/>
</g>
</g>
<g clip-path="url(#a)">
<g transform="translate(921.12 857.25) scale(.1 -.1)">
<use xlink:href="#c"/>
<use x="63.623047" xlink:href="#e"/>
<use x="95.410156" xlink:href="#c"/>
<use x="159.033203" xlink:href="#ad"/>
</g>
</g>
<g clip-path="url(#a)">
<g transform="translate(1050.3 742.9) scale(.1 -.1)">
<use xlink:href="#c"/>
<use x="63.623047" xlink:href="#e"/>
<use x="95.410156" xlink:href="#c"/>
<use x="159.033203" xlink:href="#ac"/>
</g>
</g>
<g clip-path="url(#a)">
<g transform="translate(1186.9 857.25) scale(.1 -.1)">
<use xlink:href="#c"/>
<use x="63.623047" xlink:href="#e"/>
<use x="95.410156" xlink:href="#q"/>
<use x="159.033203" xlink:href="#ae"/>
</g>
</g>
<g clip-path="url(#a)">
<g transform="translate(1434.8 627.95) scale(.1 -.1)">
<use xlink:href="#c"/>
<use x="63.623047" xlink:href="#e"/>
<use x="95.410156" xlink:href="#q"/>
<use x="159.033203" xlink:href="#c"/>
</g>
</g>
<g clip-path="url(#a)">
<g transform="translate(1259 857.25) scale(.1 -.1)">
<use xlink:href="#c"/>
<use x="63.623047" xlink:href="#e"/>
<use x="95.410156" xlink:href="#q"/>
<use x="159.033203" xlink:href="#q"/>
</g>
</g>
<g clip-path="url(#a)">
<g transform="translate(1333.4 857.25) scale(.1 -.1)">
<use xlink:href="#c"/>
<use x="63.623047" xlink:href="#e"/>
<use x="95.410156" xlink:href="#q"/>
<use x="159.033203" xlink:href="#n"/>
</g>
</g>
<g clip-path="url(#a)">
<g transform="translate(1449.4 742.9) scale(.1 -.1)">
<use xlink:href="#c"/>
<use x="63.623047" xlink:href="#e"/>
<use x="95.410156" xlink:href="#q"/>
<use x="159.033203" xlink:href="#m"/>
</g>
</g>
<g clip-path="url(#a)">
<g transform="translate(1697.5 742.9) scale(.1 -.1)">
<use xlink:href="#c"/>
<use x="63.623047" xlink:href="#e"/>
<use x="95.410156" xlink:href="#q"/>
<use x="159.033203" xlink:href="#p"/>
</g>
</g>
<g clip-path="url(#a)">
<g transform="translate(1569.9 857.25) scale(.1 -.1)">
<use xlink:href="#c"/>
<use x="63.623047" xlink:href="#e"/>
<use x="95.410156" xlink:href="#q"/>
<use x="159.033203" xlink:href="#z"/>
</g>
</g>
<g clip-path="url(#a)">
<g transform="translate(1696 857.25) scale(.1 -.1)">
<defs>
<path id="af" d="m8.2031 72.906h46.875v-4.2031l-26.469-68.703h-10.297l24.906 64.594h-35.016z"/>
</defs>
<use xlink:href="#c"/>
<use x="63.623047" xlink:href="#e"/>
<use x="95.410156" xlink:href="#q"/>
<use x="159.033203" xlink:href="#af"/>
</g>
</g>
<g clip-path="url(#a)">
<g transform="translate(1409.9 857.25) scale(.1 -.1)">
<use xlink:href="#c"/>
<use x="63.623047" xlink:href="#e"/>
<use x="95.410156" xlink:href="#q"/>
<use x="159.033203" xlink:href="#ac"/>
</g>
</g>
<g clip-path="url(#a)">
<g transform="translate(1488.8 857.25) scale(.1 -.1)">
<use xlink:href="#c"/>
<use x="63.623047" xlink:href="#e"/>
<use x="95.410156" xlink:href="#n"/>
<use x="159.033203" xlink:href="#ae"/>
</g>
</g>
<g clip-path="url(#a)">
<g transform="translate(984.2 857.25) scale(.1 -.1)">
<use xlink:href="#c"/>
<use x="63.623047" xlink:href="#e"/>
<use x="95.410156" xlink:href="#n"/>
<use x="159.033203" xlink:href="#c"/>
</g>
</g>
<g clip-path="url(#a)">
<g transform="translate(1049.5 857.25) scale(.1 -.1)">
<use xlink:href="#c"/>
<use x="63.623047" xlink:href="#e"/>
<use x="95.410156" xlink:href="#n"/>
<use x="159.033203" xlink:href="#q"/>
</g>
</g>
<g clip-path="url(#a)">
<g transform="translate(1117.1 857.25) scale(.1 -.1)">
<use xlink:href="#c"/>
<use x="63.623047" xlink:href="#e"/>
<use x="95.410156" xlink:href="#n"/>
<use x="159.033203" xlink:href="#n"/>
</g>
</g>
<g clip-path="url(#a)">
<g transform="translate(339.94 857.25) scale(.1 -.1)">
<use xlink:href="#c"/>
<use x="63.623047" xlink:href="#e"/>
<use x="95.410156" xlink:href="#n"/>
<use x="159.033203" xlink:href="#m"/>
</g>
</g>
<g clip-path="url(#a)">
<g transform="translate(375.98 857.25) scale(.1 -.1)">
<use xlink:href="#c"/>
<use x="63.623047" xlink:href="#e"/>
<use x="95.410156" xlink:href="#n"/>
<use x="159.033203" xlink:href="#p"/>
</g>
</g>
<g clip-path="url(#a)">
<g transform="translate(414.28 857.25) scale(.1 -.1)">
<use xlink:href="#c"/>
<use x="63.623047" xlink:href="#e"/>
<use x="95.410156" xlink:href="#n"/>
<use x="159.033203" xlink:href="#z"/>
</g>
</g>
<g clip-path="url(#a)">
<g transform="translate(454.83 857.25) scale(.1 -.1)">
<use xlink:href="#c"/>
<use x="63.623047" xlink:href="#e"/>
<use x="95.410156" xlink:href="#n"/>
<use x="159.033203" xlink:href="#af"/>
</g>
</g>
<g clip-path="url(#a)">
<g transform="translate(99.284 512.61) scale(.1 -.1)">
<use xlink:href="#c"/>
<use x="63.623047" xlink:href="#e"/>
<use x="95.410156" xlink:href="#n"/>
<use x="159.033203" xlink:href="#ad"/>
</g>
</g>
<g clip-path="url(#a)">
<g transform="translate(170.99 857.25) scale(.1 -.1)">
<use xlink:href="#c"/>
<use x="63.623047" xlink:href="#e"/>
<use x="95.410156" xlink:href="#n"/>
<use x="159.033203" xlink:href="#ac"/>
</g>
</g>
<g clip-path="url(#a)">
<g transform="translate(193.52 857.25) scale(.1 -.1)">
<use xlink:href="#c"/>
<use x="63.623047" xlink:href="#e"/>
<use x="95.410156" xlink:href="#m"/>
<use x="159.033203" xlink:href="#ae"/>
</g>
</g>
<g clip-path="url(#a)">
<g transform="translate(231.81 742.9) scale(.1 -.1)">
<use xlink:href="#c"/>
<use x="63.623047" xlink:href="#e"/>
<use x="95.410156" xlink:href="#m"/>
<use x="159.033203" xlink:href="#c"/>
</g>
</g>
<g clip-path="url(#a)">
<g transform="translate(218.3 857.25) scale(.1 -.1)">
<use xlink:href="#c"/>
<use x="63.623047" xlink:href="#e"/>
<use x="95.410156" xlink:href="#m"/>
<use x="159.033203" xlink:href="#q"/>
</g>
</g>
<g clip-path="url(#a)">
<g transform="translate(245.33 857.25) scale(.1 -.1)">
<use xlink:href="#c"/>
<use x="63.623047" xlink:href="#e"/>
<use x="95.410156" xlink:href="#m"/>
<use x="159.033203" xlink:href="#n"/>
</g>
</g>
<g clip-path="url(#a)">
<g transform="translate(79.761 627.95) scale(.1 -.1)">
<use xlink:href="#c"/>
<use x="63.623047" xlink:href="#e"/>
<use x="95.410156" xlink:href="#m"/>
<use x="159.033203" xlink:href="#m"/>
</g>
</g>
<g clip-path="url(#a)">
<g transform="translate(118.81 627.95) scale(.1 -.1)">
<use xlink:href="#c"/>
<use x="63.623047" xlink:href="#e"/>
<use x="95.410156" xlink:href="#m"/>
<use x="159.033203" xlink:href="#p"/>
</g>
</g>
<g clip-path="url(#a)">
<g transform="translate(97.782 742.9) scale(.1 -.1)">
<use xlink:href="#c"/>
<use x="63.623047" xlink:href="#e"/>
<use x="95.410156" xlink:href="#m"/>
<use x="159.033203" xlink:href="#z"/>
</g>
</g>
<g clip-path="url(#a)">
<g transform="translate(116.93 857.25) scale(.1 -.1)">
<use xlink:href="#c"/>
<use x="63.623047" xlink:href="#e"/>
<use x="95.410156" xlink:href="#m"/>
<use x="159.033203" xlink:href="#af"/>
</g>
</g>
<g clip-path="url(#a)">
<g transform="translate(141.71 742.9) scale(.1 -.1)">
<use xlink:href="#c"/>
<use x="63.623047" xlink:href="#e"/>
<use x="95.410156" xlink:href="#m"/>
<use x="159.033203" xlink:href="#ad"/>
</g>
</g>
<g clip-path="url(#a)">
<g transform="translate(132.7 857.25) scale(.1 -.1)">
<use xlink:href="#c"/>
<use x="63.623047" xlink:href="#e"/>
<use x="95.410156" xlink:href="#m"/>
<use x="159.033203" xlink:href="#ac"/>
</g>
</g>
<g clip-path="url(#a)">
<g transform="translate(150.72 857.25) scale(.1 -.1)">
<use xlink:href="#c"/>
<use x="63.623047" xlink:href="#e"/>
<use x="95.410156" xlink:href="#p"/>
<use x="159.033203" xlink:href="#ae"/>
</g>
</g>
<g clip-path="url(#a)">
<g transform="translate(92.151 857.25) scale(.1 -.1)">
<use xlink:href="#c"/>
<use x="63.623047" xlink:href="#e"/>
<use x="95.410156" xlink:href="#p"/>
<use x="159.033203" xlink:href="#c"/>
</g>
</g>
<g clip-path="url(#a)">
<g transform="translate(103.41 857.25) scale(.1 -.1)">
<use xlink:href="#c"/>
<use x="63.623047" xlink:href="#e"/>
<use x="95.410156" xlink:href="#p"/>
<use x="159.033203" xlink:href="#q"/>
</g>
</g>
<g clip-path="url(#a)">
<g transform="translate(79.761 742.9) scale(.1 -.1)">
<use xlink:href="#c"/>
<use x="63.623047" xlink:href="#e"/>
<use x="95.410156" xlink:href="#p"/>
<use x="159.033203" xlink:href="#n"/>
</g>
</g>
<g clip-path="url(#a)">
<g transform="translate(76.382 857.25) scale(.1 -.1)">
<use xlink:href="#c"/>
<use x="63.623047" xlink:href="#e"/>
<use x="95.410156" xlink:href="#p"/>
<use x="159.033203" xlink:href="#m"/>
</g>
</g>
<g clip-path="url(#a)">
<g transform="translate(83.14 857.25) scale(.1 -.1)">
<use xlink:href="#c"/>
<use x="63.623047" xlink:href="#e"/>
<use x="95.410156" xlink:href="#p"/>
<use x="159.033203" xlink:href="#p"/>
</g>
</g>
<g clip-path="url(#a)">
<g transform="translate(274.61 857.25) scale(.1 -.1)">
<use xlink:href="#c"/>
<use x="63.623047" xlink:href="#e"/>
<use x="95.410156" xlink:href="#p"/>
<use x="159.033203" xlink:href="#z"/>
</g>
</g>
<g clip-path="url(#a)">
<g transform="translate(801.73 857.25) scale(.1 -.1)">
<use xlink:href="#c"/>
<use x="63.623047" xlink:href="#e"/>
<use x="95.410156" xlink:href="#p"/>
<use x="159.033203" xlink:href="#af"/>
</g>
</g>
<g clip-path="url(#a)">
<g transform="translate(1826.7 857.25) scale(.1 -.1)">
<use xlink:href="#c"/>
<use x="63.623047" xlink:href="#e"/>
<use x="95.410156" xlink:href="#p"/>
<use x="159.033203" xlink:href="#ad"/>
</g>
</g>
<defs>
<clipPath id="a">
<rect width="1925.3" height="1013.3"/>
</clipPath>
</defs>
</svg>
