<?xml version="1.0" encoding="UTF-8"?>
<!DOCTYPE svg  PUBLIC '-//W3C//DTD SVG 1.1//EN'  'http://www.w3.org/Graphics/SVG/1.1/DTD/svg11.dtd'>
<svg width="1976pt" height="1040pt" version="1.1" viewBox="0 0 1976 1040" xmlns="http://www.w3.org/2000/svg" xmlns:xlink="http://www.w3.org/1999/xlink">
<metadata>
<rdf:RDF xmlns:cc="http://creativecommons.org/ns#" xmlns:dc="http://purl.org/dc/elements/1.1/" xmlns:rdf="http://www.w3.org/1999/02/22-rdf-syntax-ns#">
<cc:Work>
<dc:type rdf:resource="http://purl.org/dc/dcmitype/StillImage"/>
<dc:date>2021-03-09T09:21:50.339847</dc:date>
<dc:format>image/svg+xml</dc:format>
<dc:creator>
<cc:Agent>
<dc:title>Matplotlib v3.3.3, https://matplotlib.org/</dc:title>
</cc:Agent>
</dc:creator>
</cc:Work>
</rdf:RDF>
</metadata>
<defs>
<style type="text/css">*{stroke-linecap:butt;stroke-linejoin:round;}</style>
</defs>
<path d="m0 1040h1976v-1040h-1976z" fill="#fff"/>
<g fill="none" stroke="#000">
<path d="m440.35 47.273-343.96 790.68" clip-path="url(#a)"/>
<path d="m440.35 47.273-295.7 790.68" clip-path="url(#a)"/>
<path d="m440.35 47.273-173.97 475.99" clip-path="url(#a)"/>
<path d="m440.35 47.273 59.623 790.68" clip-path="url(#a)"/>
<path d="m440.35 47.273 235.9 159.01" clip-path="url(#a)"/>
<path d="m440.35 47.273 875.55 790.68" clip-path="url(#a)"/>
<path d="m440.35 47.273 1059.6 317.7" clip-path="url(#a)"/>
<path d="m440.35 47.273-293.51 633.75" clip-path="url(#a)"/>
<path d="m440.35 47.273-285.83 633.75" clip-path="url(#a)"/>
<path d="m440.35 47.273-273.77 633.75" clip-path="url(#a)"/>
<path d="m440.35 47.273-257.68 633.75" clip-path="url(#a)"/>
<path d="m440.35 47.273-324.22 790.68" clip-path="url(#a)"/>
<path d="m440.35 47.273 17.949 790.68" clip-path="url(#a)"/>
<path d="m96.398 837.95v154.78" clip-path="url(#a)"/>
<path d="m144.65 837.95v154.78" clip-path="url(#a)"/>
<path d="m266.38 523.27-62.511 314.68" clip-path="url(#a)"/>
<path d="m266.38 523.27-38.384 314.68" clip-path="url(#a)"/>
<path d="m266.38 523.27 2.1934 157.75" clip-path="url(#a)"/>
<path d="m266.38 523.27 98.701 157.75" clip-path="url(#a)"/>
<path d="m499.98 837.95v154.78" clip-path="url(#a)"/>
<path d="m676.25 206.28 567.27 158.69" clip-path="url(#a)"/>
<path d="m676.25 206.28-132.41 631.67" clip-path="url(#a)"/>
<path d="m676.25 206.28-86.348 631.67" clip-path="url(#a)"/>
<path d="m676.25 206.28-38.094 631.67" clip-path="url(#a)"/>
<path d="m676.25 206.28 256.85 158.69" clip-path="url(#a)"/>
<path d="m1315.9 837.95v154.78" clip-path="url(#a)"/>
<path d="m1500 364.97 386.21 158.29" clip-path="url(#a)"/>
<path d="m1500 364.97-109.49 472.98" clip-path="url(#a)"/>
<path d="m1500 364.97 109.49 158.29" clip-path="url(#a)"/>
<path d="m146.85 681.02-57.027 156.93" clip-path="url(#a)"/>
<path d="m146.85 681.02 57.027 156.93" clip-path="url(#a)" stroke-dasharray="3.7,1.6"/>
<path d="m154.52 681.02-49.351 156.93" clip-path="url(#a)"/>
<path d="m154.52 681.02 49.351 156.93" clip-path="url(#a)" stroke-dasharray="3.7,1.6"/>
<path d="m166.59 681.02-37.287 156.93" clip-path="url(#a)"/>
<path d="m166.59 681.02 37.287 156.93" clip-path="url(#a)" stroke-dasharray="3.7,1.6"/>
<path d="m182.67 681.02-20.471 156.93" clip-path="url(#a)"/>
<path d="m182.67 681.02 21.203 156.93" clip-path="url(#a)" stroke-dasharray="3.7,1.6"/>
<path d="m182.67 681.02-0.73112 156.93" clip-path="url(#a)"/>
<path d="m162.2 837.95v154.78" clip-path="url(#a)"/>
<path d="m129.3 837.95v154.78" clip-path="url(#a)"/>
<path d="m105.17 837.95v154.78" clip-path="url(#a)"/>
<path d="m89.818 837.95v154.78" clip-path="url(#a)"/>
<path d="m1390.5 837.95v154.78" clip-path="url(#a)"/>
<path d="m1609.5 523.27-142.2 314.68" clip-path="url(#a)"/>
<path d="m1609.5 523.27-63.242 314.68" clip-path="url(#a)"/>
<path d="m1609.5 523.27 17.912 314.68" clip-path="url(#a)"/>
<path d="m1609.5 523.27 187.53 157.75" clip-path="url(#a)"/>
<path d="m1467.2 837.95v154.78" clip-path="url(#a)"/>
<path d="m1546.2 837.95v154.78" clip-path="url(#a)"/>
<path d="m1627.4 837.95v154.78" clip-path="url(#a)"/>
<path d="m1797 681.02-86.272 156.93" clip-path="url(#a)"/>
<path d="m1797 681.02-0.73112 156.93" clip-path="url(#a)"/>
<path d="m1797 681.02 87.003 156.93" clip-path="url(#a)"/>
<path d="m1710.7 837.95v154.78" clip-path="url(#a)"/>
<path d="m1796.3 837.95v154.78" clip-path="url(#a)"/>
<path d="m543.84 837.95v154.78" clip-path="url(#a)"/>
<path d="m589.9 837.95v154.78" clip-path="url(#a)"/>
<path d="m638.16 837.95v154.78" clip-path="url(#a)"/>
<path d="m933.11 364.97-190.88 158.29" clip-path="url(#a)"/>
<path d="m933.11 364.97 40.638 472.98" clip-path="url(#a)"/>
<path d="m933.11 364.97 171.02 158.29" clip-path="url(#a)"/>
<path d="m933.11 364.97-20.776 472.98" clip-path="url(#a)"/>
<path d="m742.22 523.27-53.616 314.68" clip-path="url(#a)"/>
<path d="m742.22 523.27-0.97483 314.68" clip-path="url(#a)"/>
<path d="m742.22 523.27 54.59 157.75" clip-path="url(#a)"/>
<path d="m973.74 837.95v154.78" clip-path="url(#a)"/>
<path d="m1104.1 523.27-66.776 314.68" clip-path="url(#a)"/>
<path d="m1104.1 523.27-0.97483 314.68" clip-path="url(#a)"/>
<path d="m1104.1 523.27 67.751 157.75" clip-path="url(#a)"/>
<path d="m1037.4 837.95v154.78" clip-path="url(#a)"/>
<path d="m1103.2 837.95v154.78" clip-path="url(#a)"/>
<path d="m1171.9 681.02-68.725 156.93" clip-path="url(#a)" stroke-dasharray="3.7,1.6"/>
<path d="m1171.9 681.02-0.73112 156.93" clip-path="url(#a)"/>
<path d="m1171.9 681.02 69.456 156.93" clip-path="url(#a)"/>
<path d="m1171.1 837.95v154.78" clip-path="url(#a)"/>
<path d="m1241.3 837.95v154.78" clip-path="url(#a)"/>
<path d="m688.61 837.95v154.78" clip-path="url(#a)"/>
<path d="m741.25 837.95v154.78" clip-path="url(#a)"/>
<path d="m796.81 681.02-55.565 156.93" clip-path="url(#a)" stroke-dasharray="3.7,1.6"/>
<path d="m796.81 681.02-0.73112 156.93" clip-path="url(#a)"/>
<path d="m796.81 681.02 56.296 156.93" clip-path="url(#a)"/>
<path d="m796.08 837.95v154.78" clip-path="url(#a)"/>
<path d="m853.11 837.95v154.78" clip-path="url(#a)"/>
<path d="m203.87 837.95v154.78" clip-path="url(#a)"/>
<path d="m228 837.95v154.78" clip-path="url(#a)"/>
<path d="m268.58 681.02-14.257 156.93" clip-path="url(#a)"/>
<path d="m268.58 681.02 14.257 156.93" clip-path="url(#a)"/>
<path d="m365.09 681.02-51.544 156.93" clip-path="url(#a)"/>
<path d="m365.09 681.02-18.644 156.93" clip-path="url(#a)"/>
<path d="m365.09 681.02 16.45 156.93" clip-path="url(#a)"/>
<path d="m365.09 681.02 53.737 156.93" clip-path="url(#a)"/>
<path d="m313.54 837.95v154.78" clip-path="url(#a)"/>
<path d="m346.44 837.95v154.78" clip-path="url(#a)"/>
<path d="m381.54 837.95v154.78" clip-path="url(#a)"/>
<path d="m418.82 837.95v154.78" clip-path="url(#a)"/>
<path d="m254.32 837.95v154.78" clip-path="url(#a)"/>
<path d="m282.83 837.95v154.78" clip-path="url(#a)"/>
<path d="m116.14 837.95v154.78" clip-path="url(#a)"/>
<path d="m181.94 837.95v154.78" clip-path="url(#a)"/>
<path d="m458.3 837.95v154.78" clip-path="url(#a)"/>
<path d="m912.33 837.95v154.78" clip-path="url(#a)"/>
<path d="m1884 837.95v154.78" clip-path="url(#a)"/>
</g>
<path d="m273.24 447.16 1.7781-4.0875q0.95737-2.2008-1.2434-3.1582l-7.0998-3.0885q-2.2008-0.95737-3.1582 1.2434l-1.7781 4.0875q-0.95737 2.2008 1.2434 3.1582l7.0998 3.0885q2.2008 0.95737 3.1582-1.2434z" clip-path="url(#a)" fill="#fff" stroke="#fff"/>
<g clip-path="url(#a)">
<g transform="translate(269.51 445.54) rotate(-66.49) scale(.08 -.08)">
<defs>
<path id="ab" d="m9.8125 72.906h9.8594v-64.609h35.5v-8.2969h-45.359z"/>
</defs>
<use xlink:href="#ab"/>
</g>
</g>
<path d="m297.6 446.9 1.5614-4.1751q0.8407-2.2479-1.4072-3.0886l-7.2519-2.7121q-2.2479-0.8407-3.0886 1.4072l-1.5614 4.1751q-0.8407 2.2479 1.4072 3.0886l7.2519 2.7121q2.2479 0.8407 3.0886-1.4072z" clip-path="url(#a)" fill="#fff" stroke="#fff"/>
<g clip-path="url(#a)">
<g transform="translate(293.79 445.47) rotate(-69.495) scale(.08 -.08)">
<use xlink:href="#ab"/>
</g>
</g>
<path d="m358.23 290.25 2.0653-5.6507q0.82387-2.2542-1.4303-3.078l-7.272-2.6578q-2.2542-0.82387-3.078 1.4303l-2.0653 5.6507q-0.82387 2.2542 1.4303 3.078l7.272 2.6578q2.2542 0.82387 3.078-1.4303z" clip-path="url(#a)" fill="#fff" stroke="#fff"/>
<g clip-path="url(#a)">
<g transform="translate(354.41 288.85) rotate(-69.923) scale(.08 -.08)">
<defs>
<path id="z" d="m9.8125 72.906h9.8594v-29.891h35.844v29.891h9.8594v-72.906h-9.8594v34.719h-35.844v-34.719h-9.8594z"/>
</defs>
<use xlink:href="#z"/>
</g>
</g>
<path d="m463.74 440.86 0.33518 4.4449q0.18046 2.3932 2.5737 2.2127l7.7206-0.58219q2.3932-0.18046 2.2127-2.5737l-0.33518-4.4449q-0.18046-2.3932-2.5737-2.2127l-7.7206 0.58219q-2.3932 0.18046-2.2127 2.5737z" clip-path="url(#a)" fill="#fff" stroke="#fff"/>
<g clip-path="url(#a)">
<g transform="translate(467.8 440.55) rotate(85.688) scale(.08 -.08)">
<use xlink:href="#ab"/>
</g>
</g>
<path d="m552.3 130.3 4.9887 3.3627q1.9901 1.3415 3.3316-0.64865l4.3276-6.4201q1.3415-1.9901-0.64865-3.3316l-4.9887-3.3627q-1.9901-1.3415-3.3316 0.64864l-4.3276 6.4201q-1.3415 1.9901 0.64865 3.3316z" clip-path="url(#a)" fill="#fff" stroke="#fff"/>
<g clip-path="url(#a)">
<g transform="translate(554.58 126.93) rotate(33.982) scale(.08 -.08)">
<use xlink:href="#z"/>
</g>
</g>
<path d="m872.27 445.77 3.3082 2.9875q1.7812 1.6085 3.3897-0.17267l5.1892-5.7462q1.6085-1.7812-0.17267-3.3897l-3.3082-2.9875q-1.7812-1.6085-3.3897 0.17267l-5.1892 5.7462q-1.6085 1.7812 0.17267 3.3897z" clip-path="url(#a)" fill="#fff" stroke="#fff"/>
<g clip-path="url(#a)">
<g transform="translate(875 442.76) rotate(42.084) scale(.08 -.08)">
<use xlink:href="#ab"/>
</g>
</g>
<path d="m965.48 211.27 5.7628 1.7278q2.2989 0.68927 2.9882-1.6096l2.2236-7.4163q0.68927-2.2989-1.6096-2.9882l-5.7628-1.7278q-2.2989-0.68927-2.9882 1.6096l-2.2236 7.4163q-0.68927 2.2989 1.6096 2.9882z" clip-path="url(#a)" fill="#fff" stroke="#fff"/>
<g clip-path="url(#a)">
<g transform="translate(966.65 207.37) rotate(16.69) scale(.08 -.08)">
<use xlink:href="#z"/>
</g>
</g>
<path d="m298.03 369.51 2.5283-5.4592q1.0086-2.1778-1.1692-3.1864l-7.0256-3.2538q-2.1778-1.0086-3.1864 1.1692l-2.5283 5.4592q-1.0086 2.1778 1.1692 3.1864l7.0256 3.2538q2.1778 1.0086 3.1864-1.1692z" clip-path="url(#a)" fill="#fff" stroke="#fff"/>
<g clip-path="url(#a)">
<g transform="translate(294.34 367.8) rotate(-65.15) scale(.08 -.08)">
<use xlink:href="#z"/>
</g>
</g>
<path d="m301.92 369.47 2.4735-5.4843q0.98673-2.1878-1.201-3.1745l-7.0579-3.1832q-2.1878-0.98673-3.1745 1.201l-2.4735 5.4843q-0.98673 2.1878 1.201 3.1745l7.0579 3.1832q2.1878 0.98673 3.1745-1.201z" clip-path="url(#a)" fill="#fff" stroke="#fff"/>
<g clip-path="url(#a)">
<g transform="translate(298.21 367.8) rotate(-65.724) scale(.08 -.08)">
<use xlink:href="#z"/>
</g>
</g>
<path d="m308.03 369.39 2.3858-5.523q0.95175-2.2032-1.2515-3.155l-7.1077-3.0704q-2.2032-0.95175-3.155 1.2515l-2.3858 5.523q-0.95176 2.2032 1.2515 3.155l7.1077 3.0704q2.2032 0.95175 3.155-1.2515z" clip-path="url(#a)" fill="#fff" stroke="#fff"/>
<g clip-path="url(#a)">
<g transform="translate(304.3 367.78) rotate(-66.636) scale(.08 -.08)">
<use xlink:href="#z"/>
</g>
</g>
<path d="m316.19 369.29 2.2661-5.5732q0.90398-2.2232-1.3193-3.1272l-7.1723-2.9163q-2.2232-0.90398-3.1272 1.3193l-2.2661 5.5732q-0.90398 2.2232 1.3193 3.1272l7.1723 2.9163q2.2232 0.90398 3.1272-1.3193z" clip-path="url(#a)" fill="#fff" stroke="#fff"/>
<g clip-path="url(#a)">
<g transform="translate(312.42 367.76) rotate(-67.873) scale(.08 -.08)">
<use xlink:href="#z"/>
</g>
</g>
<path d="m282.94 447.7 2.2213-5.4173q0.91054-2.2206-1.31-3.1311l-7.1636-2.9374q-2.2206-0.91054-3.1311 1.31l-2.2213 5.4173q-0.91054 2.2206 1.31 3.1311l7.1636 2.9374q2.2206 0.91054 3.1311-1.31z" clip-path="url(#a)" fill="#fff" stroke="#fff"/>
<g clip-path="url(#a)">
<g transform="translate(279.18 446.16) rotate(-67.704) scale(.08 -.08)">
<defs>
<path id="af" d="m8.6875 72.906h9.9219v-44.297q0-11.719 4.2344-16.875 4.25-5.1406 13.781-5.1406 9.4688 0 13.719 5.1406 4.25 5.1562 4.25 16.875v44.297h9.9062v-45.516q0-14.25-7.0625-21.531-7.0469-7.2812-20.812-7.2812-13.828 0-20.891 7.2812-7.0469 7.2812-7.0469 21.531z"/>
</defs>
<use xlink:href="#af"/>
</g>
</g>
<path d="m442.99 439.83 0.13288 5.8535q0.054468 2.3994 2.4538 2.3449l7.7405-0.17571q2.3994-0.054467 2.3449-2.4538l-0.13288-5.8535q-0.054468-2.3994-2.4538-2.3449l-7.7405 0.17571q-2.3994 0.054467-2.3449 2.4538z" clip-path="url(#a)" fill="#fff" stroke="#fff"/>
<g clip-path="url(#a)">
<g transform="translate(447.06 439.73) rotate(88.7) scale(.08 -.08)">
<use xlink:href="#af"/>
</g>
</g>
<path d="m90.127 898.43v33.808q0 2.4 2.4 2.4h7.7425q2.4 0 2.4-2.4v-33.808q0-2.4-2.4-2.4h-7.7425q-2.4 0-2.4 2.4z" clip-path="url(#a)" fill="#fff" stroke="#fff"/>
<g clip-path="url(#a)">
<g transform="translate(94.191 898.43) rotate(90) scale(.08 -.08)">
<defs>
<path id="k" d="m-0.29688 72.906h61.672v-8.3125h-25.875v-64.594h-9.9062v64.594h-25.891z"/>
<path id="d" d="m56.203 29.594v-4.3906h-41.312q0.59375-9.2812 5.5938-14.141t13.938-4.8594q5.1719 0 10.031 1.2656t9.6562 3.8125v-8.5q-4.8438-2.0469-9.9219-3.125t-10.297-1.0781q-13.094 0-20.734 7.6094-7.6406 7.625-7.6406 20.625 0 13.422 7.25 21.297 7.25 7.8906 19.562 7.8906 11.031 0 17.453-7.1094 6.4219-7.0938 6.4219-19.297zm-8.9844 2.6406q-0.09375 7.3594-4.125 11.75-4.0312 4.4062-10.672 4.4062-7.5156 0-12.031-4.25t-5.2031-11.969z"/>
<path id="h" d="m41.109 46.297q-1.5156 0.875-3.2969 1.2812-1.7812 0.42188-3.9219 0.42188-7.625 0-11.703-4.9531t-4.0781-14.234v-28.812h-9.0312v54.688h9.0312v-8.5q2.8438 4.9844 7.375 7.3906 4.5469 2.4219 11.047 2.4219 0.92188 0 2.0469-0.125 1.125-0.10938 2.4844-0.35938z"/>
<path id="l" d="m52 44.188q3.375 6.0625 8.0625 8.9375t11.031 2.875q8.5469 0 13.188-5.9844 4.6406-5.9688 4.6406-17v-33.016h-9.0312v32.719q0 7.8594-2.7969 11.656-2.7812 3.8125-8.4844 3.8125-6.9844 0-11.047-4.6406-4.0469-4.625-4.0469-12.641v-30.906h-9.0312v32.719q0 7.9062-2.7812 11.688t-8.5938 3.7812q-6.8906 0-10.953-4.6562-4.0469-4.6562-4.0469-12.625v-30.906h-9.0312v54.688h9.0312v-8.5q3.0781 5.0312 7.375 7.4219t10.203 2.3906q5.9688 0 10.141-3.0312 4.1719-3.0156 6.1719-8.7812z"/>
<path id="g" d="m9.4219 54.688h8.9844v-54.688h-8.9844zm0 21.297h8.9844v-11.391h-8.9844z"/>
<path id="i" d="m54.891 33.016v-33.016h-8.9844v32.719q0 7.7656-3.0312 11.609-3.0312 3.8594-9.0781 3.8594-7.2812 0-11.484-4.6406-4.2031-4.625-4.2031-12.641v-30.906h-9.0312v54.688h9.0312v-8.5q3.2344 4.9375 7.5938 7.375 4.375 2.4375 10.094 2.4375 9.4219 0 14.25-5.8281 4.8438-5.8281 4.8438-17.156z"/>
<path id="f" d="m34.281 27.484q-10.891 0-15.094-2.4844t-4.2031-8.5q0-4.7812 3.1562-7.5938 3.1562-2.7969 8.5625-2.7969 7.4844 0 12 5.2969t4.5156 14.078v2zm17.922 3.7188v-31.203h-8.9844v8.2969q-3.0781-4.9688-7.6719-7.3438t-11.234-2.375q-8.3906 0-13.359 4.7188-4.9531 4.7188-4.9531 12.625 0 9.2188 6.1719 13.906 6.1875 4.6875 18.438 4.6875h12.609v0.89062q0 6.2031-4.0781 9.5938t-11.453 3.3906q-4.6875 0-9.1406-1.125-4.4375-1.125-8.5312-3.375v8.3125q4.9219 1.9062 9.5625 2.8438 4.6406 0.95312 9.0312 0.95312 11.875 0 17.734-6.1562 5.8594-6.1406 5.8594-18.641z"/>
<path id="j" d="m9.4219 75.984h8.9844v-75.984h-8.9844z"/>
</defs>
<use xlink:href="#k"/>
<use x="44.083984" xlink:href="#d"/>
<use x="105.607422" xlink:href="#h"/>
<use x="144.970703" xlink:href="#l"/>
<use x="242.382812" xlink:href="#g"/>
<use x="270.166016" xlink:href="#i"/>
<use x="333.544922" xlink:href="#f"/>
<use x="394.824219" xlink:href="#j"/>
</g>
</g>
<path d="m138.38 898.43v33.808q0 2.4 2.4 2.4h7.7425q2.4 0 2.4-2.4v-33.808q0-2.4-2.4-2.4h-7.7425q-2.4 0-2.4 2.4z" clip-path="url(#a)" fill="#fff" stroke="#fff"/>
<g clip-path="url(#a)">
<g transform="translate(142.44 898.43) rotate(90) scale(.08 -.08)">
<use xlink:href="#k"/>
<use x="44.083984" xlink:href="#d"/>
<use x="105.607422" xlink:href="#h"/>
<use x="144.970703" xlink:href="#l"/>
<use x="242.382812" xlink:href="#g"/>
<use x="270.166016" xlink:href="#i"/>
<use x="333.544922" xlink:href="#f"/>
<use x="394.824219" xlink:href="#j"/>
</g>
</g>
<path d="m240.75 684.51 1.0663-5.3676q0.46761-2.354-1.8864-2.8216l-7.5941-1.5085q-2.354-0.46761-2.8216 1.8864l-1.0663 5.3676q-0.46761 2.354 1.8864 2.8216l7.5941 1.5085q2.354 0.46761 2.8216-1.8864z" clip-path="url(#a)" fill="#fff" stroke="#fff"/>
<g clip-path="url(#a)">
<g transform="translate(236.76 683.72) rotate(-78.765) scale(.08 -.08)">
<defs>
<path id="o" d="m34.188 63.188-13.391-36.281h26.812zm-5.5781 9.7188h11.188l27.781-72.906h-10.25l-6.6406 18.703h-32.859l-6.6406-18.703h-10.406z"/>
</defs>
<use xlink:href="#o"/>
</g>
</g>
<path d="m253.13 683.76 0.58405-4.7883q0.29059-2.3823-2.0918-2.6729l-7.6855-0.93745q-2.3823-0.29059-2.6729 2.0918l-0.58405 4.7883q-0.29059 2.3823 2.0918 2.6729l7.6855 0.93745q2.3823 0.29059 2.6729-2.0918z" clip-path="url(#a)" fill="#fff" stroke="#fff"/>
<g clip-path="url(#a)">
<g transform="translate(249.09 683.27) rotate(-83.046) scale(.08 -.08)">
<defs>
<path id="ag" d="m19.672 64.797v-27.391h12.406q6.8906 0 10.641 3.5625 3.7656 3.5625 3.7656 10.156 0 6.5469-3.7656 10.109-3.75 3.5625-10.641 3.5625zm-9.8594 8.1094h22.266q12.266 0 18.531-5.5469 6.2812-5.5469 6.2812-16.234 0-10.797-6.2812-16.312-6.2656-5.5156-18.531-5.5156h-12.406v-29.297h-9.8594z"/>
</defs>
<use xlink:href="#ag"/>
</g>
</g>
<path d="m261.17 599.49 0.076081 5.472q0.033366 2.3998 2.4331 2.3664l7.7418-0.10764q2.3998-0.033366 2.3664-2.4331l-0.076081-5.472q-0.033366-2.3998-2.4331-2.3664l-7.7418 0.10764q-2.3998 0.033365-2.3664 2.4331z" clip-path="url(#a)" fill="#fff" stroke="#fff"/>
<g clip-path="url(#a)">
<g transform="translate(265.24 599.44) rotate(89.203) scale(.08 -.08)">
<use xlink:href="#o"/>
</g>
</g>
<path d="m308.78 602.86 3.2673 5.2221q1.273 2.0346 3.3076 0.76161l6.5637-4.1067q2.0346-1.273 0.76161-3.3076l-3.2673-5.2221q-1.273-2.0346-3.3076-0.76161l-6.5637 4.1067q-2.0346 1.273-0.76161 3.3076z" clip-path="url(#a)" fill="#fff" stroke="#fff"/>
<g clip-path="url(#a)">
<g transform="translate(312.23 600.7) rotate(57.967) scale(.08 -.08)">
<defs>
<path id="al" d="m19.672 64.797v-56.688h11.922q15.094 0 22.094 6.8281 7 6.8438 7 21.594 0 14.641-7 21.453t-22.094 6.8125zm-9.8594 8.1094h20.266q21.188 0 31.094-8.8125 9.9219-8.8125 9.9219-27.562 0-18.859-9.9688-27.703-9.9531-8.8281-31.047-8.8281h-20.266z"/>
</defs>
<use xlink:href="#al"/>
</g>
</g>
<path d="m493.71 898.43v33.808q0 2.4 2.4 2.4h7.7425q2.4 0 2.4-2.4v-33.808q0-2.4-2.4-2.4h-7.7425q-2.4 0-2.4 2.4z" clip-path="url(#a)" fill="#fff" stroke="#fff"/>
<g clip-path="url(#a)">
<g transform="translate(497.77 898.43) rotate(90) scale(.08 -.08)">
<use xlink:href="#k"/>
<use x="44.083984" xlink:href="#d"/>
<use x="105.607422" xlink:href="#h"/>
<use x="144.970703" xlink:href="#l"/>
<use x="242.382812" xlink:href="#g"/>
<use x="270.166016" xlink:href="#i"/>
<use x="333.544922" xlink:href="#f"/>
<use x="394.824219" xlink:href="#j"/>
</g>
</g>
<path d="m955.57 290.93 5.2702 1.4743q2.3113 0.64656 2.9578-1.6647l2.0858-7.4562q0.64656-2.3113-1.6647-2.9578l-5.2702-1.4743q-2.3113-0.64656-2.9578 1.6647l-2.0858 7.4562q-0.64656 2.3113 1.6647 2.9578z" clip-path="url(#a)" fill="#fff" stroke="#fff"/>
<g clip-path="url(#a)">
<g transform="translate(956.66 287.02) rotate(15.629) scale(.08 -.08)">
<use xlink:href="#o"/>
</g>
</g>
<path d="m615.71 525.65 0.94399-4.5034q0.49238-2.3489-1.8566-2.8413l-7.5778-1.5884q-2.3489-0.49238-2.8413 1.8566l-0.94399 4.5034q-0.49238 2.3489 1.8566 2.8413l7.5778 1.5884q2.3489 0.49238 2.8413-1.8566z" clip-path="url(#a)" fill="#fff" stroke="#fff"/>
<g clip-path="url(#a)">
<g transform="translate(611.74 524.82) rotate(-78.161) scale(.08 -.08)">
<defs>
<path id="aj" d="m9.8125 72.906h41.891v-8.3125h-32.031v-21.484h28.906v-8.2969h-28.906v-34.812h-9.8594z"/>
</defs>
<use xlink:href="#aj"/>
</g>
</g>
<path d="m638.88 526.02 0.83431-6.1032q0.32506-2.3779-2.0528-2.7029l-7.6712-1.0486q-2.3779-0.32506-2.7029 2.0528l-0.83431 6.1032q-0.32506 2.3779 2.0528 2.7029l7.6712 1.0486q2.3779 0.32506 2.7029-2.0528z" clip-path="url(#a)" fill="#fff" stroke="#fff"/>
<g clip-path="url(#a)">
<g transform="translate(634.85 525.47) rotate(-82.216) scale(.08 -.08)">
<use xlink:href="#al"/>
</g>
</g>
<path d="m663.31 525.03 0.30573-5.0695q0.14448-2.3956-2.2512-2.5401l-7.7285-0.46609q-2.3956-0.14448-2.5401 2.2512l-0.30573 5.0695q-0.14448 2.3956 2.2512 2.5401l7.7285 0.46609q2.3956 0.14448 2.5401-2.2512z" clip-path="url(#a)" fill="#fff" stroke="#fff"/>
<g clip-path="url(#a)">
<g transform="translate(659.26 524.78) rotate(-86.549) scale(.08 -.08)">
<defs>
<path id="y" d="m53.516 70.516v-9.625q-5.6094 2.6875-10.594 4-4.9844 1.3281-9.625 1.3281-8.0469 0-12.422-3.125t-4.375-8.8906q0-4.8438 2.9062-7.3125 2.9062-2.4531 11.016-3.9688l5.9531-1.2188q11.031-2.1094 16.281-7.4062t5.25-14.172q0-10.609-7.1094-16.078-7.0938-5.4688-20.812-5.4688-5.1719 0-11.016 1.1719-5.8281 1.1719-12.078 3.4688v10.156q6-3.3594 11.766-5.0781 5.7656-1.7031 11.328-1.7031 8.4375 0 13.031 3.3125 4.5938 3.3281 4.5938 9.4844 0 5.3594-3.2969 8.3906t-10.812 4.5469l-6.0156 1.1719q-11.031 2.1875-15.969 6.875-4.9219 4.6875-4.9219 13.047 0 9.6719 6.8125 15.234t18.766 5.5625q5.1406 0 10.453-0.9375 5.3281-0.92188 10.891-2.7656z"/>
</defs>
<use xlink:href="#y"/>
</g>
</g>
<path d="m799.06 289.53 4.6556 2.8764q2.0417 1.2615 3.3032-0.78029l4.0695-6.5868q1.2615-2.0417-0.78029-3.3032l-4.6556-2.8764q-2.0417-1.2615-3.3032 0.78029l-4.0695 6.5868q-1.2615 2.0417 0.78029 3.3032z" clip-path="url(#a)" fill="#fff" stroke="#fff"/>
<g clip-path="url(#a)">
<g transform="translate(801.19 286.07) rotate(31.709) scale(.08 -.08)">
<use xlink:href="#o"/>
</g>
</g>
<path d="m1309.6 898.43v33.808q0 2.4 2.4 2.4h7.7425q2.4 0 2.4-2.4v-33.808q0-2.4-2.4-2.4h-7.7425q-2.4 0-2.4 2.4z" clip-path="url(#a)" fill="#fff" stroke="#fff"/>
<g clip-path="url(#a)">
<g transform="translate(1313.7 898.43) rotate(90) scale(.08 -.08)">
<use xlink:href="#k"/>
<use x="44.083984" xlink:href="#d"/>
<use x="105.607422" xlink:href="#h"/>
<use x="144.970703" xlink:href="#l"/>
<use x="242.382812" xlink:href="#g"/>
<use x="270.166016" xlink:href="#i"/>
<use x="333.544922" xlink:href="#f"/>
<use x="394.824219" xlink:href="#j"/>
</g>
</g>
<path d="m1688.2 448.89 5.0637 2.0754q2.2207 0.91017 3.1309-1.3106l2.9362-7.1641q0.91017-2.2207-1.3106-3.1309l-5.0637-2.0754q-2.2207-0.91016-3.1309 1.3106l-2.9362 7.1641q-0.91017 2.2207 1.3106 3.1309z" clip-path="url(#a)" fill="#fff" stroke="#fff"/>
<g clip-path="url(#a)">
<g transform="translate(1689.7 445.12) rotate(22.286) scale(.08 -.08)">
<use xlink:href="#o"/>
</g>
</g>
<path d="m1450.8 605.23 1.0878-4.6995q0.54124-2.3382-1.7969-2.8794l-7.543-1.7461q-2.3382-0.54125-2.8794 1.7969l-1.0878 4.6995q-0.54125 2.3382 1.7969 2.8794l7.543 1.7461q2.3382 0.54125 2.8794-1.7969z" clip-path="url(#a)" fill="#fff" stroke="#fff"/>
<g clip-path="url(#a)">
<g transform="translate(1446.8 604.31) rotate(-76.967) scale(.08 -.08)">
<use xlink:href="#ag"/>
</g>
</g>
<path d="m1548 445.44 3.1131 4.5008q1.3653 1.9738 3.3391 0.60859l6.3677-4.4044q1.9738-1.3653 0.60859-3.3391l-3.1131-4.5008q-1.3653-1.9738-3.3391-0.60859l-6.3677 4.4044q-1.9738 1.3653-0.60859 3.3391z" clip-path="url(#a)" fill="#fff" stroke="#fff"/>
<g clip-path="url(#a)">
<g transform="translate(1551.3 443.13) rotate(55.329) scale(.08 -.08)">
<use xlink:href="#o"/>
</g>
</g>
<path d="m123.36 764.01 1.7346-4.7733q0.8197-2.2557-1.436-3.0754l-7.2769-2.6444q-2.2557-0.8197-3.0754 1.436l-1.7346 4.7733q-0.8197 2.2557 1.436 3.0754l7.2769 2.6444q2.2557 0.8197 3.0754-1.436z" clip-path="url(#a)" fill="#fff" stroke="#fff"/>
<g clip-path="url(#a)">
<g transform="translate(119.54 762.63) rotate(-70.029) scale(.08 -.08)">
<use xlink:href="#y"/>
</g>
</g>
<path d="m168.53 759.05 1.8691 5.1434q0.8197 2.2557 3.0754 1.436l7.2769-2.6444q2.2557-0.8197 1.436-3.0754l-1.8691-5.1434q-0.8197-2.2557-3.0754-1.436l-7.2769 2.6444q-2.2557 0.8197-1.436 3.0754z" clip-path="url(#a)" fill="#fff" stroke="#fff"/>
<g clip-path="url(#a)">
<g transform="translate(172.35 757.67) rotate(70.029) scale(.08 -.08)">
<use xlink:href="#o"/>
</g>
</g>
<path d="m135.07 763.79 1.5236-4.8448q0.71998-2.2895-1.5695-3.0094l-7.3859-2.3227q-2.2895-0.71998-3.0094 1.5695l-1.5236 4.8448q-0.71998 2.2895 1.5695 3.0094l7.3859 2.3227q2.2895 0.71998 3.0094-1.5695z" clip-path="url(#a)" fill="#fff" stroke="#fff"/>
<g clip-path="url(#a)">
<g transform="translate(131.19 762.57) rotate(-72.543) scale(.08 -.08)">
<use xlink:href="#y"/>
</g>
</g>
<path d="m172.39 758.76 1.6417 5.2204q0.71998 2.2895 3.0094 1.5695l7.3859-2.3227q2.2895-0.71998 1.5695-3.0094l-1.6417-5.2204q-0.71998-2.2895-3.0094-1.5695l-7.3859 2.3227q-2.2895 0.71998-1.5695 3.0094z" clip-path="url(#a)" fill="#fff" stroke="#fff"/>
<g clip-path="url(#a)">
<g transform="translate(176.27 757.54) rotate(72.543) scale(.08 -.08)">
<use xlink:href="#o"/>
</g>
</g>
<path d="m153.46 763.4 1.174-4.9412q0.5548-2.335-1.7802-2.8898l-7.5328-1.7898q-2.335-0.5548-2.8898 1.7802l-1.174 4.9412q-0.5548 2.335 1.7802 2.8898l7.5328 1.7898q2.335 0.5548 2.8898-1.7802z" clip-path="url(#a)" fill="#fff" stroke="#fff"/>
<g clip-path="url(#a)">
<g transform="translate(149.5 762.47) rotate(-76.634) scale(.08 -.08)">
<use xlink:href="#y"/>
</g>
</g>
<path d="m178.5 758.27 1.2651 5.3243q0.5548 2.335 2.8898 1.7802l7.5328-1.7898q2.335-0.5548 1.7802-2.8898l-1.2651-5.3243q-0.5548-2.335-2.8898-1.7802l-7.5328 1.7898q-2.335 0.5548-1.7802 2.8898z" clip-path="url(#a)" fill="#fff" stroke="#fff"/>
<g clip-path="url(#a)">
<g transform="translate(182.45 757.33) rotate(76.634) scale(.08 -.08)">
<use xlink:href="#o"/>
</g>
</g>
<path d="m178.32 762.81 0.65695-5.0361q0.31045-2.3798-2.0694-2.6903l-7.6775-1.0015q-2.3798-0.31045-2.6903 2.0694l-0.65695 5.0361q-0.31045 2.3798 2.0694 2.6903l7.6775 1.0015q2.3798 0.31045 2.6903-2.0694z" clip-path="url(#a)" fill="#fff" stroke="#fff"/>
<g clip-path="url(#a)">
<g transform="translate(174.3 762.29) rotate(-82.568) scale(.08 -.08)">
<use xlink:href="#y"/>
</g>
</g>
<path d="m186.69 757.61 0.73272 5.4232q0.32134 2.3784 2.6997 2.0571l7.6728-1.0367q2.3784-0.32134 2.0571-2.6997l-0.73272-5.4232q-0.32134-2.3784-2.6997-2.0571l-7.6728 1.0367q-2.3784 0.32134-2.0571 2.6997z" clip-path="url(#a)" fill="#fff" stroke="#fff"/>
<g clip-path="url(#a)">
<g transform="translate(190.72 757.07) rotate(82.306) scale(.08 -.08)">
<use xlink:href="#o"/>
</g>
</g>
<path d="m188.56 762.44 0.027277-5.8549q0.011181-2.4-2.3888-2.4112l-7.7424-0.036071q-2.4-0.011181-2.4112 2.3888l-0.027277 5.8549q-0.011182 2.4 2.3888 2.4112l7.7424 0.036071q2.4 0.011181 2.4112-2.3888z" clip-path="url(#a)" fill="#fff" stroke="#fff"/>
<g clip-path="url(#a)">
<g transform="translate(184.5 762.42) rotate(-89.733) scale(.08 -.08)">
<use xlink:href="#af"/>
</g>
</g>
<path d="m155.93 898.43v33.808q0 2.4 2.4 2.4h7.7425q2.4 0 2.4-2.4v-33.808q0-2.4-2.4-2.4h-7.7425q-2.4 0-2.4 2.4z" clip-path="url(#a)" fill="#fff" stroke="#fff"/>
<g clip-path="url(#a)">
<g transform="translate(159.99 898.43) rotate(90) scale(.08 -.08)">
<use xlink:href="#k"/>
<use x="44.083984" xlink:href="#d"/>
<use x="105.607422" xlink:href="#h"/>
<use x="144.970703" xlink:href="#l"/>
<use x="242.382812" xlink:href="#g"/>
<use x="270.166016" xlink:href="#i"/>
<use x="333.544922" xlink:href="#f"/>
<use x="394.824219" xlink:href="#j"/>
</g>
</g>
<path d="m123.03 898.43v33.808q0 2.4 2.4 2.4h7.7425q2.4 0 2.4-2.4v-33.808q0-2.4-2.4-2.4h-7.7425q-2.4 0-2.4 2.4z" clip-path="url(#a)" fill="#fff" stroke="#fff"/>
<g clip-path="url(#a)">
<g transform="translate(127.09 898.43) rotate(90) scale(.08 -.08)">
<use xlink:href="#k"/>
<use x="44.083984" xlink:href="#d"/>
<use x="105.607422" xlink:href="#h"/>
<use x="144.970703" xlink:href="#l"/>
<use x="242.382812" xlink:href="#g"/>
<use x="270.166016" xlink:href="#i"/>
<use x="333.544922" xlink:href="#f"/>
<use x="394.824219" xlink:href="#j"/>
</g>
</g>
<path d="m98.9 898.43v33.808q0 2.4 2.4 2.4h7.7425q2.4 0 2.4-2.4v-33.808q0-2.4-2.4-2.4h-7.7425q-2.4 0-2.4 2.4z" clip-path="url(#a)" fill="#fff" stroke="#fff"/>
<g clip-path="url(#a)">
<g transform="translate(102.96 898.43) rotate(90) scale(.08 -.08)">
<use xlink:href="#k"/>
<use x="44.083984" xlink:href="#d"/>
<use x="105.607422" xlink:href="#h"/>
<use x="144.970703" xlink:href="#l"/>
<use x="242.382812" xlink:href="#g"/>
<use x="270.166016" xlink:href="#i"/>
<use x="333.544922" xlink:href="#f"/>
<use x="394.824219" xlink:href="#j"/>
</g>
</g>
<path d="m83.547 898.43v33.808q0 2.4 2.4 2.4h7.7425q2.4 0 2.4-2.4v-33.808q0-2.4-2.4-2.4h-7.7425q-2.4 0-2.4 2.4z" clip-path="url(#a)" fill="#fff" stroke="#fff"/>
<g clip-path="url(#a)">
<g transform="translate(87.611 898.43) rotate(90) scale(.08 -.08)">
<use xlink:href="#k"/>
<use x="44.083984" xlink:href="#d"/>
<use x="105.607422" xlink:href="#h"/>
<use x="144.970703" xlink:href="#l"/>
<use x="242.382812" xlink:href="#g"/>
<use x="270.166016" xlink:href="#i"/>
<use x="333.544922" xlink:href="#f"/>
<use x="394.824219" xlink:href="#j"/>
</g>
</g>
<path d="m1384.2 898.43v33.808q0 2.4 2.4 2.4h7.7425q2.4 0 2.4-2.4v-33.808q0-2.4-2.4-2.4h-7.7425q-2.4 0-2.4 2.4z" clip-path="url(#a)" fill="#fff" stroke="#fff"/>
<g clip-path="url(#a)">
<g transform="translate(1388.3 898.43) rotate(90) scale(.08 -.08)">
<use xlink:href="#k"/>
<use x="44.083984" xlink:href="#d"/>
<use x="105.607422" xlink:href="#h"/>
<use x="144.970703" xlink:href="#l"/>
<use x="242.382812" xlink:href="#g"/>
<use x="270.166016" xlink:href="#i"/>
<use x="333.544922" xlink:href="#f"/>
<use x="394.824219" xlink:href="#j"/>
</g>
</g>
<path d="m1542.9 685.72 2.2891-5.0656q0.98831-2.1871-1.1987-3.1754l-7.0556-3.1883q-2.1871-0.98831-3.1754 1.1987l-2.2891 5.0656q-0.98831 2.1871 1.1987 3.1754l7.0556 3.1883q2.1871 0.98831 3.1754-1.1987z" clip-path="url(#a)" fill="#fff" stroke="#fff"/>
<g clip-path="url(#a)">
<g transform="translate(1539.2 684.05) rotate(-65.682) scale(.08 -.08)">
<defs>
<path id="ap" d="m44.391 34.188q3.1719-1.0781 6.1719-4.5938t6.0312-9.6719l10.016-19.922h-10.609l-9.3125 18.703q-3.625 7.3281-7.0156 9.7188t-9.25 2.3906h-10.75v-30.812h-9.8594v72.906h22.266q12.5 0 18.656-5.2344 6.1562-5.2188 6.1562-15.766 0-6.8906-3.2031-11.438-3.2031-4.5312-9.2969-6.2812zm-24.719 30.609v-25.875h12.406q7.125 0 10.766 3.2969t3.6406 9.6875-3.6406 9.6406-10.766 3.25z"/>
</defs>
<use xlink:href="#ap"/>
</g>
</g>
<path d="m1583.4 684.53 1.0782-5.3652q0.47287-2.353-1.8801-2.8258l-7.5907-1.5255q-2.353-0.47287-2.8258 1.8801l-1.0782 5.3652q-0.47287 2.353 1.8801 2.8258l7.5907 1.5255q2.353 0.47287 2.8258-1.8801z" clip-path="url(#a)" fill="#fff" stroke="#fff"/>
<g clip-path="url(#a)">
<g transform="translate(1579.5 683.73) rotate(-78.637) scale(.08 -.08)">
<use xlink:href="#o"/>
</g>
</g>
<path d="m1612 678.56 0.27413 4.816q0.13639 2.3961 2.5325 2.2597l7.73-0.44001q2.3961-0.13639 2.2597-2.5325l-0.27413-4.816q-0.13639-2.3961-2.5325-2.2597l-7.73 0.44001q-2.3961 0.13639-2.2597 2.5325z" clip-path="url(#a)" fill="#fff" stroke="#fff"/>
<g clip-path="url(#a)">
<g transform="translate(1616.1 678.33) rotate(86.742) scale(.08 -.08)">
<use xlink:href="#ag"/>
</g>
</g>
<path d="m1697.1 605.18 4.1878 3.5228q1.8366 1.545 3.3816-0.29164l4.9841-5.9249q1.545-1.8366-0.29164-3.3816l-4.1878-3.5228q-1.8366-1.545-3.3816 0.29164l-4.9841 5.9249q-1.545 1.8366 0.29164 3.3816z" clip-path="url(#a)" fill="#fff" stroke="#fff"/>
<g clip-path="url(#a)">
<g transform="translate(1699.7 602.07) rotate(40.071) scale(.08 -.08)">
<use xlink:href="#o"/>
</g>
</g>
<path d="m1461 898.43v33.808q0 2.4 2.4 2.4h7.7425q2.4 0 2.4-2.4v-33.808q0-2.4-2.4-2.4h-7.7425q-2.4 0-2.4 2.4z" clip-path="url(#a)" fill="#fff" stroke="#fff"/>
<g clip-path="url(#a)">
<g transform="translate(1465 898.43) rotate(90) scale(.08 -.08)">
<use xlink:href="#k"/>
<use x="44.083984" xlink:href="#d"/>
<use x="105.607422" xlink:href="#h"/>
<use x="144.970703" xlink:href="#l"/>
<use x="242.382812" xlink:href="#g"/>
<use x="270.166016" xlink:href="#i"/>
<use x="333.544922" xlink:href="#f"/>
<use x="394.824219" xlink:href="#j"/>
</g>
</g>
<path d="m1539.9 898.43v33.808q0 2.4 2.4 2.4h7.7425q2.4 0 2.4-2.4v-33.808q0-2.4-2.4-2.4h-7.7425q-2.4 0-2.4 2.4z" clip-path="url(#a)" fill="#fff" stroke="#fff"/>
<g clip-path="url(#a)">
<g transform="translate(1544 898.43) rotate(90) scale(.08 -.08)">
<use xlink:href="#k"/>
<use x="44.083984" xlink:href="#d"/>
<use x="105.607422" xlink:href="#h"/>
<use x="144.970703" xlink:href="#l"/>
<use x="242.382812" xlink:href="#g"/>
<use x="270.166016" xlink:href="#i"/>
<use x="333.544922" xlink:href="#f"/>
<use x="394.824219" xlink:href="#j"/>
</g>
</g>
<path d="m1621.1 898.43v33.808q0 2.4 2.4 2.4h7.7425q2.4 0 2.4-2.4v-33.808q0-2.4-2.4-2.4h-7.7425q-2.4 0-2.4 2.4z" clip-path="url(#a)" fill="#fff" stroke="#fff"/>
<g clip-path="url(#a)">
<g transform="translate(1625.2 898.43) rotate(90) scale(.08 -.08)">
<use xlink:href="#k"/>
<use x="44.083984" xlink:href="#d"/>
<use x="105.607422" xlink:href="#h"/>
<use x="144.970703" xlink:href="#l"/>
<use x="242.382812" xlink:href="#g"/>
<use x="270.166016" xlink:href="#i"/>
<use x="333.544922" xlink:href="#f"/>
<use x="394.824219" xlink:href="#j"/>
</g>
</g>
<path d="m1758 764.94 2.6779-4.8712q1.1562-2.1031-0.94694-3.2593l-6.7848-3.7299q-2.1031-1.1562-3.2593 0.94694l-2.6779 4.8712q-1.1562 2.1031 0.94694 3.2593l6.7848 3.7299q2.1031 1.1562 3.2593-0.94694z" clip-path="url(#a)" fill="#fff" stroke="#fff"/>
<g clip-path="url(#a)">
<g transform="translate(1754.4 762.98) rotate(-61.2) scale(.08 -.08)">
<use xlink:href="#ap"/>
</g>
</g>
<path d="m1802.9 762.31 0.026025-5.5862q0.011181-2.4-2.3888-2.4112l-7.7424-0.036071q-2.4-0.011181-2.4112 2.3888l-0.026025 5.5862q-0.011181 2.4 2.3888 2.4112l7.7424 0.036071q2.4 0.011181 2.4112-2.3888z" clip-path="url(#a)" fill="#fff" stroke="#fff"/>
<g clip-path="url(#a)">
<g transform="translate(1798.8 762.29) rotate(-89.733) scale(.08 -.08)">
<defs>
<path id="u" d="m64.406 67.281v-10.391q-4.9844 4.6406-10.625 6.9219-5.6406 2.2969-11.984 2.2969-12.5 0-19.141-7.6406t-6.6406-22.094q0-14.406 6.6406-22.047t19.141-7.6406q6.3438 0 11.984 2.2969t10.625 6.9375v-10.312q-5.1719-3.5156-10.969-5.2812-5.7812-1.75-12.219-1.75-16.562 0-26.094 10.125-9.5156 10.141-9.5156 27.672 0 17.578 9.5156 27.703 9.5312 10.141 26.094 10.141 6.5312 0 12.312-1.7344 5.7969-1.7344 10.875-5.2031z"/>
</defs>
<use xlink:href="#u"/>
</g>
</g>
<path d="m1833.6 759.96 2.8389 5.1207q1.1637 2.099 3.2627 0.9353l6.7715-3.7541q2.099-1.1637 0.9353-3.2627l-2.8389-5.1207q-1.1637-2.099-3.2627-0.9353l-6.7715 3.7541q-2.099 1.1637-0.9353 3.2627z" clip-path="url(#a)" fill="#fff" stroke="#fff"/>
<g clip-path="url(#a)">
<g transform="translate(1837.1 757.99) rotate(60.996) scale(.08 -.08)">
<use xlink:href="#af"/>
</g>
</g>
<path d="m1704.4 898.43v33.808q0 2.4 2.4 2.4h7.7425q2.4 0 2.4-2.4v-33.808q0-2.4-2.4-2.4h-7.7425q-2.4 0-2.4 2.4z" clip-path="url(#a)" fill="#fff" stroke="#fff"/>
<g clip-path="url(#a)">
<g transform="translate(1708.5 898.43) rotate(90) scale(.08 -.08)">
<use xlink:href="#k"/>
<use x="44.083984" xlink:href="#d"/>
<use x="105.607422" xlink:href="#h"/>
<use x="144.970703" xlink:href="#l"/>
<use x="242.382812" xlink:href="#g"/>
<use x="270.166016" xlink:href="#i"/>
<use x="333.544922" xlink:href="#f"/>
<use x="394.824219" xlink:href="#j"/>
</g>
</g>
<path d="m1790 898.43v33.808q0 2.4 2.4 2.4h7.7425q2.4 0 2.4-2.4v-33.808q0-2.4-2.4-2.4h-7.7425q-2.4 0-2.4 2.4z" clip-path="url(#a)" fill="#fff" stroke="#fff"/>
<g clip-path="url(#a)">
<g transform="translate(1794 898.43) rotate(90) scale(.08 -.08)">
<use xlink:href="#k"/>
<use x="44.083984" xlink:href="#d"/>
<use x="105.607422" xlink:href="#h"/>
<use x="144.970703" xlink:href="#l"/>
<use x="242.382812" xlink:href="#g"/>
<use x="270.166016" xlink:href="#i"/>
<use x="333.544922" xlink:href="#f"/>
<use x="394.824219" xlink:href="#j"/>
</g>
</g>
<path d="m537.57 898.43v33.808q0 2.4 2.4 2.4h7.7425q2.4 0 2.4-2.4v-33.808q0-2.4-2.4-2.4h-7.7425q-2.4 0-2.4 2.4z" clip-path="url(#a)" fill="#fff" stroke="#fff"/>
<g clip-path="url(#a)">
<g transform="translate(541.64 898.43) rotate(90) scale(.08 -.08)">
<use xlink:href="#k"/>
<use x="44.083984" xlink:href="#d"/>
<use x="105.607422" xlink:href="#h"/>
<use x="144.970703" xlink:href="#l"/>
<use x="242.382812" xlink:href="#g"/>
<use x="270.166016" xlink:href="#i"/>
<use x="333.544922" xlink:href="#f"/>
<use x="394.824219" xlink:href="#j"/>
</g>
</g>
<path d="m583.63 898.43v33.808q0 2.4 2.4 2.4h7.7425q2.4 0 2.4-2.4v-33.808q0-2.4-2.4-2.4h-7.7425q-2.4 0-2.4 2.4z" clip-path="url(#a)" fill="#fff" stroke="#fff"/>
<g clip-path="url(#a)">
<g transform="translate(587.7 898.43) rotate(90) scale(.08 -.08)">
<use xlink:href="#k"/>
<use x="44.083984" xlink:href="#d"/>
<use x="105.607422" xlink:href="#h"/>
<use x="144.970703" xlink:href="#l"/>
<use x="242.382812" xlink:href="#g"/>
<use x="270.166016" xlink:href="#i"/>
<use x="333.544922" xlink:href="#f"/>
<use x="394.824219" xlink:href="#j"/>
</g>
</g>
<path d="m631.89 898.43v33.808q0 2.4 2.4 2.4h7.7425q2.4 0 2.4-2.4v-33.808q0-2.4-2.4-2.4h-7.7425q-2.4 0-2.4 2.4z" clip-path="url(#a)" fill="#fff" stroke="#fff"/>
<g clip-path="url(#a)">
<g transform="translate(635.95 898.43) rotate(90) scale(.08 -.08)">
<use xlink:href="#k"/>
<use x="44.083984" xlink:href="#d"/>
<use x="105.607422" xlink:href="#h"/>
<use x="144.970703" xlink:href="#l"/>
<use x="242.382812" xlink:href="#g"/>
<use x="270.166016" xlink:href="#i"/>
<use x="333.544922" xlink:href="#f"/>
<use x="394.824219" xlink:href="#j"/>
</g>
</g>
<path d="m839.52 450.73 4.3001-3.5659q1.8474-1.532 0.31544-3.3794l-4.9423-5.9599q-1.532-1.8474-3.3794-0.31544l-4.3001 3.5659q-1.8474 1.532-0.31544 3.3794l4.9423 5.9599q1.532 1.8474 3.3794 0.31544z" clip-path="url(#a)" fill="#fff" stroke="#fff"/>
<g clip-path="url(#a)">
<g transform="translate(836.92 447.6) rotate(-39.667) scale(.08 -.08)">
<use xlink:href="#u"/>
</g>
</g>
<path d="m946.92 599.02 0.51234 5.963q0.20545 2.3912 2.5966 2.1857l7.7141-0.6628q2.3912-0.20545 2.1857-2.5966l-0.51234-5.963q-0.20545-2.3912-2.5966-2.1857l-7.7141 0.6628q-2.3912 0.20545-2.1857 2.5966z" clip-path="url(#a)" fill="#fff" stroke="#fff"/>
<g clip-path="url(#a)">
<g transform="translate(950.97 598.67) rotate(85.089) scale(.08 -.08)">
<defs>
<path id="aw" d="m9.8125 72.906h13.281l32.328-60.984v60.984h9.5625v-72.906h-13.281l-32.312 60.984v-60.984h-9.5781z"/>
</defs>
<use xlink:href="#aw"/>
</g>
</g>
<path d="m1012.3 446.83 4.0997 3.7945q1.7613 1.6302 3.3916-0.13111l5.2592-5.6822q1.6302-1.7613-0.13111-3.3916l-4.0997-3.7945q-1.7613-1.6302-3.3916 0.13111l-5.2592 5.6822q-1.6302 1.7613 0.13111 3.3916z" clip-path="url(#a)" fill="#fff" stroke="#fff"/>
<g clip-path="url(#a)">
<g transform="translate(1015.1 443.84) rotate(42.786) scale(.08 -.08)">
<use xlink:href="#u"/>
</g>
</g>
<path d="m928.85 604.66 0.25694-5.8494q0.10532-2.3977-2.2924-2.503l-7.735-0.33977q-2.3977-0.10532-2.503 2.2924l-0.25694 5.8494q-0.10532 2.3977 2.2924 2.503l7.735 0.33977q2.3977 0.10532 2.503-2.2924z" clip-path="url(#a)" fill="#fff" stroke="#fff"/>
<g clip-path="url(#a)">
<g transform="translate(924.79 604.48) rotate(-87.485) scale(.08 -.08)">
<use xlink:href="#af"/>
</g>
</g>
<path d="m721.21 683.93 0.77282-4.5359q0.4031-2.3659-1.9628-2.769l-7.6325-1.3004q-2.3659-0.4031-2.769 1.9628l-0.77282 4.5359q-0.4031 2.3659 1.9628 2.769l7.6325 1.3004q2.3659 0.4031 2.769-1.9628z" clip-path="url(#a)" fill="#fff" stroke="#fff"/>
<g clip-path="url(#a)">
<g transform="translate(717.2 683.25) rotate(-80.331) scale(.08 -.08)">
<use xlink:href="#aj"/>
</g>
</g>
<path d="m748 683.42 0.017305-5.5862q0.007435-2.4-2.3926-2.4074l-7.7425-0.023984q-2.4-0.007435-2.4074 2.3926l-0.017305 5.5862q-0.007435 2.4 2.3926 2.4074l7.7425 0.023984q2.4 0.007435 2.4074-2.3926z" clip-path="url(#a)" fill="#fff" stroke="#fff"/>
<g clip-path="url(#a)">
<g transform="translate(743.93 683.41) rotate(-89.823) scale(.08 -.08)">
<use xlink:href="#u"/>
</g>
</g>
<path d="m762.76 601.8 1.6531 4.7771q0.78485 2.268 3.0529 1.4832l7.3168-2.532q2.268-0.78485 1.4832-3.0529l-1.6531-4.7771q-0.78485-2.268-3.0529-1.4832l-7.3168 2.532q-2.268 0.78485-1.4832 3.0529z" clip-path="url(#a)" fill="#fff" stroke="#fff"/>
<g clip-path="url(#a)">
<g transform="translate(766.6 600.48) rotate(70.912) scale(.08 -.08)">
<defs>
<path id="ak" d="m9.8125 72.906h46.094v-8.3125h-36.234v-21.578h34.719v-8.2969h-34.719v-26.422h37.109v-8.2969h-46.969z"/>
</defs>
<use xlink:href="#ak"/>
</g>
</g>
<path d="m967.47 898.43v33.808q0 2.4 2.4 2.4h7.7425q2.4 0 2.4-2.4v-33.808q0-2.4-2.4-2.4h-7.7425q-2.4 0-2.4 2.4z" clip-path="url(#a)" fill="#fff" stroke="#fff"/>
<g clip-path="url(#a)">
<g transform="translate(971.54 898.43) rotate(90) scale(.08 -.08)">
<use xlink:href="#k"/>
<use x="44.083984" xlink:href="#d"/>
<use x="105.607422" xlink:href="#h"/>
<use x="144.970703" xlink:href="#l"/>
<use x="242.382812" xlink:href="#g"/>
<use x="270.166016" xlink:href="#i"/>
<use x="333.544922" xlink:href="#f"/>
<use x="394.824219" xlink:href="#j"/>
</g>
</g>
<path d="m1076.4 684.16 0.95511-4.501q0.49818-2.3477-1.8495-2.8459l-7.5739-1.6072q-2.3477-0.49818-2.8459 1.8495l-0.95511 4.501q-0.49818 2.3477 1.8495 2.8459l7.5739 1.6072q2.3477 0.49818 2.8459-1.8495z" clip-path="url(#a)" fill="#fff" stroke="#fff"/>
<g clip-path="url(#a)">
<g transform="translate(1072.4 683.32) rotate(-78.02) scale(.08 -.08)">
<use xlink:href="#aj"/>
</g>
</g>
<path d="m1109.9 683.42 0.017305-5.5862q0.007435-2.4-2.3926-2.4074l-7.7425-0.023984q-2.4-0.007435-2.4074 2.3926l-0.017305 5.5862q-0.007435 2.4 2.3926 2.4074l7.7425 0.023984q2.4 0.007435 2.4074-2.3926z" clip-path="url(#a)" fill="#fff" stroke="#fff"/>
<g clip-path="url(#a)">
<g transform="translate(1105.8 683.41) rotate(-89.823) scale(.08 -.08)">
<use xlink:href="#u"/>
</g>
</g>
<path d="m1131.2 602.29 1.9948 4.6448q0.94708 2.2052 3.1523 1.2582l7.1142-3.0553q2.2052-0.94708 1.2582-3.1523l-1.9948-4.6448q-0.94708-2.2052-3.1523-1.2581l-7.1142 3.0553q-2.2052 0.94708-1.2581 3.1523z" clip-path="url(#a)" fill="#fff" stroke="#fff"/>
<g clip-path="url(#a)">
<g transform="translate(1135 600.69) rotate(66.758) scale(.08 -.08)">
<use xlink:href="#ak"/>
</g>
</g>
<path d="m1031.1 898.43v33.808q0 2.4 2.4 2.4h7.7425q2.4 0 2.4-2.4v-33.808q0-2.4-2.4-2.4h-7.7425q-2.4 0-2.4 2.4z" clip-path="url(#a)" fill="#fff" stroke="#fff"/>
<g clip-path="url(#a)">
<g transform="translate(1035.1 898.43) rotate(90) scale(.08 -.08)">
<use xlink:href="#k"/>
<use x="44.083984" xlink:href="#d"/>
<use x="105.607422" xlink:href="#h"/>
<use x="144.970703" xlink:href="#l"/>
<use x="242.382812" xlink:href="#g"/>
<use x="270.166016" xlink:href="#i"/>
<use x="333.544922" xlink:href="#f"/>
<use x="394.824219" xlink:href="#j"/>
</g>
</g>
<path d="m1096.9 898.43v33.808q0 2.4 2.4 2.4h7.7425q2.4 0 2.4-2.4v-33.808q0-2.4-2.4-2.4h-7.7425q-2.4 0-2.4 2.4z" clip-path="url(#a)" fill="#fff" stroke="#fff"/>
<g clip-path="url(#a)">
<g transform="translate(1100.9 898.43) rotate(90) scale(.08 -.08)">
<use xlink:href="#k"/>
<use x="44.083984" xlink:href="#d"/>
<use x="105.607422" xlink:href="#h"/>
<use x="144.970703" xlink:href="#l"/>
<use x="242.382812" xlink:href="#g"/>
<use x="270.166016" xlink:href="#i"/>
<use x="333.544922" xlink:href="#f"/>
<use x="394.824219" xlink:href="#j"/>
</g>
</g>
<path d="m1142.2 764.51 2.1953-5.0129q0.96277-2.1984-1.2357-3.1612l-7.0922-3.1059q-2.1984-0.96277-3.1612 1.2357l-2.1953 5.0129q-0.96277 2.1984 1.2357 3.1612l7.0922 3.1059q2.1984 0.96277 3.1612-1.2357z" clip-path="url(#a)" fill="#fff" stroke="#fff"/>
<g clip-path="url(#a)">
<g transform="translate(1138.4 762.88) rotate(-66.35) scale(.08 -.08)">
<use xlink:href="#o"/>
</g>
</g>
<path d="m1177.8 762.59 0.028699-6.1599q0.011181-2.4-2.3888-2.4112l-7.7424-0.036071q-2.4-0.011181-2.4112 2.3888l-0.028699 6.1599q-0.011181 2.4 2.3888 2.4112l7.7424 0.036071q2.4 0.011181 2.4112-2.3888z" clip-path="url(#a)" fill="#fff" stroke="#fff"/>
<g clip-path="url(#a)">
<g transform="translate(1173.7 762.57) rotate(-89.733) scale(.08 -.08)">
<use xlink:href="#al"/>
</g>
</g>
<path d="m1199.8 759.7 2.0555 4.6442q0.97134 2.1947 3.166 1.2233l7.08-3.1336q2.1947-0.97134 1.2233-3.166l-2.0555-4.6442q-0.97134-2.1947-3.166-1.2233l-7.08 3.1336q-2.1947 0.97134-1.2233 3.166z" clip-path="url(#a)" fill="#fff" stroke="#fff"/>
<g clip-path="url(#a)">
<g transform="translate(1203.6 758.06) rotate(66.126) scale(.08 -.08)">
<use xlink:href="#y"/>
</g>
</g>
<path d="m1164.9 898.43v33.808q0 2.4 2.4 2.4h7.7425q2.4 0 2.4-2.4v-33.808q0-2.4-2.4-2.4h-7.7425q-2.4 0-2.4 2.4z" clip-path="url(#a)" fill="#fff" stroke="#fff"/>
<g clip-path="url(#a)">
<g transform="translate(1168.9 898.43) rotate(90) scale(.08 -.08)">
<use xlink:href="#k"/>
<use x="44.083984" xlink:href="#d"/>
<use x="105.607422" xlink:href="#h"/>
<use x="144.970703" xlink:href="#l"/>
<use x="242.382812" xlink:href="#g"/>
<use x="270.166016" xlink:href="#i"/>
<use x="333.544922" xlink:href="#f"/>
<use x="394.824219" xlink:href="#j"/>
</g>
</g>
<path d="m1235.1 898.43v33.808q0 2.4 2.4 2.4h7.7425q2.4 0 2.4-2.4v-33.808q0-2.4-2.4-2.4h-7.7425q-2.4 0-2.4 2.4z" clip-path="url(#a)" fill="#fff" stroke="#fff"/>
<g clip-path="url(#a)">
<g transform="translate(1239.1 898.43) rotate(90) scale(.08 -.08)">
<use xlink:href="#k"/>
<use x="44.083984" xlink:href="#d"/>
<use x="105.607422" xlink:href="#h"/>
<use x="144.970703" xlink:href="#l"/>
<use x="242.382812" xlink:href="#g"/>
<use x="270.166016" xlink:href="#i"/>
<use x="333.544922" xlink:href="#f"/>
<use x="394.824219" xlink:href="#j"/>
</g>
</g>
<path d="m682.33 898.43v33.808q0 2.4 2.4 2.4h7.7425q2.4 0 2.4-2.4v-33.808q0-2.4-2.4-2.4h-7.7425q-2.4 0-2.4 2.4z" clip-path="url(#a)" fill="#fff" stroke="#fff"/>
<g clip-path="url(#a)">
<g transform="translate(686.4 898.43) rotate(90) scale(.08 -.08)">
<use xlink:href="#k"/>
<use x="44.083984" xlink:href="#d"/>
<use x="105.607422" xlink:href="#h"/>
<use x="144.970703" xlink:href="#l"/>
<use x="242.382812" xlink:href="#g"/>
<use x="270.166016" xlink:href="#i"/>
<use x="333.544922" xlink:href="#f"/>
<use x="394.824219" xlink:href="#j"/>
</g>
</g>
<path d="m734.98 898.43v33.808q0 2.4 2.4 2.4h7.7425q2.4 0 2.4-2.4v-33.808q0-2.4-2.4-2.4h-7.7425q-2.4 0-2.4 2.4z" clip-path="url(#a)" fill="#fff" stroke="#fff"/>
<g clip-path="url(#a)">
<g transform="translate(739.04 898.43) rotate(90) scale(.08 -.08)">
<use xlink:href="#k"/>
<use x="44.083984" xlink:href="#d"/>
<use x="105.607422" xlink:href="#h"/>
<use x="144.970703" xlink:href="#l"/>
<use x="242.382812" xlink:href="#g"/>
<use x="270.166016" xlink:href="#i"/>
<use x="333.544922" xlink:href="#f"/>
<use x="394.824219" xlink:href="#j"/>
</g>
</g>
<path d="m774.03 764.16 1.8266-5.1587q0.80105-2.2624-1.4613-3.0634l-7.2985-2.5842q-2.2624-0.80105-3.0634 1.4613l-1.8266 5.1587q-0.80105 2.2624 1.4613 3.0634l7.2985 2.5842q2.2624 0.80105 3.0634-1.4613z" clip-path="url(#a)" fill="#fff" stroke="#fff"/>
<g clip-path="url(#a)">
<g transform="translate(770.2 762.8) rotate(-70.502) scale(.08 -.08)">
<use xlink:href="#o"/>
</g>
</g>
<path d="m802.7 762.59 0.028699-6.1599q0.011181-2.4-2.3888-2.4112l-7.7424-0.036071q-2.4-0.011181-2.4112 2.3888l-0.028699 6.1599q-0.011181 2.4 2.3888 2.4112l7.7424 0.036071q2.4 0.011181 2.4112-2.3888z" clip-path="url(#a)" fill="#fff" stroke="#fff"/>
<g clip-path="url(#a)">
<g transform="translate(798.64 762.57) rotate(-89.733) scale(.08 -.08)">
<use xlink:href="#al"/>
</g>
</g>
<path d="m818.2 759.21 1.7149 4.7805q0.81039 2.259 3.0694 1.4486l7.2878-2.6144q2.259-0.81039 1.4486-3.0694l-1.7149-4.7805q-0.81039-2.259-3.0694-1.4486l-7.2878 2.6144q-2.259 0.81039-1.4486 3.0694z" clip-path="url(#a)" fill="#fff" stroke="#fff"/>
<g clip-path="url(#a)">
<g transform="translate(822.02 757.84) rotate(70.265) scale(.08 -.08)">
<use xlink:href="#y"/>
</g>
</g>
<path d="m789.81 898.43v33.808q0 2.4 2.4 2.4h7.7425q2.4 0 2.4-2.4v-33.808q0-2.4-2.4-2.4h-7.7425q-2.4 0-2.4 2.4z" clip-path="url(#a)" fill="#fff" stroke="#fff"/>
<g clip-path="url(#a)">
<g transform="translate(793.87 898.43) rotate(90) scale(.08 -.08)">
<use xlink:href="#k"/>
<use x="44.083984" xlink:href="#d"/>
<use x="105.607422" xlink:href="#h"/>
<use x="144.970703" xlink:href="#l"/>
<use x="242.382812" xlink:href="#g"/>
<use x="270.166016" xlink:href="#i"/>
<use x="333.544922" xlink:href="#f"/>
<use x="394.824219" xlink:href="#j"/>
</g>
</g>
<path d="m846.84 898.43v33.808q0 2.4 2.4 2.4h7.7425q2.4 0 2.4-2.4v-33.808q0-2.4-2.4-2.4h-7.7425q-2.4 0-2.4 2.4z" clip-path="url(#a)" fill="#fff" stroke="#fff"/>
<g clip-path="url(#a)">
<g transform="translate(850.9 898.43) rotate(90) scale(.08 -.08)">
<use xlink:href="#k"/>
<use x="44.083984" xlink:href="#d"/>
<use x="105.607422" xlink:href="#h"/>
<use x="144.970703" xlink:href="#l"/>
<use x="242.382812" xlink:href="#g"/>
<use x="270.166016" xlink:href="#i"/>
<use x="333.544922" xlink:href="#f"/>
<use x="394.824219" xlink:href="#j"/>
</g>
</g>
<path d="m197.6 898.43v33.808q0 2.4 2.4 2.4h7.7425q2.4 0 2.4-2.4v-33.808q0-2.4-2.4-2.4h-7.7425q-2.4 0-2.4 2.4z" clip-path="url(#a)" fill="#fff" stroke="#fff"/>
<g clip-path="url(#a)">
<g transform="translate(201.67 898.43) rotate(90) scale(.08 -.08)">
<use xlink:href="#k"/>
<use x="44.083984" xlink:href="#d"/>
<use x="105.607422" xlink:href="#h"/>
<use x="144.970703" xlink:href="#l"/>
<use x="242.382812" xlink:href="#g"/>
<use x="270.166016" xlink:href="#i"/>
<use x="333.544922" xlink:href="#f"/>
<use x="394.824219" xlink:href="#j"/>
</g>
</g>
<path d="m221.73 898.43v33.808q0 2.4 2.4 2.4h7.7425q2.4 0 2.4-2.4v-33.808q0-2.4-2.4-2.4h-7.7425q-2.4 0-2.4 2.4z" clip-path="url(#a)" fill="#fff" stroke="#fff"/>
<g clip-path="url(#a)">
<g transform="translate(225.79 898.43) rotate(90) scale(.08 -.08)">
<use xlink:href="#k"/>
<use x="44.083984" xlink:href="#d"/>
<use x="105.607422" xlink:href="#h"/>
<use x="144.970703" xlink:href="#l"/>
<use x="242.382812" xlink:href="#g"/>
<use x="270.166016" xlink:href="#i"/>
<use x="333.544922" xlink:href="#f"/>
<use x="394.824219" xlink:href="#j"/>
</g>
</g>
<path d="m267.47 762.57 0.45735-5.0343q0.21714-2.3902-2.173-2.6073l-7.7107-0.70051q-2.3902-0.21714-2.6073 2.173l-0.45735 5.0343q-0.21714 2.3902 2.173 2.6073l7.7107 0.70051q2.3902 0.21714 2.6073-2.173z" clip-path="url(#a)" fill="#fff" stroke="#fff"/>
<g clip-path="url(#a)">
<g transform="translate(263.42 762.2) rotate(-84.809) scale(.08 -.08)">
<use xlink:href="#ak"/>
</g>
</g>
<path d="m269.21 757.27 0.50542 5.5633q0.21714 2.3902 2.6073 2.173l7.7107-0.70051q2.3902-0.21714 2.173-2.6073l-0.50542-5.5633q-0.21714-2.3902-2.6073-2.173l-7.7107 0.70051q-2.3902 0.21714-2.173 2.6073z" clip-path="url(#a)" fill="#fff" stroke="#fff"/>
<g clip-path="url(#a)">
<g transform="translate(273.25 756.9) rotate(84.809) scale(.08 -.08)">
<use xlink:href="#u"/>
</g>
</g>
<path d="m344.4 764.08 1.7346-5.2812q0.74892-2.2802-1.5312-3.0291l-7.3559-2.416q-2.2802-0.74892-3.0291 1.5312l-1.7346 5.2812q-0.74892 2.2802 1.5312 3.0291l7.3559 2.416q2.2802 0.74892 3.0291-1.5312z" clip-path="url(#a)" fill="#fff" stroke="#fff"/>
<g clip-path="url(#a)">
<g transform="translate(340.54 762.81) rotate(-71.817) scale(.08 -.08)">
<use xlink:href="#ap"/>
</g>
</g>
<path d="m361.72 762.51 0.54282-4.5691q0.28313-2.3832-2.1001-2.6664l-7.6884-0.9134q-2.3832-0.28313-2.6664 2.1001l-0.54282 4.5691q-0.28313 2.3832 2.1001 2.6664l7.6884 0.9134q2.3832 0.28313 2.6664-2.1001z" clip-path="url(#a)" fill="#fff" stroke="#fff"/>
<g clip-path="url(#a)">
<g transform="translate(357.68 762.03) rotate(-83.225) scale(.08 -.08)">
<use xlink:href="#aj"/>
</g>
</g>
<path d="m366.78 757.36 0.58239 5.5558q0.25021 2.3869 2.6371 2.1367l7.7003-0.80718q2.3869-0.25021 2.1367-2.6371l-0.58239-5.5558q-0.25021-2.3869-2.6371-2.1367l-7.7003 0.80718q-2.3869 0.25021-2.1367 2.6371z" clip-path="url(#a)" fill="#fff" stroke="#fff"/>
<g clip-path="url(#a)">
<g transform="translate(370.82 756.94) rotate(84.016) scale(.08 -.08)">
<use xlink:href="#u"/>
</g>
</g>
<path d="m385.2 759.12 1.6376 4.7824q0.77751 2.2706 3.0481 1.4931l7.325-2.5083q2.2706-0.7775 1.4931-3.0481l-1.6376-4.7824q-0.77751-2.2706-3.0481-1.4931l-7.325 2.5083q-2.2706 0.7775-1.4931 3.0481z" clip-path="url(#a)" fill="#fff" stroke="#fff"/>
<g clip-path="url(#a)">
<g transform="translate(389.05 757.81) rotate(71.097) scale(.08 -.08)">
<use xlink:href="#ak"/>
</g>
</g>
<path d="m307.27 898.43v33.808q0 2.4 2.4 2.4h7.7425q2.4 0 2.4-2.4v-33.808q0-2.4-2.4-2.4h-7.7425q-2.4 0-2.4 2.4z" clip-path="url(#a)" fill="#fff" stroke="#fff"/>
<g clip-path="url(#a)">
<g transform="translate(311.33 898.43) rotate(90) scale(.08 -.08)">
<use xlink:href="#k"/>
<use x="44.083984" xlink:href="#d"/>
<use x="105.607422" xlink:href="#h"/>
<use x="144.970703" xlink:href="#l"/>
<use x="242.382812" xlink:href="#g"/>
<use x="270.166016" xlink:href="#i"/>
<use x="333.544922" xlink:href="#f"/>
<use x="394.824219" xlink:href="#j"/>
</g>
</g>
<path d="m340.17 898.43v33.808q0 2.4 2.4 2.4h7.7425q2.4 0 2.4-2.4v-33.808q0-2.4-2.4-2.4h-7.7425q-2.4 0-2.4 2.4z" clip-path="url(#a)" fill="#fff" stroke="#fff"/>
<g clip-path="url(#a)">
<g transform="translate(344.23 898.43) rotate(90) scale(.08 -.08)">
<use xlink:href="#k"/>
<use x="44.083984" xlink:href="#d"/>
<use x="105.607422" xlink:href="#h"/>
<use x="144.970703" xlink:href="#l"/>
<use x="242.382812" xlink:href="#g"/>
<use x="270.166016" xlink:href="#i"/>
<use x="333.544922" xlink:href="#f"/>
<use x="394.824219" xlink:href="#j"/>
</g>
</g>
<path d="m375.26 898.43v33.808q0 2.4 2.4 2.4h7.7425q2.4 0 2.4-2.4v-33.808q0-2.4-2.4-2.4h-7.7425q-2.4 0-2.4 2.4z" clip-path="url(#a)" fill="#fff" stroke="#fff"/>
<g clip-path="url(#a)">
<g transform="translate(379.33 898.43) rotate(90) scale(.08 -.08)">
<use xlink:href="#k"/>
<use x="44.083984" xlink:href="#d"/>
<use x="105.607422" xlink:href="#h"/>
<use x="144.970703" xlink:href="#l"/>
<use x="242.382812" xlink:href="#g"/>
<use x="270.166016" xlink:href="#i"/>
<use x="333.544922" xlink:href="#f"/>
<use x="394.824219" xlink:href="#j"/>
</g>
</g>
<path d="m412.55 898.43v33.808q0 2.4 2.4 2.4h7.7425q2.4 0 2.4-2.4v-33.808q0-2.4-2.4-2.4h-7.7425q-2.4 0-2.4 2.4z" clip-path="url(#a)" fill="#fff" stroke="#fff"/>
<g clip-path="url(#a)">
<g transform="translate(416.62 898.43) rotate(90) scale(.08 -.08)">
<use xlink:href="#k"/>
<use x="44.083984" xlink:href="#d"/>
<use x="105.607422" xlink:href="#h"/>
<use x="144.970703" xlink:href="#l"/>
<use x="242.382812" xlink:href="#g"/>
<use x="270.166016" xlink:href="#i"/>
<use x="333.544922" xlink:href="#f"/>
<use x="394.824219" xlink:href="#j"/>
</g>
</g>
<path d="m248.05 898.43v33.808q0 2.4 2.4 2.4h7.7425q2.4 0 2.4-2.4v-33.808q0-2.4-2.4-2.4h-7.7425q-2.4 0-2.4 2.4z" clip-path="url(#a)" fill="#fff" stroke="#fff"/>
<g clip-path="url(#a)">
<g transform="translate(252.11 898.43) rotate(90) scale(.08 -.08)">
<use xlink:href="#k"/>
<use x="44.083984" xlink:href="#d"/>
<use x="105.607422" xlink:href="#h"/>
<use x="144.970703" xlink:href="#l"/>
<use x="242.382812" xlink:href="#g"/>
<use x="270.166016" xlink:href="#i"/>
<use x="333.544922" xlink:href="#f"/>
<use x="394.824219" xlink:href="#j"/>
</g>
</g>
<path d="m276.56 898.43v33.808q0 2.4 2.4 2.4h7.7425q2.4 0 2.4-2.4v-33.808q0-2.4-2.4-2.4h-7.7425q-2.4 0-2.4 2.4z" clip-path="url(#a)" fill="#fff" stroke="#fff"/>
<g clip-path="url(#a)">
<g transform="translate(280.63 898.43) rotate(90) scale(.08 -.08)">
<use xlink:href="#k"/>
<use x="44.083984" xlink:href="#d"/>
<use x="105.607422" xlink:href="#h"/>
<use x="144.970703" xlink:href="#l"/>
<use x="242.382812" xlink:href="#g"/>
<use x="270.166016" xlink:href="#i"/>
<use x="333.544922" xlink:href="#f"/>
<use x="394.824219" xlink:href="#j"/>
</g>
</g>
<path d="m109.87 898.43v33.808q0 2.4 2.4 2.4h7.7425q2.4 0 2.4-2.4v-33.808q0-2.4-2.4-2.4h-7.7425q-2.4 0-2.4 2.4z" clip-path="url(#a)" fill="#fff" stroke="#fff"/>
<g clip-path="url(#a)">
<g transform="translate(113.93 898.43) rotate(90) scale(.08 -.08)">
<use xlink:href="#k"/>
<use x="44.083984" xlink:href="#d"/>
<use x="105.607422" xlink:href="#h"/>
<use x="144.970703" xlink:href="#l"/>
<use x="242.382812" xlink:href="#g"/>
<use x="270.166016" xlink:href="#i"/>
<use x="333.544922" xlink:href="#f"/>
<use x="394.824219" xlink:href="#j"/>
</g>
</g>
<path d="m175.67 898.43v33.808q0 2.4 2.4 2.4h7.7425q2.4 0 2.4-2.4v-33.808q0-2.4-2.4-2.4h-7.7425q-2.4 0-2.4 2.4z" clip-path="url(#a)" fill="#fff" stroke="#fff"/>
<g clip-path="url(#a)">
<g transform="translate(179.73 898.43) rotate(90) scale(.08 -.08)">
<use xlink:href="#k"/>
<use x="44.083984" xlink:href="#d"/>
<use x="105.607422" xlink:href="#h"/>
<use x="144.970703" xlink:href="#l"/>
<use x="242.382812" xlink:href="#g"/>
<use x="270.166016" xlink:href="#i"/>
<use x="333.544922" xlink:href="#f"/>
<use x="394.824219" xlink:href="#j"/>
</g>
</g>
<path d="m452.03 898.43v33.808q0 2.4 2.4 2.4h7.7425q2.4 0 2.4-2.4v-33.808q0-2.4-2.4-2.4h-7.7425q-2.4 0-2.4 2.4z" clip-path="url(#a)" fill="#fff" stroke="#fff"/>
<g clip-path="url(#a)">
<g transform="translate(456.1 898.43) rotate(90) scale(.08 -.08)">
<use xlink:href="#k"/>
<use x="44.083984" xlink:href="#d"/>
<use x="105.607422" xlink:href="#h"/>
<use x="144.970703" xlink:href="#l"/>
<use x="242.382812" xlink:href="#g"/>
<use x="270.166016" xlink:href="#i"/>
<use x="333.544922" xlink:href="#f"/>
<use x="394.824219" xlink:href="#j"/>
</g>
</g>
<path d="m906.06 898.43v33.808q0 2.4 2.4 2.4h7.7425q2.4 0 2.4-2.4v-33.808q0-2.4-2.4-2.4h-7.7425q-2.4 0-2.4 2.4z" clip-path="url(#a)" fill="#fff" stroke="#fff"/>
<g clip-path="url(#a)">
<g transform="translate(910.12 898.43) rotate(90) scale(.08 -.08)">
<use xlink:href="#k"/>
<use x="44.083984" xlink:href="#d"/>
<use x="105.607422" xlink:href="#h"/>
<use x="144.970703" xlink:href="#l"/>
<use x="242.382812" xlink:href="#g"/>
<use x="270.166016" xlink:href="#i"/>
<use x="333.544922" xlink:href="#f"/>
<use x="394.824219" xlink:href="#j"/>
</g>
</g>
<path d="m1877.7 898.43v33.808q0 2.4 2.4 2.4h7.7425q2.4 0 2.4-2.4v-33.808q0-2.4-2.4-2.4h-7.7425q-2.4 0-2.4 2.4z" clip-path="url(#a)" fill="#fff" stroke="#fff"/>
<g clip-path="url(#a)">
<g transform="translate(1881.8 898.43) rotate(90) scale(.08 -.08)">
<use xlink:href="#k"/>
<use x="44.083984" xlink:href="#d"/>
<use x="105.607422" xlink:href="#h"/>
<use x="144.970703" xlink:href="#l"/>
<use x="242.382812" xlink:href="#g"/>
<use x="270.166016" xlink:href="#i"/>
<use x="333.544922" xlink:href="#f"/>
<use x="394.824219" xlink:href="#j"/>
</g>
</g>
<defs>
<path id="b" d="m0 8.6603c2.2967 0 4.4997-0.9125 6.1237-2.5365 1.624-1.624 2.5365-3.827 2.5365-6.1237s-0.9125-4.4997-2.5365-6.1237c-1.624-1.624-3.827-2.5365-6.1237-2.5365s-4.4997 0.9125-6.1237 2.5365c-1.624 1.624-2.5365 3.827-2.5365 6.1237s0.9125 4.4997 2.5365 6.1237c1.624 1.624 3.827 2.5365 6.1237 2.5365z"/>
</defs>
<g clip-path="url(#a)" fill="#ffffff" stroke="#ffffff">
<use x="89.818182" y="992.727273" xlink:href="#b"/>
<use x="96.398268" y="992.727273" xlink:href="#b"/>
<use x="105.171717" y="992.727273" xlink:href="#b"/>
<use x="116.138528" y="992.727273" xlink:href="#b"/>
<use x="129.298701" y="992.727273" xlink:href="#b"/>
<use x="144.652237" y="992.727273" xlink:href="#b"/>
<use x="162.199134" y="992.727273" xlink:href="#b"/>
<use x="181.939394" y="992.727273" xlink:href="#b"/>
<use x="203.873016" y="992.727273" xlink:href="#b"/>
<use x="228" y="992.727273" xlink:href="#b"/>
<use x="254.320346" y="992.727273" xlink:href="#b"/>
<use x="282.834055" y="992.727273" xlink:href="#b"/>
<use x="313.541126" y="992.727273" xlink:href="#b"/>
<use x="346.441558" y="992.727273" xlink:href="#b"/>
<use x="381.535354" y="992.727273" xlink:href="#b"/>
<use x="418.822511" y="992.727273" xlink:href="#b"/>
<use x="458.30303" y="992.727273" xlink:href="#b"/>
<use x="499.976912" y="992.727273" xlink:href="#b"/>
<use x="543.844156" y="992.727273" xlink:href="#b"/>
<use x="589.904762" y="992.727273" xlink:href="#b"/>
<use x="638.15873" y="992.727273" xlink:href="#b"/>
<use x="688.606061" y="992.727273" xlink:href="#b"/>
<use x="741.246753" y="992.727273" xlink:href="#b"/>
<use x="796.080808" y="992.727273" xlink:href="#b"/>
<use x="853.108225" y="992.727273" xlink:href="#b"/>
<use x="912.329004" y="992.727273" xlink:href="#b"/>
<use x="973.743146" y="992.727273" xlink:href="#b"/>
<use x="1037.350649" y="992.727273" xlink:href="#b"/>
<use x="1103.151515" y="992.727273" xlink:href="#b"/>
<use x="1171.145743" y="992.727273" xlink:href="#b"/>
<use x="1241.333333" y="992.727273" xlink:href="#b"/>
<use x="1315.907648" y="992.727273" xlink:href="#b"/>
<use x="1390.481962" y="992.727273" xlink:href="#b"/>
<use x="1467.249639" y="992.727273" xlink:href="#b"/>
<use x="1546.210678" y="992.727273" xlink:href="#b"/>
<use x="1627.365079" y="992.727273" xlink:href="#b"/>
<use x="1710.712843" y="992.727273" xlink:href="#b"/>
<use x="1796.253968" y="992.727273" xlink:href="#b"/>
<use x="1883.988456" y="992.727273" xlink:href="#b"/>
<use x="1886.181818" y="523.265366" xlink:href="#b"/>
<use x="1243.526696" y="364.974727" xlink:href="#b"/>
<use x="440.354251" y="47.272727" xlink:href="#b"/>
<use x="96.398268" y="837.94975" xlink:href="#b"/>
<use x="144.652237" y="837.94975" xlink:href="#b"/>
<use x="266.383838" y="523.265366" xlink:href="#b"/>
<use x="499.976912" y="837.94975" xlink:href="#b"/>
<use x="676.253167" y="206.283649" xlink:href="#b"/>
<use x="1315.907648" y="837.94975" xlink:href="#b"/>
<use x="1499.967292" y="364.974727" xlink:href="#b"/>
<use x="146.845599" y="681.019102" xlink:href="#b"/>
<use x="154.522367" y="681.019102" xlink:href="#b"/>
<use x="166.585859" y="681.019102" xlink:href="#b"/>
<use x="182.670515" y="681.019102" xlink:href="#b"/>
<use x="162.199134" y="837.94975" xlink:href="#b"/>
<use x="129.298701" y="837.94975" xlink:href="#b"/>
<use x="105.171717" y="837.94975" xlink:href="#b"/>
<use x="89.818182" y="837.94975" xlink:href="#b"/>
<use x="1390.481962" y="837.94975" xlink:href="#b"/>
<use x="1609.452621" y="523.265366" xlink:href="#b"/>
<use x="1467.249639" y="837.94975" xlink:href="#b"/>
<use x="1546.210678" y="837.94975" xlink:href="#b"/>
<use x="1627.365079" y="837.94975" xlink:href="#b"/>
<use x="1796.985089" y="681.019102" xlink:href="#b"/>
<use x="1710.712843" y="837.94975" xlink:href="#b"/>
<use x="1796.253968" y="837.94975" xlink:href="#b"/>
<use x="543.844156" y="837.94975" xlink:href="#b"/>
<use x="589.904762" y="837.94975" xlink:href="#b"/>
<use x="638.15873" y="837.94975" xlink:href="#b"/>
<use x="933.105018" y="364.974727" xlink:href="#b"/>
<use x="742.221581" y="523.265366" xlink:href="#b"/>
<use x="973.743146" y="837.94975" xlink:href="#b"/>
<use x="1104.126343" y="523.265366" xlink:href="#b"/>
<use x="1037.350649" y="837.94975" xlink:href="#b"/>
<use x="1103.151515" y="837.94975" xlink:href="#b"/>
<use x="1171.876864" y="681.019102" xlink:href="#b"/>
<use x="1171.145743" y="837.94975" xlink:href="#b"/>
<use x="1241.333333" y="837.94975" xlink:href="#b"/>
<use x="688.606061" y="837.94975" xlink:href="#b"/>
<use x="741.246753" y="837.94975" xlink:href="#b"/>
<use x="796.811929" y="681.019102" xlink:href="#b"/>
<use x="796.080808" y="837.94975" xlink:href="#b"/>
<use x="853.108225" y="837.94975" xlink:href="#b"/>
<use x="203.873016" y="837.94975" xlink:href="#b"/>
<use x="228" y="837.94975" xlink:href="#b"/>
<use x="268.577201" y="681.019102" xlink:href="#b"/>
<use x="365.085137" y="681.019102" xlink:href="#b"/>
<use x="313.541126" y="837.94975" xlink:href="#b"/>
<use x="346.441558" y="837.94975" xlink:href="#b"/>
<use x="381.535354" y="837.94975" xlink:href="#b"/>
<use x="418.822511" y="837.94975" xlink:href="#b"/>
<use x="254.320346" y="837.94975" xlink:href="#b"/>
<use x="282.834055" y="837.94975" xlink:href="#b"/>
<use x="116.138528" y="837.94975" xlink:href="#b"/>
<use x="181.939394" y="837.94975" xlink:href="#b"/>
<use x="458.30303" y="837.94975" xlink:href="#b"/>
<use x="912.329004" y="837.94975" xlink:href="#b"/>
<use x="1883.988456" y="837.94975" xlink:href="#b"/>
</g>
<g clip-path="url(#a)">
<g transform="translate(70.006 995.49) scale(.1 -.1)">
<defs>
<path id="ae" d="m45.406 46.391v29.594h8.9844v-75.984h-8.9844v8.2031q-2.8281-4.875-7.1562-7.25-4.3125-2.375-10.375-2.375-9.9062 0-16.141 7.9062-6.2188 7.9219-6.2188 20.812t6.2188 20.797q6.2344 7.9062 16.141 7.9062 6.0625 0 10.375-2.375 4.3281-2.3594 7.1562-7.2344zm-30.609-19.094q0-9.9062 4.0781-15.547t11.203-5.6406 11.219 5.6406q4.1094 5.6406 4.1094 15.547t-4.1094 15.547q-4.0938 5.6406-11.219 5.6406t-11.203-5.6406-4.0781-15.547z"/>
<path id="s" d="m44.281 53.078v-8.5q-3.7969 1.9531-7.9062 2.9219-4.0938 0.98438-8.5 0.98438-6.6875 0-10.031-2.0469t-3.3438-6.1562q0-3.125 2.3906-4.9062t9.625-3.3906l3.0781-0.6875q9.5625-2.0469 13.594-5.7812t4.0312-10.422q0-7.625-6.0312-12.078-6.0312-4.4375-16.578-4.4375-4.3906 0-9.1562 0.85938t-10.031 2.5625v9.2812q4.9844-2.5938 9.8125-3.8906 4.8281-1.2812 9.5781-1.2812 6.3438 0 9.75 2.1719 3.4219 2.1719 3.4219 6.125 0 3.6562-2.4688 5.6094-2.4531 1.9531-10.812 3.7656l-3.125 0.73438q-8.3438 1.75-12.062 5.3906-3.7031 3.6406-3.7031 9.9844 0 7.7188 5.4688 11.906 5.4688 4.2031 15.531 4.2031 4.9688 0 9.3594-0.73438 4.4062-0.71875 8.1094-2.1875z"/>
</defs>
<use xlink:href="#o"/>
<use x="66.658203" xlink:href="#ae"/>
<use x="130.134766" xlink:href="#h"/>
<use x="168.998047" xlink:href="#d"/>
<use x="230.521484" xlink:href="#s"/>
<use x="282.621094" xlink:href="#s"/>
<use x="334.720703" xlink:href="#d"/>
</g>
</g>
<g clip-path="url(#a)">
<g transform="translate(91.362 995.49) scale(.1 -.1)">
<defs>
<path id="t" d="m18.312 70.219v-15.531h18.5v-6.9844h-18.5v-29.688q0-6.6875 1.8281-8.5938t7.4531-1.9062h9.2188v-7.5156h-9.2188q-10.406 0-14.359 3.875-3.9531 3.8906-3.9531 14.141v29.688h-6.5938v6.9844h6.5938v15.531z"/>
</defs>
<use xlink:href="#d"/>
<use x="61.523438" xlink:href="#t"/>
</g>
</g>
<g clip-path="url(#a)">
<g transform="translate(80.03 995.49) scale(.1 -.1)">
<defs>
<path id="ao" d="m45.406 27.984q0 9.7656-4.0312 15.125-4.0156 5.375-11.297 5.375-7.2188 0-11.25-5.375-4.0312-5.3594-4.0312-15.125 0-9.7188 4.0312-15.094t11.25-5.375q7.2812 0 11.297 5.375 4.0312 5.375 4.0312 15.094zm8.9844-21.203q0-13.953-6.2031-20.766-6.1875-6.8125-18.984-6.8125-4.7344 0-8.9375 0.70312t-8.1562 2.1719v8.7344q3.9531-2.1406 7.8125-3.1562 3.8594-1.0312 7.8594-1.0312 8.8438 0 13.234 4.6094t4.3906 13.938v4.4531q-2.7812-4.8438-7.125-7.2344t-10.406-2.3906q-10.047 0-16.203 7.6562-6.1562 7.6719-6.1562 20.328 0 12.688 6.1562 20.344 6.1562 7.6719 16.203 7.6719 6.0625 0 10.406-2.3906t7.125-7.2188v8.2969h8.9844z"/>
<path id="ax" d="m4.8906 31.391h26.312v-8h-26.312z"/>
<path id="av" d="m37.109 75.984v-7.4844h-8.5938q-4.8281 0-6.7188-1.9531-1.875-1.9531-1.875-7.0312v-4.8281h14.797v-6.9844h-14.797v-47.703h-9.0312v47.703h-8.5938v6.9844h8.5938v3.8125q0 9.125 4.25 13.297 4.25 4.1875 13.469 4.1875z"/>
<path id="w" d="m30.609 48.391q-7.2188 0-11.422-5.6406t-4.2031-15.453 4.1719-15.453q4.1875-5.6406 11.453-5.6406 7.1875 0 11.375 5.6562 4.2031 5.6719 4.2031 15.438 0 9.7188-4.2031 15.406-4.1875 5.6875-11.375 5.6875zm0 7.6094q11.719 0 18.406-7.625 6.7031-7.6094 6.7031-21.078 0-13.422-6.7031-21.078-6.6875-7.6406-18.406-7.6406-11.766 0-18.438 7.6406-6.6562 7.6562-6.6562 21.078 0 13.469 6.6562 21.078 6.6719 7.625 18.438 7.625z"/>
</defs>
<use xlink:href="#s"/>
<use x="52.099609" xlink:href="#f"/>
<use x="113.378906" xlink:href="#i"/>
<use x="176.757812" xlink:href="#ao"/>
<use x="240.234375" xlink:href="#ax"/>
<use x="276.318359" xlink:href="#av"/>
<use x="311.523438" xlink:href="#h"/>
<use x="350.386719" xlink:href="#w"/>
<use x="411.568359" xlink:href="#g"/>
<use x="439.351562" xlink:href="#ae"/>
</g>
</g>
<g clip-path="url(#a)">
<g transform="translate(114.55 995.49) scale(.1 -.1)">
<defs>
<path id="an" d="m11.719 12.406h10.297v-8.4062l-8-15.625h-6.2969l4 15.625z"/>
</defs>
<use xlink:href="#an"/>
</g>
</g>
<g clip-path="url(#a)">
<g transform="translate(111 995.49) scale(.1 -.1)">
<defs>
<path id="r" d="m8.5 21.578v33.109h8.9844v-32.766q0-7.7656 3.0156-11.656 3.0312-3.875 9.0938-3.875 7.2656 0 11.484 4.6406 4.2344 4.6406 4.2344 12.656v31h8.9844v-54.688h-8.9844v8.4062q-3.2656-4.9844-7.5938-7.4062-4.3125-2.4219-10.031-2.4219-9.4219 0-14.312 5.8594-4.875 5.8594-4.875 17.141z"/>
<path id="x" d="m48.781 52.594v-8.4062q-3.8125 2.1094-7.6406 3.1562t-7.7344 1.0469q-8.75 0-13.594-5.5469-4.8281-5.5312-4.8281-15.547t4.8281-15.562q4.8438-5.5312 13.594-5.5312 3.9062 0 7.7344 1.0469t7.6406 3.1562v-8.3125q-3.7656-1.75-7.7969-2.625-4.0156-0.89062-8.5625-0.89062-12.359 0-19.641 7.7656-7.2656 7.7656-7.2656 20.953 0 13.375 7.3438 21.031 7.3594 7.6719 20.156 7.6719 4.1406 0 8.0938-0.85938 3.9531-0.84375 7.6719-2.5469z"/>
</defs>
<use xlink:href="#f"/>
<use x="61.279297" xlink:href="#r"/>
<use x="124.658203" xlink:href="#ae"/>
<use x="188.134766" xlink:href="#f"/>
<use x="249.414062" xlink:href="#x"/>
<use x="304.394531" xlink:href="#d"/>
</g>
</g>
<g clip-path="url(#a)">
<g transform="translate(139.62 995.49) scale(.1 -.1)">
<use xlink:href="#d"/>
<use x="61.523438" xlink:href="#t"/>
</g>
</g>
<g clip-path="url(#a)">
<g transform="translate(151.29 995.49) scale(.1 -.1)">
<use xlink:href="#h"/>
<use x="41.113281" xlink:href="#r"/>
<use x="104.492188" xlink:href="#s"/>
<use x="156.591797" xlink:href="#d"/>
</g>
</g>
<g clip-path="url(#a)">
<g transform="translate(180.35 995.49) scale(.1 -.1)">
<use xlink:href="#an"/>
</g>
</g>
<g clip-path="url(#a)">
<g transform="translate(201.09 995.49) scale(.1 -.1)">
<use xlink:href="#g"/>
<use x="27.783203" xlink:href="#j"/>
</g>
</g>
<g clip-path="url(#a)">
<g transform="translate(203.89 995.69) scale(.1 -.1)">
<defs>
<path id="aa" d="m18.109 8.2031v-29h-9.0312v75.484h9.0312v-8.2969q2.8438 4.875 7.1562 7.2344 4.3281 2.375 10.328 2.375 9.9688 0 16.188-7.9062 6.2344-7.9062 6.2344-20.797t-6.2344-20.812q-6.2188-7.9062-16.188-7.9062-6 0-10.328 2.375-4.3125 2.375-7.1562 7.25zm30.578 19.094q0 9.9062-4.0781 15.547t-11.203 5.6406q-7.1406 0-11.219-5.6406t-4.0781-15.547 4.0781-15.547 11.219-5.6406q7.125 0 11.203 5.6406t4.0781 15.547z"/>
<path id="ai" d="m56.203 29.594v-4.3906h-41.312q0.59375-9.2812 5.5938-14.141t13.938-4.8594q5.1719 0 10.031 1.2656t9.6562 3.8125v-8.5q-4.8438-2.0469-9.9219-3.125t-10.297-1.0781q-13.094 0-20.734 7.6094-7.6406 7.625-7.6406 20.625 0 13.422 7.25 21.297 7.25 7.8906 19.562 7.8906 11.031 0 17.453-7.1094 6.4219-7.0938 6.4219-19.297zm-8.9844 2.6406q-0.09375 7.3594-4.125 11.75-4.0312 4.4062-10.672 4.4062-7.5156 0-12.031-4.25t-5.2031-11.969zm-8.6875 47.75h9.7188l-15.906-18.359h-7.4844z"/>
</defs>
<use xlink:href="#aa"/>
<use x="63.476562" xlink:href="#w"/>
<use x="124.658203" xlink:href="#s"/>
<use x="176.757812" xlink:href="#s"/>
<use x="228.857422" xlink:href="#ai"/>
<use x="290.380859" xlink:href="#ae"/>
<use x="353.857422" xlink:href="#f"/>
<use x="415.136719" xlink:href="#g"/>
<use x="442.919922" xlink:href="#t"/>
</g>
</g>
<g clip-path="url(#a)">
<g transform="translate(245.89 995.49) scale(.1 -.1)">
<use xlink:href="#x"/>
<use x="54.980469" xlink:href="#d"/>
<use x="116.503906" xlink:href="#s"/>
</g>
</g>
<g clip-path="url(#a)">
<g transform="translate(263.01 995.69) scale(.1 -.1)">
<defs>
<path id="bb" d="m14.797 27.297q0-9.9062 4.0781-15.547t11.203-5.6406 11.219 5.6406q4.1094 5.6406 4.1094 15.547t-4.1094 15.547q-4.0938 5.6406-11.219 5.6406t-11.203-5.6406-4.0781-15.547zm30.609-19.094q-2.8281-4.875-7.1562-7.25-4.3125-2.375-10.375-2.375-9.9062 0-16.141 7.9062-6.2188 7.9219-6.2188 20.812t6.2188 20.797q6.2344 7.9062 16.141 7.9062 6.0625 0 10.375-2.375 4.3281-2.3594 7.1562-7.2344v8.2969h8.9844v-75.484h-8.9844z"/>
</defs>
<use xlink:href="#bb"/>
<use x="63.476562" xlink:href="#r"/>
<use x="126.855469" xlink:href="#f"/>
<use x="188.134766" xlink:href="#j"/>
<use x="215.917969" xlink:href="#g"/>
<use x="243.701172" xlink:href="#t"/>
<use x="282.910156" xlink:href="#ai"/>
<use x="344.433594" xlink:href="#s"/>
</g>
</g>
<g clip-path="url(#a)">
<g transform="translate(310.48 995.49) scale(.1 -.1)">
<defs>
<path id="au" d="m34.281 27.484q-10.891 0-15.094-2.4844t-4.2031-8.5q0-4.7812 3.1562-7.5938 3.1562-2.7969 8.5625-2.7969 7.4844 0 12 5.2969t4.5156 14.078v2zm17.922 3.7188v-31.203h-8.9844v8.2969q-3.0781-4.9688-7.6719-7.3438t-11.234-2.375q-8.3906 0-13.359 4.7188-4.9531 4.7188-4.9531 12.625 0 9.2188 6.1719 13.906 6.1875 4.6875 18.438 4.6875h12.609v0.89062q0 6.2031-4.0781 9.5938t-11.453 3.3906q-4.6875 0-9.1406-1.125-4.4375-1.125-8.5312-3.375v8.3125q4.9219 1.9062 9.5625 2.8438 4.6406 0.95312 9.0312 0.95312 11.875 0 17.734-6.1562 5.8594-6.1406 5.8594-18.641zm-30.281 48.781 13.766-18.266h-7.4688l-15.922 18.266z"/>
</defs>
<use xlink:href="#au"/>
</g>
</g>
<g clip-path="url(#a)">
<g transform="translate(340.1 995.49) scale(.1 -.1)">
<use xlink:href="#r"/>
<use x="63.378906" xlink:href="#i"/>
</g>
</g>
<g clip-path="url(#a)">
<g transform="translate(367.09 995.69) scale(.1 -.1)">
<use xlink:href="#ae"/>
<use x="63.476562" xlink:href="#d"/>
<use x="125" xlink:href="#ao"/>
<use x="188.476562" xlink:href="#h"/>
<use x="227.339844" xlink:href="#ai"/>
</g>
</g>
<g clip-path="url(#a)">
<g transform="translate(395.05 995.69) scale(.1 -.1)">
<use xlink:href="#s"/>
<use x="52.099609" xlink:href="#r"/>
<use x="115.478516" xlink:href="#aa"/>
<use x="178.955078" xlink:href="#ai"/>
<use x="240.478516" xlink:href="#h"/>
<use x="281.591797" xlink:href="#g"/>
<use x="309.375" xlink:href="#d"/>
<use x="370.898438" xlink:href="#r"/>
<use x="434.277344" xlink:href="#h"/>
</g>
</g>
<g clip-path="url(#a)">
<g transform="translate(456.71 995.49) scale(.1 -.1)">
<use xlink:href="#an"/>
</g>
</g>
<g clip-path="url(#a)">
<g transform="translate(494.94 995.49) scale(.1 -.1)">
<use xlink:href="#d"/>
<use x="61.523438" xlink:href="#t"/>
</g>
</g>
<g clip-path="url(#a)">
<g transform="translate(541.07 995.49) scale(.1 -.1)">
<use xlink:href="#g"/>
<use x="27.783203" xlink:href="#j"/>
</g>
</g>
<g clip-path="url(#a)">
<g transform="translate(575.89 995.49) scale(.1 -.1)">
<use xlink:href="#av"/>
<use x="35.205078" xlink:href="#f"/>
<use x="96.484375" xlink:href="#j"/>
<use x="124.267578" xlink:href="#j"/>
<use x="152.050781" xlink:href="#f"/>
<use x="213.330078" xlink:href="#g"/>
<use x="241.113281" xlink:href="#t"/>
</g>
</g>
<g clip-path="url(#a)">
<g transform="translate(628.1 995.49) scale(.1 -.1)">
<defs>
<path id="ay" d="m56.203 29.594v-4.3906h-41.312q0.59375-9.2812 5.5938-14.141t13.938-4.8594q5.1719 0 10.031 1.2656t9.6562 3.8125v-8.5q-4.8438-2.0469-9.9219-3.125t-10.297-1.0781q-13.094 0-20.734 7.6094-7.6406 7.625-7.6406 20.625 0 13.422 7.25 21.297 7.25 7.8906 19.562 7.8906 11.031 0 17.453-7.1094 6.4219-7.0938 6.4219-19.297zm-8.9844 2.6406q-0.09375 7.3594-4.125 11.75-4.0312 4.4062-10.672 4.4062-7.5156 0-12.031-4.25t-5.2031-11.969zm-19.078 47.75h7.2188l11.969-18.359h-6.7812l-8.7969 11.953-8.7812-11.953h-6.7969z"/>
</defs>
<use xlink:href="#ay"/>
<use x="61.523438" xlink:href="#t"/>
<use x="100.732422" xlink:href="#h"/>
<use x="139.595703" xlink:href="#d"/>
</g>
</g>
<g clip-path="url(#a)">
<g transform="translate(679.19 995.49) scale(.1 -.1)">
<use xlink:href="#r"/>
<use x="63.378906" xlink:href="#i"/>
<use x="126.757812" xlink:href="#d"/>
</g>
</g>
<g clip-path="url(#a)">
<g transform="translate(722.91 995.49) scale(.1 -.1)">
<defs>
<path id="as" d="m48.688 27.297q0 9.9062-4.0781 15.547t-11.203 5.6406q-7.1406 0-11.219-5.6406t-4.0781-15.547 4.0781-15.547 11.219-5.6406q7.125 0 11.203 5.6406t4.0781 15.547zm-30.578 19.094q2.8438 4.875 7.1562 7.2344 4.3281 2.375 10.328 2.375 9.9688 0 16.188-7.9062 6.2344-7.9062 6.2344-20.797t-6.2344-20.812q-6.2188-7.9062-16.188-7.9062-6 0-10.328 2.375-4.3125 2.375-7.1562 7.25v-8.2031h-9.0312v75.984h9.0312z"/>
</defs>
<use xlink:href="#as"/>
<use x="63.476562" xlink:href="#f"/>
<use x="124.755859" xlink:href="#j"/>
<use x="152.539062" xlink:href="#d"/>
<use x="214.0625" xlink:href="#g"/>
<use x="241.845703" xlink:href="#i"/>
<use x="305.224609" xlink:href="#d"/>
</g>
</g>
<g clip-path="url(#a)">
<g transform="translate(785.27 995.49) scale(.1 -.1)">
<use xlink:href="#as"/>
<use x="63.476562" xlink:href="#g"/>
<use x="91.259766" xlink:href="#d"/>
<use x="152.783203" xlink:href="#i"/>
</g>
</g>
<g clip-path="url(#a)">
<g transform="translate(832.98 995.49) scale(.1 -.1)">
<use xlink:href="#l"/>
<use x="97.412109" xlink:href="#f"/>
<use x="158.691406" xlink:href="#j"/>
<use x="186.474609" xlink:href="#g"/>
<use x="214.257812" xlink:href="#ao"/>
<use x="277.734375" xlink:href="#i"/>
<use x="341.113281" xlink:href="#d"/>
</g>
</g>
<g clip-path="url(#a)">
<g transform="translate(910.74 995.49) scale(.1 -.1)">
<use xlink:href="#an"/>
</g>
</g>
<g clip-path="url(#a)">
<g transform="translate(967.52 995.49) scale(.1 -.1)">
<use xlink:href="#w"/>
<use x="61.181641" xlink:href="#r"/>
</g>
</g>
<g clip-path="url(#a)">
<g transform="translate(1031 995.49) scale(.1 -.1)">
<use xlink:href="#r"/>
<use x="63.378906" xlink:href="#i"/>
</g>
</g>
<g clip-path="url(#a)">
<g transform="translate(1081.9 995.49) scale(.1 -.1)">
<defs>
<path id="ar" d="m54.891 33.016v-33.016h-8.9844v32.719q0 7.7656-3.0312 11.609-3.0312 3.8594-9.0781 3.8594-7.2812 0-11.484-4.6406-4.2031-4.625-4.2031-12.641v-30.906h-9.0312v75.984h9.0312v-29.797q3.2344 4.9375 7.5938 7.375 4.375 2.4375 10.094 2.4375 9.4219 0 14.25-5.8281 4.8438-5.8281 4.8438-17.156z"/>
</defs>
<use xlink:href="#x"/>
<use x="54.980469" xlink:href="#f"/>
<use x="116.259766" xlink:href="#x"/>
<use x="171.240234" xlink:href="#ar"/>
<use x="234.619141" xlink:href="#f"/>
<use x="295.898438" xlink:href="#j"/>
<use x="323.681641" xlink:href="#w"/>
<use x="384.863281" xlink:href="#t"/>
</g>
</g>
<g clip-path="url(#a)">
<g transform="translate(1133.7 995.69) scale(.1 -.1)">
<defs>
<path id="az" d="m56.203 29.594v-4.3906h-41.312q0.59375-9.2812 5.5938-14.141t13.938-4.8594q5.1719 0 10.031 1.2656t9.6562 3.8125v-8.5q-4.8438-2.0469-9.9219-3.125t-10.297-1.0781q-13.094 0-20.734 7.6094-7.6406 7.625-7.6406 20.625 0 13.422 7.25 21.297 7.25 7.8906 19.562 7.8906 11.031 0 17.453-7.1094 6.4219-7.0938 6.4219-19.297zm-8.9844 2.6406q-0.09375 7.3594-4.125 11.75-4.0312 4.4062-10.672 4.4062-7.5156 0-12.031-4.25t-5.2031-11.969zm-22.547 47.75 13.766-18.266h-7.4688l-15.922 18.266z"/>
</defs>
<use xlink:href="#s"/>
<use x="52.099609" xlink:href="#g"/>
<use x="79.882812" xlink:href="#i"/>
<use x="143.261719" xlink:href="#ao"/>
<use x="206.738281" xlink:href="#r"/>
<use x="270.117188" xlink:href="#j"/>
<use x="297.900391" xlink:href="#g"/>
<use x="325.683594" xlink:href="#az"/>
<use x="387.207031" xlink:href="#h"/>
<use x="426.070312" xlink:href="#d"/>
<use x="487.59375" xlink:href="#l"/>
<use x="585.005859" xlink:href="#d"/>
<use x="646.529297" xlink:href="#i"/>
<use x="709.908203" xlink:href="#t"/>
</g>
</g>
<g clip-path="url(#a)">
<g transform="translate(1217.2 995.49) scale(.1 -.1)">
<defs>
<path id="ba" d="m54.891 54.688-19.781-26.609 20.797-28.078h-10.594l-15.922 21.484-15.906-21.484h-10.609l21.25 28.609-19.438 26.078h10.594l14.5-19.484 14.5 19.484z"/>
</defs>
<use xlink:href="#f"/>
<use x="61.279297" xlink:href="#s"/>
<use x="113.378906" xlink:href="#t"/>
<use x="152.587891" xlink:href="#r"/>
<use x="215.966797" xlink:href="#x"/>
<use x="270.947266" xlink:href="#g"/>
<use x="298.730469" xlink:href="#d"/>
<use x="360.253906" xlink:href="#r"/>
<use x="423.632812" xlink:href="#ba"/>
</g>
</g>
<g clip-path="url(#a)">
<g transform="translate(1304.4 995.49) scale(.1 -.1)">
<use xlink:href="#aa"/>
<use x="63.476562" xlink:href="#w"/>
<use x="124.658203" xlink:href="#r"/>
<use x="188.037109" xlink:href="#h"/>
</g>
</g>
<g clip-path="url(#a)">
<g transform="translate(1366.9 995.69) scale(.1 -.1)">
<use xlink:href="#ai"/>
<use x="61.523438" xlink:href="#x"/>
<use x="116.503906" xlink:href="#ar"/>
<use x="179.882812" xlink:href="#f"/>
<use x="241.162109" xlink:href="#aa"/>
<use x="304.638672" xlink:href="#aa"/>
<use x="368.115234" xlink:href="#d"/>
<use x="429.638672" xlink:href="#h"/>
</g>
</g>
<g clip-path="url(#a)">
<g transform="translate(1464.2 995.49) scale(.1 -.1)">
<use xlink:href="#au"/>
</g>
</g>
<g clip-path="url(#a)">
<g transform="translate(1537.4 995.49) scale(.1 -.1)">
<use xlink:href="#s"/>
<use x="52.099609" xlink:href="#w"/>
<use x="113.28125" xlink:href="#i"/>
</g>
</g>
<g clip-path="url(#a)">
<g transform="translate(1615.2 995.49) scale(.1 -.1)">
<use xlink:href="#x"/>
<use x="54.980469" xlink:href="#w"/>
<use x="116.162109" xlink:href="#r"/>
<use x="179.541016" xlink:href="#aa"/>
</g>
</g>
<g clip-path="url(#a)">
<g transform="translate(1704.5 995.49) scale(.1 -.1)">
<use xlink:href="#ae"/>
<use x="63.476562" xlink:href="#d"/>
</g>
</g>
<g clip-path="url(#a)">
<g transform="translate(1778.6 995.49) scale(.1 -.1)">
<use xlink:href="#ar"/>
<use x="63.378906" xlink:href="#f"/>
<use x="124.658203" xlink:href="#h"/>
<use x="165.771484" xlink:href="#aa"/>
<use x="229.248047" xlink:href="#w"/>
<use x="290.429688" xlink:href="#i"/>
</g>
</g>
<g clip-path="url(#a)">
<g transform="translate(1882.4 995.49) scale(.1 -.1)">
<defs>
<path id="e" d="m10.688 12.406h10.312v-12.406h-10.312z"/>
</defs>
<use xlink:href="#e"/>
</g>
</g>
<g clip-path="url(#a)">
<g transform="translate(1865.1 526.02) scale(.1 -.1)">
<defs>
<path id="ac" d="m9.8125 72.906h9.8594v-72.906h-9.8594z"/>
<path id="at" d="m9.8125 72.906h14.703l18.594-49.609 18.703 49.609h14.703v-72.906h-9.625v64.016l-18.797-50h-9.9062l-18.797 50v-64.016h-9.5781z"/>
</defs>
<use xlink:href="#ac"/>
<use x="29.492188" xlink:href="#at"/>
<use x="115.771484" xlink:href="#ag"/>
<use x="176.074219" xlink:href="#ab"/>
<use x="231.787109" xlink:href="#ac"/>
<use x="261.279297" xlink:href="#u"/>
<use x="331.103516" xlink:href="#ac"/>
<use x="360.595703" xlink:href="#k"/>
</g>
</g>
<g clip-path="url(#a)">
<g transform="translate(1222.4 367.73) scale(.1 -.1)">
<use xlink:href="#ac"/>
<use x="29.492188" xlink:href="#at"/>
<use x="115.771484" xlink:href="#ag"/>
<use x="176.074219" xlink:href="#ab"/>
<use x="231.787109" xlink:href="#ac"/>
<use x="261.279297" xlink:href="#u"/>
<use x="331.103516" xlink:href="#ac"/>
<use x="360.595703" xlink:href="#k"/>
</g>
</g>
<g clip-path="url(#a)">
<g transform="translate(432.4 50.032) scale(.1 -.1)">
<defs>
<path id="c" d="m12.406 8.2969h16.109v55.625l-17.531-3.5156v8.9844l17.438 3.5156h9.8594v-64.609h16.109v-8.2969h-41.984z"/>
</defs>
<use xlink:href="#c"/>
<use x="63.623047" xlink:href="#e"/>
<use x="95.410156" xlink:href="#c"/>
</g>
</g>
<g clip-path="url(#a)">
<g transform="translate(88.447 840.71) scale(.1 -.1)">
<defs>
<path id="q" d="m19.188 8.2969h34.422v-8.2969h-46.281v8.2969q5.6094 5.8125 15.297 15.594 9.7031 9.7969 12.188 12.641 4.7344 5.3125 6.6094 9 1.8906 3.6875 1.8906 7.25 0 5.8125-4.0781 9.4688-4.0781 3.6719-10.625 3.6719-4.6406 0-9.7969-1.6094-5.1406-1.6094-11-4.8906v9.9688q5.9531 2.3906 11.125 3.6094 5.1875 1.2188 9.4844 1.2188 11.328 0 18.062-5.6719 6.7344-5.6562 6.7344-15.125 0-4.5-1.6875-8.5312-1.6719-4.0156-6.125-9.4844-1.2188-1.4219-7.7656-8.1875-6.5312-6.7656-18.453-18.922z"/>
</defs>
<use xlink:href="#c"/>
<use x="63.623047" xlink:href="#e"/>
<use x="95.410156" xlink:href="#q"/>
</g>
</g>
<g clip-path="url(#a)">
<g transform="translate(136.7 840.71) scale(.1 -.1)">
<defs>
<path id="p" d="m40.578 39.312q7.0781-1.5156 11.047-6.3125 3.9844-4.7812 3.9844-11.812 0-10.781-7.4219-16.703-7.4219-5.9062-21.094-5.9062-4.5781 0-9.4375 0.90625t-10.031 2.7188v9.5156q4.0938-2.3906 8.9688-3.6094 4.8906-1.2188 10.219-1.2188 9.2656 0 14.125 3.6562t4.8594 10.641q0 6.4531-4.5156 10.078-4.5156 3.6406-12.562 3.6406h-8.5v8.1094h8.8906q7.2656 0 11.125 2.9062t3.8594 8.375q0 5.6094-3.9844 8.6094-3.9688 3.0156-11.391 3.0156-4.0625 0-8.7031-0.89062-4.6406-0.875-10.203-2.7188v8.7812q5.625 1.5625 10.531 2.3438t9.25 0.78125q11.234 0 17.766-5.1094 6.5469-5.0938 6.5469-13.781 0-6.0625-3.4688-10.234t-9.8594-5.7812z"/>
</defs>
<use xlink:href="#c"/>
<use x="63.623047" xlink:href="#e"/>
<use x="95.410156" xlink:href="#p"/>
</g>
</g>
<g clip-path="url(#a)">
<g transform="translate(258.43 526.02) scale(.1 -.1)">
<defs>
<path id="n" d="m37.797 64.312-24.906-38.922h24.906zm-2.5938 8.5938h12.406v-47.516h10.406v-8.2031h-10.406v-17.188h-9.8125v17.188h-32.906v9.5156z"/>
</defs>
<use xlink:href="#c"/>
<use x="63.623047" xlink:href="#e"/>
<use x="95.410156" xlink:href="#n"/>
</g>
</g>
<g clip-path="url(#a)">
<g transform="translate(492.03 840.71) scale(.1 -.1)">
<defs>
<path id="m" d="m10.797 72.906h38.719v-8.3125h-29.688v-17.859q2.1406 0.73438 4.2812 1.0938 2.1562 0.35938 4.3125 0.35938 12.203 0 19.328-6.6875 7.1406-6.6875 7.1406-18.109 0-11.766-7.3281-18.297-7.3281-6.5156-20.656-6.5156-4.5938 0-9.3594 0.78125-4.75 0.78125-9.8281 2.3438v9.9219q4.3906-2.3906 9.0781-3.5625t9.9062-1.1719q8.4531 0 13.375 4.4375 4.9375 4.4375 4.9375 12.062 0 7.6094-4.9375 12.047-4.9219 4.4531-13.375 4.4531-3.9531 0-7.8906-0.875-3.9219-0.875-8.0156-2.7344z"/>
</defs>
<use xlink:href="#c"/>
<use x="63.623047" xlink:href="#e"/>
<use x="95.410156" xlink:href="#m"/>
</g>
</g>
<g clip-path="url(#a)">
<g transform="translate(668.3 209.04) scale(.1 -.1)">
<defs>
<path id="v" d="m33.016 40.375q-6.6406 0-10.531-4.5469-3.875-4.5312-3.875-12.438 0-7.8594 3.875-12.438 3.8906-4.5625 10.531-4.5625t10.516 4.5625q3.875 4.5781 3.875 12.438 0 7.9062-3.875 12.438-3.875 4.5469-10.516 4.5469zm19.578 30.922v-8.9844q-3.7188 1.75-7.5 2.6719-3.7812 0.9375-7.5 0.9375-9.7656 0-14.922-6.5938-5.1406-6.5938-5.875-19.922 2.875 4.25 7.2188 6.5156 4.3594 2.2656 9.5781 2.2656 10.984 0 17.359-6.6719 6.375-6.6562 6.375-18.125 0-11.234-6.6406-18.031-6.6406-6.7812-17.672-6.7812-12.656 0-19.344 9.6875-6.6875 9.7031-6.6875 28.109 0 17.281 8.2031 27.562t22.016 10.281q3.7188 0 7.5-0.73438t7.8906-2.1875z"/>
</defs>
<use xlink:href="#c"/>
<use x="63.623047" xlink:href="#e"/>
<use x="95.410156" xlink:href="#v"/>
</g>
</g>
<g clip-path="url(#a)">
<g transform="translate(1308 840.71) scale(.1 -.1)">
<defs>
<path id="ad" d="m8.2031 72.906h46.875v-4.2031l-26.469-68.703h-10.297l24.906 64.594h-35.016z"/>
</defs>
<use xlink:href="#c"/>
<use x="63.623047" xlink:href="#e"/>
<use x="95.410156" xlink:href="#ad"/>
</g>
</g>
<g clip-path="url(#a)">
<g transform="translate(1492 367.73) scale(.1 -.1)">
<defs>
<path id="ah" d="m31.781 34.625q-7.0312 0-11.062-3.7656-4.0156-3.7656-4.0156-10.344 0-6.5938 4.0156-10.359 4.0312-3.7656 11.062-3.7656t11.078 3.7812q4.0625 3.7969 4.0625 10.344 0 6.5781-4.0312 10.344-4.0156 3.7656-11.109 3.7656zm-9.8594 4.1875q-6.3438 1.5625-9.8906 5.9062-3.5312 4.3594-3.5312 10.609 0 8.7344 6.2188 13.812 6.2344 5.0781 17.062 5.0781 10.891 0 17.094-5.0781t6.2031-13.812q0-6.25-3.5469-10.609-3.5312-4.3438-9.8281-5.9062 7.125-1.6562 11.094-6.5 3.9844-4.8281 3.9844-11.797 0-10.609-6.4688-16.281-6.4688-5.6562-18.531-5.6562-12.047 0-18.531 5.6562-6.4688 5.6719-6.4688 16.281 0 6.9688 4 11.797 4.0156 4.8438 11.141 6.5zm-3.6094 15.578q0-5.6562 3.5312-8.8281 3.5469-3.1719 9.9375-3.1719 6.3594 0 9.9375 3.1719 3.5938 3.1719 3.5938 8.8281 0 5.6719-3.5938 8.8438-3.5781 3.1719-9.9375 3.1719-6.3906 0-9.9375-3.1719-3.5312-3.1719-3.5312-8.8438z"/>
</defs>
<use xlink:href="#c"/>
<use x="63.623047" xlink:href="#e"/>
<use x="95.410156" xlink:href="#ah"/>
</g>
</g>
<g clip-path="url(#a)">
<g transform="translate(135.71 683.78) scale(.1 -.1)">
<use xlink:href="#c"/>
<use x="63.623047" xlink:href="#e"/>
<use x="95.410156" xlink:href="#c"/>
<use x="159.033203" xlink:href="#c"/>
</g>
</g>
<g clip-path="url(#a)">
<g transform="translate(143.39 683.78) scale(.1 -.1)">
<use xlink:href="#c"/>
<use x="63.623047" xlink:href="#e"/>
<use x="95.410156" xlink:href="#c"/>
<use x="159.033203" xlink:href="#q"/>
</g>
</g>
<g clip-path="url(#a)">
<g transform="translate(155.45 683.78) scale(.1 -.1)">
<use xlink:href="#c"/>
<use x="63.623047" xlink:href="#e"/>
<use x="95.410156" xlink:href="#c"/>
<use x="159.033203" xlink:href="#p"/>
</g>
</g>
<g clip-path="url(#a)">
<g transform="translate(171.54 683.78) scale(.1 -.1)">
<use xlink:href="#c"/>
<use x="63.623047" xlink:href="#e"/>
<use x="95.410156" xlink:href="#c"/>
<use x="159.033203" xlink:href="#n"/>
</g>
</g>
<g clip-path="url(#a)">
<g transform="translate(151.07 840.71) scale(.1 -.1)">
<use xlink:href="#c"/>
<use x="63.623047" xlink:href="#e"/>
<use x="95.410156" xlink:href="#c"/>
<use x="159.033203" xlink:href="#m"/>
</g>
</g>
<g clip-path="url(#a)">
<g transform="translate(118.17 840.71) scale(.1 -.1)">
<use xlink:href="#c"/>
<use x="63.623047" xlink:href="#e"/>
<use x="95.410156" xlink:href="#c"/>
<use x="159.033203" xlink:href="#ad"/>
</g>
</g>
<g clip-path="url(#a)">
<g transform="translate(94.039 840.71) scale(.1 -.1)">
<use xlink:href="#c"/>
<use x="63.623047" xlink:href="#e"/>
<use x="95.410156" xlink:href="#c"/>
<use x="159.033203" xlink:href="#ah"/>
</g>
</g>
<g clip-path="url(#a)">
<g transform="translate(78.685 840.71) scale(.1 -.1)">
<defs>
<path id="am" d="m10.984 1.5156v8.9844q3.7188-1.7656 7.5156-2.6875 3.8125-0.92188 7.4844-0.92188 9.7656 0 14.906 6.5625 5.1562 6.5625 5.8906 19.953-2.8281-4.2031-7.1875-6.4531-4.3438-2.25-9.6094-2.25-10.938 0-17.312 6.6094-6.375 6.625-6.375 18.109 0 11.219 6.6406 18 6.6406 6.7969 17.672 6.7969 12.656 0 19.312-9.7031 6.6719-9.6875 6.6719-28.141 0-17.234-8.1875-27.516-8.1719-10.281-21.984-10.281-3.7188 0-7.5312 0.73438-3.7969 0.73438-7.9062 2.2031zm19.625 30.906q6.6406 0 10.516 4.5312 3.8906 4.5469 3.8906 12.469 0 7.8594-3.8906 12.422-3.875 4.5625-10.516 4.5625t-10.516-4.5625-3.875-12.422q0-7.9219 3.875-12.469 3.875-4.5312 10.516-4.5312z"/>
</defs>
<use xlink:href="#c"/>
<use x="63.623047" xlink:href="#e"/>
<use x="95.410156" xlink:href="#c"/>
<use x="159.033203" xlink:href="#am"/>
</g>
</g>
<g clip-path="url(#a)">
<g transform="translate(1379.3 840.71) scale(.1 -.1)">
<use xlink:href="#c"/>
<use x="63.623047" xlink:href="#e"/>
<use x="95.410156" xlink:href="#q"/>
<use x="159.033203" xlink:href="#c"/>
</g>
</g>
<g clip-path="url(#a)">
<g transform="translate(1598.3 526.02) scale(.1 -.1)">
<use xlink:href="#c"/>
<use x="63.623047" xlink:href="#e"/>
<use x="95.410156" xlink:href="#q"/>
<use x="159.033203" xlink:href="#q"/>
</g>
</g>
<g clip-path="url(#a)">
<g transform="translate(1456.1 840.71) scale(.1 -.1)">
<use xlink:href="#c"/>
<use x="63.623047" xlink:href="#e"/>
<use x="95.410156" xlink:href="#q"/>
<use x="159.033203" xlink:href="#p"/>
</g>
</g>
<g clip-path="url(#a)">
<g transform="translate(1535.1 840.71) scale(.1 -.1)">
<use xlink:href="#c"/>
<use x="63.623047" xlink:href="#e"/>
<use x="95.410156" xlink:href="#q"/>
<use x="159.033203" xlink:href="#n"/>
</g>
</g>
<g clip-path="url(#a)">
<g transform="translate(1616.2 840.71) scale(.1 -.1)">
<use xlink:href="#c"/>
<use x="63.623047" xlink:href="#e"/>
<use x="95.410156" xlink:href="#q"/>
<use x="159.033203" xlink:href="#m"/>
</g>
</g>
<g clip-path="url(#a)">
<g transform="translate(1785.9 683.78) scale(.1 -.1)">
<use xlink:href="#c"/>
<use x="63.623047" xlink:href="#e"/>
<use x="95.410156" xlink:href="#q"/>
<use x="159.033203" xlink:href="#v"/>
</g>
</g>
<g clip-path="url(#a)">
<g transform="translate(1699.6 840.71) scale(.1 -.1)">
<use xlink:href="#c"/>
<use x="63.623047" xlink:href="#e"/>
<use x="95.410156" xlink:href="#q"/>
<use x="159.033203" xlink:href="#ad"/>
</g>
</g>
<g clip-path="url(#a)">
<g transform="translate(1785.1 840.71) scale(.1 -.1)">
<use xlink:href="#c"/>
<use x="63.623047" xlink:href="#e"/>
<use x="95.410156" xlink:href="#q"/>
<use x="159.033203" xlink:href="#ah"/>
</g>
</g>
<g clip-path="url(#a)">
<g transform="translate(532.71 840.71) scale(.1 -.1)">
<use xlink:href="#c"/>
<use x="63.623047" xlink:href="#e"/>
<use x="95.410156" xlink:href="#p"/>
<use x="159.033203" xlink:href="#c"/>
</g>
</g>
<g clip-path="url(#a)">
<g transform="translate(578.77 840.71) scale(.1 -.1)">
<use xlink:href="#c"/>
<use x="63.623047" xlink:href="#e"/>
<use x="95.410156" xlink:href="#p"/>
<use x="159.033203" xlink:href="#q"/>
</g>
</g>
<g clip-path="url(#a)">
<g transform="translate(627.03 840.71) scale(.1 -.1)">
<use xlink:href="#c"/>
<use x="63.623047" xlink:href="#e"/>
<use x="95.410156" xlink:href="#p"/>
<use x="159.033203" xlink:href="#p"/>
</g>
</g>
<g clip-path="url(#a)">
<g transform="translate(921.97 367.73) scale(.1 -.1)">
<use xlink:href="#c"/>
<use x="63.623047" xlink:href="#e"/>
<use x="95.410156" xlink:href="#p"/>
<use x="159.033203" xlink:href="#n"/>
</g>
</g>
<g clip-path="url(#a)">
<g transform="translate(731.09 526.02) scale(.1 -.1)">
<use xlink:href="#c"/>
<use x="63.623047" xlink:href="#e"/>
<use x="95.410156" xlink:href="#p"/>
<use x="159.033203" xlink:href="#m"/>
</g>
</g>
<g clip-path="url(#a)">
<g transform="translate(962.61 840.71) scale(.1 -.1)">
<use xlink:href="#c"/>
<use x="63.623047" xlink:href="#e"/>
<use x="95.410156" xlink:href="#p"/>
<use x="159.033203" xlink:href="#v"/>
</g>
</g>
<g clip-path="url(#a)">
<g transform="translate(1093 526.02) scale(.1 -.1)">
<use xlink:href="#c"/>
<use x="63.623047" xlink:href="#e"/>
<use x="95.410156" xlink:href="#p"/>
<use x="159.033203" xlink:href="#ad"/>
</g>
</g>
<g clip-path="url(#a)">
<g transform="translate(1026.2 840.71) scale(.1 -.1)">
<use xlink:href="#c"/>
<use x="63.623047" xlink:href="#e"/>
<use x="95.410156" xlink:href="#p"/>
<use x="159.033203" xlink:href="#am"/>
</g>
</g>
<g clip-path="url(#a)">
<g transform="translate(1092 840.71) scale(.1 -.1)">
<defs>
<path id="aq" d="m31.781 66.406q-7.6094 0-11.453-7.5-3.8281-7.4844-3.8281-22.531 0-14.984 3.8281-22.484 3.8438-7.5 11.453-7.5 7.6719 0 11.5 7.5 3.8438 7.5 3.8438 22.484 0 15.047-3.8438 22.531-3.8281 7.5-11.5 7.5zm0 7.8125q12.266 0 18.734-9.7031 6.4688-9.6875 6.4688-28.141 0-18.406-6.4688-28.109-6.4688-9.6875-18.734-9.6875-12.25 0-18.719 9.6875-6.4688 9.7031-6.4688 28.109 0 18.453 6.4688 28.141 6.4688 9.7031 18.719 9.7031z"/>
</defs>
<use xlink:href="#c"/>
<use x="63.623047" xlink:href="#e"/>
<use x="95.410156" xlink:href="#n"/>
<use x="159.033203" xlink:href="#aq"/>
</g>
</g>
<g clip-path="url(#a)">
<g transform="translate(1160.7 683.78) scale(.1 -.1)">
<use xlink:href="#c"/>
<use x="63.623047" xlink:href="#e"/>
<use x="95.410156" xlink:href="#n"/>
<use x="159.033203" xlink:href="#c"/>
</g>
</g>
<g clip-path="url(#a)">
<g transform="translate(1160 840.71) scale(.1 -.1)">
<use xlink:href="#c"/>
<use x="63.623047" xlink:href="#e"/>
<use x="95.410156" xlink:href="#n"/>
<use x="159.033203" xlink:href="#q"/>
</g>
</g>
<g clip-path="url(#a)">
<g transform="translate(1230.2 840.71) scale(.1 -.1)">
<use xlink:href="#c"/>
<use x="63.623047" xlink:href="#e"/>
<use x="95.410156" xlink:href="#n"/>
<use x="159.033203" xlink:href="#p"/>
</g>
</g>
<g clip-path="url(#a)">
<g transform="translate(677.47 840.71) scale(.1 -.1)">
<use xlink:href="#c"/>
<use x="63.623047" xlink:href="#e"/>
<use x="95.410156" xlink:href="#n"/>
<use x="159.033203" xlink:href="#n"/>
</g>
</g>
<g clip-path="url(#a)">
<g transform="translate(730.11 840.71) scale(.1 -.1)">
<use xlink:href="#c"/>
<use x="63.623047" xlink:href="#e"/>
<use x="95.410156" xlink:href="#n"/>
<use x="159.033203" xlink:href="#m"/>
</g>
</g>
<g clip-path="url(#a)">
<g transform="translate(785.68 683.78) scale(.1 -.1)">
<use xlink:href="#c"/>
<use x="63.623047" xlink:href="#e"/>
<use x="95.410156" xlink:href="#n"/>
<use x="159.033203" xlink:href="#v"/>
</g>
</g>
<g clip-path="url(#a)">
<g transform="translate(784.95 840.71) scale(.1 -.1)">
<use xlink:href="#c"/>
<use x="63.623047" xlink:href="#e"/>
<use x="95.410156" xlink:href="#n"/>
<use x="159.033203" xlink:href="#ad"/>
</g>
</g>
<g clip-path="url(#a)">
<g transform="translate(841.98 840.71) scale(.1 -.1)">
<use xlink:href="#c"/>
<use x="63.623047" xlink:href="#e"/>
<use x="95.410156" xlink:href="#n"/>
<use x="159.033203" xlink:href="#ah"/>
</g>
</g>
<g clip-path="url(#a)">
<g transform="translate(192.74 840.71) scale(.1 -.1)">
<use xlink:href="#c"/>
<use x="63.623047" xlink:href="#e"/>
<use x="95.410156" xlink:href="#n"/>
<use x="159.033203" xlink:href="#am"/>
</g>
</g>
<g clip-path="url(#a)">
<g transform="translate(216.87 840.71) scale(.1 -.1)">
<use xlink:href="#c"/>
<use x="63.623047" xlink:href="#e"/>
<use x="95.410156" xlink:href="#m"/>
<use x="159.033203" xlink:href="#aq"/>
</g>
</g>
<g clip-path="url(#a)">
<g transform="translate(257.44 683.78) scale(.1 -.1)">
<use xlink:href="#c"/>
<use x="63.623047" xlink:href="#e"/>
<use x="95.410156" xlink:href="#m"/>
<use x="159.033203" xlink:href="#c"/>
</g>
</g>
<g clip-path="url(#a)">
<g transform="translate(353.95 683.78) scale(.1 -.1)">
<use xlink:href="#c"/>
<use x="63.623047" xlink:href="#e"/>
<use x="95.410156" xlink:href="#m"/>
<use x="159.033203" xlink:href="#q"/>
</g>
</g>
<g clip-path="url(#a)">
<g transform="translate(302.41 840.71) scale(.1 -.1)">
<use xlink:href="#c"/>
<use x="63.623047" xlink:href="#e"/>
<use x="95.410156" xlink:href="#m"/>
<use x="159.033203" xlink:href="#p"/>
</g>
</g>
<g clip-path="url(#a)">
<g transform="translate(335.31 840.71) scale(.1 -.1)">
<use xlink:href="#c"/>
<use x="63.623047" xlink:href="#e"/>
<use x="95.410156" xlink:href="#m"/>
<use x="159.033203" xlink:href="#n"/>
</g>
</g>
<g clip-path="url(#a)">
<g transform="translate(370.4 840.71) scale(.1 -.1)">
<use xlink:href="#c"/>
<use x="63.623047" xlink:href="#e"/>
<use x="95.410156" xlink:href="#m"/>
<use x="159.033203" xlink:href="#m"/>
</g>
</g>
<g clip-path="url(#a)">
<g transform="translate(407.69 840.71) scale(.1 -.1)">
<use xlink:href="#c"/>
<use x="63.623047" xlink:href="#e"/>
<use x="95.410156" xlink:href="#m"/>
<use x="159.033203" xlink:href="#v"/>
</g>
</g>
<g clip-path="url(#a)">
<g transform="translate(243.19 840.71) scale(.1 -.1)">
<use xlink:href="#c"/>
<use x="63.623047" xlink:href="#e"/>
<use x="95.410156" xlink:href="#m"/>
<use x="159.033203" xlink:href="#ad"/>
</g>
</g>
<g clip-path="url(#a)">
<g transform="translate(271.7 840.71) scale(.1 -.1)">
<use xlink:href="#c"/>
<use x="63.623047" xlink:href="#e"/>
<use x="95.410156" xlink:href="#m"/>
<use x="159.033203" xlink:href="#ah"/>
</g>
</g>
<g clip-path="url(#a)">
<g transform="translate(105.01 840.71) scale(.1 -.1)">
<use xlink:href="#c"/>
<use x="63.623047" xlink:href="#e"/>
<use x="95.410156" xlink:href="#m"/>
<use x="159.033203" xlink:href="#am"/>
</g>
</g>
<g clip-path="url(#a)">
<g transform="translate(170.81 840.71) scale(.1 -.1)">
<use xlink:href="#c"/>
<use x="63.623047" xlink:href="#e"/>
<use x="95.410156" xlink:href="#v"/>
<use x="159.033203" xlink:href="#aq"/>
</g>
</g>
<g clip-path="url(#a)">
<g transform="translate(447.17 840.71) scale(.1 -.1)">
<use xlink:href="#c"/>
<use x="63.623047" xlink:href="#e"/>
<use x="95.410156" xlink:href="#v"/>
<use x="159.033203" xlink:href="#c"/>
</g>
</g>
<g clip-path="url(#a)">
<g transform="translate(901.2 840.71) scale(.1 -.1)">
<use xlink:href="#c"/>
<use x="63.623047" xlink:href="#e"/>
<use x="95.410156" xlink:href="#v"/>
<use x="159.033203" xlink:href="#q"/>
</g>
</g>
<g clip-path="url(#a)">
<g transform="translate(1872.9 840.71) scale(.1 -.1)">
<use xlink:href="#c"/>
<use x="63.623047" xlink:href="#e"/>
<use x="95.410156" xlink:href="#v"/>
<use x="159.033203" xlink:href="#p"/>
</g>
</g>
<defs>
<clipPath id="a">
<rect width="1976" height="1040"/>
</clipPath>
</defs>
</svg>
