<?xml version="1.0" encoding="UTF-8"?>
<!DOCTYPE svg  PUBLIC '-//W3C//DTD SVG 1.1//EN'  'http://www.w3.org/Graphics/SVG/1.1/DTD/svg11.dtd'>
<svg width="1266.7pt" height="666.67pt" version="1.1" viewBox="0 0 1266.7 666.67" xmlns="http://www.w3.org/2000/svg" xmlns:xlink="http://www.w3.org/1999/xlink">
<metadata>
<rdf:RDF xmlns:cc="http://creativecommons.org/ns#" xmlns:dc="http://purl.org/dc/elements/1.1/" xmlns:rdf="http://www.w3.org/1999/02/22-rdf-syntax-ns#">
<cc:Work>
<dc:type rdf:resource="http://purl.org/dc/dcmitype/StillImage"/>
<dc:date>2021-03-25T08:17:55.839400</dc:date>
<dc:format>image/svg+xml</dc:format>
<dc:creator>
<cc:Agent>
<dc:title>Matplotlib v3.3.3, https://matplotlib.org/</dc:title>
</cc:Agent>
</dc:creator>
</cc:Work>
</rdf:RDF>
</metadata>
<defs>
<style type="text/css">*{stroke-linecap:butt;stroke-linejoin:round;}</style>
</defs>
<path d="m0 666.67h1266.7v-666.67h-1266.7z" fill="#fff"/>
<g fill="none" stroke="#000">
<path d="m255.69 30.303-173.57 122.29" clip-path="url(#a)"/>
<path d="m255.69 30.303-26.047 486.78" clip-path="url(#a)"/>
<path d="m255.69 30.303 258.75 122.29" clip-path="url(#a)"/>
<path d="m255.69 30.303-59.136 486.78" clip-path="url(#a)"/>
<path d="m82.117 152.6-24.541 364.49" clip-path="url(#a)"/>
<path d="m82.117 152.6-14.615 364.49" clip-path="url(#a)"/>
<path d="m82.117 152.6-1.3787 364.49" clip-path="url(#a)"/>
<path d="m82.117 152.6 40.535 121.98" clip-path="url(#a)"/>
<path d="m229.64 517.09v119.28" clip-path="url(#a)"/>
<path d="m514.44 152.6-199.87 121.98" clip-path="url(#a)"/>
<path d="m514.44 152.6-43.246 364.49" clip-path="url(#a)"/>
<path d="m514.44 152.6 243.12 121.98" clip-path="url(#a)"/>
<path d="m314.57 274.58-48.531 242.51" clip-path="url(#a)"/>
<path d="m314.57 274.58-8.8239 242.51" clip-path="url(#a)"/>
<path d="m314.57 274.58 57.355 121.57" clip-path="url(#a)"/>
<path d="m471.19 517.09-26.472 119.28" clip-path="url(#a)"/>
<path d="m471.19 517.09 26.472 119.28" clip-path="url(#a)"/>
<path d="m757.56 274.58-203.64 242.51" clip-path="url(#a)"/>
<path d="m757.56 274.58-144.08 242.51" clip-path="url(#a)"/>
<path d="m757.56 274.58 21.922 121.57" clip-path="url(#a)"/>
<path d="m757.56 274.58 325.79 121.57" clip-path="url(#a)"/>
<path d="m553.92 517.09v119.28" clip-path="url(#a)"/>
<path d="m613.48 517.09v119.28" clip-path="url(#a)"/>
<path d="m779.48 396.15-103.13 120.94" clip-path="url(#a)"/>
<path d="m779.48 396.15-2.206 120.94" clip-path="url(#a)"/>
<path d="m779.48 396.15 105.33 120.94" clip-path="url(#a)"/>
<path d="m1083.4 396.15-122.43 120.94" clip-path="url(#a)"/>
<path d="m1083.4 396.15-43.016 120.94" clip-path="url(#a)"/>
<path d="m1083.4 396.15 39.707 120.94" clip-path="url(#a)"/>
<path d="m1083.4 396.15 125.74 120.94" clip-path="url(#a)"/>
<path d="m960.92 517.09v119.28" clip-path="url(#a)"/>
<path d="m1040.3 517.09v119.28" clip-path="url(#a)"/>
<path d="m1123.1 517.09v119.28" clip-path="url(#a)"/>
<path d="m676.35 517.09v119.28" clip-path="url(#a)"/>
<path d="m777.27 517.09-34.744 119.28" clip-path="url(#a)"/>
<path d="m777.27 517.09 34.744 119.28" clip-path="url(#a)"/>
<path d="m884.81 517.09v119.28" clip-path="url(#a)"/>
<path d="m266.04 517.09v119.28" clip-path="url(#a)"/>
<path d="m305.75 517.09v119.28" clip-path="url(#a)"/>
<path d="m371.93 396.15-23.163 120.94" clip-path="url(#a)"/>
<path d="m371.93 396.15 23.163 120.94" clip-path="url(#a)"/>
<path d="m348.76 517.09v119.28" clip-path="url(#a)"/>
<path d="m395.09 517.09v119.28" clip-path="url(#a)"/>
<path d="m57.576 517.09v119.28" clip-path="url(#a)"/>
<path d="m67.503 517.09v119.28" clip-path="url(#a)"/>
<path d="m80.738 517.09v119.28" clip-path="url(#a)"/>
<path d="m122.65 274.58-25.369 242.51" clip-path="url(#a)"/>
<path d="m122.65 274.58-5.5149 242.51" clip-path="url(#a)"/>
<path d="m122.65 274.58 30.884 121.57" clip-path="url(#a)"/>
<path d="m97.283 517.09v119.28" clip-path="url(#a)"/>
<path d="m117.14 517.09v119.28" clip-path="url(#a)"/>
<path d="m153.54 396.15-13.236 120.94" clip-path="url(#a)"/>
<path d="m153.54 396.15 13.236 120.94" clip-path="url(#a)"/>
<path d="m140.3 517.09v119.28" clip-path="url(#a)"/>
<path d="m166.77 517.09v119.28" clip-path="url(#a)"/>
<path d="m196.55 517.09v119.28" clip-path="url(#a)"/>
<path d="m1209.1 517.09v119.28" clip-path="url(#a)"/>
</g>
<path d="m170.06 98.309 4.9181-3.4652q1.9619-1.3823 0.57961-3.3443l-4.4594-6.3293q-1.3823-1.9619-3.3443-0.57961l-4.9181 3.4652q-1.9619 1.3823-0.57961 3.3443l4.4594 6.3293q1.3823 1.9619 3.3443 0.57961z" clip-path="url(#a)" fill="#fff" stroke="#fff"/>
<g clip-path="url(#a)">
<g transform="translate(167.71 94.987) rotate(-35.167) scale(.08 -.08)">
<defs>
<path id="aj" d="m9.8125 72.906h9.8594v-29.891h35.844v29.891h9.8594v-72.906h-9.8594v34.719h-35.844v-34.719h-9.8594z"/>
</defs>
<use xlink:href="#aj"/>
</g>
</g>
<path d="m248.81 276.26 0.23817-4.4511q0.12823-2.3966-2.2683-2.5248l-7.7314-0.41369q-2.3966-0.12823-2.5248 2.2683l-0.23817 4.4511q-0.12823 2.3966 2.2683 2.5248l7.7314 0.41369q2.3966 0.12823 2.5248-2.2683z" clip-path="url(#a)" fill="#fff" stroke="#fff"/>
<g clip-path="url(#a)">
<g transform="translate(244.75 276.04) rotate(-86.937) scale(.08 -.08)">
<defs>
<path id="ap" d="m9.8125 72.906h9.8594v-64.609h35.5v-8.2969h-45.359z"/>
</defs>
<use xlink:href="#ap"/>
</g>
</g>
<path d="m379.66 95.834 5.4393 2.5708q2.1699 1.0255 3.1954-1.1443l3.3084-7.0001q1.0255-2.1699-1.1443-3.1954l-5.4393-2.5708q-2.1699-1.0255-3.1954 1.1443l-3.3084 7.0001q-1.0255 2.1699 1.1443 3.1954z" clip-path="url(#a)" fill="#fff" stroke="#fff"/>
<g clip-path="url(#a)">
<g transform="translate(381.4 92.16) rotate(25.297) scale(.08 -.08)">
<use xlink:href="#aj"/>
</g>
</g>
<path d="m231.99 277.36 0.70609-5.8123q0.28943-2.3825-2.0931-2.6719l-7.686-0.93372q-2.3825-0.28943-2.6719 2.0931l-0.70609 5.8123q-0.28943 2.3825 2.0931 2.6719l7.686 0.93372q2.3825 0.28943 2.6719-2.0931z" clip-path="url(#a)" fill="#fff" stroke="#fff"/>
<g clip-path="url(#a)">
<g transform="translate(227.96 276.87) rotate(-83.073) scale(.08 -.08)">
<defs>
<path id="ah" d="m8.6875 72.906h9.9219v-44.297q0-11.719 4.2344-16.875 4.25-5.1406 13.781-5.1406 9.4688 0 13.719 5.1406 4.25 5.1562 4.25 16.875v44.297h9.9062v-45.516q0-14.25-7.0625-21.531-7.0469-7.2812-20.812-7.2812-13.828 0-20.891 7.2812-7.0469 7.2812-7.0469 21.531z"/>
</defs>
<use xlink:href="#ah"/>
</g>
</g>
<path d="m75.92 337.99 0.36763-5.4601q0.16123-2.3946-2.2334-2.5558l-7.725-0.52013q-2.3946-0.16123-2.5558 2.2334l-0.36763 5.4601q-0.16123 2.3946 2.2334 2.5558l7.725 0.52013q2.3946 0.16123 2.5558-2.2334z" clip-path="url(#a)" fill="#fff" stroke="#fff"/>
<g clip-path="url(#a)">
<g transform="translate(71.865 337.72) rotate(-86.148) scale(.08 -.08)">
<defs>
<path id="x" d="m34.188 63.188-13.391-36.281h26.812zm-5.5781 9.7188h11.188l27.781-72.906h-10.25l-6.6406 18.703h-32.859l-6.6406-18.703h-10.406z"/>
</defs>
<use xlink:href="#x"/>
</g>
</g>
<path d="m80.984 337.39 0.18434-4.5976q0.096152-2.3981-2.3019-2.4942l-7.7363-0.31019q-2.3981-0.096153-2.4942 2.3019l-0.18434 4.5976q-0.096152 2.3981 2.3019 2.4942l7.7363 0.31019q2.3981 0.096152 2.4942-2.3019z" clip-path="url(#a)" fill="#fff" stroke="#fff"/>
<g clip-path="url(#a)">
<g transform="translate(76.923 337.23) rotate(-87.704) scale(.08 -.08)">
<defs>
<path id="v" d="m9.8125 72.906h41.891v-8.3125h-32.031v-21.484h28.906v-8.2969h-28.906v-34.812h-9.8594z"/>
</defs>
<use xlink:href="#v"/>
</g>
</g>
<path d="m87.69 337.28 0.018246-4.8237q0.009078-2.4-2.3909-2.4091l-7.7424-0.029287q-2.4-0.009078-2.4091 2.3909l-0.018247 4.8237q-0.009078 2.4 2.3909 2.4091l7.7424 0.029287q2.4 0.009078 2.4091-2.3909z" clip-path="url(#a)" fill="#fff" stroke="#fff"/>
<g clip-path="url(#a)">
<g transform="translate(83.626 337.26) rotate(-89.783) scale(.08 -.08)">
<defs>
<path id="ai" d="m19.672 64.797v-27.391h12.406q6.8906 0 10.641 3.5625 3.7656 3.5625 3.7656 10.156 0 6.5469-3.7656 10.109-3.75 3.5625-10.641 3.5625zm-9.8594 8.1094h22.266q12.266 0 18.531-5.5469 6.2812-5.5469 6.2812-16.234 0-10.797-6.2812-16.312-6.2656-5.5156-18.531-5.5156h-12.406v-29.297h-9.8594z"/>
</defs>
<use xlink:href="#ai"/>
</g>
</g>
<path d="m95.57 212.97 1.7257 5.1933q0.75682 2.2775 3.0344 1.5207l7.3475-2.4415q2.2775-0.75682 1.5207-3.0344l-1.7257-5.1933q-0.75682-2.2775-3.0344-1.5207l-7.3475 2.4415q-2.2775 0.75682-1.5207 3.0344z" clip-path="url(#a)" fill="#fff" stroke="#fff"/>
<g clip-path="url(#a)">
<g transform="translate(99.427 211.69) rotate(71.619) scale(.08 -.08)">
<use xlink:href="#x"/>
</g>
</g>
<path d="m223.37 559.82v33.808q0 2.4 2.4 2.4h7.7425q2.4 0 2.4-2.4v-33.808q0-2.4-2.4-2.4h-7.7425q-2.4 0-2.4 2.4z" clip-path="url(#a)" fill="#fff" stroke="#fff"/>
<g clip-path="url(#a)">
<g transform="translate(227.43 559.82) rotate(90) scale(.08 -.08)">
<defs>
<path id="l" d="m-0.29688 72.906h61.672v-8.3125h-25.875v-64.594h-9.9062v64.594h-25.891z"/>
<path id="d" d="m56.203 29.594v-4.3906h-41.312q0.59375-9.2812 5.5938-14.141t13.938-4.8594q5.1719 0 10.031 1.2656t9.6562 3.8125v-8.5q-4.8438-2.0469-9.9219-3.125t-10.297-1.0781q-13.094 0-20.734 7.6094-7.6406 7.625-7.6406 20.625 0 13.422 7.25 21.297 7.25 7.8906 19.562 7.8906 11.031 0 17.453-7.1094 6.4219-7.0938 6.4219-19.297zm-8.9844 2.6406q-0.09375 7.3594-4.125 11.75-4.0312 4.4062-10.672 4.4062-7.5156 0-12.031-4.25t-5.2031-11.969z"/>
<path id="j" d="m41.109 46.297q-1.5156 0.875-3.2969 1.2812-1.7812 0.42188-3.9219 0.42188-7.625 0-11.703-4.9531t-4.0781-14.234v-28.812h-9.0312v54.688h9.0312v-8.5q2.8438 4.9844 7.375 7.3906 4.5469 2.4219 11.047 2.4219 0.92188 0 2.0469-0.125 1.125-0.10938 2.4844-0.35938z"/>
<path id="k" d="m52 44.188q3.375 6.0625 8.0625 8.9375t11.031 2.875q8.5469 0 13.188-5.9844 4.6406-5.9688 4.6406-17v-33.016h-9.0312v32.719q0 7.8594-2.7969 11.656-2.7812 3.8125-8.4844 3.8125-6.9844 0-11.047-4.6406-4.0469-4.625-4.0469-12.641v-30.906h-9.0312v32.719q0 7.9062-2.7812 11.688t-8.5938 3.7812q-6.8906 0-10.953-4.6562-4.0469-4.6562-4.0469-12.625v-30.906h-9.0312v54.688h9.0312v-8.5q3.0781 5.0312 7.375 7.4219t10.203 2.3906q5.9688 0 10.141-3.0312 4.1719-3.0156 6.1719-8.7812z"/>
<path id="h" d="m9.4219 54.688h8.9844v-54.688h-8.9844zm0 21.297h8.9844v-11.391h-8.9844z"/>
<path id="i" d="m54.891 33.016v-33.016h-8.9844v32.719q0 7.7656-3.0312 11.609-3.0312 3.8594-9.0781 3.8594-7.2812 0-11.484-4.6406-4.2031-4.625-4.2031-12.641v-30.906h-9.0312v54.688h9.0312v-8.5q3.2344 4.9375 7.5938 7.375 4.375 2.4375 10.094 2.4375 9.4219 0 14.25-5.8281 4.8438-5.8281 4.8438-17.156z"/>
<path id="f" d="m34.281 27.484q-10.891 0-15.094-2.4844t-4.2031-8.5q0-4.7812 3.1562-7.5938 3.1562-2.7969 8.5625-2.7969 7.4844 0 12 5.2969t4.5156 14.078v2zm17.922 3.7188v-31.203h-8.9844v8.2969q-3.0781-4.9688-7.6719-7.3438t-11.234-2.375q-8.3906 0-13.359 4.7188-4.9531 4.7188-4.9531 12.625 0 9.2188 6.1719 13.906 6.1875 4.6875 18.438 4.6875h12.609v0.89062q0 6.2031-4.0781 9.5938t-11.453 3.3906q-4.6875 0-9.1406-1.125-4.4375-1.125-8.5312-3.375v8.3125q4.9219 1.9062 9.5625 2.8438 4.6406 0.95312 9.0312 0.95312 11.875 0 17.734-6.1562 5.8594-6.1406 5.8594-18.641z"/>
<path id="g" d="m9.4219 75.984h8.9844v-75.984h-8.9844z"/>
</defs>
<use xlink:href="#l"/>
<use x="44.083984" xlink:href="#d"/>
<use x="105.607422" xlink:href="#j"/>
<use x="144.970703" xlink:href="#k"/>
<use x="242.382812" xlink:href="#h"/>
<use x="270.166016" xlink:href="#i"/>
<use x="333.544922" xlink:href="#f"/>
<use x="394.824219" xlink:href="#g"/>
</g>
</g>
<path d="m415.44 220.37 4.6712-2.8509q2.0486-1.2503 0.7983-3.2989l-4.0335-6.6089q-1.2503-2.0486-3.2989-0.7983l-4.6712 2.8509q-2.0486 1.2503-0.7983 3.2989l4.0335 6.6089q1.2503 2.0486 3.2989 0.7983z" clip-path="url(#a)" fill="#fff" stroke="#fff"/>
<g clip-path="url(#a)">
<g transform="translate(413.32 216.9) rotate(-31.396) scale(.08 -.08)">
<use xlink:href="#x"/>
</g>
</g>
<path d="m498.76 337.98 0.56834-4.7902q0.28277-2.3833-2.1005-2.6661l-7.6886-0.91224q-2.3833-0.28277-2.6661 2.1005l-0.56834 4.7902q-0.28277 2.3833 2.1005 2.6661l7.6886 0.91223q2.3833 0.28277 2.6661-2.1005z" clip-path="url(#a)" fill="#fff" stroke="#fff"/>
<g clip-path="url(#a)">
<g transform="translate(494.73 337.5) rotate(-83.234) scale(.08 -.08)">
<use xlink:href="#ai"/>
</g>
</g>
<path d="m630.74 217.97 4.8913 2.4542q2.1451 1.0763 3.2214-1.0688l3.4723-6.9202q1.0763-2.1451-1.0688-3.2214l-4.8913-2.4542q-2.1451-1.0763-3.2214 1.0688l-3.4723 6.9202q-1.0763 2.1451 1.0688 3.2214z" clip-path="url(#a)" fill="#fff" stroke="#fff"/>
<g clip-path="url(#a)">
<g transform="translate(632.56 214.33) rotate(26.645) scale(.08 -.08)">
<use xlink:href="#x"/>
</g>
</g>
<path d="m296 399.32 0.90292-4.5118q0.47096-2.3533-1.8824-2.8243l-7.592-1.5193q-2.3533-0.47096-2.8243 1.8824l-0.90292 4.5118q-0.47096 2.3533 1.8824 2.8243l7.592 1.5193q2.3533 0.47096 2.8243-1.8824z" clip-path="url(#a)" fill="#fff" stroke="#fff"/>
<g clip-path="url(#a)">
<g transform="translate(292.02 398.52) rotate(-78.683) scale(.08 -.08)">
<use xlink:href="#v"/>
</g>
</g>
<path d="m316.32 398.85 0.20313-5.5826q0.087269-2.3984-2.3111-2.4857l-7.7374-0.28153q-2.3984-0.087269-2.4857 2.3111l-0.20313 5.5826q-0.087268 2.3984 2.3111 2.4857l7.7374 0.28153q2.3984 0.087269 2.4857-2.3111z" clip-path="url(#a)" fill="#fff" stroke="#fff"/>
<g clip-path="url(#a)">
<g transform="translate(312.26 398.7) rotate(-87.916) scale(.08 -.08)">
<defs>
<path id="p" d="m64.406 67.281v-10.391q-4.9844 4.6406-10.625 6.9219-5.6406 2.2969-11.984 2.2969-12.5 0-19.141-7.6406t-6.6406-22.094q0-14.406 6.6406-22.047t19.141-7.6406q6.3438 0 11.984 2.2969t10.625 6.9375v-10.312q-5.1719-3.5156-10.969-5.2812-5.7812-1.75-12.219-1.75-16.562 0-26.094 10.125-9.5156 10.141-9.5156 27.672 0 17.578 9.5156 27.703 9.5312 10.141 26.094 10.141 6.5312 0 12.312-1.7344 5.7969-1.7344 10.875-5.2031z"/>
</defs>
<use xlink:href="#p"/>
</g>
</g>
<path d="m336.5 335.76 2.1569 4.5717q1.024 2.1706 3.1946 1.1465l7.0023-3.3036q2.1706-1.024 1.1465-3.1946l-2.1569-4.5717q-1.024-2.1706-3.1946-1.1465l-7.0023 3.3036q-2.1706 1.024-1.1465 3.1946z" clip-path="url(#a)" fill="#fff" stroke="#fff"/>
<g clip-path="url(#a)">
<g transform="translate(340.17 334.02) rotate(64.743) scale(.08 -.08)">
<defs>
<path id="w" d="m9.8125 72.906h46.094v-8.3125h-36.234v-21.578h34.719v-8.2969h-34.719v-26.422h37.109v-8.2969h-46.969z"/>
</defs>
<use xlink:href="#w"/>
</g>
</g>
<path d="m460.42 594.59 7.3248-33.004q0.51999-2.343-1.823-2.863l-7.5586-1.6775q-2.343-0.51999-2.863 1.823l-7.3248 33.004q-0.51999 2.343 1.823 2.863l7.5586 1.6775q2.343 0.51999 2.863-1.823z" clip-path="url(#a)" fill="#fff" stroke="#fff"/>
<g clip-path="url(#a)">
<g transform="translate(456.45 593.71) rotate(-77.487) scale(.08 -.08)">
<use xlink:href="#l"/>
<use x="44.083984" xlink:href="#d"/>
<use x="105.607422" xlink:href="#j"/>
<use x="144.970703" xlink:href="#k"/>
<use x="242.382812" xlink:href="#h"/>
<use x="270.166016" xlink:href="#i"/>
<use x="333.544922" xlink:href="#f"/>
<use x="394.824219" xlink:href="#g"/>
</g>
</g>
<path d="m474.65 561.58 7.3248 33.004q0.51999 2.343 2.863 1.823l7.5586-1.6775q2.343-0.51999 1.823-2.863l-7.3248-33.004q-0.51999-2.343-2.863-1.823l-7.5586 1.6775q-2.343 0.51999-1.823 2.863z" clip-path="url(#a)" fill="#fff" stroke="#fff"/>
<g clip-path="url(#a)">
<g transform="translate(478.61 560.7) rotate(77.487) scale(.08 -.08)">
<use xlink:href="#l"/>
<use x="44.083984" xlink:href="#d"/>
<use x="105.607422" xlink:href="#j"/>
<use x="144.970703" xlink:href="#k"/>
<use x="242.382812" xlink:href="#h"/>
<use x="270.166016" xlink:href="#i"/>
<use x="333.544922" xlink:href="#f"/>
<use x="394.824219" xlink:href="#g"/>
</g>
</g>
<path d="m658.75 401.99 3.5747-4.2569q1.5434-1.8379-0.29458-3.3813l-5.9293-4.979q-1.8379-1.5434-3.3813 0.29458l-3.5747 4.2569q-1.5434 1.8379 0.29458 3.3813l5.9293 4.979q1.8379 1.5434 3.3813-0.29458z" clip-path="url(#a)" fill="#fff" stroke="#fff"/>
<g clip-path="url(#a)">
<g transform="translate(655.64 399.38) rotate(-49.979) scale(.08 -.08)">
<defs>
<path id="t" d="m44.391 34.188q3.1719-1.0781 6.1719-4.5938t6.0312-9.6719l10.016-19.922h-10.609l-9.3125 18.703q-3.625 7.3281-7.0156 9.7188t-9.25 2.3906h-10.75v-30.812h-9.8594v72.906h22.266q12.5 0 18.656-5.2344 6.1562-5.2188 6.1562-15.766 0-6.8906-3.2031-11.438-3.2031-4.5312-9.2969-6.2812zm-24.719 30.609v-25.875h12.406q7.125 0 10.766 3.2969t3.6406 9.6875-3.6406 9.6406-10.766 3.25z"/>
</defs>
<use xlink:href="#t"/>
</g>
</g>
<path d="m689.48 401.44 2.8533-4.8026q1.2259-2.0633-0.83747-3.2892l-6.6564-3.9547q-2.0633-1.2259-3.2892 0.83747l-2.8533 4.8026q-1.2259 2.0633 0.83747 3.2892l6.6564 3.9547q2.0633 1.2259 3.2892-0.83747z" clip-path="url(#a)" fill="#fff" stroke="#fff"/>
<g clip-path="url(#a)">
<g transform="translate(685.99 399.36) rotate(-59.285) scale(.08 -.08)">
<use xlink:href="#p"/>
</g>
</g>
<path d="m761.9 333.99 0.89706 4.9748q0.4259 2.3619 2.7878 1.936l7.6196-1.374q2.3619-0.4259 1.936-2.7878l-0.89706-4.9748q-0.4259-2.3619-2.7878-1.936l-7.6196 1.374q-2.3619 0.4259-1.936 2.7878z" clip-path="url(#a)" fill="#fff" stroke="#fff"/>
<g clip-path="url(#a)">
<g transform="translate(765.9 333.27) rotate(79.778) scale(.08 -.08)">
<use xlink:href="#w"/>
</g>
</g>
<path d="m915.89 340.36 4.736 1.7673q2.2486 0.83905 3.0876-1.4095l2.7068-7.2539q0.83905-2.2486-1.4095-3.0876l-4.736-1.7673q-2.2486-0.83905-3.0876 1.4095l-2.7068 7.2539q-0.83905 2.2486 1.4095 3.0876z" clip-path="url(#a)" fill="#fff" stroke="#fff"/>
<g clip-path="url(#a)">
<g transform="translate(917.31 336.55) rotate(20.463) scale(.08 -.08)">
<use xlink:href="#w"/>
</g>
</g>
<path d="m547.65 559.82v33.808q0 2.4 2.4 2.4h7.7425q2.4 0 2.4-2.4v-33.808q0-2.4-2.4-2.4h-7.7425q-2.4 0-2.4 2.4z" clip-path="url(#a)" fill="#fff" stroke="#fff"/>
<g clip-path="url(#a)">
<g transform="translate(551.71 559.82) rotate(90) scale(.08 -.08)">
<use xlink:href="#l"/>
<use x="44.083984" xlink:href="#d"/>
<use x="105.607422" xlink:href="#j"/>
<use x="144.970703" xlink:href="#k"/>
<use x="242.382812" xlink:href="#h"/>
<use x="270.166016" xlink:href="#i"/>
<use x="333.544922" xlink:href="#f"/>
<use x="394.824219" xlink:href="#g"/>
</g>
</g>
<path d="m607.21 559.82v33.808q0 2.4 2.4 2.4h7.7425q2.4 0 2.4-2.4v-33.808q0-2.4-2.4-2.4h-7.7425q-2.4 0-2.4 2.4z" clip-path="url(#a)" fill="#fff" stroke="#fff"/>
<g clip-path="url(#a)">
<g transform="translate(611.27 559.82) rotate(90) scale(.08 -.08)">
<use xlink:href="#l"/>
<use x="44.083984" xlink:href="#d"/>
<use x="105.607422" xlink:href="#j"/>
<use x="144.970703" xlink:href="#k"/>
<use x="242.382812" xlink:href="#h"/>
<use x="270.166016" xlink:href="#i"/>
<use x="333.544922" xlink:href="#f"/>
<use x="394.824219" xlink:href="#g"/>
</g>
</g>
<path d="m730.88 462.8 3.6069-4.2297q1.5573-1.8262-0.26889-3.3834l-5.8913-5.0238q-1.8262-1.5573-3.3834 0.26889l-3.6069 4.2297q-1.5573 1.8262 0.26889 3.3834l5.8913 5.0238q1.8262 1.5573 3.3834-0.26889z" clip-path="url(#a)" fill="#fff" stroke="#fff"/>
<g clip-path="url(#a)">
<g transform="translate(727.79 460.17) rotate(-49.544) scale(.08 -.08)">
<use xlink:href="#t"/>
</g>
</g>
<path d="m784.59 459.88 0.11485-6.2965q0.043771-2.3996-2.3558-2.4434l-7.7412-0.1412q-2.3996-0.043771-2.4434 2.3558l-0.11485 6.2965q-0.04377 2.3996 2.3558 2.4434l7.7412 0.1412q2.3996 0.043771 2.4434-2.3558z" clip-path="url(#a)" fill="#fff" stroke="#fff"/>
<g clip-path="url(#a)">
<g transform="translate(780.53 459.81) rotate(-88.955) scale(.08 -.08)">
<defs>
<path id="am" d="m39.406 66.219q-10.75 0-17.078-8.0156-6.3125-8-6.3125-21.828 0-13.766 6.3125-21.781 6.3281-8 17.078-8 10.734 0 17.016 8 6.2812 8.0156 6.2812 21.781 0 13.828-6.2812 21.828-6.2812 8.0156-17.016 8.0156zm13.812-64.906 13-14.203h-11.922l-10.797 11.672q-1.6094-0.09375-2.4688-0.14062-0.84375-0.0625-1.625-0.0625-15.375 0-24.594 10.281-9.2031 10.281-9.2031 27.516 0 17.281 9.2031 27.562 9.2188 10.281 24.594 10.281 15.328 0 24.5-10.281 9.1875-10.281 9.1875-27.562 0-12.688-5.1094-21.734-5.0938-9.0312-14.766-13.328z"/>
</defs>
<use xlink:href="#am"/>
</g>
</g>
<path d="m825.58 458.63 3.669 4.2124q1.5763 1.8098 3.3861 0.23347l5.8384-5.0852q1.8098-1.5763 0.23347-3.3861l-3.669-4.2124q-1.5763-1.8098-3.3861-0.23347l-5.8384 5.0852q-1.8098 1.5763-0.23347 3.3861z" clip-path="url(#a)" fill="#fff" stroke="#fff"/>
<g clip-path="url(#a)">
<g transform="translate(828.65 455.96) rotate(48.944) scale(.08 -.08)">
<use xlink:href="#p"/>
</g>
</g>
<path d="m1024.6 463.03 3.9547-3.9064q1.7074-1.6866 0.02085-3.394l-5.441-5.5083q-1.6866-1.7074-3.394-0.02085l-3.9547 3.9064q-1.7074 1.6866-0.02085 3.394l5.441 5.5083q1.6866 1.7074 3.394 0.02085z" clip-path="url(#a)" fill="#fff" stroke="#fff"/>
<g clip-path="url(#a)">
<g transform="translate(1021.7 460.14) rotate(-44.648) scale(.08 -.08)">
<use xlink:href="#t"/>
</g>
</g>
<path d="m1067 460.89 1.542-4.3352q0.8043-2.2612-1.4569-3.0655l-7.2948-2.5947q-2.2612-0.8043-3.0655 1.4569l-1.542 4.3352q-0.8043 2.2612 1.4569 3.0655l7.2948 2.5947q2.2612 0.8043 3.0655-1.4569z" clip-path="url(#a)" fill="#fff" stroke="#fff"/>
<g clip-path="url(#a)">
<g transform="translate(1063.2 459.53) rotate(-70.42) scale(.08 -.08)">
<use xlink:href="#v"/>
</g>
</g>
<path d="m1096.4 455.92 1.7426 5.3075q0.74868 2.2802 3.0289 1.5316l7.3561-2.4153q2.2802-0.74868 1.5316-3.0289l-1.7426-5.3075q-0.74868-2.2802-3.0289-1.5316l-7.3561 2.4153q-2.2802 0.74868-1.5316 3.0289z" clip-path="url(#a)" fill="#fff" stroke="#fff"/>
<g clip-path="url(#a)">
<g transform="translate(1100.2 454.65) rotate(71.823) scale(.08 -.08)">
<use xlink:href="#p"/>
</g>
</g>
<path d="m1139.8 459.11 4.2199 4.0587q1.7298 1.6637 3.3935-0.066087l5.3671-5.5803q1.6637-1.7298-0.066087-3.3935l-4.2199-4.0587q-1.7298-1.6637-3.3935 0.066087l-5.3671 5.5803q-1.6637 1.7298 0.066087 3.3935z" clip-path="url(#a)" fill="#fff" stroke="#fff"/>
<g clip-path="url(#a)">
<g transform="translate(1142.6 456.18) rotate(43.884) scale(.08 -.08)">
<use xlink:href="#ah"/>
</g>
</g>
<path d="m954.65 559.82v33.808q0 2.4 2.4 2.4h7.7425q2.4 0 2.4-2.4v-33.808q0-2.4-2.4-2.4h-7.7425q-2.4 0-2.4 2.4z" clip-path="url(#a)" fill="#fff" stroke="#fff"/>
<g clip-path="url(#a)">
<g transform="translate(958.71 559.82) rotate(90) scale(.08 -.08)">
<use xlink:href="#l"/>
<use x="44.083984" xlink:href="#d"/>
<use x="105.607422" xlink:href="#j"/>
<use x="144.970703" xlink:href="#k"/>
<use x="242.382812" xlink:href="#h"/>
<use x="270.166016" xlink:href="#i"/>
<use x="333.544922" xlink:href="#f"/>
<use x="394.824219" xlink:href="#g"/>
</g>
</g>
<path d="m1034.1 559.82v33.808q0 2.4 2.4 2.4h7.7425q2.4 0 2.4-2.4v-33.808q0-2.4-2.4-2.4h-7.7425q-2.4 0-2.4 2.4z" clip-path="url(#a)" fill="#fff" stroke="#fff"/>
<g clip-path="url(#a)">
<g transform="translate(1038.1 559.82) rotate(90) scale(.08 -.08)">
<use xlink:href="#l"/>
<use x="44.083984" xlink:href="#d"/>
<use x="105.607422" xlink:href="#j"/>
<use x="144.970703" xlink:href="#k"/>
<use x="242.382812" xlink:href="#h"/>
<use x="270.166016" xlink:href="#i"/>
<use x="333.544922" xlink:href="#f"/>
<use x="394.824219" xlink:href="#g"/>
</g>
</g>
<path d="m1116.8 559.82v33.808q0 2.4 2.4 2.4h7.7425q2.4 0 2.4-2.4v-33.808q0-2.4-2.4-2.4h-7.7425q-2.4 0-2.4 2.4z" clip-path="url(#a)" fill="#fff" stroke="#fff"/>
<g clip-path="url(#a)">
<g transform="translate(1120.9 559.82) rotate(90) scale(.08 -.08)">
<use xlink:href="#l"/>
<use x="44.083984" xlink:href="#d"/>
<use x="105.607422" xlink:href="#j"/>
<use x="144.970703" xlink:href="#k"/>
<use x="242.382812" xlink:href="#h"/>
<use x="270.166016" xlink:href="#i"/>
<use x="333.544922" xlink:href="#f"/>
<use x="394.824219" xlink:href="#g"/>
</g>
</g>
<path d="m670.08 559.82v33.808q0 2.4 2.4 2.4h7.7425q2.4 0 2.4-2.4v-33.808q0-2.4-2.4-2.4h-7.7425q-2.4 0-2.4 2.4z" clip-path="url(#a)" fill="#fff" stroke="#fff"/>
<g clip-path="url(#a)">
<g transform="translate(674.14 559.82) rotate(90) scale(.08 -.08)">
<use xlink:href="#l"/>
<use x="44.083984" xlink:href="#d"/>
<use x="105.607422" xlink:href="#j"/>
<use x="144.970703" xlink:href="#k"/>
<use x="242.382812" xlink:href="#h"/>
<use x="270.166016" xlink:href="#i"/>
<use x="333.544922" xlink:href="#f"/>
<use x="394.824219" xlink:href="#g"/>
</g>
</g>
<path d="m761.19 594.71 9.4548-32.458q0.6712-2.3042-1.633-2.9754l-7.4336-2.1653q-2.3042-0.6712-2.9754 1.633l-9.4548 32.458q-0.6712 2.3042 1.633 2.9754l7.4336 2.1653q2.3042 0.6712 2.9754-1.633z" clip-path="url(#a)" fill="#fff" stroke="#fff"/>
<g clip-path="url(#a)">
<g transform="translate(757.29 593.57) rotate(-73.76) scale(.08 -.08)">
<use xlink:href="#l"/>
<use x="44.083984" xlink:href="#d"/>
<use x="105.607422" xlink:href="#j"/>
<use x="144.970703" xlink:href="#k"/>
<use x="242.382812" xlink:href="#h"/>
<use x="270.166016" xlink:href="#i"/>
<use x="333.544922" xlink:href="#f"/>
<use x="394.824219" xlink:href="#g"/>
</g>
</g>
<path d="m783.9 562.25 9.4548 32.458q0.6712 2.3042 2.9754 1.633l7.4336-2.1653q2.3042-0.6712 1.633-2.9754l-9.4548-32.458q-0.6712-2.3042-2.9754-1.633l-7.4336 2.1653q-2.3042 0.6712-1.633 2.9754z" clip-path="url(#a)" fill="#fff" stroke="#fff"/>
<g clip-path="url(#a)">
<g transform="translate(787.8 561.11) rotate(73.76) scale(.08 -.08)">
<use xlink:href="#l"/>
<use x="44.083984" xlink:href="#d"/>
<use x="105.607422" xlink:href="#j"/>
<use x="144.970703" xlink:href="#k"/>
<use x="242.382812" xlink:href="#h"/>
<use x="270.166016" xlink:href="#i"/>
<use x="333.544922" xlink:href="#f"/>
<use x="394.824219" xlink:href="#g"/>
</g>
</g>
<path d="m878.54 559.82v33.808q0 2.4 2.4 2.4h7.7425q2.4 0 2.4-2.4v-33.808q0-2.4-2.4-2.4h-7.7425q-2.4 0-2.4 2.4z" clip-path="url(#a)" fill="#fff" stroke="#fff"/>
<g clip-path="url(#a)">
<g transform="translate(882.61 559.82) rotate(90) scale(.08 -.08)">
<use xlink:href="#l"/>
<use x="44.083984" xlink:href="#d"/>
<use x="105.607422" xlink:href="#j"/>
<use x="144.970703" xlink:href="#k"/>
<use x="242.382812" xlink:href="#h"/>
<use x="270.166016" xlink:href="#i"/>
<use x="333.544922" xlink:href="#f"/>
<use x="394.824219" xlink:href="#g"/>
</g>
</g>
<path d="m259.77 559.82v33.808q0 2.4 2.4 2.4h7.7425q2.4 0 2.4-2.4v-33.808q0-2.4-2.4-2.4h-7.7425q-2.4 0-2.4 2.4z" clip-path="url(#a)" fill="#fff" stroke="#fff"/>
<g clip-path="url(#a)">
<g transform="translate(263.83 559.82) rotate(90) scale(.08 -.08)">
<use xlink:href="#l"/>
<use x="44.083984" xlink:href="#d"/>
<use x="105.607422" xlink:href="#j"/>
<use x="144.970703" xlink:href="#k"/>
<use x="242.382812" xlink:href="#h"/>
<use x="270.166016" xlink:href="#i"/>
<use x="333.544922" xlink:href="#f"/>
<use x="394.824219" xlink:href="#g"/>
</g>
</g>
<path d="m299.48 559.82v33.808q0 2.4 2.4 2.4h7.7425q2.4 0 2.4-2.4v-33.808q0-2.4-2.4-2.4h-7.7425q-2.4 0-2.4 2.4z" clip-path="url(#a)" fill="#fff" stroke="#fff"/>
<g clip-path="url(#a)">
<g transform="translate(303.54 559.82) rotate(90) scale(.08 -.08)">
<use xlink:href="#l"/>
<use x="44.083984" xlink:href="#d"/>
<use x="105.607422" xlink:href="#j"/>
<use x="144.970703" xlink:href="#k"/>
<use x="242.382812" xlink:href="#h"/>
<use x="270.166016" xlink:href="#i"/>
<use x="333.544922" xlink:href="#f"/>
<use x="394.824219" xlink:href="#g"/>
</g>
</g>
<path d="m365.98 460.53 1.0456-5.4595q0.45146-2.3572-1.9057-2.8086l-7.6043-1.4564q-2.3572-0.45146-2.8086 1.9057l-1.0456 5.4595q-0.45146 2.3572 1.9057 2.8086l7.6043 1.4564q2.3572 0.45146 2.8086-1.9057z" clip-path="url(#a)" fill="#fff" stroke="#fff"/>
<g clip-path="url(#a)">
<g transform="translate(361.99 459.76) rotate(-79.158) scale(.08 -.08)">
<use xlink:href="#t"/>
</g>
</g>
<path d="m376.82 455.06 1.0508 5.4865q0.45146 2.3572 2.8086 1.9057l7.6043-1.4564q2.3572-0.45146 1.9057-2.8086l-1.0508-5.4865q-0.45146-2.3572-2.8086-1.9057l-7.6043 1.4564q-2.3572 0.45146-1.9057 2.8086z" clip-path="url(#a)" fill="#fff" stroke="#fff"/>
<g clip-path="url(#a)">
<g transform="translate(380.81 454.29) rotate(79.158) scale(.08 -.08)">
<use xlink:href="#p"/>
</g>
</g>
<path d="m342.49 559.82v33.808q0 2.4 2.4 2.4h7.7425q2.4 0 2.4-2.4v-33.808q0-2.4-2.4-2.4h-7.7425q-2.4 0-2.4 2.4z" clip-path="url(#a)" fill="#fff" stroke="#fff"/>
<g clip-path="url(#a)">
<g transform="translate(346.56 559.82) rotate(90) scale(.08 -.08)">
<use xlink:href="#l"/>
<use x="44.083984" xlink:href="#d"/>
<use x="105.607422" xlink:href="#j"/>
<use x="144.970703" xlink:href="#k"/>
<use x="242.382812" xlink:href="#h"/>
<use x="270.166016" xlink:href="#i"/>
<use x="333.544922" xlink:href="#f"/>
<use x="394.824219" xlink:href="#g"/>
</g>
</g>
<path d="m388.82 559.82v33.808q0 2.4 2.4 2.4h7.7425q2.4 0 2.4-2.4v-33.808q0-2.4-2.4-2.4h-7.7425q-2.4 0-2.4 2.4z" clip-path="url(#a)" fill="#fff" stroke="#fff"/>
<g clip-path="url(#a)">
<g transform="translate(392.88 559.82) rotate(90) scale(.08 -.08)">
<use xlink:href="#l"/>
<use x="44.083984" xlink:href="#d"/>
<use x="105.607422" xlink:href="#j"/>
<use x="144.970703" xlink:href="#k"/>
<use x="242.382812" xlink:href="#h"/>
<use x="270.166016" xlink:href="#i"/>
<use x="333.544922" xlink:href="#f"/>
<use x="394.824219" xlink:href="#g"/>
</g>
</g>
<path d="m51.305 559.82v33.808q0 2.4 2.4 2.4h7.7425q2.4 0 2.4-2.4v-33.808q0-2.4-2.4-2.4h-7.7425q-2.4 0-2.4 2.4z" clip-path="url(#a)" fill="#fff" stroke="#fff"/>
<g clip-path="url(#a)">
<g transform="translate(55.368 559.82) rotate(90) scale(.08 -.08)">
<use xlink:href="#l"/>
<use x="44.083984" xlink:href="#d"/>
<use x="105.607422" xlink:href="#j"/>
<use x="144.970703" xlink:href="#k"/>
<use x="242.382812" xlink:href="#h"/>
<use x="270.166016" xlink:href="#i"/>
<use x="333.544922" xlink:href="#f"/>
<use x="394.824219" xlink:href="#g"/>
</g>
</g>
<path d="m61.231 559.82v33.808q0 2.4 2.4 2.4h7.7425q2.4 0 2.4-2.4v-33.808q0-2.4-2.4-2.4h-7.7425q-2.4 0-2.4 2.4z" clip-path="url(#a)" fill="#fff" stroke="#fff"/>
<g clip-path="url(#a)">
<g transform="translate(65.295 559.82) rotate(90) scale(.08 -.08)">
<use xlink:href="#l"/>
<use x="44.083984" xlink:href="#d"/>
<use x="105.607422" xlink:href="#j"/>
<use x="144.970703" xlink:href="#k"/>
<use x="242.382812" xlink:href="#h"/>
<use x="270.166016" xlink:href="#i"/>
<use x="333.544922" xlink:href="#f"/>
<use x="394.824219" xlink:href="#g"/>
</g>
</g>
<path d="m74.467 559.82v33.808q0 2.4 2.4 2.4h7.7425q2.4 0 2.4-2.4v-33.808q0-2.4-2.4-2.4h-7.7425q-2.4 0-2.4 2.4z" clip-path="url(#a)" fill="#fff" stroke="#fff"/>
<g clip-path="url(#a)">
<g transform="translate(78.531 559.82) rotate(90) scale(.08 -.08)">
<use xlink:href="#l"/>
<use x="44.083984" xlink:href="#d"/>
<use x="105.607422" xlink:href="#j"/>
<use x="144.970703" xlink:href="#k"/>
<use x="242.382812" xlink:href="#h"/>
<use x="270.166016" xlink:href="#i"/>
<use x="333.544922" xlink:href="#f"/>
<use x="394.824219" xlink:href="#g"/>
</g>
</g>
<path d="m115.97 398.77 0.47872-4.5763q0.2497-2.387-2.1373-2.6367l-7.7005-0.80555q-2.387-0.2497-2.6367 2.1373l-0.47872 4.5763q-0.2497 2.387 2.1373 2.6367l7.7005 0.80555q2.387 0.2497 2.6367-2.1373z" clip-path="url(#a)" fill="#fff" stroke="#fff"/>
<g clip-path="url(#a)">
<g transform="translate(111.92 398.35) rotate(-84.028) scale(.08 -.08)">
<use xlink:href="#v"/>
</g>
</g>
<path d="m126.1 398.77 0.12701-5.5848q0.054565-2.3994-2.3448-2.4539l-7.7405-0.17603q-2.3994-0.054565-2.4539 2.3448l-0.12701 5.5848q-0.054565 2.3994 2.3448 2.4539l7.7405 0.17603q2.3994 0.054565 2.4539-2.3448z" clip-path="url(#a)" fill="#fff" stroke="#fff"/>
<g clip-path="url(#a)">
<g transform="translate(122.04 398.68) rotate(-88.697) scale(.08 -.08)">
<use xlink:href="#p"/>
</g>
</g>
<path d="m131.39 334.46 1.2446 4.8994q0.59092 2.3261 2.917 1.7352l7.5041-1.9063q2.3261-0.59092 1.7352-2.917l-1.2446-4.8994q-0.59092-2.3261-2.917-1.7352l-7.5041 1.9063q-2.3261 0.59092-1.7352 2.917z" clip-path="url(#a)" fill="#fff" stroke="#fff"/>
<g clip-path="url(#a)">
<g transform="translate(135.33 333.46) rotate(75.746) scale(.08 -.08)">
<use xlink:href="#w"/>
</g>
</g>
<path d="m91.012 559.82v33.808q0 2.4 2.4 2.4h7.7425q2.4 0 2.4-2.4v-33.808q0-2.4-2.4-2.4h-7.7425q-2.4 0-2.4 2.4z" clip-path="url(#a)" fill="#fff" stroke="#fff"/>
<g clip-path="url(#a)">
<g transform="translate(95.076 559.82) rotate(90) scale(.08 -.08)">
<use xlink:href="#l"/>
<use x="44.083984" xlink:href="#d"/>
<use x="105.607422" xlink:href="#j"/>
<use x="144.970703" xlink:href="#k"/>
<use x="242.382812" xlink:href="#h"/>
<use x="270.166016" xlink:href="#i"/>
<use x="333.544922" xlink:href="#f"/>
<use x="394.824219" xlink:href="#g"/>
</g>
</g>
<path d="m110.87 559.82v33.808q0 2.4 2.4 2.4h7.7425q2.4 0 2.4-2.4v-33.808q0-2.4-2.4-2.4h-7.7425q-2.4 0-2.4 2.4z" clip-path="url(#a)" fill="#fff" stroke="#fff"/>
<g clip-path="url(#a)">
<g transform="translate(114.93 559.82) rotate(90) scale(.08 -.08)">
<use xlink:href="#l"/>
<use x="44.083984" xlink:href="#d"/>
<use x="105.607422" xlink:href="#j"/>
<use x="144.970703" xlink:href="#k"/>
<use x="242.382812" xlink:href="#h"/>
<use x="270.166016" xlink:href="#i"/>
<use x="333.544922" xlink:href="#f"/>
<use x="394.824219" xlink:href="#g"/>
</g>
</g>
<path d="m152.85 460.06 0.60476-5.5258q0.26111-2.3858-2.1246-2.6469l-7.6965-0.84234q-2.3858-0.26111-2.6469 2.1246l-0.60476 5.5258q-0.26111 2.3858 2.1246 2.6469l7.6965 0.84234q2.3858 0.26111 2.6469-2.1246z" clip-path="url(#a)" fill="#fff" stroke="#fff"/>
<g clip-path="url(#a)">
<g transform="translate(148.81 459.62) rotate(-83.754) scale(.08 -.08)">
<use xlink:href="#t"/>
</g>
</g>
<path d="m153.62 454.52 0.60776 5.5531q0.26111 2.3858 2.6469 2.1246l7.6965-0.84234q2.3858-0.26111 2.1246-2.6469l-0.60776-5.5531q-0.26111-2.3858-2.6469-2.1246l-7.6965 0.84234q-2.3858 0.26111-2.1246 2.6469z" clip-path="url(#a)" fill="#fff" stroke="#fff"/>
<g clip-path="url(#a)">
<g transform="translate(157.65 454.08) rotate(83.754) scale(.08 -.08)">
<use xlink:href="#p"/>
</g>
</g>
<path d="m134.03 559.82v33.808q0 2.4 2.4 2.4h7.7425q2.4 0 2.4-2.4v-33.808q0-2.4-2.4-2.4h-7.7425q-2.4 0-2.4 2.4z" clip-path="url(#a)" fill="#fff" stroke="#fff"/>
<g clip-path="url(#a)">
<g transform="translate(138.09 559.82) rotate(90) scale(.08 -.08)">
<use xlink:href="#l"/>
<use x="44.083984" xlink:href="#d"/>
<use x="105.607422" xlink:href="#j"/>
<use x="144.970703" xlink:href="#k"/>
<use x="242.382812" xlink:href="#h"/>
<use x="270.166016" xlink:href="#i"/>
<use x="333.544922" xlink:href="#f"/>
<use x="394.824219" xlink:href="#g"/>
</g>
</g>
<path d="m160.5 559.82v33.808q0 2.4 2.4 2.4h7.7425q2.4 0 2.4-2.4v-33.808q0-2.4-2.4-2.4h-7.7425q-2.4 0-2.4 2.4z" clip-path="url(#a)" fill="#fff" stroke="#fff"/>
<g clip-path="url(#a)">
<g transform="translate(164.56 559.82) rotate(90) scale(.08 -.08)">
<use xlink:href="#l"/>
<use x="44.083984" xlink:href="#d"/>
<use x="105.607422" xlink:href="#j"/>
<use x="144.970703" xlink:href="#k"/>
<use x="242.382812" xlink:href="#h"/>
<use x="270.166016" xlink:href="#i"/>
<use x="333.544922" xlink:href="#f"/>
<use x="394.824219" xlink:href="#g"/>
</g>
</g>
<path d="m190.28 559.82v33.808q0 2.4 2.4 2.4h7.7425q2.4 0 2.4-2.4v-33.808q0-2.4-2.4-2.4h-7.7425q-2.4 0-2.4 2.4z" clip-path="url(#a)" fill="#fff" stroke="#fff"/>
<g clip-path="url(#a)">
<g transform="translate(194.34 559.82) rotate(90) scale(.08 -.08)">
<use xlink:href="#l"/>
<use x="44.083984" xlink:href="#d"/>
<use x="105.607422" xlink:href="#j"/>
<use x="144.970703" xlink:href="#k"/>
<use x="242.382812" xlink:href="#h"/>
<use x="270.166016" xlink:href="#i"/>
<use x="333.544922" xlink:href="#f"/>
<use x="394.824219" xlink:href="#g"/>
</g>
</g>
<path d="m1202.8 559.82v33.808q0 2.4 2.4 2.4h7.7425q2.4 0 2.4-2.4v-33.808q0-2.4-2.4-2.4h-7.7425q-2.4 0-2.4 2.4z" clip-path="url(#a)" fill="#fff" stroke="#fff"/>
<g clip-path="url(#a)">
<g transform="translate(1206.9 559.82) rotate(90) scale(.08 -.08)">
<use xlink:href="#l"/>
<use x="44.083984" xlink:href="#d"/>
<use x="105.607422" xlink:href="#j"/>
<use x="144.970703" xlink:href="#k"/>
<use x="242.382812" xlink:href="#h"/>
<use x="270.166016" xlink:href="#i"/>
<use x="333.544922" xlink:href="#f"/>
<use x="394.824219" xlink:href="#g"/>
</g>
</g>
<defs>
<path id="b" d="m0 8.6603c2.2967 0 4.4997-0.9125 6.1237-2.5365 1.624-1.624 2.5365-3.827 2.5365-6.1237s-0.9125-4.4997-2.5365-6.1237c-1.624-1.624-3.827-2.5365-6.1237-2.5365s-4.4997 0.9125-6.1237 2.5365c-1.624 1.624-2.5365 3.827-2.5365 6.1237s0.9125 4.4997 2.5365 6.1237c1.624 1.624 3.827 2.5365 6.1237 2.5365z"/>
</defs>
<g clip-path="url(#a)" fill="#ffffff" stroke="#ffffff">
<use x="57.575758" y="636.363636" xlink:href="#b"/>
<use x="67.502612" y="636.363636" xlink:href="#b"/>
<use x="80.738419" y="636.363636" xlink:href="#b"/>
<use x="97.283177" y="636.363636" xlink:href="#b"/>
<use x="117.136886" y="636.363636" xlink:href="#b"/>
<use x="140.299547" y="636.363636" xlink:href="#b"/>
<use x="166.77116" y="636.363636" xlink:href="#b"/>
<use x="196.551724" y="636.363636" xlink:href="#b"/>
<use x="229.64124" y="636.363636" xlink:href="#b"/>
<use x="266.039707" y="636.363636" xlink:href="#b"/>
<use x="305.747126" y="636.363636" xlink:href="#b"/>
<use x="348.763497" y="636.363636" xlink:href="#b"/>
<use x="395.088819" y="636.363636" xlink:href="#b"/>
<use x="444.723093" y="636.363636" xlink:href="#b"/>
<use x="497.666318" y="636.363636" xlink:href="#b"/>
<use x="553.918495" y="636.363636" xlink:href="#b"/>
<use x="613.479624" y="636.363636" xlink:href="#b"/>
<use x="676.349704" y="636.363636" xlink:href="#b"/>
<use x="742.528736" y="636.363636" xlink:href="#b"/>
<use x="812.016719" y="636.363636" xlink:href="#b"/>
<use x="884.813654" y="636.363636" xlink:href="#b"/>
<use x="960.91954" y="636.363636" xlink:href="#b"/>
<use x="1040.334378" y="636.363636" xlink:href="#b"/>
<use x="1123.058168" y="636.363636" xlink:href="#b"/>
<use x="1209.090909" y="636.363636" xlink:href="#b"/>
<use x="255.687744" y="30.30303" xlink:href="#b"/>
<use x="82.117148" y="152.595853" xlink:href="#b"/>
<use x="229.64124" y="517.086734" xlink:href="#b"/>
<use x="514.440865" y="152.595853" xlink:href="#b"/>
<use x="314.570997" y="274.580084" xlink:href="#b"/>
<use x="471.194706" y="517.086734" xlink:href="#b"/>
<use x="757.556891" y="274.580084" xlink:href="#b"/>
<use x="553.918495" y="517.086734" xlink:href="#b"/>
<use x="613.479624" y="517.086734" xlink:href="#b"/>
<use x="779.478695" y="396.150559" xlink:href="#b"/>
<use x="1083.350749" y="396.150559" xlink:href="#b"/>
<use x="960.91954" y="517.086734" xlink:href="#b"/>
<use x="1040.334378" y="517.086734" xlink:href="#b"/>
<use x="1123.058168" y="517.086734" xlink:href="#b"/>
<use x="676.349704" y="517.086734" xlink:href="#b"/>
<use x="777.272727" y="517.086734" xlink:href="#b"/>
<use x="884.813654" y="517.086734" xlink:href="#b"/>
<use x="266.039707" y="517.086734" xlink:href="#b"/>
<use x="305.747126" y="517.086734" xlink:href="#b"/>
<use x="371.926158" y="396.150559" xlink:href="#b"/>
<use x="348.763497" y="517.086734" xlink:href="#b"/>
<use x="395.088819" y="517.086734" xlink:href="#b"/>
<use x="57.575758" y="517.086734" xlink:href="#b"/>
<use x="67.502612" y="517.086734" xlink:href="#b"/>
<use x="80.738419" y="517.086734" xlink:href="#b"/>
<use x="122.651805" y="274.580084" xlink:href="#b"/>
<use x="97.283177" y="517.086734" xlink:href="#b"/>
<use x="117.136886" y="517.086734" xlink:href="#b"/>
<use x="153.535354" y="396.150559" xlink:href="#b"/>
<use x="140.299547" y="517.086734" xlink:href="#b"/>
<use x="166.77116" y="517.086734" xlink:href="#b"/>
<use x="196.551724" y="517.086734" xlink:href="#b"/>
<use x="1209.090909" y="517.086734" xlink:href="#b"/>
</g>
<g clip-path="url(#a)">
<g transform="translate(45.002 639.12) scale(.1 -.1)">
<defs>
<path id="an" d="m9.8125 72.906h13.281l32.328-60.984v60.984h9.5625v-72.906h-13.281l-32.312 60.984v-60.984h-9.5781z"/>
<path id="r" d="m30.609 48.391q-7.2188 0-11.422-5.6406t-4.2031-15.453 4.1719-15.453q4.1875-5.6406 11.453-5.6406 7.1875 0 11.375 5.6562 4.2031 5.6719 4.2031 15.438 0 9.7188-4.2031 15.406-4.1875 5.6875-11.375 5.6875zm0 7.6094q11.719 0 18.406-7.625 6.7031-7.6094 6.7031-21.078 0-13.422-6.7031-21.078-6.6875-7.6406-18.406-7.6406-11.766 0-18.438 7.6406-6.6562 7.6562-6.6562 21.078 0 13.469 6.6562 21.078 6.6719 7.625 18.438 7.625z"/>
<path id="u" d="m8.5 21.578v33.109h8.9844v-32.766q0-7.7656 3.0156-11.656 3.0312-3.875 9.0938-3.875 7.2656 0 11.484 4.6406 4.2344 4.6406 4.2344 12.656v31h8.9844v-54.688h-8.9844v8.4062q-3.2656-4.9844-7.5938-7.4062-4.3125-2.4219-10.031-2.4219-9.4219 0-14.312 5.8594-4.875 5.8594-4.875 17.141z"/>
<path id="o" d="m44.281 53.078v-8.5q-3.7969 1.9531-7.9062 2.9219-4.0938 0.98438-8.5 0.98438-6.6875 0-10.031-2.0469t-3.3438-6.1562q0-3.125 2.3906-4.9062t9.625-3.3906l3.0781-0.6875q9.5625-2.0469 13.594-5.7812t4.0312-10.422q0-7.625-6.0312-12.078-6.0312-4.4375-16.578-4.4375-4.3906 0-9.1562 0.85938t-10.031 2.5625v9.2812q4.9844-2.5938 9.8125-3.8906 4.8281-1.2812 9.5781-1.2812 6.3438 0 9.75 2.1719 3.4219 2.1719 3.4219 6.125 0 3.6562-2.4688 5.6094-2.4531 1.9531-10.812 3.7656l-3.125 0.73438q-8.3438 1.75-12.062 5.3906-3.7031 3.6406-3.7031 9.9844 0 7.7188 5.4688 11.906 5.4688 4.2031 15.531 4.2031 4.9688 0 9.3594-0.73438 4.4062-0.71875 8.1094-2.1875z"/>
</defs>
<use xlink:href="#an"/>
<use x="74.804688" xlink:href="#r"/>
<use x="135.986328" xlink:href="#u"/>
<use x="199.365234" xlink:href="#o"/>
</g>
</g>
<g clip-path="url(#a)">
<g transform="translate(51.257 639.12) scale(.1 -.1)">
<defs>
<path id="al" d="m2.9844 54.688h9.5156l17.094-45.891 17.094 45.891h9.5156l-20.516-54.688h-12.203z"/>
</defs>
<use xlink:href="#f"/>
<use x="61.279297" xlink:href="#al"/>
<use x="120.458984" xlink:href="#h"/>
<use x="148.242188" xlink:href="#r"/>
<use x="209.423828" xlink:href="#i"/>
<use x="272.802734" xlink:href="#o"/>
</g>
</g>
<g clip-path="url(#a)">
<g transform="translate(59.963 639.32) scale(.1 -.1)">
<defs>
<path id="s" d="m45.406 46.391v29.594h8.9844v-75.984h-8.9844v8.2031q-2.8281-4.875-7.1562-7.25-4.3125-2.375-10.375-2.375-9.9062 0-16.141 7.9062-6.2188 7.9219-6.2188 20.812t6.2188 20.797q6.2344 7.9062 16.141 7.9062 6.0625 0 10.375-2.375 4.3281-2.3594 7.1562-7.2344zm-30.609-19.094q0-9.9062 4.0781-15.547t11.203-5.6406 11.219 5.6406q4.1094 5.6406 4.1094 15.547t-4.1094 15.547q-4.0938 5.6406-11.219 5.6406t-11.203-5.6406-4.0781-15.547z"/>
<path id="af" d="m56.203 29.594v-4.3906h-41.312q0.59375-9.2812 5.5938-14.141t13.938-4.8594q5.1719 0 10.031 1.2656t9.6562 3.8125v-8.5q-4.8438-2.0469-9.9219-3.125t-10.297-1.0781q-13.094 0-20.734 7.6094-7.6406 7.625-7.6406 20.625 0 13.422 7.25 21.297 7.25 7.8906 19.562 7.8906 11.031 0 17.453-7.1094 6.4219-7.0938 6.4219-19.297zm-8.9844 2.6406q-0.09375 7.3594-4.125 11.75-4.0312 4.4062-10.672 4.4062-7.5156 0-12.031-4.25t-5.2031-11.969zm-8.6875 47.75h9.7188l-15.906-18.359h-7.4844z"/>
<path id="z" d="m18.109 8.2031v-29h-9.0312v75.484h9.0312v-8.2969q2.8438 4.875 7.1562 7.2344 4.3281 2.375 10.328 2.375 9.9688 0 16.188-7.9062 6.2344-7.9062 6.2344-20.797t-6.2344-20.812q-6.2188-7.9062-16.188-7.9062-6 0-10.328 2.375-4.3125 2.375-7.1562 7.25zm30.578 19.094q0 9.9062-4.0781 15.547t-11.203 5.6406q-7.1406 0-11.219-5.6406t-4.0781-15.547 4.0781-15.547 11.219-5.6406q7.125 0 11.203 5.6406t4.0781 15.547z"/>
</defs>
<use xlink:href="#s"/>
<use x="63.476562" xlink:href="#af"/>
<use x="125" xlink:href="#z"/>
<use x="188.476562" xlink:href="#f"/>
<use x="249.755859" xlink:href="#o"/>
<use x="301.855469" xlink:href="#o"/>
<use x="353.955078" xlink:href="#af"/>
</g>
</g>
<g clip-path="url(#a)">
<g transform="translate(92.818 639.12) scale(.1 -.1)">
<use xlink:href="#g"/>
<use x="27.783203" xlink:href="#d"/>
</g>
</g>
<g clip-path="url(#a)">
<g transform="translate(96.192 639.12) scale(.1 -.1)">
<defs>
<path id="q" d="m18.312 70.219v-15.531h18.5v-6.9844h-18.5v-29.688q0-6.6875 1.8281-8.5938t7.4531-1.9062h9.2188v-7.5156h-9.2188q-10.406 0-14.359 3.875-3.9531 3.8906-3.9531 14.141v29.688h-6.5938v6.9844h6.5938v15.531z"/>
<path id="at" d="m14.797 27.297q0-9.9062 4.0781-15.547t11.203-5.6406 11.219 5.6406q4.1094 5.6406 4.1094 15.547t-4.1094 15.547q-4.0938 5.6406-11.219 5.6406t-11.203-5.6406-4.0781-15.547zm30.609-19.094q-2.8281-4.875-7.1562-7.25-4.3125-2.375-10.375-2.375-9.9062 0-16.141 7.9062-6.2188 7.9219-6.2188 20.812t6.2188 20.797q6.2344 7.9062 16.141 7.9062 6.0625 0 10.375-2.375 4.3281-2.3594 7.1562-7.2344v8.2969h8.9844v-75.484h-8.9844z"/>
</defs>
<use xlink:href="#q"/>
<use x="39.208984" xlink:href="#j"/>
<use x="78.072266" xlink:href="#r"/>
<use x="139.253906" xlink:href="#z"/>
<use x="202.730469" xlink:href="#h"/>
<use x="230.513672" xlink:href="#at"/>
<use x="293.990234" xlink:href="#u"/>
<use x="357.369141" xlink:href="#d"/>
</g>
</g>
<g clip-path="url(#a)">
<g transform="translate(133.96 639.12) scale(.1 -.1)">
<use xlink:href="#s"/>
<use x="63.476562" xlink:href="#u"/>
</g>
</g>
<g clip-path="url(#a)">
<g transform="translate(139.58 639.12) scale(.1 -.1)">
<defs>
<path id="ag" d="m48.781 52.594v-8.4062q-3.8125 2.1094-7.6406 3.1562t-7.7344 1.0469q-8.75 0-13.594-5.5469-4.8281-5.5312-4.8281-15.547t4.8281-15.562q4.8438-5.5312 13.594-5.5312 3.9062 0 7.7344 1.0469t7.6406 3.1562v-8.3125q-3.7656-1.75-7.7969-2.625-4.0156-0.89062-8.5625-0.89062-12.359 0-19.641 7.7656-7.2656 7.7656-7.2656 20.953 0 13.375 7.3438 21.031 7.3594 7.6719 20.156 7.6719 4.1406 0 8.0938-0.85938 3.9531-0.84375 7.6719-2.5469z"/>
</defs>
<use xlink:href="#p"/>
<use x="69.824219" xlink:href="#f"/>
<use x="131.103516" xlink:href="#z"/>
<use x="194.580078" xlink:href="#j"/>
<use x="235.693359" xlink:href="#h"/>
<use x="263.476562" xlink:href="#ag"/>
<use x="318.457031" xlink:href="#r"/>
<use x="379.638672" xlink:href="#j"/>
<use x="419.001953" xlink:href="#i"/>
<use x="482.380859" xlink:href="#d"/>
</g>
</g>
<g clip-path="url(#a)">
<g transform="translate(194.96 639.12) scale(.1 -.1)">
<defs>
<path id="aq" d="m11.719 12.406h10.297v-8.4062l-8-15.625h-6.2969l4 15.625z"/>
</defs>
<use xlink:href="#aq"/>
</g>
</g>
<g clip-path="url(#a)">
<g transform="translate(224.6 639.12) scale(.1 -.1)">
<use xlink:href="#d"/>
<use x="61.523438" xlink:href="#q"/>
</g>
</g>
<g clip-path="url(#a)">
<g transform="translate(261.57 639.12) scale(.1 -.1)">
<use xlink:href="#g"/>
<use x="27.783203" xlink:href="#d"/>
</g>
</g>
<g clip-path="url(#a)">
<g transform="translate(289.18 639.12) scale(.1 -.1)">
<use xlink:href="#s"/>
<use x="63.476562" xlink:href="#af"/>
<use x="125" xlink:href="#q"/>
<use x="164.208984" xlink:href="#j"/>
<use x="203.072266" xlink:href="#r"/>
<use x="264.253906" xlink:href="#h"/>
<use x="292.037109" xlink:href="#q"/>
</g>
</g>
<g clip-path="url(#a)">
<g transform="translate(342.51 639.12) scale(.1 -.1)">
<use xlink:href="#s"/>
<use x="63.476562" xlink:href="#d"/>
</g>
</g>
<g clip-path="url(#a)">
<g transform="translate(372.45 639.12) scale(.1 -.1)">
<defs>
<path id="ao" d="m9.8125 72.906h14.703l18.594-49.609 18.703 49.609h14.703v-72.906h-9.625v64.016l-18.797-50h-9.9062l-18.797 50v-64.016h-9.5781z"/>
<path id="au" d="m45.406 27.984q0 9.7656-4.0312 15.125-4.0156 5.375-11.297 5.375-7.2188 0-11.25-5.375-4.0312-5.3594-4.0312-15.125 0-9.7188 4.0312-15.094t11.25-5.375q7.2812 0 11.297 5.375 4.0312 5.375 4.0312 15.094zm8.9844-21.203q0-13.953-6.2031-20.766-6.1875-6.8125-18.984-6.8125-4.7344 0-8.9375 0.70312t-8.1562 2.1719v8.7344q3.9531-2.1406 7.8125-3.1562 3.8594-1.0312 7.8594-1.0312 8.8438 0 13.234 4.6094t4.3906 13.938v4.4531q-2.7812-4.8438-7.125-7.2344t-10.406-2.3906q-10.047 0-16.203 7.6562-6.1562 7.6719-6.1562 20.328 0 12.688 6.1562 20.344 6.1562 7.6719 16.203 7.6719 6.0625 0 10.406-2.3906t7.125-7.2188v8.2969h8.9844z"/>
</defs>
<use xlink:href="#ao"/>
<use x="86.279297" xlink:href="#f"/>
<use x="147.558594" xlink:href="#au"/>
<use x="211.035156" xlink:href="#d"/>
<use x="272.558594" xlink:href="#g"/>
<use x="300.341797" xlink:href="#g"/>
<use x="328.125" xlink:href="#f"/>
<use x="389.404297" xlink:href="#i"/>
</g>
</g>
<g clip-path="url(#a)">
<g transform="translate(440.74 639.12) scale(.1 -.1)">
<defs>
<path id="ar" d="m17.922 72.906v-27.109h-8.2969v27.109z"/>
</defs>
<use xlink:href="#o"/>
<use x="52.099609" xlink:href="#ar"/>
</g>
</g>
<g clip-path="url(#a)">
<g transform="translate(480.01 639.12) scale(.1 -.1)">
<use xlink:href="#r"/>
<use x="61.181641" xlink:href="#u"/>
<use x="124.560547" xlink:href="#al"/>
<use x="183.740234" xlink:href="#j"/>
<use x="224.853516" xlink:href="#f"/>
<use x="286.132812" xlink:href="#h"/>
<use x="313.916016" xlink:href="#q"/>
</g>
</g>
<g clip-path="url(#a)">
<g transform="translate(550.85 639.12) scale(.1 -.1)">
<defs>
<path id="as" d="m34.281 27.484q-10.891 0-15.094-2.4844t-4.2031-8.5q0-4.7812 3.1562-7.5938 3.1562-2.7969 8.5625-2.7969 7.4844 0 12 5.2969t4.5156 14.078v2zm17.922 3.7188v-31.203h-8.9844v8.2969q-3.0781-4.9688-7.6719-7.3438t-11.234-2.375q-8.3906 0-13.359 4.7188-4.9531 4.7188-4.9531 12.625 0 9.2188 6.1719 13.906 6.1875 4.6875 18.438 4.6875h12.609v0.89062q0 6.2031-4.0781 9.5938t-11.453 3.3906q-4.6875 0-9.1406-1.125-4.4375-1.125-8.5312-3.375v8.3125q4.9219 1.9062 9.5625 2.8438 4.6406 0.95312 9.0312 0.95312 11.875 0 17.734-6.1562 5.8594-6.1406 5.8594-18.641zm-30.281 48.781 13.766-18.266h-7.4688l-15.922 18.266z"/>
</defs>
<use xlink:href="#as"/>
</g>
</g>
<g clip-path="url(#a)">
<g transform="translate(598.39 639.12) scale(.1 -.1)">
<use xlink:href="#k"/>
<use x="97.412109" xlink:href="#r"/>
<use x="158.59375" xlink:href="#h"/>
<use x="186.376953" xlink:href="#i"/>
<use x="249.755859" xlink:href="#o"/>
</g>
</g>
<g clip-path="url(#a)">
<g transform="translate(670.1 639.12) scale(.1 -.1)">
<use xlink:href="#s"/>
<use x="63.476562" xlink:href="#d"/>
</g>
</g>
<g clip-path="url(#a)">
<g transform="translate(731.71 639.12) scale(.1 -.1)">
<use xlink:href="#o"/>
<use x="52.099609" xlink:href="#d"/>
<use x="113.623047" xlink:href="#z"/>
<use x="177.099609" xlink:href="#q"/>
</g>
</g>
<g clip-path="url(#a)">
<g transform="translate(801.06 639.12) scale(.1 -.1)">
<use xlink:href="#ag"/>
<use x="54.980469" xlink:href="#d"/>
<use x="116.503906" xlink:href="#i"/>
<use x="179.882812" xlink:href="#q"/>
</g>
</g>
<g clip-path="url(#a)">
<g transform="translate(870.09 639.12) scale(.1 -.1)">
<use xlink:href="#k"/>
<use x="97.412109" xlink:href="#h"/>
<use x="125.195312" xlink:href="#g"/>
<use x="152.978516" xlink:href="#g"/>
<use x="180.761719" xlink:href="#d"/>
<use x="242.285156" xlink:href="#o"/>
</g>
</g>
<g clip-path="url(#a)">
<g transform="translate(948.91 639.12) scale(.1 -.1)">
<use xlink:href="#s"/>
<use x="63.476562" xlink:href="#f"/>
<use x="124.755859" xlink:href="#i"/>
<use x="188.134766" xlink:href="#o"/>
</g>
</g>
<g clip-path="url(#a)">
<g transform="translate(1035.9 639.12) scale(.1 -.1)">
<use xlink:href="#g"/>
<use x="27.783203" xlink:href="#d"/>
</g>
</g>
<g clip-path="url(#a)">
<g transform="translate(1114.1 639.12) scale(.1 -.1)">
<use xlink:href="#o"/>
<use x="52.099609" xlink:href="#u"/>
<use x="115.478516" xlink:href="#s"/>
</g>
</g>
<g clip-path="url(#a)">
<g transform="translate(1207.5 639.12) scale(.1 -.1)">
<defs>
<path id="e" d="m10.688 12.406h10.312v-12.406h-10.312z"/>
</defs>
<use xlink:href="#e"/>
</g>
</g>
<g clip-path="url(#a)">
<g transform="translate(247.74 33.062) scale(.1 -.1)">
<defs>
<path id="c" d="m12.406 8.2969h16.109v55.625l-17.531-3.5156v8.9844l17.438 3.5156h9.8594v-64.609h16.109v-8.2969h-41.984z"/>
</defs>
<use xlink:href="#c"/>
<use x="63.623047" xlink:href="#e"/>
<use x="95.410156" xlink:href="#c"/>
</g>
</g>
<g clip-path="url(#a)">
<g transform="translate(74.166 155.36) scale(.1 -.1)">
<defs>
<path id="m" d="m19.188 8.2969h34.422v-8.2969h-46.281v8.2969q5.6094 5.8125 15.297 15.594 9.7031 9.7969 12.188 12.641 4.7344 5.3125 6.6094 9 1.8906 3.6875 1.8906 7.25 0 5.8125-4.0781 9.4688-4.0781 3.6719-10.625 3.6719-4.6406 0-9.7969-1.6094-5.1406-1.6094-11-4.8906v9.9688q5.9531 2.3906 11.125 3.6094 5.1875 1.2188 9.4844 1.2188 11.328 0 18.062-5.6719 6.7344-5.6562 6.7344-15.125 0-4.5-1.6875-8.5312-1.6719-4.0156-6.125-9.4844-1.2188-1.4219-7.7656-8.1875-6.5312-6.7656-18.453-18.922z"/>
</defs>
<use xlink:href="#c"/>
<use x="63.623047" xlink:href="#e"/>
<use x="95.410156" xlink:href="#m"/>
</g>
</g>
<g clip-path="url(#a)">
<g transform="translate(221.69 519.85) scale(.1 -.1)">
<defs>
<path id="n" d="m40.578 39.312q7.0781-1.5156 11.047-6.3125 3.9844-4.7812 3.9844-11.812 0-10.781-7.4219-16.703-7.4219-5.9062-21.094-5.9062-4.5781 0-9.4375 0.90625t-10.031 2.7188v9.5156q4.0938-2.3906 8.9688-3.6094 4.8906-1.2188 10.219-1.2188 9.2656 0 14.125 3.6562t4.8594 10.641q0 6.4531-4.5156 10.078-4.5156 3.6406-12.562 3.6406h-8.5v8.1094h8.8906q7.2656 0 11.125 2.9062t3.8594 8.375q0 5.6094-3.9844 8.6094-3.9688 3.0156-11.391 3.0156-4.0625 0-8.7031-0.89062-4.6406-0.875-10.203-2.7188v8.7812q5.625 1.5625 10.531 2.3438t9.25 0.78125q11.234 0 17.766-5.1094 6.5469-5.0938 6.5469-13.781 0-6.0625-3.4688-10.234t-9.8594-5.7812z"/>
</defs>
<use xlink:href="#c"/>
<use x="63.623047" xlink:href="#e"/>
<use x="95.410156" xlink:href="#n"/>
</g>
</g>
<g clip-path="url(#a)">
<g transform="translate(506.49 155.36) scale(.1 -.1)">
<defs>
<path id="y" d="m37.797 64.312-24.906-38.922h24.906zm-2.5938 8.5938h12.406v-47.516h10.406v-8.2031h-10.406v-17.188h-9.8125v17.188h-32.906v9.5156z"/>
</defs>
<use xlink:href="#c"/>
<use x="63.623047" xlink:href="#e"/>
<use x="95.410156" xlink:href="#y"/>
</g>
</g>
<g clip-path="url(#a)">
<g transform="translate(306.62 277.34) scale(.1 -.1)">
<defs>
<path id="ac" d="m8.2031 72.906h46.875v-4.2031l-26.469-68.703h-10.297l24.906 64.594h-35.016z"/>
</defs>
<use xlink:href="#c"/>
<use x="63.623047" xlink:href="#e"/>
<use x="95.410156" xlink:href="#ac"/>
</g>
</g>
<g clip-path="url(#a)">
<g transform="translate(463.24 519.85) scale(.1 -.1)">
<defs>
<path id="ab" d="m31.781 34.625q-7.0312 0-11.062-3.7656-4.0156-3.7656-4.0156-10.344 0-6.5938 4.0156-10.359 4.0312-3.7656 11.062-3.7656t11.078 3.7812q4.0625 3.7969 4.0625 10.344 0 6.5781-4.0312 10.344-4.0156 3.7656-11.109 3.7656zm-9.8594 4.1875q-6.3438 1.5625-9.8906 5.9062-3.5312 4.3594-3.5312 10.609 0 8.7344 6.2188 13.812 6.2344 5.0781 17.062 5.0781 10.891 0 17.094-5.0781t6.2031-13.812q0-6.25-3.5469-10.609-3.5312-4.3438-9.8281-5.9062 7.125-1.6562 11.094-6.5 3.9844-4.8281 3.9844-11.797 0-10.609-6.4688-16.281-6.4688-5.6562-18.531-5.6562-12.047 0-18.531 5.6562-6.4688 5.6719-6.4688 16.281 0 6.9688 4 11.797 4.0156 4.8438 11.141 6.5zm-3.6094 15.578q0-5.6562 3.5312-8.8281 3.5469-3.1719 9.9375-3.1719 6.3594 0 9.9375 3.1719 3.5938 3.1719 3.5938 8.8281 0 5.6719-3.5938 8.8438-3.5781 3.1719-9.9375 3.1719-6.3906 0-9.9375-3.1719-3.5312-3.1719-3.5312-8.8438z"/>
</defs>
<use xlink:href="#c"/>
<use x="63.623047" xlink:href="#e"/>
<use x="95.410156" xlink:href="#ab"/>
</g>
</g>
<g clip-path="url(#a)">
<g transform="translate(749.61 277.34) scale(.1 -.1)">
<defs>
<path id="aa" d="m10.984 1.5156v8.9844q3.7188-1.7656 7.5156-2.6875 3.8125-0.92188 7.4844-0.92188 9.7656 0 14.906 6.5625 5.1562 6.5625 5.8906 19.953-2.8281-4.2031-7.1875-6.4531-4.3438-2.25-9.6094-2.25-10.938 0-17.312 6.6094-6.375 6.625-6.375 18.109 0 11.219 6.6406 18 6.6406 6.7969 17.672 6.7969 12.656 0 19.312-9.7031 6.6719-9.6875 6.6719-28.141 0-17.234-8.1875-27.516-8.1719-10.281-21.984-10.281-3.7188 0-7.5312 0.73438-3.7969 0.73438-7.9062 2.2031zm19.625 30.906q6.6406 0 10.516 4.5312 3.8906 4.5469 3.8906 12.469 0 7.8594-3.8906 12.422-3.875 4.5625-10.516 4.5625t-10.516-4.5625-3.875-12.422q0-7.9219 3.875-12.469 3.875-4.5312 10.516-4.5312z"/>
</defs>
<use xlink:href="#c"/>
<use x="63.623047" xlink:href="#e"/>
<use x="95.410156" xlink:href="#aa"/>
</g>
</g>
<g clip-path="url(#a)">
<g transform="translate(542.79 519.85) scale(.1 -.1)">
<defs>
<path id="ae" d="m31.781 66.406q-7.6094 0-11.453-7.5-3.8281-7.4844-3.8281-22.531 0-14.984 3.8281-22.484 3.8438-7.5 11.453-7.5 7.6719 0 11.5 7.5 3.8438 7.5 3.8438 22.484 0 15.047-3.8438 22.531-3.8281 7.5-11.5 7.5zm0 7.8125q12.266 0 18.734-9.7031 6.4688-9.6875 6.4688-28.141 0-18.406-6.4688-28.109-6.4688-9.6875-18.734-9.6875-12.25 0-18.719 9.6875-6.4688 9.7031-6.4688 28.109 0 18.453 6.4688 28.141 6.4688 9.7031 18.719 9.7031z"/>
</defs>
<use xlink:href="#c"/>
<use x="63.623047" xlink:href="#e"/>
<use x="95.410156" xlink:href="#c"/>
<use x="159.033203" xlink:href="#ae"/>
</g>
</g>
<g clip-path="url(#a)">
<g transform="translate(602.35 519.85) scale(.1 -.1)">
<use xlink:href="#c"/>
<use x="63.623047" xlink:href="#e"/>
<use x="95.410156" xlink:href="#c"/>
<use x="159.033203" xlink:href="#c"/>
</g>
</g>
<g clip-path="url(#a)">
<g transform="translate(768.35 398.91) scale(.1 -.1)">
<use xlink:href="#c"/>
<use x="63.623047" xlink:href="#e"/>
<use x="95.410156" xlink:href="#c"/>
<use x="159.033203" xlink:href="#m"/>
</g>
</g>
<g clip-path="url(#a)">
<g transform="translate(1072.2 398.91) scale(.1 -.1)">
<use xlink:href="#c"/>
<use x="63.623047" xlink:href="#e"/>
<use x="95.410156" xlink:href="#c"/>
<use x="159.033203" xlink:href="#n"/>
</g>
</g>
<g clip-path="url(#a)">
<g transform="translate(949.79 519.85) scale(.1 -.1)">
<use xlink:href="#c"/>
<use x="63.623047" xlink:href="#e"/>
<use x="95.410156" xlink:href="#c"/>
<use x="159.033203" xlink:href="#y"/>
</g>
</g>
<g clip-path="url(#a)">
<g transform="translate(1029.2 519.85) scale(.1 -.1)">
<defs>
<path id="ad" d="m10.797 72.906h38.719v-8.3125h-29.688v-17.859q2.1406 0.73438 4.2812 1.0938 2.1562 0.35938 4.3125 0.35938 12.203 0 19.328-6.6875 7.1406-6.6875 7.1406-18.109 0-11.766-7.3281-18.297-7.3281-6.5156-20.656-6.5156-4.5938 0-9.3594 0.78125-4.75 0.78125-9.8281 2.3438v9.9219q4.3906-2.3906 9.0781-3.5625t9.9062-1.1719q8.4531 0 13.375 4.4375 4.9375 4.4375 4.9375 12.062 0 7.6094-4.9375 12.047-4.9219 4.4531-13.375 4.4531-3.9531 0-7.8906-0.875-3.9219-0.875-8.0156-2.7344z"/>
</defs>
<use xlink:href="#c"/>
<use x="63.623047" xlink:href="#e"/>
<use x="95.410156" xlink:href="#c"/>
<use x="159.033203" xlink:href="#ad"/>
</g>
</g>
<g clip-path="url(#a)">
<g transform="translate(1111.9 519.85) scale(.1 -.1)">
<defs>
<path id="ak" d="m33.016 40.375q-6.6406 0-10.531-4.5469-3.875-4.5312-3.875-12.438 0-7.8594 3.875-12.438 3.8906-4.5625 10.531-4.5625t10.516 4.5625q3.875 4.5781 3.875 12.438 0 7.9062-3.875 12.438-3.875 4.5469-10.516 4.5469zm19.578 30.922v-8.9844q-3.7188 1.75-7.5 2.6719-3.7812 0.9375-7.5 0.9375-9.7656 0-14.922-6.5938-5.1406-6.5938-5.875-19.922 2.875 4.25 7.2188 6.5156 4.3594 2.2656 9.5781 2.2656 10.984 0 17.359-6.6719 6.375-6.6562 6.375-18.125 0-11.234-6.6406-18.031-6.6406-6.7812-17.672-6.7812-12.656 0-19.344 9.6875-6.6875 9.7031-6.6875 28.109 0 17.281 8.2031 27.562t22.016 10.281q3.7188 0 7.5-0.73438t7.8906-2.1875z"/>
</defs>
<use xlink:href="#c"/>
<use x="63.623047" xlink:href="#e"/>
<use x="95.410156" xlink:href="#c"/>
<use x="159.033203" xlink:href="#ak"/>
</g>
</g>
<g clip-path="url(#a)">
<g transform="translate(665.22 519.85) scale(.1 -.1)">
<use xlink:href="#c"/>
<use x="63.623047" xlink:href="#e"/>
<use x="95.410156" xlink:href="#c"/>
<use x="159.033203" xlink:href="#ac"/>
</g>
</g>
<g clip-path="url(#a)">
<g transform="translate(766.14 519.85) scale(.1 -.1)">
<use xlink:href="#c"/>
<use x="63.623047" xlink:href="#e"/>
<use x="95.410156" xlink:href="#c"/>
<use x="159.033203" xlink:href="#ab"/>
</g>
</g>
<g clip-path="url(#a)">
<g transform="translate(873.68 519.85) scale(.1 -.1)">
<use xlink:href="#c"/>
<use x="63.623047" xlink:href="#e"/>
<use x="95.410156" xlink:href="#c"/>
<use x="159.033203" xlink:href="#aa"/>
</g>
</g>
<g clip-path="url(#a)">
<g transform="translate(254.91 519.85) scale(.1 -.1)">
<use xlink:href="#c"/>
<use x="63.623047" xlink:href="#e"/>
<use x="95.410156" xlink:href="#m"/>
<use x="159.033203" xlink:href="#ae"/>
</g>
</g>
<g clip-path="url(#a)">
<g transform="translate(294.61 519.85) scale(.1 -.1)">
<use xlink:href="#c"/>
<use x="63.623047" xlink:href="#e"/>
<use x="95.410156" xlink:href="#m"/>
<use x="159.033203" xlink:href="#c"/>
</g>
</g>
<g clip-path="url(#a)">
<g transform="translate(360.79 398.91) scale(.1 -.1)">
<use xlink:href="#c"/>
<use x="63.623047" xlink:href="#e"/>
<use x="95.410156" xlink:href="#m"/>
<use x="159.033203" xlink:href="#m"/>
</g>
</g>
<g clip-path="url(#a)">
<g transform="translate(337.63 519.85) scale(.1 -.1)">
<use xlink:href="#c"/>
<use x="63.623047" xlink:href="#e"/>
<use x="95.410156" xlink:href="#m"/>
<use x="159.033203" xlink:href="#n"/>
</g>
</g>
<g clip-path="url(#a)">
<g transform="translate(383.96 519.85) scale(.1 -.1)">
<use xlink:href="#c"/>
<use x="63.623047" xlink:href="#e"/>
<use x="95.410156" xlink:href="#m"/>
<use x="159.033203" xlink:href="#y"/>
</g>
</g>
<g clip-path="url(#a)">
<g transform="translate(46.443 519.85) scale(.1 -.1)">
<use xlink:href="#c"/>
<use x="63.623047" xlink:href="#e"/>
<use x="95.410156" xlink:href="#m"/>
<use x="159.033203" xlink:href="#ad"/>
</g>
</g>
<g clip-path="url(#a)">
<g transform="translate(56.37 519.85) scale(.1 -.1)">
<use xlink:href="#c"/>
<use x="63.623047" xlink:href="#e"/>
<use x="95.410156" xlink:href="#m"/>
<use x="159.033203" xlink:href="#ak"/>
</g>
</g>
<g clip-path="url(#a)">
<g transform="translate(69.606 519.85) scale(.1 -.1)">
<use xlink:href="#c"/>
<use x="63.623047" xlink:href="#e"/>
<use x="95.410156" xlink:href="#m"/>
<use x="159.033203" xlink:href="#ac"/>
</g>
</g>
<g clip-path="url(#a)">
<g transform="translate(111.52 277.34) scale(.1 -.1)">
<use xlink:href="#c"/>
<use x="63.623047" xlink:href="#e"/>
<use x="95.410156" xlink:href="#m"/>
<use x="159.033203" xlink:href="#ab"/>
</g>
</g>
<g clip-path="url(#a)">
<g transform="translate(86.15 519.85) scale(.1 -.1)">
<use xlink:href="#c"/>
<use x="63.623047" xlink:href="#e"/>
<use x="95.410156" xlink:href="#m"/>
<use x="159.033203" xlink:href="#aa"/>
</g>
</g>
<g clip-path="url(#a)">
<g transform="translate(106 519.85) scale(.1 -.1)">
<use xlink:href="#c"/>
<use x="63.623047" xlink:href="#e"/>
<use x="95.410156" xlink:href="#n"/>
<use x="159.033203" xlink:href="#ae"/>
</g>
</g>
<g clip-path="url(#a)">
<g transform="translate(142.4 398.91) scale(.1 -.1)">
<use xlink:href="#c"/>
<use x="63.623047" xlink:href="#e"/>
<use x="95.410156" xlink:href="#n"/>
<use x="159.033203" xlink:href="#c"/>
</g>
</g>
<g clip-path="url(#a)">
<g transform="translate(129.17 519.85) scale(.1 -.1)">
<use xlink:href="#c"/>
<use x="63.623047" xlink:href="#e"/>
<use x="95.410156" xlink:href="#n"/>
<use x="159.033203" xlink:href="#m"/>
</g>
</g>
<g clip-path="url(#a)">
<g transform="translate(155.64 519.85) scale(.1 -.1)">
<use xlink:href="#c"/>
<use x="63.623047" xlink:href="#e"/>
<use x="95.410156" xlink:href="#n"/>
<use x="159.033203" xlink:href="#n"/>
</g>
</g>
<g clip-path="url(#a)">
<g transform="translate(185.42 519.85) scale(.1 -.1)">
<use xlink:href="#c"/>
<use x="63.623047" xlink:href="#e"/>
<use x="95.410156" xlink:href="#n"/>
<use x="159.033203" xlink:href="#y"/>
</g>
</g>
<g clip-path="url(#a)">
<g transform="translate(1198 519.85) scale(.1 -.1)">
<use xlink:href="#c"/>
<use x="63.623047" xlink:href="#e"/>
<use x="95.410156" xlink:href="#n"/>
<use x="159.033203" xlink:href="#ad"/>
</g>
</g>
<defs>
<clipPath id="a">
<rect width="1266.7" height="666.67"/>
</clipPath>
</defs>
</svg>
