<?xml version="1.0" encoding="UTF-8"?>
<!DOCTYPE svg  PUBLIC '-//W3C//DTD SVG 1.1//EN'  'http://www.w3.org/Graphics/SVG/1.1/DTD/svg11.dtd'>
<svg width="962.67pt" height="506.67pt" version="1.1" viewBox="0 0 962.67 506.67" xmlns="http://www.w3.org/2000/svg" xmlns:xlink="http://www.w3.org/1999/xlink">
<metadata>
<rdf:RDF xmlns:cc="http://creativecommons.org/ns#" xmlns:dc="http://purl.org/dc/elements/1.1/" xmlns:rdf="http://www.w3.org/1999/02/22-rdf-syntax-ns#">
<cc:Work>
<dc:type rdf:resource="http://purl.org/dc/dcmitype/StillImage"/>
<dc:date>2021-06-09T07:17:28.675192</dc:date>
<dc:format>image/svg+xml</dc:format>
<dc:creator>
<cc:Agent>
<dc:title>Matplotlib v3.3.3, https://matplotlib.org/</dc:title>
</cc:Agent>
</dc:creator>
</cc:Work>
</rdf:RDF>
</metadata>
<defs>
<style type="text/css">*{stroke-linecap:butt;stroke-linejoin:round;}</style>
</defs>
<path d="m0 506.67h962.67v-506.67h-962.67z" fill="#fff"/>
<g fill="none" stroke="#000">
<path d="m147.77 23.03-104.01 385.2" clip-path="url(#a)"/>
<path d="m147.77 23.03 104.01 77.467" clip-path="url(#a)"/>
<path d="m43.758 408.23v75.404" clip-path="url(#a)"/>
<path d="m251.78 100.5-195.34 307.73" clip-path="url(#a)"/>
<path d="m251.78 100.5-120.47 77.311" clip-path="url(#a)"/>
<path d="m251.78 100.5 315.81 77.311" clip-path="url(#a)"/>
<path d="m56.441 408.23v75.404" clip-path="url(#a)"/>
<path d="m131.31 177.81-57.956 230.42" clip-path="url(#a)"/>
<path d="m131.31 177.81-24.134 153.97" clip-path="url(#a)"/>
<path d="m131.31 177.81-11.45 230.42" clip-path="url(#a)"/>
<path d="m131.31 177.81 93.54 77.116" clip-path="url(#a)"/>
<path d="m567.59 177.81-128.01 77.116" clip-path="url(#a)"/>
<path d="m567.59 177.81 38.461 230.42" clip-path="url(#a)"/>
<path d="m567.59 177.81 89.547 77.116" clip-path="url(#a)"/>
<path d="m439.58 254.92-78.742 153.31" clip-path="url(#a)"/>
<path d="m439.58 254.92-23.781 153.31" clip-path="url(#a)"/>
<path d="m439.58 254.92 35.408 153.31" clip-path="url(#a)"/>
<path d="m439.58 254.92 67.116 76.854" clip-path="url(#a)"/>
<path d="m606.05 408.23v75.404" clip-path="url(#a)"/>
<path d="m657.14 254.92 20.787 153.31" clip-path="url(#a)"/>
<path d="m657.14 254.92 96.887 153.31" clip-path="url(#a)"/>
<path d="m657.14 254.92 178.62 76.854" clip-path="url(#a)"/>
<path d="m657.14 254.92-296.3 153.31" clip-path="url(#a)" stroke-dasharray="3.7,1.6"/>
<path d="m677.93 408.23v75.404" clip-path="url(#a)"/>
<path d="m754.03 408.23v75.404" clip-path="url(#a)"/>
<path d="m835.76 331.78-81.737 76.453" clip-path="url(#a)" stroke-dasharray="3.7,1.6"/>
<path d="m835.76 331.78-1.4093 76.453" clip-path="url(#a)"/>
<path d="m835.76 331.78 83.146 76.453" clip-path="url(#a)"/>
<path d="m834.35 408.23v75.404" clip-path="url(#a)"/>
<path d="m360.84 408.23v75.404" clip-path="url(#a)"/>
<path d="m415.8 408.23v75.404" clip-path="url(#a)"/>
<path d="m474.99 408.23v75.404" clip-path="url(#a)"/>
<path d="m506.7 331.78-31.708 76.453" clip-path="url(#a)" stroke-dasharray="3.7,1.6"/>
<path d="m506.7 331.78 31.708 76.453" clip-path="url(#a)"/>
<path d="m538.41 408.23v75.404" clip-path="url(#a)"/>
<path d="m73.352 408.23v75.404" clip-path="url(#a)"/>
<path d="m107.17 331.78 12.683 76.453" clip-path="url(#a)" stroke-dasharray="3.7,1.6"/>
<path d="m107.17 331.78-12.683 76.453" clip-path="url(#a)"/>
<path d="m119.86 408.23v75.404" clip-path="url(#a)"/>
<path d="m224.85 254.92-58.484 76.854" clip-path="url(#a)"/>
<path d="m224.85 254.92-3.5232 153.31" clip-path="url(#a)"/>
<path d="m224.85 254.92 62.008 76.854" clip-path="url(#a)"/>
<path d="m166.36 331.78-16.911 76.453" clip-path="url(#a)"/>
<path d="m166.36 331.78 16.911 76.453" clip-path="url(#a)"/>
<path d="m221.32 408.23v75.404" clip-path="url(#a)"/>
<path d="m286.86 331.78-23.253 76.453" clip-path="url(#a)"/>
<path d="m286.86 331.78 23.253 76.453" clip-path="url(#a)"/>
<path d="m263.6 408.23v75.404" clip-path="url(#a)"/>
<path d="m310.11 408.23v75.404" clip-path="url(#a)"/>
<path d="m149.45 408.23v75.404" clip-path="url(#a)"/>
<path d="m183.27 408.23v75.404" clip-path="url(#a)"/>
<path d="m94.491 408.23v75.404" clip-path="url(#a)"/>
<path d="m918.91 408.23v75.404" clip-path="url(#a)"/>
</g>
<path d="m101.24 219.42 1.162-4.3034q0.62564-2.317-1.6914-2.9427l-7.4748-2.0183q-2.317-0.62564-2.9427 1.6914l-1.162 4.3034q-0.62564 2.317 1.6914 2.9427l7.4748 2.0183q2.317 0.62564 2.9427-1.6914z" clip-path="url(#a)" fill="#fff" stroke="#fff"/>
<g clip-path="url(#a)">
<g transform="translate(97.313 218.36) rotate(-74.889) scale(.08 -.08)">
<defs>
<path id="ao" d="m9.8125 72.906h9.8594v-64.609h35.5v-8.2969h-45.359z"/>
</defs>
<use xlink:href="#ao"/>
</g>
</g>
<path d="m193.62 64.996 4.825 3.5936q1.9248 1.4336 3.3584-0.49122l4.6248-6.2095q1.4336-1.9248-0.49122-3.3584l-4.825-3.5936q-1.9248-1.4336-3.3584 0.49122l-4.6248 6.2095q-1.4336 1.9248 0.49122 3.3584z" clip-path="url(#a)" fill="#fff" stroke="#fff"/>
<g clip-path="url(#a)">
<g transform="translate(196.04 61.737) rotate(36.678) scale(.08 -.08)">
<defs>
<path id="ap" d="m9.8125 72.906h9.8594v-29.891h35.844v29.891h9.8594v-72.906h-9.8594v34.719h-35.844v-34.719h-9.8594z"/>
</defs>
<use xlink:href="#ap"/>
</g>
</g>
<path d="m37.486 429.03v33.808q0 2.4 2.4 2.4h7.7425q2.4 0 2.4-2.4v-33.808q0-2.4-2.4-2.4h-7.7425q-2.4 0-2.4 2.4z" clip-path="url(#a)" fill="#fff" stroke="#fff"/>
<g clip-path="url(#a)">
<g transform="translate(41.55 429.03) rotate(90) scale(.08 -.08)">
<defs>
<path id="l" d="m-0.29688 72.906h61.672v-8.3125h-25.875v-64.594h-9.9062v64.594h-25.891z"/>
<path id="d" d="m56.203 29.594v-4.3906h-41.312q0.59375-9.2812 5.5938-14.141t13.938-4.8594q5.1719 0 10.031 1.2656t9.6562 3.8125v-8.5q-4.8438-2.0469-9.9219-3.125t-10.297-1.0781q-13.094 0-20.734 7.6094-7.6406 7.625-7.6406 20.625 0 13.422 7.25 21.297 7.25 7.8906 19.562 7.8906 11.031 0 17.453-7.1094 6.4219-7.0938 6.4219-19.297zm-8.9844 2.6406q-0.09375 7.3594-4.125 11.75-4.0312 4.4062-10.672 4.4062-7.5156 0-12.031-4.25t-5.2031-11.969z"/>
<path id="j" d="m41.109 46.297q-1.5156 0.875-3.2969 1.2812-1.7812 0.42188-3.9219 0.42188-7.625 0-11.703-4.9531t-4.0781-14.234v-28.812h-9.0312v54.688h9.0312v-8.5q2.8438 4.9844 7.375 7.3906 4.5469 2.4219 11.047 2.4219 0.92188 0 2.0469-0.125 1.125-0.10938 2.4844-0.35938z"/>
<path id="k" d="m52 44.188q3.375 6.0625 8.0625 8.9375t11.031 2.875q8.5469 0 13.188-5.9844 4.6406-5.9688 4.6406-17v-33.016h-9.0312v32.719q0 7.8594-2.7969 11.656-2.7812 3.8125-8.4844 3.8125-6.9844 0-11.047-4.6406-4.0469-4.625-4.0469-12.641v-30.906h-9.0312v32.719q0 7.9062-2.7812 11.688t-8.5938 3.7812q-6.8906 0-10.953-4.6562-4.0469-4.6562-4.0469-12.625v-30.906h-9.0312v54.688h9.0312v-8.5q3.0781 5.0312 7.375 7.4219t10.203 2.3906q5.9688 0 10.141-3.0312 4.1719-3.0156 6.1719-8.7812z"/>
<path id="g" d="m9.4219 54.688h8.9844v-54.688h-8.9844zm0 21.297h8.9844v-11.391h-8.9844z"/>
<path id="i" d="m54.891 33.016v-33.016h-8.9844v32.719q0 7.7656-3.0312 11.609-3.0312 3.8594-9.0781 3.8594-7.2812 0-11.484-4.6406-4.2031-4.625-4.2031-12.641v-30.906h-9.0312v54.688h9.0312v-8.5q3.2344 4.9375 7.5938 7.375 4.375 2.4375 10.094 2.4375 9.4219 0 14.25-5.8281 4.8438-5.8281 4.8438-17.156z"/>
<path id="h" d="m34.281 27.484q-10.891 0-15.094-2.4844t-4.2031-8.5q0-4.7812 3.1562-7.5938 3.1562-2.7969 8.5625-2.7969 7.4844 0 12 5.2969t4.5156 14.078v2zm17.922 3.7188v-31.203h-8.9844v8.2969q-3.0781-4.9688-7.6719-7.3438t-11.234-2.375q-8.3906 0-13.359 4.7188-4.9531 4.7188-4.9531 12.625 0 9.2188 6.1719 13.906 6.1875 4.6875 18.438 4.6875h12.609v0.89062q0 6.2031-4.0781 9.5938t-11.453 3.3906q-4.6875 0-9.1406-1.125-4.4375-1.125-8.5312-3.375v8.3125q4.9219 1.9062 9.5625 2.8438 4.6406 0.95312 9.0312 0.95312 11.875 0 17.734-6.1562 5.8594-6.1406 5.8594-18.641z"/>
<path id="f" d="m9.4219 75.984h8.9844v-75.984h-8.9844z"/>
</defs>
<use xlink:href="#l"/>
<use x="44.083984" xlink:href="#d"/>
<use x="105.607422" xlink:href="#j"/>
<use x="144.970703" xlink:href="#k"/>
<use x="242.382812" xlink:href="#g"/>
<use x="270.166016" xlink:href="#i"/>
<use x="333.544922" xlink:href="#h"/>
<use x="394.824219" xlink:href="#f"/>
</g>
</g>
<path d="m158.11 259.76 2.5851-4.0726q1.2862-2.0263-0.74006-3.3124l-6.5368-4.1493q-2.0263-1.2862-3.3124 0.74006l-2.5851 4.0726q-1.2862 2.0263 0.74006 3.3124l6.5368 4.1493q2.0263 1.2862 3.3124-0.74006z" clip-path="url(#a)" fill="#fff" stroke="#fff"/>
<g clip-path="url(#a)">
<g transform="translate(154.68 257.58) rotate(-57.594) scale(.08 -.08)">
<defs>
<path id="an" d="m19.672 64.797v-27.391h12.406q6.8906 0 10.641 3.5625 3.7656 3.5625 3.7656 10.156 0 6.5469-3.7656 10.109-3.75 3.5625-10.641 3.5625zm-9.8594 8.1094h22.266q12.266 0 18.531-5.5469 6.2812-5.5469 6.2812-16.234 0-10.797-6.2812-16.312-6.2656-5.5156-18.531-5.5156h-12.406v-29.297h-9.8594z"/>
</defs>
<use xlink:href="#an"/>
</g>
</g>
<path d="m192.63 145.91 4.6057-2.9556q2.0199-1.2962 0.72365-3.3161l-4.1816-6.5162q-1.2962-2.0199-3.3161-0.72365l-4.6057 2.9556q-2.0199 1.2962-0.72365 3.3161l4.1816 6.5162q1.2962 2.0199 3.3161 0.72365z" clip-path="url(#a)" fill="#fff" stroke="#fff"/>
<g clip-path="url(#a)">
<g transform="translate(190.43 142.49) rotate(-32.69) scale(.08 -.08)">
<defs>
<path id="o" d="m34.188 63.188-13.391-36.281h26.812zm-5.5781 9.7188h11.188l27.781-72.906h-10.25l-6.6406 18.703h-32.859l-6.6406-18.703h-10.406z"/>
</defs>
<use xlink:href="#o"/>
</g>
</g>
<path d="m405.54 144.59 5.3155 1.3013q2.3312 0.57067 2.9018-1.7605l1.841-7.5204q0.57067-2.3312-1.7605-2.9018l-5.3155-1.3013q-2.3312-0.57067-2.9018 1.7605l-1.841 7.5204q-0.57067 2.3312 1.7605 2.9018z" clip-path="url(#a)" fill="#fff" stroke="#fff"/>
<g clip-path="url(#a)">
<g transform="translate(406.5 140.65) rotate(13.756) scale(.08 -.08)">
<use xlink:href="#o"/>
</g>
</g>
<path d="m50.17 429.03v33.808q0 2.4 2.4 2.4h7.7425q2.4 0 2.4-2.4v-33.808q0-2.4-2.4-2.4h-7.7425q-2.4 0-2.4 2.4z" clip-path="url(#a)" fill="#fff" stroke="#fff"/>
<g clip-path="url(#a)">
<g transform="translate(54.233 429.03) rotate(90) scale(.08 -.08)">
<use xlink:href="#l"/>
<use x="44.083984" xlink:href="#d"/>
<use x="105.607422" xlink:href="#j"/>
<use x="144.970703" xlink:href="#k"/>
<use x="242.382812" xlink:href="#g"/>
<use x="270.166016" xlink:href="#i"/>
<use x="333.544922" xlink:href="#h"/>
<use x="394.824219" xlink:href="#f"/>
</g>
</g>
<path d="m107.85 296.78 1.1223-4.4623q0.58541-2.3275-1.7421-2.9129l-7.5086-1.8886q-2.3275-0.58541-2.9129 1.7421l-1.1223 4.4623q-0.58541 2.3275 1.7421 2.9129l7.5086 1.8886q2.3275 0.58541 2.9129-1.7421z" clip-path="url(#a)" fill="#fff" stroke="#fff"/>
<g clip-path="url(#a)">
<g transform="translate(103.91 295.79) rotate(-75.882) scale(.08 -.08)">
<defs>
<path id="aa" d="m9.8125 72.906h41.891v-8.3125h-32.031v-21.484h28.906v-8.2969h-28.906v-34.812h-9.8594z"/>
</defs>
<use xlink:href="#aa"/>
</g>
</g>
<path d="m125.05 258.26 0.78277-4.994q0.37164-2.3711-1.9994-2.7427l-7.6491-1.1989q-2.3711-0.37164-2.7427 1.9994l-0.78277 4.994q-0.37164 2.3711 1.9994 2.7427l7.6491 1.1989q2.3711 0.37164 2.7427-1.9994z" clip-path="url(#a)" fill="#fff" stroke="#fff"/>
<g clip-path="url(#a)">
<g transform="translate(121.03 257.63) rotate(-81.092) scale(.08 -.08)">
<defs>
<path id="y" d="m9.8125 72.906h46.094v-8.3125h-36.234v-21.578h34.719v-8.2969h-34.719v-26.422h37.109v-8.2969h-46.969z"/>
</defs>
<use xlink:href="#y"/>
</g>
</g>
<path d="m131.71 296.12 0.27725-5.5794q0.11911-2.397-2.2779-2.5162l-7.733-0.38427q-2.397-0.11911-2.5162 2.2779l-0.27725 5.5794q-0.11911 2.397 2.2779 2.5162l7.733 0.38427q2.397 0.11911 2.5162-2.2779z" clip-path="url(#a)" fill="#fff" stroke="#fff"/>
<g clip-path="url(#a)">
<g transform="translate(127.65 295.92) rotate(-87.155) scale(.08 -.08)">
<defs>
<path id="p" d="m64.406 67.281v-10.391q-4.9844 4.6406-10.625 6.9219-5.6406 2.2969-11.984 2.2969-12.5 0-19.141-7.6406t-6.6406-22.094q0-14.406 6.6406-22.047t19.141-7.6406q6.3438 0 11.984 2.2969t10.625 6.9375v-10.312q-5.1719-3.5156-10.969-5.2812-5.7812-1.75-12.219-1.75-16.562 0-26.094 10.125-9.5156 10.141-9.5156 27.672 0 17.578 9.5156 27.703 9.5312 10.141 26.094 10.141 6.5312 0 12.312-1.7344 5.7969-1.7344 10.875-5.2031z"/>
</defs>
<use xlink:href="#p"/>
</g>
</g>
<path d="m172.14 219.6 3.9004 3.2156q1.8518 1.5267 3.3785-0.32514l4.9251-5.9741q1.5267-1.8518-0.32514-3.3785l-3.9004-3.2156q-1.8518-1.5267-3.3785 0.32514l-4.9251 5.9741q-1.5267 1.8518 0.32514 3.3785z" clip-path="url(#a)" fill="#fff" stroke="#fff"/>
<g clip-path="url(#a)">
<g transform="translate(174.72 216.46) rotate(39.503) scale(.08 -.08)">
<use xlink:href="#y"/>
</g>
</g>
<path d="m504.43 223.18 4.785-2.8826q2.0558-1.2385 0.81731-3.2942l-3.9953-6.632q-1.2385-2.0558-3.2942-0.81731l-4.785 2.8826q-2.0558 1.2385-0.81731 3.2942l3.9953 6.632q1.2385 2.0558 3.2942 0.81731z" clip-path="url(#a)" fill="#fff" stroke="#fff"/>
<g clip-path="url(#a)">
<g transform="translate(502.33 219.7) rotate(-31.066) scale(.08 -.08)">
<use xlink:href="#p"/>
</g>
</g>
<path d="m580.14 291.1 0.98535 5.9033q0.39513 2.3672 2.7624 1.9721l7.6368-1.2747q2.3672-0.39513 1.9721-2.7624l-0.98535-5.9033q-0.39513-2.3672-2.7624-1.9721l-7.6368 1.2747q-2.3672 0.39513-1.9721 2.7624z" clip-path="url(#a)" fill="#fff" stroke="#fff"/>
<g clip-path="url(#a)">
<g transform="translate(584.15 290.43) rotate(80.524) scale(.08 -.08)">
<defs>
<path id="ah" d="m9.8125 72.906h13.281l32.328-60.984v60.984h9.5625v-72.906h-13.281l-32.312 60.984v-60.984h-9.5781z"/>
</defs>
<use xlink:href="#ah"/>
</g>
</g>
<path d="m606.16 219.3 4.2329 3.6453q1.8186 1.5661 3.3847-0.25246l5.0524-5.8668q1.5661-1.8186-0.25246-3.3847l-4.2329-3.6453q-1.8186-1.5661-3.3847 0.25246l-5.0524 5.8668q-1.5661 1.8186 0.25246 3.3847z" clip-path="url(#a)" fill="#fff" stroke="#fff"/>
<g clip-path="url(#a)">
<g transform="translate(608.81 216.22) rotate(40.734) scale(.08 -.08)">
<use xlink:href="#p"/>
</g>
</g>
<path d="m404.52 336.92 2.5397-4.9447q1.0965-2.1349-1.0383-3.2314l-6.8872-3.5374q-2.1349-1.0965-3.2314 1.0383l-2.5397 4.9447q-1.0965 2.1349 1.0383 3.2314l6.8872 3.5374q2.1349 1.0965 3.2314-1.0383z" clip-path="url(#a)" fill="#fff" stroke="#fff"/>
<g clip-path="url(#a)">
<g transform="translate(400.91 335.06) rotate(-62.814) scale(.08 -.08)">
<defs>
<path id="x" d="m44.391 34.188q3.1719-1.0781 6.1719-4.5938t6.0312-9.6719l10.016-19.922h-10.609l-9.3125 18.703q-3.625 7.3281-7.0156 9.7188t-9.25 2.3906h-10.75v-30.812h-9.8594v72.906h22.266q12.5 0 18.656-5.2344 6.1562-5.2188 6.1562-15.766 0-6.8906-3.2031-11.438-3.2031-4.5312-9.2969-6.2812zm-24.719 30.609v-25.875h12.406q7.125 0 10.766 3.2969t3.6406 9.6875-3.6406 9.6406-10.766 3.25z"/>
</defs>
<use xlink:href="#x"/>
</g>
</g>
<path d="m433.54 334.81 0.70532-4.5469q0.36789-2.3716-2.0037-2.7395l-7.651-1.1868q-2.3716-0.36789-2.7395 2.0037l-0.70532 4.5469q-0.36789 2.3716 2.0037 2.7395l7.651 1.1868q2.3716 0.36789 2.7395-2.0037z" clip-path="url(#a)" fill="#fff" stroke="#fff"/>
<g clip-path="url(#a)">
<g transform="translate(429.52 334.19) rotate(-81.182) scale(.08 -.08)">
<use xlink:href="#aa"/>
</g>
</g>
<path d="m450.55 330.27 1.2571 5.443q0.54008 2.3384 2.8785 1.7984l7.5439-1.7423q2.3384-0.54008 1.7984-2.8785l-1.2571-5.443q-0.54008-2.3384-2.8785-1.7984l-7.5439 1.7423q-2.3384 0.54008-1.7984 2.8785z" clip-path="url(#a)" fill="#fff" stroke="#fff"/>
<g clip-path="url(#a)">
<g transform="translate(454.51 329.35) rotate(76.995) scale(.08 -.08)">
<use xlink:href="#p"/>
</g>
</g>
<path d="m466.76 295.57 3.325 3.8075q1.5787 1.8077 3.3864 0.22906l5.8318-5.0928q1.8077-1.5787 0.22906-3.3864l-3.325-3.8075q-1.5787-1.8077-3.3864-0.22906l-5.8318 5.0928q-1.8077 1.5787-0.22906 3.3864z" clip-path="url(#a)" fill="#fff" stroke="#fff"/>
<g clip-path="url(#a)">
<g transform="translate(469.82 292.9) rotate(48.87) scale(.08 -.08)">
<use xlink:href="#y"/>
</g>
</g>
<path d="m599.78 429.03v33.808q0 2.4 2.4 2.4h7.7425q2.4 0 2.4-2.4v-33.808q0-2.4-2.4-2.4h-7.7425q-2.4 0-2.4 2.4z" clip-path="url(#a)" fill="#fff" stroke="#fff"/>
<g clip-path="url(#a)">
<g transform="translate(603.85 429.03) rotate(90) scale(.08 -.08)">
<use xlink:href="#l"/>
<use x="44.083984" xlink:href="#d"/>
<use x="105.607422" xlink:href="#j"/>
<use x="144.970703" xlink:href="#k"/>
<use x="242.382812" xlink:href="#g"/>
<use x="270.166016" xlink:href="#i"/>
<use x="333.544922" xlink:href="#h"/>
<use x="394.824219" xlink:href="#f"/>
</g>
</g>
<path d="m661.01 330.14 0.61822 4.5595q0.32246 2.3782 2.7007 2.0558l7.6723-1.0403q2.3782-0.32246 2.0558-2.7007l-0.61822-4.5595q-0.32246-2.3782-2.7007-2.0558l-7.6723 1.0403q-2.3782 0.32246-2.0558 2.7007z" clip-path="url(#a)" fill="#fff" stroke="#fff"/>
<g clip-path="url(#a)">
<g transform="translate(665.04 329.59) rotate(82.278) scale(.08 -.08)">
<use xlink:href="#aa"/>
</g>
</g>
<path d="m698.79 332.57 2.9844 4.7223q1.2822 2.0288 3.311 0.74665l6.545-4.1363q2.0288-1.2822 0.74665-3.311l-2.9844-4.7223q-1.2822-2.0288-3.311-0.74665l-6.545 4.1363q-2.0288 1.2822-0.74665 3.311z" clip-path="url(#a)" fill="#fff" stroke="#fff"/>
<g clip-path="url(#a)">
<g transform="translate(702.22 330.4) rotate(57.708) scale(.08 -.08)">
<use xlink:href="#p"/>
</g>
</g>
<path d="m741.65 298.11 4.6434 1.9979q2.2046 0.94855 3.1531-1.2561l3.0601-7.1121q0.94855-2.2046-1.2561-3.1531l-4.6434-1.9979q-2.2046-0.94855-3.1531 1.2561l-3.0601 7.1121q-0.94855 2.2046 1.2561 3.1531z" clip-path="url(#a)" fill="#fff" stroke="#fff"/>
<g clip-path="url(#a)">
<g transform="translate(743.26 294.38) rotate(23.28) scale(.08 -.08)">
<use xlink:href="#y"/>
</g>
</g>
<path d="m509.4 338.43 4.937-2.5545q2.1316-1.1029 1.0287-3.2345l-3.558-6.8765q-1.1029-2.1316-3.2345-1.0287l-4.937 2.5545q-2.1316 1.1029-1.0287 3.2345l3.558 6.8765q1.1029 2.1316 3.2345 1.0287z" clip-path="url(#a)" fill="#fff" stroke="#fff"/>
<g clip-path="url(#a)">
<g transform="translate(507.54 334.82) rotate(-27.358) scale(.08 -.08)">
<use xlink:href="#x"/>
</g>
</g>
<path d="m671.65 429.03v33.808q0 2.4 2.4 2.4h7.7425q2.4 0 2.4-2.4v-33.808q0-2.4-2.4-2.4h-7.7425q-2.4 0-2.4 2.4z" clip-path="url(#a)" fill="#fff" stroke="#fff"/>
<g clip-path="url(#a)">
<g transform="translate(675.72 429.03) rotate(90) scale(.08 -.08)">
<use xlink:href="#l"/>
<use x="44.083984" xlink:href="#d"/>
<use x="105.607422" xlink:href="#j"/>
<use x="144.970703" xlink:href="#k"/>
<use x="242.382812" xlink:href="#g"/>
<use x="270.166016" xlink:href="#i"/>
<use x="333.544922" xlink:href="#h"/>
<use x="394.824219" xlink:href="#f"/>
</g>
</g>
<path d="m747.75 429.03v33.808q0 2.4 2.4 2.4h7.7425q2.4 0 2.4-2.4v-33.808q0-2.4-2.4-2.4h-7.7425q-2.4 0-2.4 2.4z" clip-path="url(#a)" fill="#fff" stroke="#fff"/>
<g clip-path="url(#a)">
<g transform="translate(751.82 429.03) rotate(90) scale(.08 -.08)">
<use xlink:href="#l"/>
<use x="44.083984" xlink:href="#d"/>
<use x="105.607422" xlink:href="#j"/>
<use x="144.970703" xlink:href="#k"/>
<use x="242.382812" xlink:href="#g"/>
<use x="270.166016" xlink:href="#i"/>
<use x="333.544922" xlink:href="#h"/>
<use x="394.824219" xlink:href="#f"/>
</g>
</g>
<path d="m797.18 376.45 3.9967-3.7383q1.7528-1.6395 0.1133-3.3922l-5.289-5.6545q-1.6395-1.7528-3.3922-0.1133l-3.9967 3.7383q-1.7528 1.6395-0.1133 3.3922l5.289 5.6545q1.6395 1.7528 3.3922 0.1133z" clip-path="url(#a)" fill="#fff" stroke="#fff"/>
<g clip-path="url(#a)">
<g transform="translate(794.4 373.49) rotate(-43.087) scale(.08 -.08)">
<use xlink:href="#o"/>
</g>
</g>
<path d="m841.28 372.66 0.093601-5.0779q0.044231-2.3996-2.3554-2.4438l-7.7412-0.14269q-2.3996-0.044232-2.4438 2.3554l-0.0936 5.0779q-0.044232 2.3996 2.3554 2.4438l7.7412 0.14269q2.3996 0.044231 2.4438-2.3554z" clip-path="url(#a)" fill="#fff" stroke="#fff"/>
<g clip-path="url(#a)">
<g transform="translate(837.22 372.58) rotate(-88.944) scale(.08 -.08)">
<defs>
<path id="v" d="m53.516 70.516v-9.625q-5.6094 2.6875-10.594 4-4.9844 1.3281-9.625 1.3281-8.0469 0-12.422-3.125t-4.375-8.8906q0-4.8438 2.9062-7.3125 2.9062-2.4531 11.016-3.9688l5.9531-1.2188q11.031-2.1094 16.281-7.4062t5.25-14.172q0-10.609-7.1094-16.078-7.0938-5.4688-20.812-5.4688-5.1719 0-11.016 1.1719-5.8281 1.1719-12.078 3.4688v10.156q6-3.3594 11.766-5.0781 5.7656-1.7031 11.328-1.7031 8.4375 0 13.031 3.3125 4.5938 3.3281 4.5938 9.4844 0 5.3594-3.2969 8.3906t-10.812 4.5469l-6.0156 1.1719q-11.031 2.1875-15.969 6.875-4.9219 4.6875-4.9219 13.047 0 9.6719 6.8125 15.234t18.766 5.5625q5.1406 0 10.453-0.9375 5.3281-0.92188 10.891-2.7656z"/>
</defs>
<use xlink:href="#v"/>
</g>
</g>
<path d="m870.94 372.64 4.3099 3.963q1.7667 1.6245 3.3911-0.14221l5.2406-5.6994q1.6245-1.7667-0.14221-3.3911l-4.3099-3.963q-1.7667-1.6245-3.3911 0.14221l-5.2406 5.6994q-1.6245 1.7667 0.14221 3.3911z" clip-path="url(#a)" fill="#fff" stroke="#fff"/>
<g clip-path="url(#a)">
<g transform="translate(873.69 369.65) rotate(42.599) scale(.08 -.08)">
<defs>
<path id="am" d="m8.6875 72.906h9.9219v-44.297q0-11.719 4.2344-16.875 4.25-5.1406 13.781-5.1406 9.4688 0 13.719 5.1406 4.25 5.1562 4.25 16.875v44.297h9.9062v-45.516q0-14.25-7.0625-21.531-7.0469-7.2812-20.812-7.2812-13.828 0-20.891 7.2812-7.0469 7.2812-7.0469 21.531z"/>
</defs>
<use xlink:href="#am"/>
</g>
</g>
<path d="m828.08 429.03v33.808q0 2.4 2.4 2.4h7.7425q2.4 0 2.4-2.4v-33.808q0-2.4-2.4-2.4h-7.7425q-2.4 0-2.4 2.4z" clip-path="url(#a)" fill="#fff" stroke="#fff"/>
<g clip-path="url(#a)">
<g transform="translate(832.15 429.03) rotate(90) scale(.08 -.08)">
<use xlink:href="#l"/>
<use x="44.083984" xlink:href="#d"/>
<use x="105.607422" xlink:href="#j"/>
<use x="144.970703" xlink:href="#k"/>
<use x="242.382812" xlink:href="#g"/>
<use x="270.166016" xlink:href="#i"/>
<use x="333.544922" xlink:href="#h"/>
<use x="394.824219" xlink:href="#f"/>
</g>
</g>
<path d="m354.57 429.03v33.808q0 2.4 2.4 2.4h7.7425q2.4 0 2.4-2.4v-33.808q0-2.4-2.4-2.4h-7.7425q-2.4 0-2.4 2.4z" clip-path="url(#a)" fill="#fff" stroke="#fff"/>
<g clip-path="url(#a)">
<g transform="translate(358.63 429.03) rotate(90) scale(.08 -.08)">
<use xlink:href="#l"/>
<use x="44.083984" xlink:href="#d"/>
<use x="105.607422" xlink:href="#j"/>
<use x="144.970703" xlink:href="#k"/>
<use x="242.382812" xlink:href="#g"/>
<use x="270.166016" xlink:href="#i"/>
<use x="333.544922" xlink:href="#h"/>
<use x="394.824219" xlink:href="#f"/>
</g>
</g>
<path d="m409.53 429.03v33.808q0 2.4 2.4 2.4h7.7425q2.4 0 2.4-2.4v-33.808q0-2.4-2.4-2.4h-7.7425q-2.4 0-2.4 2.4z" clip-path="url(#a)" fill="#fff" stroke="#fff"/>
<g clip-path="url(#a)">
<g transform="translate(413.6 429.03) rotate(90) scale(.08 -.08)">
<use xlink:href="#l"/>
<use x="44.083984" xlink:href="#d"/>
<use x="105.607422" xlink:href="#j"/>
<use x="144.970703" xlink:href="#k"/>
<use x="242.382812" xlink:href="#g"/>
<use x="270.166016" xlink:href="#i"/>
<use x="333.544922" xlink:href="#h"/>
<use x="394.824219" xlink:href="#f"/>
</g>
</g>
<path d="m468.72 429.03v33.808q0 2.4 2.4 2.4h7.7425q2.4 0 2.4-2.4v-33.808q0-2.4-2.4-2.4h-7.7425q-2.4 0-2.4 2.4z" clip-path="url(#a)" fill="#fff" stroke="#fff"/>
<g clip-path="url(#a)">
<g transform="translate(472.78 429.03) rotate(90) scale(.08 -.08)">
<use xlink:href="#l"/>
<use x="44.083984" xlink:href="#d"/>
<use x="105.607422" xlink:href="#j"/>
<use x="144.970703" xlink:href="#k"/>
<use x="242.382812" xlink:href="#g"/>
<use x="270.166016" xlink:href="#i"/>
<use x="333.544922" xlink:href="#h"/>
<use x="394.824219" xlink:href="#f"/>
</g>
</g>
<path d="m495.59 374.94 2.0965-5.055q0.91944-2.2169-1.2975-3.1363l-7.1518-2.9661q-2.2169-0.91944-3.1363 1.2975l-2.0965 5.055q-0.91944 2.2169 1.2975 3.1363l7.1518 2.9661q2.2169 0.91944 3.1363-1.2975z" clip-path="url(#a)" fill="#fff" stroke="#fff"/>
<g clip-path="url(#a)">
<g transform="translate(491.84 373.38) rotate(-67.474) scale(.08 -.08)">
<use xlink:href="#o"/>
</g>
</g>
<path d="m515.79 370.06 1.9457 4.6913q0.91944 2.2169 3.1363 1.2975l7.1518-2.9661q2.2169-0.91944 1.2975-3.1363l-1.9457-4.6913q-0.91944-2.2169-3.1363-1.2975l-7.1518 2.9661q-2.2169 0.91944-1.2975 3.1363z" clip-path="url(#a)" fill="#fff" stroke="#fff"/>
<g clip-path="url(#a)">
<g transform="translate(519.54 368.51) rotate(67.474) scale(.08 -.08)">
<use xlink:href="#v"/>
</g>
</g>
<path d="m532.14 429.03v33.808q0 2.4 2.4 2.4h7.7425q2.4 0 2.4-2.4v-33.808q0-2.4-2.4-2.4h-7.7425q-2.4 0-2.4 2.4z" clip-path="url(#a)" fill="#fff" stroke="#fff"/>
<g clip-path="url(#a)">
<g transform="translate(536.2 429.03) rotate(90) scale(.08 -.08)">
<use xlink:href="#l"/>
<use x="44.083984" xlink:href="#d"/>
<use x="105.607422" xlink:href="#j"/>
<use x="144.970703" xlink:href="#k"/>
<use x="242.382812" xlink:href="#g"/>
<use x="270.166016" xlink:href="#i"/>
<use x="333.544922" xlink:href="#h"/>
<use x="394.824219" xlink:href="#f"/>
</g>
</g>
<path d="m67.081 429.03v33.808q0 2.4 2.4 2.4h7.7425q2.4 0 2.4-2.4v-33.808q0-2.4-2.4-2.4h-7.7425q-2.4 0-2.4 2.4z" clip-path="url(#a)" fill="#fff" stroke="#fff"/>
<g clip-path="url(#a)">
<g transform="translate(71.145 429.03) rotate(90) scale(.08 -.08)">
<use xlink:href="#l"/>
<use x="44.083984" xlink:href="#d"/>
<use x="105.607422" xlink:href="#j"/>
<use x="144.970703" xlink:href="#k"/>
<use x="242.382812" xlink:href="#g"/>
<use x="270.166016" xlink:href="#i"/>
<use x="333.544922" xlink:href="#h"/>
<use x="394.824219" xlink:href="#f"/>
</g>
</g>
<path d="m106.88 368.33 0.89563 5.3987q0.39278 2.3676 2.7604 1.9749l7.6381-1.2671q2.3676-0.39278 1.9749-2.7604l-0.89563-5.3987q-0.39278-2.3676-2.7604-1.9749l-7.6381 1.2671q-2.3676 0.39278-1.9749 2.7604z" clip-path="url(#a)" fill="#fff" stroke="#fff"/>
<g clip-path="url(#a)">
<g transform="translate(110.89 367.67) rotate(80.581) scale(.08 -.08)">
<use xlink:href="#o"/>
</g>
</g>
<path d="m106.6 373.54 0.83119-5.0103q0.39278-2.3676-1.9749-2.7604l-7.6381-1.2671q-2.3676-0.39278-2.7604 1.9749l-0.83119 5.0103q-0.39278 2.3676 1.9749 2.7604l7.6381 1.2671q2.3676 0.39278 2.7604-1.9749z" clip-path="url(#a)" fill="#fff" stroke="#fff"/>
<g clip-path="url(#a)">
<g transform="translate(102.59 372.87) rotate(-80.581) scale(.08 -.08)">
<use xlink:href="#v"/>
</g>
</g>
<path d="m113.59 429.03v33.808q0 2.4 2.4 2.4h7.7425q2.4 0 2.4-2.4v-33.808q0-2.4-2.4-2.4h-7.7425q-2.4 0-2.4 2.4z" clip-path="url(#a)" fill="#fff" stroke="#fff"/>
<g clip-path="url(#a)">
<g transform="translate(117.65 429.03) rotate(90) scale(.08 -.08)">
<use xlink:href="#l"/>
<use x="44.083984" xlink:href="#d"/>
<use x="105.607422" xlink:href="#j"/>
<use x="144.970703" xlink:href="#k"/>
<use x="242.382812" xlink:href="#g"/>
<use x="270.166016" xlink:href="#i"/>
<use x="333.544922" xlink:href="#h"/>
<use x="394.824219" xlink:href="#f"/>
</g>
</g>
<path d="m198.9 299.37 3.3829-4.4455q1.4534-1.9099-0.45651-3.3633l-6.1614-4.6887q-1.9099-1.4534-3.3633 0.45651l-3.3829 4.4455q-1.4534 1.9099 0.45651 3.3633l6.1614 4.6887q1.9099 1.4534 3.3633-0.45651z" clip-path="url(#a)" fill="#fff" stroke="#fff"/>
<g clip-path="url(#a)">
<g transform="translate(195.67 296.91) rotate(-52.73) scale(.08 -.08)">
<use xlink:href="#p"/>
</g>
</g>
<path d="m229.29 334.71 0.1375-5.9834q0.05514-2.3994-2.3442-2.4545l-7.7405-0.17788q-2.3994-0.05514-2.4545 2.3442l-0.1375 5.9834q-0.05514 2.3994 2.3442 2.4545l7.7405 0.17788q2.3994 0.05514 2.4545-2.3442z" clip-path="url(#a)" fill="#fff" stroke="#fff"/>
<g clip-path="url(#a)">
<g transform="translate(225.22 334.62) rotate(-88.684) scale(.08 -.08)">
<use xlink:href="#ah"/>
</g>
</g>
<path d="m249.22 295.12 3.5077 4.3476q1.507 1.8679 3.3749 0.36084l6.0258-4.8617q1.8679-1.507 0.36084-3.3749l-3.5077-4.3476q-1.507-1.8679-3.3749-0.36084l-6.0258 4.8617q-1.8679 1.507-0.36084 3.3749z" clip-path="url(#a)" fill="#fff" stroke="#fff"/>
<g clip-path="url(#a)">
<g transform="translate(252.38 292.56) rotate(51.103) scale(.08 -.08)">
<use xlink:href="#p"/>
</g>
</g>
<path d="m163.43 374.07 1.2006-5.4276q0.51834-2.3434-1.825-2.8617l-7.5598-1.6722q-2.3434-0.51834-2.8617 1.825l-1.2006 5.4276q-0.51834 2.3434 1.825 2.8617l7.5598 1.6722q2.3434 0.51834 2.8617-1.825z" clip-path="url(#a)" fill="#fff" stroke="#fff"/>
<g clip-path="url(#a)">
<g transform="translate(159.46 373.2) rotate(-77.527) scale(.08 -.08)">
<use xlink:href="#x"/>
</g>
</g>
<path d="m167.14 364.92 2.8609 12.934q0.51834 2.3434 2.8617 1.825l7.8112-1.7278q2.3434-0.51834 1.825-2.8617l-2.8609-12.934q-0.51834-2.3434-2.8617-1.825l-7.8112 1.7278q-2.3434 0.51834-1.825 2.8617z" clip-path="url(#a)" fill="#fff" stroke="#fff"/>
<g clip-path="url(#a)">
<g transform="translate(171.32 363.99) rotate(77.527) scale(.08 -.08)">
<defs>
<path id="aj" d="m21 76.422v-100h-8.2969v100z"/>
</defs>
<use xlink:href="#o"/>
<use x="68.408203" xlink:href="#aj"/>
<use x="102.099609" xlink:href="#v"/>
</g>
</g>
<path d="m215.05 429.03v33.808q0 2.4 2.4 2.4h7.7425q2.4 0 2.4-2.4v-33.808q0-2.4-2.4-2.4h-7.7425q-2.4 0-2.4 2.4z" clip-path="url(#a)" fill="#fff" stroke="#fff"/>
<g clip-path="url(#a)">
<g transform="translate(219.12 429.03) rotate(90) scale(.08 -.08)">
<use xlink:href="#l"/>
<use x="44.083984" xlink:href="#d"/>
<use x="105.607422" xlink:href="#j"/>
<use x="144.970703" xlink:href="#k"/>
<use x="242.382812" xlink:href="#g"/>
<use x="270.166016" xlink:href="#i"/>
<use x="333.544922" xlink:href="#h"/>
<use x="394.824219" xlink:href="#f"/>
</g>
</g>
<path d="m280.42 374.49 1.6175-5.3182q0.69836-2.2961-1.5978-2.9945l-7.4075-2.2529q-2.2961-0.69836-2.9945 1.5978l-1.6175 5.3182q-0.69836 2.2961 1.5978 2.9945l7.4075 2.2529q2.2961 0.69836 2.9945-1.5978z" clip-path="url(#a)" fill="#fff" stroke="#fff"/>
<g clip-path="url(#a)">
<g transform="translate(276.53 373.31) rotate(-73.083) scale(.08 -.08)">
<use xlink:href="#x"/>
</g>
</g>
<path d="m290.43 365.53 3.8544 12.673q0.69836 2.2961 2.9945 1.5978l7.6538-2.3279q2.2961-0.69836 1.5978-2.9945l-3.8544-12.673q-0.69836-2.2961-2.9945-1.5978l-7.6538 2.3279q-2.2961 0.69836-1.5978 2.9945z" clip-path="url(#a)" fill="#fff" stroke="#fff"/>
<g clip-path="url(#a)">
<g transform="translate(294.53 364.28) rotate(73.083) scale(.08 -.08)">
<use xlink:href="#o"/>
<use x="68.408203" xlink:href="#aj"/>
<use x="102.099609" xlink:href="#v"/>
</g>
</g>
<path d="m257.33 429.03v33.808q0 2.4 2.4 2.4h7.7425q2.4 0 2.4-2.4v-33.808q0-2.4-2.4-2.4h-7.7425q-2.4 0-2.4 2.4z" clip-path="url(#a)" fill="#fff" stroke="#fff"/>
<g clip-path="url(#a)">
<g transform="translate(261.39 429.03) rotate(90) scale(.08 -.08)">
<use xlink:href="#l"/>
<use x="44.083984" xlink:href="#d"/>
<use x="105.607422" xlink:href="#j"/>
<use x="144.970703" xlink:href="#k"/>
<use x="242.382812" xlink:href="#g"/>
<use x="270.166016" xlink:href="#i"/>
<use x="333.544922" xlink:href="#h"/>
<use x="394.824219" xlink:href="#f"/>
</g>
</g>
<path d="m303.84 429.03v33.808q0 2.4 2.4 2.4h7.7425q2.4 0 2.4-2.4v-33.808q0-2.4-2.4-2.4h-7.7425q-2.4 0-2.4 2.4z" clip-path="url(#a)" fill="#fff" stroke="#fff"/>
<g clip-path="url(#a)">
<g transform="translate(307.9 429.03) rotate(90) scale(.08 -.08)">
<use xlink:href="#l"/>
<use x="44.083984" xlink:href="#d"/>
<use x="105.607422" xlink:href="#j"/>
<use x="144.970703" xlink:href="#k"/>
<use x="242.382812" xlink:href="#g"/>
<use x="270.166016" xlink:href="#i"/>
<use x="333.544922" xlink:href="#h"/>
<use x="394.824219" xlink:href="#f"/>
</g>
</g>
<path d="m143.18 429.03v33.808q0 2.4 2.4 2.4h7.7425q2.4 0 2.4-2.4v-33.808q0-2.4-2.4-2.4h-7.7425q-2.4 0-2.4 2.4z" clip-path="url(#a)" fill="#fff" stroke="#fff"/>
<g clip-path="url(#a)">
<g transform="translate(147.24 429.03) rotate(90) scale(.08 -.08)">
<use xlink:href="#l"/>
<use x="44.083984" xlink:href="#d"/>
<use x="105.607422" xlink:href="#j"/>
<use x="144.970703" xlink:href="#k"/>
<use x="242.382812" xlink:href="#g"/>
<use x="270.166016" xlink:href="#i"/>
<use x="333.544922" xlink:href="#h"/>
<use x="394.824219" xlink:href="#f"/>
</g>
</g>
<path d="m177 429.03v33.808q0 2.4 2.4 2.4h7.7425q2.4 0 2.4-2.4v-33.808q0-2.4-2.4-2.4h-7.7425q-2.4 0-2.4 2.4z" clip-path="url(#a)" fill="#fff" stroke="#fff"/>
<g clip-path="url(#a)">
<g transform="translate(181.07 429.03) rotate(90) scale(.08 -.08)">
<use xlink:href="#l"/>
<use x="44.083984" xlink:href="#d"/>
<use x="105.607422" xlink:href="#j"/>
<use x="144.970703" xlink:href="#k"/>
<use x="242.382812" xlink:href="#g"/>
<use x="270.166016" xlink:href="#i"/>
<use x="333.544922" xlink:href="#h"/>
<use x="394.824219" xlink:href="#f"/>
</g>
</g>
<path d="m88.22 429.03v33.808q0 2.4 2.4 2.4h7.7425q2.4 0 2.4-2.4v-33.808q0-2.4-2.4-2.4h-7.7425q-2.4 0-2.4 2.4z" clip-path="url(#a)" fill="#fff" stroke="#fff"/>
<g clip-path="url(#a)">
<g transform="translate(92.283 429.03) rotate(90) scale(.08 -.08)">
<use xlink:href="#l"/>
<use x="44.083984" xlink:href="#d"/>
<use x="105.607422" xlink:href="#j"/>
<use x="144.970703" xlink:href="#k"/>
<use x="242.382812" xlink:href="#g"/>
<use x="270.166016" xlink:href="#i"/>
<use x="333.544922" xlink:href="#h"/>
<use x="394.824219" xlink:href="#f"/>
</g>
</g>
<path d="m912.64 429.03v33.808q0 2.4 2.4 2.4h7.7425q2.4 0 2.4-2.4v-33.808q0-2.4-2.4-2.4h-7.7425q-2.4 0-2.4 2.4z" clip-path="url(#a)" fill="#fff" stroke="#fff"/>
<g clip-path="url(#a)">
<g transform="translate(916.7 429.03) rotate(90) scale(.08 -.08)">
<use xlink:href="#l"/>
<use x="44.083984" xlink:href="#d"/>
<use x="105.607422" xlink:href="#j"/>
<use x="144.970703" xlink:href="#k"/>
<use x="242.382812" xlink:href="#g"/>
<use x="270.166016" xlink:href="#i"/>
<use x="333.544922" xlink:href="#h"/>
<use x="394.824219" xlink:href="#f"/>
</g>
</g>
<defs>
<path id="b" d="m0 8.6603c2.2967 0 4.4997-0.9125 6.1237-2.5365 1.624-1.624 2.5365-3.827 2.5365-6.1237s-0.9125-4.4997-2.5365-6.1237c-1.624-1.624-3.827-2.5365-6.1237-2.5365s-4.4997 0.9125-6.1237 2.5365c-1.624 1.624-2.5365 3.827-2.5365 6.1237s0.9125 4.4997 2.5365 6.1237c1.624 1.624 3.827 2.5365 6.1237 2.5365z"/>
</defs>
<g clip-path="url(#a)" fill="#ffffff" stroke="#ffffff">
<use x="43.757576" y="483.636364" xlink:href="#b"/>
<use x="56.440931" y="483.636364" xlink:href="#b"/>
<use x="73.352071" y="483.636364" xlink:href="#b"/>
<use x="94.490997" y="483.636364" xlink:href="#b"/>
<use x="119.857708" y="483.636364" xlink:href="#b"/>
<use x="149.452203" y="483.636364" xlink:href="#b"/>
<use x="183.274484" y="483.636364" xlink:href="#b"/>
<use x="221.32455" y="483.636364" xlink:href="#b"/>
<use x="263.602401" y="483.636364" xlink:href="#b"/>
<use x="310.108037" y="483.636364" xlink:href="#b"/>
<use x="360.841458" y="483.636364" xlink:href="#b"/>
<use x="415.802664" y="483.636364" xlink:href="#b"/>
<use x="474.991656" y="483.636364" xlink:href="#b"/>
<use x="538.408432" y="483.636364" xlink:href="#b"/>
<use x="606.052994" y="483.636364" xlink:href="#b"/>
<use x="677.92534" y="483.636364" xlink:href="#b"/>
<use x="754.025472" y="483.636364" xlink:href="#b"/>
<use x="834.353389" y="483.636364" xlink:href="#b"/>
<use x="918.909091" y="483.636364" xlink:href="#b"/>
<use x="147.768918" y="23.030303" xlink:href="#b"/>
<use x="43.757576" y="408.23193" xlink:href="#b"/>
<use x="251.780261" y="100.497162" xlink:href="#b"/>
<use x="56.440931" y="408.23193" xlink:href="#b"/>
<use x="131.307959" y="177.8082" xlink:href="#b"/>
<use x="567.591893" y="177.8082" xlink:href="#b"/>
<use x="439.583955" y="254.924153" xlink:href="#b"/>
<use x="606.052994" y="408.23193" xlink:href="#b"/>
<use x="657.13873" y="254.924153" xlink:href="#b"/>
<use x="677.92534" y="408.23193" xlink:href="#b"/>
<use x="754.025472" y="408.23193" xlink:href="#b"/>
<use x="835.762651" y="331.778537" xlink:href="#b"/>
<use x="834.353389" y="408.23193" xlink:href="#b"/>
<use x="360.841458" y="408.23193" xlink:href="#b"/>
<use x="415.802664" y="408.23193" xlink:href="#b"/>
<use x="474.991656" y="408.23193" xlink:href="#b"/>
<use x="506.700044" y="331.778537" xlink:href="#b"/>
<use x="538.408432" y="408.23193" xlink:href="#b"/>
<use x="73.352071" y="408.23193" xlink:href="#b"/>
<use x="107.174352" y="331.778537" xlink:href="#b"/>
<use x="119.857708" y="408.23193" xlink:href="#b"/>
<use x="224.847704" y="254.924153" xlink:href="#b"/>
<use x="166.363344" y="331.778537" xlink:href="#b"/>
<use x="221.32455" y="408.23193" xlink:href="#b"/>
<use x="286.855219" y="331.778537" xlink:href="#b"/>
<use x="263.602401" y="408.23193" xlink:href="#b"/>
<use x="310.108037" y="408.23193" xlink:href="#b"/>
<use x="149.452203" y="408.23193" xlink:href="#b"/>
<use x="183.274484" y="408.23193" xlink:href="#b"/>
<use x="94.490997" y="408.23193" xlink:href="#b"/>
<use x="918.909091" y="408.23193" xlink:href="#b"/>
</g>
<g clip-path="url(#a)">
<g transform="translate(31.229 486.4) scale(.1 -.1)">
<defs>
<path id="z" d="m30.609 48.391q-7.2188 0-11.422-5.6406t-4.2031-15.453 4.1719-15.453q4.1875-5.6406 11.453-5.6406 7.1875 0 11.375 5.6562 4.2031 5.6719 4.2031 15.438 0 9.7188-4.2031 15.406-4.1875 5.6875-11.375 5.6875zm0 7.6094q11.719 0 18.406-7.625 6.7031-7.6094 6.7031-21.078 0-13.422-6.7031-21.078-6.6875-7.6406-18.406-7.6406-11.766 0-18.438 7.6406-6.6562 7.6562-6.6562 21.078 0 13.469 6.6562 21.078 6.6719 7.625 18.438 7.625z"/>
<path id="n" d="m44.281 53.078v-8.5q-3.7969 1.9531-7.9062 2.9219-4.0938 0.98438-8.5 0.98438-6.6875 0-10.031-2.0469t-3.3438-6.1562q0-3.125 2.3906-4.9062t9.625-3.3906l3.0781-0.6875q9.5625-2.0469 13.594-5.7812t4.0312-10.422q0-7.625-6.0312-12.078-6.0312-4.4375-16.578-4.4375-4.3906 0-9.1562 0.85938t-10.031 2.5625v9.2812q4.9844-2.5938 9.8125-3.8906 4.8281-1.2812 9.5781-1.2812 6.3438 0 9.75 2.1719 3.4219 2.1719 3.4219 6.125 0 3.6562-2.4688 5.6094-2.4531 1.9531-10.812 3.7656l-3.125 0.73438q-8.3438 1.75-12.062 5.3906-3.7031 3.6406-3.7031 9.9844 0 7.7188 5.4688 11.906 5.4688 4.2031 15.531 4.2031 4.9688 0 9.3594-0.73438 4.4062-0.71875 8.1094-2.1875z"/>
</defs>
<use xlink:href="#o"/>
<use x="68.408203" xlink:href="#f"/>
<use x="96.191406" xlink:href="#z"/>
<use x="157.373047" xlink:href="#j"/>
<use x="198.486328" xlink:href="#n"/>
</g>
</g>
<g clip-path="url(#a)">
<g transform="translate(41.138 486.4) scale(.1 -.1)">
<defs>
<path id="s" d="m56.203 29.594v-4.3906h-41.312q0.59375-9.2812 5.5938-14.141t13.938-4.8594q5.1719 0 10.031 1.2656t9.6562 3.8125v-8.5q-4.8438-2.0469-9.9219-3.125t-10.297-1.0781q-13.094 0-20.734 7.6094-7.6406 7.625-7.6406 20.625 0 13.422 7.25 21.297 7.25 7.8906 19.562 7.8906 11.031 0 17.453-7.1094 6.4219-7.0938 6.4219-19.297zm-8.9844 2.6406q-0.09375 7.3594-4.125 11.75-4.0312 4.4062-10.672 4.4062-7.5156 0-12.031-4.25t-5.2031-11.969zm-8.6875 47.75h9.7188l-15.906-18.359h-7.4844z"/>
<path id="u" d="m48.781 52.594v-8.4062q-3.8125 2.1094-7.6406 3.1562t-7.7344 1.0469q-8.75 0-13.594-5.5469-4.8281-5.5312-4.8281-15.547t4.8281-15.562q4.8438-5.5312 13.594-5.5312 3.9062 0 7.7344 1.0469t7.6406 3.1562v-8.3125q-3.7656-1.75-7.7969-2.625-4.0156-0.89062-8.5625-0.89062-12.359 0-19.641 7.7656-7.2656 7.7656-7.2656 20.953 0 13.375 7.3438 21.031 7.3594 7.6719 20.156 7.6719 4.1406 0 8.0938-0.85938 3.9531-0.84375 7.6719-2.5469z"/>
<path id="q" d="m18.312 70.219v-15.531h18.5v-6.9844h-18.5v-29.688q0-6.6875 1.8281-8.5938t7.4531-1.9062h9.2188v-7.5156h-9.2188q-10.406 0-14.359 3.875-3.9531 3.8906-3.9531 14.141v29.688h-6.5938v6.9844h6.5938v15.531z"/>
</defs>
<use xlink:href="#s"/>
<use x="61.523438" xlink:href="#u"/>
<use x="116.503906" xlink:href="#f"/>
<use x="144.287109" xlink:href="#h"/>
<use x="205.566406" xlink:href="#q"/>
<use x="244.775391" xlink:href="#h"/>
</g>
</g>
<g clip-path="url(#a)">
<g transform="translate(70.589 486.4) scale(.1 -.1)">
<defs>
<path id="aq" d="m17.922 72.906v-27.109h-8.2969v27.109z"/>
</defs>
<use xlink:href="#f"/>
<use x="27.783203" xlink:href="#aq"/>
</g>
</g>
<g clip-path="url(#a)">
<g transform="translate(62.796 486.4) scale(.1 -.1)">
<defs>
<path id="al" d="m48.688 27.297q0 9.9062-4.0781 15.547t-11.203 5.6406q-7.1406 0-11.219-5.6406t-4.0781-15.547 4.0781-15.547 11.219-5.6406q7.125 0 11.203 5.6406t4.0781 15.547zm-30.578 19.094q2.8438 4.875 7.1562 7.2344 4.3281 2.375 10.328 2.375 9.9688 0 16.188-7.9062 6.2344-7.9062 6.2344-20.797t-6.2344-20.812q-6.2188-7.9062-16.188-7.9062-6 0-10.328 2.375-4.3125 2.375-7.1562 7.25v-8.2031h-9.0312v75.984h9.0312z"/>
</defs>
<use xlink:href="#g"/>
<use x="27.783203" xlink:href="#i"/>
<use x="91.162109" xlink:href="#q"/>
<use x="130.371094" xlink:href="#d"/>
<use x="191.894531" xlink:href="#j"/>
<use x="231.257812" xlink:href="#k"/>
<use x="328.669922" xlink:href="#g"/>
<use x="356.453125" xlink:href="#i"/>
<use x="419.832031" xlink:href="#h"/>
<use x="481.111328" xlink:href="#al"/>
<use x="544.587891" xlink:href="#f"/>
<use x="572.371094" xlink:href="#d"/>
</g>
</g>
<g clip-path="url(#a)">
<g transform="translate(93.48 486.6) scale(.1 -.1)">
<defs>
<path id="at" d="m18.109 8.2031v-29h-9.0312v75.484h9.0312v-8.2969q2.8438 4.875 7.1562 7.2344 4.3281 2.375 10.328 2.375 9.9688 0 16.188-7.9062 6.2344-7.9062 6.2344-20.797t-6.2344-20.812q-6.2188-7.9062-16.188-7.9062-6 0-10.328 2.375-4.3125 2.375-7.1562 7.25zm30.578 19.094q0 9.9062-4.0781 15.547t-11.203 5.6406q-7.1406 0-11.219-5.6406t-4.0781-15.547 4.0781-15.547 11.219-5.6406q7.125 0 11.203 5.6406t4.0781 15.547z"/>
<path id="ak" d="m14.797 27.297q0-9.9062 4.0781-15.547t11.203-5.6406 11.219 5.6406q4.1094 5.6406 4.1094 15.547t-4.1094 15.547q-4.0938 5.6406-11.219 5.6406t-11.203-5.6406-4.0781-15.547zm30.609-19.094q-2.8281-4.875-7.1562-7.25-4.3125-2.375-10.375-2.375-9.9062 0-16.141 7.9062-6.2188 7.9219-6.2188 20.812t6.2188 20.797q6.2344 7.9062 16.141 7.9062 6.0625 0 10.375-2.375 4.3281-2.3594 7.1562-7.2344v8.2969h8.9844v-75.484h-8.9844z"/>
<path id="t" d="m8.5 21.578v33.109h8.9844v-32.766q0-7.7656 3.0156-11.656 3.0312-3.875 9.0938-3.875 7.2656 0 11.484 4.6406 4.2344 4.6406 4.2344 12.656v31h8.9844v-54.688h-8.9844v8.4062q-3.2656-4.9844-7.5938-7.4062-4.3125-2.4219-10.031-2.4219-9.4219 0-14.312 5.8594-4.875 5.8594-4.875 17.141z"/>
</defs>
<use xlink:href="#at"/>
<use x="63.476562" xlink:href="#z"/>
<use x="124.658203" xlink:href="#f"/>
<use x="152.441406" xlink:href="#s"/>
<use x="213.964844" xlink:href="#k"/>
<use x="311.376953" xlink:href="#g"/>
<use x="339.160156" xlink:href="#ak"/>
<use x="402.636719" xlink:href="#t"/>
<use x="466.015625" xlink:href="#d"/>
</g>
</g>
<g clip-path="url(#a)">
<g transform="translate(140.6 486.4) scale(.1 -.1)">
<defs>
<path id="w" d="m45.406 46.391v29.594h8.9844v-75.984h-8.9844v8.2031q-2.8281-4.875-7.1562-7.25-4.3125-2.375-10.375-2.375-9.9062 0-16.141 7.9062-6.2188 7.9219-6.2188 20.812t6.2188 20.797q6.2344 7.9062 16.141 7.9062 6.0625 0 10.375-2.375 4.3281-2.3594 7.1562-7.2344zm-30.609-19.094q0-9.9062 4.0781-15.547t11.203-5.6406 11.219 5.6406q4.1094 5.6406 4.1094 15.547t-4.1094 15.547q-4.0938 5.6406-11.219 5.6406t-11.203-5.6406-4.0781-15.547z"/>
</defs>
<use xlink:href="#w"/>
<use x="63.476562" xlink:href="#d"/>
<use x="125" xlink:href="#n"/>
</g>
</g>
<g clip-path="url(#a)">
<g transform="translate(162.09 486.4) scale(.1 -.1)">
<use xlink:href="#u"/>
<use x="54.980469" xlink:href="#j"/>
<use x="93.84375" xlink:href="#s"/>
<use x="155.367188" xlink:href="#w"/>
<use x="218.84375" xlink:href="#t"/>
<use x="282.222656" xlink:href="#f"/>
<use x="310.005859" xlink:href="#d"/>
<use x="371.529297" xlink:href="#n"/>
</g>
</g>
<g clip-path="url(#a)">
<g transform="translate(216.29 486.4) scale(.1 -.1)">
<use xlink:href="#d"/>
<use x="61.523438" xlink:href="#q"/>
</g>
</g>
<g clip-path="url(#a)">
<g transform="translate(254.75 486.4) scale(.1 -.1)">
<use xlink:href="#w"/>
<use x="63.476562" xlink:href="#d"/>
<use x="125" xlink:href="#n"/>
</g>
</g>
<g clip-path="url(#a)">
<g transform="translate(284.37 486.4) scale(.1 -.1)">
<use xlink:href="#g"/>
<use x="27.783203" xlink:href="#i"/>
<use x="91.162109" xlink:href="#u"/>
<use x="146.142578" xlink:href="#j"/>
<use x="185.005859" xlink:href="#s"/>
<use x="246.529297" xlink:href="#w"/>
<use x="310.005859" xlink:href="#t"/>
<use x="373.384766" xlink:href="#f"/>
<use x="401.167969" xlink:href="#d"/>
<use x="462.691406" xlink:href="#n"/>
</g>
</g>
<g clip-path="url(#a)">
<g transform="translate(348.83 486.4) scale(.1 -.1)">
<use xlink:href="#w"/>
<use x="63.476562" xlink:href="#h"/>
<use x="124.755859" xlink:href="#i"/>
<use x="188.134766" xlink:href="#n"/>
</g>
</g>
<g clip-path="url(#a)">
<g transform="translate(408.73 486.4) scale(.1 -.1)">
<use xlink:href="#f"/>
<use x="27.783203" xlink:href="#d"/>
<use x="89.306641" xlink:href="#n"/>
</g>
</g>
<g clip-path="url(#a)">
<g transform="translate(454.47 486.4) scale(.1 -.1)">
<use xlink:href="#n"/>
<use x="52.099609" xlink:href="#z"/>
<use x="113.28125" xlink:href="#u"/>
<use x="168.261719" xlink:href="#g"/>
<use x="196.044922" xlink:href="#s"/>
<use x="257.568359" xlink:href="#q"/>
<use x="296.777344" xlink:href="#s"/>
<use x="358.300781" xlink:href="#n"/>
</g>
</g>
<g clip-path="url(#a)">
<g transform="translate(515.91 486.4) scale(.1 -.1)">
<defs>
<path id="as" d="m2.9844 54.688h9.5156l17.094-45.891 17.094 45.891h9.5156l-20.516-54.688h-12.203z"/>
</defs>
<use xlink:href="#n"/>
<use x="52.099609" xlink:href="#h"/>
<use x="113.378906" xlink:href="#as"/>
<use x="172.558594" xlink:href="#h"/>
<use x="233.837891" xlink:href="#i"/>
<use x="297.216797" xlink:href="#q"/>
<use x="336.425781" xlink:href="#d"/>
<use x="397.949219" xlink:href="#n"/>
</g>
</g>
<g clip-path="url(#a)">
<g transform="translate(601.02 486.4) scale(.1 -.1)">
<use xlink:href="#d"/>
<use x="61.523438" xlink:href="#q"/>
</g>
</g>
<g clip-path="url(#a)">
<g transform="translate(670.86 486.4) scale(.1 -.1)">
<use xlink:href="#f"/>
<use x="27.783203" xlink:href="#d"/>
<use x="89.306641" xlink:href="#n"/>
</g>
</g>
<g clip-path="url(#a)">
<g transform="translate(732.08 486.4) scale(.1 -.1)">
<defs>
<path id="au" d="m9.4219 54.688h8.9844v-55.672q0-10.438-3.9844-15.125-3.9688-4.6875-12.812-4.6875h-3.4219v7.6094h2.4062q5.125 0 6.9688 2.375 1.8594 2.3594 1.8594 9.8281zm0 21.297h8.9844v-11.391h-8.9844z"/>
<path id="ar" d="m54.891 54.688-19.781-26.609 20.797-28.078h-10.594l-15.922 21.484-15.906-21.484h-10.609l21.25 28.609-19.438 26.078h10.594l14.5-19.484 14.5 19.484z"/>
</defs>
<use xlink:href="#au"/>
<use x="27.783203" xlink:href="#z"/>
<use x="88.964844" xlink:href="#t"/>
<use x="152.34375" xlink:href="#j"/>
<use x="191.707031" xlink:href="#i"/>
<use x="255.085938" xlink:href="#h"/>
<use x="316.365234" xlink:href="#t"/>
<use x="379.744141" xlink:href="#ar"/>
</g>
</g>
<g clip-path="url(#a)">
<g transform="translate(802.84 486.4) scale(.1 -.1)">
<defs>
<path id="av" d="m37.109 75.984v-7.4844h-8.5938q-4.8281 0-6.7188-1.9531-1.875-1.9531-1.875-7.0312v-4.8281h14.797v-6.9844h-14.797v-47.703h-9.0312v47.703h-8.5938v6.9844h8.5938v3.8125q0 9.125 4.25 13.297 4.25 4.1875 13.469 4.1875z"/>
</defs>
<use xlink:href="#n"/>
<use x="52.099609" xlink:href="#u"/>
<use x="107.080078" xlink:href="#g"/>
<use x="134.863281" xlink:href="#d"/>
<use x="196.386719" xlink:href="#i"/>
<use x="259.765625" xlink:href="#q"/>
<use x="298.974609" xlink:href="#g"/>
<use x="326.757812" xlink:href="#av"/>
<use x="361.962891" xlink:href="#g"/>
<use x="389.746094" xlink:href="#ak"/>
<use x="453.222656" xlink:href="#t"/>
<use x="516.601562" xlink:href="#d"/>
<use x="578.125" xlink:href="#n"/>
</g>
</g>
<g clip-path="url(#a)">
<g transform="translate(917.32 486.4) scale(.1 -.1)">
<defs>
<path id="e" d="m10.688 12.406h10.312v-12.406h-10.312z"/>
</defs>
<use xlink:href="#e"/>
</g>
</g>
<g clip-path="url(#a)">
<g transform="translate(139.82 25.79) scale(.1 -.1)">
<defs>
<path id="c" d="m12.406 8.2969h16.109v55.625l-17.531-3.5156v8.9844l17.438 3.5156h9.8594v-64.609h16.109v-8.2969h-41.984z"/>
</defs>
<use xlink:href="#c"/>
<use x="63.623047" xlink:href="#e"/>
<use x="95.410156" xlink:href="#c"/>
</g>
</g>
<g clip-path="url(#a)">
<g transform="translate(35.806 410.99) scale(.1 -.1)">
<defs>
<path id="m" d="m19.188 8.2969h34.422v-8.2969h-46.281v8.2969q5.6094 5.8125 15.297 15.594 9.7031 9.7969 12.188 12.641 4.7344 5.3125 6.6094 9 1.8906 3.6875 1.8906 7.25 0 5.8125-4.0781 9.4688-4.0781 3.6719-10.625 3.6719-4.6406 0-9.7969-1.6094-5.1406-1.6094-11-4.8906v9.9688q5.9531 2.3906 11.125 3.6094 5.1875 1.2188 9.4844 1.2188 11.328 0 18.062-5.6719 6.7344-5.6562 6.7344-15.125 0-4.5-1.6875-8.5312-1.6719-4.0156-6.125-9.4844-1.2188-1.4219-7.7656-8.1875-6.5312-6.7656-18.453-18.922z"/>
</defs>
<use xlink:href="#c"/>
<use x="63.623047" xlink:href="#e"/>
<use x="95.410156" xlink:href="#m"/>
</g>
</g>
<g clip-path="url(#a)">
<g transform="translate(243.83 103.26) scale(.1 -.1)">
<defs>
<path id="r" d="m40.578 39.312q7.0781-1.5156 11.047-6.3125 3.9844-4.7812 3.9844-11.812 0-10.781-7.4219-16.703-7.4219-5.9062-21.094-5.9062-4.5781 0-9.4375 0.90625t-10.031 2.7188v9.5156q4.0938-2.3906 8.9688-3.6094 4.8906-1.2188 10.219-1.2188 9.2656 0 14.125 3.6562t4.8594 10.641q0 6.4531-4.5156 10.078-4.5156 3.6406-12.562 3.6406h-8.5v8.1094h8.8906q7.2656 0 11.125 2.9062t3.8594 8.375q0 5.6094-3.9844 8.6094-3.9688 3.0156-11.391 3.0156-4.0625 0-8.7031-0.89062-4.6406-0.875-10.203-2.7188v8.7812q5.625 1.5625 10.531 2.3438t9.25 0.78125q11.234 0 17.766-5.1094 6.5469-5.0938 6.5469-13.781 0-6.0625-3.4688-10.234t-9.8594-5.7812z"/>
</defs>
<use xlink:href="#c"/>
<use x="63.623047" xlink:href="#e"/>
<use x="95.410156" xlink:href="#r"/>
</g>
</g>
<g clip-path="url(#a)">
<g transform="translate(48.489 410.99) scale(.1 -.1)">
<defs>
<path id="af" d="m10.797 72.906h38.719v-8.3125h-29.688v-17.859q2.1406 0.73438 4.2812 1.0938 2.1562 0.35938 4.3125 0.35938 12.203 0 19.328-6.6875 7.1406-6.6875 7.1406-18.109 0-11.766-7.3281-18.297-7.3281-6.5156-20.656-6.5156-4.5938 0-9.3594 0.78125-4.75 0.78125-9.8281 2.3438v9.9219q4.3906-2.3906 9.0781-3.5625t9.9062-1.1719q8.4531 0 13.375 4.4375 4.9375 4.4375 4.9375 12.062 0 7.6094-4.9375 12.047-4.9219 4.4531-13.375 4.4531-3.9531 0-7.8906-0.875-3.9219-0.875-8.0156-2.7344z"/>
</defs>
<use xlink:href="#c"/>
<use x="63.623047" xlink:href="#e"/>
<use x="95.410156" xlink:href="#af"/>
</g>
</g>
<g clip-path="url(#a)">
<g transform="translate(123.36 180.57) scale(.1 -.1)">
<defs>
<path id="ae" d="m33.016 40.375q-6.6406 0-10.531-4.5469-3.875-4.5312-3.875-12.438 0-7.8594 3.875-12.438 3.8906-4.5625 10.531-4.5625t10.516 4.5625q3.875 4.5781 3.875 12.438 0 7.9062-3.875 12.438-3.875 4.5469-10.516 4.5469zm19.578 30.922v-8.9844q-3.7188 1.75-7.5 2.6719-3.7812 0.9375-7.5 0.9375-9.7656 0-14.922-6.5938-5.1406-6.5938-5.875-19.922 2.875 4.25 7.2188 6.5156 4.3594 2.2656 9.5781 2.2656 10.984 0 17.359-6.6719 6.375-6.6562 6.375-18.125 0-11.234-6.6406-18.031-6.6406-6.7812-17.672-6.7812-12.656 0-19.344 9.6875-6.6875 9.7031-6.6875 28.109 0 17.281 8.2031 27.562t22.016 10.281q3.7188 0 7.5-0.73438t7.8906-2.1875z"/>
</defs>
<use xlink:href="#c"/>
<use x="63.623047" xlink:href="#e"/>
<use x="95.410156" xlink:href="#ae"/>
</g>
</g>
<g clip-path="url(#a)">
<g transform="translate(559.64 180.57) scale(.1 -.1)">
<defs>
<path id="ad" d="m8.2031 72.906h46.875v-4.2031l-26.469-68.703h-10.297l24.906 64.594h-35.016z"/>
</defs>
<use xlink:href="#c"/>
<use x="63.623047" xlink:href="#e"/>
<use x="95.410156" xlink:href="#ad"/>
</g>
</g>
<g clip-path="url(#a)">
<g transform="translate(431.63 257.68) scale(.1 -.1)">
<defs>
<path id="ac" d="m31.781 34.625q-7.0312 0-11.062-3.7656-4.0156-3.7656-4.0156-10.344 0-6.5938 4.0156-10.359 4.0312-3.7656 11.062-3.7656t11.078 3.7812q4.0625 3.7969 4.0625 10.344 0 6.5781-4.0312 10.344-4.0156 3.7656-11.109 3.7656zm-9.8594 4.1875q-6.3438 1.5625-9.8906 5.9062-3.5312 4.3594-3.5312 10.609 0 8.7344 6.2188 13.812 6.2344 5.0781 17.062 5.0781 10.891 0 17.094-5.0781t6.2031-13.812q0-6.25-3.5469-10.609-3.5312-4.3438-9.8281-5.9062 7.125-1.6562 11.094-6.5 3.9844-4.8281 3.9844-11.797 0-10.609-6.4688-16.281-6.4688-5.6562-18.531-5.6562-12.047 0-18.531 5.6562-6.4688 5.6719-6.4688 16.281 0 6.9688 4 11.797 4.0156 4.8438 11.141 6.5zm-3.6094 15.578q0-5.6562 3.5312-8.8281 3.5469-3.1719 9.9375-3.1719 6.3594 0 9.9375 3.1719 3.5938 3.1719 3.5938 8.8281 0 5.6719-3.5938 8.8438-3.5781 3.1719-9.9375 3.1719-6.3906 0-9.9375-3.1719-3.5312-3.1719-3.5312-8.8438z"/>
</defs>
<use xlink:href="#c"/>
<use x="63.623047" xlink:href="#e"/>
<use x="95.410156" xlink:href="#ac"/>
</g>
</g>
<g clip-path="url(#a)">
<g transform="translate(598.1 410.99) scale(.1 -.1)">
<defs>
<path id="ab" d="m10.984 1.5156v8.9844q3.7188-1.7656 7.5156-2.6875 3.8125-0.92188 7.4844-0.92188 9.7656 0 14.906 6.5625 5.1562 6.5625 5.8906 19.953-2.8281-4.2031-7.1875-6.4531-4.3438-2.25-9.6094-2.25-10.938 0-17.312 6.6094-6.375 6.625-6.375 18.109 0 11.219 6.6406 18 6.6406 6.7969 17.672 6.7969 12.656 0 19.312-9.7031 6.6719-9.6875 6.6719-28.141 0-17.234-8.1875-27.516-8.1719-10.281-21.984-10.281-3.7188 0-7.5312 0.73438-3.7969 0.73438-7.9062 2.2031zm19.625 30.906q6.6406 0 10.516 4.5312 3.8906 4.5469 3.8906 12.469 0 7.8594-3.8906 12.422-3.875 4.5625-10.516 4.5625t-10.516-4.5625-3.875-12.422q0-7.9219 3.875-12.469 3.875-4.5312 10.516-4.5312z"/>
</defs>
<use xlink:href="#c"/>
<use x="63.623047" xlink:href="#e"/>
<use x="95.410156" xlink:href="#ab"/>
</g>
</g>
<g clip-path="url(#a)">
<g transform="translate(646.01 257.68) scale(.1 -.1)">
<defs>
<path id="ag" d="m31.781 66.406q-7.6094 0-11.453-7.5-3.8281-7.4844-3.8281-22.531 0-14.984 3.8281-22.484 3.8438-7.5 11.453-7.5 7.6719 0 11.5 7.5 3.8438 7.5 3.8438 22.484 0 15.047-3.8438 22.531-3.8281 7.5-11.5 7.5zm0 7.8125q12.266 0 18.734-9.7031 6.4688-9.6875 6.4688-28.141 0-18.406-6.4688-28.109-6.4688-9.6875-18.734-9.6875-12.25 0-18.719 9.6875-6.4688 9.7031-6.4688 28.109 0 18.453 6.4688 28.141 6.4688 9.7031 18.719 9.7031z"/>
</defs>
<use xlink:href="#c"/>
<use x="63.623047" xlink:href="#e"/>
<use x="95.410156" xlink:href="#c"/>
<use x="159.033203" xlink:href="#ag"/>
</g>
</g>
<g clip-path="url(#a)">
<g transform="translate(666.79 410.99) scale(.1 -.1)">
<use xlink:href="#c"/>
<use x="63.623047" xlink:href="#e"/>
<use x="95.410156" xlink:href="#c"/>
<use x="159.033203" xlink:href="#c"/>
</g>
</g>
<g clip-path="url(#a)">
<g transform="translate(742.89 410.99) scale(.1 -.1)">
<use xlink:href="#c"/>
<use x="63.623047" xlink:href="#e"/>
<use x="95.410156" xlink:href="#c"/>
<use x="159.033203" xlink:href="#m"/>
</g>
</g>
<g clip-path="url(#a)">
<g transform="translate(824.63 334.54) scale(.1 -.1)">
<use xlink:href="#c"/>
<use x="63.623047" xlink:href="#e"/>
<use x="95.410156" xlink:href="#c"/>
<use x="159.033203" xlink:href="#r"/>
</g>
</g>
<g clip-path="url(#a)">
<g transform="translate(823.22 410.99) scale(.1 -.1)">
<defs>
<path id="ai" d="m37.797 64.312-24.906-38.922h24.906zm-2.5938 8.5938h12.406v-47.516h10.406v-8.2031h-10.406v-17.188h-9.8125v17.188h-32.906v9.5156z"/>
</defs>
<use xlink:href="#c"/>
<use x="63.623047" xlink:href="#e"/>
<use x="95.410156" xlink:href="#c"/>
<use x="159.033203" xlink:href="#ai"/>
</g>
</g>
<g clip-path="url(#a)">
<g transform="translate(349.71 410.99) scale(.1 -.1)">
<use xlink:href="#c"/>
<use x="63.623047" xlink:href="#e"/>
<use x="95.410156" xlink:href="#c"/>
<use x="159.033203" xlink:href="#af"/>
</g>
</g>
<g clip-path="url(#a)">
<g transform="translate(404.67 410.99) scale(.1 -.1)">
<use xlink:href="#c"/>
<use x="63.623047" xlink:href="#e"/>
<use x="95.410156" xlink:href="#c"/>
<use x="159.033203" xlink:href="#ae"/>
</g>
</g>
<g clip-path="url(#a)">
<g transform="translate(463.86 410.99) scale(.1 -.1)">
<use xlink:href="#c"/>
<use x="63.623047" xlink:href="#e"/>
<use x="95.410156" xlink:href="#c"/>
<use x="159.033203" xlink:href="#ad"/>
</g>
</g>
<g clip-path="url(#a)">
<g transform="translate(495.57 334.54) scale(.1 -.1)">
<use xlink:href="#c"/>
<use x="63.623047" xlink:href="#e"/>
<use x="95.410156" xlink:href="#c"/>
<use x="159.033203" xlink:href="#ac"/>
</g>
</g>
<g clip-path="url(#a)">
<g transform="translate(527.28 410.99) scale(.1 -.1)">
<use xlink:href="#c"/>
<use x="63.623047" xlink:href="#e"/>
<use x="95.410156" xlink:href="#c"/>
<use x="159.033203" xlink:href="#ab"/>
</g>
</g>
<g clip-path="url(#a)">
<g transform="translate(62.219 410.99) scale(.1 -.1)">
<use xlink:href="#c"/>
<use x="63.623047" xlink:href="#e"/>
<use x="95.410156" xlink:href="#m"/>
<use x="159.033203" xlink:href="#ag"/>
</g>
</g>
<g clip-path="url(#a)">
<g transform="translate(96.042 334.54) scale(.1 -.1)">
<use xlink:href="#c"/>
<use x="63.623047" xlink:href="#e"/>
<use x="95.410156" xlink:href="#m"/>
<use x="159.033203" xlink:href="#c"/>
</g>
</g>
<g clip-path="url(#a)">
<g transform="translate(108.72 410.99) scale(.1 -.1)">
<use xlink:href="#c"/>
<use x="63.623047" xlink:href="#e"/>
<use x="95.410156" xlink:href="#m"/>
<use x="159.033203" xlink:href="#m"/>
</g>
</g>
<g clip-path="url(#a)">
<g transform="translate(213.71 257.68) scale(.1 -.1)">
<use xlink:href="#c"/>
<use x="63.623047" xlink:href="#e"/>
<use x="95.410156" xlink:href="#m"/>
<use x="159.033203" xlink:href="#r"/>
</g>
</g>
<g clip-path="url(#a)">
<g transform="translate(155.23 334.54) scale(.1 -.1)">
<use xlink:href="#c"/>
<use x="63.623047" xlink:href="#e"/>
<use x="95.410156" xlink:href="#m"/>
<use x="159.033203" xlink:href="#ai"/>
</g>
</g>
<g clip-path="url(#a)">
<g transform="translate(210.19 410.99) scale(.1 -.1)">
<use xlink:href="#c"/>
<use x="63.623047" xlink:href="#e"/>
<use x="95.410156" xlink:href="#m"/>
<use x="159.033203" xlink:href="#af"/>
</g>
</g>
<g clip-path="url(#a)">
<g transform="translate(275.72 334.54) scale(.1 -.1)">
<use xlink:href="#c"/>
<use x="63.623047" xlink:href="#e"/>
<use x="95.410156" xlink:href="#m"/>
<use x="159.033203" xlink:href="#ae"/>
</g>
</g>
<g clip-path="url(#a)">
<g transform="translate(252.47 410.99) scale(.1 -.1)">
<use xlink:href="#c"/>
<use x="63.623047" xlink:href="#e"/>
<use x="95.410156" xlink:href="#m"/>
<use x="159.033203" xlink:href="#ad"/>
</g>
</g>
<g clip-path="url(#a)">
<g transform="translate(298.98 410.99) scale(.1 -.1)">
<use xlink:href="#c"/>
<use x="63.623047" xlink:href="#e"/>
<use x="95.410156" xlink:href="#m"/>
<use x="159.033203" xlink:href="#ac"/>
</g>
</g>
<g clip-path="url(#a)">
<g transform="translate(138.32 410.99) scale(.1 -.1)">
<use xlink:href="#c"/>
<use x="63.623047" xlink:href="#e"/>
<use x="95.410156" xlink:href="#m"/>
<use x="159.033203" xlink:href="#ab"/>
</g>
</g>
<g clip-path="url(#a)">
<g transform="translate(172.14 410.99) scale(.1 -.1)">
<use xlink:href="#c"/>
<use x="63.623047" xlink:href="#e"/>
<use x="95.410156" xlink:href="#r"/>
<use x="159.033203" xlink:href="#ag"/>
</g>
</g>
<g clip-path="url(#a)">
<g transform="translate(83.358 410.99) scale(.1 -.1)">
<use xlink:href="#c"/>
<use x="63.623047" xlink:href="#e"/>
<use x="95.410156" xlink:href="#r"/>
<use x="159.033203" xlink:href="#c"/>
</g>
</g>
<g clip-path="url(#a)">
<g transform="translate(907.78 410.99) scale(.1 -.1)">
<use xlink:href="#c"/>
<use x="63.623047" xlink:href="#e"/>
<use x="95.410156" xlink:href="#r"/>
<use x="159.033203" xlink:href="#m"/>
</g>
</g>
<defs>
<clipPath id="a">
<rect width="962.67" height="506.67"/>
</clipPath>
</defs>
</svg>
