<?xml version="1.0" encoding="UTF-8"?>
<!DOCTYPE svg  PUBLIC '-//W3C//DTD SVG 1.1//EN'  'http://www.w3.org/Graphics/SVG/1.1/DTD/svg11.dtd'>
<svg width="1266.7pt" height="666.67pt" version="1.1" viewBox="0 0 1266.7 666.67" xmlns="http://www.w3.org/2000/svg" xmlns:xlink="http://www.w3.org/1999/xlink">
<metadata>
<rdf:RDF xmlns:cc="http://creativecommons.org/ns#" xmlns:dc="http://purl.org/dc/elements/1.1/" xmlns:rdf="http://www.w3.org/1999/02/22-rdf-syntax-ns#">
<cc:Work>
<dc:type rdf:resource="http://purl.org/dc/dcmitype/StillImage"/>
<dc:date>2021-03-09T09:14:15.710880</dc:date>
<dc:format>image/svg+xml</dc:format>
<dc:creator>
<cc:Agent>
<dc:title>Matplotlib v3.3.3, https://matplotlib.org/</dc:title>
</cc:Agent>
</dc:creator>
</cc:Work>
</rdf:RDF>
</metadata>
<defs>
<style type="text/css">*{stroke-linecap:butt;stroke-linejoin:round;}</style>
</defs>
<path d="m0 666.67h1266.7v-666.67h-1266.7z" fill="#fff"/>
<g fill="none" stroke="#000">
<path d="m273.05 30.303v101.93" clip-path="url(#a)"/>
<path d="m273.05 132.23 284.23 101.73" clip-path="url(#a)"/>
<path d="m273.05 132.23-132.76 404.91" clip-path="url(#a)"/>
<path d="m273.05 132.23-71.264 203.19" clip-path="url(#a)"/>
<path d="m273.05 132.23-155.92 404.91" clip-path="url(#a)"/>
<path d="m273.05 132.23 75.709 404.91" clip-path="url(#a)"/>
<path d="m557.28 233.96-481.51 202.59" clip-path="url(#a)"/>
<path d="m557.28 233.96-137.38 303.19" clip-path="url(#a)"/>
<path d="m557.28 233.96 47.925 101.47" clip-path="url(#a)"/>
<path d="m557.28 233.96 185.25 303.19" clip-path="url(#a)"/>
<path d="m557.28 233.96 385.71 202.59" clip-path="url(#a)"/>
<path d="m140.3 537.15v99.216" clip-path="url(#a)"/>
<path d="m201.79 335.43-35.02 201.72" clip-path="url(#a)"/>
<path d="m201.79 335.43 40.259 101.12" clip-path="url(#a)"/>
<path d="m201.79 335.43-5.2392 201.72" clip-path="url(#a)"/>
<path d="m166.77 537.15v99.216" clip-path="url(#a)"/>
<path d="m242.05 436.55-75.279 100.6" clip-path="url(#a)" stroke-dasharray="3.7,1.6"/>
<path d="m242.05 436.55-12.409 100.6" clip-path="url(#a)"/>
<path d="m242.05 436.55 23.99 100.6" clip-path="url(#a)"/>
<path d="m242.05 436.55 63.697 100.6" clip-path="url(#a)"/>
<path d="m229.64 537.15v99.216" clip-path="url(#a)"/>
<path d="m266.04 537.15v99.216" clip-path="url(#a)"/>
<path d="m305.75 537.15v99.216" clip-path="url(#a)"/>
<path d="m75.775 436.55-18.199 100.6" clip-path="url(#a)"/>
<path d="m75.775 436.55 4.9634 100.6" clip-path="url(#a)"/>
<path d="m75.775 436.55 21.508 100.6" clip-path="url(#a)"/>
<path d="m75.775 436.55-8.2724 100.6" clip-path="url(#a)"/>
<path d="m419.91 537.15-24.817 99.216" clip-path="url(#a)"/>
<path d="m419.91 537.15 24.817 99.216" clip-path="url(#a)"/>
<path d="m605.21 335.43-79.415 101.12" clip-path="url(#a)"/>
<path d="m605.21 335.43 8.2724 201.72" clip-path="url(#a)"/>
<path d="m605.21 335.43 71.142 201.72" clip-path="url(#a)"/>
<path d="m742.53 537.15v99.216" clip-path="url(#a)"/>
<path d="m943 436.55-16.821 100.6" clip-path="url(#a)"/>
<path d="m943 436.55-58.182 100.6" clip-path="url(#a)"/>
<path d="m943 436.55 17.923 100.6" clip-path="url(#a)"/>
<path d="m943 436.55-389.08 100.6" clip-path="url(#a)" stroke-dasharray="3.7,1.6"/>
<path d="m943 436.55 180.06 100.6" clip-path="url(#a)"/>
<path d="m943 436.55 266.09 100.6" clip-path="url(#a)"/>
<path d="m926.18 537.15-114.16 99.216" clip-path="url(#a)"/>
<path d="m926.18 537.15 114.16 99.216" clip-path="url(#a)"/>
<path d="m884.81 537.15v99.216" clip-path="url(#a)"/>
<path d="m960.92 537.15v99.216" clip-path="url(#a)"/>
<path d="m525.79 436.55-28.126 100.6" clip-path="url(#a)"/>
<path d="m525.79 436.55 28.126 100.6" clip-path="url(#a)"/>
<path d="m613.48 537.15v99.216" clip-path="url(#a)"/>
<path d="m676.35 537.15v99.216" clip-path="url(#a)"/>
<path d="m497.67 537.15v99.216" clip-path="url(#a)"/>
<path d="m553.92 537.15v99.216" clip-path="url(#a)"/>
<path d="m57.576 537.15v99.216" clip-path="url(#a)"/>
<path d="m80.738 537.15v99.216" clip-path="url(#a)"/>
<path d="m97.283 537.15v99.216" clip-path="url(#a)"/>
<path d="m67.503 537.15v99.216" clip-path="url(#a)"/>
<path d="m117.14 537.15v99.216" clip-path="url(#a)"/>
<path d="m196.55 537.15v99.216" clip-path="url(#a)"/>
<path d="m348.76 537.15v99.216" clip-path="url(#a)"/>
<path d="m1123.1 537.15v99.216" clip-path="url(#a)"/>
<path d="m1209.1 537.15v99.216" clip-path="url(#a)"/>
</g>
<path d="m266.78 78.26v6.0162q0 2.4 2.4 2.4h7.7425q2.4 0 2.4-2.4v-6.0162q0-2.4-2.4-2.4h-7.7425q-2.4 0-2.4 2.4z" clip-path="url(#a)" fill="#fff" stroke="#fff"/>
<g clip-path="url(#a)">
<g transform="translate(270.85 78.26) rotate(90) scale(.08 -.08)">
<defs>
<path id="u" d="m9.8125 72.906h9.8594v-29.891h35.844v29.891h9.8594v-72.906h-9.8594v34.719h-35.844v-34.719h-9.8594z"/>
</defs>
<use xlink:href="#u"/>
</g>
</g>
<path d="m410.48 188.08 5.1524 1.8441q2.2596 0.80872 3.0684-1.4509l2.609-7.2897q0.80872-2.2596-1.4509-3.0684l-5.1524-1.8441q-2.2596-0.80872-3.0684 1.4509l-2.609 7.2897q-0.80872 2.2596 1.4509 3.0684z" clip-path="url(#a)" fill="#fff" stroke="#fff"/>
<g clip-path="url(#a)">
<g transform="translate(411.85 184.25) rotate(19.692) scale(.08 -.08)">
<defs>
<path id="o" d="m34.188 63.188-13.391-36.281h26.812zm-5.5781 9.7188h11.188l27.781-72.906h-10.25l-6.6406 18.703h-32.859l-6.6406-18.703h-10.406z"/>
</defs>
<use xlink:href="#o"/>
</g>
</g>
<path d="m211.88 338.94 1.5028-4.5837q0.7477-2.2806-1.5329-3.0283l-7.3572-2.4121q-2.2806-0.7477-3.0283 1.5329l-1.5028 4.5837q-0.7477 2.2806 1.5329 3.0283l7.3572 2.4121q2.2806 0.7477 3.0283-1.5329z" clip-path="url(#a)" fill="#fff" stroke="#fff"/>
<g clip-path="url(#a)">
<g transform="translate(208.02 337.67) rotate(-71.848) scale(.08 -.08)">
<defs>
<path id="t" d="m19.672 64.797v-27.391h12.406q6.8906 0 10.641 3.5625 3.7656 3.5625 3.7656 10.156 0 6.5469-3.7656 10.109-3.75 3.5625-10.641 3.5625zm-9.8594 8.1094h22.266q12.266 0 18.531-5.5469 6.2812-5.5469 6.2812-16.234 0-10.797-6.2812-16.312-6.2656-5.5156-18.531-5.5156h-12.406v-29.297h-9.8594z"/>
</defs>
<use xlink:href="#t"/>
</g>
</g>
<path d="m242.44 238.49 1.8112-5.1641q0.79429-2.2648-1.4705-3.059l-7.3062-2.5624q-2.2648-0.79429-3.059 1.4705l-1.8112 5.1641q-0.79429 2.2648 1.4705 3.059l7.3062 2.5624q2.2648 0.79429 3.059-1.4705z" clip-path="url(#a)" fill="#fff" stroke="#fff"/>
<g clip-path="url(#a)">
<g transform="translate(238.6 237.14) rotate(-70.673) scale(.08 -.08)">
<use xlink:href="#o"/>
</g>
</g>
<path d="m199.9 339.68 2.104-5.4639q0.86242-2.2397-1.3773-3.1021l-7.2253-2.7822q-2.2397-0.86242-3.1021 1.3773l-2.104 5.4639q-0.86242 2.2397 1.3773 3.1021l7.2253 2.7822q2.2397 0.86242 3.1021-1.3773z" clip-path="url(#a)" fill="#fff" stroke="#fff"/>
<g clip-path="url(#a)">
<g transform="translate(196.1 338.22) rotate(-68.94) scale(.08 -.08)">
<defs>
<path id="q" d="m8.6875 72.906h9.9219v-44.297q0-11.719 4.2344-16.875 4.25-5.1406 13.781-5.1406 9.4688 0 13.719 5.1406 4.25 5.1562 4.25 16.875v44.297h9.9062v-45.516q0-14.25-7.0625-21.531-7.0469-7.2812-20.812-7.2812-13.828 0-20.891 7.2812-7.0469 7.2812-7.0469 21.531z"/>
</defs>
<use xlink:href="#q"/>
</g>
</g>
<path d="m304.21 332.97 1.0761 5.7553q0.4411 2.3591 2.8002 1.918l7.6106-1.423q2.3591-0.4411 1.918-2.8002l-1.0761-5.7553q-0.4411-2.3591-2.8002-1.918l-7.6106 1.423q-2.3591 0.4411-1.918 2.8002z" clip-path="url(#a)" fill="#fff" stroke="#fff"/>
<g clip-path="url(#a)">
<g transform="translate(308.2 332.22) rotate(79.409) scale(.08 -.08)">
<use xlink:href="#q"/>
</g>
</g>
<path d="m316.19 342.2 5.5454-2.3332q2.2122-0.93076 1.2814-3.1429l-3.0027-7.1365q-0.93076-2.2122-3.1429-1.2814l-5.5454 2.3332q-2.2122 0.93076-1.2814 3.1429l3.0027 7.1365q0.93076 2.2122 3.1429 1.2814z" clip-path="url(#a)" fill="#fff" stroke="#fff"/>
<g clip-path="url(#a)">
<g transform="translate(314.61 338.46) rotate(-22.819) scale(.08 -.08)">
<use xlink:href="#u"/>
</g>
</g>
<path d="m493.39 390.17 1.8397-4.0602q0.99052-2.1861-1.1955-3.1766l-7.0523-3.1954q-2.1861-0.99052-3.1766 1.1955l-1.8397 4.0602q-0.99052 2.1861 1.1955 3.1766l7.0523 3.1954q2.1861 0.99052 3.1766-1.1955z" clip-path="url(#a)" fill="#fff" stroke="#fff"/>
<g clip-path="url(#a)">
<g transform="translate(489.69 388.49) rotate(-65.624) scale(.08 -.08)">
<defs>
<path id="ag" d="m9.8125 72.906h9.8594v-64.609h35.5v-8.2969h-45.359z"/>
</defs>
<use xlink:href="#ag"/>
</g>
</g>
<path d="m574.29 284.65 2.5694 5.44q1.025 2.1701 3.1951 1.1451l7.0009-3.3066q2.1701-1.025 1.1451-3.1951l-2.5694-5.44q-1.025-2.1701-3.1951-1.1451l-7.0009 3.3066q-2.1701 1.025-1.1451 3.1951z" clip-path="url(#a)" fill="#fff" stroke="#fff"/>
<g clip-path="url(#a)">
<g transform="translate(577.96 282.92) rotate(64.718) scale(.08 -.08)">
<use xlink:href="#u"/>
</g>
</g>
<path d="m643.39 386.92 2.324 3.8037q1.2513 2.048 3.2993 0.79668l6.6069-4.0368q2.048-1.2513 0.79668-3.2993l-2.324-3.8037q-1.2513-2.048-3.2993-0.79668l-6.6069 4.0368q-2.048 1.2513-0.79668 3.2993z" clip-path="url(#a)" fill="#fff" stroke="#fff"/>
<g clip-path="url(#a)">
<g transform="translate(646.86 384.8) rotate(58.575) scale(.08 -.08)">
<use xlink:href="#ag"/>
</g>
</g>
<path d="m744.56 339.41 5.3262 2.7976q2.1247 1.116 3.2407-1.0087l3.6003-6.8545q1.116-2.1247-1.0087-3.2407l-5.3262-2.7976q-2.1247-1.116-3.2407 1.0087l-3.6003 6.8545q-1.116 2.1247 1.0087 3.2407z" clip-path="url(#a)" fill="#fff" stroke="#fff"/>
<g clip-path="url(#a)">
<g transform="translate(746.45 335.81) rotate(27.71) scale(.08 -.08)">
<use xlink:href="#u"/>
</g>
</g>
<path d="m134.03 569.85v33.808q0 2.4 2.4 2.4h7.7425q2.4 0 2.4-2.4v-33.808q0-2.4-2.4-2.4h-7.7425q-2.4 0-2.4 2.4z" clip-path="url(#a)" fill="#fff" stroke="#fff"/>
<g clip-path="url(#a)">
<g transform="translate(138.09 569.85) rotate(90) scale(.08 -.08)">
<defs>
<path id="l" d="m-0.29688 72.906h61.672v-8.3125h-25.875v-64.594h-9.9062v64.594h-25.891z"/>
<path id="d" d="m56.203 29.594v-4.3906h-41.312q0.59375-9.2812 5.5938-14.141t13.938-4.8594q5.1719 0 10.031 1.2656t9.6562 3.8125v-8.5q-4.8438-2.0469-9.9219-3.125t-10.297-1.0781q-13.094 0-20.734 7.6094-7.6406 7.625-7.6406 20.625 0 13.422 7.25 21.297 7.25 7.8906 19.562 7.8906 11.031 0 17.453-7.1094 6.4219-7.0938 6.4219-19.297zm-8.9844 2.6406q-0.09375 7.3594-4.125 11.75-4.0312 4.4062-10.672 4.4062-7.5156 0-12.031-4.25t-5.2031-11.969z"/>
<path id="g" d="m41.109 46.297q-1.5156 0.875-3.2969 1.2812-1.7812 0.42188-3.9219 0.42188-7.625 0-11.703-4.9531t-4.0781-14.234v-28.812h-9.0312v54.688h9.0312v-8.5q2.8438 4.9844 7.375 7.3906 4.5469 2.4219 11.047 2.4219 0.92188 0 2.0469-0.125 1.125-0.10938 2.4844-0.35938z"/>
<path id="i" d="m52 44.188q3.375 6.0625 8.0625 8.9375t11.031 2.875q8.5469 0 13.188-5.9844 4.6406-5.9688 4.6406-17v-33.016h-9.0312v32.719q0 7.8594-2.7969 11.656-2.7812 3.8125-8.4844 3.8125-6.9844 0-11.047-4.6406-4.0469-4.625-4.0469-12.641v-30.906h-9.0312v32.719q0 7.9062-2.7812 11.688t-8.5938 3.7812q-6.8906 0-10.953-4.6562-4.0469-4.6562-4.0469-12.625v-30.906h-9.0312v54.688h9.0312v-8.5q3.0781 5.0312 7.375 7.4219t10.203 2.3906q5.9688 0 10.141-3.0312 4.1719-3.0156 6.1719-8.7812z"/>
<path id="j" d="m9.4219 54.688h8.9844v-54.688h-8.9844zm0 21.297h8.9844v-11.391h-8.9844z"/>
<path id="f" d="m54.891 33.016v-33.016h-8.9844v32.719q0 7.7656-3.0312 11.609-3.0312 3.8594-9.0781 3.8594-7.2812 0-11.484-4.6406-4.2031-4.625-4.2031-12.641v-30.906h-9.0312v54.688h9.0312v-8.5q3.2344 4.9375 7.5938 7.375 4.375 2.4375 10.094 2.4375 9.4219 0 14.25-5.8281 4.8438-5.8281 4.8438-17.156z"/>
<path id="h" d="m34.281 27.484q-10.891 0-15.094-2.4844t-4.2031-8.5q0-4.7812 3.1562-7.5938 3.1562-2.7969 8.5625-2.7969 7.4844 0 12 5.2969t4.5156 14.078v2zm17.922 3.7188v-31.203h-8.9844v8.2969q-3.0781-4.9688-7.6719-7.3438t-11.234-2.375q-8.3906 0-13.359 4.7188-4.9531 4.7188-4.9531 12.625 0 9.2188 6.1719 13.906 6.1875 4.6875 18.438 4.6875h12.609v0.89062q0 6.2031-4.0781 9.5938t-11.453 3.3906q-4.6875 0-9.1406-1.125-4.4375-1.125-8.5312-3.375v8.3125q4.9219 1.9062 9.5625 2.8438 4.6406 0.95312 9.0312 0.95312 11.875 0 17.734-6.1562 5.8594-6.1406 5.8594-18.641z"/>
<path id="k" d="m9.4219 75.984h8.9844v-75.984h-8.9844z"/>
</defs>
<use xlink:href="#l"/>
<use x="44.083984" xlink:href="#d"/>
<use x="105.607422" xlink:href="#g"/>
<use x="144.970703" xlink:href="#i"/>
<use x="242.382812" xlink:href="#j"/>
<use x="270.166016" xlink:href="#f"/>
<use x="333.544922" xlink:href="#h"/>
<use x="394.824219" xlink:href="#k"/>
</g>
</g>
<path d="m189.98 440.11 0.95551-5.5039q0.41051-2.3646-1.9541-2.7751l-7.6284-1.3243q-2.3646-0.41051-2.7751 1.9541l-0.95551 5.5039q-0.41051 2.3646 1.9541 2.7751l7.6284 1.3243q2.3646 0.41051 2.7751-1.9541z" clip-path="url(#a)" fill="#fff" stroke="#fff"/>
<g clip-path="url(#a)">
<g transform="translate(185.98 439.42) rotate(-80.151) scale(.08 -.08)">
<defs>
<path id="ah" d="m64.406 67.281v-10.391q-4.9844 4.6406-10.625 6.9219-5.6406 2.2969-11.984 2.2969-12.5 0-19.141-7.6406t-6.6406-22.094q0-14.406 6.6406-22.047t19.141-7.6406q6.3438 0 11.984 2.2969t10.625 6.9375v-10.312q-5.1719-3.5156-10.969-5.2812-5.7812-1.75-12.219-1.75-16.562 0-26.094 10.125-9.5156 10.141-9.5156 27.672 0 17.578 9.5156 27.703 9.5312 10.141 26.094 10.141 6.5312 0 12.312-1.7344 5.7969-1.7344 10.875-5.2031z"/>
</defs>
<use xlink:href="#ah"/>
</g>
</g>
<path d="m215.16 385.96 1.8697 4.6965q0.88771 2.2298 3.1175 1.3421l7.1934-2.8638q2.2298-0.88771 1.3421-3.1175l-1.8697-4.6965q-0.88771-2.2298-3.1175-1.3421l-7.1934 2.8638q-2.2298 0.88771-1.3421 3.1175z" clip-path="url(#a)" fill="#fff" stroke="#fff"/>
<g clip-path="url(#a)">
<g transform="translate(218.93 384.46) rotate(68.292) scale(.08 -.08)">
<defs>
<path id="ar" d="m9.8125 72.906h46.094v-8.3125h-36.234v-21.578h34.719v-8.2969h-34.719v-26.422h37.109v-8.2969h-46.969z"/>
</defs>
<use xlink:href="#ar"/>
</g>
</g>
<path d="m205.36 439.38 0.15202-5.853q0.062313-2.3992-2.3369-2.4615l-7.7399-0.20102q-2.3992-0.062312-2.4615 2.3369l-0.15202 5.853q-0.062312 2.3992 2.3369 2.4615l7.7399 0.20102q2.3992 0.062313 2.4615-2.3369z" clip-path="url(#a)" fill="#fff" stroke="#fff"/>
<g clip-path="url(#a)">
<g transform="translate(201.3 439.27) rotate(-88.512) scale(.08 -.08)">
<use xlink:href="#q"/>
</g>
</g>
<path d="m160.5 569.85v33.808q0 2.4 2.4 2.4h7.7425q2.4 0 2.4-2.4v-33.808q0-2.4-2.4-2.4h-7.7425q-2.4 0-2.4 2.4z" clip-path="url(#a)" fill="#fff" stroke="#fff"/>
<g clip-path="url(#a)">
<g transform="translate(164.56 569.85) rotate(90) scale(.08 -.08)">
<use xlink:href="#l"/>
<use x="44.083984" xlink:href="#d"/>
<use x="105.607422" xlink:href="#g"/>
<use x="144.970703" xlink:href="#i"/>
<use x="242.382812" xlink:href="#j"/>
<use x="270.166016" xlink:href="#f"/>
<use x="333.544922" xlink:href="#h"/>
<use x="394.824219" xlink:href="#k"/>
</g>
</g>
<path d="m207.79 492.8 3.2788-4.3815q1.4379-1.9215-0.48361-3.3595l-6.199-4.6388q-1.9215-1.4379-3.3595 0.48361l-3.2788 4.3815q-1.4379 1.9215 0.48361 3.3595l6.199 4.6388q1.9215 1.4379 3.3595-0.48361z" clip-path="url(#a)" fill="#fff" stroke="#fff"/>
<g clip-path="url(#a)">
<g transform="translate(204.54 490.36) rotate(-53.192) scale(.08 -.08)">
<use xlink:href="#o"/>
</g>
</g>
<path d="m241.69 490.67 0.75412-6.1137q0.29381-2.3819-2.0881-2.6758l-7.6843-0.94785q-2.3819-0.29381-2.6758 2.0881l-0.75412 6.1137q-0.29381 2.3819 2.0881 2.6758l7.6843 0.94785q2.3819 0.29381 2.6758-2.0881z" clip-path="url(#a)" fill="#fff" stroke="#fff"/>
<g clip-path="url(#a)">
<g transform="translate(237.66 490.18) rotate(-82.968) scale(.08 -.08)">
<defs>
<path id="aa" d="m19.672 64.797v-56.688h11.922q15.094 0 22.094 6.8281 7 6.8438 7 21.594 0 14.641-7 21.453t-22.094 6.8125zm-9.8594 8.1094h20.266q21.188 0 31.094-8.8125 9.9219-8.8125 9.9219-27.562 0-18.859-9.9688-27.703-9.9531-8.8281-31.047-8.8281h-20.266z"/>
</defs>
<use xlink:href="#aa"/>
</g>
</g>
<path d="m247.23 485.31 1.4289 5.992q0.55673 2.3345 2.8913 1.7778l7.5313-1.796q2.3345-0.55673 1.7778-2.8913l-1.4289-5.992q-0.55673-2.3345-2.8913-1.7778l-7.5313 1.796q-2.3345 0.55673-1.7778 2.8913z" clip-path="url(#a)" fill="#fff" stroke="#fff"/>
<g clip-path="url(#a)">
<g transform="translate(251.18 484.37) rotate(76.587) scale(.08 -.08)">
<use xlink:href="#aa"/>
</g>
</g>
<path d="m267.24 488.06 2.717 4.2909q1.2839 2.0277 3.3116 0.74377l6.5414-4.142q2.0277-1.2839 0.74377-3.3116l-2.717-4.2909q-1.2839-2.0277-3.3116-0.74377l-6.5414 4.142q-2.0277 1.2839-0.74377 3.3116z" clip-path="url(#a)" fill="#fff" stroke="#fff"/>
<g clip-path="url(#a)">
<g transform="translate(270.67 485.88) rotate(57.658) scale(.08 -.08)">
<defs>
<path id="am" d="m53.516 70.516v-9.625q-5.6094 2.6875-10.594 4-4.9844 1.3281-9.625 1.3281-8.0469 0-12.422-3.125t-4.375-8.8906q0-4.8438 2.9062-7.3125 2.9062-2.4531 11.016-3.9688l5.9531-1.2188q11.031-2.1094 16.281-7.4062t5.25-14.172q0-10.609-7.1094-16.078-7.0938-5.4688-20.812-5.4688-5.1719 0-11.016 1.1719-5.8281 1.1719-12.078 3.4688v10.156q6-3.3594 11.766-5.0781 5.7656-1.7031 11.328-1.7031 8.4375 0 13.031 3.3125 4.5938 3.3281 4.5938 9.4844 0 5.3594-3.2969 8.3906t-10.812 4.5469l-6.0156 1.1719q-11.031 2.1875-15.969 6.875-4.9219 4.6875-4.9219 13.047 0 9.6719 6.8125 15.234t18.766 5.5625q5.1406 0 10.453-0.9375 5.3281-0.92188 10.891-2.7656z"/>
</defs>
<use xlink:href="#am"/>
</g>
</g>
<path d="m223.37 569.85v33.808q0 2.4 2.4 2.4h7.7425q2.4 0 2.4-2.4v-33.808q0-2.4-2.4-2.4h-7.7425q-2.4 0-2.4 2.4z" clip-path="url(#a)" fill="#fff" stroke="#fff"/>
<g clip-path="url(#a)">
<g transform="translate(227.43 569.85) rotate(90) scale(.08 -.08)">
<use xlink:href="#l"/>
<use x="44.083984" xlink:href="#d"/>
<use x="105.607422" xlink:href="#g"/>
<use x="144.970703" xlink:href="#i"/>
<use x="242.382812" xlink:href="#j"/>
<use x="270.166016" xlink:href="#f"/>
<use x="333.544922" xlink:href="#h"/>
<use x="394.824219" xlink:href="#k"/>
</g>
</g>
<path d="m259.77 569.85v33.808q0 2.4 2.4 2.4h7.7425q2.4 0 2.4-2.4v-33.808q0-2.4-2.4-2.4h-7.7425q-2.4 0-2.4 2.4z" clip-path="url(#a)" fill="#fff" stroke="#fff"/>
<g clip-path="url(#a)">
<g transform="translate(263.83 569.85) rotate(90) scale(.08 -.08)">
<use xlink:href="#l"/>
<use x="44.083984" xlink:href="#d"/>
<use x="105.607422" xlink:href="#g"/>
<use x="144.970703" xlink:href="#i"/>
<use x="242.382812" xlink:href="#j"/>
<use x="270.166016" xlink:href="#f"/>
<use x="333.544922" xlink:href="#h"/>
<use x="394.824219" xlink:href="#k"/>
</g>
</g>
<path d="m299.48 569.85v33.808q0 2.4 2.4 2.4h7.7425q2.4 0 2.4-2.4v-33.808q0-2.4-2.4-2.4h-7.7425q-2.4 0-2.4 2.4z" clip-path="url(#a)" fill="#fff" stroke="#fff"/>
<g clip-path="url(#a)">
<g transform="translate(303.54 569.85) rotate(90) scale(.08 -.08)">
<use xlink:href="#l"/>
<use x="44.083984" xlink:href="#d"/>
<use x="105.607422" xlink:href="#g"/>
<use x="144.970703" xlink:href="#i"/>
<use x="242.382812" xlink:href="#j"/>
<use x="270.166016" xlink:href="#f"/>
<use x="333.544922" xlink:href="#h"/>
<use x="394.824219" xlink:href="#k"/>
</g>
</g>
<path d="m72.295 491.02 1.1035-6.0997q0.42726-2.3617-1.9344-2.7889l-7.6188-1.3783q-2.3617-0.42726-2.7889 1.9344l-1.1035 6.0997q-0.42726 2.3617 1.9344 2.7889l7.6188 1.3783q2.3617 0.42726 2.7889-1.9344z" clip-path="url(#a)" fill="#fff" stroke="#fff"/>
<g clip-path="url(#a)">
<g transform="translate(68.296 490.29) rotate(-79.745) scale(.08 -.08)">
<defs>
<path id="ap" d="m59.516 10.406v19.578h-16.109v8.1094h25.875v-31.312q-5.7031-4.0469-12.594-6.125-6.875-2.0781-14.688-2.0781-17.094 0-26.75 9.9844-9.6406 10-9.6406 27.812 0 17.875 9.6406 27.859 9.6562 9.9844 26.75 9.9844 7.125 0 13.547-1.7656 6.4219-1.75 11.844-5.1719v-10.5q-5.4688 4.6406-11.625 6.9844t-12.938 2.3438q-13.391 0-20.109-7.4688-6.7031-7.4688-6.7031-22.266 0-14.75 6.7031-22.219 6.7188-7.4688 20.109-7.4688 5.2188 0 9.3125 0.90625 4.1094 0.90625 7.375 2.8125z"/>
</defs>
<use xlink:href="#ap"/>
</g>
</g>
<path d="m71.858 484.43 0.26968 5.4658q0.11827 2.3971 2.5154 2.2788l7.7331-0.38155q2.3971-0.11827 2.2788-2.5154l-0.26968-5.4659q-0.11827-2.3971-2.5154-2.2788l-7.7331 0.38155q-2.3971 0.11827-2.2788 2.5154z" clip-path="url(#a)" fill="#fff" stroke="#fff"/>
<g clip-path="url(#a)">
<g transform="translate(75.917 484.22) rotate(87.175) scale(.08 -.08)">
<use xlink:href="#o"/>
</g>
</g>
<path d="m79.892 485.8 1.0086 4.7171q0.50179 2.347 2.8488 1.8452l7.5714-1.6188q2.347-0.50179 1.8452-2.8488l-1.0086-4.7171q-0.50179-2.347-2.8488-1.8452l-7.5714 1.6188q-2.347 0.50179-1.8452 2.8488z" clip-path="url(#a)" fill="#fff" stroke="#fff"/>
<g clip-path="url(#a)">
<g transform="translate(83.866 484.95) rotate(77.932) scale(.08 -.08)">
<use xlink:href="#t"/>
</g>
</g>
<path d="m77.649 490.28 0.47986-5.8353q0.1967-2.3919-2.1952-2.5886l-7.7165-0.63455q-2.3919-0.1967-2.5886 2.1952l-0.47986 5.8353q-0.1967 2.3919 2.1952 2.5886l7.7165 0.63455q2.3919 0.1967 2.5886-2.1952z" clip-path="url(#a)" fill="#fff" stroke="#fff"/>
<g clip-path="url(#a)">
<g transform="translate(73.599 489.95) rotate(-85.299) scale(.08 -.08)">
<use xlink:href="#q"/>
</g>
</g>
<path d="m409.48 604.68 8.2036-32.797q0.58237-2.3283-1.7459-2.9106l-7.5111-1.8788q-2.3283-0.58237-2.9106 1.7459l-8.2036 32.797q-0.58237 2.3283 1.7459 2.9106l7.5111 1.8788q2.3283 0.58237 2.9106-1.7459z" clip-path="url(#a)" fill="#fff" stroke="#fff"/>
<g clip-path="url(#a)">
<g transform="translate(405.54 603.69) rotate(-75.957) scale(.08 -.08)">
<use xlink:href="#l"/>
<use x="44.083984" xlink:href="#d"/>
<use x="105.607422" xlink:href="#g"/>
<use x="144.970703" xlink:href="#i"/>
<use x="242.382812" xlink:href="#j"/>
<use x="270.166016" xlink:href="#f"/>
<use x="333.544922" xlink:href="#h"/>
<use x="394.824219" xlink:href="#k"/>
</g>
</g>
<path d="m422.13 571.88 8.2036 32.797q0.58237 2.3283 2.9106 1.7459l7.5111-1.8788q2.3283-0.58237 1.7459-2.9106l-8.2036-32.797q-0.58237-2.3283-2.9106-1.7459l-7.5111 1.8788q-2.3283 0.58237-1.7459 2.9106z" clip-path="url(#a)" fill="#fff" stroke="#fff"/>
<g clip-path="url(#a)">
<g transform="translate(426.07 570.89) rotate(75.957) scale(.08 -.08)">
<use xlink:href="#l"/>
<use x="44.083984" xlink:href="#d"/>
<use x="105.607422" xlink:href="#g"/>
<use x="144.970703" xlink:href="#i"/>
<use x="242.382812" xlink:href="#j"/>
<use x="270.166016" xlink:href="#f"/>
<use x="333.544922" xlink:href="#h"/>
<use x="394.824219" xlink:href="#k"/>
</g>
</g>
<path d="m568.74 392.01 3.38-4.304q1.4823-1.8875-0.40521-3.3698l-6.0892-4.782q-1.8875-1.4823-3.3698 0.40521l-3.38 4.304q-1.4823 1.8875 0.40521 3.3698l6.0892 4.782q1.8875 1.4823 3.3698-0.40521z" clip-path="url(#a)" fill="#fff" stroke="#fff"/>
<g clip-path="url(#a)">
<g transform="translate(565.55 389.5) rotate(-51.857) scale(.08 -.08)">
<use xlink:href="#o"/>
</g>
</g>
<path d="m602.97 433.81 0.22423 5.4679q0.098339 2.398 2.4963 2.2996l7.736-0.31725q2.398-0.098339 2.2996-2.4963l-0.22423-5.4679q-0.098339-2.398-2.4963-2.2996l-7.736 0.31725q-2.398 0.098339-2.2996 2.4963z" clip-path="url(#a)" fill="#fff" stroke="#fff"/>
<g clip-path="url(#a)">
<g transform="translate(607.03 433.64) rotate(87.652) scale(.08 -.08)">
<use xlink:href="#o"/>
</g>
</g>
<path d="m634.06 436.1 1.6044 4.5491q0.79824 2.2634 3.0616 1.4651l7.3017-2.5752q2.2634-0.79824 1.4651-3.0616l-1.6044-4.5491q-0.79824-2.2634-3.0616-1.4651l-7.3017 2.5752q-2.2634 0.79824-1.4651 3.0616z" clip-path="url(#a)" fill="#fff" stroke="#fff"/>
<g clip-path="url(#a)">
<g transform="translate(637.89 434.75) rotate(70.573) scale(.08 -.08)">
<use xlink:href="#t"/>
</g>
</g>
<path d="m736.26 569.85v33.808q0 2.4 2.4 2.4h7.7425q2.4 0 2.4-2.4v-33.808q0-2.4-2.4-2.4h-7.7425q-2.4 0-2.4 2.4z" clip-path="url(#a)" fill="#fff" stroke="#fff"/>
<g clip-path="url(#a)">
<g transform="translate(740.32 569.85) rotate(90) scale(.08 -.08)">
<use xlink:href="#l"/>
<use x="44.083984" xlink:href="#d"/>
<use x="105.607422" xlink:href="#g"/>
<use x="144.970703" xlink:href="#i"/>
<use x="242.382812" xlink:href="#j"/>
<use x="270.166016" xlink:href="#f"/>
<use x="333.544922" xlink:href="#h"/>
<use x="394.824219" xlink:href="#k"/>
</g>
</g>
<path d="m940.26 490.92 1.0159-6.0757q0.3958-2.3671-1.9713-2.7629l-7.6365-1.2769q-2.3671-0.3958-2.7629 1.9713l-1.0159 6.0757q-0.3958 2.3671 1.9713 2.7629l7.6365 1.2769q2.3671 0.3958 2.7629-1.9713z" clip-path="url(#a)" fill="#fff" stroke="#fff"/>
<g clip-path="url(#a)">
<g transform="translate(936.26 490.25) rotate(-80.508) scale(.08 -.08)">
<use xlink:href="#aa"/>
</g>
</g>
<path d="m917.96 492.36 2.7399-4.7372q1.2016-2.0775-0.87594-3.2791l-6.7022-3.8764q-2.0775-1.2016-3.2791 0.87595l-2.7399 4.7372q-1.2016 2.0775 0.87595 3.2791l6.7022 3.8764q2.0775 1.2016 3.2791-0.87595z" clip-path="url(#a)" fill="#fff" stroke="#fff"/>
<g clip-path="url(#a)">
<g transform="translate(914.45 490.32) rotate(-59.956) scale(.08 -.08)">
<use xlink:href="#o"/>
</g>
</g>
<path d="m945.36 485.57 0.84613 4.749q0.42098 2.3628 2.7838 1.9418l7.6225-1.3581q2.3628-0.42098 1.9418-2.7838l-0.84613-4.749q-0.42098-2.3628-2.7838-1.9418l-7.6225 1.3581q-2.3628 0.42098-1.9418 2.7838z" clip-path="url(#a)" fill="#fff" stroke="#fff"/>
<g clip-path="url(#a)">
<g transform="translate(949.36 484.86) rotate(79.898) scale(.08 -.08)">
<use xlink:href="#t"/>
</g>
</g>
<path d="m747.38 493.61 5.2983-1.3699q2.3236-0.60077 1.7228-2.9244l-1.9381-7.496q-0.60077-2.3236-2.9244-1.7228l-5.2983 1.3699q-2.3236 0.60077-1.7228 2.9244l1.9381 7.496q0.60077 2.3236 2.9244 1.7228z" clip-path="url(#a)" fill="#fff" stroke="#fff"/>
<g clip-path="url(#a)">
<g transform="translate(746.36 489.67) rotate(-14.496) scale(.08 -.08)">
<use xlink:href="#o"/>
</g>
</g>
<path d="m1027.4 490.9 5.1114 2.8556q2.0952 1.1705 3.2657-0.92466l3.7762-6.7592q1.1705-2.0952-0.92466-3.2657l-5.1114-2.8556q-2.0952-1.1705-3.2657 0.92466l-3.7762 6.7592q-1.1705 2.0952 0.92466 3.2657z" clip-path="url(#a)" fill="#fff" stroke="#fff"/>
<g clip-path="url(#a)">
<g transform="translate(1029.4 487.35) rotate(29.191) scale(.08 -.08)">
<use xlink:href="#q"/>
</g>
</g>
<path d="m1071.1 491.68 5.4767 2.0705q2.2449 0.84869 3.0936-1.3962l2.7379-7.2422q0.84869-2.2449-1.3962-3.0936l-5.4767-2.0705q-2.2449-0.84869-3.0936 1.3962l-2.7379 7.2422q-0.84869 2.2449 1.3962 3.0936z" clip-path="url(#a)" fill="#fff" stroke="#fff"/>
<g clip-path="url(#a)">
<g transform="translate(1072.5 487.88) rotate(20.709) scale(.08 -.08)">
<use xlink:href="#q"/>
</g>
</g>
<path d="m860.45 602.58 25.517-22.177q1.8115-1.5744 0.23711-3.3858l-5.0789-5.8439q-1.5744-1.8115-3.3858-0.23711l-25.517 22.177q-1.8115 1.5744-0.23711 3.3858l5.0789 5.8439q1.5744 1.8115 3.3858 0.23711z" clip-path="url(#a)" fill="#fff" stroke="#fff"/>
<g clip-path="url(#a)">
<g transform="translate(857.79 599.51) rotate(-40.994) scale(.08 -.08)">
<use xlink:href="#l"/>
<use x="44.083984" xlink:href="#d"/>
<use x="105.607422" xlink:href="#g"/>
<use x="144.970703" xlink:href="#i"/>
<use x="242.382812" xlink:href="#j"/>
<use x="270.166016" xlink:href="#f"/>
<use x="333.544922" xlink:href="#h"/>
<use x="394.824219" xlink:href="#k"/>
</g>
</g>
<path d="m966.38 580.4 25.517 22.177q1.8115 1.5744 3.3858-0.23711l5.0789-5.8439q1.5744-1.8115-0.2371-3.3858l-25.517-22.177q-1.8115-1.5744-3.3858 0.23711l-5.0789 5.8439q-1.5744 1.8115 0.23711 3.3858z" clip-path="url(#a)" fill="#fff" stroke="#fff"/>
<g clip-path="url(#a)">
<g transform="translate(969.05 577.33) rotate(40.994) scale(.08 -.08)">
<use xlink:href="#l"/>
<use x="44.083984" xlink:href="#d"/>
<use x="105.607422" xlink:href="#g"/>
<use x="144.970703" xlink:href="#i"/>
<use x="242.382812" xlink:href="#j"/>
<use x="270.166016" xlink:href="#f"/>
<use x="333.544922" xlink:href="#h"/>
<use x="394.824219" xlink:href="#k"/>
</g>
</g>
<path d="m878.54 569.85v33.808q0 2.4 2.4 2.4h7.7425q2.4 0 2.4-2.4v-33.808q0-2.4-2.4-2.4h-7.7425q-2.4 0-2.4 2.4z" clip-path="url(#a)" fill="#fff" stroke="#fff"/>
<g clip-path="url(#a)">
<g transform="translate(882.61 569.85) rotate(90) scale(.08 -.08)">
<use xlink:href="#l"/>
<use x="44.083984" xlink:href="#d"/>
<use x="105.607422" xlink:href="#g"/>
<use x="144.970703" xlink:href="#i"/>
<use x="242.382812" xlink:href="#j"/>
<use x="270.166016" xlink:href="#f"/>
<use x="333.544922" xlink:href="#h"/>
<use x="394.824219" xlink:href="#k"/>
</g>
</g>
<path d="m954.65 569.85v33.808q0 2.4 2.4 2.4h7.7425q2.4 0 2.4-2.4v-33.808q0-2.4-2.4-2.4h-7.7425q-2.4 0-2.4 2.4z" clip-path="url(#a)" fill="#fff" stroke="#fff"/>
<g clip-path="url(#a)">
<g transform="translate(958.71 569.85) rotate(90) scale(.08 -.08)">
<use xlink:href="#l"/>
<use x="44.083984" xlink:href="#d"/>
<use x="105.607422" xlink:href="#g"/>
<use x="144.970703" xlink:href="#i"/>
<use x="242.382812" xlink:href="#j"/>
<use x="270.166016" xlink:href="#f"/>
<use x="333.544922" xlink:href="#h"/>
<use x="394.824219" xlink:href="#k"/>
</g>
</g>
<path d="m517.15 490.75 1.239-4.4313q0.64624-2.3114-1.6651-2.9576l-7.4565-2.0848q-2.3114-0.64624-2.9576 1.6651l-1.239 4.4313q-0.64624 2.3114 1.6651 2.9576l7.4565 2.0848q2.3114 0.64624 2.9576-1.6651z" clip-path="url(#a)" fill="#fff" stroke="#fff"/>
<g clip-path="url(#a)">
<g transform="translate(513.24 489.66) rotate(-74.379) scale(.08 -.08)">
<defs>
<path id="aq" d="m9.8125 72.906h41.891v-8.3125h-32.031v-21.484h28.906v-8.2969h-28.906v-34.812h-9.8594z"/>
</defs>
<use xlink:href="#aq"/>
</g>
</g>
<path d="m533.06 485.85 1.5042 5.3799q0.64624 2.3114 2.9576 1.6651l7.4565-2.0848q2.3114-0.64624 1.6651-2.9576l-1.5042-5.3799q-0.64624-2.3114-2.9576-1.6651l-7.4565 2.0848q-2.3114 0.64624-1.6651 2.9576z" clip-path="url(#a)" fill="#fff" stroke="#fff"/>
<g clip-path="url(#a)">
<g transform="translate(536.98 484.75) rotate(74.379) scale(.08 -.08)">
<use xlink:href="#ah"/>
</g>
</g>
<path d="m607.21 569.85v33.808q0 2.4 2.4 2.4h7.7425q2.4 0 2.4-2.4v-33.808q0-2.4-2.4-2.4h-7.7425q-2.4 0-2.4 2.4z" clip-path="url(#a)" fill="#fff" stroke="#fff"/>
<g clip-path="url(#a)">
<g transform="translate(611.27 569.85) rotate(90) scale(.08 -.08)">
<use xlink:href="#l"/>
<use x="44.083984" xlink:href="#d"/>
<use x="105.607422" xlink:href="#g"/>
<use x="144.970703" xlink:href="#i"/>
<use x="242.382812" xlink:href="#j"/>
<use x="270.166016" xlink:href="#f"/>
<use x="333.544922" xlink:href="#h"/>
<use x="394.824219" xlink:href="#k"/>
</g>
</g>
<path d="m670.08 569.85v33.808q0 2.4 2.4 2.4h7.7425q2.4 0 2.4-2.4v-33.808q0-2.4-2.4-2.4h-7.7425q-2.4 0-2.4 2.4z" clip-path="url(#a)" fill="#fff" stroke="#fff"/>
<g clip-path="url(#a)">
<g transform="translate(674.14 569.85) rotate(90) scale(.08 -.08)">
<use xlink:href="#l"/>
<use x="44.083984" xlink:href="#d"/>
<use x="105.607422" xlink:href="#g"/>
<use x="144.970703" xlink:href="#i"/>
<use x="242.382812" xlink:href="#j"/>
<use x="270.166016" xlink:href="#f"/>
<use x="333.544922" xlink:href="#h"/>
<use x="394.824219" xlink:href="#k"/>
</g>
</g>
<path d="m491.4 569.85v33.808q0 2.4 2.4 2.4h7.7425q2.4 0 2.4-2.4v-33.808q0-2.4-2.4-2.4h-7.7425q-2.4 0-2.4 2.4z" clip-path="url(#a)" fill="#fff" stroke="#fff"/>
<g clip-path="url(#a)">
<g transform="translate(495.46 569.85) rotate(90) scale(.08 -.08)">
<use xlink:href="#l"/>
<use x="44.083984" xlink:href="#d"/>
<use x="105.607422" xlink:href="#g"/>
<use x="144.970703" xlink:href="#i"/>
<use x="242.382812" xlink:href="#j"/>
<use x="270.166016" xlink:href="#f"/>
<use x="333.544922" xlink:href="#h"/>
<use x="394.824219" xlink:href="#k"/>
</g>
</g>
<path d="m547.65 569.85v33.808q0 2.4 2.4 2.4h7.7425q2.4 0 2.4-2.4v-33.808q0-2.4-2.4-2.4h-7.7425q-2.4 0-2.4 2.4z" clip-path="url(#a)" fill="#fff" stroke="#fff"/>
<g clip-path="url(#a)">
<g transform="translate(551.71 569.85) rotate(90) scale(.08 -.08)">
<use xlink:href="#l"/>
<use x="44.083984" xlink:href="#d"/>
<use x="105.607422" xlink:href="#g"/>
<use x="144.970703" xlink:href="#i"/>
<use x="242.382812" xlink:href="#j"/>
<use x="270.166016" xlink:href="#f"/>
<use x="333.544922" xlink:href="#h"/>
<use x="394.824219" xlink:href="#k"/>
</g>
</g>
<path d="m51.305 569.85v33.808q0 2.4 2.4 2.4h7.7425q2.4 0 2.4-2.4v-33.808q0-2.4-2.4-2.4h-7.7425q-2.4 0-2.4 2.4z" clip-path="url(#a)" fill="#fff" stroke="#fff"/>
<g clip-path="url(#a)">
<g transform="translate(55.368 569.85) rotate(90) scale(.08 -.08)">
<use xlink:href="#l"/>
<use x="44.083984" xlink:href="#d"/>
<use x="105.607422" xlink:href="#g"/>
<use x="144.970703" xlink:href="#i"/>
<use x="242.382812" xlink:href="#j"/>
<use x="270.166016" xlink:href="#f"/>
<use x="333.544922" xlink:href="#h"/>
<use x="394.824219" xlink:href="#k"/>
</g>
</g>
<path d="m74.467 569.85v33.808q0 2.4 2.4 2.4h7.7425q2.4 0 2.4-2.4v-33.808q0-2.4-2.4-2.4h-7.7425q-2.4 0-2.4 2.4z" clip-path="url(#a)" fill="#fff" stroke="#fff"/>
<g clip-path="url(#a)">
<g transform="translate(78.531 569.85) rotate(90) scale(.08 -.08)">
<use xlink:href="#l"/>
<use x="44.083984" xlink:href="#d"/>
<use x="105.607422" xlink:href="#g"/>
<use x="144.970703" xlink:href="#i"/>
<use x="242.382812" xlink:href="#j"/>
<use x="270.166016" xlink:href="#f"/>
<use x="333.544922" xlink:href="#h"/>
<use x="394.824219" xlink:href="#k"/>
</g>
</g>
<path d="m91.012 569.85v33.808q0 2.4 2.4 2.4h7.7425q2.4 0 2.4-2.4v-33.808q0-2.4-2.4-2.4h-7.7425q-2.4 0-2.4 2.4z" clip-path="url(#a)" fill="#fff" stroke="#fff"/>
<g clip-path="url(#a)">
<g transform="translate(95.076 569.85) rotate(90) scale(.08 -.08)">
<use xlink:href="#l"/>
<use x="44.083984" xlink:href="#d"/>
<use x="105.607422" xlink:href="#g"/>
<use x="144.970703" xlink:href="#i"/>
<use x="242.382812" xlink:href="#j"/>
<use x="270.166016" xlink:href="#f"/>
<use x="333.544922" xlink:href="#h"/>
<use x="394.824219" xlink:href="#k"/>
</g>
</g>
<path d="m61.231 569.85v33.808q0 2.4 2.4 2.4h7.7425q2.4 0 2.4-2.4v-33.808q0-2.4-2.4-2.4h-7.7425q-2.4 0-2.4 2.4z" clip-path="url(#a)" fill="#fff" stroke="#fff"/>
<g clip-path="url(#a)">
<g transform="translate(65.295 569.85) rotate(90) scale(.08 -.08)">
<use xlink:href="#l"/>
<use x="44.083984" xlink:href="#d"/>
<use x="105.607422" xlink:href="#g"/>
<use x="144.970703" xlink:href="#i"/>
<use x="242.382812" xlink:href="#j"/>
<use x="270.166016" xlink:href="#f"/>
<use x="333.544922" xlink:href="#h"/>
<use x="394.824219" xlink:href="#k"/>
</g>
</g>
<path d="m110.87 569.85v33.808q0 2.4 2.4 2.4h7.7425q2.4 0 2.4-2.4v-33.808q0-2.4-2.4-2.4h-7.7425q-2.4 0-2.4 2.4z" clip-path="url(#a)" fill="#fff" stroke="#fff"/>
<g clip-path="url(#a)">
<g transform="translate(114.93 569.85) rotate(90) scale(.08 -.08)">
<use xlink:href="#l"/>
<use x="44.083984" xlink:href="#d"/>
<use x="105.607422" xlink:href="#g"/>
<use x="144.970703" xlink:href="#i"/>
<use x="242.382812" xlink:href="#j"/>
<use x="270.166016" xlink:href="#f"/>
<use x="333.544922" xlink:href="#h"/>
<use x="394.824219" xlink:href="#k"/>
</g>
</g>
<path d="m190.28 569.85v33.808q0 2.4 2.4 2.4h7.7425q2.4 0 2.4-2.4v-33.808q0-2.4-2.4-2.4h-7.7425q-2.4 0-2.4 2.4z" clip-path="url(#a)" fill="#fff" stroke="#fff"/>
<g clip-path="url(#a)">
<g transform="translate(194.34 569.85) rotate(90) scale(.08 -.08)">
<use xlink:href="#l"/>
<use x="44.083984" xlink:href="#d"/>
<use x="105.607422" xlink:href="#g"/>
<use x="144.970703" xlink:href="#i"/>
<use x="242.382812" xlink:href="#j"/>
<use x="270.166016" xlink:href="#f"/>
<use x="333.544922" xlink:href="#h"/>
<use x="394.824219" xlink:href="#k"/>
</g>
</g>
<path d="m342.49 569.85v33.808q0 2.4 2.4 2.4h7.7425q2.4 0 2.4-2.4v-33.808q0-2.4-2.4-2.4h-7.7425q-2.4 0-2.4 2.4z" clip-path="url(#a)" fill="#fff" stroke="#fff"/>
<g clip-path="url(#a)">
<g transform="translate(346.56 569.85) rotate(90) scale(.08 -.08)">
<use xlink:href="#l"/>
<use x="44.083984" xlink:href="#d"/>
<use x="105.607422" xlink:href="#g"/>
<use x="144.970703" xlink:href="#i"/>
<use x="242.382812" xlink:href="#j"/>
<use x="270.166016" xlink:href="#f"/>
<use x="333.544922" xlink:href="#h"/>
<use x="394.824219" xlink:href="#k"/>
</g>
</g>
<path d="m1116.8 569.85v33.808q0 2.4 2.4 2.4h7.7425q2.4 0 2.4-2.4v-33.808q0-2.4-2.4-2.4h-7.7425q-2.4 0-2.4 2.4z" clip-path="url(#a)" fill="#fff" stroke="#fff"/>
<g clip-path="url(#a)">
<g transform="translate(1120.9 569.85) rotate(90) scale(.08 -.08)">
<use xlink:href="#l"/>
<use x="44.083984" xlink:href="#d"/>
<use x="105.607422" xlink:href="#g"/>
<use x="144.970703" xlink:href="#i"/>
<use x="242.382812" xlink:href="#j"/>
<use x="270.166016" xlink:href="#f"/>
<use x="333.544922" xlink:href="#h"/>
<use x="394.824219" xlink:href="#k"/>
</g>
</g>
<path d="m1202.8 569.85v33.808q0 2.4 2.4 2.4h7.7425q2.4 0 2.4-2.4v-33.808q0-2.4-2.4-2.4h-7.7425q-2.4 0-2.4 2.4z" clip-path="url(#a)" fill="#fff" stroke="#fff"/>
<g clip-path="url(#a)">
<g transform="translate(1206.9 569.85) rotate(90) scale(.08 -.08)">
<use xlink:href="#l"/>
<use x="44.083984" xlink:href="#d"/>
<use x="105.607422" xlink:href="#g"/>
<use x="144.970703" xlink:href="#i"/>
<use x="242.382812" xlink:href="#j"/>
<use x="270.166016" xlink:href="#f"/>
<use x="333.544922" xlink:href="#h"/>
<use x="394.824219" xlink:href="#k"/>
</g>
</g>
<defs>
<path id="b" d="m0 8.6603c2.2967 0 4.4997-0.9125 6.1237-2.5365 1.624-1.624 2.5365-3.827 2.5365-6.1237s-0.9125-4.4997-2.5365-6.1237c-1.624-1.624-3.827-2.5365-6.1237-2.5365s-4.4997 0.9125-6.1237 2.5365c-1.624 1.624-2.5365 3.827-2.5365 6.1237s0.9125 4.4997 2.5365 6.1237c1.624 1.624 3.827 2.5365 6.1237 2.5365z"/>
</defs>
<g clip-path="url(#a)" fill="#ffffff" stroke="#ffffff">
<use x="57.575758" y="636.363636" xlink:href="#b"/>
<use x="67.502612" y="636.363636" xlink:href="#b"/>
<use x="80.738419" y="636.363636" xlink:href="#b"/>
<use x="97.283177" y="636.363636" xlink:href="#b"/>
<use x="117.136886" y="636.363636" xlink:href="#b"/>
<use x="140.299547" y="636.363636" xlink:href="#b"/>
<use x="166.77116" y="636.363636" xlink:href="#b"/>
<use x="196.551724" y="636.363636" xlink:href="#b"/>
<use x="229.64124" y="636.363636" xlink:href="#b"/>
<use x="266.039707" y="636.363636" xlink:href="#b"/>
<use x="305.747126" y="636.363636" xlink:href="#b"/>
<use x="348.763497" y="636.363636" xlink:href="#b"/>
<use x="395.088819" y="636.363636" xlink:href="#b"/>
<use x="444.723093" y="636.363636" xlink:href="#b"/>
<use x="497.666318" y="636.363636" xlink:href="#b"/>
<use x="553.918495" y="636.363636" xlink:href="#b"/>
<use x="613.479624" y="636.363636" xlink:href="#b"/>
<use x="676.349704" y="636.363636" xlink:href="#b"/>
<use x="742.528736" y="636.363636" xlink:href="#b"/>
<use x="812.016719" y="636.363636" xlink:href="#b"/>
<use x="884.813654" y="636.363636" xlink:href="#b"/>
<use x="960.91954" y="636.363636" xlink:href="#b"/>
<use x="1040.334378" y="636.363636" xlink:href="#b"/>
<use x="1123.058168" y="636.363636" xlink:href="#b"/>
<use x="1209.090909" y="636.363636" xlink:href="#b"/>
<use x="273.054685" y="30.30303" xlink:href="#b"/>
<use x="273.054685" y="132.233108" xlink:href="#b"/>
<use x="557.282596" y="233.958158" xlink:href="#b"/>
<use x="140.299547" y="537.147276" xlink:href="#b"/>
<use x="201.790897" y="335.426517" xlink:href="#b"/>
<use x="166.77116" y="537.147276" xlink:href="#b"/>
<use x="242.049808" y="436.550706" xlink:href="#b"/>
<use x="229.64124" y="537.147276" xlink:href="#b"/>
<use x="266.039707" y="537.147276" xlink:href="#b"/>
<use x="305.747126" y="537.147276" xlink:href="#b"/>
<use x="75.774991" y="436.550706" xlink:href="#b"/>
<use x="419.905956" y="537.147276" xlink:href="#b"/>
<use x="605.207245" y="335.426517" xlink:href="#b"/>
<use x="742.528736" y="537.147276" xlink:href="#b"/>
<use x="942.996052" y="436.550706" xlink:href="#b"/>
<use x="926.175549" y="537.147276" xlink:href="#b"/>
<use x="884.813654" y="537.147276" xlink:href="#b"/>
<use x="960.91954" y="537.147276" xlink:href="#b"/>
<use x="525.792407" y="436.550706" xlink:href="#b"/>
<use x="613.479624" y="537.147276" xlink:href="#b"/>
<use x="676.349704" y="537.147276" xlink:href="#b"/>
<use x="497.666318" y="537.147276" xlink:href="#b"/>
<use x="553.918495" y="537.147276" xlink:href="#b"/>
<use x="57.575758" y="537.147276" xlink:href="#b"/>
<use x="80.738419" y="537.147276" xlink:href="#b"/>
<use x="97.283177" y="537.147276" xlink:href="#b"/>
<use x="67.502612" y="537.147276" xlink:href="#b"/>
<use x="117.136886" y="537.147276" xlink:href="#b"/>
<use x="196.551724" y="537.147276" xlink:href="#b"/>
<use x="348.763497" y="537.147276" xlink:href="#b"/>
<use x="1123.058168" y="537.147276" xlink:href="#b"/>
<use x="1209.090909" y="537.147276" xlink:href="#b"/>
</g>
<g clip-path="url(#a)">
<g transform="translate(49.082 639.12) scale(.1 -.1)">
<defs>
<path id="an" d="m39.406 66.219q-10.75 0-17.078-8.0156-6.3125-8-6.3125-21.828 0-13.766 6.3125-21.781 6.3281-8 17.078-8 10.734 0 17.016 8 6.2812 8.0156 6.2812 21.781 0 13.828-6.2812 21.828-6.2812 8.0156-17.016 8.0156zm0 8q15.328 0 24.5-10.281 9.1875-10.281 9.1875-27.562 0-17.234-9.1875-27.516-9.1719-10.281-24.5-10.281-15.375 0-24.594 10.25-9.2031 10.266-9.2031 27.547t9.2031 27.562q9.2188 10.281 24.594 10.281z"/>
<path id="r" d="m8.5 21.578v33.109h8.9844v-32.766q0-7.7656 3.0156-11.656 3.0312-3.875 9.0938-3.875 7.2656 0 11.484 4.6406 4.2344 4.6406 4.2344 12.656v31h8.9844v-54.688h-8.9844v8.4062q-3.2656-4.9844-7.5938-7.4062-4.3125-2.4219-10.031-2.4219-9.4219 0-14.312 5.8594-4.875 5.8594-4.875 17.141z"/>
</defs>
<use xlink:href="#an"/>
<use x="78.710938" xlink:href="#r"/>
<use x="142.089844" xlink:href="#j"/>
</g>
</g>
<g clip-path="url(#a)">
<g transform="translate(65.914 639.12) scale(.1 -.1)">
<defs>
<path id="y" d="m11.719 12.406h10.297v-8.4062l-8-15.625h-6.2969l4 15.625z"/>
</defs>
<use xlink:href="#y"/>
</g>
</g>
<g clip-path="url(#a)">
<g transform="translate(76.273 639.12) scale(.1 -.1)">
<defs>
<path id="aw" d="m9.4219 54.688h8.9844v-55.672q0-10.438-3.9844-15.125-3.9688-4.6875-12.812-4.6875h-3.4219v7.6094h2.4062q5.125 0 6.9688 2.375 1.8594 2.3594 1.8594 9.8281zm0 21.297h8.9844v-11.391h-8.9844z"/>
</defs>
<use xlink:href="#aw"/>
<use x="27.783203" xlink:href="#d"/>
</g>
</g>
<g clip-path="url(#a)">
<g transform="translate(69.463 639.12) scale(.1 -.1)">
<defs>
<path id="af" d="m48.781 52.594v-8.4062q-3.8125 2.1094-7.6406 3.1562t-7.7344 1.0469q-8.75 0-13.594-5.5469-4.8281-5.5312-4.8281-15.547t4.8281-15.562q4.8438-5.5312 13.594-5.5312 3.9062 0 7.7344 1.0469t7.6406 3.1562v-8.3125q-3.7656-1.75-7.7969-2.625-4.0156-0.89062-8.5625-0.89062-12.359 0-19.641 7.7656-7.2656 7.7656-7.2656 20.953 0 13.375 7.3438 21.031 7.3594 7.6719 20.156 7.6719 4.1406 0 8.0938-0.85938 3.9531-0.84375 7.6719-2.5469z"/>
<path id="ae" d="m30.609 48.391q-7.2188 0-11.422-5.6406t-4.2031-15.453 4.1719-15.453q4.1875-5.6406 11.453-5.6406 7.1875 0 11.375 5.6562 4.2031 5.6719 4.2031 15.438 0 9.7188-4.2031 15.406-4.1875 5.6875-11.375 5.6875zm0 7.6094q11.719 0 18.406-7.625 6.7031-7.6094 6.7031-21.078 0-13.422-6.7031-21.078-6.6875-7.6406-18.406-7.6406-11.766 0-18.438 7.6406-6.6562 7.6562-6.6562 21.078 0 13.469 6.6562 21.078 6.6719 7.625 18.438 7.625z"/>
<path id="s" d="m18.109 8.2031v-29h-9.0312v75.484h9.0312v-8.2969q2.8438 4.875 7.1562 7.2344 4.3281 2.375 10.328 2.375 9.9688 0 16.188-7.9062 6.2344-7.9062 6.2344-20.797t-6.2344-20.812q-6.2188-7.9062-16.188-7.9062-6 0-10.328 2.375-4.3125 2.375-7.1562 7.25zm30.578 19.094q0 9.9062-4.0781 15.547t-11.203 5.6406q-7.1406 0-11.219-5.6406t-4.0781-15.547 4.0781-15.547 11.219-5.6406q7.125 0 11.203 5.6406t4.0781 15.547z"/>
<path id="z" d="m45.406 46.391v29.594h8.9844v-75.984h-8.9844v8.2031q-2.8281-4.875-7.1562-7.25-4.3125-2.375-10.375-2.375-9.9062 0-16.141 7.9062-6.2188 7.9219-6.2188 20.812t6.2188 20.797q6.2344 7.9062 16.141 7.9062 6.0625 0 10.375-2.375 4.3281-2.3594 7.1562-7.2344zm-30.609-19.094q0-9.9062 4.0781-15.547t11.203-5.6406 11.219 5.6406q4.1094 5.6406 4.1094 15.547t-4.1094 15.547q-4.0938 5.6406-11.219 5.6406t-11.203-5.6406-4.0781-15.547z"/>
<path id="ad" d="m44.281 53.078v-8.5q-3.7969 1.9531-7.9062 2.9219-4.0938 0.98438-8.5 0.98438-6.6875 0-10.031-2.0469t-3.3438-6.1562q0-3.125 2.3906-4.9062t9.625-3.3906l3.0781-0.6875q9.5625-2.0469 13.594-5.7812t4.0312-10.422q0-7.625-6.0312-12.078-6.0312-4.4375-16.578-4.4375-4.3906 0-9.1562 0.85938t-10.031 2.5625v9.2812q4.9844-2.5938 9.8125-3.8906 4.8281-1.2812 9.5781-1.2812 6.3438 0 9.75 2.1719 3.4219 2.1719 3.4219 6.125 0 3.6562-2.4688 5.6094-2.4531 1.9531-10.812 3.7656l-3.125 0.73438q-8.3438 1.75-12.062 5.3906-3.7031 3.6406-3.7031 9.9844 0 7.7188 5.4688 11.906 5.4688 4.2031 15.531 4.2031 4.9688 0 9.3594-0.73438 4.4062-0.71875 8.1094-2.1875z"/>
</defs>
<use xlink:href="#af"/>
<use x="54.980469" xlink:href="#ae"/>
<use x="116.162109" xlink:href="#i"/>
<use x="213.574219" xlink:href="#s"/>
<use x="277.050781" xlink:href="#g"/>
<use x="315.914062" xlink:href="#d"/>
<use x="377.4375" xlink:href="#f"/>
<use x="440.816406" xlink:href="#z"/>
<use x="504.292969" xlink:href="#ad"/>
</g>
</g>
<g clip-path="url(#a)">
<g transform="translate(115.55 639.12) scale(.1 -.1)">
<use xlink:href="#y"/>
</g>
</g>
<g clip-path="url(#a)">
<g transform="translate(119.35 639.32) scale(.1 -.1)">
<defs>
<path id="al" d="m56.203 29.594v-4.3906h-41.312q0.59375-9.2812 5.5938-14.141t13.938-4.8594q5.1719 0 10.031 1.2656t9.6562 3.8125v-8.5q-4.8438-2.0469-9.9219-3.125t-10.297-1.0781q-13.094 0-20.734 7.6094-7.6406 7.625-7.6406 20.625 0 13.422 7.25 21.297 7.25 7.8906 19.562 7.8906 11.031 0 17.453-7.1094 6.4219-7.0938 6.4219-19.297zm-8.9844 2.6406q-0.09375 7.3594-4.125 11.75-4.0312 4.4062-10.672 4.4062-7.5156 0-12.031-4.25t-5.2031-11.969zm-8.6875 47.75h9.7188l-15.906-18.359h-7.4844z"/>
<path id="p" d="m18.312 70.219v-15.531h18.5v-6.9844h-18.5v-29.688q0-6.6875 1.8281-8.5938t7.4531-1.9062h9.2188v-7.5156h-9.2188q-10.406 0-14.359 3.875-3.9531 3.8906-3.9531 14.141v29.688h-6.5938v6.9844h6.5938v15.531z"/>
</defs>
<use xlink:href="#g"/>
<use x="38.863281" xlink:href="#al"/>
<use x="100.386719" xlink:href="#s"/>
<use x="163.863281" xlink:href="#ae"/>
<use x="225.044922" xlink:href="#f"/>
<use x="288.423828" xlink:href="#z"/>
<use x="351.900391" xlink:href="#j"/>
<use x="379.683594" xlink:href="#p"/>
</g>
</g>
<g clip-path="url(#a)">
<g transform="translate(156.78 639.12) scale(.1 -.1)">
<defs>
<path id="ao" d="m9.8125 72.906h13.281l32.328-60.984v60.984h9.5625v-72.906h-13.281l-32.312 60.984v-60.984h-9.5781z"/>
</defs>
<use xlink:href="#ao"/>
<use x="74.804688" xlink:href="#d"/>
<use x="136.328125" xlink:href="#z"/>
</g>
</g>
<g clip-path="url(#a)">
<g transform="translate(194.96 639.12) scale(.1 -.1)">
<use xlink:href="#y"/>
</g>
</g>
<g clip-path="url(#a)">
<g transform="translate(211.02 639.12) scale(.1 -.1)">
<defs>
<path id="au" d="m2.9844 54.688h9.5156l17.094-45.891 17.094 45.891h9.5156l-20.516-54.688h-12.203z"/>
</defs>
<use xlink:href="#z"/>
<use x="63.476562" xlink:href="#d"/>
<use x="125" xlink:href="#au"/>
<use x="184.179688" xlink:href="#d"/>
<use x="245.703125" xlink:href="#f"/>
<use x="309.082031" xlink:href="#r"/>
</g>
</g>
<g clip-path="url(#a)">
<g transform="translate(255.7 639.12) scale(.1 -.1)">
<use xlink:href="#s"/>
<use x="63.476562" xlink:href="#k"/>
<use x="91.259766" xlink:href="#r"/>
<use x="154.638672" xlink:href="#ad"/>
</g>
</g>
<g clip-path="url(#a)">
<g transform="translate(287.41 639.12) scale(.1 -.1)">
<defs>
<path id="ax" d="m37.109 75.984v-7.4844h-8.5938q-4.8281 0-6.7188-1.9531-1.875-1.9531-1.875-7.0312v-4.8281h14.797v-6.9844h-14.797v-47.703h-9.0312v47.703h-8.5938v6.9844h8.5938v3.8125q0 9.125 4.25 13.297 4.25 4.1875 13.469 4.1875z"/>
</defs>
<use xlink:href="#h"/>
<use x="61.279297" xlink:href="#p"/>
<use x="100.488281" xlink:href="#p"/>
<use x="139.697266" xlink:href="#d"/>
<use x="201.220703" xlink:href="#f"/>
<use x="264.599609" xlink:href="#p"/>
<use x="303.808594" xlink:href="#j"/>
<use x="331.591797" xlink:href="#ax"/>
</g>
</g>
<g clip-path="url(#a)">
<g transform="translate(347.17 639.12) scale(.1 -.1)">
<use xlink:href="#y"/>
</g>
</g>
<g clip-path="url(#a)">
<g transform="translate(381.08 639.12) scale(.1 -.1)">
<use xlink:href="#s"/>
<use x="63.476562" xlink:href="#h"/>
<use x="124.755859" xlink:href="#g"/>
<use x="163.619141" xlink:href="#af"/>
<use x="218.599609" xlink:href="#d"/>
</g>
</g>
<g clip-path="url(#a)">
<g transform="translate(435.3 639.12) scale(.1 -.1)">
<defs>
<path id="av" d="m14.797 27.297q0-9.9062 4.0781-15.547t11.203-5.6406 11.219 5.6406q4.1094 5.6406 4.1094 15.547t-4.1094 15.547q-4.0938 5.6406-11.219 5.6406t-11.203-5.6406-4.0781-15.547zm30.609-19.094q-2.8281-4.875-7.1562-7.25-4.3125-2.375-10.375-2.375-9.9062 0-16.141 7.9062-6.2188 7.9219-6.2188 20.812t6.2188 20.797q6.2344 7.9062 16.141 7.9062 6.0625 0 10.375-2.375 4.3281-2.3594 7.1562-7.2344v8.2969h8.9844v-75.484h-8.9844z"/>
</defs>
<use xlink:href="#av"/>
<use x="63.476562" xlink:href="#r"/>
<use x="126.855469" xlink:href="#d"/>
</g>
</g>
<g clip-path="url(#a)">
<g transform="translate(494.9 639.12) scale(.1 -.1)">
<defs>
<path id="ak" d="m17.922 72.906v-27.109h-8.2969v27.109z"/>
</defs>
<use xlink:href="#k"/>
<use x="27.783203" xlink:href="#ak"/>
</g>
</g>
<g clip-path="url(#a)">
<g transform="translate(544.61 639.12) scale(.1 -.1)">
<use xlink:href="#d"/>
<use x="61.523438" xlink:href="#h"/>
<use x="122.802734" xlink:href="#r"/>
</g>
</g>
<g clip-path="url(#a)">
<g transform="translate(607.24 639.12) scale(.1 -.1)">
<use xlink:href="#i"/>
<use x="97.412109" xlink:href="#ak"/>
</g>
</g>
<g clip-path="url(#a)">
<g transform="translate(656.9 639.12) scale(.1 -.1)">
<use xlink:href="#d"/>
<use x="61.523438" xlink:href="#f"/>
<use x="124.902344" xlink:href="#p"/>
<use x="164.111328" xlink:href="#ae"/>
<use x="225.292969" xlink:href="#r"/>
<use x="288.671875" xlink:href="#g"/>
<use x="327.535156" xlink:href="#d"/>
</g>
</g>
<g clip-path="url(#a)">
<g transform="translate(737.49 639.12) scale(.1 -.1)">
<use xlink:href="#d"/>
<use x="61.523438" xlink:href="#p"/>
</g>
</g>
<g clip-path="url(#a)">
<g transform="translate(805.77 639.12) scale(.1 -.1)">
<use xlink:href="#f"/>
<use x="63.378906" xlink:href="#d"/>
</g>
</g>
<g clip-path="url(#a)">
<g transform="translate(876.87 639.12) scale(.1 -.1)">
<use xlink:href="#i"/>
<use x="97.412109" xlink:href="#d"/>
</g>
</g>
<g clip-path="url(#a)">
<g transform="translate(941.44 639.32) scale(.1 -.1)">
<defs>
<path id="at" d="m56.203 29.594v-4.3906h-41.312q0.59375-9.2812 5.5938-14.141t13.938-4.8594q5.1719 0 10.031 1.2656t9.6562 3.8125v-8.5q-4.8438-2.0469-9.9219-3.125t-10.297-1.0781q-13.094 0-20.734 7.6094-7.6406 7.625-7.6406 20.625 0 13.422 7.25 21.297 7.25 7.8906 19.562 7.8906 11.031 0 17.453-7.1094 6.4219-7.0938 6.4219-19.297zm-8.9844 2.6406q-0.09375 7.3594-4.125 11.75-4.0312 4.4062-10.672 4.4062-7.5156 0-12.031-4.25t-5.2031-11.969zm-22.547 47.75 13.766-18.266h-7.4688l-15.922 18.266z"/>
</defs>
<use xlink:href="#s"/>
<use x="63.476562" xlink:href="#al"/>
<use x="125" xlink:href="#f"/>
<use x="188.378906" xlink:href="#at"/>
<use x="249.902344" xlink:href="#p"/>
<use x="289.111328" xlink:href="#g"/>
<use x="327.974609" xlink:href="#d"/>
</g>
</g>
<g clip-path="url(#a)">
<g transform="translate(1031.5 639.12) scale(.1 -.1)">
<use xlink:href="#s"/>
<use x="63.476562" xlink:href="#h"/>
<use x="124.755859" xlink:href="#ad"/>
</g>
</g>
<g clip-path="url(#a)">
<g transform="translate(1121.5 639.12) scale(.1 -.1)">
<defs>
<path id="e" d="m10.688 12.406h10.312v-12.406h-10.312z"/>
</defs>
<use xlink:href="#e"/>
</g>
</g>
<g clip-path="url(#a)">
<g transform="translate(1207.3 639.12) scale(.1 -.1)">
<defs>
<path id="as" d="m4.8906 31.391h26.312v-8h-26.312z"/>
</defs>
<use xlink:href="#as"/>
</g>
</g>
<g clip-path="url(#a)">
<g transform="translate(265.1 33.062) scale(.1 -.1)">
<defs>
<path id="c" d="m12.406 8.2969h16.109v55.625l-17.531-3.5156v8.9844l17.438 3.5156h9.8594v-64.609h16.109v-8.2969h-41.984z"/>
</defs>
<use xlink:href="#c"/>
<use x="63.623047" xlink:href="#e"/>
<use x="95.410156" xlink:href="#c"/>
</g>
</g>
<g clip-path="url(#a)">
<g transform="translate(265.1 134.99) scale(.1 -.1)">
<defs>
<path id="m" d="m19.188 8.2969h34.422v-8.2969h-46.281v8.2969q5.6094 5.8125 15.297 15.594 9.7031 9.7969 12.188 12.641 4.7344 5.3125 6.6094 9 1.8906 3.6875 1.8906 7.25 0 5.8125-4.0781 9.4688-4.0781 3.6719-10.625 3.6719-4.6406 0-9.7969-1.6094-5.1406-1.6094-11-4.8906v9.9688q5.9531 2.3906 11.125 3.6094 5.1875 1.2188 9.4844 1.2188 11.328 0 18.062-5.6719 6.7344-5.6562 6.7344-15.125 0-4.5-1.6875-8.5312-1.6719-4.0156-6.125-9.4844-1.2188-1.4219-7.7656-8.1875-6.5312-6.7656-18.453-18.922z"/>
</defs>
<use xlink:href="#c"/>
<use x="63.623047" xlink:href="#e"/>
<use x="95.410156" xlink:href="#m"/>
</g>
</g>
<g clip-path="url(#a)">
<g transform="translate(549.33 236.72) scale(.1 -.1)">
<defs>
<path id="x" d="m10.797 72.906h38.719v-8.3125h-29.688v-17.859q2.1406 0.73438 4.2812 1.0938 2.1562 0.35938 4.3125 0.35938 12.203 0 19.328-6.6875 7.1406-6.6875 7.1406-18.109 0-11.766-7.3281-18.297-7.3281-6.5156-20.656-6.5156-4.5938 0-9.3594 0.78125-4.75 0.78125-9.8281 2.3438v9.9219q4.3906-2.3906 9.0781-3.5625t9.9062-1.1719q8.4531 0 13.375 4.4375 4.9375 4.4375 4.9375 12.062 0 7.6094-4.9375 12.047-4.9219 4.4531-13.375 4.4531-3.9531 0-7.8906-0.875-3.9219-0.875-8.0156-2.7344z"/>
</defs>
<use xlink:href="#c"/>
<use x="63.623047" xlink:href="#e"/>
<use x="95.410156" xlink:href="#x"/>
</g>
</g>
<g clip-path="url(#a)">
<g transform="translate(132.35 539.91) scale(.1 -.1)">
<defs>
<path id="w" d="m33.016 40.375q-6.6406 0-10.531-4.5469-3.875-4.5312-3.875-12.438 0-7.8594 3.875-12.438 3.8906-4.5625 10.531-4.5625t10.516 4.5625q3.875 4.5781 3.875 12.438 0 7.9062-3.875 12.438-3.875 4.5469-10.516 4.5469zm19.578 30.922v-8.9844q-3.7188 1.75-7.5 2.6719-3.7812 0.9375-7.5 0.9375-9.7656 0-14.922-6.5938-5.1406-6.5938-5.875-19.922 2.875 4.25 7.2188 6.5156 4.3594 2.2656 9.5781 2.2656 10.984 0 17.359-6.6719 6.375-6.6562 6.375-18.125 0-11.234-6.6406-18.031-6.6406-6.7812-17.672-6.7812-12.656 0-19.344 9.6875-6.6875 9.7031-6.6875 28.109 0 17.281 8.2031 27.562t22.016 10.281q3.7188 0 7.5-0.73438t7.8906-2.1875z"/>
</defs>
<use xlink:href="#c"/>
<use x="63.623047" xlink:href="#e"/>
<use x="95.410156" xlink:href="#w"/>
</g>
</g>
<g clip-path="url(#a)">
<g transform="translate(193.84 338.19) scale(.1 -.1)">
<defs>
<path id="v" d="m8.2031 72.906h46.875v-4.2031l-26.469-68.703h-10.297l24.906 64.594h-35.016z"/>
</defs>
<use xlink:href="#c"/>
<use x="63.623047" xlink:href="#e"/>
<use x="95.410156" xlink:href="#v"/>
</g>
</g>
<g clip-path="url(#a)">
<g transform="translate(155.64 539.91) scale(.1 -.1)">
<defs>
<path id="ac" d="m31.781 66.406q-7.6094 0-11.453-7.5-3.8281-7.4844-3.8281-22.531 0-14.984 3.8281-22.484 3.8438-7.5 11.453-7.5 7.6719 0 11.5 7.5 3.8438 7.5 3.8438 22.484 0 15.047-3.8438 22.531-3.8281 7.5-11.5 7.5zm0 7.8125q12.266 0 18.734-9.7031 6.4688-9.6875 6.4688-28.141 0-18.406-6.4688-28.109-6.4688-9.6875-18.734-9.6875-12.25 0-18.719 9.6875-6.4688 9.7031-6.4688 28.109 0 18.453 6.4688 28.141 6.4688 9.7031 18.719 9.7031z"/>
</defs>
<use xlink:href="#c"/>
<use x="63.623047" xlink:href="#e"/>
<use x="95.410156" xlink:href="#c"/>
<use x="159.033203" xlink:href="#ac"/>
</g>
</g>
<g clip-path="url(#a)">
<g transform="translate(230.92 439.31) scale(.1 -.1)">
<use xlink:href="#c"/>
<use x="63.623047" xlink:href="#e"/>
<use x="95.410156" xlink:href="#c"/>
<use x="159.033203" xlink:href="#c"/>
</g>
</g>
<g clip-path="url(#a)">
<g transform="translate(218.51 539.91) scale(.1 -.1)">
<defs>
<path id="n" d="m40.578 39.312q7.0781-1.5156 11.047-6.3125 3.9844-4.7812 3.9844-11.812 0-10.781-7.4219-16.703-7.4219-5.9062-21.094-5.9062-4.5781 0-9.4375 0.90625t-10.031 2.7188v9.5156q4.0938-2.3906 8.9688-3.6094 4.8906-1.2188 10.219-1.2188 9.2656 0 14.125 3.6562t4.8594 10.641q0 6.4531-4.5156 10.078-4.5156 3.6406-12.562 3.6406h-8.5v8.1094h8.8906q7.2656 0 11.125 2.9062t3.8594 8.375q0 5.6094-3.9844 8.6094-3.9688 3.0156-11.391 3.0156-4.0625 0-8.7031-0.89062-4.6406-0.875-10.203-2.7188v8.7812q5.625 1.5625 10.531 2.3438t9.25 0.78125q11.234 0 17.766-5.1094 6.5469-5.0938 6.5469-13.781 0-6.0625-3.4688-10.234t-9.8594-5.7812z"/>
</defs>
<use xlink:href="#c"/>
<use x="63.623047" xlink:href="#e"/>
<use x="95.410156" xlink:href="#c"/>
<use x="159.033203" xlink:href="#n"/>
</g>
</g>
<g clip-path="url(#a)">
<g transform="translate(254.91 539.91) scale(.1 -.1)">
<defs>
<path id="ab" d="m37.797 64.312-24.906-38.922h24.906zm-2.5938 8.5938h12.406v-47.516h10.406v-8.2031h-10.406v-17.188h-9.8125v17.188h-32.906v9.5156z"/>
</defs>
<use xlink:href="#c"/>
<use x="63.623047" xlink:href="#e"/>
<use x="95.410156" xlink:href="#c"/>
<use x="159.033203" xlink:href="#ab"/>
</g>
</g>
<g clip-path="url(#a)">
<g transform="translate(294.61 539.91) scale(.1 -.1)">
<use xlink:href="#c"/>
<use x="63.623047" xlink:href="#e"/>
<use x="95.410156" xlink:href="#c"/>
<use x="159.033203" xlink:href="#x"/>
</g>
</g>
<g clip-path="url(#a)">
<g transform="translate(64.642 439.31) scale(.1 -.1)">
<use xlink:href="#c"/>
<use x="63.623047" xlink:href="#e"/>
<use x="95.410156" xlink:href="#c"/>
<use x="159.033203" xlink:href="#w"/>
</g>
</g>
<g clip-path="url(#a)">
<g transform="translate(408.77 539.91) scale(.1 -.1)">
<use xlink:href="#c"/>
<use x="63.623047" xlink:href="#e"/>
<use x="95.410156" xlink:href="#c"/>
<use x="159.033203" xlink:href="#v"/>
</g>
</g>
<g clip-path="url(#a)">
<g transform="translate(594.07 338.19) scale(.1 -.1)">
<defs>
<path id="aj" d="m31.781 34.625q-7.0312 0-11.062-3.7656-4.0156-3.7656-4.0156-10.344 0-6.5938 4.0156-10.359 4.0312-3.7656 11.062-3.7656t11.078 3.7812q4.0625 3.7969 4.0625 10.344 0 6.5781-4.0312 10.344-4.0156 3.7656-11.109 3.7656zm-9.8594 4.1875q-6.3438 1.5625-9.8906 5.9062-3.5312 4.3594-3.5312 10.609 0 8.7344 6.2188 13.812 6.2344 5.0781 17.062 5.0781 10.891 0 17.094-5.0781t6.2031-13.812q0-6.25-3.5469-10.609-3.5312-4.3438-9.8281-5.9062 7.125-1.6562 11.094-6.5 3.9844-4.8281 3.9844-11.797 0-10.609-6.4688-16.281-6.4688-5.6562-18.531-5.6562-12.047 0-18.531 5.6562-6.4688 5.6719-6.4688 16.281 0 6.9688 4 11.797 4.0156 4.8438 11.141 6.5zm-3.6094 15.578q0-5.6562 3.5312-8.8281 3.5469-3.1719 9.9375-3.1719 6.3594 0 9.9375 3.1719 3.5938 3.1719 3.5938 8.8281 0 5.6719-3.5938 8.8438-3.5781 3.1719-9.9375 3.1719-6.3906 0-9.9375-3.1719-3.5312-3.1719-3.5312-8.8438z"/>
</defs>
<use xlink:href="#c"/>
<use x="63.623047" xlink:href="#e"/>
<use x="95.410156" xlink:href="#c"/>
<use x="159.033203" xlink:href="#aj"/>
</g>
</g>
<g clip-path="url(#a)">
<g transform="translate(731.4 539.91) scale(.1 -.1)">
<defs>
<path id="ai" d="m10.984 1.5156v8.9844q3.7188-1.7656 7.5156-2.6875 3.8125-0.92188 7.4844-0.92188 9.7656 0 14.906 6.5625 5.1562 6.5625 5.8906 19.953-2.8281-4.2031-7.1875-6.4531-4.3438-2.25-9.6094-2.25-10.938 0-17.312 6.6094-6.375 6.625-6.375 18.109 0 11.219 6.6406 18 6.6406 6.7969 17.672 6.7969 12.656 0 19.312-9.7031 6.6719-9.6875 6.6719-28.141 0-17.234-8.1875-27.516-8.1719-10.281-21.984-10.281-3.7188 0-7.5312 0.73438-3.7969 0.73438-7.9062 2.2031zm19.625 30.906q6.6406 0 10.516 4.5312 3.8906 4.5469 3.8906 12.469 0 7.8594-3.8906 12.422-3.875 4.5625-10.516 4.5625t-10.516-4.5625-3.875-12.422q0-7.9219 3.875-12.469 3.875-4.5312 10.516-4.5312z"/>
</defs>
<use xlink:href="#c"/>
<use x="63.623047" xlink:href="#e"/>
<use x="95.410156" xlink:href="#c"/>
<use x="159.033203" xlink:href="#ai"/>
</g>
</g>
<g clip-path="url(#a)">
<g transform="translate(931.86 439.31) scale(.1 -.1)">
<use xlink:href="#c"/>
<use x="63.623047" xlink:href="#e"/>
<use x="95.410156" xlink:href="#m"/>
<use x="159.033203" xlink:href="#ac"/>
</g>
</g>
<g clip-path="url(#a)">
<g transform="translate(915.04 539.91) scale(.1 -.1)">
<use xlink:href="#c"/>
<use x="63.623047" xlink:href="#e"/>
<use x="95.410156" xlink:href="#m"/>
<use x="159.033203" xlink:href="#c"/>
</g>
</g>
<g clip-path="url(#a)">
<g transform="translate(873.68 539.91) scale(.1 -.1)">
<use xlink:href="#c"/>
<use x="63.623047" xlink:href="#e"/>
<use x="95.410156" xlink:href="#m"/>
<use x="159.033203" xlink:href="#m"/>
</g>
</g>
<g clip-path="url(#a)">
<g transform="translate(949.79 539.91) scale(.1 -.1)">
<use xlink:href="#c"/>
<use x="63.623047" xlink:href="#e"/>
<use x="95.410156" xlink:href="#m"/>
<use x="159.033203" xlink:href="#n"/>
</g>
</g>
<g clip-path="url(#a)">
<g transform="translate(514.66 439.31) scale(.1 -.1)">
<use xlink:href="#c"/>
<use x="63.623047" xlink:href="#e"/>
<use x="95.410156" xlink:href="#m"/>
<use x="159.033203" xlink:href="#ab"/>
</g>
</g>
<g clip-path="url(#a)">
<g transform="translate(602.35 539.91) scale(.1 -.1)">
<use xlink:href="#c"/>
<use x="63.623047" xlink:href="#e"/>
<use x="95.410156" xlink:href="#m"/>
<use x="159.033203" xlink:href="#x"/>
</g>
</g>
<g clip-path="url(#a)">
<g transform="translate(665.22 539.91) scale(.1 -.1)">
<use xlink:href="#c"/>
<use x="63.623047" xlink:href="#e"/>
<use x="95.410156" xlink:href="#m"/>
<use x="159.033203" xlink:href="#w"/>
</g>
</g>
<g clip-path="url(#a)">
<g transform="translate(486.53 539.91) scale(.1 -.1)">
<use xlink:href="#c"/>
<use x="63.623047" xlink:href="#e"/>
<use x="95.410156" xlink:href="#m"/>
<use x="159.033203" xlink:href="#v"/>
</g>
</g>
<g clip-path="url(#a)">
<g transform="translate(542.79 539.91) scale(.1 -.1)">
<use xlink:href="#c"/>
<use x="63.623047" xlink:href="#e"/>
<use x="95.410156" xlink:href="#m"/>
<use x="159.033203" xlink:href="#aj"/>
</g>
</g>
<g clip-path="url(#a)">
<g transform="translate(46.443 539.91) scale(.1 -.1)">
<use xlink:href="#c"/>
<use x="63.623047" xlink:href="#e"/>
<use x="95.410156" xlink:href="#m"/>
<use x="159.033203" xlink:href="#ai"/>
</g>
</g>
<g clip-path="url(#a)">
<g transform="translate(69.606 539.91) scale(.1 -.1)">
<use xlink:href="#c"/>
<use x="63.623047" xlink:href="#e"/>
<use x="95.410156" xlink:href="#n"/>
<use x="159.033203" xlink:href="#ac"/>
</g>
</g>
<g clip-path="url(#a)">
<g transform="translate(86.15 539.91) scale(.1 -.1)">
<use xlink:href="#c"/>
<use x="63.623047" xlink:href="#e"/>
<use x="95.410156" xlink:href="#n"/>
<use x="159.033203" xlink:href="#c"/>
</g>
</g>
<g clip-path="url(#a)">
<g transform="translate(56.37 539.91) scale(.1 -.1)">
<use xlink:href="#c"/>
<use x="63.623047" xlink:href="#e"/>
<use x="95.410156" xlink:href="#n"/>
<use x="159.033203" xlink:href="#m"/>
</g>
</g>
<g clip-path="url(#a)">
<g transform="translate(106 539.91) scale(.1 -.1)">
<use xlink:href="#c"/>
<use x="63.623047" xlink:href="#e"/>
<use x="95.410156" xlink:href="#n"/>
<use x="159.033203" xlink:href="#n"/>
</g>
</g>
<g clip-path="url(#a)">
<g transform="translate(185.42 539.91) scale(.1 -.1)">
<use xlink:href="#c"/>
<use x="63.623047" xlink:href="#e"/>
<use x="95.410156" xlink:href="#n"/>
<use x="159.033203" xlink:href="#ab"/>
</g>
</g>
<g clip-path="url(#a)">
<g transform="translate(337.63 539.91) scale(.1 -.1)">
<use xlink:href="#c"/>
<use x="63.623047" xlink:href="#e"/>
<use x="95.410156" xlink:href="#n"/>
<use x="159.033203" xlink:href="#x"/>
</g>
</g>
<g clip-path="url(#a)">
<g transform="translate(1111.9 539.91) scale(.1 -.1)">
<use xlink:href="#c"/>
<use x="63.623047" xlink:href="#e"/>
<use x="95.410156" xlink:href="#n"/>
<use x="159.033203" xlink:href="#w"/>
</g>
</g>
<g clip-path="url(#a)">
<g transform="translate(1198 539.91) scale(.1 -.1)">
<use xlink:href="#c"/>
<use x="63.623047" xlink:href="#e"/>
<use x="95.410156" xlink:href="#n"/>
<use x="159.033203" xlink:href="#v"/>
</g>
</g>
<defs>
<clipPath id="a">
<rect width="1266.7" height="666.67"/>
</clipPath>
</defs>
</svg>
