<?xml version="1.0" encoding="UTF-8"?>
<!DOCTYPE svg  PUBLIC '-//W3C//DTD SVG 1.1//EN'  'http://www.w3.org/Graphics/SVG/1.1/DTD/svg11.dtd'>
<svg width="1418.7pt" height="746.67pt" version="1.1" viewBox="0 0 1418.7 746.67" xmlns="http://www.w3.org/2000/svg" xmlns:xlink="http://www.w3.org/1999/xlink">
<metadata>
<rdf:RDF xmlns:cc="http://creativecommons.org/ns#" xmlns:dc="http://purl.org/dc/elements/1.1/" xmlns:rdf="http://www.w3.org/1999/02/22-rdf-syntax-ns#">
<cc:Work>
<dc:type rdf:resource="http://purl.org/dc/dcmitype/StillImage"/>
<dc:date>2021-03-17T07:13:13.104283</dc:date>
<dc:format>image/svg+xml</dc:format>
<dc:creator>
<cc:Agent>
<dc:title>Matplotlib v3.3.3, https://matplotlib.org/</dc:title>
</cc:Agent>
</dc:creator>
</cc:Work>
</rdf:RDF>
</metadata>
<defs>
<style type="text/css">*{stroke-linecap:butt;stroke-linejoin:round;}</style>
</defs>
<path d="m0 746.67h1418.7v-746.67h-1418.7z" fill="#fff"/>
<g fill="none" stroke="#000">
<path d="m428.48 33.939-347.62 455" clip-path="url(#a)"/>
<path d="m428.48 33.939-250.82 567.67" clip-path="url(#a)"/>
<path d="m428.48 33.939-270.96 114.16" clip-path="url(#a)"/>
<path d="m428.48 33.939 283.83 567.67" clip-path="url(#a)"/>
<path d="m428.48 33.939 702.97 228.09" clip-path="url(#a)"/>
<path d="m428.48 33.939-310.39 567.67" clip-path="url(#a)"/>
<path d="m428.48 33.939 192.98 567.67" clip-path="url(#a)"/>
<path d="m80.867 488.94-16.382 112.67" clip-path="url(#a)"/>
<path d="m80.867 488.94-7.4463 112.67" clip-path="url(#a)"/>
<path d="m80.867 488.94 4.4678 112.67" clip-path="url(#a)"/>
<path d="m80.867 488.94 19.36 112.67" clip-path="url(#a)"/>
<path d="m177.67 601.6-38.721 111.12" clip-path="url(#a)"/>
<path d="m177.67 601.6-14.893 111.12" clip-path="url(#a)"/>
<path d="m177.67 601.6 11.914 111.12" clip-path="url(#a)"/>
<path d="m177.67 601.6 41.699 111.12" clip-path="url(#a)"/>
<path d="m157.52 148.1 165.22 113.93" clip-path="url(#a)"/>
<path d="m157.52 148.1-93.037 453.5" clip-path="url(#a)" stroke-dasharray="3.7,1.6"/>
<path d="m157.52 148.1-72.188 453.5" clip-path="url(#a)" stroke-dasharray="3.7,1.6"/>
<path d="m712.31 601.6-31.274 111.12" clip-path="url(#a)"/>
<path d="m712.31 601.6 31.274 111.12" clip-path="url(#a)"/>
<path d="m1131.5 262.03 222.73 113.64" clip-path="url(#a)"/>
<path d="m1131.5 262.03-264.76 113.64" clip-path="url(#a)"/>
<path d="m1131.5 262.03-107.89 339.57" clip-path="url(#a)"/>
<path d="m1131.5 262.03-30.447 339.57" clip-path="url(#a)"/>
<path d="m1131.5 262.03 49.973 339.57" clip-path="url(#a)"/>
<path d="m1131.5 262.03 133.37 339.57" clip-path="url(#a)"/>
<path d="m1131.5 262.03 219.75 339.57" clip-path="url(#a)"/>
<path d="m866.7 375.68-57.585 225.93" clip-path="url(#a)"/>
<path d="m866.7 375.68 10.921 225.93" clip-path="url(#a)"/>
<path d="m866.7 375.68 46.663 113.26" clip-path="url(#a)"/>
<path d="m1023.6 601.6v111.12" clip-path="url(#a)"/>
<path d="m1101 601.6v111.12" clip-path="url(#a)"/>
<path d="m1181.4 601.6v111.12" clip-path="url(#a)"/>
<path d="m1264.8 601.6v111.12" clip-path="url(#a)"/>
<path d="m809.11 601.6v111.12" clip-path="url(#a)"/>
<path d="m877.62 601.6v111.12" clip-path="url(#a)"/>
<path d="m913.36 488.94-35.742 112.67" clip-path="url(#a)" stroke-dasharray="3.7,1.6"/>
<path d="m913.36 488.94 35.742 112.67" clip-path="url(#a)"/>
<path d="m949.1 601.6v111.12" clip-path="url(#a)"/>
<path d="m322.75 262.03-70.616 339.57" clip-path="url(#a)"/>
<path d="m322.75 262.03-15.513 226.9" clip-path="url(#a)"/>
<path d="m322.75 262.03 3.8472 339.57" clip-path="url(#a)"/>
<path d="m322.75 262.03 82.281 113.64" clip-path="url(#a)"/>
<path d="m252.13 601.6v111.12" clip-path="url(#a)"/>
<path d="m307.23 488.94 19.36 112.67" clip-path="url(#a)" stroke-dasharray="3.7,1.6"/>
<path d="m307.23 488.94-19.36 112.67" clip-path="url(#a)"/>
<path d="m326.59 601.6v111.12" clip-path="url(#a)"/>
<path d="m405.03 375.68-78.434 225.93" clip-path="url(#a)" stroke-dasharray="3.7,1.6"/>
<path d="m405.03 375.68-36.735 225.93" clip-path="url(#a)"/>
<path d="m405.03 375.68 7.9427 225.93" clip-path="url(#a)"/>
<path d="m405.03 375.68 107.23 113.26" clip-path="url(#a)"/>
<path d="m368.29 601.6v111.12" clip-path="url(#a)"/>
<path d="m412.97 601.6v111.12" clip-path="url(#a)"/>
<path d="m512.25 488.94-51.628 112.67" clip-path="url(#a)"/>
<path d="m512.25 488.94-0.99284 112.67" clip-path="url(#a)"/>
<path d="m512.25 488.94 52.62 112.67" clip-path="url(#a)"/>
<path d="m460.63 601.6v111.12" clip-path="url(#a)"/>
<path d="m511.26 601.6v111.12" clip-path="url(#a)"/>
<path d="m564.88 601.6v111.12" clip-path="url(#a)"/>
<path d="m287.87 601.6v111.12" clip-path="url(#a)"/>
<path d="m64.485 601.6v111.12" clip-path="url(#a)"/>
<path d="m73.42 601.6v111.12" clip-path="url(#a)"/>
<path d="m85.334 601.6v111.12" clip-path="url(#a)"/>
<path d="m100.23 601.6v111.12" clip-path="url(#a)"/>
<path d="m118.1 601.6v111.12" clip-path="url(#a)"/>
<path d="m621.47 601.6v111.12" clip-path="url(#a)"/>
<path d="m1351.2 601.6v111.12" clip-path="url(#a)"/>
</g>
<path d="m257.83 267.64 3.6524-4.7807q1.457-1.9071-0.45008-3.3641l-6.1524-4.7004q-1.9071-1.457-3.3641 0.45008l-3.6524 4.7807q-1.457 1.9071 0.45008 3.3641l6.1524 4.7004q1.9071 1.457 3.3641-0.45008z" clip-path="url(#a)" fill="#fff" stroke="#fff"/>
<g clip-path="url(#a)">
<g transform="translate(254.6 265.17) rotate(-52.62) scale(.08 -.08)">
<defs>
<path id="ae" d="m9.8125 72.906h9.8594v-29.891h35.844v29.891h9.8594v-72.906h-9.8594v34.719h-35.844v-34.719h-9.8594z"/>
</defs>
<use xlink:href="#ae"/>
</g>
</g>
<path d="m307.91 322.35 1.8015-4.0773q0.96995-2.1953-1.2253-3.1652l-7.082-3.1291q-2.1953-0.96995-3.1652 1.2253l-1.8015 4.0773q-0.96995 2.1953 1.2253 3.1652l7.082 3.1291q2.1953 0.96995 3.1652-1.2253z" clip-path="url(#a)" fill="#fff" stroke="#fff"/>
<g clip-path="url(#a)">
<g transform="translate(304.19 320.7) rotate(-66.162) scale(.08 -.08)">
<defs>
<path id="ad" d="m9.8125 72.906h9.8594v-64.609h35.5v-8.2969h-45.359z"/>
</defs>
<use xlink:href="#ad"/>
</g>
</g>
<path d="m292.67 97.967 5.5443-2.3359q2.2117-0.93184 1.2799-3.1436l-3.0062-7.1351q-0.93184-2.2117-3.1436-1.2799l-5.5443 2.3359q-2.2117 0.93184-1.2799 3.1436l3.0062 7.1351q0.93184 2.2117 3.1436 1.2799z" clip-path="url(#a)" fill="#fff" stroke="#fff"/>
<g clip-path="url(#a)">
<g transform="translate(291.09 94.223) rotate(-22.847) scale(.08 -.08)">
<use xlink:href="#ae"/>
</g>
</g>
<path d="m563.79 318.58 1.9934 3.9869q1.0733 2.1466 3.2199 1.0733l6.9251-3.4625q2.1466-1.0733 1.0733-3.2199l-1.9934-3.9869q-1.0733-2.1466-3.2199-1.0733l-6.9251 3.4625q-2.1466 1.0733-1.0733 3.2199z" clip-path="url(#a)" fill="#fff" stroke="#fff"/>
<g clip-path="url(#a)">
<g transform="translate(567.43 316.77) rotate(63.435) scale(.08 -.08)">
<use xlink:href="#ad"/>
</g>
</g>
<path d="m775.17 153.02 5.7225 1.8568q2.2828 0.74072 3.0236-1.5421l2.3896-7.3645q0.74071-2.2828-1.5421-3.0236l-5.7225-1.8568q-2.2828-0.74072-3.0236 1.5421l-2.3896 7.3645q-0.74071 2.2828 1.5421 3.0236z" clip-path="url(#a)" fill="#fff" stroke="#fff"/>
<g clip-path="url(#a)">
<g transform="translate(776.43 149.16) rotate(17.977) scale(.08 -.08)">
<use xlink:href="#ae"/>
</g>
</g>
<path d="m277.39 323.35 2.8089-5.1372q1.1514-2.1058-0.95439-3.2572l-6.7933-3.7144q-2.1058-1.1514-3.2572 0.95439l-2.8089 5.1372q-1.1514 2.1058 0.95439 3.2572l6.7933 3.7144q2.1058 1.1514 3.2572-0.95439z" clip-path="url(#a)" fill="#fff" stroke="#fff"/>
<g clip-path="url(#a)">
<g transform="translate(273.82 321.4) rotate(-61.331) scale(.08 -.08)">
<defs>
<path id="ac" d="m8.6875 72.906h9.9219v-44.297q0-11.719 4.2344-16.875 4.25-5.1406 13.781-5.1406 9.4688 0 13.719 5.1406 4.25 5.1562 4.25 16.875v44.297h9.9062v-45.516q0-14.25-7.0625-21.531-7.0469-7.2812-20.812-7.2812-13.828 0-20.891 7.2812-7.0469 7.2812-7.0469 21.531z"/>
</defs>
<use xlink:href="#ac"/>
</g>
</g>
<path d="m518.1 317.02 1.8845 5.5434q0.77248 2.2723 3.0448 1.4998l7.3305-2.4921q2.2723-0.77248 1.4998-3.0448l-1.8845-5.5434q-0.77248-2.2723-3.0448-1.4998l-7.3305 2.4921q-2.2723 0.77248-1.4998 3.0448z" clip-path="url(#a)" fill="#fff" stroke="#fff"/>
<g clip-path="url(#a)">
<g transform="translate(521.94 315.71) rotate(71.224) scale(.08 -.08)">
<use xlink:href="#ac"/>
</g>
</g>
<path d="m78.488 548.88 0.78742-5.4156q0.34533-2.375-2.0297-2.7204l-7.6619-1.114q-2.375-0.34533-2.7204 2.0297l-0.78742 5.4156q-0.34533 2.375 2.0297 2.7204l7.6619 1.114q2.375 0.34533 2.7204-2.0297z" clip-path="url(#a)" fill="#fff" stroke="#fff"/>
<g clip-path="url(#a)">
<g transform="translate(74.467 548.3) rotate(-81.727) scale(.08 -.08)">
<defs>
<path id="p" d="m34.188 63.188-13.391-36.281h26.812zm-5.5781 9.7188h11.188l27.781-72.906h-10.25l-6.6406 18.703h-32.859l-6.6406-18.703h-10.406z"/>
</defs>
<use xlink:href="#p"/>
</g>
</g>
<path d="m83.198 548.76 0.40623-6.1466q0.15827-2.3948-2.2365-2.553l-7.7256-0.51059q-2.3948-0.15827-2.553 2.2365l-0.40623 6.1466q-0.15827 2.3948 2.2365 2.553l7.7256 0.51059q2.3948 0.15827 2.553-2.2365z" clip-path="url(#a)" fill="#fff" stroke="#fff"/>
<g clip-path="url(#a)">
<g transform="translate(79.143 548.49) rotate(-86.219) scale(.08 -.08)">
<defs>
<path id="ak" d="m19.672 64.797v-56.688h11.922q15.094 0 22.094 6.8281 7 6.8438 7 21.594 0 14.641-7 21.453t-22.094 6.8125zm-9.8594 8.1094h20.266q21.188 0 31.094-8.8125 9.9219-8.8125 9.9219-27.562 0-18.859-9.9688-27.703-9.9531-8.8281-31.047-8.8281h-20.266z"/>
</defs>
<use xlink:href="#ak"/>
</g>
</g>
<path d="m76.739 543.11 0.19113 4.82q0.095095 2.3981 2.4932 2.303l7.7364-0.30678q2.3981-0.095095 2.303-2.4932l-0.19113-4.82q-0.095095-2.3981-2.4932-2.303l-7.7364 0.30678q-2.3981 0.095095-2.303 2.4932z" clip-path="url(#a)" fill="#fff" stroke="#fff"/>
<g clip-path="url(#a)">
<g transform="translate(80.799 542.95) rotate(87.729) scale(.08 -.08)">
<defs>
<path id="s" d="m19.672 64.797v-27.391h12.406q6.8906 0 10.641 3.5625 3.7656 3.5625 3.7656 10.156 0 6.5469-3.7656 10.109-3.75 3.5625-10.641 3.5625zm-9.8594 8.1094h22.266q12.266 0 18.531-5.5469 6.2812-5.5469 6.2812-16.234 0-10.797-6.2812-16.312-6.2656-5.5156-18.531-5.5156h-12.406v-29.297h-9.8594z"/>
</defs>
<use xlink:href="#s"/>
</g>
</g>
<path d="m83.903 543.64 0.92678 5.3935q0.40645 2.3653 2.7718 1.9589l7.6307-1.3112q2.3653-0.40645 1.9589-2.7718l-0.92678-5.3935q-0.40645-2.3653-2.7718-1.9589l-7.6307 1.3112q-2.3653 0.40645-1.9589 2.7718z" clip-path="url(#a)" fill="#fff" stroke="#fff"/>
<g clip-path="url(#a)">
<g transform="translate(87.908 542.95) rotate(80.25) scale(.08 -.08)">
<use xlink:href="#p"/>
</g>
</g>
<path d="m158.67 675.19 11.124-31.925q0.78971-2.2664-1.4766-3.0561l-7.3113-2.5476q-2.2664-0.78971-3.0561 1.4766l-11.124 31.925q-0.78971 2.2664 1.4766 3.0561l7.3113 2.5476q2.2664 0.78971 3.0561-1.4766z" clip-path="url(#a)" fill="#fff" stroke="#fff"/>
<g clip-path="url(#a)">
<g transform="translate(154.83 673.85) rotate(-70.789) scale(.08 -.08)">
<defs>
<path id="l" d="m-0.29688 72.906h61.672v-8.3125h-25.875v-64.594h-9.9062v64.594h-25.891z"/>
<path id="d" d="m56.203 29.594v-4.3906h-41.312q0.59375-9.2812 5.5938-14.141t13.938-4.8594q5.1719 0 10.031 1.2656t9.6562 3.8125v-8.5q-4.8438-2.0469-9.9219-3.125t-10.297-1.0781q-13.094 0-20.734 7.6094-7.6406 7.625-7.6406 20.625 0 13.422 7.25 21.297 7.25 7.8906 19.562 7.8906 11.031 0 17.453-7.1094 6.4219-7.0938 6.4219-19.297zm-8.9844 2.6406q-0.09375 7.3594-4.125 11.75-4.0312 4.4062-10.672 4.4062-7.5156 0-12.031-4.25t-5.2031-11.969z"/>
<path id="h" d="m41.109 46.297q-1.5156 0.875-3.2969 1.2812-1.7812 0.42188-3.9219 0.42188-7.625 0-11.703-4.9531t-4.0781-14.234v-28.812h-9.0312v54.688h9.0312v-8.5q2.8438 4.9844 7.375 7.3906 4.5469 2.4219 11.047 2.4219 0.92188 0 2.0469-0.125 1.125-0.10938 2.4844-0.35938z"/>
<path id="i" d="m52 44.188q3.375 6.0625 8.0625 8.9375t11.031 2.875q8.5469 0 13.188-5.9844 4.6406-5.9688 4.6406-17v-33.016h-9.0312v32.719q0 7.8594-2.7969 11.656-2.7812 3.8125-8.4844 3.8125-6.9844 0-11.047-4.6406-4.0469-4.625-4.0469-12.641v-30.906h-9.0312v32.719q0 7.9062-2.7812 11.688t-8.5938 3.7812q-6.8906 0-10.953-4.6562-4.0469-4.6562-4.0469-12.625v-30.906h-9.0312v54.688h9.0312v-8.5q3.0781 5.0312 7.375 7.4219t10.203 2.3906q5.9688 0 10.141-3.0312 4.1719-3.0156 6.1719-8.7812z"/>
<path id="e" d="m9.4219 54.688h8.9844v-54.688h-8.9844zm0 21.297h8.9844v-11.391h-8.9844z"/>
<path id="f" d="m54.891 33.016v-33.016h-8.9844v32.719q0 7.7656-3.0312 11.609-3.0312 3.8594-9.0781 3.8594-7.2812 0-11.484-4.6406-4.2031-4.625-4.2031-12.641v-30.906h-9.0312v54.688h9.0312v-8.5q3.2344 4.9375 7.5938 7.375 4.375 2.4375 10.094 2.4375 9.4219 0 14.25-5.8281 4.8438-5.8281 4.8438-17.156z"/>
<path id="k" d="m34.281 27.484q-10.891 0-15.094-2.4844t-4.2031-8.5q0-4.7812 3.1562-7.5938 3.1562-2.7969 8.5625-2.7969 7.4844 0 12 5.2969t4.5156 14.078v2zm17.922 3.7188v-31.203h-8.9844v8.2969q-3.0781-4.9688-7.6719-7.3438t-11.234-2.375q-8.3906 0-13.359 4.7188-4.9531 4.7188-4.9531 12.625 0 9.2188 6.1719 13.906 6.1875 4.6875 18.438 4.6875h12.609v0.89062q0 6.2031-4.0781 9.5938t-11.453 3.3906q-4.6875 0-9.1406-1.125-4.4375-1.125-8.5312-3.375v8.3125q4.9219 1.9062 9.5625 2.8438 4.6406 0.95312 9.0312 0.95312 11.875 0 17.734-6.1562 5.8594-6.1406 5.8594-18.641z"/>
<path id="j" d="m9.4219 75.984h8.9844v-75.984h-8.9844z"/>
</defs>
<use xlink:href="#l"/>
<use x="44.083984" xlink:href="#d"/>
<use x="105.607422" xlink:href="#h"/>
<use x="144.970703" xlink:href="#i"/>
<use x="242.382812" xlink:href="#e"/>
<use x="270.166016" xlink:href="#f"/>
<use x="333.544922" xlink:href="#k"/>
<use x="394.824219" xlink:href="#j"/>
</g>
</g>
<path d="m174.19 674.75 4.4907-33.508q0.3188-2.3787-2.0599-2.6975l-7.6739-1.0285q-2.3787-0.3188-2.6975 2.0599l-4.4907 33.508q-0.3188 2.3787 2.0599 2.6975l7.6739 1.0285q2.3787 0.3188 2.6975-2.0599z" clip-path="url(#a)" fill="#fff" stroke="#fff"/>
<g clip-path="url(#a)">
<g transform="translate(170.16 674.21) rotate(-82.367) scale(.08 -.08)">
<use xlink:href="#l"/>
<use x="44.083984" xlink:href="#d"/>
<use x="105.607422" xlink:href="#h"/>
<use x="144.970703" xlink:href="#i"/>
<use x="242.382812" xlink:href="#e"/>
<use x="270.166016" xlink:href="#f"/>
<use x="333.544922" xlink:href="#k"/>
<use x="394.824219" xlink:href="#j"/>
</g>
</g>
<path d="m175.59 641.03 3.604 33.615q0.25585 2.3863 2.6422 2.1305l7.6984-0.82539q2.3863-0.25585 2.1305-2.6422l-3.604-33.615q-0.25585-2.3863-2.6422-2.1305l-7.6984 0.82539q-2.3863 0.25585-2.1305 2.6422z" clip-path="url(#a)" fill="#fff" stroke="#fff"/>
<g clip-path="url(#a)">
<g transform="translate(179.63 640.59) rotate(83.88) scale(.08 -.08)">
<use xlink:href="#l"/>
<use x="44.083984" xlink:href="#d"/>
<use x="105.607422" xlink:href="#h"/>
<use x="144.970703" xlink:href="#i"/>
<use x="242.382812" xlink:href="#e"/>
<use x="270.166016" xlink:href="#f"/>
<use x="333.544922" xlink:href="#k"/>
<use x="394.824219" xlink:href="#j"/>
</g>
</g>
<path d="m186.71 643.54 11.878 31.652q0.8432 2.247 3.0902 1.4038l7.2489-2.7202q2.247-0.8432 1.4038-3.0902l-11.878-31.652q-0.8432-2.247-3.0902-1.4038l-7.2489 2.7202q-2.247 0.8432-1.4038 3.0902z" clip-path="url(#a)" fill="#fff" stroke="#fff"/>
<g clip-path="url(#a)">
<g transform="translate(190.51 642.12) rotate(69.431) scale(.08 -.08)">
<use xlink:href="#l"/>
<use x="44.083984" xlink:href="#d"/>
<use x="105.607422" xlink:href="#h"/>
<use x="144.970703" xlink:href="#i"/>
<use x="242.382812" xlink:href="#e"/>
<use x="270.166016" xlink:href="#f"/>
<use x="333.544922" xlink:href="#k"/>
<use x="394.824219" xlink:href="#j"/>
</g>
</g>
<path d="m234.32 208.68 4.5052 3.1066q1.9758 1.3624 3.3382-0.61337l4.3953-6.374q1.3624-1.9758-0.61337-3.3382l-4.5052-3.1066q-1.9758-1.3624-3.3382 0.61337l-4.3953 6.374q-1.3624 1.9758 0.61337 3.3382z" clip-path="url(#a)" fill="#fff" stroke="#fff"/>
<g clip-path="url(#a)">
<g transform="translate(236.63 205.33) rotate(34.589) scale(.08 -.08)">
<use xlink:href="#p"/>
</g>
</g>
<path d="m116.6 378.79 1.0998-5.3609q0.48232-2.351-1.8687-2.8334l-7.5845-1.556q-2.351-0.48232-2.8334 1.8687l-1.0998 5.3609q-0.48232 2.351 1.8687 2.8334l7.5845 1.556q2.351 0.48232 2.8334-1.8687z" clip-path="url(#a)" fill="#fff" stroke="#fff"/>
<g clip-path="url(#a)">
<g transform="translate(112.62 377.98) rotate(-78.407) scale(.08 -.08)">
<use xlink:href="#p"/>
</g>
</g>
<path d="m127.24 378.22 0.75829-4.7638q0.37728-2.3702-1.9929-2.7474l-7.6462-1.2171q-2.3702-0.37728-2.7474 1.9929l-0.75829 4.7638q-0.37728 2.3702 1.9929 2.7474l7.6462 1.2171q2.3702 0.37728 2.7474-1.9929z" clip-path="url(#a)" fill="#fff" stroke="#fff"/>
<g clip-path="url(#a)">
<g transform="translate(123.23 377.58) rotate(-80.956) scale(.08 -.08)">
<use xlink:href="#s"/>
</g>
</g>
<path d="m698.13 675.14 9.159-32.543q0.6502-2.3102-1.66-2.9604l-7.453-2.0976q-2.3102-0.6502-2.9604 1.66l-9.159 32.543q-0.6502 2.3102 1.66 2.9604l7.453 2.0976q2.3102 0.6502 2.9604-1.66z" clip-path="url(#a)" fill="#fff" stroke="#fff"/>
<g clip-path="url(#a)">
<g transform="translate(694.22 674.04) rotate(-74.281) scale(.08 -.08)">
<use xlink:href="#l"/>
<use x="44.083984" xlink:href="#d"/>
<use x="105.607422" xlink:href="#h"/>
<use x="144.970703" xlink:href="#i"/>
<use x="242.382812" xlink:href="#e"/>
<use x="270.166016" xlink:href="#f"/>
<use x="333.544922" xlink:href="#k"/>
<use x="394.824219" xlink:href="#j"/>
</g>
</g>
<path d="m717.33 642.59 9.159 32.543q0.6502 2.3102 2.9604 1.66l7.453-2.0976q2.3102-0.6502 1.66-2.9604l-9.159-32.543q-0.6502-2.3102-2.9604-1.66l-7.453 2.0976q-2.3102 0.6502-1.66 2.9604z" clip-path="url(#a)" fill="#fff" stroke="#fff"/>
<g clip-path="url(#a)">
<g transform="translate(721.24 641.49) rotate(74.281) scale(.08 -.08)">
<use xlink:href="#l"/>
<use x="44.083984" xlink:href="#d"/>
<use x="105.607422" xlink:href="#h"/>
<use x="144.970703" xlink:href="#i"/>
<use x="242.382812" xlink:href="#e"/>
<use x="270.166016" xlink:href="#f"/>
<use x="333.544922" xlink:href="#k"/>
<use x="394.824219" xlink:href="#j"/>
</g>
</g>
<path d="m1237.5 323.2 4.8746 2.4872q2.1378 1.0908 3.2286-1.047l3.5189-6.8966q1.0908-2.1378-1.047-3.2286l-4.8746-2.4872q-2.1378-1.0908-3.2286 1.047l-3.5189 6.8966q-1.0908 2.1378 1.047 3.2286z" clip-path="url(#a)" fill="#fff" stroke="#fff"/>
<g clip-path="url(#a)">
<g transform="translate(1239.4 319.58) rotate(27.033) scale(.08 -.08)">
<use xlink:href="#p"/>
</g>
</g>
<path d="m999.04 325.7 5.0288-2.1586q2.2054-0.94665 1.2588-3.1521l-3.0539-7.1148q-0.94666-2.2054-3.1521-1.2588l-5.0288 2.1586q-2.2054 0.94665-1.2588 3.1521l3.0539 7.1148q0.94665 2.2054 3.1521 1.2588z" clip-path="url(#a)" fill="#fff" stroke="#fff"/>
<g clip-path="url(#a)">
<g transform="translate(997.43 321.96) rotate(-23.231) scale(.08 -.08)">
<use xlink:href="#p"/>
</g>
</g>
<path d="m1082.8 435.91 1.3933-4.3852q0.72673-2.2873-1.5606-3.0141l-7.379-2.3445q-2.2873-0.72673-3.0141 1.5606l-1.3933 4.3852q-0.72673 2.2873 1.5606 3.0141l7.379 2.3445q2.2873 0.72673 3.0141-1.5606z" clip-path="url(#a)" fill="#fff" stroke="#fff"/>
<g clip-path="url(#a)">
<g transform="translate(1078.9 434.68) rotate(-72.374) scale(.08 -.08)">
<defs>
<path id="v" d="m9.8125 72.906h41.891v-8.3125h-32.031v-21.484h28.906v-8.2969h-28.906v-34.812h-9.8594z"/>
</defs>
<use xlink:href="#v"/>
</g>
</g>
<path d="m1122.3 434.67 0.41091-4.5829q0.21433-2.3904-2.1761-2.6047l-7.7116-0.69144q-2.3904-0.21433-2.6047 2.1761l-0.41091 4.5829q-0.21433 2.3904 2.1761 2.6047l7.7116 0.69144q2.3904 0.21433 2.6047-2.1761z" clip-path="url(#a)" fill="#fff" stroke="#fff"/>
<g clip-path="url(#a)">
<g transform="translate(1118.2 434.31) rotate(-84.876) scale(.08 -.08)">
<use xlink:href="#v"/>
</g>
</g>
<path d="m1149.8 429.68 0.89687 6.0944q0.34943 2.3744 2.7239 2.025l7.66-1.1273q2.3744-0.34943 2.025-2.7239l-0.89687-6.0944q-0.34943-2.3744-2.7239-2.025l-7.66 1.1273q-2.3744 0.34943-2.025 2.7239z" clip-path="url(#a)" fill="#fff" stroke="#fff"/>
<g clip-path="url(#a)">
<g transform="translate(1153.8 429.09) rotate(81.628) scale(.08 -.08)">
<use xlink:href="#ak"/>
</g>
</g>
<path d="m1191.4 431.87 1.7634 4.4899q0.87738 2.2339 3.1113 1.3565l7.2066-2.8305q2.2339-0.87738 1.3565-3.1113l-1.7634-4.4899q-0.87738-2.2339-3.1113-1.3565l-7.2066 2.8305q-2.2339 0.87738-1.3565 3.1113z" clip-path="url(#a)" fill="#fff" stroke="#fff"/>
<g clip-path="url(#a)">
<g transform="translate(1195.2 430.38) rotate(68.557) scale(.08 -.08)">
<use xlink:href="#s"/>
</g>
</g>
<path d="m1234.5 432.77 3.181 4.9155q1.3039 2.0149 3.3188 0.71099l6.5002-4.2065q2.0149-1.3039 0.71099-3.3188l-3.181-4.9155q-1.3039-2.0149-3.3188-0.71099l-6.5002 4.2065q-2.0149 1.3039-0.71099 3.3188z" clip-path="url(#a)" fill="#fff" stroke="#fff"/>
<g clip-path="url(#a)">
<g transform="translate(1237.9 430.56) rotate(57.092) scale(.08 -.08)">
<use xlink:href="#ac"/>
</g>
</g>
<path d="m843.41 492.42 1.1364-4.4587q0.59276-2.3256-1.7329-2.9184l-7.5026-1.9123q-2.3256-0.59276-2.9184 1.7329l-1.1364 4.4587q-0.59276 2.3256 1.7329 2.9184l7.5026 1.9123q2.3256 0.59276 2.9184-1.7329z" clip-path="url(#a)" fill="#fff" stroke="#fff"/>
<g clip-path="url(#a)">
<g transform="translate(839.48 491.42) rotate(-75.701) scale(.08 -.08)">
<use xlink:href="#v"/>
</g>
</g>
<path d="m865.76 486.15 0.26972 5.5797q0.11588 2.3972 2.5131 2.2813l7.7335-0.37383q2.3972-0.11588 2.2813-2.5131l-0.26972-5.5797q-0.11588-2.3972-2.5131-2.2813l-7.7335 0.37383q-2.3972 0.11588-2.2813 2.5131z" clip-path="url(#a)" fill="#fff" stroke="#fff"/>
<g clip-path="url(#a)">
<g transform="translate(869.82 485.96) rotate(87.233) scale(.08 -.08)">
<defs>
<path id="w" d="m64.406 67.281v-10.391q-4.9844 4.6406-10.625 6.9219-5.6406 2.2969-11.984 2.2969-12.5 0-19.141-7.6406t-6.6406-22.094q0-14.406 6.6406-22.047t19.141-7.6406q6.3438 0 11.984 2.2969t10.625 6.9375v-10.312q-5.1719-3.5156-10.969-5.2812-5.7812-1.75-12.219-1.75-16.562 0-26.094 10.125-9.5156 10.141-9.5156 27.672 0 17.578 9.5156 27.703 9.5312 10.141 26.094 10.141 6.5312 0 12.312-1.7344 5.7969-1.7344 10.875-5.2031z"/>
</defs>
<use xlink:href="#w"/>
</g>
</g>
<path d="m883.27 432.36 1.9257 4.6739q0.91426 2.219 3.1333 1.3048l7.1587-2.9494q2.219-0.91426 1.3048-3.1333l-1.9257-4.6739q-0.91426-2.219-3.1333-1.3048l-7.1587 2.9494q-2.219 0.91426-1.3048 3.1333z" clip-path="url(#a)" fill="#fff" stroke="#fff"/>
<g clip-path="url(#a)">
<g transform="translate(887.03 430.81) rotate(67.608) scale(.08 -.08)">
<defs>
<path id="af" d="m9.8125 72.906h46.094v-8.3125h-36.234v-21.578h34.719v-8.2969h-34.719v-26.422h37.109v-8.2969h-46.969z"/>
</defs>
<use xlink:href="#af"/>
</g>
</g>
<path d="m1017.3 640.26v33.808q0 2.4 2.4 2.4h7.7425q2.4 0 2.4-2.4v-33.808q0-2.4-2.4-2.4h-7.7425q-2.4 0-2.4 2.4z" clip-path="url(#a)" fill="#fff" stroke="#fff"/>
<g clip-path="url(#a)">
<g transform="translate(1021.4 640.26) rotate(90) scale(.08 -.08)">
<use xlink:href="#l"/>
<use x="44.083984" xlink:href="#d"/>
<use x="105.607422" xlink:href="#h"/>
<use x="144.970703" xlink:href="#i"/>
<use x="242.382812" xlink:href="#e"/>
<use x="270.166016" xlink:href="#f"/>
<use x="333.544922" xlink:href="#k"/>
<use x="394.824219" xlink:href="#j"/>
</g>
</g>
<path d="m1094.7 640.26v33.808q0 2.4 2.4 2.4h7.7425q2.4 0 2.4-2.4v-33.808q0-2.4-2.4-2.4h-7.7425q-2.4 0-2.4 2.4z" clip-path="url(#a)" fill="#fff" stroke="#fff"/>
<g clip-path="url(#a)">
<g transform="translate(1098.8 640.26) rotate(90) scale(.08 -.08)">
<use xlink:href="#l"/>
<use x="44.083984" xlink:href="#d"/>
<use x="105.607422" xlink:href="#h"/>
<use x="144.970703" xlink:href="#i"/>
<use x="242.382812" xlink:href="#e"/>
<use x="270.166016" xlink:href="#f"/>
<use x="333.544922" xlink:href="#k"/>
<use x="394.824219" xlink:href="#j"/>
</g>
</g>
<path d="m1175.2 640.26v33.808q0 2.4 2.4 2.4h7.7425q2.4 0 2.4-2.4v-33.808q0-2.4-2.4-2.4h-7.7425q-2.4 0-2.4 2.4z" clip-path="url(#a)" fill="#fff" stroke="#fff"/>
<g clip-path="url(#a)">
<g transform="translate(1179.2 640.26) rotate(90) scale(.08 -.08)">
<use xlink:href="#l"/>
<use x="44.083984" xlink:href="#d"/>
<use x="105.607422" xlink:href="#h"/>
<use x="144.970703" xlink:href="#i"/>
<use x="242.382812" xlink:href="#e"/>
<use x="270.166016" xlink:href="#f"/>
<use x="333.544922" xlink:href="#k"/>
<use x="394.824219" xlink:href="#j"/>
</g>
</g>
<path d="m1258.6 640.26v33.808q0 2.4 2.4 2.4h7.7425q2.4 0 2.4-2.4v-33.808q0-2.4-2.4-2.4h-7.7425q-2.4 0-2.4 2.4z" clip-path="url(#a)" fill="#fff" stroke="#fff"/>
<g clip-path="url(#a)">
<g transform="translate(1262.6 640.26) rotate(90) scale(.08 -.08)">
<use xlink:href="#l"/>
<use x="44.083984" xlink:href="#d"/>
<use x="105.607422" xlink:href="#h"/>
<use x="144.970703" xlink:href="#i"/>
<use x="242.382812" xlink:href="#e"/>
<use x="270.166016" xlink:href="#f"/>
<use x="333.544922" xlink:href="#k"/>
<use x="394.824219" xlink:href="#j"/>
</g>
</g>
<path d="m802.84 640.26v33.808q0 2.4 2.4 2.4h7.7425q2.4 0 2.4-2.4v-33.808q0-2.4-2.4-2.4h-7.7425q-2.4 0-2.4 2.4z" clip-path="url(#a)" fill="#fff" stroke="#fff"/>
<g clip-path="url(#a)">
<g transform="translate(806.91 640.26) rotate(90) scale(.08 -.08)">
<use xlink:href="#l"/>
<use x="44.083984" xlink:href="#d"/>
<use x="105.607422" xlink:href="#h"/>
<use x="144.970703" xlink:href="#i"/>
<use x="242.382812" xlink:href="#e"/>
<use x="270.166016" xlink:href="#f"/>
<use x="333.544922" xlink:href="#k"/>
<use x="394.824219" xlink:href="#j"/>
</g>
</g>
<path d="m871.35 640.26v33.808q0 2.4 2.4 2.4h7.7425q2.4 0 2.4-2.4v-33.808q0-2.4-2.4-2.4h-7.7425q-2.4 0-2.4 2.4z" clip-path="url(#a)" fill="#fff" stroke="#fff"/>
<g clip-path="url(#a)">
<g transform="translate(875.41 640.26) rotate(90) scale(.08 -.08)">
<use xlink:href="#l"/>
<use x="44.083984" xlink:href="#d"/>
<use x="105.607422" xlink:href="#h"/>
<use x="144.970703" xlink:href="#i"/>
<use x="242.382812" xlink:href="#e"/>
<use x="270.166016" xlink:href="#f"/>
<use x="333.544922" xlink:href="#k"/>
<use x="394.824219" xlink:href="#j"/>
</g>
</g>
<path d="m900.64 549.78 1.6548-5.2163q0.72572-2.2876-1.5619-3.0134l-7.38-2.3412q-2.2876-0.72572-3.0134 1.5619l-1.6548 5.2163q-0.72572 2.2876 1.5619 3.0134l7.38 2.3412q2.2876 0.72572 3.0134-1.5619z" clip-path="url(#a)" fill="#fff" stroke="#fff"/>
<g clip-path="url(#a)">
<g transform="translate(896.77 548.55) rotate(-72.399) scale(.08 -.08)">
<use xlink:href="#p"/>
</g>
</g>
<path d="m924.49 544.75 1.5357 4.841q0.72572 2.2876 3.0134 1.5619l7.38-2.3412q2.2876-0.72572 1.5619-3.0134l-1.5357-4.841q-0.72572-2.2876-3.0134-1.5619l-7.38 2.3412q-2.2876 0.72572-1.5619 3.0134z" clip-path="url(#a)" fill="#fff" stroke="#fff"/>
<g clip-path="url(#a)">
<g transform="translate(928.36 543.52) rotate(72.399) scale(.08 -.08)">
<defs>
<path id="ai" d="m53.516 70.516v-9.625q-5.6094 2.6875-10.594 4-4.9844 1.3281-9.625 1.3281-8.0469 0-12.422-3.125t-4.375-8.8906q0-4.8438 2.9062-7.3125 2.9062-2.4531 11.016-3.9688l5.9531-1.2188q11.031-2.1094 16.281-7.4062t5.25-14.172q0-10.609-7.1094-16.078-7.0938-5.4688-20.812-5.4688-5.1719 0-11.016 1.1719-5.8281 1.1719-12.078 3.4688v10.156q6-3.3594 11.766-5.0781 5.7656-1.7031 11.328-1.7031 8.4375 0 13.031 3.3125 4.5938 3.3281 4.5938 9.4844 0 5.3594-3.2969 8.3906t-10.812 4.5469l-6.0156 1.1719q-11.031 2.1875-15.969 6.875-4.9219 4.6875-4.9219 13.047 0 9.6719 6.8125 15.234t18.766 5.5625q5.1406 0 10.453-0.9375 5.3281-0.92188 10.891-2.7656z"/>
</defs>
<use xlink:href="#ai"/>
</g>
</g>
<path d="m942.83 640.26v33.808q0 2.4 2.4 2.4h7.7425q2.4 0 2.4-2.4v-33.808q0-2.4-2.4-2.4h-7.7425q-2.4 0-2.4 2.4z" clip-path="url(#a)" fill="#fff" stroke="#fff"/>
<g clip-path="url(#a)">
<g transform="translate(946.9 640.26) rotate(90) scale(.08 -.08)">
<use xlink:href="#l"/>
<use x="44.083984" xlink:href="#d"/>
<use x="105.607422" xlink:href="#h"/>
<use x="144.970703" xlink:href="#i"/>
<use x="242.382812" xlink:href="#e"/>
<use x="270.166016" xlink:href="#f"/>
<use x="333.544922" xlink:href="#k"/>
<use x="394.824219" xlink:href="#j"/>
</g>
</g>
<path d="m293.11 435.35 0.93681-4.5049q0.48864-2.3497-1.8611-2.8384l-7.5803-1.5764q-2.3497-0.48864-2.8384 1.8611l-0.93681 4.5049q-0.48864 2.3497 1.8611 2.8384l7.5803 1.5764q2.3497 0.48864 2.8384-1.8611z" clip-path="url(#a)" fill="#fff" stroke="#fff"/>
<g clip-path="url(#a)">
<g transform="translate(289.13 434.52) rotate(-78.252) scale(.08 -.08)">
<use xlink:href="#v"/>
</g>
</g>
<path d="m321.07 378.43 0.3448-5.0432q0.1637-2.3944-2.2307-2.5581l-7.7245-0.52811q-2.3944-0.1637-2.5581 2.2307l-0.3448 5.0432q-0.1637 2.3944 2.2307 2.5581l7.7245 0.52811q2.3944 0.1637 2.5581-2.2307z" clip-path="url(#a)" fill="#fff" stroke="#fff"/>
<g clip-path="url(#a)">
<g transform="translate(317.02 378.16) rotate(-86.089) scale(.08 -.08)">
<use xlink:href="#af"/>
</g>
</g>
<path d="m318.37 429.1 0.063287 5.5859q0.027189 2.3998 2.427 2.3727l7.742-0.087714q2.3998-0.02719 2.3727-2.427l-0.063287-5.5859q-0.027189-2.3998-2.427-2.3727l-7.742 0.087715q-2.3998 0.027189-2.3727 2.427z" clip-path="url(#a)" fill="#fff" stroke="#fff"/>
<g clip-path="url(#a)">
<g transform="translate(322.43 429.05) rotate(89.351) scale(.08 -.08)">
<use xlink:href="#w"/>
</g>
</g>
<path d="m357.33 320.49 2.9645 4.0945q1.4075 1.944 3.3514 0.53649l6.2713-4.5406q1.944-1.4075 0.53649-3.3514l-2.9645-4.0945q-1.4075-1.944-3.3514-0.53649l-6.2713 4.5406q-1.944 1.4075-0.53649 3.3514z" clip-path="url(#a)" fill="#fff" stroke="#fff"/>
<g clip-path="url(#a)">
<g transform="translate(360.62 318.1) rotate(54.095) scale(.08 -.08)">
<use xlink:href="#af"/>
</g>
</g>
<path d="m245.86 640.26v33.808q0 2.4 2.4 2.4h7.7425q2.4 0 2.4-2.4v-33.808q0-2.4-2.4-2.4h-7.7425q-2.4 0-2.4 2.4z" clip-path="url(#a)" fill="#fff" stroke="#fff"/>
<g clip-path="url(#a)">
<g transform="translate(249.92 640.26) rotate(90) scale(.08 -.08)">
<use xlink:href="#l"/>
<use x="44.083984" xlink:href="#d"/>
<use x="105.607422" xlink:href="#h"/>
<use x="144.970703" xlink:href="#i"/>
<use x="242.382812" xlink:href="#e"/>
<use x="270.166016" xlink:href="#f"/>
<use x="333.544922" xlink:href="#k"/>
<use x="394.824219" xlink:href="#j"/>
</g>
</g>
<path d="m310.27 543.64 0.92678 5.3935q0.40645 2.3653 2.7718 1.9589l7.6307-1.3112q2.3653-0.40645 1.9589-2.7718l-0.92678-5.3935q-0.40645-2.3653-2.7718-1.9589l-7.6307 1.3112q-2.3653 0.40645-1.9589 2.7718z" clip-path="url(#a)" fill="#fff" stroke="#fff"/>
<g clip-path="url(#a)">
<g transform="translate(314.27 542.95) rotate(80.25) scale(.08 -.08)">
<use xlink:href="#p"/>
</g>
</g>
<path d="m303.3 548.84 0.8601-5.0054q0.40645-2.3653-1.9589-2.7718l-7.6307-1.3112q-2.3653-0.40645-2.7718 1.9589l-0.8601 5.0054q-0.40645 2.3653 1.9589 2.7718l7.6307 1.3112q2.3653 0.40645 2.7718-1.9589z" clip-path="url(#a)" fill="#fff" stroke="#fff"/>
<g clip-path="url(#a)">
<g transform="translate(299.3 548.15) rotate(-80.25) scale(.08 -.08)">
<use xlink:href="#ai"/>
</g>
</g>
<path d="m320.32 640.26v33.808q0 2.4 2.4 2.4h7.7425q2.4 0 2.4-2.4v-33.808q0-2.4-2.4-2.4h-7.7425q-2.4 0-2.4 2.4z" clip-path="url(#a)" fill="#fff" stroke="#fff"/>
<g clip-path="url(#a)">
<g transform="translate(324.39 640.26) rotate(90) scale(.08 -.08)">
<use xlink:href="#l"/>
<use x="44.083984" xlink:href="#d"/>
<use x="105.607422" xlink:href="#h"/>
<use x="144.970703" xlink:href="#i"/>
<use x="242.382812" xlink:href="#e"/>
<use x="270.166016" xlink:href="#f"/>
<use x="333.544922" xlink:href="#k"/>
<use x="394.824219" xlink:href="#j"/>
</g>
</g>
<path d="m370.84 493.28 1.7948-5.1698q0.78711-2.2673-1.4801-3.0544l-7.3143-2.5393q-2.2673-0.78711-3.0544 1.4801l-1.7948 5.1698q-0.78711 2.2673 1.4801 3.0544l7.3143 2.5393q2.2673 0.78711 3.0544-1.4801z" clip-path="url(#a)" fill="#fff" stroke="#fff"/>
<g clip-path="url(#a)">
<g transform="translate(367 491.95) rotate(-70.855) scale(.08 -.08)">
<use xlink:href="#p"/>
</g>
</g>
<path d="m392.4 492.39 0.89212-5.4867q0.38517-2.3689-1.9837-2.7541l-7.6421-1.2426q-2.3689-0.38517-2.7541 1.9837l-0.89212 5.4867q-0.38517 2.3689 1.9837 2.7541l7.6421 1.2426q2.3689 0.38517 2.7541-1.9837z" clip-path="url(#a)" fill="#fff" stroke="#fff"/>
<g clip-path="url(#a)">
<g transform="translate(388.39 491.74) rotate(-80.765) scale(.08 -.08)">
<defs>
<path id="aj" d="m44.391 34.188q3.1719-1.0781 6.1719-4.5938t6.0312-9.6719l10.016-19.922h-10.609l-9.3125 18.703q-3.625 7.3281-7.0156 9.7188t-9.25 2.3906h-10.75v-30.812h-9.8594v72.906h22.266q12.5 0 18.656-5.2344 6.1562-5.2188 6.1562-15.766 0-6.8906-3.2031-11.438-3.2031-4.5312-9.2969-6.2812zm-24.719 30.609v-25.875h12.406q7.125 0 10.766 3.2969t3.6406 9.6875-3.6406 9.6406-10.766 3.25z"/>
</defs>
<use xlink:href="#aj"/>
</g>
</g>
<path d="m402.65 486.45 0.16948 4.8208q0.084322 2.3985 2.4828 2.3142l7.7377-0.27203q2.3985-0.084322 2.3142-2.4828l-0.16948-4.8208q-0.084322-2.3985-2.4828-2.3142l-7.7377 0.27203q-2.3985 0.084323-2.3142 2.4828z" clip-path="url(#a)" fill="#fff" stroke="#fff"/>
<g clip-path="url(#a)">
<g transform="translate(406.71 486.31) rotate(87.987) scale(.08 -.08)">
<use xlink:href="#s"/>
</g>
</g>
<path d="m452.21 434.63 3.7624 3.974q1.65 1.7428 3.3928 0.092829l5.6225-5.323q1.7428-1.65 0.09283-3.3928l-3.7624-3.974q-1.65-1.7428-3.3928-0.092829l-5.6225 5.323q-1.7428 1.65-0.092829 3.3928z" clip-path="url(#a)" fill="#fff" stroke="#fff"/>
<g clip-path="url(#a)">
<g transform="translate(455.16 431.84) rotate(46.567) scale(.08 -.08)">
<use xlink:href="#p"/>
</g>
</g>
<path d="m362.02 640.26v33.808q0 2.4 2.4 2.4h7.7425q2.4 0 2.4-2.4v-33.808q0-2.4-2.4-2.4h-7.7425q-2.4 0-2.4 2.4z" clip-path="url(#a)" fill="#fff" stroke="#fff"/>
<g clip-path="url(#a)">
<g transform="translate(366.09 640.26) rotate(90) scale(.08 -.08)">
<use xlink:href="#l"/>
<use x="44.083984" xlink:href="#d"/>
<use x="105.607422" xlink:href="#h"/>
<use x="144.970703" xlink:href="#i"/>
<use x="242.382812" xlink:href="#e"/>
<use x="270.166016" xlink:href="#f"/>
<use x="333.544922" xlink:href="#k"/>
<use x="394.824219" xlink:href="#j"/>
</g>
</g>
<path d="m406.7 640.26v33.808q0 2.4 2.4 2.4h7.7425q2.4 0 2.4-2.4v-33.808q0-2.4-2.4-2.4h-7.7425q-2.4 0-2.4 2.4z" clip-path="url(#a)" fill="#fff" stroke="#fff"/>
<g clip-path="url(#a)">
<g transform="translate(410.76 640.26) rotate(90) scale(.08 -.08)">
<use xlink:href="#l"/>
<use x="44.083984" xlink:href="#d"/>
<use x="105.607422" xlink:href="#h"/>
<use x="144.970703" xlink:href="#i"/>
<use x="242.382812" xlink:href="#e"/>
<use x="270.166016" xlink:href="#f"/>
<use x="333.544922" xlink:href="#k"/>
<use x="394.824219" xlink:href="#j"/>
</g>
</g>
<path d="m490.98 550.41 2.3156-5.0535q0.99978-2.1818-1.1821-3.1816l-7.0387-3.2253q-2.1818-0.99978-3.1816 1.1821l-2.3156 5.0535q-0.99978 2.1818 1.1821 3.1816l7.0387 3.2253q2.1818 0.99978 3.1816-1.1821z" clip-path="url(#a)" fill="#fff" stroke="#fff"/>
<g clip-path="url(#a)">
<g transform="translate(487.29 548.72) rotate(-65.381) scale(.08 -.08)">
<use xlink:href="#aj"/>
</g>
</g>
<path d="m518 548.47 0.055491-6.2973q0.021148-2.3999-2.3788-2.4211l-7.7422-0.068225q-2.3999-0.021148-2.4211 2.3788l-0.055492 6.2973q-0.021148 2.3999 2.3788 2.4211l7.7422 0.068225q2.3999 0.021148 2.4211-2.3788z" clip-path="url(#a)" fill="#fff" stroke="#fff"/>
<g clip-path="url(#a)">
<g transform="translate(513.94 548.44) rotate(-89.495) scale(.08 -.08)">
<defs>
<path id="as" d="m39.406 66.219q-10.75 0-17.078-8.0156-6.3125-8-6.3125-21.828 0-13.766 6.3125-21.781 6.3281-8 17.078-8 10.734 0 17.016 8 6.2812 8.0156 6.2812 21.781 0 13.828-6.2812 21.828-6.2812 8.0156-17.016 8.0156zm13.812-64.906 13-14.203h-11.922l-10.797 11.672q-1.6094-0.09375-2.4688-0.14062-0.84375-0.0625-1.625-0.0625-15.375 0-24.594 10.281-9.2031 10.281-9.2031 27.516 0 17.281 9.2031 27.562 9.2188 10.281 24.594 10.281 15.328 0 24.5-10.281 9.1875-10.281 9.1875-27.562 0-12.688-5.1094-21.734-5.0938-9.0312-14.766-13.328z"/>
</defs>
<use xlink:href="#as"/>
</g>
</g>
<path d="m531.7 545.39 2.3639 5.0614q1.0156 2.1745 3.1901 1.1589l7.0151-3.2763q2.1745-1.0156 1.1589-3.1901l-2.3639-5.0614q-1.0156-2.1745-3.1901-1.1589l-7.0151 3.2763q-2.1745 1.0156-1.1589 3.1901z" clip-path="url(#a)" fill="#fff" stroke="#fff"/>
<g clip-path="url(#a)">
<g transform="translate(535.38 543.67) rotate(64.966) scale(.08 -.08)">
<use xlink:href="#w"/>
</g>
</g>
<path d="m454.36 640.26v33.808q0 2.4 2.4 2.4h7.7425q2.4 0 2.4-2.4v-33.808q0-2.4-2.4-2.4h-7.7425q-2.4 0-2.4 2.4z" clip-path="url(#a)" fill="#fff" stroke="#fff"/>
<g clip-path="url(#a)">
<g transform="translate(458.42 640.26) rotate(90) scale(.08 -.08)">
<use xlink:href="#l"/>
<use x="44.083984" xlink:href="#d"/>
<use x="105.607422" xlink:href="#h"/>
<use x="144.970703" xlink:href="#i"/>
<use x="242.382812" xlink:href="#e"/>
<use x="270.166016" xlink:href="#f"/>
<use x="333.544922" xlink:href="#k"/>
<use x="394.824219" xlink:href="#j"/>
</g>
</g>
<path d="m504.99 640.26v33.808q0 2.4 2.4 2.4h7.7425q2.4 0 2.4-2.4v-33.808q0-2.4-2.4-2.4h-7.7425q-2.4 0-2.4 2.4z" clip-path="url(#a)" fill="#fff" stroke="#fff"/>
<g clip-path="url(#a)">
<g transform="translate(509.05 640.26) rotate(90) scale(.08 -.08)">
<use xlink:href="#l"/>
<use x="44.083984" xlink:href="#d"/>
<use x="105.607422" xlink:href="#h"/>
<use x="144.970703" xlink:href="#i"/>
<use x="242.382812" xlink:href="#e"/>
<use x="270.166016" xlink:href="#f"/>
<use x="333.544922" xlink:href="#k"/>
<use x="394.824219" xlink:href="#j"/>
</g>
</g>
<path d="m558.6 640.26v33.808q0 2.4 2.4 2.4h7.7425q2.4 0 2.4-2.4v-33.808q0-2.4-2.4-2.4h-7.7425q-2.4 0-2.4 2.4z" clip-path="url(#a)" fill="#fff" stroke="#fff"/>
<g clip-path="url(#a)">
<g transform="translate(562.67 640.26) rotate(90) scale(.08 -.08)">
<use xlink:href="#l"/>
<use x="44.083984" xlink:href="#d"/>
<use x="105.607422" xlink:href="#h"/>
<use x="144.970703" xlink:href="#i"/>
<use x="242.382812" xlink:href="#e"/>
<use x="270.166016" xlink:href="#f"/>
<use x="333.544922" xlink:href="#k"/>
<use x="394.824219" xlink:href="#j"/>
</g>
</g>
<path d="m281.6 640.26v33.808q0 2.4 2.4 2.4h7.7425q2.4 0 2.4-2.4v-33.808q0-2.4-2.4-2.4h-7.7425q-2.4 0-2.4 2.4z" clip-path="url(#a)" fill="#fff" stroke="#fff"/>
<g clip-path="url(#a)">
<g transform="translate(285.67 640.26) rotate(90) scale(.08 -.08)">
<use xlink:href="#l"/>
<use x="44.083984" xlink:href="#d"/>
<use x="105.607422" xlink:href="#h"/>
<use x="144.970703" xlink:href="#i"/>
<use x="242.382812" xlink:href="#e"/>
<use x="270.166016" xlink:href="#f"/>
<use x="333.544922" xlink:href="#k"/>
<use x="394.824219" xlink:href="#j"/>
</g>
</g>
<path d="m58.214 640.26v33.808q0 2.4 2.4 2.4h7.7425q2.4 0 2.4-2.4v-33.808q0-2.4-2.4-2.4h-7.7425q-2.4 0-2.4 2.4z" clip-path="url(#a)" fill="#fff" stroke="#fff"/>
<g clip-path="url(#a)">
<g transform="translate(62.277 640.26) rotate(90) scale(.08 -.08)">
<use xlink:href="#l"/>
<use x="44.083984" xlink:href="#d"/>
<use x="105.607422" xlink:href="#h"/>
<use x="144.970703" xlink:href="#i"/>
<use x="242.382812" xlink:href="#e"/>
<use x="270.166016" xlink:href="#f"/>
<use x="333.544922" xlink:href="#k"/>
<use x="394.824219" xlink:href="#j"/>
</g>
</g>
<path d="m67.149 640.26v33.808q0 2.4 2.4 2.4h7.7425q2.4 0 2.4-2.4v-33.808q0-2.4-2.4-2.4h-7.7425q-2.4 0-2.4 2.4z" clip-path="url(#a)" fill="#fff" stroke="#fff"/>
<g clip-path="url(#a)">
<g transform="translate(71.213 640.26) rotate(90) scale(.08 -.08)">
<use xlink:href="#l"/>
<use x="44.083984" xlink:href="#d"/>
<use x="105.607422" xlink:href="#h"/>
<use x="144.970703" xlink:href="#i"/>
<use x="242.382812" xlink:href="#e"/>
<use x="270.166016" xlink:href="#f"/>
<use x="333.544922" xlink:href="#k"/>
<use x="394.824219" xlink:href="#j"/>
</g>
</g>
<path d="m79.063 640.26v33.808q0 2.4 2.4 2.4h7.7425q2.4 0 2.4-2.4v-33.808q0-2.4-2.4-2.4h-7.7425q-2.4 0-2.4 2.4z" clip-path="url(#a)" fill="#fff" stroke="#fff"/>
<g clip-path="url(#a)">
<g transform="translate(83.127 640.26) rotate(90) scale(.08 -.08)">
<use xlink:href="#l"/>
<use x="44.083984" xlink:href="#d"/>
<use x="105.607422" xlink:href="#h"/>
<use x="144.970703" xlink:href="#i"/>
<use x="242.382812" xlink:href="#e"/>
<use x="270.166016" xlink:href="#f"/>
<use x="333.544922" xlink:href="#k"/>
<use x="394.824219" xlink:href="#j"/>
</g>
</g>
<path d="m93.956 640.26v33.808q0 2.4 2.4 2.4h7.7425q2.4 0 2.4-2.4v-33.808q0-2.4-2.4-2.4h-7.7425q-2.4 0-2.4 2.4z" clip-path="url(#a)" fill="#fff" stroke="#fff"/>
<g clip-path="url(#a)">
<g transform="translate(98.02 640.26) rotate(90) scale(.08 -.08)">
<use xlink:href="#l"/>
<use x="44.083984" xlink:href="#d"/>
<use x="105.607422" xlink:href="#h"/>
<use x="144.970703" xlink:href="#i"/>
<use x="242.382812" xlink:href="#e"/>
<use x="270.166016" xlink:href="#f"/>
<use x="333.544922" xlink:href="#k"/>
<use x="394.824219" xlink:href="#j"/>
</g>
</g>
<path d="m111.83 640.26v33.808q0 2.4 2.4 2.4h7.7425q2.4 0 2.4-2.4v-33.808q0-2.4-2.4-2.4h-7.7425q-2.4 0-2.4 2.4z" clip-path="url(#a)" fill="#fff" stroke="#fff"/>
<g clip-path="url(#a)">
<g transform="translate(115.89 640.26) rotate(90) scale(.08 -.08)">
<use xlink:href="#l"/>
<use x="44.083984" xlink:href="#d"/>
<use x="105.607422" xlink:href="#h"/>
<use x="144.970703" xlink:href="#i"/>
<use x="242.382812" xlink:href="#e"/>
<use x="270.166016" xlink:href="#f"/>
<use x="333.544922" xlink:href="#k"/>
<use x="394.824219" xlink:href="#j"/>
</g>
</g>
<path d="m615.2 640.26v33.808q0 2.4 2.4 2.4h7.7425q2.4 0 2.4-2.4v-33.808q0-2.4-2.4-2.4h-7.7425q-2.4 0-2.4 2.4z" clip-path="url(#a)" fill="#fff" stroke="#fff"/>
<g clip-path="url(#a)">
<g transform="translate(619.26 640.26) rotate(90) scale(.08 -.08)">
<use xlink:href="#l"/>
<use x="44.083984" xlink:href="#d"/>
<use x="105.607422" xlink:href="#h"/>
<use x="144.970703" xlink:href="#i"/>
<use x="242.382812" xlink:href="#e"/>
<use x="270.166016" xlink:href="#f"/>
<use x="333.544922" xlink:href="#k"/>
<use x="394.824219" xlink:href="#j"/>
</g>
</g>
<path d="m1344.9 640.26v33.808q0 2.4 2.4 2.4h7.7425q2.4 0 2.4-2.4v-33.808q0-2.4-2.4-2.4h-7.7425q-2.4 0-2.4 2.4z" clip-path="url(#a)" fill="#fff" stroke="#fff"/>
<g clip-path="url(#a)">
<g transform="translate(1349 640.26) rotate(90) scale(.08 -.08)">
<use xlink:href="#l"/>
<use x="44.083984" xlink:href="#d"/>
<use x="105.607422" xlink:href="#h"/>
<use x="144.970703" xlink:href="#i"/>
<use x="242.382812" xlink:href="#e"/>
<use x="270.166016" xlink:href="#f"/>
<use x="333.544922" xlink:href="#k"/>
<use x="394.824219" xlink:href="#j"/>
</g>
</g>
<defs>
<path id="b" d="m0 8.6603c2.2967 0 4.4997-0.9125 6.1237-2.5365 1.624-1.624 2.5365-3.827 2.5365-6.1237s-0.9125-4.4997-2.5365-6.1237c-1.624-1.624-3.827-2.5365-6.1237-2.5365s-4.4997 0.9125-6.1237 2.5365c-1.624 1.624-2.5365 3.827-2.5365 6.1237s0.9125 4.4997 2.5365 6.1237c1.624 1.624 3.827 2.5365 6.1237 2.5365z"/>
</defs>
<g clip-path="url(#a)" fill="#ffffff" stroke="#ffffff">
<use x="64.484848" y="712.727273" xlink:href="#b"/>
<use x="73.420393" y="712.727273" xlink:href="#b"/>
<use x="85.334453" y="712.727273" xlink:href="#b"/>
<use x="100.227028" y="712.727273" xlink:href="#b"/>
<use x="118.098117" y="712.727273" xlink:href="#b"/>
<use x="138.947722" y="712.727273" xlink:href="#b"/>
<use x="162.775842" y="712.727273" xlink:href="#b"/>
<use x="189.582476" y="712.727273" xlink:href="#b"/>
<use x="219.367625" y="712.727273" xlink:href="#b"/>
<use x="252.13129" y="712.727273" xlink:href="#b"/>
<use x="287.873469" y="712.727273" xlink:href="#b"/>
<use x="326.594163" y="712.727273" xlink:href="#b"/>
<use x="368.293373" y="712.727273" xlink:href="#b"/>
<use x="412.971097" y="712.727273" xlink:href="#b"/>
<use x="460.627336" y="712.727273" xlink:href="#b"/>
<use x="511.26209" y="712.727273" xlink:href="#b"/>
<use x="564.875359" y="712.727273" xlink:href="#b"/>
<use x="621.467143" y="712.727273" xlink:href="#b"/>
<use x="681.037441" y="712.727273" xlink:href="#b"/>
<use x="743.586255" y="712.727273" xlink:href="#b"/>
<use x="809.113584" y="712.727273" xlink:href="#b"/>
<use x="877.619428" y="712.727273" xlink:href="#b"/>
<use x="949.103786" y="712.727273" xlink:href="#b"/>
<use x="1023.56666" y="712.727273" xlink:href="#b"/>
<use x="1101.008048" y="712.727273" xlink:href="#b"/>
<use x="1181.427952" y="712.727273" xlink:href="#b"/>
<use x="1264.82637" y="712.727273" xlink:href="#b"/>
<use x="1351.203303" y="712.727273" xlink:href="#b"/>
<use x="1354.181818" y="375.677699" xlink:href="#b"/>
<use x="428.484195" y="33.939394" xlink:href="#b"/>
<use x="80.866681" y="488.936791" xlink:href="#b"/>
<use x="177.668416" y="601.604949" xlink:href="#b"/>
<use x="157.522072" y="148.101081" xlink:href="#b"/>
<use x="712.311848" y="601.604949" xlink:href="#b"/>
<use x="1131.45509" y="262.033137" xlink:href="#b"/>
<use x="866.698206" y="375.677699" xlink:href="#b"/>
<use x="1023.56666" y="601.604949" xlink:href="#b"/>
<use x="1101.008048" y="601.604949" xlink:href="#b"/>
<use x="1181.427952" y="601.604949" xlink:href="#b"/>
<use x="1264.82637" y="601.604949" xlink:href="#b"/>
<use x="809.113584" y="601.604949" xlink:href="#b"/>
<use x="877.619428" y="601.604949" xlink:href="#b"/>
<use x="913.361607" y="488.936791" xlink:href="#b"/>
<use x="949.103786" y="601.604949" xlink:href="#b"/>
<use x="322.746915" y="262.033137" xlink:href="#b"/>
<use x="252.13129" y="601.604949" xlink:href="#b"/>
<use x="307.233816" y="488.936791" xlink:href="#b"/>
<use x="326.594163" y="601.604949" xlink:href="#b"/>
<use x="405.02839" y="375.677699" xlink:href="#b"/>
<use x="368.293373" y="601.604949" xlink:href="#b"/>
<use x="412.971097" y="601.604949" xlink:href="#b"/>
<use x="512.254928" y="488.936791" xlink:href="#b"/>
<use x="460.627336" y="601.604949" xlink:href="#b"/>
<use x="511.26209" y="601.604949" xlink:href="#b"/>
<use x="564.875359" y="601.604949" xlink:href="#b"/>
<use x="287.873469" y="601.604949" xlink:href="#b"/>
<use x="64.484848" y="601.604949" xlink:href="#b"/>
<use x="73.420393" y="601.604949" xlink:href="#b"/>
<use x="85.334453" y="601.604949" xlink:href="#b"/>
<use x="100.227028" y="601.604949" xlink:href="#b"/>
<use x="118.098117" y="601.604949" xlink:href="#b"/>
<use x="621.467143" y="601.604949" xlink:href="#b"/>
<use x="1351.203303" y="601.604949" xlink:href="#b"/>
</g>
<g clip-path="url(#a)">
<g transform="translate(59.016 715.49) scale(.1 -.1)">
<defs>
<path id="u" d="m9.8125 72.906h9.8594v-72.906h-9.8594z"/>
<path id="n" d="m44.281 53.078v-8.5q-3.7969 1.9531-7.9062 2.9219-4.0938 0.98438-8.5 0.98438-6.6875 0-10.031-2.0469t-3.3438-6.1562q0-3.125 2.3906-4.9062t9.625-3.3906l3.0781-0.6875q9.5625-2.0469 13.594-5.7812t4.0312-10.422q0-7.625-6.0312-12.078-6.0312-4.4375-16.578-4.4375-4.3906 0-9.1562 0.85938t-10.031 2.5625v9.2812q4.9844-2.5938 9.8125-3.8906 4.8281-1.2812 9.5781-1.2812 6.3438 0 9.75 2.1719 3.4219 2.1719 3.4219 6.125 0 3.6562-2.4688 5.6094-2.4531 1.9531-10.812 3.7656l-3.125 0.73438q-8.3438 1.75-12.062 5.3906-3.7031 3.6406-3.7031 9.9844 0 7.7188 5.4688 11.906 5.4688 4.2031 15.531 4.2031 4.9688 0 9.3594-0.73438 4.4062-0.71875 8.1094-2.1875z"/>
</defs>
<use xlink:href="#u"/>
<use x="29.492188" xlink:href="#j"/>
<use x="57.275391" xlink:href="#n"/>
</g>
</g>
<g clip-path="url(#a)">
<g transform="translate(67.175 715.49) scale(.1 -.1)">
<use xlink:href="#f"/>
<use x="63.378906" xlink:href="#d"/>
</g>
</g>
<g clip-path="url(#a)">
<g transform="translate(70.838 715.49) scale(.1 -.1)">
<defs>
<path id="ap" d="m2.9844 54.688h9.5156l17.094-45.891 17.094 45.891h9.5156l-20.516-54.688h-12.203z"/>
<path id="q" d="m18.312 70.219v-15.531h18.5v-6.9844h-18.5v-29.688q0-6.6875 1.8281-8.5938t7.4531-1.9062h9.2188v-7.5156h-9.2188q-10.406 0-14.359 3.875-3.9531 3.8906-3.9531 14.141v29.688h-6.5938v6.9844h6.5938v15.531z"/>
</defs>
<use xlink:href="#ap"/>
<use x="59.179688" xlink:href="#e"/>
<use x="86.962891" xlink:href="#h"/>
<use x="125.826172" xlink:href="#d"/>
<use x="187.349609" xlink:href="#f"/>
<use x="250.728516" xlink:href="#q"/>
</g>
</g>
<g clip-path="url(#a)">
<g transform="translate(90.537 715.49) scale(.1 -.1)">
<use xlink:href="#h"/>
<use x="41.113281" xlink:href="#e"/>
<use x="68.896484" xlink:href="#d"/>
<use x="130.419922" xlink:href="#f"/>
</g>
</g>
<g clip-path="url(#a)">
<g transform="translate(116.51 715.49) scale(.1 -.1)">
<defs>
<path id="an" d="m11.719 12.406h10.297v-8.4062l-8-15.625h-6.2969l4 15.625z"/>
</defs>
<use xlink:href="#an"/>
</g>
</g>
<g clip-path="url(#a)">
<g transform="translate(134.95 715.49) scale(.1 -.1)">
<use xlink:href="#n"/>
<use x="52.099609" xlink:href="#e"/>
</g>
</g>
<g clip-path="url(#a)">
<g transform="translate(156.95 715.49) scale(.1 -.1)">
<defs>
<path id="aa" d="m48.781 52.594v-8.4062q-3.8125 2.1094-7.6406 3.1562t-7.7344 1.0469q-8.75 0-13.594-5.5469-4.8281-5.5312-4.8281-15.547t4.8281-15.562q4.8438-5.5312 13.594-5.5312 3.9062 0 7.7344 1.0469t7.6406 3.1562v-8.3125q-3.7656-1.75-7.7969-2.625-4.0156-0.89062-8.5625-0.89062-12.359 0-19.641 7.7656-7.2656 7.7656-7.2656 20.953 0 13.375 7.3438 21.031 7.3594 7.6719 20.156 7.6719 4.1406 0 8.0938-0.85938 3.9531-0.84375 7.6719-2.5469z"/>
</defs>
<use xlink:href="#aa"/>
<use x="54.980469" xlink:href="#d"/>
</g>
</g>
<g clip-path="url(#a)">
<g transform="translate(185.04 715.49) scale(.1 -.1)">
<defs>
<path id="au" d="m17.922 72.906v-27.109h-8.2969v27.109z"/>
</defs>
<use xlink:href="#f"/>
<use x="63.378906" xlink:href="#au"/>
</g>
</g>
<g clip-path="url(#a)">
<g transform="translate(211.73 715.49) scale(.1 -.1)">
<use xlink:href="#d"/>
<use x="61.523438" xlink:href="#n"/>
<use x="113.623047" xlink:href="#q"/>
</g>
</g>
<g clip-path="url(#a)">
<g transform="translate(245.79 715.49) scale(.1 -.1)">
<defs>
<path id="r" d="m8.5 21.578v33.109h8.9844v-32.766q0-7.7656 3.0156-11.656 3.0312-3.875 9.0938-3.875 7.2656 0 11.484 4.6406 4.2344 4.6406 4.2344 12.656v31h8.9844v-54.688h-8.9844v8.4062q-3.2656-4.9844-7.5938-7.4062-4.3125-2.4219-10.031-2.4219-9.4219 0-14.312 5.8594-4.875 5.8594-4.875 17.141z"/>
</defs>
<use xlink:href="#r"/>
<use x="63.378906" xlink:href="#f"/>
</g>
</g>
<g clip-path="url(#a)">
<g transform="translate(279.04 715.49) scale(.1 -.1)">
<defs>
<path id="aw" d="m37.109 75.984v-7.4844h-8.5938q-4.8281 0-6.7188-1.9531-1.875-1.9531-1.875-7.0312v-4.8281h14.797v-6.9844h-14.797v-47.703h-9.0312v47.703h-8.5938v6.9844h8.5938v3.8125q0 9.125 4.25 13.297 4.25 4.1875 13.469 4.1875z"/>
<path id="t" d="m30.609 48.391q-7.2188 0-11.422-5.6406t-4.2031-15.453 4.1719-15.453q4.1875-5.6406 11.453-5.6406 7.1875 0 11.375 5.6562 4.2031 5.6719 4.2031 15.438 0 9.7188-4.2031 15.406-4.1875 5.6875-11.375 5.6875zm0 7.6094q11.719 0 18.406-7.625 6.7031-7.6094 6.7031-21.078 0-13.422-6.7031-21.078-6.6875-7.6406-18.406-7.6406-11.766 0-18.438 7.6406-6.6562 7.6562-6.6562 21.078 0 13.469 6.6562 21.078 6.6719 7.625 18.438 7.625z"/>
</defs>
<use xlink:href="#aw"/>
<use x="35.205078" xlink:href="#t"/>
<use x="96.386719" xlink:href="#h"/>
<use x="137.5" xlink:href="#q"/>
</g>
</g>
<g clip-path="url(#a)">
<g transform="translate(307.87 715.49) scale(.1 -.1)">
<use xlink:href="#h"/>
<use x="38.863281" xlink:href="#d"/>
<use x="100.386719" xlink:href="#i"/>
<use x="197.798828" xlink:href="#t"/>
<use x="258.980469" xlink:href="#r"/>
<use x="322.359375" xlink:href="#n"/>
</g>
</g>
<g clip-path="url(#a)">
<g transform="translate(360.56 715.49) scale(.1 -.1)">
<defs>
<path id="aq" d="m14.797 27.297q0-9.9062 4.0781-15.547t11.203-5.6406 11.219 5.6406q4.1094 5.6406 4.1094 15.547t-4.1094 15.547q-4.0938 5.6406-11.219 5.6406t-11.203-5.6406-4.0781-15.547zm30.609-19.094q-2.8281-4.875-7.1562-7.25-4.3125-2.375-10.375-2.375-9.9062 0-16.141 7.9062-6.2188 7.9219-6.2188 20.812t6.2188 20.797q6.2344 7.9062 16.141 7.9062 6.0625 0 10.375-2.375 4.3281-2.3594 7.1562-7.2344v8.2969h8.9844v-75.484h-8.9844z"/>
</defs>
<use xlink:href="#aq"/>
<use x="63.476562" xlink:href="#r"/>
<use x="126.855469" xlink:href="#e"/>
</g>
</g>
<g clip-path="url(#a)">
<g transform="translate(397.33 715.49) scale(.1 -.1)">
<defs>
<path id="ab" d="m48.688 27.297q0 9.9062-4.0781 15.547t-11.203 5.6406q-7.1406 0-11.219-5.6406t-4.0781-15.547 4.0781-15.547 11.219-5.6406q7.125 0 11.203 5.6406t4.0781 15.547zm-30.578 19.094q2.8438 4.875 7.1562 7.2344 4.3281 2.375 10.328 2.375 9.9688 0 16.188-7.9062 6.2344-7.9062 6.2344-20.797t-6.2344-20.812q-6.2188-7.9062-16.188-7.9062-6 0-10.328 2.375-4.3125 2.375-7.1562 7.25v-8.2031h-9.0312v75.984h9.0312z"/>
</defs>
<use xlink:href="#ab"/>
<use x="63.476562" xlink:href="#h"/>
<use x="104.589844" xlink:href="#e"/>
<use x="132.373047" xlink:href="#n"/>
<use x="184.472656" xlink:href="#k"/>
<use x="245.751953" xlink:href="#e"/>
<use x="273.535156" xlink:href="#q"/>
</g>
</g>
<g clip-path="url(#a)">
<g transform="translate(457.56 715.49) scale(.1 -.1)">
<defs>
<path id="av" d="m34.281 27.484q-10.891 0-15.094-2.4844t-4.2031-8.5q0-4.7812 3.1562-7.5938 3.1562-2.7969 8.5625-2.7969 7.4844 0 12 5.2969t4.5156 14.078v2zm17.922 3.7188v-31.203h-8.9844v8.2969q-3.0781-4.9688-7.6719-7.3438t-11.234-2.375q-8.3906 0-13.359 4.7188-4.9531 4.7188-4.9531 12.625 0 9.2188 6.1719 13.906 6.1875 4.6875 18.438 4.6875h12.609v0.89062q0 6.2031-4.0781 9.5938t-11.453 3.3906q-4.6875 0-9.1406-1.125-4.4375-1.125-8.5312-3.375v8.3125q4.9219 1.9062 9.5625 2.8438 4.6406 0.95312 9.0312 0.95312 11.875 0 17.734-6.1562 5.8594-6.1406 5.8594-18.641zm-30.281 48.781 13.766-18.266h-7.4688l-15.922 18.266z"/>
</defs>
<use xlink:href="#av"/>
</g>
</g>
<g clip-path="url(#a)">
<g transform="translate(500.31 715.49) scale(.1 -.1)">
<use xlink:href="#q"/>
<use x="39.208984" xlink:href="#h"/>
<use x="78.072266" xlink:href="#t"/>
<use x="139.253906" xlink:href="#e"/>
<use x="167.037109" xlink:href="#n"/>
</g>
</g>
<g clip-path="url(#a)">
<g transform="translate(537.46 715.49) scale(.1 -.1)">
<use xlink:href="#d"/>
<use x="61.523438" xlink:href="#f"/>
<use x="124.902344" xlink:href="#aa"/>
<use x="179.882812" xlink:href="#k"/>
<use x="241.162109" xlink:href="#ab"/>
<use x="304.638672" xlink:href="#j"/>
<use x="332.421875" xlink:href="#r"/>
<use x="395.800781" xlink:href="#h"/>
<use x="434.664062" xlink:href="#d"/>
<use x="496.1875" xlink:href="#n"/>
</g>
</g>
<g clip-path="url(#a)">
<g transform="translate(619.88 715.49) scale(.1 -.1)">
<use xlink:href="#an"/>
</g>
</g>
<g clip-path="url(#a)">
<g transform="translate(662.41 715.49) scale(.1 -.1)">
<use xlink:href="#aa"/>
<use x="54.980469" xlink:href="#t"/>
<use x="116.162109" xlink:href="#i"/>
<use x="213.574219" xlink:href="#i"/>
<use x="310.986328" xlink:href="#d"/>
</g>
</g>
<g clip-path="url(#a)">
<g transform="translate(739.59 715.49) scale(.1 -.1)">
<use xlink:href="#n"/>
<use x="52.099609" xlink:href="#e"/>
</g>
</g>
<g clip-path="url(#a)">
<g transform="translate(802.04 715.49) scale(.1 -.1)">
<use xlink:href="#j"/>
<use x="27.783203" xlink:href="#d"/>
<use x="89.306641" xlink:href="#n"/>
</g>
</g>
<g clip-path="url(#a)">
<g transform="translate(859.36 715.49) scale(.1 -.1)">
<defs>
<path id="ar" d="m18.109 8.2031v-29h-9.0312v75.484h9.0312v-8.2969q2.8438 4.875 7.1562 7.2344 4.3281 2.375 10.328 2.375 9.9688 0 16.188-7.9062 6.2344-7.9062 6.2344-20.797t-6.2344-20.812q-6.2188-7.9062-16.188-7.9062-6 0-10.328 2.375-4.3125 2.375-7.1562 7.25zm30.578 19.094q0 9.9062-4.0781 15.547t-11.203 5.6406q-7.1406 0-11.219-5.6406t-4.0781-15.547 4.0781-15.547 11.219-5.6406q7.125 0 11.203 5.6406t4.0781 15.547z"/>
</defs>
<use xlink:href="#f"/>
<use x="63.378906" xlink:href="#k"/>
<use x="124.658203" xlink:href="#ar"/>
<use x="188.134766" xlink:href="#ar"/>
<use x="251.611328" xlink:href="#d"/>
<use x="313.134766" xlink:href="#n"/>
</g>
</g>
<g clip-path="url(#a)">
<g transform="translate(929.74 715.49) scale(.1 -.1)">
<defs>
<path id="ax" d="m45.406 46.391v29.594h8.9844v-75.984h-8.9844v8.2031q-2.8281-4.875-7.1562-7.25-4.3125-2.375-10.375-2.375-9.9062 0-16.141 7.9062-6.2188 7.9219-6.2188 20.812t6.2188 20.797q6.2344 7.9062 16.141 7.9062 6.0625 0 10.375-2.375 4.3281-2.3594 7.1562-7.2344zm-30.609-19.094q0-9.9062 4.0781-15.547t11.203-5.6406 11.219 5.6406q4.1094 5.6406 4.1094 15.547t-4.1094 15.547q-4.0938 5.6406-11.219 5.6406t-11.203-5.6406-4.0781-15.547z"/>
</defs>
<use xlink:href="#j"/>
<use x="27.783203" xlink:href="#e"/>
<use x="55.566406" xlink:href="#aq"/>
<use x="119.042969" xlink:href="#r"/>
<use x="182.421875" xlink:href="#e"/>
<use x="210.205078" xlink:href="#ax"/>
<use x="273.681641" xlink:href="#d"/>
<use x="335.205078" xlink:href="#n"/>
</g>
</g>
<g clip-path="url(#a)">
<g transform="translate(1003.9 715.49) scale(.1 -.1)">
<use xlink:href="#d"/>
<use x="61.523438" xlink:href="#r"/>
<use x="124.902344" xlink:href="#n"/>
<use x="177.001953" xlink:href="#n"/>
<use x="229.101562" xlink:href="#d"/>
<use x="290.625" xlink:href="#f"/>
<use x="354.003906" xlink:href="#q"/>
</g>
</g>
<g clip-path="url(#a)">
<g transform="translate(1092.9 715.49) scale(.1 -.1)">
<defs>
<path id="ao" d="m56.203 29.594v-4.3906h-41.312q0.59375-9.2812 5.5938-14.141t13.938-4.8594q5.1719 0 10.031 1.2656t9.6562 3.8125v-8.5q-4.8438-2.0469-9.9219-3.125t-10.297-1.0781q-13.094 0-20.734 7.6094-7.6406 7.625-7.6406 20.625 0 13.422 7.25 21.297 7.25 7.8906 19.562 7.8906 11.031 0 17.453-7.1094 6.4219-7.0938 6.4219-19.297zm-8.9844 2.6406q-0.09375 7.3594-4.125 11.75-4.0312 4.4062-10.672 4.4062-7.5156 0-12.031-4.25t-5.2031-11.969zm-8.6875 47.75h9.7188l-15.906-18.359h-7.4844z"/>
</defs>
<use xlink:href="#ao"/>
<use x="61.523438" xlink:href="#q"/>
<use x="100.732422" xlink:href="#ao"/>
</g>
</g>
<g clip-path="url(#a)">
<g transform="translate(1151.6 715.49) scale(.1 -.1)">
<use xlink:href="#ap"/>
<use x="59.179688" xlink:href="#e"/>
<use x="86.962891" xlink:href="#t"/>
<use x="148.144531" xlink:href="#j"/>
<use x="175.927734" xlink:href="#d"/>
<use x="237.451172" xlink:href="#i"/>
<use x="334.863281" xlink:href="#i"/>
<use x="432.275391" xlink:href="#d"/>
<use x="493.798828" xlink:href="#f"/>
<use x="557.177734" xlink:href="#q"/>
</g>
</g>
<g clip-path="url(#a)">
<g transform="translate(1245.8 715.49) scale(.1 -.1)">
<use xlink:href="#ab"/>
<use x="63.476562" xlink:href="#k"/>
<use x="124.755859" xlink:href="#q"/>
<use x="163.964844" xlink:href="#q"/>
<use x="203.173828" xlink:href="#r"/>
<use x="266.552734" xlink:href="#d"/>
<use x="328.076172" xlink:href="#n"/>
</g>
</g>
<g clip-path="url(#a)">
<g transform="translate(1349.6 715.49) scale(.1 -.1)">
<defs>
<path id="g" d="m10.688 12.406h10.312v-12.406h-10.312z"/>
</defs>
<use xlink:href="#g"/>
</g>
</g>
<g clip-path="url(#a)">
<g transform="translate(1333.1 378.44) scale(.1 -.1)">
<defs>
<path id="at" d="m9.8125 72.906h14.703l18.594-49.609 18.703 49.609h14.703v-72.906h-9.625v64.016l-18.797-50h-9.9062l-18.797 50v-64.016h-9.5781z"/>
</defs>
<use xlink:href="#u"/>
<use x="29.492188" xlink:href="#at"/>
<use x="115.771484" xlink:href="#s"/>
<use x="176.074219" xlink:href="#ad"/>
<use x="231.787109" xlink:href="#u"/>
<use x="261.279297" xlink:href="#w"/>
<use x="331.103516" xlink:href="#u"/>
<use x="360.595703" xlink:href="#l"/>
</g>
</g>
<g clip-path="url(#a)">
<g transform="translate(420.53 36.699) scale(.1 -.1)">
<defs>
<path id="c" d="m12.406 8.2969h16.109v55.625l-17.531-3.5156v8.9844l17.438 3.5156h9.8594v-64.609h16.109v-8.2969h-41.984z"/>
</defs>
<use xlink:href="#c"/>
<use x="63.623047" xlink:href="#g"/>
<use x="95.410156" xlink:href="#c"/>
</g>
</g>
<g clip-path="url(#a)">
<g transform="translate(72.915 491.7) scale(.1 -.1)">
<defs>
<path id="m" d="m19.188 8.2969h34.422v-8.2969h-46.281v8.2969q5.6094 5.8125 15.297 15.594 9.7031 9.7969 12.188 12.641 4.7344 5.3125 6.6094 9 1.8906 3.6875 1.8906 7.25 0 5.8125-4.0781 9.4688-4.0781 3.6719-10.625 3.6719-4.6406 0-9.7969-1.6094-5.1406-1.6094-11-4.8906v9.9688q5.9531 2.3906 11.125 3.6094 5.1875 1.2188 9.4844 1.2188 11.328 0 18.062-5.6719 6.7344-5.6562 6.7344-15.125 0-4.5-1.6875-8.5312-1.6719-4.0156-6.125-9.4844-1.2188-1.4219-7.7656-8.1875-6.5312-6.7656-18.453-18.922z"/>
</defs>
<use xlink:href="#c"/>
<use x="63.623047" xlink:href="#g"/>
<use x="95.410156" xlink:href="#m"/>
</g>
</g>
<g clip-path="url(#a)">
<g transform="translate(169.72 604.36) scale(.1 -.1)">
<defs>
<path id="o" d="m40.578 39.312q7.0781-1.5156 11.047-6.3125 3.9844-4.7812 3.9844-11.812 0-10.781-7.4219-16.703-7.4219-5.9062-21.094-5.9062-4.5781 0-9.4375 0.90625t-10.031 2.7188v9.5156q4.0938-2.3906 8.9688-3.6094 4.8906-1.2188 10.219-1.2188 9.2656 0 14.125 3.6562t4.8594 10.641q0 6.4531-4.5156 10.078-4.5156 3.6406-12.562 3.6406h-8.5v8.1094h8.8906q7.2656 0 11.125 2.9062t3.8594 8.375q0 5.6094-3.9844 8.6094-3.9688 3.0156-11.391 3.0156-4.0625 0-8.7031-0.89062-4.6406-0.875-10.203-2.7188v8.7812q5.625 1.5625 10.531 2.3438t9.25 0.78125q11.234 0 17.766-5.1094 6.5469-5.0938 6.5469-13.781 0-6.0625-3.4688-10.234t-9.8594-5.7812z"/>
</defs>
<use xlink:href="#c"/>
<use x="63.623047" xlink:href="#g"/>
<use x="95.410156" xlink:href="#o"/>
</g>
</g>
<g clip-path="url(#a)">
<g transform="translate(149.57 150.86) scale(.1 -.1)">
<defs>
<path id="z" d="m37.797 64.312-24.906-38.922h24.906zm-2.5938 8.5938h12.406v-47.516h10.406v-8.2031h-10.406v-17.188h-9.8125v17.188h-32.906v9.5156z"/>
</defs>
<use xlink:href="#c"/>
<use x="63.623047" xlink:href="#g"/>
<use x="95.410156" xlink:href="#z"/>
</g>
</g>
<g clip-path="url(#a)">
<g transform="translate(704.36 604.36) scale(.1 -.1)">
<defs>
<path id="y" d="m10.797 72.906h38.719v-8.3125h-29.688v-17.859q2.1406 0.73438 4.2812 1.0938 2.1562 0.35938 4.3125 0.35938 12.203 0 19.328-6.6875 7.1406-6.6875 7.1406-18.109 0-11.766-7.3281-18.297-7.3281-6.5156-20.656-6.5156-4.5938 0-9.3594 0.78125-4.75 0.78125-9.8281 2.3438v9.9219q4.3906-2.3906 9.0781-3.5625t9.9062-1.1719q8.4531 0 13.375 4.4375 4.9375 4.4375 4.9375 12.062 0 7.6094-4.9375 12.047-4.9219 4.4531-13.375 4.4531-3.9531 0-7.8906-0.875-3.9219-0.875-8.0156-2.7344z"/>
</defs>
<use xlink:href="#c"/>
<use x="63.623047" xlink:href="#g"/>
<use x="95.410156" xlink:href="#y"/>
</g>
</g>
<g clip-path="url(#a)">
<g transform="translate(1123.5 264.79) scale(.1 -.1)">
<defs>
<path id="x" d="m33.016 40.375q-6.6406 0-10.531-4.5469-3.875-4.5312-3.875-12.438 0-7.8594 3.875-12.438 3.8906-4.5625 10.531-4.5625t10.516 4.5625q3.875 4.5781 3.875 12.438 0 7.9062-3.875 12.438-3.875 4.5469-10.516 4.5469zm19.578 30.922v-8.9844q-3.7188 1.75-7.5 2.6719-3.7812 0.9375-7.5 0.9375-9.7656 0-14.922-6.5938-5.1406-6.5938-5.875-19.922 2.875 4.25 7.2188 6.5156 4.3594 2.2656 9.5781 2.2656 10.984 0 17.359-6.6719 6.375-6.6562 6.375-18.125 0-11.234-6.6406-18.031-6.6406-6.7812-17.672-6.7812-12.656 0-19.344 9.6875-6.6875 9.7031-6.6875 28.109 0 17.281 8.2031 27.562t22.016 10.281q3.7188 0 7.5-0.73438t7.8906-2.1875z"/>
</defs>
<use xlink:href="#c"/>
<use x="63.623047" xlink:href="#g"/>
<use x="95.410156" xlink:href="#x"/>
</g>
</g>
<g clip-path="url(#a)">
<g transform="translate(855.57 378.44) scale(.1 -.1)">
<use xlink:href="#c"/>
<use x="63.623047" xlink:href="#g"/>
<use x="95.410156" xlink:href="#c"/>
<use x="159.033203" xlink:href="#c"/>
</g>
</g>
<g clip-path="url(#a)">
<g transform="translate(1012.4 604.36) scale(.1 -.1)">
<use xlink:href="#c"/>
<use x="63.623047" xlink:href="#g"/>
<use x="95.410156" xlink:href="#c"/>
<use x="159.033203" xlink:href="#m"/>
</g>
</g>
<g clip-path="url(#a)">
<g transform="translate(1089.9 604.36) scale(.1 -.1)">
<use xlink:href="#c"/>
<use x="63.623047" xlink:href="#g"/>
<use x="95.410156" xlink:href="#c"/>
<use x="159.033203" xlink:href="#o"/>
</g>
</g>
<g clip-path="url(#a)">
<g transform="translate(1170.3 604.36) scale(.1 -.1)">
<use xlink:href="#c"/>
<use x="63.623047" xlink:href="#g"/>
<use x="95.410156" xlink:href="#c"/>
<use x="159.033203" xlink:href="#z"/>
</g>
</g>
<g clip-path="url(#a)">
<g transform="translate(1253.7 604.36) scale(.1 -.1)">
<use xlink:href="#c"/>
<use x="63.623047" xlink:href="#g"/>
<use x="95.410156" xlink:href="#c"/>
<use x="159.033203" xlink:href="#y"/>
</g>
</g>
<g clip-path="url(#a)">
<g transform="translate(797.98 604.36) scale(.1 -.1)">
<use xlink:href="#c"/>
<use x="63.623047" xlink:href="#g"/>
<use x="95.410156" xlink:href="#c"/>
<use x="159.033203" xlink:href="#x"/>
</g>
</g>
<g clip-path="url(#a)">
<g transform="translate(866.49 604.36) scale(.1 -.1)">
<defs>
<path id="ah" d="m8.2031 72.906h46.875v-4.2031l-26.469-68.703h-10.297l24.906 64.594h-35.016z"/>
</defs>
<use xlink:href="#c"/>
<use x="63.623047" xlink:href="#g"/>
<use x="95.410156" xlink:href="#c"/>
<use x="159.033203" xlink:href="#ah"/>
</g>
</g>
<g clip-path="url(#a)">
<g transform="translate(902.23 491.7) scale(.1 -.1)">
<defs>
<path id="ag" d="m31.781 34.625q-7.0312 0-11.062-3.7656-4.0156-3.7656-4.0156-10.344 0-6.5938 4.0156-10.359 4.0312-3.7656 11.062-3.7656t11.078 3.7812q4.0625 3.7969 4.0625 10.344 0 6.5781-4.0312 10.344-4.0156 3.7656-11.109 3.7656zm-9.8594 4.1875q-6.3438 1.5625-9.8906 5.9062-3.5312 4.3594-3.5312 10.609 0 8.7344 6.2188 13.812 6.2344 5.0781 17.062 5.0781 10.891 0 17.094-5.0781t6.2031-13.812q0-6.25-3.5469-10.609-3.5312-4.3438-9.8281-5.9062 7.125-1.6562 11.094-6.5 3.9844-4.8281 3.9844-11.797 0-10.609-6.4688-16.281-6.4688-5.6562-18.531-5.6562-12.047 0-18.531 5.6562-6.4688 5.6719-6.4688 16.281 0 6.9688 4 11.797 4.0156 4.8438 11.141 6.5zm-3.6094 15.578q0-5.6562 3.5312-8.8281 3.5469-3.1719 9.9375-3.1719 6.3594 0 9.9375 3.1719 3.5938 3.1719 3.5938 8.8281 0 5.6719-3.5938 8.8438-3.5781 3.1719-9.9375 3.1719-6.3906 0-9.9375-3.1719-3.5312-3.1719-3.5312-8.8438z"/>
</defs>
<use xlink:href="#c"/>
<use x="63.623047" xlink:href="#g"/>
<use x="95.410156" xlink:href="#c"/>
<use x="159.033203" xlink:href="#ag"/>
</g>
</g>
<g clip-path="url(#a)">
<g transform="translate(937.97 604.36) scale(.1 -.1)">
<defs>
<path id="al" d="m10.984 1.5156v8.9844q3.7188-1.7656 7.5156-2.6875 3.8125-0.92188 7.4844-0.92188 9.7656 0 14.906 6.5625 5.1562 6.5625 5.8906 19.953-2.8281-4.2031-7.1875-6.4531-4.3438-2.25-9.6094-2.25-10.938 0-17.312 6.6094-6.375 6.625-6.375 18.109 0 11.219 6.6406 18 6.6406 6.7969 17.672 6.7969 12.656 0 19.312-9.7031 6.6719-9.6875 6.6719-28.141 0-17.234-8.1875-27.516-8.1719-10.281-21.984-10.281-3.7188 0-7.5312 0.73438-3.7969 0.73438-7.9062 2.2031zm19.625 30.906q6.6406 0 10.516 4.5312 3.8906 4.5469 3.8906 12.469 0 7.8594-3.8906 12.422-3.875 4.5625-10.516 4.5625t-10.516-4.5625-3.875-12.422q0-7.9219 3.875-12.469 3.875-4.5312 10.516-4.5312z"/>
</defs>
<use xlink:href="#c"/>
<use x="63.623047" xlink:href="#g"/>
<use x="95.410156" xlink:href="#c"/>
<use x="159.033203" xlink:href="#al"/>
</g>
</g>
<g clip-path="url(#a)">
<g transform="translate(311.61 264.79) scale(.1 -.1)">
<defs>
<path id="am" d="m31.781 66.406q-7.6094 0-11.453-7.5-3.8281-7.4844-3.8281-22.531 0-14.984 3.8281-22.484 3.8438-7.5 11.453-7.5 7.6719 0 11.5 7.5 3.8438 7.5 3.8438 22.484 0 15.047-3.8438 22.531-3.8281 7.5-11.5 7.5zm0 7.8125q12.266 0 18.734-9.7031 6.4688-9.6875 6.4688-28.141 0-18.406-6.4688-28.109-6.4688-9.6875-18.734-9.6875-12.25 0-18.719 9.6875-6.4688 9.7031-6.4688 28.109 0 18.453 6.4688 28.141 6.4688 9.7031 18.719 9.7031z"/>
</defs>
<use xlink:href="#c"/>
<use x="63.623047" xlink:href="#g"/>
<use x="95.410156" xlink:href="#m"/>
<use x="159.033203" xlink:href="#am"/>
</g>
</g>
<g clip-path="url(#a)">
<g transform="translate(241 604.36) scale(.1 -.1)">
<use xlink:href="#c"/>
<use x="63.623047" xlink:href="#g"/>
<use x="95.410156" xlink:href="#m"/>
<use x="159.033203" xlink:href="#c"/>
</g>
</g>
<g clip-path="url(#a)">
<g transform="translate(296.1 491.7) scale(.1 -.1)">
<use xlink:href="#c"/>
<use x="63.623047" xlink:href="#g"/>
<use x="95.410156" xlink:href="#m"/>
<use x="159.033203" xlink:href="#m"/>
</g>
</g>
<g clip-path="url(#a)">
<g transform="translate(315.46 604.36) scale(.1 -.1)">
<use xlink:href="#c"/>
<use x="63.623047" xlink:href="#g"/>
<use x="95.410156" xlink:href="#m"/>
<use x="159.033203" xlink:href="#o"/>
</g>
</g>
<g clip-path="url(#a)">
<g transform="translate(393.9 378.44) scale(.1 -.1)">
<use xlink:href="#c"/>
<use x="63.623047" xlink:href="#g"/>
<use x="95.410156" xlink:href="#m"/>
<use x="159.033203" xlink:href="#z"/>
</g>
</g>
<g clip-path="url(#a)">
<g transform="translate(357.16 604.36) scale(.1 -.1)">
<use xlink:href="#c"/>
<use x="63.623047" xlink:href="#g"/>
<use x="95.410156" xlink:href="#m"/>
<use x="159.033203" xlink:href="#y"/>
</g>
</g>
<g clip-path="url(#a)">
<g transform="translate(401.84 604.36) scale(.1 -.1)">
<use xlink:href="#c"/>
<use x="63.623047" xlink:href="#g"/>
<use x="95.410156" xlink:href="#m"/>
<use x="159.033203" xlink:href="#x"/>
</g>
</g>
<g clip-path="url(#a)">
<g transform="translate(501.12 491.7) scale(.1 -.1)">
<use xlink:href="#c"/>
<use x="63.623047" xlink:href="#g"/>
<use x="95.410156" xlink:href="#m"/>
<use x="159.033203" xlink:href="#ah"/>
</g>
</g>
<g clip-path="url(#a)">
<g transform="translate(449.49 604.36) scale(.1 -.1)">
<use xlink:href="#c"/>
<use x="63.623047" xlink:href="#g"/>
<use x="95.410156" xlink:href="#m"/>
<use x="159.033203" xlink:href="#ag"/>
</g>
</g>
<g clip-path="url(#a)">
<g transform="translate(500.13 604.36) scale(.1 -.1)">
<use xlink:href="#c"/>
<use x="63.623047" xlink:href="#g"/>
<use x="95.410156" xlink:href="#m"/>
<use x="159.033203" xlink:href="#al"/>
</g>
</g>
<g clip-path="url(#a)">
<g transform="translate(553.74 604.36) scale(.1 -.1)">
<use xlink:href="#c"/>
<use x="63.623047" xlink:href="#g"/>
<use x="95.410156" xlink:href="#o"/>
<use x="159.033203" xlink:href="#am"/>
</g>
</g>
<g clip-path="url(#a)">
<g transform="translate(276.74 604.36) scale(.1 -.1)">
<use xlink:href="#c"/>
<use x="63.623047" xlink:href="#g"/>
<use x="95.410156" xlink:href="#o"/>
<use x="159.033203" xlink:href="#c"/>
</g>
</g>
<g clip-path="url(#a)">
<g transform="translate(53.352 604.36) scale(.1 -.1)">
<use xlink:href="#c"/>
<use x="63.623047" xlink:href="#g"/>
<use x="95.410156" xlink:href="#o"/>
<use x="159.033203" xlink:href="#m"/>
</g>
</g>
<g clip-path="url(#a)">
<g transform="translate(62.288 604.36) scale(.1 -.1)">
<use xlink:href="#c"/>
<use x="63.623047" xlink:href="#g"/>
<use x="95.410156" xlink:href="#o"/>
<use x="159.033203" xlink:href="#o"/>
</g>
</g>
<g clip-path="url(#a)">
<g transform="translate(74.202 604.36) scale(.1 -.1)">
<use xlink:href="#c"/>
<use x="63.623047" xlink:href="#g"/>
<use x="95.410156" xlink:href="#o"/>
<use x="159.033203" xlink:href="#z"/>
</g>
</g>
<g clip-path="url(#a)">
<g transform="translate(89.094 604.36) scale(.1 -.1)">
<use xlink:href="#c"/>
<use x="63.623047" xlink:href="#g"/>
<use x="95.410156" xlink:href="#o"/>
<use x="159.033203" xlink:href="#y"/>
</g>
</g>
<g clip-path="url(#a)">
<g transform="translate(106.97 604.36) scale(.1 -.1)">
<use xlink:href="#c"/>
<use x="63.623047" xlink:href="#g"/>
<use x="95.410156" xlink:href="#o"/>
<use x="159.033203" xlink:href="#x"/>
</g>
</g>
<g clip-path="url(#a)">
<g transform="translate(610.33 604.36) scale(.1 -.1)">
<use xlink:href="#c"/>
<use x="63.623047" xlink:href="#g"/>
<use x="95.410156" xlink:href="#o"/>
<use x="159.033203" xlink:href="#ah"/>
</g>
</g>
<g clip-path="url(#a)">
<g transform="translate(1340.1 604.36) scale(.1 -.1)">
<use xlink:href="#c"/>
<use x="63.623047" xlink:href="#g"/>
<use x="95.410156" xlink:href="#o"/>
<use x="159.033203" xlink:href="#ag"/>
</g>
</g>
<defs>
<clipPath id="a">
<rect width="1418.7" height="746.67"/>
</clipPath>
</defs>
</svg>
