<?xml version="1.0" encoding="UTF-8"?>
<!DOCTYPE svg  PUBLIC '-//W3C//DTD SVG 1.1//EN'  'http://www.w3.org/Graphics/SVG/1.1/DTD/svg11.dtd'>
<svg width="1013.3pt" height="533.33pt" version="1.1" viewBox="0 0 1013.3 533.33" xmlns="http://www.w3.org/2000/svg" xmlns:xlink="http://www.w3.org/1999/xlink">
<metadata>
<rdf:RDF xmlns:cc="http://creativecommons.org/ns#" xmlns:dc="http://purl.org/dc/elements/1.1/" xmlns:rdf="http://www.w3.org/1999/02/22-rdf-syntax-ns#">
<cc:Work>
<dc:type rdf:resource="http://purl.org/dc/dcmitype/StillImage"/>
<dc:date>2021-03-08T11:02:09.868567</dc:date>
<dc:format>image/svg+xml</dc:format>
<dc:creator>
<cc:Agent>
<dc:title>Matplotlib v3.3.3, https://matplotlib.org/</dc:title>
</cc:Agent>
</dc:creator>
</cc:Work>
</rdf:RDF>
</metadata>
<defs>
<style type="text/css">*{stroke-linecap:butt;stroke-linejoin:round;}</style>
</defs>
<path d="m0 533.33h1013.3v-533.33h-1013.3z" fill="#fff"/>
<g fill="none" stroke="#000">
<path d="m348.79 24.242v81.544" clip-path="url(#a)"/>
<path d="m348.79 105.79-202.1 81.38" clip-path="url(#a)"/>
<path d="m348.79 105.79 113.82 323.93" clip-path="url(#a)"/>
<path d="m348.79 105.79 327.6 81.38" clip-path="url(#a)"/>
<path d="m348.79 105.79-302.73 323.93" clip-path="url(#a)"/>
<path d="m348.79 105.79 5.6741 323.93" clip-path="url(#a)"/>
<path d="m348.79 105.79 57.743 323.93" clip-path="url(#a)"/>
<path d="m146.69 187.17-72.596 81.175" clip-path="url(#a)"/>
<path d="m146.69 187.17 69.091 81.175" clip-path="url(#a)"/>
<path d="m146.69 187.17 3.5046 242.55" clip-path="url(#a)"/>
<path d="m462.61 429.72v79.373" clip-path="url(#a)"/>
<path d="m676.39 187.17-121.66 81.175" clip-path="url(#a)"/>
<path d="m676.39 187.17 121.66 162.07" clip-path="url(#a)"/>
<path d="m554.73 268.34v80.899" clip-path="url(#a)"/>
<path d="m798.05 349.24-143.19 80.477" clip-path="url(#a)"/>
<path d="m798.05 349.24-71.094 80.477" clip-path="url(#a)"/>
<path d="m798.05 349.24 45.059 80.477" clip-path="url(#a)"/>
<path d="m798.05 349.24 169.22 80.477" clip-path="url(#a)"/>
<path d="m654.86 429.72v79.373" clip-path="url(#a)"/>
<path d="m726.96 429.72v79.373" clip-path="url(#a)"/>
<path d="m843.11 429.72-40.053 79.373" clip-path="url(#a)"/>
<path d="m843.11 429.72 40.053 79.373" clip-path="url(#a)"/>
<path d="m554.73 349.24-32.042 80.477" clip-path="url(#a)"/>
<path d="m554.73 349.24 32.042 80.477" clip-path="url(#a)"/>
<path d="m522.69 429.72v79.373" clip-path="url(#a)"/>
<path d="m586.77 429.72v79.373" clip-path="url(#a)"/>
<path d="m74.097 268.34 48.063 80.899" clip-path="url(#a)"/>
<path d="m74.097 268.34-16.021 161.38" clip-path="url(#a)"/>
<path d="m74.097 268.34 16.021 80.899" clip-path="url(#a)"/>
<path d="m215.78 268.34 90.619 80.899" clip-path="url(#a)"/>
<path d="m215.78 268.34-33.544 161.38" clip-path="url(#a)"/>
<path d="m215.78 268.34 33.544 80.899" clip-path="url(#a)"/>
<path d="m182.24 429.72v79.373" clip-path="url(#a)"/>
<path d="m249.33 349.24-31.041 80.477" clip-path="url(#a)"/>
<path d="m249.33 349.24 31.041 80.477" clip-path="url(#a)"/>
<path d="m218.29 429.72v79.373" clip-path="url(#a)"/>
<path d="m280.37 429.72-22.029 79.373" clip-path="url(#a)"/>
<path d="m280.37 429.72 22.029 79.373" clip-path="url(#a)"/>
<path d="m58.076 429.72v79.373" clip-path="url(#a)"/>
<path d="m90.119 349.24-16.021 80.477" clip-path="url(#a)"/>
<path d="m90.119 349.24 16.021 80.477" clip-path="url(#a)"/>
<path d="m74.097 429.72v79.373" clip-path="url(#a)"/>
<path d="m106.14 429.72-12.016 79.373" clip-path="url(#a)"/>
<path d="m106.14 429.72 12.016 79.373" clip-path="url(#a)"/>
<path d="m46.061 429.72v79.373" clip-path="url(#a)"/>
<path d="m150.2 429.72v79.373" clip-path="url(#a)"/>
<path d="m354.47 429.72v79.373" clip-path="url(#a)"/>
<path d="m406.53 429.72v79.373" clip-path="url(#a)"/>
<path d="m967.27 429.72v79.373" clip-path="url(#a)"/>
</g>
<path d="m342.52 62.006v6.0162q0 2.4 2.4 2.4h7.7425q2.4 0 2.4-2.4v-6.0162q0-2.4-2.4-2.4h-7.7425q-2.4 0-2.4 2.4z" clip-path="url(#a)" fill="#fff" stroke="#fff"/>
<g clip-path="url(#a)">
<g transform="translate(346.58 62.006) rotate(90) scale(.08 -.08)">
<defs>
<path id="x" d="m9.8125 72.906h9.8594v-29.891h35.844v29.891h9.8594v-72.906h-9.8594v34.719h-35.844v-34.719h-9.8594z"/>
</defs>
<use xlink:href="#x"/>
</g>
</g>
<path d="m247.55 153.32 5.0764-2.0441q2.2263-0.89647 1.3298-3.1228l-2.892-7.1821q-0.89647-2.2263-3.1228-1.3298l-5.0764 2.0441q-2.2263 0.89647-1.3298 3.1228l2.892 7.1821q0.89647 2.2263 3.1228 1.3298z" clip-path="url(#a)" fill="#fff" stroke="#fff"/>
<g clip-path="url(#a)">
<g transform="translate(246.03 149.55) rotate(-21.933) scale(.08 -.08)">
<defs>
<path id="o" d="m34.188 63.188-13.391-36.281h26.812zm-5.5781 9.7188h11.188l27.781-72.906h-10.25l-6.6406 18.703h-32.859l-6.6406-18.703h-10.406z"/>
</defs>
<use xlink:href="#o"/>
</g>
</g>
<path d="m398.98 267.56 1.599 4.551q0.79558 2.2643 3.0599 1.4687l7.3047-2.5666q2.2643-0.79558 1.4687-3.0599l-1.599-4.551q-0.79558-2.2643-3.0599-1.4687l-7.3047 2.5666q-2.2643 0.79558-1.4687 3.0599z" clip-path="url(#a)" fill="#fff" stroke="#fff"/>
<g clip-path="url(#a)">
<g transform="translate(402.82 266.21) rotate(70.641) scale(.08 -.08)">
<defs>
<path id="q" d="m19.672 64.797v-27.391h12.406q6.8906 0 10.641 3.5625 3.7656 3.5625 3.7656 10.156 0 6.5469-3.7656 10.109-3.75 3.5625-10.641 3.5625zm-9.8594 8.1094h22.266q12.266 0 18.531-5.5469 6.2812-5.5469 6.2812-16.234 0-10.797-6.2812-16.312-6.2656-5.5156-18.531-5.5156h-12.406v-29.297h-9.8594z"/>
</defs>
<use xlink:href="#q"/>
</g>
</g>
<path d="m508.42 151.9 5.3111 1.3193q2.3292 0.57861 2.9078-1.7506l1.8666-7.5141q0.57861-2.3292-1.7506-2.9078l-5.3111-1.3194q-2.3292-0.57861-2.9078 1.7506l-1.8666 7.5141q-0.57861 2.3292 1.7506 2.9078z" clip-path="url(#a)" fill="#fff" stroke="#fff"/>
<g clip-path="url(#a)">
<g transform="translate(509.4 147.96) rotate(13.951) scale(.08 -.08)">
<use xlink:href="#o"/>
</g>
</g>
<path d="m200.01 274.17 3.9978-4.2777q1.6387-1.7535-0.11476-3.3922l-5.6567-5.2865q-1.7535-1.6387-3.3922 0.11476l-3.9978 4.2777q-1.6387 1.7535 0.11476 3.3922l5.6567 5.2865q1.7535 1.6387 3.3922-0.11476z" clip-path="url(#a)" fill="#fff" stroke="#fff"/>
<g clip-path="url(#a)">
<g transform="translate(197.04 271.4) rotate(-46.938) scale(.08 -.08)">
<defs>
<path id="s" d="m8.6875 72.906h9.9219v-44.297q0-11.719 4.2344-16.875 4.25-5.1406 13.781-5.1406 9.4688 0 13.719 5.1406 4.25 5.1562 4.25 16.875v44.297h9.9062v-45.516q0-14.25-7.0625-21.531-7.0469-7.2812-20.812-7.2812-13.828 0-20.891 7.2812-7.0469 7.2812-7.0469 21.531z"/>
</defs>
<use xlink:href="#s"/>
</g>
</g>
<path d="m345.31 264.93 0.10254 5.8541q0.042033 2.3996 2.4417 2.3576l7.7413-0.1356q2.3996-0.042033 2.3576-2.4417l-0.10254-5.8541q-0.042033-2.3996-2.4417-2.3576l-7.7413 0.1356q-2.3996 0.042033-2.3576 2.4417z" clip-path="url(#a)" fill="#fff" stroke="#fff"/>
<g clip-path="url(#a)">
<g transform="translate(349.37 264.86) rotate(88.996) scale(.08 -.08)">
<use xlink:href="#s"/>
</g>
</g>
<path d="m370.98 265.97 1.0275 5.7641q0.42117 2.3628 2.7839 1.9416l7.6223-1.3587q2.3628-0.42118 1.9416-2.7839l-1.0275-5.7641q-0.42118-2.3628-2.7839-1.9416l-7.6223 1.3587q-2.3628 0.42118-1.9416 2.7839z" clip-path="url(#a)" fill="#fff" stroke="#fff"/>
<g clip-path="url(#a)">
<g transform="translate(374.98 265.26) rotate(79.893) scale(.08 -.08)">
<use xlink:href="#s"/>
</g>
</g>
<path d="m113.06 234.18 4.0105-4.4845q1.5999-1.789-0.18907-3.3888l-5.7712-5.1613q-1.789-1.5999-3.3888 0.18907l-4.0105 4.4845q-1.5999 1.789 0.18907 3.3888l5.7712 5.1613q1.789 1.5999 3.3888-0.18907z" clip-path="url(#a)" fill="#fff" stroke="#fff"/>
<g clip-path="url(#a)">
<g transform="translate(110.04 231.47) rotate(-48.193) scale(.08 -.08)">
<use xlink:href="#x"/>
</g>
</g>
<path d="m174.51 229.53 3.8994 4.5814q1.5556 1.8276 3.3832 0.27206l5.896-5.0183q1.8276-1.5556 0.27206-3.3832l-3.8994-4.5814q-1.5556-1.8276-3.3832-0.27206l-5.896 5.0183q-1.8276 1.5556-0.27206 3.3832z" clip-path="url(#a)" fill="#fff" stroke="#fff"/>
<g clip-path="url(#a)">
<g transform="translate(177.61 226.89) rotate(49.598) scale(.08 -.08)">
<use xlink:href="#x"/>
</g>
</g>
<path d="m142.13 305.61 0.08459 5.8544q0.034674 2.3997 2.4344 2.3651l7.7417-0.11186q2.3998-0.034674 2.3651-2.4344l-0.08459-5.8544q-0.034673-2.3998-2.4344-2.3651l-7.7417 0.11186q-2.3997 0.034674-2.3651 2.4344z" clip-path="url(#a)" fill="#fff" stroke="#fff"/>
<g clip-path="url(#a)">
<g transform="translate(146.2 305.55) rotate(89.172) scale(.08 -.08)">
<use xlink:href="#s"/>
</g>
</g>
<path d="m456.34 452.5v33.808q0 2.4 2.4 2.4h7.7425q2.4 0 2.4-2.4v-33.808q0-2.4-2.4-2.4h-7.7425q-2.4 0-2.4 2.4z" clip-path="url(#a)" fill="#fff" stroke="#fff"/>
<g clip-path="url(#a)">
<g transform="translate(460.4 452.5) rotate(90) scale(.08 -.08)">
<defs>
<path id="k" d="m-0.29688 72.906h61.672v-8.3125h-25.875v-64.594h-9.9062v64.594h-25.891z"/>
<path id="f" d="m56.203 29.594v-4.3906h-41.312q0.59375-9.2812 5.5938-14.141t13.938-4.8594q5.1719 0 10.031 1.2656t9.6562 3.8125v-8.5q-4.8438-2.0469-9.9219-3.125t-10.297-1.0781q-13.094 0-20.734 7.6094-7.6406 7.625-7.6406 20.625 0 13.422 7.25 21.297 7.25 7.8906 19.562 7.8906 11.031 0 17.453-7.1094 6.4219-7.0938 6.4219-19.297zm-8.9844 2.6406q-0.09375 7.3594-4.125 11.75-4.0312 4.4062-10.672 4.4062-7.5156 0-12.031-4.25t-5.2031-11.969z"/>
<path id="h" d="m41.109 46.297q-1.5156 0.875-3.2969 1.2812-1.7812 0.42188-3.9219 0.42188-7.625 0-11.703-4.9531t-4.0781-14.234v-28.812h-9.0312v54.688h9.0312v-8.5q2.8438 4.9844 7.375 7.3906 4.5469 2.4219 11.047 2.4219 0.92188 0 2.0469-0.125 1.125-0.10938 2.4844-0.35938z"/>
<path id="l" d="m52 44.188q3.375 6.0625 8.0625 8.9375t11.031 2.875q8.5469 0 13.188-5.9844 4.6406-5.9688 4.6406-17v-33.016h-9.0312v32.719q0 7.8594-2.7969 11.656-2.7812 3.8125-8.4844 3.8125-6.9844 0-11.047-4.6406-4.0469-4.625-4.0469-12.641v-30.906h-9.0312v32.719q0 7.9062-2.7812 11.688t-8.5938 3.7812q-6.8906 0-10.953-4.6562-4.0469-4.6562-4.0469-12.625v-30.906h-9.0312v54.688h9.0312v-8.5q3.0781 5.0312 7.375 7.4219t10.203 2.3906q5.9688 0 10.141-3.0312 4.1719-3.0156 6.1719-8.7812z"/>
<path id="i" d="m9.4219 54.688h8.9844v-54.688h-8.9844zm0 21.297h8.9844v-11.391h-8.9844z"/>
<path id="j" d="m54.891 33.016v-33.016h-8.9844v32.719q0 7.7656-3.0312 11.609-3.0312 3.8594-9.0781 3.8594-7.2812 0-11.484-4.6406-4.2031-4.625-4.2031-12.641v-30.906h-9.0312v54.688h9.0312v-8.5q3.2344 4.9375 7.5938 7.375 4.375 2.4375 10.094 2.4375 9.4219 0 14.25-5.8281 4.8438-5.8281 4.8438-17.156z"/>
<path id="g" d="m34.281 27.484q-10.891 0-15.094-2.4844t-4.2031-8.5q0-4.7812 3.1562-7.5938 3.1562-2.7969 8.5625-2.7969 7.4844 0 12 5.2969t4.5156 14.078v2zm17.922 3.7188v-31.203h-8.9844v8.2969q-3.0781-4.9688-7.6719-7.3438t-11.234-2.375q-8.3906 0-13.359 4.7188-4.9531 4.7188-4.9531 12.625 0 9.2188 6.1719 13.906 6.1875 4.6875 18.438 4.6875h12.609v0.89062q0 6.2031-4.0781 9.5938t-11.453 3.3906q-4.6875 0-9.1406-1.125-4.4375-1.125-8.5312-3.375v8.3125q4.9219 1.9062 9.5625 2.8438 4.6406 0.95312 9.0312 0.95312 11.875 0 17.734-6.1562 5.8594-6.1406 5.8594-18.641z"/>
<path id="e" d="m9.4219 75.984h8.9844v-75.984h-8.9844z"/>
</defs>
<use xlink:href="#k"/>
<use x="44.083984" xlink:href="#f"/>
<use x="105.607422" xlink:href="#h"/>
<use x="144.970703" xlink:href="#l"/>
<use x="242.382812" xlink:href="#i"/>
<use x="270.166016" xlink:href="#j"/>
<use x="333.544922" xlink:href="#g"/>
<use x="394.824219" xlink:href="#e"/>
</g>
</g>
<path d="m616.72 234.52 4.6468-3.1005q1.9964-1.3321 0.66435-3.3285l-4.2973-6.4405q-1.3321-1.9964-3.3285-0.66435l-4.6468 3.1005q-1.9964 1.3321-0.66435 3.3285l4.2973 6.4405q1.3321 1.9964 3.3285 0.66435z" clip-path="url(#a)" fill="#fff" stroke="#fff"/>
<g clip-path="url(#a)">
<g transform="translate(614.46 231.14) rotate(-33.712) scale(.08 -.08)">
<defs>
<path id="p" d="m64.406 67.281v-10.391q-4.9844 4.6406-10.625 6.9219-5.6406 2.2969-11.984 2.2969-12.5 0-19.141-7.6406t-6.6406-22.094q0-14.406 6.6406-22.047t19.141-7.6406q6.3438 0 11.984 2.2969t10.625 6.9375v-10.312q-5.1719-3.5156-10.969-5.2812-5.7812-1.75-12.219-1.75-16.562 0-26.094 10.125-9.5156 10.141-9.5156 27.672 0 17.578 9.5156 27.703 9.5312 10.141 26.094 10.141 6.5312 0 12.312-1.7344 5.7969-1.7344 10.875-5.2031z"/>
</defs>
<use xlink:href="#p"/>
</g>
</g>
<path d="m730.69 269.95 3.0347 4.0427q1.4408 1.9194 3.3602 0.47861l6.1921-4.6481q1.9194-1.4408 0.47861-3.3602l-3.0347-4.0427q-1.4408-1.9194-3.3602-0.47861l-6.1921 4.6481q-1.9194 1.4408-0.47861 3.3602z" clip-path="url(#a)" fill="#fff" stroke="#fff"/>
<g clip-path="url(#a)">
<g transform="translate(733.94 267.51) rotate(53.106) scale(.08 -.08)">
<defs>
<path id="aq" d="m9.8125 72.906h46.094v-8.3125h-36.234v-21.578h34.719v-8.2969h-34.719v-26.422h37.109v-8.2969h-46.969z"/>
</defs>
<use xlink:href="#aq"/>
</g>
</g>
<path d="m548.33 302.3v12.991q0 2.4 2.4 2.4h8q2.4 0 2.4-2.4v-12.991q0-2.4-2.4-2.4h-8q-2.4 0-2.4 2.4z" clip-path="url(#a)" fill="#fff" stroke="#fff"/>
<g clip-path="url(#a)">
<g transform="translate(552.62 302.3) rotate(90) scale(.08 -.08)">
<defs>
<path id="au" d="m21 76.422v-100h-8.2969v100z"/>
</defs>
<use xlink:href="#o"/>
<use x="68.408203" xlink:href="#au"/>
<use x="102.099609" xlink:href="#q"/>
</g>
</g>
<path d="m727.11 396.31 4.8458-2.7235q2.0922-1.1759 0.9163-3.2681l-3.7935-6.7495q-1.1759-2.0922-3.2681-0.9163l-4.8458 2.7235q-2.0922 1.1759-0.9163 3.2681l3.7935 6.7495q1.1759 2.0922 3.2681 0.9163z" clip-path="url(#a)" fill="#fff" stroke="#fff"/>
<g clip-path="url(#a)">
<g transform="translate(725.11 392.77) rotate(-29.338) scale(.08 -.08)">
<defs>
<path id="ao" d="m44.391 34.188q3.1719-1.0781 6.1719-4.5938t6.0312-9.6719l10.016-19.922h-10.609l-9.3125 18.703q-3.625 7.3281-7.0156 9.7188t-9.25 2.3906h-10.75v-30.812h-9.8594v72.906h22.266q12.5 0 18.656-5.2344 6.1562-5.2188 6.1562-15.766 0-6.8906-3.2031-11.438-3.2031-4.5312-9.2969-6.2812zm-24.719 30.609v-25.875h12.406q7.125 0 10.766 3.2969t3.6406 9.6875-3.6406 9.6406-10.766 3.25z"/>
</defs>
<use xlink:href="#ao"/>
</g>
</g>
<path d="m765.68 395.36 3.0463-3.4484q1.589-1.7987-0.20973-3.3876l-5.8026-5.126q-1.7987-1.5889-3.3876 0.20973l-3.0463 3.4484q-1.589 1.7987 0.20973 3.3876l5.8026 5.126q1.7987 1.589 3.3876-0.20973z" clip-path="url(#a)" fill="#fff" stroke="#fff"/>
<g clip-path="url(#a)">
<g transform="translate(762.63 392.66) rotate(-48.543) scale(.08 -.08)">
<defs>
<path id="t" d="m9.8125 72.906h41.891v-8.3125h-32.031v-21.484h28.906v-8.2969h-28.906v-34.812h-9.8594z"/>
</defs>
<use xlink:href="#t"/>
</g>
</g>
<path d="m813.74 390.11 2.7291 4.8742q1.1725 2.0941 3.2666 0.92161l6.7557-3.7825q2.0941-1.1725 0.92161-3.2666l-2.7291-4.8742q-1.1725-2.0941-3.2666-0.92161l-6.7557 3.7825q-2.0941 1.1725-0.92161 3.2666z" clip-path="url(#a)" fill="#fff" stroke="#fff"/>
<g clip-path="url(#a)">
<g transform="translate(817.29 388.12) rotate(60.755) scale(.08 -.08)">
<use xlink:href="#p"/>
</g>
</g>
<path d="m877.32 393.89 5.2875 2.5146q2.1674 1.0307 3.1981-1.1366l3.3252-6.9921q1.0307-2.1674-1.1366-3.1981l-5.2875-2.5146q-2.1674-1.0307-3.1981 1.1366l-3.3252 6.9921q-1.0307 2.1674 1.1366 3.1981z" clip-path="url(#a)" fill="#fff" stroke="#fff"/>
<g clip-path="url(#a)">
<g transform="translate(879.07 390.22) rotate(25.434) scale(.08 -.08)">
<use xlink:href="#s"/>
</g>
</g>
<path d="m648.59 452.5v33.808q0 2.4 2.4 2.4h7.7425q2.4 0 2.4-2.4v-33.808q0-2.4-2.4-2.4h-7.7425q-2.4 0-2.4 2.4z" clip-path="url(#a)" fill="#fff" stroke="#fff"/>
<g clip-path="url(#a)">
<g transform="translate(652.65 452.5) rotate(90) scale(.08 -.08)">
<use xlink:href="#k"/>
<use x="44.083984" xlink:href="#f"/>
<use x="105.607422" xlink:href="#h"/>
<use x="144.970703" xlink:href="#l"/>
<use x="242.382812" xlink:href="#i"/>
<use x="270.166016" xlink:href="#j"/>
<use x="333.544922" xlink:href="#g"/>
<use x="394.824219" xlink:href="#e"/>
</g>
</g>
<path d="m720.69 452.5v33.808q0 2.4 2.4 2.4h7.7425q2.4 0 2.4-2.4v-33.808q0-2.4-2.4-2.4h-7.7425q-2.4 0-2.4 2.4z" clip-path="url(#a)" fill="#fff" stroke="#fff"/>
<g clip-path="url(#a)">
<g transform="translate(724.75 452.5) rotate(90) scale(.08 -.08)">
<use xlink:href="#k"/>
<use x="44.083984" xlink:href="#f"/>
<use x="105.607422" xlink:href="#h"/>
<use x="144.970703" xlink:href="#l"/>
<use x="242.382812" xlink:href="#i"/>
<use x="270.166016" xlink:href="#j"/>
<use x="333.544922" xlink:href="#g"/>
<use x="394.824219" xlink:href="#e"/>
</g>
</g>
<path d="m821.07 487.32 15.23-30.182q1.0812-2.1427-1.0614-3.2239l-6.9123-3.488q-2.1427-1.0812-3.2239 1.0614l-15.23 30.182q-1.0812 2.1427 1.0614 3.2239l6.9123 3.488q2.1427 1.0812 3.2239-1.0614z" clip-path="url(#a)" fill="#fff" stroke="#fff"/>
<g clip-path="url(#a)">
<g transform="translate(817.44 485.49) rotate(-63.224) scale(.08 -.08)">
<use xlink:href="#k"/>
<use x="44.083984" xlink:href="#f"/>
<use x="105.607422" xlink:href="#h"/>
<use x="144.970703" xlink:href="#l"/>
<use x="242.382812" xlink:href="#i"/>
<use x="270.166016" xlink:href="#j"/>
<use x="333.544922" xlink:href="#g"/>
<use x="394.824219" xlink:href="#e"/>
</g>
</g>
<path d="m849.92 457.14 15.23 30.182q1.0812 2.1427 3.2239 1.0614l6.9123-3.488q2.1427-1.0812 1.0614-3.2239l-15.23-30.182q-1.0812-2.1427-3.2239-1.0614l-6.9123 3.488q-2.1427 1.0812-1.0614 3.2239z" clip-path="url(#a)" fill="#fff" stroke="#fff"/>
<g clip-path="url(#a)">
<g transform="translate(853.55 455.31) rotate(63.224) scale(.08 -.08)">
<use xlink:href="#k"/>
<use x="44.083984" xlink:href="#f"/>
<use x="105.607422" xlink:href="#h"/>
<use x="144.970703" xlink:href="#l"/>
<use x="242.382812" xlink:href="#i"/>
<use x="270.166016" xlink:href="#j"/>
<use x="333.544922" xlink:href="#g"/>
<use x="394.824219" xlink:href="#e"/>
</g>
</g>
<path d="m543.68 393.94 1.702-4.2749q0.88778-2.2298-1.342-3.1175l-7.1933-2.864q-2.2298-0.88778-3.1175 1.342l-1.702 4.2749q-0.88778 2.2298 1.342 3.1175l7.1933 2.864q2.2298 0.88778 3.1175-1.342z" clip-path="url(#a)" fill="#fff" stroke="#fff"/>
<g clip-path="url(#a)">
<g transform="translate(539.91 392.43) rotate(-68.29) scale(.08 -.08)">
<use xlink:href="#t"/>
</g>
</g>
<path d="m563.89 389.2 2.0664 5.19q0.88778 2.2298 3.1175 1.342l7.1933-2.864q2.2298-0.88778 1.342-3.1175l-2.0664-5.19q-0.88778-2.2298-3.1175-1.342l-7.1933 2.864q-2.2298 0.88778-1.342 3.1175z" clip-path="url(#a)" fill="#fff" stroke="#fff"/>
<g clip-path="url(#a)">
<g transform="translate(567.67 387.7) rotate(68.29) scale(.08 -.08)">
<use xlink:href="#p"/>
</g>
</g>
<path d="m516.42 452.5v33.808q0 2.4 2.4 2.4h7.7425q2.4 0 2.4-2.4v-33.808q0-2.4-2.4-2.4h-7.7425q-2.4 0-2.4 2.4z" clip-path="url(#a)" fill="#fff" stroke="#fff"/>
<g clip-path="url(#a)">
<g transform="translate(520.48 452.5) rotate(90) scale(.08 -.08)">
<use xlink:href="#k"/>
<use x="44.083984" xlink:href="#f"/>
<use x="105.607422" xlink:href="#h"/>
<use x="144.970703" xlink:href="#l"/>
<use x="242.382812" xlink:href="#i"/>
<use x="270.166016" xlink:href="#j"/>
<use x="333.544922" xlink:href="#g"/>
<use x="394.824219" xlink:href="#e"/>
</g>
</g>
<path d="m580.5 452.5v33.808q0 2.4 2.4 2.4h7.7425q2.4 0 2.4-2.4v-33.808q0-2.4-2.4-2.4h-7.7425q-2.4 0-2.4 2.4z" clip-path="url(#a)" fill="#fff" stroke="#fff"/>
<g clip-path="url(#a)">
<g transform="translate(584.56 452.5) rotate(90) scale(.08 -.08)">
<use xlink:href="#k"/>
<use x="44.083984" xlink:href="#f"/>
<use x="105.607422" xlink:href="#h"/>
<use x="144.970703" xlink:href="#l"/>
<use x="242.382812" xlink:href="#i"/>
<use x="270.166016" xlink:href="#j"/>
<use x="333.544922" xlink:href="#g"/>
<use x="394.824219" xlink:href="#e"/>
</g>
</g>
<path d="m91.34 309.64 2.7952 4.7048q1.2258 2.0633 3.2892 0.83748l6.6564-3.9546q2.0633-1.2258 0.83748-3.2892l-2.7952-4.7048q-1.2258-2.0633-3.2892-0.83748l-6.6564 3.9546q-2.0633 1.2258-0.83748 3.2892z" clip-path="url(#a)" fill="#fff" stroke="#fff"/>
<g clip-path="url(#a)">
<g transform="translate(94.834 307.57) rotate(59.285) scale(.08 -.08)">
<use xlink:href="#o"/>
</g>
</g>
<path d="m72.089 352.05 0.47655-4.8002q0.2371-2.3883-2.1512-2.6254l-7.7046-0.7649q-2.3883-0.2371-2.6254 2.1512l-0.47655 4.8002q-0.2371 2.3883 2.1512 2.6254l7.7046 0.7649q2.3883 0.2371 2.6254-2.1512z" clip-path="url(#a)" fill="#fff" stroke="#fff"/>
<g clip-path="url(#a)">
<g transform="translate(68.045 351.65) rotate(-84.33) scale(.08 -.08)">
<use xlink:href="#q"/>
</g>
</g>
<path d="m75.425 307.33 1.0631 5.3682q0.46624 2.3543 2.8205 1.888l7.595-1.5041q2.3543-0.46623 1.888-2.8205l-1.0631-5.3682q-0.46624-2.3543-2.8205-1.888l-7.595 1.5041q-2.3543 0.46624-1.888 2.8205z" clip-path="url(#a)" fill="#fff" stroke="#fff"/>
<g clip-path="url(#a)">
<g transform="translate(79.411 306.54) rotate(78.798) scale(.08 -.08)">
<use xlink:href="#o"/>
</g>
</g>
<path d="m254.88 311.65 4.0824 3.6445q1.7904 1.5983 3.3887-0.19203l5.1562-5.7758q1.5983-1.7904-0.19204-3.3887l-4.0824-3.6445q-1.7904-1.5983-3.3887 0.19204l-5.1562 5.7758q-1.5983 1.7904 0.19204 3.3887z" clip-path="url(#a)" fill="#fff" stroke="#fff"/>
<g clip-path="url(#a)">
<g transform="translate(257.58 308.62) rotate(41.757) scale(.08 -.08)">
<use xlink:href="#o"/>
</g>
</g>
<path d="m204.66 352.67 0.98169-4.7228q0.48843-2.3498-1.8613-2.8382l-7.5805-1.5757q-2.3498-0.48843-2.8382 1.8613l-0.98169 4.7228q-0.48843 2.3498 1.8613 2.8382l7.5805 1.5757q2.3498 0.48843 2.8382-1.8613z" clip-path="url(#a)" fill="#fff" stroke="#fff"/>
<g clip-path="url(#a)">
<g transform="translate(200.68 351.84) rotate(-78.258) scale(.08 -.08)">
<use xlink:href="#q"/>
</g>
</g>
<path d="m225.71 308.67 2.0961 5.0552q0.91925 2.217 3.1362 1.2977l7.1521-2.9655q2.217-0.91925 1.2977-3.1362l-2.0961-5.0552q-0.91925-2.217-3.1362-1.2977l-7.1521 2.9655q-2.217 0.91925-1.2977 3.1362z" clip-path="url(#a)" fill="#fff" stroke="#fff"/>
<g clip-path="url(#a)">
<g transform="translate(229.47 307.11) rotate(67.479) scale(.08 -.08)">
<use xlink:href="#o"/>
</g>
</g>
<path d="m175.97 452.5v33.808q0 2.4 2.4 2.4h7.7425q2.4 0 2.4-2.4v-33.808q0-2.4-2.4-2.4h-7.7425q-2.4 0-2.4 2.4z" clip-path="url(#a)" fill="#fff" stroke="#fff"/>
<g clip-path="url(#a)">
<g transform="translate(180.03 452.5) rotate(90) scale(.08 -.08)">
<use xlink:href="#k"/>
<use x="44.083984" xlink:href="#f"/>
<use x="105.607422" xlink:href="#h"/>
<use x="144.970703" xlink:href="#l"/>
<use x="242.382812" xlink:href="#i"/>
<use x="270.166016" xlink:href="#j"/>
<use x="333.544922" xlink:href="#g"/>
<use x="394.824219" xlink:href="#e"/>
</g>
</g>
<path d="m238.83 393.88 1.6558-4.293q0.86368-2.2392-1.3755-3.1029l-7.2238-2.7863q-2.2392-0.86368-3.1029 1.3755l-1.6558 4.293q-0.86368 2.2392 1.3755 3.1029l7.2238 2.7863q2.2392 0.86368 3.1029-1.3755z" clip-path="url(#a)" fill="#fff" stroke="#fff"/>
<g clip-path="url(#a)">
<g transform="translate(235.04 392.42) rotate(-68.908) scale(.08 -.08)">
<use xlink:href="#t"/>
</g>
</g>
<path d="m257.99 389.13 2.0103 5.212q0.86368 2.2392 3.1029 1.3755l7.2238-2.7863q2.2392-0.86368 1.3755-3.1029l-2.0103-5.212q-0.86368-2.2392-3.1029-1.3755l-7.2238 2.7863q-2.2392 0.86368-1.3755 3.1029z" clip-path="url(#a)" fill="#fff" stroke="#fff"/>
<g clip-path="url(#a)">
<g transform="translate(261.78 387.67) rotate(68.908) scale(.08 -.08)">
<use xlink:href="#p"/>
</g>
</g>
<path d="m212.02 452.5v33.808q0 2.4 2.4 2.4h7.7425q2.4 0 2.4-2.4v-33.808q0-2.4-2.4-2.4h-7.7425q-2.4 0-2.4 2.4z" clip-path="url(#a)" fill="#fff" stroke="#fff"/>
<g clip-path="url(#a)">
<g transform="translate(216.08 452.5) rotate(90) scale(.08 -.08)">
<use xlink:href="#k"/>
<use x="44.083984" xlink:href="#f"/>
<use x="105.607422" xlink:href="#h"/>
<use x="144.970703" xlink:href="#l"/>
<use x="242.382812" xlink:href="#i"/>
<use x="270.166016" xlink:href="#j"/>
<use x="333.544922" xlink:href="#g"/>
<use x="394.824219" xlink:href="#e"/>
</g>
</g>
<path d="m270.88 487.37 9.0411-32.576q0.64183-2.3126-1.6708-2.9544l-7.4605-2.0706q-2.3126-0.64183-2.9544 1.6708l-9.0411 32.576q-0.64183 2.3126 1.6708 2.9544l7.4605 2.0706q2.3126 0.64183 2.9544-1.6708z" clip-path="url(#a)" fill="#fff" stroke="#fff"/>
<g clip-path="url(#a)">
<g transform="translate(266.96 486.28) rotate(-74.489) scale(.08 -.08)">
<use xlink:href="#k"/>
<use x="44.083984" xlink:href="#f"/>
<use x="105.607422" xlink:href="#h"/>
<use x="144.970703" xlink:href="#l"/>
<use x="242.382812" xlink:href="#i"/>
<use x="270.166016" xlink:href="#j"/>
<use x="333.544922" xlink:href="#g"/>
<use x="394.824219" xlink:href="#e"/>
</g>
</g>
<path d="m280.82 454.79 9.0411 32.576q0.64183 2.3126 2.9544 1.6708l7.4605-2.0706q2.3126-0.64183 1.6708-2.9544l-9.0411-32.576q-0.64183-2.3126-2.9544-1.6708l-7.4605 2.0706q-2.3126 0.64183-1.6708 2.9544z" clip-path="url(#a)" fill="#fff" stroke="#fff"/>
<g clip-path="url(#a)">
<g transform="translate(284.74 453.71) rotate(74.489) scale(.08 -.08)">
<use xlink:href="#k"/>
<use x="44.083984" xlink:href="#f"/>
<use x="105.607422" xlink:href="#h"/>
<use x="144.970703" xlink:href="#l"/>
<use x="242.382812" xlink:href="#i"/>
<use x="270.166016" xlink:href="#j"/>
<use x="333.544922" xlink:href="#g"/>
<use x="394.824219" xlink:href="#e"/>
</g>
</g>
<path d="m51.805 452.5v33.808q0 2.4 2.4 2.4h7.7425q2.4 0 2.4-2.4v-33.808q0-2.4-2.4-2.4h-7.7425q-2.4 0-2.4 2.4z" clip-path="url(#a)" fill="#fff" stroke="#fff"/>
<g clip-path="url(#a)">
<g transform="translate(55.869 452.5) rotate(90) scale(.08 -.08)">
<use xlink:href="#k"/>
<use x="44.083984" xlink:href="#f"/>
<use x="105.607422" xlink:href="#h"/>
<use x="144.970703" xlink:href="#l"/>
<use x="242.382812" xlink:href="#i"/>
<use x="270.166016" xlink:href="#j"/>
<use x="333.544922" xlink:href="#g"/>
<use x="394.824219" xlink:href="#e"/>
</g>
</g>
<path d="m87.809 392.96 0.89837-4.5127q0.46859-2.3538-1.8852-2.8224l-7.5935-1.5117q-2.3538-0.46859-2.8224 1.8852l-0.89837 4.5127q-0.46859 2.3538 1.8852 2.8224l7.5935 1.5117q2.3538 0.46859 2.8224-1.8852z" clip-path="url(#a)" fill="#fff" stroke="#fff"/>
<g clip-path="url(#a)">
<g transform="translate(83.824 392.17) rotate(-78.741) scale(.08 -.08)">
<use xlink:href="#t"/>
</g>
</g>
<path d="m91.433 387.96 1.0907 5.4787q0.46859 2.3538 2.8224 1.8852l7.5935-1.5117q2.3538-0.46859 1.8852-2.8224l-1.0907-5.4787q-0.46859-2.3538-2.8224-1.8852l-7.5935 1.5117q-2.3538 0.46859-1.8852 2.8224z" clip-path="url(#a)" fill="#fff" stroke="#fff"/>
<g clip-path="url(#a)">
<g transform="translate(95.419 387.17) rotate(78.741) scale(.08 -.08)">
<use xlink:href="#p"/>
</g>
</g>
<path d="m67.826 452.5v33.808q0 2.4 2.4 2.4h7.7425q2.4 0 2.4-2.4v-33.808q0-2.4-2.4-2.4h-7.7425q-2.4 0-2.4 2.4z" clip-path="url(#a)" fill="#fff" stroke="#fff"/>
<g clip-path="url(#a)">
<g transform="translate(71.89 452.5) rotate(90) scale(.08 -.08)">
<use xlink:href="#k"/>
<use x="44.083984" xlink:href="#f"/>
<use x="105.607422" xlink:href="#h"/>
<use x="144.970703" xlink:href="#l"/>
<use x="242.382812" xlink:href="#i"/>
<use x="270.166016" xlink:href="#j"/>
<use x="333.544922" xlink:href="#g"/>
<use x="394.824219" xlink:href="#e"/>
</g>
</g>
<path d="m103.8 487.06 5.0603-33.427q0.35923-2.373-2.0137-2.7322l-7.6553-1.1589q-2.373-0.35923-2.7322 2.0137l-5.0603 33.427q-0.35923 2.373 2.0137 2.7322l7.6553 1.1589q2.373 0.35923 2.7322-2.0137z" clip-path="url(#a)" fill="#fff" stroke="#fff"/>
<g clip-path="url(#a)">
<g transform="translate(99.784 486.45) rotate(-81.392) scale(.08 -.08)">
<use xlink:href="#k"/>
<use x="44.083984" xlink:href="#f"/>
<use x="105.607422" xlink:href="#h"/>
<use x="144.970703" xlink:href="#l"/>
<use x="242.382812" xlink:href="#i"/>
<use x="270.166016" xlink:href="#j"/>
<use x="333.544922" xlink:href="#g"/>
<use x="394.824219" xlink:href="#e"/>
</g>
</g>
<path d="m103.42 453.63 5.0603 33.427q0.35923 2.373 2.7322 2.0137l7.6553-1.1589q2.373-0.35923 2.0137-2.7322l-5.0603-33.427q-0.35923-2.373-2.7322-2.0137l-7.6553 1.1589q-2.373 0.35923-2.0137 2.7322z" clip-path="url(#a)" fill="#fff" stroke="#fff"/>
<g clip-path="url(#a)">
<g transform="translate(107.43 453.02) rotate(81.392) scale(.08 -.08)">
<use xlink:href="#k"/>
<use x="44.083984" xlink:href="#f"/>
<use x="105.607422" xlink:href="#h"/>
<use x="144.970703" xlink:href="#l"/>
<use x="242.382812" xlink:href="#i"/>
<use x="270.166016" xlink:href="#j"/>
<use x="333.544922" xlink:href="#g"/>
<use x="394.824219" xlink:href="#e"/>
</g>
</g>
<path d="m39.789 452.5v33.808q0 2.4 2.4 2.4h7.7425q2.4 0 2.4-2.4v-33.808q0-2.4-2.4-2.4h-7.7425q-2.4 0-2.4 2.4z" clip-path="url(#a)" fill="#fff" stroke="#fff"/>
<g clip-path="url(#a)">
<g transform="translate(43.853 452.5) rotate(90) scale(.08 -.08)">
<use xlink:href="#k"/>
<use x="44.083984" xlink:href="#f"/>
<use x="105.607422" xlink:href="#h"/>
<use x="144.970703" xlink:href="#l"/>
<use x="242.382812" xlink:href="#i"/>
<use x="270.166016" xlink:href="#j"/>
<use x="333.544922" xlink:href="#g"/>
<use x="394.824219" xlink:href="#e"/>
</g>
</g>
<path d="m143.93 452.5v33.808q0 2.4 2.4 2.4h7.7425q2.4 0 2.4-2.4v-33.808q0-2.4-2.4-2.4h-7.7425q-2.4 0-2.4 2.4z" clip-path="url(#a)" fill="#fff" stroke="#fff"/>
<g clip-path="url(#a)">
<g transform="translate(147.99 452.5) rotate(90) scale(.08 -.08)">
<use xlink:href="#k"/>
<use x="44.083984" xlink:href="#f"/>
<use x="105.607422" xlink:href="#h"/>
<use x="144.970703" xlink:href="#l"/>
<use x="242.382812" xlink:href="#i"/>
<use x="270.166016" xlink:href="#j"/>
<use x="333.544922" xlink:href="#g"/>
<use x="394.824219" xlink:href="#e"/>
</g>
</g>
<path d="m348.2 452.5v33.808q0 2.4 2.4 2.4h7.7425q2.4 0 2.4-2.4v-33.808q0-2.4-2.4-2.4h-7.7425q-2.4 0-2.4 2.4z" clip-path="url(#a)" fill="#fff" stroke="#fff"/>
<g clip-path="url(#a)">
<g transform="translate(352.26 452.5) rotate(90) scale(.08 -.08)">
<use xlink:href="#k"/>
<use x="44.083984" xlink:href="#f"/>
<use x="105.607422" xlink:href="#h"/>
<use x="144.970703" xlink:href="#l"/>
<use x="242.382812" xlink:href="#i"/>
<use x="270.166016" xlink:href="#j"/>
<use x="333.544922" xlink:href="#g"/>
<use x="394.824219" xlink:href="#e"/>
</g>
</g>
<path d="m400.26 452.5v33.808q0 2.4 2.4 2.4h7.7425q2.4 0 2.4-2.4v-33.808q0-2.4-2.4-2.4h-7.7425q-2.4 0-2.4 2.4z" clip-path="url(#a)" fill="#fff" stroke="#fff"/>
<g clip-path="url(#a)">
<g transform="translate(404.33 452.5) rotate(90) scale(.08 -.08)">
<use xlink:href="#k"/>
<use x="44.083984" xlink:href="#f"/>
<use x="105.607422" xlink:href="#h"/>
<use x="144.970703" xlink:href="#l"/>
<use x="242.382812" xlink:href="#i"/>
<use x="270.166016" xlink:href="#j"/>
<use x="333.544922" xlink:href="#g"/>
<use x="394.824219" xlink:href="#e"/>
</g>
</g>
<path d="m961 452.5v33.808q0 2.4 2.4 2.4h7.7425q2.4 0 2.4-2.4v-33.808q0-2.4-2.4-2.4h-7.7425q-2.4 0-2.4 2.4z" clip-path="url(#a)" fill="#fff" stroke="#fff"/>
<g clip-path="url(#a)">
<g transform="translate(965.07 452.5) rotate(90) scale(.08 -.08)">
<use xlink:href="#k"/>
<use x="44.083984" xlink:href="#f"/>
<use x="105.607422" xlink:href="#h"/>
<use x="144.970703" xlink:href="#l"/>
<use x="242.382812" xlink:href="#i"/>
<use x="270.166016" xlink:href="#j"/>
<use x="333.544922" xlink:href="#g"/>
<use x="394.824219" xlink:href="#e"/>
</g>
</g>
<defs>
<path id="b" d="m0 8.6603c2.2967 0 4.4997-0.9125 6.1237-2.5365 1.624-1.624 2.5365-3.827 2.5365-6.1237s-0.9125-4.4997-2.5365-6.1237c-1.624-1.624-3.827-2.5365-6.1237-2.5365s-4.4997 0.9125-6.1237 2.5365c-1.624 1.624-2.5365 3.827-2.5365 6.1237s0.9125 4.4997 2.5365 6.1237c1.624 1.624 3.827 2.5365 6.1237 2.5365z"/>
</defs>
<g clip-path="url(#a)" fill="#ffffff" stroke="#ffffff">
<use x="46.060606" y="509.090909" xlink:href="#b"/>
<use x="58.076416" y="509.090909" xlink:href="#b"/>
<use x="74.097497" y="509.090909" xlink:href="#b"/>
<use x="94.123847" y="509.090909" xlink:href="#b"/>
<use x="118.155468" y="509.090909" xlink:href="#b"/>
<use x="150.197628" y="509.090909" xlink:href="#b"/>
<use x="182.239789" y="509.090909" xlink:href="#b"/>
<use x="218.28722" y="509.090909" xlink:href="#b"/>
<use x="258.339921" y="509.090909" xlink:href="#b"/>
<use x="302.397892" y="509.090909" xlink:href="#b"/>
<use x="354.466403" y="509.090909" xlink:href="#b"/>
<use x="406.534914" y="509.090909" xlink:href="#b"/>
<use x="462.608696" y="509.090909" xlink:href="#b"/>
<use x="522.687747" y="509.090909" xlink:href="#b"/>
<use x="586.772069" y="509.090909" xlink:href="#b"/>
<use x="654.86166" y="509.090909" xlink:href="#b"/>
<use x="726.956522" y="509.090909" xlink:href="#b"/>
<use x="803.056653" y="509.090909" xlink:href="#b"/>
<use x="883.162055" y="509.090909" xlink:href="#b"/>
<use x="967.272727" y="509.090909" xlink:href="#b"/>
<use x="306.403162" y="349.240565" xlink:href="#b"/>
<use x="122.160738" y="349.240565" xlink:href="#b"/>
<use x="348.792271" y="24.242424" xlink:href="#b"/>
<use x="348.792271" y="105.786487" xlink:href="#b"/>
<use x="146.693017" y="187.166527" xlink:href="#b"/>
<use x="462.608696" y="429.717821" xlink:href="#b"/>
<use x="676.389987" y="187.166527" xlink:href="#b"/>
<use x="554.729908" y="268.341213" xlink:href="#b"/>
<use x="798.050066" y="349.240565" xlink:href="#b"/>
<use x="654.86166" y="429.717821" xlink:href="#b"/>
<use x="726.956522" y="429.717821" xlink:href="#b"/>
<use x="843.109354" y="429.717821" xlink:href="#b"/>
<use x="554.729908" y="349.240565" xlink:href="#b"/>
<use x="522.687747" y="429.717821" xlink:href="#b"/>
<use x="586.772069" y="429.717821" xlink:href="#b"/>
<use x="74.097497" y="268.341213" xlink:href="#b"/>
<use x="215.783926" y="268.341213" xlink:href="#b"/>
<use x="182.239789" y="429.717821" xlink:href="#b"/>
<use x="249.328063" y="349.240565" xlink:href="#b"/>
<use x="218.28722" y="429.717821" xlink:href="#b"/>
<use x="280.368906" y="429.717821" xlink:href="#b"/>
<use x="58.076416" y="429.717821" xlink:href="#b"/>
<use x="90.118577" y="349.240565" xlink:href="#b"/>
<use x="74.097497" y="429.717821" xlink:href="#b"/>
<use x="106.139657" y="429.717821" xlink:href="#b"/>
<use x="46.060606" y="429.717821" xlink:href="#b"/>
<use x="150.197628" y="429.717821" xlink:href="#b"/>
<use x="354.466403" y="429.717821" xlink:href="#b"/>
<use x="406.534914" y="429.717821" xlink:href="#b"/>
<use x="967.272727" y="429.717821" xlink:href="#b"/>
</g>
<g clip-path="url(#a)">
<g transform="translate(43.001 511.85) scale(.1 -.1)">
<defs>
<path id="at" d="m51.812 51.703v-9.3125l-14.703-13.094 14.703-13.078v-9.3281l-22.906 20.406v4zm-21.203 0v-9.3125l-14.688-13.094 14.688-13.078v-9.3281l-22.891 20.406v4z"/>
</defs>
<use xlink:href="#at"/>
</g>
</g>
<g clip-path="url(#a)">
<g transform="translate(42.993 511.85) scale(.1 -.1)">
<defs>
<path id="ap" d="m39.406 66.219q-10.75 0-17.078-8.0156-6.3125-8-6.3125-21.828 0-13.766 6.3125-21.781 6.3281-8 17.078-8 10.734 0 17.016 8 6.2812 8.0156 6.2812 21.781 0 13.828-6.2812 21.828-6.2812 8.0156-17.016 8.0156zm0 8q15.328 0 24.5-10.281 9.1875-10.281 9.1875-27.562 0-17.234-9.1875-27.516-9.1719-10.281-24.5-10.281-15.375 0-24.594 10.25-9.2031 10.266-9.2031 27.547t9.2031 27.562q9.2188 10.281 24.594 10.281z"/>
<path id="ak" d="m8.5 21.578v33.109h8.9844v-32.766q0-7.7656 3.0156-11.656 3.0312-3.875 9.0938-3.875 7.2656 0 11.484 4.6406 4.2344 4.6406 4.2344 12.656v31h8.9844v-54.688h-8.9844v8.4062q-3.2656-4.9844-7.5938-7.4062-4.3125-2.4219-10.031-2.4219-9.4219 0-14.312 5.8594-4.875 5.8594-4.875 17.141z"/>
<path id="aj" d="m2.9844 54.688h9.5156l17.094-45.891 17.094 45.891h9.5156l-20.516-54.688h-12.203z"/>
</defs>
<use xlink:href="#ap"/>
<use x="78.710938" xlink:href="#ak"/>
<use x="142.089844" xlink:href="#aj"/>
<use x="201.269531" xlink:href="#h"/>
<use x="240.132812" xlink:href="#f"/>
</g>
</g>
<g clip-path="url(#a)">
<g transform="translate(71.334 511.85) scale(.1 -.1)">
<defs>
<path id="aa" d="m17.922 72.906v-27.109h-8.2969v27.109z"/>
</defs>
<use xlink:href="#e"/>
<use x="27.783203" xlink:href="#aa"/>
</g>
</g>
<g clip-path="url(#a)">
<g transform="translate(89.009 511.85) scale(.1 -.1)">
<defs>
<path id="ag" d="m87.984 32.234q-0.09375 7.4219-4.0938 11.781-4 4.375-10.703 4.375-7.4688 0-11.984-4.25t-5.2031-11.969zm9.0312-2.6406v-4.3906h-41.297q0.57812-9.2812 5.5625-14.141t13.922-4.8594q5.1719 0 10.047 1.2656 4.8906 1.2656 9.6719 3.8125v-8.5q-4.875-2.0469-9.9531-3.125t-10.266-1.0781q-7.8125 0-13.719 2.6875t-9.8594 8.0156q-3.4688-5.375-8.5781-8.0469-5.0938-2.6562-11.938-2.6562-11.766 0-18.438 7.6406-6.6562 7.6562-6.6562 21.078 0 13.469 6.6562 21.078 6.6719 7.625 18.438 7.625 6.8438 0 11.984-2.7031 5.1562-2.7031 8.3906-7.9844 3.7969 5.2188 9.4531 7.9531 5.6719 2.7344 12.656 2.7344 11.031 0 17.469-7.1094 6.4531-7.0938 6.4531-19.297zm-66.406 18.797q-7.2188 0-11.422-5.6406t-4.2031-15.453 4.1719-15.453q4.1875-5.6406 11.453-5.6406 7.1875 0 11.375 5.6562 4.2031 5.6719 4.2031 15.438 0 9.7188-4.2031 15.406-4.1875 5.6875-11.375 5.6875z"/>
</defs>
<use xlink:href="#ag"/>
</g>
</g>
<g clip-path="url(#a)">
<g transform="translate(115.38 511.85) scale(.1 -.1)">
<use xlink:href="#i"/>
<use x="27.783203" xlink:href="#e"/>
</g>
</g>
<g clip-path="url(#a)">
<g transform="translate(148.19 511.85) scale(.1 -.1)">
<defs>
<path id="ah" d="m15.094 12.406h9.9062v-12.406h-9.9062zm0 60.5h9.9062v-31.984l-0.96875-17.438h-7.9219l-1.0156 17.438z"/>
</defs>
<use xlink:href="#ah"/>
</g>
</g>
<g clip-path="url(#a)">
<g transform="translate(168.03 511.85) scale(.1 -.1)">
<defs>
<path id="ab" d="m30.609 48.391q-7.2188 0-11.422-5.6406t-4.2031-15.453 4.1719-15.453q4.1875-5.6406 11.453-5.6406 7.1875 0 11.375 5.6562 4.2031 5.6719 4.2031 15.438 0 9.7188-4.2031 15.406-4.1875 5.6875-11.375 5.6875zm0 7.6094q11.719 0 18.406-7.625 6.7031-7.6094 6.7031-21.078 0-13.422-6.7031-21.078-6.6875-7.6406-18.406-7.6406-11.766 0-18.438 7.6406-6.6562 7.6562-6.6562 21.078 0 13.469 6.6562 21.078 6.6719 7.625 18.438 7.625z"/>
</defs>
<use xlink:href="#ab"/>
<use x="61.181641" xlink:href="#ak"/>
<use x="124.560547" xlink:href="#aj"/>
<use x="183.740234" xlink:href="#h"/>
<use x="222.603516" xlink:href="#f"/>
</g>
</g>
<g clip-path="url(#a)">
<g transform="translate(215.52 511.85) scale(.1 -.1)">
<use xlink:href="#e"/>
<use x="27.783203" xlink:href="#aa"/>
</g>
</g>
<g clip-path="url(#a)">
<g transform="translate(253.23 511.85) scale(.1 -.1)">
<use xlink:href="#ag"/>
</g>
</g>
<g clip-path="url(#a)">
<g transform="translate(299.62 511.85) scale(.1 -.1)">
<use xlink:href="#i"/>
<use x="27.783203" xlink:href="#e"/>
</g>
</g>
<g clip-path="url(#a)">
<g transform="translate(352.46 511.85) scale(.1 -.1)">
<use xlink:href="#ah"/>
</g>
</g>
<g clip-path="url(#a)">
<g transform="translate(403.48 511.85) scale(.1 -.1)">
<defs>
<path id="as" d="m9.4219 51.703 22.906-20.406v-4l-22.906-20.406v9.3281l14.703 13.078-14.703 13.094zm21.188 0 22.906-20.406v-4l-22.906-20.406v9.3281l14.703 13.078-14.703 13.094z"/>
</defs>
<use xlink:href="#as"/>
</g>
</g>
<g clip-path="url(#a)">
<g transform="translate(436.72 512.05) scale(.1 -.1)">
<defs>
<path id="ai" d="m56.203 29.594v-4.3906h-41.312q0.59375-9.2812 5.5938-14.141t13.938-4.8594q5.1719 0 10.031 1.2656t9.6562 3.8125v-8.5q-4.8438-2.0469-9.9219-3.125t-10.297-1.0781q-13.094 0-20.734 7.6094-7.6406 7.625-7.6406 20.625 0 13.422 7.25 21.297 7.25 7.8906 19.562 7.8906 11.031 0 17.453-7.1094 6.4219-7.0938 6.4219-19.297zm-8.9844 2.6406q-0.09375 7.3594-4.125 11.75-4.0312 4.4062-10.672 4.4062-7.5156 0-12.031-4.25t-5.2031-11.969zm-8.6875 47.75h9.7188l-15.906-18.359h-7.4844z"/>
<path id="av" d="m18.109 8.2031v-29h-9.0312v75.484h9.0312v-8.2969q2.8438 4.875 7.1562 7.2344 4.3281 2.375 10.328 2.375 9.9688 0 16.188-7.9062 6.2344-7.9062 6.2344-20.797t-6.2344-20.812q-6.2188-7.9062-16.188-7.9062-6 0-10.328 2.375-4.3125 2.375-7.1562 7.25zm30.578 19.094q0 9.9062-4.0781 15.547t-11.203 5.6406q-7.1406 0-11.219-5.6406t-4.0781-15.547 4.0781-15.547 11.219-5.6406q7.125 0 11.203 5.6406t4.0781 15.547z"/>
<path id="v" d="m18.312 70.219v-15.531h18.5v-6.9844h-18.5v-29.688q0-6.6875 1.8281-8.5938t7.4531-1.9062h9.2188v-7.5156h-9.2188q-10.406 0-14.359 3.875-3.9531 3.8906-3.9531 14.141v29.688h-6.5938v6.9844h6.5938v15.531z"/>
</defs>
<use xlink:href="#h"/>
<use x="38.863281" xlink:href="#ai"/>
<use x="100.386719" xlink:href="#av"/>
<use x="163.863281" xlink:href="#ai"/>
<use x="225.386719" xlink:href="#v"/>
<use x="264.595703" xlink:href="#g"/>
<use x="325.875" xlink:href="#i"/>
<use x="353.658203" xlink:href="#f"/>
<use x="415.181641" xlink:href="#j"/>
<use x="478.560547" xlink:href="#v"/>
</g>
</g>
<g clip-path="url(#a)">
<g transform="translate(515.62 511.85) scale(.1 -.1)">
<defs>
<path id="al" d="m44.281 53.078v-8.5q-3.7969 1.9531-7.9062 2.9219-4.0938 0.98438-8.5 0.98438-6.6875 0-10.031-2.0469t-3.3438-6.1562q0-3.125 2.3906-4.9062t9.625-3.3906l3.0781-0.6875q9.5625-2.0469 13.594-5.7812t4.0312-10.422q0-7.625-6.0312-12.078-6.0312-4.4375-16.578-4.4375-4.3906 0-9.1562 0.85938t-10.031 2.5625v9.2812q4.9844-2.5938 9.8125-3.8906 4.8281-1.2812 9.5781-1.2812 6.3438 0 9.75 2.1719 3.4219 2.1719 3.4219 6.125 0 3.6562-2.4688 5.6094-2.4531 1.9531-10.812 3.7656l-3.125 0.73438q-8.3438 1.75-12.062 5.3906-3.7031 3.6406-3.7031 9.9844 0 7.7188 5.4688 11.906 5.4688 4.2031 15.531 4.2031 4.9688 0 9.3594-0.73438 4.4062-0.71875 8.1094-2.1875z"/>
</defs>
<use xlink:href="#e"/>
<use x="27.783203" xlink:href="#f"/>
<use x="89.306641" xlink:href="#al"/>
</g>
</g>
<g clip-path="url(#a)">
<g transform="translate(564.79 511.85) scale(.1 -.1)">
<use xlink:href="#l"/>
<use x="97.412109" xlink:href="#g"/>
<use x="158.691406" xlink:href="#v"/>
<use x="197.900391" xlink:href="#f"/>
<use x="259.423828" xlink:href="#e"/>
<use x="287.207031" xlink:href="#ab"/>
<use x="348.388672" xlink:href="#v"/>
<use x="387.597656" xlink:href="#al"/>
</g>
</g>
<g clip-path="url(#a)">
<g transform="translate(648.61 511.85) scale(.1 -.1)">
<defs>
<path id="ax" d="m45.406 46.391v29.594h8.9844v-75.984h-8.9844v8.2031q-2.8281-4.875-7.1562-7.25-4.3125-2.375-10.375-2.375-9.9062 0-16.141 7.9062-6.2188 7.9219-6.2188 20.812t6.2188 20.797q6.2344 7.9062 16.141 7.9062 6.0625 0 10.375-2.375 4.3281-2.3594 7.1562-7.2344zm-30.609-19.094q0-9.9062 4.0781-15.547t11.203-5.6406 11.219 5.6406q4.1094 5.6406 4.1094 15.547t-4.1094 15.547q-4.0938 5.6406-11.219 5.6406t-11.203-5.6406-4.0781-15.547z"/>
</defs>
<use xlink:href="#ax"/>
<use x="63.476562" xlink:href="#f"/>
</g>
</g>
<g clip-path="url(#a)">
<g transform="translate(724.19 511.85) scale(.1 -.1)">
<use xlink:href="#e"/>
<use x="27.783203" xlink:href="#aa"/>
</g>
</g>
<g clip-path="url(#a)">
<g transform="translate(780.24 511.85) scale(.1 -.1)">
<defs>
<path id="an" d="m48.688 27.297q0 9.9062-4.0781 15.547t-11.203 5.6406q-7.1406 0-11.219-5.6406t-4.0781-15.547 4.0781-15.547 11.219-5.6406q7.125 0 11.203 5.6406t4.0781 15.547zm-30.578 19.094q2.8438 4.875 7.1562 7.2344 4.3281 2.375 10.328 2.375 9.9688 0 16.188-7.9062 6.2344-7.9062 6.2344-20.797t-6.2344-20.812q-6.2188-7.9062-16.188-7.9062-6 0-10.328 2.375-4.3125 2.375-7.1562 7.25v-8.2031h-9.0312v75.984h9.0312z"/>
<path id="aw" d="m54.891 33.016v-33.016h-8.9844v32.719q0 7.7656-3.0312 11.609-3.0312 3.8594-9.0781 3.8594-7.2812 0-11.484-4.6406-4.2031-4.625-4.2031-12.641v-30.906h-9.0312v75.984h9.0312v-29.797q3.2344 4.9375 7.5938 7.375 4.375 2.4375 10.094 2.4375 9.4219 0 14.25-5.8281 4.8438-5.8281 4.8438-17.156z"/>
</defs>
<use xlink:href="#o"/>
<use x="68.408203" xlink:href="#an"/>
<use x="131.884766" xlink:href="#h"/>
<use x="172.998047" xlink:href="#g"/>
<use x="234.277344" xlink:href="#aw"/>
<use x="297.65625" xlink:href="#g"/>
<use x="358.935547" xlink:href="#l"/>
</g>
</g>
<g clip-path="url(#a)">
<g transform="translate(865.45 511.85) scale(.1 -.1)">
<defs>
<path id="w" d="m9.8125 72.906h9.8594v-64.609h35.5v-8.2969h-45.359z"/>
<path id="am" d="m48.781 52.594v-8.4062q-3.8125 2.1094-7.6406 3.1562t-7.7344 1.0469q-8.75 0-13.594-5.5469-4.8281-5.5312-4.8281-15.547t4.8281-15.562q4.8438-5.5312 13.594-5.5312 3.9062 0 7.7344 1.0469t7.6406 3.1562v-8.3125q-3.7656-1.75-7.7969-2.625-4.0156-0.89062-8.5625-0.89062-12.359 0-19.641 7.7656-7.2656 7.7656-7.2656 20.953 0 13.375 7.3438 21.031 7.3594 7.6719 20.156 7.6719 4.1406 0 8.0938-0.85938 3.9531-0.84375 7.6719-2.5469z"/>
</defs>
<use xlink:href="#w"/>
<use x="55.712891" xlink:href="#i"/>
<use x="83.496094" xlink:href="#j"/>
<use x="146.875" xlink:href="#am"/>
<use x="201.855469" xlink:href="#ab"/>
<use x="263.037109" xlink:href="#e"/>
<use x="290.820312" xlink:href="#j"/>
</g>
</g>
<g clip-path="url(#a)">
<g transform="translate(965.68 511.85) scale(.1 -.1)">
<defs>
<path id="d" d="m10.688 12.406h10.312v-12.406h-10.312z"/>
</defs>
<use xlink:href="#d"/>
</g>
</g>
<g clip-path="url(#a)">
<g transform="translate(285.32 352) scale(.1 -.1)">
<defs>
<path id="r" d="m9.8125 72.906h9.8594v-72.906h-9.8594z"/>
<path id="ac" d="m9.8125 72.906h14.703l18.594-49.609 18.703 49.609h14.703v-72.906h-9.625v64.016l-18.797-50h-9.9062l-18.797 50v-64.016h-9.5781z"/>
</defs>
<use xlink:href="#r"/>
<use x="29.492188" xlink:href="#ac"/>
<use x="115.771484" xlink:href="#q"/>
<use x="176.074219" xlink:href="#w"/>
<use x="231.787109" xlink:href="#r"/>
<use x="261.279297" xlink:href="#p"/>
<use x="331.103516" xlink:href="#r"/>
<use x="360.595703" xlink:href="#k"/>
</g>
</g>
<g clip-path="url(#a)">
<g transform="translate(101.08 352) scale(.1 -.1)">
<use xlink:href="#r"/>
<use x="29.492188" xlink:href="#ac"/>
<use x="115.771484" xlink:href="#q"/>
<use x="176.074219" xlink:href="#w"/>
<use x="231.787109" xlink:href="#r"/>
<use x="261.279297" xlink:href="#p"/>
<use x="331.103516" xlink:href="#r"/>
<use x="360.595703" xlink:href="#k"/>
</g>
</g>
<g clip-path="url(#a)">
<g transform="translate(340.84 27.002) scale(.1 -.1)">
<defs>
<path id="c" d="m12.406 8.2969h16.109v55.625l-17.531-3.5156v8.9844l17.438 3.5156h9.8594v-64.609h16.109v-8.2969h-41.984z"/>
</defs>
<use xlink:href="#c"/>
<use x="63.623047" xlink:href="#d"/>
<use x="95.410156" xlink:href="#c"/>
</g>
</g>
<g clip-path="url(#a)">
<g transform="translate(340.84 108.55) scale(.1 -.1)">
<defs>
<path id="m" d="m19.188 8.2969h34.422v-8.2969h-46.281v8.2969q5.6094 5.8125 15.297 15.594 9.7031 9.7969 12.188 12.641 4.7344 5.3125 6.6094 9 1.8906 3.6875 1.8906 7.25 0 5.8125-4.0781 9.4688-4.0781 3.6719-10.625 3.6719-4.6406 0-9.7969-1.6094-5.1406-1.6094-11-4.8906v9.9688q5.9531 2.3906 11.125 3.6094 5.1875 1.2188 9.4844 1.2188 11.328 0 18.062-5.6719 6.7344-5.6562 6.7344-15.125 0-4.5-1.6875-8.5312-1.6719-4.0156-6.125-9.4844-1.2188-1.4219-7.7656-8.1875-6.5312-6.7656-18.453-18.922z"/>
</defs>
<use xlink:href="#c"/>
<use x="63.623047" xlink:href="#d"/>
<use x="95.410156" xlink:href="#m"/>
</g>
</g>
<g clip-path="url(#a)">
<g transform="translate(138.74 189.93) scale(.1 -.1)">
<defs>
<path id="n" d="m40.578 39.312q7.0781-1.5156 11.047-6.3125 3.9844-4.7812 3.9844-11.812 0-10.781-7.4219-16.703-7.4219-5.9062-21.094-5.9062-4.5781 0-9.4375 0.90625t-10.031 2.7188v9.5156q4.0938-2.3906 8.9688-3.6094 4.8906-1.2188 10.219-1.2188 9.2656 0 14.125 3.6562t4.8594 10.641q0 6.4531-4.5156 10.078-4.5156 3.6406-12.562 3.6406h-8.5v8.1094h8.8906q7.2656 0 11.125 2.9062t3.8594 8.375q0 5.6094-3.9844 8.6094-3.9688 3.0156-11.391 3.0156-4.0625 0-8.7031-0.89062-4.6406-0.875-10.203-2.7188v8.7812q5.625 1.5625 10.531 2.3438t9.25 0.78125q11.234 0 17.766-5.1094 6.5469-5.0938 6.5469-13.781 0-6.0625-3.4688-10.234t-9.8594-5.7812z"/>
</defs>
<use xlink:href="#c"/>
<use x="63.623047" xlink:href="#d"/>
<use x="95.410156" xlink:href="#n"/>
</g>
</g>
<g clip-path="url(#a)">
<g transform="translate(454.66 432.48) scale(.1 -.1)">
<defs>
<path id="z" d="m37.797 64.312-24.906-38.922h24.906zm-2.5938 8.5938h12.406v-47.516h10.406v-8.2031h-10.406v-17.188h-9.8125v17.188h-32.906v9.5156z"/>
</defs>
<use xlink:href="#c"/>
<use x="63.623047" xlink:href="#d"/>
<use x="95.410156" xlink:href="#z"/>
</g>
</g>
<g clip-path="url(#a)">
<g transform="translate(668.44 189.93) scale(.1 -.1)">
<defs>
<path id="u" d="m10.797 72.906h38.719v-8.3125h-29.688v-17.859q2.1406 0.73438 4.2812 1.0938 2.1562 0.35938 4.3125 0.35938 12.203 0 19.328-6.6875 7.1406-6.6875 7.1406-18.109 0-11.766-7.3281-18.297-7.3281-6.5156-20.656-6.5156-4.5938 0-9.3594 0.78125-4.75 0.78125-9.8281 2.3438v9.9219q4.3906-2.3906 9.0781-3.5625t9.9062-1.1719q8.4531 0 13.375 4.4375 4.9375 4.4375 4.9375 12.062 0 7.6094-4.9375 12.047-4.9219 4.4531-13.375 4.4531-3.9531 0-7.8906-0.875-3.9219-0.875-8.0156-2.7344z"/>
</defs>
<use xlink:href="#c"/>
<use x="63.623047" xlink:href="#d"/>
<use x="95.410156" xlink:href="#u"/>
</g>
</g>
<g clip-path="url(#a)">
<g transform="translate(546.78 271.1) scale(.1 -.1)">
<defs>
<path id="y" d="m10.984 1.5156v8.9844q3.7188-1.7656 7.5156-2.6875 3.8125-0.92188 7.4844-0.92188 9.7656 0 14.906 6.5625 5.1562 6.5625 5.8906 19.953-2.8281-4.2031-7.1875-6.4531-4.3438-2.25-9.6094-2.25-10.938 0-17.312 6.6094-6.375 6.625-6.375 18.109 0 11.219 6.6406 18 6.6406 6.7969 17.672 6.7969 12.656 0 19.312-9.7031 6.6719-9.6875 6.6719-28.141 0-17.234-8.1875-27.516-8.1719-10.281-21.984-10.281-3.7188 0-7.5312 0.73438-3.7969 0.73438-7.9062 2.2031zm19.625 30.906q6.6406 0 10.516 4.5312 3.8906 4.5469 3.8906 12.469 0 7.8594-3.8906 12.422-3.875 4.5625-10.516 4.5625t-10.516-4.5625-3.875-12.422q0-7.9219 3.875-12.469 3.875-4.5312 10.516-4.5312z"/>
</defs>
<use xlink:href="#c"/>
<use x="63.623047" xlink:href="#d"/>
<use x="95.410156" xlink:href="#y"/>
</g>
</g>
<g clip-path="url(#a)">
<g transform="translate(786.92 352) scale(.1 -.1)">
<defs>
<path id="af" d="m31.781 66.406q-7.6094 0-11.453-7.5-3.8281-7.4844-3.8281-22.531 0-14.984 3.8281-22.484 3.8438-7.5 11.453-7.5 7.6719 0 11.5 7.5 3.8438 7.5 3.8438 22.484 0 15.047-3.8438 22.531-3.8281 7.5-11.5 7.5zm0 7.8125q12.266 0 18.734-9.7031 6.4688-9.6875 6.4688-28.141 0-18.406-6.4688-28.109-6.4688-9.6875-18.734-9.6875-12.25 0-18.719 9.6875-6.4688 9.7031-6.4688 28.109 0 18.453 6.4688 28.141 6.4688 9.7031 18.719 9.7031z"/>
</defs>
<use xlink:href="#c"/>
<use x="63.623047" xlink:href="#d"/>
<use x="95.410156" xlink:href="#c"/>
<use x="159.033203" xlink:href="#af"/>
</g>
</g>
<g clip-path="url(#a)">
<g transform="translate(643.73 432.48) scale(.1 -.1)">
<use xlink:href="#c"/>
<use x="63.623047" xlink:href="#d"/>
<use x="95.410156" xlink:href="#c"/>
<use x="159.033203" xlink:href="#c"/>
</g>
</g>
<g clip-path="url(#a)">
<g transform="translate(715.82 432.48) scale(.1 -.1)">
<use xlink:href="#c"/>
<use x="63.623047" xlink:href="#d"/>
<use x="95.410156" xlink:href="#c"/>
<use x="159.033203" xlink:href="#m"/>
</g>
</g>
<g clip-path="url(#a)">
<g transform="translate(831.98 432.48) scale(.1 -.1)">
<use xlink:href="#c"/>
<use x="63.623047" xlink:href="#d"/>
<use x="95.410156" xlink:href="#c"/>
<use x="159.033203" xlink:href="#n"/>
</g>
</g>
<g clip-path="url(#a)">
<g transform="translate(543.6 352) scale(.1 -.1)">
<use xlink:href="#c"/>
<use x="63.623047" xlink:href="#d"/>
<use x="95.410156" xlink:href="#c"/>
<use x="159.033203" xlink:href="#u"/>
</g>
</g>
<g clip-path="url(#a)">
<g transform="translate(511.55 432.48) scale(.1 -.1)">
<defs>
<path id="ar" d="m33.016 40.375q-6.6406 0-10.531-4.5469-3.875-4.5312-3.875-12.438 0-7.8594 3.875-12.438 3.8906-4.5625 10.531-4.5625t10.516 4.5625q3.875 4.5781 3.875 12.438 0 7.9062-3.875 12.438-3.875 4.5469-10.516 4.5469zm19.578 30.922v-8.9844q-3.7188 1.75-7.5 2.6719-3.7812 0.9375-7.5 0.9375-9.7656 0-14.922-6.5938-5.1406-6.5938-5.875-19.922 2.875 4.25 7.2188 6.5156 4.3594 2.2656 9.5781 2.2656 10.984 0 17.359-6.6719 6.375-6.6562 6.375-18.125 0-11.234-6.6406-18.031-6.6406-6.7812-17.672-6.7812-12.656 0-19.344 9.6875-6.6875 9.7031-6.6875 28.109 0 17.281 8.2031 27.562t22.016 10.281q3.7188 0 7.5-0.73438t7.8906-2.1875z"/>
</defs>
<use xlink:href="#c"/>
<use x="63.623047" xlink:href="#d"/>
<use x="95.410156" xlink:href="#c"/>
<use x="159.033203" xlink:href="#ar"/>
</g>
</g>
<g clip-path="url(#a)">
<g transform="translate(575.64 432.48) scale(.1 -.1)">
<defs>
<path id="ae" d="m8.2031 72.906h46.875v-4.2031l-26.469-68.703h-10.297l24.906 64.594h-35.016z"/>
</defs>
<use xlink:href="#c"/>
<use x="63.623047" xlink:href="#d"/>
<use x="95.410156" xlink:href="#c"/>
<use x="159.033203" xlink:href="#ae"/>
</g>
</g>
<g clip-path="url(#a)">
<g transform="translate(62.965 271.1) scale(.1 -.1)">
<defs>
<path id="ad" d="m31.781 34.625q-7.0312 0-11.062-3.7656-4.0156-3.7656-4.0156-10.344 0-6.5938 4.0156-10.359 4.0312-3.7656 11.062-3.7656t11.078 3.7812q4.0625 3.7969 4.0625 10.344 0 6.5781-4.0312 10.344-4.0156 3.7656-11.109 3.7656zm-9.8594 4.1875q-6.3438 1.5625-9.8906 5.9062-3.5312 4.3594-3.5312 10.609 0 8.7344 6.2188 13.812 6.2344 5.0781 17.062 5.0781 10.891 0 17.094-5.0781t6.2031-13.812q0-6.25-3.5469-10.609-3.5312-4.3438-9.8281-5.9062 7.125-1.6562 11.094-6.5 3.9844-4.8281 3.9844-11.797 0-10.609-6.4688-16.281-6.4688-5.6562-18.531-5.6562-12.047 0-18.531 5.6562-6.4688 5.6719-6.4688 16.281 0 6.9688 4 11.797 4.0156 4.8438 11.141 6.5zm-3.6094 15.578q0-5.6562 3.5312-8.8281 3.5469-3.1719 9.9375-3.1719 6.3594 0 9.9375 3.1719 3.5938 3.1719 3.5938 8.8281 0 5.6719-3.5938 8.8438-3.5781 3.1719-9.9375 3.1719-6.3906 0-9.9375-3.1719-3.5312-3.1719-3.5312-8.8438z"/>
</defs>
<use xlink:href="#c"/>
<use x="63.623047" xlink:href="#d"/>
<use x="95.410156" xlink:href="#c"/>
<use x="159.033203" xlink:href="#ad"/>
</g>
</g>
<g clip-path="url(#a)">
<g transform="translate(204.65 271.1) scale(.1 -.1)">
<use xlink:href="#c"/>
<use x="63.623047" xlink:href="#d"/>
<use x="95.410156" xlink:href="#c"/>
<use x="159.033203" xlink:href="#y"/>
</g>
</g>
<g clip-path="url(#a)">
<g transform="translate(171.11 432.48) scale(.1 -.1)">
<use xlink:href="#c"/>
<use x="63.623047" xlink:href="#d"/>
<use x="95.410156" xlink:href="#m"/>
<use x="159.033203" xlink:href="#m"/>
</g>
</g>
<g clip-path="url(#a)">
<g transform="translate(238.2 352) scale(.1 -.1)">
<use xlink:href="#c"/>
<use x="63.623047" xlink:href="#d"/>
<use x="95.410156" xlink:href="#m"/>
<use x="159.033203" xlink:href="#n"/>
</g>
</g>
<g clip-path="url(#a)">
<g transform="translate(207.15 432.48) scale(.1 -.1)">
<use xlink:href="#c"/>
<use x="63.623047" xlink:href="#d"/>
<use x="95.410156" xlink:href="#m"/>
<use x="159.033203" xlink:href="#z"/>
</g>
</g>
<g clip-path="url(#a)">
<g transform="translate(269.24 432.48) scale(.1 -.1)">
<use xlink:href="#c"/>
<use x="63.623047" xlink:href="#d"/>
<use x="95.410156" xlink:href="#m"/>
<use x="159.033203" xlink:href="#u"/>
</g>
</g>
<g clip-path="url(#a)">
<g transform="translate(46.944 432.48) scale(.1 -.1)">
<use xlink:href="#c"/>
<use x="63.623047" xlink:href="#d"/>
<use x="95.410156" xlink:href="#m"/>
<use x="159.033203" xlink:href="#ae"/>
</g>
</g>
<g clip-path="url(#a)">
<g transform="translate(78.986 352) scale(.1 -.1)">
<use xlink:href="#c"/>
<use x="63.623047" xlink:href="#d"/>
<use x="95.410156" xlink:href="#m"/>
<use x="159.033203" xlink:href="#ad"/>
</g>
</g>
<g clip-path="url(#a)">
<g transform="translate(62.965 432.48) scale(.1 -.1)">
<use xlink:href="#c"/>
<use x="63.623047" xlink:href="#d"/>
<use x="95.410156" xlink:href="#m"/>
<use x="159.033203" xlink:href="#y"/>
</g>
</g>
<g clip-path="url(#a)">
<g transform="translate(95.007 432.48) scale(.1 -.1)">
<use xlink:href="#c"/>
<use x="63.623047" xlink:href="#d"/>
<use x="95.410156" xlink:href="#n"/>
<use x="159.033203" xlink:href="#af"/>
</g>
</g>
<g clip-path="url(#a)">
<g transform="translate(34.928 432.48) scale(.1 -.1)">
<use xlink:href="#c"/>
<use x="63.623047" xlink:href="#d"/>
<use x="95.410156" xlink:href="#n"/>
<use x="159.033203" xlink:href="#c"/>
</g>
</g>
<g clip-path="url(#a)">
<g transform="translate(139.06 432.48) scale(.1 -.1)">
<use xlink:href="#c"/>
<use x="63.623047" xlink:href="#d"/>
<use x="95.410156" xlink:href="#n"/>
<use x="159.033203" xlink:href="#m"/>
</g>
</g>
<g clip-path="url(#a)">
<g transform="translate(343.33 432.48) scale(.1 -.1)">
<use xlink:href="#c"/>
<use x="63.623047" xlink:href="#d"/>
<use x="95.410156" xlink:href="#n"/>
<use x="159.033203" xlink:href="#n"/>
</g>
</g>
<g clip-path="url(#a)">
<g transform="translate(395.4 432.48) scale(.1 -.1)">
<use xlink:href="#c"/>
<use x="63.623047" xlink:href="#d"/>
<use x="95.410156" xlink:href="#n"/>
<use x="159.033203" xlink:href="#z"/>
</g>
</g>
<g clip-path="url(#a)">
<g transform="translate(956.14 432.48) scale(.1 -.1)">
<use xlink:href="#c"/>
<use x="63.623047" xlink:href="#d"/>
<use x="95.410156" xlink:href="#n"/>
<use x="159.033203" xlink:href="#u"/>
</g>
</g>
<defs>
<clipPath id="a">
<rect width="1013.3" height="533.33"/>
</clipPath>
</defs>
</svg>
