<?xml version="1.0" encoding="UTF-8"?>
<!DOCTYPE svg  PUBLIC '-//W3C//DTD SVG 1.1//EN'  'http://www.w3.org/Graphics/SVG/1.1/DTD/svg11.dtd'>
<svg width="1368pt" height="720pt" version="1.1" viewBox="0 0 1368 720" xmlns="http://www.w3.org/2000/svg" xmlns:xlink="http://www.w3.org/1999/xlink">
<metadata>
<rdf:RDF xmlns:cc="http://creativecommons.org/ns#" xmlns:dc="http://purl.org/dc/elements/1.1/" xmlns:rdf="http://www.w3.org/1999/02/22-rdf-syntax-ns#">
<cc:Work>
<dc:type rdf:resource="http://purl.org/dc/dcmitype/StillImage"/>
<dc:date>2021-06-09T07:18:13.960177</dc:date>
<dc:format>image/svg+xml</dc:format>
<dc:creator>
<cc:Agent>
<dc:title>Matplotlib v3.3.3, https://matplotlib.org/</dc:title>
</cc:Agent>
</dc:creator>
</cc:Work>
</rdf:RDF>
</metadata>
<defs>
<style type="text/css">*{stroke-linecap:butt;stroke-linejoin:round;}</style>
</defs>
<path d="m0 720h1368v-720h-1368z" fill="#fff"/>
<g fill="none" stroke="#000">
<path d="m459.53 32.727-359.75 94.371" clip-path="url(#a)"/>
<path d="m459.53 32.727 359.75 94.371" clip-path="url(#a)"/>
<path d="m99.785 127.1-32.974 375.49" clip-path="url(#a)"/>
<path d="m99.785 127.1-16.001 468.47" clip-path="url(#a)"/>
<path d="m99.785 127.1 48.975 94.213" clip-path="url(#a)"/>
<path d="m819.28 127.1-399.35 94.213" clip-path="url(#a)"/>
<path d="m819.28 127.1 85.369 468.47" clip-path="url(#a)"/>
<path d="m819.28 127.1 299.58 282.02" clip-path="url(#a)"/>
<path d="m819.28 127.1 14.392 468.47" clip-path="url(#a)"/>
<path d="m419.93 221.31-86.186 374.26" clip-path="url(#a)"/>
<path d="m419.93 221.31 44.967 187.81" clip-path="url(#a)"/>
<path d="m419.93 221.31 271.27 187.81" clip-path="url(#a)"/>
<path d="m419.93 221.31-221.45 94.023" clip-path="url(#a)" stroke-dasharray="3.7,1.6"/>
<path d="m419.93 221.31-126.3 374.26" clip-path="url(#a)"/>
<path d="m419.93 221.31-42.983 374.26" clip-path="url(#a)"/>
<path d="m419.93 221.31 160.69 374.26" clip-path="url(#a)"/>
<path d="m904.65 595.57v91.705" clip-path="url(#a)"/>
<path d="m1118.9 409.12-101.58 93.468" clip-path="url(#a)"/>
<path d="m1118.9 409.12 101.58 93.468" clip-path="url(#a)"/>
<path d="m1017.3 502.59-38.574 92.98" clip-path="url(#a)"/>
<path d="m1017.3 502.59 38.574 92.98" clip-path="url(#a)"/>
<path d="m1220.4 502.59-84.349 92.98" clip-path="url(#a)"/>
<path d="m1220.4 502.59-1.0286 92.98" clip-path="url(#a)"/>
<path d="m1220.4 502.59 85.378 92.98" clip-path="url(#a)"/>
<path d="m1136.1 595.57v91.705" clip-path="url(#a)"/>
<path d="m1219.4 595.57v91.705" clip-path="url(#a)"/>
<path d="m978.71 595.57v91.705" clip-path="url(#a)"/>
<path d="m1055.9 595.57v91.705" clip-path="url(#a)"/>
<path d="m333.75 595.57v91.705" clip-path="url(#a)"/>
<path d="m464.9 409.12-41.66 186.45" clip-path="url(#a)"/>
<path d="m464.9 409.12 7.7149 186.45" clip-path="url(#a)"/>
<path d="m464.9 409.12 33.945 93.468" clip-path="url(#a)"/>
<path d="m691.2 409.12-51.947 186.45" clip-path="url(#a)"/>
<path d="m691.2 409.12 9.7722 186.45" clip-path="url(#a)"/>
<path d="m691.2 409.12 42.175 93.468" clip-path="url(#a)"/>
<path d="m639.25 595.57v91.705" clip-path="url(#a)"/>
<path d="m700.97 595.57v91.705" clip-path="url(#a)"/>
<path d="m733.38 502.59-32.402 92.98" clip-path="url(#a)" stroke-dasharray="3.7,1.6"/>
<path d="m733.38 502.59 32.402 92.98" clip-path="url(#a)"/>
<path d="m765.78 595.57v91.705" clip-path="url(#a)"/>
<path d="m423.24 595.57v91.705" clip-path="url(#a)"/>
<path d="m472.61 595.57v91.705" clip-path="url(#a)"/>
<path d="m498.84 502.59-26.231 92.98" clip-path="url(#a)" stroke-dasharray="3.7,1.6"/>
<path d="m498.84 502.59 26.231 92.98" clip-path="url(#a)"/>
<path d="m525.07 595.57v91.705" clip-path="url(#a)"/>
<path d="m66.811 502.59-4.6289 92.98" clip-path="url(#a)"/>
<path d="m66.811 502.59 4.6289 92.98" clip-path="url(#a)"/>
<path d="m83.783 595.57v91.705" clip-path="url(#a)"/>
<path d="m148.76 221.31-40.289 281.28" clip-path="url(#a)"/>
<path d="m148.76 221.31-9.4293 374.26" clip-path="url(#a)"/>
<path d="m148.76 221.31 49.718 94.023" clip-path="url(#a)"/>
<path d="m108.47 502.59-9.2578 92.98" clip-path="url(#a)"/>
<path d="m108.47 502.59 9.2578 92.98" clip-path="url(#a)"/>
<path d="m139.33 595.57v91.705" clip-path="url(#a)"/>
<path d="m198.48 315.33-34.46 187.25" clip-path="url(#a)"/>
<path d="m198.48 315.33-6.6862 280.23" clip-path="url(#a)"/>
<path d="m198.48 315.33 41.146 93.786" clip-path="url(#a)"/>
<path d="m164.02 502.59v92.98" clip-path="url(#a)"/>
<path d="m191.79 595.57v91.705" clip-path="url(#a)"/>
<path d="m239.62 409.12v93.468" clip-path="url(#a)"/>
<path d="m239.62 502.59-16.973 92.98" clip-path="url(#a)"/>
<path d="m239.62 502.59 16.973 92.98" clip-path="url(#a)"/>
<path d="m222.65 595.57v91.705" clip-path="url(#a)"/>
<path d="m256.6 595.57v91.705" clip-path="url(#a)"/>
<path d="m164.02 595.57v91.705" clip-path="url(#a)"/>
<path d="m99.213 595.57v91.705" clip-path="url(#a)"/>
<path d="m117.73 595.57v91.705" clip-path="url(#a)"/>
<path d="m62.182 595.57v91.705" clip-path="url(#a)"/>
<path d="m71.44 595.57v91.705" clip-path="url(#a)"/>
<path d="m293.63 595.57v91.705" clip-path="url(#a)"/>
<path d="m376.95 595.57v91.705" clip-path="url(#a)"/>
<path d="m580.62 595.57v91.705" clip-path="url(#a)"/>
<path d="m833.67 595.57v91.705" clip-path="url(#a)"/>
<path d="m1305.8 595.57v91.705" clip-path="url(#a)"/>
</g>
<path d="m278.34 86.742 5.8194-1.5266q2.3215-0.60898 1.7125-2.9304l-1.9646-7.4891q-0.60898-2.3215-2.9304-1.7125l-5.8194 1.5266q-2.3215 0.60898-1.7125 2.9304l1.9646 7.4891q0.60898 2.3215 2.9304 1.7125z" clip-path="url(#a)" fill="#fff" stroke="#fff"/>
<g clip-path="url(#a)">
<g transform="translate(277.31 82.811) rotate(-14.699) scale(.08 -.08)">
<defs>
<path id="am" d="m9.8125 72.906h9.8594v-29.891h35.844v29.891h9.8594v-72.906h-9.8594v34.719h-35.844v-34.719h-9.8594z"/>
</defs>
<use xlink:href="#am"/>
</g>
</g>
<path d="m634.9 85.215 5.8194 1.5266q2.3215 0.60898 2.9304-1.7125l1.9646-7.4891q0.60898-2.3215-1.7125-2.9304l-5.8194-1.5266q-2.3215-0.60898-2.9304 1.7125l-1.9646 7.4891q-0.60898 2.3215 1.7125 2.9304z" clip-path="url(#a)" fill="#fff" stroke="#fff"/>
<g clip-path="url(#a)">
<g transform="translate(635.93 81.285) rotate(14.699) scale(.08 -.08)">
<use xlink:href="#am"/>
</g>
</g>
<path d="m89.306 318.12 0.47873-5.4515q0.20995-2.3908-2.1808-2.6007l-7.7128-0.67731q-2.3908-0.20995-2.6007 2.1808l-0.47873 5.4515q-0.20995 2.3908 2.1808 2.6007l7.7128 0.67731q2.3908 0.20995 2.6007-2.1808z" clip-path="url(#a)" fill="#fff" stroke="#fff"/>
<g clip-path="url(#a)">
<g transform="translate(85.257 317.76) rotate(-84.981) scale(.08 -.08)">
<defs>
<path id="r" d="m34.188 63.188-13.391-36.281h26.812zm-5.5781 9.7188h11.188l27.781-72.906h-10.25l-6.6406 18.703h-32.859l-6.6406-18.703h-10.406z"/>
</defs>
<use xlink:href="#r"/>
</g>
</g>
<path d="m97.969 363.96 0.16467-4.8209q0.081927-2.3986-2.3167-2.4805l-7.738-0.2643q-2.3986-0.081927-2.4805 2.3167l-0.16467 4.8209q-0.081927 2.3986 2.3167 2.4805l7.738 0.2643q2.3986 0.081927 2.4805-2.3167z" clip-path="url(#a)" fill="#fff" stroke="#fff"/>
<g clip-path="url(#a)">
<g transform="translate(93.908 363.82) rotate(-88.044) scale(.08 -.08)">
<defs>
<path id="v" d="m19.672 64.797v-27.391h12.406q6.8906 0 10.641 3.5625 3.7656 3.5625 3.7656 10.156 0 6.5469-3.7656 10.109-3.75 3.5625-10.641 3.5625zm-9.8594 8.1094h22.266q12.266 0 18.531-5.5469 6.2812-5.5469 6.2812-16.234 0-10.797-6.2812-16.312-6.2656-5.5156-18.531-5.5156h-12.406v-29.297h-9.8594z"/>
</defs>
<use xlink:href="#v"/>
</g>
</g>
<path d="m117.45 174.67 2.5241 4.8556q1.107 2.1295 3.2364 1.0225l6.8697-3.5711q2.1295-1.107 1.0225-3.2364l-2.5241-4.8556q-1.107-2.1295-3.2364-1.0225l-6.8697 3.5711q-2.1295 1.107-1.0225 3.2364z" clip-path="url(#a)" fill="#fff" stroke="#fff"/>
<g clip-path="url(#a)">
<g transform="translate(121.05 172.79) rotate(62.533) scale(.08 -.08)">
<use xlink:href="#r"/>
</g>
</g>
<path d="m618.38 180.94 5.3263-1.2566q2.3359-0.55108 1.7848-2.887l-1.7778-7.5356q-0.55108-2.3359-2.887-1.7848l-5.3263 1.2566q-2.3359 0.55108-1.7848 2.887l1.7778 7.5356q0.55108 2.3359 2.887 1.7848z" clip-path="url(#a)" fill="#fff" stroke="#fff"/>
<g clip-path="url(#a)">
<g transform="translate(617.45 176.98) rotate(-13.274) scale(.08 -.08)">
<use xlink:href="#r"/>
</g>
</g>
<path d="m855.36 360.08 0.86478 4.7456q0.43026 2.3611 2.7914 1.9309l7.6171-1.388q2.3611-0.43026 1.9309-2.7914l-0.86478-4.7456q-0.43026-2.3611-2.7914-1.9309l-7.6171 1.388q-2.3611 0.43026-1.9309 2.7914z" clip-path="url(#a)" fill="#fff" stroke="#fff"/>
<g clip-path="url(#a)">
<g transform="translate(859.36 359.36) rotate(79.672) scale(.08 -.08)">
<use xlink:href="#v"/>
</g>
</g>
<path d="m962.78 270.8 3.9847 3.7511q1.7475 1.6451 3.3926-0.10244l5.307-5.6375q1.6451-1.7475-0.10244-3.3926l-3.9847-3.7511q-1.7475-1.6451-3.3926 0.10244l-5.307 5.6375q-1.6451 1.7475 0.10244 3.3926z" clip-path="url(#a)" fill="#fff" stroke="#fff"/>
<g clip-path="url(#a)">
<g transform="translate(965.56 267.84) rotate(43.27) scale(.08 -.08)">
<use xlink:href="#r"/>
</g>
</g>
<path d="m820.11 358.6 0.17979 5.8522q0.073695 2.3989 2.4726 2.3252l7.7388-0.23775q2.3989-0.073696 2.3252-2.4726l-0.17979-5.8522q-0.073696-2.3989-2.4726-2.3252l-7.7388 0.23774q-2.3989 0.073696-2.3252 2.4726z" clip-path="url(#a)" fill="#fff" stroke="#fff"/>
<g clip-path="url(#a)">
<g transform="translate(824.18 358.47) rotate(88.24) scale(.08 -.08)">
<defs>
<path id="y" d="m8.6875 72.906h9.9219v-44.297q0-11.719 4.2344-16.875 4.25-5.1406 13.781-5.1406 9.4688 0 13.719 5.1406 4.25 5.1562 4.25 16.875v44.297h9.9062v-45.516q0-14.25-7.0625-21.531-7.0469-7.2812-20.812-7.2812-13.828 0-20.891 7.2812-7.0469 7.2812-7.0469 21.531z"/>
</defs>
<use xlink:href="#y"/>
</g>
</g>
<path d="m382.24 412.92 1.4132-6.1369q0.53859-2.3388-1.8002-2.8774l-7.545-1.7375q-2.3388-0.53859-2.8774 1.8002l-1.4132 6.1369q-0.53859 2.3388 1.8002 2.8774l7.545 1.7375q2.3388 0.53859 2.8774-1.8002z" clip-path="url(#a)" fill="#fff" stroke="#fff"/>
<g clip-path="url(#a)">
<g transform="translate(378.28 412) rotate(-77.032) scale(.08 -.08)">
<defs>
<path id="al" d="m39.406 66.219q-10.75 0-17.078-8.0156-6.3125-8-6.3125-21.828 0-13.766 6.3125-21.781 6.3281-8 17.078-8 10.734 0 17.016 8 6.2812 8.0156 6.2812 21.781 0 13.828-6.2812 21.828-6.2812 8.0156-17.016 8.0156zm13.812-64.906 13-14.203h-11.922l-10.797 11.672q-1.6094-0.09375-2.4688-0.14062-0.84375-0.0625-1.625-0.0625-15.375 0-24.594 10.281-9.2031 10.281-9.2031 27.516 0 17.281 9.2031 27.562 9.2188 10.281 24.594 10.281 15.328 0 24.5-10.281 9.1875-10.281 9.1875-27.562 0-12.688-5.1094-21.734-5.0938-9.0312-14.766-13.328z"/>
</defs>
<use xlink:href="#al"/>
</g>
</g>
<path d="m435.73 314.22 1.177 4.9161q0.55883 2.334 2.8929 1.7752l7.5297-1.8028q2.334-0.55883 1.7752-2.8929l-1.177-4.9161q-0.55883-2.334-2.8929-1.7752l-7.5297 1.8028q-2.334 0.55883-1.7752 2.8929z" clip-path="url(#a)" fill="#fff" stroke="#fff"/>
<g clip-path="url(#a)">
<g transform="translate(439.68 313.27) rotate(76.535) scale(.08 -.08)">
<defs>
<path id="ab" d="m9.8125 72.906h46.094v-8.3125h-36.234v-21.578h34.719v-8.2969h-34.719v-26.422h37.109v-8.2969h-46.969z"/>
</defs>
<use xlink:href="#ab"/>
</g>
</g>
<path d="m549.92 318.93 4.1561 2.8774q1.9732 1.3661 3.3394-0.6071l4.4072-6.3657q1.3661-1.9732-0.6071-3.3394l-4.1561-2.8774q-1.9732-1.3661-3.3394 0.6071l-4.4072 6.3657q-1.3661 1.9732 0.6071 3.3394z" clip-path="url(#a)" fill="#fff" stroke="#fff"/>
<g clip-path="url(#a)">
<g transform="translate(552.23 315.59) rotate(34.696) scale(.08 -.08)">
<use xlink:href="#ab"/>
</g>
</g>
<path d="m309.08 275.19 5.142-2.1832q2.2091-0.93794 1.2712-3.1471l-3.0258-7.1268q-0.93794-2.2091-3.1471-1.2712l-5.142 2.1832q-2.2091 0.93794-1.2712 3.1471l3.0258 7.1268q0.93794 2.2091 3.1471 1.2712z" clip-path="url(#a)" fill="#fff" stroke="#fff"/>
<g clip-path="url(#a)">
<g transform="translate(307.5 271.45) rotate(-23.005) scale(.08 -.08)">
<defs>
<path id="q" d="m64.406 67.281v-10.391q-4.9844 4.6406-10.625 6.9219-5.6406 2.2969-11.984 2.2969-12.5 0-19.141-7.6406t-6.6406-22.094q0-14.406 6.6406-22.047t19.141-7.6406q6.3438 0 11.984 2.2969t10.625 6.9375v-10.312q-5.1719-3.5156-10.969-5.2812-5.7812-1.75-12.219-1.75-16.562 0-26.094 10.125-9.5156 10.141-9.5156 27.672 0 17.578 9.5156 27.703 9.5312 10.141 26.094 10.141 6.5312 0 12.312-1.7344 5.7969-1.7344 10.875-5.2031z"/>
</defs>
<use xlink:href="#q"/>
</g>
</g>
<path d="m361.79 413.22 1.8722-5.5476q0.76742-2.274-1.5066-3.0414l-7.336-2.4757q-2.274-0.76742-3.0414 1.5066l-1.8722 5.5476q-0.76742 2.274 1.5066 3.0414l7.336 2.4757q2.274 0.76742 3.0414-1.5066z" clip-path="url(#a)" fill="#fff" stroke="#fff"/>
<g clip-path="url(#a)">
<g transform="translate(357.93 411.92) rotate(-71.352) scale(.08 -.08)">
<use xlink:href="#y"/>
</g>
</g>
<path d="m404.34 412.06 0.66804-5.8168q0.27384-2.3843-2.1105-2.6582l-7.6919-0.8834q-2.3843-0.27384-2.6582 2.1105l-0.66804 5.8168q-0.27384 2.3843 2.1105 2.6582l7.6919 0.88341q2.3843 0.27384 2.6582-2.1105z" clip-path="url(#a)" fill="#fff" stroke="#fff"/>
<g clip-path="url(#a)">
<g transform="translate(400.3 411.6) rotate(-83.448) scale(.08 -.08)">
<use xlink:href="#y"/>
</g>
</g>
<path d="m493.36 408.22 2.31 5.3801q0.94687 2.2053 3.1522 1.2585l7.1145-3.0546q2.2053-0.94687 1.2585-3.1522l-2.31-5.3801q-0.94687-2.2053-3.1522-1.2585l-7.1145 3.0546q-2.2053 0.94687-1.2585 3.1522z" clip-path="url(#a)" fill="#fff" stroke="#fff"/>
<g clip-path="url(#a)">
<g transform="translate(497.09 406.62) rotate(66.763) scale(.08 -.08)">
<use xlink:href="#y"/>
</g>
</g>
<path d="m898.37 624.52v33.808q0 2.4 2.4 2.4h7.7425q2.4 0 2.4-2.4v-33.808q0-2.4-2.4-2.4h-7.7425q-2.4 0-2.4 2.4z" clip-path="url(#a)" fill="#fff" stroke="#fff"/>
<g clip-path="url(#a)">
<g transform="translate(902.44 624.52) rotate(90) scale(.08 -.08)">
<defs>
<path id="l" d="m-0.29688 72.906h61.672v-8.3125h-25.875v-64.594h-9.9062v64.594h-25.891z"/>
<path id="e" d="m56.203 29.594v-4.3906h-41.312q0.59375-9.2812 5.5938-14.141t13.938-4.8594q5.1719 0 10.031 1.2656t9.6562 3.8125v-8.5q-4.8438-2.0469-9.9219-3.125t-10.297-1.0781q-13.094 0-20.734 7.6094-7.6406 7.625-7.6406 20.625 0 13.422 7.25 21.297 7.25 7.8906 19.562 7.8906 11.031 0 17.453-7.1094 6.4219-7.0938 6.4219-19.297zm-8.9844 2.6406q-0.09375 7.3594-4.125 11.75-4.0312 4.4062-10.672 4.4062-7.5156 0-12.031-4.25t-5.2031-11.969z"/>
<path id="h" d="m41.109 46.297q-1.5156 0.875-3.2969 1.2812-1.7812 0.42188-3.9219 0.42188-7.625 0-11.703-4.9531t-4.0781-14.234v-28.812h-9.0312v54.688h9.0312v-8.5q2.8438 4.9844 7.375 7.3906 4.5469 2.4219 11.047 2.4219 0.92188 0 2.0469-0.125 1.125-0.10938 2.4844-0.35938z"/>
<path id="k" d="m52 44.188q3.375 6.0625 8.0625 8.9375t11.031 2.875q8.5469 0 13.188-5.9844 4.6406-5.9688 4.6406-17v-33.016h-9.0312v32.719q0 7.8594-2.7969 11.656-2.7812 3.8125-8.4844 3.8125-6.9844 0-11.047-4.6406-4.0469-4.625-4.0469-12.641v-30.906h-9.0312v32.719q0 7.9062-2.7812 11.688t-8.5938 3.7812q-6.8906 0-10.953-4.6562-4.0469-4.6562-4.0469-12.625v-30.906h-9.0312v54.688h9.0312v-8.5q3.0781 5.0312 7.375 7.4219t10.203 2.3906q5.9688 0 10.141-3.0312 4.1719-3.0156 6.1719-8.7812z"/>
<path id="g" d="m9.4219 54.688h8.9844v-54.688h-8.9844zm0 21.297h8.9844v-11.391h-8.9844z"/>
<path id="j" d="m54.891 33.016v-33.016h-8.9844v32.719q0 7.7656-3.0312 11.609-3.0312 3.8594-9.0781 3.8594-7.2812 0-11.484-4.6406-4.2031-4.625-4.2031-12.641v-30.906h-9.0312v54.688h9.0312v-8.5q3.2344 4.9375 7.5938 7.375 4.375 2.4375 10.094 2.4375 9.4219 0 14.25-5.8281 4.8438-5.8281 4.8438-17.156z"/>
<path id="f" d="m34.281 27.484q-10.891 0-15.094-2.4844t-4.2031-8.5q0-4.7812 3.1562-7.5938 3.1562-2.7969 8.5625-2.7969 7.4844 0 12 5.2969t4.5156 14.078v2zm17.922 3.7188v-31.203h-8.9844v8.2969q-3.0781-4.9688-7.6719-7.3438t-11.234-2.375q-8.3906 0-13.359 4.7188-4.9531 4.7188-4.9531 12.625 0 9.2188 6.1719 13.906 6.1875 4.6875 18.438 4.6875h12.609v0.89062q0 6.2031-4.0781 9.5938t-11.453 3.3906q-4.6875 0-9.1406-1.125-4.4375-1.125-8.5312-3.375v8.3125q4.9219 1.9062 9.5625 2.8438 4.6406 0.95312 9.0312 0.95312 11.875 0 17.734-6.1562 5.8594-6.1406 5.8594-18.641z"/>
<path id="i" d="m9.4219 75.984h8.9844v-75.984h-8.9844z"/>
</defs>
<use xlink:href="#l"/>
<use x="44.083984" xlink:href="#e"/>
<use x="105.607422" xlink:href="#h"/>
<use x="144.970703" xlink:href="#k"/>
<use x="242.382812" xlink:href="#g"/>
<use x="270.166016" xlink:href="#j"/>
<use x="333.544922" xlink:href="#f"/>
<use x="394.824219" xlink:href="#i"/>
</g>
</g>
<path d="m1070.5 462.1 3.5497-3.2662q1.7661-1.6251 0.14102-3.3912l-5.2426-5.6975q-1.6251-1.7661-3.3912-0.14102l-3.5497 3.2662q-1.7661 1.6251-0.14102 3.3912l5.2426 5.6975q1.6251 1.7661 3.3912 0.14102z" clip-path="url(#a)" fill="#fff" stroke="#fff"/>
<g clip-path="url(#a)">
<g transform="translate(1067.8 459.11) rotate(-42.619) scale(.08 -.08)">
<use xlink:href="#v"/>
</g>
</g>
<path d="m1163.4 458.62 4.0271 3.7055q1.7661 1.6251 3.3912-0.14102l5.2426-5.6975q1.6251-1.7661-0.14102-3.3912l-4.0271-3.7055q-1.7661-1.6251-3.3912 0.14102l-5.2426 5.6975q-1.6251 1.7661 0.14102 3.3912z" clip-path="url(#a)" fill="#fff" stroke="#fff"/>
<g clip-path="url(#a)">
<g transform="translate(1166.1 455.63) rotate(42.619) scale(.08 -.08)">
<use xlink:href="#r"/>
</g>
</g>
<path d="m1002.9 553.61 1.7632-4.25q0.91967-2.2168-1.2971-3.1365l-7.1515-2.9669q-2.2168-0.91967-3.1365 1.2971l-1.7632 4.25q-0.91967 2.2168 1.2971 3.1365l7.1515 2.9669q2.2168 0.91968 3.1365-1.2971z" clip-path="url(#a)" fill="#fff" stroke="#fff"/>
<g clip-path="url(#a)">
<g transform="translate(999.15 552.05) rotate(-67.468) scale(.08 -.08)">
<defs>
<path id="w" d="m9.8125 72.906h41.891v-8.3125h-32.031v-21.484h28.906v-8.2969h-28.906v-34.812h-9.8594z"/>
</defs>
<use xlink:href="#w"/>
</g>
</g>
<path d="m1029.7 548.9 2.1406 5.1598q0.91968 2.2168 3.1365 1.2971l7.1515-2.9669q2.2168-0.91967 1.2971-3.1365l-2.1406-5.1598q-0.91967-2.2168-3.1365-1.2971l-7.1515 2.9669q-2.2168 0.91968-1.2971 3.1365z" clip-path="url(#a)" fill="#fff" stroke="#fff"/>
<g clip-path="url(#a)">
<g transform="translate(1033.5 547.34) rotate(67.468) scale(.08 -.08)">
<use xlink:href="#q"/>
</g>
</g>
<path d="m1181 555.35 3.7349-4.1171q1.6125-1.7776-0.165-3.3901l-5.7345-5.2021q-1.7776-1.6125-3.3901 0.165l-3.7349 4.1171q-1.6125 1.7776 0.165 3.3901l5.7345 5.2021q1.7776 1.6125 3.3901-0.165z" clip-path="url(#a)" fill="#fff" stroke="#fff"/>
<g clip-path="url(#a)">
<g transform="translate(1178 552.62) rotate(-47.787) scale(.08 -.08)">
<defs>
<path id="ak" d="m44.391 34.188q3.1719-1.0781 6.1719-4.5938t6.0312-9.6719l10.016-19.922h-10.609l-9.3125 18.703q-3.625 7.3281-7.0156 9.7188t-9.25 2.3906h-10.75v-30.812h-9.8594v72.906h22.266q12.5 0 18.656-5.2344 6.1562-5.2188 6.1562-15.766 0-6.8906-3.2031-11.438-3.2031-4.5312-9.2969-6.2812zm-24.719 30.609v-25.875h12.406q7.125 0 10.766 3.2969t3.6406 9.6875-3.6406 9.6406-10.766 3.25z"/>
</defs>
<use xlink:href="#ak"/>
</g>
</g>
<path d="m1226.2 551.94 0.061797-5.5859q0.02655-2.3999-2.3733-2.4264l-7.742-0.08565q-2.3999-0.02655-2.4264 2.3733l-0.061797 5.5859q-0.02655 2.3999 2.3733 2.4264l7.742 0.085651q2.3999 0.02655 2.4264-2.3733z" clip-path="url(#a)" fill="#fff" stroke="#fff"/>
<g clip-path="url(#a)">
<g transform="translate(1222.1 551.9) rotate(-89.366) scale(.08 -.08)">
<use xlink:href="#q"/>
</g>
</g>
<path d="m1256.5 551.16 3.96 4.3127q1.6232 1.7678 3.391 0.14454l5.703-5.2367q1.7678-1.6232 0.14454-3.391l-3.96-4.3127q-1.6232-1.7678-3.391-0.14454l-5.703 5.2367q-1.7678 1.6232-0.14454 3.391z" clip-path="url(#a)" fill="#fff" stroke="#fff"/>
<g clip-path="url(#a)">
<g transform="translate(1259.5 548.41) rotate(47.441) scale(.08 -.08)">
<use xlink:href="#y"/>
</g>
</g>
<path d="m1129.8 624.52v33.808q0 2.4 2.4 2.4h7.7425q2.4 0 2.4-2.4v-33.808q0-2.4-2.4-2.4h-7.7425q-2.4 0-2.4 2.4z" clip-path="url(#a)" fill="#fff" stroke="#fff"/>
<g clip-path="url(#a)">
<g transform="translate(1133.9 624.52) rotate(90) scale(.08 -.08)">
<use xlink:href="#l"/>
<use x="44.083984" xlink:href="#e"/>
<use x="105.607422" xlink:href="#h"/>
<use x="144.970703" xlink:href="#k"/>
<use x="242.382812" xlink:href="#g"/>
<use x="270.166016" xlink:href="#j"/>
<use x="333.544922" xlink:href="#f"/>
<use x="394.824219" xlink:href="#i"/>
</g>
</g>
<path d="m1213.1 624.52v33.808q0 2.4 2.4 2.4h7.7425q2.4 0 2.4-2.4v-33.808q0-2.4-2.4-2.4h-7.7425q-2.4 0-2.4 2.4z" clip-path="url(#a)" fill="#fff" stroke="#fff"/>
<g clip-path="url(#a)">
<g transform="translate(1217.2 624.52) rotate(90) scale(.08 -.08)">
<use xlink:href="#l"/>
<use x="44.083984" xlink:href="#e"/>
<use x="105.607422" xlink:href="#h"/>
<use x="144.970703" xlink:href="#k"/>
<use x="242.382812" xlink:href="#g"/>
<use x="270.166016" xlink:href="#j"/>
<use x="333.544922" xlink:href="#f"/>
<use x="394.824219" xlink:href="#i"/>
</g>
</g>
<path d="m972.44 624.52v33.808q0 2.4 2.4 2.4h7.7425q2.4 0 2.4-2.4v-33.808q0-2.4-2.4-2.4h-7.7425q-2.4 0-2.4 2.4z" clip-path="url(#a)" fill="#fff" stroke="#fff"/>
<g clip-path="url(#a)">
<g transform="translate(976.5 624.52) rotate(90) scale(.08 -.08)">
<use xlink:href="#l"/>
<use x="44.083984" xlink:href="#e"/>
<use x="105.607422" xlink:href="#h"/>
<use x="144.970703" xlink:href="#k"/>
<use x="242.382812" xlink:href="#g"/>
<use x="270.166016" xlink:href="#j"/>
<use x="333.544922" xlink:href="#f"/>
<use x="394.824219" xlink:href="#i"/>
</g>
</g>
<path d="m1049.6 624.52v33.808q0 2.4 2.4 2.4h7.7425q2.4 0 2.4-2.4v-33.808q0-2.4-2.4-2.4h-7.7425q-2.4 0-2.4 2.4z" clip-path="url(#a)" fill="#fff" stroke="#fff"/>
<g clip-path="url(#a)">
<g transform="translate(1053.6 624.52) rotate(90) scale(.08 -.08)">
<use xlink:href="#l"/>
<use x="44.083984" xlink:href="#e"/>
<use x="105.607422" xlink:href="#h"/>
<use x="144.970703" xlink:href="#k"/>
<use x="242.382812" xlink:href="#g"/>
<use x="270.166016" xlink:href="#j"/>
<use x="333.544922" xlink:href="#f"/>
<use x="394.824219" xlink:href="#i"/>
</g>
</g>
<path d="m327.47 624.52v33.808q0 2.4 2.4 2.4h7.7425q2.4 0 2.4-2.4v-33.808q0-2.4-2.4-2.4h-7.7425q-2.4 0-2.4 2.4z" clip-path="url(#a)" fill="#fff" stroke="#fff"/>
<g clip-path="url(#a)">
<g transform="translate(331.54 624.52) rotate(90) scale(.08 -.08)">
<use xlink:href="#l"/>
<use x="44.083984" xlink:href="#e"/>
<use x="105.607422" xlink:href="#h"/>
<use x="144.970703" xlink:href="#k"/>
<use x="242.382812" xlink:href="#g"/>
<use x="270.166016" xlink:href="#j"/>
<use x="333.544922" xlink:href="#f"/>
<use x="394.824219" xlink:href="#i"/>
</g>
</g>
<path d="m449.69 505.96 1.0034-4.4905q0.52336-2.3422-1.8189-2.8656l-7.5562-1.6884q-2.3422-0.52336-2.8656 1.8189l-1.0034 4.4905q-0.52335 2.3422 1.8189 2.8656l7.5562 1.6884q2.3422 0.52336 2.8656-1.8189z" clip-path="url(#a)" fill="#fff" stroke="#fff"/>
<g clip-path="url(#a)">
<g transform="translate(445.72 505.07) rotate(-77.405) scale(.08 -.08)">
<use xlink:href="#w"/>
</g>
</g>
<path d="m462.37 499.81 0.23095 5.5815q0.099222 2.3979 2.4972 2.2987l7.7359-0.3201q2.3979-0.099222 2.2987-2.4972l-0.23095-5.5815q-0.099223-2.3979-2.4972-2.2987l-7.7359 0.3201q-2.3979 0.099222-2.2987 2.4972z" clip-path="url(#a)" fill="#fff" stroke="#fff"/>
<g clip-path="url(#a)">
<g transform="translate(466.43 499.64) rotate(87.631) scale(.08 -.08)">
<use xlink:href="#q"/>
</g>
</g>
<path d="m475.11 455.62 1.7256 4.7514q0.81927 2.2558 3.0751 1.4366l7.2774-2.643q2.2558-0.81927 1.4366-3.0751l-1.7256-4.7514q-0.81927-2.2558-3.0751-1.4366l-7.2774 2.643q-2.2558 0.81927-1.4366 3.0751z" clip-path="url(#a)" fill="#fff" stroke="#fff"/>
<g clip-path="url(#a)">
<g transform="translate(478.93 454.23) rotate(70.04) scale(.08 -.08)">
<use xlink:href="#ab"/>
</g>
</g>
<path d="m670.65 506.24 1.2349-4.4324q0.64414-2.3119-1.6678-2.9561l-7.4584-2.078q-2.3119-0.64414-2.9561 1.6678l-1.2349 4.4324q-0.64414 2.3119 1.6678 2.9561l7.4584 2.078q2.3119 0.64414 2.9561-1.6678z" clip-path="url(#a)" fill="#fff" stroke="#fff"/>
<g clip-path="url(#a)">
<g transform="translate(666.74 505.15) rotate(-74.432) scale(.08 -.08)">
<use xlink:href="#w"/>
</g>
</g>
<path d="m689.68 499.88 0.29239 5.5786q0.12562 2.3967 2.5223 2.2711l7.7319-0.40525q2.3967-0.12562 2.2711-2.5223l-0.29239-5.5786q-0.12562-2.3967-2.5223-2.2711l-7.7319 0.40524q-2.3967 0.12562-2.2711 2.5223z" clip-path="url(#a)" fill="#fff" stroke="#fff"/>
<g clip-path="url(#a)">
<g transform="translate(693.74 499.67) rotate(87) scale(.08 -.08)">
<use xlink:href="#q"/>
</g>
</g>
<path d="m705.53 456.13 2.0791 4.6077q0.98709 2.1876 3.1747 1.2005l7.0573-3.1844q2.1876-0.98709 1.2005-3.1747l-2.0791-4.6077q-0.98709-2.1876-3.1747-1.2005l-7.0573 3.1844q-2.1876 0.98709-1.2005 3.1747z" clip-path="url(#a)" fill="#fff" stroke="#fff"/>
<g clip-path="url(#a)">
<g transform="translate(709.24 454.46) rotate(65.714) scale(.08 -.08)">
<use xlink:href="#ab"/>
</g>
</g>
<path d="m632.98 624.52v33.808q0 2.4 2.4 2.4h7.7425q2.4 0 2.4-2.4v-33.808q0-2.4-2.4-2.4h-7.7425q-2.4 0-2.4 2.4z" clip-path="url(#a)" fill="#fff" stroke="#fff"/>
<g clip-path="url(#a)">
<g transform="translate(637.05 624.52) rotate(90) scale(.08 -.08)">
<use xlink:href="#l"/>
<use x="44.083984" xlink:href="#e"/>
<use x="105.607422" xlink:href="#h"/>
<use x="144.970703" xlink:href="#k"/>
<use x="242.382812" xlink:href="#g"/>
<use x="270.166016" xlink:href="#j"/>
<use x="333.544922" xlink:href="#f"/>
<use x="394.824219" xlink:href="#i"/>
</g>
</g>
<path d="m694.7 624.52v33.808q0 2.4 2.4 2.4h7.7425q2.4 0 2.4-2.4v-33.808q0-2.4-2.4-2.4h-7.7425q-2.4 0-2.4 2.4z" clip-path="url(#a)" fill="#fff" stroke="#fff"/>
<g clip-path="url(#a)">
<g transform="translate(698.77 624.52) rotate(90) scale(.08 -.08)">
<use xlink:href="#l"/>
<use x="44.083984" xlink:href="#e"/>
<use x="105.607422" xlink:href="#h"/>
<use x="144.970703" xlink:href="#k"/>
<use x="242.382812" xlink:href="#g"/>
<use x="270.166016" xlink:href="#j"/>
<use x="333.544922" xlink:href="#f"/>
<use x="394.824219" xlink:href="#i"/>
</g>
</g>
<path d="m722.2 553.73 1.8009-5.1677q0.78979-2.2663-1.4765-3.0561l-7.3113-2.5479q-2.2663-0.78979-3.0561 1.4765l-1.8009 5.1677q-0.78979 2.2663 1.4765 3.0561l7.3113 2.5479q2.2663 0.78979 3.0561-1.4765z" clip-path="url(#a)" fill="#fff" stroke="#fff"/>
<g clip-path="url(#a)">
<g transform="translate(718.36 552.39) rotate(-70.787) scale(.08 -.08)">
<use xlink:href="#r"/>
</g>
</g>
<path d="m742.82 548.74 1.6713 4.7959q0.78979 2.2663 3.0561 1.4765l7.3113-2.5479q2.2663-0.78979 1.4765-3.0561l-1.6713-4.7959q-0.78979-2.2663-3.0561-1.4765l-7.3113 2.5479q-2.2663 0.78979-1.4765 3.0561z" clip-path="url(#a)" fill="#fff" stroke="#fff"/>
<g clip-path="url(#a)">
<g transform="translate(746.66 547.41) rotate(70.787) scale(.08 -.08)">
<defs>
<path id="at" d="m53.516 70.516v-9.625q-5.6094 2.6875-10.594 4-4.9844 1.3281-9.625 1.3281-8.0469 0-12.422-3.125t-4.375-8.8906q0-4.8438 2.9062-7.3125 2.9062-2.4531 11.016-3.9688l5.9531-1.2188q11.031-2.1094 16.281-7.4062t5.25-14.172q0-10.609-7.1094-16.078-7.0938-5.4688-20.812-5.4688-5.1719 0-11.016 1.1719-5.8281 1.1719-12.078 3.4688v10.156q6-3.3594 11.766-5.0781 5.7656-1.7031 11.328-1.7031 8.4375 0 13.031 3.3125 4.5938 3.3281 4.5938 9.4844 0 5.3594-3.2969 8.3906t-10.812 4.5469l-6.0156 1.1719q-11.031 2.1875-15.969 6.875-4.9219 4.6875-4.9219 13.047 0 9.6719 6.8125 15.234t18.766 5.5625q5.1406 0 10.453-0.9375 5.3281-0.92188 10.891-2.7656z"/>
</defs>
<use xlink:href="#at"/>
</g>
</g>
<path d="m759.51 624.52v33.808q0 2.4 2.4 2.4h7.7425q2.4 0 2.4-2.4v-33.808q0-2.4-2.4-2.4h-7.7425q-2.4 0-2.4 2.4z" clip-path="url(#a)" fill="#fff" stroke="#fff"/>
<g clip-path="url(#a)">
<g transform="translate(763.57 624.52) rotate(90) scale(.08 -.08)">
<use xlink:href="#l"/>
<use x="44.083984" xlink:href="#e"/>
<use x="105.607422" xlink:href="#h"/>
<use x="144.970703" xlink:href="#k"/>
<use x="242.382812" xlink:href="#g"/>
<use x="270.166016" xlink:href="#j"/>
<use x="333.544922" xlink:href="#f"/>
<use x="394.824219" xlink:href="#i"/>
</g>
</g>
<path d="m416.97 624.52v33.808q0 2.4 2.4 2.4h7.7425q2.4 0 2.4-2.4v-33.808q0-2.4-2.4-2.4h-7.7425q-2.4 0-2.4 2.4z" clip-path="url(#a)" fill="#fff" stroke="#fff"/>
<g clip-path="url(#a)">
<g transform="translate(421.03 624.52) rotate(90) scale(.08 -.08)">
<use xlink:href="#l"/>
<use x="44.083984" xlink:href="#e"/>
<use x="105.607422" xlink:href="#h"/>
<use x="144.970703" xlink:href="#k"/>
<use x="242.382812" xlink:href="#g"/>
<use x="270.166016" xlink:href="#j"/>
<use x="333.544922" xlink:href="#f"/>
<use x="394.824219" xlink:href="#i"/>
</g>
</g>
<path d="m466.34 624.52v33.808q0 2.4 2.4 2.4h7.7425q2.4 0 2.4-2.4v-33.808q0-2.4-2.4-2.4h-7.7425q-2.4 0-2.4 2.4z" clip-path="url(#a)" fill="#fff" stroke="#fff"/>
<g clip-path="url(#a)">
<g transform="translate(470.41 624.52) rotate(90) scale(.08 -.08)">
<use xlink:href="#l"/>
<use x="44.083984" xlink:href="#e"/>
<use x="105.607422" xlink:href="#h"/>
<use x="144.970703" xlink:href="#k"/>
<use x="242.382812" xlink:href="#g"/>
<use x="270.166016" xlink:href="#j"/>
<use x="333.544922" xlink:href="#f"/>
<use x="394.824219" xlink:href="#i"/>
</g>
</g>
<path d="m491.02 553.41 1.4858-5.2669q0.65163-2.3098-1.6582-2.9615l-7.4517-2.1022q-2.3098-0.65163-2.9615 1.6582l-1.4858 5.2669q-0.65163 2.3098 1.6582 2.9615l7.4517 2.1022q2.3098 0.65163 2.9615-1.6582z" clip-path="url(#a)" fill="#fff" stroke="#fff"/>
<g clip-path="url(#a)">
<g transform="translate(487.11 552.31) rotate(-74.246) scale(.08 -.08)">
<use xlink:href="#r"/>
</g>
</g>
<path d="m505.27 548.46 1.3097 4.6425q0.65163 2.3098 2.9615 1.6582l7.4517-2.1022q2.3098-0.65163 1.6582-2.9615l-1.3097-4.6425q-0.65163-2.3098-2.9615-1.6582l-7.4517 2.1022q-2.3098 0.65163-1.6582 2.9615z" clip-path="url(#a)" fill="#fff" stroke="#fff"/>
<g clip-path="url(#a)">
<g transform="translate(509.18 547.36) rotate(74.246) scale(.08 -.08)">
<use xlink:href="#v"/>
</g>
</g>
<path d="m518.8 624.52v33.808q0 2.4 2.4 2.4h7.7425q2.4 0 2.4-2.4v-33.808q0-2.4-2.4-2.4h-7.7425q-2.4 0-2.4 2.4z" clip-path="url(#a)" fill="#fff" stroke="#fff"/>
<g clip-path="url(#a)">
<g transform="translate(522.87 624.52) rotate(90) scale(.08 -.08)">
<use xlink:href="#l"/>
<use x="44.083984" xlink:href="#e"/>
<use x="105.607422" xlink:href="#h"/>
<use x="144.970703" xlink:href="#k"/>
<use x="242.382812" xlink:href="#g"/>
<use x="270.166016" xlink:href="#j"/>
<use x="333.544922" xlink:href="#f"/>
<use x="394.824219" xlink:href="#i"/>
</g>
</g>
<path d="m70.645 551.69 0.22878-4.5956q0.11933-2.397-2.2777-2.5164l-7.7329-0.38498q-2.397-0.11933-2.5164 2.2777l-0.22878 4.5956q-0.11933 2.397 2.2777 2.5164l7.7329 0.38498q2.397 0.11933 2.5164-2.2777z" clip-path="url(#a)" fill="#fff" stroke="#fff"/>
<g clip-path="url(#a)">
<g transform="translate(66.587 551.49) rotate(-87.15) scale(.08 -.08)">
<use xlink:href="#w"/>
</g>
</g>
<path d="m62.723 546.6 0.27776 5.5793q0.11933 2.397 2.5164 2.2777l7.7329-0.38498q2.397-0.11933 2.2777-2.5164l-0.27776-5.5793q-0.11933-2.397-2.5164-2.2777l-7.7329 0.38498q-2.397 0.11933-2.2777 2.5164z" clip-path="url(#a)" fill="#fff" stroke="#fff"/>
<g clip-path="url(#a)">
<g transform="translate(66.782 546.4) rotate(87.15) scale(.08 -.08)">
<use xlink:href="#q"/>
</g>
</g>
<path d="m77.512 624.52v33.808q0 2.4 2.4 2.4h7.7425q2.4 0 2.4-2.4v-33.808q0-2.4-2.4-2.4h-7.7425q-2.4 0-2.4 2.4z" clip-path="url(#a)" fill="#fff" stroke="#fff"/>
<g clip-path="url(#a)">
<g transform="translate(81.576 624.52) rotate(90) scale(.08 -.08)">
<use xlink:href="#l"/>
<use x="44.083984" xlink:href="#e"/>
<use x="105.607422" xlink:href="#h"/>
<use x="144.970703" xlink:href="#k"/>
<use x="242.382812" xlink:href="#g"/>
<use x="270.166016" xlink:href="#j"/>
<use x="333.544922" xlink:href="#f"/>
<use x="394.824219" xlink:href="#i"/>
</g>
</g>
<path d="m134.38 365.96 0.89291-6.2339q0.34029-2.3758-2.0355-2.716l-7.6643-1.0978q-2.3758-0.34029-2.716 2.0355l-0.89291 6.2339q-0.34029 2.3758 2.0355 2.716l7.6643 1.0978q2.3758 0.34029 2.716-2.0355z" clip-path="url(#a)" fill="#fff" stroke="#fff"/>
<g clip-path="url(#a)">
<g transform="translate(130.35 365.38) rotate(-81.849) scale(.08 -.08)">
<use xlink:href="#al"/>
</g>
</g>
<path d="m150.24 411.38 0.14001-5.557q0.060448-2.3992-2.3388-2.4597l-7.74-0.19501q-2.3992-0.060448-2.4597 2.3388l-0.14001 5.557q-0.060448 2.3992 2.3388 2.4597l7.74 0.19501q2.3992 0.060448 2.4597-2.3388z" clip-path="url(#a)" fill="#fff" stroke="#fff"/>
<g clip-path="url(#a)">
<g transform="translate(146.18 411.27) rotate(-88.557) scale(.08 -.08)">
<use xlink:href="#ak"/>
</g>
</g>
<path d="m166.77 268.78 2.6113 4.9383q1.1219 2.1216 3.2435 0.99975l6.8445-3.6193q2.1216-1.1219 0.99975-3.2435l-2.6113-4.9383q-1.1219-2.1216-3.2435-0.99975l-6.8445 3.6193q-2.1216 1.1219-0.99975 3.2435z" clip-path="url(#a)" fill="#fff" stroke="#fff"/>
<g clip-path="url(#a)">
<g transform="translate(170.36 266.89) rotate(62.131) scale(.08 -.08)">
<use xlink:href="#q"/>
</g>
</g>
<path d="m109.85 551.99 0.45588-4.5786q0.23779-2.3882-2.1504-2.626l-7.7044-0.76711q-2.3882-0.23779-2.626 2.1504l-0.45588 4.5786q-0.23779 2.3882 2.1504 2.626l7.7044 0.76711q2.3882 0.23779 2.626-2.1504z" clip-path="url(#a)" fill="#fff" stroke="#fff"/>
<g clip-path="url(#a)">
<g transform="translate(105.81 551.59) rotate(-84.314) scale(.08 -.08)">
<use xlink:href="#w"/>
</g>
</g>
<path d="m106.58 546.92 0.55347 5.5588q0.23779 2.3882 2.626 2.1504l7.7044-0.76711q2.3882-0.23779 2.1504-2.626l-0.55347-5.5588q-0.23779-2.3882-2.626-2.1504l-7.7044 0.76711q-2.3882 0.23779-2.1504 2.626z" clip-path="url(#a)" fill="#fff" stroke="#fff"/>
<g clip-path="url(#a)">
<g transform="translate(110.63 546.52) rotate(84.314) scale(.08 -.08)">
<use xlink:href="#q"/>
</g>
</g>
<path d="m133.06 624.52v33.808q0 2.4 2.4 2.4h7.7425q2.4 0 2.4-2.4v-33.808q0-2.4-2.4-2.4h-7.7425q-2.4 0-2.4 2.4z" clip-path="url(#a)" fill="#fff" stroke="#fff"/>
<g clip-path="url(#a)">
<g transform="translate(137.12 624.52) rotate(90) scale(.08 -.08)">
<use xlink:href="#l"/>
<use x="44.083984" xlink:href="#e"/>
<use x="105.607422" xlink:href="#h"/>
<use x="144.970703" xlink:href="#k"/>
<use x="242.382812" xlink:href="#g"/>
<use x="270.166016" xlink:href="#j"/>
<use x="333.544922" xlink:href="#f"/>
<use x="394.824219" xlink:href="#i"/>
</g>
</g>
<path d="m186.91 412.84 1.011-5.494q0.43437-2.3604-1.926-2.7947l-7.6146-1.4013q-2.3604-0.43437-2.7947 1.926l-1.011 5.494q-0.43437 2.3604 1.926 2.7947l7.6146 1.4013q2.3604 0.43437 2.7947-1.926z" clip-path="url(#a)" fill="#fff" stroke="#fff"/>
<g clip-path="url(#a)">
<g transform="translate(182.91 412.11) rotate(-79.573) scale(.08 -.08)">
<use xlink:href="#q"/>
</g>
</g>
<path d="m201.33 458.59 0.14276-5.9833q0.057247-2.3993-2.3421-2.4566l-7.7403-0.18468q-2.3993-0.057246-2.4566 2.3421l-0.14276 5.9833q-0.057246 2.3993 2.3421 2.4566l7.7403 0.18468q2.3993 0.057246 2.4566-2.3421z" clip-path="url(#a)" fill="#fff" stroke="#fff"/>
<g clip-path="url(#a)">
<g transform="translate(197.27 458.5) rotate(-88.633) scale(.08 -.08)">
<defs>
<path id="au" d="m9.8125 72.906h13.281l32.328-60.984v60.984h9.5625v-72.906h-13.281l-32.312 60.984v-60.984h-9.5781z"/>
</defs>
<use xlink:href="#au"/>
</g>
</g>
<path d="m212.19 362.19 2.2443 5.1156q0.96422 2.1978 3.162 1.2336l7.0902-3.1106q2.1978-0.96422 1.2336-3.162l-2.2443-5.1156q-0.96422-2.1978-3.162-1.2336l-7.0902 3.1106q-2.1978 0.96422-1.2336 3.162z" clip-path="url(#a)" fill="#fff" stroke="#fff"/>
<g clip-path="url(#a)">
<g transform="translate(215.91 360.56) rotate(66.312) scale(.08 -.08)">
<use xlink:href="#q"/>
</g>
</g>
<path d="m157.62 542.58v12.991q0 2.4 2.4 2.4h8q2.4 0 2.4-2.4v-12.991q0-2.4-2.4-2.4h-8q-2.4 0-2.4 2.4z" clip-path="url(#a)" fill="#fff" stroke="#fff"/>
<g clip-path="url(#a)">
<g transform="translate(161.9 542.58) rotate(90) scale(.08 -.08)">
<defs>
<path id="ap" d="m21 76.422v-100h-8.2969v100z"/>
</defs>
<use xlink:href="#r"/>
<use x="68.408203" xlink:href="#ap"/>
<use x="102.099609" xlink:href="#v"/>
</g>
</g>
<path d="m185.52 624.52v33.808q0 2.4 2.4 2.4h7.7425q2.4 0 2.4-2.4v-33.808q0-2.4-2.4-2.4h-7.7425q-2.4 0-2.4 2.4z" clip-path="url(#a)" fill="#fff" stroke="#fff"/>
<g clip-path="url(#a)">
<g transform="translate(189.58 624.52) rotate(90) scale(.08 -.08)">
<use xlink:href="#l"/>
<use x="44.083984" xlink:href="#e"/>
<use x="105.607422" xlink:href="#h"/>
<use x="144.970703" xlink:href="#k"/>
<use x="242.382812" xlink:href="#g"/>
<use x="270.166016" xlink:href="#j"/>
<use x="333.544922" xlink:href="#f"/>
<use x="394.824219" xlink:href="#i"/>
</g>
</g>
<path d="m233.22 449.36v12.991q0 2.4 2.4 2.4h8q2.4 0 2.4-2.4v-12.991q0-2.4-2.4-2.4h-8q-2.4 0-2.4 2.4z" clip-path="url(#a)" fill="#fff" stroke="#fff"/>
<g clip-path="url(#a)">
<g transform="translate(237.51 449.36) rotate(90) scale(.08 -.08)">
<use xlink:href="#r"/>
<use x="68.408203" xlink:href="#ap"/>
<use x="102.099609" xlink:href="#v"/>
</g>
</g>
<path d="m236.89 552.47 0.82626-4.5265q0.43098-2.361-1.93-2.792l-7.6166-1.3903q-2.361-0.43098-2.792 1.93l-0.82626 4.5265q-0.43098 2.361 1.93 2.792l7.6166 1.3903q2.361 0.43098 2.792-1.93z" clip-path="url(#a)" fill="#fff" stroke="#fff"/>
<g clip-path="url(#a)">
<g transform="translate(232.9 551.74) rotate(-79.655) scale(.08 -.08)">
<use xlink:href="#w"/>
</g>
</g>
<path d="m241.44 547.46 1.0031 5.4954q0.43098 2.361 2.792 1.93l7.6166-1.3903q2.361-0.43098 1.93-2.792l-1.0031-5.4954q-0.43098-2.361-2.792-1.93l-7.6166 1.3904q-2.361 0.43098-1.93 2.792z" clip-path="url(#a)" fill="#fff" stroke="#fff"/>
<g clip-path="url(#a)">
<g transform="translate(245.44 546.73) rotate(79.655) scale(.08 -.08)">
<use xlink:href="#q"/>
</g>
</g>
<path d="m216.38 624.52v33.808q0 2.4 2.4 2.4h7.7425q2.4 0 2.4-2.4v-33.808q0-2.4-2.4-2.4h-7.7425q-2.4 0-2.4 2.4z" clip-path="url(#a)" fill="#fff" stroke="#fff"/>
<g clip-path="url(#a)">
<g transform="translate(220.44 624.52) rotate(90) scale(.08 -.08)">
<use xlink:href="#l"/>
<use x="44.083984" xlink:href="#e"/>
<use x="105.607422" xlink:href="#h"/>
<use x="144.970703" xlink:href="#k"/>
<use x="242.382812" xlink:href="#g"/>
<use x="270.166016" xlink:href="#j"/>
<use x="333.544922" xlink:href="#f"/>
<use x="394.824219" xlink:href="#i"/>
</g>
</g>
<path d="m250.33 624.52v33.808q0 2.4 2.4 2.4h7.7425q2.4 0 2.4-2.4v-33.808q0-2.4-2.4-2.4h-7.7425q-2.4 0-2.4 2.4z" clip-path="url(#a)" fill="#fff" stroke="#fff"/>
<g clip-path="url(#a)">
<g transform="translate(254.39 624.52) rotate(90) scale(.08 -.08)">
<use xlink:href="#l"/>
<use x="44.083984" xlink:href="#e"/>
<use x="105.607422" xlink:href="#h"/>
<use x="144.970703" xlink:href="#k"/>
<use x="242.382812" xlink:href="#g"/>
<use x="270.166016" xlink:href="#j"/>
<use x="333.544922" xlink:href="#f"/>
<use x="394.824219" xlink:href="#i"/>
</g>
</g>
<path d="m157.75 624.52v33.808q0 2.4 2.4 2.4h7.7425q2.4 0 2.4-2.4v-33.808q0-2.4-2.4-2.4h-7.7425q-2.4 0-2.4 2.4z" clip-path="url(#a)" fill="#fff" stroke="#fff"/>
<g clip-path="url(#a)">
<g transform="translate(161.81 624.52) rotate(90) scale(.08 -.08)">
<use xlink:href="#l"/>
<use x="44.083984" xlink:href="#e"/>
<use x="105.607422" xlink:href="#h"/>
<use x="144.970703" xlink:href="#k"/>
<use x="242.382812" xlink:href="#g"/>
<use x="270.166016" xlink:href="#j"/>
<use x="333.544922" xlink:href="#f"/>
<use x="394.824219" xlink:href="#i"/>
</g>
</g>
<path d="m92.942 624.52v33.808q0 2.4 2.4 2.4h7.7425q2.4 0 2.4-2.4v-33.808q0-2.4-2.4-2.4h-7.7425q-2.4 0-2.4 2.4z" clip-path="url(#a)" fill="#fff" stroke="#fff"/>
<g clip-path="url(#a)">
<g transform="translate(97.006 624.52) rotate(90) scale(.08 -.08)">
<use xlink:href="#l"/>
<use x="44.083984" xlink:href="#e"/>
<use x="105.607422" xlink:href="#h"/>
<use x="144.970703" xlink:href="#k"/>
<use x="242.382812" xlink:href="#g"/>
<use x="270.166016" xlink:href="#j"/>
<use x="333.544922" xlink:href="#f"/>
<use x="394.824219" xlink:href="#i"/>
</g>
</g>
<path d="m111.46 624.52v33.808q0 2.4 2.4 2.4h7.7425q2.4 0 2.4-2.4v-33.808q0-2.4-2.4-2.4h-7.7425q-2.4 0-2.4 2.4z" clip-path="url(#a)" fill="#fff" stroke="#fff"/>
<g clip-path="url(#a)">
<g transform="translate(115.52 624.52) rotate(90) scale(.08 -.08)">
<use xlink:href="#l"/>
<use x="44.083984" xlink:href="#e"/>
<use x="105.607422" xlink:href="#h"/>
<use x="144.970703" xlink:href="#k"/>
<use x="242.382812" xlink:href="#g"/>
<use x="270.166016" xlink:href="#j"/>
<use x="333.544922" xlink:href="#f"/>
<use x="394.824219" xlink:href="#i"/>
</g>
</g>
<path d="m55.911 624.52v33.808q0 2.4 2.4 2.4h7.7425q2.4 0 2.4-2.4v-33.808q0-2.4-2.4-2.4h-7.7425q-2.4 0-2.4 2.4z" clip-path="url(#a)" fill="#fff" stroke="#fff"/>
<g clip-path="url(#a)">
<g transform="translate(59.974 624.52) rotate(90) scale(.08 -.08)">
<use xlink:href="#l"/>
<use x="44.083984" xlink:href="#e"/>
<use x="105.607422" xlink:href="#h"/>
<use x="144.970703" xlink:href="#k"/>
<use x="242.382812" xlink:href="#g"/>
<use x="270.166016" xlink:href="#j"/>
<use x="333.544922" xlink:href="#f"/>
<use x="394.824219" xlink:href="#i"/>
</g>
</g>
<path d="m65.168 624.52v33.808q0 2.4 2.4 2.4h7.7425q2.4 0 2.4-2.4v-33.808q0-2.4-2.4-2.4h-7.7425q-2.4 0-2.4 2.4z" clip-path="url(#a)" fill="#fff" stroke="#fff"/>
<g clip-path="url(#a)">
<g transform="translate(69.232 624.52) rotate(90) scale(.08 -.08)">
<use xlink:href="#l"/>
<use x="44.083984" xlink:href="#e"/>
<use x="105.607422" xlink:href="#h"/>
<use x="144.970703" xlink:href="#k"/>
<use x="242.382812" xlink:href="#g"/>
<use x="270.166016" xlink:href="#j"/>
<use x="333.544922" xlink:href="#f"/>
<use x="394.824219" xlink:href="#i"/>
</g>
</g>
<path d="m287.36 624.52v33.808q0 2.4 2.4 2.4h7.7425q2.4 0 2.4-2.4v-33.808q0-2.4-2.4-2.4h-7.7425q-2.4 0-2.4 2.4z" clip-path="url(#a)" fill="#fff" stroke="#fff"/>
<g clip-path="url(#a)">
<g transform="translate(291.42 624.52) rotate(90) scale(.08 -.08)">
<use xlink:href="#l"/>
<use x="44.083984" xlink:href="#e"/>
<use x="105.607422" xlink:href="#h"/>
<use x="144.970703" xlink:href="#k"/>
<use x="242.382812" xlink:href="#g"/>
<use x="270.166016" xlink:href="#j"/>
<use x="333.544922" xlink:href="#f"/>
<use x="394.824219" xlink:href="#i"/>
</g>
</g>
<path d="m370.68 624.52v33.808q0 2.4 2.4 2.4h7.7425q2.4 0 2.4-2.4v-33.808q0-2.4-2.4-2.4h-7.7425q-2.4 0-2.4 2.4z" clip-path="url(#a)" fill="#fff" stroke="#fff"/>
<g clip-path="url(#a)">
<g transform="translate(374.74 624.52) rotate(90) scale(.08 -.08)">
<use xlink:href="#l"/>
<use x="44.083984" xlink:href="#e"/>
<use x="105.607422" xlink:href="#h"/>
<use x="144.970703" xlink:href="#k"/>
<use x="242.382812" xlink:href="#g"/>
<use x="270.166016" xlink:href="#j"/>
<use x="333.544922" xlink:href="#f"/>
<use x="394.824219" xlink:href="#i"/>
</g>
</g>
<path d="m574.35 624.52v33.808q0 2.4 2.4 2.4h7.7425q2.4 0 2.4-2.4v-33.808q0-2.4-2.4-2.4h-7.7425q-2.4 0-2.4 2.4z" clip-path="url(#a)" fill="#fff" stroke="#fff"/>
<g clip-path="url(#a)">
<g transform="translate(578.41 624.52) rotate(90) scale(.08 -.08)">
<use xlink:href="#l"/>
<use x="44.083984" xlink:href="#e"/>
<use x="105.607422" xlink:href="#h"/>
<use x="144.970703" xlink:href="#k"/>
<use x="242.382812" xlink:href="#g"/>
<use x="270.166016" xlink:href="#j"/>
<use x="333.544922" xlink:href="#f"/>
<use x="394.824219" xlink:href="#i"/>
</g>
</g>
<path d="m827.4 624.52v33.808q0 2.4 2.4 2.4h7.7425q2.4 0 2.4-2.4v-33.808q0-2.4-2.4-2.4h-7.7425q-2.4 0-2.4 2.4z" clip-path="url(#a)" fill="#fff" stroke="#fff"/>
<g clip-path="url(#a)">
<g transform="translate(831.46 624.52) rotate(90) scale(.08 -.08)">
<use xlink:href="#l"/>
<use x="44.083984" xlink:href="#e"/>
<use x="105.607422" xlink:href="#h"/>
<use x="144.970703" xlink:href="#k"/>
<use x="242.382812" xlink:href="#g"/>
<use x="270.166016" xlink:href="#j"/>
<use x="333.544922" xlink:href="#f"/>
<use x="394.824219" xlink:href="#i"/>
</g>
</g>
<path d="m1299.5 624.52v33.808q0 2.4 2.4 2.4h7.7425q2.4 0 2.4-2.4v-33.808q0-2.4-2.4-2.4h-7.7425q-2.4 0-2.4 2.4z" clip-path="url(#a)" fill="#fff" stroke="#fff"/>
<g clip-path="url(#a)">
<g transform="translate(1303.6 624.52) rotate(90) scale(.08 -.08)">
<use xlink:href="#l"/>
<use x="44.083984" xlink:href="#e"/>
<use x="105.607422" xlink:href="#h"/>
<use x="144.970703" xlink:href="#k"/>
<use x="242.382812" xlink:href="#g"/>
<use x="270.166016" xlink:href="#j"/>
<use x="333.544922" xlink:href="#f"/>
<use x="394.824219" xlink:href="#i"/>
</g>
</g>
<defs>
<path id="b" d="m0 8.6603c2.2967 0 4.4997-0.9125 6.1237-2.5365 1.624-1.624 2.5365-3.827 2.5365-6.1237s-0.9125-4.4997-2.5365-6.1237c-1.624-1.624-3.827-2.5365-6.1237-2.5365s-4.4997 0.9125-6.1237 2.5365c-1.624 1.624-2.5365 3.827-2.5365 6.1237s0.9125 4.4997 2.5365 6.1237c1.624 1.624 3.827 2.5365 6.1237 2.5365z"/>
</defs>
<g clip-path="url(#a)" fill="#ffffff" stroke="#ffffff">
<use x="62.181818" y="687.272727" xlink:href="#b"/>
<use x="71.439657" y="687.272727" xlink:href="#b"/>
<use x="83.783442" y="687.272727" xlink:href="#b"/>
<use x="99.213174" y="687.272727" xlink:href="#b"/>
<use x="117.728852" y="687.272727" xlink:href="#b"/>
<use x="139.330476" y="687.272727" xlink:href="#b"/>
<use x="164.018046" y="687.272727" xlink:href="#b"/>
<use x="191.791563" y="687.272727" xlink:href="#b"/>
<use x="222.651026" y="687.272727" xlink:href="#b"/>
<use x="256.596436" y="687.272727" xlink:href="#b"/>
<use x="293.627792" y="687.272727" xlink:href="#b"/>
<use x="333.745094" y="687.272727" xlink:href="#b"/>
<use x="376.948342" y="687.272727" xlink:href="#b"/>
<use x="423.237537" y="687.272727" xlink:href="#b"/>
<use x="472.612678" y="687.272727" xlink:href="#b"/>
<use x="525.073765" y="687.272727" xlink:href="#b"/>
<use x="580.620799" y="687.272727" xlink:href="#b"/>
<use x="639.253778" y="687.272727" xlink:href="#b"/>
<use x="700.972705" y="687.272727" xlink:href="#b"/>
<use x="765.777577" y="687.272727" xlink:href="#b"/>
<use x="833.668396" y="687.272727" xlink:href="#b"/>
<use x="904.645161" y="687.272727" xlink:href="#b"/>
<use x="978.707873" y="687.272727" xlink:href="#b"/>
<use x="1055.856531" y="687.272727" xlink:href="#b"/>
<use x="1136.091135" y="687.272727" xlink:href="#b"/>
<use x="1219.411685" y="687.272727" xlink:href="#b"/>
<use x="1305.818182" y="687.272727" xlink:href="#b"/>
<use x="459.530572" y="32.727273" xlink:href="#b"/>
<use x="99.784645" y="127.097945" xlink:href="#b"/>
<use x="819.276498" y="127.097945" xlink:href="#b"/>
<use x="419.931166" y="221.310733" xlink:href="#b"/>
<use x="904.645161" y="595.568197" xlink:href="#b"/>
<use x="1118.861268" y="409.120041" xlink:href="#b"/>
<use x="1017.282202" y="502.587956" xlink:href="#b"/>
<use x="1220.440334" y="502.587956" xlink:href="#b"/>
<use x="1136.091135" y="595.568197" xlink:href="#b"/>
<use x="1219.411685" y="595.568197" xlink:href="#b"/>
<use x="978.707873" y="595.568197" xlink:href="#b"/>
<use x="1055.856531" y="595.568197" xlink:href="#b"/>
<use x="333.745094" y="595.568197" xlink:href="#b"/>
<use x="464.897812" y="409.120041" xlink:href="#b"/>
<use x="691.200541" y="409.120041" xlink:href="#b"/>
<use x="639.253778" y="595.568197" xlink:href="#b"/>
<use x="700.972705" y="595.568197" xlink:href="#b"/>
<use x="733.375141" y="502.587956" xlink:href="#b"/>
<use x="765.777577" y="595.568197" xlink:href="#b"/>
<use x="423.237537" y="595.568197" xlink:href="#b"/>
<use x="472.612678" y="595.568197" xlink:href="#b"/>
<use x="498.843221" y="502.587956" xlink:href="#b"/>
<use x="525.073765" y="595.568197" xlink:href="#b"/>
<use x="66.810738" y="502.587956" xlink:href="#b"/>
<use x="83.783442" y="595.568197" xlink:href="#b"/>
<use x="148.759756" y="221.310733" xlink:href="#b"/>
<use x="108.471013" y="502.587956" xlink:href="#b"/>
<use x="139.330476" y="595.568197" xlink:href="#b"/>
<use x="198.47778" y="315.334016" xlink:href="#b"/>
<use x="164.018046" y="502.587956" xlink:href="#b"/>
<use x="191.791563" y="595.568197" xlink:href="#b"/>
<use x="239.623731" y="409.120041" xlink:href="#b"/>
<use x="239.623731" y="502.587956" xlink:href="#b"/>
<use x="222.651026" y="595.568197" xlink:href="#b"/>
<use x="256.596436" y="595.568197" xlink:href="#b"/>
<use x="164.018046" y="595.568197" xlink:href="#b"/>
<use x="99.213174" y="595.568197" xlink:href="#b"/>
<use x="117.728852" y="595.568197" xlink:href="#b"/>
<use x="62.181818" y="595.568197" xlink:href="#b"/>
<use x="71.439657" y="595.568197" xlink:href="#b"/>
<use x="293.627792" y="595.568197" xlink:href="#b"/>
<use x="376.948342" y="595.568197" xlink:href="#b"/>
<use x="580.620799" y="595.568197" xlink:href="#b"/>
<use x="833.668396" y="595.568197" xlink:href="#b"/>
<use x="1305.818182" y="595.568197" xlink:href="#b"/>
</g>
<g clip-path="url(#a)">
<g transform="translate(53.802 690.03) scale(.1 -.1)">
<defs>
<path id="av" d="m9.8125 72.906h9.8594v-64.609h35.5v-8.2969h-45.359z"/>
<path id="t" d="m44.281 53.078v-8.5q-3.7969 1.9531-7.9062 2.9219-4.0938 0.98438-8.5 0.98438-6.6875 0-10.031-2.0469t-3.3438-6.1562q0-3.125 2.3906-4.9062t9.625-3.3906l3.0781-0.6875q9.5625-2.0469 13.594-5.7812t4.0312-10.422q0-7.625-6.0312-12.078-6.0312-4.4375-16.578-4.4375-4.3906 0-9.1562 0.85938t-10.031 2.5625v9.2812q4.9844-2.5938 9.8125-3.8906 4.8281-1.2812 9.5781-1.2812 6.3438 0 9.75 2.1719 3.4219 2.1719 3.4219 6.125 0 3.6562-2.4688 5.6094-2.4531 1.9531-10.812 3.7656l-3.125 0.73438q-8.3438 1.75-12.062 5.3906-3.7031 3.6406-3.7031 9.9844 0 7.7188 5.4688 11.906 5.4688 4.2031 15.531 4.2031 4.9688 0 9.3594-0.73438 4.4062-0.71875 8.1094-2.1875z"/>
</defs>
<use xlink:href="#av"/>
<use x="53.962891" xlink:href="#e"/>
<use x="115.486328" xlink:href="#t"/>
</g>
</g>
<g clip-path="url(#a)">
<g transform="translate(54.828 690.03) scale(.1 -.1)">
<defs>
<path id="u" d="m48.781 52.594v-8.4062q-3.8125 2.1094-7.6406 3.1562t-7.7344 1.0469q-8.75 0-13.594-5.5469-4.8281-5.5312-4.8281-15.547t4.8281-15.562q4.8438-5.5312 13.594-5.5312 3.9062 0 7.7344 1.0469t7.6406 3.1562v-8.3125q-3.7656-1.75-7.7969-2.625-4.0156-0.89062-8.5625-0.89062-12.359 0-19.641 7.7656-7.2656 7.7656-7.2656 20.953 0 13.375 7.3438 21.031 7.3594 7.6719 20.156 7.6719 4.1406 0 8.0938-0.85938 3.9531-0.84375 7.6719-2.5469z"/>
<path id="ar" d="m18.109 8.2031v-29h-9.0312v75.484h9.0312v-8.2969q2.8438 4.875 7.1562 7.2344 4.3281 2.375 10.328 2.375 9.9688 0 16.188-7.9062 6.2344-7.9062 6.2344-20.797t-6.2344-20.812q-6.2188-7.9062-16.188-7.9062-6 0-10.328 2.375-4.3125 2.375-7.1562 7.25zm30.578 19.094q0 9.9062-4.0781 15.547t-11.203 5.6406q-7.1406 0-11.219-5.6406t-4.0781-15.547 4.0781-15.547 11.219-5.6406q7.125 0 11.203 5.6406t4.0781 15.547z"/>
<path id="s" d="m30.609 48.391q-7.2188 0-11.422-5.6406t-4.2031-15.453 4.1719-15.453q4.1875-5.6406 11.453-5.6406 7.1875 0 11.375 5.6562 4.2031 5.6719 4.2031 15.438 0 9.7188-4.2031 15.406-4.1875 5.6875-11.375 5.6875zm0 7.6094q11.719 0 18.406-7.625 6.7031-7.6094 6.7031-21.078 0-13.422-6.7031-21.078-6.6875-7.6406-18.406-7.6406-11.766 0-18.438 7.6406-6.6562 7.6562-6.6562 21.078 0 13.469 6.6562 21.078 6.6719 7.625 18.438 7.625z"/>
<path id="p" d="m18.312 70.219v-15.531h18.5v-6.9844h-18.5v-29.688q0-6.6875 1.8281-8.5938t7.4531-1.9062h9.2188v-7.5156h-9.2188q-10.406 0-14.359 3.875-3.9531 3.8906-3.9531 14.141v29.688h-6.5938v6.9844h6.5938v15.531z"/>
</defs>
<use xlink:href="#u"/>
<use x="54.980469" xlink:href="#f"/>
<use x="116.259766" xlink:href="#ar"/>
<use x="179.736328" xlink:href="#s"/>
<use x="240.917969" xlink:href="#p"/>
<use x="280.126953" xlink:href="#t"/>
</g>
</g>
<g clip-path="url(#a)">
<g transform="translate(53.637 690.03) scale(.1 -.1)">
<defs>
<path id="aq" d="m2.9844 54.688h9.5156l17.094-45.891 17.094 45.891h9.5156l-20.516-54.688h-12.203z"/>
</defs>
<use xlink:href="#aq"/>
<use x="59.179688" xlink:href="#s"/>
<use x="120.361328" xlink:href="#k"/>
<use x="217.773438" xlink:href="#g"/>
<use x="245.556641" xlink:href="#t"/>
<use x="297.65625" xlink:href="#t"/>
<use x="349.755859" xlink:href="#f"/>
<use x="411.035156" xlink:href="#g"/>
<use x="438.818359" xlink:href="#e"/>
<use x="500.341797" xlink:href="#j"/>
<use x="563.720703" xlink:href="#p"/>
</g>
</g>
<g clip-path="url(#a)">
<g transform="translate(92.876 690.03) scale(.1 -.1)">
<defs>
<path id="ae" d="m8.5 21.578v33.109h8.9844v-32.766q0-7.7656 3.0156-11.656 3.0312-3.875 9.0938-3.875 7.2656 0 11.484 4.6406 4.2344 4.6406 4.2344 12.656v31h8.9844v-54.688h-8.9844v8.4062q-3.2656-4.9844-7.5938-7.4062-4.3125-2.4219-10.031-2.4219-9.4219 0-14.312 5.8594-4.875 5.8594-4.875 17.141z"/>
</defs>
<use xlink:href="#ae"/>
<use x="63.378906" xlink:href="#j"/>
</g>
</g>
<g clip-path="url(#a)">
<g transform="translate(100.59 690.03) scale(.1 -.1)">
<use xlink:href="#p"/>
<use x="39.208984" xlink:href="#s"/>
<use x="100.390625" xlink:href="#h"/>
<use x="139.753906" xlink:href="#h"/>
<use x="178.617188" xlink:href="#e"/>
<use x="240.140625" xlink:href="#j"/>
<use x="303.519531" xlink:href="#p"/>
</g>
</g>
<g clip-path="url(#a)">
<g transform="translate(133.08 690.03) scale(.1 -.1)">
<defs>
<path id="ai" d="m45.406 46.391v29.594h8.9844v-75.984h-8.9844v8.2031q-2.8281-4.875-7.1562-7.25-4.3125-2.375-10.375-2.375-9.9062 0-16.141 7.9062-6.2188 7.9219-6.2188 20.812t6.2188 20.797q6.2344 7.9062 16.141 7.9062 6.0625 0 10.375-2.375 4.3281-2.3594 7.1562-7.2344zm-30.609-19.094q0-9.9062 4.0781-15.547t11.203-5.6406 11.219 5.6406q4.1094 5.6406 4.1094 15.547t-4.1094 15.547q-4.0938 5.6406-11.219 5.6406t-11.203-5.6406-4.0781-15.547z"/>
</defs>
<use xlink:href="#ai"/>
<use x="63.476562" xlink:href="#e"/>
</g>
</g>
<g clip-path="url(#a)">
<g transform="translate(142.03 690.03) scale(.1 -.1)">
<use xlink:href="#k"/>
<use x="97.412109" xlink:href="#f"/>
<use x="158.691406" xlink:href="#p"/>
<use x="197.900391" xlink:href="#e"/>
<use x="259.423828" xlink:href="#i"/>
<use x="287.207031" xlink:href="#s"/>
<use x="348.388672" xlink:href="#p"/>
<use x="387.597656" xlink:href="#t"/>
</g>
</g>
<g clip-path="url(#a)">
<g transform="translate(186.75 690.03) scale(.1 -.1)">
<use xlink:href="#e"/>
<use x="61.523438" xlink:href="#p"/>
</g>
</g>
<g clip-path="url(#a)">
<g transform="translate(218.1 690.03) scale(.1 -.1)">
<defs>
<path id="an" d="m17.922 72.906v-27.109h-8.2969v27.109z"/>
</defs>
<use xlink:href="#ai"/>
<use x="63.476562" xlink:href="#an"/>
</g>
</g>
<g clip-path="url(#a)">
<g transform="translate(236.75 690.03) scale(.1 -.1)">
<defs>
<path id="as" d="m37.109 75.984v-7.4844h-8.5938q-4.8281 0-6.7188-1.9531-1.875-1.9531-1.875-7.0312v-4.8281h14.797v-6.9844h-14.797v-47.703h-9.0312v47.703h-8.5938v6.9844h8.5938v3.8125q0 9.125 4.25 13.297 4.25 4.1875 13.469 4.1875z"/>
</defs>
<use xlink:href="#s"/>
<use x="61.181641" xlink:href="#as"/>
<use x="96.386719" xlink:href="#as"/>
<use x="131.591797" xlink:href="#g"/>
<use x="159.375" xlink:href="#u"/>
<use x="214.355469" xlink:href="#g"/>
<use x="242.138672" xlink:href="#e"/>
<use x="303.662109" xlink:href="#h"/>
<use x="344.775391" xlink:href="#t"/>
</g>
</g>
<g clip-path="url(#a)">
<g transform="translate(292.04 690.03) scale(.1 -.1)">
<defs>
<path id="d" d="m10.688 12.406h10.312v-12.406h-10.312z"/>
</defs>
<use xlink:href="#d"/>
</g>
</g>
<g clip-path="url(#a)">
<g transform="translate(314.93 690.03) scale(.1 -.1)">
<defs>
<path id="ah" d="m54.891 33.016v-33.016h-8.9844v32.719q0 7.7656-3.0312 11.609-3.0312 3.8594-9.0781 3.8594-7.2812 0-11.484-4.6406-4.2031-4.625-4.2031-12.641v-30.906h-9.0312v75.984h9.0312v-29.797q3.2344 4.9375 7.5938 7.375 4.375 2.4375 10.094 2.4375 9.4219 0 14.25-5.8281 4.8438-5.8281 4.8438-17.156z"/>
</defs>
<use xlink:href="#q"/>
<use x="69.824219" xlink:href="#ah"/>
<use x="133.203125" xlink:href="#f"/>
<use x="194.482422" xlink:href="#u"/>
<use x="249.462891" xlink:href="#ae"/>
<use x="312.841797" xlink:href="#j"/>
</g>
</g>
<g clip-path="url(#a)">
<g transform="translate(375.36 690.03) scale(.1 -.1)">
<defs>
<path id="ag" d="m11.719 12.406h10.297v-8.4062l-8-15.625h-6.2969l4 15.625z"/>
</defs>
<use xlink:href="#ag"/>
</g>
</g>
<g clip-path="url(#a)">
<g transform="translate(418.78 690.03) scale(.1 -.1)">
<use xlink:href="#i"/>
<use x="27.783203" xlink:href="#f"/>
</g>
</g>
<g clip-path="url(#a)">
<g transform="translate(453.34 690.03) scale(.1 -.1)">
<use xlink:href="#ar"/>
<use x="63.476562" xlink:href="#s"/>
<use x="124.658203" xlink:href="#g"/>
<use x="152.441406" xlink:href="#p"/>
<use x="191.650391" xlink:href="#h"/>
<use x="232.763672" xlink:href="#g"/>
<use x="260.546875" xlink:href="#j"/>
<use x="323.925781" xlink:href="#e"/>
</g>
</g>
<g clip-path="url(#a)">
<g transform="translate(501.15 690.03) scale(.1 -.1)">
<use xlink:href="#ah"/>
<use x="63.378906" xlink:href="#f"/>
<use x="124.658203" xlink:href="#i"/>
<use x="152.441406" xlink:href="#e"/>
<use x="213.964844" xlink:href="#p"/>
<use x="253.173828" xlink:href="#f"/>
<use x="314.453125" xlink:href="#j"/>
<use x="377.832031" xlink:href="#p"/>
<use x="417.041016" xlink:href="#e"/>
</g>
</g>
<g clip-path="url(#a)">
<g transform="translate(579.03 690.03) scale(.1 -.1)">
<use xlink:href="#ag"/>
</g>
</g>
<g clip-path="url(#a)">
<g transform="translate(636.49 690.03) scale(.1 -.1)">
<use xlink:href="#i"/>
<use x="27.783203" xlink:href="#an"/>
</g>
</g>
<g clip-path="url(#a)">
<g transform="translate(693.08 690.03) scale(.1 -.1)">
<defs>
<path id="aw" d="m87.984 32.234q-0.09375 7.4219-4.0938 11.781-4 4.375-10.703 4.375-7.4688 0-11.984-4.25t-5.2031-11.969zm9.0312-2.6406v-4.3906h-41.297q0.57812-9.2812 5.5625-14.141t13.922-4.8594q5.1719 0 10.047 1.2656 4.8906 1.2656 9.6719 3.8125v-8.5q-4.875-2.0469-9.9531-3.125t-10.266-1.0781q-7.8125 0-13.719 2.6875t-9.8594 8.0156q-3.4688-5.375-8.5781-8.0469-5.0938-2.6562-11.938-2.6562-11.766 0-18.438 7.6406-6.6562 7.6562-6.6562 21.078 0 13.469 6.6562 21.078 6.6719 7.625 18.438 7.625 6.8438 0 11.984-2.7031 5.1562-2.7031 8.3906-7.9844 3.7969 5.2188 9.4531 7.9531 5.6719 2.7344 12.656 2.7344 11.031 0 17.469-7.1094 6.4531-7.0938 6.4531-19.297zm-66.406 18.797q-7.2188 0-11.422-5.6406t-4.2031-15.453 4.1719-15.453q4.1875-5.6406 11.453-5.6406 7.1875 0 11.375 5.6562 4.2031 5.6719 4.2031 15.438 0 9.7188-4.2031 15.406-4.1875 5.6875-11.375 5.6875z"/>
</defs>
<use xlink:href="#aw"/>
<use x="102.294922" xlink:href="#g"/>
<use x="130.078125" xlink:href="#i"/>
</g>
</g>
<g clip-path="url(#a)">
<g transform="translate(748.01 690.03) scale(.1 -.1)">
<defs>
<path id="aj" d="m48.688 27.297q0 9.9062-4.0781 15.547t-11.203 5.6406q-7.1406 0-11.219-5.6406t-4.0781-15.547 4.0781-15.547 11.219-5.6406q7.125 0 11.203 5.6406t4.0781 15.547zm-30.578 19.094q2.8438 4.875 7.1562 7.2344 4.3281 2.375 10.328 2.375 9.9688 0 16.188-7.9062 6.2344-7.9062 6.2344-20.797t-6.2344-20.812q-6.2188-7.9062-16.188-7.9062-6 0-10.328 2.375-4.3125 2.375-7.1562 7.25v-8.2031h-9.0312v75.984h9.0312z"/>
</defs>
<use xlink:href="#p"/>
<use x="39.208984" xlink:href="#h"/>
<use x="78.072266" xlink:href="#s"/>
<use x="139.253906" xlink:href="#ae"/>
<use x="202.632812" xlink:href="#aj"/>
<use x="266.109375" xlink:href="#i"/>
<use x="293.892578" xlink:href="#e"/>
</g>
</g>
<g clip-path="url(#a)">
<g transform="translate(832.08 690.03) scale(.1 -.1)">
<use xlink:href="#ag"/>
</g>
</g>
<g clip-path="url(#a)">
<g transform="translate(881.3 690.03) scale(.1 -.1)">
<use xlink:href="#s"/>
<use x="61.181641" xlink:href="#aj"/>
<use x="124.658203" xlink:href="#t"/>
<use x="176.757812" xlink:href="#e"/>
<use x="238.28125" xlink:href="#h"/>
<use x="279.394531" xlink:href="#aq"/>
<use x="338.574219" xlink:href="#f"/>
<use x="399.853516" xlink:href="#g"/>
<use x="427.636719" xlink:href="#p"/>
</g>
</g>
<g clip-path="url(#a)">
<g transform="translate(974.25 690.03) scale(.1 -.1)">
<use xlink:href="#i"/>
<use x="27.783203" xlink:href="#f"/>
</g>
</g>
<g clip-path="url(#a)">
<g transform="translate(1037 690.03) scale(.1 -.1)">
<use xlink:href="#k"/>
<use x="97.412109" xlink:href="#f"/>
<use x="158.691406" xlink:href="#h"/>
<use x="197.554688" xlink:href="#u"/>
<use x="252.535156" xlink:href="#ah"/>
<use x="315.914062" xlink:href="#e"/>
</g>
</g>
<g clip-path="url(#a)">
<g transform="translate(1129.7 690.03) scale(.1 -.1)">
<use xlink:href="#ai"/>
<use x="63.476562" xlink:href="#ae"/>
</g>
</g>
<g clip-path="url(#a)">
<g transform="translate(1202.7 690.03) scale(.1 -.1)">
<defs>
<path id="ao" d="m56.203 29.594v-4.3906h-41.312q0.59375-9.2812 5.5938-14.141t13.938-4.8594q5.1719 0 10.031 1.2656t9.6562 3.8125v-8.5q-4.8438-2.0469-9.9219-3.125t-10.297-1.0781q-13.094 0-20.734 7.6094-7.6406 7.625-7.6406 20.625 0 13.422 7.25 21.297 7.25 7.8906 19.562 7.8906 11.031 0 17.453-7.1094 6.4219-7.0938 6.4219-19.297zm-8.9844 2.6406q-0.09375 7.3594-4.125 11.75-4.0312 4.4062-10.672 4.4062-7.5156 0-12.031-4.25t-5.2031-11.969zm-8.6875 47.75h9.7188l-15.906-18.359h-7.4844z"/>
</defs>
<use xlink:href="#u"/>
<use x="54.980469" xlink:href="#ao"/>
<use x="116.503906" xlink:href="#p"/>
<use x="155.712891" xlink:href="#f"/>
<use x="216.992188" xlink:href="#u"/>
<use x="271.972656" xlink:href="#ao"/>
</g>
</g>
<g clip-path="url(#a)">
<g transform="translate(1304.2 690.03) scale(.1 -.1)">
<use xlink:href="#d"/>
</g>
</g>
<g clip-path="url(#a)">
<g transform="translate(451.58 35.487) scale(.1 -.1)">
<defs>
<path id="c" d="m12.406 8.2969h16.109v55.625l-17.531-3.5156v8.9844l17.438 3.5156h9.8594v-64.609h16.109v-8.2969h-41.984z"/>
</defs>
<use xlink:href="#c"/>
<use x="63.623047" xlink:href="#d"/>
<use x="95.410156" xlink:href="#c"/>
</g>
</g>
<g clip-path="url(#a)">
<g transform="translate(91.833 129.86) scale(.1 -.1)">
<defs>
<path id="o" d="m19.188 8.2969h34.422v-8.2969h-46.281v8.2969q5.6094 5.8125 15.297 15.594 9.7031 9.7969 12.188 12.641 4.7344 5.3125 6.6094 9 1.8906 3.6875 1.8906 7.25 0 5.8125-4.0781 9.4688-4.0781 3.6719-10.625 3.6719-4.6406 0-9.7969-1.6094-5.1406-1.6094-11-4.8906v9.9688q5.9531 2.3906 11.125 3.6094 5.1875 1.2188 9.4844 1.2188 11.328 0 18.062-5.6719 6.7344-5.6562 6.7344-15.125 0-4.5-1.6875-8.5312-1.6719-4.0156-6.125-9.4844-1.2188-1.4219-7.7656-8.1875-6.5312-6.7656-18.453-18.922z"/>
</defs>
<use xlink:href="#c"/>
<use x="63.623047" xlink:href="#d"/>
<use x="95.410156" xlink:href="#o"/>
</g>
</g>
<g clip-path="url(#a)">
<g transform="translate(811.32 129.86) scale(.1 -.1)">
<defs>
<path id="m" d="m40.578 39.312q7.0781-1.5156 11.047-6.3125 3.9844-4.7812 3.9844-11.812 0-10.781-7.4219-16.703-7.4219-5.9062-21.094-5.9062-4.5781 0-9.4375 0.90625t-10.031 2.7188v9.5156q4.0938-2.3906 8.9688-3.6094 4.8906-1.2188 10.219-1.2188 9.2656 0 14.125 3.6562t4.8594 10.641q0 6.4531-4.5156 10.078-4.5156 3.6406-12.562 3.6406h-8.5v8.1094h8.8906q7.2656 0 11.125 2.9062t3.8594 8.375q0 5.6094-3.9844 8.6094-3.9688 3.0156-11.391 3.0156-4.0625 0-8.7031-0.89062-4.6406-0.875-10.203-2.7188v8.7812q5.625 1.5625 10.531 2.3438t9.25 0.78125q11.234 0 17.766-5.1094 6.5469-5.0938 6.5469-13.781 0-6.0625-3.4688-10.234t-9.8594-5.7812z"/>
</defs>
<use xlink:href="#c"/>
<use x="63.623047" xlink:href="#d"/>
<use x="95.410156" xlink:href="#m"/>
</g>
</g>
<g clip-path="url(#a)">
<g transform="translate(411.98 224.07) scale(.1 -.1)">
<defs>
<path id="x" d="m10.797 72.906h38.719v-8.3125h-29.688v-17.859q2.1406 0.73438 4.2812 1.0938 2.1562 0.35938 4.3125 0.35938 12.203 0 19.328-6.6875 7.1406-6.6875 7.1406-18.109 0-11.766-7.3281-18.297-7.3281-6.5156-20.656-6.5156-4.5938 0-9.3594 0.78125-4.75 0.78125-9.8281 2.3438v9.9219q4.3906-2.3906 9.0781-3.5625t9.9062-1.1719q8.4531 0 13.375 4.4375 4.9375 4.4375 4.9375 12.062 0 7.6094-4.9375 12.047-4.9219 4.4531-13.375 4.4531-3.9531 0-7.8906-0.875-3.9219-0.875-8.0156-2.7344z"/>
</defs>
<use xlink:href="#c"/>
<use x="63.623047" xlink:href="#d"/>
<use x="95.410156" xlink:href="#x"/>
</g>
</g>
<g clip-path="url(#a)">
<g transform="translate(896.69 598.33) scale(.1 -.1)">
<defs>
<path id="aa" d="m33.016 40.375q-6.6406 0-10.531-4.5469-3.875-4.5312-3.875-12.438 0-7.8594 3.875-12.438 3.8906-4.5625 10.531-4.5625t10.516 4.5625q3.875 4.5781 3.875 12.438 0 7.9062-3.875 12.438-3.875 4.5469-10.516 4.5469zm19.578 30.922v-8.9844q-3.7188 1.75-7.5 2.6719-3.7812 0.9375-7.5 0.9375-9.7656 0-14.922-6.5938-5.1406-6.5938-5.875-19.922 2.875 4.25 7.2188 6.5156 4.3594 2.2656 9.5781 2.2656 10.984 0 17.359-6.6719 6.375-6.6562 6.375-18.125 0-11.234-6.6406-18.031-6.6406-6.7812-17.672-6.7812-12.656 0-19.344 9.6875-6.6875 9.7031-6.6875 28.109 0 17.281 8.2031 27.562t22.016 10.281q3.7188 0 7.5-0.73438t7.8906-2.1875z"/>
</defs>
<use xlink:href="#c"/>
<use x="63.623047" xlink:href="#d"/>
<use x="95.410156" xlink:href="#aa"/>
</g>
</g>
<g clip-path="url(#a)">
<g transform="translate(1110.9 411.88) scale(.1 -.1)">
<defs>
<path id="z" d="m8.2031 72.906h46.875v-4.2031l-26.469-68.703h-10.297l24.906 64.594h-35.016z"/>
</defs>
<use xlink:href="#c"/>
<use x="63.623047" xlink:href="#d"/>
<use x="95.410156" xlink:href="#z"/>
</g>
</g>
<g clip-path="url(#a)">
<g transform="translate(1009.3 505.35) scale(.1 -.1)">
<defs>
<path id="ac" d="m10.984 1.5156v8.9844q3.7188-1.7656 7.5156-2.6875 3.8125-0.92188 7.4844-0.92188 9.7656 0 14.906 6.5625 5.1562 6.5625 5.8906 19.953-2.8281-4.2031-7.1875-6.4531-4.3438-2.25-9.6094-2.25-10.938 0-17.312 6.6094-6.375 6.625-6.375 18.109 0 11.219 6.6406 18 6.6406 6.7969 17.672 6.7969 12.656 0 19.312-9.7031 6.6719-9.6875 6.6719-28.141 0-17.234-8.1875-27.516-8.1719-10.281-21.984-10.281-3.7188 0-7.5312 0.73438-3.7969 0.73438-7.9062 2.2031zm19.625 30.906q6.6406 0 10.516 4.5312 3.8906 4.5469 3.8906 12.469 0 7.8594-3.8906 12.422-3.875 4.5625-10.516 4.5625t-10.516-4.5625-3.875-12.422q0-7.9219 3.875-12.469 3.875-4.5312 10.516-4.5312z"/>
</defs>
<use xlink:href="#c"/>
<use x="63.623047" xlink:href="#d"/>
<use x="95.410156" xlink:href="#ac"/>
</g>
</g>
<g clip-path="url(#a)">
<g transform="translate(1209.3 505.35) scale(.1 -.1)">
<defs>
<path id="ad" d="m31.781 66.406q-7.6094 0-11.453-7.5-3.8281-7.4844-3.8281-22.531 0-14.984 3.8281-22.484 3.8438-7.5 11.453-7.5 7.6719 0 11.5 7.5 3.8438 7.5 3.8438 22.484 0 15.047-3.8438 22.531-3.8281 7.5-11.5 7.5zm0 7.8125q12.266 0 18.734-9.7031 6.4688-9.6875 6.4688-28.141 0-18.406-6.4688-28.109-6.4688-9.6875-18.734-9.6875-12.25 0-18.719 9.6875-6.4688 9.7031-6.4688 28.109 0 18.453 6.4688 28.141 6.4688 9.7031 18.719 9.7031z"/>
</defs>
<use xlink:href="#c"/>
<use x="63.623047" xlink:href="#d"/>
<use x="95.410156" xlink:href="#c"/>
<use x="159.033203" xlink:href="#ad"/>
</g>
</g>
<g clip-path="url(#a)">
<g transform="translate(1125 598.33) scale(.1 -.1)">
<use xlink:href="#c"/>
<use x="63.623047" xlink:href="#d"/>
<use x="95.410156" xlink:href="#c"/>
<use x="159.033203" xlink:href="#c"/>
</g>
</g>
<g clip-path="url(#a)">
<g transform="translate(1208.3 598.33) scale(.1 -.1)">
<use xlink:href="#c"/>
<use x="63.623047" xlink:href="#d"/>
<use x="95.410156" xlink:href="#c"/>
<use x="159.033203" xlink:href="#o"/>
</g>
</g>
<g clip-path="url(#a)">
<g transform="translate(967.58 598.33) scale(.1 -.1)">
<use xlink:href="#c"/>
<use x="63.623047" xlink:href="#d"/>
<use x="95.410156" xlink:href="#c"/>
<use x="159.033203" xlink:href="#m"/>
</g>
</g>
<g clip-path="url(#a)">
<g transform="translate(1044.7 598.33) scale(.1 -.1)">
<defs>
<path id="n" d="m37.797 64.312-24.906-38.922h24.906zm-2.5938 8.5938h12.406v-47.516h10.406v-8.2031h-10.406v-17.188h-9.8125v17.188h-32.906v9.5156z"/>
</defs>
<use xlink:href="#c"/>
<use x="63.623047" xlink:href="#d"/>
<use x="95.410156" xlink:href="#c"/>
<use x="159.033203" xlink:href="#n"/>
</g>
</g>
<g clip-path="url(#a)">
<g transform="translate(322.61 598.33) scale(.1 -.1)">
<use xlink:href="#c"/>
<use x="63.623047" xlink:href="#d"/>
<use x="95.410156" xlink:href="#c"/>
<use x="159.033203" xlink:href="#x"/>
</g>
</g>
<g clip-path="url(#a)">
<g transform="translate(453.76 411.88) scale(.1 -.1)">
<use xlink:href="#c"/>
<use x="63.623047" xlink:href="#d"/>
<use x="95.410156" xlink:href="#c"/>
<use x="159.033203" xlink:href="#aa"/>
</g>
</g>
<g clip-path="url(#a)">
<g transform="translate(680.07 411.88) scale(.1 -.1)">
<use xlink:href="#c"/>
<use x="63.623047" xlink:href="#d"/>
<use x="95.410156" xlink:href="#c"/>
<use x="159.033203" xlink:href="#z"/>
</g>
</g>
<g clip-path="url(#a)">
<g transform="translate(628.12 598.33) scale(.1 -.1)">
<use xlink:href="#c"/>
<use x="63.623047" xlink:href="#d"/>
<use x="95.410156" xlink:href="#o"/>
<use x="159.033203" xlink:href="#c"/>
</g>
</g>
<g clip-path="url(#a)">
<g transform="translate(689.84 598.33) scale(.1 -.1)">
<use xlink:href="#c"/>
<use x="63.623047" xlink:href="#d"/>
<use x="95.410156" xlink:href="#o"/>
<use x="159.033203" xlink:href="#o"/>
</g>
</g>
<g clip-path="url(#a)">
<g transform="translate(722.24 505.35) scale(.1 -.1)">
<use xlink:href="#c"/>
<use x="63.623047" xlink:href="#d"/>
<use x="95.410156" xlink:href="#o"/>
<use x="159.033203" xlink:href="#m"/>
</g>
</g>
<g clip-path="url(#a)">
<g transform="translate(754.64 598.33) scale(.1 -.1)">
<use xlink:href="#c"/>
<use x="63.623047" xlink:href="#d"/>
<use x="95.410156" xlink:href="#o"/>
<use x="159.033203" xlink:href="#n"/>
</g>
</g>
<g clip-path="url(#a)">
<g transform="translate(412.1 598.33) scale(.1 -.1)">
<use xlink:href="#c"/>
<use x="63.623047" xlink:href="#d"/>
<use x="95.410156" xlink:href="#o"/>
<use x="159.033203" xlink:href="#x"/>
</g>
</g>
<g clip-path="url(#a)">
<g transform="translate(461.48 598.33) scale(.1 -.1)">
<use xlink:href="#c"/>
<use x="63.623047" xlink:href="#d"/>
<use x="95.410156" xlink:href="#o"/>
<use x="159.033203" xlink:href="#aa"/>
</g>
</g>
<g clip-path="url(#a)">
<g transform="translate(487.71 505.35) scale(.1 -.1)">
<use xlink:href="#c"/>
<use x="63.623047" xlink:href="#d"/>
<use x="95.410156" xlink:href="#o"/>
<use x="159.033203" xlink:href="#z"/>
</g>
</g>
<g clip-path="url(#a)">
<g transform="translate(513.94 598.33) scale(.1 -.1)">
<defs>
<path id="af" d="m31.781 34.625q-7.0312 0-11.062-3.7656-4.0156-3.7656-4.0156-10.344 0-6.5938 4.0156-10.359 4.0312-3.7656 11.062-3.7656t11.078 3.7812q4.0625 3.7969 4.0625 10.344 0 6.5781-4.0312 10.344-4.0156 3.7656-11.109 3.7656zm-9.8594 4.1875q-6.3438 1.5625-9.8906 5.9062-3.5312 4.3594-3.5312 10.609 0 8.7344 6.2188 13.812 6.2344 5.0781 17.062 5.0781 10.891 0 17.094-5.0781t6.2031-13.812q0-6.25-3.5469-10.609-3.5312-4.3438-9.8281-5.9062 7.125-1.6562 11.094-6.5 3.9844-4.8281 3.9844-11.797 0-10.609-6.4688-16.281-6.4688-5.6562-18.531-5.6562-12.047 0-18.531 5.6562-6.4688 5.6719-6.4688 16.281 0 6.9688 4 11.797 4.0156 4.8438 11.141 6.5zm-3.6094 15.578q0-5.6562 3.5312-8.8281 3.5469-3.1719 9.9375-3.1719 6.3594 0 9.9375 3.1719 3.5938 3.1719 3.5938 8.8281 0 5.6719-3.5938 8.8438-3.5781 3.1719-9.9375 3.1719-6.3906 0-9.9375-3.1719-3.5312-3.1719-3.5312-8.8438z"/>
</defs>
<use xlink:href="#c"/>
<use x="63.623047" xlink:href="#d"/>
<use x="95.410156" xlink:href="#o"/>
<use x="159.033203" xlink:href="#af"/>
</g>
</g>
<g clip-path="url(#a)">
<g transform="translate(55.678 505.35) scale(.1 -.1)">
<use xlink:href="#c"/>
<use x="63.623047" xlink:href="#d"/>
<use x="95.410156" xlink:href="#o"/>
<use x="159.033203" xlink:href="#ac"/>
</g>
</g>
<g clip-path="url(#a)">
<g transform="translate(72.651 598.33) scale(.1 -.1)">
<use xlink:href="#c"/>
<use x="63.623047" xlink:href="#d"/>
<use x="95.410156" xlink:href="#m"/>
<use x="159.033203" xlink:href="#ad"/>
</g>
</g>
<g clip-path="url(#a)">
<g transform="translate(137.63 224.07) scale(.1 -.1)">
<use xlink:href="#c"/>
<use x="63.623047" xlink:href="#d"/>
<use x="95.410156" xlink:href="#m"/>
<use x="159.033203" xlink:href="#c"/>
</g>
</g>
<g clip-path="url(#a)">
<g transform="translate(97.338 505.35) scale(.1 -.1)">
<use xlink:href="#c"/>
<use x="63.623047" xlink:href="#d"/>
<use x="95.410156" xlink:href="#m"/>
<use x="159.033203" xlink:href="#o"/>
</g>
</g>
<g clip-path="url(#a)">
<g transform="translate(128.2 598.33) scale(.1 -.1)">
<use xlink:href="#c"/>
<use x="63.623047" xlink:href="#d"/>
<use x="95.410156" xlink:href="#m"/>
<use x="159.033203" xlink:href="#m"/>
</g>
</g>
<g clip-path="url(#a)">
<g transform="translate(187.34 318.09) scale(.1 -.1)">
<use xlink:href="#c"/>
<use x="63.623047" xlink:href="#d"/>
<use x="95.410156" xlink:href="#m"/>
<use x="159.033203" xlink:href="#n"/>
</g>
</g>
<g clip-path="url(#a)">
<g transform="translate(152.89 505.35) scale(.1 -.1)">
<use xlink:href="#c"/>
<use x="63.623047" xlink:href="#d"/>
<use x="95.410156" xlink:href="#m"/>
<use x="159.033203" xlink:href="#x"/>
</g>
</g>
<g clip-path="url(#a)">
<g transform="translate(180.66 598.33) scale(.1 -.1)">
<use xlink:href="#c"/>
<use x="63.623047" xlink:href="#d"/>
<use x="95.410156" xlink:href="#m"/>
<use x="159.033203" xlink:href="#aa"/>
</g>
</g>
<g clip-path="url(#a)">
<g transform="translate(228.49 411.88) scale(.1 -.1)">
<use xlink:href="#c"/>
<use x="63.623047" xlink:href="#d"/>
<use x="95.410156" xlink:href="#m"/>
<use x="159.033203" xlink:href="#z"/>
</g>
</g>
<g clip-path="url(#a)">
<g transform="translate(228.49 505.35) scale(.1 -.1)">
<use xlink:href="#c"/>
<use x="63.623047" xlink:href="#d"/>
<use x="95.410156" xlink:href="#m"/>
<use x="159.033203" xlink:href="#af"/>
</g>
</g>
<g clip-path="url(#a)">
<g transform="translate(211.52 598.33) scale(.1 -.1)">
<use xlink:href="#c"/>
<use x="63.623047" xlink:href="#d"/>
<use x="95.410156" xlink:href="#m"/>
<use x="159.033203" xlink:href="#ac"/>
</g>
</g>
<g clip-path="url(#a)">
<g transform="translate(245.46 598.33) scale(.1 -.1)">
<use xlink:href="#c"/>
<use x="63.623047" xlink:href="#d"/>
<use x="95.410156" xlink:href="#n"/>
<use x="159.033203" xlink:href="#ad"/>
</g>
</g>
<g clip-path="url(#a)">
<g transform="translate(152.89 598.33) scale(.1 -.1)">
<use xlink:href="#c"/>
<use x="63.623047" xlink:href="#d"/>
<use x="95.410156" xlink:href="#n"/>
<use x="159.033203" xlink:href="#c"/>
</g>
</g>
<g clip-path="url(#a)">
<g transform="translate(88.08 598.33) scale(.1 -.1)">
<use xlink:href="#c"/>
<use x="63.623047" xlink:href="#d"/>
<use x="95.410156" xlink:href="#n"/>
<use x="159.033203" xlink:href="#o"/>
</g>
</g>
<g clip-path="url(#a)">
<g transform="translate(106.6 598.33) scale(.1 -.1)">
<use xlink:href="#c"/>
<use x="63.623047" xlink:href="#d"/>
<use x="95.410156" xlink:href="#n"/>
<use x="159.033203" xlink:href="#m"/>
</g>
</g>
<g clip-path="url(#a)">
<g transform="translate(51.049 598.33) scale(.1 -.1)">
<use xlink:href="#c"/>
<use x="63.623047" xlink:href="#d"/>
<use x="95.410156" xlink:href="#n"/>
<use x="159.033203" xlink:href="#n"/>
</g>
</g>
<g clip-path="url(#a)">
<g transform="translate(60.307 598.33) scale(.1 -.1)">
<use xlink:href="#c"/>
<use x="63.623047" xlink:href="#d"/>
<use x="95.410156" xlink:href="#n"/>
<use x="159.033203" xlink:href="#x"/>
</g>
</g>
<g clip-path="url(#a)">
<g transform="translate(282.49 598.33) scale(.1 -.1)">
<use xlink:href="#c"/>
<use x="63.623047" xlink:href="#d"/>
<use x="95.410156" xlink:href="#n"/>
<use x="159.033203" xlink:href="#aa"/>
</g>
</g>
<g clip-path="url(#a)">
<g transform="translate(365.82 598.33) scale(.1 -.1)">
<use xlink:href="#c"/>
<use x="63.623047" xlink:href="#d"/>
<use x="95.410156" xlink:href="#n"/>
<use x="159.033203" xlink:href="#z"/>
</g>
</g>
<g clip-path="url(#a)">
<g transform="translate(569.49 598.33) scale(.1 -.1)">
<use xlink:href="#c"/>
<use x="63.623047" xlink:href="#d"/>
<use x="95.410156" xlink:href="#n"/>
<use x="159.033203" xlink:href="#af"/>
</g>
</g>
<g clip-path="url(#a)">
<g transform="translate(822.54 598.33) scale(.1 -.1)">
<use xlink:href="#c"/>
<use x="63.623047" xlink:href="#d"/>
<use x="95.410156" xlink:href="#n"/>
<use x="159.033203" xlink:href="#ac"/>
</g>
</g>
<g clip-path="url(#a)">
<g transform="translate(1294.7 598.33) scale(.1 -.1)">
<use xlink:href="#c"/>
<use x="63.623047" xlink:href="#d"/>
<use x="95.410156" xlink:href="#x"/>
<use x="159.033203" xlink:href="#ad"/>
</g>
</g>
<defs>
<clipPath id="a">
<rect width="1368" height="720"/>
</clipPath>
</defs>
</svg>
