<?xml version="1.0" encoding="UTF-8"?>
<!DOCTYPE svg  PUBLIC '-//W3C//DTD SVG 1.1//EN'  'http://www.w3.org/Graphics/SVG/1.1/DTD/svg11.dtd'>
<svg width="1266.7pt" height="666.67pt" version="1.1" viewBox="0 0 1266.7 666.67" xmlns="http://www.w3.org/2000/svg" xmlns:xlink="http://www.w3.org/1999/xlink">
<metadata>
<rdf:RDF xmlns:cc="http://creativecommons.org/ns#" xmlns:dc="http://purl.org/dc/elements/1.1/" xmlns:rdf="http://www.w3.org/1999/02/22-rdf-syntax-ns#">
<cc:Work>
<dc:type rdf:resource="http://purl.org/dc/dcmitype/StillImage"/>
<dc:date>2021-04-28T07:17:17.476448</dc:date>
<dc:format>image/svg+xml</dc:format>
<dc:creator>
<cc:Agent>
<dc:title>Matplotlib v3.3.3, https://matplotlib.org/</dc:title>
</cc:Agent>
</dc:creator>
</cc:Work>
</rdf:RDF>
</metadata>
<defs>
<style type="text/css">*{stroke-linecap:butt;stroke-linejoin:round;}</style>
</defs>
<path d="m0 666.67h1266.7v-666.67h-1266.7z" fill="#fff"/>
<g fill="none" stroke="#000">
<path d="m340.39 30.303-245.87 244.28" clip-path="url(#a)"/>
<path d="m340.39 30.303-102.26 244.28" clip-path="url(#a)"/>
<path d="m340.39 30.303 213.53 486.78" clip-path="url(#a)"/>
<path d="m340.39 30.303 220.44 122.29" clip-path="url(#a)"/>
<path d="m340.39 30.303-243.11 486.78" clip-path="url(#a)"/>
<path d="m340.39 30.303 157.27 486.78" clip-path="url(#a)"/>
<path d="m94.526 274.58 45.774 242.51" clip-path="url(#a)" stroke-dasharray="3.7,1.6"/>
<path d="m94.526 274.58-31.987 121.57" clip-path="url(#a)"/>
<path d="m94.526 274.58-13.787 242.51" clip-path="url(#a)"/>
<path d="m238.13 274.58-109.42 121.57" clip-path="url(#a)"/>
<path d="m238.13 274.58-71.363 242.51" clip-path="url(#a)"/>
<path d="m238.13 274.58-25.038 121.57" clip-path="url(#a)"/>
<path d="m238.13 274.58 47.759 121.57" clip-path="url(#a)"/>
<path d="m238.13 274.58 158.06 121.57" clip-path="url(#a)"/>
<path d="m553.92 517.09v119.28" clip-path="url(#a)"/>
<path d="m560.83 152.6 84.084 364.49" clip-path="url(#a)"/>
<path d="m560.83 152.6 336.45 121.98" clip-path="url(#a)"/>
<path d="m560.83 152.6-420.53 364.49" clip-path="url(#a)" stroke-dasharray="3.7,1.6"/>
<path d="m644.91 517.09-31.435 119.28" clip-path="url(#a)"/>
<path d="m644.91 517.09 31.435 119.28" clip-path="url(#a)"/>
<path d="m897.28 274.58-154.75 242.51" clip-path="url(#a)"/>
<path d="m897.28 274.58-85.261 242.51" clip-path="url(#a)"/>
<path d="m897.28 274.58-12.464 242.51" clip-path="url(#a)"/>
<path d="m897.28 274.58 25.589 121.57" clip-path="url(#a)"/>
<path d="m897.28 274.58 226.88 121.57" clip-path="url(#a)"/>
<path d="m742.53 517.09v119.28" clip-path="url(#a)"/>
<path d="m812.02 517.09v119.28" clip-path="url(#a)"/>
<path d="m884.81 517.09v119.28" clip-path="url(#a)"/>
<path d="m922.87 396.15-38.053 120.94" clip-path="url(#a)" stroke-dasharray="3.7,1.6"/>
<path d="m922.87 396.15 38.053 120.94" clip-path="url(#a)"/>
<path d="m1124.2 396.15-83.827 120.94" clip-path="url(#a)"/>
<path d="m1124.2 396.15-1.103 120.94" clip-path="url(#a)"/>
<path d="m1124.2 396.15 84.93 120.94" clip-path="url(#a)"/>
<path d="m1040.3 517.09v119.28" clip-path="url(#a)"/>
<path d="m1123.1 517.09v119.28" clip-path="url(#a)"/>
<path d="m960.92 517.09v119.28" clip-path="url(#a)"/>
<path d="m128.72 396.15-11.581 120.94" clip-path="url(#a)"/>
<path d="m128.72 396.15 11.581 120.94" clip-path="url(#a)"/>
<path d="m166.77 517.09v119.28" clip-path="url(#a)"/>
<path d="m213.1 396.15-16.545 120.94" clip-path="url(#a)"/>
<path d="m213.1 396.15 16.545 120.94" clip-path="url(#a)"/>
<path d="m285.89 396.15-19.854 120.94" clip-path="url(#a)"/>
<path d="m285.89 396.15 19.854 120.94" clip-path="url(#a)"/>
<path d="m396.19 396.15-47.428 120.94" clip-path="url(#a)"/>
<path d="m396.19 396.15-1.103 120.94" clip-path="url(#a)"/>
<path d="m396.19 396.15 48.531 120.94" clip-path="url(#a)"/>
<path d="m348.76 517.09v119.28" clip-path="url(#a)"/>
<path d="m395.09 517.09v119.28" clip-path="url(#a)"/>
<path d="m444.72 517.09v119.28" clip-path="url(#a)"/>
<path d="m266.04 517.09v119.28" clip-path="url(#a)"/>
<path d="m305.75 517.09v119.28" clip-path="url(#a)"/>
<path d="m196.55 517.09v119.28" clip-path="url(#a)"/>
<path d="m229.64 517.09v119.28" clip-path="url(#a)"/>
<path d="m117.14 517.09v119.28" clip-path="url(#a)"/>
<path d="m140.3 517.09v119.28" clip-path="url(#a)"/>
<path d="m62.539 396.15-4.9634 120.94" clip-path="url(#a)"/>
<path d="m62.539 396.15 4.9634 120.94" clip-path="url(#a)"/>
<path d="m80.738 517.09v119.28" clip-path="url(#a)"/>
<path d="m57.576 517.09v119.28" clip-path="url(#a)"/>
<path d="m67.503 517.09v119.28" clip-path="url(#a)"/>
<path d="m97.283 517.09v119.28" clip-path="url(#a)"/>
<path d="m497.67 517.09v119.28" clip-path="url(#a)"/>
<path d="m1209.1 517.09v119.28" clip-path="url(#a)"/>
</g>
<path d="m219.75 159.01 4.2679-4.2403q1.7026-1.6915 0.011012-3.3941l-5.457-5.4925q-1.6915-1.7026-3.3941-0.011013l-4.2679 4.2403q-1.7026 1.6915-0.011012 3.3941l5.457 5.4925q1.6915 1.7026 3.3941 0.011012z" clip-path="url(#a)" fill="#fff" stroke="#fff"/>
<g clip-path="url(#a)">
<g transform="translate(216.88 156.13) rotate(-44.814) scale(.08 -.08)">
<defs>
<path id="ad" d="m9.8125 72.906h9.8594v-29.891h35.844v29.891h9.8594v-72.906h-9.8594v34.719h-35.844v-34.719h-9.8594z"/>
</defs>
<use xlink:href="#ad"/>
</g>
</g>
<path d="m293.89 157.64 2.3232-5.5496q0.92676-2.2138-1.2871-3.1406l-7.142-2.9898q-2.2138-0.92676-3.1406 1.2871l-2.3232 5.5496q-0.92676 2.2138 1.2871 3.1406l7.142 2.9898q2.2138 0.92676 3.1406-1.2871z" clip-path="url(#a)" fill="#fff" stroke="#fff"/>
<g clip-path="url(#a)">
<g transform="translate(290.14 156.07) rotate(-67.285) scale(.08 -.08)">
<use xlink:href="#ad"/>
</g>
</g>
<path d="m440.52 274.17 1.7906 4.0821q0.96408 2.1979 3.1619 1.2338l7.0904-3.1102q2.1979-0.96408 1.2338-3.1619l-1.7906-4.0821q-0.96408-2.1979-3.1619-1.2338l-7.0904 3.1102q-2.1979 0.96408-1.2338 3.1619z" clip-path="url(#a)" fill="#fff" stroke="#fff"/>
<g clip-path="url(#a)">
<g transform="translate(444.24 272.54) rotate(66.316) scale(.08 -.08)">
<defs>
<path id="as" d="m9.8125 72.906h9.8594v-64.609h35.5v-8.2969h-45.359z"/>
</defs>
<use xlink:href="#as"/>
</g>
</g>
<path d="m444.94 95.474 5.2609 2.9186q2.0987 1.1643 3.263-0.93439l3.756-6.7704q1.1643-2.0987-0.93439-3.263l-5.2609-2.9186q-2.0987-1.1643-3.263 0.93439l-3.756 6.7704q-1.1643 2.0987 0.93439 3.263z" clip-path="url(#a)" fill="#fff" stroke="#fff"/>
<g clip-path="url(#a)">
<g transform="translate(446.91 91.92) rotate(29.02) scale(.08 -.08)">
<use xlink:href="#ad"/>
</g>
</g>
<path d="m223.14 279.12 2.616-5.2381q1.0723-2.1471-1.0748-3.2194l-6.9267-3.4593q-2.1471-1.0723-3.2194 1.0748l-2.616 5.2381q-1.0723 2.1471 1.0748 3.2194l6.9267 3.4593q2.1471 1.0723 3.2194-1.0748z" clip-path="url(#a)" fill="#fff" stroke="#fff"/>
<g clip-path="url(#a)">
<g transform="translate(219.51 277.3) rotate(-63.462) scale(.08 -.08)">
<defs>
<path id="aa" d="m8.6875 72.906h9.9219v-44.297q0-11.719 4.2344-16.875 4.25-5.1406 13.781-5.1406 9.4688 0 13.719 5.1406 4.25 5.1562 4.25 16.875v44.297h9.9062v-45.516q0-14.25-7.0625-21.531-7.0469-7.2812-20.812-7.2812-13.828 0-20.891 7.2812-7.0469 7.2812-7.0469 21.531z"/>
</defs>
<use xlink:href="#aa"/>
</g>
</g>
<path d="m412.16 272.84 1.8001 5.5714q0.73785 2.2838 3.0216 1.5459l7.3675-2.3803q2.2838-0.73785 1.5459-3.0216l-1.8001-5.5714q-0.73785-2.2838-3.0216-1.5459l-7.3675 2.3803q-2.2838 0.73785-1.5459 3.0216z" clip-path="url(#a)" fill="#fff" stroke="#fff"/>
<g clip-path="url(#a)">
<g transform="translate(416.03 271.59) rotate(72.095) scale(.08 -.08)">
<use xlink:href="#aa"/>
</g>
</g>
<path d="m110.74 394.31 1.015 5.3775q0.44515 2.3584 2.8035 1.9132l7.6082-1.4361q2.3584-0.44515 1.9132-2.8035l-1.015-5.3775q-0.44515-2.3584-2.8035-1.9132l-7.6082 1.4361q-2.3584 0.44515-1.9132 2.8035z" clip-path="url(#a)" fill="#fff" stroke="#fff"/>
<g clip-path="url(#a)">
<g transform="translate(114.74 393.55) rotate(79.311) scale(.08 -.08)">
<defs>
<path id="r" d="m34.188 63.188-13.391-36.281h26.812zm-5.5781 9.7188h11.188l27.781-72.906h-10.25l-6.6406 18.703h-32.859l-6.6406-18.703h-10.406z"/>
</defs>
<use xlink:href="#r"/>
</g>
</g>
<path d="m83.951 339.42 1.2923-4.9116q0.61068-2.321-1.7103-2.9317l-7.4877-1.9701q-2.321-0.61068-2.9317 1.7103l-1.2923 4.9116q-0.61068 2.321 1.7103 2.9317l7.4877 1.9701q2.321 0.61068 2.9317-1.7103z" clip-path="url(#a)" fill="#fff" stroke="#fff"/>
<g clip-path="url(#a)">
<g transform="translate(80.021 338.38) rotate(-75.259) scale(.08 -.08)">
<defs>
<path id="al" d="m53.516 70.516v-9.625q-5.6094 2.6875-10.594 4-4.9844 1.3281-9.625 1.3281-8.0469 0-12.422-3.125t-4.375-8.8906q0-4.8438 2.9062-7.3125 2.9062-2.4531 11.016-3.9688l5.9531-1.2188q11.031-2.1094 16.281-7.4062t5.25-14.172q0-10.609-7.1094-16.078-7.0938-5.4688-20.812-5.4688-5.1719 0-11.016 1.1719-5.8281 1.1719-12.078 3.4688v10.156q6-3.3594 11.766-5.0781 5.7656-1.7031 11.328-1.7031 8.4375 0 13.031 3.3125 4.5938 3.3281 4.5938 9.4844 0 5.3594-3.2969 8.3906t-10.812 4.5469l-6.0156 1.1719q-11.031 2.1875-15.969 6.875-4.9219 4.6875-4.9219 13.047 0 9.6719 6.8125 15.234t18.766 5.5625q5.1406 0 10.453-0.9375 5.3281-0.92188 10.891-2.7656z"/>
</defs>
<use xlink:href="#al"/>
</g>
</g>
<path d="m93.718 399.26 0.34965-6.1501q0.13623-2.3961-2.2599-2.5324l-7.73-0.43948q-2.3961-0.13623-2.5324 2.2599l-0.34965 6.1501q-0.13623 2.3961 2.2599 2.5324l7.73 0.43948q2.3961 0.13623 2.5324-2.2599z" clip-path="url(#a)" fill="#fff" stroke="#fff"/>
<g clip-path="url(#a)">
<g transform="translate(89.661 399.03) rotate(-86.746) scale(.08 -.08)">
<defs>
<path id="am" d="m19.672 64.797v-56.688h11.922q15.094 0 22.094 6.8281 7 6.8438 7 21.594 0 14.641-7 21.453t-22.094 6.8125zm-9.8594 8.1094h20.266q21.188 0 31.094-8.8125 9.9219-8.8125 9.9219-27.562 0-18.859-9.9688-27.703-9.9531-8.8281-31.047-8.8281h-20.266z"/>
</defs>
<use xlink:href="#am"/>
</g>
</g>
<path d="m186.26 341.59 3.661-4.0676q1.6055-1.7839-0.17835-3.3894l-5.7549-5.1795q-1.7839-1.6055-3.3894 0.17835l-3.661 4.0676q-1.6055 1.7839 0.17835 3.3894l5.7549 5.1795q1.7839 1.6055 3.3894-0.17835z" clip-path="url(#a)" fill="#fff" stroke="#fff"/>
<g clip-path="url(#a)">
<g transform="translate(183.24 338.88) rotate(-48.012) scale(.08 -.08)">
<use xlink:href="#r"/>
</g>
</g>
<path d="m207.79 399.92 1.3618-4.6275q0.67753-2.3024-1.6249-2.9799l-7.4276-2.1857q-2.3024-0.67753-2.9799 1.6249l-1.3618 4.6275q-0.67753 2.3024 1.6249 2.9799l7.4276 2.1857q2.3024 0.67753 2.9799-1.6249z" clip-path="url(#a)" fill="#fff" stroke="#fff"/>
<g clip-path="url(#a)">
<g transform="translate(203.89 398.77) rotate(-73.602) scale(.08 -.08)">
<defs>
<path id="ac" d="m19.672 64.797v-27.391h12.406q6.8906 0 10.641 3.5625 3.7656 3.5625 3.7656 10.156 0 6.5469-3.7656 10.109-3.75 3.5625-10.641 3.5625zm-9.8594 8.1094h22.266q12.266 0 18.531-5.5469 6.2812-5.5469 6.2812-16.234 0-10.797-6.2812-16.312-6.2656-5.5156-18.531-5.5156h-12.406v-29.297h-9.8594z"/>
</defs>
<use xlink:href="#ac"/>
</g>
</g>
<path d="m231.21 339.31 1.1039-5.36q0.48412-2.3507-1.8665-2.8348l-7.5833-1.5618q-2.3507-0.48412-2.8348 1.8665l-1.1039 5.36q-0.48412 2.3507 1.8665 2.8348l7.5833 1.5618q2.3507 0.48412 2.8348-1.8665z" clip-path="url(#a)" fill="#fff" stroke="#fff"/>
<g clip-path="url(#a)">
<g transform="translate(227.23 338.49) rotate(-78.363) scale(.08 -.08)">
<use xlink:href="#r"/>
</g>
</g>
<path d="m255.05 334.79 2.2524 5.7334q0.87756 2.2338 3.1114 1.3563l7.2064-2.831q2.2338-0.87756 1.3563-3.1114l-2.2524-5.7334q-0.87756-2.2338-3.1114-1.3563l-7.2064 2.831q-2.2338 0.87756-1.3563 3.1114z" clip-path="url(#a)" fill="#fff" stroke="#fff"/>
<g clip-path="url(#a)">
<g transform="translate(258.83 333.31) rotate(68.553) scale(.08 -.08)">
<use xlink:href="#am"/>
</g>
</g>
<path d="m311.17 338.67 4.3378 3.3364q1.9024 1.4632 3.3656-0.43916l4.7204-6.1371q1.4632-1.9024-0.43916-3.3656l-4.3378-3.3364q-1.9024-1.4632-3.3656 0.43916l-4.7204 6.1371q-1.4632 1.9024 0.43916 3.3656z" clip-path="url(#a)" fill="#fff" stroke="#fff"/>
<g clip-path="url(#a)">
<g transform="translate(313.65 335.45) rotate(37.566) scale(.08 -.08)">
<use xlink:href="#r"/>
</g>
</g>
<path d="m547.65 559.82v33.808q0 2.4 2.4 2.4h7.7425q2.4 0 2.4-2.4v-33.808q0-2.4-2.4-2.4h-7.7425q-2.4 0-2.4 2.4z" clip-path="url(#a)" fill="#fff" stroke="#fff"/>
<g clip-path="url(#a)">
<g transform="translate(551.71 559.82) rotate(90) scale(.08 -.08)">
<defs>
<path id="l" d="m-0.29688 72.906h61.672v-8.3125h-25.875v-64.594h-9.9062v64.594h-25.891z"/>
<path id="d" d="m56.203 29.594v-4.3906h-41.312q0.59375-9.2812 5.5938-14.141t13.938-4.8594q5.1719 0 10.031 1.2656t9.6562 3.8125v-8.5q-4.8438-2.0469-9.9219-3.125t-10.297-1.0781q-13.094 0-20.734 7.6094-7.6406 7.625-7.6406 20.625 0 13.422 7.25 21.297 7.25 7.8906 19.562 7.8906 11.031 0 17.453-7.1094 6.4219-7.0938 6.4219-19.297zm-8.9844 2.6406q-0.09375 7.3594-4.125 11.75-4.0312 4.4062-10.672 4.4062-7.5156 0-12.031-4.25t-5.2031-11.969z"/>
<path id="g" d="m41.109 46.297q-1.5156 0.875-3.2969 1.2812-1.7812 0.42188-3.9219 0.42188-7.625 0-11.703-4.9531t-4.0781-14.234v-28.812h-9.0312v54.688h9.0312v-8.5q2.8438 4.9844 7.375 7.3906 4.5469 2.4219 11.047 2.4219 0.92188 0 2.0469-0.125 1.125-0.10938 2.4844-0.35938z"/>
<path id="k" d="m52 44.188q3.375 6.0625 8.0625 8.9375t11.031 2.875q8.5469 0 13.188-5.9844 4.6406-5.9688 4.6406-17v-33.016h-9.0312v32.719q0 7.8594-2.7969 11.656-2.7812 3.8125-8.4844 3.8125-6.9844 0-11.047-4.6406-4.0469-4.625-4.0469-12.641v-30.906h-9.0312v32.719q0 7.9062-2.7812 11.688t-8.5938 3.7812q-6.8906 0-10.953-4.6562-4.0469-4.6562-4.0469-12.625v-30.906h-9.0312v54.688h9.0312v-8.5q3.0781 5.0312 7.375 7.4219t10.203 2.3906q5.9688 0 10.141-3.0312 4.1719-3.0156 6.1719-8.7812z"/>
<path id="h" d="m9.4219 54.688h8.9844v-54.688h-8.9844zm0 21.297h8.9844v-11.391h-8.9844z"/>
<path id="i" d="m54.891 33.016v-33.016h-8.9844v32.719q0 7.7656-3.0312 11.609-3.0312 3.8594-9.0781 3.8594-7.2812 0-11.484-4.6406-4.2031-4.625-4.2031-12.641v-30.906h-9.0312v54.688h9.0312v-8.5q3.2344 4.9375 7.5938 7.375 4.375 2.4375 10.094 2.4375 9.4219 0 14.25-5.8281 4.8438-5.8281 4.8438-17.156z"/>
<path id="f" d="m34.281 27.484q-10.891 0-15.094-2.4844t-4.2031-8.5q0-4.7812 3.1562-7.5938 3.1562-2.7969 8.5625-2.7969 7.4844 0 12 5.2969t4.5156 14.078v2zm17.922 3.7188v-31.203h-8.9844v8.2969q-3.0781-4.9688-7.6719-7.3438t-11.234-2.375q-8.3906 0-13.359 4.7188-4.9531 4.7188-4.9531 12.625 0 9.2188 6.1719 13.906 6.1875 4.6875 18.438 4.6875h12.609v0.89062q0 6.2031-4.0781 9.5938t-11.453 3.3906q-4.6875 0-9.1406-1.125-4.4375-1.125-8.5312-3.375v8.3125q4.9219 1.9062 9.5625 2.8438 4.6406 0.95312 9.0312 0.95312 11.875 0 17.734-6.1562 5.8594-6.1406 5.8594-18.641z"/>
<path id="j" d="m9.4219 75.984h8.9844v-75.984h-8.9844z"/>
</defs>
<use xlink:href="#l"/>
<use x="44.083984" xlink:href="#d"/>
<use x="105.607422" xlink:href="#g"/>
<use x="144.970703" xlink:href="#k"/>
<use x="242.382812" xlink:href="#h"/>
<use x="270.166016" xlink:href="#i"/>
<use x="333.544922" xlink:href="#f"/>
<use x="394.824219" xlink:href="#j"/>
</g>
</g>
<path d="m596.22 333.9 1.0843 4.7003q0.53949 2.3386 2.8781 1.7991l7.5444-1.7404q2.3386-0.53949 1.7991-2.8781l-1.0843-4.7003q-0.53948-2.3386-2.8781-1.7991l-7.5444 1.7404q-2.3386 0.53948-1.7991 2.8781z" clip-path="url(#a)" fill="#fff" stroke="#fff"/>
<g clip-path="url(#a)">
<g transform="translate(600.18 332.99) rotate(77.01) scale(.08 -.08)">
<use xlink:href="#ac"/>
</g>
</g>
<path d="m724.34 218.55 5.1448 1.8653q2.2563 0.81805 3.0743-1.4382l2.6391-7.2788q0.81805-2.2563-1.4382-3.0743l-5.1448-1.8653q-2.2563-0.81805-3.0743 1.4382l-2.6391 7.2788q-0.81805 2.2563 1.4382 3.0743z" clip-path="url(#a)" fill="#fff" stroke="#fff"/>
<g clip-path="url(#a)">
<g transform="translate(725.73 214.73) rotate(19.929) scale(.08 -.08)">
<use xlink:href="#r"/>
</g>
</g>
<path d="m352.6 341.37 4.1354-3.5843q1.8136-1.5719 0.24168-3.3855l-5.071-5.8507q-1.5719-1.8136-3.3855-0.24168l-4.1354 3.5843q-1.8136 1.5719-0.24168 3.3855l5.071 5.8507q1.5719 1.8136 3.3855 0.24168z" clip-path="url(#a)" fill="#fff" stroke="#fff"/>
<g clip-path="url(#a)">
<g transform="translate(349.94 338.3) rotate(-40.917) scale(.08 -.08)">
<use xlink:href="#r"/>
</g>
</g>
<path d="m630.95 594.67 8.6157-32.691q0.61163-2.3208-1.7091-2.9324l-7.4869-1.9731q-2.3208-0.61163-2.9324 1.7091l-8.6157 32.691q-0.61163 2.3208 1.7091 2.9324l7.4869 1.9731q2.3208 0.61163 2.9324-1.7091z" clip-path="url(#a)" fill="#fff" stroke="#fff"/>
<g clip-path="url(#a)">
<g transform="translate(627.02 593.63) rotate(-75.236) scale(.08 -.08)">
<use xlink:href="#l"/>
<use x="44.083984" xlink:href="#d"/>
<use x="105.607422" xlink:href="#g"/>
<use x="144.970703" xlink:href="#k"/>
<use x="242.382812" xlink:href="#h"/>
<use x="270.166016" xlink:href="#i"/>
<use x="333.544922" xlink:href="#f"/>
<use x="394.824219" xlink:href="#j"/>
</g>
</g>
<path d="m650.26 561.98 8.6157 32.691q0.61163 2.3208 2.9324 1.7091l7.4869-1.9731q2.3208-0.61163 1.7091-2.9324l-8.6157-32.691q-0.61163-2.3208-2.9324-1.7091l-7.4869 1.9731q-2.3208 0.61163-1.7091 2.9324z" clip-path="url(#a)" fill="#fff" stroke="#fff"/>
<g clip-path="url(#a)">
<g transform="translate(654.19 560.94) rotate(75.236) scale(.08 -.08)">
<use xlink:href="#l"/>
<use x="44.083984" xlink:href="#d"/>
<use x="105.607422" xlink:href="#g"/>
<use x="144.970703" xlink:href="#k"/>
<use x="242.382812" xlink:href="#h"/>
<use x="270.166016" xlink:href="#i"/>
<use x="333.544922" xlink:href="#f"/>
<use x="394.824219" xlink:href="#j"/>
</g>
</g>
<path d="m823.69 401.55 2.9902-4.686q1.291-2.0232-0.73214-3.3142l-6.5268-4.1649q-2.0232-1.291-3.3142 0.73214l-2.9902 4.686q-1.291 2.0232 0.73214 3.3142l6.5268 4.1649q2.0232 1.291 3.3142-0.73214z" clip-path="url(#a)" fill="#fff" stroke="#fff"/>
<g clip-path="url(#a)">
<g transform="translate(820.27 399.36) rotate(-57.457) scale(.08 -.08)">
<defs>
<path id="ab" d="m44.391 34.188q3.1719-1.0781 6.1719-4.5938t6.0312-9.6719l10.016-19.922h-10.609l-9.3125 18.703q-3.625 7.3281-7.0156 9.7188t-9.25 2.3906h-10.75v-30.812h-9.8594v72.906h22.266q12.5 0 18.656-5.2344 6.1562-5.2188 6.1562-15.766 0-6.8906-3.2031-11.438-3.2031-4.5312-9.2969-6.2812zm-24.719 30.609v-25.875h12.406q7.125 0 10.766 3.2969t3.6406 9.6875-3.6406 9.6406-10.766 3.25z"/>
</defs>
<use xlink:href="#ab"/>
</g>
</g>
<path d="m859.8 400.08 1.5261-4.3408q0.79603-2.2641-1.4681-3.0602l-7.3042-2.568q-2.2641-0.79603-3.0602 1.4681l-1.5261 4.3408q-0.79603 2.2641 1.4681 3.0602l7.3042 2.568q2.2641 0.79603 3.0602-1.4681z" clip-path="url(#a)" fill="#fff" stroke="#fff"/>
<g clip-path="url(#a)">
<g transform="translate(855.97 398.74) rotate(-70.629) scale(.08 -.08)">
<defs>
<path id="v" d="m9.8125 72.906h41.891v-8.3125h-32.031v-21.484h28.906v-8.2969h-28.906v-34.812h-9.8594z"/>
</defs>
<use xlink:href="#v"/>
</g>
</g>
<path d="m897.17 398.94 0.28673-5.5789q0.12319-2.3968-2.2736-2.52l-7.7323-0.3974q-2.3968-0.12319-2.52 2.2736l-0.28673 5.5789q-0.12319 2.3968 2.2737 2.52l7.7323 0.3974q2.3968 0.12319 2.52-2.2736z" clip-path="url(#a)" fill="#fff" stroke="#fff"/>
<g clip-path="url(#a)">
<g transform="translate(893.11 398.74) rotate(-87.058) scale(.08 -.08)">
<defs>
<path id="o" d="m64.406 67.281v-10.391q-4.9844 4.6406-10.625 6.9219-5.6406 2.2969-11.984 2.2969-12.5 0-19.141-7.6406t-6.6406-22.094q0-14.406 6.6406-22.047t19.141-7.6406q6.3438 0 11.984 2.2969t10.625 6.9375v-10.312q-5.1719-3.5156-10.969-5.2812-5.7812-1.75-12.219-1.75-16.562 0-26.094 10.125-9.5156 10.141-9.5156 27.672 0 17.578 9.5156 27.703 9.5312 10.141 26.094 10.141 6.5312 0 12.312-1.7344 5.7969-1.7344 10.875-5.2031z"/>
</defs>
<use xlink:href="#o"/>
</g>
</g>
<path d="m903.41 334.18 1.0412 4.9466q0.49434 2.3485 2.8429 1.8542l7.5765-1.5948q2.3485-0.49434 1.8542-2.8429l-1.0412-4.9466q-0.49434-2.3485-2.8429-1.8542l-7.5765 1.5948q-2.3485 0.49434-1.8542 2.8429z" clip-path="url(#a)" fill="#fff" stroke="#fff"/>
<g clip-path="url(#a)">
<g transform="translate(907.39 333.35) rotate(78.113) scale(.08 -.08)">
<defs>
<path id="w" d="m9.8125 72.906h46.094v-8.3125h-36.234v-21.578h34.719v-8.2969h-34.719v-26.422h37.109v-8.2969h-46.969z"/>
</defs>
<use xlink:href="#w"/>
</g>
</g>
<path d="m1005.5 339.7 4.4557 2.3875q2.1155 1.1335 3.249-0.98194l3.6568-6.8245q1.1335-2.1155-0.98194-3.249l-4.4557-2.3875q-2.1155-1.1335-3.249 0.98194l-3.6568 6.8245q-1.1335 2.1155 0.98194 3.249z" clip-path="url(#a)" fill="#fff" stroke="#fff"/>
<g clip-path="url(#a)">
<g transform="translate(1007.4 336.12) rotate(28.184) scale(.08 -.08)">
<use xlink:href="#w"/>
</g>
</g>
<path d="m736.26 559.82v33.808q0 2.4 2.4 2.4h7.7425q2.4 0 2.4-2.4v-33.808q0-2.4-2.4-2.4h-7.7425q-2.4 0-2.4 2.4z" clip-path="url(#a)" fill="#fff" stroke="#fff"/>
<g clip-path="url(#a)">
<g transform="translate(740.32 559.82) rotate(90) scale(.08 -.08)">
<use xlink:href="#l"/>
<use x="44.083984" xlink:href="#d"/>
<use x="105.607422" xlink:href="#g"/>
<use x="144.970703" xlink:href="#k"/>
<use x="242.382812" xlink:href="#h"/>
<use x="270.166016" xlink:href="#i"/>
<use x="333.544922" xlink:href="#f"/>
<use x="394.824219" xlink:href="#j"/>
</g>
</g>
<path d="m805.75 559.82v33.808q0 2.4 2.4 2.4h7.7425q2.4 0 2.4-2.4v-33.808q0-2.4-2.4-2.4h-7.7425q-2.4 0-2.4 2.4z" clip-path="url(#a)" fill="#fff" stroke="#fff"/>
<g clip-path="url(#a)">
<g transform="translate(809.81 559.82) rotate(90) scale(.08 -.08)">
<use xlink:href="#l"/>
<use x="44.083984" xlink:href="#d"/>
<use x="105.607422" xlink:href="#g"/>
<use x="144.970703" xlink:href="#k"/>
<use x="242.382812" xlink:href="#h"/>
<use x="270.166016" xlink:href="#i"/>
<use x="333.544922" xlink:href="#f"/>
<use x="394.824219" xlink:href="#j"/>
</g>
</g>
<path d="m878.54 559.82v33.808q0 2.4 2.4 2.4h7.7425q2.4 0 2.4-2.4v-33.808q0-2.4-2.4-2.4h-7.7425q-2.4 0-2.4 2.4z" clip-path="url(#a)" fill="#fff" stroke="#fff"/>
<g clip-path="url(#a)">
<g transform="translate(882.61 559.82) rotate(90) scale(.08 -.08)">
<use xlink:href="#l"/>
<use x="44.083984" xlink:href="#d"/>
<use x="105.607422" xlink:href="#g"/>
<use x="144.970703" xlink:href="#k"/>
<use x="242.382812" xlink:href="#h"/>
<use x="270.166016" xlink:href="#i"/>
<use x="333.544922" xlink:href="#f"/>
<use x="394.824219" xlink:href="#j"/>
</g>
</g>
<path d="m909 461.11 1.6425-5.2202q0.72035-2.2893-1.569-3.0097l-7.3855-2.3239q-2.2893-0.72035-3.0097 1.569l-1.6425 5.2202q-0.72035 2.2893 1.569 3.0097l7.3855 2.3239q2.2893 0.72035 3.0097-1.569z" clip-path="url(#a)" fill="#fff" stroke="#fff"/>
<g clip-path="url(#a)">
<g transform="translate(905.12 459.89) rotate(-72.534) scale(.08 -.08)">
<use xlink:href="#r"/>
</g>
</g>
<path d="m935.15 456.08 1.5244 4.8446q0.72035 2.2893 3.0097 1.569l7.3855-2.3239q2.2893-0.72035 1.569-3.0097l-1.5244-4.8446q-0.72035-2.2893-3.0097-1.569l-7.3855 2.3239q-2.2893 0.72035-1.569 3.0097z" clip-path="url(#a)" fill="#fff" stroke="#fff"/>
<g clip-path="url(#a)">
<g transform="translate(939.03 454.86) rotate(72.534) scale(.08 -.08)">
<use xlink:href="#al"/>
</g>
</g>
<path d="m1085.8 462.48 3.1667-4.5686q1.3672-1.9725-0.60526-3.3397l-6.3633-4.4107q-1.9725-1.3672-3.3397 0.60526l-3.1667 4.5686q-1.3672 1.9725 0.60526 3.3397l6.3633 4.4107q1.9725 1.3672 3.3397-0.60526z" clip-path="url(#a)" fill="#fff" stroke="#fff"/>
<g clip-path="url(#a)">
<g transform="translate(1082.5 460.16) rotate(-55.272) scale(.08 -.08)">
<use xlink:href="#ab"/>
</g>
</g>
<path d="m1129.9 459.47 0.050946-5.586q0.021888-2.3999-2.378-2.4218l-7.7422-0.070611q-2.3999-0.021888-2.4218 2.378l-0.050947 5.586q-0.021888 2.3999 2.378 2.4218l7.7422 0.070611q2.3999 0.021888 2.4218-2.378z" clip-path="url(#a)" fill="#fff" stroke="#fff"/>
<g clip-path="url(#a)">
<g transform="translate(1125.8 459.43) rotate(-89.477) scale(.08 -.08)">
<use xlink:href="#o"/>
</g>
</g>
<path d="m1159.8 457.83 3.3649 4.7915q1.3793 1.9641 3.3434 0.58476l6.3361-4.4497q1.9641-1.3793 0.58476-3.3434l-3.3649-4.7915q-1.3793-1.9641-3.3434-0.58476l-6.3361 4.4497q-1.9641 1.3793-0.58476 3.3434z" clip-path="url(#a)" fill="#fff" stroke="#fff"/>
<g clip-path="url(#a)">
<g transform="translate(1163.1 455.49) rotate(54.921) scale(.08 -.08)">
<use xlink:href="#aa"/>
</g>
</g>
<path d="m1034.1 559.82v33.808q0 2.4 2.4 2.4h7.7425q2.4 0 2.4-2.4v-33.808q0-2.4-2.4-2.4h-7.7425q-2.4 0-2.4 2.4z" clip-path="url(#a)" fill="#fff" stroke="#fff"/>
<g clip-path="url(#a)">
<g transform="translate(1038.1 559.82) rotate(90) scale(.08 -.08)">
<use xlink:href="#l"/>
<use x="44.083984" xlink:href="#d"/>
<use x="105.607422" xlink:href="#g"/>
<use x="144.970703" xlink:href="#k"/>
<use x="242.382812" xlink:href="#h"/>
<use x="270.166016" xlink:href="#i"/>
<use x="333.544922" xlink:href="#f"/>
<use x="394.824219" xlink:href="#j"/>
</g>
</g>
<path d="m1116.8 559.82v33.808q0 2.4 2.4 2.4h7.7425q2.4 0 2.4-2.4v-33.808q0-2.4-2.4-2.4h-7.7425q-2.4 0-2.4 2.4z" clip-path="url(#a)" fill="#fff" stroke="#fff"/>
<g clip-path="url(#a)">
<g transform="translate(1120.9 559.82) rotate(90) scale(.08 -.08)">
<use xlink:href="#l"/>
<use x="44.083984" xlink:href="#d"/>
<use x="105.607422" xlink:href="#g"/>
<use x="144.970703" xlink:href="#k"/>
<use x="242.382812" xlink:href="#h"/>
<use x="270.166016" xlink:href="#i"/>
<use x="333.544922" xlink:href="#f"/>
<use x="394.824219" xlink:href="#j"/>
</g>
</g>
<path d="m954.65 559.82v33.808q0 2.4 2.4 2.4h7.7425q2.4 0 2.4-2.4v-33.808q0-2.4-2.4-2.4h-7.7425q-2.4 0-2.4 2.4z" clip-path="url(#a)" fill="#fff" stroke="#fff"/>
<g clip-path="url(#a)">
<g transform="translate(958.71 559.82) rotate(90) scale(.08 -.08)">
<use xlink:href="#l"/>
<use x="44.083984" xlink:href="#d"/>
<use x="105.607422" xlink:href="#g"/>
<use x="144.970703" xlink:href="#k"/>
<use x="242.382812" xlink:href="#h"/>
<use x="270.166016" xlink:href="#i"/>
<use x="333.544922" xlink:href="#f"/>
<use x="394.824219" xlink:href="#j"/>
</g>
</g>
<path d="m128.95 459.51 0.43863-4.5803q0.22879-2.3891-2.1603-2.6179l-7.7072-0.73808q-2.3891-0.22879-2.6179 2.1603l-0.43863 4.5803q-0.22879 2.3891 2.1603 2.6179l7.7072 0.73808q2.3891 0.22879 2.6179-2.1603z" clip-path="url(#a)" fill="#fff" stroke="#fff"/>
<g clip-path="url(#a)">
<g transform="translate(124.91 459.12) rotate(-84.53) scale(.08 -.08)">
<use xlink:href="#v"/>
</g>
</g>
<path d="m128 454.44 0.53252 5.5608q0.22879 2.3891 2.6179 2.1603l7.7072-0.73808q2.3891-0.22879 2.1603-2.6179l-0.53252-5.5608q-0.22879-2.3891-2.6179-2.1603l-7.7072 0.73808q-2.3891 0.22879-2.1603 2.6179z" clip-path="url(#a)" fill="#fff" stroke="#fff"/>
<g clip-path="url(#a)">
<g transform="translate(132.05 454.05) rotate(84.53) scale(.08 -.08)">
<use xlink:href="#o"/>
</g>
</g>
<path d="m160.5 559.82v33.808q0 2.4 2.4 2.4h7.7425q2.4 0 2.4-2.4v-33.808q0-2.4-2.4-2.4h-7.7425q-2.4 0-2.4 2.4z" clip-path="url(#a)" fill="#fff" stroke="#fff"/>
<g clip-path="url(#a)">
<g transform="translate(164.56 559.82) rotate(90) scale(.08 -.08)">
<use xlink:href="#l"/>
<use x="44.083984" xlink:href="#d"/>
<use x="105.607422" xlink:href="#g"/>
<use x="144.970703" xlink:href="#k"/>
<use x="242.382812" xlink:href="#h"/>
<use x="270.166016" xlink:href="#i"/>
<use x="333.544922" xlink:href="#f"/>
<use x="394.824219" xlink:href="#j"/>
</g>
</g>
<path d="m210.73 459.75 0.62367-4.5588q0.3253-2.3779-2.0525-2.7032l-7.671-1.0494q-2.3779-0.3253-2.7032 2.0525l-0.62367 4.5588q-0.3253 2.3779 2.0525 2.7032l7.671 1.0494q2.3779 0.3253 2.7032-2.0525z" clip-path="url(#a)" fill="#fff" stroke="#fff"/>
<g clip-path="url(#a)">
<g transform="translate(206.7 459.2) rotate(-82.21) scale(.08 -.08)">
<use xlink:href="#v"/>
</g>
</g>
<path d="m214.78 454.7 0.75718 5.5347q0.3253 2.3779 2.7032 2.0525l7.671-1.0494q2.3779-0.3253 2.0525-2.7032l-0.75718-5.5347q-0.3253-2.3779-2.7032-2.0525l-7.671 1.0494q-2.3779 0.3253-2.0525 2.7032z" clip-path="url(#a)" fill="#fff" stroke="#fff"/>
<g clip-path="url(#a)">
<g transform="translate(218.8 454.15) rotate(82.21) scale(.08 -.08)">
<use xlink:href="#o"/>
</g>
</g>
<path d="m281.75 460.13 0.8189-4.9882q0.3888-2.3683-1.9795-2.7571l-7.6402-1.2543q-2.3683-0.3888-2.7571 1.9795l-0.8189 4.9882q-0.3888 2.3683 1.9795 2.7571l7.6402 1.2543q2.3683 0.3888 2.7571-1.9795z" clip-path="url(#a)" fill="#fff" stroke="#fff"/>
<g clip-path="url(#a)">
<g transform="translate(277.74 459.47) rotate(-80.677) scale(.08 -.08)">
<use xlink:href="#w"/>
</g>
</g>
<path d="m289.18 454.88 0.90496 5.5125q0.3888 2.3683 2.7571 1.9795l7.6402-1.2543q2.3683-0.3888 1.9795-2.7571l-0.90496-5.5125q-0.3888-2.3683-2.7571-1.9795l-7.6402 1.2543q-2.3683 0.3888-1.9795 2.7571z" clip-path="url(#a)" fill="#fff" stroke="#fff"/>
<g clip-path="url(#a)">
<g transform="translate(293.19 454.22) rotate(80.677) scale(.08 -.08)">
<use xlink:href="#o"/>
</g>
</g>
<path d="m377.3 461.5 2.0295-5.175q0.87625-2.2343-1.3581-3.1106l-7.208-2.8268q-2.2343-0.87625-3.1106 1.3581l-2.0295 5.175q-0.87625 2.2343 1.3581 3.1106l7.208 2.8268q2.2343 0.87625 3.1106-1.3581z" clip-path="url(#a)" fill="#fff" stroke="#fff"/>
<g clip-path="url(#a)">
<g transform="translate(373.52 460.01) rotate(-68.586) scale(.08 -.08)">
<use xlink:href="#ab"/>
</g>
</g>
<path d="m401.89 458.98 0.041963-4.6011q0.021888-2.3999-2.378-2.4218l-7.7422-0.070612q-2.3999-0.021888-2.4218 2.378l-0.041964 4.6011q-0.021888 2.3999 2.378 2.4218l7.7422 0.070612q2.3999 0.021888 2.4218-2.378z" clip-path="url(#a)" fill="#fff" stroke="#fff"/>
<g clip-path="url(#a)">
<g transform="translate(397.83 458.94) rotate(-89.477) scale(.08 -.08)">
<use xlink:href="#v"/>
</g>
</g>
<path d="m413.6 456.36 2.0805 5.1844q0.89383 2.2273 3.1212 1.3335l7.1855-2.8835q2.2273-0.89383 1.3335-3.1212l-2.0805-5.1844q-0.89383-2.2273-3.1212-1.3335l-7.1855 2.8835q-2.2273 0.89383-1.3335 3.1212z" clip-path="url(#a)" fill="#fff" stroke="#fff"/>
<g clip-path="url(#a)">
<g transform="translate(417.37 454.85) rotate(68.135) scale(.08 -.08)">
<use xlink:href="#o"/>
</g>
</g>
<path d="m342.49 559.82v33.808q0 2.4 2.4 2.4h7.7425q2.4 0 2.4-2.4v-33.808q0-2.4-2.4-2.4h-7.7425q-2.4 0-2.4 2.4z" clip-path="url(#a)" fill="#fff" stroke="#fff"/>
<g clip-path="url(#a)">
<g transform="translate(346.56 559.82) rotate(90) scale(.08 -.08)">
<use xlink:href="#l"/>
<use x="44.083984" xlink:href="#d"/>
<use x="105.607422" xlink:href="#g"/>
<use x="144.970703" xlink:href="#k"/>
<use x="242.382812" xlink:href="#h"/>
<use x="270.166016" xlink:href="#i"/>
<use x="333.544922" xlink:href="#f"/>
<use x="394.824219" xlink:href="#j"/>
</g>
</g>
<path d="m388.82 559.82v33.808q0 2.4 2.4 2.4h7.7425q2.4 0 2.4-2.4v-33.808q0-2.4-2.4-2.4h-7.7425q-2.4 0-2.4 2.4z" clip-path="url(#a)" fill="#fff" stroke="#fff"/>
<g clip-path="url(#a)">
<g transform="translate(392.88 559.82) rotate(90) scale(.08 -.08)">
<use xlink:href="#l"/>
<use x="44.083984" xlink:href="#d"/>
<use x="105.607422" xlink:href="#g"/>
<use x="144.970703" xlink:href="#k"/>
<use x="242.382812" xlink:href="#h"/>
<use x="270.166016" xlink:href="#i"/>
<use x="333.544922" xlink:href="#f"/>
<use x="394.824219" xlink:href="#j"/>
</g>
</g>
<path d="m438.45 559.82v33.808q0 2.4 2.4 2.4h7.7425q2.4 0 2.4-2.4v-33.808q0-2.4-2.4-2.4h-7.7425q-2.4 0-2.4 2.4z" clip-path="url(#a)" fill="#fff" stroke="#fff"/>
<g clip-path="url(#a)">
<g transform="translate(442.52 559.82) rotate(90) scale(.08 -.08)">
<use xlink:href="#l"/>
<use x="44.083984" xlink:href="#d"/>
<use x="105.607422" xlink:href="#g"/>
<use x="144.970703" xlink:href="#k"/>
<use x="242.382812" xlink:href="#h"/>
<use x="270.166016" xlink:href="#i"/>
<use x="333.544922" xlink:href="#f"/>
<use x="394.824219" xlink:href="#j"/>
</g>
</g>
<path d="m259.77 559.82v33.808q0 2.4 2.4 2.4h7.7425q2.4 0 2.4-2.4v-33.808q0-2.4-2.4-2.4h-7.7425q-2.4 0-2.4 2.4z" clip-path="url(#a)" fill="#fff" stroke="#fff"/>
<g clip-path="url(#a)">
<g transform="translate(263.83 559.82) rotate(90) scale(.08 -.08)">
<use xlink:href="#l"/>
<use x="44.083984" xlink:href="#d"/>
<use x="105.607422" xlink:href="#g"/>
<use x="144.970703" xlink:href="#k"/>
<use x="242.382812" xlink:href="#h"/>
<use x="270.166016" xlink:href="#i"/>
<use x="333.544922" xlink:href="#f"/>
<use x="394.824219" xlink:href="#j"/>
</g>
</g>
<path d="m299.48 559.82v33.808q0 2.4 2.4 2.4h7.7425q2.4 0 2.4-2.4v-33.808q0-2.4-2.4-2.4h-7.7425q-2.4 0-2.4 2.4z" clip-path="url(#a)" fill="#fff" stroke="#fff"/>
<g clip-path="url(#a)">
<g transform="translate(303.54 559.82) rotate(90) scale(.08 -.08)">
<use xlink:href="#l"/>
<use x="44.083984" xlink:href="#d"/>
<use x="105.607422" xlink:href="#g"/>
<use x="144.970703" xlink:href="#k"/>
<use x="242.382812" xlink:href="#h"/>
<use x="270.166016" xlink:href="#i"/>
<use x="333.544922" xlink:href="#f"/>
<use x="394.824219" xlink:href="#j"/>
</g>
</g>
<path d="m190.28 559.82v33.808q0 2.4 2.4 2.4h7.7425q2.4 0 2.4-2.4v-33.808q0-2.4-2.4-2.4h-7.7425q-2.4 0-2.4 2.4z" clip-path="url(#a)" fill="#fff" stroke="#fff"/>
<g clip-path="url(#a)">
<g transform="translate(194.34 559.82) rotate(90) scale(.08 -.08)">
<use xlink:href="#l"/>
<use x="44.083984" xlink:href="#d"/>
<use x="105.607422" xlink:href="#g"/>
<use x="144.970703" xlink:href="#k"/>
<use x="242.382812" xlink:href="#h"/>
<use x="270.166016" xlink:href="#i"/>
<use x="333.544922" xlink:href="#f"/>
<use x="394.824219" xlink:href="#j"/>
</g>
</g>
<path d="m223.37 559.82v33.808q0 2.4 2.4 2.4h7.7425q2.4 0 2.4-2.4v-33.808q0-2.4-2.4-2.4h-7.7425q-2.4 0-2.4 2.4z" clip-path="url(#a)" fill="#fff" stroke="#fff"/>
<g clip-path="url(#a)">
<g transform="translate(227.43 559.82) rotate(90) scale(.08 -.08)">
<use xlink:href="#l"/>
<use x="44.083984" xlink:href="#d"/>
<use x="105.607422" xlink:href="#g"/>
<use x="144.970703" xlink:href="#k"/>
<use x="242.382812" xlink:href="#h"/>
<use x="270.166016" xlink:href="#i"/>
<use x="333.544922" xlink:href="#f"/>
<use x="394.824219" xlink:href="#j"/>
</g>
</g>
<path d="m110.87 559.82v33.808q0 2.4 2.4 2.4h7.7425q2.4 0 2.4-2.4v-33.808q0-2.4-2.4-2.4h-7.7425q-2.4 0-2.4 2.4z" clip-path="url(#a)" fill="#fff" stroke="#fff"/>
<g clip-path="url(#a)">
<g transform="translate(114.93 559.82) rotate(90) scale(.08 -.08)">
<use xlink:href="#l"/>
<use x="44.083984" xlink:href="#d"/>
<use x="105.607422" xlink:href="#g"/>
<use x="144.970703" xlink:href="#k"/>
<use x="242.382812" xlink:href="#h"/>
<use x="270.166016" xlink:href="#i"/>
<use x="333.544922" xlink:href="#f"/>
<use x="394.824219" xlink:href="#j"/>
</g>
</g>
<path d="m134.03 559.82v33.808q0 2.4 2.4 2.4h7.7425q2.4 0 2.4-2.4v-33.808q0-2.4-2.4-2.4h-7.7425q-2.4 0-2.4 2.4z" clip-path="url(#a)" fill="#fff" stroke="#fff"/>
<g clip-path="url(#a)">
<g transform="translate(138.09 559.82) rotate(90) scale(.08 -.08)">
<use xlink:href="#l"/>
<use x="44.083984" xlink:href="#d"/>
<use x="105.607422" xlink:href="#g"/>
<use x="144.970703" xlink:href="#k"/>
<use x="242.382812" xlink:href="#h"/>
<use x="270.166016" xlink:href="#i"/>
<use x="333.544922" xlink:href="#f"/>
<use x="394.824219" xlink:href="#j"/>
</g>
</g>
<path d="m66.22 459.4 0.20729-5.0507q0.098417-2.398-2.2996-2.4964l-7.736-0.3175q-2.398-0.098417-2.4964 2.2996l-0.20729 5.0507q-0.098418 2.398 2.2996 2.4964l7.736 0.3175q2.398 0.098417 2.4964-2.2996z" clip-path="url(#a)" fill="#fff" stroke="#fff"/>
<g clip-path="url(#a)">
<g transform="translate(62.159 459.23) rotate(-87.65) scale(.08 -.08)">
<use xlink:href="#w"/>
</g>
</g>
<path d="m58.64 454.09 0.22908 5.5816q0.098417 2.398 2.4964 2.2996l7.736-0.3175q2.398-0.098417 2.2996-2.4964l-0.22908-5.5816q-0.098417-2.398-2.4964-2.2996l-7.736 0.3175q-2.398 0.098417-2.2996 2.4964z" clip-path="url(#a)" fill="#fff" stroke="#fff"/>
<g clip-path="url(#a)">
<g transform="translate(62.701 453.92) rotate(87.65) scale(.08 -.08)">
<use xlink:href="#o"/>
</g>
</g>
<path d="m74.467 559.82v33.808q0 2.4 2.4 2.4h7.7425q2.4 0 2.4-2.4v-33.808q0-2.4-2.4-2.4h-7.7425q-2.4 0-2.4 2.4z" clip-path="url(#a)" fill="#fff" stroke="#fff"/>
<g clip-path="url(#a)">
<g transform="translate(78.531 559.82) rotate(90) scale(.08 -.08)">
<use xlink:href="#l"/>
<use x="44.083984" xlink:href="#d"/>
<use x="105.607422" xlink:href="#g"/>
<use x="144.970703" xlink:href="#k"/>
<use x="242.382812" xlink:href="#h"/>
<use x="270.166016" xlink:href="#i"/>
<use x="333.544922" xlink:href="#f"/>
<use x="394.824219" xlink:href="#j"/>
</g>
</g>
<path d="m51.305 559.82v33.808q0 2.4 2.4 2.4h7.7425q2.4 0 2.4-2.4v-33.808q0-2.4-2.4-2.4h-7.7425q-2.4 0-2.4 2.4z" clip-path="url(#a)" fill="#fff" stroke="#fff"/>
<g clip-path="url(#a)">
<g transform="translate(55.368 559.82) rotate(90) scale(.08 -.08)">
<use xlink:href="#l"/>
<use x="44.083984" xlink:href="#d"/>
<use x="105.607422" xlink:href="#g"/>
<use x="144.970703" xlink:href="#k"/>
<use x="242.382812" xlink:href="#h"/>
<use x="270.166016" xlink:href="#i"/>
<use x="333.544922" xlink:href="#f"/>
<use x="394.824219" xlink:href="#j"/>
</g>
</g>
<path d="m61.231 559.82v33.808q0 2.4 2.4 2.4h7.7425q2.4 0 2.4-2.4v-33.808q0-2.4-2.4-2.4h-7.7425q-2.4 0-2.4 2.4z" clip-path="url(#a)" fill="#fff" stroke="#fff"/>
<g clip-path="url(#a)">
<g transform="translate(65.295 559.82) rotate(90) scale(.08 -.08)">
<use xlink:href="#l"/>
<use x="44.083984" xlink:href="#d"/>
<use x="105.607422" xlink:href="#g"/>
<use x="144.970703" xlink:href="#k"/>
<use x="242.382812" xlink:href="#h"/>
<use x="270.166016" xlink:href="#i"/>
<use x="333.544922" xlink:href="#f"/>
<use x="394.824219" xlink:href="#j"/>
</g>
</g>
<path d="m91.012 559.82v33.808q0 2.4 2.4 2.4h7.7425q2.4 0 2.4-2.4v-33.808q0-2.4-2.4-2.4h-7.7425q-2.4 0-2.4 2.4z" clip-path="url(#a)" fill="#fff" stroke="#fff"/>
<g clip-path="url(#a)">
<g transform="translate(95.076 559.82) rotate(90) scale(.08 -.08)">
<use xlink:href="#l"/>
<use x="44.083984" xlink:href="#d"/>
<use x="105.607422" xlink:href="#g"/>
<use x="144.970703" xlink:href="#k"/>
<use x="242.382812" xlink:href="#h"/>
<use x="270.166016" xlink:href="#i"/>
<use x="333.544922" xlink:href="#f"/>
<use x="394.824219" xlink:href="#j"/>
</g>
</g>
<path d="m491.4 559.82v33.808q0 2.4 2.4 2.4h7.7425q2.4 0 2.4-2.4v-33.808q0-2.4-2.4-2.4h-7.7425q-2.4 0-2.4 2.4z" clip-path="url(#a)" fill="#fff" stroke="#fff"/>
<g clip-path="url(#a)">
<g transform="translate(495.46 559.82) rotate(90) scale(.08 -.08)">
<use xlink:href="#l"/>
<use x="44.083984" xlink:href="#d"/>
<use x="105.607422" xlink:href="#g"/>
<use x="144.970703" xlink:href="#k"/>
<use x="242.382812" xlink:href="#h"/>
<use x="270.166016" xlink:href="#i"/>
<use x="333.544922" xlink:href="#f"/>
<use x="394.824219" xlink:href="#j"/>
</g>
</g>
<path d="m1202.8 559.82v33.808q0 2.4 2.4 2.4h7.7425q2.4 0 2.4-2.4v-33.808q0-2.4-2.4-2.4h-7.7425q-2.4 0-2.4 2.4z" clip-path="url(#a)" fill="#fff" stroke="#fff"/>
<g clip-path="url(#a)">
<g transform="translate(1206.9 559.82) rotate(90) scale(.08 -.08)">
<use xlink:href="#l"/>
<use x="44.083984" xlink:href="#d"/>
<use x="105.607422" xlink:href="#g"/>
<use x="144.970703" xlink:href="#k"/>
<use x="242.382812" xlink:href="#h"/>
<use x="270.166016" xlink:href="#i"/>
<use x="333.544922" xlink:href="#f"/>
<use x="394.824219" xlink:href="#j"/>
</g>
</g>
<defs>
<path id="b" d="m0 8.6603c2.2967 0 4.4997-0.9125 6.1237-2.5365 1.624-1.624 2.5365-3.827 2.5365-6.1237s-0.9125-4.4997-2.5365-6.1237c-1.624-1.624-3.827-2.5365-6.1237-2.5365s-4.4997 0.9125-6.1237 2.5365c-1.624 1.624-2.5365 3.827-2.5365 6.1237s0.9125 4.4997 2.5365 6.1237c1.624 1.624 3.827 2.5365 6.1237 2.5365z"/>
</defs>
<g clip-path="url(#a)" fill="#ffffff" stroke="#ffffff">
<use x="57.575758" y="636.363636" xlink:href="#b"/>
<use x="67.502612" y="636.363636" xlink:href="#b"/>
<use x="80.738419" y="636.363636" xlink:href="#b"/>
<use x="97.283177" y="636.363636" xlink:href="#b"/>
<use x="117.136886" y="636.363636" xlink:href="#b"/>
<use x="140.299547" y="636.363636" xlink:href="#b"/>
<use x="166.77116" y="636.363636" xlink:href="#b"/>
<use x="196.551724" y="636.363636" xlink:href="#b"/>
<use x="229.64124" y="636.363636" xlink:href="#b"/>
<use x="266.039707" y="636.363636" xlink:href="#b"/>
<use x="305.747126" y="636.363636" xlink:href="#b"/>
<use x="348.763497" y="636.363636" xlink:href="#b"/>
<use x="395.088819" y="636.363636" xlink:href="#b"/>
<use x="444.723093" y="636.363636" xlink:href="#b"/>
<use x="497.666318" y="636.363636" xlink:href="#b"/>
<use x="553.918495" y="636.363636" xlink:href="#b"/>
<use x="613.479624" y="636.363636" xlink:href="#b"/>
<use x="676.349704" y="636.363636" xlink:href="#b"/>
<use x="742.528736" y="636.363636" xlink:href="#b"/>
<use x="812.016719" y="636.363636" xlink:href="#b"/>
<use x="884.813654" y="636.363636" xlink:href="#b"/>
<use x="960.91954" y="636.363636" xlink:href="#b"/>
<use x="1040.334378" y="636.363636" xlink:href="#b"/>
<use x="1123.058168" y="636.363636" xlink:href="#b"/>
<use x="1209.090909" y="636.363636" xlink:href="#b"/>
<use x="340.393075" y="30.30303" xlink:href="#b"/>
<use x="94.525717" y="274.580084" xlink:href="#b"/>
<use x="238.134216" y="274.580084" xlink:href="#b"/>
<use x="553.918495" y="517.086734" xlink:href="#b"/>
<use x="560.830527" y="152.595853" xlink:href="#b"/>
<use x="644.914664" y="517.086734" xlink:href="#b"/>
<use x="897.277371" y="274.580084" xlink:href="#b"/>
<use x="742.528736" y="517.086734" xlink:href="#b"/>
<use x="812.016719" y="517.086734" xlink:href="#b"/>
<use x="884.813654" y="517.086734" xlink:href="#b"/>
<use x="922.866597" y="396.150559" xlink:href="#b"/>
<use x="1124.161152" y="396.150559" xlink:href="#b"/>
<use x="1040.334378" y="517.086734" xlink:href="#b"/>
<use x="1123.058168" y="517.086734" xlink:href="#b"/>
<use x="960.91954" y="517.086734" xlink:href="#b"/>
<use x="128.718217" y="396.150559" xlink:href="#b"/>
<use x="166.77116" y="517.086734" xlink:href="#b"/>
<use x="213.096482" y="396.150559" xlink:href="#b"/>
<use x="285.893417" y="396.150559" xlink:href="#b"/>
<use x="396.191803" y="396.150559" xlink:href="#b"/>
<use x="348.763497" y="517.086734" xlink:href="#b"/>
<use x="395.088819" y="517.086734" xlink:href="#b"/>
<use x="444.723093" y="517.086734" xlink:href="#b"/>
<use x="266.039707" y="517.086734" xlink:href="#b"/>
<use x="305.747126" y="517.086734" xlink:href="#b"/>
<use x="196.551724" y="517.086734" xlink:href="#b"/>
<use x="229.64124" y="517.086734" xlink:href="#b"/>
<use x="117.136886" y="517.086734" xlink:href="#b"/>
<use x="140.299547" y="517.086734" xlink:href="#b"/>
<use x="62.539185" y="396.150559" xlink:href="#b"/>
<use x="80.738419" y="517.086734" xlink:href="#b"/>
<use x="57.575758" y="517.086734" xlink:href="#b"/>
<use x="67.502612" y="517.086734" xlink:href="#b"/>
<use x="97.283177" y="517.086734" xlink:href="#b"/>
<use x="497.666318" y="517.086734" xlink:href="#b"/>
<use x="1209.090909" y="517.086734" xlink:href="#b"/>
</g>
<g clip-path="url(#a)">
<g transform="translate(51.008 639.12) scale(.1 -.1)">
<use xlink:href="#o"/>
<use x="69.824219" xlink:href="#d"/>
</g>
</g>
<g clip-path="url(#a)">
<g transform="translate(38.906 639.12) scale(.1 -.1)">
<defs>
<path id="at" d="m56.203 29.594v-4.3906h-41.312q0.59375-9.2812 5.5938-14.141t13.938-4.8594q5.1719 0 10.031 1.2656t9.6562 3.8125v-8.5q-4.8438-2.0469-9.9219-3.125t-10.297-1.0781q-13.094 0-20.734 7.6094-7.6406 7.625-7.6406 20.625 0 13.422 7.25 21.297 7.25 7.8906 19.562 7.8906 11.031 0 17.453-7.1094 6.4219-7.0938 6.4219-19.297zm-8.9844 2.6406q-0.09375 7.3594-4.125 11.75-4.0312 4.4062-10.672 4.4062-7.5156 0-12.031-4.25t-5.2031-11.969zm-22.547 47.75 13.766-18.266h-7.4688l-15.922 18.266z"/>
<path id="ap" d="m2.9844 54.688h9.5156l17.094-45.891 17.094 45.891h9.5156l-20.516-54.688h-12.203z"/>
<path id="p" d="m18.312 70.219v-15.531h18.5v-6.9844h-18.5v-29.688q0-6.6875 1.8281-8.5938t7.4531-1.9062h9.2188v-7.5156h-9.2188q-10.406 0-14.359 3.875-3.9531 3.8906-3.9531 14.141v29.688h-6.5938v6.9844h6.5938v15.531z"/>
</defs>
<use xlink:href="#g"/>
<use x="38.863281" xlink:href="#d"/>
<use x="100.386719" xlink:href="#j"/>
<use x="128.169922" xlink:href="#at"/>
<use x="189.693359" xlink:href="#ap"/>
<use x="248.873047" xlink:href="#d"/>
<use x="310.396484" xlink:href="#k"/>
<use x="407.808594" xlink:href="#d"/>
<use x="469.332031" xlink:href="#i"/>
<use x="532.710938" xlink:href="#p"/>
</g>
</g>
<g clip-path="url(#a)">
<g transform="translate(72.565 639.12) scale(.1 -.1)">
<defs>
<path id="ak" d="m37.109 75.984v-7.4844h-8.5938q-4.8281 0-6.7188-1.9531-1.875-1.9531-1.875-7.0312v-4.8281h14.797v-6.9844h-14.797v-47.703h-9.0312v47.703h-8.5938v6.9844h8.5938v3.8125q0 9.125 4.25 13.297 4.25 4.1875 13.469 4.1875z"/>
</defs>
<use xlink:href="#ak"/>
<use x="35.205078" xlink:href="#f"/>
<use x="96.484375" xlink:href="#h"/>
<use x="124.267578" xlink:href="#p"/>
</g>
</g>
<g clip-path="url(#a)">
<g transform="translate(95.694 639.12) scale(.1 -.1)">
<defs>
<path id="an" d="m11.719 12.406h10.297v-8.4062l-8-15.625h-6.2969l4 15.625z"/>
</defs>
<use xlink:href="#an"/>
</g>
</g>
<g clip-path="url(#a)">
<g transform="translate(112.68 639.12) scale(.1 -.1)">
<use xlink:href="#j"/>
<use x="27.783203" xlink:href="#f"/>
</g>
</g>
<g clip-path="url(#a)">
<g transform="translate(122.24 639.32) scale(.1 -.1)">
<defs>
<path id="ai" d="m56.203 29.594v-4.3906h-41.312q0.59375-9.2812 5.5938-14.141t13.938-4.8594q5.1719 0 10.031 1.2656t9.6562 3.8125v-8.5q-4.8438-2.0469-9.9219-3.125t-10.297-1.0781q-13.094 0-20.734 7.6094-7.6406 7.625-7.6406 20.625 0 13.422 7.25 21.297 7.25 7.8906 19.562 7.8906 11.031 0 17.453-7.1094 6.4219-7.0938 6.4219-19.297zm-8.9844 2.6406q-0.09375 7.3594-4.125 11.75-4.0312 4.4062-10.672 4.4062-7.5156 0-12.031-4.25t-5.2031-11.969zm-8.6875 47.75h9.7188l-15.906-18.359h-7.4844z"/>
<path id="aj" d="m45.406 27.984q0 9.7656-4.0312 15.125-4.0156 5.375-11.297 5.375-7.2188 0-11.25-5.375-4.0312-5.3594-4.0312-15.125 0-9.7188 4.0312-15.094t11.25-5.375q7.2812 0 11.297 5.375 4.0312 5.375 4.0312 15.094zm8.9844-21.203q0-13.953-6.2031-20.766-6.1875-6.8125-18.984-6.8125-4.7344 0-8.9375 0.70312t-8.1562 2.1719v8.7344q3.9531-2.1406 7.8125-3.1562 3.8594-1.0312 7.8594-1.0312 8.8438 0 13.234 4.6094t4.3906 13.938v4.4531q-2.7812-4.8438-7.125-7.2344t-10.406-2.3906q-10.047 0-16.203 7.6562-6.1562 7.6719-6.1562 20.328 0 12.688 6.1562 20.344 6.1562 7.6719 16.203 7.6719 6.0625 0 10.406-2.3906t7.125-7.2188v8.2969h8.9844z"/>
</defs>
<use xlink:href="#ak"/>
<use x="35.205078" xlink:href="#g"/>
<use x="74.068359" xlink:href="#ai"/>
<use x="135.591797" xlink:href="#aj"/>
<use x="199.068359" xlink:href="#f"/>
<use x="260.347656" xlink:href="#p"/>
<use x="299.556641" xlink:href="#d"/>
</g>
</g>
<g clip-path="url(#a)">
<g transform="translate(158.19 639.12) scale(.1 -.1)">
<defs>
<path id="aq" d="m18.109 8.2031v-29h-9.0312v75.484h9.0312v-8.2969q2.8438 4.875 7.1562 7.2344 4.3281 2.375 10.328 2.375 9.9688 0 16.188-7.9062 6.2344-7.9062 6.2344-20.797t-6.2344-20.812q-6.2188-7.9062-16.188-7.9062-6 0-10.328 2.375-4.3125 2.375-7.1562 7.25zm30.578 19.094q0 9.9062-4.0781 15.547t-11.203 5.6406q-7.1406 0-11.219-5.6406t-4.0781-15.547 4.0781-15.547 11.219-5.6406q7.125 0 11.203 5.6406t4.0781 15.547z"/>
</defs>
<use xlink:href="#aq"/>
<use x="63.476562" xlink:href="#g"/>
<use x="104.589844" xlink:href="#h"/>
<use x="132.373047" xlink:href="#p"/>
</g>
</g>
<g clip-path="url(#a)">
<g transform="translate(187.14 639.12) scale(.1 -.1)">
<defs>
<path id="s" d="m8.5 21.578v33.109h8.9844v-32.766q0-7.7656 3.0156-11.656 3.0312-3.875 9.0938-3.875 7.2656 0 11.484 4.6406 4.2344 4.6406 4.2344 12.656v31h8.9844v-54.688h-8.9844v8.4062q-3.2656-4.9844-7.5938-7.4062-4.3125-2.4219-10.031-2.4219-9.4219 0-14.312 5.8594-4.875 5.8594-4.875 17.141z"/>
</defs>
<use xlink:href="#s"/>
<use x="63.378906" xlink:href="#i"/>
<use x="126.757812" xlink:href="#d"/>
</g>
</g>
<g clip-path="url(#a)">
<g transform="translate(207.73 639.12) scale(.1 -.1)">
<defs>
<path id="t" d="m45.406 46.391v29.594h8.9844v-75.984h-8.9844v8.2031q-2.8281-4.875-7.1562-7.25-4.3125-2.375-10.375-2.375-9.9062 0-16.141 7.9062-6.2188 7.9219-6.2188 20.812t6.2188 20.797q6.2344 7.9062 16.141 7.9062 6.0625 0 10.375-2.375 4.3281-2.3594 7.1562-7.2344zm-30.609-19.094q0-9.9062 4.0781-15.547t11.203-5.6406 11.219 5.6406q4.1094 5.6406 4.1094 15.547t-4.1094 15.547q-4.0938 5.6406-11.219 5.6406t-11.203-5.6406-4.0781-15.547z"/>
<path id="u" d="m48.781 52.594v-8.4062q-3.8125 2.1094-7.6406 3.1562t-7.7344 1.0469q-8.75 0-13.594-5.5469-4.8281-5.5312-4.8281-15.547t4.8281-15.562q4.8438-5.5312 13.594-5.5312 3.9062 0 7.7344 1.0469t7.6406 3.1562v-8.3125q-3.7656-1.75-7.7969-2.625-4.0156-0.89062-8.5625-0.89062-12.359 0-19.641 7.7656-7.2656 7.7656-7.2656 20.953 0 13.375 7.3438 21.031 7.3594 7.6719 20.156 7.6719 4.1406 0 8.0938-0.85938 3.9531-0.84375 7.6719-2.5469z"/>
<path id="ar" d="m30.609 48.391q-7.2188 0-11.422-5.6406t-4.2031-15.453 4.1719-15.453q4.1875-5.6406 11.453-5.6406 7.1875 0 11.375 5.6562 4.2031 5.6719 4.2031 15.438 0 9.7188-4.2031 15.406-4.1875 5.6875-11.375 5.6875zm0 7.6094q11.719 0 18.406-7.625 6.7031-7.6094 6.7031-21.078 0-13.422-6.7031-21.078-6.6875-7.6406-18.406-7.6406-11.766 0-18.438 7.6406-6.6562 7.6562-6.6562 21.078 0 13.469 6.6562 21.078 6.6719 7.625 18.438 7.625z"/>
</defs>
<use xlink:href="#t"/>
<use x="63.476562" xlink:href="#h"/>
<use x="91.259766" xlink:href="#g"/>
<use x="130.123047" xlink:href="#d"/>
<use x="191.646484" xlink:href="#u"/>
<use x="246.626953" xlink:href="#p"/>
<use x="285.835938" xlink:href="#h"/>
<use x="313.619141" xlink:href="#ar"/>
<use x="374.800781" xlink:href="#i"/>
</g>
</g>
<g clip-path="url(#a)">
<g transform="translate(255.7 639.12) scale(.1 -.1)">
<defs>
<path id="q" d="m44.281 53.078v-8.5q-3.7969 1.9531-7.9062 2.9219-4.0938 0.98438-8.5 0.98438-6.6875 0-10.031-2.0469t-3.3438-6.1562q0-3.125 2.3906-4.9062t9.625-3.3906l3.0781-0.6875q9.5625-2.0469 13.594-5.7812t4.0312-10.422q0-7.625-6.0312-12.078-6.0312-4.4375-16.578-4.4375-4.3906 0-9.1562 0.85938t-10.031 2.5625v9.2812q4.9844-2.5938 9.8125-3.8906 4.8281-1.2812 9.5781-1.2812 6.3438 0 9.75 2.1719 3.4219 2.1719 3.4219 6.125 0 3.6562-2.4688 5.6094-2.4531 1.9531-10.812 3.7656l-3.125 0.73438q-8.3438 1.75-12.062 5.3906-3.7031 3.6406-3.7031 9.9844 0 7.7188 5.4688 11.906 5.4688 4.2031 15.531 4.2031 4.9688 0 9.3594-0.73438 4.4062-0.71875 8.1094-2.1875z"/>
</defs>
<use xlink:href="#aq"/>
<use x="63.476562" xlink:href="#j"/>
<use x="91.259766" xlink:href="#s"/>
<use x="154.638672" xlink:href="#q"/>
</g>
</g>
<g clip-path="url(#a)">
<g transform="translate(286.03 639.12) scale(.1 -.1)">
<use xlink:href="#t"/>
<use x="63.476562" xlink:href="#ai"/>
<use x="125" xlink:href="#u"/>
<use x="179.980469" xlink:href="#h"/>
<use x="207.763672" xlink:href="#t"/>
<use x="271.240234" xlink:href="#ai"/>
<use x="332.763672" xlink:href="#d"/>
</g>
</g>
<g clip-path="url(#a)">
<g transform="translate(338.07 639.12) scale(.1 -.1)">
<use xlink:href="#ap"/>
<use x="59.179688" xlink:href="#d"/>
<use x="120.703125" xlink:href="#g"/>
<use x="161.816406" xlink:href="#q"/>
</g>
</g>
<g clip-path="url(#a)">
<g transform="translate(392.33 639.12) scale(.1 -.1)">
<defs>
<path id="ao" d="m17.922 72.906v-27.109h-8.2969v27.109z"/>
</defs>
<use xlink:href="#j"/>
<use x="27.783203" xlink:href="#ao"/>
</g>
</g>
<g clip-path="url(#a)">
<g transform="translate(430.85 639.12) scale(.1 -.1)">
<use xlink:href="#ar"/>
<use x="61.181641" xlink:href="#s"/>
<use x="124.560547" xlink:href="#d"/>
<use x="186.083984" xlink:href="#q"/>
<use x="238.183594" xlink:href="#p"/>
</g>
</g>
<g clip-path="url(#a)">
<g transform="translate(496.08 639.12) scale(.1 -.1)">
<use xlink:href="#an"/>
</g>
</g>
<g clip-path="url(#a)">
<g transform="translate(548.88 639.12) scale(.1 -.1)">
<use xlink:href="#d"/>
<use x="61.523438" xlink:href="#p"/>
</g>
</g>
<g clip-path="url(#a)">
<g transform="translate(609.5 639.12) scale(.1 -.1)">
<use xlink:href="#q"/>
<use x="52.099609" xlink:href="#ao"/>
</g>
</g>
<g clip-path="url(#a)">
<g transform="translate(654.55 639.12) scale(.1 -.1)">
<use xlink:href="#d"/>
<use x="61.523438" xlink:href="#i"/>
<use x="124.902344" xlink:href="#aj"/>
<use x="188.378906" xlink:href="#f"/>
<use x="249.658203" xlink:href="#aj"/>
<use x="313.134766" xlink:href="#d"/>
<use x="374.658203" xlink:href="#f"/>
</g>
</g>
<g clip-path="url(#a)">
<g transform="translate(730.52 639.12) scale(.1 -.1)">
<use xlink:href="#t"/>
<use x="63.476562" xlink:href="#f"/>
<use x="124.755859" xlink:href="#i"/>
<use x="188.134766" xlink:href="#q"/>
</g>
</g>
<g clip-path="url(#a)">
<g transform="translate(804.95 639.12) scale(.1 -.1)">
<use xlink:href="#j"/>
<use x="27.783203" xlink:href="#d"/>
<use x="89.306641" xlink:href="#q"/>
</g>
</g>
<g clip-path="url(#a)">
<g transform="translate(872.21 639.12) scale(.1 -.1)">
<use xlink:href="#k"/>
<use x="97.412109" xlink:href="#d"/>
<use x="158.935547" xlink:href="#g"/>
<use x="200.048828" xlink:href="#q"/>
</g>
</g>
<g clip-path="url(#a)">
<g transform="translate(937.78 639.12) scale(.1 -.1)">
<use xlink:href="#u"/>
<use x="54.980469" xlink:href="#d"/>
<use x="116.503906" xlink:href="#i"/>
<use x="179.882812" xlink:href="#p"/>
<use x="219.091797" xlink:href="#g"/>
<use x="260.205078" xlink:href="#f"/>
<use x="321.484375" xlink:href="#j"/>
<use x="349.267578" xlink:href="#d"/>
<use x="410.791016" xlink:href="#q"/>
</g>
</g>
<g clip-path="url(#a)">
<g transform="translate(1034 639.12) scale(.1 -.1)">
<use xlink:href="#t"/>
<use x="63.476562" xlink:href="#s"/>
</g>
</g>
<g clip-path="url(#a)">
<g transform="translate(1100.5 639.12) scale(.1 -.1)">
<defs>
<path id="au" d="m14.797 27.297q0-9.9062 4.0781-15.547t11.203-5.6406 11.219 5.6406q4.1094 5.6406 4.1094 15.547t-4.1094 15.547q-4.0938 5.6406-11.219 5.6406t-11.203-5.6406-4.0781-15.547zm30.609-19.094q-2.8281-4.875-7.1562-7.25-4.3125-2.375-10.375-2.375-9.9062 0-16.141 7.9062-6.2188 7.9219-6.2188 20.812t6.2188 20.797q6.2344 7.9062 16.141 7.9062 6.0625 0 10.375-2.375 4.3281-2.3594 7.1562-7.2344v8.2969h8.9844v-75.484h-8.9844z"/>
</defs>
<use xlink:href="#ac"/>
<use x="55.802734" xlink:href="#f"/>
<use x="117.082031" xlink:href="#u"/>
<use x="172.0625" xlink:href="#h"/>
<use x="199.845703" xlink:href="#ak"/>
<use x="235.050781" xlink:href="#h"/>
<use x="262.833984" xlink:href="#au"/>
<use x="326.310547" xlink:href="#s"/>
<use x="389.689453" xlink:href="#d"/>
</g>
</g>
<g clip-path="url(#a)">
<g transform="translate(1207.5 639.12) scale(.1 -.1)">
<defs>
<path id="e" d="m10.688 12.406h10.312v-12.406h-10.312z"/>
</defs>
<use xlink:href="#e"/>
</g>
</g>
<g clip-path="url(#a)">
<g transform="translate(332.44 33.062) scale(.1 -.1)">
<defs>
<path id="c" d="m12.406 8.2969h16.109v55.625l-17.531-3.5156v8.9844l17.438 3.5156h9.8594v-64.609h16.109v-8.2969h-41.984z"/>
</defs>
<use xlink:href="#c"/>
<use x="63.623047" xlink:href="#e"/>
<use x="95.410156" xlink:href="#c"/>
</g>
</g>
<g clip-path="url(#a)">
<g transform="translate(86.574 277.34) scale(.1 -.1)">
<defs>
<path id="n" d="m19.188 8.2969h34.422v-8.2969h-46.281v8.2969q5.6094 5.8125 15.297 15.594 9.7031 9.7969 12.188 12.641 4.7344 5.3125 6.6094 9 1.8906 3.6875 1.8906 7.25 0 5.8125-4.0781 9.4688-4.0781 3.6719-10.625 3.6719-4.6406 0-9.7969-1.6094-5.1406-1.6094-11-4.8906v9.9688q5.9531 2.3906 11.125 3.6094 5.1875 1.2188 9.4844 1.2188 11.328 0 18.062-5.6719 6.7344-5.6562 6.7344-15.125 0-4.5-1.6875-8.5312-1.6719-4.0156-6.125-9.4844-1.2188-1.4219-7.7656-8.1875-6.5312-6.7656-18.453-18.922z"/>
</defs>
<use xlink:href="#c"/>
<use x="63.623047" xlink:href="#e"/>
<use x="95.410156" xlink:href="#n"/>
</g>
</g>
<g clip-path="url(#a)">
<g transform="translate(230.18 277.34) scale(.1 -.1)">
<defs>
<path id="m" d="m40.578 39.312q7.0781-1.5156 11.047-6.3125 3.9844-4.7812 3.9844-11.812 0-10.781-7.4219-16.703-7.4219-5.9062-21.094-5.9062-4.5781 0-9.4375 0.90625t-10.031 2.7188v9.5156q4.0938-2.3906 8.9688-3.6094 4.8906-1.2188 10.219-1.2188 9.2656 0 14.125 3.6562t4.8594 10.641q0 6.4531-4.5156 10.078-4.5156 3.6406-12.562 3.6406h-8.5v8.1094h8.8906q7.2656 0 11.125 2.9062t3.8594 8.375q0 5.6094-3.9844 8.6094-3.9688 3.0156-11.391 3.0156-4.0625 0-8.7031-0.89062-4.6406-0.875-10.203-2.7188v8.7812q5.625 1.5625 10.531 2.3438t9.25 0.78125q11.234 0 17.766-5.1094 6.5469-5.0938 6.5469-13.781 0-6.0625-3.4688-10.234t-9.8594-5.7812z"/>
</defs>
<use xlink:href="#c"/>
<use x="63.623047" xlink:href="#e"/>
<use x="95.410156" xlink:href="#m"/>
</g>
</g>
<g clip-path="url(#a)">
<g transform="translate(545.97 519.85) scale(.1 -.1)">
<defs>
<path id="z" d="m37.797 64.312-24.906-38.922h24.906zm-2.5938 8.5938h12.406v-47.516h10.406v-8.2031h-10.406v-17.188h-9.8125v17.188h-32.906v9.5156z"/>
</defs>
<use xlink:href="#c"/>
<use x="63.623047" xlink:href="#e"/>
<use x="95.410156" xlink:href="#z"/>
</g>
</g>
<g clip-path="url(#a)">
<g transform="translate(552.88 155.36) scale(.1 -.1)">
<defs>
<path id="y" d="m10.797 72.906h38.719v-8.3125h-29.688v-17.859q2.1406 0.73438 4.2812 1.0938 2.1562 0.35938 4.3125 0.35938 12.203 0 19.328-6.6875 7.1406-6.6875 7.1406-18.109 0-11.766-7.3281-18.297-7.3281-6.5156-20.656-6.5156-4.5938 0-9.3594 0.78125-4.75 0.78125-9.8281 2.3438v9.9219q4.3906-2.3906 9.0781-3.5625t9.9062-1.1719q8.4531 0 13.375 4.4375 4.9375 4.4375 4.9375 12.062 0 7.6094-4.9375 12.047-4.9219 4.4531-13.375 4.4531-3.9531 0-7.8906-0.875-3.9219-0.875-8.0156-2.7344z"/>
</defs>
<use xlink:href="#c"/>
<use x="63.623047" xlink:href="#e"/>
<use x="95.410156" xlink:href="#y"/>
</g>
</g>
<g clip-path="url(#a)">
<g transform="translate(636.96 519.85) scale(.1 -.1)">
<defs>
<path id="x" d="m10.984 1.5156v8.9844q3.7188-1.7656 7.5156-2.6875 3.8125-0.92188 7.4844-0.92188 9.7656 0 14.906 6.5625 5.1562 6.5625 5.8906 19.953-2.8281-4.2031-7.1875-6.4531-4.3438-2.25-9.6094-2.25-10.938 0-17.312 6.6094-6.375 6.625-6.375 18.109 0 11.219 6.6406 18 6.6406 6.7969 17.672 6.7969 12.656 0 19.312-9.7031 6.6719-9.6875 6.6719-28.141 0-17.234-8.1875-27.516-8.1719-10.281-21.984-10.281-3.7188 0-7.5312 0.73438-3.7969 0.73438-7.9062 2.2031zm19.625 30.906q6.6406 0 10.516 4.5312 3.8906 4.5469 3.8906 12.469 0 7.8594-3.8906 12.422-3.875 4.5625-10.516 4.5625t-10.516-4.5625-3.875-12.422q0-7.9219 3.875-12.469 3.875-4.5312 10.516-4.5312z"/>
</defs>
<use xlink:href="#c"/>
<use x="63.623047" xlink:href="#e"/>
<use x="95.410156" xlink:href="#x"/>
</g>
</g>
<g clip-path="url(#a)">
<g transform="translate(886.14 277.34) scale(.1 -.1)">
<defs>
<path id="ah" d="m31.781 66.406q-7.6094 0-11.453-7.5-3.8281-7.4844-3.8281-22.531 0-14.984 3.8281-22.484 3.8438-7.5 11.453-7.5 7.6719 0 11.5 7.5 3.8438 7.5 3.8438 22.484 0 15.047-3.8438 22.531-3.8281 7.5-11.5 7.5zm0 7.8125q12.266 0 18.734-9.7031 6.4688-9.6875 6.4688-28.141 0-18.406-6.4688-28.109-6.4688-9.6875-18.734-9.6875-12.25 0-18.719 9.6875-6.4688 9.7031-6.4688 28.109 0 18.453 6.4688 28.141 6.4688 9.7031 18.719 9.7031z"/>
</defs>
<use xlink:href="#c"/>
<use x="63.623047" xlink:href="#e"/>
<use x="95.410156" xlink:href="#c"/>
<use x="159.033203" xlink:href="#ah"/>
</g>
</g>
<g clip-path="url(#a)">
<g transform="translate(731.4 519.85) scale(.1 -.1)">
<use xlink:href="#c"/>
<use x="63.623047" xlink:href="#e"/>
<use x="95.410156" xlink:href="#c"/>
<use x="159.033203" xlink:href="#c"/>
</g>
</g>
<g clip-path="url(#a)">
<g transform="translate(800.88 519.85) scale(.1 -.1)">
<use xlink:href="#c"/>
<use x="63.623047" xlink:href="#e"/>
<use x="95.410156" xlink:href="#c"/>
<use x="159.033203" xlink:href="#n"/>
</g>
</g>
<g clip-path="url(#a)">
<g transform="translate(873.68 519.85) scale(.1 -.1)">
<use xlink:href="#c"/>
<use x="63.623047" xlink:href="#e"/>
<use x="95.410156" xlink:href="#c"/>
<use x="159.033203" xlink:href="#m"/>
</g>
</g>
<g clip-path="url(#a)">
<g transform="translate(911.73 398.91) scale(.1 -.1)">
<use xlink:href="#c"/>
<use x="63.623047" xlink:href="#e"/>
<use x="95.410156" xlink:href="#c"/>
<use x="159.033203" xlink:href="#z"/>
</g>
</g>
<g clip-path="url(#a)">
<g transform="translate(1113 398.91) scale(.1 -.1)">
<use xlink:href="#c"/>
<use x="63.623047" xlink:href="#e"/>
<use x="95.410156" xlink:href="#c"/>
<use x="159.033203" xlink:href="#y"/>
</g>
</g>
<g clip-path="url(#a)">
<g transform="translate(1029.2 519.85) scale(.1 -.1)">
<defs>
<path id="ag" d="m33.016 40.375q-6.6406 0-10.531-4.5469-3.875-4.5312-3.875-12.438 0-7.8594 3.875-12.438 3.8906-4.5625 10.531-4.5625t10.516 4.5625q3.875 4.5781 3.875 12.438 0 7.9062-3.875 12.438-3.875 4.5469-10.516 4.5469zm19.578 30.922v-8.9844q-3.7188 1.75-7.5 2.6719-3.7812 0.9375-7.5 0.9375-9.7656 0-14.922-6.5938-5.1406-6.5938-5.875-19.922 2.875 4.25 7.2188 6.5156 4.3594 2.2656 9.5781 2.2656 10.984 0 17.359-6.6719 6.375-6.6562 6.375-18.125 0-11.234-6.6406-18.031-6.6406-6.7812-17.672-6.7812-12.656 0-19.344 9.6875-6.6875 9.7031-6.6875 28.109 0 17.281 8.2031 27.562t22.016 10.281q3.7188 0 7.5-0.73438t7.8906-2.1875z"/>
</defs>
<use xlink:href="#c"/>
<use x="63.623047" xlink:href="#e"/>
<use x="95.410156" xlink:href="#c"/>
<use x="159.033203" xlink:href="#ag"/>
</g>
</g>
<g clip-path="url(#a)">
<g transform="translate(1111.9 519.85) scale(.1 -.1)">
<defs>
<path id="af" d="m8.2031 72.906h46.875v-4.2031l-26.469-68.703h-10.297l24.906 64.594h-35.016z"/>
</defs>
<use xlink:href="#c"/>
<use x="63.623047" xlink:href="#e"/>
<use x="95.410156" xlink:href="#c"/>
<use x="159.033203" xlink:href="#af"/>
</g>
</g>
<g clip-path="url(#a)">
<g transform="translate(949.79 519.85) scale(.1 -.1)">
<defs>
<path id="ae" d="m31.781 34.625q-7.0312 0-11.062-3.7656-4.0156-3.7656-4.0156-10.344 0-6.5938 4.0156-10.359 4.0312-3.7656 11.062-3.7656t11.078 3.7812q4.0625 3.7969 4.0625 10.344 0 6.5781-4.0312 10.344-4.0156 3.7656-11.109 3.7656zm-9.8594 4.1875q-6.3438 1.5625-9.8906 5.9062-3.5312 4.3594-3.5312 10.609 0 8.7344 6.2188 13.812 6.2344 5.0781 17.062 5.0781 10.891 0 17.094-5.0781t6.2031-13.812q0-6.25-3.5469-10.609-3.5312-4.3438-9.8281-5.9062 7.125-1.6562 11.094-6.5 3.9844-4.8281 3.9844-11.797 0-10.609-6.4688-16.281-6.4688-5.6562-18.531-5.6562-12.047 0-18.531 5.6562-6.4688 5.6719-6.4688 16.281 0 6.9688 4 11.797 4.0156 4.8438 11.141 6.5zm-3.6094 15.578q0-5.6562 3.5312-8.8281 3.5469-3.1719 9.9375-3.1719 6.3594 0 9.9375 3.1719 3.5938 3.1719 3.5938 8.8281 0 5.6719-3.5938 8.8438-3.5781 3.1719-9.9375 3.1719-6.3906 0-9.9375-3.1719-3.5312-3.1719-3.5312-8.8438z"/>
</defs>
<use xlink:href="#c"/>
<use x="63.623047" xlink:href="#e"/>
<use x="95.410156" xlink:href="#c"/>
<use x="159.033203" xlink:href="#ae"/>
</g>
</g>
<g clip-path="url(#a)">
<g transform="translate(117.59 398.91) scale(.1 -.1)">
<use xlink:href="#c"/>
<use x="63.623047" xlink:href="#e"/>
<use x="95.410156" xlink:href="#c"/>
<use x="159.033203" xlink:href="#x"/>
</g>
</g>
<g clip-path="url(#a)">
<g transform="translate(155.64 519.85) scale(.1 -.1)">
<use xlink:href="#c"/>
<use x="63.623047" xlink:href="#e"/>
<use x="95.410156" xlink:href="#n"/>
<use x="159.033203" xlink:href="#ah"/>
</g>
</g>
<g clip-path="url(#a)">
<g transform="translate(201.96 398.91) scale(.1 -.1)">
<use xlink:href="#c"/>
<use x="63.623047" xlink:href="#e"/>
<use x="95.410156" xlink:href="#n"/>
<use x="159.033203" xlink:href="#c"/>
</g>
</g>
<g clip-path="url(#a)">
<g transform="translate(274.76 398.91) scale(.1 -.1)">
<use xlink:href="#c"/>
<use x="63.623047" xlink:href="#e"/>
<use x="95.410156" xlink:href="#n"/>
<use x="159.033203" xlink:href="#n"/>
</g>
</g>
<g clip-path="url(#a)">
<g transform="translate(385.06 398.91) scale(.1 -.1)">
<use xlink:href="#c"/>
<use x="63.623047" xlink:href="#e"/>
<use x="95.410156" xlink:href="#n"/>
<use x="159.033203" xlink:href="#m"/>
</g>
</g>
<g clip-path="url(#a)">
<g transform="translate(337.63 519.85) scale(.1 -.1)">
<use xlink:href="#c"/>
<use x="63.623047" xlink:href="#e"/>
<use x="95.410156" xlink:href="#n"/>
<use x="159.033203" xlink:href="#z"/>
</g>
</g>
<g clip-path="url(#a)">
<g transform="translate(383.96 519.85) scale(.1 -.1)">
<use xlink:href="#c"/>
<use x="63.623047" xlink:href="#e"/>
<use x="95.410156" xlink:href="#n"/>
<use x="159.033203" xlink:href="#y"/>
</g>
</g>
<g clip-path="url(#a)">
<g transform="translate(433.59 519.85) scale(.1 -.1)">
<use xlink:href="#c"/>
<use x="63.623047" xlink:href="#e"/>
<use x="95.410156" xlink:href="#n"/>
<use x="159.033203" xlink:href="#ag"/>
</g>
</g>
<g clip-path="url(#a)">
<g transform="translate(254.91 519.85) scale(.1 -.1)">
<use xlink:href="#c"/>
<use x="63.623047" xlink:href="#e"/>
<use x="95.410156" xlink:href="#n"/>
<use x="159.033203" xlink:href="#af"/>
</g>
</g>
<g clip-path="url(#a)">
<g transform="translate(294.61 519.85) scale(.1 -.1)">
<use xlink:href="#c"/>
<use x="63.623047" xlink:href="#e"/>
<use x="95.410156" xlink:href="#n"/>
<use x="159.033203" xlink:href="#ae"/>
</g>
</g>
<g clip-path="url(#a)">
<g transform="translate(185.42 519.85) scale(.1 -.1)">
<use xlink:href="#c"/>
<use x="63.623047" xlink:href="#e"/>
<use x="95.410156" xlink:href="#n"/>
<use x="159.033203" xlink:href="#x"/>
</g>
</g>
<g clip-path="url(#a)">
<g transform="translate(218.51 519.85) scale(.1 -.1)">
<use xlink:href="#c"/>
<use x="63.623047" xlink:href="#e"/>
<use x="95.410156" xlink:href="#m"/>
<use x="159.033203" xlink:href="#ah"/>
</g>
</g>
<g clip-path="url(#a)">
<g transform="translate(106 519.85) scale(.1 -.1)">
<use xlink:href="#c"/>
<use x="63.623047" xlink:href="#e"/>
<use x="95.410156" xlink:href="#m"/>
<use x="159.033203" xlink:href="#c"/>
</g>
</g>
<g clip-path="url(#a)">
<g transform="translate(129.17 519.85) scale(.1 -.1)">
<use xlink:href="#c"/>
<use x="63.623047" xlink:href="#e"/>
<use x="95.410156" xlink:href="#m"/>
<use x="159.033203" xlink:href="#n"/>
</g>
</g>
<g clip-path="url(#a)">
<g transform="translate(51.406 398.91) scale(.1 -.1)">
<use xlink:href="#c"/>
<use x="63.623047" xlink:href="#e"/>
<use x="95.410156" xlink:href="#m"/>
<use x="159.033203" xlink:href="#m"/>
</g>
</g>
<g clip-path="url(#a)">
<g transform="translate(69.606 519.85) scale(.1 -.1)">
<use xlink:href="#c"/>
<use x="63.623047" xlink:href="#e"/>
<use x="95.410156" xlink:href="#m"/>
<use x="159.033203" xlink:href="#z"/>
</g>
</g>
<g clip-path="url(#a)">
<g transform="translate(46.443 519.85) scale(.1 -.1)">
<use xlink:href="#c"/>
<use x="63.623047" xlink:href="#e"/>
<use x="95.410156" xlink:href="#m"/>
<use x="159.033203" xlink:href="#y"/>
</g>
</g>
<g clip-path="url(#a)">
<g transform="translate(56.37 519.85) scale(.1 -.1)">
<use xlink:href="#c"/>
<use x="63.623047" xlink:href="#e"/>
<use x="95.410156" xlink:href="#m"/>
<use x="159.033203" xlink:href="#ag"/>
</g>
</g>
<g clip-path="url(#a)">
<g transform="translate(86.15 519.85) scale(.1 -.1)">
<use xlink:href="#c"/>
<use x="63.623047" xlink:href="#e"/>
<use x="95.410156" xlink:href="#m"/>
<use x="159.033203" xlink:href="#af"/>
</g>
</g>
<g clip-path="url(#a)">
<g transform="translate(486.53 519.85) scale(.1 -.1)">
<use xlink:href="#c"/>
<use x="63.623047" xlink:href="#e"/>
<use x="95.410156" xlink:href="#m"/>
<use x="159.033203" xlink:href="#ae"/>
</g>
</g>
<g clip-path="url(#a)">
<g transform="translate(1198 519.85) scale(.1 -.1)">
<use xlink:href="#c"/>
<use x="63.623047" xlink:href="#e"/>
<use x="95.410156" xlink:href="#m"/>
<use x="159.033203" xlink:href="#x"/>
</g>
</g>
<defs>
<clipPath id="a">
<rect width="1266.7" height="666.67"/>
</clipPath>
</defs>
</svg>
