<?xml version="1.0" encoding="UTF-8"?>
<!DOCTYPE svg  PUBLIC '-//W3C//DTD SVG 1.1//EN'  'http://www.w3.org/Graphics/SVG/1.1/DTD/svg11.dtd'>
<svg width="1114.7pt" height="586.67pt" version="1.1" viewBox="0 0 1114.7 586.67" xmlns="http://www.w3.org/2000/svg" xmlns:xlink="http://www.w3.org/1999/xlink">
<metadata>
<rdf:RDF xmlns:cc="http://creativecommons.org/ns#" xmlns:dc="http://purl.org/dc/elements/1.1/" xmlns:rdf="http://www.w3.org/1999/02/22-rdf-syntax-ns#">
<cc:Work>
<dc:type rdf:resource="http://purl.org/dc/dcmitype/StillImage"/>
<dc:date>2021-06-09T07:18:33.619668</dc:date>
<dc:format>image/svg+xml</dc:format>
<dc:creator>
<cc:Agent>
<dc:title>Matplotlib v3.3.3, https://matplotlib.org/</dc:title>
</cc:Agent>
</dc:creator>
</cc:Work>
</rdf:RDF>
</metadata>
<defs>
<style type="text/css">*{stroke-linecap:butt;stroke-linejoin:round;}</style>
</defs>
<path d="m0 586.67h1114.7v-586.67h-1114.7z" fill="#fff"/>
<g fill="none" stroke="#000">
<path d="m216.29 26.667-107.16 230.27" clip-path="url(#a)"/>
<path d="m216.29 26.667 27.392 458.61" clip-path="url(#a)"/>
<path d="m216.29 26.667 89.497 76.895" clip-path="url(#a)"/>
<path d="m216.29 26.667-9.7264 458.61" clip-path="url(#a)"/>
<path d="m109.13 256.94-46.398 76.418" clip-path="url(#a)"/>
<path d="m109.13 256.94-2.7839 228.34" clip-path="url(#a)"/>
<path d="m109.13 256.94 49.182 152.58" clip-path="url(#a)"/>
<path d="m243.68 485.28v74.722" clip-path="url(#a)"/>
<path d="m305.79 103.56 0.9967 381.72" clip-path="url(#a)"/>
<path d="m305.79 103.56 228.14 76.766" clip-path="url(#a)"/>
<path d="m305.79 103.56-229.14 381.72" clip-path="url(#a)" stroke-dasharray="3.7,1.6"/>
<path d="m306.78 485.28-22.271 74.722" clip-path="url(#a)"/>
<path d="m306.78 485.28 22.271 74.722" clip-path="url(#a)"/>
<path d="m533.93 180.33-156.62 304.95" clip-path="url(#a)"/>
<path d="m533.93 180.33 156.62 76.612" clip-path="url(#a)"/>
<path d="m377.31 485.28v74.722" clip-path="url(#a)"/>
<path d="m690.55 256.94-174.04 76.418" clip-path="url(#a)"/>
<path d="m690.55 256.94-16.291 228.34" clip-path="url(#a)"/>
<path d="m690.55 256.94 190.34 76.418" clip-path="url(#a)"/>
<path d="m516.5 333.36-59.39 76.159" clip-path="url(#a)"/>
<path d="m516.5 333.36 59.389 76.159" clip-path="url(#a)"/>
<path d="m674.26 485.28v74.722" clip-path="url(#a)"/>
<path d="m880.88 333.36-98.982 76.159" clip-path="url(#a)"/>
<path d="m880.88 333.36 98.982 76.159" clip-path="url(#a)"/>
<path d="m781.9 409.52-37.118 75.762" clip-path="url(#a)"/>
<path d="m781.9 409.52 37.118 75.762" clip-path="url(#a)"/>
<path d="m979.86 409.52-82.898 75.762" clip-path="url(#a)"/>
<path d="m979.86 409.52-1.2373 75.762" clip-path="url(#a)"/>
<path d="m979.86 409.52 84.135 75.762" clip-path="url(#a)"/>
<path d="m896.97 485.28v74.722" clip-path="url(#a)"/>
<path d="m978.63 485.28v74.722" clip-path="url(#a)"/>
<path d="m744.78 485.28v74.722" clip-path="url(#a)"/>
<path d="m819.02 485.28v74.722" clip-path="url(#a)"/>
<path d="m457.11 409.52-27.839 75.762" clip-path="url(#a)"/>
<path d="m457.11 409.52 27.839 75.762" clip-path="url(#a)"/>
<path d="m575.89 409.52-31.551 75.762" clip-path="url(#a)"/>
<path d="m575.89 409.52 31.551 75.762" clip-path="url(#a)"/>
<path d="m544.34 485.28v74.722" clip-path="url(#a)"/>
<path d="m607.44 485.28v74.722" clip-path="url(#a)"/>
<path d="m429.27 485.28v74.722" clip-path="url(#a)"/>
<path d="m484.95 485.28v74.722" clip-path="url(#a)"/>
<path d="m62.73 333.36 0.92796 76.159" clip-path="url(#a)"/>
<path d="m62.73 333.36-0.92796 151.92" clip-path="url(#a)"/>
<path d="m106.34 485.28-11.136 74.722" clip-path="url(#a)"/>
<path d="m106.34 485.28 11.136 74.722" clip-path="url(#a)"/>
<path d="m158.31 409.52-14.847 75.762" clip-path="url(#a)"/>
<path d="m158.31 409.52 14.847 75.762" clip-path="url(#a)"/>
<path d="m143.46 485.28v74.722" clip-path="url(#a)"/>
<path d="m173.16 485.28v74.722" clip-path="url(#a)"/>
<path d="m63.658 409.52-12.991 75.762" clip-path="url(#a)"/>
<path d="m63.658 409.52 12.991 75.762" clip-path="url(#a)"/>
<path d="m61.802 485.28v74.722" clip-path="url(#a)"/>
<path d="m50.667 485.28v74.722" clip-path="url(#a)"/>
<path d="m76.65 485.28v74.722" clip-path="url(#a)"/>
<path d="m206.56 485.28v74.722" clip-path="url(#a)"/>
<path d="m1064 485.28v74.722" clip-path="url(#a)"/>
</g>
<path d="m167.13 147.18 2.5384-5.4545q1.0126-2.1759-1.1633-3.1885l-7.0196-3.2667q-2.1759-1.0126-3.1885 1.1633l-2.5384 5.4545q-1.0126 2.1759 1.1633 3.1885l7.0196 3.2667q2.1759 1.0126 3.1885-1.1633z" clip-path="url(#a)" fill="#fff" stroke="#fff"/>
<g clip-path="url(#a)">
<g transform="translate(163.44 145.46) rotate(-65.044) scale(.08 -.08)">
<defs>
<path id="ai" d="m9.8125 72.906h9.8594v-29.891h35.844v29.891h9.8594v-72.906h-9.8594v34.719h-35.844v-34.719h-9.8594z"/>
</defs>
<use xlink:href="#ai"/>
</g>
</g>
<path d="m223.59 254.12 0.26576 4.4496q0.14309 2.3957 2.5388 2.2526l7.7287-0.46162q2.3957-0.14309 2.2526-2.5388l-0.26576-4.4496q-0.14309-2.3957-2.5388-2.2526l-7.7287 0.46162q-2.3957 0.14309-2.2526 2.5388z" clip-path="url(#a)" fill="#fff" stroke="#fff"/>
<g clip-path="url(#a)">
<g transform="translate(227.65 253.88) rotate(86.582) scale(.08 -.08)">
<defs>
<path id="ao" d="m9.8125 72.906h9.8594v-64.609h35.5v-8.2969h-45.359z"/>
</defs>
<use xlink:href="#ao"/>
</g>
</g>
<path d="m254.67 67.91 4.5633 3.9207q1.8204 1.564 3.3844-0.25633l5.0457-5.8726q1.564-1.8204-0.25633-3.3844l-4.5633-3.9207q-1.8204-1.564-3.3844 0.25633l-5.0457 5.8726q-1.564 1.8204 0.25633 3.3844z" clip-path="url(#a)" fill="#fff" stroke="#fff"/>
<g clip-path="url(#a)">
<g transform="translate(257.32 64.828) rotate(40.669) scale(.08 -.08)">
<use xlink:href="#ai"/>
</g>
</g>
<path d="m217.64 259.03 0.12415-5.8537q0.050889-2.3995-2.3486-2.4503l-7.7408-0.16417q-2.3995-0.050889-2.4503 2.3486l-0.12415 5.8537q-0.050889 2.3995 2.3486 2.4503l7.7408 0.16417q2.3995 0.050889 2.4503-2.3486z" clip-path="url(#a)" fill="#fff" stroke="#fff"/>
<g clip-path="url(#a)">
<g transform="translate(213.57 258.95) rotate(-88.785) scale(.08 -.08)">
<defs>
<path id="z" d="m8.6875 72.906h9.9219v-44.297q0-11.719 4.2344-16.875 4.25-5.1406 13.781-5.1406 9.4688 0 13.719 5.1406 4.25 5.1562 4.25 16.875v44.297h9.9062v-45.516q0-14.25-7.0625-21.531-7.0469-7.2812-20.812-7.2812-13.828 0-20.891 7.2812-7.0469 7.2812-7.0469 21.531z"/>
</defs>
<use xlink:href="#z"/>
</g>
</g>
<path d="m89.87 300.74 2.8402-4.6778q1.2456-2.0515-0.8059-3.297l-6.6181-4.0183q-2.0515-1.2456-3.297 0.8059l-2.8402 4.6778q-1.2456 2.0515 0.8059 3.297l6.6181 4.0183q2.0515 1.2456 3.297-0.8059z" clip-path="url(#a)" fill="#fff" stroke="#fff"/>
<g clip-path="url(#a)">
<g transform="translate(86.396 298.63) rotate(-58.736) scale(.08 -.08)">
<defs>
<path id="x" d="m34.188 63.188-13.391-36.281h26.812zm-5.5781 9.7188h11.188l27.781-72.906h-10.25l-6.6406 18.703h-32.859l-6.6406-18.703h-10.406z"/>
</defs>
<use xlink:href="#x"/>
</g>
</g>
<path d="m113.98 373.6 0.058806-4.8234q0.029258-2.3998-2.3706-2.4291l-7.7419-0.094389q-2.3998-0.029258-2.4291 2.3706l-0.058806 4.8234q-0.029259 2.3998 2.3706 2.4291l7.7419 0.094389q2.3998 0.029258 2.4291-2.3706z" clip-path="url(#a)" fill="#fff" stroke="#fff"/>
<g clip-path="url(#a)">
<g transform="translate(109.91 373.55) rotate(-89.301) scale(.08 -.08)">
<defs>
<path id="am" d="m19.672 64.797v-27.391h12.406q6.8906 0 10.641 3.5625 3.7656 3.5625 3.7656 10.156 0 6.5469-3.7656 10.109-3.75 3.5625-10.641 3.5625zm-9.8594 8.1094h22.266q12.266 0 18.531-5.5469 6.2812-5.5469 6.2812-16.234 0-10.797-6.2812-16.312-6.2656-5.5156-18.531-5.5156h-12.406v-29.297h-9.8594z"/>
</defs>
<use xlink:href="#am"/>
</g>
</g>
<path d="m126.91 332.55 1.6789 5.2086q0.73631 2.2843 3.0206 1.5479l7.3691-2.3754q2.2843-0.73631 1.5479-3.0206l-1.6789-5.2086q-0.73631-2.2843-3.0206-1.548l-7.3691 2.3754q-2.2843 0.73631-1.548 3.0206z" clip-path="url(#a)" fill="#fff" stroke="#fff"/>
<g clip-path="url(#a)">
<g transform="translate(130.78 331.3) rotate(72.134) scale(.08 -.08)">
<use xlink:href="#x"/>
</g>
</g>
<path d="m237.41 505.74v33.808q0 2.4 2.4 2.4h7.7425q2.4 0 2.4-2.4v-33.808q0-2.4-2.4-2.4h-7.7425q-2.4 0-2.4 2.4z" clip-path="url(#a)" fill="#fff" stroke="#fff"/>
<g clip-path="url(#a)">
<g transform="translate(241.48 505.74) rotate(90) scale(.08 -.08)">
<defs>
<path id="k" d="m-0.29688 72.906h61.672v-8.3125h-25.875v-64.594h-9.9062v64.594h-25.891z"/>
<path id="d" d="m56.203 29.594v-4.3906h-41.312q0.59375-9.2812 5.5938-14.141t13.938-4.8594q5.1719 0 10.031 1.2656t9.6562 3.8125v-8.5q-4.8438-2.0469-9.9219-3.125t-10.297-1.0781q-13.094 0-20.734 7.6094-7.6406 7.625-7.6406 20.625 0 13.422 7.25 21.297 7.25 7.8906 19.562 7.8906 11.031 0 17.453-7.1094 6.4219-7.0938 6.4219-19.297zm-8.9844 2.6406q-0.09375 7.3594-4.125 11.75-4.0312 4.4062-10.672 4.4062-7.5156 0-12.031-4.25t-5.2031-11.969z"/>
<path id="g" d="m41.109 46.297q-1.5156 0.875-3.2969 1.2812-1.7812 0.42188-3.9219 0.42188-7.625 0-11.703-4.9531t-4.0781-14.234v-28.812h-9.0312v54.688h9.0312v-8.5q2.8438 4.9844 7.375 7.3906 4.5469 2.4219 11.047 2.4219 0.92188 0 2.0469-0.125 1.125-0.10938 2.4844-0.35938z"/>
<path id="i" d="m52 44.188q3.375 6.0625 8.0625 8.9375t11.031 2.875q8.5469 0 13.188-5.9844 4.6406-5.9688 4.6406-17v-33.016h-9.0312v32.719q0 7.8594-2.7969 11.656-2.7812 3.8125-8.4844 3.8125-6.9844 0-11.047-4.6406-4.0469-4.625-4.0469-12.641v-30.906h-9.0312v32.719q0 7.9062-2.7812 11.688t-8.5938 3.7812q-6.8906 0-10.953-4.6562-4.0469-4.6562-4.0469-12.625v-30.906h-9.0312v54.688h9.0312v-8.5q3.0781 5.0312 7.375 7.4219t10.203 2.3906q5.9688 0 10.141-3.0312 4.1719-3.0156 6.1719-8.7812z"/>
<path id="f" d="m9.4219 54.688h8.9844v-54.688h-8.9844zm0 21.297h8.9844v-11.391h-8.9844z"/>
<path id="h" d="m54.891 33.016v-33.016h-8.9844v32.719q0 7.7656-3.0312 11.609-3.0312 3.8594-9.0781 3.8594-7.2812 0-11.484-4.6406-4.2031-4.625-4.2031-12.641v-30.906h-9.0312v54.688h9.0312v-8.5q3.2344 4.9375 7.5938 7.375 4.375 2.4375 10.094 2.4375 9.4219 0 14.25-5.8281 4.8438-5.8281 4.8438-17.156z"/>
<path id="j" d="m34.281 27.484q-10.891 0-15.094-2.4844t-4.2031-8.5q0-4.7812 3.1562-7.5938 3.1562-2.7969 8.5625-2.7969 7.4844 0 12 5.2969t4.5156 14.078v2zm17.922 3.7188v-31.203h-8.9844v8.2969q-3.0781-4.9688-7.6719-7.3438t-11.234-2.375q-8.3906 0-13.359 4.7188-4.9531 4.7188-4.9531 12.625 0 9.2188 6.1719 13.906 6.1875 4.6875 18.438 4.6875h12.609v0.89062q0 6.2031-4.0781 9.5938t-11.453 3.3906q-4.6875 0-9.1406-1.125-4.4375-1.125-8.5312-3.375v8.3125q4.9219 1.9062 9.5625 2.8438 4.6406 0.95312 9.0312 0.95312 11.875 0 17.734-6.1562 5.8594-6.1406 5.8594-18.641z"/>
<path id="l" d="m9.4219 75.984h8.9844v-75.984h-8.9844z"/>
</defs>
<use xlink:href="#k"/>
<use x="44.083984" xlink:href="#d"/>
<use x="105.607422" xlink:href="#g"/>
<use x="144.970703" xlink:href="#i"/>
<use x="242.382812" xlink:href="#f"/>
<use x="270.166016" xlink:href="#h"/>
<use x="333.544922" xlink:href="#j"/>
<use x="394.824219" xlink:href="#l"/>
</g>
</g>
<path d="m300.01 291.9 0.013261 5.0787q0.006267 2.4 2.4063 2.3937l7.7425-0.020217q2.4-0.006266 2.3937-2.4063l-0.013262-5.0787q-0.006266-2.4-2.4063-2.3937l-7.7425 0.020216q-2.4 0.006267-2.3937 2.4063z" clip-path="url(#a)" fill="#fff" stroke="#fff"/>
<g clip-path="url(#a)">
<g transform="translate(304.07 291.89) rotate(89.85) scale(.08 -.08)">
<defs>
<path id="u" d="m53.516 70.516v-9.625q-5.6094 2.6875-10.594 4-4.9844 1.3281-9.625 1.3281-8.0469 0-12.422-3.125t-4.375-8.8906q0-4.8438 2.9062-7.3125 2.9062-2.4531 11.016-3.9688l5.9531-1.2188q11.031-2.1094 16.281-7.4062t5.25-14.172q0-10.609-7.1094-16.078-7.0938-5.4688-20.812-5.4688-5.1719 0-11.016 1.1719-5.8281 1.1719-12.078 3.4688v10.156q6-3.3594 11.766-5.0781 5.7656-1.7031 11.328-1.7031 8.4375 0 13.031 3.3125 4.5938 3.3281 4.5938 9.4844 0 5.3594-3.2969 8.3906t-10.812 4.5469l-6.0156 1.1719q-11.031 2.1875-15.969 6.875-4.9219 4.6875-4.9219 13.047 0 9.6719 6.8125 15.234t18.766 5.5625q5.1406 0 10.453-0.9375 5.3281-0.92188 10.891-2.7656z"/>
</defs>
<use xlink:href="#u"/>
</g>
</g>
<path d="m415.26 147.02 5.1867 1.7453q2.2747 0.7654 3.0401-1.5093l2.4692-7.3382q0.7654-2.2747-1.5093-3.0401l-5.1867-1.7453q-2.2747-0.7654-3.0401 1.5093l-2.4692 7.3382q-0.7654 2.2747 1.5093 3.0401z" clip-path="url(#a)" fill="#fff" stroke="#fff"/>
<g clip-path="url(#a)">
<g transform="translate(416.56 143.16) rotate(18.597) scale(.08 -.08)">
<use xlink:href="#x"/>
</g>
</g>
<path d="m195.19 299.99 2.8166-4.692q1.2352-2.0577-0.82251-3.2929l-6.6383-3.9849q-2.0577-1.2352-3.2929 0.82251l-2.8166 4.692q-1.2352 2.0577 0.82251 3.2929l6.6383 3.9849q2.0577 1.2352 3.2929-0.82251z" clip-path="url(#a)" fill="#fff" stroke="#fff"/>
<g clip-path="url(#a)">
<g transform="translate(191.7 297.9) rotate(-59.024) scale(.08 -.08)">
<use xlink:href="#x"/>
</g>
</g>
<path d="m296.83 540.63 9.6566-32.399q0.68552-2.3-1.6145-2.9855l-7.4199-2.2115q-2.3-0.68552-2.9855 1.6145l-9.6566 32.399q-0.68552 2.3 1.6145 2.9855l7.4199 2.2115q2.3 0.68552 2.9855-1.6145z" clip-path="url(#a)" fill="#fff" stroke="#fff"/>
<g clip-path="url(#a)">
<g transform="translate(292.94 539.47) rotate(-73.403) scale(.08 -.08)">
<use xlink:href="#k"/>
<use x="44.083984" xlink:href="#d"/>
<use x="105.607422" xlink:href="#g"/>
<use x="144.970703" xlink:href="#i"/>
<use x="242.382812" xlink:href="#f"/>
<use x="270.166016" xlink:href="#h"/>
<use x="333.544922" xlink:href="#j"/>
<use x="394.824219" xlink:href="#l"/>
</g>
</g>
<path d="m307.08 508.23 9.6566 32.399q0.68552 2.3 2.9855 1.6145l7.4199-2.2115q2.3-0.68552 1.6145-2.9855l-9.6566-32.399q-0.68552-2.3-2.9855-1.6145l-7.4199 2.2115q-2.3 0.68552-1.6145 2.9855z" clip-path="url(#a)" fill="#fff" stroke="#fff"/>
<g clip-path="url(#a)">
<g transform="translate(310.98 507.07) rotate(73.403) scale(.08 -.08)">
<use xlink:href="#k"/>
<use x="44.083984" xlink:href="#d"/>
<use x="105.607422" xlink:href="#g"/>
<use x="144.970703" xlink:href="#i"/>
<use x="242.382812" xlink:href="#f"/>
<use x="270.166016" xlink:href="#h"/>
<use x="333.544922" xlink:href="#j"/>
<use x="394.824219" xlink:href="#l"/>
</g>
</g>
<path d="m459.93 338.14 2.5396-4.9447q1.0965-2.1349-1.0384-3.2314l-6.8873-3.5372q-2.1349-1.0965-3.2314 1.0384l-2.5396 4.9447q-1.0965 2.1349 1.0384 3.2314l6.8873 3.5372q2.1349 1.0965 3.2314-1.0384z" clip-path="url(#a)" fill="#fff" stroke="#fff"/>
<g clip-path="url(#a)">
<g transform="translate(456.31 336.28) rotate(-62.815) scale(.08 -.08)">
<defs>
<path id="v" d="m44.391 34.188q3.1719-1.0781 6.1719-4.5938t6.0312-9.6719l10.016-19.922h-10.609l-9.3125 18.703q-3.625 7.3281-7.0156 9.7188t-9.25 2.3906h-10.75v-30.812h-9.8594v72.906h22.266q12.5 0 18.656-5.2344 6.1562-5.2188 6.1562-15.766 0-6.8906-3.2031-11.438-3.2031-4.5312-9.2969-6.2812zm-24.719 30.609v-25.875h12.406q7.125 0 10.766 3.2969t3.6406 9.6875-3.6406 9.6406-10.766 3.25z"/>
</defs>
<use xlink:href="#v"/>
</g>
</g>
<path d="m606.97 223.04 5.0181 2.4546q2.1559 1.0546 3.2105-1.1013l3.4021-6.955q1.0546-2.1559-1.1013-3.2105l-5.0181-2.4546q-2.1559-1.0546-3.2105 1.1013l-3.4021 6.955q-1.0546 2.1559 1.1013 3.2105z" clip-path="url(#a)" fill="#fff" stroke="#fff"/>
<g clip-path="url(#a)">
<g transform="translate(608.76 219.39) rotate(26.066) scale(.08 -.08)">
<defs>
<path id="o" d="m64.406 67.281v-10.391q-4.9844 4.6406-10.625 6.9219-5.6406 2.2969-11.984 2.2969-12.5 0-19.141-7.6406t-6.6406-22.094q0-14.406 6.6406-22.047t19.141-7.6406q6.3438 0 11.984 2.2969t10.625 6.9375v-10.312q-5.1719-3.5156-10.969-5.2812-5.7812-1.75-12.219-1.75-16.562 0-26.094 10.125-9.5156 10.141-9.5156 27.672 0 17.578 9.5156 27.703 9.5312 10.141 26.094 10.141 6.5312 0 12.312-1.7344 5.7969-1.7344 10.875-5.2031z"/>
</defs>
<use xlink:href="#o"/>
</g>
</g>
<path d="m371.04 505.74v33.808q0 2.4 2.4 2.4h7.7425q2.4 0 2.4-2.4v-33.808q0-2.4-2.4-2.4h-7.7425q-2.4 0-2.4 2.4z" clip-path="url(#a)" fill="#fff" stroke="#fff"/>
<g clip-path="url(#a)">
<g transform="translate(375.1 505.74) rotate(90) scale(.08 -.08)">
<use xlink:href="#k"/>
<use x="44.083984" xlink:href="#d"/>
<use x="105.607422" xlink:href="#g"/>
<use x="144.970703" xlink:href="#i"/>
<use x="242.382812" xlink:href="#f"/>
<use x="270.166016" xlink:href="#h"/>
<use x="333.544922" xlink:href="#j"/>
<use x="394.824219" xlink:href="#l"/>
</g>
</g>
<path d="m603.49 302.01 5.1149-2.2458q2.1975-0.96487 1.2326-3.1624l-3.1127-7.0892q-0.96487-2.1975-3.1624-1.2326l-5.1149 2.2458q-2.1975 0.96487-1.2326 3.1624l3.1127 7.0892q0.96487 2.1975 3.1624 1.2326z" clip-path="url(#a)" fill="#fff" stroke="#fff"/>
<g clip-path="url(#a)">
<g transform="translate(601.86 298.29) rotate(-23.705) scale(.08 -.08)">
<use xlink:href="#o"/>
</g>
</g>
<path d="m688.44 374.54 0.42592-5.9698q0.17079-2.3939-2.2231-2.5647l-7.7229-0.55099q-2.3939-0.17079-2.5647 2.2231l-0.42592 5.9698q-0.17079 2.3939 2.2231 2.5647l7.7229 0.55099q2.3939 0.1708 2.5647-2.2231z" clip-path="url(#a)" fill="#fff" stroke="#fff"/>
<g clip-path="url(#a)">
<g transform="translate(684.39 374.25) rotate(-85.919) scale(.08 -.08)">
<defs>
<path id="an" d="m9.8125 72.906h13.281l32.328-60.984v60.984h9.5625v-72.906h-13.281l-32.312 60.984v-60.984h-9.5781z"/>
</defs>
<use xlink:href="#an"/>
</g>
</g>
<path d="m780.79 299.93 5.184 2.0814q2.2272 0.8942 3.1214-1.333l2.8847-7.185q0.8942-2.2272-1.333-3.1214l-5.184-2.0814q-2.2272-0.8942-3.1214 1.333l-2.8847 7.185q-0.8942 2.2272 1.333 3.1214z" clip-path="url(#a)" fill="#fff" stroke="#fff"/>
<g clip-path="url(#a)">
<g transform="translate(782.3 296.16) rotate(21.875) scale(.08 -.08)">
<use xlink:href="#o"/>
</g>
</g>
<path d="m489.82 377.78 3.8726-4.9661q1.4759-1.8926-0.41673-3.3684l-6.1055-4.7612q-1.8926-1.4759-3.3684 0.41673l-3.8726 4.9661q-1.4759 1.8926 0.41673 3.3684l6.1055 4.7612q1.8926 1.4759 3.3684-0.41673z" clip-path="url(#a)" fill="#fff" stroke="#fff"/>
<g clip-path="url(#a)">
<g transform="translate(486.61 375.28) rotate(-52.053) scale(.08 -.08)">
<defs>
<path id="w" d="m39.406 66.219q-10.75 0-17.078-8.0156-6.3125-8-6.3125-21.828 0-13.766 6.3125-21.781 6.3281-8 17.078-8 10.734 0 17.016 8 6.2812 8.0156 6.2812 21.781 0 13.828-6.2812 21.828-6.2812 8.0156-17.016 8.0156zm13.812-64.906 13-14.203h-11.922l-10.797 11.672q-1.6094-0.09375-2.4688-0.14062-0.84375-0.0625-1.625-0.0625-15.375 0-24.594 10.281-9.2031 10.281-9.2031 27.516 0 17.281 9.2031 27.562 9.2188 10.281 24.594 10.281 15.328 0 24.5-10.281 9.1875-10.281 9.1875-27.562 0-12.688-5.1094-21.734-5.0938-9.0312-14.766-13.328z"/>
</defs>
<use xlink:href="#w"/>
</g>
</g>
<path d="m539.53 373.09 3.4352 4.4052q1.4759 1.8926 3.3684 0.41673l6.1055-4.7612q1.8926-1.4759 0.41673-3.3684l-3.4352-4.4052q-1.4759-1.8926-3.3684-0.41673l-6.1055 4.7612q-1.8926 1.4759-0.41673 3.3684z" clip-path="url(#a)" fill="#fff" stroke="#fff"/>
<g clip-path="url(#a)">
<g transform="translate(542.74 370.59) rotate(52.053) scale(.08 -.08)">
<use xlink:href="#o"/>
</g>
</g>
<path d="m667.99 505.74v33.808q0 2.4 2.4 2.4h7.7425q2.4 0 2.4-2.4v-33.808q0-2.4-2.4-2.4h-7.7425q-2.4 0-2.4 2.4z" clip-path="url(#a)" fill="#fff" stroke="#fff"/>
<g clip-path="url(#a)">
<g transform="translate(672.05 505.74) rotate(90) scale(.08 -.08)">
<use xlink:href="#k"/>
<use x="44.083984" xlink:href="#d"/>
<use x="105.607422" xlink:href="#g"/>
<use x="144.970703" xlink:href="#i"/>
<use x="242.382812" xlink:href="#f"/>
<use x="270.166016" xlink:href="#h"/>
<use x="333.544922" xlink:href="#j"/>
<use x="394.824219" xlink:href="#l"/>
</g>
</g>
<path d="m832.72 378.33 4.9911-3.8402q1.9021-1.4635 0.43859-3.3657l-4.7214-6.1363q-1.4635-1.9021-3.3657-0.43859l-4.9911 3.8402q-1.9021 1.4635-0.43859 3.3657l4.7214 6.1363q1.4635 1.9021 3.3657 0.43859z" clip-path="url(#a)" fill="#fff" stroke="#fff"/>
<g clip-path="url(#a)">
<g transform="translate(830.24 375.11) rotate(-37.575) scale(.08 -.08)">
<use xlink:href="#w"/>
</g>
</g>
<path d="m924.34 374.7 4.4274 3.4065q1.9021 1.4635 3.3657-0.43859l4.7214-6.1363q1.4635-1.9021-0.43859-3.3657l-4.4274-3.4065q-1.9021-1.4635-3.3657 0.43859l-4.7214 6.1363q-1.4635 1.9021 0.43859 3.3657z" clip-path="url(#a)" fill="#fff" stroke="#fff"/>
<g clip-path="url(#a)">
<g transform="translate(926.81 371.48) rotate(37.575) scale(.08 -.08)">
<use xlink:href="#o"/>
</g>
</g>
<path d="m767.59 452.98 2.7707-5.6552q1.0559-2.1552-1.0993-3.2112l-6.9529-3.4065q-2.1552-1.0559-3.2112 1.0993l-2.7707 5.6552q-1.0559 2.1552 1.0993 3.2112l6.9529 3.4065q2.1552 1.0559 3.2112-1.0993z" clip-path="url(#a)" fill="#fff" stroke="#fff"/>
<g clip-path="url(#a)">
<g transform="translate(763.94 451.2) rotate(-63.898) scale(.08 -.08)">
<use xlink:href="#w"/>
</g>
</g>
<path d="m793.6 447.65 2.4578 5.0165q1.0559 2.1552 3.2112 1.0993l6.9529-3.4065q2.1552-1.0559 1.0993-3.2112l-2.4578-5.0165q-1.0559-2.1552-3.2112-1.0993l-6.9529 3.4065q-2.1552 1.0559-1.0993 3.2112z" clip-path="url(#a)" fill="#fff" stroke="#fff"/>
<g clip-path="url(#a)">
<g transform="translate(797.25 445.86) rotate(63.898) scale(.08 -.08)">
<use xlink:href="#o"/>
</g>
</g>
<path d="m940.6 453.9 4.1033-3.75q1.7716-1.6191 0.15251-3.3907l-5.2232-5.7152q-1.6191-1.7716-3.3907-0.15251l-4.1033 3.75q-1.7716 1.6191-0.15251 3.3907l5.2232 5.7152q1.6191 1.7716 3.3907 0.15251z" clip-path="url(#a)" fill="#fff" stroke="#fff"/>
<g clip-path="url(#a)">
<g transform="translate(937.85 450.9) rotate(-42.425) scale(.08 -.08)">
<use xlink:href="#v"/>
</g>
</g>
<path d="m985.48 450.04 0.082931-5.0781q0.039189-2.3997-2.3605-2.4389l-7.7415-0.12643q-2.3997-0.03919-2.4389 2.3605l-0.082931 5.0781q-0.03919 2.3997 2.3605 2.4389l7.7415 0.12643q2.3997 0.03919 2.4389-2.3605z" clip-path="url(#a)" fill="#fff" stroke="#fff"/>
<g clip-path="url(#a)">
<g transform="translate(981.41 449.97) rotate(-89.064) scale(.08 -.08)">
<use xlink:href="#u"/>
</g>
</g>
<path d="m1015.6 450.1 4.351 3.9179q1.7835 1.606 3.3895-0.1775l5.181-5.7536q1.606-1.7835-0.1775-3.3895l-4.351-3.9179q-1.7835-1.606-3.3895 0.1775l-5.181 5.7536q-1.606 1.7835 0.1775 3.3895z" clip-path="url(#a)" fill="#fff" stroke="#fff"/>
<g clip-path="url(#a)">
<g transform="translate(1018.3 447.08) rotate(42.002) scale(.08 -.08)">
<use xlink:href="#z"/>
</g>
</g>
<path d="m890.7 505.74v33.808q0 2.4 2.4 2.4h7.7425q2.4 0 2.4-2.4v-33.808q0-2.4-2.4-2.4h-7.7425q-2.4 0-2.4 2.4z" clip-path="url(#a)" fill="#fff" stroke="#fff"/>
<g clip-path="url(#a)">
<g transform="translate(894.76 505.74) rotate(90) scale(.08 -.08)">
<use xlink:href="#k"/>
<use x="44.083984" xlink:href="#d"/>
<use x="105.607422" xlink:href="#g"/>
<use x="144.970703" xlink:href="#i"/>
<use x="242.382812" xlink:href="#f"/>
<use x="270.166016" xlink:href="#h"/>
<use x="333.544922" xlink:href="#j"/>
<use x="394.824219" xlink:href="#l"/>
</g>
</g>
<path d="m972.36 505.74v33.808q0 2.4 2.4 2.4h7.7425q2.4 0 2.4-2.4v-33.808q0-2.4-2.4-2.4h-7.7425q-2.4 0-2.4 2.4z" clip-path="url(#a)" fill="#fff" stroke="#fff"/>
<g clip-path="url(#a)">
<g transform="translate(976.42 505.74) rotate(90) scale(.08 -.08)">
<use xlink:href="#k"/>
<use x="44.083984" xlink:href="#d"/>
<use x="105.607422" xlink:href="#g"/>
<use x="144.970703" xlink:href="#i"/>
<use x="242.382812" xlink:href="#f"/>
<use x="270.166016" xlink:href="#h"/>
<use x="333.544922" xlink:href="#j"/>
<use x="394.824219" xlink:href="#l"/>
</g>
</g>
<path d="m738.51 505.74v33.808q0 2.4 2.4 2.4h7.7425q2.4 0 2.4-2.4v-33.808q0-2.4-2.4-2.4h-7.7425q-2.4 0-2.4 2.4z" clip-path="url(#a)" fill="#fff" stroke="#fff"/>
<g clip-path="url(#a)">
<g transform="translate(742.57 505.74) rotate(90) scale(.08 -.08)">
<use xlink:href="#k"/>
<use x="44.083984" xlink:href="#d"/>
<use x="105.607422" xlink:href="#g"/>
<use x="144.970703" xlink:href="#i"/>
<use x="242.382812" xlink:href="#f"/>
<use x="270.166016" xlink:href="#h"/>
<use x="333.544922" xlink:href="#j"/>
<use x="394.824219" xlink:href="#l"/>
</g>
</g>
<path d="m812.75 505.74v33.808q0 2.4 2.4 2.4h7.7425q2.4 0 2.4-2.4v-33.808q0-2.4-2.4-2.4h-7.7425q-2.4 0-2.4 2.4z" clip-path="url(#a)" fill="#fff" stroke="#fff"/>
<g clip-path="url(#a)">
<g transform="translate(816.81 505.74) rotate(90) scale(.08 -.08)">
<use xlink:href="#k"/>
<use x="44.083984" xlink:href="#d"/>
<use x="105.607422" xlink:href="#g"/>
<use x="144.970703" xlink:href="#i"/>
<use x="242.382812" xlink:href="#f"/>
<use x="270.166016" xlink:href="#h"/>
<use x="333.544922" xlink:href="#j"/>
<use x="394.824219" xlink:href="#l"/>
</g>
</g>
<path d="m447.99 452.52 2.172-5.9111q0.82777-2.2527-1.425-3.0805l-7.2674-2.6704q-2.2527-0.82777-3.0805 1.425l-2.172 5.9111q-0.82777 2.2527 1.425 3.0805l7.2674 2.6704q2.2527 0.82777 3.0805-1.425z" clip-path="url(#a)" fill="#fff" stroke="#fff"/>
<g clip-path="url(#a)">
<g transform="translate(444.18 451.11) rotate(-69.824) scale(.08 -.08)">
<use xlink:href="#w"/>
</g>
</g>
<path d="m464.18 446.94 1.9267 5.2435q0.82777 2.2527 3.0805 1.425l7.2674-2.6704q2.2527-0.82777 1.425-3.0805l-1.9267-5.2435q-0.82777-2.2527-3.0805-1.425l-7.2674 2.6704q-2.2527 0.82777-1.425 3.0805z" clip-path="url(#a)" fill="#fff" stroke="#fff"/>
<g clip-path="url(#a)">
<g transform="translate(468 445.54) rotate(69.824) scale(.08 -.08)">
<use xlink:href="#o"/>
</g>
</g>
<path d="m564.84 452.37 2.137-5.1316q0.92266-2.2156-1.2929-3.1382l-7.1475-2.9765q-2.2156-0.92266-3.1382 1.2929l-2.137 5.1316q-0.92266 2.2156 1.2929 3.1382l7.1475 2.9765q2.2156 0.92266 3.1382-1.2929z" clip-path="url(#a)" fill="#fff" stroke="#fff"/>
<g clip-path="url(#a)">
<g transform="translate(561.09 450.81) rotate(-67.391) scale(.08 -.08)">
<use xlink:href="#v"/>
</g>
</g>
<path d="m584.9 447.46 1.9525 4.6884q0.92266 2.2156 3.1382 1.2929l7.1475-2.9765q2.2156-0.92266 1.2929-3.1382l-1.9525-4.6884q-0.92266-2.2156-3.1382-1.2929l-7.1475 2.9765q-2.2156 0.92266-1.2929 3.1382z" clip-path="url(#a)" fill="#fff" stroke="#fff"/>
<g clip-path="url(#a)">
<g transform="translate(588.65 445.9) rotate(67.391) scale(.08 -.08)">
<use xlink:href="#u"/>
</g>
</g>
<path d="m538.07 505.74v33.808q0 2.4 2.4 2.4h7.7425q2.4 0 2.4-2.4v-33.808q0-2.4-2.4-2.4h-7.7425q-2.4 0-2.4 2.4z" clip-path="url(#a)" fill="#fff" stroke="#fff"/>
<g clip-path="url(#a)">
<g transform="translate(542.13 505.74) rotate(90) scale(.08 -.08)">
<use xlink:href="#k"/>
<use x="44.083984" xlink:href="#d"/>
<use x="105.607422" xlink:href="#g"/>
<use x="144.970703" xlink:href="#i"/>
<use x="242.382812" xlink:href="#f"/>
<use x="270.166016" xlink:href="#h"/>
<use x="333.544922" xlink:href="#j"/>
<use x="394.824219" xlink:href="#l"/>
</g>
</g>
<path d="m601.17 505.74v33.808q0 2.4 2.4 2.4h7.7425q2.4 0 2.4-2.4v-33.808q0-2.4-2.4-2.4h-7.7425q-2.4 0-2.4 2.4z" clip-path="url(#a)" fill="#fff" stroke="#fff"/>
<g clip-path="url(#a)">
<g transform="translate(605.24 505.74) rotate(90) scale(.08 -.08)">
<use xlink:href="#k"/>
<use x="44.083984" xlink:href="#d"/>
<use x="105.607422" xlink:href="#g"/>
<use x="144.970703" xlink:href="#i"/>
<use x="242.382812" xlink:href="#f"/>
<use x="270.166016" xlink:href="#h"/>
<use x="333.544922" xlink:href="#j"/>
<use x="394.824219" xlink:href="#l"/>
</g>
</g>
<path d="m423 505.74v33.808q0 2.4 2.4 2.4h7.7425q2.4 0 2.4-2.4v-33.808q0-2.4-2.4-2.4h-7.7425q-2.4 0-2.4 2.4z" clip-path="url(#a)" fill="#fff" stroke="#fff"/>
<g clip-path="url(#a)">
<g transform="translate(427.07 505.74) rotate(90) scale(.08 -.08)">
<use xlink:href="#k"/>
<use x="44.083984" xlink:href="#d"/>
<use x="105.607422" xlink:href="#g"/>
<use x="144.970703" xlink:href="#i"/>
<use x="242.382812" xlink:href="#f"/>
<use x="270.166016" xlink:href="#h"/>
<use x="333.544922" xlink:href="#j"/>
<use x="394.824219" xlink:href="#l"/>
</g>
</g>
<path d="m478.68 505.74v33.808q0 2.4 2.4 2.4h7.7425q2.4 0 2.4-2.4v-33.808q0-2.4-2.4-2.4h-7.7425q-2.4 0-2.4 2.4z" clip-path="url(#a)" fill="#fff" stroke="#fff"/>
<g clip-path="url(#a)">
<g transform="translate(482.74 505.74) rotate(90) scale(.08 -.08)">
<use xlink:href="#k"/>
<use x="44.083984" xlink:href="#d"/>
<use x="105.607422" xlink:href="#g"/>
<use x="144.970703" xlink:href="#i"/>
<use x="242.382812" xlink:href="#f"/>
<use x="270.166016" xlink:href="#h"/>
<use x="333.544922" xlink:href="#j"/>
<use x="394.824219" xlink:href="#l"/>
</g>
</g>
<path d="m56.892 368.97 0.061877 5.0784q0.029241 2.3998 2.4291 2.3706l7.7419-0.094332q2.3998-0.029241 2.3706-2.4291l-0.061877-5.0784q-0.029241-2.3998-2.4291-2.3706l-7.7419 0.094332q-2.3998 0.02924-2.3706 2.4291z" clip-path="url(#a)" fill="#fff" stroke="#fff"/>
<g clip-path="url(#a)">
<g transform="translate(60.956 368.92) rotate(89.302) scale(.08 -.08)">
<use xlink:href="#u"/>
</g>
</g>
<path d="m68.518 412.44 0.037626-6.1599q0.01466-2.4-2.3853-2.4146l-7.7424-0.047292q-2.4-0.01466-2.4146 2.3853l-0.037626 6.1599q-0.014659 2.4 2.3853 2.4146l7.7424 0.047292q2.4 0.014659 2.4146-2.3853z" clip-path="url(#a)" fill="#fff" stroke="#fff"/>
<g clip-path="url(#a)">
<g transform="translate(64.455 412.41) rotate(-89.65) scale(.08 -.08)">
<defs>
<path id="aq" d="m19.672 64.797v-56.688h11.922q15.094 0 22.094 6.8281 7 6.8438 7 21.594 0 14.641-7 21.453t-22.094 6.8125zm-9.8594 8.1094h20.266q21.188 0 31.094-8.8125 9.9219-8.8125 9.9219-27.562 0-18.859-9.9688-27.703-9.9531-8.8281-31.047-8.8281h-20.266z"/>
</defs>
<use xlink:href="#aq"/>
</g>
</g>
<path d="m104.49 540.28 4.9832-33.438q0.35376-2.3738-2.02-2.7275l-7.6579-1.1412q-2.3738-0.35376-2.7275 2.02l-4.9832 33.438q-0.35376 2.3738 2.02 2.7275l7.6579 1.1412q2.3738 0.35376 2.7275-2.02z" clip-path="url(#a)" fill="#fff" stroke="#fff"/>
<g clip-path="url(#a)">
<g transform="translate(100.47 539.68) rotate(-81.524) scale(.08 -.08)">
<use xlink:href="#k"/>
<use x="44.083984" xlink:href="#d"/>
<use x="105.607422" xlink:href="#g"/>
<use x="144.970703" xlink:href="#i"/>
<use x="242.382812" xlink:href="#f"/>
<use x="270.166016" xlink:href="#h"/>
<use x="333.544922" xlink:href="#j"/>
<use x="394.824219" xlink:href="#l"/>
</g>
</g>
<path d="m103.22 506.84 4.9832 33.438q0.35376 2.3738 2.7275 2.02l7.6579-1.1412q2.3738-0.35376 2.02-2.7275l-4.9832-33.438q-0.35376-2.3738-2.7275-2.02l-7.6579 1.1412q-2.3738 0.35376-2.02 2.7275z" clip-path="url(#a)" fill="#fff" stroke="#fff"/>
<g clip-path="url(#a)">
<g transform="translate(107.24 506.25) rotate(81.524) scale(.08 -.08)">
<use xlink:href="#k"/>
<use x="44.083984" xlink:href="#d"/>
<use x="105.607422" xlink:href="#g"/>
<use x="144.970703" xlink:href="#i"/>
<use x="242.382812" xlink:href="#f"/>
<use x="270.166016" xlink:href="#h"/>
<use x="333.544922" xlink:href="#j"/>
<use x="394.824219" xlink:href="#l"/>
</g>
</g>
<path d="m156.51 451.33 1.069-5.455q0.46156-2.3552-1.8936-2.8168l-7.598-1.489q-2.3552-0.46156-2.8168 1.8936l-1.069 5.455q-0.46156 2.3552 1.8936 2.8168l7.598 1.489q2.3552 0.46156 2.8168-1.8936z" clip-path="url(#a)" fill="#fff" stroke="#fff"/>
<g clip-path="url(#a)">
<g transform="translate(152.52 450.55) rotate(-78.912) scale(.08 -.08)">
<use xlink:href="#v"/>
</g>
</g>
<path d="m159.04 445.86 1.0743 5.482q0.46156 2.3552 2.8168 1.8936l7.598-1.489q2.3552-0.46156 1.8936-2.8168l-1.0743-5.482q-0.46156-2.3552-2.8168-1.8936l-7.598 1.489q-2.3552 0.46156-1.8936 2.8168z" clip-path="url(#a)" fill="#fff" stroke="#fff"/>
<g clip-path="url(#a)">
<g transform="translate(163.03 445.08) rotate(78.912) scale(.08 -.08)">
<use xlink:href="#o"/>
</g>
</g>
<path d="m137.19 505.74v33.808q0 2.4 2.4 2.4h7.7425q2.4 0 2.4-2.4v-33.808q0-2.4-2.4-2.4h-7.7425q-2.4 0-2.4 2.4z" clip-path="url(#a)" fill="#fff" stroke="#fff"/>
<g clip-path="url(#a)">
<g transform="translate(141.26 505.74) rotate(90) scale(.08 -.08)">
<use xlink:href="#k"/>
<use x="44.083984" xlink:href="#d"/>
<use x="105.607422" xlink:href="#g"/>
<use x="144.970703" xlink:href="#i"/>
<use x="242.382812" xlink:href="#f"/>
<use x="270.166016" xlink:href="#h"/>
<use x="333.544922" xlink:href="#j"/>
<use x="394.824219" xlink:href="#l"/>
</g>
</g>
<path d="m166.89 505.74v33.808q0 2.4 2.4 2.4h7.7425q2.4 0 2.4-2.4v-33.808q0-2.4-2.4-2.4h-7.7425q-2.4 0-2.4 2.4z" clip-path="url(#a)" fill="#fff" stroke="#fff"/>
<g clip-path="url(#a)">
<g transform="translate(170.95 505.74) rotate(90) scale(.08 -.08)">
<use xlink:href="#k"/>
<use x="44.083984" xlink:href="#d"/>
<use x="105.607422" xlink:href="#g"/>
<use x="144.970703" xlink:href="#i"/>
<use x="242.382812" xlink:href="#f"/>
<use x="270.166016" xlink:href="#h"/>
<use x="333.544922" xlink:href="#j"/>
<use x="394.824219" xlink:href="#l"/>
</g>
</g>
<path d="m62.955 450.72 0.77766-4.5351q0.40563-2.3655-1.9598-2.7711l-7.6311-1.3086q-2.3655-0.40563-2.7711 1.9598l-0.77766 4.5351q-0.40563 2.3655 1.9598 2.7711l7.6311 1.3086q2.3655 0.40563 2.7711-1.9598z" clip-path="url(#a)" fill="#fff" stroke="#fff"/>
<g clip-path="url(#a)">
<g transform="translate(58.949 450.04) rotate(-80.27) scale(.08 -.08)">
<defs>
<path id="ap" d="m9.8125 72.906h41.891v-8.3125h-32.031v-21.484h28.906v-8.2969h-28.906v-34.812h-9.8594z"/>
</defs>
<use xlink:href="#ap"/>
</g>
</g>
<path d="m63.501 445.7 0.94414 5.5059q0.40563 2.3655 2.7711 1.9598l7.6311-1.3086q2.3655-0.40563 1.9598-2.7711l-0.94414-5.5059q-0.40563-2.3655-2.7711-1.9598l-7.6311 1.3086q-2.3655 0.40563-1.9598 2.7711z" clip-path="url(#a)" fill="#fff" stroke="#fff"/>
<g clip-path="url(#a)">
<g transform="translate(67.506 445.02) rotate(80.27) scale(.08 -.08)">
<use xlink:href="#o"/>
</g>
</g>
<path d="m55.531 505.74v33.808q0 2.4 2.4 2.4h7.7425q2.4 0 2.4-2.4v-33.808q0-2.4-2.4-2.4h-7.7425q-2.4 0-2.4 2.4z" clip-path="url(#a)" fill="#fff" stroke="#fff"/>
<g clip-path="url(#a)">
<g transform="translate(59.595 505.74) rotate(90) scale(.08 -.08)">
<use xlink:href="#k"/>
<use x="44.083984" xlink:href="#d"/>
<use x="105.607422" xlink:href="#g"/>
<use x="144.970703" xlink:href="#i"/>
<use x="242.382812" xlink:href="#f"/>
<use x="270.166016" xlink:href="#h"/>
<use x="333.544922" xlink:href="#j"/>
<use x="394.824219" xlink:href="#l"/>
</g>
</g>
<path d="m44.395 505.74v33.808q0 2.4 2.4 2.4h7.7425q2.4 0 2.4-2.4v-33.808q0-2.4-2.4-2.4h-7.7425q-2.4 0-2.4 2.4z" clip-path="url(#a)" fill="#fff" stroke="#fff"/>
<g clip-path="url(#a)">
<g transform="translate(48.459 505.74) rotate(90) scale(.08 -.08)">
<use xlink:href="#k"/>
<use x="44.083984" xlink:href="#d"/>
<use x="105.607422" xlink:href="#g"/>
<use x="144.970703" xlink:href="#i"/>
<use x="242.382812" xlink:href="#f"/>
<use x="270.166016" xlink:href="#h"/>
<use x="333.544922" xlink:href="#j"/>
<use x="394.824219" xlink:href="#l"/>
</g>
</g>
<path d="m70.378 505.74v33.808q0 2.4 2.4 2.4h7.7425q2.4 0 2.4-2.4v-33.808q0-2.4-2.4-2.4h-7.7425q-2.4 0-2.4 2.4z" clip-path="url(#a)" fill="#fff" stroke="#fff"/>
<g clip-path="url(#a)">
<g transform="translate(74.442 505.74) rotate(90) scale(.08 -.08)">
<use xlink:href="#k"/>
<use x="44.083984" xlink:href="#d"/>
<use x="105.607422" xlink:href="#g"/>
<use x="144.970703" xlink:href="#i"/>
<use x="242.382812" xlink:href="#f"/>
<use x="270.166016" xlink:href="#h"/>
<use x="333.544922" xlink:href="#j"/>
<use x="394.824219" xlink:href="#l"/>
</g>
</g>
<path d="m200.29 505.74v33.808q0 2.4 2.4 2.4h7.7425q2.4 0 2.4-2.4v-33.808q0-2.4-2.4-2.4h-7.7425q-2.4 0-2.4 2.4z" clip-path="url(#a)" fill="#fff" stroke="#fff"/>
<g clip-path="url(#a)">
<g transform="translate(204.36 505.74) rotate(90) scale(.08 -.08)">
<use xlink:href="#k"/>
<use x="44.083984" xlink:href="#d"/>
<use x="105.607422" xlink:href="#g"/>
<use x="144.970703" xlink:href="#i"/>
<use x="242.382812" xlink:href="#f"/>
<use x="270.166016" xlink:href="#h"/>
<use x="333.544922" xlink:href="#j"/>
<use x="394.824219" xlink:href="#l"/>
</g>
</g>
<path d="m1057.7 505.74v33.808q0 2.4 2.4 2.4h7.7425q2.4 0 2.4-2.4v-33.808q0-2.4-2.4-2.4h-7.7425q-2.4 0-2.4 2.4z" clip-path="url(#a)" fill="#fff" stroke="#fff"/>
<g clip-path="url(#a)">
<g transform="translate(1061.8 505.74) rotate(90) scale(.08 -.08)">
<use xlink:href="#k"/>
<use x="44.083984" xlink:href="#d"/>
<use x="105.607422" xlink:href="#g"/>
<use x="144.970703" xlink:href="#i"/>
<use x="242.382812" xlink:href="#f"/>
<use x="270.166016" xlink:href="#h"/>
<use x="333.544922" xlink:href="#j"/>
<use x="394.824219" xlink:href="#l"/>
</g>
</g>
<defs>
<path id="b" d="m0 8.6603c2.2967 0 4.4997-0.9125 6.1237-2.5365 1.624-1.624 2.5365-3.827 2.5365-6.1237s-0.9125-4.4997-2.5365-6.1237c-1.624-1.624-3.827-2.5365-6.1237-2.5365s-4.4997 0.9125-6.1237 2.5365c-1.624 1.624-2.5365 3.827-2.5365 6.1237s0.9125 4.4997 2.5365 6.1237c1.624 1.624 3.827 2.5365 6.1237 2.5365z"/>
</defs>
<g clip-path="url(#a)" fill="#ffffff" stroke="#ffffff">
<use x="50.666667" y="560" xlink:href="#b"/>
<use x="61.802198" y="560" xlink:href="#b"/>
<use x="76.649573" y="560" xlink:href="#b"/>
<use x="95.208791" y="560" xlink:href="#b"/>
<use x="117.479853" y="560" xlink:href="#b"/>
<use x="143.462759" y="560" xlink:href="#b"/>
<use x="173.157509" y="560" xlink:href="#b"/>
<use x="206.564103" y="560" xlink:href="#b"/>
<use x="243.68254" y="560" xlink:href="#b"/>
<use x="284.512821" y="560" xlink:href="#b"/>
<use x="329.054945" y="560" xlink:href="#b"/>
<use x="377.308913" y="560" xlink:href="#b"/>
<use x="429.274725" y="560" xlink:href="#b"/>
<use x="484.952381" y="560" xlink:href="#b"/>
<use x="544.34188" y="560" xlink:href="#b"/>
<use x="607.443223" y="560" xlink:href="#b"/>
<use x="674.25641" y="560" xlink:href="#b"/>
<use x="744.781441" y="560" xlink:href="#b"/>
<use x="819.018315" y="560" xlink:href="#b"/>
<use x="896.967033" y="560" xlink:href="#b"/>
<use x="978.627595" y="560" xlink:href="#b"/>
<use x="1064" y="560" xlink:href="#b"/>
<use x="216.290508" y="26.666667" xlink:href="#b"/>
<use x="109.128205" y="256.938828" xlink:href="#b"/>
<use x="243.68254" y="485.27779" xlink:href="#b"/>
<use x="305.787184" y="103.561289" xlink:href="#b"/>
<use x="306.783883" y="485.27779" xlink:href="#b"/>
<use x="533.928097" y="180.327264" xlink:href="#b"/>
<use x="377.308913" y="485.27779" xlink:href="#b"/>
<use x="690.54728" y="256.938828" xlink:href="#b"/>
<use x="516.503053" y="333.357071" xlink:href="#b"/>
<use x="674.25641" y="485.27779" xlink:href="#b"/>
<use x="880.882377" y="333.357071" xlink:href="#b"/>
<use x="781.899878" y="409.516112" xlink:href="#b"/>
<use x="979.864876" y="409.516112" xlink:href="#b"/>
<use x="896.967033" y="485.27779" xlink:href="#b"/>
<use x="978.627595" y="485.27779" xlink:href="#b"/>
<use x="744.781441" y="485.27779" xlink:href="#b"/>
<use x="819.018315" y="485.27779" xlink:href="#b"/>
<use x="457.113553" y="409.516112" xlink:href="#b"/>
<use x="575.892552" y="409.516112" xlink:href="#b"/>
<use x="544.34188" y="485.27779" xlink:href="#b"/>
<use x="607.443223" y="485.27779" xlink:href="#b"/>
<use x="429.274725" y="485.27779" xlink:href="#b"/>
<use x="484.952381" y="485.27779" xlink:href="#b"/>
<use x="62.730159" y="333.357071" xlink:href="#b"/>
<use x="106.344322" y="485.27779" xlink:href="#b"/>
<use x="158.310134" y="409.516112" xlink:href="#b"/>
<use x="143.462759" y="485.27779" xlink:href="#b"/>
<use x="173.157509" y="485.27779" xlink:href="#b"/>
<use x="63.65812" y="409.516112" xlink:href="#b"/>
<use x="61.802198" y="485.27779" xlink:href="#b"/>
<use x="50.666667" y="485.27779" xlink:href="#b"/>
<use x="76.649573" y="485.27779" xlink:href="#b"/>
<use x="206.564103" y="485.27779" xlink:href="#b"/>
<use x="1064" y="485.27779" xlink:href="#b"/>
</g>
<g clip-path="url(#a)">
<g transform="translate(43.839 562.76) scale(.1 -.1)">
<use xlink:href="#z"/>
<use x="73.193359" xlink:href="#h"/>
</g>
</g>
<g clip-path="url(#a)">
<g transform="translate(40.137 562.76) scale(.1 -.1)">
<defs>
<path id="r" d="m30.609 48.391q-7.2188 0-11.422-5.6406t-4.2031-15.453 4.1719-15.453q4.1875-5.6406 11.453-5.6406 7.1875 0 11.375 5.6562 4.2031 5.6719 4.2031 15.438 0 9.7188-4.2031 15.406-4.1875 5.6875-11.375 5.6875zm0 7.6094q11.719 0 18.406-7.625 6.7031-7.6094 6.7031-21.078 0-13.422-6.7031-21.078-6.6875-7.6406-18.406-7.6406-11.766 0-18.438 7.6406-6.6562 7.6562-6.6562 21.078 0 13.469 6.6562 21.078 6.6719 7.625 18.438 7.625z"/>
<path id="t" d="m8.5 21.578v33.109h8.9844v-32.766q0-7.7656 3.0156-11.656 3.0312-3.875 9.0938-3.875 7.2656 0 11.484 4.6406 4.2344 4.6406 4.2344 12.656v31h8.9844v-54.688h-8.9844v8.4062q-3.2656-4.9844-7.5938-7.4062-4.3125-2.4219-10.031-2.4219-9.4219 0-14.312 5.8594-4.875 5.8594-4.875 17.141z"/>
<path id="at" d="m2.9844 54.688h9.5156l17.094-45.891 17.094 45.891h9.5156l-20.516-54.688h-12.203z"/>
</defs>
<use xlink:href="#h"/>
<use x="63.378906" xlink:href="#r"/>
<use x="124.560547" xlink:href="#t"/>
<use x="187.939453" xlink:href="#at"/>
<use x="247.119141" xlink:href="#d"/>
<use x="308.642578" xlink:href="#j"/>
<use x="369.921875" xlink:href="#t"/>
</g>
</g>
<g clip-path="url(#a)">
<g transform="translate(51.375 562.76) scale(.1 -.1)">
<defs>
<path id="p" d="m44.281 53.078v-8.5q-3.7969 1.9531-7.9062 2.9219-4.0938 0.98438-8.5 0.98438-6.6875 0-10.031-2.0469t-3.3438-6.1562q0-3.125 2.3906-4.9062t9.625-3.3906l3.0781-0.6875q9.5625-2.0469 13.594-5.7812t4.0312-10.422q0-7.625-6.0312-12.078-6.0312-4.4375-16.578-4.4375-4.3906 0-9.1562 0.85938t-10.031 2.5625v9.2812q4.9844-2.5938 9.8125-3.8906 4.8281-1.2812 9.5781-1.2812 6.3438 0 9.75 2.1719 3.4219 2.1719 3.4219 6.125 0 3.6562-2.4688 5.6094-2.4531 1.9531-10.812 3.7656l-3.125 0.73438q-8.3438 1.75-12.062 5.3906-3.7031 3.6406-3.7031 9.9844 0 7.7188 5.4688 11.906 5.4688 4.2031 15.531 4.2031 4.9688 0 9.3594-0.73438 4.4062-0.71875 8.1094-2.1875z"/>
<path id="q" d="m18.312 70.219v-15.531h18.5v-6.9844h-18.5v-29.688q0-6.6875 1.8281-8.5938t7.4531-1.9062h9.2188v-7.5156h-9.2188q-10.406 0-14.359 3.875-3.9531 3.8906-3.9531 14.141v29.688h-6.5938v6.9844h6.5938v15.531z"/>
</defs>
<use xlink:href="#p"/>
<use x="52.099609" xlink:href="#d"/>
<use x="113.623047" xlink:href="#h"/>
<use x="177.001953" xlink:href="#q"/>
<use x="216.210938" xlink:href="#f"/>
<use x="243.994141" xlink:href="#i"/>
<use x="341.40625" xlink:href="#d"/>
<use x="402.929688" xlink:href="#h"/>
<use x="466.308594" xlink:href="#q"/>
</g>
</g>
<g clip-path="url(#a)">
<g transform="translate(89.528 562.76) scale(.1 -.1)">
<use xlink:href="#p"/>
<use x="52.099609" xlink:href="#d"/>
</g>
</g>
<g clip-path="url(#a)">
<g transform="translate(95.617 562.76) scale(.1 -.1)">
<defs>
<path id="ag" d="m18.109 8.2031v-29h-9.0312v75.484h9.0312v-8.2969q2.8438 4.875 7.1562 7.2344 4.3281 2.375 10.328 2.375 9.9688 0 16.188-7.9062 6.2344-7.9062 6.2344-20.797t-6.2344-20.812q-6.2188-7.9062-16.188-7.9062-6 0-10.328 2.375-4.3125 2.375-7.1562 7.25zm30.578 19.094q0 9.9062-4.0781 15.547t-11.203 5.6406q-7.1406 0-11.219-5.6406t-4.0781-15.547 4.0781-15.547 11.219-5.6406q7.125 0 11.203 5.6406t4.0781 15.547z"/>
<path id="s" d="m45.406 46.391v29.594h8.9844v-75.984h-8.9844v8.2031q-2.8281-4.875-7.1562-7.25-4.3125-2.375-10.375-2.375-9.9062 0-16.141 7.9062-6.2188 7.9219-6.2188 20.812t6.2188 20.797q6.2344 7.9062 16.141 7.9062 6.0625 0 10.375-2.375 4.3281-2.3594 7.1562-7.2344zm-30.609-19.094q0-9.9062 4.0781-15.547t11.203-5.6406 11.219 5.6406q4.1094 5.6406 4.1094 15.547t-4.1094 15.547q-4.0938 5.6406-11.219 5.6406t-11.203-5.6406-4.0781-15.547z"/>
</defs>
<use xlink:href="#ag"/>
<use x="63.476562" xlink:href="#g"/>
<use x="102.339844" xlink:href="#r"/>
<use x="163.521484" xlink:href="#s"/>
<use x="226.998047" xlink:href="#t"/>
<use x="290.376953" xlink:href="#f"/>
<use x="318.160156" xlink:href="#p"/>
<use x="370.259766" xlink:href="#f"/>
<use x="398.042969" xlink:href="#q"/>
</g>
</g>
<g clip-path="url(#a)">
<g transform="translate(140.4 562.76) scale(.1 -.1)">
<defs>
<path id="as" d="m34.281 27.484q-10.891 0-15.094-2.4844t-4.2031-8.5q0-4.7812 3.1562-7.5938 3.1562-2.7969 8.5625-2.7969 7.4844 0 12 5.2969t4.5156 14.078v2zm17.922 3.7188v-31.203h-8.9844v8.2969q-3.0781-4.9688-7.6719-7.3438t-11.234-2.375q-8.3906 0-13.359 4.7188-4.9531 4.7188-4.9531 12.625 0 9.2188 6.1719 13.906 6.1875 4.6875 18.438 4.6875h12.609v0.89062q0 6.2031-4.0781 9.5938t-11.453 3.3906q-4.6875 0-9.1406-1.125-4.4375-1.125-8.5312-3.375v8.3125q4.9219 1.9062 9.5625 2.8438 4.6406 0.95312 9.0312 0.95312 11.875 0 17.734-6.1562 5.8594-6.1406 5.8594-18.641zm-30.281 48.781 13.766-18.266h-7.4688l-15.922 18.266z"/>
</defs>
<use xlink:href="#as"/>
</g>
</g>
<g clip-path="url(#a)">
<g transform="translate(161.78 562.76) scale(.1 -.1)">
<defs>
<path id="al" d="m48.688 27.297q0 9.9062-4.0781 15.547t-11.203 5.6406q-7.1406 0-11.219-5.6406t-4.0781-15.547 4.0781-15.547 11.219-5.6406q7.125 0 11.203 5.6406t4.0781 15.547zm-30.578 19.094q2.8438 4.875 7.1562 7.2344 4.3281 2.375 10.328 2.375 9.9688 0 16.188-7.9062 6.2344-7.9062 6.2344-20.797t-6.2344-20.812q-6.2188-7.9062-16.188-7.9062-6 0-10.328 2.375-4.3125 2.375-7.1562 7.25v-8.2031h-9.0312v75.984h9.0312z"/>
</defs>
<use xlink:href="#al"/>
<use x="63.476562" xlink:href="#r"/>
<use x="124.658203" xlink:href="#g"/>
<use x="164.021484" xlink:href="#s"/>
</g>
</g>
<g clip-path="url(#a)">
<g transform="translate(204.98 562.76) scale(.1 -.1)">
<defs>
<path id="ar" d="m11.719 12.406h10.297v-8.4062l-8-15.625h-6.2969l4 15.625z"/>
</defs>
<use xlink:href="#ar"/>
</g>
</g>
<g clip-path="url(#a)">
<g transform="translate(235.95 562.76) scale(.1 -.1)">
<defs>
<path id="au" d="m14.797 27.297q0-9.9062 4.0781-15.547t11.203-5.6406 11.219 5.6406q4.1094 5.6406 4.1094 15.547t-4.1094 15.547q-4.0938 5.6406-11.219 5.6406t-11.203-5.6406-4.0781-15.547zm30.609-19.094q-2.8281-4.875-7.1562-7.25-4.3125-2.375-10.375-2.375-9.9062 0-16.141 7.9062-6.2188 7.9219-6.2188 20.812t6.2188 20.797q6.2344 7.9062 16.141 7.9062 6.0625 0 10.375-2.375 4.3281-2.3594 7.1562-7.2344v8.2969h8.9844v-75.484h-8.9844z"/>
</defs>
<use xlink:href="#au"/>
<use x="63.476562" xlink:href="#t"/>
<use x="126.855469" xlink:href="#f"/>
</g>
</g>
<g clip-path="url(#a)">
<g transform="translate(278.83 562.76) scale(.1 -.1)">
<use xlink:href="#p"/>
<use x="52.099609" xlink:href="#d"/>
</g>
</g>
<g clip-path="url(#a)">
<g transform="translate(303.12 562.76) scale(.1 -.1)">
<defs>
<path id="ah" d="m48.781 52.594v-8.4062q-3.8125 2.1094-7.6406 3.1562t-7.7344 1.0469q-8.75 0-13.594-5.5469-4.8281-5.5312-4.8281-15.547t4.8281-15.562q4.8438-5.5312 13.594-5.5312 3.9062 0 7.7344 1.0469t7.6406 3.1562v-8.3125q-3.7656-1.75-7.7969-2.625-4.0156-0.89062-8.5625-0.89062-12.359 0-19.641 7.7656-7.2656 7.7656-7.2656 20.953 0 13.375 7.3438 21.031 7.3594 7.6719 20.156 7.6719 4.1406 0 8.0938-0.85938 3.9531-0.84375 7.6719-2.5469z"/>
</defs>
<use xlink:href="#ah"/>
<use x="54.980469" xlink:href="#r"/>
<use x="116.162109" xlink:href="#i"/>
<use x="213.574219" xlink:href="#ag"/>
<use x="277.050781" xlink:href="#r"/>
<use x="338.232422" xlink:href="#p"/>
<use x="390.332031" xlink:href="#j"/>
<use x="451.611328" xlink:href="#f"/>
<use x="479.394531" xlink:href="#q"/>
</g>
</g>
<g clip-path="url(#a)">
<g transform="translate(371.06 562.76) scale(.1 -.1)">
<use xlink:href="#s"/>
<use x="63.476562" xlink:href="#d"/>
</g>
</g>
<g clip-path="url(#a)">
<g transform="translate(418.32 562.76) scale(.1 -.1)">
<use xlink:href="#q"/>
<use x="39.208984" xlink:href="#g"/>
<use x="78.072266" xlink:href="#r"/>
<use x="139.253906" xlink:href="#f"/>
<use x="167.037109" xlink:href="#p"/>
</g>
</g>
<g clip-path="url(#a)">
<g transform="translate(462.41 562.76) scale(.1 -.1)">
<defs>
<path id="ak" d="m54.891 54.688-19.781-26.609 20.797-28.078h-10.594l-15.922 21.484-15.906-21.484h-10.609l21.25 28.609-19.438 26.078h10.594l14.5-19.484 14.5 19.484z"/>
<path id="aj" d="m56.203 29.594v-4.3906h-41.312q0.59375-9.2812 5.5938-14.141t13.938-4.8594q5.1719 0 10.031 1.2656t9.6562 3.8125v-8.5q-4.8438-2.0469-9.9219-3.125t-10.297-1.0781q-13.094 0-20.734 7.6094-7.6406 7.625-7.6406 20.625 0 13.422 7.25 21.297 7.25 7.8906 19.562 7.8906 11.031 0 17.453-7.1094 6.4219-7.0938 6.4219-19.297zm-8.9844 2.6406q-0.09375 7.3594-4.125 11.75-4.0312 4.4062-10.672 4.4062-7.5156 0-12.031-4.25t-5.2031-11.969zm-22.547 47.75 13.766-18.266h-7.4688l-15.922 18.266z"/>
</defs>
<use xlink:href="#s"/>
<use x="63.476562" xlink:href="#f"/>
<use x="91.259766" xlink:href="#ak"/>
<use x="150.439453" xlink:href="#f"/>
<use x="178.222656" xlink:href="#aj"/>
<use x="239.746094" xlink:href="#i"/>
<use x="337.158203" xlink:href="#d"/>
<use x="398.681641" xlink:href="#p"/>
</g>
</g>
<g clip-path="url(#a)">
<g transform="translate(538.09 562.76) scale(.1 -.1)">
<use xlink:href="#s"/>
<use x="63.476562" xlink:href="#d"/>
</g>
</g>
<g clip-path="url(#a)">
<g transform="translate(593.01 562.76) scale(.1 -.1)">
<defs>
<path id="av" d="m54.891 33.016v-33.016h-8.9844v32.719q0 7.7656-3.0312 11.609-3.0312 3.8594-9.0781 3.8594-7.2812 0-11.484-4.6406-4.2031-4.625-4.2031-12.641v-30.906h-9.0312v75.984h9.0312v-29.797q3.2344 4.9375 7.5938 7.375 4.375 2.4375 10.094 2.4375 9.4219 0 14.25-5.8281 4.8438-5.8281 4.8438-17.156z"/>
</defs>
<use xlink:href="#av"/>
<use x="63.378906" xlink:href="#r"/>
<use x="124.560547" xlink:href="#h"/>
<use x="187.939453" xlink:href="#q"/>
<use x="227.148438" xlink:href="#d"/>
</g>
</g>
<g clip-path="url(#a)">
<g transform="translate(658.3 562.76) scale(.1 -.1)">
<use xlink:href="#ah"/>
<use x="54.980469" xlink:href="#r"/>
<use x="116.162109" xlink:href="#h"/>
<use x="179.541016" xlink:href="#q"/>
<use x="218.75" xlink:href="#g"/>
<use x="257.613281" xlink:href="#d"/>
</g>
</g>
<g clip-path="url(#a)">
<g transform="translate(733.97 562.76) scale(.1 -.1)">
<use xlink:href="#p"/>
<use x="52.099609" xlink:href="#d"/>
<use x="113.623047" xlink:href="#ag"/>
<use x="177.099609" xlink:href="#q"/>
</g>
</g>
<g clip-path="url(#a)">
<g transform="translate(796.48 562.76) scale(.1 -.1)">
<use xlink:href="#s"/>
<use x="63.476562" xlink:href="#f"/>
<use x="91.259766" xlink:href="#ak"/>
<use x="150.439453" xlink:href="#f"/>
<use x="178.222656" xlink:href="#aj"/>
<use x="239.746094" xlink:href="#i"/>
<use x="337.158203" xlink:href="#d"/>
<use x="398.681641" xlink:href="#p"/>
</g>
</g>
<g clip-path="url(#a)">
<g transform="translate(890.72 562.76) scale(.1 -.1)">
<use xlink:href="#s"/>
<use x="63.476562" xlink:href="#d"/>
</g>
</g>
<g clip-path="url(#a)">
<g transform="translate(963.45 562.76) scale(.1 -.1)">
<defs>
<path id="aw" d="m37.109 75.984v-7.4844h-8.5938q-4.8281 0-6.7188-1.9531-1.875-1.9531-1.875-7.0312v-4.8281h14.797v-6.9844h-14.797v-47.703h-9.0312v47.703h-8.5938v6.9844h8.5938v3.8125q0 9.125 4.25 13.297 4.25 4.1875 13.469 4.1875z"/>
</defs>
<use xlink:href="#aw"/>
<use x="35.205078" xlink:href="#t"/>
<use x="98.583984" xlink:href="#g"/>
<use x="137.447266" xlink:href="#d"/>
<use x="198.970703" xlink:href="#t"/>
<use x="262.349609" xlink:href="#g"/>
</g>
</g>
<g clip-path="url(#a)">
<g transform="translate(1062.4 562.76) scale(.1 -.1)">
<defs>
<path id="e" d="m10.688 12.406h10.312v-12.406h-10.312z"/>
</defs>
<use xlink:href="#e"/>
</g>
</g>
<g clip-path="url(#a)">
<g transform="translate(208.34 29.426) scale(.1 -.1)">
<defs>
<path id="c" d="m12.406 8.2969h16.109v55.625l-17.531-3.5156v8.9844l17.438 3.5156h9.8594v-64.609h16.109v-8.2969h-41.984z"/>
</defs>
<use xlink:href="#c"/>
<use x="63.623047" xlink:href="#e"/>
<use x="95.410156" xlink:href="#c"/>
</g>
</g>
<g clip-path="url(#a)">
<g transform="translate(101.18 259.7) scale(.1 -.1)">
<defs>
<path id="m" d="m19.188 8.2969h34.422v-8.2969h-46.281v8.2969q5.6094 5.8125 15.297 15.594 9.7031 9.7969 12.188 12.641 4.7344 5.3125 6.6094 9 1.8906 3.6875 1.8906 7.25 0 5.8125-4.0781 9.4688-4.0781 3.6719-10.625 3.6719-4.6406 0-9.7969-1.6094-5.1406-1.6094-11-4.8906v9.9688q5.9531 2.3906 11.125 3.6094 5.1875 1.2188 9.4844 1.2188 11.328 0 18.062-5.6719 6.7344-5.6562 6.7344-15.125 0-4.5-1.6875-8.5312-1.6719-4.0156-6.125-9.4844-1.2188-1.4219-7.7656-8.1875-6.5312-6.7656-18.453-18.922z"/>
</defs>
<use xlink:href="#c"/>
<use x="63.623047" xlink:href="#e"/>
<use x="95.410156" xlink:href="#m"/>
</g>
</g>
<g clip-path="url(#a)">
<g transform="translate(235.73 488.04) scale(.1 -.1)">
<defs>
<path id="n" d="m40.578 39.312q7.0781-1.5156 11.047-6.3125 3.9844-4.7812 3.9844-11.812 0-10.781-7.4219-16.703-7.4219-5.9062-21.094-5.9062-4.5781 0-9.4375 0.90625t-10.031 2.7188v9.5156q4.0938-2.3906 8.9688-3.6094 4.8906-1.2188 10.219-1.2188 9.2656 0 14.125 3.6562t4.8594 10.641q0 6.4531-4.5156 10.078-4.5156 3.6406-12.562 3.6406h-8.5v8.1094h8.8906q7.2656 0 11.125 2.9062t3.8594 8.375q0 5.6094-3.9844 8.6094-3.9688 3.0156-11.391 3.0156-4.0625 0-8.7031-0.89062-4.6406-0.875-10.203-2.7188v8.7812q5.625 1.5625 10.531 2.3438t9.25 0.78125q11.234 0 17.766-5.1094 6.5469-5.0938 6.5469-13.781 0-6.0625-3.4688-10.234t-9.8594-5.7812z"/>
</defs>
<use xlink:href="#c"/>
<use x="63.623047" xlink:href="#e"/>
<use x="95.410156" xlink:href="#n"/>
</g>
</g>
<g clip-path="url(#a)">
<g transform="translate(297.84 106.32) scale(.1 -.1)">
<defs>
<path id="y" d="m37.797 64.312-24.906-38.922h24.906zm-2.5938 8.5938h12.406v-47.516h10.406v-8.2031h-10.406v-17.188h-9.8125v17.188h-32.906v9.5156z"/>
</defs>
<use xlink:href="#c"/>
<use x="63.623047" xlink:href="#e"/>
<use x="95.410156" xlink:href="#y"/>
</g>
</g>
<g clip-path="url(#a)">
<g transform="translate(298.83 488.04) scale(.1 -.1)">
<defs>
<path id="ac" d="m8.2031 72.906h46.875v-4.2031l-26.469-68.703h-10.297l24.906 64.594h-35.016z"/>
</defs>
<use xlink:href="#c"/>
<use x="63.623047" xlink:href="#e"/>
<use x="95.410156" xlink:href="#ac"/>
</g>
</g>
<g clip-path="url(#a)">
<g transform="translate(525.98 183.09) scale(.1 -.1)">
<defs>
<path id="ab" d="m31.781 34.625q-7.0312 0-11.062-3.7656-4.0156-3.7656-4.0156-10.344 0-6.5938 4.0156-10.359 4.0312-3.7656 11.062-3.7656t11.078 3.7812q4.0625 3.7969 4.0625 10.344 0 6.5781-4.0312 10.344-4.0156 3.7656-11.109 3.7656zm-9.8594 4.1875q-6.3438 1.5625-9.8906 5.9062-3.5312 4.3594-3.5312 10.609 0 8.7344 6.2188 13.812 6.2344 5.0781 17.062 5.0781 10.891 0 17.094-5.0781t6.2031-13.812q0-6.25-3.5469-10.609-3.5312-4.3438-9.8281-5.9062 7.125-1.6562 11.094-6.5 3.9844-4.8281 3.9844-11.797 0-10.609-6.4688-16.281-6.4688-5.6562-18.531-5.6562-12.047 0-18.531 5.6562-6.4688 5.6719-6.4688 16.281 0 6.9688 4 11.797 4.0156 4.8438 11.141 6.5zm-3.6094 15.578q0-5.6562 3.5312-8.8281 3.5469-3.1719 9.9375-3.1719 6.3594 0 9.9375 3.1719 3.5938 3.1719 3.5938 8.8281 0 5.6719-3.5938 8.8438-3.5781 3.1719-9.9375 3.1719-6.3906 0-9.9375-3.1719-3.5312-3.1719-3.5312-8.8438z"/>
</defs>
<use xlink:href="#c"/>
<use x="63.623047" xlink:href="#e"/>
<use x="95.410156" xlink:href="#ab"/>
</g>
</g>
<g clip-path="url(#a)">
<g transform="translate(369.36 488.04) scale(.1 -.1)">
<defs>
<path id="aa" d="m10.984 1.5156v8.9844q3.7188-1.7656 7.5156-2.6875 3.8125-0.92188 7.4844-0.92188 9.7656 0 14.906 6.5625 5.1562 6.5625 5.8906 19.953-2.8281-4.2031-7.1875-6.4531-4.3438-2.25-9.6094-2.25-10.938 0-17.312 6.6094-6.375 6.625-6.375 18.109 0 11.219 6.6406 18 6.6406 6.7969 17.672 6.7969 12.656 0 19.312-9.7031 6.6719-9.6875 6.6719-28.141 0-17.234-8.1875-27.516-8.1719-10.281-21.984-10.281-3.7188 0-7.5312 0.73438-3.7969 0.73438-7.9062 2.2031zm19.625 30.906q6.6406 0 10.516 4.5312 3.8906 4.5469 3.8906 12.469 0 7.8594-3.8906 12.422-3.875 4.5625-10.516 4.5625t-10.516-4.5625-3.875-12.422q0-7.9219 3.875-12.469 3.875-4.5312 10.516-4.5312z"/>
</defs>
<use xlink:href="#c"/>
<use x="63.623047" xlink:href="#e"/>
<use x="95.410156" xlink:href="#aa"/>
</g>
</g>
<g clip-path="url(#a)">
<g transform="translate(679.41 259.7) scale(.1 -.1)">
<defs>
<path id="af" d="m31.781 66.406q-7.6094 0-11.453-7.5-3.8281-7.4844-3.8281-22.531 0-14.984 3.8281-22.484 3.8438-7.5 11.453-7.5 7.6719 0 11.5 7.5 3.8438 7.5 3.8438 22.484 0 15.047-3.8438 22.531-3.8281 7.5-11.5 7.5zm0 7.8125q12.266 0 18.734-9.7031 6.4688-9.6875 6.4688-28.141 0-18.406-6.4688-28.109-6.4688-9.6875-18.734-9.6875-12.25 0-18.719 9.6875-6.4688 9.7031-6.4688 28.109 0 18.453 6.4688 28.141 6.4688 9.7031 18.719 9.7031z"/>
</defs>
<use xlink:href="#c"/>
<use x="63.623047" xlink:href="#e"/>
<use x="95.410156" xlink:href="#c"/>
<use x="159.033203" xlink:href="#af"/>
</g>
</g>
<g clip-path="url(#a)">
<g transform="translate(505.37 336.12) scale(.1 -.1)">
<use xlink:href="#c"/>
<use x="63.623047" xlink:href="#e"/>
<use x="95.410156" xlink:href="#c"/>
<use x="159.033203" xlink:href="#c"/>
</g>
</g>
<g clip-path="url(#a)">
<g transform="translate(663.12 488.04) scale(.1 -.1)">
<use xlink:href="#c"/>
<use x="63.623047" xlink:href="#e"/>
<use x="95.410156" xlink:href="#c"/>
<use x="159.033203" xlink:href="#m"/>
</g>
</g>
<g clip-path="url(#a)">
<g transform="translate(869.75 336.12) scale(.1 -.1)">
<use xlink:href="#c"/>
<use x="63.623047" xlink:href="#e"/>
<use x="95.410156" xlink:href="#c"/>
<use x="159.033203" xlink:href="#n"/>
</g>
</g>
<g clip-path="url(#a)">
<g transform="translate(770.77 412.28) scale(.1 -.1)">
<use xlink:href="#c"/>
<use x="63.623047" xlink:href="#e"/>
<use x="95.410156" xlink:href="#c"/>
<use x="159.033203" xlink:href="#y"/>
</g>
</g>
<g clip-path="url(#a)">
<g transform="translate(968.73 412.28) scale(.1 -.1)">
<defs>
<path id="ae" d="m10.797 72.906h38.719v-8.3125h-29.688v-17.859q2.1406 0.73438 4.2812 1.0938 2.1562 0.35938 4.3125 0.35938 12.203 0 19.328-6.6875 7.1406-6.6875 7.1406-18.109 0-11.766-7.3281-18.297-7.3281-6.5156-20.656-6.5156-4.5938 0-9.3594 0.78125-4.75 0.78125-9.8281 2.3438v9.9219q4.3906-2.3906 9.0781-3.5625t9.9062-1.1719q8.4531 0 13.375 4.4375 4.9375 4.4375 4.9375 12.062 0 7.6094-4.9375 12.047-4.9219 4.4531-13.375 4.4531-3.9531 0-7.8906-0.875-3.9219-0.875-8.0156-2.7344z"/>
</defs>
<use xlink:href="#c"/>
<use x="63.623047" xlink:href="#e"/>
<use x="95.410156" xlink:href="#c"/>
<use x="159.033203" xlink:href="#ae"/>
</g>
</g>
<g clip-path="url(#a)">
<g transform="translate(885.83 488.04) scale(.1 -.1)">
<defs>
<path id="ad" d="m33.016 40.375q-6.6406 0-10.531-4.5469-3.875-4.5312-3.875-12.438 0-7.8594 3.875-12.438 3.8906-4.5625 10.531-4.5625t10.516 4.5625q3.875 4.5781 3.875 12.438 0 7.9062-3.875 12.438-3.875 4.5469-10.516 4.5469zm19.578 30.922v-8.9844q-3.7188 1.75-7.5 2.6719-3.7812 0.9375-7.5 0.9375-9.7656 0-14.922-6.5938-5.1406-6.5938-5.875-19.922 2.875 4.25 7.2188 6.5156 4.3594 2.2656 9.5781 2.2656 10.984 0 17.359-6.6719 6.375-6.6562 6.375-18.125 0-11.234-6.6406-18.031-6.6406-6.7812-17.672-6.7812-12.656 0-19.344 9.6875-6.6875 9.7031-6.6875 28.109 0 17.281 8.2031 27.562t22.016 10.281q3.7188 0 7.5-0.73438t7.8906-2.1875z"/>
</defs>
<use xlink:href="#c"/>
<use x="63.623047" xlink:href="#e"/>
<use x="95.410156" xlink:href="#c"/>
<use x="159.033203" xlink:href="#ad"/>
</g>
</g>
<g clip-path="url(#a)">
<g transform="translate(967.49 488.04) scale(.1 -.1)">
<use xlink:href="#c"/>
<use x="63.623047" xlink:href="#e"/>
<use x="95.410156" xlink:href="#c"/>
<use x="159.033203" xlink:href="#ac"/>
</g>
</g>
<g clip-path="url(#a)">
<g transform="translate(733.65 488.04) scale(.1 -.1)">
<use xlink:href="#c"/>
<use x="63.623047" xlink:href="#e"/>
<use x="95.410156" xlink:href="#c"/>
<use x="159.033203" xlink:href="#ab"/>
</g>
</g>
<g clip-path="url(#a)">
<g transform="translate(807.89 488.04) scale(.1 -.1)">
<use xlink:href="#c"/>
<use x="63.623047" xlink:href="#e"/>
<use x="95.410156" xlink:href="#c"/>
<use x="159.033203" xlink:href="#aa"/>
</g>
</g>
<g clip-path="url(#a)">
<g transform="translate(445.98 412.28) scale(.1 -.1)">
<use xlink:href="#c"/>
<use x="63.623047" xlink:href="#e"/>
<use x="95.410156" xlink:href="#m"/>
<use x="159.033203" xlink:href="#af"/>
</g>
</g>
<g clip-path="url(#a)">
<g transform="translate(564.76 412.28) scale(.1 -.1)">
<use xlink:href="#c"/>
<use x="63.623047" xlink:href="#e"/>
<use x="95.410156" xlink:href="#m"/>
<use x="159.033203" xlink:href="#c"/>
</g>
</g>
<g clip-path="url(#a)">
<g transform="translate(533.21 488.04) scale(.1 -.1)">
<use xlink:href="#c"/>
<use x="63.623047" xlink:href="#e"/>
<use x="95.410156" xlink:href="#m"/>
<use x="159.033203" xlink:href="#m"/>
</g>
</g>
<g clip-path="url(#a)">
<g transform="translate(596.31 488.04) scale(.1 -.1)">
<use xlink:href="#c"/>
<use x="63.623047" xlink:href="#e"/>
<use x="95.410156" xlink:href="#m"/>
<use x="159.033203" xlink:href="#n"/>
</g>
</g>
<g clip-path="url(#a)">
<g transform="translate(418.14 488.04) scale(.1 -.1)">
<use xlink:href="#c"/>
<use x="63.623047" xlink:href="#e"/>
<use x="95.410156" xlink:href="#m"/>
<use x="159.033203" xlink:href="#y"/>
</g>
</g>
<g clip-path="url(#a)">
<g transform="translate(473.82 488.04) scale(.1 -.1)">
<use xlink:href="#c"/>
<use x="63.623047" xlink:href="#e"/>
<use x="95.410156" xlink:href="#m"/>
<use x="159.033203" xlink:href="#ae"/>
</g>
</g>
<g clip-path="url(#a)">
<g transform="translate(51.597 336.12) scale(.1 -.1)">
<use xlink:href="#c"/>
<use x="63.623047" xlink:href="#e"/>
<use x="95.410156" xlink:href="#m"/>
<use x="159.033203" xlink:href="#ad"/>
</g>
</g>
<g clip-path="url(#a)">
<g transform="translate(95.212 488.04) scale(.1 -.1)">
<use xlink:href="#c"/>
<use x="63.623047" xlink:href="#e"/>
<use x="95.410156" xlink:href="#m"/>
<use x="159.033203" xlink:href="#ac"/>
</g>
</g>
<g clip-path="url(#a)">
<g transform="translate(147.18 412.28) scale(.1 -.1)">
<use xlink:href="#c"/>
<use x="63.623047" xlink:href="#e"/>
<use x="95.410156" xlink:href="#m"/>
<use x="159.033203" xlink:href="#ab"/>
</g>
</g>
<g clip-path="url(#a)">
<g transform="translate(132.33 488.04) scale(.1 -.1)">
<use xlink:href="#c"/>
<use x="63.623047" xlink:href="#e"/>
<use x="95.410156" xlink:href="#m"/>
<use x="159.033203" xlink:href="#aa"/>
</g>
</g>
<g clip-path="url(#a)">
<g transform="translate(162.02 488.04) scale(.1 -.1)">
<use xlink:href="#c"/>
<use x="63.623047" xlink:href="#e"/>
<use x="95.410156" xlink:href="#n"/>
<use x="159.033203" xlink:href="#af"/>
</g>
</g>
<g clip-path="url(#a)">
<g transform="translate(52.525 412.28) scale(.1 -.1)">
<use xlink:href="#c"/>
<use x="63.623047" xlink:href="#e"/>
<use x="95.410156" xlink:href="#n"/>
<use x="159.033203" xlink:href="#c"/>
</g>
</g>
<g clip-path="url(#a)">
<g transform="translate(50.669 488.04) scale(.1 -.1)">
<use xlink:href="#c"/>
<use x="63.623047" xlink:href="#e"/>
<use x="95.410156" xlink:href="#n"/>
<use x="159.033203" xlink:href="#m"/>
</g>
</g>
<g clip-path="url(#a)">
<g transform="translate(39.534 488.04) scale(.1 -.1)">
<use xlink:href="#c"/>
<use x="63.623047" xlink:href="#e"/>
<use x="95.410156" xlink:href="#n"/>
<use x="159.033203" xlink:href="#n"/>
</g>
</g>
<g clip-path="url(#a)">
<g transform="translate(65.517 488.04) scale(.1 -.1)">
<use xlink:href="#c"/>
<use x="63.623047" xlink:href="#e"/>
<use x="95.410156" xlink:href="#n"/>
<use x="159.033203" xlink:href="#y"/>
</g>
</g>
<g clip-path="url(#a)">
<g transform="translate(195.43 488.04) scale(.1 -.1)">
<use xlink:href="#c"/>
<use x="63.623047" xlink:href="#e"/>
<use x="95.410156" xlink:href="#n"/>
<use x="159.033203" xlink:href="#ae"/>
</g>
</g>
<g clip-path="url(#a)">
<g transform="translate(1052.9 488.04) scale(.1 -.1)">
<use xlink:href="#c"/>
<use x="63.623047" xlink:href="#e"/>
<use x="95.410156" xlink:href="#n"/>
<use x="159.033203" xlink:href="#ad"/>
</g>
</g>
<defs>
<clipPath id="a">
<rect width="1114.7" height="586.67"/>
</clipPath>
</defs>
</svg>
