<?xml version="1.0" encoding="UTF-8"?>
<!DOCTYPE svg  PUBLIC '-//W3C//DTD SVG 1.1//EN'  'http://www.w3.org/Graphics/SVG/1.1/DTD/svg11.dtd'>
<svg width="1621.3pt" height="853.33pt" version="1.1" viewBox="0 0 1621.3 853.33" xmlns="http://www.w3.org/2000/svg" xmlns:xlink="http://www.w3.org/1999/xlink">
<metadata>
<rdf:RDF xmlns:cc="http://creativecommons.org/ns#" xmlns:dc="http://purl.org/dc/elements/1.1/" xmlns:rdf="http://www.w3.org/1999/02/22-rdf-syntax-ns#">
<cc:Work>
<dc:type rdf:resource="http://purl.org/dc/dcmitype/StillImage"/>
<dc:date>2021-03-17T07:14:00.039013</dc:date>
<dc:format>image/svg+xml</dc:format>
<dc:creator>
<cc:Agent>
<dc:title>Matplotlib v3.3.3, https://matplotlib.org/</dc:title>
</cc:Agent>
</dc:creator>
</cc:Work>
</rdf:RDF>
</metadata>
<defs>
<style type="text/css">*{stroke-linecap:butt;stroke-linejoin:round;}</style>
</defs>
<path d="m0 853.33h1621.3v-853.33h-1621.3z" fill="#fff"/>
<g fill="none" stroke="#000">
<path d="m617.76 38.788-479.76 156.53" clip-path="url(#a)"/>
<path d="m617.76 38.788-147.84 623.08" clip-path="url(#a)"/>
<path d="m617.76 38.788-30.443 468.28" clip-path="url(#a)"/>
<path d="m617.76 38.788 240.45 623.08" clip-path="url(#a)"/>
<path d="m617.76 38.788 433.28 156.53" clip-path="url(#a)"/>
<path d="m617.76 38.788-192.75 623.08" clip-path="url(#a)"/>
<path d="m617.76 38.788 177.06 623.08" clip-path="url(#a)"/>
<path d="m137.99 195.32-60.336 311.75" clip-path="url(#a)"/>
<path d="m137.99 195.32-45.807 466.55" clip-path="url(#a)"/>
<path d="m137.99 195.32-6.1854 311.75" clip-path="url(#a)"/>
<path d="m137.99 195.32 112.33 156.14" clip-path="url(#a)"/>
<path d="m469.92 661.87v152.67" clip-path="url(#a)"/>
<path d="m587.32 507.07-69.852 154.8" clip-path="url(#a)"/>
<path d="m587.32 507.07-19.664 154.8" clip-path="url(#a)"/>
<path d="m587.32 507.07 89.516 154.8" clip-path="url(#a)"/>
<path d="m858.21 661.87v152.67" clip-path="url(#a)"/>
<path d="m1051 195.32-56.792 466.55" clip-path="url(#a)"/>
<path d="m1051 195.32-58.112 466.55" clip-path="url(#a)"/>
<path d="m1051 195.32 178.3 156.14" clip-path="url(#a)"/>
<path d="m1051 195.32 409.43 466.55" clip-path="url(#a)"/>
<path d="m1051 195.32-969.42 466.55" clip-path="url(#a)" stroke-dasharray="3.7,1.6"/>
<path d="m1051 195.32 496.6 466.55" clip-path="url(#a)"/>
<path d="m994.25 661.87-69.999 152.67" clip-path="url(#a)"/>
<path d="m994.25 661.87 69.999 152.67" clip-path="url(#a)"/>
<path d="m992.93 661.87v152.67" clip-path="url(#a)"/>
<path d="m1229.3 351.46-91.131 310.41" clip-path="url(#a)"/>
<path d="m1229.3 351.46-14.528 310.41" clip-path="url(#a)"/>
<path d="m1229.3 351.46 105.66 155.61" clip-path="url(#a)"/>
<path d="m1460.5 661.87v152.67" clip-path="url(#a)"/>
<path d="m1138.2 661.87v152.67" clip-path="url(#a)"/>
<path d="m1214.8 661.87v152.67" clip-path="url(#a)"/>
<path d="m1335 507.07-40.943 154.8" clip-path="url(#a)"/>
<path d="m1335 507.07 40.943 154.8" clip-path="url(#a)"/>
<path d="m1294.1 661.87v152.67" clip-path="url(#a)"/>
<path d="m1375.9 661.87v152.67" clip-path="url(#a)"/>
<path d="m517.46 661.87v152.67" clip-path="url(#a)"/>
<path d="m567.65 661.87v152.67" clip-path="url(#a)"/>
<path d="m676.83 661.87-56.351 152.67" clip-path="url(#a)"/>
<path d="m676.83 661.87-0.88049 152.67" clip-path="url(#a)"/>
<path d="m676.83 661.87 57.232 152.67" clip-path="url(#a)"/>
<path d="m77.659 507.07-3.9622 154.8" clip-path="url(#a)"/>
<path d="m77.659 507.07 3.9622 154.8" clip-path="url(#a)"/>
<path d="m92.187 661.87v152.67" clip-path="url(#a)"/>
<path d="m131.81 507.07-26.415 154.8" clip-path="url(#a)"/>
<path d="m131.81 507.07-10.566 154.8" clip-path="url(#a)"/>
<path d="m131.81 507.07 7.9244 154.8" clip-path="url(#a)"/>
<path d="m131.81 507.07 29.056 154.8" clip-path="url(#a)"/>
<path d="m250.32 351.46-65.685 310.41" clip-path="url(#a)"/>
<path d="m250.32 351.46-39.27 310.41" clip-path="url(#a)"/>
<path d="m250.32 351.46-10.214 310.41" clip-path="url(#a)"/>
<path d="m250.32 351.46 93.684 155.61" clip-path="url(#a)"/>
<path d="m250.32 351.46 21.484 310.41" clip-path="url(#a)"/>
<path d="m184.64 661.87v152.67" clip-path="url(#a)"/>
<path d="m211.05 661.87v152.67" clip-path="url(#a)"/>
<path d="m240.11 661.87v152.67" clip-path="url(#a)"/>
<path d="m344.01 507.07-37.861 307.47" clip-path="url(#a)"/>
<path d="m344.01 507.07 38.742 307.47" clip-path="url(#a)"/>
<path d="m344.01 507.07-0.88049 154.8" clip-path="url(#a)"/>
<path d="m105.39 661.87v152.67" clip-path="url(#a)"/>
<path d="m121.24 661.87v152.67" clip-path="url(#a)"/>
<path d="m139.73 661.87v152.67" clip-path="url(#a)"/>
<path d="m160.87 661.87v152.67" clip-path="url(#a)"/>
<path d="m73.697 661.87v152.67" clip-path="url(#a)"/>
<path d="m81.621 661.87v152.67" clip-path="url(#a)"/>
<path d="m271.81 661.87v152.67" clip-path="url(#a)"/>
<path d="m343.13 661.87v152.67" clip-path="url(#a)"/>
<path d="m425.01 661.87v152.67" clip-path="url(#a)"/>
<path d="m794.82 661.87v152.67" clip-path="url(#a)"/>
<path d="m1547.6 661.87v152.67" clip-path="url(#a)"/>
</g>
<path d="m376.96 123.95 5.7195-1.8661q2.2816-0.74444 1.5372-3.0261l-2.4016-7.3606q-0.74444-2.2816-3.0261-1.5372l-5.7195 1.8661q-2.2816 0.74444-1.5372 3.0261l2.4016 7.3606q0.74444 2.2816 3.0261 1.5372z" clip-path="url(#a)" fill="#fff" stroke="#fff"/>
<g clip-path="url(#a)">
<g transform="translate(375.7 120.09) rotate(-18.07) scale(.08 -.08)">
<defs>
<path id="af" d="m9.8125 72.906h9.8594v-29.891h35.844v29.891h9.8594v-72.906h-9.8594v34.719h-35.844v-34.719h-9.8594z"/>
</defs>
<use xlink:href="#af"/>
</g>
</g>
<path d="m549.43 353.95 1.0291-4.3371q0.55407-2.3352-1.7811-2.8892l-7.5333-1.7875q-2.3352-0.55408-2.8892 1.7811l-1.0291 4.3371q-0.55408 2.3352 1.7811 2.8892l7.5333 1.7875q2.3352 0.55407 2.8892-1.7811z" clip-path="url(#a)" fill="#fff" stroke="#fff"/>
<g clip-path="url(#a)">
<g transform="translate(545.47 353.01) rotate(-76.652) scale(.08 -.08)">
<defs>
<path id="z" d="m9.8125 72.906h9.8594v-64.609h35.5v-8.2969h-45.359z"/>
</defs>
<use xlink:href="#z"/>
</g>
</g>
<path d="m608.6 276.34 0.39029-6.0036q0.15569-2.3949-2.2393-2.5506l-7.7262-0.50228q-2.3949-0.15569-2.5506 2.2393l-0.39029 6.0036q-0.15569 2.3949 2.2393 2.5506l7.7262 0.50228q2.3949 0.15569 2.5506-2.2393z" clip-path="url(#a)" fill="#fff" stroke="#fff"/>
<g clip-path="url(#a)">
<g transform="translate(604.55 276.08) rotate(-86.28) scale(.08 -.08)">
<use xlink:href="#af"/>
</g>
</g>
<path d="m731.33 350.51 1.6048 4.1586q0.86408 2.2391 3.1031 1.375l7.2233-2.7875q2.2391-0.86408 1.375-3.1031l-1.6048-4.1586q-0.86408-2.2391-3.1031-1.375l-7.2233 2.7875q-2.2391 0.86408-1.375 3.1031z" clip-path="url(#a)" fill="#fff" stroke="#fff"/>
<g clip-path="url(#a)">
<g transform="translate(735.12 349.04) rotate(68.898) scale(.08 -.08)">
<use xlink:href="#z"/>
</g>
</g>
<path d="m829.44 121.93 5.6583 2.0442q2.2572 0.81548 3.0727-1.4417l2.6308-7.2819q0.81548-2.2572-1.4417-3.0727l-5.6583-2.0442q-2.2572-0.81548-3.0727 1.4417l-2.6308 7.2819q-0.81548 2.2572 1.4417 3.0727z" clip-path="url(#a)" fill="#fff" stroke="#fff"/>
<g clip-path="url(#a)">
<g transform="translate(830.82 118.11) rotate(19.864) scale(.08 -.08)">
<use xlink:href="#af"/>
</g>
</g>
<path d="m526.51 354.98 1.7303-5.5935q0.70926-2.2928-1.5835-3.0021l-7.3967-2.2881q-2.2928-0.70926-3.0021 1.5835l-1.7303 5.5935q-0.70926 2.2928 1.5835 3.0021l7.3967 2.2881q2.2928 0.70926 3.0021-1.5835z" clip-path="url(#a)" fill="#fff" stroke="#fff"/>
<g clip-path="url(#a)">
<g transform="translate(522.63 353.78) rotate(-72.811) scale(.08 -.08)">
<defs>
<path id="t" d="m8.6875 72.906h9.9219v-44.297q0-11.719 4.2344-16.875 4.25-5.1406 13.781-5.1406 9.4688 0 13.719 5.1406 4.25 5.1562 4.25 16.875v44.297h9.9062v-45.516q0-14.25-7.0625-21.531-7.0469-7.2812-20.812-7.2812-13.828 0-20.891 7.2812-7.0469 7.2812-7.0469 21.531z"/>
</defs>
<use xlink:href="#t"/>
</g>
</g>
<path d="m699.46 349.23 1.6004 5.632q0.65602 2.3086 2.9646 1.6526l7.4476-2.1164q2.3086-0.65603 1.6526-2.9646l-1.6004-5.632q-0.65603-2.3086-2.9646-1.6526l-7.4476 2.1164q-2.3086 0.65602-1.6526 2.9646z" clip-path="url(#a)" fill="#fff" stroke="#fff"/>
<g clip-path="url(#a)">
<g transform="translate(703.36 348.12) rotate(74.137) scale(.08 -.08)">
<use xlink:href="#t"/>
</g>
</g>
<path d="m113.46 355.08 1.0398-5.3728q0.45603-2.3563-1.9002-2.8123l-7.6014-1.4712q-2.3563-0.45603-2.8123 1.9002l-1.0398 5.3728q-0.45603 2.3563 1.9002 2.8123l7.6014 1.4712q2.3563 0.45603 2.8123-1.9002z" clip-path="url(#a)" fill="#fff" stroke="#fff"/>
<g clip-path="url(#a)">
<g transform="translate(109.47 354.3) rotate(-79.046) scale(.08 -.08)">
<defs>
<path id="r" d="m34.188 63.188-13.391-36.281h26.812zm-5.5781 9.7188h11.188l27.781-72.906h-10.25l-6.6406 18.703h-32.859l-6.6406-18.703h-10.406z"/>
</defs>
<use xlink:href="#r"/>
</g>
</g>
<path d="m121.1 431.61 0.47135-4.8007q0.23451-2.3885-2.154-2.623l-7.7054-0.75655q-2.3885-0.23451-2.623 2.154l-0.47135 4.8007q-0.23451 2.3885 2.154 2.623l7.7054 0.75655q2.3885 0.23451 2.623-2.154z" clip-path="url(#a)" fill="#fff" stroke="#fff"/>
<g clip-path="url(#a)">
<g transform="translate(117.05 431.21) rotate(-84.392) scale(.08 -.08)">
<defs>
<path id="ae" d="m19.672 64.797v-27.391h12.406q6.8906 0 10.641 3.5625 3.7656 3.5625 3.7656 10.156 0 6.5469-3.7656 10.109-3.75 3.5625-10.641 3.5625zm-9.8594 8.1094h22.266q12.266 0 18.531-5.5469 6.2812-5.5469 6.2812-16.234 0-10.797-6.2812-16.312-6.2656-5.5156-18.531-5.5156h-12.406v-29.297h-9.8594z"/>
</defs>
<use xlink:href="#ae"/>
</g>
</g>
<path d="m141.12 354.06 0.10856-5.4714q0.047609-2.3995-2.3519-2.4471l-7.741-0.15359q-2.3995-0.047609-2.4471 2.3519l-0.10856 5.4714q-0.04761 2.3995 2.3519 2.4471l7.741 0.15359q2.3995 0.047609 2.4471-2.3519z" clip-path="url(#a)" fill="#fff" stroke="#fff"/>
<g clip-path="url(#a)">
<g transform="translate(137.05 353.98) rotate(-88.863) scale(.08 -.08)">
<use xlink:href="#r"/>
</g>
</g>
<path d="m187.47 274.83 3.1959 4.4424q1.4016 1.9482 3.3498 0.54666l6.2851-4.5215q1.9482-1.4016 0.54666-3.3498l-3.1959-4.4424q-1.4016-1.9482-3.3498-0.54666l-6.2851 4.5215q-1.9482 1.4016-0.54666 3.3498z" clip-path="url(#a)" fill="#fff" stroke="#fff"/>
<g clip-path="url(#a)">
<g transform="translate(190.77 272.46) rotate(54.268) scale(.08 -.08)">
<use xlink:href="#r"/>
</g>
</g>
<path d="m463.65 721.3v33.808q0 2.4 2.4 2.4h7.7425q2.4 0 2.4-2.4v-33.808q0-2.4-2.4-2.4h-7.7425q-2.4 0-2.4 2.4z" clip-path="url(#a)" fill="#fff" stroke="#fff"/>
<g clip-path="url(#a)">
<g transform="translate(467.71 721.3) rotate(90) scale(.08 -.08)">
<defs>
<path id="l" d="m-0.29688 72.906h61.672v-8.3125h-25.875v-64.594h-9.9062v64.594h-25.891z"/>
<path id="e" d="m56.203 29.594v-4.3906h-41.312q0.59375-9.2812 5.5938-14.141t13.938-4.8594q5.1719 0 10.031 1.2656t9.6562 3.8125v-8.5q-4.8438-2.0469-9.9219-3.125t-10.297-1.0781q-13.094 0-20.734 7.6094-7.6406 7.625-7.6406 20.625 0 13.422 7.25 21.297 7.25 7.8906 19.562 7.8906 11.031 0 17.453-7.1094 6.4219-7.0938 6.4219-19.297zm-8.9844 2.6406q-0.09375 7.3594-4.125 11.75-4.0312 4.4062-10.672 4.4062-7.5156 0-12.031-4.25t-5.2031-11.969z"/>
<path id="g" d="m41.109 46.297q-1.5156 0.875-3.2969 1.2812-1.7812 0.42188-3.9219 0.42188-7.625 0-11.703-4.9531t-4.0781-14.234v-28.812h-9.0312v54.688h9.0312v-8.5q2.8438 4.9844 7.375 7.3906 4.5469 2.4219 11.047 2.4219 0.92188 0 2.0469-0.125 1.125-0.10938 2.4844-0.35938z"/>
<path id="k" d="m52 44.188q3.375 6.0625 8.0625 8.9375t11.031 2.875q8.5469 0 13.188-5.9844 4.6406-5.9688 4.6406-17v-33.016h-9.0312v32.719q0 7.8594-2.7969 11.656-2.7812 3.8125-8.4844 3.8125-6.9844 0-11.047-4.6406-4.0469-4.625-4.0469-12.641v-30.906h-9.0312v32.719q0 7.9062-2.7812 11.688t-8.5938 3.7812q-6.8906 0-10.953-4.6562-4.0469-4.6562-4.0469-12.625v-30.906h-9.0312v54.688h9.0312v-8.5q3.0781 5.0312 7.375 7.4219t10.203 2.3906q5.9688 0 10.141-3.0312 4.1719-3.0156 6.1719-8.7812z"/>
<path id="h" d="m9.4219 54.688h8.9844v-54.688h-8.9844zm0 21.297h8.9844v-11.391h-8.9844z"/>
<path id="d" d="m54.891 33.016v-33.016h-8.9844v32.719q0 7.7656-3.0312 11.609-3.0312 3.8594-9.0781 3.8594-7.2812 0-11.484-4.6406-4.2031-4.625-4.2031-12.641v-30.906h-9.0312v54.688h9.0312v-8.5q3.2344 4.9375 7.5938 7.375 4.375 2.4375 10.094 2.4375 9.4219 0 14.25-5.8281 4.8438-5.8281 4.8438-17.156z"/>
<path id="f" d="m34.281 27.484q-10.891 0-15.094-2.4844t-4.2031-8.5q0-4.7812 3.1562-7.5938 3.1562-2.7969 8.5625-2.7969 7.4844 0 12 5.2969t4.5156 14.078v2zm17.922 3.7188v-31.203h-8.9844v8.2969q-3.0781-4.9688-7.6719-7.3438t-11.234-2.375q-8.3906 0-13.359 4.7188-4.9531 4.7188-4.9531 12.625 0 9.2188 6.1719 13.906 6.1875 4.6875 18.438 4.6875h12.609v0.89062q0 6.2031-4.0781 9.5938t-11.453 3.3906q-4.6875 0-9.1406-1.125-4.4375-1.125-8.5312-3.375v8.3125q4.9219 1.9062 9.5625 2.8438 4.6406 0.95312 9.0312 0.95312 11.875 0 17.734-6.1562 5.8594-6.1406 5.8594-18.641z"/>
<path id="j" d="m9.4219 75.984h8.9844v-75.984h-8.9844z"/>
</defs>
<use xlink:href="#l"/>
<use x="44.083984" xlink:href="#e"/>
<use x="105.607422" xlink:href="#g"/>
<use x="144.970703" xlink:href="#k"/>
<use x="242.382812" xlink:href="#h"/>
<use x="270.166016" xlink:href="#d"/>
<use x="333.544922" xlink:href="#f"/>
<use x="394.824219" xlink:href="#j"/>
</g>
</g>
<path d="m556.96 589.58 2.2864-5.0668q0.98714-2.1876-1.2004-3.1747l-7.0573-3.1846q-2.1876-0.98714-3.1747 1.2004l-2.2864 5.0668q-0.98714 2.1876 1.2004 3.1747l7.0573 3.1846q2.1876 0.98714 3.1747-1.2004z" clip-path="url(#a)" fill="#fff" stroke="#fff"/>
<g clip-path="url(#a)">
<g transform="translate(553.26 587.91) rotate(-65.713) scale(.08 -.08)">
<defs>
<path id="u" d="m44.391 34.188q3.1719-1.0781 6.1719-4.5938t6.0312-9.6719l10.016-19.922h-10.609l-9.3125 18.703q-3.625 7.3281-7.0156 9.7188t-9.25 2.3906h-10.75v-30.812h-9.8594v72.906h22.266q12.5 0 18.656-5.2344 6.1562-5.2188 6.1562-15.766 0-6.8906-3.2031-11.438-3.2031-4.5312-9.2969-6.2812zm-24.719 30.609v-25.875h12.406q7.125 0 10.766 3.2969t3.6406 9.6875-3.6406 9.6406-10.766 3.25z"/>
</defs>
<use xlink:href="#u"/>
</g>
</g>
<path d="m583.36 587.98 0.68964-5.4289q0.30244-2.3809-2.0784-2.6833l-7.6808-0.9757q-2.3809-0.30244-2.6833 2.0784l-0.68964 5.4289q-0.30244 2.3809 2.0784 2.6833l7.6808 0.9757q2.3809 0.30244 2.6833-2.0784z" clip-path="url(#a)" fill="#fff" stroke="#fff"/>
<g clip-path="url(#a)">
<g transform="translate(579.33 587.46) rotate(-82.76) scale(.08 -.08)">
<use xlink:href="#r"/>
</g>
</g>
<path d="m625.44 585.52 2.4148 4.1758q1.2014 2.0776 3.2791 0.87618l6.7025-3.8759q2.0776-1.2014 0.87618-3.2791l-2.4148-4.1758q-1.2014-2.0776-3.2791-0.87618l-6.7025 3.8759q-2.0776 1.2014-0.87618 3.2791z" clip-path="url(#a)" fill="#fff" stroke="#fff"/>
<g clip-path="url(#a)">
<g transform="translate(628.96 583.49) rotate(59.96) scale(.08 -.08)">
<use xlink:href="#ae"/>
</g>
</g>
<path d="m851.94 721.3v33.808q0 2.4 2.4 2.4h7.7425q2.4 0 2.4-2.4v-33.808q0-2.4-2.4-2.4h-7.7425q-2.4 0-2.4 2.4z" clip-path="url(#a)" fill="#fff" stroke="#fff"/>
<g clip-path="url(#a)">
<g transform="translate(856.01 721.3) rotate(90) scale(.08 -.08)">
<use xlink:href="#l"/>
<use x="44.083984" xlink:href="#e"/>
<use x="105.607422" xlink:href="#g"/>
<use x="144.970703" xlink:href="#k"/>
<use x="242.382812" xlink:href="#h"/>
<use x="270.166016" xlink:href="#d"/>
<use x="333.544922" xlink:href="#f"/>
<use x="394.824219" xlink:href="#j"/>
</g>
</g>
<path d="m1028.5 432.41 0.74434-6.1149q0.29-2.3824-2.0924-2.6724l-7.6858-0.93557q-2.3824-0.29-2.6724 2.0924l-0.74434 6.1149q-0.29 2.3824 2.0924 2.6724l7.6858 0.93557q2.3824 0.29 2.6724-2.0924z" clip-path="url(#a)" fill="#fff" stroke="#fff"/>
<g clip-path="url(#a)">
<g transform="translate(1024.5 431.92) rotate(-83.06) scale(.08 -.08)">
<defs>
<path id="al" d="m19.672 64.797v-56.688h11.922q15.094 0 22.094 6.8281 7 6.8438 7 21.594 0 14.641-7 21.453t-22.094 6.8125zm-9.8594 8.1094h20.266q21.188 0 31.094-8.8125 9.9219-8.8125 9.9219-27.562 0-18.859-9.9688-27.703-9.9531-8.8281-31.047-8.8281h-20.266z"/>
</defs>
<use xlink:href="#al"/>
</g>
</g>
<path d="m1027.8 432.43 0.76139-6.1128q0.29665-2.3816-2.085-2.6782l-7.6831-0.95699q-2.3816-0.29665-2.6782 2.0849l-0.76139 6.1128q-0.29665 2.3816 2.085 2.6782l7.6831 0.957q2.3816 0.29665 2.6782-2.085z" clip-path="url(#a)" fill="#fff" stroke="#fff"/>
<g clip-path="url(#a)">
<g transform="translate(1023.8 431.93) rotate(-82.9) scale(.08 -.08)">
<use xlink:href="#al"/>
</g>
</g>
<path d="m1134 276.31 4.117 3.6053q1.8055 1.5811 3.3867-0.2244l5.1008-5.8248q1.5811-1.8055-0.2244-3.3867l-4.117-3.6053q-1.8055-1.5811-3.3867 0.2244l-5.1008 5.8248q-1.5811 1.8055 0.2244 3.3867z" clip-path="url(#a)" fill="#fff" stroke="#fff"/>
<g clip-path="url(#a)">
<g transform="translate(1136.7 273.25) rotate(41.209) scale(.08 -.08)">
<use xlink:href="#r"/>
</g>
</g>
<path d="m1249.4 430.92 3.1817 3.6256q1.583 1.8039 3.3869 0.22086l5.8194-5.1069q1.8039-1.583 0.22086-3.3869l-3.1817-3.6256q-1.583-1.8039-3.3869-0.22086l-5.8194 5.1069q-1.8039 1.583-0.22085 3.3869z" clip-path="url(#a)" fill="#fff" stroke="#fff"/>
<g clip-path="url(#a)">
<g transform="translate(1252.5 428.24) rotate(48.731) scale(.08 -.08)">
<use xlink:href="#ae"/>
</g>
</g>
<path d="m566.58 435.43 4.9311-2.3732q2.1626-1.0408 1.1218-3.2034l-3.3576-6.9766q-1.0408-2.1626-3.2034-1.1218l-4.9311 2.3732q-2.1626 1.0408-1.1218 3.2034l3.3576 6.9766q1.0408 2.1626 3.2034 1.1218z" clip-path="url(#a)" fill="#fff" stroke="#fff"/>
<g clip-path="url(#a)">
<g transform="translate(564.82 431.77) rotate(-25.7) scale(.08 -.08)">
<use xlink:href="#r"/>
</g>
</g>
<path d="m1292.9 431.16 4.2672 4.009q1.7491 1.6433 3.3925-0.10584l5.3014-5.6428q1.6433-1.7491-0.10584-3.3925l-4.2672-4.009q-1.7491-1.6433-3.3925 0.10584l-5.3014 5.6428q-1.6433 1.7491 0.10584 3.3925z" clip-path="url(#a)" fill="#fff" stroke="#fff"/>
<g clip-path="url(#a)">
<g transform="translate(1295.7 428.2) rotate(43.213) scale(.08 -.08)">
<use xlink:href="#t"/>
</g>
</g>
<path d="m957.9 756.19 14.09-30.731q1.0002-2.1816-1.1814-3.1819l-7.038-3.2268q-2.1816-1.0002-3.1819 1.1814l-14.09 30.731q-1.0002 2.1816 1.1814 3.1819l7.038 3.2268q2.1816 1.0002 3.1819-1.1814z" clip-path="url(#a)" fill="#fff" stroke="#fff"/>
<g clip-path="url(#a)">
<g transform="translate(954.21 754.49) rotate(-65.369) scale(.08 -.08)">
<use xlink:href="#l"/>
<use x="44.083984" xlink:href="#e"/>
<use x="105.607422" xlink:href="#g"/>
<use x="144.970703" xlink:href="#k"/>
<use x="242.382812" xlink:href="#h"/>
<use x="270.166016" xlink:href="#d"/>
<use x="333.544922" xlink:href="#f"/>
<use x="394.824219" xlink:href="#j"/>
</g>
</g>
<path d="m1016.5 725.46 14.09 30.731q1.0002 2.1816 3.1819 1.1814l7.038-3.2268q2.1816-1.0002 1.1814-3.1819l-14.09-30.731q-1.0002-2.1816-3.1819-1.1814l-7.038 3.2268q-2.1816 1.0002-1.1814 3.1819z" clip-path="url(#a)" fill="#fff" stroke="#fff"/>
<g clip-path="url(#a)">
<g transform="translate(1020.2 723.76) rotate(65.369) scale(.08 -.08)">
<use xlink:href="#l"/>
<use x="44.083984" xlink:href="#e"/>
<use x="105.607422" xlink:href="#g"/>
<use x="144.970703" xlink:href="#k"/>
<use x="242.382812" xlink:href="#h"/>
<use x="270.166016" xlink:href="#d"/>
<use x="333.544922" xlink:href="#f"/>
<use x="394.824219" xlink:href="#j"/>
</g>
</g>
<path d="m986.66 721.3v33.808q0 2.4 2.4 2.4h7.7425q2.4 0 2.4-2.4v-33.808q0-2.4-2.4-2.4h-7.7425q-2.4 0-2.4 2.4z" clip-path="url(#a)" fill="#fff" stroke="#fff"/>
<g clip-path="url(#a)">
<g transform="translate(990.72 721.3) rotate(90) scale(.08 -.08)">
<use xlink:href="#l"/>
<use x="44.083984" xlink:href="#e"/>
<use x="105.607422" xlink:href="#g"/>
<use x="144.970703" xlink:href="#k"/>
<use x="242.382812" xlink:href="#h"/>
<use x="270.166016" xlink:href="#d"/>
<use x="333.544922" xlink:href="#f"/>
<use x="394.824219" xlink:href="#j"/>
</g>
</g>
<path d="m1189.1 510.64 1.2961-4.4149q0.67606-2.3028-1.6267-2.9789l-7.429-2.181q-2.3028-0.67607-2.9789 1.6267l-1.2961 4.4149q-0.67607 2.3028 1.6267 2.9789l7.429 2.181q2.3028 0.67607 2.9789-1.6267z" clip-path="url(#a)" fill="#fff" stroke="#fff"/>
<g clip-path="url(#a)">
<g transform="translate(1185.2 509.5) rotate(-73.639) scale(.08 -.08)">
<defs>
<path id="aa" d="m9.8125 72.906h41.891v-8.3125h-32.031v-21.484h28.906v-8.2969h-28.906v-34.812h-9.8594z"/>
</defs>
<use xlink:href="#aa"/>
</g>
</g>
<path d="m1228.2 509.75 0.26117-5.5801q0.1122-2.3974-2.2852-2.5096l-7.734-0.36198q-2.3974-0.1122-2.5096 2.2852l-0.26117 5.5801q-0.1122 2.3974 2.2852 2.5096l7.734 0.36198q2.3974 0.1122 2.5096-2.2852z" clip-path="url(#a)" fill="#fff" stroke="#fff"/>
<g clip-path="url(#a)">
<g transform="translate(1224.1 509.56) rotate(-87.32) scale(.08 -.08)">
<defs>
<path id="v" d="m64.406 67.281v-10.391q-4.9844 4.6406-10.625 6.9219-5.6406 2.2969-11.984 2.2969-12.5 0-19.141-7.6406t-6.6406-22.094q0-14.406 6.6406-22.047t19.141-7.6406q6.3438 0 11.984 2.2969t10.625 6.9375v-10.312q-5.1719-3.5156-10.969-5.2812-5.7812-1.75-12.219-1.75-16.562 0-26.094 10.125-9.5156 10.141-9.5156 27.672 0 17.578 9.5156 27.703 9.5312 10.141 26.094 10.141 6.5312 0 12.312-1.7344 5.7969-1.7344 10.875-5.2031z"/>
</defs>
<use xlink:href="#v"/>
</g>
</g>
<path d="m1275.6 430.7 2.8396 4.1821q1.3482 1.9856 3.3337 0.63737l6.4055-4.3493q1.9856-1.3482 0.63737-3.3337l-2.8396-4.1821q-1.3482-1.9856-3.3337-0.63737l-6.4055 4.3493q-1.9855 1.3482-0.63737 3.3337z" clip-path="url(#a)" fill="#fff" stroke="#fff"/>
<g clip-path="url(#a)">
<g transform="translate(1278.9 428.42) rotate(55.824) scale(.08 -.08)">
<defs>
<path id="aq" d="m9.8125 72.906h46.094v-8.3125h-36.234v-21.578h34.719v-8.2969h-34.719v-26.422h37.109v-8.2969h-46.969z"/>
</defs>
<use xlink:href="#aq"/>
</g>
</g>
<path d="m1454.2 721.3v33.808q0 2.4 2.4 2.4h7.7425q2.4 0 2.4-2.4v-33.808q0-2.4-2.4-2.4h-7.7425q-2.4 0-2.4 2.4z" clip-path="url(#a)" fill="#fff" stroke="#fff"/>
<g clip-path="url(#a)">
<g transform="translate(1458.3 721.3) rotate(90) scale(.08 -.08)">
<use xlink:href="#l"/>
<use x="44.083984" xlink:href="#e"/>
<use x="105.607422" xlink:href="#g"/>
<use x="144.970703" xlink:href="#k"/>
<use x="242.382812" xlink:href="#h"/>
<use x="270.166016" xlink:href="#d"/>
<use x="333.544922" xlink:href="#f"/>
<use x="394.824219" xlink:href="#j"/>
</g>
</g>
<path d="m1131.9 721.3v33.808q0 2.4 2.4 2.4h7.7425q2.4 0 2.4-2.4v-33.808q0-2.4-2.4-2.4h-7.7425q-2.4 0-2.4 2.4z" clip-path="url(#a)" fill="#fff" stroke="#fff"/>
<g clip-path="url(#a)">
<g transform="translate(1136 721.3) rotate(90) scale(.08 -.08)">
<use xlink:href="#l"/>
<use x="44.083984" xlink:href="#e"/>
<use x="105.607422" xlink:href="#g"/>
<use x="144.970703" xlink:href="#k"/>
<use x="242.382812" xlink:href="#h"/>
<use x="270.166016" xlink:href="#d"/>
<use x="333.544922" xlink:href="#f"/>
<use x="394.824219" xlink:href="#j"/>
</g>
</g>
<path d="m1208.5 721.3v33.808q0 2.4 2.4 2.4h7.7425q2.4 0 2.4-2.4v-33.808q0-2.4-2.4-2.4h-7.7425q-2.4 0-2.4 2.4z" clip-path="url(#a)" fill="#fff" stroke="#fff"/>
<g clip-path="url(#a)">
<g transform="translate(1212.6 721.3) rotate(90) scale(.08 -.08)">
<use xlink:href="#l"/>
<use x="44.083984" xlink:href="#e"/>
<use x="105.607422" xlink:href="#g"/>
<use x="144.970703" xlink:href="#k"/>
<use x="242.382812" xlink:href="#h"/>
<use x="270.166016" xlink:href="#d"/>
<use x="333.544922" xlink:href="#f"/>
<use x="394.824219" xlink:href="#j"/>
</g>
</g>
<path d="m1319.9 588.76 1.4214-5.374q0.61368-2.3202-1.7065-2.9339l-7.4851-1.9797q-2.3202-0.61368-2.9339 1.7065l-1.4214 5.374q-0.61368 2.3202 1.7065 2.9339l7.4851 1.9797q2.3202 0.61368 2.9339-1.7065z" clip-path="url(#a)" fill="#fff" stroke="#fff"/>
<g clip-path="url(#a)">
<g transform="translate(1316 587.72) rotate(-75.185) scale(.08 -.08)">
<use xlink:href="#u"/>
</g>
</g>
<path d="m1348.7 583.38 1.4284 5.4005q0.61368 2.3202 2.9339 1.7065l7.4851-1.9797q2.3202-0.61368 1.7065-2.9339l-1.4284-5.4005q-0.61368-2.3202-2.9339-1.7065l-7.4851 1.9797q-2.3202 0.61368-1.7065 2.9339z" clip-path="url(#a)" fill="#fff" stroke="#fff"/>
<g clip-path="url(#a)">
<g transform="translate(1352.6 582.34) rotate(75.185) scale(.08 -.08)">
<use xlink:href="#v"/>
</g>
</g>
<path d="m1287.8 721.3v33.808q0 2.4 2.4 2.4h7.7425q2.4 0 2.4-2.4v-33.808q0-2.4-2.4-2.4h-7.7425q-2.4 0-2.4 2.4z" clip-path="url(#a)" fill="#fff" stroke="#fff"/>
<g clip-path="url(#a)">
<g transform="translate(1291.8 721.3) rotate(90) scale(.08 -.08)">
<use xlink:href="#l"/>
<use x="44.083984" xlink:href="#e"/>
<use x="105.607422" xlink:href="#g"/>
<use x="144.970703" xlink:href="#k"/>
<use x="242.382812" xlink:href="#h"/>
<use x="270.166016" xlink:href="#d"/>
<use x="333.544922" xlink:href="#f"/>
<use x="394.824219" xlink:href="#j"/>
</g>
</g>
<path d="m1369.7 721.3v33.808q0 2.4 2.4 2.4h7.7425q2.4 0 2.4-2.4v-33.808q0-2.4-2.4-2.4h-7.7425q-2.4 0-2.4 2.4z" clip-path="url(#a)" fill="#fff" stroke="#fff"/>
<g clip-path="url(#a)">
<g transform="translate(1373.7 721.3) rotate(90) scale(.08 -.08)">
<use xlink:href="#l"/>
<use x="44.083984" xlink:href="#e"/>
<use x="105.607422" xlink:href="#g"/>
<use x="144.970703" xlink:href="#k"/>
<use x="242.382812" xlink:href="#h"/>
<use x="270.166016" xlink:href="#d"/>
<use x="333.544922" xlink:href="#f"/>
<use x="394.824219" xlink:href="#j"/>
</g>
</g>
<path d="m511.19 721.3v33.808q0 2.4 2.4 2.4h7.7425q2.4 0 2.4-2.4v-33.808q0-2.4-2.4-2.4h-7.7425q-2.4 0-2.4 2.4z" clip-path="url(#a)" fill="#fff" stroke="#fff"/>
<g clip-path="url(#a)">
<g transform="translate(515.26 721.3) rotate(90) scale(.08 -.08)">
<use xlink:href="#l"/>
<use x="44.083984" xlink:href="#e"/>
<use x="105.607422" xlink:href="#g"/>
<use x="144.970703" xlink:href="#k"/>
<use x="242.382812" xlink:href="#h"/>
<use x="270.166016" xlink:href="#d"/>
<use x="333.544922" xlink:href="#f"/>
<use x="394.824219" xlink:href="#j"/>
</g>
</g>
<path d="m561.38 721.3v33.808q0 2.4 2.4 2.4h7.7425q2.4 0 2.4-2.4v-33.808q0-2.4-2.4-2.4h-7.7425q-2.4 0-2.4 2.4z" clip-path="url(#a)" fill="#fff" stroke="#fff"/>
<g clip-path="url(#a)">
<g transform="translate(565.44 721.3) rotate(90) scale(.08 -.08)">
<use xlink:href="#l"/>
<use x="44.083984" xlink:href="#e"/>
<use x="105.607422" xlink:href="#g"/>
<use x="144.970703" xlink:href="#k"/>
<use x="242.382812" xlink:href="#h"/>
<use x="270.166016" xlink:href="#d"/>
<use x="333.544922" xlink:href="#f"/>
<use x="394.824219" xlink:href="#j"/>
</g>
</g>
<path d="m648.69 756.24 11.706-31.716q0.83103-2.2515-1.4205-3.0826l-7.2635-2.6809q-2.2515-0.83103-3.0826 1.4205l-11.706 31.716q-0.83103 2.2515 1.4205 3.0826l7.2635 2.6809q2.2515 0.83103 3.0826-1.4205z" clip-path="url(#a)" fill="#fff" stroke="#fff"/>
<g clip-path="url(#a)">
<g transform="translate(644.87 754.83) rotate(-69.741) scale(.08 -.08)">
<use xlink:href="#l"/>
<use x="44.083984" xlink:href="#e"/>
<use x="105.607422" xlink:href="#g"/>
<use x="144.970703" xlink:href="#k"/>
<use x="242.382812" xlink:href="#h"/>
<use x="270.166016" xlink:href="#d"/>
<use x="333.544922" xlink:href="#f"/>
<use x="394.824219" xlink:href="#j"/>
</g>
</g>
<path d="m682.57 755.15 0.19497-33.807q0.013841-2.4-2.3861-2.4138l-7.7424-0.044651q-2.4-0.013841-2.4138 2.3861l-0.19497 33.807q-0.013841 2.4 2.3861 2.4138l7.7424 0.044651q2.4 0.01384 2.4138-2.3861z" clip-path="url(#a)" fill="#fff" stroke="#fff"/>
<g clip-path="url(#a)">
<g transform="translate(678.5 755.12) rotate(-89.67) scale(.08 -.08)">
<use xlink:href="#l"/>
<use x="44.083984" xlink:href="#e"/>
<use x="105.607422" xlink:href="#g"/>
<use x="144.970703" xlink:href="#k"/>
<use x="242.382812" xlink:href="#h"/>
<use x="270.166016" xlink:href="#d"/>
<use x="333.544922" xlink:href="#f"/>
<use x="394.824219" xlink:href="#j"/>
</g>
</g>
<path d="m693.64 724.58 11.867 31.656q0.84242 2.2473 3.0897 1.4049l7.2499-2.7177q2.2473-0.84242 1.4049-3.0897l-11.867-31.656q-0.84242-2.2473-3.0897-1.4049l-7.2499 2.7177q-2.2473 0.84242-1.4049 3.0897z" clip-path="url(#a)" fill="#fff" stroke="#fff"/>
<g clip-path="url(#a)">
<g transform="translate(697.45 723.15) rotate(69.451) scale(.08 -.08)">
<use xlink:href="#l"/>
<use x="44.083984" xlink:href="#e"/>
<use x="105.607422" xlink:href="#g"/>
<use x="144.970703" xlink:href="#k"/>
<use x="242.382812" xlink:href="#h"/>
<use x="270.166016" xlink:href="#d"/>
<use x="333.544922" xlink:href="#f"/>
<use x="394.824219" xlink:href="#j"/>
</g>
</g>
<path d="m81.888 586.93 0.11774-4.5997q0.06141-2.3992-2.3378-2.4606l-7.74-0.19811q-2.3992-0.06141-2.4606 2.3378l-0.11774 4.5997q-0.06141 2.3992 2.3378 2.4606l7.74 0.19811q2.3992 0.06141 2.4606-2.3378z" clip-path="url(#a)" fill="#fff" stroke="#fff"/>
<g clip-path="url(#a)">
<g transform="translate(77.826 586.83) rotate(-88.534) scale(.08 -.08)">
<use xlink:href="#aa"/>
</g>
</g>
<path d="m73.3 581.84 0.14294 5.5844q0.06141 2.3992 2.4606 2.3378l7.74-0.19811q2.3992-0.06141 2.3378-2.4606l-0.14294-5.5844q-0.06141-2.3992-2.4606-2.3378l-7.74 0.19811q-2.3992 0.06141-2.3378 2.4606z" clip-path="url(#a)" fill="#fff" stroke="#fff"/>
<g clip-path="url(#a)">
<g transform="translate(77.362 581.74) rotate(88.534) scale(.08 -.08)">
<use xlink:href="#v"/>
</g>
</g>
<path d="m85.916 721.3v33.808q0 2.4 2.4 2.4h7.7425q2.4 0 2.4-2.4v-33.808q0-2.4-2.4-2.4h-7.7425q-2.4 0-2.4 2.4z" clip-path="url(#a)" fill="#fff" stroke="#fff"/>
<g clip-path="url(#a)">
<g transform="translate(89.98 721.3) rotate(90) scale(.08 -.08)">
<use xlink:href="#l"/>
<use x="44.083984" xlink:href="#e"/>
<use x="105.607422" xlink:href="#g"/>
<use x="144.970703" xlink:href="#k"/>
<use x="242.382812" xlink:href="#h"/>
<use x="270.166016" xlink:href="#d"/>
<use x="333.544922" xlink:href="#f"/>
<use x="394.824219" xlink:href="#j"/>
</g>
</g>
<path d="m124.32 588.27 0.93503-5.4795q0.4037-2.3658-1.9621-2.7695l-7.6322-1.3024q-2.3658-0.4037-2.7695 1.9621l-0.93503 5.4795q-0.4037 2.3658 1.9621 2.7695l7.6322 1.3024q2.3658 0.4037 2.7695-1.9621z" clip-path="url(#a)" fill="#fff" stroke="#fff"/>
<g clip-path="url(#a)">
<g transform="translate(120.31 587.58) rotate(-80.316) scale(.08 -.08)">
<use xlink:href="#u"/>
</g>
</g>
<path d="m132.57 588.04 0.42884-6.2829q0.16343-2.3944-2.231-2.5579l-7.7245-0.52724q-2.3944-0.16343-2.5579 2.231l-0.42884 6.2829q-0.16343 2.3944 2.231 2.5579l7.7245 0.52724q2.3944 0.16343 2.5579-2.231z" clip-path="url(#a)" fill="#fff" stroke="#fff"/>
<g clip-path="url(#a)">
<g transform="translate(128.51 587.76) rotate(-86.095) scale(.08 -.08)">
<defs>
<path id="ap" d="m39.406 66.219q-10.75 0-17.078-8.0156-6.3125-8-6.3125-21.828 0-13.766 6.3125-21.781 6.3281-8 17.078-8 10.734 0 17.016 8 6.2812 8.0156 6.2812 21.781 0 13.828-6.2812 21.828-6.2812 8.0156-17.016 8.0156zm13.812-64.906 13-14.203h-11.922l-10.797 11.672q-1.6094-0.09375-2.4688-0.14062-0.84375-0.0625-1.625-0.0625-15.375 0-24.594 10.281-9.2031 10.281-9.2031 27.516 0 17.281 9.2031 27.562 9.2188 10.281 24.594 10.281 15.328 0 24.5-10.281 9.1875-10.281 9.1875-27.562 0-12.688-5.1094-21.734-5.0938-9.0312-14.766-13.328z"/>
</defs>
<use xlink:href="#ap"/>
</g>
</g>
<path d="m129.39 582.49 0.23524 4.5952q0.1227 2.3969 2.5196 2.2742l7.7324-0.39584q2.3969-0.1227 2.2742-2.5196l-0.23524-4.5952q-0.1227-2.3969-2.5196-2.2742l-7.7324 0.39583q-2.3969 0.1227-2.2742 2.5196z" clip-path="url(#a)" fill="#fff" stroke="#fff"/>
<g clip-path="url(#a)">
<g transform="translate(133.45 582.29) rotate(87.069) scale(.08 -.08)">
<use xlink:href="#aa"/>
</g>
</g>
<path d="m139.66 582.88 1.0306 5.4904q0.44276 2.3588 2.8016 1.9161l7.6096-1.4283q2.3588-0.44276 1.916-2.8016l-1.0306-5.4904q-0.44276-2.3588-2.8016-1.9161l-7.6096 1.4283q-2.3588 0.44276-1.916 2.8016z" clip-path="url(#a)" fill="#fff" stroke="#fff"/>
<g clip-path="url(#a)">
<g transform="translate(143.65 582.13) rotate(79.369) scale(.08 -.08)">
<use xlink:href="#v"/>
</g>
</g>
<path d="m223.04 510.68 1.1508-5.4383q0.49685-2.348-1.8512-2.8449l-7.5748-1.6029q-2.348-0.49685-2.8449 1.8512l-1.1508 5.4383q-0.49685 2.348 1.8512 2.8449l7.5748 1.6029q2.348 0.49685 2.8449-1.8512z" clip-path="url(#a)" fill="#fff" stroke="#fff"/>
<g clip-path="url(#a)">
<g transform="translate(219.07 509.84) rotate(-78.052) scale(.08 -.08)">
<use xlink:href="#u"/>
</g>
</g>
<path d="m236.56 510.21 0.69768-5.5148q0.30122-2.381-2.0798-2.6822l-7.6813-0.97176q-2.381-0.30122-2.6822 2.0798l-0.69768 5.5148q-0.30122 2.381 2.0798 2.6822l7.6813 0.97176q2.381 0.30122 2.6822-2.0798z" clip-path="url(#a)" fill="#fff" stroke="#fff"/>
<g clip-path="url(#a)">
<g transform="translate(232.53 509.7) rotate(-82.79) scale(.08 -.08)">
<use xlink:href="#u"/>
</g>
</g>
<path d="m251.41 509.17 0.15132-4.5988q0.078926-2.3987-2.3198-2.4776l-7.7383-0.25462q-2.3987-0.078927-2.4776 2.3198l-0.15132 4.5988q-0.078927 2.3987 2.3198 2.4776l7.7383 0.25462q2.3987 0.078927 2.4776-2.3198z" clip-path="url(#a)" fill="#fff" stroke="#fff"/>
<g clip-path="url(#a)">
<g transform="translate(247.35 509.04) rotate(-88.115) scale(.08 -.08)">
<use xlink:href="#aa"/>
</g>
</g>
<path d="m290.35 430.11 2.8813 4.7859q1.2379 2.0561 3.294 0.81825l6.6332-3.9934q2.0561-1.2379 0.81825-3.294l-2.8813-4.7858q-1.2379-2.0561-3.294-0.81825l-6.6332 3.9934q-2.0561 1.2379-0.81825 3.294z" clip-path="url(#a)" fill="#fff" stroke="#fff"/>
<g clip-path="url(#a)">
<g transform="translate(293.83 428.01) rotate(58.95) scale(.08 -.08)">
<use xlink:href="#v"/>
</g>
</g>
<path d="m254.61 504.18 0.40427 5.841q0.16571 2.3943 2.56 2.2286l7.724-0.53459q2.3943-0.16571 2.2286-2.56l-0.40427-5.841q-0.16571-2.3943-2.56-2.2286l-7.724 0.53459q-2.3943 0.16571-2.2286 2.56z" clip-path="url(#a)" fill="#fff" stroke="#fff"/>
<g clip-path="url(#a)">
<g transform="translate(258.66 503.9) rotate(86.041) scale(.08 -.08)">
<use xlink:href="#t"/>
</g>
</g>
<path d="m178.37 721.3v33.808q0 2.4 2.4 2.4h7.7425q2.4 0 2.4-2.4v-33.808q0-2.4-2.4-2.4h-7.7425q-2.4 0-2.4 2.4z" clip-path="url(#a)" fill="#fff" stroke="#fff"/>
<g clip-path="url(#a)">
<g transform="translate(182.43 721.3) rotate(90) scale(.08 -.08)">
<use xlink:href="#l"/>
<use x="44.083984" xlink:href="#e"/>
<use x="105.607422" xlink:href="#g"/>
<use x="144.970703" xlink:href="#k"/>
<use x="242.382812" xlink:href="#h"/>
<use x="270.166016" xlink:href="#d"/>
<use x="333.544922" xlink:href="#f"/>
<use x="394.824219" xlink:href="#j"/>
</g>
</g>
<path d="m204.78 721.3v33.808q0 2.4 2.4 2.4h7.7425q2.4 0 2.4-2.4v-33.808q0-2.4-2.4-2.4h-7.7425q-2.4 0-2.4 2.4z" clip-path="url(#a)" fill="#fff" stroke="#fff"/>
<g clip-path="url(#a)">
<g transform="translate(208.85 721.3) rotate(90) scale(.08 -.08)">
<use xlink:href="#l"/>
<use x="44.083984" xlink:href="#e"/>
<use x="105.607422" xlink:href="#g"/>
<use x="144.970703" xlink:href="#k"/>
<use x="242.382812" xlink:href="#h"/>
<use x="270.166016" xlink:href="#d"/>
<use x="333.544922" xlink:href="#f"/>
<use x="394.824219" xlink:href="#j"/>
</g>
</g>
<path d="m233.84 721.3v33.808q0 2.4 2.4 2.4h7.7425q2.4 0 2.4-2.4v-33.808q0-2.4-2.4-2.4h-7.7425q-2.4 0-2.4 2.4z" clip-path="url(#a)" fill="#fff" stroke="#fff"/>
<g clip-path="url(#a)">
<g transform="translate(237.9 721.3) rotate(90) scale(.08 -.08)">
<use xlink:href="#l"/>
<use x="44.083984" xlink:href="#e"/>
<use x="105.607422" xlink:href="#g"/>
<use x="144.970703" xlink:href="#k"/>
<use x="242.382812" xlink:href="#h"/>
<use x="270.166016" xlink:href="#d"/>
<use x="333.544922" xlink:href="#f"/>
<use x="394.824219" xlink:href="#j"/>
</g>
</g>
<path d="m329.24 678.35 4.1317-33.554q0.29331-2.382-2.0887-2.6753l-7.6845-0.94624q-2.382-0.29331-2.6753 2.0887l-4.1317 33.554q-0.29331 2.382 2.0887 2.6753l7.6845 0.94624q2.382 0.29331 2.6753-2.0887z" clip-path="url(#a)" fill="#fff" stroke="#fff"/>
<g clip-path="url(#a)">
<g transform="translate(325.2 677.86) rotate(-82.98) scale(.08 -.08)">
<use xlink:href="#l"/>
<use x="44.083984" xlink:href="#e"/>
<use x="105.607422" xlink:href="#g"/>
<use x="144.970703" xlink:href="#k"/>
<use x="242.382812" xlink:href="#h"/>
<use x="270.166016" xlink:href="#d"/>
<use x="333.544922" xlink:href="#f"/>
<use x="394.824219" xlink:href="#j"/>
</g>
</g>
<path d="m355.04 644.82 4.2263 33.542q0.30003 2.3812 2.6812 2.0811l7.6818-0.9679q2.3812-0.30003 2.0811-2.6812l-4.2263-33.542q-0.30003-2.3812-2.6812-2.0811l-7.6818 0.9679q-2.3812 0.30003-2.0811 2.6812z" clip-path="url(#a)" fill="#fff" stroke="#fff"/>
<g clip-path="url(#a)">
<g transform="translate(359.07 644.31) rotate(82.819) scale(.08 -.08)">
<use xlink:href="#l"/>
<use x="44.083984" xlink:href="#e"/>
<use x="105.607422" xlink:href="#g"/>
<use x="144.970703" xlink:href="#k"/>
<use x="242.382812" xlink:href="#h"/>
<use x="270.166016" xlink:href="#d"/>
<use x="333.544922" xlink:href="#f"/>
<use x="394.824219" xlink:href="#j"/>
</g>
</g>
<path d="m349.82 587.43 0.033303-5.8549q0.013651-2.4-2.3863-2.4136l-7.7424-0.044038q-2.4-0.013651-2.4136 2.3863l-0.033303 5.8549q-0.013651 2.4 2.3863 2.4136l7.7424 0.044039q2.4 0.013651 2.4136-2.3863z" clip-path="url(#a)" fill="#fff" stroke="#fff"/>
<g clip-path="url(#a)">
<g transform="translate(345.76 587.41) rotate(-89.674) scale(.08 -.08)">
<use xlink:href="#t"/>
</g>
</g>
<path d="m99.123 721.3v33.808q0 2.4 2.4 2.4h7.7425q2.4 0 2.4-2.4v-33.808q0-2.4-2.4-2.4h-7.7425q-2.4 0-2.4 2.4z" clip-path="url(#a)" fill="#fff" stroke="#fff"/>
<g clip-path="url(#a)">
<g transform="translate(103.19 721.3) rotate(90) scale(.08 -.08)">
<use xlink:href="#l"/>
<use x="44.083984" xlink:href="#e"/>
<use x="105.607422" xlink:href="#g"/>
<use x="144.970703" xlink:href="#k"/>
<use x="242.382812" xlink:href="#h"/>
<use x="270.166016" xlink:href="#d"/>
<use x="333.544922" xlink:href="#f"/>
<use x="394.824219" xlink:href="#j"/>
</g>
</g>
<path d="m114.97 721.3v33.808q0 2.4 2.4 2.4h7.7425q2.4 0 2.4-2.4v-33.808q0-2.4-2.4-2.4h-7.7425q-2.4 0-2.4 2.4z" clip-path="url(#a)" fill="#fff" stroke="#fff"/>
<g clip-path="url(#a)">
<g transform="translate(119.04 721.3) rotate(90) scale(.08 -.08)">
<use xlink:href="#l"/>
<use x="44.083984" xlink:href="#e"/>
<use x="105.607422" xlink:href="#g"/>
<use x="144.970703" xlink:href="#k"/>
<use x="242.382812" xlink:href="#h"/>
<use x="270.166016" xlink:href="#d"/>
<use x="333.544922" xlink:href="#f"/>
<use x="394.824219" xlink:href="#j"/>
</g>
</g>
<path d="m133.46 721.3v33.808q0 2.4 2.4 2.4h7.7425q2.4 0 2.4-2.4v-33.808q0-2.4-2.4-2.4h-7.7425q-2.4 0-2.4 2.4z" clip-path="url(#a)" fill="#fff" stroke="#fff"/>
<g clip-path="url(#a)">
<g transform="translate(137.53 721.3) rotate(90) scale(.08 -.08)">
<use xlink:href="#l"/>
<use x="44.083984" xlink:href="#e"/>
<use x="105.607422" xlink:href="#g"/>
<use x="144.970703" xlink:href="#k"/>
<use x="242.382812" xlink:href="#h"/>
<use x="270.166016" xlink:href="#d"/>
<use x="333.544922" xlink:href="#f"/>
<use x="394.824219" xlink:href="#j"/>
</g>
</g>
<path d="m154.59 721.3v33.808q0 2.4 2.4 2.4h7.7425q2.4 0 2.4-2.4v-33.808q0-2.4-2.4-2.4h-7.7425q-2.4 0-2.4 2.4z" clip-path="url(#a)" fill="#fff" stroke="#fff"/>
<g clip-path="url(#a)">
<g transform="translate(158.66 721.3) rotate(90) scale(.08 -.08)">
<use xlink:href="#l"/>
<use x="44.083984" xlink:href="#e"/>
<use x="105.607422" xlink:href="#g"/>
<use x="144.970703" xlink:href="#k"/>
<use x="242.382812" xlink:href="#h"/>
<use x="270.166016" xlink:href="#d"/>
<use x="333.544922" xlink:href="#f"/>
<use x="394.824219" xlink:href="#j"/>
</g>
</g>
<path d="m67.426 721.3v33.808q0 2.4 2.4 2.4h7.7425q2.4 0 2.4-2.4v-33.808q0-2.4-2.4-2.4h-7.7425q-2.4 0-2.4 2.4z" clip-path="url(#a)" fill="#fff" stroke="#fff"/>
<g clip-path="url(#a)">
<g transform="translate(71.489 721.3) rotate(90) scale(.08 -.08)">
<use xlink:href="#l"/>
<use x="44.083984" xlink:href="#e"/>
<use x="105.607422" xlink:href="#g"/>
<use x="144.970703" xlink:href="#k"/>
<use x="242.382812" xlink:href="#h"/>
<use x="270.166016" xlink:href="#d"/>
<use x="333.544922" xlink:href="#f"/>
<use x="394.824219" xlink:href="#j"/>
</g>
</g>
<path d="m75.35 721.3v33.808q0 2.4 2.4 2.4h7.7425q2.4 0 2.4-2.4v-33.808q0-2.4-2.4-2.4h-7.7425q-2.4 0-2.4 2.4z" clip-path="url(#a)" fill="#fff" stroke="#fff"/>
<g clip-path="url(#a)">
<g transform="translate(79.414 721.3) rotate(90) scale(.08 -.08)">
<use xlink:href="#l"/>
<use x="44.083984" xlink:href="#e"/>
<use x="105.607422" xlink:href="#g"/>
<use x="144.970703" xlink:href="#k"/>
<use x="242.382812" xlink:href="#h"/>
<use x="270.166016" xlink:href="#d"/>
<use x="333.544922" xlink:href="#f"/>
<use x="394.824219" xlink:href="#j"/>
</g>
</g>
<path d="m265.54 721.3v33.808q0 2.4 2.4 2.4h7.7425q2.4 0 2.4-2.4v-33.808q0-2.4-2.4-2.4h-7.7425q-2.4 0-2.4 2.4z" clip-path="url(#a)" fill="#fff" stroke="#fff"/>
<g clip-path="url(#a)">
<g transform="translate(269.6 721.3) rotate(90) scale(.08 -.08)">
<use xlink:href="#l"/>
<use x="44.083984" xlink:href="#e"/>
<use x="105.607422" xlink:href="#g"/>
<use x="144.970703" xlink:href="#k"/>
<use x="242.382812" xlink:href="#h"/>
<use x="270.166016" xlink:href="#d"/>
<use x="333.544922" xlink:href="#f"/>
<use x="394.824219" xlink:href="#j"/>
</g>
</g>
<path d="m336.86 721.3v33.808q0 2.4 2.4 2.4h7.7425q2.4 0 2.4-2.4v-33.808q0-2.4-2.4-2.4h-7.7425q-2.4 0-2.4 2.4z" clip-path="url(#a)" fill="#fff" stroke="#fff"/>
<g clip-path="url(#a)">
<g transform="translate(340.92 721.3) rotate(90) scale(.08 -.08)">
<use xlink:href="#l"/>
<use x="44.083984" xlink:href="#e"/>
<use x="105.607422" xlink:href="#g"/>
<use x="144.970703" xlink:href="#k"/>
<use x="242.382812" xlink:href="#h"/>
<use x="270.166016" xlink:href="#d"/>
<use x="333.544922" xlink:href="#f"/>
<use x="394.824219" xlink:href="#j"/>
</g>
</g>
<path d="m418.74 721.3v33.808q0 2.4 2.4 2.4h7.7425q2.4 0 2.4-2.4v-33.808q0-2.4-2.4-2.4h-7.7425q-2.4 0-2.4 2.4z" clip-path="url(#a)" fill="#fff" stroke="#fff"/>
<g clip-path="url(#a)">
<g transform="translate(422.8 721.3) rotate(90) scale(.08 -.08)">
<use xlink:href="#l"/>
<use x="44.083984" xlink:href="#e"/>
<use x="105.607422" xlink:href="#g"/>
<use x="144.970703" xlink:href="#k"/>
<use x="242.382812" xlink:href="#h"/>
<use x="270.166016" xlink:href="#d"/>
<use x="333.544922" xlink:href="#f"/>
<use x="394.824219" xlink:href="#j"/>
</g>
</g>
<path d="m788.55 721.3v33.808q0 2.4 2.4 2.4h7.7425q2.4 0 2.4-2.4v-33.808q0-2.4-2.4-2.4h-7.7425q-2.4 0-2.4 2.4z" clip-path="url(#a)" fill="#fff" stroke="#fff"/>
<g clip-path="url(#a)">
<g transform="translate(792.61 721.3) rotate(90) scale(.08 -.08)">
<use xlink:href="#l"/>
<use x="44.083984" xlink:href="#e"/>
<use x="105.607422" xlink:href="#g"/>
<use x="144.970703" xlink:href="#k"/>
<use x="242.382812" xlink:href="#h"/>
<use x="270.166016" xlink:href="#d"/>
<use x="333.544922" xlink:href="#f"/>
<use x="394.824219" xlink:href="#j"/>
</g>
</g>
<path d="m1541.4 721.3v33.808q0 2.4 2.4 2.4h7.7425q2.4 0 2.4-2.4v-33.808q0-2.4-2.4-2.4h-7.7425q-2.4 0-2.4 2.4z" clip-path="url(#a)" fill="#fff" stroke="#fff"/>
<g clip-path="url(#a)">
<g transform="translate(1545.4 721.3) rotate(90) scale(.08 -.08)">
<use xlink:href="#l"/>
<use x="44.083984" xlink:href="#e"/>
<use x="105.607422" xlink:href="#g"/>
<use x="144.970703" xlink:href="#k"/>
<use x="242.382812" xlink:href="#h"/>
<use x="270.166016" xlink:href="#d"/>
<use x="333.544922" xlink:href="#f"/>
<use x="394.824219" xlink:href="#j"/>
</g>
</g>
<defs>
<path id="b" d="m0 8.6603c2.2967 0 4.4997-0.9125 6.1237-2.5365 1.624-1.624 2.5365-3.827 2.5365-6.1237s-0.9125-4.4997-2.5365-6.1237c-1.624-1.624-3.827-2.5365-6.1237-2.5365s-4.4997 0.9125-6.1237 2.5365c-1.624 1.624-2.5365 3.827-2.5365 6.1237s0.9125 4.4997 2.5365 6.1237c1.624 1.624 3.827 2.5365 6.1237 2.5365z"/>
</defs>
<g clip-path="url(#a)" fill="#ffffff" stroke="#ffffff">
<use x="73.69697" y="814.545455" xlink:href="#b"/>
<use x="81.621375" y="814.545455" xlink:href="#b"/>
<use x="92.187249" y="814.545455" xlink:href="#b"/>
<use x="105.394591" y="814.545455" xlink:href="#b"/>
<use x="121.243402" y="814.545455" xlink:href="#b"/>
<use x="139.733681" y="814.545455" xlink:href="#b"/>
<use x="160.865428" y="814.545455" xlink:href="#b"/>
<use x="184.638645" y="814.545455" xlink:href="#b"/>
<use x="211.053329" y="814.545455" xlink:href="#b"/>
<use x="240.109482" y="814.545455" xlink:href="#b"/>
<use x="271.807103" y="814.545455" xlink:href="#b"/>
<use x="306.146193" y="814.545455" xlink:href="#b"/>
<use x="343.126751" y="814.545455" xlink:href="#b"/>
<use x="382.748778" y="814.545455" xlink:href="#b"/>
<use x="425.012273" y="814.545455" xlink:href="#b"/>
<use x="469.917237" y="814.545455" xlink:href="#b"/>
<use x="517.463669" y="814.545455" xlink:href="#b"/>
<use x="567.651569" y="814.545455" xlink:href="#b"/>
<use x="620.480938" y="814.545455" xlink:href="#b"/>
<use x="675.951776" y="814.545455" xlink:href="#b"/>
<use x="734.064082" y="814.545455" xlink:href="#b"/>
<use x="794.817856" y="814.545455" xlink:href="#b"/>
<use x="858.213099" y="814.545455" xlink:href="#b"/>
<use x="924.24981" y="814.545455" xlink:href="#b"/>
<use x="992.92799" y="814.545455" xlink:href="#b"/>
<use x="1064.247638" y="814.545455" xlink:href="#b"/>
<use x="1138.208754" y="814.545455" xlink:href="#b"/>
<use x="1214.811339" y="814.545455" xlink:href="#b"/>
<use x="1294.055393" y="814.545455" xlink:href="#b"/>
<use x="1375.940915" y="814.545455" xlink:href="#b"/>
<use x="1460.467905" y="814.545455" xlink:href="#b"/>
<use x="1547.636364" y="814.545455" xlink:href="#b"/>
<use x="617.758758" y="38.787879" xlink:href="#b"/>
<use x="137.994714" y="195.322692" xlink:href="#b"/>
<use x="469.917237" y="661.87102" xlink:href="#b"/>
<use x="587.315835" y="507.072715" xlink:href="#b"/>
<use x="858.213099" y="661.87102" xlink:href="#b"/>
<use x="1051.040295" y="195.322692" xlink:href="#b"/>
<use x="994.248724" y="661.87102" xlink:href="#b"/>
<use x="992.92799" y="661.87102" xlink:href="#b"/>
<use x="1229.339416" y="351.462508" xlink:href="#b"/>
<use x="1460.467905" y="661.87102" xlink:href="#b"/>
<use x="1138.208754" y="661.87102" xlink:href="#b"/>
<use x="1214.811339" y="661.87102" xlink:href="#b"/>
<use x="1334.998154" y="507.072715" xlink:href="#b"/>
<use x="1294.055393" y="661.87102" xlink:href="#b"/>
<use x="1375.940915" y="661.87102" xlink:href="#b"/>
<use x="517.463669" y="661.87102" xlink:href="#b"/>
<use x="567.651569" y="661.87102" xlink:href="#b"/>
<use x="676.832265" y="661.87102" xlink:href="#b"/>
<use x="77.659172" y="507.072715" xlink:href="#b"/>
<use x="92.187249" y="661.87102" xlink:href="#b"/>
<use x="131.809276" y="507.072715" xlink:href="#b"/>
<use x="250.32316" y="351.462508" xlink:href="#b"/>
<use x="184.638645" y="661.87102" xlink:href="#b"/>
<use x="211.053329" y="661.87102" xlink:href="#b"/>
<use x="240.109482" y="661.87102" xlink:href="#b"/>
<use x="344.007241" y="507.072715" xlink:href="#b"/>
<use x="105.394591" y="661.87102" xlink:href="#b"/>
<use x="121.243402" y="661.87102" xlink:href="#b"/>
<use x="139.733681" y="661.87102" xlink:href="#b"/>
<use x="160.865428" y="661.87102" xlink:href="#b"/>
<use x="73.69697" y="661.87102" xlink:href="#b"/>
<use x="81.621375" y="661.87102" xlink:href="#b"/>
<use x="271.807103" y="661.87102" xlink:href="#b"/>
<use x="343.126751" y="661.87102" xlink:href="#b"/>
<use x="425.012273" y="661.87102" xlink:href="#b"/>
<use x="794.817856" y="661.87102" xlink:href="#b"/>
<use x="1547.636364" y="661.87102" xlink:href="#b"/>
</g>
<g clip-path="url(#a)">
<g transform="translate(65.317 817.3) scale(.1 -.1)">
<defs>
<path id="p" d="m44.281 53.078v-8.5q-3.7969 1.9531-7.9062 2.9219-4.0938 0.98438-8.5 0.98438-6.6875 0-10.031-2.0469t-3.3438-6.1562q0-3.125 2.3906-4.9062t9.625-3.3906l3.0781-0.6875q9.5625-2.0469 13.594-5.7812t4.0312-10.422q0-7.625-6.0312-12.078-6.0312-4.4375-16.578-4.4375-4.3906 0-9.1562 0.85938t-10.031 2.5625v9.2812q4.9844-2.5938 9.8125-3.8906 4.8281-1.2812 9.5781-1.2812 6.3438 0 9.75 2.1719 3.4219 2.1719 3.4219 6.125 0 3.6562-2.4688 5.6094-2.4531 1.9531-10.812 3.7656l-3.125 0.73438q-8.3438 1.75-12.062 5.3906-3.7031 3.6406-3.7031 9.9844 0 7.7188 5.4688 11.906 5.4688 4.2031 15.531 4.2031 4.9688 0 9.3594-0.73438 4.4062-0.71875 8.1094-2.1875z"/>
</defs>
<use xlink:href="#z"/>
<use x="53.962891" xlink:href="#e"/>
<use x="115.486328" xlink:href="#p"/>
</g>
</g>
<g clip-path="url(#a)">
<g transform="translate(47.498 817.3) scale(.1 -.1)">
<defs>
<path id="ak" d="m48.688 27.297q0 9.9062-4.0781 15.547t-11.203 5.6406q-7.1406 0-11.219-5.6406t-4.0781-15.547 4.0781-15.547 11.219-5.6406q7.125 0 11.203 5.6406t4.0781 15.547zm-30.578 19.094q2.8438 4.875 7.1562 7.2344 4.3281 2.375 10.328 2.375 9.9688 0 16.188-7.9062 6.2344-7.9062 6.2344-20.797t-6.2344-20.812q-6.2188-7.9062-16.188-7.9062-6 0-10.328 2.375-4.3125 2.375-7.1562 7.25v-8.2031h-9.0312v75.984h9.0312z"/>
<path id="ad" d="m48.781 52.594v-8.4062q-3.8125 2.1094-7.6406 3.1562t-7.7344 1.0469q-8.75 0-13.594-5.5469-4.8281-5.5312-4.8281-15.547t4.8281-15.562q4.8438-5.5312 13.594-5.5312 3.9062 0 7.7344 1.0469t7.6406 3.1562v-8.3125q-3.7656-1.75-7.7969-2.625-4.0156-0.89062-8.5625-0.89062-12.359 0-19.641 7.7656-7.2656 7.7656-7.2656 20.953 0 13.375 7.3438 21.031 7.3594 7.6719 20.156 7.6719 4.1406 0 8.0938-0.85938 3.9531-0.84375 7.6719-2.5469z"/>
<path id="n" d="m18.312 70.219v-15.531h18.5v-6.9844h-18.5v-29.688q0-6.6875 1.8281-8.5938t7.4531-1.9062h9.2188v-7.5156h-9.2188q-10.406 0-14.359 3.875-3.9531 3.8906-3.9531 14.141v29.688h-6.5938v6.9844h6.5938v15.531z"/>
<path id="q" d="m30.609 48.391q-7.2188 0-11.422-5.6406t-4.2031-15.453 4.1719-15.453q4.1875-5.6406 11.453-5.6406 7.1875 0 11.375 5.6562 4.2031 5.6719 4.2031 15.438 0 9.7188-4.2031 15.406-4.1875 5.6875-11.375 5.6875zm0 7.6094q11.719 0 18.406-7.625 6.7031-7.6094 6.7031-21.078 0-13.422-6.7031-21.078-6.6875-7.6406-18.406-7.6406-11.766 0-18.438 7.6406-6.6562 7.6562-6.6562 21.078 0 13.469 6.6562 21.078 6.6719 7.625 18.438 7.625z"/>
</defs>
<use xlink:href="#e"/>
<use x="61.523438" xlink:href="#k"/>
<use x="158.935547" xlink:href="#ak"/>
<use x="222.412109" xlink:href="#f"/>
<use x="283.691406" xlink:href="#g"/>
<use x="322.554688" xlink:href="#ad"/>
<use x="377.535156" xlink:href="#f"/>
<use x="438.814453" xlink:href="#n"/>
<use x="478.023438" xlink:href="#h"/>
<use x="505.806641" xlink:href="#q"/>
<use x="566.988281" xlink:href="#d"/>
<use x="630.367188" xlink:href="#p"/>
</g>
</g>
<g clip-path="url(#a)">
<g transform="translate(61.486 817.5) scale(.1 -.1)">
<defs>
<path id="at" d="m32.172-5.0781q-3.7969-9.7656-7.4219-12.734-3.6094-2.9844-9.6562-2.9844h-7.1875v7.5156h5.2812q3.7031 0 5.75 1.7656 2.0625 1.75 4.5469 8.2969l1.6094 4.0938-22.109 53.812h9.5156l17.094-42.766 17.094 42.766h9.5156z"/>
<path id="ao" d="m56.203 29.594v-4.3906h-41.312q0.59375-9.2812 5.5938-14.141t13.938-4.8594q5.1719 0 10.031 1.2656t9.6562 3.8125v-8.5q-4.8438-2.0469-9.9219-3.125t-10.297-1.0781q-13.094 0-20.734 7.6094-7.6406 7.625-7.6406 20.625 0 13.422 7.25 21.297 7.25 7.8906 19.562 7.8906 11.031 0 17.453-7.1094 6.4219-7.0938 6.4219-19.297zm-8.9844 2.6406q-0.09375 7.3594-4.125 11.75-4.0312 4.4062-10.672 4.4062-7.5156 0-12.031-4.25t-5.2031-11.969zm-22.547 47.75 13.766-18.266h-7.4688l-15.922 18.266z"/>
</defs>
<use xlink:href="#g"/>
<use x="41.113281" xlink:href="#f"/>
<use x="102.392578" xlink:href="#at"/>
<use x="161.572266" xlink:href="#q"/>
<use x="222.753906" xlink:href="#d"/>
<use x="286.132812" xlink:href="#d"/>
<use x="349.511719" xlink:href="#ao"/>
<use x="411.035156" xlink:href="#g"/>
<use x="449.898438" xlink:href="#e"/>
<use x="511.421875" xlink:href="#d"/>
<use x="574.800781" xlink:href="#n"/>
</g>
</g>
<g clip-path="url(#a)">
<g transform="translate(93.383 817.3) scale(.1 -.1)">
<defs>
<path id="y" d="m45.406 46.391v29.594h8.9844v-75.984h-8.9844v8.2031q-2.8281-4.875-7.1562-7.25-4.3125-2.375-10.375-2.375-9.9062 0-16.141 7.9062-6.2188 7.9219-6.2188 20.812t6.2188 20.797q6.2344 7.9062 16.141 7.9062 6.0625 0 10.375-2.375 4.3281-2.3594 7.1562-7.2344zm-30.609-19.094q0-9.9062 4.0781-15.547t11.203-5.6406 11.219 5.6406q4.1094 5.6406 4.1094 15.547t-4.1094 15.547q-4.0938 5.6406-11.219 5.6406t-11.203-5.6406-4.0781-15.547z"/>
</defs>
<use xlink:href="#y"/>
<use x="63.476562" xlink:href="#f"/>
<use x="124.755859" xlink:href="#d"/>
<use x="188.134766" xlink:href="#p"/>
</g>
</g>
<g clip-path="url(#a)">
<g transform="translate(105.41 817.3) scale(.1 -.1)">
<defs>
<path id="w" d="m8.5 21.578v33.109h8.9844v-32.766q0-7.7656 3.0156-11.656 3.0312-3.875 9.0938-3.875 7.2656 0 11.484 4.6406 4.2344 4.6406 4.2344 12.656v31h8.9844v-54.688h-8.9844v8.4062q-3.2656-4.9844-7.5938-7.4062-4.3125-2.4219-10.031-2.4219-9.4219 0-14.312 5.8594-4.875 5.8594-4.875 17.141z"/>
</defs>
<use xlink:href="#n"/>
<use x="39.208984" xlink:href="#q"/>
<use x="100.390625" xlink:href="#w"/>
<use x="163.769531" xlink:href="#n"/>
<use x="202.978516" xlink:href="#e"/>
<use x="264.501953" xlink:href="#p"/>
</g>
</g>
<g clip-path="url(#a)">
<g transform="translate(132.66 817.3) scale(.1 -.1)">
<use xlink:href="#j"/>
<use x="27.783203" xlink:href="#e"/>
<use x="89.306641" xlink:href="#p"/>
</g>
</g>
<g clip-path="url(#a)">
<g transform="translate(136.35 817.3) scale(.1 -.1)">
<use xlink:href="#y"/>
<use x="63.476562" xlink:href="#h"/>
<use x="91.259766" xlink:href="#g"/>
<use x="130.123047" xlink:href="#e"/>
<use x="191.646484" xlink:href="#ad"/>
<use x="246.626953" xlink:href="#n"/>
<use x="285.835938" xlink:href="#h"/>
<use x="313.619141" xlink:href="#q"/>
<use x="374.800781" xlink:href="#d"/>
<use x="438.179688" xlink:href="#p"/>
</g>
</g>
<g clip-path="url(#a)">
<g transform="translate(168.16 817.3) scale(.1 -.1)">
<use xlink:href="#f"/>
<use x="61.279297" xlink:href="#w"/>
<use x="124.658203" xlink:href="#n"/>
<use x="163.867188" xlink:href="#q"/>
<use x="225.048828" xlink:href="#w"/>
<use x="288.427734" xlink:href="#g"/>
</g>
</g>
<g clip-path="url(#a)">
<g transform="translate(204.8 817.3) scale(.1 -.1)">
<use xlink:href="#y"/>
<use x="63.476562" xlink:href="#e"/>
</g>
</g>
<g clip-path="url(#a)">
<g transform="translate(238.72 817.3) scale(.1 -.1)">
<use xlink:href="#j"/>
</g>
</g>
<g clip-path="url(#a)">
<g transform="translate(270.43 817.3) scale(.1 -.1)">
<defs>
<path id="an" d="m17.922 72.906v-27.109h-8.2969v27.109z"/>
</defs>
<use xlink:href="#an"/>
</g>
</g>
<g clip-path="url(#a)">
<g transform="translate(283.33 817.3) scale(.1 -.1)">
<defs>
<path id="aw" d="m54.891 33.016v-33.016h-8.9844v32.719q0 7.7656-3.0312 11.609-3.0312 3.8594-9.0781 3.8594-7.2812 0-11.484-4.6406-4.2031-4.625-4.2031-12.641v-30.906h-9.0312v75.984h9.0312v-29.797q3.2344 4.9375 7.5938 7.375 4.375 2.4375 10.094 2.4375 9.4219 0 14.25-5.8281 4.8438-5.8281 4.8438-17.156z"/>
</defs>
<use xlink:href="#r"/>
<use x="68.408203" xlink:href="#ak"/>
<use x="131.884766" xlink:href="#g"/>
<use x="172.998047" xlink:href="#f"/>
<use x="234.277344" xlink:href="#aw"/>
<use x="297.65625" xlink:href="#f"/>
<use x="358.935547" xlink:href="#k"/>
</g>
</g>
<g clip-path="url(#a)">
<g transform="translate(341.32 817.3) scale(.1 -.1)">
<defs>
<path id="ar" d="m4.8906 31.391h26.312v-8h-26.312z"/>
</defs>
<use xlink:href="#ar"/>
</g>
</g>
<g clip-path="url(#a)">
<g transform="translate(365.04 817.3) scale(.1 -.1)">
<use xlink:href="#z"/>
<use x="55.712891" xlink:href="#h"/>
<use x="83.496094" xlink:href="#d"/>
<use x="146.875" xlink:href="#ad"/>
<use x="201.855469" xlink:href="#q"/>
<use x="263.037109" xlink:href="#j"/>
<use x="290.820312" xlink:href="#d"/>
</g>
</g>
<g clip-path="url(#a)">
<g transform="translate(423.42 817.3) scale(.1 -.1)">
<defs>
<path id="am" d="m11.719 12.406h10.297v-8.4062l-8-15.625h-6.2969l4 15.625z"/>
</defs>
<use xlink:href="#am"/>
</g>
</g>
<g clip-path="url(#a)">
<g transform="translate(449.13 817.3) scale(.1 -.1)">
<defs>
<path id="x" d="m18.109 8.2031v-29h-9.0312v75.484h9.0312v-8.2969q2.8438 4.875 7.1562 7.2344 4.3281 2.375 10.328 2.375 9.9688 0 16.188-7.9062 6.2344-7.9062 6.2344-20.797t-6.2344-20.812q-6.2188-7.9062-16.188-7.9062-6 0-10.328 2.375-4.3125 2.375-7.1562 7.25zm30.578 19.094q0 9.9062-4.0781 15.547t-11.203 5.6406q-7.1406 0-11.219-5.6406t-4.0781-15.547 4.0781-15.547 11.219-5.6406q7.125 0 11.203 5.6406t4.0781 15.547z"/>
</defs>
<use xlink:href="#x"/>
<use x="63.476562" xlink:href="#e"/>
<use x="125" xlink:href="#d"/>
<use x="188.378906" xlink:href="#y"/>
<use x="251.855469" xlink:href="#f"/>
<use x="313.134766" xlink:href="#d"/>
<use x="376.513672" xlink:href="#n"/>
</g>
</g>
<g clip-path="url(#a)">
<g transform="translate(509.75 817.3) scale(.1 -.1)">
<defs>
<path id="av" d="m14.797 27.297q0-9.9062 4.0781-15.547t11.203-5.6406 11.219 5.6406q4.1094 5.6406 4.1094 15.547t-4.1094 15.547q-4.0938 5.6406-11.219 5.6406t-11.203-5.6406-4.0781-15.547zm30.609-19.094q-2.8281-4.875-7.1562-7.25-4.3125-2.375-10.375-2.375-9.9062 0-16.141 7.9062-6.2188 7.9219-6.2188 20.812t6.2188 20.797q6.2344 7.9062 16.141 7.9062 6.0625 0 10.375-2.375 4.3281-2.3594 7.1562-7.2344v8.2969h8.9844v-75.484h-8.9844z"/>
</defs>
<use xlink:href="#av"/>
<use x="63.476562" xlink:href="#w"/>
<use x="126.855469" xlink:href="#an"/>
</g>
</g>
<g clip-path="url(#a)">
<g transform="translate(564.87 817.3) scale(.1 -.1)">
<use xlink:href="#h"/>
<use x="27.783203" xlink:href="#j"/>
</g>
</g>
<g clip-path="url(#a)">
<g transform="translate(602.2 817.3) scale(.1 -.1)">
<use xlink:href="#k"/>
<use x="97.412109" xlink:href="#e"/>
<use x="158.935547" xlink:href="#n"/>
<use x="198.144531" xlink:href="#n"/>
<use x="237.353516" xlink:href="#f"/>
<use x="298.632812" xlink:href="#h"/>
<use x="326.416016" xlink:href="#n"/>
</g>
</g>
<g clip-path="url(#a)">
<g transform="translate(669.71 817.3) scale(.1 -.1)">
<use xlink:href="#e"/>
<use x="61.523438" xlink:href="#d"/>
</g>
</g>
<g clip-path="url(#a)">
<g transform="translate(718.41 817.3) scale(.1 -.1)">
<use xlink:href="#x"/>
<use x="63.476562" xlink:href="#f"/>
<use x="124.755859" xlink:href="#d"/>
<use x="188.134766" xlink:href="#d"/>
<use x="251.513672" xlink:href="#e"/>
</g>
</g>
<g clip-path="url(#a)">
<g transform="translate(793.23 817.3) scale(.1 -.1)">
<use xlink:href="#am"/>
</g>
</g>
<g clip-path="url(#a)">
<g transform="translate(853.18 817.3) scale(.1 -.1)">
<use xlink:href="#e"/>
<use x="61.523438" xlink:href="#n"/>
</g>
</g>
<g clip-path="url(#a)">
<g transform="translate(918 817.3) scale(.1 -.1)">
<use xlink:href="#d"/>
<use x="63.378906" xlink:href="#e"/>
</g>
</g>
<g clip-path="url(#a)">
<g transform="translate(968.65 817.3) scale(.1 -.1)">
<use xlink:href="#j"/>
<use x="27.783203" xlink:href="#f"/>
<use x="89.0625" xlink:href="#h"/>
<use x="116.845703" xlink:href="#p"/>
<use x="168.945312" xlink:href="#p"/>
<use x="221.044922" xlink:href="#ao"/>
<use x="282.568359" xlink:href="#g"/>
<use x="321.431641" xlink:href="#e"/>
<use x="382.955078" xlink:href="#d"/>
<use x="446.333984" xlink:href="#n"/>
</g>
</g>
<g clip-path="url(#a)">
<g transform="translate(1055.4 817.3) scale(.1 -.1)">
<use xlink:href="#x"/>
<use x="63.476562" xlink:href="#f"/>
<use x="124.755859" xlink:href="#p"/>
</g>
</g>
<g clip-path="url(#a)">
<g transform="translate(1131.9 817.3) scale(.1 -.1)">
<use xlink:href="#w"/>
<use x="63.378906" xlink:href="#d"/>
</g>
</g>
<g clip-path="url(#a)">
<g transform="translate(1202.1 817.3) scale(.1 -.1)">
<use xlink:href="#x"/>
<use x="63.476562" xlink:href="#q"/>
<use x="124.658203" xlink:href="#h"/>
<use x="152.441406" xlink:href="#d"/>
<use x="215.820312" xlink:href="#n"/>
</g>
</g>
<g clip-path="url(#a)">
<g transform="translate(1287.8 817.3) scale(.1 -.1)">
<use xlink:href="#y"/>
<use x="63.476562" xlink:href="#e"/>
</g>
</g>
<g clip-path="url(#a)">
<g transform="translate(1365.9 817.3) scale(.1 -.1)">
<use xlink:href="#k"/>
<use x="97.412109" xlink:href="#e"/>
<use x="158.935547" xlink:href="#g"/>
</g>
</g>
<g clip-path="url(#a)">
<g transform="translate(1437.3 817.5) scale(.1 -.1)">
<defs>
<path id="au" d="m54.891 54.688-19.781-26.609 20.797-28.078h-10.594l-15.922 21.484-15.906-21.484h-10.609l21.25 28.609-19.438 26.078h10.594l14.5-19.484 14.5 19.484z"/>
<path id="as" d="m56.203 29.594v-4.3906h-41.312q0.59375-9.2812 5.5938-14.141t13.938-4.8594q5.1719 0 10.031 1.2656t9.6562 3.8125v-8.5q-4.8438-2.0469-9.9219-3.125t-10.297-1.0781q-13.094 0-20.734 7.6094-7.6406 7.625-7.6406 20.625 0 13.422 7.25 21.297 7.25 7.8906 19.562 7.8906 11.031 0 17.453-7.1094 6.4219-7.0938 6.4219-19.297zm-8.9844 2.6406q-0.09375 7.3594-4.125 11.75-4.0312 4.4062-10.672 4.4062-7.5156 0-12.031-4.25t-5.2031-11.969zm-8.6875 47.75h9.7188l-15.906-18.359h-7.4844z"/>
</defs>
<use xlink:href="#h"/>
<use x="27.783203" xlink:href="#d"/>
<use x="91.162109" xlink:href="#e"/>
<use x="150.935547" xlink:href="#au"/>
<use x="210.115234" xlink:href="#x"/>
<use x="273.591797" xlink:href="#j"/>
<use x="301.375" xlink:href="#q"/>
<use x="362.556641" xlink:href="#g"/>
<use x="401.419922" xlink:href="#as"/>
</g>
</g>
<g clip-path="url(#a)">
<g transform="translate(1546 817.3) scale(.1 -.1)">
<defs>
<path id="i" d="m10.688 12.406h10.312v-12.406h-10.312z"/>
</defs>
<use xlink:href="#i"/>
</g>
</g>
<g clip-path="url(#a)">
<g transform="translate(609.81 41.547) scale(.1 -.1)">
<defs>
<path id="c" d="m12.406 8.2969h16.109v55.625l-17.531-3.5156v8.9844l17.438 3.5156h9.8594v-64.609h16.109v-8.2969h-41.984z"/>
</defs>
<use xlink:href="#c"/>
<use x="63.623047" xlink:href="#i"/>
<use x="95.410156" xlink:href="#c"/>
</g>
</g>
<g clip-path="url(#a)">
<g transform="translate(130.04 198.08) scale(.1 -.1)">
<defs>
<path id="m" d="m19.188 8.2969h34.422v-8.2969h-46.281v8.2969q5.6094 5.8125 15.297 15.594 9.7031 9.7969 12.188 12.641 4.7344 5.3125 6.6094 9 1.8906 3.6875 1.8906 7.25 0 5.8125-4.0781 9.4688-4.0781 3.6719-10.625 3.6719-4.6406 0-9.7969-1.6094-5.1406-1.6094-11-4.8906v9.9688q5.9531 2.3906 11.125 3.6094 5.1875 1.2188 9.4844 1.2188 11.328 0 18.062-5.6719 6.7344-5.6562 6.7344-15.125 0-4.5-1.6875-8.5312-1.6719-4.0156-6.125-9.4844-1.2188-1.4219-7.7656-8.1875-6.5312-6.7656-18.453-18.922z"/>
</defs>
<use xlink:href="#c"/>
<use x="63.623047" xlink:href="#i"/>
<use x="95.410156" xlink:href="#m"/>
</g>
</g>
<g clip-path="url(#a)">
<g transform="translate(461.97 664.63) scale(.1 -.1)">
<defs>
<path id="o" d="m40.578 39.312q7.0781-1.5156 11.047-6.3125 3.9844-4.7812 3.9844-11.812 0-10.781-7.4219-16.703-7.4219-5.9062-21.094-5.9062-4.5781 0-9.4375 0.90625t-10.031 2.7188v9.5156q4.0938-2.3906 8.9688-3.6094 4.8906-1.2188 10.219-1.2188 9.2656 0 14.125 3.6562t4.8594 10.641q0 6.4531-4.5156 10.078-4.5156 3.6406-12.562 3.6406h-8.5v8.1094h8.8906q7.2656 0 11.125 2.9062t3.8594 8.375q0 5.6094-3.9844 8.6094-3.9688 3.0156-11.391 3.0156-4.0625 0-8.7031-0.89062-4.6406-0.875-10.203-2.7188v8.7812q5.625 1.5625 10.531 2.3438t9.25 0.78125q11.234 0 17.766-5.1094 6.5469-5.0938 6.5469-13.781 0-6.0625-3.4688-10.234t-9.8594-5.7812z"/>
</defs>
<use xlink:href="#c"/>
<use x="63.623047" xlink:href="#i"/>
<use x="95.410156" xlink:href="#o"/>
</g>
</g>
<g clip-path="url(#a)">
<g transform="translate(579.36 509.83) scale(.1 -.1)">
<defs>
<path id="s" d="m37.797 64.312-24.906-38.922h24.906zm-2.5938 8.5938h12.406v-47.516h10.406v-8.2031h-10.406v-17.188h-9.8125v17.188h-32.906v9.5156z"/>
</defs>
<use xlink:href="#c"/>
<use x="63.623047" xlink:href="#i"/>
<use x="95.410156" xlink:href="#s"/>
</g>
</g>
<g clip-path="url(#a)">
<g transform="translate(850.26 664.63) scale(.1 -.1)">
<defs>
<path id="ac" d="m10.797 72.906h38.719v-8.3125h-29.688v-17.859q2.1406 0.73438 4.2812 1.0938 2.1562 0.35938 4.3125 0.35938 12.203 0 19.328-6.6875 7.1406-6.6875 7.1406-18.109 0-11.766-7.3281-18.297-7.3281-6.5156-20.656-6.5156-4.5938 0-9.3594 0.78125-4.75 0.78125-9.8281 2.3438v9.9219q4.3906-2.3906 9.0781-3.5625t9.9062-1.1719q8.4531 0 13.375 4.4375 4.9375 4.4375 4.9375 12.062 0 7.6094-4.9375 12.047-4.9219 4.4531-13.375 4.4531-3.9531 0-7.8906-0.875-3.9219-0.875-8.0156-2.7344z"/>
</defs>
<use xlink:href="#c"/>
<use x="63.623047" xlink:href="#i"/>
<use x="95.410156" xlink:href="#ac"/>
</g>
</g>
<g clip-path="url(#a)">
<g transform="translate(1043.1 198.08) scale(.1 -.1)">
<defs>
<path id="ab" d="m33.016 40.375q-6.6406 0-10.531-4.5469-3.875-4.5312-3.875-12.438 0-7.8594 3.875-12.438 3.8906-4.5625 10.531-4.5625t10.516 4.5625q3.875 4.5781 3.875 12.438 0 7.9062-3.875 12.438-3.875 4.5469-10.516 4.5469zm19.578 30.922v-8.9844q-3.7188 1.75-7.5 2.6719-3.7812 0.9375-7.5 0.9375-9.7656 0-14.922-6.5938-5.1406-6.5938-5.875-19.922 2.875 4.25 7.2188 6.5156 4.3594 2.2656 9.5781 2.2656 10.984 0 17.359-6.6719 6.375-6.6562 6.375-18.125 0-11.234-6.6406-18.031-6.6406-6.7812-17.672-6.7812-12.656 0-19.344 9.6875-6.6875 9.7031-6.6875 28.109 0 17.281 8.2031 27.562t22.016 10.281q3.7188 0 7.5-0.73438t7.8906-2.1875z"/>
</defs>
<use xlink:href="#c"/>
<use x="63.623047" xlink:href="#i"/>
<use x="95.410156" xlink:href="#ab"/>
</g>
</g>
<g clip-path="url(#a)">
<g transform="translate(983.12 664.63) scale(.1 -.1)">
<defs>
<path id="aj" d="m31.781 66.406q-7.6094 0-11.453-7.5-3.8281-7.4844-3.8281-22.531 0-14.984 3.8281-22.484 3.8438-7.5 11.453-7.5 7.6719 0 11.5 7.5 3.8438 7.5 3.8438 22.484 0 15.047-3.8438 22.531-3.8281 7.5-11.5 7.5zm0 7.8125q12.266 0 18.734-9.7031 6.4688-9.6875 6.4688-28.141 0-18.406-6.4688-28.109-6.4688-9.6875-18.734-9.6875-12.25 0-18.719 9.6875-6.4688 9.7031-6.4688 28.109 0 18.453 6.4688 28.141 6.4688 9.7031 18.719 9.7031z"/>
</defs>
<use xlink:href="#c"/>
<use x="63.623047" xlink:href="#i"/>
<use x="95.410156" xlink:href="#c"/>
<use x="159.033203" xlink:href="#aj"/>
</g>
</g>
<g clip-path="url(#a)">
<g transform="translate(981.8 664.63) scale(.1 -.1)">
<use xlink:href="#c"/>
<use x="63.623047" xlink:href="#i"/>
<use x="95.410156" xlink:href="#c"/>
<use x="159.033203" xlink:href="#c"/>
</g>
</g>
<g clip-path="url(#a)">
<g transform="translate(1218.2 354.22) scale(.1 -.1)">
<use xlink:href="#c"/>
<use x="63.623047" xlink:href="#i"/>
<use x="95.410156" xlink:href="#c"/>
<use x="159.033203" xlink:href="#m"/>
</g>
</g>
<g clip-path="url(#a)">
<g transform="translate(1449.3 664.63) scale(.1 -.1)">
<use xlink:href="#c"/>
<use x="63.623047" xlink:href="#i"/>
<use x="95.410156" xlink:href="#c"/>
<use x="159.033203" xlink:href="#o"/>
</g>
</g>
<g clip-path="url(#a)">
<g transform="translate(1127.1 664.63) scale(.1 -.1)">
<use xlink:href="#c"/>
<use x="63.623047" xlink:href="#i"/>
<use x="95.410156" xlink:href="#c"/>
<use x="159.033203" xlink:href="#s"/>
</g>
</g>
<g clip-path="url(#a)">
<g transform="translate(1203.7 664.63) scale(.1 -.1)">
<use xlink:href="#c"/>
<use x="63.623047" xlink:href="#i"/>
<use x="95.410156" xlink:href="#c"/>
<use x="159.033203" xlink:href="#ac"/>
</g>
</g>
<g clip-path="url(#a)">
<g transform="translate(1323.9 509.83) scale(.1 -.1)">
<use xlink:href="#c"/>
<use x="63.623047" xlink:href="#i"/>
<use x="95.410156" xlink:href="#c"/>
<use x="159.033203" xlink:href="#ab"/>
</g>
</g>
<g clip-path="url(#a)">
<g transform="translate(1282.9 664.63) scale(.1 -.1)">
<defs>
<path id="ai" d="m8.2031 72.906h46.875v-4.2031l-26.469-68.703h-10.297l24.906 64.594h-35.016z"/>
</defs>
<use xlink:href="#c"/>
<use x="63.623047" xlink:href="#i"/>
<use x="95.410156" xlink:href="#c"/>
<use x="159.033203" xlink:href="#ai"/>
</g>
</g>
<g clip-path="url(#a)">
<g transform="translate(1364.8 664.63) scale(.1 -.1)">
<defs>
<path id="ah" d="m31.781 34.625q-7.0312 0-11.062-3.7656-4.0156-3.7656-4.0156-10.344 0-6.5938 4.0156-10.359 4.0312-3.7656 11.062-3.7656t11.078 3.7812q4.0625 3.7969 4.0625 10.344 0 6.5781-4.0312 10.344-4.0156 3.7656-11.109 3.7656zm-9.8594 4.1875q-6.3438 1.5625-9.8906 5.9062-3.5312 4.3594-3.5312 10.609 0 8.7344 6.2188 13.812 6.2344 5.0781 17.062 5.0781 10.891 0 17.094-5.0781t6.2031-13.812q0-6.25-3.5469-10.609-3.5312-4.3438-9.8281-5.9062 7.125-1.6562 11.094-6.5 3.9844-4.8281 3.9844-11.797 0-10.609-6.4688-16.281-6.4688-5.6562-18.531-5.6562-12.047 0-18.531 5.6562-6.4688 5.6719-6.4688 16.281 0 6.9688 4 11.797 4.0156 4.8438 11.141 6.5zm-3.6094 15.578q0-5.6562 3.5312-8.8281 3.5469-3.1719 9.9375-3.1719 6.3594 0 9.9375 3.1719 3.5938 3.1719 3.5938 8.8281 0 5.6719-3.5938 8.8438-3.5781 3.1719-9.9375 3.1719-6.3906 0-9.9375-3.1719-3.5312-3.1719-3.5312-8.8438z"/>
</defs>
<use xlink:href="#c"/>
<use x="63.623047" xlink:href="#i"/>
<use x="95.410156" xlink:href="#c"/>
<use x="159.033203" xlink:href="#ah"/>
</g>
</g>
<g clip-path="url(#a)">
<g transform="translate(506.33 664.63) scale(.1 -.1)">
<defs>
<path id="ag" d="m10.984 1.5156v8.9844q3.7188-1.7656 7.5156-2.6875 3.8125-0.92188 7.4844-0.92188 9.7656 0 14.906 6.5625 5.1562 6.5625 5.8906 19.953-2.8281-4.2031-7.1875-6.4531-4.3438-2.25-9.6094-2.25-10.938 0-17.312 6.6094-6.375 6.625-6.375 18.109 0 11.219 6.6406 18 6.6406 6.7969 17.672 6.7969 12.656 0 19.312-9.7031 6.6719-9.6875 6.6719-28.141 0-17.234-8.1875-27.516-8.1719-10.281-21.984-10.281-3.7188 0-7.5312 0.73438-3.7969 0.73438-7.9062 2.2031zm19.625 30.906q6.6406 0 10.516 4.5312 3.8906 4.5469 3.8906 12.469 0 7.8594-3.8906 12.422-3.875 4.5625-10.516 4.5625t-10.516-4.5625-3.875-12.422q0-7.9219 3.875-12.469 3.875-4.5312 10.516-4.5312z"/>
</defs>
<use xlink:href="#c"/>
<use x="63.623047" xlink:href="#i"/>
<use x="95.410156" xlink:href="#c"/>
<use x="159.033203" xlink:href="#ag"/>
</g>
</g>
<g clip-path="url(#a)">
<g transform="translate(556.52 664.63) scale(.1 -.1)">
<use xlink:href="#c"/>
<use x="63.623047" xlink:href="#i"/>
<use x="95.410156" xlink:href="#m"/>
<use x="159.033203" xlink:href="#aj"/>
</g>
</g>
<g clip-path="url(#a)">
<g transform="translate(665.7 664.63) scale(.1 -.1)">
<use xlink:href="#c"/>
<use x="63.623047" xlink:href="#i"/>
<use x="95.410156" xlink:href="#m"/>
<use x="159.033203" xlink:href="#c"/>
</g>
</g>
<g clip-path="url(#a)">
<g transform="translate(66.526 509.83) scale(.1 -.1)">
<use xlink:href="#c"/>
<use x="63.623047" xlink:href="#i"/>
<use x="95.410156" xlink:href="#m"/>
<use x="159.033203" xlink:href="#m"/>
</g>
</g>
<g clip-path="url(#a)">
<g transform="translate(81.054 664.63) scale(.1 -.1)">
<use xlink:href="#c"/>
<use x="63.623047" xlink:href="#i"/>
<use x="95.410156" xlink:href="#m"/>
<use x="159.033203" xlink:href="#o"/>
</g>
</g>
<g clip-path="url(#a)">
<g transform="translate(120.68 509.83) scale(.1 -.1)">
<use xlink:href="#c"/>
<use x="63.623047" xlink:href="#i"/>
<use x="95.410156" xlink:href="#m"/>
<use x="159.033203" xlink:href="#s"/>
</g>
</g>
<g clip-path="url(#a)">
<g transform="translate(239.19 354.22) scale(.1 -.1)">
<use xlink:href="#c"/>
<use x="63.623047" xlink:href="#i"/>
<use x="95.410156" xlink:href="#m"/>
<use x="159.033203" xlink:href="#ac"/>
</g>
</g>
<g clip-path="url(#a)">
<g transform="translate(173.51 664.63) scale(.1 -.1)">
<use xlink:href="#c"/>
<use x="63.623047" xlink:href="#i"/>
<use x="95.410156" xlink:href="#m"/>
<use x="159.033203" xlink:href="#ab"/>
</g>
</g>
<g clip-path="url(#a)">
<g transform="translate(199.92 664.63) scale(.1 -.1)">
<use xlink:href="#c"/>
<use x="63.623047" xlink:href="#i"/>
<use x="95.410156" xlink:href="#m"/>
<use x="159.033203" xlink:href="#ai"/>
</g>
</g>
<g clip-path="url(#a)">
<g transform="translate(228.98 664.63) scale(.1 -.1)">
<use xlink:href="#c"/>
<use x="63.623047" xlink:href="#i"/>
<use x="95.410156" xlink:href="#m"/>
<use x="159.033203" xlink:href="#ah"/>
</g>
</g>
<g clip-path="url(#a)">
<g transform="translate(332.87 509.83) scale(.1 -.1)">
<use xlink:href="#c"/>
<use x="63.623047" xlink:href="#i"/>
<use x="95.410156" xlink:href="#m"/>
<use x="159.033203" xlink:href="#ag"/>
</g>
</g>
<g clip-path="url(#a)">
<g transform="translate(94.262 664.63) scale(.1 -.1)">
<use xlink:href="#c"/>
<use x="63.623047" xlink:href="#i"/>
<use x="95.410156" xlink:href="#o"/>
<use x="159.033203" xlink:href="#m"/>
</g>
</g>
<g clip-path="url(#a)">
<g transform="translate(110.11 664.63) scale(.1 -.1)">
<use xlink:href="#c"/>
<use x="63.623047" xlink:href="#i"/>
<use x="95.410156" xlink:href="#o"/>
<use x="159.033203" xlink:href="#o"/>
</g>
</g>
<g clip-path="url(#a)">
<g transform="translate(128.6 664.63) scale(.1 -.1)">
<use xlink:href="#c"/>
<use x="63.623047" xlink:href="#i"/>
<use x="95.410156" xlink:href="#o"/>
<use x="159.033203" xlink:href="#s"/>
</g>
</g>
<g clip-path="url(#a)">
<g transform="translate(149.73 664.63) scale(.1 -.1)">
<use xlink:href="#c"/>
<use x="63.623047" xlink:href="#i"/>
<use x="95.410156" xlink:href="#o"/>
<use x="159.033203" xlink:href="#ac"/>
</g>
</g>
<g clip-path="url(#a)">
<g transform="translate(62.564 664.63) scale(.1 -.1)">
<use xlink:href="#c"/>
<use x="63.623047" xlink:href="#i"/>
<use x="95.410156" xlink:href="#o"/>
<use x="159.033203" xlink:href="#ab"/>
</g>
</g>
<g clip-path="url(#a)">
<g transform="translate(70.489 664.63) scale(.1 -.1)">
<use xlink:href="#c"/>
<use x="63.623047" xlink:href="#i"/>
<use x="95.410156" xlink:href="#o"/>
<use x="159.033203" xlink:href="#ai"/>
</g>
</g>
<g clip-path="url(#a)">
<g transform="translate(260.67 664.63) scale(.1 -.1)">
<use xlink:href="#c"/>
<use x="63.623047" xlink:href="#i"/>
<use x="95.410156" xlink:href="#o"/>
<use x="159.033203" xlink:href="#ah"/>
</g>
</g>
<g clip-path="url(#a)">
<g transform="translate(331.99 664.63) scale(.1 -.1)">
<use xlink:href="#c"/>
<use x="63.623047" xlink:href="#i"/>
<use x="95.410156" xlink:href="#o"/>
<use x="159.033203" xlink:href="#ag"/>
</g>
</g>
<g clip-path="url(#a)">
<g transform="translate(413.88 664.63) scale(.1 -.1)">
<use xlink:href="#c"/>
<use x="63.623047" xlink:href="#i"/>
<use x="95.410156" xlink:href="#s"/>
<use x="159.033203" xlink:href="#aj"/>
</g>
</g>
<g clip-path="url(#a)">
<g transform="translate(783.69 664.63) scale(.1 -.1)">
<use xlink:href="#c"/>
<use x="63.623047" xlink:href="#i"/>
<use x="95.410156" xlink:href="#s"/>
<use x="159.033203" xlink:href="#c"/>
</g>
</g>
<g clip-path="url(#a)">
<g transform="translate(1536.5 664.63) scale(.1 -.1)">
<use xlink:href="#c"/>
<use x="63.623047" xlink:href="#i"/>
<use x="95.410156" xlink:href="#s"/>
<use x="159.033203" xlink:href="#m"/>
</g>
</g>
<defs>
<clipPath id="a">
<rect width="1621.3" height="853.33"/>
</clipPath>
</defs>
</svg>
