<?xml version="1.0" encoding="UTF-8"?>
<!DOCTYPE svg  PUBLIC '-//W3C//DTD SVG 1.1//EN'  'http://www.w3.org/Graphics/SVG/1.1/DTD/svg11.dtd'>
<svg width="1570.7pt" height="826.67pt" version="1.1" viewBox="0 0 1570.7 826.67" xmlns="http://www.w3.org/2000/svg" xmlns:xlink="http://www.w3.org/1999/xlink">
<metadata>
<rdf:RDF xmlns:cc="http://creativecommons.org/ns#" xmlns:dc="http://purl.org/dc/elements/1.1/" xmlns:rdf="http://www.w3.org/1999/02/22-rdf-syntax-ns#">
<cc:Work>
<dc:type rdf:resource="http://purl.org/dc/dcmitype/StillImage"/>
<dc:date>2021-04-07T07:14:04.176163</dc:date>
<dc:format>image/svg+xml</dc:format>
<dc:creator>
<cc:Agent>
<dc:title>Matplotlib v3.3.3, https://matplotlib.org/</dc:title>
</cc:Agent>
</dc:creator>
</cc:Work>
</rdf:RDF>
</metadata>
<defs>
<style type="text/css">*{stroke-linecap:butt;stroke-linejoin:round;}</style>
</defs>
<path d="m0 826.67h1570.7v-826.67h-1570.7z" fill="#fff"/>
<g fill="none" stroke="#000">
<path d="m420.51 37.576-349.12 628.49" clip-path="url(#a)"/>
<path d="m420.51 37.576-335.57 378.35" clip-path="url(#a)"/>
<path d="m420.51 37.576-3.4966 126.39" clip-path="url(#a)"/>
<path d="m420.51 37.576-208.74 252.53" clip-path="url(#a)"/>
<path d="m420.51 37.576 461 628.49" clip-path="url(#a)"/>
<path d="m420.51 37.576 418.47 252.53" clip-path="url(#a)"/>
<path d="m420.51 37.576-311.19 628.49" clip-path="url(#a)"/>
<path d="m420.51 37.576-67.338 628.49" clip-path="url(#a)"/>
<path d="m420.51 37.576 395.98 628.49" clip-path="url(#a)"/>
<path d="m71.394 666.06v123.03" clip-path="url(#a)"/>
<path d="m84.941 415.93 10.838 125.39" clip-path="url(#a)"/>
<path d="m84.941 415.93 10.838 125.39" clip-path="url(#a)"/>
<path d="m84.941 415.93v125.39" clip-path="url(#a)"/>
<path d="m417.02 163.97-266.37 126.14" clip-path="url(#a)"/>
<path d="m417.02 163.97-23.2 502.09" clip-path="url(#a)"/>
<path d="m417.02 163.97 67.115 502.09" clip-path="url(#a)"/>
<path d="m417.02 163.97 222.46 251.96" clip-path="url(#a)"/>
<path d="m211.78 290.11 5.9269 375.95" clip-path="url(#a)"/>
<path d="m211.78 290.11 60.793 125.82" clip-path="url(#a)"/>
<path d="m211.78 290.11-45.553 375.95" clip-path="url(#a)" stroke-dasharray="3.7,1.6"/>
<path d="m211.78 290.11-21.168 375.95" clip-path="url(#a)"/>
<path d="m881.52 666.06v123.03" clip-path="url(#a)"/>
<path d="m838.99 290.11 110.27 375.95" clip-path="url(#a)"/>
<path d="m838.99 290.11 180.71 375.95" clip-path="url(#a)"/>
<path d="m838.99 290.11 381.78 125.82" clip-path="url(#a)"/>
<path d="m838.99 290.11-672.76 375.95" clip-path="url(#a)" stroke-dasharray="3.7,1.6"/>
<path d="m949.25 666.06v123.03" clip-path="url(#a)"/>
<path d="m1019.7 666.06v123.03" clip-path="url(#a)"/>
<path d="m1220.8 415.93-127.91 250.13" clip-path="url(#a)"/>
<path d="m1220.8 415.93-52.044 250.13" clip-path="url(#a)"/>
<path d="m1220.8 415.93-12.757 125.39" clip-path="url(#a)"/>
<path d="m1220.8 415.93 192.71 125.39" clip-path="url(#a)"/>
<path d="m1092.9 666.06v123.03" clip-path="url(#a)"/>
<path d="m1168.7 666.06v123.03" clip-path="url(#a)"/>
<path d="m1208 541.32-39.287 124.74" clip-path="url(#a)" stroke-dasharray="3.7,1.6"/>
<path d="m1208 541.32 39.287 124.74" clip-path="url(#a)"/>
<path d="m1413.5 541.32-84.896 124.74" clip-path="url(#a)"/>
<path d="m1413.5 541.32-0.90315 124.74" clip-path="url(#a)"/>
<path d="m1413.5 541.32 85.799 124.74" clip-path="url(#a)"/>
<path d="m1328.6 666.06v123.03" clip-path="url(#a)"/>
<path d="m1412.6 666.06v123.03" clip-path="url(#a)"/>
<path d="m1247.3 666.06v123.03" clip-path="url(#a)"/>
<path d="m217.7 666.06v123.03" clip-path="url(#a)"/>
<path d="m272.57 415.93-25.062 250.13" clip-path="url(#a)"/>
<path d="m272.57 415.93 25.062 125.39" clip-path="url(#a)"/>
<path d="m247.51 666.06v123.03" clip-path="url(#a)"/>
<path d="m297.63 541.32-17.611 124.74" clip-path="url(#a)"/>
<path d="m297.63 541.32 17.611 124.74" clip-path="url(#a)"/>
<path d="m280.02 666.06v123.03" clip-path="url(#a)"/>
<path d="m315.24 666.06v123.03" clip-path="url(#a)"/>
<path d="m150.65 290.11-15.579 125.82" clip-path="url(#a)"/>
<path d="m150.65 290.11 15.579 375.95" clip-path="url(#a)"/>
<path d="m393.82 666.06v123.03" clip-path="url(#a)"/>
<path d="m484.13 666.06-46.964 123.03" clip-path="url(#a)"/>
<path d="m484.13 666.06-0.90315 123.03" clip-path="url(#a)"/>
<path d="m484.13 666.06 47.867 123.03" clip-path="url(#a)"/>
<path d="m639.47 415.93-55.995 250.13" clip-path="url(#a)"/>
<path d="m639.47 415.93 55.995 125.39" clip-path="url(#a)"/>
<path d="m583.48 666.06v123.03" clip-path="url(#a)"/>
<path d="m695.47 541.32-57.802 247.77" clip-path="url(#a)"/>
<path d="m695.47 541.32 58.705 247.77" clip-path="url(#a)"/>
<path d="m695.47 541.32-0.90315 124.74" clip-path="url(#a)"/>
<path d="m135.07 415.93v125.39" clip-path="url(#a)"/>
<path d="m166.22 666.06v123.03" clip-path="url(#a)"/>
<path d="m135.07 541.32-9.4831 124.74" clip-path="url(#a)"/>
<path d="m135.07 541.32 9.4831 124.74" clip-path="url(#a)"/>
<path d="m125.58 666.06v123.03" clip-path="url(#a)"/>
<path d="m144.55 666.06v123.03" clip-path="url(#a)"/>
<path d="m84.941 541.32-5.4189 124.74" clip-path="url(#a)"/>
<path d="m84.941 541.32 5.4189 124.74" clip-path="url(#a)"/>
<path d="m79.522 666.06v123.03" clip-path="url(#a)"/>
<path d="m90.36 666.06v123.03" clip-path="url(#a)"/>
<path d="m109.33 666.06v123.03" clip-path="url(#a)"/>
<path d="m190.61 666.06v123.03" clip-path="url(#a)"/>
<path d="m353.18 666.06v123.03" clip-path="url(#a)"/>
<path d="m694.57 666.06v123.03" clip-path="url(#a)"/>
<path d="m816.49 666.06v123.03" clip-path="url(#a)"/>
<path d="m1499.3 666.06v123.03" clip-path="url(#a)"/>
</g>
<path d="m250.35 356.81 2.1646-3.8967q1.1654-2.098-0.93259-3.2635l-6.7683-3.7598q-2.098-1.1654-3.2635 0.93259l-2.1646 3.8967q-1.1654 2.098 0.93259 3.2635l6.7683 3.7598q2.098 1.1654 3.2635-0.93259z" clip-path="url(#a)" fill="#fff" stroke="#fff"/>
<g clip-path="url(#a)">
<g transform="translate(246.8 354.84) rotate(-60.948) scale(.08 -.08)">
<defs>
<path id="ac" d="m9.8125 72.906h9.8594v-64.609h35.5v-8.2969h-45.359z"/>
</defs>
<use xlink:href="#ac"/>
</g>
</g>
<path d="m255.42 233.16 3.9921-4.501q1.5925-1.7955-0.20302-3.388l-5.7924-5.1375q-1.7955-1.5925-3.388 0.20302l-3.9921 4.501q-1.5925 1.7955 0.20302 3.388l5.7924 5.1375q1.7955 1.5925 3.388-0.20302z" clip-path="url(#a)" fill="#fff" stroke="#fff"/>
<g clip-path="url(#a)">
<g transform="translate(252.38 230.47) rotate(-48.429) scale(.08 -.08)">
<defs>
<path id="ad" d="m9.8125 72.906h9.8594v-29.891h35.844v29.891h9.8594v-72.906h-9.8594v34.719h-35.844v-34.719h-9.8594z"/>
</defs>
<use xlink:href="#ad"/>
</g>
</g>
<path d="m424.95 103.95 0.16637-6.0139q0.066369-2.3991-2.3327-2.4655l-7.7395-0.21411q-2.3991-0.066368-2.4654 2.3327l-0.16637 6.0139q-0.066369 2.3991 2.3327 2.4655l7.7395 0.21411q2.3991 0.066368 2.4655-2.3327z" clip-path="url(#a)" fill="#fff" stroke="#fff"/>
<g clip-path="url(#a)">
<g transform="translate(420.89 103.84) rotate(-88.415) scale(.08 -.08)">
<use xlink:href="#ad"/>
</g>
</g>
<path d="m319.06 170.16 3.833-4.6372q1.5291-1.8499-0.32081-3.3789l-5.9677-4.9328q-1.8499-1.5291-3.3789 0.32081l-3.833 4.6372q-1.5291 1.8499 0.32081 3.3789l5.9677 4.9328q1.8499 1.5291 3.3789-0.32081z" clip-path="url(#a)" fill="#fff" stroke="#fff"/>
<g clip-path="url(#a)">
<g transform="translate(315.93 167.57) rotate(-50.424) scale(.08 -.08)">
<use xlink:href="#ad"/>
</g>
</g>
<path d="m644.64 353.73 2.6364 3.5942q1.4195 1.9352 3.3547 0.5157l6.243-4.5794q1.9352-1.4195 0.5157-3.3547l-2.6364-3.5942q-1.4195-1.9352-3.3547-0.5157l-6.2431 4.5794q-1.9352 1.4195-0.5157 3.3547z" clip-path="url(#a)" fill="#fff" stroke="#fff"/>
<g clip-path="url(#a)">
<g transform="translate(647.92 351.33) rotate(53.739) scale(.08 -.08)">
<use xlink:href="#ac"/>
</g>
</g>
<path d="m623.93 167.66 5.151 3.1084q2.0548 1.24 3.2949-0.81482l4.0004-6.629q1.24-2.0548-0.81482-3.2949l-5.151-3.1084q-2.0548-1.24-3.2949 0.81482l-4.0004 6.629q-1.24 2.0548 0.81482 3.2949z" clip-path="url(#a)" fill="#fff" stroke="#fff"/>
<g clip-path="url(#a)">
<g transform="translate(626.03 164.18) rotate(31.109) scale(.08 -.08)">
<use xlink:href="#ad"/>
</g>
</g>
<path d="m269.24 357.23 2.598-5.247q1.0649-2.1508-1.0859-3.2157l-6.9385-3.4355q-2.1508-1.0649-3.2157 1.0859l-2.598 5.247q-1.0649 2.1508 1.0859 3.2157l6.9385 3.4355q2.1508 1.0649 3.2157-1.0859z" clip-path="url(#a)" fill="#fff" stroke="#fff"/>
<g clip-path="url(#a)">
<g transform="translate(265.6 355.42) rotate(-63.658) scale(.08 -.08)">
<defs>
<path id="w" d="m8.6875 72.906h9.9219v-44.297q0-11.719 4.2344-16.875 4.25-5.1406 13.781-5.1406 9.4688 0 13.719 5.1406 4.25 5.1562 4.25 16.875v44.297h9.9062v-45.516q0-14.25-7.0625-21.531-7.0469-7.2812-20.812-7.2812-13.828 0-20.891 7.2812-7.0469 7.2812-7.0469 21.531z"/>
</defs>
<use xlink:href="#w"/>
</g>
</g>
<path d="m392.77 355.4 0.62375-5.8217q0.25568-2.3863-2.1307-2.642l-7.6984-0.82483q-2.3863-0.25568-2.642 2.1307l-0.62375 5.8217q-0.25568 2.3863 2.1307 2.642l7.6984 0.82483q2.3863 0.25568 2.642-2.1307z" clip-path="url(#a)" fill="#fff" stroke="#fff"/>
<g clip-path="url(#a)">
<g transform="translate(388.73 354.97) rotate(-83.884) scale(.08 -.08)">
<use xlink:href="#w"/>
</g>
</g>
<path d="m611.64 352.69 3.1211 4.9538q1.2794 2.0306 3.3099 0.75121l6.5507-4.1273q2.0306-1.2794 0.75121-3.3099l-3.1211-4.9538q-1.2794-2.0306-3.3099-0.75121l-6.5507 4.1273q-2.0306 1.2794-0.75121 3.3099z" clip-path="url(#a)" fill="#fff" stroke="#fff"/>
<g clip-path="url(#a)">
<g transform="translate(615.07 350.52) rotate(57.787) scale(.08 -.08)">
<use xlink:href="#w"/>
</g>
</g>
<path d="m65.123 710.67v33.808q0 2.4 2.4 2.4h7.7425q2.4 0 2.4-2.4v-33.808q0-2.4-2.4-2.4h-7.7425q-2.4 0-2.4 2.4z" clip-path="url(#a)" fill="#fff" stroke="#fff"/>
<g clip-path="url(#a)">
<g transform="translate(69.186 710.67) rotate(90) scale(.08 -.08)">
<defs>
<path id="l" d="m-0.29688 72.906h61.672v-8.3125h-25.875v-64.594h-9.9062v64.594h-25.891z"/>
<path id="d" d="m56.203 29.594v-4.3906h-41.312q0.59375-9.2812 5.5938-14.141t13.938-4.8594q5.1719 0 10.031 1.2656t9.6562 3.8125v-8.5q-4.8438-2.0469-9.9219-3.125t-10.297-1.0781q-13.094 0-20.734 7.6094-7.6406 7.625-7.6406 20.625 0 13.422 7.25 21.297 7.25 7.8906 19.562 7.8906 11.031 0 17.453-7.1094 6.4219-7.0938 6.4219-19.297zm-8.9844 2.6406q-0.09375 7.3594-4.125 11.75-4.0312 4.4062-10.672 4.4062-7.5156 0-12.031-4.25t-5.2031-11.969z"/>
<path id="i" d="m41.109 46.297q-1.5156 0.875-3.2969 1.2812-1.7812 0.42188-3.9219 0.42188-7.625 0-11.703-4.9531t-4.0781-14.234v-28.812h-9.0312v54.688h9.0312v-8.5q2.8438 4.9844 7.375 7.3906 4.5469 2.4219 11.047 2.4219 0.92188 0 2.0469-0.125 1.125-0.10938 2.4844-0.35938z"/>
<path id="k" d="m52 44.188q3.375 6.0625 8.0625 8.9375t11.031 2.875q8.5469 0 13.188-5.9844 4.6406-5.9688 4.6406-17v-33.016h-9.0312v32.719q0 7.8594-2.7969 11.656-2.7812 3.8125-8.4844 3.8125-6.9844 0-11.047-4.6406-4.0469-4.625-4.0469-12.641v-30.906h-9.0312v32.719q0 7.9062-2.7812 11.688t-8.5938 3.7812q-6.8906 0-10.953-4.6562-4.0469-4.6562-4.0469-12.625v-30.906h-9.0312v54.688h9.0312v-8.5q3.0781 5.0312 7.375 7.4219t10.203 2.3906q5.9688 0 10.141-3.0312 4.1719-3.0156 6.1719-8.7812z"/>
<path id="h" d="m9.4219 54.688h8.9844v-54.688h-8.9844zm0 21.297h8.9844v-11.391h-8.9844z"/>
<path id="f" d="m54.891 33.016v-33.016h-8.9844v32.719q0 7.7656-3.0312 11.609-3.0312 3.8594-9.0781 3.8594-7.2812 0-11.484-4.6406-4.2031-4.625-4.2031-12.641v-30.906h-9.0312v54.688h9.0312v-8.5q3.2344 4.9375 7.5938 7.375 4.375 2.4375 10.094 2.4375 9.4219 0 14.25-5.8281 4.8438-5.8281 4.8438-17.156z"/>
<path id="g" d="m34.281 27.484q-10.891 0-15.094-2.4844t-4.2031-8.5q0-4.7812 3.1562-7.5938 3.1562-2.7969 8.5625-2.7969 7.4844 0 12 5.2969t4.5156 14.078v2zm17.922 3.7188v-31.203h-8.9844v8.2969q-3.0781-4.9688-7.6719-7.3438t-11.234-2.375q-8.3906 0-13.359 4.7188-4.9531 4.7188-4.9531 12.625 0 9.2188 6.1719 13.906 6.1875 4.6875 18.438 4.6875h12.609v0.89062q0 6.2031-4.0781 9.5938t-11.453 3.3906q-4.6875 0-9.1406-1.125-4.4375-1.125-8.5312-3.375v8.3125q4.9219 1.9062 9.5625 2.8438 4.6406 0.95312 9.0312 0.95312 11.875 0 17.734-6.1562 5.8594-6.1406 5.8594-18.641z"/>
<path id="j" d="m9.4219 75.984h8.9844v-75.984h-8.9844z"/>
</defs>
<use xlink:href="#l"/>
<use x="44.083984" xlink:href="#d"/>
<use x="105.607422" xlink:href="#i"/>
<use x="144.970703" xlink:href="#k"/>
<use x="242.382812" xlink:href="#h"/>
<use x="270.166016" xlink:href="#f"/>
<use x="333.544922" xlink:href="#g"/>
<use x="394.824219" xlink:href="#j"/>
</g>
</g>
<path d="m83.876 476.44 0.47123 5.4522q0.20666 2.3911 2.5977 2.1844l7.7137-0.6667q2.3911-0.20666 2.1844-2.5977l-0.47123-5.4522q-0.20666-2.3911-2.5977-2.1844l-7.7137 0.6667q-2.3911 0.20666-2.1844 2.5977z" clip-path="url(#a)" fill="#fff" stroke="#fff"/>
<g clip-path="url(#a)">
<g transform="translate(87.925 476.09) rotate(85.06) scale(.08 -.08)">
<defs>
<path id="n" d="m34.188 63.188-13.391-36.281h26.812zm-5.5781 9.7188h11.188l27.781-72.906h-10.25l-6.6406 18.703h-32.859l-6.6406-18.703h-10.406z"/>
</defs>
<use xlink:href="#n"/>
</g>
</g>
<path d="m83.904 476.76 0.41537 4.8058q0.20666 2.3911 2.5977 2.1844l7.7137-0.6667q2.3911-0.20666 2.1844-2.5977l-0.41537-4.8058q-0.20666-2.3911-2.5977-2.1844l-7.7137 0.6667q-2.3911 0.20666-2.1844 2.5977z" clip-path="url(#a)" fill="#fff" stroke="#fff"/>
<g clip-path="url(#a)">
<g transform="translate(87.953 476.41) rotate(85.06) scale(.08 -.08)">
<defs>
<path id="t" d="m19.672 64.797v-27.391h12.406q6.8906 0 10.641 3.5625 3.7656 3.5625 3.7656 10.156 0 6.5469-3.7656 10.109-3.75 3.5625-10.641 3.5625zm-9.8594 8.1094h22.266q12.266 0 18.531-5.5469 6.2812-5.5469 6.2812-16.234 0-10.797-6.2812-16.312-6.2656-5.5156-18.531-5.5156h-12.406v-29.297h-9.8594z"/>
</defs>
<use xlink:href="#t"/>
</g>
</g>
<path d="m78.67 475.89v5.4725q0 2.4 2.4 2.4h7.7425q2.4 0 2.4-2.4v-5.4725q0-2.4-2.4-2.4h-7.7425q-2.4 0-2.4 2.4z" clip-path="url(#a)" fill="#fff" stroke="#fff"/>
<g clip-path="url(#a)">
<g transform="translate(82.734 475.89) rotate(90) scale(.08 -.08)">
<use xlink:href="#n"/>
</g>
</g>
<path d="m284.04 233.88 4.946-2.3421q2.1691-1.0272 1.1419-3.1962l-3.3137-6.9976q-1.0272-2.1691-3.1962-1.1419l-4.946 2.3421q-2.1691 1.0272-1.1419 3.1962l3.3137 6.9976q1.0272 2.1691 3.1962 1.1419z" clip-path="url(#a)" fill="#fff" stroke="#fff"/>
<g clip-path="url(#a)">
<g transform="translate(282.3 230.2) rotate(-25.34) scale(.08 -.08)">
<use xlink:href="#n"/>
</g>
</g>
<path d="m411.54 418.38 0.28432-6.1534q0.11078-2.3974-2.2867-2.5082l-7.7342-0.35737q-2.3974-0.11078-2.5082 2.2867l-0.28432 6.1534q-0.11078 2.3974 2.2867 2.5082l7.7342 0.35737q2.3974 0.11078 2.5082-2.2867z" clip-path="url(#a)" fill="#fff" stroke="#fff"/>
<g clip-path="url(#a)">
<g transform="translate(407.48 418.19) rotate(-87.354) scale(.08 -.08)">
<defs>
<path id="aq" d="m19.672 64.797v-56.688h11.922q15.094 0 22.094 6.8281 7 6.8438 7 21.594 0 14.641-7 21.453t-22.094 6.8125zm-9.8594 8.1094h20.266q21.188 0 31.094-8.8125 9.9219-8.8125 9.9219-27.562 0-18.859-9.9688-27.703-9.9531-8.8281-31.047-8.8281h-20.266z"/>
</defs>
<use xlink:href="#aq"/>
</g>
</g>
<path d="m444.04 413.46 0.63911 4.7812q0.31798 2.3788 2.6968 2.0609l7.6742-1.0258q2.3788-0.31798 2.0609-2.6968l-0.63911-4.7812q-0.31798-2.3788-2.6968-2.0609l-7.6742 1.0258q-2.3788 0.31798-2.0609 2.6968z" clip-path="url(#a)" fill="#fff" stroke="#fff"/>
<g clip-path="url(#a)">
<g transform="translate(448.07 412.92) rotate(82.386) scale(.08 -.08)">
<use xlink:href="#t"/>
</g>
</g>
<path d="m521.73 292.05 3.622 4.1024q1.5885 1.7991 3.3876 0.21066l5.804-5.1244q1.7991-1.5885 0.21067-3.3876l-3.622-4.1024q-1.5885-1.7991-3.3876-0.21067l-5.804 5.1244q-1.7991 1.5885-0.21066 3.3876z" clip-path="url(#a)" fill="#fff" stroke="#fff"/>
<g clip-path="url(#a)">
<g transform="translate(524.78 289.36) rotate(48.559) scale(.08 -.08)">
<use xlink:href="#n"/>
</g>
</g>
<path d="m208.43 475.65 0.080056 5.0781q0.037831 2.3997 2.4375 2.3619l7.7415-0.12204q2.3997-0.037831 2.3619-2.4375l-0.080057-5.0781q-0.037831-2.3997-2.4375-2.3619l-7.7415 0.12204q-2.3997 0.037832-2.3619 2.4375z" clip-path="url(#a)" fill="#fff" stroke="#fff"/>
<g clip-path="url(#a)">
<g transform="translate(212.49 475.58) rotate(89.097) scale(.08 -.08)">
<defs>
<path id="ao" d="m53.516 70.516v-9.625q-5.6094 2.6875-10.594 4-4.9844 1.3281-9.625 1.3281-8.0469 0-12.422-3.125t-4.375-8.8906q0-4.8438 2.9062-7.3125 2.9062-2.4531 11.016-3.9688l5.9531-1.2188q11.031-2.1094 16.281-7.4062t5.25-14.172q0-10.609-7.1094-16.078-7.0938-5.4688-20.812-5.4688-5.1719 0-11.016 1.1719-5.8281 1.1719-12.078 3.4688v10.156q6-3.3594 11.766-5.0781 5.7656-1.7031 11.328-1.7031 8.4375 0 13.031 3.3125 4.5938 3.3281 4.5938 9.4844 0 5.3594-3.2969 8.3906t-10.812 4.5469l-6.0156 1.1719q-11.031 2.1875-15.969 6.875-4.9219 4.6875-4.9219 13.047 0 9.6719 6.8125 15.234t18.766 5.5625q5.1406 0 10.453-0.9375 5.3281-0.92188 10.891-2.7656z"/>
</defs>
<use xlink:href="#ao"/>
</g>
</g>
<path d="m235.34 353.28 2.3808 4.9275q1.0441 2.161 3.2051 1.1168l6.9714-3.3684q2.161-1.0441 1.1168-3.2051l-2.3808-4.9275q-1.0441-2.161-3.2051-1.1168l-6.9714 3.3684q-2.161 1.0441-1.1168 3.2051z" clip-path="url(#a)" fill="#fff" stroke="#fff"/>
<g clip-path="url(#a)">
<g transform="translate(239 351.52) rotate(64.211) scale(.08 -.08)">
<use xlink:href="#n"/>
</g>
</g>
<path d="m194.9 481.56 0.65826-5.4328q0.28868-2.3826-2.0939-2.6713l-7.6863-0.93131q-2.3826-0.28868-2.6713 2.0939l-0.65826 5.4328q-0.28868 2.3826 2.0939 2.6713l7.6863 0.93131q2.3826 0.28868 2.6713-2.0939z" clip-path="url(#a)" fill="#fff" stroke="#fff"/>
<g clip-path="url(#a)">
<g transform="translate(190.86 481.07) rotate(-83.091) scale(.08 -.08)">
<use xlink:href="#n"/>
</g>
</g>
<path d="m207.29 481.36 0.32914-5.8457q0.13492-2.3962-2.2613-2.5311l-7.7303-0.43524q-2.3962-0.13492-2.5311 2.2613l-0.32914 5.8457q-0.13491 2.3962 2.2613 2.5311l7.7303 0.43524q2.3962 0.13492 2.5311-2.2613z" clip-path="url(#a)" fill="#fff" stroke="#fff"/>
<g clip-path="url(#a)">
<g transform="translate(203.23 481.13) rotate(-86.777) scale(.08 -.08)">
<use xlink:href="#w"/>
</g>
</g>
<path d="m875.25 710.67v33.808q0 2.4 2.4 2.4h7.7425q2.4 0 2.4-2.4v-33.808q0-2.4-2.4-2.4h-7.7425q-2.4 0-2.4 2.4z" clip-path="url(#a)" fill="#fff" stroke="#fff"/>
<g clip-path="url(#a)">
<g transform="translate(879.31 710.67) rotate(90) scale(.08 -.08)">
<use xlink:href="#l"/>
<use x="44.083984" xlink:href="#d"/>
<use x="105.607422" xlink:href="#i"/>
<use x="144.970703" xlink:href="#k"/>
<use x="242.382812" xlink:href="#h"/>
<use x="270.166016" xlink:href="#f"/>
<use x="333.544922" xlink:href="#g"/>
<use x="394.824219" xlink:href="#j"/>
</g>
</g>
<path d="m887.42 477.54 1.3576 4.6288q0.67547 2.303 2.9785 1.6275l7.4295-2.1791q2.303-0.67547 1.6275-2.9785l-1.3576-4.6288q-0.67547-2.303-2.9785-1.6275l-7.4295 2.1791q-2.303 0.67547-1.6275 2.9785z" clip-path="url(#a)" fill="#fff" stroke="#fff"/>
<g clip-path="url(#a)">
<g transform="translate(891.32 476.39) rotate(73.653) scale(.08 -.08)">
<use xlink:href="#t"/>
</g>
</g>
<path d="m922.36 478.03 2.6687 5.5519q1.0398 2.1631 3.2028 1.1233l6.9782-3.3543q2.1631-1.0398 1.1233-3.2028l-2.6687-5.5519q-1.0398-2.1631-3.2028-1.1233l-6.9782 3.3543q-2.1631 1.0398-1.1233 3.2028z" clip-path="url(#a)" fill="#fff" stroke="#fff"/>
<g clip-path="url(#a)">
<g transform="translate(926.02 476.27) rotate(64.327) scale(.08 -.08)">
<use xlink:href="#aq"/>
</g>
</g>
<path d="m1025.3 358.12 5.1975 1.7129q2.2794 0.75121 3.0306-1.5282l2.4234-7.3535q0.75121-2.2794-1.5282-3.0306l-5.1975-1.7129q-2.2794-0.75121-3.0306 1.5282l-2.4234 7.3535q-0.75121 2.2794 1.5282 3.0306z" clip-path="url(#a)" fill="#fff" stroke="#fff"/>
<g clip-path="url(#a)">
<g transform="translate(1026.6 354.26) rotate(18.24) scale(.08 -.08)">
<use xlink:href="#n"/>
</g>
</g>
<path d="m503.28 484.89 4.7772-2.6696q2.0951-1.1708 0.9243-3.2658l-3.777-6.7588q-1.1708-2.0951-3.2658-0.92429l-4.7772 2.6696q-2.0951 1.1708-0.9243 3.2658l3.777 6.7588q1.1708 2.0951 3.2658 0.92429z" clip-path="url(#a)" fill="#fff" stroke="#fff"/>
<g clip-path="url(#a)">
<g transform="translate(501.29 481.35) rotate(-29.197) scale(.08 -.08)">
<use xlink:href="#n"/>
</g>
</g>
<path d="m942.98 710.67v33.808q0 2.4 2.4 2.4h7.7425q2.4 0 2.4-2.4v-33.808q0-2.4-2.4-2.4h-7.7425q-2.4 0-2.4 2.4z" clip-path="url(#a)" fill="#fff" stroke="#fff"/>
<g clip-path="url(#a)">
<g transform="translate(947.05 710.67) rotate(90) scale(.08 -.08)">
<use xlink:href="#l"/>
<use x="44.083984" xlink:href="#d"/>
<use x="105.607422" xlink:href="#i"/>
<use x="144.970703" xlink:href="#k"/>
<use x="242.382812" xlink:href="#h"/>
<use x="270.166016" xlink:href="#f"/>
<use x="333.544922" xlink:href="#g"/>
<use x="394.824219" xlink:href="#j"/>
</g>
</g>
<path d="m1013.4 710.67v33.808q0 2.4 2.4 2.4h7.7425q2.4 0 2.4-2.4v-33.808q0-2.4-2.4-2.4h-7.7425q-2.4 0-2.4 2.4z" clip-path="url(#a)" fill="#fff" stroke="#fff"/>
<g clip-path="url(#a)">
<g transform="translate(1017.5 710.67) rotate(90) scale(.08 -.08)">
<use xlink:href="#l"/>
<use x="44.083984" xlink:href="#d"/>
<use x="105.607422" xlink:href="#i"/>
<use x="144.970703" xlink:href="#k"/>
<use x="242.382812" xlink:href="#h"/>
<use x="270.166016" xlink:href="#f"/>
<use x="333.544922" xlink:href="#g"/>
<use x="394.824219" xlink:href="#j"/>
</g>
</g>
<path d="m1161.3 545.9 2.0949-4.0967q1.0927-2.1368-1.0441-3.2295l-6.8935-3.5251q-2.1368-1.0927-3.2295 1.0441l-2.0949 4.0967q-1.0927 2.1368 1.0441 3.2295l6.8935 3.5251q2.1368 1.0927 3.2295-1.0441z" clip-path="url(#a)" fill="#fff" stroke="#fff"/>
<g clip-path="url(#a)">
<g transform="translate(1157.7 544.05) rotate(-62.917) scale(.08 -.08)">
<defs>
<path id="ae" d="m9.8125 72.906h41.891v-8.3125h-32.031v-21.484h28.906v-8.2969h-28.906v-34.812h-9.8594z"/>
</defs>
<use xlink:href="#ae"/>
</g>
</g>
<path d="m1200.3 545.01 1.1379-5.4691q0.48888-2.3497-1.8608-2.8386l-7.5802-1.5772q-2.3497-0.48888-2.8386 1.8608l-1.1379 5.4691q-0.48888 2.3497 1.8608 2.8386l7.5802 1.5772q2.3497 0.48888 2.8386-1.8608z" clip-path="url(#a)" fill="#fff" stroke="#fff"/>
<g clip-path="url(#a)">
<g transform="translate(1196.3 544.18) rotate(-78.246) scale(.08 -.08)">
<defs>
<path id="s" d="m64.406 67.281v-10.391q-4.9844 4.6406-10.625 6.9219-5.6406 2.2969-11.984 2.2969-12.5 0-19.141-7.6406t-6.6406-22.094q0-14.406 6.6406-22.047t19.141-7.6406q6.3438 0 11.984 2.2969t10.625 6.9375v-10.312q-5.1719-3.5156-10.969-5.2812-5.7812-1.75-12.219-1.75-16.562 0-26.094 10.125-9.5156 10.141-9.5156 27.672 0 17.578 9.5156 27.703 9.5312 10.141 26.094 10.141 6.5312 0 12.312-1.7344 5.7969-1.7344 10.875-5.2031z"/>
</defs>
<use xlink:href="#s"/>
</g>
</g>
<path d="m1220.4 481.78 0.51163-5.029q0.24291-2.3877-2.1448-2.6306l-7.7027-0.78364q-2.3877-0.24291-2.6306 2.1448l-0.51163 5.029q-0.24291 2.3877 2.1448 2.6306l7.7027 0.78364q2.3877 0.24291 2.6306-2.1448z" clip-path="url(#a)" fill="#fff" stroke="#fff"/>
<g clip-path="url(#a)">
<g transform="translate(1216.3 481.36) rotate(-84.191) scale(.08 -.08)">
<defs>
<path id="ak" d="m9.8125 72.906h46.094v-8.3125h-36.234v-21.578h34.719v-8.2969h-34.719v-26.422h37.109v-8.2969h-46.969z"/>
</defs>
<use xlink:href="#ak"/>
</g>
</g>
<path d="m1311.6 482.5 4.237 2.757q2.0116 1.3089 3.3206-0.70268l4.2227-6.4896q1.3089-2.0116-0.70268-3.3206l-4.237-2.757q-2.0116-1.3089-3.3206 0.70268l-4.2227 6.4896q-1.3089 2.0116 0.70268 3.3206z" clip-path="url(#a)" fill="#fff" stroke="#fff"/>
<g clip-path="url(#a)">
<g transform="translate(1313.8 479.1) rotate(33.052) scale(.08 -.08)">
<use xlink:href="#ak"/>
</g>
</g>
<path d="m1086.6 710.67v33.808q0 2.4 2.4 2.4h7.7425q2.4 0 2.4-2.4v-33.808q0-2.4-2.4-2.4h-7.7425q-2.4 0-2.4 2.4z" clip-path="url(#a)" fill="#fff" stroke="#fff"/>
<g clip-path="url(#a)">
<g transform="translate(1090.6 710.67) rotate(90) scale(.08 -.08)">
<use xlink:href="#l"/>
<use x="44.083984" xlink:href="#d"/>
<use x="105.607422" xlink:href="#i"/>
<use x="144.970703" xlink:href="#k"/>
<use x="242.382812" xlink:href="#h"/>
<use x="270.166016" xlink:href="#f"/>
<use x="333.544922" xlink:href="#g"/>
<use x="394.824219" xlink:href="#j"/>
</g>
</g>
<path d="m1162.4 710.67v33.808q0 2.4 2.4 2.4h7.7425q2.4 0 2.4-2.4v-33.808q0-2.4-2.4-2.4h-7.7425q-2.4 0-2.4 2.4z" clip-path="url(#a)" fill="#fff" stroke="#fff"/>
<g clip-path="url(#a)">
<g transform="translate(1166.5 710.67) rotate(90) scale(.08 -.08)">
<use xlink:href="#l"/>
<use x="44.083984" xlink:href="#d"/>
<use x="105.607422" xlink:href="#i"/>
<use x="144.970703" xlink:href="#k"/>
<use x="242.382812" xlink:href="#h"/>
<use x="270.166016" xlink:href="#f"/>
<use x="333.544922" xlink:href="#g"/>
<use x="394.824219" xlink:href="#j"/>
</g>
</g>
<path d="m1193.5 608.19 1.644-5.2197q0.72097-2.2891-1.5682-3.0101l-7.3849-2.3259q-2.2891-0.72097-3.0101 1.5682l-1.644 5.2197q-0.72097 2.2891 1.5682 3.0101l7.3849 2.3259q2.2891 0.72097 3.0101-1.5682z" clip-path="url(#a)" fill="#fff" stroke="#fff"/>
<g clip-path="url(#a)">
<g transform="translate(1189.6 606.97) rotate(-72.518) scale(.08 -.08)">
<use xlink:href="#n"/>
</g>
</g>
<path d="m1220.9 603.15 1.5257 4.8442q0.72097 2.2891 3.0101 1.5682l7.3849-2.3259q2.2891-0.72097 1.5682-3.0101l-1.5257-4.8442q-0.72097-2.2891-3.0101-1.5682l-7.3849 2.3259q-2.2891 0.72097-1.5682 3.0101z" clip-path="url(#a)" fill="#fff" stroke="#fff"/>
<g clip-path="url(#a)">
<g transform="translate(1224.8 601.93) rotate(72.518) scale(.08 -.08)">
<use xlink:href="#ao"/>
</g>
</g>
<path d="m1374.6 609.52 3.1276-4.5954q1.3503-1.9841-0.63375-3.3344l-6.4007-4.3562q-1.9841-1.3503-3.3344 0.63374l-3.1276 4.5954q-1.3503 1.9841 0.63375 3.3344l6.4007 4.3562q1.9841 1.3503 3.3344-0.63375z" clip-path="url(#a)" fill="#fff" stroke="#fff"/>
<g clip-path="url(#a)">
<g transform="translate(1371.3 607.23) rotate(-55.761) scale(.08 -.08)">
<defs>
<path id="aj" d="m44.391 34.188q3.1719-1.0781 6.1719-4.5938t6.0312-9.6719l10.016-19.922h-10.609l-9.3125 18.703q-3.625 7.3281-7.0156 9.7188t-9.25 2.3906h-10.75v-30.812h-9.8594v72.906h22.266q12.5 0 18.656-5.2344 6.1562-5.2188 6.1562-15.766 0-6.8906-3.2031-11.438-3.2031-4.5312-9.2969-6.2812zm-24.719 30.609v-25.875h12.406q7.125 0 10.766 3.2969t3.6406 9.6875-3.6406 9.6406-10.766 3.25z"/>
</defs>
<use xlink:href="#aj"/>
</g>
</g>
<path d="m1419.3 606.53 0.040445-5.5861q0.017376-2.3999-2.3826-2.4173l-7.7423-0.056056q-2.3999-0.017376-2.4173 2.3826l-0.040445 5.5861q-0.017376 2.3999 2.3826 2.4173l7.7423 0.056056q2.3999 0.017376 2.4173-2.3826z" clip-path="url(#a)" fill="#fff" stroke="#fff"/>
<g clip-path="url(#a)">
<g transform="translate(1415.2 606.5) rotate(-89.585) scale(.08 -.08)">
<use xlink:href="#s"/>
</g>
</g>
<path d="m1449.5 604.83 3.3181 4.824q1.3601 1.9774 3.3375 0.61729l6.3792-4.3878q1.9774-1.3601 0.61729-3.3375l-3.3181-4.824q-1.3601-1.9774-3.3375-0.61729l-6.3792 4.3878q-1.9774 1.3601-0.61729 3.3375z" clip-path="url(#a)" fill="#fff" stroke="#fff"/>
<g clip-path="url(#a)">
<g transform="translate(1452.9 602.53) rotate(55.479) scale(.08 -.08)">
<use xlink:href="#w"/>
</g>
</g>
<path d="m1322.3 710.67v33.808q0 2.4 2.4 2.4h7.7425q2.4 0 2.4-2.4v-33.808q0-2.4-2.4-2.4h-7.7425q-2.4 0-2.4 2.4z" clip-path="url(#a)" fill="#fff" stroke="#fff"/>
<g clip-path="url(#a)">
<g transform="translate(1326.4 710.67) rotate(90) scale(.08 -.08)">
<use xlink:href="#l"/>
<use x="44.083984" xlink:href="#d"/>
<use x="105.607422" xlink:href="#i"/>
<use x="144.970703" xlink:href="#k"/>
<use x="242.382812" xlink:href="#h"/>
<use x="270.166016" xlink:href="#f"/>
<use x="333.544922" xlink:href="#g"/>
<use x="394.824219" xlink:href="#j"/>
</g>
</g>
<path d="m1406.3 710.67v33.808q0 2.4 2.4 2.4h7.7425q2.4 0 2.4-2.4v-33.808q0-2.4-2.4-2.4h-7.7425q-2.4 0-2.4 2.4z" clip-path="url(#a)" fill="#fff" stroke="#fff"/>
<g clip-path="url(#a)">
<g transform="translate(1410.4 710.67) rotate(90) scale(.08 -.08)">
<use xlink:href="#l"/>
<use x="44.083984" xlink:href="#d"/>
<use x="105.607422" xlink:href="#i"/>
<use x="144.970703" xlink:href="#k"/>
<use x="242.382812" xlink:href="#h"/>
<use x="270.166016" xlink:href="#f"/>
<use x="333.544922" xlink:href="#g"/>
<use x="394.824219" xlink:href="#j"/>
</g>
</g>
<path d="m1241 710.67v33.808q0 2.4 2.4 2.4h7.7425q2.4 0 2.4-2.4v-33.808q0-2.4-2.4-2.4h-7.7425q-2.4 0-2.4 2.4z" clip-path="url(#a)" fill="#fff" stroke="#fff"/>
<g clip-path="url(#a)">
<g transform="translate(1245.1 710.67) rotate(90) scale(.08 -.08)">
<use xlink:href="#l"/>
<use x="44.083984" xlink:href="#d"/>
<use x="105.607422" xlink:href="#i"/>
<use x="144.970703" xlink:href="#k"/>
<use x="242.382812" xlink:href="#h"/>
<use x="270.166016" xlink:href="#f"/>
<use x="333.544922" xlink:href="#g"/>
<use x="394.824219" xlink:href="#j"/>
</g>
</g>
<path d="m211.43 710.67v33.808q0 2.4 2.4 2.4h7.7425q2.4 0 2.4-2.4v-33.808q0-2.4-2.4-2.4h-7.7425q-2.4 0-2.4 2.4z" clip-path="url(#a)" fill="#fff" stroke="#fff"/>
<g clip-path="url(#a)">
<g transform="translate(215.5 710.67) rotate(90) scale(.08 -.08)">
<use xlink:href="#l"/>
<use x="44.083984" xlink:href="#d"/>
<use x="105.607422" xlink:href="#i"/>
<use x="144.970703" xlink:href="#k"/>
<use x="242.382812" xlink:href="#h"/>
<use x="270.166016" xlink:href="#f"/>
<use x="333.544922" xlink:href="#g"/>
<use x="394.824219" xlink:href="#j"/>
</g>
</g>
<path d="m266 544.39 0.55419-5.5311q0.23927-2.388-2.1488-2.6273l-7.7039-0.7719q-2.388-0.23927-2.6273 2.1488l-0.55419 5.5311q-0.23927 2.388 2.1488 2.6273l7.7039 0.7719q2.388 0.23927 2.6273-2.1488z" clip-path="url(#a)" fill="#fff" stroke="#fff"/>
<g clip-path="url(#a)">
<g transform="translate(261.96 543.98) rotate(-84.278) scale(.08 -.08)">
<use xlink:href="#aj"/>
</g>
</g>
<path d="m278.4 477.12 1.0949 5.4779q0.47038 2.3535 2.8238 1.8831l7.5923-1.5175q2.3535-0.47038 1.8831-2.8238l-1.0949-5.4779q-0.47038-2.3535-2.8238-1.8831l-7.5923 1.5175q-2.3535 0.47038-1.8831 2.8238z" clip-path="url(#a)" fill="#fff" stroke="#fff"/>
<g clip-path="url(#a)">
<g transform="translate(282.39 476.32) rotate(78.697) scale(.08 -.08)">
<use xlink:href="#s"/>
</g>
</g>
<path d="m241.24 710.67v33.808q0 2.4 2.4 2.4h7.7425q2.4 0 2.4-2.4v-33.808q0-2.4-2.4-2.4h-7.7425q-2.4 0-2.4 2.4z" clip-path="url(#a)" fill="#fff" stroke="#fff"/>
<g clip-path="url(#a)">
<g transform="translate(245.3 710.67) rotate(90) scale(.08 -.08)">
<use xlink:href="#l"/>
<use x="44.083984" xlink:href="#d"/>
<use x="105.607422" xlink:href="#i"/>
<use x="144.970703" xlink:href="#k"/>
<use x="242.382812" xlink:href="#h"/>
<use x="270.166016" xlink:href="#f"/>
<use x="333.544922" xlink:href="#g"/>
<use x="394.824219" xlink:href="#j"/>
</g>
</g>
<path d="m294.65 607.28 0.76505-5.4188q0.33552-2.3764-2.0409-2.7119l-7.6665-1.0824q-2.3764-0.33552-2.7119 2.0409l-0.76505 5.4188q-0.33552 2.3764 2.0409 2.7119l7.6665 1.0824q2.3764 0.33552 2.7119-2.0409z" clip-path="url(#a)" fill="#fff" stroke="#fff"/>
<g clip-path="url(#a)">
<g transform="translate(290.63 606.71) rotate(-81.964) scale(.08 -.08)">
<use xlink:href="#n"/>
</g>
</g>
<path d="m299.89 602.18 0.67435 4.7764q0.33552 2.3764 2.7119 2.0409l7.6665-1.0824q2.3764-0.33552 2.0409-2.7119l-0.67436-4.7764q-0.33552-2.3764-2.7119-2.0409l-7.6665 1.0824q-2.3764 0.33552-2.0409 2.7119z" clip-path="url(#a)" fill="#fff" stroke="#fff"/>
<g clip-path="url(#a)">
<g transform="translate(303.92 601.61) rotate(81.964) scale(.08 -.08)">
<use xlink:href="#t"/>
</g>
</g>
<path d="m273.75 710.67v33.808q0 2.4 2.4 2.4h7.7425q2.4 0 2.4-2.4v-33.808q0-2.4-2.4-2.4h-7.7425q-2.4 0-2.4 2.4z" clip-path="url(#a)" fill="#fff" stroke="#fff"/>
<g clip-path="url(#a)">
<g transform="translate(277.81 710.67) rotate(90) scale(.08 -.08)">
<use xlink:href="#l"/>
<use x="44.083984" xlink:href="#d"/>
<use x="105.607422" xlink:href="#i"/>
<use x="144.970703" xlink:href="#k"/>
<use x="242.382812" xlink:href="#h"/>
<use x="270.166016" xlink:href="#f"/>
<use x="333.544922" xlink:href="#g"/>
<use x="394.824219" xlink:href="#j"/>
</g>
</g>
<path d="m308.97 710.67v33.808q0 2.4 2.4 2.4h7.7425q2.4 0 2.4-2.4v-33.808q0-2.4-2.4-2.4h-7.7425q-2.4 0-2.4 2.4z" clip-path="url(#a)" fill="#fff" stroke="#fff"/>
<g clip-path="url(#a)">
<g transform="translate(313.04 710.67) rotate(90) scale(.08 -.08)">
<use xlink:href="#l"/>
<use x="44.083984" xlink:href="#d"/>
<use x="105.607422" xlink:href="#i"/>
<use x="144.970703" xlink:href="#k"/>
<use x="242.382812" xlink:href="#h"/>
<use x="270.166016" xlink:href="#f"/>
<use x="333.544922" xlink:href="#g"/>
<use x="394.824219" xlink:href="#j"/>
</g>
</g>
<path d="m148.77 356.3 0.62117-5.0167q0.29492-2.3818-2.0869-2.6767l-7.6838-0.95142q-2.3818-0.29492-2.6767 2.0869l-0.62117 5.0167q-0.29492 2.3818 2.0869 2.6767l7.6838 0.95142q2.3818 0.29492 2.6767-2.0869z" clip-path="url(#a)" fill="#fff" stroke="#fff"/>
<g clip-path="url(#a)">
<g transform="translate(144.74 355.8) rotate(-82.941) scale(.08 -.08)">
<use xlink:href="#ak"/>
</g>
</g>
<path d="m152.05 475.55 0.23129 5.5815q0.09937 2.3979 2.4973 2.2986l7.7359-0.32057q2.3979-0.099369 2.2986-2.4973l-0.23129-5.5815q-0.099369-2.3979-2.4973-2.2986l-7.7359 0.32057q-2.3979 0.099369-2.2986 2.4973z" clip-path="url(#a)" fill="#fff" stroke="#fff"/>
<g clip-path="url(#a)">
<g transform="translate(156.11 475.39) rotate(87.627) scale(.08 -.08)">
<use xlink:href="#s"/>
</g>
</g>
<path d="m387.55 710.67v33.808q0 2.4 2.4 2.4h7.7425q2.4 0 2.4-2.4v-33.808q0-2.4-2.4-2.4h-7.7425q-2.4 0-2.4 2.4z" clip-path="url(#a)" fill="#fff" stroke="#fff"/>
<g clip-path="url(#a)">
<g transform="translate(391.61 710.67) rotate(90) scale(.08 -.08)">
<use xlink:href="#l"/>
<use x="44.083984" xlink:href="#d"/>
<use x="105.607422" xlink:href="#i"/>
<use x="144.970703" xlink:href="#k"/>
<use x="242.382812" xlink:href="#h"/>
<use x="270.166016" xlink:href="#f"/>
<use x="333.544922" xlink:href="#g"/>
<use x="394.824219" xlink:href="#j"/>
</g>
</g>
<path d="m460.48 745.61 12.057-31.585q0.85591-2.2422-1.3863-3.0981l-7.2334-2.7612q-2.2422-0.85591-3.0981 1.3863l-12.057 31.585q-0.85591 2.2422 1.3863 3.0981l7.2334 2.7612q2.2422 0.85591 3.0981-1.3863z" clip-path="url(#a)" fill="#fff" stroke="#fff"/>
<g clip-path="url(#a)">
<g transform="translate(456.69 744.16) rotate(-69.107) scale(.08 -.08)">
<use xlink:href="#l"/>
<use x="44.083984" xlink:href="#d"/>
<use x="105.607422" xlink:href="#i"/>
<use x="144.970703" xlink:href="#k"/>
<use x="242.382812" xlink:href="#h"/>
<use x="270.166016" xlink:href="#f"/>
<use x="333.544922" xlink:href="#g"/>
<use x="394.824219" xlink:href="#j"/>
</g>
</g>
<path d="m489.83 744.53 0.24817-33.807q0.017618-2.3999-2.3823-2.4176l-7.7423-0.056836q-2.3999-0.017618-2.4176 2.3823l-0.24817 33.807q-0.017618 2.3999 2.3823 2.4176l7.7423 0.056836q2.3999 0.017618 2.4176-2.3823z" clip-path="url(#a)" fill="#fff" stroke="#fff"/>
<g clip-path="url(#a)">
<g transform="translate(485.76 744.5) rotate(-89.579) scale(.08 -.08)">
<use xlink:href="#l"/>
<use x="44.083984" xlink:href="#d"/>
<use x="105.607422" xlink:href="#i"/>
<use x="144.970703" xlink:href="#k"/>
<use x="242.382812" xlink:href="#h"/>
<use x="270.166016" xlink:href="#f"/>
<use x="333.544922" xlink:href="#g"/>
<use x="394.824219" xlink:href="#j"/>
</g>
</g>
<path d="m496.09 714.1 12.258 31.507q0.87023 2.2367 3.1069 1.3664l7.2156-2.8074q2.2367-0.87023 1.3664-3.1069l-12.258-31.507q-0.87023-2.2367-3.1069-1.3664l-7.2156 2.8074q-2.2367 0.87023-1.3664 3.1069z" clip-path="url(#a)" fill="#fff" stroke="#fff"/>
<g clip-path="url(#a)">
<g transform="translate(499.88 712.62) rotate(68.74) scale(.08 -.08)">
<use xlink:href="#l"/>
<use x="44.083984" xlink:href="#d"/>
<use x="105.607422" xlink:href="#i"/>
<use x="144.970703" xlink:href="#k"/>
<use x="242.382812" xlink:href="#h"/>
<use x="270.166016" xlink:href="#f"/>
<use x="333.544922" xlink:href="#g"/>
<use x="394.824219" xlink:href="#j"/>
</g>
</g>
<path d="m616.99 545.08 1.2143-5.4245q0.52429-2.342-1.8177-2.8663l-7.5555-1.6914q-2.342-0.52429-2.8663 1.8177l-1.2143 5.4245q-0.52429 2.342 1.8177 2.8663l7.5555 1.6914q2.342 0.52429 2.8663-1.8177z" clip-path="url(#a)" fill="#fff" stroke="#fff"/>
<g clip-path="url(#a)">
<g transform="translate(613.02 544.19) rotate(-77.382) scale(.08 -.08)">
<use xlink:href="#aj"/>
</g>
</g>
<path d="m660.61 478.63 2.2778 5.1008q0.97859 2.1914 3.17 1.2128l7.0696-3.157q2.1914-0.97859 1.2128-3.17l-2.2778-5.1008q-0.97859-2.1914-3.17-1.2128l-7.0696 3.157q-2.1914 0.97859-1.2128 3.17z" clip-path="url(#a)" fill="#fff" stroke="#fff"/>
<g clip-path="url(#a)">
<g transform="translate(664.32 476.98) rotate(65.937) scale(.08 -.08)">
<use xlink:href="#s"/>
</g>
</g>
<path d="m577.21 710.67v33.808q0 2.4 2.4 2.4h7.7425q2.4 0 2.4-2.4v-33.808q0-2.4-2.4-2.4h-7.7425q-2.4 0-2.4 2.4z" clip-path="url(#a)" fill="#fff" stroke="#fff"/>
<g clip-path="url(#a)">
<g transform="translate(581.27 710.67) rotate(90) scale(.08 -.08)">
<use xlink:href="#l"/>
<use x="44.083984" xlink:href="#d"/>
<use x="105.607422" xlink:href="#i"/>
<use x="144.970703" xlink:href="#k"/>
<use x="242.382812" xlink:href="#h"/>
<use x="270.166016" xlink:href="#f"/>
<use x="333.544922" xlink:href="#g"/>
<use x="394.824219" xlink:href="#j"/>
</g>
</g>
<path d="m668.84 683.09 7.6807-32.923q0.54525-2.3372-1.792-2.8825l-7.54-1.759q-2.3372-0.54525-2.8825 1.792l-7.6807 32.923q-0.54525 2.3372 1.792 2.8825l7.54 1.759q2.3372 0.54525 2.8825-1.792z" clip-path="url(#a)" fill="#fff" stroke="#fff"/>
<g clip-path="url(#a)">
<g transform="translate(664.88 682.17) rotate(-76.868) scale(.08 -.08)">
<use xlink:href="#l"/>
<use x="44.083984" xlink:href="#d"/>
<use x="105.607422" xlink:href="#i"/>
<use x="144.970703" xlink:href="#k"/>
<use x="242.382812" xlink:href="#h"/>
<use x="270.166016" xlink:href="#f"/>
<use x="333.544922" xlink:href="#g"/>
<use x="394.824219" xlink:href="#j"/>
</g>
</g>
<path d="m714.82 650.2 7.7944 32.897q0.55332 2.3353 2.8887 1.782l7.5339-1.785q2.3353-0.55332 1.782-2.8887l-7.7944-32.897q-0.55332-2.3353-2.8887-1.782l-7.5339 1.785q-2.3353 0.55332-1.782 2.8887z" clip-path="url(#a)" fill="#fff" stroke="#fff"/>
<g clip-path="url(#a)">
<g transform="translate(718.78 649.27) rotate(76.67) scale(.08 -.08)">
<use xlink:href="#l"/>
<use x="44.083984" xlink:href="#d"/>
<use x="105.607422" xlink:href="#i"/>
<use x="144.970703" xlink:href="#k"/>
<use x="242.382812" xlink:href="#h"/>
<use x="270.166016" xlink:href="#f"/>
<use x="333.544922" xlink:href="#g"/>
<use x="394.824219" xlink:href="#j"/>
</g>
</g>
<path d="m701.27 606.67 0.04239-5.8548q0.017377-2.3999-2.3826-2.4173l-7.7423-0.056057q-2.3999-0.017376-2.4173 2.3826l-0.04239 5.8548q-0.017377 2.3999 2.3826 2.4173l7.7423 0.056056q2.3999 0.017376 2.4173-2.3826z" clip-path="url(#a)" fill="#fff" stroke="#fff"/>
<g clip-path="url(#a)">
<g transform="translate(697.2 606.64) rotate(-89.585) scale(.08 -.08)">
<use xlink:href="#w"/>
</g>
</g>
<path d="m128.67 472.13v12.991q0 2.4 2.4 2.4h8q2.4 0 2.4-2.4v-12.991q0-2.4-2.4-2.4h-8q-2.4 0-2.4 2.4z" clip-path="url(#a)" fill="#fff" stroke="#fff"/>
<g clip-path="url(#a)">
<g transform="translate(132.95 472.13) rotate(90) scale(.08 -.08)">
<defs>
<path id="ay" d="m21 76.422v-100h-8.2969v100z"/>
</defs>
<use xlink:href="#n"/>
<use x="68.408203" xlink:href="#ay"/>
<use x="102.099609" xlink:href="#t"/>
</g>
</g>
<path d="m159.95 710.67v33.808q0 2.4 2.4 2.4h7.7425q2.4 0 2.4-2.4v-33.808q0-2.4-2.4-2.4h-7.7425q-2.4 0-2.4 2.4z" clip-path="url(#a)" fill="#fff" stroke="#fff"/>
<g clip-path="url(#a)">
<g transform="translate(164.02 710.67) rotate(90) scale(.08 -.08)">
<use xlink:href="#l"/>
<use x="44.083984" xlink:href="#d"/>
<use x="105.607422" xlink:href="#i"/>
<use x="144.970703" xlink:href="#k"/>
<use x="242.382812" xlink:href="#h"/>
<use x="270.166016" xlink:href="#f"/>
<use x="333.544922" xlink:href="#g"/>
<use x="394.824219" xlink:href="#j"/>
</g>
</g>
<path d="m136.4 606.46 0.34879-4.588q0.18193-2.3931-2.2112-2.575l-7.7202-0.58691q-2.3931-0.18193-2.575 2.2112l-0.34879 4.588q-0.18193 2.3931 2.2112 2.575l7.7202 0.58691q2.3931 0.18193 2.575-2.2112z" clip-path="url(#a)" fill="#fff" stroke="#fff"/>
<g clip-path="url(#a)">
<g transform="translate(132.35 606.15) rotate(-85.653) scale(.08 -.08)">
<use xlink:href="#ae"/>
</g>
</g>
<path d="m133.34 601.38 0.42346 5.5702q0.18193 2.3931 2.575 2.2112l7.7202-0.58691q2.3931-0.18193 2.2112-2.575l-0.42346-5.5702q-0.18193-2.3931-2.575-2.2112l-7.7202 0.58691q-2.3931 0.18193-2.2112 2.575z" clip-path="url(#a)" fill="#fff" stroke="#fff"/>
<g clip-path="url(#a)">
<g transform="translate(137.39 601.07) rotate(85.653) scale(.08 -.08)">
<use xlink:href="#s"/>
</g>
</g>
<path d="m119.31 710.67v33.808q0 2.4 2.4 2.4h7.7425q2.4 0 2.4-2.4v-33.808q0-2.4-2.4-2.4h-7.7425q-2.4 0-2.4 2.4z" clip-path="url(#a)" fill="#fff" stroke="#fff"/>
<g clip-path="url(#a)">
<g transform="translate(123.38 710.67) rotate(90) scale(.08 -.08)">
<use xlink:href="#l"/>
<use x="44.083984" xlink:href="#d"/>
<use x="105.607422" xlink:href="#i"/>
<use x="144.970703" xlink:href="#k"/>
<use x="242.382812" xlink:href="#h"/>
<use x="270.166016" xlink:href="#f"/>
<use x="333.544922" xlink:href="#g"/>
<use x="394.824219" xlink:href="#j"/>
</g>
</g>
<path d="m138.28 710.67v33.808q0 2.4 2.4 2.4h7.7425q2.4 0 2.4-2.4v-33.808q0-2.4-2.4-2.4h-7.7425q-2.4 0-2.4 2.4z" clip-path="url(#a)" fill="#fff" stroke="#fff"/>
<g clip-path="url(#a)">
<g transform="translate(142.34 710.67) rotate(90) scale(.08 -.08)">
<use xlink:href="#l"/>
<use x="44.083984" xlink:href="#d"/>
<use x="105.607422" xlink:href="#i"/>
<use x="144.970703" xlink:href="#k"/>
<use x="242.382812" xlink:href="#h"/>
<use x="270.166016" xlink:href="#f"/>
<use x="333.544922" xlink:href="#g"/>
<use x="394.824219" xlink:href="#j"/>
</g>
</g>
<path d="m88.397 606.26 0.1997-4.5969q0.10416-2.3977-2.2936-2.5019l-7.7352-0.33603q-2.3977-0.10416-2.5019 2.2936l-0.1997 4.5969q-0.10416 2.3977 2.2936 2.5019l7.7352 0.33603q2.3977 0.10416 2.5019-2.2936z" clip-path="url(#a)" fill="#fff" stroke="#fff"/>
<g clip-path="url(#a)">
<g transform="translate(84.337 606.09) rotate(-87.513) scale(.08 -.08)">
<use xlink:href="#ae"/>
</g>
</g>
<path d="m81.264 601.17 0.24245 5.581q0.10416 2.3977 2.5019 2.2936l7.7352-0.33603q2.3977-0.10416 2.2936-2.5019l-0.24245-5.581q-0.10416-2.3977-2.5019-2.2936l-7.7352 0.33603q-2.3977 0.10416-2.2936 2.5019z" clip-path="url(#a)" fill="#fff" stroke="#fff"/>
<g clip-path="url(#a)">
<g transform="translate(85.324 601) rotate(87.513) scale(.08 -.08)">
<use xlink:href="#s"/>
</g>
</g>
<path d="m73.251 710.67v33.808q0 2.4 2.4 2.4h7.7425q2.4 0 2.4-2.4v-33.808q0-2.4-2.4-2.4h-7.7425q-2.4 0-2.4 2.4z" clip-path="url(#a)" fill="#fff" stroke="#fff"/>
<g clip-path="url(#a)">
<g transform="translate(77.315 710.67) rotate(90) scale(.08 -.08)">
<use xlink:href="#l"/>
<use x="44.083984" xlink:href="#d"/>
<use x="105.607422" xlink:href="#i"/>
<use x="144.970703" xlink:href="#k"/>
<use x="242.382812" xlink:href="#h"/>
<use x="270.166016" xlink:href="#f"/>
<use x="333.544922" xlink:href="#g"/>
<use x="394.824219" xlink:href="#j"/>
</g>
</g>
<path d="m84.089 710.67v33.808q0 2.4 2.4 2.4h7.7425q2.4 0 2.4-2.4v-33.808q0-2.4-2.4-2.4h-7.7425q-2.4 0-2.4 2.4z" clip-path="url(#a)" fill="#fff" stroke="#fff"/>
<g clip-path="url(#a)">
<g transform="translate(88.153 710.67) rotate(90) scale(.08 -.08)">
<use xlink:href="#l"/>
<use x="44.083984" xlink:href="#d"/>
<use x="105.607422" xlink:href="#i"/>
<use x="144.970703" xlink:href="#k"/>
<use x="242.382812" xlink:href="#h"/>
<use x="270.166016" xlink:href="#f"/>
<use x="333.544922" xlink:href="#g"/>
<use x="394.824219" xlink:href="#j"/>
</g>
</g>
<path d="m103.05 710.67v33.808q0 2.4 2.4 2.4h7.7425q2.4 0 2.4-2.4v-33.808q0-2.4-2.4-2.4h-7.7425q-2.4 0-2.4 2.4z" clip-path="url(#a)" fill="#fff" stroke="#fff"/>
<g clip-path="url(#a)">
<g transform="translate(107.12 710.67) rotate(90) scale(.08 -.08)">
<use xlink:href="#l"/>
<use x="44.083984" xlink:href="#d"/>
<use x="105.607422" xlink:href="#i"/>
<use x="144.970703" xlink:href="#k"/>
<use x="242.382812" xlink:href="#h"/>
<use x="270.166016" xlink:href="#f"/>
<use x="333.544922" xlink:href="#g"/>
<use x="394.824219" xlink:href="#j"/>
</g>
</g>
<path d="m184.34 710.67v33.808q0 2.4 2.4 2.4h7.7425q2.4 0 2.4-2.4v-33.808q0-2.4-2.4-2.4h-7.7425q-2.4 0-2.4 2.4z" clip-path="url(#a)" fill="#fff" stroke="#fff"/>
<g clip-path="url(#a)">
<g transform="translate(188.4 710.67) rotate(90) scale(.08 -.08)">
<use xlink:href="#l"/>
<use x="44.083984" xlink:href="#d"/>
<use x="105.607422" xlink:href="#i"/>
<use x="144.970703" xlink:href="#k"/>
<use x="242.382812" xlink:href="#h"/>
<use x="270.166016" xlink:href="#f"/>
<use x="333.544922" xlink:href="#g"/>
<use x="394.824219" xlink:href="#j"/>
</g>
</g>
<path d="m346.91 710.67v33.808q0 2.4 2.4 2.4h7.7425q2.4 0 2.4-2.4v-33.808q0-2.4-2.4-2.4h-7.7425q-2.4 0-2.4 2.4z" clip-path="url(#a)" fill="#fff" stroke="#fff"/>
<g clip-path="url(#a)">
<g transform="translate(350.97 710.67) rotate(90) scale(.08 -.08)">
<use xlink:href="#l"/>
<use x="44.083984" xlink:href="#d"/>
<use x="105.607422" xlink:href="#i"/>
<use x="144.970703" xlink:href="#k"/>
<use x="242.382812" xlink:href="#h"/>
<use x="270.166016" xlink:href="#f"/>
<use x="333.544922" xlink:href="#g"/>
<use x="394.824219" xlink:href="#j"/>
</g>
</g>
<path d="m688.3 710.67v33.808q0 2.4 2.4 2.4h7.7425q2.4 0 2.4-2.4v-33.808q0-2.4-2.4-2.4h-7.7425q-2.4 0-2.4 2.4z" clip-path="url(#a)" fill="#fff" stroke="#fff"/>
<g clip-path="url(#a)">
<g transform="translate(692.36 710.67) rotate(90) scale(.08 -.08)">
<use xlink:href="#l"/>
<use x="44.083984" xlink:href="#d"/>
<use x="105.607422" xlink:href="#i"/>
<use x="144.970703" xlink:href="#k"/>
<use x="242.382812" xlink:href="#h"/>
<use x="270.166016" xlink:href="#f"/>
<use x="333.544922" xlink:href="#g"/>
<use x="394.824219" xlink:href="#j"/>
</g>
</g>
<path d="m810.22 710.67v33.808q0 2.4 2.4 2.4h7.7425q2.4 0 2.4-2.4v-33.808q0-2.4-2.4-2.4h-7.7425q-2.4 0-2.4 2.4z" clip-path="url(#a)" fill="#fff" stroke="#fff"/>
<g clip-path="url(#a)">
<g transform="translate(814.28 710.67) rotate(90) scale(.08 -.08)">
<use xlink:href="#l"/>
<use x="44.083984" xlink:href="#d"/>
<use x="105.607422" xlink:href="#i"/>
<use x="144.970703" xlink:href="#k"/>
<use x="242.382812" xlink:href="#h"/>
<use x="270.166016" xlink:href="#f"/>
<use x="333.544922" xlink:href="#g"/>
<use x="394.824219" xlink:href="#j"/>
</g>
</g>
<path d="m1493 710.67v33.808q0 2.4 2.4 2.4h7.7425q2.4 0 2.4-2.4v-33.808q0-2.4-2.4-2.4h-7.7425q-2.4 0-2.4 2.4z" clip-path="url(#a)" fill="#fff" stroke="#fff"/>
<g clip-path="url(#a)">
<g transform="translate(1497.1 710.67) rotate(90) scale(.08 -.08)">
<use xlink:href="#l"/>
<use x="44.083984" xlink:href="#d"/>
<use x="105.607422" xlink:href="#i"/>
<use x="144.970703" xlink:href="#k"/>
<use x="242.382812" xlink:href="#h"/>
<use x="270.166016" xlink:href="#f"/>
<use x="333.544922" xlink:href="#g"/>
<use x="394.824219" xlink:href="#j"/>
</g>
</g>
<defs>
<path id="b" d="m0 8.6603c2.2967 0 4.4997-0.9125 6.1237-2.5365 1.624-1.624 2.5365-3.827 2.5365-6.1237s-0.9125-4.4997-2.5365-6.1237c-1.624-1.624-3.827-2.5365-6.1237-2.5365s-4.4997 0.9125-6.1237 2.5365c-1.624 1.624-2.5365 3.827-2.5365 6.1237s0.9125 4.4997 2.5365 6.1237c1.624 1.624 3.827 2.5365 6.1237 2.5365z"/>
</defs>
<g clip-path="url(#a)" fill="#ffffff" stroke="#ffffff">
<use x="71.393939" y="789.090909" xlink:href="#b"/>
<use x="79.522282" y="789.090909" xlink:href="#b"/>
<use x="90.360071" y="789.090909" xlink:href="#b"/>
<use x="109.326203" y="789.090909" xlink:href="#b"/>
<use x="125.582888" y="789.090909" xlink:href="#b"/>
<use x="144.54902" y="789.090909" xlink:href="#b"/>
<use x="166.224599" y="789.090909" xlink:href="#b"/>
<use x="190.609626" y="789.090909" xlink:href="#b"/>
<use x="217.7041" y="789.090909" xlink:href="#b"/>
<use x="247.508021" y="789.090909" xlink:href="#b"/>
<use x="280.02139" y="789.090909" xlink:href="#b"/>
<use x="315.244207" y="789.090909" xlink:href="#b"/>
<use x="353.176471" y="789.090909" xlink:href="#b"/>
<use x="393.818182" y="789.090909" xlink:href="#b"/>
<use x="437.16934" y="789.090909" xlink:href="#b"/>
<use x="483.229947" y="789.090909" xlink:href="#b"/>
<use x="532" y="789.090909" xlink:href="#b"/>
<use x="583.479501" y="789.090909" xlink:href="#b"/>
<use x="637.668449" y="789.090909" xlink:href="#b"/>
<use x="694.566845" y="789.090909" xlink:href="#b"/>
<use x="754.174688" y="789.090909" xlink:href="#b"/>
<use x="816.491979" y="789.090909" xlink:href="#b"/>
<use x="881.518717" y="789.090909" xlink:href="#b"/>
<use x="949.254902" y="789.090909" xlink:href="#b"/>
<use x="1019.700535" y="789.090909" xlink:href="#b"/>
<use x="1092.855615" y="789.090909" xlink:href="#b"/>
<use x="1168.720143" y="789.090909" xlink:href="#b"/>
<use x="1247.294118" y="789.090909" xlink:href="#b"/>
<use x="1328.57754" y="789.090909" xlink:href="#b"/>
<use x="1412.57041" y="789.090909" xlink:href="#b"/>
<use x="1499.272727" y="789.090909" xlink:href="#b"/>
<use x="95.778966" y="541.322876" xlink:href="#b"/>
<use x="95.778966" y="541.322876" xlink:href="#b"/>
<use x="420.514392" y="37.575758" xlink:href="#b"/>
<use x="71.393939" y="666.062622" xlink:href="#b"/>
<use x="84.941176" y="415.928881" xlink:href="#b"/>
<use x="417.017825" y="163.969054" xlink:href="#b"/>
<use x="211.777184" y="290.108116" xlink:href="#b"/>
<use x="881.518717" y="666.062622" xlink:href="#b"/>
<use x="838.986037" y="290.108116" xlink:href="#b"/>
<use x="949.254902" y="666.062622" xlink:href="#b"/>
<use x="1019.700535" y="666.062622" xlink:href="#b"/>
<use x="1220.764112" y="415.928881" xlink:href="#b"/>
<use x="1092.855615" y="666.062622" xlink:href="#b"/>
<use x="1168.720143" y="666.062622" xlink:href="#b"/>
<use x="1208.00713" y="541.322876" xlink:href="#b"/>
<use x="1413.473559" y="541.322876" xlink:href="#b"/>
<use x="1328.57754" y="666.062622" xlink:href="#b"/>
<use x="1412.57041" y="666.062622" xlink:href="#b"/>
<use x="1247.294118" y="666.062622" xlink:href="#b"/>
<use x="217.7041" y="666.062622" xlink:href="#b"/>
<use x="272.57041" y="415.928881" xlink:href="#b"/>
<use x="247.508021" y="666.062622" xlink:href="#b"/>
<use x="297.632799" y="541.322876" xlink:href="#b"/>
<use x="280.02139" y="666.062622" xlink:href="#b"/>
<use x="315.244207" y="666.062622" xlink:href="#b"/>
<use x="150.645276" y="290.108116" xlink:href="#b"/>
<use x="393.818182" y="666.062622" xlink:href="#b"/>
<use x="484.133096" y="666.062622" xlink:href="#b"/>
<use x="639.474747" y="415.928881" xlink:href="#b"/>
<use x="583.479501" y="666.062622" xlink:href="#b"/>
<use x="695.469994" y="541.322876" xlink:href="#b"/>
<use x="135.065954" y="415.928881" xlink:href="#b"/>
<use x="166.224599" y="666.062622" xlink:href="#b"/>
<use x="135.065954" y="541.322876" xlink:href="#b"/>
<use x="125.582888" y="666.062622" xlink:href="#b"/>
<use x="144.54902" y="666.062622" xlink:href="#b"/>
<use x="84.941176" y="541.322876" xlink:href="#b"/>
<use x="79.522282" y="666.062622" xlink:href="#b"/>
<use x="90.360071" y="666.062622" xlink:href="#b"/>
<use x="109.326203" y="666.062622" xlink:href="#b"/>
<use x="190.609626" y="666.062622" xlink:href="#b"/>
<use x="353.176471" y="666.062622" xlink:href="#b"/>
<use x="694.566845" y="666.062622" xlink:href="#b"/>
<use x="816.491979" y="666.062622" xlink:href="#b"/>
<use x="1499.272727" y="666.062622" xlink:href="#b"/>
</g>
<g clip-path="url(#a)">
<g transform="translate(57.175 792.05) scale(.1 -.1)">
<defs>
<path id="ai" d="m18.109 8.2031v-29h-9.0312v75.484h9.0312v-8.2969q2.8438 4.875 7.1562 7.2344 4.3281 2.375 10.328 2.375 9.9688 0 16.188-7.9062 6.2344-7.9062 6.2344-20.797t-6.2344-20.812q-6.2188-7.9062-16.188-7.9062-6 0-10.328 2.375-4.3125 2.375-7.1562 7.25zm30.578 19.094q0 9.9062-4.0781 15.547t-11.203 5.6406q-7.1406 0-11.219-5.6406t-4.0781-15.547 4.0781-15.547 11.219-5.6406q7.125 0 11.203 5.6406t4.0781 15.547z"/>
<path id="as" d="m56.203 29.594v-4.3906h-41.312q0.59375-9.2812 5.5938-14.141t13.938-4.8594q5.1719 0 10.031 1.2656t9.6562 3.8125v-8.5q-4.8438-2.0469-9.9219-3.125t-10.297-1.0781q-13.094 0-20.734 7.6094-7.6406 7.625-7.6406 20.625 0 13.422 7.25 21.297 7.25 7.8906 19.562 7.8906 11.031 0 17.453-7.1094 6.4219-7.0938 6.4219-19.297zm-8.9844 2.6406q-0.09375 7.3594-4.125 11.75-4.0312 4.4062-10.672 4.4062-7.5156 0-12.031-4.25t-5.2031-11.969zm-22.547 47.75 13.766-18.266h-7.4688l-15.922 18.266z"/>
<path id="r" d="m44.281 53.078v-8.5q-3.7969 1.9531-7.9062 2.9219-4.0938 0.98438-8.5 0.98438-6.6875 0-10.031-2.0469t-3.3438-6.1562q0-3.125 2.3906-4.9062t9.625-3.3906l3.0781-0.6875q9.5625-2.0469 13.594-5.7812t4.0312-10.422q0-7.625-6.0312-12.078-6.0312-4.4375-16.578-4.4375-4.3906 0-9.1562 0.85938t-10.031 2.5625v9.2812q4.9844-2.5938 9.8125-3.8906 4.8281-1.2812 9.5781-1.2812 6.3438 0 9.75 2.1719 3.4219 2.1719 3.4219 6.125 0 3.6562-2.4688 5.6094-2.4531 1.9531-10.812 3.7656l-3.125 0.73438q-8.3438 1.75-12.062 5.3906-3.7031 3.6406-3.7031 9.9844 0 7.7188 5.4688 11.906 5.4688 4.2031 15.531 4.2031 4.9688 0 9.3594-0.73438 4.4062-0.71875 8.1094-2.1875z"/>
</defs>
<use xlink:href="#n"/>
<use x="68.408203" xlink:href="#ai"/>
<use x="131.884766" xlink:href="#i"/>
<use x="170.748047" xlink:href="#as"/>
<use x="232.271484" xlink:href="#r"/>
</g>
</g>
<g clip-path="url(#a)">
<g transform="translate(75.057 791.85) scale(.1 -.1)">
<use xlink:href="#j"/>
<use x="27.783203" xlink:href="#d"/>
</g>
</g>
<g clip-path="url(#a)">
<g transform="translate(77.609 791.85) scale(.1 -.1)">
<defs>
<path id="u" d="m30.609 48.391q-7.2188 0-11.422-5.6406t-4.2031-15.453 4.1719-15.453q4.1875-5.6406 11.453-5.6406 7.1875 0 11.375 5.6562 4.2031 5.6719 4.2031 15.438 0 9.7188-4.2031 15.406-4.1875 5.6875-11.375 5.6875zm0 7.6094q11.719 0 18.406-7.625 6.7031-7.6094 6.7031-21.078 0-13.422-6.7031-21.078-6.6875-7.6406-18.406-7.6406-11.766 0-18.438 7.6406-6.6562 7.6562-6.6562 21.078 0 13.469 6.6562 21.078 6.6719 7.625 18.438 7.625z"/>
<path id="q" d="m18.312 70.219v-15.531h18.5v-6.9844h-18.5v-29.688q0-6.6875 1.8281-8.5938t7.4531-1.9062h9.2188v-7.5156h-9.2188q-10.406 0-14.359 3.875-3.9531 3.8906-3.9531 14.141v29.688h-6.5938v6.9844h6.5938v15.531z"/>
</defs>
<use xlink:href="#ai"/>
<use x="63.476562" xlink:href="#u"/>
<use x="124.658203" xlink:href="#h"/>
<use x="152.441406" xlink:href="#f"/>
<use x="215.820312" xlink:href="#q"/>
</g>
</g>
<g clip-path="url(#a)">
<g transform="translate(107.74 791.85) scale(.1 -.1)">
<defs>
<path id="ah" d="m11.719 12.406h10.297v-8.4062l-8-15.625h-6.2969l4 15.625z"/>
</defs>
<use xlink:href="#ah"/>
</g>
</g>
<g clip-path="url(#a)">
<g transform="translate(121.12 791.85) scale(.1 -.1)">
<use xlink:href="#j"/>
<use x="27.783203" xlink:href="#d"/>
</g>
</g>
<g clip-path="url(#a)">
<g transform="translate(111.4 791.85) scale(.1 -.1)">
<defs>
<path id="an" d="m48.781 52.594v-8.4062q-3.8125 2.1094-7.6406 3.1562t-7.7344 1.0469q-8.75 0-13.594-5.5469-4.8281-5.5312-4.8281-15.547t4.8281-15.562q4.8438-5.5312 13.594-5.5312 3.9062 0 7.7344 1.0469t7.6406 3.1562v-8.3125q-3.7656-1.75-7.7969-2.625-4.0156-0.89062-8.5625-0.89062-12.359 0-19.641 7.7656-7.2656 7.7656-7.2656 20.953 0 13.375 7.3438 21.031 7.3594 7.6719 20.156 7.6719 4.1406 0 8.0938-0.85938 3.9531-0.84375 7.6719-2.5469z"/>
<path id="v" d="m45.406 46.391v29.594h8.9844v-75.984h-8.9844v8.2031q-2.8281-4.875-7.1562-7.25-4.3125-2.375-10.375-2.375-9.9062 0-16.141 7.9062-6.2188 7.9219-6.2188 20.812t6.2188 20.797q6.2344 7.9062 16.141 7.9062 6.0625 0 10.375-2.375 4.3281-2.3594 7.1562-7.2344zm-30.609-19.094q0-9.9062 4.0781-15.547t11.203-5.6406 11.219 5.6406q4.1094 5.6406 4.1094 15.547t-4.1094 15.547q-4.0938 5.6406-11.219 5.6406t-11.203-5.6406-4.0781-15.547z"/>
</defs>
<use xlink:href="#an"/>
<use x="54.980469" xlink:href="#u"/>
<use x="116.162109" xlink:href="#k"/>
<use x="213.574219" xlink:href="#k"/>
<use x="310.986328" xlink:href="#g"/>
<use x="372.265625" xlink:href="#f"/>
<use x="435.644531" xlink:href="#v"/>
<use x="499.121094" xlink:href="#g"/>
<use x="560.400391" xlink:href="#f"/>
<use x="623.779297" xlink:href="#q"/>
</g>
</g>
<g clip-path="url(#a)">
<g transform="translate(145.35 791.85) scale(.1 -.1)">
<defs>
<path id="au" d="m45.406 27.984q0 9.7656-4.0312 15.125-4.0156 5.375-11.297 5.375-7.2188 0-11.25-5.375-4.0312-5.3594-4.0312-15.125 0-9.7188 4.0312-15.094t11.25-5.375q7.2812 0 11.297 5.375 4.0312 5.375 4.0312 15.094zm8.9844-21.203q0-13.953-6.2031-20.766-6.1875-6.8125-18.984-6.8125-4.7344 0-8.9375 0.70312t-8.1562 2.1719v8.7344q3.9531-2.1406 7.8125-3.1562 3.8594-1.0312 7.8594-1.0312 8.8438 0 13.234 4.6094t4.3906 13.938v4.4531q-2.7812-4.8438-7.125-7.2344t-10.406-2.3906q-10.047 0-16.203 7.6562-6.1562 7.6719-6.1562 20.328 0 12.688 6.1562 20.344 6.1562 7.6719 16.203 7.6719 6.0625 0 10.406-2.3906t7.125-7.2188v8.2969h8.9844z"/>
<path id="z" d="m8.5 21.578v33.109h8.9844v-32.766q0-7.7656 3.0156-11.656 3.0312-3.875 9.0938-3.875 7.2656 0 11.484 4.6406 4.2344 4.6406 4.2344 12.656v31h8.9844v-54.688h-8.9844v8.4062q-3.2656-4.9844-7.5938-7.4062-4.3125-2.4219-10.031-2.4219-9.4219 0-14.312 5.8594-4.875 5.8594-4.875 17.141z"/>
</defs>
<use xlink:href="#ae"/>
<use x="48.394531" xlink:href="#g"/>
<use x="109.673828" xlink:href="#i"/>
<use x="149.037109" xlink:href="#i"/>
<use x="190.150391" xlink:href="#g"/>
<use x="251.429688" xlink:href="#au"/>
<use x="314.90625" xlink:href="#z"/>
<use x="378.285156" xlink:href="#q"/>
</g>
</g>
<g clip-path="url(#a)">
<g transform="translate(189.02 791.85) scale(.1 -.1)">
<use xlink:href="#ah"/>
</g>
</g>
<g clip-path="url(#a)">
<g transform="translate(203.84 791.85) scale(.1 -.1)">
<defs>
<path id="am" d="m37.109 75.984v-7.4844h-8.5938q-4.8281 0-6.7188-1.9531-1.875-1.9531-1.875-7.0312v-4.8281h14.797v-6.9844h-14.797v-47.703h-9.0312v47.703h-8.5938v6.9844h8.5938v3.8125q0 9.125 4.25 13.297 4.25 4.1875 13.469 4.1875z"/>
</defs>
<use xlink:href="#am"/>
<use x="35.205078" xlink:href="#h"/>
<use x="62.988281" xlink:href="#v"/>
<use x="126.464844" xlink:href="#as"/>
<use x="187.988281" xlink:href="#j"/>
<use x="215.771484" xlink:href="#d"/>
</g>
</g>
<g clip-path="url(#a)">
<g transform="translate(244.44 791.85) scale(.1 -.1)">
<defs>
<path id="ax" d="m34.281 27.484q-10.891 0-15.094-2.4844t-4.2031-8.5q0-4.7812 3.1562-7.5938 3.1562-2.7969 8.5625-2.7969 7.4844 0 12 5.2969t4.5156 14.078v2zm17.922 3.7188v-31.203h-8.9844v8.2969q-3.0781-4.9688-7.6719-7.3438t-11.234-2.375q-8.3906 0-13.359 4.7188-4.9531 4.7188-4.9531 12.625 0 9.2188 6.1719 13.906 6.1875 4.6875 18.438 4.6875h12.609v0.89062q0 6.2031-4.0781 9.5938t-11.453 3.3906q-4.6875 0-9.1406-1.125-4.4375-1.125-8.5312-3.375v8.3125q4.9219 1.9062 9.5625 2.8438 4.6406 0.95312 9.0312 0.95312 11.875 0 17.734-6.1562 5.8594-6.1406 5.8594-18.641zm-30.281 48.781 13.766-18.266h-7.4688l-15.922 18.266z"/>
</defs>
<use xlink:href="#ax"/>
</g>
</g>
<g clip-path="url(#a)">
<g transform="translate(274.35 791.85) scale(.1 -.1)">
<use xlink:href="#r"/>
<use x="52.099609" xlink:href="#g"/>
</g>
</g>
<g clip-path="url(#a)">
<g transform="translate(290.83 791.85) scale(.1 -.1)">
<use xlink:href="#ai"/>
<use x="63.476562" xlink:href="#i"/>
<use x="102.339844" xlink:href="#u"/>
<use x="163.521484" xlink:href="#k"/>
<use x="260.933594" xlink:href="#d"/>
<use x="322.457031" xlink:href="#r"/>
<use x="374.556641" xlink:href="#r"/>
<use x="426.65625" xlink:href="#d"/>
</g>
</g>
<g clip-path="url(#a)">
<g transform="translate(351.59 791.85) scale(.1 -.1)">
<use xlink:href="#ah"/>
</g>
</g>
<g clip-path="url(#a)">
<g transform="translate(378.19 791.85) scale(.1 -.1)">
<defs>
<path id="at" d="m2.9844 54.688h9.5156l17.094-45.891 17.094 45.891h9.5156l-20.516-54.688h-12.203z"/>
</defs>
<use xlink:href="#v"/>
<use x="63.476562" xlink:href="#d"/>
<use x="125" xlink:href="#at"/>
<use x="184.179688" xlink:href="#g"/>
<use x="245.458984" xlink:href="#h"/>
<use x="273.242188" xlink:href="#q"/>
</g>
</g>
<g clip-path="url(#a)">
<g transform="translate(419.47 791.85) scale(.1 -.1)">
<use xlink:href="#v"/>
<use x="63.476562" xlink:href="#u"/>
<use x="124.658203" xlink:href="#f"/>
<use x="188.037109" xlink:href="#f"/>
<use x="251.416016" xlink:href="#d"/>
<use x="312.939453" xlink:href="#i"/>
</g>
</g>
<g clip-path="url(#a)">
<g transform="translate(478.78 791.85) scale(.1 -.1)">
<use xlink:href="#j"/>
<use x="27.783203" xlink:href="#g"/>
</g>
</g>
<g clip-path="url(#a)">
<g transform="translate(518.79 791.85) scale(.1 -.1)">
<use xlink:href="#i"/>
<use x="38.863281" xlink:href="#u"/>
<use x="100.044922" xlink:href="#z"/>
<use x="163.423828" xlink:href="#q"/>
<use x="202.632812" xlink:href="#d"/>
</g>
</g>
<g clip-path="url(#a)">
<g transform="translate(577.25 791.85) scale(.1 -.1)">
<use xlink:href="#g"/>
<use x="61.279297" xlink:href="#z"/>
</g>
</g>
<g clip-path="url(#a)">
<g transform="translate(628.72 791.85) scale(.1 -.1)">
<use xlink:href="#r"/>
<use x="52.099609" xlink:href="#z"/>
<use x="115.478516" xlink:href="#v"/>
</g>
</g>
<g clip-path="url(#a)">
<g transform="translate(692.76 791.85) scale(.1 -.1)">
<defs>
<path id="aw" d="m4.8906 31.391h26.312v-8h-26.312z"/>
</defs>
<use xlink:href="#aw"/>
</g>
</g>
<g clip-path="url(#a)">
<g transform="translate(746.53 791.85) scale(.1 -.1)">
<use xlink:href="#d"/>
<use x="61.523438" xlink:href="#r"/>
<use x="113.623047" xlink:href="#q"/>
</g>
</g>
<g clip-path="url(#a)">
<g transform="translate(814.9 791.85) scale(.1 -.1)">
<use xlink:href="#ah"/>
</g>
</g>
<g clip-path="url(#a)">
<g transform="translate(876.48 791.85) scale(.1 -.1)">
<use xlink:href="#d"/>
<use x="61.523438" xlink:href="#q"/>
</g>
</g>
<g clip-path="url(#a)">
<g transform="translate(919.08 791.85) scale(.1 -.1)">
<defs>
<path id="av" d="m48.688 27.297q0 9.9062-4.0781 15.547t-11.203 5.6406q-7.1406 0-11.219-5.6406t-4.0781-15.547 4.0781-15.547 11.219-5.6406q7.125 0 11.203 5.6406t4.0781 15.547zm-30.578 19.094q2.8438 4.875 7.1562 7.2344 4.3281 2.375 10.328 2.375 9.9688 0 16.188-7.9062 6.2344-7.9062 6.2344-20.797t-6.2344-20.812q-6.2188-7.9062-16.188-7.9062-6 0-10.328 2.375-4.3125 2.375-7.1562 7.25v-8.2031h-9.0312v75.984h9.0312z"/>
</defs>
<use xlink:href="#g"/>
<use x="61.279297" xlink:href="#av"/>
<use x="124.755859" xlink:href="#g"/>
<use x="186.035156" xlink:href="#f"/>
<use x="249.414062" xlink:href="#v"/>
<use x="312.890625" xlink:href="#u"/>
<use x="374.072266" xlink:href="#f"/>
<use x="437.451172" xlink:href="#f"/>
<use x="500.830078" xlink:href="#d"/>
<use x="562.353516" xlink:href="#i"/>
</g>
</g>
<g clip-path="url(#a)">
<g transform="translate(983.28 791.85) scale(.1 -.1)">
<defs>
<path id="ar" d="m56.203 29.594v-4.3906h-41.312q0.59375-9.2812 5.5938-14.141t13.938-4.8594q5.1719 0 10.031 1.2656t9.6562 3.8125v-8.5q-4.8438-2.0469-9.9219-3.125t-10.297-1.0781q-13.094 0-20.734 7.6094-7.6406 7.625-7.6406 20.625 0 13.422 7.25 21.297 7.25 7.8906 19.562 7.8906 11.031 0 17.453-7.1094 6.4219-7.0938 6.4219-19.297zm-8.9844 2.6406q-0.09375 7.3594-4.125 11.75-4.0312 4.4062-10.672 4.4062-7.5156 0-12.031-4.25t-5.2031-11.969zm-8.6875 47.75h9.7188l-15.906-18.359h-7.4844z"/>
</defs>
<use xlink:href="#v"/>
<use x="63.476562" xlink:href="#ar"/>
<use x="125" xlink:href="#am"/>
<use x="160.205078" xlink:href="#h"/>
<use x="187.988281" xlink:href="#f"/>
<use x="251.367188" xlink:href="#h"/>
<use x="279.150391" xlink:href="#q"/>
<use x="318.359375" xlink:href="#h"/>
<use x="346.142578" xlink:href="#at"/>
<use x="405.322266" xlink:href="#d"/>
<use x="466.845703" xlink:href="#k"/>
<use x="564.257812" xlink:href="#d"/>
<use x="625.78125" xlink:href="#f"/>
<use x="689.160156" xlink:href="#q"/>
</g>
</g>
<g clip-path="url(#a)">
<g transform="translate(1085.8 791.85) scale(.1 -.1)">
<use xlink:href="#j"/>
<use x="27.783203" xlink:href="#d"/>
<use x="89.306641" xlink:href="#r"/>
</g>
</g>
<g clip-path="url(#a)">
<g transform="translate(1150.3 792.05) scale(.1 -.1)">
<use xlink:href="#i"/>
<use x="38.863281" xlink:href="#ar"/>
<use x="100.386719" xlink:href="#au"/>
<use x="163.863281" xlink:href="#h"/>
<use x="191.646484" xlink:href="#u"/>
<use x="252.828125" xlink:href="#f"/>
<use x="316.207031" xlink:href="#r"/>
</g>
</g>
<g clip-path="url(#a)">
<g transform="translate(1208.5 791.85) scale(.1 -.1)">
<use xlink:href="#r"/>
<use x="52.099609" xlink:href="#d"/>
<use x="113.623047" xlink:href="#ai"/>
<use x="177.099609" xlink:href="#q"/>
<use x="216.308594" xlink:href="#d"/>
<use x="277.832031" xlink:href="#f"/>
<use x="341.210938" xlink:href="#q"/>
<use x="380.419922" xlink:href="#i"/>
<use x="421.533203" xlink:href="#h"/>
<use x="449.316406" xlink:href="#u"/>
<use x="510.498047" xlink:href="#f"/>
<use x="573.876953" xlink:href="#g"/>
<use x="635.15625" xlink:href="#j"/>
<use x="662.939453" xlink:href="#d"/>
<use x="724.462891" xlink:href="#r"/>
</g>
</g>
<g clip-path="url(#a)">
<g transform="translate(1322.2 791.85) scale(.1 -.1)">
<use xlink:href="#v"/>
<use x="63.476562" xlink:href="#z"/>
</g>
</g>
<g clip-path="url(#a)">
<g transform="translate(1390 791.85) scale(.1 -.1)">
<defs>
<path id="az" d="m14.797 27.297q0-9.9062 4.0781-15.547t11.203-5.6406 11.219 5.6406q4.1094 5.6406 4.1094 15.547t-4.1094 15.547q-4.0938 5.6406-11.219 5.6406t-11.203-5.6406-4.0781-15.547zm30.609-19.094q-2.8281-4.875-7.1562-7.25-4.3125-2.375-10.375-2.375-9.9062 0-16.141 7.9062-6.2188 7.9219-6.2188 20.812t6.2188 20.797q6.2344 7.9062 16.141 7.9062 6.0625 0 10.375-2.375 4.3281-2.3594 7.1562-7.2344v8.2969h8.9844v-75.484h-8.9844z"/>
</defs>
<use xlink:href="#t"/>
<use x="55.802734" xlink:href="#g"/>
<use x="117.082031" xlink:href="#an"/>
<use x="172.0625" xlink:href="#h"/>
<use x="199.845703" xlink:href="#am"/>
<use x="235.050781" xlink:href="#h"/>
<use x="262.833984" xlink:href="#az"/>
<use x="326.310547" xlink:href="#z"/>
<use x="389.689453" xlink:href="#d"/>
</g>
</g>
<g clip-path="url(#a)">
<g transform="translate(1497.7 791.85) scale(.1 -.1)">
<defs>
<path id="e" d="m10.688 12.406h10.312v-12.406h-10.312z"/>
</defs>
<use xlink:href="#e"/>
</g>
</g>
<g clip-path="url(#a)">
<g transform="translate(74.694 544.08) scale(.1 -.1)">
<defs>
<path id="x" d="m9.8125 72.906h9.8594v-72.906h-9.8594z"/>
<path id="ap" d="m9.8125 72.906h14.703l18.594-49.609 18.703 49.609h14.703v-72.906h-9.625v64.016l-18.797-50h-9.9062l-18.797 50v-64.016h-9.5781z"/>
</defs>
<use xlink:href="#x"/>
<use x="29.492188" xlink:href="#ap"/>
<use x="115.771484" xlink:href="#t"/>
<use x="176.074219" xlink:href="#ac"/>
<use x="231.787109" xlink:href="#x"/>
<use x="261.279297" xlink:href="#s"/>
<use x="331.103516" xlink:href="#x"/>
<use x="360.595703" xlink:href="#l"/>
</g>
</g>
<g clip-path="url(#a)">
<g transform="translate(74.694 544.08) scale(.1 -.1)">
<use xlink:href="#x"/>
<use x="29.492188" xlink:href="#ap"/>
<use x="115.771484" xlink:href="#t"/>
<use x="176.074219" xlink:href="#ac"/>
<use x="231.787109" xlink:href="#x"/>
<use x="261.279297" xlink:href="#s"/>
<use x="331.103516" xlink:href="#x"/>
<use x="360.595703" xlink:href="#l"/>
</g>
</g>
<g clip-path="url(#a)">
<g transform="translate(412.56 40.335) scale(.1 -.1)">
<defs>
<path id="c" d="m12.406 8.2969h16.109v55.625l-17.531-3.5156v8.9844l17.438 3.5156h9.8594v-64.609h16.109v-8.2969h-41.984z"/>
</defs>
<use xlink:href="#c"/>
<use x="63.623047" xlink:href="#e"/>
<use x="95.410156" xlink:href="#c"/>
</g>
</g>
<g clip-path="url(#a)">
<g transform="translate(63.442 668.82) scale(.1 -.1)">
<defs>
<path id="p" d="m19.188 8.2969h34.422v-8.2969h-46.281v8.2969q5.6094 5.8125 15.297 15.594 9.7031 9.7969 12.188 12.641 4.7344 5.3125 6.6094 9 1.8906 3.6875 1.8906 7.25 0 5.8125-4.0781 9.4688-4.0781 3.6719-10.625 3.6719-4.6406 0-9.7969-1.6094-5.1406-1.6094-11-4.8906v9.9688q5.9531 2.3906 11.125 3.6094 5.1875 1.2188 9.4844 1.2188 11.328 0 18.062-5.6719 6.7344-5.6562 6.7344-15.125 0-4.5-1.6875-8.5312-1.6719-4.0156-6.125-9.4844-1.2188-1.4219-7.7656-8.1875-6.5312-6.7656-18.453-18.922z"/>
</defs>
<use xlink:href="#c"/>
<use x="63.623047" xlink:href="#e"/>
<use x="95.410156" xlink:href="#p"/>
</g>
</g>
<g clip-path="url(#a)">
<g transform="translate(76.99 418.69) scale(.1 -.1)">
<defs>
<path id="m" d="m40.578 39.312q7.0781-1.5156 11.047-6.3125 3.9844-4.7812 3.9844-11.812 0-10.781-7.4219-16.703-7.4219-5.9062-21.094-5.9062-4.5781 0-9.4375 0.90625t-10.031 2.7188v9.5156q4.0938-2.3906 8.9688-3.6094 4.8906-1.2188 10.219-1.2188 9.2656 0 14.125 3.6562t4.8594 10.641q0 6.4531-4.5156 10.078-4.5156 3.6406-12.562 3.6406h-8.5v8.1094h8.8906q7.2656 0 11.125 2.9062t3.8594 8.375q0 5.6094-3.9844 8.6094-3.9688 3.0156-11.391 3.0156-4.0625 0-8.7031-0.89062-4.6406-0.875-10.203-2.7188v8.7812q5.625 1.5625 10.531 2.3438t9.25 0.78125q11.234 0 17.766-5.1094 6.5469-5.0938 6.5469-13.781 0-6.0625-3.4688-10.234t-9.8594-5.7812z"/>
</defs>
<use xlink:href="#c"/>
<use x="63.623047" xlink:href="#e"/>
<use x="95.410156" xlink:href="#m"/>
</g>
</g>
<g clip-path="url(#a)">
<g transform="translate(409.07 166.73) scale(.1 -.1)">
<defs>
<path id="o" d="m37.797 64.312-24.906-38.922h24.906zm-2.5938 8.5938h12.406v-47.516h10.406v-8.2031h-10.406v-17.188h-9.8125v17.188h-32.906v9.5156z"/>
</defs>
<use xlink:href="#c"/>
<use x="63.623047" xlink:href="#e"/>
<use x="95.410156" xlink:href="#o"/>
</g>
</g>
<g clip-path="url(#a)">
<g transform="translate(203.83 292.87) scale(.1 -.1)">
<defs>
<path id="y" d="m10.797 72.906h38.719v-8.3125h-29.688v-17.859q2.1406 0.73438 4.2812 1.0938 2.1562 0.35938 4.3125 0.35938 12.203 0 19.328-6.6875 7.1406-6.6875 7.1406-18.109 0-11.766-7.3281-18.297-7.3281-6.5156-20.656-6.5156-4.5938 0-9.3594 0.78125-4.75 0.78125-9.8281 2.3438v9.9219q4.3906-2.3906 9.0781-3.5625t9.9062-1.1719q8.4531 0 13.375 4.4375 4.9375 4.4375 4.9375 12.062 0 7.6094-4.9375 12.047-4.9219 4.4531-13.375 4.4531-3.9531 0-7.8906-0.875-3.9219-0.875-8.0156-2.7344z"/>
</defs>
<use xlink:href="#c"/>
<use x="63.623047" xlink:href="#e"/>
<use x="95.410156" xlink:href="#y"/>
</g>
</g>
<g clip-path="url(#a)">
<g transform="translate(873.57 668.82) scale(.1 -.1)">
<defs>
<path id="ab" d="m33.016 40.375q-6.6406 0-10.531-4.5469-3.875-4.5312-3.875-12.438 0-7.8594 3.875-12.438 3.8906-4.5625 10.531-4.5625t10.516 4.5625q3.875 4.5781 3.875 12.438 0 7.9062-3.875 12.438-3.875 4.5469-10.516 4.5469zm19.578 30.922v-8.9844q-3.7188 1.75-7.5 2.6719-3.7812 0.9375-7.5 0.9375-9.7656 0-14.922-6.5938-5.1406-6.5938-5.875-19.922 2.875 4.25 7.2188 6.5156 4.3594 2.2656 9.5781 2.2656 10.984 0 17.359-6.6719 6.375-6.6562 6.375-18.125 0-11.234-6.6406-18.031-6.6406-6.7812-17.672-6.7812-12.656 0-19.344 9.6875-6.6875 9.7031-6.6875 28.109 0 17.281 8.2031 27.562t22.016 10.281q3.7188 0 7.5-0.73438t7.8906-2.1875z"/>
</defs>
<use xlink:href="#c"/>
<use x="63.623047" xlink:href="#e"/>
<use x="95.410156" xlink:href="#ab"/>
</g>
</g>
<g clip-path="url(#a)">
<g transform="translate(831.03 292.87) scale(.1 -.1)">
<defs>
<path id="aa" d="m8.2031 72.906h46.875v-4.2031l-26.469-68.703h-10.297l24.906 64.594h-35.016z"/>
</defs>
<use xlink:href="#c"/>
<use x="63.623047" xlink:href="#e"/>
<use x="95.410156" xlink:href="#aa"/>
</g>
</g>
<g clip-path="url(#a)">
<g transform="translate(938.12 668.82) scale(.1 -.1)">
<use xlink:href="#c"/>
<use x="63.623047" xlink:href="#e"/>
<use x="95.410156" xlink:href="#c"/>
<use x="159.033203" xlink:href="#c"/>
</g>
</g>
<g clip-path="url(#a)">
<g transform="translate(1008.6 668.82) scale(.1 -.1)">
<use xlink:href="#c"/>
<use x="63.623047" xlink:href="#e"/>
<use x="95.410156" xlink:href="#c"/>
<use x="159.033203" xlink:href="#p"/>
</g>
</g>
<g clip-path="url(#a)">
<g transform="translate(1209.6 418.69) scale(.1 -.1)">
<use xlink:href="#c"/>
<use x="63.623047" xlink:href="#e"/>
<use x="95.410156" xlink:href="#c"/>
<use x="159.033203" xlink:href="#m"/>
</g>
</g>
<g clip-path="url(#a)">
<g transform="translate(1081.7 668.82) scale(.1 -.1)">
<use xlink:href="#c"/>
<use x="63.623047" xlink:href="#e"/>
<use x="95.410156" xlink:href="#c"/>
<use x="159.033203" xlink:href="#o"/>
</g>
</g>
<g clip-path="url(#a)">
<g transform="translate(1157.6 668.82) scale(.1 -.1)">
<use xlink:href="#c"/>
<use x="63.623047" xlink:href="#e"/>
<use x="95.410156" xlink:href="#c"/>
<use x="159.033203" xlink:href="#y"/>
</g>
</g>
<g clip-path="url(#a)">
<g transform="translate(1196.9 544.08) scale(.1 -.1)">
<use xlink:href="#c"/>
<use x="63.623047" xlink:href="#e"/>
<use x="95.410156" xlink:href="#c"/>
<use x="159.033203" xlink:href="#ab"/>
</g>
</g>
<g clip-path="url(#a)">
<g transform="translate(1402.3 544.08) scale(.1 -.1)">
<use xlink:href="#c"/>
<use x="63.623047" xlink:href="#e"/>
<use x="95.410156" xlink:href="#c"/>
<use x="159.033203" xlink:href="#aa"/>
</g>
</g>
<g clip-path="url(#a)">
<g transform="translate(1317.4 668.82) scale(.1 -.1)">
<defs>
<path id="ag" d="m31.781 34.625q-7.0312 0-11.062-3.7656-4.0156-3.7656-4.0156-10.344 0-6.5938 4.0156-10.359 4.0312-3.7656 11.062-3.7656t11.078 3.7812q4.0625 3.7969 4.0625 10.344 0 6.5781-4.0312 10.344-4.0156 3.7656-11.109 3.7656zm-9.8594 4.1875q-6.3438 1.5625-9.8906 5.9062-3.5312 4.3594-3.5312 10.609 0 8.7344 6.2188 13.812 6.2344 5.0781 17.062 5.0781 10.891 0 17.094-5.0781t6.2031-13.812q0-6.25-3.5469-10.609-3.5312-4.3438-9.8281-5.9062 7.125-1.6562 11.094-6.5 3.9844-4.8281 3.9844-11.797 0-10.609-6.4688-16.281-6.4688-5.6562-18.531-5.6562-12.047 0-18.531 5.6562-6.4688 5.6719-6.4688 16.281 0 6.9688 4 11.797 4.0156 4.8438 11.141 6.5zm-3.6094 15.578q0-5.6562 3.5312-8.8281 3.5469-3.1719 9.9375-3.1719 6.3594 0 9.9375 3.1719 3.5938 3.1719 3.5938 8.8281 0 5.6719-3.5938 8.8438-3.5781 3.1719-9.9375 3.1719-6.3906 0-9.9375-3.1719-3.5312-3.1719-3.5312-8.8438z"/>
</defs>
<use xlink:href="#c"/>
<use x="63.623047" xlink:href="#e"/>
<use x="95.410156" xlink:href="#c"/>
<use x="159.033203" xlink:href="#ag"/>
</g>
</g>
<g clip-path="url(#a)">
<g transform="translate(1401.4 668.82) scale(.1 -.1)">
<defs>
<path id="af" d="m10.984 1.5156v8.9844q3.7188-1.7656 7.5156-2.6875 3.8125-0.92188 7.4844-0.92188 9.7656 0 14.906 6.5625 5.1562 6.5625 5.8906 19.953-2.8281-4.2031-7.1875-6.4531-4.3438-2.25-9.6094-2.25-10.938 0-17.312 6.6094-6.375 6.625-6.375 18.109 0 11.219 6.6406 18 6.6406 6.7969 17.672 6.7969 12.656 0 19.312-9.7031 6.6719-9.6875 6.6719-28.141 0-17.234-8.1875-27.516-8.1719-10.281-21.984-10.281-3.7188 0-7.5312 0.73438-3.7969 0.73438-7.9062 2.2031zm19.625 30.906q6.6406 0 10.516 4.5312 3.8906 4.5469 3.8906 12.469 0 7.8594-3.8906 12.422-3.875 4.5625-10.516 4.5625t-10.516-4.5625-3.875-12.422q0-7.9219 3.875-12.469 3.875-4.5312 10.516-4.5312z"/>
</defs>
<use xlink:href="#c"/>
<use x="63.623047" xlink:href="#e"/>
<use x="95.410156" xlink:href="#c"/>
<use x="159.033203" xlink:href="#af"/>
</g>
</g>
<g clip-path="url(#a)">
<g transform="translate(1236.2 668.82) scale(.1 -.1)">
<use xlink:href="#c"/>
<use x="63.623047" xlink:href="#e"/>
<use x="95.410156" xlink:href="#p"/>
<use x="159.033203" xlink:href="#c"/>
</g>
</g>
<g clip-path="url(#a)">
<g transform="translate(206.57 668.82) scale(.1 -.1)">
<use xlink:href="#c"/>
<use x="63.623047" xlink:href="#e"/>
<use x="95.410156" xlink:href="#p"/>
<use x="159.033203" xlink:href="#p"/>
</g>
</g>
<g clip-path="url(#a)">
<g transform="translate(261.44 418.69) scale(.1 -.1)">
<use xlink:href="#c"/>
<use x="63.623047" xlink:href="#e"/>
<use x="95.410156" xlink:href="#p"/>
<use x="159.033203" xlink:href="#m"/>
</g>
</g>
<g clip-path="url(#a)">
<g transform="translate(236.38 668.82) scale(.1 -.1)">
<use xlink:href="#c"/>
<use x="63.623047" xlink:href="#e"/>
<use x="95.410156" xlink:href="#p"/>
<use x="159.033203" xlink:href="#y"/>
</g>
</g>
<g clip-path="url(#a)">
<g transform="translate(286.5 544.08) scale(.1 -.1)">
<use xlink:href="#c"/>
<use x="63.623047" xlink:href="#e"/>
<use x="95.410156" xlink:href="#p"/>
<use x="159.033203" xlink:href="#ab"/>
</g>
</g>
<g clip-path="url(#a)">
<g transform="translate(268.89 668.82) scale(.1 -.1)">
<use xlink:href="#c"/>
<use x="63.623047" xlink:href="#e"/>
<use x="95.410156" xlink:href="#p"/>
<use x="159.033203" xlink:href="#aa"/>
</g>
</g>
<g clip-path="url(#a)">
<g transform="translate(304.11 668.82) scale(.1 -.1)">
<use xlink:href="#c"/>
<use x="63.623047" xlink:href="#e"/>
<use x="95.410156" xlink:href="#p"/>
<use x="159.033203" xlink:href="#ag"/>
</g>
</g>
<g clip-path="url(#a)">
<g transform="translate(139.51 292.87) scale(.1 -.1)">
<use xlink:href="#c"/>
<use x="63.623047" xlink:href="#e"/>
<use x="95.410156" xlink:href="#p"/>
<use x="159.033203" xlink:href="#af"/>
</g>
</g>
<g clip-path="url(#a)">
<g transform="translate(382.69 668.82) scale(.1 -.1)">
<defs>
<path id="al" d="m31.781 66.406q-7.6094 0-11.453-7.5-3.8281-7.4844-3.8281-22.531 0-14.984 3.8281-22.484 3.8438-7.5 11.453-7.5 7.6719 0 11.5 7.5 3.8438 7.5 3.8438 22.484 0 15.047-3.8438 22.531-3.8281 7.5-11.5 7.5zm0 7.8125q12.266 0 18.734-9.7031 6.4688-9.6875 6.4688-28.141 0-18.406-6.4688-28.109-6.4688-9.6875-18.734-9.6875-12.25 0-18.719 9.6875-6.4688 9.7031-6.4688 28.109 0 18.453 6.4688 28.141 6.4688 9.7031 18.719 9.7031z"/>
</defs>
<use xlink:href="#c"/>
<use x="63.623047" xlink:href="#e"/>
<use x="95.410156" xlink:href="#m"/>
<use x="159.033203" xlink:href="#al"/>
</g>
</g>
<g clip-path="url(#a)">
<g transform="translate(473 668.82) scale(.1 -.1)">
<use xlink:href="#c"/>
<use x="63.623047" xlink:href="#e"/>
<use x="95.410156" xlink:href="#m"/>
<use x="159.033203" xlink:href="#c"/>
</g>
</g>
<g clip-path="url(#a)">
<g transform="translate(628.34 418.69) scale(.1 -.1)">
<use xlink:href="#c"/>
<use x="63.623047" xlink:href="#e"/>
<use x="95.410156" xlink:href="#m"/>
<use x="159.033203" xlink:href="#p"/>
</g>
</g>
<g clip-path="url(#a)">
<g transform="translate(572.35 668.82) scale(.1 -.1)">
<use xlink:href="#c"/>
<use x="63.623047" xlink:href="#e"/>
<use x="95.410156" xlink:href="#m"/>
<use x="159.033203" xlink:href="#m"/>
</g>
</g>
<g clip-path="url(#a)">
<g transform="translate(684.34 544.08) scale(.1 -.1)">
<use xlink:href="#c"/>
<use x="63.623047" xlink:href="#e"/>
<use x="95.410156" xlink:href="#m"/>
<use x="159.033203" xlink:href="#o"/>
</g>
</g>
<g clip-path="url(#a)">
<g transform="translate(123.93 418.69) scale(.1 -.1)">
<use xlink:href="#c"/>
<use x="63.623047" xlink:href="#e"/>
<use x="95.410156" xlink:href="#m"/>
<use x="159.033203" xlink:href="#ab"/>
</g>
</g>
<g clip-path="url(#a)">
<g transform="translate(155.09 668.82) scale(.1 -.1)">
<use xlink:href="#c"/>
<use x="63.623047" xlink:href="#e"/>
<use x="95.410156" xlink:href="#m"/>
<use x="159.033203" xlink:href="#aa"/>
</g>
</g>
<g clip-path="url(#a)">
<g transform="translate(123.93 544.08) scale(.1 -.1)">
<use xlink:href="#c"/>
<use x="63.623047" xlink:href="#e"/>
<use x="95.410156" xlink:href="#m"/>
<use x="159.033203" xlink:href="#ag"/>
</g>
</g>
<g clip-path="url(#a)">
<g transform="translate(114.45 668.82) scale(.1 -.1)">
<use xlink:href="#c"/>
<use x="63.623047" xlink:href="#e"/>
<use x="95.410156" xlink:href="#m"/>
<use x="159.033203" xlink:href="#af"/>
</g>
</g>
<g clip-path="url(#a)">
<g transform="translate(133.42 668.82) scale(.1 -.1)">
<use xlink:href="#c"/>
<use x="63.623047" xlink:href="#e"/>
<use x="95.410156" xlink:href="#o"/>
<use x="159.033203" xlink:href="#al"/>
</g>
</g>
<g clip-path="url(#a)">
<g transform="translate(73.808 544.08) scale(.1 -.1)">
<use xlink:href="#c"/>
<use x="63.623047" xlink:href="#e"/>
<use x="95.410156" xlink:href="#o"/>
<use x="159.033203" xlink:href="#m"/>
</g>
</g>
<g clip-path="url(#a)">
<g transform="translate(68.389 668.82) scale(.1 -.1)">
<use xlink:href="#c"/>
<use x="63.623047" xlink:href="#e"/>
<use x="95.410156" xlink:href="#o"/>
<use x="159.033203" xlink:href="#o"/>
</g>
</g>
<g clip-path="url(#a)">
<g transform="translate(79.227 668.82) scale(.1 -.1)">
<use xlink:href="#c"/>
<use x="63.623047" xlink:href="#e"/>
<use x="95.410156" xlink:href="#o"/>
<use x="159.033203" xlink:href="#y"/>
</g>
</g>
<g clip-path="url(#a)">
<g transform="translate(98.193 668.82) scale(.1 -.1)">
<use xlink:href="#c"/>
<use x="63.623047" xlink:href="#e"/>
<use x="95.410156" xlink:href="#o"/>
<use x="159.033203" xlink:href="#ab"/>
</g>
</g>
<g clip-path="url(#a)">
<g transform="translate(179.48 668.82) scale(.1 -.1)">
<use xlink:href="#c"/>
<use x="63.623047" xlink:href="#e"/>
<use x="95.410156" xlink:href="#o"/>
<use x="159.033203" xlink:href="#aa"/>
</g>
</g>
<g clip-path="url(#a)">
<g transform="translate(342.04 668.82) scale(.1 -.1)">
<use xlink:href="#c"/>
<use x="63.623047" xlink:href="#e"/>
<use x="95.410156" xlink:href="#o"/>
<use x="159.033203" xlink:href="#ag"/>
</g>
</g>
<g clip-path="url(#a)">
<g transform="translate(683.43 668.82) scale(.1 -.1)">
<use xlink:href="#c"/>
<use x="63.623047" xlink:href="#e"/>
<use x="95.410156" xlink:href="#o"/>
<use x="159.033203" xlink:href="#af"/>
</g>
</g>
<g clip-path="url(#a)">
<g transform="translate(805.36 668.82) scale(.1 -.1)">
<use xlink:href="#c"/>
<use x="63.623047" xlink:href="#e"/>
<use x="95.410156" xlink:href="#y"/>
<use x="159.033203" xlink:href="#al"/>
</g>
</g>
<g clip-path="url(#a)">
<g transform="translate(1488.1 668.82) scale(.1 -.1)">
<use xlink:href="#c"/>
<use x="63.623047" xlink:href="#e"/>
<use x="95.410156" xlink:href="#y"/>
<use x="159.033203" xlink:href="#c"/>
</g>
</g>
<defs>
<clipPath id="a">
<rect width="1570.7" height="826.67"/>
</clipPath>
</defs>
</svg>
