<?xml version="1.0" encoding="UTF-8"?>
<!DOCTYPE svg  PUBLIC '-//W3C//DTD SVG 1.1//EN'  'http://www.w3.org/Graphics/SVG/1.1/DTD/svg11.dtd'>
<svg width="912pt" height="480pt" version="1.1" viewBox="0 0 912 480" xmlns="http://www.w3.org/2000/svg" xmlns:xlink="http://www.w3.org/1999/xlink">
<metadata>
<rdf:RDF xmlns:cc="http://creativecommons.org/ns#" xmlns:dc="http://purl.org/dc/elements/1.1/" xmlns:rdf="http://www.w3.org/1999/02/22-rdf-syntax-ns#">
<cc:Work>
<dc:type rdf:resource="http://purl.org/dc/dcmitype/StillImage"/>
<dc:date>2021-04-14T07:25:41.961409</dc:date>
<dc:format>image/svg+xml</dc:format>
<dc:creator>
<cc:Agent>
<dc:title>Matplotlib v3.3.3, https://matplotlib.org/</dc:title>
</cc:Agent>
</dc:creator>
</cc:Work>
</rdf:RDF>
</metadata>
<defs>
<style type="text/css">*{stroke-linecap:butt;stroke-linejoin:round;}</style>
</defs>
<path d="m0 480h912v-480h-912z" fill="#fff"/>
<g fill="none" stroke="#000">
<path d="m119.78 21.818-78.328 364.93" clip-path="url(#a)"/>
<path d="m119.78 21.818-33.991 292.5" clip-path="url(#a)"/>
<path d="m119.78 21.818 112.32 73.39" clip-path="url(#a)"/>
<path d="m41.455 386.75v71.436" clip-path="url(#a)"/>
<path d="m85.791 314.32 35.469 72.43" clip-path="url(#a)" stroke-dasharray="3.7,1.6"/>
<path d="m85.791 314.32-31.035 72.43" clip-path="url(#a)"/>
<path d="m85.791 314.32-13.301 72.43" clip-path="url(#a)"/>
<path d="m85.791 314.32 8.8673 72.43" clip-path="url(#a)"/>
<path d="m232.1 95.208-110.84 291.54" clip-path="url(#a)"/>
<path d="m232.1 95.208-79.806 291.54" clip-path="url(#a)"/>
<path d="m232.1 95.208 190.65 73.242" clip-path="url(#a)"/>
<path d="m121.26 386.75v71.436" clip-path="url(#a)"/>
<path d="m152.3 386.75v71.436" clip-path="url(#a)"/>
<path d="m422.75 168.45-234.98 218.3" clip-path="url(#a)"/>
<path d="m422.75 168.45-141.14 73.057" clip-path="url(#a)"/>
<path d="m422.75 168.45-48.77 218.3" clip-path="url(#a)"/>
<path d="m422.75 168.45 72.416 218.3" clip-path="url(#a)"/>
<path d="m422.75 168.45 352.47 73.057" clip-path="url(#a)"/>
<path d="m187.76 386.75v71.436" clip-path="url(#a)"/>
<path d="m281.61 241.51-53.943 145.24" clip-path="url(#a)"/>
<path d="m281.61 241.51 14.779 72.809" clip-path="url(#a)"/>
<path d="m281.61 241.51 39.164 145.24" clip-path="url(#a)"/>
<path d="m373.98 386.75v71.436" clip-path="url(#a)"/>
<path d="m495.16 386.75-63.549 71.436" clip-path="url(#a)"/>
<path d="m495.16 386.75-1.4779 71.436" clip-path="url(#a)"/>
<path d="m495.16 386.75 65.027 71.436" clip-path="url(#a)"/>
<path d="m775.22 241.51-106.41 72.809" clip-path="url(#a)"/>
<path d="m775.22 241.51 11.084 145.24" clip-path="url(#a)"/>
<path d="m775.22 241.51 95.323 145.24" clip-path="url(#a)"/>
<path d="m668.81 314.32-37.686 72.43" clip-path="url(#a)"/>
<path d="m668.81 314.32 37.686 72.43" clip-path="url(#a)"/>
<path d="m786.31 386.75v71.436" clip-path="url(#a)"/>
<path d="m631.13 386.75v71.436" clip-path="url(#a)"/>
<path d="m706.5 386.75v71.436" clip-path="url(#a)"/>
<path d="m227.67 386.75v71.436" clip-path="url(#a)"/>
<path d="m296.39 314.32 24.385 72.43" clip-path="url(#a)" stroke-dasharray="3.7,1.6"/>
<path d="m296.39 314.32-24.385 72.43" clip-path="url(#a)"/>
<path d="m320.77 386.75v71.436" clip-path="url(#a)"/>
<path d="m272 386.75v71.436" clip-path="url(#a)"/>
<path d="m54.755 386.75v71.436" clip-path="url(#a)"/>
<path d="m72.49 386.75v71.436" clip-path="url(#a)"/>
<path d="m94.658 386.75v71.436" clip-path="url(#a)"/>
<path d="m870.55 386.75v71.436" clip-path="url(#a)"/>
</g>
<path d="m86.282 207.78 0.93545-4.3582q0.50366-2.3466-1.8429-2.8502l-7.5701-1.6248q-2.3466-0.50366-2.8502 1.8429l-0.93545 4.3582q-0.50366 2.3466 1.8429 2.8502l7.5701 1.6248q2.3466 0.50366 2.8502-1.8429z" clip-path="url(#a)" fill="#fff" stroke="#fff"/>
<g clip-path="url(#a)">
<g transform="translate(82.309 206.92) rotate(-77.886) scale(.08 -.08)">
<defs>
<path id="an" d="m9.8125 72.906h9.8594v-64.609h35.5v-8.2969h-45.359z"/>
</defs>
<use xlink:href="#an"/>
</g>
</g>
<path d="m108.67 171.78 0.69448-5.976q0.27704-2.384-2.1069-2.661l-7.6907-0.89374q-2.384-0.27704-2.661 2.1069l-0.69448 5.976q-0.27704 2.384 2.1069 2.661l7.6907 0.89374q2.384 0.27704 2.661-2.1069z" clip-path="url(#a)" fill="#fff" stroke="#fff"/>
<g clip-path="url(#a)">
<g transform="translate(104.63 171.31) rotate(-83.371) scale(.08 -.08)">
<defs>
<path id="ab" d="m9.8125 72.906h9.8594v-29.891h35.844v29.891h9.8594v-72.906h-9.8594v34.719h-35.844v-34.719h-9.8594z"/>
</defs>
<use xlink:href="#ab"/>
</g>
</g>
<path d="m169.99 62.118 5.0364 3.2908q2.0091 1.3128 3.3219-0.69636l4.2351-6.4815q1.3128-2.0091-0.69636-3.3219l-5.0364-3.2908q-2.0091-1.3128-3.3219 0.69636l-4.2351 6.4815q-1.3128 2.0091 0.69636 3.3219z" clip-path="url(#a)" fill="#fff" stroke="#fff"/>
<g clip-path="url(#a)">
<g transform="translate(172.22 58.716) rotate(33.161) scale(.08 -.08)">
<use xlink:href="#ab"/>
</g>
</g>
<path d="m35.183 405.56v33.808q0 2.4 2.4 2.4h7.7425q2.4 0 2.4-2.4v-33.808q0-2.4-2.4-2.4h-7.7425q-2.4 0-2.4 2.4z" clip-path="url(#a)" fill="#fff" stroke="#fff"/>
<g clip-path="url(#a)">
<g transform="translate(39.247 405.56) rotate(90) scale(.08 -.08)">
<defs>
<path id="k" d="m-0.29688 72.906h61.672v-8.3125h-25.875v-64.594h-9.9062v64.594h-25.891z"/>
<path id="d" d="m56.203 29.594v-4.3906h-41.312q0.59375-9.2812 5.5938-14.141t13.938-4.8594q5.1719 0 10.031 1.2656t9.6562 3.8125v-8.5q-4.8438-2.0469-9.9219-3.125t-10.297-1.0781q-13.094 0-20.734 7.6094-7.6406 7.625-7.6406 20.625 0 13.422 7.25 21.297 7.25 7.8906 19.562 7.8906 11.031 0 17.453-7.1094 6.4219-7.0938 6.4219-19.297zm-8.9844 2.6406q-0.09375 7.3594-4.125 11.75-4.0312 4.4062-10.672 4.4062-7.5156 0-12.031-4.25t-5.2031-11.969z"/>
<path id="i" d="m41.109 46.297q-1.5156 0.875-3.2969 1.2812-1.7812 0.42188-3.9219 0.42188-7.625 0-11.703-4.9531t-4.0781-14.234v-28.812h-9.0312v54.688h9.0312v-8.5q2.8438 4.9844 7.375 7.3906 4.5469 2.4219 11.047 2.4219 0.92188 0 2.0469-0.125 1.125-0.10938 2.4844-0.35938z"/>
<path id="l" d="m52 44.188q3.375 6.0625 8.0625 8.9375t11.031 2.875q8.5469 0 13.188-5.9844 4.6406-5.9688 4.6406-17v-33.016h-9.0312v32.719q0 7.8594-2.7969 11.656-2.7812 3.8125-8.4844 3.8125-6.9844 0-11.047-4.6406-4.0469-4.625-4.0469-12.641v-30.906h-9.0312v32.719q0 7.9062-2.7812 11.688t-8.5938 3.7812q-6.8906 0-10.953-4.6562-4.0469-4.6562-4.0469-12.625v-30.906h-9.0312v54.688h9.0312v-8.5q3.0781 5.0312 7.375 7.4219t10.203 2.3906q5.9688 0 10.141-3.0312 4.1719-3.0156 6.1719-8.7812z"/>
<path id="h" d="m9.4219 54.688h8.9844v-54.688h-8.9844zm0 21.297h8.9844v-11.391h-8.9844z"/>
<path id="e" d="m54.891 33.016v-33.016h-8.9844v32.719q0 7.7656-3.0312 11.609-3.0312 3.8594-9.0781 3.8594-7.2812 0-11.484-4.6406-4.2031-4.625-4.2031-12.641v-30.906h-9.0312v54.688h9.0312v-8.5q3.2344 4.9375 7.5938 7.375 4.375 2.4375 10.094 2.4375 9.4219 0 14.25-5.8281 4.8438-5.8281 4.8438-17.156z"/>
<path id="f" d="m34.281 27.484q-10.891 0-15.094-2.4844t-4.2031-8.5q0-4.7812 3.1562-7.5938 3.1562-2.7969 8.5625-2.7969 7.4844 0 12 5.2969t4.5156 14.078v2zm17.922 3.7188v-31.203h-8.9844v8.2969q-3.0781-4.9688-7.6719-7.3438t-11.234-2.375q-8.3906 0-13.359 4.7188-4.9531 4.7188-4.9531 12.625 0 9.2188 6.1719 13.906 6.1875 4.6875 18.438 4.6875h12.609v0.89062q0 6.2031-4.0781 9.5938t-11.453 3.3906q-4.6875 0-9.1406-1.125-4.4375-1.125-8.5312-3.375v8.3125q4.9219 1.9062 9.5625 2.8438 4.6406 0.95312 9.0312 0.95312 11.875 0 17.734-6.1562 5.8594-6.1406 5.8594-18.641z"/>
<path id="j" d="m9.4219 75.984h8.9844v-75.984h-8.9844z"/>
</defs>
<use xlink:href="#k"/>
<use x="44.083984" xlink:href="#d"/>
<use x="105.607422" xlink:href="#i"/>
<use x="144.970703" xlink:href="#l"/>
<use x="242.382812" xlink:href="#h"/>
<use x="270.166016" xlink:href="#e"/>
<use x="333.544922" xlink:href="#f"/>
<use x="394.824219" xlink:href="#j"/>
</g>
</g>
<path d="m96.69 350.83 2.4068 4.9148q1.0555 2.1554 3.211 1.0999l6.9535-3.4052q2.1554-1.0555 1.0999-3.211l-2.4068-4.9148q-1.0555-2.1554-3.211-1.0999l-6.9535 3.4052q-2.1554 1.0555-1.0999 3.211z" clip-path="url(#a)" fill="#fff" stroke="#fff"/>
<g clip-path="url(#a)">
<g transform="translate(100.34 349.04) rotate(63.909) scale(.08 -.08)">
<defs>
<path id="n" d="m34.188 63.188-13.391-36.281h26.812zm-5.5781 9.7188h11.188l27.781-72.906h-10.25l-6.6406 18.703h-32.859l-6.6406-18.703h-10.406z"/>
</defs>
<use xlink:href="#n"/>
</g>
</g>
<path d="m75.088 355.22 1.8999-4.4339q0.94526-2.206-1.2608-3.1513l-7.1167-3.0494q-2.206-0.94526-3.1513 1.2608l-1.8999 4.4339q-0.94526 2.206 1.2608 3.1513l7.1167 3.0494q2.206 0.94526 3.1513-1.2608z" clip-path="url(#a)" fill="#fff" stroke="#fff"/>
<g clip-path="url(#a)">
<g transform="translate(71.352 353.62) rotate(-66.805) scale(.08 -.08)">
<defs>
<path id="u" d="m19.672 64.797v-27.391h12.406q6.8906 0 10.641 3.5625 3.7656 3.5625 3.7656 10.156 0 6.5469-3.7656 10.109-3.75 3.5625-10.641 3.5625zm-9.8594 8.1094h22.266q12.266 0 18.531-5.5469 6.2812-5.5469 6.2812-16.234 0-10.797-6.2812-16.312-6.2656-5.5156-18.531-5.5156h-12.406v-29.297h-9.8594z"/>
</defs>
<use xlink:href="#u"/>
</g>
</g>
<path d="m84.814 354.36 0.98844-5.3825q0.43349-2.3605-1.927-2.794l-7.6152-1.3984q-2.3605-0.43349-2.794 1.927l-0.98844 5.3825q-0.43349 2.3605 1.927 2.794l7.6152 1.3984q2.3605 0.43349 2.794-1.927z" clip-path="url(#a)" fill="#fff" stroke="#fff"/>
<g clip-path="url(#a)">
<g transform="translate(80.817 353.62) rotate(-79.594) scale(.08 -.08)">
<use xlink:href="#n"/>
</g>
</g>
<path d="m83.644 348.39 0.71149 5.8116q0.29164 2.3822 2.6739 2.0906l7.6851-0.94086q2.3822-0.29164 2.0906-2.6739l-0.71149-5.8116q-0.29164-2.3822-2.6739-2.0906l-7.6851 0.94086q-2.3822 0.29164-2.0906 2.6739z" clip-path="url(#a)" fill="#fff" stroke="#fff"/>
<g clip-path="url(#a)">
<g transform="translate(87.678 347.89) rotate(83.02) scale(.08 -.08)">
<defs>
<path id="z" d="m8.6875 72.906h9.9219v-44.297q0-11.719 4.2344-16.875 4.25-5.1406 13.781-5.1406 9.4688 0 13.719 5.1406 4.25 5.1562 4.25 16.875v44.297h9.9062v-45.516q0-14.25-7.0625-21.531-7.0469-7.2812-20.812-7.2812-13.828 0-20.891 7.2812-7.0469 7.2812-7.0469 21.531z"/>
</defs>
<use xlink:href="#z"/>
</g>
</g>
<path d="m181.57 245.76 1.9448-5.1153q0.8529-2.2433-1.3904-3.0962l-7.2371-2.7515q-2.2433-0.8529-3.0962 1.3904l-1.9448 5.1153q-0.8529 2.2433 1.3904 3.0962l7.2371 2.7515q2.2433 0.8529 3.0962-1.3904z" clip-path="url(#a)" fill="#fff" stroke="#fff"/>
<g clip-path="url(#a)">
<g transform="translate(177.77 244.32) rotate(-69.184) scale(.08 -.08)">
<use xlink:href="#n"/>
</g>
</g>
<path d="m197.61 244.96 1.2736-4.6526q0.63366-2.3148-1.6812-2.9485l-7.4678-2.0442q-2.3148-0.63366-2.9485 1.6812l-1.2736 4.6526q-0.63366 2.3148 1.6812 2.9485l7.4678 2.0442q2.3148 0.63366 2.9485-1.6812z" clip-path="url(#a)" fill="#fff" stroke="#fff"/>
<g clip-path="url(#a)">
<g transform="translate(193.69 243.89) rotate(-74.691) scale(.08 -.08)">
<use xlink:href="#u"/>
</g>
</g>
<path d="m322.62 136.7 5.1085 1.9626q2.2404 0.86069 3.1011-1.3797l2.7766-7.2275q0.8607-2.2404-1.3797-3.1011l-5.1085-1.9626q-2.2404-0.86069-3.1011 1.3797l-2.7766 7.2275q-0.8607 2.2404 1.3797 3.1011z" clip-path="url(#a)" fill="#fff" stroke="#fff"/>
<g clip-path="url(#a)">
<g transform="translate(324.08 132.91) rotate(21.016) scale(.08 -.08)">
<use xlink:href="#n"/>
</g>
</g>
<path d="m114.99 405.56v33.808q0 2.4 2.4 2.4h7.7425q2.4 0 2.4-2.4v-33.808q0-2.4-2.4-2.4h-7.7425q-2.4 0-2.4 2.4z" clip-path="url(#a)" fill="#fff" stroke="#fff"/>
<g clip-path="url(#a)">
<g transform="translate(119.05 405.56) rotate(90) scale(.08 -.08)">
<use xlink:href="#k"/>
<use x="44.083984" xlink:href="#d"/>
<use x="105.607422" xlink:href="#i"/>
<use x="144.970703" xlink:href="#l"/>
<use x="242.382812" xlink:href="#h"/>
<use x="270.166016" xlink:href="#e"/>
<use x="333.544922" xlink:href="#f"/>
<use x="394.824219" xlink:href="#j"/>
</g>
</g>
<path d="m146.02 405.56v33.808q0 2.4 2.4 2.4h7.7425q2.4 0 2.4-2.4v-33.808q0-2.4-2.4-2.4h-7.7425q-2.4 0-2.4 2.4z" clip-path="url(#a)" fill="#fff" stroke="#fff"/>
<g clip-path="url(#a)">
<g transform="translate(150.09 405.56) rotate(90) scale(.08 -.08)">
<use xlink:href="#k"/>
<use x="44.083984" xlink:href="#d"/>
<use x="105.607422" xlink:href="#i"/>
<use x="144.970703" xlink:href="#l"/>
<use x="242.382812" xlink:href="#h"/>
<use x="270.166016" xlink:href="#e"/>
<use x="333.544922" xlink:href="#f"/>
<use x="394.824219" xlink:href="#j"/>
</g>
</g>
<path d="m307.49 284.08 4.0726-3.7834q1.7583-1.6335 0.12486-3.3918l-5.2697-5.6725q-1.6335-1.7583-3.3918-0.12486l-4.0726 3.7834q-1.7583 1.6335-0.12486 3.3918l5.2697 5.6725q1.6335 1.7583 3.3918 0.12486z" clip-path="url(#a)" fill="#fff" stroke="#fff"/>
<g clip-path="url(#a)">
<g transform="translate(304.72 281.11) rotate(-42.892) scale(.08 -.08)">
<defs>
<path id="am" d="m44.391 34.188q3.1719-1.0781 6.1719-4.5938t6.0312-9.6719l10.016-19.922h-10.609l-9.3125 18.703q-3.625 7.3281-7.0156 9.7188t-9.25 2.3906h-10.75v-30.812h-9.8594v72.906h22.266q12.5 0 18.656-5.2344 6.1562-5.2188 6.1562-15.766 0-6.8906-3.2031-11.438-3.2031-4.5312-9.2969-6.2812zm-24.719 30.609v-25.875h12.406q7.125 0 10.766 3.2969t3.6406 9.6875-3.6406 9.6406-10.766 3.25z"/>
</defs>
<use xlink:href="#am"/>
</g>
</g>
<path d="m352.63 211.81 4.86-2.5157q2.1314-1.1033 1.0281-3.2347l-3.5592-6.8759q-1.1033-2.1314-3.2347-1.0281l-4.86 2.5157q-2.1314 1.1033-1.0281 3.2347l3.5592 6.8759q1.1033 2.1314 3.2347 1.0281z" clip-path="url(#a)" fill="#fff" stroke="#fff"/>
<g clip-path="url(#a)">
<g transform="translate(350.76 208.2) rotate(-27.367) scale(.08 -.08)">
<use xlink:href="#n"/>
</g>
</g>
<path d="m403.96 281.32 1.0518-4.7077q0.52329-2.3423-1.819-2.8655l-7.5562-1.6882q-2.3423-0.52329-2.8655 1.819l-1.0518 4.7077q-0.52329 2.3423 1.819 2.8655l7.5562 1.6882q2.3423 0.52329 2.8655-1.819z" clip-path="url(#a)" fill="#fff" stroke="#fff"/>
<g clip-path="url(#a)">
<g transform="translate(399.99 280.43) rotate(-77.406) scale(.08 -.08)">
<use xlink:href="#u"/>
</g>
</g>
<path d="m452.03 276.65 1.9395 5.8467q0.75567 2.2779 3.0336 1.5223l7.3487-2.4378q2.2779-0.75567 1.5223-3.0336l-1.9395-5.8467q-0.75566-2.2779-3.0336-1.5223l-7.3487 2.4378q-2.2779 0.75566-1.5223 3.0336z" clip-path="url(#a)" fill="#fff" stroke="#fff"/>
<g clip-path="url(#a)">
<g transform="translate(455.89 275.37) rotate(71.648) scale(.08 -.08)">
<defs>
<path id="ac" d="m19.672 64.797v-56.688h11.922q15.094 0 22.094 6.8281 7 6.8438 7 21.594 0 14.641-7 21.453t-22.094 6.8125zm-9.8594 8.1094h20.266q21.188 0 31.094-8.8125 9.9219-8.8125 9.9219-27.562 0-18.859-9.9688-27.703-9.9531-8.8281-31.047-8.8281h-20.266z"/>
</defs>
<use xlink:href="#ac"/>
</g>
</g>
<path d="m595.03 210.56 5.3586 1.1107q2.3501 0.48709 2.8371-1.863l1.5714-7.5814q0.48709-2.3501-1.863-2.8371l-5.3586-1.1107q-2.3501-0.48709-2.8371 1.863l-1.5714 7.5814q-0.48709 2.3501 1.863 2.8371z" clip-path="url(#a)" fill="#fff" stroke="#fff"/>
<g clip-path="url(#a)">
<g transform="translate(595.86 206.58) rotate(11.71) scale(.08 -.08)">
<use xlink:href="#n"/>
</g>
</g>
<path d="m181.49 405.56v33.808q0 2.4 2.4 2.4h7.7425q2.4 0 2.4-2.4v-33.808q0-2.4-2.4-2.4h-7.7425q-2.4 0-2.4 2.4z" clip-path="url(#a)" fill="#fff" stroke="#fff"/>
<g clip-path="url(#a)">
<g transform="translate(185.56 405.56) rotate(90) scale(.08 -.08)">
<use xlink:href="#k"/>
<use x="44.083984" xlink:href="#d"/>
<use x="105.607422" xlink:href="#i"/>
<use x="144.970703" xlink:href="#l"/>
<use x="242.382812" xlink:href="#h"/>
<use x="270.166016" xlink:href="#e"/>
<use x="333.544922" xlink:href="#f"/>
<use x="394.824219" xlink:href="#j"/>
</g>
</g>
<path d="m259.64 318.68 1.76-4.7387q0.8356-2.2498-1.4142-3.0854l-7.2581-2.6957q-2.2498-0.8356-3.0854 1.4142l-1.76 4.7387q-0.8356 2.2498 1.4142 3.0854l7.2581 2.6957q2.2498 0.8356 3.0854-1.4142z" clip-path="url(#a)" fill="#fff" stroke="#fff"/>
<g clip-path="url(#a)">
<g transform="translate(255.83 317.26) rotate(-69.625) scale(.08 -.08)">
<defs>
<path id="v" d="m9.8125 72.906h46.094v-8.3125h-36.234v-21.578h34.719v-8.2969h-34.719v-26.422h37.109v-8.2969h-46.969z"/>
</defs>
<use xlink:href="#v"/>
</g>
</g>
<path d="m282.35 276.68 1.0056 4.954q0.47742 2.352 2.8295 1.8746l7.5878-1.5402q2.352-0.47742 1.8746-2.8295l-1.0056-4.954q-0.47742-2.352-2.8295-1.8746l-7.5878 1.5402q-2.352 0.47742-1.8746 2.8295z" clip-path="url(#a)" fill="#fff" stroke="#fff"/>
<g clip-path="url(#a)">
<g transform="translate(286.33 275.87) rotate(78.526) scale(.08 -.08)">
<use xlink:href="#v"/>
</g>
</g>
<path d="m294.41 313.06 1.4544 5.3936q0.62484 2.3172 2.9421 1.6924l7.4755-2.0158q2.3172-0.62484 1.6924-2.9421l-1.4544-5.3936q-0.62484-2.3172-2.9421-1.6924l-7.4755 2.0158q-2.3172 0.62484-1.6924 2.9421z" clip-path="url(#a)" fill="#fff" stroke="#fff"/>
<g clip-path="url(#a)">
<g transform="translate(298.33 312) rotate(74.909) scale(.08 -.08)">
<defs>
<path id="w" d="m64.406 67.281v-10.391q-4.9844 4.6406-10.625 6.9219-5.6406 2.2969-11.984 2.2969-12.5 0-19.141-7.6406t-6.6406-22.094q0-14.406 6.6406-22.047t19.141-7.6406q6.3438 0 11.984 2.2969t10.625 6.9375v-10.312q-5.1719-3.5156-10.969-5.2812-5.7812-1.75-12.219-1.75-16.562 0-26.094 10.125-9.5156 10.141-9.5156 27.672 0 17.578 9.5156 27.703 9.5312 10.141 26.094 10.141 6.5312 0 12.312-1.7344 5.7969-1.7344 10.875-5.2031z"/>
</defs>
<use xlink:href="#w"/>
</g>
</g>
<path d="m367.71 405.56v33.808q0 2.4 2.4 2.4h7.7425q2.4 0 2.4-2.4v-33.808q0-2.4-2.4-2.4h-7.7425q-2.4 0-2.4 2.4z" clip-path="url(#a)" fill="#fff" stroke="#fff"/>
<g clip-path="url(#a)">
<g transform="translate(371.77 405.56) rotate(90) scale(.08 -.08)">
<use xlink:href="#k"/>
<use x="44.083984" xlink:href="#d"/>
<use x="105.607422" xlink:href="#i"/>
<use x="144.970703" xlink:href="#l"/>
<use x="242.382812" xlink:href="#h"/>
<use x="270.166016" xlink:href="#e"/>
<use x="333.544922" xlink:href="#f"/>
<use x="394.824219" xlink:href="#j"/>
</g>
</g>
<path d="m456.84 439.26 22.47-25.259q1.5952-1.7932-0.19798-3.3883l-5.7848-5.1461q-1.7932-1.5952-3.3883 0.19798l-22.47 25.259q-1.5952 1.7932 0.19798 3.3883l5.7848 5.1461q1.7932 1.5952 3.3883-0.19797z" clip-path="url(#a)" fill="#fff" stroke="#fff"/>
<g clip-path="url(#a)">
<g transform="translate(453.8 436.56) rotate(-48.344) scale(.08 -.08)">
<use xlink:href="#k"/>
<use x="44.083984" xlink:href="#d"/>
<use x="105.607422" xlink:href="#i"/>
<use x="144.970703" xlink:href="#l"/>
<use x="242.382812" xlink:href="#h"/>
<use x="270.166016" xlink:href="#e"/>
<use x="333.544922" xlink:href="#f"/>
<use x="394.824219" xlink:href="#j"/>
</g>
</g>
<path d="m500.35 439.49 0.69927-33.8q0.049641-2.3995-2.3498-2.4491l-7.7408-0.16014q-2.3995-0.049641-2.4491 2.3498l-0.69927 33.8q-0.049641 2.3995 2.3498 2.4491l7.7408 0.16014q2.3995 0.049641 2.4491-2.3498z" clip-path="url(#a)" fill="#fff" stroke="#fff"/>
<g clip-path="url(#a)">
<g transform="translate(496.28 439.41) rotate(-88.815) scale(.08 -.08)">
<use xlink:href="#k"/>
<use x="44.083984" xlink:href="#d"/>
<use x="105.607422" xlink:href="#i"/>
<use x="144.970703" xlink:href="#l"/>
<use x="242.382812" xlink:href="#h"/>
<use x="270.166016" xlink:href="#e"/>
<use x="333.544922" xlink:href="#f"/>
<use x="394.824219" xlink:href="#j"/>
</g>
</g>
<path d="m511.66 414.19 22.758 25.001q1.6156 1.7748 3.3904 0.15923l5.7256-5.2119q1.7748-1.6156 0.15923-3.3904l-22.758-25.001q-1.6156-1.7748-3.3904-0.15923l-5.7256 5.2119q-1.7748 1.6156-0.15923 3.3904z" clip-path="url(#a)" fill="#fff" stroke="#fff"/>
<g clip-path="url(#a)">
<g transform="translate(514.67 411.45) rotate(47.689) scale(.08 -.08)">
<use xlink:href="#k"/>
<use x="44.083984" xlink:href="#d"/>
<use x="105.607422" xlink:href="#i"/>
<use x="144.970703" xlink:href="#l"/>
<use x="242.382812" xlink:href="#h"/>
<use x="270.166016" xlink:href="#e"/>
<use x="333.544922" xlink:href="#f"/>
<use x="394.824219" xlink:href="#j"/>
</g>
</g>
<path d="m723.46 284.52 4.1914-2.868q1.9807-1.3553 0.6254-3.336l-4.3722-6.3898q-1.3553-1.9807-3.336-0.6254l-4.1914 2.868q-1.9807 1.3553-0.6254 3.336l4.3722 6.3898q1.3553 1.9807 3.336 0.6254z" clip-path="url(#a)" fill="#fff" stroke="#fff"/>
<g clip-path="url(#a)">
<g transform="translate(721.17 281.17) rotate(-34.382) scale(.08 -.08)">
<defs>
<path id="aa" d="m53.516 70.516v-9.625q-5.6094 2.6875-10.594 4-4.9844 1.3281-9.625 1.3281-8.0469 0-12.422-3.125t-4.375-8.8906q0-4.8438 2.9062-7.3125 2.9062-2.4531 11.016-3.9688l5.9531-1.2188q11.031-2.1094 16.281-7.4062t5.25-14.172q0-10.609-7.1094-16.078-7.0938-5.4688-20.812-5.4688-5.1719 0-11.016 1.1719-5.8281 1.1719-12.078 3.4688v10.156q6-3.3594 11.766-5.0781 5.7656-1.7031 11.328-1.7031 8.4375 0 13.031 3.3125 4.5938 3.3281 4.5938 9.4844 0 5.3594-3.2969 8.3906t-10.812 4.5469l-6.0156 1.1719q-11.031 2.1875-15.969 6.875-4.9219 4.6875-4.9219 13.047 0 9.6719 6.8125 15.234t18.766 5.5625q5.1406 0 10.453-0.9375 5.3281-0.92188 10.891-2.7656z"/>
</defs>
<use xlink:href="#aa"/>
</g>
</g>
<path d="m774.28 311.53 0.46875 6.1421q0.18263 2.393 2.5757 2.2104l7.7201-0.58917q2.393-0.18263 2.2104-2.5757l-0.46874-6.1421q-0.18263-2.393-2.5757-2.2104l-7.7201 0.58917q-2.393 0.18263-2.2104 2.5757z" clip-path="url(#a)" fill="#fff" stroke="#fff"/>
<g clip-path="url(#a)">
<g transform="translate(778.33 311.22) rotate(85.636) scale(.08 -.08)">
<use xlink:href="#ac"/>
</g>
</g>
<path d="m816.03 315.12 3.2126 4.8949q1.3169 2.0064 3.3233 0.68958l6.4729-4.2483q2.0064-1.3169 0.68958-3.3233l-3.2126-4.8949q-1.3169-2.0064-3.3233-0.68958l-6.4729 4.2483q-2.0064 1.3169-0.68958 3.3233z" clip-path="url(#a)" fill="#fff" stroke="#fff"/>
<g clip-path="url(#a)">
<g transform="translate(819.43 312.89) rotate(56.722) scale(.08 -.08)">
<use xlink:href="#z"/>
</g>
</g>
<path d="m654.47 355.47 2.1238-4.0818q1.1078-2.129-1.0213-3.2368l-6.8684-3.5737q-2.129-1.1078-3.2368 1.0213l-2.1238 4.0818q-1.1078 2.129 1.0213 3.2368l6.8684 3.5737q2.129 1.1078 3.2368-1.0213z" clip-path="url(#a)" fill="#fff" stroke="#fff"/>
<g clip-path="url(#a)">
<g transform="translate(650.87 353.59) rotate(-62.512) scale(.08 -.08)">
<defs>
<path id="ao" d="m9.8125 72.906h41.891v-8.3125h-32.031v-21.484h28.906v-8.2969h-28.906v-34.812h-9.8594z"/>
</defs>
<use xlink:href="#ao"/>
</g>
</g>
<path d="m680.81 350.95 2.5784 4.9556q1.1078 2.129 3.2368 1.0213l6.8684-3.5737q2.129-1.1078 1.0213-3.2368l-2.5784-4.9556q-1.1078-2.129-3.2368-1.0213l-6.8684 3.5737q-2.129 1.1078-1.0213 3.2368z" clip-path="url(#a)" fill="#fff" stroke="#fff"/>
<g clip-path="url(#a)">
<g transform="translate(684.41 349.07) rotate(62.512) scale(.08 -.08)">
<use xlink:href="#w"/>
</g>
</g>
<path d="m780.04 405.56v33.808q0 2.4 2.4 2.4h7.7425q2.4 0 2.4-2.4v-33.808q0-2.4-2.4-2.4h-7.7425q-2.4 0-2.4 2.4z" clip-path="url(#a)" fill="#fff" stroke="#fff"/>
<g clip-path="url(#a)">
<g transform="translate(784.1 405.56) rotate(90) scale(.08 -.08)">
<use xlink:href="#k"/>
<use x="44.083984" xlink:href="#d"/>
<use x="105.607422" xlink:href="#i"/>
<use x="144.970703" xlink:href="#l"/>
<use x="242.382812" xlink:href="#h"/>
<use x="270.166016" xlink:href="#e"/>
<use x="333.544922" xlink:href="#f"/>
<use x="394.824219" xlink:href="#j"/>
</g>
</g>
<path d="m624.86 405.56v33.808q0 2.4 2.4 2.4h7.7425q2.4 0 2.4-2.4v-33.808q0-2.4-2.4-2.4h-7.7425q-2.4 0-2.4 2.4z" clip-path="url(#a)" fill="#fff" stroke="#fff"/>
<g clip-path="url(#a)">
<g transform="translate(628.92 405.56) rotate(90) scale(.08 -.08)">
<use xlink:href="#k"/>
<use x="44.083984" xlink:href="#d"/>
<use x="105.607422" xlink:href="#i"/>
<use x="144.970703" xlink:href="#l"/>
<use x="242.382812" xlink:href="#h"/>
<use x="270.166016" xlink:href="#e"/>
<use x="333.544922" xlink:href="#f"/>
<use x="394.824219" xlink:href="#j"/>
</g>
</g>
<path d="m700.23 405.56v33.808q0 2.4 2.4 2.4h7.7425q2.4 0 2.4-2.4v-33.808q0-2.4-2.4-2.4h-7.7425q-2.4 0-2.4 2.4z" clip-path="url(#a)" fill="#fff" stroke="#fff"/>
<g clip-path="url(#a)">
<g transform="translate(704.29 405.56) rotate(90) scale(.08 -.08)">
<use xlink:href="#k"/>
<use x="44.083984" xlink:href="#d"/>
<use x="105.607422" xlink:href="#i"/>
<use x="144.970703" xlink:href="#l"/>
<use x="242.382812" xlink:href="#h"/>
<use x="270.166016" xlink:href="#e"/>
<use x="333.544922" xlink:href="#f"/>
<use x="394.824219" xlink:href="#j"/>
</g>
</g>
<path d="m221.4 405.56v33.808q0 2.4 2.4 2.4h7.7425q2.4 0 2.4-2.4v-33.808q0-2.4-2.4-2.4h-7.7425q-2.4 0-2.4 2.4z" clip-path="url(#a)" fill="#fff" stroke="#fff"/>
<g clip-path="url(#a)">
<g transform="translate(225.46 405.56) rotate(90) scale(.08 -.08)">
<use xlink:href="#k"/>
<use x="44.083984" xlink:href="#d"/>
<use x="105.607422" xlink:href="#i"/>
<use x="144.970703" xlink:href="#l"/>
<use x="242.382812" xlink:href="#h"/>
<use x="270.166016" xlink:href="#e"/>
<use x="333.544922" xlink:href="#f"/>
<use x="394.824219" xlink:href="#j"/>
</g>
</g>
<path d="m301.76 349.94 1.7461 5.1864q0.76578 2.2746 3.0403 1.5088l7.3378-2.4704q2.2746-0.76578 1.5088-3.0403l-1.7461-5.1864q-0.76578-2.2746-3.0403-1.5088l-7.3378 2.4704q-2.2746 0.76578-1.5088 3.0403z" clip-path="url(#a)" fill="#fff" stroke="#fff"/>
<g clip-path="url(#a)">
<g transform="translate(305.62 348.64) rotate(71.393) scale(.08 -.08)">
<use xlink:href="#n"/>
</g>
</g>
<path d="m289.33 354.94 1.6205-4.8133q0.76578-2.2746-1.5088-3.0403l-7.3378-2.4704q-2.2746-0.76578-3.0403 1.5088l-1.6205 4.8133q-0.76578 2.2746 1.5088 3.0403l7.3378 2.4704q2.2746 0.76578 3.0403-1.5088z" clip-path="url(#a)" fill="#fff" stroke="#fff"/>
<g clip-path="url(#a)">
<g transform="translate(285.48 353.64) rotate(-71.393) scale(.08 -.08)">
<use xlink:href="#aa"/>
</g>
</g>
<path d="m314.5 405.56v33.808q0 2.4 2.4 2.4h7.7425q2.4 0 2.4-2.4v-33.808q0-2.4-2.4-2.4h-7.7425q-2.4 0-2.4 2.4z" clip-path="url(#a)" fill="#fff" stroke="#fff"/>
<g clip-path="url(#a)">
<g transform="translate(318.57 405.56) rotate(90) scale(.08 -.08)">
<use xlink:href="#k"/>
<use x="44.083984" xlink:href="#d"/>
<use x="105.607422" xlink:href="#i"/>
<use x="144.970703" xlink:href="#l"/>
<use x="242.382812" xlink:href="#h"/>
<use x="270.166016" xlink:href="#e"/>
<use x="333.544922" xlink:href="#f"/>
<use x="394.824219" xlink:href="#j"/>
</g>
</g>
<path d="m265.73 405.56v33.808q0 2.4 2.4 2.4h7.7425q2.4 0 2.4-2.4v-33.808q0-2.4-2.4-2.4h-7.7425q-2.4 0-2.4 2.4z" clip-path="url(#a)" fill="#fff" stroke="#fff"/>
<g clip-path="url(#a)">
<g transform="translate(269.8 405.56) rotate(90) scale(.08 -.08)">
<use xlink:href="#k"/>
<use x="44.083984" xlink:href="#d"/>
<use x="105.607422" xlink:href="#i"/>
<use x="144.970703" xlink:href="#l"/>
<use x="242.382812" xlink:href="#h"/>
<use x="270.166016" xlink:href="#e"/>
<use x="333.544922" xlink:href="#f"/>
<use x="394.824219" xlink:href="#j"/>
</g>
</g>
<path d="m48.484 405.56v33.808q0 2.4 2.4 2.4h7.7425q2.4 0 2.4-2.4v-33.808q0-2.4-2.4-2.4h-7.7425q-2.4 0-2.4 2.4z" clip-path="url(#a)" fill="#fff" stroke="#fff"/>
<g clip-path="url(#a)">
<g transform="translate(52.548 405.56) rotate(90) scale(.08 -.08)">
<use xlink:href="#k"/>
<use x="44.083984" xlink:href="#d"/>
<use x="105.607422" xlink:href="#i"/>
<use x="144.970703" xlink:href="#l"/>
<use x="242.382812" xlink:href="#h"/>
<use x="270.166016" xlink:href="#e"/>
<use x="333.544922" xlink:href="#f"/>
<use x="394.824219" xlink:href="#j"/>
</g>
</g>
<path d="m66.219 405.56v33.808q0 2.4 2.4 2.4h7.7425q2.4 0 2.4-2.4v-33.808q0-2.4-2.4-2.4h-7.7425q-2.4 0-2.4 2.4z" clip-path="url(#a)" fill="#fff" stroke="#fff"/>
<g clip-path="url(#a)">
<g transform="translate(70.283 405.56) rotate(90) scale(.08 -.08)">
<use xlink:href="#k"/>
<use x="44.083984" xlink:href="#d"/>
<use x="105.607422" xlink:href="#i"/>
<use x="144.970703" xlink:href="#l"/>
<use x="242.382812" xlink:href="#h"/>
<use x="270.166016" xlink:href="#e"/>
<use x="333.544922" xlink:href="#f"/>
<use x="394.824219" xlink:href="#j"/>
</g>
</g>
<path d="m88.387 405.56v33.808q0 2.4 2.4 2.4h7.7425q2.4 0 2.4-2.4v-33.808q0-2.4-2.4-2.4h-7.7425q-2.4 0-2.4 2.4z" clip-path="url(#a)" fill="#fff" stroke="#fff"/>
<g clip-path="url(#a)">
<g transform="translate(92.451 405.56) rotate(90) scale(.08 -.08)">
<use xlink:href="#k"/>
<use x="44.083984" xlink:href="#d"/>
<use x="105.607422" xlink:href="#i"/>
<use x="144.970703" xlink:href="#l"/>
<use x="242.382812" xlink:href="#h"/>
<use x="270.166016" xlink:href="#e"/>
<use x="333.544922" xlink:href="#f"/>
<use x="394.824219" xlink:href="#j"/>
</g>
</g>
<path d="m864.27 405.56v33.808q0 2.4 2.4 2.4h7.7425q2.4 0 2.4-2.4v-33.808q0-2.4-2.4-2.4h-7.7425q-2.4 0-2.4 2.4z" clip-path="url(#a)" fill="#fff" stroke="#fff"/>
<g clip-path="url(#a)">
<g transform="translate(868.34 405.56) rotate(90) scale(.08 -.08)">
<use xlink:href="#k"/>
<use x="44.083984" xlink:href="#d"/>
<use x="105.607422" xlink:href="#i"/>
<use x="144.970703" xlink:href="#l"/>
<use x="242.382812" xlink:href="#h"/>
<use x="270.166016" xlink:href="#e"/>
<use x="333.544922" xlink:href="#f"/>
<use x="394.824219" xlink:href="#j"/>
</g>
</g>
<defs>
<path id="b" d="m0 8.6603c2.2967 0 4.4997-0.9125 6.1237-2.5365 1.624-1.624 2.5365-3.827 2.5365-6.1237s-0.9125-4.4997-2.5365-6.1237c-1.624-1.624-3.827-2.5365-6.1237-2.5365s-4.4997 0.9125-6.1237 2.5365c-1.624 1.624-2.5365 3.827-2.5365 6.1237s0.9125 4.4997 2.5365 6.1237c1.624 1.624 3.827 2.5365 6.1237 2.5365z"/>
</defs>
<g clip-path="url(#a)" fill="#ffffff" stroke="#ffffff">
<use x="41.454545" y="458.181818" xlink:href="#b"/>
<use x="54.755469" y="458.181818" xlink:href="#b"/>
<use x="72.490034" y="458.181818" xlink:href="#b"/>
<use x="94.65824" y="458.181818" xlink:href="#b"/>
<use x="121.260088" y="458.181818" xlink:href="#b"/>
<use x="152.295576" y="458.181818" xlink:href="#b"/>
<use x="187.764706" y="458.181818" xlink:href="#b"/>
<use x="227.667477" y="458.181818" xlink:href="#b"/>
<use x="272.003889" y="458.181818" xlink:href="#b"/>
<use x="320.773943" y="458.181818" xlink:href="#b"/>
<use x="373.977637" y="458.181818" xlink:href="#b"/>
<use x="431.614973" y="458.181818" xlink:href="#b"/>
<use x="493.68595" y="458.181818" xlink:href="#b"/>
<use x="560.190569" y="458.181818" xlink:href="#b"/>
<use x="631.128828" y="458.181818" xlink:href="#b"/>
<use x="706.500729" y="458.181818" xlink:href="#b"/>
<use x="786.306271" y="458.181818" xlink:href="#b"/>
<use x="870.545455" y="458.181818" xlink:href="#b"/>
<use x="119.782207" y="21.818182" xlink:href="#b"/>
<use x="41.454545" y="386.746038" xlink:href="#b"/>
<use x="85.790958" y="314.316508" xlink:href="#b"/>
<use x="232.101118" y="95.207838" xlink:href="#b"/>
<use x="121.260088" y="386.746038" xlink:href="#b"/>
<use x="152.295576" y="386.746038" xlink:href="#b"/>
<use x="422.747691" y="168.449874" xlink:href="#b"/>
<use x="187.764706" y="386.746038" xlink:href="#b"/>
<use x="281.610112" y="241.507092" xlink:href="#b"/>
<use x="373.977637" y="386.746038" xlink:href="#b"/>
<use x="495.163831" y="386.746038" xlink:href="#b"/>
<use x="775.222168" y="241.507092" xlink:href="#b"/>
<use x="668.814779" y="314.316508" xlink:href="#b"/>
<use x="786.306271" y="386.746038" xlink:href="#b"/>
<use x="631.128828" y="386.746038" xlink:href="#b"/>
<use x="706.500729" y="386.746038" xlink:href="#b"/>
<use x="227.667477" y="386.746038" xlink:href="#b"/>
<use x="296.388916" y="314.316508" xlink:href="#b"/>
<use x="320.773943" y="386.746038" xlink:href="#b"/>
<use x="272.003889" y="386.746038" xlink:href="#b"/>
<use x="54.755469" y="386.746038" xlink:href="#b"/>
<use x="72.490034" y="386.746038" xlink:href="#b"/>
<use x="94.65824" y="386.746038" xlink:href="#b"/>
<use x="870.545455" y="386.746038" xlink:href="#b"/>
</g>
<g clip-path="url(#a)">
<g transform="translate(35.126 460.94) scale(.1 -.1)">
<use xlink:href="#v"/>
<use x="63.183594" xlink:href="#e"/>
</g>
</g>
<g clip-path="url(#a)">
<g transform="translate(29.633 460.94) scale(.1 -.1)">
<defs>
<path id="q" d="m30.609 48.391q-7.2188 0-11.422-5.6406t-4.2031-15.453 4.1719-15.453q4.1875-5.6406 11.453-5.6406 7.1875 0 11.375 5.6562 4.2031 5.6719 4.2031 15.438 0 9.7188-4.2031 15.406-4.1875 5.6875-11.375 5.6875zm0 7.6094q11.719 0 18.406-7.625 6.7031-7.6094 6.7031-21.078 0-13.422-6.7031-21.078-6.6875-7.6406-18.406-7.6406-11.766 0-18.438 7.6406-6.6562 7.6562-6.6562 21.078 0 13.469 6.6562 21.078 6.6719 7.625 18.438 7.625z"/>
<path id="t" d="m48.688 27.297q0 9.9062-4.0781 15.547t-11.203 5.6406q-7.1406 0-11.219-5.6406t-4.0781-15.547 4.0781-15.547 11.219-5.6406q7.125 0 11.203 5.6406t4.0781 15.547zm-30.578 19.094q2.8438 4.875 7.1562 7.2344 4.3281 2.375 10.328 2.375 9.9688 0 16.188-7.9062 6.2344-7.9062 6.2344-20.797t-6.2344-20.812q-6.2188-7.9062-16.188-7.9062-6 0-10.328 2.375-4.3125 2.375-7.1562 7.25v-8.2031h-9.0312v75.984h9.0312z"/>
<path id="p" d="m44.281 53.078v-8.5q-3.7969 1.9531-7.9062 2.9219-4.0938 0.98438-8.5 0.98438-6.6875 0-10.031-2.0469t-3.3438-6.1562q0-3.125 2.3906-4.9062t9.625-3.3906l3.0781-0.6875q9.5625-2.0469 13.594-5.7812t4.0312-10.422q0-7.625-6.0312-12.078-6.0312-4.4375-16.578-4.4375-4.3906 0-9.1562 0.85938t-10.031 2.5625v9.2812q4.9844-2.5938 9.8125-3.8906 4.8281-1.2812 9.5781-1.2812 6.3438 0 9.75 2.1719 3.4219 2.1719 3.4219 6.125 0 3.6562-2.4688 5.6094-2.4531 1.9531-10.812 3.7656l-3.125 0.73438q-8.3438 1.75-12.062 5.3906-3.7031 3.6406-3.7031 9.9844 0 7.7188 5.4688 11.906 5.4688 4.2031 15.531 4.2031 4.9688 0 9.3594-0.73438 4.4062-0.71875 8.1094-2.1875z"/>
<path id="ak" d="m2.9844 54.688h9.5156l17.094-45.891 17.094 45.891h9.5156l-20.516-54.688h-12.203z"/>
<path id="o" d="m18.312 70.219v-15.531h18.5v-6.9844h-18.5v-29.688q0-6.6875 1.8281-8.5938t7.4531-1.9062h9.2188v-7.5156h-9.2188q-10.406 0-14.359 3.875-3.9531 3.8906-3.9531 14.141v29.688h-6.5938v6.9844h6.5938v15.531z"/>
</defs>
<use xlink:href="#q"/>
<use x="61.181641" xlink:href="#t"/>
<use x="124.658203" xlink:href="#p"/>
<use x="176.757812" xlink:href="#d"/>
<use x="238.28125" xlink:href="#i"/>
<use x="279.394531" xlink:href="#ak"/>
<use x="338.574219" xlink:href="#f"/>
<use x="399.853516" xlink:href="#e"/>
<use x="463.232422" xlink:href="#o"/>
</g>
</g>
<g clip-path="url(#a)">
<g transform="translate(54.311 460.94) scale(.1 -.1)">
<use xlink:href="#w"/>
<use x="69.824219" xlink:href="#q"/>
<use x="131.005859" xlink:href="#e"/>
<use x="194.384766" xlink:href="#p"/>
<use x="246.484375" xlink:href="#d"/>
<use x="308.007812" xlink:href="#h"/>
<use x="335.791016" xlink:href="#j"/>
</g>
</g>
<g clip-path="url(#a)">
<g transform="translate(93.069 460.94) scale(.1 -.1)">
<defs>
<path id="ap" d="m11.719 12.406h10.297v-8.4062l-8-15.625h-6.2969l4 15.625z"/>
</defs>
<use xlink:href="#ap"/>
</g>
</g>
<g clip-path="url(#a)">
<g transform="translate(116.79 460.94) scale(.1 -.1)">
<defs>
<path id="au" d="m9.4219 54.688h8.9844v-55.672q0-10.438-3.9844-15.125-3.9688-4.6875-12.812-4.6875h-3.4219v7.6094h2.4062q5.125 0 6.9688 2.375 1.8594 2.3594 1.8594 9.8281zm0 21.297h8.9844v-11.391h-8.9844z"/>
</defs>
<use xlink:href="#au"/>
<use x="27.783203" xlink:href="#d"/>
</g>
</g>
<g clip-path="url(#a)">
<g transform="translate(129.28 460.94) scale(.1 -.1)">
<defs>
<path id="s" d="m48.781 52.594v-8.4062q-3.8125 2.1094-7.6406 3.1562t-7.7344 1.0469q-8.75 0-13.594-5.5469-4.8281-5.5312-4.8281-15.547t4.8281-15.562q4.8438-5.5312 13.594-5.5312 3.9062 0 7.7344 1.0469t7.6406 3.1562v-8.3125q-3.7656-1.75-7.7969-2.625-4.0156-0.89062-8.5625-0.89062-12.359 0-19.641 7.7656-7.2656 7.7656-7.2656 20.953 0 13.375 7.3438 21.031 7.3594 7.6719 20.156 7.6719 4.1406 0 8.0938-0.85938 3.9531-0.84375 7.6719-2.5469z"/>
</defs>
<use xlink:href="#s"/>
<use x="54.980469" xlink:href="#q"/>
<use x="116.162109" xlink:href="#e"/>
<use x="179.541016" xlink:href="#p"/>
<use x="231.640625" xlink:href="#o"/>
<use x="270.849609" xlink:href="#f"/>
<use x="332.128906" xlink:href="#o"/>
<use x="371.337891" xlink:href="#f"/>
<use x="432.617188" xlink:href="#h"/>
</g>
</g>
<g clip-path="url(#a)">
<g transform="translate(178.35 460.94) scale(.1 -.1)">
<defs>
<path id="as" d="m14.797 27.297q0-9.9062 4.0781-15.547t11.203-5.6406 11.219 5.6406q4.1094 5.6406 4.1094 15.547t-4.1094 15.547q-4.0938 5.6406-11.219 5.6406t-11.203-5.6406-4.0781-15.547zm30.609-19.094q-2.8281-4.875-7.1562-7.25-4.3125-2.375-10.375-2.375-9.9062 0-16.141 7.9062-6.2188 7.9219-6.2188 20.812t6.2188 20.797q6.2344 7.9062 16.141 7.9062 6.0625 0 10.375-2.375 4.3281-2.3594 7.1562-7.2344v8.2969h8.9844v-75.484h-8.9844z"/>
<path id="r" d="m8.5 21.578v33.109h8.9844v-32.766q0-7.7656 3.0156-11.656 3.0312-3.875 9.0938-3.875 7.2656 0 11.484 4.6406 4.2344 4.6406 4.2344 12.656v31h8.9844v-54.688h-8.9844v8.4062q-3.2656-4.9844-7.5938-7.4062-4.3125-2.4219-10.031-2.4219-9.4219 0-14.312 5.8594-4.875 5.8594-4.875 17.141z"/>
</defs>
<use xlink:href="#as"/>
<use x="63.476562" xlink:href="#r"/>
<use x="126.855469" xlink:href="#d"/>
</g>
</g>
<g clip-path="url(#a)">
<g transform="translate(221.84 460.94) scale(.1 -.1)">
<use xlink:href="#s"/>
<use x="54.980469" xlink:href="#d"/>
</g>
</g>
<g clip-path="url(#a)">
<g transform="translate(257.67 460.94) scale(.1 -.1)">
<use xlink:href="#t"/>
<use x="63.476562" xlink:href="#i"/>
<use x="104.589844" xlink:href="#f"/>
<use x="165.869141" xlink:href="#ak"/>
<use x="225.048828" xlink:href="#d"/>
</g>
</g>
<g clip-path="url(#a)">
<g transform="translate(303.62 460.94) scale(.1 -.1)">
<defs>
<path id="al" d="m45.406 27.984q0 9.7656-4.0312 15.125-4.0156 5.375-11.297 5.375-7.2188 0-11.25-5.375-4.0312-5.3594-4.0312-15.125 0-9.7188 4.0312-15.094t11.25-5.375q7.2812 0 11.297 5.375 4.0312 5.375 4.0312 15.094zm8.9844-21.203q0-13.953-6.2031-20.766-6.1875-6.8125-18.984-6.8125-4.7344 0-8.9375 0.70312t-8.1562 2.1719v8.7344q3.9531-2.1406 7.8125-3.1562 3.8594-1.0312 7.8594-1.0312 8.8438 0 13.234 4.6094t4.3906 13.938v4.4531q-2.7812-4.8438-7.125-7.2344t-10.406-2.3906q-10.047 0-16.203 7.6562-6.1562 7.6719-6.1562 20.328 0 12.688 6.1562 20.344 6.1562 7.6719 16.203 7.6719 6.0625 0 10.406-2.3906t7.125-7.2188v8.2969h8.9844z"/>
<path id="ar" d="m48.781 52.594v-8.4062q-3.8125 2.1094-7.6406 3.1562t-7.7344 1.0469q-8.75 0-13.594-5.5469-4.8281-5.5312-4.8281-15.547t4.8281-15.562q4.8438-5.5312 13.594-5.5312 3.9062 0 7.7344 1.0469t7.6406 3.1562v-8.3125q-3.7656-1.75-7.7969-2.625-4.0156-0.89062-8.5625-0.89062-12.359 0-19.641 7.7656-7.2656 7.7656-7.2656 20.953 0 13.375 7.3438 21.031 7.3594 7.6719 20.156 7.6719 4.1406 0 8.0938-0.85938 3.9531-0.84375 7.6719-2.5469zm-12.672-52.594q2.6719-3.0312 3.9844-5.5938 1.3281-2.5625 1.3281-4.9062 0-4.3438-2.9375-6.5625-2.9219-2.2188-8.6875-2.2188-2.2344 0-4.3594 0.29688-2.125 0.28125-4.2344 0.875v6.3906q1.6719-0.82812 3.4688-1.1875 1.8125-0.375 4.1094-0.375 2.875 0 4.3438 1.1719t1.4688 3.4219q0 1.4531-1.0625 3.5781-1.0469 2.125-3.2344 5.1094z"/>
</defs>
<use xlink:href="#al"/>
<use x="63.476562" xlink:href="#f"/>
<use x="124.755859" xlink:href="#i"/>
<use x="163.619141" xlink:href="#ar"/>
<use x="218.599609" xlink:href="#q"/>
<use x="279.78125" xlink:href="#e"/>
</g>
</g>
<g clip-path="url(#a)">
<g transform="translate(352.02 460.94) scale(.1 -.1)">
<use xlink:href="#p"/>
<use x="52.099609" xlink:href="#r"/>
<use x="115.478516" xlink:href="#t"/>
<use x="178.955078" xlink:href="#h"/>
<use x="206.738281" xlink:href="#p"/>
<use x="258.837891" xlink:href="#p"/>
<use x="310.9375" xlink:href="#f"/>
<use x="372.216797" xlink:href="#h"/>
<use x="400" xlink:href="#o"/>
</g>
</g>
<g clip-path="url(#a)">
<g transform="translate(421.46 460.94) scale(.1 -.1)">
<use xlink:href="#o"/>
<use x="39.208984" xlink:href="#f"/>
<use x="100.488281" xlink:href="#e"/>
<use x="163.867188" xlink:href="#o"/>
</g>
</g>
<g clip-path="url(#a)">
<g transform="translate(484.67 460.94) scale(.1 -.1)">
<use xlink:href="#p"/>
<use x="52.099609" xlink:href="#q"/>
<use x="113.28125" xlink:href="#h"/>
<use x="141.064453" xlink:href="#o"/>
</g>
</g>
<g clip-path="url(#a)">
<g transform="translate(550.77 460.94) scale(.1 -.1)">
<defs>
<path id="at" d="m18.109 8.2031v-29h-9.0312v75.484h9.0312v-8.2969q2.8438 4.875 7.1562 7.2344 4.3281 2.375 10.328 2.375 9.9688 0 16.188-7.9062 6.2344-7.9062 6.2344-20.797t-6.2344-20.812q-6.2188-7.9062-16.188-7.9062-6 0-10.328 2.375-4.3125 2.375-7.1562 7.25zm30.578 19.094q0 9.9062-4.0781 15.547t-11.203 5.6406q-7.1406 0-11.219-5.6406t-4.0781-15.547 4.0781-15.547 11.219-5.6406q7.125 0 11.203 5.6406t4.0781 15.547z"/>
</defs>
<use xlink:href="#at"/>
<use x="63.476562" xlink:href="#d"/>
<use x="125" xlink:href="#r"/>
</g>
</g>
<g clip-path="url(#a)">
<g transform="translate(628.37 460.94) scale(.1 -.1)">
<defs>
<path id="aq" d="m17.922 72.906v-27.109h-8.2969v27.109z"/>
</defs>
<use xlink:href="#j"/>
<use x="27.783203" xlink:href="#aq"/>
</g>
</g>
<g clip-path="url(#a)">
<g transform="translate(683.55 460.94) scale(.1 -.1)">
<defs>
<path id="av" d="m37.109 75.984v-7.4844h-8.5938q-4.8281 0-6.7188-1.9531-1.875-1.9531-1.875-7.0312v-4.8281h14.797v-6.9844h-14.797v-47.703h-9.0312v47.703h-8.5938v6.9844h8.5938v3.8125q0 9.125 4.25 13.297 4.25 4.1875 13.469 4.1875z"/>
</defs>
<use xlink:href="#h"/>
<use x="27.783203" xlink:href="#e"/>
<use x="91.162109" xlink:href="#av"/>
<use x="126.367188" xlink:href="#j"/>
<use x="154.150391" xlink:href="#r"/>
<use x="217.529297" xlink:href="#d"/>
<use x="279.052734" xlink:href="#e"/>
<use x="342.431641" xlink:href="#s"/>
<use x="397.412109" xlink:href="#d"/>
</g>
</g>
<g clip-path="url(#a)">
<g transform="translate(764.23 461.14) scale(.1 -.1)">
<defs>
<path id="aj" d="m56.203 29.594v-4.3906h-41.312q0.59375-9.2812 5.5938-14.141t13.938-4.8594q5.1719 0 10.031 1.2656t9.6562 3.8125v-8.5q-4.8438-2.0469-9.9219-3.125t-10.297-1.0781q-13.094 0-20.734 7.6094-7.6406 7.625-7.6406 20.625 0 13.422 7.25 21.297 7.25 7.8906 19.562 7.8906 11.031 0 17.453-7.1094 6.4219-7.0938 6.4219-19.297zm-8.9844 2.6406q-0.09375 7.3594-4.125 11.75-4.0312 4.4062-10.672 4.4062-7.5156 0-12.031-4.25t-5.2031-11.969zm-8.6875 47.75h9.7188l-15.906-18.359h-7.4844z"/>
</defs>
<use xlink:href="#al"/>
<use x="63.476562" xlink:href="#aj"/>
<use x="125" xlink:href="#e"/>
<use x="188.378906" xlink:href="#aj"/>
<use x="249.902344" xlink:href="#i"/>
<use x="291.015625" xlink:href="#f"/>
<use x="352.294922" xlink:href="#j"/>
<use x="380.078125" xlink:href="#d"/>
</g>
</g>
<g clip-path="url(#a)">
<g transform="translate(868.96 460.94) scale(.1 -.1)">
<defs>
<path id="g" d="m10.688 12.406h10.312v-12.406h-10.312z"/>
</defs>
<use xlink:href="#g"/>
</g>
</g>
<g clip-path="url(#a)">
<g transform="translate(111.83 24.578) scale(.1 -.1)">
<defs>
<path id="c" d="m12.406 8.2969h16.109v55.625l-17.531-3.5156v8.9844l17.438 3.5156h9.8594v-64.609h16.109v-8.2969h-41.984z"/>
</defs>
<use xlink:href="#c"/>
<use x="63.623047" xlink:href="#g"/>
<use x="95.410156" xlink:href="#c"/>
</g>
</g>
<g clip-path="url(#a)">
<g transform="translate(33.503 389.51) scale(.1 -.1)">
<defs>
<path id="m" d="m19.188 8.2969h34.422v-8.2969h-46.281v8.2969q5.6094 5.8125 15.297 15.594 9.7031 9.7969 12.188 12.641 4.7344 5.3125 6.6094 9 1.8906 3.6875 1.8906 7.25 0 5.8125-4.0781 9.4688-4.0781 3.6719-10.625 3.6719-4.6406 0-9.7969-1.6094-5.1406-1.6094-11-4.8906v9.9688q5.9531 2.3906 11.125 3.6094 5.1875 1.2188 9.4844 1.2188 11.328 0 18.062-5.6719 6.7344-5.6562 6.7344-15.125 0-4.5-1.6875-8.5312-1.6719-4.0156-6.125-9.4844-1.2188-1.4219-7.7656-8.1875-6.5312-6.7656-18.453-18.922z"/>
</defs>
<use xlink:href="#c"/>
<use x="63.623047" xlink:href="#g"/>
<use x="95.410156" xlink:href="#m"/>
</g>
</g>
<g clip-path="url(#a)">
<g transform="translate(77.839 317.08) scale(.1 -.1)">
<defs>
<path id="y" d="m40.578 39.312q7.0781-1.5156 11.047-6.3125 3.9844-4.7812 3.9844-11.812 0-10.781-7.4219-16.703-7.4219-5.9062-21.094-5.9062-4.5781 0-9.4375 0.90625t-10.031 2.7188v9.5156q4.0938-2.3906 8.9688-3.6094 4.8906-1.2188 10.219-1.2188 9.2656 0 14.125 3.6562t4.8594 10.641q0 6.4531-4.5156 10.078-4.5156 3.6406-12.562 3.6406h-8.5v8.1094h8.8906q7.2656 0 11.125 2.9062t3.8594 8.375q0 5.6094-3.9844 8.6094-3.9688 3.0156-11.391 3.0156-4.0625 0-8.7031-0.89062-4.6406-0.875-10.203-2.7188v8.7812q5.625 1.5625 10.531 2.3438t9.25 0.78125q11.234 0 17.766-5.1094 6.5469-5.0938 6.5469-13.781 0-6.0625-3.4688-10.234t-9.8594-5.7812z"/>
</defs>
<use xlink:href="#c"/>
<use x="63.623047" xlink:href="#g"/>
<use x="95.410156" xlink:href="#y"/>
</g>
</g>
<g clip-path="url(#a)">
<g transform="translate(224.15 97.967) scale(.1 -.1)">
<defs>
<path id="x" d="m37.797 64.312-24.906-38.922h24.906zm-2.5938 8.5938h12.406v-47.516h10.406v-8.2031h-10.406v-17.188h-9.8125v17.188h-32.906v9.5156z"/>
</defs>
<use xlink:href="#c"/>
<use x="63.623047" xlink:href="#g"/>
<use x="95.410156" xlink:href="#x"/>
</g>
</g>
<g clip-path="url(#a)">
<g transform="translate(113.31 389.51) scale(.1 -.1)">
<defs>
<path id="ag" d="m33.016 40.375q-6.6406 0-10.531-4.5469-3.875-4.5312-3.875-12.438 0-7.8594 3.875-12.438 3.8906-4.5625 10.531-4.5625t10.516 4.5625q3.875 4.5781 3.875 12.438 0 7.9062-3.875 12.438-3.875 4.5469-10.516 4.5469zm19.578 30.922v-8.9844q-3.7188 1.75-7.5 2.6719-3.7812 0.9375-7.5 0.9375-9.7656 0-14.922-6.5938-5.1406-6.5938-5.875-19.922 2.875 4.25 7.2188 6.5156 4.3594 2.2656 9.5781 2.2656 10.984 0 17.359-6.6719 6.375-6.6562 6.375-18.125 0-11.234-6.6406-18.031-6.6406-6.7812-17.672-6.7812-12.656 0-19.344 9.6875-6.6875 9.7031-6.6875 28.109 0 17.281 8.2031 27.562t22.016 10.281q3.7188 0 7.5-0.73438t7.8906-2.1875z"/>
</defs>
<use xlink:href="#c"/>
<use x="63.623047" xlink:href="#g"/>
<use x="95.410156" xlink:href="#ag"/>
</g>
</g>
<g clip-path="url(#a)">
<g transform="translate(144.34 389.51) scale(.1 -.1)">
<defs>
<path id="af" d="m8.2031 72.906h46.875v-4.2031l-26.469-68.703h-10.297l24.906 64.594h-35.016z"/>
</defs>
<use xlink:href="#c"/>
<use x="63.623047" xlink:href="#g"/>
<use x="95.410156" xlink:href="#af"/>
</g>
</g>
<g clip-path="url(#a)">
<g transform="translate(414.8 171.21) scale(.1 -.1)">
<defs>
<path id="ae" d="m31.781 34.625q-7.0312 0-11.062-3.7656-4.0156-3.7656-4.0156-10.344 0-6.5938 4.0156-10.359 4.0312-3.7656 11.062-3.7656t11.078 3.7812q4.0625 3.7969 4.0625 10.344 0 6.5781-4.0312 10.344-4.0156 3.7656-11.109 3.7656zm-9.8594 4.1875q-6.3438 1.5625-9.8906 5.9062-3.5312 4.3594-3.5312 10.609 0 8.7344 6.2188 13.812 6.2344 5.0781 17.062 5.0781 10.891 0 17.094-5.0781t6.2031-13.812q0-6.25-3.5469-10.609-3.5312-4.3438-9.8281-5.9062 7.125-1.6562 11.094-6.5 3.9844-4.8281 3.9844-11.797 0-10.609-6.4688-16.281-6.4688-5.6562-18.531-5.6562-12.047 0-18.531 5.6562-6.4688 5.6719-6.4688 16.281 0 6.9688 4 11.797 4.0156 4.8438 11.141 6.5zm-3.6094 15.578q0-5.6562 3.5312-8.8281 3.5469-3.1719 9.9375-3.1719 6.3594 0 9.9375 3.1719 3.5938 3.1719 3.5938 8.8281 0 5.6719-3.5938 8.8438-3.5781 3.1719-9.9375 3.1719-6.3906 0-9.9375-3.1719-3.5312-3.1719-3.5312-8.8438z"/>
</defs>
<use xlink:href="#c"/>
<use x="63.623047" xlink:href="#g"/>
<use x="95.410156" xlink:href="#ae"/>
</g>
</g>
<g clip-path="url(#a)">
<g transform="translate(179.81 389.51) scale(.1 -.1)">
<defs>
<path id="ad" d="m10.984 1.5156v8.9844q3.7188-1.7656 7.5156-2.6875 3.8125-0.92188 7.4844-0.92188 9.7656 0 14.906 6.5625 5.1562 6.5625 5.8906 19.953-2.8281-4.2031-7.1875-6.4531-4.3438-2.25-9.6094-2.25-10.938 0-17.312 6.6094-6.375 6.625-6.375 18.109 0 11.219 6.6406 18 6.6406 6.7969 17.672 6.7969 12.656 0 19.312-9.7031 6.6719-9.6875 6.6719-28.141 0-17.234-8.1875-27.516-8.1719-10.281-21.984-10.281-3.7188 0-7.5312 0.73438-3.7969 0.73438-7.9062 2.2031zm19.625 30.906q6.6406 0 10.516 4.5312 3.8906 4.5469 3.8906 12.469 0 7.8594-3.8906 12.422-3.875 4.5625-10.516 4.5625t-10.516-4.5625-3.875-12.422q0-7.9219 3.875-12.469 3.875-4.5312 10.516-4.5312z"/>
</defs>
<use xlink:href="#c"/>
<use x="63.623047" xlink:href="#g"/>
<use x="95.410156" xlink:href="#ad"/>
</g>
</g>
<g clip-path="url(#a)">
<g transform="translate(270.48 244.27) scale(.1 -.1)">
<defs>
<path id="ai" d="m31.781 66.406q-7.6094 0-11.453-7.5-3.8281-7.4844-3.8281-22.531 0-14.984 3.8281-22.484 3.8438-7.5 11.453-7.5 7.6719 0 11.5 7.5 3.8438 7.5 3.8438 22.484 0 15.047-3.8438 22.531-3.8281 7.5-11.5 7.5zm0 7.8125q12.266 0 18.734-9.7031 6.4688-9.6875 6.4688-28.141 0-18.406-6.4688-28.109-6.4688-9.6875-18.734-9.6875-12.25 0-18.719 9.6875-6.4688 9.7031-6.4688 28.109 0 18.453 6.4688 28.141 6.4688 9.7031 18.719 9.7031z"/>
</defs>
<use xlink:href="#c"/>
<use x="63.623047" xlink:href="#g"/>
<use x="95.410156" xlink:href="#c"/>
<use x="159.033203" xlink:href="#ai"/>
</g>
</g>
<g clip-path="url(#a)">
<g transform="translate(362.84 389.51) scale(.1 -.1)">
<use xlink:href="#c"/>
<use x="63.623047" xlink:href="#g"/>
<use x="95.410156" xlink:href="#c"/>
<use x="159.033203" xlink:href="#c"/>
</g>
</g>
<g clip-path="url(#a)">
<g transform="translate(484.03 389.51) scale(.1 -.1)">
<use xlink:href="#c"/>
<use x="63.623047" xlink:href="#g"/>
<use x="95.410156" xlink:href="#c"/>
<use x="159.033203" xlink:href="#m"/>
</g>
</g>
<g clip-path="url(#a)">
<g transform="translate(764.09 244.27) scale(.1 -.1)">
<use xlink:href="#c"/>
<use x="63.623047" xlink:href="#g"/>
<use x="95.410156" xlink:href="#c"/>
<use x="159.033203" xlink:href="#y"/>
</g>
</g>
<g clip-path="url(#a)">
<g transform="translate(657.68 317.08) scale(.1 -.1)">
<use xlink:href="#c"/>
<use x="63.623047" xlink:href="#g"/>
<use x="95.410156" xlink:href="#c"/>
<use x="159.033203" xlink:href="#x"/>
</g>
</g>
<g clip-path="url(#a)">
<g transform="translate(775.17 389.51) scale(.1 -.1)">
<defs>
<path id="ah" d="m10.797 72.906h38.719v-8.3125h-29.688v-17.859q2.1406 0.73438 4.2812 1.0938 2.1562 0.35938 4.3125 0.35938 12.203 0 19.328-6.6875 7.1406-6.6875 7.1406-18.109 0-11.766-7.3281-18.297-7.3281-6.5156-20.656-6.5156-4.5938 0-9.3594 0.78125-4.75 0.78125-9.8281 2.3438v9.9219q4.3906-2.3906 9.0781-3.5625t9.9062-1.1719q8.4531 0 13.375 4.4375 4.9375 4.4375 4.9375 12.062 0 7.6094-4.9375 12.047-4.9219 4.4531-13.375 4.4531-3.9531 0-7.8906-0.875-3.9219-0.875-8.0156-2.7344z"/>
</defs>
<use xlink:href="#c"/>
<use x="63.623047" xlink:href="#g"/>
<use x="95.410156" xlink:href="#c"/>
<use x="159.033203" xlink:href="#ah"/>
</g>
</g>
<g clip-path="url(#a)">
<g transform="translate(620 389.51) scale(.1 -.1)">
<use xlink:href="#c"/>
<use x="63.623047" xlink:href="#g"/>
<use x="95.410156" xlink:href="#c"/>
<use x="159.033203" xlink:href="#ag"/>
</g>
</g>
<g clip-path="url(#a)">
<g transform="translate(695.37 389.51) scale(.1 -.1)">
<use xlink:href="#c"/>
<use x="63.623047" xlink:href="#g"/>
<use x="95.410156" xlink:href="#c"/>
<use x="159.033203" xlink:href="#af"/>
</g>
</g>
<g clip-path="url(#a)">
<g transform="translate(216.53 389.51) scale(.1 -.1)">
<use xlink:href="#c"/>
<use x="63.623047" xlink:href="#g"/>
<use x="95.410156" xlink:href="#c"/>
<use x="159.033203" xlink:href="#ae"/>
</g>
</g>
<g clip-path="url(#a)">
<g transform="translate(285.26 317.08) scale(.1 -.1)">
<use xlink:href="#c"/>
<use x="63.623047" xlink:href="#g"/>
<use x="95.410156" xlink:href="#c"/>
<use x="159.033203" xlink:href="#ad"/>
</g>
</g>
<g clip-path="url(#a)">
<g transform="translate(309.64 389.51) scale(.1 -.1)">
<use xlink:href="#c"/>
<use x="63.623047" xlink:href="#g"/>
<use x="95.410156" xlink:href="#m"/>
<use x="159.033203" xlink:href="#ai"/>
</g>
</g>
<g clip-path="url(#a)">
<g transform="translate(260.87 389.51) scale(.1 -.1)">
<use xlink:href="#c"/>
<use x="63.623047" xlink:href="#g"/>
<use x="95.410156" xlink:href="#m"/>
<use x="159.033203" xlink:href="#c"/>
</g>
</g>
<g clip-path="url(#a)">
<g transform="translate(43.623 389.51) scale(.1 -.1)">
<use xlink:href="#c"/>
<use x="63.623047" xlink:href="#g"/>
<use x="95.410156" xlink:href="#m"/>
<use x="159.033203" xlink:href="#m"/>
</g>
</g>
<g clip-path="url(#a)">
<g transform="translate(61.357 389.51) scale(.1 -.1)">
<use xlink:href="#c"/>
<use x="63.623047" xlink:href="#g"/>
<use x="95.410156" xlink:href="#m"/>
<use x="159.033203" xlink:href="#y"/>
</g>
</g>
<g clip-path="url(#a)">
<g transform="translate(83.525 389.51) scale(.1 -.1)">
<use xlink:href="#c"/>
<use x="63.623047" xlink:href="#g"/>
<use x="95.410156" xlink:href="#m"/>
<use x="159.033203" xlink:href="#x"/>
</g>
</g>
<g clip-path="url(#a)">
<g transform="translate(859.41 389.51) scale(.1 -.1)">
<use xlink:href="#c"/>
<use x="63.623047" xlink:href="#g"/>
<use x="95.410156" xlink:href="#m"/>
<use x="159.033203" xlink:href="#ah"/>
</g>
</g>
<defs>
<clipPath id="a">
<rect width="912" height="480"/>
</clipPath>
</defs>
</svg>
