<?xml version="1.0" encoding="UTF-8"?>
<!DOCTYPE svg  PUBLIC '-//W3C//DTD SVG 1.1//EN'  'http://www.w3.org/Graphics/SVG/1.1/DTD/svg11.dtd'>
<svg width="1418.7pt" height="746.67pt" version="1.1" viewBox="0 0 1418.7 746.67" xmlns="http://www.w3.org/2000/svg" xmlns:xlink="http://www.w3.org/1999/xlink">
<defs>
<style type="text/css">*{stroke-linecap:butt;stroke-linejoin:round;}</style>
</defs>
<path d="m0 746.67h1418.7v-746.67h-1418.7z" fill="#fff"/>
<g fill="none" stroke="#000">
<path d="m473.99 34.853-409.29 567.57" clip-path="url(#a)"/>
<path d="m473.99 34.853-254.1 347.25" clip-path="url(#a)"/>
<path d="m473.99 34.853 20.465 567.57" clip-path="url(#a)"/>
<path d="m473.99 34.853 211.47 567.57" clip-path="url(#a)"/>
<path d="m473.99 34.853 390.54 118.57" clip-path="url(#a)"/>
<path d="m473.99 34.853-122.79 567.57" clip-path="url(#a)"/>
<path d="m473.99 34.853 163.72 567.57" clip-path="url(#a)"/>
<path d="m64.695 602.42v109.4" clip-path="url(#a)"/>
<path d="m219.89 382.11-59.689 220.31" clip-path="url(#a)"/>
<path d="m219.89 382.11 59.689 110.92" clip-path="url(#a)"/>
<path d="m494.45 602.42-95.502 109.4" clip-path="url(#a)"/>
<path d="m494.45 602.42-47.751 109.4" clip-path="url(#a)"/>
<path d="m494.45 602.42v109.4" clip-path="url(#a)"/>
<path d="m494.45 602.42 47.751 109.4" clip-path="url(#a)"/>
<path d="m494.45 602.42 95.502 109.4" clip-path="url(#a)"/>
<path d="m685.46 602.42v109.4" clip-path="url(#a)"/>
<path d="m864.52 153.42-107.44 339.6" clip-path="url(#a)"/>
<path d="m864.52 153.42-11.938 339.6" clip-path="url(#a)"/>
<path d="m864.52 153.42 119.38 115.63" clip-path="url(#a)"/>
<path d="m757.08 493.02-23.876 109.4" clip-path="url(#a)"/>
<path d="m757.08 493.02 23.876 109.4" clip-path="url(#a)"/>
<path d="m852.59 493.02-23.876 109.4" clip-path="url(#a)"/>
<path d="m852.59 493.02 23.876 109.4" clip-path="url(#a)"/>
<path d="m983.9 269.05-59.689 333.36" clip-path="url(#a)"/>
<path d="m983.9 269.05-11.938 333.36" clip-path="url(#a)"/>
<path d="m983.9 269.05 59.689 223.97" clip-path="url(#a)"/>
<path d="m983.9 269.05 214.88 113.05" clip-path="url(#a)"/>
<path d="m983.9 269.05-202.94 333.36" clip-path="url(#a)" stroke-dasharray="3.7,1.6"/>
<path d="m924.21 602.42v109.4" clip-path="url(#a)"/>
<path d="m971.96 602.42v109.4" clip-path="url(#a)"/>
<path d="m1043.6 493.02-23.876 109.4" clip-path="url(#a)"/>
<path d="m1043.6 493.02 23.876 109.4" clip-path="url(#a)"/>
<path d="m1198.8 382.11-83.564 220.31" clip-path="url(#a)"/>
<path d="m1198.8 382.11-35.813 220.31" clip-path="url(#a)"/>
<path d="m1198.8 382.11 11.938 220.31" clip-path="url(#a)"/>
<path d="m1198.8 382.11 107.44 110.92" clip-path="url(#a)"/>
<path d="m1115.2 602.42v109.4" clip-path="url(#a)"/>
<path d="m1163 602.42v109.4" clip-path="url(#a)"/>
<path d="m1210.7 602.42v109.4" clip-path="url(#a)"/>
<path d="m1306.2 493.02-47.751 109.4" clip-path="url(#a)"/>
<path d="m1306.2 493.02v109.4" clip-path="url(#a)"/>
<path d="m1306.2 493.02 47.751 109.4" clip-path="url(#a)"/>
<path d="m1258.5 602.42v109.4" clip-path="url(#a)"/>
<path d="m1306.2 602.42v109.4" clip-path="url(#a)"/>
<path d="m1019.7 602.42v109.4" clip-path="url(#a)"/>
<path d="m1067.5 602.42v109.4" clip-path="url(#a)"/>
<path d="m828.71 602.42v109.4" clip-path="url(#a)"/>
<path d="m876.46 602.42v109.4" clip-path="url(#a)"/>
<path d="m733.21 602.42v109.4" clip-path="url(#a)"/>
<path d="m780.96 602.42v109.4" clip-path="url(#a)"/>
<path d="m160.2 602.42-47.751 109.4" clip-path="url(#a)"/>
<path d="m160.2 602.42v109.4" clip-path="url(#a)"/>
<path d="m160.2 602.42 47.751 109.4" clip-path="url(#a)"/>
<path d="m279.57 493.02-23.876 109.4" clip-path="url(#a)"/>
<path d="m279.57 493.02 23.876 109.4" clip-path="url(#a)"/>
<path d="m255.7 602.42v109.4" clip-path="url(#a)"/>
<path d="m303.45 602.42v109.4" clip-path="url(#a)"/>
<path d="m589.96 34.853-370.07 347.25" clip-path="url(#a)"/>
<path d="m589.96 34.853 95.502 567.57" clip-path="url(#a)"/>
<path d="m589.96 34.853 274.57 118.57" clip-path="url(#a)"/>
<path d="m142.29 269.05-77.595 333.36" clip-path="url(#a)"/>
<path d="m142.29 269.05 77.595 113.05" clip-path="url(#a)"/>
<path d="m351.2 602.42v109.4" clip-path="url(#a)"/>
<path d="m637.71 602.42v109.4" clip-path="url(#a)"/>
<path d="m1354 602.42v109.4" clip-path="url(#a)"/>
</g>
<path d="m273.12 324.11 2.6073-3.6155q1.4038-1.9466-0.54284-3.3504l-6.2799-4.5287q-1.9466-1.4038-3.3504 0.54284l-2.6073 3.6155q-1.4038 1.9466 0.54284 3.3504l6.2799 4.5287q1.9466 1.4038 3.3504-0.54284z" clip-path="url(#a)" fill="#fff" stroke="#fff"/>
<g clip-path="url(#a)">
<defs>
<path id="r" d="m9.8125 72.906h9.8594v-64.609h35.5v-8.2969h-45.359z"/>
</defs>
<g transform="translate(269.83 321.73) rotate(-54.203) scale(.08 -.08)">
<use xlink:href="#r"/>
</g>
</g>
<path d="m350.22 214.61 3.5528-4.8552q1.4173-1.9368-0.51955-3.3541l-6.2483-4.5722q-1.9368-1.4173-3.3541 0.51955l-3.5528 4.8552q-1.4173 1.9368 0.51955 3.3541l6.2483 4.5722q1.9368 1.4173 3.3541-0.51955z" clip-path="url(#a)" fill="#fff" stroke="#fff"/>
<g clip-path="url(#a)">
<defs>
<path id="aj" d="m9.8125 72.906h9.8594v-29.891h35.844v29.891h9.8594v-72.906h-9.8594v34.719h-35.844v-34.719h-9.8594z"/>
</defs>
<g transform="translate(346.94 212.21) rotate(-53.805) scale(.08 -.08)">
<use xlink:href="#aj"/>
</g>
</g>
<path d="m477.84 315.76 0.22336 6.1947q0.086481 2.3984 2.4849 2.312l7.7375-0.27899q2.3984-0.086481 2.312-2.4849l-0.22336-6.1947q-0.08648-2.3984-2.4849-2.312l-7.7375 0.27899q-2.3984 0.08648-2.312 2.4849z" clip-path="url(#a)" fill="#fff" stroke="#fff"/>
<g clip-path="url(#a)">
<defs>
<path id="ar" d="m59.516 10.406v19.578h-16.109v8.1094h25.875v-31.312q-5.7031-4.0469-12.594-6.125-6.875-2.0781-14.688-2.0781-17.094 0-26.75 9.9844-9.6406 10-9.6406 27.812 0 17.875 9.6406 27.859 9.6562 9.9844 26.75 9.9844 7.125 0 13.547-1.7656 6.4219-1.75 11.844-5.1719v-10.5q-5.4688 4.6406-11.625 6.9844t-12.938 2.3438q-13.391 0-20.109-7.4688-6.7031-7.4688-6.7031-22.266 0-14.75 6.7031-22.219 6.7188-7.4688 20.109-7.4688 5.2188 0 9.3125 0.90625 4.1094 0.90625 7.375 2.8125z"/>
</defs>
<g transform="translate(481.9 315.62) rotate(87.935) scale(.08 -.08)">
<use xlink:href="#ar"/>
</g>
</g>
<path d="m573.07 318.74 1.5563 4.177q0.83794 2.249 3.0869 1.411l7.2553-2.7032q2.249-0.83794 1.411-3.0869l-1.5563-4.177q-0.83794-2.249-3.0869-1.411l-7.2553 2.7032q-2.249 0.83794-1.411 3.0869z" clip-path="url(#a)" fill="#fff" stroke="#fff"/>
<g clip-path="url(#a)">
<g transform="translate(576.88 317.32) rotate(69.565) scale(.08 -.08)">
<use xlink:href="#r"/>
</g>
</g>
<path d="m664.56 99.266 5.7568 1.7478q2.2965 0.69725 2.9937-1.5992l2.2493-7.4086q0.69725-2.2965-1.5992-2.9937l-5.7568-1.7478q-2.2965-0.69725-2.9937 1.5992l-2.2493 7.4086q-0.69725 2.2965 1.5992 2.9937z" clip-path="url(#a)" fill="#fff" stroke="#fff"/>
<g clip-path="url(#a)">
<g transform="translate(665.74 95.377) rotate(16.889) scale(.08 -.08)">
<use xlink:href="#aj"/>
</g>
</g>
<path d="m418.11 322.82 1.238-5.7226q0.50748-2.3457-1.8383-2.8532l-7.5674-1.6372q-2.3457-0.50748-2.8532 1.8383l-1.238 5.7226q-0.50748 2.3457 1.8383 2.8532l7.5674 1.6372q2.3457 0.50748 2.8532-1.8383z" clip-path="url(#a)" fill="#fff" stroke="#fff"/>
<g clip-path="url(#a)">
<defs>
<path id="ac" d="m8.6875 72.906h9.9219v-44.297q0-11.719 4.2344-16.875 4.25-5.1406 13.781-5.1406 9.4688 0 13.719 5.1406 4.25 5.1562 4.25 16.875v44.297h9.9062v-45.516q0-14.25-7.0625-21.531-7.0469-7.2812-20.812-7.2812-13.828 0-20.891 7.2812-7.0469 7.2812-7.0469 21.531z"/>
</defs>
<g transform="translate(414.13 321.96) rotate(-77.793) scale(.08 -.08)">
<use xlink:href="#ac"/>
</g>
</g>
<path d="m549.01 317.56 1.6227 5.6256q0.66517 2.306 2.9712 1.6408l7.4392-2.1459q2.306-0.66517 1.6408-2.9712l-1.6227-5.6256q-0.66517-2.306-2.9712-1.6408l-7.4392 2.1459q-2.306 0.66517-1.6408 2.9712z" clip-path="url(#a)" fill="#fff" stroke="#fff"/>
<g clip-path="url(#a)">
<g transform="translate(552.92 316.43) rotate(73.909) scale(.08 -.08)">
<use xlink:href="#ac"/>
</g>
</g>
<path d="m58.423 639.47v35.285q0 2.4 2.4 2.4h7.7425q2.4 0 2.4-2.4v-35.285q0-2.4-2.4-2.4h-7.7425q-2.4 0-2.4 2.4z" clip-path="url(#a)" fill="#fff" stroke="#fff"/>
<g clip-path="url(#a)">
<defs>
<path id="l" d="m-0.29688 72.906h61.672v-8.3125h-25.875v-64.594h-9.9062v64.594h-25.891z"/>
<path id="d" d="m56.203 29.594v-4.3906h-41.312q0.59375-9.2812 5.5938-14.141t13.938-4.8594q5.1719 0 10.031 1.2656t9.6562 3.8125v-8.5q-4.8438-2.0469-9.9219-3.125t-10.297-1.0781q-13.094 0-20.734 7.6094-7.6406 7.625-7.6406 20.625 0 13.422 7.25 21.297 7.25 7.8906 19.562 7.8906 11.031 0 17.453-7.1094 6.4219-7.0938 6.4219-19.297zm-8.9844 2.6406q-0.09375 7.3594-4.125 11.75-4.0312 4.4062-10.672 4.4062-7.5156 0-12.031-4.25t-5.2031-11.969z"/>
<path id="i" d="m41.109 46.297q-1.5156 0.875-3.2969 1.2812-1.7812 0.42188-3.9219 0.42188-7.625 0-11.703-4.9531t-4.0781-14.234v-28.812h-9.0312v54.688h9.0312v-8.5q2.8438 4.9844 7.375 7.3906 4.5469 2.4219 11.047 2.4219 0.92188 0 2.0469-0.125 1.125-0.10938 2.4844-0.35938z"/>
<path id="k" d="m52 44.188q3.375 6.0625 8.0625 8.9375t11.031 2.875q8.5469 0 13.188-5.9844 4.6406-5.9688 4.6406-17v-33.016h-9.0312v32.719q0 7.8594-2.7969 11.656-2.7812 3.8125-8.4844 3.8125-6.9844 0-11.047-4.6406-4.0469-4.625-4.0469-12.641v-30.906h-9.0312v32.719q0 7.9062-2.7812 11.688t-8.5938 3.7812q-6.8906 0-10.953-4.6562-4.0469-4.6562-4.0469-12.625v-30.906h-9.0312v54.688h9.0312v-8.5q3.0781 5.0312 7.375 7.4219t10.203 2.3906q5.9688 0 10.141-3.0312 4.1719-3.0156 6.1719-8.7812z"/>
<path id="e" d="m9.4219 54.688h8.9844v-54.688h-8.9844zm0 21.297h8.9844v-11.391h-8.9844z"/>
<path id="j" d="m54.891 33.016v-33.016h-8.9844v32.719q0 7.7656-3.0312 11.609-3.0312 3.8594-9.0781 3.8594-7.2812 0-11.484-4.6406-4.2031-4.625-4.2031-12.641v-30.906h-9.0312v54.688h9.0312v-8.5q3.2344 4.9375 7.5938 7.375 4.375 2.4375 10.094 2.4375 9.4219 0 14.25-5.8281 4.8438-5.8281 4.8438-17.156z"/>
<path id="h" d="m34.281 27.484q-10.891 0-15.094-2.4844t-4.2031-8.5q0-4.7812 3.1562-7.5938 3.1562-2.7969 8.5625-2.7969 7.4844 0 12 5.2969t4.5156 14.078v2zm17.922 3.7188v-31.203h-8.9844v8.2969q-3.0781-4.9688-7.6719-7.3438t-11.234-2.375q-8.3906 0-13.359 4.7188-4.9531 4.7188-4.9531 12.625 0 9.2188 6.1719 13.906 6.1875 4.6875 18.438 4.6875h12.609v0.89062q0 6.2031-4.0781 9.5938t-11.453 3.3906q-4.6875 0-9.1406-1.125-4.4375-1.125-8.5312-3.375v8.3125q4.9219 1.9062 9.5625 2.8438 4.6406 0.95312 9.0312 0.95312 11.875 0 17.734-6.1562 5.8594-6.1406 5.8594-18.641z"/>
<path id="f" d="m9.4219 75.984h8.9844v-75.984h-8.9844z"/>
</defs>
<g transform="translate(62.487 639.47) rotate(90) scale(.08 -.08)">
<use xlink:href="#l"/>
<use x="60.818359" xlink:href="#d"/>
<use x="122.341797" xlink:href="#i"/>
<use x="163.439453" xlink:href="#k"/>
<use x="260.851562" xlink:href="#e"/>
<use x="288.634766" xlink:href="#j"/>
<use x="352.013672" xlink:href="#h"/>
<use x="413.292969" xlink:href="#f"/>
</g>
</g>
<path d="m195.46 496.23 1.2614-4.6559q0.6276-2.3165-1.6889-2.9441l-7.4731-2.0247q-2.3165-0.6276-2.9441 1.6889l-1.2614 4.6559q-0.6276 2.3165 1.6889 2.9441l7.4731 2.0247q2.3165 0.6276 2.9441-1.6889z" clip-path="url(#a)" fill="#fff" stroke="#fff"/>
<g clip-path="url(#a)">
<defs>
<path id="ad" d="m19.672 64.797v-27.391h12.406q6.8906 0 10.641 3.5625 3.7656 3.5625 3.7656 10.156 0 6.5469-3.7656 10.109-3.75 3.5625-10.641 3.5625zm-9.8594 8.1094h22.266q12.266 0 18.531-5.5469 6.2812-5.5469 6.2812-16.234 0-10.797-6.2812-16.312-6.2656-5.5156-18.531-5.5156h-12.406v-29.297h-9.8594z"/>
</defs>
<g transform="translate(191.54 495.17) rotate(-74.841) scale(.08 -.08)">
<use xlink:href="#ad"/>
</g>
</g>
<path d="m242.91 438.13 2.5933 4.819q1.1373 2.1134 3.2507 0.9761l6.818-3.669q2.1134-1.1373 0.9761-3.2507l-2.5933-4.819q-1.1373-2.1134-3.2507-0.9761l-6.818 3.669q-2.1134 1.1373-0.9761 3.2507z" clip-path="url(#a)" fill="#fff" stroke="#fff"/>
<g clip-path="url(#a)">
<defs>
<path id="q" d="m34.188 63.188-13.391-36.281h26.812zm-5.5781 9.7188h11.188l27.781-72.906h-10.25l-6.6406 18.703h-32.859l-6.6406-18.703h-10.406z"/>
</defs>
<g transform="translate(246.49 436.2) rotate(61.714) scale(.08 -.08)">
<use xlink:href="#q"/>
</g>
</g>
<path d="m439.82 674.53 23.205-26.581q1.5784-1.808-0.22961-3.3863l-5.8326-5.0919q-1.808-1.5784-3.3863 0.22961l-23.205 26.581q-1.5784 1.808 0.22961 3.3863l5.8326 5.0919q1.808 1.5784 3.3863-0.22961z" clip-path="url(#a)" fill="#fff" stroke="#fff"/>
<g clip-path="url(#a)">
<g transform="translate(436.76 671.86) rotate(-48.879) scale(.08 -.08)">
<use xlink:href="#l"/>
<use x="60.818359" xlink:href="#d"/>
<use x="122.341797" xlink:href="#i"/>
<use x="163.439453" xlink:href="#k"/>
<use x="260.851562" xlink:href="#e"/>
<use x="288.634766" xlink:href="#j"/>
<use x="352.013672" xlink:href="#h"/>
<use x="413.292969" xlink:href="#f"/>
</g>
</g>
<path d="m469.27 675.79 14.116-32.338q0.96012-2.1996-1.2395-3.1597l-7.096-3.0974q-2.1996-0.96012-3.1597 1.2395l-14.116 32.338q-0.96012 2.1996 1.2395 3.1597l7.096 3.0974q2.1996 0.96012 3.1597-1.2395z" clip-path="url(#a)" fill="#fff" stroke="#fff"/>
<g clip-path="url(#a)">
<g transform="translate(465.54 674.17) rotate(-66.419) scale(.08 -.08)">
<use xlink:href="#l"/>
<use x="60.818359" xlink:href="#d"/>
<use x="122.341797" xlink:href="#i"/>
<use x="163.439453" xlink:href="#k"/>
<use x="260.851562" xlink:href="#e"/>
<use x="288.634766" xlink:href="#j"/>
<use x="352.013672" xlink:href="#h"/>
<use x="413.292969" xlink:href="#f"/>
</g>
</g>
<path d="m488.18 639.47v35.285q0 2.4 2.4 2.4h7.7425q2.4 0 2.4-2.4v-35.285q0-2.4-2.4-2.4h-7.7425q-2.4 0-2.4 2.4z" clip-path="url(#a)" fill="#fff" stroke="#fff"/>
<g clip-path="url(#a)">
<g transform="translate(492.25 639.47) rotate(90) scale(.08 -.08)">
<use xlink:href="#l"/>
<use x="60.818359" xlink:href="#d"/>
<use x="122.341797" xlink:href="#i"/>
<use x="163.439453" xlink:href="#k"/>
<use x="260.851562" xlink:href="#e"/>
<use x="288.634766" xlink:href="#j"/>
<use x="352.013672" xlink:href="#h"/>
<use x="413.292969" xlink:href="#f"/>
</g>
</g>
<path d="m505.52 643.46 14.116 32.338q0.96012 2.1996 3.1597 1.2395l7.096-3.0974q2.1996-0.96012 1.2395-3.1597l-14.116-32.338q-0.96012-2.1996-3.1597-1.2395l-7.096 3.0974q-2.1996 0.96012-1.2395 3.1597z" clip-path="url(#a)" fill="#fff" stroke="#fff"/>
<g clip-path="url(#a)">
<g transform="translate(509.25 641.83) rotate(66.419) scale(.08 -.08)">
<use xlink:href="#l"/>
<use x="60.818359" xlink:href="#d"/>
<use x="122.341797" xlink:href="#i"/>
<use x="163.439453" xlink:href="#k"/>
<use x="260.851562" xlink:href="#e"/>
<use x="288.634766" xlink:href="#j"/>
<use x="352.013672" xlink:href="#h"/>
<use x="413.292969" xlink:href="#f"/>
</g>
</g>
<path d="m525.88 647.95 23.205 26.581q1.5784 1.808 3.3863 0.22961l5.8326-5.0919q1.808-1.5784 0.22961-3.3863l-23.205-26.581q-1.5784-1.808-3.3863-0.22961l-5.8326 5.0919q-1.808 1.5784-0.22961 3.3863z" clip-path="url(#a)" fill="#fff" stroke="#fff"/>
<g clip-path="url(#a)">
<g transform="translate(528.94 645.28) rotate(48.879) scale(.08 -.08)">
<use xlink:href="#l"/>
<use x="60.818359" xlink:href="#d"/>
<use x="122.341797" xlink:href="#i"/>
<use x="163.439453" xlink:href="#k"/>
<use x="260.851562" xlink:href="#e"/>
<use x="288.634766" xlink:href="#j"/>
<use x="352.013672" xlink:href="#h"/>
<use x="413.292969" xlink:href="#f"/>
</g>
</g>
<path d="m679.19 639.47v35.285q0 2.4 2.4 2.4h7.7425q2.4 0 2.4-2.4v-35.285q0-2.4-2.4-2.4h-7.7425q-2.4 0-2.4 2.4z" clip-path="url(#a)" fill="#fff" stroke="#fff"/>
<g clip-path="url(#a)">
<g transform="translate(683.25 639.47) rotate(90) scale(.08 -.08)">
<use xlink:href="#l"/>
<use x="60.818359" xlink:href="#d"/>
<use x="122.341797" xlink:href="#i"/>
<use x="163.439453" xlink:href="#k"/>
<use x="260.851562" xlink:href="#e"/>
<use x="288.634766" xlink:href="#j"/>
<use x="352.013672" xlink:href="#h"/>
<use x="413.292969" xlink:href="#f"/>
</g>
</g>
<path d="m815.96 327.72 1.6507-5.2176q0.72393-2.2882-1.5643-3.0121l-7.3819-2.3354q-2.2882-0.72393-3.0121 1.5643l-1.6507 5.2176q-0.72393 2.2882 1.5643 3.0121l7.3819 2.3354q2.2882 0.72393 3.0121-1.5643z" clip-path="url(#a)" fill="#fff" stroke="#fff"/>
<g clip-path="url(#a)">
<g transform="translate(812.08 326.5) rotate(-72.444) scale(.08 -.08)">
<use xlink:href="#q"/>
</g>
</g>
<path d="m864.74 325.85 0.16946-4.8208q0.084314-2.3985-2.3142-2.4828l-7.7377-0.272q-2.3985-0.084314-2.4828 2.3142l-0.16946 4.8208q-0.084314 2.3985 2.3142 2.4828l7.7377 0.272q2.3985 0.084314 2.4828-2.3142z" clip-path="url(#a)" fill="#fff" stroke="#fff"/>
<g clip-path="url(#a)">
<g transform="translate(860.68 325.71) rotate(-87.987) scale(.08 -.08)">
<use xlink:href="#ad"/>
</g>
</g>
<path d="m917.88 213.84 3.9309 3.8074q1.7239 1.6698 3.3937-0.054136l5.3868-5.5614q1.6698-1.7239-0.054136-3.3937l-3.9309-3.8074q-1.7239-1.6698-3.3937 0.054136l-5.3868 5.5614q-1.6698 1.7239 0.054136 3.3937z" clip-path="url(#a)" fill="#fff" stroke="#fff"/>
<g clip-path="url(#a)">
<g transform="translate(920.71 210.92) rotate(44.086) scale(.08 -.08)">
<use xlink:href="#q"/>
</g>
</g>
<path d="m750.73 551.53 1.0779-4.9387q0.51175-2.3448-1.8331-2.8566l-7.5644-1.6509q-2.3448-0.51175-2.8566 1.8331l-1.0779 4.9387q-0.51175 2.3448 1.833 2.8566l7.5644 1.6509q2.3448 0.51175 2.8566-1.8331z" clip-path="url(#a)" fill="#fff" stroke="#fff"/>
<g clip-path="url(#a)">
<defs>
<path id="u" d="m9.8125 72.906h46.094v-8.3125h-36.234v-21.578h34.719v-8.2969h-34.719v-26.422h37.109v-8.2969h-46.969z"/>
</defs>
<g transform="translate(746.76 550.66) rotate(-77.688) scale(.08 -.08)">
<use xlink:href="#u"/>
</g>
</g>
<path d="m762.3 546.33 1.1912 5.4578q0.51175 2.3448 2.8566 1.8331l7.5644-1.6509q2.3448-0.51175 1.833-2.8566l-1.1912-5.4578q-0.51175-2.3448-2.8566-1.8331l-7.5644 1.6509q-2.3448 0.51175-1.8331 2.8566z" clip-path="url(#a)" fill="#fff" stroke="#fff"/>
<g clip-path="url(#a)">
<defs>
<path id="s" d="m64.406 67.281v-10.391q-4.9844 4.6406-10.625 6.9219-5.6406 2.2969-11.984 2.2969-12.5 0-19.141-7.6406t-6.6406-22.094q0-14.406 6.6406-22.047t19.141-7.6406q6.3438 0 11.984 2.2969t10.625 6.9375v-10.312q-5.1719-3.5156-10.969-5.2812-5.7812-1.75-12.219-1.75-16.562 0-26.094 10.125-9.5156 10.141-9.5156 27.672 0 17.578 9.5156 27.703 9.5312 10.141 26.094 10.141 6.5312 0 12.312-1.7344 5.7969-1.7344 10.875-5.2031z"/>
</defs>
<g transform="translate(766.27 545.46) rotate(77.688) scale(.08 -.08)">
<use xlink:href="#s"/>
</g>
</g>
<path d="m846.29 551.31 0.98113-4.4954q0.51175-2.3448-1.8331-2.8566l-7.5644-1.6509q-2.3448-0.51175-2.8566 1.833l-0.98113 4.4954q-0.51175 2.3448 1.8331 2.8566l7.5644 1.6509q2.3448 0.51175 2.8566-1.833z" clip-path="url(#a)" fill="#fff" stroke="#fff"/>
<g clip-path="url(#a)">
<defs>
<path id="as" d="m9.8125 72.906h41.891v-8.3125h-32.031v-21.484h28.906v-8.2969h-28.906v-34.812h-9.8594z"/>
</defs>
<g transform="translate(842.31 550.44) rotate(-77.688) scale(.08 -.08)">
<use xlink:href="#as"/>
</g>
</g>
<path d="m857.8 546.33 1.1912 5.4578q0.51175 2.3448 2.8566 1.8331l7.5644-1.6509q2.3448-0.51175 1.833-2.8566l-1.1912-5.4578q-0.51175-2.3448-2.8566-1.8331l-7.5644 1.6509q-2.3448 0.51175-1.8331 2.8566z" clip-path="url(#a)" fill="#fff" stroke="#fff"/>
<g clip-path="url(#a)">
<g transform="translate(861.77 545.46) rotate(77.688) scale(.08 -.08)">
<use xlink:href="#s"/>
</g>
</g>
<path d="m959.74 439.58 0.97971-5.4717q0.42299-2.3624-1.9394-2.7854l-7.6213-1.3646q-2.3624-0.42299-2.7854 1.9394l-0.97971 5.4717q-0.42299 2.3624 1.9394 2.7854l7.6213 1.3646q2.3624 0.42299 2.7854-1.9394z" clip-path="url(#a)" fill="#fff" stroke="#fff"/>
<g clip-path="url(#a)">
<defs>
<path id="t" d="m44.391 34.188q3.1719-1.0781 6.1719-4.5938t6.0312-9.6719l10.016-19.922h-10.609l-9.3125 18.703q-3.625 7.3281-7.0156 9.7188t-9.25 2.3906h-10.75v-30.812h-9.8594v72.906h22.266q12.5 0 18.656-5.2344 6.1562-5.2188 6.1562-15.766 0-6.8906-3.2031-11.438-3.2031-4.5312-9.2969-6.2812zm-24.719 30.609v-25.875h12.406q7.125 0 10.766 3.2969t3.6406 9.6875-3.6406 9.6406-10.766 3.25z"/>
</defs>
<g transform="translate(955.74 438.86) rotate(-79.849) scale(.08 -.08)">
<use xlink:href="#t"/>
</g>
</g>
<path d="m984.11 438.37 0.17263-4.8207q0.085888-2.3985-2.3126-2.4844l-7.7375-0.27708q-2.3985-0.085889-2.4844 2.3126l-0.17263 4.8207q-0.085889 2.3985 2.3126 2.4844l7.7375 0.27708q2.3985 0.085888 2.4844-2.3126z" clip-path="url(#a)" fill="#fff" stroke="#fff"/>
<g clip-path="url(#a)">
<g transform="translate(980.05 438.23) rotate(-87.949) scale(.08 -.08)">
<use xlink:href="#ad"/>
</g>
</g>
<path d="m1007 380.01 1.4093 5.2879q0.61804 2.3191 2.9371 1.701l7.4814-1.9938q2.3191-0.61804 1.701-2.9371l-1.4093-5.2879q-0.61804-2.3191-2.9371-1.701l-7.4814 1.9938q-2.3191 0.61804-1.701 2.9371z" clip-path="url(#a)" fill="#fff" stroke="#fff"/>
<g clip-path="url(#a)">
<g transform="translate(1010.9 378.96) rotate(75.077) scale(.08 -.08)">
<use xlink:href="#q"/>
</g>
</g>
<path d="m1086 329.86 4.8431 2.5481q2.124 1.1175 3.2414-1.0065l3.605-6.852q1.1175-2.124-1.0065-3.2414l-4.8431-2.5481q-2.124-1.1175-3.2414 1.0065l-3.605 6.852q-1.1175 2.124 1.0065 3.2414z" clip-path="url(#a)" fill="#fff" stroke="#fff"/>
<g clip-path="url(#a)">
<g transform="translate(1087.9 326.26) rotate(27.75) scale(.08 -.08)">
<use xlink:href="#q"/>
</g>
</g>
<path d="m886.36 441.33 2.8457-4.6745q1.248-2.05-0.80203-3.298l-6.6134-4.026q-2.05-1.248-3.298 0.80203l-2.8457 4.6745q-1.248 2.05 0.80203 3.298l6.6134 4.026q2.05 1.248 3.298-0.80203z" clip-path="url(#a)" fill="#fff" stroke="#fff"/>
<g clip-path="url(#a)">
<g transform="translate(882.89 439.22) rotate(-58.668) scale(.08 -.08)">
<use xlink:href="#q"/>
</g>
</g>
<path d="m917.94 639.47v35.285q0 2.4 2.4 2.4h7.7425q2.4 0 2.4-2.4v-35.285q0-2.4-2.4-2.4h-7.7425q-2.4 0-2.4 2.4z" clip-path="url(#a)" fill="#fff" stroke="#fff"/>
<g clip-path="url(#a)">
<g transform="translate(922.01 639.47) rotate(90) scale(.08 -.08)">
<use xlink:href="#l"/>
<use x="60.818359" xlink:href="#d"/>
<use x="122.341797" xlink:href="#i"/>
<use x="163.439453" xlink:href="#k"/>
<use x="260.851562" xlink:href="#e"/>
<use x="288.634766" xlink:href="#j"/>
<use x="352.013672" xlink:href="#h"/>
<use x="413.292969" xlink:href="#f"/>
</g>
</g>
<path d="m965.69 639.47v35.285q0 2.4 2.4 2.4h7.7425q2.4 0 2.4-2.4v-35.285q0-2.4-2.4-2.4h-7.7425q-2.4 0-2.4 2.4z" clip-path="url(#a)" fill="#fff" stroke="#fff"/>
<g clip-path="url(#a)">
<g transform="translate(969.76 639.47) rotate(90) scale(.08 -.08)">
<use xlink:href="#l"/>
<use x="60.818359" xlink:href="#d"/>
<use x="122.341797" xlink:href="#i"/>
<use x="163.439453" xlink:href="#k"/>
<use x="260.851562" xlink:href="#e"/>
<use x="288.634766" xlink:href="#j"/>
<use x="352.013672" xlink:href="#h"/>
<use x="413.292969" xlink:href="#f"/>
</g>
</g>
<path d="m1037.2 551.53 1.0779-4.9387q0.51175-2.3448-1.8331-2.8566l-7.5644-1.6509q-2.3448-0.51175-2.8566 1.8331l-1.0779 4.9387q-0.51175 2.3448 1.8331 2.8566l7.5644 1.6509q2.3448 0.51175 2.8566-1.8331z" clip-path="url(#a)" fill="#fff" stroke="#fff"/>
<g clip-path="url(#a)">
<g transform="translate(1033.3 550.66) rotate(-77.688) scale(.08 -.08)">
<use xlink:href="#u"/>
</g>
</g>
<path d="m1048.8 546.33 1.1912 5.4578q0.51175 2.3448 2.8566 1.8331l7.5644-1.6509q2.3448-0.51175 1.8331-2.8566l-1.1912-5.4578q-0.51175-2.3448-2.8566-1.8331l-7.5644 1.6509q-2.3448 0.51175-1.8331 2.8566z" clip-path="url(#a)" fill="#fff" stroke="#fff"/>
<g clip-path="url(#a)">
<g transform="translate(1052.8 545.46) rotate(77.688) scale(.08 -.08)">
<use xlink:href="#s"/>
</g>
</g>
<path d="m1161.9 497.09 1.9714-5.1974q0.85115-2.244-1.3929-3.0952l-7.2392-2.7458q-2.244-0.85115-3.0952 1.3929l-1.9714 5.1974q-0.85115 2.244 1.3929 3.0952l7.2392 2.7458q2.244 0.85115 3.0952-1.3929z" clip-path="url(#a)" fill="#fff" stroke="#fff"/>
<g clip-path="url(#a)">
<g transform="translate(1158.1 495.64) rotate(-69.228) scale(.08 -.08)">
<use xlink:href="#t"/>
</g>
</g>
<path d="m1186.7 495.76 0.81108-4.9895q0.38508-2.3689-1.9838-2.754l-7.6422-1.2423q-2.3689-0.38508-2.754 1.9838l-0.81108 4.9895q-0.38508 2.3689 1.9838 2.754l7.6422 1.2423q2.3689 0.38508 2.754-1.9838z" clip-path="url(#a)" fill="#fff" stroke="#fff"/>
<g clip-path="url(#a)">
<g transform="translate(1182.6 495.11) rotate(-80.767) scale(.08 -.08)">
<use xlink:href="#u"/>
</g>
</g>
<path d="m1198.3 489.81 0.30225 5.5781q0.12986 2.3965 2.5263 2.2666l7.7312-0.41892q2.3965-0.12986 2.2666-2.5263l-0.30225-5.5781q-0.12986-2.3965-2.5263-2.2666l-7.7312 0.41892q-2.3965 0.12986-2.2666 2.5263z" clip-path="url(#a)" fill="#fff" stroke="#fff"/>
<g clip-path="url(#a)">
<g transform="translate(1202.4 489.59) rotate(86.898) scale(.08 -.08)">
<use xlink:href="#s"/>
</g>
</g>
<path d="m1246.2 440.11 3.5171 3.6309q1.6698 1.7239 3.3937 0.054043l5.5613-5.3869q1.7239-1.6698 0.054042-3.3937l-3.5171-3.6309q-1.6698-1.7239-3.3937-0.054043l-5.5613 5.3869q-1.7239 1.6698-0.054042 3.3937z" clip-path="url(#a)" fill="#fff" stroke="#fff"/>
<g clip-path="url(#a)">
<g transform="translate(1249.2 437.29) rotate(45.912) scale(.08 -.08)">
<use xlink:href="#u"/>
</g>
</g>
<path d="m1108.9 639.47v35.285q0 2.4 2.4 2.4h7.7425q2.4 0 2.4-2.4v-35.285q0-2.4-2.4-2.4h-7.7425q-2.4 0-2.4 2.4z" clip-path="url(#a)" fill="#fff" stroke="#fff"/>
<g clip-path="url(#a)">
<g transform="translate(1113 639.47) rotate(90) scale(.08 -.08)">
<use xlink:href="#l"/>
<use x="60.818359" xlink:href="#d"/>
<use x="122.341797" xlink:href="#i"/>
<use x="163.439453" xlink:href="#k"/>
<use x="260.851562" xlink:href="#e"/>
<use x="288.634766" xlink:href="#j"/>
<use x="352.013672" xlink:href="#h"/>
<use x="413.292969" xlink:href="#f"/>
</g>
</g>
<path d="m1156.7 639.47v35.285q0 2.4 2.4 2.4h7.7425q2.4 0 2.4-2.4v-35.285q0-2.4-2.4-2.4h-7.7425q-2.4 0-2.4 2.4z" clip-path="url(#a)" fill="#fff" stroke="#fff"/>
<g clip-path="url(#a)">
<g transform="translate(1160.8 639.47) rotate(90) scale(.08 -.08)">
<use xlink:href="#l"/>
<use x="60.818359" xlink:href="#d"/>
<use x="122.341797" xlink:href="#i"/>
<use x="163.439453" xlink:href="#k"/>
<use x="260.851562" xlink:href="#e"/>
<use x="288.634766" xlink:href="#j"/>
<use x="352.013672" xlink:href="#h"/>
<use x="413.292969" xlink:href="#f"/>
</g>
</g>
<path d="m1204.4 639.47v35.285q0 2.4 2.4 2.4h7.7425q2.4 0 2.4-2.4v-35.285q0-2.4-2.4-2.4h-7.7425q-2.4 0-2.4 2.4z" clip-path="url(#a)" fill="#fff" stroke="#fff"/>
<g clip-path="url(#a)">
<g transform="translate(1208.5 639.47) rotate(90) scale(.08 -.08)">
<use xlink:href="#l"/>
<use x="60.818359" xlink:href="#d"/>
<use x="122.341797" xlink:href="#i"/>
<use x="163.439453" xlink:href="#k"/>
<use x="260.851562" xlink:href="#e"/>
<use x="288.634766" xlink:href="#j"/>
<use x="352.013672" xlink:href="#h"/>
<use x="413.292969" xlink:href="#f"/>
</g>
</g>
<path d="m1287 552.78 2.2238-5.0946q0.96012-2.1996-1.2395-3.1597l-7.096-3.0974q-2.1996-0.96012-3.1597 1.2395l-2.2238 5.0946q-0.96012 2.1996 1.2395 3.1597l7.096 3.0974q2.1996 0.96012 3.1597-1.2395z" clip-path="url(#a)" fill="#fff" stroke="#fff"/>
<g clip-path="url(#a)">
<g transform="translate(1283.3 551.15) rotate(-66.419) scale(.08 -.08)">
<use xlink:href="#t"/>
</g>
</g>
<path d="m1299.9 544.93v5.5862q0 2.4 2.4 2.4h7.7425q2.4 0 2.4-2.4v-5.5862q0-2.4-2.4-2.4h-7.7425q-2.4 0-2.4 2.4z" clip-path="url(#a)" fill="#fff" stroke="#fff"/>
<g clip-path="url(#a)">
<g transform="translate(1304 544.93) rotate(90) scale(.08 -.08)">
<use xlink:href="#s"/>
</g>
</g>
<path d="m1323.2 547.55 2.3423 5.3661q0.96012 2.1996 3.1597 1.2395l7.096-3.0974q2.1996-0.96012 1.2395-3.1597l-2.3423-5.3661q-0.96012-2.1996-3.1597-1.2395l-7.096 3.0974q-2.1996 0.96012-1.2395 3.1597z" clip-path="url(#a)" fill="#fff" stroke="#fff"/>
<g clip-path="url(#a)">
<g transform="translate(1326.9 545.92) rotate(66.419) scale(.08 -.08)">
<use xlink:href="#ac"/>
</g>
</g>
<path d="m1252.2 639.47v35.285q0 2.4 2.4 2.4h7.7425q2.4 0 2.4-2.4v-35.285q0-2.4-2.4-2.4h-7.7425q-2.4 0-2.4 2.4z" clip-path="url(#a)" fill="#fff" stroke="#fff"/>
<g clip-path="url(#a)">
<g transform="translate(1256.3 639.47) rotate(90) scale(.08 -.08)">
<use xlink:href="#l"/>
<use x="60.818359" xlink:href="#d"/>
<use x="122.341797" xlink:href="#i"/>
<use x="163.439453" xlink:href="#k"/>
<use x="260.851562" xlink:href="#e"/>
<use x="288.634766" xlink:href="#j"/>
<use x="352.013672" xlink:href="#h"/>
<use x="413.292969" xlink:href="#f"/>
</g>
</g>
<path d="m1299.9 639.47v35.285q0 2.4 2.4 2.4h7.7425q2.4 0 2.4-2.4v-35.285q0-2.4-2.4-2.4h-7.7425q-2.4 0-2.4 2.4z" clip-path="url(#a)" fill="#fff" stroke="#fff"/>
<g clip-path="url(#a)">
<g transform="translate(1304 639.47) rotate(90) scale(.08 -.08)">
<use xlink:href="#l"/>
<use x="60.818359" xlink:href="#d"/>
<use x="122.341797" xlink:href="#i"/>
<use x="163.439453" xlink:href="#k"/>
<use x="260.851562" xlink:href="#e"/>
<use x="288.634766" xlink:href="#j"/>
<use x="352.013672" xlink:href="#h"/>
<use x="413.292969" xlink:href="#f"/>
</g>
</g>
<path d="m1013.4 639.47v35.285q0 2.4 2.4 2.4h7.7425q2.4 0 2.4-2.4v-35.285q0-2.4-2.4-2.4h-7.7425q-2.4 0-2.4 2.4z" clip-path="url(#a)" fill="#fff" stroke="#fff"/>
<g clip-path="url(#a)">
<g transform="translate(1017.5 639.47) rotate(90) scale(.08 -.08)">
<use xlink:href="#l"/>
<use x="60.818359" xlink:href="#d"/>
<use x="122.341797" xlink:href="#i"/>
<use x="163.439453" xlink:href="#k"/>
<use x="260.851562" xlink:href="#e"/>
<use x="288.634766" xlink:href="#j"/>
<use x="352.013672" xlink:href="#h"/>
<use x="413.292969" xlink:href="#f"/>
</g>
</g>
<path d="m1061.2 639.47v35.285q0 2.4 2.4 2.4h7.7425q2.4 0 2.4-2.4v-35.285q0-2.4-2.4-2.4h-7.7425q-2.4 0-2.4 2.4z" clip-path="url(#a)" fill="#fff" stroke="#fff"/>
<g clip-path="url(#a)">
<g transform="translate(1065.3 639.47) rotate(90) scale(.08 -.08)">
<use xlink:href="#l"/>
<use x="60.818359" xlink:href="#d"/>
<use x="122.341797" xlink:href="#i"/>
<use x="163.439453" xlink:href="#k"/>
<use x="260.851562" xlink:href="#e"/>
<use x="288.634766" xlink:href="#j"/>
<use x="352.013672" xlink:href="#h"/>
<use x="413.292969" xlink:href="#f"/>
</g>
</g>
<path d="m822.44 639.47v35.285q0 2.4 2.4 2.4h7.7425q2.4 0 2.4-2.4v-35.285q0-2.4-2.4-2.4h-7.7425q-2.4 0-2.4 2.4z" clip-path="url(#a)" fill="#fff" stroke="#fff"/>
<g clip-path="url(#a)">
<g transform="translate(826.5 639.47) rotate(90) scale(.08 -.08)">
<use xlink:href="#l"/>
<use x="60.818359" xlink:href="#d"/>
<use x="122.341797" xlink:href="#i"/>
<use x="163.439453" xlink:href="#k"/>
<use x="260.851562" xlink:href="#e"/>
<use x="288.634766" xlink:href="#j"/>
<use x="352.013672" xlink:href="#h"/>
<use x="413.292969" xlink:href="#f"/>
</g>
</g>
<path d="m870.19 639.47v35.285q0 2.4 2.4 2.4h7.7425q2.4 0 2.4-2.4v-35.285q0-2.4-2.4-2.4h-7.7425q-2.4 0-2.4 2.4z" clip-path="url(#a)" fill="#fff" stroke="#fff"/>
<g clip-path="url(#a)">
<g transform="translate(874.25 639.47) rotate(90) scale(.08 -.08)">
<use xlink:href="#l"/>
<use x="60.818359" xlink:href="#d"/>
<use x="122.341797" xlink:href="#i"/>
<use x="163.439453" xlink:href="#k"/>
<use x="260.851562" xlink:href="#e"/>
<use x="288.634766" xlink:href="#j"/>
<use x="352.013672" xlink:href="#h"/>
<use x="413.292969" xlink:href="#f"/>
</g>
</g>
<path d="m726.94 639.47v35.285q0 2.4 2.4 2.4h7.7425q2.4 0 2.4-2.4v-35.285q0-2.4-2.4-2.4h-7.7425q-2.4 0-2.4 2.4z" clip-path="url(#a)" fill="#fff" stroke="#fff"/>
<g clip-path="url(#a)">
<g transform="translate(731 639.47) rotate(90) scale(.08 -.08)">
<use xlink:href="#l"/>
<use x="60.818359" xlink:href="#d"/>
<use x="122.341797" xlink:href="#i"/>
<use x="163.439453" xlink:href="#k"/>
<use x="260.851562" xlink:href="#e"/>
<use x="288.634766" xlink:href="#j"/>
<use x="352.013672" xlink:href="#h"/>
<use x="413.292969" xlink:href="#f"/>
</g>
</g>
<path d="m774.69 639.47v35.285q0 2.4 2.4 2.4h7.7425q2.4 0 2.4-2.4v-35.285q0-2.4-2.4-2.4h-7.7425q-2.4 0-2.4 2.4z" clip-path="url(#a)" fill="#fff" stroke="#fff"/>
<g clip-path="url(#a)">
<g transform="translate(778.75 639.47) rotate(90) scale(.08 -.08)">
<use xlink:href="#l"/>
<use x="60.818359" xlink:href="#d"/>
<use x="122.341797" xlink:href="#i"/>
<use x="163.439453" xlink:href="#k"/>
<use x="260.851562" xlink:href="#e"/>
<use x="288.634766" xlink:href="#j"/>
<use x="352.013672" xlink:href="#h"/>
<use x="413.292969" xlink:href="#f"/>
</g>
</g>
<path d="m135.01 675.79 14.116-32.338q0.96012-2.1996-1.2395-3.1597l-7.096-3.0974q-2.1996-0.96012-3.1597 1.2395l-14.116 32.338q-0.96012 2.1996 1.2395 3.1597l7.096 3.0974q2.1996 0.96012 3.1597-1.2395z" clip-path="url(#a)" fill="#fff" stroke="#fff"/>
<g clip-path="url(#a)">
<g transform="translate(131.29 674.17) rotate(-66.419) scale(.08 -.08)">
<use xlink:href="#l"/>
<use x="60.818359" xlink:href="#d"/>
<use x="122.341797" xlink:href="#i"/>
<use x="163.439453" xlink:href="#k"/>
<use x="260.851562" xlink:href="#e"/>
<use x="288.634766" xlink:href="#j"/>
<use x="352.013672" xlink:href="#h"/>
<use x="413.292969" xlink:href="#f"/>
</g>
</g>
<path d="m153.93 639.47v35.285q0 2.4 2.4 2.4h7.7425q2.4 0 2.4-2.4v-35.285q0-2.4-2.4-2.4h-7.7425q-2.4 0-2.4 2.4z" clip-path="url(#a)" fill="#fff" stroke="#fff"/>
<g clip-path="url(#a)">
<g transform="translate(157.99 639.47) rotate(90) scale(.08 -.08)">
<use xlink:href="#l"/>
<use x="60.818359" xlink:href="#d"/>
<use x="122.341797" xlink:href="#i"/>
<use x="163.439453" xlink:href="#k"/>
<use x="260.851562" xlink:href="#e"/>
<use x="288.634766" xlink:href="#j"/>
<use x="352.013672" xlink:href="#h"/>
<use x="413.292969" xlink:href="#f"/>
</g>
</g>
<path d="m171.27 643.46 14.116 32.338q0.96012 2.1996 3.1597 1.2395l7.096-3.0974q2.1996-0.96012 1.2395-3.1597l-14.116-32.338q-0.96012-2.1996-3.1597-1.2395l-7.096 3.0974q-2.1996 0.96012-1.2395 3.1597z" clip-path="url(#a)" fill="#fff" stroke="#fff"/>
<g clip-path="url(#a)">
<g transform="translate(174.99 641.83) rotate(66.419) scale(.08 -.08)">
<use xlink:href="#l"/>
<use x="60.818359" xlink:href="#d"/>
<use x="122.341797" xlink:href="#i"/>
<use x="163.439453" xlink:href="#k"/>
<use x="260.851562" xlink:href="#e"/>
<use x="288.634766" xlink:href="#j"/>
<use x="352.013672" xlink:href="#h"/>
<use x="413.292969" xlink:href="#f"/>
</g>
</g>
<path d="m273.22 551.53 1.0779-4.9387q0.51175-2.3448-1.833-2.8566l-7.5644-1.6509q-2.3448-0.51175-2.8566 1.8331l-1.0779 4.9387q-0.51175 2.3448 1.8331 2.8566l7.5644 1.6509q2.3448 0.51175 2.8566-1.8331z" clip-path="url(#a)" fill="#fff" stroke="#fff"/>
<g clip-path="url(#a)">
<g transform="translate(269.25 550.66) rotate(-77.688) scale(.08 -.08)">
<use xlink:href="#u"/>
</g>
</g>
<path d="m284.79 546.33 1.1912 5.4578q0.51175 2.3448 2.8566 1.8331l7.5644-1.6509q2.3448-0.51175 1.8331-2.8566l-1.1912-5.4578q-0.51175-2.3448-2.8566-1.8331l-7.5644 1.6509q-2.3448 0.51175-1.833 2.8566z" clip-path="url(#a)" fill="#fff" stroke="#fff"/>
<g clip-path="url(#a)">
<g transform="translate(288.76 545.46) rotate(77.688) scale(.08 -.08)">
<use xlink:href="#s"/>
</g>
</g>
<path d="m249.43 639.47v35.285q0 2.4 2.4 2.4h7.7425q2.4 0 2.4-2.4v-35.285q0-2.4-2.4-2.4h-7.7425q-2.4 0-2.4 2.4z" clip-path="url(#a)" fill="#fff" stroke="#fff"/>
<g clip-path="url(#a)">
<g transform="translate(253.49 639.47) rotate(90) scale(.08 -.08)">
<use xlink:href="#l"/>
<use x="60.818359" xlink:href="#d"/>
<use x="122.341797" xlink:href="#i"/>
<use x="163.439453" xlink:href="#k"/>
<use x="260.851562" xlink:href="#e"/>
<use x="288.634766" xlink:href="#j"/>
<use x="352.013672" xlink:href="#h"/>
<use x="413.292969" xlink:href="#f"/>
</g>
</g>
<path d="m297.18 639.47v35.285q0 2.4 2.4 2.4h7.7425q2.4 0 2.4-2.4v-35.285q0-2.4-2.4-2.4h-7.7425q-2.4 0-2.4 2.4z" clip-path="url(#a)" fill="#fff" stroke="#fff"/>
<g clip-path="url(#a)">
<g transform="translate(301.24 639.47) rotate(90) scale(.08 -.08)">
<use xlink:href="#l"/>
<use x="60.818359" xlink:href="#d"/>
<use x="122.341797" xlink:href="#i"/>
<use x="163.439453" xlink:href="#k"/>
<use x="260.851562" xlink:href="#e"/>
<use x="288.634766" xlink:href="#j"/>
<use x="352.013672" xlink:href="#h"/>
<use x="413.292969" xlink:href="#f"/>
</g>
</g>
<path d="m405.59 216.45 7.2431-6.7965q1.7502-1.6422 0.10791-3.3924l-5.298-5.6461q-1.6422-1.7502-3.3924-0.10791l-7.2431 6.7965q-1.7502 1.6422-0.10791 3.3924l5.298 5.6461q1.6422 1.7502 3.3924 0.10791z" clip-path="url(#a)" fill="#fff" stroke="#fff"/>
<g clip-path="url(#a)">
<g transform="translate(402.81 213.49) rotate(-43.178) scale(.08 -.08)">
<use xlink:href="#r"/>
<use x="55.744141" xlink:href="#q"/>
</g>
</g>
<path d="m630.69 314.74 1.662 9.8774q0.39824 2.3667 2.765 1.9685l7.6352-1.2847q2.3667-0.39824 1.9685-2.765l-1.662-9.8774q-0.39824-2.3667-2.765-1.9685l-7.6352 1.2847q-2.3667 0.39824-1.9685 2.765z" clip-path="url(#a)" fill="#fff" stroke="#fff"/>
<g clip-path="url(#a)">
<g transform="translate(634.7 314.06) rotate(80.449) scale(.08 -.08)">
<use xlink:href="#r"/>
<use x="55.712891" xlink:href="#t"/>
</g>
</g>
<path d="m720.19 97.927 9.1186 3.9378q2.2033 0.9515 3.1548-1.2518l3.0696-7.108q0.9515-2.2033-1.2518-3.1548l-9.1186-3.9378q-2.2033-0.9515-3.1548 1.2518l-3.0696 7.108q-0.9515 2.2033 1.2518 3.1548z" clip-path="url(#a)" fill="#fff" stroke="#fff"/>
<g clip-path="url(#a)">
<g transform="translate(721.81 94.197) rotate(23.357) scale(.08 -.08)">
<use xlink:href="#r"/>
<use x="55.744141" xlink:href="#q"/>
</g>
</g>
<path d="m108.47 442.04 2.2707-9.7555q0.54409-2.3375-1.7934-2.8816l-7.5409-1.7553q-2.3375-0.54409-2.8816 1.7934l-2.2707 9.7555q-0.54409 2.3375 1.7934 2.8816l7.5409 1.7553q2.3375 0.54409 2.8816-1.7934z" clip-path="url(#a)" fill="#fff" stroke="#fff"/>
<g clip-path="url(#a)">
<g transform="translate(104.51 441.11) rotate(-76.897) scale(.08 -.08)">
<use xlink:href="#r"/>
<use x="55.712891" xlink:href="#t"/>
</g>
</g>
<path d="m173.11 325.03 5.6207 8.1891q1.3581 1.9787 3.3369 0.62061l6.3835-4.3814q1.9787-1.3581 0.62061-3.3369l-5.6207-8.1891q-1.3581-1.9788-3.3369-0.62061l-6.3835 4.3814q-1.9787 1.3581-0.62061 3.3369z" clip-path="url(#a)" fill="#fff" stroke="#fff"/>
<g clip-path="url(#a)">
<g transform="translate(176.46 322.73) rotate(55.536) scale(.08 -.08)">
<use xlink:href="#r"/>
<use x="55.744141" xlink:href="#q"/>
</g>
</g>
<path d="m344.93 639.47v35.285q0 2.4 2.4 2.4h7.7425q2.4 0 2.4-2.4v-35.285q0-2.4-2.4-2.4h-7.7425q-2.4 0-2.4 2.4z" clip-path="url(#a)" fill="#fff" stroke="#fff"/>
<g clip-path="url(#a)">
<g transform="translate(348.99 639.47) rotate(90) scale(.08 -.08)">
<use xlink:href="#l"/>
<use x="60.818359" xlink:href="#d"/>
<use x="122.341797" xlink:href="#i"/>
<use x="163.439453" xlink:href="#k"/>
<use x="260.851562" xlink:href="#e"/>
<use x="288.634766" xlink:href="#j"/>
<use x="352.013672" xlink:href="#h"/>
<use x="413.292969" xlink:href="#f"/>
</g>
</g>
<path d="m631.44 639.47v35.285q0 2.4 2.4 2.4h7.7425q2.4 0 2.4-2.4v-35.285q0-2.4-2.4-2.4h-7.7425q-2.4 0-2.4 2.4z" clip-path="url(#a)" fill="#fff" stroke="#fff"/>
<g clip-path="url(#a)">
<g transform="translate(635.5 639.47) rotate(90) scale(.08 -.08)">
<use xlink:href="#l"/>
<use x="60.818359" xlink:href="#d"/>
<use x="122.341797" xlink:href="#i"/>
<use x="163.439453" xlink:href="#k"/>
<use x="260.851562" xlink:href="#e"/>
<use x="288.634766" xlink:href="#j"/>
<use x="352.013672" xlink:href="#h"/>
<use x="413.292969" xlink:href="#f"/>
</g>
</g>
<path d="m1347.7 639.47v35.285q0 2.4 2.4 2.4h7.7425q2.4 0 2.4-2.4v-35.285q0-2.4-2.4-2.4h-7.7425q-2.4 0-2.4 2.4z" clip-path="url(#a)" fill="#fff" stroke="#fff"/>
<g clip-path="url(#a)">
<g transform="translate(1351.8 639.47) rotate(90) scale(.08 -.08)">
<use xlink:href="#l"/>
<use x="60.818359" xlink:href="#d"/>
<use x="122.341797" xlink:href="#i"/>
<use x="163.439453" xlink:href="#k"/>
<use x="260.851562" xlink:href="#e"/>
<use x="288.634766" xlink:href="#j"/>
<use x="352.013672" xlink:href="#h"/>
<use x="413.292969" xlink:href="#f"/>
</g>
</g>
<defs>
<path id="b" d="m0 8.6603c2.2967 0 4.4997-0.9125 6.1237-2.5365 1.624-1.624 2.5365-3.827 2.5365-6.1237s-0.9125-4.4997-2.5365-6.1237c-1.624-1.624-3.827-2.5365-6.1237-2.5365s-4.4997 0.9125-6.1237 2.5365c-1.624 1.624-2.5365 3.827-2.5365 6.1237s0.9125 4.4997 2.5365 6.1237c1.624 1.624 3.827 2.5365 6.1237 2.5365z"/>
</defs>
<g clip-path="url(#a)">
<use x="64.694726" y="711.813718" fill="#ffffff" stroke="#ffffff" xlink:href="#b"/>
</g>
<g clip-path="url(#a)">
<use x="112.445734" y="711.813718" fill="#ffffff" stroke="#ffffff" xlink:href="#b"/>
</g>
<g clip-path="url(#a)">
<use x="160.196742" y="711.813718" fill="#ffffff" stroke="#ffffff" xlink:href="#b"/>
</g>
<g clip-path="url(#a)">
<use x="207.94775" y="711.813718" fill="#ffffff" stroke="#ffffff" xlink:href="#b"/>
</g>
<g clip-path="url(#a)">
<use x="255.698758" y="711.813718" fill="#ffffff" stroke="#ffffff" xlink:href="#b"/>
</g>
<g clip-path="url(#a)">
<use x="303.449766" y="711.813718" fill="#ffffff" stroke="#ffffff" xlink:href="#b"/>
</g>
<g clip-path="url(#a)">
<use x="351.200774" y="711.813718" fill="#ffffff" stroke="#ffffff" xlink:href="#b"/>
</g>
<g clip-path="url(#a)">
<use x="398.951782" y="711.813718" fill="#ffffff" stroke="#ffffff" xlink:href="#b"/>
</g>
<g clip-path="url(#a)">
<use x="446.702789" y="711.813718" fill="#ffffff" stroke="#ffffff" xlink:href="#b"/>
</g>
<g clip-path="url(#a)">
<use x="494.453797" y="711.813718" fill="#ffffff" stroke="#ffffff" xlink:href="#b"/>
</g>
<g clip-path="url(#a)">
<use x="542.204805" y="711.813718" fill="#ffffff" stroke="#ffffff" xlink:href="#b"/>
</g>
<g clip-path="url(#a)">
<use x="589.955813" y="711.813718" fill="#ffffff" stroke="#ffffff" xlink:href="#b"/>
</g>
<g clip-path="url(#a)">
<use x="637.706821" y="711.813718" fill="#ffffff" stroke="#ffffff" xlink:href="#b"/>
</g>
<g clip-path="url(#a)">
<use x="685.457829" y="711.813718" fill="#ffffff" stroke="#ffffff" xlink:href="#b"/>
</g>
<g clip-path="url(#a)">
<use x="733.208837" y="711.813718" fill="#ffffff" stroke="#ffffff" xlink:href="#b"/>
</g>
<g clip-path="url(#a)">
<use x="780.959845" y="711.813718" fill="#ffffff" stroke="#ffffff" xlink:href="#b"/>
</g>
<g clip-path="url(#a)">
<use x="828.710853" y="711.813718" fill="#ffffff" stroke="#ffffff" xlink:href="#b"/>
</g>
<g clip-path="url(#a)">
<use x="876.461861" y="711.813718" fill="#ffffff" stroke="#ffffff" xlink:href="#b"/>
</g>
<g clip-path="url(#a)">
<use x="924.212869" y="711.813718" fill="#ffffff" stroke="#ffffff" xlink:href="#b"/>
</g>
<g clip-path="url(#a)">
<use x="971.963877" y="711.813718" fill="#ffffff" stroke="#ffffff" xlink:href="#b"/>
</g>
<g clip-path="url(#a)">
<use x="1019.714885" y="711.813718" fill="#ffffff" stroke="#ffffff" xlink:href="#b"/>
</g>
<g clip-path="url(#a)">
<use x="1067.465893" y="711.813718" fill="#ffffff" stroke="#ffffff" xlink:href="#b"/>
</g>
<g clip-path="url(#a)">
<use x="1115.216901" y="711.813718" fill="#ffffff" stroke="#ffffff" xlink:href="#b"/>
</g>
<g clip-path="url(#a)">
<use x="1162.967909" y="711.813718" fill="#ffffff" stroke="#ffffff" xlink:href="#b"/>
</g>
<g clip-path="url(#a)">
<use x="1210.718917" y="711.813718" fill="#ffffff" stroke="#ffffff" xlink:href="#b"/>
</g>
<g clip-path="url(#a)">
<use x="1258.469925" y="711.813718" fill="#ffffff" stroke="#ffffff" xlink:href="#b"/>
</g>
<g clip-path="url(#a)">
<use x="1306.220933" y="711.813718" fill="#ffffff" stroke="#ffffff" xlink:href="#b"/>
</g>
<g clip-path="url(#a)">
<use x="1353.971941" y="711.813718" fill="#ffffff" stroke="#ffffff" xlink:href="#b"/>
</g>
<g clip-path="url(#a)">
<use x="473.98908" y="34.852949" fill="#ffffff" stroke="#ffffff" xlink:href="#b"/>
</g>
<g clip-path="url(#a)">
<use x="64.694726" y="602.41855" fill="#ffffff" stroke="#ffffff" xlink:href="#b"/>
</g>
<g clip-path="url(#a)">
<use x="219.885502" y="382.106406" fill="#ffffff" stroke="#ffffff" xlink:href="#b"/>
</g>
<g clip-path="url(#a)">
<use x="494.453797" y="602.41855" fill="#ffffff" stroke="#ffffff" xlink:href="#b"/>
</g>
<g clip-path="url(#a)">
<use x="685.457829" y="602.41855" fill="#ffffff" stroke="#ffffff" xlink:href="#b"/>
</g>
<g clip-path="url(#a)">
<use x="864.524109" y="153.424941" fill="#ffffff" stroke="#ffffff" xlink:href="#b"/>
</g>
<g clip-path="url(#a)">
<use x="757.084341" y="493.023381" fill="#ffffff" stroke="#ffffff" xlink:href="#b"/>
</g>
<g clip-path="url(#a)">
<use x="852.586357" y="493.023381" fill="#ffffff" stroke="#ffffff" xlink:href="#b"/>
</g>
<g clip-path="url(#a)">
<use x="983.901629" y="269.05364" fill="#ffffff" stroke="#ffffff" xlink:href="#b"/>
</g>
<g clip-path="url(#a)">
<use x="924.212869" y="602.41855" fill="#ffffff" stroke="#ffffff" xlink:href="#b"/>
</g>
<g clip-path="url(#a)">
<use x="971.963877" y="602.41855" fill="#ffffff" stroke="#ffffff" xlink:href="#b"/>
</g>
<g clip-path="url(#a)">
<use x="1043.590389" y="493.023381" fill="#ffffff" stroke="#ffffff" xlink:href="#b"/>
</g>
<g clip-path="url(#a)">
<use x="1198.781165" y="382.106406" fill="#ffffff" stroke="#ffffff" xlink:href="#b"/>
</g>
<g clip-path="url(#a)">
<use x="1115.216901" y="602.41855" fill="#ffffff" stroke="#ffffff" xlink:href="#b"/>
</g>
<g clip-path="url(#a)">
<use x="1162.967909" y="602.41855" fill="#ffffff" stroke="#ffffff" xlink:href="#b"/>
</g>
<g clip-path="url(#a)">
<use x="1210.718917" y="602.41855" fill="#ffffff" stroke="#ffffff" xlink:href="#b"/>
</g>
<g clip-path="url(#a)">
<use x="1306.220933" y="493.023381" fill="#ffffff" stroke="#ffffff" xlink:href="#b"/>
</g>
<g clip-path="url(#a)">
<use x="1258.469925" y="602.41855" fill="#ffffff" stroke="#ffffff" xlink:href="#b"/>
</g>
<g clip-path="url(#a)">
<use x="1306.220933" y="602.41855" fill="#ffffff" stroke="#ffffff" xlink:href="#b"/>
</g>
<g clip-path="url(#a)">
<use x="1019.714885" y="602.41855" fill="#ffffff" stroke="#ffffff" xlink:href="#b"/>
</g>
<g clip-path="url(#a)">
<use x="1067.465893" y="602.41855" fill="#ffffff" stroke="#ffffff" xlink:href="#b"/>
</g>
<g clip-path="url(#a)">
<use x="828.710853" y="602.41855" fill="#ffffff" stroke="#ffffff" xlink:href="#b"/>
</g>
<g clip-path="url(#a)">
<use x="876.461861" y="602.41855" fill="#ffffff" stroke="#ffffff" xlink:href="#b"/>
</g>
<g clip-path="url(#a)">
<use x="733.208837" y="602.41855" fill="#ffffff" stroke="#ffffff" xlink:href="#b"/>
</g>
<g clip-path="url(#a)">
<use x="780.959845" y="602.41855" fill="#ffffff" stroke="#ffffff" xlink:href="#b"/>
</g>
<g clip-path="url(#a)">
<use x="160.196742" y="602.41855" fill="#ffffff" stroke="#ffffff" xlink:href="#b"/>
</g>
<g clip-path="url(#a)">
<use x="279.574262" y="493.023381" fill="#ffffff" stroke="#ffffff" xlink:href="#b"/>
</g>
<g clip-path="url(#a)">
<use x="255.698758" y="602.41855" fill="#ffffff" stroke="#ffffff" xlink:href="#b"/>
</g>
<g clip-path="url(#a)">
<use x="303.449766" y="602.41855" fill="#ffffff" stroke="#ffffff" xlink:href="#b"/>
</g>
<g clip-path="url(#a)">
<use x="589.955813" y="34.852949" fill="#808080" stroke="#808080" xlink:href="#b"/>
</g>
<g clip-path="url(#a)">
<use x="142.290114" y="269.05364" fill="#808080" stroke="#808080" xlink:href="#b"/>
</g>
<g clip-path="url(#a)">
<use x="351.200774" y="602.41855" fill="#ffffff" stroke="#ffffff" xlink:href="#b"/>
</g>
<g clip-path="url(#a)">
<use x="637.706821" y="602.41855" fill="#ffffff" stroke="#ffffff" xlink:href="#b"/>
</g>
<g clip-path="url(#a)">
<use x="1353.971941" y="602.41855" fill="#ffffff" stroke="#ffffff" xlink:href="#b"/>
</g>
<g clip-path="url(#a)">
<defs>
<path id="aq" d="m39.406 66.219q-10.75 0-17.078-8.0156-6.3125-8-6.3125-21.828 0-13.766 6.3125-21.781 6.3281-8 17.078-8 10.734 0 17.016 8 6.2812 8.0156 6.2812 21.781 0 13.828-6.2812 21.828-6.2812 8.0156-17.016 8.0156zm13.812-64.906 13-14.203h-11.922l-10.797 11.672q-1.6094-0.09375-2.4688-0.14062-0.84375-0.0625-1.625-0.0625-15.375 0-24.594 10.281-9.2031 10.281-9.2031 27.516 0 17.281 9.2031 27.562 9.2188 10.281 24.594 10.281 15.328 0 24.5-10.281 9.1875-10.281 9.1875-27.562 0-12.688-5.1094-21.734-5.0938-9.0312-14.766-13.328z"/>
<path id="p" d="m8.5 21.578v33.109h8.9844v-32.766q0-7.7656 3.0156-11.656 3.0312-3.875 9.0938-3.875 7.2656 0 11.484 4.6406 4.2344 4.6406 4.2344 12.656v31h8.9844v-54.688h-8.9844v8.4062q-3.2656-4.9844-7.5938-7.4062-4.3125-2.4219-10.031-2.4219-9.4219 0-14.312 5.8594-4.875 5.8594-4.875 17.141z"/>
<path id="ao" d="m8.2969 72.906 25.391-82.188h-8.2969l-25.391 82.188z"/>
<path id="m" d="m19.188 8.2969h34.422v-8.2969h-46.281v8.2969q5.6094 5.8125 15.297 15.594 9.7031 9.7969 12.188 12.641 4.7344 5.3125 6.6094 9 1.8906 3.6875 1.8906 7.25 0 5.8125-4.0781 9.4688-4.0781 3.6719-10.625 3.6719-4.6406 0-9.7969-1.6094-5.1406-1.6094-11-4.8906v9.9688q5.9531 2.3906 11.125 3.6094 5.1875 1.2188 9.4844 1.2188 11.328 0 18.062-5.6719 6.7344-5.6562 6.7344-15.125 0-4.5-1.6875-8.5312-1.6719-4.0156-6.125-9.4844-1.2188-1.4219-7.7656-8.1875-6.5312-6.7656-18.453-18.922z"/>
<path id="aa" d="m31.781 66.406q-7.6094 0-11.453-7.5-3.8281-7.4844-3.8281-22.531 0-14.984 3.8281-22.484 3.8438-7.5 11.453-7.5 7.6719 0 11.5 7.5 3.8438 7.5 3.8438 22.484 0 15.047-3.8438 22.531-3.8281 7.5-11.5 7.5zm0 7.8125q12.266 0 18.734-9.7031 6.4688-9.6875 6.4688-28.141 0-18.406-6.4688-28.109-6.4688-9.6875-18.734-9.6875-12.25 0-18.719 9.6875-6.4688 9.7031-6.4688 28.109 0 18.453 6.4688 28.141 6.4688 9.7031 18.719 9.7031z"/>
<path id="c" d="m12.406 8.2969h16.109v55.625l-17.531-3.5156v8.9844l17.438 3.5156h9.8594v-64.609h16.109v-8.2969h-41.984z"/>
<path id="ae" d="m10.984 1.5156v8.9844q3.7188-1.7656 7.5156-2.6875 3.8125-0.92188 7.4844-0.92188 9.7656 0 14.906 6.5625 5.1562 6.5625 5.8906 19.953-2.8281-4.2031-7.1875-6.4531-4.3438-2.25-9.6094-2.25-10.938 0-17.312 6.6094-6.375 6.625-6.375 18.109 0 11.219 6.6406 18 6.6406 6.7969 17.672 6.7969 12.656 0 19.312-9.7031 6.6719-9.6875 6.6719-28.141 0-17.234-8.1875-27.516-8.1719-10.281-21.984-10.281-3.7188 0-7.5312 0.73438-3.7969 0.73438-7.9062 2.2031zm19.625 30.906q6.6406 0 10.516 4.5312 3.8906 4.5469 3.8906 12.469 0 7.8594-3.8906 12.422-3.875 4.5625-10.516 4.5625t-10.516-4.5625-3.875-12.422q0-7.9219 3.875-12.469 3.875-4.5312 10.516-4.5312z"/>
</defs>
<g transform="translate(40.012 714.57) scale(.1 -.1)">
<use xlink:href="#aq"/>
<use x="78.710938" xlink:href="#p"/>
<use x="142.089844" xlink:href="#ao"/>
<use x="175.78125" xlink:href="#p"/>
<use x="239.160156" xlink:href="#m"/>
<use x="302.783203" xlink:href="#aa"/>
<use x="366.40625" xlink:href="#c"/>
<use x="430.029297" xlink:href="#ae"/>
</g>
</g>
<g clip-path="url(#a)">
<g transform="translate(109.67 714.57) scale(.1 -.1)">
<use xlink:href="#e"/>
<use x="27.783203" xlink:href="#f"/>
</g>
</g>
<g clip-path="url(#a)">
<defs>
<path id="av" d="m32.172-5.0781q-3.7969-9.7656-7.4219-12.734-3.6094-2.9844-9.6562-2.9844h-7.1875v7.5156h5.2812q3.7031 0 5.75 1.7656 2.0625 1.75 4.5469 8.2969l1.6094 4.0938-22.109 53.812h9.5156l17.094-42.766 17.094 42.766h9.5156z"/>
</defs>
<g transform="translate(157.24 714.57) scale(.1 -.1)">
<use xlink:href="#av"/>
</g>
</g>
<g clip-path="url(#a)">
<defs>
<path id="o" d="m18.312 70.219v-15.531h18.5v-6.9844h-18.5v-29.688q0-6.6875 1.8281-8.5938t7.4531-1.9062h9.2188v-7.5156h-9.2188q-10.406 0-14.359 3.875-3.9531 3.8906-3.9531 14.141v29.688h-6.5938v6.9844h6.5938v15.531z"/>
</defs>
<g transform="translate(199.74 714.57) scale(.1 -.1)">
<use xlink:href="#d"/>
<use x="61.523438" xlink:href="#p"/>
<use x="124.902344" xlink:href="#o"/>
</g>
</g>
<g clip-path="url(#a)">
<defs>
<path id="am" d="m14.797 27.297q0-9.9062 4.0781-15.547t11.203-5.6406 11.219 5.6406q4.1094 5.6406 4.1094 15.547t-4.1094 15.547q-4.0938 5.6406-11.219 5.6406t-11.203-5.6406-4.0781-15.547zm30.609-19.094q-2.8281-4.875-7.1562-7.25-4.3125-2.375-10.375-2.375-9.9062 0-16.141 7.9062-6.2188 7.9219-6.2188 20.812t6.2188 20.797q6.2344 7.9062 16.141 7.9062 6.0625 0 10.375-2.375 4.3281-2.3594 7.1562-7.2344v8.2969h8.9844v-75.484h-8.9844z"/>
</defs>
<g transform="translate(235.47 714.57) scale(.1 -.1)">
<use xlink:href="#am"/>
<use x="63.476562" xlink:href="#p"/>
<use x="126.855469" xlink:href="#d"/>
<use x="188.378906" xlink:href="#f"/>
<use x="216.162109" xlink:href="#am"/>
<use x="279.638672" xlink:href="#p"/>
<use x="343.017578" xlink:href="#d"/>
</g>
</g>
<g clip-path="url(#a)">
<defs>
<path id="x" d="m48.781 52.594v-8.4062q-3.8125 2.1094-7.6406 3.1562t-7.7344 1.0469q-8.75 0-13.594-5.5469-4.8281-5.5312-4.8281-15.547t4.8281-15.562q4.8438-5.5312 13.594-5.5312 3.9062 0 7.7344 1.0469t7.6406 3.1562v-8.3125q-3.7656-1.75-7.7969-2.625-4.0156-0.89062-8.5625-0.89062-12.359 0-19.641 7.7656-7.2656 7.7656-7.2656 20.953 0 13.375 7.3438 21.031 7.3594 7.6719 20.156 7.6719 4.1406 0 8.0938-0.85938 3.9531-0.84375 7.6719-2.5469z"/>
<path id="ax" d="m54.891 33.016v-33.016h-8.9844v32.719q0 7.7656-3.0312 11.609-3.0312 3.8594-9.0781 3.8594-7.2812 0-11.484-4.6406-4.2031-4.625-4.2031-12.641v-30.906h-9.0312v75.984h9.0312v-29.797q3.2344 4.9375 7.5938 7.375 4.375 2.4375 10.094 2.4375 9.4219 0 14.25-5.8281 4.8438-5.8281 4.8438-17.156z"/>
<path id="w" d="m30.609 48.391q-7.2188 0-11.422-5.6406t-4.2031-15.453 4.1719-15.453q4.1875-5.6406 11.453-5.6406 7.1875 0 11.375 5.6562 4.2031 5.6719 4.2031 15.438 0 9.7188-4.2031 15.406-4.1875 5.6875-11.375 5.6875zm0 7.6094q11.719 0 18.406-7.625 6.7031-7.6094 6.7031-21.078 0-13.422-6.7031-21.078-6.6875-7.6406-18.406-7.6406-11.766 0-18.438 7.6406-6.6562 7.6562-6.6562 21.078 0 13.469 6.6562 21.078 6.6719 7.625 18.438 7.625z"/>
<path id="v" d="m44.281 53.078v-8.5q-3.7969 1.9531-7.9062 2.9219-4.0938 0.98438-8.5 0.98438-6.6875 0-10.031-2.0469t-3.3438-6.1562q0-3.125 2.3906-4.9062t9.625-3.3906l3.0781-0.6875q9.5625-2.0469 13.594-5.7812t4.0312-10.422q0-7.625-6.0312-12.078-6.0312-4.4375-16.578-4.4375-4.3906 0-9.1562 0.85938t-10.031 2.5625v9.2812q4.9844-2.5938 9.8125-3.8906 4.8281-1.2812 9.5781-1.2812 6.3438 0 9.75 2.1719 3.4219 2.1719 3.4219 6.125 0 3.6562-2.4688 5.6094-2.4531 1.9531-10.812 3.7656l-3.125 0.73438q-8.3438 1.75-12.062 5.3906-3.7031 3.6406-3.7031 9.9844 0 7.7188 5.4688 11.906 5.4688 4.2031 15.531 4.2031 4.9688 0 9.3594-0.73438 4.4062-0.71875 8.1094-2.1875z"/>
</defs>
<g transform="translate(288.79 714.57) scale(.1 -.1)">
<use xlink:href="#x"/>
<use x="54.980469" xlink:href="#ax"/>
<use x="118.359375" xlink:href="#w"/>
<use x="179.541016" xlink:href="#v"/>
<use x="231.640625" xlink:href="#d"/>
</g>
</g>
<g clip-path="url(#a)">
<defs>
<path id="ak" d="m11.719 12.406h10.297v-8.4062l-8-15.625h-6.2969l4 15.625z"/>
</defs>
<g transform="translate(349.61 714.57) scale(.1 -.1)">
<use xlink:href="#ak"/>
</g>
</g>
<g clip-path="url(#a)">
<g transform="translate(388.67 714.57) scale(.1 -.1)">
<use xlink:href="#x"/>
<use x="54.980469" xlink:href="#d"/>
<use x="116.503906" xlink:href="#f"/>
<use x="144.287109" xlink:href="#h"/>
</g>
</g>
<g clip-path="url(#a)">
<g transform="translate(440.46 714.57) scale(.1 -.1)">
<use xlink:href="#j"/>
<use x="63.378906" xlink:href="#d"/>
</g>
</g>
<g clip-path="url(#a)">
<defs>
<path id="an" d="m18.109 8.2031v-29h-9.0312v75.484h9.0312v-8.2969q2.8438 4.875 7.1562 7.2344 4.3281 2.375 10.328 2.375 9.9688 0 16.188-7.9062 6.2344-7.9062 6.2344-20.797t-6.2344-20.812q-6.2188-7.9062-16.188-7.9062-6 0-10.328 2.375-4.3125 2.375-7.1562 7.25zm30.578 19.094q0 9.9062-4.0781 15.547t-11.203 5.6406q-7.1406 0-11.219-5.6406t-4.0781-15.547 4.0781-15.547 11.219-5.6406q7.125 0 11.203 5.6406t4.0781 15.547z"/>
<path id="al" d="m2.9844 54.688h9.5156l17.094-45.891 17.094 45.891h9.5156l-20.516-54.688h-12.203z"/>
</defs>
<g transform="translate(475.68 714.57) scale(.1 -.1)">
<use xlink:href="#an"/>
<use x="63.476562" xlink:href="#w"/>
<use x="124.658203" xlink:href="#p"/>
<use x="188.037109" xlink:href="#al"/>
<use x="247.216797" xlink:href="#h"/>
<use x="308.496094" xlink:href="#e"/>
<use x="336.279297" xlink:href="#o"/>
</g>
</g>
<g clip-path="url(#a)">
<defs>
<path id="at" d="m56.203 29.594v-4.3906h-41.312q0.59375-9.2812 5.5938-14.141t13.938-4.8594q5.1719 0 10.031 1.2656t9.6562 3.8125v-8.5q-4.8438-2.0469-9.9219-3.125t-10.297-1.0781q-13.094 0-20.734 7.6094-7.6406 7.625-7.6406 20.625 0 13.422 7.25 21.297 7.25 7.8906 19.562 7.8906 11.031 0 17.453-7.1094 6.4219-7.0938 6.4219-19.297zm-8.9844 2.6406q-0.09375 7.3594-4.125 11.75-4.0312 4.4062-10.672 4.4062-7.5156 0-12.031-4.25t-5.2031-11.969zm-19.078 47.75h7.2188l11.969-18.359h-6.7812l-8.7969 11.953-8.7812-11.953h-6.7969z"/>
</defs>
<g transform="translate(532.04 714.57) scale(.1 -.1)">
<use xlink:href="#at"/>
<use x="61.523438" xlink:href="#o"/>
<use x="100.732422" xlink:href="#i"/>
<use x="141.814453" xlink:href="#d"/>
</g>
</g>
<g clip-path="url(#a)">
<defs>
<path id="ab" d="m45.406 46.391v29.594h8.9844v-75.984h-8.9844v8.2031q-2.8281-4.875-7.1562-7.25-4.3125-2.375-10.375-2.375-9.9062 0-16.141 7.9062-6.2188 7.9219-6.2188 20.812t6.2188 20.797q6.2344 7.9062 16.141 7.9062 6.0625 0 10.375-2.375 4.3281-2.3594 7.1562-7.2344zm-30.609-19.094q0-9.9062 4.0781-15.547t11.203-5.6406 11.219 5.6406q4.1094 5.6406 4.1094 15.547t-4.1094 15.547q-4.0938 5.6406-11.219 5.6406t-11.203-5.6406-4.0781-15.547z"/>
<path id="aw" d="m54.891 54.688-19.781-26.609 20.797-28.078h-10.594l-15.922 21.484-15.906-21.484h-10.609l21.25 28.609-19.438 26.078h10.594l14.5-19.484 14.5 19.484z"/>
</defs>
<g transform="translate(569.39 714.57) scale(.1 -.1)">
<use xlink:href="#ab"/>
<use x="63.476562" xlink:href="#w"/>
<use x="124.658203" xlink:href="#p"/>
<use x="188.037109" xlink:href="#o"/>
<use x="227.246094" xlink:href="#d"/>
<use x="288.769531" xlink:href="#p"/>
<use x="352.148438" xlink:href="#aw"/>
</g>
</g>
<g clip-path="url(#a)">
<g transform="translate(636.12 714.57) scale(.1 -.1)">
<use xlink:href="#ak"/>
</g>
</g>
<g clip-path="url(#a)">
<g transform="translate(680.42 714.57) scale(.1 -.1)">
<use xlink:href="#d"/>
<use x="61.523438" xlink:href="#o"/>
</g>
</g>
<g clip-path="url(#a)">
<g transform="translate(726.14 714.57) scale(.1 -.1)">
<use xlink:href="#f"/>
<use x="27.783203" xlink:href="#d"/>
<use x="89.306641" xlink:href="#v"/>
</g>
</g>
<g clip-path="url(#a)">
<defs>
<path id="ai" d="m56.203 29.594v-4.3906h-41.312q0.59375-9.2812 5.5938-14.141t13.938-4.8594q5.1719 0 10.031 1.2656t9.6562 3.8125v-8.5q-4.8438-2.0469-9.9219-3.125t-10.297-1.0781q-13.094 0-20.734 7.6094-7.6406 7.625-7.6406 20.625 0 13.422 7.25 21.297 7.25 7.8906 19.562 7.8906 11.031 0 17.453-7.1094 6.4219-7.0938 6.4219-19.297zm-8.9844 2.6406q-0.09375 7.3594-4.125 11.75-4.0312 4.4062-10.672 4.4062-7.5156 0-12.031-4.25t-5.2031-11.969zm-8.6875 47.75h9.7188l-15.906-18.359h-7.4844z"/>
</defs>
<g transform="translate(755.11 714.57) scale(.1 -.1)">
<use xlink:href="#e"/>
<use x="27.783203" xlink:href="#j"/>
<use x="91.162109" xlink:href="#x"/>
<use x="146.142578" xlink:href="#i"/>
<use x="187.224609" xlink:href="#ai"/>
<use x="248.748047" xlink:href="#ab"/>
<use x="312.224609" xlink:href="#p"/>
<use x="375.603516" xlink:href="#f"/>
<use x="403.386719" xlink:href="#d"/>
<use x="464.910156" xlink:href="#v"/>
</g>
</g>
<g clip-path="url(#a)">
<g transform="translate(811.02 714.57) scale(.1 -.1)">
<use xlink:href="#ai"/>
<use x="61.523438" xlink:href="#o"/>
<use x="100.732422" xlink:href="#h"/>
<use x="162.011719" xlink:href="#e"/>
<use x="189.794922" xlink:href="#d"/>
<use x="251.318359" xlink:href="#j"/>
<use x="314.697266" xlink:href="#o"/>
</g>
</g>
<g clip-path="url(#a)">
<g transform="translate(859.91 714.57) scale(.1 -.1)">
<use xlink:href="#e"/>
<use x="27.783203" xlink:href="#j"/>
<use x="91.162109" xlink:href="#al"/>
<use x="150.341797" xlink:href="#e"/>
<use x="178.125" xlink:href="#o"/>
<use x="217.333984" xlink:href="#ai"/>
<use x="278.857422" xlink:href="#v"/>
</g>
</g>
<g clip-path="url(#a)">
<defs>
<path id="au" d="m34.281 27.484q-10.891 0-15.094-2.4844t-4.2031-8.5q0-4.7812 3.1562-7.5938 3.1562-2.7969 8.5625-2.7969 7.4844 0 12 5.2969t4.5156 14.078v2zm17.922 3.7188v-31.203h-8.9844v8.2969q-3.0781-4.9688-7.6719-7.3438t-11.234-2.375q-8.3906 0-13.359 4.7188-4.9531 4.7188-4.9531 12.625 0 9.2188 6.1719 13.906 6.1875 4.6875 18.438 4.6875h12.609v0.89062q0 6.2031-4.0781 9.5938t-11.453 3.3906q-4.6875 0-9.1406-1.125-4.4375-1.125-8.5312-3.375v8.3125q4.9219 1.9062 9.5625 2.8438 4.6406 0.95312 9.0312 0.95312 11.875 0 17.734-6.1562 5.8594-6.1406 5.8594-18.641zm-30.281 48.781 13.766-18.266h-7.4688l-15.922 18.266z"/>
</defs>
<g transform="translate(921.15 714.57) scale(.1 -.1)">
<use xlink:href="#au"/>
</g>
</g>
<g clip-path="url(#a)">
<g transform="translate(954.97 714.57) scale(.1 -.1)">
<use xlink:href="#k"/>
<use x="97.412109" xlink:href="#d"/>
<use x="158.935547" xlink:href="#o"/>
<use x="198.144531" xlink:href="#o"/>
<use x="237.353516" xlink:href="#i"/>
<use x="278.435547" xlink:href="#d"/>
</g>
</g>
<g clip-path="url(#a)">
<g transform="translate(1015.2 714.57) scale(.1 -.1)">
<use xlink:href="#f"/>
<use x="27.783203" xlink:href="#d"/>
</g>
</g>
<g clip-path="url(#a)">
<defs>
<path id="ay" d="m45.406 27.984q0 9.7656-4.0312 15.125-4.0156 5.375-11.297 5.375-7.2188 0-11.25-5.375-4.0312-5.3594-4.0312-15.125 0-9.7188 4.0312-15.094t11.25-5.375q7.2812 0 11.297 5.375 4.0312 5.375 4.0312 15.094zm8.9844-21.203q0-13.953-6.2031-20.766-6.1875-6.8125-18.984-6.8125-4.7344 0-8.9375 0.70312t-8.1562 2.1719v8.7344q3.9531-2.1406 7.8125-3.1562 3.8594-1.0312 7.8594-1.0312 8.8438 0 13.234 4.6094t4.3906 13.938v4.4531q-2.7812-4.8438-7.125-7.2344t-10.406-2.3906q-10.047 0-16.203 7.6562-6.1562 7.6719-6.1562 20.328 0 12.688 6.1562 20.344 6.1562 7.6719 16.203 7.6719 6.0625 0 10.406-2.3906t7.125-7.2188v8.2969h8.9844z"/>
</defs>
<g transform="translate(1054.7 714.57) scale(.1 -.1)">
<use xlink:href="#ab"/>
<use x="63.476562" xlink:href="#w"/>
<use x="124.658203" xlink:href="#e"/>
<use x="152.441406" xlink:href="#ay"/>
<use x="215.917969" xlink:href="#o"/>
</g>
</g>
<g clip-path="url(#a)">
<g transform="translate(1107.4 714.57) scale(.1 -.1)">
<use xlink:href="#v"/>
<use x="52.099609" xlink:href="#p"/>
<use x="115.478516" xlink:href="#i"/>
</g>
</g>
<g clip-path="url(#a)">
<g transform="translate(1158.5 714.57) scale(.1 -.1)">
<use xlink:href="#f"/>
<use x="27.783203" xlink:href="#h"/>
</g>
</g>
<g clip-path="url(#a)">
<g transform="translate(1198.6 714.57) scale(.1 -.1)">
<use xlink:href="#an"/>
<use x="63.476562" xlink:href="#f"/>
<use x="91.259766" xlink:href="#h"/>
<use x="152.539062" xlink:href="#e"/>
<use x="180.322266" xlink:href="#d"/>
</g>
</g>
<g clip-path="url(#a)">
<g transform="translate(1252.1 714.57) scale(.1 -.1)">
<use xlink:href="#ab"/>
<use x="63.476562" xlink:href="#p"/>
</g>
</g>
<g clip-path="url(#a)">
<defs>
<path id="ap" d="m53.516 70.516v-9.625q-5.6094 2.6875-10.594 4-4.9844 1.3281-9.625 1.3281-8.0469 0-12.422-3.125t-4.375-8.8906q0-4.8438 2.9062-7.3125 2.9062-2.4531 11.016-3.9688l5.9531-1.2188q11.031-2.1094 16.281-7.4062t5.25-14.172q0-10.609-7.1094-16.078-7.0938-5.4688-20.812-5.4688-5.1719 0-11.016 1.1719-5.8281 1.1719-12.078 3.4688v10.156q6-3.3594 11.766-5.0781 5.7656-1.7031 11.328-1.7031 8.4375 0 13.031 3.3125 4.5938 3.3281 4.5938 9.4844 0 5.3594-3.2969 8.3906t-10.812 4.5469l-6.0156 1.1719q-11.031 2.1875-15.969 6.875-4.9219 4.6875-4.9219 13.047 0 9.6719 6.8125 15.234t18.766 5.5625q5.1406 0 10.453-0.9375 5.3281-0.92188 10.891-2.7656z"/>
</defs>
<g transform="translate(1290.8 714.57) scale(.1 -.1)">
<use xlink:href="#ap"/>
<use x="63.476562" xlink:href="#x"/>
<use x="118.457031" xlink:href="#w"/>
<use x="179.638672" xlink:href="#o"/>
<use x="218.847656" xlink:href="#e"/>
<use x="246.630859" xlink:href="#h"/>
</g>
</g>
<g clip-path="url(#a)">
<defs>
<path id="g" d="m10.688 12.406h10.312v-12.406h-10.312z"/>
</defs>
<g transform="translate(1352.4 714.57) scale(.1 -.1)">
<use xlink:href="#g"/>
</g>
</g>
<g clip-path="url(#a)">
<g transform="translate(466.04 37.612) scale(.1 -.1)">
<use xlink:href="#c"/>
<use x="63.623047" xlink:href="#g"/>
<use x="95.410156" xlink:href="#c"/>
</g>
</g>
<g clip-path="url(#a)">
<g transform="translate(56.743 605.18) scale(.1 -.1)">
<use xlink:href="#c"/>
<use x="63.623047" xlink:href="#g"/>
<use x="95.410156" xlink:href="#m"/>
</g>
</g>
<g clip-path="url(#a)">
<defs>
<path id="n" d="m40.578 39.312q7.0781-1.5156 11.047-6.3125 3.9844-4.7812 3.9844-11.812 0-10.781-7.4219-16.703-7.4219-5.9062-21.094-5.9062-4.5781 0-9.4375 0.90625t-10.031 2.7188v9.5156q4.0938-2.3906 8.9688-3.6094 4.8906-1.2188 10.219-1.2188 9.2656 0 14.125 3.6562t4.8594 10.641q0 6.4531-4.5156 10.078-4.5156 3.6406-12.562 3.6406h-8.5v8.1094h8.8906q7.2656 0 11.125 2.9062t3.8594 8.375q0 5.6094-3.9844 8.6094-3.9688 3.0156-11.391 3.0156-4.0625 0-8.7031-0.89062-4.6406-0.875-10.203-2.7188v8.7812q5.625 1.5625 10.531 2.3438t9.25 0.78125q11.234 0 17.766-5.1094 6.5469-5.0938 6.5469-13.781 0-6.0625-3.4688-10.234t-9.8594-5.7812z"/>
</defs>
<g transform="translate(211.93 384.87) scale(.1 -.1)">
<use xlink:href="#c"/>
<use x="63.623047" xlink:href="#g"/>
<use x="95.410156" xlink:href="#n"/>
</g>
</g>
<g clip-path="url(#a)">
<defs>
<path id="z" d="m10.797 72.906h38.719v-8.3125h-29.688v-17.859q2.1406 0.73438 4.2812 1.0938 2.1562 0.35938 4.3125 0.35938 12.203 0 19.328-6.6875 7.1406-6.6875 7.1406-18.109 0-11.766-7.3281-18.297-7.3281-6.5156-20.656-6.5156-4.5938 0-9.3594 0.78125-4.75 0.78125-9.8281 2.3438v9.9219q4.3906-2.3906 9.0781-3.5625t9.9062-1.1719q8.4531 0 13.375 4.4375 4.9375 4.4375 4.9375 12.062 0 7.6094-4.9375 12.047-4.9219 4.4531-13.375 4.4531-3.9531 0-7.8906-0.875-3.9219-0.875-8.0156-2.7344z"/>
</defs>
<g transform="translate(486.5 605.18) scale(.1 -.1)">
<use xlink:href="#c"/>
<use x="63.623047" xlink:href="#g"/>
<use x="95.410156" xlink:href="#z"/>
</g>
</g>
<g clip-path="url(#a)">
<defs>
<path id="y" d="m8.2031 72.906h46.875v-4.2031l-26.469-68.703h-10.297l24.906 64.594h-35.016z"/>
</defs>
<g transform="translate(677.51 605.18) scale(.1 -.1)">
<use xlink:href="#c"/>
<use x="63.623047" xlink:href="#g"/>
<use x="95.410156" xlink:href="#y"/>
</g>
</g>
<g clip-path="url(#a)">
<defs>
<path id="af" d="m31.781 34.625q-7.0312 0-11.062-3.7656-4.0156-3.7656-4.0156-10.344 0-6.5938 4.0156-10.359 4.0312-3.7656 11.062-3.7656t11.078 3.7812q4.0625 3.7969 4.0625 10.344 0 6.5781-4.0312 10.344-4.0156 3.7656-11.109 3.7656zm-9.8594 4.1875q-6.3438 1.5625-9.8906 5.9062-3.5312 4.3594-3.5312 10.609 0 8.7344 6.2188 13.812 6.2344 5.0781 17.062 5.0781 10.891 0 17.094-5.0781t6.2031-13.812q0-6.25-3.5469-10.609-3.5312-4.3438-9.8281-5.9062 7.125-1.6562 11.094-6.5 3.9844-4.8281 3.9844-11.797 0-10.609-6.4688-16.281-6.4688-5.6562-18.531-5.6562-12.047 0-18.531 5.6562-6.4688 5.6719-6.4688 16.281 0 6.9688 4 11.797 4.0156 4.8438 11.141 6.5zm-3.6094 15.578q0-5.6562 3.5312-8.8281 3.5469-3.1719 9.9375-3.1719 6.3594 0 9.9375 3.1719 3.5938 3.1719 3.5938 8.8281 0 5.6719-3.5938 8.8438-3.5781 3.1719-9.9375 3.1719-6.3906 0-9.9375-3.1719-3.5312-3.1719-3.5312-8.8438z"/>
</defs>
<g transform="translate(856.57 156.18) scale(.1 -.1)">
<use xlink:href="#c"/>
<use x="63.623047" xlink:href="#g"/>
<use x="95.410156" xlink:href="#af"/>
</g>
</g>
<g clip-path="url(#a)">
<g transform="translate(745.95 495.78) scale(.1 -.1)">
<use xlink:href="#c"/>
<use x="63.623047" xlink:href="#g"/>
<use x="95.410156" xlink:href="#c"/>
<use x="159.033203" xlink:href="#aa"/>
</g>
</g>
<g clip-path="url(#a)">
<g transform="translate(841.45 495.78) scale(.1 -.1)">
<use xlink:href="#c"/>
<use x="63.623047" xlink:href="#g"/>
<use x="95.410156" xlink:href="#c"/>
<use x="159.033203" xlink:href="#c"/>
</g>
</g>
<g clip-path="url(#a)">
<g transform="translate(972.77 271.81) scale(.1 -.1)">
<use xlink:href="#c"/>
<use x="63.623047" xlink:href="#g"/>
<use x="95.410156" xlink:href="#c"/>
<use x="159.033203" xlink:href="#m"/>
</g>
</g>
<g clip-path="url(#a)">
<g transform="translate(913.08 605.18) scale(.1 -.1)">
<use xlink:href="#c"/>
<use x="63.623047" xlink:href="#g"/>
<use x="95.410156" xlink:href="#c"/>
<use x="159.033203" xlink:href="#n"/>
</g>
</g>
<g clip-path="url(#a)">
<defs>
<path id="ah" d="m37.797 64.312-24.906-38.922h24.906zm-2.5938 8.5938h12.406v-47.516h10.406v-8.2031h-10.406v-17.188h-9.8125v17.188h-32.906v9.5156z"/>
</defs>
<g transform="translate(960.83 605.18) scale(.1 -.1)">
<use xlink:href="#c"/>
<use x="63.623047" xlink:href="#g"/>
<use x="95.410156" xlink:href="#c"/>
<use x="159.033203" xlink:href="#ah"/>
</g>
</g>
<g clip-path="url(#a)">
<g transform="translate(1032.5 495.78) scale(.1 -.1)">
<use xlink:href="#c"/>
<use x="63.623047" xlink:href="#g"/>
<use x="95.410156" xlink:href="#c"/>
<use x="159.033203" xlink:href="#z"/>
</g>
</g>
<g clip-path="url(#a)">
<defs>
<path id="ag" d="m33.016 40.375q-6.6406 0-10.531-4.5469-3.875-4.5312-3.875-12.438 0-7.8594 3.875-12.438 3.8906-4.5625 10.531-4.5625t10.516 4.5625q3.875 4.5781 3.875 12.438 0 7.9062-3.875 12.438-3.875 4.5469-10.516 4.5469zm19.578 30.922v-8.9844q-3.7188 1.75-7.5 2.6719-3.7812 0.9375-7.5 0.9375-9.7656 0-14.922-6.5938-5.1406-6.5938-5.875-19.922 2.875 4.25 7.2188 6.5156 4.3594 2.2656 9.5781 2.2656 10.984 0 17.359-6.6719 6.375-6.6562 6.375-18.125 0-11.234-6.6406-18.031-6.6406-6.7812-17.672-6.7812-12.656 0-19.344 9.6875-6.6875 9.7031-6.6875 28.109 0 17.281 8.2031 27.562t22.016 10.281q3.7188 0 7.5-0.73438t7.8906-2.1875z"/>
</defs>
<g transform="translate(1187.6 384.87) scale(.1 -.1)">
<use xlink:href="#c"/>
<use x="63.623047" xlink:href="#g"/>
<use x="95.410156" xlink:href="#c"/>
<use x="159.033203" xlink:href="#ag"/>
</g>
</g>
<g clip-path="url(#a)">
<g transform="translate(1104.1 605.18) scale(.1 -.1)">
<use xlink:href="#c"/>
<use x="63.623047" xlink:href="#g"/>
<use x="95.410156" xlink:href="#c"/>
<use x="159.033203" xlink:href="#y"/>
</g>
</g>
<g clip-path="url(#a)">
<g transform="translate(1151.8 605.18) scale(.1 -.1)">
<use xlink:href="#c"/>
<use x="63.623047" xlink:href="#g"/>
<use x="95.410156" xlink:href="#c"/>
<use x="159.033203" xlink:href="#af"/>
</g>
</g>
<g clip-path="url(#a)">
<g transform="translate(1199.6 605.18) scale(.1 -.1)">
<use xlink:href="#c"/>
<use x="63.623047" xlink:href="#g"/>
<use x="95.410156" xlink:href="#c"/>
<use x="159.033203" xlink:href="#ae"/>
</g>
</g>
<g clip-path="url(#a)">
<g transform="translate(1295.1 495.78) scale(.1 -.1)">
<use xlink:href="#c"/>
<use x="63.623047" xlink:href="#g"/>
<use x="95.410156" xlink:href="#m"/>
<use x="159.033203" xlink:href="#aa"/>
</g>
</g>
<g clip-path="url(#a)">
<g transform="translate(1247.3 605.18) scale(.1 -.1)">
<use xlink:href="#c"/>
<use x="63.623047" xlink:href="#g"/>
<use x="95.410156" xlink:href="#m"/>
<use x="159.033203" xlink:href="#c"/>
</g>
</g>
<g clip-path="url(#a)">
<g transform="translate(1295.1 605.18) scale(.1 -.1)">
<use xlink:href="#c"/>
<use x="63.623047" xlink:href="#g"/>
<use x="95.410156" xlink:href="#m"/>
<use x="159.033203" xlink:href="#m"/>
</g>
</g>
<g clip-path="url(#a)">
<g transform="translate(1008.6 605.18) scale(.1 -.1)">
<use xlink:href="#c"/>
<use x="63.623047" xlink:href="#g"/>
<use x="95.410156" xlink:href="#m"/>
<use x="159.033203" xlink:href="#n"/>
</g>
</g>
<g clip-path="url(#a)">
<g transform="translate(1056.3 605.18) scale(.1 -.1)">
<use xlink:href="#c"/>
<use x="63.623047" xlink:href="#g"/>
<use x="95.410156" xlink:href="#m"/>
<use x="159.033203" xlink:href="#ah"/>
</g>
</g>
<g clip-path="url(#a)">
<g transform="translate(817.58 605.18) scale(.1 -.1)">
<use xlink:href="#c"/>
<use x="63.623047" xlink:href="#g"/>
<use x="95.410156" xlink:href="#m"/>
<use x="159.033203" xlink:href="#z"/>
</g>
</g>
<g clip-path="url(#a)">
<g transform="translate(865.33 605.18) scale(.1 -.1)">
<use xlink:href="#c"/>
<use x="63.623047" xlink:href="#g"/>
<use x="95.410156" xlink:href="#m"/>
<use x="159.033203" xlink:href="#ag"/>
</g>
</g>
<g clip-path="url(#a)">
<g transform="translate(722.08 605.18) scale(.1 -.1)">
<use xlink:href="#c"/>
<use x="63.623047" xlink:href="#g"/>
<use x="95.410156" xlink:href="#m"/>
<use x="159.033203" xlink:href="#y"/>
</g>
</g>
<g clip-path="url(#a)">
<g transform="translate(769.83 605.18) scale(.1 -.1)">
<use xlink:href="#c"/>
<use x="63.623047" xlink:href="#g"/>
<use x="95.410156" xlink:href="#m"/>
<use x="159.033203" xlink:href="#af"/>
</g>
</g>
<g clip-path="url(#a)">
<g transform="translate(149.06 605.18) scale(.1 -.1)">
<use xlink:href="#c"/>
<use x="63.623047" xlink:href="#g"/>
<use x="95.410156" xlink:href="#m"/>
<use x="159.033203" xlink:href="#ae"/>
</g>
</g>
<g clip-path="url(#a)">
<g transform="translate(268.44 495.78) scale(.1 -.1)">
<use xlink:href="#c"/>
<use x="63.623047" xlink:href="#g"/>
<use x="95.410156" xlink:href="#n"/>
<use x="159.033203" xlink:href="#aa"/>
</g>
</g>
<g clip-path="url(#a)">
<g transform="translate(244.57 605.18) scale(.1 -.1)">
<use xlink:href="#c"/>
<use x="63.623047" xlink:href="#g"/>
<use x="95.410156" xlink:href="#n"/>
<use x="159.033203" xlink:href="#c"/>
</g>
</g>
<g clip-path="url(#a)">
<g transform="translate(292.32 605.18) scale(.1 -.1)">
<use xlink:href="#c"/>
<use x="63.623047" xlink:href="#g"/>
<use x="95.410156" xlink:href="#n"/>
<use x="159.033203" xlink:href="#m"/>
</g>
</g>
<g clip-path="url(#a)">
<g transform="translate(578.82 37.612) scale(.1 -.1)">
<use xlink:href="#c"/>
<use x="63.623047" xlink:href="#g"/>
<use x="95.410156" xlink:href="#n"/>
<use x="159.033203" xlink:href="#n"/>
</g>
</g>
<g clip-path="url(#a)">
<g transform="translate(131.16 271.81) scale(.1 -.1)">
<use xlink:href="#c"/>
<use x="63.623047" xlink:href="#g"/>
<use x="95.410156" xlink:href="#n"/>
<use x="159.033203" xlink:href="#ah"/>
</g>
</g>
<g clip-path="url(#a)">
<g transform="translate(340.07 605.18) scale(.1 -.1)">
<use xlink:href="#c"/>
<use x="63.623047" xlink:href="#g"/>
<use x="95.410156" xlink:href="#n"/>
<use x="159.033203" xlink:href="#z"/>
</g>
</g>
<g clip-path="url(#a)">
<g transform="translate(626.57 605.18) scale(.1 -.1)">
<use xlink:href="#c"/>
<use x="63.623047" xlink:href="#g"/>
<use x="95.410156" xlink:href="#n"/>
<use x="159.033203" xlink:href="#ag"/>
</g>
</g>
<g clip-path="url(#a)">
<g transform="translate(1342.8 605.18) scale(.1 -.1)">
<use xlink:href="#c"/>
<use x="63.623047" xlink:href="#g"/>
<use x="95.410156" xlink:href="#n"/>
<use x="159.033203" xlink:href="#y"/>
</g>
</g>
<defs>
<clipPath id="a">
<rect width="1418.7" height="746.67"/>
</clipPath>
</defs>
</svg>
