<?xml version="1.0" encoding="utf-8" standalone="no"?>
<!DOCTYPE svg PUBLIC "-//W3C//DTD SVG 1.1//EN"
  "http://www.w3.org/Graphics/SVG/1.1/DTD/svg11.dtd">
<!-- Created with matplotlib (https://matplotlib.org/) -->
<svg height="480pt" version="1.1" viewBox="0 0 912 480" width="912pt" xmlns="http://www.w3.org/2000/svg" xmlns:xlink="http://www.w3.org/1999/xlink">
 <defs>
  <style type="text/css">
*{stroke-linecap:butt;stroke-linejoin:round;}
  </style>
 </defs>
 <g id="figure_1">
  <g id="patch_1">
   <path d="M 0 480 
L 912 480 
L 912 0 
L 0 0 
z
" style="fill:#ffffff;"/>
  </g>
  <g id="axes_1">
   <g id="LineCollection_1">
    <path clip-path="url(#pd537875e12)" d="M 677.377319 22.923092 
L 677.377319 112.82576 
" style="fill:none;stroke:#000000;"/>
    <path clip-path="url(#pd537875e12)" d="M 677.377319 112.82576 
L 251.330403 200.72561 
" style="fill:none;stroke:#000000;"/>
    <path clip-path="url(#pd537875e12)" d="M 677.377319 112.82576 
L 675.288854 372.020883 
" style="fill:none;stroke:#000000;"/>
    <path clip-path="url(#pd537875e12)" d="M 677.377319 112.82576 
L 724.01971 372.020883 
" style="fill:none;stroke:#000000;"/>
    <path clip-path="url(#pd537875e12)" d="M 677.377319 112.82576 
L 772.750567 372.020883 
" style="fill:none;stroke:#000000;"/>
    <path clip-path="url(#pd537875e12)" d="M 677.377319 112.82576 
L 821.481423 372.020883 
" style="fill:none;stroke:#000000;"/>
    <path clip-path="url(#pd537875e12)" d="M 677.377319 112.82576 
L 626.557997 372.020883 
" style="fill:none;stroke:#000000;"/>
    <path clip-path="url(#pd537875e12)" d="M 677.377319 112.82576 
L 870.21228 372.020883 
" style="fill:none;stroke:#000000;"/>
    <path clip-path="url(#pd537875e12)" d="M 251.330403 200.72561 
L 41.78772 372.020883 
" style="fill:none;stroke:#000000;"/>
    <path clip-path="url(#pd537875e12)" d="M 251.330403 200.72561 
L 139.249433 286.964858 
" style="fill:none;stroke:#000000;"/>
    <path clip-path="url(#pd537875e12)" d="M 251.330403 200.72561 
L 236.711146 372.020883 
" style="fill:none;stroke:#000000;"/>
    <path clip-path="url(#pd537875e12)" d="M 251.330403 200.72561 
L 334.172859 286.964858 
" style="fill:none;stroke:#000000;"/>
    <path clip-path="url(#pd537875e12)" d="M 251.330403 200.72561 
L 504.730856 286.964858 
" style="fill:none;stroke:#000000;"/>
    <path clip-path="url(#pd537875e12)" d="M 675.288854 372.020883 
L 675.288854 457.076908 
" style="fill:none;stroke:#000000;"/>
    <path clip-path="url(#pd537875e12)" d="M 724.01971 372.020883 
L 724.01971 457.076908 
" style="fill:none;stroke:#000000;"/>
    <path clip-path="url(#pd537875e12)" d="M 772.750567 372.020883 
L 772.750567 457.076908 
" style="fill:none;stroke:#000000;"/>
    <path clip-path="url(#pd537875e12)" d="M 821.481423 372.020883 
L 821.481423 457.076908 
" style="fill:none;stroke:#000000;"/>
    <path clip-path="url(#pd537875e12)" d="M 41.78772 372.020883 
L 41.78772 457.076908 
" style="fill:none;stroke:#000000;"/>
    <path clip-path="url(#pd537875e12)" d="M 139.249433 286.964858 
L 90.518577 372.020883 
" style="fill:none;stroke:#000000;"/>
    <path clip-path="url(#pd537875e12)" d="M 139.249433 286.964858 
L 139.249433 372.020883 
" style="fill:none;stroke:#000000;"/>
    <path clip-path="url(#pd537875e12)" d="M 139.249433 286.964858 
L 187.98029 372.020883 
" style="fill:none;stroke:#000000;"/>
    <path clip-path="url(#pd537875e12)" d="M 236.711146 372.020883 
L 236.711146 457.076908 
" style="fill:none;stroke:#000000;"/>
    <path clip-path="url(#pd537875e12)" d="M 334.172859 286.964858 
L 285.442003 372.020883 
" style="fill:none;stroke:#000000;"/>
    <path clip-path="url(#pd537875e12)" d="M 334.172859 286.964858 
L 334.172859 372.020883 
" style="fill:none;stroke:#000000;"/>
    <path clip-path="url(#pd537875e12)" d="M 334.172859 286.964858 
L 382.903715 372.020883 
" style="fill:none;stroke:#000000;"/>
    <path clip-path="url(#pd537875e12)" d="M 504.730856 286.964858 
L 431.634572 372.020883 
" style="fill:none;stroke:#000000;"/>
    <path clip-path="url(#pd537875e12)" d="M 504.730856 286.964858 
L 480.365428 372.020883 
" style="fill:none;stroke:#000000;"/>
    <path clip-path="url(#pd537875e12)" d="M 504.730856 286.964858 
L 529.096285 372.020883 
" style="fill:none;stroke:#000000;"/>
    <path clip-path="url(#pd537875e12)" d="M 504.730856 286.964858 
L 577.827141 372.020883 
" style="fill:none;stroke:#000000;"/>
    <path clip-path="url(#pd537875e12)" d="M 431.634572 372.020883 
L 431.634572 457.076908 
" style="fill:none;stroke:#000000;"/>
    <path clip-path="url(#pd537875e12)" d="M 480.365428 372.020883 
L 480.365428 457.076908 
" style="fill:none;stroke:#000000;"/>
    <path clip-path="url(#pd537875e12)" d="M 529.096285 372.020883 
L 529.096285 457.076908 
" style="fill:none;stroke:#000000;"/>
    <path clip-path="url(#pd537875e12)" d="M 577.827141 372.020883 
L 577.827141 457.076908 
" style="fill:none;stroke:#000000;"/>
    <path clip-path="url(#pd537875e12)" d="M 285.442003 372.020883 
L 285.442003 457.076908 
" style="fill:none;stroke:#000000;"/>
    <path clip-path="url(#pd537875e12)" d="M 334.172859 372.020883 
L 334.172859 457.076908 
" style="fill:none;stroke:#000000;"/>
    <path clip-path="url(#pd537875e12)" d="M 382.903715 372.020883 
L 382.903715 457.076908 
" style="fill:none;stroke:#000000;"/>
    <path clip-path="url(#pd537875e12)" d="M 90.518577 372.020883 
L 90.518577 457.076908 
" style="fill:none;stroke:#000000;"/>
    <path clip-path="url(#pd537875e12)" d="M 139.249433 372.020883 
L 139.249433 457.076908 
" style="fill:none;stroke:#000000;"/>
    <path clip-path="url(#pd537875e12)" d="M 187.98029 372.020883 
L 187.98029 457.076908 
" style="fill:none;stroke:#000000;"/>
    <path clip-path="url(#pd537875e12)" d="M 626.557997 372.020883 
L 626.557997 457.076908 
" style="fill:none;stroke:#000000;"/>
    <path clip-path="url(#pd537875e12)" d="M 870.21228 372.020883 
L 870.21228 457.076908 
" style="fill:none;stroke:#000000;"/>
   </g>
   <g id="text_1">
    <g id="patch_2">
     <path clip-path="url(#pd537875e12)" d="M 671.106069 64.866301 
L 671.106069 70.882551 
Q 671.106069 73.282551 673.506069 73.282551 
L 681.248569 73.282551 
Q 683.648569 73.282551 683.648569 70.882551 
L 683.648569 64.866301 
Q 683.648569 62.466301 681.248569 62.466301 
L 673.506069 62.466301 
Q 671.106069 62.466301 671.106069 64.866301 
z
" style="fill:#ffffff;stroke:#ffffff;stroke-linejoin:miter;"/>
    </g>
    <g clip-path="url(#pd537875e12)">
     <!-- H -->
     <defs>
      <path d="M 9.8125 72.90625 
L 19.671875 72.90625 
L 19.671875 43.015625 
L 55.515625 43.015625 
L 55.515625 72.90625 
L 65.375 72.90625 
L 65.375 0 
L 55.515625 0 
L 55.515625 34.71875 
L 19.671875 34.71875 
L 19.671875 0 
L 9.8125 0 
z
" id="DejaVuSans-72"/>
     </defs>
     <g transform="translate(675.169819 64.866301)rotate(-270)scale(0.08 -0.08)">
      <use xlink:href="#DejaVuSans-72"/>
     </g>
    </g>
   </g>
   <g id="text_2">
    <g id="patch_3">
     <path clip-path="url(#pd537875e12)" d="M 462.941216 163.470464 
L 468.300836 162.364695 
Q 470.651332 161.879752 470.166389 159.529256 
L 468.601945 151.946459 
Q 468.117002 149.595963 465.766507 150.080905 
L 460.406886 151.186675 
Q 458.05639 151.671617 458.541333 154.022113 
L 460.105777 161.604911 
Q 460.59072 163.955407 462.941216 163.470464 
z
" style="fill:#ffffff;stroke:#ffffff;stroke-linejoin:miter;"/>
    </g>
    <g clip-path="url(#pd537875e12)">
     <!-- A -->
     <defs>
      <path d="M 34.1875 63.1875 
L 20.796875 26.90625 
L 47.609375 26.90625 
z
M 28.609375 72.90625 
L 39.796875 72.90625 
L 67.578125 0 
L 57.328125 0 
L 50.6875 18.703125 
L 17.828125 18.703125 
L 11.1875 0 
L 0.78125 0 
z
" id="DejaVuSans-65"/>
     </defs>
     <g transform="translate(462.120097 159.490536)rotate(-11.65741)scale(0.08 -0.08)">
      <use xlink:href="#DejaVuSans-65"/>
     </g>
    </g>
   </g>
   <g id="text_3">
    <g id="patch_4">
     <path clip-path="url(#pd537875e12)" d="M 682.585596 244.774401 
L 682.62267 240.1733 
Q 682.642007 237.773378 680.242085 237.754041 
L 672.499836 237.691657 
Q 670.099914 237.67232 670.080577 240.072242 
L 670.043503 244.673343 
Q 670.024166 247.073265 672.424088 247.092602 
L 680.166337 247.154985 
Q 682.566259 247.174323 682.585596 244.774401 
z
" style="fill:#ffffff;stroke:#ffffff;stroke-linejoin:miter;"/>
    </g>
    <g clip-path="url(#pd537875e12)">
     <!-- F -->
     <defs>
      <path d="M 9.8125 72.90625 
L 51.703125 72.90625 
L 51.703125 64.59375 
L 19.671875 64.59375 
L 19.671875 43.109375 
L 48.578125 43.109375 
L 48.578125 34.8125 
L 19.671875 34.8125 
L 19.671875 0 
L 9.8125 0 
z
" id="DejaVuSans-70"/>
     </defs>
     <g transform="translate(678.521978 244.741658)rotate(-89.538349)scale(0.08 -0.08)">
      <use xlink:href="#DejaVuSans-70"/>
     </g>
    </g>
   </g>
   <g id="text_4">
    <g id="patch_5">
     <path clip-path="url(#pd537875e12)" d="M 694.118947 241.269742 
L 694.933857 245.798255 
Q 695.358912 248.160315 697.720972 247.73526 
L 705.341077 246.364015 
Q 707.703137 245.938961 707.278082 243.5769 
L 706.463172 239.048388 
Q 706.038118 236.686328 703.676057 237.111383 
L 696.055953 238.482627 
Q 693.693893 238.907682 694.118947 241.269742 
z
" style="fill:#ffffff;stroke:#ffffff;stroke-linejoin:miter;"/>
    </g>
    <g clip-path="url(#pd537875e12)">
     <!-- F -->
     <g transform="translate(698.118457 240.550027)rotate(-280.201248)scale(0.08 -0.08)">
      <use xlink:href="#DejaVuSans-70"/>
     </g>
    </g>
   </g>
   <g id="text_5">
    <g id="patch_6">
     <path clip-path="url(#pd537875e12)" d="M 718.11488 241.698403 
L 720.242075 247.479462 
Q 721.070852 249.731823 723.323212 248.903046 
L 730.589422 246.229377 
Q 732.841783 245.4006 732.013006 243.148239 
L 729.885811 237.36718 
Q 729.057034 235.11482 726.804674 235.943597 
L 719.538464 238.617266 
Q 717.286103 239.446043 718.11488 241.698403 
z
" style="fill:#ffffff;stroke:#ffffff;stroke-linejoin:miter;"/>
    </g>
    <g clip-path="url(#pd537875e12)">
     <!-- D -->
     <defs>
      <path d="M 19.671875 64.796875 
L 19.671875 8.109375 
L 31.59375 8.109375 
Q 46.6875 8.109375 53.6875 14.9375 
Q 60.6875 21.78125 60.6875 36.53125 
Q 60.6875 51.171875 53.6875 57.984375 
Q 46.6875 64.796875 31.59375 64.796875 
z
M 9.8125 72.90625 
L 30.078125 72.90625 
Q 51.265625 72.90625 61.171875 64.09375 
Q 71.09375 55.28125 71.09375 36.53125 
Q 71.09375 17.671875 61.125 8.828125 
Q 51.171875 0 30.078125 0 
L 9.8125 0 
z
" id="DejaVuSans-68"/>
     </defs>
     <g transform="translate(721.928643 240.295094)rotate(-290.20156)scale(0.08 -0.08)">
      <use xlink:href="#DejaVuSans-68"/>
     </g>
    </g>
   </g>
   <g id="text_6">
    <g id="patch_7">
     <path clip-path="url(#pd537875e12)" d="M 742.714343 243.251211 
L 745.1822 247.69006 
Q 746.348403 249.787671 748.446014 248.621467 
L 755.212992 244.859246 
Q 757.310603 243.693042 756.144399 241.595432 
L 753.676542 237.156583 
Q 752.510339 235.058972 750.412729 236.225176 
L 743.64575 239.987397 
Q 741.54814 241.1536 742.714343 243.251211 
z
" style="fill:#ffffff;stroke:#ffffff;stroke-linejoin:miter;"/>
    </g>
    <g clip-path="url(#pd537875e12)">
     <!-- S -->
     <defs>
      <path d="M 53.515625 70.515625 
L 53.515625 60.890625 
Q 47.90625 63.578125 42.921875 64.890625 
Q 37.9375 66.21875 33.296875 66.21875 
Q 25.25 66.21875 20.875 63.09375 
Q 16.5 59.96875 16.5 54.203125 
Q 16.5 49.359375 19.40625 46.890625 
Q 22.3125 44.4375 30.421875 42.921875 
L 36.375 41.703125 
Q 47.40625 39.59375 52.65625 34.296875 
Q 57.90625 29 57.90625 20.125 
Q 57.90625 9.515625 50.796875 4.046875 
Q 43.703125 -1.421875 29.984375 -1.421875 
Q 24.8125 -1.421875 18.96875 -0.25 
Q 13.140625 0.921875 6.890625 3.21875 
L 6.890625 13.375 
Q 12.890625 10.015625 18.65625 8.296875 
Q 24.421875 6.59375 29.984375 6.59375 
Q 38.421875 6.59375 43.015625 9.90625 
Q 47.609375 13.234375 47.609375 19.390625 
Q 47.609375 24.75 44.3125 27.78125 
Q 41.015625 30.8125 33.5 32.328125 
L 27.484375 33.5 
Q 16.453125 35.6875 11.515625 40.375 
Q 6.59375 45.0625 6.59375 53.421875 
Q 6.59375 63.09375 13.40625 68.65625 
Q 20.21875 74.21875 32.171875 74.21875 
Q 37.3125 74.21875 42.625 73.28125 
Q 47.953125 72.359375 53.515625 70.515625 
z
" id="DejaVuSans-83"/>
     </defs>
     <g transform="translate(746.266078 241.276561)rotate(-299.072644)scale(0.08 -0.08)">
      <use xlink:href="#DejaVuSans-83"/>
     </g>
    </g>
   </g>
   <g id="text_7">
    <g id="patch_8">
     <path clip-path="url(#pd537875e12)" d="M 657.558478 246.502729 
L 658.684995 240.757123 
Q 659.146762 238.401965 656.791603 237.940199 
L 649.193763 236.450521 
Q 646.838605 235.988755 646.376839 238.343914 
L 645.250321 244.089519 
Q 644.788555 246.444678 647.143714 246.906444 
L 654.741553 248.396121 
Q 657.096712 248.857888 657.558478 246.502729 
z
" style="fill:#ffffff;stroke:#ffffff;stroke-linejoin:miter;"/>
    </g>
    <g clip-path="url(#pd537875e12)">
     <!-- U -->
     <defs>
      <path d="M 8.6875 72.90625 
L 18.609375 72.90625 
L 18.609375 28.609375 
Q 18.609375 16.890625 22.84375 11.734375 
Q 27.09375 6.59375 36.625 6.59375 
Q 46.09375 6.59375 50.34375 11.734375 
Q 54.59375 16.890625 54.59375 28.609375 
L 54.59375 72.90625 
L 64.5 72.90625 
L 64.5 27.390625 
Q 64.5 13.140625 57.4375 5.859375 
Q 50.390625 -1.421875 36.625 -1.421875 
Q 22.796875 -1.421875 15.734375 5.859375 
Q 8.6875 13.140625 8.6875 27.390625 
z
" id="DejaVuSans-85"/>
     </defs>
     <g transform="translate(653.570655 245.720853)rotate(-78.906969)scale(0.08 -0.08)">
      <use xlink:href="#DejaVuSans-85"/>
     </g>
    </g>
   </g>
   <g id="text_8">
    <g id="patch_9">
     <path clip-path="url(#pd537875e12)" d="M 767.015857 243.817871 
L 770.51072 248.515419 
Q 771.943285 250.440972 773.868839 249.008407 
L 780.080754 244.386891 
Q 782.006308 242.954325 780.573742 241.028772 
L 777.078879 236.331224 
Q 775.646313 234.40567 773.72076 235.838236 
L 767.508845 240.459752 
Q 765.583291 241.892318 767.015857 243.817871 
z
" style="fill:#ffffff;stroke:#ffffff;stroke-linejoin:miter;"/>
    </g>
    <g clip-path="url(#pd537875e12)">
     <!-- U -->
     <g transform="translate(770.27626 241.392209)rotate(-306.648364)scale(0.08 -0.08)">
      <use xlink:href="#DejaVuSans-85"/>
     </g>
    </g>
   </g>
   <g id="text_9">
    <g id="patch_10">
     <path clip-path="url(#pd537875e12)" d="M 148.376323 292.987705 
L 152.680055 289.469525 
Q 154.538199 287.950544 153.019219 286.0924 
L 148.118924 280.097951 
Q 146.599944 278.239807 144.7418 279.758788 
L 140.438068 283.276968 
Q 138.579924 284.795949 140.098905 286.654092 
L 144.999199 292.648542 
Q 146.51818 294.506685 148.376323 292.987705 
z
" style="fill:#ffffff;stroke:#ffffff;stroke-linejoin:miter;"/>
    </g>
    <g clip-path="url(#pd537875e12)">
     <!-- R -->
     <defs>
      <path d="M 44.390625 34.1875 
Q 47.5625 33.109375 50.5625 29.59375 
Q 53.5625 26.078125 56.59375 19.921875 
L 66.609375 0 
L 56 0 
L 46.6875 18.703125 
Q 43.0625 26.03125 39.671875 28.421875 
Q 36.28125 30.8125 30.421875 30.8125 
L 19.671875 30.8125 
L 19.671875 0 
L 9.8125 0 
L 9.8125 72.90625 
L 32.078125 72.90625 
Q 44.578125 72.90625 50.734375 67.671875 
Q 56.890625 62.453125 56.890625 51.90625 
Q 56.890625 45.015625 53.6875 40.46875 
Q 50.484375 35.9375 44.390625 34.1875 
z
M 19.671875 64.796875 
L 19.671875 38.921875 
L 32.078125 38.921875 
Q 39.203125 38.921875 42.84375 42.21875 
Q 46.484375 45.515625 46.484375 51.90625 
Q 46.484375 58.296875 42.84375 61.546875 
Q 39.203125 64.796875 32.078125 64.796875 
z
" id="DejaVuSans-82"/>
     </defs>
     <g transform="translate(145.804341 289.841442)rotate(-39.265036)scale(0.08 -0.08)">
      <use xlink:href="#DejaVuSans-82"/>
     </g>
    </g>
   </g>
   <g id="text_10">
    <g id="patch_11">
     <path clip-path="url(#pd537875e12)" d="M 196.94561 250.484084 
L 201.282812 247.146879 
Q 203.18492 245.683327 201.721368 243.781219 
L 196.999887 237.64494 
Q 195.536335 235.742832 193.634227 237.206384 
L 189.297024 240.543588 
Q 187.394916 242.00714 188.858469 243.909248 
L 193.579949 250.045528 
Q 195.043502 251.947636 196.94561 250.484084 
z
" style="fill:#ffffff;stroke:#ffffff;stroke-linejoin:miter;"/>
    </g>
    <g clip-path="url(#pd537875e12)">
     <!-- A -->
     <g transform="translate(194.46748 247.263379)rotate(-37.576016)scale(0.08 -0.08)">
      <use xlink:href="#DejaVuSans-65"/>
     </g>
    </g>
   </g>
   <g id="text_11">
    <g id="patch_12">
     <path clip-path="url(#pd537875e12)" d="M 250.073673 289.198822 
L 250.464946 284.614238 
Q 250.669033 282.222931 248.277726 282.018844 
L 240.56327 281.360451 
Q 238.171963 281.156364 237.967876 283.547671 
L 237.576603 288.132255 
Q 237.372516 290.523562 239.763823 290.727648 
L 247.478279 291.386041 
Q 249.869586 291.590128 250.073673 289.198822 
z
" style="fill:#ffffff;stroke:#ffffff;stroke-linejoin:miter;"/>
    </g>
    <g clip-path="url(#pd537875e12)">
     <!-- F -->
     <g transform="translate(246.024642 288.853256)rotate(-85.121892)scale(0.08 -0.08)">
      <use xlink:href="#DejaVuSans-70"/>
     </g>
    </g>
   </g>
   <g id="text_12">
    <g id="patch_13">
     <path clip-path="url(#pd537875e12)" d="M 286.469833 246.358401 
L 289.988195 250.021027 
Q 291.650822 251.751827 293.381623 250.0892 
L 298.965257 244.725494 
Q 300.696057 243.062867 299.033429 241.332066 
L 295.515067 237.66944 
Q 293.85244 235.93864 292.121639 237.601268 
L 286.538005 242.964973 
Q 284.807205 244.627601 286.469833 246.358401 
z
" style="fill:#ffffff;stroke:#ffffff;stroke-linejoin:miter;"/>
    </g>
    <g clip-path="url(#pd537875e12)">
     <!-- S -->
     <g transform="translate(289.400474 243.543192)rotate(-313.849103)scale(0.08 -0.08)">
      <use xlink:href="#DejaVuSans-83"/>
     </g>
    </g>
   </g>
   <g id="text_13">
    <g id="patch_14">
     <path clip-path="url(#pd537875e12)" d="M 373.419804 248.900521 
L 378.6005 250.663656 
Q 380.872528 251.436891 381.645762 249.164863 
L 384.140248 241.835208 
Q 384.913483 239.563181 382.641455 238.789946 
L 377.460759 237.026811 
Q 375.188732 236.253577 374.415497 238.525604 
L 371.921011 245.855259 
Q 371.147777 248.127287 373.419804 248.900521 
z
" style="fill:#ffffff;stroke:#ffffff;stroke-linejoin:miter;"/>
    </g>
    <g clip-path="url(#pd537875e12)">
     <!-- A -->
     <g transform="translate(374.729067 245.053458)rotate(-341.205127)scale(0.08 -0.08)">
      <use xlink:href="#DejaVuSans-65"/>
     </g>
    </g>
   </g>
   <g id="text_14">
    <g id="patch_15">
     <path clip-path="url(#pd537875e12)" d="M 669.017604 396.906395 
L 669.017604 432.191395 
Q 669.017604 434.591395 671.417604 434.591395 
L 679.160104 434.591395 
Q 681.560104 434.591395 681.560104 432.191395 
L 681.560104 396.906395 
Q 681.560104 394.506395 679.160104 394.506395 
L 671.417604 394.506395 
Q 669.017604 394.506395 669.017604 396.906395 
z
" style="fill:#ffffff;stroke:#ffffff;stroke-linejoin:miter;"/>
    </g>
    <g clip-path="url(#pd537875e12)">
     <!-- Terminal -->
     <defs>
      <path d="M -0.296875 72.90625 
L 61.375 72.90625 
L 61.375 64.59375 
L 35.5 64.59375 
L 35.5 0 
L 25.59375 0 
L 25.59375 64.59375 
L -0.296875 64.59375 
z
" id="DejaVuSans-84"/>
      <path d="M 56.203125 29.59375 
L 56.203125 25.203125 
L 14.890625 25.203125 
Q 15.484375 15.921875 20.484375 11.0625 
Q 25.484375 6.203125 34.421875 6.203125 
Q 39.59375 6.203125 44.453125 7.46875 
Q 49.3125 8.734375 54.109375 11.28125 
L 54.109375 2.78125 
Q 49.265625 0.734375 44.1875 -0.34375 
Q 39.109375 -1.421875 33.890625 -1.421875 
Q 20.796875 -1.421875 13.15625 6.1875 
Q 5.515625 13.8125 5.515625 26.8125 
Q 5.515625 40.234375 12.765625 48.109375 
Q 20.015625 56 32.328125 56 
Q 43.359375 56 49.78125 48.890625 
Q 56.203125 41.796875 56.203125 29.59375 
z
M 47.21875 32.234375 
Q 47.125 39.59375 43.09375 43.984375 
Q 39.0625 48.390625 32.421875 48.390625 
Q 24.90625 48.390625 20.390625 44.140625 
Q 15.875 39.890625 15.1875 32.171875 
z
" id="DejaVuSans-101"/>
      <path d="M 41.109375 46.296875 
Q 39.59375 47.171875 37.8125 47.578125 
Q 36.03125 48 33.890625 48 
Q 26.265625 48 22.1875 43.046875 
Q 18.109375 38.09375 18.109375 28.8125 
L 18.109375 0 
L 9.078125 0 
L 9.078125 54.6875 
L 18.109375 54.6875 
L 18.109375 46.1875 
Q 20.953125 51.171875 25.484375 53.578125 
Q 30.03125 56 36.53125 56 
Q 37.453125 56 38.578125 55.875 
Q 39.703125 55.765625 41.0625 55.515625 
z
" id="DejaVuSans-114"/>
      <path d="M 52 44.1875 
Q 55.375 50.25 60.0625 53.125 
Q 64.75 56 71.09375 56 
Q 79.640625 56 84.28125 50.015625 
Q 88.921875 44.046875 88.921875 33.015625 
L 88.921875 0 
L 79.890625 0 
L 79.890625 32.71875 
Q 79.890625 40.578125 77.09375 44.375 
Q 74.3125 48.1875 68.609375 48.1875 
Q 61.625 48.1875 57.5625 43.546875 
Q 53.515625 38.921875 53.515625 30.90625 
L 53.515625 0 
L 44.484375 0 
L 44.484375 32.71875 
Q 44.484375 40.625 41.703125 44.40625 
Q 38.921875 48.1875 33.109375 48.1875 
Q 26.21875 48.1875 22.15625 43.53125 
Q 18.109375 38.875 18.109375 30.90625 
L 18.109375 0 
L 9.078125 0 
L 9.078125 54.6875 
L 18.109375 54.6875 
L 18.109375 46.1875 
Q 21.1875 51.21875 25.484375 53.609375 
Q 29.78125 56 35.6875 56 
Q 41.65625 56 45.828125 52.96875 
Q 50 49.953125 52 44.1875 
z
" id="DejaVuSans-109"/>
      <path d="M 9.421875 54.6875 
L 18.40625 54.6875 
L 18.40625 0 
L 9.421875 0 
z
M 9.421875 75.984375 
L 18.40625 75.984375 
L 18.40625 64.59375 
L 9.421875 64.59375 
z
" id="DejaVuSans-105"/>
      <path d="M 54.890625 33.015625 
L 54.890625 0 
L 45.90625 0 
L 45.90625 32.71875 
Q 45.90625 40.484375 42.875 44.328125 
Q 39.84375 48.1875 33.796875 48.1875 
Q 26.515625 48.1875 22.3125 43.546875 
Q 18.109375 38.921875 18.109375 30.90625 
L 18.109375 0 
L 9.078125 0 
L 9.078125 54.6875 
L 18.109375 54.6875 
L 18.109375 46.1875 
Q 21.34375 51.125 25.703125 53.5625 
Q 30.078125 56 35.796875 56 
Q 45.21875 56 50.046875 50.171875 
Q 54.890625 44.34375 54.890625 33.015625 
z
" id="DejaVuSans-110"/>
      <path d="M 34.28125 27.484375 
Q 23.390625 27.484375 19.1875 25 
Q 14.984375 22.515625 14.984375 16.5 
Q 14.984375 11.71875 18.140625 8.90625 
Q 21.296875 6.109375 26.703125 6.109375 
Q 34.1875 6.109375 38.703125 11.40625 
Q 43.21875 16.703125 43.21875 25.484375 
L 43.21875 27.484375 
z
M 52.203125 31.203125 
L 52.203125 0 
L 43.21875 0 
L 43.21875 8.296875 
Q 40.140625 3.328125 35.546875 0.953125 
Q 30.953125 -1.421875 24.3125 -1.421875 
Q 15.921875 -1.421875 10.953125 3.296875 
Q 6 8.015625 6 15.921875 
Q 6 25.140625 12.171875 29.828125 
Q 18.359375 34.515625 30.609375 34.515625 
L 43.21875 34.515625 
L 43.21875 35.40625 
Q 43.21875 41.609375 39.140625 45 
Q 35.0625 48.390625 27.6875 48.390625 
Q 23 48.390625 18.546875 47.265625 
Q 14.109375 46.140625 10.015625 43.890625 
L 10.015625 52.203125 
Q 14.9375 54.109375 19.578125 55.046875 
Q 24.21875 56 28.609375 56 
Q 40.484375 56 46.34375 49.84375 
Q 52.203125 43.703125 52.203125 31.203125 
z
" id="DejaVuSans-97"/>
      <path d="M 9.421875 75.984375 
L 18.40625 75.984375 
L 18.40625 0 
L 9.421875 0 
z
" id="DejaVuSans-108"/>
     </defs>
     <g transform="translate(673.081354 396.906395)rotate(-270)scale(0.08 -0.08)">
      <use xlink:href="#DejaVuSans-84"/>
      <use x="60.818359" xlink:href="#DejaVuSans-101"/>
      <use x="122.341797" xlink:href="#DejaVuSans-114"/>
      <use x="163.439453" xlink:href="#DejaVuSans-109"/>
      <use x="260.851562" xlink:href="#DejaVuSans-105"/>
      <use x="288.634766" xlink:href="#DejaVuSans-110"/>
      <use x="352.013672" xlink:href="#DejaVuSans-97"/>
      <use x="413.292969" xlink:href="#DejaVuSans-108"/>
     </g>
    </g>
   </g>
   <g id="text_15">
    <g id="patch_16">
     <path clip-path="url(#pd537875e12)" d="M 717.74846 396.906395 
L 717.74846 432.191395 
Q 717.74846 434.591395 720.14846 434.591395 
L 727.89096 434.591395 
Q 730.29096 434.591395 730.29096 432.191395 
L 730.29096 396.906395 
Q 730.29096 394.506395 727.89096 394.506395 
L 720.14846 394.506395 
Q 717.74846 394.506395 717.74846 396.906395 
z
" style="fill:#ffffff;stroke:#ffffff;stroke-linejoin:miter;"/>
    </g>
    <g clip-path="url(#pd537875e12)">
     <!-- Terminal -->
     <g transform="translate(721.81221 396.906395)rotate(-270)scale(0.08 -0.08)">
      <use xlink:href="#DejaVuSans-84"/>
      <use x="60.818359" xlink:href="#DejaVuSans-101"/>
      <use x="122.341797" xlink:href="#DejaVuSans-114"/>
      <use x="163.439453" xlink:href="#DejaVuSans-109"/>
      <use x="260.851562" xlink:href="#DejaVuSans-105"/>
      <use x="288.634766" xlink:href="#DejaVuSans-110"/>
      <use x="352.013672" xlink:href="#DejaVuSans-97"/>
      <use x="413.292969" xlink:href="#DejaVuSans-108"/>
     </g>
    </g>
   </g>
   <g id="text_16">
    <g id="patch_17">
     <path clip-path="url(#pd537875e12)" d="M 766.479317 396.906395 
L 766.479317 432.191395 
Q 766.479317 434.591395 768.879317 434.591395 
L 776.621817 434.591395 
Q 779.021817 434.591395 779.021817 432.191395 
L 779.021817 396.906395 
Q 779.021817 394.506395 776.621817 394.506395 
L 768.879317 394.506395 
Q 766.479317 394.506395 766.479317 396.906395 
z
" style="fill:#ffffff;stroke:#ffffff;stroke-linejoin:miter;"/>
    </g>
    <g clip-path="url(#pd537875e12)">
     <!-- Terminal -->
     <g transform="translate(770.543067 396.906395)rotate(-270)scale(0.08 -0.08)">
      <use xlink:href="#DejaVuSans-84"/>
      <use x="60.818359" xlink:href="#DejaVuSans-101"/>
      <use x="122.341797" xlink:href="#DejaVuSans-114"/>
      <use x="163.439453" xlink:href="#DejaVuSans-109"/>
      <use x="260.851562" xlink:href="#DejaVuSans-105"/>
      <use x="288.634766" xlink:href="#DejaVuSans-110"/>
      <use x="352.013672" xlink:href="#DejaVuSans-97"/>
      <use x="413.292969" xlink:href="#DejaVuSans-108"/>
     </g>
    </g>
   </g>
   <g id="text_17">
    <g id="patch_18">
     <path clip-path="url(#pd537875e12)" d="M 815.210173 396.906395 
L 815.210173 432.191395 
Q 815.210173 434.591395 817.610173 434.591395 
L 825.352673 434.591395 
Q 827.752673 434.591395 827.752673 432.191395 
L 827.752673 396.906395 
Q 827.752673 394.506395 825.352673 394.506395 
L 817.610173 394.506395 
Q 815.210173 394.506395 815.210173 396.906395 
z
" style="fill:#ffffff;stroke:#ffffff;stroke-linejoin:miter;"/>
    </g>
    <g clip-path="url(#pd537875e12)">
     <!-- Terminal -->
     <g transform="translate(819.273923 396.906395)rotate(-270)scale(0.08 -0.08)">
      <use xlink:href="#DejaVuSans-84"/>
      <use x="60.818359" xlink:href="#DejaVuSans-101"/>
      <use x="122.341797" xlink:href="#DejaVuSans-114"/>
      <use x="163.439453" xlink:href="#DejaVuSans-109"/>
      <use x="260.851562" xlink:href="#DejaVuSans-105"/>
      <use x="288.634766" xlink:href="#DejaVuSans-110"/>
      <use x="352.013672" xlink:href="#DejaVuSans-97"/>
      <use x="413.292969" xlink:href="#DejaVuSans-108"/>
     </g>
    </g>
   </g>
   <g id="text_18">
    <g id="patch_19">
     <path clip-path="url(#pd537875e12)" d="M 35.51647 396.906395 
L 35.51647 432.191395 
Q 35.51647 434.591395 37.91647 434.591395 
L 45.65897 434.591395 
Q 48.05897 434.591395 48.05897 432.191395 
L 48.05897 396.906395 
Q 48.05897 394.506395 45.65897 394.506395 
L 37.91647 394.506395 
Q 35.51647 394.506395 35.51647 396.906395 
z
" style="fill:#ffffff;stroke:#ffffff;stroke-linejoin:miter;"/>
    </g>
    <g clip-path="url(#pd537875e12)">
     <!-- Terminal -->
     <g transform="translate(39.58022 396.906395)rotate(-270)scale(0.08 -0.08)">
      <use xlink:href="#DejaVuSans-84"/>
      <use x="60.818359" xlink:href="#DejaVuSans-101"/>
      <use x="122.341797" xlink:href="#DejaVuSans-114"/>
      <use x="163.439453" xlink:href="#DejaVuSans-109"/>
      <use x="260.851562" xlink:href="#DejaVuSans-105"/>
      <use x="288.634766" xlink:href="#DejaVuSans-110"/>
      <use x="352.013672" xlink:href="#DejaVuSans-97"/>
      <use x="413.292969" xlink:href="#DejaVuSans-108"/>
     </g>
    </g>
   </g>
   <g id="text_19">
    <g id="patch_20">
     <path clip-path="url(#pd537875e12)" d="M 119.068993 334.803492 
L 121.581927 330.417356 
Q 122.775011 328.334918 120.692573 327.141834 
L 113.97454 323.292894 
Q 111.892101 322.09981 110.699017 324.182248 
L 108.186083 328.568384 
Q 106.992999 330.650823 109.075437 331.843907 
L 115.79347 335.692847 
Q 117.875909 336.885931 119.068993 334.803492 
z
" style="fill:#ffffff;stroke:#ffffff;stroke-linejoin:miter;"/>
    </g>
    <g clip-path="url(#pd537875e12)">
     <!-- E -->
     <defs>
      <path d="M 9.8125 72.90625 
L 55.90625 72.90625 
L 55.90625 64.59375 
L 19.671875 64.59375 
L 19.671875 43.015625 
L 54.390625 43.015625 
L 54.390625 34.71875 
L 19.671875 34.71875 
L 19.671875 8.296875 
L 56.78125 8.296875 
L 56.78125 0 
L 9.8125 0 
z
" id="DejaVuSans-69"/>
     </defs>
     <g transform="translate(115.542948 332.783327)rotate(-60.190459)scale(0.08 -0.08)">
      <use xlink:href="#DejaVuSans-69"/>
     </g>
    </g>
   </g>
   <g id="text_20">
    <g id="patch_21">
     <path clip-path="url(#pd537875e12)" d="M 132.978183 326.96537 
L 132.978183 332.02037 
Q 132.978183 334.42037 135.378183 334.42037 
L 143.120683 334.42037 
Q 145.520683 334.42037 145.520683 332.02037 
L 145.520683 326.96537 
Q 145.520683 324.56537 143.120683 324.56537 
L 135.378183 324.56537 
Q 132.978183 324.56537 132.978183 326.96537 
z
" style="fill:#ffffff;stroke:#ffffff;stroke-linejoin:miter;"/>
    </g>
    <g clip-path="url(#pd537875e12)">
     <!-- E -->
     <g transform="translate(137.041933 326.96537)rotate(-270)scale(0.08 -0.08)">
      <use xlink:href="#DejaVuSans-69"/>
     </g>
    </g>
   </g>
   <g id="text_21">
    <g id="patch_22">
     <path clip-path="url(#pd537875e12)" d="M 156.784892 330.186878 
L 159.56192 335.033971 
Q 160.755005 337.116409 162.837443 335.923325 
L 169.555476 332.074385 
Q 171.637915 330.881301 170.44483 328.798862 
L 167.667802 323.95177 
Q 166.474718 321.869332 164.39228 323.062416 
L 157.674247 326.911356 
Q 155.591808 328.10444 156.784892 330.186878 
z
" style="fill:#ffffff;stroke:#ffffff;stroke-linejoin:miter;"/>
    </g>
    <g clip-path="url(#pd537875e12)">
     <!-- C -->
     <defs>
      <path d="M 64.40625 67.28125 
L 64.40625 56.890625 
Q 59.421875 61.53125 53.78125 63.8125 
Q 48.140625 66.109375 41.796875 66.109375 
Q 29.296875 66.109375 22.65625 58.46875 
Q 16.015625 50.828125 16.015625 36.375 
Q 16.015625 21.96875 22.65625 14.328125 
Q 29.296875 6.6875 41.796875 6.6875 
Q 48.140625 6.6875 53.78125 8.984375 
Q 59.421875 11.28125 64.40625 15.921875 
L 64.40625 5.609375 
Q 59.234375 2.09375 53.4375 0.328125 
Q 47.65625 -1.421875 41.21875 -1.421875 
Q 24.65625 -1.421875 15.125 8.703125 
Q 5.609375 18.84375 5.609375 36.375 
Q 5.609375 53.953125 15.125 64.078125 
Q 24.65625 74.21875 41.21875 74.21875 
Q 47.75 74.21875 53.53125 72.484375 
Q 59.328125 70.75 64.40625 67.28125 
z
" id="DejaVuSans-67"/>
     </defs>
     <g transform="translate(160.310938 328.166713)rotate(-299.809541)scale(0.08 -0.08)">
      <use xlink:href="#DejaVuSans-67"/>
     </g>
    </g>
   </g>
   <g id="text_22">
    <g id="patch_23">
     <path clip-path="url(#pd537875e12)" d="M 230.439896 396.906395 
L 230.439896 432.191395 
Q 230.439896 434.591395 232.839896 434.591395 
L 240.582396 434.591395 
Q 242.982396 434.591395 242.982396 432.191395 
L 242.982396 396.906395 
Q 242.982396 394.506395 240.582396 394.506395 
L 232.839896 394.506395 
Q 230.439896 394.506395 230.439896 396.906395 
z
" style="fill:#ffffff;stroke:#ffffff;stroke-linejoin:miter;"/>
    </g>
    <g clip-path="url(#pd537875e12)">
     <!-- Terminal -->
     <g transform="translate(234.503646 396.906395)rotate(-270)scale(0.08 -0.08)">
      <use xlink:href="#DejaVuSans-84"/>
      <use x="60.818359" xlink:href="#DejaVuSans-101"/>
      <use x="122.341797" xlink:href="#DejaVuSans-114"/>
      <use x="163.439453" xlink:href="#DejaVuSans-109"/>
      <use x="260.851562" xlink:href="#DejaVuSans-105"/>
      <use x="288.634766" xlink:href="#DejaVuSans-110"/>
      <use x="352.013672" xlink:href="#DejaVuSans-97"/>
      <use x="413.292969" xlink:href="#DejaVuSans-108"/>
     </g>
    </g>
   </g>
   <g id="text_23">
    <g id="patch_24">
     <path clip-path="url(#pd537875e12)" d="M 313.867207 335.02204 
L 316.630564 330.198809 
Q 317.823649 328.11637 315.74121 326.923286 
L 309.023177 323.074346 
Q 306.940739 321.881262 305.747654 323.963701 
L 302.984297 328.786932 
Q 301.791213 330.86937 303.873651 332.062454 
L 310.591684 335.911394 
Q 312.674123 337.104478 313.867207 335.02204 
z
" style="fill:#ffffff;stroke:#ffffff;stroke-linejoin:miter;"/>
    </g>
    <g clip-path="url(#pd537875e12)">
     <!-- R -->
     <g transform="translate(310.341162 333.001875)rotate(-60.190459)scale(0.08 -0.08)">
      <use xlink:href="#DejaVuSans-82"/>
     </g>
    </g>
   </g>
   <g id="text_24">
    <g id="patch_25">
     <path clip-path="url(#pd537875e12)" d="M 327.901609 326.96537 
L 327.901609 332.02037 
Q 327.901609 334.42037 330.301609 334.42037 
L 338.044109 334.42037 
Q 340.444109 334.42037 340.444109 332.02037 
L 340.444109 326.96537 
Q 340.444109 324.56537 338.044109 324.56537 
L 330.301609 324.56537 
Q 327.901609 324.56537 327.901609 326.96537 
z
" style="fill:#ffffff;stroke:#ffffff;stroke-linejoin:miter;"/>
    </g>
    <g clip-path="url(#pd537875e12)">
     <!-- E -->
     <g transform="translate(331.965359 326.96537)rotate(-270)scale(0.08 -0.08)">
      <use xlink:href="#DejaVuSans-69"/>
     </g>
    </g>
   </g>
   <g id="text_25">
    <g id="patch_26">
     <path clip-path="url(#pd537875e12)" d="M 351.708318 330.186878 
L 354.485346 335.033971 
Q 355.67843 337.116409 357.760869 335.923325 
L 364.478902 332.074385 
Q 366.56134 330.881301 365.368256 328.798862 
L 362.591228 323.95177 
Q 361.398144 321.869332 359.315705 323.062416 
L 352.597672 326.911356 
Q 350.515234 328.10444 351.708318 330.186878 
z
" style="fill:#ffffff;stroke:#ffffff;stroke-linejoin:miter;"/>
    </g>
    <g clip-path="url(#pd537875e12)">
     <!-- C -->
     <g transform="translate(355.234364 328.166713)rotate(-299.809541)scale(0.08 -0.08)">
      <use xlink:href="#DejaVuSans-67"/>
     </g>
    </g>
   </g>
   <g id="text_26">
    <g id="patch_27">
     <path clip-path="url(#pd537875e12)" d="M 471.291561 335.497194 
L 474.586274 331.663412 
Q 476.15053 329.843219 474.330337 328.278963 
L 468.458317 323.232609 
Q 466.638123 321.668353 465.073868 323.488546 
L 461.779154 327.322329 
Q 460.214898 329.142522 462.035092 330.706778 
L 467.907111 335.753132 
Q 469.727305 337.317388 471.291561 335.497194 
z
" style="fill:#ffffff;stroke:#ffffff;stroke-linejoin:miter;"/>
    </g>
    <g clip-path="url(#pd537875e12)">
     <!-- E -->
     <g transform="translate(468.209556 332.848551)rotate(-49.324571)scale(0.08 -0.08)">
      <use xlink:href="#DejaVuSans-69"/>
     </g>
    </g>
   </g>
   <g id="text_27">
    <g id="patch_28">
     <path clip-path="url(#pd537875e12)" d="M 497.880865 333.64966 
L 499.272945 328.790119 
Q 499.933873 326.482919 497.626673 325.82199 
L 490.183548 323.689808 
Q 487.876348 323.02888 487.21542 325.336081 
L 485.823339 330.195622 
Q 485.162411 332.502822 487.469612 333.16375 
L 494.912736 335.295932 
Q 497.219937 335.95686 497.880865 333.64966 
z
" style="fill:#ffffff;stroke:#ffffff;stroke-linejoin:miter;"/>
    </g>
    <g clip-path="url(#pd537875e12)">
     <!-- E -->
     <g transform="translate(493.974246 332.530557)rotate(-74.014936)scale(0.08 -0.08)">
      <use xlink:href="#DejaVuSans-69"/>
     </g>
    </g>
   </g>
   <g id="text_28">
    <g id="patch_29">
     <path clip-path="url(#pd537875e12)" d="M 510.115618 328.534765 
L 511.653997 333.905014 
Q 512.314926 336.212215 514.622126 335.551286 
L 522.065251 333.419104 
Q 524.372451 332.758176 523.711523 330.450976 
L 522.173144 325.080726 
Q 521.512216 322.773526 519.205015 323.434454 
L 511.76189 325.566636 
Q 509.45469 326.227564 510.115618 328.534765 
z
" style="fill:#ffffff;stroke:#ffffff;stroke-linejoin:miter;"/>
    </g>
    <g clip-path="url(#pd537875e12)">
     <!-- C -->
     <g transform="translate(514.022237 327.415662)rotate(-285.985064)scale(0.08 -0.08)">
      <use xlink:href="#DejaVuSans-67"/>
     </g>
    </g>
   </g>
   <g id="text_29">
    <g id="patch_30">
     <path clip-path="url(#pd537875e12)" d="M 534.875439 331.663412 
L 538.170152 335.497194 
Q 539.734408 337.317388 541.554601 335.753132 
L 547.426621 330.706778 
Q 549.246815 329.142522 547.682559 327.322329 
L 544.387845 323.488546 
Q 542.823589 321.668353 541.003396 323.232609 
L 535.131376 328.278963 
Q 533.311183 329.843219 534.875439 331.663412 
z
" style="fill:#ffffff;stroke:#ffffff;stroke-linejoin:miter;"/>
    </g>
    <g clip-path="url(#pd537875e12)">
     <!-- E -->
     <g transform="translate(537.957443 329.014769)rotate(-310.675429)scale(0.08 -0.08)">
      <use xlink:href="#DejaVuSans-69"/>
     </g>
    </g>
   </g>
   <g id="text_30">
    <g id="patch_31">
     <path clip-path="url(#pd537875e12)" d="M 425.363322 396.906395 
L 425.363322 432.191395 
Q 425.363322 434.591395 427.763322 434.591395 
L 435.505822 434.591395 
Q 437.905822 434.591395 437.905822 432.191395 
L 437.905822 396.906395 
Q 437.905822 394.506395 435.505822 394.506395 
L 427.763322 394.506395 
Q 425.363322 394.506395 425.363322 396.906395 
z
" style="fill:#ffffff;stroke:#ffffff;stroke-linejoin:miter;"/>
    </g>
    <g clip-path="url(#pd537875e12)">
     <!-- Terminal -->
     <g transform="translate(429.427072 396.906395)rotate(-270)scale(0.08 -0.08)">
      <use xlink:href="#DejaVuSans-84"/>
      <use x="60.818359" xlink:href="#DejaVuSans-101"/>
      <use x="122.341797" xlink:href="#DejaVuSans-114"/>
      <use x="163.439453" xlink:href="#DejaVuSans-109"/>
      <use x="260.851562" xlink:href="#DejaVuSans-105"/>
      <use x="288.634766" xlink:href="#DejaVuSans-110"/>
      <use x="352.013672" xlink:href="#DejaVuSans-97"/>
      <use x="413.292969" xlink:href="#DejaVuSans-108"/>
     </g>
    </g>
   </g>
   <g id="text_31">
    <g id="patch_32">
     <path clip-path="url(#pd537875e12)" d="M 474.094178 396.906395 
L 474.094178 432.191395 
Q 474.094178 434.591395 476.494178 434.591395 
L 484.236678 434.591395 
Q 486.636678 434.591395 486.636678 432.191395 
L 486.636678 396.906395 
Q 486.636678 394.506395 484.236678 394.506395 
L 476.494178 394.506395 
Q 474.094178 394.506395 474.094178 396.906395 
z
" style="fill:#ffffff;stroke:#ffffff;stroke-linejoin:miter;"/>
    </g>
    <g clip-path="url(#pd537875e12)">
     <!-- Terminal -->
     <g transform="translate(478.157928 396.906395)rotate(-270)scale(0.08 -0.08)">
      <use xlink:href="#DejaVuSans-84"/>
      <use x="60.818359" xlink:href="#DejaVuSans-101"/>
      <use x="122.341797" xlink:href="#DejaVuSans-114"/>
      <use x="163.439453" xlink:href="#DejaVuSans-109"/>
      <use x="260.851562" xlink:href="#DejaVuSans-105"/>
      <use x="288.634766" xlink:href="#DejaVuSans-110"/>
      <use x="352.013672" xlink:href="#DejaVuSans-97"/>
      <use x="413.292969" xlink:href="#DejaVuSans-108"/>
     </g>
    </g>
   </g>
   <g id="text_32">
    <g id="patch_33">
     <path clip-path="url(#pd537875e12)" d="M 522.825035 396.906395 
L 522.825035 432.191395 
Q 522.825035 434.591395 525.225035 434.591395 
L 532.967535 434.591395 
Q 535.367535 434.591395 535.367535 432.191395 
L 535.367535 396.906395 
Q 535.367535 394.506395 532.967535 394.506395 
L 525.225035 394.506395 
Q 522.825035 394.506395 522.825035 396.906395 
z
" style="fill:#ffffff;stroke:#ffffff;stroke-linejoin:miter;"/>
    </g>
    <g clip-path="url(#pd537875e12)">
     <!-- Terminal -->
     <g transform="translate(526.888785 396.906395)rotate(-270)scale(0.08 -0.08)">
      <use xlink:href="#DejaVuSans-84"/>
      <use x="60.818359" xlink:href="#DejaVuSans-101"/>
      <use x="122.341797" xlink:href="#DejaVuSans-114"/>
      <use x="163.439453" xlink:href="#DejaVuSans-109"/>
      <use x="260.851562" xlink:href="#DejaVuSans-105"/>
      <use x="288.634766" xlink:href="#DejaVuSans-110"/>
      <use x="352.013672" xlink:href="#DejaVuSans-97"/>
      <use x="413.292969" xlink:href="#DejaVuSans-108"/>
     </g>
    </g>
   </g>
   <g id="text_33">
    <g id="patch_34">
     <path clip-path="url(#pd537875e12)" d="M 571.555891 396.906395 
L 571.555891 432.191395 
Q 571.555891 434.591395 573.955891 434.591395 
L 581.698391 434.591395 
Q 584.098391 434.591395 584.098391 432.191395 
L 584.098391 396.906395 
Q 584.098391 394.506395 581.698391 394.506395 
L 573.955891 394.506395 
Q 571.555891 394.506395 571.555891 396.906395 
z
" style="fill:#ffffff;stroke:#ffffff;stroke-linejoin:miter;"/>
    </g>
    <g clip-path="url(#pd537875e12)">
     <!-- Terminal -->
     <g transform="translate(575.619641 396.906395)rotate(-270)scale(0.08 -0.08)">
      <use xlink:href="#DejaVuSans-84"/>
      <use x="60.818359" xlink:href="#DejaVuSans-101"/>
      <use x="122.341797" xlink:href="#DejaVuSans-114"/>
      <use x="163.439453" xlink:href="#DejaVuSans-109"/>
      <use x="260.851562" xlink:href="#DejaVuSans-105"/>
      <use x="288.634766" xlink:href="#DejaVuSans-110"/>
      <use x="352.013672" xlink:href="#DejaVuSans-97"/>
      <use x="413.292969" xlink:href="#DejaVuSans-108"/>
     </g>
    </g>
   </g>
   <g id="text_34">
    <g id="patch_35">
     <path clip-path="url(#pd537875e12)" d="M 279.170753 396.906395 
L 279.170753 432.191395 
Q 279.170753 434.591395 281.570753 434.591395 
L 289.313253 434.591395 
Q 291.713253 434.591395 291.713253 432.191395 
L 291.713253 396.906395 
Q 291.713253 394.506395 289.313253 394.506395 
L 281.570753 394.506395 
Q 279.170753 394.506395 279.170753 396.906395 
z
" style="fill:#ffffff;stroke:#ffffff;stroke-linejoin:miter;"/>
    </g>
    <g clip-path="url(#pd537875e12)">
     <!-- Terminal -->
     <g transform="translate(283.234503 396.906395)rotate(-270)scale(0.08 -0.08)">
      <use xlink:href="#DejaVuSans-84"/>
      <use x="60.818359" xlink:href="#DejaVuSans-101"/>
      <use x="122.341797" xlink:href="#DejaVuSans-114"/>
      <use x="163.439453" xlink:href="#DejaVuSans-109"/>
      <use x="260.851562" xlink:href="#DejaVuSans-105"/>
      <use x="288.634766" xlink:href="#DejaVuSans-110"/>
      <use x="352.013672" xlink:href="#DejaVuSans-97"/>
      <use x="413.292969" xlink:href="#DejaVuSans-108"/>
     </g>
    </g>
   </g>
   <g id="text_35">
    <g id="patch_36">
     <path clip-path="url(#pd537875e12)" d="M 327.901609 396.906395 
L 327.901609 432.191395 
Q 327.901609 434.591395 330.301609 434.591395 
L 338.044109 434.591395 
Q 340.444109 434.591395 340.444109 432.191395 
L 340.444109 396.906395 
Q 340.444109 394.506395 338.044109 394.506395 
L 330.301609 394.506395 
Q 327.901609 394.506395 327.901609 396.906395 
z
" style="fill:#ffffff;stroke:#ffffff;stroke-linejoin:miter;"/>
    </g>
    <g clip-path="url(#pd537875e12)">
     <!-- Terminal -->
     <g transform="translate(331.965359 396.906395)rotate(-270)scale(0.08 -0.08)">
      <use xlink:href="#DejaVuSans-84"/>
      <use x="60.818359" xlink:href="#DejaVuSans-101"/>
      <use x="122.341797" xlink:href="#DejaVuSans-114"/>
      <use x="163.439453" xlink:href="#DejaVuSans-109"/>
      <use x="260.851562" xlink:href="#DejaVuSans-105"/>
      <use x="288.634766" xlink:href="#DejaVuSans-110"/>
      <use x="352.013672" xlink:href="#DejaVuSans-97"/>
      <use x="413.292969" xlink:href="#DejaVuSans-108"/>
     </g>
    </g>
   </g>
   <g id="text_36">
    <g id="patch_37">
     <path clip-path="url(#pd537875e12)" d="M 376.632465 396.906395 
L 376.632465 432.191395 
Q 376.632465 434.591395 379.032465 434.591395 
L 386.774965 434.591395 
Q 389.174965 434.591395 389.174965 432.191395 
L 389.174965 396.906395 
Q 389.174965 394.506395 386.774965 394.506395 
L 379.032465 394.506395 
Q 376.632465 394.506395 376.632465 396.906395 
z
" style="fill:#ffffff;stroke:#ffffff;stroke-linejoin:miter;"/>
    </g>
    <g clip-path="url(#pd537875e12)">
     <!-- Terminal -->
     <g transform="translate(380.696215 396.906395)rotate(-270)scale(0.08 -0.08)">
      <use xlink:href="#DejaVuSans-84"/>
      <use x="60.818359" xlink:href="#DejaVuSans-101"/>
      <use x="122.341797" xlink:href="#DejaVuSans-114"/>
      <use x="163.439453" xlink:href="#DejaVuSans-109"/>
      <use x="260.851562" xlink:href="#DejaVuSans-105"/>
      <use x="288.634766" xlink:href="#DejaVuSans-110"/>
      <use x="352.013672" xlink:href="#DejaVuSans-97"/>
      <use x="413.292969" xlink:href="#DejaVuSans-108"/>
     </g>
    </g>
   </g>
   <g id="text_37">
    <g id="patch_38">
     <path clip-path="url(#pd537875e12)" d="M 84.247327 396.906395 
L 84.247327 432.191395 
Q 84.247327 434.591395 86.647327 434.591395 
L 94.389827 434.591395 
Q 96.789827 434.591395 96.789827 432.191395 
L 96.789827 396.906395 
Q 96.789827 394.506395 94.389827 394.506395 
L 86.647327 394.506395 
Q 84.247327 394.506395 84.247327 396.906395 
z
" style="fill:#ffffff;stroke:#ffffff;stroke-linejoin:miter;"/>
    </g>
    <g clip-path="url(#pd537875e12)">
     <!-- Terminal -->
     <g transform="translate(88.311077 396.906395)rotate(-270)scale(0.08 -0.08)">
      <use xlink:href="#DejaVuSans-84"/>
      <use x="60.818359" xlink:href="#DejaVuSans-101"/>
      <use x="122.341797" xlink:href="#DejaVuSans-114"/>
      <use x="163.439453" xlink:href="#DejaVuSans-109"/>
      <use x="260.851562" xlink:href="#DejaVuSans-105"/>
      <use x="288.634766" xlink:href="#DejaVuSans-110"/>
      <use x="352.013672" xlink:href="#DejaVuSans-97"/>
      <use x="413.292969" xlink:href="#DejaVuSans-108"/>
     </g>
    </g>
   </g>
   <g id="text_38">
    <g id="patch_39">
     <path clip-path="url(#pd537875e12)" d="M 132.978183 396.906395 
L 132.978183 432.191395 
Q 132.978183 434.591395 135.378183 434.591395 
L 143.120683 434.591395 
Q 145.520683 434.591395 145.520683 432.191395 
L 145.520683 396.906395 
Q 145.520683 394.506395 143.120683 394.506395 
L 135.378183 394.506395 
Q 132.978183 394.506395 132.978183 396.906395 
z
" style="fill:#ffffff;stroke:#ffffff;stroke-linejoin:miter;"/>
    </g>
    <g clip-path="url(#pd537875e12)">
     <!-- Terminal -->
     <g transform="translate(137.041933 396.906395)rotate(-270)scale(0.08 -0.08)">
      <use xlink:href="#DejaVuSans-84"/>
      <use x="60.818359" xlink:href="#DejaVuSans-101"/>
      <use x="122.341797" xlink:href="#DejaVuSans-114"/>
      <use x="163.439453" xlink:href="#DejaVuSans-109"/>
      <use x="260.851562" xlink:href="#DejaVuSans-105"/>
      <use x="288.634766" xlink:href="#DejaVuSans-110"/>
      <use x="352.013672" xlink:href="#DejaVuSans-97"/>
      <use x="413.292969" xlink:href="#DejaVuSans-108"/>
     </g>
    </g>
   </g>
   <g id="text_39">
    <g id="patch_40">
     <path clip-path="url(#pd537875e12)" d="M 181.70904 396.906395 
L 181.70904 432.191395 
Q 181.70904 434.591395 184.10904 434.591395 
L 191.85154 434.591395 
Q 194.25154 434.591395 194.25154 432.191395 
L 194.25154 396.906395 
Q 194.25154 394.506395 191.85154 394.506395 
L 184.10904 394.506395 
Q 181.70904 394.506395 181.70904 396.906395 
z
" style="fill:#ffffff;stroke:#ffffff;stroke-linejoin:miter;"/>
    </g>
    <g clip-path="url(#pd537875e12)">
     <!-- Terminal -->
     <g transform="translate(185.77279 396.906395)rotate(-270)scale(0.08 -0.08)">
      <use xlink:href="#DejaVuSans-84"/>
      <use x="60.818359" xlink:href="#DejaVuSans-101"/>
      <use x="122.341797" xlink:href="#DejaVuSans-114"/>
      <use x="163.439453" xlink:href="#DejaVuSans-109"/>
      <use x="260.851562" xlink:href="#DejaVuSans-105"/>
      <use x="288.634766" xlink:href="#DejaVuSans-110"/>
      <use x="352.013672" xlink:href="#DejaVuSans-97"/>
      <use x="413.292969" xlink:href="#DejaVuSans-108"/>
     </g>
    </g>
   </g>
   <g id="text_40">
    <g id="patch_41">
     <path clip-path="url(#pd537875e12)" d="M 620.286747 396.906395 
L 620.286747 432.191395 
Q 620.286747 434.591395 622.686747 434.591395 
L 630.429247 434.591395 
Q 632.829247 434.591395 632.829247 432.191395 
L 632.829247 396.906395 
Q 632.829247 394.506395 630.429247 394.506395 
L 622.686747 394.506395 
Q 620.286747 394.506395 620.286747 396.906395 
z
" style="fill:#ffffff;stroke:#ffffff;stroke-linejoin:miter;"/>
    </g>
    <g clip-path="url(#pd537875e12)">
     <!-- Terminal -->
     <g transform="translate(624.350497 396.906395)rotate(-270)scale(0.08 -0.08)">
      <use xlink:href="#DejaVuSans-84"/>
      <use x="60.818359" xlink:href="#DejaVuSans-101"/>
      <use x="122.341797" xlink:href="#DejaVuSans-114"/>
      <use x="163.439453" xlink:href="#DejaVuSans-109"/>
      <use x="260.851562" xlink:href="#DejaVuSans-105"/>
      <use x="288.634766" xlink:href="#DejaVuSans-110"/>
      <use x="352.013672" xlink:href="#DejaVuSans-97"/>
      <use x="413.292969" xlink:href="#DejaVuSans-108"/>
     </g>
    </g>
   </g>
   <g id="text_41">
    <g id="patch_42">
     <path clip-path="url(#pd537875e12)" d="M 863.94103 396.906395 
L 863.94103 432.191395 
Q 863.94103 434.591395 866.34103 434.591395 
L 874.08353 434.591395 
Q 876.48353 434.591395 876.48353 432.191395 
L 876.48353 396.906395 
Q 876.48353 394.506395 874.08353 394.506395 
L 866.34103 394.506395 
Q 863.94103 394.506395 863.94103 396.906395 
z
" style="fill:#ffffff;stroke:#ffffff;stroke-linejoin:miter;"/>
    </g>
    <g clip-path="url(#pd537875e12)">
     <!-- Terminal -->
     <g transform="translate(868.00478 396.906395)rotate(-270)scale(0.08 -0.08)">
      <use xlink:href="#DejaVuSans-84"/>
      <use x="60.818359" xlink:href="#DejaVuSans-101"/>
      <use x="122.341797" xlink:href="#DejaVuSans-114"/>
      <use x="163.439453" xlink:href="#DejaVuSans-109"/>
      <use x="260.851562" xlink:href="#DejaVuSans-105"/>
      <use x="288.634766" xlink:href="#DejaVuSans-110"/>
      <use x="352.013672" xlink:href="#DejaVuSans-97"/>
      <use x="413.292969" xlink:href="#DejaVuSans-108"/>
     </g>
    </g>
   </g>
   <g id="PathCollection_1">
    <defs>
     <path d="M 0 8.660254 
C 2.296726 8.660254 4.499694 7.747755 6.123724 6.123724 
C 7.747755 4.499694 8.660254 2.296726 8.660254 0 
C 8.660254 -2.296726 7.747755 -4.499694 6.123724 -6.123724 
C 4.499694 -7.747755 2.296726 -8.660254 0 -8.660254 
C -2.296726 -8.660254 -4.499694 -7.747755 -6.123724 -6.123724 
C -7.747755 -4.499694 -8.660254 -2.296726 -8.660254 0 
C -8.660254 2.296726 -7.747755 4.499694 -6.123724 6.123724 
C -4.499694 7.747755 -2.296726 8.660254 0 8.660254 
z
" id="C0_0_1f9bd60fd6"/>
    </defs>
    <g clip-path="url(#pd537875e12)">
     <use style="fill:#ffffff;stroke:#ffffff;" x="41.78772" xlink:href="#C0_0_1f9bd60fd6" y="457.076908"/>
    </g>
    <g clip-path="url(#pd537875e12)">
     <use style="fill:#ffffff;stroke:#ffffff;" x="90.518577" xlink:href="#C0_0_1f9bd60fd6" y="457.076908"/>
    </g>
    <g clip-path="url(#pd537875e12)">
     <use style="fill:#ffffff;stroke:#ffffff;" x="139.249433" xlink:href="#C0_0_1f9bd60fd6" y="457.076908"/>
    </g>
    <g clip-path="url(#pd537875e12)">
     <use style="fill:#ffffff;stroke:#ffffff;" x="187.98029" xlink:href="#C0_0_1f9bd60fd6" y="457.076908"/>
    </g>
    <g clip-path="url(#pd537875e12)">
     <use style="fill:#ffffff;stroke:#ffffff;" x="236.711146" xlink:href="#C0_0_1f9bd60fd6" y="457.076908"/>
    </g>
    <g clip-path="url(#pd537875e12)">
     <use style="fill:#ffffff;stroke:#ffffff;" x="285.442003" xlink:href="#C0_0_1f9bd60fd6" y="457.076908"/>
    </g>
    <g clip-path="url(#pd537875e12)">
     <use style="fill:#ffffff;stroke:#ffffff;" x="334.172859" xlink:href="#C0_0_1f9bd60fd6" y="457.076908"/>
    </g>
    <g clip-path="url(#pd537875e12)">
     <use style="fill:#ffffff;stroke:#ffffff;" x="382.903715" xlink:href="#C0_0_1f9bd60fd6" y="457.076908"/>
    </g>
    <g clip-path="url(#pd537875e12)">
     <use style="fill:#ffffff;stroke:#ffffff;" x="431.634572" xlink:href="#C0_0_1f9bd60fd6" y="457.076908"/>
    </g>
    <g clip-path="url(#pd537875e12)">
     <use style="fill:#ffffff;stroke:#ffffff;" x="480.365428" xlink:href="#C0_0_1f9bd60fd6" y="457.076908"/>
    </g>
    <g clip-path="url(#pd537875e12)">
     <use style="fill:#ffffff;stroke:#ffffff;" x="529.096285" xlink:href="#C0_0_1f9bd60fd6" y="457.076908"/>
    </g>
    <g clip-path="url(#pd537875e12)">
     <use style="fill:#ffffff;stroke:#ffffff;" x="577.827141" xlink:href="#C0_0_1f9bd60fd6" y="457.076908"/>
    </g>
    <g clip-path="url(#pd537875e12)">
     <use style="fill:#ffffff;stroke:#ffffff;" x="626.557997" xlink:href="#C0_0_1f9bd60fd6" y="457.076908"/>
    </g>
    <g clip-path="url(#pd537875e12)">
     <use style="fill:#ffffff;stroke:#ffffff;" x="675.288854" xlink:href="#C0_0_1f9bd60fd6" y="457.076908"/>
    </g>
    <g clip-path="url(#pd537875e12)">
     <use style="fill:#ffffff;stroke:#ffffff;" x="724.01971" xlink:href="#C0_0_1f9bd60fd6" y="457.076908"/>
    </g>
    <g clip-path="url(#pd537875e12)">
     <use style="fill:#ffffff;stroke:#ffffff;" x="772.750567" xlink:href="#C0_0_1f9bd60fd6" y="457.076908"/>
    </g>
    <g clip-path="url(#pd537875e12)">
     <use style="fill:#ffffff;stroke:#ffffff;" x="821.481423" xlink:href="#C0_0_1f9bd60fd6" y="457.076908"/>
    </g>
    <g clip-path="url(#pd537875e12)">
     <use style="fill:#ffffff;stroke:#ffffff;" x="870.21228" xlink:href="#C0_0_1f9bd60fd6" y="457.076908"/>
    </g>
    <g clip-path="url(#pd537875e12)">
     <use style="fill:#ffffff;stroke:#ffffff;" x="677.377319" xlink:href="#C0_0_1f9bd60fd6" y="22.923092"/>
    </g>
    <g clip-path="url(#pd537875e12)">
     <use style="fill:#ffffff;stroke:#ffffff;" x="677.377319" xlink:href="#C0_0_1f9bd60fd6" y="112.82576"/>
    </g>
    <g clip-path="url(#pd537875e12)">
     <use style="fill:#ffffff;stroke:#ffffff;" x="251.330403" xlink:href="#C0_0_1f9bd60fd6" y="200.72561"/>
    </g>
    <g clip-path="url(#pd537875e12)">
     <use style="fill:#ffffff;stroke:#ffffff;" x="675.288854" xlink:href="#C0_0_1f9bd60fd6" y="372.020883"/>
    </g>
    <g clip-path="url(#pd537875e12)">
     <use style="fill:#ffffff;stroke:#ffffff;" x="724.01971" xlink:href="#C0_0_1f9bd60fd6" y="372.020883"/>
    </g>
    <g clip-path="url(#pd537875e12)">
     <use style="fill:#ffffff;stroke:#ffffff;" x="772.750567" xlink:href="#C0_0_1f9bd60fd6" y="372.020883"/>
    </g>
    <g clip-path="url(#pd537875e12)">
     <use style="fill:#ffffff;stroke:#ffffff;" x="821.481423" xlink:href="#C0_0_1f9bd60fd6" y="372.020883"/>
    </g>
    <g clip-path="url(#pd537875e12)">
     <use style="fill:#ffffff;stroke:#ffffff;" x="41.78772" xlink:href="#C0_0_1f9bd60fd6" y="372.020883"/>
    </g>
    <g clip-path="url(#pd537875e12)">
     <use style="fill:#ffffff;stroke:#ffffff;" x="139.249433" xlink:href="#C0_0_1f9bd60fd6" y="286.964858"/>
    </g>
    <g clip-path="url(#pd537875e12)">
     <use style="fill:#ffffff;stroke:#ffffff;" x="236.711146" xlink:href="#C0_0_1f9bd60fd6" y="372.020883"/>
    </g>
    <g clip-path="url(#pd537875e12)">
     <use style="fill:#ffffff;stroke:#ffffff;" x="334.172859" xlink:href="#C0_0_1f9bd60fd6" y="286.964858"/>
    </g>
    <g clip-path="url(#pd537875e12)">
     <use style="fill:#ffffff;stroke:#ffffff;" x="504.730856" xlink:href="#C0_0_1f9bd60fd6" y="286.964858"/>
    </g>
    <g clip-path="url(#pd537875e12)">
     <use style="fill:#ffffff;stroke:#ffffff;" x="431.634572" xlink:href="#C0_0_1f9bd60fd6" y="372.020883"/>
    </g>
    <g clip-path="url(#pd537875e12)">
     <use style="fill:#ffffff;stroke:#ffffff;" x="480.365428" xlink:href="#C0_0_1f9bd60fd6" y="372.020883"/>
    </g>
    <g clip-path="url(#pd537875e12)">
     <use style="fill:#ffffff;stroke:#ffffff;" x="529.096285" xlink:href="#C0_0_1f9bd60fd6" y="372.020883"/>
    </g>
    <g clip-path="url(#pd537875e12)">
     <use style="fill:#ffffff;stroke:#ffffff;" x="577.827141" xlink:href="#C0_0_1f9bd60fd6" y="372.020883"/>
    </g>
    <g clip-path="url(#pd537875e12)">
     <use style="fill:#ffffff;stroke:#ffffff;" x="285.442003" xlink:href="#C0_0_1f9bd60fd6" y="372.020883"/>
    </g>
    <g clip-path="url(#pd537875e12)">
     <use style="fill:#ffffff;stroke:#ffffff;" x="334.172859" xlink:href="#C0_0_1f9bd60fd6" y="372.020883"/>
    </g>
    <g clip-path="url(#pd537875e12)">
     <use style="fill:#ffffff;stroke:#ffffff;" x="382.903715" xlink:href="#C0_0_1f9bd60fd6" y="372.020883"/>
    </g>
    <g clip-path="url(#pd537875e12)">
     <use style="fill:#ffffff;stroke:#ffffff;" x="90.518577" xlink:href="#C0_0_1f9bd60fd6" y="372.020883"/>
    </g>
    <g clip-path="url(#pd537875e12)">
     <use style="fill:#ffffff;stroke:#ffffff;" x="139.249433" xlink:href="#C0_0_1f9bd60fd6" y="372.020883"/>
    </g>
    <g clip-path="url(#pd537875e12)">
     <use style="fill:#ffffff;stroke:#ffffff;" x="187.98029" xlink:href="#C0_0_1f9bd60fd6" y="372.020883"/>
    </g>
    <g clip-path="url(#pd537875e12)">
     <use style="fill:#ffffff;stroke:#ffffff;" x="626.557997" xlink:href="#C0_0_1f9bd60fd6" y="372.020883"/>
    </g>
    <g clip-path="url(#pd537875e12)">
     <use style="fill:#ffffff;stroke:#ffffff;" x="870.21228" xlink:href="#C0_0_1f9bd60fd6" y="372.020883"/>
    </g>
   </g>
   <g id="text_42">
    <g clip-path="url(#pd537875e12)">
     <!-- Qu' -->
     <defs>
      <path d="M 39.40625 66.21875 
Q 28.65625 66.21875 22.328125 58.203125 
Q 16.015625 50.203125 16.015625 36.375 
Q 16.015625 22.609375 22.328125 14.59375 
Q 28.65625 6.59375 39.40625 6.59375 
Q 50.140625 6.59375 56.421875 14.59375 
Q 62.703125 22.609375 62.703125 36.375 
Q 62.703125 50.203125 56.421875 58.203125 
Q 50.140625 66.21875 39.40625 66.21875 
z
M 53.21875 1.3125 
L 66.21875 -12.890625 
L 54.296875 -12.890625 
L 43.5 -1.21875 
Q 41.890625 -1.3125 41.03125 -1.359375 
Q 40.1875 -1.421875 39.40625 -1.421875 
Q 24.03125 -1.421875 14.8125 8.859375 
Q 5.609375 19.140625 5.609375 36.375 
Q 5.609375 53.65625 14.8125 63.9375 
Q 24.03125 74.21875 39.40625 74.21875 
Q 54.734375 74.21875 63.90625 63.9375 
Q 73.09375 53.65625 73.09375 36.375 
Q 73.09375 23.6875 67.984375 14.640625 
Q 62.890625 5.609375 53.21875 1.3125 
z
" id="DejaVuSans-81"/>
      <path d="M 8.5 21.578125 
L 8.5 54.6875 
L 17.484375 54.6875 
L 17.484375 21.921875 
Q 17.484375 14.15625 20.5 10.265625 
Q 23.53125 6.390625 29.59375 6.390625 
Q 36.859375 6.390625 41.078125 11.03125 
Q 45.3125 15.671875 45.3125 23.6875 
L 45.3125 54.6875 
L 54.296875 54.6875 
L 54.296875 0 
L 45.3125 0 
L 45.3125 8.40625 
Q 42.046875 3.421875 37.71875 1 
Q 33.40625 -1.421875 27.6875 -1.421875 
Q 18.265625 -1.421875 13.375 4.4375 
Q 8.5 10.296875 8.5 21.578125 
z
M 31.109375 56 
z
" id="DejaVuSans-117"/>
      <path d="M 17.921875 72.90625 
L 17.921875 45.796875 
L 9.625 45.796875 
L 9.625 72.90625 
z
" id="DejaVuSans-39"/>
     </defs>
     <g transform="translate(33.308814 459.836283)scale(0.1 -0.1)">
      <use xlink:href="#DejaVuSans-81"/>
      <use x="78.710938" xlink:href="#DejaVuSans-117"/>
      <use x="142.089844" xlink:href="#DejaVuSans-39"/>
     </g>
    </g>
   </g>
   <g id="text_43">
    <g clip-path="url(#pd537875e12)">
     <!-- un -->
     <g transform="translate(84.181077 459.836283)scale(0.1 -0.1)">
      <use xlink:href="#DejaVuSans-117"/>
      <use x="63.378906" xlink:href="#DejaVuSans-110"/>
     </g>
    </g>
   </g>
   <g id="text_44">
    <g clip-path="url(#pd537875e12)">
     <!-- simple -->
     <defs>
      <path d="M 44.28125 53.078125 
L 44.28125 44.578125 
Q 40.484375 46.53125 36.375 47.5 
Q 32.28125 48.484375 27.875 48.484375 
Q 21.1875 48.484375 17.84375 46.4375 
Q 14.5 44.390625 14.5 40.28125 
Q 14.5 37.15625 16.890625 35.375 
Q 19.28125 33.59375 26.515625 31.984375 
L 29.59375 31.296875 
Q 39.15625 29.25 43.1875 25.515625 
Q 47.21875 21.78125 47.21875 15.09375 
Q 47.21875 7.46875 41.1875 3.015625 
Q 35.15625 -1.421875 24.609375 -1.421875 
Q 20.21875 -1.421875 15.453125 -0.5625 
Q 10.6875 0.296875 5.421875 2 
L 5.421875 11.28125 
Q 10.40625 8.6875 15.234375 7.390625 
Q 20.0625 6.109375 24.8125 6.109375 
Q 31.15625 6.109375 34.5625 8.28125 
Q 37.984375 10.453125 37.984375 14.40625 
Q 37.984375 18.0625 35.515625 20.015625 
Q 33.0625 21.96875 24.703125 23.78125 
L 21.578125 24.515625 
Q 13.234375 26.265625 9.515625 29.90625 
Q 5.8125 33.546875 5.8125 39.890625 
Q 5.8125 47.609375 11.28125 51.796875 
Q 16.75 56 26.8125 56 
Q 31.78125 56 36.171875 55.265625 
Q 40.578125 54.546875 44.28125 53.078125 
z
" id="DejaVuSans-115"/>
      <path d="M 18.109375 8.203125 
L 18.109375 -20.796875 
L 9.078125 -20.796875 
L 9.078125 54.6875 
L 18.109375 54.6875 
L 18.109375 46.390625 
Q 20.953125 51.265625 25.265625 53.625 
Q 29.59375 56 35.59375 56 
Q 45.5625 56 51.78125 48.09375 
Q 58.015625 40.1875 58.015625 27.296875 
Q 58.015625 14.40625 51.78125 6.484375 
Q 45.5625 -1.421875 35.59375 -1.421875 
Q 29.59375 -1.421875 25.265625 0.953125 
Q 20.953125 3.328125 18.109375 8.203125 
z
M 48.6875 27.296875 
Q 48.6875 37.203125 44.609375 42.84375 
Q 40.53125 48.484375 33.40625 48.484375 
Q 26.265625 48.484375 22.1875 42.84375 
Q 18.109375 37.203125 18.109375 27.296875 
Q 18.109375 17.390625 22.1875 11.75 
Q 26.265625 6.109375 33.40625 6.109375 
Q 40.53125 6.109375 44.609375 11.75 
Q 48.6875 17.390625 48.6875 27.296875 
z
" id="DejaVuSans-112"/>
     </defs>
     <g transform="translate(122.745527 459.836283)scale(0.1 -0.1)">
      <use xlink:href="#DejaVuSans-115"/>
      <use x="52.099609" xlink:href="#DejaVuSans-105"/>
      <use x="79.882812" xlink:href="#DejaVuSans-109"/>
      <use x="177.294922" xlink:href="#DejaVuSans-112"/>
      <use x="240.771484" xlink:href="#DejaVuSans-108"/>
      <use x="268.554688" xlink:href="#DejaVuSans-101"/>
     </g>
    </g>
   </g>
   <g id="text_45">
    <g clip-path="url(#pd537875e12)">
     <!-- particulier -->
     <defs>
      <path d="M 18.3125 70.21875 
L 18.3125 54.6875 
L 36.8125 54.6875 
L 36.8125 47.703125 
L 18.3125 47.703125 
L 18.3125 18.015625 
Q 18.3125 11.328125 20.140625 9.421875 
Q 21.96875 7.515625 27.59375 7.515625 
L 36.8125 7.515625 
L 36.8125 0 
L 27.59375 0 
Q 17.1875 0 13.234375 3.875 
Q 9.28125 7.765625 9.28125 18.015625 
L 9.28125 47.703125 
L 2.6875 47.703125 
L 2.6875 54.6875 
L 9.28125 54.6875 
L 9.28125 70.21875 
z
" id="DejaVuSans-116"/>
      <path d="M 48.78125 52.59375 
L 48.78125 44.1875 
Q 44.96875 46.296875 41.140625 47.34375 
Q 37.3125 48.390625 33.40625 48.390625 
Q 24.65625 48.390625 19.8125 42.84375 
Q 14.984375 37.3125 14.984375 27.296875 
Q 14.984375 17.28125 19.8125 11.734375 
Q 24.65625 6.203125 33.40625 6.203125 
Q 37.3125 6.203125 41.140625 7.25 
Q 44.96875 8.296875 48.78125 10.40625 
L 48.78125 2.09375 
Q 45.015625 0.34375 40.984375 -0.53125 
Q 36.96875 -1.421875 32.421875 -1.421875 
Q 20.0625 -1.421875 12.78125 6.34375 
Q 5.515625 14.109375 5.515625 27.296875 
Q 5.515625 40.671875 12.859375 48.328125 
Q 20.21875 56 33.015625 56 
Q 37.15625 56 41.109375 55.140625 
Q 45.0625 54.296875 48.78125 52.59375 
z
" id="DejaVuSans-99"/>
     </defs>
     <g transform="translate(162.509196 459.836283)scale(0.1 -0.1)">
      <use xlink:href="#DejaVuSans-112"/>
      <use x="63.476562" xlink:href="#DejaVuSans-97"/>
      <use x="124.755859" xlink:href="#DejaVuSans-114"/>
      <use x="165.869141" xlink:href="#DejaVuSans-116"/>
      <use x="205.078125" xlink:href="#DejaVuSans-105"/>
      <use x="232.861328" xlink:href="#DejaVuSans-99"/>
      <use x="287.841797" xlink:href="#DejaVuSans-117"/>
      <use x="351.220703" xlink:href="#DejaVuSans-108"/>
      <use x="379.003906" xlink:href="#DejaVuSans-105"/>
      <use x="406.787109" xlink:href="#DejaVuSans-101"/>
      <use x="468.310547" xlink:href="#DejaVuSans-114"/>
     </g>
    </g>
   </g>
   <g id="text_46">
    <g clip-path="url(#pd537875e12)">
     <!-- et -->
     <defs>
      <path d="M 8.5 21.578125 
L 8.5 54.6875 
L 17.484375 54.6875 
L 17.484375 21.921875 
Q 17.484375 14.15625 20.5 10.265625 
Q 23.53125 6.390625 29.59375 6.390625 
Q 36.859375 6.390625 41.078125 11.03125 
Q 45.3125 15.671875 45.3125 23.6875 
L 45.3125 54.6875 
L 54.296875 54.6875 
L 54.296875 0 
L 45.3125 0 
L 45.3125 8.40625 
Q 42.046875 3.421875 37.71875 1 
Q 33.40625 -1.421875 27.6875 -1.421875 
Q 18.265625 -1.421875 13.375 4.4375 
Q 8.5 10.296875 8.5 21.578125 
z
M 31.109375 56 
z
M 27.390625 79.984375 
L 34.609375 79.984375 
L 46.578125 61.625 
L 39.796875 61.625 
L 31 73.578125 
L 22.21875 61.625 
L 15.421875 61.625 
z
" id="DejaVuSans-251"/>
     </defs>
     <g transform="translate(228.505677 459.836283)scale(0.1 -0.1)">
      <use xlink:href="#DejaVuSans-101"/>
      <use x="61.523438" xlink:href="#DejaVuSans-251"/>
      <use x="124.902344" xlink:href="#DejaVuSans-116"/>
     </g>
    </g>
   </g>
   <g id="text_47">
    <g clip-path="url(#pd537875e12)">
     <!--  -->
     <defs>
      <path d="M 34.28125 27.484375 
Q 23.390625 27.484375 19.1875 25 
Q 14.984375 22.515625 14.984375 16.5 
Q 14.984375 11.71875 18.140625 8.90625 
Q 21.296875 6.109375 26.703125 6.109375 
Q 34.1875 6.109375 38.703125 11.40625 
Q 43.21875 16.703125 43.21875 25.484375 
L 43.21875 27.484375 
z
M 52.203125 31.203125 
L 52.203125 0 
L 43.21875 0 
L 43.21875 8.296875 
Q 40.140625 3.328125 35.546875 0.953125 
Q 30.953125 -1.421875 24.3125 -1.421875 
Q 15.921875 -1.421875 10.953125 3.296875 
Q 6 8.015625 6 15.921875 
Q 6 25.140625 12.171875 29.828125 
Q 18.359375 34.515625 30.609375 34.515625 
L 43.21875 34.515625 
L 43.21875 35.40625 
Q 43.21875 41.609375 39.140625 45 
Q 35.0625 48.390625 27.6875 48.390625 
Q 23 48.390625 18.546875 47.265625 
Q 14.109375 46.140625 10.015625 43.890625 
L 10.015625 52.203125 
Q 14.9375 54.109375 19.578125 55.046875 
Q 24.21875 56 28.609375 56 
Q 40.484375 56 46.34375 49.84375 
Q 52.203125 43.703125 52.203125 31.203125 
z
M 21.921875 79.984375 
L 35.6875 61.71875 
L 28.21875 61.71875 
L 12.296875 79.984375 
z
" id="DejaVuSans-224"/>
     </defs>
     <g transform="translate(282.37794 459.836283)scale(0.1 -0.1)">
      <use xlink:href="#DejaVuSans-224"/>
     </g>
    </g>
   </g>
   <g id="text_48">
    <g clip-path="url(#pd537875e12)">
     <!-- sa -->
     <g transform="translate(328.504109 459.836283)scale(0.1 -0.1)">
      <use xlink:href="#DejaVuSans-115"/>
      <use x="52.099609" xlink:href="#DejaVuSans-97"/>
     </g>
    </g>
   </g>
   <g id="text_49">
    <g clip-path="url(#pd537875e12)">
     <!-- disposition -->
     <defs>
      <path d="M 45.40625 46.390625 
L 45.40625 75.984375 
L 54.390625 75.984375 
L 54.390625 0 
L 45.40625 0 
L 45.40625 8.203125 
Q 42.578125 3.328125 38.25 0.953125 
Q 33.9375 -1.421875 27.875 -1.421875 
Q 17.96875 -1.421875 11.734375 6.484375 
Q 5.515625 14.40625 5.515625 27.296875 
Q 5.515625 40.1875 11.734375 48.09375 
Q 17.96875 56 27.875 56 
Q 33.9375 56 38.25 53.625 
Q 42.578125 51.265625 45.40625 46.390625 
z
M 14.796875 27.296875 
Q 14.796875 17.390625 18.875 11.75 
Q 22.953125 6.109375 30.078125 6.109375 
Q 37.203125 6.109375 41.296875 11.75 
Q 45.40625 17.390625 45.40625 27.296875 
Q 45.40625 37.203125 41.296875 42.84375 
Q 37.203125 48.484375 30.078125 48.484375 
Q 22.953125 48.484375 18.875 42.84375 
Q 14.796875 37.203125 14.796875 27.296875 
z
" id="DejaVuSans-100"/>
      <path d="M 30.609375 48.390625 
Q 23.390625 48.390625 19.1875 42.75 
Q 14.984375 37.109375 14.984375 27.296875 
Q 14.984375 17.484375 19.15625 11.84375 
Q 23.34375 6.203125 30.609375 6.203125 
Q 37.796875 6.203125 41.984375 11.859375 
Q 46.1875 17.53125 46.1875 27.296875 
Q 46.1875 37.015625 41.984375 42.703125 
Q 37.796875 48.390625 30.609375 48.390625 
z
M 30.609375 56 
Q 42.328125 56 49.015625 48.375 
Q 55.71875 40.765625 55.71875 27.296875 
Q 55.71875 13.875 49.015625 6.21875 
Q 42.328125 -1.421875 30.609375 -1.421875 
Q 18.84375 -1.421875 12.171875 6.21875 
Q 5.515625 13.875 5.515625 27.296875 
Q 5.515625 40.765625 12.171875 48.375 
Q 18.84375 56 30.609375 56 
z
" id="DejaVuSans-111"/>
     </defs>
     <g transform="translate(355.931059 459.836283)scale(0.1 -0.1)">
      <use xlink:href="#DejaVuSans-100"/>
      <use x="63.476562" xlink:href="#DejaVuSans-105"/>
      <use x="91.259766" xlink:href="#DejaVuSans-115"/>
      <use x="143.359375" xlink:href="#DejaVuSans-112"/>
      <use x="206.835938" xlink:href="#DejaVuSans-111"/>
      <use x="268.017578" xlink:href="#DejaVuSans-115"/>
      <use x="320.117188" xlink:href="#DejaVuSans-105"/>
      <use x="347.900391" xlink:href="#DejaVuSans-116"/>
      <use x="387.109375" xlink:href="#DejaVuSans-105"/>
      <use x="414.892578" xlink:href="#DejaVuSans-111"/>
      <use x="476.074219" xlink:href="#DejaVuSans-110"/>
     </g>
    </g>
   </g>
   <g id="text_50">
    <g clip-path="url(#pd537875e12)">
     <!-- un -->
     <g transform="translate(425.297072 459.836283)scale(0.1 -0.1)">
      <use xlink:href="#DejaVuSans-117"/>
      <use x="63.378906" xlink:href="#DejaVuSans-110"/>
     </g>
    </g>
   </g>
   <g id="text_51">
    <g clip-path="url(#pd537875e12)">
     <!-- tel -->
     <g transform="translate(473.939647 459.836283)scale(0.1 -0.1)">
      <use xlink:href="#DejaVuSans-116"/>
      <use x="39.208984" xlink:href="#DejaVuSans-101"/>
      <use x="100.732422" xlink:href="#DejaVuSans-108"/>
     </g>
    </g>
   </g>
   <g id="text_52">
    <g clip-path="url(#pd537875e12)">
     <!-- engin -->
     <defs>
      <path d="M 45.40625 27.984375 
Q 45.40625 37.75 41.375 43.109375 
Q 37.359375 48.484375 30.078125 48.484375 
Q 22.859375 48.484375 18.828125 43.109375 
Q 14.796875 37.75 14.796875 27.984375 
Q 14.796875 18.265625 18.828125 12.890625 
Q 22.859375 7.515625 30.078125 7.515625 
Q 37.359375 7.515625 41.375 12.890625 
Q 45.40625 18.265625 45.40625 27.984375 
z
M 54.390625 6.78125 
Q 54.390625 -7.171875 48.1875 -13.984375 
Q 42 -20.796875 29.203125 -20.796875 
Q 24.46875 -20.796875 20.265625 -20.09375 
Q 16.0625 -19.390625 12.109375 -17.921875 
L 12.109375 -9.1875 
Q 16.0625 -11.328125 19.921875 -12.34375 
Q 23.78125 -13.375 27.78125 -13.375 
Q 36.625 -13.375 41.015625 -8.765625 
Q 45.40625 -4.15625 45.40625 5.171875 
L 45.40625 9.625 
Q 42.625 4.78125 38.28125 2.390625 
Q 33.9375 0 27.875 0 
Q 17.828125 0 11.671875 7.65625 
Q 5.515625 15.328125 5.515625 27.984375 
Q 5.515625 40.671875 11.671875 48.328125 
Q 17.828125 56 27.875 56 
Q 33.9375 56 38.28125 53.609375 
Q 42.625 51.21875 45.40625 46.390625 
L 45.40625 54.6875 
L 54.390625 54.6875 
z
" id="DejaVuSans-103"/>
     </defs>
     <g transform="translate(515.118941 459.836283)scale(0.1 -0.1)">
      <use xlink:href="#DejaVuSans-101"/>
      <use x="61.523438" xlink:href="#DejaVuSans-110"/>
      <use x="124.902344" xlink:href="#DejaVuSans-103"/>
      <use x="188.378906" xlink:href="#DejaVuSans-105"/>
      <use x="216.162109" xlink:href="#DejaVuSans-110"/>
     </g>
    </g>
   </g>
   <g id="text_53">
    <g clip-path="url(#pd537875e12)">
     <!-- mcanique -->
     <defs>
      <path d="M 56.203125 29.59375 
L 56.203125 25.203125 
L 14.890625 25.203125 
Q 15.484375 15.921875 20.484375 11.0625 
Q 25.484375 6.203125 34.421875 6.203125 
Q 39.59375 6.203125 44.453125 7.46875 
Q 49.3125 8.734375 54.109375 11.28125 
L 54.109375 2.78125 
Q 49.265625 0.734375 44.1875 -0.34375 
Q 39.109375 -1.421875 33.890625 -1.421875 
Q 20.796875 -1.421875 13.15625 6.1875 
Q 5.515625 13.8125 5.515625 26.8125 
Q 5.515625 40.234375 12.765625 48.109375 
Q 20.015625 56 32.328125 56 
Q 43.359375 56 49.78125 48.890625 
Q 56.203125 41.796875 56.203125 29.59375 
z
M 47.21875 32.234375 
Q 47.125 39.59375 43.09375 43.984375 
Q 39.0625 48.390625 32.421875 48.390625 
Q 24.90625 48.390625 20.390625 44.140625 
Q 15.875 39.890625 15.1875 32.171875 
z
M 38.53125 79.984375 
L 48.25 79.984375 
L 32.34375 61.625 
L 24.859375 61.625 
z
" id="DejaVuSans-233"/>
      <path d="M 14.796875 27.296875 
Q 14.796875 17.390625 18.875 11.75 
Q 22.953125 6.109375 30.078125 6.109375 
Q 37.203125 6.109375 41.296875 11.75 
Q 45.40625 17.390625 45.40625 27.296875 
Q 45.40625 37.203125 41.296875 42.84375 
Q 37.203125 48.484375 30.078125 48.484375 
Q 22.953125 48.484375 18.875 42.84375 
Q 14.796875 37.203125 14.796875 27.296875 
z
M 45.40625 8.203125 
Q 42.578125 3.328125 38.25 0.953125 
Q 33.9375 -1.421875 27.875 -1.421875 
Q 17.96875 -1.421875 11.734375 6.484375 
Q 5.515625 14.40625 5.515625 27.296875 
Q 5.515625 40.1875 11.734375 48.09375 
Q 17.96875 56 27.875 56 
Q 33.9375 56 38.25 53.625 
Q 42.578125 51.265625 45.40625 46.390625 
L 45.40625 54.6875 
L 54.390625 54.6875 
L 54.390625 -20.796875 
L 45.40625 -20.796875 
z
" id="DejaVuSans-113"/>
     </defs>
     <g transform="translate(550.089641 460.036283)scale(0.1 -0.1)">
      <use xlink:href="#DejaVuSans-109"/>
      <use x="97.412109" xlink:href="#DejaVuSans-233"/>
      <use x="158.935547" xlink:href="#DejaVuSans-99"/>
      <use x="213.916016" xlink:href="#DejaVuSans-97"/>
      <use x="275.195312" xlink:href="#DejaVuSans-110"/>
      <use x="338.574219" xlink:href="#DejaVuSans-105"/>
      <use x="366.357422" xlink:href="#DejaVuSans-113"/>
      <use x="429.833984" xlink:href="#DejaVuSans-117"/>
      <use x="493.212891" xlink:href="#DejaVuSans-101"/>
     </g>
    </g>
   </g>
   <g id="text_54">
    <g clip-path="url(#pd537875e12)">
     <!-- , -->
     <defs>
      <path d="M 11.71875 12.40625 
L 22.015625 12.40625 
L 22.015625 4 
L 14.015625 -11.625 
L 7.71875 -11.625 
L 11.71875 4 
z
" id="DejaVuSans-44"/>
     </defs>
     <g transform="translate(624.968935 459.836283)scale(0.1 -0.1)">
      <use xlink:href="#DejaVuSans-44"/>
     </g>
    </g>
   </g>
   <g id="text_55">
    <g clip-path="url(#pd537875e12)">
     <!-- c' -->
     <g transform="translate(671.165416 459.836283)scale(0.1 -0.1)">
      <use xlink:href="#DejaVuSans-99"/>
      <use x="54.980469" xlink:href="#DejaVuSans-39"/>
     </g>
    </g>
   </g>
   <g id="text_56">
    <g clip-path="url(#pd537875e12)">
     <!-- tait -->
     <g transform="translate(712.56971 459.836283)scale(0.1 -0.1)">
      <use xlink:href="#DejaVuSans-233"/>
      <use x="61.523438" xlink:href="#DejaVuSans-116"/>
      <use x="100.732422" xlink:href="#DejaVuSans-97"/>
      <use x="162.011719" xlink:href="#DejaVuSans-105"/>
      <use x="189.794922" xlink:href="#DejaVuSans-116"/>
     </g>
    </g>
   </g>
   <g id="text_57">
    <g clip-path="url(#pd537875e12)">
     <!-- peu -->
     <g transform="translate(763.331036 459.836283)scale(0.1 -0.1)">
      <use xlink:href="#DejaVuSans-112"/>
      <use x="63.476562" xlink:href="#DejaVuSans-101"/>
      <use x="125" xlink:href="#DejaVuSans-117"/>
     </g>
    </g>
   </g>
   <g id="text_58">
    <g clip-path="url(#pd537875e12)">
     <!-- probable -->
     <defs>
      <path d="M 48.6875 27.296875 
Q 48.6875 37.203125 44.609375 42.84375 
Q 40.53125 48.484375 33.40625 48.484375 
Q 26.265625 48.484375 22.1875 42.84375 
Q 18.109375 37.203125 18.109375 27.296875 
Q 18.109375 17.390625 22.1875 11.75 
Q 26.265625 6.109375 33.40625 6.109375 
Q 40.53125 6.109375 44.609375 11.75 
Q 48.6875 17.390625 48.6875 27.296875 
z
M 18.109375 46.390625 
Q 20.953125 51.265625 25.265625 53.625 
Q 29.59375 56 35.59375 56 
Q 45.5625 56 51.78125 48.09375 
Q 58.015625 40.1875 58.015625 27.296875 
Q 58.015625 14.40625 51.78125 6.484375 
Q 45.5625 -1.421875 35.59375 -1.421875 
Q 29.59375 -1.421875 25.265625 0.953125 
Q 20.953125 3.328125 18.109375 8.203125 
L 18.109375 0 
L 9.078125 0 
L 9.078125 75.984375 
L 18.109375 75.984375 
z
" id="DejaVuSans-98"/>
     </defs>
     <g transform="translate(799.315798 459.836283)scale(0.1 -0.1)">
      <use xlink:href="#DejaVuSans-112"/>
      <use x="63.476562" xlink:href="#DejaVuSans-114"/>
      <use x="104.558594" xlink:href="#DejaVuSans-111"/>
      <use x="165.740234" xlink:href="#DejaVuSans-98"/>
      <use x="229.216797" xlink:href="#DejaVuSans-97"/>
      <use x="290.496094" xlink:href="#DejaVuSans-98"/>
      <use x="353.972656" xlink:href="#DejaVuSans-108"/>
      <use x="381.755859" xlink:href="#DejaVuSans-101"/>
     </g>
    </g>
   </g>
   <g id="text_59">
    <g clip-path="url(#pd537875e12)">
     <!-- . -->
     <defs>
      <path d="M 10.6875 12.40625 
L 21 12.40625 
L 21 0 
L 10.6875 0 
z
" id="DejaVuSans-46"/>
     </defs>
     <g transform="translate(868.623217 459.836283)scale(0.1 -0.1)">
      <use xlink:href="#DejaVuSans-46"/>
     </g>
    </g>
   </g>
   <g id="text_60">
    <g clip-path="url(#pd537875e12)">
     <!-- 1.1 -->
     <defs>
      <path d="M 12.40625 8.296875 
L 28.515625 8.296875 
L 28.515625 63.921875 
L 10.984375 60.40625 
L 10.984375 69.390625 
L 28.421875 72.90625 
L 38.28125 72.90625 
L 38.28125 8.296875 
L 54.390625 8.296875 
L 54.390625 0 
L 12.40625 0 
z
" id="DejaVuSans-49"/>
     </defs>
     <g transform="translate(669.425757 25.682467)scale(0.1 -0.1)">
      <use xlink:href="#DejaVuSans-49"/>
      <use x="63.623047" xlink:href="#DejaVuSans-46"/>
      <use x="95.410156" xlink:href="#DejaVuSans-49"/>
     </g>
    </g>
   </g>
   <g id="text_61">
    <g clip-path="url(#pd537875e12)">
     <!-- 1.2 -->
     <defs>
      <path d="M 19.1875 8.296875 
L 53.609375 8.296875 
L 53.609375 0 
L 7.328125 0 
L 7.328125 8.296875 
Q 12.9375 14.109375 22.625 23.890625 
Q 32.328125 33.6875 34.8125 36.53125 
Q 39.546875 41.84375 41.421875 45.53125 
Q 43.3125 49.21875 43.3125 52.78125 
Q 43.3125 58.59375 39.234375 62.25 
Q 35.15625 65.921875 28.609375 65.921875 
Q 23.96875 65.921875 18.8125 64.3125 
Q 13.671875 62.703125 7.8125 59.421875 
L 7.8125 69.390625 
Q 13.765625 71.78125 18.9375 73 
Q 24.125 74.21875 28.421875 74.21875 
Q 39.75 74.21875 46.484375 68.546875 
Q 53.21875 62.890625 53.21875 53.421875 
Q 53.21875 48.921875 51.53125 44.890625 
Q 49.859375 40.875 45.40625 35.40625 
Q 44.1875 33.984375 37.640625 27.21875 
Q 31.109375 20.453125 19.1875 8.296875 
z
" id="DejaVuSans-50"/>
     </defs>
     <g transform="translate(669.425757 115.585135)scale(0.1 -0.1)">
      <use xlink:href="#DejaVuSans-49"/>
      <use x="63.623047" xlink:href="#DejaVuSans-46"/>
      <use x="95.410156" xlink:href="#DejaVuSans-50"/>
     </g>
    </g>
   </g>
   <g id="text_62">
    <g clip-path="url(#pd537875e12)">
     <!-- 1.4 -->
     <defs>
      <path d="M 37.796875 64.3125 
L 12.890625 25.390625 
L 37.796875 25.390625 
z
M 35.203125 72.90625 
L 47.609375 72.90625 
L 47.609375 25.390625 
L 58.015625 25.390625 
L 58.015625 17.1875 
L 47.609375 17.1875 
L 47.609375 0 
L 37.796875 0 
L 37.796875 17.1875 
L 4.890625 17.1875 
L 4.890625 26.703125 
z
" id="DejaVuSans-52"/>
     </defs>
     <g transform="translate(243.378841 203.484985)scale(0.1 -0.1)">
      <use xlink:href="#DejaVuSans-49"/>
      <use x="63.623047" xlink:href="#DejaVuSans-46"/>
      <use x="95.410156" xlink:href="#DejaVuSans-52"/>
     </g>
    </g>
   </g>
   <g id="text_63">
    <g clip-path="url(#pd537875e12)">
     <!-- 1.5 -->
     <defs>
      <path d="M 10.796875 72.90625 
L 49.515625 72.90625 
L 49.515625 64.59375 
L 19.828125 64.59375 
L 19.828125 46.734375 
Q 21.96875 47.46875 24.109375 47.828125 
Q 26.265625 48.1875 28.421875 48.1875 
Q 40.625 48.1875 47.75 41.5 
Q 54.890625 34.8125 54.890625 23.390625 
Q 54.890625 11.625 47.5625 5.09375 
Q 40.234375 -1.421875 26.90625 -1.421875 
Q 22.3125 -1.421875 17.546875 -0.640625 
Q 12.796875 0.140625 7.71875 1.703125 
L 7.71875 11.625 
Q 12.109375 9.234375 16.796875 8.0625 
Q 21.484375 6.890625 26.703125 6.890625 
Q 35.15625 6.890625 40.078125 11.328125 
Q 45.015625 15.765625 45.015625 23.390625 
Q 45.015625 31 40.078125 35.4375 
Q 35.15625 39.890625 26.703125 39.890625 
Q 22.75 39.890625 18.8125 39.015625 
Q 14.890625 38.140625 10.796875 36.28125 
z
" id="DejaVuSans-53"/>
     </defs>
     <g transform="translate(667.337291 374.780258)scale(0.1 -0.1)">
      <use xlink:href="#DejaVuSans-49"/>
      <use x="63.623047" xlink:href="#DejaVuSans-46"/>
      <use x="95.410156" xlink:href="#DejaVuSans-53"/>
     </g>
    </g>
   </g>
   <g id="text_64">
    <g clip-path="url(#pd537875e12)">
     <!-- 1.6 -->
     <defs>
      <path d="M 33.015625 40.375 
Q 26.375 40.375 22.484375 35.828125 
Q 18.609375 31.296875 18.609375 23.390625 
Q 18.609375 15.53125 22.484375 10.953125 
Q 26.375 6.390625 33.015625 6.390625 
Q 39.65625 6.390625 43.53125 10.953125 
Q 47.40625 15.53125 47.40625 23.390625 
Q 47.40625 31.296875 43.53125 35.828125 
Q 39.65625 40.375 33.015625 40.375 
z
M 52.59375 71.296875 
L 52.59375 62.3125 
Q 48.875 64.0625 45.09375 64.984375 
Q 41.3125 65.921875 37.59375 65.921875 
Q 27.828125 65.921875 22.671875 59.328125 
Q 17.53125 52.734375 16.796875 39.40625 
Q 19.671875 43.65625 24.015625 45.921875 
Q 28.375 48.1875 33.59375 48.1875 
Q 44.578125 48.1875 50.953125 41.515625 
Q 57.328125 34.859375 57.328125 23.390625 
Q 57.328125 12.15625 50.6875 5.359375 
Q 44.046875 -1.421875 33.015625 -1.421875 
Q 20.359375 -1.421875 13.671875 8.265625 
Q 6.984375 17.96875 6.984375 36.375 
Q 6.984375 53.65625 15.1875 63.9375 
Q 23.390625 74.21875 37.203125 74.21875 
Q 40.921875 74.21875 44.703125 73.484375 
Q 48.484375 72.75 52.59375 71.296875 
z
" id="DejaVuSans-54"/>
     </defs>
     <g transform="translate(716.068148 374.780258)scale(0.1 -0.1)">
      <use xlink:href="#DejaVuSans-49"/>
      <use x="63.623047" xlink:href="#DejaVuSans-46"/>
      <use x="95.410156" xlink:href="#DejaVuSans-54"/>
     </g>
    </g>
   </g>
   <g id="text_65">
    <g clip-path="url(#pd537875e12)">
     <!-- 1.7 -->
     <defs>
      <path d="M 8.203125 72.90625 
L 55.078125 72.90625 
L 55.078125 68.703125 
L 28.609375 0 
L 18.3125 0 
L 43.21875 64.59375 
L 8.203125 64.59375 
z
" id="DejaVuSans-55"/>
     </defs>
     <g transform="translate(764.799004 374.780258)scale(0.1 -0.1)">
      <use xlink:href="#DejaVuSans-49"/>
      <use x="63.623047" xlink:href="#DejaVuSans-46"/>
      <use x="95.410156" xlink:href="#DejaVuSans-55"/>
     </g>
    </g>
   </g>
   <g id="text_66">
    <g clip-path="url(#pd537875e12)">
     <!-- 1.8 -->
     <defs>
      <path d="M 31.78125 34.625 
Q 24.75 34.625 20.71875 30.859375 
Q 16.703125 27.09375 16.703125 20.515625 
Q 16.703125 13.921875 20.71875 10.15625 
Q 24.75 6.390625 31.78125 6.390625 
Q 38.8125 6.390625 42.859375 10.171875 
Q 46.921875 13.96875 46.921875 20.515625 
Q 46.921875 27.09375 42.890625 30.859375 
Q 38.875 34.625 31.78125 34.625 
z
M 21.921875 38.8125 
Q 15.578125 40.375 12.03125 44.71875 
Q 8.5 49.078125 8.5 55.328125 
Q 8.5 64.0625 14.71875 69.140625 
Q 20.953125 74.21875 31.78125 74.21875 
Q 42.671875 74.21875 48.875 69.140625 
Q 55.078125 64.0625 55.078125 55.328125 
Q 55.078125 49.078125 51.53125 44.71875 
Q 48 40.375 41.703125 38.8125 
Q 48.828125 37.15625 52.796875 32.3125 
Q 56.78125 27.484375 56.78125 20.515625 
Q 56.78125 9.90625 50.3125 4.234375 
Q 43.84375 -1.421875 31.78125 -1.421875 
Q 19.734375 -1.421875 13.25 4.234375 
Q 6.78125 9.90625 6.78125 20.515625 
Q 6.78125 27.484375 10.78125 32.3125 
Q 14.796875 37.15625 21.921875 38.8125 
z
M 18.3125 54.390625 
Q 18.3125 48.734375 21.84375 45.5625 
Q 25.390625 42.390625 31.78125 42.390625 
Q 38.140625 42.390625 41.71875 45.5625 
Q 45.3125 48.734375 45.3125 54.390625 
Q 45.3125 60.0625 41.71875 63.234375 
Q 38.140625 66.40625 31.78125 66.40625 
Q 25.390625 66.40625 21.84375 63.234375 
Q 18.3125 60.0625 18.3125 54.390625 
z
" id="DejaVuSans-56"/>
     </defs>
     <g transform="translate(813.529861 374.780258)scale(0.1 -0.1)">
      <use xlink:href="#DejaVuSans-49"/>
      <use x="63.623047" xlink:href="#DejaVuSans-46"/>
      <use x="95.410156" xlink:href="#DejaVuSans-56"/>
     </g>
    </g>
   </g>
   <g id="text_67">
    <g clip-path="url(#pd537875e12)">
     <!-- 1.10 -->
     <defs>
      <path d="M 31.78125 66.40625 
Q 24.171875 66.40625 20.328125 58.90625 
Q 16.5 51.421875 16.5 36.375 
Q 16.5 21.390625 20.328125 13.890625 
Q 24.171875 6.390625 31.78125 6.390625 
Q 39.453125 6.390625 43.28125 13.890625 
Q 47.125 21.390625 47.125 36.375 
Q 47.125 51.421875 43.28125 58.90625 
Q 39.453125 66.40625 31.78125 66.40625 
z
M 31.78125 74.21875 
Q 44.046875 74.21875 50.515625 64.515625 
Q 56.984375 54.828125 56.984375 36.375 
Q 56.984375 17.96875 50.515625 8.265625 
Q 44.046875 -1.421875 31.78125 -1.421875 
Q 19.53125 -1.421875 13.0625 8.265625 
Q 6.59375 17.96875 6.59375 36.375 
Q 6.59375 54.828125 13.0625 64.515625 
Q 19.53125 74.21875 31.78125 74.21875 
z
" id="DejaVuSans-48"/>
     </defs>
     <g transform="translate(30.654908 374.780258)scale(0.1 -0.1)">
      <use xlink:href="#DejaVuSans-49"/>
      <use x="63.623047" xlink:href="#DejaVuSans-46"/>
      <use x="95.410156" xlink:href="#DejaVuSans-49"/>
      <use x="159.033203" xlink:href="#DejaVuSans-48"/>
     </g>
    </g>
   </g>
   <g id="text_68">
    <g clip-path="url(#pd537875e12)">
     <!-- 1.11 -->
     <g transform="translate(128.116621 289.724233)scale(0.1 -0.1)">
      <use xlink:href="#DejaVuSans-49"/>
      <use x="63.623047" xlink:href="#DejaVuSans-46"/>
      <use x="95.410156" xlink:href="#DejaVuSans-49"/>
      <use x="159.033203" xlink:href="#DejaVuSans-49"/>
     </g>
    </g>
   </g>
   <g id="text_69">
    <g clip-path="url(#pd537875e12)">
     <!-- 1.12 -->
     <g transform="translate(225.578334 374.780258)scale(0.1 -0.1)">
      <use xlink:href="#DejaVuSans-49"/>
      <use x="63.623047" xlink:href="#DejaVuSans-46"/>
      <use x="95.410156" xlink:href="#DejaVuSans-49"/>
      <use x="159.033203" xlink:href="#DejaVuSans-50"/>
     </g>
    </g>
   </g>
   <g id="text_70">
    <g clip-path="url(#pd537875e12)">
     <!-- 1.13 -->
     <defs>
      <path d="M 40.578125 39.3125 
Q 47.65625 37.796875 51.625 33 
Q 55.609375 28.21875 55.609375 21.1875 
Q 55.609375 10.40625 48.1875 4.484375 
Q 40.765625 -1.421875 27.09375 -1.421875 
Q 22.515625 -1.421875 17.65625 -0.515625 
Q 12.796875 0.390625 7.625 2.203125 
L 7.625 11.71875 
Q 11.71875 9.328125 16.59375 8.109375 
Q 21.484375 6.890625 26.8125 6.890625 
Q 36.078125 6.890625 40.9375 10.546875 
Q 45.796875 14.203125 45.796875 21.1875 
Q 45.796875 27.640625 41.28125 31.265625 
Q 36.765625 34.90625 28.71875 34.90625 
L 20.21875 34.90625 
L 20.21875 43.015625 
L 29.109375 43.015625 
Q 36.375 43.015625 40.234375 45.921875 
Q 44.09375 48.828125 44.09375 54.296875 
Q 44.09375 59.90625 40.109375 62.90625 
Q 36.140625 65.921875 28.71875 65.921875 
Q 24.65625 65.921875 20.015625 65.03125 
Q 15.375 64.15625 9.8125 62.3125 
L 9.8125 71.09375 
Q 15.4375 72.65625 20.34375 73.4375 
Q 25.25 74.21875 29.59375 74.21875 
Q 40.828125 74.21875 47.359375 69.109375 
Q 53.90625 64.015625 53.90625 55.328125 
Q 53.90625 49.265625 50.4375 45.09375 
Q 46.96875 40.921875 40.578125 39.3125 
z
" id="DejaVuSans-51"/>
     </defs>
     <g transform="translate(323.040046 289.724233)scale(0.1 -0.1)">
      <use xlink:href="#DejaVuSans-49"/>
      <use x="63.623047" xlink:href="#DejaVuSans-46"/>
      <use x="95.410156" xlink:href="#DejaVuSans-49"/>
      <use x="159.033203" xlink:href="#DejaVuSans-51"/>
     </g>
    </g>
   </g>
   <g id="text_71">
    <g clip-path="url(#pd537875e12)">
     <!-- 1.14 -->
     <g transform="translate(493.598044 289.724233)scale(0.1 -0.1)">
      <use xlink:href="#DejaVuSans-49"/>
      <use x="63.623047" xlink:href="#DejaVuSans-46"/>
      <use x="95.410156" xlink:href="#DejaVuSans-49"/>
      <use x="159.033203" xlink:href="#DejaVuSans-52"/>
     </g>
    </g>
   </g>
   <g id="text_72">
    <g clip-path="url(#pd537875e12)">
     <!-- 1.15 -->
     <g transform="translate(420.501759 374.780258)scale(0.1 -0.1)">
      <use xlink:href="#DejaVuSans-49"/>
      <use x="63.623047" xlink:href="#DejaVuSans-46"/>
      <use x="95.410156" xlink:href="#DejaVuSans-49"/>
      <use x="159.033203" xlink:href="#DejaVuSans-53"/>
     </g>
    </g>
   </g>
   <g id="text_73">
    <g clip-path="url(#pd537875e12)">
     <!-- 1.16 -->
     <g transform="translate(469.232616 374.780258)scale(0.1 -0.1)">
      <use xlink:href="#DejaVuSans-49"/>
      <use x="63.623047" xlink:href="#DejaVuSans-46"/>
      <use x="95.410156" xlink:href="#DejaVuSans-49"/>
      <use x="159.033203" xlink:href="#DejaVuSans-54"/>
     </g>
    </g>
   </g>
   <g id="text_74">
    <g clip-path="url(#pd537875e12)">
     <!-- 1.17 -->
     <g transform="translate(517.963472 374.780258)scale(0.1 -0.1)">
      <use xlink:href="#DejaVuSans-49"/>
      <use x="63.623047" xlink:href="#DejaVuSans-46"/>
      <use x="95.410156" xlink:href="#DejaVuSans-49"/>
      <use x="159.033203" xlink:href="#DejaVuSans-55"/>
     </g>
    </g>
   </g>
   <g id="text_75">
    <g clip-path="url(#pd537875e12)">
     <!-- 1.18 -->
     <g transform="translate(566.694329 374.780258)scale(0.1 -0.1)">
      <use xlink:href="#DejaVuSans-49"/>
      <use x="63.623047" xlink:href="#DejaVuSans-46"/>
      <use x="95.410156" xlink:href="#DejaVuSans-49"/>
      <use x="159.033203" xlink:href="#DejaVuSans-56"/>
     </g>
    </g>
   </g>
   <g id="text_76">
    <g clip-path="url(#pd537875e12)">
     <!-- 1.19 -->
     <defs>
      <path d="M 10.984375 1.515625 
L 10.984375 10.5 
Q 14.703125 8.734375 18.5 7.8125 
Q 22.3125 6.890625 25.984375 6.890625 
Q 35.75 6.890625 40.890625 13.453125 
Q 46.046875 20.015625 46.78125 33.40625 
Q 43.953125 29.203125 39.59375 26.953125 
Q 35.25 24.703125 29.984375 24.703125 
Q 19.046875 24.703125 12.671875 31.3125 
Q 6.296875 37.9375 6.296875 49.421875 
Q 6.296875 60.640625 12.9375 67.421875 
Q 19.578125 74.21875 30.609375 74.21875 
Q 43.265625 74.21875 49.921875 64.515625 
Q 56.59375 54.828125 56.59375 36.375 
Q 56.59375 19.140625 48.40625 8.859375 
Q 40.234375 -1.421875 26.421875 -1.421875 
Q 22.703125 -1.421875 18.890625 -0.6875 
Q 15.09375 0.046875 10.984375 1.515625 
z
M 30.609375 32.421875 
Q 37.25 32.421875 41.125 36.953125 
Q 45.015625 41.5 45.015625 49.421875 
Q 45.015625 57.28125 41.125 61.84375 
Q 37.25 66.40625 30.609375 66.40625 
Q 23.96875 66.40625 20.09375 61.84375 
Q 16.21875 57.28125 16.21875 49.421875 
Q 16.21875 41.5 20.09375 36.953125 
Q 23.96875 32.421875 30.609375 32.421875 
z
" id="DejaVuSans-57"/>
     </defs>
     <g transform="translate(274.30919 374.780258)scale(0.1 -0.1)">
      <use xlink:href="#DejaVuSans-49"/>
      <use x="63.623047" xlink:href="#DejaVuSans-46"/>
      <use x="95.410156" xlink:href="#DejaVuSans-49"/>
      <use x="159.033203" xlink:href="#DejaVuSans-57"/>
     </g>
    </g>
   </g>
   <g id="text_77">
    <g clip-path="url(#pd537875e12)">
     <!-- 1.20 -->
     <g transform="translate(323.040046 374.780258)scale(0.1 -0.1)">
      <use xlink:href="#DejaVuSans-49"/>
      <use x="63.623047" xlink:href="#DejaVuSans-46"/>
      <use x="95.410156" xlink:href="#DejaVuSans-50"/>
      <use x="159.033203" xlink:href="#DejaVuSans-48"/>
     </g>
    </g>
   </g>
   <g id="text_78">
    <g clip-path="url(#pd537875e12)">
     <!-- 1.21 -->
     <g transform="translate(371.770903 374.780258)scale(0.1 -0.1)">
      <use xlink:href="#DejaVuSans-49"/>
      <use x="63.623047" xlink:href="#DejaVuSans-46"/>
      <use x="95.410156" xlink:href="#DejaVuSans-50"/>
      <use x="159.033203" xlink:href="#DejaVuSans-49"/>
     </g>
    </g>
   </g>
   <g id="text_79">
    <g clip-path="url(#pd537875e12)">
     <!-- 1.22 -->
     <g transform="translate(79.385764 374.780258)scale(0.1 -0.1)">
      <use xlink:href="#DejaVuSans-49"/>
      <use x="63.623047" xlink:href="#DejaVuSans-46"/>
      <use x="95.410156" xlink:href="#DejaVuSans-50"/>
      <use x="159.033203" xlink:href="#DejaVuSans-50"/>
     </g>
    </g>
   </g>
   <g id="text_80">
    <g clip-path="url(#pd537875e12)">
     <!-- 1.23 -->
     <g transform="translate(128.116621 374.780258)scale(0.1 -0.1)">
      <use xlink:href="#DejaVuSans-49"/>
      <use x="63.623047" xlink:href="#DejaVuSans-46"/>
      <use x="95.410156" xlink:href="#DejaVuSans-50"/>
      <use x="159.033203" xlink:href="#DejaVuSans-51"/>
     </g>
    </g>
   </g>
   <g id="text_81">
    <g clip-path="url(#pd537875e12)">
     <!-- 1.24 -->
     <g transform="translate(176.847477 374.780258)scale(0.1 -0.1)">
      <use xlink:href="#DejaVuSans-49"/>
      <use x="63.623047" xlink:href="#DejaVuSans-46"/>
      <use x="95.410156" xlink:href="#DejaVuSans-50"/>
      <use x="159.033203" xlink:href="#DejaVuSans-52"/>
     </g>
    </g>
   </g>
   <g id="text_82">
    <g clip-path="url(#pd537875e12)">
     <!-- 1.25 -->
     <g transform="translate(615.425185 374.780258)scale(0.1 -0.1)">
      <use xlink:href="#DejaVuSans-49"/>
      <use x="63.623047" xlink:href="#DejaVuSans-46"/>
      <use x="95.410156" xlink:href="#DejaVuSans-50"/>
      <use x="159.033203" xlink:href="#DejaVuSans-53"/>
     </g>
    </g>
   </g>
   <g id="text_83">
    <g clip-path="url(#pd537875e12)">
     <!-- 1.26 -->
     <g transform="translate(859.079467 374.780258)scale(0.1 -0.1)">
      <use xlink:href="#DejaVuSans-49"/>
      <use x="63.623047" xlink:href="#DejaVuSans-46"/>
      <use x="95.410156" xlink:href="#DejaVuSans-50"/>
      <use x="159.033203" xlink:href="#DejaVuSans-54"/>
     </g>
    </g>
   </g>
  </g>
 </g>
 <defs>
  <clipPath id="pd537875e12">
   <rect height="480" width="912" x="0" y="0"/>
  </clipPath>
 </defs>
</svg>
