<?xml version="1.0" encoding="UTF-8"?>
<!DOCTYPE svg  PUBLIC '-//W3C//DTD SVG 1.1//EN'  'http://www.w3.org/Graphics/SVG/1.1/DTD/svg11.dtd'>
<svg width="1013.3pt" height="533.33pt" version="1.1" viewBox="0 0 1013.3 533.33" xmlns="http://www.w3.org/2000/svg" xmlns:xlink="http://www.w3.org/1999/xlink">
<defs>
<style type="text/css">*{stroke-linecap:butt;stroke-linejoin:round;}</style>
</defs>
<path d="m0 533.33h1013.3v-533.33h-1013.3z" fill="#fff"/>
<g fill="none" stroke="#000">
<path d="m498.99 25.635-245.9 123.09" clip-path="url(#a)"/>
<path d="m498.99 25.635 31.899 362.96" clip-path="url(#a)"/>
<path d="m498.99 25.635 230.56 123.09" clip-path="url(#a)"/>
<path d="m498.99 25.635-16.555 362.96" clip-path="url(#a)"/>
<path d="m253.09 148.72-158.28 120.76" clip-path="url(#a)"/>
<path d="m253.09 148.72-61.374 239.87" clip-path="url(#a)"/>
<path d="m253.09 148.72 100.14 120.76" clip-path="url(#a)"/>
<path d="m253.09 148.72 83.986 239.87" clip-path="url(#a)"/>
<path d="m253.09 148.72 35.533 239.87" clip-path="url(#a)"/>
<path d="m530.89 388.59v119.11" clip-path="url(#a)"/>
<path d="m729.55 148.72-150.21 239.87" clip-path="url(#a)"/>
<path d="m729.55 148.72 92.062 120.76" clip-path="url(#a)"/>
<path d="m729.55 148.72-4.8453 239.87" clip-path="url(#a)"/>
<path d="m729.55 148.72 116.29 120.76" clip-path="url(#a)"/>
<path d="m729.55 148.72-53.299 239.87" clip-path="url(#a)"/>
<path d="m579.35 388.59v119.11" clip-path="url(#a)"/>
<path d="m821.61 269.49-193.81 119.11" clip-path="url(#a)"/>
<path d="m821.61 269.49-48.453 119.11" clip-path="url(#a)"/>
<path d="m821.61 269.49 96.907 119.11" clip-path="url(#a)"/>
<path d="m821.61 269.49 145.36 119.11" clip-path="url(#a)"/>
<path d="m724.71 388.59v119.11" clip-path="url(#a)"/>
<path d="m845.84 269.49-24.227 119.11" clip-path="url(#a)"/>
<path d="m845.84 269.49 24.227 119.11" clip-path="url(#a)"/>
<path d="m821.61 388.59v119.11" clip-path="url(#a)"/>
<path d="m870.07 388.59v119.11" clip-path="url(#a)"/>
<path d="m627.8 388.59v119.11" clip-path="url(#a)"/>
<path d="m773.16 388.59v119.11" clip-path="url(#a)"/>
<path d="m918.52 388.59v119.11" clip-path="url(#a)"/>
<path d="m94.812 269.49-48.453 119.11" clip-path="url(#a)"/>
<path d="m94.812 269.49v119.11" clip-path="url(#a)"/>
<path d="m94.812 269.49 48.453 119.11" clip-path="url(#a)"/>
<path d="m191.72 388.59v119.11" clip-path="url(#a)"/>
<path d="m353.23 269.49-113.06 119.11" clip-path="url(#a)"/>
<path d="m353.23 269.49 32.302 119.11" clip-path="url(#a)"/>
<path d="m353.23 269.49 80.756 119.11" clip-path="url(#a)"/>
<path d="m337.08 388.59v119.11" clip-path="url(#a)"/>
<path d="m240.17 388.59v119.11" clip-path="url(#a)"/>
<path d="m385.53 388.59v119.11" clip-path="url(#a)"/>
<path d="m433.99 388.59v119.11" clip-path="url(#a)"/>
<path d="m46.359 388.59v119.11" clip-path="url(#a)"/>
<path d="m94.812 388.59v119.11" clip-path="url(#a)"/>
<path d="m143.27 388.59v119.11" clip-path="url(#a)"/>
<path d="m504.51 25.635-251.42 123.09" clip-path="url(#a)"/>
<path d="m504.51 25.635 26.38 362.96" clip-path="url(#a)"/>
<path d="m504.51 25.635 225.04 123.09" clip-path="url(#a)"/>
<path d="m288.63 388.59v119.11" clip-path="url(#a)"/>
<path d="m482.44 388.59v119.11" clip-path="url(#a)"/>
<path d="m676.25 388.59v119.11" clip-path="url(#a)"/>
<path d="m966.97 388.59v119.11" clip-path="url(#a)"/>
</g>
<path d="m376.16 94.134 5.3799-2.693q2.1461-1.0743 1.0719-3.2204l-3.4657-6.9236q-1.0743-2.1461-3.2204-1.0719l-5.3799 2.693q-2.1461 1.0743-1.0719 3.2204l3.4657 6.9236q1.0743 2.1461 3.2204 1.0719z" clip-path="url(#a)" fill="#fff" stroke="#fff"/>
<g clip-path="url(#a)">
<defs>
<path id="af" d="m9.8125 72.906h9.8594v-29.891h35.844v29.891h9.8594v-72.906h-9.8594v34.719h-35.844v-34.719h-9.8594z"/>
</defs>
<g transform="translate(374.34 90.5) rotate(-26.591) scale(.08 -.08)">
<use xlink:href="#af"/>
</g>
</g>
<path d="m508.5 205.44 0.39024 4.4404q0.21011 2.3908 2.6009 2.1807l7.7128-0.67784q2.3908-0.21011 2.1807-2.6009l-0.39024-4.4404q-0.21011-2.3908-2.6009-2.1807l-7.7128 0.67784q-2.3908 0.21011-2.1807 2.6009z" clip-path="url(#a)" fill="#fff" stroke="#fff"/>
<g clip-path="url(#a)">
<defs>
<path id="u" d="m9.8125 72.906h9.8594v-64.609h35.5v-8.2969h-45.359z"/>
</defs>
<g transform="translate(512.55 205.09) rotate(84.977) scale(.08 -.08)">
<use xlink:href="#u"/>
</g>
</g>
<path d="m608.67 91.295 5.3073 2.8334q2.1172 1.1303 3.2475-0.98687l3.6464-6.8301q1.1303-2.1172-0.98687-3.2475l-5.3073-2.8334q-2.1172-1.1303-3.2475 0.98687l-3.6464 6.8301q-1.1303 2.1172 0.98687 3.2475z" clip-path="url(#a)" fill="#fff" stroke="#fff"/>
<g clip-path="url(#a)">
<g transform="translate(610.58 87.71) rotate(28.097) scale(.08 -.08)">
<use xlink:href="#af"/>
</g>
</g>
<path d="m496.85 210.32 0.26678-5.8489q0.10935-2.3975-2.2882-2.5069l-7.7345-0.35278q-2.3975-0.10935-2.5069 2.2882l-0.26678 5.8489q-0.10935 2.3975 2.2882 2.5069l7.7345 0.35278q2.3975 0.10935 2.5069-2.2882z" clip-path="url(#a)" fill="#fff" stroke="#fff"/>
<g clip-path="url(#a)">
<defs>
<path id="t" d="m8.6875 72.906h9.9219v-44.297q0-11.719 4.2344-16.875 4.25-5.1406 13.781-5.1406 9.4688 0 13.719 5.1406 4.25 5.1562 4.25 16.875v44.297h9.9062v-45.516q0-14.25-7.0625-21.531-7.0469-7.2812-20.812-7.2812-13.828 0-20.891 7.2812-7.0469 7.2812-7.0469 21.531z"/>
</defs>
<g transform="translate(492.79 210.14) rotate(-87.388) scale(.08 -.08)">
<use xlink:href="#t"/>
</g>
</g>
<path d="m175.58 215.75 4.3508-3.3195q1.9081-1.4558 0.45228-3.3638l-4.6964-6.1555q-1.4558-1.9081-3.3638-0.45228l-4.3508 3.3195q-1.9081 1.4558-0.45228 3.3638l4.6964 6.1555q1.4558 1.9081 3.3638 0.45228z" clip-path="url(#a)" fill="#fff" stroke="#fff"/>
<g clip-path="url(#a)">
<defs>
<path id="o" d="m34.188 63.188-13.391-36.281h26.812zm-5.5781 9.7188h11.188l27.781-72.906h-10.25l-6.6406 18.703h-32.859l-6.6406-18.703h-10.406z"/>
</defs>
<g transform="translate(173.12 212.52) rotate(-37.342) scale(.08 -.08)">
<use xlink:href="#o"/>
</g>
</g>
<path d="m227.8 272.86 1.3565-5.3017q0.59491-2.3251-1.7302-2.92l-7.5009-1.9192q-2.3251-0.59491-2.92 1.7302l-1.3565 5.3017q-0.59491 2.3251 1.7302 2.92l7.5009 1.9192q2.3251 0.59491 2.92-1.7302z" clip-path="url(#a)" fill="#fff" stroke="#fff"/>
<g clip-path="url(#a)">
<g transform="translate(223.87 271.86) rotate(-75.648) scale(.08 -.08)">
<use xlink:href="#o"/>
</g>
</g>
<path d="m296.8 211.25 3.079 3.7132q1.5319 1.8475 3.3794 0.31554l5.96-4.9421q1.8475-1.5319 0.31554-3.3794l-3.079-3.7132q-1.5319-1.8475-3.3794-0.31554l-5.96 4.9421q-1.8475 1.5319-0.31554 3.3794z" clip-path="url(#a)" fill="#fff" stroke="#fff"/>
<g clip-path="url(#a)">
<defs>
<path id="ae" d="m19.672 64.797v-27.391h12.406q6.8906 0 10.641 3.5625 3.7656 3.5625 3.7656 10.156 0 6.5469-3.7656 10.109-3.75 3.5625-10.641 3.5625zm-9.8594 8.1094h22.266q12.266 0 18.531-5.5469 6.2812-5.5469 6.2812-16.234 0-10.797-6.2812-16.312-6.2656-5.5156-18.531-5.5156h-12.406v-29.297h-9.8594z"/>
</defs>
<g transform="translate(299.92 208.66) rotate(50.334) scale(.08 -.08)">
<use xlink:href="#ae"/>
</g>
</g>
<path d="m288.26 268.15 1.8085 5.1651q0.79311 2.2652 3.0583 1.4721l7.3075-2.5586q2.2652-0.79311 1.4721-3.0583l-1.8085-5.1651q-0.79311-2.2652-3.0583-1.4721l-7.3075 2.5586q-2.2652 0.79311-1.4721 3.0583z" clip-path="url(#a)" fill="#fff" stroke="#fff"/>
<g clip-path="url(#a)">
<g transform="translate(292.1 266.8) rotate(70.703) scale(.08 -.08)">
<use xlink:href="#o"/>
</g>
</g>
<path d="m264.23 266.68 0.85796 5.7918q0.35168 2.3741 2.7258 2.0224l7.6589-1.1345q2.3741-0.35168 2.0224-2.7258l-0.85796-5.7918q-0.35168-2.3741-2.7258-2.0224l-7.6589 1.1345q-2.3741 0.35168-2.0224 2.7258z" clip-path="url(#a)" fill="#fff" stroke="#fff"/>
<g clip-path="url(#a)">
<g transform="translate(268.25 266.09) rotate(81.574) scale(.08 -.08)">
<use xlink:href="#t"/>
</g>
</g>
<path d="m524.62 430.5v35.285q0 2.4 2.4 2.4h7.7425q2.4 0 2.4-2.4v-35.285q0-2.4-2.4-2.4h-7.7425q-2.4 0-2.4 2.4z" clip-path="url(#a)" fill="#fff" stroke="#fff"/>
<g clip-path="url(#a)">
<defs>
<path id="l" d="m-0.29688 72.906h61.672v-8.3125h-25.875v-64.594h-9.9062v64.594h-25.891z"/>
<path id="d" d="m56.203 29.594v-4.3906h-41.312q0.59375-9.2812 5.5938-14.141t13.938-4.8594q5.1719 0 10.031 1.2656t9.6562 3.8125v-8.5q-4.8438-2.0469-9.9219-3.125t-10.297-1.0781q-13.094 0-20.734 7.6094-7.6406 7.625-7.6406 20.625 0 13.422 7.25 21.297 7.25 7.8906 19.562 7.8906 11.031 0 17.453-7.1094 6.4219-7.0938 6.4219-19.297zm-8.9844 2.6406q-0.09375 7.3594-4.125 11.75-4.0312 4.4062-10.672 4.4062-7.5156 0-12.031-4.25t-5.2031-11.969z"/>
<path id="h" d="m41.109 46.297q-1.5156 0.875-3.2969 1.2812-1.7812 0.42188-3.9219 0.42188-7.625 0-11.703-4.9531t-4.0781-14.234v-28.812h-9.0312v54.688h9.0312v-8.5q2.8438 4.9844 7.375 7.3906 4.5469 2.4219 11.047 2.4219 0.92188 0 2.0469-0.125 1.125-0.10938 2.4844-0.35938z"/>
<path id="k" d="m52 44.188q3.375 6.0625 8.0625 8.9375t11.031 2.875q8.5469 0 13.188-5.9844 4.6406-5.9688 4.6406-17v-33.016h-9.0312v32.719q0 7.8594-2.7969 11.656-2.7812 3.8125-8.4844 3.8125-6.9844 0-11.047-4.6406-4.0469-4.625-4.0469-12.641v-30.906h-9.0312v32.719q0 7.9062-2.7812 11.688t-8.5938 3.7812q-6.8906 0-10.953-4.6562-4.0469-4.6562-4.0469-12.625v-30.906h-9.0312v54.688h9.0312v-8.5q3.0781 5.0312 7.375 7.4219t10.203 2.3906q5.9688 0 10.141-3.0312 4.1719-3.0156 6.1719-8.7812z"/>
<path id="g" d="m9.4219 54.688h8.9844v-54.688h-8.9844zm0 21.297h8.9844v-11.391h-8.9844z"/>
<path id="f" d="m54.891 33.016v-33.016h-8.9844v32.719q0 7.7656-3.0312 11.609-3.0312 3.8594-9.0781 3.8594-7.2812 0-11.484-4.6406-4.2031-4.625-4.2031-12.641v-30.906h-9.0312v54.688h9.0312v-8.5q3.2344 4.9375 7.5938 7.375 4.375 2.4375 10.094 2.4375 9.4219 0 14.25-5.8281 4.8438-5.8281 4.8438-17.156z"/>
<path id="i" d="m34.281 27.484q-10.891 0-15.094-2.4844t-4.2031-8.5q0-4.7812 3.1562-7.5938 3.1562-2.7969 8.5625-2.7969 7.4844 0 12 5.2969t4.5156 14.078v2zm17.922 3.7188v-31.203h-8.9844v8.2969q-3.0781-4.9688-7.6719-7.3438t-11.234-2.375q-8.3906 0-13.359 4.7188-4.9531 4.7188-4.9531 12.625 0 9.2188 6.1719 13.906 6.1875 4.6875 18.438 4.6875h12.609v0.89062q0 6.2031-4.0781 9.5938t-11.453 3.3906q-4.6875 0-9.1406-1.125-4.4375-1.125-8.5312-3.375v8.3125q4.9219 1.9062 9.5625 2.8438 4.6406 0.95312 9.0312 0.95312 11.875 0 17.734-6.1562 5.8594-6.1406 5.8594-18.641z"/>
<path id="j" d="m9.4219 75.984h8.9844v-75.984h-8.9844z"/>
</defs>
<g transform="translate(528.69 430.5) rotate(90) scale(.08 -.08)">
<use xlink:href="#l"/>
<use x="60.818359" xlink:href="#d"/>
<use x="122.341797" xlink:href="#h"/>
<use x="163.439453" xlink:href="#k"/>
<use x="260.851562" xlink:href="#g"/>
<use x="288.634766" xlink:href="#f"/>
<use x="352.013672" xlink:href="#i"/>
<use x="413.292969" xlink:href="#j"/>
</g>
</g>
<path d="m658.31 274.31 2.9044-4.6382q1.2738-2.0341-0.76035-3.3078l-6.5621-4.1092q-2.0341-1.2738-3.3078 0.76035l-2.9044 4.6382q-1.2738 2.0341 0.76035 3.3078l6.5621 4.1092q2.0341 1.2738 3.3078-0.76035z" clip-path="url(#a)" fill="#fff" stroke="#fff"/>
<g clip-path="url(#a)">
<g transform="translate(654.87 272.15) rotate(-57.945) scale(.08 -.08)">
<use xlink:href="#o"/>
</g>
</g>
<path d="m769.13 210.99 2.9244 3.8362q1.455 1.9086 3.3637 0.45362l6.1574-4.694q1.9086-1.455 0.45362-3.3637l-2.9244-3.8362q-1.455-1.9086-3.3637-0.45362l-6.1574 4.694q-1.9086 1.455-0.45362 3.3637z" clip-path="url(#a)" fill="#fff" stroke="#fff"/>
<g clip-path="url(#a)">
<g transform="translate(772.37 208.52) rotate(52.681) scale(.08 -.08)">
<use xlink:href="#ae"/>
</g>
</g>
<path d="m733.34 271.52 0.11052-5.4714q0.04847-2.3995-2.351-2.448l-7.7409-0.15637q-2.3995-0.04847-2.448 2.351l-0.11052 5.4714q-0.04847 2.3995 2.351 2.448l7.7409 0.15637q2.3995 0.04847 2.448-2.351z" clip-path="url(#a)" fill="#fff" stroke="#fff"/>
<g clip-path="url(#a)">
<g transform="translate(729.28 271.44) rotate(-88.843) scale(.08 -.08)">
<use xlink:href="#o"/>
</g>
</g>
<path d="m781.28 211.48 3.7959 3.942q1.6647 1.7288 3.3935 0.064057l5.5771-5.3705q1.7288-1.6647 0.064057-3.3935l-3.7959-3.942q-1.6647-1.7288-3.3935-0.064057l-5.5771 5.3705q-1.7288 1.6647-0.064057 3.3935z" clip-path="url(#a)" fill="#fff" stroke="#fff"/>
<g clip-path="url(#a)">
<g transform="translate(784.21 208.66) rotate(46.081) scale(.08 -.08)">
<use xlink:href="#o"/>
</g>
</g>
<path d="m708.39 272.88 1.27-5.7156q0.52058-2.3429-1.8223-2.8634l-7.5582-1.6794q-2.3429-0.52058-2.8634 1.8223l-1.27 5.7156q-0.52058 2.3429 1.8223 2.8634l7.5582 1.6794q2.3429 0.52058 2.8634-1.8223z" clip-path="url(#a)" fill="#fff" stroke="#fff"/>
<g clip-path="url(#a)">
<g transform="translate(704.42 271.99) rotate(-77.472) scale(.08 -.08)">
<use xlink:href="#t"/>
</g>
</g>
<path d="m573.08 430.5v35.285q0 2.4 2.4 2.4h7.7425q2.4 0 2.4-2.4v-35.285q0-2.4-2.4-2.4h-7.7425q-2.4 0-2.4 2.4z" clip-path="url(#a)" fill="#fff" stroke="#fff"/>
<g clip-path="url(#a)">
<g transform="translate(577.14 430.5) rotate(90) scale(.08 -.08)">
<use xlink:href="#l"/>
<use x="60.818359" xlink:href="#d"/>
<use x="122.341797" xlink:href="#h"/>
<use x="163.439453" xlink:href="#k"/>
<use x="260.851562" xlink:href="#g"/>
<use x="288.634766" xlink:href="#f"/>
<use x="352.013672" xlink:href="#i"/>
<use x="413.292969" xlink:href="#j"/>
</g>
</g>
<path d="m726.03 335.59 3.9202-2.4091q2.0448-1.2566 0.78817-3.3013l-4.0538-6.5965q-1.2566-2.0448-3.3013-0.78817l-3.9202 2.4091q-2.0448 1.2566-0.78817 3.3013l4.0538 6.5965q1.2566 2.0448 3.3013 0.78817z" clip-path="url(#a)" fill="#fff" stroke="#fff"/>
<g clip-path="url(#a)">
<defs>
<path id="ag" d="m9.8125 72.906h41.891v-8.3125h-32.031v-21.484h28.906v-8.2969h-28.906v-34.812h-9.8594z"/>
</defs>
<g transform="translate(723.9 332.12) rotate(-31.572) scale(.08 -.08)">
<use xlink:href="#ag"/>
</g>
</g>
<path d="m802.24 333.74 1.9048-4.6824q0.90437-2.2231-1.3187-3.1275l-7.1718-2.9175q-2.2231-0.90437-3.1275 1.3187l-1.9048 4.6824q-0.90437 2.2231 1.3187 3.1275l7.1718 2.9175q2.2231 0.90437 3.1275-1.3187z" clip-path="url(#a)" fill="#fff" stroke="#fff"/>
<g clip-path="url(#a)">
<defs>
<path id="w" d="m9.8125 72.906h46.094v-8.3125h-36.234v-21.578h34.719v-8.2969h-34.719v-26.422h37.109v-8.2969h-46.969z"/>
</defs>
<g transform="translate(798.48 332.21) rotate(-67.863) scale(.08 -.08)">
<use xlink:href="#w"/>
</g>
</g>
<path d="m863.44 330.83 3.5256 4.3332q1.5147 1.8617 3.3763 0.34698l6.0058-4.8864q1.8617-1.5147 0.34698-3.3763l-3.5256-4.3332q-1.5147-1.8617-3.3763-0.34698l-6.0058 4.8864q-1.8617 1.5147-0.34698 3.3763z" clip-path="url(#a)" fill="#fff" stroke="#fff"/>
<g clip-path="url(#a)">
<defs>
<path id="r" d="m64.406 67.281v-10.391q-4.9844 4.6406-10.625 6.9219-5.6406 2.2969-11.984 2.2969-12.5 0-19.141-7.6406t-6.6406-22.094q0-14.406 6.6406-22.047t19.141-7.6406q6.3438 0 11.984 2.2969t10.625 6.9375v-10.312q-5.1719-3.5156-10.969-5.2812-5.7812-1.75-12.219-1.75-16.562 0-26.094 10.125-9.5156 10.141-9.5156 27.672 0 17.578 9.5156 27.703 9.5312 10.141 26.094 10.141 6.5312 0 12.312-1.7344 5.7969-1.7344 10.875-5.2031z"/>
</defs>
<g transform="translate(866.59 328.27) rotate(50.868) scale(.08 -.08)">
<use xlink:href="#r"/>
</g>
</g>
<path d="m888.06 332.03 4.5288 3.7109q1.8564 1.5211 3.3775-0.3353l4.9072-5.9888q1.5211-1.8564-0.3353-3.3775l-4.5288-3.7109q-1.8564-1.5211-3.3775 0.3353l-4.9072 5.9888q-1.5211 1.8564 0.33529 3.3775z" clip-path="url(#a)" fill="#fff" stroke="#fff"/>
<g clip-path="url(#a)">
<g transform="translate(890.63 328.89) rotate(39.331) scale(.08 -.08)">
<use xlink:href="#t"/>
</g>
</g>
<path d="m718.44 430.5v35.285q0 2.4 2.4 2.4h7.7425q2.4 0 2.4-2.4v-35.285q0-2.4-2.4-2.4h-7.7425q-2.4 0-2.4 2.4z" clip-path="url(#a)" fill="#fff" stroke="#fff"/>
<g clip-path="url(#a)">
<g transform="translate(722.5 430.5) rotate(90) scale(.08 -.08)">
<use xlink:href="#l"/>
<use x="60.818359" xlink:href="#d"/>
<use x="122.341797" xlink:href="#h"/>
<use x="163.439453" xlink:href="#k"/>
<use x="260.851562" xlink:href="#g"/>
<use x="288.634766" xlink:href="#f"/>
<use x="352.013672" xlink:href="#i"/>
<use x="413.292969" xlink:href="#j"/>
</g>
</g>
<path d="m839.37 332.77 1.0076-4.9536q0.47838-2.3518-1.8735-2.8302l-7.5871-1.5433q-2.3518-0.47838-2.8302 1.8735l-1.0076 4.9536q-0.47838 2.3518 1.8735 2.8302l7.5871 1.5433q2.3518 0.47838 2.8302-1.8735z" clip-path="url(#a)" fill="#fff" stroke="#fff"/>
<g clip-path="url(#a)">
<g transform="translate(835.39 331.96) rotate(-78.503) scale(.08 -.08)">
<use xlink:href="#w"/>
</g>
</g>
<path d="m851.25 327.55 1.1135 5.4742q0.47838 2.3518 2.8302 1.8735l7.5871-1.5433q2.3518-0.47838 1.8735-2.8302l-1.1135-5.4742q-0.47838-2.3518-2.8302-1.8735l-7.5871 1.5433q-2.3518 0.47838-1.8735 2.8302z" clip-path="url(#a)" fill="#fff" stroke="#fff"/>
<g clip-path="url(#a)">
<g transform="translate(855.23 326.74) rotate(78.503) scale(.08 -.08)">
<use xlink:href="#r"/>
</g>
</g>
<path d="m815.34 430.5v35.285q0 2.4 2.4 2.4h7.7425q2.4 0 2.4-2.4v-35.285q0-2.4-2.4-2.4h-7.7425q-2.4 0-2.4 2.4z" clip-path="url(#a)" fill="#fff" stroke="#fff"/>
<g clip-path="url(#a)">
<g transform="translate(819.41 430.5) rotate(90) scale(.08 -.08)">
<use xlink:href="#l"/>
<use x="60.818359" xlink:href="#d"/>
<use x="122.341797" xlink:href="#h"/>
<use x="163.439453" xlink:href="#k"/>
<use x="260.851562" xlink:href="#g"/>
<use x="288.634766" xlink:href="#f"/>
<use x="352.013672" xlink:href="#i"/>
<use x="413.292969" xlink:href="#j"/>
</g>
</g>
<path d="m863.8 430.5v35.285q0 2.4 2.4 2.4h7.7425q2.4 0 2.4-2.4v-35.285q0-2.4-2.4-2.4h-7.7425q-2.4 0-2.4 2.4z" clip-path="url(#a)" fill="#fff" stroke="#fff"/>
<g clip-path="url(#a)">
<g transform="translate(867.86 430.5) rotate(90) scale(.08 -.08)">
<use xlink:href="#l"/>
<use x="60.818359" xlink:href="#d"/>
<use x="122.341797" xlink:href="#h"/>
<use x="163.439453" xlink:href="#k"/>
<use x="260.851562" xlink:href="#g"/>
<use x="288.634766" xlink:href="#f"/>
<use x="352.013672" xlink:href="#i"/>
<use x="413.292969" xlink:href="#j"/>
</g>
</g>
<path d="m621.53 430.5v35.285q0 2.4 2.4 2.4h7.7425q2.4 0 2.4-2.4v-35.285q0-2.4-2.4-2.4h-7.7425q-2.4 0-2.4 2.4z" clip-path="url(#a)" fill="#fff" stroke="#fff"/>
<g clip-path="url(#a)">
<g transform="translate(625.59 430.5) rotate(90) scale(.08 -.08)">
<use xlink:href="#l"/>
<use x="60.818359" xlink:href="#d"/>
<use x="122.341797" xlink:href="#h"/>
<use x="163.439453" xlink:href="#k"/>
<use x="260.851562" xlink:href="#g"/>
<use x="288.634766" xlink:href="#f"/>
<use x="352.013672" xlink:href="#i"/>
<use x="413.292969" xlink:href="#j"/>
</g>
</g>
<path d="m766.89 430.5v35.285q0 2.4 2.4 2.4h7.7425q2.4 0 2.4-2.4v-35.285q0-2.4-2.4-2.4h-7.7425q-2.4 0-2.4 2.4z" clip-path="url(#a)" fill="#fff" stroke="#fff"/>
<g clip-path="url(#a)">
<g transform="translate(770.95 430.5) rotate(90) scale(.08 -.08)">
<use xlink:href="#l"/>
<use x="60.818359" xlink:href="#d"/>
<use x="122.341797" xlink:href="#h"/>
<use x="163.439453" xlink:href="#k"/>
<use x="260.851562" xlink:href="#g"/>
<use x="288.634766" xlink:href="#f"/>
<use x="352.013672" xlink:href="#i"/>
<use x="413.292969" xlink:href="#j"/>
</g>
</g>
<path d="m912.25 430.5v35.285q0 2.4 2.4 2.4h7.7425q2.4 0 2.4-2.4v-35.285q0-2.4-2.4-2.4h-7.7425q-2.4 0-2.4 2.4z" clip-path="url(#a)" fill="#fff" stroke="#fff"/>
<g clip-path="url(#a)">
<g transform="translate(916.31 430.5) rotate(90) scale(.08 -.08)">
<use xlink:href="#l"/>
<use x="60.818359" xlink:href="#d"/>
<use x="122.341797" xlink:href="#h"/>
<use x="163.439453" xlink:href="#k"/>
<use x="260.851562" xlink:href="#g"/>
<use x="288.634766" xlink:href="#f"/>
<use x="352.013672" xlink:href="#i"/>
<use x="413.292969" xlink:href="#j"/>
</g>
</g>
<path d="m75.342 333.99 2.105-5.1745q0.90437-2.2231-1.3187-3.1275l-7.1718-2.9175q-2.2231-0.90437-3.1275 1.3187l-2.105 5.1745q-0.90437 2.2231 1.3187 3.1275l7.1718 2.9175q2.2231 0.90437 3.1275-1.3187z" clip-path="url(#a)" fill="#fff" stroke="#fff"/>
<g clip-path="url(#a)">
<g transform="translate(71.578 332.46) rotate(-67.863) scale(.08 -.08)">
<use xlink:href="#r"/>
</g>
</g>
<path d="m88.541 326.05v5.985q0 2.4 2.4 2.4h7.7425q2.4 0 2.4-2.4v-5.985q0-2.4-2.4-2.4h-7.7425q-2.4 0-2.4 2.4z" clip-path="url(#a)" fill="#fff" stroke="#fff"/>
<g clip-path="url(#a)">
<defs>
<path id="am" d="m9.8125 72.906h13.281l32.328-60.984v60.984h9.5625v-72.906h-13.281l-32.312 60.984v-60.984h-9.5781z"/>
</defs>
<g transform="translate(92.605 326.05) rotate(90) scale(.08 -.08)">
<use xlink:href="#am"/>
</g>
</g>
<path d="m112.18 328.82 2.105 5.1745q0.90437 2.2231 3.1275 1.3187l7.1718-2.9175q2.2231-0.90437 1.3187-3.1275l-2.105-5.1745q-0.90437-2.2231-3.1275-1.3187l-7.1718 2.9175q-2.2231 0.90437-1.3187 3.1275z" clip-path="url(#a)" fill="#fff" stroke="#fff"/>
<g clip-path="url(#a)">
<g transform="translate(115.94 327.28) rotate(67.863) scale(.08 -.08)">
<use xlink:href="#r"/>
</g>
</g>
<path d="m185.45 430.5v35.285q0 2.4 2.4 2.4h7.7425q2.4 0 2.4-2.4v-35.285q0-2.4-2.4-2.4h-7.7425q-2.4 0-2.4 2.4z" clip-path="url(#a)" fill="#fff" stroke="#fff"/>
<g clip-path="url(#a)">
<g transform="translate(189.51 430.5) rotate(90) scale(.08 -.08)">
<use xlink:href="#l"/>
<use x="60.818359" xlink:href="#d"/>
<use x="122.341797" xlink:href="#h"/>
<use x="163.439453" xlink:href="#k"/>
<use x="260.851562" xlink:href="#g"/>
<use x="288.634766" xlink:href="#f"/>
<use x="352.013672" xlink:href="#i"/>
<use x="413.292969" xlink:href="#j"/>
</g>
</g>
<path d="m299.67 335.03 3.1677-3.3372q1.6523-1.7407-0.088388-3.393l-5.6155-5.3303q-1.7407-1.6523-3.393 0.088388l-3.1677 3.3372q-1.6523 1.7407 0.088388 3.393l5.6155 5.3303q1.7407 1.6523 3.393-0.088388z" clip-path="url(#a)" fill="#fff" stroke="#fff"/>
<g clip-path="url(#a)">
<g transform="translate(296.72 332.23) rotate(-46.492) scale(.08 -.08)">
<use xlink:href="#ag"/>
</g>
</g>
<path d="m362.67 328.24 1.3232 4.8788q0.6282 2.3163 2.9445 1.6881l7.4726-2.0266q2.3163-0.6282 1.6881-2.9445l-1.3232-4.8788q-0.6282-2.3163-2.9445-1.6881l-7.4726 2.0266q-2.3163 0.6282-1.6881 2.9445z" clip-path="url(#a)" fill="#fff" stroke="#fff"/>
<g clip-path="url(#a)">
<g transform="translate(366.59 327.18) rotate(74.826) scale(.08 -.08)">
<use xlink:href="#w"/>
</g>
</g>
<path d="m386.85 330.25 3.1349 4.6237q1.3468 1.9865 3.3333 0.63961l6.4084-4.345q1.9865-1.3468 0.63961-3.3333l-3.1349-4.6237q-1.3468-1.9865-3.3333-0.63961l-6.4084 4.345q-1.9865 1.3468-0.63961 3.3333z" clip-path="url(#a)" fill="#fff" stroke="#fff"/>
<g clip-path="url(#a)">
<g transform="translate(390.21 327.97) rotate(55.862) scale(.08 -.08)">
<use xlink:href="#r"/>
</g>
</g>
<path d="m330.81 430.5v35.285q0 2.4 2.4 2.4h7.7425q2.4 0 2.4-2.4v-35.285q0-2.4-2.4-2.4h-7.7425q-2.4 0-2.4 2.4z" clip-path="url(#a)" fill="#fff" stroke="#fff"/>
<g clip-path="url(#a)">
<g transform="translate(334.87 430.5) rotate(90) scale(.08 -.08)">
<use xlink:href="#l"/>
<use x="60.818359" xlink:href="#d"/>
<use x="122.341797" xlink:href="#h"/>
<use x="163.439453" xlink:href="#k"/>
<use x="260.851562" xlink:href="#g"/>
<use x="288.634766" xlink:href="#f"/>
<use x="352.013672" xlink:href="#i"/>
<use x="413.292969" xlink:href="#j"/>
</g>
</g>
<path d="m233.9 430.5v35.285q0 2.4 2.4 2.4h7.7425q2.4 0 2.4-2.4v-35.285q0-2.4-2.4-2.4h-7.7425q-2.4 0-2.4 2.4z" clip-path="url(#a)" fill="#fff" stroke="#fff"/>
<g clip-path="url(#a)">
<g transform="translate(237.97 430.5) rotate(90) scale(.08 -.08)">
<use xlink:href="#l"/>
<use x="60.818359" xlink:href="#d"/>
<use x="122.341797" xlink:href="#h"/>
<use x="163.439453" xlink:href="#k"/>
<use x="260.851562" xlink:href="#g"/>
<use x="288.634766" xlink:href="#f"/>
<use x="352.013672" xlink:href="#i"/>
<use x="413.292969" xlink:href="#j"/>
</g>
</g>
<path d="m379.26 430.5v35.285q0 2.4 2.4 2.4h7.7425q2.4 0 2.4-2.4v-35.285q0-2.4-2.4-2.4h-7.7425q-2.4 0-2.4 2.4z" clip-path="url(#a)" fill="#fff" stroke="#fff"/>
<g clip-path="url(#a)">
<g transform="translate(383.33 430.5) rotate(90) scale(.08 -.08)">
<use xlink:href="#l"/>
<use x="60.818359" xlink:href="#d"/>
<use x="122.341797" xlink:href="#h"/>
<use x="163.439453" xlink:href="#k"/>
<use x="260.851562" xlink:href="#g"/>
<use x="288.634766" xlink:href="#f"/>
<use x="352.013672" xlink:href="#i"/>
<use x="413.292969" xlink:href="#j"/>
</g>
</g>
<path d="m427.72 430.5v35.285q0 2.4 2.4 2.4h7.7425q2.4 0 2.4-2.4v-35.285q0-2.4-2.4-2.4h-7.7425q-2.4 0-2.4 2.4z" clip-path="url(#a)" fill="#fff" stroke="#fff"/>
<g clip-path="url(#a)">
<g transform="translate(431.78 430.5) rotate(90) scale(.08 -.08)">
<use xlink:href="#l"/>
<use x="60.818359" xlink:href="#d"/>
<use x="122.341797" xlink:href="#h"/>
<use x="163.439453" xlink:href="#k"/>
<use x="260.851562" xlink:href="#g"/>
<use x="288.634766" xlink:href="#f"/>
<use x="352.013672" xlink:href="#i"/>
<use x="413.292969" xlink:href="#j"/>
</g>
</g>
<path d="m40.088 430.5v35.285q0 2.4 2.4 2.4h7.7425q2.4 0 2.4-2.4v-35.285q0-2.4-2.4-2.4h-7.7425q-2.4 0-2.4 2.4z" clip-path="url(#a)" fill="#fff" stroke="#fff"/>
<g clip-path="url(#a)">
<g transform="translate(44.151 430.5) rotate(90) scale(.08 -.08)">
<use xlink:href="#l"/>
<use x="60.818359" xlink:href="#d"/>
<use x="122.341797" xlink:href="#h"/>
<use x="163.439453" xlink:href="#k"/>
<use x="260.851562" xlink:href="#g"/>
<use x="288.634766" xlink:href="#f"/>
<use x="352.013672" xlink:href="#i"/>
<use x="413.292969" xlink:href="#j"/>
</g>
</g>
<path d="m88.541 430.5v35.285q0 2.4 2.4 2.4h7.7425q2.4 0 2.4-2.4v-35.285q0-2.4-2.4-2.4h-7.7425q-2.4 0-2.4 2.4z" clip-path="url(#a)" fill="#fff" stroke="#fff"/>
<g clip-path="url(#a)">
<g transform="translate(92.605 430.5) rotate(90) scale(.08 -.08)">
<use xlink:href="#l"/>
<use x="60.818359" xlink:href="#d"/>
<use x="122.341797" xlink:href="#h"/>
<use x="163.439453" xlink:href="#k"/>
<use x="260.851562" xlink:href="#g"/>
<use x="288.634766" xlink:href="#f"/>
<use x="352.013672" xlink:href="#i"/>
<use x="413.292969" xlink:href="#j"/>
</g>
</g>
<path d="m136.99 430.5v35.285q0 2.4 2.4 2.4h7.7425q2.4 0 2.4-2.4v-35.285q0-2.4-2.4-2.4h-7.7425q-2.4 0-2.4 2.4z" clip-path="url(#a)" fill="#fff" stroke="#fff"/>
<g clip-path="url(#a)">
<g transform="translate(141.06 430.5) rotate(90) scale(.08 -.08)">
<use xlink:href="#l"/>
<use x="60.818359" xlink:href="#d"/>
<use x="122.341797" xlink:href="#h"/>
<use x="163.439453" xlink:href="#k"/>
<use x="260.851562" xlink:href="#g"/>
<use x="288.634766" xlink:href="#f"/>
<use x="352.013672" xlink:href="#i"/>
<use x="413.292969" xlink:href="#j"/>
</g>
</g>
<path d="m377.1 94.995 8.9208-4.3674q2.1555-1.0553 1.1002-3.2108l-3.4044-6.9539q-1.0553-2.1555-3.2108-1.1002l-8.9208 4.3674q-2.1555 1.0553-1.1002 3.2108l3.4044 6.9539q1.0553 2.1555 3.2108 1.1002z" clip-path="url(#a)" fill="#fff" stroke="#fff"/>
<g clip-path="url(#a)">
<g transform="translate(375.31 91.345) rotate(-26.085) scale(.08 -.08)">
<use xlink:href="#u"/>
<use x="55.744141" xlink:href="#o"/>
</g>
</g>
<path d="m511.09 202.57 0.72608 9.9899q0.17398 2.3937 2.5677 2.2197l7.7221-0.56126q2.3937-0.17398 2.2197-2.5677l-0.72608-9.9899q-0.17398-2.3937-2.5677-2.2197l-7.7221 0.56126q-2.3937 0.17398-2.2197 2.5677z" clip-path="url(#a)" fill="#fff" stroke="#fff"/>
<g clip-path="url(#a)">
<defs>
<path id="ak" d="m44.391 34.188q3.1719-1.0781 6.1719-4.5938t6.0312-9.6719l10.016-19.922h-10.609l-9.3125 18.703q-3.625 7.3281-7.0156 9.7188t-9.25 2.3906h-10.75v-30.812h-9.8594v72.906h22.266q12.5 0 18.656-5.2344 6.1562-5.2188 6.1562-15.766 0-6.8906-3.2031-11.438-3.2031-4.5312-9.2969-6.2812zm-24.719 30.609v-25.875h12.406q7.125 0 10.766 3.2969t3.6406 9.6875-3.6406 9.6406-10.766 3.25z"/>
</defs>
<g transform="translate(515.14 202.28) rotate(85.843) scale(.08 -.08)">
<use xlink:href="#u"/>
<use x="55.712891" xlink:href="#ak"/>
</g>
</g>
<path d="m609.67 90.298 8.7142 4.7663q2.1056 1.1517 3.2573-0.95392l3.7154-6.7928q1.1517-2.1056-0.95392-3.2573l-8.7142-4.7663q-2.1056-1.1517-3.2573 0.95392l-3.7154 6.7928q-1.1517 2.1056 0.95392 3.2573z" clip-path="url(#a)" fill="#fff" stroke="#fff"/>
<g clip-path="url(#a)">
<g transform="translate(611.62 86.733) rotate(28.677) scale(.08 -.08)">
<use xlink:href="#u"/>
<use x="55.744141" xlink:href="#o"/>
</g>
</g>
<path d="m282.35 430.5v35.285q0 2.4 2.4 2.4h7.7425q2.4 0 2.4-2.4v-35.285q0-2.4-2.4-2.4h-7.7425q-2.4 0-2.4 2.4z" clip-path="url(#a)" fill="#fff" stroke="#fff"/>
<g clip-path="url(#a)">
<g transform="translate(286.42 430.5) rotate(90) scale(.08 -.08)">
<use xlink:href="#l"/>
<use x="60.818359" xlink:href="#d"/>
<use x="122.341797" xlink:href="#h"/>
<use x="163.439453" xlink:href="#k"/>
<use x="260.851562" xlink:href="#g"/>
<use x="288.634766" xlink:href="#f"/>
<use x="352.013672" xlink:href="#i"/>
<use x="413.292969" xlink:href="#j"/>
</g>
</g>
<path d="m476.17 430.5v35.285q0 2.4 2.4 2.4h7.7425q2.4 0 2.4-2.4v-35.285q0-2.4-2.4-2.4h-7.7425q-2.4 0-2.4 2.4z" clip-path="url(#a)" fill="#fff" stroke="#fff"/>
<g clip-path="url(#a)">
<g transform="translate(480.23 430.5) rotate(90) scale(.08 -.08)">
<use xlink:href="#l"/>
<use x="60.818359" xlink:href="#d"/>
<use x="122.341797" xlink:href="#h"/>
<use x="163.439453" xlink:href="#k"/>
<use x="260.851562" xlink:href="#g"/>
<use x="288.634766" xlink:href="#f"/>
<use x="352.013672" xlink:href="#i"/>
<use x="413.292969" xlink:href="#j"/>
</g>
</g>
<path d="m669.98 430.5v35.285q0 2.4 2.4 2.4h7.7425q2.4 0 2.4-2.4v-35.285q0-2.4-2.4-2.4h-7.7425q-2.4 0-2.4 2.4z" clip-path="url(#a)" fill="#fff" stroke="#fff"/>
<g clip-path="url(#a)">
<g transform="translate(674.05 430.5) rotate(90) scale(.08 -.08)">
<use xlink:href="#l"/>
<use x="60.818359" xlink:href="#d"/>
<use x="122.341797" xlink:href="#h"/>
<use x="163.439453" xlink:href="#k"/>
<use x="260.851562" xlink:href="#g"/>
<use x="288.634766" xlink:href="#f"/>
<use x="352.013672" xlink:href="#i"/>
<use x="413.292969" xlink:href="#j"/>
</g>
</g>
<path d="m960.7 430.5v35.285q0 2.4 2.4 2.4h7.7425q2.4 0 2.4-2.4v-35.285q0-2.4-2.4-2.4h-7.7425q-2.4 0-2.4 2.4z" clip-path="url(#a)" fill="#fff" stroke="#fff"/>
<g clip-path="url(#a)">
<g transform="translate(964.77 430.5) rotate(90) scale(.08 -.08)">
<use xlink:href="#l"/>
<use x="60.818359" xlink:href="#d"/>
<use x="122.341797" xlink:href="#h"/>
<use x="163.439453" xlink:href="#k"/>
<use x="260.851562" xlink:href="#g"/>
<use x="288.634766" xlink:href="#f"/>
<use x="352.013672" xlink:href="#i"/>
<use x="413.292969" xlink:href="#j"/>
</g>
</g>
<defs>
<path id="b" d="m0 8.6603c2.2967 0 4.4997-0.9125 6.1237-2.5365 1.624-1.624 2.5365-3.827 2.5365-6.1237s-0.9125-4.4997-2.5365-6.1237c-1.624-1.624-3.827-2.5365-6.1237-2.5365s-4.4997 0.9125-6.1237 2.5365c-1.624 1.624-2.5365 3.827-2.5365 6.1237s0.9125 4.4997 2.5365 6.1237c1.624 1.624 3.827 2.5365 6.1237 2.5365z"/>
</defs>
<g clip-path="url(#a)">
<use x="46.358757" y="507.698399" fill="#ffffff" stroke="#ffffff" xlink:href="#b"/>
</g>
<g clip-path="url(#a)">
<use x="94.812221" y="507.698399" fill="#ffffff" stroke="#ffffff" xlink:href="#b"/>
</g>
<g clip-path="url(#a)">
<use x="143.265685" y="507.698399" fill="#ffffff" stroke="#ffffff" xlink:href="#b"/>
</g>
<g clip-path="url(#a)">
<use x="191.719149" y="507.698399" fill="#ffffff" stroke="#ffffff" xlink:href="#b"/>
</g>
<g clip-path="url(#a)">
<use x="240.172613" y="507.698399" fill="#ffffff" stroke="#ffffff" xlink:href="#b"/>
</g>
<g clip-path="url(#a)">
<use x="288.626078" y="507.698399" fill="#ffffff" stroke="#ffffff" xlink:href="#b"/>
</g>
<g clip-path="url(#a)">
<use x="337.079542" y="507.698399" fill="#ffffff" stroke="#ffffff" xlink:href="#b"/>
</g>
<g clip-path="url(#a)">
<use x="385.533006" y="507.698399" fill="#ffffff" stroke="#ffffff" xlink:href="#b"/>
</g>
<g clip-path="url(#a)">
<use x="433.98647" y="507.698399" fill="#ffffff" stroke="#ffffff" xlink:href="#b"/>
</g>
<g clip-path="url(#a)">
<use x="482.439935" y="507.698399" fill="#ffffff" stroke="#ffffff" xlink:href="#b"/>
</g>
<g clip-path="url(#a)">
<use x="530.893399" y="507.698399" fill="#ffffff" stroke="#ffffff" xlink:href="#b"/>
</g>
<g clip-path="url(#a)">
<use x="579.346863" y="507.698399" fill="#ffffff" stroke="#ffffff" xlink:href="#b"/>
</g>
<g clip-path="url(#a)">
<use x="627.800327" y="507.698399" fill="#ffffff" stroke="#ffffff" xlink:href="#b"/>
</g>
<g clip-path="url(#a)">
<use x="676.253791" y="507.698399" fill="#ffffff" stroke="#ffffff" xlink:href="#b"/>
</g>
<g clip-path="url(#a)">
<use x="724.707256" y="507.698399" fill="#ffffff" stroke="#ffffff" xlink:href="#b"/>
</g>
<g clip-path="url(#a)">
<use x="773.16072" y="507.698399" fill="#ffffff" stroke="#ffffff" xlink:href="#b"/>
</g>
<g clip-path="url(#a)">
<use x="821.614184" y="507.698399" fill="#ffffff" stroke="#ffffff" xlink:href="#b"/>
</g>
<g clip-path="url(#a)">
<use x="870.067648" y="507.698399" fill="#ffffff" stroke="#ffffff" xlink:href="#b"/>
</g>
<g clip-path="url(#a)">
<use x="918.521112" y="507.698399" fill="#ffffff" stroke="#ffffff" xlink:href="#b"/>
</g>
<g clip-path="url(#a)">
<use x="966.974577" y="507.698399" fill="#ffffff" stroke="#ffffff" xlink:href="#b"/>
</g>
<g clip-path="url(#a)">
<use x="498.994868" y="25.634934" fill="#ffffff" stroke="#ffffff" xlink:href="#b"/>
</g>
<g clip-path="url(#a)">
<use x="253.093537" y="148.723285" fill="#ffffff" stroke="#ffffff" xlink:href="#b"/>
</g>
<g clip-path="url(#a)">
<use x="530.893399" y="388.592327" fill="#ffffff" stroke="#ffffff" xlink:href="#b"/>
</g>
<g clip-path="url(#a)">
<use x="729.552602" y="148.723285" fill="#ffffff" stroke="#ffffff" xlink:href="#b"/>
</g>
<g clip-path="url(#a)">
<use x="579.346863" y="388.592327" fill="#ffffff" stroke="#ffffff" xlink:href="#b"/>
</g>
<g clip-path="url(#a)">
<use x="821.614184" y="269.486254" fill="#ffffff" stroke="#ffffff" xlink:href="#b"/>
</g>
<g clip-path="url(#a)">
<use x="724.707256" y="388.592327" fill="#ffffff" stroke="#ffffff" xlink:href="#b"/>
</g>
<g clip-path="url(#a)">
<use x="845.840916" y="269.486254" fill="#ffffff" stroke="#ffffff" xlink:href="#b"/>
</g>
<g clip-path="url(#a)">
<use x="821.614184" y="388.592327" fill="#ffffff" stroke="#ffffff" xlink:href="#b"/>
</g>
<g clip-path="url(#a)">
<use x="870.067648" y="388.592327" fill="#ffffff" stroke="#ffffff" xlink:href="#b"/>
</g>
<g clip-path="url(#a)">
<use x="627.800327" y="388.592327" fill="#ffffff" stroke="#ffffff" xlink:href="#b"/>
</g>
<g clip-path="url(#a)">
<use x="773.16072" y="388.592327" fill="#ffffff" stroke="#ffffff" xlink:href="#b"/>
</g>
<g clip-path="url(#a)">
<use x="918.521112" y="388.592327" fill="#ffffff" stroke="#ffffff" xlink:href="#b"/>
</g>
<g clip-path="url(#a)">
<use x="94.812221" y="269.486254" fill="#ffffff" stroke="#ffffff" xlink:href="#b"/>
</g>
<g clip-path="url(#a)">
<use x="191.719149" y="388.592327" fill="#ffffff" stroke="#ffffff" xlink:href="#b"/>
</g>
<g clip-path="url(#a)">
<use x="353.230697" y="269.486254" fill="#ffffff" stroke="#ffffff" xlink:href="#b"/>
</g>
<g clip-path="url(#a)">
<use x="337.079542" y="388.592327" fill="#ffffff" stroke="#ffffff" xlink:href="#b"/>
</g>
<g clip-path="url(#a)">
<use x="240.172613" y="388.592327" fill="#ffffff" stroke="#ffffff" xlink:href="#b"/>
</g>
<g clip-path="url(#a)">
<use x="385.533006" y="388.592327" fill="#ffffff" stroke="#ffffff" xlink:href="#b"/>
</g>
<g clip-path="url(#a)">
<use x="433.98647" y="388.592327" fill="#ffffff" stroke="#ffffff" xlink:href="#b"/>
</g>
<g clip-path="url(#a)">
<use x="46.358757" y="388.592327" fill="#ffffff" stroke="#ffffff" xlink:href="#b"/>
</g>
<g clip-path="url(#a)">
<use x="94.812221" y="388.592327" fill="#ffffff" stroke="#ffffff" xlink:href="#b"/>
</g>
<g clip-path="url(#a)">
<use x="143.265685" y="388.592327" fill="#ffffff" stroke="#ffffff" xlink:href="#b"/>
</g>
<g clip-path="url(#a)">
<use x="504.513179" y="25.634934" fill="#808080" stroke="#808080" xlink:href="#b"/>
</g>
<g clip-path="url(#a)">
<use x="288.626078" y="388.592327" fill="#ffffff" stroke="#ffffff" xlink:href="#b"/>
</g>
<g clip-path="url(#a)">
<use x="482.439935" y="388.592327" fill="#ffffff" stroke="#ffffff" xlink:href="#b"/>
</g>
<g clip-path="url(#a)">
<use x="676.253791" y="388.592327" fill="#ffffff" stroke="#ffffff" xlink:href="#b"/>
</g>
<g clip-path="url(#a)">
<use x="966.974577" y="388.592327" fill="#ffffff" stroke="#ffffff" xlink:href="#b"/>
</g>
<g clip-path="url(#a)">
<defs>
<path id="al" d="m39.406 66.219q-10.75 0-17.078-8.0156-6.3125-8-6.3125-21.828 0-13.766 6.3125-21.781 6.3281-8 17.078-8 10.734 0 17.016 8 6.2812 8.0156 6.2812 21.781 0 13.828-6.2812 21.828-6.2812 8.0156-17.016 8.0156zm0 8q15.328 0 24.5-10.281 9.1875-10.281 9.1875-27.562 0-17.234-9.1875-27.516-9.1719-10.281-24.5-10.281-15.375 0-24.594 10.25-9.2031 10.266-9.2031 27.547t9.2031 27.562q9.2188 10.281 24.594 10.281z"/>
<path id="ap" d="m8.5 21.578v33.109h8.9844v-32.766q0-7.7656 3.0156-11.656 3.0312-3.875 9.0938-3.875 7.2656 0 11.484 4.6406 4.2344 4.6406 4.2344 12.656v31h8.9844v-54.688h-8.9844v8.4062q-3.2656-4.9844-7.5938-7.4062-4.3125-2.4219-10.031-2.4219-9.4219 0-14.312 5.8594-4.875 5.8594-4.875 17.141zm22.609 34.422m-7.1875 23.984 13.766-18.266h-7.4688l-15.922 18.266z"/>
</defs>
<g transform="translate(39.254 510.46) scale(.1 -.1)">
<use xlink:href="#al"/>
<use x="78.710938" xlink:href="#ap"/>
</g>
</g>
<g clip-path="url(#a)">
<defs>
<path id="n" d="m18.312 70.219v-15.531h18.5v-6.9844h-18.5v-29.688q0-6.6875 1.8281-8.5938t7.4531-1.9062h9.2188v-7.5156h-9.2188q-10.406 0-14.359 3.875-3.9531 3.8906-3.9531 14.141v29.688h-6.5938v6.9844h6.5938v15.531z"/>
</defs>
<g transform="translate(89.776 510.46) scale(.1 -.1)">
<use xlink:href="#d"/>
<use x="61.523438" xlink:href="#n"/>
</g>
</g>
<g clip-path="url(#a)">
<defs>
<path id="ar" d="m14.797 27.297q0-9.9062 4.0781-15.547t11.203-5.6406 11.219 5.6406q4.1094 5.6406 4.1094 15.547t-4.1094 15.547q-4.0938 5.6406-11.219 5.6406t-11.203-5.6406-4.0781-15.547zm30.609-19.094q-2.8281-4.875-7.1562-7.25-4.3125-2.375-10.375-2.375-9.9062 0-16.141 7.9062-6.2188 7.9219-6.2188 20.812t6.2188 20.797q6.2344 7.9062 16.141 7.9062 6.0625 0 10.375-2.375 4.3281-2.3594 7.1562-7.2344v8.2969h8.9844v-75.484h-8.9844z"/>
<path id="p" d="m8.5 21.578v33.109h8.9844v-32.766q0-7.7656 3.0156-11.656 3.0312-3.875 9.0938-3.875 7.2656 0 11.484 4.6406 4.2344 4.6406 4.2344 12.656v31h8.9844v-54.688h-8.9844v8.4062q-3.2656-4.9844-7.5938-7.4062-4.3125-2.4219-10.031-2.4219-9.4219 0-14.312 5.8594-4.875 5.8594-4.875 17.141z"/>
<path id="at" d="m45.406 46.391v29.594h8.9844v-75.984h-8.9844v8.2031q-2.8281-4.875-7.1562-7.25-4.3125-2.375-10.375-2.375-9.9062 0-16.141 7.9062-6.2188 7.9219-6.2188 20.812t6.2188 20.797q6.2344 7.9062 16.141 7.9062 6.0625 0 10.375-2.375 4.3281-2.3594 7.1562-7.2344zm-30.609-19.094q0-9.9062 4.0781-15.547t11.203-5.6406 11.219 5.6406q4.1094 5.6406 4.1094 15.547t-4.1094 15.547q-4.0938 5.6406-11.219 5.6406t-11.203-5.6406-4.0781-15.547z"/>
</defs>
<g transform="translate(127.52 510.46) scale(.1 -.1)">
<use xlink:href="#ar"/>
<use x="63.476562" xlink:href="#p"/>
<use x="126.855469" xlink:href="#i"/>
<use x="188.134766" xlink:href="#f"/>
<use x="251.513672" xlink:href="#at"/>
</g>
</g>
<g clip-path="url(#a)">
<defs>
<path id="aj" d="m8.2969 72.906 25.391-82.188h-8.2969l-25.391 82.188z"/>
<path id="m" d="m19.188 8.2969h34.422v-8.2969h-46.281v8.2969q5.6094 5.8125 15.297 15.594 9.7031 9.7969 12.188 12.641 4.7344 5.3125 6.6094 9 1.8906 3.6875 1.8906 7.25 0 5.8125-4.0781 9.4688-4.0781 3.6719-10.625 3.6719-4.6406 0-9.7969-1.6094-5.1406-1.6094-11-4.8906v9.9688q5.9531 2.3906 11.125 3.6094 5.1875 1.2188 9.4844 1.2188 11.328 0 18.062-5.6719 6.7344-5.6562 6.7344-15.125 0-4.5-1.6875-8.5312-1.6719-4.0156-6.125-9.4844-1.2188-1.4219-7.7656-8.1875-6.5312-6.7656-18.453-18.922z"/>
<path id="ac" d="m31.781 66.406q-7.6094 0-11.453-7.5-3.8281-7.4844-3.8281-22.531 0-14.984 3.8281-22.484 3.8438-7.5 11.453-7.5 7.6719 0 11.5 7.5 3.8438 7.5 3.8438 22.484 0 15.047-3.8438 22.531-3.8281 7.5-11.5 7.5zm0 7.8125q12.266 0 18.734-9.7031 6.4688-9.6875 6.4688-28.141 0-18.406-6.4688-28.109-6.4688-9.6875-18.734-9.6875-12.25 0-18.719 9.6875-6.4688 9.7031-6.4688 28.109 0 18.453 6.4688 28.141 6.4688 9.7031 18.719 9.7031z"/>
<path id="c" d="m12.406 8.2969h16.109v55.625l-17.531-3.5156v8.9844l17.438 3.5156h9.8594v-64.609h16.109v-8.2969h-41.984z"/>
<path id="x" d="m10.984 1.5156v8.9844q3.7188-1.7656 7.5156-2.6875 3.8125-0.92188 7.4844-0.92188 9.7656 0 14.906 6.5625 5.1562 6.5625 5.8906 19.953-2.8281-4.2031-7.1875-6.4531-4.3438-2.25-9.6094-2.25-10.938 0-17.312 6.6094-6.375 6.625-6.375 18.109 0 11.219 6.6406 18 6.6406 6.7969 17.672 6.7969 12.656 0 19.312-9.7031 6.6719-9.6875 6.6719-28.141 0-17.234-8.1875-27.516-8.1719-10.281-21.984-10.281-3.7188 0-7.5312 0.73438-3.7969 0.73438-7.9062 2.2031zm19.625 30.906q6.6406 0 10.516 4.5312 3.8906 4.5469 3.8906 12.469 0 7.8594-3.8906 12.422-3.875 4.5625-10.516 4.5625t-10.516-4.5625-3.875-12.422q0-7.9219 3.875-12.469 3.875-4.5312 10.516-4.5312z"/>
</defs>
<g transform="translate(172.75 510.46) scale(.1 -.1)">
<use xlink:href="#j"/>
<use x="27.783203" xlink:href="#aj"/>
<use x="61.474609" xlink:href="#p"/>
<use x="124.853516" xlink:href="#m"/>
<use x="188.476562" xlink:href="#ac"/>
<use x="252.099609" xlink:href="#c"/>
<use x="315.722656" xlink:href="#x"/>
</g>
</g>
<g clip-path="url(#a)">
<g transform="translate(231.97 510.46) scale(.1 -.1)">
<use xlink:href="#d"/>
<use x="61.523438" xlink:href="#p"/>
<use x="124.902344" xlink:href="#n"/>
</g>
</g>
<g clip-path="url(#a)">
<defs>
<path id="ai" d="m4.8906 31.391h26.312v-8h-26.312z"/>
</defs>
<g transform="translate(286.82 510.46) scale(.1 -.1)">
<use xlink:href="#ai"/>
</g>
</g>
<g clip-path="url(#a)">
<g transform="translate(334.3 510.46) scale(.1 -.1)">
<use xlink:href="#g"/>
<use x="27.783203" xlink:href="#j"/>
</g>
</g>
<g clip-path="url(#a)">
<defs>
<path id="as" d="m37.109 75.984v-7.4844h-8.5938q-4.8281 0-6.7188-1.9531-1.875-1.9531-1.875-7.0312v-4.8281h14.797v-6.9844h-14.797v-47.703h-9.0312v47.703h-8.5938v6.9844h8.5938v3.8125q0 9.125 4.25 13.297 4.25 4.1875 13.469 4.1875z"/>
</defs>
<g transform="translate(377.36 510.46) scale(.1 -.1)">
<use xlink:href="#as"/>
<use x="35.205078" xlink:href="#i"/>
<use x="96.484375" xlink:href="#g"/>
<use x="124.267578" xlink:href="#n"/>
</g>
</g>
<g clip-path="url(#a)">
<defs>
<path id="q" d="m48.781 52.594v-8.4062q-3.8125 2.1094-7.6406 3.1562t-7.7344 1.0469q-8.75 0-13.594-5.5469-4.8281-5.5312-4.8281-15.547t4.8281-15.562q4.8438-5.5312 13.594-5.5312 3.9062 0 7.7344 1.0469t7.6406 3.1562v-8.3125q-3.7656-1.75-7.7969-2.625-4.0156-0.89062-8.5625-0.89062-12.359 0-19.641 7.7656-7.2656 7.7656-7.2656 20.953 0 13.375 7.3438 21.031 7.3594 7.6719 20.156 7.6719 4.1406 0 8.0938-0.85938 3.9531-0.84375 7.6719-2.5469z"/>
<path id="v" d="m30.609 48.391q-7.2188 0-11.422-5.6406t-4.2031-15.453 4.1719-15.453q4.1875-5.6406 11.453-5.6406 7.1875 0 11.375 5.6562 4.2031 5.6719 4.2031 15.438 0 9.7188-4.2031 15.406-4.1875 5.6875-11.375 5.6875zm0 7.6094q11.719 0 18.406-7.625 6.7031-7.6094 6.7031-21.078 0-13.422-6.7031-21.078-6.6875-7.6406-18.406-7.6406-11.766 0-18.438 7.6406-6.6562 7.6562-6.6562 21.078 0 13.469 6.6562 21.078 6.6719 7.625 18.438 7.625z"/>
<path id="ad" d="m44.281 53.078v-8.5q-3.7969 1.9531-7.9062 2.9219-4.0938 0.98438-8.5 0.98438-6.6875 0-10.031-2.0469t-3.3438-6.1562q0-3.125 2.3906-4.9062t9.625-3.3906l3.0781-0.6875q9.5625-2.0469 13.594-5.7812t4.0312-10.422q0-7.625-6.0312-12.078-6.0312-4.4375-16.578-4.4375-4.3906 0-9.1562 0.85938t-10.031 2.5625v9.2812q4.9844-2.5938 9.8125-3.8906 4.8281-1.2812 9.5781-1.2812 6.3438 0 9.75 2.1719 3.4219 2.1719 3.4219 6.125 0 3.6562-2.4688 5.6094-2.4531 1.9531-10.812 3.7656l-3.125 0.73438q-8.3438 1.75-12.062 5.3906-3.7031 3.6406-3.7031 9.9844 0 7.7188 5.4688 11.906 5.4688 4.2031 15.531 4.2031 4.9688 0 9.3594-0.73438 4.4062-0.71875 8.1094-2.1875z"/>
</defs>
<g transform="translate(408.7 510.46) scale(.1 -.1)">
<use xlink:href="#q"/>
<use x="54.980469" xlink:href="#v"/>
<use x="116.162109" xlink:href="#f"/>
<use x="179.541016" xlink:href="#ad"/>
<use x="231.640625" xlink:href="#n"/>
<use x="270.849609" xlink:href="#h"/>
<use x="311.962891" xlink:href="#p"/>
<use x="375.341797" xlink:href="#g"/>
<use x="403.125" xlink:href="#h"/>
<use x="444.207031" xlink:href="#d"/>
</g>
</g>
<g clip-path="url(#a)">
<defs>
<path id="ao" d="m11.719 12.406h10.297v-8.4062l-8-15.625h-6.2969l4 15.625z"/>
</defs>
<g transform="translate(480.85 510.46) scale(.1 -.1)">
<use xlink:href="#ao"/>
</g>
</g>
<g clip-path="url(#a)">
<g transform="translate(525.86 510.46) scale(.1 -.1)">
<use xlink:href="#d"/>
<use x="61.523438" xlink:href="#n"/>
</g>
</g>
<g clip-path="url(#a)">
<g transform="translate(555.59 510.46) scale(.1 -.1)">
<use xlink:href="#q"/>
<use x="54.980469" xlink:href="#v"/>
<use x="116.162109" xlink:href="#k"/>
<use x="213.574219" xlink:href="#k"/>
<use x="310.986328" xlink:href="#d"/>
<use x="372.509766" xlink:href="#f"/>
<use x="435.888672" xlink:href="#n"/>
</g>
</g>
<g clip-path="url(#a)">
<g transform="translate(613.1 510.46) scale(.1 -.1)">
<use xlink:href="#i"/>
<use x="61.279297" xlink:href="#p"/>
<use x="124.658203" xlink:href="#h"/>
<use x="165.771484" xlink:href="#i"/>
<use x="227.050781" xlink:href="#g"/>
<use x="254.833984" xlink:href="#n"/>
</g>
</g>
<g clip-path="url(#a)">
<g transform="translate(674.45 510.46) scale(.1 -.1)">
<use xlink:href="#ai"/>
</g>
</g>
<g clip-path="url(#a)">
<g transform="translate(721.93 510.46) scale(.1 -.1)">
<use xlink:href="#g"/>
<use x="27.783203" xlink:href="#j"/>
</g>
</g>
<g clip-path="url(#a)">
<g transform="translate(761.79 510.46) scale(.1 -.1)">
<use xlink:href="#n"/>
<use x="39.208984" xlink:href="#d"/>
<use x="100.732422" xlink:href="#f"/>
<use x="164.111328" xlink:href="#p"/>
</g>
</g>
<g clip-path="url(#a)">
<g transform="translate(808.79 510.46) scale(.1 -.1)">
<use xlink:href="#q"/>
<use x="54.980469" xlink:href="#d"/>
<use x="116.503906" xlink:href="#n"/>
<use x="155.712891" xlink:href="#n"/>
<use x="194.921875" xlink:href="#d"/>
</g>
</g>
<g clip-path="url(#a)">
<g transform="translate(838.97 510.46) scale(.1 -.1)">
<use xlink:href="#q"/>
<use x="54.980469" xlink:href="#v"/>
<use x="116.162109" xlink:href="#f"/>
<use x="179.541016" xlink:href="#ad"/>
<use x="231.640625" xlink:href="#n"/>
<use x="270.849609" xlink:href="#h"/>
<use x="311.962891" xlink:href="#p"/>
<use x="375.341797" xlink:href="#q"/>
<use x="430.322266" xlink:href="#n"/>
<use x="469.53125" xlink:href="#g"/>
<use x="497.314453" xlink:href="#v"/>
<use x="558.496094" xlink:href="#f"/>
</g>
</g>
<g clip-path="url(#a)">
<defs>
<path id="aq" d="m56.203 29.594v-4.3906h-41.312q0.59375-9.2812 5.5938-14.141t13.938-4.8594q5.1719 0 10.031 1.2656t9.6562 3.8125v-8.5q-4.8438-2.0469-9.9219-3.125t-10.297-1.0781q-13.094 0-20.734 7.6094-7.6406 7.625-7.6406 20.625 0 13.422 7.25 21.297 7.25 7.8906 19.562 7.8906 11.031 0 17.453-7.1094 6.4219-7.0938 6.4219-19.297zm-8.9844 2.6406q-0.09375 7.3594-4.125 11.75-4.0312 4.4062-10.672 4.4062-7.5156 0-12.031-4.25t-5.2031-11.969zm-22.547 47.75 13.766-18.266h-7.4688l-15.922 18.266z"/>
</defs>
<g transform="translate(899.92 510.46) scale(.1 -.1)">
<use xlink:href="#ad"/>
<use x="52.099609" xlink:href="#d"/>
<use x="113.623047" xlink:href="#q"/>
<use x="168.603516" xlink:href="#h"/>
<use x="209.685547" xlink:href="#aq"/>
<use x="271.208984" xlink:href="#n"/>
<use x="310.417969" xlink:href="#d"/>
</g>
</g>
<g clip-path="url(#a)">
<defs>
<path id="an" d="m19.094 12.406h9.9062v-12.406h-9.9062zm9.625 7.1719h-9.3281v7.5156q0 4.9375 1.3594 8.1094 1.375 3.1719 5.7656 7.375l4.3906 4.3438q2.7812 2.5938 4.0312 4.8906t1.25 4.6875q0 4.3438-3.2031 7.0312t-8.4688 2.6875q-3.8594 0-8.2344-1.7188-4.3594-1.7031-9.1094-4.9844v9.1875q4.5938 2.7812 9.2969 4.1406 4.7188 1.375 9.75 1.375 8.9844 0 14.422-4.7344 5.4531-4.7344 5.4531-12.5 0-3.7188-1.7656-7.0625-1.75-3.3438-6.1406-7.5312l-4.2969-4.2031q-2.2969-2.2969-3.25-3.5938t-1.3438-2.5156q-0.29688-1.0156-0.4375-2.4844t-0.14062-4z"/>
</defs>
<g transform="translate(964.32 510.46) scale(.1 -.1)">
<use xlink:href="#an"/>
</g>
</g>
<g clip-path="url(#a)">
<defs>
<path id="e" d="m10.688 12.406h10.312v-12.406h-10.312z"/>
</defs>
<g transform="translate(491.04 28.394) scale(.1 -.1)">
<use xlink:href="#c"/>
<use x="63.623047" xlink:href="#e"/>
<use x="95.410156" xlink:href="#c"/>
</g>
</g>
<g clip-path="url(#a)">
<g transform="translate(245.14 151.48) scale(.1 -.1)">
<use xlink:href="#c"/>
<use x="63.623047" xlink:href="#e"/>
<use x="95.410156" xlink:href="#m"/>
</g>
</g>
<g clip-path="url(#a)">
<defs>
<path id="ab" d="m37.797 64.312-24.906-38.922h24.906zm-2.5938 8.5938h12.406v-47.516h10.406v-8.2031h-10.406v-17.188h-9.8125v17.188h-32.906v9.5156z"/>
</defs>
<g transform="translate(522.94 391.35) scale(.1 -.1)">
<use xlink:href="#c"/>
<use x="63.623047" xlink:href="#e"/>
<use x="95.410156" xlink:href="#ab"/>
</g>
</g>
<g clip-path="url(#a)">
<defs>
<path id="aa" d="m10.797 72.906h38.719v-8.3125h-29.688v-17.859q2.1406 0.73438 4.2812 1.0938 2.1562 0.35938 4.3125 0.35938 12.203 0 19.328-6.6875 7.1406-6.6875 7.1406-18.109 0-11.766-7.3281-18.297-7.3281-6.5156-20.656-6.5156-4.5938 0-9.3594 0.78125-4.75 0.78125-9.8281 2.3438v9.9219q4.3906-2.3906 9.0781-3.5625t9.9062-1.1719q8.4531 0 13.375 4.4375 4.9375 4.4375 4.9375 12.062 0 7.6094-4.9375 12.047-4.9219 4.4531-13.375 4.4531-3.9531 0-7.8906-0.875-3.9219-0.875-8.0156-2.7344z"/>
</defs>
<g transform="translate(721.6 151.48) scale(.1 -.1)">
<use xlink:href="#c"/>
<use x="63.623047" xlink:href="#e"/>
<use x="95.410156" xlink:href="#aa"/>
</g>
</g>
<g clip-path="url(#a)">
<defs>
<path id="z" d="m8.2031 72.906h46.875v-4.2031l-26.469-68.703h-10.297l24.906 64.594h-35.016z"/>
</defs>
<g transform="translate(571.4 391.35) scale(.1 -.1)">
<use xlink:href="#c"/>
<use x="63.623047" xlink:href="#e"/>
<use x="95.410156" xlink:href="#z"/>
</g>
</g>
<g clip-path="url(#a)">
<defs>
<path id="y" d="m31.781 34.625q-7.0312 0-11.062-3.7656-4.0156-3.7656-4.0156-10.344 0-6.5938 4.0156-10.359 4.0312-3.7656 11.062-3.7656t11.078 3.7812q4.0625 3.7969 4.0625 10.344 0 6.5781-4.0312 10.344-4.0156 3.7656-11.109 3.7656zm-9.8594 4.1875q-6.3438 1.5625-9.8906 5.9062-3.5312 4.3594-3.5312 10.609 0 8.7344 6.2188 13.812 6.2344 5.0781 17.062 5.0781 10.891 0 17.094-5.0781t6.2031-13.812q0-6.25-3.5469-10.609-3.5312-4.3438-9.8281-5.9062 7.125-1.6562 11.094-6.5 3.9844-4.8281 3.9844-11.797 0-10.609-6.4688-16.281-6.4688-5.6562-18.531-5.6562-12.047 0-18.531 5.6562-6.4688 5.6719-6.4688 16.281 0 6.9688 4 11.797 4.0156 4.8438 11.141 6.5zm-3.6094 15.578q0-5.6562 3.5312-8.8281 3.5469-3.1719 9.9375-3.1719 6.3594 0 9.9375 3.1719 3.5938 3.1719 3.5938 8.8281 0 5.6719-3.5938 8.8438-3.5781 3.1719-9.9375 3.1719-6.3906 0-9.9375-3.1719-3.5312-3.1719-3.5312-8.8438z"/>
</defs>
<g transform="translate(813.66 272.25) scale(.1 -.1)">
<use xlink:href="#c"/>
<use x="63.623047" xlink:href="#e"/>
<use x="95.410156" xlink:href="#y"/>
</g>
</g>
<g clip-path="url(#a)">
<g transform="translate(713.57 391.35) scale(.1 -.1)">
<use xlink:href="#c"/>
<use x="63.623047" xlink:href="#e"/>
<use x="95.410156" xlink:href="#c"/>
<use x="159.033203" xlink:href="#ac"/>
</g>
</g>
<g clip-path="url(#a)">
<g transform="translate(834.71 272.25) scale(.1 -.1)">
<use xlink:href="#c"/>
<use x="63.623047" xlink:href="#e"/>
<use x="95.410156" xlink:href="#c"/>
<use x="159.033203" xlink:href="#c"/>
</g>
</g>
<g clip-path="url(#a)">
<g transform="translate(810.48 391.35) scale(.1 -.1)">
<use xlink:href="#c"/>
<use x="63.623047" xlink:href="#e"/>
<use x="95.410156" xlink:href="#c"/>
<use x="159.033203" xlink:href="#m"/>
</g>
</g>
<g clip-path="url(#a)">
<defs>
<path id="s" d="m40.578 39.312q7.0781-1.5156 11.047-6.3125 3.9844-4.7812 3.9844-11.812 0-10.781-7.4219-16.703-7.4219-5.9062-21.094-5.9062-4.5781 0-9.4375 0.90625t-10.031 2.7188v9.5156q4.0938-2.3906 8.9688-3.6094 4.8906-1.2188 10.219-1.2188 9.2656 0 14.125 3.6562t4.8594 10.641q0 6.4531-4.5156 10.078-4.5156 3.6406-12.562 3.6406h-8.5v8.1094h8.8906q7.2656 0 11.125 2.9062t3.8594 8.375q0 5.6094-3.9844 8.6094-3.9688 3.0156-11.391 3.0156-4.0625 0-8.7031-0.89062-4.6406-0.875-10.203-2.7188v8.7812q5.625 1.5625 10.531 2.3438t9.25 0.78125q11.234 0 17.766-5.1094 6.5469-5.0938 6.5469-13.781 0-6.0625-3.4688-10.234t-9.8594-5.7812z"/>
</defs>
<g transform="translate(858.93 391.35) scale(.1 -.1)">
<use xlink:href="#c"/>
<use x="63.623047" xlink:href="#e"/>
<use x="95.410156" xlink:href="#c"/>
<use x="159.033203" xlink:href="#s"/>
</g>
</g>
<g clip-path="url(#a)">
<g transform="translate(616.67 391.35) scale(.1 -.1)">
<use xlink:href="#c"/>
<use x="63.623047" xlink:href="#e"/>
<use x="95.410156" xlink:href="#c"/>
<use x="159.033203" xlink:href="#ab"/>
</g>
</g>
<g clip-path="url(#a)">
<g transform="translate(762.03 391.35) scale(.1 -.1)">
<use xlink:href="#c"/>
<use x="63.623047" xlink:href="#e"/>
<use x="95.410156" xlink:href="#c"/>
<use x="159.033203" xlink:href="#aa"/>
</g>
</g>
<g clip-path="url(#a)">
<defs>
<path id="ah" d="m33.016 40.375q-6.6406 0-10.531-4.5469-3.875-4.5312-3.875-12.438 0-7.8594 3.875-12.438 3.8906-4.5625 10.531-4.5625t10.516 4.5625q3.875 4.5781 3.875 12.438 0 7.9062-3.875 12.438-3.875 4.5469-10.516 4.5469zm19.578 30.922v-8.9844q-3.7188 1.75-7.5 2.6719-3.7812 0.9375-7.5 0.9375-9.7656 0-14.922-6.5938-5.1406-6.5938-5.875-19.922 2.875 4.25 7.2188 6.5156 4.3594 2.2656 9.5781 2.2656 10.984 0 17.359-6.6719 6.375-6.6562 6.375-18.125 0-11.234-6.6406-18.031-6.6406-6.7812-17.672-6.7812-12.656 0-19.344 9.6875-6.6875 9.7031-6.6875 28.109 0 17.281 8.2031 27.562t22.016 10.281q3.7188 0 7.5-0.73438t7.8906-2.1875z"/>
</defs>
<g transform="translate(907.39 391.35) scale(.1 -.1)">
<use xlink:href="#c"/>
<use x="63.623047" xlink:href="#e"/>
<use x="95.410156" xlink:href="#c"/>
<use x="159.033203" xlink:href="#ah"/>
</g>
</g>
<g clip-path="url(#a)">
<g transform="translate(83.679 272.25) scale(.1 -.1)">
<use xlink:href="#c"/>
<use x="63.623047" xlink:href="#e"/>
<use x="95.410156" xlink:href="#c"/>
<use x="159.033203" xlink:href="#z"/>
</g>
</g>
<g clip-path="url(#a)">
<g transform="translate(180.59 391.35) scale(.1 -.1)">
<use xlink:href="#c"/>
<use x="63.623047" xlink:href="#e"/>
<use x="95.410156" xlink:href="#c"/>
<use x="159.033203" xlink:href="#y"/>
</g>
</g>
<g clip-path="url(#a)">
<g transform="translate(342.1 272.25) scale(.1 -.1)">
<use xlink:href="#c"/>
<use x="63.623047" xlink:href="#e"/>
<use x="95.410156" xlink:href="#c"/>
<use x="159.033203" xlink:href="#x"/>
</g>
</g>
<g clip-path="url(#a)">
<g transform="translate(325.95 391.35) scale(.1 -.1)">
<use xlink:href="#c"/>
<use x="63.623047" xlink:href="#e"/>
<use x="95.410156" xlink:href="#m"/>
<use x="159.033203" xlink:href="#c"/>
</g>
</g>
<g clip-path="url(#a)">
<g transform="translate(229.04 391.35) scale(.1 -.1)">
<use xlink:href="#c"/>
<use x="63.623047" xlink:href="#e"/>
<use x="95.410156" xlink:href="#m"/>
<use x="159.033203" xlink:href="#m"/>
</g>
</g>
<g clip-path="url(#a)">
<g transform="translate(374.4 391.35) scale(.1 -.1)">
<use xlink:href="#c"/>
<use x="63.623047" xlink:href="#e"/>
<use x="95.410156" xlink:href="#m"/>
<use x="159.033203" xlink:href="#s"/>
</g>
</g>
<g clip-path="url(#a)">
<g transform="translate(422.85 391.35) scale(.1 -.1)">
<use xlink:href="#c"/>
<use x="63.623047" xlink:href="#e"/>
<use x="95.410156" xlink:href="#m"/>
<use x="159.033203" xlink:href="#ab"/>
</g>
</g>
<g clip-path="url(#a)">
<g transform="translate(35.226 391.35) scale(.1 -.1)">
<use xlink:href="#c"/>
<use x="63.623047" xlink:href="#e"/>
<use x="95.410156" xlink:href="#m"/>
<use x="159.033203" xlink:href="#aa"/>
</g>
</g>
<g clip-path="url(#a)">
<g transform="translate(83.679 391.35) scale(.1 -.1)">
<use xlink:href="#c"/>
<use x="63.623047" xlink:href="#e"/>
<use x="95.410156" xlink:href="#m"/>
<use x="159.033203" xlink:href="#ah"/>
</g>
</g>
<g clip-path="url(#a)">
<g transform="translate(132.13 391.35) scale(.1 -.1)">
<use xlink:href="#c"/>
<use x="63.623047" xlink:href="#e"/>
<use x="95.410156" xlink:href="#m"/>
<use x="159.033203" xlink:href="#z"/>
</g>
</g>
<g clip-path="url(#a)">
<g transform="translate(493.38 28.394) scale(.1 -.1)">
<use xlink:href="#c"/>
<use x="63.623047" xlink:href="#e"/>
<use x="95.410156" xlink:href="#m"/>
<use x="159.033203" xlink:href="#y"/>
</g>
</g>
<g clip-path="url(#a)">
<g transform="translate(277.49 391.35) scale(.1 -.1)">
<use xlink:href="#c"/>
<use x="63.623047" xlink:href="#e"/>
<use x="95.410156" xlink:href="#m"/>
<use x="159.033203" xlink:href="#x"/>
</g>
</g>
<g clip-path="url(#a)">
<g transform="translate(471.31 391.35) scale(.1 -.1)">
<use xlink:href="#c"/>
<use x="63.623047" xlink:href="#e"/>
<use x="95.410156" xlink:href="#s"/>
<use x="159.033203" xlink:href="#ac"/>
</g>
</g>
<g clip-path="url(#a)">
<g transform="translate(665.12 391.35) scale(.1 -.1)">
<use xlink:href="#c"/>
<use x="63.623047" xlink:href="#e"/>
<use x="95.410156" xlink:href="#s"/>
<use x="159.033203" xlink:href="#c"/>
</g>
</g>
<g clip-path="url(#a)">
<g transform="translate(955.84 391.35) scale(.1 -.1)">
<use xlink:href="#c"/>
<use x="63.623047" xlink:href="#e"/>
<use x="95.410156" xlink:href="#s"/>
<use x="159.033203" xlink:href="#m"/>
</g>
</g>
<defs>
<clipPath id="a">
<rect width="1013.3" height="533.33"/>
</clipPath>
</defs>
</svg>
