<?xml version="1.0" encoding="utf-8" standalone="no"?>
<!DOCTYPE svg PUBLIC "-//W3C//DTD SVG 1.1//EN"
  "http://www.w3.org/Graphics/SVG/1.1/DTD/svg11.dtd">
<!-- Created with matplotlib (https://matplotlib.org/) -->
<svg height="373.333333pt" version="1.1" viewBox="0 0 709.333333 373.333333" width="709.333333pt" xmlns="http://www.w3.org/2000/svg" xmlns:xlink="http://www.w3.org/1999/xlink">
 <defs>
  <style type="text/css">
*{stroke-linecap:butt;stroke-linejoin:round;}
  </style>
 </defs>
 <g id="figure_1">
  <g id="patch_1">
   <path d="M 0 373.333333 
L 709.333333 373.333333 
L 709.333333 0 
L 0 0 
z
" style="fill:#ffffff;"/>
  </g>
  <g id="axes_1">
   <g id="LineCollection_1">
    <path clip-path="url(#pf8b87c34b2)" d="M 232.75915 18.358787 
L 32.646811 271.805039 
" style="fill:none;stroke:#000000;"/>
    <path clip-path="url(#pf8b87c34b2)" d="M 232.75915 18.358787 
L 423.670921 104.309044 
" style="fill:none;stroke:#000000;"/>
    <path clip-path="url(#pf8b87c34b2)" d="M 232.75915 18.358787 
L 350.066383 104.309044 
" style="fill:none;stroke:#000000;"/>
    <path clip-path="url(#pf8b87c34b2)" d="M 232.75915 18.358787 
L 124.652484 271.805039 
" style="fill:none;stroke:#000000;"/>
    <path clip-path="url(#pf8b87c34b2)" d="M 32.646811 271.805039 
L 32.646811 354.974546 
" style="fill:none;stroke:#000000;"/>
    <path clip-path="url(#pf8b87c34b2)" d="M 423.670921 104.309044 
L 78.649648 271.805039 
" style="fill:none;stroke:#000000;"/>
    <path clip-path="url(#pf8b87c34b2)" d="M 423.670921 104.309044 
L 354.666667 271.805039 
" style="fill:none;stroke:#000000;"/>
    <path clip-path="url(#pf8b87c34b2)" d="M 423.670921 104.309044 
L 400.669503 271.805039 
" style="fill:none;stroke:#000000;"/>
    <path clip-path="url(#pf8b87c34b2)" d="M 423.670921 104.309044 
L 492.675176 188.635531 
" style="fill:none;stroke:#000000;"/>
    <path clip-path="url(#pf8b87c34b2)" d="M 423.670921 104.309044 
L 584.680849 271.805039 
" style="fill:none;stroke:#000000;"/>
    <path clip-path="url(#pf8b87c34b2)" d="M 423.670921 104.309044 
L 630.683685 271.805039 
" style="fill:none;stroke:#000000;"/>
    <path clip-path="url(#pf8b87c34b2)" d="M 350.066383 104.309044 
L 676.686522 354.974546 
" style="fill:none;stroke:#000000;"/>
    <path clip-path="url(#pf8b87c34b2)" d="M 350.066383 104.309044 
L 170.655321 271.805039 
" style="fill:none;stroke:#000000;"/>
    <path clip-path="url(#pf8b87c34b2)" d="M 350.066383 104.309044 
L 239.659576 188.635531 
" style="fill:none;stroke:#000000;"/>
    <path clip-path="url(#pf8b87c34b2)" d="M 350.066383 104.309044 
L 354.666667 271.805039 
" style="fill:none;stroke:#000000;stroke-dasharray:3.7,1.6;stroke-dashoffset:0;"/>
    <path clip-path="url(#pf8b87c34b2)" d="M 350.066383 104.309044 
L 308.66383 271.805039 
" style="fill:none;stroke:#000000;"/>
    <path clip-path="url(#pf8b87c34b2)" d="M 170.655321 271.805039 
L 170.655321 354.974546 
" style="fill:none;stroke:#000000;"/>
    <path clip-path="url(#pf8b87c34b2)" d="M 239.659576 188.635531 
L 216.658157 271.805039 
" style="fill:none;stroke:#000000;"/>
    <path clip-path="url(#pf8b87c34b2)" d="M 239.659576 188.635531 
L 262.660994 271.805039 
" style="fill:none;stroke:#000000;"/>
    <path clip-path="url(#pf8b87c34b2)" d="M 216.658157 271.805039 
L 216.658157 354.974546 
" style="fill:none;stroke:#000000;"/>
    <path clip-path="url(#pf8b87c34b2)" d="M 262.660994 271.805039 
L 262.660994 354.974546 
" style="fill:none;stroke:#000000;"/>
    <path clip-path="url(#pf8b87c34b2)" d="M 78.649648 271.805039 
L 78.649648 354.974546 
" style="fill:none;stroke:#000000;"/>
    <path clip-path="url(#pf8b87c34b2)" d="M 354.666667 271.805039 
L 354.666667 354.974546 
" style="fill:none;stroke:#000000;"/>
    <path clip-path="url(#pf8b87c34b2)" d="M 400.669503 271.805039 
L 400.669503 354.974546 
" style="fill:none;stroke:#000000;"/>
    <path clip-path="url(#pf8b87c34b2)" d="M 492.675176 188.635531 
L 446.67234 354.974546 
" style="fill:none;stroke:#000000;"/>
    <path clip-path="url(#pf8b87c34b2)" d="M 492.675176 188.635531 
L 538.678013 354.974546 
" style="fill:none;stroke:#000000;"/>
    <path clip-path="url(#pf8b87c34b2)" d="M 492.675176 188.635531 
L 492.675176 271.805039 
" style="fill:none;stroke:#000000;"/>
    <path clip-path="url(#pf8b87c34b2)" d="M 584.680849 271.805039 
L 584.680849 354.974546 
" style="fill:none;stroke:#000000;"/>
    <path clip-path="url(#pf8b87c34b2)" d="M 124.652484 271.805039 
L 124.652484 354.974546 
" style="fill:none;stroke:#000000;"/>
    <path clip-path="url(#pf8b87c34b2)" d="M 228.158866 18.358787 
L 32.646811 271.805039 
" style="fill:none;stroke:#000000;"/>
    <path clip-path="url(#pf8b87c34b2)" d="M 228.158866 18.358787 
L 423.670921 104.309044 
" style="fill:none;stroke:#000000;"/>
    <path clip-path="url(#pf8b87c34b2)" d="M 308.66383 271.805039 
L 308.66383 354.974546 
" style="fill:none;stroke:#000000;"/>
    <path clip-path="url(#pf8b87c34b2)" d="M 492.675176 271.805039 
L 492.675176 354.974546 
" style="fill:none;stroke:#000000;"/>
    <path clip-path="url(#pf8b87c34b2)" d="M 630.683685 271.805039 
L 630.683685 354.974546 
" style="fill:none;stroke:#000000;"/>
   </g>
   <g id="text_1">
    <g id="patch_2">
     <path clip-path="url(#pf8b87c34b2)" d="M 136.243827 150.717364 
L 139.006089 147.218905 
Q 140.493341 145.33527 138.609706 143.848018 
L 132.533022 139.050079 
Q 130.649387 137.562827 129.162135 139.446462 
L 126.399873 142.944921 
Q 124.91262 144.828556 126.796255 146.315808 
L 132.87294 151.113747 
Q 134.756574 152.600999 136.243827 150.717364 
z
" style="fill:#ffffff;stroke:#ffffff;stroke-linejoin:miter;"/>
    </g>
    <g clip-path="url(#pf8b87c34b2)">
     <!-- L -->
     <defs>
      <path d="M 9.8125 72.90625 
L 19.671875 72.90625 
L 19.671875 8.296875 
L 55.171875 8.296875 
L 55.171875 0 
L 9.8125 0 
z
" id="DejaVuSans-76"/>
     </defs>
     <g transform="translate(133.054402 148.199105)rotate(-51.706607)scale(0.08 -0.08)">
      <use xlink:href="#DejaVuSans-76"/>
     </g>
    </g>
   </g>
   <g id="text_2">
    <g id="patch_3">
     <path clip-path="url(#pf8b87c34b2)" d="M 322.897582 65.81745 
L 328.3835 68.287261 
Q 330.57194 69.272517 331.557196 67.084077 
L 334.735674 60.024078 
Q 335.72093 57.835638 333.532489 56.850382 
L 328.046572 54.38057 
Q 325.858131 53.395314 324.872875 55.583754 
L 321.694398 62.643754 
Q 320.709142 64.832194 322.897582 65.81745 
z
" style="fill:#ffffff;stroke:#ffffff;stroke-linejoin:miter;"/>
    </g>
    <g clip-path="url(#pf8b87c34b2)">
     <!-- H -->
     <defs>
      <path d="M 9.8125 72.90625 
L 19.671875 72.90625 
L 19.671875 43.015625 
L 55.515625 43.015625 
L 55.515625 72.90625 
L 65.375 72.90625 
L 65.375 0 
L 55.515625 0 
L 55.515625 34.71875 
L 19.671875 34.71875 
L 19.671875 0 
L 9.8125 0 
z
" id="DejaVuSans-72"/>
     </defs>
     <g transform="translate(324.565846 62.111919)rotate(-335.762282)scale(0.08 -0.08)">
      <use xlink:href="#DejaVuSans-72"/>
     </g>
    </g>
   </g>
   <g id="text_3">
    <g id="patch_4">
     <path clip-path="url(#pf8b87c34b2)" d="M 285.279775 64.61474 
L 290.132789 68.170512 
Q 292.068752 69.588979 293.487219 67.653017 
L 298.063253 61.407521 
Q 299.481721 59.471559 297.545758 58.053092 
L 292.692744 54.497319 
Q 290.756781 53.078852 289.338314 55.014815 
L 284.76228 61.26031 
Q 283.343812 63.196273 285.279775 64.61474 
z
" style="fill:#ffffff;stroke:#ffffff;stroke-linejoin:miter;"/>
    </g>
    <g clip-path="url(#pf8b87c34b2)">
     <!-- H -->
     <g transform="translate(287.681565 61.336712)rotate(-323.770006)scale(0.08 -0.08)">
      <use xlink:href="#DejaVuSans-72"/>
     </g>
    </g>
   </g>
   <g id="text_4">
    <g id="patch_5">
     <path clip-path="url(#pf8b87c34b2)" d="M 183.325635 150.235176 
L 185.622817 144.849641 
Q 186.564446 142.642078 184.356882 141.700449 
L 177.235192 138.662716 
Q 175.027628 137.721087 174.086 139.92865 
L 171.788818 145.314184 
Q 170.847189 147.521748 173.054752 148.463376 
L 180.176443 151.50111 
Q 182.384006 152.442739 183.325635 150.235176 
z
" style="fill:#ffffff;stroke:#ffffff;stroke-linejoin:miter;"/>
    </g>
    <g clip-path="url(#pf8b87c34b2)">
     <!-- U -->
     <defs>
      <path d="M 8.6875 72.90625 
L 18.609375 72.90625 
L 18.609375 28.609375 
Q 18.609375 16.890625 22.84375 11.734375 
Q 27.09375 6.59375 36.625 6.59375 
Q 46.09375 6.59375 50.34375 11.734375 
Q 54.59375 16.890625 54.59375 28.609375 
L 54.59375 72.90625 
L 64.5 72.90625 
L 64.5 27.390625 
Q 64.5 13.140625 57.4375 5.859375 
Q 50.390625 -1.421875 36.625 -1.421875 
Q 22.796875 -1.421875 15.734375 5.859375 
Q 8.6875 13.140625 8.6875 27.390625 
z
" id="DejaVuSans-85"/>
     </defs>
     <g transform="translate(179.587724 148.640782)rotate(-66.899488)scale(0.08 -0.08)">
      <use xlink:href="#DejaVuSans-85"/>
     </g>
    </g>
   </g>
   <g id="text_5">
    <g id="patch_6">
     <path clip-path="url(#pf8b87c34b2)" d="M 26.375561 295.747292 
L 26.375561 331.032292 
Q 26.375561 333.432292 28.775561 333.432292 
L 36.518061 333.432292 
Q 38.918061 333.432292 38.918061 331.032292 
L 38.918061 295.747292 
Q 38.918061 293.347292 36.518061 293.347292 
L 28.775561 293.347292 
Q 26.375561 293.347292 26.375561 295.747292 
z
" style="fill:#ffffff;stroke:#ffffff;stroke-linejoin:miter;"/>
    </g>
    <g clip-path="url(#pf8b87c34b2)">
     <!-- Terminal -->
     <defs>
      <path d="M -0.296875 72.90625 
L 61.375 72.90625 
L 61.375 64.59375 
L 35.5 64.59375 
L 35.5 0 
L 25.59375 0 
L 25.59375 64.59375 
L -0.296875 64.59375 
z
" id="DejaVuSans-84"/>
      <path d="M 56.203125 29.59375 
L 56.203125 25.203125 
L 14.890625 25.203125 
Q 15.484375 15.921875 20.484375 11.0625 
Q 25.484375 6.203125 34.421875 6.203125 
Q 39.59375 6.203125 44.453125 7.46875 
Q 49.3125 8.734375 54.109375 11.28125 
L 54.109375 2.78125 
Q 49.265625 0.734375 44.1875 -0.34375 
Q 39.109375 -1.421875 33.890625 -1.421875 
Q 20.796875 -1.421875 13.15625 6.1875 
Q 5.515625 13.8125 5.515625 26.8125 
Q 5.515625 40.234375 12.765625 48.109375 
Q 20.015625 56 32.328125 56 
Q 43.359375 56 49.78125 48.890625 
Q 56.203125 41.796875 56.203125 29.59375 
z
M 47.21875 32.234375 
Q 47.125 39.59375 43.09375 43.984375 
Q 39.0625 48.390625 32.421875 48.390625 
Q 24.90625 48.390625 20.390625 44.140625 
Q 15.875 39.890625 15.1875 32.171875 
z
" id="DejaVuSans-101"/>
      <path d="M 41.109375 46.296875 
Q 39.59375 47.171875 37.8125 47.578125 
Q 36.03125 48 33.890625 48 
Q 26.265625 48 22.1875 43.046875 
Q 18.109375 38.09375 18.109375 28.8125 
L 18.109375 0 
L 9.078125 0 
L 9.078125 54.6875 
L 18.109375 54.6875 
L 18.109375 46.1875 
Q 20.953125 51.171875 25.484375 53.578125 
Q 30.03125 56 36.53125 56 
Q 37.453125 56 38.578125 55.875 
Q 39.703125 55.765625 41.0625 55.515625 
z
" id="DejaVuSans-114"/>
      <path d="M 52 44.1875 
Q 55.375 50.25 60.0625 53.125 
Q 64.75 56 71.09375 56 
Q 79.640625 56 84.28125 50.015625 
Q 88.921875 44.046875 88.921875 33.015625 
L 88.921875 0 
L 79.890625 0 
L 79.890625 32.71875 
Q 79.890625 40.578125 77.09375 44.375 
Q 74.3125 48.1875 68.609375 48.1875 
Q 61.625 48.1875 57.5625 43.546875 
Q 53.515625 38.921875 53.515625 30.90625 
L 53.515625 0 
L 44.484375 0 
L 44.484375 32.71875 
Q 44.484375 40.625 41.703125 44.40625 
Q 38.921875 48.1875 33.109375 48.1875 
Q 26.21875 48.1875 22.15625 43.53125 
Q 18.109375 38.875 18.109375 30.90625 
L 18.109375 0 
L 9.078125 0 
L 9.078125 54.6875 
L 18.109375 54.6875 
L 18.109375 46.1875 
Q 21.1875 51.21875 25.484375 53.609375 
Q 29.78125 56 35.6875 56 
Q 41.65625 56 45.828125 52.96875 
Q 50 49.953125 52 44.1875 
z
" id="DejaVuSans-109"/>
      <path d="M 9.421875 54.6875 
L 18.40625 54.6875 
L 18.40625 0 
L 9.421875 0 
z
M 9.421875 75.984375 
L 18.40625 75.984375 
L 18.40625 64.59375 
L 9.421875 64.59375 
z
" id="DejaVuSans-105"/>
      <path d="M 54.890625 33.015625 
L 54.890625 0 
L 45.90625 0 
L 45.90625 32.71875 
Q 45.90625 40.484375 42.875 44.328125 
Q 39.84375 48.1875 33.796875 48.1875 
Q 26.515625 48.1875 22.3125 43.546875 
Q 18.109375 38.921875 18.109375 30.90625 
L 18.109375 0 
L 9.078125 0 
L 9.078125 54.6875 
L 18.109375 54.6875 
L 18.109375 46.1875 
Q 21.34375 51.125 25.703125 53.5625 
Q 30.078125 56 35.796875 56 
Q 45.21875 56 50.046875 50.171875 
Q 54.890625 44.34375 54.890625 33.015625 
z
" id="DejaVuSans-110"/>
      <path d="M 34.28125 27.484375 
Q 23.390625 27.484375 19.1875 25 
Q 14.984375 22.515625 14.984375 16.5 
Q 14.984375 11.71875 18.140625 8.90625 
Q 21.296875 6.109375 26.703125 6.109375 
Q 34.1875 6.109375 38.703125 11.40625 
Q 43.21875 16.703125 43.21875 25.484375 
L 43.21875 27.484375 
z
M 52.203125 31.203125 
L 52.203125 0 
L 43.21875 0 
L 43.21875 8.296875 
Q 40.140625 3.328125 35.546875 0.953125 
Q 30.953125 -1.421875 24.3125 -1.421875 
Q 15.921875 -1.421875 10.953125 3.296875 
Q 6 8.015625 6 15.921875 
Q 6 25.140625 12.171875 29.828125 
Q 18.359375 34.515625 30.609375 34.515625 
L 43.21875 34.515625 
L 43.21875 35.40625 
Q 43.21875 41.609375 39.140625 45 
Q 35.0625 48.390625 27.6875 48.390625 
Q 23 48.390625 18.546875 47.265625 
Q 14.109375 46.140625 10.015625 43.890625 
L 10.015625 52.203125 
Q 14.9375 54.109375 19.578125 55.046875 
Q 24.21875 56 28.609375 56 
Q 40.484375 56 46.34375 49.84375 
Q 52.203125 43.703125 52.203125 31.203125 
z
" id="DejaVuSans-97"/>
      <path d="M 9.421875 75.984375 
L 18.40625 75.984375 
L 18.40625 0 
L 9.421875 0 
z
" id="DejaVuSans-108"/>
     </defs>
     <g transform="translate(30.439311 295.747292)rotate(-270)scale(0.08 -0.08)">
      <use xlink:href="#DejaVuSans-84"/>
      <use x="60.818359" xlink:href="#DejaVuSans-101"/>
      <use x="122.341797" xlink:href="#DejaVuSans-114"/>
      <use x="163.439453" xlink:href="#DejaVuSans-109"/>
      <use x="260.851562" xlink:href="#DejaVuSans-105"/>
      <use x="288.634766" xlink:href="#DejaVuSans-110"/>
      <use x="352.013672" xlink:href="#DejaVuSans-97"/>
      <use x="413.292969" xlink:href="#DejaVuSans-108"/>
     </g>
    </g>
   </g>
   <g id="text_6">
    <g id="patch_7">
     <path clip-path="url(#pf8b87c34b2)" d="M 251.701258 194.765602 
L 256.096909 192.631664 
Q 258.25594 191.583529 257.207805 189.424498 
L 253.826477 182.459376 
Q 252.778341 180.300346 250.619311 181.348481 
L 246.22366 183.482419 
Q 244.064629 184.530554 245.112765 186.689584 
L 248.494093 193.654707 
Q 249.542228 195.813737 251.701258 194.765602 
z
" style="fill:#ffffff;stroke:#ffffff;stroke-linejoin:miter;"/>
    </g>
    <g clip-path="url(#pf8b87c34b2)">
     <!-- T -->
     <g transform="translate(249.926525 191.109869)rotate(-25.894983)scale(0.08 -0.08)">
      <use xlink:href="#DejaVuSans-84"/>
     </g>
    </g>
   </g>
   <g id="text_7">
    <g id="patch_8">
     <path clip-path="url(#pf8b87c34b2)" d="M 393.924968 192.975827 
L 396.009534 187.915901 
Q 396.923733 185.696839 394.704671 184.782639 
L 387.545882 181.833393 
Q 385.326819 180.919194 384.41262 183.138256 
L 382.328054 188.198182 
Q 381.413855 190.417244 383.632917 191.331444 
L 390.791706 194.28069 
Q 393.010769 195.194889 393.924968 192.975827 
z
" style="fill:#ffffff;stroke:#ffffff;stroke-linejoin:miter;"/>
    </g>
    <g clip-path="url(#pf8b87c34b2)">
     <!-- A -->
     <defs>
      <path d="M 34.1875 63.1875 
L 20.796875 26.90625 
L 47.609375 26.90625 
z
M 28.609375 72.90625 
L 39.796875 72.90625 
L 67.578125 0 
L 57.328125 0 
L 50.6875 18.703125 
L 17.828125 18.703125 
L 11.1875 0 
L 0.78125 0 
z
" id="DejaVuSans-65"/>
     </defs>
     <g transform="translate(390.167587 191.427877)rotate(-67.609536)scale(0.08 -0.08)">
      <use xlink:href="#DejaVuSans-65"/>
     </g>
    </g>
   </g>
   <g id="text_8">
    <g id="patch_9">
     <path clip-path="url(#pf8b87c34b2)" d="M 417.964124 191.961597 
L 418.802182 185.858872 
Q 419.128698 183.481187 416.751013 183.154671 
L 409.080501 182.101316 
Q 406.702816 181.7748 406.3763 184.152485 
L 405.538242 190.255211 
Q 405.211726 192.632896 407.589411 192.959412 
L 415.259923 194.012767 
Q 417.637608 194.339283 417.964124 191.961597 
z
" style="fill:#ffffff;stroke:#ffffff;stroke-linejoin:miter;"/>
    </g>
    <g clip-path="url(#pf8b87c34b2)">
     <!-- D -->
     <defs>
      <path d="M 19.671875 64.796875 
L 19.671875 8.109375 
L 31.59375 8.109375 
Q 46.6875 8.109375 53.6875 14.9375 
Q 60.6875 21.78125 60.6875 36.53125 
Q 60.6875 51.171875 53.6875 57.984375 
Q 46.6875 64.796875 31.59375 64.796875 
z
M 9.8125 72.90625 
L 30.078125 72.90625 
Q 51.265625 72.90625 61.171875 64.09375 
Q 71.09375 55.28125 71.09375 36.53125 
Q 71.09375 17.671875 61.125 8.828125 
Q 51.171875 0 30.078125 0 
L 9.8125 0 
z
" id="DejaVuSans-68"/>
     </defs>
     <g transform="translate(413.938158 191.408731)rotate(-82.180754)scale(0.08 -0.08)">
      <use xlink:href="#DejaVuSans-68"/>
     </g>
    </g>
   </g>
   <g id="text_9">
    <g id="patch_10">
     <path clip-path="url(#pf8b87c34b2)" d="M 451.792226 148.577239 
L 454.847068 152.310401 
Q 456.366969 154.167792 458.22436 152.647892 
L 464.216381 147.744629 
Q 466.073772 146.224728 464.553871 144.367337 
L 461.499029 140.634174 
Q 459.979129 138.776783 458.121737 140.296684 
L 452.129716 145.199947 
Q 450.272325 146.719848 451.792226 148.577239 
z
" style="fill:#ffffff;stroke:#ffffff;stroke-linejoin:miter;"/>
    </g>
    <g clip-path="url(#pf8b87c34b2)">
     <!-- P -->
     <defs>
      <path d="M 19.671875 64.796875 
L 19.671875 37.40625 
L 32.078125 37.40625 
Q 38.96875 37.40625 42.71875 40.96875 
Q 46.484375 44.53125 46.484375 51.125 
Q 46.484375 57.671875 42.71875 61.234375 
Q 38.96875 64.796875 32.078125 64.796875 
z
M 9.8125 72.90625 
L 32.078125 72.90625 
Q 44.34375 72.90625 50.609375 67.359375 
Q 56.890625 61.8125 56.890625 51.125 
Q 56.890625 40.328125 50.609375 34.8125 
Q 44.34375 29.296875 32.078125 29.296875 
L 19.671875 29.296875 
L 19.671875 0 
L 9.8125 0 
z
" id="DejaVuSans-80"/>
     </defs>
     <g transform="translate(454.937215 146.003698)rotate(-309.293418)scale(0.08 -0.08)">
      <use xlink:href="#DejaVuSans-80"/>
     </g>
    </g>
   </g>
   <g id="text_10">
    <g id="patch_11">
     <path clip-path="url(#pf8b87c34b2)" d="M 497.520296 190.182627 
L 501.789241 194.62354 
Q 503.452466 196.353766 505.182692 194.690541 
L 510.764473 189.324907 
Q 512.494699 187.661682 510.831474 185.931456 
L 506.562529 181.490543 
Q 504.899304 179.760317 503.169078 181.423542 
L 497.587297 186.789176 
Q 495.857071 188.452401 497.520296 190.182627 
z
" style="fill:#ffffff;stroke:#ffffff;stroke-linejoin:miter;"/>
    </g>
    <g clip-path="url(#pf8b87c34b2)">
     <!-- D -->
     <g transform="translate(500.449965 187.366405)rotate(-313.868891)scale(0.08 -0.08)">
      <use xlink:href="#DejaVuSans-68"/>
     </g>
    </g>
   </g>
   <g id="text_11">
    <g id="patch_12">
     <path clip-path="url(#pf8b87c34b2)" d="M 520.956819 191.090918 
L 525.50851 194.773734 
Q 527.374275 196.283343 528.883884 194.417577 
L 533.753945 188.398539 
Q 535.263554 186.532774 533.397788 185.023165 
L 528.846097 181.340349 
Q 526.980331 179.83074 525.470723 181.696506 
L 520.600662 187.715543 
Q 519.091053 189.581309 520.956819 191.090918 
z
" style="fill:#ffffff;stroke:#ffffff;stroke-linejoin:miter;"/>
    </g>
    <g clip-path="url(#pf8b87c34b2)">
     <!-- U -->
     <g transform="translate(523.512932 187.931749)rotate(-321.023349)scale(0.08 -0.08)">
      <use xlink:href="#DejaVuSans-85"/>
     </g>
    </g>
   </g>
   <g id="text_12">
    <g id="patch_13">
     <path clip-path="url(#pf8b87c34b2)" d="M 507.387682 232.950915 
L 511.729045 236.282705 
Q 513.632978 237.743884 515.094156 235.839951 
L 519.807977 229.697786 
Q 521.269155 227.793853 519.365222 226.332675 
L 515.02386 223.000885 
Q 513.119927 221.539707 511.658749 223.443639 
L 506.944928 229.585805 
Q 505.48375 231.489737 507.387682 232.950915 
z
" style="fill:#ffffff;stroke:#ffffff;stroke-linejoin:miter;"/>
    </g>
    <g clip-path="url(#pf8b87c34b2)">
     <!-- A -->
     <g transform="translate(509.861792 229.727121)rotate(-322.495467)scale(0.08 -0.08)">
      <use xlink:href="#DejaVuSans-65"/>
     </g>
    </g>
   </g>
   <g id="text_13">
    <g id="patch_14">
     <path clip-path="url(#pf8b87c34b2)" d="M 262.877474 194.286996 
L 266.403454 190.995184 
Q 268.157764 189.357381 266.519961 187.603071 
L 261.236342 181.943594 
Q 259.59854 180.189285 257.84423 181.827087 
L 254.31825 185.118899 
Q 252.56394 186.756702 254.201743 188.511012 
L 259.485361 194.170488 
Q 261.123164 195.924798 262.877474 194.286996 
z
" style="fill:#ffffff;stroke:#ffffff;stroke-linejoin:miter;"/>
    </g>
    <g clip-path="url(#pf8b87c34b2)">
     <!-- P -->
     <g transform="translate(260.104299 191.316547)rotate(-43.03286)scale(0.08 -0.08)">
      <use xlink:href="#DejaVuSans-80"/>
     </g>
    </g>
   </g>
   <g id="text_14">
    <g id="patch_15">
     <path clip-path="url(#pf8b87c34b2)" d="M 296.495005 153.116995 
L 300.844071 149.795266 
Q 302.751381 148.338501 301.294616 146.43119 
L 296.59503 140.278126 
Q 295.138265 138.370815 293.230954 139.827581 
L 288.881888 143.149309 
Q 286.974577 144.606075 288.431342 146.513385 
L 293.130928 152.66645 
Q 294.587694 154.57376 296.495005 153.116995 
z
" style="fill:#ffffff;stroke:#ffffff;stroke-linejoin:miter;"/>
    </g>
    <g clip-path="url(#pf8b87c34b2)">
     <!-- A -->
     <g transform="translate(294.028367 149.887481)rotate(-37.371859)scale(0.08 -0.08)">
      <use xlink:href="#DejaVuSans-65"/>
     </g>
    </g>
   </g>
   <g id="text_15">
    <g id="patch_16">
     <path clip-path="url(#pf8b87c34b2)" d="M 346.022516 185.493998 
L 346.172762 190.964435 
Q 346.238653 193.363531 348.637748 193.297639 
L 356.37733 193.085071 
Q 358.776425 193.01918 358.710534 190.620085 
L 358.560288 185.149648 
Q 358.494397 182.750552 356.095301 182.816444 
L 348.35572 183.029011 
Q 345.956625 183.094903 346.022516 185.493998 
z
" style="fill:#ffffff;stroke:#ffffff;stroke-linejoin:miter;"/>
    </g>
    <g clip-path="url(#pf8b87c34b2)">
     <!-- A -->
     <g transform="translate(350.084734 185.382429)rotate(-271.573235)scale(0.08 -0.08)">
      <use xlink:href="#DejaVuSans-65"/>
     </g>
    </g>
   </g>
   <g id="text_16">
    <g id="patch_17">
     <path clip-path="url(#pf8b87c34b2)" d="M 334.750631 192.403874 
L 336.155615 186.719946 
Q 336.731527 184.390069 334.40165 183.814157 
L 326.88537 181.956243 
Q 324.555493 181.380332 323.979582 183.710209 
L 322.574598 189.394137 
Q 321.998687 191.724014 324.328563 192.299926 
L 331.844843 194.15784 
Q 334.17472 194.733751 334.750631 192.403874 
z
" style="fill:#ffffff;stroke:#ffffff;stroke-linejoin:miter;"/>
    </g>
    <g clip-path="url(#pf8b87c34b2)">
     <!-- U -->
     <g transform="translate(330.805616 191.428724)rotate(-76.115639)scale(0.08 -0.08)">
      <use xlink:href="#DejaVuSans-85"/>
     </g>
    </g>
   </g>
   <g id="text_17">
    <g id="patch_18">
     <path clip-path="url(#pf8b87c34b2)" d="M 164.384071 295.747292 
L 164.384071 331.032292 
Q 164.384071 333.432292 166.784071 333.432292 
L 174.526571 333.432292 
Q 176.926571 333.432292 176.926571 331.032292 
L 176.926571 295.747292 
Q 176.926571 293.347292 174.526571 293.347292 
L 166.784071 293.347292 
Q 164.384071 293.347292 164.384071 295.747292 
z
" style="fill:#ffffff;stroke:#ffffff;stroke-linejoin:miter;"/>
    </g>
    <g clip-path="url(#pf8b87c34b2)">
     <!-- Terminal -->
     <g transform="translate(168.447821 295.747292)rotate(-270)scale(0.08 -0.08)">
      <use xlink:href="#DejaVuSans-84"/>
      <use x="60.818359" xlink:href="#DejaVuSans-101"/>
      <use x="122.341797" xlink:href="#DejaVuSans-114"/>
      <use x="163.439453" xlink:href="#DejaVuSans-109"/>
      <use x="260.851562" xlink:href="#DejaVuSans-105"/>
      <use x="288.634766" xlink:href="#DejaVuSans-110"/>
      <use x="352.013672" xlink:href="#DejaVuSans-97"/>
      <use x="413.292969" xlink:href="#DejaVuSans-108"/>
     </g>
    </g>
   </g>
   <g id="text_18">
    <g id="patch_19">
     <path clip-path="url(#pf8b87c34b2)" d="M 233.462366 234.570733 
L 234.944077 229.213099 
Q 235.583808 226.899932 233.27064 226.260201 
L 225.808266 224.196401 
Q 223.495098 223.55667 222.855367 225.869837 
L 221.373656 231.22747 
Q 220.733925 233.540638 223.047092 234.180369 
L 230.509467 236.244169 
Q 232.822635 236.8839 233.462366 234.570733 
z
" style="fill:#ffffff;stroke:#ffffff;stroke-linejoin:miter;"/>
    </g>
    <g clip-path="url(#pf8b87c34b2)">
     <!-- R -->
     <defs>
      <path d="M 44.390625 34.1875 
Q 47.5625 33.109375 50.5625 29.59375 
Q 53.5625 26.078125 56.59375 19.921875 
L 66.609375 0 
L 56 0 
L 46.6875 18.703125 
Q 43.0625 26.03125 39.671875 28.421875 
Q 36.28125 30.8125 30.421875 30.8125 
L 19.671875 30.8125 
L 19.671875 0 
L 9.8125 0 
L 9.8125 72.90625 
L 32.078125 72.90625 
Q 44.578125 72.90625 50.734375 67.671875 
Q 56.890625 62.453125 56.890625 51.90625 
Q 56.890625 45.015625 53.6875 40.46875 
Q 50.484375 35.9375 44.390625 34.1875 
z
M 19.671875 64.796875 
L 19.671875 38.921875 
L 32.078125 38.921875 
Q 39.203125 38.921875 42.84375 42.21875 
Q 46.484375 45.515625 46.484375 51.90625 
Q 46.484375 58.296875 42.84375 61.546875 
Q 39.203125 64.796875 32.078125 64.796875 
z
" id="DejaVuSans-82"/>
     </defs>
     <g transform="translate(229.545643 233.487521)rotate(-74.540647)scale(0.08 -0.08)">
      <use xlink:href="#DejaVuSans-82"/>
     </g>
    </g>
   </g>
   <g id="text_19">
    <g id="patch_20">
     <path clip-path="url(#pf8b87c34b2)" d="M 244.371409 229.199847 
L 245.86045 234.583985 
Q 246.500182 236.897153 248.813349 236.257421 
L 256.275724 234.193622 
Q 258.588891 233.55389 257.94916 231.240723 
L 256.460119 225.856585 
Q 255.820388 223.543417 253.50722 224.183148 
L 246.044845 226.246948 
Q 243.731678 226.886679 244.371409 229.199847 
z
" style="fill:#ffffff;stroke:#ffffff;stroke-linejoin:miter;"/>
    </g>
    <g clip-path="url(#pf8b87c34b2)">
     <!-- C -->
     <defs>
      <path d="M 64.40625 67.28125 
L 64.40625 56.890625 
Q 59.421875 61.53125 53.78125 63.8125 
Q 48.140625 66.109375 41.796875 66.109375 
Q 29.296875 66.109375 22.65625 58.46875 
Q 16.015625 50.828125 16.015625 36.375 
Q 16.015625 21.96875 22.65625 14.328125 
Q 29.296875 6.6875 41.796875 6.6875 
Q 48.140625 6.6875 53.78125 8.984375 
Q 59.421875 11.28125 64.40625 15.921875 
L 64.40625 5.609375 
Q 59.234375 2.09375 53.4375 0.328125 
Q 47.65625 -1.421875 41.21875 -1.421875 
Q 24.65625 -1.421875 15.125 8.703125 
Q 5.609375 18.84375 5.609375 36.375 
Q 5.609375 53.953125 15.125 64.078125 
Q 24.65625 74.21875 41.21875 74.21875 
Q 47.75 74.21875 53.53125 72.484375 
Q 59.328125 70.75 64.40625 67.28125 
z
" id="DejaVuSans-67"/>
     </defs>
     <g transform="translate(248.288132 228.116635)rotate(-285.459353)scale(0.08 -0.08)">
      <use xlink:href="#DejaVuSans-67"/>
     </g>
    </g>
   </g>
   <g id="text_20">
    <g id="patch_21">
     <path clip-path="url(#pf8b87c34b2)" d="M 210.386907 295.747292 
L 210.386907 331.032292 
Q 210.386907 333.432292 212.786907 333.432292 
L 220.529407 333.432292 
Q 222.929407 333.432292 222.929407 331.032292 
L 222.929407 295.747292 
Q 222.929407 293.347292 220.529407 293.347292 
L 212.786907 293.347292 
Q 210.386907 293.347292 210.386907 295.747292 
z
" style="fill:#ffffff;stroke:#ffffff;stroke-linejoin:miter;"/>
    </g>
    <g clip-path="url(#pf8b87c34b2)">
     <!-- Terminal -->
     <g transform="translate(214.450657 295.747292)rotate(-270)scale(0.08 -0.08)">
      <use xlink:href="#DejaVuSans-84"/>
      <use x="60.818359" xlink:href="#DejaVuSans-101"/>
      <use x="122.341797" xlink:href="#DejaVuSans-114"/>
      <use x="163.439453" xlink:href="#DejaVuSans-109"/>
      <use x="260.851562" xlink:href="#DejaVuSans-105"/>
      <use x="288.634766" xlink:href="#DejaVuSans-110"/>
      <use x="352.013672" xlink:href="#DejaVuSans-97"/>
      <use x="413.292969" xlink:href="#DejaVuSans-108"/>
     </g>
    </g>
   </g>
   <g id="text_21">
    <g id="patch_22">
     <path clip-path="url(#pf8b87c34b2)" d="M 256.389744 295.747292 
L 256.389744 331.032292 
Q 256.389744 333.432292 258.789744 333.432292 
L 266.532244 333.432292 
Q 268.932244 333.432292 268.932244 331.032292 
L 268.932244 295.747292 
Q 268.932244 293.347292 266.532244 293.347292 
L 258.789744 293.347292 
Q 256.389744 293.347292 256.389744 295.747292 
z
" style="fill:#ffffff;stroke:#ffffff;stroke-linejoin:miter;"/>
    </g>
    <g clip-path="url(#pf8b87c34b2)">
     <!-- Terminal -->
     <g transform="translate(260.453494 295.747292)rotate(-270)scale(0.08 -0.08)">
      <use xlink:href="#DejaVuSans-84"/>
      <use x="60.818359" xlink:href="#DejaVuSans-101"/>
      <use x="122.341797" xlink:href="#DejaVuSans-114"/>
      <use x="163.439453" xlink:href="#DejaVuSans-109"/>
      <use x="260.851562" xlink:href="#DejaVuSans-105"/>
      <use x="288.634766" xlink:href="#DejaVuSans-110"/>
      <use x="352.013672" xlink:href="#DejaVuSans-97"/>
      <use x="413.292969" xlink:href="#DejaVuSans-108"/>
     </g>
    </g>
   </g>
   <g id="text_22">
    <g id="patch_23">
     <path clip-path="url(#pf8b87c34b2)" d="M 72.378398 295.747292 
L 72.378398 331.032292 
Q 72.378398 333.432292 74.778398 333.432292 
L 82.520898 333.432292 
Q 84.920898 333.432292 84.920898 331.032292 
L 84.920898 295.747292 
Q 84.920898 293.347292 82.520898 293.347292 
L 74.778398 293.347292 
Q 72.378398 293.347292 72.378398 295.747292 
z
" style="fill:#ffffff;stroke:#ffffff;stroke-linejoin:miter;"/>
    </g>
    <g clip-path="url(#pf8b87c34b2)">
     <!-- Terminal -->
     <g transform="translate(76.442148 295.747292)rotate(-270)scale(0.08 -0.08)">
      <use xlink:href="#DejaVuSans-84"/>
      <use x="60.818359" xlink:href="#DejaVuSans-101"/>
      <use x="122.341797" xlink:href="#DejaVuSans-114"/>
      <use x="163.439453" xlink:href="#DejaVuSans-109"/>
      <use x="260.851562" xlink:href="#DejaVuSans-105"/>
      <use x="288.634766" xlink:href="#DejaVuSans-110"/>
      <use x="352.013672" xlink:href="#DejaVuSans-97"/>
      <use x="413.292969" xlink:href="#DejaVuSans-108"/>
     </g>
    </g>
   </g>
   <g id="text_23">
    <g id="patch_24">
     <path clip-path="url(#pf8b87c34b2)" d="M 348.395417 295.747292 
L 348.395417 331.032292 
Q 348.395417 333.432292 350.795417 333.432292 
L 358.537917 333.432292 
Q 360.937917 333.432292 360.937917 331.032292 
L 360.937917 295.747292 
Q 360.937917 293.347292 358.537917 293.347292 
L 350.795417 293.347292 
Q 348.395417 293.347292 348.395417 295.747292 
z
" style="fill:#ffffff;stroke:#ffffff;stroke-linejoin:miter;"/>
    </g>
    <g clip-path="url(#pf8b87c34b2)">
     <!-- Terminal -->
     <g transform="translate(352.459167 295.747292)rotate(-270)scale(0.08 -0.08)">
      <use xlink:href="#DejaVuSans-84"/>
      <use x="60.818359" xlink:href="#DejaVuSans-101"/>
      <use x="122.341797" xlink:href="#DejaVuSans-114"/>
      <use x="163.439453" xlink:href="#DejaVuSans-109"/>
      <use x="260.851562" xlink:href="#DejaVuSans-105"/>
      <use x="288.634766" xlink:href="#DejaVuSans-110"/>
      <use x="352.013672" xlink:href="#DejaVuSans-97"/>
      <use x="413.292969" xlink:href="#DejaVuSans-108"/>
     </g>
    </g>
   </g>
   <g id="text_24">
    <g id="patch_25">
     <path clip-path="url(#pf8b87c34b2)" d="M 394.398253 295.747292 
L 394.398253 331.032292 
Q 394.398253 333.432292 396.798253 333.432292 
L 404.540753 333.432292 
Q 406.940753 333.432292 406.940753 331.032292 
L 406.940753 295.747292 
Q 406.940753 293.347292 404.540753 293.347292 
L 396.798253 293.347292 
Q 394.398253 293.347292 394.398253 295.747292 
z
" style="fill:#ffffff;stroke:#ffffff;stroke-linejoin:miter;"/>
    </g>
    <g clip-path="url(#pf8b87c34b2)">
     <!-- Terminal -->
     <g transform="translate(398.462003 295.747292)rotate(-270)scale(0.08 -0.08)">
      <use xlink:href="#DejaVuSans-84"/>
      <use x="60.818359" xlink:href="#DejaVuSans-101"/>
      <use x="122.341797" xlink:href="#DejaVuSans-114"/>
      <use x="163.439453" xlink:href="#DejaVuSans-109"/>
      <use x="260.851562" xlink:href="#DejaVuSans-105"/>
      <use x="288.634766" xlink:href="#DejaVuSans-110"/>
      <use x="352.013672" xlink:href="#DejaVuSans-97"/>
      <use x="413.292969" xlink:href="#DejaVuSans-108"/>
     </g>
    </g>
   </g>
   <g id="text_25">
    <g id="patch_26">
     <path clip-path="url(#pf8b87c34b2)" d="M 471.015422 290.48086 
L 480.420804 256.472479 
Q 481.060535 254.159311 478.747368 253.51958 
L 471.284993 251.45578 
Q 468.971825 250.816049 468.332094 253.129217 
L 458.926712 287.137598 
Q 458.286981 289.450766 460.600148 290.090497 
L 468.062523 292.154297 
Q 470.37569 292.794028 471.015422 290.48086 
z
" style="fill:#ffffff;stroke:#ffffff;stroke-linejoin:miter;"/>
    </g>
    <g clip-path="url(#pf8b87c34b2)">
     <!-- Terminal -->
     <g transform="translate(467.098699 289.397649)rotate(-74.540647)scale(0.08 -0.08)">
      <use xlink:href="#DejaVuSans-84"/>
      <use x="60.818359" xlink:href="#DejaVuSans-101"/>
      <use x="122.341797" xlink:href="#DejaVuSans-114"/>
      <use x="163.439453" xlink:href="#DejaVuSans-109"/>
      <use x="260.851562" xlink:href="#DejaVuSans-105"/>
      <use x="288.634766" xlink:href="#DejaVuSans-110"/>
      <use x="352.013672" xlink:href="#DejaVuSans-97"/>
      <use x="413.292969" xlink:href="#DejaVuSans-108"/>
     </g>
    </g>
   </g>
   <g id="text_26">
    <g id="patch_27">
     <path clip-path="url(#pf8b87c34b2)" d="M 504.929548 256.472479 
L 514.334931 290.48086 
Q 514.974662 292.794028 517.287829 292.154297 
L 524.750204 290.090497 
Q 527.063372 289.450766 526.42364 287.137598 
L 517.018258 253.129217 
Q 516.378527 250.816049 514.065359 251.45578 
L 506.602985 253.51958 
Q 504.289817 254.159311 504.929548 256.472479 
z
" style="fill:#ffffff;stroke:#ffffff;stroke-linejoin:miter;"/>
    </g>
    <g clip-path="url(#pf8b87c34b2)">
     <!-- Terminal -->
     <g transform="translate(508.846271 255.389267)rotate(-285.459353)scale(0.08 -0.08)">
      <use xlink:href="#DejaVuSans-84"/>
      <use x="60.818359" xlink:href="#DejaVuSans-101"/>
      <use x="122.341797" xlink:href="#DejaVuSans-114"/>
      <use x="163.439453" xlink:href="#DejaVuSans-109"/>
      <use x="260.851562" xlink:href="#DejaVuSans-105"/>
      <use x="288.634766" xlink:href="#DejaVuSans-110"/>
      <use x="352.013672" xlink:href="#DejaVuSans-97"/>
      <use x="413.292969" xlink:href="#DejaVuSans-108"/>
     </g>
    </g>
   </g>
   <g id="text_27">
    <g id="patch_28">
     <path clip-path="url(#pf8b87c34b2)" d="M 486.403926 227.292785 
L 486.403926 233.147785 
Q 486.403926 235.547785 488.803926 235.547785 
L 496.546426 235.547785 
Q 498.946426 235.547785 498.946426 233.147785 
L 498.946426 227.292785 
Q 498.946426 224.892785 496.546426 224.892785 
L 488.803926 224.892785 
Q 486.403926 224.892785 486.403926 227.292785 
z
" style="fill:#ffffff;stroke:#ffffff;stroke-linejoin:miter;"/>
    </g>
    <g clip-path="url(#pf8b87c34b2)">
     <!-- U -->
     <g transform="translate(490.467676 227.292785)rotate(-270)scale(0.08 -0.08)">
      <use xlink:href="#DejaVuSans-85"/>
     </g>
    </g>
   </g>
   <g id="text_28">
    <g id="patch_29">
     <path clip-path="url(#pf8b87c34b2)" d="M 578.409599 295.747292 
L 578.409599 331.032292 
Q 578.409599 333.432292 580.809599 333.432292 
L 588.552099 333.432292 
Q 590.952099 333.432292 590.952099 331.032292 
L 590.952099 295.747292 
Q 590.952099 293.347292 588.552099 293.347292 
L 580.809599 293.347292 
Q 578.409599 293.347292 578.409599 295.747292 
z
" style="fill:#ffffff;stroke:#ffffff;stroke-linejoin:miter;"/>
    </g>
    <g clip-path="url(#pf8b87c34b2)">
     <!-- Terminal -->
     <g transform="translate(582.473349 295.747292)rotate(-270)scale(0.08 -0.08)">
      <use xlink:href="#DejaVuSans-84"/>
      <use x="60.818359" xlink:href="#DejaVuSans-101"/>
      <use x="122.341797" xlink:href="#DejaVuSans-114"/>
      <use x="163.439453" xlink:href="#DejaVuSans-109"/>
      <use x="260.851562" xlink:href="#DejaVuSans-105"/>
      <use x="288.634766" xlink:href="#DejaVuSans-110"/>
      <use x="352.013672" xlink:href="#DejaVuSans-97"/>
      <use x="413.292969" xlink:href="#DejaVuSans-108"/>
     </g>
    </g>
   </g>
   <g id="text_29">
    <g id="patch_30">
     <path clip-path="url(#pf8b87c34b2)" d="M 118.381234 295.747292 
L 118.381234 331.032292 
Q 118.381234 333.432292 120.781234 333.432292 
L 128.523734 333.432292 
Q 130.923734 333.432292 130.923734 331.032292 
L 130.923734 295.747292 
Q 130.923734 293.347292 128.523734 293.347292 
L 120.781234 293.347292 
Q 118.381234 293.347292 118.381234 295.747292 
z
" style="fill:#ffffff;stroke:#ffffff;stroke-linejoin:miter;"/>
    </g>
    <g clip-path="url(#pf8b87c34b2)">
     <!-- Terminal -->
     <g transform="translate(122.444984 295.747292)rotate(-270)scale(0.08 -0.08)">
      <use xlink:href="#DejaVuSans-84"/>
      <use x="60.818359" xlink:href="#DejaVuSans-101"/>
      <use x="122.341797" xlink:href="#DejaVuSans-114"/>
      <use x="163.439453" xlink:href="#DejaVuSans-109"/>
      <use x="260.851562" xlink:href="#DejaVuSans-105"/>
      <use x="288.634766" xlink:href="#DejaVuSans-110"/>
      <use x="352.013672" xlink:href="#DejaVuSans-97"/>
      <use x="413.292969" xlink:href="#DejaVuSans-108"/>
     </g>
    </g>
   </g>
   <g id="text_30">
    <g id="patch_31">
     <path clip-path="url(#pf8b87c34b2)" d="M 132.309393 152.877742 
L 138.427282 144.946998 
Q 139.893193 143.046707 137.992903 141.580796 
L 131.862486 136.851705 
Q 129.962196 135.385794 128.496285 137.286084 
L 122.378396 145.216828 
Q 120.912484 147.117119 122.812775 148.58303 
L 128.943191 153.312121 
Q 130.843482 154.778032 132.309393 152.877742 
z
" style="fill:#ffffff;stroke:#ffffff;stroke-linejoin:miter;"/>
    </g>
    <g clip-path="url(#pf8b87c34b2)">
     <!-- LR -->
     <g transform="translate(129.091766 150.395618)rotate(-52.352893)scale(0.08 -0.08)">
      <use xlink:href="#DejaVuSans-76"/>
      <use x="55.712891" xlink:href="#DejaVuSans-82"/>
     </g>
    </g>
   </g>
   <g id="text_31">
    <g id="patch_32">
     <path clip-path="url(#pf8b87c34b2)" d="M 318.844739 65.076259 
L 327.937392 69.073536 
Q 330.134459 70.039402 331.100325 67.842335 
L 334.216249 60.754506 
Q 335.182115 58.557439 332.985048 57.591573 
L 323.892396 53.594296 
Q 321.695329 52.62843 320.729463 54.825497 
L 317.613539 61.913326 
Q 316.647673 64.110393 318.844739 65.076259 
z
" style="fill:#ffffff;stroke:#ffffff;stroke-linejoin:miter;"/>
    </g>
    <g clip-path="url(#pf8b87c34b2)">
     <!-- LA -->
     <g transform="translate(320.480172 61.356121)rotate(-336.268934)scale(0.08 -0.08)">
      <use xlink:href="#DejaVuSans-76"/>
      <use x="55.744141" xlink:href="#DejaVuSans-65"/>
     </g>
    </g>
   </g>
   <g id="text_32">
    <g id="patch_33">
     <path clip-path="url(#pf8b87c34b2)" d="M 302.39258 295.747292 
L 302.39258 331.032292 
Q 302.39258 333.432292 304.79258 333.432292 
L 312.53508 333.432292 
Q 314.93508 333.432292 314.93508 331.032292 
L 314.93508 295.747292 
Q 314.93508 293.347292 312.53508 293.347292 
L 304.79258 293.347292 
Q 302.39258 293.347292 302.39258 295.747292 
z
" style="fill:#ffffff;stroke:#ffffff;stroke-linejoin:miter;"/>
    </g>
    <g clip-path="url(#pf8b87c34b2)">
     <!-- Terminal -->
     <g transform="translate(306.45633 295.747292)rotate(-270)scale(0.08 -0.08)">
      <use xlink:href="#DejaVuSans-84"/>
      <use x="60.818359" xlink:href="#DejaVuSans-101"/>
      <use x="122.341797" xlink:href="#DejaVuSans-114"/>
      <use x="163.439453" xlink:href="#DejaVuSans-109"/>
      <use x="260.851562" xlink:href="#DejaVuSans-105"/>
      <use x="288.634766" xlink:href="#DejaVuSans-110"/>
      <use x="352.013672" xlink:href="#DejaVuSans-97"/>
      <use x="413.292969" xlink:href="#DejaVuSans-108"/>
     </g>
    </g>
   </g>
   <g id="text_33">
    <g id="patch_34">
     <path clip-path="url(#pf8b87c34b2)" d="M 486.403926 295.747292 
L 486.403926 331.032292 
Q 486.403926 333.432292 488.803926 333.432292 
L 496.546426 333.432292 
Q 498.946426 333.432292 498.946426 331.032292 
L 498.946426 295.747292 
Q 498.946426 293.347292 496.546426 293.347292 
L 488.803926 293.347292 
Q 486.403926 293.347292 486.403926 295.747292 
z
" style="fill:#ffffff;stroke:#ffffff;stroke-linejoin:miter;"/>
    </g>
    <g clip-path="url(#pf8b87c34b2)">
     <!-- Terminal -->
     <g transform="translate(490.467676 295.747292)rotate(-270)scale(0.08 -0.08)">
      <use xlink:href="#DejaVuSans-84"/>
      <use x="60.818359" xlink:href="#DejaVuSans-101"/>
      <use x="122.341797" xlink:href="#DejaVuSans-114"/>
      <use x="163.439453" xlink:href="#DejaVuSans-109"/>
      <use x="260.851562" xlink:href="#DejaVuSans-105"/>
      <use x="288.634766" xlink:href="#DejaVuSans-110"/>
      <use x="352.013672" xlink:href="#DejaVuSans-97"/>
      <use x="413.292969" xlink:href="#DejaVuSans-108"/>
     </g>
    </g>
   </g>
   <g id="text_34">
    <g id="patch_35">
     <path clip-path="url(#pf8b87c34b2)" d="M 624.412435 295.747292 
L 624.412435 331.032292 
Q 624.412435 333.432292 626.812435 333.432292 
L 634.554935 333.432292 
Q 636.954935 333.432292 636.954935 331.032292 
L 636.954935 295.747292 
Q 636.954935 293.347292 634.554935 293.347292 
L 626.812435 293.347292 
Q 624.412435 293.347292 624.412435 295.747292 
z
" style="fill:#ffffff;stroke:#ffffff;stroke-linejoin:miter;"/>
    </g>
    <g clip-path="url(#pf8b87c34b2)">
     <!-- Terminal -->
     <g transform="translate(628.476185 295.747292)rotate(-270)scale(0.08 -0.08)">
      <use xlink:href="#DejaVuSans-84"/>
      <use x="60.818359" xlink:href="#DejaVuSans-101"/>
      <use x="122.341797" xlink:href="#DejaVuSans-114"/>
      <use x="163.439453" xlink:href="#DejaVuSans-109"/>
      <use x="260.851562" xlink:href="#DejaVuSans-105"/>
      <use x="288.634766" xlink:href="#DejaVuSans-110"/>
      <use x="352.013672" xlink:href="#DejaVuSans-97"/>
      <use x="413.292969" xlink:href="#DejaVuSans-108"/>
     </g>
    </g>
   </g>
   <g id="PathCollection_1">
    <defs>
     <path d="M 0 8.660254 
C 2.296726 8.660254 4.499694 7.747755 6.123724 6.123724 
C 7.747755 4.499694 8.660254 2.296726 8.660254 0 
C 8.660254 -2.296726 7.747755 -4.499694 6.123724 -6.123724 
C 4.499694 -7.747755 2.296726 -8.660254 0 -8.660254 
C -2.296726 -8.660254 -4.499694 -7.747755 -6.123724 -6.123724 
C -7.747755 -4.499694 -8.660254 -2.296726 -8.660254 0 
C -8.660254 2.296726 -7.747755 4.499694 -6.123724 6.123724 
C -4.499694 7.747755 -2.296726 8.660254 0 8.660254 
z
" id="C0_0_e08d682d17"/>
    </defs>
    <g clip-path="url(#pf8b87c34b2)">
     <use style="fill:#ffffff;stroke:#ffffff;" x="32.646811" xlink:href="#C0_0_e08d682d17" y="354.974546"/>
    </g>
    <g clip-path="url(#pf8b87c34b2)">
     <use style="fill:#ffffff;stroke:#ffffff;" x="78.649648" xlink:href="#C0_0_e08d682d17" y="354.974546"/>
    </g>
    <g clip-path="url(#pf8b87c34b2)">
     <use style="fill:#ffffff;stroke:#ffffff;" x="124.652484" xlink:href="#C0_0_e08d682d17" y="354.974546"/>
    </g>
    <g clip-path="url(#pf8b87c34b2)">
     <use style="fill:#ffffff;stroke:#ffffff;" x="170.655321" xlink:href="#C0_0_e08d682d17" y="354.974546"/>
    </g>
    <g clip-path="url(#pf8b87c34b2)">
     <use style="fill:#ffffff;stroke:#ffffff;" x="216.658157" xlink:href="#C0_0_e08d682d17" y="354.974546"/>
    </g>
    <g clip-path="url(#pf8b87c34b2)">
     <use style="fill:#ffffff;stroke:#ffffff;" x="262.660994" xlink:href="#C0_0_e08d682d17" y="354.974546"/>
    </g>
    <g clip-path="url(#pf8b87c34b2)">
     <use style="fill:#ffffff;stroke:#ffffff;" x="308.66383" xlink:href="#C0_0_e08d682d17" y="354.974546"/>
    </g>
    <g clip-path="url(#pf8b87c34b2)">
     <use style="fill:#ffffff;stroke:#ffffff;" x="354.666667" xlink:href="#C0_0_e08d682d17" y="354.974546"/>
    </g>
    <g clip-path="url(#pf8b87c34b2)">
     <use style="fill:#ffffff;stroke:#ffffff;" x="400.669503" xlink:href="#C0_0_e08d682d17" y="354.974546"/>
    </g>
    <g clip-path="url(#pf8b87c34b2)">
     <use style="fill:#ffffff;stroke:#ffffff;" x="446.67234" xlink:href="#C0_0_e08d682d17" y="354.974546"/>
    </g>
    <g clip-path="url(#pf8b87c34b2)">
     <use style="fill:#ffffff;stroke:#ffffff;" x="492.675176" xlink:href="#C0_0_e08d682d17" y="354.974546"/>
    </g>
    <g clip-path="url(#pf8b87c34b2)">
     <use style="fill:#ffffff;stroke:#ffffff;" x="538.678013" xlink:href="#C0_0_e08d682d17" y="354.974546"/>
    </g>
    <g clip-path="url(#pf8b87c34b2)">
     <use style="fill:#ffffff;stroke:#ffffff;" x="584.680849" xlink:href="#C0_0_e08d682d17" y="354.974546"/>
    </g>
    <g clip-path="url(#pf8b87c34b2)">
     <use style="fill:#ffffff;stroke:#ffffff;" x="630.683685" xlink:href="#C0_0_e08d682d17" y="354.974546"/>
    </g>
    <g clip-path="url(#pf8b87c34b2)">
     <use style="fill:#ffffff;stroke:#ffffff;" x="232.75915" xlink:href="#C0_0_e08d682d17" y="18.358787"/>
    </g>
    <g clip-path="url(#pf8b87c34b2)">
     <use style="fill:#ffffff;stroke:#ffffff;" x="32.646811" xlink:href="#C0_0_e08d682d17" y="271.805039"/>
    </g>
    <g clip-path="url(#pf8b87c34b2)">
     <use style="fill:#ffffff;stroke:#ffffff;" x="423.670921" xlink:href="#C0_0_e08d682d17" y="104.309044"/>
    </g>
    <g clip-path="url(#pf8b87c34b2)">
     <use style="fill:#ffffff;stroke:#ffffff;" x="350.066383" xlink:href="#C0_0_e08d682d17" y="104.309044"/>
    </g>
    <g clip-path="url(#pf8b87c34b2)">
     <use style="fill:#ffffff;stroke:#ffffff;" x="676.686522" xlink:href="#C0_0_e08d682d17" y="354.974546"/>
    </g>
    <g clip-path="url(#pf8b87c34b2)">
     <use style="fill:#ffffff;stroke:#ffffff;" x="170.655321" xlink:href="#C0_0_e08d682d17" y="271.805039"/>
    </g>
    <g clip-path="url(#pf8b87c34b2)">
     <use style="fill:#ffffff;stroke:#ffffff;" x="239.659576" xlink:href="#C0_0_e08d682d17" y="188.635531"/>
    </g>
    <g clip-path="url(#pf8b87c34b2)">
     <use style="fill:#ffffff;stroke:#ffffff;" x="216.658157" xlink:href="#C0_0_e08d682d17" y="271.805039"/>
    </g>
    <g clip-path="url(#pf8b87c34b2)">
     <use style="fill:#ffffff;stroke:#ffffff;" x="262.660994" xlink:href="#C0_0_e08d682d17" y="271.805039"/>
    </g>
    <g clip-path="url(#pf8b87c34b2)">
     <use style="fill:#ffffff;stroke:#ffffff;" x="78.649648" xlink:href="#C0_0_e08d682d17" y="271.805039"/>
    </g>
    <g clip-path="url(#pf8b87c34b2)">
     <use style="fill:#ffffff;stroke:#ffffff;" x="354.666667" xlink:href="#C0_0_e08d682d17" y="271.805039"/>
    </g>
    <g clip-path="url(#pf8b87c34b2)">
     <use style="fill:#ffffff;stroke:#ffffff;" x="400.669503" xlink:href="#C0_0_e08d682d17" y="271.805039"/>
    </g>
    <g clip-path="url(#pf8b87c34b2)">
     <use style="fill:#ffffff;stroke:#ffffff;" x="492.675176" xlink:href="#C0_0_e08d682d17" y="188.635531"/>
    </g>
    <g clip-path="url(#pf8b87c34b2)">
     <use style="fill:#ffffff;stroke:#ffffff;" x="584.680849" xlink:href="#C0_0_e08d682d17" y="271.805039"/>
    </g>
    <g clip-path="url(#pf8b87c34b2)">
     <use style="fill:#ffffff;stroke:#ffffff;" x="124.652484" xlink:href="#C0_0_e08d682d17" y="271.805039"/>
    </g>
    <g clip-path="url(#pf8b87c34b2)">
     <use style="fill:#808080;stroke:#808080;" x="228.158866" xlink:href="#C0_0_e08d682d17" y="18.358787"/>
    </g>
    <g clip-path="url(#pf8b87c34b2)">
     <use style="fill:#ffffff;stroke:#ffffff;" x="308.66383" xlink:href="#C0_0_e08d682d17" y="271.805039"/>
    </g>
    <g clip-path="url(#pf8b87c34b2)">
     <use style="fill:#ffffff;stroke:#ffffff;" x="492.675176" xlink:href="#C0_0_e08d682d17" y="271.805039"/>
    </g>
    <g clip-path="url(#pf8b87c34b2)">
     <use style="fill:#ffffff;stroke:#ffffff;" x="630.683685" xlink:href="#C0_0_e08d682d17" y="271.805039"/>
    </g>
   </g>
   <g id="text_35">
    <g clip-path="url(#pf8b87c34b2)">
     <!-- Mais -->
     <defs>
      <path d="M 9.8125 72.90625 
L 24.515625 72.90625 
L 43.109375 23.296875 
L 61.8125 72.90625 
L 76.515625 72.90625 
L 76.515625 0 
L 66.890625 0 
L 66.890625 64.015625 
L 48.09375 14.015625 
L 38.1875 14.015625 
L 19.390625 64.015625 
L 19.390625 0 
L 9.8125 0 
z
" id="DejaVuSans-77"/>
      <path d="M 44.28125 53.078125 
L 44.28125 44.578125 
Q 40.484375 46.53125 36.375 47.5 
Q 32.28125 48.484375 27.875 48.484375 
Q 21.1875 48.484375 17.84375 46.4375 
Q 14.5 44.390625 14.5 40.28125 
Q 14.5 37.15625 16.890625 35.375 
Q 19.28125 33.59375 26.515625 31.984375 
L 29.59375 31.296875 
Q 39.15625 29.25 43.1875 25.515625 
Q 47.21875 21.78125 47.21875 15.09375 
Q 47.21875 7.46875 41.1875 3.015625 
Q 35.15625 -1.421875 24.609375 -1.421875 
Q 20.21875 -1.421875 15.453125 -0.5625 
Q 10.6875 0.296875 5.421875 2 
L 5.421875 11.28125 
Q 10.40625 8.6875 15.234375 7.390625 
Q 20.0625 6.109375 24.8125 6.109375 
Q 31.15625 6.109375 34.5625 8.28125 
Q 37.984375 10.453125 37.984375 14.40625 
Q 37.984375 18.0625 35.515625 20.015625 
Q 33.0625 21.96875 24.703125 23.78125 
L 21.578125 24.515625 
Q 13.234375 26.265625 9.515625 29.90625 
Q 5.8125 33.546875 5.8125 39.890625 
Q 5.8125 47.609375 11.28125 51.796875 
Q 16.75 56 26.8125 56 
Q 31.78125 56 36.171875 55.265625 
Q 40.578125 54.546875 44.28125 53.078125 
z
" id="DejaVuSans-115"/>
     </defs>
     <g transform="translate(21.274936 357.733921)scale(0.1 -0.1)">
      <use xlink:href="#DejaVuSans-77"/>
      <use x="86.279297" xlink:href="#DejaVuSans-97"/>
      <use x="147.558594" xlink:href="#DejaVuSans-105"/>
      <use x="175.341797" xlink:href="#DejaVuSans-115"/>
     </g>
    </g>
   </g>
   <g id="text_36">
    <g clip-path="url(#pf8b87c34b2)">
     <!-- bientôt -->
     <defs>
      <path d="M 48.6875 27.296875 
Q 48.6875 37.203125 44.609375 42.84375 
Q 40.53125 48.484375 33.40625 48.484375 
Q 26.265625 48.484375 22.1875 42.84375 
Q 18.109375 37.203125 18.109375 27.296875 
Q 18.109375 17.390625 22.1875 11.75 
Q 26.265625 6.109375 33.40625 6.109375 
Q 40.53125 6.109375 44.609375 11.75 
Q 48.6875 17.390625 48.6875 27.296875 
z
M 18.109375 46.390625 
Q 20.953125 51.265625 25.265625 53.625 
Q 29.59375 56 35.59375 56 
Q 45.5625 56 51.78125 48.09375 
Q 58.015625 40.1875 58.015625 27.296875 
Q 58.015625 14.40625 51.78125 6.484375 
Q 45.5625 -1.421875 35.59375 -1.421875 
Q 29.59375 -1.421875 25.265625 0.953125 
Q 20.953125 3.328125 18.109375 8.203125 
L 18.109375 0 
L 9.078125 0 
L 9.078125 75.984375 
L 18.109375 75.984375 
z
" id="DejaVuSans-98"/>
      <path d="M 18.3125 70.21875 
L 18.3125 54.6875 
L 36.8125 54.6875 
L 36.8125 47.703125 
L 18.3125 47.703125 
L 18.3125 18.015625 
Q 18.3125 11.328125 20.140625 9.421875 
Q 21.96875 7.515625 27.59375 7.515625 
L 36.8125 7.515625 
L 36.8125 0 
L 27.59375 0 
Q 17.1875 0 13.234375 3.875 
Q 9.28125 7.765625 9.28125 18.015625 
L 9.28125 47.703125 
L 2.6875 47.703125 
L 2.6875 54.6875 
L 9.28125 54.6875 
L 9.28125 70.21875 
z
" id="DejaVuSans-116"/>
      <path d="M 30.609375 48.390625 
Q 23.390625 48.390625 19.1875 42.75 
Q 14.984375 37.109375 14.984375 27.296875 
Q 14.984375 17.484375 19.15625 11.84375 
Q 23.34375 6.203125 30.609375 6.203125 
Q 37.796875 6.203125 41.984375 11.859375 
Q 46.1875 17.53125 46.1875 27.296875 
Q 46.1875 37.015625 41.984375 42.703125 
Q 37.796875 48.390625 30.609375 48.390625 
z
M 30.609375 56 
Q 42.328125 56 49.015625 48.375 
Q 55.71875 40.765625 55.71875 27.296875 
Q 55.71875 13.875 49.015625 6.21875 
Q 42.328125 -1.421875 30.609375 -1.421875 
Q 18.84375 -1.421875 12.171875 6.21875 
Q 5.515625 13.875 5.515625 27.296875 
Q 5.515625 40.765625 12.171875 48.375 
Q 18.84375 56 30.609375 56 
z
M 27.015625 79.984375 
L 34.234375 79.984375 
L 46.203125 61.625 
L 39.421875 61.625 
L 30.625 73.578125 
L 21.84375 61.625 
L 15.046875 61.625 
z
" id="DejaVuSans-244"/>
     </defs>
     <g transform="translate(60.861367 357.733921)scale(0.1 -0.1)">
      <use xlink:href="#DejaVuSans-98"/>
      <use x="63.476562" xlink:href="#DejaVuSans-105"/>
      <use x="91.259766" xlink:href="#DejaVuSans-101"/>
      <use x="152.783203" xlink:href="#DejaVuSans-110"/>
      <use x="216.162109" xlink:href="#DejaVuSans-116"/>
      <use x="255.371094" xlink:href="#DejaVuSans-244"/>
      <use x="316.552734" xlink:href="#DejaVuSans-116"/>
     </g>
    </g>
   </g>
   <g id="text_37">
    <g clip-path="url(#pf8b87c34b2)">
     <!-- , -->
     <defs>
      <path d="M 11.71875 12.40625 
L 22.015625 12.40625 
L 22.015625 4 
L 14.015625 -11.625 
L 7.71875 -11.625 
L 11.71875 4 
z
" id="DejaVuSans-44"/>
     </defs>
     <g transform="translate(123.063422 357.733921)scale(0.1 -0.1)">
      <use xlink:href="#DejaVuSans-44"/>
     </g>
    </g>
   </g>
   <g id="text_38">
    <g clip-path="url(#pf8b87c34b2)">
     <!-- collé -->
     <defs>
      <path d="M 48.78125 52.59375 
L 48.78125 44.1875 
Q 44.96875 46.296875 41.140625 47.34375 
Q 37.3125 48.390625 33.40625 48.390625 
Q 24.65625 48.390625 19.8125 42.84375 
Q 14.984375 37.3125 14.984375 27.296875 
Q 14.984375 17.28125 19.8125 11.734375 
Q 24.65625 6.203125 33.40625 6.203125 
Q 37.3125 6.203125 41.140625 7.25 
Q 44.96875 8.296875 48.78125 10.40625 
L 48.78125 2.09375 
Q 45.015625 0.34375 40.984375 -0.53125 
Q 36.96875 -1.421875 32.421875 -1.421875 
Q 20.0625 -1.421875 12.78125 6.34375 
Q 5.515625 14.109375 5.515625 27.296875 
Q 5.515625 40.671875 12.859375 48.328125 
Q 20.21875 56 33.015625 56 
Q 37.15625 56 41.109375 55.140625 
Q 45.0625 54.296875 48.78125 52.59375 
z
" id="DejaVuSans-99"/>
      <path d="M 30.609375 48.390625 
Q 23.390625 48.390625 19.1875 42.75 
Q 14.984375 37.109375 14.984375 27.296875 
Q 14.984375 17.484375 19.15625 11.84375 
Q 23.34375 6.203125 30.609375 6.203125 
Q 37.796875 6.203125 41.984375 11.859375 
Q 46.1875 17.53125 46.1875 27.296875 
Q 46.1875 37.015625 41.984375 42.703125 
Q 37.796875 48.390625 30.609375 48.390625 
z
M 30.609375 56 
Q 42.328125 56 49.015625 48.375 
Q 55.71875 40.765625 55.71875 27.296875 
Q 55.71875 13.875 49.015625 6.21875 
Q 42.328125 -1.421875 30.609375 -1.421875 
Q 18.84375 -1.421875 12.171875 6.21875 
Q 5.515625 13.875 5.515625 27.296875 
Q 5.515625 40.765625 12.171875 48.375 
Q 18.84375 56 30.609375 56 
z
" id="DejaVuSans-111"/>
      <path d="M 56.203125 29.59375 
L 56.203125 25.203125 
L 14.890625 25.203125 
Q 15.484375 15.921875 20.484375 11.0625 
Q 25.484375 6.203125 34.421875 6.203125 
Q 39.59375 6.203125 44.453125 7.46875 
Q 49.3125 8.734375 54.109375 11.28125 
L 54.109375 2.78125 
Q 49.265625 0.734375 44.1875 -0.34375 
Q 39.109375 -1.421875 33.890625 -1.421875 
Q 20.796875 -1.421875 13.15625 6.1875 
Q 5.515625 13.8125 5.515625 26.8125 
Q 5.515625 40.234375 12.765625 48.109375 
Q 20.015625 56 32.328125 56 
Q 43.359375 56 49.78125 48.890625 
Q 56.203125 41.796875 56.203125 29.59375 
z
M 47.21875 32.234375 
Q 47.125 39.59375 43.09375 43.984375 
Q 39.0625 48.390625 32.421875 48.390625 
Q 24.90625 48.390625 20.390625 44.140625 
Q 15.875 39.890625 15.1875 32.171875 
z
M 38.53125 79.984375 
L 48.25 79.984375 
L 32.34375 61.625 
L 24.859375 61.625 
z
" id="DejaVuSans-233"/>
     </defs>
     <g transform="translate(158.99204 357.733921)scale(0.1 -0.1)">
      <use xlink:href="#DejaVuSans-99"/>
      <use x="54.980469" xlink:href="#DejaVuSans-111"/>
      <use x="116.162109" xlink:href="#DejaVuSans-108"/>
      <use x="143.945312" xlink:href="#DejaVuSans-108"/>
      <use x="171.728516" xlink:href="#DejaVuSans-233"/>
     </g>
    </g>
   </g>
   <g id="text_39">
    <g clip-path="url(#pf8b87c34b2)">
     <!-- au -->
     <defs>
      <path d="M 8.5 21.578125 
L 8.5 54.6875 
L 17.484375 54.6875 
L 17.484375 21.921875 
Q 17.484375 14.15625 20.5 10.265625 
Q 23.53125 6.390625 29.59375 6.390625 
Q 36.859375 6.390625 41.078125 11.03125 
Q 45.3125 15.671875 45.3125 23.6875 
L 45.3125 54.6875 
L 54.296875 54.6875 
L 54.296875 0 
L 45.3125 0 
L 45.3125 8.40625 
Q 42.046875 3.421875 37.71875 1 
Q 33.40625 -1.421875 27.6875 -1.421875 
Q 18.265625 -1.421875 13.375 4.4375 
Q 8.5 10.296875 8.5 21.578125 
z
M 31.109375 56 
z
" id="DejaVuSans-117"/>
     </defs>
     <g transform="translate(210.425345 357.733921)scale(0.1 -0.1)">
      <use xlink:href="#DejaVuSans-97"/>
      <use x="61.279297" xlink:href="#DejaVuSans-117"/>
     </g>
    </g>
   </g>
   <g id="text_40">
    <g clip-path="url(#pf8b87c34b2)">
     <!-- mur -->
     <g transform="translate(252.566462 357.733921)scale(0.1 -0.1)">
      <use xlink:href="#DejaVuSans-109"/>
      <use x="97.412109" xlink:href="#DejaVuSans-117"/>
      <use x="160.791016" xlink:href="#DejaVuSans-114"/>
     </g>
    </g>
   </g>
   <g id="text_41">
    <g clip-path="url(#pf8b87c34b2)">
     <!-- , -->
     <g transform="translate(307.074768 357.733921)scale(0.1 -0.1)">
      <use xlink:href="#DejaVuSans-44"/>
     </g>
    </g>
   </g>
   <g id="text_42">
    <g clip-path="url(#pf8b87c34b2)">
     <!-- je -->
     <defs>
      <path d="M 9.421875 54.6875 
L 18.40625 54.6875 
L 18.40625 -0.984375 
Q 18.40625 -11.421875 14.421875 -16.109375 
Q 10.453125 -20.796875 1.609375 -20.796875 
L -1.8125 -20.796875 
L -1.8125 -13.1875 
L 0.59375 -13.1875 
Q 5.71875 -13.1875 7.5625 -10.8125 
Q 9.421875 -8.453125 9.421875 -0.984375 
z
M 9.421875 75.984375 
L 18.40625 75.984375 
L 18.40625 64.59375 
L 9.421875 64.59375 
z
" id="DejaVuSans-106"/>
     </defs>
     <g transform="translate(350.201042 357.733921)scale(0.1 -0.1)">
      <use xlink:href="#DejaVuSans-106"/>
      <use x="27.783203" xlink:href="#DejaVuSans-101"/>
     </g>
    </g>
   </g>
   <g id="text_43">
    <g clip-path="url(#pf8b87c34b2)">
     <!-- dus -->
     <defs>
      <path d="M 45.40625 46.390625 
L 45.40625 75.984375 
L 54.390625 75.984375 
L 54.390625 0 
L 45.40625 0 
L 45.40625 8.203125 
Q 42.578125 3.328125 38.25 0.953125 
Q 33.9375 -1.421875 27.875 -1.421875 
Q 17.96875 -1.421875 11.734375 6.484375 
Q 5.515625 14.40625 5.515625 27.296875 
Q 5.515625 40.1875 11.734375 48.09375 
Q 17.96875 56 27.875 56 
Q 33.9375 56 38.25 53.625 
Q 42.578125 51.265625 45.40625 46.390625 
z
M 14.796875 27.296875 
Q 14.796875 17.390625 18.875 11.75 
Q 22.953125 6.109375 30.078125 6.109375 
Q 37.203125 6.109375 41.296875 11.75 
Q 45.40625 17.390625 45.40625 27.296875 
Q 45.40625 37.203125 41.296875 42.84375 
Q 37.203125 48.484375 30.078125 48.484375 
Q 22.953125 48.484375 18.875 42.84375 
Q 14.796875 37.203125 14.796875 27.296875 
z
" id="DejaVuSans-100"/>
     </defs>
     <g transform="translate(391.721847 357.733921)scale(0.1 -0.1)">
      <use xlink:href="#DejaVuSans-100"/>
      <use x="63.476562" xlink:href="#DejaVuSans-117"/>
      <use x="126.855469" xlink:href="#DejaVuSans-115"/>
     </g>
    </g>
   </g>
   <g id="text_44">
    <g clip-path="url(#pf8b87c34b2)">
     <!-- m -->
     <g transform="translate(441.802027 357.733921)scale(0.1 -0.1)">
      <use xlink:href="#DejaVuSans-109"/>
     </g>
    </g>
   </g>
   <g id="text_45">
    <g clip-path="url(#pf8b87c34b2)">
     <!-- ' -->
     <defs>
      <path d="M 17.921875 72.90625 
L 17.921875 45.796875 
L 9.625 45.796875 
L 9.625 72.90625 
z
" id="DejaVuSans-39"/>
     </defs>
     <g transform="translate(491.300957 357.733921)scale(0.1 -0.1)">
      <use xlink:href="#DejaVuSans-39"/>
     </g>
    </g>
   </g>
   <g id="text_46">
    <g clip-path="url(#pf8b87c34b2)">
     <!-- expliquer -->
     <defs>
      <path d="M 54.890625 54.6875 
L 35.109375 28.078125 
L 55.90625 0 
L 45.3125 0 
L 29.390625 21.484375 
L 13.484375 0 
L 2.875 0 
L 24.125 28.609375 
L 4.6875 54.6875 
L 15.28125 54.6875 
L 29.78125 35.203125 
L 44.28125 54.6875 
z
" id="DejaVuSans-120"/>
      <path d="M 18.109375 8.203125 
L 18.109375 -20.796875 
L 9.078125 -20.796875 
L 9.078125 54.6875 
L 18.109375 54.6875 
L 18.109375 46.390625 
Q 20.953125 51.265625 25.265625 53.625 
Q 29.59375 56 35.59375 56 
Q 45.5625 56 51.78125 48.09375 
Q 58.015625 40.1875 58.015625 27.296875 
Q 58.015625 14.40625 51.78125 6.484375 
Q 45.5625 -1.421875 35.59375 -1.421875 
Q 29.59375 -1.421875 25.265625 0.953125 
Q 20.953125 3.328125 18.109375 8.203125 
z
M 48.6875 27.296875 
Q 48.6875 37.203125 44.609375 42.84375 
Q 40.53125 48.484375 33.40625 48.484375 
Q 26.265625 48.484375 22.1875 42.84375 
Q 18.109375 37.203125 18.109375 27.296875 
Q 18.109375 17.390625 22.1875 11.75 
Q 26.265625 6.109375 33.40625 6.109375 
Q 40.53125 6.109375 44.609375 11.75 
Q 48.6875 17.390625 48.6875 27.296875 
z
" id="DejaVuSans-112"/>
      <path d="M 14.796875 27.296875 
Q 14.796875 17.390625 18.875 11.75 
Q 22.953125 6.109375 30.078125 6.109375 
Q 37.203125 6.109375 41.296875 11.75 
Q 45.40625 17.390625 45.40625 27.296875 
Q 45.40625 37.203125 41.296875 42.84375 
Q 37.203125 48.484375 30.078125 48.484375 
Q 22.953125 48.484375 18.875 42.84375 
Q 14.796875 37.203125 14.796875 27.296875 
z
M 45.40625 8.203125 
Q 42.578125 3.328125 38.25 0.953125 
Q 33.9375 -1.421875 27.875 -1.421875 
Q 17.96875 -1.421875 11.734375 6.484375 
Q 5.515625 14.40625 5.515625 27.296875 
Q 5.515625 40.1875 11.734375 48.09375 
Q 17.96875 56 27.875 56 
Q 33.9375 56 38.25 53.625 
Q 42.578125 51.265625 45.40625 46.390625 
L 45.40625 54.6875 
L 54.390625 54.6875 
L 54.390625 -20.796875 
L 45.40625 -20.796875 
z
" id="DejaVuSans-113"/>
     </defs>
     <g transform="translate(515.215513 357.733921)scale(0.1 -0.1)">
      <use xlink:href="#DejaVuSans-101"/>
      <use x="61.507812" xlink:href="#DejaVuSans-120"/>
      <use x="120.6875" xlink:href="#DejaVuSans-112"/>
      <use x="184.164062" xlink:href="#DejaVuSans-108"/>
      <use x="211.947266" xlink:href="#DejaVuSans-105"/>
      <use x="239.730469" xlink:href="#DejaVuSans-113"/>
      <use x="303.207031" xlink:href="#DejaVuSans-117"/>
      <use x="366.585938" xlink:href="#DejaVuSans-101"/>
      <use x="428.109375" xlink:href="#DejaVuSans-114"/>
     </g>
    </g>
   </g>
   <g id="text_47">
    <g clip-path="url(#pf8b87c34b2)">
     <!-- catégoriquement -->
     <defs>
      <path d="M 45.40625 27.984375 
Q 45.40625 37.75 41.375 43.109375 
Q 37.359375 48.484375 30.078125 48.484375 
Q 22.859375 48.484375 18.828125 43.109375 
Q 14.796875 37.75 14.796875 27.984375 
Q 14.796875 18.265625 18.828125 12.890625 
Q 22.859375 7.515625 30.078125 7.515625 
Q 37.359375 7.515625 41.375 12.890625 
Q 45.40625 18.265625 45.40625 27.984375 
z
M 54.390625 6.78125 
Q 54.390625 -7.171875 48.1875 -13.984375 
Q 42 -20.796875 29.203125 -20.796875 
Q 24.46875 -20.796875 20.265625 -20.09375 
Q 16.0625 -19.390625 12.109375 -17.921875 
L 12.109375 -9.1875 
Q 16.0625 -11.328125 19.921875 -12.34375 
Q 23.78125 -13.375 27.78125 -13.375 
Q 36.625 -13.375 41.015625 -8.765625 
Q 45.40625 -4.15625 45.40625 5.171875 
L 45.40625 9.625 
Q 42.625 4.78125 38.28125 2.390625 
Q 33.9375 0 27.875 0 
Q 17.828125 0 11.671875 7.65625 
Q 5.515625 15.328125 5.515625 27.984375 
Q 5.515625 40.671875 11.671875 48.328125 
Q 17.828125 56 27.875 56 
Q 33.9375 56 38.28125 53.609375 
Q 42.625 51.21875 45.40625 46.390625 
L 45.40625 54.6875 
L 54.390625 54.6875 
z
" id="DejaVuSans-103"/>
     </defs>
     <g transform="translate(541.657411 357.933921)scale(0.1 -0.1)">
      <use xlink:href="#DejaVuSans-99"/>
      <use x="54.980469" xlink:href="#DejaVuSans-97"/>
      <use x="116.259766" xlink:href="#DejaVuSans-116"/>
      <use x="155.46875" xlink:href="#DejaVuSans-233"/>
      <use x="216.992188" xlink:href="#DejaVuSans-103"/>
      <use x="280.46875" xlink:href="#DejaVuSans-111"/>
      <use x="341.650391" xlink:href="#DejaVuSans-114"/>
      <use x="382.763672" xlink:href="#DejaVuSans-105"/>
      <use x="410.546875" xlink:href="#DejaVuSans-113"/>
      <use x="474.023438" xlink:href="#DejaVuSans-117"/>
      <use x="537.402344" xlink:href="#DejaVuSans-101"/>
      <use x="598.925781" xlink:href="#DejaVuSans-109"/>
      <use x="696.337891" xlink:href="#DejaVuSans-101"/>
      <use x="757.861328" xlink:href="#DejaVuSans-110"/>
      <use x="821.240234" xlink:href="#DejaVuSans-116"/>
     </g>
    </g>
   </g>
   <g id="text_48">
    <g clip-path="url(#pf8b87c34b2)">
     <!-- . -->
     <defs>
      <path d="M 10.6875 12.40625 
L 21 12.40625 
L 21 0 
L 10.6875 0 
z
" id="DejaVuSans-46"/>
     </defs>
     <g transform="translate(629.094623 357.733921)scale(0.1 -0.1)">
      <use xlink:href="#DejaVuSans-46"/>
     </g>
    </g>
   </g>
   <g id="text_49">
    <g clip-path="url(#pf8b87c34b2)">
     <!-- 1.1 -->
     <defs>
      <path d="M 12.40625 8.296875 
L 28.515625 8.296875 
L 28.515625 63.921875 
L 10.984375 60.40625 
L 10.984375 69.390625 
L 28.421875 72.90625 
L 38.28125 72.90625 
L 38.28125 8.296875 
L 54.390625 8.296875 
L 54.390625 0 
L 12.40625 0 
z
" id="DejaVuSans-49"/>
     </defs>
     <g transform="translate(224.807588 21.118162)scale(0.1 -0.1)">
      <use xlink:href="#DejaVuSans-49"/>
      <use x="63.623047" xlink:href="#DejaVuSans-46"/>
      <use x="95.410156" xlink:href="#DejaVuSans-49"/>
     </g>
    </g>
   </g>
   <g id="text_50">
    <g clip-path="url(#pf8b87c34b2)">
     <!-- 1.2 -->
     <defs>
      <path d="M 19.1875 8.296875 
L 53.609375 8.296875 
L 53.609375 0 
L 7.328125 0 
L 7.328125 8.296875 
Q 12.9375 14.109375 22.625 23.890625 
Q 32.328125 33.6875 34.8125 36.53125 
Q 39.546875 41.84375 41.421875 45.53125 
Q 43.3125 49.21875 43.3125 52.78125 
Q 43.3125 58.59375 39.234375 62.25 
Q 35.15625 65.921875 28.609375 65.921875 
Q 23.96875 65.921875 18.8125 64.3125 
Q 13.671875 62.703125 7.8125 59.421875 
L 7.8125 69.390625 
Q 13.765625 71.78125 18.9375 73 
Q 24.125 74.21875 28.421875 74.21875 
Q 39.75 74.21875 46.484375 68.546875 
Q 53.21875 62.890625 53.21875 53.421875 
Q 53.21875 48.921875 51.53125 44.890625 
Q 49.859375 40.875 45.40625 35.40625 
Q 44.1875 33.984375 37.640625 27.21875 
Q 31.109375 20.453125 19.1875 8.296875 
z
" id="DejaVuSans-50"/>
     </defs>
     <g transform="translate(24.695249 274.564414)scale(0.1 -0.1)">
      <use xlink:href="#DejaVuSans-49"/>
      <use x="63.623047" xlink:href="#DejaVuSans-46"/>
      <use x="95.410156" xlink:href="#DejaVuSans-50"/>
     </g>
    </g>
   </g>
   <g id="text_51">
    <g clip-path="url(#pf8b87c34b2)">
     <!-- 1.3 -->
     <defs>
      <path d="M 40.578125 39.3125 
Q 47.65625 37.796875 51.625 33 
Q 55.609375 28.21875 55.609375 21.1875 
Q 55.609375 10.40625 48.1875 4.484375 
Q 40.765625 -1.421875 27.09375 -1.421875 
Q 22.515625 -1.421875 17.65625 -0.515625 
Q 12.796875 0.390625 7.625 2.203125 
L 7.625 11.71875 
Q 11.71875 9.328125 16.59375 8.109375 
Q 21.484375 6.890625 26.8125 6.890625 
Q 36.078125 6.890625 40.9375 10.546875 
Q 45.796875 14.203125 45.796875 21.1875 
Q 45.796875 27.640625 41.28125 31.265625 
Q 36.765625 34.90625 28.71875 34.90625 
L 20.21875 34.90625 
L 20.21875 43.015625 
L 29.109375 43.015625 
Q 36.375 43.015625 40.234375 45.921875 
Q 44.09375 48.828125 44.09375 54.296875 
Q 44.09375 59.90625 40.109375 62.90625 
Q 36.140625 65.921875 28.71875 65.921875 
Q 24.65625 65.921875 20.015625 65.03125 
Q 15.375 64.15625 9.8125 62.3125 
L 9.8125 71.09375 
Q 15.4375 72.65625 20.34375 73.4375 
Q 25.25 74.21875 29.59375 74.21875 
Q 40.828125 74.21875 47.359375 69.109375 
Q 53.90625 64.015625 53.90625 55.328125 
Q 53.90625 49.265625 50.4375 45.09375 
Q 46.96875 40.921875 40.578125 39.3125 
z
" id="DejaVuSans-51"/>
     </defs>
     <g transform="translate(415.719359 107.068419)scale(0.1 -0.1)">
      <use xlink:href="#DejaVuSans-49"/>
      <use x="63.623047" xlink:href="#DejaVuSans-46"/>
      <use x="95.410156" xlink:href="#DejaVuSans-51"/>
     </g>
    </g>
   </g>
   <g id="text_52">
    <g clip-path="url(#pf8b87c34b2)">
     <!-- 1.4 -->
     <defs>
      <path d="M 37.796875 64.3125 
L 12.890625 25.390625 
L 37.796875 25.390625 
z
M 35.203125 72.90625 
L 47.609375 72.90625 
L 47.609375 25.390625 
L 58.015625 25.390625 
L 58.015625 17.1875 
L 47.609375 17.1875 
L 47.609375 0 
L 37.796875 0 
L 37.796875 17.1875 
L 4.890625 17.1875 
L 4.890625 26.703125 
z
" id="DejaVuSans-52"/>
     </defs>
     <g transform="translate(342.114821 107.068419)scale(0.1 -0.1)">
      <use xlink:href="#DejaVuSans-49"/>
      <use x="63.623047" xlink:href="#DejaVuSans-46"/>
      <use x="95.410156" xlink:href="#DejaVuSans-52"/>
     </g>
    </g>
   </g>
   <g id="text_53">
    <g clip-path="url(#pf8b87c34b2)">
     <!-- IMPLICIT -->
     <defs>
      <path d="M 9.8125 72.90625 
L 19.671875 72.90625 
L 19.671875 0 
L 9.8125 0 
z
" id="DejaVuSans-73"/>
     </defs>
     <g transform="translate(655.601366 357.733921)scale(0.1 -0.1)">
      <use xlink:href="#DejaVuSans-73"/>
      <use x="29.492188" xlink:href="#DejaVuSans-77"/>
      <use x="115.771484" xlink:href="#DejaVuSans-80"/>
      <use x="176.074219" xlink:href="#DejaVuSans-76"/>
      <use x="231.787109" xlink:href="#DejaVuSans-73"/>
      <use x="261.279297" xlink:href="#DejaVuSans-67"/>
      <use x="331.103516" xlink:href="#DejaVuSans-73"/>
      <use x="360.595703" xlink:href="#DejaVuSans-84"/>
     </g>
    </g>
   </g>
   <g id="text_54">
    <g clip-path="url(#pf8b87c34b2)">
     <!-- 1.8 -->
     <defs>
      <path d="M 31.78125 34.625 
Q 24.75 34.625 20.71875 30.859375 
Q 16.703125 27.09375 16.703125 20.515625 
Q 16.703125 13.921875 20.71875 10.15625 
Q 24.75 6.390625 31.78125 6.390625 
Q 38.8125 6.390625 42.859375 10.171875 
Q 46.921875 13.96875 46.921875 20.515625 
Q 46.921875 27.09375 42.890625 30.859375 
Q 38.875 34.625 31.78125 34.625 
z
M 21.921875 38.8125 
Q 15.578125 40.375 12.03125 44.71875 
Q 8.5 49.078125 8.5 55.328125 
Q 8.5 64.0625 14.71875 69.140625 
Q 20.953125 74.21875 31.78125 74.21875 
Q 42.671875 74.21875 48.875 69.140625 
Q 55.078125 64.0625 55.078125 55.328125 
Q 55.078125 49.078125 51.53125 44.71875 
Q 48 40.375 41.703125 38.8125 
Q 48.828125 37.15625 52.796875 32.3125 
Q 56.78125 27.484375 56.78125 20.515625 
Q 56.78125 9.90625 50.3125 4.234375 
Q 43.84375 -1.421875 31.78125 -1.421875 
Q 19.734375 -1.421875 13.25 4.234375 
Q 6.78125 9.90625 6.78125 20.515625 
Q 6.78125 27.484375 10.78125 32.3125 
Q 14.796875 37.15625 21.921875 38.8125 
z
M 18.3125 54.390625 
Q 18.3125 48.734375 21.84375 45.5625 
Q 25.390625 42.390625 31.78125 42.390625 
Q 38.140625 42.390625 41.71875 45.5625 
Q 45.3125 48.734375 45.3125 54.390625 
Q 45.3125 60.0625 41.71875 63.234375 
Q 38.140625 66.40625 31.78125 66.40625 
Q 25.390625 66.40625 21.84375 63.234375 
Q 18.3125 60.0625 18.3125 54.390625 
z
" id="DejaVuSans-56"/>
     </defs>
     <g transform="translate(162.703758 274.564414)scale(0.1 -0.1)">
      <use xlink:href="#DejaVuSans-49"/>
      <use x="63.623047" xlink:href="#DejaVuSans-46"/>
      <use x="95.410156" xlink:href="#DejaVuSans-56"/>
     </g>
    </g>
   </g>
   <g id="text_55">
    <g clip-path="url(#pf8b87c34b2)">
     <!-- 1.9 -->
     <defs>
      <path d="M 10.984375 1.515625 
L 10.984375 10.5 
Q 14.703125 8.734375 18.5 7.8125 
Q 22.3125 6.890625 25.984375 6.890625 
Q 35.75 6.890625 40.890625 13.453125 
Q 46.046875 20.015625 46.78125 33.40625 
Q 43.953125 29.203125 39.59375 26.953125 
Q 35.25 24.703125 29.984375 24.703125 
Q 19.046875 24.703125 12.671875 31.3125 
Q 6.296875 37.9375 6.296875 49.421875 
Q 6.296875 60.640625 12.9375 67.421875 
Q 19.578125 74.21875 30.609375 74.21875 
Q 43.265625 74.21875 49.921875 64.515625 
Q 56.59375 54.828125 56.59375 36.375 
Q 56.59375 19.140625 48.40625 8.859375 
Q 40.234375 -1.421875 26.421875 -1.421875 
Q 22.703125 -1.421875 18.890625 -0.6875 
Q 15.09375 0.046875 10.984375 1.515625 
z
M 30.609375 32.421875 
Q 37.25 32.421875 41.125 36.953125 
Q 45.015625 41.5 45.015625 49.421875 
Q 45.015625 57.28125 41.125 61.84375 
Q 37.25 66.40625 30.609375 66.40625 
Q 23.96875 66.40625 20.09375 61.84375 
Q 16.21875 57.28125 16.21875 49.421875 
Q 16.21875 41.5 20.09375 36.953125 
Q 23.96875 32.421875 30.609375 32.421875 
z
" id="DejaVuSans-57"/>
     </defs>
     <g transform="translate(231.708013 191.394906)scale(0.1 -0.1)">
      <use xlink:href="#DejaVuSans-49"/>
      <use x="63.623047" xlink:href="#DejaVuSans-46"/>
      <use x="95.410156" xlink:href="#DejaVuSans-57"/>
     </g>
    </g>
   </g>
   <g id="text_56">
    <g clip-path="url(#pf8b87c34b2)">
     <!-- 1.11 -->
     <g transform="translate(205.525345 274.564414)scale(0.1 -0.1)">
      <use xlink:href="#DejaVuSans-49"/>
      <use x="63.623047" xlink:href="#DejaVuSans-46"/>
      <use x="95.410156" xlink:href="#DejaVuSans-49"/>
      <use x="159.033203" xlink:href="#DejaVuSans-49"/>
     </g>
    </g>
   </g>
   <g id="text_57">
    <g clip-path="url(#pf8b87c34b2)">
     <!-- 1.12 -->
     <g transform="translate(251.528181 274.564414)scale(0.1 -0.1)">
      <use xlink:href="#DejaVuSans-49"/>
      <use x="63.623047" xlink:href="#DejaVuSans-46"/>
      <use x="95.410156" xlink:href="#DejaVuSans-49"/>
      <use x="159.033203" xlink:href="#DejaVuSans-50"/>
     </g>
    </g>
   </g>
   <g id="text_58">
    <g clip-path="url(#pf8b87c34b2)">
     <!-- 1.13 -->
     <g transform="translate(67.516835 274.564414)scale(0.1 -0.1)">
      <use xlink:href="#DejaVuSans-49"/>
      <use x="63.623047" xlink:href="#DejaVuSans-46"/>
      <use x="95.410156" xlink:href="#DejaVuSans-49"/>
      <use x="159.033203" xlink:href="#DejaVuSans-51"/>
     </g>
    </g>
   </g>
   <g id="text_59">
    <g clip-path="url(#pf8b87c34b2)">
     <!-- 1.14 -->
     <g transform="translate(343.533854 274.564414)scale(0.1 -0.1)">
      <use xlink:href="#DejaVuSans-49"/>
      <use x="63.623047" xlink:href="#DejaVuSans-46"/>
      <use x="95.410156" xlink:href="#DejaVuSans-49"/>
      <use x="159.033203" xlink:href="#DejaVuSans-52"/>
     </g>
    </g>
   </g>
   <g id="text_60">
    <g clip-path="url(#pf8b87c34b2)">
     <!-- 1.15 -->
     <defs>
      <path d="M 10.796875 72.90625 
L 49.515625 72.90625 
L 49.515625 64.59375 
L 19.828125 64.59375 
L 19.828125 46.734375 
Q 21.96875 47.46875 24.109375 47.828125 
Q 26.265625 48.1875 28.421875 48.1875 
Q 40.625 48.1875 47.75 41.5 
Q 54.890625 34.8125 54.890625 23.390625 
Q 54.890625 11.625 47.5625 5.09375 
Q 40.234375 -1.421875 26.90625 -1.421875 
Q 22.3125 -1.421875 17.546875 -0.640625 
Q 12.796875 0.140625 7.71875 1.703125 
L 7.71875 11.625 
Q 12.109375 9.234375 16.796875 8.0625 
Q 21.484375 6.890625 26.703125 6.890625 
Q 35.15625 6.890625 40.078125 11.328125 
Q 45.015625 15.765625 45.015625 23.390625 
Q 45.015625 31 40.078125 35.4375 
Q 35.15625 39.890625 26.703125 39.890625 
Q 22.75 39.890625 18.8125 39.015625 
Q 14.890625 38.140625 10.796875 36.28125 
z
" id="DejaVuSans-53"/>
     </defs>
     <g transform="translate(389.536691 274.564414)scale(0.1 -0.1)">
      <use xlink:href="#DejaVuSans-49"/>
      <use x="63.623047" xlink:href="#DejaVuSans-46"/>
      <use x="95.410156" xlink:href="#DejaVuSans-49"/>
      <use x="159.033203" xlink:href="#DejaVuSans-53"/>
     </g>
    </g>
   </g>
   <g id="text_61">
    <g clip-path="url(#pf8b87c34b2)">
     <!-- 1.16 -->
     <defs>
      <path d="M 33.015625 40.375 
Q 26.375 40.375 22.484375 35.828125 
Q 18.609375 31.296875 18.609375 23.390625 
Q 18.609375 15.53125 22.484375 10.953125 
Q 26.375 6.390625 33.015625 6.390625 
Q 39.65625 6.390625 43.53125 10.953125 
Q 47.40625 15.53125 47.40625 23.390625 
Q 47.40625 31.296875 43.53125 35.828125 
Q 39.65625 40.375 33.015625 40.375 
z
M 52.59375 71.296875 
L 52.59375 62.3125 
Q 48.875 64.0625 45.09375 64.984375 
Q 41.3125 65.921875 37.59375 65.921875 
Q 27.828125 65.921875 22.671875 59.328125 
Q 17.53125 52.734375 16.796875 39.40625 
Q 19.671875 43.65625 24.015625 45.921875 
Q 28.375 48.1875 33.59375 48.1875 
Q 44.578125 48.1875 50.953125 41.515625 
Q 57.328125 34.859375 57.328125 23.390625 
Q 57.328125 12.15625 50.6875 5.359375 
Q 44.046875 -1.421875 33.015625 -1.421875 
Q 20.359375 -1.421875 13.671875 8.265625 
Q 6.984375 17.96875 6.984375 36.375 
Q 6.984375 53.65625 15.1875 63.9375 
Q 23.390625 74.21875 37.203125 74.21875 
Q 40.921875 74.21875 44.703125 73.484375 
Q 48.484375 72.75 52.59375 71.296875 
z
" id="DejaVuSans-54"/>
     </defs>
     <g transform="translate(481.542364 191.394906)scale(0.1 -0.1)">
      <use xlink:href="#DejaVuSans-49"/>
      <use x="63.623047" xlink:href="#DejaVuSans-46"/>
      <use x="95.410156" xlink:href="#DejaVuSans-49"/>
      <use x="159.033203" xlink:href="#DejaVuSans-54"/>
     </g>
    </g>
   </g>
   <g id="text_62">
    <g clip-path="url(#pf8b87c34b2)">
     <!-- 1.17 -->
     <defs>
      <path d="M 8.203125 72.90625 
L 55.078125 72.90625 
L 55.078125 68.703125 
L 28.609375 0 
L 18.3125 0 
L 43.21875 64.59375 
L 8.203125 64.59375 
z
" id="DejaVuSans-55"/>
     </defs>
     <g transform="translate(573.548036 274.564414)scale(0.1 -0.1)">
      <use xlink:href="#DejaVuSans-49"/>
      <use x="63.623047" xlink:href="#DejaVuSans-46"/>
      <use x="95.410156" xlink:href="#DejaVuSans-49"/>
      <use x="159.033203" xlink:href="#DejaVuSans-55"/>
     </g>
    </g>
   </g>
   <g id="text_63">
    <g clip-path="url(#pf8b87c34b2)">
     <!-- 1.18 -->
     <g transform="translate(113.519672 274.564414)scale(0.1 -0.1)">
      <use xlink:href="#DejaVuSans-49"/>
      <use x="63.623047" xlink:href="#DejaVuSans-46"/>
      <use x="95.410156" xlink:href="#DejaVuSans-49"/>
      <use x="159.033203" xlink:href="#DejaVuSans-56"/>
     </g>
    </g>
   </g>
   <g id="text_64">
    <g clip-path="url(#pf8b87c34b2)">
     <!-- 1.19 -->
     <g transform="translate(217.026054 21.118162)scale(0.1 -0.1)">
      <use xlink:href="#DejaVuSans-49"/>
      <use x="63.623047" xlink:href="#DejaVuSans-46"/>
      <use x="95.410156" xlink:href="#DejaVuSans-49"/>
      <use x="159.033203" xlink:href="#DejaVuSans-57"/>
     </g>
    </g>
   </g>
   <g id="text_65">
    <g clip-path="url(#pf8b87c34b2)">
     <!-- 1.20 -->
     <defs>
      <path d="M 31.78125 66.40625 
Q 24.171875 66.40625 20.328125 58.90625 
Q 16.5 51.421875 16.5 36.375 
Q 16.5 21.390625 20.328125 13.890625 
Q 24.171875 6.390625 31.78125 6.390625 
Q 39.453125 6.390625 43.28125 13.890625 
Q 47.125 21.390625 47.125 36.375 
Q 47.125 51.421875 43.28125 58.90625 
Q 39.453125 66.40625 31.78125 66.40625 
z
M 31.78125 74.21875 
Q 44.046875 74.21875 50.515625 64.515625 
Q 56.984375 54.828125 56.984375 36.375 
Q 56.984375 17.96875 50.515625 8.265625 
Q 44.046875 -1.421875 31.78125 -1.421875 
Q 19.53125 -1.421875 13.0625 8.265625 
Q 6.59375 17.96875 6.59375 36.375 
Q 6.59375 54.828125 13.0625 64.515625 
Q 19.53125 74.21875 31.78125 74.21875 
z
" id="DejaVuSans-48"/>
     </defs>
     <g transform="translate(297.531018 274.564414)scale(0.1 -0.1)">
      <use xlink:href="#DejaVuSans-49"/>
      <use x="63.623047" xlink:href="#DejaVuSans-46"/>
      <use x="95.410156" xlink:href="#DejaVuSans-50"/>
      <use x="159.033203" xlink:href="#DejaVuSans-48"/>
     </g>
    </g>
   </g>
   <g id="text_66">
    <g clip-path="url(#pf8b87c34b2)">
     <!-- 1.21 -->
     <g transform="translate(481.542364 274.564414)scale(0.1 -0.1)">
      <use xlink:href="#DejaVuSans-49"/>
      <use x="63.623047" xlink:href="#DejaVuSans-46"/>
      <use x="95.410156" xlink:href="#DejaVuSans-50"/>
      <use x="159.033203" xlink:href="#DejaVuSans-49"/>
     </g>
    </g>
   </g>
   <g id="text_67">
    <g clip-path="url(#pf8b87c34b2)">
     <!-- 1.22 -->
     <g transform="translate(619.550873 274.564414)scale(0.1 -0.1)">
      <use xlink:href="#DejaVuSans-49"/>
      <use x="63.623047" xlink:href="#DejaVuSans-46"/>
      <use x="95.410156" xlink:href="#DejaVuSans-50"/>
      <use x="159.033203" xlink:href="#DejaVuSans-50"/>
     </g>
    </g>
   </g>
  </g>
 </g>
 <defs>
  <clipPath id="pf8b87c34b2">
   <rect height="373.333333" width="709.333333" x="0" y="0"/>
  </clipPath>
 </defs>
</svg>
