<?xml version="1.0" encoding="UTF-8"?>
<!DOCTYPE svg  PUBLIC '-//W3C//DTD SVG 1.1//EN'  'http://www.w3.org/Graphics/SVG/1.1/DTD/svg11.dtd'>
<svg width="1976pt" height="1040pt" version="1.1" viewBox="0 0 1976 1040" xmlns="http://www.w3.org/2000/svg" xmlns:xlink="http://www.w3.org/1999/xlink">
<defs>
<style type="text/css">*{stroke-linecap:butt;stroke-linejoin:round;}</style>
</defs>
<path d="m0 1040h1976v-1040h-1976z" fill="#fff"/>
<g fill="none" stroke="#000">
<path d="m646.51 48.187-490.84 791.14" clip-path="url(#a)"/>
<path d="m646.51 48.187-337.52 638.65" clip-path="url(#a)"/>
<path d="m646.51 48.187-206.1 791.14" clip-path="url(#a)"/>
<path d="m646.51 48.187 281.25 484.04" clip-path="url(#a)"/>
<path d="m646.51 48.187 633.54 484.04" clip-path="url(#a)"/>
<path d="m646.51 48.187 712.1 165.28" clip-path="url(#a)"/>
<path d="m646.51 48.187-556.55 791.14" clip-path="url(#a)"/>
<path d="m646.51 48.187-425.13 791.14" clip-path="url(#a)"/>
<path d="m646.51 48.187-249.91 791.14" clip-path="url(#a)"/>
<path d="m646.51 48.187 188.16 791.14" clip-path="url(#a)"/>
<path d="m646.51 48.187 451.01 791.14" clip-path="url(#a)"/>
<path d="m155.67 839.33-21.904 152.49" clip-path="url(#a)"/>
<path d="m155.67 839.33 21.904 152.49" clip-path="url(#a)"/>
<path d="m308.99 686.84-43.807 152.49" clip-path="url(#a)"/>
<path d="m308.99 686.84 43.807 152.49" clip-path="url(#a)"/>
<path d="m308.99 686.84v152.49" clip-path="url(#a)"/>
<path d="m440.41 839.33v152.49" clip-path="url(#a)"/>
<path d="m927.77 532.23 914.47 459.58" clip-path="url(#a)"/>
<path d="m927.77 532.23-421.64 154.61" clip-path="url(#a)"/>
<path d="m927.77 532.23-312.12 154.61" clip-path="url(#a)"/>
<path d="m927.77 532.23-180.7 154.61" clip-path="url(#a)"/>
<path d="m1280 532.23 606 459.58" clip-path="url(#a)"/>
<path d="m1280 532.23-357.76 154.61" clip-path="url(#a)"/>
<path d="m1280 532.23-248.24 154.61" clip-path="url(#a)"/>
<path d="m1358.6 213.47 439.82 778.35" clip-path="url(#a)"/>
<path d="m1358.6 213.47-217.28 625.86" clip-path="url(#a)"/>
<path d="m1358.6 213.47-129.67 473.37" clip-path="url(#a)"/>
<path d="m1358.6 213.47-129.67 625.86" clip-path="url(#a)"/>
<path d="m1358.6 213.47 36.798 161.18" clip-path="url(#a)"/>
<path d="m1141.3 839.33v152.49" clip-path="url(#a)"/>
<path d="m1228.9 686.84-43.807 152.49" clip-path="url(#a)"/>
<path d="m1228.9 686.84 43.807 152.49" clip-path="url(#a)"/>
<path d="m1228.9 839.33v152.49" clip-path="url(#a)"/>
<path d="m1395.4 374.64-78.853 464.68" clip-path="url(#a)"/>
<path d="m1395.4 374.64-35.046 464.68" clip-path="url(#a)"/>
<path d="m1395.4 374.64 113.9 157.59" clip-path="url(#a)"/>
<path d="m1316.6 839.33v152.49" clip-path="url(#a)"/>
<path d="m1360.4 839.33v152.49" clip-path="url(#a)"/>
<path d="m1509.3 532.23-105.14 307.1" clip-path="url(#a)"/>
<path d="m1509.3 532.23-61.33 307.1" clip-path="url(#a)"/>
<path d="m1509.3 532.23-17.523 307.1" clip-path="url(#a)"/>
<path d="m1509.3 532.23 26.284 307.1" clip-path="url(#a)"/>
<path d="m1509.3 532.23 157.71 154.61" clip-path="url(#a)"/>
<path d="m1404.2 839.33v152.49" clip-path="url(#a)"/>
<path d="m1448 839.33v152.49" clip-path="url(#a)"/>
<path d="m1491.8 839.33v152.49" clip-path="url(#a)"/>
<path d="m1535.6 839.33v152.49" clip-path="url(#a)"/>
<path d="m1667 686.84-87.614 152.49" clip-path="url(#a)"/>
<path d="m1667 686.84-43.807 152.49" clip-path="url(#a)"/>
<path d="m1667 686.84v152.49" clip-path="url(#a)"/>
<path d="m1667 686.84 43.807 152.49" clip-path="url(#a)"/>
<path d="m1667 686.84 87.614 152.49" clip-path="url(#a)"/>
<path d="m1579.4 839.33v152.49" clip-path="url(#a)"/>
<path d="m1623.2 839.33v152.49" clip-path="url(#a)"/>
<path d="m1667 839.33v152.49" clip-path="url(#a)"/>
<path d="m1710.8 839.33v152.49" clip-path="url(#a)"/>
<path d="m1185.1 839.33v152.49" clip-path="url(#a)"/>
<path d="m1272.7 839.33v152.49" clip-path="url(#a)"/>
<path d="m922.29 686.84-43.807 152.49" clip-path="url(#a)"/>
<path d="m922.29 686.84v152.49" clip-path="url(#a)"/>
<path d="m922.29 686.84 43.807 152.49" clip-path="url(#a)"/>
<path d="m1031.8 686.84-21.904 152.49" clip-path="url(#a)"/>
<path d="m1031.8 686.84 21.904 152.49" clip-path="url(#a)"/>
<path d="m1009.9 839.33v152.49" clip-path="url(#a)"/>
<path d="m1053.7 839.33v152.49" clip-path="url(#a)"/>
<path d="m878.48 839.33v152.49" clip-path="url(#a)"/>
<path d="m922.29 839.33v152.49" clip-path="url(#a)"/>
<path d="m966.1 839.33v152.49" clip-path="url(#a)"/>
<path d="m506.12 686.84-21.904 152.49" clip-path="url(#a)"/>
<path d="m506.12 686.84 21.904 152.49" clip-path="url(#a)"/>
<path d="m615.64 686.84-43.807 152.49" clip-path="url(#a)"/>
<path d="m615.64 686.84v152.49" clip-path="url(#a)"/>
<path d="m615.64 686.84 43.807 152.49" clip-path="url(#a)"/>
<path d="m747.06 686.84-43.807 152.49" clip-path="url(#a)"/>
<path d="m747.06 686.84v152.49" clip-path="url(#a)"/>
<path d="m747.06 686.84 43.807 152.49" clip-path="url(#a)"/>
<path d="m703.25 839.33v152.49" clip-path="url(#a)"/>
<path d="m747.06 839.33v152.49" clip-path="url(#a)"/>
<path d="m790.87 839.33v152.49" clip-path="url(#a)"/>
<path d="m571.83 839.33v152.49" clip-path="url(#a)"/>
<path d="m615.64 839.33v152.49" clip-path="url(#a)"/>
<path d="m659.45 839.33v152.49" clip-path="url(#a)"/>
<path d="m484.22 839.33v152.49" clip-path="url(#a)"/>
<path d="m528.03 839.33v152.49" clip-path="url(#a)"/>
<path d="m265.18 839.33v152.49" clip-path="url(#a)"/>
<path d="m89.956 839.33v152.49" clip-path="url(#a)"/>
<path d="m352.8 839.33v152.49" clip-path="url(#a)"/>
<path d="m684.09 374.64-243.68 464.68" clip-path="url(#a)"/>
<path d="m684.09 374.64 243.68 157.59" clip-path="url(#a)"/>
<path d="m757.14 48.187-601.47 791.14" clip-path="url(#a)"/>
<path d="m757.14 48.187 601.47 165.28" clip-path="url(#a)"/>
<path d="m221.38 839.33v152.49" clip-path="url(#a)"/>
<path d="m308.99 839.33v152.49" clip-path="url(#a)"/>
<path d="m396.61 839.33v152.49" clip-path="url(#a)"/>
<path d="m834.68 839.33v152.49" clip-path="url(#a)"/>
<path d="m1097.5 839.33v152.49" clip-path="url(#a)"/>
<path d="m1754.6 839.33v152.49" clip-path="url(#a)"/>
</g>
<path d="m405.24 448.96 2.35-3.7877q1.2653-2.0394-0.77409-3.3047l-6.5791-4.0819q-2.0394-1.2653-3.3047 0.77409l-2.35 3.7877q-1.2653 2.0394 0.77409 3.3047l6.5791 4.0819q2.0394 1.2653 3.3047-0.77409z" clip-path="url(#a)" fill="#fff" stroke="#fff"/>
<g clip-path="url(#a)">
<defs>
<path id="w" d="m9.8125 72.906h9.8594v-64.609h35.5v-8.2969h-45.359z"/>
</defs>
<g transform="translate(401.79 446.81) rotate(-58.183) scale(.08 -.08)">
<use xlink:href="#w"/>
</g>
</g>
<path d="m481.89 373.1 2.8111-5.3191q1.1214-2.1219-1.0005-3.2433l-6.8453-3.6177q-2.1219-1.1214-3.2433 1.0005l-2.8111 5.3191q-1.1214 2.1219 1.0005 3.2433l6.8453 3.6177q2.1219 1.1214 3.2433-1.0005z" clip-path="url(#a)" fill="#fff" stroke="#fff"/>
<g clip-path="url(#a)">
<defs>
<path id="ak" d="m9.8125 72.906h9.8594v-29.891h35.844v29.891h9.8594v-72.906h-9.8594v34.719h-35.844v-34.719h-9.8594z"/>
</defs>
<g transform="translate(478.3 371.2) rotate(-62.144) scale(.08 -.08)">
<use xlink:href="#ak"/>
</g>
</g>
<path d="m548.97 447.49 1.1237-4.3135q0.60503-2.3225-1.7175-2.9275l-7.4924-1.9518q-2.3225-0.60503-2.9275 1.7175l-1.1237 4.3135q-0.60503 2.3225 1.7175 2.9275l7.4924 1.9518q2.3225 0.60503 2.9275-1.7175z" clip-path="url(#a)" fill="#fff" stroke="#fff"/>
<g clip-path="url(#a)">
<g transform="translate(545.04 446.47) rotate(-75.398) scale(.08 -.08)">
<use xlink:href="#w"/>
</g>
</g>
<path d="m780.2 290.76 3.0226 5.2019q1.2058 2.0751 3.2809 0.86937l6.6944-3.8898q2.0751-1.2058 0.86937-3.2809l-3.0226-5.2019q-1.2058-2.0751-3.2809-0.86937l-6.6944 3.8898q-2.0751 1.2058-0.86937 3.2809z" clip-path="url(#a)" fill="#fff" stroke="#fff"/>
<g clip-path="url(#a)">
<g transform="translate(783.72 288.72) rotate(59.841) scale(.08 -.08)">
<use xlink:href="#ak"/>
</g>
</g>
<path d="m957.08 293.36 4.7806 3.6525q1.9071 1.4571 3.3641-0.45001l4.7006-6.1523q1.4571-1.9071-0.45001-3.3641l-4.7806-3.6525q-1.9071-1.4571-3.3641 0.45001l-4.7006 6.1523q-1.4571 1.9071 0.45001 3.3641z" clip-path="url(#a)" fill="#fff" stroke="#fff"/>
<g clip-path="url(#a)">
<g transform="translate(959.55 290.14) rotate(37.381) scale(.08 -.08)">
<use xlink:href="#ak"/>
</g>
</g>
<path d="m998.21 136.26 5.8605 1.3602q2.3379 0.54262 2.8805-1.7952l1.7505-7.542q0.54262-2.3379-1.7952-2.8805l-5.8605-1.3602q-2.3379-0.54262-2.8805 1.7952l-1.7505 7.542q-0.54262 2.3379 1.7952 2.8805z" clip-path="url(#a)" fill="#fff" stroke="#fff"/>
<g clip-path="url(#a)">
<g transform="translate(999.13 132.3) rotate(13.067) scale(.08 -.08)">
<use xlink:href="#ak"/>
</g>
</g>
<path d="m371.68 449.76 3.3688-4.7887q1.3809-1.9629-0.58204-3.3438l-6.3325-4.4548q-1.9629-1.3809-3.3438 0.58204l-3.3688 4.7887q-1.3809 1.9629 0.58204 3.3438l6.3325 4.4548q1.9629 1.3809 3.3438-0.58204z" clip-path="url(#a)" fill="#fff" stroke="#fff"/>
<g clip-path="url(#a)">
<defs>
<path id="ab" d="m8.6875 72.906h9.9219v-44.297q0-11.719 4.2344-16.875 4.25-5.1406 13.781-5.1406 9.4688 0 13.719 5.1406 4.25 5.1562 4.25 16.875v44.297h9.9062v-45.516q0-14.25-7.0625-21.531-7.0469-7.2812-20.812-7.2812-13.828 0-20.891 7.2812-7.0469 7.2812-7.0469 21.531z"/>
</defs>
<g transform="translate(368.35 447.42) rotate(-54.874) scale(.08 -.08)">
<use xlink:href="#ab"/>
</g>
</g>
<path d="m438.08 449.3 2.7715-5.1575q1.136-2.1141-0.97804-3.2501l-6.8202-3.6649q-2.1141-1.136-3.2501 0.97804l-2.7715 5.1575q-1.136 2.1141 0.97804 3.2501l6.8202 3.6649q2.1141 1.136 3.2501-0.97804z" clip-path="url(#a)" fill="#fff" stroke="#fff"/>
<g clip-path="url(#a)">
<g transform="translate(434.5 447.38) rotate(-61.748) scale(.08 -.08)">
<use xlink:href="#ab"/>
</g>
</g>
<path d="m526.66 448.44 1.7636-5.5831q0.72291-2.2885-1.5656-3.0114l-7.3829-2.3321q-2.2885-0.72291-3.0114 1.5656l-1.7636 5.5831q-0.72291 2.2885 1.5656 3.0114l7.3829 2.3321q2.2885 0.72291 3.0114-1.5656z" clip-path="url(#a)" fill="#fff" stroke="#fff"/>
<g clip-path="url(#a)">
<g transform="translate(522.78 447.21) rotate(-72.47) scale(.08 -.08)">
<use xlink:href="#ab"/>
</g>
</g>
<path d="m733.81 442.36 1.3548 5.6961q0.55532 2.3349 2.8902 1.7795l7.5324-1.7915q2.3349-0.55532 1.7795-2.8902l-1.3548-5.6961q-0.55532-2.3349-2.8902-1.7795l-7.5324 1.7915q-2.3349 0.55532-1.7795 2.8902z" clip-path="url(#a)" fill="#fff" stroke="#fff"/>
<g clip-path="url(#a)">
<g transform="translate(737.77 441.42) rotate(76.621) scale(.08 -.08)">
<use xlink:href="#ab"/>
</g>
</g>
<path d="m865.12 444.32 2.8997 5.0865q1.1886 2.085 3.2736 0.8964l6.7263-3.8345q2.085-1.1886 0.8964-3.2736l-2.8997-5.0865q-1.1886-2.085-3.2736-0.8964l-6.7263 3.8345q-2.085 1.1886-0.8964 3.2736z" clip-path="url(#a)" fill="#fff" stroke="#fff"/>
<g clip-path="url(#a)">
<g transform="translate(868.65 442.31) rotate(60.314) scale(.08 -.08)">
<use xlink:href="#ab"/>
</g>
</g>
<path d="m148.41 933.92 5.0169-34.927q0.34124-2.3756-2.0344-2.7169l-7.6638-1.1008q-2.3756-0.34124-2.7169 2.0344l-5.0169 34.927q-0.34124 2.3756 2.0344 2.7169l7.6638 1.1008q2.3756 0.34124 2.7169-2.0344z" clip-path="url(#a)" fill="#fff" stroke="#fff"/>
<g clip-path="url(#a)">
<defs>
<path id="l" d="m-0.29688 72.906h61.672v-8.3125h-25.875v-64.594h-9.9062v64.594h-25.891z"/>
<path id="d" d="m56.203 29.594v-4.3906h-41.312q0.59375-9.2812 5.5938-14.141t13.938-4.8594q5.1719 0 10.031 1.2656t9.6562 3.8125v-8.5q-4.8438-2.0469-9.9219-3.125t-10.297-1.0781q-13.094 0-20.734 7.6094-7.6406 7.625-7.6406 20.625 0 13.422 7.25 21.297 7.25 7.8906 19.562 7.8906 11.031 0 17.453-7.1094 6.4219-7.0938 6.4219-19.297zm-8.9844 2.6406q-0.09375 7.3594-4.125 11.75-4.0312 4.4062-10.672 4.4062-7.5156 0-12.031-4.25t-5.2031-11.969z"/>
<path id="i" d="m41.109 46.297q-1.5156 0.875-3.2969 1.2812-1.7812 0.42188-3.9219 0.42188-7.625 0-11.703-4.9531t-4.0781-14.234v-28.812h-9.0312v54.688h9.0312v-8.5q2.8438 4.9844 7.375 7.3906 4.5469 2.4219 11.047 2.4219 0.92188 0 2.0469-0.125 1.125-0.10938 2.4844-0.35938z"/>
<path id="j" d="m52 44.188q3.375 6.0625 8.0625 8.9375t11.031 2.875q8.5469 0 13.188-5.9844 4.6406-5.9688 4.6406-17v-33.016h-9.0312v32.719q0 7.8594-2.7969 11.656-2.7812 3.8125-8.4844 3.8125-6.9844 0-11.047-4.6406-4.0469-4.625-4.0469-12.641v-30.906h-9.0312v32.719q0 7.9062-2.7812 11.688t-8.5938 3.7812q-6.8906 0-10.953-4.6562-4.0469-4.6562-4.0469-12.625v-30.906h-9.0312v54.688h9.0312v-8.5q3.0781 5.0312 7.375 7.4219t10.203 2.3906q5.9688 0 10.141-3.0312 4.1719-3.0156 6.1719-8.7812z"/>
<path id="f" d="m9.4219 54.688h8.9844v-54.688h-8.9844zm0 21.297h8.9844v-11.391h-8.9844z"/>
<path id="g" d="m54.891 33.016v-33.016h-8.9844v32.719q0 7.7656-3.0312 11.609-3.0312 3.8594-9.0781 3.8594-7.2812 0-11.484-4.6406-4.2031-4.625-4.2031-12.641v-30.906h-9.0312v54.688h9.0312v-8.5q3.2344 4.9375 7.5938 7.375 4.375 2.4375 10.094 2.4375 9.4219 0 14.25-5.8281 4.8438-5.8281 4.8438-17.156z"/>
<path id="h" d="m34.281 27.484q-10.891 0-15.094-2.4844t-4.2031-8.5q0-4.7812 3.1562-7.5938 3.1562-2.7969 8.5625-2.7969 7.4844 0 12 5.2969t4.5156 14.078v2zm17.922 3.7188v-31.203h-8.9844v8.2969q-3.0781-4.9688-7.6719-7.3438t-11.234-2.375q-8.3906 0-13.359 4.7188-4.9531 4.7188-4.9531 12.625 0 9.2188 6.1719 13.906 6.1875 4.6875 18.438 4.6875h12.609v0.89062q0 6.2031-4.0781 9.5938t-11.453 3.3906q-4.6875 0-9.1406-1.125-4.4375-1.125-8.5312-3.375v8.3125q4.9219 1.9062 9.5625 2.8438 4.6406 0.95312 9.0312 0.95312 11.875 0 17.734-6.1562 5.8594-6.1406 5.8594-18.641z"/>
<path id="k" d="m9.4219 75.984h8.9844v-75.984h-8.9844z"/>
</defs>
<g transform="translate(144.39 933.35) rotate(-81.826) scale(.08 -.08)">
<use xlink:href="#l"/>
<use x="60.818359" xlink:href="#d"/>
<use x="122.341797" xlink:href="#i"/>
<use x="163.439453" xlink:href="#j"/>
<use x="260.851562" xlink:href="#f"/>
<use x="288.634766" xlink:href="#g"/>
<use x="352.013672" xlink:href="#h"/>
<use x="413.292969" xlink:href="#k"/>
</g>
</g>
<path d="m157.9 899 5.0169 34.927q0.34124 2.3756 2.7169 2.0344l7.6638-1.1008q2.3756-0.34124 2.0344-2.7169l-5.0169-34.927q-0.34124-2.3756-2.7169-2.0344l-7.6638 1.1008q-2.3756 0.34124-2.0344 2.7169z" clip-path="url(#a)" fill="#fff" stroke="#fff"/>
<g clip-path="url(#a)">
<g transform="translate(161.93 898.42) rotate(81.826) scale(.08 -.08)">
<use xlink:href="#l"/>
<use x="60.818359" xlink:href="#d"/>
<use x="122.341797" xlink:href="#i"/>
<use x="163.439453" xlink:href="#j"/>
<use x="260.851562" xlink:href="#f"/>
<use x="288.634766" xlink:href="#g"/>
<use x="352.013672" xlink:href="#h"/>
<use x="413.292969" xlink:href="#k"/>
</g>
</g>
<path d="m292.45 767.13 1.3319-4.6362q0.66267-2.3067-1.644-2.9694l-7.4415-2.1378q-2.3067-0.66267-2.9694 1.644l-1.3319 4.6362q-0.66267 2.3067 1.644 2.9694l7.4415 2.1378q2.3067 0.66267 2.9694-1.644z" clip-path="url(#a)" fill="#fff" stroke="#fff"/>
<g clip-path="url(#a)">
<defs>
<path id="ac" d="m19.672 64.797v-27.391h12.406q6.8906 0 10.641 3.5625 3.7656 3.5625 3.7656 10.156 0 6.5469-3.7656 10.109-3.75 3.5625-10.641 3.5625zm-9.8594 8.1094h22.266q12.266 0 18.531-5.5469 6.2812-5.5469 6.2812-16.234 0-10.797-6.2812-16.312-6.2656-5.5156-18.531-5.5156h-12.406v-29.297h-9.8594z"/>
</defs>
<g transform="translate(288.54 766.01) rotate(-73.972) scale(.08 -.08)">
<use xlink:href="#ac"/>
</g>
</g>
<path d="m324.11 762.18 1.511 5.2598q0.66267 2.3067 2.9694 1.644l7.4415-2.1378q2.3067-0.66267 1.644-2.9694l-1.511-5.2598q-0.66267-2.3067-2.9694-1.644l-7.4415 2.1378q-2.3067 0.66268-1.644 2.9694z" clip-path="url(#a)" fill="#fff" stroke="#fff"/>
<g clip-path="url(#a)">
<defs>
<path id="v" d="m34.188 63.188-13.391-36.281h26.812zm-5.5781 9.7188h11.188l27.781-72.906h-10.25l-6.6406 18.703h-32.859l-6.6406-18.703h-10.406z"/>
</defs>
<g transform="translate(328.02 761.06) rotate(73.972) scale(.08 -.08)">
<use xlink:href="#v"/>
</g>
</g>
<path d="m302.72 760.15v5.855q0 2.4 2.4 2.4h7.7425q2.4 0 2.4-2.4v-5.855q0-2.4-2.4-2.4h-7.7425q-2.4 0-2.4 2.4z" clip-path="url(#a)" fill="#fff" stroke="#fff"/>
<g clip-path="url(#a)">
<g transform="translate(306.78 760.15) rotate(90) scale(.08 -.08)">
<use xlink:href="#ab"/>
</g>
</g>
<path d="m434.14 897.93v35.285q0 2.4 2.4 2.4h7.7425q2.4 0 2.4-2.4v-35.285q0-2.4-2.4-2.4h-7.7425q-2.4 0-2.4 2.4z" clip-path="url(#a)" fill="#fff" stroke="#fff"/>
<g clip-path="url(#a)">
<g transform="translate(438.2 897.93) rotate(90) scale(.08 -.08)">
<use xlink:href="#l"/>
<use x="60.818359" xlink:href="#d"/>
<use x="122.341797" xlink:href="#i"/>
<use x="163.439453" xlink:href="#j"/>
<use x="260.851562" xlink:href="#f"/>
<use x="288.634766" xlink:href="#g"/>
<use x="352.013672" xlink:href="#h"/>
<use x="413.292969" xlink:href="#k"/>
</g>
</g>
<path d="m1379.7 766.4 4.8897 2.4574q2.1444 1.0777 3.2221-1.0667l3.4768-6.918q1.0777-2.1444-1.0667-3.2221l-4.8897-2.4574q-2.1444-1.0777-3.2221 1.0667l-3.4768 6.918q-1.0777 2.1444 1.0667 3.2221z" clip-path="url(#a)" fill="#fff" stroke="#fff"/>
<g clip-path="url(#a)">
<g transform="translate(1381.6 762.76) rotate(26.683) scale(.08 -.08)">
<use xlink:href="#v"/>
</g>
</g>
<path d="m716.84 616.25 4.5289-1.6607q2.2533-0.82624 1.427-3.0795l-2.6655-7.2692q-0.82624-2.2533-3.0795-1.427l-4.5289 1.6607q-2.2533 0.82624-1.427 3.0795l2.6655 7.2692q0.82624 2.2533 3.0795 1.427z" clip-path="url(#a)" fill="#fff" stroke="#fff"/>
<g clip-path="url(#a)">
<g transform="translate(715.44 612.44) rotate(-20.137) scale(.08 -.08)">
<use xlink:href="#ac"/>
</g>
</g>
<path d="m771.73 616.52 5.5199-2.7343q2.1506-1.0653 1.0853-3.2159l-3.4367-6.938q-1.0653-2.1506-3.2159-1.0853l-5.5199 2.7343q-2.1506 1.0653-1.0853 3.2159l3.4367 6.938q1.0653 2.1506 3.2159 1.0853z" clip-path="url(#a)" fill="#fff" stroke="#fff"/>
<g clip-path="url(#a)">
<defs>
<path id="as" d="m19.672 64.797v-56.688h11.922q15.094 0 22.094 6.8281 7 6.8438 7 21.594 0 14.641-7 21.453t-22.094 6.8125zm-9.8594 8.1094h20.266q21.188 0 31.094-8.8125 9.9219-8.8125 9.9219-27.562 0-18.859-9.9688-27.703-9.9531-8.8281-31.047-8.8281h-20.266z"/>
</defs>
<g transform="translate(769.92 612.88) rotate(-26.351) scale(.08 -.08)">
<use xlink:href="#as"/>
</g>
</g>
<path d="m839.41 616.08 4.1582-3.5577q1.8236-1.5603 0.26334-3.3839l-5.0335-5.883q-1.5603-1.8236-3.3839-0.26334l-4.1582 3.5577q-1.8236 1.5603-0.26334 3.3839l5.0335 5.883q1.5603 1.8236 3.3839 0.26334z" clip-path="url(#a)" fill="#fff" stroke="#fff"/>
<g clip-path="url(#a)">
<g transform="translate(836.77 612.99) rotate(-40.55) scale(.08 -.08)">
<use xlink:href="#v"/>
</g>
</g>
<path d="m1577.1 765.36 4.3604 3.3069q1.9123 1.4503 3.3625-0.46202l4.6786-6.1691q1.4503-1.9123-0.46202-3.3625l-4.3604-3.3069q-1.9123-1.4503-3.3625 0.46202l-4.6786 6.1691q-1.4503 1.9123 0.46202 3.3625z" clip-path="url(#a)" fill="#fff" stroke="#fff"/>
<g clip-path="url(#a)">
<g transform="translate(1579.5 762.13) rotate(37.176) scale(.08 -.08)">
<use xlink:href="#v"/>
</g>
</g>
<path d="m1101.1 616.38 5.0235-2.1709q2.2031-0.95208 1.251-3.1552l-3.0715-7.1072q-0.95208-2.2031-3.1552-1.251l-5.0235 2.1709q-2.2031 0.95208-1.251 3.1552l3.0715 7.1072q0.95208 2.2031 3.1552 1.251z" clip-path="url(#a)" fill="#fff" stroke="#fff"/>
<g clip-path="url(#a)">
<g transform="translate(1099.5 612.65) rotate(-23.372) scale(.08 -.08)">
<use xlink:href="#v"/>
</g>
</g>
<path d="m1157.2 616.13 4.0945-2.5502q2.0372-1.2688 0.76838-3.306l-4.0932-6.5721q-1.2688-2.0372-3.306-0.76838l-4.0945 2.5502q-2.0372 1.2688-0.76838 3.306l4.0932 6.5721q1.2688 2.0372 3.306 0.76838z" clip-path="url(#a)" fill="#fff" stroke="#fff"/>
<g clip-path="url(#a)">
<g transform="translate(1155 612.68) rotate(-31.916) scale(.08 -.08)">
<use xlink:href="#ac"/>
</g>
</g>
<path d="m1571.7 603.34 2.6923 4.7645q1.1807 2.0895 3.2702 0.90877l6.7408-3.809q2.0895-1.1807 0.90877-3.2702l-2.6923-4.7645q-1.1807-2.0895-3.2702-0.90877l-6.7408 3.809q-2.0895 1.1807-0.90877 3.2702z" clip-path="url(#a)" fill="#fff" stroke="#fff"/>
<g clip-path="url(#a)">
<g transform="translate(1575.3 601.34) rotate(60.53) scale(.08 -.08)">
<use xlink:href="#v"/>
</g>
</g>
<path d="m1255.1 530.63 1.5091-4.3467q0.78713-2.2672-1.4801-3.0544l-7.3142-2.5393q-2.2672-0.78713-3.0544 1.4801l-1.5091 4.3467q-0.78713 2.2672 1.4801 3.0544l7.3142 2.5393q2.2672 0.78713 3.0544-1.4801z" clip-path="url(#a)" fill="#fff" stroke="#fff"/>
<g clip-path="url(#a)">
<defs>
<path id="ap" d="m9.8125 72.906h41.891v-8.3125h-32.031v-21.484h28.906v-8.2969h-28.906v-34.812h-9.8594z"/>
</defs>
<g transform="translate(1251.3 529.29) rotate(-70.854) scale(.08 -.08)">
<use xlink:href="#ap"/>
</g>
</g>
<path d="m1299.2 454.14 1.2744-4.6524q0.63406-2.3147-1.6807-2.9488l-7.4674-2.0455q-2.3147-0.63406-2.9488 1.6807l-1.2744 4.6524q-0.63406 2.3147 1.6807 2.9488l7.4674 2.0455q2.3147 0.63406 2.9488-1.6807z" clip-path="url(#a)" fill="#fff" stroke="#fff"/>
<g clip-path="url(#a)">
<g transform="translate(1295.3 453.06) rotate(-74.681) scale(.08 -.08)">
<use xlink:href="#ac"/>
</g>
</g>
<path d="m1299.3 530.68 1.2497-6.0319q0.4869-2.3501-1.8632-2.837l-7.5815-1.5708q-2.3501-0.4869-2.837 1.8632l-1.2497 6.0319q-0.4869 2.3501 1.8632 2.837l7.5815 1.5708q2.3501 0.4869 2.837-1.8632z" clip-path="url(#a)" fill="#fff" stroke="#fff"/>
<g clip-path="url(#a)">
<g transform="translate(1295.3 529.86) rotate(-78.295) scale(.08 -.08)">
<use xlink:href="#as"/>
</g>
</g>
<path d="m1370.3 292.78 1.2181 5.3352q0.53419 2.3398 2.874 1.8056l7.5483-1.7233q2.3398-0.53419 1.8056-2.874l-1.2181-5.3352q-0.53419-2.3398-2.874-1.8056l-7.5483 1.7233q-2.3398 0.53419-1.8056 2.874z" clip-path="url(#a)" fill="#fff" stroke="#fff"/>
<g clip-path="url(#a)">
<g transform="translate(1374.2 291.88) rotate(77.139) scale(.08 -.08)">
<use xlink:href="#v"/>
</g>
</g>
<path d="m1135.1 897.93v35.285q0 2.4 2.4 2.4h7.7425q2.4 0 2.4-2.4v-35.285q0-2.4-2.4-2.4h-7.7425q-2.4 0-2.4 2.4z" clip-path="url(#a)" fill="#fff" stroke="#fff"/>
<g clip-path="url(#a)">
<g transform="translate(1139.1 897.93) rotate(90) scale(.08 -.08)">
<use xlink:href="#l"/>
<use x="60.818359" xlink:href="#d"/>
<use x="122.341797" xlink:href="#i"/>
<use x="163.439453" xlink:href="#j"/>
<use x="260.851562" xlink:href="#f"/>
<use x="288.634766" xlink:href="#g"/>
<use x="352.013672" xlink:href="#h"/>
<use x="413.292969" xlink:href="#k"/>
</g>
</g>
<path d="m1212.4 767.24 1.3958-4.8585q0.66267-2.3067-1.644-2.9694l-7.4415-2.1378q-2.3067-0.66267-2.9694 1.644l-1.3958 4.8585q-0.66267 2.3067 1.644 2.9694l7.4415 2.1378q2.3067 0.66268 2.9694-1.644z" clip-path="url(#a)" fill="#fff" stroke="#fff"/>
<g clip-path="url(#a)">
<defs>
<path id="t" d="m9.8125 72.906h46.094v-8.3125h-36.234v-21.578h34.719v-8.2969h-34.719v-26.422h37.109v-8.2969h-46.969z"/>
</defs>
<g transform="translate(1208.5 766.12) rotate(-73.972) scale(.08 -.08)">
<use xlink:href="#t"/>
</g>
</g>
<path d="m1244 762.13 1.5424 5.3691q0.66267 2.3067 2.9694 1.644l7.4415-2.1378q2.3067-0.66267 1.644-2.9694l-1.5424-5.3691q-0.66267-2.3067-2.9694-1.644l-7.4415 2.1378q-2.3067 0.66268-1.644 2.9694z" clip-path="url(#a)" fill="#fff" stroke="#fff"/>
<g clip-path="url(#a)">
<defs>
<path id="q" d="m64.406 67.281v-10.391q-4.9844 4.6406-10.625 6.9219-5.6406 2.2969-11.984 2.2969-12.5 0-19.141-7.6406t-6.6406-22.094q0-14.406 6.6406-22.047t19.141-7.6406q6.3438 0 11.984 2.2969t10.625 6.9375v-10.312q-5.1719-3.5156-10.969-5.2812-5.7812-1.75-12.219-1.75-16.562 0-26.094 10.125-9.5156 10.141-9.5156 27.672 0 17.578 9.5156 27.703 9.5312 10.141 26.094 10.141 6.5312 0 12.312-1.7344 5.7969-1.7344 10.875-5.2031z"/>
</defs>
<g transform="translate(1247.9 761.01) rotate(73.972) scale(.08 -.08)">
<use xlink:href="#q"/>
</g>
</g>
<path d="m1222.7 897.93v35.285q0 2.4 2.4 2.4h7.7425q2.4 0 2.4-2.4v-35.285q0-2.4-2.4-2.4h-7.7425q-2.4 0-2.4 2.4z" clip-path="url(#a)" fill="#fff" stroke="#fff"/>
<g clip-path="url(#a)">
<g transform="translate(1226.7 897.93) rotate(90) scale(.08 -.08)">
<use xlink:href="#l"/>
<use x="60.818359" xlink:href="#d"/>
<use x="122.341797" xlink:href="#i"/>
<use x="163.439453" xlink:href="#j"/>
<use x="260.851562" xlink:href="#f"/>
<use x="288.634766" xlink:href="#g"/>
<use x="352.013672" xlink:href="#h"/>
<use x="413.292969" xlink:href="#k"/>
</g>
</g>
<path d="m1361.7 610.53 0.8457-4.9838q0.40152-2.3662-1.9647-2.7677l-7.6334-1.2953q-2.3662-0.40152-2.7677 1.9647l-0.8457 4.9838q-0.40152 2.3662 1.9647 2.7677l7.6334 1.2953q2.3662 0.40152 2.7677-1.9647z" clip-path="url(#a)" fill="#fff" stroke="#fff"/>
<g clip-path="url(#a)">
<g transform="translate(1357.7 609.85) rotate(-80.369) scale(.08 -.08)">
<use xlink:href="#t"/>
</g>
</g>
<path d="m1383.9 610.24 0.42011-5.5704q0.18049-2.3932-2.2127-2.5737l-7.7206-0.58227q-2.3932-0.18049-2.5737 2.2127l-0.42011 5.5704q-0.18049 2.3932 2.2127 2.5737l7.7206 0.58227q2.3932 0.18049 2.5737-2.2127z" clip-path="url(#a)" fill="#fff" stroke="#fff"/>
<g clip-path="url(#a)">
<g transform="translate(1379.9 609.94) rotate(-85.687) scale(.08 -.08)">
<use xlink:href="#q"/>
</g>
</g>
<path d="m1445.8 455.06 2.9611 4.0969q1.4059 1.9451 3.351 0.53925l6.2751-4.5354q1.9451-1.4059 0.53925-3.351l-2.9611-4.0969q-1.4059-1.9451-3.351-0.53925l-6.2751 4.5354q-1.9451 1.4059-0.53925 3.351z" clip-path="url(#a)" fill="#fff" stroke="#fff"/>
<g clip-path="url(#a)">
<g transform="translate(1449.1 452.68) rotate(54.142) scale(.08 -.08)">
<use xlink:href="#t"/>
</g>
</g>
<path d="m1310.3 897.93v35.285q0 2.4 2.4 2.4h7.7425q2.4 0 2.4-2.4v-35.285q0-2.4-2.4-2.4h-7.7425q-2.4 0-2.4 2.4z" clip-path="url(#a)" fill="#fff" stroke="#fff"/>
<g clip-path="url(#a)">
<g transform="translate(1314.3 897.93) rotate(90) scale(.08 -.08)">
<use xlink:href="#l"/>
<use x="60.818359" xlink:href="#d"/>
<use x="122.341797" xlink:href="#i"/>
<use x="163.439453" xlink:href="#j"/>
<use x="260.851562" xlink:href="#f"/>
<use x="288.634766" xlink:href="#g"/>
<use x="352.013672" xlink:href="#h"/>
<use x="413.292969" xlink:href="#k"/>
</g>
</g>
<path d="m1354.1 897.93v35.285q0 2.4 2.4 2.4h7.7425q2.4 0 2.4-2.4v-35.285q0-2.4-2.4-2.4h-7.7425q-2.4 0-2.4 2.4z" clip-path="url(#a)" fill="#fff" stroke="#fff"/>
<g clip-path="url(#a)">
<g transform="translate(1358.2 897.93) rotate(90) scale(.08 -.08)">
<use xlink:href="#l"/>
<use x="60.818359" xlink:href="#d"/>
<use x="122.341797" xlink:href="#i"/>
<use x="163.439453" xlink:href="#j"/>
<use x="260.851562" xlink:href="#f"/>
<use x="288.634766" xlink:href="#g"/>
<use x="352.013672" xlink:href="#h"/>
<use x="413.292969" xlink:href="#k"/>
</g>
</g>
<path d="m1461.8 690.44 1.8005-5.2591q0.77736-2.2706-1.4933-3.048l-7.3251-2.5078q-2.2706-0.77736-3.048 1.4933l-1.8005 5.2591q-0.77736 2.2706 1.4933 3.048l7.3251 2.5078q2.2706 0.77736 3.048-1.4933z" clip-path="url(#a)" fill="#fff" stroke="#fff"/>
<g clip-path="url(#a)">
<defs>
<path id="ai" d="m44.391 34.188q3.1719-1.0781 6.1719-4.5938t6.0312-9.6719l10.016-19.922h-10.609l-9.3125 18.703q-3.625 7.3281-7.0156 9.7188t-9.25 2.3906h-10.75v-30.812h-9.8594v72.906h22.266q12.5 0 18.656-5.2344 6.1562-5.2188 6.1562-15.766 0-6.8906-3.2031-11.438-3.2031-4.5312-9.2969-6.2812zm-24.719 30.609v-25.875h12.406q7.125 0 10.766 3.2969t3.6406 9.6875-3.6406 9.6406-10.766 3.25z"/>
</defs>
<g transform="translate(1457.9 689.12) rotate(-71.101) scale(.08 -.08)">
<use xlink:href="#ai"/>
</g>
</g>
<path d="m1484.3 689.48 0.98998-4.9571q0.47002-2.3535-1.8835-2.8235l-7.5926-1.5163q-2.3535-0.47002-2.8235 1.8835l-0.98998 4.9571q-0.47002 2.3535 1.8835 2.8235l7.5926 1.5163q2.3535 0.47002 2.8235-1.8835z" clip-path="url(#a)" fill="#fff" stroke="#fff"/>
<g clip-path="url(#a)">
<g transform="translate(1480.3 688.69) rotate(-78.706) scale(.08 -.08)">
<use xlink:href="#t"/>
</g>
</g>
<path d="m1506.6 688.92 0.31823-5.5772q0.13672-2.3961-2.2594-2.5328l-7.7299-0.44107q-2.3961-0.13672-2.5328 2.2594l-0.31823 5.5772q-0.13672 2.3961 2.2594 2.5328l7.7299 0.44107q2.3961 0.13672 2.5328-2.2594z" clip-path="url(#a)" fill="#fff" stroke="#fff"/>
<g clip-path="url(#a)">
<g transform="translate(1502.6 688.69) rotate(-86.734) scale(.08 -.08)">
<use xlink:href="#q"/>
</g>
</g>
<path d="m1516 683.79 0.43108 5.0366q0.20467 2.3913 2.5959 2.1866l7.7143-0.66026q2.3913-0.20467 2.1866-2.5959l-0.43108-5.0366q-0.20467-2.3913-2.5959-2.1866l-7.7143 0.66026q-2.3913 0.20467-2.1866 2.5959z" clip-path="url(#a)" fill="#fff" stroke="#fff"/>
<g clip-path="url(#a)">
<g transform="translate(1520 683.45) rotate(85.108) scale(.08 -.08)">
<use xlink:href="#t"/>
</g>
</g>
<path d="m1582 612.24 3.6097 3.5388q1.7138 1.6801 3.3939-0.033648l5.4202-5.5288q1.6801-1.7138-0.033649-3.3939l-3.6097-3.5388q-1.7138-1.6801-3.3939 0.033648l-5.4202 5.5288q-1.6801 1.7138 0.033648 3.3939z" clip-path="url(#a)" fill="#fff" stroke="#fff"/>
<g clip-path="url(#a)">
<g transform="translate(1584.8 609.34) rotate(44.432) scale(.08 -.08)">
<use xlink:href="#t"/>
</g>
</g>
<path d="m1397.9 897.93v35.285q0 2.4 2.4 2.4h7.7425q2.4 0 2.4-2.4v-35.285q0-2.4-2.4-2.4h-7.7425q-2.4 0-2.4 2.4z" clip-path="url(#a)" fill="#fff" stroke="#fff"/>
<g clip-path="url(#a)">
<g transform="translate(1402 897.93) rotate(90) scale(.08 -.08)">
<use xlink:href="#l"/>
<use x="60.818359" xlink:href="#d"/>
<use x="122.341797" xlink:href="#i"/>
<use x="163.439453" xlink:href="#j"/>
<use x="260.851562" xlink:href="#f"/>
<use x="288.634766" xlink:href="#g"/>
<use x="352.013672" xlink:href="#h"/>
<use x="413.292969" xlink:href="#k"/>
</g>
</g>
<path d="m1441.7 897.93v35.285q0 2.4 2.4 2.4h7.7425q2.4 0 2.4-2.4v-35.285q0-2.4-2.4-2.4h-7.7425q-2.4 0-2.4 2.4z" clip-path="url(#a)" fill="#fff" stroke="#fff"/>
<g clip-path="url(#a)">
<g transform="translate(1445.8 897.93) rotate(90) scale(.08 -.08)">
<use xlink:href="#l"/>
<use x="60.818359" xlink:href="#d"/>
<use x="122.341797" xlink:href="#i"/>
<use x="163.439453" xlink:href="#j"/>
<use x="260.851562" xlink:href="#f"/>
<use x="288.634766" xlink:href="#g"/>
<use x="352.013672" xlink:href="#h"/>
<use x="413.292969" xlink:href="#k"/>
</g>
</g>
<path d="m1485.5 897.93v35.285q0 2.4 2.4 2.4h7.7425q2.4 0 2.4-2.4v-35.285q0-2.4-2.4-2.4h-7.7425q-2.4 0-2.4 2.4z" clip-path="url(#a)" fill="#fff" stroke="#fff"/>
<g clip-path="url(#a)">
<g transform="translate(1489.6 897.93) rotate(90) scale(.08 -.08)">
<use xlink:href="#l"/>
<use x="60.818359" xlink:href="#d"/>
<use x="122.341797" xlink:href="#i"/>
<use x="163.439453" xlink:href="#j"/>
<use x="260.851562" xlink:href="#f"/>
<use x="288.634766" xlink:href="#g"/>
<use x="352.013672" xlink:href="#h"/>
<use x="413.292969" xlink:href="#k"/>
</g>
</g>
<path d="m1529.3 897.93v35.285q0 2.4 2.4 2.4h7.7425q2.4 0 2.4-2.4v-35.285q0-2.4-2.4-2.4h-7.7425q-2.4 0-2.4 2.4z" clip-path="url(#a)" fill="#fff" stroke="#fff"/>
<g clip-path="url(#a)">
<g transform="translate(1533.4 897.93) rotate(90) scale(.08 -.08)">
<use xlink:href="#l"/>
<use x="60.818359" xlink:href="#d"/>
<use x="122.341797" xlink:href="#i"/>
<use x="163.439453" xlink:href="#j"/>
<use x="260.851562" xlink:href="#f"/>
<use x="288.634766" xlink:href="#g"/>
<use x="352.013672" xlink:href="#h"/>
<use x="413.292969" xlink:href="#k"/>
</g>
</g>
<path d="m1627.3 768.62 2.7693-4.8198q1.1956-2.081-0.88532-3.2766l-6.7133-3.8572q-2.081-1.1956-3.2766 0.88532l-2.7693 4.8198q-1.1956 2.081 0.88532 3.2766l6.7133 3.8572q2.081 1.1956 3.2766-0.88532z" clip-path="url(#a)" fill="#fff" stroke="#fff"/>
<g clip-path="url(#a)">
<g transform="translate(1623.7 766.59) rotate(-60.12) scale(.08 -.08)">
<use xlink:href="#ai"/>
</g>
</g>
<path d="m1650.4 767.24 1.3958-4.8585q0.66267-2.3067-1.644-2.9694l-7.4415-2.1378q-2.3067-0.66267-2.9694 1.644l-1.3958 4.8585q-0.66267 2.3067 1.644 2.9694l7.4415 2.1378q2.3067 0.66268 2.9694-1.644z" clip-path="url(#a)" fill="#fff" stroke="#fff"/>
<g clip-path="url(#a)">
<g transform="translate(1646.5 766.12) rotate(-73.972) scale(.08 -.08)">
<use xlink:href="#t"/>
</g>
</g>
<path d="m1660.7 760.29v5.5862q0 2.4 2.4 2.4h7.7425q2.4 0 2.4-2.4v-5.5862q0-2.4-2.4-2.4h-7.7425q-2.4 0-2.4 2.4z" clip-path="url(#a)" fill="#fff" stroke="#fff"/>
<g clip-path="url(#a)">
<g transform="translate(1664.8 760.29) rotate(90) scale(.08 -.08)">
<use xlink:href="#q"/>
</g>
</g>
<path d="m1682.2 762.38 1.3958 4.8585q0.66267 2.3067 2.9694 1.644l7.4415-2.1378q2.3067-0.66267 1.644-2.9694l-1.3958-4.8585q-0.66267-2.3067-2.9694-1.644l-7.4415 2.1378q-2.3067 0.66267-1.644 2.9694z" clip-path="url(#a)" fill="#fff" stroke="#fff"/>
<g clip-path="url(#a)">
<g transform="translate(1686.1 761.26) rotate(73.972) scale(.08 -.08)">
<use xlink:href="#t"/>
</g>
</g>
<path d="m1703.9 763.67 2.9169 5.0767q1.1956 2.081 3.2766 0.88532l6.7133-3.8572q2.081-1.1956 0.88532-3.2766l-2.9169-5.0767q-1.1956-2.081-3.2766-0.88532l-6.7133 3.8572q-2.081 1.1956-0.88532 3.2766z" clip-path="url(#a)" fill="#fff" stroke="#fff"/>
<g clip-path="url(#a)">
<g transform="translate(1707.4 761.64) rotate(60.12) scale(.08 -.08)">
<use xlink:href="#ab"/>
</g>
</g>
<path d="m1573.1 897.93v35.285q0 2.4 2.4 2.4h7.7425q2.4 0 2.4-2.4v-35.285q0-2.4-2.4-2.4h-7.7425q-2.4 0-2.4 2.4z" clip-path="url(#a)" fill="#fff" stroke="#fff"/>
<g clip-path="url(#a)">
<g transform="translate(1577.2 897.93) rotate(90) scale(.08 -.08)">
<use xlink:href="#l"/>
<use x="60.818359" xlink:href="#d"/>
<use x="122.341797" xlink:href="#i"/>
<use x="163.439453" xlink:href="#j"/>
<use x="260.851562" xlink:href="#f"/>
<use x="288.634766" xlink:href="#g"/>
<use x="352.013672" xlink:href="#h"/>
<use x="413.292969" xlink:href="#k"/>
</g>
</g>
<path d="m1616.9 897.93v35.285q0 2.4 2.4 2.4h7.7425q2.4 0 2.4-2.4v-35.285q0-2.4-2.4-2.4h-7.7425q-2.4 0-2.4 2.4z" clip-path="url(#a)" fill="#fff" stroke="#fff"/>
<g clip-path="url(#a)">
<g transform="translate(1621 897.93) rotate(90) scale(.08 -.08)">
<use xlink:href="#l"/>
<use x="60.818359" xlink:href="#d"/>
<use x="122.341797" xlink:href="#i"/>
<use x="163.439453" xlink:href="#j"/>
<use x="260.851562" xlink:href="#f"/>
<use x="288.634766" xlink:href="#g"/>
<use x="352.013672" xlink:href="#h"/>
<use x="413.292969" xlink:href="#k"/>
</g>
</g>
<path d="m1660.7 897.93v35.285q0 2.4 2.4 2.4h7.7425q2.4 0 2.4-2.4v-35.285q0-2.4-2.4-2.4h-7.7425q-2.4 0-2.4 2.4z" clip-path="url(#a)" fill="#fff" stroke="#fff"/>
<g clip-path="url(#a)">
<g transform="translate(1664.8 897.93) rotate(90) scale(.08 -.08)">
<use xlink:href="#l"/>
<use x="60.818359" xlink:href="#d"/>
<use x="122.341797" xlink:href="#i"/>
<use x="163.439453" xlink:href="#j"/>
<use x="260.851562" xlink:href="#f"/>
<use x="288.634766" xlink:href="#g"/>
<use x="352.013672" xlink:href="#h"/>
<use x="413.292969" xlink:href="#k"/>
</g>
</g>
<path d="m1704.5 897.93v35.285q0 2.4 2.4 2.4h7.7425q2.4 0 2.4-2.4v-35.285q0-2.4-2.4-2.4h-7.7425q-2.4 0-2.4 2.4z" clip-path="url(#a)" fill="#fff" stroke="#fff"/>
<g clip-path="url(#a)">
<g transform="translate(1708.6 897.93) rotate(90) scale(.08 -.08)">
<use xlink:href="#l"/>
<use x="60.818359" xlink:href="#d"/>
<use x="122.341797" xlink:href="#i"/>
<use x="163.439453" xlink:href="#j"/>
<use x="260.851562" xlink:href="#f"/>
<use x="288.634766" xlink:href="#g"/>
<use x="352.013672" xlink:href="#h"/>
<use x="413.292969" xlink:href="#k"/>
</g>
</g>
<path d="m1178.9 897.93v35.285q0 2.4 2.4 2.4h7.7425q2.4 0 2.4-2.4v-35.285q0-2.4-2.4-2.4h-7.7425q-2.4 0-2.4 2.4z" clip-path="url(#a)" fill="#fff" stroke="#fff"/>
<g clip-path="url(#a)">
<g transform="translate(1182.9 897.93) rotate(90) scale(.08 -.08)">
<use xlink:href="#l"/>
<use x="60.818359" xlink:href="#d"/>
<use x="122.341797" xlink:href="#i"/>
<use x="163.439453" xlink:href="#j"/>
<use x="260.851562" xlink:href="#f"/>
<use x="288.634766" xlink:href="#g"/>
<use x="352.013672" xlink:href="#h"/>
<use x="413.292969" xlink:href="#k"/>
</g>
</g>
<path d="m1266.5 897.93v35.285q0 2.4 2.4 2.4h7.7425q2.4 0 2.4-2.4v-35.285q0-2.4-2.4-2.4h-7.7425q-2.4 0-2.4 2.4z" clip-path="url(#a)" fill="#fff" stroke="#fff"/>
<g clip-path="url(#a)">
<g transform="translate(1270.5 897.93) rotate(90) scale(.08 -.08)">
<use xlink:href="#l"/>
<use x="60.818359" xlink:href="#d"/>
<use x="122.341797" xlink:href="#i"/>
<use x="163.439453" xlink:href="#j"/>
<use x="260.851562" xlink:href="#f"/>
<use x="288.634766" xlink:href="#g"/>
<use x="352.013672" xlink:href="#h"/>
<use x="413.292969" xlink:href="#k"/>
</g>
</g>
<path d="m905.72 767.24 1.3958-4.8585q0.66267-2.3067-1.644-2.9694l-7.4415-2.1378q-2.3067-0.66267-2.9694 1.644l-1.3958 4.8585q-0.66267 2.3067 1.644 2.9694l7.4415 2.1378q2.3067 0.66268 2.9694-1.644z" clip-path="url(#a)" fill="#fff" stroke="#fff"/>
<g clip-path="url(#a)">
<g transform="translate(901.81 766.12) rotate(-73.972) scale(.08 -.08)">
<use xlink:href="#t"/>
</g>
</g>
<path d="m916.02 760.55v5.055q0 2.4 2.4 2.4h7.7425q2.4 0 2.4-2.4v-5.055q0-2.4-2.4-2.4h-7.7425q-2.4 0-2.4 2.4z" clip-path="url(#a)" fill="#fff" stroke="#fff"/>
<g clip-path="url(#a)">
<g transform="translate(920.08 760.55) rotate(90) scale(.08 -.08)">
<use xlink:href="#t"/>
</g>
</g>
<path d="m937.39 762.13 1.5424 5.3691q0.66268 2.3067 2.9694 1.644l7.4415-2.1378q2.3067-0.66267 1.644-2.9694l-1.5424-5.3691q-0.66267-2.3067-2.9694-1.644l-7.4415 2.1378q-2.3067 0.66268-1.644 2.9694z" clip-path="url(#a)" fill="#fff" stroke="#fff"/>
<g clip-path="url(#a)">
<g transform="translate(941.3 761.01) rotate(73.972) scale(.08 -.08)">
<use xlink:href="#q"/>
</g>
</g>
<path d="m1026.7 766.25 0.65422-4.5545q0.34124-2.3756-2.0344-2.7169l-7.6638-1.1008q-2.3756-0.34124-2.7169 2.0344l-0.65422 4.5545q-0.34124 2.3756 2.0344 2.7169l7.6638 1.1008q2.3756 0.34124 2.7169-2.0344z" clip-path="url(#a)" fill="#fff" stroke="#fff"/>
<g clip-path="url(#a)">
<g transform="translate(1022.7 765.67) rotate(-81.826) scale(.08 -.08)">
<use xlink:href="#ap"/>
</g>
</g>
<path d="m1036.2 761.21 0.79426 5.5295q0.34124 2.3756 2.7169 2.0344l7.6638-1.1008q2.3756-0.34124 2.0344-2.7169l-0.79426-5.5295q-0.34124-2.3756-2.7169-2.0344l-7.6638 1.1008q-2.3756 0.34124-2.0344 2.7169z" clip-path="url(#a)" fill="#fff" stroke="#fff"/>
<g clip-path="url(#a)">
<g transform="translate(1040.2 760.63) rotate(81.826) scale(.08 -.08)">
<use xlink:href="#q"/>
</g>
</g>
<path d="m1003.6 897.93v35.285q0 2.4 2.4 2.4h7.7425q2.4 0 2.4-2.4v-35.285q0-2.4-2.4-2.4h-7.7425q-2.4 0-2.4 2.4z" clip-path="url(#a)" fill="#fff" stroke="#fff"/>
<g clip-path="url(#a)">
<g transform="translate(1007.7 897.93) rotate(90) scale(.08 -.08)">
<use xlink:href="#l"/>
<use x="60.818359" xlink:href="#d"/>
<use x="122.341797" xlink:href="#i"/>
<use x="163.439453" xlink:href="#j"/>
<use x="260.851562" xlink:href="#f"/>
<use x="288.634766" xlink:href="#g"/>
<use x="352.013672" xlink:href="#h"/>
<use x="413.292969" xlink:href="#k"/>
</g>
</g>
<path d="m1047.4 897.93v35.285q0 2.4 2.4 2.4h7.7425q2.4 0 2.4-2.4v-35.285q0-2.4-2.4-2.4h-7.7425q-2.4 0-2.4 2.4z" clip-path="url(#a)" fill="#fff" stroke="#fff"/>
<g clip-path="url(#a)">
<g transform="translate(1051.5 897.93) rotate(90) scale(.08 -.08)">
<use xlink:href="#l"/>
<use x="60.818359" xlink:href="#d"/>
<use x="122.341797" xlink:href="#i"/>
<use x="163.439453" xlink:href="#j"/>
<use x="260.851562" xlink:href="#f"/>
<use x="288.634766" xlink:href="#g"/>
<use x="352.013672" xlink:href="#h"/>
<use x="413.292969" xlink:href="#k"/>
</g>
</g>
<path d="m872.21 897.93v35.285q0 2.4 2.4 2.4h7.7425q2.4 0 2.4-2.4v-35.285q0-2.4-2.4-2.4h-7.7425q-2.4 0-2.4 2.4z" clip-path="url(#a)" fill="#fff" stroke="#fff"/>
<g clip-path="url(#a)">
<g transform="translate(876.27 897.93) rotate(90) scale(.08 -.08)">
<use xlink:href="#l"/>
<use x="60.818359" xlink:href="#d"/>
<use x="122.341797" xlink:href="#i"/>
<use x="163.439453" xlink:href="#j"/>
<use x="260.851562" xlink:href="#f"/>
<use x="288.634766" xlink:href="#g"/>
<use x="352.013672" xlink:href="#h"/>
<use x="413.292969" xlink:href="#k"/>
</g>
</g>
<path d="m916.02 897.93v35.285q0 2.4 2.4 2.4h7.7425q2.4 0 2.4-2.4v-35.285q0-2.4-2.4-2.4h-7.7425q-2.4 0-2.4 2.4z" clip-path="url(#a)" fill="#fff" stroke="#fff"/>
<g clip-path="url(#a)">
<g transform="translate(920.08 897.93) rotate(90) scale(.08 -.08)">
<use xlink:href="#l"/>
<use x="60.818359" xlink:href="#d"/>
<use x="122.341797" xlink:href="#i"/>
<use x="163.439453" xlink:href="#j"/>
<use x="260.851562" xlink:href="#f"/>
<use x="288.634766" xlink:href="#g"/>
<use x="352.013672" xlink:href="#h"/>
<use x="413.292969" xlink:href="#k"/>
</g>
</g>
<path d="m959.83 897.93v35.285q0 2.4 2.4 2.4h7.7425q2.4 0 2.4-2.4v-35.285q0-2.4-2.4-2.4h-7.7425q-2.4 0-2.4 2.4z" clip-path="url(#a)" fill="#fff" stroke="#fff"/>
<g clip-path="url(#a)">
<g transform="translate(963.89 897.93) rotate(90) scale(.08 -.08)">
<use xlink:href="#l"/>
<use x="60.818359" xlink:href="#d"/>
<use x="122.341797" xlink:href="#i"/>
<use x="163.439453" xlink:href="#j"/>
<use x="260.851562" xlink:href="#f"/>
<use x="288.634766" xlink:href="#g"/>
<use x="352.013672" xlink:href="#h"/>
<use x="413.292969" xlink:href="#k"/>
</g>
</g>
<path d="m501.05 766.25 0.65421-4.5545q0.34124-2.3756-2.0344-2.7169l-7.6638-1.1008q-2.3756-0.34124-2.7169 2.0344l-0.65421 4.5545q-0.34124 2.3756 2.0344 2.7169l7.6638 1.1008q2.3756 0.34124 2.7169-2.0344z" clip-path="url(#a)" fill="#fff" stroke="#fff"/>
<g clip-path="url(#a)">
<g transform="translate(497.03 765.67) rotate(-81.826) scale(.08 -.08)">
<use xlink:href="#ap"/>
</g>
</g>
<path d="m510.47 761.21 0.79426 5.5295q0.34124 2.3756 2.7169 2.0344l7.6638-1.1008q2.3756-0.34124 2.0344-2.7169l-0.79426-5.5295q-0.34124-2.3756-2.7169-2.0344l-7.6638 1.1008q-2.3756 0.34124-2.0344 2.7169z" clip-path="url(#a)" fill="#fff" stroke="#fff"/>
<g clip-path="url(#a)">
<g transform="translate(514.49 760.63) rotate(81.826) scale(.08 -.08)">
<use xlink:href="#q"/>
</g>
</g>
<path d="m598.99 767.5 1.5424-5.3691q0.66267-2.3067-1.644-2.9694l-7.4415-2.1378q-2.3067-0.66267-2.9694 1.644l-1.5424 5.3691q-0.66267 2.3067 1.644 2.9694l7.4415 2.1378q2.3067 0.66267 2.9694-1.644z" clip-path="url(#a)" fill="#fff" stroke="#fff"/>
<g clip-path="url(#a)">
<g transform="translate(595.09 766.38) rotate(-73.972) scale(.08 -.08)">
<use xlink:href="#q"/>
</g>
</g>
<path d="m609.37 760.3v5.5588q0 2.4 2.4 2.4h7.7425q2.4 0 2.4-2.4v-5.5588q0-2.4-2.4-2.4h-7.7425q-2.4 0-2.4 2.4z" clip-path="url(#a)" fill="#fff" stroke="#fff"/>
<g clip-path="url(#a)">
<g transform="translate(613.43 760.3) rotate(90) scale(.08 -.08)">
<use xlink:href="#ai"/>
</g>
</g>
<path d="m630.75 762.13 1.5424 5.3691q0.66267 2.3067 2.9694 1.644l7.4415-2.1378q2.3067-0.66267 1.644-2.9694l-1.5424-5.3691q-0.66267-2.3067-2.9694-1.644l-7.4415 2.1378q-2.3067 0.66268-1.644 2.9694z" clip-path="url(#a)" fill="#fff" stroke="#fff"/>
<g clip-path="url(#a)">
<g transform="translate(634.65 761.01) rotate(73.972) scale(.08 -.08)">
<use xlink:href="#q"/>
</g>
</g>
<path d="m730.49 767.24 1.3958-4.8585q0.66267-2.3067-1.644-2.9694l-7.4415-2.1378q-2.3067-0.66267-2.9694 1.644l-1.3958 4.8585q-0.66267 2.3067 1.644 2.9694l7.4415 2.1378q2.3067 0.66268 2.9694-1.644z" clip-path="url(#a)" fill="#fff" stroke="#fff"/>
<g clip-path="url(#a)">
<g transform="translate(726.58 766.12) rotate(-73.972) scale(.08 -.08)">
<use xlink:href="#t"/>
</g>
</g>
<path d="m740.79 760.55v5.055q0 2.4 2.4 2.4h7.7425q2.4 0 2.4-2.4v-5.055q0-2.4-2.4-2.4h-7.7425q-2.4 0-2.4 2.4z" clip-path="url(#a)" fill="#fff" stroke="#fff"/>
<g clip-path="url(#a)">
<g transform="translate(744.85 760.55) rotate(90) scale(.08 -.08)">
<use xlink:href="#t"/>
</g>
</g>
<path d="m762.17 762.13 1.5424 5.3691q0.66267 2.3067 2.9694 1.644l7.4415-2.1378q2.3067-0.66267 1.644-2.9694l-1.5424-5.3691q-0.66267-2.3067-2.9694-1.644l-7.4415 2.1378q-2.3067 0.66268-1.644 2.9694z" clip-path="url(#a)" fill="#fff" stroke="#fff"/>
<g clip-path="url(#a)">
<g transform="translate(766.07 761.01) rotate(73.972) scale(.08 -.08)">
<use xlink:href="#q"/>
</g>
</g>
<path d="m696.98 897.93v35.285q0 2.4 2.4 2.4h7.7425q2.4 0 2.4-2.4v-35.285q0-2.4-2.4-2.4h-7.7425q-2.4 0-2.4 2.4z" clip-path="url(#a)" fill="#fff" stroke="#fff"/>
<g clip-path="url(#a)">
<g transform="translate(701.05 897.93) rotate(90) scale(.08 -.08)">
<use xlink:href="#l"/>
<use x="60.818359" xlink:href="#d"/>
<use x="122.341797" xlink:href="#i"/>
<use x="163.439453" xlink:href="#j"/>
<use x="260.851562" xlink:href="#f"/>
<use x="288.634766" xlink:href="#g"/>
<use x="352.013672" xlink:href="#h"/>
<use x="413.292969" xlink:href="#k"/>
</g>
</g>
<path d="m740.79 897.93v35.285q0 2.4 2.4 2.4h7.7425q2.4 0 2.4-2.4v-35.285q0-2.4-2.4-2.4h-7.7425q-2.4 0-2.4 2.4z" clip-path="url(#a)" fill="#fff" stroke="#fff"/>
<g clip-path="url(#a)">
<g transform="translate(744.85 897.93) rotate(90) scale(.08 -.08)">
<use xlink:href="#l"/>
<use x="60.818359" xlink:href="#d"/>
<use x="122.341797" xlink:href="#i"/>
<use x="163.439453" xlink:href="#j"/>
<use x="260.851562" xlink:href="#f"/>
<use x="288.634766" xlink:href="#g"/>
<use x="352.013672" xlink:href="#h"/>
<use x="413.292969" xlink:href="#k"/>
</g>
</g>
<path d="m784.6 897.93v35.285q0 2.4 2.4 2.4h7.7425q2.4 0 2.4-2.4v-35.285q0-2.4-2.4-2.4h-7.7425q-2.4 0-2.4 2.4z" clip-path="url(#a)" fill="#fff" stroke="#fff"/>
<g clip-path="url(#a)">
<g transform="translate(788.66 897.93) rotate(90) scale(.08 -.08)">
<use xlink:href="#l"/>
<use x="60.818359" xlink:href="#d"/>
<use x="122.341797" xlink:href="#i"/>
<use x="163.439453" xlink:href="#j"/>
<use x="260.851562" xlink:href="#f"/>
<use x="288.634766" xlink:href="#g"/>
<use x="352.013672" xlink:href="#h"/>
<use x="413.292969" xlink:href="#k"/>
</g>
</g>
<path d="m565.56 897.93v35.285q0 2.4 2.4 2.4h7.7425q2.4 0 2.4-2.4v-35.285q0-2.4-2.4-2.4h-7.7425q-2.4 0-2.4 2.4z" clip-path="url(#a)" fill="#fff" stroke="#fff"/>
<g clip-path="url(#a)">
<g transform="translate(569.63 897.93) rotate(90) scale(.08 -.08)">
<use xlink:href="#l"/>
<use x="60.818359" xlink:href="#d"/>
<use x="122.341797" xlink:href="#i"/>
<use x="163.439453" xlink:href="#j"/>
<use x="260.851562" xlink:href="#f"/>
<use x="288.634766" xlink:href="#g"/>
<use x="352.013672" xlink:href="#h"/>
<use x="413.292969" xlink:href="#k"/>
</g>
</g>
<path d="m609.37 897.93v35.285q0 2.4 2.4 2.4h7.7425q2.4 0 2.4-2.4v-35.285q0-2.4-2.4-2.4h-7.7425q-2.4 0-2.4 2.4z" clip-path="url(#a)" fill="#fff" stroke="#fff"/>
<g clip-path="url(#a)">
<g transform="translate(613.43 897.93) rotate(90) scale(.08 -.08)">
<use xlink:href="#l"/>
<use x="60.818359" xlink:href="#d"/>
<use x="122.341797" xlink:href="#i"/>
<use x="163.439453" xlink:href="#j"/>
<use x="260.851562" xlink:href="#f"/>
<use x="288.634766" xlink:href="#g"/>
<use x="352.013672" xlink:href="#h"/>
<use x="413.292969" xlink:href="#k"/>
</g>
</g>
<path d="m653.18 897.93v35.285q0 2.4 2.4 2.4h7.7425q2.4 0 2.4-2.4v-35.285q0-2.4-2.4-2.4h-7.7425q-2.4 0-2.4 2.4z" clip-path="url(#a)" fill="#fff" stroke="#fff"/>
<g clip-path="url(#a)">
<g transform="translate(657.24 897.93) rotate(90) scale(.08 -.08)">
<use xlink:href="#l"/>
<use x="60.818359" xlink:href="#d"/>
<use x="122.341797" xlink:href="#i"/>
<use x="163.439453" xlink:href="#j"/>
<use x="260.851562" xlink:href="#f"/>
<use x="288.634766" xlink:href="#g"/>
<use x="352.013672" xlink:href="#h"/>
<use x="413.292969" xlink:href="#k"/>
</g>
</g>
<path d="m477.95 897.93v35.285q0 2.4 2.4 2.4h7.7425q2.4 0 2.4-2.4v-35.285q0-2.4-2.4-2.4h-7.7425q-2.4 0-2.4 2.4z" clip-path="url(#a)" fill="#fff" stroke="#fff"/>
<g clip-path="url(#a)">
<g transform="translate(482.01 897.93) rotate(90) scale(.08 -.08)">
<use xlink:href="#l"/>
<use x="60.818359" xlink:href="#d"/>
<use x="122.341797" xlink:href="#i"/>
<use x="163.439453" xlink:href="#j"/>
<use x="260.851562" xlink:href="#f"/>
<use x="288.634766" xlink:href="#g"/>
<use x="352.013672" xlink:href="#h"/>
<use x="413.292969" xlink:href="#k"/>
</g>
</g>
<path d="m521.76 897.93v35.285q0 2.4 2.4 2.4h7.7425q2.4 0 2.4-2.4v-35.285q0-2.4-2.4-2.4h-7.7425q-2.4 0-2.4 2.4z" clip-path="url(#a)" fill="#fff" stroke="#fff"/>
<g clip-path="url(#a)">
<g transform="translate(525.82 897.93) rotate(90) scale(.08 -.08)">
<use xlink:href="#l"/>
<use x="60.818359" xlink:href="#d"/>
<use x="122.341797" xlink:href="#i"/>
<use x="163.439453" xlink:href="#j"/>
<use x="260.851562" xlink:href="#f"/>
<use x="288.634766" xlink:href="#g"/>
<use x="352.013672" xlink:href="#h"/>
<use x="413.292969" xlink:href="#k"/>
</g>
</g>
<path d="m258.91 897.93v35.285q0 2.4 2.4 2.4h7.7425q2.4 0 2.4-2.4v-35.285q0-2.4-2.4-2.4h-7.7425q-2.4 0-2.4 2.4z" clip-path="url(#a)" fill="#fff" stroke="#fff"/>
<g clip-path="url(#a)">
<g transform="translate(262.98 897.93) rotate(90) scale(.08 -.08)">
<use xlink:href="#l"/>
<use x="60.818359" xlink:href="#d"/>
<use x="122.341797" xlink:href="#i"/>
<use x="163.439453" xlink:href="#j"/>
<use x="260.851562" xlink:href="#f"/>
<use x="288.634766" xlink:href="#g"/>
<use x="352.013672" xlink:href="#h"/>
<use x="413.292969" xlink:href="#k"/>
</g>
</g>
<path d="m83.685 897.93v35.285q0 2.4 2.4 2.4h7.7425q2.4 0 2.4-2.4v-35.285q0-2.4-2.4-2.4h-7.7425q-2.4 0-2.4 2.4z" clip-path="url(#a)" fill="#fff" stroke="#fff"/>
<g clip-path="url(#a)">
<g transform="translate(87.749 897.93) rotate(90) scale(.08 -.08)">
<use xlink:href="#l"/>
<use x="60.818359" xlink:href="#d"/>
<use x="122.341797" xlink:href="#i"/>
<use x="163.439453" xlink:href="#j"/>
<use x="260.851562" xlink:href="#f"/>
<use x="288.634766" xlink:href="#g"/>
<use x="352.013672" xlink:href="#h"/>
<use x="413.292969" xlink:href="#k"/>
</g>
</g>
<path d="m346.53 897.93v35.285q0 2.4 2.4 2.4h7.7425q2.4 0 2.4-2.4v-35.285q0-2.4-2.4-2.4h-7.7425q-2.4 0-2.4 2.4z" clip-path="url(#a)" fill="#fff" stroke="#fff"/>
<g clip-path="url(#a)">
<g transform="translate(350.59 897.93) rotate(90) scale(.08 -.08)">
<use xlink:href="#l"/>
<use x="60.818359" xlink:href="#d"/>
<use x="122.341797" xlink:href="#i"/>
<use x="163.439453" xlink:href="#j"/>
<use x="260.851562" xlink:href="#f"/>
<use x="288.634766" xlink:href="#g"/>
<use x="352.013672" xlink:href="#h"/>
<use x="413.292969" xlink:href="#k"/>
</g>
</g>
<path d="m565.48 614.33 4.6517-8.8706q1.1146-2.1255-1.0109-3.2401l-6.8569-3.5957q-2.1255-1.1146-3.2401 1.0109l-4.6517 8.8706q-1.1146 2.1255 1.0109 3.2401l6.8569 3.5957q2.1255 1.1146 3.2401-1.0109z" clip-path="url(#a)" fill="#fff" stroke="#fff"/>
<g clip-path="url(#a)">
<g transform="translate(561.88 612.44) rotate(-62.328) scale(.08 -.08)">
<use xlink:href="#w"/>
<use x="55.712891" xlink:href="#ai"/>
</g>
</g>
<path d="m798.35 456.01 8.3404 5.3937q2.0153 1.3033 3.3186-0.712l4.2045-6.5014q1.3033-2.0153-0.712-3.3186l-8.3404-5.3937q-2.0153-1.3033-3.3186 0.712l-4.2045 6.5014q-1.3033 2.0153 0.712 3.3186z" clip-path="url(#a)" fill="#fff" stroke="#fff"/>
<g clip-path="url(#a)">
<g transform="translate(800.56 452.59) rotate(32.891) scale(.08 -.08)">
<use xlink:href="#w"/>
<use x="55.744141" xlink:href="#v"/>
</g>
</g>
<path d="m458.36 451.54 6.062-7.9736q1.4525-1.9106-0.45804-3.3631l-6.1635-4.6859q-1.9106-1.4525-3.3631 0.45804l-6.062 7.9736q-1.4525 1.9106 0.45804 3.3631l6.1635 4.6859q1.9106 1.4525 3.3631-0.45804z" clip-path="url(#a)" fill="#fff" stroke="#fff"/>
<g clip-path="url(#a)">
<g transform="translate(455.13 449.08) rotate(-52.756) scale(.08 -.08)">
<use xlink:href="#w"/>
<use x="55.712891" xlink:href="#ai"/>
</g>
</g>
<path d="m1051.4 135.56 9.5775 2.6318q2.3142 0.63593 2.9501-1.6783l2.0515-7.4658q0.63593-2.3142-1.6783-2.9501l-9.5775-2.6318q-2.3142-0.63593-2.9501 1.6783l-2.0515 7.4658q-0.63593 2.3142 1.6783 2.9501z" clip-path="url(#a)" fill="#fff" stroke="#fff"/>
<g clip-path="url(#a)">
<g transform="translate(1052.5 131.64) rotate(15.365) scale(.08 -.08)">
<use xlink:href="#w"/>
<use x="55.744141" xlink:href="#v"/>
</g>
</g>
<path d="m215.11 897.93v35.285q0 2.4 2.4 2.4h7.7425q2.4 0 2.4-2.4v-35.285q0-2.4-2.4-2.4h-7.7425q-2.4 0-2.4 2.4z" clip-path="url(#a)" fill="#fff" stroke="#fff"/>
<g clip-path="url(#a)">
<g transform="translate(219.17 897.93) rotate(90) scale(.08 -.08)">
<use xlink:href="#l"/>
<use x="60.818359" xlink:href="#d"/>
<use x="122.341797" xlink:href="#i"/>
<use x="163.439453" xlink:href="#j"/>
<use x="260.851562" xlink:href="#f"/>
<use x="288.634766" xlink:href="#g"/>
<use x="352.013672" xlink:href="#h"/>
<use x="413.292969" xlink:href="#k"/>
</g>
</g>
<path d="m302.72 897.93v35.285q0 2.4 2.4 2.4h7.7425q2.4 0 2.4-2.4v-35.285q0-2.4-2.4-2.4h-7.7425q-2.4 0-2.4 2.4z" clip-path="url(#a)" fill="#fff" stroke="#fff"/>
<g clip-path="url(#a)">
<g transform="translate(306.78 897.93) rotate(90) scale(.08 -.08)">
<use xlink:href="#l"/>
<use x="60.818359" xlink:href="#d"/>
<use x="122.341797" xlink:href="#i"/>
<use x="163.439453" xlink:href="#j"/>
<use x="260.851562" xlink:href="#f"/>
<use x="288.634766" xlink:href="#g"/>
<use x="352.013672" xlink:href="#h"/>
<use x="413.292969" xlink:href="#k"/>
</g>
</g>
<path d="m390.33 897.93v35.285q0 2.4 2.4 2.4h7.7425q2.4 0 2.4-2.4v-35.285q0-2.4-2.4-2.4h-7.7425q-2.4 0-2.4 2.4z" clip-path="url(#a)" fill="#fff" stroke="#fff"/>
<g clip-path="url(#a)">
<g transform="translate(394.4 897.93) rotate(90) scale(.08 -.08)">
<use xlink:href="#l"/>
<use x="60.818359" xlink:href="#d"/>
<use x="122.341797" xlink:href="#i"/>
<use x="163.439453" xlink:href="#j"/>
<use x="260.851562" xlink:href="#f"/>
<use x="288.634766" xlink:href="#g"/>
<use x="352.013672" xlink:href="#h"/>
<use x="413.292969" xlink:href="#k"/>
</g>
</g>
<path d="m828.4 897.93v35.285q0 2.4 2.4 2.4h7.7425q2.4 0 2.4-2.4v-35.285q0-2.4-2.4-2.4h-7.7425q-2.4 0-2.4 2.4z" clip-path="url(#a)" fill="#fff" stroke="#fff"/>
<g clip-path="url(#a)">
<g transform="translate(832.47 897.93) rotate(90) scale(.08 -.08)">
<use xlink:href="#l"/>
<use x="60.818359" xlink:href="#d"/>
<use x="122.341797" xlink:href="#i"/>
<use x="163.439453" xlink:href="#j"/>
<use x="260.851562" xlink:href="#f"/>
<use x="288.634766" xlink:href="#g"/>
<use x="352.013672" xlink:href="#h"/>
<use x="413.292969" xlink:href="#k"/>
</g>
</g>
<path d="m1091.2 897.93v35.285q0 2.4 2.4 2.4h7.7425q2.4 0 2.4-2.4v-35.285q0-2.4-2.4-2.4h-7.7425q-2.4 0-2.4 2.4z" clip-path="url(#a)" fill="#fff" stroke="#fff"/>
<g clip-path="url(#a)">
<g transform="translate(1095.3 897.93) rotate(90) scale(.08 -.08)">
<use xlink:href="#l"/>
<use x="60.818359" xlink:href="#d"/>
<use x="122.341797" xlink:href="#i"/>
<use x="163.439453" xlink:href="#j"/>
<use x="260.851562" xlink:href="#f"/>
<use x="288.634766" xlink:href="#g"/>
<use x="352.013672" xlink:href="#h"/>
<use x="413.292969" xlink:href="#k"/>
</g>
</g>
<path d="m1748.4 897.93v35.285q0 2.4 2.4 2.4h7.7425q2.4 0 2.4-2.4v-35.285q0-2.4-2.4-2.4h-7.7425q-2.4 0-2.4 2.4z" clip-path="url(#a)" fill="#fff" stroke="#fff"/>
<g clip-path="url(#a)">
<g transform="translate(1752.4 897.93) rotate(90) scale(.08 -.08)">
<use xlink:href="#l"/>
<use x="60.818359" xlink:href="#d"/>
<use x="122.341797" xlink:href="#i"/>
<use x="163.439453" xlink:href="#j"/>
<use x="260.851562" xlink:href="#f"/>
<use x="288.634766" xlink:href="#g"/>
<use x="352.013672" xlink:href="#h"/>
<use x="413.292969" xlink:href="#k"/>
</g>
</g>
<defs>
<path id="b" d="m0 8.6603c2.2967 0 4.4997-0.9125 6.1237-2.5365 1.624-1.624 2.5365-3.827 2.5365-6.1237s-0.9125-4.4997-2.5365-6.1237c-1.624-1.624-3.827-2.5365-6.1237-2.5365s-4.4997 0.9125-6.1237 2.5365c-1.624 1.624-2.5365 3.827-2.5365 6.1237s0.9125 4.4997 2.5365 6.1237c1.624 1.624 3.827 2.5365 6.1237 2.5365z"/>
</defs>
<g clip-path="url(#a)">
<use x="89.956417" y="991.813024" fill="#ffffff" stroke="#ffffff" xlink:href="#b"/>
</g>
<g clip-path="url(#a)">
<use x="133.763421" y="991.813024" fill="#ffffff" stroke="#ffffff" xlink:href="#b"/>
</g>
<g clip-path="url(#a)">
<use x="177.570425" y="991.813024" fill="#ffffff" stroke="#ffffff" xlink:href="#b"/>
</g>
<g clip-path="url(#a)">
<use x="221.377429" y="991.813024" fill="#ffffff" stroke="#ffffff" xlink:href="#b"/>
</g>
<g clip-path="url(#a)">
<use x="265.184433" y="991.813024" fill="#ffffff" stroke="#ffffff" xlink:href="#b"/>
</g>
<g clip-path="url(#a)">
<use x="308.991438" y="991.813024" fill="#ffffff" stroke="#ffffff" xlink:href="#b"/>
</g>
<g clip-path="url(#a)">
<use x="352.798442" y="991.813024" fill="#ffffff" stroke="#ffffff" xlink:href="#b"/>
</g>
<g clip-path="url(#a)">
<use x="396.605446" y="991.813024" fill="#ffffff" stroke="#ffffff" xlink:href="#b"/>
</g>
<g clip-path="url(#a)">
<use x="440.41245" y="991.813024" fill="#ffffff" stroke="#ffffff" xlink:href="#b"/>
</g>
<g clip-path="url(#a)">
<use x="484.219454" y="991.813024" fill="#ffffff" stroke="#ffffff" xlink:href="#b"/>
</g>
<g clip-path="url(#a)">
<use x="528.026458" y="991.813024" fill="#ffffff" stroke="#ffffff" xlink:href="#b"/>
</g>
<g clip-path="url(#a)">
<use x="571.833462" y="991.813024" fill="#ffffff" stroke="#ffffff" xlink:href="#b"/>
</g>
<g clip-path="url(#a)">
<use x="615.640466" y="991.813024" fill="#ffffff" stroke="#ffffff" xlink:href="#b"/>
</g>
<g clip-path="url(#a)">
<use x="659.44747" y="991.813024" fill="#ffffff" stroke="#ffffff" xlink:href="#b"/>
</g>
<g clip-path="url(#a)">
<use x="703.254474" y="991.813024" fill="#ffffff" stroke="#ffffff" xlink:href="#b"/>
</g>
<g clip-path="url(#a)">
<use x="747.061478" y="991.813024" fill="#ffffff" stroke="#ffffff" xlink:href="#b"/>
</g>
<g clip-path="url(#a)">
<use x="790.868482" y="991.813024" fill="#ffffff" stroke="#ffffff" xlink:href="#b"/>
</g>
<g clip-path="url(#a)">
<use x="834.675486" y="991.813024" fill="#ffffff" stroke="#ffffff" xlink:href="#b"/>
</g>
<g clip-path="url(#a)">
<use x="878.48249" y="991.813024" fill="#ffffff" stroke="#ffffff" xlink:href="#b"/>
</g>
<g clip-path="url(#a)">
<use x="922.289494" y="991.813024" fill="#ffffff" stroke="#ffffff" xlink:href="#b"/>
</g>
<g clip-path="url(#a)">
<use x="966.096498" y="991.813024" fill="#ffffff" stroke="#ffffff" xlink:href="#b"/>
</g>
<g clip-path="url(#a)">
<use x="1009.903502" y="991.813024" fill="#ffffff" stroke="#ffffff" xlink:href="#b"/>
</g>
<g clip-path="url(#a)">
<use x="1053.710506" y="991.813024" fill="#ffffff" stroke="#ffffff" xlink:href="#b"/>
</g>
<g clip-path="url(#a)">
<use x="1097.51751" y="991.813024" fill="#ffffff" stroke="#ffffff" xlink:href="#b"/>
</g>
<g clip-path="url(#a)">
<use x="1141.324514" y="991.813024" fill="#ffffff" stroke="#ffffff" xlink:href="#b"/>
</g>
<g clip-path="url(#a)">
<use x="1185.131518" y="991.813024" fill="#ffffff" stroke="#ffffff" xlink:href="#b"/>
</g>
<g clip-path="url(#a)">
<use x="1228.938522" y="991.813024" fill="#ffffff" stroke="#ffffff" xlink:href="#b"/>
</g>
<g clip-path="url(#a)">
<use x="1272.745526" y="991.813024" fill="#ffffff" stroke="#ffffff" xlink:href="#b"/>
</g>
<g clip-path="url(#a)">
<use x="1316.55253" y="991.813024" fill="#ffffff" stroke="#ffffff" xlink:href="#b"/>
</g>
<g clip-path="url(#a)">
<use x="1360.359534" y="991.813024" fill="#ffffff" stroke="#ffffff" xlink:href="#b"/>
</g>
<g clip-path="url(#a)">
<use x="1404.166538" y="991.813024" fill="#ffffff" stroke="#ffffff" xlink:href="#b"/>
</g>
<g clip-path="url(#a)">
<use x="1447.973542" y="991.813024" fill="#ffffff" stroke="#ffffff" xlink:href="#b"/>
</g>
<g clip-path="url(#a)">
<use x="1491.780546" y="991.813024" fill="#ffffff" stroke="#ffffff" xlink:href="#b"/>
</g>
<g clip-path="url(#a)">
<use x="1535.58755" y="991.813024" fill="#ffffff" stroke="#ffffff" xlink:href="#b"/>
</g>
<g clip-path="url(#a)">
<use x="1579.394554" y="991.813024" fill="#ffffff" stroke="#ffffff" xlink:href="#b"/>
</g>
<g clip-path="url(#a)">
<use x="1623.201558" y="991.813024" fill="#ffffff" stroke="#ffffff" xlink:href="#b"/>
</g>
<g clip-path="url(#a)">
<use x="1667.008562" y="991.813024" fill="#ffffff" stroke="#ffffff" xlink:href="#b"/>
</g>
<g clip-path="url(#a)">
<use x="1710.815567" y="991.813024" fill="#ffffff" stroke="#ffffff" xlink:href="#b"/>
</g>
<g clip-path="url(#a)">
<use x="1754.622571" y="991.813024" fill="#ffffff" stroke="#ffffff" xlink:href="#b"/>
</g>
<g clip-path="url(#a)">
<use x="646.511129" y="48.186976" fill="#ffffff" stroke="#ffffff" xlink:href="#b"/>
</g>
<g clip-path="url(#a)">
<use x="155.666923" y="839.325413" fill="#ffffff" stroke="#ffffff" xlink:href="#b"/>
</g>
<g clip-path="url(#a)">
<use x="308.991438" y="686.837802" fill="#ffffff" stroke="#ffffff" xlink:href="#b"/>
</g>
<g clip-path="url(#a)">
<use x="440.41245" y="839.325413" fill="#ffffff" stroke="#ffffff" xlink:href="#b"/>
</g>
<g clip-path="url(#a)">
<use x="927.765369" y="532.228921" fill="#ffffff" stroke="#ffffff" xlink:href="#b"/>
</g>
<g clip-path="url(#a)">
<use x="1280.046694" y="532.228921" fill="#ffffff" stroke="#ffffff" xlink:href="#b"/>
</g>
<g clip-path="url(#a)">
<use x="1358.607254" y="213.466304" fill="#ffffff" stroke="#ffffff" xlink:href="#b"/>
</g>
<g clip-path="url(#a)">
<use x="1798.429575" y="991.813024" fill="#ffffff" stroke="#ffffff" xlink:href="#b"/>
</g>
<g clip-path="url(#a)">
<use x="1141.324514" y="839.325413" fill="#ffffff" stroke="#ffffff" xlink:href="#b"/>
</g>
<g clip-path="url(#a)">
<use x="1228.938522" y="686.837802" fill="#ffffff" stroke="#ffffff" xlink:href="#b"/>
</g>
<g clip-path="url(#a)">
<use x="1228.938522" y="839.325413" fill="#ffffff" stroke="#ffffff" xlink:href="#b"/>
</g>
<g clip-path="url(#a)">
<use x="1395.405137" y="374.642929" fill="#ffffff" stroke="#ffffff" xlink:href="#b"/>
</g>
<g clip-path="url(#a)">
<use x="1316.55253" y="839.325413" fill="#ffffff" stroke="#ffffff" xlink:href="#b"/>
</g>
<g clip-path="url(#a)">
<use x="1360.359534" y="839.325413" fill="#ffffff" stroke="#ffffff" xlink:href="#b"/>
</g>
<g clip-path="url(#a)">
<use x="1509.303348" y="532.228921" fill="#ffffff" stroke="#ffffff" xlink:href="#b"/>
</g>
<g clip-path="url(#a)">
<use x="1404.166538" y="839.325413" fill="#ffffff" stroke="#ffffff" xlink:href="#b"/>
</g>
<g clip-path="url(#a)">
<use x="1447.973542" y="839.325413" fill="#ffffff" stroke="#ffffff" xlink:href="#b"/>
</g>
<g clip-path="url(#a)">
<use x="1491.780546" y="839.325413" fill="#ffffff" stroke="#ffffff" xlink:href="#b"/>
</g>
<g clip-path="url(#a)">
<use x="1535.58755" y="839.325413" fill="#ffffff" stroke="#ffffff" xlink:href="#b"/>
</g>
<g clip-path="url(#a)">
<use x="1667.008562" y="686.837802" fill="#ffffff" stroke="#ffffff" xlink:href="#b"/>
</g>
<g clip-path="url(#a)">
<use x="1579.394554" y="839.325413" fill="#ffffff" stroke="#ffffff" xlink:href="#b"/>
</g>
<g clip-path="url(#a)">
<use x="1623.201558" y="839.325413" fill="#ffffff" stroke="#ffffff" xlink:href="#b"/>
</g>
<g clip-path="url(#a)">
<use x="1667.008562" y="839.325413" fill="#ffffff" stroke="#ffffff" xlink:href="#b"/>
</g>
<g clip-path="url(#a)">
<use x="1710.815567" y="839.325413" fill="#ffffff" stroke="#ffffff" xlink:href="#b"/>
</g>
<g clip-path="url(#a)">
<use x="1185.131518" y="839.325413" fill="#ffffff" stroke="#ffffff" xlink:href="#b"/>
</g>
<g clip-path="url(#a)">
<use x="1272.745526" y="839.325413" fill="#ffffff" stroke="#ffffff" xlink:href="#b"/>
</g>
<g clip-path="url(#a)">
<use x="1886.043583" y="991.813024" fill="#ffffff" stroke="#ffffff" xlink:href="#b"/>
</g>
<g clip-path="url(#a)">
<use x="922.289494" y="686.837802" fill="#ffffff" stroke="#ffffff" xlink:href="#b"/>
</g>
<g clip-path="url(#a)">
<use x="1031.807004" y="686.837802" fill="#ffffff" stroke="#ffffff" xlink:href="#b"/>
</g>
<g clip-path="url(#a)">
<use x="1009.903502" y="839.325413" fill="#ffffff" stroke="#ffffff" xlink:href="#b"/>
</g>
<g clip-path="url(#a)">
<use x="1053.710506" y="839.325413" fill="#ffffff" stroke="#ffffff" xlink:href="#b"/>
</g>
<g clip-path="url(#a)">
<use x="878.48249" y="839.325413" fill="#ffffff" stroke="#ffffff" xlink:href="#b"/>
</g>
<g clip-path="url(#a)">
<use x="922.289494" y="839.325413" fill="#ffffff" stroke="#ffffff" xlink:href="#b"/>
</g>
<g clip-path="url(#a)">
<use x="966.096498" y="839.325413" fill="#ffffff" stroke="#ffffff" xlink:href="#b"/>
</g>
<g clip-path="url(#a)">
<use x="1842.236579" y="991.813024" fill="#ffffff" stroke="#ffffff" xlink:href="#b"/>
</g>
<g clip-path="url(#a)">
<use x="506.122956" y="686.837802" fill="#ffffff" stroke="#ffffff" xlink:href="#b"/>
</g>
<g clip-path="url(#a)">
<use x="615.640466" y="686.837802" fill="#ffffff" stroke="#ffffff" xlink:href="#b"/>
</g>
<g clip-path="url(#a)">
<use x="747.061478" y="686.837802" fill="#ffffff" stroke="#ffffff" xlink:href="#b"/>
</g>
<g clip-path="url(#a)">
<use x="703.254474" y="839.325413" fill="#ffffff" stroke="#ffffff" xlink:href="#b"/>
</g>
<g clip-path="url(#a)">
<use x="747.061478" y="839.325413" fill="#ffffff" stroke="#ffffff" xlink:href="#b"/>
</g>
<g clip-path="url(#a)">
<use x="790.868482" y="839.325413" fill="#ffffff" stroke="#ffffff" xlink:href="#b"/>
</g>
<g clip-path="url(#a)">
<use x="571.833462" y="839.325413" fill="#ffffff" stroke="#ffffff" xlink:href="#b"/>
</g>
<g clip-path="url(#a)">
<use x="615.640466" y="839.325413" fill="#ffffff" stroke="#ffffff" xlink:href="#b"/>
</g>
<g clip-path="url(#a)">
<use x="659.44747" y="839.325413" fill="#ffffff" stroke="#ffffff" xlink:href="#b"/>
</g>
<g clip-path="url(#a)">
<use x="484.219454" y="839.325413" fill="#ffffff" stroke="#ffffff" xlink:href="#b"/>
</g>
<g clip-path="url(#a)">
<use x="528.026458" y="839.325413" fill="#ffffff" stroke="#ffffff" xlink:href="#b"/>
</g>
<g clip-path="url(#a)">
<use x="265.184433" y="839.325413" fill="#ffffff" stroke="#ffffff" xlink:href="#b"/>
</g>
<g clip-path="url(#a)">
<use x="89.956417" y="839.325413" fill="#ffffff" stroke="#ffffff" xlink:href="#b"/>
</g>
<g clip-path="url(#a)">
<use x="352.798442" y="839.325413" fill="#ffffff" stroke="#ffffff" xlink:href="#b"/>
</g>
<g clip-path="url(#a)">
<use x="684.08891" y="374.642929" fill="#808080" stroke="#808080" xlink:href="#b"/>
</g>
<g clip-path="url(#a)">
<use x="757.137089" y="48.186976" fill="#808080" stroke="#808080" xlink:href="#b"/>
</g>
<g clip-path="url(#a)">
<use x="221.377429" y="839.325413" fill="#ffffff" stroke="#ffffff" xlink:href="#b"/>
</g>
<g clip-path="url(#a)">
<use x="308.991438" y="839.325413" fill="#ffffff" stroke="#ffffff" xlink:href="#b"/>
</g>
<g clip-path="url(#a)">
<use x="396.605446" y="839.325413" fill="#ffffff" stroke="#ffffff" xlink:href="#b"/>
</g>
<g clip-path="url(#a)">
<use x="834.675486" y="839.325413" fill="#ffffff" stroke="#ffffff" xlink:href="#b"/>
</g>
<g clip-path="url(#a)">
<use x="1097.51751" y="839.325413" fill="#ffffff" stroke="#ffffff" xlink:href="#b"/>
</g>
<g clip-path="url(#a)">
<use x="1754.622571" y="839.325413" fill="#ffffff" stroke="#ffffff" xlink:href="#b"/>
</g>
<g clip-path="url(#a)">
<defs>
<path id="ay" d="m51.812 51.703v-9.3125l-14.703-13.094 14.703-13.078v-9.3281l-22.906 20.406v4zm-21.203 0v-9.3125l-14.688-13.094 14.688-13.078v-9.3281l-22.891 20.406v4z"/>
</defs>
<g transform="translate(86.897 994.57) scale(.1 -.1)">
<use xlink:href="#ay"/>
</g>
</g>
<g clip-path="url(#a)">
<defs>
<path id="n" d="m44.281 53.078v-8.5q-3.7969 1.9531-7.9062 2.9219-4.0938 0.98438-8.5 0.98438-6.6875 0-10.031-2.0469t-3.3438-6.1562q0-3.125 2.3906-4.9062t9.625-3.3906l3.0781-0.6875q9.5625-2.0469 13.594-5.7812t4.0312-10.422q0-7.625-6.0312-12.078-6.0312-4.4375-16.578-4.4375-4.3906 0-9.1562 0.85938t-10.031 2.5625v9.2812q4.9844-2.5938 9.8125-3.8906 4.8281-1.2812 9.5781-1.2812 6.3438 0 9.75 2.1719 3.4219 2.1719 3.4219 6.125 0 3.6562-2.4688 5.6094-2.4531 1.9531-10.812 3.7656l-3.125 0.73438q-8.3438 1.75-12.062 5.3906-3.7031 3.6406-3.7031 9.9844 0 7.7188 5.4688 11.906 5.4688 4.2031 15.531 4.2031 4.9688 0 9.3594-0.73438 4.4062-0.71875 8.1094-2.1875z"/>
</defs>
<g transform="translate(121.79 994.57) scale(.1 -.1)">
<use xlink:href="#v"/>
<use x="68.408203" xlink:href="#f"/>
<use x="96.191406" xlink:href="#g"/>
<use x="159.570312" xlink:href="#n"/>
<use x="211.669922" xlink:href="#f"/>
</g>
</g>
<g clip-path="url(#a)">
<defs>
<path id="ag" d="m45.406 46.391v29.594h8.9844v-75.984h-8.9844v8.2031q-2.8281-4.875-7.1562-7.25-4.3125-2.375-10.375-2.375-9.9062 0-16.141 7.9062-6.2188 7.9219-6.2188 20.812t6.2188 20.797q6.2344 7.9062 16.141 7.9062 6.0625 0 10.375-2.375 4.3281-2.3594 7.1562-7.2344zm-30.609-19.094q0-9.9062 4.0781-15.547t11.203-5.6406 11.219 5.6406q4.1094 5.6406 4.1094 15.547t-4.1094 15.547q-4.0938 5.6406-11.219 5.6406t-11.203-5.6406-4.0781-15.547z"/>
<path id="af" d="m30.609 48.391q-7.2188 0-11.422-5.6406t-4.2031-15.453 4.1719-15.453q4.1875-5.6406 11.453-5.6406 7.1875 0 11.375 5.6562 4.2031 5.6719 4.2031 15.438 0 9.7188-4.2031 15.406-4.1875 5.6875-11.375 5.6875zm0 7.6094q11.719 0 18.406-7.625 6.7031-7.6094 6.7031-21.078 0-13.422-6.7031-21.078-6.6875-7.6406-18.406-7.6406-11.766 0-18.438 7.6406-6.6562 7.6562-6.6562 21.078 0 13.469 6.6562 21.078 6.6719 7.625 18.438 7.625z"/>
<path id="ah" d="m48.781 52.594v-8.4062q-3.8125 2.1094-7.6406 3.1562t-7.7344 1.0469q-8.75 0-13.594-5.5469-4.8281-5.5312-4.8281-15.547t4.8281-15.562q4.8438-5.5312 13.594-5.5312 3.9062 0 7.7344 1.0469t7.6406 3.1562v-8.3125q-3.7656-1.75-7.7969-2.625-4.0156-0.89062-8.5625-0.89062-12.359 0-19.641 7.7656-7.2656 7.7656-7.2656 20.953 0 13.375 7.3438 21.031 7.3594 7.6719 20.156 7.6719 4.1406 0 8.0938-0.85938 3.9531-0.84375 7.6719-2.5469z"/>
</defs>
<g transform="translate(165.42 994.57) scale(.1 -.1)">
<use xlink:href="#ag"/>
<use x="63.476562" xlink:href="#af"/>
<use x="124.658203" xlink:href="#g"/>
<use x="188.037109" xlink:href="#ah"/>
</g>
</g>
<g clip-path="url(#a)">
<defs>
<path id="al" d="m11.719 12.406h10.297v-8.4062l-8-15.625h-6.2969l4 15.625z"/>
</defs>
<g transform="translate(219.79 994.57) scale(.1 -.1)">
<use xlink:href="#al"/>
</g>
</g>
<g clip-path="url(#a)">
<g transform="translate(250.96 994.57) scale(.1 -.1)">
<use xlink:href="#ag"/>
<use x="63.476562" xlink:href="#f"/>
<use x="91.259766" xlink:href="#n"/>
<use x="143.359375" xlink:href="#h"/>
<use x="204.638672" xlink:href="#f"/>
<use x="232.421875" xlink:href="#n"/>
</g>
</g>
<g clip-path="url(#a)">
<defs>
<path id="aw" d="m4.8906 31.391h26.312v-8h-26.312z"/>
</defs>
<g transform="translate(307.19 994.57) scale(.1 -.1)">
<use xlink:href="#aw"/>
</g>
</g>
<g clip-path="url(#a)">
<defs>
<path id="au" d="m9.4219 54.688h8.9844v-55.672q0-10.438-3.9844-15.125-3.9688-4.6875-12.812-4.6875h-3.4219v7.6094h2.4062q5.125 0 6.9688 2.375 1.8594 2.3594 1.8594 9.8281zm0 21.297h8.9844v-11.391h-8.9844z"/>
</defs>
<g transform="translate(348.33 994.57) scale(.1 -.1)">
<use xlink:href="#au"/>
<use x="27.783203" xlink:href="#d"/>
</g>
</g>
<g clip-path="url(#a)">
<g transform="translate(395.02 994.57) scale(.1 -.1)">
<use xlink:href="#al"/>
</g>
</g>
<g clip-path="url(#a)">
<defs>
<path id="aj" d="m18.109 8.2031v-29h-9.0312v75.484h9.0312v-8.2969q2.8438 4.875 7.1562 7.2344 4.3281 2.375 10.328 2.375 9.9688 0 16.188-7.9062 6.2344-7.9062 6.2344-20.797t-6.2344-20.812q-6.2188-7.9062-16.188-7.9062-6 0-10.328 2.375-4.3125 2.375-7.1562 7.25zm30.578 19.094q0 9.9062-4.0781 15.547t-11.203 5.6406q-7.1406 0-11.219-5.6406t-4.0781-15.547 4.0781-15.547 11.219-5.6406q7.125 0 11.203 5.6406t4.0781 15.547z"/>
<path id="at" d="m56.203 29.594v-4.3906h-41.312q0.59375-9.2812 5.5938-14.141t13.938-4.8594q5.1719 0 10.031 1.2656t9.6562 3.8125v-8.5q-4.8438-2.0469-9.9219-3.125t-10.297-1.0781q-13.094 0-20.734 7.6094-7.6406 7.625-7.6406 20.625 0 13.422 7.25 21.297 7.25 7.8906 19.562 7.8906 11.031 0 17.453-7.1094 6.4219-7.0938 6.4219-19.297zm-8.9844 2.6406q-0.09375 7.3594-4.125 11.75-4.0312 4.4062-10.672 4.4062-7.5156 0-12.031-4.25t-5.2031-11.969zm-22.547 47.75 13.766-18.266h-7.4688l-15.922 18.266z"/>
</defs>
<g transform="translate(426.44 994.77) scale(.1 -.1)">
<use xlink:href="#h"/>
<use x="61.279297" xlink:href="#aj"/>
<use x="124.755859" xlink:href="#i"/>
<use x="165.837891" xlink:href="#at"/>
<use x="227.361328" xlink:href="#n"/>
</g>
</g>
<g clip-path="url(#a)">
<defs>
<path id="ar" d="m2.9844 54.688h9.5156l17.094-45.891 17.094 45.891h9.5156l-20.516-54.688h-12.203z"/>
</defs>
<g transform="translate(471.69 994.57) scale(.1 -.1)">
<use xlink:href="#h"/>
<use x="61.279297" xlink:href="#ar"/>
<use x="120.458984" xlink:href="#af"/>
<use x="181.640625" xlink:href="#f"/>
<use x="209.423828" xlink:href="#i"/>
</g>
</g>
<g clip-path="url(#a)">
<defs>
<path id="aq" d="m54.891 54.688-19.781-26.609 20.797-28.078h-10.594l-15.922 21.484-15.906-21.484h-10.609l21.25 28.609-19.438 26.078h10.594l14.5-19.484 14.5 19.484z"/>
<path id="am" d="m56.203 29.594v-4.3906h-41.312q0.59375-9.2812 5.5938-14.141t13.938-4.8594q5.1719 0 10.031 1.2656t9.6562 3.8125v-8.5q-4.8438-2.0469-9.9219-3.125t-10.297-1.0781q-13.094 0-20.734 7.6094-7.6406 7.625-7.6406 20.625 0 13.422 7.25 21.297 7.25 7.8906 19.562 7.8906 11.031 0 17.453-7.1094 6.4219-7.0938 6.4219-19.297zm-8.9844 2.6406q-0.09375 7.3594-4.125 11.75-4.0312 4.4062-10.672 4.4062-7.5156 0-12.031-4.25t-5.2031-11.969zm-8.6875 47.75h9.7188l-15.906-18.359h-7.4844z"/>
</defs>
<g transform="translate(506.42 994.57) scale(.1 -.1)">
<use xlink:href="#d"/>
<use x="61.507812" xlink:href="#aq"/>
<use x="120.6875" xlink:href="#h"/>
<use x="181.966797" xlink:href="#j"/>
<use x="279.378906" xlink:href="#f"/>
<use x="307.162109" xlink:href="#g"/>
<use x="370.541016" xlink:href="#am"/>
</g>
</g>
<g clip-path="url(#a)">
<defs>
<path id="u" d="m8.5 21.578v33.109h8.9844v-32.766q0-7.7656 3.0156-11.656 3.0312-3.875 9.0938-3.875 7.2656 0 11.484 4.6406 4.2344 4.6406 4.2344 12.656v31h8.9844v-54.688h-8.9844v8.4062q-3.2656-4.9844-7.5938-7.4062-4.3125-2.4219-10.031-2.4219-9.4219 0-14.312 5.8594-4.875 5.8594-4.875 17.141z"/>
</defs>
<g transform="translate(562.42 994.57) scale(.1 -.1)">
<use xlink:href="#u"/>
<use x="63.378906" xlink:href="#g"/>
<use x="126.757812" xlink:href="#d"/>
</g>
</g>
<g clip-path="url(#a)">
<defs>
<path id="ax" d="m34.281 27.484q-10.891 0-15.094-2.4844t-4.2031-8.5q0-4.7812 3.1562-7.5938 3.1562-2.7969 8.5625-2.7969 7.4844 0 12 5.2969t4.5156 14.078v2zm17.922 3.7188v-31.203h-8.9844v8.2969q-3.0781-4.9688-7.6719-7.3438t-11.234-2.375q-8.3906 0-13.359 4.7188-4.9531 4.7188-4.9531 12.625 0 9.2188 6.1719 13.906 6.1875 4.6875 18.438 4.6875h12.609v0.89062q0 6.2031-4.0781 9.5938t-11.453 3.3906q-4.6875 0-9.1406-1.125-4.4375-1.125-8.5312-3.375v8.3125q4.9219 1.9062 9.5625 2.8438 4.6406 0.95312 9.0312 0.95312 11.875 0 17.734-6.1562 5.8594-6.1406 5.8594-18.641zm-30.281 48.781 13.766-18.266h-7.4688l-15.922 18.266z"/>
</defs>
<g transform="translate(612.58 994.57) scale(.1 -.1)">
<use xlink:href="#ax"/>
</g>
</g>
<g clip-path="url(#a)">
<g transform="translate(650.03 994.57) scale(.1 -.1)">
<use xlink:href="#u"/>
<use x="63.378906" xlink:href="#g"/>
<use x="126.757812" xlink:href="#d"/>
</g>
</g>
<g clip-path="url(#a)">
<g transform="translate(696.18 994.57) scale(.1 -.1)">
<use xlink:href="#k"/>
<use x="27.783203" xlink:href="#d"/>
<use x="89.306641" xlink:href="#n"/>
</g>
</g>
<g clip-path="url(#a)">
<g transform="translate(726.12 994.57) scale(.1 -.1)">
<use xlink:href="#ag"/>
<use x="63.476562" xlink:href="#f"/>
<use x="91.259766" xlink:href="#ar"/>
<use x="150.439453" xlink:href="#d"/>
<use x="211.962891" xlink:href="#i"/>
<use x="253.076172" xlink:href="#n"/>
<use x="305.175781" xlink:href="#d"/>
<use x="366.699219" xlink:href="#n"/>
</g>
</g>
<g clip-path="url(#a)">
<defs>
<path id="av" d="m54.891 33.016v-33.016h-8.9844v32.719q0 7.7656-3.0312 11.609-3.0312 3.8594-9.0781 3.8594-7.2812 0-11.484-4.6406-4.2031-4.625-4.2031-12.641v-30.906h-9.0312v75.984h9.0312v-29.797q3.2344 4.9375 7.5938 7.375 4.375 2.4375 10.094 2.4375 9.4219 0 14.25-5.8281 4.8438-5.8281 4.8438-17.156z"/>
<path id="az" d="m32.172-5.0781q-3.7969-9.7656-7.4219-12.734-3.6094-2.9844-9.6562-2.9844h-7.1875v7.5156h5.2812q3.7031 0 5.75 1.7656 2.0625 1.75 4.5469 8.2969l1.6094 4.0938-22.109 53.812h9.5156l17.094-42.766 17.094 42.766h9.5156z"/>
<path id="s" d="m18.312 70.219v-15.531h18.5v-6.9844h-18.5v-29.688q0-6.6875 1.8281-8.5938t7.4531-1.9062h9.2188v-7.5156h-9.2188q-10.406 0-14.359 3.875-3.9531 3.8906-3.9531 14.141v29.688h-6.5938v6.9844h6.5938v15.531z"/>
</defs>
<g transform="translate(762.02 994.77) scale(.1 -.1)">
<use xlink:href="#av"/>
<use x="63.378906" xlink:href="#az"/>
<use x="122.558594" xlink:href="#aj"/>
<use x="186.035156" xlink:href="#af"/>
<use x="247.216797" xlink:href="#s"/>
<use x="286.425781" xlink:href="#av"/>
<use x="349.804688" xlink:href="#at"/>
<use x="411.328125" xlink:href="#n"/>
<use x="463.427734" xlink:href="#d"/>
<use x="524.951172" xlink:href="#n"/>
</g>
</g>
<g clip-path="url(#a)">
<g transform="translate(833.09 994.57) scale(.1 -.1)">
<use xlink:href="#al"/>
</g>
</g>
<g clip-path="url(#a)">
<g transform="translate(865.26 994.57) scale(.1 -.1)">
<use xlink:href="#s"/>
<use x="39.208984" xlink:href="#af"/>
<use x="100.390625" xlink:href="#u"/>
<use x="163.769531" xlink:href="#s"/>
<use x="202.978516" xlink:href="#d"/>
</g>
</g>
<g clip-path="url(#a)">
<g transform="translate(908.97 994.57) scale(.1 -.1)">
<use xlink:href="#h"/>
<use x="61.279297" xlink:href="#u"/>
<use x="124.658203" xlink:href="#s"/>
<use x="163.867188" xlink:href="#i"/>
<use x="204.949219" xlink:href="#d"/>
</g>
</g>
<g clip-path="url(#a)">
<g transform="translate(937.34 994.57) scale(.1 -.1)">
<use xlink:href="#n"/>
<use x="52.099609" xlink:href="#u"/>
<use x="115.478516" xlink:href="#aj"/>
<use x="178.955078" xlink:href="#aj"/>
<use x="242.431641" xlink:href="#af"/>
<use x="303.613281" xlink:href="#n"/>
<use x="355.712891" xlink:href="#f"/>
<use x="383.496094" xlink:href="#s"/>
<use x="422.705078" xlink:href="#f"/>
<use x="450.488281" xlink:href="#af"/>
<use x="511.669922" xlink:href="#g"/>
</g>
</g>
<g clip-path="url(#a)">
<g transform="translate(996.67 994.57) scale(.1 -.1)">
<use xlink:href="#am"/>
<use x="61.523438" xlink:href="#s"/>
<use x="100.732422" xlink:href="#h"/>
<use x="162.011719" xlink:href="#g"/>
<use x="225.390625" xlink:href="#s"/>
</g>
</g>
<g clip-path="url(#a)">
<g transform="translate(1036 994.77) scale(.1 -.1)">
<use xlink:href="#i"/>
<use x="41.082031" xlink:href="#d"/>
<use x="102.605469" xlink:href="#au"/>
<use x="130.388672" xlink:href="#d"/>
<use x="191.912109" xlink:href="#s"/>
<use x="231.121094" xlink:href="#am"/>
<use x="292.644531" xlink:href="#d"/>
</g>
</g>
<g clip-path="url(#a)">
<g transform="translate(1095.9 994.57) scale(.1 -.1)">
<use xlink:href="#al"/>
</g>
</g>
<g clip-path="url(#a)">
<g transform="translate(1138.5 994.57) scale(.1 -.1)">
<use xlink:href="#f"/>
<use x="27.783203" xlink:href="#k"/>
</g>
</g>
<g clip-path="url(#a)">
<defs>
<path id="ba" d="m37.109 75.984v-7.4844h-8.5938q-4.8281 0-6.7188-1.9531-1.875-1.9531-1.875-7.0312v-4.8281h14.797v-6.9844h-14.797v-47.703h-9.0312v47.703h-8.5938v6.9844h8.5938v3.8125q0 9.125 4.25 13.297 4.25 4.1875 13.469 4.1875z"/>
</defs>
<g transform="translate(1175.2 994.57) scale(.1 -.1)">
<use xlink:href="#ba"/>
<use x="35.205078" xlink:href="#h"/>
<use x="96.484375" xlink:href="#u"/>
<use x="159.863281" xlink:href="#s"/>
</g>
</g>
<g clip-path="url(#a)">
<g transform="translate(1189 994.57) scale(.1 -.1)">
<use xlink:href="#g"/>
<use x="63.378906" xlink:href="#am"/>
<use x="124.902344" xlink:href="#ah"/>
<use x="179.882812" xlink:href="#d"/>
<use x="241.40625" xlink:href="#n"/>
<use x="293.505859" xlink:href="#n"/>
<use x="345.605469" xlink:href="#h"/>
<use x="406.884766" xlink:href="#f"/>
<use x="434.667969" xlink:href="#i"/>
<use x="475.75" xlink:href="#d"/>
<use x="537.273438" xlink:href="#j"/>
<use x="634.685547" xlink:href="#d"/>
<use x="696.208984" xlink:href="#g"/>
<use x="759.587891" xlink:href="#s"/>
</g>
</g>
<g clip-path="url(#a)">
<g transform="translate(1249.5 994.57) scale(.1 -.1)">
<use xlink:href="#h"/>
<use x="61.279297" xlink:href="#ag"/>
<use x="124.755859" xlink:href="#j"/>
<use x="222.167969" xlink:href="#d"/>
<use x="283.691406" xlink:href="#s"/>
<use x="322.900391" xlink:href="#s"/>
<use x="362.109375" xlink:href="#i"/>
<use x="403.191406" xlink:href="#d"/>
</g>
</g>
<g clip-path="url(#a)">
<defs>
<path id="an" d="m8.2969 72.906 25.391-82.188h-8.2969l-25.391 82.188z"/>
<path id="m" d="m19.188 8.2969h34.422v-8.2969h-46.281v8.2969q5.6094 5.8125 15.297 15.594 9.7031 9.7969 12.188 12.641 4.7344 5.3125 6.6094 9 1.8906 3.6875 1.8906 7.25 0 5.8125-4.0781 9.4688-4.0781 3.6719-10.625 3.6719-4.6406 0-9.7969-1.6094-5.1406-1.6094-11-4.8906v9.9688q5.9531 2.3906 11.125 3.6094 5.1875 1.2188 9.4844 1.2188 11.328 0 18.062-5.6719 6.7344-5.6562 6.7344-15.125 0-4.5-1.6875-8.5312-1.6719-4.0156-6.125-9.4844-1.2188-1.4219-7.7656-8.1875-6.5312-6.7656-18.453-18.922z"/>
<path id="z" d="m31.781 66.406q-7.6094 0-11.453-7.5-3.8281-7.4844-3.8281-22.531 0-14.984 3.8281-22.484 3.8438-7.5 11.453-7.5 7.6719 0 11.5 7.5 3.8438 7.5 3.8438 22.484 0 15.047-3.8438 22.531-3.8281 7.5-11.5 7.5zm0 7.8125q12.266 0 18.734-9.7031 6.4688-9.6875 6.4688-28.141 0-18.406-6.4688-28.109-6.4688-9.6875-18.734-9.6875-12.25 0-18.719 9.6875-6.4688 9.7031-6.4688 28.109 0 18.453 6.4688 28.141 6.4688 9.7031 18.719 9.7031z"/>
<path id="c" d="m12.406 8.2969h16.109v55.625l-17.531-3.5156v8.9844l17.438 3.5156h9.8594v-64.609h16.109v-8.2969h-41.984z"/>
<path id="aa" d="m10.984 1.5156v8.9844q3.7188-1.7656 7.5156-2.6875 3.8125-0.92188 7.4844-0.92188 9.7656 0 14.906 6.5625 5.1562 6.5625 5.8906 19.953-2.8281-4.2031-7.1875-6.4531-4.3438-2.25-9.6094-2.25-10.938 0-17.312 6.6094-6.375 6.625-6.375 18.109 0 11.219 6.6406 18 6.6406 6.7969 17.672 6.7969 12.656 0 19.312-9.7031 6.6719-9.6875 6.6719-28.141 0-17.234-8.1875-27.516-8.1719-10.281-21.984-10.281-3.7188 0-7.5312 0.73438-3.7969 0.73438-7.9062 2.2031zm19.625 30.906q6.6406 0 10.516 4.5312 3.8906 4.5469 3.8906 12.469 0 7.8594-3.8906 12.422-3.875 4.5625-10.516 4.5625t-10.516-4.5625-3.875-12.422q0-7.9219 3.875-12.469 3.875-4.5312 10.516-4.5312z"/>
</defs>
<g transform="translate(1297.6 994.57) scale(.1 -.1)">
<use xlink:href="#k"/>
<use x="27.783203" xlink:href="#an"/>
<use x="61.474609" xlink:href="#u"/>
<use x="124.853516" xlink:href="#m"/>
<use x="188.476562" xlink:href="#z"/>
<use x="252.099609" xlink:href="#c"/>
<use x="315.722656" xlink:href="#aa"/>
</g>
</g>
<g clip-path="url(#a)">
<g transform="translate(1336.3 994.57) scale(.1 -.1)">
<use xlink:href="#d"/>
<use x="61.507812" xlink:href="#aq"/>
<use x="120.6875" xlink:href="#f"/>
<use x="148.470703" xlink:href="#n"/>
<use x="200.570312" xlink:href="#s"/>
<use x="239.779297" xlink:href="#d"/>
<use x="301.302734" xlink:href="#g"/>
<use x="364.681641" xlink:href="#ah"/>
<use x="419.662109" xlink:href="#d"/>
</g>
</g>
<g clip-path="url(#a)">
<g transform="translate(1383.4 994.57) scale(.1 -.1)">
<use xlink:href="#ag"/>
<use x="63.476562" xlink:href="#an"/>
<use x="97.167969" xlink:href="#u"/>
<use x="160.546875" xlink:href="#m"/>
<use x="224.169922" xlink:href="#z"/>
<use x="287.792969" xlink:href="#c"/>
<use x="351.416016" xlink:href="#aa"/>
</g>
</g>
<g clip-path="url(#a)">
<g transform="translate(1441.6 994.57) scale(.1 -.1)">
<use xlink:href="#u"/>
<use x="63.378906" xlink:href="#g"/>
</g>
</g>
<g clip-path="url(#a)">
<g transform="translate(1474.8 994.57) scale(.1 -.1)">
<use xlink:href="#h"/>
<use x="61.279297" xlink:href="#g"/>
<use x="124.658203" xlink:href="#f"/>
<use x="152.441406" xlink:href="#j"/>
<use x="249.853516" xlink:href="#h"/>
<use x="311.132812" xlink:href="#k"/>
</g>
</g>
<g clip-path="url(#a)">
<g transform="translate(1521 994.57) scale(.1 -.1)">
<use xlink:href="#j"/>
<use x="97.412109" xlink:href="#h"/>
<use x="158.691406" xlink:href="#i"/>
<use x="199.804688" xlink:href="#f"/>
<use x="227.587891" xlink:href="#g"/>
</g>
</g>
<g clip-path="url(#a)">
<g transform="translate(1558.6 994.57) scale(.1 -.1)">
<use xlink:href="#ag"/>
<use x="63.476562" xlink:href="#an"/>
<use x="97.167969" xlink:href="#u"/>
<use x="160.546875" xlink:href="#m"/>
<use x="224.169922" xlink:href="#z"/>
<use x="287.792969" xlink:href="#c"/>
<use x="351.416016" xlink:href="#aa"/>
</g>
</g>
<g clip-path="url(#a)">
<g transform="translate(1613.8 994.57) scale(.1 -.1)">
<use xlink:href="#u"/>
<use x="63.378906" xlink:href="#g"/>
<use x="126.757812" xlink:href="#d"/>
</g>
</g>
<g clip-path="url(#a)">
<g transform="translate(1642 994.57) scale(.1 -.1)">
<use xlink:href="#aj"/>
<use x="63.476562" xlink:href="#u"/>
<use x="126.855469" xlink:href="#f"/>
<use x="154.638672" xlink:href="#n"/>
<use x="206.738281" xlink:href="#n"/>
<use x="258.837891" xlink:href="#h"/>
<use x="320.117188" xlink:href="#g"/>
<use x="383.496094" xlink:href="#ah"/>
<use x="438.476562" xlink:href="#d"/>
</g>
</g>
<g clip-path="url(#a)">
<g transform="translate(1686.3 994.57) scale(.1 -.1)">
<use xlink:href="#d"/>
<use x="61.507812" xlink:href="#aq"/>
<use x="120.671875" xlink:href="#ah"/>
<use x="175.652344" xlink:href="#d"/>
<use x="237.175781" xlink:href="#n"/>
<use x="289.275391" xlink:href="#n"/>
<use x="341.375" xlink:href="#f"/>
<use x="369.158203" xlink:href="#ar"/>
<use x="428.337891" xlink:href="#d"/>
</g>
</g>
<g clip-path="url(#a)">
<defs>
<path id="e" d="m10.688 12.406h10.312v-12.406h-10.312z"/>
</defs>
<g transform="translate(1753 994.57) scale(.1 -.1)">
<use xlink:href="#e"/>
</g>
</g>
<g clip-path="url(#a)">
<g transform="translate(638.56 50.946) scale(.1 -.1)">
<use xlink:href="#c"/>
<use x="63.623047" xlink:href="#e"/>
<use x="95.410156" xlink:href="#c"/>
</g>
</g>
<g clip-path="url(#a)">
<defs>
<path id="p" d="m40.578 39.312q7.0781-1.5156 11.047-6.3125 3.9844-4.7812 3.9844-11.812 0-10.781-7.4219-16.703-7.4219-5.9062-21.094-5.9062-4.5781 0-9.4375 0.90625t-10.031 2.7188v9.5156q4.0938-2.3906 8.9688-3.6094 4.8906-1.2188 10.219-1.2188 9.2656 0 14.125 3.6562t4.8594 10.641q0 6.4531-4.5156 10.078-4.5156 3.6406-12.562 3.6406h-8.5v8.1094h8.8906q7.2656 0 11.125 2.9062t3.8594 8.375q0 5.6094-3.9844 8.6094-3.9688 3.0156-11.391 3.0156-4.0625 0-8.7031-0.89062-4.6406-0.875-10.203-2.7188v8.7812q5.625 1.5625 10.531 2.3438t9.25 0.78125q11.234 0 17.766-5.1094 6.5469-5.0938 6.5469-13.781 0-6.0625-3.4688-10.234t-9.8594-5.7812z"/>
</defs>
<g transform="translate(147.72 842.08) scale(.1 -.1)">
<use xlink:href="#c"/>
<use x="63.623047" xlink:href="#e"/>
<use x="95.410156" xlink:href="#p"/>
</g>
</g>
<g clip-path="url(#a)">
<defs>
<path id="o" d="m10.797 72.906h38.719v-8.3125h-29.688v-17.859q2.1406 0.73438 4.2812 1.0938 2.1562 0.35938 4.3125 0.35938 12.203 0 19.328-6.6875 7.1406-6.6875 7.1406-18.109 0-11.766-7.3281-18.297-7.3281-6.5156-20.656-6.5156-4.5938 0-9.3594 0.78125-4.75 0.78125-9.8281 2.3438v9.9219q4.3906-2.3906 9.0781-3.5625t9.9062-1.1719q8.4531 0 13.375 4.4375 4.9375 4.4375 4.9375 12.062 0 7.6094-4.9375 12.047-4.9219 4.4531-13.375 4.4531-3.9531 0-7.8906-0.875-3.9219-0.875-8.0156-2.7344z"/>
</defs>
<g transform="translate(301.04 689.6) scale(.1 -.1)">
<use xlink:href="#c"/>
<use x="63.623047" xlink:href="#e"/>
<use x="95.410156" xlink:href="#o"/>
</g>
</g>
<g clip-path="url(#a)">
<defs>
<path id="ae" d="m8.2031 72.906h46.875v-4.2031l-26.469-68.703h-10.297l24.906 64.594h-35.016z"/>
</defs>
<g transform="translate(432.46 842.08) scale(.1 -.1)">
<use xlink:href="#c"/>
<use x="63.623047" xlink:href="#e"/>
<use x="95.410156" xlink:href="#ae"/>
</g>
</g>
<g clip-path="url(#a)">
<defs>
<path id="ad" d="m31.781 34.625q-7.0312 0-11.062-3.7656-4.0156-3.7656-4.0156-10.344 0-6.5938 4.0156-10.359 4.0312-3.7656 11.062-3.7656t11.078 3.7812q4.0625 3.7969 4.0625 10.344 0 6.5781-4.0312 10.344-4.0156 3.7656-11.109 3.7656zm-9.8594 4.1875q-6.3438 1.5625-9.8906 5.9062-3.5312 4.3594-3.5312 10.609 0 8.7344 6.2188 13.812 6.2344 5.0781 17.062 5.0781 10.891 0 17.094-5.0781t6.2031-13.812q0-6.25-3.5469-10.609-3.5312-4.3438-9.8281-5.9062 7.125-1.6562 11.094-6.5 3.9844-4.8281 3.9844-11.797 0-10.609-6.4688-16.281-6.4688-5.6562-18.531-5.6562-12.047 0-18.531 5.6562-6.4688 5.6719-6.4688 16.281 0 6.9688 4 11.797 4.0156 4.8438 11.141 6.5zm-3.6094 15.578q0-5.6562 3.5312-8.8281 3.5469-3.1719 9.9375-3.1719 6.3594 0 9.9375 3.1719 3.5938 3.1719 3.5938 8.8281 0 5.6719-3.5938 8.8438-3.5781 3.1719-9.9375 3.1719-6.3906 0-9.9375-3.1719-3.5312-3.1719-3.5312-8.8438z"/>
</defs>
<g transform="translate(919.81 534.99) scale(.1 -.1)">
<use xlink:href="#c"/>
<use x="63.623047" xlink:href="#e"/>
<use x="95.410156" xlink:href="#ad"/>
</g>
</g>
<g clip-path="url(#a)">
<g transform="translate(1268.9 534.99) scale(.1 -.1)">
<use xlink:href="#c"/>
<use x="63.623047" xlink:href="#e"/>
<use x="95.410156" xlink:href="#c"/>
<use x="159.033203" xlink:href="#z"/>
</g>
</g>
<g clip-path="url(#a)">
<g transform="translate(1347.5 216.23) scale(.1 -.1)">
<use xlink:href="#c"/>
<use x="63.623047" xlink:href="#e"/>
<use x="95.410156" xlink:href="#c"/>
<use x="159.033203" xlink:href="#m"/>
</g>
</g>
<g clip-path="url(#a)">
<defs>
<path id="x" d="m9.8125 72.906h9.8594v-72.906h-9.8594z"/>
<path id="ao" d="m9.8125 72.906h14.703l18.594-49.609 18.703 49.609h14.703v-72.906h-9.625v64.016l-18.797-50h-9.9062l-18.797 50v-64.016h-9.5781z"/>
</defs>
<g transform="translate(1777.3 994.57) scale(.1 -.1)">
<use xlink:href="#x"/>
<use x="29.492188" xlink:href="#ao"/>
<use x="115.771484" xlink:href="#ac"/>
<use x="176.074219" xlink:href="#w"/>
<use x="231.787109" xlink:href="#x"/>
<use x="261.279297" xlink:href="#q"/>
<use x="331.103516" xlink:href="#x"/>
<use x="360.595703" xlink:href="#l"/>
</g>
</g>
<g clip-path="url(#a)">
<g transform="translate(1130.2 842.08) scale(.1 -.1)">
<use xlink:href="#c"/>
<use x="63.623047" xlink:href="#e"/>
<use x="95.410156" xlink:href="#c"/>
<use x="159.033203" xlink:href="#o"/>
</g>
</g>
<g clip-path="url(#a)">
<defs>
<path id="y" d="m33.016 40.375q-6.6406 0-10.531-4.5469-3.875-4.5312-3.875-12.438 0-7.8594 3.875-12.438 3.8906-4.5625 10.531-4.5625t10.516 4.5625q3.875 4.5781 3.875 12.438 0 7.9062-3.875 12.438-3.875 4.5469-10.516 4.5469zm19.578 30.922v-8.9844q-3.7188 1.75-7.5 2.6719-3.7812 0.9375-7.5 0.9375-9.7656 0-14.922-6.5938-5.1406-6.5938-5.875-19.922 2.875 4.25 7.2188 6.5156 4.3594 2.2656 9.5781 2.2656 10.984 0 17.359-6.6719 6.375-6.6562 6.375-18.125 0-11.234-6.6406-18.031-6.6406-6.7812-17.672-6.7812-12.656 0-19.344 9.6875-6.6875 9.7031-6.6875 28.109 0 17.281 8.2031 27.562t22.016 10.281q3.7188 0 7.5-0.73438t7.8906-2.1875z"/>
</defs>
<g transform="translate(1217.8 689.6) scale(.1 -.1)">
<use xlink:href="#c"/>
<use x="63.623047" xlink:href="#e"/>
<use x="95.410156" xlink:href="#c"/>
<use x="159.033203" xlink:href="#y"/>
</g>
</g>
<g clip-path="url(#a)">
<g transform="translate(1217.8 842.08) scale(.1 -.1)">
<use xlink:href="#c"/>
<use x="63.623047" xlink:href="#e"/>
<use x="95.410156" xlink:href="#c"/>
<use x="159.033203" xlink:href="#ae"/>
</g>
</g>
<g clip-path="url(#a)">
<g transform="translate(1384.3 377.4) scale(.1 -.1)">
<use xlink:href="#c"/>
<use x="63.623047" xlink:href="#e"/>
<use x="95.410156" xlink:href="#c"/>
<use x="159.033203" xlink:href="#ad"/>
</g>
</g>
<g clip-path="url(#a)">
<g transform="translate(1305.4 842.08) scale(.1 -.1)">
<use xlink:href="#c"/>
<use x="63.623047" xlink:href="#e"/>
<use x="95.410156" xlink:href="#c"/>
<use x="159.033203" xlink:href="#aa"/>
</g>
</g>
<g clip-path="url(#a)">
<g transform="translate(1349.2 842.08) scale(.1 -.1)">
<use xlink:href="#c"/>
<use x="63.623047" xlink:href="#e"/>
<use x="95.410156" xlink:href="#m"/>
<use x="159.033203" xlink:href="#z"/>
</g>
</g>
<g clip-path="url(#a)">
<g transform="translate(1498.2 534.99) scale(.1 -.1)">
<use xlink:href="#c"/>
<use x="63.623047" xlink:href="#e"/>
<use x="95.410156" xlink:href="#m"/>
<use x="159.033203" xlink:href="#c"/>
</g>
</g>
<g clip-path="url(#a)">
<g transform="translate(1393 842.08) scale(.1 -.1)">
<use xlink:href="#c"/>
<use x="63.623047" xlink:href="#e"/>
<use x="95.410156" xlink:href="#m"/>
<use x="159.033203" xlink:href="#m"/>
</g>
</g>
<g clip-path="url(#a)">
<g transform="translate(1436.8 842.08) scale(.1 -.1)">
<use xlink:href="#c"/>
<use x="63.623047" xlink:href="#e"/>
<use x="95.410156" xlink:href="#m"/>
<use x="159.033203" xlink:href="#p"/>
</g>
</g>
<g clip-path="url(#a)">
<defs>
<path id="r" d="m37.797 64.312-24.906-38.922h24.906zm-2.5938 8.5938h12.406v-47.516h10.406v-8.2031h-10.406v-17.188h-9.8125v17.188h-32.906v9.5156z"/>
</defs>
<g transform="translate(1480.6 842.08) scale(.1 -.1)">
<use xlink:href="#c"/>
<use x="63.623047" xlink:href="#e"/>
<use x="95.410156" xlink:href="#m"/>
<use x="159.033203" xlink:href="#r"/>
</g>
</g>
<g clip-path="url(#a)">
<g transform="translate(1524.5 842.08) scale(.1 -.1)">
<use xlink:href="#c"/>
<use x="63.623047" xlink:href="#e"/>
<use x="95.410156" xlink:href="#m"/>
<use x="159.033203" xlink:href="#o"/>
</g>
</g>
<g clip-path="url(#a)">
<g transform="translate(1655.9 689.6) scale(.1 -.1)">
<use xlink:href="#c"/>
<use x="63.623047" xlink:href="#e"/>
<use x="95.410156" xlink:href="#m"/>
<use x="159.033203" xlink:href="#y"/>
</g>
</g>
<g clip-path="url(#a)">
<g transform="translate(1568.3 842.08) scale(.1 -.1)">
<use xlink:href="#c"/>
<use x="63.623047" xlink:href="#e"/>
<use x="95.410156" xlink:href="#m"/>
<use x="159.033203" xlink:href="#ae"/>
</g>
</g>
<g clip-path="url(#a)">
<g transform="translate(1612.1 842.08) scale(.1 -.1)">
<use xlink:href="#c"/>
<use x="63.623047" xlink:href="#e"/>
<use x="95.410156" xlink:href="#m"/>
<use x="159.033203" xlink:href="#ad"/>
</g>
</g>
<g clip-path="url(#a)">
<g transform="translate(1655.9 842.08) scale(.1 -.1)">
<use xlink:href="#c"/>
<use x="63.623047" xlink:href="#e"/>
<use x="95.410156" xlink:href="#m"/>
<use x="159.033203" xlink:href="#aa"/>
</g>
</g>
<g clip-path="url(#a)">
<g transform="translate(1699.7 842.08) scale(.1 -.1)">
<use xlink:href="#c"/>
<use x="63.623047" xlink:href="#e"/>
<use x="95.410156" xlink:href="#p"/>
<use x="159.033203" xlink:href="#z"/>
</g>
</g>
<g clip-path="url(#a)">
<g transform="translate(1174 842.08) scale(.1 -.1)">
<use xlink:href="#c"/>
<use x="63.623047" xlink:href="#e"/>
<use x="95.410156" xlink:href="#p"/>
<use x="159.033203" xlink:href="#c"/>
</g>
</g>
<g clip-path="url(#a)">
<g transform="translate(1261.6 842.08) scale(.1 -.1)">
<use xlink:href="#c"/>
<use x="63.623047" xlink:href="#e"/>
<use x="95.410156" xlink:href="#p"/>
<use x="159.033203" xlink:href="#m"/>
</g>
</g>
<g clip-path="url(#a)">
<g transform="translate(1865 994.57) scale(.1 -.1)">
<use xlink:href="#x"/>
<use x="29.492188" xlink:href="#ao"/>
<use x="115.771484" xlink:href="#ac"/>
<use x="176.074219" xlink:href="#w"/>
<use x="231.787109" xlink:href="#x"/>
<use x="261.279297" xlink:href="#q"/>
<use x="331.103516" xlink:href="#x"/>
<use x="360.595703" xlink:href="#l"/>
</g>
</g>
<g clip-path="url(#a)">
<g transform="translate(911.16 689.6) scale(.1 -.1)">
<use xlink:href="#c"/>
<use x="63.623047" xlink:href="#e"/>
<use x="95.410156" xlink:href="#p"/>
<use x="159.033203" xlink:href="#r"/>
</g>
</g>
<g clip-path="url(#a)">
<g transform="translate(1020.7 689.6) scale(.1 -.1)">
<use xlink:href="#c"/>
<use x="63.623047" xlink:href="#e"/>
<use x="95.410156" xlink:href="#p"/>
<use x="159.033203" xlink:href="#o"/>
</g>
</g>
<g clip-path="url(#a)">
<g transform="translate(998.77 842.08) scale(.1 -.1)">
<use xlink:href="#c"/>
<use x="63.623047" xlink:href="#e"/>
<use x="95.410156" xlink:href="#p"/>
<use x="159.033203" xlink:href="#y"/>
</g>
</g>
<g clip-path="url(#a)">
<g transform="translate(1042.6 842.08) scale(.1 -.1)">
<use xlink:href="#c"/>
<use x="63.623047" xlink:href="#e"/>
<use x="95.410156" xlink:href="#p"/>
<use x="159.033203" xlink:href="#ae"/>
</g>
</g>
<g clip-path="url(#a)">
<g transform="translate(867.35 842.08) scale(.1 -.1)">
<use xlink:href="#c"/>
<use x="63.623047" xlink:href="#e"/>
<use x="95.410156" xlink:href="#p"/>
<use x="159.033203" xlink:href="#ad"/>
</g>
</g>
<g clip-path="url(#a)">
<g transform="translate(911.16 842.08) scale(.1 -.1)">
<use xlink:href="#c"/>
<use x="63.623047" xlink:href="#e"/>
<use x="95.410156" xlink:href="#p"/>
<use x="159.033203" xlink:href="#aa"/>
</g>
</g>
<g clip-path="url(#a)">
<g transform="translate(954.96 842.08) scale(.1 -.1)">
<use xlink:href="#c"/>
<use x="63.623047" xlink:href="#e"/>
<use x="95.410156" xlink:href="#r"/>
<use x="159.033203" xlink:href="#z"/>
</g>
</g>
<g clip-path="url(#a)">
<g transform="translate(1821.2 994.57) scale(.1 -.1)">
<use xlink:href="#x"/>
<use x="29.492188" xlink:href="#ao"/>
<use x="115.771484" xlink:href="#ac"/>
<use x="176.074219" xlink:href="#w"/>
<use x="231.787109" xlink:href="#x"/>
<use x="261.279297" xlink:href="#q"/>
<use x="331.103516" xlink:href="#x"/>
<use x="360.595703" xlink:href="#l"/>
</g>
</g>
<g clip-path="url(#a)">
<g transform="translate(494.99 689.6) scale(.1 -.1)">
<use xlink:href="#c"/>
<use x="63.623047" xlink:href="#e"/>
<use x="95.410156" xlink:href="#r"/>
<use x="159.033203" xlink:href="#m"/>
</g>
</g>
<g clip-path="url(#a)">
<g transform="translate(604.51 689.6) scale(.1 -.1)">
<use xlink:href="#c"/>
<use x="63.623047" xlink:href="#e"/>
<use x="95.410156" xlink:href="#r"/>
<use x="159.033203" xlink:href="#p"/>
</g>
</g>
<g clip-path="url(#a)">
<g transform="translate(735.93 689.6) scale(.1 -.1)">
<use xlink:href="#c"/>
<use x="63.623047" xlink:href="#e"/>
<use x="95.410156" xlink:href="#r"/>
<use x="159.033203" xlink:href="#r"/>
</g>
</g>
<g clip-path="url(#a)">
<g transform="translate(692.12 842.08) scale(.1 -.1)">
<use xlink:href="#c"/>
<use x="63.623047" xlink:href="#e"/>
<use x="95.410156" xlink:href="#r"/>
<use x="159.033203" xlink:href="#o"/>
</g>
</g>
<g clip-path="url(#a)">
<g transform="translate(735.93 842.08) scale(.1 -.1)">
<use xlink:href="#c"/>
<use x="63.623047" xlink:href="#e"/>
<use x="95.410156" xlink:href="#r"/>
<use x="159.033203" xlink:href="#y"/>
</g>
</g>
<g clip-path="url(#a)">
<g transform="translate(779.74 842.08) scale(.1 -.1)">
<use xlink:href="#c"/>
<use x="63.623047" xlink:href="#e"/>
<use x="95.410156" xlink:href="#r"/>
<use x="159.033203" xlink:href="#ae"/>
</g>
</g>
<g clip-path="url(#a)">
<g transform="translate(560.7 842.08) scale(.1 -.1)">
<use xlink:href="#c"/>
<use x="63.623047" xlink:href="#e"/>
<use x="95.410156" xlink:href="#r"/>
<use x="159.033203" xlink:href="#ad"/>
</g>
</g>
<g clip-path="url(#a)">
<g transform="translate(604.51 842.08) scale(.1 -.1)">
<use xlink:href="#c"/>
<use x="63.623047" xlink:href="#e"/>
<use x="95.410156" xlink:href="#r"/>
<use x="159.033203" xlink:href="#aa"/>
</g>
</g>
<g clip-path="url(#a)">
<g transform="translate(648.31 842.08) scale(.1 -.1)">
<use xlink:href="#c"/>
<use x="63.623047" xlink:href="#e"/>
<use x="95.410156" xlink:href="#o"/>
<use x="159.033203" xlink:href="#z"/>
</g>
</g>
<g clip-path="url(#a)">
<g transform="translate(473.09 842.08) scale(.1 -.1)">
<use xlink:href="#c"/>
<use x="63.623047" xlink:href="#e"/>
<use x="95.410156" xlink:href="#o"/>
<use x="159.033203" xlink:href="#c"/>
</g>
</g>
<g clip-path="url(#a)">
<g transform="translate(516.89 842.08) scale(.1 -.1)">
<use xlink:href="#c"/>
<use x="63.623047" xlink:href="#e"/>
<use x="95.410156" xlink:href="#o"/>
<use x="159.033203" xlink:href="#m"/>
</g>
</g>
<g clip-path="url(#a)">
<g transform="translate(254.05 842.08) scale(.1 -.1)">
<use xlink:href="#c"/>
<use x="63.623047" xlink:href="#e"/>
<use x="95.410156" xlink:href="#o"/>
<use x="159.033203" xlink:href="#p"/>
</g>
</g>
<g clip-path="url(#a)">
<g transform="translate(78.824 842.08) scale(.1 -.1)">
<use xlink:href="#c"/>
<use x="63.623047" xlink:href="#e"/>
<use x="95.410156" xlink:href="#o"/>
<use x="159.033203" xlink:href="#r"/>
</g>
</g>
<g clip-path="url(#a)">
<g transform="translate(341.67 842.08) scale(.1 -.1)">
<use xlink:href="#c"/>
<use x="63.623047" xlink:href="#e"/>
<use x="95.410156" xlink:href="#o"/>
<use x="159.033203" xlink:href="#o"/>
</g>
</g>
<g clip-path="url(#a)">
<g transform="translate(672.96 377.4) scale(.1 -.1)">
<use xlink:href="#c"/>
<use x="63.623047" xlink:href="#e"/>
<use x="95.410156" xlink:href="#o"/>
<use x="159.033203" xlink:href="#y"/>
</g>
</g>
<g clip-path="url(#a)">
<g transform="translate(746 50.946) scale(.1 -.1)">
<use xlink:href="#c"/>
<use x="63.623047" xlink:href="#e"/>
<use x="95.410156" xlink:href="#o"/>
<use x="159.033203" xlink:href="#ae"/>
</g>
</g>
<g clip-path="url(#a)">
<g transform="translate(210.24 842.08) scale(.1 -.1)">
<use xlink:href="#c"/>
<use x="63.623047" xlink:href="#e"/>
<use x="95.410156" xlink:href="#o"/>
<use x="159.033203" xlink:href="#ad"/>
</g>
</g>
<g clip-path="url(#a)">
<g transform="translate(297.86 842.08) scale(.1 -.1)">
<use xlink:href="#c"/>
<use x="63.623047" xlink:href="#e"/>
<use x="95.410156" xlink:href="#o"/>
<use x="159.033203" xlink:href="#aa"/>
</g>
</g>
<g clip-path="url(#a)">
<g transform="translate(385.47 842.08) scale(.1 -.1)">
<use xlink:href="#c"/>
<use x="63.623047" xlink:href="#e"/>
<use x="95.410156" xlink:href="#y"/>
<use x="159.033203" xlink:href="#z"/>
</g>
</g>
<g clip-path="url(#a)">
<g transform="translate(823.54 842.08) scale(.1 -.1)">
<use xlink:href="#c"/>
<use x="63.623047" xlink:href="#e"/>
<use x="95.410156" xlink:href="#y"/>
<use x="159.033203" xlink:href="#c"/>
</g>
</g>
<g clip-path="url(#a)">
<g transform="translate(1086.4 842.08) scale(.1 -.1)">
<use xlink:href="#c"/>
<use x="63.623047" xlink:href="#e"/>
<use x="95.410156" xlink:href="#y"/>
<use x="159.033203" xlink:href="#m"/>
</g>
</g>
<g clip-path="url(#a)">
<g transform="translate(1743.5 842.08) scale(.1 -.1)">
<use xlink:href="#c"/>
<use x="63.623047" xlink:href="#e"/>
<use x="95.410156" xlink:href="#y"/>
<use x="159.033203" xlink:href="#p"/>
</g>
</g>
<defs>
<clipPath id="a">
<rect width="1976" height="1040"/>
</clipPath>
</defs>
</svg>
