<?xml version="1.0" encoding="UTF-8"?>
<!DOCTYPE svg  PUBLIC '-//W3C//DTD SVG 1.1//EN'  'http://www.w3.org/Graphics/SVG/1.1/DTD/svg11.dtd'>
<svg width="912pt" height="480pt" version="1.1" viewBox="0 0 912 480" xmlns="http://www.w3.org/2000/svg" xmlns:xlink="http://www.w3.org/1999/xlink">
<defs>
<style type="text/css">*{stroke-linecap:butt;stroke-linejoin:round;}</style>
</defs>
<path d="m0 480h912v-480h-912z" fill="#fff"/>
<g fill="none" stroke="#000">
<path d="m193.54 22.592-105.74 375.27" clip-path="url(#a)"/>
<path d="m193.54 22.592 317.23 66.325" clip-path="url(#a)"/>
<path d="m193.54 22.592-151.77 375.27" clip-path="url(#a)"/>
<path d="m193.54 22.592-59.716 375.27" clip-path="url(#a)"/>
<path d="m87.795 397.86v59.547" clip-path="url(#a)"/>
<path d="m510.76 88.917-251.01 64.543" clip-path="url(#a)"/>
<path d="m510.76 88.917 60.302 249.4" clip-path="url(#a)"/>
<path d="m510.76 88.917 190.71 189.02" clip-path="url(#a)"/>
<path d="m259.75 153.46-79.906 244.4" clip-path="url(#a)"/>
<path d="m259.75 153.46-33.88 244.4" clip-path="url(#a)"/>
<path d="m259.75 153.46 113.79 62.94" clip-path="url(#a)"/>
<path d="m571.06 338.31-23.013 59.547" clip-path="url(#a)"/>
<path d="m571.06 338.31 23.013 59.547" clip-path="url(#a)"/>
<path d="m701.47 277.94-61.368 119.92" clip-path="url(#a)"/>
<path d="m701.47 277.94-15.342 119.92" clip-path="url(#a)"/>
<path d="m701.47 277.94 76.709 60.376" clip-path="url(#a)"/>
<path d="m640.1 397.86v59.547" clip-path="url(#a)"/>
<path d="m686.13 397.86v59.547" clip-path="url(#a)"/>
<path d="m778.18 338.31-46.026 59.547" clip-path="url(#a)"/>
<path d="m778.18 338.31v59.547" clip-path="url(#a)"/>
<path d="m778.18 338.31 46.026 59.547" clip-path="url(#a)"/>
<path d="m732.15 397.86v59.547" clip-path="url(#a)"/>
<path d="m778.18 397.86v59.547" clip-path="url(#a)"/>
<path d="m548.05 397.86v59.547" clip-path="url(#a)"/>
<path d="m594.08 397.86v59.547" clip-path="url(#a)"/>
<path d="m179.85 397.86v59.547" clip-path="url(#a)"/>
<path d="m225.87 397.86v59.547" clip-path="url(#a)"/>
<path d="m373.54 216.4-101.64 181.46" clip-path="url(#a)"/>
<path d="m373.54 216.4-55.614 181.46" clip-path="url(#a)"/>
<path d="m373.54 216.4 157.25 61.538" clip-path="url(#a)"/>
<path d="m271.9 397.86v59.547" clip-path="url(#a)"/>
<path d="m317.92 397.86v59.547" clip-path="url(#a)"/>
<path d="m530.79 277.94 339.44 179.47" clip-path="url(#a)"/>
<path d="m530.79 277.94-166.84 119.92" clip-path="url(#a)"/>
<path d="m530.79 277.94-120.82 119.92" clip-path="url(#a)"/>
<path d="m530.79 277.94-51.779 60.376" clip-path="url(#a)"/>
<path d="m363.95 397.86v59.547" clip-path="url(#a)"/>
<path d="m409.97 397.86v59.547" clip-path="url(#a)"/>
<path d="m479.01 338.31-23.013 59.547" clip-path="url(#a)"/>
<path d="m479.01 338.31 23.013 59.547" clip-path="url(#a)"/>
<path d="m456 397.86v59.547" clip-path="url(#a)"/>
<path d="m502.03 397.86v59.547" clip-path="url(#a)"/>
<path d="m41.769 397.86v59.547" clip-path="url(#a)"/>
<path d="m133.82 397.86v59.547" clip-path="url(#a)"/>
<path d="m824.21 397.86v59.547" clip-path="url(#a)"/>
</g>
<path d="m146.1 214.07 1.2089-4.2904q0.65092-2.31-1.6591-2.961l-7.4523-2.0999q-2.31-0.65092-2.961 1.6591l-1.2089 4.2904q-0.65092 2.31 1.6591 2.961l7.4523 2.0999q2.31 0.65092 2.961-1.6591z" clip-path="url(#a)" fill="#fff" stroke="#fff"/>
<g clip-path="url(#a)">
<defs>
<path id="ah" d="m9.8125 72.906h9.8594v-64.609h35.5v-8.2969h-45.359z"/>
</defs>
<g transform="translate(142.19 212.97) rotate(-74.263) scale(.08 -.08)">
<use xlink:href="#ah"/>
</g>
</g>
<path d="m347.92 61.277 5.8889 1.2312q2.3492 0.49117 2.8404-1.858l1.5845-7.5786q0.49117-2.3492-1.858-2.8404l-5.8889-1.2312q-2.3492-0.49117-2.8404 1.858l-1.5845 7.5786q-0.49117 2.3492 1.858 2.8404z" clip-path="url(#a)" fill="#fff" stroke="#fff"/>
<g clip-path="url(#a)">
<defs>
<path id="ao" d="m9.8125 72.906h9.8594v-29.891h35.844v29.891h9.8594v-72.906h-9.8594v34.719h-35.844v-34.719h-9.8594z"/>
</defs>
<g transform="translate(348.75 57.299) rotate(11.809) scale(.08 -.08)">
<use xlink:href="#ao"/>
</g>
</g>
<path d="m122.37 215.29 2.1952-5.4279q0.89981-2.2249-1.3251-3.1247l-7.1777-2.9028q-2.2249-0.89981-3.1247 1.3251l-2.1952 5.4279q-0.89981 2.2249 1.3251 3.1247l7.1777 2.9028q2.2249 0.89981 3.1247-1.3251z" clip-path="url(#a)" fill="#fff" stroke="#fff"/>
<g clip-path="url(#a)">
<defs>
<path id="y" d="m8.6875 72.906h9.9219v-44.297q0-11.719 4.2344-16.875 4.25-5.1406 13.781-5.1406 9.4688 0 13.719 5.1406 4.25 5.1562 4.25 16.875v44.297h9.9062v-45.516q0-14.25-7.0625-21.531-7.0469-7.2812-20.812-7.2812-13.828 0-20.891 7.2812-7.0469 7.2812-7.0469 21.531z"/>
</defs>
<g transform="translate(118.6 213.77) rotate(-67.98) scale(.08 -.08)">
<use xlink:href="#y"/>
</g>
</g>
<path d="m169.41 214.1 0.92012-5.7822q0.37716-2.3702-1.993-2.7473l-7.6463-1.2167q-2.3702-0.37716-2.7473 1.993l-0.92012 5.7822q-0.37716 2.3702 1.993 2.7473l7.6463 1.2167q2.3702 0.37716 2.7473-1.993z" clip-path="url(#a)" fill="#fff" stroke="#fff"/>
<g clip-path="url(#a)">
<g transform="translate(165.4 213.46) rotate(-80.958) scale(.08 -.08)">
<use xlink:href="#y"/>
</g>
</g>
<path d="m81.524 409.99v35.285q0 2.4 2.4 2.4h7.7425q2.4 0 2.4-2.4v-35.285q0-2.4-2.4-2.4h-7.7425q-2.4 0-2.4 2.4z" clip-path="url(#a)" fill="#fff" stroke="#fff"/>
<g clip-path="url(#a)">
<defs>
<path id="l" d="m-0.29688 72.906h61.672v-8.3125h-25.875v-64.594h-9.9062v64.594h-25.891z"/>
<path id="e" d="m56.203 29.594v-4.3906h-41.312q0.59375-9.2812 5.5938-14.141t13.938-4.8594q5.1719 0 10.031 1.2656t9.6562 3.8125v-8.5q-4.8438-2.0469-9.9219-3.125t-10.297-1.0781q-13.094 0-20.734 7.6094-7.6406 7.625-7.6406 20.625 0 13.422 7.25 21.297 7.25 7.8906 19.562 7.8906 11.031 0 17.453-7.1094 6.4219-7.0938 6.4219-19.297zm-8.9844 2.6406q-0.09375 7.3594-4.125 11.75-4.0312 4.4062-10.672 4.4062-7.5156 0-12.031-4.25t-5.2031-11.969z"/>
<path id="j" d="m41.109 46.297q-1.5156 0.875-3.2969 1.2812-1.7812 0.42188-3.9219 0.42188-7.625 0-11.703-4.9531t-4.0781-14.234v-28.812h-9.0312v54.688h9.0312v-8.5q2.8438 4.9844 7.375 7.3906 4.5469 2.4219 11.047 2.4219 0.92188 0 2.0469-0.125 1.125-0.10938 2.4844-0.35938z"/>
<path id="f" d="m52 44.188q3.375 6.0625 8.0625 8.9375t11.031 2.875q8.5469 0 13.188-5.9844 4.6406-5.9688 4.6406-17v-33.016h-9.0312v32.719q0 7.8594-2.7969 11.656-2.7812 3.8125-8.4844 3.8125-6.9844 0-11.047-4.6406-4.0469-4.625-4.0469-12.641v-30.906h-9.0312v32.719q0 7.9062-2.7812 11.688t-8.5938 3.7812q-6.8906 0-10.953-4.6562-4.0469-4.6562-4.0469-12.625v-30.906h-9.0312v54.688h9.0312v-8.5q3.0781 5.0312 7.375 7.4219t10.203 2.3906q5.9688 0 10.141-3.0312 4.1719-3.0156 6.1719-8.7812z"/>
<path id="i" d="m9.4219 54.688h8.9844v-54.688h-8.9844zm0 21.297h8.9844v-11.391h-8.9844z"/>
<path id="k" d="m54.891 33.016v-33.016h-8.9844v32.719q0 7.7656-3.0312 11.609-3.0312 3.8594-9.0781 3.8594-7.2812 0-11.484-4.6406-4.2031-4.625-4.2031-12.641v-30.906h-9.0312v54.688h9.0312v-8.5q3.2344 4.9375 7.5938 7.375 4.375 2.4375 10.094 2.4375 9.4219 0 14.25-5.8281 4.8438-5.8281 4.8438-17.156z"/>
<path id="h" d="m34.281 27.484q-10.891 0-15.094-2.4844t-4.2031-8.5q0-4.7812 3.1562-7.5938 3.1562-2.7969 8.5625-2.7969 7.4844 0 12 5.2969t4.5156 14.078v2zm17.922 3.7188v-31.203h-8.9844v8.2969q-3.0781-4.9688-7.6719-7.3438t-11.234-2.375q-8.3906 0-13.359 4.7188-4.9531 4.7188-4.9531 12.625 0 9.2188 6.1719 13.906 6.1875 4.6875 18.438 4.6875h12.609v0.89062q0 6.2031-4.0781 9.5938t-11.453 3.3906q-4.6875 0-9.1406-1.125-4.4375-1.125-8.5312-3.375v8.3125q4.9219 1.9062 9.5625 2.8438 4.6406 0.95312 9.0312 0.95312 11.875 0 17.734-6.1562 5.8594-6.1406 5.8594-18.641z"/>
<path id="g" d="m9.4219 75.984h8.9844v-75.984h-8.9844z"/>
</defs>
<g transform="translate(85.587 409.99) rotate(90) scale(.08 -.08)">
<use xlink:href="#l"/>
<use x="60.818359" xlink:href="#e"/>
<use x="122.341797" xlink:href="#j"/>
<use x="163.439453" xlink:href="#f"/>
<use x="260.851562" xlink:href="#i"/>
<use x="288.634766" xlink:href="#k"/>
<use x="352.013672" xlink:href="#h"/>
<use x="413.292969" xlink:href="#g"/>
</g>
</g>
<path d="m384.17 127.94 5.3001-1.3628q2.3244-0.59767 1.7267-2.9221l-1.9281-7.4986q-0.59767-2.3244-2.9221-1.7267l-5.3001 1.3628q-2.3244 0.59767-1.7267 2.9221l1.9281 7.4986q0.59767 2.3244 2.9221 1.7267z" clip-path="url(#a)" fill="#fff" stroke="#fff"/>
<g clip-path="url(#a)">
<defs>
<path id="s" d="m34.188 63.188-13.391-36.281h26.812zm-5.5781 9.7188h11.188l27.781-72.906h-10.25l-6.6406 18.703h-32.859l-6.6406-18.703h-10.406z"/>
</defs>
<g transform="translate(383.16 124.01) rotate(-14.42) scale(.08 -.08)">
<use xlink:href="#s"/>
</g>
</g>
<path d="m534.25 212.74 1.1337 4.6886q0.56405 2.3328 2.8968 1.7687l7.5256-1.8196q2.3328-0.56405 1.7687-2.8968l-1.1337-4.6886q-0.56405-2.3328-2.8968-1.7687l-7.5256 1.8196q-2.3328 0.56405-1.7687 2.8968z" clip-path="url(#a)" fill="#fff" stroke="#fff"/>
<g clip-path="url(#a)">
<defs>
<path id="aa" d="m19.672 64.797v-27.391h12.406q6.8906 0 10.641 3.5625 3.7656 3.5625 3.7656 10.156 0 6.5469-3.7656 10.109-3.75 3.5625-10.641 3.5625zm-9.8594 8.1094h22.266q12.266 0 18.531-5.5469 6.2812-5.5469 6.2812-16.234 0-10.797-6.2812-16.312-6.2656-5.5156-18.531-5.5156h-12.406v-29.297h-9.8594z"/>
</defs>
<g transform="translate(538.2 211.79) rotate(76.407) scale(.08 -.08)">
<use xlink:href="#aa"/>
</g>
</g>
<path d="m599.76 185.96 3.8868 3.8524q1.7046 1.6895 3.3941-0.015079l5.4504-5.499q1.6895-1.7046-0.015078-3.3941l-3.8868-3.8524q-1.7046-1.6895-3.3941 0.015078l-5.4504 5.499q-1.6895 1.7046 0.015078 3.3941z" clip-path="url(#a)" fill="#fff" stroke="#fff"/>
<g clip-path="url(#a)">
<g transform="translate(602.62 183.07) rotate(44.745) scale(.08 -.08)">
<use xlink:href="#s"/>
</g>
</g>
<path d="m224.97 280.01 1.5709-4.8047q0.74582-2.2812-1.5354-3.027l-7.3592-2.406q-2.2812-0.74582-3.027 1.5354l-1.5709 4.8047q-0.74582 2.2812 1.5354 3.027l7.3592 2.406q2.2812 0.74582 3.027-1.5354z" clip-path="url(#a)" fill="#fff" stroke="#fff"/>
<g clip-path="url(#a)">
<defs>
<path id="p" d="m9.8125 72.906h46.094v-8.3125h-36.234v-21.578h34.719v-8.2969h-34.719v-26.422h37.109v-8.2969h-46.969z"/>
</defs>
<g transform="translate(221.11 278.75) rotate(-71.895) scale(.08 -.08)">
<use xlink:href="#p"/>
</g>
</g>
<path d="m248.64 279.29 0.76705-5.5333q0.32955-2.3773-2.0477-2.7068l-7.6692-1.0631q-2.3773-0.32955-2.7068 2.0477l-0.76706 5.5333q-0.32955 2.3773 2.0477 2.7068l7.6692 1.0631q2.3773 0.32955 2.7068-2.0477z" clip-path="url(#a)" fill="#fff" stroke="#fff"/>
<g clip-path="url(#a)">
<defs>
<path id="n" d="m64.406 67.281v-10.391q-4.9844 4.6406-10.625 6.9219-5.6406 2.2969-11.984 2.2969-12.5 0-19.141-7.6406t-6.6406-22.094q0-14.406 6.6406-22.047t19.141-7.6406q6.3438 0 11.984 2.2969t10.625 6.9375v-10.312q-5.1719-3.5156-10.969-5.2812-5.7812-1.75-12.219-1.75-16.562 0-26.094 10.125-9.5156 10.141-9.5156 27.672 0 17.578 9.5156 27.703 9.5312 10.141 26.094 10.141 6.5312 0 12.312-1.7344 5.7969-1.7344 10.875-5.2031z"/>
</defs>
<g transform="translate(244.61 278.73) rotate(-82.108) scale(.08 -.08)">
<use xlink:href="#n"/>
</g>
</g>
<path d="m311.4 189.19 4.4234 2.4468q2.1001 1.1617 3.2618-0.93844l3.7476-6.7751q1.1617-2.1001-0.93844-3.2618l-4.4234-2.4468q-2.1001-1.1617-3.2618 0.93844l-3.7476 6.7751q-1.1617 2.1001 0.93844 3.2618z" clip-path="url(#a)" fill="#fff" stroke="#fff"/>
<g clip-path="url(#a)">
<g transform="translate(313.36 185.64) rotate(28.949) scale(.08 -.08)">
<use xlink:href="#p"/>
</g>
</g>
<path d="m564.5 372.71 1.8222-4.7151q0.86515-2.2386-1.3735-3.1038l-7.2219-2.791q-2.2386-0.86515-3.1038 1.3735l-1.8222 4.7151q-0.86515 2.2386 1.3735 3.1038l7.2219 2.791q2.2386 0.86515 3.1038-1.3735z" clip-path="url(#a)" fill="#fff" stroke="#fff"/>
<g clip-path="url(#a)">
<g transform="translate(560.71 371.24) rotate(-68.87) scale(.08 -.08)">
<use xlink:href="#p"/>
</g>
</g>
<path d="m575.71 367.74 2.0137 5.2107q0.86515 2.2386 3.1038 1.3735l7.2219-2.791q2.2386-0.86515 1.3735-3.1038l-2.0137-5.2107q-0.86515-2.2386-3.1038-1.3735l-7.2219 2.791q-2.2386 0.86515-1.3735 3.1038z" clip-path="url(#a)" fill="#fff" stroke="#fff"/>
<g clip-path="url(#a)">
<g transform="translate(579.5 366.28) rotate(68.87) scale(.08 -.08)">
<use xlink:href="#n"/>
</g>
</g>
<path d="m675.22 343.01 2.3028-4.5q1.0933-2.1365-1.0432-3.2298l-6.8925-3.527q-2.1365-1.0933-3.2298 1.0432l-2.3028 4.5q-1.0933 2.1365 1.0432 3.2298l6.8925 3.527q2.1365 1.0933 3.2298-1.0432z" clip-path="url(#a)" fill="#fff" stroke="#fff"/>
<g clip-path="url(#a)">
<g transform="translate(671.6 341.16) rotate(-62.9) scale(.08 -.08)">
<use xlink:href="#p"/>
</g>
</g>
<path d="m699.67 341.47 0.70888-5.5411q0.30455-2.3806-2.076-2.6852l-7.6799-0.9825q-2.3806-0.30455-2.6852 2.076l-0.70888 5.5411q-0.30455 2.3806 2.076 2.6852l7.6799 0.9825q2.3806 0.30455 2.6852-2.076z" clip-path="url(#a)" fill="#fff" stroke="#fff"/>
<g clip-path="url(#a)">
<g transform="translate(695.63 340.95) rotate(-82.71) scale(.08 -.08)">
<use xlink:href="#n"/>
</g>
</g>
<path d="m733.96 311.49 3.9722 3.1264q1.8859 1.4844 3.3703-0.40157l4.7886-6.0841q1.4844-1.8859-0.40157-3.3703l-3.9722-3.1264q-1.8859-1.4844-3.3703 0.40157l-4.7886 6.0841q-1.4844 1.8859 0.40157 3.3703z" clip-path="url(#a)" fill="#fff" stroke="#fff"/>
<g clip-path="url(#a)">
<g transform="translate(736.47 308.3) rotate(38.205) scale(.08 -.08)">
<use xlink:href="#p"/>
</g>
</g>
<path d="m633.83 409.99v35.285q0 2.4 2.4 2.4h7.7425q2.4 0 2.4-2.4v-35.285q0-2.4-2.4-2.4h-7.7425q-2.4 0-2.4 2.4z" clip-path="url(#a)" fill="#fff" stroke="#fff"/>
<g clip-path="url(#a)">
<g transform="translate(637.9 409.99) rotate(90) scale(.08 -.08)">
<use xlink:href="#l"/>
<use x="60.818359" xlink:href="#e"/>
<use x="122.341797" xlink:href="#j"/>
<use x="163.439453" xlink:href="#f"/>
<use x="260.851562" xlink:href="#i"/>
<use x="288.634766" xlink:href="#k"/>
<use x="352.013672" xlink:href="#h"/>
<use x="413.292969" xlink:href="#g"/>
</g>
</g>
<path d="m679.86 409.99v35.285q0 2.4 2.4 2.4h7.7425q2.4 0 2.4-2.4v-35.285q0-2.4-2.4-2.4h-7.7425q-2.4 0-2.4 2.4z" clip-path="url(#a)" fill="#fff" stroke="#fff"/>
<g clip-path="url(#a)">
<g transform="translate(683.92 409.99) rotate(90) scale(.08 -.08)">
<use xlink:href="#l"/>
<use x="60.818359" xlink:href="#e"/>
<use x="122.341797" xlink:href="#j"/>
<use x="163.439453" xlink:href="#f"/>
<use x="260.851562" xlink:href="#i"/>
<use x="288.634766" xlink:href="#k"/>
<use x="352.013672" xlink:href="#h"/>
<use x="413.292969" xlink:href="#g"/>
</g>
</g>
<path d="m758.43 374.12 3.3994-4.3981q1.4677-1.8989-0.43119-3.3666l-6.1259-4.7349q-1.8989-1.4677-3.3666 0.43119l-3.3994 4.3981q-1.4677 1.8989 0.43119 3.3666l6.1259 4.7349q1.8989 1.4677 3.3666-0.43119z" clip-path="url(#a)" fill="#fff" stroke="#fff"/>
<g clip-path="url(#a)">
<defs>
<path id="z" d="m44.391 34.188q3.1719-1.0781 6.1719-4.5938t6.0312-9.6719l10.016-19.922h-10.609l-9.3125 18.703q-3.625 7.3281-7.0156 9.7188t-9.25 2.3906h-10.75v-30.812h-9.8594v72.906h22.266q12.5 0 18.656-5.2344 6.1562-5.2188 6.1562-15.766 0-6.8906-3.2031-11.438-3.2031-4.5312-9.2969-6.2812zm-24.719 30.609v-25.875h12.406q7.125 0 10.766 3.2969t3.6406 9.6875-3.6406 9.6406-10.766 3.25z"/>
</defs>
<g transform="translate(755.21 371.64) rotate(-52.299) scale(.08 -.08)">
<use xlink:href="#z"/>
</g>
</g>
<path d="m771.91 365.29v5.5862q0 2.4 2.4 2.4h7.7425q2.4 0 2.4-2.4v-5.5862q0-2.4-2.4-2.4h-7.7425q-2.4 0-2.4 2.4z" clip-path="url(#a)" fill="#fff" stroke="#fff"/>
<g clip-path="url(#a)">
<g transform="translate(775.97 365.29) rotate(90) scale(.08 -.08)">
<use xlink:href="#n"/>
</g>
</g>
<path d="m794.44 369.61 3.5806 4.6325q1.4677 1.8989 3.3666 0.43119l6.1259-4.7349q1.8989-1.4677 0.43119-3.3666l-3.5806-4.6325q-1.4677-1.8989-3.3666-0.43119l-6.1259 4.7349q-1.8989 1.4677-0.43119 3.3666z" clip-path="url(#a)" fill="#fff" stroke="#fff"/>
<g clip-path="url(#a)">
<g transform="translate(797.66 367.12) rotate(52.299) scale(.08 -.08)">
<use xlink:href="#y"/>
</g>
</g>
<path d="m725.88 409.99v35.285q0 2.4 2.4 2.4h7.7425q2.4 0 2.4-2.4v-35.285q0-2.4-2.4-2.4h-7.7425q-2.4 0-2.4 2.4z" clip-path="url(#a)" fill="#fff" stroke="#fff"/>
<g clip-path="url(#a)">
<g transform="translate(729.95 409.99) rotate(90) scale(.08 -.08)">
<use xlink:href="#l"/>
<use x="60.818359" xlink:href="#e"/>
<use x="122.341797" xlink:href="#j"/>
<use x="163.439453" xlink:href="#f"/>
<use x="260.851562" xlink:href="#i"/>
<use x="288.634766" xlink:href="#k"/>
<use x="352.013672" xlink:href="#h"/>
<use x="413.292969" xlink:href="#g"/>
</g>
</g>
<path d="m771.91 409.99v35.285q0 2.4 2.4 2.4h7.7425q2.4 0 2.4-2.4v-35.285q0-2.4-2.4-2.4h-7.7425q-2.4 0-2.4 2.4z" clip-path="url(#a)" fill="#fff" stroke="#fff"/>
<g clip-path="url(#a)">
<g transform="translate(775.97 409.99) rotate(90) scale(.08 -.08)">
<use xlink:href="#l"/>
<use x="60.818359" xlink:href="#e"/>
<use x="122.341797" xlink:href="#j"/>
<use x="163.439453" xlink:href="#f"/>
<use x="260.851562" xlink:href="#i"/>
<use x="288.634766" xlink:href="#k"/>
<use x="352.013672" xlink:href="#h"/>
<use x="413.292969" xlink:href="#g"/>
</g>
</g>
<path d="m541.78 409.99v35.285q0 2.4 2.4 2.4h7.7425q2.4 0 2.4-2.4v-35.285q0-2.4-2.4-2.4h-7.7425q-2.4 0-2.4 2.4z" clip-path="url(#a)" fill="#fff" stroke="#fff"/>
<g clip-path="url(#a)">
<g transform="translate(545.84 409.99) rotate(90) scale(.08 -.08)">
<use xlink:href="#l"/>
<use x="60.818359" xlink:href="#e"/>
<use x="122.341797" xlink:href="#j"/>
<use x="163.439453" xlink:href="#f"/>
<use x="260.851562" xlink:href="#i"/>
<use x="288.634766" xlink:href="#k"/>
<use x="352.013672" xlink:href="#h"/>
<use x="413.292969" xlink:href="#g"/>
</g>
</g>
<path d="m587.81 409.99v35.285q0 2.4 2.4 2.4h7.7425q2.4 0 2.4-2.4v-35.285q0-2.4-2.4-2.4h-7.7425q-2.4 0-2.4 2.4z" clip-path="url(#a)" fill="#fff" stroke="#fff"/>
<g clip-path="url(#a)">
<g transform="translate(591.87 409.99) rotate(90) scale(.08 -.08)">
<use xlink:href="#l"/>
<use x="60.818359" xlink:href="#e"/>
<use x="122.341797" xlink:href="#j"/>
<use x="163.439453" xlink:href="#f"/>
<use x="260.851562" xlink:href="#i"/>
<use x="288.634766" xlink:href="#k"/>
<use x="352.013672" xlink:href="#h"/>
<use x="413.292969" xlink:href="#g"/>
</g>
</g>
<path d="m173.57 409.99v35.285q0 2.4 2.4 2.4h7.7425q2.4 0 2.4-2.4v-35.285q0-2.4-2.4-2.4h-7.7425q-2.4 0-2.4 2.4z" clip-path="url(#a)" fill="#fff" stroke="#fff"/>
<g clip-path="url(#a)">
<g transform="translate(177.64 409.99) rotate(90) scale(.08 -.08)">
<use xlink:href="#l"/>
<use x="60.818359" xlink:href="#e"/>
<use x="122.341797" xlink:href="#j"/>
<use x="163.439453" xlink:href="#f"/>
<use x="260.851562" xlink:href="#i"/>
<use x="288.634766" xlink:href="#k"/>
<use x="352.013672" xlink:href="#h"/>
<use x="413.292969" xlink:href="#g"/>
</g>
</g>
<path d="m219.6 409.99v35.285q0 2.4 2.4 2.4h7.7425q2.4 0 2.4-2.4v-35.285q0-2.4-2.4-2.4h-7.7425q-2.4 0-2.4 2.4z" clip-path="url(#a)" fill="#fff" stroke="#fff"/>
<g clip-path="url(#a)">
<g transform="translate(223.66 409.99) rotate(90) scale(.08 -.08)">
<use xlink:href="#l"/>
<use x="60.818359" xlink:href="#e"/>
<use x="122.341797" xlink:href="#j"/>
<use x="163.439453" xlink:href="#f"/>
<use x="260.851562" xlink:href="#i"/>
<use x="288.634766" xlink:href="#k"/>
<use x="352.013672" xlink:href="#h"/>
<use x="413.292969" xlink:href="#g"/>
</g>
</g>
<path d="m326.83 312.62 2.7165-4.8498q1.1728-2.0939-0.92107-3.2667l-6.755-3.7836q-2.0939-1.1728-3.2667 0.92107l-2.7165 4.8498q-1.1728 2.0939 0.92107 3.2667l6.755 3.7836q2.0939 1.1728 3.2667-0.92107z" clip-path="url(#a)" fill="#fff" stroke="#fff"/>
<g clip-path="url(#a)">
<g transform="translate(323.29 310.63) rotate(-60.746) scale(.08 -.08)">
<use xlink:href="#z"/>
</g>
</g>
<path d="m350.91 311.64 1.6369-5.341q0.70326-2.2946-1.5914-2.9979l-7.4026-2.2688q-2.2946-0.70326-2.9979 1.5914l-1.6369 5.341q-0.70327 2.2946 1.5914 2.9979l7.4026 2.2688q2.2946 0.70326 2.9979-1.5914z" clip-path="url(#a)" fill="#fff" stroke="#fff"/>
<g clip-path="url(#a)">
<g transform="translate(347.02 310.45) rotate(-72.961) scale(.08 -.08)">
<use xlink:href="#n"/>
</g>
</g>
<path d="m447.53 252.09 4.7074 1.8421q2.235 0.87461 3.1096-1.3604l2.8215-7.2101q0.87461-2.235-1.3604-3.1096l-4.7074-1.8421q-2.235-0.87461-3.1096 1.3604l-2.8215 7.2101q-0.87461 2.235 1.3604 3.1096z" clip-path="url(#a)" fill="#fff" stroke="#fff"/>
<g clip-path="url(#a)">
<g transform="translate(449.01 248.3) rotate(21.372) scale(.08 -.08)">
<use xlink:href="#p"/>
</g>
</g>
<path d="m265.63 409.99v35.285q0 2.4 2.4 2.4h7.7425q2.4 0 2.4-2.4v-35.285q0-2.4-2.4-2.4h-7.7425q-2.4 0-2.4 2.4z" clip-path="url(#a)" fill="#fff" stroke="#fff"/>
<g clip-path="url(#a)">
<g transform="translate(269.69 409.99) rotate(90) scale(.08 -.08)">
<use xlink:href="#l"/>
<use x="60.818359" xlink:href="#e"/>
<use x="122.341797" xlink:href="#j"/>
<use x="163.439453" xlink:href="#f"/>
<use x="260.851562" xlink:href="#i"/>
<use x="288.634766" xlink:href="#k"/>
<use x="352.013672" xlink:href="#h"/>
<use x="413.292969" xlink:href="#g"/>
</g>
</g>
<path d="m311.65 409.99v35.285q0 2.4 2.4 2.4h7.7425q2.4 0 2.4-2.4v-35.285q0-2.4-2.4-2.4h-7.7425q-2.4 0-2.4 2.4z" clip-path="url(#a)" fill="#fff" stroke="#fff"/>
<g clip-path="url(#a)">
<g transform="translate(315.72 409.99) rotate(90) scale(.08 -.08)">
<use xlink:href="#l"/>
<use x="60.818359" xlink:href="#e"/>
<use x="122.341797" xlink:href="#j"/>
<use x="163.439453" xlink:href="#f"/>
<use x="260.851562" xlink:href="#i"/>
<use x="288.634766" xlink:href="#k"/>
<use x="352.013672" xlink:href="#h"/>
<use x="413.292969" xlink:href="#g"/>
</g>
</g>
<path d="m695.16 371.94 4.8379 2.5579q2.1217 1.1218 3.2435-0.9999l3.619-6.8447q1.1218-2.1217-0.9999-3.2435l-4.8379-2.5579q-2.1217-1.1218-3.2435 0.9999l-3.619 6.8447q-1.1218 2.1217 0.9999 3.2435z" clip-path="url(#a)" fill="#fff" stroke="#fff"/>
<g clip-path="url(#a)">
<g transform="translate(697.06 368.35) rotate(27.867) scale(.08 -.08)">
<use xlink:href="#s"/>
</g>
</g>
<path d="m448.77 344.61 4.5137-3.2444q1.9488-1.4008 0.54805-3.3496l-4.5189-6.2869q-1.4008-1.9488-3.3496-0.54805l-4.5137 3.2444q-1.9488 1.4008-0.54805 3.3496l4.5189 6.2869q1.4008 1.9488 3.3496 0.54805z" clip-path="url(#a)" fill="#fff" stroke="#fff"/>
<g clip-path="url(#a)">
<g transform="translate(446.4 341.31) rotate(-35.708) scale(.08 -.08)">
<use xlink:href="#z"/>
</g>
</g>
<path d="m472.86 344.28 3.884-3.8552q1.7033-1.6907 0.012609-3.3941l-5.4544-5.4951q-1.6907-1.7033-3.3941-0.012609l-3.884 3.8552q-1.7033 1.6907-0.012609 3.3941l5.4544 5.4951q1.6907 1.7033 3.3941 0.012609z" clip-path="url(#a)" fill="#fff" stroke="#fff"/>
<g clip-path="url(#a)">
<g transform="translate(470 341.39) rotate(-44.787) scale(.08 -.08)">
<use xlink:href="#s"/>
</g>
</g>
<path d="m508.09 314.04 3.1402-3.6616q1.5624-1.8218-0.2594-3.3842l-5.8772-5.0403q-1.8218-1.5624-3.3842 0.2594l-3.1402 3.6616q-1.5624 1.8218 0.2594 3.3842l5.8772 5.0403q1.8218 1.5624 3.3842-0.2594z" clip-path="url(#a)" fill="#fff" stroke="#fff"/>
<g clip-path="url(#a)">
<g transform="translate(505.01 311.39) rotate(-49.383) scale(.08 -.08)">
<use xlink:href="#aa"/>
</g>
</g>
<path d="m357.68 409.99v35.285q0 2.4 2.4 2.4h7.7425q2.4 0 2.4-2.4v-35.285q0-2.4-2.4-2.4h-7.7425q-2.4 0-2.4 2.4z" clip-path="url(#a)" fill="#fff" stroke="#fff"/>
<g clip-path="url(#a)">
<g transform="translate(361.74 409.99) rotate(90) scale(.08 -.08)">
<use xlink:href="#l"/>
<use x="60.818359" xlink:href="#e"/>
<use x="122.341797" xlink:href="#j"/>
<use x="163.439453" xlink:href="#f"/>
<use x="260.851562" xlink:href="#i"/>
<use x="288.634766" xlink:href="#k"/>
<use x="352.013672" xlink:href="#h"/>
<use x="413.292969" xlink:href="#g"/>
</g>
</g>
<path d="m403.7 409.99v35.285q0 2.4 2.4 2.4h7.7425q2.4 0 2.4-2.4v-35.285q0-2.4-2.4-2.4h-7.7425q-2.4 0-2.4 2.4z" clip-path="url(#a)" fill="#fff" stroke="#fff"/>
<g clip-path="url(#a)">
<g transform="translate(407.77 409.99) rotate(90) scale(.08 -.08)">
<use xlink:href="#l"/>
<use x="60.818359" xlink:href="#e"/>
<use x="122.341797" xlink:href="#j"/>
<use x="163.439453" xlink:href="#f"/>
<use x="260.851562" xlink:href="#i"/>
<use x="288.634766" xlink:href="#k"/>
<use x="352.013672" xlink:href="#h"/>
<use x="413.292969" xlink:href="#g"/>
</g>
</g>
<path d="m472.53 372.49 1.6587-4.2919q0.86515-2.2386-1.3735-3.1038l-7.2219-2.791q-2.2386-0.86515-3.1038 1.3735l-1.6587 4.2919q-0.86515 2.2386 1.3735 3.1038l7.2219 2.791q2.2386 0.86515 3.1038-1.3735z" clip-path="url(#a)" fill="#fff" stroke="#fff"/>
<g clip-path="url(#a)">
<defs>
<path id="ap" d="m9.8125 72.906h41.891v-8.3125h-32.031v-21.484h28.906v-8.2969h-28.906v-34.812h-9.8594z"/>
</defs>
<g transform="translate(468.74 371.03) rotate(-68.87) scale(.08 -.08)">
<use xlink:href="#ap"/>
</g>
</g>
<path d="m483.66 367.74 2.0137 5.2107q0.86515 2.2386 3.1038 1.3735l7.2219-2.791q2.2386-0.86515 1.3735-3.1038l-2.0137-5.2107q-0.86515-2.2386-3.1038-1.3735l-7.2219 2.791q-2.2386 0.86515-1.3735 3.1038z" clip-path="url(#a)" fill="#fff" stroke="#fff"/>
<g clip-path="url(#a)">
<g transform="translate(487.45 366.28) rotate(68.87) scale(.08 -.08)">
<use xlink:href="#n"/>
</g>
</g>
<path d="m449.73 409.99v35.285q0 2.4 2.4 2.4h7.7425q2.4 0 2.4-2.4v-35.285q0-2.4-2.4-2.4h-7.7425q-2.4 0-2.4 2.4z" clip-path="url(#a)" fill="#fff" stroke="#fff"/>
<g clip-path="url(#a)">
<g transform="translate(453.79 409.99) rotate(90) scale(.08 -.08)">
<use xlink:href="#l"/>
<use x="60.818359" xlink:href="#e"/>
<use x="122.341797" xlink:href="#j"/>
<use x="163.439453" xlink:href="#f"/>
<use x="260.851562" xlink:href="#i"/>
<use x="288.634766" xlink:href="#k"/>
<use x="352.013672" xlink:href="#h"/>
<use x="413.292969" xlink:href="#g"/>
</g>
</g>
<path d="m495.75 409.99v35.285q0 2.4 2.4 2.4h7.7425q2.4 0 2.4-2.4v-35.285q0-2.4-2.4-2.4h-7.7425q-2.4 0-2.4 2.4z" clip-path="url(#a)" fill="#fff" stroke="#fff"/>
<g clip-path="url(#a)">
<g transform="translate(499.82 409.99) rotate(90) scale(.08 -.08)">
<use xlink:href="#l"/>
<use x="60.818359" xlink:href="#e"/>
<use x="122.341797" xlink:href="#j"/>
<use x="163.439453" xlink:href="#f"/>
<use x="260.851562" xlink:href="#i"/>
<use x="288.634766" xlink:href="#k"/>
<use x="352.013672" xlink:href="#h"/>
<use x="413.292969" xlink:href="#g"/>
</g>
</g>
<path d="m35.498 409.99v35.285q0 2.4 2.4 2.4h7.7425q2.4 0 2.4-2.4v-35.285q0-2.4-2.4-2.4h-7.7425q-2.4 0-2.4 2.4z" clip-path="url(#a)" fill="#fff" stroke="#fff"/>
<g clip-path="url(#a)">
<g transform="translate(39.562 409.99) rotate(90) scale(.08 -.08)">
<use xlink:href="#l"/>
<use x="60.818359" xlink:href="#e"/>
<use x="122.341797" xlink:href="#j"/>
<use x="163.439453" xlink:href="#f"/>
<use x="260.851562" xlink:href="#i"/>
<use x="288.634766" xlink:href="#k"/>
<use x="352.013672" xlink:href="#h"/>
<use x="413.292969" xlink:href="#g"/>
</g>
</g>
<path d="m127.55 409.99v35.285q0 2.4 2.4 2.4h7.7425q2.4 0 2.4-2.4v-35.285q0-2.4-2.4-2.4h-7.7425q-2.4 0-2.4 2.4z" clip-path="url(#a)" fill="#fff" stroke="#fff"/>
<g clip-path="url(#a)">
<g transform="translate(131.61 409.99) rotate(90) scale(.08 -.08)">
<use xlink:href="#l"/>
<use x="60.818359" xlink:href="#e"/>
<use x="122.341797" xlink:href="#j"/>
<use x="163.439453" xlink:href="#f"/>
<use x="260.851562" xlink:href="#i"/>
<use x="288.634766" xlink:href="#k"/>
<use x="352.013672" xlink:href="#h"/>
<use x="413.292969" xlink:href="#g"/>
</g>
</g>
<path d="m817.93 409.99v35.285q0 2.4 2.4 2.4h7.7425q2.4 0 2.4-2.4v-35.285q0-2.4-2.4-2.4h-7.7425q-2.4 0-2.4 2.4z" clip-path="url(#a)" fill="#fff" stroke="#fff"/>
<g clip-path="url(#a)">
<g transform="translate(822 409.99) rotate(90) scale(.08 -.08)">
<use xlink:href="#l"/>
<use x="60.818359" xlink:href="#e"/>
<use x="122.341797" xlink:href="#j"/>
<use x="163.439453" xlink:href="#f"/>
<use x="260.851562" xlink:href="#i"/>
<use x="288.634766" xlink:href="#k"/>
<use x="352.013672" xlink:href="#h"/>
<use x="413.292969" xlink:href="#g"/>
</g>
</g>
<defs>
<path id="b" d="m0 8.6603c2.2967 0 4.4997-0.9125 6.1237-2.5365 1.624-1.624 2.5365-3.827 2.5365-6.1237s-0.9125-4.4997-2.5365-6.1237c-1.624-1.624-3.827-2.5365-6.1237-2.5365s-4.4997 0.9125-6.1237 2.5365c-1.624 1.624-2.5365 3.827-2.5365 6.1237s0.9125 4.4997 2.5365 6.1237c1.624 1.624 3.827 2.5365 6.1237 2.5365z"/>
</defs>
<g clip-path="url(#a)">
<use x="41.769225" y="457.408276" fill="#ffffff" stroke="#ffffff" xlink:href="#b"/>
</g>
<g clip-path="url(#a)">
<use x="87.794866" y="457.408276" fill="#ffffff" stroke="#ffffff" xlink:href="#b"/>
</g>
<g clip-path="url(#a)">
<use x="133.820508" y="457.408276" fill="#ffffff" stroke="#ffffff" xlink:href="#b"/>
</g>
<g clip-path="url(#a)">
<use x="179.84615" y="457.408276" fill="#ffffff" stroke="#ffffff" xlink:href="#b"/>
</g>
<g clip-path="url(#a)">
<use x="225.871792" y="457.408276" fill="#ffffff" stroke="#ffffff" xlink:href="#b"/>
</g>
<g clip-path="url(#a)">
<use x="271.897433" y="457.408276" fill="#ffffff" stroke="#ffffff" xlink:href="#b"/>
</g>
<g clip-path="url(#a)">
<use x="317.923075" y="457.408276" fill="#ffffff" stroke="#ffffff" xlink:href="#b"/>
</g>
<g clip-path="url(#a)">
<use x="363.948717" y="457.408276" fill="#ffffff" stroke="#ffffff" xlink:href="#b"/>
</g>
<g clip-path="url(#a)">
<use x="409.974358" y="457.408276" fill="#ffffff" stroke="#ffffff" xlink:href="#b"/>
</g>
<g clip-path="url(#a)">
<use x="456" y="457.408276" fill="#ffffff" stroke="#ffffff" xlink:href="#b"/>
</g>
<g clip-path="url(#a)">
<use x="502.025642" y="457.408276" fill="#ffffff" stroke="#ffffff" xlink:href="#b"/>
</g>
<g clip-path="url(#a)">
<use x="548.051283" y="457.408276" fill="#ffffff" stroke="#ffffff" xlink:href="#b"/>
</g>
<g clip-path="url(#a)">
<use x="594.076925" y="457.408276" fill="#ffffff" stroke="#ffffff" xlink:href="#b"/>
</g>
<g clip-path="url(#a)">
<use x="640.102567" y="457.408276" fill="#ffffff" stroke="#ffffff" xlink:href="#b"/>
</g>
<g clip-path="url(#a)">
<use x="686.128208" y="457.408276" fill="#ffffff" stroke="#ffffff" xlink:href="#b"/>
</g>
<g clip-path="url(#a)">
<use x="732.15385" y="457.408276" fill="#ffffff" stroke="#ffffff" xlink:href="#b"/>
</g>
<g clip-path="url(#a)">
<use x="778.179492" y="457.408276" fill="#ffffff" stroke="#ffffff" xlink:href="#b"/>
</g>
<g clip-path="url(#a)">
<use x="824.205134" y="457.408276" fill="#ffffff" stroke="#ffffff" xlink:href="#b"/>
</g>
<g clip-path="url(#a)">
<use x="193.536647" y="22.591724" fill="#ffffff" stroke="#ffffff" xlink:href="#b"/>
</g>
<g clip-path="url(#a)">
<use x="87.794866" y="397.860989" fill="#ffffff" stroke="#ffffff" xlink:href="#b"/>
</g>
<g clip-path="url(#a)">
<use x="510.76199" y="88.916888" fill="#ffffff" stroke="#ffffff" xlink:href="#b"/>
</g>
<g clip-path="url(#a)">
<use x="259.751778" y="153.459414" fill="#ffffff" stroke="#ffffff" xlink:href="#b"/>
</g>
<g clip-path="url(#a)">
<use x="571.064104" y="338.313701" fill="#ffffff" stroke="#ffffff" xlink:href="#b"/>
</g>
<g clip-path="url(#a)">
<use x="701.470089" y="277.938046" fill="#ffffff" stroke="#ffffff" xlink:href="#b"/>
</g>
<g clip-path="url(#a)">
<use x="640.102567" y="397.860989" fill="#ffffff" stroke="#ffffff" xlink:href="#b"/>
</g>
<g clip-path="url(#a)">
<use x="686.128208" y="397.860989" fill="#ffffff" stroke="#ffffff" xlink:href="#b"/>
</g>
<g clip-path="url(#a)">
<use x="778.179492" y="338.313701" fill="#ffffff" stroke="#ffffff" xlink:href="#b"/>
</g>
<g clip-path="url(#a)">
<use x="732.15385" y="397.860989" fill="#ffffff" stroke="#ffffff" xlink:href="#b"/>
</g>
<g clip-path="url(#a)">
<use x="778.179492" y="397.860989" fill="#ffffff" stroke="#ffffff" xlink:href="#b"/>
</g>
<g clip-path="url(#a)">
<use x="548.051283" y="397.860989" fill="#ffffff" stroke="#ffffff" xlink:href="#b"/>
</g>
<g clip-path="url(#a)">
<use x="594.076925" y="397.860989" fill="#ffffff" stroke="#ffffff" xlink:href="#b"/>
</g>
<g clip-path="url(#a)">
<use x="179.84615" y="397.860989" fill="#ffffff" stroke="#ffffff" xlink:href="#b"/>
</g>
<g clip-path="url(#a)">
<use x="225.871792" y="397.860989" fill="#ffffff" stroke="#ffffff" xlink:href="#b"/>
</g>
<g clip-path="url(#a)">
<use x="373.537392" y="216.399811" fill="#ffffff" stroke="#ffffff" xlink:href="#b"/>
</g>
<g clip-path="url(#a)">
<use x="271.897433" y="397.860989" fill="#ffffff" stroke="#ffffff" xlink:href="#b"/>
</g>
<g clip-path="url(#a)">
<use x="317.923075" y="397.860989" fill="#ffffff" stroke="#ffffff" xlink:href="#b"/>
</g>
<g clip-path="url(#a)">
<use x="530.791668" y="277.938046" fill="#ffffff" stroke="#ffffff" xlink:href="#b"/>
</g>
<g clip-path="url(#a)">
<use x="870.230775" y="457.408276" fill="#ffffff" stroke="#ffffff" xlink:href="#b"/>
</g>
<g clip-path="url(#a)">
<use x="363.948717" y="397.860989" fill="#ffffff" stroke="#ffffff" xlink:href="#b"/>
</g>
<g clip-path="url(#a)">
<use x="409.974358" y="397.860989" fill="#ffffff" stroke="#ffffff" xlink:href="#b"/>
</g>
<g clip-path="url(#a)">
<use x="479.012821" y="338.313701" fill="#ffffff" stroke="#ffffff" xlink:href="#b"/>
</g>
<g clip-path="url(#a)">
<use x="456" y="397.860989" fill="#ffffff" stroke="#ffffff" xlink:href="#b"/>
</g>
<g clip-path="url(#a)">
<use x="502.025642" y="397.860989" fill="#ffffff" stroke="#ffffff" xlink:href="#b"/>
</g>
<g clip-path="url(#a)">
<use x="41.769225" y="397.860989" fill="#ffffff" stroke="#ffffff" xlink:href="#b"/>
</g>
<g clip-path="url(#a)">
<use x="133.820508" y="397.860989" fill="#ffffff" stroke="#ffffff" xlink:href="#b"/>
</g>
<g clip-path="url(#a)">
<use x="824.205134" y="397.860989" fill="#ffffff" stroke="#ffffff" xlink:href="#b"/>
</g>
<g clip-path="url(#a)">
<defs>
<path id="as" d="m51.812 51.703v-9.3125l-14.703-13.094 14.703-13.078v-9.3281l-22.906 20.406v4zm-21.203 0v-9.3125l-14.688-13.094 14.688-13.078v-9.3281l-22.891 20.406v4z"/>
</defs>
<g transform="translate(38.71 460.17) scale(.1 -.1)">
<use xlink:href="#as"/>
</g>
</g>
<g clip-path="url(#a)">
<defs>
<path id="af" d="m18.109 8.2031v-29h-9.0312v75.484h9.0312v-8.2969q2.8438 4.875 7.1562 7.2344 4.3281 2.375 10.328 2.375 9.9688 0 16.188-7.9062 6.2344-7.9062 6.2344-20.797t-6.2344-20.812q-6.2188-7.9062-16.188-7.9062-6 0-10.328 2.375-4.3125 2.375-7.1562 7.25zm30.578 19.094q0 9.9062-4.0781 15.547t-11.203 5.6406q-7.1406 0-11.219-5.6406t-4.0781-15.547 4.0781-15.547 11.219-5.6406q7.125 0 11.203 5.6406t4.0781 15.547z"/>
<path id="x" d="m45.406 46.391v29.594h8.9844v-75.984h-8.9844v8.2031q-2.8281-4.875-7.1562-7.25-4.3125-2.375-10.375-2.375-9.9062 0-16.141 7.9062-6.2188 7.9219-6.2188 20.812t6.2188 20.797q6.2344 7.9062 16.141 7.9062 6.0625 0 10.375-2.375 4.3281-2.3594 7.1562-7.2344zm-30.609-19.094q0-9.9062 4.0781-15.547t11.203-5.6406 11.219 5.6406q4.1094 5.6406 4.1094 15.547t-4.1094 15.547q-4.0938 5.6406-11.219 5.6406t-11.203-5.6406-4.0781-15.547z"/>
<path id="q" d="m18.312 70.219v-15.531h18.5v-6.9844h-18.5v-29.688q0-6.6875 1.8281-8.5938t7.4531-1.9062h9.2188v-7.5156h-9.2188q-10.406 0-14.359 3.875-3.9531 3.8906-3.9531 14.141v29.688h-6.5938v6.9844h6.5938v15.531z"/>
</defs>
<g transform="translate(60.44 460.17) scale(.1 -.1)">
<use xlink:href="#n"/>
<use x="69.824219" xlink:href="#e"/>
<use x="131.347656" xlink:href="#af"/>
<use x="194.824219" xlink:href="#e"/>
<use x="256.347656" xlink:href="#k"/>
<use x="319.726562" xlink:href="#x"/>
<use x="383.203125" xlink:href="#h"/>
<use x="444.482422" xlink:href="#k"/>
<use x="507.861328" xlink:href="#q"/>
</g>
</g>
<g clip-path="url(#a)">
<defs>
<path id="aq" d="m11.719 12.406h10.297v-8.4062l-8-15.625h-6.2969l4 15.625z"/>
</defs>
<g transform="translate(132.23 460.17) scale(.1 -.1)">
<use xlink:href="#aq"/>
</g>
</g>
<g clip-path="url(#a)">
<g transform="translate(175.39 460.17) scale(.1 -.1)">
<use xlink:href="#g"/>
<use x="27.783203" xlink:href="#h"/>
</g>
</g>
<g clip-path="url(#a)">
<defs>
<path id="w" d="m44.281 53.078v-8.5q-3.7969 1.9531-7.9062 2.9219-4.0938 0.98438-8.5 0.98438-6.6875 0-10.031-2.0469t-3.3438-6.1562q0-3.125 2.3906-4.9062t9.625-3.3906l3.0781-0.6875q9.5625-2.0469 13.594-5.7812t4.0312-10.422q0-7.625-6.0312-12.078-6.0312-4.4375-16.578-4.4375-4.3906 0-9.1562 0.85938t-10.031 2.5625v9.2812q4.9844-2.5938 9.8125-3.8906 4.8281-1.2812 9.5781-1.2812 6.3438 0 9.75 2.1719 3.4219 2.1719 3.4219 6.125 0 3.6562-2.4688 5.6094-2.4531 1.9531-10.812 3.7656l-3.125 0.73438q-8.3438 1.75-12.062 5.3906-3.7031 3.6406-3.7031 9.9844 0 7.7188 5.4688 11.906 5.4688 4.2031 15.531 4.2031 4.9688 0 9.3594-0.73438 4.4062-0.71875 8.1094-2.1875z"/>
<path id="r" d="m30.609 48.391q-7.2188 0-11.422-5.6406t-4.2031-15.453 4.1719-15.453q4.1875-5.6406 11.453-5.6406 7.1875 0 11.375 5.6562 4.2031 5.6719 4.2031 15.438 0 9.7188-4.2031 15.406-4.1875 5.6875-11.375 5.6875zm0 7.6094q11.719 0 18.406-7.625 6.7031-7.6094 6.7031-21.078 0-13.422-6.7031-21.078-6.6875-7.6406-18.406-7.6406-11.766 0-18.438 7.6406-6.6562 7.6562-6.6562 21.078 0 13.469 6.6562 21.078 6.6719 7.625 18.438 7.625z"/>
<path id="o" d="m8.5 21.578v33.109h8.9844v-32.766q0-7.7656 3.0156-11.656 3.0312-3.875 9.0938-3.875 7.2656 0 11.484 4.6406 4.2344 4.6406 4.2344 12.656v31h8.9844v-54.688h-8.9844v8.4062q-3.2656-4.9844-7.5938-7.4062-4.3125-2.4219-10.031-2.4219-9.4219 0-14.312 5.8594-4.875 5.8594-4.875 17.141z"/>
</defs>
<g transform="translate(206.07 460.17) scale(.1 -.1)">
<use xlink:href="#w"/>
<use x="52.099609" xlink:href="#r"/>
<use x="113.28125" xlink:href="#g"/>
<use x="141.064453" xlink:href="#o"/>
<use x="204.443359" xlink:href="#q"/>
<use x="243.652344" xlink:href="#i"/>
<use x="271.435547" xlink:href="#r"/>
<use x="332.617188" xlink:href="#k"/>
</g>
</g>
<g clip-path="url(#a)">
<g transform="translate(265.55 460.17) scale(.1 -.1)">
<use xlink:href="#x"/>
<use x="63.476562" xlink:href="#o"/>
</g>
</g>
<g clip-path="url(#a)">
<defs>
<path id="al" d="m48.688 27.297q0 9.9062-4.0781 15.547t-11.203 5.6406q-7.1406 0-11.219-5.6406t-4.0781-15.547 4.0781-15.547 11.219-5.6406q7.125 0 11.203 5.6406t4.0781 15.547zm-30.578 19.094q2.8438 4.875 7.1562 7.2344 4.3281 2.375 10.328 2.375 9.9688 0 16.188-7.9062 6.2344-7.9062 6.2344-20.797t-6.2344-20.812q-6.2188-7.9062-16.188-7.9062-6 0-10.328 2.375-4.3125 2.375-7.1562 7.25v-8.2031h-9.0312v75.984h9.0312z"/>
<path id="ar" d="m56.203 29.594v-4.3906h-41.312q0.59375-9.2812 5.5938-14.141t13.938-4.8594q5.1719 0 10.031 1.2656t9.6562 3.8125v-8.5q-4.8438-2.0469-9.9219-3.125t-10.297-1.0781q-13.094 0-20.734 7.6094-7.6406 7.625-7.6406 20.625 0 13.422 7.25 21.297 7.25 7.8906 19.562 7.8906 11.031 0 17.453-7.1094 6.4219-7.0938 6.4219-19.297zm-8.9844 2.6406q-0.09375 7.3594-4.125 11.75-4.0312 4.4062-10.672 4.4062-7.5156 0-12.031-4.25t-5.2031-11.969zm-22.547 47.75 13.766-18.266h-7.4688l-15.922 18.266z"/>
</defs>
<g transform="translate(294.05 460.37) scale(.1 -.1)">
<use xlink:href="#af"/>
<use x="63.476562" xlink:href="#j"/>
<use x="104.558594" xlink:href="#r"/>
<use x="165.740234" xlink:href="#al"/>
<use x="229.216797" xlink:href="#g"/>
<use x="257" xlink:href="#ar"/>
<use x="318.523438" xlink:href="#f"/>
<use x="415.935547" xlink:href="#e"/>
</g>
</g>
<g clip-path="url(#a)">
<defs>
<path id="at" d="m14.797 27.297q0-9.9062 4.0781-15.547t11.203-5.6406 11.219 5.6406q4.1094 5.6406 4.1094 15.547t-4.1094 15.547q-4.0938 5.6406-11.219 5.6406t-11.203-5.6406-4.0781-15.547zm30.609-19.094q-2.8281-4.875-7.1562-7.25-4.3125-2.375-10.375-2.375-9.9062 0-16.141 7.9062-6.2188 7.9219-6.2188 20.812t6.2188 20.797q6.2344 7.9062 16.141 7.9062 6.0625 0 10.375-2.375 4.3281-2.3594 7.1562-7.2344v8.2969h8.9844v-75.484h-8.9844z"/>
</defs>
<g transform="translate(356.22 460.17) scale(.1 -.1)">
<use xlink:href="#at"/>
<use x="63.476562" xlink:href="#o"/>
<use x="126.855469" xlink:href="#i"/>
</g>
</g>
<g clip-path="url(#a)">
<defs>
<path id="am" d="m8.2969 72.906 25.391-82.188h-8.2969l-25.391 82.188z"/>
<path id="m" d="m19.188 8.2969h34.422v-8.2969h-46.281v8.2969q5.6094 5.8125 15.297 15.594 9.7031 9.7969 12.188 12.641 4.7344 5.3125 6.6094 9 1.8906 3.6875 1.8906 7.25 0 5.8125-4.0781 9.4688-4.0781 3.6719-10.625 3.6719-4.6406 0-9.7969-1.6094-5.1406-1.6094-11-4.8906v9.9688q5.9531 2.3906 11.125 3.6094 5.1875 1.2188 9.4844 1.2188 11.328 0 18.062-5.6719 6.7344-5.6562 6.7344-15.125 0-4.5-1.6875-8.5312-1.6719-4.0156-6.125-9.4844-1.2188-1.4219-7.7656-8.1875-6.5312-6.7656-18.453-18.922z"/>
<path id="v" d="m31.781 66.406q-7.6094 0-11.453-7.5-3.8281-7.4844-3.8281-22.531 0-14.984 3.8281-22.484 3.8438-7.5 11.453-7.5 7.6719 0 11.5 7.5 3.8438 7.5 3.8438 22.484 0 15.047-3.8438 22.531-3.8281 7.5-11.5 7.5zm0 7.8125q12.266 0 18.734-9.7031 6.4688-9.6875 6.4688-28.141 0-18.406-6.4688-28.109-6.4688-9.6875-18.734-9.6875-12.25 0-18.719 9.6875-6.4688 9.7031-6.4688 28.109 0 18.453 6.4688 28.141 6.4688 9.7031 18.719 9.7031z"/>
<path id="c" d="m12.406 8.2969h16.109v55.625l-17.531-3.5156v8.9844l17.438 3.5156h9.8594v-64.609h16.109v-8.2969h-41.984z"/>
<path id="t" d="m10.984 1.5156v8.9844q3.7188-1.7656 7.5156-2.6875 3.8125-0.92188 7.4844-0.92188 9.7656 0 14.906 6.5625 5.1562 6.5625 5.8906 19.953-2.8281-4.2031-7.1875-6.4531-4.3438-2.25-9.6094-2.25-10.938 0-17.312 6.6094-6.375 6.625-6.375 18.109 0 11.219 6.6406 18 6.6406 6.7969 17.672 6.7969 12.656 0 19.312-9.7031 6.6719-9.6875 6.6719-28.141 0-17.234-8.1875-27.516-8.1719-10.281-21.984-10.281-3.7188 0-7.5312 0.73438-3.7969 0.73438-7.9062 2.2031zm19.625 30.906q6.6406 0 10.516 4.5312 3.8906 4.5469 3.8906 12.469 0 7.8594-3.8906 12.422-3.875 4.5625-10.516 4.5625t-10.516-4.5625-3.875-12.422q0-7.9219 3.875-12.469 3.875-4.5312 10.516-4.5312z"/>
</defs>
<g transform="translate(387.53 460.17) scale(.1 -.1)">
<use xlink:href="#f"/>
<use x="97.412109" xlink:href="#am"/>
<use x="131.103516" xlink:href="#o"/>
<use x="194.482422" xlink:href="#m"/>
<use x="258.105469" xlink:href="#v"/>
<use x="321.728516" xlink:href="#c"/>
<use x="385.351562" xlink:href="#t"/>
</g>
</g>
<g clip-path="url(#a)">
<g transform="translate(448.36 460.17) scale(.1 -.1)">
<use xlink:href="#e"/>
<use x="61.523438" xlink:href="#w"/>
<use x="113.623047" xlink:href="#q"/>
</g>
</g>
<g clip-path="url(#a)">
<g transform="translate(484.33 460.17) scale(.1 -.1)">
<use xlink:href="#w"/>
<use x="52.099609" xlink:href="#r"/>
<use x="113.28125" xlink:href="#o"/>
<use x="176.660156" xlink:href="#f"/>
<use x="274.072266" xlink:href="#i"/>
<use x="301.855469" xlink:href="#w"/>
</g>
</g>
<g clip-path="url(#a)">
<g transform="translate(536.67 460.17) scale(.1 -.1)">
<use xlink:href="#af"/>
<use x="63.476562" xlink:href="#e"/>
<use x="125" xlink:href="#o"/>
<use x="188.378906" xlink:href="#q"/>
</g>
</g>
<g clip-path="url(#a)">
<defs>
<path id="ag" d="m37.109 75.984v-7.4844h-8.5938q-4.8281 0-6.7188-1.9531-1.875-1.9531-1.875-7.0312v-4.8281h14.797v-6.9844h-14.797v-47.703h-9.0312v47.703h-8.5938v6.9844h8.5938v3.8125q0 9.125 4.25 13.297 4.25 4.1875 13.469 4.1875z"/>
<path id="ak" d="m48.781 52.594v-8.4062q-3.8125 2.1094-7.6406 3.1562t-7.7344 1.0469q-8.75 0-13.594-5.5469-4.8281-5.5312-4.8281-15.547t4.8281-15.562q4.8438-5.5312 13.594-5.5312 3.9062 0 7.7344 1.0469t7.6406 3.1562v-8.3125q-3.7656-1.75-7.7969-2.625-4.0156-0.89062-8.5625-0.89062-12.359 0-19.641 7.7656-7.2656 7.7656-7.2656 20.953 0 13.375 7.3438 21.031 7.3594 7.6719 20.156 7.6719 4.1406 0 8.0938-0.85938 3.9531-0.84375 7.6719-2.5469z"/>
</defs>
<g transform="translate(574.57 460.17) scale(.1 -.1)">
<use xlink:href="#h"/>
<use x="61.279297" xlink:href="#ag"/>
<use x="96.484375" xlink:href="#ag"/>
<use x="131.689453" xlink:href="#e"/>
<use x="193.212891" xlink:href="#ak"/>
<use x="248.193359" xlink:href="#q"/>
<use x="287.402344" xlink:href="#e"/>
<use x="348.925781" xlink:href="#j"/>
</g>
</g>
<g clip-path="url(#a)">
<g transform="translate(635.65 460.17) scale(.1 -.1)">
<use xlink:href="#g"/>
<use x="27.783203" xlink:href="#h"/>
</g>
</g>
<g clip-path="url(#a)">
<g transform="translate(671.31 460.17) scale(.1 -.1)">
<use xlink:href="#ag"/>
<use x="35.205078" xlink:href="#r"/>
<use x="96.386719" xlink:href="#j"/>
<use x="137.484375" xlink:href="#f"/>
<use x="234.896484" xlink:href="#e"/>
</g>
</g>
<g clip-path="url(#a)">
<g transform="translate(725.81 460.17) scale(.1 -.1)">
<use xlink:href="#x"/>
<use x="63.476562" xlink:href="#o"/>
</g>
</g>
<g clip-path="url(#a)">
<g transform="translate(756.33 460.17) scale(.1 -.1)">
<use xlink:href="#x"/>
<use x="63.476562" xlink:href="#i"/>
<use x="91.259766" xlink:href="#g"/>
<use x="119.042969" xlink:href="#e"/>
<use x="180.566406" xlink:href="#f"/>
<use x="277.978516" xlink:href="#f"/>
<use x="375.390625" xlink:href="#e"/>
</g>
</g>
<g clip-path="url(#a)">
<defs>
<path id="d" d="m10.688 12.406h10.312v-12.406h-10.312z"/>
</defs>
<g transform="translate(822.62 460.17) scale(.1 -.1)">
<use xlink:href="#d"/>
</g>
</g>
<g clip-path="url(#a)">
<g transform="translate(185.59 25.351) scale(.1 -.1)">
<use xlink:href="#c"/>
<use x="63.623047" xlink:href="#d"/>
<use x="95.410156" xlink:href="#c"/>
</g>
</g>
<g clip-path="url(#a)">
<defs>
<path id="u" d="m40.578 39.312q7.0781-1.5156 11.047-6.3125 3.9844-4.7812 3.9844-11.812 0-10.781-7.4219-16.703-7.4219-5.9062-21.094-5.9062-4.5781 0-9.4375 0.90625t-10.031 2.7188v9.5156q4.0938-2.3906 8.9688-3.6094 4.8906-1.2188 10.219-1.2188 9.2656 0 14.125 3.6562t4.8594 10.641q0 6.4531-4.5156 10.078-4.5156 3.6406-12.562 3.6406h-8.5v8.1094h8.8906q7.2656 0 11.125 2.9062t3.8594 8.375q0 5.6094-3.9844 8.6094-3.9688 3.0156-11.391 3.0156-4.0625 0-8.7031-0.89062-4.6406-0.875-10.203-2.7188v8.7812q5.625 1.5625 10.531 2.3438t9.25 0.78125q11.234 0 17.766-5.1094 6.5469-5.0938 6.5469-13.781 0-6.0625-3.4688-10.234t-9.8594-5.7812z"/>
</defs>
<g transform="translate(79.843 400.62) scale(.1 -.1)">
<use xlink:href="#c"/>
<use x="63.623047" xlink:href="#d"/>
<use x="95.410156" xlink:href="#u"/>
</g>
</g>
<g clip-path="url(#a)">
<defs>
<path id="ae" d="m10.797 72.906h38.719v-8.3125h-29.688v-17.859q2.1406 0.73438 4.2812 1.0938 2.1562 0.35938 4.3125 0.35938 12.203 0 19.328-6.6875 7.1406-6.6875 7.1406-18.109 0-11.766-7.3281-18.297-7.3281-6.5156-20.656-6.5156-4.5938 0-9.3594 0.78125-4.75 0.78125-9.8281 2.3438v9.9219q4.3906-2.3906 9.0781-3.5625t9.9062-1.1719q8.4531 0 13.375 4.4375 4.9375 4.4375 4.9375 12.062 0 7.6094-4.9375 12.047-4.9219 4.4531-13.375 4.4531-3.9531 0-7.8906-0.875-3.9219-0.875-8.0156-2.7344z"/>
</defs>
<g transform="translate(502.81 91.676) scale(.1 -.1)">
<use xlink:href="#c"/>
<use x="63.623047" xlink:href="#d"/>
<use x="95.410156" xlink:href="#ae"/>
</g>
</g>
<g clip-path="url(#a)">
<defs>
<path id="ad" d="m8.2031 72.906h46.875v-4.2031l-26.469-68.703h-10.297l24.906 64.594h-35.016z"/>
</defs>
<g transform="translate(251.8 156.22) scale(.1 -.1)">
<use xlink:href="#c"/>
<use x="63.623047" xlink:href="#d"/>
<use x="95.410156" xlink:href="#ad"/>
</g>
</g>
<g clip-path="url(#a)">
<defs>
<path id="ac" d="m31.781 34.625q-7.0312 0-11.062-3.7656-4.0156-3.7656-4.0156-10.344 0-6.5938 4.0156-10.359 4.0312-3.7656 11.062-3.7656t11.078 3.7812q4.0625 3.7969 4.0625 10.344 0 6.5781-4.0312 10.344-4.0156 3.7656-11.109 3.7656zm-9.8594 4.1875q-6.3438 1.5625-9.8906 5.9062-3.5312 4.3594-3.5312 10.609 0 8.7344 6.2188 13.812 6.2344 5.0781 17.062 5.0781 10.891 0 17.094-5.0781t6.2031-13.812q0-6.25-3.5469-10.609-3.5312-4.3438-9.8281-5.9062 7.125-1.6562 11.094-6.5 3.9844-4.8281 3.9844-11.797 0-10.609-6.4688-16.281-6.4688-5.6562-18.531-5.6562-12.047 0-18.531 5.6562-6.4688 5.6719-6.4688 16.281 0 6.9688 4 11.797 4.0156 4.8438 11.141 6.5zm-3.6094 15.578q0-5.6562 3.5312-8.8281 3.5469-3.1719 9.9375-3.1719 6.3594 0 9.9375 3.1719 3.5938 3.1719 3.5938 8.8281 0 5.6719-3.5938 8.8438-3.5781 3.1719-9.9375 3.1719-6.3906 0-9.9375-3.1719-3.5312-3.1719-3.5312-8.8438z"/>
</defs>
<g transform="translate(563.11 341.07) scale(.1 -.1)">
<use xlink:href="#c"/>
<use x="63.623047" xlink:href="#d"/>
<use x="95.410156" xlink:href="#ac"/>
</g>
</g>
<g clip-path="url(#a)">
<g transform="translate(693.52 280.7) scale(.1 -.1)">
<use xlink:href="#c"/>
<use x="63.623047" xlink:href="#d"/>
<use x="95.410156" xlink:href="#t"/>
</g>
</g>
<g clip-path="url(#a)">
<g transform="translate(628.97 400.62) scale(.1 -.1)">
<use xlink:href="#c"/>
<use x="63.623047" xlink:href="#d"/>
<use x="95.410156" xlink:href="#c"/>
<use x="159.033203" xlink:href="#v"/>
</g>
</g>
<g clip-path="url(#a)">
<g transform="translate(675 400.62) scale(.1 -.1)">
<use xlink:href="#c"/>
<use x="63.623047" xlink:href="#d"/>
<use x="95.410156" xlink:href="#c"/>
<use x="159.033203" xlink:href="#c"/>
</g>
</g>
<g clip-path="url(#a)">
<g transform="translate(767.05 341.07) scale(.1 -.1)">
<use xlink:href="#c"/>
<use x="63.623047" xlink:href="#d"/>
<use x="95.410156" xlink:href="#c"/>
<use x="159.033203" xlink:href="#m"/>
</g>
</g>
<g clip-path="url(#a)">
<g transform="translate(721.02 400.62) scale(.1 -.1)">
<use xlink:href="#c"/>
<use x="63.623047" xlink:href="#d"/>
<use x="95.410156" xlink:href="#c"/>
<use x="159.033203" xlink:href="#u"/>
</g>
</g>
<g clip-path="url(#a)">
<defs>
<path id="aj" d="m37.797 64.312-24.906-38.922h24.906zm-2.5938 8.5938h12.406v-47.516h10.406v-8.2031h-10.406v-17.188h-9.8125v17.188h-32.906v9.5156z"/>
</defs>
<g transform="translate(767.05 400.62) scale(.1 -.1)">
<use xlink:href="#c"/>
<use x="63.623047" xlink:href="#d"/>
<use x="95.410156" xlink:href="#c"/>
<use x="159.033203" xlink:href="#aj"/>
</g>
</g>
<g clip-path="url(#a)">
<g transform="translate(536.92 400.62) scale(.1 -.1)">
<use xlink:href="#c"/>
<use x="63.623047" xlink:href="#d"/>
<use x="95.410156" xlink:href="#c"/>
<use x="159.033203" xlink:href="#ae"/>
</g>
</g>
<g clip-path="url(#a)">
<defs>
<path id="ai" d="m33.016 40.375q-6.6406 0-10.531-4.5469-3.875-4.5312-3.875-12.438 0-7.8594 3.875-12.438 3.8906-4.5625 10.531-4.5625t10.516 4.5625q3.875 4.5781 3.875 12.438 0 7.9062-3.875 12.438-3.875 4.5469-10.516 4.5469zm19.578 30.922v-8.9844q-3.7188 1.75-7.5 2.6719-3.7812 0.9375-7.5 0.9375-9.7656 0-14.922-6.5938-5.1406-6.5938-5.875-19.922 2.875 4.25 7.2188 6.5156 4.3594 2.2656 9.5781 2.2656 10.984 0 17.359-6.6719 6.375-6.6562 6.375-18.125 0-11.234-6.6406-18.031-6.6406-6.7812-17.672-6.7812-12.656 0-19.344 9.6875-6.6875 9.7031-6.6875 28.109 0 17.281 8.2031 27.562t22.016 10.281q3.7188 0 7.5-0.73438t7.8906-2.1875z"/>
</defs>
<g transform="translate(582.94 400.62) scale(.1 -.1)">
<use xlink:href="#c"/>
<use x="63.623047" xlink:href="#d"/>
<use x="95.410156" xlink:href="#c"/>
<use x="159.033203" xlink:href="#ai"/>
</g>
</g>
<g clip-path="url(#a)">
<g transform="translate(168.71 400.62) scale(.1 -.1)">
<use xlink:href="#c"/>
<use x="63.623047" xlink:href="#d"/>
<use x="95.410156" xlink:href="#c"/>
<use x="159.033203" xlink:href="#ad"/>
</g>
</g>
<g clip-path="url(#a)">
<g transform="translate(214.74 400.62) scale(.1 -.1)">
<use xlink:href="#c"/>
<use x="63.623047" xlink:href="#d"/>
<use x="95.410156" xlink:href="#c"/>
<use x="159.033203" xlink:href="#ac"/>
</g>
</g>
<g clip-path="url(#a)">
<g transform="translate(362.4 219.16) scale(.1 -.1)">
<use xlink:href="#c"/>
<use x="63.623047" xlink:href="#d"/>
<use x="95.410156" xlink:href="#c"/>
<use x="159.033203" xlink:href="#t"/>
</g>
</g>
<g clip-path="url(#a)">
<g transform="translate(260.76 400.62) scale(.1 -.1)">
<use xlink:href="#c"/>
<use x="63.623047" xlink:href="#d"/>
<use x="95.410156" xlink:href="#m"/>
<use x="159.033203" xlink:href="#v"/>
</g>
</g>
<g clip-path="url(#a)">
<g transform="translate(306.79 400.62) scale(.1 -.1)">
<use xlink:href="#c"/>
<use x="63.623047" xlink:href="#d"/>
<use x="95.410156" xlink:href="#m"/>
<use x="159.033203" xlink:href="#c"/>
</g>
</g>
<g clip-path="url(#a)">
<g transform="translate(519.66 280.7) scale(.1 -.1)">
<use xlink:href="#c"/>
<use x="63.623047" xlink:href="#d"/>
<use x="95.410156" xlink:href="#m"/>
<use x="159.033203" xlink:href="#m"/>
</g>
</g>
<g clip-path="url(#a)">
<defs>
<path id="ab" d="m9.8125 72.906h9.8594v-72.906h-9.8594z"/>
<path id="an" d="m9.8125 72.906h14.703l18.594-49.609 18.703 49.609h14.703v-72.906h-9.625v64.016l-18.797-50h-9.9062l-18.797 50v-64.016h-9.5781z"/>
</defs>
<g transform="translate(849.15 460.17) scale(.1 -.1)">
<use xlink:href="#ab"/>
<use x="29.492188" xlink:href="#an"/>
<use x="115.771484" xlink:href="#aa"/>
<use x="176.074219" xlink:href="#ah"/>
<use x="231.787109" xlink:href="#ab"/>
<use x="261.279297" xlink:href="#n"/>
<use x="331.103516" xlink:href="#ab"/>
<use x="360.595703" xlink:href="#l"/>
</g>
</g>
<g clip-path="url(#a)">
<g transform="translate(352.82 400.62) scale(.1 -.1)">
<use xlink:href="#c"/>
<use x="63.623047" xlink:href="#d"/>
<use x="95.410156" xlink:href="#m"/>
<use x="159.033203" xlink:href="#aj"/>
</g>
</g>
<g clip-path="url(#a)">
<g transform="translate(398.84 400.62) scale(.1 -.1)">
<use xlink:href="#c"/>
<use x="63.623047" xlink:href="#d"/>
<use x="95.410156" xlink:href="#m"/>
<use x="159.033203" xlink:href="#ae"/>
</g>
</g>
<g clip-path="url(#a)">
<g transform="translate(467.88 341.07) scale(.1 -.1)">
<use xlink:href="#c"/>
<use x="63.623047" xlink:href="#d"/>
<use x="95.410156" xlink:href="#m"/>
<use x="159.033203" xlink:href="#ai"/>
</g>
</g>
<g clip-path="url(#a)">
<g transform="translate(444.87 400.62) scale(.1 -.1)">
<use xlink:href="#c"/>
<use x="63.623047" xlink:href="#d"/>
<use x="95.410156" xlink:href="#m"/>
<use x="159.033203" xlink:href="#ad"/>
</g>
</g>
<g clip-path="url(#a)">
<g transform="translate(490.89 400.62) scale(.1 -.1)">
<use xlink:href="#c"/>
<use x="63.623047" xlink:href="#d"/>
<use x="95.410156" xlink:href="#m"/>
<use x="159.033203" xlink:href="#ac"/>
</g>
</g>
<g clip-path="url(#a)">
<g transform="translate(30.636 400.62) scale(.1 -.1)">
<use xlink:href="#c"/>
<use x="63.623047" xlink:href="#d"/>
<use x="95.410156" xlink:href="#m"/>
<use x="159.033203" xlink:href="#t"/>
</g>
</g>
<g clip-path="url(#a)">
<g transform="translate(122.69 400.62) scale(.1 -.1)">
<use xlink:href="#c"/>
<use x="63.623047" xlink:href="#d"/>
<use x="95.410156" xlink:href="#u"/>
<use x="159.033203" xlink:href="#v"/>
</g>
</g>
<g clip-path="url(#a)">
<g transform="translate(813.07 400.62) scale(.1 -.1)">
<use xlink:href="#c"/>
<use x="63.623047" xlink:href="#d"/>
<use x="95.410156" xlink:href="#u"/>
<use x="159.033203" xlink:href="#c"/>
</g>
</g>
<defs>
<clipPath id="a">
<rect width="912" height="480"/>
</clipPath>
</defs>
</svg>
