<?xml version="1.0" encoding="UTF-8"?>
<!DOCTYPE svg  PUBLIC '-//W3C//DTD SVG 1.1//EN'  'http://www.w3.org/Graphics/SVG/1.1/DTD/svg11.dtd'>
<svg width="1064pt" height="560pt" version="1.1" viewBox="0 0 1064 560" xmlns="http://www.w3.org/2000/svg" xmlns:xlink="http://www.w3.org/1999/xlink">
<defs>
<style type="text/css">*{stroke-linecap:butt;stroke-linejoin:round;}</style>
</defs>
<path d="m0 560h1064v-560h-1064z" fill="#fff"/>
<g fill="none" stroke="#000">
<path d="m348.18 25.455v57.098" clip-path="url(#a)"/>
<path d="m348.18 82.553 667.46 57.027" clip-path="url(#a)"/>
<path d="m348.18 82.553 667.46 57.027" clip-path="url(#a)"/>
<path d="m348.18 82.553v57.027" clip-path="url(#a)"/>
<path d="m348.18 139.58-288.3 339.63" clip-path="url(#a)"/>
<path d="m348.18 139.58-233.58 56.945" clip-path="url(#a)"/>
<path d="m348.18 139.58 210.69 339.63" clip-path="url(#a)"/>
<path d="m348.18 139.58 461.72 283.52" clip-path="url(#a)"/>
<path d="m348.18 139.58-299.81 339.63" clip-path="url(#a)"/>
<path d="m348.18 139.58 149.28 339.63" clip-path="url(#a)"/>
<path d="m59.879 479.21v55.336" clip-path="url(#a)"/>
<path d="m114.6 196.52-39.37 282.68" clip-path="url(#a)"/>
<path d="m114.6 196.52-20.178 282.68" clip-path="url(#a)"/>
<path d="m114.6 196.52 59.548 56.85" clip-path="url(#a)"/>
<path d="m558.87 479.21v55.336" clip-path="url(#a)"/>
<path d="m809.9 423.1-185.78 56.106" clip-path="url(#a)"/>
<path d="m809.9 423.1-1.5354 56.106" clip-path="url(#a)"/>
<path d="m809.9 423.1-43.758 56.106" clip-path="url(#a)"/>
<path d="m809.9 423.1 33.01 56.106" clip-path="url(#a)"/>
<path d="m809.9 423.1 198.06 56.106" clip-path="url(#a)"/>
<path d="m624.12 479.21v55.336" clip-path="url(#a)"/>
<path d="m808.36 479.21-115.15 55.336" clip-path="url(#a)"/>
<path d="m808.36 479.21 115.15 55.336" clip-path="url(#a)"/>
<path d="m766.14 479.21v55.336" clip-path="url(#a)"/>
<path d="m842.91 479.21v55.336" clip-path="url(#a)"/>
<path d="m75.232 479.21v55.336" clip-path="url(#a)"/>
<path d="m94.424 479.21v55.336" clip-path="url(#a)"/>
<path d="m174.15 253.37-56.696 225.83" clip-path="url(#a)"/>
<path d="m174.15 253.37-29.827 225.83" clip-path="url(#a)"/>
<path d="m174.15 253.37 0.87963 225.83" clip-path="url(#a)"/>
<path d="m174.15 253.37 85.644 56.736" clip-path="url(#a)"/>
<path d="m117.45 479.21v55.336" clip-path="url(#a)"/>
<path d="m144.32 479.21v55.336" clip-path="url(#a)"/>
<path d="m175.03 479.21v55.336" clip-path="url(#a)"/>
<path d="m259.79 310.11-50.219 169.1" clip-path="url(#a)"/>
<path d="m259.79 310.11-11.835 169.1" clip-path="url(#a)"/>
<path d="m259.79 310.11 62.054 56.592" clip-path="url(#a)"/>
<path d="m209.58 479.21v55.336" clip-path="url(#a)"/>
<path d="m247.96 479.21v55.336" clip-path="url(#a)"/>
<path d="m321.85 366.7-73.889 112.51" clip-path="url(#a)" stroke-dasharray="3.7,1.6"/>
<path d="m321.85 366.7-31.667 112.51" clip-path="url(#a)"/>
<path d="m321.85 366.7 14.394 112.51" clip-path="url(#a)"/>
<path d="m321.85 366.7 91.162 56.4" clip-path="url(#a)"/>
<path d="m290.18 479.21v55.336" clip-path="url(#a)"/>
<path d="m336.24 479.21v55.336" clip-path="url(#a)"/>
<path d="m413.01 423.1-26.869 56.106" clip-path="url(#a)"/>
<path d="m413.01 423.1 26.869 56.106" clip-path="url(#a)"/>
<path d="m386.14 479.21v55.336" clip-path="url(#a)"/>
<path d="m439.88 479.21v55.336" clip-path="url(#a)"/>
<path d="m684.38 366.7-125.52 112.51" clip-path="url(#a)"/>
<path d="m684.38 366.7 125.52 56.4" clip-path="url(#a)"/>
<path d="m87.241 139.58-27.362 339.63" clip-path="url(#a)"/>
<path d="m87.241 139.58 27.362 56.945" clip-path="url(#a)"/>
<path d="m48.364 479.21v55.336" clip-path="url(#a)"/>
<path d="m497.45 479.21v55.336" clip-path="url(#a)"/>
<path d="m1008 479.21v55.336" clip-path="url(#a)"/>
</g>
<path d="m341.91 50.996v6.0162q0 2.4 2.4 2.4h7.7425q2.4 0 2.4-2.4v-6.0162q0-2.4-2.4-2.4h-7.7425q-2.4 0-2.4 2.4z" clip-path="url(#a)" fill="#fff" stroke="#fff"/>
<g clip-path="url(#a)">
<defs>
<path id="ac" d="m9.8125 72.906h9.8594v-29.891h35.844v29.891h9.8594v-72.906h-9.8594v34.719h-35.844v-34.719h-9.8594z"/>
</defs>
<g transform="translate(345.97 50.996) rotate(90) scale(.08 -.08)">
<use xlink:href="#ac"/>
</g>
</g>
<path d="m678.65 117.08 5.4526 0.46587q2.3913 0.20431 2.5956-2.187l0.65911-7.7144q0.20431-2.3913-2.187-2.5956l-5.4526-0.46587q-2.3913-0.20431-2.5956 2.187l-0.65911 7.7144q-0.20431 2.3913 2.187 2.5956z" clip-path="url(#a)" fill="#fff" stroke="#fff"/>
<g clip-path="url(#a)">
<defs>
<path id="o" d="m34.188 63.188-13.391-36.281h26.812zm-5.5781 9.7188h11.188l27.781-72.906h-10.25l-6.6406 18.703h-32.859l-6.6406-18.703h-10.406z"/>
</defs>
<g transform="translate(678.99 113.03) rotate(4.8834) scale(.08 -.08)">
<use xlink:href="#o"/>
</g>
</g>
<path d="m678.97 117.11 4.8062 0.41064q2.3913 0.20431 2.5956-2.187l0.65911-7.7144q0.20431-2.3913-2.187-2.5956l-4.8062-0.41064q-2.3913-0.20431-2.5956 2.187l-0.65911 7.7144q-0.20431 2.3913 2.187 2.5956z" clip-path="url(#a)" fill="#fff" stroke="#fff"/>
<g clip-path="url(#a)">
<defs>
<path id="u" d="m19.672 64.797v-27.391h12.406q6.8906 0 10.641 3.5625 3.7656 3.5625 3.7656 10.156 0 6.5469-3.7656 10.109-3.75 3.5625-10.641 3.5625zm-9.8594 8.1094h22.266q12.266 0 18.531-5.5469 6.2812-5.5469 6.2812-16.234 0-10.797-6.2812-16.312-6.2656-5.5156-18.531-5.5156h-12.406v-29.297h-9.8594z"/>
</defs>
<g transform="translate(679.32 113.06) rotate(4.8834) scale(.08 -.08)">
<use xlink:href="#u"/>
</g>
</g>
<path d="m341.91 108.33v5.4725q0 2.4 2.4 2.4h7.7425q2.4 0 2.4-2.4v-5.4725q0-2.4-2.4-2.4h-7.7425q-2.4 0-2.4 2.4z" clip-path="url(#a)" fill="#fff" stroke="#fff"/>
<g clip-path="url(#a)">
<g transform="translate(345.97 108.33) rotate(90) scale(.08 -.08)">
<use xlink:href="#o"/>
</g>
</g>
<path d="m207.37 315.15 2.8847-3.3982q1.5531-1.8297-0.27653-3.3828l-5.9026-5.0105q-1.8297-1.5531-3.3828 0.27653l-2.8846 3.3982q-1.5531 1.8297 0.27653 3.3828l5.9026 5.0105q1.8297 1.5531 3.3828-0.27653z" clip-path="url(#a)" fill="#fff" stroke="#fff"/>
<g clip-path="url(#a)">
<defs>
<path id="r" d="m9.8125 72.906h9.8594v-64.609h35.5v-8.2969h-45.359z"/>
</defs>
<g transform="translate(204.27 312.52) rotate(-49.673) scale(.08 -.08)">
<use xlink:href="#r"/>
</g>
</g>
<path d="m229.95 174.86 5.845-1.425q2.3317-0.56846 1.7632-2.9002l-1.8339-7.5222q-0.56846-2.3317-2.9002-1.7632l-5.845 1.425q-2.3317 0.56846-1.7632 2.9002l1.8339 7.5222q0.56846 2.3317 2.9002 1.7632z" clip-path="url(#a)" fill="#fff" stroke="#fff"/>
<g clip-path="url(#a)">
<g transform="translate(228.99 170.91) rotate(-13.701) scale(.08 -.08)">
<use xlink:href="#ac"/>
</g>
</g>
<path d="m447.02 310.81 2.3498 3.7878q1.2652 2.0394 3.3046 0.77426l6.5793-4.0815q2.0394-1.2652 0.77426-3.3046l-2.3498-3.7878q-1.2652-2.0394-3.3046-0.77426l-6.5793 4.0815q-2.0394 1.2652-0.77426 3.3046z" clip-path="url(#a)" fill="#fff" stroke="#fff"/>
<g clip-path="url(#a)">
<g transform="translate(450.47 308.66) rotate(58.186) scale(.08 -.08)">
<use xlink:href="#r"/>
</g>
</g>
<path d="m573.19 285.11 5.1268 3.1482q2.0452 1.2559 3.3011-0.78933l4.0515-6.5979q1.2559-2.0452-0.78933-3.3011l-5.1268-3.1482q-2.0452-1.2559-3.3011 0.78933l-4.0515 6.5979q-1.2559 2.0452 0.78933 3.3011z" clip-path="url(#a)" fill="#fff" stroke="#fff"/>
<g clip-path="url(#a)">
<g transform="translate(575.32 281.65) rotate(31.552) scale(.08 -.08)">
<use xlink:href="#ac"/>
</g>
</g>
<path d="m201.03 315.74 3.8748-4.3894q1.5883-1.7992-0.21093-3.3876l-5.8044-5.124q-1.7992-1.5883-3.3876 0.21093l-3.8748 4.3894q-1.5883 1.7992 0.21093 3.3876l5.8044 5.124q1.7992 1.5883 3.3876-0.21093z" clip-path="url(#a)" fill="#fff" stroke="#fff"/>
<g clip-path="url(#a)">
<defs>
<path id="ab" d="m8.6875 72.906h9.9219v-44.297q0-11.719 4.2344-16.875 4.25-5.1406 13.781-5.1406 9.4688 0 13.719 5.1406 4.25 5.1562 4.25 16.875v44.297h9.9062v-45.516q0-14.25-7.0625-21.531-7.0469-7.2812-20.812-7.2812-13.828 0-20.891 7.2812-7.0469 7.2812-7.0469 21.531z"/>
</defs>
<g transform="translate(197.99 313.05) rotate(-48.563) scale(.08 -.08)">
<use xlink:href="#ab"/>
</g>
</g>
<path d="m415.9 309.24 2.3559 5.3601q0.9657 2.1971 3.1628 1.2314l7.0881-3.1154q2.1971-0.9657 1.2314-3.1628l-2.3559-5.3601q-0.9657-2.1971-3.1628-1.2314l-7.0881 3.1154q-2.1971 0.9657-1.2314 3.1628z" clip-path="url(#a)" fill="#fff" stroke="#fff"/>
<g clip-path="url(#a)">
<g transform="translate(419.62 307.6) rotate(66.273) scale(.08 -.08)">
<use xlink:href="#ab"/>
</g>
</g>
<path d="m53.608 489.97v33.808q0 2.4 2.4 2.4h7.7425q2.4 0 2.4-2.4v-33.808q0-2.4-2.4-2.4h-7.7425q-2.4 0-2.4 2.4z" clip-path="url(#a)" fill="#fff" stroke="#fff"/>
<g clip-path="url(#a)">
<defs>
<path id="k" d="m-0.29688 72.906h61.672v-8.3125h-25.875v-64.594h-9.9062v64.594h-25.891z"/>
<path id="f" d="m56.203 29.594v-4.3906h-41.312q0.59375-9.2812 5.5938-14.141t13.938-4.8594q5.1719 0 10.031 1.2656t9.6562 3.8125v-8.5q-4.8438-2.0469-9.9219-3.125t-10.297-1.0781q-13.094 0-20.734 7.6094-7.6406 7.625-7.6406 20.625 0 13.422 7.25 21.297 7.25 7.8906 19.562 7.8906 11.031 0 17.453-7.1094 6.4219-7.0938 6.4219-19.297zm-8.9844 2.6406q-0.09375 7.3594-4.125 11.75-4.0312 4.4062-10.672 4.4062-7.5156 0-12.031-4.25t-5.2031-11.969z"/>
<path id="j" d="m41.109 46.297q-1.5156 0.875-3.2969 1.2812-1.7812 0.42188-3.9219 0.42188-7.625 0-11.703-4.9531t-4.0781-14.234v-28.812h-9.0312v54.688h9.0312v-8.5q2.8438 4.9844 7.375 7.3906 4.5469 2.4219 11.047 2.4219 0.92188 0 2.0469-0.125 1.125-0.10938 2.4844-0.35938z"/>
<path id="l" d="m52 44.188q3.375 6.0625 8.0625 8.9375t11.031 2.875q8.5469 0 13.188-5.9844 4.6406-5.9688 4.6406-17v-33.016h-9.0312v32.719q0 7.8594-2.7969 11.656-2.7812 3.8125-8.4844 3.8125-6.9844 0-11.047-4.6406-4.0469-4.625-4.0469-12.641v-30.906h-9.0312v32.719q0 7.9062-2.7812 11.688t-8.5938 3.7812q-6.8906 0-10.953-4.6562-4.0469-4.6562-4.0469-12.625v-30.906h-9.0312v54.688h9.0312v-8.5q3.0781 5.0312 7.375 7.4219t10.203 2.3906q5.9688 0 10.141-3.0312 4.1719-3.0156 6.1719-8.7812z"/>
<path id="i" d="m9.4219 54.688h8.9844v-54.688h-8.9844zm0 21.297h8.9844v-11.391h-8.9844z"/>
<path id="d" d="m54.891 33.016v-33.016h-8.9844v32.719q0 7.7656-3.0312 11.609-3.0312 3.8594-9.0781 3.8594-7.2812 0-11.484-4.6406-4.2031-4.625-4.2031-12.641v-30.906h-9.0312v54.688h9.0312v-8.5q3.2344 4.9375 7.5938 7.375 4.375 2.4375 10.094 2.4375 9.4219 0 14.25-5.8281 4.8438-5.8281 4.8438-17.156z"/>
<path id="g" d="m34.281 27.484q-10.891 0-15.094-2.4844t-4.2031-8.5q0-4.7812 3.1562-7.5938 3.1562-2.7969 8.5625-2.7969 7.4844 0 12 5.2969t4.5156 14.078v2zm17.922 3.7188v-31.203h-8.9844v8.2969q-3.0781-4.9688-7.6719-7.3438t-11.234-2.375q-8.3906 0-13.359 4.7188-4.9531 4.7188-4.9531 12.625 0 9.2188 6.1719 13.906 6.1875 4.6875 18.438 4.6875h12.609v0.89062q0 6.2031-4.0781 9.5938t-11.453 3.3906q-4.6875 0-9.1406-1.125-4.4375-1.125-8.5312-3.375v8.3125q4.9219 1.9062 9.5625 2.8438 4.6406 0.95312 9.0312 0.95312 11.875 0 17.734-6.1562 5.8594-6.1406 5.8594-18.641z"/>
<path id="h" d="m9.4219 75.984h8.9844v-75.984h-8.9844z"/>
</defs>
<g transform="translate(57.671 489.97) rotate(90) scale(.08 -.08)">
<use xlink:href="#k"/>
<use x="44.083984" xlink:href="#f"/>
<use x="105.607422" xlink:href="#j"/>
<use x="144.970703" xlink:href="#l"/>
<use x="242.382812" xlink:href="#i"/>
<use x="270.166016" xlink:href="#d"/>
<use x="333.544922" xlink:href="#g"/>
<use x="394.824219" xlink:href="#h"/>
</g>
</g>
<path d="m100.75 341.44 0.75488-5.4202q0.33106-2.3771-2.046-2.7081l-7.6685-1.068q-2.3771-0.33106-2.7081 2.046l-0.75488 5.4202q-0.33106 2.3771 2.046 2.7081l7.6685 1.068q2.3771 0.33106 2.7081-2.046z" clip-path="url(#a)" fill="#fff" stroke="#fff"/>
<g clip-path="url(#a)">
<g transform="translate(96.726 340.88) rotate(-82.071) scale(.08 -.08)">
<use xlink:href="#o"/>
</g>
</g>
<path d="m110.6 340.72 0.34345-4.8115q0.17088-2.3939-2.223-2.5648l-7.7229-0.55126q-2.3939-0.17088-2.5648 2.223l-0.34345 4.8115q-0.17088 2.3939 2.223 2.5648l7.7228 0.55126q2.3939 0.17088 2.5648-2.223z" clip-path="url(#a)" fill="#fff" stroke="#fff"/>
<g clip-path="url(#a)">
<g transform="translate(106.54 340.43) rotate(-85.917) scale(.08 -.08)">
<use xlink:href="#u"/>
</g>
</g>
<path d="m138.07 227.6 3.9583 3.7789q1.7359 1.6573 3.3932-0.078663l5.3464-5.6002q1.6573-1.7359-0.078663-3.3932l-3.9583-3.7789q-1.7359-1.6573-3.3932 0.078663l-5.3464 5.6002q-1.6573 1.7359 0.078662 3.3932z" clip-path="url(#a)" fill="#fff" stroke="#fff"/>
<g clip-path="url(#a)">
<g transform="translate(140.87 224.66) rotate(43.672) scale(.08 -.08)">
<use xlink:href="#o"/>
</g>
</g>
<path d="m552.6 489.97v33.808q0 2.4 2.4 2.4h7.7425q2.4 0 2.4-2.4v-33.808q0-2.4-2.4-2.4h-7.7425q-2.4 0-2.4 2.4z" clip-path="url(#a)" fill="#fff" stroke="#fff"/>
<g clip-path="url(#a)">
<g transform="translate(556.66 489.97) rotate(90) scale(.08 -.08)">
<use xlink:href="#k"/>
<use x="44.083984" xlink:href="#f"/>
<use x="105.607422" xlink:href="#j"/>
<use x="144.970703" xlink:href="#l"/>
<use x="242.382812" xlink:href="#i"/>
<use x="270.166016" xlink:href="#d"/>
<use x="333.544922" xlink:href="#g"/>
<use x="394.824219" xlink:href="#h"/>
</g>
</g>
<path d="m716.2 457.95 5.2388-1.5822q2.2975-0.69386 1.6036-2.9914l-2.2384-7.4119q-0.69386-2.2975-2.9914-1.6036l-5.2388 1.5822q-2.2975 0.69386-1.6036 2.9914l2.2384 7.4119q0.69386 2.2975 2.9914 1.6036z" clip-path="url(#a)" fill="#fff" stroke="#fff"/>
<g clip-path="url(#a)">
<g transform="translate(715.03 454.06) rotate(-16.805) scale(.08 -.08)">
<use xlink:href="#o"/>
</g>
</g>
<path d="m815.32 454.41 0.16851-6.1577q0.065651-2.3991-2.3335-2.4648l-7.7396-0.2118q-2.3991-0.065651-2.4648 2.3334l-0.16851 6.1577q-0.065652 2.3991 2.3334 2.4648l7.7396 0.2118q2.3991 0.065652 2.4648-2.3334z" clip-path="url(#a)" fill="#fff" stroke="#fff"/>
<g clip-path="url(#a)">
<defs>
<path id="an" d="m19.672 64.797v-56.688h11.922q15.094 0 22.094 6.8281 7 6.8438 7 21.594 0 14.641-7 21.453t-22.094 6.8125zm-9.8594 8.1094h20.266q21.188 0 31.094-8.8125 9.9219-8.8125 9.9219-27.562 0-18.859-9.9688-27.703-9.9531-8.8281-31.047-8.8281h-20.266z"/>
</defs>
<g transform="translate(811.25 454.3) rotate(-88.432) scale(.08 -.08)">
<use xlink:href="#an"/>
</g>
</g>
<path d="m791.28 457.17 3.3655-4.3153q1.476-1.8925-0.41652-3.3685l-6.1053-4.7615q-1.8925-1.476-3.3685 0.41652l-3.3655 4.3153q-1.476 1.8925 0.41652 3.3685l6.1053 4.7615q1.8925 1.476 3.3685-0.41652z" clip-path="url(#a)" fill="#fff" stroke="#fff"/>
<g clip-path="url(#a)">
<g transform="translate(788.08 454.67) rotate(-52.049) scale(.08 -.08)">
<use xlink:href="#o"/>
</g>
</g>
<path d="m819.78 452.26 2.4461 4.1575q1.217 2.0685 3.2856 0.85151l6.6732-3.9262q2.0685-1.217 0.85151-3.2856l-2.4461-4.1575q-1.217-2.0685-3.2856-0.85151l-6.6732 3.9262q-2.0685 1.217-0.85151 3.2856z" clip-path="url(#a)" fill="#fff" stroke="#fff"/>
<g clip-path="url(#a)">
<g transform="translate(823.28 450.2) rotate(59.53) scale(.08 -.08)">
<use xlink:href="#u"/>
</g>
</g>
<path d="m904.4 456.39 5.6333 1.5958q2.3091 0.65413 2.9633-1.655l2.1102-7.4494q0.65413-2.3091-1.655-2.9633l-5.6333-1.5958q-2.3091-0.65413-2.9633 1.655l-2.1102 7.4494q-0.65413 2.3091 1.655 2.9633z" clip-path="url(#a)" fill="#fff" stroke="#fff"/>
<g clip-path="url(#a)">
<g transform="translate(905.51 452.48) rotate(15.816) scale(.08 -.08)">
<use xlink:href="#ab"/>
</g>
</g>
<path d="m617.85 489.97v33.808q0 2.4 2.4 2.4h7.7425q2.4 0 2.4-2.4v-33.808q0-2.4-2.4-2.4h-7.7425q-2.4 0-2.4 2.4z" clip-path="url(#a)" fill="#fff" stroke="#fff"/>
<g clip-path="url(#a)">
<g transform="translate(621.91 489.97) rotate(90) scale(.08 -.08)">
<use xlink:href="#k"/>
<use x="44.083984" xlink:href="#f"/>
<use x="105.607422" xlink:href="#j"/>
<use x="144.970703" xlink:href="#l"/>
<use x="242.382812" xlink:href="#i"/>
<use x="270.166016" xlink:href="#d"/>
<use x="333.544922" xlink:href="#g"/>
<use x="394.824219" xlink:href="#h"/>
</g>
</g>
<path d="m738.27 519.85 30.472-14.643q2.1632-1.0395 1.1237-3.2027l-3.3536-6.9785q-1.0395-2.1632-3.2027-1.1237l-30.472 14.643q-2.1632 1.0395-1.1237 3.2027l3.3536 6.9785q1.0395 2.1632 3.2027 1.1237z" clip-path="url(#a)" fill="#fff" stroke="#fff"/>
<g clip-path="url(#a)">
<g transform="translate(736.51 516.19) rotate(-25.667) scale(.08 -.08)">
<use xlink:href="#k"/>
<use x="44.083984" xlink:href="#f"/>
<use x="105.607422" xlink:href="#j"/>
<use x="144.970703" xlink:href="#l"/>
<use x="242.382812" xlink:href="#i"/>
<use x="270.166016" xlink:href="#d"/>
<use x="333.544922" xlink:href="#g"/>
<use x="394.824219" xlink:href="#h"/>
</g>
</g>
<path d="m847.99 505.21 30.472 14.643q2.1632 1.0395 3.2027-1.1237l3.3536-6.9785q1.0395-2.1632-1.1237-3.2027l-30.472-14.643q-2.1632-1.0395-3.2027 1.1237l-3.3536 6.9785q-1.0395 2.1632 1.1237 3.2027z" clip-path="url(#a)" fill="#fff" stroke="#fff"/>
<g clip-path="url(#a)">
<g transform="translate(849.75 501.55) rotate(25.667) scale(.08 -.08)">
<use xlink:href="#k"/>
<use x="44.083984" xlink:href="#f"/>
<use x="105.607422" xlink:href="#j"/>
<use x="144.970703" xlink:href="#l"/>
<use x="242.382812" xlink:href="#i"/>
<use x="270.166016" xlink:href="#d"/>
<use x="333.544922" xlink:href="#g"/>
<use x="394.824219" xlink:href="#h"/>
</g>
</g>
<path d="m759.87 489.97v33.808q0 2.4 2.4 2.4h7.7425q2.4 0 2.4-2.4v-33.808q0-2.4-2.4-2.4h-7.7425q-2.4 0-2.4 2.4z" clip-path="url(#a)" fill="#fff" stroke="#fff"/>
<g clip-path="url(#a)">
<g transform="translate(763.93 489.97) rotate(90) scale(.08 -.08)">
<use xlink:href="#k"/>
<use x="44.083984" xlink:href="#f"/>
<use x="105.607422" xlink:href="#j"/>
<use x="144.970703" xlink:href="#l"/>
<use x="242.382812" xlink:href="#i"/>
<use x="270.166016" xlink:href="#d"/>
<use x="333.544922" xlink:href="#g"/>
<use x="394.824219" xlink:href="#h"/>
</g>
</g>
<path d="m836.64 489.97v33.808q0 2.4 2.4 2.4h7.7425q2.4 0 2.4-2.4v-33.808q0-2.4-2.4-2.4h-7.7425q-2.4 0-2.4 2.4z" clip-path="url(#a)" fill="#fff" stroke="#fff"/>
<g clip-path="url(#a)">
<g transform="translate(840.7 489.97) rotate(90) scale(.08 -.08)">
<use xlink:href="#k"/>
<use x="44.083984" xlink:href="#f"/>
<use x="105.607422" xlink:href="#j"/>
<use x="144.970703" xlink:href="#l"/>
<use x="242.382812" xlink:href="#i"/>
<use x="270.166016" xlink:href="#d"/>
<use x="333.544922" xlink:href="#g"/>
<use x="394.824219" xlink:href="#h"/>
</g>
</g>
<path d="m68.961 489.97v33.808q0 2.4 2.4 2.4h7.7425q2.4 0 2.4-2.4v-33.808q0-2.4-2.4-2.4h-7.7425q-2.4 0-2.4 2.4z" clip-path="url(#a)" fill="#fff" stroke="#fff"/>
<g clip-path="url(#a)">
<g transform="translate(73.025 489.97) rotate(90) scale(.08 -.08)">
<use xlink:href="#k"/>
<use x="44.083984" xlink:href="#f"/>
<use x="105.607422" xlink:href="#j"/>
<use x="144.970703" xlink:href="#l"/>
<use x="242.382812" xlink:href="#i"/>
<use x="270.166016" xlink:href="#d"/>
<use x="333.544922" xlink:href="#g"/>
<use x="394.824219" xlink:href="#h"/>
</g>
</g>
<path d="m88.153 489.97v33.808q0 2.4 2.4 2.4h7.7425q2.4 0 2.4-2.4v-33.808q0-2.4-2.4-2.4h-7.7425q-2.4 0-2.4 2.4z" clip-path="url(#a)" fill="#fff" stroke="#fff"/>
<g clip-path="url(#a)">
<g transform="translate(92.217 489.97) rotate(90) scale(.08 -.08)">
<use xlink:href="#k"/>
<use x="44.083984" xlink:href="#f"/>
<use x="105.607422" xlink:href="#j"/>
<use x="144.970703" xlink:href="#l"/>
<use x="242.382812" xlink:href="#i"/>
<use x="270.166016" xlink:href="#d"/>
<use x="333.544922" xlink:href="#g"/>
<use x="394.824219" xlink:href="#h"/>
</g>
</g>
<path d="m151.27 370.27 1.2309-4.9029q0.58439-2.3278-1.7434-2.9122l-7.5095-1.8853q-2.3278-0.58439-2.9122 1.7434l-1.2309 4.9029q-0.58439 2.3278 1.7434 2.9122l7.5095 1.8853q2.3278 0.58439 2.9122-1.7434z" clip-path="url(#a)" fill="#fff" stroke="#fff"/>
<g clip-path="url(#a)">
<defs>
<path id="w" d="m9.8125 72.906h46.094v-8.3125h-36.234v-21.578h34.719v-8.2969h-34.719v-26.422h37.109v-8.2969h-46.969z"/>
</defs>
<g transform="translate(147.33 369.28) rotate(-75.907) scale(.08 -.08)">
<use xlink:href="#w"/>
</g>
</g>
<path d="m165.12 369.62 0.6619-5.0115q0.31426-2.3793-2.0651-2.6936l-7.6758-1.0138q-2.3793-0.31426-2.6936 2.0651l-0.6619 5.0115q-0.31426 2.3793 2.0651 2.6936l7.6758 1.0138q2.3793 0.31426 2.6936-2.0651z" clip-path="url(#a)" fill="#fff" stroke="#fff"/>
<g clip-path="url(#a)">
<g transform="translate(161.09 369.09) rotate(-82.476) scale(.08 -.08)">
<use xlink:href="#w"/>
</g>
</g>
<path d="m168.31 363.52 0.021758 5.5862q0.009348 2.4 2.4093 2.3906l7.7424-0.030157q2.4-0.009348 2.3906-2.4093l-0.021759-5.5862q-0.009348-2.4-2.4093-2.3906l-7.7424 0.030157q-2.4 0.009348-2.3906 2.4093z" clip-path="url(#a)" fill="#fff" stroke="#fff"/>
<g clip-path="url(#a)">
<defs>
<path id="x" d="m64.406 67.281v-10.391q-4.9844 4.6406-10.625 6.9219-5.6406 2.2969-11.984 2.2969-12.5 0-19.141-7.6406t-6.6406-22.094q0-14.406 6.6406-22.047t19.141-7.6406q6.3438 0 11.984 2.2969t10.625 6.9375v-10.312q-5.1719-3.5156-10.969-5.2812-5.7812-1.75-12.219-1.75-16.562 0-26.094 10.125-9.5156 10.141-9.5156 27.672 0 17.578 9.5156 27.703 9.5312 10.141 26.094 10.141 6.5312 0 12.312-1.7344 5.7969-1.7344 10.875-5.2031z"/>
</defs>
<g transform="translate(172.37 363.51) rotate(89.777) scale(.08 -.08)">
<use xlink:href="#x"/>
</g>
</g>
<path d="m211.4 285.57 4.2142 2.7917q2.0008 1.3254 3.3262-0.67535l4.2759-6.4547q1.3254-2.0008-0.67535-3.3262l-4.2142-2.7917q-2.0008-1.3254-3.3262 0.67535l-4.2759 6.4547q-1.3254 2.0008 0.67535 3.3262z" clip-path="url(#a)" fill="#fff" stroke="#fff"/>
<g clip-path="url(#a)">
<g transform="translate(213.65 282.19) rotate(33.523) scale(.08 -.08)">
<use xlink:href="#w"/>
</g>
</g>
<path d="m111.18 489.97v33.808q0 2.4 2.4 2.4h7.7425q2.4 0 2.4-2.4v-33.808q0-2.4-2.4-2.4h-7.7425q-2.4 0-2.4 2.4z" clip-path="url(#a)" fill="#fff" stroke="#fff"/>
<g clip-path="url(#a)">
<g transform="translate(115.25 489.97) rotate(90) scale(.08 -.08)">
<use xlink:href="#k"/>
<use x="44.083984" xlink:href="#f"/>
<use x="105.607422" xlink:href="#j"/>
<use x="144.970703" xlink:href="#l"/>
<use x="242.382812" xlink:href="#i"/>
<use x="270.166016" xlink:href="#d"/>
<use x="333.544922" xlink:href="#g"/>
<use x="394.824219" xlink:href="#h"/>
</g>
</g>
<path d="m138.05 489.97v33.808q0 2.4 2.4 2.4h7.7425q2.4 0 2.4-2.4v-33.808q0-2.4-2.4-2.4h-7.7425q-2.4 0-2.4 2.4z" clip-path="url(#a)" fill="#fff" stroke="#fff"/>
<g clip-path="url(#a)">
<g transform="translate(142.12 489.97) rotate(90) scale(.08 -.08)">
<use xlink:href="#k"/>
<use x="44.083984" xlink:href="#f"/>
<use x="105.607422" xlink:href="#j"/>
<use x="144.970703" xlink:href="#l"/>
<use x="242.382812" xlink:href="#i"/>
<use x="270.166016" xlink:href="#d"/>
<use x="333.544922" xlink:href="#g"/>
<use x="394.824219" xlink:href="#h"/>
</g>
</g>
<path d="m168.76 489.97v33.808q0 2.4 2.4 2.4h7.7425q2.4 0 2.4-2.4v-33.808q0-2.4-2.4-2.4h-7.7425q-2.4 0-2.4 2.4z" clip-path="url(#a)" fill="#fff" stroke="#fff"/>
<g clip-path="url(#a)">
<g transform="translate(172.82 489.97) rotate(90) scale(.08 -.08)">
<use xlink:href="#k"/>
<use x="44.083984" xlink:href="#f"/>
<use x="105.607422" xlink:href="#j"/>
<use x="144.970703" xlink:href="#l"/>
<use x="242.382812" xlink:href="#i"/>
<use x="270.166016" xlink:href="#d"/>
<use x="333.544922" xlink:href="#g"/>
<use x="394.824219" xlink:href="#h"/>
</g>
</g>
<path d="m239.91 399.11 1.5825-5.3287q0.68326-2.3007-1.6174-2.9839l-7.4221-2.2042q-2.3007-0.68326-2.9839 1.6174l-1.5825 5.3287q-0.68326 2.3007 1.6174 2.9839l7.4221 2.2042q2.3007 0.68326 2.9839-1.6174z" clip-path="url(#a)" fill="#fff" stroke="#fff"/>
<g clip-path="url(#a)">
<defs>
<path id="y" d="m44.391 34.188q3.1719-1.0781 6.1719-4.5938t6.0312-9.6719l10.016-19.922h-10.609l-9.3125 18.703q-3.625 7.3281-7.0156 9.7188t-9.25 2.3906h-10.75v-30.812h-9.8594v72.906h22.266q12.5 0 18.656-5.2344 6.1562-5.2188 6.1562-15.766 0-6.8906-3.2031-11.438-3.2031-4.5312-9.2969-6.2812zm-24.719 30.609v-25.875h12.406q7.125 0 10.766 3.2969t3.6406 9.6875-3.6406 9.6406-10.766 3.25z"/>
</defs>
<g transform="translate(236.01 397.95) rotate(-73.46) scale(.08 -.08)">
<use xlink:href="#y"/>
</g>
</g>
<path d="m259.94 397.88 0.39002-5.5726q0.16756-2.3941-2.2266-2.5617l-7.7236-0.54056q-2.3941-0.16756-2.5617 2.2266l-0.39002 5.5726q-0.16756 2.3941 2.2266 2.5617l7.7236 0.54056q2.3941 0.16756 2.5617-2.2266z" clip-path="url(#a)" fill="#fff" stroke="#fff"/>
<g clip-path="url(#a)">
<g transform="translate(255.88 397.6) rotate(-85.996) scale(.08 -.08)">
<use xlink:href="#x"/>
</g>
</g>
<path d="m284.73 341.34 3.735 3.4063q1.7733 1.6172 3.3905-0.15607l5.2172-5.7207q1.6172-1.7733-0.15607-3.3905l-3.735-3.4063q-1.7733-1.6172-3.3905 0.15607l-5.2172 5.7207q-1.6172 1.7733 0.15607 3.3905z" clip-path="url(#a)" fill="#fff" stroke="#fff"/>
<g clip-path="url(#a)">
<g transform="translate(287.47 338.33) rotate(42.364) scale(.08 -.08)">
<use xlink:href="#w"/>
</g>
</g>
<path d="m203.3 489.97v33.808q0 2.4 2.4 2.4h7.7425q2.4 0 2.4-2.4v-33.808q0-2.4-2.4-2.4h-7.7425q-2.4 0-2.4 2.4z" clip-path="url(#a)" fill="#fff" stroke="#fff"/>
<g clip-path="url(#a)">
<g transform="translate(207.37 489.97) rotate(90) scale(.08 -.08)">
<use xlink:href="#k"/>
<use x="44.083984" xlink:href="#f"/>
<use x="105.607422" xlink:href="#j"/>
<use x="144.970703" xlink:href="#l"/>
<use x="242.382812" xlink:href="#i"/>
<use x="270.166016" xlink:href="#d"/>
<use x="333.544922" xlink:href="#g"/>
<use x="394.824219" xlink:href="#h"/>
</g>
</g>
<path d="m241.69 489.97v33.808q0 2.4 2.4 2.4h7.7425q2.4 0 2.4-2.4v-33.808q0-2.4-2.4-2.4h-7.7425q-2.4 0-2.4 2.4z" clip-path="url(#a)" fill="#fff" stroke="#fff"/>
<g clip-path="url(#a)">
<g transform="translate(245.75 489.97) rotate(90) scale(.08 -.08)">
<use xlink:href="#k"/>
<use x="44.083984" xlink:href="#f"/>
<use x="105.607422" xlink:href="#j"/>
<use x="144.970703" xlink:href="#l"/>
<use x="242.382812" xlink:href="#i"/>
<use x="270.166016" xlink:href="#d"/>
<use x="333.544922" xlink:href="#g"/>
<use x="394.824219" xlink:href="#h"/>
</g>
</g>
<path d="m288.64 428.69 3.0041-4.5742q1.3175-2.0061-0.68857-3.3235l-6.4716-4.2502q-2.0061-1.3175-3.3235 0.68857l-3.0041 4.5742q-1.3175 2.0061 0.68857 3.3235l6.4716 4.2502q2.0061 1.3175 3.3235-0.68857z" clip-path="url(#a)" fill="#fff" stroke="#fff"/>
<g clip-path="url(#a)">
<g transform="translate(285.25 426.45) rotate(-56.705) scale(.08 -.08)">
<use xlink:href="#o"/>
</g>
</g>
<path d="m311.3 427.33 1.5061-5.3508q0.65025-2.3102-1.66-2.9605l-7.4529-2.0977q-2.3102-0.65025-2.9605 1.66l-1.5061 5.3508q-0.65025 2.3102 1.66 2.9605l7.4529 2.0977q2.3102 0.65025 2.9605-1.66z" clip-path="url(#a)" fill="#fff" stroke="#fff"/>
<g clip-path="url(#a)">
<g transform="translate(307.39 426.23) rotate(-74.28) scale(.08 -.08)">
<use xlink:href="#y"/>
</g>
</g>
<path d="m322.52 421.36 0.61216 4.7848q0.30457 2.3806 2.6852 2.076l7.6799-0.98256q2.3806-0.30457 2.076-2.6852l-0.61216-4.7848q-0.30457-2.3806-2.6852-2.076l-7.6799 0.98256q-2.3806 0.30457-2.076 2.6852z" clip-path="url(#a)" fill="#fff" stroke="#fff"/>
<g clip-path="url(#a)">
<g transform="translate(326.55 420.84) rotate(82.709) scale(.08 -.08)">
<use xlink:href="#u"/>
</g>
</g>
<path d="m361.8 398.8 4.6538 2.8793q2.041 1.2627 3.3037-0.77825l4.0736-6.5842q1.2627-2.041-0.77825-3.3037l-4.6538-2.8793q-2.041-1.2627-3.3037 0.77825l-4.0736 6.5842q-1.2627 2.041 0.77825 3.3037z" clip-path="url(#a)" fill="#fff" stroke="#fff"/>
<g clip-path="url(#a)">
<g transform="translate(363.94 395.34) rotate(31.744) scale(.08 -.08)">
<use xlink:href="#o"/>
</g>
</g>
<path d="m283.91 489.97v33.808q0 2.4 2.4 2.4h7.7425q2.4 0 2.4-2.4v-33.808q0-2.4-2.4-2.4h-7.7425q-2.4 0-2.4 2.4z" clip-path="url(#a)" fill="#fff" stroke="#fff"/>
<g clip-path="url(#a)">
<g transform="translate(287.97 489.97) rotate(90) scale(.08 -.08)">
<use xlink:href="#k"/>
<use x="44.083984" xlink:href="#f"/>
<use x="105.607422" xlink:href="#j"/>
<use x="144.970703" xlink:href="#l"/>
<use x="242.382812" xlink:href="#i"/>
<use x="270.166016" xlink:href="#d"/>
<use x="333.544922" xlink:href="#g"/>
<use x="394.824219" xlink:href="#h"/>
</g>
</g>
<path d="m329.97 489.97v33.808q0 2.4 2.4 2.4h7.7425q2.4 0 2.4-2.4v-33.808q0-2.4-2.4-2.4h-7.7425q-2.4 0-2.4 2.4z" clip-path="url(#a)" fill="#fff" stroke="#fff"/>
<g clip-path="url(#a)">
<g transform="translate(334.03 489.97) rotate(90) scale(.08 -.08)">
<use xlink:href="#k"/>
<use x="44.083984" xlink:href="#f"/>
<use x="105.607422" xlink:href="#j"/>
<use x="144.970703" xlink:href="#l"/>
<use x="242.382812" xlink:href="#i"/>
<use x="270.166016" xlink:href="#d"/>
<use x="333.544922" xlink:href="#g"/>
<use x="394.824219" xlink:href="#h"/>
</g>
</g>
<path d="m404.14 456.14 2.1833-4.5592q1.0366-2.1646-1.128-3.2012l-6.9831-3.3441q-2.1646-1.0366-3.2012 1.128l-2.1833 4.5592q-1.0366 2.1646 1.128 3.2012l6.9831 3.3441q2.1646 1.0366 3.2012-1.128z" clip-path="url(#a)" fill="#fff" stroke="#fff"/>
<g clip-path="url(#a)">
<g transform="translate(400.48 454.39) rotate(-64.411) scale(.08 -.08)">
<use xlink:href="#w"/>
</g>
</g>
<path d="m419.58 451.35 2.4128 5.0383q1.0366 2.1646 3.2012 1.128l6.9831-3.3441q2.1646-1.0366 1.128-3.2012l-2.4128-5.0383q-1.0366-2.1646-3.2012-1.128l-6.9831 3.3441q-2.1646 1.0366-1.128 3.2012z" clip-path="url(#a)" fill="#fff" stroke="#fff"/>
<g clip-path="url(#a)">
<g transform="translate(423.25 449.59) rotate(64.411) scale(.08 -.08)">
<use xlink:href="#x"/>
</g>
</g>
<path d="m379.87 489.97v33.808q0 2.4 2.4 2.4h7.7425q2.4 0 2.4-2.4v-33.808q0-2.4-2.4-2.4h-7.7425q-2.4 0-2.4 2.4z" clip-path="url(#a)" fill="#fff" stroke="#fff"/>
<g clip-path="url(#a)">
<g transform="translate(383.93 489.97) rotate(90) scale(.08 -.08)">
<use xlink:href="#k"/>
<use x="44.083984" xlink:href="#f"/>
<use x="105.607422" xlink:href="#j"/>
<use x="144.970703" xlink:href="#l"/>
<use x="242.382812" xlink:href="#i"/>
<use x="270.166016" xlink:href="#d"/>
<use x="333.544922" xlink:href="#g"/>
<use x="394.824219" xlink:href="#h"/>
</g>
</g>
<path d="m433.61 489.97v33.808q0 2.4 2.4 2.4h7.7425q2.4 0 2.4-2.4v-33.808q0-2.4-2.4-2.4h-7.7425q-2.4 0-2.4 2.4z" clip-path="url(#a)" fill="#fff" stroke="#fff"/>
<g clip-path="url(#a)">
<g transform="translate(437.67 489.97) rotate(90) scale(.08 -.08)">
<use xlink:href="#k"/>
<use x="44.083984" xlink:href="#f"/>
<use x="105.607422" xlink:href="#j"/>
<use x="144.970703" xlink:href="#l"/>
<use x="242.382812" xlink:href="#i"/>
<use x="270.166016" xlink:href="#d"/>
<use x="333.544922" xlink:href="#g"/>
<use x="394.824219" xlink:href="#h"/>
</g>
</g>
<path d="m622.08 430.97 7.4585-6.6855q1.7871-1.6019 0.18522-3.3891l-5.1678-5.7654q-1.6019-1.7871-3.3891-0.18522l-7.4585 6.6855q-1.7871 1.6019-0.18522 3.3891l5.1678 5.7654q1.6019 1.7871 3.3891 0.18522z" clip-path="url(#a)" fill="#fff" stroke="#fff"/>
<g clip-path="url(#a)">
<g transform="translate(619.37 427.94) rotate(-41.872) scale(.08 -.08)">
<use xlink:href="#r"/>
<use x="55.712891" xlink:href="#y"/>
</g>
</g>
<path d="m739.96 398.55 9.2218 4.1438q2.1891 0.98369 3.1728-1.2054l3.1734-7.0623q0.98369-2.1891-1.2054-3.1728l-9.2218-4.1438q-2.1891-0.98369-3.1728 1.2054l-3.1734 7.0623q-0.98369 2.1891 1.2054 3.1728z" clip-path="url(#a)" fill="#fff" stroke="#fff"/>
<g clip-path="url(#a)">
<g transform="translate(741.63 394.84) rotate(24.197) scale(.08 -.08)">
<use xlink:href="#r"/>
<use x="57.962891" xlink:href="#o"/>
</g>
</g>
<path d="m79.409 314.89 0.80434-9.9839q0.19273-2.3922-2.1995-2.585l-7.7175-0.62175q-2.3922-0.19273-2.585 2.1995l-0.80434 9.9839q-0.19273 2.3922 2.1995 2.585l7.7175 0.62175q2.3922 0.19273 2.585-2.1995z" clip-path="url(#a)" fill="#fff" stroke="#fff"/>
<g clip-path="url(#a)">
<g transform="translate(75.358 314.56) rotate(-85.394) scale(.08 -.08)">
<use xlink:href="#r"/>
<use x="55.712891" xlink:href="#y"/>
</g>
</g>
<path d="m93.08 166.21 4.3786 9.1126q1.0394 2.1632 3.2027 1.1238l6.9787-3.3532q2.1632-1.0394 1.1238-3.2027l-4.3786-9.1126q-1.0394-2.1632-3.2027-1.1238l-6.9787 3.3532q-2.1632 1.0394-1.1238 3.2027z" clip-path="url(#a)" fill="#fff" stroke="#fff"/>
<g clip-path="url(#a)">
<g transform="translate(96.742 164.45) rotate(64.336) scale(.08 -.08)">
<use xlink:href="#r"/>
<use x="57.962891" xlink:href="#o"/>
</g>
</g>
<path d="m42.092 489.97v33.808q0 2.4 2.4 2.4h7.7425q2.4 0 2.4-2.4v-33.808q0-2.4-2.4-2.4h-7.7425q-2.4 0-2.4 2.4z" clip-path="url(#a)" fill="#fff" stroke="#fff"/>
<g clip-path="url(#a)">
<g transform="translate(46.156 489.97) rotate(90) scale(.08 -.08)">
<use xlink:href="#k"/>
<use x="44.083984" xlink:href="#f"/>
<use x="105.607422" xlink:href="#j"/>
<use x="144.970703" xlink:href="#l"/>
<use x="242.382812" xlink:href="#i"/>
<use x="270.166016" xlink:href="#d"/>
<use x="333.544922" xlink:href="#g"/>
<use x="394.824219" xlink:href="#h"/>
</g>
</g>
<path d="m491.18 489.97v33.808q0 2.4 2.4 2.4h7.7425q2.4 0 2.4-2.4v-33.808q0-2.4-2.4-2.4h-7.7425q-2.4 0-2.4 2.4z" clip-path="url(#a)" fill="#fff" stroke="#fff"/>
<g clip-path="url(#a)">
<g transform="translate(495.25 489.97) rotate(90) scale(.08 -.08)">
<use xlink:href="#k"/>
<use x="44.083984" xlink:href="#f"/>
<use x="105.607422" xlink:href="#j"/>
<use x="144.970703" xlink:href="#l"/>
<use x="242.382812" xlink:href="#i"/>
<use x="270.166016" xlink:href="#d"/>
<use x="333.544922" xlink:href="#g"/>
<use x="394.824219" xlink:href="#h"/>
</g>
</g>
<path d="m1001.7 489.97v33.808q0 2.4 2.4 2.4h7.7425q2.4 0 2.4-2.4v-33.808q0-2.4-2.4-2.4h-7.7425q-2.4 0-2.4 2.4z" clip-path="url(#a)" fill="#fff" stroke="#fff"/>
<g clip-path="url(#a)">
<g transform="translate(1005.8 489.97) rotate(90) scale(.08 -.08)">
<use xlink:href="#k"/>
<use x="44.083984" xlink:href="#f"/>
<use x="105.607422" xlink:href="#j"/>
<use x="144.970703" xlink:href="#l"/>
<use x="242.382812" xlink:href="#i"/>
<use x="270.166016" xlink:href="#d"/>
<use x="333.544922" xlink:href="#g"/>
<use x="394.824219" xlink:href="#h"/>
</g>
</g>
<defs>
<path id="b" d="m0 8.6603c2.2967 0 4.4997-0.9125 6.1237-2.5365 1.624-1.624 2.5365-3.827 2.5365-6.1237s-0.9125-4.4997-2.5365-6.1237c-1.624-1.624-3.827-2.5365-6.1237-2.5365s-4.4997 0.9125-6.1237 2.5365c-1.624 1.624-2.5365 3.827-2.5365 6.1237s0.9125 4.4997 2.5365 6.1237c1.624 1.624 3.827 2.5365 6.1237 2.5365z"/>
</defs>
<g clip-path="url(#a)">
<use x="48.363636" y="534.545455" fill="#ffffff" stroke="#ffffff" xlink:href="#b"/>
</g>
<g clip-path="url(#a)">
<use x="59.878788" y="534.545455" fill="#ffffff" stroke="#ffffff" xlink:href="#b"/>
</g>
<g clip-path="url(#a)">
<use x="75.232323" y="534.545455" fill="#ffffff" stroke="#ffffff" xlink:href="#b"/>
</g>
<g clip-path="url(#a)">
<use x="94.424242" y="534.545455" fill="#ffffff" stroke="#ffffff" xlink:href="#b"/>
</g>
<g clip-path="url(#a)">
<use x="117.454545" y="534.545455" fill="#ffffff" stroke="#ffffff" xlink:href="#b"/>
</g>
<g clip-path="url(#a)">
<use x="144.323232" y="534.545455" fill="#ffffff" stroke="#ffffff" xlink:href="#b"/>
</g>
<g clip-path="url(#a)">
<use x="175.030303" y="534.545455" fill="#ffffff" stroke="#ffffff" xlink:href="#b"/>
</g>
<g clip-path="url(#a)">
<use x="209.575758" y="534.545455" fill="#ffffff" stroke="#ffffff" xlink:href="#b"/>
</g>
<g clip-path="url(#a)">
<use x="247.959596" y="534.545455" fill="#ffffff" stroke="#ffffff" xlink:href="#b"/>
</g>
<g clip-path="url(#a)">
<use x="290.181818" y="534.545455" fill="#ffffff" stroke="#ffffff" xlink:href="#b"/>
</g>
<g clip-path="url(#a)">
<use x="336.242424" y="534.545455" fill="#ffffff" stroke="#ffffff" xlink:href="#b"/>
</g>
<g clip-path="url(#a)">
<use x="386.141414" y="534.545455" fill="#ffffff" stroke="#ffffff" xlink:href="#b"/>
</g>
<g clip-path="url(#a)">
<use x="439.878788" y="534.545455" fill="#ffffff" stroke="#ffffff" xlink:href="#b"/>
</g>
<g clip-path="url(#a)">
<use x="497.454545" y="534.545455" fill="#ffffff" stroke="#ffffff" xlink:href="#b"/>
</g>
<g clip-path="url(#a)">
<use x="558.868687" y="534.545455" fill="#ffffff" stroke="#ffffff" xlink:href="#b"/>
</g>
<g clip-path="url(#a)">
<use x="624.121212" y="534.545455" fill="#ffffff" stroke="#ffffff" xlink:href="#b"/>
</g>
<g clip-path="url(#a)">
<use x="693.212121" y="534.545455" fill="#ffffff" stroke="#ffffff" xlink:href="#b"/>
</g>
<g clip-path="url(#a)">
<use x="766.141414" y="534.545455" fill="#ffffff" stroke="#ffffff" xlink:href="#b"/>
</g>
<g clip-path="url(#a)">
<use x="842.909091" y="534.545455" fill="#ffffff" stroke="#ffffff" xlink:href="#b"/>
</g>
<g clip-path="url(#a)">
<use x="923.515152" y="534.545455" fill="#ffffff" stroke="#ffffff" xlink:href="#b"/>
</g>
<g clip-path="url(#a)">
<use x="1007.959596" y="534.545455" fill="#ffffff" stroke="#ffffff" xlink:href="#b"/>
</g>
<g clip-path="url(#a)">
<use x="1015.636364" y="139.579713" fill="#ffffff" stroke="#ffffff" xlink:href="#b"/>
</g>
<g clip-path="url(#a)">
<use x="1015.636364" y="139.579713" fill="#ffffff" stroke="#ffffff" xlink:href="#b"/>
</g>
<g clip-path="url(#a)">
<use x="348.177843" y="25.454545" fill="#ffffff" stroke="#ffffff" xlink:href="#b"/>
</g>
<g clip-path="url(#a)">
<use x="348.177843" y="82.552886" fill="#ffffff" stroke="#ffffff" xlink:href="#b"/>
</g>
<g clip-path="url(#a)">
<use x="348.177843" y="139.579713" fill="#ffffff" stroke="#ffffff" xlink:href="#b"/>
</g>
<g clip-path="url(#a)">
<use x="59.878788" y="479.209118" fill="#ffffff" stroke="#ffffff" xlink:href="#b"/>
</g>
<g clip-path="url(#a)">
<use x="114.602413" y="196.524853" fill="#ffffff" stroke="#ffffff" xlink:href="#b"/>
</g>
<g clip-path="url(#a)">
<use x="558.868687" y="479.209118" fill="#ffffff" stroke="#ffffff" xlink:href="#b"/>
</g>
<g clip-path="url(#a)">
<use x="809.89899" y="423.102991" fill="#ffffff" stroke="#ffffff" xlink:href="#b"/>
</g>
<g clip-path="url(#a)">
<use x="624.121212" y="479.209118" fill="#ffffff" stroke="#ffffff" xlink:href="#b"/>
</g>
<g clip-path="url(#a)">
<use x="808.363636" y="479.209118" fill="#ffffff" stroke="#ffffff" xlink:href="#b"/>
</g>
<g clip-path="url(#a)">
<use x="766.141414" y="479.209118" fill="#ffffff" stroke="#ffffff" xlink:href="#b"/>
</g>
<g clip-path="url(#a)">
<use x="842.909091" y="479.209118" fill="#ffffff" stroke="#ffffff" xlink:href="#b"/>
</g>
<g clip-path="url(#a)">
<use x="75.232323" y="479.209118" fill="#ffffff" stroke="#ffffff" xlink:href="#b"/>
</g>
<g clip-path="url(#a)">
<use x="94.424242" y="479.209118" fill="#ffffff" stroke="#ffffff" xlink:href="#b"/>
</g>
<g clip-path="url(#a)">
<use x="174.150673" y="253.374722" fill="#ffffff" stroke="#ffffff" xlink:href="#b"/>
</g>
<g clip-path="url(#a)">
<use x="117.454545" y="479.209118" fill="#ffffff" stroke="#ffffff" xlink:href="#b"/>
</g>
<g clip-path="url(#a)">
<use x="144.323232" y="479.209118" fill="#ffffff" stroke="#ffffff" xlink:href="#b"/>
</g>
<g clip-path="url(#a)">
<use x="175.030303" y="479.209118" fill="#ffffff" stroke="#ffffff" xlink:href="#b"/>
</g>
<g clip-path="url(#a)">
<use x="259.794613" y="310.110241" fill="#ffffff" stroke="#ffffff" xlink:href="#b"/>
</g>
<g clip-path="url(#a)">
<use x="209.575758" y="479.209118" fill="#ffffff" stroke="#ffffff" xlink:href="#b"/>
</g>
<g clip-path="url(#a)">
<use x="247.959596" y="479.209118" fill="#ffffff" stroke="#ffffff" xlink:href="#b"/>
</g>
<g clip-path="url(#a)">
<use x="321.848485" y="366.702593" fill="#ffffff" stroke="#ffffff" xlink:href="#b"/>
</g>
<g clip-path="url(#a)">
<use x="290.181818" y="479.209118" fill="#ffffff" stroke="#ffffff" xlink:href="#b"/>
</g>
<g clip-path="url(#a)">
<use x="336.242424" y="479.209118" fill="#ffffff" stroke="#ffffff" xlink:href="#b"/>
</g>
<g clip-path="url(#a)">
<use x="413.010101" y="423.102991" fill="#ffffff" stroke="#ffffff" xlink:href="#b"/>
</g>
<g clip-path="url(#a)">
<use x="386.141414" y="479.209118" fill="#ffffff" stroke="#ffffff" xlink:href="#b"/>
</g>
<g clip-path="url(#a)">
<use x="439.878788" y="479.209118" fill="#ffffff" stroke="#ffffff" xlink:href="#b"/>
</g>
<g clip-path="url(#a)">
<use x="684.383838" y="366.702593" fill="#808080" stroke="#808080" xlink:href="#b"/>
</g>
<g clip-path="url(#a)">
<use x="87.2406" y="139.579713" fill="#808080" stroke="#808080" xlink:href="#b"/>
</g>
<g clip-path="url(#a)">
<use x="48.363636" y="479.209118" fill="#ffffff" stroke="#ffffff" xlink:href="#b"/>
</g>
<g clip-path="url(#a)">
<use x="497.454545" y="479.209118" fill="#ffffff" stroke="#ffffff" xlink:href="#b"/>
</g>
<g clip-path="url(#a)">
<use x="1007.959596" y="479.209118" fill="#ffffff" stroke="#ffffff" xlink:href="#b"/>
</g>
<g clip-path="url(#a)">
<defs>
<path id="as" d="m51.812 51.703v-9.3125l-14.703-13.094 14.703-13.078v-9.3281l-22.906 20.406v4zm-21.203 0v-9.3125l-14.688-13.094 14.688-13.078v-9.3281l-22.891 20.406v4z"/>
</defs>
<g transform="translate(45.304 537.3) scale(.1 -.1)">
<use xlink:href="#as"/>
</g>
</g>
<g clip-path="url(#a)">
<defs>
<path id="am" d="m39.406 66.219q-10.75 0-17.078-8.0156-6.3125-8-6.3125-21.828 0-13.766 6.3125-21.781 6.3281-8 17.078-8 10.734 0 17.016 8 6.2812 8.0156 6.2812 21.781 0 13.828-6.2812 21.828-6.2812 8.0156-17.016 8.0156zm0 8q15.328 0 24.5-10.281 9.1875-10.281 9.1875-27.562 0-17.234-9.1875-27.516-9.1719-10.281-24.5-10.281-15.375 0-24.594 10.25-9.2031 10.266-9.2031 27.547t9.2031 27.562q9.2188 10.281 24.594 10.281z"/>
<path id="s" d="m8.5 21.578v33.109h8.9844v-32.766q0-7.7656 3.0156-11.656 3.0312-3.875 9.0938-3.875 7.2656 0 11.484 4.6406 4.2344 4.6406 4.2344 12.656v31h8.9844v-54.688h-8.9844v8.4062q-3.2656-4.9844-7.5938-7.4062-4.3125-2.4219-10.031-2.4219-9.4219 0-14.312 5.8594-4.875 5.8594-4.875 17.141z"/>
</defs>
<g transform="translate(52.774 537.3) scale(.1 -.1)">
<use xlink:href="#am"/>
<use x="78.710938" xlink:href="#s"/>
</g>
</g>
<g clip-path="url(#a)">
<defs>
<path id="q" d="m30.609 48.391q-7.2188 0-11.422-5.6406t-4.2031-15.453 4.1719-15.453q4.1875-5.6406 11.453-5.6406 7.1875 0 11.375 5.6562 4.2031 5.6719 4.2031 15.438 0 9.7188-4.2031 15.406-4.1875 5.6875-11.375 5.6875zm0 7.6094q11.719 0 18.406-7.625 6.7031-7.6094 6.7031-21.078 0-13.422-6.7031-21.078-6.6875-7.6406-18.406-7.6406-11.766 0-18.438 7.6406-6.6562 7.6562-6.6562 21.078 0 13.469 6.6562 21.078 6.6719 7.625 18.438 7.625z"/>
<path id="n" d="m44.281 53.078v-8.5q-3.7969 1.9531-7.9062 2.9219-4.0938 0.98438-8.5 0.98438-6.6875 0-10.031-2.0469t-3.3438-6.1562q0-3.125 2.3906-4.9062t9.625-3.3906l3.0781-0.6875q9.5625-2.0469 13.594-5.7812t4.0312-10.422q0-7.625-6.0312-12.078-6.0312-4.4375-16.578-4.4375-4.3906 0-9.1562 0.85938t-10.031 2.5625v9.2812q4.9844-2.5938 9.8125-3.8906 4.8281-1.2812 9.5781-1.2812 6.3438 0 9.75 2.1719 3.4219 2.1719 3.4219 6.125 0 3.6562-2.4688 5.6094-2.4531 1.9531-10.812 3.7656l-3.125 0.73438q-8.3438 1.75-12.062 5.3906-3.7031 3.6406-3.7031 9.9844 0 7.7188 5.4688 11.906 5.4688 4.2031 15.531 4.2031 4.9688 0 9.3594-0.73438 4.4062-0.71875 8.1094-2.1875z"/>
</defs>
<g transform="translate(63.231 537.3) scale(.1 -.1)">
<use xlink:href="#d"/>
<use x="63.378906" xlink:href="#q"/>
<use x="124.560547" xlink:href="#s"/>
<use x="187.939453" xlink:href="#n"/>
</g>
</g>
<g clip-path="url(#a)">
<defs>
<path id="ai" d="m48.781 52.594v-8.4062q-3.8125 2.1094-7.6406 3.1562t-7.7344 1.0469q-8.75 0-13.594-5.5469-4.8281-5.5312-4.8281-15.547t4.8281-15.562q4.8438-5.5312 13.594-5.5312 3.9062 0 7.7344 1.0469t7.6406 3.1562v-8.3125q-3.7656-1.75-7.7969-2.625-4.0156-0.89062-8.5625-0.89062-12.359 0-19.641 7.7656-7.2656 7.7656-7.2656 20.953 0 13.375 7.3438 21.031 7.3594 7.6719 20.156 7.6719 4.1406 0 8.0938-0.85938 3.9531-0.84375 7.6719-2.5469z"/>
</defs>
<g transform="translate(63.783 537.3) scale(.1 -.1)">
<use xlink:href="#ai"/>
<use x="54.980469" xlink:href="#q"/>
<use x="116.162109" xlink:href="#d"/>
<use x="179.541016" xlink:href="#d"/>
<use x="242.919922" xlink:href="#g"/>
<use x="304.199219" xlink:href="#i"/>
<use x="331.982422" xlink:href="#n"/>
<use x="384.082031" xlink:href="#n"/>
<use x="436.181641" xlink:href="#q"/>
<use x="497.363281" xlink:href="#d"/>
<use x="560.742188" xlink:href="#n"/>
</g>
</g>
<g clip-path="url(#a)">
<defs>
<path id="t" d="m18.312 70.219v-15.531h18.5v-6.9844h-18.5v-29.688q0-6.6875 1.8281-8.5938t7.4531-1.9062h9.2188v-7.5156h-9.2188q-10.406 0-14.359 3.875-3.9531 3.8906-3.9531 14.141v29.688h-6.5938v6.9844h6.5938v15.531z"/>
</defs>
<g transform="translate(101.62 537.3) scale(.1 -.1)">
<use xlink:href="#t"/>
<use x="39.208984" xlink:href="#q"/>
<use x="100.390625" xlink:href="#s"/>
<use x="163.769531" xlink:href="#t"/>
<use x="202.978516" xlink:href="#f"/>
<use x="264.501953" xlink:href="#n"/>
</g>
</g>
<g clip-path="url(#a)">
<g transform="translate(137.25 537.3) scale(.1 -.1)">
<use xlink:href="#h"/>
<use x="27.783203" xlink:href="#f"/>
<use x="89.306641" xlink:href="#n"/>
</g>
</g>
<g clip-path="url(#a)">
<defs>
<path id="at" d="m2.9844 54.688h9.5156l17.094-45.891 17.094 45.891h9.5156l-20.516-54.688h-12.203z"/>
<path id="al" d="m56.203 29.594v-4.3906h-41.312q0.59375-9.2812 5.5938-14.141t13.938-4.8594q5.1719 0 10.031 1.2656t9.6562 3.8125v-8.5q-4.8438-2.0469-9.9219-3.125t-10.297-1.0781q-13.094 0-20.734 7.6094-7.6406 7.625-7.6406 20.625 0 13.422 7.25 21.297 7.25 7.8906 19.562 7.8906 11.031 0 17.453-7.1094 6.4219-7.0938 6.4219-19.297zm-8.9844 2.6406q-0.09375 7.3594-4.125 11.75-4.0312 4.4062-10.672 4.4062-7.5156 0-12.031-4.25t-5.2031-11.969zm-8.6875 47.75h9.7188l-15.906-18.359h-7.4844z"/>
</defs>
<g transform="translate(154.84 537.3) scale(.1 -.1)">
<use xlink:href="#at"/>
<use x="59.179688" xlink:href="#g"/>
<use x="120.458984" xlink:href="#j"/>
<use x="161.572266" xlink:href="#i"/>
<use x="189.355469" xlink:href="#al"/>
<use x="250.878906" xlink:href="#t"/>
<use x="290.087891" xlink:href="#al"/>
<use x="351.611328" xlink:href="#n"/>
</g>
</g>
<g clip-path="url(#a)">
<defs>
<path id="av" d="m45.406 46.391v29.594h8.9844v-75.984h-8.9844v8.2031q-2.8281-4.875-7.1562-7.25-4.3125-2.375-10.375-2.375-9.9062 0-16.141 7.9062-6.2188 7.9219-6.2188 20.812t6.2188 20.797q6.2344 7.9062 16.141 7.9062 6.0625 0 10.375-2.375 4.3281-2.3594 7.1562-7.2344zm-30.609-19.094q0-9.9062 4.0781-15.547t11.203-5.6406 11.219 5.6406q4.1094 5.6406 4.1094 15.547t-4.1094 15.547q-4.0938 5.6406-11.219 5.6406t-11.203-5.6406-4.0781-15.547z"/>
<path id="ap" d="m17.922 72.906v-27.109h-8.2969v27.109z"/>
</defs>
<g transform="translate(205.03 537.3) scale(.1 -.1)">
<use xlink:href="#av"/>
<use x="63.476562" xlink:href="#ap"/>
</g>
</g>
<g clip-path="url(#a)">
<defs>
<path id="aq" d="m56.203 29.594v-4.3906h-41.312q0.59375-9.2812 5.5938-14.141t13.938-4.8594q5.1719 0 10.031 1.2656t9.6562 3.8125v-8.5q-4.8438-2.0469-9.9219-3.125t-10.297-1.0781q-13.094 0-20.734 7.6094-7.6406 7.625-7.6406 20.625 0 13.422 7.25 21.297 7.25 7.8906 19.562 7.8906 11.031 0 17.453-7.1094 6.4219-7.0938 6.4219-19.297zm-8.9844 2.6406q-0.09375 7.3594-4.125 11.75-4.0312 4.4062-10.672 4.4062-7.5156 0-12.031-4.25t-5.2031-11.969zm-19.078 47.75h7.2188l11.969-18.359h-6.7812l-8.7969 11.953-8.7812-11.953h-6.7969z"/>
</defs>
<g transform="translate(235.3 537.3) scale(.1 -.1)">
<use xlink:href="#aq"/>
<use x="61.523438" xlink:href="#t"/>
<use x="100.732422" xlink:href="#j"/>
<use x="139.595703" xlink:href="#f"/>
<use x="201.119141" xlink:href="#n"/>
</g>
</g>
<g clip-path="url(#a)">
<defs>
<path id="au" d="m14.797 27.297q0-9.9062 4.0781-15.547t11.203-5.6406 11.219 5.6406q4.1094 5.6406 4.1094 15.547t-4.1094 15.547q-4.0938 5.6406-11.219 5.6406t-11.203-5.6406-4.0781-15.547zm30.609-19.094q-2.8281-4.875-7.1562-7.25-4.3125-2.375-10.375-2.375-9.9062 0-16.141 7.9062-6.2188 7.9219-6.2188 20.812t6.2188 20.797q6.2344 7.9062 16.141 7.9062 6.0625 0 10.375-2.375 4.3281-2.3594 7.1562-7.2344v8.2969h8.9844v-75.484h-8.9844z"/>
</defs>
<g transform="translate(282.45 537.3) scale(.1 -.1)">
<use xlink:href="#au"/>
<use x="63.476562" xlink:href="#s"/>
<use x="126.855469" xlink:href="#i"/>
</g>
</g>
<g clip-path="url(#a)">
<defs>
<path id="aa" d="m18.109 8.2031v-29h-9.0312v75.484h9.0312v-8.2969q2.8438 4.875 7.1562 7.2344 4.3281 2.375 10.328 2.375 9.9688 0 16.188-7.9062 6.2344-7.9062 6.2344-20.797t-6.2344-20.812q-6.2188-7.9062-16.188-7.9062-6 0-10.328 2.375-4.3125 2.375-7.1562 7.25zm30.578 19.094q0 9.9062-4.0781 15.547t-11.203 5.6406q-7.1406 0-11.219-5.6406t-4.0781-15.547 4.0781-15.547 11.219-5.6406q7.125 0 11.203 5.6406t4.0781 15.547z"/>
</defs>
<g transform="translate(314.05 537.3) scale(.1 -.1)">
<use xlink:href="#aa"/>
<use x="63.476562" xlink:href="#f"/>
<use x="125" xlink:href="#s"/>
<use x="188.378906" xlink:href="#aa"/>
<use x="251.855469" xlink:href="#h"/>
<use x="279.638672" xlink:href="#f"/>
<use x="341.162109" xlink:href="#d"/>
<use x="404.541016" xlink:href="#t"/>
</g>
</g>
<g clip-path="url(#a)">
<g transform="translate(372.93 537.3) scale(.1 -.1)">
<use xlink:href="#d"/>
<use x="63.378906" xlink:href="#q"/>
<use x="124.560547" xlink:href="#t"/>
<use x="163.769531" xlink:href="#j"/>
<use x="202.632812" xlink:href="#f"/>
</g>
</g>
<g clip-path="url(#a)">
<defs>
<path id="ar" d="m56.203 29.594v-4.3906h-41.312q0.59375-9.2812 5.5938-14.141t13.938-4.8594q5.1719 0 10.031 1.2656t9.6562 3.8125v-8.5q-4.8438-2.0469-9.9219-3.125t-10.297-1.0781q-13.094 0-20.734 7.6094-7.6406 7.625-7.6406 20.625 0 13.422 7.25 21.297 7.25 7.8906 19.562 7.8906 11.031 0 17.453-7.1094 6.4219-7.0938 6.4219-19.297zm-8.9844 2.6406q-0.09375 7.3594-4.125 11.75-4.0312 4.4062-10.672 4.4062-7.5156 0-12.031-4.25t-5.2031-11.969zm-22.547 47.75 13.766-18.266h-7.4688l-15.922 18.266z"/>
</defs>
<g transform="translate(420.97 537.5) scale(.1 -.1)">
<use xlink:href="#aa"/>
<use x="63.476562" xlink:href="#h"/>
<use x="91.259766" xlink:href="#g"/>
<use x="152.539062" xlink:href="#d"/>
<use x="215.917969" xlink:href="#ar"/>
<use x="277.441406" xlink:href="#t"/>
<use x="316.650391" xlink:href="#f"/>
</g>
</g>
<g clip-path="url(#a)">
<defs>
<path id="ao" d="m11.719 12.406h10.297v-8.4062l-8-15.625h-6.2969l4 15.625z"/>
</defs>
<g transform="translate(495.87 537.3) scale(.1 -.1)">
<use xlink:href="#ao"/>
</g>
</g>
<g clip-path="url(#a)">
<g transform="translate(552.64 537.3) scale(.1 -.1)">
<use xlink:href="#q"/>
<use x="61.181641" xlink:href="#s"/>
</g>
</g>
<g clip-path="url(#a)">
<g transform="translate(612.12 537.3) scale(.1 -.1)">
<use xlink:href="#d"/>
<use x="63.378906" xlink:href="#q"/>
<use x="124.560547" xlink:href="#s"/>
<use x="187.939453" xlink:href="#n"/>
</g>
</g>
<g clip-path="url(#a)">
<g transform="translate(686.97 537.3) scale(.1 -.1)">
<use xlink:href="#d"/>
<use x="63.378906" xlink:href="#f"/>
</g>
</g>
<g clip-path="url(#a)">
<g transform="translate(759.07 537.3) scale(.1 -.1)">
<use xlink:href="#h"/>
<use x="27.783203" xlink:href="#f"/>
<use x="89.306641" xlink:href="#n"/>
</g>
</g>
<g clip-path="url(#a)">
<g transform="translate(812.27 537.3) scale(.1 -.1)">
<use xlink:href="#ai"/>
<use x="54.980469" xlink:href="#q"/>
<use x="116.162109" xlink:href="#d"/>
<use x="179.541016" xlink:href="#d"/>
<use x="242.919922" xlink:href="#g"/>
<use x="304.199219" xlink:href="#i"/>
<use x="331.982422" xlink:href="#n"/>
<use x="384.082031" xlink:href="#n"/>
<use x="436.181641" xlink:href="#q"/>
<use x="497.363281" xlink:href="#d"/>
<use x="560.742188" xlink:href="#n"/>
</g>
</g>
<g clip-path="url(#a)">
<g transform="translate(914.67 537.3) scale(.1 -.1)">
<use xlink:href="#aa"/>
<use x="63.476562" xlink:href="#g"/>
<use x="124.755859" xlink:href="#n"/>
</g>
</g>
<g clip-path="url(#a)">
<defs>
<path id="e" d="m10.688 12.406h10.312v-12.406h-10.312z"/>
</defs>
<g transform="translate(1006.4 537.3) scale(.1 -.1)">
<use xlink:href="#e"/>
</g>
</g>
<g clip-path="url(#a)">
<defs>
<path id="v" d="m9.8125 72.906h9.8594v-72.906h-9.8594z"/>
<path id="aj" d="m9.8125 72.906h14.703l18.594-49.609 18.703 49.609h14.703v-72.906h-9.625v64.016l-18.797-50h-9.9062l-18.797 50v-64.016h-9.5781z"/>
</defs>
<g transform="translate(994.55 142.34) scale(.1 -.1)">
<use xlink:href="#v"/>
<use x="29.492188" xlink:href="#aj"/>
<use x="115.771484" xlink:href="#u"/>
<use x="176.074219" xlink:href="#r"/>
<use x="231.787109" xlink:href="#v"/>
<use x="261.279297" xlink:href="#x"/>
<use x="331.103516" xlink:href="#v"/>
<use x="360.595703" xlink:href="#k"/>
</g>
</g>
<g clip-path="url(#a)">
<g transform="translate(994.55 142.34) scale(.1 -.1)">
<use xlink:href="#v"/>
<use x="29.492188" xlink:href="#aj"/>
<use x="115.771484" xlink:href="#u"/>
<use x="176.074219" xlink:href="#r"/>
<use x="231.787109" xlink:href="#v"/>
<use x="261.279297" xlink:href="#x"/>
<use x="331.103516" xlink:href="#v"/>
<use x="360.595703" xlink:href="#k"/>
</g>
</g>
<g clip-path="url(#a)">
<defs>
<path id="c" d="m12.406 8.2969h16.109v55.625l-17.531-3.5156v8.9844l17.438 3.5156h9.8594v-64.609h16.109v-8.2969h-41.984z"/>
</defs>
<g transform="translate(340.23 28.214) scale(.1 -.1)">
<use xlink:href="#c"/>
<use x="63.623047" xlink:href="#e"/>
<use x="95.410156" xlink:href="#c"/>
</g>
</g>
<g clip-path="url(#a)">
<defs>
<path id="m" d="m19.188 8.2969h34.422v-8.2969h-46.281v8.2969q5.6094 5.8125 15.297 15.594 9.7031 9.7969 12.188 12.641 4.7344 5.3125 6.6094 9 1.8906 3.6875 1.8906 7.25 0 5.8125-4.0781 9.4688-4.0781 3.6719-10.625 3.6719-4.6406 0-9.7969-1.6094-5.1406-1.6094-11-4.8906v9.9688q5.9531 2.3906 11.125 3.6094 5.1875 1.2188 9.4844 1.2188 11.328 0 18.062-5.6719 6.7344-5.6562 6.7344-15.125 0-4.5-1.6875-8.5312-1.6719-4.0156-6.125-9.4844-1.2188-1.4219-7.7656-8.1875-6.5312-6.7656-18.453-18.922z"/>
</defs>
<g transform="translate(340.23 85.312) scale(.1 -.1)">
<use xlink:href="#c"/>
<use x="63.623047" xlink:href="#e"/>
<use x="95.410156" xlink:href="#m"/>
</g>
</g>
<g clip-path="url(#a)">
<defs>
<path id="z" d="m10.797 72.906h38.719v-8.3125h-29.688v-17.859q2.1406 0.73438 4.2812 1.0938 2.1562 0.35938 4.3125 0.35938 12.203 0 19.328-6.6875 7.1406-6.6875 7.1406-18.109 0-11.766-7.3281-18.297-7.3281-6.5156-20.656-6.5156-4.5938 0-9.3594 0.78125-4.75 0.78125-9.8281 2.3438v9.9219q4.3906-2.3906 9.0781-3.5625t9.9062-1.1719q8.4531 0 13.375 4.4375 4.9375 4.4375 4.9375 12.062 0 7.6094-4.9375 12.047-4.9219 4.4531-13.375 4.4531-3.9531 0-7.8906-0.875-3.9219-0.875-8.0156-2.7344z"/>
</defs>
<g transform="translate(340.23 142.34) scale(.1 -.1)">
<use xlink:href="#c"/>
<use x="63.623047" xlink:href="#e"/>
<use x="95.410156" xlink:href="#z"/>
</g>
</g>
<g clip-path="url(#a)">
<defs>
<path id="ag" d="m33.016 40.375q-6.6406 0-10.531-4.5469-3.875-4.5312-3.875-12.438 0-7.8594 3.875-12.438 3.8906-4.5625 10.531-4.5625t10.516 4.5625q3.875 4.5781 3.875 12.438 0 7.9062-3.875 12.438-3.875 4.5469-10.516 4.5469zm19.578 30.922v-8.9844q-3.7188 1.75-7.5 2.6719-3.7812 0.9375-7.5 0.9375-9.7656 0-14.922-6.5938-5.1406-6.5938-5.875-19.922 2.875 4.25 7.2188 6.5156 4.3594 2.2656 9.5781 2.2656 10.984 0 17.359-6.6719 6.375-6.6562 6.375-18.125 0-11.234-6.6406-18.031-6.6406-6.7812-17.672-6.7812-12.656 0-19.344 9.6875-6.6875 9.7031-6.6875 28.109 0 17.281 8.2031 27.562t22.016 10.281q3.7188 0 7.5-0.73438t7.8906-2.1875z"/>
</defs>
<g transform="translate(51.927 481.97) scale(.1 -.1)">
<use xlink:href="#c"/>
<use x="63.623047" xlink:href="#e"/>
<use x="95.410156" xlink:href="#ag"/>
</g>
</g>
<g clip-path="url(#a)">
<defs>
<path id="af" d="m8.2031 72.906h46.875v-4.2031l-26.469-68.703h-10.297l24.906 64.594h-35.016z"/>
</defs>
<g transform="translate(106.65 199.28) scale(.1 -.1)">
<use xlink:href="#c"/>
<use x="63.623047" xlink:href="#e"/>
<use x="95.410156" xlink:href="#af"/>
</g>
</g>
<g clip-path="url(#a)">
<defs>
<path id="ae" d="m31.781 34.625q-7.0312 0-11.062-3.7656-4.0156-3.7656-4.0156-10.344 0-6.5938 4.0156-10.359 4.0312-3.7656 11.062-3.7656t11.078 3.7812q4.0625 3.7969 4.0625 10.344 0 6.5781-4.0312 10.344-4.0156 3.7656-11.109 3.7656zm-9.8594 4.1875q-6.3438 1.5625-9.8906 5.9062-3.5312 4.3594-3.5312 10.609 0 8.7344 6.2188 13.812 6.2344 5.0781 17.062 5.0781 10.891 0 17.094-5.0781t6.2031-13.812q0-6.25-3.5469-10.609-3.5312-4.3438-9.8281-5.9062 7.125-1.6562 11.094-6.5 3.9844-4.8281 3.9844-11.797 0-10.609-6.4688-16.281-6.4688-5.6562-18.531-5.6562-12.047 0-18.531 5.6562-6.4688 5.6719-6.4688 16.281 0 6.9688 4 11.797 4.0156 4.8438 11.141 6.5zm-3.6094 15.578q0-5.6562 3.5312-8.8281 3.5469-3.1719 9.9375-3.1719 6.3594 0 9.9375 3.1719 3.5938 3.1719 3.5938 8.8281 0 5.6719-3.5938 8.8438-3.5781 3.1719-9.9375 3.1719-6.3906 0-9.9375-3.1719-3.5312-3.1719-3.5312-8.8438z"/>
</defs>
<g transform="translate(550.92 481.97) scale(.1 -.1)">
<use xlink:href="#c"/>
<use x="63.623047" xlink:href="#e"/>
<use x="95.410156" xlink:href="#ae"/>
</g>
</g>
<g clip-path="url(#a)">
<defs>
<path id="ad" d="m10.984 1.5156v8.9844q3.7188-1.7656 7.5156-2.6875 3.8125-0.92188 7.4844-0.92188 9.7656 0 14.906 6.5625 5.1562 6.5625 5.8906 19.953-2.8281-4.2031-7.1875-6.4531-4.3438-2.25-9.6094-2.25-10.938 0-17.312 6.6094-6.375 6.625-6.375 18.109 0 11.219 6.6406 18 6.6406 6.7969 17.672 6.7969 12.656 0 19.312-9.7031 6.6719-9.6875 6.6719-28.141 0-17.234-8.1875-27.516-8.1719-10.281-21.984-10.281-3.7188 0-7.5312 0.73438-3.7969 0.73438-7.9062 2.2031zm19.625 30.906q6.6406 0 10.516 4.5312 3.8906 4.5469 3.8906 12.469 0 7.8594-3.8906 12.422-3.875 4.5625-10.516 4.5625t-10.516-4.5625-3.875-12.422q0-7.9219 3.875-12.469 3.875-4.5312 10.516-4.5312z"/>
</defs>
<g transform="translate(801.95 425.86) scale(.1 -.1)">
<use xlink:href="#c"/>
<use x="63.623047" xlink:href="#e"/>
<use x="95.410156" xlink:href="#ad"/>
</g>
</g>
<g clip-path="url(#a)">
<g transform="translate(612.99 481.97) scale(.1 -.1)">
<use xlink:href="#c"/>
<use x="63.623047" xlink:href="#e"/>
<use x="95.410156" xlink:href="#c"/>
<use x="159.033203" xlink:href="#m"/>
</g>
</g>
<g clip-path="url(#a)">
<defs>
<path id="p" d="m40.578 39.312q7.0781-1.5156 11.047-6.3125 3.9844-4.7812 3.9844-11.812 0-10.781-7.4219-16.703-7.4219-5.9062-21.094-5.9062-4.5781 0-9.4375 0.90625t-10.031 2.7188v9.5156q4.0938-2.3906 8.9688-3.6094 4.8906-1.2188 10.219-1.2188 9.2656 0 14.125 3.6562t4.8594 10.641q0 6.4531-4.5156 10.078-4.5156 3.6406-12.562 3.6406h-8.5v8.1094h8.8906q7.2656 0 11.125 2.9062t3.8594 8.375q0 5.6094-3.9844 8.6094-3.9688 3.0156-11.391 3.0156-4.0625 0-8.7031-0.89062-4.6406-0.875-10.203-2.7188v8.7812q5.625 1.5625 10.531 2.3438t9.25 0.78125q11.234 0 17.766-5.1094 6.5469-5.0938 6.5469-13.781 0-6.0625-3.4688-10.234t-9.8594-5.7812z"/>
</defs>
<g transform="translate(797.23 481.97) scale(.1 -.1)">
<use xlink:href="#c"/>
<use x="63.623047" xlink:href="#e"/>
<use x="95.410156" xlink:href="#c"/>
<use x="159.033203" xlink:href="#p"/>
</g>
</g>
<g clip-path="url(#a)">
<defs>
<path id="ah" d="m37.797 64.312-24.906-38.922h24.906zm-2.5938 8.5938h12.406v-47.516h10.406v-8.2031h-10.406v-17.188h-9.8125v17.188h-32.906v9.5156z"/>
</defs>
<g transform="translate(755.01 481.97) scale(.1 -.1)">
<use xlink:href="#c"/>
<use x="63.623047" xlink:href="#e"/>
<use x="95.410156" xlink:href="#c"/>
<use x="159.033203" xlink:href="#ah"/>
</g>
</g>
<g clip-path="url(#a)">
<g transform="translate(831.78 481.97) scale(.1 -.1)">
<use xlink:href="#c"/>
<use x="63.623047" xlink:href="#e"/>
<use x="95.410156" xlink:href="#c"/>
<use x="159.033203" xlink:href="#z"/>
</g>
</g>
<g clip-path="url(#a)">
<g transform="translate(64.1 481.97) scale(.1 -.1)">
<use xlink:href="#c"/>
<use x="63.623047" xlink:href="#e"/>
<use x="95.410156" xlink:href="#c"/>
<use x="159.033203" xlink:href="#af"/>
</g>
</g>
<g clip-path="url(#a)">
<g transform="translate(83.291 481.97) scale(.1 -.1)">
<use xlink:href="#c"/>
<use x="63.623047" xlink:href="#e"/>
<use x="95.410156" xlink:href="#c"/>
<use x="159.033203" xlink:href="#ae"/>
</g>
</g>
<g clip-path="url(#a)">
<g transform="translate(163.02 256.13) scale(.1 -.1)">
<use xlink:href="#c"/>
<use x="63.623047" xlink:href="#e"/>
<use x="95.410156" xlink:href="#c"/>
<use x="159.033203" xlink:href="#ad"/>
</g>
</g>
<g clip-path="url(#a)">
<defs>
<path id="ak" d="m31.781 66.406q-7.6094 0-11.453-7.5-3.8281-7.4844-3.8281-22.531 0-14.984 3.8281-22.484 3.8438-7.5 11.453-7.5 7.6719 0 11.5 7.5 3.8438 7.5 3.8438 22.484 0 15.047-3.8438 22.531-3.8281 7.5-11.5 7.5zm0 7.8125q12.266 0 18.734-9.7031 6.4688-9.6875 6.4688-28.141 0-18.406-6.4688-28.109-6.4688-9.6875-18.734-9.6875-12.25 0-18.719 9.6875-6.4688 9.7031-6.4688 28.109 0 18.453 6.4688 28.141 6.4688 9.7031 18.719 9.7031z"/>
</defs>
<g transform="translate(106.32 481.97) scale(.1 -.1)">
<use xlink:href="#c"/>
<use x="63.623047" xlink:href="#e"/>
<use x="95.410156" xlink:href="#m"/>
<use x="159.033203" xlink:href="#ak"/>
</g>
</g>
<g clip-path="url(#a)">
<g transform="translate(133.19 481.97) scale(.1 -.1)">
<use xlink:href="#c"/>
<use x="63.623047" xlink:href="#e"/>
<use x="95.410156" xlink:href="#m"/>
<use x="159.033203" xlink:href="#c"/>
</g>
</g>
<g clip-path="url(#a)">
<g transform="translate(163.9 481.97) scale(.1 -.1)">
<use xlink:href="#c"/>
<use x="63.623047" xlink:href="#e"/>
<use x="95.410156" xlink:href="#m"/>
<use x="159.033203" xlink:href="#m"/>
</g>
</g>
<g clip-path="url(#a)">
<g transform="translate(248.66 312.87) scale(.1 -.1)">
<use xlink:href="#c"/>
<use x="63.623047" xlink:href="#e"/>
<use x="95.410156" xlink:href="#m"/>
<use x="159.033203" xlink:href="#p"/>
</g>
</g>
<g clip-path="url(#a)">
<g transform="translate(198.44 481.97) scale(.1 -.1)">
<use xlink:href="#c"/>
<use x="63.623047" xlink:href="#e"/>
<use x="95.410156" xlink:href="#m"/>
<use x="159.033203" xlink:href="#ah"/>
</g>
</g>
<g clip-path="url(#a)">
<g transform="translate(236.83 481.97) scale(.1 -.1)">
<use xlink:href="#c"/>
<use x="63.623047" xlink:href="#e"/>
<use x="95.410156" xlink:href="#m"/>
<use x="159.033203" xlink:href="#z"/>
</g>
</g>
<g clip-path="url(#a)">
<g transform="translate(310.72 369.46) scale(.1 -.1)">
<use xlink:href="#c"/>
<use x="63.623047" xlink:href="#e"/>
<use x="95.410156" xlink:href="#m"/>
<use x="159.033203" xlink:href="#ag"/>
</g>
</g>
<g clip-path="url(#a)">
<g transform="translate(279.05 481.97) scale(.1 -.1)">
<use xlink:href="#c"/>
<use x="63.623047" xlink:href="#e"/>
<use x="95.410156" xlink:href="#m"/>
<use x="159.033203" xlink:href="#af"/>
</g>
</g>
<g clip-path="url(#a)">
<g transform="translate(325.11 481.97) scale(.1 -.1)">
<use xlink:href="#c"/>
<use x="63.623047" xlink:href="#e"/>
<use x="95.410156" xlink:href="#m"/>
<use x="159.033203" xlink:href="#ae"/>
</g>
</g>
<g clip-path="url(#a)">
<g transform="translate(401.88 425.86) scale(.1 -.1)">
<use xlink:href="#c"/>
<use x="63.623047" xlink:href="#e"/>
<use x="95.410156" xlink:href="#m"/>
<use x="159.033203" xlink:href="#ad"/>
</g>
</g>
<g clip-path="url(#a)">
<g transform="translate(375.01 481.97) scale(.1 -.1)">
<use xlink:href="#c"/>
<use x="63.623047" xlink:href="#e"/>
<use x="95.410156" xlink:href="#p"/>
<use x="159.033203" xlink:href="#ak"/>
</g>
</g>
<g clip-path="url(#a)">
<g transform="translate(428.75 481.97) scale(.1 -.1)">
<use xlink:href="#c"/>
<use x="63.623047" xlink:href="#e"/>
<use x="95.410156" xlink:href="#p"/>
<use x="159.033203" xlink:href="#c"/>
</g>
</g>
<g clip-path="url(#a)">
<g transform="translate(673.25 369.46) scale(.1 -.1)">
<use xlink:href="#c"/>
<use x="63.623047" xlink:href="#e"/>
<use x="95.410156" xlink:href="#p"/>
<use x="159.033203" xlink:href="#m"/>
</g>
</g>
<g clip-path="url(#a)">
<g transform="translate(76.108 142.34) scale(.1 -.1)">
<use xlink:href="#c"/>
<use x="63.623047" xlink:href="#e"/>
<use x="95.410156" xlink:href="#p"/>
<use x="159.033203" xlink:href="#p"/>
</g>
</g>
<g clip-path="url(#a)">
<g transform="translate(37.231 481.97) scale(.1 -.1)">
<use xlink:href="#c"/>
<use x="63.623047" xlink:href="#e"/>
<use x="95.410156" xlink:href="#p"/>
<use x="159.033203" xlink:href="#ah"/>
</g>
</g>
<g clip-path="url(#a)">
<g transform="translate(486.32 481.97) scale(.1 -.1)">
<use xlink:href="#c"/>
<use x="63.623047" xlink:href="#e"/>
<use x="95.410156" xlink:href="#p"/>
<use x="159.033203" xlink:href="#z"/>
</g>
</g>
<g clip-path="url(#a)">
<g transform="translate(996.83 481.97) scale(.1 -.1)">
<use xlink:href="#c"/>
<use x="63.623047" xlink:href="#e"/>
<use x="95.410156" xlink:href="#p"/>
<use x="159.033203" xlink:href="#ag"/>
</g>
</g>
<defs>
<clipPath id="a">
<rect width="1064" height="560"/>
</clipPath>
</defs>
</svg>
