<?xml version="1.0" encoding="utf-8" standalone="no"?>
<!DOCTYPE svg PUBLIC "-//W3C//DTD SVG 1.1//EN"
  "http://www.w3.org/Graphics/SVG/1.1/DTD/svg11.dtd">
<!-- Created with matplotlib (https://matplotlib.org/) -->
<svg height="346.666667pt" version="1.1" viewBox="0 0 658.666667 346.666667" width="658.666667pt" xmlns="http://www.w3.org/2000/svg" xmlns:xlink="http://www.w3.org/1999/xlink">
 <defs>
  <style type="text/css">
*{stroke-linecap:butt;stroke-linejoin:round;}
  </style>
 </defs>
 <g id="figure_1">
  <g id="patch_1">
   <path d="M 0 346.666667 
L 658.666667 346.666667 
L 658.666667 0 
L 0 0 
z
" style="fill:#ffffff;"/>
  </g>
  <g id="axes_1">
   <g id="LineCollection_1">
    <path clip-path="url(#p9bd6d8d534)" d="M 154.961988 16.860338 
L 55.321219 207.18646 
" style="fill:none;stroke:#000000;"/>
    <path clip-path="url(#p9bd6d8d534)" d="M 154.961988 16.860338 
L 279.512949 81.663821 
" style="fill:none;stroke:#000000;"/>
    <path clip-path="url(#p9bd6d8d534)" d="M 154.961988 16.860338 
L 130.051796 268.496394 
" style="fill:none;stroke:#000000;"/>
    <path clip-path="url(#p9bd6d8d534)" d="M 55.321219 207.18646 
L 30.411027 268.496394 
" style="fill:none;stroke:#000000;"/>
    <path clip-path="url(#p9bd6d8d534)" d="M 55.321219 207.18646 
L 80.231412 268.496394 
" style="fill:none;stroke:#000000;"/>
    <path clip-path="url(#p9bd6d8d534)" d="M 279.512949 81.663821 
L 179.87218 268.496394 
" style="fill:none;stroke:#000000;"/>
    <path clip-path="url(#p9bd6d8d534)" d="M 279.512949 81.663821 
L 229.692565 268.496394 
" style="fill:none;stroke:#000000;"/>
    <path clip-path="url(#p9bd6d8d534)" d="M 279.512949 81.663821 
L 428.974102 145.023636 
" style="fill:none;stroke:#000000;"/>
    <path clip-path="url(#p9bd6d8d534)" d="M 179.87218 268.496394 
L 179.87218 329.806329 
" style="fill:none;stroke:#000000;"/>
    <path clip-path="url(#p9bd6d8d534)" d="M 229.692565 268.496394 
L 229.692565 329.806329 
" style="fill:none;stroke:#000000;"/>
    <path clip-path="url(#p9bd6d8d534)" d="M 428.974102 145.023636 
L 329.333333 207.18646 
" style="fill:none;stroke:#000000;"/>
    <path clip-path="url(#p9bd6d8d534)" d="M 428.974102 145.023636 
L 528.614871 207.18646 
" style="fill:none;stroke:#000000;"/>
    <path clip-path="url(#p9bd6d8d534)" d="M 329.333333 207.18646 
L 279.512949 268.496394 
" style="fill:none;stroke:#000000;"/>
    <path clip-path="url(#p9bd6d8d534)" d="M 329.333333 207.18646 
L 379.153718 268.496394 
" style="fill:none;stroke:#000000;"/>
    <path clip-path="url(#p9bd6d8d534)" d="M 329.333333 207.18646 
L 329.333333 268.496394 
" style="fill:none;stroke:#000000;"/>
    <path clip-path="url(#p9bd6d8d534)" d="M 528.614871 207.18646 
L 428.974102 268.496394 
" style="fill:none;stroke:#000000;"/>
    <path clip-path="url(#p9bd6d8d534)" d="M 528.614871 207.18646 
L 528.614871 268.496394 
" style="fill:none;stroke:#000000;"/>
    <path clip-path="url(#p9bd6d8d534)" d="M 528.614871 207.18646 
L 478.794486 268.496394 
" style="fill:none;stroke:#000000;"/>
    <path clip-path="url(#p9bd6d8d534)" d="M 528.614871 207.18646 
L 578.435255 268.496394 
" style="fill:none;stroke:#000000;"/>
    <path clip-path="url(#p9bd6d8d534)" d="M 528.614871 207.18646 
L 628.255639 268.496394 
" style="fill:none;stroke:#000000;"/>
    <path clip-path="url(#p9bd6d8d534)" d="M 428.974102 268.496394 
L 428.974102 329.806329 
" style="fill:none;stroke:#000000;"/>
    <path clip-path="url(#p9bd6d8d534)" d="M 528.614871 268.496394 
L 528.614871 329.806329 
" style="fill:none;stroke:#000000;"/>
    <path clip-path="url(#p9bd6d8d534)" d="M 279.512949 268.496394 
L 279.512949 329.806329 
" style="fill:none;stroke:#000000;"/>
    <path clip-path="url(#p9bd6d8d534)" d="M 379.153718 268.496394 
L 379.153718 329.806329 
" style="fill:none;stroke:#000000;"/>
    <path clip-path="url(#p9bd6d8d534)" d="M 130.051796 268.496394 
L 130.051796 329.806329 
" style="fill:none;stroke:#000000;"/>
    <path clip-path="url(#p9bd6d8d534)" d="M 30.411027 268.496394 
L 30.411027 329.806329 
" style="fill:none;stroke:#000000;"/>
    <path clip-path="url(#p9bd6d8d534)" d="M 80.231412 268.496394 
L 80.231412 329.806329 
" style="fill:none;stroke:#000000;"/>
    <path clip-path="url(#p9bd6d8d534)" d="M 167.417084 16.860338 
L 55.321219 207.18646 
" style="fill:none;stroke:#000000;"/>
    <path clip-path="url(#p9bd6d8d534)" d="M 167.417084 16.860338 
L 279.512949 81.663821 
" style="fill:none;stroke:#000000;"/>
    <path clip-path="url(#p9bd6d8d534)" d="M 329.333333 268.496394 
L 329.333333 329.806329 
" style="fill:none;stroke:#000000;"/>
    <path clip-path="url(#p9bd6d8d534)" d="M 478.794486 268.496394 
L 478.794486 329.806329 
" style="fill:none;stroke:#000000;"/>
    <path clip-path="url(#p9bd6d8d534)" d="M 578.435255 268.496394 
L 578.435255 329.806329 
" style="fill:none;stroke:#000000;"/>
    <path clip-path="url(#p9bd6d8d534)" d="M 628.255639 268.496394 
L 628.255639 329.806329 
" style="fill:none;stroke:#000000;"/>
   </g>
   <g id="text_1">
    <g id="patch_2">
     <path clip-path="url(#p9bd6d8d534)" d="M 109.663804 116.906595 
L 111.731238 112.957542 
Q 112.844383 110.831299 110.71814 109.718154 
L 103.858791 106.127104 
Q 101.732548 105.013959 100.619404 107.140202 
L 98.55197 111.089256 
Q 97.438825 113.215499 99.565068 114.328643 
L 106.424416 117.919694 
Q 108.550659 119.032838 109.663804 116.906595 
z
" style="fill:#ffffff;stroke:#ffffff;stroke-linejoin:miter;"/>
    </g>
    <g clip-path="url(#p9bd6d8d534)">
     <!-- L -->
     <defs>
      <path d="M 9.8125 72.90625 
L 19.671875 72.90625 
L 19.671875 8.296875 
L 55.171875 8.296875 
L 55.171875 0 
L 9.8125 0 
z
" id="DejaVuSans-76"/>
     </defs>
     <g transform="translate(106.063587 115.021787)rotate(-62.366751)scale(0.08 -0.08)">
      <use xlink:href="#DejaVuSans-76"/>
     </g>
    </g>
   </g>
   <g id="text_2">
    <g id="patch_3">
     <path clip-path="url(#p9bd6d8d534)" d="M 211.674375 53.436931 
L 217.011445 56.213792 
Q 219.140506 57.321536 220.24825 55.192475 
L 223.821879 48.324034 
Q 224.929623 46.194972 222.800562 45.087228 
L 217.463493 42.310367 
Q 215.334431 41.202623 214.226687 43.331684 
L 210.653058 50.200126 
Q 209.545314 52.329187 211.674375 53.436931 
z
" style="fill:#ffffff;stroke:#ffffff;stroke-linejoin:miter;"/>
    </g>
    <g clip-path="url(#p9bd6d8d534)">
     <!-- H -->
     <defs>
      <path d="M 9.8125 72.90625 
L 19.671875 72.90625 
L 19.671875 43.015625 
L 55.515625 43.015625 
L 55.515625 72.90625 
L 65.375 72.90625 
L 65.375 0 
L 55.515625 0 
L 55.515625 34.71875 
L 19.671875 34.71875 
L 19.671875 0 
L 9.8125 0 
z
" id="DejaVuSans-72"/>
     </defs>
     <g transform="translate(213.55004 49.831942)rotate(-332.512178)scale(0.08 -0.08)">
      <use xlink:href="#DejaVuSans-72"/>
     </g>
    </g>
   </g>
   <g id="text_3">
    <g id="patch_4">
     <path clip-path="url(#p9bd6d8d534)" d="M 148.459246 146.209416 
L 149.03603 140.382895 
Q 149.272458 137.994569 146.884132 137.758142 
L 139.179292 136.995417 
Q 136.790966 136.75899 136.554538 139.147316 
L 135.977754 144.973837 
Q 135.741326 147.362163 138.129653 147.59859 
L 145.834492 148.361315 
Q 148.222819 148.597742 148.459246 146.209416 
z
" style="fill:#ffffff;stroke:#ffffff;stroke-linejoin:miter;"/>
    </g>
    <g clip-path="url(#p9bd6d8d534)">
     <!-- U -->
     <defs>
      <path d="M 8.6875 72.90625 
L 18.609375 72.90625 
L 18.609375 28.609375 
Q 18.609375 16.890625 22.84375 11.734375 
Q 27.09375 6.59375 36.625 6.59375 
Q 46.09375 6.59375 50.34375 11.734375 
Q 54.59375 16.890625 54.59375 28.609375 
L 54.59375 72.90625 
L 64.5 72.90625 
L 64.5 27.390625 
Q 64.5 13.140625 57.4375 5.859375 
Q 50.390625 -1.421875 36.625 -1.421875 
Q 22.796875 -1.421875 15.734375 5.859375 
Q 8.6875 13.140625 8.6875 27.390625 
z
" id="DejaVuSans-85"/>
     </defs>
     <g transform="translate(144.415262 145.80909)rotate(-84.346542)scale(0.08 -0.08)">
      <use xlink:href="#DejaVuSans-85"/>
     </g>
    </g>
   </g>
   <g id="text_4">
    <g id="patch_5">
     <path clip-path="url(#p9bd6d8d534)" d="M 47.629925 242.776982 
L 49.722329 237.627074 
Q 50.625728 235.403593 48.402247 234.500194 
L 41.229203 231.58579 
Q 39.005722 230.682391 38.102322 232.905872 
L 36.009918 238.055779 
Q 35.106519 240.279261 37.33 241.18266 
L 44.503044 244.097064 
Q 46.726525 245.000463 47.629925 242.776982 
z
" style="fill:#ffffff;stroke:#ffffff;stroke-linejoin:miter;"/>
    </g>
    <g clip-path="url(#p9bd6d8d534)">
     <!-- R -->
     <defs>
      <path d="M 44.390625 34.1875 
Q 47.5625 33.109375 50.5625 29.59375 
Q 53.5625 26.078125 56.59375 19.921875 
L 66.609375 0 
L 56 0 
L 46.6875 18.703125 
Q 43.0625 26.03125 39.671875 28.421875 
Q 36.28125 30.8125 30.421875 30.8125 
L 19.671875 30.8125 
L 19.671875 0 
L 9.8125 0 
L 9.8125 72.90625 
L 32.078125 72.90625 
Q 44.578125 72.90625 50.734375 67.671875 
Q 56.890625 62.453125 56.890625 51.90625 
Q 56.890625 45.015625 53.6875 40.46875 
Q 50.484375 35.9375 44.390625 34.1875 
z
M 19.671875 64.796875 
L 19.671875 38.921875 
L 32.078125 38.921875 
Q 39.203125 38.921875 42.84375 42.21875 
Q 46.484375 45.515625 46.484375 51.90625 
Q 46.484375 58.296875 42.84375 61.546875 
Q 39.203125 64.796875 32.078125 64.796875 
z
" id="DejaVuSans-82"/>
     </defs>
     <g transform="translate(43.865061 241.24732)rotate(-67.88812)scale(0.08 -0.08)">
      <use xlink:href="#DejaVuSans-82"/>
     </g>
    </g>
   </g>
   <g id="text_5">
    <g id="patch_6">
     <path clip-path="url(#p9bd6d8d534)" d="M 60.914934 237.614336 
L 63.01769 242.78972 
Q 63.921089 245.013202 66.144571 244.109802 
L 73.317615 241.195399 
Q 75.541096 240.291999 74.637697 238.068518 
L 72.534941 232.893133 
Q 71.631542 230.669652 69.40806 231.573051 
L 62.235016 234.487455 
Q 60.011535 235.390854 60.914934 237.614336 
z
" style="fill:#ffffff;stroke:#ffffff;stroke-linejoin:miter;"/>
    </g>
    <g clip-path="url(#p9bd6d8d534)">
     <!-- C -->
     <defs>
      <path d="M 64.40625 67.28125 
L 64.40625 56.890625 
Q 59.421875 61.53125 53.78125 63.8125 
Q 48.140625 66.109375 41.796875 66.109375 
Q 29.296875 66.109375 22.65625 58.46875 
Q 16.015625 50.828125 16.015625 36.375 
Q 16.015625 21.96875 22.65625 14.328125 
Q 29.296875 6.6875 41.796875 6.6875 
Q 48.140625 6.6875 53.78125 8.984375 
Q 59.421875 11.28125 64.40625 15.921875 
L 64.40625 5.609375 
Q 59.234375 2.09375 53.4375 0.328125 
Q 47.65625 -1.421875 41.21875 -1.421875 
Q 24.65625 -1.421875 15.125 8.703125 
Q 5.609375 18.84375 5.609375 36.375 
Q 5.609375 53.953125 15.125 64.078125 
Q 24.65625 74.21875 41.21875 74.21875 
Q 47.75 74.21875 53.53125 72.484375 
Q 59.328125 70.75 64.40625 67.28125 
z
" id="DejaVuSans-67"/>
     </defs>
     <g transform="translate(64.679798 236.084674)rotate(-292.11188)scale(0.08 -0.08)">
      <use xlink:href="#DejaVuSans-67"/>
     </g>
    </g>
   </g>
   <g id="text_6">
    <g id="patch_7">
     <path clip-path="url(#p9bd6d8d534)" d="M 233.938447 180.445564 
L 236.513675 175.616853 
Q 237.643058 173.49919 235.525395 172.369807 
L 228.693728 168.726371 
Q 226.576066 167.596988 225.446683 169.714651 
L 222.871454 174.543362 
Q 221.742071 176.661025 223.859734 177.790408 
L 230.691401 181.433844 
Q 232.809064 182.563227 233.938447 180.445564 
z
" style="fill:#ffffff;stroke:#ffffff;stroke-linejoin:miter;"/>
    </g>
    <g clip-path="url(#p9bd6d8d534)">
     <!-- A -->
     <defs>
      <path d="M 34.1875 63.1875 
L 20.796875 26.90625 
L 47.609375 26.90625 
z
M 28.609375 72.90625 
L 39.796875 72.90625 
L 67.578125 0 
L 57.328125 0 
L 50.6875 18.703125 
L 17.828125 18.703125 
L 11.1875 0 
L 0.78125 0 
z
" id="DejaVuSans-65"/>
     </defs>
     <g transform="translate(230.352759 178.53326)rotate(-61.928294)scale(0.08 -0.08)">
      <use xlink:href="#DejaVuSans-65"/>
     </g>
    </g>
   </g>
   <g id="text_7">
    <g id="patch_8">
     <path clip-path="url(#p9bd6d8d534)" d="M 260.04084 179.026368 
L 261.283702 174.365482 
Q 261.902073 172.046513 259.583104 171.428142 
L 252.102014 169.43325 
Q 249.783045 168.814878 249.164674 171.133847 
L 247.921812 175.794733 
Q 247.30344 178.113702 249.622409 178.732073 
L 257.1035 180.726965 
Q 259.422468 181.345337 260.04084 179.026368 
z
" style="fill:#ffffff;stroke:#ffffff;stroke-linejoin:miter;"/>
    </g>
    <g clip-path="url(#p9bd6d8d534)">
     <!-- P -->
     <defs>
      <path d="M 19.671875 64.796875 
L 19.671875 37.40625 
L 32.078125 37.40625 
Q 38.96875 37.40625 42.71875 40.96875 
Q 46.484375 44.53125 46.484375 51.125 
Q 46.484375 57.671875 42.71875 61.234375 
Q 38.96875 64.796875 32.078125 64.796875 
z
M 9.8125 72.90625 
L 32.078125 72.90625 
Q 44.34375 72.90625 50.609375 67.359375 
Q 56.890625 61.8125 56.890625 51.125 
Q 56.890625 40.328125 50.609375 34.8125 
Q 44.34375 29.296875 32.078125 29.296875 
L 19.671875 29.296875 
L 19.671875 0 
L 9.8125 0 
z
" id="DejaVuSans-80"/>
     </defs>
     <g transform="translate(256.114294 177.979323)rotate(-75.069051)scale(0.08 -0.08)">
      <use xlink:href="#DejaVuSans-80"/>
     </g>
    </g>
   </g>
   <g id="text_8">
    <g id="patch_9">
     <path clip-path="url(#p9bd6d8d534)" d="M 349.276627 118.049636 
L 354.315092 120.18555 
Q 356.524743 121.122269 357.461462 118.912618 
L 360.483356 111.784191 
Q 361.420075 109.57454 359.210424 108.637822 
L 354.171959 106.501907 
Q 351.962308 105.565189 351.025589 107.77484 
L 348.003695 114.903266 
Q 347.066976 117.112917 349.276627 118.049636 
z
" style="fill:#ffffff;stroke:#ffffff;stroke-linejoin:miter;"/>
    </g>
    <g clip-path="url(#p9bd6d8d534)">
     <!-- A -->
     <g transform="translate(350.862707 114.30819)rotate(-337.026862)scale(0.08 -0.08)">
      <use xlink:href="#DejaVuSans-65"/>
     </g>
    </g>
   </g>
   <g id="text_9">
    <g id="patch_10">
     <path clip-path="url(#p9bd6d8d534)" d="M 173.60093 281.508861 
L 173.60093 316.793861 
Q 173.60093 319.193861 176.00093 319.193861 
L 183.74343 319.193861 
Q 186.14343 319.193861 186.14343 316.793861 
L 186.14343 281.508861 
Q 186.14343 279.108861 183.74343 279.108861 
L 176.00093 279.108861 
Q 173.60093 279.108861 173.60093 281.508861 
z
" style="fill:#ffffff;stroke:#ffffff;stroke-linejoin:miter;"/>
    </g>
    <g clip-path="url(#p9bd6d8d534)">
     <!-- Terminal -->
     <defs>
      <path d="M -0.296875 72.90625 
L 61.375 72.90625 
L 61.375 64.59375 
L 35.5 64.59375 
L 35.5 0 
L 25.59375 0 
L 25.59375 64.59375 
L -0.296875 64.59375 
z
" id="DejaVuSans-84"/>
      <path d="M 56.203125 29.59375 
L 56.203125 25.203125 
L 14.890625 25.203125 
Q 15.484375 15.921875 20.484375 11.0625 
Q 25.484375 6.203125 34.421875 6.203125 
Q 39.59375 6.203125 44.453125 7.46875 
Q 49.3125 8.734375 54.109375 11.28125 
L 54.109375 2.78125 
Q 49.265625 0.734375 44.1875 -0.34375 
Q 39.109375 -1.421875 33.890625 -1.421875 
Q 20.796875 -1.421875 13.15625 6.1875 
Q 5.515625 13.8125 5.515625 26.8125 
Q 5.515625 40.234375 12.765625 48.109375 
Q 20.015625 56 32.328125 56 
Q 43.359375 56 49.78125 48.890625 
Q 56.203125 41.796875 56.203125 29.59375 
z
M 47.21875 32.234375 
Q 47.125 39.59375 43.09375 43.984375 
Q 39.0625 48.390625 32.421875 48.390625 
Q 24.90625 48.390625 20.390625 44.140625 
Q 15.875 39.890625 15.1875 32.171875 
z
" id="DejaVuSans-101"/>
      <path d="M 41.109375 46.296875 
Q 39.59375 47.171875 37.8125 47.578125 
Q 36.03125 48 33.890625 48 
Q 26.265625 48 22.1875 43.046875 
Q 18.109375 38.09375 18.109375 28.8125 
L 18.109375 0 
L 9.078125 0 
L 9.078125 54.6875 
L 18.109375 54.6875 
L 18.109375 46.1875 
Q 20.953125 51.171875 25.484375 53.578125 
Q 30.03125 56 36.53125 56 
Q 37.453125 56 38.578125 55.875 
Q 39.703125 55.765625 41.0625 55.515625 
z
" id="DejaVuSans-114"/>
      <path d="M 52 44.1875 
Q 55.375 50.25 60.0625 53.125 
Q 64.75 56 71.09375 56 
Q 79.640625 56 84.28125 50.015625 
Q 88.921875 44.046875 88.921875 33.015625 
L 88.921875 0 
L 79.890625 0 
L 79.890625 32.71875 
Q 79.890625 40.578125 77.09375 44.375 
Q 74.3125 48.1875 68.609375 48.1875 
Q 61.625 48.1875 57.5625 43.546875 
Q 53.515625 38.921875 53.515625 30.90625 
L 53.515625 0 
L 44.484375 0 
L 44.484375 32.71875 
Q 44.484375 40.625 41.703125 44.40625 
Q 38.921875 48.1875 33.109375 48.1875 
Q 26.21875 48.1875 22.15625 43.53125 
Q 18.109375 38.875 18.109375 30.90625 
L 18.109375 0 
L 9.078125 0 
L 9.078125 54.6875 
L 18.109375 54.6875 
L 18.109375 46.1875 
Q 21.1875 51.21875 25.484375 53.609375 
Q 29.78125 56 35.6875 56 
Q 41.65625 56 45.828125 52.96875 
Q 50 49.953125 52 44.1875 
z
" id="DejaVuSans-109"/>
      <path d="M 9.421875 54.6875 
L 18.40625 54.6875 
L 18.40625 0 
L 9.421875 0 
z
M 9.421875 75.984375 
L 18.40625 75.984375 
L 18.40625 64.59375 
L 9.421875 64.59375 
z
" id="DejaVuSans-105"/>
      <path d="M 54.890625 33.015625 
L 54.890625 0 
L 45.90625 0 
L 45.90625 32.71875 
Q 45.90625 40.484375 42.875 44.328125 
Q 39.84375 48.1875 33.796875 48.1875 
Q 26.515625 48.1875 22.3125 43.546875 
Q 18.109375 38.921875 18.109375 30.90625 
L 18.109375 0 
L 9.078125 0 
L 9.078125 54.6875 
L 18.109375 54.6875 
L 18.109375 46.1875 
Q 21.34375 51.125 25.703125 53.5625 
Q 30.078125 56 35.796875 56 
Q 45.21875 56 50.046875 50.171875 
Q 54.890625 44.34375 54.890625 33.015625 
z
" id="DejaVuSans-110"/>
      <path d="M 34.28125 27.484375 
Q 23.390625 27.484375 19.1875 25 
Q 14.984375 22.515625 14.984375 16.5 
Q 14.984375 11.71875 18.140625 8.90625 
Q 21.296875 6.109375 26.703125 6.109375 
Q 34.1875 6.109375 38.703125 11.40625 
Q 43.21875 16.703125 43.21875 25.484375 
L 43.21875 27.484375 
z
M 52.203125 31.203125 
L 52.203125 0 
L 43.21875 0 
L 43.21875 8.296875 
Q 40.140625 3.328125 35.546875 0.953125 
Q 30.953125 -1.421875 24.3125 -1.421875 
Q 15.921875 -1.421875 10.953125 3.296875 
Q 6 8.015625 6 15.921875 
Q 6 25.140625 12.171875 29.828125 
Q 18.359375 34.515625 30.609375 34.515625 
L 43.21875 34.515625 
L 43.21875 35.40625 
Q 43.21875 41.609375 39.140625 45 
Q 35.0625 48.390625 27.6875 48.390625 
Q 23 48.390625 18.546875 47.265625 
Q 14.109375 46.140625 10.015625 43.890625 
L 10.015625 52.203125 
Q 14.9375 54.109375 19.578125 55.046875 
Q 24.21875 56 28.609375 56 
Q 40.484375 56 46.34375 49.84375 
Q 52.203125 43.703125 52.203125 31.203125 
z
" id="DejaVuSans-97"/>
      <path d="M 9.421875 75.984375 
L 18.40625 75.984375 
L 18.40625 0 
L 9.421875 0 
z
" id="DejaVuSans-108"/>
     </defs>
     <g transform="translate(177.66468 281.508861)rotate(-270)scale(0.08 -0.08)">
      <use xlink:href="#DejaVuSans-84"/>
      <use x="60.818359" xlink:href="#DejaVuSans-101"/>
      <use x="122.341797" xlink:href="#DejaVuSans-114"/>
      <use x="163.439453" xlink:href="#DejaVuSans-109"/>
      <use x="260.851562" xlink:href="#DejaVuSans-105"/>
      <use x="288.634766" xlink:href="#DejaVuSans-110"/>
      <use x="352.013672" xlink:href="#DejaVuSans-97"/>
      <use x="413.292969" xlink:href="#DejaVuSans-108"/>
     </g>
    </g>
   </g>
   <g id="text_10">
    <g id="patch_11">
     <path clip-path="url(#p9bd6d8d534)" d="M 223.421315 281.508861 
L 223.421315 316.793861 
Q 223.421315 319.193861 225.821315 319.193861 
L 233.563815 319.193861 
Q 235.963815 319.193861 235.963815 316.793861 
L 235.963815 281.508861 
Q 235.963815 279.108861 233.563815 279.108861 
L 225.821315 279.108861 
Q 223.421315 279.108861 223.421315 281.508861 
z
" style="fill:#ffffff;stroke:#ffffff;stroke-linejoin:miter;"/>
    </g>
    <g clip-path="url(#p9bd6d8d534)">
     <!-- Terminal -->
     <g transform="translate(227.485065 281.508861)rotate(-270)scale(0.08 -0.08)">
      <use xlink:href="#DejaVuSans-84"/>
      <use x="60.818359" xlink:href="#DejaVuSans-101"/>
      <use x="122.341797" xlink:href="#DejaVuSans-114"/>
      <use x="163.439453" xlink:href="#DejaVuSans-109"/>
      <use x="260.851562" xlink:href="#DejaVuSans-105"/>
      <use x="288.634766" xlink:href="#DejaVuSans-110"/>
      <use x="352.013672" xlink:href="#DejaVuSans-97"/>
      <use x="413.292969" xlink:href="#DejaVuSans-108"/>
     </g>
    </g>
   </g>
   <g id="text_11">
    <g id="patch_12">
     <path clip-path="url(#p9bd6d8d534)" d="M 380.318667 182.769873 
L 384.627626 180.081645 
Q 386.663856 178.811304 385.393515 176.775074 
L 381.29534 170.206111 
Q 380.024999 168.169881 377.988769 169.440223 
L 373.679809 172.128451 
Q 371.643579 173.398792 372.913921 175.435022 
L 377.012095 182.003985 
Q 378.282437 184.040215 380.318667 182.769873 
z
" style="fill:#ffffff;stroke:#ffffff;stroke-linejoin:miter;"/>
    </g>
    <g clip-path="url(#p9bd6d8d534)">
     <!-- S -->
     <defs>
      <path d="M 53.515625 70.515625 
L 53.515625 60.890625 
Q 47.90625 63.578125 42.921875 64.890625 
Q 37.9375 66.21875 33.296875 66.21875 
Q 25.25 66.21875 20.875 63.09375 
Q 16.5 59.96875 16.5 54.203125 
Q 16.5 49.359375 19.40625 46.890625 
Q 22.3125 44.4375 30.421875 42.921875 
L 36.375 41.703125 
Q 47.40625 39.59375 52.65625 34.296875 
Q 57.90625 29 57.90625 20.125 
Q 57.90625 9.515625 50.796875 4.046875 
Q 43.703125 -1.421875 29.984375 -1.421875 
Q 24.8125 -1.421875 18.96875 -0.25 
Q 13.140625 0.921875 6.890625 3.21875 
L 6.890625 13.375 
Q 12.890625 10.015625 18.65625 8.296875 
Q 24.421875 6.59375 29.984375 6.59375 
Q 38.421875 6.59375 43.015625 9.90625 
Q 47.609375 13.234375 47.609375 19.390625 
Q 47.609375 24.75 44.3125 27.78125 
Q 41.015625 30.8125 33.5 32.328125 
L 27.484375 33.5 
Q 16.453125 35.6875 11.515625 40.375 
Q 6.59375 45.0625 6.59375 53.421875 
Q 6.59375 63.09375 13.40625 68.65625 
Q 20.21875 74.21875 32.171875 74.21875 
Q 37.3125 74.21875 42.625 73.28125 
Q 47.953125 72.359375 53.515625 70.515625 
z
" id="DejaVuSans-83"/>
     </defs>
     <g transform="translate(378.167687 179.322069)rotate(-31.958776)scale(0.08 -0.08)">
      <use xlink:href="#DejaVuSans-83"/>
     </g>
    </g>
   </g>
   <g id="text_12">
    <g id="patch_13">
     <path clip-path="url(#p9bd6d8d534)" d="M 473.153543 179.977438 
L 477.796572 182.874081 
Q 479.832802 184.144422 481.103143 182.108192 
L 485.201318 175.53923 
Q 486.471659 173.503 484.435429 172.232658 
L 479.792401 169.336015 
Q 477.756171 168.065673 476.485829 170.101903 
L 472.387655 176.670866 
Q 471.117313 178.707096 473.153543 179.977438 
z
" style="fill:#ffffff;stroke:#ffffff;stroke-linejoin:miter;"/>
    </g>
    <g clip-path="url(#p9bd6d8d534)">
     <!-- A -->
     <g transform="translate(475.304523 176.529634)rotate(-328.041224)scale(0.08 -0.08)">
      <use xlink:href="#DejaVuSans-65"/>
     </g>
    </g>
   </g>
   <g id="text_13">
    <g id="patch_14">
     <path clip-path="url(#p9bd6d8d534)" d="M 307.696171 243.757854 
L 310.88405 239.834787 
Q 312.397583 237.972204 310.535 236.458671 
L 304.526228 231.57595 
Q 302.663645 230.062416 301.150111 231.925 
L 297.962232 235.848066 
Q 296.448699 237.71065 298.311282 239.224183 
L 304.320054 244.106904 
Q 306.182638 245.620437 307.696171 243.757854 
z
" style="fill:#ffffff;stroke:#ffffff;stroke-linejoin:miter;"/>
    </g>
    <g clip-path="url(#p9bd6d8d534)">
     <!-- E -->
     <defs>
      <path d="M 9.8125 72.90625 
L 55.90625 72.90625 
L 55.90625 64.59375 
L 19.671875 64.59375 
L 19.671875 43.015625 
L 54.390625 43.015625 
L 54.390625 34.71875 
L 19.671875 34.71875 
L 19.671875 8.296875 
L 56.78125 8.296875 
L 56.78125 0 
L 9.8125 0 
z
" id="DejaVuSans-69"/>
     </defs>
     <g transform="translate(304.54239 241.195095)rotate(-50.902729)scale(0.08 -0.08)">
      <use xlink:href="#DejaVuSans-69"/>
     </g>
    </g>
   </g>
   <g id="text_14">
    <g id="patch_15">
     <path clip-path="url(#p9bd6d8d534)" d="M 347.615103 239.628642 
L 351.138009 243.963999 
Q 352.651542 245.826583 354.514126 244.313049 
L 360.522898 239.430328 
Q 362.385481 237.916795 360.871948 236.054211 
L 357.349042 231.718854 
Q 355.835509 229.856271 353.972925 231.369804 
L 347.964153 236.252525 
Q 346.10157 237.766059 347.615103 239.628642 
z
" style="fill:#ffffff;stroke:#ffffff;stroke-linejoin:miter;"/>
    </g>
    <g clip-path="url(#p9bd6d8d534)">
     <!-- C -->
     <g transform="translate(350.768884 237.065884)rotate(-309.097271)scale(0.08 -0.08)">
      <use xlink:href="#DejaVuSans-67"/>
     </g>
    </g>
   </g>
   <g id="text_15">
    <g id="patch_16">
     <path clip-path="url(#p9bd6d8d534)" d="M 323.062083 234.913927 
L 323.062083 240.768927 
Q 323.062083 243.168927 325.462083 243.168927 
L 333.204583 243.168927 
Q 335.604583 243.168927 335.604583 240.768927 
L 335.604583 234.913927 
Q 335.604583 232.513927 333.204583 232.513927 
L 325.462083 232.513927 
Q 323.062083 232.513927 323.062083 234.913927 
z
" style="fill:#ffffff;stroke:#ffffff;stroke-linejoin:miter;"/>
    </g>
    <g clip-path="url(#p9bd6d8d534)">
     <!-- U -->
     <g transform="translate(327.125833 234.913927)rotate(-270)scale(0.08 -0.08)">
      <use xlink:href="#DejaVuSans-85"/>
     </g>
    </g>
   </g>
   <g id="text_16">
    <g id="patch_17">
     <path clip-path="url(#p9bd6d8d534)" d="M 479.713785 244.639102 
L 484.448099 241.726033 
Q 486.492147 240.46831 485.234425 238.424262 
L 481.176959 231.830077 
Q 479.919236 229.786029 477.875187 231.043751 
L 473.140874 233.956821 
Q 471.096825 235.214544 472.354548 237.258592 
L 476.412014 243.852777 
Q 477.669737 245.896825 479.713785 244.639102 
z
" style="fill:#ffffff;stroke:#ffffff;stroke-linejoin:miter;"/>
    </g>
    <g clip-path="url(#p9bd6d8d534)">
     <!-- R -->
     <g transform="translate(477.584172 241.17806)rotate(-31.60439)scale(0.08 -0.08)">
      <use xlink:href="#DejaVuSans-82"/>
     </g>
    </g>
   </g>
   <g id="text_17">
    <g id="patch_18">
     <path clip-path="url(#p9bd6d8d534)" d="M 522.343621 235.048302 
L 522.343621 240.634552 
Q 522.343621 243.034552 524.743621 243.034552 
L 532.486121 243.034552 
Q 534.886121 243.034552 534.886121 240.634552 
L 534.886121 235.048302 
Q 534.886121 232.648302 532.486121 232.648302 
L 524.743621 232.648302 
Q 522.343621 232.648302 522.343621 235.048302 
z
" style="fill:#ffffff;stroke:#ffffff;stroke-linejoin:miter;"/>
    </g>
    <g clip-path="url(#p9bd6d8d534)">
     <!-- C -->
     <g transform="translate(526.407371 235.048302)rotate(-270)scale(0.08 -0.08)">
      <use xlink:href="#DejaVuSans-67"/>
     </g>
    </g>
   </g>
   <g id="text_18">
    <g id="patch_19">
     <path clip-path="url(#p9bd6d8d534)" d="M 506.725453 244.068284 
L 510.417843 239.524357 
Q 511.931376 237.661773 510.068793 236.14824 
L 504.060021 231.265519 
Q 502.197438 229.751986 500.683904 231.614569 
L 496.991514 236.158497 
Q 495.477981 238.02108 497.340564 239.534613 
L 503.349336 244.417335 
Q 505.211919 245.930868 506.725453 244.068284 
z
" style="fill:#ffffff;stroke:#ffffff;stroke-linejoin:miter;"/>
    </g>
    <g clip-path="url(#p9bd6d8d534)">
     <!-- U -->
     <g transform="translate(503.571672 241.505526)rotate(-50.902729)scale(0.08 -0.08)">
      <use xlink:href="#DejaVuSans-85"/>
     </g>
    </g>
   </g>
   <g id="text_19">
    <g id="patch_20">
     <path clip-path="url(#p9bd6d8d534)" d="M 546.811898 239.524357 
L 550.504289 244.068284 
Q 552.017822 245.930868 553.880405 244.417335 
L 559.889177 239.534613 
Q 561.751761 238.02108 560.238227 236.158497 
L 556.545837 231.614569 
Q 555.032304 229.751986 553.16972 231.265519 
L 547.160948 236.14824 
Q 545.298365 237.661773 546.811898 239.524357 
z
" style="fill:#ffffff;stroke:#ffffff;stroke-linejoin:miter;"/>
    </g>
    <g clip-path="url(#p9bd6d8d534)">
     <!-- U -->
     <g transform="translate(549.965679 236.961598)rotate(-309.097271)scale(0.08 -0.08)">
      <use xlink:href="#DejaVuSans-85"/>
     </g>
    </g>
   </g>
   <g id="text_20">
    <g id="patch_21">
     <path clip-path="url(#p9bd6d8d534)" d="M 572.655486 241.648408 
L 577.642112 244.716727 
Q 579.68616 245.97445 580.943883 243.930402 
L 585.001349 237.336217 
Q 586.259072 235.292169 584.215024 234.034446 
L 579.228398 230.966126 
Q 577.18435 229.708403 575.926627 231.752452 
L 571.869161 238.346637 
Q 570.611438 240.390685 572.655486 241.648408 
z
" style="fill:#ffffff;stroke:#ffffff;stroke-linejoin:miter;"/>
    </g>
    <g clip-path="url(#p9bd6d8d534)">
     <!-- U -->
     <g transform="translate(574.785099 238.187366)rotate(-328.39561)scale(0.08 -0.08)">
      <use xlink:href="#DejaVuSans-85"/>
     </g>
    </g>
   </g>
   <g id="text_21">
    <g id="patch_22">
     <path clip-path="url(#p9bd6d8d534)" d="M 422.702852 281.508861 
L 422.702852 316.793861 
Q 422.702852 319.193861 425.102852 319.193861 
L 432.845352 319.193861 
Q 435.245352 319.193861 435.245352 316.793861 
L 435.245352 281.508861 
Q 435.245352 279.108861 432.845352 279.108861 
L 425.102852 279.108861 
Q 422.702852 279.108861 422.702852 281.508861 
z
" style="fill:#ffffff;stroke:#ffffff;stroke-linejoin:miter;"/>
    </g>
    <g clip-path="url(#p9bd6d8d534)">
     <!-- Terminal -->
     <g transform="translate(426.766602 281.508861)rotate(-270)scale(0.08 -0.08)">
      <use xlink:href="#DejaVuSans-84"/>
      <use x="60.818359" xlink:href="#DejaVuSans-101"/>
      <use x="122.341797" xlink:href="#DejaVuSans-114"/>
      <use x="163.439453" xlink:href="#DejaVuSans-109"/>
      <use x="260.851562" xlink:href="#DejaVuSans-105"/>
      <use x="288.634766" xlink:href="#DejaVuSans-110"/>
      <use x="352.013672" xlink:href="#DejaVuSans-97"/>
      <use x="413.292969" xlink:href="#DejaVuSans-108"/>
     </g>
    </g>
   </g>
   <g id="text_22">
    <g id="patch_23">
     <path clip-path="url(#p9bd6d8d534)" d="M 522.343621 281.508861 
L 522.343621 316.793861 
Q 522.343621 319.193861 524.743621 319.193861 
L 532.486121 319.193861 
Q 534.886121 319.193861 534.886121 316.793861 
L 534.886121 281.508861 
Q 534.886121 279.108861 532.486121 279.108861 
L 524.743621 279.108861 
Q 522.343621 279.108861 522.343621 281.508861 
z
" style="fill:#ffffff;stroke:#ffffff;stroke-linejoin:miter;"/>
    </g>
    <g clip-path="url(#p9bd6d8d534)">
     <!-- Terminal -->
     <g transform="translate(526.407371 281.508861)rotate(-270)scale(0.08 -0.08)">
      <use xlink:href="#DejaVuSans-84"/>
      <use x="60.818359" xlink:href="#DejaVuSans-101"/>
      <use x="122.341797" xlink:href="#DejaVuSans-114"/>
      <use x="163.439453" xlink:href="#DejaVuSans-109"/>
      <use x="260.851562" xlink:href="#DejaVuSans-105"/>
      <use x="288.634766" xlink:href="#DejaVuSans-110"/>
      <use x="352.013672" xlink:href="#DejaVuSans-97"/>
      <use x="413.292969" xlink:href="#DejaVuSans-108"/>
     </g>
    </g>
   </g>
   <g id="text_23">
    <g id="patch_24">
     <path clip-path="url(#p9bd6d8d534)" d="M 273.241699 281.508861 
L 273.241699 316.793861 
Q 273.241699 319.193861 275.641699 319.193861 
L 283.384199 319.193861 
Q 285.784199 319.193861 285.784199 316.793861 
L 285.784199 281.508861 
Q 285.784199 279.108861 283.384199 279.108861 
L 275.641699 279.108861 
Q 273.241699 279.108861 273.241699 281.508861 
z
" style="fill:#ffffff;stroke:#ffffff;stroke-linejoin:miter;"/>
    </g>
    <g clip-path="url(#p9bd6d8d534)">
     <!-- Terminal -->
     <g transform="translate(277.305449 281.508861)rotate(-270)scale(0.08 -0.08)">
      <use xlink:href="#DejaVuSans-84"/>
      <use x="60.818359" xlink:href="#DejaVuSans-101"/>
      <use x="122.341797" xlink:href="#DejaVuSans-114"/>
      <use x="163.439453" xlink:href="#DejaVuSans-109"/>
      <use x="260.851562" xlink:href="#DejaVuSans-105"/>
      <use x="288.634766" xlink:href="#DejaVuSans-110"/>
      <use x="352.013672" xlink:href="#DejaVuSans-97"/>
      <use x="413.292969" xlink:href="#DejaVuSans-108"/>
     </g>
    </g>
   </g>
   <g id="text_24">
    <g id="patch_25">
     <path clip-path="url(#p9bd6d8d534)" d="M 372.882468 281.508861 
L 372.882468 316.793861 
Q 372.882468 319.193861 375.282468 319.193861 
L 383.024968 319.193861 
Q 385.424968 319.193861 385.424968 316.793861 
L 385.424968 281.508861 
Q 385.424968 279.108861 383.024968 279.108861 
L 375.282468 279.108861 
Q 372.882468 279.108861 372.882468 281.508861 
z
" style="fill:#ffffff;stroke:#ffffff;stroke-linejoin:miter;"/>
    </g>
    <g clip-path="url(#p9bd6d8d534)">
     <!-- Terminal -->
     <g transform="translate(376.946218 281.508861)rotate(-270)scale(0.08 -0.08)">
      <use xlink:href="#DejaVuSans-84"/>
      <use x="60.818359" xlink:href="#DejaVuSans-101"/>
      <use x="122.341797" xlink:href="#DejaVuSans-114"/>
      <use x="163.439453" xlink:href="#DejaVuSans-109"/>
      <use x="260.851562" xlink:href="#DejaVuSans-105"/>
      <use x="288.634766" xlink:href="#DejaVuSans-110"/>
      <use x="352.013672" xlink:href="#DejaVuSans-97"/>
      <use x="413.292969" xlink:href="#DejaVuSans-108"/>
     </g>
    </g>
   </g>
   <g id="text_25">
    <g id="patch_26">
     <path clip-path="url(#p9bd6d8d534)" d="M 123.780546 281.508861 
L 123.780546 316.793861 
Q 123.780546 319.193861 126.180546 319.193861 
L 133.923046 319.193861 
Q 136.323046 319.193861 136.323046 316.793861 
L 136.323046 281.508861 
Q 136.323046 279.108861 133.923046 279.108861 
L 126.180546 279.108861 
Q 123.780546 279.108861 123.780546 281.508861 
z
" style="fill:#ffffff;stroke:#ffffff;stroke-linejoin:miter;"/>
    </g>
    <g clip-path="url(#p9bd6d8d534)">
     <!-- Terminal -->
     <g transform="translate(127.844296 281.508861)rotate(-270)scale(0.08 -0.08)">
      <use xlink:href="#DejaVuSans-84"/>
      <use x="60.818359" xlink:href="#DejaVuSans-101"/>
      <use x="122.341797" xlink:href="#DejaVuSans-114"/>
      <use x="163.439453" xlink:href="#DejaVuSans-109"/>
      <use x="260.851562" xlink:href="#DejaVuSans-105"/>
      <use x="288.634766" xlink:href="#DejaVuSans-110"/>
      <use x="352.013672" xlink:href="#DejaVuSans-97"/>
      <use x="413.292969" xlink:href="#DejaVuSans-108"/>
     </g>
    </g>
   </g>
   <g id="text_26">
    <g id="patch_27">
     <path clip-path="url(#p9bd6d8d534)" d="M 24.139777 281.508861 
L 24.139777 316.793861 
Q 24.139777 319.193861 26.539777 319.193861 
L 34.282277 319.193861 
Q 36.682277 319.193861 36.682277 316.793861 
L 36.682277 281.508861 
Q 36.682277 279.108861 34.282277 279.108861 
L 26.539777 279.108861 
Q 24.139777 279.108861 24.139777 281.508861 
z
" style="fill:#ffffff;stroke:#ffffff;stroke-linejoin:miter;"/>
    </g>
    <g clip-path="url(#p9bd6d8d534)">
     <!-- Terminal -->
     <g transform="translate(28.203527 281.508861)rotate(-270)scale(0.08 -0.08)">
      <use xlink:href="#DejaVuSans-84"/>
      <use x="60.818359" xlink:href="#DejaVuSans-101"/>
      <use x="122.341797" xlink:href="#DejaVuSans-114"/>
      <use x="163.439453" xlink:href="#DejaVuSans-109"/>
      <use x="260.851562" xlink:href="#DejaVuSans-105"/>
      <use x="288.634766" xlink:href="#DejaVuSans-110"/>
      <use x="352.013672" xlink:href="#DejaVuSans-97"/>
      <use x="413.292969" xlink:href="#DejaVuSans-108"/>
     </g>
    </g>
   </g>
   <g id="text_27">
    <g id="patch_28">
     <path clip-path="url(#p9bd6d8d534)" d="M 73.960162 281.508861 
L 73.960162 316.793861 
Q 73.960162 319.193861 76.360162 319.193861 
L 84.102662 319.193861 
Q 86.502662 319.193861 86.502662 316.793861 
L 86.502662 281.508861 
Q 86.502662 279.108861 84.102662 279.108861 
L 76.360162 279.108861 
Q 73.960162 279.108861 73.960162 281.508861 
z
" style="fill:#ffffff;stroke:#ffffff;stroke-linejoin:miter;"/>
    </g>
    <g clip-path="url(#p9bd6d8d534)">
     <!-- Terminal -->
     <g transform="translate(78.023912 281.508861)rotate(-270)scale(0.08 -0.08)">
      <use xlink:href="#DejaVuSans-84"/>
      <use x="60.818359" xlink:href="#DejaVuSans-101"/>
      <use x="122.341797" xlink:href="#DejaVuSans-114"/>
      <use x="163.439453" xlink:href="#DejaVuSans-109"/>
      <use x="260.851562" xlink:href="#DejaVuSans-105"/>
      <use x="288.634766" xlink:href="#DejaVuSans-110"/>
      <use x="352.013672" xlink:href="#DejaVuSans-97"/>
      <use x="413.292969" xlink:href="#DejaVuSans-108"/>
     </g>
    </g>
   </g>
   <g id="text_28">
    <g id="patch_29">
     <path clip-path="url(#p9bd6d8d534)" d="M 114.231261 119.52128 
L 119.314394 110.890694 
Q 120.532367 108.822714 118.464386 107.604741 
L 111.792996 103.67551 
Q 109.725016 102.457537 108.507043 104.525517 
L 103.42391 113.156104 
Q 102.205937 115.224084 104.273917 116.442057 
L 110.945308 120.371288 
Q 113.013288 121.58926 114.231261 119.52128 
z
" style="fill:#ffffff;stroke:#ffffff;stroke-linejoin:miter;"/>
    </g>
    <g clip-path="url(#p9bd6d8d534)">
     <!-- LR -->
     <g transform="translate(110.729696 117.458973)rotate(-59.503305)scale(0.08 -0.08)">
      <use xlink:href="#DejaVuSans-76"/>
      <use x="55.712891" xlink:href="#DejaVuSans-82"/>
     </g>
    </g>
   </g>
   <g id="text_29">
    <g id="patch_30">
     <path clip-path="url(#p9bd6d8d534)" d="M 216.02682 52.205793 
L 224.625796 57.176927 
Q 226.703575 58.378107 227.904755 56.300328 
L 231.779812 49.597326 
Q 232.980992 47.519546 230.903213 46.318366 
L 222.304238 41.347232 
Q 220.226458 40.146052 219.025278 42.223831 
L 215.150221 48.926833 
Q 213.949041 51.004613 216.02682 52.205793 
z
" style="fill:#ffffff;stroke:#ffffff;stroke-linejoin:miter;"/>
    </g>
    <g clip-path="url(#p9bd6d8d534)">
     <!-- LA -->
     <g transform="translate(218.060693 48.687636)rotate(-329.967462)scale(0.08 -0.08)">
      <use xlink:href="#DejaVuSans-76"/>
      <use x="55.744141" xlink:href="#DejaVuSans-65"/>
     </g>
    </g>
   </g>
   <g id="text_30">
    <g id="patch_31">
     <path clip-path="url(#p9bd6d8d534)" d="M 323.062083 281.508861 
L 323.062083 316.793861 
Q 323.062083 319.193861 325.462083 319.193861 
L 333.204583 319.193861 
Q 335.604583 319.193861 335.604583 316.793861 
L 335.604583 281.508861 
Q 335.604583 279.108861 333.204583 279.108861 
L 325.462083 279.108861 
Q 323.062083 279.108861 323.062083 281.508861 
z
" style="fill:#ffffff;stroke:#ffffff;stroke-linejoin:miter;"/>
    </g>
    <g clip-path="url(#p9bd6d8d534)">
     <!-- Terminal -->
     <g transform="translate(327.125833 281.508861)rotate(-270)scale(0.08 -0.08)">
      <use xlink:href="#DejaVuSans-84"/>
      <use x="60.818359" xlink:href="#DejaVuSans-101"/>
      <use x="122.341797" xlink:href="#DejaVuSans-114"/>
      <use x="163.439453" xlink:href="#DejaVuSans-109"/>
      <use x="260.851562" xlink:href="#DejaVuSans-105"/>
      <use x="288.634766" xlink:href="#DejaVuSans-110"/>
      <use x="352.013672" xlink:href="#DejaVuSans-97"/>
      <use x="413.292969" xlink:href="#DejaVuSans-108"/>
     </g>
    </g>
   </g>
   <g id="text_31">
    <g id="patch_32">
     <path clip-path="url(#p9bd6d8d534)" d="M 472.523236 281.508861 
L 472.523236 316.793861 
Q 472.523236 319.193861 474.923236 319.193861 
L 482.665736 319.193861 
Q 485.065736 319.193861 485.065736 316.793861 
L 485.065736 281.508861 
Q 485.065736 279.108861 482.665736 279.108861 
L 474.923236 279.108861 
Q 472.523236 279.108861 472.523236 281.508861 
z
" style="fill:#ffffff;stroke:#ffffff;stroke-linejoin:miter;"/>
    </g>
    <g clip-path="url(#p9bd6d8d534)">
     <!-- Terminal -->
     <g transform="translate(476.586986 281.508861)rotate(-270)scale(0.08 -0.08)">
      <use xlink:href="#DejaVuSans-84"/>
      <use x="60.818359" xlink:href="#DejaVuSans-101"/>
      <use x="122.341797" xlink:href="#DejaVuSans-114"/>
      <use x="163.439453" xlink:href="#DejaVuSans-109"/>
      <use x="260.851562" xlink:href="#DejaVuSans-105"/>
      <use x="288.634766" xlink:href="#DejaVuSans-110"/>
      <use x="352.013672" xlink:href="#DejaVuSans-97"/>
      <use x="413.292969" xlink:href="#DejaVuSans-108"/>
     </g>
    </g>
   </g>
   <g id="text_32">
    <g id="patch_33">
     <path clip-path="url(#p9bd6d8d534)" d="M 572.164005 281.508861 
L 572.164005 316.793861 
Q 572.164005 319.193861 574.564005 319.193861 
L 582.306505 319.193861 
Q 584.706505 319.193861 584.706505 316.793861 
L 584.706505 281.508861 
Q 584.706505 279.108861 582.306505 279.108861 
L 574.564005 279.108861 
Q 572.164005 279.108861 572.164005 281.508861 
z
" style="fill:#ffffff;stroke:#ffffff;stroke-linejoin:miter;"/>
    </g>
    <g clip-path="url(#p9bd6d8d534)">
     <!-- Terminal -->
     <g transform="translate(576.227755 281.508861)rotate(-270)scale(0.08 -0.08)">
      <use xlink:href="#DejaVuSans-84"/>
      <use x="60.818359" xlink:href="#DejaVuSans-101"/>
      <use x="122.341797" xlink:href="#DejaVuSans-114"/>
      <use x="163.439453" xlink:href="#DejaVuSans-109"/>
      <use x="260.851562" xlink:href="#DejaVuSans-105"/>
      <use x="288.634766" xlink:href="#DejaVuSans-110"/>
      <use x="352.013672" xlink:href="#DejaVuSans-97"/>
      <use x="413.292969" xlink:href="#DejaVuSans-108"/>
     </g>
    </g>
   </g>
   <g id="text_33">
    <g id="patch_34">
     <path clip-path="url(#p9bd6d8d534)" d="M 621.984389 281.508861 
L 621.984389 316.793861 
Q 621.984389 319.193861 624.384389 319.193861 
L 632.126889 319.193861 
Q 634.526889 319.193861 634.526889 316.793861 
L 634.526889 281.508861 
Q 634.526889 279.108861 632.126889 279.108861 
L 624.384389 279.108861 
Q 621.984389 279.108861 621.984389 281.508861 
z
" style="fill:#ffffff;stroke:#ffffff;stroke-linejoin:miter;"/>
    </g>
    <g clip-path="url(#p9bd6d8d534)">
     <!-- Terminal -->
     <g transform="translate(626.048139 281.508861)rotate(-270)scale(0.08 -0.08)">
      <use xlink:href="#DejaVuSans-84"/>
      <use x="60.818359" xlink:href="#DejaVuSans-101"/>
      <use x="122.341797" xlink:href="#DejaVuSans-114"/>
      <use x="163.439453" xlink:href="#DejaVuSans-109"/>
      <use x="260.851562" xlink:href="#DejaVuSans-105"/>
      <use x="288.634766" xlink:href="#DejaVuSans-110"/>
      <use x="352.013672" xlink:href="#DejaVuSans-97"/>
      <use x="413.292969" xlink:href="#DejaVuSans-108"/>
     </g>
    </g>
   </g>
   <g id="PathCollection_1">
    <defs>
     <path d="M 0 8.660254 
C 2.296726 8.660254 4.499694 7.747755 6.123724 6.123724 
C 7.747755 4.499694 8.660254 2.296726 8.660254 0 
C 8.660254 -2.296726 7.747755 -4.499694 6.123724 -6.123724 
C 4.499694 -7.747755 2.296726 -8.660254 0 -8.660254 
C -2.296726 -8.660254 -4.499694 -7.747755 -6.123724 -6.123724 
C -7.747755 -4.499694 -8.660254 -2.296726 -8.660254 0 
C -8.660254 2.296726 -7.747755 4.499694 -6.123724 6.123724 
C -4.499694 7.747755 -2.296726 8.660254 0 8.660254 
z
" id="C0_0_59004ac385"/>
    </defs>
    <g clip-path="url(#p9bd6d8d534)">
     <use style="fill:#ffffff;stroke:#ffffff;" x="30.411027" xlink:href="#C0_0_59004ac385" y="329.806329"/>
    </g>
    <g clip-path="url(#p9bd6d8d534)">
     <use style="fill:#ffffff;stroke:#ffffff;" x="80.231412" xlink:href="#C0_0_59004ac385" y="329.806329"/>
    </g>
    <g clip-path="url(#p9bd6d8d534)">
     <use style="fill:#ffffff;stroke:#ffffff;" x="130.051796" xlink:href="#C0_0_59004ac385" y="329.806329"/>
    </g>
    <g clip-path="url(#p9bd6d8d534)">
     <use style="fill:#ffffff;stroke:#ffffff;" x="179.87218" xlink:href="#C0_0_59004ac385" y="329.806329"/>
    </g>
    <g clip-path="url(#p9bd6d8d534)">
     <use style="fill:#ffffff;stroke:#ffffff;" x="229.692565" xlink:href="#C0_0_59004ac385" y="329.806329"/>
    </g>
    <g clip-path="url(#p9bd6d8d534)">
     <use style="fill:#ffffff;stroke:#ffffff;" x="279.512949" xlink:href="#C0_0_59004ac385" y="329.806329"/>
    </g>
    <g clip-path="url(#p9bd6d8d534)">
     <use style="fill:#ffffff;stroke:#ffffff;" x="329.333333" xlink:href="#C0_0_59004ac385" y="329.806329"/>
    </g>
    <g clip-path="url(#p9bd6d8d534)">
     <use style="fill:#ffffff;stroke:#ffffff;" x="379.153718" xlink:href="#C0_0_59004ac385" y="329.806329"/>
    </g>
    <g clip-path="url(#p9bd6d8d534)">
     <use style="fill:#ffffff;stroke:#ffffff;" x="428.974102" xlink:href="#C0_0_59004ac385" y="329.806329"/>
    </g>
    <g clip-path="url(#p9bd6d8d534)">
     <use style="fill:#ffffff;stroke:#ffffff;" x="478.794486" xlink:href="#C0_0_59004ac385" y="329.806329"/>
    </g>
    <g clip-path="url(#p9bd6d8d534)">
     <use style="fill:#ffffff;stroke:#ffffff;" x="528.614871" xlink:href="#C0_0_59004ac385" y="329.806329"/>
    </g>
    <g clip-path="url(#p9bd6d8d534)">
     <use style="fill:#ffffff;stroke:#ffffff;" x="578.435255" xlink:href="#C0_0_59004ac385" y="329.806329"/>
    </g>
    <g clip-path="url(#p9bd6d8d534)">
     <use style="fill:#ffffff;stroke:#ffffff;" x="628.255639" xlink:href="#C0_0_59004ac385" y="329.806329"/>
    </g>
    <g clip-path="url(#p9bd6d8d534)">
     <use style="fill:#ffffff;stroke:#ffffff;" x="154.961988" xlink:href="#C0_0_59004ac385" y="16.860338"/>
    </g>
    <g clip-path="url(#p9bd6d8d534)">
     <use style="fill:#ffffff;stroke:#ffffff;" x="55.321219" xlink:href="#C0_0_59004ac385" y="207.18646"/>
    </g>
    <g clip-path="url(#p9bd6d8d534)">
     <use style="fill:#ffffff;stroke:#ffffff;" x="279.512949" xlink:href="#C0_0_59004ac385" y="81.663821"/>
    </g>
    <g clip-path="url(#p9bd6d8d534)">
     <use style="fill:#ffffff;stroke:#ffffff;" x="179.87218" xlink:href="#C0_0_59004ac385" y="268.496394"/>
    </g>
    <g clip-path="url(#p9bd6d8d534)">
     <use style="fill:#ffffff;stroke:#ffffff;" x="229.692565" xlink:href="#C0_0_59004ac385" y="268.496394"/>
    </g>
    <g clip-path="url(#p9bd6d8d534)">
     <use style="fill:#ffffff;stroke:#ffffff;" x="428.974102" xlink:href="#C0_0_59004ac385" y="145.023636"/>
    </g>
    <g clip-path="url(#p9bd6d8d534)">
     <use style="fill:#ffffff;stroke:#ffffff;" x="329.333333" xlink:href="#C0_0_59004ac385" y="207.18646"/>
    </g>
    <g clip-path="url(#p9bd6d8d534)">
     <use style="fill:#ffffff;stroke:#ffffff;" x="528.614871" xlink:href="#C0_0_59004ac385" y="207.18646"/>
    </g>
    <g clip-path="url(#p9bd6d8d534)">
     <use style="fill:#ffffff;stroke:#ffffff;" x="428.974102" xlink:href="#C0_0_59004ac385" y="268.496394"/>
    </g>
    <g clip-path="url(#p9bd6d8d534)">
     <use style="fill:#ffffff;stroke:#ffffff;" x="528.614871" xlink:href="#C0_0_59004ac385" y="268.496394"/>
    </g>
    <g clip-path="url(#p9bd6d8d534)">
     <use style="fill:#ffffff;stroke:#ffffff;" x="279.512949" xlink:href="#C0_0_59004ac385" y="268.496394"/>
    </g>
    <g clip-path="url(#p9bd6d8d534)">
     <use style="fill:#ffffff;stroke:#ffffff;" x="379.153718" xlink:href="#C0_0_59004ac385" y="268.496394"/>
    </g>
    <g clip-path="url(#p9bd6d8d534)">
     <use style="fill:#ffffff;stroke:#ffffff;" x="130.051796" xlink:href="#C0_0_59004ac385" y="268.496394"/>
    </g>
    <g clip-path="url(#p9bd6d8d534)">
     <use style="fill:#ffffff;stroke:#ffffff;" x="30.411027" xlink:href="#C0_0_59004ac385" y="268.496394"/>
    </g>
    <g clip-path="url(#p9bd6d8d534)">
     <use style="fill:#ffffff;stroke:#ffffff;" x="80.231412" xlink:href="#C0_0_59004ac385" y="268.496394"/>
    </g>
    <g clip-path="url(#p9bd6d8d534)">
     <use style="fill:#808080;stroke:#808080;" x="167.417084" xlink:href="#C0_0_59004ac385" y="16.860338"/>
    </g>
    <g clip-path="url(#p9bd6d8d534)">
     <use style="fill:#ffffff;stroke:#ffffff;" x="329.333333" xlink:href="#C0_0_59004ac385" y="268.496394"/>
    </g>
    <g clip-path="url(#p9bd6d8d534)">
     <use style="fill:#ffffff;stroke:#ffffff;" x="478.794486" xlink:href="#C0_0_59004ac385" y="268.496394"/>
    </g>
    <g clip-path="url(#p9bd6d8d534)">
     <use style="fill:#ffffff;stroke:#ffffff;" x="578.435255" xlink:href="#C0_0_59004ac385" y="268.496394"/>
    </g>
    <g clip-path="url(#p9bd6d8d534)">
     <use style="fill:#ffffff;stroke:#ffffff;" x="628.255639" xlink:href="#C0_0_59004ac385" y="268.496394"/>
    </g>
   </g>
   <g id="text_34">
    <g clip-path="url(#p9bd6d8d534)">
     <!-- Au -->
     <defs>
      <path d="M 8.5 21.578125 
L 8.5 54.6875 
L 17.484375 54.6875 
L 17.484375 21.921875 
Q 17.484375 14.15625 20.5 10.265625 
Q 23.53125 6.390625 29.59375 6.390625 
Q 36.859375 6.390625 41.078125 11.03125 
Q 45.3125 15.671875 45.3125 23.6875 
L 45.3125 54.6875 
L 54.296875 54.6875 
L 54.296875 0 
L 45.3125 0 
L 45.3125 8.40625 
Q 42.046875 3.421875 37.71875 1 
Q 33.40625 -1.421875 27.6875 -1.421875 
Q 18.265625 -1.421875 13.375 4.4375 
Q 8.5 10.296875 8.5 21.578125 
z
M 31.109375 56 
z
" id="DejaVuSans-117"/>
     </defs>
     <g transform="translate(23.821965 332.565704)scale(0.1 -0.1)">
      <use xlink:href="#DejaVuSans-65"/>
      <use x="68.408203" xlink:href="#DejaVuSans-117"/>
     </g>
    </g>
   </g>
   <g id="text_35">
    <g clip-path="url(#p9bd6d8d534)">
     <!-- fond -->
     <defs>
      <path d="M 37.109375 75.984375 
L 37.109375 68.5 
L 28.515625 68.5 
Q 23.6875 68.5 21.796875 66.546875 
Q 19.921875 64.59375 19.921875 59.515625 
L 19.921875 54.6875 
L 34.71875 54.6875 
L 34.71875 47.703125 
L 19.921875 47.703125 
L 19.921875 0 
L 10.890625 0 
L 10.890625 47.703125 
L 2.296875 47.703125 
L 2.296875 54.6875 
L 10.890625 54.6875 
L 10.890625 58.5 
Q 10.890625 67.625 15.140625 71.796875 
Q 19.390625 75.984375 28.609375 75.984375 
z
" id="DejaVuSans-102"/>
      <path d="M 30.609375 48.390625 
Q 23.390625 48.390625 19.1875 42.75 
Q 14.984375 37.109375 14.984375 27.296875 
Q 14.984375 17.484375 19.15625 11.84375 
Q 23.34375 6.203125 30.609375 6.203125 
Q 37.796875 6.203125 41.984375 11.859375 
Q 46.1875 17.53125 46.1875 27.296875 
Q 46.1875 37.015625 41.984375 42.703125 
Q 37.796875 48.390625 30.609375 48.390625 
z
M 30.609375 56 
Q 42.328125 56 49.015625 48.375 
Q 55.71875 40.765625 55.71875 27.296875 
Q 55.71875 13.875 49.015625 6.21875 
Q 42.328125 -1.421875 30.609375 -1.421875 
Q 18.84375 -1.421875 12.171875 6.21875 
Q 5.515625 13.875 5.515625 27.296875 
Q 5.515625 40.765625 12.171875 48.375 
Q 18.84375 56 30.609375 56 
z
" id="DejaVuSans-111"/>
      <path d="M 45.40625 46.390625 
L 45.40625 75.984375 
L 54.390625 75.984375 
L 54.390625 0 
L 45.40625 0 
L 45.40625 8.203125 
Q 42.578125 3.328125 38.25 0.953125 
Q 33.9375 -1.421875 27.875 -1.421875 
Q 17.96875 -1.421875 11.734375 6.484375 
Q 5.515625 14.40625 5.515625 27.296875 
Q 5.515625 40.1875 11.734375 48.09375 
Q 17.96875 56 27.875 56 
Q 33.9375 56 38.25 53.625 
Q 42.578125 51.265625 45.40625 46.390625 
z
M 14.796875 27.296875 
Q 14.796875 17.390625 18.875 11.75 
Q 22.953125 6.109375 30.078125 6.109375 
Q 37.203125 6.109375 41.296875 11.75 
Q 45.40625 17.390625 45.40625 27.296875 
Q 45.40625 37.203125 41.296875 42.84375 
Q 37.203125 48.484375 30.078125 48.484375 
Q 22.953125 48.484375 18.875 42.84375 
Q 14.796875 37.203125 14.796875 27.296875 
z
" id="DejaVuSans-100"/>
     </defs>
     <g transform="translate(69.068912 332.565704)scale(0.1 -0.1)">
      <use xlink:href="#DejaVuSans-102"/>
      <use x="35.205078" xlink:href="#DejaVuSans-111"/>
      <use x="96.386719" xlink:href="#DejaVuSans-110"/>
      <use x="159.765625" xlink:href="#DejaVuSans-100"/>
     </g>
    </g>
   </g>
   <g id="text_36">
    <g clip-path="url(#p9bd6d8d534)">
     <!-- , -->
     <defs>
      <path d="M 11.71875 12.40625 
L 22.015625 12.40625 
L 22.015625 4 
L 14.015625 -11.625 
L 7.71875 -11.625 
L 11.71875 4 
z
" id="DejaVuSans-44"/>
     </defs>
     <g transform="translate(128.462733 332.565704)scale(0.1 -0.1)">
      <use xlink:href="#DejaVuSans-44"/>
     </g>
    </g>
   </g>
   <g id="text_37">
    <g clip-path="url(#p9bd6d8d534)">
     <!-- j' -->
     <defs>
      <path d="M 9.421875 54.6875 
L 18.40625 54.6875 
L 18.40625 -0.984375 
Q 18.40625 -11.421875 14.421875 -16.109375 
Q 10.453125 -20.796875 1.609375 -20.796875 
L -1.8125 -20.796875 
L -1.8125 -13.1875 
L 0.59375 -13.1875 
Q 5.71875 -13.1875 7.5625 -10.8125 
Q 9.421875 -8.453125 9.421875 -0.984375 
z
M 9.421875 75.984375 
L 18.40625 75.984375 
L 18.40625 64.59375 
L 9.421875 64.59375 
z
" id="DejaVuSans-106"/>
      <path d="M 17.921875 72.90625 
L 17.921875 45.796875 
L 9.625 45.796875 
L 9.625 72.90625 
z
" id="DejaVuSans-39"/>
     </defs>
     <g transform="translate(177.108899 332.565704)scale(0.1 -0.1)">
      <use xlink:href="#DejaVuSans-106"/>
      <use x="27.783203" xlink:href="#DejaVuSans-39"/>
     </g>
    </g>
   </g>
   <g id="text_38">
    <g clip-path="url(#p9bd6d8d534)">
     <!-- admettais -->
     <defs>
      <path d="M 18.3125 70.21875 
L 18.3125 54.6875 
L 36.8125 54.6875 
L 36.8125 47.703125 
L 18.3125 47.703125 
L 18.3125 18.015625 
Q 18.3125 11.328125 20.140625 9.421875 
Q 21.96875 7.515625 27.59375 7.515625 
L 36.8125 7.515625 
L 36.8125 0 
L 27.59375 0 
Q 17.1875 0 13.234375 3.875 
Q 9.28125 7.765625 9.28125 18.015625 
L 9.28125 47.703125 
L 2.6875 47.703125 
L 2.6875 54.6875 
L 9.28125 54.6875 
L 9.28125 70.21875 
z
" id="DejaVuSans-116"/>
      <path d="M 44.28125 53.078125 
L 44.28125 44.578125 
Q 40.484375 46.53125 36.375 47.5 
Q 32.28125 48.484375 27.875 48.484375 
Q 21.1875 48.484375 17.84375 46.4375 
Q 14.5 44.390625 14.5 40.28125 
Q 14.5 37.15625 16.890625 35.375 
Q 19.28125 33.59375 26.515625 31.984375 
L 29.59375 31.296875 
Q 39.15625 29.25 43.1875 25.515625 
Q 47.21875 21.78125 47.21875 15.09375 
Q 47.21875 7.46875 41.1875 3.015625 
Q 35.15625 -1.421875 24.609375 -1.421875 
Q 20.21875 -1.421875 15.453125 -0.5625 
Q 10.6875 0.296875 5.421875 2 
L 5.421875 11.28125 
Q 10.40625 8.6875 15.234375 7.390625 
Q 20.0625 6.109375 24.8125 6.109375 
Q 31.15625 6.109375 34.5625 8.28125 
Q 37.984375 10.453125 37.984375 14.40625 
Q 37.984375 18.0625 35.515625 20.015625 
Q 33.0625 21.96875 24.703125 23.78125 
L 21.578125 24.515625 
Q 13.234375 26.265625 9.515625 29.90625 
Q 5.8125 33.546875 5.8125 39.890625 
Q 5.8125 47.609375 11.28125 51.796875 
Q 16.75 56 26.8125 56 
Q 31.78125 56 36.171875 55.265625 
Q 40.578125 54.546875 44.28125 53.078125 
z
" id="DejaVuSans-115"/>
     </defs>
     <g transform="translate(204.529283 332.565704)scale(0.1 -0.1)">
      <use xlink:href="#DejaVuSans-97"/>
      <use x="61.279297" xlink:href="#DejaVuSans-100"/>
      <use x="124.755859" xlink:href="#DejaVuSans-109"/>
      <use x="222.167969" xlink:href="#DejaVuSans-101"/>
      <use x="283.691406" xlink:href="#DejaVuSans-116"/>
      <use x="322.900391" xlink:href="#DejaVuSans-116"/>
      <use x="362.109375" xlink:href="#DejaVuSans-97"/>
      <use x="423.388672" xlink:href="#DejaVuSans-105"/>
      <use x="451.171875" xlink:href="#DejaVuSans-115"/>
     </g>
    </g>
   </g>
   <g id="text_39">
    <g clip-path="url(#p9bd6d8d534)">
     <!-- l -->
     <g transform="translate(278.123886 332.565704)scale(0.1 -0.1)">
      <use xlink:href="#DejaVuSans-108"/>
     </g>
    </g>
   </g>
   <g id="text_40">
    <g clip-path="url(#p9bd6d8d534)">
     <!-- ' -->
     <g transform="translate(327.959115 332.565704)scale(0.1 -0.1)">
      <use xlink:href="#DejaVuSans-39"/>
     </g>
    </g>
   </g>
   <g id="text_41">
    <g clip-path="url(#p9bd6d8d534)">
     <!-- existence -->
     <defs>
      <path d="M 54.890625 54.6875 
L 35.109375 28.078125 
L 55.90625 0 
L 45.3125 0 
L 29.390625 21.484375 
L 13.484375 0 
L 2.875 0 
L 24.125 28.609375 
L 4.6875 54.6875 
L 15.28125 54.6875 
L 29.78125 35.203125 
L 44.28125 54.6875 
z
" id="DejaVuSans-120"/>
      <path d="M 48.78125 52.59375 
L 48.78125 44.1875 
Q 44.96875 46.296875 41.140625 47.34375 
Q 37.3125 48.390625 33.40625 48.390625 
Q 24.65625 48.390625 19.8125 42.84375 
Q 14.984375 37.3125 14.984375 27.296875 
Q 14.984375 17.28125 19.8125 11.734375 
Q 24.65625 6.203125 33.40625 6.203125 
Q 37.3125 6.203125 41.140625 7.25 
Q 44.96875 8.296875 48.78125 10.40625 
L 48.78125 2.09375 
Q 45.015625 0.34375 40.984375 -0.53125 
Q 36.96875 -1.421875 32.421875 -1.421875 
Q 20.0625 -1.421875 12.78125 6.34375 
Q 5.515625 14.109375 5.515625 27.296875 
Q 5.515625 40.671875 12.859375 48.328125 
Q 20.21875 56 33.015625 56 
Q 37.15625 56 41.109375 55.140625 
Q 45.0625 54.296875 48.78125 52.59375 
z
" id="DejaVuSans-99"/>
     </defs>
     <g transform="translate(355.093561 332.565704)scale(0.1 -0.1)">
      <use xlink:href="#DejaVuSans-101"/>
      <use x="61.507812" xlink:href="#DejaVuSans-120"/>
      <use x="120.6875" xlink:href="#DejaVuSans-105"/>
      <use x="148.470703" xlink:href="#DejaVuSans-115"/>
      <use x="200.570312" xlink:href="#DejaVuSans-116"/>
      <use x="239.779297" xlink:href="#DejaVuSans-101"/>
      <use x="301.302734" xlink:href="#DejaVuSans-110"/>
      <use x="364.681641" xlink:href="#DejaVuSans-99"/>
      <use x="419.662109" xlink:href="#DejaVuSans-101"/>
     </g>
    </g>
   </g>
   <g id="text_42">
    <g clip-path="url(#p9bd6d8d534)">
     <!-- du -->
     <g transform="translate(422.631133 332.565704)scale(0.1 -0.1)">
      <use xlink:href="#DejaVuSans-100"/>
      <use x="63.476562" xlink:href="#DejaVuSans-117"/>
     </g>
    </g>
   </g>
   <g id="text_43">
    <g clip-path="url(#p9bd6d8d534)">
     <!--  -->
     <defs>
      <path d="M 51.8125 51.703125 
L 51.8125 42.390625 
L 37.109375 29.296875 
L 51.8125 16.21875 
L 51.8125 6.890625 
L 28.90625 27.296875 
L 28.90625 31.296875 
z
M 30.609375 51.703125 
L 30.609375 42.390625 
L 15.921875 29.296875 
L 30.609375 16.21875 
L 30.609375 6.890625 
L 7.71875 27.296875 
L 7.71875 31.296875 
z
" id="DejaVuSans-171"/>
     </defs>
     <g transform="translate(475.735111 332.565704)scale(0.1 -0.1)">
      <use xlink:href="#DejaVuSans-171"/>
     </g>
    </g>
   </g>
   <g id="text_44">
    <g clip-path="url(#p9bd6d8d534)">
     <!-- monstre -->
     <g transform="translate(507.821121 332.565704)scale(0.1 -0.1)">
      <use xlink:href="#DejaVuSans-109"/>
      <use x="97.412109" xlink:href="#DejaVuSans-111"/>
      <use x="158.59375" xlink:href="#DejaVuSans-110"/>
      <use x="221.972656" xlink:href="#DejaVuSans-115"/>
      <use x="274.072266" xlink:href="#DejaVuSans-116"/>
      <use x="313.28125" xlink:href="#DejaVuSans-114"/>
      <use x="354.363281" xlink:href="#DejaVuSans-101"/>
     </g>
    </g>
   </g>
   <g id="text_45">
    <g clip-path="url(#p9bd6d8d534)">
     <!--  -->
     <defs>
      <path d="M 9.421875 51.703125 
L 32.328125 31.296875 
L 32.328125 27.296875 
L 9.421875 6.890625 
L 9.421875 16.21875 
L 24.125 29.296875 
L 9.421875 42.390625 
z
M 30.609375 51.703125 
L 53.515625 31.296875 
L 53.515625 27.296875 
L 30.609375 6.890625 
L 30.609375 16.21875 
L 45.3125 29.296875 
L 30.609375 42.390625 
z
" id="DejaVuSans-187"/>
     </defs>
     <g transform="translate(575.37588 332.565704)scale(0.1 -0.1)">
      <use xlink:href="#DejaVuSans-187"/>
     </g>
    </g>
   </g>
   <g id="text_46">
    <g clip-path="url(#p9bd6d8d534)">
     <!-- . -->
     <defs>
      <path d="M 10.6875 12.40625 
L 21 12.40625 
L 21 0 
L 10.6875 0 
z
" id="DejaVuSans-46"/>
     </defs>
     <g transform="translate(626.666577 332.565704)scale(0.1 -0.1)">
      <use xlink:href="#DejaVuSans-46"/>
     </g>
    </g>
   </g>
   <g id="text_47">
    <g clip-path="url(#p9bd6d8d534)">
     <!-- 1.1 -->
     <defs>
      <path d="M 12.40625 8.296875 
L 28.515625 8.296875 
L 28.515625 63.921875 
L 10.984375 60.40625 
L 10.984375 69.390625 
L 28.421875 72.90625 
L 38.28125 72.90625 
L 38.28125 8.296875 
L 54.390625 8.296875 
L 54.390625 0 
L 12.40625 0 
z
" id="DejaVuSans-49"/>
     </defs>
     <g transform="translate(147.010426 19.619713)scale(0.1 -0.1)">
      <use xlink:href="#DejaVuSans-49"/>
      <use x="63.623047" xlink:href="#DejaVuSans-46"/>
      <use x="95.410156" xlink:href="#DejaVuSans-49"/>
     </g>
    </g>
   </g>
   <g id="text_48">
    <g clip-path="url(#p9bd6d8d534)">
     <!-- 1.2 -->
     <defs>
      <path d="M 19.1875 8.296875 
L 53.609375 8.296875 
L 53.609375 0 
L 7.328125 0 
L 7.328125 8.296875 
Q 12.9375 14.109375 22.625 23.890625 
Q 32.328125 33.6875 34.8125 36.53125 
Q 39.546875 41.84375 41.421875 45.53125 
Q 43.3125 49.21875 43.3125 52.78125 
Q 43.3125 58.59375 39.234375 62.25 
Q 35.15625 65.921875 28.609375 65.921875 
Q 23.96875 65.921875 18.8125 64.3125 
Q 13.671875 62.703125 7.8125 59.421875 
L 7.8125 69.390625 
Q 13.765625 71.78125 18.9375 73 
Q 24.125 74.21875 28.421875 74.21875 
Q 39.75 74.21875 46.484375 68.546875 
Q 53.21875 62.890625 53.21875 53.421875 
Q 53.21875 48.921875 51.53125 44.890625 
Q 49.859375 40.875 45.40625 35.40625 
Q 44.1875 33.984375 37.640625 27.21875 
Q 31.109375 20.453125 19.1875 8.296875 
z
" id="DejaVuSans-50"/>
     </defs>
     <g transform="translate(47.369657 209.945835)scale(0.1 -0.1)">
      <use xlink:href="#DejaVuSans-49"/>
      <use x="63.623047" xlink:href="#DejaVuSans-46"/>
      <use x="95.410156" xlink:href="#DejaVuSans-50"/>
     </g>
    </g>
   </g>
   <g id="text_49">
    <g clip-path="url(#p9bd6d8d534)">
     <!-- 1.3 -->
     <defs>
      <path d="M 40.578125 39.3125 
Q 47.65625 37.796875 51.625 33 
Q 55.609375 28.21875 55.609375 21.1875 
Q 55.609375 10.40625 48.1875 4.484375 
Q 40.765625 -1.421875 27.09375 -1.421875 
Q 22.515625 -1.421875 17.65625 -0.515625 
Q 12.796875 0.390625 7.625 2.203125 
L 7.625 11.71875 
Q 11.71875 9.328125 16.59375 8.109375 
Q 21.484375 6.890625 26.8125 6.890625 
Q 36.078125 6.890625 40.9375 10.546875 
Q 45.796875 14.203125 45.796875 21.1875 
Q 45.796875 27.640625 41.28125 31.265625 
Q 36.765625 34.90625 28.71875 34.90625 
L 20.21875 34.90625 
L 20.21875 43.015625 
L 29.109375 43.015625 
Q 36.375 43.015625 40.234375 45.921875 
Q 44.09375 48.828125 44.09375 54.296875 
Q 44.09375 59.90625 40.109375 62.90625 
Q 36.140625 65.921875 28.71875 65.921875 
Q 24.65625 65.921875 20.015625 65.03125 
Q 15.375 64.15625 9.8125 62.3125 
L 9.8125 71.09375 
Q 15.4375 72.65625 20.34375 73.4375 
Q 25.25 74.21875 29.59375 74.21875 
Q 40.828125 74.21875 47.359375 69.109375 
Q 53.90625 64.015625 53.90625 55.328125 
Q 53.90625 49.265625 50.4375 45.09375 
Q 46.96875 40.921875 40.578125 39.3125 
z
" id="DejaVuSans-51"/>
     </defs>
     <g transform="translate(271.561386 84.423196)scale(0.1 -0.1)">
      <use xlink:href="#DejaVuSans-49"/>
      <use x="63.623047" xlink:href="#DejaVuSans-46"/>
      <use x="95.410156" xlink:href="#DejaVuSans-51"/>
     </g>
    </g>
   </g>
   <g id="text_50">
    <g clip-path="url(#p9bd6d8d534)">
     <!-- 1.5 -->
     <defs>
      <path d="M 10.796875 72.90625 
L 49.515625 72.90625 
L 49.515625 64.59375 
L 19.828125 64.59375 
L 19.828125 46.734375 
Q 21.96875 47.46875 24.109375 47.828125 
Q 26.265625 48.1875 28.421875 48.1875 
Q 40.625 48.1875 47.75 41.5 
Q 54.890625 34.8125 54.890625 23.390625 
Q 54.890625 11.625 47.5625 5.09375 
Q 40.234375 -1.421875 26.90625 -1.421875 
Q 22.3125 -1.421875 17.546875 -0.640625 
Q 12.796875 0.140625 7.71875 1.703125 
L 7.71875 11.625 
Q 12.109375 9.234375 16.796875 8.0625 
Q 21.484375 6.890625 26.703125 6.890625 
Q 35.15625 6.890625 40.078125 11.328125 
Q 45.015625 15.765625 45.015625 23.390625 
Q 45.015625 31 40.078125 35.4375 
Q 35.15625 39.890625 26.703125 39.890625 
Q 22.75 39.890625 18.8125 39.015625 
Q 14.890625 38.140625 10.796875 36.28125 
z
" id="DejaVuSans-53"/>
     </defs>
     <g transform="translate(171.920618 271.255769)scale(0.1 -0.1)">
      <use xlink:href="#DejaVuSans-49"/>
      <use x="63.623047" xlink:href="#DejaVuSans-46"/>
      <use x="95.410156" xlink:href="#DejaVuSans-53"/>
     </g>
    </g>
   </g>
   <g id="text_51">
    <g clip-path="url(#p9bd6d8d534)">
     <!-- 1.6 -->
     <defs>
      <path d="M 33.015625 40.375 
Q 26.375 40.375 22.484375 35.828125 
Q 18.609375 31.296875 18.609375 23.390625 
Q 18.609375 15.53125 22.484375 10.953125 
Q 26.375 6.390625 33.015625 6.390625 
Q 39.65625 6.390625 43.53125 10.953125 
Q 47.40625 15.53125 47.40625 23.390625 
Q 47.40625 31.296875 43.53125 35.828125 
Q 39.65625 40.375 33.015625 40.375 
z
M 52.59375 71.296875 
L 52.59375 62.3125 
Q 48.875 64.0625 45.09375 64.984375 
Q 41.3125 65.921875 37.59375 65.921875 
Q 27.828125 65.921875 22.671875 59.328125 
Q 17.53125 52.734375 16.796875 39.40625 
Q 19.671875 43.65625 24.015625 45.921875 
Q 28.375 48.1875 33.59375 48.1875 
Q 44.578125 48.1875 50.953125 41.515625 
Q 57.328125 34.859375 57.328125 23.390625 
Q 57.328125 12.15625 50.6875 5.359375 
Q 44.046875 -1.421875 33.015625 -1.421875 
Q 20.359375 -1.421875 13.671875 8.265625 
Q 6.984375 17.96875 6.984375 36.375 
Q 6.984375 53.65625 15.1875 63.9375 
Q 23.390625 74.21875 37.203125 74.21875 
Q 40.921875 74.21875 44.703125 73.484375 
Q 48.484375 72.75 52.59375 71.296875 
z
" id="DejaVuSans-54"/>
     </defs>
     <g transform="translate(221.741002 271.255769)scale(0.1 -0.1)">
      <use xlink:href="#DejaVuSans-49"/>
      <use x="63.623047" xlink:href="#DejaVuSans-46"/>
      <use x="95.410156" xlink:href="#DejaVuSans-54"/>
     </g>
    </g>
   </g>
   <g id="text_52">
    <g clip-path="url(#p9bd6d8d534)">
     <!-- 1.7 -->
     <defs>
      <path d="M 8.203125 72.90625 
L 55.078125 72.90625 
L 55.078125 68.703125 
L 28.609375 0 
L 18.3125 0 
L 43.21875 64.59375 
L 8.203125 64.59375 
z
" id="DejaVuSans-55"/>
     </defs>
     <g transform="translate(421.02254 147.783011)scale(0.1 -0.1)">
      <use xlink:href="#DejaVuSans-49"/>
      <use x="63.623047" xlink:href="#DejaVuSans-46"/>
      <use x="95.410156" xlink:href="#DejaVuSans-55"/>
     </g>
    </g>
   </g>
   <g id="text_53">
    <g clip-path="url(#p9bd6d8d534)">
     <!-- 1.8 -->
     <defs>
      <path d="M 31.78125 34.625 
Q 24.75 34.625 20.71875 30.859375 
Q 16.703125 27.09375 16.703125 20.515625 
Q 16.703125 13.921875 20.71875 10.15625 
Q 24.75 6.390625 31.78125 6.390625 
Q 38.8125 6.390625 42.859375 10.171875 
Q 46.921875 13.96875 46.921875 20.515625 
Q 46.921875 27.09375 42.890625 30.859375 
Q 38.875 34.625 31.78125 34.625 
z
M 21.921875 38.8125 
Q 15.578125 40.375 12.03125 44.71875 
Q 8.5 49.078125 8.5 55.328125 
Q 8.5 64.0625 14.71875 69.140625 
Q 20.953125 74.21875 31.78125 74.21875 
Q 42.671875 74.21875 48.875 69.140625 
Q 55.078125 64.0625 55.078125 55.328125 
Q 55.078125 49.078125 51.53125 44.71875 
Q 48 40.375 41.703125 38.8125 
Q 48.828125 37.15625 52.796875 32.3125 
Q 56.78125 27.484375 56.78125 20.515625 
Q 56.78125 9.90625 50.3125 4.234375 
Q 43.84375 -1.421875 31.78125 -1.421875 
Q 19.734375 -1.421875 13.25 4.234375 
Q 6.78125 9.90625 6.78125 20.515625 
Q 6.78125 27.484375 10.78125 32.3125 
Q 14.796875 37.15625 21.921875 38.8125 
z
M 18.3125 54.390625 
Q 18.3125 48.734375 21.84375 45.5625 
Q 25.390625 42.390625 31.78125 42.390625 
Q 38.140625 42.390625 41.71875 45.5625 
Q 45.3125 48.734375 45.3125 54.390625 
Q 45.3125 60.0625 41.71875 63.234375 
Q 38.140625 66.40625 31.78125 66.40625 
Q 25.390625 66.40625 21.84375 63.234375 
Q 18.3125 60.0625 18.3125 54.390625 
z
" id="DejaVuSans-56"/>
     </defs>
     <g transform="translate(321.381771 209.945835)scale(0.1 -0.1)">
      <use xlink:href="#DejaVuSans-49"/>
      <use x="63.623047" xlink:href="#DejaVuSans-46"/>
      <use x="95.410156" xlink:href="#DejaVuSans-56"/>
     </g>
    </g>
   </g>
   <g id="text_54">
    <g clip-path="url(#p9bd6d8d534)">
     <!-- 1.9 -->
     <defs>
      <path d="M 10.984375 1.515625 
L 10.984375 10.5 
Q 14.703125 8.734375 18.5 7.8125 
Q 22.3125 6.890625 25.984375 6.890625 
Q 35.75 6.890625 40.890625 13.453125 
Q 46.046875 20.015625 46.78125 33.40625 
Q 43.953125 29.203125 39.59375 26.953125 
Q 35.25 24.703125 29.984375 24.703125 
Q 19.046875 24.703125 12.671875 31.3125 
Q 6.296875 37.9375 6.296875 49.421875 
Q 6.296875 60.640625 12.9375 67.421875 
Q 19.578125 74.21875 30.609375 74.21875 
Q 43.265625 74.21875 49.921875 64.515625 
Q 56.59375 54.828125 56.59375 36.375 
Q 56.59375 19.140625 48.40625 8.859375 
Q 40.234375 -1.421875 26.421875 -1.421875 
Q 22.703125 -1.421875 18.890625 -0.6875 
Q 15.09375 0.046875 10.984375 1.515625 
z
M 30.609375 32.421875 
Q 37.25 32.421875 41.125 36.953125 
Q 45.015625 41.5 45.015625 49.421875 
Q 45.015625 57.28125 41.125 61.84375 
Q 37.25 66.40625 30.609375 66.40625 
Q 23.96875 66.40625 20.09375 61.84375 
Q 16.21875 57.28125 16.21875 49.421875 
Q 16.21875 41.5 20.09375 36.953125 
Q 23.96875 32.421875 30.609375 32.421875 
z
" id="DejaVuSans-57"/>
     </defs>
     <g transform="translate(520.663308 209.945835)scale(0.1 -0.1)">
      <use xlink:href="#DejaVuSans-49"/>
      <use x="63.623047" xlink:href="#DejaVuSans-46"/>
      <use x="95.410156" xlink:href="#DejaVuSans-57"/>
     </g>
    </g>
   </g>
   <g id="text_55">
    <g clip-path="url(#p9bd6d8d534)">
     <!-- 1.10 -->
     <defs>
      <path d="M 31.78125 66.40625 
Q 24.171875 66.40625 20.328125 58.90625 
Q 16.5 51.421875 16.5 36.375 
Q 16.5 21.390625 20.328125 13.890625 
Q 24.171875 6.390625 31.78125 6.390625 
Q 39.453125 6.390625 43.28125 13.890625 
Q 47.125 21.390625 47.125 36.375 
Q 47.125 51.421875 43.28125 58.90625 
Q 39.453125 66.40625 31.78125 66.40625 
z
M 31.78125 74.21875 
Q 44.046875 74.21875 50.515625 64.515625 
Q 56.984375 54.828125 56.984375 36.375 
Q 56.984375 17.96875 50.515625 8.265625 
Q 44.046875 -1.421875 31.78125 -1.421875 
Q 19.53125 -1.421875 13.0625 8.265625 
Q 6.59375 17.96875 6.59375 36.375 
Q 6.59375 54.828125 13.0625 64.515625 
Q 19.53125 74.21875 31.78125 74.21875 
z
" id="DejaVuSans-48"/>
     </defs>
     <g transform="translate(417.84129 271.255769)scale(0.1 -0.1)">
      <use xlink:href="#DejaVuSans-49"/>
      <use x="63.623047" xlink:href="#DejaVuSans-46"/>
      <use x="95.410156" xlink:href="#DejaVuSans-49"/>
      <use x="159.033203" xlink:href="#DejaVuSans-48"/>
     </g>
    </g>
   </g>
   <g id="text_56">
    <g clip-path="url(#p9bd6d8d534)">
     <!-- 1.11 -->
     <g transform="translate(517.482058 271.255769)scale(0.1 -0.1)">
      <use xlink:href="#DejaVuSans-49"/>
      <use x="63.623047" xlink:href="#DejaVuSans-46"/>
      <use x="95.410156" xlink:href="#DejaVuSans-49"/>
      <use x="159.033203" xlink:href="#DejaVuSans-49"/>
     </g>
    </g>
   </g>
   <g id="text_57">
    <g clip-path="url(#p9bd6d8d534)">
     <!-- 1.15 -->
     <g transform="translate(268.380136 271.255769)scale(0.1 -0.1)">
      <use xlink:href="#DejaVuSans-49"/>
      <use x="63.623047" xlink:href="#DejaVuSans-46"/>
      <use x="95.410156" xlink:href="#DejaVuSans-49"/>
      <use x="159.033203" xlink:href="#DejaVuSans-53"/>
     </g>
    </g>
   </g>
   <g id="text_58">
    <g clip-path="url(#p9bd6d8d534)">
     <!-- 1.16 -->
     <g transform="translate(368.020905 271.255769)scale(0.1 -0.1)">
      <use xlink:href="#DejaVuSans-49"/>
      <use x="63.623047" xlink:href="#DejaVuSans-46"/>
      <use x="95.410156" xlink:href="#DejaVuSans-49"/>
      <use x="159.033203" xlink:href="#DejaVuSans-54"/>
     </g>
    </g>
   </g>
   <g id="text_59">
    <g clip-path="url(#p9bd6d8d534)">
     <!-- 1.17 -->
     <g transform="translate(118.918983 271.255769)scale(0.1 -0.1)">
      <use xlink:href="#DejaVuSans-49"/>
      <use x="63.623047" xlink:href="#DejaVuSans-46"/>
      <use x="95.410156" xlink:href="#DejaVuSans-49"/>
      <use x="159.033203" xlink:href="#DejaVuSans-55"/>
     </g>
    </g>
   </g>
   <g id="text_60">
    <g clip-path="url(#p9bd6d8d534)">
     <!-- 1.18 -->
     <g transform="translate(19.278215 271.255769)scale(0.1 -0.1)">
      <use xlink:href="#DejaVuSans-49"/>
      <use x="63.623047" xlink:href="#DejaVuSans-46"/>
      <use x="95.410156" xlink:href="#DejaVuSans-49"/>
      <use x="159.033203" xlink:href="#DejaVuSans-56"/>
     </g>
    </g>
   </g>
   <g id="text_61">
    <g clip-path="url(#p9bd6d8d534)">
     <!-- 1.19 -->
     <g transform="translate(69.098599 271.255769)scale(0.1 -0.1)">
      <use xlink:href="#DejaVuSans-49"/>
      <use x="63.623047" xlink:href="#DejaVuSans-46"/>
      <use x="95.410156" xlink:href="#DejaVuSans-49"/>
      <use x="159.033203" xlink:href="#DejaVuSans-57"/>
     </g>
    </g>
   </g>
   <g id="text_62">
    <g clip-path="url(#p9bd6d8d534)">
     <!-- 1.20 -->
     <g transform="translate(156.284272 19.619713)scale(0.1 -0.1)">
      <use xlink:href="#DejaVuSans-49"/>
      <use x="63.623047" xlink:href="#DejaVuSans-46"/>
      <use x="95.410156" xlink:href="#DejaVuSans-50"/>
      <use x="159.033203" xlink:href="#DejaVuSans-48"/>
     </g>
    </g>
   </g>
   <g id="text_63">
    <g clip-path="url(#p9bd6d8d534)">
     <!-- 1.21 -->
     <g transform="translate(318.200521 271.255769)scale(0.1 -0.1)">
      <use xlink:href="#DejaVuSans-49"/>
      <use x="63.623047" xlink:href="#DejaVuSans-46"/>
      <use x="95.410156" xlink:href="#DejaVuSans-50"/>
      <use x="159.033203" xlink:href="#DejaVuSans-49"/>
     </g>
    </g>
   </g>
   <g id="text_64">
    <g clip-path="url(#p9bd6d8d534)">
     <!-- 1.22 -->
     <g transform="translate(467.661674 271.255769)scale(0.1 -0.1)">
      <use xlink:href="#DejaVuSans-49"/>
      <use x="63.623047" xlink:href="#DejaVuSans-46"/>
      <use x="95.410156" xlink:href="#DejaVuSans-50"/>
      <use x="159.033203" xlink:href="#DejaVuSans-50"/>
     </g>
    </g>
   </g>
   <g id="text_65">
    <g clip-path="url(#p9bd6d8d534)">
     <!-- 1.23 -->
     <g transform="translate(567.302443 271.255769)scale(0.1 -0.1)">
      <use xlink:href="#DejaVuSans-49"/>
      <use x="63.623047" xlink:href="#DejaVuSans-46"/>
      <use x="95.410156" xlink:href="#DejaVuSans-50"/>
      <use x="159.033203" xlink:href="#DejaVuSans-51"/>
     </g>
    </g>
   </g>
   <g id="text_66">
    <g clip-path="url(#p9bd6d8d534)">
     <!-- 1.24 -->
     <defs>
      <path d="M 37.796875 64.3125 
L 12.890625 25.390625 
L 37.796875 25.390625 
z
M 35.203125 72.90625 
L 47.609375 72.90625 
L 47.609375 25.390625 
L 58.015625 25.390625 
L 58.015625 17.1875 
L 47.609375 17.1875 
L 47.609375 0 
L 37.796875 0 
L 37.796875 17.1875 
L 4.890625 17.1875 
L 4.890625 26.703125 
z
" id="DejaVuSans-52"/>
     </defs>
     <g transform="translate(617.122827 271.255769)scale(0.1 -0.1)">
      <use xlink:href="#DejaVuSans-49"/>
      <use x="63.623047" xlink:href="#DejaVuSans-46"/>
      <use x="95.410156" xlink:href="#DejaVuSans-50"/>
      <use x="159.033203" xlink:href="#DejaVuSans-52"/>
     </g>
    </g>
   </g>
  </g>
 </g>
 <defs>
  <clipPath id="p9bd6d8d534">
   <rect height="346.666667" width="658.666667" x="0" y="0"/>
  </clipPath>
 </defs>
</svg>
