<?xml version="1.0" encoding="UTF-8"?>
<!DOCTYPE svg  PUBLIC '-//W3C//DTD SVG 1.1//EN'  'http://www.w3.org/Graphics/SVG/1.1/DTD/svg11.dtd'>
<svg width="1520pt" height="800pt" version="1.1" viewBox="0 0 1520 800" xmlns="http://www.w3.org/2000/svg" xmlns:xlink="http://www.w3.org/1999/xlink">
<defs>
<style type="text/css">*{stroke-linecap:butt;stroke-linejoin:round;}</style>
</defs>
<path d="m0 800h1520v-800h-1520z" fill="#fff"/>
<g fill="none" stroke="#000">
<path d="m162.13 36.364v91.758" clip-path="url(#a)"/>
<path d="m162.13 128.12-93.035 546.48" clip-path="url(#a)"/>
<path d="m162.13 128.12-53.795 546.48" clip-path="url(#a)"/>
<path d="m162.13 128.12-58.466 456.2" clip-path="url(#a)"/>
<path d="m162.13 128.12 25.62 456.2" clip-path="url(#a)"/>
<path d="m162.13 128.12 179.68 91.627" clip-path="url(#a)"/>
<path d="m69.091 674.6v89.038" clip-path="url(#a)"/>
<path d="m108.33 674.6-30.832 89.038" clip-path="url(#a)"/>
<path d="m108.33 674.6 30.832 89.038" clip-path="url(#a)"/>
<path d="m103.66 584.32-14.949 179.32" clip-path="url(#a)"/>
<path d="m103.66 584.32 15.883 179.32" clip-path="url(#a)"/>
<path d="m103.66 584.32-0.93429 90.277" clip-path="url(#a)"/>
<path d="m187.75 584.32-26.16 90.277" clip-path="url(#a)"/>
<path d="m187.75 584.32-0.93429 90.277" clip-path="url(#a)"/>
<path d="m187.75 584.32 27.094 90.277" clip-path="url(#a)"/>
<path d="m341.8 219.75-96.13 454.85" clip-path="url(#a)"/>
<path d="m341.8 219.75-62.495 454.85" clip-path="url(#a)"/>
<path d="m341.8 219.75-26.058 454.85" clip-path="url(#a)"/>
<path d="m341.8 219.75 184.68 91.474" clip-path="url(#a)"/>
<path d="m245.67 674.6v89.038" clip-path="url(#a)"/>
<path d="m279.31 674.6v89.038" clip-path="url(#a)"/>
<path d="m315.74 674.6v89.038" clip-path="url(#a)"/>
<path d="m526.49 311.22-171.5 363.38" clip-path="url(#a)"/>
<path d="m526.49 311.22-129.46 363.38" clip-path="url(#a)"/>
<path d="m526.49 311.22-84.612 363.38" clip-path="url(#a)"/>
<path d="m526.49 311.22-36.963 363.38" clip-path="url(#a)"/>
<path d="m526.49 311.22 409.04 91.29" clip-path="url(#a)"/>
<path d="m526.49 311.22 13.489 363.38" clip-path="url(#a)"/>
<path d="m354.98 674.6v89.038" clip-path="url(#a)"/>
<path d="m397.03 674.6v89.038" clip-path="url(#a)"/>
<path d="m441.87 674.6v89.038" clip-path="url(#a)"/>
<path d="m489.52 674.6v89.038" clip-path="url(#a)"/>
<path d="m935.53 402.51-227.85 91.059" clip-path="url(#a)"/>
<path d="m935.53 402.51 108.96 272.09" clip-path="url(#a)"/>
<path d="m935.53 402.51 82.802 91.059" clip-path="url(#a)"/>
<path d="m935.53 402.51 36.087 272.09" clip-path="url(#a)"/>
<path d="m707.68 493.57-114.45 181.03" clip-path="url(#a)"/>
<path d="m707.68 493.57-107.91 90.75" clip-path="url(#a)"/>
<path d="m707.68 493.57 62.13 181.03" clip-path="url(#a)"/>
<path d="m707.68 493.57 160.23 90.75" clip-path="url(#a)"/>
<path d="m1044.5 674.6v89.038" clip-path="url(#a)"/>
<path d="m1018.3 493.57-98.101 90.75" clip-path="url(#a)"/>
<path d="m1018.3 493.57 346.62 90.75" clip-path="url(#a)"/>
<path d="m1018.3 493.57-248.52 181.03" clip-path="url(#a)" stroke-dasharray="3.7,1.6"/>
<path d="m920.23 584.32-478.36 90.277" clip-path="url(#a)" stroke-dasharray="3.7,1.6"/>
<path d="m920.23 584.32 199.94 90.277" clip-path="url(#a)"/>
<path d="m920.23 584.32 278.42 90.277" clip-path="url(#a)"/>
<path d="m1365 584.32-85.021 90.277" clip-path="url(#a)"/>
<path d="m1365 584.32-0.93429 90.277" clip-path="url(#a)"/>
<path d="m1365 584.32 85.955 90.277" clip-path="url(#a)"/>
<path d="m1279.9 674.6v89.038" clip-path="url(#a)"/>
<path d="m1364 674.6v89.038" clip-path="url(#a)"/>
<path d="m1120.2 674.6v89.038" clip-path="url(#a)"/>
<path d="m1198.7 674.6v89.038" clip-path="url(#a)"/>
<path d="m593.23 674.6v89.038" clip-path="url(#a)"/>
<path d="m599.77 584.32-157.9 90.277" clip-path="url(#a)" stroke-dasharray="3.7,1.6"/>
<path d="m599.77 584.32 49.517 90.277" clip-path="url(#a)"/>
<path d="m599.77 584.32 108.38 90.277" clip-path="url(#a)"/>
<path d="m769.81 674.6v89.038" clip-path="url(#a)"/>
<path d="m867.91 584.32-33.635 90.277" clip-path="url(#a)"/>
<path d="m867.91 584.32 33.635 90.277" clip-path="url(#a)"/>
<path d="m834.28 674.6v89.038" clip-path="url(#a)"/>
<path d="m901.55 674.6v89.038" clip-path="url(#a)"/>
<path d="m649.29 674.6v89.038" clip-path="url(#a)"/>
<path d="m708.15 674.6v89.038" clip-path="url(#a)"/>
<path d="m161.59 674.6v89.038" clip-path="url(#a)"/>
<path d="m186.81 674.6v89.038" clip-path="url(#a)"/>
<path d="m214.84 674.6v89.038" clip-path="url(#a)"/>
<path d="m923.5 402.51-215.82 91.059" clip-path="url(#a)"/>
<path d="m923.5 402.51 120.99 272.09" clip-path="url(#a)"/>
<path d="m923.5 402.51 94.831 91.059" clip-path="url(#a)"/>
<path d="m102.73 674.6v89.038" clip-path="url(#a)"/>
<path d="m539.97 674.6v89.038" clip-path="url(#a)"/>
<path d="m971.62 674.6v89.038" clip-path="url(#a)"/>
<path d="m1450.9 674.6v89.038" clip-path="url(#a)"/>
</g>
<path d="m155.85 79.235v6.0162q0 2.4 2.4 2.4h7.7425q2.4 0 2.4-2.4v-6.0162q0-2.4-2.4-2.4h-7.7425q-2.4 0-2.4 2.4z" clip-path="url(#a)" fill="#fff" stroke="#fff"/>
<g clip-path="url(#a)">
<defs>
<path id="ag" d="m9.8125 72.906h9.8594v-29.891h35.844v29.891h9.8594v-72.906h-9.8594v34.719h-35.844v-34.719h-9.8594z"/>
</defs>
<g transform="translate(159.92 79.235) rotate(90) scale(.08 -.08)">
<use xlink:href="#ag"/>
</g>
</g>
<path d="m121.33 405.11 0.91845-5.3949q0.40279-2.366-1.9632-2.7688l-7.6327-1.2994q-2.366-0.40279-2.7688 1.9632l-0.91845 5.3949q-0.40279 2.366 1.9632 2.7688l7.6327 1.2994q2.366 0.40279 2.7688-1.9632z" clip-path="url(#a)" fill="#fff" stroke="#fff"/>
<g clip-path="url(#a)">
<defs>
<path id="r" d="m34.188 63.188-13.391-36.281h26.812zm-5.5781 9.7188h11.188l27.781-72.906h-10.25l-6.6406 18.703h-32.859l-6.6406-18.703h-10.406z"/>
</defs>
<g transform="translate(117.33 404.43) rotate(-80.338) scale(.08 -.08)">
<use xlink:href="#r"/>
</g>
</g>
<path d="m141.17 405.04 0.60347-6.1304q0.23512-2.3885-2.1533-2.6236l-7.7053-0.7585q-2.3885-0.23512-2.6236 2.1533l-0.60347 6.1304q-0.23512 2.3885 2.1533 2.6236l7.7053 0.7585q2.3885 0.23512 2.6236-2.1533z" clip-path="url(#a)" fill="#fff" stroke="#fff"/>
<g clip-path="url(#a)">
<defs>
<path id="ap" d="m19.672 64.797v-56.688h11.922q15.094 0 22.094 6.8281 7 6.8438 7 21.594 0 14.641-7 21.453t-22.094 6.8125zm-9.8594 8.1094h20.266q21.188 0 31.094-8.8125 9.9219-8.8125 9.9219-27.562 0-18.859-9.9688-27.703-9.9531-8.8281-31.047-8.8281h-20.266z"/>
</defs>
<g transform="translate(137.12 404.64) rotate(-84.378) scale(.08 -.08)">
<use xlink:href="#ap"/>
</g>
</g>
<path d="m138.81 359.41 0.61319-4.7846q0.30509-2.3805-2.0754-2.6856l-7.6797-0.98422q-2.3805-0.30509-2.6856 2.0754l-0.61319 4.7846q-0.30509 2.3805 2.0754 2.6856l7.6797 0.98422q2.3805 0.30509 2.6856-2.0754z" clip-path="url(#a)" fill="#fff" stroke="#fff"/>
<g clip-path="url(#a)">
<defs>
<path id="ak" d="m19.672 64.797v-27.391h12.406q6.8906 0 10.641 3.5625 3.7656 3.5625 3.7656 10.156 0 6.5469-3.7656 10.109-3.75 3.5625-10.641 3.5625zm-9.8594 8.1094h22.266q12.266 0 18.531-5.5469 6.2812-5.5469 6.2812-16.234 0-10.797-6.2812-16.312-6.2656-5.5156-18.531-5.5156h-12.406v-29.297h-9.8594z"/>
</defs>
<g transform="translate(134.78 358.89) rotate(-82.697) scale(.08 -.08)">
<use xlink:href="#ak"/>
</g>
</g>
<path d="m168.52 353.84 0.30685 5.4639q0.13457 2.3962 2.5308 2.2617l7.7303-0.43413q2.3962-0.13457 2.2617-2.5308l-0.30685-5.4639q-0.13457-2.3962-2.5308-2.2617l-7.7303 0.43413q-2.3962 0.13457-2.2617 2.5308z" clip-path="url(#a)" fill="#fff" stroke="#fff"/>
<g clip-path="url(#a)">
<g transform="translate(172.58 353.61) rotate(86.786) scale(.08 -.08)">
<use xlink:href="#r"/>
</g>
</g>
<path d="m246.68 178.28 4.8752 2.4861q2.138 1.0903 3.2284-1.0477l3.5174-6.8974q1.0903-2.138-1.0477-3.2284l-4.8752-2.4861q-2.138-1.0903-3.2284 1.0477l-3.5174 6.8974q-1.0903 2.138 1.0477 3.2284z" clip-path="url(#a)" fill="#fff" stroke="#fff"/>
<g clip-path="url(#a)">
<g transform="translate(248.52 174.66) rotate(27.02) scale(.08 -.08)">
<use xlink:href="#r"/>
</g>
</g>
<path d="m62.82 702.21v33.808q0 2.4 2.4 2.4h7.7425q2.4 0 2.4-2.4v-33.808q0-2.4-2.4-2.4h-7.7425q-2.4 0-2.4 2.4z" clip-path="url(#a)" fill="#fff" stroke="#fff"/>
<g clip-path="url(#a)">
<defs>
<path id="l" d="m-0.29688 72.906h61.672v-8.3125h-25.875v-64.594h-9.9062v64.594h-25.891z"/>
<path id="d" d="m56.203 29.594v-4.3906h-41.312q0.59375-9.2812 5.5938-14.141t13.938-4.8594q5.1719 0 10.031 1.2656t9.6562 3.8125v-8.5q-4.8438-2.0469-9.9219-3.125t-10.297-1.0781q-13.094 0-20.734 7.6094-7.6406 7.625-7.6406 20.625 0 13.422 7.25 21.297 7.25 7.8906 19.562 7.8906 11.031 0 17.453-7.1094 6.4219-7.0938 6.4219-19.297zm-8.9844 2.6406q-0.09375 7.3594-4.125 11.75-4.0312 4.4062-10.672 4.4062-7.5156 0-12.031-4.25t-5.2031-11.969z"/>
<path id="j" d="m41.109 46.297q-1.5156 0.875-3.2969 1.2812-1.7812 0.42188-3.9219 0.42188-7.625 0-11.703-4.9531t-4.0781-14.234v-28.812h-9.0312v54.688h9.0312v-8.5q2.8438 4.9844 7.375 7.3906 4.5469 2.4219 11.047 2.4219 0.92188 0 2.0469-0.125 1.125-0.10938 2.4844-0.35938z"/>
<path id="k" d="m52 44.188q3.375 6.0625 8.0625 8.9375t11.031 2.875q8.5469 0 13.188-5.9844 4.6406-5.9688 4.6406-17v-33.016h-9.0312v32.719q0 7.8594-2.7969 11.656-2.7812 3.8125-8.4844 3.8125-6.9844 0-11.047-4.6406-4.0469-4.625-4.0469-12.641v-30.906h-9.0312v32.719q0 7.9062-2.7812 11.688t-8.5938 3.7812q-6.8906 0-10.953-4.6562-4.0469-4.6562-4.0469-12.625v-30.906h-9.0312v54.688h9.0312v-8.5q3.0781 5.0312 7.375 7.4219t10.203 2.3906q5.9688 0 10.141-3.0312 4.1719-3.0156 6.1719-8.7812z"/>
<path id="g" d="m9.4219 54.688h8.9844v-54.688h-8.9844zm0 21.297h8.9844v-11.391h-8.9844z"/>
<path id="f" d="m54.891 33.016v-33.016h-8.9844v32.719q0 7.7656-3.0312 11.609-3.0312 3.8594-9.0781 3.8594-7.2812 0-11.484-4.6406-4.2031-4.625-4.2031-12.641v-30.906h-9.0312v54.688h9.0312v-8.5q3.2344 4.9375 7.5938 7.375 4.375 2.4375 10.094 2.4375 9.4219 0 14.25-5.8281 4.8438-5.8281 4.8438-17.156z"/>
<path id="i" d="m34.281 27.484q-10.891 0-15.094-2.4844t-4.2031-8.5q0-4.7812 3.1562-7.5938 3.1562-2.7969 8.5625-2.7969 7.4844 0 12 5.2969t4.5156 14.078v2zm17.922 3.7188v-31.203h-8.9844v8.2969q-3.0781-4.9688-7.6719-7.3438t-11.234-2.375q-8.3906 0-13.359 4.7188-4.9531 4.7188-4.9531 12.625 0 9.2188 6.1719 13.906 6.1875 4.6875 18.438 4.6875h12.609v0.89062q0 6.2031-4.0781 9.5938t-11.453 3.3906q-4.6875 0-9.1406-1.125-4.4375-1.125-8.5312-3.375v8.3125q4.9219 1.9062 9.5625 2.8438 4.6406 0.95312 9.0312 0.95312 11.875 0 17.734-6.1562 5.8594-6.1406 5.8594-18.641z"/>
<path id="h" d="m9.4219 75.984h8.9844v-75.984h-8.9844z"/>
</defs>
<g transform="translate(66.883 702.21) rotate(90) scale(.08 -.08)">
<use xlink:href="#l"/>
<use x="44.083984" xlink:href="#d"/>
<use x="105.607422" xlink:href="#j"/>
<use x="144.970703" xlink:href="#k"/>
<use x="242.382812" xlink:href="#g"/>
<use x="270.166016" xlink:href="#f"/>
<use x="333.544922" xlink:href="#i"/>
<use x="394.824219" xlink:href="#h"/>
</g>
</g>
<path d="m93.31 737.14 11.062-31.946q0.78531-2.2679-1.4826-3.0532l-7.3163-2.5334q-2.2679-0.78531-3.0532 1.4826l-11.062 31.946q-0.78531 2.2679 1.4826 3.0532l7.3163 2.5334q2.2679 0.78531 3.0532-1.4826z" clip-path="url(#a)" fill="#fff" stroke="#fff"/>
<g clip-path="url(#a)">
<g transform="translate(89.47 735.81) rotate(-70.9) scale(.08 -.08)">
<use xlink:href="#l"/>
<use x="44.083984" xlink:href="#d"/>
<use x="105.607422" xlink:href="#j"/>
<use x="144.970703" xlink:href="#k"/>
<use x="242.382812" xlink:href="#g"/>
<use x="270.166016" xlink:href="#f"/>
<use x="333.544922" xlink:href="#i"/>
<use x="394.824219" xlink:href="#h"/>
</g>
</g>
<path d="m112.29 705.2 11.062 31.946q0.78531 2.2679 3.0532 1.4826l7.3163-2.5334q2.2679-0.78531 1.4826-3.0532l-11.062-31.946q-0.78531-2.2679-3.0532-1.4826l-7.3163 2.5334q-2.2679 0.78531-1.4826 3.0532z" clip-path="url(#a)" fill="#fff" stroke="#fff"/>
<g clip-path="url(#a)">
<g transform="translate(116.13 703.87) rotate(70.9) scale(.08 -.08)">
<use xlink:href="#l"/>
<use x="44.083984" xlink:href="#d"/>
<use x="105.607422" xlink:href="#j"/>
<use x="144.970703" xlink:href="#k"/>
<use x="242.382812" xlink:href="#g"/>
<use x="270.166016" xlink:href="#f"/>
<use x="333.544922" xlink:href="#i"/>
<use x="394.824219" xlink:href="#h"/>
</g>
</g>
<path d="m101.03 691.35 2.8086-33.691q0.19939-2.3917-2.1923-2.5911l-7.7157-0.64323q-2.3917-0.19938-2.5911 2.1923l-2.8086 33.691q-0.19938 2.3917 2.1923 2.5911l7.7157 0.64323q2.3917 0.19938 2.5911-2.1923z" clip-path="url(#a)" fill="#fff" stroke="#fff"/>
<g clip-path="url(#a)">
<g transform="translate(96.981 691.01) rotate(-85.235) scale(.08 -.08)">
<use xlink:href="#l"/>
<use x="44.083984" xlink:href="#d"/>
<use x="105.607422" xlink:href="#j"/>
<use x="144.970703" xlink:href="#k"/>
<use x="242.382812" xlink:href="#g"/>
<use x="270.166016" xlink:href="#f"/>
<use x="333.544922" xlink:href="#i"/>
<use x="394.824219" xlink:href="#h"/>
</g>
</g>
<path d="m103.86 657.69 2.9828 33.676q0.21175 2.3906 2.6024 2.1789l7.7123-0.68312q2.3906-0.21175 2.1789-2.6024l-2.9828-33.676q-0.21175-2.3906-2.6024-2.1789l-7.7123 0.68312q-2.3906 0.21175-2.1789 2.6024z" clip-path="url(#a)" fill="#fff" stroke="#fff"/>
<g clip-path="url(#a)">
<g transform="translate(107.91 657.34) rotate(84.938) scale(.08 -.08)">
<use xlink:href="#l"/>
<use x="44.083984" xlink:href="#d"/>
<use x="105.607422" xlink:href="#j"/>
<use x="144.970703" xlink:href="#k"/>
<use x="242.382812" xlink:href="#g"/>
<use x="270.166016" xlink:href="#f"/>
<use x="333.544922" xlink:href="#i"/>
<use x="394.824219" xlink:href="#h"/>
</g>
</g>
<path d="m109.43 632.45 0.060592-5.8547q0.024836-2.3999-2.375-2.4247l-7.7421-0.080124q-2.3999-0.024837-2.4247 2.375l-0.060591 5.8547q-0.024837 2.3999 2.375 2.4247l7.7421 0.080124q2.3999 0.024837 2.4247-2.375z" clip-path="url(#a)" fill="#fff" stroke="#fff"/>
<g clip-path="url(#a)">
<defs>
<path id="y" d="m8.6875 72.906h9.9219v-44.297q0-11.719 4.2344-16.875 4.25-5.1406 13.781-5.1406 9.4688 0 13.719 5.1406 4.25 5.1562 4.25 16.875v44.297h9.9062v-45.516q0-14.25-7.0625-21.531-7.0469-7.2812-20.812-7.2812-13.828 0-20.891 7.2812-7.0469 7.2812-7.0469 21.531z"/>
</defs>
<g transform="translate(105.37 632.41) rotate(-89.407) scale(.08 -.08)">
<use xlink:href="#y"/>
</g>
</g>
<path d="m179.92 633.87 1.5472-5.3391q0.66798-2.3052-1.6372-2.9732l-7.4366-2.1549q-2.3052-0.66799-2.9732 1.6372l-1.5472 5.3391q-0.66799 2.3052 1.6372 2.9732l7.4366 2.1549q2.3052 0.66798 2.9732-1.6372z" clip-path="url(#a)" fill="#fff" stroke="#fff"/>
<g clip-path="url(#a)">
<defs>
<path id="z" d="m44.391 34.188q3.1719-1.0781 6.1719-4.5938t6.0312-9.6719l10.016-19.922h-10.609l-9.3125 18.703q-3.625 7.3281-7.0156 9.7188t-9.25 2.3906h-10.75v-30.812h-9.8594v72.906h22.266q12.5 0 18.656-5.2344 6.1562-5.2188 6.1562-15.766 0-6.8906-3.2031-11.438-3.2031-4.5312-9.2969-6.2812zm-24.719 30.609v-25.875h12.406q7.125 0 10.766 3.2969t3.6406 9.6875-3.6406 9.6406-10.766 3.25z"/>
</defs>
<g transform="translate(176.01 632.74) rotate(-73.84) scale(.08 -.08)">
<use xlink:href="#z"/>
</g>
</g>
<path d="m193.52 632.05 0.052312-5.0547q0.024837-2.3999-2.375-2.4247l-7.7421-0.080125q-2.3999-0.024836-2.4247 2.375l-0.052312 5.0547q-0.024837 2.3999 2.375 2.4247l7.7421 0.080124q2.3999 0.024837 2.4247-2.375z" clip-path="url(#a)" fill="#fff" stroke="#fff"/>
<g clip-path="url(#a)">
<defs>
<path id="o" d="m9.8125 72.906h46.094v-8.3125h-36.234v-21.578h34.719v-8.2969h-34.719v-26.422h37.109v-8.2969h-46.969z"/>
</defs>
<g transform="translate(189.46 632.01) rotate(-89.407) scale(.08 -.08)">
<use xlink:href="#o"/>
</g>
</g>
<path d="m194.48 628.59 1.6058 5.3505q0.6899 2.2987 2.9886 1.6088l7.4157-2.2257q2.2987-0.6899 1.6088-2.9886l-1.6058-5.3505q-0.6899-2.2987-2.9886-1.6088l-7.4157 2.2257q-2.2987 0.6899-1.6088 2.9886z" clip-path="url(#a)" fill="#fff" stroke="#fff"/>
<g clip-path="url(#a)">
<defs>
<path id="s" d="m64.406 67.281v-10.391q-4.9844 4.6406-10.625 6.9219-5.6406 2.2969-11.984 2.2969-12.5 0-19.141-7.6406t-6.6406-22.094q0-14.406 6.6406-22.047t19.141-7.6406q6.3438 0 11.984 2.2969t10.625 6.9375v-10.312q-5.1719-3.5156-10.969-5.2812-5.7812-1.75-12.219-1.75-16.562 0-26.094 10.125-9.5156 10.141-9.5156 27.672 0 17.578 9.5156 27.703 9.5312 10.141 26.094 10.141 6.5312 0 12.312-1.7344 5.7969-1.7344 10.875-5.2031z"/>
</defs>
<g transform="translate(198.38 627.42) rotate(73.294) scale(.08 -.08)">
<use xlink:href="#s"/>
</g>
</g>
<path d="m299.35 450.94 1.0453-4.9458q0.49626-2.3481-1.8519-2.8444l-7.5752-1.601q-2.3481-0.49626-2.8444 1.8519l-1.0453 4.9458q-0.49626 2.3481 1.8519 2.8444l7.5752 1.601q2.3481 0.49626 2.8444-1.8519z" clip-path="url(#a)" fill="#fff" stroke="#fff"/>
<g clip-path="url(#a)">
<g transform="translate(295.37 450.1) rotate(-78.066) scale(.08 -.08)">
<use xlink:href="#o"/>
</g>
</g>
<path d="m316.42 450.53 0.68808-5.008q0.32669-2.3777-2.051-2.7043l-7.6704-1.0539q-2.3777-0.32669-2.7043 2.051l-0.68808 5.008q-0.32669 2.3777 2.051 2.7043l7.6704 1.0539q2.3777 0.32669 2.7043-2.051z" clip-path="url(#a)" fill="#fff" stroke="#fff"/>
<g clip-path="url(#a)">
<g transform="translate(312.4 449.98) rotate(-82.177) scale(.08 -.08)">
<use xlink:href="#o"/>
</g>
</g>
<path d="m334.87 450.32 0.31951-5.5771q0.13727-2.3961-2.2588-2.5333l-7.7298-0.44284q-2.3961-0.13727-2.5333 2.2588l-0.31951 5.5771q-0.13727 2.3961 2.2588 2.5333l7.7298 0.44284q2.3961 0.13727 2.5333-2.2588z" clip-path="url(#a)" fill="#fff" stroke="#fff"/>
<g clip-path="url(#a)">
<g transform="translate(330.82 450.09) rotate(-86.721) scale(.08 -.08)">
<use xlink:href="#s"/>
</g>
</g>
<path d="m429.1 269.98 4.5298 2.2436q2.1507 1.0652 3.2159-1.0854l3.4364-6.9381q1.0652-2.1507-1.0854-3.2159l-4.5298-2.2436q-2.1507-1.0652-3.2159 1.0854l-3.4364 6.9381q-1.0652 2.1507 1.0854 3.2159z" clip-path="url(#a)" fill="#fff" stroke="#fff"/>
<g clip-path="url(#a)">
<g transform="translate(430.9 266.34) rotate(26.349) scale(.08 -.08)">
<use xlink:href="#o"/>
</g>
</g>
<path d="m239.4 702.21v33.808q0 2.4 2.4 2.4h7.7425q2.4 0 2.4-2.4v-33.808q0-2.4-2.4-2.4h-7.7425q-2.4 0-2.4 2.4z" clip-path="url(#a)" fill="#fff" stroke="#fff"/>
<g clip-path="url(#a)">
<g transform="translate(243.46 702.21) rotate(90) scale(.08 -.08)">
<use xlink:href="#l"/>
<use x="44.083984" xlink:href="#d"/>
<use x="105.607422" xlink:href="#j"/>
<use x="144.970703" xlink:href="#k"/>
<use x="242.382812" xlink:href="#g"/>
<use x="270.166016" xlink:href="#f"/>
<use x="333.544922" xlink:href="#i"/>
<use x="394.824219" xlink:href="#h"/>
</g>
</g>
<path d="m273.04 702.21v33.808q0 2.4 2.4 2.4h7.7425q2.4 0 2.4-2.4v-33.808q0-2.4-2.4-2.4h-7.7425q-2.4 0-2.4 2.4z" clip-path="url(#a)" fill="#fff" stroke="#fff"/>
<g clip-path="url(#a)">
<g transform="translate(277.1 702.21) rotate(90) scale(.08 -.08)">
<use xlink:href="#l"/>
<use x="44.083984" xlink:href="#d"/>
<use x="105.607422" xlink:href="#j"/>
<use x="144.970703" xlink:href="#k"/>
<use x="242.382812" xlink:href="#g"/>
<use x="270.166016" xlink:href="#f"/>
<use x="333.544922" xlink:href="#i"/>
<use x="394.824219" xlink:href="#h"/>
</g>
</g>
<path d="m309.47 702.21v33.808q0 2.4 2.4 2.4h7.7425q2.4 0 2.4-2.4v-33.808q0-2.4-2.4-2.4h-7.7425q-2.4 0-2.4 2.4z" clip-path="url(#a)" fill="#fff" stroke="#fff"/>
<g clip-path="url(#a)">
<g transform="translate(313.54 702.21) rotate(90) scale(.08 -.08)">
<use xlink:href="#l"/>
<use x="44.083984" xlink:href="#d"/>
<use x="105.607422" xlink:href="#j"/>
<use x="144.970703" xlink:href="#k"/>
<use x="242.382812" xlink:href="#g"/>
<use x="270.166016" xlink:href="#f"/>
<use x="333.544922" xlink:href="#i"/>
<use x="394.824219" xlink:href="#h"/>
</g>
</g>
<path d="m445.22 498.1 2.3726-5.027q1.0244-2.1704-1.1461-3.1948l-7.0018-3.3046q-2.1704-1.0244-3.1948 1.1461l-2.3726 5.027q-1.0244 2.1704 1.1461 3.1948l7.0018 3.3046q2.1704 1.0244 3.1948-1.1461z" clip-path="url(#a)" fill="#fff" stroke="#fff"/>
<g clip-path="url(#a)">
<g transform="translate(441.54 496.37) rotate(-64.734) scale(.08 -.08)">
<use xlink:href="#z"/>
</g>
</g>
<path d="m466.82 497.4 1.6965-4.7618q0.80544-2.2608-1.4554-3.0663l-7.2935-2.5984q-2.2608-0.80545-3.0663 1.4554l-1.6965 4.7618q-0.80545 2.2608 1.4554 3.0663l7.2935 2.5984q2.2608 0.80544 3.0663-1.4554z" clip-path="url(#a)" fill="#fff" stroke="#fff"/>
<g clip-path="url(#a)">
<g transform="translate(462.99 496.03) rotate(-70.391) scale(.08 -.08)">
<use xlink:href="#o"/>
</g>
</g>
<path d="m489.65 497.05 1.2669-5.4407q0.54428-2.3375-1.7932-2.8817l-7.5408-1.7559q-2.3375-0.54428-2.8817 1.7932l-1.2669 5.4407q-0.54428 2.3375 1.7932 2.8817l7.5408 1.7559q2.3375 0.54428 2.8817-1.7932z" clip-path="url(#a)" fill="#fff" stroke="#fff"/>
<g clip-path="url(#a)">
<g transform="translate(485.7 496.13) rotate(-76.892) scale(.08 -.08)">
<use xlink:href="#s"/>
</g>
</g>
<path d="m513.99 496.06 0.51156-5.029q0.24288-2.3877-2.1448-2.6306l-7.7028-0.78353q-2.3877-0.24288-2.6306 2.1448l-0.51156 5.029q-0.24288 2.3877 2.1448 2.6306l7.7028 0.78353q2.3877 0.24288 2.6306-2.1448z" clip-path="url(#a)" fill="#fff" stroke="#fff"/>
<g clip-path="url(#a)">
<g transform="translate(509.94 495.65) rotate(-84.192) scale(.08 -.08)">
<use xlink:href="#o"/>
</g>
</g>
<path d="m727.17 362.44 4.9336 1.1011q2.3424 0.52276 2.8651-1.8196l1.6865-7.5566q0.52276-2.3424-1.8196-2.8651l-4.9336-1.1011q-2.3424-0.52276-2.8651 1.8196l-1.6865 7.5566q-0.52276 2.3424 1.8196 2.8651z" clip-path="url(#a)" fill="#fff" stroke="#fff"/>
<g clip-path="url(#a)">
<g transform="translate(728.06 358.47) rotate(12.581) scale(.08 -.08)">
<use xlink:href="#o"/>
</g>
</g>
<path d="m526.85 490.22 0.21719 5.851q0.089029 2.3983 2.4874 2.3093l7.7372-0.28721q2.3983-0.089028 2.3093-2.4874l-0.21719-5.851q-0.089029-2.3983-2.4874-2.3093l-7.7372 0.28721q-2.3983 0.089029-2.3093 2.4874z" clip-path="url(#a)" fill="#fff" stroke="#fff"/>
<g clip-path="url(#a)">
<g transform="translate(530.92 490.07) rotate(87.874) scale(.08 -.08)">
<use xlink:href="#y"/>
</g>
</g>
<path d="m348.71 702.21v33.808q0 2.4 2.4 2.4h7.7425q2.4 0 2.4-2.4v-33.808q0-2.4-2.4-2.4h-7.7425q-2.4 0-2.4 2.4z" clip-path="url(#a)" fill="#fff" stroke="#fff"/>
<g clip-path="url(#a)">
<g transform="translate(352.78 702.21) rotate(90) scale(.08 -.08)">
<use xlink:href="#l"/>
<use x="44.083984" xlink:href="#d"/>
<use x="105.607422" xlink:href="#j"/>
<use x="144.970703" xlink:href="#k"/>
<use x="242.382812" xlink:href="#g"/>
<use x="270.166016" xlink:href="#f"/>
<use x="333.544922" xlink:href="#i"/>
<use x="394.824219" xlink:href="#h"/>
</g>
</g>
<path d="m390.76 702.21v33.808q0 2.4 2.4 2.4h7.7425q2.4 0 2.4-2.4v-33.808q0-2.4-2.4-2.4h-7.7425q-2.4 0-2.4 2.4z" clip-path="url(#a)" fill="#fff" stroke="#fff"/>
<g clip-path="url(#a)">
<g transform="translate(394.82 702.21) rotate(90) scale(.08 -.08)">
<use xlink:href="#l"/>
<use x="44.083984" xlink:href="#d"/>
<use x="105.607422" xlink:href="#j"/>
<use x="144.970703" xlink:href="#k"/>
<use x="242.382812" xlink:href="#g"/>
<use x="270.166016" xlink:href="#f"/>
<use x="333.544922" xlink:href="#i"/>
<use x="394.824219" xlink:href="#h"/>
</g>
</g>
<path d="m435.6 702.21v33.808q0 2.4 2.4 2.4h7.7425q2.4 0 2.4-2.4v-33.808q0-2.4-2.4-2.4h-7.7425q-2.4 0-2.4 2.4z" clip-path="url(#a)" fill="#fff" stroke="#fff"/>
<g clip-path="url(#a)">
<g transform="translate(439.67 702.21) rotate(90) scale(.08 -.08)">
<use xlink:href="#l"/>
<use x="44.083984" xlink:href="#d"/>
<use x="105.607422" xlink:href="#j"/>
<use x="144.970703" xlink:href="#k"/>
<use x="242.382812" xlink:href="#g"/>
<use x="270.166016" xlink:href="#f"/>
<use x="333.544922" xlink:href="#i"/>
<use x="394.824219" xlink:href="#h"/>
</g>
</g>
<path d="m483.25 702.21v33.808q0 2.4 2.4 2.4h7.7425q2.4 0 2.4-2.4v-33.808q0-2.4-2.4-2.4h-7.7425q-2.4 0-2.4 2.4z" clip-path="url(#a)" fill="#fff" stroke="#fff"/>
<g clip-path="url(#a)">
<g transform="translate(487.31 702.21) rotate(90) scale(.08 -.08)">
<use xlink:href="#l"/>
<use x="44.083984" xlink:href="#d"/>
<use x="105.607422" xlink:href="#j"/>
<use x="144.970703" xlink:href="#k"/>
<use x="242.382812" xlink:href="#g"/>
<use x="270.166016" xlink:href="#f"/>
<use x="333.544922" xlink:href="#i"/>
<use x="394.824219" xlink:href="#h"/>
</g>
</g>
<path d="m821.14 454.98 5.5866-2.2327q2.2286-0.89066 1.338-3.1193l-2.8733-7.1896q-0.89065-2.2286-3.1193-1.338l-5.5866 2.2327q-2.2286 0.89065-1.338 3.1193l2.8733 7.1896q0.89066 2.2286 3.1193 1.338z" clip-path="url(#a)" fill="#fff" stroke="#fff"/>
<g clip-path="url(#a)">
<g transform="translate(819.63 451.21) rotate(-21.784) scale(.08 -.08)">
<use xlink:href="#ag"/>
</g>
</g>
<path d="m983.36 538.82 1.6571 4.138q0.89224 2.228 3.1202 1.3357l7.1876-2.8784q2.228-0.89224 1.3357-3.1202l-1.6571-4.138q-0.89224-2.228-3.1202-1.3357l-7.1876 2.8784q-2.228 0.89224-1.3357 3.1202z" clip-path="url(#a)" fill="#fff" stroke="#fff"/>
<g clip-path="url(#a)">
<defs>
<path id="aa" d="m9.8125 72.906h9.8594v-64.609h35.5v-8.2969h-45.359z"/>
</defs>
<g transform="translate(987.13 537.31) rotate(68.175) scale(.08 -.08)">
<use xlink:href="#aa"/>
</g>
</g>
<path d="m970.27 450.03 4.0475 4.4512q1.6146 1.7757 3.3903 0.16102l5.7283-5.2089q1.7757-1.6146 0.16102-3.3903l-4.0475-4.4512q-1.6146-1.7757-3.3903-0.16102l-5.7283 5.2089q-1.7757 1.6146-0.16102 3.3903z" clip-path="url(#a)" fill="#fff" stroke="#fff"/>
<g clip-path="url(#a)">
<g transform="translate(973.27 447.3) rotate(47.719) scale(.08 -.08)">
<use xlink:href="#ag"/>
</g>
</g>
<path d="m946.97 536.48 0.76981 5.8042q0.31555 2.3792 2.6947 2.0636l7.6753-1.018q2.3792-0.31555 2.0636-2.6947l-0.76981-5.8042q-0.31555-2.3792-2.6947-2.0636l-7.6753 1.018q-2.3792 0.31555-2.0636 2.6947z" clip-path="url(#a)" fill="#fff" stroke="#fff"/>
<g clip-path="url(#a)">
<g transform="translate(951 535.94) rotate(82.445) scale(.08 -.08)">
<use xlink:href="#y"/>
</g>
</g>
<path d="m654.27 589.79 2.9705-4.6985q1.2825-2.0286-0.74605-3.3111l-6.5443-4.1375q-2.0286-1.2825-3.3111 0.74605l-2.9705 4.6985q-1.2825 2.0286 0.74605 3.3111l6.5443 4.1375q2.0286 1.2825 3.3111-0.74605z" clip-path="url(#a)" fill="#fff" stroke="#fff"/>
<g clip-path="url(#a)">
<g transform="translate(650.83 587.61) rotate(-57.698) scale(.08 -.08)">
<use xlink:href="#z"/>
</g>
</g>
<path d="m655.67 545.51 4.1883-3.5223q1.8368-1.5447 0.2921-3.3815l-4.9833-5.9256q-1.5447-1.8368-3.3815-0.2921l-4.1883 3.5223q-1.8368 1.5447-0.2921 3.3815l4.9833 5.9256q1.5447 1.8368 3.3815 0.2921z" clip-path="url(#a)" fill="#fff" stroke="#fff"/>
<g clip-path="url(#a)">
<g transform="translate(653.05 542.4) rotate(-40.063) scale(.08 -.08)">
<use xlink:href="#r"/>
</g>
</g>
<path d="m731.99 583.72 1.6487 4.8037q0.7791 2.27 3.0491 1.4909l7.3232-2.5134q2.27-0.7791 1.4909-3.0491l-1.6487-4.8037q-0.7791-2.27-3.0491-1.4909l-7.3232 2.5134q-2.27 0.7791-1.4909 3.0491z" clip-path="url(#a)" fill="#fff" stroke="#fff"/>
<g clip-path="url(#a)">
<defs>
<path id="aj" d="m53.516 70.516v-9.625q-5.6094 2.6875-10.594 4-4.9844 1.3281-9.625 1.3281-8.0469 0-12.422-3.125t-4.375-8.8906q0-4.8438 2.9062-7.3125 2.9062-2.4531 11.016-3.9688l5.9531-1.2188q11.031-2.1094 16.281-7.4062t5.25-14.172q0-10.609-7.1094-16.078-7.0938-5.4688-20.812-5.4688-5.1719 0-11.016 1.1719-5.8281 1.1719-12.078 3.4688v10.156q6-3.3594 11.766-5.0781 5.7656-1.7031 11.328-1.7031 8.4375 0 13.031 3.3125 4.5938 3.3281 4.5938 9.4844 0 5.3594-3.2969 8.3906t-10.812 4.5469l-6.0156 1.1719q-11.031 2.1875-15.969 6.875-4.9219 4.6875-4.9219 13.047 0 9.6719 6.8125 15.234t18.766 5.5625q5.1406 0 10.453-0.9375 5.3281-0.92188 10.891-2.7656z"/>
</defs>
<g transform="translate(735.83 582.4) rotate(71.057) scale(.08 -.08)">
<use xlink:href="#aj"/>
</g>
</g>
<path d="m782.32 543.05 4.7618 2.6969q2.0883 1.1828 3.2711-0.90555l3.8156-6.737q1.1828-2.0883-0.90556-3.2711l-4.7618-2.6969q-2.0883-1.1828-3.2711 0.90555l-3.8156 6.737q-1.1828 2.0883 0.90555 3.2711z" clip-path="url(#a)" fill="#fff" stroke="#fff"/>
<g clip-path="url(#a)">
<g transform="translate(784.33 539.52) rotate(29.526) scale(.08 -.08)">
<use xlink:href="#r"/>
</g>
</g>
<path d="m1038.2 702.21v33.808q0 2.4 2.4 2.4h7.7425q2.4 0 2.4-2.4v-33.808q0-2.4-2.4-2.4h-7.7425q-2.4 0-2.4 2.4z" clip-path="url(#a)" fill="#fff" stroke="#fff"/>
<g clip-path="url(#a)">
<g transform="translate(1042.3 702.21) rotate(90) scale(.08 -.08)">
<use xlink:href="#l"/>
<use x="44.083984" xlink:href="#d"/>
<use x="105.607422" xlink:href="#j"/>
<use x="144.970703" xlink:href="#k"/>
<use x="242.382812" xlink:href="#g"/>
<use x="270.166016" xlink:href="#f"/>
<use x="333.544922" xlink:href="#i"/>
<use x="394.824219" xlink:href="#h"/>
</g>
</g>
<path d="m971.53 545.41 4.0172-3.7162q1.7618-1.6298 0.132-3.3915l-5.2577-5.6836q-1.6298-1.7618-3.3915-0.132l-4.0172 3.7162q-1.7618 1.6298-0.132 3.3915l5.2577 5.6836q1.6298 1.7618 3.3915 0.132z" clip-path="url(#a)" fill="#fff" stroke="#fff"/>
<g clip-path="url(#a)">
<g transform="translate(968.77 542.42) rotate(-42.771) scale(.08 -.08)">
<use xlink:href="#r"/>
</g>
</g>
<path d="m1187.4 544.32 5.2941 1.3861q2.3217 0.60786 2.9296-1.7139l1.961-7.49q0.60786-2.3217-1.7139-2.9296l-5.2941-1.3861q-2.3217-0.60786-2.9296 1.7139l-1.961 7.49q-0.60786 2.3217 1.7139 2.9296z" clip-path="url(#a)" fill="#fff" stroke="#fff"/>
<g clip-path="url(#a)">
<g transform="translate(1188.4 540.39) rotate(14.671) scale(.08 -.08)">
<use xlink:href="#r"/>
</g>
</g>
<path d="m895.71 590.65 4.1051-2.9902q1.9399-1.4131 0.52685-3.353l-4.5586-6.2582q-1.4131-1.9399-3.353-0.52685l-4.1051 2.9902q-1.9399 1.4131-0.52685 3.353l4.5586 6.2582q1.4131 1.9399 3.353 0.52685z" clip-path="url(#a)" fill="#fff" stroke="#fff"/>
<g clip-path="url(#a)">
<g transform="translate(893.32 587.36) rotate(-36.07) scale(.08 -.08)">
<use xlink:href="#aj"/>
</g>
</g>
<path d="m679.73 636.09 4.9673-0.93744q2.3584-0.44508 1.9133-2.8034l-1.4358-7.6082q-0.44508-2.3584-2.8034-1.9133l-4.9673 0.93744q-2.3584 0.44508-1.9133 2.8034l1.4358 7.6082q0.44508 2.3584 2.8034 1.9133z" clip-path="url(#a)" fill="#fff" stroke="#fff"/>
<g clip-path="url(#a)">
<g transform="translate(678.98 632.1) rotate(-10.687) scale(.08 -.08)">
<use xlink:href="#o"/>
</g>
</g>
<path d="m1015.3 634.14 4.6071 2.0802q2.1874 0.98764 3.175-1.1997l3.1862-7.0565q0.98764-2.1874-1.1997-3.175l-4.6071-2.0802q-2.1874-0.98764-3.175 1.1997l-3.1862 7.0565q-0.98764 2.1874 1.1997 3.175z" clip-path="url(#a)" fill="#fff" stroke="#fff"/>
<g clip-path="url(#a)">
<g transform="translate(1017 630.43) rotate(24.3) scale(.08 -.08)">
<use xlink:href="#o"/>
</g>
</g>
<path d="m1054.8 634.56 5.3139 1.723q2.283 0.74025 3.0232-1.5427l2.3881-7.365q0.74025-2.283-1.5427-3.0232l-5.3139-1.723q-2.283-0.74025-3.0232 1.5427l-2.3881 7.365q-0.74025 2.283 1.5427 3.0232z" clip-path="url(#a)" fill="#fff" stroke="#fff"/>
<g clip-path="url(#a)">
<g transform="translate(1056.1 630.7) rotate(17.965) scale(.08 -.08)">
<use xlink:href="#s"/>
</g>
</g>
<path d="m1325.3 635.6 3.4657-3.6799q1.6454-1.7472-0.10172-3.3926l-5.6364-5.3082q-1.7472-1.6454-3.3926 0.10173l-3.4657 3.6799q-1.6454 1.7472 0.10173 3.3926l5.6364 5.3082q1.7472 1.6454 3.3926-0.10172z" clip-path="url(#a)" fill="#fff" stroke="#fff"/>
<g clip-path="url(#a)">
<g transform="translate(1322.3 632.81) rotate(-46.717) scale(.08 -.08)">
<use xlink:href="#o"/>
</g>
</g>
<path d="m1370.7 632.32 0.057811-5.586q0.024836-2.3999-2.375-2.4247l-7.7421-0.080124q-2.3999-0.024837-2.4247 2.375l-0.05781 5.586q-0.024837 2.3999 2.375 2.4247l7.7421 0.080125q2.3999 0.024836 2.4247-2.375z" clip-path="url(#a)" fill="#fff" stroke="#fff"/>
<g clip-path="url(#a)">
<g transform="translate(1366.7 632.28) rotate(-89.407) scale(.08 -.08)">
<use xlink:href="#s"/>
</g>
</g>
<path d="m1401.4 631.66 4.0374 4.2404q1.6549 1.7382 3.3931 0.083213l5.6074-5.3389q1.7382-1.6549 0.083213-3.3931l-4.0374-4.2404q-1.6549-1.7382-3.3931-0.083213l-5.6074 5.3389q-1.7382 1.6549-0.083213 3.3931z" clip-path="url(#a)" fill="#fff" stroke="#fff"/>
<g clip-path="url(#a)">
<g transform="translate(1404.3 628.86) rotate(46.405) scale(.08 -.08)">
<use xlink:href="#y"/>
</g>
</g>
<path d="m1273.7 702.21v33.808q0 2.4 2.4 2.4h7.7425q2.4 0 2.4-2.4v-33.808q0-2.4-2.4-2.4h-7.7425q-2.4 0-2.4 2.4z" clip-path="url(#a)" fill="#fff" stroke="#fff"/>
<g clip-path="url(#a)">
<g transform="translate(1277.7 702.21) rotate(90) scale(.08 -.08)">
<use xlink:href="#l"/>
<use x="44.083984" xlink:href="#d"/>
<use x="105.607422" xlink:href="#j"/>
<use x="144.970703" xlink:href="#k"/>
<use x="242.382812" xlink:href="#g"/>
<use x="270.166016" xlink:href="#f"/>
<use x="333.544922" xlink:href="#i"/>
<use x="394.824219" xlink:href="#h"/>
</g>
</g>
<path d="m1357.7 702.21v33.808q0 2.4 2.4 2.4h7.7425q2.4 0 2.4-2.4v-33.808q0-2.4-2.4-2.4h-7.7425q-2.4 0-2.4 2.4z" clip-path="url(#a)" fill="#fff" stroke="#fff"/>
<g clip-path="url(#a)">
<g transform="translate(1361.8 702.21) rotate(90) scale(.08 -.08)">
<use xlink:href="#l"/>
<use x="44.083984" xlink:href="#d"/>
<use x="105.607422" xlink:href="#j"/>
<use x="144.970703" xlink:href="#k"/>
<use x="242.382812" xlink:href="#g"/>
<use x="270.166016" xlink:href="#f"/>
<use x="333.544922" xlink:href="#i"/>
<use x="394.824219" xlink:href="#h"/>
</g>
</g>
<path d="m1113.9 702.21v33.808q0 2.4 2.4 2.4h7.7425q2.4 0 2.4-2.4v-33.808q0-2.4-2.4-2.4h-7.7425q-2.4 0-2.4 2.4z" clip-path="url(#a)" fill="#fff" stroke="#fff"/>
<g clip-path="url(#a)">
<g transform="translate(1118 702.21) rotate(90) scale(.08 -.08)">
<use xlink:href="#l"/>
<use x="44.083984" xlink:href="#d"/>
<use x="105.607422" xlink:href="#j"/>
<use x="144.970703" xlink:href="#k"/>
<use x="242.382812" xlink:href="#g"/>
<use x="270.166016" xlink:href="#f"/>
<use x="333.544922" xlink:href="#i"/>
<use x="394.824219" xlink:href="#h"/>
</g>
</g>
<path d="m1192.4 702.21v33.808q0 2.4 2.4 2.4h7.7425q2.4 0 2.4-2.4v-33.808q0-2.4-2.4-2.4h-7.7425q-2.4 0-2.4 2.4z" clip-path="url(#a)" fill="#fff" stroke="#fff"/>
<g clip-path="url(#a)">
<g transform="translate(1196.4 702.21) rotate(90) scale(.08 -.08)">
<use xlink:href="#l"/>
<use x="44.083984" xlink:href="#d"/>
<use x="105.607422" xlink:href="#j"/>
<use x="144.970703" xlink:href="#k"/>
<use x="242.382812" xlink:href="#g"/>
<use x="270.166016" xlink:href="#f"/>
<use x="333.544922" xlink:href="#i"/>
<use x="394.824219" xlink:href="#h"/>
</g>
</g>
<path d="m586.96 702.21v33.808q0 2.4 2.4 2.4h7.7425q2.4 0 2.4-2.4v-33.808q0-2.4-2.4-2.4h-7.7425q-2.4 0-2.4 2.4z" clip-path="url(#a)" fill="#fff" stroke="#fff"/>
<g clip-path="url(#a)">
<g transform="translate(591.02 702.21) rotate(90) scale(.08 -.08)">
<use xlink:href="#l"/>
<use x="44.083984" xlink:href="#d"/>
<use x="105.607422" xlink:href="#j"/>
<use x="144.970703" xlink:href="#k"/>
<use x="242.382812" xlink:href="#g"/>
<use x="270.166016" xlink:href="#f"/>
<use x="333.544922" xlink:href="#i"/>
<use x="394.824219" xlink:href="#h"/>
</g>
</g>
<path d="m521.74 636.16 4.3884-2.509q2.0835-1.1912 0.89225-3.2747l-3.843-6.7214q-1.1912-2.0835-3.2747-0.89225l-4.3884 2.509q-2.0835 1.1912-0.89226 3.2747l3.843 6.7214q1.1912 2.0835 3.2747 0.89226z" clip-path="url(#a)" fill="#fff" stroke="#fff"/>
<g clip-path="url(#a)">
<g transform="translate(519.72 632.63) rotate(-29.759) scale(.08 -.08)">
<use xlink:href="#o"/>
</g>
</g>
<path d="m617.81 630.26 2.431 4.4321q1.1542 2.1042 3.2584 0.95005l6.7884-3.7235q2.1042-1.1542 0.95005-3.2584l-2.431-4.4321q-1.1542-2.1042-3.2584-0.95005l-6.7884 3.7235q-2.1042 1.1542-0.95005 3.2584z" clip-path="url(#a)" fill="#fff" stroke="#fff"/>
<g clip-path="url(#a)">
<g transform="translate(621.38 628.31) rotate(61.255) scale(.08 -.08)">
<use xlink:href="#o"/>
</g>
</g>
<path d="m647.8 632.49 4.2922 3.5753q1.844 1.5361 3.3801-0.30799l4.9554-5.949q1.5361-1.844-0.30799-3.3801l-4.2922-3.5753q-1.844-1.5361-3.3801 0.30799l-4.9554 5.949q-1.5361 1.844 0.30799 3.3801z" clip-path="url(#a)" fill="#fff" stroke="#fff"/>
<g clip-path="url(#a)">
<g transform="translate(650.4 629.37) rotate(39.794) scale(.08 -.08)">
<use xlink:href="#s"/>
</g>
</g>
<path d="m763.54 702.21v33.808q0 2.4 2.4 2.4h7.7425q2.4 0 2.4-2.4v-33.808q0-2.4-2.4-2.4h-7.7425q-2.4 0-2.4 2.4z" clip-path="url(#a)" fill="#fff" stroke="#fff"/>
<g clip-path="url(#a)">
<g transform="translate(767.6 702.21) rotate(90) scale(.08 -.08)">
<use xlink:href="#l"/>
<use x="44.083984" xlink:href="#d"/>
<use x="105.607422" xlink:href="#j"/>
<use x="144.970703" xlink:href="#k"/>
<use x="242.382812" xlink:href="#g"/>
<use x="270.166016" xlink:href="#f"/>
<use x="333.544922" xlink:href="#i"/>
<use x="394.824219" xlink:href="#h"/>
</g>
</g>
<path d="m856.09 634.02 1.7648-4.7369q0.8379-2.249-1.4111-3.0869l-7.2553-2.7031q-2.249-0.8379-3.0869 1.4111l-1.7648 4.7369q-0.8379 2.249 1.4111 3.0869l7.2553 2.7031q2.249 0.8379 3.0869-1.4111z" clip-path="url(#a)" fill="#fff" stroke="#fff"/>
<g clip-path="url(#a)">
<g transform="translate(852.28 632.6) rotate(-69.566) scale(.08 -.08)">
<use xlink:href="#o"/>
</g>
</g>
<path d="m877.88 629.03 1.9503 5.2347q0.8379 2.249 3.0869 1.4111l7.2553-2.7031q2.249-0.8379 1.4111-3.0869l-1.9503-5.2347q-0.8379-2.249-3.0869-1.4111l-7.2553 2.7031q-2.249 0.8379-1.4111 3.0869z" clip-path="url(#a)" fill="#fff" stroke="#fff"/>
<g clip-path="url(#a)">
<g transform="translate(881.68 627.61) rotate(69.566) scale(.08 -.08)">
<use xlink:href="#s"/>
</g>
</g>
<path d="m828 702.21v33.808q0 2.4 2.4 2.4h7.7425q2.4 0 2.4-2.4v-33.808q0-2.4-2.4-2.4h-7.7425q-2.4 0-2.4 2.4z" clip-path="url(#a)" fill="#fff" stroke="#fff"/>
<g clip-path="url(#a)">
<g transform="translate(832.07 702.21) rotate(90) scale(.08 -.08)">
<use xlink:href="#l"/>
<use x="44.083984" xlink:href="#d"/>
<use x="105.607422" xlink:href="#j"/>
<use x="144.970703" xlink:href="#k"/>
<use x="242.382812" xlink:href="#g"/>
<use x="270.166016" xlink:href="#f"/>
<use x="333.544922" xlink:href="#i"/>
<use x="394.824219" xlink:href="#h"/>
</g>
</g>
<path d="m895.27 702.21v33.808q0 2.4 2.4 2.4h7.7425q2.4 0 2.4-2.4v-33.808q0-2.4-2.4-2.4h-7.7425q-2.4 0-2.4 2.4z" clip-path="url(#a)" fill="#fff" stroke="#fff"/>
<g clip-path="url(#a)">
<g transform="translate(899.34 702.21) rotate(90) scale(.08 -.08)">
<use xlink:href="#l"/>
<use x="44.083984" xlink:href="#d"/>
<use x="105.607422" xlink:href="#j"/>
<use x="144.970703" xlink:href="#k"/>
<use x="242.382812" xlink:href="#g"/>
<use x="270.166016" xlink:href="#f"/>
<use x="333.544922" xlink:href="#i"/>
<use x="394.824219" xlink:href="#h"/>
</g>
</g>
<path d="m643.02 702.21v33.808q0 2.4 2.4 2.4h7.7425q2.4 0 2.4-2.4v-33.808q0-2.4-2.4-2.4h-7.7425q-2.4 0-2.4 2.4z" clip-path="url(#a)" fill="#fff" stroke="#fff"/>
<g clip-path="url(#a)">
<g transform="translate(647.08 702.21) rotate(90) scale(.08 -.08)">
<use xlink:href="#l"/>
<use x="44.083984" xlink:href="#d"/>
<use x="105.607422" xlink:href="#j"/>
<use x="144.970703" xlink:href="#k"/>
<use x="242.382812" xlink:href="#g"/>
<use x="270.166016" xlink:href="#f"/>
<use x="333.544922" xlink:href="#i"/>
<use x="394.824219" xlink:href="#h"/>
</g>
</g>
<path d="m701.88 702.21v33.808q0 2.4 2.4 2.4h7.7425q2.4 0 2.4-2.4v-33.808q0-2.4-2.4-2.4h-7.7425q-2.4 0-2.4 2.4z" clip-path="url(#a)" fill="#fff" stroke="#fff"/>
<g clip-path="url(#a)">
<g transform="translate(705.94 702.21) rotate(90) scale(.08 -.08)">
<use xlink:href="#l"/>
<use x="44.083984" xlink:href="#d"/>
<use x="105.607422" xlink:href="#j"/>
<use x="144.970703" xlink:href="#k"/>
<use x="242.382812" xlink:href="#g"/>
<use x="270.166016" xlink:href="#f"/>
<use x="333.544922" xlink:href="#i"/>
<use x="394.824219" xlink:href="#h"/>
</g>
</g>
<path d="m155.31 702.21v33.808q0 2.4 2.4 2.4h7.7425q2.4 0 2.4-2.4v-33.808q0-2.4-2.4-2.4h-7.7425q-2.4 0-2.4 2.4z" clip-path="url(#a)" fill="#fff" stroke="#fff"/>
<g clip-path="url(#a)">
<g transform="translate(159.38 702.21) rotate(90) scale(.08 -.08)">
<use xlink:href="#l"/>
<use x="44.083984" xlink:href="#d"/>
<use x="105.607422" xlink:href="#j"/>
<use x="144.970703" xlink:href="#k"/>
<use x="242.382812" xlink:href="#g"/>
<use x="270.166016" xlink:href="#f"/>
<use x="333.544922" xlink:href="#i"/>
<use x="394.824219" xlink:href="#h"/>
</g>
</g>
<path d="m180.54 702.21v33.808q0 2.4 2.4 2.4h7.7425q2.4 0 2.4-2.4v-33.808q0-2.4-2.4-2.4h-7.7425q-2.4 0-2.4 2.4z" clip-path="url(#a)" fill="#fff" stroke="#fff"/>
<g clip-path="url(#a)">
<g transform="translate(184.6 702.21) rotate(90) scale(.08 -.08)">
<use xlink:href="#l"/>
<use x="44.083984" xlink:href="#d"/>
<use x="105.607422" xlink:href="#j"/>
<use x="144.970703" xlink:href="#k"/>
<use x="242.382812" xlink:href="#g"/>
<use x="270.166016" xlink:href="#f"/>
<use x="333.544922" xlink:href="#i"/>
<use x="394.824219" xlink:href="#h"/>
</g>
</g>
<path d="m208.57 702.21v33.808q0 2.4 2.4 2.4h7.7425q2.4 0 2.4-2.4v-33.808q0-2.4-2.4-2.4h-7.7425q-2.4 0-2.4 2.4z" clip-path="url(#a)" fill="#fff" stroke="#fff"/>
<g clip-path="url(#a)">
<g transform="translate(212.63 702.21) rotate(90) scale(.08 -.08)">
<use xlink:href="#l"/>
<use x="44.083984" xlink:href="#d"/>
<use x="105.607422" xlink:href="#j"/>
<use x="144.970703" xlink:href="#k"/>
<use x="242.382812" xlink:href="#g"/>
<use x="270.166016" xlink:href="#f"/>
<use x="333.544922" xlink:href="#i"/>
<use x="394.824219" xlink:href="#h"/>
</g>
</g>
<path d="m813.37 455.78 9.3148-3.9301q2.2112-0.93296 1.2783-3.1442l-3.0098-7.1336q-0.93296-2.2112-3.1442-1.2783l-9.3148 3.9301q-2.2112 0.93296-1.2783 3.1442l3.0098 7.1335q0.93296 2.2112 3.1442 1.2783z" clip-path="url(#a)" fill="#fff" stroke="#fff"/>
<g clip-path="url(#a)">
<g transform="translate(811.79 452.04) rotate(-22.876) scale(.08 -.08)">
<use xlink:href="#aa"/>
<use x="57.962891" xlink:href="#r"/>
</g>
</g>
<path d="m976.23 536.53 4.0698 9.1522q0.97516 2.193 3.1681 1.2178l7.0746-3.1459q2.193-0.97516 1.2178-3.1681l-4.0698-9.1522q-0.97516-2.193-3.1681-1.2178l-7.0746 3.1459q-2.193 0.97516-1.2178 3.1681z" clip-path="url(#a)" fill="#fff" stroke="#fff"/>
<g clip-path="url(#a)">
<g transform="translate(979.94 534.88) rotate(66.026) scale(.08 -.08)">
<use xlink:href="#aa"/>
<use x="55.712891" xlink:href="#z"/>
</g>
</g>
<path d="m962.93 449.06 7.2924 7.0024q1.7311 1.6623 3.3934-0.068848l5.3626-5.5847q1.6623-1.7311-0.068848-3.3934l-7.2924-7.0024q-1.7311-1.6623-3.3934 0.068849l-5.3626 5.5847q-1.6623 1.7311 0.068848 3.3934z" clip-path="url(#a)" fill="#fff" stroke="#fff"/>
<g clip-path="url(#a)">
<g transform="translate(965.74 446.13) rotate(43.838) scale(.08 -.08)">
<use xlink:href="#aa"/>
<use x="57.962891" xlink:href="#r"/>
</g>
</g>
<path d="m96.454 702.21v33.808q0 2.4 2.4 2.4h7.7425q2.4 0 2.4-2.4v-33.808q0-2.4-2.4-2.4h-7.7425q-2.4 0-2.4 2.4z" clip-path="url(#a)" fill="#fff" stroke="#fff"/>
<g clip-path="url(#a)">
<g transform="translate(100.52 702.21) rotate(90) scale(.08 -.08)">
<use xlink:href="#l"/>
<use x="44.083984" xlink:href="#d"/>
<use x="105.607422" xlink:href="#j"/>
<use x="144.970703" xlink:href="#k"/>
<use x="242.382812" xlink:href="#g"/>
<use x="270.166016" xlink:href="#f"/>
<use x="333.544922" xlink:href="#i"/>
<use x="394.824219" xlink:href="#h"/>
</g>
</g>
<path d="m533.7 702.21v33.808q0 2.4 2.4 2.4h7.7425q2.4 0 2.4-2.4v-33.808q0-2.4-2.4-2.4h-7.7425q-2.4 0-2.4 2.4z" clip-path="url(#a)" fill="#fff" stroke="#fff"/>
<g clip-path="url(#a)">
<g transform="translate(537.77 702.21) rotate(90) scale(.08 -.08)">
<use xlink:href="#l"/>
<use x="44.083984" xlink:href="#d"/>
<use x="105.607422" xlink:href="#j"/>
<use x="144.970703" xlink:href="#k"/>
<use x="242.382812" xlink:href="#g"/>
<use x="270.166016" xlink:href="#f"/>
<use x="333.544922" xlink:href="#i"/>
<use x="394.824219" xlink:href="#h"/>
</g>
</g>
<path d="m965.35 702.21v33.808q0 2.4 2.4 2.4h7.7425q2.4 0 2.4-2.4v-33.808q0-2.4-2.4-2.4h-7.7425q-2.4 0-2.4 2.4z" clip-path="url(#a)" fill="#fff" stroke="#fff"/>
<g clip-path="url(#a)">
<g transform="translate(969.41 702.21) rotate(90) scale(.08 -.08)">
<use xlink:href="#l"/>
<use x="44.083984" xlink:href="#d"/>
<use x="105.607422" xlink:href="#j"/>
<use x="144.970703" xlink:href="#k"/>
<use x="242.382812" xlink:href="#g"/>
<use x="270.166016" xlink:href="#f"/>
<use x="333.544922" xlink:href="#i"/>
<use x="394.824219" xlink:href="#h"/>
</g>
</g>
<path d="m1444.6 702.21v33.808q0 2.4 2.4 2.4h7.7425q2.4 0 2.4-2.4v-33.808q0-2.4-2.4-2.4h-7.7425q-2.4 0-2.4 2.4z" clip-path="url(#a)" fill="#fff" stroke="#fff"/>
<g clip-path="url(#a)">
<g transform="translate(1448.7 702.21) rotate(90) scale(.08 -.08)">
<use xlink:href="#l"/>
<use x="44.083984" xlink:href="#d"/>
<use x="105.607422" xlink:href="#j"/>
<use x="144.970703" xlink:href="#k"/>
<use x="242.382812" xlink:href="#g"/>
<use x="270.166016" xlink:href="#f"/>
<use x="333.544922" xlink:href="#i"/>
<use x="394.824219" xlink:href="#h"/>
</g>
</g>
<defs>
<path id="b" d="m0 8.6603c2.2967 0 4.4997-0.9125 6.1237-2.5365 1.624-1.624 2.5365-3.827 2.5365-6.1237s-0.9125-4.4997-2.5365-6.1237c-1.624-1.624-3.827-2.5365-6.1237-2.5365s-4.4997 0.9125-6.1237 2.5365c-1.624 1.624-2.5365 3.827-2.5365 6.1237s0.9125 4.4997 2.5365 6.1237c1.624 1.624 3.827 2.5365 6.1237 2.5365z"/>
</defs>
<g clip-path="url(#a)">
<use x="69.090909" y="763.636364" fill="#ffffff" stroke="#ffffff" xlink:href="#b"/>
<use x="77.499539" y="763.636364" fill="#ffffff" stroke="#ffffff" xlink:href="#b"/>
<use x="88.711046" y="763.636364" fill="#ffffff" stroke="#ffffff" xlink:href="#b"/>
<use x="102.725429" y="763.636364" fill="#ffffff" stroke="#ffffff" xlink:href="#b"/>
<use x="119.542689" y="763.636364" fill="#ffffff" stroke="#ffffff" xlink:href="#b"/>
<use x="139.162825" y="763.636364" fill="#ffffff" stroke="#ffffff" xlink:href="#b"/>
<use x="161.585838" y="763.636364" fill="#ffffff" stroke="#ffffff" xlink:href="#b"/>
<use x="186.811728" y="763.636364" fill="#ffffff" stroke="#ffffff" xlink:href="#b"/>
<use x="214.840494" y="763.636364" fill="#ffffff" stroke="#ffffff" xlink:href="#b"/>
<use x="245.672137" y="763.636364" fill="#ffffff" stroke="#ffffff" xlink:href="#b"/>
<use x="279.306657" y="763.636364" fill="#ffffff" stroke="#ffffff" xlink:href="#b"/>
<use x="315.744053" y="763.636364" fill="#ffffff" stroke="#ffffff" xlink:href="#b"/>
<use x="354.984326" y="763.636364" fill="#ffffff" stroke="#ffffff" xlink:href="#b"/>
<use x="397.027476" y="763.636364" fill="#ffffff" stroke="#ffffff" xlink:href="#b"/>
<use x="441.873502" y="763.636364" fill="#ffffff" stroke="#ffffff" xlink:href="#b"/>
<use x="489.522405" y="763.636364" fill="#ffffff" stroke="#ffffff" xlink:href="#b"/>
<use x="539.974184" y="763.636364" fill="#ffffff" stroke="#ffffff" xlink:href="#b"/>
<use x="593.22884" y="763.636364" fill="#ffffff" stroke="#ffffff" xlink:href="#b"/>
<use x="649.286373" y="763.636364" fill="#ffffff" stroke="#ffffff" xlink:href="#b"/>
<use x="708.146782" y="763.636364" fill="#ffffff" stroke="#ffffff" xlink:href="#b"/>
<use x="769.810068" y="763.636364" fill="#ffffff" stroke="#ffffff" xlink:href="#b"/>
<use x="834.276231" y="763.636364" fill="#ffffff" stroke="#ffffff" xlink:href="#b"/>
<use x="901.54527" y="763.636364" fill="#ffffff" stroke="#ffffff" xlink:href="#b"/>
<use x="971.617186" y="763.636364" fill="#ffffff" stroke="#ffffff" xlink:href="#b"/>
<use x="1044.491979" y="763.636364" fill="#ffffff" stroke="#ffffff" xlink:href="#b"/>
<use x="1120.169648" y="763.636364" fill="#ffffff" stroke="#ffffff" xlink:href="#b"/>
<use x="1198.650194" y="763.636364" fill="#ffffff" stroke="#ffffff" xlink:href="#b"/>
<use x="1279.933616" y="763.636364" fill="#ffffff" stroke="#ffffff" xlink:href="#b"/>
<use x="1364.019915" y="763.636364" fill="#ffffff" stroke="#ffffff" xlink:href="#b"/>
<use x="1450.909091" y="763.636364" fill="#ffffff" stroke="#ffffff" xlink:href="#b"/>
<use x="162.125976" y="36.363636" fill="#ffffff" stroke="#ffffff" xlink:href="#b"/>
<use x="162.125976" y="128.121905" fill="#ffffff" stroke="#ffffff" xlink:href="#b"/>
<use x="69.090909" y="674.598155" fill="#ffffff" stroke="#ffffff" xlink:href="#b"/>
<use x="108.331182" y="674.598155" fill="#ffffff" stroke="#ffffff" xlink:href="#b"/>
<use x="103.659721" y="584.321326" fill="#ffffff" stroke="#ffffff" xlink:href="#b"/>
<use x="187.74602" y="584.321326" fill="#ffffff" stroke="#ffffff" xlink:href="#b"/>
<use x="341.802047" y="219.748738" fill="#ffffff" stroke="#ffffff" xlink:href="#b"/>
<use x="245.672137" y="674.598155" fill="#ffffff" stroke="#ffffff" xlink:href="#b"/>
<use x="279.306657" y="674.598155" fill="#ffffff" stroke="#ffffff" xlink:href="#b"/>
<use x="315.744053" y="674.598155" fill="#ffffff" stroke="#ffffff" xlink:href="#b"/>
<use x="526.48534" y="311.222277" fill="#ffffff" stroke="#ffffff" xlink:href="#b"/>
<use x="354.984326" y="674.598155" fill="#ffffff" stroke="#ffffff" xlink:href="#b"/>
<use x="397.027476" y="674.598155" fill="#ffffff" stroke="#ffffff" xlink:href="#b"/>
<use x="441.873502" y="674.598155" fill="#ffffff" stroke="#ffffff" xlink:href="#b"/>
<use x="489.522405" y="674.598155" fill="#ffffff" stroke="#ffffff" xlink:href="#b"/>
<use x="935.530149" y="402.51182" fill="#ffffff" stroke="#ffffff" xlink:href="#b"/>
<use x="707.679636" y="493.571004" fill="#ffffff" stroke="#ffffff" xlink:href="#b"/>
<use x="1044.491979" y="674.598155" fill="#ffffff" stroke="#ffffff" xlink:href="#b"/>
<use x="1018.331797" y="493.571004" fill="#ffffff" stroke="#ffffff" xlink:href="#b"/>
<use x="920.231114" y="584.321326" fill="#ffffff" stroke="#ffffff" xlink:href="#b"/>
<use x="1364.954207" y="584.321326" fill="#ffffff" stroke="#ffffff" xlink:href="#b"/>
<use x="1279.933616" y="674.598155" fill="#ffffff" stroke="#ffffff" xlink:href="#b"/>
<use x="1364.019915" y="674.598155" fill="#ffffff" stroke="#ffffff" xlink:href="#b"/>
<use x="1120.169648" y="674.598155" fill="#ffffff" stroke="#ffffff" xlink:href="#b"/>
<use x="1198.650194" y="674.598155" fill="#ffffff" stroke="#ffffff" xlink:href="#b"/>
<use x="593.22884" y="674.598155" fill="#ffffff" stroke="#ffffff" xlink:href="#b"/>
<use x="599.768886" y="584.321326" fill="#ffffff" stroke="#ffffff" xlink:href="#b"/>
<use x="769.810068" y="674.598155" fill="#ffffff" stroke="#ffffff" xlink:href="#b"/>
<use x="867.910751" y="584.321326" fill="#ffffff" stroke="#ffffff" xlink:href="#b"/>
<use x="834.276231" y="674.598155" fill="#ffffff" stroke="#ffffff" xlink:href="#b"/>
<use x="901.54527" y="674.598155" fill="#ffffff" stroke="#ffffff" xlink:href="#b"/>
<use x="649.286373" y="674.598155" fill="#ffffff" stroke="#ffffff" xlink:href="#b"/>
<use x="708.146782" y="674.598155" fill="#ffffff" stroke="#ffffff" xlink:href="#b"/>
<use x="161.585838" y="674.598155" fill="#ffffff" stroke="#ffffff" xlink:href="#b"/>
<use x="186.811728" y="674.598155" fill="#ffffff" stroke="#ffffff" xlink:href="#b"/>
<use x="214.840494" y="674.598155" fill="#ffffff" stroke="#ffffff" xlink:href="#b"/>
<use x="923.501137" y="402.51182" fill="#808080" stroke="#808080" xlink:href="#b"/>
<use x="102.725429" y="674.598155" fill="#ffffff" stroke="#ffffff" xlink:href="#b"/>
<use x="539.974184" y="674.598155" fill="#ffffff" stroke="#ffffff" xlink:href="#b"/>
<use x="971.617186" y="674.598155" fill="#ffffff" stroke="#ffffff" xlink:href="#b"/>
<use x="1450.909091" y="674.598155" fill="#ffffff" stroke="#ffffff" xlink:href="#b"/>
</g>
<g clip-path="url(#a)">
<defs>
<path id="x" d="m30.609 48.391q-7.2188 0-11.422-5.6406t-4.2031-15.453 4.1719-15.453q4.1875-5.6406 11.453-5.6406 7.1875 0 11.375 5.6562 4.2031 5.6719 4.2031 15.438 0 9.7188-4.2031 15.406-4.1875 5.6875-11.375 5.6875zm0 7.6094q11.719 0 18.406-7.625 6.7031-7.6094 6.7031-21.078 0-13.422-6.7031-21.078-6.6875-7.6406-18.406-7.6406-11.766 0-18.438 7.6406-6.6562 7.6562-6.6562 21.078 0 13.469 6.6562 21.078 6.6719 7.625 18.438 7.625z"/>
<path id="ai" d="m8.5 21.578v33.109h8.9844v-32.766q0-7.7656 3.0156-11.656 3.0312-3.875 9.0938-3.875 7.2656 0 11.484 4.6406 4.2344 4.6406 4.2344 12.656v31h8.9844v-54.688h-8.9844v8.4062q-3.2656-4.9844-7.5938-7.4062-4.3125-2.4219-10.031-2.4219-9.4219 0-14.312 5.8594-4.875 5.8594-4.875 17.141z"/>
<path id="an" d="m14.797 27.297q0-9.9062 4.0781-15.547t11.203-5.6406 11.219 5.6406q4.1094 5.6406 4.1094 15.547t-4.1094 15.547q-4.0938 5.6406-11.219 5.6406t-11.203-5.6406-4.0781-15.547zm30.609-19.094q-2.8281-4.875-7.1562-7.25-4.3125-2.375-10.375-2.375-9.9062 0-16.141 7.9062-6.2188 7.9219-6.2188 20.812t6.2188 20.797q6.2344 7.9062 16.141 7.9062 6.0625 0 10.375-2.375 4.3281-2.3594 7.1562-7.2344v8.2969h8.9844v-75.484h-8.9844z"/>
</defs>
<g transform="translate(47.27 766.4) scale(.1 -.1)">
<use xlink:href="#ak"/>
<use x="56.677734" xlink:href="#x"/>
<use x="117.859375" xlink:href="#ai"/>
<use x="181.238281" xlink:href="#j"/>
<use x="220.601562" xlink:href="#an"/>
<use x="284.078125" xlink:href="#ai"/>
<use x="347.457031" xlink:href="#x"/>
<use x="408.638672" xlink:href="#g"/>
</g>
</g>
<g clip-path="url(#a)">
<g transform="translate(71.254 766.4) scale(.1 -.1)">
<use xlink:href="#f"/>
<use x="63.378906" xlink:href="#d"/>
</g>
</g>
<g clip-path="url(#a)">
<defs>
<path id="u" d="m48.781 52.594v-8.4062q-3.8125 2.1094-7.6406 3.1562t-7.7344 1.0469q-8.75 0-13.594-5.5469-4.8281-5.5312-4.8281-15.547t4.8281-15.562q4.8438-5.5312 13.594-5.5312 3.9062 0 7.7344 1.0469t7.6406 3.1562v-8.3125q-3.7656-1.75-7.7969-2.625-4.0156-0.89062-8.5625-0.89062-12.359 0-19.641 7.7656-7.2656 7.7656-7.2656 20.953 0 13.375 7.3438 21.031 7.3594 7.6719 20.156 7.6719 4.1406 0 8.0938-0.85938 3.9531-0.84375 7.6719-2.5469z"/>
<path id="at" d="m54.891 33.016v-33.016h-8.9844v32.719q0 7.7656-3.0312 11.609-3.0312 3.8594-9.0781 3.8594-7.2812 0-11.484-4.6406-4.2031-4.625-4.2031-12.641v-30.906h-9.0312v75.984h9.0312v-29.797q3.2344 4.9375 7.5938 7.375 4.375 2.4375 10.094 2.4375 9.4219 0 14.25-5.8281 4.8438-5.8281 4.8438-17.156z"/>
<path id="t" d="m18.312 70.219v-15.531h18.5v-6.9844h-18.5v-29.688q0-6.6875 1.8281-8.5938t7.4531-1.9062h9.2188v-7.5156h-9.2188q-10.406 0-14.359 3.875-3.9531 3.8906-3.9531 14.141v29.688h-6.5938v6.9844h6.5938v15.531z"/>
</defs>
<g transform="translate(65.434 766.4) scale(.1 -.1)">
<use xlink:href="#u"/>
<use x="54.980469" xlink:href="#i"/>
<use x="116.259766" xlink:href="#u"/>
<use x="171.240234" xlink:href="#at"/>
<use x="234.619141" xlink:href="#d"/>
<use x="296.142578" xlink:href="#j"/>
<use x="337.255859" xlink:href="#i"/>
<use x="398.535156" xlink:href="#g"/>
<use x="426.318359" xlink:href="#t"/>
</g>
</g>
<g clip-path="url(#a)">
<defs>
<path id="ar" d="m4.8906 31.391h26.312v-8h-26.312z"/>
</defs>
<g transform="translate(100.92 766.4) scale(.1 -.1)">
<use xlink:href="#ar"/>
</g>
</g>
<g clip-path="url(#a)">
<g transform="translate(110.61 766.4) scale(.1 -.1)">
<use xlink:href="#d"/>
<use x="61.523438" xlink:href="#h"/>
<use x="89.306641" xlink:href="#h"/>
<use x="117.089844" xlink:href="#d"/>
</g>
</g>
<g clip-path="url(#a)">
<defs>
<path id="ao" d="m18.109 8.2031v-29h-9.0312v75.484h9.0312v-8.2969q2.8438 4.875 7.1562 7.2344 4.3281 2.375 10.328 2.375 9.9688 0 16.188-7.9062 6.2344-7.9062 6.2344-20.797t-6.2344-20.812q-6.2188-7.9062-16.188-7.9062-6 0-10.328 2.375-4.3125 2.375-7.1562 7.25zm30.578 19.094q0 9.9062-4.0781 15.547t-11.203 5.6406q-7.1406 0-11.219-5.6406t-4.0781-15.547 4.0781-15.547 11.219-5.6406q7.125 0 11.203 5.6406t4.0781 15.547z"/>
<path id="m" d="m44.281 53.078v-8.5q-3.7969 1.9531-7.9062 2.9219-4.0938 0.98438-8.5 0.98438-6.6875 0-10.031-2.0469t-3.3438-6.1562q0-3.125 2.3906-4.9062t9.625-3.3906l3.0781-0.6875q9.5625-2.0469 13.594-5.7812t4.0312-10.422q0-7.625-6.0312-12.078-6.0312-4.4375-16.578-4.4375-4.3906 0-9.1562 0.85938t-10.031 2.5625v9.2812q4.9844-2.5938 9.8125-3.8906 4.8281-1.2812 9.5781-1.2812 6.3438 0 9.75 2.1719 3.4219 2.1719 3.4219 6.125 0 3.6562-2.4688 5.6094-2.4531 1.9531-10.812 3.7656l-3.125 0.73438q-8.3438 1.75-12.062 5.3906-3.7031 3.6406-3.7031 9.9844 0 7.7188 5.4688 11.906 5.4688 4.2031 15.531 4.2031 4.9688 0 9.3594-0.73438 4.4062-0.71875 8.1094-2.1875z"/>
</defs>
<g transform="translate(130.32 766.4) scale(.1 -.1)">
<use xlink:href="#ao"/>
<use x="63.476562" xlink:href="#i"/>
<use x="124.755859" xlink:href="#m"/>
</g>
</g>
<g clip-path="url(#a)">
<defs>
<path id="v" d="m45.406 46.391v29.594h8.9844v-75.984h-8.9844v8.2031q-2.8281-4.875-7.1562-7.25-4.3125-2.375-10.375-2.375-9.9062 0-16.141 7.9062-6.2188 7.9219-6.2188 20.812t6.2188 20.797q6.2344 7.9062 16.141 7.9062 6.0625 0 10.375-2.375 4.3281-2.3594 7.1562-7.2344zm-30.609-19.094q0-9.9062 4.0781-15.547t11.203-5.6406 11.219 5.6406q4.1094 5.6406 4.1094 15.547t-4.1094 15.547q-4.0938 5.6406-11.219 5.6406t-11.203-5.6406-4.0781-15.547z"/>
</defs>
<g transform="translate(149.57 766.4) scale(.1 -.1)">
<use xlink:href="#v"/>
<use x="63.476562" xlink:href="#i"/>
<use x="124.755859" xlink:href="#f"/>
<use x="188.134766" xlink:href="#m"/>
</g>
</g>
<g clip-path="url(#a)">
<g transform="translate(177.98 766.4) scale(.1 -.1)">
<use xlink:href="#m"/>
<use x="52.099609" xlink:href="#x"/>
<use x="113.28125" xlink:href="#f"/>
</g>
</g>
<g clip-path="url(#a)">
<g transform="translate(204.6 766.4) scale(.1 -.1)">
<use xlink:href="#m"/>
<use x="52.099609" xlink:href="#d"/>
<use x="113.623047" xlink:href="#g"/>
<use x="141.40625" xlink:href="#f"/>
</g>
</g>
<g clip-path="url(#a)">
<g transform="translate(238.6 766.4) scale(.1 -.1)">
<use xlink:href="#h"/>
<use x="27.783203" xlink:href="#d"/>
<use x="89.306641" xlink:href="#m"/>
</g>
</g>
<g clip-path="url(#a)">
<defs>
<path id="af" d="m56.203 29.594v-4.3906h-41.312q0.59375-9.2812 5.5938-14.141t13.938-4.8594q5.1719 0 10.031 1.2656t9.6562 3.8125v-8.5q-4.8438-2.0469-9.9219-3.125t-10.297-1.0781q-13.094 0-20.734 7.6094-7.6406 7.625-7.6406 20.625 0 13.422 7.25 21.297 7.25 7.8906 19.562 7.8906 11.031 0 17.453-7.1094 6.4219-7.0938 6.4219-19.297zm-8.9844 2.6406q-0.09375 7.3594-4.125 11.75-4.0312 4.4062-10.672 4.4062-7.5156 0-12.031-4.25t-5.2031-11.969zm-22.547 47.75 13.766-18.266h-7.4688l-15.922 18.266z"/>
</defs>
<g transform="translate(255.83 766.4) scale(.1 -.1)">
<use xlink:href="#v"/>
<use x="63.476562" xlink:href="#d"/>
<use x="125" xlink:href="#j"/>
<use x="164.363281" xlink:href="#f"/>
<use x="227.742188" xlink:href="#g"/>
<use x="255.525391" xlink:href="#af"/>
<use x="317.048828" xlink:href="#j"/>
<use x="355.912109" xlink:href="#d"/>
<use x="417.435547" xlink:href="#m"/>
</g>
</g>
<g clip-path="url(#a)">
<defs>
<path id="as" d="m2.9844 54.688h9.5156l17.094-45.891 17.094 45.891h9.5156l-20.516-54.688h-12.203z"/>
<path id="ae" d="m56.203 29.594v-4.3906h-41.312q0.59375-9.2812 5.5938-14.141t13.938-4.8594q5.1719 0 10.031 1.2656t9.6562 3.8125v-8.5q-4.8438-2.0469-9.9219-3.125t-10.297-1.0781q-13.094 0-20.734 7.6094-7.6406 7.625-7.6406 20.625 0 13.422 7.25 21.297 7.25 7.8906 19.562 7.8906 11.031 0 17.453-7.1094 6.4219-7.0938 6.4219-19.297zm-8.9844 2.6406q-0.09375 7.3594-4.125 11.75-4.0312 4.4062-10.672 4.4062-7.5156 0-12.031-4.25t-5.2031-11.969zm-8.6875 47.75h9.7188l-15.906-18.359h-7.4844z"/>
</defs>
<g transform="translate(295.56 766.4) scale(.1 -.1)">
<use xlink:href="#as"/>
<use x="59.179688" xlink:href="#i"/>
<use x="120.458984" xlink:href="#j"/>
<use x="161.572266" xlink:href="#g"/>
<use x="189.355469" xlink:href="#ae"/>
<use x="250.878906" xlink:href="#t"/>
<use x="290.087891" xlink:href="#ae"/>
<use x="351.611328" xlink:href="#m"/>
</g>
</g>
<g clip-path="url(#a)">
<g transform="translate(348.73 766.4) scale(.1 -.1)">
<use xlink:href="#v"/>
<use x="63.476562" xlink:href="#d"/>
</g>
</g>
<g clip-path="url(#a)">
<g transform="translate(388.6 766.4) scale(.1 -.1)">
<use xlink:href="#u"/>
<use x="54.980469" xlink:href="#d"/>
<use x="116.503906" xlink:href="#m"/>
</g>
</g>
<g clip-path="url(#a)">
<g transform="translate(421.51 766.6) scale(.1 -.1)">
<use xlink:href="#d"/>
<use x="61.523438" xlink:href="#m"/>
<use x="113.623047" xlink:href="#ao"/>
<use x="177.099609" xlink:href="#af"/>
<use x="238.623047" xlink:href="#u"/>
<use x="293.603516" xlink:href="#d"/>
<use x="355.126953" xlink:href="#m"/>
</g>
</g>
<g clip-path="url(#a)">
<g transform="translate(460.27 766.4) scale(.1 -.1)">
<use xlink:href="#t"/>
<use x="39.208984" xlink:href="#g"/>
<use x="66.992188" xlink:href="#t"/>
<use x="106.201172" xlink:href="#i"/>
<use x="167.480469" xlink:href="#f"/>
<use x="230.859375" xlink:href="#d"/>
<use x="292.382812" xlink:href="#m"/>
<use x="344.482422" xlink:href="#an"/>
<use x="407.958984" xlink:href="#ai"/>
<use x="471.337891" xlink:href="#d"/>
<use x="532.861328" xlink:href="#m"/>
</g>
</g>
<g clip-path="url(#a)">
<defs>
<path id="am" d="m11.719 12.406h10.297v-8.4062l-8-15.625h-6.2969l4 15.625z"/>
</defs>
<g transform="translate(538.39 766.4) scale(.1 -.1)">
<use xlink:href="#am"/>
</g>
</g>
<g clip-path="url(#a)">
<g transform="translate(581.87 766.4) scale(.1 -.1)">
<use xlink:href="#v"/>
<use x="63.476562" xlink:href="#x"/>
<use x="124.658203" xlink:href="#f"/>
<use x="188.037109" xlink:href="#t"/>
</g>
</g>
<g clip-path="url(#a)">
<g transform="translate(642.22 766.4) scale(.1 -.1)">
<use xlink:href="#h"/>
<use x="27.783203" xlink:href="#d"/>
<use x="89.306641" xlink:href="#m"/>
</g>
</g>
<g clip-path="url(#a)">
<g transform="translate(689.99 766.4) scale(.1 -.1)">
<use xlink:href="#i"/>
<use x="61.279297" xlink:href="#f"/>
<use x="124.658203" xlink:href="#f"/>
<use x="188.037109" xlink:href="#ae"/>
<use x="249.560547" xlink:href="#d"/>
<use x="311.083984" xlink:href="#m"/>
</g>
</g>
<g clip-path="url(#a)">
<g transform="translate(759.02 766.4) scale(.1 -.1)">
<use xlink:href="#m"/>
<use x="52.099609" xlink:href="#x"/>
<use x="113.28125" xlink:href="#f"/>
<use x="176.660156" xlink:href="#t"/>
</g>
</g>
<g clip-path="url(#a)">
<g transform="translate(825.42 766.4) scale(.1 -.1)">
<use xlink:href="#v"/>
<use x="63.476562" xlink:href="#d"/>
<use x="125" xlink:href="#m"/>
</g>
</g>
<g clip-path="url(#a)">
<g transform="translate(884.66 766.4) scale(.1 -.1)">
<use xlink:href="#m"/>
<use x="52.099609" xlink:href="#g"/>
<use x="79.882812" xlink:href="#af"/>
<use x="141.40625" xlink:href="#u"/>
<use x="196.386719" xlink:href="#h"/>
<use x="224.169922" xlink:href="#d"/>
<use x="285.693359" xlink:href="#m"/>
</g>
</g>
<g clip-path="url(#a)">
<g transform="translate(970.03 766.4) scale(.1 -.1)">
<use xlink:href="#am"/>
</g>
</g>
<g clip-path="url(#a)">
<g transform="translate(1039.5 766.4) scale(.1 -.1)">
<use xlink:href="#d"/>
<use x="61.523438" xlink:href="#t"/>
</g>
</g>
<g clip-path="url(#a)">
<g transform="translate(1113.1 766.4) scale(.1 -.1)">
<use xlink:href="#h"/>
<use x="27.783203" xlink:href="#d"/>
<use x="89.306641" xlink:href="#m"/>
</g>
</g>
<g clip-path="url(#a)">
<g transform="translate(1181.8 766.4) scale(.1 -.1)">
<use xlink:href="#m"/>
<use x="52.099609" xlink:href="#g"/>
<use x="79.882812" xlink:href="#af"/>
<use x="141.40625" xlink:href="#u"/>
<use x="196.386719" xlink:href="#h"/>
<use x="224.169922" xlink:href="#d"/>
<use x="285.693359" xlink:href="#m"/>
</g>
</g>
<g clip-path="url(#a)">
<g transform="translate(1271.1 766.4) scale(.1 -.1)">
<use xlink:href="#v"/>
<use x="63.476562" xlink:href="#d"/>
<use x="125" xlink:href="#m"/>
</g>
</g>
<g clip-path="url(#a)">
<g transform="translate(1336.7 766.4) scale(.1 -.1)">
<use xlink:href="#k"/>
<use x="97.412109" xlink:href="#g"/>
<use x="125.195312" xlink:href="#h"/>
<use x="152.978516" xlink:href="#h"/>
<use x="180.761719" xlink:href="#ae"/>
<use x="242.285156" xlink:href="#f"/>
<use x="305.664062" xlink:href="#i"/>
<use x="366.943359" xlink:href="#g"/>
<use x="394.726562" xlink:href="#j"/>
<use x="433.589844" xlink:href="#d"/>
<use x="495.113281" xlink:href="#m"/>
</g>
</g>
<g clip-path="url(#a)">
<defs>
<path id="aq" d="m19.094 12.406h9.9062v-12.406h-9.9062zm9.625 7.1719h-9.3281v7.5156q0 4.9375 1.3594 8.1094 1.375 3.1719 5.7656 7.375l4.3906 4.3438q2.7812 2.5938 4.0312 4.8906t1.25 4.6875q0 4.3438-3.2031 7.0312t-8.4688 2.6875q-3.8594 0-8.2344-1.7188-4.3594-1.7031-9.1094-4.9844v9.1875q4.5938 2.7812 9.2969 4.1406 4.7188 1.375 9.75 1.375 8.9844 0 14.422-4.7344 5.4531-4.7344 5.4531-12.5 0-3.7188-1.7656-7.0625-1.75-3.3438-6.1406-7.5312l-4.2969-4.2031q-2.2969-2.2969-3.25-3.5938t-1.3438-2.5156q-0.29688-1.0156-0.4375-2.4844t-0.14062-4z"/>
</defs>
<g transform="translate(1448.3 766.4) scale(.1 -.1)">
<use xlink:href="#aq"/>
</g>
</g>
<g clip-path="url(#a)">
<defs>
<path id="c" d="m12.406 8.2969h16.109v55.625l-17.531-3.5156v8.9844l17.438 3.5156h9.8594v-64.609h16.109v-8.2969h-41.984z"/>
<path id="e" d="m10.688 12.406h10.312v-12.406h-10.312z"/>
</defs>
<g transform="translate(154.17 39.123) scale(.1 -.1)">
<use xlink:href="#c"/>
<use x="63.623047" xlink:href="#e"/>
<use x="95.410156" xlink:href="#c"/>
</g>
</g>
<g clip-path="url(#a)">
<defs>
<path id="p" d="m19.188 8.2969h34.422v-8.2969h-46.281v8.2969q5.6094 5.8125 15.297 15.594 9.7031 9.7969 12.188 12.641 4.7344 5.3125 6.6094 9 1.8906 3.6875 1.8906 7.25 0 5.8125-4.0781 9.4688-4.0781 3.6719-10.625 3.6719-4.6406 0-9.7969-1.6094-5.1406-1.6094-11-4.8906v9.9688q5.9531 2.3906 11.125 3.6094 5.1875 1.2188 9.4844 1.2188 11.328 0 18.062-5.6719 6.7344-5.6562 6.7344-15.125 0-4.5-1.6875-8.5312-1.6719-4.0156-6.125-9.4844-1.2188-1.4219-7.7656-8.1875-6.5312-6.7656-18.453-18.922z"/>
</defs>
<g transform="translate(154.17 130.88) scale(.1 -.1)">
<use xlink:href="#c"/>
<use x="63.623047" xlink:href="#e"/>
<use x="95.410156" xlink:href="#p"/>
</g>
</g>
<g clip-path="url(#a)">
<defs>
<path id="n" d="m40.578 39.312q7.0781-1.5156 11.047-6.3125 3.9844-4.7812 3.9844-11.812 0-10.781-7.4219-16.703-7.4219-5.9062-21.094-5.9062-4.5781 0-9.4375 0.90625t-10.031 2.7188v9.5156q4.0938-2.3906 8.9688-3.6094 4.8906-1.2188 10.219-1.2188 9.2656 0 14.125 3.6562t4.8594 10.641q0 6.4531-4.5156 10.078-4.5156 3.6406-12.562 3.6406h-8.5v8.1094h8.8906q7.2656 0 11.125 2.9062t3.8594 8.375q0 5.6094-3.9844 8.6094-3.9688 3.0156-11.391 3.0156-4.0625 0-8.7031-0.89062-4.6406-0.875-10.203-2.7188v8.7812q5.625 1.5625 10.531 2.3438t9.25 0.78125q11.234 0 17.766-5.1094 6.5469-5.0938 6.5469-13.781 0-6.0625-3.4688-10.234t-9.8594-5.7812z"/>
</defs>
<g transform="translate(61.139 677.36) scale(.1 -.1)">
<use xlink:href="#c"/>
<use x="63.623047" xlink:href="#e"/>
<use x="95.410156" xlink:href="#n"/>
</g>
</g>
<g clip-path="url(#a)">
<defs>
<path id="q" d="m37.797 64.312-24.906-38.922h24.906zm-2.5938 8.5938h12.406v-47.516h10.406v-8.2031h-10.406v-17.188h-9.8125v17.188h-32.906v9.5156z"/>
</defs>
<g transform="translate(100.38 677.36) scale(.1 -.1)">
<use xlink:href="#c"/>
<use x="63.623047" xlink:href="#e"/>
<use x="95.410156" xlink:href="#q"/>
</g>
</g>
<g clip-path="url(#a)">
<defs>
<path id="w" d="m10.797 72.906h38.719v-8.3125h-29.688v-17.859q2.1406 0.73438 4.2812 1.0938 2.1562 0.35938 4.3125 0.35938 12.203 0 19.328-6.6875 7.1406-6.6875 7.1406-18.109 0-11.766-7.3281-18.297-7.3281-6.5156-20.656-6.5156-4.5938 0-9.3594 0.78125-4.75 0.78125-9.8281 2.3438v9.9219q4.3906-2.3906 9.0781-3.5625t9.9062-1.1719q8.4531 0 13.375 4.4375 4.9375 4.4375 4.9375 12.062 0 7.6094-4.9375 12.047-4.9219 4.4531-13.375 4.4531-3.9531 0-7.8906-0.875-3.9219-0.875-8.0156-2.7344z"/>
</defs>
<g transform="translate(95.708 587.08) scale(.1 -.1)">
<use xlink:href="#c"/>
<use x="63.623047" xlink:href="#e"/>
<use x="95.410156" xlink:href="#w"/>
</g>
</g>
<g clip-path="url(#a)">
<defs>
<path id="ac" d="m33.016 40.375q-6.6406 0-10.531-4.5469-3.875-4.5312-3.875-12.438 0-7.8594 3.875-12.438 3.8906-4.5625 10.531-4.5625t10.516 4.5625q3.875 4.5781 3.875 12.438 0 7.9062-3.875 12.438-3.875 4.5469-10.516 4.5469zm19.578 30.922v-8.9844q-3.7188 1.75-7.5 2.6719-3.7812 0.9375-7.5 0.9375-9.7656 0-14.922-6.5938-5.1406-6.5938-5.875-19.922 2.875 4.25 7.2188 6.5156 4.3594 2.2656 9.5781 2.2656 10.984 0 17.359-6.6719 6.375-6.6562 6.375-18.125 0-11.234-6.6406-18.031-6.6406-6.7812-17.672-6.7812-12.656 0-19.344 9.6875-6.6875 9.7031-6.6875 28.109 0 17.281 8.2031 27.562t22.016 10.281q3.7188 0 7.5-0.73438t7.8906-2.1875z"/>
</defs>
<g transform="translate(179.79 587.08) scale(.1 -.1)">
<use xlink:href="#c"/>
<use x="63.623047" xlink:href="#e"/>
<use x="95.410156" xlink:href="#ac"/>
</g>
</g>
<g clip-path="url(#a)">
<defs>
<path id="ah" d="m8.2031 72.906h46.875v-4.2031l-26.469-68.703h-10.297l24.906 64.594h-35.016z"/>
</defs>
<g transform="translate(333.85 222.51) scale(.1 -.1)">
<use xlink:href="#c"/>
<use x="63.623047" xlink:href="#e"/>
<use x="95.410156" xlink:href="#ah"/>
</g>
</g>
<g clip-path="url(#a)">
<defs>
<path id="ab" d="m10.984 1.5156v8.9844q3.7188-1.7656 7.5156-2.6875 3.8125-0.92188 7.4844-0.92188 9.7656 0 14.906 6.5625 5.1562 6.5625 5.8906 19.953-2.8281-4.2031-7.1875-6.4531-4.3438-2.25-9.6094-2.25-10.938 0-17.312 6.6094-6.375 6.625-6.375 18.109 0 11.219 6.6406 18 6.6406 6.7969 17.672 6.7969 12.656 0 19.312-9.7031 6.6719-9.6875 6.6719-28.141 0-17.234-8.1875-27.516-8.1719-10.281-21.984-10.281-3.7188 0-7.5312 0.73438-3.7969 0.73438-7.9062 2.2031zm19.625 30.906q6.6406 0 10.516 4.5312 3.8906 4.5469 3.8906 12.469 0 7.8594-3.8906 12.422-3.875 4.5625-10.516 4.5625t-10.516-4.5625-3.875-12.422q0-7.9219 3.875-12.469 3.875-4.5312 10.516-4.5312z"/>
</defs>
<g transform="translate(237.72 677.36) scale(.1 -.1)">
<use xlink:href="#c"/>
<use x="63.623047" xlink:href="#e"/>
<use x="95.410156" xlink:href="#ab"/>
</g>
</g>
<g clip-path="url(#a)">
<defs>
<path id="ad" d="m31.781 66.406q-7.6094 0-11.453-7.5-3.8281-7.4844-3.8281-22.531 0-14.984 3.8281-22.484 3.8438-7.5 11.453-7.5 7.6719 0 11.5 7.5 3.8438 7.5 3.8438 22.484 0 15.047-3.8438 22.531-3.8281 7.5-11.5 7.5zm0 7.8125q12.266 0 18.734-9.7031 6.4688-9.6875 6.4688-28.141 0-18.406-6.4688-28.109-6.4688-9.6875-18.734-9.6875-12.25 0-18.719 9.6875-6.4688 9.7031-6.4688 28.109 0 18.453 6.4688 28.141 6.4688 9.7031 18.719 9.7031z"/>
</defs>
<g transform="translate(268.17 677.36) scale(.1 -.1)">
<use xlink:href="#c"/>
<use x="63.623047" xlink:href="#e"/>
<use x="95.410156" xlink:href="#c"/>
<use x="159.033203" xlink:href="#ad"/>
</g>
</g>
<g clip-path="url(#a)">
<g transform="translate(304.61 677.36) scale(.1 -.1)">
<use xlink:href="#c"/>
<use x="63.623047" xlink:href="#e"/>
<use x="95.410156" xlink:href="#c"/>
<use x="159.033203" xlink:href="#c"/>
</g>
</g>
<g clip-path="url(#a)">
<g transform="translate(515.35 313.98) scale(.1 -.1)">
<use xlink:href="#c"/>
<use x="63.623047" xlink:href="#e"/>
<use x="95.410156" xlink:href="#c"/>
<use x="159.033203" xlink:href="#p"/>
</g>
</g>
<g clip-path="url(#a)">
<g transform="translate(343.85 677.36) scale(.1 -.1)">
<use xlink:href="#c"/>
<use x="63.623047" xlink:href="#e"/>
<use x="95.410156" xlink:href="#c"/>
<use x="159.033203" xlink:href="#n"/>
</g>
</g>
<g clip-path="url(#a)">
<g transform="translate(385.89 677.36) scale(.1 -.1)">
<use xlink:href="#c"/>
<use x="63.623047" xlink:href="#e"/>
<use x="95.410156" xlink:href="#c"/>
<use x="159.033203" xlink:href="#q"/>
</g>
</g>
<g clip-path="url(#a)">
<g transform="translate(430.74 677.36) scale(.1 -.1)">
<use xlink:href="#c"/>
<use x="63.623047" xlink:href="#e"/>
<use x="95.410156" xlink:href="#c"/>
<use x="159.033203" xlink:href="#w"/>
</g>
</g>
<g clip-path="url(#a)">
<g transform="translate(478.39 677.36) scale(.1 -.1)">
<use xlink:href="#c"/>
<use x="63.623047" xlink:href="#e"/>
<use x="95.410156" xlink:href="#c"/>
<use x="159.033203" xlink:href="#ac"/>
</g>
</g>
<g clip-path="url(#a)">
<g transform="translate(924.4 405.27) scale(.1 -.1)">
<use xlink:href="#c"/>
<use x="63.623047" xlink:href="#e"/>
<use x="95.410156" xlink:href="#c"/>
<use x="159.033203" xlink:href="#ah"/>
</g>
</g>
<g clip-path="url(#a)">
<g transform="translate(696.55 496.33) scale(.1 -.1)">
<use xlink:href="#c"/>
<use x="63.623047" xlink:href="#e"/>
<use x="95.410156" xlink:href="#c"/>
<use x="159.033203" xlink:href="#ab"/>
</g>
</g>
<g clip-path="url(#a)">
<g transform="translate(1033.4 677.36) scale(.1 -.1)">
<use xlink:href="#c"/>
<use x="63.623047" xlink:href="#e"/>
<use x="95.410156" xlink:href="#p"/>
<use x="159.033203" xlink:href="#ad"/>
</g>
</g>
<g clip-path="url(#a)">
<g transform="translate(1007.2 496.33) scale(.1 -.1)">
<use xlink:href="#c"/>
<use x="63.623047" xlink:href="#e"/>
<use x="95.410156" xlink:href="#p"/>
<use x="159.033203" xlink:href="#c"/>
</g>
</g>
<g clip-path="url(#a)">
<g transform="translate(909.1 587.08) scale(.1 -.1)">
<use xlink:href="#c"/>
<use x="63.623047" xlink:href="#e"/>
<use x="95.410156" xlink:href="#p"/>
<use x="159.033203" xlink:href="#n"/>
</g>
</g>
<g clip-path="url(#a)">
<g transform="translate(1353.8 587.08) scale(.1 -.1)">
<use xlink:href="#c"/>
<use x="63.623047" xlink:href="#e"/>
<use x="95.410156" xlink:href="#p"/>
<use x="159.033203" xlink:href="#q"/>
</g>
</g>
<g clip-path="url(#a)">
<g transform="translate(1268.8 677.36) scale(.1 -.1)">
<use xlink:href="#c"/>
<use x="63.623047" xlink:href="#e"/>
<use x="95.410156" xlink:href="#p"/>
<use x="159.033203" xlink:href="#w"/>
</g>
</g>
<g clip-path="url(#a)">
<g transform="translate(1352.9 677.36) scale(.1 -.1)">
<use xlink:href="#c"/>
<use x="63.623047" xlink:href="#e"/>
<use x="95.410156" xlink:href="#p"/>
<use x="159.033203" xlink:href="#ac"/>
</g>
</g>
<g clip-path="url(#a)">
<defs>
<path id="al" d="m31.781 34.625q-7.0312 0-11.062-3.7656-4.0156-3.7656-4.0156-10.344 0-6.5938 4.0156-10.359 4.0312-3.7656 11.062-3.7656t11.078 3.7812q4.0625 3.7969 4.0625 10.344 0 6.5781-4.0312 10.344-4.0156 3.7656-11.109 3.7656zm-9.8594 4.1875q-6.3438 1.5625-9.8906 5.9062-3.5312 4.3594-3.5312 10.609 0 8.7344 6.2188 13.812 6.2344 5.0781 17.062 5.0781 10.891 0 17.094-5.0781t6.2031-13.812q0-6.25-3.5469-10.609-3.5312-4.3438-9.8281-5.9062 7.125-1.6562 11.094-6.5 3.9844-4.8281 3.9844-11.797 0-10.609-6.4688-16.281-6.4688-5.6562-18.531-5.6562-12.047 0-18.531 5.6562-6.4688 5.6719-6.4688 16.281 0 6.9688 4 11.797 4.0156 4.8438 11.141 6.5zm-3.6094 15.578q0-5.6562 3.5312-8.8281 3.5469-3.1719 9.9375-3.1719 6.3594 0 9.9375 3.1719 3.5938 3.1719 3.5938 8.8281 0 5.6719-3.5938 8.8438-3.5781 3.1719-9.9375 3.1719-6.3906 0-9.9375-3.1719-3.5312-3.1719-3.5312-8.8438z"/>
</defs>
<g transform="translate(1109 677.36) scale(.1 -.1)">
<use xlink:href="#c"/>
<use x="63.623047" xlink:href="#e"/>
<use x="95.410156" xlink:href="#p"/>
<use x="159.033203" xlink:href="#al"/>
</g>
</g>
<g clip-path="url(#a)">
<g transform="translate(1187.5 677.36) scale(.1 -.1)">
<use xlink:href="#c"/>
<use x="63.623047" xlink:href="#e"/>
<use x="95.410156" xlink:href="#p"/>
<use x="159.033203" xlink:href="#ab"/>
</g>
</g>
<g clip-path="url(#a)">
<g transform="translate(582.1 677.36) scale(.1 -.1)">
<use xlink:href="#c"/>
<use x="63.623047" xlink:href="#e"/>
<use x="95.410156" xlink:href="#n"/>
<use x="159.033203" xlink:href="#ad"/>
</g>
</g>
<g clip-path="url(#a)">
<g transform="translate(588.64 587.08) scale(.1 -.1)">
<use xlink:href="#c"/>
<use x="63.623047" xlink:href="#e"/>
<use x="95.410156" xlink:href="#n"/>
<use x="159.033203" xlink:href="#c"/>
</g>
</g>
<g clip-path="url(#a)">
<g transform="translate(758.68 677.36) scale(.1 -.1)">
<use xlink:href="#c"/>
<use x="63.623047" xlink:href="#e"/>
<use x="95.410156" xlink:href="#n"/>
<use x="159.033203" xlink:href="#p"/>
</g>
</g>
<g clip-path="url(#a)">
<g transform="translate(856.78 587.08) scale(.1 -.1)">
<use xlink:href="#c"/>
<use x="63.623047" xlink:href="#e"/>
<use x="95.410156" xlink:href="#n"/>
<use x="159.033203" xlink:href="#n"/>
</g>
</g>
<g clip-path="url(#a)">
<g transform="translate(823.14 677.36) scale(.1 -.1)">
<use xlink:href="#c"/>
<use x="63.623047" xlink:href="#e"/>
<use x="95.410156" xlink:href="#n"/>
<use x="159.033203" xlink:href="#q"/>
</g>
</g>
<g clip-path="url(#a)">
<g transform="translate(890.41 677.36) scale(.1 -.1)">
<use xlink:href="#c"/>
<use x="63.623047" xlink:href="#e"/>
<use x="95.410156" xlink:href="#n"/>
<use x="159.033203" xlink:href="#w"/>
</g>
</g>
<g clip-path="url(#a)">
<g transform="translate(638.15 677.36) scale(.1 -.1)">
<use xlink:href="#c"/>
<use x="63.623047" xlink:href="#e"/>
<use x="95.410156" xlink:href="#n"/>
<use x="159.033203" xlink:href="#ac"/>
</g>
</g>
<g clip-path="url(#a)">
<g transform="translate(697.01 677.36) scale(.1 -.1)">
<use xlink:href="#c"/>
<use x="63.623047" xlink:href="#e"/>
<use x="95.410156" xlink:href="#n"/>
<use x="159.033203" xlink:href="#ah"/>
</g>
</g>
<g clip-path="url(#a)">
<g transform="translate(150.45 677.36) scale(.1 -.1)">
<use xlink:href="#c"/>
<use x="63.623047" xlink:href="#e"/>
<use x="95.410156" xlink:href="#n"/>
<use x="159.033203" xlink:href="#al"/>
</g>
</g>
<g clip-path="url(#a)">
<g transform="translate(175.68 677.36) scale(.1 -.1)">
<use xlink:href="#c"/>
<use x="63.623047" xlink:href="#e"/>
<use x="95.410156" xlink:href="#n"/>
<use x="159.033203" xlink:href="#ab"/>
</g>
</g>
<g clip-path="url(#a)">
<g transform="translate(203.71 677.36) scale(.1 -.1)">
<use xlink:href="#c"/>
<use x="63.623047" xlink:href="#e"/>
<use x="95.410156" xlink:href="#q"/>
<use x="159.033203" xlink:href="#ad"/>
</g>
</g>
<g clip-path="url(#a)">
<g transform="translate(912.37 405.27) scale(.1 -.1)">
<use xlink:href="#c"/>
<use x="63.623047" xlink:href="#e"/>
<use x="95.410156" xlink:href="#q"/>
<use x="159.033203" xlink:href="#c"/>
</g>
</g>
<g clip-path="url(#a)">
<g transform="translate(91.593 677.36) scale(.1 -.1)">
<use xlink:href="#c"/>
<use x="63.623047" xlink:href="#e"/>
<use x="95.410156" xlink:href="#q"/>
<use x="159.033203" xlink:href="#p"/>
</g>
</g>
<g clip-path="url(#a)">
<g transform="translate(528.84 677.36) scale(.1 -.1)">
<use xlink:href="#c"/>
<use x="63.623047" xlink:href="#e"/>
<use x="95.410156" xlink:href="#q"/>
<use x="159.033203" xlink:href="#n"/>
</g>
</g>
<g clip-path="url(#a)">
<g transform="translate(960.48 677.36) scale(.1 -.1)">
<use xlink:href="#c"/>
<use x="63.623047" xlink:href="#e"/>
<use x="95.410156" xlink:href="#q"/>
<use x="159.033203" xlink:href="#q"/>
</g>
</g>
<g clip-path="url(#a)">
<g transform="translate(1439.8 677.36) scale(.1 -.1)">
<use xlink:href="#c"/>
<use x="63.623047" xlink:href="#e"/>
<use x="95.410156" xlink:href="#q"/>
<use x="159.033203" xlink:href="#w"/>
</g>
</g>
<defs>
<clipPath id="a">
<rect width="1520" height="800"/>
</clipPath>
</defs>
</svg>
