<?xml version="1.0" encoding="utf-8" standalone="no"?>
<!DOCTYPE svg PUBLIC "-//W3C//DTD SVG 1.1//EN"
  "http://www.w3.org/Graphics/SVG/1.1/DTD/svg11.dtd">
<!-- Created with matplotlib (https://matplotlib.org/) -->
<svg height="426.666667pt" version="1.1" viewBox="0 0 810.666667 426.666667" width="810.666667pt" xmlns="http://www.w3.org/2000/svg" xmlns:xlink="http://www.w3.org/1999/xlink">
 <defs>
  <style type="text/css">
*{stroke-linecap:butt;stroke-linejoin:round;}
  </style>
 </defs>
 <g id="figure_1">
  <g id="patch_1">
   <path d="M 0 426.666667 
L 810.666667 426.666667 
L 810.666667 0 
L 0 0 
z
" style="fill:#ffffff;"/>
  </g>
  <g id="axes_1">
   <g id="LineCollection_1">
    <path clip-path="url(#p7c7184d4c1)" d="M 163.166425 20.062564 
L 163.166425 72.52286 
" style="fill:none;stroke:#000000;"/>
    <path clip-path="url(#p7c7184d4c1)" d="M 163.166425 72.52286 
L 37.226 360.852321 
" style="fill:none;stroke:#000000;"/>
    <path clip-path="url(#p7c7184d4c1)" d="M 163.166425 72.52286 
L 86.306978 360.852321 
" style="fill:none;stroke:#000000;"/>
    <path clip-path="url(#p7c7184d4c1)" d="M 163.166425 72.52286 
L 172.198689 315.10054 
" style="fill:none;stroke:#000000;"/>
    <path clip-path="url(#p7c7184d4c1)" d="M 163.166425 72.52286 
L 356.934036 123.482266 
" style="fill:none;stroke:#000000;"/>
    <path clip-path="url(#p7c7184d4c1)" d="M 37.226 360.852321 
L 37.226 406.604103 
" style="fill:none;stroke:#000000;"/>
    <path clip-path="url(#p7c7184d4c1)" d="M 86.306978 360.852321 
L 86.306978 406.604103 
" style="fill:none;stroke:#000000;"/>
    <path clip-path="url(#p7c7184d4c1)" d="M 172.198689 315.10054 
L 135.387955 360.852321 
" style="fill:none;stroke:#000000;"/>
    <path clip-path="url(#p7c7184d4c1)" d="M 172.198689 315.10054 
L 209.009422 360.852321 
" style="fill:none;stroke:#000000;"/>
    <path clip-path="url(#p7c7184d4c1)" d="M 356.934036 123.482266 
L 282.630889 360.852321 
" style="fill:none;stroke:#000000;"/>
    <path clip-path="url(#p7c7184d4c1)" d="M 356.934036 123.482266 
L 331.711867 360.852321 
" style="fill:none;stroke:#000000;"/>
    <path clip-path="url(#p7c7184d4c1)" d="M 356.934036 123.482266 
L 456.459352 173.072023 
" style="fill:none;stroke:#000000;"/>
    <path clip-path="url(#p7c7184d4c1)" d="M 282.630889 360.852321 
L 282.630889 406.604103 
" style="fill:none;stroke:#000000;"/>
    <path clip-path="url(#p7c7184d4c1)" d="M 331.711867 360.852321 
L 331.711867 406.604103 
" style="fill:none;stroke:#000000;"/>
    <path clip-path="url(#p7c7184d4c1)" d="M 456.459352 173.072023 
L 380.792844 360.852321 
" style="fill:none;stroke:#000000;"/>
    <path clip-path="url(#p7c7184d4c1)" d="M 456.459352 173.072023 
L 429.873822 360.852321 
" style="fill:none;stroke:#000000;"/>
    <path clip-path="url(#p7c7184d4c1)" d="M 456.459352 173.072023 
L 478.9548 360.852321 
" style="fill:none;stroke:#000000;"/>
    <path clip-path="url(#p7c7184d4c1)" d="M 456.459352 173.072023 
L 536.215941 221.430822 
" style="fill:none;stroke:#000000;"/>
    <path clip-path="url(#p7c7184d4c1)" d="M 380.792844 360.852321 
L 380.792844 406.604103 
" style="fill:none;stroke:#000000;"/>
    <path clip-path="url(#p7c7184d4c1)" d="M 429.873822 360.852321 
L 429.873822 406.604103 
" style="fill:none;stroke:#000000;"/>
    <path clip-path="url(#p7c7184d4c1)" d="M 478.9548 360.852321 
L 478.9548 406.604103 
" style="fill:none;stroke:#000000;"/>
    <path clip-path="url(#p7c7184d4c1)" d="M 536.215941 221.430822 
L 478.9548 360.852321 
" style="fill:none;stroke:#000000;stroke-dasharray:3.7,1.6;stroke-dashoffset:0;"/>
    <path clip-path="url(#p7c7184d4c1)" d="M 536.215941 221.430822 
L 528.035778 360.852321 
" style="fill:none;stroke:#000000;"/>
    <path clip-path="url(#p7c7184d4c1)" d="M 536.215941 221.430822 
L 601.657245 268.712301 
" style="fill:none;stroke:#000000;"/>
    <path clip-path="url(#p7c7184d4c1)" d="M 528.035778 360.852321 
L 528.035778 406.604103 
" style="fill:none;stroke:#000000;"/>
    <path clip-path="url(#p7c7184d4c1)" d="M 601.657245 268.712301 
L 478.9548 360.852321 
" style="fill:none;stroke:#000000;stroke-dasharray:3.7,1.6;stroke-dashoffset:0;"/>
    <path clip-path="url(#p7c7184d4c1)" d="M 601.657245 268.712301 
L 577.116756 360.852321 
" style="fill:none;stroke:#000000;"/>
    <path clip-path="url(#p7c7184d4c1)" d="M 601.657245 268.712301 
L 626.197734 360.852321 
" style="fill:none;stroke:#000000;"/>
    <path clip-path="url(#p7c7184d4c1)" d="M 601.657245 268.712301 
L 724.359689 315.10054 
" style="fill:none;stroke:#000000;"/>
    <path clip-path="url(#p7c7184d4c1)" d="M 577.116756 360.852321 
L 577.116756 406.604103 
" style="fill:none;stroke:#000000;"/>
    <path clip-path="url(#p7c7184d4c1)" d="M 626.197734 360.852321 
L 626.197734 406.604103 
" style="fill:none;stroke:#000000;"/>
    <path clip-path="url(#p7c7184d4c1)" d="M 724.359689 315.10054 
L 675.278711 360.852321 
" style="fill:none;stroke:#000000;"/>
    <path clip-path="url(#p7c7184d4c1)" d="M 724.359689 315.10054 
L 724.359689 360.852321 
" style="fill:none;stroke:#000000;"/>
    <path clip-path="url(#p7c7184d4c1)" d="M 724.359689 315.10054 
L 773.440667 360.852321 
" style="fill:none;stroke:#000000;"/>
    <path clip-path="url(#p7c7184d4c1)" d="M 675.278711 360.852321 
L 675.278711 406.604103 
" style="fill:none;stroke:#000000;"/>
    <path clip-path="url(#p7c7184d4c1)" d="M 724.359689 360.852321 
L 724.359689 406.604103 
" style="fill:none;stroke:#000000;"/>
    <path clip-path="url(#p7c7184d4c1)" d="M 135.387955 360.852321 
L 135.387955 406.604103 
" style="fill:none;stroke:#000000;"/>
    <path clip-path="url(#p7c7184d4c1)" d="M 209.009422 360.852321 
L 184.468933 406.604103 
" style="fill:none;stroke:#000000;"/>
    <path clip-path="url(#p7c7184d4c1)" d="M 209.009422 360.852321 
L 233.549911 406.604103 
" style="fill:none;stroke:#000000;"/>
    <path clip-path="url(#p7c7184d4c1)" d="M 773.440667 360.852321 
L 773.440667 406.604103 
" style="fill:none;stroke:#000000;"/>
   </g>
   <g id="text_1">
    <g id="patch_2">
     <path clip-path="url(#p7c7184d4c1)" d="M 156.895175 43.284587 
L 156.895175 49.300837 
Q 156.895175 51.700837 159.295175 51.700837 
L 167.037675 51.700837 
Q 169.437675 51.700837 169.437675 49.300837 
L 169.437675 43.284587 
Q 169.437675 40.884587 167.037675 40.884587 
L 159.295175 40.884587 
Q 156.895175 40.884587 156.895175 43.284587 
z
" style="fill:#ffffff;stroke:#ffffff;stroke-linejoin:miter;"/>
    </g>
    <g clip-path="url(#p7c7184d4c1)">
     <!-- H -->
     <defs>
      <path d="M 9.8125 72.90625 
L 19.671875 72.90625 
L 19.671875 43.015625 
L 55.515625 43.015625 
L 55.515625 72.90625 
L 65.375 72.90625 
L 65.375 0 
L 55.515625 0 
L 55.515625 34.71875 
L 19.671875 34.71875 
L 19.671875 0 
L 9.8125 0 
z
" id="DejaVuSans-72"/>
     </defs>
     <g transform="translate(160.958925 43.284587)rotate(-270)scale(0.08 -0.08)">
      <use xlink:href="#DejaVuSans-72"/>
     </g>
    </g>
   </g>
   <g id="text_2">
    <g id="patch_3">
     <path clip-path="url(#p7c7184d4c1)" d="M 104.847901 221.705303 
L 107.038408 216.690332 
Q 107.999068 214.490984 105.799721 213.530323 
L 98.704533 210.431191 
Q 96.505185 209.470531 95.544524 211.669878 
L 93.354017 216.68485 
Q 92.393357 218.884198 94.592705 219.844858 
L 101.687892 222.94399 
Q 103.88724 223.904651 104.847901 221.705303 
z
" style="fill:#ffffff;stroke:#ffffff;stroke-linejoin:miter;"/>
    </g>
    <g clip-path="url(#p7c7184d4c1)">
     <!-- A -->
     <defs>
      <path d="M 34.1875 63.1875 
L 20.796875 26.90625 
L 47.609375 26.90625 
z
M 28.609375 72.90625 
L 39.796875 72.90625 
L 67.578125 0 
L 57.328125 0 
L 50.6875 18.703125 
L 17.828125 18.703125 
L 11.1875 0 
L 0.78125 0 
z
" id="DejaVuSans-65"/>
     </defs>
     <g transform="translate(101.123901 220.078684)rotate(-66.404609)scale(0.08 -0.08)">
      <use xlink:href="#DejaVuSans-65"/>
     </g>
    </g>
   </g>
   <g id="text_3">
    <g id="patch_4">
     <path clip-path="url(#p7c7184d4c1)" d="M 130.175115 220.633395 
L 131.417587 215.972405 
Q 132.035764 213.653384 129.716743 213.035207 
L 122.235485 211.040942 
Q 119.916465 210.422765 119.298288 212.741786 
L 118.055816 217.402776 
Q 117.437639 219.721797 119.75666 220.339974 
L 127.237917 222.334239 
Q 129.556938 222.952416 130.175115 220.633395 
z
" style="fill:#ffffff;stroke:#ffffff;stroke-linejoin:miter;"/>
    </g>
    <g clip-path="url(#p7c7184d4c1)">
     <!-- P -->
     <defs>
      <path d="M 19.671875 64.796875 
L 19.671875 37.40625 
L 32.078125 37.40625 
Q 38.96875 37.40625 42.71875 40.96875 
Q 46.484375 44.53125 46.484375 51.125 
Q 46.484375 57.671875 42.71875 61.234375 
Q 38.96875 64.796875 32.078125 64.796875 
z
M 9.8125 72.90625 
L 32.078125 72.90625 
Q 44.34375 72.90625 50.609375 67.359375 
Q 56.890625 61.8125 56.890625 51.125 
Q 56.890625 40.328125 50.609375 34.8125 
Q 44.34375 29.296875 32.078125 29.296875 
L 19.671875 29.296875 
L 19.671875 0 
L 9.8125 0 
z
" id="DejaVuSans-80"/>
     </defs>
     <g transform="translate(126.248482 219.58668)rotate(-75.073853)scale(0.08 -0.08)">
      <use xlink:href="#DejaVuSans-80"/>
     </g>
    </g>
   </g>
   <g id="text_4">
    <g id="patch_5">
     <path clip-path="url(#p7c7184d4c1)" d="M 161.313837 191.31069 
L 161.517462 196.779401 
Q 161.606763 199.177739 164.005101 199.088438 
L 171.74224 198.800349 
Q 174.140578 198.711048 174.051277 196.31271 
L 173.847652 190.844 
Q 173.758351 188.445662 171.360013 188.534963 
L 163.622874 188.823051 
Q 161.224536 188.912352 161.313837 191.31069 
z
" style="fill:#ffffff;stroke:#ffffff;stroke-linejoin:miter;"/>
    </g>
    <g clip-path="url(#p7c7184d4c1)">
     <!-- A -->
     <g transform="translate(165.374773 191.159483)rotate(-272.132396)scale(0.08 -0.08)">
      <use xlink:href="#DejaVuSans-65"/>
     </g>
    </g>
   </g>
   <g id="text_5">
    <g id="patch_6">
     <path clip-path="url(#p7c7184d4c1)" d="M 255.808913 103.371628 
L 261.101444 104.763524 
Q 263.422517 105.373948 264.032942 103.052875 
L 266.002197 95.564995 
Q 266.612622 93.243922 264.291548 92.633497 
L 258.999017 91.241602 
Q 256.677944 90.631177 256.067519 92.952251 
L 254.098264 100.44013 
Q 253.487839 102.761204 255.808913 103.371628 
z
" style="fill:#ffffff;stroke:#ffffff;stroke-linejoin:miter;"/>
    </g>
    <g clip-path="url(#p7c7184d4c1)">
     <!-- A -->
     <g transform="translate(256.842502 99.441519)rotate(-345.265306)scale(0.08 -0.08)">
      <use xlink:href="#DejaVuSans-65"/>
     </g>
    </g>
   </g>
   <g id="text_6">
    <g id="patch_7">
     <path clip-path="url(#p7c7184d4c1)" d="M 30.95475 366.085712 
L 30.95475 401.370712 
Q 30.95475 403.770712 33.35475 403.770712 
L 41.09725 403.770712 
Q 43.49725 403.770712 43.49725 401.370712 
L 43.49725 366.085712 
Q 43.49725 363.685712 41.09725 363.685712 
L 33.35475 363.685712 
Q 30.95475 363.685712 30.95475 366.085712 
z
" style="fill:#ffffff;stroke:#ffffff;stroke-linejoin:miter;"/>
    </g>
    <g clip-path="url(#p7c7184d4c1)">
     <!-- Terminal -->
     <defs>
      <path d="M -0.296875 72.90625 
L 61.375 72.90625 
L 61.375 64.59375 
L 35.5 64.59375 
L 35.5 0 
L 25.59375 0 
L 25.59375 64.59375 
L -0.296875 64.59375 
z
" id="DejaVuSans-84"/>
      <path d="M 56.203125 29.59375 
L 56.203125 25.203125 
L 14.890625 25.203125 
Q 15.484375 15.921875 20.484375 11.0625 
Q 25.484375 6.203125 34.421875 6.203125 
Q 39.59375 6.203125 44.453125 7.46875 
Q 49.3125 8.734375 54.109375 11.28125 
L 54.109375 2.78125 
Q 49.265625 0.734375 44.1875 -0.34375 
Q 39.109375 -1.421875 33.890625 -1.421875 
Q 20.796875 -1.421875 13.15625 6.1875 
Q 5.515625 13.8125 5.515625 26.8125 
Q 5.515625 40.234375 12.765625 48.109375 
Q 20.015625 56 32.328125 56 
Q 43.359375 56 49.78125 48.890625 
Q 56.203125 41.796875 56.203125 29.59375 
z
M 47.21875 32.234375 
Q 47.125 39.59375 43.09375 43.984375 
Q 39.0625 48.390625 32.421875 48.390625 
Q 24.90625 48.390625 20.390625 44.140625 
Q 15.875 39.890625 15.1875 32.171875 
z
" id="DejaVuSans-101"/>
      <path d="M 41.109375 46.296875 
Q 39.59375 47.171875 37.8125 47.578125 
Q 36.03125 48 33.890625 48 
Q 26.265625 48 22.1875 43.046875 
Q 18.109375 38.09375 18.109375 28.8125 
L 18.109375 0 
L 9.078125 0 
L 9.078125 54.6875 
L 18.109375 54.6875 
L 18.109375 46.1875 
Q 20.953125 51.171875 25.484375 53.578125 
Q 30.03125 56 36.53125 56 
Q 37.453125 56 38.578125 55.875 
Q 39.703125 55.765625 41.0625 55.515625 
z
" id="DejaVuSans-114"/>
      <path d="M 52 44.1875 
Q 55.375 50.25 60.0625 53.125 
Q 64.75 56 71.09375 56 
Q 79.640625 56 84.28125 50.015625 
Q 88.921875 44.046875 88.921875 33.015625 
L 88.921875 0 
L 79.890625 0 
L 79.890625 32.71875 
Q 79.890625 40.578125 77.09375 44.375 
Q 74.3125 48.1875 68.609375 48.1875 
Q 61.625 48.1875 57.5625 43.546875 
Q 53.515625 38.921875 53.515625 30.90625 
L 53.515625 0 
L 44.484375 0 
L 44.484375 32.71875 
Q 44.484375 40.625 41.703125 44.40625 
Q 38.921875 48.1875 33.109375 48.1875 
Q 26.21875 48.1875 22.15625 43.53125 
Q 18.109375 38.875 18.109375 30.90625 
L 18.109375 0 
L 9.078125 0 
L 9.078125 54.6875 
L 18.109375 54.6875 
L 18.109375 46.1875 
Q 21.1875 51.21875 25.484375 53.609375 
Q 29.78125 56 35.6875 56 
Q 41.65625 56 45.828125 52.96875 
Q 50 49.953125 52 44.1875 
z
" id="DejaVuSans-109"/>
      <path d="M 9.421875 54.6875 
L 18.40625 54.6875 
L 18.40625 0 
L 9.421875 0 
z
M 9.421875 75.984375 
L 18.40625 75.984375 
L 18.40625 64.59375 
L 9.421875 64.59375 
z
" id="DejaVuSans-105"/>
      <path d="M 54.890625 33.015625 
L 54.890625 0 
L 45.90625 0 
L 45.90625 32.71875 
Q 45.90625 40.484375 42.875 44.328125 
Q 39.84375 48.1875 33.796875 48.1875 
Q 26.515625 48.1875 22.3125 43.546875 
Q 18.109375 38.921875 18.109375 30.90625 
L 18.109375 0 
L 9.078125 0 
L 9.078125 54.6875 
L 18.109375 54.6875 
L 18.109375 46.1875 
Q 21.34375 51.125 25.703125 53.5625 
Q 30.078125 56 35.796875 56 
Q 45.21875 56 50.046875 50.171875 
Q 54.890625 44.34375 54.890625 33.015625 
z
" id="DejaVuSans-110"/>
      <path d="M 34.28125 27.484375 
Q 23.390625 27.484375 19.1875 25 
Q 14.984375 22.515625 14.984375 16.5 
Q 14.984375 11.71875 18.140625 8.90625 
Q 21.296875 6.109375 26.703125 6.109375 
Q 34.1875 6.109375 38.703125 11.40625 
Q 43.21875 16.703125 43.21875 25.484375 
L 43.21875 27.484375 
z
M 52.203125 31.203125 
L 52.203125 0 
L 43.21875 0 
L 43.21875 8.296875 
Q 40.140625 3.328125 35.546875 0.953125 
Q 30.953125 -1.421875 24.3125 -1.421875 
Q 15.921875 -1.421875 10.953125 3.296875 
Q 6 8.015625 6 15.921875 
Q 6 25.140625 12.171875 29.828125 
Q 18.359375 34.515625 30.609375 34.515625 
L 43.21875 34.515625 
L 43.21875 35.40625 
Q 43.21875 41.609375 39.140625 45 
Q 35.0625 48.390625 27.6875 48.390625 
Q 23 48.390625 18.546875 47.265625 
Q 14.109375 46.140625 10.015625 43.890625 
L 10.015625 52.203125 
Q 14.9375 54.109375 19.578125 55.046875 
Q 24.21875 56 28.609375 56 
Q 40.484375 56 46.34375 49.84375 
Q 52.203125 43.703125 52.203125 31.203125 
z
" id="DejaVuSans-97"/>
      <path d="M 9.421875 75.984375 
L 18.40625 75.984375 
L 18.40625 0 
L 9.421875 0 
z
" id="DejaVuSans-108"/>
     </defs>
     <g transform="translate(35.0185 366.085712)rotate(-270)scale(0.08 -0.08)">
      <use xlink:href="#DejaVuSans-84"/>
      <use x="60.818359" xlink:href="#DejaVuSans-101"/>
      <use x="122.341797" xlink:href="#DejaVuSans-114"/>
      <use x="163.439453" xlink:href="#DejaVuSans-109"/>
      <use x="260.851562" xlink:href="#DejaVuSans-105"/>
      <use x="288.634766" xlink:href="#DejaVuSans-110"/>
      <use x="352.013672" xlink:href="#DejaVuSans-97"/>
      <use x="413.292969" xlink:href="#DejaVuSans-108"/>
     </g>
    </g>
   </g>
   <g id="text_7">
    <g id="patch_8">
     <path clip-path="url(#p7c7184d4c1)" d="M 80.035728 366.085712 
L 80.035728 401.370712 
Q 80.035728 403.770712 82.435728 403.770712 
L 90.178228 403.770712 
Q 92.578228 403.770712 92.578228 401.370712 
L 92.578228 366.085712 
Q 92.578228 363.685712 90.178228 363.685712 
L 82.435728 363.685712 
Q 80.035728 363.685712 80.035728 366.085712 
z
" style="fill:#ffffff;stroke:#ffffff;stroke-linejoin:miter;"/>
    </g>
    <g clip-path="url(#p7c7184d4c1)">
     <!-- Terminal -->
     <g transform="translate(84.099478 366.085712)rotate(-270)scale(0.08 -0.08)">
      <use xlink:href="#DejaVuSans-84"/>
      <use x="60.818359" xlink:href="#DejaVuSans-101"/>
      <use x="122.341797" xlink:href="#DejaVuSans-114"/>
      <use x="163.439453" xlink:href="#DejaVuSans-109"/>
      <use x="260.851562" xlink:href="#DejaVuSans-105"/>
      <use x="288.634766" xlink:href="#DejaVuSans-110"/>
      <use x="352.013672" xlink:href="#DejaVuSans-97"/>
      <use x="413.292969" xlink:href="#DejaVuSans-108"/>
     </g>
    </g>
   </g>
   <g id="text_8">
    <g id="patch_9">
     <path clip-path="url(#p7c7184d4c1)" d="M 156.937127 344.073151 
L 160.421718 339.742178 
Q 161.926197 337.872273 160.056292 336.367795 
L 154.023901 331.514284 
Q 152.153996 330.009806 150.649517 331.879711 
L 147.164926 336.210683 
Q 145.660447 338.080588 147.530352 339.585067 
L 153.562743 344.438577 
Q 155.432648 345.943056 156.937127 344.073151 
z
" style="fill:#ffffff;stroke:#ffffff;stroke-linejoin:miter;"/>
    </g>
    <g clip-path="url(#p7c7184d4c1)">
     <!-- R -->
     <defs>
      <path d="M 44.390625 34.1875 
Q 47.5625 33.109375 50.5625 29.59375 
Q 53.5625 26.078125 56.59375 19.921875 
L 66.609375 0 
L 56 0 
L 46.6875 18.703125 
Q 43.0625 26.03125 39.671875 28.421875 
Q 36.28125 30.8125 30.421875 30.8125 
L 19.671875 30.8125 
L 19.671875 0 
L 9.8125 0 
L 9.8125 72.90625 
L 32.078125 72.90625 
Q 44.578125 72.90625 50.734375 67.671875 
Q 56.890625 62.453125 56.890625 51.90625 
Q 56.890625 45.015625 53.6875 40.46875 
Q 50.484375 35.9375 44.390625 34.1875 
z
M 19.671875 64.796875 
L 19.671875 38.921875 
L 32.078125 38.921875 
Q 39.203125 38.921875 42.84375 42.21875 
Q 46.484375 45.515625 46.484375 51.90625 
Q 46.484375 58.296875 42.84375 61.546875 
Q 39.203125 64.796875 32.078125 64.796875 
z
" id="DejaVuSans-82"/>
     </defs>
     <g transform="translate(153.770949 341.525724)rotate(-51.180718)scale(0.08 -0.08)">
      <use xlink:href="#DejaVuSans-82"/>
     </g>
    </g>
   </g>
   <g id="text_9">
    <g id="patch_10">
     <path clip-path="url(#p7c7184d4c1)" d="M 183.96704 339.731465 
L 187.46887 344.083864 
Q 188.973349 345.953769 190.843254 344.44929 
L 196.875645 339.59578 
Q 198.74555 338.091301 197.241071 336.221396 
L 193.739241 331.868998 
Q 192.234762 329.999093 190.364857 331.503571 
L 184.332466 336.357082 
Q 182.462561 337.86156 183.96704 339.731465 
z
" style="fill:#ffffff;stroke:#ffffff;stroke-linejoin:miter;"/>
    </g>
    <g clip-path="url(#p7c7184d4c1)">
     <!-- C -->
     <defs>
      <path d="M 64.40625 67.28125 
L 64.40625 56.890625 
Q 59.421875 61.53125 53.78125 63.8125 
Q 48.140625 66.109375 41.796875 66.109375 
Q 29.296875 66.109375 22.65625 58.46875 
Q 16.015625 50.828125 16.015625 36.375 
Q 16.015625 21.96875 22.65625 14.328125 
Q 29.296875 6.6875 41.796875 6.6875 
Q 48.140625 6.6875 53.78125 8.984375 
Q 59.421875 11.28125 64.40625 15.921875 
L 64.40625 5.609375 
Q 59.234375 2.09375 53.4375 0.328125 
Q 47.65625 -1.421875 41.21875 -1.421875 
Q 24.65625 -1.421875 15.125 8.703125 
Q 5.609375 18.84375 5.609375 36.375 
Q 5.609375 53.953125 15.125 64.078125 
Q 24.65625 74.21875 41.21875 74.21875 
Q 47.75 74.21875 53.53125 72.484375 
Q 59.328125 70.75 64.40625 67.28125 
z
" id="DejaVuSans-67"/>
     </defs>
     <g transform="translate(187.133217 337.184038)rotate(-308.819282)scale(0.08 -0.08)">
      <use xlink:href="#DejaVuSans-67"/>
     </g>
    </g>
   </g>
   <g id="text_10">
    <g id="patch_11">
     <path clip-path="url(#p7c7184d4c1)" d="M 325.0123 246.452808 
L 326.522394 241.628636 
Q 327.239353 239.338227 324.948945 238.621269 
L 317.559992 236.30833 
Q 315.269584 235.591371 314.552625 237.881779 
L 313.04253 242.705952 
Q 312.325572 244.99636 314.61598 245.713319 
L 322.004933 248.026258 
Q 324.295341 248.743216 325.0123 246.452808 
z
" style="fill:#ffffff;stroke:#ffffff;stroke-linejoin:miter;"/>
    </g>
    <g clip-path="url(#p7c7184d4c1)">
     <!-- E -->
     <defs>
      <path d="M 9.8125 72.90625 
L 55.90625 72.90625 
L 55.90625 64.59375 
L 19.671875 64.59375 
L 19.671875 43.015625 
L 54.390625 43.015625 
L 54.390625 34.71875 
L 19.671875 34.71875 
L 19.671875 8.296875 
L 56.78125 8.296875 
L 56.78125 0 
L 9.8125 0 
z
" id="DejaVuSans-69"/>
     </defs>
     <g transform="translate(321.134114 245.238833)rotate(-72.618491)scale(0.08 -0.08)">
      <use xlink:href="#DejaVuSans-69"/>
     </g>
    </g>
   </g>
   <g id="text_11">
    <g id="patch_12">
     <path clip-path="url(#p7c7184d4c1)" d="M 350.263968 245.607415 
L 350.854222 240.052437 
Q 351.107811 237.665872 348.721246 237.412283 
L 341.022088 236.594195 
Q 338.635523 236.340607 338.381934 238.727172 
L 337.79168 244.282151 
Q 337.538091 246.668716 339.924656 246.922304 
L 347.623815 247.740392 
Q 350.01038 247.99398 350.263968 245.607415 
z
" style="fill:#ffffff;stroke:#ffffff;stroke-linejoin:miter;"/>
    </g>
    <g clip-path="url(#p7c7184d4c1)">
     <!-- C -->
     <g transform="translate(346.222967 245.178032)rotate(-83.934695)scale(0.08 -0.08)">
      <use xlink:href="#DejaVuSans-67"/>
     </g>
    </g>
   </g>
   <g id="text_12">
    <g id="patch_13">
     <path clip-path="url(#p7c7184d4c1)" d="M 401.637675 152.763029 
L 406.162144 155.017403 
Q 408.31026 156.08773 409.380586 153.939614 
L 412.833503 147.009702 
Q 413.903829 144.861586 411.755713 143.79126 
L 407.231244 141.536886 
Q 405.083128 140.46656 404.012802 142.614676 
L 400.559885 149.544587 
Q 399.489559 151.692703 401.637675 152.763029 
z
" style="fill:#ffffff;stroke:#ffffff;stroke-linejoin:miter;"/>
    </g>
    <g clip-path="url(#p7c7184d4c1)">
     <!-- E -->
     <g transform="translate(403.449982 149.125776)rotate(-333.514634)scale(0.08 -0.08)">
      <use xlink:href="#DejaVuSans-69"/>
     </g>
    </g>
   </g>
   <g id="text_13">
    <g id="patch_14">
     <path clip-path="url(#p7c7184d4c1)" d="M 276.359639 366.085712 
L 276.359639 401.370712 
Q 276.359639 403.770712 278.759639 403.770712 
L 286.502139 403.770712 
Q 288.902139 403.770712 288.902139 401.370712 
L 288.902139 366.085712 
Q 288.902139 363.685712 286.502139 363.685712 
L 278.759639 363.685712 
Q 276.359639 363.685712 276.359639 366.085712 
z
" style="fill:#ffffff;stroke:#ffffff;stroke-linejoin:miter;"/>
    </g>
    <g clip-path="url(#p7c7184d4c1)">
     <!-- Terminal -->
     <g transform="translate(280.423389 366.085712)rotate(-270)scale(0.08 -0.08)">
      <use xlink:href="#DejaVuSans-84"/>
      <use x="60.818359" xlink:href="#DejaVuSans-101"/>
      <use x="122.341797" xlink:href="#DejaVuSans-114"/>
      <use x="163.439453" xlink:href="#DejaVuSans-109"/>
      <use x="260.851562" xlink:href="#DejaVuSans-105"/>
      <use x="288.634766" xlink:href="#DejaVuSans-110"/>
      <use x="352.013672" xlink:href="#DejaVuSans-97"/>
      <use x="413.292969" xlink:href="#DejaVuSans-108"/>
     </g>
    </g>
   </g>
   <g id="text_14">
    <g id="patch_15">
     <path clip-path="url(#p7c7184d4c1)" d="M 325.440617 366.085712 
L 325.440617 401.370712 
Q 325.440617 403.770712 327.840617 403.770712 
L 335.583117 403.770712 
Q 337.983117 403.770712 337.983117 401.370712 
L 337.983117 366.085712 
Q 337.983117 363.685712 335.583117 363.685712 
L 327.840617 363.685712 
Q 325.440617 363.685712 325.440617 366.085712 
z
" style="fill:#ffffff;stroke:#ffffff;stroke-linejoin:miter;"/>
    </g>
    <g clip-path="url(#p7c7184d4c1)">
     <!-- Terminal -->
     <g transform="translate(329.504367 366.085712)rotate(-270)scale(0.08 -0.08)">
      <use xlink:href="#DejaVuSans-84"/>
      <use x="60.818359" xlink:href="#DejaVuSans-101"/>
      <use x="122.341797" xlink:href="#DejaVuSans-114"/>
      <use x="163.439453" xlink:href="#DejaVuSans-109"/>
      <use x="260.851562" xlink:href="#DejaVuSans-105"/>
      <use x="288.634766" xlink:href="#DejaVuSans-110"/>
      <use x="352.013672" xlink:href="#DejaVuSans-97"/>
      <use x="413.292969" xlink:href="#DejaVuSans-108"/>
     </g>
    </g>
   </g>
   <g id="text_15">
    <g id="patch_16">
     <path clip-path="url(#p7c7184d4c1)" d="M 423.404075 271.884005 
L 425.481659 266.728101 
Q 426.378659 264.50203 424.152589 263.60503 
L 416.971192 260.711269 
Q 414.745121 259.814269 413.848121 262.04034 
L 411.770537 267.196244 
Q 410.873537 269.422315 413.099608 270.319315 
L 420.281004 273.213075 
Q 422.507075 274.110076 423.404075 271.884005 
z
" style="fill:#ffffff;stroke:#ffffff;stroke-linejoin:miter;"/>
    </g>
    <g clip-path="url(#p7c7184d4c1)">
     <!-- R -->
     <g transform="translate(419.634828 270.365178)rotate(-68.052915)scale(0.08 -0.08)">
      <use xlink:href="#DejaVuSans-82"/>
     </g>
    </g>
   </g>
   <g id="text_16">
    <g id="patch_17">
     <path clip-path="url(#p7c7184d4c1)" d="M 449.02161 270.343819 
L 449.73022 265.338732 
Q 450.066652 262.96243 447.690349 262.625998 
L 440.024298 261.540655 
Q 437.647996 261.204223 437.311564 263.580526 
L 436.602954 268.585613 
Q 436.266523 270.961915 438.642825 271.298347 
L 446.308876 272.38369 
Q 448.685179 272.720122 449.02161 270.343819 
z
" style="fill:#ffffff;stroke:#ffffff;stroke-linejoin:miter;"/>
    </g>
    <g clip-path="url(#p7c7184d4c1)">
     <!-- E -->
     <g transform="translate(444.997986 269.774163)rotate(-81.941743)scale(0.08 -0.08)">
      <use xlink:href="#DejaVuSans-69"/>
     </g>
    </g>
   </g>
   <g id="text_17">
    <g id="patch_18">
     <path clip-path="url(#p7c7184d4c1)" d="M 461.148116 264.934818 
L 461.812579 270.481409 
Q 462.09805 272.864371 464.481011 272.5789 
L 472.168545 271.657959 
Q 474.551507 271.372489 474.266036 268.989527 
L 473.601573 263.442935 
Q 473.316102 261.059974 470.933141 261.345445 
L 463.245607 262.266385 
Q 460.862645 262.551856 461.148116 264.934818 
z
" style="fill:#ffffff;stroke:#ffffff;stroke-linejoin:miter;"/>
    </g>
    <g clip-path="url(#p7c7184d4c1)">
     <!-- C -->
     <g transform="translate(465.183016 264.45145)rotate(-276.831287)scale(0.08 -0.08)">
      <use xlink:href="#DejaVuSans-67"/>
     </g>
    </g>
   </g>
   <g id="text_18">
    <g id="patch_19">
     <path clip-path="url(#p7c7184d4c1)" d="M 490.924936 201.303509 
L 495.247446 203.924375 
Q 497.299675 205.168703 498.544004 203.116473 
L 502.558258 196.495894 
Q 503.802586 194.443665 501.750356 193.199336 
L 497.427847 190.57847 
Q 495.375617 189.334142 494.131289 191.386372 
L 490.117035 198.006951 
Q 488.872707 200.059181 490.924936 201.303509 
z
" style="fill:#ffffff;stroke:#ffffff;stroke-linejoin:miter;"/>
    </g>
    <g clip-path="url(#p7c7184d4c1)">
     <!-- E -->
     <g transform="translate(493.031869 197.828613)rotate(-328.770317)scale(0.08 -0.08)">
      <use xlink:href="#DejaVuSans-69"/>
     </g>
    </g>
   </g>
   <g id="text_19">
    <g id="patch_20">
     <path clip-path="url(#p7c7184d4c1)" d="M 374.521594 366.085712 
L 374.521594 401.370712 
Q 374.521594 403.770712 376.921594 403.770712 
L 384.664094 403.770712 
Q 387.064094 403.770712 387.064094 401.370712 
L 387.064094 366.085712 
Q 387.064094 363.685712 384.664094 363.685712 
L 376.921594 363.685712 
Q 374.521594 363.685712 374.521594 366.085712 
z
" style="fill:#ffffff;stroke:#ffffff;stroke-linejoin:miter;"/>
    </g>
    <g clip-path="url(#p7c7184d4c1)">
     <!-- Terminal -->
     <g transform="translate(378.585344 366.085712)rotate(-270)scale(0.08 -0.08)">
      <use xlink:href="#DejaVuSans-84"/>
      <use x="60.818359" xlink:href="#DejaVuSans-101"/>
      <use x="122.341797" xlink:href="#DejaVuSans-114"/>
      <use x="163.439453" xlink:href="#DejaVuSans-109"/>
      <use x="260.851562" xlink:href="#DejaVuSans-105"/>
      <use x="288.634766" xlink:href="#DejaVuSans-110"/>
      <use x="352.013672" xlink:href="#DejaVuSans-97"/>
      <use x="413.292969" xlink:href="#DejaVuSans-108"/>
     </g>
    </g>
   </g>
   <g id="text_20">
    <g id="patch_21">
     <path clip-path="url(#p7c7184d4c1)" d="M 423.602572 366.085712 
L 423.602572 401.370712 
Q 423.602572 403.770712 426.002572 403.770712 
L 433.745072 403.770712 
Q 436.145072 403.770712 436.145072 401.370712 
L 436.145072 366.085712 
Q 436.145072 363.685712 433.745072 363.685712 
L 426.002572 363.685712 
Q 423.602572 363.685712 423.602572 366.085712 
z
" style="fill:#ffffff;stroke:#ffffff;stroke-linejoin:miter;"/>
    </g>
    <g clip-path="url(#p7c7184d4c1)">
     <!-- Terminal -->
     <g transform="translate(427.666322 366.085712)rotate(-270)scale(0.08 -0.08)">
      <use xlink:href="#DejaVuSans-84"/>
      <use x="60.818359" xlink:href="#DejaVuSans-101"/>
      <use x="122.341797" xlink:href="#DejaVuSans-114"/>
      <use x="163.439453" xlink:href="#DejaVuSans-109"/>
      <use x="260.851562" xlink:href="#DejaVuSans-105"/>
      <use x="288.634766" xlink:href="#DejaVuSans-110"/>
      <use x="352.013672" xlink:href="#DejaVuSans-97"/>
      <use x="413.292969" xlink:href="#DejaVuSans-108"/>
     </g>
    </g>
   </g>
   <g id="text_21">
    <g id="patch_22">
     <path clip-path="url(#p7c7184d4c1)" d="M 472.68355 366.085712 
L 472.68355 401.370712 
Q 472.68355 403.770712 475.08355 403.770712 
L 482.82605 403.770712 
Q 485.22605 403.770712 485.22605 401.370712 
L 485.22605 366.085712 
Q 485.22605 363.685712 482.82605 363.685712 
L 475.08355 363.685712 
Q 472.68355 363.685712 472.68355 366.085712 
z
" style="fill:#ffffff;stroke:#ffffff;stroke-linejoin:miter;"/>
    </g>
    <g clip-path="url(#p7c7184d4c1)">
     <!-- Terminal -->
     <g transform="translate(476.7473 366.085712)rotate(-270)scale(0.08 -0.08)">
      <use xlink:href="#DejaVuSans-84"/>
      <use x="60.818359" xlink:href="#DejaVuSans-101"/>
      <use x="122.341797" xlink:href="#DejaVuSans-114"/>
      <use x="163.439453" xlink:href="#DejaVuSans-109"/>
      <use x="260.851562" xlink:href="#DejaVuSans-105"/>
      <use x="288.634766" xlink:href="#DejaVuSans-110"/>
      <use x="352.013672" xlink:href="#DejaVuSans-97"/>
      <use x="413.292969" xlink:href="#DejaVuSans-108"/>
     </g>
    </g>
   </g>
   <g id="text_22">
    <g id="patch_23">
     <path clip-path="url(#p7c7184d4c1)" d="M 512.346886 296.055186 
L 514.425953 290.992999 
Q 515.337741 288.772945 513.117686 287.861157 
L 505.955698 284.91969 
Q 503.735643 284.007902 502.823855 286.227957 
L 500.744788 291.290144 
Q 499.833 293.510199 502.053055 294.421987 
L 509.215043 297.363453 
Q 511.435098 298.275241 512.346886 296.055186 
z
" style="fill:#ffffff;stroke:#ffffff;stroke-linejoin:miter;"/>
    </g>
    <g clip-path="url(#p7c7184d4c1)">
     <!-- A -->
     <g transform="translate(508.587825 294.51132)rotate(-67.671787)scale(0.08 -0.08)">
      <use xlink:href="#DejaVuSans-65"/>
     </g>
    </g>
   </g>
   <g id="text_23">
    <g id="patch_24">
     <path clip-path="url(#p7c7184d4c1)" d="M 538.245076 293.916622 
L 538.52761 289.101154 
Q 538.668182 286.705274 536.272302 286.564702 
L 528.543094 286.111213 
Q 526.147214 285.970641 526.006643 288.366521 
L 525.724109 293.18199 
Q 525.583537 295.57787 527.979417 295.718441 
L 535.708625 296.17193 
Q 538.104505 296.312502 538.245076 293.916622 
z
" style="fill:#ffffff;stroke:#ffffff;stroke-linejoin:miter;"/>
    </g>
    <g clip-path="url(#p7c7184d4c1)">
     <!-- P -->
     <g transform="translate(534.188303 293.678602)rotate(-86.642181)scale(0.08 -0.08)">
      <use xlink:href="#DejaVuSans-80"/>
     </g>
    </g>
   </g>
   <g id="text_24">
    <g id="patch_25">
     <path clip-path="url(#p7c7184d4c1)" d="M 563.045974 248.552402 
L 567.481827 251.757315 
Q 569.427198 253.16285 570.832733 251.217478 
L 575.367048 244.941628 
Q 576.772583 242.996256 574.827212 241.590721 
L 570.391359 238.385808 
Q 568.445987 236.980273 567.040452 238.925645 
L 562.506137 245.201495 
Q 561.100602 247.146867 563.045974 248.552402 
z
" style="fill:#ffffff;stroke:#ffffff;stroke-linejoin:miter;"/>
    </g>
    <g clip-path="url(#p7c7184d4c1)">
     <!-- A -->
     <g transform="translate(565.425867 245.258442)rotate(-324.15181)scale(0.08 -0.08)">
      <use xlink:href="#DejaVuSans-65"/>
     </g>
    </g>
   </g>
   <g id="text_25">
    <g id="patch_26">
     <path clip-path="url(#p7c7184d4c1)" d="M 521.764528 366.085712 
L 521.764528 401.370712 
Q 521.764528 403.770712 524.164528 403.770712 
L 531.907028 403.770712 
Q 534.307028 403.770712 534.307028 401.370712 
L 534.307028 366.085712 
Q 534.307028 363.685712 531.907028 363.685712 
L 524.164528 363.685712 
Q 521.764528 363.685712 521.764528 366.085712 
z
" style="fill:#ffffff;stroke:#ffffff;stroke-linejoin:miter;"/>
    </g>
    <g clip-path="url(#p7c7184d4c1)">
     <!-- Terminal -->
     <g transform="translate(525.828278 366.085712)rotate(-270)scale(0.08 -0.08)">
      <use xlink:href="#DejaVuSans-84"/>
      <use x="60.818359" xlink:href="#DejaVuSans-101"/>
      <use x="122.341797" xlink:href="#DejaVuSans-114"/>
      <use x="163.439453" xlink:href="#DejaVuSans-109"/>
      <use x="260.851562" xlink:href="#DejaVuSans-105"/>
      <use x="288.634766" xlink:href="#DejaVuSans-110"/>
      <use x="352.013672" xlink:href="#DejaVuSans-97"/>
      <use x="413.292969" xlink:href="#DejaVuSans-108"/>
     </g>
    </g>
   </g>
   <g id="text_26">
    <g id="patch_27">
     <path clip-path="url(#p7c7184d4c1)" d="M 541.883701 321.440132 
L 546.259763 318.154049 
Q 548.178913 316.712916 546.73778 314.793766 
L 542.088626 308.602508 
Q 540.647493 306.683358 538.728343 308.124491 
L 534.352282 311.410574 
Q 532.433132 312.851707 533.874264 314.770857 
L 538.523419 320.962114 
Q 539.964552 322.881264 541.883701 321.440132 
z
" style="fill:#ffffff;stroke:#ffffff;stroke-linejoin:miter;"/>
    </g>
    <g clip-path="url(#p7c7184d4c1)">
     <!-- A -->
     <g transform="translate(539.443533 318.190571)rotate(-36.903708)scale(0.08 -0.08)">
      <use xlink:href="#DejaVuSans-65"/>
     </g>
    </g>
   </g>
   <g id="text_27">
    <g id="patch_28">
     <path clip-path="url(#p7c7184d4c1)" d="M 594.731675 319.082073 
L 596.162315 313.710577 
Q 596.779996 311.391424 594.460843 310.773743 
L 586.979159 308.781078 
Q 584.660006 308.163397 584.042325 310.48255 
L 582.611686 315.854046 
Q 581.994005 318.173199 584.313157 318.79088 
L 591.794841 320.783545 
Q 594.113994 321.401226 594.731675 319.082073 
z
" style="fill:#ffffff;stroke:#ffffff;stroke-linejoin:miter;"/>
    </g>
    <g clip-path="url(#p7c7184d4c1)">
     <!-- R -->
     <g transform="translate(590.804818 318.036197)rotate(-75.086107)scale(0.08 -0.08)">
      <use xlink:href="#DejaVuSans-82"/>
     </g>
    </g>
   </g>
   <g id="text_28">
    <g id="patch_29">
     <path clip-path="url(#p7c7184d4c1)" d="M 607.246757 314.065697 
L 608.488232 318.726953 
Q 609.105913 321.046106 611.425066 320.428425 
L 618.906749 318.43576 
Q 621.225902 317.818079 620.608221 315.498926 
L 619.366747 310.83767 
Q 618.749066 308.518517 616.429913 309.136198 
L 608.948229 311.128863 
Q 606.629076 311.746544 607.246757 314.065697 
z
" style="fill:#ffffff;stroke:#ffffff;stroke-linejoin:miter;"/>
    </g>
    <g clip-path="url(#p7c7184d4c1)">
     <!-- P -->
     <g transform="translate(611.173614 313.019821)rotate(-284.913893)scale(0.08 -0.08)">
      <use xlink:href="#DejaVuSans-80"/>
     </g>
    </g>
   </g>
   <g id="text_29">
    <g id="patch_30">
     <path clip-path="url(#p7c7184d4c1)" d="M 658.231331 296.80485 
L 663.350233 298.740075 
Q 665.59516 299.588781 666.443866 297.343853 
L 669.181825 290.101624 
Q 670.03053 287.856697 667.785603 287.007991 
L 662.666701 285.072766 
Q 660.421773 284.224061 659.573068 286.468988 
L 656.835109 293.711217 
Q 655.986403 295.956145 658.231331 296.80485 
z
" style="fill:#ffffff;stroke:#ffffff;stroke-linejoin:miter;"/>
    </g>
    <g clip-path="url(#p7c7184d4c1)">
     <!-- A -->
     <g transform="translate(659.668384 293.003674)rotate(-339.290664)scale(0.08 -0.08)">
      <use xlink:href="#DejaVuSans-65"/>
     </g>
    </g>
   </g>
   <g id="text_30">
    <g id="patch_31">
     <path clip-path="url(#p7c7184d4c1)" d="M 570.845506 366.085712 
L 570.845506 401.370712 
Q 570.845506 403.770712 573.245506 403.770712 
L 580.988006 403.770712 
Q 583.388006 403.770712 583.388006 401.370712 
L 583.388006 366.085712 
Q 583.388006 363.685712 580.988006 363.685712 
L 573.245506 363.685712 
Q 570.845506 363.685712 570.845506 366.085712 
z
" style="fill:#ffffff;stroke:#ffffff;stroke-linejoin:miter;"/>
    </g>
    <g clip-path="url(#p7c7184d4c1)">
     <!-- Terminal -->
     <g transform="translate(574.909256 366.085712)rotate(-270)scale(0.08 -0.08)">
      <use xlink:href="#DejaVuSans-84"/>
      <use x="60.818359" xlink:href="#DejaVuSans-101"/>
      <use x="122.341797" xlink:href="#DejaVuSans-114"/>
      <use x="163.439453" xlink:href="#DejaVuSans-109"/>
      <use x="260.851562" xlink:href="#DejaVuSans-105"/>
      <use x="288.634766" xlink:href="#DejaVuSans-110"/>
      <use x="352.013672" xlink:href="#DejaVuSans-97"/>
      <use x="413.292969" xlink:href="#DejaVuSans-108"/>
     </g>
    </g>
   </g>
   <g id="text_31">
    <g id="patch_32">
     <path clip-path="url(#p7c7184d4c1)" d="M 619.926484 366.085712 
L 619.926484 401.370712 
Q 619.926484 403.770712 622.326484 403.770712 
L 630.068984 403.770712 
Q 632.468984 403.770712 632.468984 401.370712 
L 632.468984 366.085712 
Q 632.468984 363.685712 630.068984 363.685712 
L 622.326484 363.685712 
Q 619.926484 363.685712 619.926484 366.085712 
z
" style="fill:#ffffff;stroke:#ffffff;stroke-linejoin:miter;"/>
    </g>
    <g clip-path="url(#p7c7184d4c1)">
     <!-- Terminal -->
     <g transform="translate(623.990234 366.085712)rotate(-270)scale(0.08 -0.08)">
      <use xlink:href="#DejaVuSans-84"/>
      <use x="60.818359" xlink:href="#DejaVuSans-101"/>
      <use x="122.341797" xlink:href="#DejaVuSans-114"/>
      <use x="163.439453" xlink:href="#DejaVuSans-109"/>
      <use x="260.851562" xlink:href="#DejaVuSans-105"/>
      <use x="288.634766" xlink:href="#DejaVuSans-110"/>
      <use x="352.013672" xlink:href="#DejaVuSans-97"/>
      <use x="413.292969" xlink:href="#DejaVuSans-108"/>
     </g>
    </g>
   </g>
   <g id="text_32">
    <g id="patch_33">
     <path clip-path="url(#p7c7184d4c1)" d="M 702.246519 344.287133 
L 705.944149 340.840315 
Q 707.699701 339.203843 706.06323 337.448292 
L 700.783905 331.784809 
Q 699.147433 330.029258 697.391882 331.665729 
L 693.694251 335.112547 
Q 691.9387 336.749018 693.575171 338.50457 
L 698.854496 344.168052 
Q 700.490967 345.923604 702.246519 344.287133 
z
" style="fill:#ffffff;stroke:#ffffff;stroke-linejoin:miter;"/>
    </g>
    <g clip-path="url(#p7c7184d4c1)">
     <!-- E -->
     <g transform="translate(699.475598 341.314581)rotate(-42.989401)scale(0.08 -0.08)">
      <use xlink:href="#DejaVuSans-69"/>
     </g>
    </g>
   </g>
   <g id="text_33">
    <g id="patch_34">
     <path clip-path="url(#p7c7184d4c1)" d="M 718.088439 335.183306 
L 718.088439 340.769556 
Q 718.088439 343.169556 720.488439 343.169556 
L 728.230939 343.169556 
Q 730.630939 343.169556 730.630939 340.769556 
L 730.630939 335.183306 
Q 730.630939 332.783306 728.230939 332.783306 
L 720.488439 332.783306 
Q 718.088439 332.783306 718.088439 335.183306 
z
" style="fill:#ffffff;stroke:#ffffff;stroke-linejoin:miter;"/>
    </g>
    <g clip-path="url(#p7c7184d4c1)">
     <!-- C -->
     <g transform="translate(722.152189 335.183306)rotate(-270)scale(0.08 -0.08)">
      <use xlink:href="#DejaVuSans-67"/>
     </g>
    </g>
   </g>
   <g id="text_34">
    <g id="patch_35">
     <path clip-path="url(#p7c7184d4c1)" d="M 742.482637 340.56757 
L 746.765452 344.559878 
Q 748.521003 346.196349 750.157475 344.440798 
L 755.436799 338.777315 
Q 757.073271 337.021763 755.317719 335.385292 
L 751.034905 331.392984 
Q 749.279353 329.756512 747.642882 331.512064 
L 742.363557 337.175547 
Q 740.727085 338.931098 742.482637 340.56757 
z
" style="fill:#ffffff;stroke:#ffffff;stroke-linejoin:miter;"/>
    </g>
    <g clip-path="url(#p7c7184d4c1)">
     <!-- U -->
     <defs>
      <path d="M 8.6875 72.90625 
L 18.609375 72.90625 
L 18.609375 28.609375 
Q 18.609375 16.890625 22.84375 11.734375 
Q 27.09375 6.59375 36.625 6.59375 
Q 46.09375 6.59375 50.34375 11.734375 
Q 54.59375 16.890625 54.59375 28.609375 
L 54.59375 72.90625 
L 64.5 72.90625 
L 64.5 27.390625 
Q 64.5 13.140625 57.4375 5.859375 
Q 50.390625 -1.421875 36.625 -1.421875 
Q 22.796875 -1.421875 15.734375 5.859375 
Q 8.6875 13.140625 8.6875 27.390625 
z
" id="DejaVuSans-85"/>
     </defs>
     <g transform="translate(745.253558 337.595018)rotate(-317.010599)scale(0.08 -0.08)">
      <use xlink:href="#DejaVuSans-85"/>
     </g>
    </g>
   </g>
   <g id="text_35">
    <g id="patch_36">
     <path clip-path="url(#p7c7184d4c1)" d="M 669.007461 366.085712 
L 669.007461 401.370712 
Q 669.007461 403.770712 671.407461 403.770712 
L 679.149961 403.770712 
Q 681.549961 403.770712 681.549961 401.370712 
L 681.549961 366.085712 
Q 681.549961 363.685712 679.149961 363.685712 
L 671.407461 363.685712 
Q 669.007461 363.685712 669.007461 366.085712 
z
" style="fill:#ffffff;stroke:#ffffff;stroke-linejoin:miter;"/>
    </g>
    <g clip-path="url(#p7c7184d4c1)">
     <!-- Terminal -->
     <g transform="translate(673.071211 366.085712)rotate(-270)scale(0.08 -0.08)">
      <use xlink:href="#DejaVuSans-84"/>
      <use x="60.818359" xlink:href="#DejaVuSans-101"/>
      <use x="122.341797" xlink:href="#DejaVuSans-114"/>
      <use x="163.439453" xlink:href="#DejaVuSans-109"/>
      <use x="260.851562" xlink:href="#DejaVuSans-105"/>
      <use x="288.634766" xlink:href="#DejaVuSans-110"/>
      <use x="352.013672" xlink:href="#DejaVuSans-97"/>
      <use x="413.292969" xlink:href="#DejaVuSans-108"/>
     </g>
    </g>
   </g>
   <g id="text_36">
    <g id="patch_37">
     <path clip-path="url(#p7c7184d4c1)" d="M 718.088439 366.085712 
L 718.088439 401.370712 
Q 718.088439 403.770712 720.488439 403.770712 
L 728.230939 403.770712 
Q 730.630939 403.770712 730.630939 401.370712 
L 730.630939 366.085712 
Q 730.630939 363.685712 728.230939 363.685712 
L 720.488439 363.685712 
Q 718.088439 363.685712 718.088439 366.085712 
z
" style="fill:#ffffff;stroke:#ffffff;stroke-linejoin:miter;"/>
    </g>
    <g clip-path="url(#p7c7184d4c1)">
     <!-- Terminal -->
     <g transform="translate(722.152189 366.085712)rotate(-270)scale(0.08 -0.08)">
      <use xlink:href="#DejaVuSans-84"/>
      <use x="60.818359" xlink:href="#DejaVuSans-101"/>
      <use x="122.341797" xlink:href="#DejaVuSans-114"/>
      <use x="163.439453" xlink:href="#DejaVuSans-109"/>
      <use x="260.851562" xlink:href="#DejaVuSans-105"/>
      <use x="288.634766" xlink:href="#DejaVuSans-110"/>
      <use x="352.013672" xlink:href="#DejaVuSans-97"/>
      <use x="413.292969" xlink:href="#DejaVuSans-108"/>
     </g>
    </g>
   </g>
   <g id="text_37">
    <g id="patch_38">
     <path clip-path="url(#p7c7184d4c1)" d="M 129.116705 366.085712 
L 129.116705 401.370712 
Q 129.116705 403.770712 131.516705 403.770712 
L 139.259205 403.770712 
Q 141.659205 403.770712 141.659205 401.370712 
L 141.659205 366.085712 
Q 141.659205 363.685712 139.259205 363.685712 
L 131.516705 363.685712 
Q 129.116705 363.685712 129.116705 366.085712 
z
" style="fill:#ffffff;stroke:#ffffff;stroke-linejoin:miter;"/>
    </g>
    <g clip-path="url(#p7c7184d4c1)">
     <!-- Terminal -->
     <g transform="translate(133.180455 366.085712)rotate(-270)scale(0.08 -0.08)">
      <use xlink:href="#DejaVuSans-84"/>
      <use x="60.818359" xlink:href="#DejaVuSans-101"/>
      <use x="122.341797" xlink:href="#DejaVuSans-114"/>
      <use x="163.439453" xlink:href="#DejaVuSans-109"/>
      <use x="260.851562" xlink:href="#DejaVuSans-105"/>
      <use x="288.634766" xlink:href="#DejaVuSans-110"/>
      <use x="352.013672" xlink:href="#DejaVuSans-97"/>
      <use x="413.292969" xlink:href="#DejaVuSans-108"/>
     </g>
    </g>
   </g>
   <g id="text_38">
    <g id="patch_39">
     <path clip-path="url(#p7c7184d4c1)" d="M 193.926373 402.239682 
L 210.604866 371.145324 
Q 211.739296 369.030361 209.624333 367.89593 
L 202.801376 364.23621 
Q 200.686413 363.101779 199.551982 365.216742 
L 182.87349 396.3111 
Q 181.739059 398.426063 183.854022 399.560494 
L 190.67698 403.220214 
Q 192.791942 404.354644 193.926373 402.239682 
z
" style="fill:#ffffff;stroke:#ffffff;stroke-linejoin:miter;"/>
    </g>
    <g clip-path="url(#p7c7184d4c1)">
     <!-- Terminal -->
     <g transform="translate(190.345256 400.318831)rotate(-61.791637)scale(0.08 -0.08)">
      <use xlink:href="#DejaVuSans-84"/>
      <use x="60.818359" xlink:href="#DejaVuSans-101"/>
      <use x="122.341797" xlink:href="#DejaVuSans-114"/>
      <use x="163.439453" xlink:href="#DejaVuSans-109"/>
      <use x="260.851562" xlink:href="#DejaVuSans-105"/>
      <use x="288.634766" xlink:href="#DejaVuSans-110"/>
      <use x="352.013672" xlink:href="#DejaVuSans-97"/>
      <use x="413.292969" xlink:href="#DejaVuSans-108"/>
     </g>
    </g>
   </g>
   <g id="text_39">
    <g id="patch_40">
     <path clip-path="url(#p7c7184d4c1)" d="M 207.413979 371.145324 
L 224.092471 402.239682 
Q 225.226902 404.354644 227.341865 403.220214 
L 234.164822 399.560494 
Q 236.279785 398.426063 235.145355 396.3111 
L 218.466862 365.216742 
Q 217.332431 363.101779 215.217469 364.23621 
L 208.394511 367.89593 
Q 206.279548 369.030361 207.413979 371.145324 
z
" style="fill:#ffffff;stroke:#ffffff;stroke-linejoin:miter;"/>
    </g>
    <g clip-path="url(#p7c7184d4c1)">
     <!-- Terminal -->
     <g transform="translate(210.995095 369.224473)rotate(-298.208363)scale(0.08 -0.08)">
      <use xlink:href="#DejaVuSans-84"/>
      <use x="60.818359" xlink:href="#DejaVuSans-101"/>
      <use x="122.341797" xlink:href="#DejaVuSans-114"/>
      <use x="163.439453" xlink:href="#DejaVuSans-109"/>
      <use x="260.851562" xlink:href="#DejaVuSans-105"/>
      <use x="288.634766" xlink:href="#DejaVuSans-110"/>
      <use x="352.013672" xlink:href="#DejaVuSans-97"/>
      <use x="413.292969" xlink:href="#DejaVuSans-108"/>
     </g>
    </g>
   </g>
   <g id="text_40">
    <g id="patch_41">
     <path clip-path="url(#p7c7184d4c1)" d="M 767.169417 366.085712 
L 767.169417 401.370712 
Q 767.169417 403.770712 769.569417 403.770712 
L 777.311917 403.770712 
Q 779.711917 403.770712 779.711917 401.370712 
L 779.711917 366.085712 
Q 779.711917 363.685712 777.311917 363.685712 
L 769.569417 363.685712 
Q 767.169417 363.685712 767.169417 366.085712 
z
" style="fill:#ffffff;stroke:#ffffff;stroke-linejoin:miter;"/>
    </g>
    <g clip-path="url(#p7c7184d4c1)">
     <!-- Terminal -->
     <g transform="translate(771.233167 366.085712)rotate(-270)scale(0.08 -0.08)">
      <use xlink:href="#DejaVuSans-84"/>
      <use x="60.818359" xlink:href="#DejaVuSans-101"/>
      <use x="122.341797" xlink:href="#DejaVuSans-114"/>
      <use x="163.439453" xlink:href="#DejaVuSans-109"/>
      <use x="260.851562" xlink:href="#DejaVuSans-105"/>
      <use x="288.634766" xlink:href="#DejaVuSans-110"/>
      <use x="352.013672" xlink:href="#DejaVuSans-97"/>
      <use x="413.292969" xlink:href="#DejaVuSans-108"/>
     </g>
    </g>
   </g>
   <g id="PathCollection_1">
    <defs>
     <path d="M 0 8.660254 
C 2.296726 8.660254 4.499694 7.747755 6.123724 6.123724 
C 7.747755 4.499694 8.660254 2.296726 8.660254 0 
C 8.660254 -2.296726 7.747755 -4.499694 6.123724 -6.123724 
C 4.499694 -7.747755 2.296726 -8.660254 0 -8.660254 
C -2.296726 -8.660254 -4.499694 -7.747755 -6.123724 -6.123724 
C -7.747755 -4.499694 -8.660254 -2.296726 -8.660254 0 
C -8.660254 2.296726 -7.747755 4.499694 -6.123724 6.123724 
C -4.499694 7.747755 -2.296726 8.660254 0 8.660254 
z
" id="C0_0_b3dcf4fefc"/>
    </defs>
    <g clip-path="url(#p7c7184d4c1)">
     <use style="fill:#ffffff;stroke:#ffffff;" x="37.226" xlink:href="#C0_0_b3dcf4fefc" y="406.604103"/>
    </g>
    <g clip-path="url(#p7c7184d4c1)">
     <use style="fill:#ffffff;stroke:#ffffff;" x="86.306978" xlink:href="#C0_0_b3dcf4fefc" y="406.604103"/>
    </g>
    <g clip-path="url(#p7c7184d4c1)">
     <use style="fill:#ffffff;stroke:#ffffff;" x="135.387955" xlink:href="#C0_0_b3dcf4fefc" y="406.604103"/>
    </g>
    <g clip-path="url(#p7c7184d4c1)">
     <use style="fill:#ffffff;stroke:#ffffff;" x="184.468933" xlink:href="#C0_0_b3dcf4fefc" y="406.604103"/>
    </g>
    <g clip-path="url(#p7c7184d4c1)">
     <use style="fill:#ffffff;stroke:#ffffff;" x="233.549911" xlink:href="#C0_0_b3dcf4fefc" y="406.604103"/>
    </g>
    <g clip-path="url(#p7c7184d4c1)">
     <use style="fill:#ffffff;stroke:#ffffff;" x="282.630889" xlink:href="#C0_0_b3dcf4fefc" y="406.604103"/>
    </g>
    <g clip-path="url(#p7c7184d4c1)">
     <use style="fill:#ffffff;stroke:#ffffff;" x="331.711867" xlink:href="#C0_0_b3dcf4fefc" y="406.604103"/>
    </g>
    <g clip-path="url(#p7c7184d4c1)">
     <use style="fill:#ffffff;stroke:#ffffff;" x="380.792844" xlink:href="#C0_0_b3dcf4fefc" y="406.604103"/>
    </g>
    <g clip-path="url(#p7c7184d4c1)">
     <use style="fill:#ffffff;stroke:#ffffff;" x="429.873822" xlink:href="#C0_0_b3dcf4fefc" y="406.604103"/>
    </g>
    <g clip-path="url(#p7c7184d4c1)">
     <use style="fill:#ffffff;stroke:#ffffff;" x="478.9548" xlink:href="#C0_0_b3dcf4fefc" y="406.604103"/>
    </g>
    <g clip-path="url(#p7c7184d4c1)">
     <use style="fill:#ffffff;stroke:#ffffff;" x="528.035778" xlink:href="#C0_0_b3dcf4fefc" y="406.604103"/>
    </g>
    <g clip-path="url(#p7c7184d4c1)">
     <use style="fill:#ffffff;stroke:#ffffff;" x="577.116756" xlink:href="#C0_0_b3dcf4fefc" y="406.604103"/>
    </g>
    <g clip-path="url(#p7c7184d4c1)">
     <use style="fill:#ffffff;stroke:#ffffff;" x="626.197734" xlink:href="#C0_0_b3dcf4fefc" y="406.604103"/>
    </g>
    <g clip-path="url(#p7c7184d4c1)">
     <use style="fill:#ffffff;stroke:#ffffff;" x="675.278711" xlink:href="#C0_0_b3dcf4fefc" y="406.604103"/>
    </g>
    <g clip-path="url(#p7c7184d4c1)">
     <use style="fill:#ffffff;stroke:#ffffff;" x="724.359689" xlink:href="#C0_0_b3dcf4fefc" y="406.604103"/>
    </g>
    <g clip-path="url(#p7c7184d4c1)">
     <use style="fill:#ffffff;stroke:#ffffff;" x="773.440667" xlink:href="#C0_0_b3dcf4fefc" y="406.604103"/>
    </g>
    <g clip-path="url(#p7c7184d4c1)">
     <use style="fill:#ffffff;stroke:#ffffff;" x="163.166425" xlink:href="#C0_0_b3dcf4fefc" y="20.062564"/>
    </g>
    <g clip-path="url(#p7c7184d4c1)">
     <use style="fill:#ffffff;stroke:#ffffff;" x="163.166425" xlink:href="#C0_0_b3dcf4fefc" y="72.52286"/>
    </g>
    <g clip-path="url(#p7c7184d4c1)">
     <use style="fill:#ffffff;stroke:#ffffff;" x="37.226" xlink:href="#C0_0_b3dcf4fefc" y="360.852321"/>
    </g>
    <g clip-path="url(#p7c7184d4c1)">
     <use style="fill:#ffffff;stroke:#ffffff;" x="86.306978" xlink:href="#C0_0_b3dcf4fefc" y="360.852321"/>
    </g>
    <g clip-path="url(#p7c7184d4c1)">
     <use style="fill:#ffffff;stroke:#ffffff;" x="172.198689" xlink:href="#C0_0_b3dcf4fefc" y="315.10054"/>
    </g>
    <g clip-path="url(#p7c7184d4c1)">
     <use style="fill:#ffffff;stroke:#ffffff;" x="356.934036" xlink:href="#C0_0_b3dcf4fefc" y="123.482266"/>
    </g>
    <g clip-path="url(#p7c7184d4c1)">
     <use style="fill:#ffffff;stroke:#ffffff;" x="282.630889" xlink:href="#C0_0_b3dcf4fefc" y="360.852321"/>
    </g>
    <g clip-path="url(#p7c7184d4c1)">
     <use style="fill:#ffffff;stroke:#ffffff;" x="331.711867" xlink:href="#C0_0_b3dcf4fefc" y="360.852321"/>
    </g>
    <g clip-path="url(#p7c7184d4c1)">
     <use style="fill:#ffffff;stroke:#ffffff;" x="456.459352" xlink:href="#C0_0_b3dcf4fefc" y="173.072023"/>
    </g>
    <g clip-path="url(#p7c7184d4c1)">
     <use style="fill:#ffffff;stroke:#ffffff;" x="380.792844" xlink:href="#C0_0_b3dcf4fefc" y="360.852321"/>
    </g>
    <g clip-path="url(#p7c7184d4c1)">
     <use style="fill:#ffffff;stroke:#ffffff;" x="429.873822" xlink:href="#C0_0_b3dcf4fefc" y="360.852321"/>
    </g>
    <g clip-path="url(#p7c7184d4c1)">
     <use style="fill:#ffffff;stroke:#ffffff;" x="478.9548" xlink:href="#C0_0_b3dcf4fefc" y="360.852321"/>
    </g>
    <g clip-path="url(#p7c7184d4c1)">
     <use style="fill:#ffffff;stroke:#ffffff;" x="536.215941" xlink:href="#C0_0_b3dcf4fefc" y="221.430822"/>
    </g>
    <g clip-path="url(#p7c7184d4c1)">
     <use style="fill:#ffffff;stroke:#ffffff;" x="528.035778" xlink:href="#C0_0_b3dcf4fefc" y="360.852321"/>
    </g>
    <g clip-path="url(#p7c7184d4c1)">
     <use style="fill:#ffffff;stroke:#ffffff;" x="601.657245" xlink:href="#C0_0_b3dcf4fefc" y="268.712301"/>
    </g>
    <g clip-path="url(#p7c7184d4c1)">
     <use style="fill:#ffffff;stroke:#ffffff;" x="577.116756" xlink:href="#C0_0_b3dcf4fefc" y="360.852321"/>
    </g>
    <g clip-path="url(#p7c7184d4c1)">
     <use style="fill:#ffffff;stroke:#ffffff;" x="626.197734" xlink:href="#C0_0_b3dcf4fefc" y="360.852321"/>
    </g>
    <g clip-path="url(#p7c7184d4c1)">
     <use style="fill:#ffffff;stroke:#ffffff;" x="724.359689" xlink:href="#C0_0_b3dcf4fefc" y="315.10054"/>
    </g>
    <g clip-path="url(#p7c7184d4c1)">
     <use style="fill:#ffffff;stroke:#ffffff;" x="675.278711" xlink:href="#C0_0_b3dcf4fefc" y="360.852321"/>
    </g>
    <g clip-path="url(#p7c7184d4c1)">
     <use style="fill:#ffffff;stroke:#ffffff;" x="724.359689" xlink:href="#C0_0_b3dcf4fefc" y="360.852321"/>
    </g>
    <g clip-path="url(#p7c7184d4c1)">
     <use style="fill:#ffffff;stroke:#ffffff;" x="135.387955" xlink:href="#C0_0_b3dcf4fefc" y="360.852321"/>
    </g>
    <g clip-path="url(#p7c7184d4c1)">
     <use style="fill:#ffffff;stroke:#ffffff;" x="209.009422" xlink:href="#C0_0_b3dcf4fefc" y="360.852321"/>
    </g>
    <g clip-path="url(#p7c7184d4c1)">
     <use style="fill:#ffffff;stroke:#ffffff;" x="773.440667" xlink:href="#C0_0_b3dcf4fefc" y="360.852321"/>
    </g>
   </g>
   <g id="text_41">
    <g clip-path="url(#p7c7184d4c1)">
     <!-- On -->
     <defs>
      <path d="M 39.40625 66.21875 
Q 28.65625 66.21875 22.328125 58.203125 
Q 16.015625 50.203125 16.015625 36.375 
Q 16.015625 22.609375 22.328125 14.59375 
Q 28.65625 6.59375 39.40625 6.59375 
Q 50.140625 6.59375 56.421875 14.59375 
Q 62.703125 22.609375 62.703125 36.375 
Q 62.703125 50.203125 56.421875 58.203125 
Q 50.140625 66.21875 39.40625 66.21875 
z
M 39.40625 74.21875 
Q 54.734375 74.21875 63.90625 63.9375 
Q 73.09375 53.65625 73.09375 36.375 
Q 73.09375 19.140625 63.90625 8.859375 
Q 54.734375 -1.421875 39.40625 -1.421875 
Q 24.03125 -1.421875 14.8125 8.828125 
Q 5.609375 19.09375 5.609375 36.375 
Q 5.609375 53.65625 14.8125 63.9375 
Q 24.03125 74.21875 39.40625 74.21875 
z
" id="DejaVuSans-79"/>
     </defs>
     <g transform="translate(30.121312 409.363478)scale(0.1 -0.1)">
      <use xlink:href="#DejaVuSans-79"/>
      <use x="78.710938" xlink:href="#DejaVuSans-110"/>
     </g>
    </g>
   </g>
   <g id="text_42">
    <g clip-path="url(#p7c7184d4c1)">
     <!-- fit -->
     <defs>
      <path d="M 37.109375 75.984375 
L 37.109375 68.5 
L 28.515625 68.5 
Q 23.6875 68.5 21.796875 66.546875 
Q 19.921875 64.59375 19.921875 59.515625 
L 19.921875 54.6875 
L 34.71875 54.6875 
L 34.71875 47.703125 
L 19.921875 47.703125 
L 19.921875 0 
L 10.890625 0 
L 10.890625 47.703125 
L 2.296875 47.703125 
L 2.296875 54.6875 
L 10.890625 54.6875 
L 10.890625 58.5 
Q 10.890625 67.625 15.140625 71.796875 
Q 19.390625 75.984375 28.609375 75.984375 
z
" id="DejaVuSans-102"/>
      <path d="M 18.3125 70.21875 
L 18.3125 54.6875 
L 36.8125 54.6875 
L 36.8125 47.703125 
L 18.3125 47.703125 
L 18.3125 18.015625 
Q 18.3125 11.328125 20.140625 9.421875 
Q 21.96875 7.515625 27.59375 7.515625 
L 36.8125 7.515625 
L 36.8125 0 
L 27.59375 0 
Q 17.1875 0 13.234375 3.875 
Q 9.28125 7.765625 9.28125 18.015625 
L 9.28125 47.703125 
L 2.6875 47.703125 
L 2.6875 54.6875 
L 9.28125 54.6875 
L 9.28125 70.21875 
z
" id="DejaVuSans-116"/>
     </defs>
     <g transform="translate(81.197603 409.363478)scale(0.1 -0.1)">
      <use xlink:href="#DejaVuSans-102"/>
      <use x="35.205078" xlink:href="#DejaVuSans-105"/>
      <use x="62.988281" xlink:href="#DejaVuSans-116"/>
     </g>
    </g>
   </g>
   <g id="text_43">
    <g clip-path="url(#p7c7184d4c1)">
     <!--  -->
     <defs>
      <path d="M 34.28125 27.484375 
Q 23.390625 27.484375 19.1875 25 
Q 14.984375 22.515625 14.984375 16.5 
Q 14.984375 11.71875 18.140625 8.90625 
Q 21.296875 6.109375 26.703125 6.109375 
Q 34.1875 6.109375 38.703125 11.40625 
Q 43.21875 16.703125 43.21875 25.484375 
L 43.21875 27.484375 
z
M 52.203125 31.203125 
L 52.203125 0 
L 43.21875 0 
L 43.21875 8.296875 
Q 40.140625 3.328125 35.546875 0.953125 
Q 30.953125 -1.421875 24.3125 -1.421875 
Q 15.921875 -1.421875 10.953125 3.296875 
Q 6 8.015625 6 15.921875 
Q 6 25.140625 12.171875 29.828125 
Q 18.359375 34.515625 30.609375 34.515625 
L 43.21875 34.515625 
L 43.21875 35.40625 
Q 43.21875 41.609375 39.140625 45 
Q 35.0625 48.390625 27.6875 48.390625 
Q 23 48.390625 18.546875 47.265625 
Q 14.109375 46.140625 10.015625 43.890625 
L 10.015625 52.203125 
Q 14.9375 54.109375 19.578125 55.046875 
Q 24.21875 56 28.609375 56 
Q 40.484375 56 46.34375 49.84375 
Q 52.203125 43.703125 52.203125 31.203125 
z
M 21.921875 79.984375 
L 35.6875 61.71875 
L 28.21875 61.71875 
L 12.296875 79.984375 
z
" id="DejaVuSans-224"/>
     </defs>
     <g transform="translate(132.323893 409.363478)scale(0.1 -0.1)">
      <use xlink:href="#DejaVuSans-224"/>
     </g>
    </g>
   </g>
   <g id="text_44">
    <g clip-path="url(#p7c7184d4c1)">
     <!-- New -->
     <defs>
      <path d="M 9.8125 72.90625 
L 23.09375 72.90625 
L 55.421875 11.921875 
L 55.421875 72.90625 
L 64.984375 72.90625 
L 64.984375 0 
L 51.703125 0 
L 19.390625 60.984375 
L 19.390625 0 
L 9.8125 0 
z
" id="DejaVuSans-78"/>
      <path d="M 4.203125 54.6875 
L 13.1875 54.6875 
L 24.421875 12.015625 
L 35.59375 54.6875 
L 46.1875 54.6875 
L 57.421875 12.015625 
L 68.609375 54.6875 
L 77.59375 54.6875 
L 63.28125 0 
L 52.6875 0 
L 40.921875 44.828125 
L 29.109375 0 
L 18.5 0 
z
" id="DejaVuSans-119"/>
     </defs>
     <g transform="translate(173.562683 409.363478)scale(0.1 -0.1)">
      <use xlink:href="#DejaVuSans-78"/>
      <use x="74.804688" xlink:href="#DejaVuSans-101"/>
      <use x="136.328125" xlink:href="#DejaVuSans-119"/>
     </g>
    </g>
   </g>
   <g id="text_45">
    <g clip-path="url(#p7c7184d4c1)">
     <!-- York -->
     <defs>
      <path d="M -0.203125 72.90625 
L 10.40625 72.90625 
L 30.609375 42.921875 
L 50.6875 72.90625 
L 61.28125 72.90625 
L 35.5 34.71875 
L 35.5 0 
L 25.59375 0 
L 25.59375 34.71875 
z
" id="DejaVuSans-89"/>
      <path d="M 30.609375 48.390625 
Q 23.390625 48.390625 19.1875 42.75 
Q 14.984375 37.109375 14.984375 27.296875 
Q 14.984375 17.484375 19.15625 11.84375 
Q 23.34375 6.203125 30.609375 6.203125 
Q 37.796875 6.203125 41.984375 11.859375 
Q 46.1875 17.53125 46.1875 27.296875 
Q 46.1875 37.015625 41.984375 42.703125 
Q 37.796875 48.390625 30.609375 48.390625 
z
M 30.609375 56 
Q 42.328125 56 49.015625 48.375 
Q 55.71875 40.765625 55.71875 27.296875 
Q 55.71875 13.875 49.015625 6.21875 
Q 42.328125 -1.421875 30.609375 -1.421875 
Q 18.84375 -1.421875 12.171875 6.21875 
Q 5.515625 13.875 5.515625 27.296875 
Q 5.515625 40.765625 12.171875 48.375 
Q 18.84375 56 30.609375 56 
z
" id="DejaVuSans-111"/>
      <path d="M 9.078125 75.984375 
L 18.109375 75.984375 
L 18.109375 31.109375 
L 44.921875 54.6875 
L 56.390625 54.6875 
L 27.390625 29.109375 
L 57.625 0 
L 45.90625 0 
L 18.109375 26.703125 
L 18.109375 0 
L 9.078125 0 
z
" id="DejaVuSans-107"/>
     </defs>
     <g transform="translate(222.496005 409.363478)scale(0.1 -0.1)">
      <use xlink:href="#DejaVuSans-89"/>
      <use x="60.880859" xlink:href="#DejaVuSans-111"/>
      <use x="122.0625" xlink:href="#DejaVuSans-114"/>
      <use x="163.175781" xlink:href="#DejaVuSans-107"/>
     </g>
    </g>
   </g>
   <g id="text_46">
    <g clip-path="url(#p7c7184d4c1)">
     <!-- les -->
     <defs>
      <path d="M 44.28125 53.078125 
L 44.28125 44.578125 
Q 40.484375 46.53125 36.375 47.5 
Q 32.28125 48.484375 27.875 48.484375 
Q 21.1875 48.484375 17.84375 46.4375 
Q 14.5 44.390625 14.5 40.28125 
Q 14.5 37.15625 16.890625 35.375 
Q 19.28125 33.59375 26.515625 31.984375 
L 29.59375 31.296875 
Q 39.15625 29.25 43.1875 25.515625 
Q 47.21875 21.78125 47.21875 15.09375 
Q 47.21875 7.46875 41.1875 3.015625 
Q 35.15625 -1.421875 24.609375 -1.421875 
Q 20.21875 -1.421875 15.453125 -0.5625 
Q 10.6875 0.296875 5.421875 2 
L 5.421875 11.28125 
Q 10.40625 8.6875 15.234375 7.390625 
Q 20.0625 6.109375 24.8125 6.109375 
Q 31.15625 6.109375 34.5625 8.28125 
Q 37.984375 10.453125 37.984375 14.40625 
Q 37.984375 18.0625 35.515625 20.015625 
Q 33.0625 21.96875 24.703125 23.78125 
L 21.578125 24.515625 
Q 13.234375 26.265625 9.515625 29.90625 
Q 5.8125 33.546875 5.8125 39.890625 
Q 5.8125 47.609375 11.28125 51.796875 
Q 16.75 56 26.8125 56 
Q 31.78125 56 36.171875 55.265625 
Q 40.578125 54.546875 44.28125 53.078125 
z
" id="DejaVuSans-115"/>
     </defs>
     <g transform="translate(275.560576 409.363478)scale(0.1 -0.1)">
      <use xlink:href="#DejaVuSans-108"/>
      <use x="27.783203" xlink:href="#DejaVuSans-101"/>
      <use x="89.306641" xlink:href="#DejaVuSans-115"/>
     </g>
    </g>
   </g>
   <g id="text_47">
    <g clip-path="url(#p7c7184d4c1)">
     <!-- prparatifs -->
     <defs>
      <path d="M 18.109375 8.203125 
L 18.109375 -20.796875 
L 9.078125 -20.796875 
L 9.078125 54.6875 
L 18.109375 54.6875 
L 18.109375 46.390625 
Q 20.953125 51.265625 25.265625 53.625 
Q 29.59375 56 35.59375 56 
Q 45.5625 56 51.78125 48.09375 
Q 58.015625 40.1875 58.015625 27.296875 
Q 58.015625 14.40625 51.78125 6.484375 
Q 45.5625 -1.421875 35.59375 -1.421875 
Q 29.59375 -1.421875 25.265625 0.953125 
Q 20.953125 3.328125 18.109375 8.203125 
z
M 48.6875 27.296875 
Q 48.6875 37.203125 44.609375 42.84375 
Q 40.53125 48.484375 33.40625 48.484375 
Q 26.265625 48.484375 22.1875 42.84375 
Q 18.109375 37.203125 18.109375 27.296875 
Q 18.109375 17.390625 22.1875 11.75 
Q 26.265625 6.109375 33.40625 6.109375 
Q 40.53125 6.109375 44.609375 11.75 
Q 48.6875 17.390625 48.6875 27.296875 
z
" id="DejaVuSans-112"/>
      <path d="M 56.203125 29.59375 
L 56.203125 25.203125 
L 14.890625 25.203125 
Q 15.484375 15.921875 20.484375 11.0625 
Q 25.484375 6.203125 34.421875 6.203125 
Q 39.59375 6.203125 44.453125 7.46875 
Q 49.3125 8.734375 54.109375 11.28125 
L 54.109375 2.78125 
Q 49.265625 0.734375 44.1875 -0.34375 
Q 39.109375 -1.421875 33.890625 -1.421875 
Q 20.796875 -1.421875 13.15625 6.1875 
Q 5.515625 13.8125 5.515625 26.8125 
Q 5.515625 40.234375 12.765625 48.109375 
Q 20.015625 56 32.328125 56 
Q 43.359375 56 49.78125 48.890625 
Q 56.203125 41.796875 56.203125 29.59375 
z
M 47.21875 32.234375 
Q 47.125 39.59375 43.09375 43.984375 
Q 39.0625 48.390625 32.421875 48.390625 
Q 24.90625 48.390625 20.390625 44.140625 
Q 15.875 39.890625 15.1875 32.171875 
z
M 38.53125 79.984375 
L 48.25 79.984375 
L 32.34375 61.625 
L 24.859375 61.625 
z
" id="DejaVuSans-233"/>
     </defs>
     <g transform="translate(304.335304 409.563478)scale(0.1 -0.1)">
      <use xlink:href="#DejaVuSans-112"/>
      <use x="63.476562" xlink:href="#DejaVuSans-114"/>
      <use x="104.558594" xlink:href="#DejaVuSans-233"/>
      <use x="166.082031" xlink:href="#DejaVuSans-112"/>
      <use x="229.558594" xlink:href="#DejaVuSans-97"/>
      <use x="290.837891" xlink:href="#DejaVuSans-114"/>
      <use x="331.951172" xlink:href="#DejaVuSans-97"/>
      <use x="393.230469" xlink:href="#DejaVuSans-116"/>
      <use x="432.439453" xlink:href="#DejaVuSans-105"/>
      <use x="460.222656" xlink:href="#DejaVuSans-102"/>
      <use x="495.427734" xlink:href="#DejaVuSans-115"/>
     </g>
    </g>
   </g>
   <g id="text_48">
    <g clip-path="url(#p7c7184d4c1)">
     <!-- d' -->
     <defs>
      <path d="M 45.40625 46.390625 
L 45.40625 75.984375 
L 54.390625 75.984375 
L 54.390625 0 
L 45.40625 0 
L 45.40625 8.203125 
Q 42.578125 3.328125 38.25 0.953125 
Q 33.9375 -1.421875 27.875 -1.421875 
Q 17.96875 -1.421875 11.734375 6.484375 
Q 5.515625 14.40625 5.515625 27.296875 
Q 5.515625 40.1875 11.734375 48.09375 
Q 17.96875 56 27.875 56 
Q 33.9375 56 38.25 53.625 
Q 42.578125 51.265625 45.40625 46.390625 
z
M 14.796875 27.296875 
Q 14.796875 17.390625 18.875 11.75 
Q 22.953125 6.109375 30.078125 6.109375 
Q 37.203125 6.109375 41.296875 11.75 
Q 45.40625 17.390625 45.40625 27.296875 
Q 45.40625 37.203125 41.296875 42.84375 
Q 37.203125 48.484375 30.078125 48.484375 
Q 22.953125 48.484375 18.875 42.84375 
Q 14.796875 37.203125 14.796875 27.296875 
z
" id="DejaVuSans-100"/>
      <path d="M 17.921875 72.90625 
L 17.921875 45.796875 
L 9.625 45.796875 
L 9.625 72.90625 
z
" id="DejaVuSans-39"/>
     </defs>
     <g transform="translate(376.244407 409.363478)scale(0.1 -0.1)">
      <use xlink:href="#DejaVuSans-100"/>
      <use x="63.476562" xlink:href="#DejaVuSans-39"/>
     </g>
    </g>
   </g>
   <g id="text_49">
    <g clip-path="url(#p7c7184d4c1)">
     <!-- une -->
     <defs>
      <path d="M 8.5 21.578125 
L 8.5 54.6875 
L 17.484375 54.6875 
L 17.484375 21.921875 
Q 17.484375 14.15625 20.5 10.265625 
Q 23.53125 6.390625 29.59375 6.390625 
Q 36.859375 6.390625 41.078125 11.03125 
Q 45.3125 15.671875 45.3125 23.6875 
L 45.3125 54.6875 
L 54.296875 54.6875 
L 54.296875 0 
L 45.3125 0 
L 45.3125 8.40625 
Q 42.046875 3.421875 37.71875 1 
Q 33.40625 -1.421875 27.6875 -1.421875 
Q 18.265625 -1.421875 13.375 4.4375 
Q 8.5 10.296875 8.5 21.578125 
z
M 31.109375 56 
z
" id="DejaVuSans-117"/>
     </defs>
     <g transform="translate(420.45976 409.363478)scale(0.1 -0.1)">
      <use xlink:href="#DejaVuSans-117"/>
      <use x="63.378906" xlink:href="#DejaVuSans-110"/>
      <use x="126.757812" xlink:href="#DejaVuSans-101"/>
     </g>
    </g>
   </g>
   <g id="text_50">
    <g clip-path="url(#p7c7184d4c1)">
     <!-- expdition -->
     <defs>
      <path d="M 54.890625 54.6875 
L 35.109375 28.078125 
L 55.90625 0 
L 45.3125 0 
L 29.390625 21.484375 
L 13.484375 0 
L 2.875 0 
L 24.125 28.609375 
L 4.6875 54.6875 
L 15.28125 54.6875 
L 29.78125 35.203125 
L 44.28125 54.6875 
z
" id="DejaVuSans-120"/>
     </defs>
     <g transform="translate(452.528238 409.563478)scale(0.1 -0.1)">
      <use xlink:href="#DejaVuSans-101"/>
      <use x="61.507812" xlink:href="#DejaVuSans-120"/>
      <use x="120.6875" xlink:href="#DejaVuSans-112"/>
      <use x="184.164062" xlink:href="#DejaVuSans-233"/>
      <use x="245.6875" xlink:href="#DejaVuSans-100"/>
      <use x="309.164062" xlink:href="#DejaVuSans-105"/>
      <use x="336.947266" xlink:href="#DejaVuSans-116"/>
      <use x="376.15625" xlink:href="#DejaVuSans-105"/>
      <use x="403.939453" xlink:href="#DejaVuSans-111"/>
      <use x="465.121094" xlink:href="#DejaVuSans-110"/>
     </g>
    </g>
   </g>
   <g id="text_51">
    <g clip-path="url(#p7c7184d4c1)">
     <!-- destine -->
     <g transform="translate(506.509215 409.363478)scale(0.1 -0.1)">
      <use xlink:href="#DejaVuSans-100"/>
      <use x="63.476562" xlink:href="#DejaVuSans-101"/>
      <use x="125" xlink:href="#DejaVuSans-115"/>
      <use x="177.099609" xlink:href="#DejaVuSans-116"/>
      <use x="216.308594" xlink:href="#DejaVuSans-105"/>
      <use x="244.091797" xlink:href="#DejaVuSans-110"/>
      <use x="307.470703" xlink:href="#DejaVuSans-233"/>
      <use x="368.994141" xlink:href="#DejaVuSans-101"/>
     </g>
    </g>
   </g>
   <g id="text_52">
    <g clip-path="url(#p7c7184d4c1)">
     <!--  -->
     <g transform="translate(574.052693 409.363478)scale(0.1 -0.1)">
      <use xlink:href="#DejaVuSans-224"/>
     </g>
    </g>
   </g>
   <g id="text_53">
    <g clip-path="url(#p7c7184d4c1)">
     <!-- poursuivre -->
     <defs>
      <path d="M 2.984375 54.6875 
L 12.5 54.6875 
L 29.59375 8.796875 
L 46.6875 54.6875 
L 56.203125 54.6875 
L 35.6875 0 
L 23.484375 0 
z
" id="DejaVuSans-118"/>
     </defs>
     <g transform="translate(599.487577 409.363478)scale(0.1 -0.1)">
      <use xlink:href="#DejaVuSans-112"/>
      <use x="63.476562" xlink:href="#DejaVuSans-111"/>
      <use x="124.658203" xlink:href="#DejaVuSans-117"/>
      <use x="188.037109" xlink:href="#DejaVuSans-114"/>
      <use x="229.150391" xlink:href="#DejaVuSans-115"/>
      <use x="281.25" xlink:href="#DejaVuSans-117"/>
      <use x="344.628906" xlink:href="#DejaVuSans-105"/>
      <use x="372.412109" xlink:href="#DejaVuSans-118"/>
      <use x="431.591797" xlink:href="#DejaVuSans-114"/>
      <use x="472.673828" xlink:href="#DejaVuSans-101"/>
     </g>
    </g>
   </g>
   <g id="text_54">
    <g clip-path="url(#p7c7184d4c1)">
     <!-- le -->
     <g transform="translate(670.813086 409.363478)scale(0.1 -0.1)">
      <use xlink:href="#DejaVuSans-108"/>
      <use x="27.783203" xlink:href="#DejaVuSans-101"/>
     </g>
    </g>
   </g>
   <g id="text_55">
    <g clip-path="url(#p7c7184d4c1)">
     <!-- narwal -->
     <g transform="translate(707.52922 409.363478)scale(0.1 -0.1)">
      <use xlink:href="#DejaVuSans-110"/>
      <use x="63.378906" xlink:href="#DejaVuSans-97"/>
      <use x="124.658203" xlink:href="#DejaVuSans-114"/>
      <use x="165.771484" xlink:href="#DejaVuSans-119"/>
      <use x="247.558594" xlink:href="#DejaVuSans-97"/>
      <use x="308.837891" xlink:href="#DejaVuSans-108"/>
     </g>
    </g>
   </g>
   <g id="text_56">
    <g clip-path="url(#p7c7184d4c1)">
     <!-- . -->
     <defs>
      <path d="M 10.6875 12.40625 
L 21 12.40625 
L 21 0 
L 10.6875 0 
z
" id="DejaVuSans-46"/>
     </defs>
     <g transform="translate(771.851604 409.363478)scale(0.1 -0.1)">
      <use xlink:href="#DejaVuSans-46"/>
     </g>
    </g>
   </g>
   <g id="text_57">
    <g clip-path="url(#p7c7184d4c1)">
     <!-- 1.1 -->
     <defs>
      <path d="M 12.40625 8.296875 
L 28.515625 8.296875 
L 28.515625 63.921875 
L 10.984375 60.40625 
L 10.984375 69.390625 
L 28.421875 72.90625 
L 38.28125 72.90625 
L 38.28125 8.296875 
L 54.390625 8.296875 
L 54.390625 0 
L 12.40625 0 
z
" id="DejaVuSans-49"/>
     </defs>
     <g transform="translate(155.214863 22.821939)scale(0.1 -0.1)">
      <use xlink:href="#DejaVuSans-49"/>
      <use x="63.623047" xlink:href="#DejaVuSans-46"/>
      <use x="95.410156" xlink:href="#DejaVuSans-49"/>
     </g>
    </g>
   </g>
   <g id="text_58">
    <g clip-path="url(#p7c7184d4c1)">
     <!-- 1.2 -->
     <defs>
      <path d="M 19.1875 8.296875 
L 53.609375 8.296875 
L 53.609375 0 
L 7.328125 0 
L 7.328125 8.296875 
Q 12.9375 14.109375 22.625 23.890625 
Q 32.328125 33.6875 34.8125 36.53125 
Q 39.546875 41.84375 41.421875 45.53125 
Q 43.3125 49.21875 43.3125 52.78125 
Q 43.3125 58.59375 39.234375 62.25 
Q 35.15625 65.921875 28.609375 65.921875 
Q 23.96875 65.921875 18.8125 64.3125 
Q 13.671875 62.703125 7.8125 59.421875 
L 7.8125 69.390625 
Q 13.765625 71.78125 18.9375 73 
Q 24.125 74.21875 28.421875 74.21875 
Q 39.75 74.21875 46.484375 68.546875 
Q 53.21875 62.890625 53.21875 53.421875 
Q 53.21875 48.921875 51.53125 44.890625 
Q 49.859375 40.875 45.40625 35.40625 
Q 44.1875 33.984375 37.640625 27.21875 
Q 31.109375 20.453125 19.1875 8.296875 
z
" id="DejaVuSans-50"/>
     </defs>
     <g transform="translate(155.214863 75.282235)scale(0.1 -0.1)">
      <use xlink:href="#DejaVuSans-49"/>
      <use x="63.623047" xlink:href="#DejaVuSans-46"/>
      <use x="95.410156" xlink:href="#DejaVuSans-50"/>
     </g>
    </g>
   </g>
   <g id="text_59">
    <g clip-path="url(#p7c7184d4c1)">
     <!-- 1.4 -->
     <defs>
      <path d="M 37.796875 64.3125 
L 12.890625 25.390625 
L 37.796875 25.390625 
z
M 35.203125 72.90625 
L 47.609375 72.90625 
L 47.609375 25.390625 
L 58.015625 25.390625 
L 58.015625 17.1875 
L 47.609375 17.1875 
L 47.609375 0 
L 37.796875 0 
L 37.796875 17.1875 
L 4.890625 17.1875 
L 4.890625 26.703125 
z
" id="DejaVuSans-52"/>
     </defs>
     <g transform="translate(29.274437 363.611696)scale(0.1 -0.1)">
      <use xlink:href="#DejaVuSans-49"/>
      <use x="63.623047" xlink:href="#DejaVuSans-46"/>
      <use x="95.410156" xlink:href="#DejaVuSans-52"/>
     </g>
    </g>
   </g>
   <g id="text_60">
    <g clip-path="url(#p7c7184d4c1)">
     <!-- 1.5 -->
     <defs>
      <path d="M 10.796875 72.90625 
L 49.515625 72.90625 
L 49.515625 64.59375 
L 19.828125 64.59375 
L 19.828125 46.734375 
Q 21.96875 47.46875 24.109375 47.828125 
Q 26.265625 48.1875 28.421875 48.1875 
Q 40.625 48.1875 47.75 41.5 
Q 54.890625 34.8125 54.890625 23.390625 
Q 54.890625 11.625 47.5625 5.09375 
Q 40.234375 -1.421875 26.90625 -1.421875 
Q 22.3125 -1.421875 17.546875 -0.640625 
Q 12.796875 0.140625 7.71875 1.703125 
L 7.71875 11.625 
Q 12.109375 9.234375 16.796875 8.0625 
Q 21.484375 6.890625 26.703125 6.890625 
Q 35.15625 6.890625 40.078125 11.328125 
Q 45.015625 15.765625 45.015625 23.390625 
Q 45.015625 31 40.078125 35.4375 
Q 35.15625 39.890625 26.703125 39.890625 
Q 22.75 39.890625 18.8125 39.015625 
Q 14.890625 38.140625 10.796875 36.28125 
z
" id="DejaVuSans-53"/>
     </defs>
     <g transform="translate(78.355415 363.611696)scale(0.1 -0.1)">
      <use xlink:href="#DejaVuSans-49"/>
      <use x="63.623047" xlink:href="#DejaVuSans-46"/>
      <use x="95.410156" xlink:href="#DejaVuSans-53"/>
     </g>
    </g>
   </g>
   <g id="text_61">
    <g clip-path="url(#p7c7184d4c1)">
     <!-- 1.6 -->
     <defs>
      <path d="M 33.015625 40.375 
Q 26.375 40.375 22.484375 35.828125 
Q 18.609375 31.296875 18.609375 23.390625 
Q 18.609375 15.53125 22.484375 10.953125 
Q 26.375 6.390625 33.015625 6.390625 
Q 39.65625 6.390625 43.53125 10.953125 
Q 47.40625 15.53125 47.40625 23.390625 
Q 47.40625 31.296875 43.53125 35.828125 
Q 39.65625 40.375 33.015625 40.375 
z
M 52.59375 71.296875 
L 52.59375 62.3125 
Q 48.875 64.0625 45.09375 64.984375 
Q 41.3125 65.921875 37.59375 65.921875 
Q 27.828125 65.921875 22.671875 59.328125 
Q 17.53125 52.734375 16.796875 39.40625 
Q 19.671875 43.65625 24.015625 45.921875 
Q 28.375 48.1875 33.59375 48.1875 
Q 44.578125 48.1875 50.953125 41.515625 
Q 57.328125 34.859375 57.328125 23.390625 
Q 57.328125 12.15625 50.6875 5.359375 
Q 44.046875 -1.421875 33.015625 -1.421875 
Q 20.359375 -1.421875 13.671875 8.265625 
Q 6.984375 17.96875 6.984375 36.375 
Q 6.984375 53.65625 15.1875 63.9375 
Q 23.390625 74.21875 37.203125 74.21875 
Q 40.921875 74.21875 44.703125 73.484375 
Q 48.484375 72.75 52.59375 71.296875 
z
" id="DejaVuSans-54"/>
     </defs>
     <g transform="translate(164.247126 317.859915)scale(0.1 -0.1)">
      <use xlink:href="#DejaVuSans-49"/>
      <use x="63.623047" xlink:href="#DejaVuSans-46"/>
      <use x="95.410156" xlink:href="#DejaVuSans-54"/>
     </g>
    </g>
   </g>
   <g id="text_62">
    <g clip-path="url(#p7c7184d4c1)">
     <!-- 1.7 -->
     <defs>
      <path d="M 8.203125 72.90625 
L 55.078125 72.90625 
L 55.078125 68.703125 
L 28.609375 0 
L 18.3125 0 
L 43.21875 64.59375 
L 8.203125 64.59375 
z
" id="DejaVuSans-55"/>
     </defs>
     <g transform="translate(348.982473 126.241641)scale(0.1 -0.1)">
      <use xlink:href="#DejaVuSans-49"/>
      <use x="63.623047" xlink:href="#DejaVuSans-46"/>
      <use x="95.410156" xlink:href="#DejaVuSans-55"/>
     </g>
    </g>
   </g>
   <g id="text_63">
    <g clip-path="url(#p7c7184d4c1)">
     <!-- 1.8 -->
     <defs>
      <path d="M 31.78125 34.625 
Q 24.75 34.625 20.71875 30.859375 
Q 16.703125 27.09375 16.703125 20.515625 
Q 16.703125 13.921875 20.71875 10.15625 
Q 24.75 6.390625 31.78125 6.390625 
Q 38.8125 6.390625 42.859375 10.171875 
Q 46.921875 13.96875 46.921875 20.515625 
Q 46.921875 27.09375 42.890625 30.859375 
Q 38.875 34.625 31.78125 34.625 
z
M 21.921875 38.8125 
Q 15.578125 40.375 12.03125 44.71875 
Q 8.5 49.078125 8.5 55.328125 
Q 8.5 64.0625 14.71875 69.140625 
Q 20.953125 74.21875 31.78125 74.21875 
Q 42.671875 74.21875 48.875 69.140625 
Q 55.078125 64.0625 55.078125 55.328125 
Q 55.078125 49.078125 51.53125 44.71875 
Q 48 40.375 41.703125 38.8125 
Q 48.828125 37.15625 52.796875 32.3125 
Q 56.78125 27.484375 56.78125 20.515625 
Q 56.78125 9.90625 50.3125 4.234375 
Q 43.84375 -1.421875 31.78125 -1.421875 
Q 19.734375 -1.421875 13.25 4.234375 
Q 6.78125 9.90625 6.78125 20.515625 
Q 6.78125 27.484375 10.78125 32.3125 
Q 14.796875 37.15625 21.921875 38.8125 
z
M 18.3125 54.390625 
Q 18.3125 48.734375 21.84375 45.5625 
Q 25.390625 42.390625 31.78125 42.390625 
Q 38.140625 42.390625 41.71875 45.5625 
Q 45.3125 48.734375 45.3125 54.390625 
Q 45.3125 60.0625 41.71875 63.234375 
Q 38.140625 66.40625 31.78125 66.40625 
Q 25.390625 66.40625 21.84375 63.234375 
Q 18.3125 60.0625 18.3125 54.390625 
z
" id="DejaVuSans-56"/>
     </defs>
     <g transform="translate(274.679326 363.611696)scale(0.1 -0.1)">
      <use xlink:href="#DejaVuSans-49"/>
      <use x="63.623047" xlink:href="#DejaVuSans-46"/>
      <use x="95.410156" xlink:href="#DejaVuSans-56"/>
     </g>
    </g>
   </g>
   <g id="text_64">
    <g clip-path="url(#p7c7184d4c1)">
     <!-- 1.9 -->
     <defs>
      <path d="M 10.984375 1.515625 
L 10.984375 10.5 
Q 14.703125 8.734375 18.5 7.8125 
Q 22.3125 6.890625 25.984375 6.890625 
Q 35.75 6.890625 40.890625 13.453125 
Q 46.046875 20.015625 46.78125 33.40625 
Q 43.953125 29.203125 39.59375 26.953125 
Q 35.25 24.703125 29.984375 24.703125 
Q 19.046875 24.703125 12.671875 31.3125 
Q 6.296875 37.9375 6.296875 49.421875 
Q 6.296875 60.640625 12.9375 67.421875 
Q 19.578125 74.21875 30.609375 74.21875 
Q 43.265625 74.21875 49.921875 64.515625 
Q 56.59375 54.828125 56.59375 36.375 
Q 56.59375 19.140625 48.40625 8.859375 
Q 40.234375 -1.421875 26.421875 -1.421875 
Q 22.703125 -1.421875 18.890625 -0.6875 
Q 15.09375 0.046875 10.984375 1.515625 
z
M 30.609375 32.421875 
Q 37.25 32.421875 41.125 36.953125 
Q 45.015625 41.5 45.015625 49.421875 
Q 45.015625 57.28125 41.125 61.84375 
Q 37.25 66.40625 30.609375 66.40625 
Q 23.96875 66.40625 20.09375 61.84375 
Q 16.21875 57.28125 16.21875 49.421875 
Q 16.21875 41.5 20.09375 36.953125 
Q 23.96875 32.421875 30.609375 32.421875 
z
" id="DejaVuSans-57"/>
     </defs>
     <g transform="translate(323.760304 363.611696)scale(0.1 -0.1)">
      <use xlink:href="#DejaVuSans-49"/>
      <use x="63.623047" xlink:href="#DejaVuSans-46"/>
      <use x="95.410156" xlink:href="#DejaVuSans-57"/>
     </g>
    </g>
   </g>
   <g id="text_65">
    <g clip-path="url(#p7c7184d4c1)">
     <!-- 1.10 -->
     <defs>
      <path d="M 31.78125 66.40625 
Q 24.171875 66.40625 20.328125 58.90625 
Q 16.5 51.421875 16.5 36.375 
Q 16.5 21.390625 20.328125 13.890625 
Q 24.171875 6.390625 31.78125 6.390625 
Q 39.453125 6.390625 43.28125 13.890625 
Q 47.125 21.390625 47.125 36.375 
Q 47.125 51.421875 43.28125 58.90625 
Q 39.453125 66.40625 31.78125 66.40625 
z
M 31.78125 74.21875 
Q 44.046875 74.21875 50.515625 64.515625 
Q 56.984375 54.828125 56.984375 36.375 
Q 56.984375 17.96875 50.515625 8.265625 
Q 44.046875 -1.421875 31.78125 -1.421875 
Q 19.53125 -1.421875 13.0625 8.265625 
Q 6.59375 17.96875 6.59375 36.375 
Q 6.59375 54.828125 13.0625 64.515625 
Q 19.53125 74.21875 31.78125 74.21875 
z
" id="DejaVuSans-48"/>
     </defs>
     <g transform="translate(445.326539 175.831398)scale(0.1 -0.1)">
      <use xlink:href="#DejaVuSans-49"/>
      <use x="63.623047" xlink:href="#DejaVuSans-46"/>
      <use x="95.410156" xlink:href="#DejaVuSans-49"/>
      <use x="159.033203" xlink:href="#DejaVuSans-48"/>
     </g>
    </g>
   </g>
   <g id="text_66">
    <g clip-path="url(#p7c7184d4c1)">
     <!-- 1.11 -->
     <g transform="translate(369.660032 363.611696)scale(0.1 -0.1)">
      <use xlink:href="#DejaVuSans-49"/>
      <use x="63.623047" xlink:href="#DejaVuSans-46"/>
      <use x="95.410156" xlink:href="#DejaVuSans-49"/>
      <use x="159.033203" xlink:href="#DejaVuSans-49"/>
     </g>
    </g>
   </g>
   <g id="text_67">
    <g clip-path="url(#p7c7184d4c1)">
     <!-- 1.12 -->
     <g transform="translate(418.74101 363.611696)scale(0.1 -0.1)">
      <use xlink:href="#DejaVuSans-49"/>
      <use x="63.623047" xlink:href="#DejaVuSans-46"/>
      <use x="95.410156" xlink:href="#DejaVuSans-49"/>
      <use x="159.033203" xlink:href="#DejaVuSans-50"/>
     </g>
    </g>
   </g>
   <g id="text_68">
    <g clip-path="url(#p7c7184d4c1)">
     <!-- 1.13 -->
     <defs>
      <path d="M 40.578125 39.3125 
Q 47.65625 37.796875 51.625 33 
Q 55.609375 28.21875 55.609375 21.1875 
Q 55.609375 10.40625 48.1875 4.484375 
Q 40.765625 -1.421875 27.09375 -1.421875 
Q 22.515625 -1.421875 17.65625 -0.515625 
Q 12.796875 0.390625 7.625 2.203125 
L 7.625 11.71875 
Q 11.71875 9.328125 16.59375 8.109375 
Q 21.484375 6.890625 26.8125 6.890625 
Q 36.078125 6.890625 40.9375 10.546875 
Q 45.796875 14.203125 45.796875 21.1875 
Q 45.796875 27.640625 41.28125 31.265625 
Q 36.765625 34.90625 28.71875 34.90625 
L 20.21875 34.90625 
L 20.21875 43.015625 
L 29.109375 43.015625 
Q 36.375 43.015625 40.234375 45.921875 
Q 44.09375 48.828125 44.09375 54.296875 
Q 44.09375 59.90625 40.109375 62.90625 
Q 36.140625 65.921875 28.71875 65.921875 
Q 24.65625 65.921875 20.015625 65.03125 
Q 15.375 64.15625 9.8125 62.3125 
L 9.8125 71.09375 
Q 15.4375 72.65625 20.34375 73.4375 
Q 25.25 74.21875 29.59375 74.21875 
Q 40.828125 74.21875 47.359375 69.109375 
Q 53.90625 64.015625 53.90625 55.328125 
Q 53.90625 49.265625 50.4375 45.09375 
Q 46.96875 40.921875 40.578125 39.3125 
z
" id="DejaVuSans-51"/>
     </defs>
     <g transform="translate(467.821988 363.611696)scale(0.1 -0.1)">
      <use xlink:href="#DejaVuSans-49"/>
      <use x="63.623047" xlink:href="#DejaVuSans-46"/>
      <use x="95.410156" xlink:href="#DejaVuSans-49"/>
      <use x="159.033203" xlink:href="#DejaVuSans-51"/>
     </g>
    </g>
   </g>
   <g id="text_69">
    <g clip-path="url(#p7c7184d4c1)">
     <!-- 1.14 -->
     <g transform="translate(525.083128 224.190197)scale(0.1 -0.1)">
      <use xlink:href="#DejaVuSans-49"/>
      <use x="63.623047" xlink:href="#DejaVuSans-46"/>
      <use x="95.410156" xlink:href="#DejaVuSans-49"/>
      <use x="159.033203" xlink:href="#DejaVuSans-52"/>
     </g>
    </g>
   </g>
   <g id="text_70">
    <g clip-path="url(#p7c7184d4c1)">
     <!-- 1.15 -->
     <g transform="translate(516.902965 363.611696)scale(0.1 -0.1)">
      <use xlink:href="#DejaVuSans-49"/>
      <use x="63.623047" xlink:href="#DejaVuSans-46"/>
      <use x="95.410156" xlink:href="#DejaVuSans-49"/>
      <use x="159.033203" xlink:href="#DejaVuSans-53"/>
     </g>
    </g>
   </g>
   <g id="text_71">
    <g clip-path="url(#p7c7184d4c1)">
     <!-- 1.16 -->
     <g transform="translate(590.524432 271.471676)scale(0.1 -0.1)">
      <use xlink:href="#DejaVuSans-49"/>
      <use x="63.623047" xlink:href="#DejaVuSans-46"/>
      <use x="95.410156" xlink:href="#DejaVuSans-49"/>
      <use x="159.033203" xlink:href="#DejaVuSans-54"/>
     </g>
    </g>
   </g>
   <g id="text_72">
    <g clip-path="url(#p7c7184d4c1)">
     <!-- 1.17 -->
     <g transform="translate(565.983943 363.611696)scale(0.1 -0.1)">
      <use xlink:href="#DejaVuSans-49"/>
      <use x="63.623047" xlink:href="#DejaVuSans-46"/>
      <use x="95.410156" xlink:href="#DejaVuSans-49"/>
      <use x="159.033203" xlink:href="#DejaVuSans-55"/>
     </g>
    </g>
   </g>
   <g id="text_73">
    <g clip-path="url(#p7c7184d4c1)">
     <!-- 1.18 -->
     <g transform="translate(615.064921 363.611696)scale(0.1 -0.1)">
      <use xlink:href="#DejaVuSans-49"/>
      <use x="63.623047" xlink:href="#DejaVuSans-46"/>
      <use x="95.410156" xlink:href="#DejaVuSans-49"/>
      <use x="159.033203" xlink:href="#DejaVuSans-56"/>
     </g>
    </g>
   </g>
   <g id="text_74">
    <g clip-path="url(#p7c7184d4c1)">
     <!-- 1.19 -->
     <g transform="translate(713.226877 317.859915)scale(0.1 -0.1)">
      <use xlink:href="#DejaVuSans-49"/>
      <use x="63.623047" xlink:href="#DejaVuSans-46"/>
      <use x="95.410156" xlink:href="#DejaVuSans-49"/>
      <use x="159.033203" xlink:href="#DejaVuSans-57"/>
     </g>
    </g>
   </g>
   <g id="text_75">
    <g clip-path="url(#p7c7184d4c1)">
     <!-- 1.20 -->
     <g transform="translate(664.145899 363.611696)scale(0.1 -0.1)">
      <use xlink:href="#DejaVuSans-49"/>
      <use x="63.623047" xlink:href="#DejaVuSans-46"/>
      <use x="95.410156" xlink:href="#DejaVuSans-50"/>
      <use x="159.033203" xlink:href="#DejaVuSans-48"/>
     </g>
    </g>
   </g>
   <g id="text_76">
    <g clip-path="url(#p7c7184d4c1)">
     <!-- 1.21 -->
     <g transform="translate(713.226877 363.611696)scale(0.1 -0.1)">
      <use xlink:href="#DejaVuSans-49"/>
      <use x="63.623047" xlink:href="#DejaVuSans-46"/>
      <use x="95.410156" xlink:href="#DejaVuSans-50"/>
      <use x="159.033203" xlink:href="#DejaVuSans-49"/>
     </g>
    </g>
   </g>
   <g id="text_77">
    <g clip-path="url(#p7c7184d4c1)">
     <!-- 1.22 -->
     <g transform="translate(124.255143 363.611696)scale(0.1 -0.1)">
      <use xlink:href="#DejaVuSans-49"/>
      <use x="63.623047" xlink:href="#DejaVuSans-46"/>
      <use x="95.410156" xlink:href="#DejaVuSans-50"/>
      <use x="159.033203" xlink:href="#DejaVuSans-50"/>
     </g>
    </g>
   </g>
   <g id="text_78">
    <g clip-path="url(#p7c7184d4c1)">
     <!-- 1.23 -->
     <g transform="translate(197.87661 363.611696)scale(0.1 -0.1)">
      <use xlink:href="#DejaVuSans-49"/>
      <use x="63.623047" xlink:href="#DejaVuSans-46"/>
      <use x="95.410156" xlink:href="#DejaVuSans-50"/>
      <use x="159.033203" xlink:href="#DejaVuSans-51"/>
     </g>
    </g>
   </g>
   <g id="text_79">
    <g clip-path="url(#p7c7184d4c1)">
     <!-- 1.24 -->
     <g transform="translate(762.307854 363.611696)scale(0.1 -0.1)">
      <use xlink:href="#DejaVuSans-49"/>
      <use x="63.623047" xlink:href="#DejaVuSans-46"/>
      <use x="95.410156" xlink:href="#DejaVuSans-50"/>
      <use x="159.033203" xlink:href="#DejaVuSans-52"/>
     </g>
    </g>
   </g>
  </g>
 </g>
 <defs>
  <clipPath id="p7c7184d4c1">
   <rect height="426.666667" width="810.666667" x="0" y="0"/>
  </clipPath>
 </defs>
</svg>
