<?xml version="1.0" encoding="utf-8" standalone="no"?>
<!DOCTYPE svg PUBLIC "-//W3C//DTD SVG 1.1//EN"
  "http://www.w3.org/Graphics/SVG/1.1/DTD/svg11.dtd">
<!-- Created with matplotlib (https://matplotlib.org/) -->
<svg height="346.666667pt" version="1.1" viewBox="0 0 658.666667 346.666667" width="658.666667pt" xmlns="http://www.w3.org/2000/svg" xmlns:xlink="http://www.w3.org/1999/xlink">
 <defs>
  <style type="text/css">
*{stroke-linecap:butt;stroke-linejoin:round;}
  </style>
 </defs>
 <g id="figure_1">
  <g id="patch_1">
   <path d="M 0 346.666667 
L 658.666667 346.666667 
L 658.666667 0 
L 0 0 
z
" style="fill:#ffffff;"/>
  </g>
  <g id="axes_1">
   <g id="LineCollection_1">
    <path clip-path="url(#pf6a840a02a)" d="M 220.351243 17.145792 
L 220.351243 96.906522 
" style="fill:none;stroke:#000000;"/>
    <path clip-path="url(#pf6a840a02a)" d="M 220.351243 96.906522 
L 30.411027 252.340644 
" style="fill:none;stroke:#000000;"/>
    <path clip-path="url(#pf6a840a02a)" d="M 220.351243 96.906522 
L 80.231412 252.340644 
" style="fill:none;stroke:#000000;"/>
    <path clip-path="url(#pf6a840a02a)" d="M 220.351243 96.906522 
L 130.051796 252.340644 
" style="fill:none;stroke:#000000;"/>
    <path clip-path="url(#pf6a840a02a)" d="M 220.351243 96.906522 
L 179.87218 252.340644 
" style="fill:none;stroke:#000000;"/>
    <path clip-path="url(#pf6a840a02a)" d="M 220.351243 96.906522 
L 229.692565 252.340644 
" style="fill:none;stroke:#000000;"/>
    <path clip-path="url(#pf6a840a02a)" d="M 220.351243 96.906522 
L 329.333333 252.340644 
" style="fill:none;stroke:#000000;"/>
    <path clip-path="url(#pf6a840a02a)" d="M 220.351243 96.906522 
L 503.704679 175.160414 
" style="fill:none;stroke:#000000;"/>
    <path clip-path="url(#pf6a840a02a)" d="M 220.351243 96.906522 
L 279.512949 252.340644 
" style="fill:none;stroke:#000000;"/>
    <path clip-path="url(#pf6a840a02a)" d="M 30.411027 252.340644 
L 30.411027 329.520875 
" style="fill:none;stroke:#000000;"/>
    <path clip-path="url(#pf6a840a02a)" d="M 80.231412 252.340644 
L 80.231412 329.520875 
" style="fill:none;stroke:#000000;"/>
    <path clip-path="url(#pf6a840a02a)" d="M 130.051796 252.340644 
L 130.051796 329.520875 
" style="fill:none;stroke:#000000;"/>
    <path clip-path="url(#pf6a840a02a)" d="M 179.87218 252.340644 
L 179.87218 329.520875 
" style="fill:none;stroke:#000000;"/>
    <path clip-path="url(#pf6a840a02a)" d="M 229.692565 252.340644 
L 229.692565 329.520875 
" style="fill:none;stroke:#000000;"/>
    <path clip-path="url(#pf6a840a02a)" d="M 329.333333 252.340644 
L 329.333333 329.520875 
" style="fill:none;stroke:#000000;"/>
    <path clip-path="url(#pf6a840a02a)" d="M 503.704679 175.160414 
L 379.153718 252.340644 
" style="fill:none;stroke:#000000;"/>
    <path clip-path="url(#pf6a840a02a)" d="M 503.704679 175.160414 
L 428.974102 252.340644 
" style="fill:none;stroke:#000000;"/>
    <path clip-path="url(#pf6a840a02a)" d="M 503.704679 175.160414 
L 478.794486 252.340644 
" style="fill:none;stroke:#000000;"/>
    <path clip-path="url(#pf6a840a02a)" d="M 503.704679 175.160414 
L 528.614871 252.340644 
" style="fill:none;stroke:#000000;"/>
    <path clip-path="url(#pf6a840a02a)" d="M 503.704679 175.160414 
L 578.435255 252.340644 
" style="fill:none;stroke:#000000;"/>
    <path clip-path="url(#pf6a840a02a)" d="M 503.704679 175.160414 
L 628.255639 252.340644 
" style="fill:none;stroke:#000000;"/>
    <path clip-path="url(#pf6a840a02a)" d="M 379.153718 252.340644 
L 379.153718 329.520875 
" style="fill:none;stroke:#000000;"/>
    <path clip-path="url(#pf6a840a02a)" d="M 428.974102 252.340644 
L 428.974102 329.520875 
" style="fill:none;stroke:#000000;"/>
    <path clip-path="url(#pf6a840a02a)" d="M 478.794486 252.340644 
L 478.794486 329.520875 
" style="fill:none;stroke:#000000;"/>
    <path clip-path="url(#pf6a840a02a)" d="M 528.614871 252.340644 
L 528.614871 329.520875 
" style="fill:none;stroke:#000000;"/>
    <path clip-path="url(#pf6a840a02a)" d="M 578.435255 252.340644 
L 578.435255 329.520875 
" style="fill:none;stroke:#000000;"/>
    <path clip-path="url(#pf6a840a02a)" d="M 279.512949 252.340644 
L 279.512949 329.520875 
" style="fill:none;stroke:#000000;"/>
    <path clip-path="url(#pf6a840a02a)" d="M 628.255639 252.340644 
L 628.255639 329.520875 
" style="fill:none;stroke:#000000;"/>
   </g>
   <g id="text_1">
    <g id="patch_2">
     <path clip-path="url(#pf6a840a02a)" d="M 214.079993 54.018032 
L 214.079993 60.034282 
Q 214.079993 62.434282 216.479993 62.434282 
L 224.222493 62.434282 
Q 226.622493 62.434282 226.622493 60.034282 
L 226.622493 54.018032 
Q 226.622493 51.618032 224.222493 51.618032 
L 216.479993 51.618032 
Q 214.079993 51.618032 214.079993 54.018032 
z
" style="fill:#ffffff;stroke:#ffffff;stroke-linejoin:miter;"/>
    </g>
    <g clip-path="url(#pf6a840a02a)">
     <!-- H -->
     <defs>
      <path d="M 9.8125 72.90625 
L 19.671875 72.90625 
L 19.671875 43.015625 
L 55.515625 43.015625 
L 55.515625 72.90625 
L 65.375 72.90625 
L 65.375 0 
L 55.515625 0 
L 55.515625 34.71875 
L 19.671875 34.71875 
L 19.671875 0 
L 9.8125 0 
z
" id="DejaVuSans-72"/>
     </defs>
     <g transform="translate(218.143743 54.018032)rotate(-270)scale(0.08 -0.08)">
      <use xlink:href="#DejaVuSans-72"/>
     </g>
    </g>
   </g>
   <g id="text_2">
    <g id="patch_3">
     <path clip-path="url(#pf6a840a02a)" d="M 127.235179 181.209793 
L 131.470348 177.744019 
Q 133.327709 176.224081 131.807772 174.36672 
L 126.90439 168.374797 
Q 125.384452 166.517436 123.527091 168.037373 
L 119.291921 171.503147 
Q 117.43456 173.023085 118.954498 174.880446 
L 123.85788 180.87237 
Q 125.377818 182.729731 127.235179 181.209793 
z
" style="fill:#ffffff;stroke:#ffffff;stroke-linejoin:miter;"/>
    </g>
    <g clip-path="url(#pf6a840a02a)">
     <!-- A -->
     <defs>
      <path d="M 34.1875 63.1875 
L 20.796875 26.90625 
L 47.609375 26.90625 
z
M 28.609375 72.90625 
L 39.796875 72.90625 
L 67.578125 0 
L 57.328125 0 
L 50.6875 18.703125 
L 17.828125 18.703125 
L 11.1875 0 
L 0.78125 0 
z
" id="DejaVuSans-65"/>
     </defs>
     <g transform="translate(124.661576 178.064855)rotate(-39.294555)scale(0.08 -0.08)">
      <use xlink:href="#DejaVuSans-65"/>
     </g>
    </g>
   </g>
   <g id="text_3">
    <g id="patch_4">
     <path clip-path="url(#pf6a840a02a)" d="M 153.117186 180.854969 
L 156.781404 176.790272 
Q 158.388371 175.007673 156.605772 173.400707 
L 150.855034 168.216566 
Q 149.072435 166.609599 147.465469 168.392198 
L 143.80125 172.456894 
Q 142.194283 174.239493 143.976882 175.84646 
L 149.72762 181.030601 
Q 151.510219 182.637567 153.117186 180.854969 
z
" style="fill:#ffffff;stroke:#ffffff;stroke-linejoin:miter;"/>
    </g>
    <g clip-path="url(#pf6a840a02a)">
     <!-- A -->
     <g transform="translate(150.098837 178.134006)rotate(-47.96616)scale(0.08 -0.08)">
      <use xlink:href="#DejaVuSans-65"/>
     </g>
    </g>
   </g>
   <g id="text_4">
    <g id="patch_5">
     <path clip-path="url(#pf6a840a02a)" d="M 179.46843 179.763128 
L 181.779788 175.784545 
Q 182.985386 173.709326 180.910168 172.503728 
L 174.215425 168.614418 
Q 172.140207 167.408819 170.934608 169.484038 
L 168.623251 173.462622 
Q 167.417652 175.53784 169.492871 176.743439 
L 176.187613 180.632749 
Q 178.262832 181.838347 179.46843 179.763128 
z
" style="fill:#ffffff;stroke:#ffffff;stroke-linejoin:miter;"/>
    </g>
    <g clip-path="url(#pf6a840a02a)">
     <!-- F -->
     <defs>
      <path d="M 9.8125 72.90625 
L 51.703125 72.90625 
L 51.703125 64.59375 
L 19.671875 64.59375 
L 19.671875 43.109375 
L 48.578125 43.109375 
L 48.578125 34.8125 
L 19.671875 34.8125 
L 19.671875 0 
L 9.8125 0 
z
" id="DejaVuSans-70"/>
     </defs>
     <g transform="translate(175.954609 177.721774)rotate(-59.845556)scale(0.08 -0.08)">
      <use xlink:href="#DejaVuSans-70"/>
     </g>
    </g>
   </g>
   <g id="text_5">
    <g id="patch_6">
     <path clip-path="url(#pf6a840a02a)" d="M 205.404317 179.184647 
L 206.95676 173.223479 
Q 207.561607 170.900946 205.239074 170.296098 
L 197.746486 168.344834 
Q 195.423953 167.739987 194.819106 170.06252 
L 193.266663 176.023688 
Q 192.661816 178.346221 194.984349 178.951068 
L 202.476937 180.902332 
Q 204.79947 181.50718 205.404317 179.184647 
z
" style="fill:#ffffff;stroke:#ffffff;stroke-linejoin:miter;"/>
    </g>
    <g clip-path="url(#pf6a840a02a)">
     <!-- D -->
     <defs>
      <path d="M 19.671875 64.796875 
L 19.671875 8.109375 
L 31.59375 8.109375 
Q 46.6875 8.109375 53.6875 14.9375 
Q 60.6875 21.78125 60.6875 36.53125 
Q 60.6875 51.171875 53.6875 57.984375 
Q 46.6875 64.796875 31.59375 64.796875 
z
M 9.8125 72.90625 
L 30.078125 72.90625 
Q 51.265625 72.90625 61.171875 64.09375 
Q 71.09375 55.28125 71.09375 36.53125 
Q 71.09375 17.671875 61.125 8.828125 
Q 51.171875 0 30.078125 0 
L 9.8125 0 
z
" id="DejaVuSans-68"/>
     </defs>
     <g transform="translate(201.471737 178.160501)rotate(-75.402932)scale(0.08 -0.08)">
      <use xlink:href="#DejaVuSans-68"/>
     </g>
    </g>
   </g>
   <g id="text_6">
    <g id="patch_7">
     <path clip-path="url(#pf6a840a02a)" d="M 218.61726 172.592265 
L 218.906637 177.407327 
Q 219.050613 179.803004 221.44629 179.659028 
L 229.174846 179.194555 
Q 231.570523 179.050579 231.426547 176.654902 
L 231.13717 171.83984 
Q 230.993194 169.444162 228.597517 169.588138 
L 220.868961 170.052611 
Q 218.473284 170.196587 218.61726 172.592265 
z
" style="fill:#ffffff;stroke:#ffffff;stroke-linejoin:miter;"/>
    </g>
    <g clip-path="url(#pf6a840a02a)">
     <!-- P -->
     <defs>
      <path d="M 19.671875 64.796875 
L 19.671875 37.40625 
L 32.078125 37.40625 
Q 38.96875 37.40625 42.71875 40.96875 
Q 46.484375 44.53125 46.484375 51.125 
Q 46.484375 57.671875 42.71875 61.234375 
Q 38.96875 64.796875 32.078125 64.796875 
z
M 9.8125 72.90625 
L 32.078125 72.90625 
Q 44.34375 72.90625 50.609375 67.359375 
Q 56.890625 61.8125 56.890625 51.125 
Q 56.890625 40.328125 50.609375 34.8125 
Q 44.34375 29.296875 32.078125 29.296875 
L 19.671875 29.296875 
L 19.671875 0 
L 9.8125 0 
z
" id="DejaVuSans-80"/>
     </defs>
     <g transform="translate(222.673691 172.34848)rotate(-273.439241)scale(0.08 -0.08)">
      <use xlink:href="#DejaVuSans-80"/>
     </g>
    </g>
   </g>
   <g id="text_7">
    <g id="patch_8">
     <path clip-path="url(#pf6a840a02a)" d="M 268.386676 176.340129 
L 271.028218 180.107589 
Q 272.406039 182.072687 274.371137 180.694865 
L 280.710623 176.249957 
Q 282.675721 174.872135 281.2979 172.907038 
L 278.656358 169.139577 
Q 277.278537 167.17448 275.313439 168.552301 
L 268.973952 172.99721 
Q 267.008855 174.375031 268.386676 176.340129 
z
" style="fill:#ffffff;stroke:#ffffff;stroke-linejoin:miter;"/>
    </g>
    <g clip-path="url(#pf6a840a02a)">
     <!-- F -->
     <g transform="translate(271.714037 174.007161)rotate(-305.036083)scale(0.08 -0.08)">
      <use xlink:href="#DejaVuSans-70"/>
     </g>
    </g>
   </g>
   <g id="text_8">
    <g id="patch_9">
     <path clip-path="url(#pf6a840a02a)" d="M 357.721004 141.350024 
L 362.996036 142.806833 
Q 365.309435 143.445726 365.948328 141.132326 
L 368.009423 133.669204 
Q 368.648316 131.355805 366.334917 130.716912 
L 361.059885 129.260103 
Q 358.746486 128.62121 358.107593 130.93461 
L 356.046498 138.397732 
Q 355.407605 140.711131 357.721004 141.350024 
z
" style="fill:#ffffff;stroke:#ffffff;stroke-linejoin:miter;"/>
    </g>
    <g clip-path="url(#pf6a840a02a)">
     <!-- A -->
     <g transform="translate(358.802796 137.432909)rotate(-344.561412)scale(0.08 -0.08)">
      <use xlink:href="#DejaVuSans-65"/>
     </g>
    </g>
   </g>
   <g id="text_9">
    <g id="patch_10">
     <path clip-path="url(#pf6a840a02a)" d="M 243.029659 174.118417 
L 245.112434 179.590443 
Q 245.966177 181.83346 248.209193 180.979717 
L 255.445259 178.225509 
Q 257.688275 177.371766 256.834533 175.12875 
L 254.751757 169.656723 
Q 253.898015 167.413707 251.654998 168.267449 
L 244.418933 171.021658 
Q 242.175916 171.8754 243.029659 174.118417 
z
" style="fill:#ffffff;stroke:#ffffff;stroke-linejoin:miter;"/>
    </g>
    <g clip-path="url(#pf6a840a02a)">
     <!-- U -->
     <defs>
      <path d="M 8.6875 72.90625 
L 18.609375 72.90625 
L 18.609375 28.609375 
Q 18.609375 16.890625 22.84375 11.734375 
Q 27.09375 6.59375 36.625 6.59375 
Q 46.09375 6.59375 50.34375 11.734375 
Q 54.59375 16.890625 54.59375 28.609375 
L 54.59375 72.90625 
L 64.5 72.90625 
L 64.5 27.390625 
Q 64.5 13.140625 57.4375 5.859375 
Q 50.390625 -1.421875 36.625 -1.421875 
Q 22.796875 -1.421875 15.734375 5.859375 
Q 8.6875 13.140625 8.6875 27.390625 
z
" id="DejaVuSans-85"/>
     </defs>
     <g transform="translate(246.8276 172.672835)rotate(-290.837945)scale(0.08 -0.08)">
      <use xlink:href="#DejaVuSans-85"/>
     </g>
    </g>
   </g>
   <g id="text_10">
    <g id="patch_11">
     <path clip-path="url(#pf6a840a02a)" d="M 24.139777 273.28826 
L 24.139777 308.57326 
Q 24.139777 310.97326 26.539777 310.97326 
L 34.282277 310.97326 
Q 36.682277 310.97326 36.682277 308.57326 
L 36.682277 273.28826 
Q 36.682277 270.88826 34.282277 270.88826 
L 26.539777 270.88826 
Q 24.139777 270.88826 24.139777 273.28826 
z
" style="fill:#ffffff;stroke:#ffffff;stroke-linejoin:miter;"/>
    </g>
    <g clip-path="url(#pf6a840a02a)">
     <!-- Terminal -->
     <defs>
      <path d="M -0.296875 72.90625 
L 61.375 72.90625 
L 61.375 64.59375 
L 35.5 64.59375 
L 35.5 0 
L 25.59375 0 
L 25.59375 64.59375 
L -0.296875 64.59375 
z
" id="DejaVuSans-84"/>
      <path d="M 56.203125 29.59375 
L 56.203125 25.203125 
L 14.890625 25.203125 
Q 15.484375 15.921875 20.484375 11.0625 
Q 25.484375 6.203125 34.421875 6.203125 
Q 39.59375 6.203125 44.453125 7.46875 
Q 49.3125 8.734375 54.109375 11.28125 
L 54.109375 2.78125 
Q 49.265625 0.734375 44.1875 -0.34375 
Q 39.109375 -1.421875 33.890625 -1.421875 
Q 20.796875 -1.421875 13.15625 6.1875 
Q 5.515625 13.8125 5.515625 26.8125 
Q 5.515625 40.234375 12.765625 48.109375 
Q 20.015625 56 32.328125 56 
Q 43.359375 56 49.78125 48.890625 
Q 56.203125 41.796875 56.203125 29.59375 
z
M 47.21875 32.234375 
Q 47.125 39.59375 43.09375 43.984375 
Q 39.0625 48.390625 32.421875 48.390625 
Q 24.90625 48.390625 20.390625 44.140625 
Q 15.875 39.890625 15.1875 32.171875 
z
" id="DejaVuSans-101"/>
      <path d="M 41.109375 46.296875 
Q 39.59375 47.171875 37.8125 47.578125 
Q 36.03125 48 33.890625 48 
Q 26.265625 48 22.1875 43.046875 
Q 18.109375 38.09375 18.109375 28.8125 
L 18.109375 0 
L 9.078125 0 
L 9.078125 54.6875 
L 18.109375 54.6875 
L 18.109375 46.1875 
Q 20.953125 51.171875 25.484375 53.578125 
Q 30.03125 56 36.53125 56 
Q 37.453125 56 38.578125 55.875 
Q 39.703125 55.765625 41.0625 55.515625 
z
" id="DejaVuSans-114"/>
      <path d="M 52 44.1875 
Q 55.375 50.25 60.0625 53.125 
Q 64.75 56 71.09375 56 
Q 79.640625 56 84.28125 50.015625 
Q 88.921875 44.046875 88.921875 33.015625 
L 88.921875 0 
L 79.890625 0 
L 79.890625 32.71875 
Q 79.890625 40.578125 77.09375 44.375 
Q 74.3125 48.1875 68.609375 48.1875 
Q 61.625 48.1875 57.5625 43.546875 
Q 53.515625 38.921875 53.515625 30.90625 
L 53.515625 0 
L 44.484375 0 
L 44.484375 32.71875 
Q 44.484375 40.625 41.703125 44.40625 
Q 38.921875 48.1875 33.109375 48.1875 
Q 26.21875 48.1875 22.15625 43.53125 
Q 18.109375 38.875 18.109375 30.90625 
L 18.109375 0 
L 9.078125 0 
L 9.078125 54.6875 
L 18.109375 54.6875 
L 18.109375 46.1875 
Q 21.1875 51.21875 25.484375 53.609375 
Q 29.78125 56 35.6875 56 
Q 41.65625 56 45.828125 52.96875 
Q 50 49.953125 52 44.1875 
z
" id="DejaVuSans-109"/>
      <path d="M 9.421875 54.6875 
L 18.40625 54.6875 
L 18.40625 0 
L 9.421875 0 
z
M 9.421875 75.984375 
L 18.40625 75.984375 
L 18.40625 64.59375 
L 9.421875 64.59375 
z
" id="DejaVuSans-105"/>
      <path d="M 54.890625 33.015625 
L 54.890625 0 
L 45.90625 0 
L 45.90625 32.71875 
Q 45.90625 40.484375 42.875 44.328125 
Q 39.84375 48.1875 33.796875 48.1875 
Q 26.515625 48.1875 22.3125 43.546875 
Q 18.109375 38.921875 18.109375 30.90625 
L 18.109375 0 
L 9.078125 0 
L 9.078125 54.6875 
L 18.109375 54.6875 
L 18.109375 46.1875 
Q 21.34375 51.125 25.703125 53.5625 
Q 30.078125 56 35.796875 56 
Q 45.21875 56 50.046875 50.171875 
Q 54.890625 44.34375 54.890625 33.015625 
z
" id="DejaVuSans-110"/>
      <path d="M 34.28125 27.484375 
Q 23.390625 27.484375 19.1875 25 
Q 14.984375 22.515625 14.984375 16.5 
Q 14.984375 11.71875 18.140625 8.90625 
Q 21.296875 6.109375 26.703125 6.109375 
Q 34.1875 6.109375 38.703125 11.40625 
Q 43.21875 16.703125 43.21875 25.484375 
L 43.21875 27.484375 
z
M 52.203125 31.203125 
L 52.203125 0 
L 43.21875 0 
L 43.21875 8.296875 
Q 40.140625 3.328125 35.546875 0.953125 
Q 30.953125 -1.421875 24.3125 -1.421875 
Q 15.921875 -1.421875 10.953125 3.296875 
Q 6 8.015625 6 15.921875 
Q 6 25.140625 12.171875 29.828125 
Q 18.359375 34.515625 30.609375 34.515625 
L 43.21875 34.515625 
L 43.21875 35.40625 
Q 43.21875 41.609375 39.140625 45 
Q 35.0625 48.390625 27.6875 48.390625 
Q 23 48.390625 18.546875 47.265625 
Q 14.109375 46.140625 10.015625 43.890625 
L 10.015625 52.203125 
Q 14.9375 54.109375 19.578125 55.046875 
Q 24.21875 56 28.609375 56 
Q 40.484375 56 46.34375 49.84375 
Q 52.203125 43.703125 52.203125 31.203125 
z
" id="DejaVuSans-97"/>
      <path d="M 9.421875 75.984375 
L 18.40625 75.984375 
L 18.40625 0 
L 9.421875 0 
z
" id="DejaVuSans-108"/>
     </defs>
     <g transform="translate(28.203527 273.28826)rotate(-270)scale(0.08 -0.08)">
      <use xlink:href="#DejaVuSans-84"/>
      <use x="60.818359" xlink:href="#DejaVuSans-101"/>
      <use x="122.341797" xlink:href="#DejaVuSans-114"/>
      <use x="163.439453" xlink:href="#DejaVuSans-109"/>
      <use x="260.851562" xlink:href="#DejaVuSans-105"/>
      <use x="288.634766" xlink:href="#DejaVuSans-110"/>
      <use x="352.013672" xlink:href="#DejaVuSans-97"/>
      <use x="413.292969" xlink:href="#DejaVuSans-108"/>
     </g>
    </g>
   </g>
   <g id="text_11">
    <g id="patch_12">
     <path clip-path="url(#pf6a840a02a)" d="M 73.960162 273.28826 
L 73.960162 308.57326 
Q 73.960162 310.97326 76.360162 310.97326 
L 84.102662 310.97326 
Q 86.502662 310.97326 86.502662 308.57326 
L 86.502662 273.28826 
Q 86.502662 270.88826 84.102662 270.88826 
L 76.360162 270.88826 
Q 73.960162 270.88826 73.960162 273.28826 
z
" style="fill:#ffffff;stroke:#ffffff;stroke-linejoin:miter;"/>
    </g>
    <g clip-path="url(#pf6a840a02a)">
     <!-- Terminal -->
     <g transform="translate(78.023912 273.28826)rotate(-270)scale(0.08 -0.08)">
      <use xlink:href="#DejaVuSans-84"/>
      <use x="60.818359" xlink:href="#DejaVuSans-101"/>
      <use x="122.341797" xlink:href="#DejaVuSans-114"/>
      <use x="163.439453" xlink:href="#DejaVuSans-109"/>
      <use x="260.851562" xlink:href="#DejaVuSans-105"/>
      <use x="288.634766" xlink:href="#DejaVuSans-110"/>
      <use x="352.013672" xlink:href="#DejaVuSans-97"/>
      <use x="413.292969" xlink:href="#DejaVuSans-108"/>
     </g>
    </g>
   </g>
   <g id="text_12">
    <g id="patch_13">
     <path clip-path="url(#pf6a840a02a)" d="M 123.780546 273.28826 
L 123.780546 308.57326 
Q 123.780546 310.97326 126.180546 310.97326 
L 133.923046 310.97326 
Q 136.323046 310.97326 136.323046 308.57326 
L 136.323046 273.28826 
Q 136.323046 270.88826 133.923046 270.88826 
L 126.180546 270.88826 
Q 123.780546 270.88826 123.780546 273.28826 
z
" style="fill:#ffffff;stroke:#ffffff;stroke-linejoin:miter;"/>
    </g>
    <g clip-path="url(#pf6a840a02a)">
     <!-- Terminal -->
     <g transform="translate(127.844296 273.28826)rotate(-270)scale(0.08 -0.08)">
      <use xlink:href="#DejaVuSans-84"/>
      <use x="60.818359" xlink:href="#DejaVuSans-101"/>
      <use x="122.341797" xlink:href="#DejaVuSans-114"/>
      <use x="163.439453" xlink:href="#DejaVuSans-109"/>
      <use x="260.851562" xlink:href="#DejaVuSans-105"/>
      <use x="288.634766" xlink:href="#DejaVuSans-110"/>
      <use x="352.013672" xlink:href="#DejaVuSans-97"/>
      <use x="413.292969" xlink:href="#DejaVuSans-108"/>
     </g>
    </g>
   </g>
   <g id="text_13">
    <g id="patch_14">
     <path clip-path="url(#pf6a840a02a)" d="M 173.60093 273.28826 
L 173.60093 308.57326 
Q 173.60093 310.97326 176.00093 310.97326 
L 183.74343 310.97326 
Q 186.14343 310.97326 186.14343 308.57326 
L 186.14343 273.28826 
Q 186.14343 270.88826 183.74343 270.88826 
L 176.00093 270.88826 
Q 173.60093 270.88826 173.60093 273.28826 
z
" style="fill:#ffffff;stroke:#ffffff;stroke-linejoin:miter;"/>
    </g>
    <g clip-path="url(#pf6a840a02a)">
     <!-- Terminal -->
     <g transform="translate(177.66468 273.28826)rotate(-270)scale(0.08 -0.08)">
      <use xlink:href="#DejaVuSans-84"/>
      <use x="60.818359" xlink:href="#DejaVuSans-101"/>
      <use x="122.341797" xlink:href="#DejaVuSans-114"/>
      <use x="163.439453" xlink:href="#DejaVuSans-109"/>
      <use x="260.851562" xlink:href="#DejaVuSans-105"/>
      <use x="288.634766" xlink:href="#DejaVuSans-110"/>
      <use x="352.013672" xlink:href="#DejaVuSans-97"/>
      <use x="413.292969" xlink:href="#DejaVuSans-108"/>
     </g>
    </g>
   </g>
   <g id="text_14">
    <g id="patch_15">
     <path clip-path="url(#pf6a840a02a)" d="M 223.421315 273.28826 
L 223.421315 308.57326 
Q 223.421315 310.97326 225.821315 310.97326 
L 233.563815 310.97326 
Q 235.963815 310.97326 235.963815 308.57326 
L 235.963815 273.28826 
Q 235.963815 270.88826 233.563815 270.88826 
L 225.821315 270.88826 
Q 223.421315 270.88826 223.421315 273.28826 
z
" style="fill:#ffffff;stroke:#ffffff;stroke-linejoin:miter;"/>
    </g>
    <g clip-path="url(#pf6a840a02a)">
     <!-- Terminal -->
     <g transform="translate(227.485065 273.28826)rotate(-270)scale(0.08 -0.08)">
      <use xlink:href="#DejaVuSans-84"/>
      <use x="60.818359" xlink:href="#DejaVuSans-101"/>
      <use x="122.341797" xlink:href="#DejaVuSans-114"/>
      <use x="163.439453" xlink:href="#DejaVuSans-109"/>
      <use x="260.851562" xlink:href="#DejaVuSans-105"/>
      <use x="288.634766" xlink:href="#DejaVuSans-110"/>
      <use x="352.013672" xlink:href="#DejaVuSans-97"/>
      <use x="413.292969" xlink:href="#DejaVuSans-108"/>
     </g>
    </g>
   </g>
   <g id="text_15">
    <g id="patch_16">
     <path clip-path="url(#pf6a840a02a)" d="M 323.062083 273.28826 
L 323.062083 308.57326 
Q 323.062083 310.97326 325.462083 310.97326 
L 333.204583 310.97326 
Q 335.604583 310.97326 335.604583 308.57326 
L 335.604583 273.28826 
Q 335.604583 270.88826 333.204583 270.88826 
L 325.462083 270.88826 
Q 323.062083 270.88826 323.062083 273.28826 
z
" style="fill:#ffffff;stroke:#ffffff;stroke-linejoin:miter;"/>
    </g>
    <g clip-path="url(#pf6a840a02a)">
     <!-- Terminal -->
     <g transform="translate(327.125833 273.28826)rotate(-270)scale(0.08 -0.08)">
      <use xlink:href="#DejaVuSans-84"/>
      <use x="60.818359" xlink:href="#DejaVuSans-101"/>
      <use x="122.341797" xlink:href="#DejaVuSans-114"/>
      <use x="163.439453" xlink:href="#DejaVuSans-109"/>
      <use x="260.851562" xlink:href="#DejaVuSans-105"/>
      <use x="288.634766" xlink:href="#DejaVuSans-110"/>
      <use x="352.013672" xlink:href="#DejaVuSans-97"/>
      <use x="413.292969" xlink:href="#DejaVuSans-108"/>
     </g>
    </g>
   </g>
   <g id="text_16">
    <g id="patch_17">
     <path clip-path="url(#pf6a840a02a)" d="M 442.584041 220.412599 
L 446.880938 217.74995 
Q 448.921008 216.485784 447.656842 214.445714 
L 443.578591 207.864364 
Q 442.314425 205.824294 440.274355 207.08846 
L 435.977458 209.751109 
Q 433.937388 211.015275 435.201554 213.055344 
L 439.279805 219.636695 
Q 440.543971 221.676765 442.584041 220.412599 
z
" style="fill:#ffffff;stroke:#ffffff;stroke-linejoin:miter;"/>
    </g>
    <g clip-path="url(#pf6a840a02a)">
     <!-- E -->
     <defs>
      <path d="M 9.8125 72.90625 
L 55.90625 72.90625 
L 55.90625 64.59375 
L 19.671875 64.59375 
L 19.671875 43.015625 
L 54.390625 43.015625 
L 54.390625 34.71875 
L 19.671875 34.71875 
L 19.671875 8.296875 
L 56.78125 8.296875 
L 56.78125 0 
L 9.8125 0 
z
" id="DejaVuSans-69"/>
     </defs>
     <g transform="translate(440.443519 216.958293)rotate(-31.785166)scale(0.08 -0.08)">
      <use xlink:href="#DejaVuSans-69"/>
     </g>
    </g>
   </g>
   <g id="text_17">
    <g id="patch_18">
     <path clip-path="url(#pf6a840a02a)" d="M 468.911384 220.109645 
L 472.778128 216.11615 
Q 474.447601 214.391952 472.723403 212.722479 
L 467.161068 207.336689 
Q 465.436869 205.667216 463.767396 207.391414 
L 459.900653 211.384908 
Q 458.23118 213.109106 459.955378 214.77858 
L 465.517713 220.16437 
Q 467.241911 221.833843 468.911384 220.109645 
z
" style="fill:#ffffff;stroke:#ffffff;stroke-linejoin:miter;"/>
    </g>
    <g clip-path="url(#pf6a840a02a)">
     <!-- R -->
     <defs>
      <path d="M 44.390625 34.1875 
Q 47.5625 33.109375 50.5625 29.59375 
Q 53.5625 26.078125 56.59375 19.921875 
L 66.609375 0 
L 56 0 
L 46.6875 18.703125 
Q 43.0625 26.03125 39.671875 28.421875 
Q 36.28125 30.8125 30.421875 30.8125 
L 19.671875 30.8125 
L 19.671875 0 
L 9.8125 0 
L 9.8125 72.90625 
L 32.078125 72.90625 
Q 44.578125 72.90625 50.734375 67.671875 
Q 56.890625 62.453125 56.890625 51.90625 
Q 56.890625 45.015625 53.6875 40.46875 
Q 50.484375 35.9375 44.390625 34.1875 
z
M 19.671875 64.796875 
L 19.671875 38.921875 
L 32.078125 38.921875 
Q 39.203125 38.921875 42.84375 42.21875 
Q 46.484375 45.515625 46.484375 51.90625 
Q 46.484375 58.296875 42.84375 61.546875 
Q 39.203125 64.796875 32.078125 64.796875 
z
" id="DejaVuSans-82"/>
     </defs>
     <g transform="translate(465.991922 217.282844)rotate(-45.923849)scale(0.08 -0.08)">
      <use xlink:href="#DejaVuSans-82"/>
     </g>
    </g>
   </g>
   <g id="text_18">
    <g id="patch_19">
     <path clip-path="url(#pf6a840a02a)" d="M 496.441357 218.082077 
L 497.99401 213.271433 
Q 498.731174 210.987448 496.447189 210.250283 
L 489.078957 207.872161 
Q 486.794972 207.134996 486.057807 209.418982 
L 484.505155 214.229626 
Q 483.767991 216.513611 486.051976 217.250775 
L 493.420208 219.628898 
Q 495.704193 220.366062 496.441357 218.082077 
z
" style="fill:#ffffff;stroke:#ffffff;stroke-linejoin:miter;"/>
    </g>
    <g clip-path="url(#pf6a840a02a)">
     <!-- E -->
     <g transform="translate(492.574047 216.833889)rotate(-72.112332)scale(0.08 -0.08)">
      <use xlink:href="#DejaVuSans-69"/>
     </g>
    </g>
   </g>
   <g id="text_19">
    <g id="patch_20">
     <path clip-path="url(#pf6a840a02a)" d="M 509.33376 213.018648 
L 511.049587 218.334862 
Q 511.786751 220.618847 514.070736 219.881683 
L 521.438968 217.50356 
Q 523.722953 216.766396 522.985789 214.48241 
L 521.269962 209.166197 
Q 520.532798 206.882211 518.248813 207.619376 
L 510.880581 209.997499 
Q 508.596596 210.734663 509.33376 213.018648 
z
" style="fill:#ffffff;stroke:#ffffff;stroke-linejoin:miter;"/>
    </g>
    <g clip-path="url(#pf6a840a02a)">
     <!-- C -->
     <defs>
      <path d="M 64.40625 67.28125 
L 64.40625 56.890625 
Q 59.421875 61.53125 53.78125 63.8125 
Q 48.140625 66.109375 41.796875 66.109375 
Q 29.296875 66.109375 22.65625 58.46875 
Q 16.015625 50.828125 16.015625 36.375 
Q 16.015625 21.96875 22.65625 14.328125 
Q 29.296875 6.6875 41.796875 6.6875 
Q 48.140625 6.6875 53.78125 8.984375 
Q 59.421875 11.28125 64.40625 15.921875 
L 64.40625 5.609375 
Q 59.234375 2.09375 53.4375 0.328125 
Q 47.65625 -1.421875 41.21875 -1.421875 
Q 24.65625 -1.421875 15.125 8.703125 
Q 5.609375 18.84375 5.609375 36.375 
Q 5.609375 53.953125 15.125 64.078125 
Q 24.65625 74.21875 41.21875 74.21875 
Q 47.75 74.21875 53.53125 72.484375 
Q 59.328125 70.75 64.40625 67.28125 
z
" id="DejaVuSans-67"/>
     </defs>
     <g transform="translate(513.201071 211.77046)rotate(-287.887668)scale(0.08 -0.08)">
      <use xlink:href="#DejaVuSans-67"/>
     </g>
    </g>
   </g>
   <g id="text_20">
    <g id="patch_21">
     <path clip-path="url(#pf6a840a02a)" d="M 534.806437 216.297101 
L 538.322765 219.928694 
Q 539.992238 221.652892 541.716436 219.983419 
L 547.278771 214.597629 
Q 549.00297 212.928155 547.333496 211.203957 
L 543.817169 207.572365 
Q 542.147695 205.848167 540.423497 207.51764 
L 534.861162 212.90343 
Q 533.136964 214.572903 534.806437 216.297101 
z
" style="fill:#ffffff;stroke:#ffffff;stroke-linejoin:miter;"/>
    </g>
    <g clip-path="url(#pf6a840a02a)">
     <!-- E -->
     <g transform="translate(537.7259 213.470301)rotate(-314.076151)scale(0.08 -0.08)">
      <use xlink:href="#DejaVuSans-69"/>
     </g>
    </g>
   </g>
   <g id="text_21">
    <g id="patch_22">
     <path clip-path="url(#pf6a840a02a)" d="M 560.188407 217.539255 
L 565.165328 220.623293 
Q 567.205398 221.887459 568.469563 219.847389 
L 572.547815 213.266039 
Q 573.81198 211.225969 571.771911 209.961803 
L 566.79499 206.877765 
Q 564.75492 205.6136 563.490755 207.65367 
L 559.412503 214.23502 
Q 558.148337 216.27509 560.188407 217.539255 
z
" style="fill:#ffffff;stroke:#ffffff;stroke-linejoin:miter;"/>
    </g>
    <g clip-path="url(#pf6a840a02a)">
     <!-- U -->
     <g transform="translate(562.32893 214.08495)rotate(-328.214834)scale(0.08 -0.08)">
      <use xlink:href="#DejaVuSans-85"/>
     </g>
    </g>
   </g>
   <g id="text_22">
    <g id="patch_23">
     <path clip-path="url(#pf6a840a02a)" d="M 372.882468 273.28826 
L 372.882468 308.57326 
Q 372.882468 310.97326 375.282468 310.97326 
L 383.024968 310.97326 
Q 385.424968 310.97326 385.424968 308.57326 
L 385.424968 273.28826 
Q 385.424968 270.88826 383.024968 270.88826 
L 375.282468 270.88826 
Q 372.882468 270.88826 372.882468 273.28826 
z
" style="fill:#ffffff;stroke:#ffffff;stroke-linejoin:miter;"/>
    </g>
    <g clip-path="url(#pf6a840a02a)">
     <!-- Terminal -->
     <g transform="translate(376.946218 273.28826)rotate(-270)scale(0.08 -0.08)">
      <use xlink:href="#DejaVuSans-84"/>
      <use x="60.818359" xlink:href="#DejaVuSans-101"/>
      <use x="122.341797" xlink:href="#DejaVuSans-114"/>
      <use x="163.439453" xlink:href="#DejaVuSans-109"/>
      <use x="260.851562" xlink:href="#DejaVuSans-105"/>
      <use x="288.634766" xlink:href="#DejaVuSans-110"/>
      <use x="352.013672" xlink:href="#DejaVuSans-97"/>
      <use x="413.292969" xlink:href="#DejaVuSans-108"/>
     </g>
    </g>
   </g>
   <g id="text_23">
    <g id="patch_24">
     <path clip-path="url(#pf6a840a02a)" d="M 422.702852 273.28826 
L 422.702852 308.57326 
Q 422.702852 310.97326 425.102852 310.97326 
L 432.845352 310.97326 
Q 435.245352 310.97326 435.245352 308.57326 
L 435.245352 273.28826 
Q 435.245352 270.88826 432.845352 270.88826 
L 425.102852 270.88826 
Q 422.702852 270.88826 422.702852 273.28826 
z
" style="fill:#ffffff;stroke:#ffffff;stroke-linejoin:miter;"/>
    </g>
    <g clip-path="url(#pf6a840a02a)">
     <!-- Terminal -->
     <g transform="translate(426.766602 273.28826)rotate(-270)scale(0.08 -0.08)">
      <use xlink:href="#DejaVuSans-84"/>
      <use x="60.818359" xlink:href="#DejaVuSans-101"/>
      <use x="122.341797" xlink:href="#DejaVuSans-114"/>
      <use x="163.439453" xlink:href="#DejaVuSans-109"/>
      <use x="260.851562" xlink:href="#DejaVuSans-105"/>
      <use x="288.634766" xlink:href="#DejaVuSans-110"/>
      <use x="352.013672" xlink:href="#DejaVuSans-97"/>
      <use x="413.292969" xlink:href="#DejaVuSans-108"/>
     </g>
    </g>
   </g>
   <g id="text_24">
    <g id="patch_25">
     <path clip-path="url(#pf6a840a02a)" d="M 472.523236 273.28826 
L 472.523236 308.57326 
Q 472.523236 310.97326 474.923236 310.97326 
L 482.665736 310.97326 
Q 485.065736 310.97326 485.065736 308.57326 
L 485.065736 273.28826 
Q 485.065736 270.88826 482.665736 270.88826 
L 474.923236 270.88826 
Q 472.523236 270.88826 472.523236 273.28826 
z
" style="fill:#ffffff;stroke:#ffffff;stroke-linejoin:miter;"/>
    </g>
    <g clip-path="url(#pf6a840a02a)">
     <!-- Terminal -->
     <g transform="translate(476.586986 273.28826)rotate(-270)scale(0.08 -0.08)">
      <use xlink:href="#DejaVuSans-84"/>
      <use x="60.818359" xlink:href="#DejaVuSans-101"/>
      <use x="122.341797" xlink:href="#DejaVuSans-114"/>
      <use x="163.439453" xlink:href="#DejaVuSans-109"/>
      <use x="260.851562" xlink:href="#DejaVuSans-105"/>
      <use x="288.634766" xlink:href="#DejaVuSans-110"/>
      <use x="352.013672" xlink:href="#DejaVuSans-97"/>
      <use x="413.292969" xlink:href="#DejaVuSans-108"/>
     </g>
    </g>
   </g>
   <g id="text_25">
    <g id="patch_26">
     <path clip-path="url(#pf6a840a02a)" d="M 522.343621 273.28826 
L 522.343621 308.57326 
Q 522.343621 310.97326 524.743621 310.97326 
L 532.486121 310.97326 
Q 534.886121 310.97326 534.886121 308.57326 
L 534.886121 273.28826 
Q 534.886121 270.88826 532.486121 270.88826 
L 524.743621 270.88826 
Q 522.343621 270.88826 522.343621 273.28826 
z
" style="fill:#ffffff;stroke:#ffffff;stroke-linejoin:miter;"/>
    </g>
    <g clip-path="url(#pf6a840a02a)">
     <!-- Terminal -->
     <g transform="translate(526.407371 273.28826)rotate(-270)scale(0.08 -0.08)">
      <use xlink:href="#DejaVuSans-84"/>
      <use x="60.818359" xlink:href="#DejaVuSans-101"/>
      <use x="122.341797" xlink:href="#DejaVuSans-114"/>
      <use x="163.439453" xlink:href="#DejaVuSans-109"/>
      <use x="260.851562" xlink:href="#DejaVuSans-105"/>
      <use x="288.634766" xlink:href="#DejaVuSans-110"/>
      <use x="352.013672" xlink:href="#DejaVuSans-97"/>
      <use x="413.292969" xlink:href="#DejaVuSans-108"/>
     </g>
    </g>
   </g>
   <g id="text_26">
    <g id="patch_27">
     <path clip-path="url(#pf6a840a02a)" d="M 572.164005 273.28826 
L 572.164005 308.57326 
Q 572.164005 310.97326 574.564005 310.97326 
L 582.306505 310.97326 
Q 584.706505 310.97326 584.706505 308.57326 
L 584.706505 273.28826 
Q 584.706505 270.88826 582.306505 270.88826 
L 574.564005 270.88826 
Q 572.164005 270.88826 572.164005 273.28826 
z
" style="fill:#ffffff;stroke:#ffffff;stroke-linejoin:miter;"/>
    </g>
    <g clip-path="url(#pf6a840a02a)">
     <!-- Terminal -->
     <g transform="translate(576.227755 273.28826)rotate(-270)scale(0.08 -0.08)">
      <use xlink:href="#DejaVuSans-84"/>
      <use x="60.818359" xlink:href="#DejaVuSans-101"/>
      <use x="122.341797" xlink:href="#DejaVuSans-114"/>
      <use x="163.439453" xlink:href="#DejaVuSans-109"/>
      <use x="260.851562" xlink:href="#DejaVuSans-105"/>
      <use x="288.634766" xlink:href="#DejaVuSans-110"/>
      <use x="352.013672" xlink:href="#DejaVuSans-97"/>
      <use x="413.292969" xlink:href="#DejaVuSans-108"/>
     </g>
    </g>
   </g>
   <g id="text_27">
    <g id="patch_28">
     <path clip-path="url(#pf6a840a02a)" d="M 273.241699 273.28826 
L 273.241699 308.57326 
Q 273.241699 310.97326 275.641699 310.97326 
L 283.384199 310.97326 
Q 285.784199 310.97326 285.784199 308.57326 
L 285.784199 273.28826 
Q 285.784199 270.88826 283.384199 270.88826 
L 275.641699 270.88826 
Q 273.241699 270.88826 273.241699 273.28826 
z
" style="fill:#ffffff;stroke:#ffffff;stroke-linejoin:miter;"/>
    </g>
    <g clip-path="url(#pf6a840a02a)">
     <!-- Terminal -->
     <g transform="translate(277.305449 273.28826)rotate(-270)scale(0.08 -0.08)">
      <use xlink:href="#DejaVuSans-84"/>
      <use x="60.818359" xlink:href="#DejaVuSans-101"/>
      <use x="122.341797" xlink:href="#DejaVuSans-114"/>
      <use x="163.439453" xlink:href="#DejaVuSans-109"/>
      <use x="260.851562" xlink:href="#DejaVuSans-105"/>
      <use x="288.634766" xlink:href="#DejaVuSans-110"/>
      <use x="352.013672" xlink:href="#DejaVuSans-97"/>
      <use x="413.292969" xlink:href="#DejaVuSans-108"/>
     </g>
    </g>
   </g>
   <g id="text_28">
    <g id="patch_29">
     <path clip-path="url(#pf6a840a02a)" d="M 621.984389 273.28826 
L 621.984389 308.57326 
Q 621.984389 310.97326 624.384389 310.97326 
L 632.126889 310.97326 
Q 634.526889 310.97326 634.526889 308.57326 
L 634.526889 273.28826 
Q 634.526889 270.88826 632.126889 270.88826 
L 624.384389 270.88826 
Q 621.984389 270.88826 621.984389 273.28826 
z
" style="fill:#ffffff;stroke:#ffffff;stroke-linejoin:miter;"/>
    </g>
    <g clip-path="url(#pf6a840a02a)">
     <!-- Terminal -->
     <g transform="translate(626.048139 273.28826)rotate(-270)scale(0.08 -0.08)">
      <use xlink:href="#DejaVuSans-84"/>
      <use x="60.818359" xlink:href="#DejaVuSans-101"/>
      <use x="122.341797" xlink:href="#DejaVuSans-114"/>
      <use x="163.439453" xlink:href="#DejaVuSans-109"/>
      <use x="260.851562" xlink:href="#DejaVuSans-105"/>
      <use x="288.634766" xlink:href="#DejaVuSans-110"/>
      <use x="352.013672" xlink:href="#DejaVuSans-97"/>
      <use x="413.292969" xlink:href="#DejaVuSans-108"/>
     </g>
    </g>
   </g>
   <g id="PathCollection_1">
    <defs>
     <path d="M 0 8.660254 
C 2.296726 8.660254 4.499694 7.747755 6.123724 6.123724 
C 7.747755 4.499694 8.660254 2.296726 8.660254 0 
C 8.660254 -2.296726 7.747755 -4.499694 6.123724 -6.123724 
C 4.499694 -7.747755 2.296726 -8.660254 0 -8.660254 
C -2.296726 -8.660254 -4.499694 -7.747755 -6.123724 -6.123724 
C -7.747755 -4.499694 -8.660254 -2.296726 -8.660254 0 
C -8.660254 2.296726 -7.747755 4.499694 -6.123724 6.123724 
C -4.499694 7.747755 -2.296726 8.660254 0 8.660254 
z
" id="C0_0_c95d8d21d9"/>
    </defs>
    <g clip-path="url(#pf6a840a02a)">
     <use style="fill:#ffffff;stroke:#ffffff;" x="30.411027" xlink:href="#C0_0_c95d8d21d9" y="329.520875"/>
    </g>
    <g clip-path="url(#pf6a840a02a)">
     <use style="fill:#ffffff;stroke:#ffffff;" x="80.231412" xlink:href="#C0_0_c95d8d21d9" y="329.520875"/>
    </g>
    <g clip-path="url(#pf6a840a02a)">
     <use style="fill:#ffffff;stroke:#ffffff;" x="130.051796" xlink:href="#C0_0_c95d8d21d9" y="329.520875"/>
    </g>
    <g clip-path="url(#pf6a840a02a)">
     <use style="fill:#ffffff;stroke:#ffffff;" x="179.87218" xlink:href="#C0_0_c95d8d21d9" y="329.520875"/>
    </g>
    <g clip-path="url(#pf6a840a02a)">
     <use style="fill:#ffffff;stroke:#ffffff;" x="229.692565" xlink:href="#C0_0_c95d8d21d9" y="329.520875"/>
    </g>
    <g clip-path="url(#pf6a840a02a)">
     <use style="fill:#ffffff;stroke:#ffffff;" x="279.512949" xlink:href="#C0_0_c95d8d21d9" y="329.520875"/>
    </g>
    <g clip-path="url(#pf6a840a02a)">
     <use style="fill:#ffffff;stroke:#ffffff;" x="329.333333" xlink:href="#C0_0_c95d8d21d9" y="329.520875"/>
    </g>
    <g clip-path="url(#pf6a840a02a)">
     <use style="fill:#ffffff;stroke:#ffffff;" x="379.153718" xlink:href="#C0_0_c95d8d21d9" y="329.520875"/>
    </g>
    <g clip-path="url(#pf6a840a02a)">
     <use style="fill:#ffffff;stroke:#ffffff;" x="428.974102" xlink:href="#C0_0_c95d8d21d9" y="329.520875"/>
    </g>
    <g clip-path="url(#pf6a840a02a)">
     <use style="fill:#ffffff;stroke:#ffffff;" x="478.794486" xlink:href="#C0_0_c95d8d21d9" y="329.520875"/>
    </g>
    <g clip-path="url(#pf6a840a02a)">
     <use style="fill:#ffffff;stroke:#ffffff;" x="528.614871" xlink:href="#C0_0_c95d8d21d9" y="329.520875"/>
    </g>
    <g clip-path="url(#pf6a840a02a)">
     <use style="fill:#ffffff;stroke:#ffffff;" x="578.435255" xlink:href="#C0_0_c95d8d21d9" y="329.520875"/>
    </g>
    <g clip-path="url(#pf6a840a02a)">
     <use style="fill:#ffffff;stroke:#ffffff;" x="628.255639" xlink:href="#C0_0_c95d8d21d9" y="329.520875"/>
    </g>
    <g clip-path="url(#pf6a840a02a)">
     <use style="fill:#ffffff;stroke:#ffffff;" x="220.351243" xlink:href="#C0_0_c95d8d21d9" y="17.145792"/>
    </g>
    <g clip-path="url(#pf6a840a02a)">
     <use style="fill:#ffffff;stroke:#ffffff;" x="220.351243" xlink:href="#C0_0_c95d8d21d9" y="96.906522"/>
    </g>
    <g clip-path="url(#pf6a840a02a)">
     <use style="fill:#ffffff;stroke:#ffffff;" x="30.411027" xlink:href="#C0_0_c95d8d21d9" y="252.340644"/>
    </g>
    <g clip-path="url(#pf6a840a02a)">
     <use style="fill:#ffffff;stroke:#ffffff;" x="80.231412" xlink:href="#C0_0_c95d8d21d9" y="252.340644"/>
    </g>
    <g clip-path="url(#pf6a840a02a)">
     <use style="fill:#ffffff;stroke:#ffffff;" x="130.051796" xlink:href="#C0_0_c95d8d21d9" y="252.340644"/>
    </g>
    <g clip-path="url(#pf6a840a02a)">
     <use style="fill:#ffffff;stroke:#ffffff;" x="179.87218" xlink:href="#C0_0_c95d8d21d9" y="252.340644"/>
    </g>
    <g clip-path="url(#pf6a840a02a)">
     <use style="fill:#ffffff;stroke:#ffffff;" x="229.692565" xlink:href="#C0_0_c95d8d21d9" y="252.340644"/>
    </g>
    <g clip-path="url(#pf6a840a02a)">
     <use style="fill:#ffffff;stroke:#ffffff;" x="329.333333" xlink:href="#C0_0_c95d8d21d9" y="252.340644"/>
    </g>
    <g clip-path="url(#pf6a840a02a)">
     <use style="fill:#ffffff;stroke:#ffffff;" x="503.704679" xlink:href="#C0_0_c95d8d21d9" y="175.160414"/>
    </g>
    <g clip-path="url(#pf6a840a02a)">
     <use style="fill:#ffffff;stroke:#ffffff;" x="379.153718" xlink:href="#C0_0_c95d8d21d9" y="252.340644"/>
    </g>
    <g clip-path="url(#pf6a840a02a)">
     <use style="fill:#ffffff;stroke:#ffffff;" x="428.974102" xlink:href="#C0_0_c95d8d21d9" y="252.340644"/>
    </g>
    <g clip-path="url(#pf6a840a02a)">
     <use style="fill:#ffffff;stroke:#ffffff;" x="478.794486" xlink:href="#C0_0_c95d8d21d9" y="252.340644"/>
    </g>
    <g clip-path="url(#pf6a840a02a)">
     <use style="fill:#ffffff;stroke:#ffffff;" x="528.614871" xlink:href="#C0_0_c95d8d21d9" y="252.340644"/>
    </g>
    <g clip-path="url(#pf6a840a02a)">
     <use style="fill:#ffffff;stroke:#ffffff;" x="578.435255" xlink:href="#C0_0_c95d8d21d9" y="252.340644"/>
    </g>
    <g clip-path="url(#pf6a840a02a)">
     <use style="fill:#ffffff;stroke:#ffffff;" x="279.512949" xlink:href="#C0_0_c95d8d21d9" y="252.340644"/>
    </g>
    <g clip-path="url(#pf6a840a02a)">
     <use style="fill:#ffffff;stroke:#ffffff;" x="628.255639" xlink:href="#C0_0_c95d8d21d9" y="252.340644"/>
    </g>
   </g>
   <g id="text_29">
    <g clip-path="url(#pf6a840a02a)">
     <!-- On -->
     <defs>
      <path d="M 39.40625 66.21875 
Q 28.65625 66.21875 22.328125 58.203125 
Q 16.015625 50.203125 16.015625 36.375 
Q 16.015625 22.609375 22.328125 14.59375 
Q 28.65625 6.59375 39.40625 6.59375 
Q 50.140625 6.59375 56.421875 14.59375 
Q 62.703125 22.609375 62.703125 36.375 
Q 62.703125 50.203125 56.421875 58.203125 
Q 50.140625 66.21875 39.40625 66.21875 
z
M 39.40625 74.21875 
Q 54.734375 74.21875 63.90625 63.9375 
Q 73.09375 53.65625 73.09375 36.375 
Q 73.09375 19.140625 63.90625 8.859375 
Q 54.734375 -1.421875 39.40625 -1.421875 
Q 24.03125 -1.421875 14.8125 8.828125 
Q 5.609375 19.09375 5.609375 36.375 
Q 5.609375 53.65625 14.8125 63.9375 
Q 24.03125 74.21875 39.40625 74.21875 
z
" id="DejaVuSans-79"/>
     </defs>
     <g transform="translate(23.30634 332.28025)scale(0.1 -0.1)">
      <use xlink:href="#DejaVuSans-79"/>
      <use x="78.710938" xlink:href="#DejaVuSans-110"/>
     </g>
    </g>
   </g>
   <g id="text_30">
    <g clip-path="url(#pf6a840a02a)">
     <!-- en -->
     <g transform="translate(73.986099 332.28025)scale(0.1 -0.1)">
      <use xlink:href="#DejaVuSans-101"/>
      <use x="61.523438" xlink:href="#DejaVuSans-110"/>
     </g>
    </g>
   </g>
   <g id="text_31">
    <g clip-path="url(#pf6a840a02a)">
     <!-- avait -->
     <defs>
      <path d="M 2.984375 54.6875 
L 12.5 54.6875 
L 29.59375 8.796875 
L 46.6875 54.6875 
L 56.203125 54.6875 
L 35.6875 0 
L 23.484375 0 
z
" id="DejaVuSans-118"/>
      <path d="M 18.3125 70.21875 
L 18.3125 54.6875 
L 36.8125 54.6875 
L 36.8125 47.703125 
L 18.3125 47.703125 
L 18.3125 18.015625 
Q 18.3125 11.328125 20.140625 9.421875 
Q 21.96875 7.515625 27.59375 7.515625 
L 36.8125 7.515625 
L 36.8125 0 
L 27.59375 0 
Q 17.1875 0 13.234375 3.875 
Q 9.28125 7.765625 9.28125 18.015625 
L 9.28125 47.703125 
L 2.6875 47.703125 
L 2.6875 54.6875 
L 9.28125 54.6875 
L 9.28125 70.21875 
z
" id="DejaVuSans-116"/>
     </defs>
     <g transform="translate(117.615077 332.28025)scale(0.1 -0.1)">
      <use xlink:href="#DejaVuSans-97"/>
      <use x="61.279297" xlink:href="#DejaVuSans-118"/>
      <use x="120.458984" xlink:href="#DejaVuSans-97"/>
      <use x="181.738281" xlink:href="#DejaVuSans-105"/>
      <use x="209.521484" xlink:href="#DejaVuSans-116"/>
     </g>
    </g>
   </g>
   <g id="text_32">
    <g clip-path="url(#pf6a840a02a)">
     <!-- tant -->
     <g transform="translate(169.719055 332.28025)scale(0.1 -0.1)">
      <use xlink:href="#DejaVuSans-116"/>
      <use x="39.208984" xlink:href="#DejaVuSans-97"/>
      <use x="100.488281" xlink:href="#DejaVuSans-110"/>
      <use x="163.867188" xlink:href="#DejaVuSans-116"/>
     </g>
    </g>
   </g>
   <g id="text_33">
    <g clip-path="url(#pf6a840a02a)">
     <!-- causé -->
     <defs>
      <path d="M 48.78125 52.59375 
L 48.78125 44.1875 
Q 44.96875 46.296875 41.140625 47.34375 
Q 37.3125 48.390625 33.40625 48.390625 
Q 24.65625 48.390625 19.8125 42.84375 
Q 14.984375 37.3125 14.984375 27.296875 
Q 14.984375 17.28125 19.8125 11.734375 
Q 24.65625 6.203125 33.40625 6.203125 
Q 37.3125 6.203125 41.140625 7.25 
Q 44.96875 8.296875 48.78125 10.40625 
L 48.78125 2.09375 
Q 45.015625 0.34375 40.984375 -0.53125 
Q 36.96875 -1.421875 32.421875 -1.421875 
Q 20.0625 -1.421875 12.78125 6.34375 
Q 5.515625 14.109375 5.515625 27.296875 
Q 5.515625 40.671875 12.859375 48.328125 
Q 20.21875 56 33.015625 56 
Q 37.15625 56 41.109375 55.140625 
Q 45.0625 54.296875 48.78125 52.59375 
z
" id="DejaVuSans-99"/>
      <path d="M 8.5 21.578125 
L 8.5 54.6875 
L 17.484375 54.6875 
L 17.484375 21.921875 
Q 17.484375 14.15625 20.5 10.265625 
Q 23.53125 6.390625 29.59375 6.390625 
Q 36.859375 6.390625 41.078125 11.03125 
Q 45.3125 15.671875 45.3125 23.6875 
L 45.3125 54.6875 
L 54.296875 54.6875 
L 54.296875 0 
L 45.3125 0 
L 45.3125 8.40625 
Q 42.046875 3.421875 37.71875 1 
Q 33.40625 -1.421875 27.6875 -1.421875 
Q 18.265625 -1.421875 13.375 4.4375 
Q 8.5 10.296875 8.5 21.578125 
z
M 31.109375 56 
z
" id="DejaVuSans-117"/>
      <path d="M 44.28125 53.078125 
L 44.28125 44.578125 
Q 40.484375 46.53125 36.375 47.5 
Q 32.28125 48.484375 27.875 48.484375 
Q 21.1875 48.484375 17.84375 46.4375 
Q 14.5 44.390625 14.5 40.28125 
Q 14.5 37.15625 16.890625 35.375 
Q 19.28125 33.59375 26.515625 31.984375 
L 29.59375 31.296875 
Q 39.15625 29.25 43.1875 25.515625 
Q 47.21875 21.78125 47.21875 15.09375 
Q 47.21875 7.46875 41.1875 3.015625 
Q 35.15625 -1.421875 24.609375 -1.421875 
Q 20.21875 -1.421875 15.453125 -0.5625 
Q 10.6875 0.296875 5.421875 2 
L 5.421875 11.28125 
Q 10.40625 8.6875 15.234375 7.390625 
Q 20.0625 6.109375 24.8125 6.109375 
Q 31.15625 6.109375 34.5625 8.28125 
Q 37.984375 10.453125 37.984375 14.40625 
Q 37.984375 18.0625 35.515625 20.015625 
Q 33.0625 21.96875 24.703125 23.78125 
L 21.578125 24.515625 
Q 13.234375 26.265625 9.515625 29.90625 
Q 5.8125 33.546875 5.8125 39.890625 
Q 5.8125 47.609375 11.28125 51.796875 
Q 16.75 56 26.8125 56 
Q 31.78125 56 36.171875 55.265625 
Q 40.578125 54.546875 44.28125 53.078125 
z
" id="DejaVuSans-115"/>
      <path d="M 56.203125 29.59375 
L 56.203125 25.203125 
L 14.890625 25.203125 
Q 15.484375 15.921875 20.484375 11.0625 
Q 25.484375 6.203125 34.421875 6.203125 
Q 39.59375 6.203125 44.453125 7.46875 
Q 49.3125 8.734375 54.109375 11.28125 
L 54.109375 2.78125 
Q 49.265625 0.734375 44.1875 -0.34375 
Q 39.109375 -1.421875 33.890625 -1.421875 
Q 20.796875 -1.421875 13.15625 6.1875 
Q 5.515625 13.8125 5.515625 26.8125 
Q 5.515625 40.234375 12.765625 48.109375 
Q 20.015625 56 32.328125 56 
Q 43.359375 56 49.78125 48.890625 
Q 56.203125 41.796875 56.203125 29.59375 
z
M 47.21875 32.234375 
Q 47.125 39.59375 43.09375 43.984375 
Q 39.0625 48.390625 32.421875 48.390625 
Q 24.90625 48.390625 20.390625 44.140625 
Q 15.875 39.890625 15.1875 32.171875 
z
M 38.53125 79.984375 
L 48.25 79.984375 
L 32.34375 61.625 
L 24.859375 61.625 
z
" id="DejaVuSans-233"/>
     </defs>
     <g transform="translate(215.029283 332.28025)scale(0.1 -0.1)">
      <use xlink:href="#DejaVuSans-99"/>
      <use x="54.980469" xlink:href="#DejaVuSans-97"/>
      <use x="116.259766" xlink:href="#DejaVuSans-117"/>
      <use x="179.638672" xlink:href="#DejaVuSans-115"/>
      <use x="231.738281" xlink:href="#DejaVuSans-233"/>
     </g>
    </g>
   </g>
   <g id="text_34">
    <g clip-path="url(#pf6a840a02a)">
     <!-- , -->
     <defs>
      <path d="M 11.71875 12.40625 
L 22.015625 12.40625 
L 22.015625 4 
L 14.015625 -11.625 
L 7.71875 -11.625 
L 11.71875 4 
z
" id="DejaVuSans-44"/>
     </defs>
     <g transform="translate(277.923886 332.28025)scale(0.1 -0.1)">
      <use xlink:href="#DejaVuSans-44"/>
     </g>
    </g>
   </g>
   <g id="text_35">
    <g clip-path="url(#pf6a840a02a)">
     <!-- et -->
     <g transform="translate(324.296615 332.28025)scale(0.1 -0.1)">
      <use xlink:href="#DejaVuSans-101"/>
      <use x="61.523438" xlink:href="#DejaVuSans-116"/>
     </g>
    </g>
   </g>
   <g id="text_36">
    <g clip-path="url(#pf6a840a02a)">
     <!-- même -->
     <defs>
      <path d="M 56.203125 29.59375 
L 56.203125 25.203125 
L 14.890625 25.203125 
Q 15.484375 15.921875 20.484375 11.0625 
Q 25.484375 6.203125 34.421875 6.203125 
Q 39.59375 6.203125 44.453125 7.46875 
Q 49.3125 8.734375 54.109375 11.28125 
L 54.109375 2.78125 
Q 49.265625 0.734375 44.1875 -0.34375 
Q 39.109375 -1.421875 33.890625 -1.421875 
Q 20.796875 -1.421875 13.15625 6.1875 
Q 5.515625 13.8125 5.515625 26.8125 
Q 5.515625 40.234375 12.765625 48.109375 
Q 20.015625 56 32.328125 56 
Q 43.359375 56 49.78125 48.890625 
Q 56.203125 41.796875 56.203125 29.59375 
z
M 47.21875 32.234375 
Q 47.125 39.59375 43.09375 43.984375 
Q 39.0625 48.390625 32.421875 48.390625 
Q 24.90625 48.390625 20.390625 44.140625 
Q 15.875 39.890625 15.1875 32.171875 
z
M 28.140625 79.984375 
L 35.359375 79.984375 
L 47.328125 61.625 
L 40.546875 61.625 
L 31.75 73.578125 
L 22.96875 61.625 
L 16.171875 61.625 
z
" id="DejaVuSans-234"/>
     </defs>
     <g transform="translate(363.259968 332.28025)scale(0.1 -0.1)">
      <use xlink:href="#DejaVuSans-109"/>
      <use x="97.412109" xlink:href="#DejaVuSans-234"/>
      <use x="158.935547" xlink:href="#DejaVuSans-109"/>
      <use x="256.347656" xlink:href="#DejaVuSans-101"/>
     </g>
    </g>
   </g>
   <g id="text_37">
    <g clip-path="url(#pf6a840a02a)">
     <!-- par -->
     <defs>
      <path d="M 18.109375 8.203125 
L 18.109375 -20.796875 
L 9.078125 -20.796875 
L 9.078125 54.6875 
L 18.109375 54.6875 
L 18.109375 46.390625 
Q 20.953125 51.265625 25.265625 53.625 
Q 29.59375 56 35.59375 56 
Q 45.5625 56 51.78125 48.09375 
Q 58.015625 40.1875 58.015625 27.296875 
Q 58.015625 14.40625 51.78125 6.484375 
Q 45.5625 -1.421875 35.59375 -1.421875 
Q 29.59375 -1.421875 25.265625 0.953125 
Q 20.953125 3.328125 18.109375 8.203125 
z
M 48.6875 27.296875 
Q 48.6875 37.203125 44.609375 42.84375 
Q 40.53125 48.484375 33.40625 48.484375 
Q 26.265625 48.484375 22.1875 42.84375 
Q 18.109375 37.203125 18.109375 27.296875 
Q 18.109375 17.390625 22.1875 11.75 
Q 26.265625 6.109375 33.40625 6.109375 
Q 40.53125 6.109375 44.609375 11.75 
Q 48.6875 17.390625 48.6875 27.296875 
z
" id="DejaVuSans-112"/>
     </defs>
     <g transform="translate(420.680352 332.28025)scale(0.1 -0.1)">
      <use xlink:href="#DejaVuSans-112"/>
      <use x="63.476562" xlink:href="#DejaVuSans-97"/>
      <use x="124.755859" xlink:href="#DejaVuSans-114"/>
     </g>
    </g>
   </g>
   <g id="text_38">
    <g clip-path="url(#pf6a840a02a)">
     <!-- le -->
     <g transform="translate(474.328861 332.28025)scale(0.1 -0.1)">
      <use xlink:href="#DejaVuSans-108"/>
      <use x="27.783203" xlink:href="#DejaVuSans-101"/>
     </g>
    </g>
   </g>
   <g id="text_39">
    <g clip-path="url(#pf6a840a02a)">
     <!-- câble -->
     <defs>
      <path d="M 34.28125 27.484375 
Q 23.390625 27.484375 19.1875 25 
Q 14.984375 22.515625 14.984375 16.5 
Q 14.984375 11.71875 18.140625 8.90625 
Q 21.296875 6.109375 26.703125 6.109375 
Q 34.1875 6.109375 38.703125 11.40625 
Q 43.21875 16.703125 43.21875 25.484375 
L 43.21875 27.484375 
z
M 52.203125 31.203125 
L 52.203125 0 
L 43.21875 0 
L 43.21875 8.296875 
Q 40.140625 3.328125 35.546875 0.953125 
Q 30.953125 -1.421875 24.3125 -1.421875 
Q 15.921875 -1.421875 10.953125 3.296875 
Q 6 8.015625 6 15.921875 
Q 6 25.140625 12.171875 29.828125 
Q 18.359375 34.515625 30.609375 34.515625 
L 43.21875 34.515625 
L 43.21875 35.40625 
Q 43.21875 41.609375 39.140625 45 
Q 35.0625 48.390625 27.6875 48.390625 
Q 23 48.390625 18.546875 47.265625 
Q 14.109375 46.140625 10.015625 43.890625 
L 10.015625 52.203125 
Q 14.9375 54.109375 19.578125 55.046875 
Q 24.21875 56 28.609375 56 
Q 40.484375 56 46.34375 49.84375 
Q 52.203125 43.703125 52.203125 31.203125 
z
M 25.390625 79.984375 
L 32.609375 79.984375 
L 44.578125 61.625 
L 37.796875 61.625 
L 29 73.578125 
L 20.21875 61.625 
L 13.421875 61.625 
z
" id="DejaVuSans-226"/>
      <path d="M 48.6875 27.296875 
Q 48.6875 37.203125 44.609375 42.84375 
Q 40.53125 48.484375 33.40625 48.484375 
Q 26.265625 48.484375 22.1875 42.84375 
Q 18.109375 37.203125 18.109375 27.296875 
Q 18.109375 17.390625 22.1875 11.75 
Q 26.265625 6.109375 33.40625 6.109375 
Q 40.53125 6.109375 44.609375 11.75 
Q 48.6875 17.390625 48.6875 27.296875 
z
M 18.109375 46.390625 
Q 20.953125 51.265625 25.265625 53.625 
Q 29.59375 56 35.59375 56 
Q 45.5625 56 51.78125 48.09375 
Q 58.015625 40.1875 58.015625 27.296875 
Q 58.015625 14.40625 51.78125 6.484375 
Q 45.5625 -1.421875 35.59375 -1.421875 
Q 29.59375 -1.421875 25.265625 0.953125 
Q 20.953125 3.328125 18.109375 8.203125 
L 18.109375 0 
L 9.078125 0 
L 9.078125 75.984375 
L 18.109375 75.984375 
z
" id="DejaVuSans-98"/>
     </defs>
     <g transform="translate(515.161746 332.28025)scale(0.1 -0.1)">
      <use xlink:href="#DejaVuSans-99"/>
      <use x="54.980469" xlink:href="#DejaVuSans-226"/>
      <use x="116.259766" xlink:href="#DejaVuSans-98"/>
      <use x="179.736328" xlink:href="#DejaVuSans-108"/>
      <use x="207.519531" xlink:href="#DejaVuSans-101"/>
     </g>
    </g>
   </g>
   <g id="text_40">
    <g clip-path="url(#pf6a840a02a)">
     <!-- transatlantique -->
     <defs>
      <path d="M 14.796875 27.296875 
Q 14.796875 17.390625 18.875 11.75 
Q 22.953125 6.109375 30.078125 6.109375 
Q 37.203125 6.109375 41.296875 11.75 
Q 45.40625 17.390625 45.40625 27.296875 
Q 45.40625 37.203125 41.296875 42.84375 
Q 37.203125 48.484375 30.078125 48.484375 
Q 22.953125 48.484375 18.875 42.84375 
Q 14.796875 37.203125 14.796875 27.296875 
z
M 45.40625 8.203125 
Q 42.578125 3.328125 38.25 0.953125 
Q 33.9375 -1.421875 27.875 -1.421875 
Q 17.96875 -1.421875 11.734375 6.484375 
Q 5.515625 14.40625 5.515625 27.296875 
Q 5.515625 40.1875 11.734375 48.09375 
Q 17.96875 56 27.875 56 
Q 33.9375 56 38.25 53.625 
Q 42.578125 51.265625 45.40625 46.390625 
L 45.40625 54.6875 
L 54.390625 54.6875 
L 54.390625 -20.796875 
L 45.40625 -20.796875 
z
" id="DejaVuSans-113"/>
     </defs>
     <g transform="translate(540.167286 332.28025)scale(0.1 -0.1)">
      <use xlink:href="#DejaVuSans-116"/>
      <use x="39.208984" xlink:href="#DejaVuSans-114"/>
      <use x="80.322266" xlink:href="#DejaVuSans-97"/>
      <use x="141.601562" xlink:href="#DejaVuSans-110"/>
      <use x="204.980469" xlink:href="#DejaVuSans-115"/>
      <use x="257.080078" xlink:href="#DejaVuSans-97"/>
      <use x="318.359375" xlink:href="#DejaVuSans-116"/>
      <use x="357.568359" xlink:href="#DejaVuSans-108"/>
      <use x="385.351562" xlink:href="#DejaVuSans-97"/>
      <use x="446.630859" xlink:href="#DejaVuSans-110"/>
      <use x="510.009766" xlink:href="#DejaVuSans-116"/>
      <use x="549.21875" xlink:href="#DejaVuSans-105"/>
      <use x="577.001953" xlink:href="#DejaVuSans-113"/>
      <use x="640.478516" xlink:href="#DejaVuSans-117"/>
      <use x="703.857422" xlink:href="#DejaVuSans-101"/>
     </g>
    </g>
   </g>
   <g id="text_41">
    <g clip-path="url(#pf6a840a02a)">
     <!-- ! -->
     <defs>
      <path d="M 15.09375 12.40625 
L 25 12.40625 
L 25 0 
L 15.09375 0 
z
M 15.09375 72.90625 
L 25 72.90625 
L 25 40.921875 
L 24.03125 23.484375 
L 16.109375 23.484375 
L 15.09375 40.921875 
z
" id="DejaVuSans-33"/>
     </defs>
     <g transform="translate(626.250952 332.28025)scale(0.1 -0.1)">
      <use xlink:href="#DejaVuSans-33"/>
     </g>
    </g>
   </g>
   <g id="text_42">
    <g clip-path="url(#pf6a840a02a)">
     <!-- 1.1 -->
     <defs>
      <path d="M 12.40625 8.296875 
L 28.515625 8.296875 
L 28.515625 63.921875 
L 10.984375 60.40625 
L 10.984375 69.390625 
L 28.421875 72.90625 
L 38.28125 72.90625 
L 38.28125 8.296875 
L 54.390625 8.296875 
L 54.390625 0 
L 12.40625 0 
z
" id="DejaVuSans-49"/>
      <path d="M 10.6875 12.40625 
L 21 12.40625 
L 21 0 
L 10.6875 0 
z
" id="DejaVuSans-46"/>
     </defs>
     <g transform="translate(212.39968 19.905167)scale(0.1 -0.1)">
      <use xlink:href="#DejaVuSans-49"/>
      <use x="63.623047" xlink:href="#DejaVuSans-46"/>
      <use x="95.410156" xlink:href="#DejaVuSans-49"/>
     </g>
    </g>
   </g>
   <g id="text_43">
    <g clip-path="url(#pf6a840a02a)">
     <!-- 1.2 -->
     <defs>
      <path d="M 19.1875 8.296875 
L 53.609375 8.296875 
L 53.609375 0 
L 7.328125 0 
L 7.328125 8.296875 
Q 12.9375 14.109375 22.625 23.890625 
Q 32.328125 33.6875 34.8125 36.53125 
Q 39.546875 41.84375 41.421875 45.53125 
Q 43.3125 49.21875 43.3125 52.78125 
Q 43.3125 58.59375 39.234375 62.25 
Q 35.15625 65.921875 28.609375 65.921875 
Q 23.96875 65.921875 18.8125 64.3125 
Q 13.671875 62.703125 7.8125 59.421875 
L 7.8125 69.390625 
Q 13.765625 71.78125 18.9375 73 
Q 24.125 74.21875 28.421875 74.21875 
Q 39.75 74.21875 46.484375 68.546875 
Q 53.21875 62.890625 53.21875 53.421875 
Q 53.21875 48.921875 51.53125 44.890625 
Q 49.859375 40.875 45.40625 35.40625 
Q 44.1875 33.984375 37.640625 27.21875 
Q 31.109375 20.453125 19.1875 8.296875 
z
" id="DejaVuSans-50"/>
     </defs>
     <g transform="translate(212.39968 99.665897)scale(0.1 -0.1)">
      <use xlink:href="#DejaVuSans-49"/>
      <use x="63.623047" xlink:href="#DejaVuSans-46"/>
      <use x="95.410156" xlink:href="#DejaVuSans-50"/>
     </g>
    </g>
   </g>
   <g id="text_44">
    <g clip-path="url(#pf6a840a02a)">
     <!-- 1.4 -->
     <defs>
      <path d="M 37.796875 64.3125 
L 12.890625 25.390625 
L 37.796875 25.390625 
z
M 35.203125 72.90625 
L 47.609375 72.90625 
L 47.609375 25.390625 
L 58.015625 25.390625 
L 58.015625 17.1875 
L 47.609375 17.1875 
L 47.609375 0 
L 37.796875 0 
L 37.796875 17.1875 
L 4.890625 17.1875 
L 4.890625 26.703125 
z
" id="DejaVuSans-52"/>
     </defs>
     <g transform="translate(22.459465 255.100019)scale(0.1 -0.1)">
      <use xlink:href="#DejaVuSans-49"/>
      <use x="63.623047" xlink:href="#DejaVuSans-46"/>
      <use x="95.410156" xlink:href="#DejaVuSans-52"/>
     </g>
    </g>
   </g>
   <g id="text_45">
    <g clip-path="url(#pf6a840a02a)">
     <!-- 1.5 -->
     <defs>
      <path d="M 10.796875 72.90625 
L 49.515625 72.90625 
L 49.515625 64.59375 
L 19.828125 64.59375 
L 19.828125 46.734375 
Q 21.96875 47.46875 24.109375 47.828125 
Q 26.265625 48.1875 28.421875 48.1875 
Q 40.625 48.1875 47.75 41.5 
Q 54.890625 34.8125 54.890625 23.390625 
Q 54.890625 11.625 47.5625 5.09375 
Q 40.234375 -1.421875 26.90625 -1.421875 
Q 22.3125 -1.421875 17.546875 -0.640625 
Q 12.796875 0.140625 7.71875 1.703125 
L 7.71875 11.625 
Q 12.109375 9.234375 16.796875 8.0625 
Q 21.484375 6.890625 26.703125 6.890625 
Q 35.15625 6.890625 40.078125 11.328125 
Q 45.015625 15.765625 45.015625 23.390625 
Q 45.015625 31 40.078125 35.4375 
Q 35.15625 39.890625 26.703125 39.890625 
Q 22.75 39.890625 18.8125 39.015625 
Q 14.890625 38.140625 10.796875 36.28125 
z
" id="DejaVuSans-53"/>
     </defs>
     <g transform="translate(72.279849 255.100019)scale(0.1 -0.1)">
      <use xlink:href="#DejaVuSans-49"/>
      <use x="63.623047" xlink:href="#DejaVuSans-46"/>
      <use x="95.410156" xlink:href="#DejaVuSans-53"/>
     </g>
    </g>
   </g>
   <g id="text_46">
    <g clip-path="url(#pf6a840a02a)">
     <!-- 1.6 -->
     <defs>
      <path d="M 33.015625 40.375 
Q 26.375 40.375 22.484375 35.828125 
Q 18.609375 31.296875 18.609375 23.390625 
Q 18.609375 15.53125 22.484375 10.953125 
Q 26.375 6.390625 33.015625 6.390625 
Q 39.65625 6.390625 43.53125 10.953125 
Q 47.40625 15.53125 47.40625 23.390625 
Q 47.40625 31.296875 43.53125 35.828125 
Q 39.65625 40.375 33.015625 40.375 
z
M 52.59375 71.296875 
L 52.59375 62.3125 
Q 48.875 64.0625 45.09375 64.984375 
Q 41.3125 65.921875 37.59375 65.921875 
Q 27.828125 65.921875 22.671875 59.328125 
Q 17.53125 52.734375 16.796875 39.40625 
Q 19.671875 43.65625 24.015625 45.921875 
Q 28.375 48.1875 33.59375 48.1875 
Q 44.578125 48.1875 50.953125 41.515625 
Q 57.328125 34.859375 57.328125 23.390625 
Q 57.328125 12.15625 50.6875 5.359375 
Q 44.046875 -1.421875 33.015625 -1.421875 
Q 20.359375 -1.421875 13.671875 8.265625 
Q 6.984375 17.96875 6.984375 36.375 
Q 6.984375 53.65625 15.1875 63.9375 
Q 23.390625 74.21875 37.203125 74.21875 
Q 40.921875 74.21875 44.703125 73.484375 
Q 48.484375 72.75 52.59375 71.296875 
z
" id="DejaVuSans-54"/>
     </defs>
     <g transform="translate(122.100233 255.100019)scale(0.1 -0.1)">
      <use xlink:href="#DejaVuSans-49"/>
      <use x="63.623047" xlink:href="#DejaVuSans-46"/>
      <use x="95.410156" xlink:href="#DejaVuSans-54"/>
     </g>
    </g>
   </g>
   <g id="text_47">
    <g clip-path="url(#pf6a840a02a)">
     <!-- 1.7 -->
     <defs>
      <path d="M 8.203125 72.90625 
L 55.078125 72.90625 
L 55.078125 68.703125 
L 28.609375 0 
L 18.3125 0 
L 43.21875 64.59375 
L 8.203125 64.59375 
z
" id="DejaVuSans-55"/>
     </defs>
     <g transform="translate(171.920618 255.100019)scale(0.1 -0.1)">
      <use xlink:href="#DejaVuSans-49"/>
      <use x="63.623047" xlink:href="#DejaVuSans-46"/>
      <use x="95.410156" xlink:href="#DejaVuSans-55"/>
     </g>
    </g>
   </g>
   <g id="text_48">
    <g clip-path="url(#pf6a840a02a)">
     <!-- 1.8 -->
     <defs>
      <path d="M 31.78125 34.625 
Q 24.75 34.625 20.71875 30.859375 
Q 16.703125 27.09375 16.703125 20.515625 
Q 16.703125 13.921875 20.71875 10.15625 
Q 24.75 6.390625 31.78125 6.390625 
Q 38.8125 6.390625 42.859375 10.171875 
Q 46.921875 13.96875 46.921875 20.515625 
Q 46.921875 27.09375 42.890625 30.859375 
Q 38.875 34.625 31.78125 34.625 
z
M 21.921875 38.8125 
Q 15.578125 40.375 12.03125 44.71875 
Q 8.5 49.078125 8.5 55.328125 
Q 8.5 64.0625 14.71875 69.140625 
Q 20.953125 74.21875 31.78125 74.21875 
Q 42.671875 74.21875 48.875 69.140625 
Q 55.078125 64.0625 55.078125 55.328125 
Q 55.078125 49.078125 51.53125 44.71875 
Q 48 40.375 41.703125 38.8125 
Q 48.828125 37.15625 52.796875 32.3125 
Q 56.78125 27.484375 56.78125 20.515625 
Q 56.78125 9.90625 50.3125 4.234375 
Q 43.84375 -1.421875 31.78125 -1.421875 
Q 19.734375 -1.421875 13.25 4.234375 
Q 6.78125 9.90625 6.78125 20.515625 
Q 6.78125 27.484375 10.78125 32.3125 
Q 14.796875 37.15625 21.921875 38.8125 
z
M 18.3125 54.390625 
Q 18.3125 48.734375 21.84375 45.5625 
Q 25.390625 42.390625 31.78125 42.390625 
Q 38.140625 42.390625 41.71875 45.5625 
Q 45.3125 48.734375 45.3125 54.390625 
Q 45.3125 60.0625 41.71875 63.234375 
Q 38.140625 66.40625 31.78125 66.40625 
Q 25.390625 66.40625 21.84375 63.234375 
Q 18.3125 60.0625 18.3125 54.390625 
z
" id="DejaVuSans-56"/>
     </defs>
     <g transform="translate(221.741002 255.100019)scale(0.1 -0.1)">
      <use xlink:href="#DejaVuSans-49"/>
      <use x="63.623047" xlink:href="#DejaVuSans-46"/>
      <use x="95.410156" xlink:href="#DejaVuSans-56"/>
     </g>
    </g>
   </g>
   <g id="text_49">
    <g clip-path="url(#pf6a840a02a)">
     <!-- 1.9 -->
     <defs>
      <path d="M 10.984375 1.515625 
L 10.984375 10.5 
Q 14.703125 8.734375 18.5 7.8125 
Q 22.3125 6.890625 25.984375 6.890625 
Q 35.75 6.890625 40.890625 13.453125 
Q 46.046875 20.015625 46.78125 33.40625 
Q 43.953125 29.203125 39.59375 26.953125 
Q 35.25 24.703125 29.984375 24.703125 
Q 19.046875 24.703125 12.671875 31.3125 
Q 6.296875 37.9375 6.296875 49.421875 
Q 6.296875 60.640625 12.9375 67.421875 
Q 19.578125 74.21875 30.609375 74.21875 
Q 43.265625 74.21875 49.921875 64.515625 
Q 56.59375 54.828125 56.59375 36.375 
Q 56.59375 19.140625 48.40625 8.859375 
Q 40.234375 -1.421875 26.421875 -1.421875 
Q 22.703125 -1.421875 18.890625 -0.6875 
Q 15.09375 0.046875 10.984375 1.515625 
z
M 30.609375 32.421875 
Q 37.25 32.421875 41.125 36.953125 
Q 45.015625 41.5 45.015625 49.421875 
Q 45.015625 57.28125 41.125 61.84375 
Q 37.25 66.40625 30.609375 66.40625 
Q 23.96875 66.40625 20.09375 61.84375 
Q 16.21875 57.28125 16.21875 49.421875 
Q 16.21875 41.5 20.09375 36.953125 
Q 23.96875 32.421875 30.609375 32.421875 
z
" id="DejaVuSans-57"/>
     </defs>
     <g transform="translate(321.381771 255.100019)scale(0.1 -0.1)">
      <use xlink:href="#DejaVuSans-49"/>
      <use x="63.623047" xlink:href="#DejaVuSans-46"/>
      <use x="95.410156" xlink:href="#DejaVuSans-57"/>
     </g>
    </g>
   </g>
   <g id="text_50">
    <g clip-path="url(#pf6a840a02a)">
     <!-- 1.10 -->
     <defs>
      <path d="M 31.78125 66.40625 
Q 24.171875 66.40625 20.328125 58.90625 
Q 16.5 51.421875 16.5 36.375 
Q 16.5 21.390625 20.328125 13.890625 
Q 24.171875 6.390625 31.78125 6.390625 
Q 39.453125 6.390625 43.28125 13.890625 
Q 47.125 21.390625 47.125 36.375 
Q 47.125 51.421875 43.28125 58.90625 
Q 39.453125 66.40625 31.78125 66.40625 
z
M 31.78125 74.21875 
Q 44.046875 74.21875 50.515625 64.515625 
Q 56.984375 54.828125 56.984375 36.375 
Q 56.984375 17.96875 50.515625 8.265625 
Q 44.046875 -1.421875 31.78125 -1.421875 
Q 19.53125 -1.421875 13.0625 8.265625 
Q 6.59375 17.96875 6.59375 36.375 
Q 6.59375 54.828125 13.0625 64.515625 
Q 19.53125 74.21875 31.78125 74.21875 
z
" id="DejaVuSans-48"/>
     </defs>
     <g transform="translate(492.571866 177.919789)scale(0.1 -0.1)">
      <use xlink:href="#DejaVuSans-49"/>
      <use x="63.623047" xlink:href="#DejaVuSans-46"/>
      <use x="95.410156" xlink:href="#DejaVuSans-49"/>
      <use x="159.033203" xlink:href="#DejaVuSans-48"/>
     </g>
    </g>
   </g>
   <g id="text_51">
    <g clip-path="url(#pf6a840a02a)">
     <!-- 1.12 -->
     <g transform="translate(368.020905 255.100019)scale(0.1 -0.1)">
      <use xlink:href="#DejaVuSans-49"/>
      <use x="63.623047" xlink:href="#DejaVuSans-46"/>
      <use x="95.410156" xlink:href="#DejaVuSans-49"/>
      <use x="159.033203" xlink:href="#DejaVuSans-50"/>
     </g>
    </g>
   </g>
   <g id="text_52">
    <g clip-path="url(#pf6a840a02a)">
     <!-- 1.13 -->
     <defs>
      <path d="M 40.578125 39.3125 
Q 47.65625 37.796875 51.625 33 
Q 55.609375 28.21875 55.609375 21.1875 
Q 55.609375 10.40625 48.1875 4.484375 
Q 40.765625 -1.421875 27.09375 -1.421875 
Q 22.515625 -1.421875 17.65625 -0.515625 
Q 12.796875 0.390625 7.625 2.203125 
L 7.625 11.71875 
Q 11.71875 9.328125 16.59375 8.109375 
Q 21.484375 6.890625 26.8125 6.890625 
Q 36.078125 6.890625 40.9375 10.546875 
Q 45.796875 14.203125 45.796875 21.1875 
Q 45.796875 27.640625 41.28125 31.265625 
Q 36.765625 34.90625 28.71875 34.90625 
L 20.21875 34.90625 
L 20.21875 43.015625 
L 29.109375 43.015625 
Q 36.375 43.015625 40.234375 45.921875 
Q 44.09375 48.828125 44.09375 54.296875 
Q 44.09375 59.90625 40.109375 62.90625 
Q 36.140625 65.921875 28.71875 65.921875 
Q 24.65625 65.921875 20.015625 65.03125 
Q 15.375 64.15625 9.8125 62.3125 
L 9.8125 71.09375 
Q 15.4375 72.65625 20.34375 73.4375 
Q 25.25 74.21875 29.59375 74.21875 
Q 40.828125 74.21875 47.359375 69.109375 
Q 53.90625 64.015625 53.90625 55.328125 
Q 53.90625 49.265625 50.4375 45.09375 
Q 46.96875 40.921875 40.578125 39.3125 
z
" id="DejaVuSans-51"/>
     </defs>
     <g transform="translate(417.84129 255.100019)scale(0.1 -0.1)">
      <use xlink:href="#DejaVuSans-49"/>
      <use x="63.623047" xlink:href="#DejaVuSans-46"/>
      <use x="95.410156" xlink:href="#DejaVuSans-49"/>
      <use x="159.033203" xlink:href="#DejaVuSans-51"/>
     </g>
    </g>
   </g>
   <g id="text_53">
    <g clip-path="url(#pf6a840a02a)">
     <!-- 1.14 -->
     <g transform="translate(467.661674 255.100019)scale(0.1 -0.1)">
      <use xlink:href="#DejaVuSans-49"/>
      <use x="63.623047" xlink:href="#DejaVuSans-46"/>
      <use x="95.410156" xlink:href="#DejaVuSans-49"/>
      <use x="159.033203" xlink:href="#DejaVuSans-52"/>
     </g>
    </g>
   </g>
   <g id="text_54">
    <g clip-path="url(#pf6a840a02a)">
     <!-- 1.15 -->
     <g transform="translate(517.482058 255.100019)scale(0.1 -0.1)">
      <use xlink:href="#DejaVuSans-49"/>
      <use x="63.623047" xlink:href="#DejaVuSans-46"/>
      <use x="95.410156" xlink:href="#DejaVuSans-49"/>
      <use x="159.033203" xlink:href="#DejaVuSans-53"/>
     </g>
    </g>
   </g>
   <g id="text_55">
    <g clip-path="url(#pf6a840a02a)">
     <!-- 1.16 -->
     <g transform="translate(567.302443 255.100019)scale(0.1 -0.1)">
      <use xlink:href="#DejaVuSans-49"/>
      <use x="63.623047" xlink:href="#DejaVuSans-46"/>
      <use x="95.410156" xlink:href="#DejaVuSans-49"/>
      <use x="159.033203" xlink:href="#DejaVuSans-54"/>
     </g>
    </g>
   </g>
   <g id="text_56">
    <g clip-path="url(#pf6a840a02a)">
     <!-- 1.17 -->
     <g transform="translate(268.380136 255.100019)scale(0.1 -0.1)">
      <use xlink:href="#DejaVuSans-49"/>
      <use x="63.623047" xlink:href="#DejaVuSans-46"/>
      <use x="95.410156" xlink:href="#DejaVuSans-49"/>
      <use x="159.033203" xlink:href="#DejaVuSans-55"/>
     </g>
    </g>
   </g>
   <g id="text_57">
    <g clip-path="url(#pf6a840a02a)">
     <!-- 1.18 -->
     <g transform="translate(617.122827 255.100019)scale(0.1 -0.1)">
      <use xlink:href="#DejaVuSans-49"/>
      <use x="63.623047" xlink:href="#DejaVuSans-46"/>
      <use x="95.410156" xlink:href="#DejaVuSans-49"/>
      <use x="159.033203" xlink:href="#DejaVuSans-56"/>
     </g>
    </g>
   </g>
  </g>
 </g>
 <defs>
  <clipPath id="pf6a840a02a">
   <rect height="346.666667" width="658.666667" x="0" y="0"/>
  </clipPath>
 </defs>
</svg>
