<?xml version="1.0" encoding="utf-8" standalone="no"?>
<!DOCTYPE svg PUBLIC "-//W3C//DTD SVG 1.1//EN"
  "http://www.w3.org/Graphics/SVG/1.1/DTD/svg11.dtd">
<!-- Created with matplotlib (https://matplotlib.org/) -->
<svg height="320pt" version="1.1" viewBox="0 0 608 320" width="608pt" xmlns="http://www.w3.org/2000/svg" xmlns:xlink="http://www.w3.org/1999/xlink">
 <defs>
  <style type="text/css">
*{stroke-linecap:butt;stroke-linejoin:round;}
  </style>
 </defs>
 <g id="figure_1">
  <g id="patch_1">
   <path d="M 0 320 
L 608 320 
L 608 0 
L 0 0 
z
" style="fill:#ffffff;"/>
  </g>
  <g id="axes_1">
   <g id="LineCollection_1">
    <path clip-path="url(#p3083a6b7e2)" d="M 182.793501 15.647574 
L 53.227932 191.230826 
" style="fill:none;stroke:#000000;"/>
    <path clip-path="url(#p3083a6b7e2)" d="M 182.793501 15.647574 
L 366.693017 75.431308 
" style="fill:none;stroke:#000000;"/>
    <path clip-path="url(#p3083a6b7e2)" d="M 182.793501 15.647574 
L 128.459553 247.791626 
" style="fill:none;stroke:#000000;"/>
    <path clip-path="url(#p3083a6b7e2)" d="M 53.227932 191.230826 
L 28.150725 247.791626 
" style="fill:none;stroke:#000000;"/>
    <path clip-path="url(#p3083a6b7e2)" d="M 53.227932 191.230826 
L 78.305139 247.791626 
" style="fill:none;stroke:#000000;"/>
    <path clip-path="url(#p3083a6b7e2)" d="M 366.693017 75.431308 
L 241.306983 133.883203 
" style="fill:none;stroke:#000000;"/>
    <path clip-path="url(#p3083a6b7e2)" d="M 366.693017 75.431308 
L 379.23162 247.791626 
" style="fill:none;stroke:#000000;"/>
    <path clip-path="url(#p3083a6b7e2)" d="M 366.693017 75.431308 
L 379.23162 247.791626 
" style="fill:none;stroke:#000000;"/>
    <path clip-path="url(#p3083a6b7e2)" d="M 366.693017 75.431308 
L 467.001844 191.230826 
" style="fill:none;stroke:#000000;"/>
    <path clip-path="url(#p3083a6b7e2)" d="M 241.306983 133.883203 
L 203.691173 191.230826 
" style="fill:none;stroke:#000000;"/>
    <path clip-path="url(#p3083a6b7e2)" d="M 241.306983 133.883203 
L 278.922793 247.791626 
" style="fill:none;stroke:#000000;"/>
    <path clip-path="url(#p3083a6b7e2)" d="M 379.23162 247.791626 
L 329.077207 304.352426 
" style="fill:none;stroke:#000000;"/>
    <path clip-path="url(#p3083a6b7e2)" d="M 379.23162 247.791626 
L 429.386034 304.352426 
" style="fill:none;stroke:#000000;"/>
    <path clip-path="url(#p3083a6b7e2)" d="M 379.23162 247.791626 
L 379.23162 304.352426 
" style="fill:none;stroke:#000000;"/>
    <path clip-path="url(#p3083a6b7e2)" d="M 467.001844 191.230826 
L 479.540447 247.791626 
" style="fill:none;stroke:#000000;"/>
    <path clip-path="url(#p3083a6b7e2)" d="M 467.001844 191.230826 
L 529.694861 247.791626 
" style="fill:none;stroke:#000000;"/>
    <path clip-path="url(#p3083a6b7e2)" d="M 467.001844 191.230826 
L 278.922793 247.791626 
" style="fill:none;stroke:#000000;stroke-dasharray:3.7,1.6;stroke-dashoffset:0;"/>
    <path clip-path="url(#p3083a6b7e2)" d="M 467.001844 191.230826 
L 579.849275 247.791626 
" style="fill:none;stroke:#000000;"/>
    <path clip-path="url(#p3083a6b7e2)" d="M 479.540447 247.791626 
L 479.540447 304.352426 
" style="fill:none;stroke:#000000;"/>
    <path clip-path="url(#p3083a6b7e2)" d="M 529.694861 247.791626 
L 529.694861 304.352426 
" style="fill:none;stroke:#000000;"/>
    <path clip-path="url(#p3083a6b7e2)" d="M 203.691173 191.230826 
L 178.613966 247.791626 
" style="fill:none;stroke:#000000;"/>
    <path clip-path="url(#p3083a6b7e2)" d="M 203.691173 191.230826 
L 228.76838 247.791626 
" style="fill:none;stroke:#000000;"/>
    <path clip-path="url(#p3083a6b7e2)" d="M 278.922793 247.791626 
L 278.922793 304.352426 
" style="fill:none;stroke:#000000;"/>
    <path clip-path="url(#p3083a6b7e2)" d="M 178.613966 247.791626 
L 178.613966 304.352426 
" style="fill:none;stroke:#000000;"/>
    <path clip-path="url(#p3083a6b7e2)" d="M 228.76838 247.791626 
L 228.76838 304.352426 
" style="fill:none;stroke:#000000;"/>
    <path clip-path="url(#p3083a6b7e2)" d="M 28.150725 247.791626 
L 28.150725 304.352426 
" style="fill:none;stroke:#000000;"/>
    <path clip-path="url(#p3083a6b7e2)" d="M 78.305139 247.791626 
L 78.305139 304.352426 
" style="fill:none;stroke:#000000;"/>
    <path clip-path="url(#p3083a6b7e2)" d="M 209.960475 15.647574 
L 53.227932 191.230826 
" style="fill:none;stroke:#000000;"/>
    <path clip-path="url(#p3083a6b7e2)" d="M 209.960475 15.647574 
L 366.693017 75.431308 
" style="fill:none;stroke:#000000;"/>
    <path clip-path="url(#p3083a6b7e2)" d="M 128.459553 247.791626 
L 128.459553 304.352426 
" style="fill:none;stroke:#000000;"/>
    <path clip-path="url(#p3083a6b7e2)" d="M 579.849275 247.791626 
L 579.849275 304.352426 
" style="fill:none;stroke:#000000;"/>
   </g>
   <g id="text_1">
    <g id="patch_2">
     <path clip-path="url(#p3083a6b7e2)" d="M 121.733496 108.956157 
L 124.380175 105.36946 
Q 125.805195 103.438316 123.874052 102.013295 
L 117.644101 97.41612 
Q 115.712957 95.991099 114.287937 97.922243 
L 111.641258 101.50894 
Q 110.216237 103.440084 112.147381 104.865105 
L 118.377332 109.46228 
Q 120.308475 110.887301 121.733496 108.956157 
z
" style="fill:#ffffff;stroke:#ffffff;stroke-linejoin:miter;"/>
    </g>
    <g clip-path="url(#p3083a6b7e2)">
     <!-- L -->
     <defs>
      <path d="M 9.8125 72.90625 
L 19.671875 72.90625 
L 19.671875 8.296875 
L 55.171875 8.296875 
L 55.171875 0 
L 9.8125 0 
z
" id="DejaVuSans-76"/>
     </defs>
     <g transform="translate(118.463627 106.543271)rotate(-53.575816)scale(0.08 -0.08)">
      <use xlink:href="#DejaVuSans-76"/>
     </g>
    </g>
   </g>
   <g id="text_2">
    <g id="patch_3">
     <path clip-path="url(#p3083a6b7e2)" d="M 269.943668 50.573457 
L 275.665176 52.433458 
Q 277.947598 53.175448 278.689589 50.893026 
L 281.083281 43.529838 
Q 281.825272 41.247416 279.54285 40.505425 
L 273.821341 38.645425 
Q 271.538919 37.903434 270.796929 40.185856 
L 268.403236 47.549045 
Q 267.661246 49.831467 269.943668 50.573457 
z
" style="fill:#ffffff;stroke:#ffffff;stroke-linejoin:miter;"/>
    </g>
    <g clip-path="url(#p3083a6b7e2)">
     <!-- H -->
     <defs>
      <path d="M 9.8125 72.90625 
L 19.671875 72.90625 
L 19.671875 43.015625 
L 55.515625 43.015625 
L 55.515625 72.90625 
L 65.375 72.90625 
L 65.375 0 
L 55.515625 0 
L 55.515625 34.71875 
L 19.671875 34.71875 
L 19.671875 0 
L 9.8125 0 
z
" id="DejaVuSans-72"/>
     </defs>
     <g transform="translate(271.200028 46.708794)rotate(-341.991219)scale(0.08 -0.08)">
      <use xlink:href="#DejaVuSans-72"/>
     </g>
    </g>
   </g>
   <g id="text_3">
    <g id="patch_4">
     <path clip-path="url(#p3083a6b7e2)" d="M 161.065596 135.999245 
L 162.399914 130.298314 
Q 162.946859 127.961467 160.610013 127.414522 
L 153.071249 125.650054 
Q 150.734403 125.103109 150.187458 127.439955 
L 148.853139 133.140886 
Q 148.306194 135.477733 150.64304 136.024678 
L 158.181804 137.789146 
Q 160.51865 138.336091 161.065596 135.999245 
z
" style="fill:#ffffff;stroke:#ffffff;stroke-linejoin:miter;"/>
    </g>
    <g clip-path="url(#p3083a6b7e2)">
     <!-- U -->
     <defs>
      <path d="M 8.6875 72.90625 
L 18.609375 72.90625 
L 18.609375 28.609375 
Q 18.609375 16.890625 22.84375 11.734375 
Q 27.09375 6.59375 36.625 6.59375 
Q 46.09375 6.59375 50.34375 11.734375 
Q 54.59375 16.890625 54.59375 28.609375 
L 54.59375 72.90625 
L 64.5 72.90625 
L 64.5 27.390625 
Q 64.5 13.140625 57.4375 5.859375 
Q 50.390625 -1.421875 36.625 -1.421875 
Q 22.796875 -1.421875 15.734375 5.859375 
Q 8.6875 13.140625 8.6875 27.390625 
z
" id="DejaVuSans-85"/>
     </defs>
     <g transform="translate(157.108779 135.073141)rotate(-76.826894)scale(0.08 -0.08)">
      <use xlink:href="#DejaVuSans-85"/>
     </g>
    </g>
   </g>
   <g id="text_4">
    <g id="patch_5">
     <path clip-path="url(#p3083a6b7e2)" d="M 45.295834 224.593904 
L 47.548884 219.512224 
Q 48.521643 217.3182 46.327619 216.345442 
L 39.249606 213.207283 
Q 37.055582 212.234524 36.082824 214.428548 
L 33.829773 219.510228 
Q 32.857015 221.704252 35.051039 222.67701 
L 42.129052 225.815169 
Q 44.323076 226.787928 45.295834 224.593904 
z
" style="fill:#ffffff;stroke:#ffffff;stroke-linejoin:miter;"/>
    </g>
    <g clip-path="url(#p3083a6b7e2)">
     <!-- R -->
     <defs>
      <path d="M 44.390625 34.1875 
Q 47.5625 33.109375 50.5625 29.59375 
Q 53.5625 26.078125 56.59375 19.921875 
L 66.609375 0 
L 56 0 
L 46.6875 18.703125 
Q 43.0625 26.03125 39.671875 28.421875 
Q 36.28125 30.8125 30.421875 30.8125 
L 19.671875 30.8125 
L 19.671875 0 
L 9.8125 0 
L 9.8125 72.90625 
L 32.078125 72.90625 
Q 44.578125 72.90625 50.734375 67.671875 
Q 56.890625 62.453125 56.890625 51.90625 
Q 56.890625 45.015625 53.6875 40.46875 
Q 50.484375 35.9375 44.390625 34.1875 
z
M 19.671875 64.796875 
L 19.671875 38.921875 
L 32.078125 38.921875 
Q 39.203125 38.921875 42.84375 42.21875 
Q 46.484375 45.515625 46.484375 51.90625 
Q 46.484375 58.296875 42.84375 61.546875 
Q 39.203125 64.796875 32.078125 64.796875 
z
" id="DejaVuSans-82"/>
     </defs>
     <g transform="translate(41.580849 222.946801)rotate(-66.08907)scale(0.08 -0.08)">
      <use xlink:href="#DejaVuSans-82"/>
     </g>
    </g>
   </g>
   <g id="text_5">
    <g id="patch_6">
     <path clip-path="url(#p3083a6b7e2)" d="M 58.901407 219.499654 
L 61.165604 224.606474 
Q 62.138362 226.800498 64.332386 225.827739 
L 71.410399 222.68958 
Q 73.604423 221.716822 72.631664 219.522798 
L 70.367468 214.415978 
Q 69.394709 212.221954 67.200685 213.194713 
L 60.122673 216.332872 
Q 57.928649 217.30563 58.901407 219.499654 
z
" style="fill:#ffffff;stroke:#ffffff;stroke-linejoin:miter;"/>
    </g>
    <g clip-path="url(#p3083a6b7e2)">
     <!-- C -->
     <defs>
      <path d="M 64.40625 67.28125 
L 64.40625 56.890625 
Q 59.421875 61.53125 53.78125 63.8125 
Q 48.140625 66.109375 41.796875 66.109375 
Q 29.296875 66.109375 22.65625 58.46875 
Q 16.015625 50.828125 16.015625 36.375 
Q 16.015625 21.96875 22.65625 14.328125 
Q 29.296875 6.6875 41.796875 6.6875 
Q 48.140625 6.6875 53.78125 8.984375 
Q 59.421875 11.28125 64.40625 15.921875 
L 64.40625 5.609375 
Q 59.234375 2.09375 53.4375 0.328125 
Q 47.65625 -1.421875 41.21875 -1.421875 
Q 24.65625 -1.421875 15.125 8.703125 
Q 5.609375 18.84375 5.609375 36.375 
Q 5.609375 53.953125 15.125 64.078125 
Q 24.65625 74.21875 41.21875 74.21875 
Q 47.75 74.21875 53.53125 72.484375 
Q 59.328125 70.75 64.40625 67.28125 
z
" id="DejaVuSans-67"/>
     </defs>
     <g transform="translate(62.616392 217.852551)rotate(-293.91093)scale(0.08 -0.08)">
      <use xlink:href="#DejaVuSans-67"/>
     </g>
    </g>
   </g>
   <g id="text_6">
    <g id="patch_7">
     <path clip-path="url(#p3083a6b7e2)" d="M 304.169717 111.497346 
L 309.129738 109.185106 
Q 311.304987 108.171059 310.290939 105.99581 
L 307.019579 98.978367 
Q 306.005531 96.803118 303.830283 97.817165 
L 298.870262 100.129405 
Q 296.695013 101.143453 297.709061 103.318702 
L 300.980421 110.336145 
Q 301.994469 112.511394 304.169717 111.497346 
z
" style="fill:#ffffff;stroke:#ffffff;stroke-linejoin:miter;"/>
    </g>
    <g clip-path="url(#p3083a6b7e2)">
     <!-- A -->
     <defs>
      <path d="M 34.1875 63.1875 
L 20.796875 26.90625 
L 47.609375 26.90625 
z
M 28.609375 72.90625 
L 39.796875 72.90625 
L 67.578125 0 
L 57.328125 0 
L 50.6875 18.703125 
L 17.828125 18.703125 
L 11.1875 0 
L 0.78125 0 
z
" id="DejaVuSans-65"/>
     </defs>
     <g transform="translate(302.452702 107.814151)rotate(-24.993779)scale(0.08 -0.08)">
      <use xlink:href="#DejaVuSans-65"/>
     </g>
    </g>
   </g>
   <g id="text_7">
    <g id="patch_8">
     <path clip-path="url(#p3083a6b7e2)" d="M 366.484128 158.994594 
L 366.931066 165.138359 
Q 367.105197 167.532033 369.498872 167.357902 
L 377.220966 166.796147 
Q 379.61464 166.622015 379.440509 164.228341 
L 378.993572 158.084576 
Q 378.81944 155.690901 376.425766 155.865033 
L 368.703672 156.426788 
Q 366.309997 156.600919 366.484128 158.994594 
z
" style="fill:#ffffff;stroke:#ffffff;stroke-linejoin:miter;"/>
    </g>
    <g clip-path="url(#p3083a6b7e2)">
     <!-- D -->
     <defs>
      <path d="M 19.671875 64.796875 
L 19.671875 8.109375 
L 31.59375 8.109375 
Q 46.6875 8.109375 53.6875 14.9375 
Q 60.6875 21.78125 60.6875 36.53125 
Q 60.6875 51.171875 53.6875 57.984375 
Q 46.6875 64.796875 31.59375 64.796875 
z
M 9.8125 72.90625 
L 30.078125 72.90625 
Q 51.265625 72.90625 61.171875 64.09375 
Q 71.09375 55.28125 71.09375 36.53125 
Q 71.09375 17.671875 61.125 8.828125 
Q 51.171875 0 30.078125 0 
L 9.8125 0 
z
" id="DejaVuSans-68"/>
     </defs>
     <g transform="translate(370.537168 158.699749)rotate(-274.160736)scale(0.08 -0.08)">
      <use xlink:href="#DejaVuSans-68"/>
     </g>
    </g>
   </g>
   <g id="text_8">
    <g id="patch_9">
     <path clip-path="url(#p3083a6b7e2)" d="M 366.532604 159.660958 
L 366.88259 164.471994 
Q 367.056721 166.865669 369.450396 166.691538 
L 377.17249 166.129783 
Q 379.566165 165.955651 379.392033 163.561977 
L 379.042047 158.75094 
Q 378.867916 156.357265 376.474241 156.531397 
L 368.752147 157.093152 
Q 366.358473 157.267283 366.532604 159.660958 
z
" style="fill:#ffffff;stroke:#ffffff;stroke-linejoin:miter;"/>
    </g>
    <g clip-path="url(#p3083a6b7e2)">
     <!-- P -->
     <defs>
      <path d="M 19.671875 64.796875 
L 19.671875 37.40625 
L 32.078125 37.40625 
Q 38.96875 37.40625 42.71875 40.96875 
Q 46.484375 44.53125 46.484375 51.125 
Q 46.484375 57.671875 42.71875 61.234375 
Q 38.96875 64.796875 32.078125 64.796875 
z
M 9.8125 72.90625 
L 32.078125 72.90625 
Q 44.34375 72.90625 50.609375 67.359375 
Q 56.890625 61.8125 56.890625 51.125 
Q 56.890625 40.328125 50.609375 34.8125 
Q 44.34375 29.296875 32.078125 29.296875 
L 19.671875 29.296875 
L 19.671875 0 
L 9.8125 0 
z
" id="DejaVuSans-80"/>
     </defs>
     <g transform="translate(370.585644 159.366113)rotate(-274.160736)scale(0.08 -0.08)">
      <use xlink:href="#DejaVuSans-80"/>
     </g>
    </g>
   </g>
   <g id="text_9">
    <g id="patch_10">
     <path clip-path="url(#p3083a6b7e2)" d="M 410.315751 135.368911 
L 413.898823 139.505317 
Q 415.470202 141.319364 417.28425 139.747985 
L 423.136442 134.67865 
Q 424.950489 133.107271 423.37911 131.293223 
L 419.796038 127.156818 
Q 418.224659 125.342771 416.410611 126.91415 
L 410.558419 131.983485 
Q 408.744372 133.554864 410.315751 135.368911 
z
" style="fill:#ffffff;stroke:#ffffff;stroke-linejoin:miter;"/>
    </g>
    <g clip-path="url(#p3083a6b7e2)">
     <!-- A -->
     <g transform="translate(413.387349 132.708206)rotate(-310.900039)scale(0.08 -0.08)">
      <use xlink:href="#DejaVuSans-65"/>
     </g>
    </g>
   </g>
   <g id="text_10">
    <g id="patch_11">
     <path clip-path="url(#p3083a6b7e2)" d="M 226.356671 168.110014 
L 229.129173 163.883165 
Q 230.445494 161.876352 228.438681 160.56003 
L 221.964619 156.313523 
Q 219.957806 154.997202 218.641485 157.004015 
L 215.868983 161.230865 
Q 214.552662 163.237678 216.559475 164.553999 
L 223.033537 168.800506 
Q 225.04035 170.116827 226.356671 168.110014 
z
" style="fill:#ffffff;stroke:#ffffff;stroke-linejoin:miter;"/>
    </g>
    <g clip-path="url(#p3083a6b7e2)">
     <!-- E -->
     <defs>
      <path d="M 9.8125 72.90625 
L 55.90625 72.90625 
L 55.90625 64.59375 
L 19.671875 64.59375 
L 19.671875 43.015625 
L 54.390625 43.015625 
L 54.390625 34.71875 
L 19.671875 34.71875 
L 19.671875 8.296875 
L 56.78125 8.296875 
L 56.78125 0 
L 9.8125 0 
z
" id="DejaVuSans-69"/>
     </defs>
     <g transform="translate(222.958677 165.881181)rotate(-56.73808)scale(0.08 -0.08)">
      <use xlink:href="#DejaVuSans-69"/>
     </g>
    </g>
   </g>
   <g id="text_11">
    <g id="patch_12">
     <path clip-path="url(#p3083a6b7e2)" d="M 253.284086 190.151659 
L 255.035784 195.456161 
Q 255.788359 197.735115 258.067313 196.982539 
L 265.419312 194.554699 
Q 267.698266 193.802124 266.945691 191.52317 
L 265.193993 186.218668 
Q 264.441417 183.939714 262.162463 184.69229 
L 254.810464 187.12013 
Q 252.53151 187.872705 253.284086 190.151659 
z
" style="fill:#ffffff;stroke:#ffffff;stroke-linejoin:miter;"/>
    </g>
    <g clip-path="url(#p3083a6b7e2)">
     <!-- C -->
     <g transform="translate(257.142877 188.877376)rotate(-288.274697)scale(0.08 -0.08)">
      <use xlink:href="#DejaVuSans-67"/>
     </g>
    </g>
   </g>
   <g id="text_12">
    <g id="patch_13">
     <path clip-path="url(#p3083a6b7e2)" d="M 347.141476 293.433048 
L 370.551765 267.032487 
Q 372.144076 265.236785 370.348374 263.644474 
L 364.555364 258.507613 
Q 362.759662 256.915302 361.167351 258.711004 
L 337.757062 285.111565 
Q 336.164751 286.907267 337.960454 288.499578 
L 343.753463 293.636439 
Q 345.549165 295.22875 347.141476 293.433048 
z
" style="fill:#ffffff;stroke:#ffffff;stroke-linejoin:miter;"/>
    </g>
    <g clip-path="url(#p3083a6b7e2)">
     <!-- Terminal -->
     <defs>
      <path d="M -0.296875 72.90625 
L 61.375 72.90625 
L 61.375 64.59375 
L 35.5 64.59375 
L 35.5 0 
L 25.59375 0 
L 25.59375 64.59375 
L -0.296875 64.59375 
z
" id="DejaVuSans-84"/>
      <path d="M 56.203125 29.59375 
L 56.203125 25.203125 
L 14.890625 25.203125 
Q 15.484375 15.921875 20.484375 11.0625 
Q 25.484375 6.203125 34.421875 6.203125 
Q 39.59375 6.203125 44.453125 7.46875 
Q 49.3125 8.734375 54.109375 11.28125 
L 54.109375 2.78125 
Q 49.265625 0.734375 44.1875 -0.34375 
Q 39.109375 -1.421875 33.890625 -1.421875 
Q 20.796875 -1.421875 13.15625 6.1875 
Q 5.515625 13.8125 5.515625 26.8125 
Q 5.515625 40.234375 12.765625 48.109375 
Q 20.015625 56 32.328125 56 
Q 43.359375 56 49.78125 48.890625 
Q 56.203125 41.796875 56.203125 29.59375 
z
M 47.21875 32.234375 
Q 47.125 39.59375 43.09375 43.984375 
Q 39.0625 48.390625 32.421875 48.390625 
Q 24.90625 48.390625 20.390625 44.140625 
Q 15.875 39.890625 15.1875 32.171875 
z
" id="DejaVuSans-101"/>
      <path d="M 41.109375 46.296875 
Q 39.59375 47.171875 37.8125 47.578125 
Q 36.03125 48 33.890625 48 
Q 26.265625 48 22.1875 43.046875 
Q 18.109375 38.09375 18.109375 28.8125 
L 18.109375 0 
L 9.078125 0 
L 9.078125 54.6875 
L 18.109375 54.6875 
L 18.109375 46.1875 
Q 20.953125 51.171875 25.484375 53.578125 
Q 30.03125 56 36.53125 56 
Q 37.453125 56 38.578125 55.875 
Q 39.703125 55.765625 41.0625 55.515625 
z
" id="DejaVuSans-114"/>
      <path d="M 52 44.1875 
Q 55.375 50.25 60.0625 53.125 
Q 64.75 56 71.09375 56 
Q 79.640625 56 84.28125 50.015625 
Q 88.921875 44.046875 88.921875 33.015625 
L 88.921875 0 
L 79.890625 0 
L 79.890625 32.71875 
Q 79.890625 40.578125 77.09375 44.375 
Q 74.3125 48.1875 68.609375 48.1875 
Q 61.625 48.1875 57.5625 43.546875 
Q 53.515625 38.921875 53.515625 30.90625 
L 53.515625 0 
L 44.484375 0 
L 44.484375 32.71875 
Q 44.484375 40.625 41.703125 44.40625 
Q 38.921875 48.1875 33.109375 48.1875 
Q 26.21875 48.1875 22.15625 43.53125 
Q 18.109375 38.875 18.109375 30.90625 
L 18.109375 0 
L 9.078125 0 
L 9.078125 54.6875 
L 18.109375 54.6875 
L 18.109375 46.1875 
Q 21.1875 51.21875 25.484375 53.609375 
Q 29.78125 56 35.6875 56 
Q 41.65625 56 45.828125 52.96875 
Q 50 49.953125 52 44.1875 
z
" id="DejaVuSans-109"/>
      <path d="M 9.421875 54.6875 
L 18.40625 54.6875 
L 18.40625 0 
L 9.421875 0 
z
M 9.421875 75.984375 
L 18.40625 75.984375 
L 18.40625 64.59375 
L 9.421875 64.59375 
z
" id="DejaVuSans-105"/>
      <path d="M 54.890625 33.015625 
L 54.890625 0 
L 45.90625 0 
L 45.90625 32.71875 
Q 45.90625 40.484375 42.875 44.328125 
Q 39.84375 48.1875 33.796875 48.1875 
Q 26.515625 48.1875 22.3125 43.546875 
Q 18.109375 38.921875 18.109375 30.90625 
L 18.109375 0 
L 9.078125 0 
L 9.078125 54.6875 
L 18.109375 54.6875 
L 18.109375 46.1875 
Q 21.34375 51.125 25.703125 53.5625 
Q 30.078125 56 35.796875 56 
Q 45.21875 56 50.046875 50.171875 
Q 54.890625 44.34375 54.890625 33.015625 
z
" id="DejaVuSans-110"/>
      <path d="M 34.28125 27.484375 
Q 23.390625 27.484375 19.1875 25 
Q 14.984375 22.515625 14.984375 16.5 
Q 14.984375 11.71875 18.140625 8.90625 
Q 21.296875 6.109375 26.703125 6.109375 
Q 34.1875 6.109375 38.703125 11.40625 
Q 43.21875 16.703125 43.21875 25.484375 
L 43.21875 27.484375 
z
M 52.203125 31.203125 
L 52.203125 0 
L 43.21875 0 
L 43.21875 8.296875 
Q 40.140625 3.328125 35.546875 0.953125 
Q 30.953125 -1.421875 24.3125 -1.421875 
Q 15.921875 -1.421875 10.953125 3.296875 
Q 6 8.015625 6 15.921875 
Q 6 25.140625 12.171875 29.828125 
Q 18.359375 34.515625 30.609375 34.515625 
L 43.21875 34.515625 
L 43.21875 35.40625 
Q 43.21875 41.609375 39.140625 45 
Q 35.0625 48.390625 27.6875 48.390625 
Q 23 48.390625 18.546875 47.265625 
Q 14.109375 46.140625 10.015625 43.890625 
L 10.015625 52.203125 
Q 14.9375 54.109375 19.578125 55.046875 
Q 24.21875 56 28.609375 56 
Q 40.484375 56 46.34375 49.84375 
Q 52.203125 43.703125 52.203125 31.203125 
z
" id="DejaVuSans-97"/>
      <path d="M 9.421875 75.984375 
L 18.40625 75.984375 
L 18.40625 0 
L 9.421875 0 
z
" id="DejaVuSans-108"/>
     </defs>
     <g transform="translate(344.100941 290.736901)rotate(-48.435489)scale(0.08 -0.08)">
      <use xlink:href="#DejaVuSans-84"/>
      <use x="60.818359" xlink:href="#DejaVuSans-101"/>
      <use x="122.341797" xlink:href="#DejaVuSans-114"/>
      <use x="163.439453" xlink:href="#DejaVuSans-109"/>
      <use x="260.851562" xlink:href="#DejaVuSans-105"/>
      <use x="288.634766" xlink:href="#DejaVuSans-110"/>
      <use x="352.013672" xlink:href="#DejaVuSans-97"/>
      <use x="413.292969" xlink:href="#DejaVuSans-108"/>
     </g>
    </g>
   </g>
   <g id="text_13">
    <g id="patch_14">
     <path clip-path="url(#p3083a6b7e2)" d="M 387.911476 267.032487 
L 411.321765 293.433048 
Q 412.914076 295.22875 414.709778 293.636439 
L 420.502787 288.499578 
Q 422.298489 286.907267 420.706178 285.111565 
L 397.29589 258.711004 
Q 395.703579 256.915302 393.907877 258.507613 
L 388.114867 263.644474 
Q 386.319165 265.236785 387.911476 267.032487 
z
" style="fill:#ffffff;stroke:#ffffff;stroke-linejoin:miter;"/>
    </g>
    <g clip-path="url(#p3083a6b7e2)">
     <!-- Terminal -->
     <g transform="translate(390.952011 264.33634)rotate(-311.564511)scale(0.08 -0.08)">
      <use xlink:href="#DejaVuSans-84"/>
      <use x="60.818359" xlink:href="#DejaVuSans-101"/>
      <use x="122.341797" xlink:href="#DejaVuSans-114"/>
      <use x="163.439453" xlink:href="#DejaVuSans-109"/>
      <use x="260.851562" xlink:href="#DejaVuSans-105"/>
      <use x="288.634766" xlink:href="#DejaVuSans-110"/>
      <use x="352.013672" xlink:href="#DejaVuSans-97"/>
      <use x="413.292969" xlink:href="#DejaVuSans-108"/>
     </g>
    </g>
   </g>
   <g id="text_14">
    <g id="patch_15">
     <path clip-path="url(#p3083a6b7e2)" d="M 372.96037 258.429526 
L 372.96037 293.714526 
Q 372.96037 296.114526 375.36037 296.114526 
L 383.10287 296.114526 
Q 385.50287 296.114526 385.50287 293.714526 
L 385.50287 258.429526 
Q 385.50287 256.029526 383.10287 256.029526 
L 375.36037 256.029526 
Q 372.96037 256.029526 372.96037 258.429526 
z
" style="fill:#ffffff;stroke:#ffffff;stroke-linejoin:miter;"/>
    </g>
    <g clip-path="url(#p3083a6b7e2)">
     <!-- Terminal -->
     <g transform="translate(377.02412 258.429526)rotate(-270)scale(0.08 -0.08)">
      <use xlink:href="#DejaVuSans-84"/>
      <use x="60.818359" xlink:href="#DejaVuSans-101"/>
      <use x="122.341797" xlink:href="#DejaVuSans-114"/>
      <use x="163.439453" xlink:href="#DejaVuSans-109"/>
      <use x="260.851562" xlink:href="#DejaVuSans-105"/>
      <use x="288.634766" xlink:href="#DejaVuSans-110"/>
      <use x="352.013672" xlink:href="#DejaVuSans-97"/>
      <use x="413.292969" xlink:href="#DejaVuSans-108"/>
     </g>
    </g>
   </g>
   <g id="text_15">
    <g id="patch_16">
     <path clip-path="url(#p3083a6b7e2)" d="M 466.650612 218.622412 
L 467.646458 223.114605 
Q 468.165888 225.457721 470.509004 224.93829 
L 478.067994 223.262586 
Q 480.41111 222.743156 479.891679 220.40004 
L 478.895834 215.907847 
Q 478.376403 213.564731 476.033287 214.084162 
L 468.474298 215.759866 
Q 466.131182 216.279296 466.650612 218.622412 
z
" style="fill:#ffffff;stroke:#ffffff;stroke-linejoin:miter;"/>
    </g>
    <g clip-path="url(#p3083a6b7e2)">
     <!-- F -->
     <defs>
      <path d="M 9.8125 72.90625 
L 51.703125 72.90625 
L 51.703125 64.59375 
L 19.671875 64.59375 
L 19.671875 43.109375 
L 48.578125 43.109375 
L 48.578125 34.8125 
L 19.671875 34.8125 
L 19.671875 0 
L 9.8125 0 
z
" id="DejaVuSans-70"/>
     </defs>
     <g transform="translate(470.618045 217.742898)rotate(-282.499397)scale(0.08 -0.08)">
      <use xlink:href="#DejaVuSans-70"/>
     </g>
    </g>
   </g>
   <g id="text_16">
    <g id="patch_17">
     <path clip-path="url(#p3083a6b7e2)" d="M 492.356701 222.551922 
L 495.93827 225.783165 
Q 497.720237 227.390832 499.327904 225.608865 
L 504.514304 219.860164 
Q 506.121971 218.078197 504.340004 216.47053 
L 500.758435 213.239287 
Q 498.976468 211.63162 497.368801 213.413587 
L 492.182401 219.162288 
Q 490.574734 220.944255 492.356701 222.551922 
z
" style="fill:#ffffff;stroke:#ffffff;stroke-linejoin:miter;"/>
    </g>
    <g clip-path="url(#p3083a6b7e2)">
     <!-- P -->
     <g transform="translate(495.07885 219.534643)rotate(-317.943646)scale(0.08 -0.08)">
      <use xlink:href="#DejaVuSans-80"/>
     </g>
    </g>
   </g>
   <g id="text_17">
    <g id="patch_18">
     <path clip-path="url(#p3083a6b7e2)" d="M 372.148039 226.304796 
L 377.38869 224.72878 
Q 379.687012 224.037609 378.99584 221.739287 
L 376.766092 214.324806 
Q 376.07492 212.026485 373.776599 212.717656 
L 368.535947 214.293672 
Q 366.237625 214.984843 366.928797 217.283165 
L 369.158545 224.697646 
Q 369.849717 226.995967 372.148039 226.304796 
z
" style="fill:#ffffff;stroke:#ffffff;stroke-linejoin:miter;"/>
    </g>
    <g clip-path="url(#p3083a6b7e2)">
     <!-- A -->
     <g transform="translate(370.977727 222.413211)rotate(-16.737549)scale(0.08 -0.08)">
      <use xlink:href="#DejaVuSans-65"/>
     </g>
    </g>
   </g>
   <g id="text_18">
    <g id="patch_19">
     <path clip-path="url(#p3083a6b7e2)" d="M 517.998361 223.805915 
L 523.232687 226.429436 
Q 525.378268 227.504833 526.453665 225.359252 
L 529.922942 218.437516 
Q 530.998339 216.291934 528.852757 215.216537 
L 523.618432 212.593016 
Q 521.47285 211.517619 520.397453 213.6632 
L 516.928177 220.584936 
Q 515.85278 222.730518 517.998361 223.805915 
z
" style="fill:#ffffff;stroke:#ffffff;stroke-linejoin:miter;"/>
    </g>
    <g clip-path="url(#p3083a6b7e2)">
     <!-- U -->
     <g transform="translate(519.819255 220.172954)rotate(-333.379295)scale(0.08 -0.08)">
      <use xlink:href="#DejaVuSans-85"/>
     </g>
    </g>
   </g>
   <g id="text_19">
    <g id="patch_20">
     <path clip-path="url(#p3083a6b7e2)" d="M 473.269197 258.429526 
L 473.269197 293.714526 
Q 473.269197 296.114526 475.669197 296.114526 
L 483.411697 296.114526 
Q 485.811697 296.114526 485.811697 293.714526 
L 485.811697 258.429526 
Q 485.811697 256.029526 483.411697 256.029526 
L 475.669197 256.029526 
Q 473.269197 256.029526 473.269197 258.429526 
z
" style="fill:#ffffff;stroke:#ffffff;stroke-linejoin:miter;"/>
    </g>
    <g clip-path="url(#p3083a6b7e2)">
     <!-- Terminal -->
     <g transform="translate(477.332947 258.429526)rotate(-270)scale(0.08 -0.08)">
      <use xlink:href="#DejaVuSans-84"/>
      <use x="60.818359" xlink:href="#DejaVuSans-101"/>
      <use x="122.341797" xlink:href="#DejaVuSans-114"/>
      <use x="163.439453" xlink:href="#DejaVuSans-109"/>
      <use x="260.851562" xlink:href="#DejaVuSans-105"/>
      <use x="288.634766" xlink:href="#DejaVuSans-110"/>
      <use x="352.013672" xlink:href="#DejaVuSans-97"/>
      <use x="413.292969" xlink:href="#DejaVuSans-108"/>
     </g>
    </g>
   </g>
   <g id="text_20">
    <g id="patch_21">
     <path clip-path="url(#p3083a6b7e2)" d="M 523.423611 258.429526 
L 523.423611 293.714526 
Q 523.423611 296.114526 525.823611 296.114526 
L 533.566111 296.114526 
Q 535.966111 296.114526 535.966111 293.714526 
L 535.966111 258.429526 
Q 535.966111 256.029526 533.566111 256.029526 
L 525.823611 256.029526 
Q 523.423611 256.029526 523.423611 258.429526 
z
" style="fill:#ffffff;stroke:#ffffff;stroke-linejoin:miter;"/>
    </g>
    <g clip-path="url(#p3083a6b7e2)">
     <!-- Terminal -->
     <g transform="translate(527.487361 258.429526)rotate(-270)scale(0.08 -0.08)">
      <use xlink:href="#DejaVuSans-84"/>
      <use x="60.818359" xlink:href="#DejaVuSans-101"/>
      <use x="122.341797" xlink:href="#DejaVuSans-114"/>
      <use x="163.439453" xlink:href="#DejaVuSans-109"/>
      <use x="260.851562" xlink:href="#DejaVuSans-105"/>
      <use x="288.634766" xlink:href="#DejaVuSans-110"/>
      <use x="352.013672" xlink:href="#DejaVuSans-97"/>
      <use x="413.292969" xlink:href="#DejaVuSans-108"/>
     </g>
    </g>
   </g>
   <g id="text_21">
    <g id="patch_22">
     <path clip-path="url(#p3083a6b7e2)" d="M 195.861164 224.363645 
L 197.910036 219.742482 
Q 198.882794 217.548458 196.68877 216.5757 
L 189.610758 213.437541 
Q 187.416734 212.464783 186.443975 214.658807 
L 184.395103 219.27997 
Q 183.422345 221.473994 185.616369 222.446752 
L 192.694381 225.584911 
Q 194.888405 226.557669 195.861164 224.363645 
z
" style="fill:#ffffff;stroke:#ffffff;stroke-linejoin:miter;"/>
    </g>
    <g clip-path="url(#p3083a6b7e2)">
     <!-- E -->
     <g transform="translate(192.146178 222.716543)rotate(-66.08907)scale(0.08 -0.08)">
      <use xlink:href="#DejaVuSans-69"/>
     </g>
    </g>
   </g>
   <g id="text_22">
    <g id="patch_23">
     <path clip-path="url(#p3083a6b7e2)" d="M 209.364648 219.499654 
L 211.628844 224.606474 
Q 212.601603 226.800498 214.795627 225.827739 
L 221.873639 222.68958 
Q 224.067663 221.716822 223.094905 219.522798 
L 220.830708 214.415978 
Q 219.85795 212.221954 217.663926 213.194713 
L 210.585913 216.332872 
Q 208.391889 217.30563 209.364648 219.499654 
z
" style="fill:#ffffff;stroke:#ffffff;stroke-linejoin:miter;"/>
    </g>
    <g clip-path="url(#p3083a6b7e2)">
     <!-- C -->
     <g transform="translate(213.079633 217.852551)rotate(-293.91093)scale(0.08 -0.08)">
      <use xlink:href="#DejaVuSans-67"/>
     </g>
    </g>
   </g>
   <g id="text_23">
    <g id="patch_24">
     <path clip-path="url(#p3083a6b7e2)" d="M 272.651543 258.429526 
L 272.651543 293.714526 
Q 272.651543 296.114526 275.051543 296.114526 
L 282.794043 296.114526 
Q 285.194043 296.114526 285.194043 293.714526 
L 285.194043 258.429526 
Q 285.194043 256.029526 282.794043 256.029526 
L 275.051543 256.029526 
Q 272.651543 256.029526 272.651543 258.429526 
z
" style="fill:#ffffff;stroke:#ffffff;stroke-linejoin:miter;"/>
    </g>
    <g clip-path="url(#p3083a6b7e2)">
     <!-- Terminal -->
     <g transform="translate(276.715293 258.429526)rotate(-270)scale(0.08 -0.08)">
      <use xlink:href="#DejaVuSans-84"/>
      <use x="60.818359" xlink:href="#DejaVuSans-101"/>
      <use x="122.341797" xlink:href="#DejaVuSans-114"/>
      <use x="163.439453" xlink:href="#DejaVuSans-109"/>
      <use x="260.851562" xlink:href="#DejaVuSans-105"/>
      <use x="288.634766" xlink:href="#DejaVuSans-110"/>
      <use x="352.013672" xlink:href="#DejaVuSans-97"/>
      <use x="413.292969" xlink:href="#DejaVuSans-108"/>
     </g>
    </g>
   </g>
   <g id="text_24">
    <g id="patch_25">
     <path clip-path="url(#p3083a6b7e2)" d="M 172.342716 258.429526 
L 172.342716 293.714526 
Q 172.342716 296.114526 174.742716 296.114526 
L 182.485216 296.114526 
Q 184.885216 296.114526 184.885216 293.714526 
L 184.885216 258.429526 
Q 184.885216 256.029526 182.485216 256.029526 
L 174.742716 256.029526 
Q 172.342716 256.029526 172.342716 258.429526 
z
" style="fill:#ffffff;stroke:#ffffff;stroke-linejoin:miter;"/>
    </g>
    <g clip-path="url(#p3083a6b7e2)">
     <!-- Terminal -->
     <g transform="translate(176.406466 258.429526)rotate(-270)scale(0.08 -0.08)">
      <use xlink:href="#DejaVuSans-84"/>
      <use x="60.818359" xlink:href="#DejaVuSans-101"/>
      <use x="122.341797" xlink:href="#DejaVuSans-114"/>
      <use x="163.439453" xlink:href="#DejaVuSans-109"/>
      <use x="260.851562" xlink:href="#DejaVuSans-105"/>
      <use x="288.634766" xlink:href="#DejaVuSans-110"/>
      <use x="352.013672" xlink:href="#DejaVuSans-97"/>
      <use x="413.292969" xlink:href="#DejaVuSans-108"/>
     </g>
    </g>
   </g>
   <g id="text_25">
    <g id="patch_26">
     <path clip-path="url(#p3083a6b7e2)" d="M 222.49713 258.429526 
L 222.49713 293.714526 
Q 222.49713 296.114526 224.89713 296.114526 
L 232.63963 296.114526 
Q 235.03963 296.114526 235.03963 293.714526 
L 235.03963 258.429526 
Q 235.03963 256.029526 232.63963 256.029526 
L 224.89713 256.029526 
Q 222.49713 256.029526 222.49713 258.429526 
z
" style="fill:#ffffff;stroke:#ffffff;stroke-linejoin:miter;"/>
    </g>
    <g clip-path="url(#p3083a6b7e2)">
     <!-- Terminal -->
     <g transform="translate(226.56088 258.429526)rotate(-270)scale(0.08 -0.08)">
      <use xlink:href="#DejaVuSans-84"/>
      <use x="60.818359" xlink:href="#DejaVuSans-101"/>
      <use x="122.341797" xlink:href="#DejaVuSans-114"/>
      <use x="163.439453" xlink:href="#DejaVuSans-109"/>
      <use x="260.851562" xlink:href="#DejaVuSans-105"/>
      <use x="288.634766" xlink:href="#DejaVuSans-110"/>
      <use x="352.013672" xlink:href="#DejaVuSans-97"/>
      <use x="413.292969" xlink:href="#DejaVuSans-108"/>
     </g>
    </g>
   </g>
   <g id="text_26">
    <g id="patch_27">
     <path clip-path="url(#p3083a6b7e2)" d="M 21.879475 258.429526 
L 21.879475 293.714526 
Q 21.879475 296.114526 24.279475 296.114526 
L 32.021975 296.114526 
Q 34.421975 296.114526 34.421975 293.714526 
L 34.421975 258.429526 
Q 34.421975 256.029526 32.021975 256.029526 
L 24.279475 256.029526 
Q 21.879475 256.029526 21.879475 258.429526 
z
" style="fill:#ffffff;stroke:#ffffff;stroke-linejoin:miter;"/>
    </g>
    <g clip-path="url(#p3083a6b7e2)">
     <!-- Terminal -->
     <g transform="translate(25.943225 258.429526)rotate(-270)scale(0.08 -0.08)">
      <use xlink:href="#DejaVuSans-84"/>
      <use x="60.818359" xlink:href="#DejaVuSans-101"/>
      <use x="122.341797" xlink:href="#DejaVuSans-114"/>
      <use x="163.439453" xlink:href="#DejaVuSans-109"/>
      <use x="260.851562" xlink:href="#DejaVuSans-105"/>
      <use x="288.634766" xlink:href="#DejaVuSans-110"/>
      <use x="352.013672" xlink:href="#DejaVuSans-97"/>
      <use x="413.292969" xlink:href="#DejaVuSans-108"/>
     </g>
    </g>
   </g>
   <g id="text_27">
    <g id="patch_28">
     <path clip-path="url(#p3083a6b7e2)" d="M 72.033889 258.429526 
L 72.033889 293.714526 
Q 72.033889 296.114526 74.433889 296.114526 
L 82.176389 296.114526 
Q 84.576389 296.114526 84.576389 293.714526 
L 84.576389 258.429526 
Q 84.576389 256.029526 82.176389 256.029526 
L 74.433889 256.029526 
Q 72.033889 256.029526 72.033889 258.429526 
z
" style="fill:#ffffff;stroke:#ffffff;stroke-linejoin:miter;"/>
    </g>
    <g clip-path="url(#p3083a6b7e2)">
     <!-- Terminal -->
     <g transform="translate(76.097639 258.429526)rotate(-270)scale(0.08 -0.08)">
      <use xlink:href="#DejaVuSans-84"/>
      <use x="60.818359" xlink:href="#DejaVuSans-101"/>
      <use x="122.341797" xlink:href="#DejaVuSans-114"/>
      <use x="163.439453" xlink:href="#DejaVuSans-109"/>
      <use x="260.851562" xlink:href="#DejaVuSans-105"/>
      <use x="288.634766" xlink:href="#DejaVuSans-110"/>
      <use x="352.013672" xlink:href="#DejaVuSans-97"/>
      <use x="413.292969" xlink:href="#DejaVuSans-108"/>
     </g>
    </g>
   </g>
   <g id="text_28">
    <g id="patch_29">
     <path clip-path="url(#p3083a6b7e2)" d="M 132.937633 111.351538 
L 139.607709 103.879232 
Q 141.20593 102.088788 139.415486 100.490567 
L 133.639439 95.334639 
Q 131.848995 93.736418 130.250774 95.526862 
L 123.580698 102.999168 
Q 121.982477 104.789612 123.772921 106.387833 
L 129.548968 111.543761 
Q 131.339412 113.141982 132.937633 111.351538 
z
" style="fill:#ffffff;stroke:#ffffff;stroke-linejoin:miter;"/>
    </g>
    <g clip-path="url(#p3083a6b7e2)">
     <!-- LR -->
     <g transform="translate(129.906001 108.645383)rotate(-48.24664)scale(0.08 -0.08)">
      <use xlink:href="#DejaVuSans-76"/>
      <use x="55.712891" xlink:href="#DejaVuSans-82"/>
     </g>
    </g>
   </g>
   <g id="text_29">
    <g id="patch_30">
     <path clip-path="url(#p3083a6b7e2)" d="M 281.451576 49.628971 
L 290.731876 53.16883 
Q 292.974284 54.024169 293.829623 51.781761 
L 296.588984 44.547659 
Q 297.444324 42.305251 295.201915 41.449911 
L 285.921616 37.910053 
Q 283.679208 37.054713 282.823868 39.297122 
L 280.064507 46.531224 
Q 279.209168 48.773632 281.451576 49.628971 
z
" style="fill:#ffffff;stroke:#ffffff;stroke-linejoin:miter;"/>
    </g>
    <g clip-path="url(#p3083a6b7e2)">
     <!-- LA -->
     <g transform="translate(282.899862 45.832061)rotate(-339.121252)scale(0.08 -0.08)">
      <use xlink:href="#DejaVuSans-76"/>
      <use x="55.744141" xlink:href="#DejaVuSans-65"/>
     </g>
    </g>
   </g>
   <g id="text_30">
    <g id="patch_31">
     <path clip-path="url(#p3083a6b7e2)" d="M 122.188303 258.429526 
L 122.188303 293.714526 
Q 122.188303 296.114526 124.588303 296.114526 
L 132.330803 296.114526 
Q 134.730803 296.114526 134.730803 293.714526 
L 134.730803 258.429526 
Q 134.730803 256.029526 132.330803 256.029526 
L 124.588303 256.029526 
Q 122.188303 256.029526 122.188303 258.429526 
z
" style="fill:#ffffff;stroke:#ffffff;stroke-linejoin:miter;"/>
    </g>
    <g clip-path="url(#p3083a6b7e2)">
     <!-- Terminal -->
     <g transform="translate(126.252053 258.429526)rotate(-270)scale(0.08 -0.08)">
      <use xlink:href="#DejaVuSans-84"/>
      <use x="60.818359" xlink:href="#DejaVuSans-101"/>
      <use x="122.341797" xlink:href="#DejaVuSans-114"/>
      <use x="163.439453" xlink:href="#DejaVuSans-109"/>
      <use x="260.851562" xlink:href="#DejaVuSans-105"/>
      <use x="288.634766" xlink:href="#DejaVuSans-110"/>
      <use x="352.013672" xlink:href="#DejaVuSans-97"/>
      <use x="413.292969" xlink:href="#DejaVuSans-108"/>
     </g>
    </g>
   </g>
   <g id="text_31">
    <g id="patch_32">
     <path clip-path="url(#p3083a6b7e2)" d="M 573.578025 258.429526 
L 573.578025 293.714526 
Q 573.578025 296.114526 575.978025 296.114526 
L 583.720525 296.114526 
Q 586.120525 296.114526 586.120525 293.714526 
L 586.120525 258.429526 
Q 586.120525 256.029526 583.720525 256.029526 
L 575.978025 256.029526 
Q 573.578025 256.029526 573.578025 258.429526 
z
" style="fill:#ffffff;stroke:#ffffff;stroke-linejoin:miter;"/>
    </g>
    <g clip-path="url(#p3083a6b7e2)">
     <!-- Terminal -->
     <g transform="translate(577.641775 258.429526)rotate(-270)scale(0.08 -0.08)">
      <use xlink:href="#DejaVuSans-84"/>
      <use x="60.818359" xlink:href="#DejaVuSans-101"/>
      <use x="122.341797" xlink:href="#DejaVuSans-114"/>
      <use x="163.439453" xlink:href="#DejaVuSans-109"/>
      <use x="260.851562" xlink:href="#DejaVuSans-105"/>
      <use x="288.634766" xlink:href="#DejaVuSans-110"/>
      <use x="352.013672" xlink:href="#DejaVuSans-97"/>
      <use x="413.292969" xlink:href="#DejaVuSans-108"/>
     </g>
    </g>
   </g>
   <g id="PathCollection_1">
    <defs>
     <path d="M 0 8.660254 
C 2.296726 8.660254 4.499694 7.747755 6.123724 6.123724 
C 7.747755 4.499694 8.660254 2.296726 8.660254 0 
C 8.660254 -2.296726 7.747755 -4.499694 6.123724 -6.123724 
C 4.499694 -7.747755 2.296726 -8.660254 0 -8.660254 
C -2.296726 -8.660254 -4.499694 -7.747755 -6.123724 -6.123724 
C -7.747755 -4.499694 -8.660254 -2.296726 -8.660254 0 
C -8.660254 2.296726 -7.747755 4.499694 -6.123724 6.123724 
C -4.499694 7.747755 -2.296726 8.660254 0 8.660254 
z
" id="C0_0_d1b0884d88"/>
    </defs>
    <g clip-path="url(#p3083a6b7e2)">
     <use style="fill:#ffffff;stroke:#ffffff;" x="28.150725" xlink:href="#C0_0_d1b0884d88" y="304.352426"/>
    </g>
    <g clip-path="url(#p3083a6b7e2)">
     <use style="fill:#ffffff;stroke:#ffffff;" x="78.305139" xlink:href="#C0_0_d1b0884d88" y="304.352426"/>
    </g>
    <g clip-path="url(#p3083a6b7e2)">
     <use style="fill:#ffffff;stroke:#ffffff;" x="128.459553" xlink:href="#C0_0_d1b0884d88" y="304.352426"/>
    </g>
    <g clip-path="url(#p3083a6b7e2)">
     <use style="fill:#ffffff;stroke:#ffffff;" x="178.613966" xlink:href="#C0_0_d1b0884d88" y="304.352426"/>
    </g>
    <g clip-path="url(#p3083a6b7e2)">
     <use style="fill:#ffffff;stroke:#ffffff;" x="228.76838" xlink:href="#C0_0_d1b0884d88" y="304.352426"/>
    </g>
    <g clip-path="url(#p3083a6b7e2)">
     <use style="fill:#ffffff;stroke:#ffffff;" x="278.922793" xlink:href="#C0_0_d1b0884d88" y="304.352426"/>
    </g>
    <g clip-path="url(#p3083a6b7e2)">
     <use style="fill:#ffffff;stroke:#ffffff;" x="329.077207" xlink:href="#C0_0_d1b0884d88" y="304.352426"/>
    </g>
    <g clip-path="url(#p3083a6b7e2)">
     <use style="fill:#ffffff;stroke:#ffffff;" x="379.23162" xlink:href="#C0_0_d1b0884d88" y="304.352426"/>
    </g>
    <g clip-path="url(#p3083a6b7e2)">
     <use style="fill:#ffffff;stroke:#ffffff;" x="429.386034" xlink:href="#C0_0_d1b0884d88" y="304.352426"/>
    </g>
    <g clip-path="url(#p3083a6b7e2)">
     <use style="fill:#ffffff;stroke:#ffffff;" x="479.540447" xlink:href="#C0_0_d1b0884d88" y="304.352426"/>
    </g>
    <g clip-path="url(#p3083a6b7e2)">
     <use style="fill:#ffffff;stroke:#ffffff;" x="529.694861" xlink:href="#C0_0_d1b0884d88" y="304.352426"/>
    </g>
    <g clip-path="url(#p3083a6b7e2)">
     <use style="fill:#ffffff;stroke:#ffffff;" x="579.849275" xlink:href="#C0_0_d1b0884d88" y="304.352426"/>
    </g>
    <g clip-path="url(#p3083a6b7e2)">
     <use style="fill:#ffffff;stroke:#ffffff;" x="182.793501" xlink:href="#C0_0_d1b0884d88" y="15.647574"/>
    </g>
    <g clip-path="url(#p3083a6b7e2)">
     <use style="fill:#ffffff;stroke:#ffffff;" x="53.227932" xlink:href="#C0_0_d1b0884d88" y="191.230826"/>
    </g>
    <g clip-path="url(#p3083a6b7e2)">
     <use style="fill:#ffffff;stroke:#ffffff;" x="366.693017" xlink:href="#C0_0_d1b0884d88" y="75.431308"/>
    </g>
    <g clip-path="url(#p3083a6b7e2)">
     <use style="fill:#ffffff;stroke:#ffffff;" x="241.306983" xlink:href="#C0_0_d1b0884d88" y="133.883203"/>
    </g>
    <g clip-path="url(#p3083a6b7e2)">
     <use style="fill:#ffffff;stroke:#ffffff;" x="379.23162" xlink:href="#C0_0_d1b0884d88" y="247.791626"/>
    </g>
    <g clip-path="url(#p3083a6b7e2)">
     <use style="fill:#ffffff;stroke:#ffffff;" x="379.23162" xlink:href="#C0_0_d1b0884d88" y="247.791626"/>
    </g>
    <g clip-path="url(#p3083a6b7e2)">
     <use style="fill:#ffffff;stroke:#ffffff;" x="467.001844" xlink:href="#C0_0_d1b0884d88" y="191.230826"/>
    </g>
    <g clip-path="url(#p3083a6b7e2)">
     <use style="fill:#ffffff;stroke:#ffffff;" x="479.540447" xlink:href="#C0_0_d1b0884d88" y="247.791626"/>
    </g>
    <g clip-path="url(#p3083a6b7e2)">
     <use style="fill:#ffffff;stroke:#ffffff;" x="529.694861" xlink:href="#C0_0_d1b0884d88" y="247.791626"/>
    </g>
    <g clip-path="url(#p3083a6b7e2)">
     <use style="fill:#ffffff;stroke:#ffffff;" x="203.691173" xlink:href="#C0_0_d1b0884d88" y="191.230826"/>
    </g>
    <g clip-path="url(#p3083a6b7e2)">
     <use style="fill:#ffffff;stroke:#ffffff;" x="278.922793" xlink:href="#C0_0_d1b0884d88" y="247.791626"/>
    </g>
    <g clip-path="url(#p3083a6b7e2)">
     <use style="fill:#ffffff;stroke:#ffffff;" x="178.613966" xlink:href="#C0_0_d1b0884d88" y="247.791626"/>
    </g>
    <g clip-path="url(#p3083a6b7e2)">
     <use style="fill:#ffffff;stroke:#ffffff;" x="228.76838" xlink:href="#C0_0_d1b0884d88" y="247.791626"/>
    </g>
    <g clip-path="url(#p3083a6b7e2)">
     <use style="fill:#ffffff;stroke:#ffffff;" x="28.150725" xlink:href="#C0_0_d1b0884d88" y="247.791626"/>
    </g>
    <g clip-path="url(#p3083a6b7e2)">
     <use style="fill:#ffffff;stroke:#ffffff;" x="78.305139" xlink:href="#C0_0_d1b0884d88" y="247.791626"/>
    </g>
    <g clip-path="url(#p3083a6b7e2)">
     <use style="fill:#808080;stroke:#808080;" x="209.960475" xlink:href="#C0_0_d1b0884d88" y="15.647574"/>
    </g>
    <g clip-path="url(#p3083a6b7e2)">
     <use style="fill:#ffffff;stroke:#ffffff;" x="128.459553" xlink:href="#C0_0_d1b0884d88" y="247.791626"/>
    </g>
    <g clip-path="url(#p3083a6b7e2)">
     <use style="fill:#ffffff;stroke:#ffffff;" x="579.849275" xlink:href="#C0_0_d1b0884d88" y="247.791626"/>
    </g>
   </g>
   <g id="text_32">
    <g clip-path="url(#p3083a6b7e2)">
     <!-- D' -->
     <defs>
      <path d="M 17.921875 72.90625 
L 17.921875 45.796875 
L 9.625 45.796875 
L 9.625 72.90625 
z
" id="DejaVuSans-39"/>
     </defs>
     <g transform="translate(22.926507 307.111801)scale(0.1 -0.1)">
      <use xlink:href="#DejaVuSans-68"/>
      <use x="77.001953" xlink:href="#DejaVuSans-39"/>
     </g>
    </g>
   </g>
   <g id="text_33">
    <g clip-path="url(#p3083a6b7e2)">
     <!-- ailleurs -->
     <defs>
      <path d="M 8.5 21.578125 
L 8.5 54.6875 
L 17.484375 54.6875 
L 17.484375 21.921875 
Q 17.484375 14.15625 20.5 10.265625 
Q 23.53125 6.390625 29.59375 6.390625 
Q 36.859375 6.390625 41.078125 11.03125 
Q 45.3125 15.671875 45.3125 23.6875 
L 45.3125 54.6875 
L 54.296875 54.6875 
L 54.296875 0 
L 45.3125 0 
L 45.3125 8.40625 
Q 42.046875 3.421875 37.71875 1 
Q 33.40625 -1.421875 27.6875 -1.421875 
Q 18.265625 -1.421875 13.375 4.4375 
Q 8.5 10.296875 8.5 21.578125 
z
M 31.109375 56 
z
" id="DejaVuSans-117"/>
      <path d="M 44.28125 53.078125 
L 44.28125 44.578125 
Q 40.484375 46.53125 36.375 47.5 
Q 32.28125 48.484375 27.875 48.484375 
Q 21.1875 48.484375 17.84375 46.4375 
Q 14.5 44.390625 14.5 40.28125 
Q 14.5 37.15625 16.890625 35.375 
Q 19.28125 33.59375 26.515625 31.984375 
L 29.59375 31.296875 
Q 39.15625 29.25 43.1875 25.515625 
Q 47.21875 21.78125 47.21875 15.09375 
Q 47.21875 7.46875 41.1875 3.015625 
Q 35.15625 -1.421875 24.609375 -1.421875 
Q 20.21875 -1.421875 15.453125 -0.5625 
Q 10.6875 0.296875 5.421875 2 
L 5.421875 11.28125 
Q 10.40625 8.6875 15.234375 7.390625 
Q 20.0625 6.109375 24.8125 6.109375 
Q 31.15625 6.109375 34.5625 8.28125 
Q 37.984375 10.453125 37.984375 14.40625 
Q 37.984375 18.0625 35.515625 20.015625 
Q 33.0625 21.96875 24.703125 23.78125 
L 21.578125 24.515625 
Q 13.234375 26.265625 9.515625 29.90625 
Q 5.8125 33.546875 5.8125 39.890625 
Q 5.8125 47.609375 11.28125 51.796875 
Q 16.75 56 26.8125 56 
Q 31.78125 56 36.171875 55.265625 
Q 40.578125 54.546875 44.28125 53.078125 
z
" id="DejaVuSans-115"/>
     </defs>
     <g transform="translate(60.16842 307.111801)scale(0.1 -0.1)">
      <use xlink:href="#DejaVuSans-97"/>
      <use x="61.279297" xlink:href="#DejaVuSans-105"/>
      <use x="89.0625" xlink:href="#DejaVuSans-108"/>
      <use x="116.845703" xlink:href="#DejaVuSans-108"/>
      <use x="144.628906" xlink:href="#DejaVuSans-101"/>
      <use x="206.152344" xlink:href="#DejaVuSans-117"/>
      <use x="269.53125" xlink:href="#DejaVuSans-114"/>
      <use x="310.644531" xlink:href="#DejaVuSans-115"/>
     </g>
    </g>
   </g>
   <g id="text_34">
    <g clip-path="url(#p3083a6b7e2)">
     <!-- , -->
     <defs>
      <path d="M 11.71875 12.40625 
L 22.015625 12.40625 
L 22.015625 4 
L 14.015625 -11.625 
L 7.71875 -11.625 
L 11.71875 4 
z
" id="DejaVuSans-44"/>
     </defs>
     <g transform="translate(126.87049 307.111801)scale(0.1 -0.1)">
      <use xlink:href="#DejaVuSans-44"/>
     </g>
    </g>
   </g>
   <g id="text_35">
    <g clip-path="url(#p3083a6b7e2)">
     <!-- le -->
     <g transform="translate(174.148341 307.111801)scale(0.1 -0.1)">
      <use xlink:href="#DejaVuSans-108"/>
      <use x="27.783203" xlink:href="#DejaVuSans-101"/>
     </g>
    </g>
   </g>
   <g id="text_36">
    <g clip-path="url(#p3083a6b7e2)">
     <!-- commandant -->
     <defs>
      <path d="M 48.78125 52.59375 
L 48.78125 44.1875 
Q 44.96875 46.296875 41.140625 47.34375 
Q 37.3125 48.390625 33.40625 48.390625 
Q 24.65625 48.390625 19.8125 42.84375 
Q 14.984375 37.3125 14.984375 27.296875 
Q 14.984375 17.28125 19.8125 11.734375 
Q 24.65625 6.203125 33.40625 6.203125 
Q 37.3125 6.203125 41.140625 7.25 
Q 44.96875 8.296875 48.78125 10.40625 
L 48.78125 2.09375 
Q 45.015625 0.34375 40.984375 -0.53125 
Q 36.96875 -1.421875 32.421875 -1.421875 
Q 20.0625 -1.421875 12.78125 6.34375 
Q 5.515625 14.109375 5.515625 27.296875 
Q 5.515625 40.671875 12.859375 48.328125 
Q 20.21875 56 33.015625 56 
Q 37.15625 56 41.109375 55.140625 
Q 45.0625 54.296875 48.78125 52.59375 
z
" id="DejaVuSans-99"/>
      <path d="M 30.609375 48.390625 
Q 23.390625 48.390625 19.1875 42.75 
Q 14.984375 37.109375 14.984375 27.296875 
Q 14.984375 17.484375 19.15625 11.84375 
Q 23.34375 6.203125 30.609375 6.203125 
Q 37.796875 6.203125 41.984375 11.859375 
Q 46.1875 17.53125 46.1875 27.296875 
Q 46.1875 37.015625 41.984375 42.703125 
Q 37.796875 48.390625 30.609375 48.390625 
z
M 30.609375 56 
Q 42.328125 56 49.015625 48.375 
Q 55.71875 40.765625 55.71875 27.296875 
Q 55.71875 13.875 49.015625 6.21875 
Q 42.328125 -1.421875 30.609375 -1.421875 
Q 18.84375 -1.421875 12.171875 6.21875 
Q 5.515625 13.875 5.515625 27.296875 
Q 5.515625 40.765625 12.171875 48.375 
Q 18.84375 56 30.609375 56 
z
" id="DejaVuSans-111"/>
      <path d="M 45.40625 46.390625 
L 45.40625 75.984375 
L 54.390625 75.984375 
L 54.390625 0 
L 45.40625 0 
L 45.40625 8.203125 
Q 42.578125 3.328125 38.25 0.953125 
Q 33.9375 -1.421875 27.875 -1.421875 
Q 17.96875 -1.421875 11.734375 6.484375 
Q 5.515625 14.40625 5.515625 27.296875 
Q 5.515625 40.1875 11.734375 48.09375 
Q 17.96875 56 27.875 56 
Q 33.9375 56 38.25 53.625 
Q 42.578125 51.265625 45.40625 46.390625 
z
M 14.796875 27.296875 
Q 14.796875 17.390625 18.875 11.75 
Q 22.953125 6.109375 30.078125 6.109375 
Q 37.203125 6.109375 41.296875 11.75 
Q 45.40625 17.390625 45.40625 27.296875 
Q 45.40625 37.203125 41.296875 42.84375 
Q 37.203125 48.484375 30.078125 48.484375 
Q 22.953125 48.484375 18.875 42.84375 
Q 14.796875 37.203125 14.796875 27.296875 
z
" id="DejaVuSans-100"/>
      <path d="M 18.3125 70.21875 
L 18.3125 54.6875 
L 36.8125 54.6875 
L 36.8125 47.703125 
L 18.3125 47.703125 
L 18.3125 18.015625 
Q 18.3125 11.328125 20.140625 9.421875 
Q 21.96875 7.515625 27.59375 7.515625 
L 36.8125 7.515625 
L 36.8125 0 
L 27.59375 0 
Q 17.1875 0 13.234375 3.875 
Q 9.28125 7.765625 9.28125 18.015625 
L 9.28125 47.703125 
L 2.6875 47.703125 
L 2.6875 54.6875 
L 9.28125 54.6875 
L 9.28125 70.21875 
z
" id="DejaVuSans-116"/>
     </defs>
     <g transform="translate(195.619161 307.111801)scale(0.1 -0.1)">
      <use xlink:href="#DejaVuSans-99"/>
      <use x="54.980469" xlink:href="#DejaVuSans-111"/>
      <use x="116.162109" xlink:href="#DejaVuSans-109"/>
      <use x="213.574219" xlink:href="#DejaVuSans-109"/>
      <use x="310.986328" xlink:href="#DejaVuSans-97"/>
      <use x="372.265625" xlink:href="#DejaVuSans-110"/>
      <use x="435.644531" xlink:href="#DejaVuSans-100"/>
      <use x="499.121094" xlink:href="#DejaVuSans-97"/>
      <use x="560.400391" xlink:href="#DejaVuSans-110"/>
      <use x="623.779297" xlink:href="#DejaVuSans-116"/>
     </g>
    </g>
   </g>
   <g id="text_37">
    <g clip-path="url(#p3083a6b7e2)">
     <!-- Farragut -->
     <defs>
      <path d="M 45.40625 27.984375 
Q 45.40625 37.75 41.375 43.109375 
Q 37.359375 48.484375 30.078125 48.484375 
Q 22.859375 48.484375 18.828125 43.109375 
Q 14.796875 37.75 14.796875 27.984375 
Q 14.796875 18.265625 18.828125 12.890625 
Q 22.859375 7.515625 30.078125 7.515625 
Q 37.359375 7.515625 41.375 12.890625 
Q 45.40625 18.265625 45.40625 27.984375 
z
M 54.390625 6.78125 
Q 54.390625 -7.171875 48.1875 -13.984375 
Q 42 -20.796875 29.203125 -20.796875 
Q 24.46875 -20.796875 20.265625 -20.09375 
Q 16.0625 -19.390625 12.109375 -17.921875 
L 12.109375 -9.1875 
Q 16.0625 -11.328125 19.921875 -12.34375 
Q 23.78125 -13.375 27.78125 -13.375 
Q 36.625 -13.375 41.015625 -8.765625 
Q 45.40625 -4.15625 45.40625 5.171875 
L 45.40625 9.625 
Q 42.625 4.78125 38.28125 2.390625 
Q 33.9375 0 27.875 0 
Q 17.828125 0 11.671875 7.65625 
Q 5.515625 15.328125 5.515625 27.984375 
Q 5.515625 40.671875 11.671875 48.328125 
Q 17.828125 56 27.875 56 
Q 33.9375 56 38.28125 53.609375 
Q 42.625 51.21875 45.40625 46.390625 
L 45.40625 54.6875 
L 54.390625 54.6875 
z
" id="DejaVuSans-103"/>
     </defs>
     <g transform="translate(257.512637 307.111801)scale(0.1 -0.1)">
      <use xlink:href="#DejaVuSans-70"/>
      <use x="57.378906" xlink:href="#DejaVuSans-97"/>
      <use x="118.658203" xlink:href="#DejaVuSans-114"/>
      <use x="159.755859" xlink:href="#DejaVuSans-114"/>
      <use x="200.869141" xlink:href="#DejaVuSans-97"/>
      <use x="262.148438" xlink:href="#DejaVuSans-103"/>
      <use x="325.625" xlink:href="#DejaVuSans-117"/>
      <use x="389.003906" xlink:href="#DejaVuSans-116"/>
     </g>
    </g>
   </g>
   <g id="text_38">
    <g clip-path="url(#p3083a6b7e2)">
     <!-- ne -->
     <g transform="translate(322.831894 307.111801)scale(0.1 -0.1)">
      <use xlink:href="#DejaVuSans-110"/>
      <use x="63.378906" xlink:href="#DejaVuSans-101"/>
     </g>
    </g>
   </g>
   <g id="text_39">
    <g clip-path="url(#p3083a6b7e2)">
     <!-- demandait -->
     <g transform="translate(352.290214 307.111801)scale(0.1 -0.1)">
      <use xlink:href="#DejaVuSans-100"/>
      <use x="63.476562" xlink:href="#DejaVuSans-101"/>
      <use x="125" xlink:href="#DejaVuSans-109"/>
      <use x="222.412109" xlink:href="#DejaVuSans-97"/>
      <use x="283.691406" xlink:href="#DejaVuSans-110"/>
      <use x="347.070312" xlink:href="#DejaVuSans-100"/>
      <use x="410.546875" xlink:href="#DejaVuSans-97"/>
      <use x="471.826172" xlink:href="#DejaVuSans-105"/>
      <use x="499.609375" xlink:href="#DejaVuSans-116"/>
     </g>
    </g>
   </g>
   <g id="text_40">
    <g clip-path="url(#p3083a6b7e2)">
     <!-- qu' -->
     <defs>
      <path d="M 14.796875 27.296875 
Q 14.796875 17.390625 18.875 11.75 
Q 22.953125 6.109375 30.078125 6.109375 
Q 37.203125 6.109375 41.296875 11.75 
Q 45.40625 17.390625 45.40625 27.296875 
Q 45.40625 37.203125 41.296875 42.84375 
Q 37.203125 48.484375 30.078125 48.484375 
Q 22.953125 48.484375 18.875 42.84375 
Q 14.796875 37.203125 14.796875 27.296875 
z
M 45.40625 8.203125 
Q 42.578125 3.328125 38.25 0.953125 
Q 33.9375 -1.421875 27.875 -1.421875 
Q 17.96875 -1.421875 11.734375 6.484375 
Q 5.515625 14.40625 5.515625 27.296875 
Q 5.515625 40.1875 11.734375 48.09375 
Q 17.96875 56 27.875 56 
Q 33.9375 56 38.25 53.625 
Q 42.578125 51.265625 45.40625 46.390625 
L 45.40625 54.6875 
L 54.390625 54.6875 
L 54.390625 -20.796875 
L 45.40625 -20.796875 
z
" id="DejaVuSans-113"/>
     </defs>
     <g transform="translate(421.668846 307.111801)scale(0.1 -0.1)">
      <use xlink:href="#DejaVuSans-113"/>
      <use x="63.476562" xlink:href="#DejaVuSans-117"/>
      <use x="126.855469" xlink:href="#DejaVuSans-39"/>
     </g>
    </g>
   </g>
   <g id="text_41">
    <g clip-path="url(#p3083a6b7e2)">
     <!--  -->
     <defs>
      <path d="M 34.28125 27.484375 
Q 23.390625 27.484375 19.1875 25 
Q 14.984375 22.515625 14.984375 16.5 
Q 14.984375 11.71875 18.140625 8.90625 
Q 21.296875 6.109375 26.703125 6.109375 
Q 34.1875 6.109375 38.703125 11.40625 
Q 43.21875 16.703125 43.21875 25.484375 
L 43.21875 27.484375 
z
M 52.203125 31.203125 
L 52.203125 0 
L 43.21875 0 
L 43.21875 8.296875 
Q 40.140625 3.328125 35.546875 0.953125 
Q 30.953125 -1.421875 24.3125 -1.421875 
Q 15.921875 -1.421875 10.953125 3.296875 
Q 6 8.015625 6 15.921875 
Q 6 25.140625 12.171875 29.828125 
Q 18.359375 34.515625 30.609375 34.515625 
L 43.21875 34.515625 
L 43.21875 35.40625 
Q 43.21875 41.609375 39.140625 45 
Q 35.0625 48.390625 27.6875 48.390625 
Q 23 48.390625 18.546875 47.265625 
Q 14.109375 46.140625 10.015625 43.890625 
L 10.015625 52.203125 
Q 14.9375 54.109375 19.578125 55.046875 
Q 24.21875 56 28.609375 56 
Q 40.484375 56 46.34375 49.84375 
Q 52.203125 43.703125 52.203125 31.203125 
z
M 21.921875 79.984375 
L 35.6875 61.71875 
L 28.21875 61.71875 
L 12.296875 79.984375 
z
" id="DejaVuSans-224"/>
     </defs>
     <g transform="translate(476.476385 307.111801)scale(0.1 -0.1)">
      <use xlink:href="#DejaVuSans-224"/>
     </g>
    </g>
   </g>
   <g id="text_42">
    <g clip-path="url(#p3083a6b7e2)">
     <!-- partir -->
     <defs>
      <path d="M 18.109375 8.203125 
L 18.109375 -20.796875 
L 9.078125 -20.796875 
L 9.078125 54.6875 
L 18.109375 54.6875 
L 18.109375 46.390625 
Q 20.953125 51.265625 25.265625 53.625 
Q 29.59375 56 35.59375 56 
Q 45.5625 56 51.78125 48.09375 
Q 58.015625 40.1875 58.015625 27.296875 
Q 58.015625 14.40625 51.78125 6.484375 
Q 45.5625 -1.421875 35.59375 -1.421875 
Q 29.59375 -1.421875 25.265625 0.953125 
Q 20.953125 3.328125 18.109375 8.203125 
z
M 48.6875 27.296875 
Q 48.6875 37.203125 44.609375 42.84375 
Q 40.53125 48.484375 33.40625 48.484375 
Q 26.265625 48.484375 22.1875 42.84375 
Q 18.109375 37.203125 18.109375 27.296875 
Q 18.109375 17.390625 22.1875 11.75 
Q 26.265625 6.109375 33.40625 6.109375 
Q 40.53125 6.109375 44.609375 11.75 
Q 48.6875 17.390625 48.6875 27.296875 
z
" id="DejaVuSans-112"/>
     </defs>
     <g transform="translate(515.996424 307.111801)scale(0.1 -0.1)">
      <use xlink:href="#DejaVuSans-112"/>
      <use x="63.476562" xlink:href="#DejaVuSans-97"/>
      <use x="124.755859" xlink:href="#DejaVuSans-114"/>
      <use x="165.869141" xlink:href="#DejaVuSans-116"/>
      <use x="205.078125" xlink:href="#DejaVuSans-105"/>
      <use x="232.861328" xlink:href="#DejaVuSans-114"/>
     </g>
    </g>
   </g>
   <g id="text_43">
    <g clip-path="url(#p3083a6b7e2)">
     <!-- . -->
     <defs>
      <path d="M 10.6875 12.40625 
L 21 12.40625 
L 21 0 
L 10.6875 0 
z
" id="DejaVuSans-46"/>
     </defs>
     <g transform="translate(578.260212 307.111801)scale(0.1 -0.1)">
      <use xlink:href="#DejaVuSans-46"/>
     </g>
    </g>
   </g>
   <g id="text_44">
    <g clip-path="url(#p3083a6b7e2)">
     <!-- 1.1 -->
     <defs>
      <path d="M 12.40625 8.296875 
L 28.515625 8.296875 
L 28.515625 63.921875 
L 10.984375 60.40625 
L 10.984375 69.390625 
L 28.421875 72.90625 
L 38.28125 72.90625 
L 38.28125 8.296875 
L 54.390625 8.296875 
L 54.390625 0 
L 12.40625 0 
z
" id="DejaVuSans-49"/>
     </defs>
     <g transform="translate(174.841938 18.406949)scale(0.1 -0.1)">
      <use xlink:href="#DejaVuSans-49"/>
      <use x="63.623047" xlink:href="#DejaVuSans-46"/>
      <use x="95.410156" xlink:href="#DejaVuSans-49"/>
     </g>
    </g>
   </g>
   <g id="text_45">
    <g clip-path="url(#p3083a6b7e2)">
     <!-- 1.2 -->
     <defs>
      <path d="M 19.1875 8.296875 
L 53.609375 8.296875 
L 53.609375 0 
L 7.328125 0 
L 7.328125 8.296875 
Q 12.9375 14.109375 22.625 23.890625 
Q 32.328125 33.6875 34.8125 36.53125 
Q 39.546875 41.84375 41.421875 45.53125 
Q 43.3125 49.21875 43.3125 52.78125 
Q 43.3125 58.59375 39.234375 62.25 
Q 35.15625 65.921875 28.609375 65.921875 
Q 23.96875 65.921875 18.8125 64.3125 
Q 13.671875 62.703125 7.8125 59.421875 
L 7.8125 69.390625 
Q 13.765625 71.78125 18.9375 73 
Q 24.125 74.21875 28.421875 74.21875 
Q 39.75 74.21875 46.484375 68.546875 
Q 53.21875 62.890625 53.21875 53.421875 
Q 53.21875 48.921875 51.53125 44.890625 
Q 49.859375 40.875 45.40625 35.40625 
Q 44.1875 33.984375 37.640625 27.21875 
Q 31.109375 20.453125 19.1875 8.296875 
z
" id="DejaVuSans-50"/>
     </defs>
     <g transform="translate(45.27637 193.990201)scale(0.1 -0.1)">
      <use xlink:href="#DejaVuSans-49"/>
      <use x="63.623047" xlink:href="#DejaVuSans-46"/>
      <use x="95.410156" xlink:href="#DejaVuSans-50"/>
     </g>
    </g>
   </g>
   <g id="text_46">
    <g clip-path="url(#p3083a6b7e2)">
     <!-- 1.3 -->
     <defs>
      <path d="M 40.578125 39.3125 
Q 47.65625 37.796875 51.625 33 
Q 55.609375 28.21875 55.609375 21.1875 
Q 55.609375 10.40625 48.1875 4.484375 
Q 40.765625 -1.421875 27.09375 -1.421875 
Q 22.515625 -1.421875 17.65625 -0.515625 
Q 12.796875 0.390625 7.625 2.203125 
L 7.625 11.71875 
Q 11.71875 9.328125 16.59375 8.109375 
Q 21.484375 6.890625 26.8125 6.890625 
Q 36.078125 6.890625 40.9375 10.546875 
Q 45.796875 14.203125 45.796875 21.1875 
Q 45.796875 27.640625 41.28125 31.265625 
Q 36.765625 34.90625 28.71875 34.90625 
L 20.21875 34.90625 
L 20.21875 43.015625 
L 29.109375 43.015625 
Q 36.375 43.015625 40.234375 45.921875 
Q 44.09375 48.828125 44.09375 54.296875 
Q 44.09375 59.90625 40.109375 62.90625 
Q 36.140625 65.921875 28.71875 65.921875 
Q 24.65625 65.921875 20.015625 65.03125 
Q 15.375 64.15625 9.8125 62.3125 
L 9.8125 71.09375 
Q 15.4375 72.65625 20.34375 73.4375 
Q 25.25 74.21875 29.59375 74.21875 
Q 40.828125 74.21875 47.359375 69.109375 
Q 53.90625 64.015625 53.90625 55.328125 
Q 53.90625 49.265625 50.4375 45.09375 
Q 46.96875 40.921875 40.578125 39.3125 
z
" id="DejaVuSans-51"/>
     </defs>
     <g transform="translate(358.741454 78.190683)scale(0.1 -0.1)">
      <use xlink:href="#DejaVuSans-49"/>
      <use x="63.623047" xlink:href="#DejaVuSans-46"/>
      <use x="95.410156" xlink:href="#DejaVuSans-51"/>
     </g>
    </g>
   </g>
   <g id="text_47">
    <g clip-path="url(#p3083a6b7e2)">
     <!-- 1.5 -->
     <defs>
      <path d="M 10.796875 72.90625 
L 49.515625 72.90625 
L 49.515625 64.59375 
L 19.828125 64.59375 
L 19.828125 46.734375 
Q 21.96875 47.46875 24.109375 47.828125 
Q 26.265625 48.1875 28.421875 48.1875 
Q 40.625 48.1875 47.75 41.5 
Q 54.890625 34.8125 54.890625 23.390625 
Q 54.890625 11.625 47.5625 5.09375 
Q 40.234375 -1.421875 26.90625 -1.421875 
Q 22.3125 -1.421875 17.546875 -0.640625 
Q 12.796875 0.140625 7.71875 1.703125 
L 7.71875 11.625 
Q 12.109375 9.234375 16.796875 8.0625 
Q 21.484375 6.890625 26.703125 6.890625 
Q 35.15625 6.890625 40.078125 11.328125 
Q 45.015625 15.765625 45.015625 23.390625 
Q 45.015625 31 40.078125 35.4375 
Q 35.15625 39.890625 26.703125 39.890625 
Q 22.75 39.890625 18.8125 39.015625 
Q 14.890625 38.140625 10.796875 36.28125 
z
" id="DejaVuSans-53"/>
     </defs>
     <g transform="translate(233.355421 136.642578)scale(0.1 -0.1)">
      <use xlink:href="#DejaVuSans-49"/>
      <use x="63.623047" xlink:href="#DejaVuSans-46"/>
      <use x="95.410156" xlink:href="#DejaVuSans-53"/>
     </g>
    </g>
   </g>
   <g id="text_48">
    <g clip-path="url(#p3083a6b7e2)">
     <!-- 1.6 -->
     <defs>
      <path d="M 33.015625 40.375 
Q 26.375 40.375 22.484375 35.828125 
Q 18.609375 31.296875 18.609375 23.390625 
Q 18.609375 15.53125 22.484375 10.953125 
Q 26.375 6.390625 33.015625 6.390625 
Q 39.65625 6.390625 43.53125 10.953125 
Q 47.40625 15.53125 47.40625 23.390625 
Q 47.40625 31.296875 43.53125 35.828125 
Q 39.65625 40.375 33.015625 40.375 
z
M 52.59375 71.296875 
L 52.59375 62.3125 
Q 48.875 64.0625 45.09375 64.984375 
Q 41.3125 65.921875 37.59375 65.921875 
Q 27.828125 65.921875 22.671875 59.328125 
Q 17.53125 52.734375 16.796875 39.40625 
Q 19.671875 43.65625 24.015625 45.921875 
Q 28.375 48.1875 33.59375 48.1875 
Q 44.578125 48.1875 50.953125 41.515625 
Q 57.328125 34.859375 57.328125 23.390625 
Q 57.328125 12.15625 50.6875 5.359375 
Q 44.046875 -1.421875 33.015625 -1.421875 
Q 20.359375 -1.421875 13.671875 8.265625 
Q 6.984375 17.96875 6.984375 36.375 
Q 6.984375 53.65625 15.1875 63.9375 
Q 23.390625 74.21875 37.203125 74.21875 
Q 40.921875 74.21875 44.703125 73.484375 
Q 48.484375 72.75 52.59375 71.296875 
z
" id="DejaVuSans-54"/>
     </defs>
     <g transform="translate(371.280058 250.551001)scale(0.1 -0.1)">
      <use xlink:href="#DejaVuSans-49"/>
      <use x="63.623047" xlink:href="#DejaVuSans-46"/>
      <use x="95.410156" xlink:href="#DejaVuSans-54"/>
     </g>
    </g>
   </g>
   <g id="text_49">
    <g clip-path="url(#p3083a6b7e2)">
     <!-- 1.7 -->
     <defs>
      <path d="M 8.203125 72.90625 
L 55.078125 72.90625 
L 55.078125 68.703125 
L 28.609375 0 
L 18.3125 0 
L 43.21875 64.59375 
L 8.203125 64.59375 
z
" id="DejaVuSans-55"/>
     </defs>
     <g transform="translate(371.280058 250.551001)scale(0.1 -0.1)">
      <use xlink:href="#DejaVuSans-49"/>
      <use x="63.623047" xlink:href="#DejaVuSans-46"/>
      <use x="95.410156" xlink:href="#DejaVuSans-55"/>
     </g>
    </g>
   </g>
   <g id="text_50">
    <g clip-path="url(#p3083a6b7e2)">
     <!-- 1.8 -->
     <defs>
      <path d="M 31.78125 34.625 
Q 24.75 34.625 20.71875 30.859375 
Q 16.703125 27.09375 16.703125 20.515625 
Q 16.703125 13.921875 20.71875 10.15625 
Q 24.75 6.390625 31.78125 6.390625 
Q 38.8125 6.390625 42.859375 10.171875 
Q 46.921875 13.96875 46.921875 20.515625 
Q 46.921875 27.09375 42.890625 30.859375 
Q 38.875 34.625 31.78125 34.625 
z
M 21.921875 38.8125 
Q 15.578125 40.375 12.03125 44.71875 
Q 8.5 49.078125 8.5 55.328125 
Q 8.5 64.0625 14.71875 69.140625 
Q 20.953125 74.21875 31.78125 74.21875 
Q 42.671875 74.21875 48.875 69.140625 
Q 55.078125 64.0625 55.078125 55.328125 
Q 55.078125 49.078125 51.53125 44.71875 
Q 48 40.375 41.703125 38.8125 
Q 48.828125 37.15625 52.796875 32.3125 
Q 56.78125 27.484375 56.78125 20.515625 
Q 56.78125 9.90625 50.3125 4.234375 
Q 43.84375 -1.421875 31.78125 -1.421875 
Q 19.734375 -1.421875 13.25 4.234375 
Q 6.78125 9.90625 6.78125 20.515625 
Q 6.78125 27.484375 10.78125 32.3125 
Q 14.796875 37.15625 21.921875 38.8125 
z
M 18.3125 54.390625 
Q 18.3125 48.734375 21.84375 45.5625 
Q 25.390625 42.390625 31.78125 42.390625 
Q 38.140625 42.390625 41.71875 45.5625 
Q 45.3125 48.734375 45.3125 54.390625 
Q 45.3125 60.0625 41.71875 63.234375 
Q 38.140625 66.40625 31.78125 66.40625 
Q 25.390625 66.40625 21.84375 63.234375 
Q 18.3125 60.0625 18.3125 54.390625 
z
" id="DejaVuSans-56"/>
     </defs>
     <g transform="translate(459.050282 193.990201)scale(0.1 -0.1)">
      <use xlink:href="#DejaVuSans-49"/>
      <use x="63.623047" xlink:href="#DejaVuSans-46"/>
      <use x="95.410156" xlink:href="#DejaVuSans-56"/>
     </g>
    </g>
   </g>
   <g id="text_51">
    <g clip-path="url(#p3083a6b7e2)">
     <!-- 1.9 -->
     <defs>
      <path d="M 10.984375 1.515625 
L 10.984375 10.5 
Q 14.703125 8.734375 18.5 7.8125 
Q 22.3125 6.890625 25.984375 6.890625 
Q 35.75 6.890625 40.890625 13.453125 
Q 46.046875 20.015625 46.78125 33.40625 
Q 43.953125 29.203125 39.59375 26.953125 
Q 35.25 24.703125 29.984375 24.703125 
Q 19.046875 24.703125 12.671875 31.3125 
Q 6.296875 37.9375 6.296875 49.421875 
Q 6.296875 60.640625 12.9375 67.421875 
Q 19.578125 74.21875 30.609375 74.21875 
Q 43.265625 74.21875 49.921875 64.515625 
Q 56.59375 54.828125 56.59375 36.375 
Q 56.59375 19.140625 48.40625 8.859375 
Q 40.234375 -1.421875 26.421875 -1.421875 
Q 22.703125 -1.421875 18.890625 -0.6875 
Q 15.09375 0.046875 10.984375 1.515625 
z
M 30.609375 32.421875 
Q 37.25 32.421875 41.125 36.953125 
Q 45.015625 41.5 45.015625 49.421875 
Q 45.015625 57.28125 41.125 61.84375 
Q 37.25 66.40625 30.609375 66.40625 
Q 23.96875 66.40625 20.09375 61.84375 
Q 16.21875 57.28125 16.21875 49.421875 
Q 16.21875 41.5 20.09375 36.953125 
Q 23.96875 32.421875 30.609375 32.421875 
z
" id="DejaVuSans-57"/>
     </defs>
     <g transform="translate(471.588885 250.551001)scale(0.1 -0.1)">
      <use xlink:href="#DejaVuSans-49"/>
      <use x="63.623047" xlink:href="#DejaVuSans-46"/>
      <use x="95.410156" xlink:href="#DejaVuSans-57"/>
     </g>
    </g>
   </g>
   <g id="text_52">
    <g clip-path="url(#p3083a6b7e2)">
     <!-- 1.10 -->
     <defs>
      <path d="M 31.78125 66.40625 
Q 24.171875 66.40625 20.328125 58.90625 
Q 16.5 51.421875 16.5 36.375 
Q 16.5 21.390625 20.328125 13.890625 
Q 24.171875 6.390625 31.78125 6.390625 
Q 39.453125 6.390625 43.28125 13.890625 
Q 47.125 21.390625 47.125 36.375 
Q 47.125 51.421875 43.28125 58.90625 
Q 39.453125 66.40625 31.78125 66.40625 
z
M 31.78125 74.21875 
Q 44.046875 74.21875 50.515625 64.515625 
Q 56.984375 54.828125 56.984375 36.375 
Q 56.984375 17.96875 50.515625 8.265625 
Q 44.046875 -1.421875 31.78125 -1.421875 
Q 19.53125 -1.421875 13.0625 8.265625 
Q 6.59375 17.96875 6.59375 36.375 
Q 6.59375 54.828125 13.0625 64.515625 
Q 19.53125 74.21875 31.78125 74.21875 
z
" id="DejaVuSans-48"/>
     </defs>
     <g transform="translate(518.562049 250.551001)scale(0.1 -0.1)">
      <use xlink:href="#DejaVuSans-49"/>
      <use x="63.623047" xlink:href="#DejaVuSans-46"/>
      <use x="95.410156" xlink:href="#DejaVuSans-49"/>
      <use x="159.033203" xlink:href="#DejaVuSans-48"/>
     </g>
    </g>
   </g>
   <g id="text_53">
    <g clip-path="url(#p3083a6b7e2)">
     <!-- 1.12 -->
     <g transform="translate(192.55836 193.990201)scale(0.1 -0.1)">
      <use xlink:href="#DejaVuSans-49"/>
      <use x="63.623047" xlink:href="#DejaVuSans-46"/>
      <use x="95.410156" xlink:href="#DejaVuSans-49"/>
      <use x="159.033203" xlink:href="#DejaVuSans-50"/>
     </g>
    </g>
   </g>
   <g id="text_54">
    <g clip-path="url(#p3083a6b7e2)">
     <!-- 1.13 -->
     <g transform="translate(267.789981 250.551001)scale(0.1 -0.1)">
      <use xlink:href="#DejaVuSans-49"/>
      <use x="63.623047" xlink:href="#DejaVuSans-46"/>
      <use x="95.410156" xlink:href="#DejaVuSans-49"/>
      <use x="159.033203" xlink:href="#DejaVuSans-51"/>
     </g>
    </g>
   </g>
   <g id="text_55">
    <g clip-path="url(#p3083a6b7e2)">
     <!-- 1.14 -->
     <defs>
      <path d="M 37.796875 64.3125 
L 12.890625 25.390625 
L 37.796875 25.390625 
z
M 35.203125 72.90625 
L 47.609375 72.90625 
L 47.609375 25.390625 
L 58.015625 25.390625 
L 58.015625 17.1875 
L 47.609375 17.1875 
L 47.609375 0 
L 37.796875 0 
L 37.796875 17.1875 
L 4.890625 17.1875 
L 4.890625 26.703125 
z
" id="DejaVuSans-52"/>
     </defs>
     <g transform="translate(167.481154 250.551001)scale(0.1 -0.1)">
      <use xlink:href="#DejaVuSans-49"/>
      <use x="63.623047" xlink:href="#DejaVuSans-46"/>
      <use x="95.410156" xlink:href="#DejaVuSans-49"/>
      <use x="159.033203" xlink:href="#DejaVuSans-52"/>
     </g>
    </g>
   </g>
   <g id="text_56">
    <g clip-path="url(#p3083a6b7e2)">
     <!-- 1.15 -->
     <g transform="translate(217.635567 250.551001)scale(0.1 -0.1)">
      <use xlink:href="#DejaVuSans-49"/>
      <use x="63.623047" xlink:href="#DejaVuSans-46"/>
      <use x="95.410156" xlink:href="#DejaVuSans-49"/>
      <use x="159.033203" xlink:href="#DejaVuSans-53"/>
     </g>
    </g>
   </g>
   <g id="text_57">
    <g clip-path="url(#p3083a6b7e2)">
     <!-- 1.16 -->
     <g transform="translate(17.017913 250.551001)scale(0.1 -0.1)">
      <use xlink:href="#DejaVuSans-49"/>
      <use x="63.623047" xlink:href="#DejaVuSans-46"/>
      <use x="95.410156" xlink:href="#DejaVuSans-49"/>
      <use x="159.033203" xlink:href="#DejaVuSans-54"/>
     </g>
    </g>
   </g>
   <g id="text_58">
    <g clip-path="url(#p3083a6b7e2)">
     <!-- 1.17 -->
     <g transform="translate(67.172326 250.551001)scale(0.1 -0.1)">
      <use xlink:href="#DejaVuSans-49"/>
      <use x="63.623047" xlink:href="#DejaVuSans-46"/>
      <use x="95.410156" xlink:href="#DejaVuSans-49"/>
      <use x="159.033203" xlink:href="#DejaVuSans-55"/>
     </g>
    </g>
   </g>
   <g id="text_59">
    <g clip-path="url(#p3083a6b7e2)">
     <!-- 1.18 -->
     <g transform="translate(198.827662 18.406949)scale(0.1 -0.1)">
      <use xlink:href="#DejaVuSans-49"/>
      <use x="63.623047" xlink:href="#DejaVuSans-46"/>
      <use x="95.410156" xlink:href="#DejaVuSans-49"/>
      <use x="159.033203" xlink:href="#DejaVuSans-56"/>
     </g>
    </g>
   </g>
   <g id="text_60">
    <g clip-path="url(#p3083a6b7e2)">
     <!-- 1.19 -->
     <g transform="translate(117.32674 250.551001)scale(0.1 -0.1)">
      <use xlink:href="#DejaVuSans-49"/>
      <use x="63.623047" xlink:href="#DejaVuSans-46"/>
      <use x="95.410156" xlink:href="#DejaVuSans-49"/>
      <use x="159.033203" xlink:href="#DejaVuSans-57"/>
     </g>
    </g>
   </g>
   <g id="text_61">
    <g clip-path="url(#p3083a6b7e2)">
     <!-- 1.20 -->
     <g transform="translate(568.716462 250.551001)scale(0.1 -0.1)">
      <use xlink:href="#DejaVuSans-49"/>
      <use x="63.623047" xlink:href="#DejaVuSans-46"/>
      <use x="95.410156" xlink:href="#DejaVuSans-50"/>
      <use x="159.033203" xlink:href="#DejaVuSans-48"/>
     </g>
    </g>
   </g>
  </g>
 </g>
 <defs>
  <clipPath id="p3083a6b7e2">
   <rect height="320" width="608" x="0" y="0"/>
  </clipPath>
 </defs>
</svg>
