<?xml version="1.0" encoding="utf-8" standalone="no"?>
<!DOCTYPE svg PUBLIC "-//W3C//DTD SVG 1.1//EN"
  "http://www.w3.org/Graphics/SVG/1.1/DTD/svg11.dtd">
<!-- Created with matplotlib (https://matplotlib.org/) -->
<svg height="320pt" version="1.1" viewBox="0 0 608 320" width="608pt" xmlns="http://www.w3.org/2000/svg" xmlns:xlink="http://www.w3.org/1999/xlink">
 <defs>
  <style type="text/css">
*{stroke-linecap:butt;stroke-linejoin:round;}
  </style>
 </defs>
 <g id="figure_1">
  <g id="patch_1">
   <path d="M 0 320 
L 608 320 
L 608 0 
L 0 0 
z
" style="fill:#ffffff;"/>
  </g>
  <g id="axes_1">
   <g id="LineCollection_1">
    <path clip-path="url(#pa9ddff9124)" d="M 227.942845 15.932652 
L 227.942845 89.503929 
" style="fill:none;stroke:#000000;"/>
    <path clip-path="url(#pa9ddff9124)" d="M 227.942845 89.503929 
L 395.976094 161.685299 
" style="fill:none;stroke:#000000;"/>
    <path clip-path="url(#pa9ddff9124)" d="M 227.942845 89.503929 
L 197.873738 232.876323 
" style="fill:none;stroke:#000000;"/>
    <path clip-path="url(#pa9ddff9124)" d="M 227.942845 89.503929 
L 282.774748 232.876323 
" style="fill:none;stroke:#000000;"/>
    <path clip-path="url(#pa9ddff9124)" d="M 227.942845 89.503929 
L 410.126262 161.685299 
" style="fill:none;stroke:#000000;"/>
    <path clip-path="url(#pa9ddff9124)" d="M 227.942845 89.503929 
L 28.071718 232.876323 
" style="fill:none;stroke:#000000;"/>
    <path clip-path="url(#pa9ddff9124)" d="M 227.942845 89.503929 
L 112.972728 232.876323 
" style="fill:none;stroke:#000000;"/>
    <path clip-path="url(#pa9ddff9124)" d="M 227.942845 89.503929 
L 155.423233 232.876323 
" style="fill:none;stroke:#000000;"/>
    <path clip-path="url(#pa9ddff9124)" d="M 227.942845 89.503929 
L 240.324243 232.876323 
" style="fill:none;stroke:#000000;"/>
    <path clip-path="url(#pa9ddff9124)" d="M 395.976094 161.685299 
L 579.928282 304.067348 
" style="fill:none;stroke:#000000;"/>
    <path clip-path="url(#pa9ddff9124)" d="M 395.976094 161.685299 
L 537.477777 304.067348 
" style="fill:none;stroke:#000000;"/>
    <path clip-path="url(#pa9ddff9124)" d="M 395.976094 161.685299 
L 70.522223 232.876323 
" style="fill:none;stroke:#000000;"/>
    <path clip-path="url(#pa9ddff9124)" d="M 197.873738 232.876323 
L 197.873738 304.067348 
" style="fill:none;stroke:#000000;"/>
    <path clip-path="url(#pa9ddff9124)" d="M 282.774748 232.876323 
L 282.774748 304.067348 
" style="fill:none;stroke:#000000;"/>
    <path clip-path="url(#pa9ddff9124)" d="M 410.126262 161.685299 
L 325.225252 232.876323 
" style="fill:none;stroke:#000000;"/>
    <path clip-path="url(#pa9ddff9124)" d="M 410.126262 161.685299 
L 367.675757 232.876323 
" style="fill:none;stroke:#000000;"/>
    <path clip-path="url(#pa9ddff9124)" d="M 410.126262 161.685299 
L 410.126262 232.876323 
" style="fill:none;stroke:#000000;"/>
    <path clip-path="url(#pa9ddff9124)" d="M 410.126262 161.685299 
L 452.576767 232.876323 
" style="fill:none;stroke:#000000;"/>
    <path clip-path="url(#pa9ddff9124)" d="M 410.126262 161.685299 
L 495.027272 232.876323 
" style="fill:none;stroke:#000000;"/>
    <path clip-path="url(#pa9ddff9124)" d="M 325.225252 232.876323 
L 325.225252 304.067348 
" style="fill:none;stroke:#000000;"/>
    <path clip-path="url(#pa9ddff9124)" d="M 367.675757 232.876323 
L 367.675757 304.067348 
" style="fill:none;stroke:#000000;"/>
    <path clip-path="url(#pa9ddff9124)" d="M 410.126262 232.876323 
L 410.126262 304.067348 
" style="fill:none;stroke:#000000;"/>
    <path clip-path="url(#pa9ddff9124)" d="M 452.576767 232.876323 
L 452.576767 304.067348 
" style="fill:none;stroke:#000000;"/>
    <path clip-path="url(#pa9ddff9124)" d="M 28.071718 232.876323 
L 28.071718 304.067348 
" style="fill:none;stroke:#000000;"/>
    <path clip-path="url(#pa9ddff9124)" d="M 70.522223 232.876323 
L 70.522223 304.067348 
" style="fill:none;stroke:#000000;"/>
    <path clip-path="url(#pa9ddff9124)" d="M 112.972728 232.876323 
L 112.972728 304.067348 
" style="fill:none;stroke:#000000;"/>
    <path clip-path="url(#pa9ddff9124)" d="M 155.423233 232.876323 
L 155.423233 304.067348 
" style="fill:none;stroke:#000000;"/>
    <path clip-path="url(#pa9ddff9124)" d="M 240.324243 232.876323 
L 240.324243 304.067348 
" style="fill:none;stroke:#000000;"/>
    <path clip-path="url(#pa9ddff9124)" d="M 495.027272 232.876323 
L 495.027272 304.067348 
" style="fill:none;stroke:#000000;"/>
   </g>
   <g id="text_1">
    <g id="patch_2">
     <path clip-path="url(#pa9ddff9124)" d="M 221.671595 49.710166 
L 221.671595 55.726416 
Q 221.671595 58.126416 224.071595 58.126416 
L 231.814095 58.126416 
Q 234.214095 58.126416 234.214095 55.726416 
L 234.214095 49.710166 
Q 234.214095 47.310166 231.814095 47.310166 
L 224.071595 47.310166 
Q 221.671595 47.310166 221.671595 49.710166 
z
" style="fill:#ffffff;stroke:#ffffff;stroke-linejoin:miter;"/>
    </g>
    <g clip-path="url(#pa9ddff9124)">
     <!-- H -->
     <defs>
      <path d="M 9.8125 72.90625 
L 19.671875 72.90625 
L 19.671875 43.015625 
L 55.515625 43.015625 
L 55.515625 72.90625 
L 65.375 72.90625 
L 65.375 0 
L 55.515625 0 
L 55.515625 34.71875 
L 19.671875 34.71875 
L 19.671875 0 
L 9.8125 0 
z
" id="DejaVuSans-72"/>
     </defs>
     <g transform="translate(225.735345 49.710166)rotate(-270)scale(0.08 -0.08)">
      <use xlink:href="#DejaVuSans-72"/>
     </g>
    </g>
   </g>
   <g id="text_2">
    <g id="patch_3">
     <path clip-path="url(#pa9ddff9124)" d="M 306.970158 130.276751 
L 311.998367 132.436699 
Q 314.20352 133.383958 315.150779 131.178805 
L 318.206676 124.064888 
Q 319.153934 121.859735 316.948781 120.912476 
L 311.920572 118.752529 
Q 309.715419 117.80527 308.76816 120.010423 
L 305.712264 127.124339 
Q 304.765005 129.329493 306.970158 130.276751 
z
" style="fill:#ffffff;stroke:#ffffff;stroke-linejoin:miter;"/>
    </g>
    <g clip-path="url(#pa9ddff9124)">
     <!-- A -->
     <defs>
      <path d="M 34.1875 63.1875 
L 20.796875 26.90625 
L 47.609375 26.90625 
z
M 28.609375 72.90625 
L 39.796875 72.90625 
L 67.578125 0 
L 57.328125 0 
L 50.6875 18.703125 
L 17.828125 18.703125 
L 11.1875 0 
L 0.78125 0 
z
" id="DejaVuSans-65"/>
     </defs>
     <g transform="translate(308.574085 126.542922)rotate(-336.753285)scale(0.08 -0.08)">
      <use xlink:href="#DejaVuSans-65"/>
     </g>
    </g>
   </g>
   <g id="text_3">
    <g id="patch_4">
     <path clip-path="url(#pa9ddff9124)" d="M 218.550943 164.837892 
L 219.541074 160.116854 
Q 220.033702 157.767957 217.684805 157.275329 
L 210.107165 155.686091 
Q 207.758267 155.193463 207.26564 157.54236 
L 206.275509 162.263398 
Q 205.782881 164.612296 208.131778 165.104923 
L 215.709418 166.694162 
Q 218.058315 167.18679 218.550943 164.837892 
z
" style="fill:#ffffff;stroke:#ffffff;stroke-linejoin:miter;"/>
    </g>
    <g clip-path="url(#pa9ddff9124)">
     <!-- P -->
     <defs>
      <path d="M 19.671875 64.796875 
L 19.671875 37.40625 
L 32.078125 37.40625 
Q 38.96875 37.40625 42.71875 40.96875 
Q 46.484375 44.53125 46.484375 51.125 
Q 46.484375 57.671875 42.71875 61.234375 
Q 38.96875 64.796875 32.078125 64.796875 
z
M 9.8125 72.90625 
L 32.078125 72.90625 
Q 44.34375 72.90625 50.609375 67.359375 
Q 56.890625 61.8125 56.890625 51.125 
Q 56.890625 40.328125 50.609375 34.8125 
Q 44.34375 29.296875 32.078125 29.296875 
L 19.671875 29.296875 
L 19.671875 0 
L 9.8125 0 
z
" id="DejaVuSans-80"/>
     </defs>
     <g transform="translate(214.573722 164.00376)rotate(-78.155185)scale(0.08 -0.08)">
      <use xlink:href="#DejaVuSans-80"/>
     </g>
    </g>
   </g>
   <g id="text_4">
    <g id="patch_5">
     <path clip-path="url(#pa9ddff9124)" d="M 248.523881 160.874568 
L 250.478722 165.986011 
Q 251.33603 168.227668 253.577686 167.37036 
L 260.809363 164.604649 
Q 263.051019 163.747341 262.193711 161.505685 
L 260.238871 156.394241 
Q 259.381563 154.152585 257.139907 155.009893 
L 249.90823 157.775603 
Q 247.666573 158.632911 248.523881 160.874568 
z
" style="fill:#ffffff;stroke:#ffffff;stroke-linejoin:miter;"/>
    </g>
    <g clip-path="url(#pa9ddff9124)">
     <!-- A -->
     <g transform="translate(252.319519 159.422949)rotate(-290.92905)scale(0.08 -0.08)">
      <use xlink:href="#DejaVuSans-65"/>
     </g>
    </g>
   </g>
   <g id="text_5">
    <g id="patch_6">
     <path clip-path="url(#pa9ddff9124)" d="M 313.86113 130.290428 
L 319.588017 132.559429 
Q 321.819271 133.443456 322.703298 131.212202 
L 325.555205 124.014082 
Q 326.439232 121.782827 324.207977 120.8988 
L 318.481091 118.629798 
Q 316.249836 117.745772 315.36581 119.977026 
L 312.513903 127.175146 
Q 311.629876 129.406401 313.86113 130.290428 
z
" style="fill:#ffffff;stroke:#ffffff;stroke-linejoin:miter;"/>
    </g>
    <g clip-path="url(#pa9ddff9124)">
     <!-- D -->
     <defs>
      <path d="M 19.671875 64.796875 
L 19.671875 8.109375 
L 31.59375 8.109375 
Q 46.6875 8.109375 53.6875 14.9375 
Q 60.6875 21.78125 60.6875 36.53125 
Q 60.6875 51.171875 53.6875 57.984375 
Q 46.6875 64.796875 31.59375 64.796875 
z
M 9.8125 72.90625 
L 30.078125 72.90625 
Q 51.265625 72.90625 61.171875 64.09375 
Q 71.09375 55.28125 71.09375 36.53125 
Q 71.09375 17.671875 61.125 8.828125 
Q 51.171875 0 30.078125 0 
L 9.8125 0 
z
" id="DejaVuSans-68"/>
     </defs>
     <g transform="translate(315.35799 126.512402)rotate(-338.386448)scale(0.08 -0.08)">
      <use xlink:href="#DejaVuSans-68"/>
     </g>
    </g>
   </g>
   <g id="text_6">
    <g id="patch_7">
     <path clip-path="url(#pa9ddff9124)" d="M 129.283835 167.992276 
L 134.041398 164.579561 
Q 135.991552 163.180669 134.592659 161.230515 
L 130.079774 154.939238 
Q 128.680881 152.989084 126.730727 154.387976 
L 121.973165 157.800691 
Q 120.023011 159.199584 121.421903 161.149737 
L 125.934789 167.441015 
Q 127.333681 169.391168 129.283835 167.992276 
z
" style="fill:#ffffff;stroke:#ffffff;stroke-linejoin:miter;"/>
    </g>
    <g clip-path="url(#pa9ddff9124)">
     <!-- U -->
     <defs>
      <path d="M 8.6875 72.90625 
L 18.609375 72.90625 
L 18.609375 28.609375 
Q 18.609375 16.890625 22.84375 11.734375 
Q 27.09375 6.59375 36.625 6.59375 
Q 46.09375 6.59375 50.34375 11.734375 
Q 54.59375 16.890625 54.59375 28.609375 
L 54.59375 72.90625 
L 64.5 72.90625 
L 64.5 27.390625 
Q 64.5 13.140625 57.4375 5.859375 
Q 50.390625 -1.421875 36.625 -1.421875 
Q 22.796875 -1.421875 15.734375 5.859375 
Q 8.6875 13.140625 8.6875 27.390625 
z
" id="DejaVuSans-85"/>
     </defs>
     <g transform="translate(126.91519 164.690219)rotate(-35.652789)scale(0.08 -0.08)">
      <use xlink:href="#DejaVuSans-85"/>
     </g>
    </g>
   </g>
   <g id="text_7">
    <g id="patch_8">
     <path clip-path="url(#pa9ddff9124)" d="M 173.518838 167.397283 
L 177.181713 162.829529 
Q 178.683148 160.95718 176.810798 159.455745 
L 170.770519 154.612054 
Q 168.898169 153.110619 167.396735 154.982969 
L 163.73386 159.550723 
Q 162.232425 161.423073 164.104775 162.924507 
L 170.145054 167.768198 
Q 172.017403 169.269633 173.518838 167.397283 
z
" style="fill:#ffffff;stroke:#ffffff;stroke-linejoin:miter;"/>
    </g>
    <g clip-path="url(#pa9ddff9124)">
     <!-- U -->
     <g transform="translate(170.348521 164.85501)rotate(-51.273924)scale(0.08 -0.08)">
      <use xlink:href="#DejaVuSans-85"/>
     </g>
    </g>
   </g>
   <g id="text_8">
    <g id="patch_9">
     <path clip-path="url(#pa9ddff9124)" d="M 195.957791 166.633041 
L 198.600495 161.408375 
Q 199.683755 159.266752 197.542133 158.183492 
L 190.63317 154.688849 
Q 188.491547 153.605588 187.408287 155.747211 
L 184.765583 160.971877 
Q 183.682322 163.1135 185.823945 164.19676 
L 192.732908 167.691403 
Q 194.874531 168.774664 195.957791 166.633041 
z
" style="fill:#ffffff;stroke:#ffffff;stroke-linejoin:miter;"/>
    </g>
    <g clip-path="url(#pa9ddff9124)">
     <!-- U -->
     <g transform="translate(192.331533 164.798833)rotate(-63.169123)scale(0.08 -0.08)">
      <use xlink:href="#DejaVuSans-85"/>
     </g>
    </g>
   </g>
   <g id="text_9">
    <g id="patch_10">
     <path clip-path="url(#pa9ddff9124)" d="M 227.633672 158.813048 
L 228.137425 164.646337 
Q 228.343916 167.037437 230.735017 166.830946 
L 238.448807 166.164796 
Q 240.839907 165.958305 240.633416 163.567204 
L 240.129663 157.733915 
Q 239.923171 155.342815 237.532071 155.549306 
L 229.818281 156.215456 
Q 227.427181 156.421948 227.633672 158.813048 
z
" style="fill:#ffffff;stroke:#ffffff;stroke-linejoin:miter;"/>
    </g>
    <g clip-path="url(#pa9ddff9124)">
     <!-- U -->
     <g transform="translate(231.682353 158.463411)rotate(-274.935721)scale(0.08 -0.08)">
      <use xlink:href="#DejaVuSans-85"/>
     </g>
    </g>
   </g>
   <g id="text_10">
    <g id="patch_11">
     <path clip-path="url(#pa9ddff9124)" d="M 481.949843 236.160755 
L 486.277449 239.510394 
Q 488.175348 240.979399 489.644354 239.0815 
L 494.383428 232.958797 
Q 495.852433 231.060898 493.954534 229.591892 
L 489.626928 226.242253 
Q 487.729028 224.773247 486.260023 226.671147 
L 481.520949 232.793849 
Q 480.051943 234.691749 481.949843 236.160755 
z
" style="fill:#ffffff;stroke:#ffffff;stroke-linejoin:miter;"/>
    </g>
    <g clip-path="url(#pa9ddff9124)">
     <!-- A -->
     <g transform="translate(484.437206 232.947176)rotate(-322.259534)scale(0.08 -0.08)">
      <use xlink:href="#DejaVuSans-65"/>
     </g>
    </g>
   </g>
   <g id="text_11">
    <g id="patch_12">
     <path clip-path="url(#pa9ddff9124)" d="M 460.578606 235.58626 
L 463.978918 239.007727 
Q 465.670703 240.710038 467.373014 239.018253 
L 472.86474 233.560483 
Q 474.567051 231.868698 472.875266 230.166387 
L 469.474954 226.744919 
Q 467.783168 225.042608 466.080857 226.734394 
L 460.589131 232.192164 
Q 458.886821 233.883949 460.578606 235.58626 
z
" style="fill:#ffffff;stroke:#ffffff;stroke-linejoin:miter;"/>
    </g>
    <g clip-path="url(#pa9ddff9124)">
     <!-- P -->
     <g transform="translate(463.461008 232.721679)rotate(-314.822318)scale(0.08 -0.08)">
      <use xlink:href="#DejaVuSans-80"/>
     </g>
    </g>
   </g>
   <g id="text_12">
    <g id="patch_13">
     <path clip-path="url(#pa9ddff9124)" d="M 231.561485 204.069512 
L 237.617052 202.744894 
Q 239.961615 202.232036 239.448757 199.887473 
L 237.794253 192.323814 
Q 237.281394 189.979251 234.936831 190.49211 
L 228.881264 191.816728 
Q 226.536701 192.329587 227.04956 194.67415 
L 228.704064 202.237808 
Q 229.216922 204.582371 231.561485 204.069512 
z
" style="fill:#ffffff;stroke:#ffffff;stroke-linejoin:miter;"/>
    </g>
    <g clip-path="url(#pa9ddff9124)">
     <!-- G -->
     <defs>
      <path d="M 59.515625 10.40625 
L 59.515625 29.984375 
L 43.40625 29.984375 
L 43.40625 38.09375 
L 69.28125 38.09375 
L 69.28125 6.78125 
Q 63.578125 2.734375 56.6875 0.65625 
Q 49.8125 -1.421875 42 -1.421875 
Q 24.90625 -1.421875 15.25 8.5625 
Q 5.609375 18.5625 5.609375 36.375 
Q 5.609375 54.25 15.25 64.234375 
Q 24.90625 74.21875 42 74.21875 
Q 49.125 74.21875 55.546875 72.453125 
Q 61.96875 70.703125 67.390625 67.28125 
L 67.390625 56.78125 
Q 61.921875 61.421875 55.765625 63.765625 
Q 49.609375 66.109375 42.828125 66.109375 
Q 29.4375 66.109375 22.71875 58.640625 
Q 16.015625 51.171875 16.015625 36.375 
Q 16.015625 21.625 22.71875 14.15625 
Q 29.4375 6.6875 42.828125 6.6875 
Q 48.046875 6.6875 52.140625 7.59375 
Q 56.25 8.5 59.515625 10.40625 
z
" id="DejaVuSans-71"/>
     </defs>
     <g transform="translate(230.693098 200.09963)rotate(-12.33875)scale(0.08 -0.08)">
      <use xlink:href="#DejaVuSans-71"/>
     </g>
    </g>
   </g>
   <g id="text_13">
    <g id="patch_14">
     <path clip-path="url(#pa9ddff9124)" d="M 191.602488 250.829335 
L 191.602488 286.114335 
Q 191.602488 288.514335 194.002488 288.514335 
L 201.744988 288.514335 
Q 204.144988 288.514335 204.144988 286.114335 
L 204.144988 250.829335 
Q 204.144988 248.429335 201.744988 248.429335 
L 194.002488 248.429335 
Q 191.602488 248.429335 191.602488 250.829335 
z
" style="fill:#ffffff;stroke:#ffffff;stroke-linejoin:miter;"/>
    </g>
    <g clip-path="url(#pa9ddff9124)">
     <!-- Terminal -->
     <defs>
      <path d="M -0.296875 72.90625 
L 61.375 72.90625 
L 61.375 64.59375 
L 35.5 64.59375 
L 35.5 0 
L 25.59375 0 
L 25.59375 64.59375 
L -0.296875 64.59375 
z
" id="DejaVuSans-84"/>
      <path d="M 56.203125 29.59375 
L 56.203125 25.203125 
L 14.890625 25.203125 
Q 15.484375 15.921875 20.484375 11.0625 
Q 25.484375 6.203125 34.421875 6.203125 
Q 39.59375 6.203125 44.453125 7.46875 
Q 49.3125 8.734375 54.109375 11.28125 
L 54.109375 2.78125 
Q 49.265625 0.734375 44.1875 -0.34375 
Q 39.109375 -1.421875 33.890625 -1.421875 
Q 20.796875 -1.421875 13.15625 6.1875 
Q 5.515625 13.8125 5.515625 26.8125 
Q 5.515625 40.234375 12.765625 48.109375 
Q 20.015625 56 32.328125 56 
Q 43.359375 56 49.78125 48.890625 
Q 56.203125 41.796875 56.203125 29.59375 
z
M 47.21875 32.234375 
Q 47.125 39.59375 43.09375 43.984375 
Q 39.0625 48.390625 32.421875 48.390625 
Q 24.90625 48.390625 20.390625 44.140625 
Q 15.875 39.890625 15.1875 32.171875 
z
" id="DejaVuSans-101"/>
      <path d="M 41.109375 46.296875 
Q 39.59375 47.171875 37.8125 47.578125 
Q 36.03125 48 33.890625 48 
Q 26.265625 48 22.1875 43.046875 
Q 18.109375 38.09375 18.109375 28.8125 
L 18.109375 0 
L 9.078125 0 
L 9.078125 54.6875 
L 18.109375 54.6875 
L 18.109375 46.1875 
Q 20.953125 51.171875 25.484375 53.578125 
Q 30.03125 56 36.53125 56 
Q 37.453125 56 38.578125 55.875 
Q 39.703125 55.765625 41.0625 55.515625 
z
" id="DejaVuSans-114"/>
      <path d="M 52 44.1875 
Q 55.375 50.25 60.0625 53.125 
Q 64.75 56 71.09375 56 
Q 79.640625 56 84.28125 50.015625 
Q 88.921875 44.046875 88.921875 33.015625 
L 88.921875 0 
L 79.890625 0 
L 79.890625 32.71875 
Q 79.890625 40.578125 77.09375 44.375 
Q 74.3125 48.1875 68.609375 48.1875 
Q 61.625 48.1875 57.5625 43.546875 
Q 53.515625 38.921875 53.515625 30.90625 
L 53.515625 0 
L 44.484375 0 
L 44.484375 32.71875 
Q 44.484375 40.625 41.703125 44.40625 
Q 38.921875 48.1875 33.109375 48.1875 
Q 26.21875 48.1875 22.15625 43.53125 
Q 18.109375 38.875 18.109375 30.90625 
L 18.109375 0 
L 9.078125 0 
L 9.078125 54.6875 
L 18.109375 54.6875 
L 18.109375 46.1875 
Q 21.1875 51.21875 25.484375 53.609375 
Q 29.78125 56 35.6875 56 
Q 41.65625 56 45.828125 52.96875 
Q 50 49.953125 52 44.1875 
z
" id="DejaVuSans-109"/>
      <path d="M 9.421875 54.6875 
L 18.40625 54.6875 
L 18.40625 0 
L 9.421875 0 
z
M 9.421875 75.984375 
L 18.40625 75.984375 
L 18.40625 64.59375 
L 9.421875 64.59375 
z
" id="DejaVuSans-105"/>
      <path d="M 54.890625 33.015625 
L 54.890625 0 
L 45.90625 0 
L 45.90625 32.71875 
Q 45.90625 40.484375 42.875 44.328125 
Q 39.84375 48.1875 33.796875 48.1875 
Q 26.515625 48.1875 22.3125 43.546875 
Q 18.109375 38.921875 18.109375 30.90625 
L 18.109375 0 
L 9.078125 0 
L 9.078125 54.6875 
L 18.109375 54.6875 
L 18.109375 46.1875 
Q 21.34375 51.125 25.703125 53.5625 
Q 30.078125 56 35.796875 56 
Q 45.21875 56 50.046875 50.171875 
Q 54.890625 44.34375 54.890625 33.015625 
z
" id="DejaVuSans-110"/>
      <path d="M 34.28125 27.484375 
Q 23.390625 27.484375 19.1875 25 
Q 14.984375 22.515625 14.984375 16.5 
Q 14.984375 11.71875 18.140625 8.90625 
Q 21.296875 6.109375 26.703125 6.109375 
Q 34.1875 6.109375 38.703125 11.40625 
Q 43.21875 16.703125 43.21875 25.484375 
L 43.21875 27.484375 
z
M 52.203125 31.203125 
L 52.203125 0 
L 43.21875 0 
L 43.21875 8.296875 
Q 40.140625 3.328125 35.546875 0.953125 
Q 30.953125 -1.421875 24.3125 -1.421875 
Q 15.921875 -1.421875 10.953125 3.296875 
Q 6 8.015625 6 15.921875 
Q 6 25.140625 12.171875 29.828125 
Q 18.359375 34.515625 30.609375 34.515625 
L 43.21875 34.515625 
L 43.21875 35.40625 
Q 43.21875 41.609375 39.140625 45 
Q 35.0625 48.390625 27.6875 48.390625 
Q 23 48.390625 18.546875 47.265625 
Q 14.109375 46.140625 10.015625 43.890625 
L 10.015625 52.203125 
Q 14.9375 54.109375 19.578125 55.046875 
Q 24.21875 56 28.609375 56 
Q 40.484375 56 46.34375 49.84375 
Q 52.203125 43.703125 52.203125 31.203125 
z
" id="DejaVuSans-97"/>
      <path d="M 9.421875 75.984375 
L 18.40625 75.984375 
L 18.40625 0 
L 9.421875 0 
z
" id="DejaVuSans-108"/>
     </defs>
     <g transform="translate(195.666238 250.829335)rotate(-270)scale(0.08 -0.08)">
      <use xlink:href="#DejaVuSans-84"/>
      <use x="60.818359" xlink:href="#DejaVuSans-101"/>
      <use x="122.341797" xlink:href="#DejaVuSans-114"/>
      <use x="163.439453" xlink:href="#DejaVuSans-109"/>
      <use x="260.851562" xlink:href="#DejaVuSans-105"/>
      <use x="288.634766" xlink:href="#DejaVuSans-110"/>
      <use x="352.013672" xlink:href="#DejaVuSans-97"/>
      <use x="413.292969" xlink:href="#DejaVuSans-108"/>
     </g>
    </g>
   </g>
   <g id="text_14">
    <g id="patch_15">
     <path clip-path="url(#pa9ddff9124)" d="M 276.503498 250.829335 
L 276.503498 286.114335 
Q 276.503498 288.514335 278.903498 288.514335 
L 286.645998 288.514335 
Q 289.045998 288.514335 289.045998 286.114335 
L 289.045998 250.829335 
Q 289.045998 248.429335 286.645998 248.429335 
L 278.903498 248.429335 
Q 276.503498 248.429335 276.503498 250.829335 
z
" style="fill:#ffffff;stroke:#ffffff;stroke-linejoin:miter;"/>
    </g>
    <g clip-path="url(#pa9ddff9124)">
     <!-- Terminal -->
     <g transform="translate(280.567248 250.829335)rotate(-270)scale(0.08 -0.08)">
      <use xlink:href="#DejaVuSans-84"/>
      <use x="60.818359" xlink:href="#DejaVuSans-101"/>
      <use x="122.341797" xlink:href="#DejaVuSans-114"/>
      <use x="163.439453" xlink:href="#DejaVuSans-109"/>
      <use x="260.851562" xlink:href="#DejaVuSans-105"/>
      <use x="288.634766" xlink:href="#DejaVuSans-110"/>
      <use x="352.013672" xlink:href="#DejaVuSans-97"/>
      <use x="413.292969" xlink:href="#DejaVuSans-108"/>
     </g>
    </g>
   </g>
   <g id="text_15">
    <g id="patch_16">
     <path clip-path="url(#pa9ddff9124)" d="M 369.575464 203.872064 
L 373.834933 200.300422 
Q 375.673967 198.75836 374.131904 196.919327 
L 369.157146 190.986529 
Q 367.615084 189.147496 365.776051 190.689558 
L 361.516582 194.2612 
Q 359.677548 195.803262 361.219611 197.642295 
L 366.194369 203.575093 
Q 367.736431 205.414127 369.575464 203.872064 
z
" style="fill:#ffffff;stroke:#ffffff;stroke-linejoin:miter;"/>
    </g>
    <g clip-path="url(#pa9ddff9124)">
     <!-- R -->
     <defs>
      <path d="M 44.390625 34.1875 
Q 47.5625 33.109375 50.5625 29.59375 
Q 53.5625 26.078125 56.59375 19.921875 
L 66.609375 0 
L 56 0 
L 46.6875 18.703125 
Q 43.0625 26.03125 39.671875 28.421875 
Q 36.28125 30.8125 30.421875 30.8125 
L 19.671875 30.8125 
L 19.671875 0 
L 9.8125 0 
L 9.8125 72.90625 
L 32.078125 72.90625 
Q 44.578125 72.90625 50.734375 67.671875 
Q 56.890625 62.453125 56.890625 51.90625 
Q 56.890625 45.015625 53.6875 40.46875 
Q 50.484375 35.9375 44.390625 34.1875 
z
M 19.671875 64.796875 
L 19.671875 38.921875 
L 32.078125 38.921875 
Q 39.203125 38.921875 42.84375 42.21875 
Q 46.484375 45.515625 46.484375 51.90625 
Q 46.484375 58.296875 42.84375 61.546875 
Q 39.203125 64.796875 32.078125 64.796875 
z
" id="DejaVuSans-82"/>
     </defs>
     <g transform="translate(366.964399 200.758159)rotate(-39.980438)scale(0.08 -0.08)">
      <use xlink:href="#DejaVuSans-82"/>
     </g>
    </g>
   </g>
   <g id="text_16">
    <g id="patch_17">
     <path clip-path="url(#pa9ddff9124)" d="M 392.992897 202.663496 
L 395.58182 198.321779 
Q 396.810982 196.26043 394.749633 195.031268 
L 388.099634 191.065939 
Q 386.038285 189.836777 384.809123 191.898126 
L 382.2202 196.239843 
Q 380.991038 198.301192 383.052387 199.530354 
L 389.702386 203.495683 
Q 391.763735 204.724845 392.992897 202.663496 
z
" style="fill:#ffffff;stroke:#ffffff;stroke-linejoin:miter;"/>
    </g>
    <g clip-path="url(#pa9ddff9124)">
     <!-- E -->
     <defs>
      <path d="M 9.8125 72.90625 
L 55.90625 72.90625 
L 55.90625 64.59375 
L 19.671875 64.59375 
L 19.671875 43.015625 
L 54.390625 43.015625 
L 54.390625 34.71875 
L 19.671875 34.71875 
L 19.671875 8.296875 
L 56.78125 8.296875 
L 56.78125 0 
L 9.8125 0 
z
" id="DejaVuSans-69"/>
     </defs>
     <g transform="translate(389.50256 200.582243)rotate(-59.192793)scale(0.08 -0.08)">
      <use xlink:href="#DejaVuSans-69"/>
     </g>
    </g>
   </g>
   <g id="text_17">
    <g id="patch_18">
     <path clip-path="url(#pa9ddff9124)" d="M 403.855012 194.487686 
L 403.855012 200.073936 
Q 403.855012 202.473936 406.255012 202.473936 
L 413.997512 202.473936 
Q 416.397512 202.473936 416.397512 200.073936 
L 416.397512 194.487686 
Q 416.397512 192.087686 413.997512 192.087686 
L 406.255012 192.087686 
Q 403.855012 192.087686 403.855012 194.487686 
z
" style="fill:#ffffff;stroke:#ffffff;stroke-linejoin:miter;"/>
    </g>
    <g clip-path="url(#pa9ddff9124)">
     <!-- C -->
     <defs>
      <path d="M 64.40625 67.28125 
L 64.40625 56.890625 
Q 59.421875 61.53125 53.78125 63.8125 
Q 48.140625 66.109375 41.796875 66.109375 
Q 29.296875 66.109375 22.65625 58.46875 
Q 16.015625 50.828125 16.015625 36.375 
Q 16.015625 21.96875 22.65625 14.328125 
Q 29.296875 6.6875 41.796875 6.6875 
Q 48.140625 6.6875 53.78125 8.984375 
Q 59.421875 11.28125 64.40625 15.921875 
L 64.40625 5.609375 
Q 59.234375 2.09375 53.4375 0.328125 
Q 47.65625 -1.421875 41.21875 -1.421875 
Q 24.65625 -1.421875 15.125 8.703125 
Q 5.609375 18.84375 5.609375 36.375 
Q 5.609375 53.953125 15.125 64.078125 
Q 24.65625 74.21875 41.21875 74.21875 
Q 47.75 74.21875 53.53125 72.484375 
Q 59.328125 70.75 64.40625 67.28125 
z
" id="DejaVuSans-67"/>
     </defs>
     <g transform="translate(407.918762 194.487686)rotate(-270)scale(0.08 -0.08)">
      <use xlink:href="#DejaVuSans-67"/>
     </g>
    </g>
   </g>
   <g id="text_18">
    <g id="patch_19">
     <path clip-path="url(#pa9ddff9124)" d="M 424.670705 198.321779 
L 427.259628 202.663496 
Q 428.48879 204.724845 430.550139 203.495683 
L 437.200138 199.530354 
Q 439.261487 198.301192 438.032325 196.239843 
L 435.443402 191.898126 
Q 434.21424 189.836777 432.152891 191.065939 
L 425.502892 195.031268 
Q 423.441543 196.26043 424.670705 198.321779 
z
" style="fill:#ffffff;stroke:#ffffff;stroke-linejoin:miter;"/>
    </g>
    <g clip-path="url(#pa9ddff9124)">
     <!-- E -->
     <g transform="translate(428.161042 196.240526)rotate(-300.807207)scale(0.08 -0.08)">
      <use xlink:href="#DejaVuSans-69"/>
     </g>
    </g>
   </g>
   <g id="text_19">
    <g id="patch_20">
     <path clip-path="url(#pa9ddff9124)" d="M 446.304089 200.205248 
L 450.790564 203.967238 
Q 452.629597 205.509301 454.171659 203.670267 
L 459.146417 197.73747 
Q 460.68848 195.898436 458.849446 194.356374 
L 454.362971 190.594384 
Q 452.523938 189.052321 450.981876 190.891355 
L 446.007118 196.824153 
Q 444.465055 198.663186 446.304089 200.205248 
z
" style="fill:#ffffff;stroke:#ffffff;stroke-linejoin:miter;"/>
    </g>
    <g clip-path="url(#pa9ddff9124)">
     <!-- U -->
     <g transform="translate(448.915154 197.091344)rotate(-320.019562)scale(0.08 -0.08)">
      <use xlink:href="#DejaVuSans-85"/>
     </g>
    </g>
   </g>
   <g id="text_20">
    <g id="patch_21">
     <path clip-path="url(#pa9ddff9124)" d="M 318.954002 250.829335 
L 318.954002 286.114335 
Q 318.954002 288.514335 321.354002 288.514335 
L 329.096502 288.514335 
Q 331.496502 288.514335 331.496502 286.114335 
L 331.496502 250.829335 
Q 331.496502 248.429335 329.096502 248.429335 
L 321.354002 248.429335 
Q 318.954002 248.429335 318.954002 250.829335 
z
" style="fill:#ffffff;stroke:#ffffff;stroke-linejoin:miter;"/>
    </g>
    <g clip-path="url(#pa9ddff9124)">
     <!-- Terminal -->
     <g transform="translate(323.017752 250.829335)rotate(-270)scale(0.08 -0.08)">
      <use xlink:href="#DejaVuSans-84"/>
      <use x="60.818359" xlink:href="#DejaVuSans-101"/>
      <use x="122.341797" xlink:href="#DejaVuSans-114"/>
      <use x="163.439453" xlink:href="#DejaVuSans-109"/>
      <use x="260.851562" xlink:href="#DejaVuSans-105"/>
      <use x="288.634766" xlink:href="#DejaVuSans-110"/>
      <use x="352.013672" xlink:href="#DejaVuSans-97"/>
      <use x="413.292969" xlink:href="#DejaVuSans-108"/>
     </g>
    </g>
   </g>
   <g id="text_21">
    <g id="patch_22">
     <path clip-path="url(#pa9ddff9124)" d="M 361.404507 250.829335 
L 361.404507 286.114335 
Q 361.404507 288.514335 363.804507 288.514335 
L 371.547007 288.514335 
Q 373.947007 288.514335 373.947007 286.114335 
L 373.947007 250.829335 
Q 373.947007 248.429335 371.547007 248.429335 
L 363.804507 248.429335 
Q 361.404507 248.429335 361.404507 250.829335 
z
" style="fill:#ffffff;stroke:#ffffff;stroke-linejoin:miter;"/>
    </g>
    <g clip-path="url(#pa9ddff9124)">
     <!-- Terminal -->
     <g transform="translate(365.468257 250.829335)rotate(-270)scale(0.08 -0.08)">
      <use xlink:href="#DejaVuSans-84"/>
      <use x="60.818359" xlink:href="#DejaVuSans-101"/>
      <use x="122.341797" xlink:href="#DejaVuSans-114"/>
      <use x="163.439453" xlink:href="#DejaVuSans-109"/>
      <use x="260.851562" xlink:href="#DejaVuSans-105"/>
      <use x="288.634766" xlink:href="#DejaVuSans-110"/>
      <use x="352.013672" xlink:href="#DejaVuSans-97"/>
      <use x="413.292969" xlink:href="#DejaVuSans-108"/>
     </g>
    </g>
   </g>
   <g id="text_22">
    <g id="patch_23">
     <path clip-path="url(#pa9ddff9124)" d="M 403.855012 250.829335 
L 403.855012 286.114335 
Q 403.855012 288.514335 406.255012 288.514335 
L 413.997512 288.514335 
Q 416.397512 288.514335 416.397512 286.114335 
L 416.397512 250.829335 
Q 416.397512 248.429335 413.997512 248.429335 
L 406.255012 248.429335 
Q 403.855012 248.429335 403.855012 250.829335 
z
" style="fill:#ffffff;stroke:#ffffff;stroke-linejoin:miter;"/>
    </g>
    <g clip-path="url(#pa9ddff9124)">
     <!-- Terminal -->
     <g transform="translate(407.918762 250.829335)rotate(-270)scale(0.08 -0.08)">
      <use xlink:href="#DejaVuSans-84"/>
      <use x="60.818359" xlink:href="#DejaVuSans-101"/>
      <use x="122.341797" xlink:href="#DejaVuSans-114"/>
      <use x="163.439453" xlink:href="#DejaVuSans-109"/>
      <use x="260.851562" xlink:href="#DejaVuSans-105"/>
      <use x="288.634766" xlink:href="#DejaVuSans-110"/>
      <use x="352.013672" xlink:href="#DejaVuSans-97"/>
      <use x="413.292969" xlink:href="#DejaVuSans-108"/>
     </g>
    </g>
   </g>
   <g id="text_23">
    <g id="patch_24">
     <path clip-path="url(#pa9ddff9124)" d="M 446.305517 250.829335 
L 446.305517 286.114335 
Q 446.305517 288.514335 448.705517 288.514335 
L 456.448017 288.514335 
Q 458.848017 288.514335 458.848017 286.114335 
L 458.848017 250.829335 
Q 458.848017 248.429335 456.448017 248.429335 
L 448.705517 248.429335 
Q 446.305517 248.429335 446.305517 250.829335 
z
" style="fill:#ffffff;stroke:#ffffff;stroke-linejoin:miter;"/>
    </g>
    <g clip-path="url(#pa9ddff9124)">
     <!-- Terminal -->
     <g transform="translate(450.369267 250.829335)rotate(-270)scale(0.08 -0.08)">
      <use xlink:href="#DejaVuSans-84"/>
      <use x="60.818359" xlink:href="#DejaVuSans-101"/>
      <use x="122.341797" xlink:href="#DejaVuSans-114"/>
      <use x="163.439453" xlink:href="#DejaVuSans-109"/>
      <use x="260.851562" xlink:href="#DejaVuSans-105"/>
      <use x="288.634766" xlink:href="#DejaVuSans-110"/>
      <use x="352.013672" xlink:href="#DejaVuSans-97"/>
      <use x="413.292969" xlink:href="#DejaVuSans-108"/>
     </g>
    </g>
   </g>
   <g id="text_24">
    <g id="patch_25">
     <path clip-path="url(#pa9ddff9124)" d="M 21.800468 250.829335 
L 21.800468 286.114335 
Q 21.800468 288.514335 24.200468 288.514335 
L 31.942968 288.514335 
Q 34.342968 288.514335 34.342968 286.114335 
L 34.342968 250.829335 
Q 34.342968 248.429335 31.942968 248.429335 
L 24.200468 248.429335 
Q 21.800468 248.429335 21.800468 250.829335 
z
" style="fill:#ffffff;stroke:#ffffff;stroke-linejoin:miter;"/>
    </g>
    <g clip-path="url(#pa9ddff9124)">
     <!-- Terminal -->
     <g transform="translate(25.864218 250.829335)rotate(-270)scale(0.08 -0.08)">
      <use xlink:href="#DejaVuSans-84"/>
      <use x="60.818359" xlink:href="#DejaVuSans-101"/>
      <use x="122.341797" xlink:href="#DejaVuSans-114"/>
      <use x="163.439453" xlink:href="#DejaVuSans-109"/>
      <use x="260.851562" xlink:href="#DejaVuSans-105"/>
      <use x="288.634766" xlink:href="#DejaVuSans-110"/>
      <use x="352.013672" xlink:href="#DejaVuSans-97"/>
      <use x="413.292969" xlink:href="#DejaVuSans-108"/>
     </g>
    </g>
   </g>
   <g id="text_25">
    <g id="patch_26">
     <path clip-path="url(#pa9ddff9124)" d="M 64.250973 250.829335 
L 64.250973 286.114335 
Q 64.250973 288.514335 66.650973 288.514335 
L 74.393473 288.514335 
Q 76.793473 288.514335 76.793473 286.114335 
L 76.793473 250.829335 
Q 76.793473 248.429335 74.393473 248.429335 
L 66.650973 248.429335 
Q 64.250973 248.429335 64.250973 250.829335 
z
" style="fill:#ffffff;stroke:#ffffff;stroke-linejoin:miter;"/>
    </g>
    <g clip-path="url(#pa9ddff9124)">
     <!-- Terminal -->
     <g transform="translate(68.314723 250.829335)rotate(-270)scale(0.08 -0.08)">
      <use xlink:href="#DejaVuSans-84"/>
      <use x="60.818359" xlink:href="#DejaVuSans-101"/>
      <use x="122.341797" xlink:href="#DejaVuSans-114"/>
      <use x="163.439453" xlink:href="#DejaVuSans-109"/>
      <use x="260.851562" xlink:href="#DejaVuSans-105"/>
      <use x="288.634766" xlink:href="#DejaVuSans-110"/>
      <use x="352.013672" xlink:href="#DejaVuSans-97"/>
      <use x="413.292969" xlink:href="#DejaVuSans-108"/>
     </g>
    </g>
   </g>
   <g id="text_26">
    <g id="patch_27">
     <path clip-path="url(#pa9ddff9124)" d="M 106.701478 250.829335 
L 106.701478 286.114335 
Q 106.701478 288.514335 109.101478 288.514335 
L 116.843978 288.514335 
Q 119.243978 288.514335 119.243978 286.114335 
L 119.243978 250.829335 
Q 119.243978 248.429335 116.843978 248.429335 
L 109.101478 248.429335 
Q 106.701478 248.429335 106.701478 250.829335 
z
" style="fill:#ffffff;stroke:#ffffff;stroke-linejoin:miter;"/>
    </g>
    <g clip-path="url(#pa9ddff9124)">
     <!-- Terminal -->
     <g transform="translate(110.765228 250.829335)rotate(-270)scale(0.08 -0.08)">
      <use xlink:href="#DejaVuSans-84"/>
      <use x="60.818359" xlink:href="#DejaVuSans-101"/>
      <use x="122.341797" xlink:href="#DejaVuSans-114"/>
      <use x="163.439453" xlink:href="#DejaVuSans-109"/>
      <use x="260.851562" xlink:href="#DejaVuSans-105"/>
      <use x="288.634766" xlink:href="#DejaVuSans-110"/>
      <use x="352.013672" xlink:href="#DejaVuSans-97"/>
      <use x="413.292969" xlink:href="#DejaVuSans-108"/>
     </g>
    </g>
   </g>
   <g id="text_27">
    <g id="patch_28">
     <path clip-path="url(#pa9ddff9124)" d="M 149.151983 250.829335 
L 149.151983 286.114335 
Q 149.151983 288.514335 151.551983 288.514335 
L 159.294483 288.514335 
Q 161.694483 288.514335 161.694483 286.114335 
L 161.694483 250.829335 
Q 161.694483 248.429335 159.294483 248.429335 
L 151.551983 248.429335 
Q 149.151983 248.429335 149.151983 250.829335 
z
" style="fill:#ffffff;stroke:#ffffff;stroke-linejoin:miter;"/>
    </g>
    <g clip-path="url(#pa9ddff9124)">
     <!-- Terminal -->
     <g transform="translate(153.215733 250.829335)rotate(-270)scale(0.08 -0.08)">
      <use xlink:href="#DejaVuSans-84"/>
      <use x="60.818359" xlink:href="#DejaVuSans-101"/>
      <use x="122.341797" xlink:href="#DejaVuSans-114"/>
      <use x="163.439453" xlink:href="#DejaVuSans-109"/>
      <use x="260.851562" xlink:href="#DejaVuSans-105"/>
      <use x="288.634766" xlink:href="#DejaVuSans-110"/>
      <use x="352.013672" xlink:href="#DejaVuSans-97"/>
      <use x="413.292969" xlink:href="#DejaVuSans-108"/>
     </g>
    </g>
   </g>
   <g id="text_28">
    <g id="patch_29">
     <path clip-path="url(#pa9ddff9124)" d="M 234.052993 250.829335 
L 234.052993 286.114335 
Q 234.052993 288.514335 236.452993 288.514335 
L 244.195493 288.514335 
Q 246.595493 288.514335 246.595493 286.114335 
L 246.595493 250.829335 
Q 246.595493 248.429335 244.195493 248.429335 
L 236.452993 248.429335 
Q 234.052993 248.429335 234.052993 250.829335 
z
" style="fill:#ffffff;stroke:#ffffff;stroke-linejoin:miter;"/>
    </g>
    <g clip-path="url(#pa9ddff9124)">
     <!-- Terminal -->
     <g transform="translate(238.116743 250.829335)rotate(-270)scale(0.08 -0.08)">
      <use xlink:href="#DejaVuSans-84"/>
      <use x="60.818359" xlink:href="#DejaVuSans-101"/>
      <use x="122.341797" xlink:href="#DejaVuSans-114"/>
      <use x="163.439453" xlink:href="#DejaVuSans-109"/>
      <use x="260.851562" xlink:href="#DejaVuSans-105"/>
      <use x="288.634766" xlink:href="#DejaVuSans-110"/>
      <use x="352.013672" xlink:href="#DejaVuSans-97"/>
      <use x="413.292969" xlink:href="#DejaVuSans-108"/>
     </g>
    </g>
   </g>
   <g id="text_29">
    <g id="patch_30">
     <path clip-path="url(#pa9ddff9124)" d="M 488.756022 250.829335 
L 488.756022 286.114335 
Q 488.756022 288.514335 491.156022 288.514335 
L 498.898522 288.514335 
Q 501.298522 288.514335 501.298522 286.114335 
L 501.298522 250.829335 
Q 501.298522 248.429335 498.898522 248.429335 
L 491.156022 248.429335 
Q 488.756022 248.429335 488.756022 250.829335 
z
" style="fill:#ffffff;stroke:#ffffff;stroke-linejoin:miter;"/>
    </g>
    <g clip-path="url(#pa9ddff9124)">
     <!-- Terminal -->
     <g transform="translate(492.819772 250.829335)rotate(-270)scale(0.08 -0.08)">
      <use xlink:href="#DejaVuSans-84"/>
      <use x="60.818359" xlink:href="#DejaVuSans-101"/>
      <use x="122.341797" xlink:href="#DejaVuSans-114"/>
      <use x="163.439453" xlink:href="#DejaVuSans-109"/>
      <use x="260.851562" xlink:href="#DejaVuSans-105"/>
      <use x="288.634766" xlink:href="#DejaVuSans-110"/>
      <use x="352.013672" xlink:href="#DejaVuSans-97"/>
      <use x="413.292969" xlink:href="#DejaVuSans-108"/>
     </g>
    </g>
   </g>
   <g id="PathCollection_1">
    <defs>
     <path d="M 0 8.660254 
C 2.296726 8.660254 4.499694 7.747755 6.123724 6.123724 
C 7.747755 4.499694 8.660254 2.296726 8.660254 0 
C 8.660254 -2.296726 7.747755 -4.499694 6.123724 -6.123724 
C 4.499694 -7.747755 2.296726 -8.660254 0 -8.660254 
C -2.296726 -8.660254 -4.499694 -7.747755 -6.123724 -6.123724 
C -7.747755 -4.499694 -8.660254 -2.296726 -8.660254 0 
C -8.660254 2.296726 -7.747755 4.499694 -6.123724 6.123724 
C -4.499694 7.747755 -2.296726 8.660254 0 8.660254 
z
" id="C0_0_35f628b73a"/>
    </defs>
    <g clip-path="url(#pa9ddff9124)">
     <use style="fill:#ffffff;stroke:#ffffff;" x="28.071718" xlink:href="#C0_0_35f628b73a" y="304.067348"/>
    </g>
    <g clip-path="url(#pa9ddff9124)">
     <use style="fill:#ffffff;stroke:#ffffff;" x="70.522223" xlink:href="#C0_0_35f628b73a" y="304.067348"/>
    </g>
    <g clip-path="url(#pa9ddff9124)">
     <use style="fill:#ffffff;stroke:#ffffff;" x="112.972728" xlink:href="#C0_0_35f628b73a" y="304.067348"/>
    </g>
    <g clip-path="url(#pa9ddff9124)">
     <use style="fill:#ffffff;stroke:#ffffff;" x="155.423233" xlink:href="#C0_0_35f628b73a" y="304.067348"/>
    </g>
    <g clip-path="url(#pa9ddff9124)">
     <use style="fill:#ffffff;stroke:#ffffff;" x="197.873738" xlink:href="#C0_0_35f628b73a" y="304.067348"/>
    </g>
    <g clip-path="url(#pa9ddff9124)">
     <use style="fill:#ffffff;stroke:#ffffff;" x="240.324243" xlink:href="#C0_0_35f628b73a" y="304.067348"/>
    </g>
    <g clip-path="url(#pa9ddff9124)">
     <use style="fill:#ffffff;stroke:#ffffff;" x="282.774748" xlink:href="#C0_0_35f628b73a" y="304.067348"/>
    </g>
    <g clip-path="url(#pa9ddff9124)">
     <use style="fill:#ffffff;stroke:#ffffff;" x="325.225252" xlink:href="#C0_0_35f628b73a" y="304.067348"/>
    </g>
    <g clip-path="url(#pa9ddff9124)">
     <use style="fill:#ffffff;stroke:#ffffff;" x="367.675757" xlink:href="#C0_0_35f628b73a" y="304.067348"/>
    </g>
    <g clip-path="url(#pa9ddff9124)">
     <use style="fill:#ffffff;stroke:#ffffff;" x="410.126262" xlink:href="#C0_0_35f628b73a" y="304.067348"/>
    </g>
    <g clip-path="url(#pa9ddff9124)">
     <use style="fill:#ffffff;stroke:#ffffff;" x="452.576767" xlink:href="#C0_0_35f628b73a" y="304.067348"/>
    </g>
    <g clip-path="url(#pa9ddff9124)">
     <use style="fill:#ffffff;stroke:#ffffff;" x="495.027272" xlink:href="#C0_0_35f628b73a" y="304.067348"/>
    </g>
    <g clip-path="url(#pa9ddff9124)">
     <use style="fill:#ffffff;stroke:#ffffff;" x="227.942845" xlink:href="#C0_0_35f628b73a" y="15.932652"/>
    </g>
    <g clip-path="url(#pa9ddff9124)">
     <use style="fill:#ffffff;stroke:#ffffff;" x="227.942845" xlink:href="#C0_0_35f628b73a" y="89.503929"/>
    </g>
    <g clip-path="url(#pa9ddff9124)">
     <use style="fill:#ffffff;stroke:#ffffff;" x="395.976094" xlink:href="#C0_0_35f628b73a" y="161.685299"/>
    </g>
    <g clip-path="url(#pa9ddff9124)">
     <use style="fill:#ffffff;stroke:#ffffff;" x="197.873738" xlink:href="#C0_0_35f628b73a" y="232.876323"/>
    </g>
    <g clip-path="url(#pa9ddff9124)">
     <use style="fill:#ffffff;stroke:#ffffff;" x="282.774748" xlink:href="#C0_0_35f628b73a" y="232.876323"/>
    </g>
    <g clip-path="url(#pa9ddff9124)">
     <use style="fill:#ffffff;stroke:#ffffff;" x="410.126262" xlink:href="#C0_0_35f628b73a" y="161.685299"/>
    </g>
    <g clip-path="url(#pa9ddff9124)">
     <use style="fill:#ffffff;stroke:#ffffff;" x="325.225252" xlink:href="#C0_0_35f628b73a" y="232.876323"/>
    </g>
    <g clip-path="url(#pa9ddff9124)">
     <use style="fill:#ffffff;stroke:#ffffff;" x="367.675757" xlink:href="#C0_0_35f628b73a" y="232.876323"/>
    </g>
    <g clip-path="url(#pa9ddff9124)">
     <use style="fill:#ffffff;stroke:#ffffff;" x="410.126262" xlink:href="#C0_0_35f628b73a" y="232.876323"/>
    </g>
    <g clip-path="url(#pa9ddff9124)">
     <use style="fill:#ffffff;stroke:#ffffff;" x="452.576767" xlink:href="#C0_0_35f628b73a" y="232.876323"/>
    </g>
    <g clip-path="url(#pa9ddff9124)">
     <use style="fill:#ffffff;stroke:#ffffff;" x="28.071718" xlink:href="#C0_0_35f628b73a" y="232.876323"/>
    </g>
    <g clip-path="url(#pa9ddff9124)">
     <use style="fill:#ffffff;stroke:#ffffff;" x="579.928282" xlink:href="#C0_0_35f628b73a" y="304.067348"/>
    </g>
    <g clip-path="url(#pa9ddff9124)">
     <use style="fill:#ffffff;stroke:#ffffff;" x="537.477777" xlink:href="#C0_0_35f628b73a" y="304.067348"/>
    </g>
    <g clip-path="url(#pa9ddff9124)">
     <use style="fill:#ffffff;stroke:#ffffff;" x="70.522223" xlink:href="#C0_0_35f628b73a" y="232.876323"/>
    </g>
    <g clip-path="url(#pa9ddff9124)">
     <use style="fill:#ffffff;stroke:#ffffff;" x="112.972728" xlink:href="#C0_0_35f628b73a" y="232.876323"/>
    </g>
    <g clip-path="url(#pa9ddff9124)">
     <use style="fill:#ffffff;stroke:#ffffff;" x="155.423233" xlink:href="#C0_0_35f628b73a" y="232.876323"/>
    </g>
    <g clip-path="url(#pa9ddff9124)">
     <use style="fill:#ffffff;stroke:#ffffff;" x="240.324243" xlink:href="#C0_0_35f628b73a" y="232.876323"/>
    </g>
    <g clip-path="url(#pa9ddff9124)">
     <use style="fill:#ffffff;stroke:#ffffff;" x="495.027272" xlink:href="#C0_0_35f628b73a" y="232.876323"/>
    </g>
   </g>
   <g id="text_30">
    <g clip-path="url(#pa9ddff9124)">
     <!-- « -->
     <defs>
      <path d="M 51.8125 51.703125 
L 51.8125 42.390625 
L 37.109375 29.296875 
L 51.8125 16.21875 
L 51.8125 6.890625 
L 28.90625 27.296875 
L 28.90625 31.296875 
z
M 30.609375 51.703125 
L 30.609375 42.390625 
L 15.921875 29.296875 
L 30.609375 16.21875 
L 30.609375 6.890625 
L 7.71875 27.296875 
L 7.71875 31.296875 
z
" id="DejaVuSans-171"/>
     </defs>
     <g transform="translate(25.012343 306.826723)scale(0.1 -0.1)">
      <use xlink:href="#DejaVuSans-171"/>
     </g>
    </g>
   </g>
   <g id="text_31">
    <g clip-path="url(#pa9ddff9124)">
     <!-- Conseil -->
     <defs>
      <path d="M 30.609375 48.390625 
Q 23.390625 48.390625 19.1875 42.75 
Q 14.984375 37.109375 14.984375 27.296875 
Q 14.984375 17.484375 19.15625 11.84375 
Q 23.34375 6.203125 30.609375 6.203125 
Q 37.796875 6.203125 41.984375 11.859375 
Q 46.1875 17.53125 46.1875 27.296875 
Q 46.1875 37.015625 41.984375 42.703125 
Q 37.796875 48.390625 30.609375 48.390625 
z
M 30.609375 56 
Q 42.328125 56 49.015625 48.375 
Q 55.71875 40.765625 55.71875 27.296875 
Q 55.71875 13.875 49.015625 6.21875 
Q 42.328125 -1.421875 30.609375 -1.421875 
Q 18.84375 -1.421875 12.171875 6.21875 
Q 5.515625 13.875 5.515625 27.296875 
Q 5.515625 40.765625 12.171875 48.375 
Q 18.84375 56 30.609375 56 
z
" id="DejaVuSans-111"/>
      <path d="M 44.28125 53.078125 
L 44.28125 44.578125 
Q 40.484375 46.53125 36.375 47.5 
Q 32.28125 48.484375 27.875 48.484375 
Q 21.1875 48.484375 17.84375 46.4375 
Q 14.5 44.390625 14.5 40.28125 
Q 14.5 37.15625 16.890625 35.375 
Q 19.28125 33.59375 26.515625 31.984375 
L 29.59375 31.296875 
Q 39.15625 29.25 43.1875 25.515625 
Q 47.21875 21.78125 47.21875 15.09375 
Q 47.21875 7.46875 41.1875 3.015625 
Q 35.15625 -1.421875 24.609375 -1.421875 
Q 20.21875 -1.421875 15.453125 -0.5625 
Q 10.6875 0.296875 5.421875 2 
L 5.421875 11.28125 
Q 10.40625 8.6875 15.234375 7.390625 
Q 20.0625 6.109375 24.8125 6.109375 
Q 31.15625 6.109375 34.5625 8.28125 
Q 37.984375 10.453125 37.984375 14.40625 
Q 37.984375 18.0625 35.515625 20.015625 
Q 33.0625 21.96875 24.703125 23.78125 
L 21.578125 24.515625 
Q 13.234375 26.265625 9.515625 29.90625 
Q 5.8125 33.546875 5.8125 39.890625 
Q 5.8125 47.609375 11.28125 51.796875 
Q 16.75 56 26.8125 56 
Q 31.78125 56 36.171875 55.265625 
Q 40.578125 54.546875 44.28125 53.078125 
z
" id="DejaVuSans-115"/>
     </defs>
     <g transform="translate(52.343316 306.826723)scale(0.1 -0.1)">
      <use xlink:href="#DejaVuSans-67"/>
      <use x="69.824219" xlink:href="#DejaVuSans-111"/>
      <use x="131.005859" xlink:href="#DejaVuSans-110"/>
      <use x="194.384766" xlink:href="#DejaVuSans-115"/>
      <use x="246.484375" xlink:href="#DejaVuSans-101"/>
      <use x="308.007812" xlink:href="#DejaVuSans-105"/>
      <use x="335.791016" xlink:href="#DejaVuSans-108"/>
     </g>
    </g>
   </g>
   <g id="text_32">
    <g clip-path="url(#pa9ddff9124)">
     <!-- ! -->
     <defs>
      <path d="M 15.09375 12.40625 
L 25 12.40625 
L 25 0 
L 15.09375 0 
z
M 15.09375 72.90625 
L 25 72.90625 
L 25 40.921875 
L 24.03125 23.484375 
L 16.109375 23.484375 
L 15.09375 40.921875 
z
" id="DejaVuSans-33"/>
     </defs>
     <g transform="translate(110.96804 306.826723)scale(0.1 -0.1)">
      <use xlink:href="#DejaVuSans-33"/>
     </g>
    </g>
   </g>
   <g id="text_33">
    <g clip-path="url(#pa9ddff9124)">
     <!-- » -->
     <defs>
      <path d="M 9.421875 51.703125 
L 32.328125 31.296875 
L 32.328125 27.296875 
L 9.421875 6.890625 
L 9.421875 16.21875 
L 24.125 29.296875 
L 9.421875 42.390625 
z
M 30.609375 51.703125 
L 53.515625 31.296875 
L 53.515625 27.296875 
L 30.609375 6.890625 
L 30.609375 16.21875 
L 45.3125 29.296875 
L 30.609375 42.390625 
z
" id="DejaVuSans-187"/>
     </defs>
     <g transform="translate(152.363858 306.826723)scale(0.1 -0.1)">
      <use xlink:href="#DejaVuSans-187"/>
     </g>
    </g>
   </g>
   <g id="text_34">
    <g clip-path="url(#pa9ddff9124)">
     <!-- criai -->
     <defs>
      <path d="M 48.78125 52.59375 
L 48.78125 44.1875 
Q 44.96875 46.296875 41.140625 47.34375 
Q 37.3125 48.390625 33.40625 48.390625 
Q 24.65625 48.390625 19.8125 42.84375 
Q 14.984375 37.3125 14.984375 27.296875 
Q 14.984375 17.28125 19.8125 11.734375 
Q 24.65625 6.203125 33.40625 6.203125 
Q 37.3125 6.203125 41.140625 7.25 
Q 44.96875 8.296875 48.78125 10.40625 
L 48.78125 2.09375 
Q 45.015625 0.34375 40.984375 -0.53125 
Q 36.96875 -1.421875 32.421875 -1.421875 
Q 20.0625 -1.421875 12.78125 6.34375 
Q 5.515625 14.109375 5.515625 27.296875 
Q 5.515625 40.671875 12.859375 48.328125 
Q 20.21875 56 33.015625 56 
Q 37.15625 56 41.109375 55.140625 
Q 45.0625 54.296875 48.78125 52.59375 
z
" id="DejaVuSans-99"/>
     </defs>
     <g transform="translate(187.226863 306.826723)scale(0.1 -0.1)">
      <use xlink:href="#DejaVuSans-99"/>
      <use x="54.980469" xlink:href="#DejaVuSans-114"/>
      <use x="96.09375" xlink:href="#DejaVuSans-105"/>
      <use x="123.876953" xlink:href="#DejaVuSans-97"/>
      <use x="185.15625" xlink:href="#DejaVuSans-105"/>
     </g>
    </g>
   </g>
   <g id="text_35">
    <g clip-path="url(#pa9ddff9124)">
     <!-- - -->
     <defs>
      <path d="M 4.890625 31.390625 
L 31.203125 31.390625 
L 31.203125 23.390625 
L 4.890625 23.390625 
z
" id="DejaVuSans-45"/>
     </defs>
     <g transform="translate(238.520336 306.826723)scale(0.1 -0.1)">
      <use xlink:href="#DejaVuSans-45"/>
     </g>
    </g>
   </g>
   <g id="text_36">
    <g clip-path="url(#pa9ddff9124)">
     <!-- je -->
     <defs>
      <path d="M 9.421875 54.6875 
L 18.40625 54.6875 
L 18.40625 -0.984375 
Q 18.40625 -11.421875 14.421875 -16.109375 
Q 10.453125 -20.796875 1.609375 -20.796875 
L -1.8125 -20.796875 
L -1.8125 -13.1875 
L 0.59375 -13.1875 
Q 5.71875 -13.1875 7.5625 -10.8125 
Q 9.421875 -8.453125 9.421875 -0.984375 
z
M 9.421875 75.984375 
L 18.40625 75.984375 
L 18.40625 64.59375 
L 9.421875 64.59375 
z
" id="DejaVuSans-106"/>
     </defs>
     <g transform="translate(278.309123 306.826723)scale(0.1 -0.1)">
      <use xlink:href="#DejaVuSans-106"/>
      <use x="27.783203" xlink:href="#DejaVuSans-101"/>
     </g>
    </g>
   </g>
   <g id="text_37">
    <g clip-path="url(#pa9ddff9124)">
     <!-- d' -->
     <defs>
      <path d="M 45.40625 46.390625 
L 45.40625 75.984375 
L 54.390625 75.984375 
L 54.390625 0 
L 45.40625 0 
L 45.40625 8.203125 
Q 42.578125 3.328125 38.25 0.953125 
Q 33.9375 -1.421875 27.875 -1.421875 
Q 17.96875 -1.421875 11.734375 6.484375 
Q 5.515625 14.40625 5.515625 27.296875 
Q 5.515625 40.1875 11.734375 48.09375 
Q 17.96875 56 27.875 56 
Q 33.9375 56 38.25 53.625 
Q 42.578125 51.265625 45.40625 46.390625 
z
M 14.796875 27.296875 
Q 14.796875 17.390625 18.875 11.75 
Q 22.953125 6.109375 30.078125 6.109375 
Q 37.203125 6.109375 41.296875 11.75 
Q 45.40625 17.390625 45.40625 27.296875 
Q 45.40625 37.203125 41.296875 42.84375 
Q 37.203125 48.484375 30.078125 48.484375 
Q 22.953125 48.484375 18.875 42.84375 
Q 14.796875 37.203125 14.796875 27.296875 
z
" id="DejaVuSans-100"/>
      <path d="M 17.921875 72.90625 
L 17.921875 45.796875 
L 9.625 45.796875 
L 9.625 72.90625 
z
" id="DejaVuSans-39"/>
     </defs>
     <g transform="translate(320.676815 306.826723)scale(0.1 -0.1)">
      <use xlink:href="#DejaVuSans-100"/>
      <use x="63.476562" xlink:href="#DejaVuSans-39"/>
     </g>
    </g>
   </g>
   <g id="text_38">
    <g clip-path="url(#pa9ddff9124)">
     <!-- une -->
     <defs>
      <path d="M 8.5 21.578125 
L 8.5 54.6875 
L 17.484375 54.6875 
L 17.484375 21.921875 
Q 17.484375 14.15625 20.5 10.265625 
Q 23.53125 6.390625 29.59375 6.390625 
Q 36.859375 6.390625 41.078125 11.03125 
Q 45.3125 15.671875 45.3125 23.6875 
L 45.3125 54.6875 
L 54.296875 54.6875 
L 54.296875 0 
L 45.3125 0 
L 45.3125 8.40625 
Q 42.046875 3.421875 37.71875 1 
Q 33.40625 -1.421875 27.6875 -1.421875 
Q 18.265625 -1.421875 13.375 4.4375 
Q 8.5 10.296875 8.5 21.578125 
z
M 31.109375 56 
z
" id="DejaVuSans-117"/>
     </defs>
     <g transform="translate(358.261695 306.826723)scale(0.1 -0.1)">
      <use xlink:href="#DejaVuSans-117"/>
      <use x="63.378906" xlink:href="#DejaVuSans-110"/>
      <use x="126.757812" xlink:href="#DejaVuSans-101"/>
     </g>
    </g>
   </g>
   <g id="text_39">
    <g clip-path="url(#pa9ddff9124)">
     <!-- voix -->
     <defs>
      <path d="M 2.984375 54.6875 
L 12.5 54.6875 
L 29.59375 8.796875 
L 46.6875 54.6875 
L 56.203125 54.6875 
L 35.6875 0 
L 23.484375 0 
z
" id="DejaVuSans-118"/>
      <path d="M 54.890625 54.6875 
L 35.109375 28.078125 
L 55.90625 0 
L 45.3125 0 
L 29.390625 21.484375 
L 13.484375 0 
L 2.875 0 
L 24.125 28.609375 
L 4.6875 54.6875 
L 15.28125 54.6875 
L 29.78125 35.203125 
L 44.28125 54.6875 
z
" id="DejaVuSans-120"/>
     </defs>
     <g transform="translate(399.759075 306.826723)scale(0.1 -0.1)">
      <use xlink:href="#DejaVuSans-118"/>
      <use x="59.179688" xlink:href="#DejaVuSans-111"/>
      <use x="120.361328" xlink:href="#DejaVuSans-105"/>
      <use x="148.144531" xlink:href="#DejaVuSans-120"/>
     </g>
    </g>
   </g>
   <g id="text_40">
    <g clip-path="url(#pa9ddff9124)">
     <!-- impatiente -->
     <defs>
      <path d="M 18.109375 8.203125 
L 18.109375 -20.796875 
L 9.078125 -20.796875 
L 9.078125 54.6875 
L 18.109375 54.6875 
L 18.109375 46.390625 
Q 20.953125 51.265625 25.265625 53.625 
Q 29.59375 56 35.59375 56 
Q 45.5625 56 51.78125 48.09375 
Q 58.015625 40.1875 58.015625 27.296875 
Q 58.015625 14.40625 51.78125 6.484375 
Q 45.5625 -1.421875 35.59375 -1.421875 
Q 29.59375 -1.421875 25.265625 0.953125 
Q 20.953125 3.328125 18.109375 8.203125 
z
M 48.6875 27.296875 
Q 48.6875 37.203125 44.609375 42.84375 
Q 40.53125 48.484375 33.40625 48.484375 
Q 26.265625 48.484375 22.1875 42.84375 
Q 18.109375 37.203125 18.109375 27.296875 
Q 18.109375 17.390625 22.1875 11.75 
Q 26.265625 6.109375 33.40625 6.109375 
Q 40.53125 6.109375 44.609375 11.75 
Q 48.6875 17.390625 48.6875 27.296875 
z
" id="DejaVuSans-112"/>
      <path d="M 18.3125 70.21875 
L 18.3125 54.6875 
L 36.8125 54.6875 
L 36.8125 47.703125 
L 18.3125 47.703125 
L 18.3125 18.015625 
Q 18.3125 11.328125 20.140625 9.421875 
Q 21.96875 7.515625 27.59375 7.515625 
L 36.8125 7.515625 
L 36.8125 0 
L 27.59375 0 
Q 17.1875 0 13.234375 3.875 
Q 9.28125 7.765625 9.28125 18.015625 
L 9.28125 47.703125 
L 2.6875 47.703125 
L 2.6875 54.6875 
L 9.28125 54.6875 
L 9.28125 70.21875 
z
" id="DejaVuSans-116"/>
     </defs>
     <g transform="translate(425.447861 306.826723)scale(0.1 -0.1)">
      <use xlink:href="#DejaVuSans-105"/>
      <use x="27.783203" xlink:href="#DejaVuSans-109"/>
      <use x="125.195312" xlink:href="#DejaVuSans-112"/>
      <use x="188.671875" xlink:href="#DejaVuSans-97"/>
      <use x="249.951172" xlink:href="#DejaVuSans-116"/>
      <use x="289.160156" xlink:href="#DejaVuSans-105"/>
      <use x="316.943359" xlink:href="#DejaVuSans-101"/>
      <use x="378.466797" xlink:href="#DejaVuSans-110"/>
      <use x="441.845703" xlink:href="#DejaVuSans-116"/>
      <use x="481.054688" xlink:href="#DejaVuSans-101"/>
     </g>
    </g>
   </g>
   <g id="text_41">
    <g clip-path="url(#pa9ddff9124)">
     <!-- . -->
     <defs>
      <path d="M 10.6875 12.40625 
L 21 12.40625 
L 21 0 
L 10.6875 0 
z
" id="DejaVuSans-46"/>
     </defs>
     <g transform="translate(493.43821 306.826723)scale(0.1 -0.1)">
      <use xlink:href="#DejaVuSans-46"/>
     </g>
    </g>
   </g>
   <g id="text_42">
    <g clip-path="url(#pa9ddff9124)">
     <!-- 1.1 -->
     <defs>
      <path d="M 12.40625 8.296875 
L 28.515625 8.296875 
L 28.515625 63.921875 
L 10.984375 60.40625 
L 10.984375 69.390625 
L 28.421875 72.90625 
L 38.28125 72.90625 
L 38.28125 8.296875 
L 54.390625 8.296875 
L 54.390625 0 
L 12.40625 0 
z
" id="DejaVuSans-49"/>
     </defs>
     <g transform="translate(219.991283 18.692027)scale(0.1 -0.1)">
      <use xlink:href="#DejaVuSans-49"/>
      <use x="63.623047" xlink:href="#DejaVuSans-46"/>
      <use x="95.410156" xlink:href="#DejaVuSans-49"/>
     </g>
    </g>
   </g>
   <g id="text_43">
    <g clip-path="url(#pa9ddff9124)">
     <!-- 1.2 -->
     <defs>
      <path d="M 19.1875 8.296875 
L 53.609375 8.296875 
L 53.609375 0 
L 7.328125 0 
L 7.328125 8.296875 
Q 12.9375 14.109375 22.625 23.890625 
Q 32.328125 33.6875 34.8125 36.53125 
Q 39.546875 41.84375 41.421875 45.53125 
Q 43.3125 49.21875 43.3125 52.78125 
Q 43.3125 58.59375 39.234375 62.25 
Q 35.15625 65.921875 28.609375 65.921875 
Q 23.96875 65.921875 18.8125 64.3125 
Q 13.671875 62.703125 7.8125 59.421875 
L 7.8125 69.390625 
Q 13.765625 71.78125 18.9375 73 
Q 24.125 74.21875 28.421875 74.21875 
Q 39.75 74.21875 46.484375 68.546875 
Q 53.21875 62.890625 53.21875 53.421875 
Q 53.21875 48.921875 51.53125 44.890625 
Q 49.859375 40.875 45.40625 35.40625 
Q 44.1875 33.984375 37.640625 27.21875 
Q 31.109375 20.453125 19.1875 8.296875 
z
" id="DejaVuSans-50"/>
     </defs>
     <g transform="translate(219.991283 92.263304)scale(0.1 -0.1)">
      <use xlink:href="#DejaVuSans-49"/>
      <use x="63.623047" xlink:href="#DejaVuSans-46"/>
      <use x="95.410156" xlink:href="#DejaVuSans-50"/>
     </g>
    </g>
   </g>
   <g id="text_44">
    <g clip-path="url(#pa9ddff9124)">
     <!-- 1.3 -->
     <defs>
      <path d="M 40.578125 39.3125 
Q 47.65625 37.796875 51.625 33 
Q 55.609375 28.21875 55.609375 21.1875 
Q 55.609375 10.40625 48.1875 4.484375 
Q 40.765625 -1.421875 27.09375 -1.421875 
Q 22.515625 -1.421875 17.65625 -0.515625 
Q 12.796875 0.390625 7.625 2.203125 
L 7.625 11.71875 
Q 11.71875 9.328125 16.59375 8.109375 
Q 21.484375 6.890625 26.8125 6.890625 
Q 36.078125 6.890625 40.9375 10.546875 
Q 45.796875 14.203125 45.796875 21.1875 
Q 45.796875 27.640625 41.28125 31.265625 
Q 36.765625 34.90625 28.71875 34.90625 
L 20.21875 34.90625 
L 20.21875 43.015625 
L 29.109375 43.015625 
Q 36.375 43.015625 40.234375 45.921875 
Q 44.09375 48.828125 44.09375 54.296875 
Q 44.09375 59.90625 40.109375 62.90625 
Q 36.140625 65.921875 28.71875 65.921875 
Q 24.65625 65.921875 20.015625 65.03125 
Q 15.375 64.15625 9.8125 62.3125 
L 9.8125 71.09375 
Q 15.4375 72.65625 20.34375 73.4375 
Q 25.25 74.21875 29.59375 74.21875 
Q 40.828125 74.21875 47.359375 69.109375 
Q 53.90625 64.015625 53.90625 55.328125 
Q 53.90625 49.265625 50.4375 45.09375 
Q 46.96875 40.921875 40.578125 39.3125 
z
" id="DejaVuSans-51"/>
     </defs>
     <g transform="translate(388.024532 164.444674)scale(0.1 -0.1)">
      <use xlink:href="#DejaVuSans-49"/>
      <use x="63.623047" xlink:href="#DejaVuSans-46"/>
      <use x="95.410156" xlink:href="#DejaVuSans-51"/>
     </g>
    </g>
   </g>
   <g id="text_45">
    <g clip-path="url(#pa9ddff9124)">
     <!-- 1.4 -->
     <defs>
      <path d="M 37.796875 64.3125 
L 12.890625 25.390625 
L 37.796875 25.390625 
z
M 35.203125 72.90625 
L 47.609375 72.90625 
L 47.609375 25.390625 
L 58.015625 25.390625 
L 58.015625 17.1875 
L 47.609375 17.1875 
L 47.609375 0 
L 37.796875 0 
L 37.796875 17.1875 
L 4.890625 17.1875 
L 4.890625 26.703125 
z
" id="DejaVuSans-52"/>
     </defs>
     <g transform="translate(189.922175 235.635698)scale(0.1 -0.1)">
      <use xlink:href="#DejaVuSans-49"/>
      <use x="63.623047" xlink:href="#DejaVuSans-46"/>
      <use x="95.410156" xlink:href="#DejaVuSans-52"/>
     </g>
    </g>
   </g>
   <g id="text_46">
    <g clip-path="url(#pa9ddff9124)">
     <!-- 1.5 -->
     <defs>
      <path d="M 10.796875 72.90625 
L 49.515625 72.90625 
L 49.515625 64.59375 
L 19.828125 64.59375 
L 19.828125 46.734375 
Q 21.96875 47.46875 24.109375 47.828125 
Q 26.265625 48.1875 28.421875 48.1875 
Q 40.625 48.1875 47.75 41.5 
Q 54.890625 34.8125 54.890625 23.390625 
Q 54.890625 11.625 47.5625 5.09375 
Q 40.234375 -1.421875 26.90625 -1.421875 
Q 22.3125 -1.421875 17.546875 -0.640625 
Q 12.796875 0.140625 7.71875 1.703125 
L 7.71875 11.625 
Q 12.109375 9.234375 16.796875 8.0625 
Q 21.484375 6.890625 26.703125 6.890625 
Q 35.15625 6.890625 40.078125 11.328125 
Q 45.015625 15.765625 45.015625 23.390625 
Q 45.015625 31 40.078125 35.4375 
Q 35.15625 39.890625 26.703125 39.890625 
Q 22.75 39.890625 18.8125 39.015625 
Q 14.890625 38.140625 10.796875 36.28125 
z
" id="DejaVuSans-53"/>
     </defs>
     <g transform="translate(274.823185 235.635698)scale(0.1 -0.1)">
      <use xlink:href="#DejaVuSans-49"/>
      <use x="63.623047" xlink:href="#DejaVuSans-46"/>
      <use x="95.410156" xlink:href="#DejaVuSans-53"/>
     </g>
    </g>
   </g>
   <g id="text_47">
    <g clip-path="url(#pa9ddff9124)">
     <!-- 1.6 -->
     <defs>
      <path d="M 33.015625 40.375 
Q 26.375 40.375 22.484375 35.828125 
Q 18.609375 31.296875 18.609375 23.390625 
Q 18.609375 15.53125 22.484375 10.953125 
Q 26.375 6.390625 33.015625 6.390625 
Q 39.65625 6.390625 43.53125 10.953125 
Q 47.40625 15.53125 47.40625 23.390625 
Q 47.40625 31.296875 43.53125 35.828125 
Q 39.65625 40.375 33.015625 40.375 
z
M 52.59375 71.296875 
L 52.59375 62.3125 
Q 48.875 64.0625 45.09375 64.984375 
Q 41.3125 65.921875 37.59375 65.921875 
Q 27.828125 65.921875 22.671875 59.328125 
Q 17.53125 52.734375 16.796875 39.40625 
Q 19.671875 43.65625 24.015625 45.921875 
Q 28.375 48.1875 33.59375 48.1875 
Q 44.578125 48.1875 50.953125 41.515625 
Q 57.328125 34.859375 57.328125 23.390625 
Q 57.328125 12.15625 50.6875 5.359375 
Q 44.046875 -1.421875 33.015625 -1.421875 
Q 20.359375 -1.421875 13.671875 8.265625 
Q 6.984375 17.96875 6.984375 36.375 
Q 6.984375 53.65625 15.1875 63.9375 
Q 23.390625 74.21875 37.203125 74.21875 
Q 40.921875 74.21875 44.703125 73.484375 
Q 48.484375 72.75 52.59375 71.296875 
z
" id="DejaVuSans-54"/>
     </defs>
     <g transform="translate(402.1747 164.444674)scale(0.1 -0.1)">
      <use xlink:href="#DejaVuSans-49"/>
      <use x="63.623047" xlink:href="#DejaVuSans-46"/>
      <use x="95.410156" xlink:href="#DejaVuSans-54"/>
     </g>
    </g>
   </g>
   <g id="text_48">
    <g clip-path="url(#pa9ddff9124)">
     <!-- 1.11 -->
     <g transform="translate(314.09244 235.635698)scale(0.1 -0.1)">
      <use xlink:href="#DejaVuSans-49"/>
      <use x="63.623047" xlink:href="#DejaVuSans-46"/>
      <use x="95.410156" xlink:href="#DejaVuSans-49"/>
      <use x="159.033203" xlink:href="#DejaVuSans-49"/>
     </g>
    </g>
   </g>
   <g id="text_49">
    <g clip-path="url(#pa9ddff9124)">
     <!-- 1.12 -->
     <g transform="translate(356.542945 235.635698)scale(0.1 -0.1)">
      <use xlink:href="#DejaVuSans-49"/>
      <use x="63.623047" xlink:href="#DejaVuSans-46"/>
      <use x="95.410156" xlink:href="#DejaVuSans-49"/>
      <use x="159.033203" xlink:href="#DejaVuSans-50"/>
     </g>
    </g>
   </g>
   <g id="text_50">
    <g clip-path="url(#pa9ddff9124)">
     <!-- 1.13 -->
     <g transform="translate(398.99345 235.635698)scale(0.1 -0.1)">
      <use xlink:href="#DejaVuSans-49"/>
      <use x="63.623047" xlink:href="#DejaVuSans-46"/>
      <use x="95.410156" xlink:href="#DejaVuSans-49"/>
      <use x="159.033203" xlink:href="#DejaVuSans-51"/>
     </g>
    </g>
   </g>
   <g id="text_51">
    <g clip-path="url(#pa9ddff9124)">
     <!-- 1.14 -->
     <g transform="translate(441.443955 235.635698)scale(0.1 -0.1)">
      <use xlink:href="#DejaVuSans-49"/>
      <use x="63.623047" xlink:href="#DejaVuSans-46"/>
      <use x="95.410156" xlink:href="#DejaVuSans-49"/>
      <use x="159.033203" xlink:href="#DejaVuSans-52"/>
     </g>
    </g>
   </g>
   <g id="text_52">
    <g clip-path="url(#pa9ddff9124)">
     <!-- 1.15 -->
     <g transform="translate(16.938905 235.635698)scale(0.1 -0.1)">
      <use xlink:href="#DejaVuSans-49"/>
      <use x="63.623047" xlink:href="#DejaVuSans-46"/>
      <use x="95.410156" xlink:href="#DejaVuSans-49"/>
      <use x="159.033203" xlink:href="#DejaVuSans-53"/>
     </g>
    </g>
   </g>
   <g id="text_53">
    <g clip-path="url(#pa9ddff9124)">
     <!-- IMPLICIT -->
     <defs>
      <path d="M 9.8125 72.90625 
L 19.671875 72.90625 
L 19.671875 0 
L 9.8125 0 
z
" id="DejaVuSans-73"/>
      <path d="M 9.8125 72.90625 
L 24.515625 72.90625 
L 43.109375 23.296875 
L 61.8125 72.90625 
L 76.515625 72.90625 
L 76.515625 0 
L 66.890625 0 
L 66.890625 64.015625 
L 48.09375 14.015625 
L 38.1875 14.015625 
L 19.390625 64.015625 
L 19.390625 0 
L 9.8125 0 
z
" id="DejaVuSans-77"/>
      <path d="M 9.8125 72.90625 
L 19.671875 72.90625 
L 19.671875 8.296875 
L 55.171875 8.296875 
L 55.171875 0 
L 9.8125 0 
z
" id="DejaVuSans-76"/>
     </defs>
     <g transform="translate(558.843126 306.826723)scale(0.1 -0.1)">
      <use xlink:href="#DejaVuSans-73"/>
      <use x="29.492188" xlink:href="#DejaVuSans-77"/>
      <use x="115.771484" xlink:href="#DejaVuSans-80"/>
      <use x="176.074219" xlink:href="#DejaVuSans-76"/>
      <use x="231.787109" xlink:href="#DejaVuSans-73"/>
      <use x="261.279297" xlink:href="#DejaVuSans-67"/>
      <use x="331.103516" xlink:href="#DejaVuSans-73"/>
      <use x="360.595703" xlink:href="#DejaVuSans-84"/>
     </g>
    </g>
   </g>
   <g id="text_54">
    <g clip-path="url(#pa9ddff9124)">
     <!-- IMPLICIT -->
     <g transform="translate(516.392621 306.826723)scale(0.1 -0.1)">
      <use xlink:href="#DejaVuSans-73"/>
      <use x="29.492188" xlink:href="#DejaVuSans-77"/>
      <use x="115.771484" xlink:href="#DejaVuSans-80"/>
      <use x="176.074219" xlink:href="#DejaVuSans-76"/>
      <use x="231.787109" xlink:href="#DejaVuSans-73"/>
      <use x="261.279297" xlink:href="#DejaVuSans-67"/>
      <use x="331.103516" xlink:href="#DejaVuSans-73"/>
      <use x="360.595703" xlink:href="#DejaVuSans-84"/>
     </g>
    </g>
   </g>
   <g id="text_55">
    <g clip-path="url(#pa9ddff9124)">
     <!-- 1.18 -->
     <defs>
      <path d="M 31.78125 34.625 
Q 24.75 34.625 20.71875 30.859375 
Q 16.703125 27.09375 16.703125 20.515625 
Q 16.703125 13.921875 20.71875 10.15625 
Q 24.75 6.390625 31.78125 6.390625 
Q 38.8125 6.390625 42.859375 10.171875 
Q 46.921875 13.96875 46.921875 20.515625 
Q 46.921875 27.09375 42.890625 30.859375 
Q 38.875 34.625 31.78125 34.625 
z
M 21.921875 38.8125 
Q 15.578125 40.375 12.03125 44.71875 
Q 8.5 49.078125 8.5 55.328125 
Q 8.5 64.0625 14.71875 69.140625 
Q 20.953125 74.21875 31.78125 74.21875 
Q 42.671875 74.21875 48.875 69.140625 
Q 55.078125 64.0625 55.078125 55.328125 
Q 55.078125 49.078125 51.53125 44.71875 
Q 48 40.375 41.703125 38.8125 
Q 48.828125 37.15625 52.796875 32.3125 
Q 56.78125 27.484375 56.78125 20.515625 
Q 56.78125 9.90625 50.3125 4.234375 
Q 43.84375 -1.421875 31.78125 -1.421875 
Q 19.734375 -1.421875 13.25 4.234375 
Q 6.78125 9.90625 6.78125 20.515625 
Q 6.78125 27.484375 10.78125 32.3125 
Q 14.796875 37.15625 21.921875 38.8125 
z
M 18.3125 54.390625 
Q 18.3125 48.734375 21.84375 45.5625 
Q 25.390625 42.390625 31.78125 42.390625 
Q 38.140625 42.390625 41.71875 45.5625 
Q 45.3125 48.734375 45.3125 54.390625 
Q 45.3125 60.0625 41.71875 63.234375 
Q 38.140625 66.40625 31.78125 66.40625 
Q 25.390625 66.40625 21.84375 63.234375 
Q 18.3125 60.0625 18.3125 54.390625 
z
" id="DejaVuSans-56"/>
     </defs>
     <g transform="translate(59.38941 235.635698)scale(0.1 -0.1)">
      <use xlink:href="#DejaVuSans-49"/>
      <use x="63.623047" xlink:href="#DejaVuSans-46"/>
      <use x="95.410156" xlink:href="#DejaVuSans-49"/>
      <use x="159.033203" xlink:href="#DejaVuSans-56"/>
     </g>
    </g>
   </g>
   <g id="text_56">
    <g clip-path="url(#pa9ddff9124)">
     <!-- 1.19 -->
     <defs>
      <path d="M 10.984375 1.515625 
L 10.984375 10.5 
Q 14.703125 8.734375 18.5 7.8125 
Q 22.3125 6.890625 25.984375 6.890625 
Q 35.75 6.890625 40.890625 13.453125 
Q 46.046875 20.015625 46.78125 33.40625 
Q 43.953125 29.203125 39.59375 26.953125 
Q 35.25 24.703125 29.984375 24.703125 
Q 19.046875 24.703125 12.671875 31.3125 
Q 6.296875 37.9375 6.296875 49.421875 
Q 6.296875 60.640625 12.9375 67.421875 
Q 19.578125 74.21875 30.609375 74.21875 
Q 43.265625 74.21875 49.921875 64.515625 
Q 56.59375 54.828125 56.59375 36.375 
Q 56.59375 19.140625 48.40625 8.859375 
Q 40.234375 -1.421875 26.421875 -1.421875 
Q 22.703125 -1.421875 18.890625 -0.6875 
Q 15.09375 0.046875 10.984375 1.515625 
z
M 30.609375 32.421875 
Q 37.25 32.421875 41.125 36.953125 
Q 45.015625 41.5 45.015625 49.421875 
Q 45.015625 57.28125 41.125 61.84375 
Q 37.25 66.40625 30.609375 66.40625 
Q 23.96875 66.40625 20.09375 61.84375 
Q 16.21875 57.28125 16.21875 49.421875 
Q 16.21875 41.5 20.09375 36.953125 
Q 23.96875 32.421875 30.609375 32.421875 
z
" id="DejaVuSans-57"/>
     </defs>
     <g transform="translate(101.839915 235.635698)scale(0.1 -0.1)">
      <use xlink:href="#DejaVuSans-49"/>
      <use x="63.623047" xlink:href="#DejaVuSans-46"/>
      <use x="95.410156" xlink:href="#DejaVuSans-49"/>
      <use x="159.033203" xlink:href="#DejaVuSans-57"/>
     </g>
    </g>
   </g>
   <g id="text_57">
    <g clip-path="url(#pa9ddff9124)">
     <!-- 1.20 -->
     <defs>
      <path d="M 31.78125 66.40625 
Q 24.171875 66.40625 20.328125 58.90625 
Q 16.5 51.421875 16.5 36.375 
Q 16.5 21.390625 20.328125 13.890625 
Q 24.171875 6.390625 31.78125 6.390625 
Q 39.453125 6.390625 43.28125 13.890625 
Q 47.125 21.390625 47.125 36.375 
Q 47.125 51.421875 43.28125 58.90625 
Q 39.453125 66.40625 31.78125 66.40625 
z
M 31.78125 74.21875 
Q 44.046875 74.21875 50.515625 64.515625 
Q 56.984375 54.828125 56.984375 36.375 
Q 56.984375 17.96875 50.515625 8.265625 
Q 44.046875 -1.421875 31.78125 -1.421875 
Q 19.53125 -1.421875 13.0625 8.265625 
Q 6.59375 17.96875 6.59375 36.375 
Q 6.59375 54.828125 13.0625 64.515625 
Q 19.53125 74.21875 31.78125 74.21875 
z
" id="DejaVuSans-48"/>
     </defs>
     <g transform="translate(144.29042 235.635698)scale(0.1 -0.1)">
      <use xlink:href="#DejaVuSans-49"/>
      <use x="63.623047" xlink:href="#DejaVuSans-46"/>
      <use x="95.410156" xlink:href="#DejaVuSans-50"/>
      <use x="159.033203" xlink:href="#DejaVuSans-48"/>
     </g>
    </g>
   </g>
   <g id="text_58">
    <g clip-path="url(#pa9ddff9124)">
     <!-- 1.21 -->
     <g transform="translate(229.19143 235.635698)scale(0.1 -0.1)">
      <use xlink:href="#DejaVuSans-49"/>
      <use x="63.623047" xlink:href="#DejaVuSans-46"/>
      <use x="95.410156" xlink:href="#DejaVuSans-50"/>
      <use x="159.033203" xlink:href="#DejaVuSans-49"/>
     </g>
    </g>
   </g>
   <g id="text_59">
    <g clip-path="url(#pa9ddff9124)">
     <!-- 1.22 -->
     <g transform="translate(483.89446 235.635698)scale(0.1 -0.1)">
      <use xlink:href="#DejaVuSans-49"/>
      <use x="63.623047" xlink:href="#DejaVuSans-46"/>
      <use x="95.410156" xlink:href="#DejaVuSans-50"/>
      <use x="159.033203" xlink:href="#DejaVuSans-50"/>
     </g>
    </g>
   </g>
  </g>
 </g>
 <defs>
  <clipPath id="pa9ddff9124">
   <rect height="320" width="608" x="0" y="0"/>
  </clipPath>
 </defs>
</svg>
