<?xml version="1.0" encoding="UTF-8"?>
<!DOCTYPE svg  PUBLIC '-//W3C//DTD SVG 1.1//EN'  'http://www.w3.org/Graphics/SVG/1.1/DTD/svg11.dtd'>
<svg width="1469.3pt" height="773.33pt" version="1.1" viewBox="0 0 1469.3 773.33" xmlns="http://www.w3.org/2000/svg" xmlns:xlink="http://www.w3.org/1999/xlink">
<defs>
<style type="text/css">*{stroke-linecap:butt;stroke-linejoin:round;white-space:pre;}</style>
</defs>
<path d="m0 773.33h1469.3v-773.33h-1469.3z" fill="#fff"/>
<g fill="none" stroke="#000">
<path d="m677.96 35.821-610.98 618.64" clip-path="url(#a)"/>
<path d="m677.96 35.821-230.72 95.231" clip-path="url(#a)"/>
<path d="m677.96 35.821 562.42 365.54" clip-path="url(#a)"/>
<path d="m677.96 35.821 279.27 618.64" clip-path="url(#a)"/>
<path d="m66.977 654.46v83.053" clip-path="url(#a)"/>
<path d="m447.24 131.05-380.26 523.41" clip-path="url(#a)" stroke-dasharray="3.7,1.6"/>
<path d="m447.24 131.05 910.6 606.46" clip-path="url(#a)"/>
<path d="m447.24 131.05-335.75 523.41" clip-path="url(#a)"/>
<path d="m447.24 131.05-194.59 92.507" clip-path="url(#a)"/>
<path d="m1240.4 401.37 161.98 336.15" clip-path="url(#a)"/>
<path d="m1240.4 401.37-186.71 85.83" clip-path="url(#a)"/>
<path d="m1240.4 401.37-60.587 253.09" clip-path="url(#a)"/>
<path d="m1240.4 401.37-16.074 253.09" clip-path="url(#a)"/>
<path d="m1240.4 401.37 28.439 253.09" clip-path="url(#a)"/>
<path d="m1240.4 401.37 72.951 253.09" clip-path="url(#a)"/>
<path d="m1053.7 487.2-51.931 167.26" clip-path="url(#a)"/>
<path d="m1053.7 487.2-7.4188 167.26" clip-path="url(#a)"/>
<path d="m1053.7 487.2 59.35 84.209" clip-path="url(#a)"/>
<path d="m1179.8 654.46v83.053" clip-path="url(#a)"/>
<path d="m1224.3 654.46v83.053" clip-path="url(#a)"/>
<path d="m1268.8 654.46v83.053" clip-path="url(#a)"/>
<path d="m1001.7 654.46v83.053" clip-path="url(#a)"/>
<path d="m1046.3 654.46v83.053" clip-path="url(#a)"/>
<path d="m1113 571.41-22.256 83.053" clip-path="url(#a)"/>
<path d="m1113 571.41 22.256 83.053" clip-path="url(#a)"/>
<path d="m1090.8 654.46v83.053" clip-path="url(#a)"/>
<path d="m1135.3 654.46v83.053" clip-path="url(#a)"/>
<path d="m111.49 654.46v83.053" clip-path="url(#a)"/>
<path d="m252.65 223.56-96.65 430.9" clip-path="url(#a)"/>
<path d="m252.65 223.56-52.138 430.9" clip-path="url(#a)"/>
<path d="m252.65 223.56 148.79 90.021" clip-path="url(#a)"/>
<path d="m156 654.46v83.053" clip-path="url(#a)"/>
<path d="m200.51 654.46v83.053" clip-path="url(#a)"/>
<path d="m401.44 313.58-156.41 340.88" clip-path="url(#a)"/>
<path d="m401.44 313.58-109.43 87.786" clip-path="url(#a)"/>
<path d="m401.44 313.58 110.66 340.88" clip-path="url(#a)"/>
<path d="m401.44 313.58 155.18 87.786" clip-path="url(#a)"/>
<path d="m245.03 654.46v83.053" clip-path="url(#a)"/>
<path d="m292.01 401.37-91.498 253.09" clip-path="url(#a)" stroke-dasharray="3.7,1.6"/>
<path d="m292.01 401.37-2.4729 253.09" clip-path="url(#a)"/>
<path d="m292.01 401.37 93.971 85.83" clip-path="url(#a)"/>
<path d="m512.1 654.46v83.053" clip-path="url(#a)"/>
<path d="m556.62 401.37-356.1 253.09" clip-path="url(#a)" stroke-dasharray="3.7,1.6"/>
<path d="m556.62 401.37v253.09" clip-path="url(#a)"/>
<path d="m556.62 401.37 89.025 170.04" clip-path="url(#a)"/>
<path d="m556.62 401.37 267.08 85.83" clip-path="url(#a)"/>
<path d="m556.62 654.46v83.053" clip-path="url(#a)"/>
<path d="m645.64 571.41-44.513 83.053" clip-path="url(#a)"/>
<path d="m645.64 571.41v83.053" clip-path="url(#a)"/>
<path d="m645.64 571.41 44.513 83.053" clip-path="url(#a)"/>
<path d="m823.69 487.2-89.025 167.26" clip-path="url(#a)"/>
<path d="m823.69 487.2v84.209" clip-path="url(#a)"/>
<path d="m823.69 487.2 89.025 167.26" clip-path="url(#a)"/>
<path d="m734.67 654.46v83.053" clip-path="url(#a)"/>
<path d="m823.69 571.41-44.513 83.053" clip-path="url(#a)"/>
<path d="m823.69 571.41v83.053" clip-path="url(#a)"/>
<path d="m823.69 571.41 44.513 83.053" clip-path="url(#a)"/>
<path d="m912.72 654.46v83.053" clip-path="url(#a)"/>
<path d="m779.18 654.46v83.053" clip-path="url(#a)"/>
<path d="m823.69 654.46v83.053" clip-path="url(#a)"/>
<path d="m868.2 654.46v83.053" clip-path="url(#a)"/>
<path d="m601.13 654.46v83.053" clip-path="url(#a)"/>
<path d="m645.64 654.46v83.053" clip-path="url(#a)"/>
<path d="m690.15 654.46v83.053" clip-path="url(#a)"/>
<path d="m289.54 654.46v83.053" clip-path="url(#a)"/>
<path d="m385.98 487.2-51.931 167.26" clip-path="url(#a)"/>
<path d="m385.98 487.2-7.4188 167.26" clip-path="url(#a)"/>
<path d="m385.98 487.2 59.35 84.209" clip-path="url(#a)"/>
<path d="m334.05 654.46v83.053" clip-path="url(#a)"/>
<path d="m378.57 654.46v83.053" clip-path="url(#a)"/>
<path d="m445.33 571.41-22.256 83.053" clip-path="url(#a)"/>
<path d="m445.33 571.41 22.256 83.053" clip-path="url(#a)"/>
<path d="m423.08 654.46v83.053" clip-path="url(#a)"/>
<path d="m467.59 654.46v83.053" clip-path="url(#a)"/>
<path d="m453.58 313.58-161.56 87.786" clip-path="url(#a)"/>
<path d="m453.58 313.58 58.526 340.88" clip-path="url(#a)"/>
<path d="m453.58 313.58 103.04 87.786" clip-path="url(#a)"/>
<path d="m257.11 35.821-190.13 618.64" clip-path="url(#a)"/>
<path d="m257.11 35.821 190.13 95.231" clip-path="url(#a)"/>
<path d="m957.23 654.46v83.053" clip-path="url(#a)"/>
<path d="m1313.3 654.46v83.053" clip-path="url(#a)"/>
</g>
<path d="m375.36 351.13 3.1322-3.1715q1.6865-1.7076-0.021137-3.394l-5.5088-5.4406q-1.7076-1.6865-3.394 0.021136l-3.1322 3.1715q-1.6865 1.7076 0.021136 3.394l5.5088 5.4406q1.7076 1.6865 3.394-0.021136z" clip-path="url(#a)" fill="#fff" stroke="#fff"/>
<g clip-path="url(#a)">
<defs>
<path id="u" d="m9.8125 72.906h9.8594v-64.609h35.5v-8.2969h-45.359z"/>
</defs>
<g transform="translate(372.47 348.28) rotate(-45.357) scale(.08 -.08)">
<use xlink:href="#u"/>
</g>
</g>
<path d="m562.21 90.381 5.5611-2.2954q2.2184-0.9157 1.3028-3.1341l-2.9541-7.1568q-0.9157-2.2184-3.1341-1.3028l-5.5611 2.2954q-2.2184 0.9157-1.3028 3.1341l2.9541 7.1568q0.9157 2.2184 3.1341 1.3028z" clip-path="url(#a)" fill="#fff" stroke="#fff"/>
<g clip-path="url(#a)">
<defs>
<path id="ad" d="m9.8125 72.906h9.8594v-29.891h35.844v29.891h9.8594v-72.906h-9.8594v34.719h-35.844v-34.719h-9.8594z"/>
</defs>
<g transform="translate(560.66 86.625) rotate(-22.429) scale(.08 -.08)">
<use xlink:href="#ad"/>
</g>
</g>
<path d="m953.23 222.21 5.0444 3.2786q2.0123 1.3079 3.3202-0.70442l4.2193-6.4918q1.3079-2.0123-0.70442-3.3202l-5.0444-3.2786q-2.0123-1.3079-3.3202 0.70442l-4.2193 6.4918q-1.3079 2.0123 0.70442 3.3202z" clip-path="url(#a)" fill="#fff" stroke="#fff"/>
<g clip-path="url(#a)">
<g transform="translate(955.44 218.81) rotate(33.022) scale(.08 -.08)">
<use xlink:href="#ad"/>
</g>
</g>
<path d="m810.67 345.05 2.409 5.3364q0.98748 2.1874 3.1749 1.2l7.0568-3.1857q2.1874-0.98748 1.2-3.1749l-2.409-5.3364q-0.98748-2.1874-3.1749-1.2l-7.0568 3.1857q-2.1874 0.98748-1.2 3.1749z" clip-path="url(#a)" fill="#fff" stroke="#fff"/>
<g clip-path="url(#a)">
<defs>
<path id="ak" d="m8.6875 72.906h9.9219v-44.297q0-11.719 4.2344-16.875 4.25-5.1406 13.781-5.1406 9.4688 0 13.719 5.1406 4.25 5.1562 4.25 16.875v44.297h9.9062v-45.516q0-14.25-7.0625-21.531-7.0469-7.2812-20.812-7.2812-13.828 0-20.891 7.2812-7.0469 7.2812-7.0469 21.531z"/>
</defs>
<g transform="translate(814.38 343.38) rotate(65.704) scale(.08 -.08)">
<use xlink:href="#ak"/>
</g>
</g>
<path d="m60.706 678.34v35.285q0 2.4 2.4 2.4h7.7425q2.4 0 2.4-2.4v-35.285q0-2.4-2.4-2.4h-7.7425q-2.4 0-2.4 2.4z" clip-path="url(#a)" fill="#fff" stroke="#fff"/>
<g clip-path="url(#a)">
<defs>
<path id="l" d="m-0.29688 72.906h61.672v-8.3125h-25.875v-64.594h-9.9062v64.594h-25.891z"/>
<path id="d" d="m56.203 29.594v-4.3906h-41.312q0.59375-9.2812 5.5938-14.141t13.938-4.8594q5.1719 0 10.031 1.2656t9.6562 3.8125v-8.5q-4.8438-2.0469-9.9219-3.125t-10.297-1.0781q-13.094 0-20.734 7.6094-7.6406 7.625-7.6406 20.625 0 13.422 7.25 21.297 7.25 7.8906 19.562 7.8906 11.031 0 17.453-7.1094 6.4219-7.0938 6.4219-19.297zm-8.9844 2.6406q-0.09375 7.3594-4.125 11.75-4.0312 4.4062-10.672 4.4062-7.5156 0-12.031-4.25t-5.2031-11.969z"/>
<path id="f" d="m41.109 46.297q-1.5156 0.875-3.2969 1.2812-1.7812 0.42188-3.9219 0.42188-7.625 0-11.703-4.9531t-4.0781-14.234v-28.812h-9.0312v54.688h9.0312v-8.5q2.8438 4.9844 7.375 7.3906 4.5469 2.4219 11.047 2.4219 0.92188 0 2.0469-0.125 1.125-0.10938 2.4844-0.35938z"/>
<path id="k" d="m52 44.188q3.375 6.0625 8.0625 8.9375t11.031 2.875q8.5469 0 13.188-5.9844 4.6406-5.9688 4.6406-17v-33.016h-9.0312v32.719q0 7.8594-2.7969 11.656-2.7812 3.8125-8.4844 3.8125-6.9844 0-11.047-4.6406-4.0469-4.625-4.0469-12.641v-30.906h-9.0312v32.719q0 7.9062-2.7812 11.688t-8.5938 3.7812q-6.8906 0-10.953-4.6562-4.0469-4.6562-4.0469-12.625v-30.906h-9.0312v54.688h9.0312v-8.5q3.0781 5.0312 7.375 7.4219t10.203 2.3906q5.9688 0 10.141-3.0312 4.1719-3.0156 6.1719-8.7812z"/>
<path id="g" d="m9.4219 54.688h8.9844v-54.688h-8.9844zm0 21.297h8.9844v-11.391h-8.9844z"/>
<path id="h" d="m54.891 33.016v-33.016h-8.9844v32.719q0 7.7656-3.0312 11.609-3.0312 3.8594-9.0781 3.8594-7.2812 0-11.484-4.6406-4.2031-4.625-4.2031-12.641v-30.906h-9.0312v54.688h9.0312v-8.5q3.2344 4.9375 7.5938 7.375 4.375 2.4375 10.094 2.4375 9.4219 0 14.25-5.8281 4.8438-5.8281 4.8438-17.156z"/>
<path id="j" d="m34.281 27.484q-10.891 0-15.094-2.4844t-4.2031-8.5q0-4.7812 3.1562-7.5938 3.1562-2.7969 8.5625-2.7969 7.4844 0 12 5.2969t4.5156 14.078v2zm17.922 3.7188v-31.203h-8.9844v8.2969q-3.0781-4.9688-7.6719-7.3438t-11.234-2.375q-8.3906 0-13.359 4.7188-4.9531 4.7188-4.9531 12.625 0 9.2188 6.1719 13.906 6.1875 4.6875 18.438 4.6875h12.609v0.89062q0 6.2031-4.0781 9.5938t-11.453 3.3906q-4.6875 0-9.1406-1.125-4.4375-1.125-8.5312-3.375v8.3125q4.9219 1.9062 9.5625 2.8438 4.6406 0.95312 9.0312 0.95312 11.875 0 17.734-6.1562 5.8594-6.1406 5.8594-18.641z"/>
<path id="i" d="m9.4219 75.984h8.9844v-75.984h-8.9844z"/>
</defs>
<g transform="translate(64.769 678.34) rotate(90) scale(.08 -.08)">
<use xlink:href="#l"/>
<use x="60.818359" xlink:href="#d"/>
<use x="122.341797" xlink:href="#f"/>
<use x="163.439453" xlink:href="#k"/>
<use x="260.851562" xlink:href="#g"/>
<use x="288.634766" xlink:href="#h"/>
<use x="352.013672" xlink:href="#j"/>
<use x="413.292969" xlink:href="#i"/>
</g>
</g>
<path d="m260.37 398.93 3.6207-4.9836q1.4107-1.9417-0.53101-3.3523l-6.2639-4.5508q-1.9417-1.4107-3.3523 0.53101l-3.6207 4.9836q-1.4107 1.9417 0.53101 3.3523l6.2639 4.5508q1.9417 1.4107 3.3523-0.53101z" clip-path="url(#a)" fill="#fff" stroke="#fff"/>
<g clip-path="url(#a)">
<defs>
<path id="am" d="m19.672 64.797v-56.688h11.922q15.094 0 22.094 6.8281 7 6.8438 7 21.594 0 14.641-7 21.453t-22.094 6.8125zm-9.8594 8.1094h20.266q21.188 0 31.094-8.8125 9.9219-8.8125 9.9219-27.562 0-18.859-9.9688-27.703-9.9531-8.8281-31.047-8.8281h-20.266z"/>
</defs>
<g transform="translate(257.08 396.54) rotate(-54.001) scale(.08 -.08)">
<use xlink:href="#am"/>
</g>
</g>
<path d="m896.79 437.99 4.5548 3.0335q1.9975 1.3304 3.3279-0.66718l4.2918-6.4441q1.3304-1.9975-0.66718-3.3279l-4.5548-3.0335q-1.9975-1.3304-3.3279 0.66718l-4.2918 6.4441q-1.3304 1.9975 0.66718 3.3279z" clip-path="url(#a)" fill="#fff" stroke="#fff"/>
<g clip-path="url(#a)">
<defs>
<path id="r" d="m34.188 63.188-13.391-36.281h26.812zm-5.5781 9.7188h11.188l27.781-72.906h-10.25l-6.6406 18.703h-32.859l-6.6406-18.703h-10.406z"/>
</defs>
<g transform="translate(899.04 434.6) rotate(33.664) scale(.08 -.08)">
<use xlink:href="#r"/>
</g>
</g>
<path d="m283.34 398.17 2.6045-4.0602q1.2958-2.0201-0.72426-3.3159l-6.5169-4.1804q-2.0201-1.2958-3.3159 0.72426l-2.6045 4.0602q-1.2958 2.0201 0.72426 3.3159l6.5169 4.1804q2.0201 1.2958 3.3159-0.72426z" clip-path="url(#a)" fill="#fff" stroke="#fff"/>
<g clip-path="url(#a)">
<defs>
<path id="y" d="m19.672 64.797v-27.391h12.406q6.8906 0 10.641 3.5625 3.7656 3.5625 3.7656 10.156 0 6.5469-3.7656 10.109-3.75 3.5625-10.641 3.5625zm-9.8594 8.1094h22.266q12.266 0 18.531-5.5469 6.2812-5.5469 6.2812-16.234 0-10.797-6.2812-16.312-6.2656-5.5156-18.531-5.5156h-12.406v-29.297h-9.8594z"/>
</defs>
<g transform="translate(279.92 395.98) rotate(-57.321) scale(.08 -.08)">
<use xlink:href="#y"/>
</g>
</g>
<path d="m350.17 184.14 4.9424-2.3496q2.1675-1.0304 1.1371-3.198l-3.3242-6.9925q-1.0304-2.1675-3.198-1.1371l-4.9424 2.3496q-2.1675 1.0304-1.1371 3.198l3.3242 6.9925q1.0304 2.1675 3.198 1.1371z" clip-path="url(#a)" fill="#fff" stroke="#fff"/>
<g clip-path="url(#a)">
<g transform="translate(348.42 180.47) rotate(-25.426) scale(.08 -.08)">
<use xlink:href="#r"/>
</g>
</g>
<path d="m1314.5 569.7 2.3756 4.93q1.0418 2.1621 3.2039 1.1203l6.975-3.361q2.1621-1.0418 1.1203-3.2039l-2.3756-4.93q-1.0418-2.1621-3.2039-1.1203l-6.975 3.361q-2.1621 1.0418-1.1203 3.2039z" clip-path="url(#a)" fill="#fff" stroke="#fff"/>
<g clip-path="url(#a)">
<g transform="translate(1318.2 567.93) rotate(64.272) scale(.08 -.08)">
<use xlink:href="#r"/>
</g>
</g>
<path d="m1147.2 451.12 4.9723-2.2858q2.1806-1.0024 1.1782-3.1831l-3.2339-7.0348q-1.0024-2.1806-3.1831-1.1782l-4.9723 2.2858q-2.1806 1.0024-1.1782 3.1831l3.2339 7.0348q1.0024 2.1806 3.1831 1.1782z" clip-path="url(#a)" fill="#fff" stroke="#fff"/>
<g clip-path="url(#a)">
<g transform="translate(1145.5 447.43) rotate(-24.689) scale(.08 -.08)">
<use xlink:href="#r"/>
</g>
</g>
<path d="m1215.6 531.61 1.0712-4.4748q0.55874-2.3341-1.7753-2.8928l-7.5298-1.8025q-2.3341-0.55874-2.8928 1.7753l-1.0712 4.4748q-0.55874 2.3341 1.7753 2.8928l7.5298 1.8025q2.3341 0.55874 2.8928-1.7753z" clip-path="url(#a)" fill="#fff" stroke="#fff"/>
<g clip-path="url(#a)">
<defs>
<path id="as" d="m9.8125 72.906h41.891v-8.3125h-32.031v-21.484h28.906v-8.2969h-28.906v-34.812h-9.8594z"/>
</defs>
<g transform="translate(1211.7 530.66) rotate(-76.538) scale(.08 -.08)">
<use xlink:href="#as"/>
</g>
</g>
<path d="m1238.4 531.38 0.39044-6.1476q0.15212-2.3952-2.2431-2.5473l-7.7269-0.49074q-2.3952-0.15212-2.5473 2.2431l-0.39044 6.1476q-0.15212 2.3952 2.2431 2.5473l7.7269 0.49074q2.3952 0.15212 2.5473-2.2431z" clip-path="url(#a)" fill="#fff" stroke="#fff"/>
<g clip-path="url(#a)">
<g transform="translate(1234.4 531.13) rotate(-86.366) scale(.08 -.08)">
<use xlink:href="#am"/>
</g>
</g>
<path d="m1248.1 526.22 0.53863 4.7936q0.26799 2.385 2.653 2.117l7.6941-0.86454q2.385-0.26799 2.117-2.653l-0.53863-4.7936q-0.26799-2.385-2.653-2.117l-7.6941 0.86454q-2.385 0.26799-2.117 2.653z" clip-path="url(#a)" fill="#fff" stroke="#fff"/>
<g clip-path="url(#a)">
<g transform="translate(1252.1 525.76) rotate(83.589) scale(.08 -.08)">
<use xlink:href="#y"/>
</g>
</g>
<path d="m1270 526.84 1.6216 5.626q0.66471 2.3061 2.9708 1.6414l7.4396-2.1444q2.3061-0.66471 1.6414-2.9708l-1.6216-5.626q-0.66471-2.3061-2.9708-1.6414l-7.4396 2.1444q-2.3061 0.66471-1.6414 2.9708z" clip-path="url(#a)" fill="#fff" stroke="#fff"/>
<g clip-path="url(#a)">
<g transform="translate(1273.9 525.71) rotate(73.921) scale(.08 -.08)">
<use xlink:href="#ak"/>
</g>
</g>
<path d="m1032.9 575.1 1.4989-4.8277q0.71164-2.2921-1.5804-3.0037l-7.3943-2.2958q-2.2921-0.71164-3.0037 1.5804l-1.4989 4.8277q-0.71164 2.2921 1.5804 3.0037l7.3943 2.2958q2.2921 0.71164 3.0037-1.5804z" clip-path="url(#a)" fill="#fff" stroke="#fff"/>
<g clip-path="url(#a)">
<defs>
<path id="v" d="m9.8125 72.906h46.094v-8.3125h-36.234v-21.578h34.719v-8.2969h-34.719v-26.422h37.109v-8.2969h-46.969z"/>
</defs>
<g transform="translate(1029.1 573.9) rotate(-72.752) scale(.08 -.08)">
<use xlink:href="#v"/>
</g>
</g>
<path d="m1056.1 573.9 0.24753-5.5808q0.10634-2.3976-2.2913-2.504l-7.7349-0.34307q-2.3976-0.10635-2.504 2.2913l-0.24753 5.5808q-0.10634 2.3976 2.2913 2.504l7.7349 0.34308q2.3976 0.10634 2.504-2.2913z" clip-path="url(#a)" fill="#fff" stroke="#fff"/>
<g clip-path="url(#a)">
<defs>
<path id="s" d="m64.406 67.281v-10.391q-4.9844 4.6406-10.625 6.9219-5.6406 2.2969-11.984 2.2969-12.5 0-19.141-7.6406t-6.6406-22.094q0-14.406 6.6406-22.047t19.141-7.6406q6.3438 0 11.984 2.2969t10.625 6.9375v-10.312q-5.1719-3.5156-10.969-5.2812-5.7812-1.75-12.219-1.75-16.562 0-26.094 10.125-9.5156 10.141-9.5156 27.672 0 17.578 9.5156 27.703 9.5312 10.141 26.094 10.141 6.5312 0 12.312-1.7344 5.7969-1.7344 10.875-5.2031z"/>
</defs>
<g transform="translate(1052 573.72) rotate(-87.46) scale(.08 -.08)">
<use xlink:href="#s"/>
</g>
</g>
<path d="m1076.8 530.85 2.9121 4.1319q1.3826 1.9617 3.3443 0.5791l6.3286-4.4604q1.9617-1.3826 0.5791-3.3443l-2.9121-4.1319q-1.3826-1.9617-3.3443-0.5791l-6.3286 4.4604q-1.9617 1.3826-0.5791 3.3443z" clip-path="url(#a)" fill="#fff" stroke="#fff"/>
<g clip-path="url(#a)">
<g transform="translate(1080.1 528.51) rotate(54.824) scale(.08 -.08)">
<use xlink:href="#v"/>
</g>
</g>
<path d="m1173.5 678.34v35.285q0 2.4 2.4 2.4h7.7425q2.4 0 2.4-2.4v-35.285q0-2.4-2.4-2.4h-7.7425q-2.4 0-2.4 2.4z" clip-path="url(#a)" fill="#fff" stroke="#fff"/>
<g clip-path="url(#a)">
<g transform="translate(1177.6 678.34) rotate(90) scale(.08 -.08)">
<use xlink:href="#l"/>
<use x="60.818359" xlink:href="#d"/>
<use x="122.341797" xlink:href="#f"/>
<use x="163.439453" xlink:href="#k"/>
<use x="260.851562" xlink:href="#g"/>
<use x="288.634766" xlink:href="#h"/>
<use x="352.013672" xlink:href="#j"/>
<use x="413.292969" xlink:href="#i"/>
</g>
</g>
<path d="m1218 678.34v35.285q0 2.4 2.4 2.4h7.7425q2.4 0 2.4-2.4v-35.285q0-2.4-2.4-2.4h-7.7425q-2.4 0-2.4 2.4z" clip-path="url(#a)" fill="#fff" stroke="#fff"/>
<g clip-path="url(#a)">
<g transform="translate(1222.1 678.34) rotate(90) scale(.08 -.08)">
<use xlink:href="#l"/>
<use x="60.818359" xlink:href="#d"/>
<use x="122.341797" xlink:href="#f"/>
<use x="163.439453" xlink:href="#k"/>
<use x="260.851562" xlink:href="#g"/>
<use x="288.634766" xlink:href="#h"/>
<use x="352.013672" xlink:href="#j"/>
<use x="413.292969" xlink:href="#i"/>
</g>
</g>
<path d="m1262.5 678.34v35.285q0 2.4 2.4 2.4h7.7425q2.4 0 2.4-2.4v-35.285q0-2.4-2.4-2.4h-7.7425q-2.4 0-2.4 2.4z" clip-path="url(#a)" fill="#fff" stroke="#fff"/>
<g clip-path="url(#a)">
<g transform="translate(1266.6 678.34) rotate(90) scale(.08 -.08)">
<use xlink:href="#l"/>
<use x="60.818359" xlink:href="#d"/>
<use x="122.341797" xlink:href="#f"/>
<use x="163.439453" xlink:href="#k"/>
<use x="260.851562" xlink:href="#g"/>
<use x="288.634766" xlink:href="#h"/>
<use x="352.013672" xlink:href="#j"/>
<use x="413.292969" xlink:href="#i"/>
</g>
</g>
<path d="m995.47 678.34v35.285q0 2.4 2.4 2.4h7.7425q2.4 0 2.4-2.4v-35.285q0-2.4-2.4-2.4h-7.7425q-2.4 0-2.4 2.4z" clip-path="url(#a)" fill="#fff" stroke="#fff"/>
<g clip-path="url(#a)">
<g transform="translate(999.54 678.34) rotate(90) scale(.08 -.08)">
<use xlink:href="#l"/>
<use x="60.818359" xlink:href="#d"/>
<use x="122.341797" xlink:href="#f"/>
<use x="163.439453" xlink:href="#k"/>
<use x="260.851562" xlink:href="#g"/>
<use x="288.634766" xlink:href="#h"/>
<use x="352.013672" xlink:href="#j"/>
<use x="413.292969" xlink:href="#i"/>
</g>
</g>
<path d="m1040 678.34v35.285q0 2.4 2.4 2.4h7.7425q2.4 0 2.4-2.4v-35.285q0-2.4-2.4-2.4h-7.7425q-2.4 0-2.4 2.4z" clip-path="url(#a)" fill="#fff" stroke="#fff"/>
<g clip-path="url(#a)">
<g transform="translate(1044 678.34) rotate(90) scale(.08 -.08)">
<use xlink:href="#l"/>
<use x="60.818359" xlink:href="#d"/>
<use x="122.341797" xlink:href="#f"/>
<use x="163.439453" xlink:href="#k"/>
<use x="260.851562" xlink:href="#g"/>
<use x="288.634766" xlink:href="#h"/>
<use x="352.013672" xlink:href="#j"/>
<use x="413.292969" xlink:href="#i"/>
</g>
</g>
<path d="m1107.2 617.24 1.4388-5.3693q0.62122-2.3182-1.697-2.9394l-7.4786-2.0041q-2.3182-0.62122-2.9394 1.697l-1.4388 5.3693q-0.62122 2.3182 1.697 2.9394l7.4786 2.0041q2.3182 0.62122 2.9394-1.697z" clip-path="url(#a)" fill="#fff" stroke="#fff"/>
<g clip-path="url(#a)">
<defs>
<path id="w" d="m44.391 34.188q3.1719-1.0781 6.1719-4.5938t6.0312-9.6719l10.016-19.922h-10.609l-9.3125 18.703q-3.625 7.3281-7.0156 9.7188t-9.25 2.3906h-10.75v-30.812h-9.8594v72.906h22.266q12.5 0 18.656-5.2344 6.1562-5.2188 6.1562-15.766 0-6.8906-3.2031-11.438-3.2031-4.5312-9.2969-6.2812zm-24.719 30.609v-25.875h12.406q7.125 0 10.766 3.2969t3.6406 9.6875-3.6406 9.6406-10.766 3.25z"/>
</defs>
<g transform="translate(1103.3 616.19) rotate(-74.999) scale(.08 -.08)">
<use xlink:href="#w"/>
</g>
</g>
<path d="m1117.4 611.86 1.446 5.3959q0.62122 2.3182 2.9394 1.697l7.4786-2.0041q2.3182-0.62122 1.697-2.9394l-1.446-5.3959q-0.62122-2.3182-2.9394-1.697l-7.4786 2.0041q-2.3182 0.62122-1.697 2.9394z" clip-path="url(#a)" fill="#fff" stroke="#fff"/>
<g clip-path="url(#a)">
<g transform="translate(1121.3 610.81) rotate(74.999) scale(.08 -.08)">
<use xlink:href="#s"/>
</g>
</g>
<path d="m1084.5 678.34v35.285q0 2.4 2.4 2.4h7.7425q2.4 0 2.4-2.4v-35.285q0-2.4-2.4-2.4h-7.7425q-2.4 0-2.4 2.4z" clip-path="url(#a)" fill="#fff" stroke="#fff"/>
<g clip-path="url(#a)">
<g transform="translate(1088.6 678.34) rotate(90) scale(.08 -.08)">
<use xlink:href="#l"/>
<use x="60.818359" xlink:href="#d"/>
<use x="122.341797" xlink:href="#f"/>
<use x="163.439453" xlink:href="#k"/>
<use x="260.851562" xlink:href="#g"/>
<use x="288.634766" xlink:href="#h"/>
<use x="352.013672" xlink:href="#j"/>
<use x="413.292969" xlink:href="#i"/>
</g>
</g>
<path d="m1129 678.34v35.285q0 2.4 2.4 2.4h7.7425q2.4 0 2.4-2.4v-35.285q0-2.4-2.4-2.4h-7.7425q-2.4 0-2.4 2.4z" clip-path="url(#a)" fill="#fff" stroke="#fff"/>
<g clip-path="url(#a)">
<g transform="translate(1133.1 678.34) rotate(90) scale(.08 -.08)">
<use xlink:href="#l"/>
<use x="60.818359" xlink:href="#d"/>
<use x="122.341797" xlink:href="#f"/>
<use x="163.439453" xlink:href="#k"/>
<use x="260.851562" xlink:href="#g"/>
<use x="288.634766" xlink:href="#h"/>
<use x="352.013672" xlink:href="#j"/>
<use x="413.292969" xlink:href="#i"/>
</g>
</g>
<path d="m105.22 678.34v35.285q0 2.4 2.4 2.4h7.7425q2.4 0 2.4-2.4v-35.285q0-2.4-2.4-2.4h-7.7425q-2.4 0-2.4 2.4z" clip-path="url(#a)" fill="#fff" stroke="#fff"/>
<g clip-path="url(#a)">
<g transform="translate(109.28 678.34) rotate(90) scale(.08 -.08)">
<use xlink:href="#l"/>
<use x="60.818359" xlink:href="#d"/>
<use x="122.341797" xlink:href="#f"/>
<use x="163.439453" xlink:href="#k"/>
<use x="260.851562" xlink:href="#g"/>
<use x="288.634766" xlink:href="#h"/>
<use x="352.013672" xlink:href="#j"/>
<use x="413.292969" xlink:href="#i"/>
</g>
</g>
<path d="m209.84 443.09 1.2166-5.424q0.52527-2.3418-1.8165-2.8671l-7.5548-1.6945q-2.3418-0.52527-2.8671 1.8165l-1.2166 5.424q-0.52527 2.3418 1.8165 2.8671l7.5548 1.6945q2.3418 0.52527 2.8671-1.8165z" clip-path="url(#a)" fill="#fff" stroke="#fff"/>
<g clip-path="url(#a)">
<g transform="translate(205.87 442.2) rotate(-77.358) scale(.08 -.08)">
<use xlink:href="#w"/>
</g>
</g>
<path d="m232.47 442.54 0.67102-5.5458q0.28829-2.3826-2.0943-2.6709l-7.6864-0.93004q-2.3826-0.28829-2.6709 2.0943l-0.67102 5.5458q-0.28829 2.3826 2.0943 2.6709l7.6864 0.93004q2.3826 0.28829 2.6709-2.0943z" clip-path="url(#a)" fill="#fff" stroke="#fff"/>
<g clip-path="url(#a)">
<g transform="translate(228.44 442.05) rotate(-83.101) scale(.08 -.08)">
<use xlink:href="#s"/>
</g>
</g>
<path d="m321.64 272.63 4.325 2.6167q2.0534 1.2424 3.2958-0.81104l4.0079-6.6244q1.2424-2.0534-0.81104-3.2958l-4.325-2.6167q-2.0534-1.2424-3.2958 0.81104l-4.0079 6.6244q-1.2424 2.0534 0.81104 3.2958z" clip-path="url(#a)" fill="#fff" stroke="#fff"/>
<g clip-path="url(#a)">
<g transform="translate(323.74 269.15) rotate(31.175) scale(.08 -.08)">
<use xlink:href="#v"/>
</g>
</g>
<path d="m149.73 678.34v35.285q0 2.4 2.4 2.4h7.7425q2.4 0 2.4-2.4v-35.285q0-2.4-2.4-2.4h-7.7425q-2.4 0-2.4 2.4z" clip-path="url(#a)" fill="#fff" stroke="#fff"/>
<g clip-path="url(#a)">
<g transform="translate(153.79 678.34) rotate(90) scale(.08 -.08)">
<use xlink:href="#l"/>
<use x="60.818359" xlink:href="#d"/>
<use x="122.341797" xlink:href="#f"/>
<use x="163.439453" xlink:href="#k"/>
<use x="260.851562" xlink:href="#g"/>
<use x="288.634766" xlink:href="#h"/>
<use x="352.013672" xlink:href="#j"/>
<use x="413.292969" xlink:href="#i"/>
</g>
</g>
<path d="m194.24 678.34v35.285q0 2.4 2.4 2.4h7.7425q2.4 0 2.4-2.4v-35.285q0-2.4-2.4-2.4h-7.7425q-2.4 0-2.4 2.4z" clip-path="url(#a)" fill="#fff" stroke="#fff"/>
<g clip-path="url(#a)">
<g transform="translate(198.31 678.34) rotate(90) scale(.08 -.08)">
<use xlink:href="#l"/>
<use x="60.818359" xlink:href="#d"/>
<use x="122.341797" xlink:href="#f"/>
<use x="163.439453" xlink:href="#k"/>
<use x="260.851562" xlink:href="#g"/>
<use x="288.634766" xlink:href="#h"/>
<use x="352.013672" xlink:href="#j"/>
<use x="413.292969" xlink:href="#i"/>
</g>
</g>
<path d="m327.77 489.16 2.3182-5.0523q1.0009-2.1813-1.1804-3.1822l-7.0371-3.229q-2.1813-1.0009-3.1822 1.1804l-2.3182 5.0523q-1.0009 2.1813 1.1804 3.1822l7.0371 3.229q2.1813 1.0009 3.1822-1.1804z" clip-path="url(#a)" fill="#fff" stroke="#fff"/>
<g clip-path="url(#a)">
<g transform="translate(324.08 487.47) rotate(-65.352) scale(.08 -.08)">
<use xlink:href="#w"/>
</g>
</g>
<path d="m348.3 364.25 4.6928-3.7647q1.872-1.5018 0.37023-3.3739l-4.8449-6.0393q-1.5018-1.872-3.3739-0.37023l-4.6928 3.7647q-1.872 1.5018-0.37023 3.3739l4.8449 6.0393q1.5018 1.872 3.3739 0.37023z" clip-path="url(#a)" fill="#fff" stroke="#fff"/>
<g clip-path="url(#a)">
<g transform="translate(345.76 361.08) rotate(-38.738) scale(.08 -.08)">
<use xlink:href="#ad"/>
</g>
</g>
<path d="m450.12 483.84 1.3764 4.2397q0.74107 2.2827 3.0238 1.5417l7.3642-2.3907q2.2827-0.74107 1.5417-3.0238l-1.3764-4.2397q-0.74107-2.2827-3.0238-1.5417l-7.3642 2.3907q-2.2827 0.74107-1.5417 3.0238z" clip-path="url(#a)" fill="#fff" stroke="#fff"/>
<g clip-path="url(#a)">
<g transform="translate(453.98 482.58) rotate(72.014) scale(.08 -.08)">
<use xlink:href="#u"/>
</g>
</g>
<path d="m473.32 361.45 5.2364 2.9623q2.0889 1.1817 3.2706-0.90717l3.8123-6.7389q1.1817-2.0889-0.90717-3.2706l-5.2364-2.9623q-2.0889-1.1817-3.2706 0.90717l-3.8123 6.7389q-1.1817 2.0889 0.90717 3.2706z" clip-path="url(#a)" fill="#fff" stroke="#fff"/>
<g clip-path="url(#a)">
<g transform="translate(475.32 357.91) rotate(29.498) scale(.08 -.08)">
<use xlink:href="#ad"/>
</g>
</g>
<path d="m238.76 678.34v35.285q0 2.4 2.4 2.4h7.7425q2.4 0 2.4-2.4v-35.285q0-2.4-2.4-2.4h-7.7425q-2.4 0-2.4 2.4z" clip-path="url(#a)" fill="#fff" stroke="#fff"/>
<g clip-path="url(#a)">
<g transform="translate(242.82 678.34) rotate(90) scale(.08 -.08)">
<use xlink:href="#l"/>
<use x="60.818359" xlink:href="#d"/>
<use x="122.341797" xlink:href="#f"/>
<use x="163.439453" xlink:href="#k"/>
<use x="260.851562" xlink:href="#g"/>
<use x="288.634766" xlink:href="#h"/>
<use x="352.013672" xlink:href="#j"/>
<use x="413.292969" xlink:href="#i"/>
</g>
</g>
<path d="m251.23 532.62 1.8606-5.1465q0.81596-2.257-1.4411-3.073l-7.2813-2.6323q-2.257-0.81596-3.073 1.4411l-1.8606 5.1465q-0.81596 2.257 1.4411 3.073l7.2813 2.6323q2.257 0.81596 3.073-1.4411z" clip-path="url(#a)" fill="#fff" stroke="#fff"/>
<g clip-path="url(#a)">
<g transform="translate(247.41 531.24) rotate(-70.124) scale(.08 -.08)">
<use xlink:href="#r"/>
</g>
</g>
<path d="m297.02 530.39 0.047129-4.8235q0.023449-2.3999-2.3764-2.4233l-7.7421-0.075647q-2.3999-0.023448-2.4233 2.3764l-0.04713 4.8235q-0.023449 2.3999 2.3764 2.4233l7.7421 0.075647q2.3999 0.023449 2.4233-2.3764z" clip-path="url(#a)" fill="#fff" stroke="#fff"/>
<g clip-path="url(#a)">
<g transform="translate(292.96 530.35) rotate(-89.44) scale(.08 -.08)">
<use xlink:href="#y"/>
</g>
</g>
<path d="m332.75 447.07 4.0407 3.6907q1.7721 1.6186 3.3906-0.15352l5.2215-5.7168q1.6186-1.7721-0.15352-3.3906l-4.0407-3.6907q-1.7721-1.6186-3.3906 0.15352l-5.2215 5.7168q-1.6186 1.7721 0.15352 3.3906z" clip-path="url(#a)" fill="#fff" stroke="#fff"/>
<g clip-path="url(#a)">
<g transform="translate(335.49 444.07) rotate(42.408) scale(.08 -.08)">
<use xlink:href="#r"/>
</g>
</g>
<path d="m505.83 678.34v35.285q0 2.4 2.4 2.4h7.7425q2.4 0 2.4-2.4v-35.285q0-2.4-2.4-2.4h-7.7425q-2.4 0-2.4 2.4z" clip-path="url(#a)" fill="#fff" stroke="#fff"/>
<g clip-path="url(#a)">
<g transform="translate(509.9 678.34) rotate(90) scale(.08 -.08)">
<use xlink:href="#l"/>
<use x="60.818359" xlink:href="#d"/>
<use x="122.341797" xlink:href="#f"/>
<use x="163.439453" xlink:href="#k"/>
<use x="260.851562" xlink:href="#g"/>
<use x="288.634766" xlink:href="#h"/>
<use x="352.013672" xlink:href="#j"/>
<use x="413.292969" xlink:href="#i"/>
</g>
</g>
<path d="m379.97 534.61 4.4606-3.1703q1.9562-1.3904 0.56588-3.3466l-4.4854-6.3109q-1.3904-1.9562-3.3466-0.56588l-4.4606 3.1703q-1.9562 1.3904-0.56588 3.3466l4.4854 6.3109q1.3904 1.9562 3.3466 0.56588z" clip-path="url(#a)" fill="#fff" stroke="#fff"/>
<g clip-path="url(#a)">
<g transform="translate(377.61 531.3) rotate(-35.403) scale(.08 -.08)">
<use xlink:href="#r"/>
</g>
</g>
<path d="m550.34 525.5v4.8238q0 2.4 2.4 2.4h7.7425q2.4 0 2.4-2.4v-4.8238q0-2.4-2.4-2.4h-7.7425q-2.4 0-2.4 2.4z" clip-path="url(#a)" fill="#fff" stroke="#fff"/>
<g clip-path="url(#a)">
<g transform="translate(554.41 525.5) rotate(90) scale(.08 -.08)">
<use xlink:href="#y"/>
</g>
</g>
<path d="m594.3 486.87 2.5383 4.8482q1.1132 2.1262 3.2394 1.013l6.8593-3.5912q2.1262-1.1132 1.013-3.2394l-2.5383-4.8482q-1.1132-2.1262-3.2394-1.013l-6.8593 3.5912q-2.1262 1.1132-1.013 3.2394z" clip-path="url(#a)" fill="#fff" stroke="#fff"/>
<g clip-path="url(#a)">
<g transform="translate(597.9 484.99) rotate(62.365) scale(.08 -.08)">
<use xlink:href="#r"/>
</g>
</g>
<path d="m685.63 449.41 5.2101 1.6744q2.2849 0.7343 3.0192-1.5506l2.3689-7.3712q0.7343-2.2849-1.5506-3.0192l-5.2101-1.6744q-2.2849-0.7343-3.0192 1.5506l-2.3689 7.3712q-0.7343 2.2849 1.5506 3.0192z" clip-path="url(#a)" fill="#fff" stroke="#fff"/>
<g clip-path="url(#a)">
<g transform="translate(686.87 445.55) rotate(17.816) scale(.08 -.08)">
<use xlink:href="#r"/>
</g>
</g>
<path d="m550.34 678.34v35.285q0 2.4 2.4 2.4h7.7425q2.4 0 2.4-2.4v-35.285q0-2.4-2.4-2.4h-7.7425q-2.4 0-2.4 2.4z" clip-path="url(#a)" fill="#fff" stroke="#fff"/>
<g clip-path="url(#a)">
<g transform="translate(554.41 678.34) rotate(90) scale(.08 -.08)">
<use xlink:href="#l"/>
<use x="60.818359" xlink:href="#d"/>
<use x="122.341797" xlink:href="#f"/>
<use x="163.439453" xlink:href="#k"/>
<use x="260.851562" xlink:href="#g"/>
<use x="288.634766" xlink:href="#h"/>
<use x="352.013672" xlink:href="#j"/>
<use x="413.292969" xlink:href="#i"/>
</g>
</g>
<path d="m627.72 618.12 2.3879-4.4554q1.1337-2.1153-0.98162-3.2491l-6.8242-3.6574q-2.1153-1.1337-3.2491 0.98162l-2.3879 4.4554q-1.1337 2.1153 0.98162 3.2491l6.8242 3.6574q2.1153 1.1337 3.2491-0.98162z" clip-path="url(#a)" fill="#fff" stroke="#fff"/>
<g clip-path="url(#a)">
<g transform="translate(624.14 616.2) rotate(-61.811) scale(.08 -.08)">
<use xlink:href="#v"/>
</g>
</g>
<path d="m639.37 610.14v5.5862q0 2.4 2.4 2.4h7.7425q2.4 0 2.4-2.4v-5.5862q0-2.4-2.4-2.4h-7.7425q-2.4 0-2.4 2.4z" clip-path="url(#a)" fill="#fff" stroke="#fff"/>
<g clip-path="url(#a)">
<g transform="translate(643.43 610.14) rotate(90) scale(.08 -.08)">
<use xlink:href="#s"/>
</g>
</g>
<path d="m661.18 613.67 2.3879 4.4554q1.1337 2.1153 3.2491 0.98162l6.8242-3.6574q2.1153-1.1337 0.98162-3.2491l-2.3879-4.4554q-1.1337-2.1153-3.2491-0.98162l-6.8242 3.6574q-2.1153 1.1337-0.98162 3.2491z" clip-path="url(#a)" fill="#fff" stroke="#fff"/>
<g clip-path="url(#a)">
<g transform="translate(664.76 611.75) rotate(61.811) scale(.08 -.08)">
<use xlink:href="#v"/>
</g>
</g>
<path d="m783.41 576.23 2.6117-4.907q1.1276-2.1186-0.99098-3.2462l-6.8347-3.6378q-2.1186-1.1276-3.2462 0.99098l-2.6117 4.907q-1.1276 2.1186 0.99098 3.2462l6.8347 3.6378q2.1186 1.1276 3.2462-0.99098z" clip-path="url(#a)" fill="#fff" stroke="#fff"/>
<g clip-path="url(#a)">
<g transform="translate(779.82 574.32) rotate(-61.976) scale(.08 -.08)">
<use xlink:href="#w"/>
</g>
</g>
<path d="m817.42 526.77v5.055q0 2.4 2.4 2.4h7.7425q2.4 0 2.4-2.4v-5.055q0-2.4-2.4-2.4h-7.7425q-2.4 0-2.4 2.4z" clip-path="url(#a)" fill="#fff" stroke="#fff"/>
<g clip-path="url(#a)">
<g transform="translate(821.48 526.77) rotate(90) scale(.08 -.08)">
<use xlink:href="#v"/>
</g>
</g>
<path d="m861.36 571.31 2.6247 4.9313q1.1276 2.1186 3.2462 0.99098l6.8347-3.6378q2.1186-1.1276 0.99098-3.2462l-2.6247-4.9313q-1.1276-2.1186-3.2462-0.99098l-6.8347 3.6378q-2.1186 1.1276-0.99098 3.2462z" clip-path="url(#a)" fill="#fff" stroke="#fff"/>
<g clip-path="url(#a)">
<g transform="translate(864.94 569.4) rotate(61.976) scale(.08 -.08)">
<use xlink:href="#s"/>
</g>
</g>
<path d="m728.4 678.34v35.285q0 2.4 2.4 2.4h7.7425q2.4 0 2.4-2.4v-35.285q0-2.4-2.4-2.4h-7.7425q-2.4 0-2.4 2.4z" clip-path="url(#a)" fill="#fff" stroke="#fff"/>
<g clip-path="url(#a)">
<g transform="translate(732.46 678.34) rotate(90) scale(.08 -.08)">
<use xlink:href="#l"/>
<use x="60.818359" xlink:href="#d"/>
<use x="122.341797" xlink:href="#f"/>
<use x="163.439453" xlink:href="#k"/>
<use x="260.851562" xlink:href="#g"/>
<use x="288.634766" xlink:href="#h"/>
<use x="352.013672" xlink:href="#j"/>
<use x="413.292969" xlink:href="#i"/>
</g>
</g>
<path d="m805.77 618.12 2.3879-4.4554q1.1337-2.1153-0.98162-3.2491l-6.8242-3.6574q-2.1153-1.1337-3.2491 0.98162l-2.3879 4.4554q-1.1337 2.1153 0.98162 3.2491l6.8242 3.6574q2.1153 1.1337 3.2491-0.98162z" clip-path="url(#a)" fill="#fff" stroke="#fff"/>
<g clip-path="url(#a)">
<g transform="translate(802.19 616.2) rotate(-61.811) scale(.08 -.08)">
<use xlink:href="#v"/>
</g>
</g>
<path d="m817.42 610.14v5.5862q0 2.4 2.4 2.4h7.7425q2.4 0 2.4-2.4v-5.5862q0-2.4-2.4-2.4h-7.7425q-2.4 0-2.4 2.4z" clip-path="url(#a)" fill="#fff" stroke="#fff"/>
<g clip-path="url(#a)">
<g transform="translate(821.48 610.14) rotate(90) scale(.08 -.08)">
<use xlink:href="#s"/>
</g>
</g>
<path d="m839.11 613.44 2.6259 4.8994q1.1337 2.1153 3.2491 0.98162l6.8242-3.6574q2.1153-1.1337 0.98162-3.2491l-2.6259-4.8994q-1.1337-2.1153-3.2491-0.98162l-6.8242 3.6574q-2.1153 1.1337-0.98162 3.2491z" clip-path="url(#a)" fill="#fff" stroke="#fff"/>
<g clip-path="url(#a)">
<g transform="translate(842.69 611.53) rotate(61.811) scale(.08 -.08)">
<use xlink:href="#w"/>
</g>
</g>
<path d="m906.45 678.34v35.285q0 2.4 2.4 2.4h7.7425q2.4 0 2.4-2.4v-35.285q0-2.4-2.4-2.4h-7.7425q-2.4 0-2.4 2.4z" clip-path="url(#a)" fill="#fff" stroke="#fff"/>
<g clip-path="url(#a)">
<g transform="translate(910.51 678.34) rotate(90) scale(.08 -.08)">
<use xlink:href="#l"/>
<use x="60.818359" xlink:href="#d"/>
<use x="122.341797" xlink:href="#f"/>
<use x="163.439453" xlink:href="#k"/>
<use x="260.851562" xlink:href="#g"/>
<use x="288.634766" xlink:href="#h"/>
<use x="352.013672" xlink:href="#j"/>
<use x="413.292969" xlink:href="#i"/>
</g>
</g>
<path d="m772.91 678.34v35.285q0 2.4 2.4 2.4h7.7425q2.4 0 2.4-2.4v-35.285q0-2.4-2.4-2.4h-7.7425q-2.4 0-2.4 2.4z" clip-path="url(#a)" fill="#fff" stroke="#fff"/>
<g clip-path="url(#a)">
<g transform="translate(776.97 678.34) rotate(90) scale(.08 -.08)">
<use xlink:href="#l"/>
<use x="60.818359" xlink:href="#d"/>
<use x="122.341797" xlink:href="#f"/>
<use x="163.439453" xlink:href="#k"/>
<use x="260.851562" xlink:href="#g"/>
<use x="288.634766" xlink:href="#h"/>
<use x="352.013672" xlink:href="#j"/>
<use x="413.292969" xlink:href="#i"/>
</g>
</g>
<path d="m817.42 678.34v35.285q0 2.4 2.4 2.4h7.7425q2.4 0 2.4-2.4v-35.285q0-2.4-2.4-2.4h-7.7425q-2.4 0-2.4 2.4z" clip-path="url(#a)" fill="#fff" stroke="#fff"/>
<g clip-path="url(#a)">
<g transform="translate(821.48 678.34) rotate(90) scale(.08 -.08)">
<use xlink:href="#l"/>
<use x="60.818359" xlink:href="#d"/>
<use x="122.341797" xlink:href="#f"/>
<use x="163.439453" xlink:href="#k"/>
<use x="260.851562" xlink:href="#g"/>
<use x="288.634766" xlink:href="#h"/>
<use x="352.013672" xlink:href="#j"/>
<use x="413.292969" xlink:href="#i"/>
</g>
</g>
<path d="m861.93 678.34v35.285q0 2.4 2.4 2.4h7.7425q2.4 0 2.4-2.4v-35.285q0-2.4-2.4-2.4h-7.7425q-2.4 0-2.4 2.4z" clip-path="url(#a)" fill="#fff" stroke="#fff"/>
<g clip-path="url(#a)">
<g transform="translate(866 678.34) rotate(90) scale(.08 -.08)">
<use xlink:href="#l"/>
<use x="60.818359" xlink:href="#d"/>
<use x="122.341797" xlink:href="#f"/>
<use x="163.439453" xlink:href="#k"/>
<use x="260.851562" xlink:href="#g"/>
<use x="288.634766" xlink:href="#h"/>
<use x="352.013672" xlink:href="#j"/>
<use x="413.292969" xlink:href="#i"/>
</g>
</g>
<path d="m594.86 678.34v35.285q0 2.4 2.4 2.4h7.7425q2.4 0 2.4-2.4v-35.285q0-2.4-2.4-2.4h-7.7425q-2.4 0-2.4 2.4z" clip-path="url(#a)" fill="#fff" stroke="#fff"/>
<g clip-path="url(#a)">
<g transform="translate(598.92 678.34) rotate(90) scale(.08 -.08)">
<use xlink:href="#l"/>
<use x="60.818359" xlink:href="#d"/>
<use x="122.341797" xlink:href="#f"/>
<use x="163.439453" xlink:href="#k"/>
<use x="260.851562" xlink:href="#g"/>
<use x="288.634766" xlink:href="#h"/>
<use x="352.013672" xlink:href="#j"/>
<use x="413.292969" xlink:href="#i"/>
</g>
</g>
<path d="m639.37 678.34v35.285q0 2.4 2.4 2.4h7.7425q2.4 0 2.4-2.4v-35.285q0-2.4-2.4-2.4h-7.7425q-2.4 0-2.4 2.4z" clip-path="url(#a)" fill="#fff" stroke="#fff"/>
<g clip-path="url(#a)">
<g transform="translate(643.43 678.34) rotate(90) scale(.08 -.08)">
<use xlink:href="#l"/>
<use x="60.818359" xlink:href="#d"/>
<use x="122.341797" xlink:href="#f"/>
<use x="163.439453" xlink:href="#k"/>
<use x="260.851562" xlink:href="#g"/>
<use x="288.634766" xlink:href="#h"/>
<use x="352.013672" xlink:href="#j"/>
<use x="413.292969" xlink:href="#i"/>
</g>
</g>
<path d="m683.88 678.34v35.285q0 2.4 2.4 2.4h7.7425q2.4 0 2.4-2.4v-35.285q0-2.4-2.4-2.4h-7.7425q-2.4 0-2.4 2.4z" clip-path="url(#a)" fill="#fff" stroke="#fff"/>
<g clip-path="url(#a)">
<g transform="translate(687.95 678.34) rotate(90) scale(.08 -.08)">
<use xlink:href="#l"/>
<use x="60.818359" xlink:href="#d"/>
<use x="122.341797" xlink:href="#f"/>
<use x="163.439453" xlink:href="#k"/>
<use x="260.851562" xlink:href="#g"/>
<use x="288.634766" xlink:href="#h"/>
<use x="352.013672" xlink:href="#j"/>
<use x="413.292969" xlink:href="#i"/>
</g>
</g>
<path d="m283.27 678.34v35.285q0 2.4 2.4 2.4h7.7425q2.4 0 2.4-2.4v-35.285q0-2.4-2.4-2.4h-7.7425q-2.4 0-2.4 2.4z" clip-path="url(#a)" fill="#fff" stroke="#fff"/>
<g clip-path="url(#a)">
<g transform="translate(287.33 678.34) rotate(90) scale(.08 -.08)">
<use xlink:href="#l"/>
<use x="60.818359" xlink:href="#d"/>
<use x="122.341797" xlink:href="#f"/>
<use x="163.439453" xlink:href="#k"/>
<use x="260.851562" xlink:href="#g"/>
<use x="288.634766" xlink:href="#h"/>
<use x="352.013672" xlink:href="#j"/>
<use x="413.292969" xlink:href="#i"/>
</g>
</g>
<path d="m365.26 575.1 1.4989-4.8277q0.71164-2.2921-1.5804-3.0037l-7.3943-2.2958q-2.2921-0.71164-3.0037 1.5804l-1.4989 4.8277q-0.71164 2.2921 1.5804 3.0037l7.3943 2.2958q2.2921 0.71164 3.0037-1.5804z" clip-path="url(#a)" fill="#fff" stroke="#fff"/>
<g clip-path="url(#a)">
<g transform="translate(361.38 573.9) rotate(-72.752) scale(.08 -.08)">
<use xlink:href="#v"/>
</g>
</g>
<path d="m388.42 573.9 0.24753-5.5808q0.10634-2.3976-2.2913-2.504l-7.7349-0.34307q-2.3976-0.10635-2.504 2.2913l-0.24753 5.5808q-0.10635 2.3976 2.2913 2.504l7.7349 0.34308q2.3976 0.10634 2.504-2.2913z" clip-path="url(#a)" fill="#fff" stroke="#fff"/>
<g clip-path="url(#a)">
<g transform="translate(384.36 573.72) rotate(-87.46) scale(.08 -.08)">
<use xlink:href="#s"/>
</g>
</g>
<path d="m409.08 530.85 2.9121 4.1319q1.3826 1.9617 3.3443 0.5791l6.3286-4.4604q1.9617-1.3826 0.5791-3.3443l-2.9121-4.1319q-1.3826-1.9617-3.3443-0.5791l-6.3286 4.4604q-1.9617 1.3826-0.5791 3.3443z" clip-path="url(#a)" fill="#fff" stroke="#fff"/>
<g clip-path="url(#a)">
<g transform="translate(412.4 528.51) rotate(54.824) scale(.08 -.08)">
<use xlink:href="#v"/>
</g>
</g>
<path d="m327.78 678.34v35.285q0 2.4 2.4 2.4h7.7425q2.4 0 2.4-2.4v-35.285q0-2.4-2.4-2.4h-7.7425q-2.4 0-2.4 2.4z" clip-path="url(#a)" fill="#fff" stroke="#fff"/>
<g clip-path="url(#a)">
<g transform="translate(331.85 678.34) rotate(90) scale(.08 -.08)">
<use xlink:href="#l"/>
<use x="60.818359" xlink:href="#d"/>
<use x="122.341797" xlink:href="#f"/>
<use x="163.439453" xlink:href="#k"/>
<use x="260.851562" xlink:href="#g"/>
<use x="288.634766" xlink:href="#h"/>
<use x="352.013672" xlink:href="#j"/>
<use x="413.292969" xlink:href="#i"/>
</g>
</g>
<path d="m372.29 678.34v35.285q0 2.4 2.4 2.4h7.7425q2.4 0 2.4-2.4v-35.285q0-2.4-2.4-2.4h-7.7425q-2.4 0-2.4 2.4z" clip-path="url(#a)" fill="#fff" stroke="#fff"/>
<g clip-path="url(#a)">
<g transform="translate(376.36 678.34) rotate(90) scale(.08 -.08)">
<use xlink:href="#l"/>
<use x="60.818359" xlink:href="#d"/>
<use x="122.341797" xlink:href="#f"/>
<use x="163.439453" xlink:href="#k"/>
<use x="260.851562" xlink:href="#g"/>
<use x="288.634766" xlink:href="#h"/>
<use x="352.013672" xlink:href="#j"/>
<use x="413.292969" xlink:href="#i"/>
</g>
</g>
<path d="m439.54 617.24 1.4388-5.3693q0.62122-2.3182-1.697-2.9394l-7.4786-2.0041q-2.3182-0.62122-2.9394 1.697l-1.4388 5.3693q-0.62122 2.3182 1.697 2.9394l7.4786 2.0041q2.3182 0.62122 2.9394-1.697z" clip-path="url(#a)" fill="#fff" stroke="#fff"/>
<g clip-path="url(#a)">
<g transform="translate(435.62 616.19) rotate(-74.999) scale(.08 -.08)">
<use xlink:href="#w"/>
</g>
</g>
<path d="m449.68 611.86 1.446 5.3959q0.62122 2.3182 2.9394 1.697l7.4786-2.0041q2.3182-0.62122 1.697-2.9394l-1.446-5.3959q-0.62122-2.3182-2.9394-1.697l-7.4786 2.0041q-2.3182 0.62122-1.697 2.9394z" clip-path="url(#a)" fill="#fff" stroke="#fff"/>
<g clip-path="url(#a)">
<g transform="translate(453.61 610.81) rotate(74.999) scale(.08 -.08)">
<use xlink:href="#s"/>
</g>
</g>
<path d="m416.81 678.34v35.285q0 2.4 2.4 2.4h7.7425q2.4 0 2.4-2.4v-35.285q0-2.4-2.4-2.4h-7.7425q-2.4 0-2.4 2.4z" clip-path="url(#a)" fill="#fff" stroke="#fff"/>
<g clip-path="url(#a)">
<g transform="translate(420.87 678.34) rotate(90) scale(.08 -.08)">
<use xlink:href="#l"/>
<use x="60.818359" xlink:href="#d"/>
<use x="122.341797" xlink:href="#f"/>
<use x="163.439453" xlink:href="#k"/>
<use x="260.851562" xlink:href="#g"/>
<use x="288.634766" xlink:href="#h"/>
<use x="352.013672" xlink:href="#j"/>
<use x="413.292969" xlink:href="#i"/>
</g>
</g>
<path d="m461.32 678.34v35.285q0 2.4 2.4 2.4h7.7425q2.4 0 2.4-2.4v-35.285q0-2.4-2.4-2.4h-7.7425q-2.4 0-2.4 2.4z" clip-path="url(#a)" fill="#fff" stroke="#fff"/>
<g clip-path="url(#a)">
<g transform="translate(465.38 678.34) rotate(90) scale(.08 -.08)">
<use xlink:href="#l"/>
<use x="60.818359" xlink:href="#d"/>
<use x="122.341797" xlink:href="#f"/>
<use x="163.439453" xlink:href="#k"/>
<use x="260.851562" xlink:href="#g"/>
<use x="288.634766" xlink:href="#h"/>
<use x="352.013672" xlink:href="#j"/>
<use x="413.292969" xlink:href="#i"/>
</g>
</g>
<path d="m371.43 365.35 8.7274-4.742q2.1088-1.1458 0.96299-3.2546l-3.6965-6.8031q-1.1458-2.1088-3.2546-0.96299l-8.7274 4.742q-2.1088 1.1458-0.96299 3.2546l3.6965 6.8031q1.1458 2.1088 3.2546 0.96299z" clip-path="url(#a)" fill="#fff" stroke="#fff"/>
<g clip-path="url(#a)">
<g transform="translate(369.49 361.78) rotate(-28.517) scale(.08 -.08)">
<use xlink:href="#u"/>
<use x="55.744141" xlink:href="#r"/>
</g>
</g>
<path d="m475.81 480.14 1.6949 9.8718q0.40612 2.3654 2.7715 1.9593l7.6308-1.3102q2.3654-0.40612 1.9593-2.7715l-1.6949-9.8718q-0.40612-2.3654-2.7715-1.9593l-7.6308 1.3102q-2.3654 0.40612-1.9593 2.7715z" clip-path="url(#a)" fill="#fff" stroke="#fff"/>
<g clip-path="url(#a)">
<g transform="translate(479.82 479.46) rotate(80.258) scale(.08 -.08)">
<use xlink:href="#u"/>
<use x="55.712891" xlink:href="#w"/>
</g>
</g>
<path d="m497.25 359.03 7.5606 6.4414q1.8269 1.5564 3.3833-0.27043l5.0212-5.8936q1.5564-1.8269-0.27043-3.3833l-7.5606-6.4414q-1.8269-1.5564-3.3833 0.27043l-5.0212 5.8936q-1.5564 1.8269 0.27043 3.3833z" clip-path="url(#a)" fill="#fff" stroke="#fff"/>
<g clip-path="url(#a)">
<g transform="translate(499.88 355.93) rotate(40.43) scale(.08 -.08)">
<use xlink:href="#u"/>
<use x="55.744141" xlink:href="#r"/>
</g>
</g>
<path d="m166.57 351.77 2.9426-9.5743q0.70507-2.2941-1.589-2.9992l-7.4009-2.2746q-2.2941-0.70507-2.9992 1.589l-2.9426 9.5743q-0.70507 2.2941 1.589 2.9992l7.4009 2.2746q2.2941 0.70507 2.9992-1.589z" clip-path="url(#a)" fill="#fff" stroke="#fff"/>
<g clip-path="url(#a)">
<g transform="translate(162.68 350.58) rotate(-72.916) scale(.08 -.08)">
<use xlink:href="#u"/>
<use x="55.712891" xlink:href="#w"/>
</g>
</g>
<path d="m344.93 86.82 8.8808 4.4481q2.1459 1.0748 3.2207-1.0711l3.4674-6.9227q1.0748-2.1459-1.0711-3.2207l-8.8808-4.4481q-2.1459-1.0748-3.2207 1.0711l-3.4674 6.9227q-1.0748 2.1459 1.0711 3.2207z" clip-path="url(#a)" fill="#fff" stroke="#fff"/>
<g clip-path="url(#a)">
<g transform="translate(346.75 83.187) rotate(26.605) scale(.08 -.08)">
<use xlink:href="#u"/>
<use x="55.744141" xlink:href="#r"/>
</g>
</g>
<path d="m950.96 678.34v35.285q0 2.4 2.4 2.4h7.7425q2.4 0 2.4-2.4v-35.285q0-2.4-2.4-2.4h-7.7425q-2.4 0-2.4 2.4z" clip-path="url(#a)" fill="#fff" stroke="#fff"/>
<g clip-path="url(#a)">
<g transform="translate(955.02 678.34) rotate(90) scale(.08 -.08)">
<use xlink:href="#l"/>
<use x="60.818359" xlink:href="#d"/>
<use x="122.341797" xlink:href="#f"/>
<use x="163.439453" xlink:href="#k"/>
<use x="260.851562" xlink:href="#g"/>
<use x="288.634766" xlink:href="#h"/>
<use x="352.013672" xlink:href="#j"/>
<use x="413.292969" xlink:href="#i"/>
</g>
</g>
<path d="m1307.1 678.34v35.285q0 2.4 2.4 2.4h7.7425q2.4 0 2.4-2.4v-35.285q0-2.4-2.4-2.4h-7.7425q-2.4 0-2.4 2.4z" clip-path="url(#a)" fill="#fff" stroke="#fff"/>
<g clip-path="url(#a)">
<g transform="translate(1311.1 678.34) rotate(90) scale(.08 -.08)">
<use xlink:href="#l"/>
<use x="60.818359" xlink:href="#d"/>
<use x="122.341797" xlink:href="#f"/>
<use x="163.439453" xlink:href="#k"/>
<use x="260.851562" xlink:href="#g"/>
<use x="288.634766" xlink:href="#h"/>
<use x="352.013672" xlink:href="#j"/>
<use x="413.292969" xlink:href="#i"/>
</g>
</g>
<defs>
<path id="b" d="m0 8.6603c2.2967 0 4.4997-0.9125 6.1237-2.5365 1.624-1.624 2.5365-3.827 2.5365-6.1237s-0.9125-4.4997-2.5365-6.1237c-1.624-1.624-3.827-2.5365-6.1237-2.5365s-4.4997 0.9125-6.1237 2.5365c-1.624 1.624-2.5365 3.827-2.5365 6.1237s0.9125 4.4997 2.5365 6.1237c1.624 1.624 3.827 2.5365 6.1237 2.5365z"/>
</defs>
<g clip-path="url(#a)">
<use x="66.976776" y="737.512159" fill="#ffffff" stroke="#ffffff" xlink:href="#b"/>
</g>
<g clip-path="url(#a)">
<use x="111.489436" y="737.512159" fill="#ffffff" stroke="#ffffff" xlink:href="#b"/>
</g>
<g clip-path="url(#a)">
<use x="156.002095" y="737.512159" fill="#ffffff" stroke="#ffffff" xlink:href="#b"/>
</g>
<g clip-path="url(#a)">
<use x="200.514754" y="737.512159" fill="#ffffff" stroke="#ffffff" xlink:href="#b"/>
</g>
<g clip-path="url(#a)">
<use x="245.027414" y="737.512159" fill="#ffffff" stroke="#ffffff" xlink:href="#b"/>
</g>
<g clip-path="url(#a)">
<use x="289.540073" y="737.512159" fill="#ffffff" stroke="#ffffff" xlink:href="#b"/>
</g>
<g clip-path="url(#a)">
<use x="334.052732" y="737.512159" fill="#ffffff" stroke="#ffffff" xlink:href="#b"/>
</g>
<g clip-path="url(#a)">
<use x="378.565392" y="737.512159" fill="#ffffff" stroke="#ffffff" xlink:href="#b"/>
</g>
<g clip-path="url(#a)">
<use x="423.078051" y="737.512159" fill="#ffffff" stroke="#ffffff" xlink:href="#b"/>
</g>
<g clip-path="url(#a)">
<use x="467.590711" y="737.512159" fill="#ffffff" stroke="#ffffff" xlink:href="#b"/>
</g>
<g clip-path="url(#a)">
<use x="512.10337" y="737.512159" fill="#ffffff" stroke="#ffffff" xlink:href="#b"/>
</g>
<g clip-path="url(#a)">
<use x="556.616029" y="737.512159" fill="#ffffff" stroke="#ffffff" xlink:href="#b"/>
</g>
<g clip-path="url(#a)">
<use x="601.128689" y="737.512159" fill="#ffffff" stroke="#ffffff" xlink:href="#b"/>
</g>
<g clip-path="url(#a)">
<use x="645.641348" y="737.512159" fill="#ffffff" stroke="#ffffff" xlink:href="#b"/>
</g>
<g clip-path="url(#a)">
<use x="690.154007" y="737.512159" fill="#ffffff" stroke="#ffffff" xlink:href="#b"/>
</g>
<g clip-path="url(#a)">
<use x="734.666667" y="737.512159" fill="#ffffff" stroke="#ffffff" xlink:href="#b"/>
</g>
<g clip-path="url(#a)">
<use x="779.179326" y="737.512159" fill="#ffffff" stroke="#ffffff" xlink:href="#b"/>
</g>
<g clip-path="url(#a)">
<use x="823.691985" y="737.512159" fill="#ffffff" stroke="#ffffff" xlink:href="#b"/>
</g>
<g clip-path="url(#a)">
<use x="868.204645" y="737.512159" fill="#ffffff" stroke="#ffffff" xlink:href="#b"/>
</g>
<g clip-path="url(#a)">
<use x="912.717304" y="737.512159" fill="#ffffff" stroke="#ffffff" xlink:href="#b"/>
</g>
<g clip-path="url(#a)">
<use x="957.229963" y="737.512159" fill="#ffffff" stroke="#ffffff" xlink:href="#b"/>
</g>
<g clip-path="url(#a)">
<use x="1001.742623" y="737.512159" fill="#ffffff" stroke="#ffffff" xlink:href="#b"/>
</g>
<g clip-path="url(#a)">
<use x="1046.255282" y="737.512159" fill="#ffffff" stroke="#ffffff" xlink:href="#b"/>
</g>
<g clip-path="url(#a)">
<use x="1090.767942" y="737.512159" fill="#ffffff" stroke="#ffffff" xlink:href="#b"/>
</g>
<g clip-path="url(#a)">
<use x="1135.280601" y="737.512159" fill="#ffffff" stroke="#ffffff" xlink:href="#b"/>
</g>
<g clip-path="url(#a)">
<use x="1179.79326" y="737.512159" fill="#ffffff" stroke="#ffffff" xlink:href="#b"/>
</g>
<g clip-path="url(#a)">
<use x="1224.30592" y="737.512159" fill="#ffffff" stroke="#ffffff" xlink:href="#b"/>
</g>
<g clip-path="url(#a)">
<use x="1268.818579" y="737.512159" fill="#ffffff" stroke="#ffffff" xlink:href="#b"/>
</g>
<g clip-path="url(#a)">
<use x="1313.331238" y="737.512159" fill="#ffffff" stroke="#ffffff" xlink:href="#b"/>
</g>
<g clip-path="url(#a)">
<use x="677.956817" y="35.821175" fill="#ffffff" stroke="#ffffff" xlink:href="#b"/>
</g>
<g clip-path="url(#a)">
<use x="66.976776" y="654.458698" fill="#ffffff" stroke="#ffffff" xlink:href="#b"/>
</g>
<g clip-path="url(#a)">
<use x="447.240594" y="131.052639" fill="#ffffff" stroke="#ffffff" xlink:href="#b"/>
</g>
<g clip-path="url(#a)">
<use x="1240.379935" y="401.366082" fill="#ffffff" stroke="#ffffff" xlink:href="#b"/>
</g>
<g clip-path="url(#a)">
<use x="1402.356557" y="737.512159" fill="#ffffff" stroke="#ffffff" xlink:href="#b"/>
</g>
<g clip-path="url(#a)">
<use x="1053.674059" y="487.196412" fill="#ffffff" stroke="#ffffff" xlink:href="#b"/>
</g>
<g clip-path="url(#a)">
<use x="1179.79326" y="654.458698" fill="#ffffff" stroke="#ffffff" xlink:href="#b"/>
</g>
<g clip-path="url(#a)">
<use x="1224.30592" y="654.458698" fill="#ffffff" stroke="#ffffff" xlink:href="#b"/>
</g>
<g clip-path="url(#a)">
<use x="1268.818579" y="654.458698" fill="#ffffff" stroke="#ffffff" xlink:href="#b"/>
</g>
<g clip-path="url(#a)">
<use x="1001.742623" y="654.458698" fill="#ffffff" stroke="#ffffff" xlink:href="#b"/>
</g>
<g clip-path="url(#a)">
<use x="1046.255282" y="654.458698" fill="#ffffff" stroke="#ffffff" xlink:href="#b"/>
</g>
<g clip-path="url(#a)">
<use x="1113.024271" y="571.405238" fill="#ffffff" stroke="#ffffff" xlink:href="#b"/>
</g>
<g clip-path="url(#a)">
<use x="1090.767942" y="654.458698" fill="#ffffff" stroke="#ffffff" xlink:href="#b"/>
</g>
<g clip-path="url(#a)">
<use x="1135.280601" y="654.458698" fill="#ffffff" stroke="#ffffff" xlink:href="#b"/>
</g>
<g clip-path="url(#a)">
<use x="1357.843898" y="737.512159" fill="#ffffff" stroke="#ffffff" xlink:href="#b"/>
</g>
<g clip-path="url(#a)">
<use x="111.489436" y="654.458698" fill="#ffffff" stroke="#ffffff" xlink:href="#b"/>
</g>
<g clip-path="url(#a)">
<use x="252.652267" y="223.559529" fill="#ffffff" stroke="#ffffff" xlink:href="#b"/>
</g>
<g clip-path="url(#a)">
<use x="156.002095" y="654.458698" fill="#ffffff" stroke="#ffffff" xlink:href="#b"/>
</g>
<g clip-path="url(#a)">
<use x="200.514754" y="654.458698" fill="#ffffff" stroke="#ffffff" xlink:href="#b"/>
</g>
<g clip-path="url(#a)">
<use x="401.439953" y="313.580089" fill="#ffffff" stroke="#ffffff" xlink:href="#b"/>
</g>
<g clip-path="url(#a)">
<use x="245.027414" y="654.458698" fill="#ffffff" stroke="#ffffff" xlink:href="#b"/>
</g>
<g clip-path="url(#a)">
<use x="292.012999" y="401.366082" fill="#ffffff" stroke="#ffffff" xlink:href="#b"/>
</g>
<g clip-path="url(#a)">
<use x="512.10337" y="654.458698" fill="#ffffff" stroke="#ffffff" xlink:href="#b"/>
</g>
<g clip-path="url(#a)">
<use x="556.616029" y="401.366082" fill="#ffffff" stroke="#ffffff" xlink:href="#b"/>
</g>
<g clip-path="url(#a)">
<use x="556.616029" y="654.458698" fill="#ffffff" stroke="#ffffff" xlink:href="#b"/>
</g>
<g clip-path="url(#a)">
<use x="645.641348" y="571.405238" fill="#ffffff" stroke="#ffffff" xlink:href="#b"/>
</g>
<g clip-path="url(#a)">
<use x="823.691985" y="487.196412" fill="#ffffff" stroke="#ffffff" xlink:href="#b"/>
</g>
<g clip-path="url(#a)">
<use x="734.666667" y="654.458698" fill="#ffffff" stroke="#ffffff" xlink:href="#b"/>
</g>
<g clip-path="url(#a)">
<use x="823.691985" y="571.405238" fill="#ffffff" stroke="#ffffff" xlink:href="#b"/>
</g>
<g clip-path="url(#a)">
<use x="912.717304" y="654.458698" fill="#ffffff" stroke="#ffffff" xlink:href="#b"/>
</g>
<g clip-path="url(#a)">
<use x="779.179326" y="654.458698" fill="#ffffff" stroke="#ffffff" xlink:href="#b"/>
</g>
<g clip-path="url(#a)">
<use x="823.691985" y="654.458698" fill="#ffffff" stroke="#ffffff" xlink:href="#b"/>
</g>
<g clip-path="url(#a)">
<use x="868.204645" y="654.458698" fill="#ffffff" stroke="#ffffff" xlink:href="#b"/>
</g>
<g clip-path="url(#a)">
<use x="601.128689" y="654.458698" fill="#ffffff" stroke="#ffffff" xlink:href="#b"/>
</g>
<g clip-path="url(#a)">
<use x="645.641348" y="654.458698" fill="#ffffff" stroke="#ffffff" xlink:href="#b"/>
</g>
<g clip-path="url(#a)">
<use x="690.154007" y="654.458698" fill="#ffffff" stroke="#ffffff" xlink:href="#b"/>
</g>
<g clip-path="url(#a)">
<use x="289.540073" y="654.458698" fill="#ffffff" stroke="#ffffff" xlink:href="#b"/>
</g>
<g clip-path="url(#a)">
<use x="385.984168" y="487.196412" fill="#ffffff" stroke="#ffffff" xlink:href="#b"/>
</g>
<g clip-path="url(#a)">
<use x="334.052732" y="654.458698" fill="#ffffff" stroke="#ffffff" xlink:href="#b"/>
</g>
<g clip-path="url(#a)">
<use x="378.565392" y="654.458698" fill="#ffffff" stroke="#ffffff" xlink:href="#b"/>
</g>
<g clip-path="url(#a)">
<use x="445.334381" y="571.405238" fill="#ffffff" stroke="#ffffff" xlink:href="#b"/>
</g>
<g clip-path="url(#a)">
<use x="423.078051" y="654.458698" fill="#ffffff" stroke="#ffffff" xlink:href="#b"/>
</g>
<g clip-path="url(#a)">
<use x="467.590711" y="654.458698" fill="#ffffff" stroke="#ffffff" xlink:href="#b"/>
</g>
<g clip-path="url(#a)">
<use x="453.577466" y="313.580089" fill="#808080" stroke="#808080" xlink:href="#b"/>
</g>
<g clip-path="url(#a)">
<use x="257.108685" y="35.821175" fill="#808080" stroke="#808080" xlink:href="#b"/>
</g>
<g clip-path="url(#a)">
<use x="957.229963" y="654.458698" fill="#ffffff" stroke="#ffffff" xlink:href="#b"/>
</g>
<g clip-path="url(#a)">
<use x="1313.331238" y="654.458698" fill="#ffffff" stroke="#ffffff" xlink:href="#b"/>
</g>
<g clip-path="url(#a)">
<defs>
<path id="ar" d="m53.516 70.516v-9.625q-5.6094 2.6875-10.594 4-4.9844 1.3281-9.625 1.3281-8.0469 0-12.422-3.125t-4.375-8.8906q0-4.8438 2.9062-7.3125 2.9062-2.4531 11.016-3.9688l5.9531-1.2188q11.031-2.1094 16.281-7.4062t5.25-14.172q0-10.609-7.1094-16.078-7.0938-5.4688-20.812-5.4688-5.1719 0-11.016 1.1719-5.8281 1.1719-12.078 3.4688v10.156q6-3.3594 11.766-5.0781 5.7656-1.7031 11.328-1.7031 8.4375 0 13.031 3.3125 4.5938 3.3281 4.5938 9.4844 0 5.3594-3.2969 8.3906t-10.812 4.5469l-6.0156 1.1719q-11.031 2.1875-15.969 6.875-4.9219 4.6875-4.9219 13.047 0 9.6719 6.8125 15.234t18.766 5.5625q5.1406 0 10.453-0.9375 5.3281-0.92188 10.891-2.7656z"/>
<path id="q" d="m44.281 53.078v-8.5q-3.7969 1.9531-7.9062 2.9219-4.0938 0.98438-8.5 0.98438-6.6875 0-10.031-2.0469t-3.3438-6.1562q0-3.125 2.3906-4.9062t9.625-3.3906l3.0781-0.6875q9.5625-2.0469 13.594-5.7812t4.0312-10.422q0-7.625-6.0312-12.078-6.0312-4.4375-16.578-4.4375-4.3906 0-9.1562 0.85938t-10.031 2.5625v9.2812q4.9844-2.5938 9.8125-3.8906 4.8281-1.2812 9.5781-1.2812 6.3438 0 9.75 2.1719 3.4219 2.1719 3.4219 6.125 0 3.6562-2.4688 5.6094-2.4531 1.9531-10.812 3.7656l-3.125 0.73438q-8.3438 1.75-12.062 5.3906-3.7031 3.6406-3.7031 9.9844 0 7.7188 5.4688 11.906 5.4688 4.2031 15.531 4.2031 4.9688 0 9.3594-0.73438 4.4062-0.71875 8.1094-2.1875z"/>
</defs>
<g transform="translate(54.965 740.27) scale(.1 -.1)">
<use xlink:href="#ar"/>
<use x="63.476562" xlink:href="#j"/>
<use x="124.755859" xlink:href="#h"/>
<use x="188.134766" xlink:href="#q"/>
</g>
</g>
<g clip-path="url(#a)">
<defs>
<path id="x" d="m18.109 8.2031v-29h-9.0312v75.484h9.0312v-8.2969q2.8438 4.875 7.1562 7.2344 4.3281 2.375 10.328 2.375 9.9688 0 16.188-7.9062 6.2344-7.9062 6.2344-20.797t-6.2344-20.812q-6.2188-7.9062-16.188-7.9062-6 0-10.328 2.375-4.3125 2.375-7.1562 7.25zm30.578 19.094q0 9.9062-4.0781 15.547t-11.203 5.6406q-7.1406 0-11.219-5.6406t-4.0781-15.547 4.0781-15.547 11.219-5.6406q7.125 0 11.203 5.6406t4.0781 15.547z"/>
</defs>
<g transform="translate(96.675 740.27) scale(.1 -.1)">
<use xlink:href="#x"/>
<use x="63.476562" xlink:href="#j"/>
<use x="124.755859" xlink:href="#f"/>
<use x="165.869141" xlink:href="#i"/>
<use x="193.652344" xlink:href="#d"/>
<use x="255.175781" xlink:href="#f"/>
</g>
</g>
<g clip-path="url(#a)">
<defs>
<path id="ai" d="m45.406 46.391v29.594h8.9844v-75.984h-8.9844v8.2031q-2.8281-4.875-7.1562-7.25-4.3125-2.375-10.375-2.375-9.9062 0-16.141 7.9062-6.2188 7.9219-6.2188 20.812t6.2188 20.797q6.2344 7.9062 16.141 7.9062 6.0625 0 10.375-2.375 4.3281-2.3594 7.1562-7.2344zm-30.609-19.094q0-9.9062 4.0781-15.547t11.203-5.6406 11.219 5.6406q4.1094 5.6406 4.1094 15.547t-4.1094 15.547q-4.0938 5.6406-11.219 5.6406t-11.203-5.6406-4.0781-15.547z"/>
</defs>
<g transform="translate(147.15 740.27) scale(.1 -.1)">
<use xlink:href="#ai"/>
<use x="63.476562" xlink:href="#d"/>
<use x="125" xlink:href="#q"/>
</g>
</g>
<g clip-path="url(#a)">
<defs>
<path id="t" d="m8.5 21.578v33.109h8.9844v-32.766q0-7.7656 3.0156-11.656 3.0312-3.875 9.0938-3.875 7.2656 0 11.484 4.6406 4.2344 4.6406 4.2344 12.656v31h8.9844v-54.688h-8.9844v8.4062q-3.2656-4.9844-7.5938-7.4062-4.3125-2.4219-10.031-2.4219-9.4219 0-14.312 5.8594-4.875 5.8594-4.875 17.141z"/>
</defs>
<g transform="translate(179.51 740.27) scale(.1 -.1)">
<use xlink:href="#f"/>
<use x="41.113281" xlink:href="#t"/>
<use x="104.492188" xlink:href="#k"/>
<use x="201.904297" xlink:href="#d"/>
<use x="263.427734" xlink:href="#t"/>
<use x="326.806641" xlink:href="#f"/>
<use x="367.919922" xlink:href="#q"/>
</g>
</g>
<g clip-path="url(#a)">
<defs>
<path id="ax" d="m14.797 27.297q0-9.9062 4.0781-15.547t11.203-5.6406 11.219 5.6406q4.1094 5.6406 4.1094 15.547t-4.1094 15.547q-4.0938 5.6406-11.219 5.6406t-11.203-5.6406-4.0781-15.547zm30.609-19.094q-2.8281-4.875-7.1562-7.25-4.3125-2.375-10.375-2.375-9.9062 0-16.141 7.9062-6.2188 7.9219-6.2188 20.812t6.2188 20.797q6.2344 7.9062 16.141 7.9062 6.0625 0 10.375-2.375 4.3281-2.3594 7.1562-7.2344v8.2969h8.9844v-75.484h-8.9844z"/>
</defs>
<g transform="translate(237.3 740.27) scale(.1 -.1)">
<use xlink:href="#ax"/>
<use x="63.476562" xlink:href="#t"/>
<use x="126.855469" xlink:href="#g"/>
</g>
</g>
<g clip-path="url(#a)">
<defs>
<path id="ap" d="m45.406 27.984q0 9.7656-4.0312 15.125-4.0156 5.375-11.297 5.375-7.2188 0-11.25-5.375-4.0312-5.3594-4.0312-15.125 0-9.7188 4.0312-15.094t11.25-5.375q7.2812 0 11.297 5.375 4.0312 5.375 4.0312 15.094zm8.9844-21.203q0-13.953-6.2031-20.766-6.1875-6.8125-18.984-6.8125-4.7344 0-8.9375 0.70312t-8.1562 2.1719v8.7344q3.9531-2.1406 7.8125-3.1562 3.8594-1.0312 7.8594-1.0312 8.8438 0 13.234 4.6094t4.3906 13.938v4.4531q-2.7812-4.8438-7.125-7.2344t-10.406-2.3906q-10.047 0-16.203 7.6562-6.1562 7.6719-6.1562 20.328 0 12.688 6.1562 20.344 6.1562 7.6719 16.203 7.6719 6.0625 0 10.406-2.3906t7.125-7.2188v8.2969h8.9844z"/>
<path id="p" d="m18.312 70.219v-15.531h18.5v-6.9844h-18.5v-29.688q0-6.6875 1.8281-8.5938t7.4531-1.9062h9.2188v-7.5156h-9.2188q-10.406 0-14.359 3.875-3.9531 3.8906-3.9531 14.141v29.688h-6.5938v6.9844h6.5938v15.531z"/>
</defs>
<g transform="translate(267.29 740.27) scale(.1 -.1)">
<use xlink:href="#j"/>
<use x="61.279297" xlink:href="#ap"/>
<use x="124.755859" xlink:href="#g"/>
<use x="152.539062" xlink:href="#p"/>
<use x="191.748047" xlink:href="#j"/>
<use x="253.027344" xlink:href="#g"/>
<use x="280.810547" xlink:href="#d"/>
<use x="342.333984" xlink:href="#h"/>
<use x="405.712891" xlink:href="#p"/>
</g>
</g>
<g clip-path="url(#a)">
<g transform="translate(326.98 740.27) scale(.1 -.1)">
<use xlink:href="#i"/>
<use x="27.783203" xlink:href="#d"/>
<use x="89.306641" xlink:href="#q"/>
</g>
</g>
<g clip-path="url(#a)">
<defs>
<path id="ah" d="m30.609 48.391q-7.2188 0-11.422-5.6406t-4.2031-15.453 4.1719-15.453q4.1875-5.6406 11.453-5.6406 7.1875 0 11.375 5.6562 4.2031 5.6719 4.2031 15.438 0 9.7188-4.2031 15.406-4.1875 5.6875-11.375 5.6875zm0 7.6094q11.719 0 18.406-7.625 6.7031-7.6094 6.7031-21.078 0-13.422-6.7031-21.078-6.6875-7.6406-18.406-7.6406-11.766 0-18.438 7.6406-6.6562 7.6562-6.6562 21.078 0 13.469 6.6562 21.078 6.6719 7.625 18.438 7.625z"/>
</defs>
<g transform="translate(349.35 740.27) scale(.1 -.1)">
<use xlink:href="#x"/>
<use x="63.476562" xlink:href="#ah"/>
<use x="124.658203" xlink:href="#x"/>
<use x="188.134766" xlink:href="#t"/>
<use x="251.513672" xlink:href="#i"/>
<use x="279.296875" xlink:href="#j"/>
<use x="340.576172" xlink:href="#p"/>
<use x="379.785156" xlink:href="#g"/>
<use x="407.568359" xlink:href="#ah"/>
<use x="468.75" xlink:href="#h"/>
<use x="532.128906" xlink:href="#q"/>
</g>
</g>
<g clip-path="url(#a)">
<g transform="translate(414.22 740.27) scale(.1 -.1)">
<use xlink:href="#ai"/>
<use x="63.476562" xlink:href="#d"/>
<use x="125" xlink:href="#q"/>
</g>
</g>
<g clip-path="url(#a)">
<g transform="translate(454.74 740.27) scale(.1 -.1)">
<use xlink:href="#x"/>
<use x="63.476562" xlink:href="#ah"/>
<use x="124.658203" xlink:href="#f"/>
<use x="165.771484" xlink:href="#p"/>
<use x="204.980469" xlink:href="#q"/>
</g>
</g>
<g clip-path="url(#a)">
<g transform="translate(507.07 740.27) scale(.1 -.1)">
<use xlink:href="#d"/>
<use x="61.523438" xlink:href="#p"/>
</g>
</g>
<g clip-path="url(#a)">
<defs>
<path id="aw" d="m54.891 54.688-19.781-26.609 20.797-28.078h-10.594l-15.922 21.484-15.906-21.484h-10.609l21.25 28.609-19.438 26.078h10.594l14.5-19.484 14.5 19.484z"/>
<path id="ac" d="m48.781 52.594v-8.4062q-3.8125 2.1094-7.6406 3.1562t-7.7344 1.0469q-8.75 0-13.594-5.5469-4.8281-5.5312-4.8281-15.547t4.8281-15.562q4.8438-5.5312 13.594-5.5312 3.9062 0 7.7344 1.0469t7.6406 3.1562v-8.3125q-3.7656-1.75-7.7969-2.625-4.0156-0.89062-8.5625-0.89062-12.359 0-19.641 7.7656-7.2656 7.7656-7.2656 20.953 0 13.375 7.3438 21.031 7.3594 7.6719 20.156 7.6719 4.1406 0 8.0938-0.85938 3.9531-0.84375 7.6719-2.5469z"/>
</defs>
<g transform="translate(524 740.27) scale(.1 -.1)">
<use xlink:href="#q"/>
<use x="52.099609" xlink:href="#t"/>
<use x="115.478516" xlink:href="#f"/>
<use x="156.560547" xlink:href="#d"/>
<use x="218.068359" xlink:href="#aw"/>
<use x="277.232422" xlink:href="#ac"/>
<use x="332.212891" xlink:href="#g"/>
<use x="359.996094" xlink:href="#p"/>
<use x="399.205078" xlink:href="#j"/>
<use x="460.484375" xlink:href="#g"/>
<use x="488.267578" xlink:href="#d"/>
<use x="549.791016" xlink:href="#h"/>
<use x="613.169922" xlink:href="#p"/>
</g>
</g>
<g clip-path="url(#a)">
<defs>
<path id="an" d="m17.922 72.906v-27.109h-8.2969v27.109z"/>
</defs>
<g transform="translate(598.37 740.27) scale(.1 -.1)">
<use xlink:href="#i"/>
<use x="27.783203" xlink:href="#an"/>
</g>
</g>
<g clip-path="url(#a)">
<g transform="translate(631.38 740.27) scale(.1 -.1)">
<use xlink:href="#d"/>
<use x="61.523438" xlink:href="#q"/>
<use x="113.623047" xlink:href="#x"/>
<use x="177.099609" xlink:href="#f"/>
<use x="218.212891" xlink:href="#g"/>
<use x="245.996094" xlink:href="#p"/>
</g>
</g>
<g clip-path="url(#a)">
<defs>
<path id="aq" d="m48.688 27.297q0 9.9062-4.0781 15.547t-11.203 5.6406q-7.1406 0-11.219-5.6406t-4.0781-15.547 4.0781-15.547 11.219-5.6406q7.125 0 11.203 5.6406t4.0781 15.547zm-30.578 19.094q2.8438 4.875 7.1562 7.2344 4.3281 2.375 10.328 2.375 9.9688 0 16.188-7.9062 6.2344-7.9062 6.2344-20.797t-6.2344-20.812q-6.2188-7.9062-16.188-7.9062-6 0-10.328 2.375-4.3125 2.375-7.1562 7.25v-8.2031h-9.0312v75.984h9.0312z"/>
</defs>
<g transform="translate(675.11 740.27) scale(.1 -.1)">
<use xlink:href="#x"/>
<use x="63.476562" xlink:href="#t"/>
<use x="126.855469" xlink:href="#aq"/>
<use x="190.332031" xlink:href="#i"/>
<use x="218.115234" xlink:href="#g"/>
<use x="245.898438" xlink:href="#ac"/>
</g>
</g>
<g clip-path="url(#a)">
<defs>
<path id="av" d="m34.281 27.484q-10.891 0-15.094-2.4844t-4.2031-8.5q0-4.7812 3.1562-7.5938 3.1562-2.7969 8.5625-2.7969 7.4844 0 12 5.2969t4.5156 14.078v2zm17.922 3.7188v-31.203h-8.9844v8.2969q-3.0781-4.9688-7.6719-7.3438t-11.234-2.375q-8.3906 0-13.359 4.7188-4.9531 4.7188-4.9531 12.625 0 9.2188 6.1719 13.906 6.1875 4.6875 18.438 4.6875h12.609v0.89062q0 6.2031-4.0781 9.5938t-11.453 3.3906q-4.6875 0-9.1406-1.125-4.4375-1.125-8.5312-3.375v8.3125q4.9219 1.9062 9.5625 2.8438 4.6406 0.95312 9.0312 0.95312 11.875 0 17.734-6.1562 5.8594-6.1406 5.8594-18.641zm-30.281 48.781 13.766-18.266h-7.4688l-15.922 18.266z"/>
</defs>
<g transform="translate(731.6 740.27) scale(.1 -.1)">
<use xlink:href="#av"/>
</g>
</g>
<g clip-path="url(#a)">
<g transform="translate(776.42 740.27) scale(.1 -.1)">
<use xlink:href="#i"/>
<use x="27.783203" xlink:href="#an"/>
</g>
</g>
<g clip-path="url(#a)">
<defs>
<path id="ao" d="m56.203 29.594v-4.3906h-41.312q0.59375-9.2812 5.5938-14.141t13.938-4.8594q5.1719 0 10.031 1.2656t9.6562 3.8125v-8.5q-4.8438-2.0469-9.9219-3.125t-10.297-1.0781q-13.094 0-20.734 7.6094-7.6406 7.625-7.6406 20.625 0 13.422 7.25 21.297 7.25 7.8906 19.562 7.8906 11.031 0 17.453-7.1094 6.4219-7.0938 6.4219-19.297zm-8.9844 2.6406q-0.09375 7.3594-4.125 11.75-4.0312 4.4062-10.672 4.4062-7.5156 0-12.031-4.25t-5.2031-11.969zm-8.6875 47.75h9.7188l-15.906-18.359h-7.4844z"/>
</defs>
<g transform="translate(802.35 740.27) scale(.1 -.1)">
<use xlink:href="#g"/>
<use x="27.783203" xlink:href="#h"/>
<use x="91.162109" xlink:href="#p"/>
<use x="130.371094" xlink:href="#ao"/>
<use x="191.894531" xlink:href="#f"/>
<use x="233.007812" xlink:href="#g"/>
<use x="260.791016" xlink:href="#d"/>
<use x="322.314453" xlink:href="#t"/>
<use x="385.693359" xlink:href="#f"/>
</g>
</g>
<g clip-path="url(#a)">
<g transform="translate(859.35 740.27) scale(.1 -.1)">
<use xlink:href="#ai"/>
<use x="63.476562" xlink:href="#d"/>
<use x="125" xlink:href="#q"/>
</g>
</g>
<g clip-path="url(#a)">
<g transform="translate(886.41 740.27) scale(.1 -.1)">
<use xlink:href="#ac"/>
<use x="54.980469" xlink:href="#ah"/>
<use x="116.162109" xlink:href="#h"/>
<use x="179.541016" xlink:href="#p"/>
<use x="218.75" xlink:href="#g"/>
<use x="246.533203" xlink:href="#h"/>
<use x="309.912109" xlink:href="#d"/>
<use x="371.435547" xlink:href="#h"/>
<use x="434.814453" xlink:href="#p"/>
<use x="474.023438" xlink:href="#q"/>
</g>
</g>
<g clip-path="url(#a)">
<defs>
<path id="at" d="m11.719 12.406h10.297v-8.4062l-8-15.625h-6.2969l4 15.625z"/>
</defs>
<g transform="translate(955.64 740.27) scale(.1 -.1)">
<use xlink:href="#at"/>
</g>
</g>
<g clip-path="url(#a)">
<g transform="translate(994.67 740.27) scale(.1 -.1)">
<use xlink:href="#i"/>
<use x="27.783203" xlink:href="#d"/>
<use x="89.306641" xlink:href="#q"/>
</g>
</g>
<g clip-path="url(#a)">
<g transform="translate(1034.2 740.27) scale(.1 -.1)">
<use xlink:href="#ap"/>
<use x="63.476562" xlink:href="#d"/>
<use x="125" xlink:href="#h"/>
<use x="188.378906" xlink:href="#q"/>
</g>
</g>
<g clip-path="url(#a)">
<g transform="translate(1084.5 740.27) scale(.1 -.1)">
<use xlink:href="#ai"/>
<use x="63.476562" xlink:href="#d"/>
</g>
</g>
<g clip-path="url(#a)">
<g transform="translate(1125.3 740.27) scale(.1 -.1)">
<use xlink:href="#k"/>
<use x="97.412109" xlink:href="#d"/>
<use x="158.935547" xlink:href="#f"/>
</g>
</g>
<g clip-path="url(#a)">
<defs>
<path id="ay" d="m37.109 75.984v-7.4844h-8.5938q-4.8281 0-6.7188-1.9531-1.875-1.9531-1.875-7.0312v-4.8281h14.797v-6.9844h-14.797v-47.703h-9.0312v47.703h-8.5938v6.9844h8.5938v3.8125q0 9.125 4.25 13.297 4.25 4.1875 13.469 4.1875z"/>
</defs>
<g transform="translate(1164.6 740.27) scale(.1 -.1)">
<use xlink:href="#ay"/>
<use x="35.205078" xlink:href="#t"/>
<use x="98.583984" xlink:href="#f"/>
<use x="139.666016" xlink:href="#d"/>
<use x="201.189453" xlink:href="#h"/>
<use x="264.568359" xlink:href="#p"/>
</g>
</g>
<g clip-path="url(#a)">
<defs>
<path id="au" d="m56.203 29.594v-4.3906h-41.312q0.59375-9.2812 5.5938-14.141t13.938-4.8594q5.1719 0 10.031 1.2656t9.6562 3.8125v-8.5q-4.8438-2.0469-9.9219-3.125t-10.297-1.0781q-13.094 0-20.734 7.6094-7.6406 7.625-7.6406 20.625 0 13.422 7.25 21.297 7.25 7.8906 19.562 7.8906 11.031 0 17.453-7.1094 6.4219-7.0938 6.4219-19.297zm-8.9844 2.6406q-0.09375 7.3594-4.125 11.75-4.0312 4.4062-10.672 4.4062-7.5156 0-12.031-4.25t-5.2031-11.969zm-22.547 47.75 13.766-18.266h-7.4688l-15.922 18.266z"/>
</defs>
<g transform="translate(1182.7 740.47) scale(.1 -.1)">
<use xlink:href="#x"/>
<use x="63.476562" xlink:href="#j"/>
<use x="124.755859" xlink:href="#f"/>
<use x="165.869141" xlink:href="#p"/>
<use x="205.078125" xlink:href="#g"/>
<use x="232.861328" xlink:href="#ac"/>
<use x="287.841797" xlink:href="#t"/>
<use x="351.220703" xlink:href="#i"/>
<use x="379.003906" xlink:href="#g"/>
<use x="406.787109" xlink:href="#au"/>
<use x="468.310547" xlink:href="#f"/>
<use x="509.392578" xlink:href="#d"/>
<use x="570.916016" xlink:href="#k"/>
<use x="668.328125" xlink:href="#d"/>
<use x="729.851562" xlink:href="#h"/>
<use x="793.230469" xlink:href="#p"/>
</g>
</g>
<g clip-path="url(#a)">
<g transform="translate(1255.1 740.27) scale(.1 -.1)">
<use xlink:href="#ao"/>
<use x="61.523438" xlink:href="#k"/>
<use x="158.935547" xlink:href="#t"/>
<use x="222.314453" xlink:href="#q"/>
</g>
</g>
<g clip-path="url(#a)">
<defs>
<path id="e" d="m10.688 12.406h10.312v-12.406h-10.312z"/>
</defs>
<g transform="translate(1311.7 740.27) scale(.1 -.1)">
<use xlink:href="#e"/>
</g>
</g>
<g clip-path="url(#a)">
<defs>
<path id="c" d="m12.406 8.2969h16.109v55.625l-17.531-3.5156v8.9844l17.438 3.5156h9.8594v-64.609h16.109v-8.2969h-41.984z"/>
</defs>
<g transform="translate(670.01 38.581) scale(.1 -.1)">
<use xlink:href="#c"/>
<use x="63.623047" xlink:href="#e"/>
<use x="95.410156" xlink:href="#c"/>
</g>
</g>
<g clip-path="url(#a)">
<defs>
<path id="o" d="m19.188 8.2969h34.422v-8.2969h-46.281v8.2969q5.6094 5.8125 15.297 15.594 9.7031 9.7969 12.188 12.641 4.7344 5.3125 6.6094 9 1.8906 3.6875 1.8906 7.25 0 5.8125-4.0781 9.4688-4.0781 3.6719-10.625 3.6719-4.6406 0-9.7969-1.6094-5.1406-1.6094-11-4.8906v9.9688q5.9531 2.3906 11.125 3.6094 5.1875 1.2188 9.4844 1.2188 11.328 0 18.062-5.6719 6.7344-5.6562 6.7344-15.125 0-4.5-1.6875-8.5312-1.6719-4.0156-6.125-9.4844-1.2188-1.4219-7.7656-8.1875-6.5312-6.7656-18.453-18.922z"/>
</defs>
<g transform="translate(59.025 657.22) scale(.1 -.1)">
<use xlink:href="#c"/>
<use x="63.623047" xlink:href="#e"/>
<use x="95.410156" xlink:href="#o"/>
</g>
</g>
<g clip-path="url(#a)">
<defs>
<path id="n" d="m40.578 39.312q7.0781-1.5156 11.047-6.3125 3.9844-4.7812 3.9844-11.812 0-10.781-7.4219-16.703-7.4219-5.9062-21.094-5.9062-4.5781 0-9.4375 0.90625t-10.031 2.7188v9.5156q4.0938-2.3906 8.9688-3.6094 4.8906-1.2188 10.219-1.2188 9.2656 0 14.125 3.6562t4.8594 10.641q0 6.4531-4.5156 10.078-4.5156 3.6406-12.562 3.6406h-8.5v8.1094h8.8906q7.2656 0 11.125 2.9062t3.8594 8.375q0 5.6094-3.9844 8.6094-3.9688 3.0156-11.391 3.0156-4.0625 0-8.7031-0.89062-4.6406-0.875-10.203-2.7188v8.7812q5.625 1.5625 10.531 2.3438t9.25 0.78125q11.234 0 17.766-5.1094 6.5469-5.0938 6.5469-13.781 0-6.0625-3.4688-10.234t-9.8594-5.7812z"/>
</defs>
<g transform="translate(439.29 133.81) scale(.1 -.1)">
<use xlink:href="#c"/>
<use x="63.623047" xlink:href="#e"/>
<use x="95.410156" xlink:href="#n"/>
</g>
</g>
<g clip-path="url(#a)">
<defs>
<path id="m" d="m37.797 64.312-24.906-38.922h24.906zm-2.5938 8.5938h12.406v-47.516h10.406v-8.2031h-10.406v-17.188h-9.8125v17.188h-32.906v9.5156z"/>
</defs>
<g transform="translate(1232.4 404.13) scale(.1 -.1)">
<use xlink:href="#c"/>
<use x="63.623047" xlink:href="#e"/>
<use x="95.410156" xlink:href="#m"/>
</g>
</g>
<g clip-path="url(#a)">
<defs>
<path id="z" d="m9.8125 72.906h9.8594v-72.906h-9.8594z"/>
<path id="al" d="m9.8125 72.906h14.703l18.594-49.609 18.703 49.609h14.703v-72.906h-9.625v64.016l-18.797-50h-9.9062l-18.797 50v-64.016h-9.5781z"/>
</defs>
<g transform="translate(1381.3 740.27) scale(.1 -.1)">
<use xlink:href="#z"/>
<use x="29.492188" xlink:href="#al"/>
<use x="115.771484" xlink:href="#y"/>
<use x="176.074219" xlink:href="#u"/>
<use x="231.787109" xlink:href="#z"/>
<use x="261.279297" xlink:href="#s"/>
<use x="331.103516" xlink:href="#z"/>
<use x="360.595703" xlink:href="#l"/>
</g>
</g>
<g clip-path="url(#a)">
<defs>
<path id="ab" d="m31.781 34.625q-7.0312 0-11.062-3.7656-4.0156-3.7656-4.0156-10.344 0-6.5938 4.0156-10.359 4.0312-3.7656 11.062-3.7656t11.078 3.7812q4.0625 3.7969 4.0625 10.344 0 6.5781-4.0312 10.344-4.0156 3.7656-11.109 3.7656zm-9.8594 4.1875q-6.3438 1.5625-9.8906 5.9062-3.5312 4.3594-3.5312 10.609 0 8.7344 6.2188 13.812 6.2344 5.0781 17.062 5.0781 10.891 0 17.094-5.0781t6.2031-13.812q0-6.25-3.5469-10.609-3.5312-4.3438-9.8281-5.9062 7.125-1.6562 11.094-6.5 3.9844-4.8281 3.9844-11.797 0-10.609-6.4688-16.281-6.4688-5.6562-18.531-5.6562-12.047 0-18.531 5.6562-6.4688 5.6719-6.4688 16.281 0 6.9688 4 11.797 4.0156 4.8438 11.141 6.5zm-3.6094 15.578q0-5.6562 3.5312-8.8281 3.5469-3.1719 9.9375-3.1719 6.3594 0 9.9375 3.1719 3.5938 3.1719 3.5938 8.8281 0 5.6719-3.5938 8.8438-3.5781 3.1719-9.9375 3.1719-6.3906 0-9.9375-3.1719-3.5312-3.1719-3.5312-8.8438z"/>
</defs>
<g transform="translate(1045.7 489.96) scale(.1 -.1)">
<use xlink:href="#c"/>
<use x="63.623047" xlink:href="#e"/>
<use x="95.410156" xlink:href="#ab"/>
</g>
</g>
<g clip-path="url(#a)">
<defs>
<path id="aa" d="m10.984 1.5156v8.9844q3.7188-1.7656 7.5156-2.6875 3.8125-0.92188 7.4844-0.92188 9.7656 0 14.906 6.5625 5.1562 6.5625 5.8906 19.953-2.8281-4.2031-7.1875-6.4531-4.3438-2.25-9.6094-2.25-10.938 0-17.312 6.6094-6.375 6.625-6.375 18.109 0 11.219 6.6406 18 6.6406 6.7969 17.672 6.7969 12.656 0 19.312-9.7031 6.6719-9.6875 6.6719-28.141 0-17.234-8.1875-27.516-8.1719-10.281-21.984-10.281-3.7188 0-7.5312 0.73438-3.7969 0.73438-7.9062 2.2031zm19.625 30.906q6.6406 0 10.516 4.5312 3.8906 4.5469 3.8906 12.469 0 7.8594-3.8906 12.422-3.875 4.5625-10.516 4.5625t-10.516-4.5625-3.875-12.422q0-7.9219 3.875-12.469 3.875-4.5312 10.516-4.5312z"/>
</defs>
<g transform="translate(1171.8 657.22) scale(.1 -.1)">
<use xlink:href="#c"/>
<use x="63.623047" xlink:href="#e"/>
<use x="95.410156" xlink:href="#aa"/>
</g>
</g>
<g clip-path="url(#a)">
<defs>
<path id="ag" d="m31.781 66.406q-7.6094 0-11.453-7.5-3.8281-7.4844-3.8281-22.531 0-14.984 3.8281-22.484 3.8438-7.5 11.453-7.5 7.6719 0 11.5 7.5 3.8438 7.5 3.8438 22.484 0 15.047-3.8438 22.531-3.8281 7.5-11.5 7.5zm0 7.8125q12.266 0 18.734-9.7031 6.4688-9.6875 6.4688-28.141 0-18.406-6.4688-28.109-6.4688-9.6875-18.734-9.6875-12.25 0-18.719 9.6875-6.4688 9.7031-6.4688 28.109 0 18.453 6.4688 28.141 6.4688 9.7031 18.719 9.7031z"/>
</defs>
<g transform="translate(1213.2 657.22) scale(.1 -.1)">
<use xlink:href="#c"/>
<use x="63.623047" xlink:href="#e"/>
<use x="95.410156" xlink:href="#c"/>
<use x="159.033203" xlink:href="#ag"/>
</g>
</g>
<g clip-path="url(#a)">
<g transform="translate(1257.7 657.22) scale(.1 -.1)">
<use xlink:href="#c"/>
<use x="63.623047" xlink:href="#e"/>
<use x="95.410156" xlink:href="#c"/>
<use x="159.033203" xlink:href="#c"/>
</g>
</g>
<g clip-path="url(#a)">
<g transform="translate(990.61 657.22) scale(.1 -.1)">
<use xlink:href="#c"/>
<use x="63.623047" xlink:href="#e"/>
<use x="95.410156" xlink:href="#c"/>
<use x="159.033203" xlink:href="#o"/>
</g>
</g>
<g clip-path="url(#a)">
<g transform="translate(1035.1 657.22) scale(.1 -.1)">
<use xlink:href="#c"/>
<use x="63.623047" xlink:href="#e"/>
<use x="95.410156" xlink:href="#c"/>
<use x="159.033203" xlink:href="#n"/>
</g>
</g>
<g clip-path="url(#a)">
<g transform="translate(1101.9 574.16) scale(.1 -.1)">
<use xlink:href="#c"/>
<use x="63.623047" xlink:href="#e"/>
<use x="95.410156" xlink:href="#c"/>
<use x="159.033203" xlink:href="#m"/>
</g>
</g>
<g clip-path="url(#a)">
<defs>
<path id="af" d="m10.797 72.906h38.719v-8.3125h-29.688v-17.859q2.1406 0.73438 4.2812 1.0938 2.1562 0.35938 4.3125 0.35938 12.203 0 19.328-6.6875 7.1406-6.6875 7.1406-18.109 0-11.766-7.3281-18.297-7.3281-6.5156-20.656-6.5156-4.5938 0-9.3594 0.78125-4.75 0.78125-9.8281 2.3438v9.9219q4.3906-2.3906 9.0781-3.5625t9.9062-1.1719q8.4531 0 13.375 4.4375 4.9375 4.4375 4.9375 12.062 0 7.6094-4.9375 12.047-4.9219 4.4531-13.375 4.4531-3.9531 0-7.8906-0.875-3.9219-0.875-8.0156-2.7344z"/>
</defs>
<g transform="translate(1079.6 657.22) scale(.1 -.1)">
<use xlink:href="#c"/>
<use x="63.623047" xlink:href="#e"/>
<use x="95.410156" xlink:href="#c"/>
<use x="159.033203" xlink:href="#af"/>
</g>
</g>
<g clip-path="url(#a)">
<defs>
<path id="ae" d="m33.016 40.375q-6.6406 0-10.531-4.5469-3.875-4.5312-3.875-12.438 0-7.8594 3.875-12.438 3.8906-4.5625 10.531-4.5625t10.516 4.5625q3.875 4.5781 3.875 12.438 0 7.9062-3.875 12.438-3.875 4.5469-10.516 4.5469zm19.578 30.922v-8.9844q-3.7188 1.75-7.5 2.6719-3.7812 0.9375-7.5 0.9375-9.7656 0-14.922-6.5938-5.1406-6.5938-5.875-19.922 2.875 4.25 7.2188 6.5156 4.3594 2.2656 9.5781 2.2656 10.984 0 17.359-6.6719 6.375-6.6562 6.375-18.125 0-11.234-6.6406-18.031-6.6406-6.7812-17.672-6.7812-12.656 0-19.344 9.6875-6.6875 9.7031-6.6875 28.109 0 17.281 8.2031 27.562t22.016 10.281q3.7188 0 7.5-0.73438t7.8906-2.1875z"/>
</defs>
<g transform="translate(1124.1 657.22) scale(.1 -.1)">
<use xlink:href="#c"/>
<use x="63.623047" xlink:href="#e"/>
<use x="95.410156" xlink:href="#c"/>
<use x="159.033203" xlink:href="#ae"/>
</g>
</g>
<g clip-path="url(#a)">
<g transform="translate(1336.8 740.27) scale(.1 -.1)">
<use xlink:href="#z"/>
<use x="29.492188" xlink:href="#al"/>
<use x="115.771484" xlink:href="#y"/>
<use x="176.074219" xlink:href="#u"/>
<use x="231.787109" xlink:href="#z"/>
<use x="261.279297" xlink:href="#s"/>
<use x="331.103516" xlink:href="#z"/>
<use x="360.595703" xlink:href="#l"/>
</g>
</g>
<g clip-path="url(#a)">
<g transform="translate(100.36 657.22) scale(.1 -.1)">
<use xlink:href="#c"/>
<use x="63.623047" xlink:href="#e"/>
<use x="95.410156" xlink:href="#c"/>
<use x="159.033203" xlink:href="#ab"/>
</g>
</g>
<g clip-path="url(#a)">
<g transform="translate(241.52 226.32) scale(.1 -.1)">
<use xlink:href="#c"/>
<use x="63.623047" xlink:href="#e"/>
<use x="95.410156" xlink:href="#c"/>
<use x="159.033203" xlink:href="#aa"/>
</g>
</g>
<g clip-path="url(#a)">
<g transform="translate(144.87 657.22) scale(.1 -.1)">
<use xlink:href="#c"/>
<use x="63.623047" xlink:href="#e"/>
<use x="95.410156" xlink:href="#o"/>
<use x="159.033203" xlink:href="#ag"/>
</g>
</g>
<g clip-path="url(#a)">
<g transform="translate(189.38 657.22) scale(.1 -.1)">
<use xlink:href="#c"/>
<use x="63.623047" xlink:href="#e"/>
<use x="95.410156" xlink:href="#o"/>
<use x="159.033203" xlink:href="#c"/>
</g>
</g>
<g clip-path="url(#a)">
<g transform="translate(390.31 316.34) scale(.1 -.1)">
<use xlink:href="#c"/>
<use x="63.623047" xlink:href="#e"/>
<use x="95.410156" xlink:href="#o"/>
<use x="159.033203" xlink:href="#o"/>
</g>
</g>
<g clip-path="url(#a)">
<g transform="translate(233.89 657.22) scale(.1 -.1)">
<use xlink:href="#c"/>
<use x="63.623047" xlink:href="#e"/>
<use x="95.410156" xlink:href="#o"/>
<use x="159.033203" xlink:href="#n"/>
</g>
</g>
<g clip-path="url(#a)">
<g transform="translate(280.88 404.13) scale(.1 -.1)">
<use xlink:href="#c"/>
<use x="63.623047" xlink:href="#e"/>
<use x="95.410156" xlink:href="#o"/>
<use x="159.033203" xlink:href="#m"/>
</g>
</g>
<g clip-path="url(#a)">
<g transform="translate(500.97 657.22) scale(.1 -.1)">
<use xlink:href="#c"/>
<use x="63.623047" xlink:href="#e"/>
<use x="95.410156" xlink:href="#o"/>
<use x="159.033203" xlink:href="#af"/>
</g>
</g>
<g clip-path="url(#a)">
<g transform="translate(545.48 404.13) scale(.1 -.1)">
<use xlink:href="#c"/>
<use x="63.623047" xlink:href="#e"/>
<use x="95.410156" xlink:href="#o"/>
<use x="159.033203" xlink:href="#ae"/>
</g>
</g>
<g clip-path="url(#a)">
<defs>
<path id="aj" d="m8.2031 72.906h46.875v-4.2031l-26.469-68.703h-10.297l24.906 64.594h-35.016z"/>
</defs>
<g transform="translate(545.48 657.22) scale(.1 -.1)">
<use xlink:href="#c"/>
<use x="63.623047" xlink:href="#e"/>
<use x="95.410156" xlink:href="#o"/>
<use x="159.033203" xlink:href="#aj"/>
</g>
</g>
<g clip-path="url(#a)">
<g transform="translate(634.51 574.16) scale(.1 -.1)">
<use xlink:href="#c"/>
<use x="63.623047" xlink:href="#e"/>
<use x="95.410156" xlink:href="#o"/>
<use x="159.033203" xlink:href="#ab"/>
</g>
</g>
<g clip-path="url(#a)">
<g transform="translate(812.56 489.96) scale(.1 -.1)">
<use xlink:href="#c"/>
<use x="63.623047" xlink:href="#e"/>
<use x="95.410156" xlink:href="#o"/>
<use x="159.033203" xlink:href="#aa"/>
</g>
</g>
<g clip-path="url(#a)">
<g transform="translate(723.53 657.22) scale(.1 -.1)">
<use xlink:href="#c"/>
<use x="63.623047" xlink:href="#e"/>
<use x="95.410156" xlink:href="#n"/>
<use x="159.033203" xlink:href="#ag"/>
</g>
</g>
<g clip-path="url(#a)">
<g transform="translate(812.56 574.16) scale(.1 -.1)">
<use xlink:href="#c"/>
<use x="63.623047" xlink:href="#e"/>
<use x="95.410156" xlink:href="#n"/>
<use x="159.033203" xlink:href="#c"/>
</g>
</g>
<g clip-path="url(#a)">
<g transform="translate(901.58 657.22) scale(.1 -.1)">
<use xlink:href="#c"/>
<use x="63.623047" xlink:href="#e"/>
<use x="95.410156" xlink:href="#n"/>
<use x="159.033203" xlink:href="#o"/>
</g>
</g>
<g clip-path="url(#a)">
<g transform="translate(768.05 657.22) scale(.1 -.1)">
<use xlink:href="#c"/>
<use x="63.623047" xlink:href="#e"/>
<use x="95.410156" xlink:href="#n"/>
<use x="159.033203" xlink:href="#n"/>
</g>
</g>
<g clip-path="url(#a)">
<g transform="translate(812.56 657.22) scale(.1 -.1)">
<use xlink:href="#c"/>
<use x="63.623047" xlink:href="#e"/>
<use x="95.410156" xlink:href="#n"/>
<use x="159.033203" xlink:href="#m"/>
</g>
</g>
<g clip-path="url(#a)">
<g transform="translate(857.07 657.22) scale(.1 -.1)">
<use xlink:href="#c"/>
<use x="63.623047" xlink:href="#e"/>
<use x="95.410156" xlink:href="#n"/>
<use x="159.033203" xlink:href="#af"/>
</g>
</g>
<g clip-path="url(#a)">
<g transform="translate(590 657.22) scale(.1 -.1)">
<use xlink:href="#c"/>
<use x="63.623047" xlink:href="#e"/>
<use x="95.410156" xlink:href="#n"/>
<use x="159.033203" xlink:href="#ae"/>
</g>
</g>
<g clip-path="url(#a)">
<g transform="translate(634.51 657.22) scale(.1 -.1)">
<use xlink:href="#c"/>
<use x="63.623047" xlink:href="#e"/>
<use x="95.410156" xlink:href="#n"/>
<use x="159.033203" xlink:href="#aj"/>
</g>
</g>
<g clip-path="url(#a)">
<g transform="translate(679.02 657.22) scale(.1 -.1)">
<use xlink:href="#c"/>
<use x="63.623047" xlink:href="#e"/>
<use x="95.410156" xlink:href="#n"/>
<use x="159.033203" xlink:href="#ab"/>
</g>
</g>
<g clip-path="url(#a)">
<g transform="translate(278.41 657.22) scale(.1 -.1)">
<use xlink:href="#c"/>
<use x="63.623047" xlink:href="#e"/>
<use x="95.410156" xlink:href="#n"/>
<use x="159.033203" xlink:href="#aa"/>
</g>
</g>
<g clip-path="url(#a)">
<g transform="translate(374.85 489.96) scale(.1 -.1)">
<use xlink:href="#c"/>
<use x="63.623047" xlink:href="#e"/>
<use x="95.410156" xlink:href="#m"/>
<use x="159.033203" xlink:href="#ag"/>
</g>
</g>
<g clip-path="url(#a)">
<g transform="translate(322.92 657.22) scale(.1 -.1)">
<use xlink:href="#c"/>
<use x="63.623047" xlink:href="#e"/>
<use x="95.410156" xlink:href="#m"/>
<use x="159.033203" xlink:href="#c"/>
</g>
</g>
<g clip-path="url(#a)">
<g transform="translate(367.43 657.22) scale(.1 -.1)">
<use xlink:href="#c"/>
<use x="63.623047" xlink:href="#e"/>
<use x="95.410156" xlink:href="#m"/>
<use x="159.033203" xlink:href="#o"/>
</g>
</g>
<g clip-path="url(#a)">
<g transform="translate(434.2 574.16) scale(.1 -.1)">
<use xlink:href="#c"/>
<use x="63.623047" xlink:href="#e"/>
<use x="95.410156" xlink:href="#m"/>
<use x="159.033203" xlink:href="#n"/>
</g>
</g>
<g clip-path="url(#a)">
<g transform="translate(411.95 657.22) scale(.1 -.1)">
<use xlink:href="#c"/>
<use x="63.623047" xlink:href="#e"/>
<use x="95.410156" xlink:href="#m"/>
<use x="159.033203" xlink:href="#m"/>
</g>
</g>
<g clip-path="url(#a)">
<g transform="translate(456.46 657.22) scale(.1 -.1)">
<use xlink:href="#c"/>
<use x="63.623047" xlink:href="#e"/>
<use x="95.410156" xlink:href="#m"/>
<use x="159.033203" xlink:href="#af"/>
</g>
</g>
<g clip-path="url(#a)">
<g transform="translate(442.44 316.34) scale(.1 -.1)">
<use xlink:href="#c"/>
<use x="63.623047" xlink:href="#e"/>
<use x="95.410156" xlink:href="#m"/>
<use x="159.033203" xlink:href="#ae"/>
</g>
</g>
<g clip-path="url(#a)">
<g transform="translate(245.98 38.581) scale(.1 -.1)">
<use xlink:href="#c"/>
<use x="63.623047" xlink:href="#e"/>
<use x="95.410156" xlink:href="#m"/>
<use x="159.033203" xlink:href="#aj"/>
</g>
</g>
<g clip-path="url(#a)">
<g transform="translate(946.1 657.22) scale(.1 -.1)">
<use xlink:href="#c"/>
<use x="63.623047" xlink:href="#e"/>
<use x="95.410156" xlink:href="#m"/>
<use x="159.033203" xlink:href="#ab"/>
</g>
</g>
<g clip-path="url(#a)">
<g transform="translate(1302.2 657.22) scale(.1 -.1)">
<use xlink:href="#c"/>
<use x="63.623047" xlink:href="#e"/>
<use x="95.410156" xlink:href="#m"/>
<use x="159.033203" xlink:href="#aa"/>
</g>
</g>
<defs>
<clipPath id="a">
<rect width="1469.3" height="773.33"/>
</clipPath>
</defs>
</svg>
