<?xml version="1.0" encoding="UTF-8"?>
<!DOCTYPE svg  PUBLIC '-//W3C//DTD SVG 1.1//EN'  'http://www.w3.org/Graphics/SVG/1.1/DTD/svg11.dtd'>
<svg width="1165.3pt" height="613.33pt" version="1.1" viewBox="0 0 1165.3 613.33" xmlns="http://www.w3.org/2000/svg" xmlns:xlink="http://www.w3.org/1999/xlink">
<defs>
<style type="text/css">*{stroke-linecap:butt;stroke-linejoin:round;}</style>
</defs>
<path d="m0 613.33h1165.3v-613.33h-1165.3z" fill="#fff"/>
<g fill="none" stroke="#000">
<path d="m254.35 28.653v84.814" clip-path="url(#a)"/>
<path d="m254.35 113.47-140.96 241.71" clip-path="url(#a)"/>
<path d="m254.35 113.47-56.732 395.07" clip-path="url(#a)"/>
<path d="m254.35 113.47-8.6015 395.07" clip-path="url(#a)"/>
<path d="m254.35 113.47 206.3 82.535" clip-path="url(#a)"/>
<path d="m113.39 355.18-36.098 77.206" clip-path="url(#a)"/>
<path d="m113.39 355.18 36.098 153.35" clip-path="url(#a)"/>
<path d="m197.62 508.53v76.147" clip-path="url(#a)"/>
<path d="m245.75 508.53v76.147" clip-path="url(#a)"/>
<path d="m460.65 196-166.77 312.53" clip-path="url(#a)"/>
<path d="m460.65 196-70.504 236.38" clip-path="url(#a)"/>
<path d="m460.65 196 211.51 80.486" clip-path="url(#a)"/>
<path d="m460.65 196 25.758 312.53" clip-path="url(#a)"/>
<path d="m293.88 508.53v76.147" clip-path="url(#a)"/>
<path d="m390.14 432.39-48.131 76.147" clip-path="url(#a)"/>
<path d="m390.14 432.39v76.147" clip-path="url(#a)"/>
<path d="m390.14 432.39 48.131 76.147" clip-path="url(#a)"/>
<path d="m672.16 276.49-137.62 232.05" clip-path="url(#a)"/>
<path d="m672.16 276.49-89.493 232.05" clip-path="url(#a)"/>
<path d="m672.16 276.49 6.7684 155.9" clip-path="url(#a)"/>
<path d="m672.16 276.49 220.35 78.693" clip-path="url(#a)"/>
<path d="m534.54 508.53v76.147" clip-path="url(#a)"/>
<path d="m582.67 508.53v76.147" clip-path="url(#a)"/>
<path d="m678.93 432.39-48.131 76.147" clip-path="url(#a)"/>
<path d="m678.93 432.39v76.147" clip-path="url(#a)"/>
<path d="m678.93 432.39 48.131 76.147" clip-path="url(#a)"/>
<path d="m892.51 355.18-309.84 153.35" clip-path="url(#a)" stroke-dasharray="3.7,1.6"/>
<path d="m892.51 355.18-117.32 153.35" clip-path="url(#a)"/>
<path d="m892.51 355.18-69.188 153.35" clip-path="url(#a)"/>
<path d="m892.51 355.18-21.057 153.35" clip-path="url(#a)"/>
<path d="m892.51 355.18 27.074 153.35" clip-path="url(#a)"/>
<path d="m892.51 355.18 99.27 77.206" clip-path="url(#a)"/>
<path d="m892.51 355.18 171.47 153.35" clip-path="url(#a)"/>
<path d="m892.51 355.18 219.6 153.35" clip-path="url(#a)"/>
<path d="m775.19 508.53v76.147" clip-path="url(#a)"/>
<path d="m823.32 508.53v76.147" clip-path="url(#a)"/>
<path d="m871.45 508.53v76.147" clip-path="url(#a)"/>
<path d="m919.58 508.53v76.147" clip-path="url(#a)"/>
<path d="m991.78 432.39-24.065 76.147" clip-path="url(#a)"/>
<path d="m991.78 432.39 24.065 76.147" clip-path="url(#a)"/>
<path d="m1064 508.53v76.147" clip-path="url(#a)"/>
<path d="m967.71 508.53v76.147" clip-path="url(#a)"/>
<path d="m1015.8 508.53v76.147" clip-path="url(#a)"/>
<path d="m630.8 508.53v76.147" clip-path="url(#a)"/>
<path d="m678.93 508.53v76.147" clip-path="url(#a)"/>
<path d="m727.06 508.53v76.147" clip-path="url(#a)"/>
<path d="m342.01 508.53v76.147" clip-path="url(#a)"/>
<path d="m390.14 508.53v76.147" clip-path="url(#a)"/>
<path d="m438.27 508.53v76.147" clip-path="url(#a)"/>
<path d="m77.293 432.39-24.065 76.147" clip-path="url(#a)"/>
<path d="m77.293 432.39 24.065 76.147" clip-path="url(#a)"/>
<path d="m149.49 508.53v76.147" clip-path="url(#a)"/>
<path d="m53.227 508.53v76.147" clip-path="url(#a)"/>
<path d="m101.36 508.53v76.147" clip-path="url(#a)"/>
<path d="m486.4 508.53v76.147" clip-path="url(#a)"/>
<path d="m1112.1 508.53v76.147" clip-path="url(#a)"/>
</g>
<path d="m248.08 68.052v6.0162q0 2.4 2.4 2.4h7.7425q2.4 0 2.4-2.4v-6.0162q0-2.4-2.4-2.4h-7.7425q-2.4 0-2.4 2.4z" clip-path="url(#a)" fill="#fff" stroke="#fff"/>
<g clip-path="url(#a)">
<defs>
<path id="aq" d="m9.8125 72.906h9.8594v-29.891h35.844v29.891h9.8594v-72.906h-9.8594v34.719h-35.844v-34.719h-9.8594z"/>
</defs>
<g transform="translate(252.14 68.052) rotate(90) scale(.08 -.08)">
<use xlink:href="#aq"/>
</g>
</g>
<path d="m188.06 239.59 2.4615-4.2209q1.209-2.0732-0.86416-3.2823l-6.6883-3.9004q-2.0732-1.209-3.2823 0.86416l-2.4615 4.2209q-1.209 2.0732 0.86416 3.2823l6.6883 3.9004q2.0732 1.209 3.2823-0.86416z" clip-path="url(#a)" fill="#fff" stroke="#fff"/>
<g clip-path="url(#a)">
<defs>
<path id="l" d="m-0.29688 72.906h61.672v-8.3125h-25.875v-64.594h-9.9062v64.594h-25.891z"/>
</defs>
<g transform="translate(184.55 237.55) rotate(-59.75) scale(.08 -.08)">
<use xlink:href="#l"/>
</g>
</g>
<path d="m231.87 314.17 0.65404-4.5545q0.34115-2.3756-2.0345-2.7168l-7.6639-1.1006q-2.3756-0.34114-2.7168 2.0345l-0.65404 4.5545q-0.34115 2.3756 2.0345 2.7168l7.6639 1.1005q2.3756 0.34115 2.7168-2.0345z" clip-path="url(#a)" fill="#fff" stroke="#fff"/>
<g clip-path="url(#a)">
<defs>
<path id="aj" d="m9.8125 72.906h41.891v-8.3125h-32.031v-21.484h28.906v-8.2969h-28.906v-34.812h-9.8594z"/>
</defs>
<g transform="translate(227.84 313.59) rotate(-81.828) scale(.08 -.08)">
<use xlink:href="#aj"/>
</g>
</g>
<path d="m256.27 313.55 0.105-4.8226q0.052241-2.3994-2.3472-2.4517l-7.7407-0.16853q-2.3994-0.052241-2.4517 2.3472l-0.105 4.8226q-0.052241 2.3994 2.3472 2.4517l7.7407 0.16853q2.3994 0.052241 2.4517-2.3472z" clip-path="url(#a)" fill="#fff" stroke="#fff"/>
<g clip-path="url(#a)">
<defs>
<path id="ai" d="m19.672 64.797v-27.391h12.406q6.8906 0 10.641 3.5625 3.7656 3.5625 3.7656 10.156 0 6.5469-3.7656 10.109-3.75 3.5625-10.641 3.5625zm-9.8594 8.1094h22.266q12.266 0 18.531-5.5469 6.2812-5.5469 6.2812-16.234 0-10.797-6.2812-16.312-6.2656-5.5156-18.531-5.5156h-12.406v-29.297h-9.8594z"/>
</defs>
<g transform="translate(252.21 313.46) rotate(-88.753) scale(.08 -.08)">
<use xlink:href="#ai"/>
</g>
</g>
<path d="m352.63 159.54 5.0809 2.0328q2.2283 0.89149 3.1198-1.3368l2.876-7.1885q0.89149-2.2283-1.3368-3.1198l-5.0809-2.0328q-2.2283-0.89149-3.1198 1.3368l-2.876 7.1885q-0.89149 2.2283 1.3368 3.1198z" clip-path="url(#a)" fill="#fff" stroke="#fff"/>
<g clip-path="url(#a)">
<defs>
<path id="aa" d="m34.188 63.188-13.391-36.281h26.812zm-5.5781 9.7188h11.188l27.781-72.906h-10.25l-6.6406 18.703h-32.859l-6.6406-18.703h-10.406z"/>
</defs>
<g transform="translate(354.14 155.77) rotate(21.805) scale(.08 -.08)">
<use xlink:href="#aa"/>
</g>
</g>
<path d="m99.952 398.73 2.141-4.5792q1.0165-2.1741-1.1576-3.1906l-7.0137-3.2793q-2.1741-1.0165-3.1906 1.1576l-2.141 4.5792q-1.0165 2.1741 1.1576 3.1906l7.0137 3.2793q2.1741 1.0165 3.1906-1.1576z" clip-path="url(#a)" fill="#fff" stroke="#fff"/>
<g clip-path="url(#a)">
<defs>
<path id="p" d="m9.8125 72.906h46.094v-8.3125h-36.234v-21.578h34.719v-8.2969h-34.719v-26.422h37.109v-8.2969h-46.969z"/>
</defs>
<g transform="translate(96.271 397.01) rotate(-64.941) scale(.08 -.08)">
<use xlink:href="#p"/>
</g>
</g>
<path d="m124.7 430.58 1.28 5.4376q0.54991 2.3362 2.8861 1.7862l7.5365-1.774q2.3362-0.54991 1.7862-2.8861l-1.28-5.4376q-0.54991-2.3362-2.8861-1.7862l-7.5365 1.774q-2.3362 0.54991-1.7862 2.8861z" clip-path="url(#a)" fill="#fff" stroke="#fff"/>
<g clip-path="url(#a)">
<defs>
<path id="n" d="m64.406 67.281v-10.391q-4.9844 4.6406-10.625 6.9219-5.6406 2.2969-11.984 2.2969-12.5 0-19.141-7.6406t-6.6406-22.094q0-14.406 6.6406-22.047t19.141-7.6406q6.3438 0 11.984 2.2969t10.625 6.9375v-10.312q-5.1719-3.5156-10.969-5.2812-5.7812-1.75-12.219-1.75-16.562 0-26.094 10.125-9.5156 10.141-9.5156 27.672 0 17.578 9.5156 27.703 9.5312 10.141 26.094 10.141 6.5312 0 12.312-1.7344 5.7969-1.7344 10.875-5.2031z"/>
</defs>
<g transform="translate(128.65 429.64) rotate(76.754) scale(.08 -.08)">
<use xlink:href="#n"/>
</g>
</g>
<path d="m191.35 528.96v35.285q0 2.4 2.4 2.4h7.7425q2.4 0 2.4-2.4v-35.285q0-2.4-2.4-2.4h-7.7425q-2.4 0-2.4 2.4z" clip-path="url(#a)" fill="#fff" stroke="#fff"/>
<g clip-path="url(#a)">
<defs>
<path id="e" d="m56.203 29.594v-4.3906h-41.312q0.59375-9.2812 5.5938-14.141t13.938-4.8594q5.1719 0 10.031 1.2656t9.6562 3.8125v-8.5q-4.8438-2.0469-9.9219-3.125t-10.297-1.0781q-13.094 0-20.734 7.6094-7.6406 7.625-7.6406 20.625 0 13.422 7.25 21.297 7.25 7.8906 19.562 7.8906 11.031 0 17.453-7.1094 6.4219-7.0938 6.4219-19.297zm-8.9844 2.6406q-0.09375 7.3594-4.125 11.75-4.0312 4.4062-10.672 4.4062-7.5156 0-12.031-4.25t-5.2031-11.969z"/>
<path id="i" d="m41.109 46.297q-1.5156 0.875-3.2969 1.2812-1.7812 0.42188-3.9219 0.42188-7.625 0-11.703-4.9531t-4.0781-14.234v-28.812h-9.0312v54.688h9.0312v-8.5q2.8438 4.9844 7.375 7.3906 4.5469 2.4219 11.047 2.4219 0.92188 0 2.0469-0.125 1.125-0.10938 2.4844-0.35938z"/>
<path id="k" d="m52 44.188q3.375 6.0625 8.0625 8.9375t11.031 2.875q8.5469 0 13.188-5.9844 4.6406-5.9688 4.6406-17v-33.016h-9.0312v32.719q0 7.8594-2.7969 11.656-2.7812 3.8125-8.4844 3.8125-6.9844 0-11.047-4.6406-4.0469-4.625-4.0469-12.641v-30.906h-9.0312v32.719q0 7.9062-2.7812 11.688t-8.5938 3.7812q-6.8906 0-10.953-4.6562-4.0469-4.6562-4.0469-12.625v-30.906h-9.0312v54.688h9.0312v-8.5q3.0781 5.0312 7.375 7.4219t10.203 2.3906q5.9688 0 10.141-3.0312 4.1719-3.0156 6.1719-8.7812z"/>
<path id="h" d="m9.4219 54.688h8.9844v-54.688h-8.9844zm0 21.297h8.9844v-11.391h-8.9844z"/>
<path id="d" d="m54.891 33.016v-33.016h-8.9844v32.719q0 7.7656-3.0312 11.609-3.0312 3.8594-9.0781 3.8594-7.2812 0-11.484-4.6406-4.2031-4.625-4.2031-12.641v-30.906h-9.0312v54.688h9.0312v-8.5q3.2344 4.9375 7.5938 7.375 4.375 2.4375 10.094 2.4375 9.4219 0 14.25-5.8281 4.8438-5.8281 4.8438-17.156z"/>
<path id="g" d="m34.281 27.484q-10.891 0-15.094-2.4844t-4.2031-8.5q0-4.7812 3.1562-7.5938 3.1562-2.7969 8.5625-2.7969 7.4844 0 12 5.2969t4.5156 14.078v2zm17.922 3.7188v-31.203h-8.9844v8.2969q-3.0781-4.9688-7.6719-7.3438t-11.234-2.375q-8.3906 0-13.359 4.7188-4.9531 4.7188-4.9531 12.625 0 9.2188 6.1719 13.906 6.1875 4.6875 18.438 4.6875h12.609v0.89062q0 6.2031-4.0781 9.5938t-11.453 3.3906q-4.6875 0-9.1406-1.125-4.4375-1.125-8.5312-3.375v8.3125q4.9219 1.9062 9.5625 2.8438 4.6406 0.95312 9.0312 0.95312 11.875 0 17.734-6.1562 5.8594-6.1406 5.8594-18.641z"/>
<path id="j" d="m9.4219 75.984h8.9844v-75.984h-8.9844z"/>
</defs>
<g transform="translate(195.41 528.96) rotate(90) scale(.08 -.08)">
<use xlink:href="#l"/>
<use x="60.818359" xlink:href="#e"/>
<use x="122.341797" xlink:href="#i"/>
<use x="163.439453" xlink:href="#k"/>
<use x="260.851562" xlink:href="#h"/>
<use x="288.634766" xlink:href="#d"/>
<use x="352.013672" xlink:href="#g"/>
<use x="413.292969" xlink:href="#j"/>
</g>
</g>
<path d="m239.48 528.96v35.285q0 2.4 2.4 2.4h7.7425q2.4 0 2.4-2.4v-35.285q0-2.4-2.4-2.4h-7.7425q-2.4 0-2.4 2.4z" clip-path="url(#a)" fill="#fff" stroke="#fff"/>
<g clip-path="url(#a)">
<g transform="translate(243.54 528.96) rotate(90) scale(.08 -.08)">
<use xlink:href="#l"/>
<use x="60.818359" xlink:href="#e"/>
<use x="122.341797" xlink:href="#i"/>
<use x="163.439453" xlink:href="#k"/>
<use x="260.851562" xlink:href="#h"/>
<use x="288.634766" xlink:href="#d"/>
<use x="352.013672" xlink:href="#g"/>
<use x="413.292969" xlink:href="#j"/>
</g>
</g>
<path d="m381.49 357.67 2.6169-4.9042q1.1298-2.1174-0.98757-3.2473l-6.8309-3.6449q-2.1174-1.1298-3.2473 0.98757l-2.6169 4.9042q-1.1298 2.1174 0.98757 3.2473l6.8309 3.6449q2.1174 1.1298 3.2473-0.98757z" clip-path="url(#a)" fill="#fff" stroke="#fff"/>
<g clip-path="url(#a)">
<defs>
<path id="ah" d="m44.391 34.188q3.1719-1.0781 6.1719-4.5938t6.0312-9.6719l10.016-19.922h-10.609l-9.3125 18.703q-3.625 7.3281-7.0156 9.7188t-9.25 2.3906h-10.75v-30.812h-9.8594v72.906h22.266q12.5 0 18.656-5.2344 6.1562-5.2188 6.1562-15.766 0-6.8906-3.2031-11.438-3.2031-4.5312-9.2969-6.2812zm-24.719 30.609v-25.875h12.406q7.125 0 10.766 3.2969t3.6406 9.6875-3.6406 9.6406-10.766 3.25z"/>
</defs>
<g transform="translate(377.9 355.76) rotate(-61.916) scale(.08 -.08)">
<use xlink:href="#ah"/>
</g>
</g>
<path d="m430.61 318.66 1.5966-5.3532q0.68596-2.2999-1.6139-2.9858l-7.4195-2.2129q-2.2999-0.68596-2.9858 1.6139l-1.5966 5.3532q-0.68596 2.2999 1.6139 2.9858l7.4195 2.2129q2.2999 0.68596 2.9858-1.6139z" clip-path="url(#a)" fill="#fff" stroke="#fff"/>
<g clip-path="url(#a)">
<g transform="translate(426.71 317.5) rotate(-73.392) scale(.08 -.08)">
<use xlink:href="#n"/>
</g>
</g>
<path d="m561.56 241.11 5.221 1.9867q2.2431 0.85355 3.0966-1.3895l2.7536-7.2363q0.85355-2.2431-1.3895-3.0966l-5.221-1.9867q-2.2431-0.85355-3.0966 1.3895l-2.7536 7.2363q-0.85355 2.2431 1.3895 3.0966z" clip-path="url(#a)" fill="#fff" stroke="#fff"/>
<g clip-path="url(#a)">
<g transform="translate(563.01 237.31) rotate(20.833) scale(.08 -.08)">
<use xlink:href="#n"/>
</g>
</g>
<path d="m467.04 349.87 0.48091 5.8352q0.19713 2.3919 2.589 2.1948l7.7163-0.63595q2.3919-0.19713 2.1948-2.589l-0.48091-5.8352q-0.19713-2.3919-2.589-2.1948l-7.7163 0.63595q-2.3919 0.19713-2.1948 2.589z" clip-path="url(#a)" fill="#fff" stroke="#fff"/>
<g clip-path="url(#a)">
<defs>
<path id="ag" d="m8.6875 72.906h9.9219v-44.297q0-11.719 4.2344-16.875 4.25-5.1406 13.781-5.1406 9.4688 0 13.719 5.1406 4.25 5.1562 4.25 16.875v44.297h9.9062v-45.516q0-14.25-7.0625-21.531-7.0469-7.2812-20.812-7.2812-13.828 0-20.891 7.2812-7.0469 7.2812-7.0469 21.531z"/>
</defs>
<g transform="translate(471.09 349.53) rotate(85.289) scale(.08 -.08)">
<use xlink:href="#ag"/>
</g>
</g>
<path d="m287.61 528.96v35.285q0 2.4 2.4 2.4h7.7425q2.4 0 2.4-2.4v-35.285q0-2.4-2.4-2.4h-7.7425q-2.4 0-2.4 2.4z" clip-path="url(#a)" fill="#fff" stroke="#fff"/>
<g clip-path="url(#a)">
<g transform="translate(291.67 528.96) rotate(90) scale(.08 -.08)">
<use xlink:href="#l"/>
<use x="60.818359" xlink:href="#e"/>
<use x="122.341797" xlink:href="#i"/>
<use x="163.439453" xlink:href="#k"/>
<use x="260.851562" xlink:href="#h"/>
<use x="288.634766" xlink:href="#d"/>
<use x="352.013672" xlink:href="#g"/>
<use x="413.292969" xlink:href="#j"/>
</g>
</g>
<path d="m370.03 475.95 2.7009-4.273q1.2823-2.0287-0.74641-3.311l-6.5447-4.1368q-2.0287-1.2823-3.311 0.74641l-2.7009 4.273q-1.2823 2.0287 0.74641 3.311l6.5447 4.1368q2.0287 1.2823 3.311-0.74641z" clip-path="url(#a)" fill="#fff" stroke="#fff"/>
<g clip-path="url(#a)">
<g transform="translate(366.59 473.78) rotate(-57.704) scale(.08 -.08)">
<use xlink:href="#p"/>
</g>
</g>
<path d="m383.87 467.67v5.5862q0 2.4 2.4 2.4h7.7425q2.4 0 2.4-2.4v-5.5862q0-2.4-2.4-2.4h-7.7425q-2.4 0-2.4 2.4z" clip-path="url(#a)" fill="#fff" stroke="#fff"/>
<g clip-path="url(#a)">
<g transform="translate(387.94 467.67) rotate(90) scale(.08 -.08)">
<use xlink:href="#n"/>
</g>
</g>
<path d="m407.56 471.67 2.7009 4.273q1.2823 2.0287 3.311 0.74641l6.5447-4.1368q2.0287-1.2823 0.74641-3.311l-2.7009-4.273q-1.2823-2.0287-3.311-0.74641l-6.5447 4.1368q-2.0287 1.2823-0.74641 3.311z" clip-path="url(#a)" fill="#fff" stroke="#fff"/>
<g clip-path="url(#a)">
<g transform="translate(410.99 469.5) rotate(57.704) scale(.08 -.08)">
<use xlink:href="#p"/>
</g>
</g>
<path d="m607.45 397.88 2.5787-4.3478q1.2243-2.0642-0.83996-3.2885l-6.6594-3.9496q-2.0642-1.2243-3.2885 0.83996l-2.5787 4.3478q-1.2243 2.0642 0.83996 3.2885l6.6594 3.9496q2.0642 1.2243 3.2885-0.83996z" clip-path="url(#a)" fill="#fff" stroke="#fff"/>
<g clip-path="url(#a)">
<g transform="translate(603.96 395.81) rotate(-59.328) scale(.08 -.08)">
<use xlink:href="#p"/>
</g>
</g>
<path d="m632.26 397.37 2.0101-5.2121q0.86361-2.2392-1.3756-3.1028l-7.2239-2.786q-2.2392-0.86361-3.1028 1.3756l-2.0101 5.2121q-0.86361 2.2392 1.3756 3.1028l7.2239 2.786q2.2392 0.86361 3.1028-1.3756z" clip-path="url(#a)" fill="#fff" stroke="#fff"/>
<g clip-path="url(#a)">
<g transform="translate(628.47 395.91) rotate(-68.91) scale(.08 -.08)">
<use xlink:href="#n"/>
</g>
</g>
<path d="m669.17 352.18 0.21926 5.0502q0.1041 2.3977 2.5018 2.2936l7.7352-0.33583q2.3977-0.1041 2.2936-2.5018l-0.21926-5.0502q-0.1041-2.3977-2.5018-2.2936l-7.7352 0.33583q-2.3977 0.1041-2.2936 2.5018z" clip-path="url(#a)" fill="#fff" stroke="#fff"/>
<g clip-path="url(#a)">
<g transform="translate(673.23 352.01) rotate(87.514) scale(.08 -.08)">
<use xlink:href="#p"/>
</g>
</g>
<path d="m777.85 320.89 4.7605 1.7001q2.2602 0.80718 3.0674-1.453l2.604-7.2915q0.80718-2.2602-1.453-3.0674l-4.7605-1.7001q-2.2602-0.80718-3.0674 1.453l-2.604 7.2915q-0.80718 2.2602 1.453 3.0674z" clip-path="url(#a)" fill="#fff" stroke="#fff"/>
<g clip-path="url(#a)">
<g transform="translate(779.21 317.06) rotate(19.653) scale(.08 -.08)">
<use xlink:href="#p"/>
</g>
</g>
<path d="m528.26 528.96v35.285q0 2.4 2.4 2.4h7.7425q2.4 0 2.4-2.4v-35.285q0-2.4-2.4-2.4h-7.7425q-2.4 0-2.4 2.4z" clip-path="url(#a)" fill="#fff" stroke="#fff"/>
<g clip-path="url(#a)">
<g transform="translate(532.33 528.96) rotate(90) scale(.08 -.08)">
<use xlink:href="#l"/>
<use x="60.818359" xlink:href="#e"/>
<use x="122.341797" xlink:href="#i"/>
<use x="163.439453" xlink:href="#k"/>
<use x="260.851562" xlink:href="#h"/>
<use x="288.634766" xlink:href="#d"/>
<use x="352.013672" xlink:href="#g"/>
<use x="413.292969" xlink:href="#j"/>
</g>
</g>
<path d="m576.4 528.96v35.285q0 2.4 2.4 2.4h7.7425q2.4 0 2.4-2.4v-35.285q0-2.4-2.4-2.4h-7.7425q-2.4 0-2.4 2.4z" clip-path="url(#a)" fill="#fff" stroke="#fff"/>
<g clip-path="url(#a)">
<g transform="translate(580.46 528.96) rotate(90) scale(.08 -.08)">
<use xlink:href="#l"/>
<use x="60.818359" xlink:href="#e"/>
<use x="122.341797" xlink:href="#i"/>
<use x="163.439453" xlink:href="#k"/>
<use x="260.851562" xlink:href="#h"/>
<use x="288.634766" xlink:href="#d"/>
<use x="352.013672" xlink:href="#g"/>
<use x="413.292969" xlink:href="#j"/>
</g>
</g>
<path d="m658.67 476.17 2.9847-4.722q1.2823-2.0287-0.74641-3.311l-6.5447-4.1368q-2.0287-1.2823-3.311 0.74641l-2.9847 4.722q-1.2823 2.0287 0.74641 3.311l6.5447 4.1368q2.0287 1.2823 3.311-0.74641z" clip-path="url(#a)" fill="#fff" stroke="#fff"/>
<g clip-path="url(#a)">
<g transform="translate(655.24 474) rotate(-57.704) scale(.08 -.08)">
<use xlink:href="#n"/>
</g>
</g>
<path d="m672.66 467.47v5.985q0 2.4 2.4 2.4h7.7425q2.4 0 2.4-2.4v-5.985q0-2.4-2.4-2.4h-7.7425q-2.4 0-2.4 2.4z" clip-path="url(#a)" fill="#fff" stroke="#fff"/>
<g clip-path="url(#a)">
<defs>
<path id="ao" d="m9.8125 72.906h13.281l32.328-60.984v60.984h9.5625v-72.906h-13.281l-32.312 60.984v-60.984h-9.5781z"/>
</defs>
<g transform="translate(676.72 467.47) rotate(90) scale(.08 -.08)">
<use xlink:href="#ao"/>
</g>
</g>
<path d="m696.2 471.45 2.9847 4.722q1.2823 2.0287 3.311 0.74641l6.5447-4.1368q2.0287-1.2823 0.74641-3.311l-2.9847-4.722q-1.2823-2.0287-3.311-0.74641l-6.5447 4.1368q-2.0287 1.2823-0.74641 3.311z" clip-path="url(#a)" fill="#fff" stroke="#fff"/>
<g clip-path="url(#a)">
<g transform="translate(699.64 469.28) rotate(57.704) scale(.08 -.08)">
<use xlink:href="#n"/>
</g>
</g>
<path d="m737.92 438.69 4.9046-2.4275q2.151-1.0646 1.0864-3.2156l-3.4344-6.9391q-1.0646-2.151-3.2156-1.0864l-4.9046 2.4275q-2.151 1.0646-1.0864 3.2156l3.4344 6.9391q1.0646 2.151 3.2156 1.0864z" clip-path="url(#a)" fill="#fff" stroke="#fff"/>
<g clip-path="url(#a)">
<g transform="translate(736.11 435.05) rotate(-26.333) scale(.08 -.08)">
<use xlink:href="#aa"/>
</g>
</g>
<path d="m837.14 437.87 3.3776-4.415q1.4583-1.9062-0.4479-3.3644l-6.1494-4.7044q-1.9062-1.4583-3.3644 0.4479l-3.3776 4.415q-1.4583 1.9062 0.4479 3.3644l6.1494 4.7044q1.9062 1.4583 3.3644-0.4479z" clip-path="url(#a)" fill="#fff" stroke="#fff"/>
<g clip-path="url(#a)">
<g transform="translate(833.91 435.41) rotate(-52.583) scale(.08 -.08)">
<use xlink:href="#ah"/>
</g>
</g>
<path d="m862.51 436.93 2.2506-4.9883q0.987-2.1877-1.2007-3.1747l-7.0575-3.1841q-2.1877-0.987-3.1747 1.2007l-2.2506 4.9883q-0.987 2.1877 1.2007 3.1747l7.0575 3.1841q2.1877 0.987 3.1747-1.2007z" clip-path="url(#a)" fill="#fff" stroke="#fff"/>
<g clip-path="url(#a)">
<g transform="translate(858.8 435.26) rotate(-65.717) scale(.08 -.08)">
<use xlink:href="#aa"/>
</g>
</g>
<path d="m887.77 435.76 0.83798-6.1027q0.32649-2.3777-2.0512-2.7042l-7.6705-1.0533q-2.3777-0.32648-2.7042 2.0512l-0.83798 6.1027q-0.32649 2.3777 2.0512 2.7042l7.6705 1.0533q2.3777 0.32649 2.7042-2.0512z" clip-path="url(#a)" fill="#fff" stroke="#fff"/>
<g clip-path="url(#a)">
<defs>
<path id="ak" d="m19.672 64.797v-56.688h11.922q15.094 0 22.094 6.8281 7 6.8438 7 21.594 0 14.641-7 21.453t-22.094 6.8125zm-9.8594 8.1094h20.266q21.188 0 31.094-8.8125 9.9219-8.8125 9.9219-27.562 0-18.859-9.9688-27.703-9.9531-8.8281-31.047-8.8281h-20.266z"/>
</defs>
<g transform="translate(883.75 435.21) rotate(-82.181) scale(.08 -.08)">
<use xlink:href="#ak"/>
</g>
</g>
<path d="m899.47 430.68 0.79995 4.5312q0.41725 2.3635 2.7807 1.9462l7.6246-1.3461q2.3634-0.41725 1.9462-2.7807l-0.79995-4.5312q-0.41725-2.3635-2.7807-1.9462l-7.6246 1.3461q-2.3635 0.41725-1.9462 2.7807z" clip-path="url(#a)" fill="#fff" stroke="#fff"/>
<g clip-path="url(#a)">
<g transform="translate(903.47 429.98) rotate(79.988) scale(.08 -.08)">
<use xlink:href="#aj"/>
</g>
</g>
<path d="m935.86 396.84 4.8625 3.7818q1.8945 1.4734 3.3679-0.42107l4.7533-6.1117q1.4734-1.8945-0.42107-3.3679l-4.8625-3.7818q-1.8945-1.4734-3.3679 0.42107l-4.7533 6.1117q-1.4734 1.8945 0.42107 3.3679z" clip-path="url(#a)" fill="#fff" stroke="#fff"/>
<g clip-path="url(#a)">
<g transform="translate(938.36 393.64) rotate(37.874) scale(.08 -.08)">
<use xlink:href="#ak"/>
</g>
</g>
<path d="m972.26 434.92 3.5955 3.2157q1.7889 1.5999 3.3888-0.18897l5.1615-5.7711q1.5999-1.7889-0.18898-3.3888l-3.5955-3.2157q-1.7889-1.5999-3.3888 0.18898l-5.1615 5.7711q-1.5999 1.7889 0.18897 3.3888z" clip-path="url(#a)" fill="#fff" stroke="#fff"/>
<g clip-path="url(#a)">
<g transform="translate(974.97 431.89) rotate(41.808) scale(.08 -.08)">
<use xlink:href="#ai"/>
</g>
</g>
<path d="m996.32 435.32 4.8003 3.3523q1.9677 1.3741 3.3418-0.59358l4.433-6.3479q1.3741-1.9677-0.59358-3.3418l-4.8003-3.3523q-1.9677-1.3741-3.3418 0.59358l-4.433 6.3479q-1.3741 1.9677 0.59358 3.3418z" clip-path="url(#a)" fill="#fff" stroke="#fff"/>
<g clip-path="url(#a)">
<g transform="translate(998.64 431.99) rotate(34.928) scale(.08 -.08)">
<use xlink:href="#ag"/>
</g>
</g>
<path d="m768.92 528.96v35.285q0 2.4 2.4 2.4h7.7425q2.4 0 2.4-2.4v-35.285q0-2.4-2.4-2.4h-7.7425q-2.4 0-2.4 2.4z" clip-path="url(#a)" fill="#fff" stroke="#fff"/>
<g clip-path="url(#a)">
<g transform="translate(772.98 528.96) rotate(90) scale(.08 -.08)">
<use xlink:href="#l"/>
<use x="60.818359" xlink:href="#e"/>
<use x="122.341797" xlink:href="#i"/>
<use x="163.439453" xlink:href="#k"/>
<use x="260.851562" xlink:href="#h"/>
<use x="288.634766" xlink:href="#d"/>
<use x="352.013672" xlink:href="#g"/>
<use x="413.292969" xlink:href="#j"/>
</g>
</g>
<path d="m817.05 528.96v35.285q0 2.4 2.4 2.4h7.7425q2.4 0 2.4-2.4v-35.285q0-2.4-2.4-2.4h-7.7425q-2.4 0-2.4 2.4z" clip-path="url(#a)" fill="#fff" stroke="#fff"/>
<g clip-path="url(#a)">
<g transform="translate(821.11 528.96) rotate(90) scale(.08 -.08)">
<use xlink:href="#l"/>
<use x="60.818359" xlink:href="#e"/>
<use x="122.341797" xlink:href="#i"/>
<use x="163.439453" xlink:href="#k"/>
<use x="260.851562" xlink:href="#h"/>
<use x="288.634766" xlink:href="#d"/>
<use x="352.013672" xlink:href="#g"/>
<use x="413.292969" xlink:href="#j"/>
</g>
</g>
<path d="m865.18 528.96v35.285q0 2.4 2.4 2.4h7.7425q2.4 0 2.4-2.4v-35.285q0-2.4-2.4-2.4h-7.7425q-2.4 0-2.4 2.4z" clip-path="url(#a)" fill="#fff" stroke="#fff"/>
<g clip-path="url(#a)">
<g transform="translate(869.24 528.96) rotate(90) scale(.08 -.08)">
<use xlink:href="#l"/>
<use x="60.818359" xlink:href="#e"/>
<use x="122.341797" xlink:href="#i"/>
<use x="163.439453" xlink:href="#k"/>
<use x="260.851562" xlink:href="#h"/>
<use x="288.634766" xlink:href="#d"/>
<use x="352.013672" xlink:href="#g"/>
<use x="413.292969" xlink:href="#j"/>
</g>
</g>
<path d="m913.31 528.96v35.285q0 2.4 2.4 2.4h7.7425q2.4 0 2.4-2.4v-35.285q0-2.4-2.4-2.4h-7.7425q-2.4 0-2.4 2.4z" clip-path="url(#a)" fill="#fff" stroke="#fff"/>
<g clip-path="url(#a)">
<g transform="translate(917.38 528.96) rotate(90) scale(.08 -.08)">
<use xlink:href="#l"/>
<use x="60.818359" xlink:href="#e"/>
<use x="122.341797" xlink:href="#i"/>
<use x="163.439453" xlink:href="#k"/>
<use x="260.851562" xlink:href="#h"/>
<use x="288.634766" xlink:href="#d"/>
<use x="352.013672" xlink:href="#g"/>
<use x="413.292969" xlink:href="#j"/>
</g>
</g>
<path d="m984.96 474.76 1.5233-4.82q0.72324-2.2884-1.5652-3.0117l-7.3826-2.3332q-2.2884-0.72324-3.0117 1.5652l-1.5233 4.82q-0.72324 2.2884 1.5652 3.0117l7.3826 2.3332q2.2884 0.72324 3.0117-1.5652z" clip-path="url(#a)" fill="#fff" stroke="#fff"/>
<g clip-path="url(#a)">
<g transform="translate(981.09 473.54) rotate(-72.461) scale(.08 -.08)">
<use xlink:href="#p"/>
</g>
</g>
<path d="m996.99 469.69 1.6834 5.3266q0.72324 2.2884 3.0117 1.5652l7.3826-2.3332q2.2884-0.72324 1.5652-3.0117l-1.6834-5.3266q-0.72324-2.2884-3.0117-1.5652l-7.3826 2.3332q-2.2884 0.72324-1.5652 3.0117z" clip-path="url(#a)" fill="#fff" stroke="#fff"/>
<g clip-path="url(#a)">
<g transform="translate(1000.9 468.46) rotate(72.461) scale(.08 -.08)">
<use xlink:href="#n"/>
</g>
</g>
<path d="m1057.7 528.96v35.285q0 2.4 2.4 2.4h7.7425q2.4 0 2.4-2.4v-35.285q0-2.4-2.4-2.4h-7.7425q-2.4 0-2.4 2.4z" clip-path="url(#a)" fill="#fff" stroke="#fff"/>
<g clip-path="url(#a)">
<g transform="translate(1061.8 528.96) rotate(90) scale(.08 -.08)">
<use xlink:href="#l"/>
<use x="60.818359" xlink:href="#e"/>
<use x="122.341797" xlink:href="#i"/>
<use x="163.439453" xlink:href="#k"/>
<use x="260.851562" xlink:href="#h"/>
<use x="288.634766" xlink:href="#d"/>
<use x="352.013672" xlink:href="#g"/>
<use x="413.292969" xlink:href="#j"/>
</g>
</g>
<path d="m961.44 528.96v35.285q0 2.4 2.4 2.4h7.7425q2.4 0 2.4-2.4v-35.285q0-2.4-2.4-2.4h-7.7425q-2.4 0-2.4 2.4z" clip-path="url(#a)" fill="#fff" stroke="#fff"/>
<g clip-path="url(#a)">
<g transform="translate(965.51 528.96) rotate(90) scale(.08 -.08)">
<use xlink:href="#l"/>
<use x="60.818359" xlink:href="#e"/>
<use x="122.341797" xlink:href="#i"/>
<use x="163.439453" xlink:href="#k"/>
<use x="260.851562" xlink:href="#h"/>
<use x="288.634766" xlink:href="#d"/>
<use x="352.013672" xlink:href="#g"/>
<use x="413.292969" xlink:href="#j"/>
</g>
</g>
<path d="m1009.6 528.96v35.285q0 2.4 2.4 2.4h7.7425q2.4 0 2.4-2.4v-35.285q0-2.4-2.4-2.4h-7.7425q-2.4 0-2.4 2.4z" clip-path="url(#a)" fill="#fff" stroke="#fff"/>
<g clip-path="url(#a)">
<g transform="translate(1013.6 528.96) rotate(90) scale(.08 -.08)">
<use xlink:href="#l"/>
<use x="60.818359" xlink:href="#e"/>
<use x="122.341797" xlink:href="#i"/>
<use x="163.439453" xlink:href="#k"/>
<use x="260.851562" xlink:href="#h"/>
<use x="288.634766" xlink:href="#d"/>
<use x="352.013672" xlink:href="#g"/>
<use x="413.292969" xlink:href="#j"/>
</g>
</g>
<path d="m624.53 528.96v35.285q0 2.4 2.4 2.4h7.7425q2.4 0 2.4-2.4v-35.285q0-2.4-2.4-2.4h-7.7425q-2.4 0-2.4 2.4z" clip-path="url(#a)" fill="#fff" stroke="#fff"/>
<g clip-path="url(#a)">
<g transform="translate(628.59 528.96) rotate(90) scale(.08 -.08)">
<use xlink:href="#l"/>
<use x="60.818359" xlink:href="#e"/>
<use x="122.341797" xlink:href="#i"/>
<use x="163.439453" xlink:href="#k"/>
<use x="260.851562" xlink:href="#h"/>
<use x="288.634766" xlink:href="#d"/>
<use x="352.013672" xlink:href="#g"/>
<use x="413.292969" xlink:href="#j"/>
</g>
</g>
<path d="m672.66 528.96v35.285q0 2.4 2.4 2.4h7.7425q2.4 0 2.4-2.4v-35.285q0-2.4-2.4-2.4h-7.7425q-2.4 0-2.4 2.4z" clip-path="url(#a)" fill="#fff" stroke="#fff"/>
<g clip-path="url(#a)">
<g transform="translate(676.72 528.96) rotate(90) scale(.08 -.08)">
<use xlink:href="#l"/>
<use x="60.818359" xlink:href="#e"/>
<use x="122.341797" xlink:href="#i"/>
<use x="163.439453" xlink:href="#k"/>
<use x="260.851562" xlink:href="#h"/>
<use x="288.634766" xlink:href="#d"/>
<use x="352.013672" xlink:href="#g"/>
<use x="413.292969" xlink:href="#j"/>
</g>
</g>
<path d="m720.79 528.96v35.285q0 2.4 2.4 2.4h7.7425q2.4 0 2.4-2.4v-35.285q0-2.4-2.4-2.4h-7.7425q-2.4 0-2.4 2.4z" clip-path="url(#a)" fill="#fff" stroke="#fff"/>
<g clip-path="url(#a)">
<g transform="translate(724.85 528.96) rotate(90) scale(.08 -.08)">
<use xlink:href="#l"/>
<use x="60.818359" xlink:href="#e"/>
<use x="122.341797" xlink:href="#i"/>
<use x="163.439453" xlink:href="#k"/>
<use x="260.851562" xlink:href="#h"/>
<use x="288.634766" xlink:href="#d"/>
<use x="352.013672" xlink:href="#g"/>
<use x="413.292969" xlink:href="#j"/>
</g>
</g>
<path d="m335.74 528.96v35.285q0 2.4 2.4 2.4h7.7425q2.4 0 2.4-2.4v-35.285q0-2.4-2.4-2.4h-7.7425q-2.4 0-2.4 2.4z" clip-path="url(#a)" fill="#fff" stroke="#fff"/>
<g clip-path="url(#a)">
<g transform="translate(339.8 528.96) rotate(90) scale(.08 -.08)">
<use xlink:href="#l"/>
<use x="60.818359" xlink:href="#e"/>
<use x="122.341797" xlink:href="#i"/>
<use x="163.439453" xlink:href="#k"/>
<use x="260.851562" xlink:href="#h"/>
<use x="288.634766" xlink:href="#d"/>
<use x="352.013672" xlink:href="#g"/>
<use x="413.292969" xlink:href="#j"/>
</g>
</g>
<path d="m383.87 528.96v35.285q0 2.4 2.4 2.4h7.7425q2.4 0 2.4-2.4v-35.285q0-2.4-2.4-2.4h-7.7425q-2.4 0-2.4 2.4z" clip-path="url(#a)" fill="#fff" stroke="#fff"/>
<g clip-path="url(#a)">
<g transform="translate(387.94 528.96) rotate(90) scale(.08 -.08)">
<use xlink:href="#l"/>
<use x="60.818359" xlink:href="#e"/>
<use x="122.341797" xlink:href="#i"/>
<use x="163.439453" xlink:href="#k"/>
<use x="260.851562" xlink:href="#h"/>
<use x="288.634766" xlink:href="#d"/>
<use x="352.013672" xlink:href="#g"/>
<use x="413.292969" xlink:href="#j"/>
</g>
</g>
<path d="m432 528.96v35.285q0 2.4 2.4 2.4h7.7425q2.4 0 2.4-2.4v-35.285q0-2.4-2.4-2.4h-7.7425q-2.4 0-2.4 2.4z" clip-path="url(#a)" fill="#fff" stroke="#fff"/>
<g clip-path="url(#a)">
<g transform="translate(436.07 528.96) rotate(90) scale(.08 -.08)">
<use xlink:href="#l"/>
<use x="60.818359" xlink:href="#e"/>
<use x="122.341797" xlink:href="#i"/>
<use x="163.439453" xlink:href="#k"/>
<use x="260.851562" xlink:href="#h"/>
<use x="288.634766" xlink:href="#d"/>
<use x="352.013672" xlink:href="#g"/>
<use x="413.292969" xlink:href="#j"/>
</g>
</g>
<path d="m70.478 474.76 1.5233-4.82q0.72324-2.2884-1.5652-3.0117l-7.3826-2.3332q-2.2884-0.72324-3.0117 1.5652l-1.5233 4.82q-0.72324 2.2884 1.5652 3.0117l7.3826 2.3332q2.2884 0.72324 3.0117-1.5652z" clip-path="url(#a)" fill="#fff" stroke="#fff"/>
<g clip-path="url(#a)">
<g transform="translate(66.603 473.54) rotate(-72.461) scale(.08 -.08)">
<use xlink:href="#p"/>
</g>
</g>
<path d="m82.504 469.69 1.6834 5.3266q0.72324 2.2884 3.0117 1.5652l7.3826-2.3332q2.2884-0.72324 1.5652-3.0117l-1.6834-5.3266q-0.72324-2.2884-3.0117-1.5652l-7.3826 2.3332q-2.2884 0.72324-1.5652 3.0117z" clip-path="url(#a)" fill="#fff" stroke="#fff"/>
<g clip-path="url(#a)">
<g transform="translate(86.379 468.46) rotate(72.461) scale(.08 -.08)">
<use xlink:href="#n"/>
</g>
</g>
<path d="m143.22 528.96v35.285q0 2.4 2.4 2.4h7.7425q2.4 0 2.4-2.4v-35.285q0-2.4-2.4-2.4h-7.7425q-2.4 0-2.4 2.4z" clip-path="url(#a)" fill="#fff" stroke="#fff"/>
<g clip-path="url(#a)">
<g transform="translate(147.28 528.96) rotate(90) scale(.08 -.08)">
<use xlink:href="#l"/>
<use x="60.818359" xlink:href="#e"/>
<use x="122.341797" xlink:href="#i"/>
<use x="163.439453" xlink:href="#k"/>
<use x="260.851562" xlink:href="#h"/>
<use x="288.634766" xlink:href="#d"/>
<use x="352.013672" xlink:href="#g"/>
<use x="413.292969" xlink:href="#j"/>
</g>
</g>
<path d="m46.956 528.96v35.285q0 2.4 2.4 2.4h7.7425q2.4 0 2.4-2.4v-35.285q0-2.4-2.4-2.4h-7.7425q-2.4 0-2.4 2.4z" clip-path="url(#a)" fill="#fff" stroke="#fff"/>
<g clip-path="url(#a)">
<g transform="translate(51.02 528.96) rotate(90) scale(.08 -.08)">
<use xlink:href="#l"/>
<use x="60.818359" xlink:href="#e"/>
<use x="122.341797" xlink:href="#i"/>
<use x="163.439453" xlink:href="#k"/>
<use x="260.851562" xlink:href="#h"/>
<use x="288.634766" xlink:href="#d"/>
<use x="352.013672" xlink:href="#g"/>
<use x="413.292969" xlink:href="#j"/>
</g>
</g>
<path d="m95.087 528.96v35.285q0 2.4 2.4 2.4h7.7425q2.4 0 2.4-2.4v-35.285q0-2.4-2.4-2.4h-7.7425q-2.4 0-2.4 2.4z" clip-path="url(#a)" fill="#fff" stroke="#fff"/>
<g clip-path="url(#a)">
<g transform="translate(99.151 528.96) rotate(90) scale(.08 -.08)">
<use xlink:href="#l"/>
<use x="60.818359" xlink:href="#e"/>
<use x="122.341797" xlink:href="#i"/>
<use x="163.439453" xlink:href="#k"/>
<use x="260.851562" xlink:href="#h"/>
<use x="288.634766" xlink:href="#d"/>
<use x="352.013672" xlink:href="#g"/>
<use x="413.292969" xlink:href="#j"/>
</g>
</g>
<path d="m480.13 528.96v35.285q0 2.4 2.4 2.4h7.7425q2.4 0 2.4-2.4v-35.285q0-2.4-2.4-2.4h-7.7425q-2.4 0-2.4 2.4z" clip-path="url(#a)" fill="#fff" stroke="#fff"/>
<g clip-path="url(#a)">
<g transform="translate(484.2 528.96) rotate(90) scale(.08 -.08)">
<use xlink:href="#l"/>
<use x="60.818359" xlink:href="#e"/>
<use x="122.341797" xlink:href="#i"/>
<use x="163.439453" xlink:href="#k"/>
<use x="260.851562" xlink:href="#h"/>
<use x="288.634766" xlink:href="#d"/>
<use x="352.013672" xlink:href="#g"/>
<use x="413.292969" xlink:href="#j"/>
</g>
</g>
<path d="m1105.8 528.96v35.285q0 2.4 2.4 2.4h7.7425q2.4 0 2.4-2.4v-35.285q0-2.4-2.4-2.4h-7.7425q-2.4 0-2.4 2.4z" clip-path="url(#a)" fill="#fff" stroke="#fff"/>
<g clip-path="url(#a)">
<g transform="translate(1109.9 528.96) rotate(90) scale(.08 -.08)">
<use xlink:href="#l"/>
<use x="60.818359" xlink:href="#e"/>
<use x="122.341797" xlink:href="#i"/>
<use x="163.439453" xlink:href="#k"/>
<use x="260.851562" xlink:href="#h"/>
<use x="288.634766" xlink:href="#d"/>
<use x="352.013672" xlink:href="#g"/>
<use x="413.292969" xlink:href="#j"/>
</g>
</g>
<defs>
<path id="b" d="m0 8.6603c2.2967 0 4.4997-0.9125 6.1237-2.5365 1.624-1.624 2.5365-3.827 2.5365-6.1237s-0.9125-4.4997-2.5365-6.1237c-1.624-1.624-3.827-2.5365-6.1237-2.5365s-4.4997 0.9125-6.1237 2.5365c-1.624 1.624-2.5365 3.827-2.5365 6.1237s0.9125 4.4997 2.5365 6.1237c1.624 1.624 3.827 2.5365 6.1237 2.5365z"/>
</defs>
<g clip-path="url(#a)">
<use x="53.227232" y="584.680407" fill="#ffffff" stroke="#ffffff" xlink:href="#b"/>
</g>
<g clip-path="url(#a)">
<use x="101.35809" y="584.680407" fill="#ffffff" stroke="#ffffff" xlink:href="#b"/>
</g>
<g clip-path="url(#a)">
<use x="149.488948" y="584.680407" fill="#ffffff" stroke="#ffffff" xlink:href="#b"/>
</g>
<g clip-path="url(#a)">
<use x="197.619805" y="584.680407" fill="#ffffff" stroke="#ffffff" xlink:href="#b"/>
</g>
<g clip-path="url(#a)">
<use x="245.750663" y="584.680407" fill="#ffffff" stroke="#ffffff" xlink:href="#b"/>
</g>
<g clip-path="url(#a)">
<use x="293.881521" y="584.680407" fill="#ffffff" stroke="#ffffff" xlink:href="#b"/>
</g>
<g clip-path="url(#a)">
<use x="342.012378" y="584.680407" fill="#ffffff" stroke="#ffffff" xlink:href="#b"/>
</g>
<g clip-path="url(#a)">
<use x="390.143236" y="584.680407" fill="#ffffff" stroke="#ffffff" xlink:href="#b"/>
</g>
<g clip-path="url(#a)">
<use x="438.274094" y="584.680407" fill="#ffffff" stroke="#ffffff" xlink:href="#b"/>
</g>
<g clip-path="url(#a)">
<use x="486.404951" y="584.680407" fill="#ffffff" stroke="#ffffff" xlink:href="#b"/>
</g>
<g clip-path="url(#a)">
<use x="534.535809" y="584.680407" fill="#ffffff" stroke="#ffffff" xlink:href="#b"/>
</g>
<g clip-path="url(#a)">
<use x="582.666667" y="584.680407" fill="#ffffff" stroke="#ffffff" xlink:href="#b"/>
</g>
<g clip-path="url(#a)">
<use x="630.797524" y="584.680407" fill="#ffffff" stroke="#ffffff" xlink:href="#b"/>
</g>
<g clip-path="url(#a)">
<use x="678.928382" y="584.680407" fill="#ffffff" stroke="#ffffff" xlink:href="#b"/>
</g>
<g clip-path="url(#a)">
<use x="727.05924" y="584.680407" fill="#ffffff" stroke="#ffffff" xlink:href="#b"/>
</g>
<g clip-path="url(#a)">
<use x="775.190097" y="584.680407" fill="#ffffff" stroke="#ffffff" xlink:href="#b"/>
</g>
<g clip-path="url(#a)">
<use x="823.320955" y="584.680407" fill="#ffffff" stroke="#ffffff" xlink:href="#b"/>
</g>
<g clip-path="url(#a)">
<use x="871.451813" y="584.680407" fill="#ffffff" stroke="#ffffff" xlink:href="#b"/>
</g>
<g clip-path="url(#a)">
<use x="919.58267" y="584.680407" fill="#ffffff" stroke="#ffffff" xlink:href="#b"/>
</g>
<g clip-path="url(#a)">
<use x="967.713528" y="584.680407" fill="#ffffff" stroke="#ffffff" xlink:href="#b"/>
</g>
<g clip-path="url(#a)">
<use x="1015.844386" y="584.680407" fill="#ffffff" stroke="#ffffff" xlink:href="#b"/>
</g>
<g clip-path="url(#a)">
<use x="1063.975244" y="584.680407" fill="#ffffff" stroke="#ffffff" xlink:href="#b"/>
</g>
<g clip-path="url(#a)">
<use x="1112.106101" y="584.680407" fill="#ffffff" stroke="#ffffff" xlink:href="#b"/>
</g>
<g clip-path="url(#a)">
<use x="254.352174" y="28.652926" fill="#ffffff" stroke="#ffffff" xlink:href="#b"/>
</g>
<g clip-path="url(#a)">
<use x="254.352174" y="113.467117" fill="#ffffff" stroke="#ffffff" xlink:href="#b"/>
</g>
<g clip-path="url(#a)">
<use x="113.390804" y="355.18045" fill="#ffffff" stroke="#ffffff" xlink:href="#b"/>
</g>
<g clip-path="url(#a)">
<use x="197.619805" y="508.533517" fill="#ffffff" stroke="#ffffff" xlink:href="#b"/>
</g>
<g clip-path="url(#a)">
<use x="245.750663" y="508.533517" fill="#ffffff" stroke="#ffffff" xlink:href="#b"/>
</g>
<g clip-path="url(#a)">
<use x="460.647422" y="196.001735" fill="#ffffff" stroke="#ffffff" xlink:href="#b"/>
</g>
<g clip-path="url(#a)">
<use x="293.881521" y="508.533517" fill="#ffffff" stroke="#ffffff" xlink:href="#b"/>
</g>
<g clip-path="url(#a)">
<use x="390.143236" y="432.386627" fill="#ffffff" stroke="#ffffff" xlink:href="#b"/>
</g>
<g clip-path="url(#a)">
<use x="672.15998" y="276.48761" fill="#ffffff" stroke="#ffffff" xlink:href="#b"/>
</g>
<g clip-path="url(#a)">
<use x="534.535809" y="508.533517" fill="#ffffff" stroke="#ffffff" xlink:href="#b"/>
</g>
<g clip-path="url(#a)">
<use x="582.666667" y="508.533517" fill="#ffffff" stroke="#ffffff" xlink:href="#b"/>
</g>
<g clip-path="url(#a)">
<use x="678.928382" y="432.386627" fill="#ffffff" stroke="#ffffff" xlink:href="#b"/>
</g>
<g clip-path="url(#a)">
<use x="892.509063" y="355.18045" fill="#ffffff" stroke="#ffffff" xlink:href="#b"/>
</g>
<g clip-path="url(#a)">
<use x="775.190097" y="508.533517" fill="#ffffff" stroke="#ffffff" xlink:href="#b"/>
</g>
<g clip-path="url(#a)">
<use x="823.320955" y="508.533517" fill="#ffffff" stroke="#ffffff" xlink:href="#b"/>
</g>
<g clip-path="url(#a)">
<use x="871.451813" y="508.533517" fill="#ffffff" stroke="#ffffff" xlink:href="#b"/>
</g>
<g clip-path="url(#a)">
<use x="919.58267" y="508.533517" fill="#ffffff" stroke="#ffffff" xlink:href="#b"/>
</g>
<g clip-path="url(#a)">
<use x="991.778957" y="432.386627" fill="#ffffff" stroke="#ffffff" xlink:href="#b"/>
</g>
<g clip-path="url(#a)">
<use x="1063.975244" y="508.533517" fill="#ffffff" stroke="#ffffff" xlink:href="#b"/>
</g>
<g clip-path="url(#a)">
<use x="967.713528" y="508.533517" fill="#ffffff" stroke="#ffffff" xlink:href="#b"/>
</g>
<g clip-path="url(#a)">
<use x="1015.844386" y="508.533517" fill="#ffffff" stroke="#ffffff" xlink:href="#b"/>
</g>
<g clip-path="url(#a)">
<use x="630.797524" y="508.533517" fill="#ffffff" stroke="#ffffff" xlink:href="#b"/>
</g>
<g clip-path="url(#a)">
<use x="678.928382" y="508.533517" fill="#ffffff" stroke="#ffffff" xlink:href="#b"/>
</g>
<g clip-path="url(#a)">
<use x="727.05924" y="508.533517" fill="#ffffff" stroke="#ffffff" xlink:href="#b"/>
</g>
<g clip-path="url(#a)">
<use x="342.012378" y="508.533517" fill="#ffffff" stroke="#ffffff" xlink:href="#b"/>
</g>
<g clip-path="url(#a)">
<use x="390.143236" y="508.533517" fill="#ffffff" stroke="#ffffff" xlink:href="#b"/>
</g>
<g clip-path="url(#a)">
<use x="438.274094" y="508.533517" fill="#ffffff" stroke="#ffffff" xlink:href="#b"/>
</g>
<g clip-path="url(#a)">
<use x="77.292661" y="432.386627" fill="#ffffff" stroke="#ffffff" xlink:href="#b"/>
</g>
<g clip-path="url(#a)">
<use x="149.488948" y="508.533517" fill="#ffffff" stroke="#ffffff" xlink:href="#b"/>
</g>
<g clip-path="url(#a)">
<use x="53.227232" y="508.533517" fill="#ffffff" stroke="#ffffff" xlink:href="#b"/>
</g>
<g clip-path="url(#a)">
<use x="101.35809" y="508.533517" fill="#ffffff" stroke="#ffffff" xlink:href="#b"/>
</g>
<g clip-path="url(#a)">
<use x="486.404951" y="508.533517" fill="#ffffff" stroke="#ffffff" xlink:href="#b"/>
</g>
<g clip-path="url(#a)">
<use x="1112.106101" y="508.533517" fill="#ffffff" stroke="#ffffff" xlink:href="#b"/>
</g>
<g clip-path="url(#a)">
<defs>
<path id="ap" d="m9.8125 72.906h9.8594v-64.609h35.5v-8.2969h-45.359z"/>
<path id="al" d="m17.922 72.906v-27.109h-8.2969v27.109z"/>
</defs>
<g transform="translate(49.067 587.44) scale(.1 -.1)">
<use xlink:href="#ap"/>
<use x="55.712891" xlink:href="#al"/>
</g>
</g>
<g clip-path="url(#a)">
<defs>
<path id="r" d="m56.203 29.594v-4.3906h-41.312q0.59375-9.2812 5.5938-14.141t13.938-4.8594q5.1719 0 10.031 1.2656t9.6562 3.8125v-8.5q-4.8438-2.0469-9.9219-3.125t-10.297-1.0781q-13.094 0-20.734 7.6094-7.6406 7.625-7.6406 20.625 0 13.422 7.25 21.297 7.25 7.8906 19.562 7.8906 11.031 0 17.453-7.1094 6.4219-7.0938 6.4219-19.297zm-8.9844 2.6406q-0.09375 7.3594-4.125 11.75-4.0312 4.4062-10.672 4.4062-7.5156 0-12.031-4.25t-5.2031-11.969zm-8.6875 47.75h9.7188l-15.906-18.359h-7.4844z"/>
</defs>
<g transform="translate(85.803 587.44) scale(.1 -.1)">
<use xlink:href="#g"/>
<use x="61.279297" xlink:href="#d"/>
<use x="124.658203" xlink:href="#d"/>
<use x="188.037109" xlink:href="#r"/>
<use x="249.560547" xlink:href="#e"/>
</g>
</g>
<g clip-path="url(#a)">
<defs>
<path id="c" d="m12.406 8.2969h16.109v55.625l-17.531-3.5156v8.9844l17.438 3.5156h9.8594v-64.609h16.109v-8.2969h-41.984z"/>
<path id="u" d="m31.781 34.625q-7.0312 0-11.062-3.7656-4.0156-3.7656-4.0156-10.344 0-6.5938 4.0156-10.359 4.0312-3.7656 11.062-3.7656t11.078 3.7812q4.0625 3.7969 4.0625 10.344 0 6.5781-4.0312 10.344-4.0156 3.7656-11.109 3.7656zm-9.8594 4.1875q-6.3438 1.5625-9.8906 5.9062-3.5312 4.3594-3.5312 10.609 0 8.7344 6.2188 13.812 6.2344 5.0781 17.062 5.0781 10.891 0 17.094-5.0781t6.2031-13.812q0-6.25-3.5469-10.609-3.5312-4.3438-9.8281-5.9062 7.125-1.6562 11.094-6.5 3.9844-4.8281 3.9844-11.797 0-10.609-6.4688-16.281-6.4688-5.6562-18.531-5.6562-12.047 0-18.531 5.6562-6.4688 5.6719-6.4688 16.281 0 6.9688 4 11.797 4.0156 4.8438 11.141 6.5zm-3.6094 15.578q0-5.6562 3.5312-8.8281 3.5469-3.1719 9.9375-3.1719 6.3594 0 9.9375 3.1719 3.5938 3.1719 3.5938 8.8281 0 5.6719-3.5938 8.8438-3.5781 3.1719-9.9375 3.1719-6.3906 0-9.9375-3.1719-3.5312-3.1719-3.5312-8.8438z"/>
<path id="s" d="m33.016 40.375q-6.6406 0-10.531-4.5469-3.875-4.5312-3.875-12.438 0-7.8594 3.875-12.438 3.8906-4.5625 10.531-4.5625t10.516 4.5625q3.875 4.5781 3.875 12.438 0 7.9062-3.875 12.438-3.875 4.5469-10.516 4.5469zm19.578 30.922v-8.9844q-3.7188 1.75-7.5 2.6719-3.7812 0.9375-7.5 0.9375-9.7656 0-14.922-6.5938-5.1406-6.5938-5.875-19.922 2.875 4.25 7.2188 6.5156 4.3594 2.2656 9.5781 2.2656 10.984 0 17.359-6.6719 6.375-6.6562 6.375-18.125 0-11.234-6.6406-18.031-6.6406-6.7812-17.672-6.7812-12.656 0-19.344 9.6875-6.6875 9.7031-6.6875 28.109 0 17.281 8.2031 27.562t22.016 10.281q3.7188 0 7.5-0.73438t7.8906-2.1875z"/>
</defs>
<g transform="translate(136.76 587.44) scale(.1 -.1)">
<use xlink:href="#c"/>
<use x="63.623047" xlink:href="#u"/>
<use x="127.246094" xlink:href="#s"/>
<use x="190.869141" xlink:href="#s"/>
</g>
</g>
<g clip-path="url(#a)">
<defs>
<path id="aw" d="m37.109 75.984v-7.4844h-8.5938q-4.8281 0-6.7188-1.9531-1.875-1.9531-1.875-7.0312v-4.8281h14.797v-6.9844h-14.797v-47.703h-9.0312v47.703h-8.5938v6.9844h8.5938v3.8125q0 9.125 4.25 13.297 4.25 4.1875 13.469 4.1875z"/>
<path id="q" d="m8.5 21.578v33.109h8.9844v-32.766q0-7.7656 3.0156-11.656 3.0312-3.875 9.0938-3.875 7.2656 0 11.484 4.6406 4.2344 4.6406 4.2344 12.656v31h8.9844v-54.688h-8.9844v8.4062q-3.2656-4.9844-7.5938-7.4062-4.3125-2.4219-10.031-2.4219-9.4219 0-14.312 5.8594-4.875 5.8594-4.875 17.141z"/>
<path id="x" d="m18.312 70.219v-15.531h18.5v-6.9844h-18.5v-29.688q0-6.6875 1.8281-8.5938t7.4531-1.9062h9.2188v-7.5156h-9.2188q-10.406 0-14.359 3.875-3.9531 3.8906-3.9531 14.141v29.688h-6.5938v6.9844h6.5938v15.531z"/>
</defs>
<g transform="translate(190.73 587.44) scale(.1 -.1)">
<use xlink:href="#aw"/>
<use x="35.205078" xlink:href="#q"/>
<use x="98.583984" xlink:href="#x"/>
</g>
</g>
<g clip-path="url(#a)">
<defs>
<path id="af" d="m14.797 27.297q0-9.9062 4.0781-15.547t11.203-5.6406 11.219 5.6406q4.1094 5.6406 4.1094 15.547t-4.1094 15.547q-4.0938 5.6406-11.219 5.6406t-11.203-5.6406-4.0781-15.547zm30.609-19.094q-2.8281-4.875-7.1562-7.25-4.3125-2.375-10.375-2.375-9.9062 0-16.141 7.9062-6.2188 7.9219-6.2188 20.812t6.2188 20.797q6.2344 7.9062 16.141 7.9062 6.0625 0 10.375-2.375 4.3281-2.3594 7.1562-7.2344v8.2969h8.9844v-75.484h-8.9844z"/>
</defs>
<g transform="translate(223.27 587.64) scale(.1 -.1)">
<use xlink:href="#k"/>
<use x="97.412109" xlink:href="#g"/>
<use x="158.691406" xlink:href="#i"/>
<use x="199.789062" xlink:href="#af"/>
<use x="263.265625" xlink:href="#q"/>
<use x="326.644531" xlink:href="#r"/>
<use x="388.167969" xlink:href="#e"/>
</g>
</g>
<g clip-path="url(#a)">
<defs>
<path id="t" d="m18.109 8.2031v-29h-9.0312v75.484h9.0312v-8.2969q2.8438 4.875 7.1562 7.2344 4.3281 2.375 10.328 2.375 9.9688 0 16.188-7.9062 6.2344-7.9062 6.2344-20.797t-6.2344-20.812q-6.2188-7.9062-16.188-7.9062-6 0-10.328 2.375-4.3125 2.375-7.1562 7.25zm30.578 19.094q0 9.9062-4.0781 15.547t-11.203 5.6406q-7.1406 0-11.219-5.6406t-4.0781-15.547 4.0781-15.547 11.219-5.6406q7.125 0 11.203 5.6406t4.0781 15.547z"/>
</defs>
<g transform="translate(285.59 587.44) scale(.1 -.1)">
<use xlink:href="#t"/>
<use x="63.476562" xlink:href="#g"/>
<use x="124.755859" xlink:href="#i"/>
</g>
</g>
<g clip-path="url(#a)">
<g transform="translate(335.67 587.44) scale(.1 -.1)">
<use xlink:href="#q"/>
<use x="63.378906" xlink:href="#d"/>
</g>
</g>
<g clip-path="url(#a)">
<defs>
<path id="au" d="m2.9844 54.688h9.5156l17.094-45.891 17.094 45.891h9.5156l-20.516-54.688h-12.203z"/>
</defs>
<g transform="translate(361.71 587.44) scale(.1 -.1)">
<use xlink:href="#r"/>
<use x="61.523438" xlink:href="#au"/>
<use x="120.703125" xlink:href="#r"/>
<use x="182.226562" xlink:href="#d"/>
<use x="245.605469" xlink:href="#e"/>
<use x="307.128906" xlink:href="#k"/>
<use x="404.541016" xlink:href="#e"/>
<use x="466.064453" xlink:href="#d"/>
<use x="529.443359" xlink:href="#x"/>
</g>
</g>
<g clip-path="url(#a)">
<defs>
<path id="z" d="m48.688 27.297q0 9.9062-4.0781 15.547t-11.203 5.6406q-7.1406 0-11.219-5.6406t-4.0781-15.547 4.0781-15.547 11.219-5.6406q7.125 0 11.203 5.6406t4.0781 15.547zm-30.578 19.094q2.8438 4.875 7.1562 7.2344 4.3281 2.375 10.328 2.375 9.9688 0 16.188-7.9062 6.2344-7.9062 6.2344-20.797t-6.2344-20.812q-6.2188-7.9062-16.188-7.9062-6 0-10.328 2.375-4.3125 2.375-7.1562 7.25v-8.2031h-9.0312v75.984h9.0312z"/>
<path id="at" d="m5.5156 54.688h42.672v-8.2031l-33.781-39.312h33.781v-7.1719h-43.891v8.2031l33.797 39.312h-32.578z"/>
</defs>
<g transform="translate(420.84 587.44) scale(.1 -.1)">
<use xlink:href="#z"/>
<use x="63.476562" xlink:href="#h"/>
<use x="91.259766" xlink:href="#at"/>
<use x="143.75" xlink:href="#g"/>
<use x="205.029297" xlink:href="#i"/>
<use x="246.126953" xlink:href="#i"/>
<use x="287.208984" xlink:href="#e"/>
</g>
</g>
<g clip-path="url(#a)">
<defs>
<path id="ar" d="m11.719 12.406h10.297v-8.4062l-8-15.625h-6.2969l4 15.625z"/>
</defs>
<g transform="translate(484.82 587.44) scale(.1 -.1)">
<use xlink:href="#ar"/>
</g>
</g>
<g clip-path="url(#a)">
<g transform="translate(528.2 587.44) scale(.1 -.1)">
<use xlink:href="#q"/>
<use x="63.378906" xlink:href="#d"/>
</g>
</g>
<g clip-path="url(#a)">
<defs>
<path id="av" d="m54.891 33.016v-33.016h-8.9844v32.719q0 7.7656-3.0312 11.609-3.0312 3.8594-9.0781 3.8594-7.2812 0-11.484-4.6406-4.2031-4.625-4.2031-12.641v-30.906h-9.0312v75.984h9.0312v-29.797q3.2344 4.9375 7.5938 7.375 4.375 2.4375 10.094 2.4375 9.4219 0 14.25-5.8281 4.8438-5.8281 4.8438-17.156z"/>
<path id="y" d="m30.609 48.391q-7.2188 0-11.422-5.6406t-4.2031-15.453 4.1719-15.453q4.1875-5.6406 11.453-5.6406 7.1875 0 11.375 5.6562 4.2031 5.6719 4.2031 15.438 0 9.7188-4.2031 15.406-4.1875 5.6875-11.375 5.6875zm0 7.6094q11.719 0 18.406-7.625 6.7031-7.6094 6.7031-21.078 0-13.422-6.7031-21.078-6.6875-7.6406-18.406-7.6406-11.766 0-18.438 7.6406-6.6562 7.6562-6.6562 21.078 0 13.469 6.6562 21.078 6.6719 7.625 18.438 7.625z"/>
<path id="as" d="m56.203 29.594v-4.3906h-41.312q0.59375-9.2812 5.5938-14.141t13.938-4.8594q5.1719 0 10.031 1.2656t9.6562 3.8125v-8.5q-4.8438-2.0469-9.9219-3.125t-10.297-1.0781q-13.094 0-20.734 7.6094-7.6406 7.625-7.6406 20.625 0 13.422 7.25 21.297 7.25 7.8906 19.562 7.8906 11.031 0 17.453-7.1094 6.4219-7.0938 6.4219-19.297zm-8.9844 2.6406q-0.09375 7.3594-4.125 11.75-4.0312 4.4062-10.672 4.4062-7.5156 0-12.031-4.25t-5.2031-11.969zm-22.547 47.75 13.766-18.266h-7.4688l-15.922 18.266z"/>
</defs>
<g transform="translate(552.83 587.64) scale(.1 -.1)">
<use xlink:href="#t"/>
<use x="63.476562" xlink:href="#av"/>
<use x="126.855469" xlink:href="#r"/>
<use x="188.378906" xlink:href="#d"/>
<use x="251.757812" xlink:href="#y"/>
<use x="312.939453" xlink:href="#k"/>
<use x="410.351562" xlink:href="#as"/>
<use x="471.875" xlink:href="#d"/>
<use x="535.253906" xlink:href="#e"/>
</g>
</g>
<g clip-path="url(#a)">
<defs>
<path id="am" d="m54.891 54.688-19.781-26.609 20.797-28.078h-10.594l-15.922 21.484-15.906-21.484h-10.609l21.25 28.609-19.438 26.078h10.594l14.5-19.484 14.5 19.484z"/>
</defs>
<g transform="translate(604.83 587.64) scale(.1 -.1)">
<use xlink:href="#h"/>
<use x="27.783203" xlink:href="#d"/>
<use x="91.162109" xlink:href="#e"/>
<use x="152.669922" xlink:href="#am"/>
<use x="211.849609" xlink:href="#t"/>
<use x="275.326172" xlink:href="#j"/>
<use x="303.109375" xlink:href="#h"/>
<use x="330.892578" xlink:href="#af"/>
<use x="394.369141" xlink:href="#q"/>
<use x="457.748047" xlink:href="#r"/>
</g>
</g>
<g clip-path="url(#a)">
<g transform="translate(673.89 587.44) scale(.1 -.1)">
<use xlink:href="#e"/>
<use x="61.523438" xlink:href="#x"/>
</g>
</g>
<g clip-path="url(#a)">
<defs>
<path id="an" d="m48.781 52.594v-8.4062q-3.8125 2.1094-7.6406 3.1562t-7.7344 1.0469q-8.75 0-13.594-5.5469-4.8281-5.5312-4.8281-15.547t4.8281-15.562q4.8438-5.5312 13.594-5.5312 3.9062 0 7.7344 1.0469t7.6406 3.1562v-8.3125q-3.7656-1.75-7.7969-2.625-4.0156-0.89062-8.5625-0.89062-12.359 0-19.641 7.7656-7.2656 7.7656-7.2656 20.953 0 13.375 7.3438 21.031 7.3594 7.6719 20.156 7.6719 4.1406 0 8.0938-0.85938 3.9531-0.84375 7.6719-2.5469z"/>
</defs>
<g transform="translate(697.06 587.44) scale(.1 -.1)">
<use xlink:href="#h"/>
<use x="27.783203" xlink:href="#d"/>
<use x="91.162109" xlink:href="#e"/>
<use x="152.669922" xlink:href="#am"/>
<use x="211.849609" xlink:href="#t"/>
<use x="275.326172" xlink:href="#j"/>
<use x="303.109375" xlink:href="#h"/>
<use x="330.892578" xlink:href="#an"/>
<use x="385.873047" xlink:href="#g"/>
<use x="447.152344" xlink:href="#z"/>
<use x="510.628906" xlink:href="#j"/>
<use x="538.412109" xlink:href="#e"/>
</g>
</g>
<g clip-path="url(#a)">
<g transform="translate(765.77 587.44) scale(.1 -.1)">
<use xlink:href="#af"/>
<use x="63.476562" xlink:href="#q"/>
<use x="126.855469" xlink:href="#e"/>
</g>
</g>
<g clip-path="url(#a)">
<defs>
<path id="ae" d="m44.281 53.078v-8.5q-3.7969 1.9531-7.9062 2.9219-4.0938 0.98438-8.5 0.98438-6.6875 0-10.031-2.0469t-3.3438-6.1562q0-3.125 2.3906-4.9062t9.625-3.3906l3.0781-0.6875q9.5625-2.0469 13.594-5.7812t4.0312-10.422q0-7.625-6.0312-12.078-6.0312-4.4375-16.578-4.4375-4.3906 0-9.1562 0.85938t-10.031 2.5625v9.2812q4.9844-2.5938 9.8125-3.8906 4.8281-1.2812 9.5781-1.2812 6.3438 0 9.75 2.1719 3.4219 2.1719 3.4219 6.125 0 3.6562-2.4688 5.6094-2.4531 1.9531-10.812 3.7656l-3.125 0.73438q-8.3438 1.75-12.062 5.3906-3.7031 3.6406-3.7031 9.9844 0 7.7188 5.4688 11.906 5.4688 4.2031 15.531 4.2031 4.9688 0 9.3594-0.73438 4.4062-0.71875 8.1094-2.1875z"/>
</defs>
<g transform="translate(799.94 587.44) scale(.1 -.1)">
<use xlink:href="#t"/>
<use x="63.476562" xlink:href="#e"/>
<use x="125" xlink:href="#i"/>
<use x="166.113281" xlink:href="#ae"/>
<use x="218.212891" xlink:href="#y"/>
<use x="279.394531" xlink:href="#d"/>
<use x="342.773438" xlink:href="#d"/>
<use x="406.152344" xlink:href="#e"/>
</g>
</g>
<g clip-path="url(#a)">
<g transform="translate(866.91 587.44) scale(.1 -.1)">
<use xlink:href="#d"/>
<use x="63.378906" xlink:href="#al"/>
</g>
</g>
<g clip-path="url(#a)">
<g transform="translate(916.52 587.44) scale(.1 -.1)">
<use xlink:href="#g"/>
</g>
</g>
<g clip-path="url(#a)">
<g transform="translate(956.27 587.44) scale(.1 -.1)">
<use xlink:href="#ae"/>
<use x="52.099609" xlink:href="#g"/>
<use x="113.378906" xlink:href="#d"/>
<use x="176.757812" xlink:href="#ae"/>
</g>
</g>
<g clip-path="url(#a)">
<defs>
<path id="ax" d="m45.406 46.391v29.594h8.9844v-75.984h-8.9844v8.2031q-2.8281-4.875-7.1562-7.25-4.3125-2.375-10.375-2.375-9.9062 0-16.141 7.9062-6.2188 7.9219-6.2188 20.812t6.2188 20.797q6.2344 7.9062 16.141 7.9062 6.0625 0 10.375-2.375 4.3281-2.3594 7.1562-7.2344zm-30.609-19.094q0-9.9062 4.0781-15.547t11.203-5.6406 11.219 5.6406q4.1094 5.6406 4.1094 15.547t-4.1094 15.547q-4.0938 5.6406-11.219 5.6406t-11.203-5.6406-4.0781-15.547z"/>
</defs>
<g transform="translate(1001.4 587.44) scale(.1 -.1)">
<use xlink:href="#ax"/>
<use x="63.476562" xlink:href="#y"/>
<use x="124.658203" xlink:href="#q"/>
<use x="188.037109" xlink:href="#x"/>
<use x="227.246094" xlink:href="#e"/>
</g>
</g>
<g clip-path="url(#a)">
<g transform="translate(1048.7 587.44) scale(.1 -.1)">
<use xlink:href="#y"/>
<use x="61.181641" xlink:href="#q"/>
<use x="124.560547" xlink:href="#z"/>
<use x="188.037109" xlink:href="#j"/>
<use x="215.820312" xlink:href="#h"/>
<use x="243.603516" xlink:href="#r"/>
</g>
</g>
<g clip-path="url(#a)">
<defs>
<path id="f" d="m10.688 12.406h10.312v-12.406h-10.312z"/>
</defs>
<g transform="translate(1110.5 587.44) scale(.1 -.1)">
<use xlink:href="#f"/>
</g>
</g>
<g clip-path="url(#a)">
<g transform="translate(246.4 31.412) scale(.1 -.1)">
<use xlink:href="#c"/>
<use x="63.623047" xlink:href="#f"/>
<use x="95.410156" xlink:href="#c"/>
</g>
</g>
<g clip-path="url(#a)">
<defs>
<path id="m" d="m19.188 8.2969h34.422v-8.2969h-46.281v8.2969q5.6094 5.8125 15.297 15.594 9.7031 9.7969 12.188 12.641 4.7344 5.3125 6.6094 9 1.8906 3.6875 1.8906 7.25 0 5.8125-4.0781 9.4688-4.0781 3.6719-10.625 3.6719-4.6406 0-9.7969-1.6094-5.1406-1.6094-11-4.8906v9.9688q5.9531 2.3906 11.125 3.6094 5.1875 1.2188 9.4844 1.2188 11.328 0 18.062-5.6719 6.7344-5.6562 6.7344-15.125 0-4.5-1.6875-8.5312-1.6719-4.0156-6.125-9.4844-1.2188-1.4219-7.7656-8.1875-6.5312-6.7656-18.453-18.922z"/>
</defs>
<g transform="translate(246.4 116.23) scale(.1 -.1)">
<use xlink:href="#c"/>
<use x="63.623047" xlink:href="#f"/>
<use x="95.410156" xlink:href="#m"/>
</g>
</g>
<g clip-path="url(#a)">
<defs>
<path id="w" d="m37.797 64.312-24.906-38.922h24.906zm-2.5938 8.5938h12.406v-47.516h10.406v-8.2031h-10.406v-17.188h-9.8125v17.188h-32.906v9.5156z"/>
</defs>
<g transform="translate(105.44 357.94) scale(.1 -.1)">
<use xlink:href="#c"/>
<use x="63.623047" xlink:href="#f"/>
<use x="95.410156" xlink:href="#w"/>
</g>
</g>
<g clip-path="url(#a)">
<defs>
<path id="v" d="m10.797 72.906h38.719v-8.3125h-29.688v-17.859q2.1406 0.73438 4.2812 1.0938 2.1562 0.35938 4.3125 0.35938 12.203 0 19.328-6.6875 7.1406-6.6875 7.1406-18.109 0-11.766-7.3281-18.297-7.3281-6.5156-20.656-6.5156-4.5938 0-9.3594 0.78125-4.75 0.78125-9.8281 2.3438v9.9219q4.3906-2.3906 9.0781-3.5625t9.9062-1.1719q8.4531 0 13.375 4.4375 4.9375 4.4375 4.9375 12.062 0 7.6094-4.9375 12.047-4.9219 4.4531-13.375 4.4531-3.9531 0-7.8906-0.875-3.9219-0.875-8.0156-2.7344z"/>
</defs>
<g transform="translate(189.67 511.29) scale(.1 -.1)">
<use xlink:href="#c"/>
<use x="63.623047" xlink:href="#f"/>
<use x="95.410156" xlink:href="#v"/>
</g>
</g>
<g clip-path="url(#a)">
<g transform="translate(237.8 511.29) scale(.1 -.1)">
<use xlink:href="#c"/>
<use x="63.623047" xlink:href="#f"/>
<use x="95.410156" xlink:href="#s"/>
</g>
</g>
<g clip-path="url(#a)">
<defs>
<path id="ac" d="m8.2031 72.906h46.875v-4.2031l-26.469-68.703h-10.297l24.906 64.594h-35.016z"/>
</defs>
<g transform="translate(452.7 198.76) scale(.1 -.1)">
<use xlink:href="#c"/>
<use x="63.623047" xlink:href="#f"/>
<use x="95.410156" xlink:href="#ac"/>
</g>
</g>
<g clip-path="url(#a)">
<g transform="translate(285.93 511.29) scale(.1 -.1)">
<use xlink:href="#c"/>
<use x="63.623047" xlink:href="#f"/>
<use x="95.410156" xlink:href="#u"/>
</g>
</g>
<g clip-path="url(#a)">
<defs>
<path id="ab" d="m10.984 1.5156v8.9844q3.7188-1.7656 7.5156-2.6875 3.8125-0.92188 7.4844-0.92188 9.7656 0 14.906 6.5625 5.1562 6.5625 5.8906 19.953-2.8281-4.2031-7.1875-6.4531-4.3438-2.25-9.6094-2.25-10.938 0-17.312 6.6094-6.375 6.625-6.375 18.109 0 11.219 6.6406 18 6.6406 6.7969 17.672 6.7969 12.656 0 19.312-9.7031 6.6719-9.6875 6.6719-28.141 0-17.234-8.1875-27.516-8.1719-10.281-21.984-10.281-3.7188 0-7.5312 0.73438-3.7969 0.73438-7.9062 2.2031zm19.625 30.906q6.6406 0 10.516 4.5312 3.8906 4.5469 3.8906 12.469 0 7.8594-3.8906 12.422-3.875 4.5625-10.516 4.5625t-10.516-4.5625-3.875-12.422q0-7.9219 3.875-12.469 3.875-4.5312 10.516-4.5312z"/>
</defs>
<g transform="translate(382.19 435.15) scale(.1 -.1)">
<use xlink:href="#c"/>
<use x="63.623047" xlink:href="#f"/>
<use x="95.410156" xlink:href="#ab"/>
</g>
</g>
<g clip-path="url(#a)">
<defs>
<path id="ad" d="m31.781 66.406q-7.6094 0-11.453-7.5-3.8281-7.4844-3.8281-22.531 0-14.984 3.8281-22.484 3.8438-7.5 11.453-7.5 7.6719 0 11.5 7.5 3.8438 7.5 3.8438 22.484 0 15.047-3.8438 22.531-3.8281 7.5-11.5 7.5zm0 7.8125q12.266 0 18.734-9.7031 6.4688-9.6875 6.4688-28.141 0-18.406-6.4688-28.109-6.4688-9.6875-18.734-9.6875-12.25 0-18.719 9.6875-6.4688 9.7031-6.4688 28.109 0 18.453 6.4688 28.141 6.4688 9.7031 18.719 9.7031z"/>
</defs>
<g transform="translate(661.03 279.25) scale(.1 -.1)">
<use xlink:href="#c"/>
<use x="63.623047" xlink:href="#f"/>
<use x="95.410156" xlink:href="#c"/>
<use x="159.033203" xlink:href="#ad"/>
</g>
</g>
<g clip-path="url(#a)">
<g transform="translate(523.4 511.29) scale(.1 -.1)">
<use xlink:href="#c"/>
<use x="63.623047" xlink:href="#f"/>
<use x="95.410156" xlink:href="#c"/>
<use x="159.033203" xlink:href="#m"/>
</g>
</g>
<g clip-path="url(#a)">
<defs>
<path id="o" d="m40.578 39.312q7.0781-1.5156 11.047-6.3125 3.9844-4.7812 3.9844-11.812 0-10.781-7.4219-16.703-7.4219-5.9062-21.094-5.9062-4.5781 0-9.4375 0.90625t-10.031 2.7188v9.5156q4.0938-2.3906 8.9688-3.6094 4.8906-1.2188 10.219-1.2188 9.2656 0 14.125 3.6562t4.8594 10.641q0 6.4531-4.5156 10.078-4.5156 3.6406-12.562 3.6406h-8.5v8.1094h8.8906q7.2656 0 11.125 2.9062t3.8594 8.375q0 5.6094-3.9844 8.6094-3.9688 3.0156-11.391 3.0156-4.0625 0-8.7031-0.89062-4.6406-0.875-10.203-2.7188v8.7812q5.625 1.5625 10.531 2.3438t9.25 0.78125q11.234 0 17.766-5.1094 6.5469-5.0938 6.5469-13.781 0-6.0625-3.4688-10.234t-9.8594-5.7812z"/>
</defs>
<g transform="translate(571.53 511.29) scale(.1 -.1)">
<use xlink:href="#c"/>
<use x="63.623047" xlink:href="#f"/>
<use x="95.410156" xlink:href="#c"/>
<use x="159.033203" xlink:href="#o"/>
</g>
</g>
<g clip-path="url(#a)">
<g transform="translate(667.8 435.15) scale(.1 -.1)">
<use xlink:href="#c"/>
<use x="63.623047" xlink:href="#f"/>
<use x="95.410156" xlink:href="#c"/>
<use x="159.033203" xlink:href="#w"/>
</g>
</g>
<g clip-path="url(#a)">
<g transform="translate(881.38 357.94) scale(.1 -.1)">
<use xlink:href="#c"/>
<use x="63.623047" xlink:href="#f"/>
<use x="95.410156" xlink:href="#c"/>
<use x="159.033203" xlink:href="#v"/>
</g>
</g>
<g clip-path="url(#a)">
<g transform="translate(764.06 511.29) scale(.1 -.1)">
<use xlink:href="#c"/>
<use x="63.623047" xlink:href="#f"/>
<use x="95.410156" xlink:href="#c"/>
<use x="159.033203" xlink:href="#s"/>
</g>
</g>
<g clip-path="url(#a)">
<g transform="translate(812.19 511.29) scale(.1 -.1)">
<use xlink:href="#c"/>
<use x="63.623047" xlink:href="#f"/>
<use x="95.410156" xlink:href="#c"/>
<use x="159.033203" xlink:href="#ac"/>
</g>
</g>
<g clip-path="url(#a)">
<g transform="translate(860.32 511.29) scale(.1 -.1)">
<use xlink:href="#c"/>
<use x="63.623047" xlink:href="#f"/>
<use x="95.410156" xlink:href="#c"/>
<use x="159.033203" xlink:href="#u"/>
</g>
</g>
<g clip-path="url(#a)">
<g transform="translate(908.45 511.29) scale(.1 -.1)">
<use xlink:href="#c"/>
<use x="63.623047" xlink:href="#f"/>
<use x="95.410156" xlink:href="#c"/>
<use x="159.033203" xlink:href="#ab"/>
</g>
</g>
<g clip-path="url(#a)">
<g transform="translate(980.65 435.15) scale(.1 -.1)">
<use xlink:href="#c"/>
<use x="63.623047" xlink:href="#f"/>
<use x="95.410156" xlink:href="#m"/>
<use x="159.033203" xlink:href="#ad"/>
</g>
</g>
<g clip-path="url(#a)">
<g transform="translate(1052.8 511.29) scale(.1 -.1)">
<use xlink:href="#c"/>
<use x="63.623047" xlink:href="#f"/>
<use x="95.410156" xlink:href="#m"/>
<use x="159.033203" xlink:href="#c"/>
</g>
</g>
<g clip-path="url(#a)">
<g transform="translate(956.58 511.29) scale(.1 -.1)">
<use xlink:href="#c"/>
<use x="63.623047" xlink:href="#f"/>
<use x="95.410156" xlink:href="#m"/>
<use x="159.033203" xlink:href="#m"/>
</g>
</g>
<g clip-path="url(#a)">
<g transform="translate(1004.7 511.29) scale(.1 -.1)">
<use xlink:href="#c"/>
<use x="63.623047" xlink:href="#f"/>
<use x="95.410156" xlink:href="#m"/>
<use x="159.033203" xlink:href="#o"/>
</g>
</g>
<g clip-path="url(#a)">
<g transform="translate(619.66 511.29) scale(.1 -.1)">
<use xlink:href="#c"/>
<use x="63.623047" xlink:href="#f"/>
<use x="95.410156" xlink:href="#m"/>
<use x="159.033203" xlink:href="#w"/>
</g>
</g>
<g clip-path="url(#a)">
<g transform="translate(667.8 511.29) scale(.1 -.1)">
<use xlink:href="#c"/>
<use x="63.623047" xlink:href="#f"/>
<use x="95.410156" xlink:href="#m"/>
<use x="159.033203" xlink:href="#v"/>
</g>
</g>
<g clip-path="url(#a)">
<g transform="translate(715.93 511.29) scale(.1 -.1)">
<use xlink:href="#c"/>
<use x="63.623047" xlink:href="#f"/>
<use x="95.410156" xlink:href="#m"/>
<use x="159.033203" xlink:href="#s"/>
</g>
</g>
<g clip-path="url(#a)">
<g transform="translate(330.88 511.29) scale(.1 -.1)">
<use xlink:href="#c"/>
<use x="63.623047" xlink:href="#f"/>
<use x="95.410156" xlink:href="#m"/>
<use x="159.033203" xlink:href="#ac"/>
</g>
</g>
<g clip-path="url(#a)">
<g transform="translate(379.01 511.29) scale(.1 -.1)">
<use xlink:href="#c"/>
<use x="63.623047" xlink:href="#f"/>
<use x="95.410156" xlink:href="#m"/>
<use x="159.033203" xlink:href="#u"/>
</g>
</g>
<g clip-path="url(#a)">
<g transform="translate(427.14 511.29) scale(.1 -.1)">
<use xlink:href="#c"/>
<use x="63.623047" xlink:href="#f"/>
<use x="95.410156" xlink:href="#m"/>
<use x="159.033203" xlink:href="#ab"/>
</g>
</g>
<g clip-path="url(#a)">
<g transform="translate(66.16 435.15) scale(.1 -.1)">
<use xlink:href="#c"/>
<use x="63.623047" xlink:href="#f"/>
<use x="95.410156" xlink:href="#o"/>
<use x="159.033203" xlink:href="#ad"/>
</g>
</g>
<g clip-path="url(#a)">
<g transform="translate(138.36 511.29) scale(.1 -.1)">
<use xlink:href="#c"/>
<use x="63.623047" xlink:href="#f"/>
<use x="95.410156" xlink:href="#o"/>
<use x="159.033203" xlink:href="#c"/>
</g>
</g>
<g clip-path="url(#a)">
<g transform="translate(42.094 511.29) scale(.1 -.1)">
<use xlink:href="#c"/>
<use x="63.623047" xlink:href="#f"/>
<use x="95.410156" xlink:href="#o"/>
<use x="159.033203" xlink:href="#m"/>
</g>
</g>
<g clip-path="url(#a)">
<g transform="translate(90.225 511.29) scale(.1 -.1)">
<use xlink:href="#c"/>
<use x="63.623047" xlink:href="#f"/>
<use x="95.410156" xlink:href="#o"/>
<use x="159.033203" xlink:href="#o"/>
</g>
</g>
<g clip-path="url(#a)">
<g transform="translate(475.27 511.29) scale(.1 -.1)">
<use xlink:href="#c"/>
<use x="63.623047" xlink:href="#f"/>
<use x="95.410156" xlink:href="#o"/>
<use x="159.033203" xlink:href="#w"/>
</g>
</g>
<g clip-path="url(#a)">
<g transform="translate(1101 511.29) scale(.1 -.1)">
<use xlink:href="#c"/>
<use x="63.623047" xlink:href="#f"/>
<use x="95.410156" xlink:href="#o"/>
<use x="159.033203" xlink:href="#v"/>
</g>
</g>
<defs>
<clipPath id="a">
<rect width="1165.3" height="613.33"/>
</clipPath>
</defs>
</svg>
