<?xml version="1.0" encoding="utf-8" standalone="no"?>
<!DOCTYPE svg PUBLIC "-//W3C//DTD SVG 1.1//EN"
  "http://www.w3.org/Graphics/SVG/1.1/DTD/svg11.dtd">
<!-- Created with matplotlib (https://matplotlib.org/) -->
<svg height="320pt" version="1.1" viewBox="0 0 608 320" width="608pt" xmlns="http://www.w3.org/2000/svg" xmlns:xlink="http://www.w3.org/1999/xlink">
 <defs>
  <style type="text/css">
*{stroke-linecap:butt;stroke-linejoin:round;}
  </style>
 </defs>
 <g id="figure_1">
  <g id="patch_1">
   <path d="M 0 320 
L 608 320 
L 608 0 
L 0 0 
z
" style="fill:#ffffff;"/>
  </g>
  <g id="axes_1">
   <g id="LineCollection_1">
    <path clip-path="url(#p6798e7b9f8)" d="M 377.141853 15.455742 
L 377.141853 66.090584 
" style="fill:none;stroke:#000000;"/>
    <path clip-path="url(#p6798e7b9f8)" d="M 377.141853 66.090584 
L 216.229776 115.468525 
" style="fill:none;stroke:#000000;"/>
    <path clip-path="url(#p6798e7b9f8)" d="M 377.141853 66.090584 
L 479.540447 257.828276 
" style="fill:none;stroke:#000000;"/>
    <path clip-path="url(#p6798e7b9f8)" d="M 377.141853 66.090584 
L 529.694861 257.828276 
" style="fill:none;stroke:#000000;"/>
    <path clip-path="url(#p6798e7b9f8)" d="M 377.141853 66.090584 
L 28.150725 257.828276 
" style="fill:none;stroke:#000000;"/>
    <path clip-path="url(#p6798e7b9f8)" d="M 377.141853 66.090584 
L 429.386034 257.828276 
" style="fill:none;stroke:#000000;"/>
    <path clip-path="url(#p6798e7b9f8)" d="M 377.141853 66.090584 
L 579.849275 257.828276 
" style="fill:none;stroke:#000000;"/>
    <path clip-path="url(#p6798e7b9f8)" d="M 216.229776 115.468525 
L 203.691173 163.746442 
" style="fill:none;stroke:#000000;"/>
    <path clip-path="url(#p6798e7b9f8)" d="M 216.229776 115.468525 
L 228.76838 257.828276 
" style="fill:none;stroke:#000000;"/>
    <path clip-path="url(#p6798e7b9f8)" d="M 479.540447 257.828276 
L 479.540447 304.544258 
" style="fill:none;stroke:#000000;"/>
    <path clip-path="url(#p6798e7b9f8)" d="M 529.694861 257.828276 
L 529.694861 304.544258 
" style="fill:none;stroke:#000000;"/>
    <path clip-path="url(#p6798e7b9f8)" d="M 203.691173 163.746442 
L 78.305139 257.828276 
" style="fill:none;stroke:#000000;"/>
    <path clip-path="url(#p6798e7b9f8)" d="M 203.691173 163.746442 
L 203.691173 257.828276 
" style="fill:none;stroke:#000000;"/>
    <path clip-path="url(#p6798e7b9f8)" d="M 203.691173 163.746442 
L 178.613966 257.828276 
" style="fill:none;stroke:#000000;"/>
    <path clip-path="url(#p6798e7b9f8)" d="M 203.691173 163.746442 
L 354.154414 211.112295 
" style="fill:none;stroke:#000000;"/>
    <path clip-path="url(#p6798e7b9f8)" d="M 228.76838 257.828276 
L 228.76838 304.544258 
" style="fill:none;stroke:#000000;"/>
    <path clip-path="url(#p6798e7b9f8)" d="M 78.305139 257.828276 
L 78.305139 304.544258 
" style="fill:none;stroke:#000000;"/>
    <path clip-path="url(#p6798e7b9f8)" d="M 203.691173 257.828276 
L 128.459553 304.544258 
" style="fill:none;stroke:#000000;"/>
    <path clip-path="url(#p6798e7b9f8)" d="M 203.691173 257.828276 
L 278.922793 304.544258 
" style="fill:none;stroke:#000000;"/>
    <path clip-path="url(#p6798e7b9f8)" d="M 178.613966 257.828276 
L 178.613966 304.544258 
" style="fill:none;stroke:#000000;"/>
    <path clip-path="url(#p6798e7b9f8)" d="M 354.154414 211.112295 
L 329.077207 257.828276 
" style="fill:none;stroke:#000000;"/>
    <path clip-path="url(#p6798e7b9f8)" d="M 354.154414 211.112295 
L 379.23162 257.828276 
" style="fill:none;stroke:#000000;"/>
    <path clip-path="url(#p6798e7b9f8)" d="M 329.077207 257.828276 
L 329.077207 304.544258 
" style="fill:none;stroke:#000000;"/>
    <path clip-path="url(#p6798e7b9f8)" d="M 379.23162 257.828276 
L 379.23162 304.544258 
" style="fill:none;stroke:#000000;"/>
    <path clip-path="url(#p6798e7b9f8)" d="M 28.150725 257.828276 
L 28.150725 304.544258 
" style="fill:none;stroke:#000000;"/>
    <path clip-path="url(#p6798e7b9f8)" d="M 429.386034 257.828276 
L 429.386034 304.544258 
" style="fill:none;stroke:#000000;"/>
    <path clip-path="url(#p6798e7b9f8)" d="M 579.849275 257.828276 
L 579.849275 304.544258 
" style="fill:none;stroke:#000000;"/>
   </g>
   <g id="text_1">
    <g id="patch_2">
     <path clip-path="url(#p6798e7b9f8)" d="M 370.870603 37.765038 
L 370.870603 43.781288 
Q 370.870603 46.181288 373.270603 46.181288 
L 381.013103 46.181288 
Q 383.413103 46.181288 383.413103 43.781288 
L 383.413103 37.765038 
Q 383.413103 35.365038 381.013103 35.365038 
L 373.270603 35.365038 
Q 370.870603 35.365038 370.870603 37.765038 
z
" style="fill:#ffffff;stroke:#ffffff;stroke-linejoin:miter;"/>
    </g>
    <g clip-path="url(#p6798e7b9f8)">
     <!-- H -->
     <defs>
      <path d="M 9.8125 72.90625 
L 19.671875 72.90625 
L 19.671875 43.015625 
L 55.515625 43.015625 
L 55.515625 72.90625 
L 65.375 72.90625 
L 65.375 0 
L 55.515625 0 
L 55.515625 34.71875 
L 19.671875 34.71875 
L 19.671875 0 
L 9.8125 0 
z
" id="DejaVuSans-72"/>
     </defs>
     <g transform="translate(374.934353 37.765038)rotate(-270)scale(0.08 -0.08)">
      <use xlink:href="#DejaVuSans-72"/>
     </g>
    </g>
   </g>
   <g id="text_2">
    <g id="patch_3">
     <path clip-path="url(#p6798e7b9f8)" d="M 295.909698 97.57759 
L 301.141417 95.972169 
Q 303.435821 95.268102 302.731753 92.973698 
L 300.460403 85.571856 
Q 299.756335 83.277452 297.461931 83.981519 
L 292.230213 85.586939 
Q 289.935809 86.291007 290.639876 88.585411 
L 292.911227 95.987253 
Q 293.615294 98.281657 295.909698 97.57759 
z
" style="fill:#ffffff;stroke:#ffffff;stroke-linejoin:miter;"/>
    </g>
    <g clip-path="url(#p6798e7b9f8)">
     <!-- A -->
     <defs>
      <path d="M 34.1875 63.1875 
L 20.796875 26.90625 
L 47.609375 26.90625 
z
M 28.609375 72.90625 
L 39.796875 72.90625 
L 67.578125 0 
L 57.328125 0 
L 50.6875 18.703125 
L 17.828125 18.703125 
L 11.1875 0 
L 0.78125 0 
z
" id="DejaVuSans-65"/>
     </defs>
     <g transform="translate(294.717551 93.692638)rotate(-17.059305)scale(0.08 -0.08)">
      <use xlink:href="#DejaVuSans-65"/>
     </g>
    </g>
   </g>
   <g id="text_3">
    <g id="patch_4">
     <path clip-path="url(#p6798e7b9f8)" d="M 421.673158 162.78623 
L 423.945551 167.041203 
Q 425.076153 169.158215 427.193164 168.027613 
L 434.022733 164.380244 
Q 436.139744 163.249642 435.009142 161.13263 
L 432.73675 156.877657 
Q 431.606148 154.760645 429.489136 155.891247 
L 422.659568 159.538616 
Q 420.542556 160.669218 421.673158 162.78623 
z
" style="fill:#ffffff;stroke:#ffffff;stroke-linejoin:miter;"/>
    </g>
    <g clip-path="url(#p6798e7b9f8)">
     <!-- P -->
     <defs>
      <path d="M 19.671875 64.796875 
L 19.671875 37.40625 
L 32.078125 37.40625 
Q 38.96875 37.40625 42.71875 40.96875 
Q 46.484375 44.53125 46.484375 51.125 
Q 46.484375 57.671875 42.71875 61.234375 
Q 38.96875 64.796875 32.078125 64.796875 
z
M 9.8125 72.90625 
L 32.078125 72.90625 
Q 44.34375 72.90625 50.609375 67.359375 
Q 56.890625 61.8125 56.890625 51.125 
Q 56.890625 40.328125 50.609375 34.8125 
Q 44.34375 29.296875 32.078125 29.296875 
L 19.671875 29.296875 
L 19.671875 0 
L 9.8125 0 
z
" id="DejaVuSans-80"/>
     </defs>
     <g transform="translate(425.257744 160.871862)rotate(-298.104697)scale(0.08 -0.08)">
      <use xlink:href="#DejaVuSans-80"/>
     </g>
    </g>
   </g>
   <g id="text_4">
    <g id="patch_5">
     <path clip-path="url(#p6798e7b9f8)" d="M 446.807284 163.722765 
L 450.214514 168.005175 
Q 451.708777 169.883253 453.586856 168.388991 
L 459.645615 163.568436 
Q 461.523693 162.074174 460.02943 160.196095 
L 456.6222 155.913685 
Q 455.127937 154.035607 453.249859 155.52987 
L 447.191099 160.350424 
Q 445.313021 161.844687 446.807284 163.722765 
z
" style="fill:#ffffff;stroke:#ffffff;stroke-linejoin:miter;"/>
    </g>
    <g clip-path="url(#p6798e7b9f8)">
     <!-- A -->
     <g transform="translate(449.987301 161.192636)rotate(-308.506947)scale(0.08 -0.08)">
      <use xlink:href="#DejaVuSans-65"/>
     </g>
    </g>
   </g>
   <g id="text_5">
    <g id="patch_6">
     <path clip-path="url(#p6798e7b9f8)" d="M 203.100248 168.865424 
L 208.23178 166.046132 
Q 210.335225 164.890487 209.17958 162.787041 
L 205.451421 156.001237 
Q 204.295776 153.897791 202.192331 155.053436 
L 197.060799 157.872728 
Q 194.957353 159.028373 196.112998 161.131819 
L 199.841157 167.917623 
Q 200.996802 170.021069 203.100248 168.865424 
z
" style="fill:#ffffff;stroke:#ffffff;stroke-linejoin:miter;"/>
    </g>
    <g clip-path="url(#p6798e7b9f8)">
     <!-- U -->
     <defs>
      <path d="M 8.6875 72.90625 
L 18.609375 72.90625 
L 18.609375 28.609375 
Q 18.609375 16.890625 22.84375 11.734375 
Q 27.09375 6.59375 36.625 6.59375 
Q 46.09375 6.59375 50.34375 11.734375 
Q 54.59375 16.890625 54.59375 28.609375 
L 54.59375 72.90625 
L 64.5 72.90625 
L 64.5 27.390625 
Q 64.5 13.140625 57.4375 5.859375 
Q 50.390625 -1.421875 36.625 -1.421875 
Q 22.796875 -1.421875 15.734375 5.859375 
Q 8.6875 13.140625 8.6875 27.390625 
z
" id="DejaVuSans-85"/>
     </defs>
     <g transform="translate(201.143476 165.303808)rotate(-28.784642)scale(0.08 -0.08)">
      <use xlink:href="#DejaVuSans-85"/>
     </g>
    </g>
   </g>
   <g id="text_6">
    <g id="patch_7">
     <path clip-path="url(#p6798e7b9f8)" d="M 396.443666 160.783572 
L 397.982904 166.432623 
Q 398.613847 168.748203 400.929427 168.11726 
L 408.399585 166.081811 
Q 410.715165 165.450868 410.084221 163.135288 
L 408.544983 157.486237 
Q 407.91404 155.170657 405.59846 155.8016 
L 398.128302 157.837049 
Q 395.812722 158.467992 396.443666 160.783572 
z
" style="fill:#ffffff;stroke:#ffffff;stroke-linejoin:miter;"/>
    </g>
    <g clip-path="url(#p6798e7b9f8)">
     <!-- U -->
     <g transform="translate(400.364473 159.715241)rotate(-285.24179)scale(0.08 -0.08)">
      <use xlink:href="#DejaVuSans-85"/>
     </g>
    </g>
   </g>
   <g id="text_7">
    <g id="patch_8">
     <path clip-path="url(#p6798e7b9f8)" d="M 472.059309 164.503728 
L 476.312913 168.527144 
Q 478.056491 170.176367 479.705714 168.432789 
L 485.026175 162.807933 
Q 486.675397 161.064354 484.931819 159.415132 
L 480.678215 155.391716 
Q 478.934636 153.742493 477.285414 155.486072 
L 471.964953 161.110927 
Q 470.315731 162.854506 472.059309 164.503728 
z
" style="fill:#ffffff;stroke:#ffffff;stroke-linejoin:miter;"/>
    </g>
    <g clip-path="url(#p6798e7b9f8)">
     <!-- U -->
     <g transform="translate(474.851821 161.551451)rotate(-316.593016)scale(0.08 -0.08)">
      <use xlink:href="#DejaVuSans-85"/>
     </g>
    </g>
   </g>
   <g id="text_8">
    <g id="patch_9">
     <path clip-path="url(#p6798e7b9f8)" d="M 215.274175 144.095466 
L 216.786524 138.272403 
Q 217.38983 135.949469 215.066896 135.346163 
L 207.573014 133.399873 
Q 205.25008 132.796567 204.646774 135.119501 
L 203.134425 140.942564 
Q 202.531119 143.265498 204.854053 143.868804 
L 212.347935 145.815094 
Q 214.670869 146.4184 215.274175 144.095466 
z
" style="fill:#ffffff;stroke:#ffffff;stroke-linejoin:miter;"/>
    </g>
    <g clip-path="url(#p6798e7b9f8)">
     <!-- H -->
     <g transform="translate(211.340915 143.073931)rotate(-75.440965)scale(0.08 -0.08)">
      <use xlink:href="#DejaVuSans-72"/>
     </g>
    </g>
   </g>
   <g id="text_9">
    <g id="patch_10">
     <path clip-path="url(#p6798e7b9f8)" d="M 216.056468 184.978467 
L 216.447556 189.418778 
Q 216.658126 191.809523 219.048871 191.598953 
L 226.761513 190.919648 
Q 229.152258 190.709078 228.941688 188.318334 
L 228.5506 183.878023 
Q 228.34003 181.487278 225.949285 181.697848 
L 218.236643 182.377153 
Q 215.845898 182.587723 216.056468 184.978467 
z
" style="fill:#ffffff;stroke:#ffffff;stroke-linejoin:miter;"/>
    </g>
    <g clip-path="url(#p6798e7b9f8)">
     <!-- L -->
     <defs>
      <path d="M 9.8125 72.90625 
L 19.671875 72.90625 
L 19.671875 8.296875 
L 55.171875 8.296875 
L 55.171875 0 
L 9.8125 0 
z
" id="DejaVuSans-76"/>
     </defs>
     <g transform="translate(220.104547 184.621925)rotate(-275.033445)scale(0.08 -0.08)">
      <use xlink:href="#DejaVuSans-76"/>
     </g>
    </g>
   </g>
   <g id="text_10">
    <g id="patch_11">
     <path clip-path="url(#p6798e7b9f8)" d="M 473.269197 263.543767 
L 473.269197 298.828767 
Q 473.269197 301.228767 475.669197 301.228767 
L 483.411697 301.228767 
Q 485.811697 301.228767 485.811697 298.828767 
L 485.811697 263.543767 
Q 485.811697 261.143767 483.411697 261.143767 
L 475.669197 261.143767 
Q 473.269197 261.143767 473.269197 263.543767 
z
" style="fill:#ffffff;stroke:#ffffff;stroke-linejoin:miter;"/>
    </g>
    <g clip-path="url(#p6798e7b9f8)">
     <!-- Terminal -->
     <defs>
      <path d="M -0.296875 72.90625 
L 61.375 72.90625 
L 61.375 64.59375 
L 35.5 64.59375 
L 35.5 0 
L 25.59375 0 
L 25.59375 64.59375 
L -0.296875 64.59375 
z
" id="DejaVuSans-84"/>
      <path d="M 56.203125 29.59375 
L 56.203125 25.203125 
L 14.890625 25.203125 
Q 15.484375 15.921875 20.484375 11.0625 
Q 25.484375 6.203125 34.421875 6.203125 
Q 39.59375 6.203125 44.453125 7.46875 
Q 49.3125 8.734375 54.109375 11.28125 
L 54.109375 2.78125 
Q 49.265625 0.734375 44.1875 -0.34375 
Q 39.109375 -1.421875 33.890625 -1.421875 
Q 20.796875 -1.421875 13.15625 6.1875 
Q 5.515625 13.8125 5.515625 26.8125 
Q 5.515625 40.234375 12.765625 48.109375 
Q 20.015625 56 32.328125 56 
Q 43.359375 56 49.78125 48.890625 
Q 56.203125 41.796875 56.203125 29.59375 
z
M 47.21875 32.234375 
Q 47.125 39.59375 43.09375 43.984375 
Q 39.0625 48.390625 32.421875 48.390625 
Q 24.90625 48.390625 20.390625 44.140625 
Q 15.875 39.890625 15.1875 32.171875 
z
" id="DejaVuSans-101"/>
      <path d="M 41.109375 46.296875 
Q 39.59375 47.171875 37.8125 47.578125 
Q 36.03125 48 33.890625 48 
Q 26.265625 48 22.1875 43.046875 
Q 18.109375 38.09375 18.109375 28.8125 
L 18.109375 0 
L 9.078125 0 
L 9.078125 54.6875 
L 18.109375 54.6875 
L 18.109375 46.1875 
Q 20.953125 51.171875 25.484375 53.578125 
Q 30.03125 56 36.53125 56 
Q 37.453125 56 38.578125 55.875 
Q 39.703125 55.765625 41.0625 55.515625 
z
" id="DejaVuSans-114"/>
      <path d="M 52 44.1875 
Q 55.375 50.25 60.0625 53.125 
Q 64.75 56 71.09375 56 
Q 79.640625 56 84.28125 50.015625 
Q 88.921875 44.046875 88.921875 33.015625 
L 88.921875 0 
L 79.890625 0 
L 79.890625 32.71875 
Q 79.890625 40.578125 77.09375 44.375 
Q 74.3125 48.1875 68.609375 48.1875 
Q 61.625 48.1875 57.5625 43.546875 
Q 53.515625 38.921875 53.515625 30.90625 
L 53.515625 0 
L 44.484375 0 
L 44.484375 32.71875 
Q 44.484375 40.625 41.703125 44.40625 
Q 38.921875 48.1875 33.109375 48.1875 
Q 26.21875 48.1875 22.15625 43.53125 
Q 18.109375 38.875 18.109375 30.90625 
L 18.109375 0 
L 9.078125 0 
L 9.078125 54.6875 
L 18.109375 54.6875 
L 18.109375 46.1875 
Q 21.1875 51.21875 25.484375 53.609375 
Q 29.78125 56 35.6875 56 
Q 41.65625 56 45.828125 52.96875 
Q 50 49.953125 52 44.1875 
z
" id="DejaVuSans-109"/>
      <path d="M 9.421875 54.6875 
L 18.40625 54.6875 
L 18.40625 0 
L 9.421875 0 
z
M 9.421875 75.984375 
L 18.40625 75.984375 
L 18.40625 64.59375 
L 9.421875 64.59375 
z
" id="DejaVuSans-105"/>
      <path d="M 54.890625 33.015625 
L 54.890625 0 
L 45.90625 0 
L 45.90625 32.71875 
Q 45.90625 40.484375 42.875 44.328125 
Q 39.84375 48.1875 33.796875 48.1875 
Q 26.515625 48.1875 22.3125 43.546875 
Q 18.109375 38.921875 18.109375 30.90625 
L 18.109375 0 
L 9.078125 0 
L 9.078125 54.6875 
L 18.109375 54.6875 
L 18.109375 46.1875 
Q 21.34375 51.125 25.703125 53.5625 
Q 30.078125 56 35.796875 56 
Q 45.21875 56 50.046875 50.171875 
Q 54.890625 44.34375 54.890625 33.015625 
z
" id="DejaVuSans-110"/>
      <path d="M 34.28125 27.484375 
Q 23.390625 27.484375 19.1875 25 
Q 14.984375 22.515625 14.984375 16.5 
Q 14.984375 11.71875 18.140625 8.90625 
Q 21.296875 6.109375 26.703125 6.109375 
Q 34.1875 6.109375 38.703125 11.40625 
Q 43.21875 16.703125 43.21875 25.484375 
L 43.21875 27.484375 
z
M 52.203125 31.203125 
L 52.203125 0 
L 43.21875 0 
L 43.21875 8.296875 
Q 40.140625 3.328125 35.546875 0.953125 
Q 30.953125 -1.421875 24.3125 -1.421875 
Q 15.921875 -1.421875 10.953125 3.296875 
Q 6 8.015625 6 15.921875 
Q 6 25.140625 12.171875 29.828125 
Q 18.359375 34.515625 30.609375 34.515625 
L 43.21875 34.515625 
L 43.21875 35.40625 
Q 43.21875 41.609375 39.140625 45 
Q 35.0625 48.390625 27.6875 48.390625 
Q 23 48.390625 18.546875 47.265625 
Q 14.109375 46.140625 10.015625 43.890625 
L 10.015625 52.203125 
Q 14.9375 54.109375 19.578125 55.046875 
Q 24.21875 56 28.609375 56 
Q 40.484375 56 46.34375 49.84375 
Q 52.203125 43.703125 52.203125 31.203125 
z
" id="DejaVuSans-97"/>
      <path d="M 9.421875 75.984375 
L 18.40625 75.984375 
L 18.40625 0 
L 9.421875 0 
z
" id="DejaVuSans-108"/>
     </defs>
     <g transform="translate(477.332947 263.543767)rotate(-270)scale(0.08 -0.08)">
      <use xlink:href="#DejaVuSans-84"/>
      <use x="60.818359" xlink:href="#DejaVuSans-101"/>
      <use x="122.341797" xlink:href="#DejaVuSans-114"/>
      <use x="163.439453" xlink:href="#DejaVuSans-109"/>
      <use x="260.851562" xlink:href="#DejaVuSans-105"/>
      <use x="288.634766" xlink:href="#DejaVuSans-110"/>
      <use x="352.013672" xlink:href="#DejaVuSans-97"/>
      <use x="413.292969" xlink:href="#DejaVuSans-108"/>
     </g>
    </g>
   </g>
   <g id="text_11">
    <g id="patch_12">
     <path clip-path="url(#p6798e7b9f8)" d="M 523.423611 263.543767 
L 523.423611 298.828767 
Q 523.423611 301.228767 525.823611 301.228767 
L 533.566111 301.228767 
Q 535.966111 301.228767 535.966111 298.828767 
L 535.966111 263.543767 
Q 535.966111 261.143767 533.566111 261.143767 
L 525.823611 261.143767 
Q 523.423611 261.143767 523.423611 263.543767 
z
" style="fill:#ffffff;stroke:#ffffff;stroke-linejoin:miter;"/>
    </g>
    <g clip-path="url(#p6798e7b9f8)">
     <!-- Terminal -->
     <g transform="translate(527.487361 263.543767)rotate(-270)scale(0.08 -0.08)">
      <use xlink:href="#DejaVuSans-84"/>
      <use x="60.818359" xlink:href="#DejaVuSans-101"/>
      <use x="122.341797" xlink:href="#DejaVuSans-114"/>
      <use x="163.439453" xlink:href="#DejaVuSans-109"/>
      <use x="260.851562" xlink:href="#DejaVuSans-105"/>
      <use x="288.634766" xlink:href="#DejaVuSans-110"/>
      <use x="352.013672" xlink:href="#DejaVuSans-97"/>
      <use x="413.292969" xlink:href="#DejaVuSans-108"/>
     </g>
    </g>
   </g>
   <g id="text_12">
    <g id="patch_13">
     <path clip-path="url(#p6798e7b9f8)" d="M 142.573344 217.445769 
L 146.950635 214.161324 
Q 148.870324 212.72091 147.429909 210.801221 
L 142.783072 204.608224 
Q 141.342657 202.688535 139.422968 204.128949 
L 135.045677 207.413394 
Q 133.125988 208.853809 134.566403 210.773498 
L 139.21324 216.966495 
Q 140.653655 218.886184 142.573344 217.445769 
z
" style="fill:#ffffff;stroke:#ffffff;stroke-linejoin:miter;"/>
    </g>
    <g clip-path="url(#p6798e7b9f8)">
     <!-- A -->
     <g transform="translate(140.134392 214.195296)rotate(-36.882269)scale(0.08 -0.08)">
      <use xlink:href="#DejaVuSans-65"/>
     </g>
    </g>
   </g>
   <g id="text_13">
    <g id="patch_14">
     <path clip-path="url(#p6798e7b9f8)" d="M 197.419923 207.707359 
L 197.419923 213.867359 
Q 197.419923 216.267359 199.819923 216.267359 
L 207.562423 216.267359 
Q 209.962423 216.267359 209.962423 213.867359 
L 209.962423 207.707359 
Q 209.962423 205.307359 207.562423 205.307359 
L 199.819923 205.307359 
Q 197.419923 205.307359 197.419923 207.707359 
z
" style="fill:#ffffff;stroke:#ffffff;stroke-linejoin:miter;"/>
    </g>
    <g clip-path="url(#p6798e7b9f8)">
     <!-- D -->
     <defs>
      <path d="M 19.671875 64.796875 
L 19.671875 8.109375 
L 31.59375 8.109375 
Q 46.6875 8.109375 53.6875 14.9375 
Q 60.6875 21.78125 60.6875 36.53125 
Q 60.6875 51.171875 53.6875 57.984375 
Q 46.6875 64.796875 31.59375 64.796875 
z
M 9.8125 72.90625 
L 30.078125 72.90625 
Q 51.265625 72.90625 61.171875 64.09375 
Q 71.09375 55.28125 71.09375 36.53125 
Q 71.09375 17.671875 61.125 8.828125 
Q 51.171875 0 30.078125 0 
L 9.8125 0 
z
" id="DejaVuSans-68"/>
     </defs>
     <g transform="translate(201.483673 207.707359)rotate(-270)scale(0.08 -0.08)">
      <use xlink:href="#DejaVuSans-68"/>
     </g>
    </g>
   </g>
   <g id="text_14">
    <g id="patch_15">
     <path clip-path="url(#p6798e7b9f8)" d="M 196.591062 214.733055 
L 197.83344 210.07204 
Q 198.451571 207.753007 196.132538 207.134876 
L 188.651241 205.140761 
Q 186.332208 204.52263 185.714077 206.841663 
L 184.471699 211.502678 
Q 183.853568 213.821711 186.172601 214.439842 
L 193.653898 216.433958 
Q 195.972931 217.052088 196.591062 214.733055 
z
" style="fill:#ffffff;stroke:#ffffff;stroke-linejoin:miter;"/>
    </g>
    <g clip-path="url(#p6798e7b9f8)">
     <!-- P -->
     <g transform="translate(192.664408 213.686418)rotate(-75.074998)scale(0.08 -0.08)">
      <use xlink:href="#DejaVuSans-80"/>
     </g>
    </g>
   </g>
   <g id="text_15">
    <g id="patch_16">
     <path clip-path="url(#p6798e7b9f8)" d="M 274.429724 192.589598 
L 279.649686 194.232843 
Q 281.938934 194.953499 282.65959 192.664251 
L 284.984454 185.279042 
Q 285.70511 182.989794 283.415862 182.269139 
L 278.1959 180.625894 
Q 275.906652 179.905238 275.185997 182.194486 
L 272.861132 189.579695 
Q 272.140476 191.868943 274.429724 192.589598 
z
" style="fill:#ffffff;stroke:#ffffff;stroke-linejoin:miter;"/>
    </g>
    <g clip-path="url(#p6798e7b9f8)">
     <!-- A -->
     <g transform="translate(275.649959 188.713377)rotate(-342.52599)scale(0.08 -0.08)">
      <use xlink:href="#DejaVuSans-65"/>
     </g>
    </g>
   </g>
   <g id="text_16">
    <g id="patch_17">
     <path clip-path="url(#p6798e7b9f8)" d="M 222.49713 263.543767 
L 222.49713 298.828767 
Q 222.49713 301.228767 224.89713 301.228767 
L 232.63963 301.228767 
Q 235.03963 301.228767 235.03963 298.828767 
L 235.03963 263.543767 
Q 235.03963 261.143767 232.63963 261.143767 
L 224.89713 261.143767 
Q 222.49713 261.143767 222.49713 263.543767 
z
" style="fill:#ffffff;stroke:#ffffff;stroke-linejoin:miter;"/>
    </g>
    <g clip-path="url(#p6798e7b9f8)">
     <!-- Terminal -->
     <g transform="translate(226.56088 263.543767)rotate(-270)scale(0.08 -0.08)">
      <use xlink:href="#DejaVuSans-84"/>
      <use x="60.818359" xlink:href="#DejaVuSans-101"/>
      <use x="122.341797" xlink:href="#DejaVuSans-114"/>
      <use x="163.439453" xlink:href="#DejaVuSans-109"/>
      <use x="260.851562" xlink:href="#DejaVuSans-105"/>
      <use x="288.634766" xlink:href="#DejaVuSans-110"/>
      <use x="352.013672" xlink:href="#DejaVuSans-97"/>
      <use x="413.292969" xlink:href="#DejaVuSans-108"/>
     </g>
    </g>
   </g>
   <g id="text_17">
    <g id="patch_18">
     <path clip-path="url(#p6798e7b9f8)" d="M 72.033889 263.543767 
L 72.033889 298.828767 
Q 72.033889 301.228767 74.433889 301.228767 
L 82.176389 301.228767 
Q 84.576389 301.228767 84.576389 298.828767 
L 84.576389 263.543767 
Q 84.576389 261.143767 82.176389 261.143767 
L 74.433889 261.143767 
Q 72.033889 261.143767 72.033889 263.543767 
z
" style="fill:#ffffff;stroke:#ffffff;stroke-linejoin:miter;"/>
    </g>
    <g clip-path="url(#p6798e7b9f8)">
     <!-- Terminal -->
     <g transform="translate(76.097639 263.543767)rotate(-270)scale(0.08 -0.08)">
      <use xlink:href="#DejaVuSans-84"/>
      <use x="60.818359" xlink:href="#DejaVuSans-101"/>
      <use x="122.341797" xlink:href="#DejaVuSans-114"/>
      <use x="163.439453" xlink:href="#DejaVuSans-109"/>
      <use x="260.851562" xlink:href="#DejaVuSans-105"/>
      <use x="288.634766" xlink:href="#DejaVuSans-110"/>
      <use x="352.013672" xlink:href="#DejaVuSans-97"/>
      <use x="413.292969" xlink:href="#DejaVuSans-108"/>
     </g>
    </g>
   </g>
   <g id="text_18">
    <g id="patch_19">
     <path clip-path="url(#p6798e7b9f8)" d="M 154.395688 295.820869 
L 184.371582 277.206976 
Q 186.410469 275.940904 185.144397 273.902017 
L 181.059997 267.324481 
Q 179.793925 265.285593 177.755038 266.551665 
L 147.779144 285.165558 
Q 145.740256 286.43163 147.006328 288.470517 
L 151.090728 295.048053 
Q 152.3568 297.086941 154.395688 295.820869 
z
" style="fill:#ffffff;stroke:#ffffff;stroke-linejoin:miter;"/>
    </g>
    <g clip-path="url(#p6798e7b9f8)">
     <!-- Terminal -->
     <g transform="translate(152.251938 292.368565)rotate(-31.838712)scale(0.08 -0.08)">
      <use xlink:href="#DejaVuSans-84"/>
      <use x="60.818359" xlink:href="#DejaVuSans-101"/>
      <use x="122.341797" xlink:href="#DejaVuSans-114"/>
      <use x="163.439453" xlink:href="#DejaVuSans-109"/>
      <use x="260.851562" xlink:href="#DejaVuSans-105"/>
      <use x="288.634766" xlink:href="#DejaVuSans-110"/>
      <use x="352.013672" xlink:href="#DejaVuSans-97"/>
      <use x="413.292969" xlink:href="#DejaVuSans-108"/>
     </g>
    </g>
   </g>
   <g id="text_19">
    <g id="patch_20">
     <path clip-path="url(#p6798e7b9f8)" d="M 223.010764 277.206976 
L 252.986658 295.820869 
Q 255.025546 297.086941 256.291617 295.048053 
L 260.376018 288.470517 
Q 261.642089 286.43163 259.603202 285.165558 
L 229.627308 266.551665 
Q 227.58842 265.285593 226.322349 267.324481 
L 222.237948 273.902017 
Q 220.971877 275.940904 223.010764 277.206976 
z
" style="fill:#ffffff;stroke:#ffffff;stroke-linejoin:miter;"/>
    </g>
    <g clip-path="url(#p6798e7b9f8)">
     <!-- Terminal -->
     <g transform="translate(225.154514 273.754672)rotate(-328.161288)scale(0.08 -0.08)">
      <use xlink:href="#DejaVuSans-84"/>
      <use x="60.818359" xlink:href="#DejaVuSans-101"/>
      <use x="122.341797" xlink:href="#DejaVuSans-114"/>
      <use x="163.439453" xlink:href="#DejaVuSans-109"/>
      <use x="260.851562" xlink:href="#DejaVuSans-105"/>
      <use x="288.634766" xlink:href="#DejaVuSans-110"/>
      <use x="352.013672" xlink:href="#DejaVuSans-97"/>
      <use x="413.292969" xlink:href="#DejaVuSans-108"/>
     </g>
    </g>
   </g>
   <g id="text_20">
    <g id="patch_21">
     <path clip-path="url(#p6798e7b9f8)" d="M 172.342716 263.543767 
L 172.342716 298.828767 
Q 172.342716 301.228767 174.742716 301.228767 
L 182.485216 301.228767 
Q 184.885216 301.228767 184.885216 298.828767 
L 184.885216 263.543767 
Q 184.885216 261.143767 182.485216 261.143767 
L 174.742716 261.143767 
Q 172.342716 261.143767 172.342716 263.543767 
z
" style="fill:#ffffff;stroke:#ffffff;stroke-linejoin:miter;"/>
    </g>
    <g clip-path="url(#p6798e7b9f8)">
     <!-- Terminal -->
     <g transform="translate(176.406466 263.543767)rotate(-270)scale(0.08 -0.08)">
      <use xlink:href="#DejaVuSans-84"/>
      <use x="60.818359" xlink:href="#DejaVuSans-101"/>
      <use x="122.341797" xlink:href="#DejaVuSans-114"/>
      <use x="163.439453" xlink:href="#DejaVuSans-109"/>
      <use x="260.851562" xlink:href="#DejaVuSans-105"/>
      <use x="288.634766" xlink:href="#DejaVuSans-110"/>
      <use x="352.013672" xlink:href="#DejaVuSans-97"/>
      <use x="413.292969" xlink:href="#DejaVuSans-108"/>
     </g>
    </g>
   </g>
   <g id="text_21">
    <g id="patch_22">
     <path clip-path="url(#p6798e7b9f8)" d="M 345.82674 239.885225 
L 348.455838 234.987516 
Q 349.590955 232.872922 347.476361 231.737805 
L 340.654591 228.075869 
Q 338.539997 226.940752 337.40488 229.055346 
L 334.775783 233.953055 
Q 333.640666 236.067649 335.75526 237.202766 
L 342.577029 240.864702 
Q 344.691623 241.999819 345.82674 239.885225 
z
" style="fill:#ffffff;stroke:#ffffff;stroke-linejoin:miter;"/>
    </g>
    <g clip-path="url(#p6798e7b9f8)">
     <!-- R -->
     <defs>
      <path d="M 44.390625 34.1875 
Q 47.5625 33.109375 50.5625 29.59375 
Q 53.5625 26.078125 56.59375 19.921875 
L 66.609375 0 
L 56 0 
L 46.6875 18.703125 
Q 43.0625 26.03125 39.671875 28.421875 
Q 36.28125 30.8125 30.421875 30.8125 
L 19.671875 30.8125 
L 19.671875 0 
L 9.8125 0 
L 9.8125 72.90625 
L 32.078125 72.90625 
Q 44.578125 72.90625 50.734375 67.671875 
Q 56.890625 62.453125 56.890625 51.90625 
Q 56.890625 45.015625 53.6875 40.46875 
Q 50.484375 35.9375 44.390625 34.1875 
z
M 19.671875 64.796875 
L 19.671875 38.921875 
L 32.078125 38.921875 
Q 39.203125 38.921875 42.84375 42.21875 
Q 46.484375 45.515625 46.484375 51.90625 
Q 46.484375 58.296875 42.84375 61.546875 
Q 39.203125 64.796875 32.078125 64.796875 
z
" id="DejaVuSans-82"/>
     </defs>
     <g transform="translate(342.246248 237.963211)rotate(-61.773032)scale(0.08 -0.08)">
      <use xlink:href="#DejaVuSans-82"/>
     </g>
    </g>
   </g>
   <g id="text_22">
    <g id="patch_23">
     <path clip-path="url(#p6798e7b9f8)" d="M 359.846486 234.975401 
L 362.48859 239.89734 
Q 363.623707 242.011934 365.738301 240.876817 
L 372.560071 237.214881 
Q 374.674665 236.079764 373.539548 233.96517 
L 370.897444 229.043231 
Q 369.762327 226.928637 367.647732 228.063754 
L 360.825963 231.72569 
Q 358.711369 232.860807 359.846486 234.975401 
z
" style="fill:#ffffff;stroke:#ffffff;stroke-linejoin:miter;"/>
    </g>
    <g clip-path="url(#p6798e7b9f8)">
     <!-- C -->
     <defs>
      <path d="M 64.40625 67.28125 
L 64.40625 56.890625 
Q 59.421875 61.53125 53.78125 63.8125 
Q 48.140625 66.109375 41.796875 66.109375 
Q 29.296875 66.109375 22.65625 58.46875 
Q 16.015625 50.828125 16.015625 36.375 
Q 16.015625 21.96875 22.65625 14.328125 
Q 29.296875 6.6875 41.796875 6.6875 
Q 48.140625 6.6875 53.78125 8.984375 
Q 59.421875 11.28125 64.40625 15.921875 
L 64.40625 5.609375 
Q 59.234375 2.09375 53.4375 0.328125 
Q 47.65625 -1.421875 41.21875 -1.421875 
Q 24.65625 -1.421875 15.125 8.703125 
Q 5.609375 18.84375 5.609375 36.375 
Q 5.609375 53.953125 15.125 64.078125 
Q 24.65625 74.21875 41.21875 74.21875 
Q 47.75 74.21875 53.53125 72.484375 
Q 59.328125 70.75 64.40625 67.28125 
z
" id="DejaVuSans-67"/>
     </defs>
     <g transform="translate(363.426979 233.053388)rotate(-298.226968)scale(0.08 -0.08)">
      <use xlink:href="#DejaVuSans-67"/>
     </g>
    </g>
   </g>
   <g id="text_23">
    <g id="patch_24">
     <path clip-path="url(#p6798e7b9f8)" d="M 322.805957 263.543767 
L 322.805957 298.828767 
Q 322.805957 301.228767 325.205957 301.228767 
L 332.948457 301.228767 
Q 335.348457 301.228767 335.348457 298.828767 
L 335.348457 263.543767 
Q 335.348457 261.143767 332.948457 261.143767 
L 325.205957 261.143767 
Q 322.805957 261.143767 322.805957 263.543767 
z
" style="fill:#ffffff;stroke:#ffffff;stroke-linejoin:miter;"/>
    </g>
    <g clip-path="url(#p6798e7b9f8)">
     <!-- Terminal -->
     <g transform="translate(326.869707 263.543767)rotate(-270)scale(0.08 -0.08)">
      <use xlink:href="#DejaVuSans-84"/>
      <use x="60.818359" xlink:href="#DejaVuSans-101"/>
      <use x="122.341797" xlink:href="#DejaVuSans-114"/>
      <use x="163.439453" xlink:href="#DejaVuSans-109"/>
      <use x="260.851562" xlink:href="#DejaVuSans-105"/>
      <use x="288.634766" xlink:href="#DejaVuSans-110"/>
      <use x="352.013672" xlink:href="#DejaVuSans-97"/>
      <use x="413.292969" xlink:href="#DejaVuSans-108"/>
     </g>
    </g>
   </g>
   <g id="text_24">
    <g id="patch_25">
     <path clip-path="url(#p6798e7b9f8)" d="M 372.96037 263.543767 
L 372.96037 298.828767 
Q 372.96037 301.228767 375.36037 301.228767 
L 383.10287 301.228767 
Q 385.50287 301.228767 385.50287 298.828767 
L 385.50287 263.543767 
Q 385.50287 261.143767 383.10287 261.143767 
L 375.36037 261.143767 
Q 372.96037 261.143767 372.96037 263.543767 
z
" style="fill:#ffffff;stroke:#ffffff;stroke-linejoin:miter;"/>
    </g>
    <g clip-path="url(#p6798e7b9f8)">
     <!-- Terminal -->
     <g transform="translate(377.02412 263.543767)rotate(-270)scale(0.08 -0.08)">
      <use xlink:href="#DejaVuSans-84"/>
      <use x="60.818359" xlink:href="#DejaVuSans-101"/>
      <use x="122.341797" xlink:href="#DejaVuSans-114"/>
      <use x="163.439453" xlink:href="#DejaVuSans-109"/>
      <use x="260.851562" xlink:href="#DejaVuSans-105"/>
      <use x="288.634766" xlink:href="#DejaVuSans-110"/>
      <use x="352.013672" xlink:href="#DejaVuSans-97"/>
      <use x="413.292969" xlink:href="#DejaVuSans-108"/>
     </g>
    </g>
   </g>
   <g id="text_25">
    <g id="patch_26">
     <path clip-path="url(#p6798e7b9f8)" d="M 21.879475 263.543767 
L 21.879475 298.828767 
Q 21.879475 301.228767 24.279475 301.228767 
L 32.021975 301.228767 
Q 34.421975 301.228767 34.421975 298.828767 
L 34.421975 263.543767 
Q 34.421975 261.143767 32.021975 261.143767 
L 24.279475 261.143767 
Q 21.879475 261.143767 21.879475 263.543767 
z
" style="fill:#ffffff;stroke:#ffffff;stroke-linejoin:miter;"/>
    </g>
    <g clip-path="url(#p6798e7b9f8)">
     <!-- Terminal -->
     <g transform="translate(25.943225 263.543767)rotate(-270)scale(0.08 -0.08)">
      <use xlink:href="#DejaVuSans-84"/>
      <use x="60.818359" xlink:href="#DejaVuSans-101"/>
      <use x="122.341797" xlink:href="#DejaVuSans-114"/>
      <use x="163.439453" xlink:href="#DejaVuSans-109"/>
      <use x="260.851562" xlink:href="#DejaVuSans-105"/>
      <use x="288.634766" xlink:href="#DejaVuSans-110"/>
      <use x="352.013672" xlink:href="#DejaVuSans-97"/>
      <use x="413.292969" xlink:href="#DejaVuSans-108"/>
     </g>
    </g>
   </g>
   <g id="text_26">
    <g id="patch_27">
     <path clip-path="url(#p6798e7b9f8)" d="M 423.114784 263.543767 
L 423.114784 298.828767 
Q 423.114784 301.228767 425.514784 301.228767 
L 433.257284 301.228767 
Q 435.657284 301.228767 435.657284 298.828767 
L 435.657284 263.543767 
Q 435.657284 261.143767 433.257284 261.143767 
L 425.514784 261.143767 
Q 423.114784 261.143767 423.114784 263.543767 
z
" style="fill:#ffffff;stroke:#ffffff;stroke-linejoin:miter;"/>
    </g>
    <g clip-path="url(#p6798e7b9f8)">
     <!-- Terminal -->
     <g transform="translate(427.178534 263.543767)rotate(-270)scale(0.08 -0.08)">
      <use xlink:href="#DejaVuSans-84"/>
      <use x="60.818359" xlink:href="#DejaVuSans-101"/>
      <use x="122.341797" xlink:href="#DejaVuSans-114"/>
      <use x="163.439453" xlink:href="#DejaVuSans-109"/>
      <use x="260.851562" xlink:href="#DejaVuSans-105"/>
      <use x="288.634766" xlink:href="#DejaVuSans-110"/>
      <use x="352.013672" xlink:href="#DejaVuSans-97"/>
      <use x="413.292969" xlink:href="#DejaVuSans-108"/>
     </g>
    </g>
   </g>
   <g id="text_27">
    <g id="patch_28">
     <path clip-path="url(#p6798e7b9f8)" d="M 573.578025 263.543767 
L 573.578025 298.828767 
Q 573.578025 301.228767 575.978025 301.228767 
L 583.720525 301.228767 
Q 586.120525 301.228767 586.120525 298.828767 
L 586.120525 263.543767 
Q 586.120525 261.143767 583.720525 261.143767 
L 575.978025 261.143767 
Q 573.578025 261.143767 573.578025 263.543767 
z
" style="fill:#ffffff;stroke:#ffffff;stroke-linejoin:miter;"/>
    </g>
    <g clip-path="url(#p6798e7b9f8)">
     <!-- Terminal -->
     <g transform="translate(577.641775 263.543767)rotate(-270)scale(0.08 -0.08)">
      <use xlink:href="#DejaVuSans-84"/>
      <use x="60.818359" xlink:href="#DejaVuSans-101"/>
      <use x="122.341797" xlink:href="#DejaVuSans-114"/>
      <use x="163.439453" xlink:href="#DejaVuSans-109"/>
      <use x="260.851562" xlink:href="#DejaVuSans-105"/>
      <use x="288.634766" xlink:href="#DejaVuSans-110"/>
      <use x="352.013672" xlink:href="#DejaVuSans-97"/>
      <use x="413.292969" xlink:href="#DejaVuSans-108"/>
     </g>
    </g>
   </g>
   <g id="PathCollection_1">
    <defs>
     <path d="M 0 8.660254 
C 2.296726 8.660254 4.499694 7.747755 6.123724 6.123724 
C 7.747755 4.499694 8.660254 2.296726 8.660254 0 
C 8.660254 -2.296726 7.747755 -4.499694 6.123724 -6.123724 
C 4.499694 -7.747755 2.296726 -8.660254 0 -8.660254 
C -2.296726 -8.660254 -4.499694 -7.747755 -6.123724 -6.123724 
C -7.747755 -4.499694 -8.660254 -2.296726 -8.660254 0 
C -8.660254 2.296726 -7.747755 4.499694 -6.123724 6.123724 
C -4.499694 7.747755 -2.296726 8.660254 0 8.660254 
z
" id="C0_0_6265954240"/>
    </defs>
    <g clip-path="url(#p6798e7b9f8)">
     <use style="fill:#ffffff;stroke:#ffffff;" x="28.150725" xlink:href="#C0_0_6265954240" y="304.544258"/>
    </g>
    <g clip-path="url(#p6798e7b9f8)">
     <use style="fill:#ffffff;stroke:#ffffff;" x="78.305139" xlink:href="#C0_0_6265954240" y="304.544258"/>
    </g>
    <g clip-path="url(#p6798e7b9f8)">
     <use style="fill:#ffffff;stroke:#ffffff;" x="128.459553" xlink:href="#C0_0_6265954240" y="304.544258"/>
    </g>
    <g clip-path="url(#p6798e7b9f8)">
     <use style="fill:#ffffff;stroke:#ffffff;" x="178.613966" xlink:href="#C0_0_6265954240" y="304.544258"/>
    </g>
    <g clip-path="url(#p6798e7b9f8)">
     <use style="fill:#ffffff;stroke:#ffffff;" x="228.76838" xlink:href="#C0_0_6265954240" y="304.544258"/>
    </g>
    <g clip-path="url(#p6798e7b9f8)">
     <use style="fill:#ffffff;stroke:#ffffff;" x="278.922793" xlink:href="#C0_0_6265954240" y="304.544258"/>
    </g>
    <g clip-path="url(#p6798e7b9f8)">
     <use style="fill:#ffffff;stroke:#ffffff;" x="329.077207" xlink:href="#C0_0_6265954240" y="304.544258"/>
    </g>
    <g clip-path="url(#p6798e7b9f8)">
     <use style="fill:#ffffff;stroke:#ffffff;" x="379.23162" xlink:href="#C0_0_6265954240" y="304.544258"/>
    </g>
    <g clip-path="url(#p6798e7b9f8)">
     <use style="fill:#ffffff;stroke:#ffffff;" x="429.386034" xlink:href="#C0_0_6265954240" y="304.544258"/>
    </g>
    <g clip-path="url(#p6798e7b9f8)">
     <use style="fill:#ffffff;stroke:#ffffff;" x="479.540447" xlink:href="#C0_0_6265954240" y="304.544258"/>
    </g>
    <g clip-path="url(#p6798e7b9f8)">
     <use style="fill:#ffffff;stroke:#ffffff;" x="529.694861" xlink:href="#C0_0_6265954240" y="304.544258"/>
    </g>
    <g clip-path="url(#p6798e7b9f8)">
     <use style="fill:#ffffff;stroke:#ffffff;" x="579.849275" xlink:href="#C0_0_6265954240" y="304.544258"/>
    </g>
    <g clip-path="url(#p6798e7b9f8)">
     <use style="fill:#ffffff;stroke:#ffffff;" x="377.141853" xlink:href="#C0_0_6265954240" y="15.455742"/>
    </g>
    <g clip-path="url(#p6798e7b9f8)">
     <use style="fill:#ffffff;stroke:#ffffff;" x="377.141853" xlink:href="#C0_0_6265954240" y="66.090584"/>
    </g>
    <g clip-path="url(#p6798e7b9f8)">
     <use style="fill:#ffffff;stroke:#ffffff;" x="216.229776" xlink:href="#C0_0_6265954240" y="115.468525"/>
    </g>
    <g clip-path="url(#p6798e7b9f8)">
     <use style="fill:#ffffff;stroke:#ffffff;" x="479.540447" xlink:href="#C0_0_6265954240" y="257.828276"/>
    </g>
    <g clip-path="url(#p6798e7b9f8)">
     <use style="fill:#ffffff;stroke:#ffffff;" x="529.694861" xlink:href="#C0_0_6265954240" y="257.828276"/>
    </g>
    <g clip-path="url(#p6798e7b9f8)">
     <use style="fill:#ffffff;stroke:#ffffff;" x="203.691173" xlink:href="#C0_0_6265954240" y="163.746442"/>
    </g>
    <g clip-path="url(#p6798e7b9f8)">
     <use style="fill:#ffffff;stroke:#ffffff;" x="228.76838" xlink:href="#C0_0_6265954240" y="257.828276"/>
    </g>
    <g clip-path="url(#p6798e7b9f8)">
     <use style="fill:#ffffff;stroke:#ffffff;" x="78.305139" xlink:href="#C0_0_6265954240" y="257.828276"/>
    </g>
    <g clip-path="url(#p6798e7b9f8)">
     <use style="fill:#ffffff;stroke:#ffffff;" x="203.691173" xlink:href="#C0_0_6265954240" y="257.828276"/>
    </g>
    <g clip-path="url(#p6798e7b9f8)">
     <use style="fill:#ffffff;stroke:#ffffff;" x="178.613966" xlink:href="#C0_0_6265954240" y="257.828276"/>
    </g>
    <g clip-path="url(#p6798e7b9f8)">
     <use style="fill:#ffffff;stroke:#ffffff;" x="354.154414" xlink:href="#C0_0_6265954240" y="211.112295"/>
    </g>
    <g clip-path="url(#p6798e7b9f8)">
     <use style="fill:#ffffff;stroke:#ffffff;" x="329.077207" xlink:href="#C0_0_6265954240" y="257.828276"/>
    </g>
    <g clip-path="url(#p6798e7b9f8)">
     <use style="fill:#ffffff;stroke:#ffffff;" x="379.23162" xlink:href="#C0_0_6265954240" y="257.828276"/>
    </g>
    <g clip-path="url(#p6798e7b9f8)">
     <use style="fill:#ffffff;stroke:#ffffff;" x="28.150725" xlink:href="#C0_0_6265954240" y="257.828276"/>
    </g>
    <g clip-path="url(#p6798e7b9f8)">
     <use style="fill:#ffffff;stroke:#ffffff;" x="429.386034" xlink:href="#C0_0_6265954240" y="257.828276"/>
    </g>
    <g clip-path="url(#p6798e7b9f8)">
     <use style="fill:#ffffff;stroke:#ffffff;" x="579.849275" xlink:href="#C0_0_6265954240" y="257.828276"/>
    </g>
   </g>
   <g id="text_28">
    <g clip-path="url(#p6798e7b9f8)">
     <!-- - -->
     <defs>
      <path d="M 4.890625 31.390625 
L 31.203125 31.390625 
L 31.203125 23.390625 
L 4.890625 23.390625 
z
" id="DejaVuSans-45"/>
     </defs>
     <g transform="translate(26.346819 307.303633)scale(0.1 -0.1)">
      <use xlink:href="#DejaVuSans-45"/>
     </g>
    </g>
   </g>
   <g id="text_29">
    <g clip-path="url(#p6798e7b9f8)">
     <!-- Nous -->
     <defs>
      <path d="M 9.8125 72.90625 
L 23.09375 72.90625 
L 55.421875 11.921875 
L 55.421875 72.90625 
L 64.984375 72.90625 
L 64.984375 0 
L 51.703125 0 
L 19.390625 60.984375 
L 19.390625 0 
L 9.8125 0 
z
" id="DejaVuSans-78"/>
      <path d="M 30.609375 48.390625 
Q 23.390625 48.390625 19.1875 42.75 
Q 14.984375 37.109375 14.984375 27.296875 
Q 14.984375 17.484375 19.15625 11.84375 
Q 23.34375 6.203125 30.609375 6.203125 
Q 37.796875 6.203125 41.984375 11.859375 
Q 46.1875 17.53125 46.1875 27.296875 
Q 46.1875 37.015625 41.984375 42.703125 
Q 37.796875 48.390625 30.609375 48.390625 
z
M 30.609375 56 
Q 42.328125 56 49.015625 48.375 
Q 55.71875 40.765625 55.71875 27.296875 
Q 55.71875 13.875 49.015625 6.21875 
Q 42.328125 -1.421875 30.609375 -1.421875 
Q 18.84375 -1.421875 12.171875 6.21875 
Q 5.515625 13.875 5.515625 27.296875 
Q 5.515625 40.765625 12.171875 48.375 
Q 18.84375 56 30.609375 56 
z
" id="DejaVuSans-111"/>
      <path d="M 8.5 21.578125 
L 8.5 54.6875 
L 17.484375 54.6875 
L 17.484375 21.921875 
Q 17.484375 14.15625 20.5 10.265625 
Q 23.53125 6.390625 29.59375 6.390625 
Q 36.859375 6.390625 41.078125 11.03125 
Q 45.3125 15.671875 45.3125 23.6875 
L 45.3125 54.6875 
L 54.296875 54.6875 
L 54.296875 0 
L 45.3125 0 
L 45.3125 8.40625 
Q 42.046875 3.421875 37.71875 1 
Q 33.40625 -1.421875 27.6875 -1.421875 
Q 18.265625 -1.421875 13.375 4.4375 
Q 8.5 10.296875 8.5 21.578125 
z
M 31.109375 56 
z
" id="DejaVuSans-117"/>
      <path d="M 44.28125 53.078125 
L 44.28125 44.578125 
Q 40.484375 46.53125 36.375 47.5 
Q 32.28125 48.484375 27.875 48.484375 
Q 21.1875 48.484375 17.84375 46.4375 
Q 14.5 44.390625 14.5 40.28125 
Q 14.5 37.15625 16.890625 35.375 
Q 19.28125 33.59375 26.515625 31.984375 
L 29.59375 31.296875 
Q 39.15625 29.25 43.1875 25.515625 
Q 47.21875 21.78125 47.21875 15.09375 
Q 47.21875 7.46875 41.1875 3.015625 
Q 35.15625 -1.421875 24.609375 -1.421875 
Q 20.21875 -1.421875 15.453125 -0.5625 
Q 10.6875 0.296875 5.421875 2 
L 5.421875 11.28125 
Q 10.40625 8.6875 15.234375 7.390625 
Q 20.0625 6.109375 24.8125 6.109375 
Q 31.15625 6.109375 34.5625 8.28125 
Q 37.984375 10.453125 37.984375 14.40625 
Q 37.984375 18.0625 35.515625 20.015625 
Q 33.0625 21.96875 24.703125 23.78125 
L 21.578125 24.515625 
Q 13.234375 26.265625 9.515625 29.90625 
Q 5.8125 33.546875 5.8125 39.890625 
Q 5.8125 47.609375 11.28125 51.796875 
Q 16.75 56 26.8125 56 
Q 31.78125 56 36.171875 55.265625 
Q 40.578125 54.546875 44.28125 53.078125 
z
" id="DejaVuSans-115"/>
     </defs>
     <g transform="translate(65.731701 307.303633)scale(0.1 -0.1)">
      <use xlink:href="#DejaVuSans-78"/>
      <use x="74.804688" xlink:href="#DejaVuSans-111"/>
      <use x="135.986328" xlink:href="#DejaVuSans-117"/>
      <use x="199.365234" xlink:href="#DejaVuSans-115"/>
     </g>
    </g>
   </g>
   <g id="text_30">
    <g clip-path="url(#p6798e7b9f8)">
     <!-- ne -->
     <g transform="translate(122.21424 307.303633)scale(0.1 -0.1)">
      <use xlink:href="#DejaVuSans-110"/>
      <use x="63.378906" xlink:href="#DejaVuSans-101"/>
     </g>
    </g>
   </g>
   <g id="text_31">
    <g clip-path="url(#p6798e7b9f8)">
     <!-- retournons -->
     <defs>
      <path d="M 18.3125 70.21875 
L 18.3125 54.6875 
L 36.8125 54.6875 
L 36.8125 47.703125 
L 18.3125 47.703125 
L 18.3125 18.015625 
Q 18.3125 11.328125 20.140625 9.421875 
Q 21.96875 7.515625 27.59375 7.515625 
L 36.8125 7.515625 
L 36.8125 0 
L 27.59375 0 
Q 17.1875 0 13.234375 3.875 
Q 9.28125 7.765625 9.28125 18.015625 
L 9.28125 47.703125 
L 2.6875 47.703125 
L 2.6875 54.6875 
L 9.28125 54.6875 
L 9.28125 70.21875 
z
" id="DejaVuSans-116"/>
     </defs>
     <g transform="translate(151.238966 307.303633)scale(0.1 -0.1)">
      <use xlink:href="#DejaVuSans-114"/>
      <use x="41.082031" xlink:href="#DejaVuSans-101"/>
      <use x="102.605469" xlink:href="#DejaVuSans-116"/>
      <use x="141.814453" xlink:href="#DejaVuSans-111"/>
      <use x="202.996094" xlink:href="#DejaVuSans-117"/>
      <use x="266.375" xlink:href="#DejaVuSans-114"/>
      <use x="307.472656" xlink:href="#DejaVuSans-110"/>
      <use x="370.851562" xlink:href="#DejaVuSans-111"/>
      <use x="432.033203" xlink:href="#DejaVuSans-110"/>
      <use x="495.412109" xlink:href="#DejaVuSans-115"/>
     </g>
    </g>
   </g>
   <g id="text_32">
    <g clip-path="url(#p6798e7b9f8)">
     <!-- donc -->
     <defs>
      <path d="M 45.40625 46.390625 
L 45.40625 75.984375 
L 54.390625 75.984375 
L 54.390625 0 
L 45.40625 0 
L 45.40625 8.203125 
Q 42.578125 3.328125 38.25 0.953125 
Q 33.9375 -1.421875 27.875 -1.421875 
Q 17.96875 -1.421875 11.734375 6.484375 
Q 5.515625 14.40625 5.515625 27.296875 
Q 5.515625 40.1875 11.734375 48.09375 
Q 17.96875 56 27.875 56 
Q 33.9375 56 38.25 53.625 
Q 42.578125 51.265625 45.40625 46.390625 
z
M 14.796875 27.296875 
Q 14.796875 17.390625 18.875 11.75 
Q 22.953125 6.109375 30.078125 6.109375 
Q 37.203125 6.109375 41.296875 11.75 
Q 45.40625 17.390625 45.40625 27.296875 
Q 45.40625 37.203125 41.296875 42.84375 
Q 37.203125 48.484375 30.078125 48.484375 
Q 22.953125 48.484375 18.875 42.84375 
Q 14.796875 37.203125 14.796875 27.296875 
z
" id="DejaVuSans-100"/>
      <path d="M 48.78125 52.59375 
L 48.78125 44.1875 
Q 44.96875 46.296875 41.140625 47.34375 
Q 37.3125 48.390625 33.40625 48.390625 
Q 24.65625 48.390625 19.8125 42.84375 
Q 14.984375 37.3125 14.984375 27.296875 
Q 14.984375 17.28125 19.8125 11.734375 
Q 24.65625 6.203125 33.40625 6.203125 
Q 37.3125 6.203125 41.140625 7.25 
Q 44.96875 8.296875 48.78125 10.40625 
L 48.78125 2.09375 
Q 45.015625 0.34375 40.984375 -0.53125 
Q 36.96875 -1.421875 32.421875 -1.421875 
Q 20.0625 -1.421875 12.78125 6.34375 
Q 5.515625 14.109375 5.515625 27.296875 
Q 5.515625 40.671875 12.859375 48.328125 
Q 20.21875 56 33.015625 56 
Q 37.15625 56 41.109375 55.140625 
Q 45.0625 54.296875 48.78125 52.59375 
z
" id="DejaVuSans-99"/>
     </defs>
     <g transform="translate(216.616817 307.303633)scale(0.1 -0.1)">
      <use xlink:href="#DejaVuSans-100"/>
      <use x="63.476562" xlink:href="#DejaVuSans-111"/>
      <use x="124.658203" xlink:href="#DejaVuSans-110"/>
      <use x="188.037109" xlink:href="#DejaVuSans-99"/>
     </g>
    </g>
   </g>
   <g id="text_33">
    <g clip-path="url(#p6798e7b9f8)">
     <!-- pas -->
     <defs>
      <path d="M 18.109375 8.203125 
L 18.109375 -20.796875 
L 9.078125 -20.796875 
L 9.078125 54.6875 
L 18.109375 54.6875 
L 18.109375 46.390625 
Q 20.953125 51.265625 25.265625 53.625 
Q 29.59375 56 35.59375 56 
Q 45.5625 56 51.78125 48.09375 
Q 58.015625 40.1875 58.015625 27.296875 
Q 58.015625 14.40625 51.78125 6.484375 
Q 45.5625 -1.421875 35.59375 -1.421875 
Q 29.59375 -1.421875 25.265625 0.953125 
Q 20.953125 3.328125 18.109375 8.203125 
z
M 48.6875 27.296875 
Q 48.6875 37.203125 44.609375 42.84375 
Q 40.53125 48.484375 33.40625 48.484375 
Q 26.265625 48.484375 22.1875 42.84375 
Q 18.109375 37.203125 18.109375 27.296875 
Q 18.109375 17.390625 22.1875 11.75 
Q 26.265625 6.109375 33.40625 6.109375 
Q 40.53125 6.109375 44.609375 11.75 
Q 48.6875 17.390625 48.6875 27.296875 
z
" id="DejaVuSans-112"/>
     </defs>
     <g transform="translate(270.079824 307.303633)scale(0.1 -0.1)">
      <use xlink:href="#DejaVuSans-112"/>
      <use x="63.476562" xlink:href="#DejaVuSans-97"/>
      <use x="124.755859" xlink:href="#DejaVuSans-115"/>
     </g>
    </g>
   </g>
   <g id="text_34">
    <g clip-path="url(#p6798e7b9f8)">
     <!-- à -->
     <defs>
      <path d="M 34.28125 27.484375 
Q 23.390625 27.484375 19.1875 25 
Q 14.984375 22.515625 14.984375 16.5 
Q 14.984375 11.71875 18.140625 8.90625 
Q 21.296875 6.109375 26.703125 6.109375 
Q 34.1875 6.109375 38.703125 11.40625 
Q 43.21875 16.703125 43.21875 25.484375 
L 43.21875 27.484375 
z
M 52.203125 31.203125 
L 52.203125 0 
L 43.21875 0 
L 43.21875 8.296875 
Q 40.140625 3.328125 35.546875 0.953125 
Q 30.953125 -1.421875 24.3125 -1.421875 
Q 15.921875 -1.421875 10.953125 3.296875 
Q 6 8.015625 6 15.921875 
Q 6 25.140625 12.171875 29.828125 
Q 18.359375 34.515625 30.609375 34.515625 
L 43.21875 34.515625 
L 43.21875 35.40625 
Q 43.21875 41.609375 39.140625 45 
Q 35.0625 48.390625 27.6875 48.390625 
Q 23 48.390625 18.546875 47.265625 
Q 14.109375 46.140625 10.015625 43.890625 
L 10.015625 52.203125 
Q 14.9375 54.109375 19.578125 55.046875 
Q 24.21875 56 28.609375 56 
Q 40.484375 56 46.34375 49.84375 
Q 52.203125 43.703125 52.203125 31.203125 
z
M 21.921875 79.984375 
L 35.6875 61.71875 
L 28.21875 61.71875 
L 12.296875 79.984375 
z
" id="DejaVuSans-224"/>
     </defs>
     <g transform="translate(326.013144 307.303633)scale(0.1 -0.1)">
      <use xlink:href="#DejaVuSans-224"/>
     </g>
    </g>
   </g>
   <g id="text_35">
    <g clip-path="url(#p6798e7b9f8)">
     <!-- Paris -->
     <g transform="translate(367.10662 307.303633)scale(0.1 -0.1)">
      <use xlink:href="#DejaVuSans-80"/>
      <use x="60.240234" xlink:href="#DejaVuSans-97"/>
      <use x="121.519531" xlink:href="#DejaVuSans-114"/>
      <use x="162.632812" xlink:href="#DejaVuSans-105"/>
      <use x="190.416016" xlink:href="#DejaVuSans-115"/>
     </g>
    </g>
   </g>
   <g id="text_36">
    <g clip-path="url(#p6798e7b9f8)">
     <!-- ? -->
     <defs>
      <path d="M 19.09375 12.40625 
L 29 12.40625 
L 29 0 
L 19.09375 0 
z
M 28.71875 19.578125 
L 19.390625 19.578125 
L 19.390625 27.09375 
Q 19.390625 32.03125 20.75 35.203125 
Q 22.125 38.375 26.515625 42.578125 
L 30.90625 46.921875 
Q 33.6875 49.515625 34.9375 51.8125 
Q 36.1875 54.109375 36.1875 56.5 
Q 36.1875 60.84375 32.984375 63.53125 
Q 29.78125 66.21875 24.515625 66.21875 
Q 20.65625 66.21875 16.28125 64.5 
Q 11.921875 62.796875 7.171875 59.515625 
L 7.171875 68.703125 
Q 11.765625 71.484375 16.46875 72.84375 
Q 21.1875 74.21875 26.21875 74.21875 
Q 35.203125 74.21875 40.640625 69.484375 
Q 46.09375 64.75 46.09375 56.984375 
Q 46.09375 53.265625 44.328125 49.921875 
Q 42.578125 46.578125 38.1875 42.390625 
L 33.890625 38.1875 
Q 31.59375 35.890625 30.640625 34.59375 
Q 29.6875 33.296875 29.296875 32.078125 
Q 29 31.0625 28.859375 29.59375 
Q 28.71875 28.125 28.71875 25.59375 
z
" id="DejaVuSans-63"/>
     </defs>
     <g transform="translate(426.732128 307.303633)scale(0.1 -0.1)">
      <use xlink:href="#DejaVuSans-63"/>
     </g>
    </g>
   </g>
   <g id="text_37">
    <g clip-path="url(#p6798e7b9f8)">
     <!-- demanda -->
     <g transform="translate(455.94826 307.303633)scale(0.1 -0.1)">
      <use xlink:href="#DejaVuSans-100"/>
      <use x="63.476562" xlink:href="#DejaVuSans-101"/>
      <use x="125" xlink:href="#DejaVuSans-109"/>
      <use x="222.412109" xlink:href="#DejaVuSans-97"/>
      <use x="283.691406" xlink:href="#DejaVuSans-110"/>
      <use x="347.070312" xlink:href="#DejaVuSans-100"/>
      <use x="410.546875" xlink:href="#DejaVuSans-97"/>
     </g>
    </g>
   </g>
   <g id="text_38">
    <g clip-path="url(#p6798e7b9f8)">
     <!-- Conseil -->
     <g transform="translate(511.515955 307.303633)scale(0.1 -0.1)">
      <use xlink:href="#DejaVuSans-67"/>
      <use x="69.824219" xlink:href="#DejaVuSans-111"/>
      <use x="131.005859" xlink:href="#DejaVuSans-110"/>
      <use x="194.384766" xlink:href="#DejaVuSans-115"/>
      <use x="246.484375" xlink:href="#DejaVuSans-101"/>
      <use x="308.007812" xlink:href="#DejaVuSans-105"/>
      <use x="335.791016" xlink:href="#DejaVuSans-108"/>
     </g>
    </g>
   </g>
   <g id="text_39">
    <g clip-path="url(#p6798e7b9f8)">
     <!-- . -->
     <defs>
      <path d="M 10.6875 12.40625 
L 21 12.40625 
L 21 0 
L 10.6875 0 
z
" id="DejaVuSans-46"/>
     </defs>
     <g transform="translate(578.260212 307.303633)scale(0.1 -0.1)">
      <use xlink:href="#DejaVuSans-46"/>
     </g>
    </g>
   </g>
   <g id="text_40">
    <g clip-path="url(#p6798e7b9f8)">
     <!-- 1.1 -->
     <defs>
      <path d="M 12.40625 8.296875 
L 28.515625 8.296875 
L 28.515625 63.921875 
L 10.984375 60.40625 
L 10.984375 69.390625 
L 28.421875 72.90625 
L 38.28125 72.90625 
L 38.28125 8.296875 
L 54.390625 8.296875 
L 54.390625 0 
L 12.40625 0 
z
" id="DejaVuSans-49"/>
     </defs>
     <g transform="translate(369.190291 18.215117)scale(0.1 -0.1)">
      <use xlink:href="#DejaVuSans-49"/>
      <use x="63.623047" xlink:href="#DejaVuSans-46"/>
      <use x="95.410156" xlink:href="#DejaVuSans-49"/>
     </g>
    </g>
   </g>
   <g id="text_41">
    <g clip-path="url(#p6798e7b9f8)">
     <!-- 1.2 -->
     <defs>
      <path d="M 19.1875 8.296875 
L 53.609375 8.296875 
L 53.609375 0 
L 7.328125 0 
L 7.328125 8.296875 
Q 12.9375 14.109375 22.625 23.890625 
Q 32.328125 33.6875 34.8125 36.53125 
Q 39.546875 41.84375 41.421875 45.53125 
Q 43.3125 49.21875 43.3125 52.78125 
Q 43.3125 58.59375 39.234375 62.25 
Q 35.15625 65.921875 28.609375 65.921875 
Q 23.96875 65.921875 18.8125 64.3125 
Q 13.671875 62.703125 7.8125 59.421875 
L 7.8125 69.390625 
Q 13.765625 71.78125 18.9375 73 
Q 24.125 74.21875 28.421875 74.21875 
Q 39.75 74.21875 46.484375 68.546875 
Q 53.21875 62.890625 53.21875 53.421875 
Q 53.21875 48.921875 51.53125 44.890625 
Q 49.859375 40.875 45.40625 35.40625 
Q 44.1875 33.984375 37.640625 27.21875 
Q 31.109375 20.453125 19.1875 8.296875 
z
" id="DejaVuSans-50"/>
     </defs>
     <g transform="translate(369.190291 68.849959)scale(0.1 -0.1)">
      <use xlink:href="#DejaVuSans-49"/>
      <use x="63.623047" xlink:href="#DejaVuSans-46"/>
      <use x="95.410156" xlink:href="#DejaVuSans-50"/>
     </g>
    </g>
   </g>
   <g id="text_42">
    <g clip-path="url(#p6798e7b9f8)">
     <!-- 1.5 -->
     <defs>
      <path d="M 10.796875 72.90625 
L 49.515625 72.90625 
L 49.515625 64.59375 
L 19.828125 64.59375 
L 19.828125 46.734375 
Q 21.96875 47.46875 24.109375 47.828125 
Q 26.265625 48.1875 28.421875 48.1875 
Q 40.625 48.1875 47.75 41.5 
Q 54.890625 34.8125 54.890625 23.390625 
Q 54.890625 11.625 47.5625 5.09375 
Q 40.234375 -1.421875 26.90625 -1.421875 
Q 22.3125 -1.421875 17.546875 -0.640625 
Q 12.796875 0.140625 7.71875 1.703125 
L 7.71875 11.625 
Q 12.109375 9.234375 16.796875 8.0625 
Q 21.484375 6.890625 26.703125 6.890625 
Q 35.15625 6.890625 40.078125 11.328125 
Q 45.015625 15.765625 45.015625 23.390625 
Q 45.015625 31 40.078125 35.4375 
Q 35.15625 39.890625 26.703125 39.890625 
Q 22.75 39.890625 18.8125 39.015625 
Q 14.890625 38.140625 10.796875 36.28125 
z
" id="DejaVuSans-53"/>
     </defs>
     <g transform="translate(208.278214 118.2279)scale(0.1 -0.1)">
      <use xlink:href="#DejaVuSans-49"/>
      <use x="63.623047" xlink:href="#DejaVuSans-46"/>
      <use x="95.410156" xlink:href="#DejaVuSans-53"/>
     </g>
    </g>
   </g>
   <g id="text_43">
    <g clip-path="url(#p6798e7b9f8)">
     <!-- 1.6 -->
     <defs>
      <path d="M 33.015625 40.375 
Q 26.375 40.375 22.484375 35.828125 
Q 18.609375 31.296875 18.609375 23.390625 
Q 18.609375 15.53125 22.484375 10.953125 
Q 26.375 6.390625 33.015625 6.390625 
Q 39.65625 6.390625 43.53125 10.953125 
Q 47.40625 15.53125 47.40625 23.390625 
Q 47.40625 31.296875 43.53125 35.828125 
Q 39.65625 40.375 33.015625 40.375 
z
M 52.59375 71.296875 
L 52.59375 62.3125 
Q 48.875 64.0625 45.09375 64.984375 
Q 41.3125 65.921875 37.59375 65.921875 
Q 27.828125 65.921875 22.671875 59.328125 
Q 17.53125 52.734375 16.796875 39.40625 
Q 19.671875 43.65625 24.015625 45.921875 
Q 28.375 48.1875 33.59375 48.1875 
Q 44.578125 48.1875 50.953125 41.515625 
Q 57.328125 34.859375 57.328125 23.390625 
Q 57.328125 12.15625 50.6875 5.359375 
Q 44.046875 -1.421875 33.015625 -1.421875 
Q 20.359375 -1.421875 13.671875 8.265625 
Q 6.984375 17.96875 6.984375 36.375 
Q 6.984375 53.65625 15.1875 63.9375 
Q 23.390625 74.21875 37.203125 74.21875 
Q 40.921875 74.21875 44.703125 73.484375 
Q 48.484375 72.75 52.59375 71.296875 
z
" id="DejaVuSans-54"/>
     </defs>
     <g transform="translate(471.588885 260.587651)scale(0.1 -0.1)">
      <use xlink:href="#DejaVuSans-49"/>
      <use x="63.623047" xlink:href="#DejaVuSans-46"/>
      <use x="95.410156" xlink:href="#DejaVuSans-54"/>
     </g>
    </g>
   </g>
   <g id="text_44">
    <g clip-path="url(#p6798e7b9f8)">
     <!-- 1.7 -->
     <defs>
      <path d="M 8.203125 72.90625 
L 55.078125 72.90625 
L 55.078125 68.703125 
L 28.609375 0 
L 18.3125 0 
L 43.21875 64.59375 
L 8.203125 64.59375 
z
" id="DejaVuSans-55"/>
     </defs>
     <g transform="translate(521.743299 260.587651)scale(0.1 -0.1)">
      <use xlink:href="#DejaVuSans-49"/>
      <use x="63.623047" xlink:href="#DejaVuSans-46"/>
      <use x="95.410156" xlink:href="#DejaVuSans-55"/>
     </g>
    </g>
   </g>
   <g id="text_45">
    <g clip-path="url(#p6798e7b9f8)">
     <!-- 1.9 -->
     <defs>
      <path d="M 10.984375 1.515625 
L 10.984375 10.5 
Q 14.703125 8.734375 18.5 7.8125 
Q 22.3125 6.890625 25.984375 6.890625 
Q 35.75 6.890625 40.890625 13.453125 
Q 46.046875 20.015625 46.78125 33.40625 
Q 43.953125 29.203125 39.59375 26.953125 
Q 35.25 24.703125 29.984375 24.703125 
Q 19.046875 24.703125 12.671875 31.3125 
Q 6.296875 37.9375 6.296875 49.421875 
Q 6.296875 60.640625 12.9375 67.421875 
Q 19.578125 74.21875 30.609375 74.21875 
Q 43.265625 74.21875 49.921875 64.515625 
Q 56.59375 54.828125 56.59375 36.375 
Q 56.59375 19.140625 48.40625 8.859375 
Q 40.234375 -1.421875 26.421875 -1.421875 
Q 22.703125 -1.421875 18.890625 -0.6875 
Q 15.09375 0.046875 10.984375 1.515625 
z
M 30.609375 32.421875 
Q 37.25 32.421875 41.125 36.953125 
Q 45.015625 41.5 45.015625 49.421875 
Q 45.015625 57.28125 41.125 61.84375 
Q 37.25 66.40625 30.609375 66.40625 
Q 23.96875 66.40625 20.09375 61.84375 
Q 16.21875 57.28125 16.21875 49.421875 
Q 16.21875 41.5 20.09375 36.953125 
Q 23.96875 32.421875 30.609375 32.421875 
z
" id="DejaVuSans-57"/>
     </defs>
     <g transform="translate(195.73961 166.505817)scale(0.1 -0.1)">
      <use xlink:href="#DejaVuSans-49"/>
      <use x="63.623047" xlink:href="#DejaVuSans-46"/>
      <use x="95.410156" xlink:href="#DejaVuSans-57"/>
     </g>
    </g>
   </g>
   <g id="text_46">
    <g clip-path="url(#p6798e7b9f8)">
     <!-- 1.10 -->
     <defs>
      <path d="M 31.78125 66.40625 
Q 24.171875 66.40625 20.328125 58.90625 
Q 16.5 51.421875 16.5 36.375 
Q 16.5 21.390625 20.328125 13.890625 
Q 24.171875 6.390625 31.78125 6.390625 
Q 39.453125 6.390625 43.28125 13.890625 
Q 47.125 21.390625 47.125 36.375 
Q 47.125 51.421875 43.28125 58.90625 
Q 39.453125 66.40625 31.78125 66.40625 
z
M 31.78125 74.21875 
Q 44.046875 74.21875 50.515625 64.515625 
Q 56.984375 54.828125 56.984375 36.375 
Q 56.984375 17.96875 50.515625 8.265625 
Q 44.046875 -1.421875 31.78125 -1.421875 
Q 19.53125 -1.421875 13.0625 8.265625 
Q 6.59375 17.96875 6.59375 36.375 
Q 6.59375 54.828125 13.0625 64.515625 
Q 19.53125 74.21875 31.78125 74.21875 
z
" id="DejaVuSans-48"/>
     </defs>
     <g transform="translate(217.635567 260.587651)scale(0.1 -0.1)">
      <use xlink:href="#DejaVuSans-49"/>
      <use x="63.623047" xlink:href="#DejaVuSans-46"/>
      <use x="95.410156" xlink:href="#DejaVuSans-49"/>
      <use x="159.033203" xlink:href="#DejaVuSans-48"/>
     </g>
    </g>
   </g>
   <g id="text_47">
    <g clip-path="url(#p6798e7b9f8)">
     <!-- 1.11 -->
     <g transform="translate(67.172326 260.587651)scale(0.1 -0.1)">
      <use xlink:href="#DejaVuSans-49"/>
      <use x="63.623047" xlink:href="#DejaVuSans-46"/>
      <use x="95.410156" xlink:href="#DejaVuSans-49"/>
      <use x="159.033203" xlink:href="#DejaVuSans-49"/>
     </g>
    </g>
   </g>
   <g id="text_48">
    <g clip-path="url(#p6798e7b9f8)">
     <!-- 1.12 -->
     <g transform="translate(192.55836 260.587651)scale(0.1 -0.1)">
      <use xlink:href="#DejaVuSans-49"/>
      <use x="63.623047" xlink:href="#DejaVuSans-46"/>
      <use x="95.410156" xlink:href="#DejaVuSans-49"/>
      <use x="159.033203" xlink:href="#DejaVuSans-50"/>
     </g>
    </g>
   </g>
   <g id="text_49">
    <g clip-path="url(#p6798e7b9f8)">
     <!-- 1.13 -->
     <defs>
      <path d="M 40.578125 39.3125 
Q 47.65625 37.796875 51.625 33 
Q 55.609375 28.21875 55.609375 21.1875 
Q 55.609375 10.40625 48.1875 4.484375 
Q 40.765625 -1.421875 27.09375 -1.421875 
Q 22.515625 -1.421875 17.65625 -0.515625 
Q 12.796875 0.390625 7.625 2.203125 
L 7.625 11.71875 
Q 11.71875 9.328125 16.59375 8.109375 
Q 21.484375 6.890625 26.8125 6.890625 
Q 36.078125 6.890625 40.9375 10.546875 
Q 45.796875 14.203125 45.796875 21.1875 
Q 45.796875 27.640625 41.28125 31.265625 
Q 36.765625 34.90625 28.71875 34.90625 
L 20.21875 34.90625 
L 20.21875 43.015625 
L 29.109375 43.015625 
Q 36.375 43.015625 40.234375 45.921875 
Q 44.09375 48.828125 44.09375 54.296875 
Q 44.09375 59.90625 40.109375 62.90625 
Q 36.140625 65.921875 28.71875 65.921875 
Q 24.65625 65.921875 20.015625 65.03125 
Q 15.375 64.15625 9.8125 62.3125 
L 9.8125 71.09375 
Q 15.4375 72.65625 20.34375 73.4375 
Q 25.25 74.21875 29.59375 74.21875 
Q 40.828125 74.21875 47.359375 69.109375 
Q 53.90625 64.015625 53.90625 55.328125 
Q 53.90625 49.265625 50.4375 45.09375 
Q 46.96875 40.921875 40.578125 39.3125 
z
" id="DejaVuSans-51"/>
     </defs>
     <g transform="translate(167.481154 260.587651)scale(0.1 -0.1)">
      <use xlink:href="#DejaVuSans-49"/>
      <use x="63.623047" xlink:href="#DejaVuSans-46"/>
      <use x="95.410156" xlink:href="#DejaVuSans-49"/>
      <use x="159.033203" xlink:href="#DejaVuSans-51"/>
     </g>
    </g>
   </g>
   <g id="text_50">
    <g clip-path="url(#p6798e7b9f8)">
     <!-- 1.14 -->
     <defs>
      <path d="M 37.796875 64.3125 
L 12.890625 25.390625 
L 37.796875 25.390625 
z
M 35.203125 72.90625 
L 47.609375 72.90625 
L 47.609375 25.390625 
L 58.015625 25.390625 
L 58.015625 17.1875 
L 47.609375 17.1875 
L 47.609375 0 
L 37.796875 0 
L 37.796875 17.1875 
L 4.890625 17.1875 
L 4.890625 26.703125 
z
" id="DejaVuSans-52"/>
     </defs>
     <g transform="translate(343.021601 213.87167)scale(0.1 -0.1)">
      <use xlink:href="#DejaVuSans-49"/>
      <use x="63.623047" xlink:href="#DejaVuSans-46"/>
      <use x="95.410156" xlink:href="#DejaVuSans-49"/>
      <use x="159.033203" xlink:href="#DejaVuSans-52"/>
     </g>
    </g>
   </g>
   <g id="text_51">
    <g clip-path="url(#p6798e7b9f8)">
     <!-- 1.15 -->
     <g transform="translate(317.944394 260.587651)scale(0.1 -0.1)">
      <use xlink:href="#DejaVuSans-49"/>
      <use x="63.623047" xlink:href="#DejaVuSans-46"/>
      <use x="95.410156" xlink:href="#DejaVuSans-49"/>
      <use x="159.033203" xlink:href="#DejaVuSans-53"/>
     </g>
    </g>
   </g>
   <g id="text_52">
    <g clip-path="url(#p6798e7b9f8)">
     <!-- 1.16 -->
     <g transform="translate(368.098808 260.587651)scale(0.1 -0.1)">
      <use xlink:href="#DejaVuSans-49"/>
      <use x="63.623047" xlink:href="#DejaVuSans-46"/>
      <use x="95.410156" xlink:href="#DejaVuSans-49"/>
      <use x="159.033203" xlink:href="#DejaVuSans-54"/>
     </g>
    </g>
   </g>
   <g id="text_53">
    <g clip-path="url(#p6798e7b9f8)">
     <!-- 1.17 -->
     <g transform="translate(17.017913 260.587651)scale(0.1 -0.1)">
      <use xlink:href="#DejaVuSans-49"/>
      <use x="63.623047" xlink:href="#DejaVuSans-46"/>
      <use x="95.410156" xlink:href="#DejaVuSans-49"/>
      <use x="159.033203" xlink:href="#DejaVuSans-55"/>
     </g>
    </g>
   </g>
   <g id="text_54">
    <g clip-path="url(#p6798e7b9f8)">
     <!-- 1.18 -->
     <defs>
      <path d="M 31.78125 34.625 
Q 24.75 34.625 20.71875 30.859375 
Q 16.703125 27.09375 16.703125 20.515625 
Q 16.703125 13.921875 20.71875 10.15625 
Q 24.75 6.390625 31.78125 6.390625 
Q 38.8125 6.390625 42.859375 10.171875 
Q 46.921875 13.96875 46.921875 20.515625 
Q 46.921875 27.09375 42.890625 30.859375 
Q 38.875 34.625 31.78125 34.625 
z
M 21.921875 38.8125 
Q 15.578125 40.375 12.03125 44.71875 
Q 8.5 49.078125 8.5 55.328125 
Q 8.5 64.0625 14.71875 69.140625 
Q 20.953125 74.21875 31.78125 74.21875 
Q 42.671875 74.21875 48.875 69.140625 
Q 55.078125 64.0625 55.078125 55.328125 
Q 55.078125 49.078125 51.53125 44.71875 
Q 48 40.375 41.703125 38.8125 
Q 48.828125 37.15625 52.796875 32.3125 
Q 56.78125 27.484375 56.78125 20.515625 
Q 56.78125 9.90625 50.3125 4.234375 
Q 43.84375 -1.421875 31.78125 -1.421875 
Q 19.734375 -1.421875 13.25 4.234375 
Q 6.78125 9.90625 6.78125 20.515625 
Q 6.78125 27.484375 10.78125 32.3125 
Q 14.796875 37.15625 21.921875 38.8125 
z
M 18.3125 54.390625 
Q 18.3125 48.734375 21.84375 45.5625 
Q 25.390625 42.390625 31.78125 42.390625 
Q 38.140625 42.390625 41.71875 45.5625 
Q 45.3125 48.734375 45.3125 54.390625 
Q 45.3125 60.0625 41.71875 63.234375 
Q 38.140625 66.40625 31.78125 66.40625 
Q 25.390625 66.40625 21.84375 63.234375 
Q 18.3125 60.0625 18.3125 54.390625 
z
" id="DejaVuSans-56"/>
     </defs>
     <g transform="translate(418.253221 260.587651)scale(0.1 -0.1)">
      <use xlink:href="#DejaVuSans-49"/>
      <use x="63.623047" xlink:href="#DejaVuSans-46"/>
      <use x="95.410156" xlink:href="#DejaVuSans-49"/>
      <use x="159.033203" xlink:href="#DejaVuSans-56"/>
     </g>
    </g>
   </g>
   <g id="text_55">
    <g clip-path="url(#p6798e7b9f8)">
     <!-- 1.19 -->
     <g transform="translate(568.716462 260.587651)scale(0.1 -0.1)">
      <use xlink:href="#DejaVuSans-49"/>
      <use x="63.623047" xlink:href="#DejaVuSans-46"/>
      <use x="95.410156" xlink:href="#DejaVuSans-49"/>
      <use x="159.033203" xlink:href="#DejaVuSans-57"/>
     </g>
    </g>
   </g>
  </g>
 </g>
 <defs>
  <clipPath id="p6798e7b9f8">
   <rect height="320" width="608" x="0" y="0"/>
  </clipPath>
 </defs>
</svg>
