<?xml version="1.0" encoding="UTF-8"?>
<!DOCTYPE svg  PUBLIC '-//W3C//DTD SVG 1.1//EN'  'http://www.w3.org/Graphics/SVG/1.1/DTD/svg11.dtd'>
<svg width="810.67pt" height="426.67pt" version="1.1" viewBox="0 0 810.67 426.67" xmlns="http://www.w3.org/2000/svg" xmlns:xlink="http://www.w3.org/1999/xlink">
<defs>
<style type="text/css">*{stroke-linecap:butt;stroke-linejoin:round;}</style>
</defs>
<path d="m0 426.67h810.67v-426.67h-810.67z" fill="#fff"/>
<g fill="none" stroke="#000">
<path d="m332.57 20.784 72.764 194.8" clip-path="url(#a)"/>
<path d="m332.57 20.784 48.217 98.329" clip-path="url(#a)"/>
<path d="m332.57 20.784 72.764 289.95" clip-path="url(#a)"/>
<path d="m332.57 20.784 213.91 98.329" clip-path="url(#a)"/>
<path d="m332.57 20.784-295.44 289.95" clip-path="url(#a)"/>
<path d="m332.57 20.784-148.16 289.95" clip-path="url(#a)"/>
<path d="m332.57 20.784 35.943 289.95" clip-path="url(#a)"/>
<path d="m405.33 215.59 331.38 190.3" clip-path="url(#a)"/>
<path d="m405.33 215.59 294.56 190.3" clip-path="url(#a)"/>
<path d="m405.33 215.59 257.74 190.3" clip-path="url(#a)"/>
<path d="m405.33 215.59-331.38 95.148" clip-path="url(#a)"/>
<path d="m405.33 215.59-257.74 95.148" clip-path="url(#a)"/>
<path d="m405.33 215.59-294.56 95.148" clip-path="url(#a)"/>
<path d="m380.79 119.11 24.547 96.472" clip-path="url(#a)" stroke-dasharray="3.7,1.6"/>
<path d="m380.79 119.11 392.75 286.77" clip-path="url(#a)"/>
<path d="m380.79 119.11-159.55 191.62" clip-path="url(#a)"/>
<path d="m380.79 119.11-85.914 191.62" clip-path="url(#a)"/>
<path d="m380.79 119.11-49.094 191.62" clip-path="url(#a)"/>
<path d="m380.79 119.11-122.73 191.62" clip-path="url(#a)"/>
<path d="m405.33 310.73v95.148" clip-path="url(#a)"/>
<path d="m546.48 119.11 79.777 286.77" clip-path="url(#a)"/>
<path d="m546.48 119.11-85.914 96.472" clip-path="url(#a)"/>
<path d="m546.48 119.11 6.1367 96.472" clip-path="url(#a)"/>
<path d="m460.56 215.59-18.41 95.148" clip-path="url(#a)"/>
<path d="m460.56 215.59 18.41 95.148" clip-path="url(#a)"/>
<path d="m552.61 215.59-36.82 95.148" clip-path="url(#a)"/>
<path d="m552.61 215.59v95.148" clip-path="url(#a)"/>
<path d="m552.61 215.59 36.82 95.148" clip-path="url(#a)"/>
<path d="m515.79 310.73v95.148" clip-path="url(#a)"/>
<path d="m552.61 310.73v95.148" clip-path="url(#a)"/>
<path d="m442.15 310.73v95.148" clip-path="url(#a)"/>
<path d="m478.97 310.73v95.148" clip-path="url(#a)"/>
<path d="m221.23 310.73v95.148" clip-path="url(#a)"/>
<path d="m294.87 310.73v95.148" clip-path="url(#a)"/>
<path d="m331.69 310.73v95.148" clip-path="url(#a)"/>
<path d="m73.952 310.73v95.148" clip-path="url(#a)"/>
<path d="m37.132 310.73v95.148" clip-path="url(#a)"/>
<path d="m147.59 310.73v95.148" clip-path="url(#a)"/>
<path d="m452.38 20.784-47.048 194.8" clip-path="url(#a)"/>
<path d="m452.38 20.784-47.048 289.95" clip-path="url(#a)"/>
<path d="m452.38 20.784 94.096 98.329" clip-path="url(#a)"/>
<path d="m110.77 310.73v95.148" clip-path="url(#a)"/>
<path d="m184.41 310.73v95.148" clip-path="url(#a)"/>
<path d="m258.05 310.73v95.148" clip-path="url(#a)"/>
<path d="m368.51 310.73v95.148" clip-path="url(#a)"/>
<path d="m589.43 310.73v95.148" clip-path="url(#a)"/>
</g>
<path d="m362.02 117.56 2.1052 5.6359q0.83979 2.2483 3.0881 1.4085l7.253-2.7092q2.2483-0.83979 1.4085-3.0881l-2.1052-5.6359q-0.83979-2.2483-3.0881-1.4085l-7.253 2.7092q-2.2483 0.83979-1.4085 3.0881z" clip-path="url(#a)" fill="#fff" stroke="#fff"/>
<g clip-path="url(#a)">
<defs>
<path id="y" d="m9.8125 72.906h9.8594v-29.891h35.844v29.891h9.8594v-72.906h-9.8594v34.719h-35.844v-34.719h-9.8594z"/>
</defs>
<g transform="translate(365.83 116.14) rotate(69.518) scale(.08 -.08)">
<use xlink:href="#y"/>
</g>
</g>
<path d="m349.72 70.009 2.6488 5.4018q1.0567 2.1549 3.2115 1.0982l6.9517-3.4088q2.1549-1.0567 1.0982-3.2115l-2.6488-5.4018q-1.0567-2.1549-3.2115-1.0982l-6.9517 3.4088q-2.1549 1.0567-1.0982 3.2115z" clip-path="url(#a)" fill="#fff" stroke="#fff"/>
<g clip-path="url(#a)">
<g transform="translate(353.37 68.22) rotate(63.878) scale(.08 -.08)">
<use xlink:href="#y"/>
</g>
</g>
<path d="m362.33 165.12 1.085 4.3234q0.58417 2.3278 2.912 1.7436l7.5096-1.8846q2.3278-0.58417 1.7436-2.912l-1.085-4.3234q-0.58417-2.3278-2.912-1.7436l-7.5096 1.8846q-2.3278 0.58417-1.7436 2.912z" clip-path="url(#a)" fill="#fff" stroke="#fff"/>
<g clip-path="url(#a)">
<defs>
<path id="n" d="m9.8125 72.906h9.8594v-64.609h35.5v-8.2969h-45.359z"/>
</defs>
<g transform="translate(366.27 164.13) rotate(75.912) scale(.08 -.08)">
<use xlink:href="#n"/>
</g>
</g>
<path d="m434.17 74.391 5.4664 2.5128q2.1806 1.0024 3.183-1.1782l3.2338-7.0348q1.0024-2.1806-1.1782-3.183l-5.4664-2.5128q-2.1806-1.0024-3.183 1.1782l-3.2338 7.0348q-1.0024 2.1806 1.1782 3.183z" clip-path="url(#a)" fill="#fff" stroke="#fff"/>
<g clip-path="url(#a)">
<g transform="translate(435.87 70.699) rotate(24.687) scale(.08 -.08)">
<use xlink:href="#y"/>
</g>
</g>
<path d="m187.15 172.29 4.1787-4.1011q1.7129-1.6811 0.031821-3.394l-5.4232-5.5259q-1.6811-1.7129-3.394-0.031821l-4.1787 4.1011q-1.7129 1.6811-0.031821 3.394l5.4232 5.5259q1.6811 1.7129 3.394 0.031821z" clip-path="url(#a)" fill="#fff" stroke="#fff"/>
<g clip-path="url(#a)">
<defs>
<path id="t" d="m8.6875 72.906h9.9219v-44.297q0-11.719 4.2344-16.875 4.25-5.1406 13.781-5.1406 9.4688 0 13.719 5.1406 4.25 5.1562 4.25 16.875v44.297h9.9062v-45.516q0-14.25-7.0625-21.531-7.0469-7.2812-20.812-7.2812-13.828 0-20.891 7.2812-7.0469 7.2812-7.0469 21.531z"/>
</defs>
<g transform="translate(184.31 169.39) rotate(-44.463) scale(.08 -.08)">
<use xlink:href="#t"/>
</g>
</g>
<path d="m262.74 171.22 2.6641-5.2138q1.092-2.1372-1.0451-3.2292l-6.8946-3.523q-2.1372-1.092-3.2292 1.0451l-2.6641 5.2138q-1.092 2.1372 1.0451 3.2292l6.8946 3.523q2.1372 1.092 3.2292-1.0451z" clip-path="url(#a)" fill="#fff" stroke="#fff"/>
<g clip-path="url(#a)">
<g transform="translate(259.12 169.37) rotate(-62.934) scale(.08 -.08)">
<use xlink:href="#t"/>
</g>
</g>
<path d="m343.96 163.63 0.7203 5.8105q0.29526 2.3818 2.677 2.0865l7.6837-0.9525q2.3818-0.29526 2.0865-2.677l-0.7203-5.8105q-0.29526-2.3818-2.677-2.0865l-7.6837 0.9525q-2.3818 0.29526-2.0865 2.677z" clip-path="url(#a)" fill="#fff" stroke="#fff"/>
<g clip-path="url(#a)">
<g transform="translate(347.99 163.13) rotate(82.933) scale(.08 -.08)">
<use xlink:href="#t"/>
</g>
</g>
<path d="m565.53 314.81 4.7457 2.7252q2.0812 1.1952 3.2764-0.88609l3.8556-6.7142q1.1952-2.0812-0.88609-3.2764l-4.7457-2.7252q-2.0812-1.1952-3.2764 0.88609l-3.8556 6.7142q-1.1952 2.0812 0.88609 3.2764z" clip-path="url(#a)" fill="#fff" stroke="#fff"/>
<g clip-path="url(#a)">
<defs>
<path id="o" d="m34.188 63.188-13.391-36.281h26.812zm-5.5781 9.7188h11.188l27.781-72.906h-10.25l-6.6406 18.703h-32.859l-6.6406-18.703h-10.406z"/>
</defs>
<g transform="translate(567.55 311.29) rotate(29.867) scale(.08 -.08)">
<use xlink:href="#o"/>
</g>
</g>
<path d="m547.19 314.69 4.0518 2.6176q2.0159 1.3023 3.3183-0.71356l4.2014-6.5034q1.3023-2.0159-0.71356-3.3183l-4.0518-2.6176q-2.0159-1.3023-3.3183 0.71356l-4.2014 6.5034q-1.3023 2.0159 0.71356 3.3183z" clip-path="url(#a)" fill="#fff" stroke="#fff"/>
<g clip-path="url(#a)">
<defs>
<path id="q" d="m19.672 64.797v-27.391h12.406q6.8906 0 10.641 3.5625 3.7656 3.5625 3.7656 10.156 0 6.5469-3.7656 10.109-3.75 3.5625-10.641 3.5625zm-9.8594 8.1094h22.266q12.266 0 18.531-5.5469 6.2812-5.5469 6.2812-16.234 0-10.797-6.2812-16.312-6.2656-5.5156-18.531-5.5156h-12.406v-29.297h-9.8594z"/>
</defs>
<g transform="translate(549.39 311.28) rotate(32.864) scale(.08 -.08)">
<use xlink:href="#q"/>
</g>
</g>
<path d="m528.28 314.15 4.4026 3.2505q1.9308 1.4255 3.3563-0.50524l4.5988-6.2287q1.4255-1.9308-0.50524-3.3563l-4.4026-3.2505q-1.9308-1.4255-3.3563 0.50524l-4.5988 6.2287q-1.4255 1.9308 0.50524 3.3563z" clip-path="url(#a)" fill="#fff" stroke="#fff"/>
<g clip-path="url(#a)">
<g transform="translate(530.69 310.88) rotate(36.439) scale(.08 -.08)">
<use xlink:href="#o"/>
</g>
</g>
<path d="m238.41 270.04 5.9208-1.7q2.3068-0.66234 1.6445-2.9691l-2.1367-7.4418q-0.66234-2.3068-2.9691-1.6445l-5.9208 1.7q-2.3068 0.66234-1.6445 2.9691l2.1367 7.4418q0.66234 2.3068 2.9691 1.6445z" clip-path="url(#a)" fill="#fff" stroke="#fff"/>
<g clip-path="url(#a)">
<defs>
<path id="z" d="m19.672 64.797v-56.688h11.922q15.094 0 22.094 6.8281 7 6.8438 7 21.594 0 14.641-7 21.453t-22.094 6.8125zm-9.8594 8.1094h20.266q21.188 0 31.094-8.8125 9.9219-8.8125 9.9219-27.562 0-18.859-9.9688-27.703-9.9531-8.8281-31.047-8.8281h-20.266z"/>
</defs>
<g transform="translate(237.29 266.13) rotate(-16.02) scale(.08 -.08)">
<use xlink:href="#z"/>
</g>
</g>
<path d="m275.75 270.11 5.7788-2.1333q2.2515-0.83116 1.4203-3.0826l-2.6814-7.2634q-0.83116-2.2515-3.0826-1.4203l-5.7788 2.1333q-2.2515 0.83116-1.4203 3.0826l2.6814 7.2634q0.83116 2.2515 3.0826 1.4203z" clip-path="url(#a)" fill="#fff" stroke="#fff"/>
<g clip-path="url(#a)">
<g transform="translate(274.34 266.3) rotate(-20.262) scale(.08 -.08)">
<use xlink:href="#z"/>
</g>
</g>
<path d="m257.19 270.03 5.5715-1.7997q2.2838-0.73771 1.5461-3.0215l-2.3799-7.3677q-0.73771-2.2838-3.0215-1.5461l-5.5715 1.7997q-2.2838 0.73771-1.5461 3.0215l2.3799 7.3677q0.73771 2.2838 3.0215 1.5461z" clip-path="url(#a)" fill="#fff" stroke="#fff"/>
<g clip-path="url(#a)">
<g transform="translate(255.95 266.16) rotate(-17.901) scale(.08 -.08)">
<use xlink:href="#t"/>
</g>
</g>
<path d="m386.31 166.24 1.3495 5.3035q0.59181 2.3259 2.9177 1.7341l7.5034-1.9092q2.3259-0.59181 1.7341-2.9177l-1.3495-5.3035q-0.59181-2.3259-2.9177-1.7341l-7.5034 1.9092q-2.3259 0.59181-1.7341 2.9177z" clip-path="url(#a)" fill="#fff" stroke="#fff"/>
<g clip-path="url(#a)">
<g transform="translate(390.25 165.24) rotate(75.724) scale(.08 -.08)">
<use xlink:href="#o"/>
</g>
</g>
<path d="m571.25 265.95 4.4197 3.2271q1.9383 1.4153 3.3536-0.52304l4.5657-6.253q1.4153-1.9383-0.52304-3.3536l-4.4197-3.2271q-1.9383-1.4153-3.3536 0.52304l-4.5657 6.253q-1.4153 1.9383 0.52304 3.3536z" clip-path="url(#a)" fill="#fff" stroke="#fff"/>
<g clip-path="url(#a)">
<g transform="translate(573.65 262.67) rotate(36.135) scale(.08 -.08)">
<use xlink:href="#o"/>
</g>
</g>
<path d="m304.29 220.79 3.0866-3.7069q1.5357-1.8443-0.30864-3.3801l-5.9499-4.9543q-1.8443-1.5357-3.38 0.30864l-3.0866 3.7069q-1.5357 1.8443 0.30864 3.3801l5.9499 4.9543q1.8443 1.5357 3.3801-0.30864z" clip-path="url(#a)" fill="#fff" stroke="#fff"/>
<g clip-path="url(#a)">
<g transform="translate(301.16 218.19) rotate(-50.217) scale(.08 -.08)">
<use xlink:href="#q"/>
</g>
</g>
<path d="m342.43 219.99 2.2389-4.9936q0.98188-2.19-1.2081-3.1718l-7.0649-3.1676q-2.19-0.98188-3.1718 1.2081l-2.2389 4.9936q-0.98188 2.19 1.2081 3.1718l7.0649 3.1676q2.19 0.98188 3.1718-1.2081z" clip-path="url(#a)" fill="#fff" stroke="#fff"/>
<g clip-path="url(#a)">
<g transform="translate(338.72 218.32) rotate(-65.851) scale(.08 -.08)">
<use xlink:href="#o"/>
</g>
</g>
<path d="m361.55 219.46 1.5288-5.9673q0.59565-2.3249-1.7293-2.9206l-7.5003-1.9216q-2.3249-0.59565-2.9206 1.7293l-1.5288 5.9673q-0.59565 2.3249 1.7293 2.9206l7.5003 1.9216q2.3249 0.59565 2.9206-1.7293z" clip-path="url(#a)" fill="#fff" stroke="#fff"/>
<g clip-path="url(#a)">
<g transform="translate(357.61 218.46) rotate(-75.63) scale(.08 -.08)">
<use xlink:href="#z"/>
</g>
</g>
<path d="m323.12 220.77 3.1579-4.9304q1.2945-2.021-0.72653-3.3154l-6.5198-4.176q-2.021-1.2945-3.3154 0.72653l-3.1579 4.9304q-1.2945 2.021 0.72653 3.3154l6.5198 4.176q2.021 1.2945 3.3154-0.72653z" clip-path="url(#a)" fill="#fff" stroke="#fff"/>
<g clip-path="url(#a)">
<g transform="translate(319.7 218.58) rotate(-57.36) scale(.08 -.08)">
<use xlink:href="#t"/>
</g>
</g>
<path d="m399.06 340.67v35.285q0 2.4 2.4 2.4h7.7425q2.4 0 2.4-2.4v-35.285q0-2.4-2.4-2.4h-7.7425q-2.4 0-2.4 2.4z" clip-path="url(#a)" fill="#fff" stroke="#fff"/>
<g clip-path="url(#a)">
<defs>
<path id="i" d="m-0.29688 72.906h61.672v-8.3125h-25.875v-64.594h-9.9062v64.594h-25.891z"/>
<path id="e" d="m56.203 29.594v-4.3906h-41.312q0.59375-9.2812 5.5938-14.141t13.938-4.8594q5.1719 0 10.031 1.2656t9.6562 3.8125v-8.5q-4.8438-2.0469-9.9219-3.125t-10.297-1.0781q-13.094 0-20.734 7.6094-7.6406 7.625-7.6406 20.625 0 13.422 7.25 21.297 7.25 7.8906 19.562 7.8906 11.031 0 17.453-7.1094 6.4219-7.0938 6.4219-19.297zm-8.9844 2.6406q-0.09375 7.3594-4.125 11.75-4.0312 4.4062-10.672 4.4062-7.5156 0-12.031-4.25t-5.2031-11.969z"/>
<path id="j" d="m41.109 46.297q-1.5156 0.875-3.2969 1.2812-1.7812 0.42188-3.9219 0.42188-7.625 0-11.703-4.9531t-4.0781-14.234v-28.812h-9.0312v54.688h9.0312v-8.5q2.8438 4.9844 7.375 7.3906 4.5469 2.4219 11.047 2.4219 0.92188 0 2.0469-0.125 1.125-0.10938 2.4844-0.35938z"/>
<path id="k" d="m52 44.188q3.375 6.0625 8.0625 8.9375t11.031 2.875q8.5469 0 13.188-5.9844 4.6406-5.9688 4.6406-17v-33.016h-9.0312v32.719q0 7.8594-2.7969 11.656-2.7812 3.8125-8.4844 3.8125-6.9844 0-11.047-4.6406-4.0469-4.625-4.0469-12.641v-30.906h-9.0312v32.719q0 7.9062-2.7812 11.688t-8.5938 3.7812q-6.8906 0-10.953-4.6562-4.0469-4.6562-4.0469-12.625v-30.906h-9.0312v54.688h9.0312v-8.5q3.0781 5.0312 7.375 7.4219t10.203 2.3906q5.9688 0 10.141-3.0312 4.1719-3.0156 6.1719-8.7812z"/>
<path id="g" d="m9.4219 54.688h8.9844v-54.688h-8.9844zm0 21.297h8.9844v-11.391h-8.9844z"/>
<path id="f" d="m54.891 33.016v-33.016h-8.9844v32.719q0 7.7656-3.0312 11.609-3.0312 3.8594-9.0781 3.8594-7.2812 0-11.484-4.6406-4.2031-4.625-4.2031-12.641v-30.906h-9.0312v54.688h9.0312v-8.5q3.2344 4.9375 7.5938 7.375 4.375 2.4375 10.094 2.4375 9.4219 0 14.25-5.8281 4.8438-5.8281 4.8438-17.156z"/>
<path id="h" d="m34.281 27.484q-10.891 0-15.094-2.4844t-4.2031-8.5q0-4.7812 3.1562-7.5938 3.1562-2.7969 8.5625-2.7969 7.4844 0 12 5.2969t4.5156 14.078v2zm17.922 3.7188v-31.203h-8.9844v8.2969q-3.0781-4.9688-7.6719-7.3438t-11.234-2.375q-8.3906 0-13.359 4.7188-4.9531 4.7188-4.9531 12.625 0 9.2188 6.1719 13.906 6.1875 4.6875 18.438 4.6875h12.609v0.89062q0 6.2031-4.0781 9.5938t-11.453 3.3906q-4.6875 0-9.1406-1.125-4.4375-1.125-8.5312-3.375v8.3125q4.9219 1.9062 9.5625 2.8438 4.6406 0.95312 9.0312 0.95312 11.875 0 17.734-6.1562 5.8594-6.1406 5.8594-18.641z"/>
<path id="l" d="m9.4219 75.984h8.9844v-75.984h-8.9844z"/>
</defs>
<g transform="translate(403.13 340.67) rotate(90) scale(.08 -.08)">
<use xlink:href="#i"/>
<use x="60.818359" xlink:href="#e"/>
<use x="122.341797" xlink:href="#j"/>
<use x="163.439453" xlink:href="#k"/>
<use x="260.851562" xlink:href="#g"/>
<use x="288.634766" xlink:href="#f"/>
<use x="352.013672" xlink:href="#h"/>
<use x="413.292969" xlink:href="#l"/>
</g>
</g>
<path d="m579.59 261.54 1.4667 5.2723q0.64324 2.3122 2.9554 1.669l7.4592-2.0751q2.3122-0.64324 1.669-2.9554l-1.4667-5.2723q-0.64324-2.3122-2.9554-1.669l-7.4592 2.0751q-2.3122 0.64324-1.669 2.9554z" clip-path="url(#a)" fill="#fff" stroke="#fff"/>
<g clip-path="url(#a)">
<g transform="translate(583.51 260.45) rotate(74.454) scale(.08 -.08)">
<use xlink:href="#o"/>
</g>
</g>
<path d="m506.6 173.32 3.2081-3.6023q1.5961-1.7923-0.19615-3.3884l-5.782-5.1492q-1.7923-1.5961-3.3884 0.19615l-3.2081 3.6023q-1.5961 1.7923 0.19615 3.3884l5.782 5.1492q1.7923 1.5961 3.3884-0.19615z" clip-path="url(#a)" fill="#fff" stroke="#fff"/>
<g clip-path="url(#a)">
<g transform="translate(503.56 170.62) rotate(-48.313) scale(.08 -.08)">
<use xlink:href="#q"/>
</g>
</g>
<path d="m543.11 165.02 0.34741 5.4615q0.15236 2.3952 2.5475 2.2428l7.7269-0.49152q2.3952-0.15236 2.2428-2.5475l-0.34741-5.4615q-0.15236-2.3952-2.5475-2.2428l-7.7269 0.49152q-2.3952 0.15236-2.2428 2.5475z" clip-path="url(#a)" fill="#fff" stroke="#fff"/>
<g clip-path="url(#a)">
<g transform="translate(547.17 164.76) rotate(86.36) scale(.08 -.08)">
<use xlink:href="#o"/>
</g>
</g>
<path d="m457.08 266.61 0.87408-4.5175q0.45592-2.3563-1.9004-2.8122l-7.6015-1.4708q-2.3563-0.45592-2.8122 1.9004l-0.87408 4.5175q-0.45592 2.3563 1.9004 2.8122l7.6015 1.4708q2.3563 0.45592 2.8122-1.9004z" clip-path="url(#a)" fill="#fff" stroke="#fff"/>
<g clip-path="url(#a)">
<defs>
<path id="al" d="m9.8125 72.906h41.891v-8.3125h-32.031v-21.484h28.906v-8.2969h-28.906v-34.812h-9.8594z"/>
</defs>
<g transform="translate(453.09 265.84) rotate(-79.049) scale(.08 -.08)">
<use xlink:href="#al"/>
</g>
</g>
<path d="m463.08 261.61 1.0612 5.4845q0.45592 2.3563 2.8122 1.9004l7.6015-1.4708q2.3563-0.45592 1.9004-2.8122l-1.0612-5.4845q-0.45592-2.3563-2.8122-1.9004l-7.6015 1.4708q-2.3563 0.45592-1.9004 2.8122z" clip-path="url(#a)" fill="#fff" stroke="#fff"/>
<g clip-path="url(#a)">
<defs>
<path id="r" d="m64.406 67.281v-10.391q-4.9844 4.6406-10.625 6.9219-5.6406 2.2969-11.984 2.2969-12.5 0-19.141-7.6406t-6.6406-22.094q0-14.406 6.6406-22.047t19.141-7.6406q6.3438 0 11.984 2.2969t10.625 6.9375v-10.312q-5.1719-3.5156-10.969-5.2812-5.7812-1.75-12.219-1.75-16.562 0-26.094 10.125-9.5156 10.141-9.5156 27.672 0 17.578 9.5156 27.703 9.5312 10.141 26.094 10.141 6.5312 0 12.312-1.7344 5.7969-1.7344 10.875-5.2031z"/>
</defs>
<g transform="translate(467.07 260.84) rotate(79.049) scale(.08 -.08)">
<use xlink:href="#r"/>
</g>
</g>
<path d="m539.14 267.78 1.8243-4.7143q0.86615-2.2383-1.3721-3.1044l-7.2207-2.7942q-2.2383-0.86615-3.1044 1.3721l-1.8243 4.7143q-0.86615 2.2383 1.3721 3.1044l7.2207 2.7942q2.2383 0.86615 3.1044-1.3721z" clip-path="url(#a)" fill="#fff" stroke="#fff"/>
<g clip-path="url(#a)">
<defs>
<path id="am" d="m9.8125 72.906h46.094v-8.3125h-36.234v-21.578h34.719v-8.2969h-34.719v-26.422h37.109v-8.2969h-46.969z"/>
</defs>
<g transform="translate(535.35 266.31) rotate(-68.845) scale(.08 -.08)">
<use xlink:href="#am"/>
</g>
</g>
<path d="m546.34 260.37v5.5862q0 2.4 2.4 2.4h7.7425q2.4 0 2.4-2.4v-5.5862q0-2.4-2.4-2.4h-7.7425q-2.4 0-2.4 2.4z" clip-path="url(#a)" fill="#fff" stroke="#fff"/>
<g clip-path="url(#a)">
<g transform="translate(550.41 260.37) rotate(90) scale(.08 -.08)">
<use xlink:href="#r"/>
</g>
</g>
<path d="m564.12 262.69 2.1131 5.4604q0.86615 2.2383 3.1044 1.3721l7.2207-2.7942q2.2383-0.86615 1.3721-3.1044l-2.1131-5.4604q-0.86615-2.2383-3.1044-1.3721l-7.2207 2.7942q-2.2383 0.86615-1.3721 3.1044z" clip-path="url(#a)" fill="#fff" stroke="#fff"/>
<g clip-path="url(#a)">
<g transform="translate(567.91 261.23) rotate(68.845) scale(.08 -.08)">
<use xlink:href="#t"/>
</g>
</g>
<path d="m509.52 340.67v35.285q0 2.4 2.4 2.4h7.7425q2.4 0 2.4-2.4v-35.285q0-2.4-2.4-2.4h-7.7425q-2.4 0-2.4 2.4z" clip-path="url(#a)" fill="#fff" stroke="#fff"/>
<g clip-path="url(#a)">
<g transform="translate(513.59 340.67) rotate(90) scale(.08 -.08)">
<use xlink:href="#i"/>
<use x="60.818359" xlink:href="#e"/>
<use x="122.341797" xlink:href="#j"/>
<use x="163.439453" xlink:href="#k"/>
<use x="260.851562" xlink:href="#g"/>
<use x="288.634766" xlink:href="#f"/>
<use x="352.013672" xlink:href="#h"/>
<use x="413.292969" xlink:href="#l"/>
</g>
</g>
<path d="m546.34 340.67v35.285q0 2.4 2.4 2.4h7.7425q2.4 0 2.4-2.4v-35.285q0-2.4-2.4-2.4h-7.7425q-2.4 0-2.4 2.4z" clip-path="url(#a)" fill="#fff" stroke="#fff"/>
<g clip-path="url(#a)">
<g transform="translate(550.41 340.67) rotate(90) scale(.08 -.08)">
<use xlink:href="#i"/>
<use x="60.818359" xlink:href="#e"/>
<use x="122.341797" xlink:href="#j"/>
<use x="163.439453" xlink:href="#k"/>
<use x="260.851562" xlink:href="#g"/>
<use x="288.634766" xlink:href="#f"/>
<use x="352.013672" xlink:href="#h"/>
<use x="413.292969" xlink:href="#l"/>
</g>
</g>
<path d="m435.88 340.67v35.285q0 2.4 2.4 2.4h7.7425q2.4 0 2.4-2.4v-35.285q0-2.4-2.4-2.4h-7.7425q-2.4 0-2.4 2.4z" clip-path="url(#a)" fill="#fff" stroke="#fff"/>
<g clip-path="url(#a)">
<g transform="translate(439.95 340.67) rotate(90) scale(.08 -.08)">
<use xlink:href="#i"/>
<use x="60.818359" xlink:href="#e"/>
<use x="122.341797" xlink:href="#j"/>
<use x="163.439453" xlink:href="#k"/>
<use x="260.851562" xlink:href="#g"/>
<use x="288.634766" xlink:href="#f"/>
<use x="352.013672" xlink:href="#h"/>
<use x="413.292969" xlink:href="#l"/>
</g>
</g>
<path d="m472.7 340.67v35.285q0 2.4 2.4 2.4h7.7425q2.4 0 2.4-2.4v-35.285q0-2.4-2.4-2.4h-7.7425q-2.4 0-2.4 2.4z" clip-path="url(#a)" fill="#fff" stroke="#fff"/>
<g clip-path="url(#a)">
<g transform="translate(476.77 340.67) rotate(90) scale(.08 -.08)">
<use xlink:href="#i"/>
<use x="60.818359" xlink:href="#e"/>
<use x="122.341797" xlink:href="#j"/>
<use x="163.439453" xlink:href="#k"/>
<use x="260.851562" xlink:href="#g"/>
<use x="288.634766" xlink:href="#f"/>
<use x="352.013672" xlink:href="#h"/>
<use x="413.292969" xlink:href="#l"/>
</g>
</g>
<path d="m214.96 340.67v35.285q0 2.4 2.4 2.4h7.7425q2.4 0 2.4-2.4v-35.285q0-2.4-2.4-2.4h-7.7425q-2.4 0-2.4 2.4z" clip-path="url(#a)" fill="#fff" stroke="#fff"/>
<g clip-path="url(#a)">
<g transform="translate(219.03 340.67) rotate(90) scale(.08 -.08)">
<use xlink:href="#i"/>
<use x="60.818359" xlink:href="#e"/>
<use x="122.341797" xlink:href="#j"/>
<use x="163.439453" xlink:href="#k"/>
<use x="260.851562" xlink:href="#g"/>
<use x="288.634766" xlink:href="#f"/>
<use x="352.013672" xlink:href="#h"/>
<use x="413.292969" xlink:href="#l"/>
</g>
</g>
<path d="m288.6 340.67v35.285q0 2.4 2.4 2.4h7.7425q2.4 0 2.4-2.4v-35.285q0-2.4-2.4-2.4h-7.7425q-2.4 0-2.4 2.4z" clip-path="url(#a)" fill="#fff" stroke="#fff"/>
<g clip-path="url(#a)">
<g transform="translate(292.67 340.67) rotate(90) scale(.08 -.08)">
<use xlink:href="#i"/>
<use x="60.818359" xlink:href="#e"/>
<use x="122.341797" xlink:href="#j"/>
<use x="163.439453" xlink:href="#k"/>
<use x="260.851562" xlink:href="#g"/>
<use x="288.634766" xlink:href="#f"/>
<use x="352.013672" xlink:href="#h"/>
<use x="413.292969" xlink:href="#l"/>
</g>
</g>
<path d="m325.42 340.67v35.285q0 2.4 2.4 2.4h7.7425q2.4 0 2.4-2.4v-35.285q0-2.4-2.4-2.4h-7.7425q-2.4 0-2.4 2.4z" clip-path="url(#a)" fill="#fff" stroke="#fff"/>
<g clip-path="url(#a)">
<g transform="translate(329.49 340.67) rotate(90) scale(.08 -.08)">
<use xlink:href="#i"/>
<use x="60.818359" xlink:href="#e"/>
<use x="122.341797" xlink:href="#j"/>
<use x="163.439453" xlink:href="#k"/>
<use x="260.851562" xlink:href="#g"/>
<use x="288.634766" xlink:href="#f"/>
<use x="352.013672" xlink:href="#h"/>
<use x="413.292969" xlink:href="#l"/>
</g>
</g>
<path d="m67.681 340.67v35.285q0 2.4 2.4 2.4h7.7425q2.4 0 2.4-2.4v-35.285q0-2.4-2.4-2.4h-7.7425q-2.4 0-2.4 2.4z" clip-path="url(#a)" fill="#fff" stroke="#fff"/>
<g clip-path="url(#a)">
<g transform="translate(71.744 340.67) rotate(90) scale(.08 -.08)">
<use xlink:href="#i"/>
<use x="60.818359" xlink:href="#e"/>
<use x="122.341797" xlink:href="#j"/>
<use x="163.439453" xlink:href="#k"/>
<use x="260.851562" xlink:href="#g"/>
<use x="288.634766" xlink:href="#f"/>
<use x="352.013672" xlink:href="#h"/>
<use x="413.292969" xlink:href="#l"/>
</g>
</g>
<path d="m30.86 340.67v35.285q0 2.4 2.4 2.4h7.7425q2.4 0 2.4-2.4v-35.285q0-2.4-2.4-2.4h-7.7425q-2.4 0-2.4 2.4z" clip-path="url(#a)" fill="#fff" stroke="#fff"/>
<g clip-path="url(#a)">
<g transform="translate(34.924 340.67) rotate(90) scale(.08 -.08)">
<use xlink:href="#i"/>
<use x="60.818359" xlink:href="#e"/>
<use x="122.341797" xlink:href="#j"/>
<use x="163.439453" xlink:href="#k"/>
<use x="260.851562" xlink:href="#g"/>
<use x="288.634766" xlink:href="#f"/>
<use x="352.013672" xlink:href="#h"/>
<use x="413.292969" xlink:href="#l"/>
</g>
</g>
<path d="m141.32 340.67v35.285q0 2.4 2.4 2.4h7.7425q2.4 0 2.4-2.4v-35.285q0-2.4-2.4-2.4h-7.7425q-2.4 0-2.4 2.4z" clip-path="url(#a)" fill="#fff" stroke="#fff"/>
<g clip-path="url(#a)">
<g transform="translate(145.38 340.67) rotate(90) scale(.08 -.08)">
<use xlink:href="#i"/>
<use x="60.818359" xlink:href="#e"/>
<use x="122.341797" xlink:href="#j"/>
<use x="163.439453" xlink:href="#k"/>
<use x="260.851562" xlink:href="#g"/>
<use x="288.634766" xlink:href="#f"/>
<use x="352.013672" xlink:href="#h"/>
<use x="413.292969" xlink:href="#l"/>
</g>
</g>
<path d="m433.79 124.48 2.3318-9.6549q0.56344-2.3329-1.7695-2.8964l-7.5261-1.8177q-2.3329-0.56344-2.8964 1.7695l-2.3318 9.6549q-0.56344 2.3329 1.7695 2.8964l7.5261 1.8177q2.3329 0.56344 2.8964-1.7695z" clip-path="url(#a)" fill="#fff" stroke="#fff"/>
<g clip-path="url(#a)">
<g transform="translate(429.84 123.53) rotate(-76.422) scale(.08 -.08)">
<use xlink:href="#n"/>
<use x="55.744141" xlink:href="#o"/>
</g>
</g>
<path d="m434.25 171.71 1.6043-9.8869q0.3844-2.369-1.9846-2.7534l-7.6425-1.2401q-2.369-0.3844-2.7534 1.9846l-1.6043 9.8869q-0.3844 2.369 1.9846 2.7534l7.6425 1.2401q2.369 0.3844 2.7534-1.9846z" clip-path="url(#a)" fill="#fff" stroke="#fff"/>
<g clip-path="url(#a)">
<defs>
<path id="ak" d="m44.391 34.188q3.1719-1.0781 6.1719-4.5938t6.0312-9.6719l10.016-19.922h-10.609l-9.3125 18.703q-3.625 7.3281-7.0156 9.7188t-9.25 2.3906h-10.75v-30.812h-9.8594v72.906h22.266q12.5 0 18.656-5.2344 6.1562-5.2188 6.1562-15.766 0-6.8906-3.2031-11.438-3.2031-4.5312-9.2969-6.2812zm-24.719 30.609v-25.875h12.406q7.125 0 10.766 3.2969t3.6406 9.6875-3.6406 9.6406-10.766 3.25z"/>
</defs>
<g transform="translate(430.23 171.06) rotate(-80.783) scale(.08 -.08)">
<use xlink:href="#n"/>
<use x="55.712891" xlink:href="#ak"/>
</g>
</g>
<path d="m491.46 70.697 6.8672 7.1761q1.6593 1.734 3.3933 0.074655l5.5939-5.353q1.734-1.6593 0.074655-3.3933l-6.8672-7.1761q-1.6593-1.734-3.3933-0.074655l-5.5939 5.353q-1.734 1.6593-0.074655 3.3933z" clip-path="url(#a)" fill="#fff" stroke="#fff"/>
<g clip-path="url(#a)">
<g transform="translate(494.4 67.887) rotate(46.26) scale(.08 -.08)">
<use xlink:href="#n"/>
<use x="55.744141" xlink:href="#o"/>
</g>
</g>
<path d="m104.5 340.67v35.285q0 2.4 2.4 2.4h7.7425q2.4 0 2.4-2.4v-35.285q0-2.4-2.4-2.4h-7.7425q-2.4 0-2.4 2.4z" clip-path="url(#a)" fill="#fff" stroke="#fff"/>
<g clip-path="url(#a)">
<g transform="translate(108.56 340.67) rotate(90) scale(.08 -.08)">
<use xlink:href="#i"/>
<use x="60.818359" xlink:href="#e"/>
<use x="122.341797" xlink:href="#j"/>
<use x="163.439453" xlink:href="#k"/>
<use x="260.851562" xlink:href="#g"/>
<use x="288.634766" xlink:href="#f"/>
<use x="352.013672" xlink:href="#h"/>
<use x="413.292969" xlink:href="#l"/>
</g>
</g>
<path d="m178.14 340.67v35.285q0 2.4 2.4 2.4h7.7425q2.4 0 2.4-2.4v-35.285q0-2.4-2.4-2.4h-7.7425q-2.4 0-2.4 2.4z" clip-path="url(#a)" fill="#fff" stroke="#fff"/>
<g clip-path="url(#a)">
<g transform="translate(182.2 340.67) rotate(90) scale(.08 -.08)">
<use xlink:href="#i"/>
<use x="60.818359" xlink:href="#e"/>
<use x="122.341797" xlink:href="#j"/>
<use x="163.439453" xlink:href="#k"/>
<use x="260.851562" xlink:href="#g"/>
<use x="288.634766" xlink:href="#f"/>
<use x="352.013672" xlink:href="#h"/>
<use x="413.292969" xlink:href="#l"/>
</g>
</g>
<path d="m251.78 340.67v35.285q0 2.4 2.4 2.4h7.7425q2.4 0 2.4-2.4v-35.285q0-2.4-2.4-2.4h-7.7425q-2.4 0-2.4 2.4z" clip-path="url(#a)" fill="#fff" stroke="#fff"/>
<g clip-path="url(#a)">
<g transform="translate(255.85 340.67) rotate(90) scale(.08 -.08)">
<use xlink:href="#i"/>
<use x="60.818359" xlink:href="#e"/>
<use x="122.341797" xlink:href="#j"/>
<use x="163.439453" xlink:href="#k"/>
<use x="260.851562" xlink:href="#g"/>
<use x="288.634766" xlink:href="#f"/>
<use x="352.013672" xlink:href="#h"/>
<use x="413.292969" xlink:href="#l"/>
</g>
</g>
<path d="m362.24 340.67v35.285q0 2.4 2.4 2.4h7.7425q2.4 0 2.4-2.4v-35.285q0-2.4-2.4-2.4h-7.7425q-2.4 0-2.4 2.4z" clip-path="url(#a)" fill="#fff" stroke="#fff"/>
<g clip-path="url(#a)">
<g transform="translate(366.31 340.67) rotate(90) scale(.08 -.08)">
<use xlink:href="#i"/>
<use x="60.818359" xlink:href="#e"/>
<use x="122.341797" xlink:href="#j"/>
<use x="163.439453" xlink:href="#k"/>
<use x="260.851562" xlink:href="#g"/>
<use x="288.634766" xlink:href="#f"/>
<use x="352.013672" xlink:href="#h"/>
<use x="413.292969" xlink:href="#l"/>
</g>
</g>
<path d="m583.16 340.67v35.285q0 2.4 2.4 2.4h7.7425q2.4 0 2.4-2.4v-35.285q0-2.4-2.4-2.4h-7.7425q-2.4 0-2.4 2.4z" clip-path="url(#a)" fill="#fff" stroke="#fff"/>
<g clip-path="url(#a)">
<g transform="translate(587.23 340.67) rotate(90) scale(.08 -.08)">
<use xlink:href="#i"/>
<use x="60.818359" xlink:href="#e"/>
<use x="122.341797" xlink:href="#j"/>
<use x="163.439453" xlink:href="#k"/>
<use x="260.851562" xlink:href="#g"/>
<use x="288.634766" xlink:href="#f"/>
<use x="352.013672" xlink:href="#h"/>
<use x="413.292969" xlink:href="#l"/>
</g>
</g>
<defs>
<path id="b" d="m0 8.6603c2.2967 0 4.4997-0.9125 6.1237-2.5365 1.624-1.624 2.5365-3.827 2.5365-6.1237s-0.9125-4.4997-2.5365-6.1237c-1.624-1.624-3.827-2.5365-6.1237-2.5365s-4.4997 0.9125-6.1237 2.5365c-1.624 1.624-2.5365 3.827-2.5365 6.1237s0.9125 4.4997 2.5365 6.1237c1.624 1.624 3.827 2.5365 6.1237 2.5365z"/>
</defs>
<g clip-path="url(#a)">
<use x="37.131694" y="405.882214" fill="#ffffff" stroke="#ffffff" xlink:href="#b"/>
</g>
<g clip-path="url(#a)">
<use x="73.951857" y="405.882214" fill="#ffffff" stroke="#ffffff" xlink:href="#b"/>
</g>
<g clip-path="url(#a)">
<use x="110.772021" y="405.882214" fill="#ffffff" stroke="#ffffff" xlink:href="#b"/>
</g>
<g clip-path="url(#a)">
<use x="147.592185" y="405.882214" fill="#ffffff" stroke="#ffffff" xlink:href="#b"/>
</g>
<g clip-path="url(#a)">
<use x="184.412349" y="405.882214" fill="#ffffff" stroke="#ffffff" xlink:href="#b"/>
</g>
<g clip-path="url(#a)">
<use x="221.232513" y="405.882214" fill="#ffffff" stroke="#ffffff" xlink:href="#b"/>
</g>
<g clip-path="url(#a)">
<use x="258.052677" y="405.882214" fill="#ffffff" stroke="#ffffff" xlink:href="#b"/>
</g>
<g clip-path="url(#a)">
<use x="294.872841" y="405.882214" fill="#ffffff" stroke="#ffffff" xlink:href="#b"/>
</g>
<g clip-path="url(#a)">
<use x="331.693005" y="405.882214" fill="#ffffff" stroke="#ffffff" xlink:href="#b"/>
</g>
<g clip-path="url(#a)">
<use x="368.513169" y="405.882214" fill="#ffffff" stroke="#ffffff" xlink:href="#b"/>
</g>
<g clip-path="url(#a)">
<use x="405.333333" y="405.882214" fill="#ffffff" stroke="#ffffff" xlink:href="#b"/>
</g>
<g clip-path="url(#a)">
<use x="442.153497" y="405.882214" fill="#ffffff" stroke="#ffffff" xlink:href="#b"/>
</g>
<g clip-path="url(#a)">
<use x="478.973661" y="405.882214" fill="#ffffff" stroke="#ffffff" xlink:href="#b"/>
</g>
<g clip-path="url(#a)">
<use x="515.793825" y="405.882214" fill="#ffffff" stroke="#ffffff" xlink:href="#b"/>
</g>
<g clip-path="url(#a)">
<use x="552.613989" y="405.882214" fill="#ffffff" stroke="#ffffff" xlink:href="#b"/>
</g>
<g clip-path="url(#a)">
<use x="589.434153" y="405.882214" fill="#ffffff" stroke="#ffffff" xlink:href="#b"/>
</g>
<g clip-path="url(#a)">
<use x="332.569676" y="20.784453" fill="#ffffff" stroke="#ffffff" xlink:href="#b"/>
</g>
<g clip-path="url(#a)">
<use x="405.333333" y="215.585769" fill="#ffffff" stroke="#ffffff" xlink:href="#b"/>
</g>
<g clip-path="url(#a)">
<use x="380.786557" y="119.11393" fill="#ffffff" stroke="#ffffff" xlink:href="#b"/>
</g>
<g clip-path="url(#a)">
<use x="405.333333" y="310.733991" fill="#ffffff" stroke="#ffffff" xlink:href="#b"/>
</g>
<g clip-path="url(#a)">
<use x="546.477295" y="119.11393" fill="#ffffff" stroke="#ffffff" xlink:href="#b"/>
</g>
<g clip-path="url(#a)">
<use x="626.254317" y="405.882214" fill="#ffffff" stroke="#ffffff" xlink:href="#b"/>
</g>
<g clip-path="url(#a)">
<use x="460.563579" y="215.585769" fill="#ffffff" stroke="#ffffff" xlink:href="#b"/>
</g>
<g clip-path="url(#a)">
<use x="552.613989" y="215.585769" fill="#ffffff" stroke="#ffffff" xlink:href="#b"/>
</g>
<g clip-path="url(#a)">
<use x="515.793825" y="310.733991" fill="#ffffff" stroke="#ffffff" xlink:href="#b"/>
</g>
<g clip-path="url(#a)">
<use x="552.613989" y="310.733991" fill="#ffffff" stroke="#ffffff" xlink:href="#b"/>
</g>
<g clip-path="url(#a)">
<use x="442.153497" y="310.733991" fill="#ffffff" stroke="#ffffff" xlink:href="#b"/>
</g>
<g clip-path="url(#a)">
<use x="478.973661" y="310.733991" fill="#ffffff" stroke="#ffffff" xlink:href="#b"/>
</g>
<g clip-path="url(#a)">
<use x="773.534973" y="405.882214" fill="#ffffff" stroke="#ffffff" xlink:href="#b"/>
</g>
<g clip-path="url(#a)">
<use x="221.232513" y="310.733991" fill="#ffffff" stroke="#ffffff" xlink:href="#b"/>
</g>
<g clip-path="url(#a)">
<use x="294.872841" y="310.733991" fill="#ffffff" stroke="#ffffff" xlink:href="#b"/>
</g>
<g clip-path="url(#a)">
<use x="331.693005" y="310.733991" fill="#ffffff" stroke="#ffffff" xlink:href="#b"/>
</g>
<g clip-path="url(#a)">
<use x="736.714809" y="405.882214" fill="#ffffff" stroke="#ffffff" xlink:href="#b"/>
</g>
<g clip-path="url(#a)">
<use x="699.894645" y="405.882214" fill="#ffffff" stroke="#ffffff" xlink:href="#b"/>
</g>
<g clip-path="url(#a)">
<use x="663.074481" y="405.882214" fill="#ffffff" stroke="#ffffff" xlink:href="#b"/>
</g>
<g clip-path="url(#a)">
<use x="73.951857" y="310.733991" fill="#ffffff" stroke="#ffffff" xlink:href="#b"/>
</g>
<g clip-path="url(#a)">
<use x="37.131694" y="310.733991" fill="#ffffff" stroke="#ffffff" xlink:href="#b"/>
</g>
<g clip-path="url(#a)">
<use x="147.592185" y="310.733991" fill="#ffffff" stroke="#ffffff" xlink:href="#b"/>
</g>
<g clip-path="url(#a)">
<use x="452.381321" y="20.784453" fill="#808080" stroke="#808080" xlink:href="#b"/>
</g>
<g clip-path="url(#a)">
<use x="110.772021" y="310.733991" fill="#ffffff" stroke="#ffffff" xlink:href="#b"/>
</g>
<g clip-path="url(#a)">
<use x="184.412349" y="310.733991" fill="#ffffff" stroke="#ffffff" xlink:href="#b"/>
</g>
<g clip-path="url(#a)">
<use x="258.052677" y="310.733991" fill="#ffffff" stroke="#ffffff" xlink:href="#b"/>
</g>
<g clip-path="url(#a)">
<use x="368.513169" y="310.733991" fill="#ffffff" stroke="#ffffff" xlink:href="#b"/>
</g>
<g clip-path="url(#a)">
<use x="589.434153" y="310.733991" fill="#ffffff" stroke="#ffffff" xlink:href="#b"/>
</g>
<g clip-path="url(#a)">
<defs>
<path id="aj" d="m4.8906 30.906h40.234v-7.0312h-40.234z"/>
</defs>
<g transform="translate(34.632 408.64) scale(.1 -.1)">
<use xlink:href="#aj"/>
</g>
</g>
<g clip-path="url(#a)">
<defs>
<path id="ai" d="m53.516 70.516v-9.625q-5.6094 2.6875-10.594 4-4.9844 1.3281-9.625 1.3281-8.0469 0-12.422-3.125t-4.375-8.8906q0-4.8438 2.9062-7.3125 2.9062-2.4531 11.016-3.9688l5.9531-1.2188q11.031-2.1094 16.281-7.4062t5.25-14.172q0-10.609-7.1094-16.078-7.0938-5.4688-20.812-5.4688-5.1719 0-11.016 1.1719-5.8281 1.1719-12.078 3.4688v10.156q6-3.3594 11.766-5.0781 5.7656-1.7031 11.328-1.7031 8.4375 0 13.031 3.3125 4.5938 3.3281 4.5938 9.4844 0 5.3594-3.2969 8.3906t-10.812 4.5469l-6.0156 1.1719q-11.031 2.1875-15.969 6.875-4.9219 4.6875-4.9219 13.047 0 9.6719 6.8125 15.234t18.766 5.5625q5.1406 0 10.453-0.9375 5.3281-0.92188 10.891-2.7656z"/>
</defs>
<g transform="translate(69.389 408.64) scale(.1 -.1)">
<use xlink:href="#ai"/>
<use x="63.476562" xlink:href="#g"/>
</g>
</g>
<g clip-path="url(#a)">
<defs>
<path id="d" d="m10.688 12.406h10.312v-12.406h-10.312z"/>
</defs>
<g transform="translate(106 408.64) scale(.1 -.1)">
<use xlink:href="#d"/>
<use x="31.787109" xlink:href="#d"/>
<use x="63.574219" xlink:href="#d"/>
</g>
</g>
<g clip-path="url(#a)">
<defs>
<path id="x" d="m48.781 52.594v-8.4062q-3.8125 2.1094-7.6406 3.1562t-7.7344 1.0469q-8.75 0-13.594-5.5469-4.8281-5.5312-4.8281-15.547t4.8281-15.562q4.8438-5.5312 13.594-5.5312 3.9062 0 7.7344 1.0469t7.6406 3.1562v-8.3125q-3.7656-1.75-7.7969-2.625-4.0156-0.89062-8.5625-0.89062-12.359 0-19.641 7.7656-7.2656 7.7656-7.2656 20.953 0 13.375 7.3438 21.031 7.3594 7.6719 20.156 7.6719 4.1406 0 8.0938-0.85938 3.9531-0.84375 7.6719-2.5469z"/>
<path id="v" d="m18.312 70.219v-15.531h18.5v-6.9844h-18.5v-29.688q0-6.6875 1.8281-8.5938t7.4531-1.9062h9.2188v-7.5156h-9.2188q-10.406 0-14.359 3.875-3.9531 3.8906-3.9531 14.141v29.688h-6.5938v6.9844h6.5938v15.531z"/>
</defs>
<g transform="translate(113.98 408.64) scale(.1 -.1)">
<use xlink:href="#x"/>
<use x="54.980469" xlink:href="#e"/>
<use x="116.503906" xlink:href="#j"/>
<use x="157.617188" xlink:href="#v"/>
<use x="196.826172" xlink:href="#h"/>
<use x="258.105469" xlink:href="#g"/>
<use x="285.888672" xlink:href="#f"/>
<use x="349.267578" xlink:href="#e"/>
<use x="410.791016" xlink:href="#k"/>
<use x="508.203125" xlink:href="#e"/>
<use x="569.726562" xlink:href="#f"/>
<use x="633.105469" xlink:href="#v"/>
</g>
</g>
<g clip-path="url(#a)">
<g transform="translate(179.65 408.64) scale(.1 -.1)">
<use xlink:href="#d"/>
<use x="31.787109" xlink:href="#d"/>
<use x="63.574219" xlink:href="#d"/>
</g>
</g>
<g clip-path="url(#a)">
<defs>
<path id="af" d="m56.203 29.594v-4.3906h-41.312q0.59375-9.2812 5.5938-14.141t13.938-4.8594q5.1719 0 10.031 1.2656t9.6562 3.8125v-8.5q-4.8438-2.0469-9.9219-3.125t-10.297-1.0781q-13.094 0-20.734 7.6094-7.6406 7.625-7.6406 20.625 0 13.422 7.25 21.297 7.25 7.8906 19.562 7.8906 11.031 0 17.453-7.1094 6.4219-7.0938 6.4219-19.297zm-8.9844 2.6406q-0.09375 7.3594-4.125 11.75-4.0312 4.4062-10.672 4.4062-7.5156 0-12.031-4.25t-5.2031-11.969zm-8.6875 47.75h9.7188l-15.906-18.359h-7.4844z"/>
<path id="as" d="m18.109 8.2031v-29h-9.0312v75.484h9.0312v-8.2969q2.8438 4.875 7.1562 7.2344 4.3281 2.375 10.328 2.375 9.9688 0 16.188-7.9062 6.2344-7.9062 6.2344-20.797t-6.2344-20.812q-6.2188-7.9062-16.188-7.9062-6 0-10.328 2.375-4.3125 2.375-7.1562 7.25zm30.578 19.094q0 9.9062-4.0781 15.547t-11.203 5.6406q-7.1406 0-11.219-5.6406t-4.0781-15.547 4.0781-15.547 11.219-5.6406q7.125 0 11.203 5.6406t4.0781 15.547z"/>
<path id="ah" d="m30.609 48.391q-7.2188 0-11.422-5.6406t-4.2031-15.453 4.1719-15.453q4.1875-5.6406 11.453-5.6406 7.1875 0 11.375 5.6562 4.2031 5.6719 4.2031 15.438 0 9.7188-4.2031 15.406-4.1875 5.6875-11.375 5.6875zm0 7.6094q11.719 0 18.406-7.625 6.7031-7.6094 6.7031-21.078 0-13.422-6.7031-21.078-6.6875-7.6406-18.406-7.6406-11.766 0-18.438 7.6406-6.6562 7.6562-6.6562 21.078 0 13.469 6.6562 21.078 6.6719 7.625 18.438 7.625z"/>
<path id="aw" d="m45.406 46.391v29.594h8.9844v-75.984h-8.9844v8.2031q-2.8281-4.875-7.1562-7.25-4.3125-2.375-10.375-2.375-9.9062 0-16.141 7.9062-6.2188 7.9219-6.2188 20.812t6.2188 20.797q6.2344 7.9062 16.141 7.9062 6.0625 0 10.375-2.375 4.3281-2.3594 7.1562-7.2344zm-30.609-19.094q0-9.9062 4.0781-15.547t11.203-5.6406 11.219 5.6406q4.1094 5.6406 4.1094 15.547t-4.1094 15.547q-4.0938 5.6406-11.219 5.6406t-11.203-5.6406-4.0781-15.547z"/>
<path id="w" d="m44.281 53.078v-8.5q-3.7969 1.9531-7.9062 2.9219-4.0938 0.98438-8.5 0.98438-6.6875 0-10.031-2.0469t-3.3438-6.1562q0-3.125 2.3906-4.9062t9.625-3.3906l3.0781-0.6875q9.5625-2.0469 13.594-5.7812t4.0312-10.422q0-7.625-6.0312-12.078-6.0312-4.4375-16.578-4.4375-4.3906 0-9.1562 0.85938t-10.031 2.5625v9.2812q4.9844-2.5938 9.8125-3.8906 4.8281-1.2812 9.5781-1.2812 6.3438 0 9.75 2.1719 3.4219 2.1719 3.4219 6.125 0 3.6562-2.4688 5.6094-2.4531 1.9531-10.812 3.7656l-3.125 0.73438q-8.3438 1.75-12.062 5.3906-3.7031 3.6406-3.7031 9.9844 0 7.7188 5.4688 11.906 5.4688 4.2031 15.531 4.2031 4.9688 0 9.3594-0.73438 4.4062-0.71875 8.1094-2.1875z"/>
</defs>
<g transform="translate(199.53 408.84) scale(.1 -.1)">
<use xlink:href="#j"/>
<use x="41.082031" xlink:href="#af"/>
<use x="102.605469" xlink:href="#as"/>
<use x="166.082031" xlink:href="#ah"/>
<use x="227.263672" xlink:href="#f"/>
<use x="290.642578" xlink:href="#aw"/>
<use x="354.119141" xlink:href="#g"/>
<use x="381.902344" xlink:href="#w"/>
</g>
</g>
<g clip-path="url(#a)">
<defs>
<path id="ap" d="m4.8906 31.391h26.312v-8h-26.312z"/>
</defs>
<g transform="translate(256.25 408.64) scale(.1 -.1)">
<use xlink:href="#ap"/>
</g>
</g>
<g clip-path="url(#a)">
<defs>
<path id="at" d="m9.4219 54.688h8.9844v-55.672q0-10.438-3.9844-15.125-3.9688-4.6875-12.812-4.6875h-3.4219v7.6094h2.4062q5.125 0 6.9688 2.375 1.8594 2.3594 1.8594 9.8281zm0 21.297h8.9844v-11.391h-8.9844z"/>
</defs>
<g transform="translate(290.41 408.64) scale(.1 -.1)">
<use xlink:href="#at"/>
<use x="27.783203" xlink:href="#e"/>
</g>
</g>
<g clip-path="url(#a)">
<defs>
<path id="ag" d="m2.9844 54.688h9.5156l17.094-45.891 17.094 45.891h9.5156l-20.516-54.688h-12.203z"/>
</defs>
<g transform="translate(299.49 408.64) scale(.1 -.1)">
<use xlink:href="#af"/>
<use x="61.523438" xlink:href="#ag"/>
<use x="120.703125" xlink:href="#h"/>
<use x="181.982422" xlink:href="#w"/>
<use x="234.082031" xlink:href="#g"/>
<use x="261.865234" xlink:href="#ag"/>
<use x="321.044922" xlink:href="#e"/>
<use x="382.568359" xlink:href="#k"/>
<use x="479.980469" xlink:href="#e"/>
<use x="541.503906" xlink:href="#f"/>
<use x="604.882812" xlink:href="#v"/>
</g>
</g>
<g clip-path="url(#a)">
<defs>
<path id="aq" d="m11.719 12.406h10.297v-8.4062l-8-15.625h-6.2969l4 15.625z"/>
</defs>
<g transform="translate(366.92 408.64) scale(.1 -.1)">
<use xlink:href="#aq"/>
</g>
</g>
<g clip-path="url(#a)">
<g transform="translate(393.41 408.64) scale(.1 -.1)">
<use xlink:href="#k"/>
<use x="97.412109" xlink:href="#h"/>
<use x="158.691406" xlink:href="#g"/>
<use x="186.474609" xlink:href="#w"/>
</g>
</g>
<g clip-path="url(#a)">
<g transform="translate(435.91 408.64) scale(.1 -.1)">
<use xlink:href="#e"/>
<use x="61.523438" xlink:href="#f"/>
</g>
</g>
<g clip-path="url(#a)">
<defs>
<path id="av" d="m37.109 75.984v-7.4844h-8.5938q-4.8281 0-6.7188-1.9531-1.875-1.9531-1.875-7.0312v-4.8281h14.797v-6.9844h-14.797v-47.703h-9.0312v47.703h-8.5938v6.9844h8.5938v3.8125q0 9.125 4.25 13.297 4.25 4.1875 13.469 4.1875z"/>
</defs>
<g transform="translate(461.96 408.64) scale(.1 -.1)">
<use xlink:href="#av"/>
<use x="35.205078" xlink:href="#h"/>
<use x="96.484375" xlink:href="#g"/>
<use x="124.267578" xlink:href="#w"/>
<use x="176.367188" xlink:href="#h"/>
<use x="237.646484" xlink:href="#f"/>
<use x="301.025391" xlink:href="#v"/>
</g>
</g>
<g clip-path="url(#a)">
<defs>
<path id="ar" d="m8.5 21.578v33.109h8.9844v-32.766q0-7.7656 3.0156-11.656 3.0312-3.875 9.0938-3.875 7.2656 0 11.484 4.6406 4.2344 4.6406 4.2344 12.656v31h8.9844v-54.688h-8.9844v8.4062q-3.2656-4.9844-7.5938-7.4062-4.3125-2.4219-10.031-2.4219-9.4219 0-14.312 5.8594-4.875 5.8594-4.875 17.141z"/>
</defs>
<g transform="translate(509.46 408.64) scale(.1 -.1)">
<use xlink:href="#ar"/>
<use x="63.378906" xlink:href="#f"/>
</g>
</g>
<g clip-path="url(#a)">
<defs>
<path id="au" d="m54.891 33.016v-33.016h-8.9844v32.719q0 7.7656-3.0312 11.609-3.0312 3.8594-9.0781 3.8594-7.2812 0-11.484-4.6406-4.2031-4.625-4.2031-12.641v-30.906h-9.0312v75.984h9.0312v-29.797q3.2344 4.9375 7.5938 7.375 4.375 2.4375 10.094 2.4375 9.4219 0 14.25-5.8281 4.8438-5.8281 4.8438-17.156z"/>
</defs>
<g transform="translate(533.8 408.64) scale(.1 -.1)">
<use xlink:href="#x"/>
<use x="54.980469" xlink:href="#j"/>
<use x="96.0625" xlink:href="#ah"/>
<use x="157.244141" xlink:href="#x"/>
<use x="212.224609" xlink:href="#au"/>
<use x="275.603516" xlink:href="#e"/>
<use x="337.126953" xlink:href="#v"/>
</g>
</g>
<g clip-path="url(#a)">
<g transform="translate(587.85 408.64) scale(.1 -.1)">
<use xlink:href="#d"/>
</g>
</g>
<g clip-path="url(#a)">
<defs>
<path id="c" d="m12.406 8.2969h16.109v55.625l-17.531-3.5156v8.9844l17.438 3.5156h9.8594v-64.609h16.109v-8.2969h-41.984z"/>
</defs>
<g transform="translate(324.62 23.544) scale(.1 -.1)">
<use xlink:href="#c"/>
<use x="63.623047" xlink:href="#d"/>
<use x="95.410156" xlink:href="#c"/>
</g>
</g>
<g clip-path="url(#a)">
<defs>
<path id="s" d="m40.578 39.312q7.0781-1.5156 11.047-6.3125 3.9844-4.7812 3.9844-11.812 0-10.781-7.4219-16.703-7.4219-5.9062-21.094-5.9062-4.5781 0-9.4375 0.90625t-10.031 2.7188v9.5156q4.0938-2.3906 8.9688-3.6094 4.8906-1.2188 10.219-1.2188 9.2656 0 14.125 3.6562t4.8594 10.641q0 6.4531-4.5156 10.078-4.5156 3.6406-12.562 3.6406h-8.5v8.1094h8.8906q7.2656 0 11.125 2.9062t3.8594 8.375q0 5.6094-3.9844 8.6094-3.9688 3.0156-11.391 3.0156-4.0625 0-8.7031-0.89062-4.6406-0.875-10.203-2.7188v8.7812q5.625 1.5625 10.531 2.3438t9.25 0.78125q11.234 0 17.766-5.1094 6.5469-5.0938 6.5469-13.781 0-6.0625-3.4688-10.234t-9.8594-5.7812z"/>
</defs>
<g transform="translate(397.38 218.35) scale(.1 -.1)">
<use xlink:href="#c"/>
<use x="63.623047" xlink:href="#d"/>
<use x="95.410156" xlink:href="#s"/>
</g>
</g>
<g clip-path="url(#a)">
<defs>
<path id="ab" d="m10.797 72.906h38.719v-8.3125h-29.688v-17.859q2.1406 0.73438 4.2812 1.0938 2.1562 0.35938 4.3125 0.35938 12.203 0 19.328-6.6875 7.1406-6.6875 7.1406-18.109 0-11.766-7.3281-18.297-7.3281-6.5156-20.656-6.5156-4.5938 0-9.3594 0.78125-4.75 0.78125-9.8281 2.3438v9.9219q4.3906-2.3906 9.0781-3.5625t9.9062-1.1719q8.4531 0 13.375 4.4375 4.9375 4.4375 4.9375 12.062 0 7.6094-4.9375 12.047-4.9219 4.4531-13.375 4.4531-3.9531 0-7.8906-0.875-3.9219-0.875-8.0156-2.7344z"/>
</defs>
<g transform="translate(372.83 121.87) scale(.1 -.1)">
<use xlink:href="#c"/>
<use x="63.623047" xlink:href="#d"/>
<use x="95.410156" xlink:href="#ab"/>
</g>
</g>
<g clip-path="url(#a)">
<defs>
<path id="ac" d="m8.2031 72.906h46.875v-4.2031l-26.469-68.703h-10.297l24.906 64.594h-35.016z"/>
</defs>
<g transform="translate(397.38 313.49) scale(.1 -.1)">
<use xlink:href="#c"/>
<use x="63.623047" xlink:href="#d"/>
<use x="95.410156" xlink:href="#ac"/>
</g>
</g>
<g clip-path="url(#a)">
<defs>
<path id="aa" d="m31.781 34.625q-7.0312 0-11.062-3.7656-4.0156-3.7656-4.0156-10.344 0-6.5938 4.0156-10.359 4.0312-3.7656 11.062-3.7656t11.078 3.7812q4.0625 3.7969 4.0625 10.344 0 6.5781-4.0312 10.344-4.0156 3.7656-11.109 3.7656zm-9.8594 4.1875q-6.3438 1.5625-9.8906 5.9062-3.5312 4.3594-3.5312 10.609 0 8.7344 6.2188 13.812 6.2344 5.0781 17.062 5.0781 10.891 0 17.094-5.0781t6.2031-13.812q0-6.25-3.5469-10.609-3.5312-4.3438-9.8281-5.9062 7.125-1.6562 11.094-6.5 3.9844-4.8281 3.9844-11.797 0-10.609-6.4688-16.281-6.4688-5.6562-18.531-5.6562-12.047 0-18.531 5.6562-6.4688 5.6719-6.4688 16.281 0 6.9688 4 11.797 4.0156 4.8438 11.141 6.5zm-3.6094 15.578q0-5.6562 3.5312-8.8281 3.5469-3.1719 9.9375-3.1719 6.3594 0 9.9375 3.1719 3.5938 3.1719 3.5938 8.8281 0 5.6719-3.5938 8.8438-3.5781 3.1719-9.9375 3.1719-6.3906 0-9.9375-3.1719-3.5312-3.1719-3.5312-8.8438z"/>
</defs>
<g transform="translate(538.53 121.87) scale(.1 -.1)">
<use xlink:href="#c"/>
<use x="63.623047" xlink:href="#d"/>
<use x="95.410156" xlink:href="#aa"/>
</g>
</g>
<g clip-path="url(#a)">
<defs>
<path id="m" d="m9.8125 72.906h9.8594v-72.906h-9.8594z"/>
<path id="u" d="m9.8125 72.906h14.703l18.594-49.609 18.703 49.609h14.703v-72.906h-9.625v64.016l-18.797-50h-9.9062l-18.797 50v-64.016h-9.5781z"/>
</defs>
<g transform="translate(605.17 408.64) scale(.1 -.1)">
<use xlink:href="#m"/>
<use x="29.492188" xlink:href="#u"/>
<use x="115.771484" xlink:href="#q"/>
<use x="176.074219" xlink:href="#n"/>
<use x="231.787109" xlink:href="#m"/>
<use x="261.279297" xlink:href="#r"/>
<use x="331.103516" xlink:href="#m"/>
<use x="360.595703" xlink:href="#i"/>
</g>
</g>
<g clip-path="url(#a)">
<g transform="translate(449.43 218.35) scale(.1 -.1)">
<use xlink:href="#c"/>
<use x="63.623047" xlink:href="#d"/>
<use x="95.410156" xlink:href="#c"/>
<use x="159.033203" xlink:href="#c"/>
</g>
</g>
<g clip-path="url(#a)">
<defs>
<path id="p" d="m19.188 8.2969h34.422v-8.2969h-46.281v8.2969q5.6094 5.8125 15.297 15.594 9.7031 9.7969 12.188 12.641 4.7344 5.3125 6.6094 9 1.8906 3.6875 1.8906 7.25 0 5.8125-4.0781 9.4688-4.0781 3.6719-10.625 3.6719-4.6406 0-9.7969-1.6094-5.1406-1.6094-11-4.8906v9.9688q5.9531 2.3906 11.125 3.6094 5.1875 1.2188 9.4844 1.2188 11.328 0 18.062-5.6719 6.7344-5.6562 6.7344-15.125 0-4.5-1.6875-8.5312-1.6719-4.0156-6.125-9.4844-1.2188-1.4219-7.7656-8.1875-6.5312-6.7656-18.453-18.922z"/>
</defs>
<g transform="translate(541.48 218.35) scale(.1 -.1)">
<use xlink:href="#c"/>
<use x="63.623047" xlink:href="#d"/>
<use x="95.410156" xlink:href="#c"/>
<use x="159.033203" xlink:href="#p"/>
</g>
</g>
<g clip-path="url(#a)">
<g transform="translate(504.66 313.49) scale(.1 -.1)">
<use xlink:href="#c"/>
<use x="63.623047" xlink:href="#d"/>
<use x="95.410156" xlink:href="#c"/>
<use x="159.033203" xlink:href="#s"/>
</g>
</g>
<g clip-path="url(#a)">
<defs>
<path id="ao" d="m37.797 64.312-24.906-38.922h24.906zm-2.5938 8.5938h12.406v-47.516h10.406v-8.2031h-10.406v-17.188h-9.8125v17.188h-32.906v9.5156z"/>
</defs>
<g transform="translate(541.48 313.49) scale(.1 -.1)">
<use xlink:href="#c"/>
<use x="63.623047" xlink:href="#d"/>
<use x="95.410156" xlink:href="#c"/>
<use x="159.033203" xlink:href="#ao"/>
</g>
</g>
<g clip-path="url(#a)">
<g transform="translate(431.02 313.49) scale(.1 -.1)">
<use xlink:href="#c"/>
<use x="63.623047" xlink:href="#d"/>
<use x="95.410156" xlink:href="#c"/>
<use x="159.033203" xlink:href="#ab"/>
</g>
</g>
<g clip-path="url(#a)">
<defs>
<path id="ad" d="m33.016 40.375q-6.6406 0-10.531-4.5469-3.875-4.5312-3.875-12.438 0-7.8594 3.875-12.438 3.8906-4.5625 10.531-4.5625t10.516 4.5625q3.875 4.5781 3.875 12.438 0 7.9062-3.875 12.438-3.875 4.5469-10.516 4.5469zm19.578 30.922v-8.9844q-3.7188 1.75-7.5 2.6719-3.7812 0.9375-7.5 0.9375-9.7656 0-14.922-6.5938-5.1406-6.5938-5.875-19.922 2.875 4.25 7.2188 6.5156 4.3594 2.2656 9.5781 2.2656 10.984 0 17.359-6.6719 6.375-6.6562 6.375-18.125 0-11.234-6.6406-18.031-6.6406-6.7812-17.672-6.7812-12.656 0-19.344 9.6875-6.6875 9.7031-6.6875 28.109 0 17.281 8.2031 27.562t22.016 10.281q3.7188 0 7.5-0.73438t7.8906-2.1875z"/>
</defs>
<g transform="translate(467.84 313.49) scale(.1 -.1)">
<use xlink:href="#c"/>
<use x="63.623047" xlink:href="#d"/>
<use x="95.410156" xlink:href="#c"/>
<use x="159.033203" xlink:href="#ad"/>
</g>
</g>
<g clip-path="url(#a)">
<g transform="translate(752.45 408.64) scale(.1 -.1)">
<use xlink:href="#m"/>
<use x="29.492188" xlink:href="#u"/>
<use x="115.771484" xlink:href="#q"/>
<use x="176.074219" xlink:href="#n"/>
<use x="231.787109" xlink:href="#m"/>
<use x="261.279297" xlink:href="#r"/>
<use x="331.103516" xlink:href="#m"/>
<use x="360.595703" xlink:href="#i"/>
</g>
</g>
<g clip-path="url(#a)">
<g transform="translate(210.1 313.49) scale(.1 -.1)">
<use xlink:href="#c"/>
<use x="63.623047" xlink:href="#d"/>
<use x="95.410156" xlink:href="#c"/>
<use x="159.033203" xlink:href="#aa"/>
</g>
</g>
<g clip-path="url(#a)">
<defs>
<path id="ae" d="m31.781 66.406q-7.6094 0-11.453-7.5-3.8281-7.4844-3.8281-22.531 0-14.984 3.8281-22.484 3.8438-7.5 11.453-7.5 7.6719 0 11.5 7.5 3.8438 7.5 3.8438 22.484 0 15.047-3.8438 22.531-3.8281 7.5-11.5 7.5zm0 7.8125q12.266 0 18.734-9.7031 6.4688-9.6875 6.4688-28.141 0-18.406-6.4688-28.109-6.4688-9.6875-18.734-9.6875-12.25 0-18.719 9.6875-6.4688 9.7031-6.4688 28.109 0 18.453 6.4688 28.141 6.4688 9.7031 18.719 9.7031z"/>
</defs>
<g transform="translate(283.74 313.49) scale(.1 -.1)">
<use xlink:href="#c"/>
<use x="63.623047" xlink:href="#d"/>
<use x="95.410156" xlink:href="#p"/>
<use x="159.033203" xlink:href="#ae"/>
</g>
</g>
<g clip-path="url(#a)">
<g transform="translate(320.56 313.49) scale(.1 -.1)">
<use xlink:href="#c"/>
<use x="63.623047" xlink:href="#d"/>
<use x="95.410156" xlink:href="#p"/>
<use x="159.033203" xlink:href="#c"/>
</g>
</g>
<g clip-path="url(#a)">
<g transform="translate(715.63 408.64) scale(.1 -.1)">
<use xlink:href="#m"/>
<use x="29.492188" xlink:href="#u"/>
<use x="115.771484" xlink:href="#q"/>
<use x="176.074219" xlink:href="#n"/>
<use x="231.787109" xlink:href="#m"/>
<use x="261.279297" xlink:href="#r"/>
<use x="331.103516" xlink:href="#m"/>
<use x="360.595703" xlink:href="#i"/>
</g>
</g>
<g clip-path="url(#a)">
<g transform="translate(678.81 408.64) scale(.1 -.1)">
<use xlink:href="#m"/>
<use x="29.492188" xlink:href="#u"/>
<use x="115.771484" xlink:href="#q"/>
<use x="176.074219" xlink:href="#n"/>
<use x="231.787109" xlink:href="#m"/>
<use x="261.279297" xlink:href="#r"/>
<use x="331.103516" xlink:href="#m"/>
<use x="360.595703" xlink:href="#i"/>
</g>
</g>
<g clip-path="url(#a)">
<g transform="translate(641.99 408.64) scale(.1 -.1)">
<use xlink:href="#m"/>
<use x="29.492188" xlink:href="#u"/>
<use x="115.771484" xlink:href="#q"/>
<use x="176.074219" xlink:href="#n"/>
<use x="231.787109" xlink:href="#m"/>
<use x="261.279297" xlink:href="#r"/>
<use x="331.103516" xlink:href="#m"/>
<use x="360.595703" xlink:href="#i"/>
</g>
</g>
<g clip-path="url(#a)">
<g transform="translate(62.819 313.49) scale(.1 -.1)">
<use xlink:href="#c"/>
<use x="63.623047" xlink:href="#d"/>
<use x="95.410156" xlink:href="#p"/>
<use x="159.033203" xlink:href="#ab"/>
</g>
</g>
<g clip-path="url(#a)">
<g transform="translate(25.999 313.49) scale(.1 -.1)">
<use xlink:href="#c"/>
<use x="63.623047" xlink:href="#d"/>
<use x="95.410156" xlink:href="#p"/>
<use x="159.033203" xlink:href="#ad"/>
</g>
</g>
<g clip-path="url(#a)">
<g transform="translate(136.46 313.49) scale(.1 -.1)">
<use xlink:href="#c"/>
<use x="63.623047" xlink:href="#d"/>
<use x="95.410156" xlink:href="#p"/>
<use x="159.033203" xlink:href="#ac"/>
</g>
</g>
<g clip-path="url(#a)">
<g transform="translate(441.25 23.544) scale(.1 -.1)">
<use xlink:href="#c"/>
<use x="63.623047" xlink:href="#d"/>
<use x="95.410156" xlink:href="#p"/>
<use x="159.033203" xlink:href="#aa"/>
</g>
</g>
<g clip-path="url(#a)">
<defs>
<path id="an" d="m10.984 1.5156v8.9844q3.7188-1.7656 7.5156-2.6875 3.8125-0.92188 7.4844-0.92188 9.7656 0 14.906 6.5625 5.1562 6.5625 5.8906 19.953-2.8281-4.2031-7.1875-6.4531-4.3438-2.25-9.6094-2.25-10.938 0-17.312 6.6094-6.375 6.625-6.375 18.109 0 11.219 6.6406 18 6.6406 6.7969 17.672 6.7969 12.656 0 19.312-9.7031 6.6719-9.6875 6.6719-28.141 0-17.234-8.1875-27.516-8.1719-10.281-21.984-10.281-3.7188 0-7.5312 0.73438-3.7969 0.73438-7.9062 2.2031zm19.625 30.906q6.6406 0 10.516 4.5312 3.8906 4.5469 3.8906 12.469 0 7.8594-3.8906 12.422-3.875 4.5625-10.516 4.5625t-10.516-4.5625-3.875-12.422q0-7.9219 3.875-12.469 3.875-4.5312 10.516-4.5312z"/>
</defs>
<g transform="translate(99.639 313.49) scale(.1 -.1)">
<use xlink:href="#c"/>
<use x="63.623047" xlink:href="#d"/>
<use x="95.410156" xlink:href="#p"/>
<use x="159.033203" xlink:href="#an"/>
</g>
</g>
<g clip-path="url(#a)">
<g transform="translate(173.28 313.49) scale(.1 -.1)">
<use xlink:href="#c"/>
<use x="63.623047" xlink:href="#d"/>
<use x="95.410156" xlink:href="#s"/>
<use x="159.033203" xlink:href="#ae"/>
</g>
</g>
<g clip-path="url(#a)">
<g transform="translate(246.92 313.49) scale(.1 -.1)">
<use xlink:href="#c"/>
<use x="63.623047" xlink:href="#d"/>
<use x="95.410156" xlink:href="#s"/>
<use x="159.033203" xlink:href="#c"/>
</g>
</g>
<g clip-path="url(#a)">
<g transform="translate(357.38 313.49) scale(.1 -.1)">
<use xlink:href="#c"/>
<use x="63.623047" xlink:href="#d"/>
<use x="95.410156" xlink:href="#s"/>
<use x="159.033203" xlink:href="#p"/>
</g>
</g>
<g clip-path="url(#a)">
<g transform="translate(578.3 313.49) scale(.1 -.1)">
<use xlink:href="#c"/>
<use x="63.623047" xlink:href="#d"/>
<use x="95.410156" xlink:href="#s"/>
<use x="159.033203" xlink:href="#s"/>
</g>
</g>
<defs>
<clipPath id="a">
<rect width="810.67" height="426.67"/>
</clipPath>
</defs>
</svg>
