<?xml version="1.0" encoding="UTF-8"?>
<!DOCTYPE svg  PUBLIC '-//W3C//DTD SVG 1.1//EN'  'http://www.w3.org/Graphics/SVG/1.1/DTD/svg11.dtd'>
<svg width="1976pt" height="1040pt" version="1.1" viewBox="0 0 1976 1040" xmlns="http://www.w3.org/2000/svg" xmlns:xlink="http://www.w3.org/1999/xlink">
<defs>
<style type="text/css">*{stroke-linecap:butt;stroke-linejoin:round;}</style>
</defs>
<path d="m0 1040h1976v-1040h-1976z" fill="#fff"/>
<g fill="none" stroke="#000">
<path d="m281.12 47.861-167.52 748.19" clip-path="url(#a)"/>
<path d="m281.12 47.861 264.14 115.91" clip-path="url(#a)"/>
<path d="m281.12 47.861-96.622 846.23" clip-path="url(#a)"/>
<path d="m113.6 796.05-23.632 98.047" clip-path="url(#a)"/>
<path d="m113.6 796.05 23.632 98.047" clip-path="url(#a)"/>
<path d="m545.26 163.77-266.23 632.27" clip-path="url(#a)"/>
<path d="m545.26 163.77-100.81 632.27" clip-path="url(#a)"/>
<path d="m545.26 163.77 17.355 730.32" clip-path="url(#a)"/>
<path d="m545.26 163.77 17.355 730.32" clip-path="url(#a)"/>
<path d="m545.26 163.77 135.52 632.27" clip-path="url(#a)"/>
<path d="m545.26 163.77 368.52 112.42" clip-path="url(#a)"/>
<path d="m545.26 163.77-171.7 730.32" clip-path="url(#a)"/>
<path d="m279.03 796.05-47.265 98.047" clip-path="url(#a)"/>
<path d="m279.03 796.05v98.047" clip-path="url(#a)"/>
<path d="m279.03 796.05 47.265 98.047" clip-path="url(#a)"/>
<path d="m444.45 796.05-23.632 98.047" clip-path="url(#a)"/>
<path d="m444.45 796.05 23.632 98.047" clip-path="url(#a)"/>
<path d="m562.62 894.09-47.265 98.047" clip-path="url(#a)"/>
<path d="m562.62 894.09 47.265 98.047" clip-path="url(#a)"/>
<path d="m562.62 894.09v98.047" clip-path="url(#a)"/>
<path d="m680.78 796.05-23.632 98.047" clip-path="url(#a)"/>
<path d="m680.78 796.05 23.632 98.047" clip-path="url(#a)"/>
<path d="m913.78 276.2-162.11 617.89" clip-path="url(#a)"/>
<path d="m913.78 276.2-20.313 519.85" clip-path="url(#a)"/>
<path d="m913.78 276.2 223.05 109.21" clip-path="url(#a)"/>
<path d="m913.78 276.2-114.84 617.89" clip-path="url(#a)"/>
<path d="m913.78 276.2 74.217 617.89" clip-path="url(#a)"/>
<path d="m751.68 894.09v98.047" clip-path="url(#a)"/>
<path d="m893.47 796.05-47.265 98.047" clip-path="url(#a)"/>
<path d="m893.47 796.05v98.047" clip-path="url(#a)"/>
<path d="m893.47 796.05 47.265 98.047" clip-path="url(#a)"/>
<path d="m1136.8 385.4-101.56 508.69" clip-path="url(#a)"/>
<path d="m1136.8 385.4-54.298 508.69" clip-path="url(#a)"/>
<path d="m1136.8 385.4 155.86 106.27" clip-path="url(#a)"/>
<path d="m1035.3 894.09v98.047" clip-path="url(#a)"/>
<path d="m1082.5 894.09v98.047" clip-path="url(#a)"/>
<path d="m1292.7 491.68-162.9 402.42" clip-path="url(#a)"/>
<path d="m1292.7 491.68-68.365 402.42" clip-path="url(#a)"/>
<path d="m1292.7 491.68 49.797 304.37" clip-path="url(#a)"/>
<path d="m1292.7 491.68 197.5 103.63" clip-path="url(#a)"/>
<path d="m1292.7 491.68-115.63 402.42" clip-path="url(#a)"/>
<path d="m1292.7 491.68-21.1 402.42" clip-path="url(#a)"/>
<path d="m1292.7 491.68 120.69 402.42" clip-path="url(#a)"/>
<path d="m1129.8 894.09v98.047" clip-path="url(#a)"/>
<path d="m1224.3 894.09v98.047" clip-path="url(#a)"/>
<path d="m1342.5 796.05-23.632 98.047" clip-path="url(#a)"/>
<path d="m1342.5 796.05 23.632 98.047" clip-path="url(#a)"/>
<path d="m1490.2 595.31-407.66 298.78" clip-path="url(#a)" stroke-dasharray="3.7,1.6"/>
<path d="m1490.2 595.31-29.541 298.78" clip-path="url(#a)"/>
<path d="m1490.2 595.31 112.25 101.32" clip-path="url(#a)"/>
<path d="m1490.2 595.31 324.95 200.74" clip-path="url(#a)"/>
<path d="m1460.6 894.09v98.047" clip-path="url(#a)"/>
<path d="m1602.4 696.64-70.897 99.411" clip-path="url(#a)"/>
<path d="m1602.4 696.64v197.46" clip-path="url(#a)"/>
<path d="m1602.4 696.64 70.897 99.411" clip-path="url(#a)"/>
<path d="m1815.1 796.05-70.897 98.047" clip-path="url(#a)"/>
<path d="m1815.1 796.05-23.632 98.047" clip-path="url(#a)"/>
<path d="m1815.1 796.05 23.632 98.047" clip-path="url(#a)"/>
<path d="m1815.1 796.05 70.897 98.047" clip-path="url(#a)"/>
<path d="m1744.2 894.09v98.047" clip-path="url(#a)"/>
<path d="m1791.5 894.09v98.047" clip-path="url(#a)"/>
<path d="m1838.8 894.09v98.047" clip-path="url(#a)"/>
<path d="m1531.5 796.05-23.632 98.047" clip-path="url(#a)"/>
<path d="m1531.5 796.05 23.632 98.047" clip-path="url(#a)"/>
<path d="m1602.4 894.09v98.047" clip-path="url(#a)"/>
<path d="m1673.3 796.05-23.632 98.047" clip-path="url(#a)"/>
<path d="m1673.3 796.05 23.632 98.047" clip-path="url(#a)"/>
<path d="m1649.7 894.09v98.047" clip-path="url(#a)"/>
<path d="m1697 894.09v98.047" clip-path="url(#a)"/>
<path d="m1507.9 894.09v98.047" clip-path="url(#a)"/>
<path d="m1555.2 894.09v98.047" clip-path="url(#a)"/>
<path d="m1318.9 894.09v98.047" clip-path="url(#a)"/>
<path d="m1366.1 894.09v98.047" clip-path="url(#a)"/>
<path d="m846.21 894.09v98.047" clip-path="url(#a)"/>
<path d="m893.47 894.09v98.047" clip-path="url(#a)"/>
<path d="m940.74 894.09v98.047" clip-path="url(#a)"/>
<path d="m657.15 894.09v98.047" clip-path="url(#a)"/>
<path d="m704.41 894.09v98.047" clip-path="url(#a)"/>
<path d="m420.82 894.09v98.047" clip-path="url(#a)"/>
<path d="m468.09 894.09v98.047" clip-path="url(#a)"/>
<path d="m231.76 894.09v98.047" clip-path="url(#a)"/>
<path d="m279.03 894.09v98.047" clip-path="url(#a)"/>
<path d="m326.29 894.09v98.047" clip-path="url(#a)"/>
<path d="m89.967 894.09v98.047" clip-path="url(#a)"/>
<path d="m137.23 894.09v98.047" clip-path="url(#a)"/>
<path d="m329.43 47.861-215.83 748.19" clip-path="url(#a)"/>
<path d="m329.43 47.861 215.83 115.91" clip-path="url(#a)"/>
<path d="m184.5 894.09v98.047" clip-path="url(#a)"/>
<path d="m373.56 894.09v98.047" clip-path="url(#a)"/>
<path d="m798.94 894.09v98.047" clip-path="url(#a)"/>
<path d="m988 894.09v98.047" clip-path="url(#a)"/>
<path d="m1177.1 894.09v98.047" clip-path="url(#a)"/>
<path d="m1271.6 894.09v98.047" clip-path="url(#a)"/>
<path d="m1413.4 894.09v98.047" clip-path="url(#a)"/>
<path d="m1886 894.09v98.047" clip-path="url(#a)"/>
</g>
<path d="m202.99 425.5 0.97393-4.3498q0.52438-2.342-1.8176-2.8664l-7.5554-1.6917q-2.342-0.52438-2.8664 1.8176l-0.97393 4.3498q-0.52438 2.342 1.8176 2.8664l7.5554 1.6917q2.342 0.52438 2.8664-1.8176z" clip-path="url(#a)" fill="#fff" stroke="#fff"/>
<g clip-path="url(#a)">
<defs>
<path id="ai" d="m9.8125 72.906h9.8594v-64.609h35.5v-8.2969h-45.359z"/>
</defs>
<g transform="translate(199.03 424.61) rotate(-77.38) scale(.08 -.08)">
<use xlink:href="#ai"/>
</g>
</g>
<path d="m407.92 110.35 5.5091 2.4176q2.1977 0.96442 3.1621-1.2333l3.1113-7.0899q0.96442-2.1977-1.2333-3.1621l-5.5091-2.4176q-2.1977-0.96442-3.1621 1.2333l-3.1113 7.0899q-0.96442 2.1977 1.2333 3.1621z" clip-path="url(#a)" fill="#fff" stroke="#fff"/>
<g clip-path="url(#a)">
<defs>
<path id="at" d="m9.8125 72.906h9.8594v-29.891h35.844v29.891h9.8594v-72.906h-9.8594v34.719h-35.844v-34.719h-9.8594z"/>
</defs>
<g transform="translate(409.55 106.63) rotate(23.693) scale(.08 -.08)">
<use xlink:href="#at"/>
</g>
</g>
<path d="m238.71 474.6 0.66421-5.8172q0.27226-2.3845-2.1122-2.6568l-7.6925-0.87833q-2.3845-0.27226-2.6568 2.1122l-0.6642 5.8172q-0.27226 2.3845 2.1122 2.6568l7.6925 0.87833q2.3845 0.27226 2.6568-2.1122z" clip-path="url(#a)" fill="#fff" stroke="#fff"/>
<g clip-path="url(#a)">
<defs>
<path id="x" d="m8.6875 72.906h9.9219v-44.297q0-11.719 4.2344-16.875 4.25-5.1406 13.781-5.1406 9.4688 0 13.719 5.1406 4.25 5.1562 4.25 16.875v44.297h9.9062v-45.516q0-14.25-7.0625-21.531-7.0469-7.2812-20.812-7.2812-13.828 0-20.891 7.2812-7.0469 7.2812-7.0469 21.531z"/>
</defs>
<g transform="translate(234.67 474.14) rotate(-83.486) scale(.08 -.08)">
<use xlink:href="#x"/>
</g>
</g>
<path d="m107.29 849 1.1845-4.9143q0.56237-2.3332-1.7708-2.8956l-7.5269-1.8142q-2.3332-0.56237-2.8956 1.7708l-1.1845 4.9143q-0.56237 2.3332 1.7708 2.8956l7.5269 1.8142q2.3332 0.56237 2.8956-1.7708z" clip-path="url(#a)" fill="#fff" stroke="#fff"/>
<g clip-path="url(#a)">
<defs>
<path id="t" d="m9.8125 72.906h46.094v-8.3125h-36.234v-21.578h34.719v-8.2969h-34.719v-26.422h37.109v-8.2969h-46.969z"/>
</defs>
<g transform="translate(103.34 848.04) rotate(-76.448) scale(.08 -.08)">
<use xlink:href="#t"/>
</g>
</g>
<path d="m118.66 843.82 1.309 5.4307q0.56237 2.3332 2.8956 1.7708l7.5269-1.8142q2.3332-0.56237 1.7708-2.8956l-1.309-5.4307q-0.56237-2.3332-2.8956-1.7708l-7.5269 1.8142q-2.3332 0.56237-1.7708 2.8956z" clip-path="url(#a)" fill="#fff" stroke="#fff"/>
<g clip-path="url(#a)">
<defs>
<path id="m" d="m64.406 67.281v-10.391q-4.9844 4.6406-10.625 6.9219-5.6406 2.2969-11.984 2.2969-12.5 0-19.141-7.6406t-6.6406-22.094q0-14.406 6.6406-22.047t19.141-7.6406q6.3438 0 11.984 2.2969t10.625 6.9375v-10.312q-5.1719-3.5156-10.969-5.2812-5.7812-1.75-12.219-1.75-16.562 0-26.094 10.125-9.5156 10.141-9.5156 27.672 0 17.578 9.5156 27.703 9.5312 10.141 26.094 10.141 6.5312 0 12.312-1.7344 5.7969-1.7344 10.875-5.2031z"/>
</defs>
<g transform="translate(122.62 842.87) rotate(76.448) scale(.08 -.08)">
<use xlink:href="#m"/>
</g>
</g>
<path d="m416.98 484.6 1.8962-4.5033q0.93138-2.2119-1.2805-3.1433l-7.1357-3.0047q-2.2119-0.93138-3.1433 1.2805l-1.8962 4.5033q-0.93138 2.2119 1.2805 3.1433l7.1357 3.0047q2.2119 0.93138 3.1433-1.2805z" clip-path="url(#a)" fill="#fff" stroke="#fff"/>
<g clip-path="url(#a)">
<defs>
<path id="l" d="m-0.29688 72.906h61.672v-8.3125h-25.875v-64.594h-9.9062v64.594h-25.891z"/>
</defs>
<g transform="translate(413.23 483.02) rotate(-67.165) scale(.08 -.08)">
<use xlink:href="#l"/>
</g>
</g>
<path d="m500.62 483.6 0.86164-5.4042q0.37788-2.3701-1.9922-2.7479l-7.6459-1.219q-2.3701-0.37788-2.7479 1.9922l-0.86164 5.4042q-0.37788 2.3701 1.9922 2.7479l7.6459 1.219q2.3701 0.37788 2.7479-1.9922z" clip-path="url(#a)" fill="#fff" stroke="#fff"/>
<g clip-path="url(#a)">
<defs>
<path id="z" d="m34.188 63.188-13.391-36.281h26.812zm-5.5781 9.7188h11.188l27.781-72.906h-10.25l-6.6406 18.703h-32.859l-6.6406-18.703h-10.406z"/>
</defs>
<g transform="translate(496.61 482.96) rotate(-80.941) scale(.08 -.08)">
<use xlink:href="#z"/>
</g>
</g>
<path d="m547.61 526.67 0.11459 4.8224q0.057016 2.3993 2.4563 2.3423l7.7403-0.18393q2.3993-0.057015 2.3423-2.4563l-0.1146-4.8224q-0.057015-2.3993-2.4563-2.3423l-7.7403 0.18393q-2.3993 0.057016-2.3423 2.4563z" clip-path="url(#a)" fill="#fff" stroke="#fff"/>
<g clip-path="url(#a)">
<defs>
<path id="ar" d="m19.672 64.797v-27.391h12.406q6.8906 0 10.641 3.5625 3.7656 3.5625 3.7656 10.156 0 6.5469-3.7656 10.109-3.75 3.5625-10.641 3.5625zm-9.8594 8.1094h22.266q12.266 0 18.531-5.5469 6.2812-5.5469 6.2812-16.234 0-10.797-6.2812-16.312-6.2656-5.5156-18.531-5.5156h-12.406v-29.297h-9.8594z"/>
</defs>
<g transform="translate(551.67 526.57) rotate(88.639) scale(.08 -.08)">
<use xlink:href="#ar"/>
</g>
</g>
<path d="m547.61 526.78 0.10931 4.6q0.057015 2.3993 2.4563 2.3423l7.7403-0.18393q2.3993-0.057015 2.3423-2.4563l-0.10931-4.6q-0.057015-2.3993-2.4563-2.3423l-7.7403 0.18393q-2.3993 0.057015-2.3423 2.4563z" clip-path="url(#a)" fill="#fff" stroke="#fff"/>
<g clip-path="url(#a)">
<defs>
<path id="au" d="m9.8125 72.906h41.891v-8.3125h-32.031v-21.484h28.906v-8.2969h-28.906v-34.812h-9.8594z"/>
</defs>
<g transform="translate(551.68 526.69) rotate(88.639) scale(.08 -.08)">
<use xlink:href="#au"/>
</g>
</g>
<path d="m606.31 478.55 1.1469 5.351q0.50298 2.3467 2.8497 1.8437l7.5706-1.6226q2.3467-0.50298 1.8437-2.8497l-1.1469-5.351q-0.50298-2.3467-2.8497-1.8437l-7.5706 1.6226q-2.3467 0.50298-1.8437 2.8497z" clip-path="url(#a)" fill="#fff" stroke="#fff"/>
<g clip-path="url(#a)">
<g transform="translate(610.29 477.7) rotate(77.903) scale(.08 -.08)">
<use xlink:href="#z"/>
</g>
</g>
<path d="m725.08 225.19 5.2344 1.5968q2.2956 0.7003 2.9959-1.5953l2.2592-7.4056q0.7003-2.2956-1.5953-2.9959l-5.2343-1.5968q-2.2956-0.7003-2.9959 1.5953l-2.2592 7.4056q-0.7003 2.2956 1.5953 2.9959z" clip-path="url(#a)" fill="#fff" stroke="#fff"/>
<g clip-path="url(#a)">
<g transform="translate(726.26 221.3) rotate(16.965) scale(.08 -.08)">
<use xlink:href="#z"/>
</g>
</g>
<path d="m464.84 533.22 1.34-5.6996q0.54929-2.3363-1.787-2.8856l-7.537-1.772q-2.3363-0.54929-2.8856 1.787l-1.34 5.6996q-0.54929 2.3363 1.787 2.8856l7.537 1.772q2.3363 0.54929 2.8856-1.787z" clip-path="url(#a)" fill="#fff" stroke="#fff"/>
<g clip-path="url(#a)">
<g transform="translate(460.89 532.29) rotate(-76.769) scale(.08 -.08)">
<use xlink:href="#x"/>
</g>
</g>
<path d="m259.84 850.3 2.4138-5.0073q1.0422-2.1619-1.1197-3.2041l-6.9744-3.3621q-2.1619-1.0422-3.2041 1.1197l-2.4138 5.0073q-1.0422 2.1619 1.1197 3.2041l6.9744 3.3621q2.1619 1.0422 3.2041-1.1197z" clip-path="url(#a)" fill="#fff" stroke="#fff"/>
<g clip-path="url(#a)">
<defs>
<path id="af" d="m44.391 34.188q3.1719-1.0781 6.1719-4.5938t6.0312-9.6719l10.016-19.922h-10.609l-9.3125 18.703q-3.625 7.3281-7.0156 9.7188t-9.25 2.3906h-10.75v-30.812h-9.8594v72.906h22.266q12.5 0 18.656-5.2344 6.1562-5.2188 6.1562-15.766 0-6.8906-3.2031-11.438-3.2031-4.5312-9.2969-6.2812zm-24.719 30.609v-25.875h12.406q7.125 0 10.766 3.2969t3.6406 9.6875-3.6406 9.6406-10.766 3.25z"/>
</defs>
<g transform="translate(256.18 848.53) rotate(-64.263) scale(.08 -.08)">
<use xlink:href="#af"/>
</g>
</g>
<path d="m272.76 842.54v5.055q0 2.4 2.4 2.4h7.7425q2.4 0 2.4-2.4v-5.055q0-2.4-2.4-2.4h-7.7425q-2.4 0-2.4 2.4z" clip-path="url(#a)" fill="#fff" stroke="#fff"/>
<g clip-path="url(#a)">
<g transform="translate(276.82 842.54) rotate(90) scale(.08 -.08)">
<use xlink:href="#t"/>
</g>
</g>
<path d="m295.8 845.28 2.4258 5.0321q1.0422 2.1619 3.2041 1.1197l6.9744-3.3621q2.1619-1.0422 1.1197-3.2041l-2.4258-5.0321q-1.0422-2.1619-3.2041-1.1197l-6.9744 3.3621q-2.1619 1.0422-1.1197 3.2041z" clip-path="url(#a)" fill="#fff" stroke="#fff"/>
<g clip-path="url(#a)">
<g transform="translate(299.46 843.51) rotate(64.263) scale(.08 -.08)">
<use xlink:href="#m"/>
</g>
</g>
<path d="m438.14 849 1.1845-4.9143q0.56237-2.3332-1.7708-2.8956l-7.5269-1.8142q-2.3332-0.56237-2.8956 1.7708l-1.1845 4.9143q-0.56237 2.3332 1.7708 2.8956l7.5269 1.8142q2.3332 0.56237 2.8956-1.7708z" clip-path="url(#a)" fill="#fff" stroke="#fff"/>
<g clip-path="url(#a)">
<g transform="translate(434.19 848.04) rotate(-76.448) scale(.08 -.08)">
<use xlink:href="#t"/>
</g>
</g>
<path d="m449.52 843.82 1.309 5.4307q0.56237 2.3332 2.8956 1.7708l7.5269-1.8142q2.3332-0.56237 1.7708-2.8956l-1.309-5.4307q-0.56237-2.3332-2.8956-1.7708l-7.5269 1.8142q-2.3332 0.56237-1.7708 2.8956z" clip-path="url(#a)" fill="#fff" stroke="#fff"/>
<g clip-path="url(#a)">
<g transform="translate(453.47 842.87) rotate(76.448) scale(.08 -.08)">
<use xlink:href="#m"/>
</g>
</g>
<path d="m536.97 961.73 15.322-31.785q1.0422-2.1619-1.1197-3.2041l-6.9744-3.3621q-2.1619-1.0422-3.2041 1.1197l-15.322 31.785q-1.0422 2.1619 1.1197 3.2041l6.9744 3.3621q2.1619 1.0422 3.2041-1.1197z" clip-path="url(#a)" fill="#fff" stroke="#fff"/>
<g clip-path="url(#a)">
<defs>
<path id="d" d="m56.203 29.594v-4.3906h-41.312q0.59375-9.2812 5.5938-14.141t13.938-4.8594q5.1719 0 10.031 1.2656t9.6562 3.8125v-8.5q-4.8438-2.0469-9.9219-3.125t-10.297-1.0781q-13.094 0-20.734 7.6094-7.6406 7.625-7.6406 20.625 0 13.422 7.25 21.297 7.25 7.8906 19.562 7.8906 11.031 0 17.453-7.1094 6.4219-7.0938 6.4219-19.297zm-8.9844 2.6406q-0.09375 7.3594-4.125 11.75-4.0312 4.4062-10.672 4.4062-7.5156 0-12.031-4.25t-5.2031-11.969z"/>
<path id="g" d="m41.109 46.297q-1.5156 0.875-3.2969 1.2812-1.7812 0.42188-3.9219 0.42188-7.625 0-11.703-4.9531t-4.0781-14.234v-28.812h-9.0312v54.688h9.0312v-8.5q2.8438 4.9844 7.375 7.3906 4.5469 2.4219 11.047 2.4219 0.92188 0 2.0469-0.125 1.125-0.10938 2.4844-0.35938z"/>
<path id="k" d="m52 44.188q3.375 6.0625 8.0625 8.9375t11.031 2.875q8.5469 0 13.188-5.9844 4.6406-5.9688 4.6406-17v-33.016h-9.0312v32.719q0 7.8594-2.7969 11.656-2.7812 3.8125-8.4844 3.8125-6.9844 0-11.047-4.6406-4.0469-4.625-4.0469-12.641v-30.906h-9.0312v32.719q0 7.9062-2.7812 11.688t-8.5938 3.7812q-6.8906 0-10.953-4.6562-4.0469-4.6562-4.0469-12.625v-30.906h-9.0312v54.688h9.0312v-8.5q3.0781 5.0312 7.375 7.4219t10.203 2.3906q5.9688 0 10.141-3.0312 4.1719-3.0156 6.1719-8.7812z"/>
<path id="h" d="m9.4219 54.688h8.9844v-54.688h-8.9844zm0 21.297h8.9844v-11.391h-8.9844z"/>
<path id="f" d="m54.891 33.016v-33.016h-8.9844v32.719q0 7.7656-3.0312 11.609-3.0312 3.8594-9.0781 3.8594-7.2812 0-11.484-4.6406-4.2031-4.625-4.2031-12.641v-30.906h-9.0312v54.688h9.0312v-8.5q3.2344 4.9375 7.5938 7.375 4.375 2.4375 10.094 2.4375 9.4219 0 14.25-5.8281 4.8438-5.8281 4.8438-17.156z"/>
<path id="i" d="m34.281 27.484q-10.891 0-15.094-2.4844t-4.2031-8.5q0-4.7812 3.1562-7.5938 3.1562-2.7969 8.5625-2.7969 7.4844 0 12 5.2969t4.5156 14.078v2zm17.922 3.7188v-31.203h-8.9844v8.2969q-3.0781-4.9688-7.6719-7.3438t-11.234-2.375q-8.3906 0-13.359 4.7188-4.9531 4.7188-4.9531 12.625 0 9.2188 6.1719 13.906 6.1875 4.6875 18.438 4.6875h12.609v0.89062q0 6.2031-4.0781 9.5938t-11.453 3.3906q-4.6875 0-9.1406-1.125-4.4375-1.125-8.5312-3.375v8.3125q4.9219 1.9062 9.5625 2.8438 4.6406 0.95312 9.0312 0.95312 11.875 0 17.734-6.1562 5.8594-6.1406 5.8594-18.641z"/>
<path id="j" d="m9.4219 75.984h8.9844v-75.984h-8.9844z"/>
</defs>
<g transform="translate(533.31 959.97) rotate(-64.263) scale(.08 -.08)">
<use xlink:href="#l"/>
<use x="60.818359" xlink:href="#d"/>
<use x="122.341797" xlink:href="#g"/>
<use x="163.439453" xlink:href="#k"/>
<use x="260.851562" xlink:href="#h"/>
<use x="288.634766" xlink:href="#f"/>
<use x="352.013672" xlink:href="#i"/>
<use x="413.292969" xlink:href="#j"/>
</g>
</g>
<path d="m572.94 929.95 15.322 31.785q1.0422 2.1619 3.2041 1.1197l6.9744-3.3621q2.1619-1.0422 1.1197-3.2041l-15.322-31.785q-1.0422-2.1619-3.2041-1.1197l-6.9744 3.3621q-2.1619 1.0422-1.1197 3.2041z" clip-path="url(#a)" fill="#fff" stroke="#fff"/>
<g clip-path="url(#a)">
<g transform="translate(576.6 928.18) rotate(64.263) scale(.08 -.08)">
<use xlink:href="#l"/>
<use x="60.818359" xlink:href="#d"/>
<use x="122.341797" xlink:href="#g"/>
<use x="163.439453" xlink:href="#k"/>
<use x="260.851562" xlink:href="#h"/>
<use x="288.634766" xlink:href="#f"/>
<use x="352.013672" xlink:href="#i"/>
<use x="413.292969" xlink:href="#j"/>
</g>
</g>
<path d="m556.34 925.47v35.285q0 2.4 2.4 2.4h7.7425q2.4 0 2.4-2.4v-35.285q0-2.4-2.4-2.4h-7.7425q-2.4 0-2.4 2.4z" clip-path="url(#a)" fill="#fff" stroke="#fff"/>
<g clip-path="url(#a)">
<g transform="translate(560.41 925.47) rotate(90) scale(.08 -.08)">
<use xlink:href="#l"/>
<use x="60.818359" xlink:href="#d"/>
<use x="122.341797" xlink:href="#g"/>
<use x="163.439453" xlink:href="#k"/>
<use x="260.851562" xlink:href="#h"/>
<use x="288.634766" xlink:href="#f"/>
<use x="352.013672" xlink:href="#i"/>
<use x="413.292969" xlink:href="#j"/>
</g>
</g>
<path d="m674.41 849.24 1.3025-5.404q0.56237-2.3332-1.7708-2.8956l-7.5269-1.8142q-2.3332-0.56237-2.8956 1.7708l-1.3025 5.404q-0.56237 2.3332 1.7708 2.8956l7.5269 1.8142q2.3332 0.56237 2.8956-1.7708z" clip-path="url(#a)" fill="#fff" stroke="#fff"/>
<g clip-path="url(#a)">
<g transform="translate(670.46 848.29) rotate(-76.448) scale(.08 -.08)">
<use xlink:href="#af"/>
</g>
</g>
<path d="m685.84 843.82 1.309 5.4307q0.56237 2.3332 2.8956 1.7708l7.5269-1.8142q2.3332-0.56237 1.7708-2.8956l-1.309-5.4307q-0.56237-2.3332-2.8956-1.7708l-7.5269 1.8142q-2.3332 0.56237-1.7708 2.8956z" clip-path="url(#a)" fill="#fff" stroke="#fff"/>
<g clip-path="url(#a)">
<g transform="translate(689.79 842.87) rotate(76.448) scale(.08 -.08)">
<use xlink:href="#m"/>
</g>
</g>
<path d="m838.09 589.43 1.4106-5.3768q0.60904-2.3214-1.7124-2.9305l-7.4891-1.9648q-2.3214-0.60904-2.9305 1.7124l-1.4106 5.3768q-0.60904 2.3214 1.7124 2.9305l7.4891 1.9648q2.3214 0.60904 2.9305-1.7124z" clip-path="url(#a)" fill="#fff" stroke="#fff"/>
<g clip-path="url(#a)">
<g transform="translate(834.16 588.39) rotate(-75.3) scale(.08 -.08)">
<use xlink:href="#af"/>
</g>
</g>
<path d="m909.78 539.16 0.21811-5.582q0.093707-2.3982-2.3045-2.4919l-7.7366-0.3023q-2.3982-0.093706-2.4919 2.3045l-0.21811 5.582q-0.093707 2.3982 2.3045 2.4919l7.7366 0.3023q2.3982 0.093706 2.4919-2.3045z" clip-path="url(#a)" fill="#fff" stroke="#fff"/>
<g clip-path="url(#a)">
<g transform="translate(905.72 539) rotate(-87.762) scale(.08 -.08)">
<use xlink:href="#m"/>
</g>
</g>
<path d="m1020 335.21 5.0172 2.4565q2.1555 1.0554 3.2109-1.1001l3.4047-6.9537q1.0554-2.1555-1.1001-3.2109l-5.0172-2.4565q-2.1555-1.0554-3.2109 1.1001l-3.4047 6.9537q-1.0554 2.1555 1.1001 3.2109z" clip-path="url(#a)" fill="#fff" stroke="#fff"/>
<g clip-path="url(#a)">
<g transform="translate(1021.8 331.56) rotate(26.087) scale(.08 -.08)">
<use xlink:href="#m"/>
</g>
</g>
<path d="m861.99 589.17 1.0699-5.7564q0.43856-2.3596-1.921-2.7981l-7.6121-1.4148q-2.3596-0.43856-2.7981 1.921l-1.0699 5.7564q-0.43856 2.3596 1.921 2.7981l7.6121 1.4148q2.3596 0.43856 2.7981-1.921z" clip-path="url(#a)" fill="#fff" stroke="#fff"/>
<g clip-path="url(#a)">
<g transform="translate(858 588.43) rotate(-79.471) scale(.08 -.08)">
<use xlink:href="#x"/>
</g>
</g>
<path d="m944.32 582.99 0.69824 5.8132q0.28621 2.3829 2.6691 2.0967l7.6872-0.92334q2.3829-0.28621 2.0967-2.6691l-0.69824-5.8132q-0.28621-2.3829-2.6691-2.0967l-7.6872 0.92334q-2.3829 0.28621-2.0967 2.6691z" clip-path="url(#a)" fill="#fff" stroke="#fff"/>
<g clip-path="url(#a)">
<g transform="translate(948.35 582.5) rotate(83.151) scale(.08 -.08)">
<use xlink:href="#x"/>
</g>
</g>
<path d="m745.4 925.47v35.285q0 2.4 2.4 2.4h7.7425q2.4 0 2.4-2.4v-35.285q0-2.4-2.4-2.4h-7.7425q-2.4 0-2.4 2.4z" clip-path="url(#a)" fill="#fff" stroke="#fff"/>
<g clip-path="url(#a)">
<g transform="translate(749.47 925.47) rotate(90) scale(.08 -.08)">
<use xlink:href="#l"/>
<use x="60.818359" xlink:href="#d"/>
<use x="122.341797" xlink:href="#g"/>
<use x="163.439453" xlink:href="#k"/>
<use x="260.851562" xlink:href="#h"/>
<use x="288.634766" xlink:href="#f"/>
<use x="352.013672" xlink:href="#i"/>
<use x="413.292969" xlink:href="#j"/>
</g>
</g>
<path d="m874.39 850.07 2.1951-4.5535q1.0422-2.1619-1.1197-3.2041l-6.9744-3.3621q-2.1619-1.0422-3.2041 1.1197l-2.1951 4.5535q-1.0422 2.1619 1.1197 3.2041l6.9744 3.3621q2.1619 1.0422 3.2041-1.1197z" clip-path="url(#a)" fill="#fff" stroke="#fff"/>
<g clip-path="url(#a)">
<g transform="translate(870.73 848.3) rotate(-64.263) scale(.08 -.08)">
<use xlink:href="#t"/>
</g>
</g>
<path d="m887.2 842.28v5.5862q0 2.4 2.4 2.4h7.7425q2.4 0 2.4-2.4v-5.5862q0-2.4-2.4-2.4h-7.7425q-2.4 0-2.4 2.4z" clip-path="url(#a)" fill="#fff" stroke="#fff"/>
<g clip-path="url(#a)">
<g transform="translate(891.26 842.28) rotate(90) scale(.08 -.08)">
<use xlink:href="#m"/>
</g>
</g>
<path d="m910.36 845.52 2.1951 4.5535q1.0422 2.1619 3.2041 1.1197l6.9744-3.3621q2.1619-1.0422 1.1197-3.2041l-2.1951-4.5535q-1.0422-2.1619-3.2041-1.1197l-6.9744 3.3621q-2.1619 1.0422-1.1197 3.2041z" clip-path="url(#a)" fill="#fff" stroke="#fff"/>
<g clip-path="url(#a)">
<g transform="translate(914.02 843.75) rotate(64.263) scale(.08 -.08)">
<use xlink:href="#t"/>
</g>
</g>
<path d="m1091.7 643.46 0.98973-4.9572q0.4699-2.3535-1.8836-2.8235l-7.5926-1.5159q-2.3535-0.4699-2.8235 1.8836l-0.98973 4.9572q-0.4699 2.3535 1.8836 2.8235l7.5926 1.5159q2.3535 0.4699 2.8235-1.8836z" clip-path="url(#a)" fill="#fff" stroke="#fff"/>
<g clip-path="url(#a)">
<g transform="translate(1087.7 642.66) rotate(-78.709) scale(.08 -.08)">
<use xlink:href="#t"/>
</g>
</g>
<path d="m1115.6 643.19 0.59292-5.5547q0.25473-2.3864-2.1317-2.6412l-7.6988-0.82178q-2.3864-0.25473-2.6412 2.1317l-0.59292 5.5547q-0.25473 2.3864 2.1317 2.6412l7.6988 0.82178q2.3864 0.25473 2.6412-2.1317z" clip-path="url(#a)" fill="#fff" stroke="#fff"/>
<g clip-path="url(#a)">
<g transform="translate(1111.6 642.76) rotate(-83.907) scale(.08 -.08)">
<use xlink:href="#m"/>
</g>
</g>
<path d="m1209.1 442.3 4.1765 2.8477q1.9829 1.352 3.335-0.6309l4.3617-6.397q1.352-1.9829-0.6309-3.335l-4.1765-2.8477q-1.9829-1.352-3.335 0.6309l-4.3617 6.397q-1.352 1.9829 0.6309 3.335z" clip-path="url(#a)" fill="#fff" stroke="#fff"/>
<g clip-path="url(#a)">
<g transform="translate(1211.4 438.94) rotate(34.287) scale(.08 -.08)">
<use xlink:href="#t"/>
</g>
</g>
<path d="m1029 925.47v35.285q0 2.4 2.4 2.4h7.7425q2.4 0 2.4-2.4v-35.285q0-2.4-2.4-2.4h-7.7425q-2.4 0-2.4 2.4z" clip-path="url(#a)" fill="#fff" stroke="#fff"/>
<g clip-path="url(#a)">
<g transform="translate(1033.1 925.47) rotate(90) scale(.08 -.08)">
<use xlink:href="#l"/>
<use x="60.818359" xlink:href="#d"/>
<use x="122.341797" xlink:href="#g"/>
<use x="163.439453" xlink:href="#k"/>
<use x="260.851562" xlink:href="#h"/>
<use x="288.634766" xlink:href="#f"/>
<use x="352.013672" xlink:href="#i"/>
<use x="413.292969" xlink:href="#j"/>
</g>
</g>
<path d="m1076.3 925.47v35.285q0 2.4 2.4 2.4h7.7425q2.4 0 2.4-2.4v-35.285q0-2.4-2.4-2.4h-7.7425q-2.4 0-2.4 2.4z" clip-path="url(#a)" fill="#fff" stroke="#fff"/>
<g clip-path="url(#a)">
<g transform="translate(1080.3 925.47) rotate(90) scale(.08 -.08)">
<use xlink:href="#l"/>
<use x="60.818359" xlink:href="#d"/>
<use x="122.341797" xlink:href="#g"/>
<use x="163.439453" xlink:href="#k"/>
<use x="260.851562" xlink:href="#h"/>
<use x="288.634766" xlink:href="#f"/>
<use x="352.013672" xlink:href="#i"/>
<use x="413.292969" xlink:href="#j"/>
</g>
</g>
<path d="m1216 697.83 2.0961-5.1781q0.90052-2.2246-1.3241-3.1252l-7.1768-2.9051q-2.2246-0.90052-3.1252 1.3241l-2.0961 5.1781q-0.90052 2.2246 1.3241 3.1252l7.1768 2.9051q2.2246 0.90052 3.1252-1.3241z" clip-path="url(#a)" fill="#fff" stroke="#fff"/>
<g clip-path="url(#a)">
<g transform="translate(1212.2 696.3) rotate(-67.962) scale(.08 -.08)">
<use xlink:href="#m"/>
</g>
</g>
<path d="m1264.2 696.69 0.93562-5.5073q0.40197-2.3661-1.9641-2.7681l-7.6331-1.2968q-2.3661-0.40197-2.7681 1.9641l-0.93562 5.5073q-0.40197 2.3661 1.9641 2.7681l7.6331 1.2968q2.3661 0.40197 2.7681-1.9641z" clip-path="url(#a)" fill="#fff" stroke="#fff"/>
<g clip-path="url(#a)">
<g transform="translate(1260.2 696.01) rotate(-80.358) scale(.08 -.08)">
<use xlink:href="#m"/>
</g>
</g>
<path d="m1310.9 642.12 0.90196 5.513q0.3875 2.3685 2.756 1.981l7.6409-1.2501q2.3685-0.3875 1.981-2.756l-0.90196-5.513q-0.3875-2.3685-2.756-1.981l-7.6409 1.2501q-2.3685 0.3875-1.981 2.756z" clip-path="url(#a)" fill="#fff" stroke="#fff"/>
<g clip-path="url(#a)">
<g transform="translate(1315 641.46) rotate(80.708) scale(.08 -.08)">
<use xlink:href="#m"/>
</g>
</g>
<path d="m1386.1 547.75 4.9466 2.5956q2.1252 1.1151 3.2403-1.01l3.5975-6.856q1.1151-2.1252-1.01-3.2403l-4.9466-2.5956q-2.1252-1.1151-3.2403 1.01l-3.5975 6.856q-1.1151 2.1252 1.01 3.2403z" clip-path="url(#a)" fill="#fff" stroke="#fff"/>
<g clip-path="url(#a)">
<g transform="translate(1387.9 544.15) rotate(27.687) scale(.08 -.08)">
<use xlink:href="#m"/>
</g>
</g>
<path d="m1240.1 697.43 1.6169-5.6273q0.6628-2.3067-1.6439-2.9695l-7.4414-2.1382q-2.3067-0.6628-2.9695 1.6439l-1.6169 5.6273q-0.6628 2.3067 1.6439 2.9695l7.4414 2.1382q2.3067 0.6628 2.9695-1.6439z" clip-path="url(#a)" fill="#fff" stroke="#fff"/>
<g clip-path="url(#a)">
<g transform="translate(1236.2 696.31) rotate(-73.969) scale(.08 -.08)">
<use xlink:href="#x"/>
</g>
</g>
<path d="m1288.2 696.14 0.30658-5.847q0.12567-2.3967-2.271-2.5224l-7.7319-0.40542q-2.3967-0.12567-2.5224 2.271l-0.30658 5.847q-0.12567 2.3967 2.271 2.5224l7.7319 0.40542q2.3967 0.12567 2.5224-2.271z" clip-path="url(#a)" fill="#fff" stroke="#fff"/>
<g clip-path="url(#a)">
<g transform="translate(1284.2 695.92) rotate(-86.998) scale(.08 -.08)">
<use xlink:href="#x"/>
</g>
</g>
<path d="m1346.2 691.88 1.682 5.6082q0.68947 2.2988 2.9883 1.6094l7.4161-2.2243q2.2988-0.68947 1.6094-2.9883l-1.682-5.6082q-0.68947-2.2988-2.9883-1.6094l-7.4161 2.2243q-2.2988 0.68947-1.6094 2.9883z" clip-path="url(#a)" fill="#fff" stroke="#fff"/>
<g clip-path="url(#a)">
<g transform="translate(1350.1 690.71) rotate(73.305) scale(.08 -.08)">
<use xlink:href="#x"/>
</g>
</g>
<path d="m1123.5 925.47v35.285q0 2.4 2.4 2.4h7.7425q2.4 0 2.4-2.4v-35.285q0-2.4-2.4-2.4h-7.7425q-2.4 0-2.4 2.4z" clip-path="url(#a)" fill="#fff" stroke="#fff"/>
<g clip-path="url(#a)">
<g transform="translate(1127.6 925.47) rotate(90) scale(.08 -.08)">
<use xlink:href="#l"/>
<use x="60.818359" xlink:href="#d"/>
<use x="122.341797" xlink:href="#g"/>
<use x="163.439453" xlink:href="#k"/>
<use x="260.851562" xlink:href="#h"/>
<use x="288.634766" xlink:href="#f"/>
<use x="352.013672" xlink:href="#i"/>
<use x="413.292969" xlink:href="#j"/>
</g>
</g>
<path d="m1218.1 925.47v35.285q0 2.4 2.4 2.4h7.7425q2.4 0 2.4-2.4v-35.285q0-2.4-2.4-2.4h-7.7425q-2.4 0-2.4 2.4z" clip-path="url(#a)" fill="#fff" stroke="#fff"/>
<g clip-path="url(#a)">
<g transform="translate(1222.1 925.47) rotate(90) scale(.08 -.08)">
<use xlink:href="#l"/>
<use x="60.818359" xlink:href="#d"/>
<use x="122.341797" xlink:href="#g"/>
<use x="163.439453" xlink:href="#k"/>
<use x="260.851562" xlink:href="#h"/>
<use x="288.634766" xlink:href="#f"/>
<use x="352.013672" xlink:href="#i"/>
<use x="413.292969" xlink:href="#j"/>
</g>
</g>
<path d="m1336.2 849 1.1845-4.9143q0.56237-2.3332-1.7708-2.8956l-7.5269-1.8142q-2.3332-0.56237-2.8956 1.7708l-1.1845 4.9143q-0.56237 2.3332 1.7708 2.8956l7.5269 1.8142q2.3332 0.56237 2.8956-1.7708z" clip-path="url(#a)" fill="#fff" stroke="#fff"/>
<g clip-path="url(#a)">
<g transform="translate(1332.2 848.04) rotate(-76.448) scale(.08 -.08)">
<use xlink:href="#t"/>
</g>
</g>
<path d="m1347.6 843.82 1.309 5.4307q0.56237 2.3332 2.8956 1.7708l7.5269-1.8142q2.3332-0.56237 1.7708-2.8956l-1.309-5.4307q-0.56237-2.3332-2.8956-1.7708l-7.5269 1.8142q-2.3332 0.56237-1.7708 2.8956z" clip-path="url(#a)" fill="#fff" stroke="#fff"/>
<g clip-path="url(#a)">
<g transform="translate(1351.5 842.87) rotate(76.448) scale(.08 -.08)">
<use xlink:href="#m"/>
</g>
</g>
<path d="m1287.9 751.38 4.4139-3.2351q1.9358-1.4188 0.517-3.3545l-4.577-6.2448q-1.4188-1.9358-3.3545-0.517l-4.4139 3.2351q-1.9358 1.4188-0.517 3.3545l4.577 6.2448q1.4188 1.9358 3.3545 0.517z" clip-path="url(#a)" fill="#fff" stroke="#fff"/>
<g clip-path="url(#a)">
<g transform="translate(1285.5 748.1) rotate(-36.238) scale(.08 -.08)">
<use xlink:href="#z"/>
</g>
</g>
<path d="m1481.4 748.38 0.60608-6.1301q0.23614-2.3884-2.1522-2.6245l-7.7049-0.76178q-2.3884-0.23614-2.6245 2.1522l-0.60608 6.1301q-0.23614 2.3884 2.1522 2.6245l7.7049 0.76178q2.3884 0.23614 2.6245-2.1522z" clip-path="url(#a)" fill="#fff" stroke="#fff"/>
<g clip-path="url(#a)">
<defs>
<path id="av" d="m19.672 64.797v-56.688h11.922q15.094 0 22.094 6.8281 7 6.8438 7 21.594 0 14.641-7 21.453t-22.094 6.8125zm-9.8594 8.1094h20.266q21.188 0 31.094-8.8125 9.9219-8.8125 9.9219-27.562 0-18.859-9.9688-27.703-9.9531-8.8281-31.047-8.8281h-20.266z"/>
</defs>
<g transform="translate(1477.3 747.98) rotate(-84.354) scale(.08 -.08)">
<use xlink:href="#av"/>
</g>
</g>
<path d="m1540.2 648.93 3.7701 3.403q1.7816 1.6081 3.3897-0.17345l5.1878-5.7474q1.6081-1.7816-0.17346-3.3897l-3.7701-3.403q-1.7816-1.6081-3.3897 0.17345l-5.1878 5.7474q-1.6081 1.7816 0.17345 3.3897z" clip-path="url(#a)" fill="#fff" stroke="#fff"/>
<g clip-path="url(#a)">
<defs>
<path id="aq" d="m53.516 70.516v-9.625q-5.6094 2.6875-10.594 4-4.9844 1.3281-9.625 1.3281-8.0469 0-12.422-3.125t-4.375-8.8906q0-4.8438 2.9062-7.3125 2.9062-2.4531 11.016-3.9688l5.9531-1.2188q11.031-2.1094 16.281-7.4062t5.25-14.172q0-10.609-7.1094-16.078-7.0938-5.4688-20.812-5.4688-5.1719 0-11.016 1.1719-5.8281 1.1719-12.078 3.4688v10.156q6-3.3594 11.766-5.0781 5.7656-1.7031 11.328-1.7031 8.4375 0 13.031 3.3125 4.5938 3.3281 4.5938 9.4844 0 5.3594-3.2969 8.3906t-10.812 4.5469l-6.0156 1.1719q-11.031 2.1875-15.969 6.875-4.9219 4.6875-4.9219 13.047 0 9.6719 6.8125 15.234t18.766 5.5625q5.1406 0 10.453-0.9375 5.3281-0.92188 10.891-2.7656z"/>
</defs>
<g transform="translate(1543 645.91) rotate(42.071) scale(.08 -.08)">
<use xlink:href="#aq"/>
</g>
</g>
<path d="m1647 699.58 4.6558 2.8761q2.0418 1.2613 3.3032-0.78048l4.0691-6.587q1.2613-2.0418-0.78048-3.3032l-4.6558-2.8761q-2.0418-1.2613-3.3032 0.78048l-4.0691 6.587q-1.2613 2.0418 0.78048 3.3032z" clip-path="url(#a)" fill="#fff" stroke="#fff"/>
<g clip-path="url(#a)">
<g transform="translate(1649.2 696.12) rotate(31.706) scale(.08 -.08)">
<use xlink:href="#z"/>
</g>
</g>
<path d="m1454.4 925.47v35.285q0 2.4 2.4 2.4h7.7425q2.4 0 2.4-2.4v-35.285q0-2.4-2.4-2.4h-7.7425q-2.4 0-2.4 2.4z" clip-path="url(#a)" fill="#fff" stroke="#fff"/>
<g clip-path="url(#a)">
<g transform="translate(1458.4 925.47) rotate(90) scale(.08 -.08)">
<use xlink:href="#l"/>
<use x="60.818359" xlink:href="#d"/>
<use x="122.341797" xlink:href="#g"/>
<use x="163.439453" xlink:href="#k"/>
<use x="260.851562" xlink:href="#h"/>
<use x="288.634766" xlink:href="#f"/>
<use x="352.013672" xlink:href="#i"/>
<use x="413.292969" xlink:href="#j"/>
</g>
</g>
<path d="m1570.5 752.26 3.2436-4.5481q1.3935-1.954-0.56045-3.3475l-6.3036-4.4956q-1.954-1.3935-3.3475 0.56045l-3.2436 4.5481q-1.3935 1.954 0.56045 3.3475l6.3036 4.4956q1.954 1.3935 3.3475-0.56045z" clip-path="url(#a)" fill="#fff" stroke="#fff"/>
<g clip-path="url(#a)">
<g transform="translate(1567.2 749.9) rotate(-54.504) scale(.08 -.08)">
<use xlink:href="#m"/>
</g>
</g>
<path d="m1596.2 792.37v5.985q0 2.4 2.4 2.4h7.7425q2.4 0 2.4-2.4v-5.985q0-2.4-2.4-2.4h-7.7425q-2.4 0-2.4 2.4z" clip-path="url(#a)" fill="#fff" stroke="#fff"/>
<g clip-path="url(#a)">
<defs>
<path id="as" d="m9.8125 72.906h13.281l32.328-60.984v60.984h9.5625v-72.906h-13.281l-32.312 60.984v-60.984h-9.5781z"/>
</defs>
<g transform="translate(1600.2 792.37) rotate(90) scale(.08 -.08)">
<use xlink:href="#as"/>
</g>
</g>
<path d="m1631.2 747.71 3.2436 4.5481q1.3935 1.954 3.3475 0.56045l6.3036-4.4956q1.954-1.3935 0.56045-3.3475l-3.2436-4.5481q-1.3935-1.954-3.3475-0.56045l-6.3036 4.4956q-1.954 1.3935-0.56045 3.3475z" clip-path="url(#a)" fill="#fff" stroke="#fff"/>
<g clip-path="url(#a)">
<g transform="translate(1634.5 745.35) rotate(54.504) scale(.08 -.08)">
<use xlink:href="#m"/>
</g>
</g>
<path d="m1783.1 851 3.2572-4.5045q1.4063-1.9448-0.53853-3.3511l-6.2741-4.5368q-1.9448-1.4063-3.3511 0.53853l-3.2572 4.5045q-1.4063 1.9448 0.53853 3.3511l6.2741 4.5368q1.9448 1.4063 3.3511-0.53853z" clip-path="url(#a)" fill="#fff" stroke="#fff"/>
<g clip-path="url(#a)">
<g transform="translate(1779.8 848.61) rotate(-54.129) scale(.08 -.08)">
<use xlink:href="#af"/>
</g>
</g>
<path d="m1808.8 849 1.1845-4.9143q0.56237-2.3332-1.7708-2.8956l-7.5269-1.8142q-2.3332-0.56237-2.8956 1.7708l-1.1845 4.9143q-0.56237 2.3332 1.7708 2.8956l7.5269 1.8142q2.3332 0.56237 2.8956-1.7708z" clip-path="url(#a)" fill="#fff" stroke="#fff"/>
<g clip-path="url(#a)">
<g transform="translate(1804.9 848.04) rotate(-76.448) scale(.08 -.08)">
<use xlink:href="#t"/>
</g>
</g>
<path d="m1820.2 843.82 1.309 5.4307q0.56237 2.3332 2.8956 1.7708l7.5269-1.8142q2.3332-0.56237 1.7708-2.8956l-1.309-5.4307q-0.56237-2.3332-2.8956-1.7708l-7.5269 1.8142q-2.3332 0.56237-1.7708 2.8956z" clip-path="url(#a)" fill="#fff" stroke="#fff"/>
<g clip-path="url(#a)">
<g transform="translate(1824.2 842.87) rotate(76.448) scale(.08 -.08)">
<use xlink:href="#m"/>
</g>
</g>
<path d="m1843.8 846.37 3.4308 4.7446q1.4063 1.9448 3.3511 0.53853l6.2741-4.5368q1.9448-1.4063 0.53853-3.3511l-3.4308-4.7446q-1.4063-1.9448-3.3511-0.53853l-6.2741 4.5368q-1.9448 1.4063-0.53853 3.3511z" clip-path="url(#a)" fill="#fff" stroke="#fff"/>
<g clip-path="url(#a)">
<g transform="translate(1847.1 843.99) rotate(54.129) scale(.08 -.08)">
<use xlink:href="#x"/>
</g>
</g>
<path d="m1738 925.47v35.285q0 2.4 2.4 2.4h7.7425q2.4 0 2.4-2.4v-35.285q0-2.4-2.4-2.4h-7.7425q-2.4 0-2.4 2.4z" clip-path="url(#a)" fill="#fff" stroke="#fff"/>
<g clip-path="url(#a)">
<g transform="translate(1742 925.47) rotate(90) scale(.08 -.08)">
<use xlink:href="#l"/>
<use x="60.818359" xlink:href="#d"/>
<use x="122.341797" xlink:href="#g"/>
<use x="163.439453" xlink:href="#k"/>
<use x="260.851562" xlink:href="#h"/>
<use x="288.634766" xlink:href="#f"/>
<use x="352.013672" xlink:href="#i"/>
<use x="413.292969" xlink:href="#j"/>
</g>
</g>
<path d="m1785.2 925.47v35.285q0 2.4 2.4 2.4h7.7425q2.4 0 2.4-2.4v-35.285q0-2.4-2.4-2.4h-7.7425q-2.4 0-2.4 2.4z" clip-path="url(#a)" fill="#fff" stroke="#fff"/>
<g clip-path="url(#a)">
<g transform="translate(1789.3 925.47) rotate(90) scale(.08 -.08)">
<use xlink:href="#l"/>
<use x="60.818359" xlink:href="#d"/>
<use x="122.341797" xlink:href="#g"/>
<use x="163.439453" xlink:href="#k"/>
<use x="260.851562" xlink:href="#h"/>
<use x="288.634766" xlink:href="#f"/>
<use x="352.013672" xlink:href="#i"/>
<use x="413.292969" xlink:href="#j"/>
</g>
</g>
<path d="m1832.5 925.47v35.285q0 2.4 2.4 2.4h7.7425q2.4 0 2.4-2.4v-35.285q0-2.4-2.4-2.4h-7.7425q-2.4 0-2.4 2.4z" clip-path="url(#a)" fill="#fff" stroke="#fff"/>
<g clip-path="url(#a)">
<g transform="translate(1836.6 925.47) rotate(90) scale(.08 -.08)">
<use xlink:href="#l"/>
<use x="60.818359" xlink:href="#d"/>
<use x="122.341797" xlink:href="#g"/>
<use x="163.439453" xlink:href="#k"/>
<use x="260.851562" xlink:href="#h"/>
<use x="288.634766" xlink:href="#f"/>
<use x="352.013672" xlink:href="#i"/>
<use x="413.292969" xlink:href="#j"/>
</g>
</g>
<path d="m1525.2 849 1.1845-4.9143q0.56237-2.3332-1.7708-2.8956l-7.5269-1.8142q-2.3332-0.56237-2.8956 1.7708l-1.1845 4.9143q-0.56237 2.3332 1.7708 2.8956l7.5269 1.8142q2.3332 0.56237 2.8956-1.7708z" clip-path="url(#a)" fill="#fff" stroke="#fff"/>
<g clip-path="url(#a)">
<g transform="translate(1521.3 848.04) rotate(-76.448) scale(.08 -.08)">
<use xlink:href="#t"/>
</g>
</g>
<path d="m1536.6 843.82 1.309 5.4307q0.56237 2.3332 2.8956 1.7708l7.5269-1.8142q2.3332-0.56237 1.7708-2.8956l-1.309-5.4307q-0.56237-2.3332-2.8956-1.7708l-7.5269 1.8142q-2.3332 0.56237-1.7708 2.8956z" clip-path="url(#a)" fill="#fff" stroke="#fff"/>
<g clip-path="url(#a)">
<g transform="translate(1540.6 842.87) rotate(76.448) scale(.08 -.08)">
<use xlink:href="#m"/>
</g>
</g>
<path d="m1596.2 925.47v35.285q0 2.4 2.4 2.4h7.7425q2.4 0 2.4-2.4v-35.285q0-2.4-2.4-2.4h-7.7425q-2.4 0-2.4 2.4z" clip-path="url(#a)" fill="#fff" stroke="#fff"/>
<g clip-path="url(#a)">
<g transform="translate(1600.2 925.47) rotate(90) scale(.08 -.08)">
<use xlink:href="#l"/>
<use x="60.818359" xlink:href="#d"/>
<use x="122.341797" xlink:href="#g"/>
<use x="163.439453" xlink:href="#k"/>
<use x="260.851562" xlink:href="#h"/>
<use x="288.634766" xlink:href="#f"/>
<use x="352.013672" xlink:href="#i"/>
<use x="413.292969" xlink:href="#j"/>
</g>
</g>
<path d="m1667 849 1.1845-4.9143q0.56237-2.3332-1.7708-2.8956l-7.5269-1.8142q-2.3332-0.56237-2.8956 1.7708l-1.1845 4.9143q-0.56237 2.3332 1.7708 2.8956l7.5269 1.8142q2.3332 0.56237 2.8956-1.7708z" clip-path="url(#a)" fill="#fff" stroke="#fff"/>
<g clip-path="url(#a)">
<g transform="translate(1663.1 848.04) rotate(-76.448) scale(.08 -.08)">
<use xlink:href="#t"/>
</g>
</g>
<path d="m1678.4 843.82 1.309 5.4307q0.56237 2.3332 2.8956 1.7708l7.5269-1.8142q2.3332-0.56237 1.7708-2.8956l-1.309-5.4307q-0.56237-2.3332-2.8956-1.7708l-7.5269 1.8142q-2.3332 0.56237-1.7708 2.8956z" clip-path="url(#a)" fill="#fff" stroke="#fff"/>
<g clip-path="url(#a)">
<g transform="translate(1682.4 842.87) rotate(76.448) scale(.08 -.08)">
<use xlink:href="#m"/>
</g>
</g>
<path d="m1643.4 925.47v35.285q0 2.4 2.4 2.4h7.7425q2.4 0 2.4-2.4v-35.285q0-2.4-2.4-2.4h-7.7425q-2.4 0-2.4 2.4z" clip-path="url(#a)" fill="#fff" stroke="#fff"/>
<g clip-path="url(#a)">
<g transform="translate(1647.5 925.47) rotate(90) scale(.08 -.08)">
<use xlink:href="#l"/>
<use x="60.818359" xlink:href="#d"/>
<use x="122.341797" xlink:href="#g"/>
<use x="163.439453" xlink:href="#k"/>
<use x="260.851562" xlink:href="#h"/>
<use x="288.634766" xlink:href="#f"/>
<use x="352.013672" xlink:href="#i"/>
<use x="413.292969" xlink:href="#j"/>
</g>
</g>
<path d="m1690.7 925.47v35.285q0 2.4 2.4 2.4h7.7425q2.4 0 2.4-2.4v-35.285q0-2.4-2.4-2.4h-7.7425q-2.4 0-2.4 2.4z" clip-path="url(#a)" fill="#fff" stroke="#fff"/>
<g clip-path="url(#a)">
<g transform="translate(1694.8 925.47) rotate(90) scale(.08 -.08)">
<use xlink:href="#l"/>
<use x="60.818359" xlink:href="#d"/>
<use x="122.341797" xlink:href="#g"/>
<use x="163.439453" xlink:href="#k"/>
<use x="260.851562" xlink:href="#h"/>
<use x="288.634766" xlink:href="#f"/>
<use x="352.013672" xlink:href="#i"/>
<use x="413.292969" xlink:href="#j"/>
</g>
</g>
<path d="m1501.6 925.47v35.285q0 2.4 2.4 2.4h7.7425q2.4 0 2.4-2.4v-35.285q0-2.4-2.4-2.4h-7.7425q-2.4 0-2.4 2.4z" clip-path="url(#a)" fill="#fff" stroke="#fff"/>
<g clip-path="url(#a)">
<g transform="translate(1505.7 925.47) rotate(90) scale(.08 -.08)">
<use xlink:href="#l"/>
<use x="60.818359" xlink:href="#d"/>
<use x="122.341797" xlink:href="#g"/>
<use x="163.439453" xlink:href="#k"/>
<use x="260.851562" xlink:href="#h"/>
<use x="288.634766" xlink:href="#f"/>
<use x="352.013672" xlink:href="#i"/>
<use x="413.292969" xlink:href="#j"/>
</g>
</g>
<path d="m1548.9 925.47v35.285q0 2.4 2.4 2.4h7.7425q2.4 0 2.4-2.4v-35.285q0-2.4-2.4-2.4h-7.7425q-2.4 0-2.4 2.4z" clip-path="url(#a)" fill="#fff" stroke="#fff"/>
<g clip-path="url(#a)">
<g transform="translate(1553 925.47) rotate(90) scale(.08 -.08)">
<use xlink:href="#l"/>
<use x="60.818359" xlink:href="#d"/>
<use x="122.341797" xlink:href="#g"/>
<use x="163.439453" xlink:href="#k"/>
<use x="260.851562" xlink:href="#h"/>
<use x="288.634766" xlink:href="#f"/>
<use x="352.013672" xlink:href="#i"/>
<use x="413.292969" xlink:href="#j"/>
</g>
</g>
<path d="m1312.6 925.47v35.285q0 2.4 2.4 2.4h7.7425q2.4 0 2.4-2.4v-35.285q0-2.4-2.4-2.4h-7.7425q-2.4 0-2.4 2.4z" clip-path="url(#a)" fill="#fff" stroke="#fff"/>
<g clip-path="url(#a)">
<g transform="translate(1316.6 925.47) rotate(90) scale(.08 -.08)">
<use xlink:href="#l"/>
<use x="60.818359" xlink:href="#d"/>
<use x="122.341797" xlink:href="#g"/>
<use x="163.439453" xlink:href="#k"/>
<use x="260.851562" xlink:href="#h"/>
<use x="288.634766" xlink:href="#f"/>
<use x="352.013672" xlink:href="#i"/>
<use x="413.292969" xlink:href="#j"/>
</g>
</g>
<path d="m1359.8 925.47v35.285q0 2.4 2.4 2.4h7.7425q2.4 0 2.4-2.4v-35.285q0-2.4-2.4-2.4h-7.7425q-2.4 0-2.4 2.4z" clip-path="url(#a)" fill="#fff" stroke="#fff"/>
<g clip-path="url(#a)">
<g transform="translate(1363.9 925.47) rotate(90) scale(.08 -.08)">
<use xlink:href="#l"/>
<use x="60.818359" xlink:href="#d"/>
<use x="122.341797" xlink:href="#g"/>
<use x="163.439453" xlink:href="#k"/>
<use x="260.851562" xlink:href="#h"/>
<use x="288.634766" xlink:href="#f"/>
<use x="352.013672" xlink:href="#i"/>
<use x="413.292969" xlink:href="#j"/>
</g>
</g>
<path d="m839.93 925.47v35.285q0 2.4 2.4 2.4h7.7425q2.4 0 2.4-2.4v-35.285q0-2.4-2.4-2.4h-7.7425q-2.4 0-2.4 2.4z" clip-path="url(#a)" fill="#fff" stroke="#fff"/>
<g clip-path="url(#a)">
<g transform="translate(844 925.47) rotate(90) scale(.08 -.08)">
<use xlink:href="#l"/>
<use x="60.818359" xlink:href="#d"/>
<use x="122.341797" xlink:href="#g"/>
<use x="163.439453" xlink:href="#k"/>
<use x="260.851562" xlink:href="#h"/>
<use x="288.634766" xlink:href="#f"/>
<use x="352.013672" xlink:href="#i"/>
<use x="413.292969" xlink:href="#j"/>
</g>
</g>
<path d="m887.2 925.47v35.285q0 2.4 2.4 2.4h7.7425q2.4 0 2.4-2.4v-35.285q0-2.4-2.4-2.4h-7.7425q-2.4 0-2.4 2.4z" clip-path="url(#a)" fill="#fff" stroke="#fff"/>
<g clip-path="url(#a)">
<g transform="translate(891.26 925.47) rotate(90) scale(.08 -.08)">
<use xlink:href="#l"/>
<use x="60.818359" xlink:href="#d"/>
<use x="122.341797" xlink:href="#g"/>
<use x="163.439453" xlink:href="#k"/>
<use x="260.851562" xlink:href="#h"/>
<use x="288.634766" xlink:href="#f"/>
<use x="352.013672" xlink:href="#i"/>
<use x="413.292969" xlink:href="#j"/>
</g>
</g>
<path d="m934.46 925.47v35.285q0 2.4 2.4 2.4h7.7425q2.4 0 2.4-2.4v-35.285q0-2.4-2.4-2.4h-7.7425q-2.4 0-2.4 2.4z" clip-path="url(#a)" fill="#fff" stroke="#fff"/>
<g clip-path="url(#a)">
<g transform="translate(938.53 925.47) rotate(90) scale(.08 -.08)">
<use xlink:href="#l"/>
<use x="60.818359" xlink:href="#d"/>
<use x="122.341797" xlink:href="#g"/>
<use x="163.439453" xlink:href="#k"/>
<use x="260.851562" xlink:href="#h"/>
<use x="288.634766" xlink:href="#f"/>
<use x="352.013672" xlink:href="#i"/>
<use x="413.292969" xlink:href="#j"/>
</g>
</g>
<path d="m650.87 925.47v35.285q0 2.4 2.4 2.4h7.7425q2.4 0 2.4-2.4v-35.285q0-2.4-2.4-2.4h-7.7425q-2.4 0-2.4 2.4z" clip-path="url(#a)" fill="#fff" stroke="#fff"/>
<g clip-path="url(#a)">
<g transform="translate(654.94 925.47) rotate(90) scale(.08 -.08)">
<use xlink:href="#l"/>
<use x="60.818359" xlink:href="#d"/>
<use x="122.341797" xlink:href="#g"/>
<use x="163.439453" xlink:href="#k"/>
<use x="260.851562" xlink:href="#h"/>
<use x="288.634766" xlink:href="#f"/>
<use x="352.013672" xlink:href="#i"/>
<use x="413.292969" xlink:href="#j"/>
</g>
</g>
<path d="m698.14 925.47v35.285q0 2.4 2.4 2.4h7.7425q2.4 0 2.4-2.4v-35.285q0-2.4-2.4-2.4h-7.7425q-2.4 0-2.4 2.4z" clip-path="url(#a)" fill="#fff" stroke="#fff"/>
<g clip-path="url(#a)">
<g transform="translate(702.2 925.47) rotate(90) scale(.08 -.08)">
<use xlink:href="#l"/>
<use x="60.818359" xlink:href="#d"/>
<use x="122.341797" xlink:href="#g"/>
<use x="163.439453" xlink:href="#k"/>
<use x="260.851562" xlink:href="#h"/>
<use x="288.634766" xlink:href="#f"/>
<use x="352.013672" xlink:href="#i"/>
<use x="413.292969" xlink:href="#j"/>
</g>
</g>
<path d="m414.55 925.47v35.285q0 2.4 2.4 2.4h7.7425q2.4 0 2.4-2.4v-35.285q0-2.4-2.4-2.4h-7.7425q-2.4 0-2.4 2.4z" clip-path="url(#a)" fill="#fff" stroke="#fff"/>
<g clip-path="url(#a)">
<g transform="translate(418.61 925.47) rotate(90) scale(.08 -.08)">
<use xlink:href="#l"/>
<use x="60.818359" xlink:href="#d"/>
<use x="122.341797" xlink:href="#g"/>
<use x="163.439453" xlink:href="#k"/>
<use x="260.851562" xlink:href="#h"/>
<use x="288.634766" xlink:href="#f"/>
<use x="352.013672" xlink:href="#i"/>
<use x="413.292969" xlink:href="#j"/>
</g>
</g>
<path d="m461.82 925.47v35.285q0 2.4 2.4 2.4h7.7425q2.4 0 2.4-2.4v-35.285q0-2.4-2.4-2.4h-7.7425q-2.4 0-2.4 2.4z" clip-path="url(#a)" fill="#fff" stroke="#fff"/>
<g clip-path="url(#a)">
<g transform="translate(465.88 925.47) rotate(90) scale(.08 -.08)">
<use xlink:href="#l"/>
<use x="60.818359" xlink:href="#d"/>
<use x="122.341797" xlink:href="#g"/>
<use x="163.439453" xlink:href="#k"/>
<use x="260.851562" xlink:href="#h"/>
<use x="288.634766" xlink:href="#f"/>
<use x="352.013672" xlink:href="#i"/>
<use x="413.292969" xlink:href="#j"/>
</g>
</g>
<path d="m225.49 925.47v35.285q0 2.4 2.4 2.4h7.7425q2.4 0 2.4-2.4v-35.285q0-2.4-2.4-2.4h-7.7425q-2.4 0-2.4 2.4z" clip-path="url(#a)" fill="#fff" stroke="#fff"/>
<g clip-path="url(#a)">
<g transform="translate(229.55 925.47) rotate(90) scale(.08 -.08)">
<use xlink:href="#l"/>
<use x="60.818359" xlink:href="#d"/>
<use x="122.341797" xlink:href="#g"/>
<use x="163.439453" xlink:href="#k"/>
<use x="260.851562" xlink:href="#h"/>
<use x="288.634766" xlink:href="#f"/>
<use x="352.013672" xlink:href="#i"/>
<use x="413.292969" xlink:href="#j"/>
</g>
</g>
<path d="m272.76 925.47v35.285q0 2.4 2.4 2.4h7.7425q2.4 0 2.4-2.4v-35.285q0-2.4-2.4-2.4h-7.7425q-2.4 0-2.4 2.4z" clip-path="url(#a)" fill="#fff" stroke="#fff"/>
<g clip-path="url(#a)">
<g transform="translate(276.82 925.47) rotate(90) scale(.08 -.08)">
<use xlink:href="#l"/>
<use x="60.818359" xlink:href="#d"/>
<use x="122.341797" xlink:href="#g"/>
<use x="163.439453" xlink:href="#k"/>
<use x="260.851562" xlink:href="#h"/>
<use x="288.634766" xlink:href="#f"/>
<use x="352.013672" xlink:href="#i"/>
<use x="413.292969" xlink:href="#j"/>
</g>
</g>
<path d="m320.02 925.47v35.285q0 2.4 2.4 2.4h7.7425q2.4 0 2.4-2.4v-35.285q0-2.4-2.4-2.4h-7.7425q-2.4 0-2.4 2.4z" clip-path="url(#a)" fill="#fff" stroke="#fff"/>
<g clip-path="url(#a)">
<g transform="translate(324.08 925.47) rotate(90) scale(.08 -.08)">
<use xlink:href="#l"/>
<use x="60.818359" xlink:href="#d"/>
<use x="122.341797" xlink:href="#g"/>
<use x="163.439453" xlink:href="#k"/>
<use x="260.851562" xlink:href="#h"/>
<use x="288.634766" xlink:href="#f"/>
<use x="352.013672" xlink:href="#i"/>
<use x="413.292969" xlink:href="#j"/>
</g>
</g>
<path d="m83.696 925.47v35.285q0 2.4 2.4 2.4h7.7425q2.4 0 2.4-2.4v-35.285q0-2.4-2.4-2.4h-7.7425q-2.4 0-2.4 2.4z" clip-path="url(#a)" fill="#fff" stroke="#fff"/>
<g clip-path="url(#a)">
<g transform="translate(87.76 925.47) rotate(90) scale(.08 -.08)">
<use xlink:href="#l"/>
<use x="60.818359" xlink:href="#d"/>
<use x="122.341797" xlink:href="#g"/>
<use x="163.439453" xlink:href="#k"/>
<use x="260.851562" xlink:href="#h"/>
<use x="288.634766" xlink:href="#f"/>
<use x="352.013672" xlink:href="#i"/>
<use x="413.292969" xlink:href="#j"/>
</g>
</g>
<path d="m130.96 925.47v35.285q0 2.4 2.4 2.4h7.7425q2.4 0 2.4-2.4v-35.285q0-2.4-2.4-2.4h-7.7425q-2.4 0-2.4 2.4z" clip-path="url(#a)" fill="#fff" stroke="#fff"/>
<g clip-path="url(#a)">
<g transform="translate(135.02 925.47) rotate(90) scale(.08 -.08)">
<use xlink:href="#l"/>
<use x="60.818359" xlink:href="#d"/>
<use x="122.341797" xlink:href="#g"/>
<use x="163.439453" xlink:href="#k"/>
<use x="260.851562" xlink:href="#h"/>
<use x="288.634766" xlink:href="#f"/>
<use x="352.013672" xlink:href="#i"/>
<use x="413.292969" xlink:href="#j"/>
</g>
</g>
<path d="m226.15 428.5 2.7762-9.6238q0.66521-2.306-1.6408-2.9712l-7.4392-2.146q-2.306-0.66521-2.9712 1.6408l-2.7762 9.6238q-0.66521 2.306 1.6408 2.9712l7.4392 2.146q2.306 0.66521 2.9712-1.6408z" clip-path="url(#a)" fill="#fff" stroke="#fff"/>
<g clip-path="url(#a)">
<g transform="translate(222.25 427.38) rotate(-73.909) scale(.08 -.08)">
<use xlink:href="#ai"/>
<use x="55.712891" xlink:href="#af"/>
</g>
</g>
<path d="m430 108.99 8.7504 4.6995q2.1144 1.1355 3.2499-0.97882l3.6633-6.821q1.1355-2.1144-0.97882-3.2499l-8.7504-4.6995q-2.1144-1.1355-3.2499 0.97882l-3.6633 6.821q-1.1355 2.1144 0.97882 3.2499z" clip-path="url(#a)" fill="#fff" stroke="#fff"/>
<g clip-path="url(#a)">
<g transform="translate(431.93 105.41) rotate(28.238) scale(.08 -.08)">
<use xlink:href="#ai"/>
<use x="55.744141" xlink:href="#z"/>
</g>
</g>
<path d="m178.23 925.47v35.285q0 2.4 2.4 2.4h7.7425q2.4 0 2.4-2.4v-35.285q0-2.4-2.4-2.4h-7.7425q-2.4 0-2.4 2.4z" clip-path="url(#a)" fill="#fff" stroke="#fff"/>
<g clip-path="url(#a)">
<g transform="translate(182.29 925.47) rotate(90) scale(.08 -.08)">
<use xlink:href="#l"/>
<use x="60.818359" xlink:href="#d"/>
<use x="122.341797" xlink:href="#g"/>
<use x="163.439453" xlink:href="#k"/>
<use x="260.851562" xlink:href="#h"/>
<use x="288.634766" xlink:href="#f"/>
<use x="352.013672" xlink:href="#i"/>
<use x="413.292969" xlink:href="#j"/>
</g>
</g>
<path d="m367.29 925.47v35.285q0 2.4 2.4 2.4h7.7425q2.4 0 2.4-2.4v-35.285q0-2.4-2.4-2.4h-7.7425q-2.4 0-2.4 2.4z" clip-path="url(#a)" fill="#fff" stroke="#fff"/>
<g clip-path="url(#a)">
<g transform="translate(371.35 925.47) rotate(90) scale(.08 -.08)">
<use xlink:href="#l"/>
<use x="60.818359" xlink:href="#d"/>
<use x="122.341797" xlink:href="#g"/>
<use x="163.439453" xlink:href="#k"/>
<use x="260.851562" xlink:href="#h"/>
<use x="288.634766" xlink:href="#f"/>
<use x="352.013672" xlink:href="#i"/>
<use x="413.292969" xlink:href="#j"/>
</g>
</g>
<path d="m792.67 925.47v35.285q0 2.4 2.4 2.4h7.7425q2.4 0 2.4-2.4v-35.285q0-2.4-2.4-2.4h-7.7425q-2.4 0-2.4 2.4z" clip-path="url(#a)" fill="#fff" stroke="#fff"/>
<g clip-path="url(#a)">
<g transform="translate(796.73 925.47) rotate(90) scale(.08 -.08)">
<use xlink:href="#l"/>
<use x="60.818359" xlink:href="#d"/>
<use x="122.341797" xlink:href="#g"/>
<use x="163.439453" xlink:href="#k"/>
<use x="260.851562" xlink:href="#h"/>
<use x="288.634766" xlink:href="#f"/>
<use x="352.013672" xlink:href="#i"/>
<use x="413.292969" xlink:href="#j"/>
</g>
</g>
<path d="m981.73 925.47v35.285q0 2.4 2.4 2.4h7.7425q2.4 0 2.4-2.4v-35.285q0-2.4-2.4-2.4h-7.7425q-2.4 0-2.4 2.4z" clip-path="url(#a)" fill="#fff" stroke="#fff"/>
<g clip-path="url(#a)">
<g transform="translate(985.79 925.47) rotate(90) scale(.08 -.08)">
<use xlink:href="#l"/>
<use x="60.818359" xlink:href="#d"/>
<use x="122.341797" xlink:href="#g"/>
<use x="163.439453" xlink:href="#k"/>
<use x="260.851562" xlink:href="#h"/>
<use x="288.634766" xlink:href="#f"/>
<use x="352.013672" xlink:href="#i"/>
<use x="413.292969" xlink:href="#j"/>
</g>
</g>
<path d="m1170.8 925.47v35.285q0 2.4 2.4 2.4h7.7425q2.4 0 2.4-2.4v-35.285q0-2.4-2.4-2.4h-7.7425q-2.4 0-2.4 2.4z" clip-path="url(#a)" fill="#fff" stroke="#fff"/>
<g clip-path="url(#a)">
<g transform="translate(1174.9 925.47) rotate(90) scale(.08 -.08)">
<use xlink:href="#l"/>
<use x="60.818359" xlink:href="#d"/>
<use x="122.341797" xlink:href="#g"/>
<use x="163.439453" xlink:href="#k"/>
<use x="260.851562" xlink:href="#h"/>
<use x="288.634766" xlink:href="#f"/>
<use x="352.013672" xlink:href="#i"/>
<use x="413.292969" xlink:href="#j"/>
</g>
</g>
<path d="m1265.3 925.47v35.285q0 2.4 2.4 2.4h7.7425q2.4 0 2.4-2.4v-35.285q0-2.4-2.4-2.4h-7.7425q-2.4 0-2.4 2.4z" clip-path="url(#a)" fill="#fff" stroke="#fff"/>
<g clip-path="url(#a)">
<g transform="translate(1269.4 925.47) rotate(90) scale(.08 -.08)">
<use xlink:href="#l"/>
<use x="60.818359" xlink:href="#d"/>
<use x="122.341797" xlink:href="#g"/>
<use x="163.439453" xlink:href="#k"/>
<use x="260.851562" xlink:href="#h"/>
<use x="288.634766" xlink:href="#f"/>
<use x="352.013672" xlink:href="#i"/>
<use x="413.292969" xlink:href="#j"/>
</g>
</g>
<path d="m1407.1 925.47v35.285q0 2.4 2.4 2.4h7.7425q2.4 0 2.4-2.4v-35.285q0-2.4-2.4-2.4h-7.7425q-2.4 0-2.4 2.4z" clip-path="url(#a)" fill="#fff" stroke="#fff"/>
<g clip-path="url(#a)">
<g transform="translate(1411.2 925.47) rotate(90) scale(.08 -.08)">
<use xlink:href="#l"/>
<use x="60.818359" xlink:href="#d"/>
<use x="122.341797" xlink:href="#g"/>
<use x="163.439453" xlink:href="#k"/>
<use x="260.851562" xlink:href="#h"/>
<use x="288.634766" xlink:href="#f"/>
<use x="352.013672" xlink:href="#i"/>
<use x="413.292969" xlink:href="#j"/>
</g>
</g>
<path d="m1879.8 925.47v35.285q0 2.4 2.4 2.4h7.7425q2.4 0 2.4-2.4v-35.285q0-2.4-2.4-2.4h-7.7425q-2.4 0-2.4 2.4z" clip-path="url(#a)" fill="#fff" stroke="#fff"/>
<g clip-path="url(#a)">
<g transform="translate(1883.8 925.47) rotate(90) scale(.08 -.08)">
<use xlink:href="#l"/>
<use x="60.818359" xlink:href="#d"/>
<use x="122.341797" xlink:href="#g"/>
<use x="163.439453" xlink:href="#k"/>
<use x="260.851562" xlink:href="#h"/>
<use x="288.634766" xlink:href="#f"/>
<use x="352.013672" xlink:href="#i"/>
<use x="413.292969" xlink:href="#j"/>
</g>
</g>
<defs>
<path id="b" d="m0 8.6603c2.2967 0 4.4997-0.9125 6.1237-2.5365 1.624-1.624 2.5365-3.827 2.5365-6.1237s-0.9125-4.4997-2.5365-6.1237c-1.624-1.624-3.827-2.5365-6.1237-2.5365s-4.4997 0.9125-6.1237 2.5365c-1.624 1.624-2.5365 3.827-2.5365 6.1237s0.9125 4.4997 2.5365 6.1237c1.624 1.624 3.827 2.5365 6.1237 2.5365z"/>
</defs>
<g clip-path="url(#a)">
<use x="89.967329" y="992.139427" fill="#ffffff" stroke="#ffffff" xlink:href="#b"/>
</g>
<g clip-path="url(#a)">
<use x="137.232206" y="992.139427" fill="#ffffff" stroke="#ffffff" xlink:href="#b"/>
</g>
<g clip-path="url(#a)">
<use x="184.497084" y="992.139427" fill="#ffffff" stroke="#ffffff" xlink:href="#b"/>
</g>
<g clip-path="url(#a)">
<use x="231.761961" y="992.139427" fill="#ffffff" stroke="#ffffff" xlink:href="#b"/>
</g>
<g clip-path="url(#a)">
<use x="279.026839" y="992.139427" fill="#ffffff" stroke="#ffffff" xlink:href="#b"/>
</g>
<g clip-path="url(#a)">
<use x="326.291716" y="992.139427" fill="#ffffff" stroke="#ffffff" xlink:href="#b"/>
</g>
<g clip-path="url(#a)">
<use x="373.556593" y="992.139427" fill="#ffffff" stroke="#ffffff" xlink:href="#b"/>
</g>
<g clip-path="url(#a)">
<use x="420.821471" y="992.139427" fill="#ffffff" stroke="#ffffff" xlink:href="#b"/>
</g>
<g clip-path="url(#a)">
<use x="468.086348" y="992.139427" fill="#ffffff" stroke="#ffffff" xlink:href="#b"/>
</g>
<g clip-path="url(#a)">
<use x="515.351226" y="992.139427" fill="#ffffff" stroke="#ffffff" xlink:href="#b"/>
</g>
<g clip-path="url(#a)">
<use x="562.616103" y="992.139427" fill="#ffffff" stroke="#ffffff" xlink:href="#b"/>
</g>
<g clip-path="url(#a)">
<use x="609.880981" y="992.139427" fill="#ffffff" stroke="#ffffff" xlink:href="#b"/>
</g>
<g clip-path="url(#a)">
<use x="657.145858" y="992.139427" fill="#ffffff" stroke="#ffffff" xlink:href="#b"/>
</g>
<g clip-path="url(#a)">
<use x="704.410735" y="992.139427" fill="#ffffff" stroke="#ffffff" xlink:href="#b"/>
</g>
<g clip-path="url(#a)">
<use x="751.675613" y="992.139427" fill="#ffffff" stroke="#ffffff" xlink:href="#b"/>
</g>
<g clip-path="url(#a)">
<use x="798.94049" y="992.139427" fill="#ffffff" stroke="#ffffff" xlink:href="#b"/>
</g>
<g clip-path="url(#a)">
<use x="846.205368" y="992.139427" fill="#ffffff" stroke="#ffffff" xlink:href="#b"/>
</g>
<g clip-path="url(#a)">
<use x="893.470245" y="992.139427" fill="#ffffff" stroke="#ffffff" xlink:href="#b"/>
</g>
<g clip-path="url(#a)">
<use x="940.735123" y="992.139427" fill="#ffffff" stroke="#ffffff" xlink:href="#b"/>
</g>
<g clip-path="url(#a)">
<use x="988" y="992.139427" fill="#ffffff" stroke="#ffffff" xlink:href="#b"/>
</g>
<g clip-path="url(#a)">
<use x="1035.264877" y="992.139427" fill="#ffffff" stroke="#ffffff" xlink:href="#b"/>
</g>
<g clip-path="url(#a)">
<use x="1082.529755" y="992.139427" fill="#ffffff" stroke="#ffffff" xlink:href="#b"/>
</g>
<g clip-path="url(#a)">
<use x="1129.794632" y="992.139427" fill="#ffffff" stroke="#ffffff" xlink:href="#b"/>
</g>
<g clip-path="url(#a)">
<use x="1177.05951" y="992.139427" fill="#ffffff" stroke="#ffffff" xlink:href="#b"/>
</g>
<g clip-path="url(#a)">
<use x="1224.324387" y="992.139427" fill="#ffffff" stroke="#ffffff" xlink:href="#b"/>
</g>
<g clip-path="url(#a)">
<use x="1271.589265" y="992.139427" fill="#ffffff" stroke="#ffffff" xlink:href="#b"/>
</g>
<g clip-path="url(#a)">
<use x="1318.854142" y="992.139427" fill="#ffffff" stroke="#ffffff" xlink:href="#b"/>
</g>
<g clip-path="url(#a)">
<use x="1366.119019" y="992.139427" fill="#ffffff" stroke="#ffffff" xlink:href="#b"/>
</g>
<g clip-path="url(#a)">
<use x="1413.383897" y="992.139427" fill="#ffffff" stroke="#ffffff" xlink:href="#b"/>
</g>
<g clip-path="url(#a)">
<use x="1460.648774" y="992.139427" fill="#ffffff" stroke="#ffffff" xlink:href="#b"/>
</g>
<g clip-path="url(#a)">
<use x="1507.913652" y="992.139427" fill="#ffffff" stroke="#ffffff" xlink:href="#b"/>
</g>
<g clip-path="url(#a)">
<use x="1555.178529" y="992.139427" fill="#ffffff" stroke="#ffffff" xlink:href="#b"/>
</g>
<g clip-path="url(#a)">
<use x="1602.443407" y="992.139427" fill="#ffffff" stroke="#ffffff" xlink:href="#b"/>
</g>
<g clip-path="url(#a)">
<use x="1649.708284" y="992.139427" fill="#ffffff" stroke="#ffffff" xlink:href="#b"/>
</g>
<g clip-path="url(#a)">
<use x="1696.973161" y="992.139427" fill="#ffffff" stroke="#ffffff" xlink:href="#b"/>
</g>
<g clip-path="url(#a)">
<use x="1744.238039" y="992.139427" fill="#ffffff" stroke="#ffffff" xlink:href="#b"/>
</g>
<g clip-path="url(#a)">
<use x="1791.502916" y="992.139427" fill="#ffffff" stroke="#ffffff" xlink:href="#b"/>
</g>
<g clip-path="url(#a)">
<use x="1838.767794" y="992.139427" fill="#ffffff" stroke="#ffffff" xlink:href="#b"/>
</g>
<g clip-path="url(#a)">
<use x="1886.032671" y="992.139427" fill="#ffffff" stroke="#ffffff" xlink:href="#b"/>
</g>
<g clip-path="url(#a)">
<use x="281.119462" y="47.860573" fill="#ffffff" stroke="#ffffff" xlink:href="#b"/>
</g>
<g clip-path="url(#a)">
<use x="113.599768" y="796.045826" fill="#ffffff" stroke="#ffffff" xlink:href="#b"/>
</g>
<g clip-path="url(#a)">
<use x="545.261533" y="163.774715" fill="#ffffff" stroke="#ffffff" xlink:href="#b"/>
</g>
<g clip-path="url(#a)">
<use x="279.026839" y="796.045826" fill="#ffffff" stroke="#ffffff" xlink:href="#b"/>
</g>
<g clip-path="url(#a)">
<use x="444.45391" y="796.045826" fill="#ffffff" stroke="#ffffff" xlink:href="#b"/>
</g>
<g clip-path="url(#a)">
<use x="562.616103" y="894.092627" fill="#ffffff" stroke="#ffffff" xlink:href="#b"/>
</g>
<g clip-path="url(#a)">
<use x="562.616103" y="894.092627" fill="#ffffff" stroke="#ffffff" xlink:href="#b"/>
</g>
<g clip-path="url(#a)">
<use x="680.778297" y="796.045826" fill="#ffffff" stroke="#ffffff" xlink:href="#b"/>
</g>
<g clip-path="url(#a)">
<use x="913.782889" y="276.19797" fill="#ffffff" stroke="#ffffff" xlink:href="#b"/>
</g>
<g clip-path="url(#a)">
<use x="751.675613" y="894.092627" fill="#ffffff" stroke="#ffffff" xlink:href="#b"/>
</g>
<g clip-path="url(#a)">
<use x="893.470245" y="796.045826" fill="#ffffff" stroke="#ffffff" xlink:href="#b"/>
</g>
<g clip-path="url(#a)">
<use x="1136.828096" y="385.404793" fill="#ffffff" stroke="#ffffff" xlink:href="#b"/>
</g>
<g clip-path="url(#a)">
<use x="1035.264877" y="894.092627" fill="#ffffff" stroke="#ffffff" xlink:href="#b"/>
</g>
<g clip-path="url(#a)">
<use x="1082.529755" y="894.092627" fill="#ffffff" stroke="#ffffff" xlink:href="#b"/>
</g>
<g clip-path="url(#a)">
<use x="1292.689656" y="491.676438" fill="#ffffff" stroke="#ffffff" xlink:href="#b"/>
</g>
<g clip-path="url(#a)">
<use x="1129.794632" y="894.092627" fill="#ffffff" stroke="#ffffff" xlink:href="#b"/>
</g>
<g clip-path="url(#a)">
<use x="1224.324387" y="894.092627" fill="#ffffff" stroke="#ffffff" xlink:href="#b"/>
</g>
<g clip-path="url(#a)">
<use x="1342.486581" y="796.045826" fill="#ffffff" stroke="#ffffff" xlink:href="#b"/>
</g>
<g clip-path="url(#a)">
<use x="1490.189323" y="595.310119" fill="#ffffff" stroke="#ffffff" xlink:href="#b"/>
</g>
<g clip-path="url(#a)">
<use x="1460.648774" y="894.092627" fill="#ffffff" stroke="#ffffff" xlink:href="#b"/>
</g>
<g clip-path="url(#a)">
<use x="1602.443407" y="696.635087" fill="#ffffff" stroke="#ffffff" xlink:href="#b"/>
</g>
<g clip-path="url(#a)">
<use x="1815.135355" y="796.045826" fill="#ffffff" stroke="#ffffff" xlink:href="#b"/>
</g>
<g clip-path="url(#a)">
<use x="1744.238039" y="894.092627" fill="#ffffff" stroke="#ffffff" xlink:href="#b"/>
</g>
<g clip-path="url(#a)">
<use x="1791.502916" y="894.092627" fill="#ffffff" stroke="#ffffff" xlink:href="#b"/>
</g>
<g clip-path="url(#a)">
<use x="1838.767794" y="894.092627" fill="#ffffff" stroke="#ffffff" xlink:href="#b"/>
</g>
<g clip-path="url(#a)">
<use x="1531.54609" y="796.045826" fill="#ffffff" stroke="#ffffff" xlink:href="#b"/>
</g>
<g clip-path="url(#a)">
<use x="1602.443407" y="894.092627" fill="#ffffff" stroke="#ffffff" xlink:href="#b"/>
</g>
<g clip-path="url(#a)">
<use x="1673.340723" y="796.045826" fill="#ffffff" stroke="#ffffff" xlink:href="#b"/>
</g>
<g clip-path="url(#a)">
<use x="1649.708284" y="894.092627" fill="#ffffff" stroke="#ffffff" xlink:href="#b"/>
</g>
<g clip-path="url(#a)">
<use x="1696.973161" y="894.092627" fill="#ffffff" stroke="#ffffff" xlink:href="#b"/>
</g>
<g clip-path="url(#a)">
<use x="1507.913652" y="894.092627" fill="#ffffff" stroke="#ffffff" xlink:href="#b"/>
</g>
<g clip-path="url(#a)">
<use x="1555.178529" y="894.092627" fill="#ffffff" stroke="#ffffff" xlink:href="#b"/>
</g>
<g clip-path="url(#a)">
<use x="1318.854142" y="894.092627" fill="#ffffff" stroke="#ffffff" xlink:href="#b"/>
</g>
<g clip-path="url(#a)">
<use x="1366.119019" y="894.092627" fill="#ffffff" stroke="#ffffff" xlink:href="#b"/>
</g>
<g clip-path="url(#a)">
<use x="846.205368" y="894.092627" fill="#ffffff" stroke="#ffffff" xlink:href="#b"/>
</g>
<g clip-path="url(#a)">
<use x="893.470245" y="894.092627" fill="#ffffff" stroke="#ffffff" xlink:href="#b"/>
</g>
<g clip-path="url(#a)">
<use x="940.735123" y="894.092627" fill="#ffffff" stroke="#ffffff" xlink:href="#b"/>
</g>
<g clip-path="url(#a)">
<use x="657.145858" y="894.092627" fill="#ffffff" stroke="#ffffff" xlink:href="#b"/>
</g>
<g clip-path="url(#a)">
<use x="704.410735" y="894.092627" fill="#ffffff" stroke="#ffffff" xlink:href="#b"/>
</g>
<g clip-path="url(#a)">
<use x="420.821471" y="894.092627" fill="#ffffff" stroke="#ffffff" xlink:href="#b"/>
</g>
<g clip-path="url(#a)">
<use x="468.086348" y="894.092627" fill="#ffffff" stroke="#ffffff" xlink:href="#b"/>
</g>
<g clip-path="url(#a)">
<use x="231.761961" y="894.092627" fill="#ffffff" stroke="#ffffff" xlink:href="#b"/>
</g>
<g clip-path="url(#a)">
<use x="279.026839" y="894.092627" fill="#ffffff" stroke="#ffffff" xlink:href="#b"/>
</g>
<g clip-path="url(#a)">
<use x="326.291716" y="894.092627" fill="#ffffff" stroke="#ffffff" xlink:href="#b"/>
</g>
<g clip-path="url(#a)">
<use x="89.967329" y="894.092627" fill="#ffffff" stroke="#ffffff" xlink:href="#b"/>
</g>
<g clip-path="url(#a)">
<use x="137.232206" y="894.092627" fill="#ffffff" stroke="#ffffff" xlink:href="#b"/>
</g>
<g clip-path="url(#a)">
<use x="329.43065" y="47.860573" fill="#808080" stroke="#808080" xlink:href="#b"/>
</g>
<g clip-path="url(#a)">
<use x="184.497084" y="894.092627" fill="#ffffff" stroke="#ffffff" xlink:href="#b"/>
</g>
<g clip-path="url(#a)">
<use x="373.556593" y="894.092627" fill="#ffffff" stroke="#ffffff" xlink:href="#b"/>
</g>
<g clip-path="url(#a)">
<use x="798.94049" y="894.092627" fill="#ffffff" stroke="#ffffff" xlink:href="#b"/>
</g>
<g clip-path="url(#a)">
<use x="988" y="894.092627" fill="#ffffff" stroke="#ffffff" xlink:href="#b"/>
</g>
<g clip-path="url(#a)">
<use x="1177.05951" y="894.092627" fill="#ffffff" stroke="#ffffff" xlink:href="#b"/>
</g>
<g clip-path="url(#a)">
<use x="1271.589265" y="894.092627" fill="#ffffff" stroke="#ffffff" xlink:href="#b"/>
</g>
<g clip-path="url(#a)">
<use x="1413.383897" y="894.092627" fill="#ffffff" stroke="#ffffff" xlink:href="#b"/>
</g>
<g clip-path="url(#a)">
<use x="1886.032671" y="894.092627" fill="#ffffff" stroke="#ffffff" xlink:href="#b"/>
</g>
<g clip-path="url(#a)">
<g transform="translate(83.639 994.9) scale(.1 -.1)">
<use xlink:href="#t"/>
<use x="63.183594" xlink:href="#f"/>
</g>
</g>
<g clip-path="url(#a)">
<defs>
<path id="ae" d="m37.109 75.984v-7.4844h-8.5938q-4.8281 0-6.7188-1.9531-1.875-1.9531-1.875-7.0312v-4.8281h14.797v-6.9844h-14.797v-47.703h-9.0312v47.703h-8.5938v6.9844h8.5938v3.8125q0 9.125 4.25 13.297 4.25 4.1875 13.469 4.1875z"/>
<path id="u" d="m18.312 70.219v-15.531h18.5v-6.9844h-18.5v-29.688q0-6.6875 1.8281-8.5938t7.4531-1.9062h9.2188v-7.5156h-9.2188q-10.406 0-14.359 3.875-3.9531 3.8906-3.9531 14.141v29.688h-6.5938v6.9844h6.5938v15.531z"/>
</defs>
<g transform="translate(125.6 994.9) scale(.1 -.1)">
<use xlink:href="#d"/>
<use x="61.523438" xlink:href="#ae"/>
<use x="96.728516" xlink:href="#ae"/>
<use x="131.933594" xlink:href="#d"/>
<use x="193.457031" xlink:href="#u"/>
</g>
</g>
<g clip-path="url(#a)">
<defs>
<path id="ag" d="m11.719 12.406h10.297v-8.4062l-8-15.625h-6.2969l4 15.625z"/>
</defs>
<g transform="translate(182.91 994.9) scale(.1 -.1)">
<use xlink:href="#ag"/>
</g>
</g>
<g clip-path="url(#a)">
<defs>
<path id="ap" d="m45.406 46.391v29.594h8.9844v-75.984h-8.9844v8.2031q-2.8281-4.875-7.1562-7.25-4.3125-2.375-10.375-2.375-9.9062 0-16.141 7.9062-6.2188 7.9219-6.2188 20.812t6.2188 20.797q6.2344 7.9062 16.141 7.9062 6.0625 0 10.375-2.375 4.3281-2.3594 7.1562-7.2344zm-30.609-19.094q0-9.9062 4.0781-15.547t11.203-5.6406 11.219 5.6406q4.1094 5.6406 4.1094 15.547t-4.1094 15.547q-4.0938 5.6406-11.219 5.6406t-11.203-5.6406-4.0781-15.547z"/>
<path id="v" d="m18.109 8.2031v-29h-9.0312v75.484h9.0312v-8.2969q2.8438 4.875 7.1562 7.2344 4.3281 2.375 10.328 2.375 9.9688 0 16.188-7.9062 6.2344-7.9062 6.2344-20.797t-6.2344-20.812q-6.2188-7.9062-16.188-7.9062-6 0-10.328 2.375-4.3125 2.375-7.1562 7.25zm30.578 19.094q0 9.9062-4.0781 15.547t-11.203 5.6406q-7.1406 0-11.219-5.6406t-4.0781-15.547 4.0781-15.547 11.219-5.6406q7.125 0 11.203 5.6406t4.0781 15.547z"/>
<path id="s" d="m8.5 21.578v33.109h8.9844v-32.766q0-7.7656 3.0156-11.656 3.0312-3.875 9.0938-3.875 7.2656 0 11.484 4.6406 4.2344 4.6406 4.2344 12.656v31h8.9844v-54.688h-8.9844v8.4062q-3.2656-4.9844-7.5938-7.4062-4.3125-2.4219-10.031-2.4219-9.4219 0-14.312 5.8594-4.875 5.8594-4.875 17.141z"/>
<path id="n" d="m44.281 53.078v-8.5q-3.7969 1.9531-7.9062 2.9219-4.0938 0.98438-8.5 0.98438-6.6875 0-10.031-2.0469t-3.3438-6.1562q0-3.125 2.3906-4.9062t9.625-3.3906l3.0781-0.6875q9.5625-2.0469 13.594-5.7812t4.0312-10.422q0-7.625-6.0312-12.078-6.0312-4.4375-16.578-4.4375-4.3906 0-9.1562 0.85938t-10.031 2.5625v9.2812q4.9844-2.5938 9.8125-3.8906 4.8281-1.2812 9.5781-1.2812 6.3438 0 9.75 2.1719 3.4219 2.1719 3.4219 6.125 0 3.6562-2.4688 5.6094-2.4531 1.9531-10.812 3.7656l-3.125 0.73438q-8.3438 1.75-12.062 5.3906-3.7031 3.6406-3.7031 9.9844 0 7.7188 5.4688 11.906 5.4688 4.2031 15.531 4.2031 4.9688 0 9.3594-0.73438 4.4062-0.71875 8.1094-2.1875z"/>
</defs>
<g transform="translate(215.17 994.9) scale(.1 -.1)">
<use xlink:href="#ap"/>
<use x="63.476562" xlink:href="#d"/>
<use x="125" xlink:href="#v"/>
<use x="188.476562" xlink:href="#s"/>
<use x="251.855469" xlink:href="#h"/>
<use x="279.638672" xlink:href="#n"/>
</g>
</g>
<g clip-path="url(#a)">
<defs>
<path id="al" d="m14.797 27.297q0-9.9062 4.0781-15.547t11.203-5.6406 11.219 5.6406q4.1094 5.6406 4.1094 15.547t-4.1094 15.547q-4.0938 5.6406-11.219 5.6406t-11.203-5.6406-4.0781-15.547zm30.609-19.094q-2.8281-4.875-7.1562-7.25-4.3125-2.375-10.375-2.375-9.9062 0-16.141 7.9062-6.2188 7.9219-6.2188 20.812t6.2188 20.797q6.2344 7.9062 16.141 7.9062 6.0625 0 10.375-2.375 4.3281-2.3594 7.1562-7.2344v8.2969h8.9844v-75.484h-8.9844z"/>
</defs>
<g transform="translate(258.8 994.9) scale(.1 -.1)">
<use xlink:href="#al"/>
<use x="63.476562" xlink:href="#s"/>
<use x="126.855469" xlink:href="#d"/>
<use x="188.378906" xlink:href="#j"/>
<use x="216.162109" xlink:href="#al"/>
<use x="279.638672" xlink:href="#s"/>
<use x="343.017578" xlink:href="#d"/>
</g>
</g>
<g clip-path="url(#a)">
<g transform="translate(310.61 994.9) scale(.1 -.1)">
<use xlink:href="#u"/>
<use x="39.208984" xlink:href="#d"/>
<use x="100.732422" xlink:href="#k"/>
<use x="198.144531" xlink:href="#v"/>
<use x="261.621094" xlink:href="#n"/>
</g>
</g>
<g clip-path="url(#a)">
<g transform="translate(371.97 994.9) scale(.1 -.1)">
<use xlink:href="#ag"/>
</g>
</g>
<g clip-path="url(#a)">
<g transform="translate(398.19 994.9) scale(.1 -.1)">
<use xlink:href="#v"/>
<use x="63.476562" xlink:href="#j"/>
<use x="91.259766" xlink:href="#s"/>
<use x="154.638672" xlink:href="#n"/>
<use x="206.738281" xlink:href="#h"/>
<use x="234.521484" xlink:href="#d"/>
<use x="296.044922" xlink:href="#s"/>
<use x="359.423828" xlink:href="#g"/>
<use x="400.537109" xlink:href="#n"/>
</g>
</g>
<g clip-path="url(#a)">
<defs>
<path id="ak" d="m2.9844 54.688h9.5156l17.094-45.891 17.094 45.891h9.5156l-20.516-54.688h-12.203z"/>
</defs>
<g transform="translate(449.77 994.9) scale(.1 -.1)">
<use xlink:href="#f"/>
<use x="63.378906" xlink:href="#i"/>
<use x="124.658203" xlink:href="#ak"/>
<use x="183.837891" xlink:href="#h"/>
<use x="211.621094" xlink:href="#g"/>
<use x="252.703125" xlink:href="#d"/>
<use x="314.226562" xlink:href="#n"/>
</g>
</g>
<g clip-path="url(#a)">
<defs>
<path id="ao" d="m17.922 72.906v-27.109h-8.2969v27.109z"/>
</defs>
<g transform="translate(511.37 994.9) scale(.1 -.1)">
<use xlink:href="#n"/>
<use x="52.099609" xlink:href="#ao"/>
</g>
</g>
<g clip-path="url(#a)">
<defs>
<path id="aj" d="m56.203 29.594v-4.3906h-41.312q0.59375-9.2812 5.5938-14.141t13.938-4.8594q5.1719 0 10.031 1.2656t9.6562 3.8125v-8.5q-4.8438-2.0469-9.9219-3.125t-10.297-1.0781q-13.094 0-20.734 7.6094-7.6406 7.625-7.6406 20.625 0 13.422 7.25 21.297 7.25 7.8906 19.562 7.8906 11.031 0 17.453-7.1094 6.4219-7.0938 6.4219-19.297zm-8.9844 2.6406q-0.09375 7.3594-4.125 11.75-4.0312 4.4062-10.672 4.4062-7.5156 0-12.031-4.25t-5.2031-11.969zm-8.6875 47.75h9.7188l-15.906-18.359h-7.4844z"/>
</defs>
<g transform="translate(544.92 994.9) scale(.1 -.1)">
<use xlink:href="#aj"/>
<use x="61.523438" xlink:href="#u"/>
<use x="100.732422" xlink:href="#i"/>
<use x="162.011719" xlink:href="#h"/>
<use x="189.794922" xlink:href="#d"/>
<use x="251.318359" xlink:href="#f"/>
<use x="314.697266" xlink:href="#u"/>
</g>
</g>
<g clip-path="url(#a)">
<defs>
<path id="ah" d="m48.781 52.594v-8.4062q-3.8125 2.1094-7.6406 3.1562t-7.7344 1.0469q-8.75 0-13.594-5.5469-4.8281-5.5312-4.8281-15.547t4.8281-15.562q4.8438-5.5312 13.594-5.5312 3.9062 0 7.7344 1.0469t7.6406 3.1562v-8.3125q-3.7656-1.75-7.7969-2.625-4.0156-0.89062-8.5625-0.89062-12.359 0-19.641 7.7656-7.2656 7.7656-7.2656 20.953 0 13.375 7.3438 21.031 7.3594 7.6719 20.156 7.6719 4.1406 0 8.0938-0.85938 3.9531-0.84375 7.6719-2.5469z"/>
<path id="w" d="m30.609 48.391q-7.2188 0-11.422-5.6406t-4.2031-15.453 4.1719-15.453q4.1875-5.6406 11.453-5.6406 7.1875 0 11.375 5.6562 4.2031 5.6719 4.2031 15.438 0 9.7188-4.2031 15.406-4.1875 5.6875-11.375 5.6875zm0 7.6094q11.719 0 18.406-7.625 6.7031-7.6094 6.7031-21.078 0-13.422-6.7031-21.078-6.6875-7.6406-18.406-7.6406-11.766 0-18.438 7.6406-6.6562 7.6562-6.6562 21.078 0 13.469 6.6562 21.078 6.6719 7.625 18.438 7.625z"/>
</defs>
<g transform="translate(582.91 994.9) scale(.1 -.1)">
<use xlink:href="#g"/>
<use x="41.082031" xlink:href="#d"/>
<use x="102.605469" xlink:href="#f"/>
<use x="165.984375" xlink:href="#ah"/>
<use x="220.964844" xlink:href="#w"/>
<use x="282.146484" xlink:href="#f"/>
<use x="345.525391" xlink:href="#u"/>
<use x="384.734375" xlink:href="#g"/>
<use x="425.816406" xlink:href="#aj"/>
<use x="487.339844" xlink:href="#n"/>
</g>
</g>
<g clip-path="url(#a)">
<g transform="translate(649.32 994.9) scale(.1 -.1)">
<use xlink:href="#n"/>
<use x="52.099609" xlink:href="#s"/>
<use x="115.478516" xlink:href="#g"/>
</g>
</g>
<g clip-path="url(#a)">
<g transform="translate(694.41 994.9) scale(.1 -.1)">
<use xlink:href="#k"/>
<use x="97.412109" xlink:href="#d"/>
<use x="158.935547" xlink:href="#g"/>
</g>
</g>
<g clip-path="url(#a)">
<g transform="translate(739.83 994.9) scale(.1 -.1)">
<use xlink:href="#i"/>
<use x="61.279297" xlink:href="#ak"/>
<use x="120.458984" xlink:href="#d"/>
<use x="181.982422" xlink:href="#ah"/>
</g>
</g>
<g clip-path="url(#a)">
<defs>
<path id="ax" d="m51.812 51.703v-9.3125l-14.703-13.094 14.703-13.078v-9.3281l-22.906 20.406v4zm-21.203 0v-9.3125l-14.688-13.094 14.688-13.078v-9.3281l-22.891 20.406v4z"/>
</defs>
<g transform="translate(795.88 994.9) scale(.1 -.1)">
<use xlink:href="#ax"/>
</g>
</g>
<g clip-path="url(#a)">
<g transform="translate(836.79 994.9) scale(.1 -.1)">
<use xlink:href="#s"/>
<use x="63.378906" xlink:href="#f"/>
<use x="126.757812" xlink:href="#d"/>
</g>
</g>
<g clip-path="url(#a)">
<defs>
<path id="am" d="m54.891 33.016v-33.016h-8.9844v32.719q0 7.7656-3.0312 11.609-3.0312 3.8594-9.0781 3.8594-7.2812 0-11.484-4.6406-4.2031-4.625-4.2031-12.641v-30.906h-9.0312v75.984h9.0312v-29.797q3.2344 4.9375 7.5938 7.375 4.375 2.4375 10.094 2.4375 9.4219 0 14.25-5.8281 4.8438-5.8281 4.8438-17.156z"/>
</defs>
<g transform="translate(878.81 994.9) scale(.1 -.1)">
<use xlink:href="#ah"/>
<use x="54.980469" xlink:href="#am"/>
<use x="118.359375" xlink:href="#w"/>
<use x="179.541016" xlink:href="#n"/>
<use x="231.640625" xlink:href="#d"/>
</g>
</g>
<g clip-path="url(#a)">
<g transform="translate(921.43 994.9) scale(.1 -.1)">
<use xlink:href="#aj"/>
<use x="61.523438" xlink:href="#f"/>
<use x="124.902344" xlink:href="#w"/>
<use x="186.083984" xlink:href="#g"/>
<use x="227.181641" xlink:href="#k"/>
<use x="324.59375" xlink:href="#d"/>
</g>
</g>
<g clip-path="url(#a)">
<defs>
<path id="aw" d="m9.4219 51.703 22.906-20.406v-4l-22.906-20.406v9.3281l14.703 13.078-14.703 13.094zm21.188 0 22.906-20.406v-4l-22.906-20.406v9.3281l14.703 13.078-14.703 13.094z"/>
</defs>
<g transform="translate(984.94 994.9) scale(.1 -.1)">
<use xlink:href="#aw"/>
</g>
</g>
<g clip-path="url(#a)">
<g transform="translate(1028.9 994.9) scale(.1 -.1)">
<use xlink:href="#s"/>
<use x="63.378906" xlink:href="#f"/>
</g>
</g>
<g clip-path="url(#a)">
<defs>
<path id="an" d="m48.688 27.297q0 9.9062-4.0781 15.547t-11.203 5.6406q-7.1406 0-11.219-5.6406t-4.0781-15.547 4.0781-15.547 11.219-5.6406q7.125 0 11.203 5.6406t4.0781 15.547zm-30.578 19.094q2.8438 4.875 7.1562 7.2344 4.3281 2.375 10.328 2.375 9.9688 0 16.188-7.9062 6.2344-7.9062 6.2344-20.797t-6.2344-20.812q-6.2188-7.9062-16.188-7.9062-6 0-10.328 2.375-4.3125 2.375-7.1562 7.25v-8.2031h-9.0312v75.984h9.0312z"/>
<path id="ay" d="m9.4219 54.688h8.9844v-55.672q0-10.438-3.9844-15.125-3.9688-4.6875-12.812-4.6875h-3.4219v7.6094h2.4062q5.125 0 6.9688 2.375 1.8594 2.3594 1.8594 9.8281zm0 21.297h8.9844v-11.391h-8.9844z"/>
</defs>
<g transform="translate(1069.9 994.9) scale(.1 -.1)">
<use xlink:href="#w"/>
<use x="61.181641" xlink:href="#an"/>
<use x="124.658203" xlink:href="#ay"/>
<use x="152.441406" xlink:href="#d"/>
<use x="213.964844" xlink:href="#u"/>
</g>
</g>
<g clip-path="url(#a)">
<defs>
<path id="az" d="m45.406 27.984q0 9.7656-4.0312 15.125-4.0156 5.375-11.297 5.375-7.2188 0-11.25-5.375-4.0312-5.3594-4.0312-15.125 0-9.7188 4.0312-15.094t11.25-5.375q7.2812 0 11.297 5.375 4.0312 5.375 4.0312 15.094zm8.9844-21.203q0-13.953-6.2031-20.766-6.1875-6.8125-18.984-6.8125-4.7344 0-8.9375 0.70312t-8.1562 2.1719v8.7344q3.9531-2.1406 7.8125-3.1562 3.8594-1.0312 7.8594-1.0312 8.8438 0 13.234 4.6094t4.3906 13.938v4.4531q-2.7812-4.8438-7.125-7.2344t-10.406-2.3906q-10.047 0-16.203 7.6562-6.1562 7.6719-6.1562 20.328 0 12.688 6.1562 20.344 6.1562 7.6719 16.203 7.6719 6.0625 0 10.406-2.3906t7.125-7.2188v8.2969h8.9844z"/>
</defs>
<g transform="translate(1119 994.9) scale(.1 -.1)">
<use xlink:href="#j"/>
<use x="27.783203" xlink:href="#w"/>
<use x="88.964844" xlink:href="#f"/>
<use x="152.34375" xlink:href="#az"/>
</g>
</g>
<g clip-path="url(#a)">
<g transform="translate(1175.5 994.9) scale(.1 -.1)">
<use xlink:href="#ag"/>
</g>
</g>
<g clip-path="url(#a)">
<g transform="translate(1200.6 994.9) scale(.1 -.1)">
<use xlink:href="#ae"/>
<use x="35.205078" xlink:href="#s"/>
<use x="98.583984" xlink:href="#n"/>
<use x="150.683594" xlink:href="#h"/>
<use x="178.466797" xlink:href="#ae"/>
<use x="213.671875" xlink:href="#w"/>
<use x="274.853516" xlink:href="#g"/>
<use x="315.951172" xlink:href="#k"/>
<use x="413.363281" xlink:href="#d"/>
</g>
</g>
<g clip-path="url(#a)">
<g transform="translate(1270 994.9) scale(.1 -.1)">
<use xlink:href="#ag"/>
</g>
</g>
<g clip-path="url(#a)">
<g transform="translate(1301.7 994.9) scale(.1 -.1)">
<use xlink:href="#v"/>
<use x="63.476562" xlink:href="#i"/>
<use x="124.755859" xlink:href="#g"/>
<use x="165.869141" xlink:href="#ae"/>
<use x="201.074219" xlink:href="#w"/>
<use x="262.255859" xlink:href="#h"/>
<use x="290.039062" xlink:href="#n"/>
</g>
</g>
<g clip-path="url(#a)">
<g transform="translate(1326 994.9) scale(.1 -.1)">
<use xlink:href="#v"/>
<use x="63.476562" xlink:href="#am"/>
<use x="126.855469" xlink:href="#w"/>
<use x="188.037109" xlink:href="#n"/>
<use x="240.136719" xlink:href="#v"/>
<use x="303.613281" xlink:href="#am"/>
<use x="366.992188" xlink:href="#w"/>
<use x="428.173828" xlink:href="#g"/>
<use x="469.255859" xlink:href="#d"/>
<use x="530.779297" xlink:href="#n"/>
<use x="582.878906" xlink:href="#ah"/>
<use x="637.859375" xlink:href="#d"/>
<use x="699.382812" xlink:href="#f"/>
<use x="762.761719" xlink:href="#u"/>
</g>
</g>
<g clip-path="url(#a)">
<g transform="translate(1411.8 994.9) scale(.1 -.1)">
<use xlink:href="#ag"/>
</g>
</g>
<g clip-path="url(#a)">
<g transform="translate(1435.3 994.9) scale(.1 -.1)">
<use xlink:href="#h"/>
<use x="27.783203" xlink:href="#f"/>
<use x="91.162109" xlink:href="#ae"/>
<use x="126.367188" xlink:href="#h"/>
<use x="154.150391" xlink:href="#f"/>
<use x="217.529297" xlink:href="#h"/>
<use x="245.3125" xlink:href="#k"/>
<use x="342.724609" xlink:href="#d"/>
<use x="404.248047" xlink:href="#f"/>
<use x="467.626953" xlink:href="#u"/>
</g>
</g>
<g clip-path="url(#a)">
<g transform="translate(1497.6 994.9) scale(.1 -.1)">
<use xlink:href="#v"/>
<use x="63.476562" xlink:href="#j"/>
<use x="91.259766" xlink:href="#s"/>
<use x="154.638672" xlink:href="#n"/>
</g>
</g>
<g clip-path="url(#a)">
<g transform="translate(1541.5 994.9) scale(.1 -.1)">
<use xlink:href="#ak"/>
<use x="59.179688" xlink:href="#i"/>
<use x="120.458984" xlink:href="#n"/>
<use x="172.558594" xlink:href="#u"/>
<use x="211.767578" xlink:href="#d"/>
</g>
</g>
<g clip-path="url(#a)">
<g transform="translate(1597.4 994.9) scale(.1 -.1)">
<use xlink:href="#d"/>
<use x="61.523438" xlink:href="#u"/>
</g>
</g>
<g clip-path="url(#a)">
<g transform="translate(1639.4 994.9) scale(.1 -.1)">
<use xlink:href="#v"/>
<use x="63.476562" xlink:href="#j"/>
<use x="91.259766" xlink:href="#s"/>
<use x="154.638672" xlink:href="#n"/>
</g>
</g>
<g clip-path="url(#a)">
<g transform="translate(1681 994.9) scale(.1 -.1)">
<use xlink:href="#g"/>
<use x="41.113281" xlink:href="#i"/>
<use x="102.392578" xlink:href="#v"/>
<use x="165.869141" xlink:href="#h"/>
<use x="193.652344" xlink:href="#ap"/>
<use x="257.128906" xlink:href="#d"/>
</g>
</g>
<g clip-path="url(#a)">
<g transform="translate(1736.5 994.9) scale(.1 -.1)">
<use xlink:href="#al"/>
<use x="63.476562" xlink:href="#s"/>
<use x="126.855469" xlink:href="#ao"/>
</g>
</g>
<g clip-path="url(#a)">
<g transform="translate(1782.1 994.9) scale(.1 -.1)">
<use xlink:href="#s"/>
<use x="63.378906" xlink:href="#f"/>
<use x="126.757812" xlink:href="#d"/>
</g>
</g>
<g clip-path="url(#a)">
<g transform="translate(1820.4 994.9) scale(.1 -.1)">
<use xlink:href="#an"/>
<use x="63.476562" xlink:href="#i"/>
<use x="124.755859" xlink:href="#j"/>
<use x="152.539062" xlink:href="#d"/>
<use x="214.0625" xlink:href="#h"/>
<use x="241.845703" xlink:href="#f"/>
<use x="305.224609" xlink:href="#d"/>
</g>
</g>
<g clip-path="url(#a)">
<defs>
<path id="e" d="m10.688 12.406h10.312v-12.406h-10.312z"/>
</defs>
<g transform="translate(1884.4 994.9) scale(.1 -.1)">
<use xlink:href="#e"/>
</g>
</g>
<g clip-path="url(#a)">
<defs>
<path id="c" d="m12.406 8.2969h16.109v55.625l-17.531-3.5156v8.9844l17.438 3.5156h9.8594v-64.609h16.109v-8.2969h-41.984z"/>
</defs>
<g transform="translate(273.17 50.62) scale(.1 -.1)">
<use xlink:href="#c"/>
<use x="63.623047" xlink:href="#e"/>
<use x="95.410156" xlink:href="#c"/>
</g>
</g>
<g clip-path="url(#a)">
<defs>
<path id="r" d="m19.188 8.2969h34.422v-8.2969h-46.281v8.2969q5.6094 5.8125 15.297 15.594 9.7031 9.7969 12.188 12.641 4.7344 5.3125 6.6094 9 1.8906 3.6875 1.8906 7.25 0 5.8125-4.0781 9.4688-4.0781 3.6719-10.625 3.6719-4.6406 0-9.7969-1.6094-5.1406-1.6094-11-4.8906v9.9688q5.9531 2.3906 11.125 3.6094 5.1875 1.2188 9.4844 1.2188 11.328 0 18.062-5.6719 6.7344-5.6562 6.7344-15.125 0-4.5-1.6875-8.5312-1.6719-4.0156-6.125-9.4844-1.2188-1.4219-7.7656-8.1875-6.5312-6.7656-18.453-18.922z"/>
</defs>
<g transform="translate(105.65 798.81) scale(.1 -.1)">
<use xlink:href="#c"/>
<use x="63.623047" xlink:href="#e"/>
<use x="95.410156" xlink:href="#r"/>
</g>
</g>
<g clip-path="url(#a)">
<defs>
<path id="o" d="m40.578 39.312q7.0781-1.5156 11.047-6.3125 3.9844-4.7812 3.9844-11.812 0-10.781-7.4219-16.703-7.4219-5.9062-21.094-5.9062-4.5781 0-9.4375 0.90625t-10.031 2.7188v9.5156q4.0938-2.3906 8.9688-3.6094 4.8906-1.2188 10.219-1.2188 9.2656 0 14.125 3.6562t4.8594 10.641q0 6.4531-4.5156 10.078-4.5156 3.6406-12.562 3.6406h-8.5v8.1094h8.8906q7.2656 0 11.125 2.9062t3.8594 8.375q0 5.6094-3.9844 8.6094-3.9688 3.0156-11.391 3.0156-4.0625 0-8.7031-0.89062-4.6406-0.875-10.203-2.7188v8.7812q5.625 1.5625 10.531 2.3438t9.25 0.78125q11.234 0 17.766-5.1094 6.5469-5.0938 6.5469-13.781 0-6.0625-3.4688-10.234t-9.8594-5.7812z"/>
</defs>
<g transform="translate(537.31 166.53) scale(.1 -.1)">
<use xlink:href="#c"/>
<use x="63.623047" xlink:href="#e"/>
<use x="95.410156" xlink:href="#o"/>
</g>
</g>
<g clip-path="url(#a)">
<defs>
<path id="p" d="m10.797 72.906h38.719v-8.3125h-29.688v-17.859q2.1406 0.73438 4.2812 1.0938 2.1562 0.35938 4.3125 0.35938 12.203 0 19.328-6.6875 7.1406-6.6875 7.1406-18.109 0-11.766-7.3281-18.297-7.3281-6.5156-20.656-6.5156-4.5938 0-9.3594 0.78125-4.75 0.78125-9.8281 2.3438v9.9219q4.3906-2.3906 9.0781-3.5625t9.9062-1.1719q8.4531 0 13.375 4.4375 4.9375 4.4375 4.9375 12.062 0 7.6094-4.9375 12.047-4.9219 4.4531-13.375 4.4531-3.9531 0-7.8906-0.875-3.9219-0.875-8.0156-2.7344z"/>
</defs>
<g transform="translate(271.08 798.81) scale(.1 -.1)">
<use xlink:href="#c"/>
<use x="63.623047" xlink:href="#e"/>
<use x="95.410156" xlink:href="#p"/>
</g>
</g>
<g clip-path="url(#a)">
<defs>
<path id="y" d="m33.016 40.375q-6.6406 0-10.531-4.5469-3.875-4.5312-3.875-12.438 0-7.8594 3.875-12.438 3.8906-4.5625 10.531-4.5625t10.516 4.5625q3.875 4.5781 3.875 12.438 0 7.9062-3.875 12.438-3.875 4.5469-10.516 4.5469zm19.578 30.922v-8.9844q-3.7188 1.75-7.5 2.6719-3.7812 0.9375-7.5 0.9375-9.7656 0-14.922-6.5938-5.1406-6.5938-5.875-19.922 2.875 4.25 7.2188 6.5156 4.3594 2.2656 9.5781 2.2656 10.984 0 17.359-6.6719 6.375-6.6562 6.375-18.125 0-11.234-6.6406-18.031-6.6406-6.7812-17.672-6.7812-12.656 0-19.344 9.6875-6.6875 9.7031-6.6875 28.109 0 17.281 8.2031 27.562t22.016 10.281q3.7188 0 7.5-0.73438t7.8906-2.1875z"/>
</defs>
<g transform="translate(436.5 798.81) scale(.1 -.1)">
<use xlink:href="#c"/>
<use x="63.623047" xlink:href="#e"/>
<use x="95.410156" xlink:href="#y"/>
</g>
</g>
<g clip-path="url(#a)">
<defs>
<path id="ac" d="m8.2031 72.906h46.875v-4.2031l-26.469-68.703h-10.297l24.906 64.594h-35.016z"/>
</defs>
<g transform="translate(554.66 896.85) scale(.1 -.1)">
<use xlink:href="#c"/>
<use x="63.623047" xlink:href="#e"/>
<use x="95.410156" xlink:href="#ac"/>
</g>
</g>
<g clip-path="url(#a)">
<defs>
<path id="ab" d="m31.781 34.625q-7.0312 0-11.062-3.7656-4.0156-3.7656-4.0156-10.344 0-6.5938 4.0156-10.359 4.0312-3.7656 11.062-3.7656t11.078 3.7812q4.0625 3.7969 4.0625 10.344 0 6.5781-4.0312 10.344-4.0156 3.7656-11.109 3.7656zm-9.8594 4.1875q-6.3438 1.5625-9.8906 5.9062-3.5312 4.3594-3.5312 10.609 0 8.7344 6.2188 13.812 6.2344 5.0781 17.062 5.0781 10.891 0 17.094-5.0781t6.2031-13.812q0-6.25-3.5469-10.609-3.5312-4.3438-9.8281-5.9062 7.125-1.6562 11.094-6.5 3.9844-4.8281 3.9844-11.797 0-10.609-6.4688-16.281-6.4688-5.6562-18.531-5.6562-12.047 0-18.531 5.6562-6.4688 5.6719-6.4688 16.281 0 6.9688 4 11.797 4.0156 4.8438 11.141 6.5zm-3.6094 15.578q0-5.6562 3.5312-8.8281 3.5469-3.1719 9.9375-3.1719 6.3594 0 9.9375 3.1719 3.5938 3.1719 3.5938 8.8281 0 5.6719-3.5938 8.8438-3.5781 3.1719-9.9375 3.1719-6.3906 0-9.9375-3.1719-3.5312-3.1719-3.5312-8.8438z"/>
</defs>
<g transform="translate(554.66 896.85) scale(.1 -.1)">
<use xlink:href="#c"/>
<use x="63.623047" xlink:href="#e"/>
<use x="95.410156" xlink:href="#ab"/>
</g>
</g>
<g clip-path="url(#a)">
<defs>
<path id="aa" d="m10.984 1.5156v8.9844q3.7188-1.7656 7.5156-2.6875 3.8125-0.92188 7.4844-0.92188 9.7656 0 14.906 6.5625 5.1562 6.5625 5.8906 19.953-2.8281-4.2031-7.1875-6.4531-4.3438-2.25-9.6094-2.25-10.938 0-17.312 6.6094-6.375 6.625-6.375 18.109 0 11.219 6.6406 18 6.6406 6.7969 17.672 6.7969 12.656 0 19.312-9.7031 6.6719-9.6875 6.6719-28.141 0-17.234-8.1875-27.516-8.1719-10.281-21.984-10.281-3.7188 0-7.5312 0.73438-3.7969 0.73438-7.9062 2.2031zm19.625 30.906q6.6406 0 10.516 4.5312 3.8906 4.5469 3.8906 12.469 0 7.8594-3.8906 12.422-3.875 4.5625-10.516 4.5625t-10.516-4.5625-3.875-12.422q0-7.9219 3.875-12.469 3.875-4.5312 10.516-4.5312z"/>
</defs>
<g transform="translate(672.83 798.81) scale(.1 -.1)">
<use xlink:href="#c"/>
<use x="63.623047" xlink:href="#e"/>
<use x="95.410156" xlink:href="#aa"/>
</g>
</g>
<g clip-path="url(#a)">
<defs>
<path id="ad" d="m31.781 66.406q-7.6094 0-11.453-7.5-3.8281-7.4844-3.8281-22.531 0-14.984 3.8281-22.484 3.8438-7.5 11.453-7.5 7.6719 0 11.5 7.5 3.8438 7.5 3.8438 22.484 0 15.047-3.8438 22.531-3.8281 7.5-11.5 7.5zm0 7.8125q12.266 0 18.734-9.7031 6.4688-9.6875 6.4688-28.141 0-18.406-6.4688-28.109-6.4688-9.6875-18.734-9.6875-12.25 0-18.719 9.6875-6.4688 9.7031-6.4688 28.109 0 18.453 6.4688 28.141 6.4688 9.7031 18.719 9.7031z"/>
</defs>
<g transform="translate(902.65 278.96) scale(.1 -.1)">
<use xlink:href="#c"/>
<use x="63.623047" xlink:href="#e"/>
<use x="95.410156" xlink:href="#c"/>
<use x="159.033203" xlink:href="#ad"/>
</g>
</g>
<g clip-path="url(#a)">
<g transform="translate(740.54 896.85) scale(.1 -.1)">
<use xlink:href="#c"/>
<use x="63.623047" xlink:href="#e"/>
<use x="95.410156" xlink:href="#c"/>
<use x="159.033203" xlink:href="#r"/>
</g>
</g>
<g clip-path="url(#a)">
<g transform="translate(882.34 798.81) scale(.1 -.1)">
<use xlink:href="#c"/>
<use x="63.623047" xlink:href="#e"/>
<use x="95.410156" xlink:href="#c"/>
<use x="159.033203" xlink:href="#o"/>
</g>
</g>
<g clip-path="url(#a)">
<defs>
<path id="q" d="m37.797 64.312-24.906-38.922h24.906zm-2.5938 8.5938h12.406v-47.516h10.406v-8.2031h-10.406v-17.188h-9.8125v17.188h-32.906v9.5156z"/>
</defs>
<g transform="translate(1125.7 388.16) scale(.1 -.1)">
<use xlink:href="#c"/>
<use x="63.623047" xlink:href="#e"/>
<use x="95.410156" xlink:href="#c"/>
<use x="159.033203" xlink:href="#q"/>
</g>
</g>
<g clip-path="url(#a)">
<g transform="translate(1024.1 896.85) scale(.1 -.1)">
<use xlink:href="#c"/>
<use x="63.623047" xlink:href="#e"/>
<use x="95.410156" xlink:href="#c"/>
<use x="159.033203" xlink:href="#ac"/>
</g>
</g>
<g clip-path="url(#a)">
<g transform="translate(1071.4 896.85) scale(.1 -.1)">
<use xlink:href="#c"/>
<use x="63.623047" xlink:href="#e"/>
<use x="95.410156" xlink:href="#c"/>
<use x="159.033203" xlink:href="#ab"/>
</g>
</g>
<g clip-path="url(#a)">
<g transform="translate(1281.6 494.44) scale(.1 -.1)">
<use xlink:href="#c"/>
<use x="63.623047" xlink:href="#e"/>
<use x="95.410156" xlink:href="#c"/>
<use x="159.033203" xlink:href="#aa"/>
</g>
</g>
<g clip-path="url(#a)">
<g transform="translate(1118.7 896.85) scale(.1 -.1)">
<use xlink:href="#c"/>
<use x="63.623047" xlink:href="#e"/>
<use x="95.410156" xlink:href="#r"/>
<use x="159.033203" xlink:href="#ad"/>
</g>
</g>
<g clip-path="url(#a)">
<g transform="translate(1213.2 896.85) scale(.1 -.1)">
<use xlink:href="#c"/>
<use x="63.623047" xlink:href="#e"/>
<use x="95.410156" xlink:href="#r"/>
<use x="159.033203" xlink:href="#c"/>
</g>
</g>
<g clip-path="url(#a)">
<g transform="translate(1331.4 798.81) scale(.1 -.1)">
<use xlink:href="#c"/>
<use x="63.623047" xlink:href="#e"/>
<use x="95.410156" xlink:href="#r"/>
<use x="159.033203" xlink:href="#r"/>
</g>
</g>
<g clip-path="url(#a)">
<g transform="translate(1479.1 598.07) scale(.1 -.1)">
<use xlink:href="#c"/>
<use x="63.623047" xlink:href="#e"/>
<use x="95.410156" xlink:href="#r"/>
<use x="159.033203" xlink:href="#o"/>
</g>
</g>
<g clip-path="url(#a)">
<g transform="translate(1449.5 896.85) scale(.1 -.1)">
<use xlink:href="#c"/>
<use x="63.623047" xlink:href="#e"/>
<use x="95.410156" xlink:href="#r"/>
<use x="159.033203" xlink:href="#ac"/>
</g>
</g>
<g clip-path="url(#a)">
<g transform="translate(1591.3 699.39) scale(.1 -.1)">
<use xlink:href="#c"/>
<use x="63.623047" xlink:href="#e"/>
<use x="95.410156" xlink:href="#r"/>
<use x="159.033203" xlink:href="#ab"/>
</g>
</g>
<g clip-path="url(#a)">
<g transform="translate(1804 798.81) scale(.1 -.1)">
<use xlink:href="#c"/>
<use x="63.623047" xlink:href="#e"/>
<use x="95.410156" xlink:href="#r"/>
<use x="159.033203" xlink:href="#aa"/>
</g>
</g>
<g clip-path="url(#a)">
<g transform="translate(1733.1 896.85) scale(.1 -.1)">
<use xlink:href="#c"/>
<use x="63.623047" xlink:href="#e"/>
<use x="95.410156" xlink:href="#o"/>
<use x="159.033203" xlink:href="#ad"/>
</g>
</g>
<g clip-path="url(#a)">
<g transform="translate(1780.4 896.85) scale(.1 -.1)">
<use xlink:href="#c"/>
<use x="63.623047" xlink:href="#e"/>
<use x="95.410156" xlink:href="#o"/>
<use x="159.033203" xlink:href="#c"/>
</g>
</g>
<g clip-path="url(#a)">
<g transform="translate(1827.6 896.85) scale(.1 -.1)">
<use xlink:href="#c"/>
<use x="63.623047" xlink:href="#e"/>
<use x="95.410156" xlink:href="#o"/>
<use x="159.033203" xlink:href="#r"/>
</g>
</g>
<g clip-path="url(#a)">
<g transform="translate(1520.4 798.81) scale(.1 -.1)">
<use xlink:href="#c"/>
<use x="63.623047" xlink:href="#e"/>
<use x="95.410156" xlink:href="#o"/>
<use x="159.033203" xlink:href="#q"/>
</g>
</g>
<g clip-path="url(#a)">
<g transform="translate(1591.3 896.85) scale(.1 -.1)">
<use xlink:href="#c"/>
<use x="63.623047" xlink:href="#e"/>
<use x="95.410156" xlink:href="#o"/>
<use x="159.033203" xlink:href="#p"/>
</g>
</g>
<g clip-path="url(#a)">
<g transform="translate(1662.2 798.81) scale(.1 -.1)">
<use xlink:href="#c"/>
<use x="63.623047" xlink:href="#e"/>
<use x="95.410156" xlink:href="#o"/>
<use x="159.033203" xlink:href="#y"/>
</g>
</g>
<g clip-path="url(#a)">
<g transform="translate(1638.6 896.85) scale(.1 -.1)">
<use xlink:href="#c"/>
<use x="63.623047" xlink:href="#e"/>
<use x="95.410156" xlink:href="#o"/>
<use x="159.033203" xlink:href="#ac"/>
</g>
</g>
<g clip-path="url(#a)">
<g transform="translate(1685.8 896.85) scale(.1 -.1)">
<use xlink:href="#c"/>
<use x="63.623047" xlink:href="#e"/>
<use x="95.410156" xlink:href="#o"/>
<use x="159.033203" xlink:href="#ab"/>
</g>
</g>
<g clip-path="url(#a)">
<g transform="translate(1496.8 896.85) scale(.1 -.1)">
<use xlink:href="#c"/>
<use x="63.623047" xlink:href="#e"/>
<use x="95.410156" xlink:href="#o"/>
<use x="159.033203" xlink:href="#aa"/>
</g>
</g>
<g clip-path="url(#a)">
<g transform="translate(1544 896.85) scale(.1 -.1)">
<use xlink:href="#c"/>
<use x="63.623047" xlink:href="#e"/>
<use x="95.410156" xlink:href="#q"/>
<use x="159.033203" xlink:href="#ad"/>
</g>
</g>
<g clip-path="url(#a)">
<g transform="translate(1307.7 896.85) scale(.1 -.1)">
<use xlink:href="#c"/>
<use x="63.623047" xlink:href="#e"/>
<use x="95.410156" xlink:href="#q"/>
<use x="159.033203" xlink:href="#c"/>
</g>
</g>
<g clip-path="url(#a)">
<g transform="translate(1355 896.85) scale(.1 -.1)">
<use xlink:href="#c"/>
<use x="63.623047" xlink:href="#e"/>
<use x="95.410156" xlink:href="#q"/>
<use x="159.033203" xlink:href="#r"/>
</g>
</g>
<g clip-path="url(#a)">
<g transform="translate(835.07 896.85) scale(.1 -.1)">
<use xlink:href="#c"/>
<use x="63.623047" xlink:href="#e"/>
<use x="95.410156" xlink:href="#q"/>
<use x="159.033203" xlink:href="#o"/>
</g>
</g>
<g clip-path="url(#a)">
<g transform="translate(882.34 896.85) scale(.1 -.1)">
<use xlink:href="#c"/>
<use x="63.623047" xlink:href="#e"/>
<use x="95.410156" xlink:href="#q"/>
<use x="159.033203" xlink:href="#q"/>
</g>
</g>
<g clip-path="url(#a)">
<g transform="translate(929.6 896.85) scale(.1 -.1)">
<use xlink:href="#c"/>
<use x="63.623047" xlink:href="#e"/>
<use x="95.410156" xlink:href="#q"/>
<use x="159.033203" xlink:href="#p"/>
</g>
</g>
<g clip-path="url(#a)">
<g transform="translate(646.01 896.85) scale(.1 -.1)">
<use xlink:href="#c"/>
<use x="63.623047" xlink:href="#e"/>
<use x="95.410156" xlink:href="#q"/>
<use x="159.033203" xlink:href="#y"/>
</g>
</g>
<g clip-path="url(#a)">
<g transform="translate(693.28 896.85) scale(.1 -.1)">
<use xlink:href="#c"/>
<use x="63.623047" xlink:href="#e"/>
<use x="95.410156" xlink:href="#q"/>
<use x="159.033203" xlink:href="#ac"/>
</g>
</g>
<g clip-path="url(#a)">
<g transform="translate(409.69 896.85) scale(.1 -.1)">
<use xlink:href="#c"/>
<use x="63.623047" xlink:href="#e"/>
<use x="95.410156" xlink:href="#q"/>
<use x="159.033203" xlink:href="#ab"/>
</g>
</g>
<g clip-path="url(#a)">
<g transform="translate(456.95 896.85) scale(.1 -.1)">
<use xlink:href="#c"/>
<use x="63.623047" xlink:href="#e"/>
<use x="95.410156" xlink:href="#q"/>
<use x="159.033203" xlink:href="#aa"/>
</g>
</g>
<g clip-path="url(#a)">
<g transform="translate(220.63 896.85) scale(.1 -.1)">
<use xlink:href="#c"/>
<use x="63.623047" xlink:href="#e"/>
<use x="95.410156" xlink:href="#p"/>
<use x="159.033203" xlink:href="#ad"/>
</g>
</g>
<g clip-path="url(#a)">
<g transform="translate(267.89 896.85) scale(.1 -.1)">
<use xlink:href="#c"/>
<use x="63.623047" xlink:href="#e"/>
<use x="95.410156" xlink:href="#p"/>
<use x="159.033203" xlink:href="#c"/>
</g>
</g>
<g clip-path="url(#a)">
<g transform="translate(315.16 896.85) scale(.1 -.1)">
<use xlink:href="#c"/>
<use x="63.623047" xlink:href="#e"/>
<use x="95.410156" xlink:href="#p"/>
<use x="159.033203" xlink:href="#r"/>
</g>
</g>
<g clip-path="url(#a)">
<g transform="translate(78.835 896.85) scale(.1 -.1)">
<use xlink:href="#c"/>
<use x="63.623047" xlink:href="#e"/>
<use x="95.410156" xlink:href="#p"/>
<use x="159.033203" xlink:href="#o"/>
</g>
</g>
<g clip-path="url(#a)">
<g transform="translate(126.1 896.85) scale(.1 -.1)">
<use xlink:href="#c"/>
<use x="63.623047" xlink:href="#e"/>
<use x="95.410156" xlink:href="#p"/>
<use x="159.033203" xlink:href="#q"/>
</g>
</g>
<g clip-path="url(#a)">
<g transform="translate(318.3 50.62) scale(.1 -.1)">
<use xlink:href="#c"/>
<use x="63.623047" xlink:href="#e"/>
<use x="95.410156" xlink:href="#p"/>
<use x="159.033203" xlink:href="#p"/>
</g>
</g>
<g clip-path="url(#a)">
<g transform="translate(173.36 896.85) scale(.1 -.1)">
<use xlink:href="#c"/>
<use x="63.623047" xlink:href="#e"/>
<use x="95.410156" xlink:href="#p"/>
<use x="159.033203" xlink:href="#y"/>
</g>
</g>
<g clip-path="url(#a)">
<g transform="translate(362.42 896.85) scale(.1 -.1)">
<use xlink:href="#c"/>
<use x="63.623047" xlink:href="#e"/>
<use x="95.410156" xlink:href="#p"/>
<use x="159.033203" xlink:href="#ac"/>
</g>
</g>
<g clip-path="url(#a)">
<g transform="translate(787.81 896.85) scale(.1 -.1)">
<use xlink:href="#c"/>
<use x="63.623047" xlink:href="#e"/>
<use x="95.410156" xlink:href="#p"/>
<use x="159.033203" xlink:href="#ab"/>
</g>
</g>
<g clip-path="url(#a)">
<g transform="translate(976.87 896.85) scale(.1 -.1)">
<use xlink:href="#c"/>
<use x="63.623047" xlink:href="#e"/>
<use x="95.410156" xlink:href="#p"/>
<use x="159.033203" xlink:href="#aa"/>
</g>
</g>
<g clip-path="url(#a)">
<g transform="translate(1165.9 896.85) scale(.1 -.1)">
<use xlink:href="#c"/>
<use x="63.623047" xlink:href="#e"/>
<use x="95.410156" xlink:href="#y"/>
<use x="159.033203" xlink:href="#ad"/>
</g>
</g>
<g clip-path="url(#a)">
<g transform="translate(1260.5 896.85) scale(.1 -.1)">
<use xlink:href="#c"/>
<use x="63.623047" xlink:href="#e"/>
<use x="95.410156" xlink:href="#y"/>
<use x="159.033203" xlink:href="#c"/>
</g>
</g>
<g clip-path="url(#a)">
<g transform="translate(1402.3 896.85) scale(.1 -.1)">
<use xlink:href="#c"/>
<use x="63.623047" xlink:href="#e"/>
<use x="95.410156" xlink:href="#y"/>
<use x="159.033203" xlink:href="#r"/>
</g>
</g>
<g clip-path="url(#a)">
<g transform="translate(1874.9 896.85) scale(.1 -.1)">
<use xlink:href="#c"/>
<use x="63.623047" xlink:href="#e"/>
<use x="95.410156" xlink:href="#y"/>
<use x="159.033203" xlink:href="#o"/>
</g>
</g>
<defs>
<clipPath id="a">
<rect width="1976" height="1040"/>
</clipPath>
</defs>
</svg>
