<?xml version="1.0" encoding="UTF-8"?>
<!DOCTYPE svg  PUBLIC '-//W3C//DTD SVG 1.1//EN'  'http://www.w3.org/Graphics/SVG/1.1/DTD/svg11.dtd'>
<svg width="1976pt" height="1040pt" version="1.1" viewBox="0 0 1976 1040" xmlns="http://www.w3.org/2000/svg" xmlns:xlink="http://www.w3.org/1999/xlink">
<defs>
<style type="text/css">*{stroke-linecap:butt;stroke-linejoin:round;}</style>
</defs>
<path d="m0 1040h1976v-1040h-1976z" fill="#fff"/>
<g fill="none" stroke="#000">
<path d="m990.06 47.273-900.24 812.99" clip-path="url(#a)"/>
<path d="m990.06 47.273-218.53 136.31" clip-path="url(#a)"/>
<path d="m990.06 47.273 517.94 812.99" clip-path="url(#a)"/>
<path d="m990.06 47.273 766.4 678.69" clip-path="url(#a)"/>
<path d="m990.06 47.273-893.64 812.99" clip-path="url(#a)"/>
<path d="m990.06 47.273 326.65 812.99" clip-path="url(#a)"/>
<path d="m990.06 47.273 401.41 812.99" clip-path="url(#a)"/>
<path d="m89.818 860.27v132.46" clip-path="url(#a)"/>
<path d="m771.52 183.59-523.68 136.09" clip-path="url(#a)"/>
<path d="m771.52 183.59-28.683 676.68" clip-path="url(#a)"/>
<path d="m771.52 183.59 26.285 676.68" clip-path="url(#a)"/>
<path d="m771.52 183.59 83.452 676.68" clip-path="url(#a)"/>
<path d="m771.52 183.59 142.82 676.68" clip-path="url(#a)"/>
<path d="m771.52 183.59 381.26 407.37" clip-path="url(#a)"/>
<path d="m771.52 183.59-81.453 676.68" clip-path="url(#a)"/>
<path d="m1508 860.27-39.577 132.46" clip-path="url(#a)"/>
<path d="m1508 860.27 39.577 132.46" clip-path="url(#a)"/>
<path d="m1756.5 725.96-127.53 134.3" clip-path="url(#a)"/>
<path d="m1756.5 725.96-43.975 134.3" clip-path="url(#a)"/>
<path d="m1756.5 725.96 41.776 134.3" clip-path="url(#a)"/>
<path d="m1756.5 725.96 129.73 134.3" clip-path="url(#a)"/>
<path d="m1628.9 860.27v132.46" clip-path="url(#a)"/>
<path d="m1712.5 860.27v132.46" clip-path="url(#a)"/>
<path d="m1798.2 860.27v132.46" clip-path="url(#a)"/>
<path d="m247.85 319.67-142.64 540.59" clip-path="url(#a)"/>
<path d="m247.85 319.67-117.72 406.29" clip-path="url(#a)"/>
<path d="m247.85 319.67-103.06 540.59" clip-path="url(#a)"/>
<path d="m247.85 319.67-21.83 135.81" clip-path="url(#a)"/>
<path d="m247.85 319.67 298.94 271.28" clip-path="url(#a)"/>
<path d="m247.85 319.67-85.471 540.59" clip-path="url(#a)"/>
<path d="m247.85 319.67 171.78 540.59" clip-path="url(#a)"/>
<path d="m742.84 860.27v132.46" clip-path="url(#a)"/>
<path d="m797.81 860.27v132.46" clip-path="url(#a)"/>
<path d="m854.98 860.27v132.46" clip-path="url(#a)"/>
<path d="m914.34 860.27v132.46" clip-path="url(#a)"/>
<path d="m1152.8 590.95-112.38 135.01" clip-path="url(#a)"/>
<path d="m1152.8 590.95 21.01 269.31" clip-path="url(#a)"/>
<path d="m1152.8 590.95 91.37 269.31" clip-path="url(#a)"/>
<path d="m1040.4 725.96-64.496 134.3" clip-path="url(#a)"/>
<path d="m1040.4 725.96-0.73291 134.3" clip-path="url(#a)"/>
<path d="m1040.4 725.96 65.229 134.3" clip-path="url(#a)"/>
<path d="m1173.8 860.27v132.46" clip-path="url(#a)"/>
<path d="m1244.2 860.27v132.46" clip-path="url(#a)"/>
<path d="m975.91 860.27v132.46" clip-path="url(#a)"/>
<path d="m1039.7 860.27v132.46" clip-path="url(#a)"/>
<path d="m1105.6 860.27v132.46" clip-path="url(#a)"/>
<path d="m105.21 860.27v132.46" clip-path="url(#a)"/>
<path d="m130.13 725.96 14.658 134.3" clip-path="url(#a)" stroke-dasharray="3.7,1.6"/>
<path d="m130.13 725.96-13.925 134.3" clip-path="url(#a)"/>
<path d="m130.13 725.96-0.73291 134.3" clip-path="url(#a)"/>
<path d="m144.79 860.27v132.46" clip-path="url(#a)"/>
<path d="m226.02 455.48-81.231 404.78" clip-path="url(#a)" stroke-dasharray="3.7,1.6"/>
<path d="m226.02 455.48-32.859 404.78" clip-path="url(#a)"/>
<path d="m226.02 455.48 2.3209 404.78" clip-path="url(#a)"/>
<path d="m226.02 455.48 111.77 135.47" clip-path="url(#a)"/>
<path d="m546.79 590.95-66.695 135.01" clip-path="url(#a)"/>
<path d="m546.79 590.95-1.8323 269.31" clip-path="url(#a)"/>
<path d="m546.79 590.95 68.527 135.01" clip-path="url(#a)"/>
<path d="m480.09 725.96-20.888 134.3" clip-path="url(#a)"/>
<path d="m480.09 725.96 20.888 134.3" clip-path="url(#a)"/>
<path d="m544.96 860.27v132.46" clip-path="url(#a)"/>
<path d="m615.32 725.96-24.186 134.3" clip-path="url(#a)"/>
<path d="m615.32 725.96 24.186 134.3" clip-path="url(#a)"/>
<path d="m591.13 860.27v132.46" clip-path="url(#a)"/>
<path d="m639.5 860.27v132.46" clip-path="url(#a)"/>
<path d="m459.21 860.27v132.46" clip-path="url(#a)"/>
<path d="m500.98 860.27v132.46" clip-path="url(#a)"/>
<path d="m193.16 860.27-10.994 132.46" clip-path="url(#a)"/>
<path d="m193.16 860.27 10.994 132.46" clip-path="url(#a)"/>
<path d="m228.34 860.27v132.46" clip-path="url(#a)"/>
<path d="m337.79 590.95-53.747 135.01" clip-path="url(#a)"/>
<path d="m337.79 590.95 9.2835 269.31" clip-path="url(#a)"/>
<path d="m337.79 590.95 44.463 269.31" clip-path="url(#a)"/>
<path d="m284.04 725.96-29.316 134.3" clip-path="url(#a)"/>
<path d="m284.04 725.96-0.73291 134.3" clip-path="url(#a)"/>
<path d="m284.04 725.96 30.049 134.3" clip-path="url(#a)"/>
<path d="m347.07 860.27v132.46" clip-path="url(#a)"/>
<path d="m382.25 860.27v132.46" clip-path="url(#a)"/>
<path d="m254.72 860.27v132.46" clip-path="url(#a)"/>
<path d="m283.31 860.27v132.46" clip-path="url(#a)"/>
<path d="m314.09 860.27v132.46" clip-path="url(#a)"/>
<path d="m116.2 860.27v132.46" clip-path="url(#a)"/>
<path d="m129.4 860.27v132.46" clip-path="url(#a)"/>
<path d="m96.414 860.27v132.46" clip-path="url(#a)"/>
<path d="m162.38 860.27v132.46" clip-path="url(#a)"/>
<path d="m419.63 860.27v132.46" clip-path="url(#a)"/>
<path d="m690.07 860.27v132.46" clip-path="url(#a)"/>
<path d="m1316.7 860.27v132.46" clip-path="url(#a)"/>
<path d="m1391.5 860.27v132.46" clip-path="url(#a)"/>
<path d="m1886.2 860.27v132.46" clip-path="url(#a)"/>
</g>
<path d="m542.49 459.92 3.3082-2.9875q1.7812-1.6086 0.17262-3.3897l-5.1892-5.7461q-1.6086-1.7812-3.3897-0.17262l-3.3082 2.9875q-1.7812 1.6086-0.17262 3.3897l5.1892 5.7461q1.6086 1.7812 3.3897 0.17262z" clip-path="url(#a)" fill="#fff" stroke="#fff"/>
<g clip-path="url(#a)">
<defs>
<path id="ao" d="m9.8125 72.906h9.8594v-64.609h35.5v-8.2969h-45.359z"/>
</defs>
<g transform="translate(539.76 456.9) rotate(-42.085) scale(.08 -.08)">
<use xlink:href="#ao"/>
</g>
</g>
<path d="m881.56 122.34 5.1046-3.1841q2.0363-1.2702 0.76613-3.3065l-4.0977-6.5693q-1.2702-2.0363-3.3065-0.76613l-5.1046 3.1841q-2.0363 1.2702-0.76612 3.3065l4.0977 6.5693q1.2702 2.0363 3.3065 0.76613z" clip-path="url(#a)" fill="#fff" stroke="#fff"/>
<g clip-path="url(#a)">
<defs>
<path id="ap" d="m9.8125 72.906h9.8594v-29.891h35.844v29.891h9.8594v-72.906h-9.8594v34.719h-35.844v-34.719h-9.8594z"/>
</defs>
<g transform="translate(879.41 118.89) rotate(-31.955) scale(.08 -.08)">
<use xlink:href="#ap"/>
</g>
</g>
<path d="m1242.5 455.26 2.395 3.7594q1.2895 2.0241 3.3137 0.73459l6.5299-4.1601q2.0241-1.2895 0.73459-3.3137l-2.395-3.7594q-1.2895-2.0241-3.3137-0.73459l-6.5299 4.1601q-2.0241 1.2895-0.73459 3.3137z" clip-path="url(#a)" fill="#fff" stroke="#fff"/>
<g clip-path="url(#a)">
<g transform="translate(1246 453.08) rotate(57.499) scale(.08 -.08)">
<use xlink:href="#ao"/>
</g>
</g>
<path d="m1366.8 389.32 4.5041 3.9886q1.7968 1.5911 3.3879-0.20564l5.133-5.7964q1.5911-1.7968-0.20564-3.3879l-4.5041-3.9886q-1.7968-1.5911-3.3879 0.20564l-5.133 5.7964q-1.5911 1.7968 0.20564 3.3879z" clip-path="url(#a)" fill="#fff" stroke="#fff"/>
<g clip-path="url(#a)">
<g transform="translate(1369.5 386.27) rotate(41.527) scale(.08 -.08)">
<use xlink:href="#ap"/>
</g>
</g>
<path d="m545.29 460.38 4.3309-3.9401q1.7753-1.6151 0.16021-3.3903l-5.2102-5.7271q-1.6151-1.7753-3.3903-0.16021l-4.3309 3.9401q-1.7753 1.6151-0.16021 3.3903l5.2102 5.7271q1.6151 1.7753 3.3903 0.16021z" clip-path="url(#a)" fill="#fff" stroke="#fff"/>
<g clip-path="url(#a)">
<defs>
<path id="v" d="m8.6875 72.906h9.9219v-44.297q0-11.719 4.2344-16.875 4.25-5.1406 13.781-5.1406 9.4688 0 13.719 5.1406 4.25 5.1562 4.25 16.875v44.297h9.9062v-45.516q0-14.25-7.0625-21.531-7.0469-7.2812-20.812-7.2812-13.828 0-20.891 7.2812-7.0469 7.2812-7.0469 21.531z"/>
</defs>
<g transform="translate(542.56 457.37) rotate(-42.294) scale(.08 -.08)">
<use xlink:href="#v"/>
</g>
</g>
<path d="m1146.5 453.39 2.1829 5.4329q0.89478 2.227 3.1217 1.3322l7.1843-2.8866q2.227-0.89478 1.3322-3.1217l-2.1829-5.4329q-0.89478-2.227-3.1217-1.3322l-7.1843 2.8866q-2.227 0.89478-1.3322 3.1217z" clip-path="url(#a)" fill="#fff" stroke="#fff"/>
<g clip-path="url(#a)">
<g transform="translate(1150.2 451.88) rotate(68.11) scale(.08 -.08)">
<use xlink:href="#v"/>
</g>
</g>
<path d="m1183.8 453.92 2.5921 5.2499q1.0625 2.152 3.2145 1.0895l6.9424-3.4278q2.152-1.0625 1.0894-3.2145l-2.5921-5.2499q-1.0625-2.152-3.2145-1.0895l-6.9424 3.4278q-2.152 1.0625-1.0895 3.2145z" clip-path="url(#a)" fill="#fff" stroke="#fff"/>
<g clip-path="url(#a)">
<g transform="translate(1187.5 452.12) rotate(63.722) scale(.08 -.08)">
<use xlink:href="#v"/>
</g>
</g>
<path d="m83.547 909.59v33.808q0 2.4 2.4 2.4h7.7425q2.4 0 2.4-2.4v-33.808q0-2.4-2.4-2.4h-7.7425q-2.4 0-2.4 2.4z" clip-path="url(#a)" fill="#fff" stroke="#fff"/>
<g clip-path="url(#a)">
<defs>
<path id="l" d="m-0.29688 72.906h61.672v-8.3125h-25.875v-64.594h-9.9062v64.594h-25.891z"/>
<path id="c" d="m56.203 29.594v-4.3906h-41.312q0.59375-9.2812 5.5938-14.141t13.938-4.8594q5.1719 0 10.031 1.2656t9.6562 3.8125v-8.5q-4.8438-2.0469-9.9219-3.125t-10.297-1.0781q-13.094 0-20.734 7.6094-7.6406 7.625-7.6406 20.625 0 13.422 7.25 21.297 7.25 7.8906 19.562 7.8906 11.031 0 17.453-7.1094 6.4219-7.0938 6.4219-19.297zm-8.9844 2.6406q-0.09375 7.3594-4.125 11.75-4.0312 4.4062-10.672 4.4062-7.5156 0-12.031-4.25t-5.2031-11.969z"/>
<path id="k" d="m41.109 46.297q-1.5156 0.875-3.2969 1.2812-1.7812 0.42188-3.9219 0.42188-7.625 0-11.703-4.9531t-4.0781-14.234v-28.812h-9.0312v54.688h9.0312v-8.5q2.8438 4.9844 7.375 7.3906 4.5469 2.4219 11.047 2.4219 0.92188 0 2.0469-0.125 1.125-0.10938 2.4844-0.35938z"/>
<path id="j" d="m52 44.188q3.375 6.0625 8.0625 8.9375t11.031 2.875q8.5469 0 13.188-5.9844 4.6406-5.9688 4.6406-17v-33.016h-9.0312v32.719q0 7.8594-2.7969 11.656-2.7812 3.8125-8.4844 3.8125-6.9844 0-11.047-4.6406-4.0469-4.625-4.0469-12.641v-30.906h-9.0312v32.719q0 7.9062-2.7812 11.688t-8.5938 3.7812q-6.8906 0-10.953-4.6562-4.0469-4.6562-4.0469-12.625v-30.906h-9.0312v54.688h9.0312v-8.5q3.0781 5.0312 7.375 7.4219t10.203 2.3906q5.9688 0 10.141-3.0312 4.1719-3.0156 6.1719-8.7812z"/>
<path id="i" d="m9.4219 54.688h8.9844v-54.688h-8.9844zm0 21.297h8.9844v-11.391h-8.9844z"/>
<path id="h" d="m54.891 33.016v-33.016h-8.9844v32.719q0 7.7656-3.0312 11.609-3.0312 3.8594-9.0781 3.8594-7.2812 0-11.484-4.6406-4.2031-4.625-4.2031-12.641v-30.906h-9.0312v54.688h9.0312v-8.5q3.2344 4.9375 7.5938 7.375 4.375 2.4375 10.094 2.4375 9.4219 0 14.25-5.8281 4.8438-5.8281 4.8438-17.156z"/>
<path id="f" d="m34.281 27.484q-10.891 0-15.094-2.4844t-4.2031-8.5q0-4.7812 3.1562-7.5938 3.1562-2.7969 8.5625-2.7969 7.4844 0 12 5.2969t4.5156 14.078v2zm17.922 3.7188v-31.203h-8.9844v8.2969q-3.0781-4.9688-7.6719-7.3438t-11.234-2.375q-8.3906 0-13.359 4.7188-4.9531 4.7188-4.9531 12.625 0 9.2188 6.1719 13.906 6.1875 4.6875 18.438 4.6875h12.609v0.89062q0 6.2031-4.0781 9.5938t-11.453 3.3906q-4.6875 0-9.1406-1.125-4.4375-1.125-8.5312-3.375v8.3125q4.9219 1.9062 9.5625 2.8438 4.6406 0.95312 9.0312 0.95312 11.875 0 17.734-6.1562 5.8594-6.1406 5.8594-18.641z"/>
<path id="e" d="m9.4219 75.984h8.9844v-75.984h-8.9844z"/>
</defs>
<g transform="translate(87.611 909.59) rotate(90) scale(.08 -.08)">
<use xlink:href="#l"/>
<use x="44.083984" xlink:href="#c"/>
<use x="105.607422" xlink:href="#k"/>
<use x="144.970703" xlink:href="#j"/>
<use x="242.382812" xlink:href="#i"/>
<use x="270.166016" xlink:href="#h"/>
<use x="333.544922" xlink:href="#f"/>
<use x="394.824219" xlink:href="#e"/>
</g>
</g>
<path d="m508.62 258.39 5.2966-1.3764q2.3229-0.60363 1.7192-2.9265l-1.9473-7.4936q-0.60363-2.3229-2.9265-1.7192l-5.2966 1.3764q-2.3229 0.60363-1.7192 2.9265l1.9473 7.4936q0.60363 2.3229 2.9265 1.7192z" clip-path="url(#a)" fill="#fff" stroke="#fff"/>
<g clip-path="url(#a)">
<defs>
<path id="w" d="m34.188 63.188-13.391-36.281h26.812zm-5.5781 9.7188h11.188l27.781-72.906h-10.25l-6.6406 18.703h-32.859l-6.6406-18.703h-10.406z"/>
</defs>
<g transform="translate(507.59 254.45) rotate(-14.567) scale(.08 -.08)">
<use xlink:href="#w"/>
</g>
</g>
<path d="m763.32 525.27 0.26088-6.1545q0.10164-2.3978-2.2962-2.4995l-7.7356-0.3279q-2.3978-0.10164-2.4995 2.2962l-0.26088 6.1545q-0.10164 2.3978 2.2962 2.4995l7.7356 0.3279q2.3978 0.10164 2.4995-2.2962z" clip-path="url(#a)" fill="#fff" stroke="#fff"/>
<g clip-path="url(#a)">
<defs>
<path id="aq" d="m19.672 64.797v-56.688h11.922q15.094 0 22.094 6.8281 7 6.8438 7 21.594 0 14.641-7 21.453t-22.094 6.8125zm-9.8594 8.1094h20.266q21.188 0 31.094-8.8125 9.9219-8.8125 9.9219-27.562 0-18.859-9.9688-27.703-9.9531-8.8281-31.047-8.8281h-20.266z"/>
</defs>
<g transform="translate(759.26 525.1) rotate(-87.573) scale(.08 -.08)">
<use xlink:href="#aq"/>
</g>
</g>
<path d="m778.31 519.87 0.1786 4.5978q0.093155 2.3982 2.4913 2.305l7.7367-0.30052q2.3982-0.093156 2.305-2.4913l-0.1786-4.5978q-0.093156-2.3982-2.4913-2.305l-7.7367 0.30052q-2.3982 0.093156-2.305 2.4913z" clip-path="url(#a)" fill="#fff" stroke="#fff"/>
<g clip-path="url(#a)">
<defs>
<path id="ax" d="m9.8125 72.906h41.891v-8.3125h-32.031v-21.484h28.906v-8.2969h-28.906v-34.812h-9.8594z"/>
</defs>
<g transform="translate(782.37 519.71) rotate(87.776) scale(.08 -.08)">
<use xlink:href="#ax"/>
</g>
</g>
<path d="m806.73 520.27 0.59807 4.8495q0.29376 2.382 2.6757 2.0882l7.6843-0.94767q2.382-0.29376 2.0882-2.6757l-0.59807-4.8495q-0.29376-2.382-2.6757-2.0882l-7.6843 0.94767q-2.382 0.29376-2.0882 2.6757z" clip-path="url(#a)" fill="#fff" stroke="#fff"/>
<g clip-path="url(#a)">
<g transform="translate(810.76 519.77) rotate(82.969) scale(.08 -.08)">
<use xlink:href="#l"/>
</g>
</g>
<path d="m836.27 520.74 1.0488 4.9693q0.49562 2.3483 2.8439 1.8526l7.5756-1.5989q2.3483-0.49562 1.8526-2.8439l-1.0488-4.9693q-0.49562-2.3483-2.8439-1.8526l-7.5756 1.5989q-2.3483 0.49562-1.8526 2.8439z" clip-path="url(#a)" fill="#fff" stroke="#fff"/>
<g clip-path="url(#a)">
<defs>
<path id="am" d="m53.516 70.516v-9.625q-5.6094 2.6875-10.594 4-4.9844 1.3281-9.625 1.3281-8.0469 0-12.422-3.125t-4.375-8.8906q0-4.8438 2.9062-7.3125 2.9062-2.4531 11.016-3.9688l5.9531-1.2188q11.031-2.1094 16.281-7.4062t5.25-14.172q0-10.609-7.1094-16.078-7.0938-5.4688-20.812-5.4688-5.1719 0-11.016 1.1719-5.8281 1.1719-12.078 3.4688v10.156q6-3.3594 11.766-5.0781 5.7656-1.7031 11.328-1.7031 8.4375 0 13.031 3.3125 4.5938 3.3281 4.5938 9.4844 0 5.3594-3.2969 8.3906t-10.812 4.5469l-6.0156 1.1719q-11.031 2.1875-15.969 6.875-4.9219 4.6875-4.9219 13.047 0 9.6719 6.8125 15.234t18.766 5.5625q5.1406 0 10.453-0.9375 5.3281-0.92188 10.891-2.7656z"/>
</defs>
<g transform="translate(840.25 519.9) rotate(78.082) scale(.08 -.08)">
<use xlink:href="#am"/>
</g>
</g>
<path d="m955.71 389.56 3.7395 3.9956q1.64 1.7523 3.3923 0.1123l5.6529-5.2906q1.7523-1.64 0.1123-3.3923l-3.7395-3.9956q-1.64-1.7523-3.3923-0.1123l-5.6529 5.2906q-1.7523 1.64-0.1123 3.3923z" clip-path="url(#a)" fill="#fff" stroke="#fff"/>
<g clip-path="url(#a)">
<g transform="translate(958.67 386.78) rotate(46.896) scale(.08 -.08)">
<use xlink:href="#w"/>
</g>
</g>
<path d="m736.67 525.58 0.69972-5.813q0.28682-2.3828-2.096-2.6696l-7.687-0.9253q-2.3828-0.28682-2.6696 2.096l-0.69972 5.813q-0.28682 2.3828 2.096 2.6696l7.687 0.9253q2.3828 0.28682 2.6696-2.096z" clip-path="url(#a)" fill="#fff" stroke="#fff"/>
<g clip-path="url(#a)">
<g transform="translate(732.64 525.1) rotate(-83.136) scale(.08 -.08)">
<use xlink:href="#v"/>
</g>
</g>
<path d="m1489.4 944.49 9.6783-32.393q0.68706-2.2996-1.6125-2.9866l-7.4185-2.2165q-2.2996-0.68706-2.9866 1.6125l-9.6783 32.393q-0.68706 2.2996 1.6125 2.9866l7.4185 2.2165q2.2996 0.68706 2.9866-1.6125z" clip-path="url(#a)" fill="#fff" stroke="#fff"/>
<g clip-path="url(#a)">
<g transform="translate(1485.5 943.32) rotate(-73.365) scale(.08 -.08)">
<use xlink:href="#l"/>
<use x="44.083984" xlink:href="#c"/>
<use x="105.607422" xlink:href="#k"/>
<use x="144.970703" xlink:href="#j"/>
<use x="242.382812" xlink:href="#i"/>
<use x="270.166016" xlink:href="#h"/>
<use x="333.544922" xlink:href="#f"/>
<use x="394.824219" xlink:href="#e"/>
</g>
</g>
<path d="m1516.9 912.1 9.6783 32.393q0.68706 2.2996 2.9866 1.6125l7.4185-2.2165q2.2996-0.68706 1.6125-2.9866l-9.6783-32.393q-0.68706-2.2996-2.9866-1.6125l-7.4185 2.2165q-2.2996 0.68706-1.6125 2.9866z" clip-path="url(#a)" fill="#fff" stroke="#fff"/>
<g clip-path="url(#a)">
<g transform="translate(1520.8 910.93) rotate(73.365) scale(.08 -.08)">
<use xlink:href="#l"/>
<use x="44.083984" xlink:href="#c"/>
<use x="105.607422" xlink:href="#k"/>
<use x="144.970703" xlink:href="#j"/>
<use x="242.382812" xlink:href="#i"/>
<use x="270.166016" xlink:href="#h"/>
<use x="333.544922" xlink:href="#f"/>
<use x="394.824219" xlink:href="#e"/>
</g>
</g>
<path d="m1695.4 799.42 3.7682-3.9685q1.6526-1.7404-0.087838-3.393l-5.6146-5.3313q-1.7404-1.6526-3.393 0.087838l-3.7682 3.9685q-1.6526 1.7404 0.087838 3.393l5.6146 5.3313q1.7404 1.6526 3.393-0.087838z" clip-path="url(#a)" fill="#fff" stroke="#fff"/>
<g clip-path="url(#a)">
<g transform="translate(1692.4 796.62) rotate(-46.483) scale(.08 -.08)">
<use xlink:href="#w"/>
</g>
</g>
<path d="m1739.6 797.66 1.7029-5.2008q0.74681-2.2809-1.534-3.0277l-7.3581-2.4092q-2.2809-0.74681-3.0277 1.534l-1.7029 5.2008q-0.7468 2.2809 1.534 3.0277l7.3581 2.4092q2.2809 0.7468 3.0277-1.534z" clip-path="url(#a)" fill="#fff" stroke="#fff"/>
<g clip-path="url(#a)">
<g transform="translate(1735.7 796.4) rotate(-71.87) scale(.08 -.08)">
<use xlink:href="#w"/>
</g>
</g>
<path d="m1770.6 792.67 1.4327 4.6061q0.71284 2.2917 3.0045 1.5789l7.3931-2.2996q2.2917-0.71284 1.5789-3.0045l-1.4327-4.6061q-0.71284-2.2917-3.0045-1.5789l-7.3931 2.2996q-2.2917 0.71284-1.5789 3.0045z" clip-path="url(#a)" fill="#fff" stroke="#fff"/>
<g clip-path="url(#a)">
<defs>
<path id="an" d="m19.672 64.797v-27.391h12.406q6.8906 0 10.641 3.5625 3.7656 3.5625 3.7656 10.156 0 6.5469-3.7656 10.109-3.75 3.5625-10.641 3.5625zm-9.8594 8.1094h22.266q12.266 0 18.531-5.5469 6.2812-5.5469 6.2812-16.234 0-10.797-6.2812-16.312-6.2656-5.5156-18.531-5.5156h-12.406v-29.297h-9.8594z"/>
</defs>
<g transform="translate(1774.5 791.47) rotate(72.722) scale(.08 -.08)">
<use xlink:href="#an"/>
</g>
</g>
<path d="m1814.8 795.36 4.0677 4.2113q1.6674 1.7262 3.3936 0.058862l5.5689-5.379q1.7262-1.6674 0.058863-3.3936l-4.0677-4.2113q-1.6674-1.7262-3.3936-0.058862l-5.5689 5.379q-1.7262 1.6674-0.058863 3.3936z" clip-path="url(#a)" fill="#fff" stroke="#fff"/>
<g clip-path="url(#a)">
<g transform="translate(1817.7 792.54) rotate(45.994) scale(.08 -.08)">
<use xlink:href="#v"/>
</g>
</g>
<path d="m1622.7 909.59v33.808q0 2.4 2.4 2.4h7.7425q2.4 0 2.4-2.4v-33.808q0-2.4-2.4-2.4h-7.7425q-2.4 0-2.4 2.4z" clip-path="url(#a)" fill="#fff" stroke="#fff"/>
<g clip-path="url(#a)">
<g transform="translate(1626.7 909.59) rotate(90) scale(.08 -.08)">
<use xlink:href="#l"/>
<use x="44.083984" xlink:href="#c"/>
<use x="105.607422" xlink:href="#k"/>
<use x="144.970703" xlink:href="#j"/>
<use x="242.382812" xlink:href="#i"/>
<use x="270.166016" xlink:href="#h"/>
<use x="333.544922" xlink:href="#f"/>
<use x="394.824219" xlink:href="#e"/>
</g>
</g>
<path d="m1706.2 909.59v33.808q0 2.4 2.4 2.4h7.7425q2.4 0 2.4-2.4v-33.808q0-2.4-2.4-2.4h-7.7425q-2.4 0-2.4 2.4z" clip-path="url(#a)" fill="#fff" stroke="#fff"/>
<g clip-path="url(#a)">
<g transform="translate(1710.3 909.59) rotate(90) scale(.08 -.08)">
<use xlink:href="#l"/>
<use x="44.083984" xlink:href="#c"/>
<use x="105.607422" xlink:href="#k"/>
<use x="144.970703" xlink:href="#j"/>
<use x="242.382812" xlink:href="#i"/>
<use x="270.166016" xlink:href="#h"/>
<use x="333.544922" xlink:href="#f"/>
<use x="394.824219" xlink:href="#e"/>
</g>
</g>
<path d="m1792 909.59v33.808q0 2.4 2.4 2.4h7.7425q2.4 0 2.4-2.4v-33.808q0-2.4-2.4-2.4h-7.7425q-2.4 0-2.4 2.4z" clip-path="url(#a)" fill="#fff" stroke="#fff"/>
<g clip-path="url(#a)">
<g transform="translate(1796 909.59) rotate(90) scale(.08 -.08)">
<use xlink:href="#l"/>
<use x="44.083984" xlink:href="#c"/>
<use x="105.607422" xlink:href="#k"/>
<use x="144.970703" xlink:href="#j"/>
<use x="242.382812" xlink:href="#i"/>
<use x="270.166016" xlink:href="#h"/>
<use x="333.544922" xlink:href="#f"/>
<use x="394.824219" xlink:href="#e"/>
</g>
</g>
<path d="m181.95 594.01 1.2896-4.8877q0.6123-2.3206-1.7083-2.9329l-7.4863-1.9753q-2.3206-0.6123-2.9329 1.7083l-1.2896 4.8877q-0.6123 2.3206 1.7083 2.9329l7.4863 1.9753q2.3206 0.6123 2.9329-1.7083z" clip-path="url(#a)" fill="#fff" stroke="#fff"/>
<g clip-path="url(#a)">
<defs>
<path id="r" d="m9.8125 72.906h46.094v-8.3125h-36.234v-21.578h34.719v-8.2969h-34.719v-26.422h37.109v-8.2969h-46.969z"/>
</defs>
<g transform="translate(178.02 592.98) rotate(-75.219) scale(.08 -.08)">
<use xlink:href="#r"/>
</g>
</g>
<path d="m194.31 526.99 1.4068-4.8553q0.66791-2.3052-1.6373-2.9731l-7.4366-2.1547q-2.3052-0.66791-2.9731 1.6373l-1.4068 4.8553q-0.66791 2.3052 1.6373 2.9731l7.4366 2.1547q2.3052 0.66791 2.9731-1.6373z" clip-path="url(#a)" fill="#fff" stroke="#fff"/>
<g clip-path="url(#a)">
<g transform="translate(190.4 525.86) rotate(-73.841) scale(.08 -.08)">
<use xlink:href="#r"/>
</g>
</g>
<path d="m201.95 593.89 1.0461-5.4874q0.44945-2.3575-1.9081-2.807l-7.6055-1.4499q-2.3575-0.44945-2.807 1.9081l-1.0461 5.4874q-0.44945 2.3575 1.9081 2.807l7.6055 1.4499q2.3575 0.44945 2.807-1.9081z" clip-path="url(#a)" fill="#fff" stroke="#fff"/>
<g clip-path="url(#a)">
<defs>
<path id="t" d="m64.406 67.281v-10.391q-4.9844 4.6406-10.625 6.9219-5.6406 2.2969-11.984 2.2969-12.5 0-19.141-7.6406t-6.6406-22.094q0-14.406 6.6406-22.047t19.141-7.6406q6.3438 0 11.984 2.2969t10.625 6.9375v-10.312q-5.1719-3.5156-10.969-5.2812-5.7812-1.75-12.219-1.75-16.562 0-26.094 10.125-9.5156 10.141-9.5156 27.672 0 17.578 9.5156 27.703 9.5312 10.141 26.094 10.141 6.5312 0 12.312-1.7344 5.7969-1.7344 10.875-5.2031z"/>
</defs>
<g transform="translate(197.96 593.13) rotate(-79.206) scale(.08 -.08)">
<use xlink:href="#t"/>
</g>
</g>
<path d="m242.72 391.07 0.80224-4.9909q0.38089-2.3696-1.9887-2.7505l-7.6444-1.2288q-2.3696-0.38088-2.7505 1.9887l-0.80224 4.9909q-0.38089 2.3696 1.9887 2.7505l7.6444 1.2288q2.3696 0.38089 2.7505-1.9887z" clip-path="url(#a)" fill="#fff" stroke="#fff"/>
<g clip-path="url(#a)">
<g transform="translate(238.71 390.42) rotate(-80.868) scale(.08 -.08)">
<use xlink:href="#r"/>
</g>
</g>
<path d="m391.23 458.26 3.7434 3.397q1.7773 1.6128 3.3901-0.16445l5.2031-5.7336q1.6128-1.7773-0.16445-3.3901l-3.7434-3.397q-1.7773-1.6128-3.3901 0.16445l-5.2031 5.7336q-1.6128 1.7773 0.16445 3.3901z" clip-path="url(#a)" fill="#fff" stroke="#fff"/>
<g clip-path="url(#a)">
<g transform="translate(393.96 455.25) rotate(42.223) scale(.08 -.08)">
<use xlink:href="#r"/>
</g>
</g>
<path d="m210.85 593.84 0.91435-5.7832q0.3748-2.3706-1.9958-2.7454l-7.6475-1.2091q-2.3706-0.3748-2.7454 1.9958l-0.91435 5.7832q-0.3748 2.3706 1.9958 2.7454l7.6475 1.2091q2.3706 0.3748 2.7454-1.9958z" clip-path="url(#a)" fill="#fff" stroke="#fff"/>
<g clip-path="url(#a)">
<g transform="translate(206.84 593.2) rotate(-81.016) scale(.08 -.08)">
<use xlink:href="#v"/>
</g>
</g>
<path d="m326.87 589.08 1.7731 5.5801q0.72682 2.2873 3.0141 1.5605l7.3789-2.3447q2.2873-0.72682 1.5605-3.0141l-1.7731-5.5801q-0.72682-2.2873-3.0141-1.5605l-7.3789 2.3447q-2.2873 0.72682-1.5605 3.0141z" clip-path="url(#a)" fill="#fff" stroke="#fff"/>
<g clip-path="url(#a)">
<g transform="translate(330.75 587.85) rotate(72.372) scale(.08 -.08)">
<use xlink:href="#v"/>
</g>
</g>
<path d="m736.57 909.59v33.808q0 2.4 2.4 2.4h7.7425q2.4 0 2.4-2.4v-33.808q0-2.4-2.4-2.4h-7.7425q-2.4 0-2.4 2.4z" clip-path="url(#a)" fill="#fff" stroke="#fff"/>
<g clip-path="url(#a)">
<g transform="translate(740.63 909.59) rotate(90) scale(.08 -.08)">
<use xlink:href="#l"/>
<use x="44.083984" xlink:href="#c"/>
<use x="105.607422" xlink:href="#k"/>
<use x="144.970703" xlink:href="#j"/>
<use x="242.382812" xlink:href="#i"/>
<use x="270.166016" xlink:href="#h"/>
<use x="333.544922" xlink:href="#f"/>
<use x="394.824219" xlink:href="#e"/>
</g>
</g>
<path d="m791.54 909.59v33.808q0 2.4 2.4 2.4h7.7425q2.4 0 2.4-2.4v-33.808q0-2.4-2.4-2.4h-7.7425q-2.4 0-2.4 2.4z" clip-path="url(#a)" fill="#fff" stroke="#fff"/>
<g clip-path="url(#a)">
<g transform="translate(795.6 909.59) rotate(90) scale(.08 -.08)">
<use xlink:href="#l"/>
<use x="44.083984" xlink:href="#c"/>
<use x="105.607422" xlink:href="#k"/>
<use x="144.970703" xlink:href="#j"/>
<use x="242.382812" xlink:href="#i"/>
<use x="270.166016" xlink:href="#h"/>
<use x="333.544922" xlink:href="#f"/>
<use x="394.824219" xlink:href="#e"/>
</g>
</g>
<path d="m848.71 909.59v33.808q0 2.4 2.4 2.4h7.7425q2.4 0 2.4-2.4v-33.808q0-2.4-2.4-2.4h-7.7425q-2.4 0-2.4 2.4z" clip-path="url(#a)" fill="#fff" stroke="#fff"/>
<g clip-path="url(#a)">
<g transform="translate(852.77 909.59) rotate(90) scale(.08 -.08)">
<use xlink:href="#l"/>
<use x="44.083984" xlink:href="#c"/>
<use x="105.607422" xlink:href="#k"/>
<use x="144.970703" xlink:href="#j"/>
<use x="242.382812" xlink:href="#i"/>
<use x="270.166016" xlink:href="#h"/>
<use x="333.544922" xlink:href="#f"/>
<use x="394.824219" xlink:href="#e"/>
</g>
</g>
<path d="m908.07 909.59v33.808q0 2.4 2.4 2.4h7.7425q2.4 0 2.4-2.4v-33.808q0-2.4-2.4-2.4h-7.7425q-2.4 0-2.4 2.4z" clip-path="url(#a)" fill="#fff" stroke="#fff"/>
<g clip-path="url(#a)">
<g transform="translate(912.13 909.59) rotate(90) scale(.08 -.08)">
<use xlink:href="#l"/>
<use x="44.083984" xlink:href="#c"/>
<use x="105.607422" xlink:href="#k"/>
<use x="144.970703" xlink:href="#j"/>
<use x="242.382812" xlink:href="#i"/>
<use x="270.166016" xlink:href="#h"/>
<use x="333.544922" xlink:href="#f"/>
<use x="394.824219" xlink:href="#e"/>
</g>
</g>
<path d="m1099.8 664.41 3.234-3.8852q1.5354-1.8446-0.30918-3.38l-5.9507-4.9533q-1.8446-1.5354-3.38 0.30918l-3.234 3.8852q-1.5354 1.8446 0.30918 3.38l5.9507 4.9533q1.8446 1.5354 3.38-0.30918z" clip-path="url(#a)" fill="#fff" stroke="#fff"/>
<g clip-path="url(#a)">
<g transform="translate(1096.7 661.81) rotate(-50.227) scale(.08 -.08)">
<use xlink:href="#r"/>
</g>
</g>
<path d="m1156.8 723.58 0.39316 5.0397q0.18666 2.3927 2.5794 2.2061l7.719-0.60219q2.3927-0.18666 2.2061-2.5794l-0.39316-5.0397q-0.18666-2.3927-2.5794-2.2061l-7.719 0.60219q-2.3927 0.18666-2.2061 2.5794z" clip-path="url(#a)" fill="#fff" stroke="#fff"/>
<g clip-path="url(#a)">
<g transform="translate(1160.9 723.26) rotate(85.539) scale(.08 -.08)">
<use xlink:href="#r"/>
</g>
</g>
<path d="m1191.6 724.98 1.7948 5.2901q0.77107 2.2728 3.0438 1.5017l7.332-2.4875q2.2728-0.77107 1.5017-3.0438l-1.7948-5.2901q-0.77107-2.2728-3.0438-1.5017l-7.332 2.4875q-2.2728 0.77107-1.5017 3.0438z" clip-path="url(#a)" fill="#fff" stroke="#fff"/>
<g clip-path="url(#a)">
<g transform="translate(1195.5 723.67) rotate(71.26) scale(.08 -.08)">
<use xlink:href="#t"/>
</g>
</g>
<path d="m1012.7 798.11 2.1883-4.5568q1.0389-2.1635-1.1245-3.2024l-6.9794-3.3517q-2.1635-1.0389-3.2024 1.1245l-2.1883 4.5568q-1.0389 2.1635 1.1245 3.2024l6.9794 3.3517q2.1635 1.0389 3.2024-1.1245z" clip-path="url(#a)" fill="#fff" stroke="#fff"/>
<g clip-path="url(#a)">
<g transform="translate(1009.1 796.35) rotate(-64.349) scale(.08 -.08)">
<use xlink:href="#r"/>
</g>
</g>
<path d="m1046.3 795.94 0.030484-5.5862q0.013097-2.4-2.3869-2.4131l-7.7424-0.042251q-2.4-0.013097-2.4131 2.3869l-0.030484 5.5862q-0.013097 2.4 2.3869 2.4131l7.7424 0.042251q2.4 0.013097 2.4131-2.3869z" clip-path="url(#a)" fill="#fff" stroke="#fff"/>
<g clip-path="url(#a)">
<g transform="translate(1042.2 795.92) rotate(-89.687) scale(.08 -.08)">
<use xlink:href="#t"/>
</g>
</g>
<path d="m1066.2 793.35 2.4285 5.0002q1.0485 2.1588 3.2074 1.1103l6.9645-3.3825q2.1588-1.0485 1.1103-3.2074l-2.4285-5.0002q-1.0485-2.1588-3.2074-1.1103l-6.9645 3.3825q-2.1588 1.0485-1.1103 3.2074z" clip-path="url(#a)" fill="#fff" stroke="#fff"/>
<g clip-path="url(#a)">
<defs>
<path id="ag" d="m44.391 34.188q3.1719-1.0781 6.1719-4.5938t6.0312-9.6719l10.016-19.922h-10.609l-9.3125 18.703q-3.625 7.3281-7.0156 9.7188t-9.25 2.3906h-10.75v-30.812h-9.8594v72.906h22.266q12.5 0 18.656-5.2344 6.1562-5.2188 6.1562-15.766 0-6.8906-3.2031-11.438-3.2031-4.5312-9.2969-6.2812zm-24.719 30.609v-25.875h12.406q7.125 0 10.766 3.2969t3.6406 9.6875-3.6406 9.6406-10.766 3.25z"/>
</defs>
<g transform="translate(1069.8 791.58) rotate(64.095) scale(.08 -.08)">
<use xlink:href="#ag"/>
</g>
</g>
<path d="m1167.5 909.59v33.808q0 2.4 2.4 2.4h7.7425q2.4 0 2.4-2.4v-33.808q0-2.4-2.4-2.4h-7.7425q-2.4 0-2.4 2.4z" clip-path="url(#a)" fill="#fff" stroke="#fff"/>
<g clip-path="url(#a)">
<g transform="translate(1171.6 909.59) rotate(90) scale(.08 -.08)">
<use xlink:href="#l"/>
<use x="44.083984" xlink:href="#c"/>
<use x="105.607422" xlink:href="#k"/>
<use x="144.970703" xlink:href="#j"/>
<use x="242.382812" xlink:href="#i"/>
<use x="270.166016" xlink:href="#h"/>
<use x="333.544922" xlink:href="#f"/>
<use x="394.824219" xlink:href="#e"/>
</g>
</g>
<path d="m1237.9 909.59v33.808q0 2.4 2.4 2.4h7.7425q2.4 0 2.4-2.4v-33.808q0-2.4-2.4-2.4h-7.7425q-2.4 0-2.4 2.4z" clip-path="url(#a)" fill="#fff" stroke="#fff"/>
<g clip-path="url(#a)">
<g transform="translate(1241.9 909.59) rotate(90) scale(.08 -.08)">
<use xlink:href="#l"/>
<use x="44.083984" xlink:href="#c"/>
<use x="105.607422" xlink:href="#k"/>
<use x="144.970703" xlink:href="#j"/>
<use x="242.382812" xlink:href="#i"/>
<use x="270.166016" xlink:href="#h"/>
<use x="333.544922" xlink:href="#f"/>
<use x="394.824219" xlink:href="#e"/>
</g>
</g>
<path d="m969.64 909.59v33.808q0 2.4 2.4 2.4h7.7425q2.4 0 2.4-2.4v-33.808q0-2.4-2.4-2.4h-7.7425q-2.4 0-2.4 2.4z" clip-path="url(#a)" fill="#fff" stroke="#fff"/>
<g clip-path="url(#a)">
<g transform="translate(973.7 909.59) rotate(90) scale(.08 -.08)">
<use xlink:href="#l"/>
<use x="44.083984" xlink:href="#c"/>
<use x="105.607422" xlink:href="#k"/>
<use x="144.970703" xlink:href="#j"/>
<use x="242.382812" xlink:href="#i"/>
<use x="270.166016" xlink:href="#h"/>
<use x="333.544922" xlink:href="#f"/>
<use x="394.824219" xlink:href="#e"/>
</g>
</g>
<path d="m1033.4 909.59v33.808q0 2.4 2.4 2.4h7.7425q2.4 0 2.4-2.4v-33.808q0-2.4-2.4-2.4h-7.7425q-2.4 0-2.4 2.4z" clip-path="url(#a)" fill="#fff" stroke="#fff"/>
<g clip-path="url(#a)">
<g transform="translate(1037.5 909.59) rotate(90) scale(.08 -.08)">
<use xlink:href="#l"/>
<use x="44.083984" xlink:href="#c"/>
<use x="105.607422" xlink:href="#k"/>
<use x="144.970703" xlink:href="#j"/>
<use x="242.382812" xlink:href="#i"/>
<use x="270.166016" xlink:href="#h"/>
<use x="333.544922" xlink:href="#f"/>
<use x="394.824219" xlink:href="#e"/>
</g>
</g>
<path d="m1099.4 909.59v33.808q0 2.4 2.4 2.4h7.7425q2.4 0 2.4-2.4v-33.808q0-2.4-2.4-2.4h-7.7425q-2.4 0-2.4 2.4z" clip-path="url(#a)" fill="#fff" stroke="#fff"/>
<g clip-path="url(#a)">
<g transform="translate(1103.4 909.59) rotate(90) scale(.08 -.08)">
<use xlink:href="#l"/>
<use x="44.083984" xlink:href="#c"/>
<use x="105.607422" xlink:href="#k"/>
<use x="144.970703" xlink:href="#j"/>
<use x="242.382812" xlink:href="#i"/>
<use x="270.166016" xlink:href="#h"/>
<use x="333.544922" xlink:href="#f"/>
<use x="394.824219" xlink:href="#e"/>
</g>
</g>
<path d="m98.938 909.59v33.808q0 2.4 2.4 2.4h7.7425q2.4 0 2.4-2.4v-33.808q0-2.4-2.4-2.4h-7.7425q-2.4 0-2.4 2.4z" clip-path="url(#a)" fill="#fff" stroke="#fff"/>
<g clip-path="url(#a)">
<g transform="translate(103 909.59) rotate(90) scale(.08 -.08)">
<use xlink:href="#l"/>
<use x="44.083984" xlink:href="#c"/>
<use x="105.607422" xlink:href="#k"/>
<use x="144.970703" xlink:href="#j"/>
<use x="242.382812" xlink:href="#i"/>
<use x="270.166016" xlink:href="#h"/>
<use x="333.544922" xlink:href="#f"/>
<use x="394.824219" xlink:href="#e"/>
</g>
</g>
<path d="m130.93 791.07 0.59375 5.4402q0.26039 2.3858 2.6462 2.1254l7.6968-0.84004q2.3858-0.26039 2.1254-2.6462l-0.59375-5.4402q-0.26039-2.3858-2.6462-2.1254l-7.6968 0.84004q-2.3858 0.26039-2.1254 2.6462z" clip-path="url(#a)" fill="#fff" stroke="#fff"/>
<g clip-path="url(#a)">
<g transform="translate(134.97 790.63) rotate(83.771) scale(.08 -.08)">
<use xlink:href="#w"/>
</g>
</g>
<path d="m129.09 796.82 0.63529-6.1272q0.24752-2.3872-2.1397-2.6347l-7.7012-0.7985q-2.3872-0.24752-2.6347 2.1397l-0.63529 6.1272q-0.24752 2.3872 2.1397 2.6347l7.7012 0.7985q2.3872 0.24752 2.6347-2.1397z" clip-path="url(#a)" fill="#fff" stroke="#fff"/>
<g clip-path="url(#a)">
<g transform="translate(125.04 796.4) rotate(-84.08) scale(.08 -.08)">
<use xlink:href="#aq"/>
</g>
</g>
<path d="m136.02 795.69 0.027715-5.0787q0.013097-2.4-2.3869-2.4131l-7.7424-0.042251q-2.4-0.013097-2.4131 2.3869l-0.027715 5.0787q-0.013097 2.4 2.3869 2.4131l7.7424 0.042251q2.4 0.013097 2.4131-2.3869z" clip-path="url(#a)" fill="#fff" stroke="#fff"/>
<g clip-path="url(#a)">
<g transform="translate(131.96 795.66) rotate(-89.687) scale(.08 -.08)">
<use xlink:href="#am"/>
</g>
</g>
<path d="m138.52 909.59v33.808q0 2.4 2.4 2.4h7.7425q2.4 0 2.4-2.4v-33.808q0-2.4-2.4-2.4h-7.7425q-2.4 0-2.4 2.4z" clip-path="url(#a)" fill="#fff" stroke="#fff"/>
<g clip-path="url(#a)">
<g transform="translate(142.58 909.59) rotate(90) scale(.08 -.08)">
<use xlink:href="#l"/>
<use x="44.083984" xlink:href="#c"/>
<use x="105.607422" xlink:href="#k"/>
<use x="144.970703" xlink:href="#j"/>
<use x="242.382812" xlink:href="#i"/>
<use x="270.166016" xlink:href="#h"/>
<use x="333.544922" xlink:href="#f"/>
<use x="394.824219" xlink:href="#e"/>
</g>
</g>
<path d="m191.01 661.79 1.0767-5.3655q0.47221-2.3531-1.8809-2.8253l-7.5912-1.5234q-2.3531-0.47221-2.8253 1.8809l-1.0767 5.3655q-0.47221 2.3531 1.8809 2.8253l7.5912 1.5234q2.3531 0.47221 2.8253-1.8809z" clip-path="url(#a)" fill="#fff" stroke="#fff"/>
<g clip-path="url(#a)">
<g transform="translate(187.03 660.99) rotate(-78.653) scale(.08 -.08)">
<use xlink:href="#w"/>
</g>
</g>
<path d="m215.61 661.15 0.44976-5.5405q0.19418-2.3921-2.1979-2.5863l-7.7171-0.62645q-2.3921-0.19418-2.5863 2.1979l-0.44976 5.5405q-0.19418 2.3921 2.1979 2.5863l7.7171 0.62645q2.3921 0.19418 2.5863-2.1979z" clip-path="url(#a)" fill="#fff" stroke="#fff"/>
<g clip-path="url(#a)">
<g transform="translate(211.56 660.82) rotate(-85.359) scale(.08 -.08)">
<use xlink:href="#ag"/>
</g>
</g>
<path d="m220.89 655.5 0.027657 4.8237q0.013761 2.4 2.4137 2.3862l7.7424-0.044392q2.4-0.01376 2.3862-2.4137l-0.027657-4.8237q-0.01376-2.4-2.4137-2.3862l-7.7424 0.044393q-2.4 0.01376-2.3862 2.4137z" clip-path="url(#a)" fill="#fff" stroke="#fff"/>
<g clip-path="url(#a)">
<g transform="translate(224.96 655.47) rotate(89.671) scale(.08 -.08)">
<use xlink:href="#an"/>
</g>
</g>
<path d="m275.32 525.1 3.4827 4.2212q1.5274 1.8512 3.3786 0.32387l5.9722-4.9274q1.8512-1.5274 0.32387-3.3786l-3.4827-4.2212q-1.5274-1.8512-3.3786-0.32387l-5.9722 4.9274q-1.8512 1.5274-0.32387 3.3786z" clip-path="url(#a)" fill="#fff" stroke="#fff"/>
<g clip-path="url(#a)">
<g transform="translate(278.46 522.51) rotate(50.476) scale(.08 -.08)">
<use xlink:href="#w"/>
</g>
</g>
<path d="m517.83 663.74 2.4742-5.0085q1.063-2.1518-1.0888-3.2147l-6.9417-3.4292q-2.1518-1.063-3.2147 1.0888l-2.4742 5.0085q-1.063 2.1518 1.0888 3.2147l6.9417 3.4292q2.1518 1.063 3.2147-1.0888z" clip-path="url(#a)" fill="#fff" stroke="#fff"/>
<g clip-path="url(#a)">
<g transform="translate(514.18 661.94) rotate(-63.711) scale(.08 -.08)">
<use xlink:href="#t"/>
</g>
</g>
<path d="m552.12 728.64 0.040718-5.9849q0.016328-2.3999-2.3836-2.4163l-7.7423-0.052675q-2.3999-0.016328-2.4163 2.3836l-0.040718 5.9849q-0.016328 2.3999 2.3836 2.4163l7.7423 0.052675q2.3999 0.016328 2.4163-2.3836z" clip-path="url(#a)" fill="#fff" stroke="#fff"/>
<g clip-path="url(#a)">
<defs>
<path id="av" d="m9.8125 72.906h13.281l32.328-60.984v60.984h9.5625v-72.906h-13.281l-32.312 60.984v-60.984h-9.5781z"/>
</defs>
<g transform="translate(548.06 728.62) rotate(-89.61) scale(.08 -.08)">
<use xlink:href="#av"/>
</g>
</g>
<path d="m574.2 658.8 2.5284 4.9813q1.0863 2.1401 3.2264 1.0538l6.9041-3.5043q2.1401-1.0863 1.0538-3.2264l-2.5284-4.9813q-1.0863-2.1401-3.2264-1.0538l-6.9041 3.5043q-2.1401 1.0863-1.0538 3.2264z" clip-path="url(#a)" fill="#fff" stroke="#fff"/>
<g clip-path="url(#a)">
<g transform="translate(577.82 656.96) rotate(63.089) scale(.08 -.08)">
<use xlink:href="#t"/>
</g>
</g>
<path d="m475.46 796.57 0.77685-4.995q0.36883-2.3715-2.0027-2.7403l-7.6505-1.1899q-2.3715-0.36883-2.7403 2.0027l-0.77685 4.995q-0.36883 2.3715 2.0027 2.7403l7.6505 1.1899q2.3715 0.36883 2.7403-2.0027z" clip-path="url(#a)" fill="#fff" stroke="#fff"/>
<g clip-path="url(#a)">
<g transform="translate(471.44 795.95) rotate(-81.16) scale(.08 -.08)">
<use xlink:href="#r"/>
</g>
</g>
<path d="m483.91 791.32 0.85849 5.5199q0.36883 2.3715 2.7403 2.0027l7.6505-1.1899q2.3715-0.36883 2.0027-2.7403l-0.85849-5.5199q-0.36883-2.3715-2.7403-2.0027l-7.6505 1.1899q-2.3715 0.36883-2.0027 2.7403z" clip-path="url(#a)" fill="#fff" stroke="#fff"/>
<g clip-path="url(#a)">
<g transform="translate(487.93 790.69) rotate(81.16) scale(.08 -.08)">
<use xlink:href="#t"/>
</g>
</g>
<path d="m538.68 909.59v33.808q0 2.4 2.4 2.4h7.7425q2.4 0 2.4-2.4v-33.808q0-2.4-2.4-2.4h-7.7425q-2.4 0-2.4 2.4z" clip-path="url(#a)" fill="#fff" stroke="#fff"/>
<g clip-path="url(#a)">
<g transform="translate(542.75 909.59) rotate(90) scale(.08 -.08)">
<use xlink:href="#l"/>
<use x="44.083984" xlink:href="#c"/>
<use x="105.607422" xlink:href="#k"/>
<use x="144.970703" xlink:href="#j"/>
<use x="242.382812" xlink:href="#i"/>
<use x="270.166016" xlink:href="#h"/>
<use x="333.544922" xlink:href="#f"/>
<use x="394.824219" xlink:href="#e"/>
</g>
</g>
<path d="m608.95 796.71 0.89591-4.975q0.42536-2.362-1.9366-2.7874l-7.6199-1.3722q-2.362-0.42536-2.7874 1.9366l-0.89591 4.975q-0.42536 2.362 1.9366 2.7874l7.6199 1.3722q2.362 0.42536 2.7874-1.9366z" clip-path="url(#a)" fill="#fff" stroke="#fff"/>
<g clip-path="url(#a)">
<g transform="translate(604.95 795.99) rotate(-79.791) scale(.08 -.08)">
<use xlink:href="#r"/>
</g>
</g>
<path d="m620.74 791.48 0.99006 5.4978q0.42536 2.362 2.7874 1.9366l7.6199-1.3722q2.362-0.42536 1.9366-2.7874l-0.99006-5.4978q-0.42536-2.362-2.7874-1.9366l-7.6199 1.3722q-2.362 0.42536-1.9366 2.7874z" clip-path="url(#a)" fill="#fff" stroke="#fff"/>
<g clip-path="url(#a)">
<g transform="translate(624.74 790.76) rotate(79.791) scale(.08 -.08)">
<use xlink:href="#t"/>
</g>
</g>
<path d="m584.86 909.59v33.808q0 2.4 2.4 2.4h7.7425q2.4 0 2.4-2.4v-33.808q0-2.4-2.4-2.4h-7.7425q-2.4 0-2.4 2.4z" clip-path="url(#a)" fill="#fff" stroke="#fff"/>
<g clip-path="url(#a)">
<g transform="translate(588.92 909.59) rotate(90) scale(.08 -.08)">
<use xlink:href="#l"/>
<use x="44.083984" xlink:href="#c"/>
<use x="105.607422" xlink:href="#k"/>
<use x="144.970703" xlink:href="#j"/>
<use x="242.382812" xlink:href="#i"/>
<use x="270.166016" xlink:href="#h"/>
<use x="333.544922" xlink:href="#f"/>
<use x="394.824219" xlink:href="#e"/>
</g>
</g>
<path d="m633.23 909.59v33.808q0 2.4 2.4 2.4h7.7425q2.4 0 2.4-2.4v-33.808q0-2.4-2.4-2.4h-7.7425q-2.4 0-2.4 2.4z" clip-path="url(#a)" fill="#fff" stroke="#fff"/>
<g clip-path="url(#a)">
<g transform="translate(637.29 909.59) rotate(90) scale(.08 -.08)">
<use xlink:href="#l"/>
<use x="44.083984" xlink:href="#c"/>
<use x="105.607422" xlink:href="#k"/>
<use x="144.970703" xlink:href="#j"/>
<use x="242.382812" xlink:href="#i"/>
<use x="270.166016" xlink:href="#h"/>
<use x="333.544922" xlink:href="#f"/>
<use x="394.824219" xlink:href="#e"/>
</g>
</g>
<path d="m452.93 909.59v33.808q0 2.4 2.4 2.4h7.7425q2.4 0 2.4-2.4v-33.808q0-2.4-2.4-2.4h-7.7425q-2.4 0-2.4 2.4z" clip-path="url(#a)" fill="#fff" stroke="#fff"/>
<g clip-path="url(#a)">
<g transform="translate(457 909.59) rotate(90) scale(.08 -.08)">
<use xlink:href="#l"/>
<use x="44.083984" xlink:href="#c"/>
<use x="105.607422" xlink:href="#k"/>
<use x="144.970703" xlink:href="#j"/>
<use x="242.382812" xlink:href="#i"/>
<use x="270.166016" xlink:href="#h"/>
<use x="333.544922" xlink:href="#f"/>
<use x="394.824219" xlink:href="#e"/>
</g>
</g>
<path d="m494.71 909.59v33.808q0 2.4 2.4 2.4h7.7425q2.4 0 2.4-2.4v-33.808q0-2.4-2.4-2.4h-7.7425q-2.4 0-2.4 2.4z" clip-path="url(#a)" fill="#fff" stroke="#fff"/>
<g clip-path="url(#a)">
<g transform="translate(498.77 909.59) rotate(90) scale(.08 -.08)">
<use xlink:href="#l"/>
<use x="44.083984" xlink:href="#c"/>
<use x="105.607422" xlink:href="#k"/>
<use x="144.970703" xlink:href="#j"/>
<use x="242.382812" xlink:href="#i"/>
<use x="270.166016" xlink:href="#h"/>
<use x="333.544922" xlink:href="#f"/>
<use x="394.824219" xlink:href="#e"/>
</g>
</g>
<path d="m192.51 943.86 2.7962-33.692q0.1985-2.3918-2.1933-2.5903l-7.716-0.64038q-2.3918-0.1985-2.5903 2.1933l-2.7962 33.692q-0.1985 2.3918 2.1933 2.5903l7.716 0.64038q2.3918 0.1985 2.5903-2.1933z" clip-path="url(#a)" fill="#fff" stroke="#fff"/>
<g clip-path="url(#a)">
<g transform="translate(188.46 943.52) rotate(-85.256) scale(.08 -.08)">
<use xlink:href="#l"/>
<use x="44.083984" xlink:href="#c"/>
<use x="105.607422" xlink:href="#k"/>
<use x="144.970703" xlink:href="#j"/>
<use x="242.382812" xlink:href="#i"/>
<use x="270.166016" xlink:href="#h"/>
<use x="333.544922" xlink:href="#f"/>
<use x="394.824219" xlink:href="#e"/>
</g>
</g>
<path d="m191.01 910.17 2.7962 33.692q0.1985 2.3918 2.5903 2.1933l7.716-0.64038q2.3918-0.1985 2.1933-2.5903l-2.7962-33.692q-0.1985-2.3918-2.5903-2.1933l-7.716 0.64038q-2.3918 0.1985-2.1933 2.5903z" clip-path="url(#a)" fill="#fff" stroke="#fff"/>
<g clip-path="url(#a)">
<g transform="translate(195.06 909.83) rotate(85.256) scale(.08 -.08)">
<use xlink:href="#l"/>
<use x="44.083984" xlink:href="#c"/>
<use x="105.607422" xlink:href="#k"/>
<use x="144.970703" xlink:href="#j"/>
<use x="242.382812" xlink:href="#i"/>
<use x="270.166016" xlink:href="#h"/>
<use x="333.544922" xlink:href="#f"/>
<use x="394.824219" xlink:href="#e"/>
</g>
</g>
<path d="m222.07 909.59v33.808q0 2.4 2.4 2.4h7.7425q2.4 0 2.4-2.4v-33.808q0-2.4-2.4-2.4h-7.7425q-2.4 0-2.4 2.4z" clip-path="url(#a)" fill="#fff" stroke="#fff"/>
<g clip-path="url(#a)">
<g transform="translate(226.13 909.59) rotate(90) scale(.08 -.08)">
<use xlink:href="#l"/>
<use x="44.083984" xlink:href="#c"/>
<use x="105.607422" xlink:href="#k"/>
<use x="144.970703" xlink:href="#j"/>
<use x="242.382812" xlink:href="#i"/>
<use x="270.166016" xlink:href="#h"/>
<use x="333.544922" xlink:href="#f"/>
<use x="394.824219" xlink:href="#e"/>
</g>
</g>
<path d="m315.8 663.12 1.8697-4.6965q0.88768-2.2298-1.3421-3.1175l-7.1934-2.8637q-2.2298-0.88768-3.1175 1.3421l-1.8697 4.6965q-0.88768 2.2298 1.3421 3.1175l7.1934 2.8637q2.2298 0.88768 3.1175-1.3421z" clip-path="url(#a)" fill="#fff" stroke="#fff"/>
<g clip-path="url(#a)">
<g transform="translate(312.03 661.62) rotate(-68.293) scale(.08 -.08)">
<use xlink:href="#r"/>
</g>
</g>
<path d="m336.06 723.03 0.19245 5.5829q0.082682 2.3986 2.4813 2.3159l7.7379-0.26673q2.3986-0.082682 2.3159-2.4813l-0.19245-5.5829q-0.082682-2.3986-2.4813-2.3159l-7.7379 0.26673q-2.3986 0.082682-2.3159 2.4813z" clip-path="url(#a)" fill="#fff" stroke="#fff"/>
<g clip-path="url(#a)">
<g transform="translate(340.13 722.89) rotate(88.026) scale(.08 -.08)">
<use xlink:href="#t"/>
</g>
</g>
<path d="m353.42 724.14 0.82342 4.9875q0.39094 2.3679 2.7589 1.977l7.6391-1.2612q2.3679-0.39094 1.977-2.7589l-0.82342-4.9875q-0.39094-2.3679-2.7589-1.977l-7.6391 1.2612q-2.3679 0.39094-1.977 2.7589z" clip-path="url(#a)" fill="#fff" stroke="#fff"/>
<g clip-path="url(#a)">
<g transform="translate(357.43 723.47) rotate(80.625) scale(.08 -.08)">
<use xlink:href="#r"/>
</g>
</g>
<path d="m274.97 796.92 1.078-4.9387q0.51183-2.3448-1.833-2.8566l-7.5644-1.6512q-2.3448-0.51183-2.8566 1.833l-1.078 4.9387q-0.51183 2.3448 1.833 2.8566l7.5644 1.6512q2.3448 0.51183 2.8566-1.833z" clip-path="url(#a)" fill="#fff" stroke="#fff"/>
<g clip-path="url(#a)">
<g transform="translate(271 796.05) rotate(-77.686) scale(.08 -.08)">
<use xlink:href="#r"/>
</g>
</g>
<path d="m289.93 795.94 0.030484-5.5862q0.013097-2.4-2.3869-2.4131l-7.7424-0.042251q-2.4-0.013097-2.4131 2.3869l-0.030485 5.5862q-0.013096 2.4 2.3869 2.4131l7.7424 0.042251q2.4 0.013097 2.4131-2.3869z" clip-path="url(#a)" fill="#fff" stroke="#fff"/>
<g clip-path="url(#a)">
<g transform="translate(285.87 795.92) rotate(-89.687) scale(.08 -.08)">
<use xlink:href="#t"/>
</g>
</g>
<path d="m292.34 791.77 1.2137 5.4246q0.52402 2.3421 2.8661 1.8181l7.5557-1.6905q2.3421-0.52402 1.8181-2.8661l-1.2137-5.4246q-0.52402-2.3421-2.8661-1.8181l-7.5557 1.6905q-2.3421 0.52402-1.8181 2.8661z" clip-path="url(#a)" fill="#fff" stroke="#fff"/>
<g clip-path="url(#a)">
<g transform="translate(296.3 790.88) rotate(77.388) scale(.08 -.08)">
<use xlink:href="#ag"/>
</g>
</g>
<path d="m340.8 909.59v33.808q0 2.4 2.4 2.4h7.7425q2.4 0 2.4-2.4v-33.808q0-2.4-2.4-2.4h-7.7425q-2.4 0-2.4 2.4z" clip-path="url(#a)" fill="#fff" stroke="#fff"/>
<g clip-path="url(#a)">
<g transform="translate(344.86 909.59) rotate(90) scale(.08 -.08)">
<use xlink:href="#l"/>
<use x="44.083984" xlink:href="#c"/>
<use x="105.607422" xlink:href="#k"/>
<use x="144.970703" xlink:href="#j"/>
<use x="242.382812" xlink:href="#i"/>
<use x="270.166016" xlink:href="#h"/>
<use x="333.544922" xlink:href="#f"/>
<use x="394.824219" xlink:href="#e"/>
</g>
</g>
<path d="m375.98 909.59v33.808q0 2.4 2.4 2.4h7.7425q2.4 0 2.4-2.4v-33.808q0-2.4-2.4-2.4h-7.7425q-2.4 0-2.4 2.4z" clip-path="url(#a)" fill="#fff" stroke="#fff"/>
<g clip-path="url(#a)">
<g transform="translate(380.04 909.59) rotate(90) scale(.08 -.08)">
<use xlink:href="#l"/>
<use x="44.083984" xlink:href="#c"/>
<use x="105.607422" xlink:href="#k"/>
<use x="144.970703" xlink:href="#j"/>
<use x="242.382812" xlink:href="#i"/>
<use x="270.166016" xlink:href="#h"/>
<use x="333.544922" xlink:href="#f"/>
<use x="394.824219" xlink:href="#e"/>
</g>
</g>
<path d="m248.45 909.59v33.808q0 2.4 2.4 2.4h7.7425q2.4 0 2.4-2.4v-33.808q0-2.4-2.4-2.4h-7.7425q-2.4 0-2.4 2.4z" clip-path="url(#a)" fill="#fff" stroke="#fff"/>
<g clip-path="url(#a)">
<g transform="translate(252.52 909.59) rotate(90) scale(.08 -.08)">
<use xlink:href="#l"/>
<use x="44.083984" xlink:href="#c"/>
<use x="105.607422" xlink:href="#k"/>
<use x="144.970703" xlink:href="#j"/>
<use x="242.382812" xlink:href="#i"/>
<use x="270.166016" xlink:href="#h"/>
<use x="333.544922" xlink:href="#f"/>
<use x="394.824219" xlink:href="#e"/>
</g>
</g>
<path d="m277.04 909.59v33.808q0 2.4 2.4 2.4h7.7425q2.4 0 2.4-2.4v-33.808q0-2.4-2.4-2.4h-7.7425q-2.4 0-2.4 2.4z" clip-path="url(#a)" fill="#fff" stroke="#fff"/>
<g clip-path="url(#a)">
<g transform="translate(281.1 909.59) rotate(90) scale(.08 -.08)">
<use xlink:href="#l"/>
<use x="44.083984" xlink:href="#c"/>
<use x="105.607422" xlink:href="#k"/>
<use x="144.970703" xlink:href="#j"/>
<use x="242.382812" xlink:href="#i"/>
<use x="270.166016" xlink:href="#h"/>
<use x="333.544922" xlink:href="#f"/>
<use x="394.824219" xlink:href="#e"/>
</g>
</g>
<path d="m307.82 909.59v33.808q0 2.4 2.4 2.4h7.7425q2.4 0 2.4-2.4v-33.808q0-2.4-2.4-2.4h-7.7425q-2.4 0-2.4 2.4z" clip-path="url(#a)" fill="#fff" stroke="#fff"/>
<g clip-path="url(#a)">
<g transform="translate(311.88 909.59) rotate(90) scale(.08 -.08)">
<use xlink:href="#l"/>
<use x="44.083984" xlink:href="#c"/>
<use x="105.607422" xlink:href="#k"/>
<use x="144.970703" xlink:href="#j"/>
<use x="242.382812" xlink:href="#i"/>
<use x="270.166016" xlink:href="#h"/>
<use x="333.544922" xlink:href="#f"/>
<use x="394.824219" xlink:href="#e"/>
</g>
</g>
<path d="m109.93 909.59v33.808q0 2.4 2.4 2.4h7.7425q2.4 0 2.4-2.4v-33.808q0-2.4-2.4-2.4h-7.7425q-2.4 0-2.4 2.4z" clip-path="url(#a)" fill="#fff" stroke="#fff"/>
<g clip-path="url(#a)">
<g transform="translate(114 909.59) rotate(90) scale(.08 -.08)">
<use xlink:href="#l"/>
<use x="44.083984" xlink:href="#c"/>
<use x="105.607422" xlink:href="#k"/>
<use x="144.970703" xlink:href="#j"/>
<use x="242.382812" xlink:href="#i"/>
<use x="270.166016" xlink:href="#h"/>
<use x="333.544922" xlink:href="#f"/>
<use x="394.824219" xlink:href="#e"/>
</g>
</g>
<path d="m123.12 909.59v33.808q0 2.4 2.4 2.4h7.7425q2.4 0 2.4-2.4v-33.808q0-2.4-2.4-2.4h-7.7425q-2.4 0-2.4 2.4z" clip-path="url(#a)" fill="#fff" stroke="#fff"/>
<g clip-path="url(#a)">
<g transform="translate(127.19 909.59) rotate(90) scale(.08 -.08)">
<use xlink:href="#l"/>
<use x="44.083984" xlink:href="#c"/>
<use x="105.607422" xlink:href="#k"/>
<use x="144.970703" xlink:href="#j"/>
<use x="242.382812" xlink:href="#i"/>
<use x="270.166016" xlink:href="#h"/>
<use x="333.544922" xlink:href="#f"/>
<use x="394.824219" xlink:href="#e"/>
</g>
</g>
<path d="m90.143 909.59v33.808q0 2.4 2.4 2.4h7.7425q2.4 0 2.4-2.4v-33.808q0-2.4-2.4-2.4h-7.7425q-2.4 0-2.4 2.4z" clip-path="url(#a)" fill="#fff" stroke="#fff"/>
<g clip-path="url(#a)">
<g transform="translate(94.207 909.59) rotate(90) scale(.08 -.08)">
<use xlink:href="#l"/>
<use x="44.083984" xlink:href="#c"/>
<use x="105.607422" xlink:href="#k"/>
<use x="144.970703" xlink:href="#j"/>
<use x="242.382812" xlink:href="#i"/>
<use x="270.166016" xlink:href="#h"/>
<use x="333.544922" xlink:href="#f"/>
<use x="394.824219" xlink:href="#e"/>
</g>
</g>
<path d="m156.11 909.59v33.808q0 2.4 2.4 2.4h7.7425q2.4 0 2.4-2.4v-33.808q0-2.4-2.4-2.4h-7.7425q-2.4 0-2.4 2.4z" clip-path="url(#a)" fill="#fff" stroke="#fff"/>
<g clip-path="url(#a)">
<g transform="translate(160.17 909.59) rotate(90) scale(.08 -.08)">
<use xlink:href="#l"/>
<use x="44.083984" xlink:href="#c"/>
<use x="105.607422" xlink:href="#k"/>
<use x="144.970703" xlink:href="#j"/>
<use x="242.382812" xlink:href="#i"/>
<use x="270.166016" xlink:href="#h"/>
<use x="333.544922" xlink:href="#f"/>
<use x="394.824219" xlink:href="#e"/>
</g>
</g>
<path d="m413.36 909.59v33.808q0 2.4 2.4 2.4h7.7425q2.4 0 2.4-2.4v-33.808q0-2.4-2.4-2.4h-7.7425q-2.4 0-2.4 2.4z" clip-path="url(#a)" fill="#fff" stroke="#fff"/>
<g clip-path="url(#a)">
<g transform="translate(417.42 909.59) rotate(90) scale(.08 -.08)">
<use xlink:href="#l"/>
<use x="44.083984" xlink:href="#c"/>
<use x="105.607422" xlink:href="#k"/>
<use x="144.970703" xlink:href="#j"/>
<use x="242.382812" xlink:href="#i"/>
<use x="270.166016" xlink:href="#h"/>
<use x="333.544922" xlink:href="#f"/>
<use x="394.824219" xlink:href="#e"/>
</g>
</g>
<path d="m683.8 909.59v33.808q0 2.4 2.4 2.4h7.7425q2.4 0 2.4-2.4v-33.808q0-2.4-2.4-2.4h-7.7425q-2.4 0-2.4 2.4z" clip-path="url(#a)" fill="#fff" stroke="#fff"/>
<g clip-path="url(#a)">
<g transform="translate(687.86 909.59) rotate(90) scale(.08 -.08)">
<use xlink:href="#l"/>
<use x="44.083984" xlink:href="#c"/>
<use x="105.607422" xlink:href="#k"/>
<use x="144.970703" xlink:href="#j"/>
<use x="242.382812" xlink:href="#i"/>
<use x="270.166016" xlink:href="#h"/>
<use x="333.544922" xlink:href="#f"/>
<use x="394.824219" xlink:href="#e"/>
</g>
</g>
<path d="m1310.4 909.59v33.808q0 2.4 2.4 2.4h7.7425q2.4 0 2.4-2.4v-33.808q0-2.4-2.4-2.4h-7.7425q-2.4 0-2.4 2.4z" clip-path="url(#a)" fill="#fff" stroke="#fff"/>
<g clip-path="url(#a)">
<g transform="translate(1314.5 909.59) rotate(90) scale(.08 -.08)">
<use xlink:href="#l"/>
<use x="44.083984" xlink:href="#c"/>
<use x="105.607422" xlink:href="#k"/>
<use x="144.970703" xlink:href="#j"/>
<use x="242.382812" xlink:href="#i"/>
<use x="270.166016" xlink:href="#h"/>
<use x="333.544922" xlink:href="#f"/>
<use x="394.824219" xlink:href="#e"/>
</g>
</g>
<path d="m1385.2 909.59v33.808q0 2.4 2.4 2.4h7.7425q2.4 0 2.4-2.4v-33.808q0-2.4-2.4-2.4h-7.7425q-2.4 0-2.4 2.4z" clip-path="url(#a)" fill="#fff" stroke="#fff"/>
<g clip-path="url(#a)">
<g transform="translate(1389.3 909.59) rotate(90) scale(.08 -.08)">
<use xlink:href="#l"/>
<use x="44.083984" xlink:href="#c"/>
<use x="105.607422" xlink:href="#k"/>
<use x="144.970703" xlink:href="#j"/>
<use x="242.382812" xlink:href="#i"/>
<use x="270.166016" xlink:href="#h"/>
<use x="333.544922" xlink:href="#f"/>
<use x="394.824219" xlink:href="#e"/>
</g>
</g>
<path d="m1879.9 909.59v33.808q0 2.4 2.4 2.4h7.7425q2.4 0 2.4-2.4v-33.808q0-2.4-2.4-2.4h-7.7425q-2.4 0-2.4 2.4z" clip-path="url(#a)" fill="#fff" stroke="#fff"/>
<g clip-path="url(#a)">
<g transform="translate(1884 909.59) rotate(90) scale(.08 -.08)">
<use xlink:href="#l"/>
<use x="44.083984" xlink:href="#c"/>
<use x="105.607422" xlink:href="#k"/>
<use x="144.970703" xlink:href="#j"/>
<use x="242.382812" xlink:href="#i"/>
<use x="270.166016" xlink:href="#h"/>
<use x="333.544922" xlink:href="#f"/>
<use x="394.824219" xlink:href="#e"/>
</g>
</g>
<defs>
<path id="b" d="m0 8.6603c2.2967 0 4.4997-0.9125 6.1237-2.5365 1.624-1.624 2.5365-3.827 2.5365-6.1237s-0.9125-4.4997-2.5365-6.1237c-1.624-1.624-3.827-2.5365-6.1237-2.5365s-4.4997 0.9125-6.1237 2.5365c-1.624 1.624-2.5365 3.827-2.5365 6.1237s0.9125 4.4997 2.5365 6.1237c1.624 1.624 3.827 2.5365 6.1237 2.5365z"/>
</defs>
<g clip-path="url(#a)">
<use x="89.818182" y="992.727273" fill="#ffffff" stroke="#ffffff" xlink:href="#b"/>
</g>
<g clip-path="url(#a)">
<use x="96.414376" y="992.727273" fill="#ffffff" stroke="#ffffff" xlink:href="#b"/>
</g>
<g clip-path="url(#a)">
<use x="105.209302" y="992.727273" fill="#ffffff" stroke="#ffffff" xlink:href="#b"/>
</g>
<g clip-path="url(#a)">
<use x="116.20296" y="992.727273" fill="#ffffff" stroke="#ffffff" xlink:href="#b"/>
</g>
<g clip-path="url(#a)">
<use x="129.395349" y="992.727273" fill="#ffffff" stroke="#ffffff" xlink:href="#b"/>
</g>
<g clip-path="url(#a)">
<use x="144.786469" y="992.727273" fill="#ffffff" stroke="#ffffff" xlink:href="#b"/>
</g>
<g clip-path="url(#a)">
<use x="162.376321" y="992.727273" fill="#ffffff" stroke="#ffffff" xlink:href="#b"/>
</g>
<g clip-path="url(#a)">
<use x="182.164905" y="992.727273" fill="#ffffff" stroke="#ffffff" xlink:href="#b"/>
</g>
<g clip-path="url(#a)">
<use x="204.15222" y="992.727273" fill="#ffffff" stroke="#ffffff" xlink:href="#b"/>
</g>
<g clip-path="url(#a)">
<use x="228.338266" y="992.727273" fill="#ffffff" stroke="#ffffff" xlink:href="#b"/>
</g>
<g clip-path="url(#a)">
<use x="254.723044" y="992.727273" fill="#ffffff" stroke="#ffffff" xlink:href="#b"/>
</g>
<g clip-path="url(#a)">
<use x="283.306554" y="992.727273" fill="#ffffff" stroke="#ffffff" xlink:href="#b"/>
</g>
<g clip-path="url(#a)">
<use x="314.088795" y="992.727273" fill="#ffffff" stroke="#ffffff" xlink:href="#b"/>
</g>
<g clip-path="url(#a)">
<use x="347.069767" y="992.727273" fill="#ffffff" stroke="#ffffff" xlink:href="#b"/>
</g>
<g clip-path="url(#a)">
<use x="382.249471" y="992.727273" fill="#ffffff" stroke="#ffffff" xlink:href="#b"/>
</g>
<g clip-path="url(#a)">
<use x="419.627907" y="992.727273" fill="#ffffff" stroke="#ffffff" xlink:href="#b"/>
</g>
<g clip-path="url(#a)">
<use x="459.205074" y="992.727273" fill="#ffffff" stroke="#ffffff" xlink:href="#b"/>
</g>
<g clip-path="url(#a)">
<use x="500.980973" y="992.727273" fill="#ffffff" stroke="#ffffff" xlink:href="#b"/>
</g>
<g clip-path="url(#a)">
<use x="544.955603" y="992.727273" fill="#ffffff" stroke="#ffffff" xlink:href="#b"/>
</g>
<g clip-path="url(#a)">
<use x="591.128964" y="992.727273" fill="#ffffff" stroke="#ffffff" xlink:href="#b"/>
</g>
<g clip-path="url(#a)">
<use x="639.501057" y="992.727273" fill="#ffffff" stroke="#ffffff" xlink:href="#b"/>
</g>
<g clip-path="url(#a)">
<use x="690.071882" y="992.727273" fill="#ffffff" stroke="#ffffff" xlink:href="#b"/>
</g>
<g clip-path="url(#a)">
<use x="742.841438" y="992.727273" fill="#ffffff" stroke="#ffffff" xlink:href="#b"/>
</g>
<g clip-path="url(#a)">
<use x="797.809725" y="992.727273" fill="#ffffff" stroke="#ffffff" xlink:href="#b"/>
</g>
<g clip-path="url(#a)">
<use x="854.976744" y="992.727273" fill="#ffffff" stroke="#ffffff" xlink:href="#b"/>
</g>
<g clip-path="url(#a)">
<use x="914.342495" y="992.727273" fill="#ffffff" stroke="#ffffff" xlink:href="#b"/>
</g>
<g clip-path="url(#a)">
<use x="975.906977" y="992.727273" fill="#ffffff" stroke="#ffffff" xlink:href="#b"/>
</g>
<g clip-path="url(#a)">
<use x="1039.67019" y="992.727273" fill="#ffffff" stroke="#ffffff" xlink:href="#b"/>
</g>
<g clip-path="url(#a)">
<use x="1105.632135" y="992.727273" fill="#ffffff" stroke="#ffffff" xlink:href="#b"/>
</g>
<g clip-path="url(#a)">
<use x="1173.792812" y="992.727273" fill="#ffffff" stroke="#ffffff" xlink:href="#b"/>
</g>
<g clip-path="url(#a)">
<use x="1244.15222" y="992.727273" fill="#ffffff" stroke="#ffffff" xlink:href="#b"/>
</g>
<g clip-path="url(#a)">
<use x="1316.710359" y="992.727273" fill="#ffffff" stroke="#ffffff" xlink:href="#b"/>
</g>
<g clip-path="url(#a)">
<use x="1391.46723" y="992.727273" fill="#ffffff" stroke="#ffffff" xlink:href="#b"/>
</g>
<g clip-path="url(#a)">
<use x="1468.422833" y="992.727273" fill="#ffffff" stroke="#ffffff" xlink:href="#b"/>
</g>
<g clip-path="url(#a)">
<use x="1547.577167" y="992.727273" fill="#ffffff" stroke="#ffffff" xlink:href="#b"/>
</g>
<g clip-path="url(#a)">
<use x="1628.930233" y="992.727273" fill="#ffffff" stroke="#ffffff" xlink:href="#b"/>
</g>
<g clip-path="url(#a)">
<use x="1712.48203" y="992.727273" fill="#ffffff" stroke="#ffffff" xlink:href="#b"/>
</g>
<g clip-path="url(#a)">
<use x="1798.232558" y="992.727273" fill="#ffffff" stroke="#ffffff" xlink:href="#b"/>
</g>
<g clip-path="url(#a)">
<use x="1886.181818" y="992.727273" fill="#ffffff" stroke="#ffffff" xlink:href="#b"/>
</g>
<g clip-path="url(#a)">
<use x="990.055924" y="47.272727" fill="#ffffff" stroke="#ffffff" xlink:href="#b"/>
</g>
<g clip-path="url(#a)">
<use x="89.818182" y="860.265173" fill="#ffffff" stroke="#ffffff" xlink:href="#b"/>
</g>
<g clip-path="url(#a)">
<use x="771.524663" y="183.585921" fill="#ffffff" stroke="#ffffff" xlink:href="#b"/>
</g>
<g clip-path="url(#a)">
<use x="1508" y="860.265173" fill="#ffffff" stroke="#ffffff" xlink:href="#b"/>
</g>
<g clip-path="url(#a)">
<use x="1756.45666" y="725.960381" fill="#ffffff" stroke="#ffffff" xlink:href="#b"/>
</g>
<g clip-path="url(#a)">
<use x="1628.930233" y="860.265173" fill="#ffffff" stroke="#ffffff" xlink:href="#b"/>
</g>
<g clip-path="url(#a)">
<use x="1712.48203" y="860.265173" fill="#ffffff" stroke="#ffffff" xlink:href="#b"/>
</g>
<g clip-path="url(#a)">
<use x="1798.232558" y="860.265173" fill="#ffffff" stroke="#ffffff" xlink:href="#b"/>
</g>
<g clip-path="url(#a)">
<use x="247.847646" y="319.671059" fill="#ffffff" stroke="#ffffff" xlink:href="#b"/>
</g>
<g clip-path="url(#a)">
<use x="742.841438" y="860.265173" fill="#ffffff" stroke="#ffffff" xlink:href="#b"/>
</g>
<g clip-path="url(#a)">
<use x="797.809725" y="860.265173" fill="#ffffff" stroke="#ffffff" xlink:href="#b"/>
</g>
<g clip-path="url(#a)">
<use x="854.976744" y="860.265173" fill="#ffffff" stroke="#ffffff" xlink:href="#b"/>
</g>
<g clip-path="url(#a)">
<use x="914.342495" y="860.265173" fill="#ffffff" stroke="#ffffff" xlink:href="#b"/>
</g>
<g clip-path="url(#a)">
<use x="1152.782711" y="590.951171" fill="#ffffff" stroke="#ffffff" xlink:href="#b"/>
</g>
<g clip-path="url(#a)">
<use x="1040.403101" y="725.960381" fill="#ffffff" stroke="#ffffff" xlink:href="#b"/>
</g>
<g clip-path="url(#a)">
<use x="1173.792812" y="860.265173" fill="#ffffff" stroke="#ffffff" xlink:href="#b"/>
</g>
<g clip-path="url(#a)">
<use x="1244.15222" y="860.265173" fill="#ffffff" stroke="#ffffff" xlink:href="#b"/>
</g>
<g clip-path="url(#a)">
<use x="975.906977" y="860.265173" fill="#ffffff" stroke="#ffffff" xlink:href="#b"/>
</g>
<g clip-path="url(#a)">
<use x="1039.67019" y="860.265173" fill="#ffffff" stroke="#ffffff" xlink:href="#b"/>
</g>
<g clip-path="url(#a)">
<use x="1105.632135" y="860.265173" fill="#ffffff" stroke="#ffffff" xlink:href="#b"/>
</g>
<g clip-path="url(#a)">
<use x="105.209302" y="860.265173" fill="#ffffff" stroke="#ffffff" xlink:href="#b"/>
</g>
<g clip-path="url(#a)">
<use x="130.128259" y="725.960381" fill="#ffffff" stroke="#ffffff" xlink:href="#b"/>
</g>
<g clip-path="url(#a)">
<use x="144.786469" y="860.265173" fill="#ffffff" stroke="#ffffff" xlink:href="#b"/>
</g>
<g clip-path="url(#a)">
<use x="226.017383" y="455.482467" fill="#ffffff" stroke="#ffffff" xlink:href="#b"/>
</g>
<g clip-path="url(#a)">
<use x="546.787879" y="590.951171" fill="#ffffff" stroke="#ffffff" xlink:href="#b"/>
</g>
<g clip-path="url(#a)">
<use x="480.093023" y="725.960381" fill="#ffffff" stroke="#ffffff" xlink:href="#b"/>
</g>
<g clip-path="url(#a)">
<use x="544.955603" y="860.265173" fill="#ffffff" stroke="#ffffff" xlink:href="#b"/>
</g>
<g clip-path="url(#a)">
<use x="615.315011" y="725.960381" fill="#ffffff" stroke="#ffffff" xlink:href="#b"/>
</g>
<g clip-path="url(#a)">
<use x="591.128964" y="860.265173" fill="#ffffff" stroke="#ffffff" xlink:href="#b"/>
</g>
<g clip-path="url(#a)">
<use x="639.501057" y="860.265173" fill="#ffffff" stroke="#ffffff" xlink:href="#b"/>
</g>
<g clip-path="url(#a)">
<use x="459.205074" y="860.265173" fill="#ffffff" stroke="#ffffff" xlink:href="#b"/>
</g>
<g clip-path="url(#a)">
<use x="500.980973" y="860.265173" fill="#ffffff" stroke="#ffffff" xlink:href="#b"/>
</g>
<g clip-path="url(#a)">
<use x="193.158562" y="860.265173" fill="#ffffff" stroke="#ffffff" xlink:href="#b"/>
</g>
<g clip-path="url(#a)">
<use x="228.338266" y="860.265173" fill="#ffffff" stroke="#ffffff" xlink:href="#b"/>
</g>
<g clip-path="url(#a)">
<use x="337.786234" y="590.951171" fill="#ffffff" stroke="#ffffff" xlink:href="#b"/>
</g>
<g clip-path="url(#a)">
<use x="284.039464" y="725.960381" fill="#ffffff" stroke="#ffffff" xlink:href="#b"/>
</g>
<g clip-path="url(#a)">
<use x="347.069767" y="860.265173" fill="#ffffff" stroke="#ffffff" xlink:href="#b"/>
</g>
<g clip-path="url(#a)">
<use x="382.249471" y="860.265173" fill="#ffffff" stroke="#ffffff" xlink:href="#b"/>
</g>
<g clip-path="url(#a)">
<use x="254.723044" y="860.265173" fill="#ffffff" stroke="#ffffff" xlink:href="#b"/>
</g>
<g clip-path="url(#a)">
<use x="283.306554" y="860.265173" fill="#ffffff" stroke="#ffffff" xlink:href="#b"/>
</g>
<g clip-path="url(#a)">
<use x="314.088795" y="860.265173" fill="#ffffff" stroke="#ffffff" xlink:href="#b"/>
</g>
<g clip-path="url(#a)">
<use x="116.20296" y="860.265173" fill="#ffffff" stroke="#ffffff" xlink:href="#b"/>
</g>
<g clip-path="url(#a)">
<use x="129.395349" y="860.265173" fill="#ffffff" stroke="#ffffff" xlink:href="#b"/>
</g>
<g clip-path="url(#a)">
<use x="96.414376" y="860.265173" fill="#ffffff" stroke="#ffffff" xlink:href="#b"/>
</g>
<g clip-path="url(#a)">
<use x="162.376321" y="860.265173" fill="#ffffff" stroke="#ffffff" xlink:href="#b"/>
</g>
<g clip-path="url(#a)">
<use x="419.627907" y="860.265173" fill="#ffffff" stroke="#ffffff" xlink:href="#b"/>
</g>
<g clip-path="url(#a)">
<use x="690.071882" y="860.265173" fill="#ffffff" stroke="#ffffff" xlink:href="#b"/>
</g>
<g clip-path="url(#a)">
<use x="1316.710359" y="860.265173" fill="#ffffff" stroke="#ffffff" xlink:href="#b"/>
</g>
<g clip-path="url(#a)">
<use x="1391.46723" y="860.265173" fill="#ffffff" stroke="#ffffff" xlink:href="#b"/>
</g>
<g clip-path="url(#a)">
<use x="1886.181818" y="860.265173" fill="#ffffff" stroke="#ffffff" xlink:href="#b"/>
</g>
<g clip-path="url(#a)">
<defs>
<path id="au" d="m39.406 66.219q-10.75 0-17.078-8.0156-6.3125-8-6.3125-21.828 0-13.766 6.3125-21.781 6.3281-8 17.078-8 10.734 0 17.016 8 6.2812 8.0156 6.2812 21.781 0 13.828-6.2812 21.828-6.2812 8.0156-17.016 8.0156zm0 8q15.328 0 24.5-10.281 9.1875-10.281 9.1875-27.562 0-17.234-9.1875-27.516-9.1719-10.281-24.5-10.281-15.375 0-24.594 10.25-9.2031 10.266-9.2031 27.547t9.2031 27.562q9.2188 10.281 24.594 10.281z"/>
</defs>
<g transform="translate(83.827 995.49) scale(.1 -.1)">
<use xlink:href="#au"/>
<use x="78.710938" xlink:href="#k"/>
</g>
</g>
<g clip-path="url(#a)">
<defs>
<path id="aa" d="m11.719 12.406h10.297v-8.4062l-8-15.625h-6.2969l4 15.625z"/>
</defs>
<g transform="translate(94.825 995.49) scale(.1 -.1)">
<use xlink:href="#aa"/>
</g>
</g>
<g clip-path="url(#a)">
<defs>
<path id="m" d="m44.281 53.078v-8.5q-3.7969 1.9531-7.9062 2.9219-4.0938 0.98438-8.5 0.98438-6.6875 0-10.031-2.0469t-3.3438-6.1562q0-3.125 2.3906-4.9062t9.625-3.3906l3.0781-0.6875q9.5625-2.0469 13.594-5.7812t4.0312-10.422q0-7.625-6.0312-12.078-6.0312-4.4375-16.578-4.4375-4.3906 0-9.1562 0.85938t-10.031 2.5625v9.2812q4.9844-2.5938 9.8125-3.8906 4.8281-1.2812 9.5781-1.2812 6.3438 0 9.75 2.1719 3.4219 2.1719 3.4219 6.125 0 3.6562-2.4688 5.6094-2.4531 1.9531-10.812 3.7656l-3.125 0.73438q-8.3438 1.75-12.062 5.3906-3.7031 3.6406-3.7031 9.9844 0 7.7188 5.4688 11.906 5.4688 4.2031 15.531 4.2031 4.9688 0 9.3594-0.73438 4.4062-0.71875 8.1094-2.1875z"/>
</defs>
<g transform="translate(98.139 995.49) scale(.1 -.1)">
<use xlink:href="#e"/>
<use x="27.783203" xlink:href="#c"/>
<use x="89.306641" xlink:href="#m"/>
</g>
</g>
<g clip-path="url(#a)">
<defs>
<path id="aj" d="m18.109 8.2031v-29h-9.0312v75.484h9.0312v-8.2969q2.8438 4.875 7.1562 7.2344 4.3281 2.375 10.328 2.375 9.9688 0 16.188-7.9062 6.2344-7.9062 6.2344-20.797t-6.2344-20.812q-6.2188-7.9062-16.188-7.9062-6 0-10.328 2.375-4.3125 2.375-7.1562 7.25zm30.578 19.094q0 9.9062-4.0781 15.547t-11.203 5.6406q-7.1406 0-11.219-5.6406t-4.0781-15.547 4.0781-15.547 11.219-5.6406q7.125 0 11.203 5.6406t4.0781 15.547z"/>
<path id="u" d="m8.5 21.578v33.109h8.9844v-32.766q0-7.7656 3.0156-11.656 3.0312-3.875 9.0938-3.875 7.2656 0 11.484 4.6406 4.2344 4.6406 4.2344 12.656v31h8.9844v-54.688h-8.9844v8.4062q-3.2656-4.9844-7.5938-7.4062-4.3125-2.4219-10.031-2.4219-9.4219 0-14.312 5.8594-4.875 5.8594-4.875 17.141z"/>
</defs>
<g transform="translate(105.87 995.49) scale(.1 -.1)">
<use xlink:href="#aj"/>
<use x="63.476562" xlink:href="#e"/>
<use x="91.259766" xlink:href="#u"/>
<use x="154.638672" xlink:href="#m"/>
</g>
</g>
<g clip-path="url(#a)">
<defs>
<path id="bc" d="m2.9844 54.688h9.5156l17.094-45.891 17.094 45.891h9.5156l-20.516-54.688h-12.203z"/>
<path id="s" d="m18.312 70.219v-15.531h18.5v-6.9844h-18.5v-29.688q0-6.6875 1.8281-8.5938t7.4531-1.9062h9.2188v-7.5156h-9.2188q-10.406 0-14.359 3.875-3.9531 3.8906-3.9531 14.141v29.688h-6.5938v6.9844h6.5938v15.531z"/>
</defs>
<g transform="translate(113.13 995.49) scale(.1 -.1)">
<use xlink:href="#bc"/>
<use x="59.179688" xlink:href="#f"/>
<use x="120.458984" xlink:href="#m"/>
<use x="172.558594" xlink:href="#s"/>
<use x="211.767578" xlink:href="#c"/>
<use x="273.291016" xlink:href="#m"/>
</g>
</g>
<g clip-path="url(#a)">
<defs>
<path id="at" d="m48.688 27.297q0 9.9062-4.0781 15.547t-11.203 5.6406q-7.1406 0-11.219-5.6406t-4.0781-15.547 4.0781-15.547 11.219-5.6406q7.125 0 11.203 5.6406t4.0781 15.547zm-30.578 19.094q2.8438 4.875 7.1562 7.2344 4.3281 2.375 10.328 2.375 9.9688 0 16.188-7.9062 6.2344-7.9062 6.2344-20.797t-6.2344-20.812q-6.2188-7.9062-16.188-7.9062-6 0-10.328 2.375-4.3125 2.375-7.1562 7.25v-8.2031h-9.0312v75.984h9.0312z"/>
</defs>
<g transform="translate(123.84 995.49) scale(.1 -.1)">
<use xlink:href="#at"/>
<use x="63.476562" xlink:href="#f"/>
<use x="124.755859" xlink:href="#e"/>
<use x="152.539062" xlink:href="#c"/>
<use x="214.0625" xlink:href="#i"/>
<use x="241.845703" xlink:href="#h"/>
<use x="305.224609" xlink:href="#c"/>
<use x="366.748047" xlink:href="#m"/>
</g>
</g>
<g clip-path="url(#a)">
<g transform="translate(160.79 995.49) scale(.1 -.1)">
<use xlink:href="#aa"/>
</g>
</g>
<g clip-path="url(#a)">
<defs>
<path id="af" d="m48.781 52.594v-8.4062q-3.8125 2.1094-7.6406 3.1562t-7.7344 1.0469q-8.75 0-13.594-5.5469-4.8281-5.5312-4.8281-15.547t4.8281-15.562q4.8438-5.5312 13.594-5.5312 3.9062 0 7.7344 1.0469t7.6406 3.1562v-8.3125q-3.7656-1.75-7.7969-2.625-4.0156-0.89062-8.5625-0.89062-12.359 0-19.641 7.7656-7.2656 7.7656-7.2656 20.953 0 13.375 7.3438 21.031 7.3594 7.6719 20.156 7.6719 4.1406 0 8.0938-0.85938 3.9531-0.84375 7.6719-2.5469z"/>
</defs>
<g transform="translate(167.88 995.49) scale(.1 -.1)">
<use xlink:href="#af"/>
<use x="54.980469" xlink:href="#c"/>
<use x="116.503906" xlink:href="#e"/>
<use x="144.287109" xlink:href="#e"/>
<use x="172.070312" xlink:href="#c"/>
<use x="233.59375" xlink:href="#m"/>
</g>
</g>
<g clip-path="url(#a)">
<defs>
<path id="ai" d="m14.797 27.297q0-9.9062 4.0781-15.547t11.203-5.6406 11.219 5.6406q4.1094 5.6406 4.1094 15.547t-4.1094 15.547q-4.0938 5.6406-11.219 5.6406t-11.203-5.6406-4.0781-15.547zm30.609-19.094q-2.8281-4.875-7.1562-7.25-4.3125-2.375-10.375-2.375-9.9062 0-16.141 7.9062-6.2188 7.9219-6.2188 20.812t6.2188 20.797q6.2344 7.9062 16.141 7.9062 6.0625 0 10.375-2.375 4.3281-2.3594 7.1562-7.2344v8.2969h8.9844v-75.484h-8.9844z"/>
</defs>
<g transform="translate(196.42 995.49) scale(.1 -.1)">
<use xlink:href="#ai"/>
<use x="63.476562" xlink:href="#u"/>
<use x="126.855469" xlink:href="#i"/>
</g>
</g>
<g clip-path="url(#a)">
<defs>
<path id="be" d="m37.109 75.984v-7.4844h-8.5938q-4.8281 0-6.7188-1.9531-1.875-1.9531-1.875-7.0312v-4.8281h14.797v-6.9844h-14.797v-47.703h-9.0312v47.703h-8.5938v6.9844h8.5938v3.8125q0 9.125 4.25 13.297 4.25 4.1875 13.469 4.1875z"/>
<path id="ad" d="m56.203 29.594v-4.3906h-41.312q0.59375-9.2812 5.5938-14.141t13.938-4.8594q5.1719 0 10.031 1.2656t9.6562 3.8125v-8.5q-4.8438-2.0469-9.9219-3.125t-10.297-1.0781q-13.094 0-20.734 7.6094-7.6406 7.625-7.6406 20.625 0 13.422 7.25 21.297 7.25 7.8906 19.562 7.8906 11.031 0 17.453-7.1094 6.4219-7.0938 6.4219-19.297zm-8.9844 2.6406q-0.09375 7.3594-4.125 11.75-4.0312 4.4062-10.672 4.4062-7.5156 0-12.031-4.25t-5.2031-11.969zm-8.6875 47.75h9.7188l-15.906-18.359h-7.4844z"/>
</defs>
<g transform="translate(198.8 995.69) scale(.1 -.1)">
<use xlink:href="#be"/>
<use x="35.205078" xlink:href="#k"/>
<use x="74.068359" xlink:href="#ad"/>
<use x="135.591797" xlink:href="#ai"/>
<use x="199.068359" xlink:href="#u"/>
<use x="262.447266" xlink:href="#c"/>
<use x="323.970703" xlink:href="#h"/>
<use x="387.349609" xlink:href="#s"/>
<use x="426.558594" xlink:href="#c"/>
<use x="488.082031" xlink:href="#h"/>
<use x="551.460938" xlink:href="#s"/>
</g>
</g>
<g clip-path="url(#a)">
<g transform="translate(247.65 995.49) scale(.1 -.1)">
<use xlink:href="#e"/>
<use x="27.783203" xlink:href="#c"/>
<use x="89.306641" xlink:href="#m"/>
</g>
</g>
<g clip-path="url(#a)">
<defs>
<path id="ae" d="m45.406 27.984q0 9.7656-4.0312 15.125-4.0156 5.375-11.297 5.375-7.2188 0-11.25-5.375-4.0312-5.3594-4.0312-15.125 0-9.7188 4.0312-15.094t11.25-5.375q7.2812 0 11.297 5.375 4.0312 5.375 4.0312 15.094zm8.9844-21.203q0-13.953-6.2031-20.766-6.1875-6.8125-18.984-6.8125-4.7344 0-8.9375 0.70312t-8.1562 2.1719v8.7344q3.9531-2.1406 7.8125-3.1562 3.8594-1.0312 7.8594-1.0312 8.8438 0 13.234 4.6094t4.3906 13.938v4.4531q-2.7812-4.8438-7.125-7.2344t-10.406-2.3906q-10.047 0-16.203 7.6562-6.1562 7.6719-6.1562 20.328 0 12.688 6.1562 20.344 6.1562 7.6719 16.203 7.6719 6.0625 0 10.406-2.3906t7.125-7.2188v8.2969h8.9844z"/>
</defs>
<g transform="translate(263.09 995.49) scale(.1 -.1)">
<use xlink:href="#aj"/>
<use x="63.476562" xlink:href="#f"/>
<use x="124.755859" xlink:href="#k"/>
<use x="165.869141" xlink:href="#f"/>
<use x="227.148438" xlink:href="#ae"/>
<use x="290.625" xlink:href="#c"/>
<use x="352.148438" xlink:href="#m"/>
</g>
</g>
<g clip-path="url(#a)">
<defs>
<path id="al" d="m45.406 46.391v29.594h8.9844v-75.984h-8.9844v8.2031q-2.8281-4.875-7.1562-7.25-4.3125-2.375-10.375-2.375-9.9062 0-16.141 7.9062-6.2188 7.9219-6.2188 20.812t6.2188 20.797q6.2344 7.9062 16.141 7.9062 6.0625 0 10.375-2.375 4.3281-2.3594 7.1562-7.2344zm-30.609-19.094q0-9.9062 4.0781-15.547t11.203-5.6406 11.219 5.6406q4.1094 5.6406 4.1094 15.547t-4.1094 15.547q-4.0938 5.6406-11.219 5.6406t-11.203-5.6406-4.0781-15.547z"/>
</defs>
<g transform="translate(305.23 995.49) scale(.1 -.1)">
<use xlink:href="#al"/>
<use x="63.476562" xlink:href="#c"/>
<use x="125" xlink:href="#m"/>
</g>
</g>
<g clip-path="url(#a)">
<defs>
<path id="ay" d="m9.4219 54.688h8.9844v-54.688h-8.9844zm4.5 1.3125m-3.6562 23.984h7.2188l11.969-18.359h-6.7812l-8.7969 11.953-8.7812-11.953h-6.7969z"/>
</defs>
<g transform="translate(338.61 995.49) scale(.1 -.1)">
<use xlink:href="#ay"/>
<use x="27.783203" xlink:href="#e"/>
<use x="55.566406" xlink:href="#c"/>
<use x="117.089844" xlink:href="#m"/>
</g>
</g>
<g clip-path="url(#a)">
<defs>
<path id="ak" d="m30.609 48.391q-7.2188 0-11.422-5.6406t-4.2031-15.453 4.1719-15.453q4.1875-5.6406 11.453-5.6406 7.1875 0 11.375 5.6562 4.2031 5.6719 4.2031 15.438 0 9.7188-4.2031 15.406-4.1875 5.6875-11.375 5.6875zm0 7.6094q11.719 0 18.406-7.625 6.7031-7.6094 6.7031-21.078 0-13.422-6.7031-21.078-6.6875-7.6406-18.406-7.6406-11.766 0-18.438 7.6406-6.6562 7.6562-6.6562 21.078 0 13.469 6.6562 21.078 6.6719 7.625 18.438 7.625z"/>
</defs>
<g transform="translate(349.69 995.49) scale(.1 -.1)">
<use xlink:href="#w"/>
<use x="68.408203" xlink:href="#e"/>
<use x="96.191406" xlink:href="#ad"/>
<use x="157.714844" xlink:href="#ak"/>
<use x="218.896484" xlink:href="#u"/>
<use x="282.275391" xlink:href="#s"/>
<use x="321.484375" xlink:href="#i"/>
<use x="349.267578" xlink:href="#c"/>
<use x="410.791016" xlink:href="#h"/>
<use x="474.169922" xlink:href="#h"/>
<use x="537.548828" xlink:href="#c"/>
<use x="599.072266" xlink:href="#m"/>
</g>
</g>
<g clip-path="url(#a)">
<g transform="translate(418.04 995.49) scale(.1 -.1)">
<use xlink:href="#aa"/>
</g>
</g>
<g clip-path="url(#a)">
<g transform="translate(454.74 995.49) scale(.1 -.1)">
<use xlink:href="#e"/>
<use x="27.783203" xlink:href="#c"/>
</g>
</g>
<g clip-path="url(#a)">
<defs>
<path id="aw" d="m9.8125 72.906h9.8594v-30.812l32.719 30.812h12.703l-36.188-33.984 38.766-38.922h-12.984l-35.016 35.109v-35.109h-9.8594z"/>
<path id="as" d="m9.0781 75.984h9.0312v-44.875l26.812 23.578h11.469l-29-25.578 30.234-29.109h-11.719l-27.797 26.703v-26.703h-9.0312z"/>
</defs>
<g transform="translate(474.63 995.49) scale(.1 -.1)">
<use xlink:href="#aw"/>
<use x="60.576172" xlink:href="#u"/>
<use x="123.955078" xlink:href="#e"/>
<use x="151.738281" xlink:href="#f"/>
<use x="213.017578" xlink:href="#j"/>
<use x="310.429688" xlink:href="#j"/>
<use x="407.841797" xlink:href="#f"/>
<use x="469.121094" xlink:href="#as"/>
</g>
</g>
<g clip-path="url(#a)">
<g transform="translate(539.92 995.49) scale(.1 -.1)">
<use xlink:href="#c"/>
<use x="61.523438" xlink:href="#s"/>
</g>
</g>
<g clip-path="url(#a)">
<defs>
<path id="ah" d="m17.922 72.906v-27.109h-8.2969v27.109z"/>
</defs>
<g transform="translate(588.37 995.49) scale(.1 -.1)">
<use xlink:href="#e"/>
<use x="27.783203" xlink:href="#ah"/>
</g>
</g>
<g clip-path="url(#a)">
<g transform="translate(614.82 995.49) scale(.1 -.1)">
<use xlink:href="#v"/>
<use x="73.193359" xlink:href="#j"/>
<use x="170.605469" xlink:href="#ae"/>
<use x="234.082031" xlink:href="#u"/>
<use x="297.460938" xlink:href="#e"/>
<use x="325.244141" xlink:href="#e"/>
<use x="353.027344" xlink:href="#i"/>
<use x="380.810547" xlink:href="#af"/>
<use x="435.791016" xlink:href="#as"/>
</g>
</g>
<g clip-path="url(#a)">
<g transform="translate(688.48 995.49) scale(.1 -.1)">
<use xlink:href="#aa"/>
</g>
</g>
<g clip-path="url(#a)">
<g transform="translate(738.3 995.49) scale(.1 -.1)">
<use xlink:href="#h"/>
<use x="63.378906" xlink:href="#ah"/>
</g>
</g>
<g clip-path="url(#a)">
<g transform="translate(789.62 995.49) scale(.1 -.1)">
<use xlink:href="#ak"/>
<use x="61.181641" xlink:href="#h"/>
<use x="124.560547" xlink:href="#s"/>
</g>
</g>
<g clip-path="url(#a)">
<defs>
<path id="bd" d="m9.4219 54.688h8.9844v-55.672q0-10.438-3.9844-15.125-3.9688-4.6875-12.812-4.6875h-3.4219v7.6094h2.4062q5.125 0 6.9688 2.375 1.8594 2.3594 1.8594 9.8281zm0 21.297h8.9844v-11.391h-8.9844z"/>
</defs>
<g transform="translate(838.6 995.49) scale(.1 -.1)">
<use xlink:href="#bd"/>
<use x="27.783203" xlink:href="#f"/>
<use x="89.0625" xlink:href="#j"/>
<use x="186.474609" xlink:href="#f"/>
<use x="247.753906" xlink:href="#i"/>
<use x="275.537109" xlink:href="#m"/>
</g>
</g>
<g clip-path="url(#a)">
<g transform="translate(893.57 995.69) scale(.1 -.1)">
<use xlink:href="#al"/>
<use x="63.476562" xlink:href="#ad"/>
<use x="125" xlink:href="#aj"/>
<use x="188.476562" xlink:href="#f"/>
<use x="249.755859" xlink:href="#m"/>
<use x="301.855469" xlink:href="#m"/>
<use x="353.955078" xlink:href="#ad"/>
</g>
</g>
<g clip-path="url(#a)">
<g transform="translate(971.45 995.49) scale(.1 -.1)">
<use xlink:href="#e"/>
<use x="27.783203" xlink:href="#f"/>
</g>
</g>
<g clip-path="url(#a)">
<g transform="translate(1017.4 995.49) scale(.1 -.1)">
<use xlink:href="#e"/>
<use x="27.783203" xlink:href="#ak"/>
<use x="88.964844" xlink:href="#h"/>
<use x="152.34375" xlink:href="#ae"/>
<use x="215.820312" xlink:href="#u"/>
<use x="279.199219" xlink:href="#c"/>
<use x="340.722656" xlink:href="#u"/>
<use x="404.101562" xlink:href="#k"/>
</g>
</g>
<g clip-path="url(#a)">
<g transform="translate(1099.4 995.49) scale(.1 -.1)">
<use xlink:href="#al"/>
<use x="63.476562" xlink:href="#c"/>
</g>
</g>
<g clip-path="url(#a)">
<defs>
<path id="ar" d="m4.8906 31.391h26.312v-8h-26.312z"/>
<path id="bb" d="m54.891 54.688-19.781-26.609 20.797-28.078h-10.594l-15.922 21.484-15.906-21.484h-10.609l21.25 28.609-19.438 26.078h10.594l14.5-19.484 14.5 19.484z"/>
</defs>
<g transform="translate(1140.1 995.49) scale(.1 -.1)">
<use xlink:href="#af"/>
<use x="54.980469" xlink:href="#i"/>
<use x="82.763672" xlink:href="#h"/>
<use x="146.142578" xlink:href="#ai"/>
<use x="209.619141" xlink:href="#u"/>
<use x="272.998047" xlink:href="#f"/>
<use x="334.277344" xlink:href="#h"/>
<use x="397.65625" xlink:href="#s"/>
<use x="436.865234" xlink:href="#c"/>
<use x="498.388672" xlink:href="#ar"/>
<use x="534.472656" xlink:href="#m"/>
<use x="586.572266" xlink:href="#i"/>
<use x="614.355469" xlink:href="#bb"/>
</g>
</g>
<g clip-path="url(#a)">
<defs>
<path id="ba" d="m56.203 29.594v-4.3906h-41.312q0.59375-9.2812 5.5938-14.141t13.938-4.8594q5.1719 0 10.031 1.2656t9.6562 3.8125v-8.5q-4.8438-2.0469-9.9219-3.125t-10.297-1.0781q-13.094 0-20.734 7.6094-7.6406 7.625-7.6406 20.625 0 13.422 7.25 21.297 7.25 7.8906 19.562 7.8906 11.031 0 17.453-7.1094 6.4219-7.0938 6.4219-19.297zm-8.9844 2.6406q-0.09375 7.3594-4.125 11.75-4.0312 4.4062-10.672 4.4062-7.5156 0-12.031-4.25t-5.2031-11.969zm-22.547 47.75 13.766-18.266h-7.4688l-15.922 18.266z"/>
</defs>
<g transform="translate(1226.6 995.49) scale(.1 -.1)">
<use xlink:href="#j"/>
<use x="97.412109" xlink:href="#ba"/>
<use x="158.935547" xlink:href="#s"/>
<use x="198.144531" xlink:href="#k"/>
<use x="237.007812" xlink:href="#c"/>
<use x="298.53125" xlink:href="#m"/>
</g>
</g>
<g clip-path="url(#a)">
<g transform="translate(1315.1 995.49) scale(.1 -.1)">
<use xlink:href="#aa"/>
</g>
</g>
<g clip-path="url(#a)">
<g transform="translate(1389.7 995.49) scale(.1 -.1)">
<use xlink:href="#ar"/>
</g>
</g>
<g clip-path="url(#a)">
<g transform="translate(1464.4 995.49) scale(.1 -.1)">
<use xlink:href="#m"/>
<use x="52.099609" xlink:href="#i"/>
</g>
</g>
<g clip-path="url(#a)">
<defs>
<path id="az" d="m56.203 29.594v-4.3906h-41.312q0.59375-9.2812 5.5938-14.141t13.938-4.8594q5.1719 0 10.031 1.2656t9.6562 3.8125v-8.5q-4.8438-2.0469-9.9219-3.125t-10.297-1.0781q-13.094 0-20.734 7.6094-7.6406 7.625-7.6406 20.625 0 13.422 7.25 21.297 7.25 7.8906 19.562 7.8906 11.031 0 17.453-7.1094 6.4219-7.0938 6.4219-19.297zm-8.9844 2.6406q-0.09375 7.3594-4.125 11.75-4.0312 4.4062-10.672 4.4062-7.5156 0-12.031-4.25t-5.2031-11.969zm-19.078 47.75h7.2188l11.969-18.359h-6.7812l-8.7969 11.953-8.7812-11.953h-6.7969z"/>
</defs>
<g transform="translate(1531.7 995.49) scale(.1 -.1)">
<use xlink:href="#j"/>
<use x="97.412109" xlink:href="#az"/>
<use x="158.935547" xlink:href="#j"/>
<use x="256.347656" xlink:href="#c"/>
</g>
</g>
<g clip-path="url(#a)">
<g transform="translate(1617.4 995.49) scale(.1 -.1)">
<use xlink:href="#c"/>
<use x="61.523438" xlink:href="#e"/>
<use x="89.306641" xlink:href="#e"/>
<use x="117.089844" xlink:href="#c"/>
<use x="178.613281" xlink:href="#m"/>
</g>
</g>
<g clip-path="url(#a)">
<g transform="translate(1709.7 995.49) scale(.1 -.1)">
<use xlink:href="#e"/>
<use x="27.783203" xlink:href="#ah"/>
</g>
</g>
<g clip-path="url(#a)">
<g transform="translate(1772.2 995.49) scale(.1 -.1)">
<use xlink:href="#f"/>
<use x="61.279297" xlink:href="#s"/>
<use x="100.488281" xlink:href="#s"/>
<use x="139.697266" xlink:href="#c"/>
<use x="201.220703" xlink:href="#i"/>
<use x="229.003906" xlink:href="#ae"/>
<use x="292.480469" xlink:href="#h"/>
<use x="355.859375" xlink:href="#c"/>
<use x="417.382812" xlink:href="#h"/>
<use x="480.761719" xlink:href="#s"/>
</g>
</g>
<g clip-path="url(#a)">
<defs>
<path id="g" d="m10.688 12.406h10.312v-12.406h-10.312z"/>
</defs>
<g transform="translate(1884.6 995.49) scale(.1 -.1)">
<use xlink:href="#g"/>
</g>
</g>
<g clip-path="url(#a)">
<defs>
<path id="d" d="m12.406 8.2969h16.109v55.625l-17.531-3.5156v8.9844l17.438 3.5156h9.8594v-64.609h16.109v-8.2969h-41.984z"/>
</defs>
<g transform="translate(982.1 50.032) scale(.1 -.1)">
<use xlink:href="#d"/>
<use x="63.623047" xlink:href="#g"/>
<use x="95.410156" xlink:href="#d"/>
</g>
</g>
<g clip-path="url(#a)">
<defs>
<path id="q" d="m19.188 8.2969h34.422v-8.2969h-46.281v8.2969q5.6094 5.8125 15.297 15.594 9.7031 9.7969 12.188 12.641 4.7344 5.3125 6.6094 9 1.8906 3.6875 1.8906 7.25 0 5.8125-4.0781 9.4688-4.0781 3.6719-10.625 3.6719-4.6406 0-9.7969-1.6094-5.1406-1.6094-11-4.8906v9.9688q5.9531 2.3906 11.125 3.6094 5.1875 1.2188 9.4844 1.2188 11.328 0 18.062-5.6719 6.7344-5.6562 6.7344-15.125 0-4.5-1.6875-8.5312-1.6719-4.0156-6.125-9.4844-1.2188-1.4219-7.7656-8.1875-6.5312-6.7656-18.453-18.922z"/>
</defs>
<g transform="translate(81.867 863.02) scale(.1 -.1)">
<use xlink:href="#d"/>
<use x="63.623047" xlink:href="#g"/>
<use x="95.410156" xlink:href="#q"/>
</g>
</g>
<g clip-path="url(#a)">
<defs>
<path id="p" d="m40.578 39.312q7.0781-1.5156 11.047-6.3125 3.9844-4.7812 3.9844-11.812 0-10.781-7.4219-16.703-7.4219-5.9062-21.094-5.9062-4.5781 0-9.4375 0.90625t-10.031 2.7188v9.5156q4.0938-2.3906 8.9688-3.6094 4.8906-1.2188 10.219-1.2188 9.2656 0 14.125 3.6562t4.8594 10.641q0 6.4531-4.5156 10.078-4.5156 3.6406-12.562 3.6406h-8.5v8.1094h8.8906q7.2656 0 11.125 2.9062t3.8594 8.375q0 5.6094-3.9844 8.6094-3.9688 3.0156-11.391 3.0156-4.0625 0-8.7031-0.89062-4.6406-0.875-10.203-2.7188v8.7812q5.625 1.5625 10.531 2.3438t9.25 0.78125q11.234 0 17.766-5.1094 6.5469-5.0938 6.5469-13.781 0-6.0625-3.4688-10.234t-9.8594-5.7812z"/>
</defs>
<g transform="translate(763.57 186.35) scale(.1 -.1)">
<use xlink:href="#d"/>
<use x="63.623047" xlink:href="#g"/>
<use x="95.410156" xlink:href="#p"/>
</g>
</g>
<g clip-path="url(#a)">
<defs>
<path id="n" d="m37.797 64.312-24.906-38.922h24.906zm-2.5938 8.5938h12.406v-47.516h10.406v-8.2031h-10.406v-17.188h-9.8125v17.188h-32.906v9.5156z"/>
</defs>
<g transform="translate(1500 863.02) scale(.1 -.1)">
<use xlink:href="#d"/>
<use x="63.623047" xlink:href="#g"/>
<use x="95.410156" xlink:href="#n"/>
</g>
</g>
<g clip-path="url(#a)">
<defs>
<path id="o" d="m10.797 72.906h38.719v-8.3125h-29.688v-17.859q2.1406 0.73438 4.2812 1.0938 2.1562 0.35938 4.3125 0.35938 12.203 0 19.328-6.6875 7.1406-6.6875 7.1406-18.109 0-11.766-7.3281-18.297-7.3281-6.5156-20.656-6.5156-4.5938 0-9.3594 0.78125-4.75 0.78125-9.8281 2.3438v9.9219q4.3906-2.3906 9.0781-3.5625t9.9062-1.1719q8.4531 0 13.375 4.4375 4.9375 4.4375 4.9375 12.062 0 7.6094-4.9375 12.047-4.9219 4.4531-13.375 4.4531-3.9531 0-7.8906-0.875-3.9219-0.875-8.0156-2.7344z"/>
</defs>
<g transform="translate(1748.5 728.72) scale(.1 -.1)">
<use xlink:href="#d"/>
<use x="63.623047" xlink:href="#g"/>
<use x="95.410156" xlink:href="#o"/>
</g>
</g>
<g clip-path="url(#a)">
<defs>
<path id="ab" d="m10.984 1.5156v8.9844q3.7188-1.7656 7.5156-2.6875 3.8125-0.92188 7.4844-0.92188 9.7656 0 14.906 6.5625 5.1562 6.5625 5.8906 19.953-2.8281-4.2031-7.1875-6.4531-4.3438-2.25-9.6094-2.25-10.938 0-17.312 6.6094-6.375 6.625-6.375 18.109 0 11.219 6.6406 18 6.6406 6.7969 17.672 6.7969 12.656 0 19.312-9.7031 6.6719-9.6875 6.6719-28.141 0-17.234-8.1875-27.516-8.1719-10.281-21.984-10.281-3.7188 0-7.5312 0.73438-3.7969 0.73438-7.9062 2.2031zm19.625 30.906q6.6406 0 10.516 4.5312 3.8906 4.5469 3.8906 12.469 0 7.8594-3.8906 12.422-3.875 4.5625-10.516 4.5625t-10.516-4.5625-3.875-12.422q0-7.9219 3.875-12.469 3.875-4.5312 10.516-4.5312z"/>
</defs>
<g transform="translate(1621 863.02) scale(.1 -.1)">
<use xlink:href="#d"/>
<use x="63.623047" xlink:href="#g"/>
<use x="95.410156" xlink:href="#ab"/>
</g>
</g>
<g clip-path="url(#a)">
<defs>
<path id="z" d="m31.781 66.406q-7.6094 0-11.453-7.5-3.8281-7.4844-3.8281-22.531 0-14.984 3.8281-22.484 3.8438-7.5 11.453-7.5 7.6719 0 11.5 7.5 3.8438 7.5 3.8438 22.484 0 15.047-3.8438 22.531-3.8281 7.5-11.5 7.5zm0 7.8125q12.266 0 18.734-9.7031 6.4688-9.6875 6.4688-28.141 0-18.406-6.4688-28.109-6.4688-9.6875-18.734-9.6875-12.25 0-18.719 9.6875-6.4688 9.7031-6.4688 28.109 0 18.453 6.4688 28.141 6.4688 9.7031 18.719 9.7031z"/>
</defs>
<g transform="translate(1701.3 863.02) scale(.1 -.1)">
<use xlink:href="#d"/>
<use x="63.623047" xlink:href="#g"/>
<use x="95.410156" xlink:href="#d"/>
<use x="159.033203" xlink:href="#z"/>
</g>
</g>
<g clip-path="url(#a)">
<g transform="translate(1787.1 863.02) scale(.1 -.1)">
<use xlink:href="#d"/>
<use x="63.623047" xlink:href="#g"/>
<use x="95.410156" xlink:href="#d"/>
<use x="159.033203" xlink:href="#d"/>
</g>
</g>
<g clip-path="url(#a)">
<g transform="translate(236.71 322.43) scale(.1 -.1)">
<use xlink:href="#d"/>
<use x="63.623047" xlink:href="#g"/>
<use x="95.410156" xlink:href="#d"/>
<use x="159.033203" xlink:href="#p"/>
</g>
</g>
<g clip-path="url(#a)">
<g transform="translate(731.71 863.02) scale(.1 -.1)">
<use xlink:href="#d"/>
<use x="63.623047" xlink:href="#g"/>
<use x="95.410156" xlink:href="#d"/>
<use x="159.033203" xlink:href="#n"/>
</g>
</g>
<g clip-path="url(#a)">
<g transform="translate(786.68 863.02) scale(.1 -.1)">
<use xlink:href="#d"/>
<use x="63.623047" xlink:href="#g"/>
<use x="95.410156" xlink:href="#d"/>
<use x="159.033203" xlink:href="#o"/>
</g>
</g>
<g clip-path="url(#a)">
<defs>
<path id="y" d="m33.016 40.375q-6.6406 0-10.531-4.5469-3.875-4.5312-3.875-12.438 0-7.8594 3.875-12.438 3.8906-4.5625 10.531-4.5625t10.516 4.5625q3.875 4.5781 3.875 12.438 0 7.9062-3.875 12.438-3.875 4.5469-10.516 4.5469zm19.578 30.922v-8.9844q-3.7188 1.75-7.5 2.6719-3.7812 0.9375-7.5 0.9375-9.7656 0-14.922-6.5938-5.1406-6.5938-5.875-19.922 2.875 4.25 7.2188 6.5156 4.3594 2.2656 9.5781 2.2656 10.984 0 17.359-6.6719 6.375-6.6562 6.375-18.125 0-11.234-6.6406-18.031-6.6406-6.7812-17.672-6.7812-12.656 0-19.344 9.6875-6.6875 9.7031-6.6875 28.109 0 17.281 8.2031 27.562t22.016 10.281q3.7188 0 7.5-0.73438t7.8906-2.1875z"/>
</defs>
<g transform="translate(843.84 863.02) scale(.1 -.1)">
<use xlink:href="#d"/>
<use x="63.623047" xlink:href="#g"/>
<use x="95.410156" xlink:href="#d"/>
<use x="159.033203" xlink:href="#y"/>
</g>
</g>
<g clip-path="url(#a)">
<defs>
<path id="x" d="m8.2031 72.906h46.875v-4.2031l-26.469-68.703h-10.297l24.906 64.594h-35.016z"/>
</defs>
<g transform="translate(903.21 863.02) scale(.1 -.1)">
<use xlink:href="#d"/>
<use x="63.623047" xlink:href="#g"/>
<use x="95.410156" xlink:href="#d"/>
<use x="159.033203" xlink:href="#x"/>
</g>
</g>
<g clip-path="url(#a)">
<defs>
<path id="ac" d="m31.781 34.625q-7.0312 0-11.062-3.7656-4.0156-3.7656-4.0156-10.344 0-6.5938 4.0156-10.359 4.0312-3.7656 11.062-3.7656t11.078 3.7812q4.0625 3.7969 4.0625 10.344 0 6.5781-4.0312 10.344-4.0156 3.7656-11.109 3.7656zm-9.8594 4.1875q-6.3438 1.5625-9.8906 5.9062-3.5312 4.3594-3.5312 10.609 0 8.7344 6.2188 13.812 6.2344 5.0781 17.062 5.0781 10.891 0 17.094-5.0781t6.2031-13.812q0-6.25-3.5469-10.609-3.5312-4.3438-9.8281-5.9062 7.125-1.6562 11.094-6.5 3.9844-4.8281 3.9844-11.797 0-10.609-6.4688-16.281-6.4688-5.6562-18.531-5.6562-12.047 0-18.531 5.6562-6.4688 5.6719-6.4688 16.281 0 6.9688 4 11.797 4.0156 4.8438 11.141 6.5zm-3.6094 15.578q0-5.6562 3.5312-8.8281 3.5469-3.1719 9.9375-3.1719 6.3594 0 9.9375 3.1719 3.5938 3.1719 3.5938 8.8281 0 5.6719-3.5938 8.8438-3.5781 3.1719-9.9375 3.1719-6.3906 0-9.9375-3.1719-3.5312-3.1719-3.5312-8.8438z"/>
</defs>
<g transform="translate(1141.6 593.71) scale(.1 -.1)">
<use xlink:href="#d"/>
<use x="63.623047" xlink:href="#g"/>
<use x="95.410156" xlink:href="#d"/>
<use x="159.033203" xlink:href="#ac"/>
</g>
</g>
<g clip-path="url(#a)">
<g transform="translate(1029.3 728.72) scale(.1 -.1)">
<use xlink:href="#d"/>
<use x="63.623047" xlink:href="#g"/>
<use x="95.410156" xlink:href="#q"/>
<use x="159.033203" xlink:href="#z"/>
</g>
</g>
<g clip-path="url(#a)">
<g transform="translate(1162.7 863.02) scale(.1 -.1)">
<use xlink:href="#d"/>
<use x="63.623047" xlink:href="#g"/>
<use x="95.410156" xlink:href="#q"/>
<use x="159.033203" xlink:href="#d"/>
</g>
</g>
<g clip-path="url(#a)">
<g transform="translate(1233 863.02) scale(.1 -.1)">
<use xlink:href="#d"/>
<use x="63.623047" xlink:href="#g"/>
<use x="95.410156" xlink:href="#q"/>
<use x="159.033203" xlink:href="#q"/>
</g>
</g>
<g clip-path="url(#a)">
<g transform="translate(964.77 863.02) scale(.1 -.1)">
<use xlink:href="#d"/>
<use x="63.623047" xlink:href="#g"/>
<use x="95.410156" xlink:href="#q"/>
<use x="159.033203" xlink:href="#p"/>
</g>
</g>
<g clip-path="url(#a)">
<g transform="translate(1028.5 863.02) scale(.1 -.1)">
<use xlink:href="#d"/>
<use x="63.623047" xlink:href="#g"/>
<use x="95.410156" xlink:href="#q"/>
<use x="159.033203" xlink:href="#n"/>
</g>
</g>
<g clip-path="url(#a)">
<g transform="translate(1094.5 863.02) scale(.1 -.1)">
<use xlink:href="#d"/>
<use x="63.623047" xlink:href="#g"/>
<use x="95.410156" xlink:href="#q"/>
<use x="159.033203" xlink:href="#o"/>
</g>
</g>
<g clip-path="url(#a)">
<g transform="translate(94.076 863.02) scale(.1 -.1)">
<use xlink:href="#d"/>
<use x="63.623047" xlink:href="#g"/>
<use x="95.410156" xlink:href="#q"/>
<use x="159.033203" xlink:href="#y"/>
</g>
</g>
<g clip-path="url(#a)">
<g transform="translate(119 728.72) scale(.1 -.1)">
<use xlink:href="#d"/>
<use x="63.623047" xlink:href="#g"/>
<use x="95.410156" xlink:href="#q"/>
<use x="159.033203" xlink:href="#x"/>
</g>
</g>
<g clip-path="url(#a)">
<g transform="translate(133.65 863.02) scale(.1 -.1)">
<use xlink:href="#d"/>
<use x="63.623047" xlink:href="#g"/>
<use x="95.410156" xlink:href="#q"/>
<use x="159.033203" xlink:href="#ac"/>
</g>
</g>
<g clip-path="url(#a)">
<g transform="translate(214.88 458.24) scale(.1 -.1)">
<use xlink:href="#d"/>
<use x="63.623047" xlink:href="#g"/>
<use x="95.410156" xlink:href="#q"/>
<use x="159.033203" xlink:href="#ab"/>
</g>
</g>
<g clip-path="url(#a)">
<g transform="translate(535.66 593.71) scale(.1 -.1)">
<use xlink:href="#d"/>
<use x="63.623047" xlink:href="#g"/>
<use x="95.410156" xlink:href="#p"/>
<use x="159.033203" xlink:href="#z"/>
</g>
</g>
<g clip-path="url(#a)">
<g transform="translate(468.96 728.72) scale(.1 -.1)">
<use xlink:href="#d"/>
<use x="63.623047" xlink:href="#g"/>
<use x="95.410156" xlink:href="#p"/>
<use x="159.033203" xlink:href="#p"/>
</g>
</g>
<g clip-path="url(#a)">
<g transform="translate(533.82 863.02) scale(.1 -.1)">
<use xlink:href="#d"/>
<use x="63.623047" xlink:href="#g"/>
<use x="95.410156" xlink:href="#p"/>
<use x="159.033203" xlink:href="#n"/>
</g>
</g>
<g clip-path="url(#a)">
<g transform="translate(604.18 728.72) scale(.1 -.1)">
<use xlink:href="#d"/>
<use x="63.623047" xlink:href="#g"/>
<use x="95.410156" xlink:href="#p"/>
<use x="159.033203" xlink:href="#o"/>
</g>
</g>
<g clip-path="url(#a)">
<g transform="translate(580 863.02) scale(.1 -.1)">
<use xlink:href="#d"/>
<use x="63.623047" xlink:href="#g"/>
<use x="95.410156" xlink:href="#p"/>
<use x="159.033203" xlink:href="#y"/>
</g>
</g>
<g clip-path="url(#a)">
<g transform="translate(628.37 863.02) scale(.1 -.1)">
<use xlink:href="#d"/>
<use x="63.623047" xlink:href="#g"/>
<use x="95.410156" xlink:href="#p"/>
<use x="159.033203" xlink:href="#x"/>
</g>
</g>
<g clip-path="url(#a)">
<g transform="translate(448.07 863.02) scale(.1 -.1)">
<use xlink:href="#d"/>
<use x="63.623047" xlink:href="#g"/>
<use x="95.410156" xlink:href="#p"/>
<use x="159.033203" xlink:href="#ac"/>
</g>
</g>
<g clip-path="url(#a)">
<g transform="translate(489.85 863.02) scale(.1 -.1)">
<use xlink:href="#d"/>
<use x="63.623047" xlink:href="#g"/>
<use x="95.410156" xlink:href="#p"/>
<use x="159.033203" xlink:href="#ab"/>
</g>
</g>
<g clip-path="url(#a)">
<g transform="translate(182.03 863.02) scale(.1 -.1)">
<use xlink:href="#d"/>
<use x="63.623047" xlink:href="#g"/>
<use x="95.410156" xlink:href="#n"/>
<use x="159.033203" xlink:href="#z"/>
</g>
</g>
<g clip-path="url(#a)">
<g transform="translate(217.21 863.02) scale(.1 -.1)">
<use xlink:href="#d"/>
<use x="63.623047" xlink:href="#g"/>
<use x="95.410156" xlink:href="#n"/>
<use x="159.033203" xlink:href="#d"/>
</g>
</g>
<g clip-path="url(#a)">
<g transform="translate(326.65 593.71) scale(.1 -.1)">
<use xlink:href="#d"/>
<use x="63.623047" xlink:href="#g"/>
<use x="95.410156" xlink:href="#n"/>
<use x="159.033203" xlink:href="#q"/>
</g>
</g>
<g clip-path="url(#a)">
<g transform="translate(272.91 728.72) scale(.1 -.1)">
<use xlink:href="#d"/>
<use x="63.623047" xlink:href="#g"/>
<use x="95.410156" xlink:href="#n"/>
<use x="159.033203" xlink:href="#p"/>
</g>
</g>
<g clip-path="url(#a)">
<g transform="translate(335.94 863.02) scale(.1 -.1)">
<use xlink:href="#d"/>
<use x="63.623047" xlink:href="#g"/>
<use x="95.410156" xlink:href="#n"/>
<use x="159.033203" xlink:href="#n"/>
</g>
</g>
<g clip-path="url(#a)">
<g transform="translate(371.12 863.02) scale(.1 -.1)">
<use xlink:href="#d"/>
<use x="63.623047" xlink:href="#g"/>
<use x="95.410156" xlink:href="#n"/>
<use x="159.033203" xlink:href="#o"/>
</g>
</g>
<g clip-path="url(#a)">
<g transform="translate(243.59 863.02) scale(.1 -.1)">
<use xlink:href="#d"/>
<use x="63.623047" xlink:href="#g"/>
<use x="95.410156" xlink:href="#n"/>
<use x="159.033203" xlink:href="#y"/>
</g>
</g>
<g clip-path="url(#a)">
<g transform="translate(272.17 863.02) scale(.1 -.1)">
<use xlink:href="#d"/>
<use x="63.623047" xlink:href="#g"/>
<use x="95.410156" xlink:href="#n"/>
<use x="159.033203" xlink:href="#x"/>
</g>
</g>
<g clip-path="url(#a)">
<g transform="translate(302.96 863.02) scale(.1 -.1)">
<use xlink:href="#d"/>
<use x="63.623047" xlink:href="#g"/>
<use x="95.410156" xlink:href="#n"/>
<use x="159.033203" xlink:href="#ac"/>
</g>
</g>
<g clip-path="url(#a)">
<g transform="translate(105.07 863.02) scale(.1 -.1)">
<use xlink:href="#d"/>
<use x="63.623047" xlink:href="#g"/>
<use x="95.410156" xlink:href="#n"/>
<use x="159.033203" xlink:href="#ab"/>
</g>
</g>
<g clip-path="url(#a)">
<g transform="translate(118.26 863.02) scale(.1 -.1)">
<use xlink:href="#d"/>
<use x="63.623047" xlink:href="#g"/>
<use x="95.410156" xlink:href="#o"/>
<use x="159.033203" xlink:href="#z"/>
</g>
</g>
<g clip-path="url(#a)">
<g transform="translate(85.282 863.02) scale(.1 -.1)">
<use xlink:href="#d"/>
<use x="63.623047" xlink:href="#g"/>
<use x="95.410156" xlink:href="#o"/>
<use x="159.033203" xlink:href="#d"/>
</g>
</g>
<g clip-path="url(#a)">
<g transform="translate(151.24 863.02) scale(.1 -.1)">
<use xlink:href="#d"/>
<use x="63.623047" xlink:href="#g"/>
<use x="95.410156" xlink:href="#o"/>
<use x="159.033203" xlink:href="#q"/>
</g>
</g>
<g clip-path="url(#a)">
<g transform="translate(408.5 863.02) scale(.1 -.1)">
<use xlink:href="#d"/>
<use x="63.623047" xlink:href="#g"/>
<use x="95.410156" xlink:href="#o"/>
<use x="159.033203" xlink:href="#p"/>
</g>
</g>
<g clip-path="url(#a)">
<g transform="translate(678.94 863.02) scale(.1 -.1)">
<use xlink:href="#d"/>
<use x="63.623047" xlink:href="#g"/>
<use x="95.410156" xlink:href="#o"/>
<use x="159.033203" xlink:href="#n"/>
</g>
</g>
<g clip-path="url(#a)">
<g transform="translate(1305.6 863.02) scale(.1 -.1)">
<use xlink:href="#d"/>
<use x="63.623047" xlink:href="#g"/>
<use x="95.410156" xlink:href="#o"/>
<use x="159.033203" xlink:href="#o"/>
</g>
</g>
<g clip-path="url(#a)">
<g transform="translate(1380.3 863.02) scale(.1 -.1)">
<use xlink:href="#d"/>
<use x="63.623047" xlink:href="#g"/>
<use x="95.410156" xlink:href="#o"/>
<use x="159.033203" xlink:href="#y"/>
</g>
</g>
<g clip-path="url(#a)">
<g transform="translate(1875 863.02) scale(.1 -.1)">
<use xlink:href="#d"/>
<use x="63.623047" xlink:href="#g"/>
<use x="95.410156" xlink:href="#o"/>
<use x="159.033203" xlink:href="#x"/>
</g>
</g>
<defs>
<clipPath id="a">
<rect width="1976" height="1040"/>
</clipPath>
</defs>
</svg>
