<?xml version="1.0" encoding="utf-8" standalone="no"?>
<!DOCTYPE svg PUBLIC "-//W3C//DTD SVG 1.1//EN"
  "http://www.w3.org/Graphics/SVG/1.1/DTD/svg11.dtd">
<!-- Created with matplotlib (https://matplotlib.org/) -->
<svg height="506.666667pt" version="1.1" viewBox="0 0 962.666667 506.666667" width="962.666667pt" xmlns="http://www.w3.org/2000/svg" xmlns:xlink="http://www.w3.org/1999/xlink">
 <defs>
  <style type="text/css">
*{stroke-linecap:butt;stroke-linejoin:round;}
  </style>
 </defs>
 <g id="figure_1">
  <g id="patch_1">
   <path d="M 0 506.666667 
L 962.666667 506.666667 
L 962.666667 0 
L 0 0 
z
" style="fill:#ffffff;"/>
  </g>
  <g id="axes_1">
   <g id="LineCollection_1">
    <path clip-path="url(#pfd3e543198)" d="M 429.047089 24.422392 
L 470.922356 141.320985 
" style="fill:none;stroke:#000000;"/>
    <path clip-path="url(#pfd3e543198)" d="M 429.047089 24.422392 
L 189.825956 369.127703 
" style="fill:none;stroke:#000000;"/>
    <path clip-path="url(#pfd3e543198)" d="M 429.047089 24.422392 
L 376.06678 141.320985 
" style="fill:none;stroke:#000000;"/>
    <path clip-path="url(#pfd3e543198)" d="M 429.047089 24.422392 
L 529.917896 369.127703 
" style="fill:none;stroke:#000000;"/>
    <path clip-path="url(#pfd3e543198)" d="M 429.047089 24.422392 
L 578.502459 369.127703 
" style="fill:none;stroke:#000000;"/>
    <path clip-path="url(#pfd3e543198)" d="M 470.922356 141.320985 
L 44.072268 369.127703 
" style="fill:none;stroke:#000000;"/>
    <path clip-path="url(#pfd3e543198)" d="M 470.922356 141.320985 
L 92.65683 369.127703 
" style="fill:none;stroke:#000000;"/>
    <path clip-path="url(#pfd3e543198)" d="M 470.922356 141.320985 
L 141.241393 369.127703 
" style="fill:none;stroke:#000000;"/>
    <path clip-path="url(#pfd3e543198)" d="M 470.922356 141.320985 
L 651.379303 256.011132 
" style="fill:none;stroke:#000000;"/>
    <path clip-path="url(#pfd3e543198)" d="M 470.922356 141.320985 
L 772.84071 369.127703 
" style="fill:none;stroke:#000000;"/>
    <path clip-path="url(#pfd3e543198)" d="M 470.922356 141.320985 
L 870.009836 256.011132 
" style="fill:none;stroke:#000000;"/>
    <path clip-path="url(#pfd3e543198)" d="M 470.922356 141.320985 
L 724.256148 369.127703 
" style="fill:none;stroke:#000000;"/>
    <path clip-path="url(#pfd3e543198)" d="M 189.825956 369.127703 
L 189.825956 482.244275 
" style="fill:none;stroke:#000000;"/>
    <path clip-path="url(#pfd3e543198)" d="M 376.06678 141.320985 
L 286.995082 256.011132 
" style="fill:none;stroke:#000000;"/>
    <path clip-path="url(#pfd3e543198)" d="M 376.06678 141.320985 
L 384.164208 369.127703 
" style="fill:none;stroke:#000000;"/>
    <path clip-path="url(#pfd3e543198)" d="M 376.06678 141.320985 
L 457.041052 256.011132 
" style="fill:none;stroke:#000000;"/>
    <path clip-path="url(#pfd3e543198)" d="M 286.995082 256.011132 
L 238.410519 369.127703 
" style="fill:none;stroke:#000000;"/>
    <path clip-path="url(#pfd3e543198)" d="M 286.995082 256.011132 
L 286.995082 369.127703 
" style="fill:none;stroke:#000000;"/>
    <path clip-path="url(#pfd3e543198)" d="M 286.995082 256.011132 
L 335.579645 369.127703 
" style="fill:none;stroke:#000000;"/>
    <path clip-path="url(#pfd3e543198)" d="M 384.164208 369.127703 
L 384.164208 482.244275 
" style="fill:none;stroke:#000000;"/>
    <path clip-path="url(#pfd3e543198)" d="M 457.041052 256.011132 
L 432.74877 369.127703 
" style="fill:none;stroke:#000000;"/>
    <path clip-path="url(#pfd3e543198)" d="M 457.041052 256.011132 
L 481.333333 369.127703 
" style="fill:none;stroke:#000000;"/>
    <path clip-path="url(#pfd3e543198)" d="M 432.74877 369.127703 
L 432.74877 482.244275 
" style="fill:none;stroke:#000000;"/>
    <path clip-path="url(#pfd3e543198)" d="M 481.333333 369.127703 
L 481.333333 482.244275 
" style="fill:none;stroke:#000000;"/>
    <path clip-path="url(#pfd3e543198)" d="M 238.410519 369.127703 
L 238.410519 482.244275 
" style="fill:none;stroke:#000000;"/>
    <path clip-path="url(#pfd3e543198)" d="M 286.995082 369.127703 
L 286.995082 482.244275 
" style="fill:none;stroke:#000000;"/>
    <path clip-path="url(#pfd3e543198)" d="M 335.579645 369.127703 
L 335.579645 482.244275 
" style="fill:none;stroke:#000000;"/>
    <path clip-path="url(#pfd3e543198)" d="M 44.072268 369.127703 
L 44.072268 482.244275 
" style="fill:none;stroke:#000000;"/>
    <path clip-path="url(#pfd3e543198)" d="M 92.65683 369.127703 
L 92.65683 482.244275 
" style="fill:none;stroke:#000000;"/>
    <path clip-path="url(#pfd3e543198)" d="M 141.241393 369.127703 
L 141.241393 482.244275 
" style="fill:none;stroke:#000000;"/>
    <path clip-path="url(#pfd3e543198)" d="M 651.379303 256.011132 
L 627.087022 369.127703 
" style="fill:none;stroke:#000000;"/>
    <path clip-path="url(#pfd3e543198)" d="M 651.379303 256.011132 
L 675.671585 369.127703 
" style="fill:none;stroke:#000000;"/>
    <path clip-path="url(#pfd3e543198)" d="M 772.84071 369.127703 
L 772.84071 482.244275 
" style="fill:none;stroke:#000000;"/>
    <path clip-path="url(#pfd3e543198)" d="M 870.009836 256.011132 
L 821.425273 369.127703 
" style="fill:none;stroke:#000000;"/>
    <path clip-path="url(#pfd3e543198)" d="M 870.009836 256.011132 
L 870.009836 369.127703 
" style="fill:none;stroke:#000000;"/>
    <path clip-path="url(#pfd3e543198)" d="M 870.009836 256.011132 
L 918.594399 369.127703 
" style="fill:none;stroke:#000000;"/>
    <path clip-path="url(#pfd3e543198)" d="M 821.425273 369.127703 
L 821.425273 482.244275 
" style="fill:none;stroke:#000000;"/>
    <path clip-path="url(#pfd3e543198)" d="M 870.009836 369.127703 
L 870.009836 482.244275 
" style="fill:none;stroke:#000000;"/>
    <path clip-path="url(#pfd3e543198)" d="M 627.087022 369.127703 
L 627.087022 482.244275 
" style="fill:none;stroke:#000000;"/>
    <path clip-path="url(#pfd3e543198)" d="M 675.671585 369.127703 
L 675.671585 482.244275 
" style="fill:none;stroke:#000000;"/>
    <path clip-path="url(#pfd3e543198)" d="M 345.605031 24.422392 
L 470.922356 141.320985 
" style="fill:none;stroke:#000000;"/>
    <path clip-path="url(#pfd3e543198)" d="M 345.605031 24.422392 
L 189.825956 369.127703 
" style="fill:none;stroke:#000000;"/>
    <path clip-path="url(#pfd3e543198)" d="M 345.605031 24.422392 
L 376.06678 141.320985 
" style="fill:none;stroke:#000000;"/>
    <path clip-path="url(#pfd3e543198)" d="M 529.917896 369.127703 
L 529.917896 482.244275 
" style="fill:none;stroke:#000000;"/>
    <path clip-path="url(#pfd3e543198)" d="M 578.502459 369.127703 
L 578.502459 482.244275 
" style="fill:none;stroke:#000000;"/>
    <path clip-path="url(#pfd3e543198)" d="M 724.256148 369.127703 
L 724.256148 482.244275 
" style="fill:none;stroke:#000000;"/>
    <path clip-path="url(#pfd3e543198)" d="M 918.594399 369.127703 
L 918.594399 482.244275 
" style="fill:none;stroke:#000000;"/>
   </g>
   <g id="text_1">
    <g id="patch_2">
     <path clip-path="url(#pfd3e543198)" d="M 443.066395 82.154659 
L 445.095282 87.818481 
Q 445.904645 90.077891 448.164054 89.268528 
L 455.453004 86.65749 
Q 457.712413 85.848127 456.903051 83.588717 
L 454.874163 77.924895 
Q 454.0648 75.665486 451.805391 76.474849 
L 444.516441 79.085887 
Q 442.257032 79.89525 443.066395 82.154659 
z
" style="fill:#ffffff;stroke:#ffffff;stroke-linejoin:miter;"/>
    </g>
    <g clip-path="url(#pfd3e543198)">
     <!-- H -->
     <defs>
      <path d="M 9.8125 72.90625 
L 19.671875 72.90625 
L 19.671875 43.015625 
L 55.515625 43.015625 
L 55.515625 72.90625 
L 65.375 72.90625 
L 65.375 0 
L 55.515625 0 
L 55.515625 34.71875 
L 19.671875 34.71875 
L 19.671875 0 
L 9.8125 0 
z
" id="DejaVuSans-72"/>
     </defs>
     <g transform="translate(446.892093 80.784223)rotate(-289.708476)scale(0.08 -0.08)">
      <use xlink:href="#DejaVuSans-72"/>
     </g>
    </g>
   </g>
   <g id="text_2">
    <g id="patch_3">
     <path clip-path="url(#pfd3e543198)" d="M 313.317937 202.181574 
L 315.859347 198.519533 
Q 317.227689 196.547823 315.255979 195.179481 
L 308.89516 190.765153 
Q 306.92345 189.396811 305.555108 191.368522 
L 303.013698 195.030562 
Q 301.645357 197.002272 303.617067 198.370614 
L 309.977885 202.784942 
Q 311.949595 204.153284 313.317937 202.181574 
z
" style="fill:#ffffff;stroke:#ffffff;stroke-linejoin:miter;"/>
    </g>
    <g clip-path="url(#pfd3e543198)">
     <!-- L -->
     <defs>
      <path d="M 9.8125 72.90625 
L 19.671875 72.90625 
L 19.671875 8.296875 
L 55.171875 8.296875 
L 55.171875 0 
L 9.8125 0 
z
" id="DejaVuSans-76"/>
     </defs>
     <g transform="translate(309.97938 199.864657)rotate(-55.23984)scale(0.08 -0.08)">
      <use xlink:href="#DejaVuSans-76"/>
     </g>
    </g>
   </g>
   <g id="text_3">
    <g id="patch_4">
     <path clip-path="url(#pfd3e543198)" d="M 407.027177 88.200322 
L 409.510679 82.720588 
Q 410.501397 80.534615 408.315424 79.543897 
L 401.263384 76.3478 
Q 399.077411 75.357082 398.086693 77.543055 
L 395.603191 83.022789 
Q 394.612473 85.208762 396.798446 86.19948 
L 403.850486 89.395577 
Q 406.036459 90.386295 407.027177 88.200322 
z
" style="fill:#ffffff;stroke:#ffffff;stroke-linejoin:miter;"/>
    </g>
    <g clip-path="url(#pfd3e543198)">
     <!-- H -->
     <g transform="translate(403.325823 86.522809)rotate(-65.619207)scale(0.08 -0.08)">
      <use xlink:href="#DejaVuSans-72"/>
     </g>
    </g>
   </g>
   <g id="text_4">
    <g id="patch_5">
     <path clip-path="url(#pfd3e543198)" d="M 472.64146 195.726664 
L 474.285844 201.346008 
Q 474.959887 203.649411 477.26329 202.975368 
L 484.694165 200.800878 
Q 486.997568 200.126835 486.323525 197.823432 
L 484.679142 192.204088 
Q 484.005099 189.900685 481.701696 190.574727 
L 474.270821 192.749218 
Q 471.967418 193.42326 472.64146 195.726664 
z
" style="fill:#ffffff;stroke:#ffffff;stroke-linejoin:miter;"/>
    </g>
    <g clip-path="url(#pfd3e543198)">
     <!-- U -->
     <defs>
      <path d="M 8.6875 72.90625 
L 18.609375 72.90625 
L 18.609375 28.609375 
Q 18.609375 16.890625 22.84375 11.734375 
Q 27.09375 6.59375 36.625 6.59375 
Q 46.09375 6.59375 50.34375 11.734375 
Q 54.59375 16.890625 54.59375 28.609375 
L 54.59375 72.90625 
L 64.5 72.90625 
L 64.5 27.390625 
Q 64.5 13.140625 57.4375 5.859375 
Q 50.390625 -1.421875 36.625 -1.421875 
Q 22.796875 -1.421875 15.734375 5.859375 
Q 8.6875 13.140625 8.6875 27.390625 
z
" id="DejaVuSans-85"/>
     </defs>
     <g transform="translate(476.54165 194.585355)rotate(-286.311012)scale(0.08 -0.08)">
      <use xlink:href="#DejaVuSans-85"/>
     </g>
    </g>
   </g>
   <g id="text_5">
    <g id="patch_6">
     <path clip-path="url(#pfd3e543198)" d="M 496.856519 196.583803 
L 499.1856 201.955619 
Q 500.140305 204.157558 502.342245 203.202854 
L 509.445794 200.122937 
Q 511.647734 199.168233 510.69303 196.966293 
L 508.363948 191.594477 
Q 507.409244 189.392537 505.207304 190.347242 
L 498.103754 193.427158 
Q 495.901814 194.381863 496.856519 196.583803 
z
" style="fill:#ffffff;stroke:#ffffff;stroke-linejoin:miter;"/>
    </g>
    <g clip-path="url(#pfd3e543198)">
     <!-- U -->
     <g transform="translate(500.584908 194.967269)rotate(-293.440316)scale(0.08 -0.08)">
      <use xlink:href="#DejaVuSans-85"/>
     </g>
    </g>
   </g>
   <g id="text_6">
    <g id="patch_7">
     <path clip-path="url(#pfd3e543198)" d="M 258.036057 262.045297 
L 262.864013 259.468652 
Q 264.981345 258.338648 263.851341 256.221317 
L 260.205901 249.390719 
Q 259.075897 247.273388 256.958566 248.403391 
L 252.13061 250.980036 
Q 250.013279 252.11004 251.143283 254.227371 
L 254.788722 261.057969 
Q 255.918726 263.1753 258.036057 262.045297 
z
" style="fill:#ffffff;stroke:#ffffff;stroke-linejoin:miter;"/>
    </g>
    <g clip-path="url(#pfd3e543198)">
     <!-- A -->
     <defs>
      <path d="M 34.1875 63.1875 
L 20.796875 26.90625 
L 47.609375 26.90625 
z
M 28.609375 72.90625 
L 39.796875 72.90625 
L 67.578125 0 
L 57.328125 0 
L 50.6875 18.703125 
L 17.828125 18.703125 
L 11.1875 0 
L 0.78125 0 
z
" id="DejaVuSans-65"/>
     </defs>
     <g transform="translate(256.122702 258.46017)rotate(-28.088509)scale(0.08 -0.08)">
      <use xlink:href="#DejaVuSans-65"/>
     </g>
    </g>
   </g>
   <g id="text_7">
    <g id="patch_8">
     <path clip-path="url(#pfd3e543198)" d="M 282.680974 262.008228 
L 287.368965 259.184931 
Q 289.424913 257.946757 288.186738 255.890808 
L 284.192335 249.258234 
Q 282.95416 247.202285 280.898212 248.44046 
L 276.210221 251.263757 
Q 274.154273 252.501931 275.392448 254.55788 
L 279.386851 261.190454 
Q 280.625026 263.246403 282.680974 262.008228 
z
" style="fill:#ffffff;stroke:#ffffff;stroke-linejoin:miter;"/>
    </g>
    <g clip-path="url(#pfd3e543198)">
     <!-- A -->
     <g transform="translate(280.584461 258.527036)rotate(-31.058043)scale(0.08 -0.08)">
      <use xlink:href="#DejaVuSans-65"/>
     </g>
    </g>
   </g>
   <g id="text_8">
    <g id="patch_9">
     <path clip-path="url(#pfd3e543198)" d="M 307.662694 261.75479 
L 311.631187 259.012596 
Q 313.605663 257.648249 312.241317 255.673772 
L 307.839878 249.304028 
Q 306.475532 247.329551 304.501055 248.693898 
L 300.532562 251.436092 
Q 298.558085 252.800439 299.922432 254.774916 
L 304.323871 261.14466 
Q 305.688217 263.119137 307.662694 261.75479 
z
" style="fill:#ffffff;stroke:#ffffff;stroke-linejoin:miter;"/>
    </g>
    <g clip-path="url(#pfd3e543198)">
     <!-- P -->
     <defs>
      <path d="M 19.671875 64.796875 
L 19.671875 37.40625 
L 32.078125 37.40625 
Q 38.96875 37.40625 42.71875 40.96875 
Q 46.484375 44.53125 46.484375 51.125 
Q 46.484375 57.671875 42.71875 61.234375 
Q 38.96875 64.796875 32.078125 64.796875 
z
M 9.8125 72.90625 
L 32.078125 72.90625 
Q 44.34375 72.90625 50.609375 67.359375 
Q 56.890625 61.8125 56.890625 51.125 
Q 56.890625 40.328125 50.609375 34.8125 
Q 44.34375 29.296875 32.078125 29.296875 
L 19.671875 29.296875 
L 19.671875 0 
L 9.8125 0 
z
" id="DejaVuSans-80"/>
     </defs>
     <g transform="translate(305.352543 258.411548)rotate(-34.644141)scale(0.08 -0.08)">
      <use xlink:href="#DejaVuSans-80"/>
     </g>
    </g>
   </g>
   <g id="text_9">
    <g id="patch_10">
     <path clip-path="url(#pfd3e543198)" d="M 555.477684 202.491116 
L 560.096315 205.426505 
Q 562.121845 206.713839 563.409178 204.688309 
L 567.562171 198.153865 
Q 568.849505 196.128335 566.823975 194.841001 
L 562.205344 191.905612 
Q 560.179814 190.618278 558.892481 192.643808 
L 554.739488 199.178252 
Q 553.452154 201.203782 555.477684 202.491116 
z
" style="fill:#ffffff;stroke:#ffffff;stroke-linejoin:miter;"/>
    </g>
    <g clip-path="url(#pfd3e543198)">
     <!-- A -->
     <g transform="translate(557.657435 199.061429)rotate(-327.561835)scale(0.08 -0.08)">
      <use xlink:href="#DejaVuSans-65"/>
     </g>
    </g>
   </g>
   <g id="text_10">
    <g id="patch_11">
     <path clip-path="url(#pfd3e543198)" d="M 615.64564 258.375314 
L 620.562925 262.085557 
Q 622.47875 263.531107 623.9243 261.615281 
L 628.587702 255.434749 
Q 630.033252 253.518923 628.117426 252.073374 
L 623.200141 248.363131 
Q 621.284316 246.917581 619.838766 248.833407 
L 615.175364 255.013939 
Q 613.729814 256.929765 615.64564 258.375314 
z
" style="fill:#ffffff;stroke:#ffffff;stroke-linejoin:miter;"/>
    </g>
    <g clip-path="url(#pfd3e543198)">
     <!-- D -->
     <defs>
      <path d="M 19.671875 64.796875 
L 19.671875 8.109375 
L 31.59375 8.109375 
Q 46.6875 8.109375 53.6875 14.9375 
Q 60.6875 21.78125 60.6875 36.53125 
Q 60.6875 51.171875 53.6875 57.984375 
Q 46.6875 64.796875 31.59375 64.796875 
z
M 9.8125 72.90625 
L 30.078125 72.90625 
Q 51.265625 72.90625 61.171875 64.09375 
Q 71.09375 55.28125 71.09375 36.53125 
Q 71.09375 17.671875 61.125 8.828125 
Q 51.171875 0 30.078125 0 
L 9.8125 0 
z
" id="DejaVuSans-68"/>
     </defs>
     <g transform="translate(618.093286 255.131383)rotate(-322.96432)scale(0.08 -0.08)">
      <use xlink:href="#DejaVuSans-68"/>
     </g>
    </g>
   </g>
   <g id="text_11">
    <g id="patch_12">
     <path clip-path="url(#pfd3e543198)" d="M 666.104157 203.937598 
L 671.363775 205.449112 
Q 673.670414 206.111996 674.333298 203.805357 
L 676.47179 196.364043 
Q 677.134674 194.057403 674.828035 193.394519 
L 669.568417 191.883005 
Q 667.261778 191.220121 666.598894 193.52676 
L 664.460402 200.968074 
Q 663.797517 203.274713 666.104157 203.937598 
z
" style="fill:#ffffff;stroke:#ffffff;stroke-linejoin:miter;"/>
    </g>
    <g clip-path="url(#pfd3e543198)">
     <!-- A -->
     <g transform="translate(667.226572 200.031929)rotate(-343.966356)scale(0.08 -0.08)">
      <use xlink:href="#DejaVuSans-65"/>
     </g>
    </g>
   </g>
   <g id="text_12">
    <g id="patch_13">
     <path clip-path="url(#pfd3e543198)" d="M 591.219156 257.930025 
L 595.572798 261.844974 
Q 597.357382 263.449736 598.962143 261.665151 
L 604.13917 255.908008 
Q 605.743932 254.123424 603.959347 252.518663 
L 599.605705 248.603714 
Q 597.821121 246.998952 596.21636 248.783537 
L 591.039333 254.54068 
Q 589.434571 256.325264 591.219156 257.930025 
z
" style="fill:#ffffff;stroke:#ffffff;stroke-linejoin:miter;"/>
    </g>
    <g clip-path="url(#pfd3e543198)">
     <!-- U -->
     <g transform="translate(593.936384 254.908315)rotate(-318.037)scale(0.08 -0.08)">
      <use xlink:href="#DejaVuSans-85"/>
     </g>
    </g>
   </g>
   <g id="text_13">
    <g id="patch_14">
     <path clip-path="url(#pfd3e543198)" d="M 183.554706 408.043489 
L 183.554706 443.328489 
Q 183.554706 445.728489 185.954706 445.728489 
L 193.697206 445.728489 
Q 196.097206 445.728489 196.097206 443.328489 
L 196.097206 408.043489 
Q 196.097206 405.643489 193.697206 405.643489 
L 185.954706 405.643489 
Q 183.554706 405.643489 183.554706 408.043489 
z
" style="fill:#ffffff;stroke:#ffffff;stroke-linejoin:miter;"/>
    </g>
    <g clip-path="url(#pfd3e543198)">
     <!-- Terminal -->
     <defs>
      <path d="M -0.296875 72.90625 
L 61.375 72.90625 
L 61.375 64.59375 
L 35.5 64.59375 
L 35.5 0 
L 25.59375 0 
L 25.59375 64.59375 
L -0.296875 64.59375 
z
" id="DejaVuSans-84"/>
      <path d="M 56.203125 29.59375 
L 56.203125 25.203125 
L 14.890625 25.203125 
Q 15.484375 15.921875 20.484375 11.0625 
Q 25.484375 6.203125 34.421875 6.203125 
Q 39.59375 6.203125 44.453125 7.46875 
Q 49.3125 8.734375 54.109375 11.28125 
L 54.109375 2.78125 
Q 49.265625 0.734375 44.1875 -0.34375 
Q 39.109375 -1.421875 33.890625 -1.421875 
Q 20.796875 -1.421875 13.15625 6.1875 
Q 5.515625 13.8125 5.515625 26.8125 
Q 5.515625 40.234375 12.765625 48.109375 
Q 20.015625 56 32.328125 56 
Q 43.359375 56 49.78125 48.890625 
Q 56.203125 41.796875 56.203125 29.59375 
z
M 47.21875 32.234375 
Q 47.125 39.59375 43.09375 43.984375 
Q 39.0625 48.390625 32.421875 48.390625 
Q 24.90625 48.390625 20.390625 44.140625 
Q 15.875 39.890625 15.1875 32.171875 
z
" id="DejaVuSans-101"/>
      <path d="M 41.109375 46.296875 
Q 39.59375 47.171875 37.8125 47.578125 
Q 36.03125 48 33.890625 48 
Q 26.265625 48 22.1875 43.046875 
Q 18.109375 38.09375 18.109375 28.8125 
L 18.109375 0 
L 9.078125 0 
L 9.078125 54.6875 
L 18.109375 54.6875 
L 18.109375 46.1875 
Q 20.953125 51.171875 25.484375 53.578125 
Q 30.03125 56 36.53125 56 
Q 37.453125 56 38.578125 55.875 
Q 39.703125 55.765625 41.0625 55.515625 
z
" id="DejaVuSans-114"/>
      <path d="M 52 44.1875 
Q 55.375 50.25 60.0625 53.125 
Q 64.75 56 71.09375 56 
Q 79.640625 56 84.28125 50.015625 
Q 88.921875 44.046875 88.921875 33.015625 
L 88.921875 0 
L 79.890625 0 
L 79.890625 32.71875 
Q 79.890625 40.578125 77.09375 44.375 
Q 74.3125 48.1875 68.609375 48.1875 
Q 61.625 48.1875 57.5625 43.546875 
Q 53.515625 38.921875 53.515625 30.90625 
L 53.515625 0 
L 44.484375 0 
L 44.484375 32.71875 
Q 44.484375 40.625 41.703125 44.40625 
Q 38.921875 48.1875 33.109375 48.1875 
Q 26.21875 48.1875 22.15625 43.53125 
Q 18.109375 38.875 18.109375 30.90625 
L 18.109375 0 
L 9.078125 0 
L 9.078125 54.6875 
L 18.109375 54.6875 
L 18.109375 46.1875 
Q 21.1875 51.21875 25.484375 53.609375 
Q 29.78125 56 35.6875 56 
Q 41.65625 56 45.828125 52.96875 
Q 50 49.953125 52 44.1875 
z
" id="DejaVuSans-109"/>
      <path d="M 9.421875 54.6875 
L 18.40625 54.6875 
L 18.40625 0 
L 9.421875 0 
z
M 9.421875 75.984375 
L 18.40625 75.984375 
L 18.40625 64.59375 
L 9.421875 64.59375 
z
" id="DejaVuSans-105"/>
      <path d="M 54.890625 33.015625 
L 54.890625 0 
L 45.90625 0 
L 45.90625 32.71875 
Q 45.90625 40.484375 42.875 44.328125 
Q 39.84375 48.1875 33.796875 48.1875 
Q 26.515625 48.1875 22.3125 43.546875 
Q 18.109375 38.921875 18.109375 30.90625 
L 18.109375 0 
L 9.078125 0 
L 9.078125 54.6875 
L 18.109375 54.6875 
L 18.109375 46.1875 
Q 21.34375 51.125 25.703125 53.5625 
Q 30.078125 56 35.796875 56 
Q 45.21875 56 50.046875 50.171875 
Q 54.890625 44.34375 54.890625 33.015625 
z
" id="DejaVuSans-110"/>
      <path d="M 34.28125 27.484375 
Q 23.390625 27.484375 19.1875 25 
Q 14.984375 22.515625 14.984375 16.5 
Q 14.984375 11.71875 18.140625 8.90625 
Q 21.296875 6.109375 26.703125 6.109375 
Q 34.1875 6.109375 38.703125 11.40625 
Q 43.21875 16.703125 43.21875 25.484375 
L 43.21875 27.484375 
z
M 52.203125 31.203125 
L 52.203125 0 
L 43.21875 0 
L 43.21875 8.296875 
Q 40.140625 3.328125 35.546875 0.953125 
Q 30.953125 -1.421875 24.3125 -1.421875 
Q 15.921875 -1.421875 10.953125 3.296875 
Q 6 8.015625 6 15.921875 
Q 6 25.140625 12.171875 29.828125 
Q 18.359375 34.515625 30.609375 34.515625 
L 43.21875 34.515625 
L 43.21875 35.40625 
Q 43.21875 41.609375 39.140625 45 
Q 35.0625 48.390625 27.6875 48.390625 
Q 23 48.390625 18.546875 47.265625 
Q 14.109375 46.140625 10.015625 43.890625 
L 10.015625 52.203125 
Q 14.9375 54.109375 19.578125 55.046875 
Q 24.21875 56 28.609375 56 
Q 40.484375 56 46.34375 49.84375 
Q 52.203125 43.703125 52.203125 31.203125 
z
" id="DejaVuSans-97"/>
      <path d="M 9.421875 75.984375 
L 18.40625 75.984375 
L 18.40625 0 
L 9.421875 0 
z
" id="DejaVuSans-108"/>
     </defs>
     <g transform="translate(187.618456 408.043489)rotate(-270)scale(0.08 -0.08)">
      <use xlink:href="#DejaVuSans-84"/>
      <use x="60.818359" xlink:href="#DejaVuSans-101"/>
      <use x="122.341797" xlink:href="#DejaVuSans-114"/>
      <use x="163.439453" xlink:href="#DejaVuSans-109"/>
      <use x="260.851562" xlink:href="#DejaVuSans-105"/>
      <use x="288.634766" xlink:href="#DejaVuSans-110"/>
      <use x="352.013672" xlink:href="#DejaVuSans-97"/>
      <use x="413.292969" xlink:href="#DejaVuSans-108"/>
     </g>
    </g>
   </g>
   <g id="text_14">
    <g id="patch_15">
     <path clip-path="url(#pfd3e543198)" d="M 334.805565 204.673755 
L 338.16226 200.35162 
Q 339.63436 198.45612 337.73886 196.984019 
L 331.623898 192.234962 
Q 329.728398 190.762862 328.256298 192.658362 
L 324.899602 196.980497 
Q 323.427502 198.875997 325.323002 200.348097 
L 331.437964 205.097155 
Q 333.333464 206.569255 334.805565 204.673755 
z
" style="fill:#ffffff;stroke:#ffffff;stroke-linejoin:miter;"/>
    </g>
    <g clip-path="url(#pfd3e543198)">
     <!-- A -->
     <g transform="translate(331.596049 202.181152)rotate(-52.166049)scale(0.08 -0.08)">
      <use xlink:href="#DejaVuSans-65"/>
     </g>
    </g>
   </g>
   <g id="text_15">
    <g id="patch_16">
     <path clip-path="url(#pfd3e543198)" d="M 373.762526 253.036763 
L 373.933878 257.857469 
Q 374.019133 260.255954 376.417618 260.170699 
L 384.155232 259.895665 
Q 386.553717 259.81041 386.468462 257.411925 
L 386.29711 252.591219 
Q 386.211855 250.192734 383.81337 250.277989 
L 376.075756 250.553023 
Q 373.677271 250.638278 373.762526 253.036763 
z
" style="fill:#ffffff;stroke:#ffffff;stroke-linejoin:miter;"/>
    </g>
    <g clip-path="url(#pfd3e543198)">
     <!-- P -->
     <g transform="translate(377.823711 252.892408)rotate(-272.035731)scale(0.08 -0.08)">
      <use xlink:href="#DejaVuSans-80"/>
     </g>
    </g>
   </g>
   <g id="text_16">
    <g id="patch_17">
     <path clip-path="url(#pfd3e543198)" d="M 409.85269 200.047799 
L 413.009018 204.518352 
Q 414.393247 206.478942 416.353836 205.094714 
L 422.678781 200.629136 
Q 424.639371 199.244908 423.255142 197.284318 
L 420.098814 192.813765 
Q 418.714586 190.853175 416.753996 192.237403 
L 410.429052 196.702981 
Q 408.468462 198.087209 409.85269 200.047799 
z
" style="fill:#ffffff;stroke:#ffffff;stroke-linejoin:miter;"/>
    </g>
    <g clip-path="url(#pfd3e543198)">
     <!-- A -->
     <g transform="translate(413.172418 197.703983)rotate(-305.223101)scale(0.08 -0.08)">
      <use xlink:href="#DejaVuSans-65"/>
     </g>
    </g>
   </g>
   <g id="text_17">
    <g id="patch_18">
     <path clip-path="url(#pfd3e543198)" d="M 267.467561 317.366697 
L 269.462501 312.721996 
Q 270.409653 310.516797 268.204455 309.569645 
L 261.090391 306.514092 
Q 258.885192 305.56694 257.938039 307.772139 
L 255.9431 312.416839 
Q 254.995947 314.622038 257.201146 315.56919 
L 264.31521 318.624743 
Q 266.520409 319.571896 267.467561 317.366697 
z
" style="fill:#ffffff;stroke:#ffffff;stroke-linejoin:miter;"/>
    </g>
    <g clip-path="url(#pfd3e543198)">
     <!-- E -->
     <defs>
      <path d="M 9.8125 72.90625 
L 55.90625 72.90625 
L 55.90625 64.59375 
L 19.671875 64.59375 
L 19.671875 43.015625 
L 54.390625 43.015625 
L 54.390625 34.71875 
L 19.671875 34.71875 
L 19.671875 8.296875 
L 56.78125 8.296875 
L 56.78125 0 
L 9.8125 0 
z
" id="DejaVuSans-69"/>
     </defs>
     <g transform="translate(263.733654 315.762951)rotate(-66.756051)scale(0.08 -0.08)">
      <use xlink:href="#DejaVuSans-69"/>
     </g>
    </g>
   </g>
   <g id="text_18">
    <g id="patch_19">
     <path clip-path="url(#pfd3e543198)" d="M 280.723832 310.041918 
L 280.723832 315.096918 
Q 280.723832 317.496918 283.123832 317.496918 
L 290.866332 317.496918 
Q 293.266332 317.496918 293.266332 315.096918 
L 293.266332 310.041918 
Q 293.266332 307.641918 290.866332 307.641918 
L 283.123832 307.641918 
Q 280.723832 307.641918 280.723832 310.041918 
z
" style="fill:#ffffff;stroke:#ffffff;stroke-linejoin:miter;"/>
    </g>
    <g clip-path="url(#pfd3e543198)">
     <!-- E -->
     <g transform="translate(284.787582 310.041918)rotate(-270)scale(0.08 -0.08)">
      <use xlink:href="#DejaVuSans-69"/>
     </g>
    </g>
   </g>
   <g id="text_19">
    <g id="patch_20">
     <path clip-path="url(#pfd3e543198)" d="M 304.422835 312.477931 
L 306.62743 317.610762 
Q 307.574583 319.815961 309.779782 318.868808 
L 316.893845 315.813255 
Q 319.099044 314.866103 318.151892 312.660904 
L 315.947296 307.528074 
Q 315.000144 305.322875 312.794945 306.270027 
L 305.680881 309.32558 
Q 303.475682 310.272732 304.422835 312.477931 
z
" style="fill:#ffffff;stroke:#ffffff;stroke-linejoin:miter;"/>
    </g>
    <g clip-path="url(#pfd3e543198)">
     <!-- C -->
     <defs>
      <path d="M 64.40625 67.28125 
L 64.40625 56.890625 
Q 59.421875 61.53125 53.78125 63.8125 
Q 48.140625 66.109375 41.796875 66.109375 
Q 29.296875 66.109375 22.65625 58.46875 
Q 16.015625 50.828125 16.015625 36.375 
Q 16.015625 21.96875 22.65625 14.328125 
Q 29.296875 6.6875 41.796875 6.6875 
Q 48.140625 6.6875 53.78125 8.984375 
Q 59.421875 11.28125 64.40625 15.921875 
L 64.40625 5.609375 
Q 59.234375 2.09375 53.4375 0.328125 
Q 47.65625 -1.421875 41.21875 -1.421875 
Q 24.65625 -1.421875 15.125 8.703125 
Q 5.609375 18.84375 5.609375 36.375 
Q 5.609375 53.953125 15.125 64.078125 
Q 24.65625 74.21875 41.21875 74.21875 
Q 47.75 74.21875 53.53125 72.484375 
Q 59.328125 70.75 64.40625 67.28125 
z
" id="DejaVuSans-67"/>
     </defs>
     <g transform="translate(308.156742 310.874185)rotate(-293.243949)scale(0.08 -0.08)">
      <use xlink:href="#DejaVuSans-67"/>
     </g>
    </g>
   </g>
   <g id="text_20">
    <g id="patch_21">
     <path clip-path="url(#pfd3e543198)" d="M 377.892958 408.043489 
L 377.892958 443.328489 
Q 377.892958 445.728489 380.292958 445.728489 
L 388.035458 445.728489 
Q 390.435458 445.728489 390.435458 443.328489 
L 390.435458 408.043489 
Q 390.435458 405.643489 388.035458 405.643489 
L 380.292958 405.643489 
Q 377.892958 405.643489 377.892958 408.043489 
z
" style="fill:#ffffff;stroke:#ffffff;stroke-linejoin:miter;"/>
    </g>
    <g clip-path="url(#pfd3e543198)">
     <!-- Terminal -->
     <g transform="translate(381.956708 408.043489)rotate(-270)scale(0.08 -0.08)">
      <use xlink:href="#DejaVuSans-84"/>
      <use x="60.818359" xlink:href="#DejaVuSans-101"/>
      <use x="122.341797" xlink:href="#DejaVuSans-114"/>
      <use x="163.439453" xlink:href="#DejaVuSans-109"/>
      <use x="260.851562" xlink:href="#DejaVuSans-105"/>
      <use x="288.634766" xlink:href="#DejaVuSans-110"/>
      <use x="352.013672" xlink:href="#DejaVuSans-97"/>
      <use x="413.292969" xlink:href="#DejaVuSans-108"/>
     </g>
    </g>
   </g>
   <g id="text_21">
    <g id="patch_22">
     <path clip-path="url(#pfd3e543198)" d="M 450.442788 316.603593 
L 451.609943 311.168756 
Q 452.113864 308.822256 449.767364 308.318334 
L 442.197456 306.692664 
Q 439.850956 306.188742 439.347035 308.535243 
L 438.17988 313.970079 
Q 437.675958 316.31658 440.022459 316.820501 
L 447.592366 318.446172 
Q 449.938866 318.950093 450.442788 316.603593 
z
" style="fill:#ffffff;stroke:#ffffff;stroke-linejoin:miter;"/>
    </g>
    <g clip-path="url(#pfd3e543198)">
     <!-- R -->
     <defs>
      <path d="M 44.390625 34.1875 
Q 47.5625 33.109375 50.5625 29.59375 
Q 53.5625 26.078125 56.59375 19.921875 
L 66.609375 0 
L 56 0 
L 46.6875 18.703125 
Q 43.0625 26.03125 39.671875 28.421875 
Q 36.28125 30.8125 30.421875 30.8125 
L 19.671875 30.8125 
L 19.671875 0 
L 9.8125 0 
L 9.8125 72.90625 
L 32.078125 72.90625 
Q 44.578125 72.90625 50.734375 67.671875 
Q 56.890625 62.453125 56.890625 51.90625 
Q 56.890625 45.015625 53.6875 40.46875 
Q 50.484375 35.9375 44.390625 34.1875 
z
M 19.671875 64.796875 
L 19.671875 38.921875 
L 32.078125 38.921875 
Q 39.203125 38.921875 42.84375 42.21875 
Q 46.484375 45.515625 46.484375 51.90625 
Q 46.484375 58.296875 42.84375 61.546875 
Q 39.203125 64.796875 32.078125 64.796875 
z
" id="DejaVuSans-82"/>
     </defs>
     <g transform="translate(446.469625 315.750339)rotate(-77.879571)scale(0.08 -0.08)">
      <use xlink:href="#DejaVuSans-82"/>
     </g>
    </g>
   </g>
   <g id="text_22">
    <g id="patch_23">
     <path clip-path="url(#pfd3e543198)" d="M 462.469274 311.155312 
L 463.642203 316.617036 
Q 464.146124 318.963536 466.492625 318.459615 
L 474.062532 316.833944 
Q 476.409032 316.330023 475.905111 313.983523 
L 474.732182 308.521799 
Q 474.228261 306.175299 471.881761 306.67922 
L 464.311853 308.304891 
Q 461.965353 308.808812 462.469274 311.155312 
z
" style="fill:#ffffff;stroke:#ffffff;stroke-linejoin:miter;"/>
    </g>
    <g clip-path="url(#pfd3e543198)">
     <!-- C -->
     <g transform="translate(466.442437 310.302058)rotate(-282.120429)scale(0.08 -0.08)">
      <use xlink:href="#DejaVuSans-67"/>
     </g>
    </g>
   </g>
   <g id="text_23">
    <g id="patch_24">
     <path clip-path="url(#pfd3e543198)" d="M 426.47752 408.043489 
L 426.47752 443.328489 
Q 426.47752 445.728489 428.87752 445.728489 
L 436.62002 445.728489 
Q 439.02002 445.728489 439.02002 443.328489 
L 439.02002 408.043489 
Q 439.02002 405.643489 436.62002 405.643489 
L 428.87752 405.643489 
Q 426.47752 405.643489 426.47752 408.043489 
z
" style="fill:#ffffff;stroke:#ffffff;stroke-linejoin:miter;"/>
    </g>
    <g clip-path="url(#pfd3e543198)">
     <!-- Terminal -->
     <g transform="translate(430.54127 408.043489)rotate(-270)scale(0.08 -0.08)">
      <use xlink:href="#DejaVuSans-84"/>
      <use x="60.818359" xlink:href="#DejaVuSans-101"/>
      <use x="122.341797" xlink:href="#DejaVuSans-114"/>
      <use x="163.439453" xlink:href="#DejaVuSans-109"/>
      <use x="260.851562" xlink:href="#DejaVuSans-105"/>
      <use x="288.634766" xlink:href="#DejaVuSans-110"/>
      <use x="352.013672" xlink:href="#DejaVuSans-97"/>
      <use x="413.292969" xlink:href="#DejaVuSans-108"/>
     </g>
    </g>
   </g>
   <g id="text_24">
    <g id="patch_25">
     <path clip-path="url(#pfd3e543198)" d="M 475.062083 408.043489 
L 475.062083 443.328489 
Q 475.062083 445.728489 477.462083 445.728489 
L 485.204583 445.728489 
Q 487.604583 445.728489 487.604583 443.328489 
L 487.604583 408.043489 
Q 487.604583 405.643489 485.204583 405.643489 
L 477.462083 405.643489 
Q 475.062083 405.643489 475.062083 408.043489 
z
" style="fill:#ffffff;stroke:#ffffff;stroke-linejoin:miter;"/>
    </g>
    <g clip-path="url(#pfd3e543198)">
     <!-- Terminal -->
     <g transform="translate(479.125833 408.043489)rotate(-270)scale(0.08 -0.08)">
      <use xlink:href="#DejaVuSans-84"/>
      <use x="60.818359" xlink:href="#DejaVuSans-101"/>
      <use x="122.341797" xlink:href="#DejaVuSans-114"/>
      <use x="163.439453" xlink:href="#DejaVuSans-109"/>
      <use x="260.851562" xlink:href="#DejaVuSans-105"/>
      <use x="288.634766" xlink:href="#DejaVuSans-110"/>
      <use x="352.013672" xlink:href="#DejaVuSans-97"/>
      <use x="413.292969" xlink:href="#DejaVuSans-108"/>
     </g>
    </g>
   </g>
   <g id="text_25">
    <g id="patch_26">
     <path clip-path="url(#pfd3e543198)" d="M 232.139269 408.043489 
L 232.139269 443.328489 
Q 232.139269 445.728489 234.539269 445.728489 
L 242.281769 445.728489 
Q 244.681769 445.728489 244.681769 443.328489 
L 244.681769 408.043489 
Q 244.681769 405.643489 242.281769 405.643489 
L 234.539269 405.643489 
Q 232.139269 405.643489 232.139269 408.043489 
z
" style="fill:#ffffff;stroke:#ffffff;stroke-linejoin:miter;"/>
    </g>
    <g clip-path="url(#pfd3e543198)">
     <!-- Terminal -->
     <g transform="translate(236.203019 408.043489)rotate(-270)scale(0.08 -0.08)">
      <use xlink:href="#DejaVuSans-84"/>
      <use x="60.818359" xlink:href="#DejaVuSans-101"/>
      <use x="122.341797" xlink:href="#DejaVuSans-114"/>
      <use x="163.439453" xlink:href="#DejaVuSans-109"/>
      <use x="260.851562" xlink:href="#DejaVuSans-105"/>
      <use x="288.634766" xlink:href="#DejaVuSans-110"/>
      <use x="352.013672" xlink:href="#DejaVuSans-97"/>
      <use x="413.292969" xlink:href="#DejaVuSans-108"/>
     </g>
    </g>
   </g>
   <g id="text_26">
    <g id="patch_27">
     <path clip-path="url(#pfd3e543198)" d="M 280.723832 408.043489 
L 280.723832 443.328489 
Q 280.723832 445.728489 283.123832 445.728489 
L 290.866332 445.728489 
Q 293.266332 445.728489 293.266332 443.328489 
L 293.266332 408.043489 
Q 293.266332 405.643489 290.866332 405.643489 
L 283.123832 405.643489 
Q 280.723832 405.643489 280.723832 408.043489 
z
" style="fill:#ffffff;stroke:#ffffff;stroke-linejoin:miter;"/>
    </g>
    <g clip-path="url(#pfd3e543198)">
     <!-- Terminal -->
     <g transform="translate(284.787582 408.043489)rotate(-270)scale(0.08 -0.08)">
      <use xlink:href="#DejaVuSans-84"/>
      <use x="60.818359" xlink:href="#DejaVuSans-101"/>
      <use x="122.341797" xlink:href="#DejaVuSans-114"/>
      <use x="163.439453" xlink:href="#DejaVuSans-109"/>
      <use x="260.851562" xlink:href="#DejaVuSans-105"/>
      <use x="288.634766" xlink:href="#DejaVuSans-110"/>
      <use x="352.013672" xlink:href="#DejaVuSans-97"/>
      <use x="413.292969" xlink:href="#DejaVuSans-108"/>
     </g>
    </g>
   </g>
   <g id="text_27">
    <g id="patch_28">
     <path clip-path="url(#pfd3e543198)" d="M 329.308395 408.043489 
L 329.308395 443.328489 
Q 329.308395 445.728489 331.708395 445.728489 
L 339.450895 445.728489 
Q 341.850895 445.728489 341.850895 443.328489 
L 341.850895 408.043489 
Q 341.850895 405.643489 339.450895 405.643489 
L 331.708395 405.643489 
Q 329.308395 405.643489 329.308395 408.043489 
z
" style="fill:#ffffff;stroke:#ffffff;stroke-linejoin:miter;"/>
    </g>
    <g clip-path="url(#pfd3e543198)">
     <!-- Terminal -->
     <g transform="translate(333.372145 408.043489)rotate(-270)scale(0.08 -0.08)">
      <use xlink:href="#DejaVuSans-84"/>
      <use x="60.818359" xlink:href="#DejaVuSans-101"/>
      <use x="122.341797" xlink:href="#DejaVuSans-114"/>
      <use x="163.439453" xlink:href="#DejaVuSans-109"/>
      <use x="260.851562" xlink:href="#DejaVuSans-105"/>
      <use x="288.634766" xlink:href="#DejaVuSans-110"/>
      <use x="352.013672" xlink:href="#DejaVuSans-97"/>
      <use x="413.292969" xlink:href="#DejaVuSans-108"/>
     </g>
    </g>
   </g>
   <g id="text_28">
    <g id="patch_29">
     <path clip-path="url(#pfd3e543198)" d="M 37.801018 408.043489 
L 37.801018 443.328489 
Q 37.801018 445.728489 40.201018 445.728489 
L 47.943518 445.728489 
Q 50.343518 445.728489 50.343518 443.328489 
L 50.343518 408.043489 
Q 50.343518 405.643489 47.943518 405.643489 
L 40.201018 405.643489 
Q 37.801018 405.643489 37.801018 408.043489 
z
" style="fill:#ffffff;stroke:#ffffff;stroke-linejoin:miter;"/>
    </g>
    <g clip-path="url(#pfd3e543198)">
     <!-- Terminal -->
     <g transform="translate(41.864768 408.043489)rotate(-270)scale(0.08 -0.08)">
      <use xlink:href="#DejaVuSans-84"/>
      <use x="60.818359" xlink:href="#DejaVuSans-101"/>
      <use x="122.341797" xlink:href="#DejaVuSans-114"/>
      <use x="163.439453" xlink:href="#DejaVuSans-109"/>
      <use x="260.851562" xlink:href="#DejaVuSans-105"/>
      <use x="288.634766" xlink:href="#DejaVuSans-110"/>
      <use x="352.013672" xlink:href="#DejaVuSans-97"/>
      <use x="413.292969" xlink:href="#DejaVuSans-108"/>
     </g>
    </g>
   </g>
   <g id="text_29">
    <g id="patch_30">
     <path clip-path="url(#pfd3e543198)" d="M 86.38558 408.043489 
L 86.38558 443.328489 
Q 86.38558 445.728489 88.78558 445.728489 
L 96.52808 445.728489 
Q 98.92808 445.728489 98.92808 443.328489 
L 98.92808 408.043489 
Q 98.92808 405.643489 96.52808 405.643489 
L 88.78558 405.643489 
Q 86.38558 405.643489 86.38558 408.043489 
z
" style="fill:#ffffff;stroke:#ffffff;stroke-linejoin:miter;"/>
    </g>
    <g clip-path="url(#pfd3e543198)">
     <!-- Terminal -->
     <g transform="translate(90.44933 408.043489)rotate(-270)scale(0.08 -0.08)">
      <use xlink:href="#DejaVuSans-84"/>
      <use x="60.818359" xlink:href="#DejaVuSans-101"/>
      <use x="122.341797" xlink:href="#DejaVuSans-114"/>
      <use x="163.439453" xlink:href="#DejaVuSans-109"/>
      <use x="260.851562" xlink:href="#DejaVuSans-105"/>
      <use x="288.634766" xlink:href="#DejaVuSans-110"/>
      <use x="352.013672" xlink:href="#DejaVuSans-97"/>
      <use x="413.292969" xlink:href="#DejaVuSans-108"/>
     </g>
    </g>
   </g>
   <g id="text_30">
    <g id="patch_31">
     <path clip-path="url(#pfd3e543198)" d="M 134.970143 408.043489 
L 134.970143 443.328489 
Q 134.970143 445.728489 137.370143 445.728489 
L 145.112643 445.728489 
Q 147.512643 445.728489 147.512643 443.328489 
L 147.512643 408.043489 
Q 147.512643 405.643489 145.112643 405.643489 
L 137.370143 405.643489 
Q 134.970143 405.643489 134.970143 408.043489 
z
" style="fill:#ffffff;stroke:#ffffff;stroke-linejoin:miter;"/>
    </g>
    <g clip-path="url(#pfd3e543198)">
     <!-- Terminal -->
     <g transform="translate(139.033893 408.043489)rotate(-270)scale(0.08 -0.08)">
      <use xlink:href="#DejaVuSans-84"/>
      <use x="60.818359" xlink:href="#DejaVuSans-101"/>
      <use x="122.341797" xlink:href="#DejaVuSans-114"/>
      <use x="163.439453" xlink:href="#DejaVuSans-109"/>
      <use x="260.851562" xlink:href="#DejaVuSans-105"/>
      <use x="288.634766" xlink:href="#DejaVuSans-110"/>
      <use x="352.013672" xlink:href="#DejaVuSans-97"/>
      <use x="413.292969" xlink:href="#DejaVuSans-108"/>
     </g>
    </g>
   </g>
   <g id="text_31">
    <g id="patch_32">
     <path clip-path="url(#pfd3e543198)" d="M 644.781039 316.603593 
L 645.948194 311.168756 
Q 646.452115 308.822256 644.105615 308.318334 
L 636.535708 306.692664 
Q 634.189207 306.188742 633.685286 308.535243 
L 632.518131 313.970079 
Q 632.01421 316.31658 634.36071 316.820501 
L 641.930618 318.446172 
Q 644.277118 318.950093 644.781039 316.603593 
z
" style="fill:#ffffff;stroke:#ffffff;stroke-linejoin:miter;"/>
    </g>
    <g clip-path="url(#pfd3e543198)">
     <!-- R -->
     <g transform="translate(640.807876 315.750339)rotate(-77.879571)scale(0.08 -0.08)">
      <use xlink:href="#DejaVuSans-82"/>
     </g>
    </g>
   </g>
   <g id="text_32">
    <g id="patch_33">
     <path clip-path="url(#pfd3e543198)" d="M 656.807525 311.155312 
L 657.980455 316.617036 
Q 658.484376 318.963536 660.830876 318.459615 
L 668.400784 316.833944 
Q 670.747284 316.330023 670.243363 313.983523 
L 669.070433 308.521799 
Q 668.566512 306.175299 666.220012 306.67922 
L 658.650104 308.304891 
Q 656.303604 308.808812 656.807525 311.155312 
z
" style="fill:#ffffff;stroke:#ffffff;stroke-linejoin:miter;"/>
    </g>
    <g clip-path="url(#pfd3e543198)">
     <!-- C -->
     <g transform="translate(660.780688 310.302058)rotate(-282.120429)scale(0.08 -0.08)">
      <use xlink:href="#DejaVuSans-67"/>
     </g>
    </g>
   </g>
   <g id="text_33">
    <g id="patch_34">
     <path clip-path="url(#pfd3e543198)" d="M 766.56946 408.043489 
L 766.56946 443.328489 
Q 766.56946 445.728489 768.96946 445.728489 
L 776.71196 445.728489 
Q 779.11196 445.728489 779.11196 443.328489 
L 779.11196 408.043489 
Q 779.11196 405.643489 776.71196 405.643489 
L 768.96946 405.643489 
Q 766.56946 405.643489 766.56946 408.043489 
z
" style="fill:#ffffff;stroke:#ffffff;stroke-linejoin:miter;"/>
    </g>
    <g clip-path="url(#pfd3e543198)">
     <!-- Terminal -->
     <g transform="translate(770.63321 408.043489)rotate(-270)scale(0.08 -0.08)">
      <use xlink:href="#DejaVuSans-84"/>
      <use x="60.818359" xlink:href="#DejaVuSans-101"/>
      <use x="122.341797" xlink:href="#DejaVuSans-114"/>
      <use x="163.439453" xlink:href="#DejaVuSans-109"/>
      <use x="260.851562" xlink:href="#DejaVuSans-105"/>
      <use x="288.634766" xlink:href="#DejaVuSans-110"/>
      <use x="352.013672" xlink:href="#DejaVuSans-97"/>
      <use x="413.292969" xlink:href="#DejaVuSans-108"/>
     </g>
    </g>
   </g>
   <g id="text_34">
    <g id="patch_35">
     <path clip-path="url(#pfd3e543198)" d="M 850.382914 317.598128 
L 852.576657 312.490565 
Q 853.523809 310.285366 851.31861 309.338214 
L 844.204547 306.282661 
Q 841.999348 305.335509 841.052195 307.540708 
L 838.858452 312.64827 
Q 837.9113 314.853469 840.116499 315.800621 
L 847.230563 318.856174 
Q 849.435762 319.803327 850.382914 317.598128 
z
" style="fill:#ffffff;stroke:#ffffff;stroke-linejoin:miter;"/>
    </g>
    <g clip-path="url(#pfd3e543198)">
     <!-- R -->
     <g transform="translate(846.649007 315.994382)rotate(-66.756051)scale(0.08 -0.08)">
      <use xlink:href="#DejaVuSans-82"/>
     </g>
    </g>
   </g>
   <g id="text_35">
    <g id="patch_36">
     <path clip-path="url(#pfd3e543198)" d="M 863.738586 309.776293 
L 863.738586 315.362543 
Q 863.738586 317.762543 866.138586 317.762543 
L 873.881086 317.762543 
Q 876.281086 317.762543 876.281086 315.362543 
L 876.281086 309.776293 
Q 876.281086 307.376293 873.881086 307.376293 
L 866.138586 307.376293 
Q 863.738586 307.376293 863.738586 309.776293 
z
" style="fill:#ffffff;stroke:#ffffff;stroke-linejoin:miter;"/>
    </g>
    <g clip-path="url(#pfd3e543198)">
     <!-- C -->
     <g transform="translate(867.802336 309.776293)rotate(-270)scale(0.08 -0.08)">
      <use xlink:href="#DejaVuSans-67"/>
     </g>
    </g>
   </g>
   <g id="text_36">
    <g id="patch_37">
     <path clip-path="url(#pfd3e543198)" d="M 887.384558 312.354463 
L 889.695215 317.73423 
Q 890.642368 319.939429 892.847567 318.992276 
L 899.96163 315.936723 
Q 902.166829 314.989571 901.219677 312.784372 
L 898.90902 307.404605 
Q 897.961868 305.199407 895.756669 306.146559 
L 888.642605 309.202112 
Q 886.437406 310.149264 887.384558 312.354463 
z
" style="fill:#ffffff;stroke:#ffffff;stroke-linejoin:miter;"/>
    </g>
    <g clip-path="url(#pfd3e543198)">
     <!-- U -->
     <g transform="translate(891.118465 310.750717)rotate(-293.243949)scale(0.08 -0.08)">
      <use xlink:href="#DejaVuSans-85"/>
     </g>
    </g>
   </g>
   <g id="text_37">
    <g id="patch_38">
     <path clip-path="url(#pfd3e543198)" d="M 815.154023 408.043489 
L 815.154023 443.328489 
Q 815.154023 445.728489 817.554023 445.728489 
L 825.296523 445.728489 
Q 827.696523 445.728489 827.696523 443.328489 
L 827.696523 408.043489 
Q 827.696523 405.643489 825.296523 405.643489 
L 817.554023 405.643489 
Q 815.154023 405.643489 815.154023 408.043489 
z
" style="fill:#ffffff;stroke:#ffffff;stroke-linejoin:miter;"/>
    </g>
    <g clip-path="url(#pfd3e543198)">
     <!-- Terminal -->
     <g transform="translate(819.217773 408.043489)rotate(-270)scale(0.08 -0.08)">
      <use xlink:href="#DejaVuSans-84"/>
      <use x="60.818359" xlink:href="#DejaVuSans-101"/>
      <use x="122.341797" xlink:href="#DejaVuSans-114"/>
      <use x="163.439453" xlink:href="#DejaVuSans-109"/>
      <use x="260.851562" xlink:href="#DejaVuSans-105"/>
      <use x="288.634766" xlink:href="#DejaVuSans-110"/>
      <use x="352.013672" xlink:href="#DejaVuSans-97"/>
      <use x="413.292969" xlink:href="#DejaVuSans-108"/>
     </g>
    </g>
   </g>
   <g id="text_38">
    <g id="patch_39">
     <path clip-path="url(#pfd3e543198)" d="M 863.738586 408.043489 
L 863.738586 443.328489 
Q 863.738586 445.728489 866.138586 445.728489 
L 873.881086 445.728489 
Q 876.281086 445.728489 876.281086 443.328489 
L 876.281086 408.043489 
Q 876.281086 405.643489 873.881086 405.643489 
L 866.138586 405.643489 
Q 863.738586 405.643489 863.738586 408.043489 
z
" style="fill:#ffffff;stroke:#ffffff;stroke-linejoin:miter;"/>
    </g>
    <g clip-path="url(#pfd3e543198)">
     <!-- Terminal -->
     <g transform="translate(867.802336 408.043489)rotate(-270)scale(0.08 -0.08)">
      <use xlink:href="#DejaVuSans-84"/>
      <use x="60.818359" xlink:href="#DejaVuSans-101"/>
      <use x="122.341797" xlink:href="#DejaVuSans-114"/>
      <use x="163.439453" xlink:href="#DejaVuSans-109"/>
      <use x="260.851562" xlink:href="#DejaVuSans-105"/>
      <use x="288.634766" xlink:href="#DejaVuSans-110"/>
      <use x="352.013672" xlink:href="#DejaVuSans-97"/>
      <use x="413.292969" xlink:href="#DejaVuSans-108"/>
     </g>
    </g>
   </g>
   <g id="text_39">
    <g id="patch_40">
     <path clip-path="url(#pfd3e543198)" d="M 620.815772 408.043489 
L 620.815772 443.328489 
Q 620.815772 445.728489 623.215772 445.728489 
L 630.958272 445.728489 
Q 633.358272 445.728489 633.358272 443.328489 
L 633.358272 408.043489 
Q 633.358272 405.643489 630.958272 405.643489 
L 623.215772 405.643489 
Q 620.815772 405.643489 620.815772 408.043489 
z
" style="fill:#ffffff;stroke:#ffffff;stroke-linejoin:miter;"/>
    </g>
    <g clip-path="url(#pfd3e543198)">
     <!-- Terminal -->
     <g transform="translate(624.879522 408.043489)rotate(-270)scale(0.08 -0.08)">
      <use xlink:href="#DejaVuSans-84"/>
      <use x="60.818359" xlink:href="#DejaVuSans-101"/>
      <use x="122.341797" xlink:href="#DejaVuSans-114"/>
      <use x="163.439453" xlink:href="#DejaVuSans-109"/>
      <use x="260.851562" xlink:href="#DejaVuSans-105"/>
      <use x="288.634766" xlink:href="#DejaVuSans-110"/>
      <use x="352.013672" xlink:href="#DejaVuSans-97"/>
      <use x="413.292969" xlink:href="#DejaVuSans-108"/>
     </g>
    </g>
   </g>
   <g id="text_40">
    <g id="patch_41">
     <path clip-path="url(#pfd3e543198)" d="M 669.400335 408.043489 
L 669.400335 443.328489 
Q 669.400335 445.728489 671.800335 445.728489 
L 679.542835 445.728489 
Q 681.942835 445.728489 681.942835 443.328489 
L 681.942835 408.043489 
Q 681.942835 405.643489 679.542835 405.643489 
L 671.800335 405.643489 
Q 669.400335 405.643489 669.400335 408.043489 
z
" style="fill:#ffffff;stroke:#ffffff;stroke-linejoin:miter;"/>
    </g>
    <g clip-path="url(#pfd3e543198)">
     <!-- Terminal -->
     <g transform="translate(673.464085 408.043489)rotate(-270)scale(0.08 -0.08)">
      <use xlink:href="#DejaVuSans-84"/>
      <use x="60.818359" xlink:href="#DejaVuSans-101"/>
      <use x="122.341797" xlink:href="#DejaVuSans-114"/>
      <use x="163.439453" xlink:href="#DejaVuSans-109"/>
      <use x="260.851562" xlink:href="#DejaVuSans-105"/>
      <use x="288.634766" xlink:href="#DejaVuSans-110"/>
      <use x="352.013672" xlink:href="#DejaVuSans-97"/>
      <use x="413.292969" xlink:href="#DejaVuSans-108"/>
     </g>
    </g>
   </g>
   <g id="text_41">
    <g id="patch_42">
     <path clip-path="url(#pfd3e543198)" d="M 400.35443 84.069923 
L 407.617493 90.845059 
Q 409.372475 92.482142 411.009557 90.727161 
L 416.290855 85.065518 
Q 417.927938 83.310536 416.172957 81.673453 
L 408.909893 74.898318 
Q 407.154912 73.261235 405.517829 75.016216 
L 400.236531 80.677859 
Q 398.599448 82.43284 400.35443 84.069923 
z
" style="fill:#ffffff;stroke:#ffffff;stroke-linejoin:miter;"/>
    </g>
    <g clip-path="url(#pfd3e543198)">
     <!-- LA -->
     <g transform="translate(403.126386 81.098338)rotate(-316.990636)scale(0.08 -0.08)">
      <use xlink:href="#DejaVuSans-76"/>
      <use x="55.744141" xlink:href="#DejaVuSans-65"/>
     </g>
    </g>
   </g>
   <g id="text_42">
    <g id="patch_43">
     <path clip-path="url(#pfd3e543198)" d="M 271.367829 203.921399 
L 275.492709 194.793934 
Q 276.481074 192.606896 274.294036 191.618531 
L 267.238561 188.430024 
Q 265.051523 187.441658 264.063158 189.628696 
L 259.938278 198.756162 
Q 258.949913 200.943199 261.136951 201.931565 
L 268.192426 205.120072 
Q 270.379463 206.108437 271.367829 203.921399 
z
" style="fill:#ffffff;stroke:#ffffff;stroke-linejoin:miter;"/>
    </g>
    <g clip-path="url(#pfd3e543198)">
     <!-- LR -->
     <g transform="translate(267.664672 202.24787)rotate(-65.680858)scale(0.08 -0.08)">
      <use xlink:href="#DejaVuSans-76"/>
      <use x="55.712891" xlink:href="#DejaVuSans-82"/>
     </g>
    </g>
   </g>
   <g id="text_43">
    <g id="patch_44">
     <path clip-path="url(#pfd3e543198)" d="M 353.515011 79.647293 
L 356.01961 89.258825 
Q 356.624799 91.581269 358.947243 90.97608 
L 366.439544 89.023716 
Q 368.761989 88.418528 368.1568 86.096084 
L 365.652201 76.484552 
Q 365.047012 74.162108 362.724568 74.767296 
L 355.232267 76.719661 
Q 352.909823 77.324849 353.515011 79.647293 
z
" style="fill:#ffffff;stroke:#ffffff;stroke-linejoin:miter;"/>
    </g>
    <g clip-path="url(#pfd3e543198)">
     <!-- LA -->
     <g transform="translate(357.447441 78.62257)rotate(-284.605483)scale(0.08 -0.08)">
      <use xlink:href="#DejaVuSans-76"/>
      <use x="55.744141" xlink:href="#DejaVuSans-65"/>
     </g>
    </g>
   </g>
   <g id="text_44">
    <g id="patch_45">
     <path clip-path="url(#pfd3e543198)" d="M 523.646646 408.043489 
L 523.646646 443.328489 
Q 523.646646 445.728489 526.046646 445.728489 
L 533.789146 445.728489 
Q 536.189146 445.728489 536.189146 443.328489 
L 536.189146 408.043489 
Q 536.189146 405.643489 533.789146 405.643489 
L 526.046646 405.643489 
Q 523.646646 405.643489 523.646646 408.043489 
z
" style="fill:#ffffff;stroke:#ffffff;stroke-linejoin:miter;"/>
    </g>
    <g clip-path="url(#pfd3e543198)">
     <!-- Terminal -->
     <g transform="translate(527.710396 408.043489)rotate(-270)scale(0.08 -0.08)">
      <use xlink:href="#DejaVuSans-84"/>
      <use x="60.818359" xlink:href="#DejaVuSans-101"/>
      <use x="122.341797" xlink:href="#DejaVuSans-114"/>
      <use x="163.439453" xlink:href="#DejaVuSans-109"/>
      <use x="260.851562" xlink:href="#DejaVuSans-105"/>
      <use x="288.634766" xlink:href="#DejaVuSans-110"/>
      <use x="352.013672" xlink:href="#DejaVuSans-97"/>
      <use x="413.292969" xlink:href="#DejaVuSans-108"/>
     </g>
    </g>
   </g>
   <g id="text_45">
    <g id="patch_46">
     <path clip-path="url(#pfd3e543198)" d="M 572.231209 408.043489 
L 572.231209 443.328489 
Q 572.231209 445.728489 574.631209 445.728489 
L 582.373709 445.728489 
Q 584.773709 445.728489 584.773709 443.328489 
L 584.773709 408.043489 
Q 584.773709 405.643489 582.373709 405.643489 
L 574.631209 405.643489 
Q 572.231209 405.643489 572.231209 408.043489 
z
" style="fill:#ffffff;stroke:#ffffff;stroke-linejoin:miter;"/>
    </g>
    <g clip-path="url(#pfd3e543198)">
     <!-- Terminal -->
     <g transform="translate(576.294959 408.043489)rotate(-270)scale(0.08 -0.08)">
      <use xlink:href="#DejaVuSans-84"/>
      <use x="60.818359" xlink:href="#DejaVuSans-101"/>
      <use x="122.341797" xlink:href="#DejaVuSans-114"/>
      <use x="163.439453" xlink:href="#DejaVuSans-109"/>
      <use x="260.851562" xlink:href="#DejaVuSans-105"/>
      <use x="288.634766" xlink:href="#DejaVuSans-110"/>
      <use x="352.013672" xlink:href="#DejaVuSans-97"/>
      <use x="413.292969" xlink:href="#DejaVuSans-108"/>
     </g>
    </g>
   </g>
   <g id="text_46">
    <g id="patch_47">
     <path clip-path="url(#pfd3e543198)" d="M 717.984898 408.043489 
L 717.984898 443.328489 
Q 717.984898 445.728489 720.384898 445.728489 
L 728.127398 445.728489 
Q 730.527398 445.728489 730.527398 443.328489 
L 730.527398 408.043489 
Q 730.527398 405.643489 728.127398 405.643489 
L 720.384898 405.643489 
Q 717.984898 405.643489 717.984898 408.043489 
z
" style="fill:#ffffff;stroke:#ffffff;stroke-linejoin:miter;"/>
    </g>
    <g clip-path="url(#pfd3e543198)">
     <!-- Terminal -->
     <g transform="translate(722.048648 408.043489)rotate(-270)scale(0.08 -0.08)">
      <use xlink:href="#DejaVuSans-84"/>
      <use x="60.818359" xlink:href="#DejaVuSans-101"/>
      <use x="122.341797" xlink:href="#DejaVuSans-114"/>
      <use x="163.439453" xlink:href="#DejaVuSans-109"/>
      <use x="260.851562" xlink:href="#DejaVuSans-105"/>
      <use x="288.634766" xlink:href="#DejaVuSans-110"/>
      <use x="352.013672" xlink:href="#DejaVuSans-97"/>
      <use x="413.292969" xlink:href="#DejaVuSans-108"/>
     </g>
    </g>
   </g>
   <g id="text_47">
    <g id="patch_48">
     <path clip-path="url(#pfd3e543198)" d="M 912.323149 408.043489 
L 912.323149 443.328489 
Q 912.323149 445.728489 914.723149 445.728489 
L 922.465649 445.728489 
Q 924.865649 445.728489 924.865649 443.328489 
L 924.865649 408.043489 
Q 924.865649 405.643489 922.465649 405.643489 
L 914.723149 405.643489 
Q 912.323149 405.643489 912.323149 408.043489 
z
" style="fill:#ffffff;stroke:#ffffff;stroke-linejoin:miter;"/>
    </g>
    <g clip-path="url(#pfd3e543198)">
     <!-- Terminal -->
     <g transform="translate(916.386899 408.043489)rotate(-270)scale(0.08 -0.08)">
      <use xlink:href="#DejaVuSans-84"/>
      <use x="60.818359" xlink:href="#DejaVuSans-101"/>
      <use x="122.341797" xlink:href="#DejaVuSans-114"/>
      <use x="163.439453" xlink:href="#DejaVuSans-109"/>
      <use x="260.851562" xlink:href="#DejaVuSans-105"/>
      <use x="288.634766" xlink:href="#DejaVuSans-110"/>
      <use x="352.013672" xlink:href="#DejaVuSans-97"/>
      <use x="413.292969" xlink:href="#DejaVuSans-108"/>
     </g>
    </g>
   </g>
   <g id="PathCollection_1">
    <defs>
     <path d="M 0 8.660254 
C 2.296726 8.660254 4.499694 7.747755 6.123724 6.123724 
C 7.747755 4.499694 8.660254 2.296726 8.660254 0 
C 8.660254 -2.296726 7.747755 -4.499694 6.123724 -6.123724 
C 4.499694 -7.747755 2.296726 -8.660254 0 -8.660254 
C -2.296726 -8.660254 -4.499694 -7.747755 -6.123724 -6.123724 
C -7.747755 -4.499694 -8.660254 -2.296726 -8.660254 0 
C -8.660254 2.296726 -7.747755 4.499694 -6.123724 6.123724 
C -4.499694 7.747755 -2.296726 8.660254 0 8.660254 
z
" id="C0_0_b453a79d81"/>
    </defs>
    <g clip-path="url(#pfd3e543198)">
     <use style="fill:#ffffff;stroke:#ffffff;" x="44.072268" xlink:href="#C0_0_b453a79d81" y="482.244275"/>
    </g>
    <g clip-path="url(#pfd3e543198)">
     <use style="fill:#ffffff;stroke:#ffffff;" x="92.65683" xlink:href="#C0_0_b453a79d81" y="482.244275"/>
    </g>
    <g clip-path="url(#pfd3e543198)">
     <use style="fill:#ffffff;stroke:#ffffff;" x="141.241393" xlink:href="#C0_0_b453a79d81" y="482.244275"/>
    </g>
    <g clip-path="url(#pfd3e543198)">
     <use style="fill:#ffffff;stroke:#ffffff;" x="189.825956" xlink:href="#C0_0_b453a79d81" y="482.244275"/>
    </g>
    <g clip-path="url(#pfd3e543198)">
     <use style="fill:#ffffff;stroke:#ffffff;" x="238.410519" xlink:href="#C0_0_b453a79d81" y="482.244275"/>
    </g>
    <g clip-path="url(#pfd3e543198)">
     <use style="fill:#ffffff;stroke:#ffffff;" x="286.995082" xlink:href="#C0_0_b453a79d81" y="482.244275"/>
    </g>
    <g clip-path="url(#pfd3e543198)">
     <use style="fill:#ffffff;stroke:#ffffff;" x="335.579645" xlink:href="#C0_0_b453a79d81" y="482.244275"/>
    </g>
    <g clip-path="url(#pfd3e543198)">
     <use style="fill:#ffffff;stroke:#ffffff;" x="384.164208" xlink:href="#C0_0_b453a79d81" y="482.244275"/>
    </g>
    <g clip-path="url(#pfd3e543198)">
     <use style="fill:#ffffff;stroke:#ffffff;" x="432.74877" xlink:href="#C0_0_b453a79d81" y="482.244275"/>
    </g>
    <g clip-path="url(#pfd3e543198)">
     <use style="fill:#ffffff;stroke:#ffffff;" x="481.333333" xlink:href="#C0_0_b453a79d81" y="482.244275"/>
    </g>
    <g clip-path="url(#pfd3e543198)">
     <use style="fill:#ffffff;stroke:#ffffff;" x="529.917896" xlink:href="#C0_0_b453a79d81" y="482.244275"/>
    </g>
    <g clip-path="url(#pfd3e543198)">
     <use style="fill:#ffffff;stroke:#ffffff;" x="578.502459" xlink:href="#C0_0_b453a79d81" y="482.244275"/>
    </g>
    <g clip-path="url(#pfd3e543198)">
     <use style="fill:#ffffff;stroke:#ffffff;" x="627.087022" xlink:href="#C0_0_b453a79d81" y="482.244275"/>
    </g>
    <g clip-path="url(#pfd3e543198)">
     <use style="fill:#ffffff;stroke:#ffffff;" x="675.671585" xlink:href="#C0_0_b453a79d81" y="482.244275"/>
    </g>
    <g clip-path="url(#pfd3e543198)">
     <use style="fill:#ffffff;stroke:#ffffff;" x="724.256148" xlink:href="#C0_0_b453a79d81" y="482.244275"/>
    </g>
    <g clip-path="url(#pfd3e543198)">
     <use style="fill:#ffffff;stroke:#ffffff;" x="772.84071" xlink:href="#C0_0_b453a79d81" y="482.244275"/>
    </g>
    <g clip-path="url(#pfd3e543198)">
     <use style="fill:#ffffff;stroke:#ffffff;" x="821.425273" xlink:href="#C0_0_b453a79d81" y="482.244275"/>
    </g>
    <g clip-path="url(#pfd3e543198)">
     <use style="fill:#ffffff;stroke:#ffffff;" x="870.009836" xlink:href="#C0_0_b453a79d81" y="482.244275"/>
    </g>
    <g clip-path="url(#pfd3e543198)">
     <use style="fill:#ffffff;stroke:#ffffff;" x="918.594399" xlink:href="#C0_0_b453a79d81" y="482.244275"/>
    </g>
    <g clip-path="url(#pfd3e543198)">
     <use style="fill:#ffffff;stroke:#ffffff;" x="429.047089" xlink:href="#C0_0_b453a79d81" y="24.422392"/>
    </g>
    <g clip-path="url(#pfd3e543198)">
     <use style="fill:#ffffff;stroke:#ffffff;" x="470.922356" xlink:href="#C0_0_b453a79d81" y="141.320985"/>
    </g>
    <g clip-path="url(#pfd3e543198)">
     <use style="fill:#ffffff;stroke:#ffffff;" x="189.825956" xlink:href="#C0_0_b453a79d81" y="369.127703"/>
    </g>
    <g clip-path="url(#pfd3e543198)">
     <use style="fill:#ffffff;stroke:#ffffff;" x="376.06678" xlink:href="#C0_0_b453a79d81" y="141.320985"/>
    </g>
    <g clip-path="url(#pfd3e543198)">
     <use style="fill:#ffffff;stroke:#ffffff;" x="286.995082" xlink:href="#C0_0_b453a79d81" y="256.011132"/>
    </g>
    <g clip-path="url(#pfd3e543198)">
     <use style="fill:#ffffff;stroke:#ffffff;" x="384.164208" xlink:href="#C0_0_b453a79d81" y="369.127703"/>
    </g>
    <g clip-path="url(#pfd3e543198)">
     <use style="fill:#ffffff;stroke:#ffffff;" x="457.041052" xlink:href="#C0_0_b453a79d81" y="256.011132"/>
    </g>
    <g clip-path="url(#pfd3e543198)">
     <use style="fill:#ffffff;stroke:#ffffff;" x="432.74877" xlink:href="#C0_0_b453a79d81" y="369.127703"/>
    </g>
    <g clip-path="url(#pfd3e543198)">
     <use style="fill:#ffffff;stroke:#ffffff;" x="481.333333" xlink:href="#C0_0_b453a79d81" y="369.127703"/>
    </g>
    <g clip-path="url(#pfd3e543198)">
     <use style="fill:#ffffff;stroke:#ffffff;" x="238.410519" xlink:href="#C0_0_b453a79d81" y="369.127703"/>
    </g>
    <g clip-path="url(#pfd3e543198)">
     <use style="fill:#ffffff;stroke:#ffffff;" x="286.995082" xlink:href="#C0_0_b453a79d81" y="369.127703"/>
    </g>
    <g clip-path="url(#pfd3e543198)">
     <use style="fill:#ffffff;stroke:#ffffff;" x="335.579645" xlink:href="#C0_0_b453a79d81" y="369.127703"/>
    </g>
    <g clip-path="url(#pfd3e543198)">
     <use style="fill:#ffffff;stroke:#ffffff;" x="44.072268" xlink:href="#C0_0_b453a79d81" y="369.127703"/>
    </g>
    <g clip-path="url(#pfd3e543198)">
     <use style="fill:#ffffff;stroke:#ffffff;" x="92.65683" xlink:href="#C0_0_b453a79d81" y="369.127703"/>
    </g>
    <g clip-path="url(#pfd3e543198)">
     <use style="fill:#ffffff;stroke:#ffffff;" x="141.241393" xlink:href="#C0_0_b453a79d81" y="369.127703"/>
    </g>
    <g clip-path="url(#pfd3e543198)">
     <use style="fill:#ffffff;stroke:#ffffff;" x="651.379303" xlink:href="#C0_0_b453a79d81" y="256.011132"/>
    </g>
    <g clip-path="url(#pfd3e543198)">
     <use style="fill:#ffffff;stroke:#ffffff;" x="772.84071" xlink:href="#C0_0_b453a79d81" y="369.127703"/>
    </g>
    <g clip-path="url(#pfd3e543198)">
     <use style="fill:#ffffff;stroke:#ffffff;" x="870.009836" xlink:href="#C0_0_b453a79d81" y="256.011132"/>
    </g>
    <g clip-path="url(#pfd3e543198)">
     <use style="fill:#ffffff;stroke:#ffffff;" x="821.425273" xlink:href="#C0_0_b453a79d81" y="369.127703"/>
    </g>
    <g clip-path="url(#pfd3e543198)">
     <use style="fill:#ffffff;stroke:#ffffff;" x="870.009836" xlink:href="#C0_0_b453a79d81" y="369.127703"/>
    </g>
    <g clip-path="url(#pfd3e543198)">
     <use style="fill:#ffffff;stroke:#ffffff;" x="627.087022" xlink:href="#C0_0_b453a79d81" y="369.127703"/>
    </g>
    <g clip-path="url(#pfd3e543198)">
     <use style="fill:#ffffff;stroke:#ffffff;" x="675.671585" xlink:href="#C0_0_b453a79d81" y="369.127703"/>
    </g>
    <g clip-path="url(#pfd3e543198)">
     <use style="fill:#808080;stroke:#808080;" x="345.605031" xlink:href="#C0_0_b453a79d81" y="24.422392"/>
    </g>
    <g clip-path="url(#pfd3e543198)">
     <use style="fill:#ffffff;stroke:#ffffff;" x="529.917896" xlink:href="#C0_0_b453a79d81" y="369.127703"/>
    </g>
    <g clip-path="url(#pfd3e543198)">
     <use style="fill:#ffffff;stroke:#ffffff;" x="578.502459" xlink:href="#C0_0_b453a79d81" y="369.127703"/>
    </g>
    <g clip-path="url(#pfd3e543198)">
     <use style="fill:#ffffff;stroke:#ffffff;" x="724.256148" xlink:href="#C0_0_b453a79d81" y="369.127703"/>
    </g>
    <g clip-path="url(#pfd3e543198)">
     <use style="fill:#ffffff;stroke:#ffffff;" x="918.594399" xlink:href="#C0_0_b453a79d81" y="369.127703"/>
    </g>
   </g>
   <g id="text_48">
    <g clip-path="url(#pfd3e543198)">
     <!-- Il -->
     <defs>
      <path d="M 9.8125 72.90625 
L 19.671875 72.90625 
L 19.671875 0 
L 9.8125 0 
z
" id="DejaVuSans-73"/>
     </defs>
     <g transform="translate(41.208205 485.00365)scale(0.1 -0.1)">
      <use xlink:href="#DejaVuSans-73"/>
      <use x="29.492188" xlink:href="#DejaVuSans-108"/>
     </g>
    </g>
   </g>
   <g id="text_49">
    <g clip-path="url(#pfd3e543198)">
     <!-- y -->
     <defs>
      <path d="M 32.171875 -5.078125 
Q 28.375 -14.84375 24.75 -17.8125 
Q 21.140625 -20.796875 15.09375 -20.796875 
L 7.90625 -20.796875 
L 7.90625 -13.28125 
L 13.1875 -13.28125 
Q 16.890625 -13.28125 18.9375 -11.515625 
Q 21 -9.765625 23.484375 -3.21875 
L 25.09375 0.875 
L 2.984375 54.6875 
L 12.5 54.6875 
L 29.59375 11.921875 
L 46.6875 54.6875 
L 56.203125 54.6875 
z
" id="DejaVuSans-121"/>
     </defs>
     <g transform="translate(89.697455 485.00365)scale(0.1 -0.1)">
      <use xlink:href="#DejaVuSans-121"/>
     </g>
    </g>
   </g>
   <g id="text_50">
    <g clip-path="url(#pfd3e543198)">
     <!-- croyait -->
     <defs>
      <path d="M 48.78125 52.59375 
L 48.78125 44.1875 
Q 44.96875 46.296875 41.140625 47.34375 
Q 37.3125 48.390625 33.40625 48.390625 
Q 24.65625 48.390625 19.8125 42.84375 
Q 14.984375 37.3125 14.984375 27.296875 
Q 14.984375 17.28125 19.8125 11.734375 
Q 24.65625 6.203125 33.40625 6.203125 
Q 37.3125 6.203125 41.140625 7.25 
Q 44.96875 8.296875 48.78125 10.40625 
L 48.78125 2.09375 
Q 45.015625 0.34375 40.984375 -0.53125 
Q 36.96875 -1.421875 32.421875 -1.421875 
Q 20.0625 -1.421875 12.78125 6.34375 
Q 5.515625 14.109375 5.515625 27.296875 
Q 5.515625 40.671875 12.859375 48.328125 
Q 20.21875 56 33.015625 56 
Q 37.15625 56 41.109375 55.140625 
Q 45.0625 54.296875 48.78125 52.59375 
z
" id="DejaVuSans-99"/>
      <path d="M 30.609375 48.390625 
Q 23.390625 48.390625 19.1875 42.75 
Q 14.984375 37.109375 14.984375 27.296875 
Q 14.984375 17.484375 19.15625 11.84375 
Q 23.34375 6.203125 30.609375 6.203125 
Q 37.796875 6.203125 41.984375 11.859375 
Q 46.1875 17.53125 46.1875 27.296875 
Q 46.1875 37.015625 41.984375 42.703125 
Q 37.796875 48.390625 30.609375 48.390625 
z
M 30.609375 56 
Q 42.328125 56 49.015625 48.375 
Q 55.71875 40.765625 55.71875 27.296875 
Q 55.71875 13.875 49.015625 6.21875 
Q 42.328125 -1.421875 30.609375 -1.421875 
Q 18.84375 -1.421875 12.171875 6.21875 
Q 5.515625 13.875 5.515625 27.296875 
Q 5.515625 40.765625 12.171875 48.375 
Q 18.84375 56 30.609375 56 
z
" id="DejaVuSans-111"/>
      <path d="M 18.3125 70.21875 
L 18.3125 54.6875 
L 36.8125 54.6875 
L 36.8125 47.703125 
L 18.3125 47.703125 
L 18.3125 18.015625 
Q 18.3125 11.328125 20.140625 9.421875 
Q 21.96875 7.515625 27.59375 7.515625 
L 36.8125 7.515625 
L 36.8125 0 
L 27.59375 0 
Q 17.1875 0 13.234375 3.875 
Q 9.28125 7.765625 9.28125 18.015625 
L 9.28125 47.703125 
L 2.6875 47.703125 
L 2.6875 54.6875 
L 9.28125 54.6875 
L 9.28125 70.21875 
z
" id="DejaVuSans-116"/>
     </defs>
     <g transform="translate(124.006237 485.00365)scale(0.1 -0.1)">
      <use xlink:href="#DejaVuSans-99"/>
      <use x="54.980469" xlink:href="#DejaVuSans-114"/>
      <use x="96.0625" xlink:href="#DejaVuSans-111"/>
      <use x="157.244141" xlink:href="#DejaVuSans-121"/>
      <use x="216.423828" xlink:href="#DejaVuSans-97"/>
      <use x="277.703125" xlink:href="#DejaVuSans-105"/>
      <use x="305.486328" xlink:href="#DejaVuSans-116"/>
     </g>
    </g>
   </g>
   <g id="text_51">
    <g clip-path="url(#pfd3e543198)">
     <!-- comme -->
     <g transform="translate(171.200175 485.00365)scale(0.1 -0.1)">
      <use xlink:href="#DejaVuSans-99"/>
      <use x="54.980469" xlink:href="#DejaVuSans-111"/>
      <use x="116.162109" xlink:href="#DejaVuSans-109"/>
      <use x="213.574219" xlink:href="#DejaVuSans-109"/>
      <use x="310.986328" xlink:href="#DejaVuSans-101"/>
     </g>
    </g>
   </g>
   <g id="text_52">
    <g clip-path="url(#pfd3e543198)">
     <!-- certaines -->
     <defs>
      <path d="M 44.28125 53.078125 
L 44.28125 44.578125 
Q 40.484375 46.53125 36.375 47.5 
Q 32.28125 48.484375 27.875 48.484375 
Q 21.1875 48.484375 17.84375 46.4375 
Q 14.5 44.390625 14.5 40.28125 
Q 14.5 37.15625 16.890625 35.375 
Q 19.28125 33.59375 26.515625 31.984375 
L 29.59375 31.296875 
Q 39.15625 29.25 43.1875 25.515625 
Q 47.21875 21.78125 47.21875 15.09375 
Q 47.21875 7.46875 41.1875 3.015625 
Q 35.15625 -1.421875 24.609375 -1.421875 
Q 20.21875 -1.421875 15.453125 -0.5625 
Q 10.6875 0.296875 5.421875 2 
L 5.421875 11.28125 
Q 10.40625 8.6875 15.234375 7.390625 
Q 20.0625 6.109375 24.8125 6.109375 
Q 31.15625 6.109375 34.5625 8.28125 
Q 37.984375 10.453125 37.984375 14.40625 
Q 37.984375 18.0625 35.515625 20.015625 
Q 33.0625 21.96875 24.703125 23.78125 
L 21.578125 24.515625 
Q 13.234375 26.265625 9.515625 29.90625 
Q 5.8125 33.546875 5.8125 39.890625 
Q 5.8125 47.609375 11.28125 51.796875 
Q 16.75 56 26.8125 56 
Q 31.78125 56 36.171875 55.265625 
Q 40.578125 54.546875 44.28125 53.078125 
z
" id="DejaVuSans-115"/>
     </defs>
     <g transform="translate(215.265988 485.00365)scale(0.1 -0.1)">
      <use xlink:href="#DejaVuSans-99"/>
      <use x="54.980469" xlink:href="#DejaVuSans-101"/>
      <use x="116.503906" xlink:href="#DejaVuSans-114"/>
      <use x="157.617188" xlink:href="#DejaVuSans-116"/>
      <use x="196.826172" xlink:href="#DejaVuSans-97"/>
      <use x="258.105469" xlink:href="#DejaVuSans-105"/>
      <use x="285.888672" xlink:href="#DejaVuSans-110"/>
      <use x="349.267578" xlink:href="#DejaVuSans-101"/>
      <use x="410.791016" xlink:href="#DejaVuSans-115"/>
     </g>
    </g>
   </g>
   <g id="text_53">
    <g clip-path="url(#pfd3e543198)">
     <!-- bonnes -->
     <defs>
      <path d="M 48.6875 27.296875 
Q 48.6875 37.203125 44.609375 42.84375 
Q 40.53125 48.484375 33.40625 48.484375 
Q 26.265625 48.484375 22.1875 42.84375 
Q 18.109375 37.203125 18.109375 27.296875 
Q 18.109375 17.390625 22.1875 11.75 
Q 26.265625 6.109375 33.40625 6.109375 
Q 40.53125 6.109375 44.609375 11.75 
Q 48.6875 17.390625 48.6875 27.296875 
z
M 18.109375 46.390625 
Q 20.953125 51.265625 25.265625 53.625 
Q 29.59375 56 35.59375 56 
Q 45.5625 56 51.78125 48.09375 
Q 58.015625 40.1875 58.015625 27.296875 
Q 58.015625 14.40625 51.78125 6.484375 
Q 45.5625 -1.421875 35.59375 -1.421875 
Q 29.59375 -1.421875 25.265625 0.953125 
Q 20.953125 3.328125 18.109375 8.203125 
L 18.109375 0 
L 9.078125 0 
L 9.078125 75.984375 
L 18.109375 75.984375 
z
" id="DejaVuSans-98"/>
     </defs>
     <g transform="translate(268.742738 485.00365)scale(0.1 -0.1)">
      <use xlink:href="#DejaVuSans-98"/>
      <use x="63.476562" xlink:href="#DejaVuSans-111"/>
      <use x="124.658203" xlink:href="#DejaVuSans-110"/>
      <use x="188.037109" xlink:href="#DejaVuSans-110"/>
      <use x="251.416016" xlink:href="#DejaVuSans-101"/>
      <use x="312.939453" xlink:href="#DejaVuSans-115"/>
     </g>
    </g>
   </g>
   <g id="text_54">
    <g clip-path="url(#pfd3e543198)">
     <!-- femmes -->
     <defs>
      <path d="M 37.109375 75.984375 
L 37.109375 68.5 
L 28.515625 68.5 
Q 23.6875 68.5 21.796875 66.546875 
Q 19.921875 64.59375 19.921875 59.515625 
L 19.921875 54.6875 
L 34.71875 54.6875 
L 34.71875 47.703125 
L 19.921875 47.703125 
L 19.921875 0 
L 10.890625 0 
L 10.890625 47.703125 
L 2.296875 47.703125 
L 2.296875 54.6875 
L 10.890625 54.6875 
L 10.890625 58.5 
Q 10.890625 67.625 15.140625 71.796875 
Q 19.390625 75.984375 28.609375 75.984375 
z
" id="DejaVuSans-102"/>
     </defs>
     <g transform="translate(315.321051 485.00365)scale(0.1 -0.1)">
      <use xlink:href="#DejaVuSans-102"/>
      <use x="35.205078" xlink:href="#DejaVuSans-101"/>
      <use x="96.728516" xlink:href="#DejaVuSans-109"/>
      <use x="194.140625" xlink:href="#DejaVuSans-109"/>
      <use x="291.552734" xlink:href="#DejaVuSans-101"/>
      <use x="353.076172" xlink:href="#DejaVuSans-115"/>
     </g>
    </g>
   </g>
   <g id="text_55">
    <g clip-path="url(#pfd3e543198)">
     <!-- croient -->
     <g transform="translate(366.707176 485.00365)scale(0.1 -0.1)">
      <use xlink:href="#DejaVuSans-99"/>
      <use x="54.980469" xlink:href="#DejaVuSans-114"/>
      <use x="96.0625" xlink:href="#DejaVuSans-111"/>
      <use x="157.244141" xlink:href="#DejaVuSans-105"/>
      <use x="185.027344" xlink:href="#DejaVuSans-101"/>
      <use x="246.550781" xlink:href="#DejaVuSans-110"/>
      <use x="309.929688" xlink:href="#DejaVuSans-116"/>
     </g>
    </g>
   </g>
   <g id="text_56">
    <g clip-path="url(#pfd3e543198)">
     <!-- au -->
     <defs>
      <path d="M 8.5 21.578125 
L 8.5 54.6875 
L 17.484375 54.6875 
L 17.484375 21.921875 
Q 17.484375 14.15625 20.5 10.265625 
Q 23.53125 6.390625 29.59375 6.390625 
Q 36.859375 6.390625 41.078125 11.03125 
Q 45.3125 15.671875 45.3125 23.6875 
L 45.3125 54.6875 
L 54.296875 54.6875 
L 54.296875 0 
L 45.3125 0 
L 45.3125 8.40625 
Q 42.046875 3.421875 37.71875 1 
Q 33.40625 -1.421875 27.6875 -1.421875 
Q 18.265625 -1.421875 13.375 4.4375 
Q 8.5 10.296875 8.5 21.578125 
z
M 31.109375 56 
z
" id="DejaVuSans-117"/>
     </defs>
     <g transform="translate(426.515958 485.00365)scale(0.1 -0.1)">
      <use xlink:href="#DejaVuSans-97"/>
      <use x="61.279297" xlink:href="#DejaVuSans-117"/>
     </g>
    </g>
   </g>
   <g id="text_57">
    <g clip-path="url(#pfd3e543198)">
     <!-- Lviathan -->
     <defs>
      <path d="M 56.203125 29.59375 
L 56.203125 25.203125 
L 14.890625 25.203125 
Q 15.484375 15.921875 20.484375 11.0625 
Q 25.484375 6.203125 34.421875 6.203125 
Q 39.59375 6.203125 44.453125 7.46875 
Q 49.3125 8.734375 54.109375 11.28125 
L 54.109375 2.78125 
Q 49.265625 0.734375 44.1875 -0.34375 
Q 39.109375 -1.421875 33.890625 -1.421875 
Q 20.796875 -1.421875 13.15625 6.1875 
Q 5.515625 13.8125 5.515625 26.8125 
Q 5.515625 40.234375 12.765625 48.109375 
Q 20.015625 56 32.328125 56 
Q 43.359375 56 49.78125 48.890625 
Q 56.203125 41.796875 56.203125 29.59375 
z
M 47.21875 32.234375 
Q 47.125 39.59375 43.09375 43.984375 
Q 39.0625 48.390625 32.421875 48.390625 
Q 24.90625 48.390625 20.390625 44.140625 
Q 15.875 39.890625 15.1875 32.171875 
z
M 38.53125 79.984375 
L 48.25 79.984375 
L 32.34375 61.625 
L 24.859375 61.625 
z
" id="DejaVuSans-233"/>
      <path d="M 2.984375 54.6875 
L 12.5 54.6875 
L 29.59375 8.796875 
L 46.6875 54.6875 
L 56.203125 54.6875 
L 35.6875 0 
L 23.484375 0 
z
" id="DejaVuSans-118"/>
      <path d="M 54.890625 33.015625 
L 54.890625 0 
L 45.90625 0 
L 45.90625 32.71875 
Q 45.90625 40.484375 42.875 44.328125 
Q 39.84375 48.1875 33.796875 48.1875 
Q 26.515625 48.1875 22.3125 43.546875 
Q 18.109375 38.921875 18.109375 30.90625 
L 18.109375 0 
L 9.078125 0 
L 9.078125 75.984375 
L 18.109375 75.984375 
L 18.109375 46.1875 
Q 21.34375 51.125 25.703125 53.5625 
Q 30.078125 56 35.796875 56 
Q 45.21875 56 50.046875 50.171875 
Q 54.890625 44.34375 54.890625 33.015625 
z
" id="DejaVuSans-104"/>
     </defs>
     <g transform="translate(456.697396 485.00365)scale(0.1 -0.1)">
      <use xlink:href="#DejaVuSans-76"/>
      <use x="55.697266" xlink:href="#DejaVuSans-233"/>
      <use x="117.220703" xlink:href="#DejaVuSans-118"/>
      <use x="176.400391" xlink:href="#DejaVuSans-105"/>
      <use x="204.183594" xlink:href="#DejaVuSans-97"/>
      <use x="265.462891" xlink:href="#DejaVuSans-116"/>
      <use x="304.671875" xlink:href="#DejaVuSans-104"/>
      <use x="368.050781" xlink:href="#DejaVuSans-97"/>
      <use x="429.330078" xlink:href="#DejaVuSans-110"/>
     </g>
    </g>
   </g>
   <g id="text_58">
    <g clip-path="url(#pfd3e543198)">
     <!-- , -->
     <defs>
      <path d="M 11.71875 12.40625 
L 22.015625 12.40625 
L 22.015625 4 
L 14.015625 -11.625 
L 7.71875 -11.625 
L 11.71875 4 
z
" id="DejaVuSans-44"/>
     </defs>
     <g transform="translate(528.328834 485.00365)scale(0.1 -0.1)">
      <use xlink:href="#DejaVuSans-44"/>
     </g>
    </g>
   </g>
   <g id="text_59">
    <g clip-path="url(#pfd3e543198)">
     <!-- - -->
     <defs>
      <path d="M 4.890625 31.390625 
L 31.203125 31.390625 
L 31.203125 23.390625 
L 4.890625 23.390625 
z
" id="DejaVuSans-45"/>
     </defs>
     <g transform="translate(576.698553 485.00365)scale(0.1 -0.1)">
      <use xlink:href="#DejaVuSans-45"/>
     </g>
    </g>
   </g>
   <g id="text_60">
    <g clip-path="url(#pfd3e543198)">
     <!-- par -->
     <defs>
      <path d="M 18.109375 8.203125 
L 18.109375 -20.796875 
L 9.078125 -20.796875 
L 9.078125 54.6875 
L 18.109375 54.6875 
L 18.109375 46.390625 
Q 20.953125 51.265625 25.265625 53.625 
Q 29.59375 56 35.59375 56 
Q 45.5625 56 51.78125 48.09375 
Q 58.015625 40.1875 58.015625 27.296875 
Q 58.015625 14.40625 51.78125 6.484375 
Q 45.5625 -1.421875 35.59375 -1.421875 
Q 29.59375 -1.421875 25.265625 0.953125 
Q 20.953125 3.328125 18.109375 8.203125 
z
M 48.6875 27.296875 
Q 48.6875 37.203125 44.609375 42.84375 
Q 40.53125 48.484375 33.40625 48.484375 
Q 26.265625 48.484375 22.1875 42.84375 
Q 18.109375 37.203125 18.109375 27.296875 
Q 18.109375 17.390625 22.1875 11.75 
Q 26.265625 6.109375 33.40625 6.109375 
Q 40.53125 6.109375 44.609375 11.75 
Q 48.6875 17.390625 48.6875 27.296875 
z
" id="DejaVuSans-112"/>
     </defs>
     <g transform="translate(618.793272 485.00365)scale(0.1 -0.1)">
      <use xlink:href="#DejaVuSans-112"/>
      <use x="63.476562" xlink:href="#DejaVuSans-97"/>
      <use x="124.755859" xlink:href="#DejaVuSans-114"/>
     </g>
    </g>
   </g>
   <g id="text_61">
    <g clip-path="url(#pfd3e543198)">
     <!-- foi -->
     <g transform="translate(669.462991 485.00365)scale(0.1 -0.1)">
      <use xlink:href="#DejaVuSans-102"/>
      <use x="35.205078" xlink:href="#DejaVuSans-111"/>
      <use x="96.386719" xlink:href="#DejaVuSans-105"/>
     </g>
    </g>
   </g>
   <g id="text_62">
    <g clip-path="url(#pfd3e543198)">
     <!-- , -->
     <g transform="translate(722.667085 485.00365)scale(0.1 -0.1)">
      <use xlink:href="#DejaVuSans-44"/>
     </g>
    </g>
   </g>
   <g id="text_63">
    <g clip-path="url(#pfd3e543198)">
     <!-- non -->
     <g transform="translate(763.443835 485.00365)scale(0.1 -0.1)">
      <use xlink:href="#DejaVuSans-110"/>
      <use x="63.378906" xlink:href="#DejaVuSans-111"/>
      <use x="124.560547" xlink:href="#DejaVuSans-110"/>
     </g>
    </g>
   </g>
   <g id="text_64">
    <g clip-path="url(#pfd3e543198)">
     <!-- par -->
     <g transform="translate(813.131523 485.00365)scale(0.1 -0.1)">
      <use xlink:href="#DejaVuSans-112"/>
      <use x="63.476562" xlink:href="#DejaVuSans-97"/>
      <use x="124.755859" xlink:href="#DejaVuSans-114"/>
     </g>
    </g>
   </g>
   <g id="text_65">
    <g clip-path="url(#pfd3e543198)">
     <!-- raison -->
     <g transform="translate(854.66843 485.00365)scale(0.1 -0.1)">
      <use xlink:href="#DejaVuSans-114"/>
      <use x="41.113281" xlink:href="#DejaVuSans-97"/>
      <use x="102.392578" xlink:href="#DejaVuSans-105"/>
      <use x="130.175781" xlink:href="#DejaVuSans-115"/>
      <use x="182.275391" xlink:href="#DejaVuSans-111"/>
      <use x="243.457031" xlink:href="#DejaVuSans-110"/>
     </g>
    </g>
   </g>
   <g id="text_66">
    <g clip-path="url(#pfd3e543198)">
     <!-- . -->
     <defs>
      <path d="M 10.6875 12.40625 
L 21 12.40625 
L 21 0 
L 10.6875 0 
z
" id="DejaVuSans-46"/>
     </defs>
     <g transform="translate(917.005337 485.00365)scale(0.1 -0.1)">
      <use xlink:href="#DejaVuSans-46"/>
     </g>
    </g>
   </g>
   <g id="text_67">
    <g clip-path="url(#pfd3e543198)">
     <!-- 1.1 -->
     <defs>
      <path d="M 12.40625 8.296875 
L 28.515625 8.296875 
L 28.515625 63.921875 
L 10.984375 60.40625 
L 10.984375 69.390625 
L 28.421875 72.90625 
L 38.28125 72.90625 
L 38.28125 8.296875 
L 54.390625 8.296875 
L 54.390625 0 
L 12.40625 0 
z
" id="DejaVuSans-49"/>
     </defs>
     <g transform="translate(421.095527 27.181767)scale(0.1 -0.1)">
      <use xlink:href="#DejaVuSans-49"/>
      <use x="63.623047" xlink:href="#DejaVuSans-46"/>
      <use x="95.410156" xlink:href="#DejaVuSans-49"/>
     </g>
    </g>
   </g>
   <g id="text_68">
    <g clip-path="url(#pfd3e543198)">
     <!-- 1.2 -->
     <defs>
      <path d="M 19.1875 8.296875 
L 53.609375 8.296875 
L 53.609375 0 
L 7.328125 0 
L 7.328125 8.296875 
Q 12.9375 14.109375 22.625 23.890625 
Q 32.328125 33.6875 34.8125 36.53125 
Q 39.546875 41.84375 41.421875 45.53125 
Q 43.3125 49.21875 43.3125 52.78125 
Q 43.3125 58.59375 39.234375 62.25 
Q 35.15625 65.921875 28.609375 65.921875 
Q 23.96875 65.921875 18.8125 64.3125 
Q 13.671875 62.703125 7.8125 59.421875 
L 7.8125 69.390625 
Q 13.765625 71.78125 18.9375 73 
Q 24.125 74.21875 28.421875 74.21875 
Q 39.75 74.21875 46.484375 68.546875 
Q 53.21875 62.890625 53.21875 53.421875 
Q 53.21875 48.921875 51.53125 44.890625 
Q 49.859375 40.875 45.40625 35.40625 
Q 44.1875 33.984375 37.640625 27.21875 
Q 31.109375 20.453125 19.1875 8.296875 
z
" id="DejaVuSans-50"/>
     </defs>
     <g transform="translate(462.970793 144.08036)scale(0.1 -0.1)">
      <use xlink:href="#DejaVuSans-49"/>
      <use x="63.623047" xlink:href="#DejaVuSans-46"/>
      <use x="95.410156" xlink:href="#DejaVuSans-50"/>
     </g>
    </g>
   </g>
   <g id="text_69">
    <g clip-path="url(#pfd3e543198)">
     <!-- 1.3 -->
     <defs>
      <path d="M 40.578125 39.3125 
Q 47.65625 37.796875 51.625 33 
Q 55.609375 28.21875 55.609375 21.1875 
Q 55.609375 10.40625 48.1875 4.484375 
Q 40.765625 -1.421875 27.09375 -1.421875 
Q 22.515625 -1.421875 17.65625 -0.515625 
Q 12.796875 0.390625 7.625 2.203125 
L 7.625 11.71875 
Q 11.71875 9.328125 16.59375 8.109375 
Q 21.484375 6.890625 26.8125 6.890625 
Q 36.078125 6.890625 40.9375 10.546875 
Q 45.796875 14.203125 45.796875 21.1875 
Q 45.796875 27.640625 41.28125 31.265625 
Q 36.765625 34.90625 28.71875 34.90625 
L 20.21875 34.90625 
L 20.21875 43.015625 
L 29.109375 43.015625 
Q 36.375 43.015625 40.234375 45.921875 
Q 44.09375 48.828125 44.09375 54.296875 
Q 44.09375 59.90625 40.109375 62.90625 
Q 36.140625 65.921875 28.71875 65.921875 
Q 24.65625 65.921875 20.015625 65.03125 
Q 15.375 64.15625 9.8125 62.3125 
L 9.8125 71.09375 
Q 15.4375 72.65625 20.34375 73.4375 
Q 25.25 74.21875 29.59375 74.21875 
Q 40.828125 74.21875 47.359375 69.109375 
Q 53.90625 64.015625 53.90625 55.328125 
Q 53.90625 49.265625 50.4375 45.09375 
Q 46.96875 40.921875 40.578125 39.3125 
z
" id="DejaVuSans-51"/>
     </defs>
     <g transform="translate(181.874394 371.887078)scale(0.1 -0.1)">
      <use xlink:href="#DejaVuSans-49"/>
      <use x="63.623047" xlink:href="#DejaVuSans-46"/>
      <use x="95.410156" xlink:href="#DejaVuSans-51"/>
     </g>
    </g>
   </g>
   <g id="text_70">
    <g clip-path="url(#pfd3e543198)">
     <!-- 1.4 -->
     <defs>
      <path d="M 37.796875 64.3125 
L 12.890625 25.390625 
L 37.796875 25.390625 
z
M 35.203125 72.90625 
L 47.609375 72.90625 
L 47.609375 25.390625 
L 58.015625 25.390625 
L 58.015625 17.1875 
L 47.609375 17.1875 
L 47.609375 0 
L 37.796875 0 
L 37.796875 17.1875 
L 4.890625 17.1875 
L 4.890625 26.703125 
z
" id="DejaVuSans-52"/>
     </defs>
     <g transform="translate(368.115218 144.08036)scale(0.1 -0.1)">
      <use xlink:href="#DejaVuSans-49"/>
      <use x="63.623047" xlink:href="#DejaVuSans-46"/>
      <use x="95.410156" xlink:href="#DejaVuSans-52"/>
     </g>
    </g>
   </g>
   <g id="text_71">
    <g clip-path="url(#pfd3e543198)">
     <!-- 1.8 -->
     <defs>
      <path d="M 31.78125 34.625 
Q 24.75 34.625 20.71875 30.859375 
Q 16.703125 27.09375 16.703125 20.515625 
Q 16.703125 13.921875 20.71875 10.15625 
Q 24.75 6.390625 31.78125 6.390625 
Q 38.8125 6.390625 42.859375 10.171875 
Q 46.921875 13.96875 46.921875 20.515625 
Q 46.921875 27.09375 42.890625 30.859375 
Q 38.875 34.625 31.78125 34.625 
z
M 21.921875 38.8125 
Q 15.578125 40.375 12.03125 44.71875 
Q 8.5 49.078125 8.5 55.328125 
Q 8.5 64.0625 14.71875 69.140625 
Q 20.953125 74.21875 31.78125 74.21875 
Q 42.671875 74.21875 48.875 69.140625 
Q 55.078125 64.0625 55.078125 55.328125 
Q 55.078125 49.078125 51.53125 44.71875 
Q 48 40.375 41.703125 38.8125 
Q 48.828125 37.15625 52.796875 32.3125 
Q 56.78125 27.484375 56.78125 20.515625 
Q 56.78125 9.90625 50.3125 4.234375 
Q 43.84375 -1.421875 31.78125 -1.421875 
Q 19.734375 -1.421875 13.25 4.234375 
Q 6.78125 9.90625 6.78125 20.515625 
Q 6.78125 27.484375 10.78125 32.3125 
Q 14.796875 37.15625 21.921875 38.8125 
z
M 18.3125 54.390625 
Q 18.3125 48.734375 21.84375 45.5625 
Q 25.390625 42.390625 31.78125 42.390625 
Q 38.140625 42.390625 41.71875 45.5625 
Q 45.3125 48.734375 45.3125 54.390625 
Q 45.3125 60.0625 41.71875 63.234375 
Q 38.140625 66.40625 31.78125 66.40625 
Q 25.390625 66.40625 21.84375 63.234375 
Q 18.3125 60.0625 18.3125 54.390625 
z
" id="DejaVuSans-56"/>
     </defs>
     <g transform="translate(279.043519 258.770507)scale(0.1 -0.1)">
      <use xlink:href="#DejaVuSans-49"/>
      <use x="63.623047" xlink:href="#DejaVuSans-46"/>
      <use x="95.410156" xlink:href="#DejaVuSans-56"/>
     </g>
    </g>
   </g>
   <g id="text_72">
    <g clip-path="url(#pfd3e543198)">
     <!-- 1.9 -->
     <defs>
      <path d="M 10.984375 1.515625 
L 10.984375 10.5 
Q 14.703125 8.734375 18.5 7.8125 
Q 22.3125 6.890625 25.984375 6.890625 
Q 35.75 6.890625 40.890625 13.453125 
Q 46.046875 20.015625 46.78125 33.40625 
Q 43.953125 29.203125 39.59375 26.953125 
Q 35.25 24.703125 29.984375 24.703125 
Q 19.046875 24.703125 12.671875 31.3125 
Q 6.296875 37.9375 6.296875 49.421875 
Q 6.296875 60.640625 12.9375 67.421875 
Q 19.578125 74.21875 30.609375 74.21875 
Q 43.265625 74.21875 49.921875 64.515625 
Q 56.59375 54.828125 56.59375 36.375 
Q 56.59375 19.140625 48.40625 8.859375 
Q 40.234375 -1.421875 26.421875 -1.421875 
Q 22.703125 -1.421875 18.890625 -0.6875 
Q 15.09375 0.046875 10.984375 1.515625 
z
M 30.609375 32.421875 
Q 37.25 32.421875 41.125 36.953125 
Q 45.015625 41.5 45.015625 49.421875 
Q 45.015625 57.28125 41.125 61.84375 
Q 37.25 66.40625 30.609375 66.40625 
Q 23.96875 66.40625 20.09375 61.84375 
Q 16.21875 57.28125 16.21875 49.421875 
Q 16.21875 41.5 20.09375 36.953125 
Q 23.96875 32.421875 30.609375 32.421875 
z
" id="DejaVuSans-57"/>
     </defs>
     <g transform="translate(376.212645 371.887078)scale(0.1 -0.1)">
      <use xlink:href="#DejaVuSans-49"/>
      <use x="63.623047" xlink:href="#DejaVuSans-46"/>
      <use x="95.410156" xlink:href="#DejaVuSans-57"/>
     </g>
    </g>
   </g>
   <g id="text_73">
    <g clip-path="url(#pfd3e543198)">
     <!-- 1.10 -->
     <defs>
      <path d="M 31.78125 66.40625 
Q 24.171875 66.40625 20.328125 58.90625 
Q 16.5 51.421875 16.5 36.375 
Q 16.5 21.390625 20.328125 13.890625 
Q 24.171875 6.390625 31.78125 6.390625 
Q 39.453125 6.390625 43.28125 13.890625 
Q 47.125 21.390625 47.125 36.375 
Q 47.125 51.421875 43.28125 58.90625 
Q 39.453125 66.40625 31.78125 66.40625 
z
M 31.78125 74.21875 
Q 44.046875 74.21875 50.515625 64.515625 
Q 56.984375 54.828125 56.984375 36.375 
Q 56.984375 17.96875 50.515625 8.265625 
Q 44.046875 -1.421875 31.78125 -1.421875 
Q 19.53125 -1.421875 13.0625 8.265625 
Q 6.59375 17.96875 6.59375 36.375 
Q 6.59375 54.828125 13.0625 64.515625 
Q 19.53125 74.21875 31.78125 74.21875 
z
" id="DejaVuSans-48"/>
     </defs>
     <g transform="translate(445.908239 258.770507)scale(0.1 -0.1)">
      <use xlink:href="#DejaVuSans-49"/>
      <use x="63.623047" xlink:href="#DejaVuSans-46"/>
      <use x="95.410156" xlink:href="#DejaVuSans-49"/>
      <use x="159.033203" xlink:href="#DejaVuSans-48"/>
     </g>
    </g>
   </g>
   <g id="text_74">
    <g clip-path="url(#pfd3e543198)">
     <!-- 1.11 -->
     <g transform="translate(421.615958 371.887078)scale(0.1 -0.1)">
      <use xlink:href="#DejaVuSans-49"/>
      <use x="63.623047" xlink:href="#DejaVuSans-46"/>
      <use x="95.410156" xlink:href="#DejaVuSans-49"/>
      <use x="159.033203" xlink:href="#DejaVuSans-49"/>
     </g>
    </g>
   </g>
   <g id="text_75">
    <g clip-path="url(#pfd3e543198)">
     <!-- 1.12 -->
     <g transform="translate(470.200521 371.887078)scale(0.1 -0.1)">
      <use xlink:href="#DejaVuSans-49"/>
      <use x="63.623047" xlink:href="#DejaVuSans-46"/>
      <use x="95.410156" xlink:href="#DejaVuSans-49"/>
      <use x="159.033203" xlink:href="#DejaVuSans-50"/>
     </g>
    </g>
   </g>
   <g id="text_76">
    <g clip-path="url(#pfd3e543198)">
     <!-- 1.13 -->
     <g transform="translate(227.277707 371.887078)scale(0.1 -0.1)">
      <use xlink:href="#DejaVuSans-49"/>
      <use x="63.623047" xlink:href="#DejaVuSans-46"/>
      <use x="95.410156" xlink:href="#DejaVuSans-49"/>
      <use x="159.033203" xlink:href="#DejaVuSans-51"/>
     </g>
    </g>
   </g>
   <g id="text_77">
    <g clip-path="url(#pfd3e543198)">
     <!-- 1.14 -->
     <g transform="translate(275.862269 371.887078)scale(0.1 -0.1)">
      <use xlink:href="#DejaVuSans-49"/>
      <use x="63.623047" xlink:href="#DejaVuSans-46"/>
      <use x="95.410156" xlink:href="#DejaVuSans-49"/>
      <use x="159.033203" xlink:href="#DejaVuSans-52"/>
     </g>
    </g>
   </g>
   <g id="text_78">
    <g clip-path="url(#pfd3e543198)">
     <!-- 1.15 -->
     <defs>
      <path d="M 10.796875 72.90625 
L 49.515625 72.90625 
L 49.515625 64.59375 
L 19.828125 64.59375 
L 19.828125 46.734375 
Q 21.96875 47.46875 24.109375 47.828125 
Q 26.265625 48.1875 28.421875 48.1875 
Q 40.625 48.1875 47.75 41.5 
Q 54.890625 34.8125 54.890625 23.390625 
Q 54.890625 11.625 47.5625 5.09375 
Q 40.234375 -1.421875 26.90625 -1.421875 
Q 22.3125 -1.421875 17.546875 -0.640625 
Q 12.796875 0.140625 7.71875 1.703125 
L 7.71875 11.625 
Q 12.109375 9.234375 16.796875 8.0625 
Q 21.484375 6.890625 26.703125 6.890625 
Q 35.15625 6.890625 40.078125 11.328125 
Q 45.015625 15.765625 45.015625 23.390625 
Q 45.015625 31 40.078125 35.4375 
Q 35.15625 39.890625 26.703125 39.890625 
Q 22.75 39.890625 18.8125 39.015625 
Q 14.890625 38.140625 10.796875 36.28125 
z
" id="DejaVuSans-53"/>
     </defs>
     <g transform="translate(324.446832 371.887078)scale(0.1 -0.1)">
      <use xlink:href="#DejaVuSans-49"/>
      <use x="63.623047" xlink:href="#DejaVuSans-46"/>
      <use x="95.410156" xlink:href="#DejaVuSans-49"/>
      <use x="159.033203" xlink:href="#DejaVuSans-53"/>
     </g>
    </g>
   </g>
   <g id="text_79">
    <g clip-path="url(#pfd3e543198)">
     <!-- 1.16 -->
     <defs>
      <path d="M 33.015625 40.375 
Q 26.375 40.375 22.484375 35.828125 
Q 18.609375 31.296875 18.609375 23.390625 
Q 18.609375 15.53125 22.484375 10.953125 
Q 26.375 6.390625 33.015625 6.390625 
Q 39.65625 6.390625 43.53125 10.953125 
Q 47.40625 15.53125 47.40625 23.390625 
Q 47.40625 31.296875 43.53125 35.828125 
Q 39.65625 40.375 33.015625 40.375 
z
M 52.59375 71.296875 
L 52.59375 62.3125 
Q 48.875 64.0625 45.09375 64.984375 
Q 41.3125 65.921875 37.59375 65.921875 
Q 27.828125 65.921875 22.671875 59.328125 
Q 17.53125 52.734375 16.796875 39.40625 
Q 19.671875 43.65625 24.015625 45.921875 
Q 28.375 48.1875 33.59375 48.1875 
Q 44.578125 48.1875 50.953125 41.515625 
Q 57.328125 34.859375 57.328125 23.390625 
Q 57.328125 12.15625 50.6875 5.359375 
Q 44.046875 -1.421875 33.015625 -1.421875 
Q 20.359375 -1.421875 13.671875 8.265625 
Q 6.984375 17.96875 6.984375 36.375 
Q 6.984375 53.65625 15.1875 63.9375 
Q 23.390625 74.21875 37.203125 74.21875 
Q 40.921875 74.21875 44.703125 73.484375 
Q 48.484375 72.75 52.59375 71.296875 
z
" id="DejaVuSans-54"/>
     </defs>
     <g transform="translate(32.939455 371.887078)scale(0.1 -0.1)">
      <use xlink:href="#DejaVuSans-49"/>
      <use x="63.623047" xlink:href="#DejaVuSans-46"/>
      <use x="95.410156" xlink:href="#DejaVuSans-49"/>
      <use x="159.033203" xlink:href="#DejaVuSans-54"/>
     </g>
    </g>
   </g>
   <g id="text_80">
    <g clip-path="url(#pfd3e543198)">
     <!-- 1.17 -->
     <defs>
      <path d="M 8.203125 72.90625 
L 55.078125 72.90625 
L 55.078125 68.703125 
L 28.609375 0 
L 18.3125 0 
L 43.21875 64.59375 
L 8.203125 64.59375 
z
" id="DejaVuSans-55"/>
     </defs>
     <g transform="translate(81.524018 371.887078)scale(0.1 -0.1)">
      <use xlink:href="#DejaVuSans-49"/>
      <use x="63.623047" xlink:href="#DejaVuSans-46"/>
      <use x="95.410156" xlink:href="#DejaVuSans-49"/>
      <use x="159.033203" xlink:href="#DejaVuSans-55"/>
     </g>
    </g>
   </g>
   <g id="text_81">
    <g clip-path="url(#pfd3e543198)">
     <!-- 1.18 -->
     <g transform="translate(130.108581 371.887078)scale(0.1 -0.1)">
      <use xlink:href="#DejaVuSans-49"/>
      <use x="63.623047" xlink:href="#DejaVuSans-46"/>
      <use x="95.410156" xlink:href="#DejaVuSans-49"/>
      <use x="159.033203" xlink:href="#DejaVuSans-56"/>
     </g>
    </g>
   </g>
   <g id="text_82">
    <g clip-path="url(#pfd3e543198)">
     <!-- 1.19 -->
     <g transform="translate(640.246491 258.770507)scale(0.1 -0.1)">
      <use xlink:href="#DejaVuSans-49"/>
      <use x="63.623047" xlink:href="#DejaVuSans-46"/>
      <use x="95.410156" xlink:href="#DejaVuSans-49"/>
      <use x="159.033203" xlink:href="#DejaVuSans-57"/>
     </g>
    </g>
   </g>
   <g id="text_83">
    <g clip-path="url(#pfd3e543198)">
     <!-- 1.20 -->
     <g transform="translate(761.707898 371.887078)scale(0.1 -0.1)">
      <use xlink:href="#DejaVuSans-49"/>
      <use x="63.623047" xlink:href="#DejaVuSans-46"/>
      <use x="95.410156" xlink:href="#DejaVuSans-50"/>
      <use x="159.033203" xlink:href="#DejaVuSans-48"/>
     </g>
    </g>
   </g>
   <g id="text_84">
    <g clip-path="url(#pfd3e543198)">
     <!-- 1.21 -->
     <g transform="translate(858.877024 258.770507)scale(0.1 -0.1)">
      <use xlink:href="#DejaVuSans-49"/>
      <use x="63.623047" xlink:href="#DejaVuSans-46"/>
      <use x="95.410156" xlink:href="#DejaVuSans-50"/>
      <use x="159.033203" xlink:href="#DejaVuSans-49"/>
     </g>
    </g>
   </g>
   <g id="text_85">
    <g clip-path="url(#pfd3e543198)">
     <!-- 1.23 -->
     <g transform="translate(810.292461 371.887078)scale(0.1 -0.1)">
      <use xlink:href="#DejaVuSans-49"/>
      <use x="63.623047" xlink:href="#DejaVuSans-46"/>
      <use x="95.410156" xlink:href="#DejaVuSans-50"/>
      <use x="159.033203" xlink:href="#DejaVuSans-51"/>
     </g>
    </g>
   </g>
   <g id="text_86">
    <g clip-path="url(#pfd3e543198)">
     <!-- 1.24 -->
     <g transform="translate(858.877024 371.887078)scale(0.1 -0.1)">
      <use xlink:href="#DejaVuSans-49"/>
      <use x="63.623047" xlink:href="#DejaVuSans-46"/>
      <use x="95.410156" xlink:href="#DejaVuSans-50"/>
      <use x="159.033203" xlink:href="#DejaVuSans-52"/>
     </g>
    </g>
   </g>
   <g id="text_87">
    <g clip-path="url(#pfd3e543198)">
     <!-- 1.25 -->
     <g transform="translate(615.954209 371.887078)scale(0.1 -0.1)">
      <use xlink:href="#DejaVuSans-49"/>
      <use x="63.623047" xlink:href="#DejaVuSans-46"/>
      <use x="95.410156" xlink:href="#DejaVuSans-50"/>
      <use x="159.033203" xlink:href="#DejaVuSans-53"/>
     </g>
    </g>
   </g>
   <g id="text_88">
    <g clip-path="url(#pfd3e543198)">
     <!-- 1.26 -->
     <g transform="translate(664.538772 371.887078)scale(0.1 -0.1)">
      <use xlink:href="#DejaVuSans-49"/>
      <use x="63.623047" xlink:href="#DejaVuSans-46"/>
      <use x="95.410156" xlink:href="#DejaVuSans-50"/>
      <use x="159.033203" xlink:href="#DejaVuSans-54"/>
     </g>
    </g>
   </g>
   <g id="text_89">
    <g clip-path="url(#pfd3e543198)">
     <!-- 1.27 -->
     <g transform="translate(334.472218 27.181767)scale(0.1 -0.1)">
      <use xlink:href="#DejaVuSans-49"/>
      <use x="63.623047" xlink:href="#DejaVuSans-46"/>
      <use x="95.410156" xlink:href="#DejaVuSans-50"/>
      <use x="159.033203" xlink:href="#DejaVuSans-55"/>
     </g>
    </g>
   </g>
   <g id="text_90">
    <g clip-path="url(#pfd3e543198)">
     <!-- 1.28 -->
     <g transform="translate(518.785084 371.887078)scale(0.1 -0.1)">
      <use xlink:href="#DejaVuSans-49"/>
      <use x="63.623047" xlink:href="#DejaVuSans-46"/>
      <use x="95.410156" xlink:href="#DejaVuSans-50"/>
      <use x="159.033203" xlink:href="#DejaVuSans-56"/>
     </g>
    </g>
   </g>
   <g id="text_91">
    <g clip-path="url(#pfd3e543198)">
     <!-- 1.29 -->
     <g transform="translate(567.369647 371.887078)scale(0.1 -0.1)">
      <use xlink:href="#DejaVuSans-49"/>
      <use x="63.623047" xlink:href="#DejaVuSans-46"/>
      <use x="95.410156" xlink:href="#DejaVuSans-50"/>
      <use x="159.033203" xlink:href="#DejaVuSans-57"/>
     </g>
    </g>
   </g>
   <g id="text_92">
    <g clip-path="url(#pfd3e543198)">
     <!-- 1.30 -->
     <g transform="translate(713.123335 371.887078)scale(0.1 -0.1)">
      <use xlink:href="#DejaVuSans-49"/>
      <use x="63.623047" xlink:href="#DejaVuSans-46"/>
      <use x="95.410156" xlink:href="#DejaVuSans-51"/>
      <use x="159.033203" xlink:href="#DejaVuSans-48"/>
     </g>
    </g>
   </g>
   <g id="text_93">
    <g clip-path="url(#pfd3e543198)">
     <!-- 1.31 -->
     <g transform="translate(907.461587 371.887078)scale(0.1 -0.1)">
      <use xlink:href="#DejaVuSans-49"/>
      <use x="63.623047" xlink:href="#DejaVuSans-46"/>
      <use x="95.410156" xlink:href="#DejaVuSans-51"/>
      <use x="159.033203" xlink:href="#DejaVuSans-49"/>
     </g>
    </g>
   </g>
  </g>
 </g>
 <defs>
  <clipPath id="pfd3e543198">
   <rect height="506.666667" width="962.666667" x="0" y="0"/>
  </clipPath>
 </defs>
</svg>
