<?xml version="1.0" encoding="UTF-8"?>
<!DOCTYPE svg  PUBLIC '-//W3C//DTD SVG 1.1//EN'  'http://www.w3.org/Graphics/SVG/1.1/DTD/svg11.dtd'>
<svg width="1621.3pt" height="853.33pt" version="1.1" viewBox="0 0 1621.3 853.33" xmlns="http://www.w3.org/2000/svg" xmlns:xlink="http://www.w3.org/1999/xlink">
<defs>
<style type="text/css">*{stroke-linecap:butt;stroke-linejoin:round;}</style>
</defs>
<path d="m0 853.33h1621.3v-853.33h-1621.3z" fill="#fff"/>
<g fill="none" stroke="#000">
<path d="m135.3 38.788-57.659 584.49" clip-path="url(#a)"/>
<path d="m135.3 38.788 100.84 97.875" clip-path="url(#a)"/>
<path d="m135.3 38.788-43.182 680.78" clip-path="url(#a)"/>
<path d="m77.645 623.28-3.9481 96.295" clip-path="url(#a)"/>
<path d="m77.645 623.28 3.9481 96.295" clip-path="url(#a)"/>
<path d="m236.14 136.66-109.81 389.81" clip-path="url(#a)"/>
<path d="m236.14 136.66-75.59 582.91" clip-path="url(#a)"/>
<path d="m236.14 136.66 185.4 97.735" clip-path="url(#a)"/>
<path d="m126.34 526.48-13.16 96.8" clip-path="url(#a)"/>
<path d="m126.34 526.48 13.16 193.1" clip-path="url(#a)"/>
<path d="m160.55 719.57v94.974" clip-path="url(#a)"/>
<path d="m421.54 234.4-179.39 388.88" clip-path="url(#a)"/>
<path d="m421.54 234.4-59.637 388.88" clip-path="url(#a)"/>
<path d="m421.54 234.4 2.2161 485.17" clip-path="url(#a)"/>
<path d="m421.54 234.4 189.85 97.572" clip-path="url(#a)"/>
<path d="m421.54 234.4 46.961 485.17" clip-path="url(#a)"/>
<path d="m242.15 623.28-57.905 96.295" clip-path="url(#a)"/>
<path d="m242.15 623.28-31.584 96.295" clip-path="url(#a)"/>
<path d="m242.15 623.28-2.632 96.295" clip-path="url(#a)"/>
<path d="m242.15 623.28 28.952 96.295" clip-path="url(#a)"/>
<path d="m242.15 623.28 63.169 96.295" clip-path="url(#a)"/>
<path d="m361.9 623.28-19.74 96.295" clip-path="url(#a)"/>
<path d="m361.9 623.28 19.74 96.295" clip-path="url(#a)"/>
<path d="m423.76 719.57v94.974" clip-path="url(#a)"/>
<path d="m611.4 331.97-187.64 387.6" clip-path="url(#a)" stroke-dasharray="3.7,1.6"/>
<path d="m611.4 331.97-95.517 387.6" clip-path="url(#a)"/>
<path d="m611.4 331.97 283.15 97.376" clip-path="url(#a)"/>
<path d="m515.88 719.57v94.974" clip-path="url(#a)"/>
<path d="m894.55 429.35 653.09 97.13" clip-path="url(#a)"/>
<path d="m894.55 429.35-328.66 290.23" clip-path="url(#a)"/>
<path d="m894.55 429.35-276.02 290.23" clip-path="url(#a)"/>
<path d="m894.55 429.35 30.756 97.13" clip-path="url(#a)"/>
<path d="m894.55 429.35 478.49 97.13" clip-path="url(#a)"/>
<path d="m894.55 429.35-220.75 290.23" clip-path="url(#a)"/>
<path d="m894.55 429.35 316.19 290.23" clip-path="url(#a)"/>
<path d="m565.89 719.57v94.974" clip-path="url(#a)"/>
<path d="m618.53 719.57v94.974" clip-path="url(#a)"/>
<path d="m925.31 526.48-132.19 96.8" clip-path="url(#a)"/>
<path d="m925.31 526.48 136.28 96.8" clip-path="url(#a)"/>
<path d="m925.31 526.48-4.0943 193.1" clip-path="url(#a)"/>
<path d="m1373 526.48 174.59 96.8" clip-path="url(#a)"/>
<path d="m1373 526.48-83.348 193.1" clip-path="url(#a)"/>
<path d="m1373 526.48 83.348 96.8" clip-path="url(#a)"/>
<path d="m1289.7 719.57v94.974" clip-path="url(#a)"/>
<path d="m1456.4 623.28-85.102 96.295" clip-path="url(#a)"/>
<path d="m1456.4 623.28-0.87734 96.295" clip-path="url(#a)"/>
<path d="m1456.4 623.28 85.98 96.295" clip-path="url(#a)"/>
<path d="m1371.3 719.57v94.974" clip-path="url(#a)"/>
<path d="m1455.5 719.57v94.974" clip-path="url(#a)"/>
<path d="m793.12 623.28-61.414 96.295" clip-path="url(#a)"/>
<path d="m793.12 623.28-0.87734 96.295" clip-path="url(#a)"/>
<path d="m793.12 623.28 62.291 96.295" clip-path="url(#a)"/>
<path d="m1061.6 623.28-71.942 96.295" clip-path="url(#a)"/>
<path d="m1061.6 623.28-0.87734 96.295" clip-path="url(#a)"/>
<path d="m1061.6 623.28 72.82 96.295" clip-path="url(#a)"/>
<path d="m989.65 719.57v94.974" clip-path="url(#a)"/>
<path d="m1060.7 719.57v94.974" clip-path="url(#a)"/>
<path d="m1134.4 719.57v94.974" clip-path="url(#a)"/>
<path d="m731.71 719.57v94.974" clip-path="url(#a)"/>
<path d="m792.24 719.57v94.974" clip-path="url(#a)"/>
<path d="m855.41 719.57v94.974" clip-path="url(#a)"/>
<path d="m342.16 719.57v94.974" clip-path="url(#a)"/>
<path d="m381.65 719.57v94.974" clip-path="url(#a)"/>
<path d="m184.24 719.57v94.974" clip-path="url(#a)"/>
<path d="m210.56 719.57v94.974" clip-path="url(#a)"/>
<path d="m239.52 719.57v94.974" clip-path="url(#a)"/>
<path d="m271.1 719.57v94.974" clip-path="url(#a)"/>
<path d="m305.32 719.57v94.974" clip-path="url(#a)"/>
<path d="m113.18 623.28-7.8961 96.295" clip-path="url(#a)"/>
<path d="m113.18 623.28 7.8961 96.295" clip-path="url(#a)"/>
<path d="m139.5 719.57v94.974" clip-path="url(#a)"/>
<path d="m105.28 719.57v94.974" clip-path="url(#a)"/>
<path d="m121.07 719.57v94.974" clip-path="url(#a)"/>
<path d="m73.697 719.57v94.974" clip-path="url(#a)"/>
<path d="m81.593 719.57v94.974" clip-path="url(#a)"/>
<path d="m156.89 38.788-79.25 584.49" clip-path="url(#a)"/>
<path d="m156.89 38.788 79.25 97.875" clip-path="url(#a)"/>
<path d="m92.121 719.57v94.974" clip-path="url(#a)"/>
<path d="m468.5 719.57v94.974" clip-path="url(#a)"/>
<path d="m673.8 719.57v94.974" clip-path="url(#a)"/>
<path d="m921.21 719.57v94.974" clip-path="url(#a)"/>
<path d="m1210.7 719.57v94.974" clip-path="url(#a)"/>
<path d="m1542.4 719.57v94.974" clip-path="url(#a)"/>
</g>
<path d="m112.5 333.87 0.4376-4.436q0.23561-2.3884-2.1528-2.624l-7.7051-0.76009q-2.3884-0.23561-2.624 2.1528l-0.4376 4.436q-0.23561 2.3884 2.1528 2.624l7.7051 0.76009q2.3884 0.23561 2.624-2.1528z" clip-path="url(#a)" fill="#fff" stroke="#fff"/>
<g clip-path="url(#a)">
<defs>
<path id="ab" d="m9.8125 72.906h9.8594v-64.609h35.5v-8.2969h-45.359z"/>
</defs>
<g transform="translate(108.45 333.47) rotate(-84.366) scale(.08 -.08)">
<use xlink:href="#ab"/>
</g>
</g>
<path d="m179.2 90.131 4.3171 4.1902q1.7222 1.6715 3.3937-0.050643l5.3925-5.5559q1.6715-1.7222-0.050643-3.3937l-4.3171-4.1902q-1.7222-1.6715-3.3937 0.050644l-5.3925 5.5559q-1.6715 1.7222 0.050644 3.3937z" clip-path="url(#a)" fill="#fff" stroke="#fff"/>
<g clip-path="url(#a)">
<defs>
<path id="ar" d="m9.8125 72.906h9.8594v-29.891h35.844v29.891h9.8594v-72.906h-9.8594v34.719h-35.844v-34.719h-9.8594z"/>
</defs>
<g transform="translate(182.03 87.215) rotate(44.145) scale(.08 -.08)">
<use xlink:href="#ar"/>
</g>
</g>
<path d="m119.79 382.5 0.37064-5.8433q0.15193-2.3952-2.2433-2.5471l-7.727-0.49012q-2.3952-0.15193-2.5471 2.2433l-0.37064 5.8433q-0.15193 2.3952 2.2433 2.5471l7.727 0.49012q2.3952 0.15193 2.5471-2.2433z" clip-path="url(#a)" fill="#fff" stroke="#fff"/>
<g clip-path="url(#a)">
<defs>
<path id="x" d="m8.6875 72.906h9.9219v-44.297q0-11.719 4.2344-16.875 4.25-5.1406 13.781-5.1406 9.4688 0 13.719 5.1406 4.25 5.1562 4.25 16.875v44.297h9.9062v-45.516q0-14.25-7.0625-21.531-7.0469-7.2812-20.812-7.2812-13.828 0-20.891 7.2812-7.0469 7.2812-7.0469 21.531z"/>
</defs>
<g transform="translate(115.73 382.24) rotate(-86.371) scale(.08 -.08)">
<use xlink:href="#x"/>
</g>
</g>
<path d="m81.823 674.46 0.22772-5.5541q0.098316-2.398-2.2997-2.4963l-7.736-0.31717q-2.398-0.098316-2.4963 2.2997l-0.22771 5.5541q-0.098316 2.398 2.2997 2.4963l7.736 0.31717q2.398 0.098317 2.4963-2.2997z" clip-path="url(#a)" fill="#fff" stroke="#fff"/>
<g clip-path="url(#a)">
<defs>
<path id="y" d="m44.391 34.188q3.1719-1.0781 6.1719-4.5938t6.0312-9.6719l10.016-19.922h-10.609l-9.3125 18.703q-3.625 7.3281-7.0156 9.7188t-9.25 2.3906h-10.75v-30.812h-9.8594v72.906h22.266q12.5 0 18.656-5.2344 6.1562-5.2188 6.1562-15.766 0-6.8906-3.2031-11.438-3.2031-4.5312-9.2969-6.2812zm-24.719 30.609v-25.875h12.406q7.125 0 10.766 3.2969t3.6406 9.6875-3.6406 9.6406-10.766 3.25z"/>
</defs>
<g transform="translate(77.763 674.29) rotate(-87.652) scale(.08 -.08)">
<use xlink:href="#y"/>
</g>
</g>
<path d="m73.239 668.89 0.22884 5.5816q0.098316 2.398 2.4963 2.2997l7.736-0.31717q2.398-0.098316 2.2997-2.4963l-0.22884-5.5816q-0.098316-2.398-2.4963-2.2997l-7.736 0.31717q-2.398 0.098316-2.2997 2.4963z" clip-path="url(#a)" fill="#fff" stroke="#fff"/>
<g clip-path="url(#a)">
<defs>
<path id="m" d="m64.406 67.281v-10.391q-4.9844 4.6406-10.625 6.9219-5.6406 2.2969-11.984 2.2969-12.5 0-19.141-7.6406t-6.6406-22.094q0-14.406 6.6406-22.047t19.141-7.6406q6.3438 0 11.984 2.2969t10.625 6.9375v-10.312q-5.1719-3.5156-10.969-5.2812-5.7812-1.75-12.219-1.75-16.562 0-26.094 10.125-9.5156 10.141-9.5156 27.672 0 17.578 9.5156 27.703 9.5312 10.141 26.094 10.141 6.5312 0 12.312-1.7344 5.7969-1.7344 10.875-5.2031z"/>
</defs>
<g transform="translate(77.299 668.72) rotate(87.652) scale(.08 -.08)">
<use xlink:href="#m"/>
</g>
</g>
<path d="m186.54 335.9 1.4838-5.2675q0.65073-2.3101-1.6594-2.9608l-7.4525-2.0993q-2.3101-0.65073-2.9608 1.6594l-1.4838 5.2675q-0.65073 2.3101 1.6594 2.9608l7.4525 2.0993q2.3101 0.65073 2.9608-1.6594z" clip-path="url(#a)" fill="#fff" stroke="#fff"/>
<g clip-path="url(#a)">
<defs>
<path id="v" d="m34.188 63.188-13.391-36.281h26.812zm-5.5781 9.7188h11.188l27.781-72.906h-10.25l-6.6406 18.703h-32.859l-6.6406-18.703h-10.406z"/>
</defs>
<g transform="translate(182.62 334.8) rotate(-74.268) scale(.08 -.08)">
<use xlink:href="#v"/>
</g>
</g>
<path d="m204.26 431.32 0.62034-4.7837q0.30864-2.3801-2.0714-2.6887l-7.6782-0.99569q-2.3801-0.30864-2.6887 2.0714l-0.62034 4.7837q-0.30864 2.3801 2.0714 2.6887l7.6782 0.9957q2.3801 0.30864 2.6887-2.0714z" clip-path="url(#a)" fill="#fff" stroke="#fff"/>
<g clip-path="url(#a)">
<defs>
<path id="aa" d="m19.672 64.797v-27.391h12.406q6.8906 0 10.641 3.5625 3.7656 3.5625 3.7656 10.156 0 6.5469-3.7656 10.109-3.75 3.5625-10.641 3.5625zm-9.8594 8.1094h22.266q12.266 0 18.531-5.5469 6.2812-5.5469 6.2812-16.234 0-10.797-6.2812-16.312-6.2656-5.5156-18.531-5.5156h-12.406v-29.297h-9.8594z"/>
</defs>
<g transform="translate(200.23 430.79) rotate(-82.611) scale(.08 -.08)">
<use xlink:href="#aa"/>
</g>
</g>
<path d="m323.5 189.8 4.841 2.552q2.1231 1.1192 3.2423-1.0039l3.6106-6.8491q1.1192-2.1231-1.0039-3.2423l-4.841-2.552q-2.1231-1.1192-3.2423 1.0039l-3.6106 6.8491q-1.1192 2.1231 1.0039 3.2423z" clip-path="url(#a)" fill="#fff" stroke="#fff"/>
<g clip-path="url(#a)">
<g transform="translate(325.39 186.21) rotate(27.797) scale(.08 -.08)">
<use xlink:href="#v"/>
</g>
</g>
<path d="m125.63 578.23 0.68097-5.0089q0.32331-2.3781-2.0548-2.7014l-7.6719-1.043q-2.3781-0.32331-2.7014 2.0548l-0.68097 5.0089q-0.32331 2.3781 2.0548 2.7014l7.6719 1.043q2.3781 0.32331 2.7014-2.0548z" clip-path="url(#a)" fill="#fff" stroke="#fff"/>
<g clip-path="url(#a)">
<defs>
<path id="r" d="m9.8125 72.906h46.094v-8.3125h-36.234v-21.578h34.719v-8.2969h-34.719v-26.422h37.109v-8.2969h-46.969z"/>
</defs>
<g transform="translate(121.6 577.68) rotate(-82.258) scale(.08 -.08)">
<use xlink:href="#r"/>
</g>
</g>
<path d="m126.47 620.66 0.37984 5.5733q0.16319 2.3944 2.5576 2.2313l7.7246-0.52646q2.3944-0.16319 2.2313-2.5576l-0.37984-5.5733q-0.16319-2.3944-2.5576-2.2313l-7.7246 0.52646q-2.3944 0.16319-2.2313 2.5576z" clip-path="url(#a)" fill="#fff" stroke="#fff"/>
<g clip-path="url(#a)">
<g transform="translate(130.53 620.39) rotate(86.101) scale(.08 -.08)">
<use xlink:href="#m"/>
</g>
</g>
<path d="m154.28 750.15v33.808q0 2.4 2.4 2.4h7.7425q2.4 0 2.4-2.4v-33.808q0-2.4-2.4-2.4h-7.7425q-2.4 0-2.4 2.4z" clip-path="url(#a)" fill="#fff" stroke="#fff"/>
<g clip-path="url(#a)">
<defs>
<path id="l" d="m-0.29688 72.906h61.672v-8.3125h-25.875v-64.594h-9.9062v64.594h-25.891z"/>
<path id="e" d="m56.203 29.594v-4.3906h-41.312q0.59375-9.2812 5.5938-14.141t13.938-4.8594q5.1719 0 10.031 1.2656t9.6562 3.8125v-8.5q-4.8438-2.0469-9.9219-3.125t-10.297-1.0781q-13.094 0-20.734 7.6094-7.6406 7.625-7.6406 20.625 0 13.422 7.25 21.297 7.25 7.8906 19.562 7.8906 11.031 0 17.453-7.1094 6.4219-7.0938 6.4219-19.297zm-8.9844 2.6406q-0.09375 7.3594-4.125 11.75-4.0312 4.4062-10.672 4.4062-7.5156 0-12.031-4.25t-5.2031-11.969z"/>
<path id="h" d="m41.109 46.297q-1.5156 0.875-3.2969 1.2812-1.7812 0.42188-3.9219 0.42188-7.625 0-11.703-4.9531t-4.0781-14.234v-28.812h-9.0312v54.688h9.0312v-8.5q2.8438 4.9844 7.375 7.3906 4.5469 2.4219 11.047 2.4219 0.92188 0 2.0469-0.125 1.125-0.10938 2.4844-0.35938z"/>
<path id="j" d="m52 44.188q3.375 6.0625 8.0625 8.9375t11.031 2.875q8.5469 0 13.188-5.9844 4.6406-5.9688 4.6406-17v-33.016h-9.0312v32.719q0 7.8594-2.7969 11.656-2.7812 3.8125-8.4844 3.8125-6.9844 0-11.047-4.6406-4.0469-4.625-4.0469-12.641v-30.906h-9.0312v32.719q0 7.9062-2.7812 11.688t-8.5938 3.7812q-6.8906 0-10.953-4.6562-4.0469-4.6562-4.0469-12.625v-30.906h-9.0312v54.688h9.0312v-8.5q3.0781 5.0312 7.375 7.4219t10.203 2.3906q5.9688 0 10.141-3.0312 4.1719-3.0156 6.1719-8.7812z"/>
<path id="i" d="m9.4219 54.688h8.9844v-54.688h-8.9844zm0 21.297h8.9844v-11.391h-8.9844z"/>
<path id="k" d="m54.891 33.016v-33.016h-8.9844v32.719q0 7.7656-3.0312 11.609-3.0312 3.8594-9.0781 3.8594-7.2812 0-11.484-4.6406-4.2031-4.625-4.2031-12.641v-30.906h-9.0312v54.688h9.0312v-8.5q3.2344 4.9375 7.5938 7.375 4.375 2.4375 10.094 2.4375 9.4219 0 14.25-5.8281 4.8438-5.8281 4.8438-17.156z"/>
<path id="f" d="m34.281 27.484q-10.891 0-15.094-2.4844t-4.2031-8.5q0-4.7812 3.1562-7.5938 3.1562-2.7969 8.5625-2.7969 7.4844 0 12 5.2969t4.5156 14.078v2zm17.922 3.7188v-31.203h-8.9844v8.2969q-3.0781-4.9688-7.6719-7.3438t-11.234-2.375q-8.3906 0-13.359 4.7188-4.9531 4.7188-4.9531 12.625 0 9.2188 6.1719 13.906 6.1875 4.6875 18.438 4.6875h12.609v0.89062q0 6.2031-4.0781 9.5938t-11.453 3.3906q-4.6875 0-9.1406-1.125-4.4375-1.125-8.5312-3.375v8.3125q4.9219 1.9062 9.5625 2.8438 4.6406 0.95312 9.0312 0.95312 11.875 0 17.734-6.1562 5.8594-6.1406 5.8594-18.641z"/>
<path id="g" d="m9.4219 75.984h8.9844v-75.984h-8.9844z"/>
</defs>
<g transform="translate(158.35 750.15) rotate(90) scale(.08 -.08)">
<use xlink:href="#l"/>
<use x="44.083984" xlink:href="#e"/>
<use x="105.607422" xlink:href="#h"/>
<use x="144.970703" xlink:href="#j"/>
<use x="242.382812" xlink:href="#i"/>
<use x="270.166016" xlink:href="#k"/>
<use x="333.544922" xlink:href="#f"/>
<use x="394.824219" xlink:href="#g"/>
</g>
</g>
<path d="m336.48 433.76 2.1175-4.5901q1.0053-2.1793-1.174-3.1846l-7.0305-3.2433q-2.1793-1.0053-3.1846 1.174l-2.1175 4.5901q-1.0053 2.1793 1.174 3.1846l7.0305 3.2433q2.1793 1.0053 3.1846-1.174z" clip-path="url(#a)" fill="#fff" stroke="#fff"/>
<g clip-path="url(#a)">
<g transform="translate(332.79 432.06) rotate(-65.236) scale(.08 -.08)">
<use xlink:href="#r"/>
</g>
</g>
<path d="m397.54 432.29 0.76626-4.9966q0.3638-2.3723-2.0085-2.7361l-7.653-1.1736q-2.3723-0.3638-2.7361 2.0085l-0.76626 4.9966q-0.3638 2.3723 2.0085 2.7361l7.653 1.1736q2.3723 0.3638 2.7361-2.0085z" clip-path="url(#a)" fill="#fff" stroke="#fff"/>
<g clip-path="url(#a)">
<g transform="translate(393.52 431.67) rotate(-81.281) scale(.08 -.08)">
<use xlink:href="#r"/>
</g>
</g>
<path d="m416.37 474.22 0.025516 5.5862q0.010962 2.4 2.4109 2.389l7.7424-0.035365q2.4-0.010962 2.389-2.4109l-0.025516-5.5862q-0.010962-2.4-2.4109-2.389l-7.7424 0.035365q-2.4 0.010962-2.389 2.4109z" clip-path="url(#a)" fill="#fff" stroke="#fff"/>
<g clip-path="url(#a)">
<g transform="translate(420.43 474.2) rotate(89.738) scale(.08 -.08)">
<use xlink:href="#m"/>
</g>
</g>
<path d="m511.35 287.61 4.496 2.3106q2.1346 1.097 3.2316-1.0376l3.5391-6.8863q1.097-2.1346-1.0376-3.2316l-4.496-2.3106q-2.1346-1.097-3.2316 1.0376l-3.5391 6.8863q-1.097 2.1346 1.0376 3.2316z" clip-path="url(#a)" fill="#fff" stroke="#fff"/>
<g clip-path="url(#a)">
<g transform="translate(513.21 283.99) rotate(27.2) scale(.08 -.08)">
<use xlink:href="#r"/>
</g>
</g>
<path d="m438.5 474.68 0.56408 5.8278q0.23122 2.3888 2.6201 2.1576l7.7065-0.74592q2.3888-0.23122 2.1576-2.6201l-0.56408-5.8278q-0.23122-2.3888-2.6201-2.1576l-7.7065 0.74592q-2.3888 0.23122-2.1576 2.6201z" clip-path="url(#a)" fill="#fff" stroke="#fff"/>
<g clip-path="url(#a)">
<g transform="translate(442.54 474.28) rotate(84.471) scale(.08 -.08)">
<use xlink:href="#x"/>
</g>
</g>
<path d="m217.14 677.04 2.8646-4.7638q1.2368-2.0568-0.81999-3.2936l-6.6353-3.9899q-2.0568-1.2368-3.2936 0.81999l-2.8646 4.7638q-1.2368 2.0568 0.81999 3.2936l6.6353 3.9899q2.0568 1.2368 3.2936-0.81999z" clip-path="url(#a)" fill="#fff" stroke="#fff"/>
<g clip-path="url(#a)">
<g transform="translate(213.65 674.94) rotate(-58.98) scale(.08 -.08)">
<use xlink:href="#y"/>
</g>
</g>
<path d="m231.53 675.78 1.5754-4.8032q0.74798-2.2805-1.5325-3.0284l-7.3569-2.413q-2.2805-0.74798-3.0284 1.5325l-1.5754 4.8032q-0.74798 2.2805 1.5325 3.0284l7.3569 2.413q2.2805 0.74798 3.0284-1.5325z" clip-path="url(#a)" fill="#fff" stroke="#fff"/>
<g clip-path="url(#a)">
<g transform="translate(227.66 674.51) rotate(-71.841) scale(.08 -.08)">
<use xlink:href="#r"/>
</g>
</g>
<path d="m247.03 674.12 0.13812-5.0531q0.065574-2.3991-2.3335-2.4647l-7.7396-0.21155q-2.3991-0.065575-2.4647 2.3335l-0.13812 5.0531q-0.065575 2.3991 2.3335 2.4647l7.7396 0.21155q2.3991 0.065575 2.4647-2.3335z" clip-path="url(#a)" fill="#fff" stroke="#fff"/>
<g clip-path="url(#a)">
<g transform="translate(242.97 674.01) rotate(-88.434) scale(.08 -.08)">
<use xlink:href="#r"/>
</g>
</g>
<path d="m249.81 670.55 1.6084 5.3497q0.69103 2.2984 2.9894 1.6073l7.4146-2.2293q2.2984-0.69103 1.6073-2.9894l-1.6084-5.3497q-0.69103-2.2984-2.9894-1.6073l-7.4146 2.2293q-2.2984 0.69103-1.6073 2.9894z" clip-path="url(#a)" fill="#fff" stroke="#fff"/>
<g clip-path="url(#a)">
<g transform="translate(253.71 669.38) rotate(73.266) scale(.08 -.08)">
<use xlink:href="#m"/>
</g>
</g>
<path d="m266.96 672.54 3.049 4.6479q1.3164 2.0068 3.3232 0.69034l6.4739-4.2468q2.0068-1.3164 0.69034-3.3232l-3.049-4.6479q-1.3164-2.0068-3.3232-0.69034l-6.4739 4.2468q-2.0068 1.3164-0.69034 3.3232z" clip-path="url(#a)" fill="#fff" stroke="#fff"/>
<g clip-path="url(#a)">
<g transform="translate(270.36 670.31) rotate(56.735) scale(.08 -.08)">
<use xlink:href="#y"/>
</g>
</g>
<path d="m357.67 675.16 1.0152-4.952q0.48197-2.3511-1.8691-2.8331l-7.5848-1.5549q-2.3511-0.48197-2.8331 1.8691l-1.0152 4.952q-0.48197 2.3511 1.8691 2.8331l7.5848 1.5549q2.3511 0.48197 2.8331-1.8691z" clip-path="url(#a)" fill="#fff" stroke="#fff"/>
<g clip-path="url(#a)">
<g transform="translate(353.69 674.34) rotate(-78.415) scale(.08 -.08)">
<use xlink:href="#r"/>
</g>
</g>
<path d="m365.07 669.95 1.1218 5.4724q0.48197 2.3511 2.8331 1.8691l7.5848-1.5549q2.3511-0.48197 1.8691-2.8331l-1.1218-5.4724q-0.48197-2.3511-2.8331-1.8691l-7.5848 1.5549q-2.3511 0.48197-1.8691 2.8331z" clip-path="url(#a)" fill="#fff" stroke="#fff"/>
<g clip-path="url(#a)">
<g transform="translate(369.05 669.13) rotate(78.415) scale(.08 -.08)">
<use xlink:href="#m"/>
</g>
</g>
<path d="m417.49 750.15v33.808q0 2.4 2.4 2.4h7.7425q2.4 0 2.4-2.4v-33.808q0-2.4-2.4-2.4h-7.7425q-2.4 0-2.4 2.4z" clip-path="url(#a)" fill="#fff" stroke="#fff"/>
<g clip-path="url(#a)">
<g transform="translate(421.55 750.15) rotate(90) scale(.08 -.08)">
<use xlink:href="#l"/>
<use x="44.083984" xlink:href="#e"/>
<use x="105.607422" xlink:href="#h"/>
<use x="144.970703" xlink:href="#j"/>
<use x="242.382812" xlink:href="#i"/>
<use x="270.166016" xlink:href="#k"/>
<use x="333.544922" xlink:href="#f"/>
<use x="394.824219" xlink:href="#g"/>
</g>
</g>
<path d="m522.03 530.97 2.3845-4.9257q1.0457-2.1602-1.1144-3.2059l-6.9689-3.3736q-2.1602-1.0457-3.2059 1.1144l-2.3845 4.9257q-1.0458 2.1602 1.1144 3.2059l6.9689 3.3736q2.1602 1.0458 3.2059-1.1144z" clip-path="url(#a)" fill="#fff" stroke="#fff"/>
<g clip-path="url(#a)">
<g transform="translate(518.37 529.2) rotate(-64.168) scale(.08 -.08)">
<use xlink:href="#v"/>
</g>
</g>
<path d="m569.15 529.61 1.1542-4.6836q0.57425-2.3303-1.756-2.9045l-7.5176-1.8526q-2.3303-0.57426-2.9045 1.756l-1.1542 4.6836q-0.57426 2.3303 1.756 2.9045l7.5176 1.8526q2.3303 0.57425 2.9045-1.756z" clip-path="url(#a)" fill="#fff" stroke="#fff"/>
<g clip-path="url(#a)">
<g transform="translate(565.2 528.64) rotate(-76.156) scale(.08 -.08)">
<use xlink:href="#aa"/>
</g>
</g>
<path d="m748.35 385.7 5.175 1.7797q2.2695 0.78049 3.05-1.4891l2.5179-7.3217q0.78048-2.2695-1.4891-3.05l-5.175-1.7797q-2.2695-0.78048-3.05 1.4891l-2.5179 7.3217q-0.78049 2.2695 1.4891 3.05z" clip-path="url(#a)" fill="#fff" stroke="#fff"/>
<g clip-path="url(#a)">
<g transform="translate(749.67 381.86) rotate(18.978) scale(.08 -.08)">
<use xlink:href="#v"/>
</g>
</g>
<path d="m509.61 750.15v33.808q0 2.4 2.4 2.4h7.7425q2.4 0 2.4-2.4v-33.808q0-2.4-2.4-2.4h-7.7425q-2.4 0-2.4 2.4z" clip-path="url(#a)" fill="#fff" stroke="#fff"/>
<g clip-path="url(#a)">
<g transform="translate(513.67 750.15) rotate(90) scale(.08 -.08)">
<use xlink:href="#l"/>
<use x="44.083984" xlink:href="#e"/>
<use x="105.607422" xlink:href="#h"/>
<use x="144.970703" xlink:href="#j"/>
<use x="242.382812" xlink:href="#i"/>
<use x="270.166016" xlink:href="#k"/>
<use x="333.544922" xlink:href="#f"/>
<use x="394.824219" xlink:href="#g"/>
</g>
</g>
<path d="m1217.4 483.7 5.5255 0.82177q2.3739 0.35306 2.7269-2.0208l1.139-7.6583q0.35306-2.3739-2.0208-2.7269l-5.5255-0.82177q-2.3739-0.35306-2.7269 2.0208l-1.139 7.6583q-0.35306 2.3739 2.0208 2.7269z" clip-path="url(#a)" fill="#fff" stroke="#fff"/>
<g clip-path="url(#a)">
<g transform="translate(1218 479.68) rotate(8.4593) scale(.08 -.08)">
<use xlink:href="#m"/>
</g>
</g>
<path d="m732.29 581 4.1667-3.6794q1.799-1.5886 0.21039-3.3876l-5.1249-5.8036q-1.5886-1.799-3.3876-0.2104l-4.1667 3.6794q-1.799 1.5886-0.2104 3.3876l5.1249 5.8036q1.5886 1.799 3.3876 0.2104z" clip-path="url(#a)" fill="#fff" stroke="#fff"/>
<g clip-path="url(#a)">
<g transform="translate(729.6 577.95) rotate(-41.446) scale(.08 -.08)">
<use xlink:href="#y"/>
</g>
</g>
<path d="m759.17 580.79 3.8308-4.028q1.654-1.7391-0.085107-3.393l-5.6103-5.3358q-1.7391-1.654-3.393 0.085107l-3.8308 4.028q-1.654 1.7391 0.085107 3.393l5.6103 5.3358q1.7391 1.654 3.393-0.085107z" clip-path="url(#a)" fill="#fff" stroke="#fff"/>
<g clip-path="url(#a)">
<g transform="translate(756.22 577.99) rotate(-46.437) scale(.08 -.08)">
<use xlink:href="#y"/>
</g>
</g>
<path d="m903.19 477.39 1.526 4.8192q0.7245 2.288 3.0125 1.5635l7.3813-2.3373q2.288-0.7245 1.5635-3.0125l-1.526-4.8192q-0.7245-2.288-3.0125-1.5635l-7.3813 2.3373q-2.288 0.7245-1.5635 3.0125z" clip-path="url(#a)" fill="#fff" stroke="#fff"/>
<g clip-path="url(#a)">
<g transform="translate(907.06 476.17) rotate(72.43) scale(.08 -.08)">
<use xlink:href="#r"/>
</g>
</g>
<path d="m1130.1 483.55 4.954 1.0056q2.352 0.47744 2.8295-1.8746l1.5402-7.5878q0.47744-2.352-1.8746-2.8295l-4.954-1.0056q-2.352-0.47744-2.8295 1.8746l-1.5402 7.5878q-0.47744 2.352 1.8746 2.8295z" clip-path="url(#a)" fill="#fff" stroke="#fff"/>
<g clip-path="url(#a)">
<g transform="translate(1130.9 479.57) rotate(11.475) scale(.08 -.08)">
<use xlink:href="#r"/>
</g>
</g>
<path d="m787.39 580.59 3.5446-4.6602q1.4529-1.9102-0.45728-3.3632l-6.1625-4.6873q-1.9102-1.4529-3.3632 0.45728l-3.5446 4.6602q-1.4529 1.9102 0.45728 3.3632l6.1625 4.6873q1.9102 1.4529 3.3632-0.45728z" clip-path="url(#a)" fill="#fff" stroke="#fff"/>
<g clip-path="url(#a)">
<g transform="translate(784.16 578.13) rotate(-52.743) scale(.08 -.08)">
<use xlink:href="#x"/>
</g>
</g>
<path d="m1046.2 577.1 4.3134 3.9592q1.7681 1.6229 3.391-0.14517l5.2356-5.7039q1.6229-1.7681-0.14517-3.391l-4.3134-3.9592q-1.7681-1.6229-3.391 0.14517l-5.2356 5.7039q-1.6229 1.7681 0.14517 3.391z" clip-path="url(#a)" fill="#fff" stroke="#fff"/>
<g clip-path="url(#a)">
<g transform="translate(1049 574.11) rotate(42.549) scale(.08 -.08)">
<use xlink:href="#x"/>
</g>
</g>
<path d="m559.62 750.15v33.808q0 2.4 2.4 2.4h7.7425q2.4 0 2.4-2.4v-33.808q0-2.4-2.4-2.4h-7.7425q-2.4 0-2.4 2.4z" clip-path="url(#a)" fill="#fff" stroke="#fff"/>
<g clip-path="url(#a)">
<g transform="translate(563.68 750.15) rotate(90) scale(.08 -.08)">
<use xlink:href="#l"/>
<use x="44.083984" xlink:href="#e"/>
<use x="105.607422" xlink:href="#h"/>
<use x="144.970703" xlink:href="#j"/>
<use x="242.382812" xlink:href="#i"/>
<use x="270.166016" xlink:href="#k"/>
<use x="333.544922" xlink:href="#f"/>
<use x="394.824219" xlink:href="#g"/>
</g>
</g>
<path d="m612.26 750.15v33.808q0 2.4 2.4 2.4h7.7425q2.4 0 2.4-2.4v-33.808q0-2.4-2.4-2.4h-7.7425q-2.4 0-2.4 2.4z" clip-path="url(#a)" fill="#fff" stroke="#fff"/>
<g clip-path="url(#a)">
<g transform="translate(616.32 750.15) rotate(90) scale(.08 -.08)">
<use xlink:href="#l"/>
<use x="44.083984" xlink:href="#e"/>
<use x="105.607422" xlink:href="#h"/>
<use x="144.970703" xlink:href="#j"/>
<use x="242.382812" xlink:href="#i"/>
<use x="270.166016" xlink:href="#k"/>
<use x="333.544922" xlink:href="#f"/>
<use x="394.824219" xlink:href="#g"/>
</g>
</g>
<path d="m860.66 581.59 4.507-3.3005q1.9363-1.418 0.51835-3.3543l-4.5744-6.2467q-1.418-1.9363-3.3543-0.51835l-4.507 3.3005q-1.9363 1.418-0.51835 3.3543l4.5744 6.2467q1.418 1.9363 3.3543 0.51835z" clip-path="url(#a)" fill="#fff" stroke="#fff"/>
<g clip-path="url(#a)">
<g transform="translate(858.26 578.31) rotate(-36.215) scale(.08 -.08)">
<use xlink:href="#m"/>
</g>
</g>
<path d="m987.54 578.37 4.5543 3.2349q1.9566 1.3898 3.3464-0.56684l4.4836-6.3122q1.3898-1.9566-0.56684-3.3464l-4.5543-3.2349q-1.9566-1.3898-3.3464 0.56684l-4.4836 6.3122q-1.3898 1.9566 0.56684 3.3464z" clip-path="url(#a)" fill="#fff" stroke="#fff"/>
<g clip-path="url(#a)">
<g transform="translate(989.89 575.06) rotate(35.386) scale(.08 -.08)">
<use xlink:href="#m"/>
</g>
</g>
<path d="m929.47 626.08 0.12412-5.8537q0.050877-2.3995-2.3486-2.4503l-7.7408-0.16413q-2.3995-0.050876-2.4503 2.3486l-0.12412 5.8537q-0.050877 2.3995 2.3486 2.4503l7.7408 0.16413q2.3995 0.050877 2.4503-2.3486z" clip-path="url(#a)" fill="#fff" stroke="#fff"/>
<g clip-path="url(#a)">
<g transform="translate(925.4 626) rotate(-88.785) scale(.08 -.08)">
<use xlink:href="#x"/>
</g>
</g>
<path d="m1454.9 579.03 4.7861 2.6536q2.099 1.1638 3.2627-0.93522l3.7543-6.7714q1.1638-2.099-0.93522-3.2627l-4.7861-2.6536q-2.099-1.1638-3.2627 0.93522l-3.7543 6.7714q-1.1638 2.099 0.93522 3.2627z" clip-path="url(#a)" fill="#fff" stroke="#fff"/>
<g clip-path="url(#a)">
<g transform="translate(1456.9 575.48) rotate(29.006) scale(.08 -.08)">
<use xlink:href="#v"/>
</g>
</g>
<path d="m1336.2 627.72 1.9116-4.4288q0.95112-2.2035-1.2524-3.1546l-7.1086-3.0683q-2.2035-0.95112-3.1546 1.2524l-1.9116 4.4288q-0.95112 2.2035 1.2524 3.1546l7.1086 3.0683q2.2035 0.95112 3.1546-1.2524z" clip-path="url(#a)" fill="#fff" stroke="#fff"/>
<g clip-path="url(#a)">
<g transform="translate(1332.4 626.11) rotate(-66.653) scale(.08 -.08)">
<use xlink:href="#aa"/>
</g>
</g>
<path d="m1408.2 576.89 3.5707 4.1471q1.566 1.8187 3.3847 0.25275l5.8673-5.0519q1.8187-1.566 0.25275-3.3847l-3.5707-4.1471q-1.566-1.8187-3.3847-0.25275l-5.8673 5.0519q-1.8187 1.566-0.25275 3.3847z" clip-path="url(#a)" fill="#fff" stroke="#fff"/>
<g clip-path="url(#a)">
<g transform="translate(1411.3 574.24) rotate(49.271) scale(.08 -.08)">
<use xlink:href="#v"/>
</g>
</g>
<path d="m1283.4 750.15v33.808q0 2.4 2.4 2.4h7.7425q2.4 0 2.4-2.4v-33.808q0-2.4-2.4-2.4h-7.7425q-2.4 0-2.4 2.4z" clip-path="url(#a)" fill="#fff" stroke="#fff"/>
<g clip-path="url(#a)">
<g transform="translate(1287.5 750.15) rotate(90) scale(.08 -.08)">
<use xlink:href="#l"/>
<use x="44.083984" xlink:href="#e"/>
<use x="105.607422" xlink:href="#h"/>
<use x="144.970703" xlink:href="#j"/>
<use x="242.382812" xlink:href="#i"/>
<use x="270.166016" xlink:href="#k"/>
<use x="333.544922" xlink:href="#f"/>
<use x="394.824219" xlink:href="#g"/>
</g>
</g>
<path d="m1416.9 677.47 3.3475-3.7878q1.5893-1.7984-0.20903-3.3877l-5.8016-5.1272q-1.7984-1.5893-3.3877 0.20903l-3.3475 3.7878q-1.5893 1.7984 0.20903 3.3877l5.8016 5.1272q1.7984 1.5893 3.3877-0.20903z" clip-path="url(#a)" fill="#fff" stroke="#fff"/>
<g clip-path="url(#a)">
<g transform="translate(1413.8 674.78) rotate(-48.531) scale(.08 -.08)">
<use xlink:href="#r"/>
</g>
</g>
<path d="m1462.2 674.27 0.050894-5.586q0.021865-2.3999-2.378-2.4218l-7.7422-0.070539q-2.3999-0.021865-2.4218 2.378l-0.050894 5.586q-0.021865 2.3999 2.378 2.4218l7.7422 0.070539q2.3999 0.021866 2.4218-2.378z" clip-path="url(#a)" fill="#fff" stroke="#fff"/>
<g clip-path="url(#a)">
<g transform="translate(1458.1 674.24) rotate(-89.478) scale(.08 -.08)">
<use xlink:href="#m"/>
</g>
</g>
<path d="m1492.8 673.42 3.8996 4.3674q1.5985 1.7902 3.3887 0.19178l5.7754-5.1567q1.7902-1.5985 0.19178-3.3887l-3.8996-4.3674q-1.5985-1.7902-3.3887-0.19178l-5.7754 5.1567q-1.7902 1.5985-0.19178 3.3887z" clip-path="url(#a)" fill="#fff" stroke="#fff"/>
<g clip-path="url(#a)">
<g transform="translate(1495.8 670.71) rotate(48.239) scale(.08 -.08)">
<use xlink:href="#x"/>
</g>
</g>
<path d="m1365 750.15v33.808q0 2.4 2.4 2.4h7.7425q2.4 0 2.4-2.4v-33.808q0-2.4-2.4-2.4h-7.7425q-2.4 0-2.4 2.4z" clip-path="url(#a)" fill="#fff" stroke="#fff"/>
<g clip-path="url(#a)">
<g transform="translate(1369.1 750.15) rotate(90) scale(.08 -.08)">
<use xlink:href="#l"/>
<use x="44.083984" xlink:href="#e"/>
<use x="105.607422" xlink:href="#h"/>
<use x="144.970703" xlink:href="#j"/>
<use x="242.382812" xlink:href="#i"/>
<use x="270.166016" xlink:href="#k"/>
<use x="333.544922" xlink:href="#f"/>
<use x="394.824219" xlink:href="#g"/>
</g>
</g>
<path d="m1449.2 750.15v33.808q0 2.4 2.4 2.4h7.7425q2.4 0 2.4-2.4v-33.808q0-2.4-2.4-2.4h-7.7425q-2.4 0-2.4 2.4z" clip-path="url(#a)" fill="#fff" stroke="#fff"/>
<g clip-path="url(#a)">
<g transform="translate(1453.3 750.15) rotate(90) scale(.08 -.08)">
<use xlink:href="#l"/>
<use x="44.083984" xlink:href="#e"/>
<use x="105.607422" xlink:href="#h"/>
<use x="144.970703" xlink:href="#j"/>
<use x="242.382812" xlink:href="#i"/>
<use x="270.166016" xlink:href="#k"/>
<use x="333.544922" xlink:href="#f"/>
<use x="394.824219" xlink:href="#g"/>
</g>
</g>
<path d="m766.2 677.15 3.0038-4.7099q1.2905-2.0235-0.73297-3.314l-6.5279-4.1633q-2.0235-1.2905-3.314 0.73297l-3.0038 4.7099q-1.2905 2.0235 0.73297 3.314l6.5279 4.1633q2.0235 1.2905 3.314-0.73297z" clip-path="url(#a)" fill="#fff" stroke="#fff"/>
<g clip-path="url(#a)">
<g transform="translate(762.77 674.97) rotate(-57.472) scale(.08 -.08)">
<use xlink:href="#m"/>
</g>
</g>
<path d="m798.92 674.47 0.054527-5.9848q0.021865-2.3999-2.378-2.4218l-7.7422-0.070539q-2.3999-0.021866-2.4218 2.378l-0.054527 5.9848q-0.021865 2.3999 2.378 2.4218l7.7422 0.070539q2.3999 0.021865 2.4218-2.378z" clip-path="url(#a)" fill="#fff" stroke="#fff"/>
<g clip-path="url(#a)">
<defs>
<path id="al" d="m9.8125 72.906h13.281l32.328-60.984v60.984h9.5625v-72.906h-13.281l-32.312 60.984v-60.984h-9.5781z"/>
</defs>
<g transform="translate(794.86 674.44) rotate(-89.478) scale(.08 -.08)">
<use xlink:href="#al"/>
</g>
</g>
<path d="m817.48 672.48 3.0341 4.6904q1.3035 2.0151 3.3187 0.71158l6.5009-4.2053q2.0151-1.3035 0.71158-3.3187l-3.0341-4.6904q-1.3035-2.0151-3.3187-0.71158l-6.5009 4.2053q-2.0151 1.3035-0.71158 3.3187z" clip-path="url(#a)" fill="#fff" stroke="#fff"/>
<g clip-path="url(#a)">
<g transform="translate(820.89 670.28) rotate(57.102) scale(.08 -.08)">
<use xlink:href="#m"/>
</g>
</g>
<path d="m1029 677.41 3.3434-4.4752q1.4364-1.9227-0.48624-3.3591l-6.2026-4.634q-1.9227-1.4364-3.3591 0.48624l-3.3434 4.4752q-1.4364 1.9227 0.48624 3.3591l6.2026 4.634q1.9227 1.4364 3.3591-0.48624z" clip-path="url(#a)" fill="#fff" stroke="#fff"/>
<g clip-path="url(#a)">
<g transform="translate(1025.7 674.98) rotate(-53.237) scale(.08 -.08)">
<use xlink:href="#m"/>
</g>
</g>
<path d="m1067.4 674.47 0.054527-5.9848q0.021866-2.3999-2.378-2.4218l-7.7422-0.070539q-2.3999-0.021866-2.4218 2.378l-0.054527 5.9848q-0.021866 2.3999 2.378 2.4218l7.7422 0.070539q2.3999 0.021865 2.4218-2.378z" clip-path="url(#a)" fill="#fff" stroke="#fff"/>
<g clip-path="url(#a)">
<g transform="translate(1063.3 674.44) rotate(-89.478) scale(.08 -.08)">
<use xlink:href="#al"/>
</g>
</g>
<path d="m1091.3 672.98 3.3694 4.4557q1.4476 1.9143 3.3619 0.46668l6.1755-4.67q1.9143-1.4476 0.46668-3.3619l-3.3694-4.4557q-1.4476-1.9143-3.3619-0.46668l-6.1755 4.67q-1.9143 1.4476-0.46668 3.3619z" clip-path="url(#a)" fill="#fff" stroke="#fff"/>
<g clip-path="url(#a)">
<g transform="translate(1094.6 670.53) rotate(52.903) scale(.08 -.08)">
<use xlink:href="#m"/>
</g>
</g>
<path d="m983.37 750.15v33.808q0 2.4 2.4 2.4h7.7425q2.4 0 2.4-2.4v-33.808q0-2.4-2.4-2.4h-7.7425q-2.4 0-2.4 2.4z" clip-path="url(#a)" fill="#fff" stroke="#fff"/>
<g clip-path="url(#a)">
<g transform="translate(987.44 750.15) rotate(90) scale(.08 -.08)">
<use xlink:href="#l"/>
<use x="44.083984" xlink:href="#e"/>
<use x="105.607422" xlink:href="#h"/>
<use x="144.970703" xlink:href="#j"/>
<use x="242.382812" xlink:href="#i"/>
<use x="270.166016" xlink:href="#k"/>
<use x="333.544922" xlink:href="#f"/>
<use x="394.824219" xlink:href="#g"/>
</g>
</g>
<path d="m1054.4 750.15v33.808q0 2.4 2.4 2.4h7.7425q2.4 0 2.4-2.4v-33.808q0-2.4-2.4-2.4h-7.7425q-2.4 0-2.4 2.4z" clip-path="url(#a)" fill="#fff" stroke="#fff"/>
<g clip-path="url(#a)">
<g transform="translate(1058.5 750.15) rotate(90) scale(.08 -.08)">
<use xlink:href="#l"/>
<use x="44.083984" xlink:href="#e"/>
<use x="105.607422" xlink:href="#h"/>
<use x="144.970703" xlink:href="#j"/>
<use x="242.382812" xlink:href="#i"/>
<use x="270.166016" xlink:href="#k"/>
<use x="333.544922" xlink:href="#f"/>
<use x="394.824219" xlink:href="#g"/>
</g>
</g>
<path d="m1128.1 750.15v33.808q0 2.4 2.4 2.4h7.7425q2.4 0 2.4-2.4v-33.808q0-2.4-2.4-2.4h-7.7425q-2.4 0-2.4 2.4z" clip-path="url(#a)" fill="#fff" stroke="#fff"/>
<g clip-path="url(#a)">
<g transform="translate(1132.2 750.15) rotate(90) scale(.08 -.08)">
<use xlink:href="#l"/>
<use x="44.083984" xlink:href="#e"/>
<use x="105.607422" xlink:href="#h"/>
<use x="144.970703" xlink:href="#j"/>
<use x="242.382812" xlink:href="#i"/>
<use x="270.166016" xlink:href="#k"/>
<use x="333.544922" xlink:href="#f"/>
<use x="394.824219" xlink:href="#g"/>
</g>
</g>
<path d="m725.43 750.15v33.808q0 2.4 2.4 2.4h7.7425q2.4 0 2.4-2.4v-33.808q0-2.4-2.4-2.4h-7.7425q-2.4 0-2.4 2.4z" clip-path="url(#a)" fill="#fff" stroke="#fff"/>
<g clip-path="url(#a)">
<g transform="translate(729.5 750.15) rotate(90) scale(.08 -.08)">
<use xlink:href="#l"/>
<use x="44.083984" xlink:href="#e"/>
<use x="105.607422" xlink:href="#h"/>
<use x="144.970703" xlink:href="#j"/>
<use x="242.382812" xlink:href="#i"/>
<use x="270.166016" xlink:href="#k"/>
<use x="333.544922" xlink:href="#f"/>
<use x="394.824219" xlink:href="#g"/>
</g>
</g>
<path d="m785.97 750.15v33.808q0 2.4 2.4 2.4h7.7425q2.4 0 2.4-2.4v-33.808q0-2.4-2.4-2.4h-7.7425q-2.4 0-2.4 2.4z" clip-path="url(#a)" fill="#fff" stroke="#fff"/>
<g clip-path="url(#a)">
<g transform="translate(790.03 750.15) rotate(90) scale(.08 -.08)">
<use xlink:href="#l"/>
<use x="44.083984" xlink:href="#e"/>
<use x="105.607422" xlink:href="#h"/>
<use x="144.970703" xlink:href="#j"/>
<use x="242.382812" xlink:href="#i"/>
<use x="270.166016" xlink:href="#k"/>
<use x="333.544922" xlink:href="#f"/>
<use x="394.824219" xlink:href="#g"/>
</g>
</g>
<path d="m849.14 750.15v33.808q0 2.4 2.4 2.4h7.7425q2.4 0 2.4-2.4v-33.808q0-2.4-2.4-2.4h-7.7425q-2.4 0-2.4 2.4z" clip-path="url(#a)" fill="#fff" stroke="#fff"/>
<g clip-path="url(#a)">
<g transform="translate(853.2 750.15) rotate(90) scale(.08 -.08)">
<use xlink:href="#l"/>
<use x="44.083984" xlink:href="#e"/>
<use x="105.607422" xlink:href="#h"/>
<use x="144.970703" xlink:href="#j"/>
<use x="242.382812" xlink:href="#i"/>
<use x="270.166016" xlink:href="#k"/>
<use x="333.544922" xlink:href="#f"/>
<use x="394.824219" xlink:href="#g"/>
</g>
</g>
<path d="m335.89 750.15v33.808q0 2.4 2.4 2.4h7.7425q2.4 0 2.4-2.4v-33.808q0-2.4-2.4-2.4h-7.7425q-2.4 0-2.4 2.4z" clip-path="url(#a)" fill="#fff" stroke="#fff"/>
<g clip-path="url(#a)">
<g transform="translate(339.96 750.15) rotate(90) scale(.08 -.08)">
<use xlink:href="#l"/>
<use x="44.083984" xlink:href="#e"/>
<use x="105.607422" xlink:href="#h"/>
<use x="144.970703" xlink:href="#j"/>
<use x="242.382812" xlink:href="#i"/>
<use x="270.166016" xlink:href="#k"/>
<use x="333.544922" xlink:href="#f"/>
<use x="394.824219" xlink:href="#g"/>
</g>
</g>
<path d="m375.37 750.15v33.808q0 2.4 2.4 2.4h7.7425q2.4 0 2.4-2.4v-33.808q0-2.4-2.4-2.4h-7.7425q-2.4 0-2.4 2.4z" clip-path="url(#a)" fill="#fff" stroke="#fff"/>
<g clip-path="url(#a)">
<g transform="translate(379.44 750.15) rotate(90) scale(.08 -.08)">
<use xlink:href="#l"/>
<use x="44.083984" xlink:href="#e"/>
<use x="105.607422" xlink:href="#h"/>
<use x="144.970703" xlink:href="#j"/>
<use x="242.382812" xlink:href="#i"/>
<use x="270.166016" xlink:href="#k"/>
<use x="333.544922" xlink:href="#f"/>
<use x="394.824219" xlink:href="#g"/>
</g>
</g>
<path d="m177.97 750.15v33.808q0 2.4 2.4 2.4h7.7425q2.4 0 2.4-2.4v-33.808q0-2.4-2.4-2.4h-7.7425q-2.4 0-2.4 2.4z" clip-path="url(#a)" fill="#fff" stroke="#fff"/>
<g clip-path="url(#a)">
<g transform="translate(182.03 750.15) rotate(90) scale(.08 -.08)">
<use xlink:href="#l"/>
<use x="44.083984" xlink:href="#e"/>
<use x="105.607422" xlink:href="#h"/>
<use x="144.970703" xlink:href="#j"/>
<use x="242.382812" xlink:href="#i"/>
<use x="270.166016" xlink:href="#k"/>
<use x="333.544922" xlink:href="#f"/>
<use x="394.824219" xlink:href="#g"/>
</g>
</g>
<path d="m204.29 750.15v33.808q0 2.4 2.4 2.4h7.7425q2.4 0 2.4-2.4v-33.808q0-2.4-2.4-2.4h-7.7425q-2.4 0-2.4 2.4z" clip-path="url(#a)" fill="#fff" stroke="#fff"/>
<g clip-path="url(#a)">
<g transform="translate(208.36 750.15) rotate(90) scale(.08 -.08)">
<use xlink:href="#l"/>
<use x="44.083984" xlink:href="#e"/>
<use x="105.607422" xlink:href="#h"/>
<use x="144.970703" xlink:href="#j"/>
<use x="242.382812" xlink:href="#i"/>
<use x="270.166016" xlink:href="#k"/>
<use x="333.544922" xlink:href="#f"/>
<use x="394.824219" xlink:href="#g"/>
</g>
</g>
<path d="m233.24 750.15v33.808q0 2.4 2.4 2.4h7.7425q2.4 0 2.4-2.4v-33.808q0-2.4-2.4-2.4h-7.7425q-2.4 0-2.4 2.4z" clip-path="url(#a)" fill="#fff" stroke="#fff"/>
<g clip-path="url(#a)">
<g transform="translate(237.31 750.15) rotate(90) scale(.08 -.08)">
<use xlink:href="#l"/>
<use x="44.083984" xlink:href="#e"/>
<use x="105.607422" xlink:href="#h"/>
<use x="144.970703" xlink:href="#j"/>
<use x="242.382812" xlink:href="#i"/>
<use x="270.166016" xlink:href="#k"/>
<use x="333.544922" xlink:href="#f"/>
<use x="394.824219" xlink:href="#g"/>
</g>
</g>
<path d="m264.83 750.15v33.808q0 2.4 2.4 2.4h7.7425q2.4 0 2.4-2.4v-33.808q0-2.4-2.4-2.4h-7.7425q-2.4 0-2.4 2.4z" clip-path="url(#a)" fill="#fff" stroke="#fff"/>
<g clip-path="url(#a)">
<g transform="translate(268.89 750.15) rotate(90) scale(.08 -.08)">
<use xlink:href="#l"/>
<use x="44.083984" xlink:href="#e"/>
<use x="105.607422" xlink:href="#h"/>
<use x="144.970703" xlink:href="#j"/>
<use x="242.382812" xlink:href="#i"/>
<use x="270.166016" xlink:href="#k"/>
<use x="333.544922" xlink:href="#f"/>
<use x="394.824219" xlink:href="#g"/>
</g>
</g>
<path d="m299.04 750.15v33.808q0 2.4 2.4 2.4h7.7425q2.4 0 2.4-2.4v-33.808q0-2.4-2.4-2.4h-7.7425q-2.4 0-2.4 2.4z" clip-path="url(#a)" fill="#fff" stroke="#fff"/>
<g clip-path="url(#a)">
<g transform="translate(303.11 750.15) rotate(90) scale(.08 -.08)">
<use xlink:href="#l"/>
<use x="44.083984" xlink:href="#e"/>
<use x="105.607422" xlink:href="#h"/>
<use x="144.970703" xlink:href="#j"/>
<use x="242.382812" xlink:href="#i"/>
<use x="270.166016" xlink:href="#k"/>
<use x="333.544922" xlink:href="#f"/>
<use x="394.824219" xlink:href="#g"/>
</g>
</g>
<path d="m115.27 674.46 0.41312-5.0381q0.19614-2.392-2.1958-2.5881l-7.7166-0.63275q-2.392-0.19614-2.5881 2.1958l-0.41312 5.0381q-0.19614 2.392 2.1958 2.5881l7.7166 0.63275q2.392 0.19614 2.5881-2.1958z" clip-path="url(#a)" fill="#fff" stroke="#fff"/>
<g clip-path="url(#a)">
<g transform="translate(111.22 674.12) rotate(-85.312) scale(.08 -.08)">
<use xlink:href="#r"/>
</g>
</g>
<path d="m110.65 669.15 0.45653 5.5676q0.19614 2.392 2.5881 2.1958l7.7166-0.63275q2.392-0.19614 2.1958-2.5881l-0.45653-5.5676q-0.19614-2.392-2.5881-2.1958l-7.7166 0.63275q-2.392 0.19614-2.1958 2.5881z" clip-path="url(#a)" fill="#fff" stroke="#fff"/>
<g clip-path="url(#a)">
<g transform="translate(114.7 668.82) rotate(85.312) scale(.08 -.08)">
<use xlink:href="#m"/>
</g>
</g>
<path d="m133.23 750.15v33.808q0 2.4 2.4 2.4h7.7425q2.4 0 2.4-2.4v-33.808q0-2.4-2.4-2.4h-7.7425q-2.4 0-2.4 2.4z" clip-path="url(#a)" fill="#fff" stroke="#fff"/>
<g clip-path="url(#a)">
<g transform="translate(137.29 750.15) rotate(90) scale(.08 -.08)">
<use xlink:href="#l"/>
<use x="44.083984" xlink:href="#e"/>
<use x="105.607422" xlink:href="#h"/>
<use x="144.970703" xlink:href="#j"/>
<use x="242.382812" xlink:href="#i"/>
<use x="270.166016" xlink:href="#k"/>
<use x="333.544922" xlink:href="#f"/>
<use x="394.824219" xlink:href="#g"/>
</g>
</g>
<path d="m99.01 750.15v33.808q0 2.4 2.4 2.4h7.7425q2.4 0 2.4-2.4v-33.808q0-2.4-2.4-2.4h-7.7425q-2.4 0-2.4 2.4z" clip-path="url(#a)" fill="#fff" stroke="#fff"/>
<g clip-path="url(#a)">
<g transform="translate(103.07 750.15) rotate(90) scale(.08 -.08)">
<use xlink:href="#l"/>
<use x="44.083984" xlink:href="#e"/>
<use x="105.607422" xlink:href="#h"/>
<use x="144.970703" xlink:href="#j"/>
<use x="242.382812" xlink:href="#i"/>
<use x="270.166016" xlink:href="#k"/>
<use x="333.544922" xlink:href="#f"/>
<use x="394.824219" xlink:href="#g"/>
</g>
</g>
<path d="m114.8 750.15v33.808q0 2.4 2.4 2.4h7.7425q2.4 0 2.4-2.4v-33.808q0-2.4-2.4-2.4h-7.7425q-2.4 0-2.4 2.4z" clip-path="url(#a)" fill="#fff" stroke="#fff"/>
<g clip-path="url(#a)">
<g transform="translate(118.87 750.15) rotate(90) scale(.08 -.08)">
<use xlink:href="#l"/>
<use x="44.083984" xlink:href="#e"/>
<use x="105.607422" xlink:href="#h"/>
<use x="144.970703" xlink:href="#j"/>
<use x="242.382812" xlink:href="#i"/>
<use x="270.166016" xlink:href="#k"/>
<use x="333.544922" xlink:href="#f"/>
<use x="394.824219" xlink:href="#g"/>
</g>
</g>
<path d="m67.426 750.15v33.808q0 2.4 2.4 2.4h7.7425q2.4 0 2.4-2.4v-33.808q0-2.4-2.4-2.4h-7.7425q-2.4 0-2.4 2.4z" clip-path="url(#a)" fill="#fff" stroke="#fff"/>
<g clip-path="url(#a)">
<g transform="translate(71.489 750.15) rotate(90) scale(.08 -.08)">
<use xlink:href="#l"/>
<use x="44.083984" xlink:href="#e"/>
<use x="105.607422" xlink:href="#h"/>
<use x="144.970703" xlink:href="#j"/>
<use x="242.382812" xlink:href="#i"/>
<use x="270.166016" xlink:href="#k"/>
<use x="333.544922" xlink:href="#f"/>
<use x="394.824219" xlink:href="#g"/>
</g>
</g>
<path d="m75.322 750.15v33.808q0 2.4 2.4 2.4h7.7425q2.4 0 2.4-2.4v-33.808q0-2.4-2.4-2.4h-7.7425q-2.4 0-2.4 2.4z" clip-path="url(#a)" fill="#fff" stroke="#fff"/>
<g clip-path="url(#a)">
<g transform="translate(79.386 750.15) rotate(90) scale(.08 -.08)">
<use xlink:href="#l"/>
<use x="44.083984" xlink:href="#e"/>
<use x="105.607422" xlink:href="#h"/>
<use x="144.970703" xlink:href="#j"/>
<use x="242.382812" xlink:href="#i"/>
<use x="270.166016" xlink:href="#k"/>
<use x="333.544922" xlink:href="#f"/>
<use x="394.824219" xlink:href="#g"/>
</g>
</g>
<path d="m122.81 336.84 1.3458-9.9254q0.32246-2.3782-2.0558-2.7007l-7.6723-1.0403q-2.3782-0.32246-2.7007 2.0558l-1.3458 9.9254q-0.32246 2.3782 2.0558 2.7007l7.6723 1.0403q2.3782 0.32246 2.7007-2.0558z" clip-path="url(#a)" fill="#fff" stroke="#fff"/>
<g clip-path="url(#a)">
<g transform="translate(118.78 336.29) rotate(-82.278) scale(.08 -.08)">
<use xlink:href="#ab"/>
<use x="55.712891" xlink:href="#y"/>
</g>
</g>
<path d="m188.46 87.743 6.362 7.8573q1.5103 1.8652 3.3755 0.35495l6.0173-4.8722q1.8652-1.5103 0.35495-3.3755l-6.362-7.8573q-1.5103-1.8652-3.3755-0.35496l-6.0173 4.8722q-1.8652 1.5103-0.35495 3.3755z" clip-path="url(#a)" fill="#fff" stroke="#fff"/>
<g clip-path="url(#a)">
<g transform="translate(191.62 85.186) rotate(51.003) scale(.08 -.08)">
<use xlink:href="#ab"/>
<use x="57.962891" xlink:href="#v"/>
</g>
</g>
<path d="m85.85 750.15v33.808q0 2.4 2.4 2.4h7.7425q2.4 0 2.4-2.4v-33.808q0-2.4-2.4-2.4h-7.7425q-2.4 0-2.4 2.4z" clip-path="url(#a)" fill="#fff" stroke="#fff"/>
<g clip-path="url(#a)">
<g transform="translate(89.914 750.15) rotate(90) scale(.08 -.08)">
<use xlink:href="#l"/>
<use x="44.083984" xlink:href="#e"/>
<use x="105.607422" xlink:href="#h"/>
<use x="144.970703" xlink:href="#j"/>
<use x="242.382812" xlink:href="#i"/>
<use x="270.166016" xlink:href="#k"/>
<use x="333.544922" xlink:href="#f"/>
<use x="394.824219" xlink:href="#g"/>
</g>
</g>
<path d="m462.23 750.15v33.808q0 2.4 2.4 2.4h7.7425q2.4 0 2.4-2.4v-33.808q0-2.4-2.4-2.4h-7.7425q-2.4 0-2.4 2.4z" clip-path="url(#a)" fill="#fff" stroke="#fff"/>
<g clip-path="url(#a)">
<g transform="translate(466.29 750.15) rotate(90) scale(.08 -.08)">
<use xlink:href="#l"/>
<use x="44.083984" xlink:href="#e"/>
<use x="105.607422" xlink:href="#h"/>
<use x="144.970703" xlink:href="#j"/>
<use x="242.382812" xlink:href="#i"/>
<use x="270.166016" xlink:href="#k"/>
<use x="333.544922" xlink:href="#f"/>
<use x="394.824219" xlink:href="#g"/>
</g>
</g>
<path d="m667.53 750.15v33.808q0 2.4 2.4 2.4h7.7425q2.4 0 2.4-2.4v-33.808q0-2.4-2.4-2.4h-7.7425q-2.4 0-2.4 2.4z" clip-path="url(#a)" fill="#fff" stroke="#fff"/>
<g clip-path="url(#a)">
<g transform="translate(671.59 750.15) rotate(90) scale(.08 -.08)">
<use xlink:href="#l"/>
<use x="44.083984" xlink:href="#e"/>
<use x="105.607422" xlink:href="#h"/>
<use x="144.970703" xlink:href="#j"/>
<use x="242.382812" xlink:href="#i"/>
<use x="270.166016" xlink:href="#k"/>
<use x="333.544922" xlink:href="#f"/>
<use x="394.824219" xlink:href="#g"/>
</g>
</g>
<path d="m914.94 750.15v33.808q0 2.4 2.4 2.4h7.7425q2.4 0 2.4-2.4v-33.808q0-2.4-2.4-2.4h-7.7425q-2.4 0-2.4 2.4z" clip-path="url(#a)" fill="#fff" stroke="#fff"/>
<g clip-path="url(#a)">
<g transform="translate(919 750.15) rotate(90) scale(.08 -.08)">
<use xlink:href="#l"/>
<use x="44.083984" xlink:href="#e"/>
<use x="105.607422" xlink:href="#h"/>
<use x="144.970703" xlink:href="#j"/>
<use x="242.382812" xlink:href="#i"/>
<use x="270.166016" xlink:href="#k"/>
<use x="333.544922" xlink:href="#f"/>
<use x="394.824219" xlink:href="#g"/>
</g>
</g>
<path d="m1204.5 750.15v33.808q0 2.4 2.4 2.4h7.7425q2.4 0 2.4-2.4v-33.808q0-2.4-2.4-2.4h-7.7425q-2.4 0-2.4 2.4z" clip-path="url(#a)" fill="#fff" stroke="#fff"/>
<g clip-path="url(#a)">
<g transform="translate(1208.5 750.15) rotate(90) scale(.08 -.08)">
<use xlink:href="#l"/>
<use x="44.083984" xlink:href="#e"/>
<use x="105.607422" xlink:href="#h"/>
<use x="144.970703" xlink:href="#j"/>
<use x="242.382812" xlink:href="#i"/>
<use x="270.166016" xlink:href="#k"/>
<use x="333.544922" xlink:href="#f"/>
<use x="394.824219" xlink:href="#g"/>
</g>
</g>
<path d="m1536.1 750.15v33.808q0 2.4 2.4 2.4h7.7425q2.4 0 2.4-2.4v-33.808q0-2.4-2.4-2.4h-7.7425q-2.4 0-2.4 2.4z" clip-path="url(#a)" fill="#fff" stroke="#fff"/>
<g clip-path="url(#a)">
<g transform="translate(1540.2 750.15) rotate(90) scale(.08 -.08)">
<use xlink:href="#l"/>
<use x="44.083984" xlink:href="#e"/>
<use x="105.607422" xlink:href="#h"/>
<use x="144.970703" xlink:href="#j"/>
<use x="242.382812" xlink:href="#i"/>
<use x="270.166016" xlink:href="#k"/>
<use x="333.544922" xlink:href="#f"/>
<use x="394.824219" xlink:href="#g"/>
</g>
</g>
<defs>
<path id="b" d="m0 8.6603c2.2967 0 4.4997-0.9125 6.1237-2.5365 1.624-1.624 2.5365-3.827 2.5365-6.1237s-0.9125-4.4997-2.5365-6.1237c-1.624-1.624-3.827-2.5365-6.1237-2.5365s-4.4997 0.9125-6.1237 2.5365c-1.624 1.624-2.5365 3.827-2.5365 6.1237s0.9125 4.4997 2.5365 6.1237c1.624 1.624 3.827 2.5365 6.1237 2.5365z"/>
</defs>
<g clip-path="url(#a)">
<use x="73.69697" y="814.545455" fill="#ffffff" stroke="#ffffff" xlink:href="#b"/>
</g>
<g clip-path="url(#a)">
<use x="81.593074" y="814.545455" fill="#ffffff" stroke="#ffffff" xlink:href="#b"/>
</g>
<g clip-path="url(#a)">
<use x="92.121212" y="814.545455" fill="#ffffff" stroke="#ffffff" xlink:href="#b"/>
</g>
<g clip-path="url(#a)">
<use x="105.281385" y="814.545455" fill="#ffffff" stroke="#ffffff" xlink:href="#b"/>
</g>
<g clip-path="url(#a)">
<use x="121.073593" y="814.545455" fill="#ffffff" stroke="#ffffff" xlink:href="#b"/>
</g>
<g clip-path="url(#a)">
<use x="139.497835" y="814.545455" fill="#ffffff" stroke="#ffffff" xlink:href="#b"/>
</g>
<g clip-path="url(#a)">
<use x="160.554113" y="814.545455" fill="#ffffff" stroke="#ffffff" xlink:href="#b"/>
</g>
<g clip-path="url(#a)">
<use x="184.242424" y="814.545455" fill="#ffffff" stroke="#ffffff" xlink:href="#b"/>
</g>
<g clip-path="url(#a)">
<use x="210.562771" y="814.545455" fill="#ffffff" stroke="#ffffff" xlink:href="#b"/>
</g>
<g clip-path="url(#a)">
<use x="239.515152" y="814.545455" fill="#ffffff" stroke="#ffffff" xlink:href="#b"/>
</g>
<g clip-path="url(#a)">
<use x="271.099567" y="814.545455" fill="#ffffff" stroke="#ffffff" xlink:href="#b"/>
</g>
<g clip-path="url(#a)">
<use x="305.316017" y="814.545455" fill="#ffffff" stroke="#ffffff" xlink:href="#b"/>
</g>
<g clip-path="url(#a)">
<use x="342.164502" y="814.545455" fill="#ffffff" stroke="#ffffff" xlink:href="#b"/>
</g>
<g clip-path="url(#a)">
<use x="381.645022" y="814.545455" fill="#ffffff" stroke="#ffffff" xlink:href="#b"/>
</g>
<g clip-path="url(#a)">
<use x="423.757576" y="814.545455" fill="#ffffff" stroke="#ffffff" xlink:href="#b"/>
</g>
<g clip-path="url(#a)">
<use x="468.502165" y="814.545455" fill="#ffffff" stroke="#ffffff" xlink:href="#b"/>
</g>
<g clip-path="url(#a)">
<use x="515.878788" y="814.545455" fill="#ffffff" stroke="#ffffff" xlink:href="#b"/>
</g>
<g clip-path="url(#a)">
<use x="565.887446" y="814.545455" fill="#ffffff" stroke="#ffffff" xlink:href="#b"/>
</g>
<g clip-path="url(#a)">
<use x="618.528139" y="814.545455" fill="#ffffff" stroke="#ffffff" xlink:href="#b"/>
</g>
<g clip-path="url(#a)">
<use x="673.800866" y="814.545455" fill="#ffffff" stroke="#ffffff" xlink:href="#b"/>
</g>
<g clip-path="url(#a)">
<use x="731.705628" y="814.545455" fill="#ffffff" stroke="#ffffff" xlink:href="#b"/>
</g>
<g clip-path="url(#a)">
<use x="792.242424" y="814.545455" fill="#ffffff" stroke="#ffffff" xlink:href="#b"/>
</g>
<g clip-path="url(#a)">
<use x="855.411255" y="814.545455" fill="#ffffff" stroke="#ffffff" xlink:href="#b"/>
</g>
<g clip-path="url(#a)">
<use x="921.212121" y="814.545455" fill="#ffffff" stroke="#ffffff" xlink:href="#b"/>
</g>
<g clip-path="url(#a)">
<use x="989.645022" y="814.545455" fill="#ffffff" stroke="#ffffff" xlink:href="#b"/>
</g>
<g clip-path="url(#a)">
<use x="1060.709957" y="814.545455" fill="#ffffff" stroke="#ffffff" xlink:href="#b"/>
</g>
<g clip-path="url(#a)">
<use x="1134.406926" y="814.545455" fill="#ffffff" stroke="#ffffff" xlink:href="#b"/>
</g>
<g clip-path="url(#a)">
<use x="1210.735931" y="814.545455" fill="#ffffff" stroke="#ffffff" xlink:href="#b"/>
</g>
<g clip-path="url(#a)">
<use x="1289.69697" y="814.545455" fill="#ffffff" stroke="#ffffff" xlink:href="#b"/>
</g>
<g clip-path="url(#a)">
<use x="1371.290043" y="814.545455" fill="#ffffff" stroke="#ffffff" xlink:href="#b"/>
</g>
<g clip-path="url(#a)">
<use x="1455.515152" y="814.545455" fill="#ffffff" stroke="#ffffff" xlink:href="#b"/>
</g>
<g clip-path="url(#a)">
<use x="1542.372294" y="814.545455" fill="#ffffff" stroke="#ffffff" xlink:href="#b"/>
</g>
<g clip-path="url(#a)">
<use x="1547.636364" y="526.475738" fill="#ffffff" stroke="#ffffff" xlink:href="#b"/>
</g>
<g clip-path="url(#a)">
<use x="1547.636364" y="623.276082" fill="#ffffff" stroke="#ffffff" xlink:href="#b"/>
</g>
<g clip-path="url(#a)">
<use x="135.303549" y="38.787879" fill="#ffffff" stroke="#ffffff" xlink:href="#b"/>
</g>
<g clip-path="url(#a)">
<use x="77.645022" y="623.276082" fill="#ffffff" stroke="#ffffff" xlink:href="#b"/>
</g>
<g clip-path="url(#a)">
<use x="236.144414" y="136.663366" fill="#ffffff" stroke="#ffffff" xlink:href="#b"/>
</g>
<g clip-path="url(#a)">
<use x="126.337662" y="526.475738" fill="#ffffff" stroke="#ffffff" xlink:href="#b"/>
</g>
<g clip-path="url(#a)">
<use x="160.554113" y="719.571365" fill="#ffffff" stroke="#ffffff" xlink:href="#b"/>
</g>
<g clip-path="url(#a)">
<use x="421.541468" y="234.398654" fill="#ffffff" stroke="#ffffff" xlink:href="#b"/>
</g>
<g clip-path="url(#a)">
<use x="242.147186" y="623.276082" fill="#ffffff" stroke="#ffffff" xlink:href="#b"/>
</g>
<g clip-path="url(#a)">
<use x="361.904762" y="623.276082" fill="#ffffff" stroke="#ffffff" xlink:href="#b"/>
</g>
<g clip-path="url(#a)">
<use x="423.757576" y="719.571365" fill="#ffffff" stroke="#ffffff" xlink:href="#b"/>
</g>
<g clip-path="url(#a)">
<use x="611.39565" y="331.970428" fill="#ffffff" stroke="#ffffff" xlink:href="#b"/>
</g>
<g clip-path="url(#a)">
<use x="515.878788" y="719.571365" fill="#ffffff" stroke="#ffffff" xlink:href="#b"/>
</g>
<g clip-path="url(#a)">
<use x="894.550585" y="429.345941" fill="#ffffff" stroke="#ffffff" xlink:href="#b"/>
</g>
<g clip-path="url(#a)">
<use x="565.887446" y="719.571365" fill="#ffffff" stroke="#ffffff" xlink:href="#b"/>
</g>
<g clip-path="url(#a)">
<use x="618.528139" y="719.571365" fill="#ffffff" stroke="#ffffff" xlink:href="#b"/>
</g>
<g clip-path="url(#a)">
<use x="925.306397" y="526.475738" fill="#ffffff" stroke="#ffffff" xlink:href="#b"/>
</g>
<g clip-path="url(#a)">
<use x="1373.044733" y="526.475738" fill="#ffffff" stroke="#ffffff" xlink:href="#b"/>
</g>
<g clip-path="url(#a)">
<use x="1289.69697" y="719.571365" fill="#ffffff" stroke="#ffffff" xlink:href="#b"/>
</g>
<g clip-path="url(#a)">
<use x="1456.392496" y="623.276082" fill="#ffffff" stroke="#ffffff" xlink:href="#b"/>
</g>
<g clip-path="url(#a)">
<use x="1371.290043" y="719.571365" fill="#ffffff" stroke="#ffffff" xlink:href="#b"/>
</g>
<g clip-path="url(#a)">
<use x="1455.515152" y="719.571365" fill="#ffffff" stroke="#ffffff" xlink:href="#b"/>
</g>
<g clip-path="url(#a)">
<use x="793.119769" y="623.276082" fill="#ffffff" stroke="#ffffff" xlink:href="#b"/>
</g>
<g clip-path="url(#a)">
<use x="1061.587302" y="623.276082" fill="#ffffff" stroke="#ffffff" xlink:href="#b"/>
</g>
<g clip-path="url(#a)">
<use x="989.645022" y="719.571365" fill="#ffffff" stroke="#ffffff" xlink:href="#b"/>
</g>
<g clip-path="url(#a)">
<use x="1060.709957" y="719.571365" fill="#ffffff" stroke="#ffffff" xlink:href="#b"/>
</g>
<g clip-path="url(#a)">
<use x="1134.406926" y="719.571365" fill="#ffffff" stroke="#ffffff" xlink:href="#b"/>
</g>
<g clip-path="url(#a)">
<use x="731.705628" y="719.571365" fill="#ffffff" stroke="#ffffff" xlink:href="#b"/>
</g>
<g clip-path="url(#a)">
<use x="792.242424" y="719.571365" fill="#ffffff" stroke="#ffffff" xlink:href="#b"/>
</g>
<g clip-path="url(#a)">
<use x="855.411255" y="719.571365" fill="#ffffff" stroke="#ffffff" xlink:href="#b"/>
</g>
<g clip-path="url(#a)">
<use x="342.164502" y="719.571365" fill="#ffffff" stroke="#ffffff" xlink:href="#b"/>
</g>
<g clip-path="url(#a)">
<use x="381.645022" y="719.571365" fill="#ffffff" stroke="#ffffff" xlink:href="#b"/>
</g>
<g clip-path="url(#a)">
<use x="184.242424" y="719.571365" fill="#ffffff" stroke="#ffffff" xlink:href="#b"/>
</g>
<g clip-path="url(#a)">
<use x="210.562771" y="719.571365" fill="#ffffff" stroke="#ffffff" xlink:href="#b"/>
</g>
<g clip-path="url(#a)">
<use x="239.515152" y="719.571365" fill="#ffffff" stroke="#ffffff" xlink:href="#b"/>
</g>
<g clip-path="url(#a)">
<use x="271.099567" y="719.571365" fill="#ffffff" stroke="#ffffff" xlink:href="#b"/>
</g>
<g clip-path="url(#a)">
<use x="305.316017" y="719.571365" fill="#ffffff" stroke="#ffffff" xlink:href="#b"/>
</g>
<g clip-path="url(#a)">
<use x="113.177489" y="623.276082" fill="#ffffff" stroke="#ffffff" xlink:href="#b"/>
</g>
<g clip-path="url(#a)">
<use x="139.497835" y="719.571365" fill="#ffffff" stroke="#ffffff" xlink:href="#b"/>
</g>
<g clip-path="url(#a)">
<use x="105.281385" y="719.571365" fill="#ffffff" stroke="#ffffff" xlink:href="#b"/>
</g>
<g clip-path="url(#a)">
<use x="121.073593" y="719.571365" fill="#ffffff" stroke="#ffffff" xlink:href="#b"/>
</g>
<g clip-path="url(#a)">
<use x="73.69697" y="719.571365" fill="#ffffff" stroke="#ffffff" xlink:href="#b"/>
</g>
<g clip-path="url(#a)">
<use x="81.593074" y="719.571365" fill="#ffffff" stroke="#ffffff" xlink:href="#b"/>
</g>
<g clip-path="url(#a)">
<use x="156.894718" y="38.787879" fill="#808080" stroke="#808080" xlink:href="#b"/>
</g>
<g clip-path="url(#a)">
<use x="92.121212" y="719.571365" fill="#ffffff" stroke="#ffffff" xlink:href="#b"/>
</g>
<g clip-path="url(#a)">
<use x="468.502165" y="719.571365" fill="#ffffff" stroke="#ffffff" xlink:href="#b"/>
</g>
<g clip-path="url(#a)">
<use x="673.800866" y="719.571365" fill="#ffffff" stroke="#ffffff" xlink:href="#b"/>
</g>
<g clip-path="url(#a)">
<use x="921.212121" y="719.571365" fill="#ffffff" stroke="#ffffff" xlink:href="#b"/>
</g>
<g clip-path="url(#a)">
<use x="1210.735931" y="719.571365" fill="#ffffff" stroke="#ffffff" xlink:href="#b"/>
</g>
<g clip-path="url(#a)">
<use x="1542.372294" y="719.571365" fill="#ffffff" stroke="#ffffff" xlink:href="#b"/>
</g>
<g clip-path="url(#a)">
<defs>
<path id="at" d="m19.672 64.797v-56.688h11.922q15.094 0 22.094 6.8281 7 6.8438 7 21.594 0 14.641-7 21.453t-22.094 6.8125zm-9.8594 8.1094h20.266q21.188 0 31.094-8.8125 9.9219-8.8125 9.9219-27.562 0-18.859-9.9688-27.703-9.9531-8.8281-31.047-8.8281h-20.266z"/>
<path id="ak" d="m17.922 72.906v-27.109h-8.2969v27.109z"/>
</defs>
<g transform="translate(68.473 817.3) scale(.1 -.1)">
<use xlink:href="#at"/>
<use x="77.001953" xlink:href="#ak"/>
</g>
</g>
<g clip-path="url(#a)">
<defs>
<path id="s" d="m8.5 21.578v33.109h8.9844v-32.766q0-7.7656 3.0156-11.656 3.0312-3.875 9.0938-3.875 7.2656 0 11.484 4.6406 4.2344 4.6406 4.2344 12.656v31h8.9844v-54.688h-8.9844v8.4062q-3.2656-4.9844-7.5938-7.4062-4.3125-2.4219-10.031-2.4219-9.4219 0-14.312 5.8594-4.875 5.8594-4.875 17.141z"/>
<path id="w" d="m44.281 53.078v-8.5q-3.7969 1.9531-7.9062 2.9219-4.0938 0.98438-8.5 0.98438-6.6875 0-10.031-2.0469t-3.3438-6.1562q0-3.125 2.3906-4.9062t9.625-3.3906l3.0781-0.6875q9.5625-2.0469 13.594-5.7812t4.0312-10.422q0-7.625-6.0312-12.078-6.0312-4.4375-16.578-4.4375-4.3906 0-9.1562 0.85938t-10.031 2.5625v9.2812q4.9844-2.5938 9.8125-3.8906 4.8281-1.2812 9.5781-1.2812 6.3438 0 9.75 2.1719 3.4219 2.1719 3.4219 6.125 0 3.6562-2.4688 5.6094-2.4531 1.9531-10.812 3.7656l-3.125 0.73438q-8.3438 1.75-12.062 5.3906-3.7031 3.6406-3.7031 9.9844 0 7.7188 5.4688 11.906 5.4688 4.2031 15.531 4.2031 4.9688 0 9.3594-0.73438 4.4062-0.71875 8.1094-2.1875z"/>
</defs>
<g transform="translate(63.456 817.3) scale(.1 -.1)">
<use xlink:href="#f"/>
<use x="61.279297" xlink:href="#i"/>
<use x="89.0625" xlink:href="#g"/>
<use x="116.845703" xlink:href="#g"/>
<use x="144.628906" xlink:href="#e"/>
<use x="206.152344" xlink:href="#s"/>
<use x="269.53125" xlink:href="#h"/>
<use x="310.644531" xlink:href="#w"/>
</g>
</g>
<g clip-path="url(#a)">
<defs>
<path id="ag" d="m11.719 12.406h10.297v-8.4062l-8-15.625h-6.2969l4 15.625z"/>
</defs>
<g transform="translate(90.532 817.3) scale(.1 -.1)">
<use xlink:href="#ag"/>
</g>
</g>
<g clip-path="url(#a)">
<g transform="translate(100.82 817.3) scale(.1 -.1)">
<use xlink:href="#g"/>
<use x="27.783203" xlink:href="#e"/>
</g>
</g>
<g clip-path="url(#a)">
<defs>
<path id="ai" d="m48.781 52.594v-8.4062q-3.8125 2.1094-7.6406 3.1562t-7.7344 1.0469q-8.75 0-13.594-5.5469-4.8281-5.5312-4.8281-15.547t4.8281-15.562q4.8438-5.5312 13.594-5.5312 3.9062 0 7.7344 1.0469t7.6406 3.1562v-8.3125q-3.7656-1.75-7.7969-2.625-4.0156-0.89062-8.5625-0.89062-12.359 0-19.641 7.7656-7.2656 7.7656-7.2656 20.953 0 13.375 7.3438 21.031 7.3594 7.6719 20.156 7.6719 4.1406 0 8.0938-0.85938 3.9531-0.84375 7.6719-2.5469z"/>
<path id="t" d="m30.609 48.391q-7.2188 0-11.422-5.6406t-4.2031-15.453 4.1719-15.453q4.1875-5.6406 11.453-5.6406 7.1875 0 11.375 5.6562 4.2031 5.6719 4.2031 15.438 0 9.7188-4.2031 15.406-4.1875 5.6875-11.375 5.6875zm0 7.6094q11.719 0 18.406-7.625 6.7031-7.6094 6.7031-21.078 0-13.422-6.7031-21.078-6.6875-7.6406-18.406-7.6406-11.766 0-18.438 7.6406-6.6562 7.6562-6.6562 21.078 0 13.469 6.6562 21.078 6.6719 7.625 18.438 7.625z"/>
<path id="ah" d="m45.406 46.391v29.594h8.9844v-75.984h-8.9844v8.2031q-2.8281-4.875-7.1562-7.25-4.3125-2.375-10.375-2.375-9.9062 0-16.141 7.9062-6.2188 7.9219-6.2188 20.812t6.2188 20.797q6.2344 7.9062 16.141 7.9062 6.0625 0 10.375-2.375 4.3281-2.3594 7.1562-7.2344zm-30.609-19.094q0-9.9062 4.0781-15.547t11.203-5.6406 11.219 5.6406q4.1094 5.6406 4.1094 15.547t-4.1094 15.547q-4.0938 5.6406-11.219 5.6406t-11.203-5.6406-4.0781-15.547z"/>
<path id="u" d="m18.312 70.219v-15.531h18.5v-6.9844h-18.5v-29.688q0-6.6875 1.8281-8.5938t7.4531-1.9062h9.2188v-7.5156h-9.2188q-10.406 0-14.359 3.875-3.9531 3.8906-3.9531 14.141v29.688h-6.5938v6.9844h6.5938v15.531z"/>
</defs>
<g transform="translate(87.924 817.3) scale(.1 -.1)">
<use xlink:href="#ai"/>
<use x="54.980469" xlink:href="#t"/>
<use x="116.162109" xlink:href="#j"/>
<use x="213.574219" xlink:href="#j"/>
<use x="310.986328" xlink:href="#f"/>
<use x="372.265625" xlink:href="#k"/>
<use x="435.644531" xlink:href="#ah"/>
<use x="499.121094" xlink:href="#f"/>
<use x="560.400391" xlink:href="#k"/>
<use x="623.779297" xlink:href="#u"/>
</g>
</g>
<g clip-path="url(#a)">
<defs>
<path id="as" d="m9.8125 72.906h41.891v-8.3125h-32.031v-21.484h28.906v-8.2969h-28.906v-34.812h-9.8594z"/>
<path id="ap" d="m45.406 27.984q0 9.7656-4.0312 15.125-4.0156 5.375-11.297 5.375-7.2188 0-11.25-5.375-4.0312-5.3594-4.0312-15.125 0-9.7188 4.0312-15.094t11.25-5.375q7.2812 0 11.297 5.375 4.0312 5.375 4.0312 15.094zm8.9844-21.203q0-13.953-6.2031-20.766-6.1875-6.8125-18.984-6.8125-4.7344 0-8.9375 0.70312t-8.1562 2.1719v8.7344q3.9531-2.1406 7.8125-3.1562 3.8594-1.0312 7.8594-1.0312 8.8438 0 13.234 4.6094t4.3906 13.938v4.4531q-2.7812-4.8438-7.125-7.2344t-10.406-2.3906q-10.047 0-16.203 7.6562-6.1562 7.6719-6.1562 20.328 0 12.688 6.1562 20.344 6.1562 7.6719 16.203 7.6719 6.0625 0 10.406-2.3906t7.125-7.2188v8.2969h8.9844z"/>
</defs>
<g transform="translate(118.62 817.3) scale(.1 -.1)">
<use xlink:href="#as"/>
<use x="48.394531" xlink:href="#f"/>
<use x="109.673828" xlink:href="#h"/>
<use x="149.037109" xlink:href="#h"/>
<use x="190.150391" xlink:href="#f"/>
<use x="251.429688" xlink:href="#ap"/>
<use x="314.90625" xlink:href="#s"/>
<use x="378.285156" xlink:href="#u"/>
</g>
</g>
<g clip-path="url(#a)">
<defs>
<path id="ay" d="m18.109 8.2031v-29h-9.0312v75.484h9.0312v-8.2969q2.8438 4.875 7.1562 7.2344 4.3281 2.375 10.328 2.375 9.9688 0 16.188-7.9062 6.2344-7.9062 6.2344-20.797t-6.2344-20.812q-6.2188-7.9062-16.188-7.9062-6 0-10.328 2.375-4.3125 2.375-7.1562 7.25zm30.578 19.094q0 9.9062-4.0781 15.547t-11.203 5.6406q-7.1406 0-11.219-5.6406t-4.0781-15.547 4.0781-15.547 11.219-5.6406q7.125 0 11.203 5.6406t4.0781 15.547z"/>
</defs>
<g transform="translate(144.46 817.3) scale(.1 -.1)">
<use xlink:href="#ay"/>
<use x="63.476562" xlink:href="#f"/>
<use x="124.755859" xlink:href="#h"/>
<use x="165.869141" xlink:href="#g"/>
<use x="193.652344" xlink:href="#f"/>
<use x="254.931641" xlink:href="#i"/>
<use x="282.714844" xlink:href="#u"/>
</g>
</g>
<g clip-path="url(#a)">
<g transform="translate(179.69 817.3) scale(.1 -.1)">
<use xlink:href="#ah"/>
<use x="63.476562" xlink:href="#ak"/>
</g>
</g>
<g clip-path="url(#a)">
<g transform="translate(201.15 817.3) scale(.1 -.1)">
<use xlink:href="#s"/>
<use x="63.378906" xlink:href="#k"/>
<use x="126.757812" xlink:href="#e"/>
</g>
</g>
<g clip-path="url(#a)">
<g transform="translate(218.98 817.3) scale(.1 -.1)">
<use xlink:href="#ai"/>
<use x="54.980469" xlink:href="#e"/>
<use x="116.503906" xlink:href="#h"/>
<use x="157.617188" xlink:href="#u"/>
<use x="196.826172" xlink:href="#f"/>
<use x="258.105469" xlink:href="#i"/>
<use x="285.888672" xlink:href="#k"/>
<use x="349.267578" xlink:href="#e"/>
</g>
</g>
<g clip-path="url(#a)">
<g transform="translate(252.62 817.3) scale(.1 -.1)">
<use xlink:href="#w"/>
<use x="52.099609" xlink:href="#t"/>
<use x="113.28125" xlink:href="#j"/>
<use x="210.693359" xlink:href="#j"/>
<use x="308.105469" xlink:href="#e"/>
</g>
</g>
<g clip-path="url(#a)">
<g transform="translate(299.07 817.3) scale(.1 -.1)">
<use xlink:href="#ah"/>
<use x="63.476562" xlink:href="#e"/>
</g>
</g>
<g clip-path="url(#a)">
<defs>
<path id="aw" d="m54.891 54.688-19.781-26.609 20.797-28.078h-10.594l-15.922 21.484-15.906-21.484h-10.609l21.25 28.609-19.438 26.078h10.594l14.5-19.484 14.5 19.484z"/>
</defs>
<g transform="translate(329.79 817.3) scale(.1 -.1)">
<use xlink:href="#ah"/>
<use x="63.476562" xlink:href="#e"/>
<use x="125" xlink:href="#s"/>
<use x="188.378906" xlink:href="#aw"/>
</g>
</g>
<g clip-path="url(#a)">
<g transform="translate(369.53 817.3) scale(.1 -.1)">
<use xlink:href="#j"/>
<use x="97.412109" xlink:href="#i"/>
<use x="125.195312" xlink:href="#g"/>
<use x="152.978516" xlink:href="#g"/>
<use x="180.761719" xlink:href="#e"/>
</g>
</g>
<g clip-path="url(#a)">
<g transform="translate(407.02 817.3) scale(.1 -.1)">
<use xlink:href="#ah"/>
<use x="63.476562" xlink:href="#t"/>
<use x="124.658203" xlink:href="#g"/>
<use x="152.441406" xlink:href="#g"/>
<use x="180.224609" xlink:href="#f"/>
<use x="241.503906" xlink:href="#h"/>
<use x="282.617188" xlink:href="#w"/>
</g>
</g>
<g clip-path="url(#a)">
<g transform="translate(466.91 817.3) scale(.1 -.1)">
<use xlink:href="#ag"/>
</g>
</g>
<g clip-path="url(#a)">
<defs>
<path id="an" d="m56.203 29.594v-4.3906h-41.312q0.59375-9.2812 5.5938-14.141t13.938-4.8594q5.1719 0 10.031 1.2656t9.6562 3.8125v-8.5q-4.8438-2.0469-9.9219-3.125t-10.297-1.0781q-13.094 0-20.734 7.6094-7.6406 7.625-7.6406 20.625 0 13.422 7.25 21.297 7.25 7.8906 19.562 7.8906 11.031 0 17.453-7.1094 6.4219-7.0938 6.4219-19.297zm-8.9844 2.6406q-0.09375 7.3594-4.125 11.75-4.0312 4.4062-10.672 4.4062-7.5156 0-12.031-4.25t-5.2031-11.969zm-8.6875 47.75h9.7188l-15.906-18.359h-7.4844z"/>
<path id="ax" d="m2.9844 54.688h9.5156l17.094-45.891 17.094 45.891h9.5156l-20.516-54.688h-12.203z"/>
</defs>
<g transform="translate(494.01 817.3) scale(.1 -.1)">
<use xlink:href="#h"/>
<use x="38.863281" xlink:href="#an"/>
<use x="100.386719" xlink:href="#w"/>
<use x="152.486328" xlink:href="#e"/>
<use x="214.009766" xlink:href="#h"/>
<use x="255.123047" xlink:href="#ax"/>
<use x="314.302734" xlink:href="#an"/>
<use x="375.826172" xlink:href="#e"/>
</g>
</g>
<g clip-path="url(#a)">
<defs>
<path id="av" d="m34.281 27.484q-10.891 0-15.094-2.4844t-4.2031-8.5q0-4.7812 3.1562-7.5938 3.1562-2.7969 8.5625-2.7969 7.4844 0 12 5.2969t4.5156 14.078v2zm17.922 3.7188v-31.203h-8.9844v8.2969q-3.0781-4.9688-7.6719-7.3438t-11.234-2.375q-8.3906 0-13.359 4.7188-4.9531 4.7188-4.9531 12.625 0 9.2188 6.1719 13.906 6.1875 4.6875 18.438 4.6875h12.609v0.89062q0 6.2031-4.0781 9.5938t-11.453 3.3906q-4.6875 0-9.1406-1.125-4.4375-1.125-8.5312-3.375v8.3125q4.9219 1.9062 9.5625 2.8438 4.6406 0.95312 9.0312 0.95312 11.875 0 17.734-6.1562 5.8594-6.1406 5.8594-18.641zm-30.281 48.781 13.766-18.266h-7.4688l-15.922 18.266z"/>
</defs>
<g transform="translate(562.82 817.3) scale(.1 -.1)">
<use xlink:href="#av"/>
</g>
</g>
<g clip-path="url(#a)">
<defs>
<path id="ao" d="m14.797 27.297q0-9.9062 4.0781-15.547t11.203-5.6406 11.219 5.6406q4.1094 5.6406 4.1094 15.547t-4.1094 15.547q-4.0938 5.6406-11.219 5.6406t-11.203-5.6406-4.0781-15.547zm30.609-19.094q-2.8281-4.875-7.1562-7.25-4.3125-2.375-10.375-2.375-9.9062 0-16.141 7.9062-6.2188 7.9219-6.2188 20.812t6.2188 20.797q6.2344 7.9062 16.141 7.9062 6.0625 0 10.375-2.375 4.3281-2.3594 7.1562-7.2344v8.2969h8.9844v-75.484h-8.9844z"/>
</defs>
<g transform="translate(592.4 817.3) scale(.1 -.1)">
<use xlink:href="#ao"/>
<use x="63.476562" xlink:href="#s"/>
<use x="126.855469" xlink:href="#i"/>
<use x="154.638672" xlink:href="#ai"/>
<use x="209.619141" xlink:href="#t"/>
<use x="270.800781" xlink:href="#k"/>
<use x="334.179688" xlink:href="#ao"/>
<use x="397.65625" xlink:href="#s"/>
<use x="461.035156" xlink:href="#e"/>
</g>
</g>
<g clip-path="url(#a)">
<g transform="translate(672.21 817.3) scale(.1 -.1)">
<use xlink:href="#ag"/>
</g>
</g>
<g clip-path="url(#a)">
<g transform="translate(712.32 817.3) scale(.1 -.1)">
<use xlink:href="#j"/>
<use x="97.412109" xlink:href="#t"/>
<use x="158.59375" xlink:href="#s"/>
<use x="221.972656" xlink:href="#w"/>
<use x="274.072266" xlink:href="#w"/>
<use x="326.171875" xlink:href="#e"/>
</g>
</g>
<g clip-path="url(#a)">
<g transform="translate(786.01 817.3) scale(.1 -.1)">
<use xlink:href="#t"/>
<use x="61.181641" xlink:href="#s"/>
</g>
</g>
<g clip-path="url(#a)">
<g transform="translate(836.03 817.3) scale(.1 -.1)">
<use xlink:href="#j"/>
<use x="97.412109" xlink:href="#f"/>
<use x="158.691406" xlink:href="#u"/>
<use x="197.900391" xlink:href="#e"/>
<use x="259.423828" xlink:href="#g"/>
<use x="287.207031" xlink:href="#t"/>
<use x="348.388672" xlink:href="#u"/>
</g>
</g>
<g clip-path="url(#a)">
<g transform="translate(919.62 817.3) scale(.1 -.1)">
<use xlink:href="#ag"/>
</g>
</g>
<g clip-path="url(#a)">
<defs>
<path id="au" d="m9.4219 54.688h8.9844v-54.688h-8.9844zm4.5 1.3125m-3.6562 23.984h7.2188l11.969-18.359h-6.7812l-8.7969 11.953-8.7812-11.953h-6.7969z"/>
</defs>
<g transform="translate(973.34 817.3) scale(.1 -.1)">
<use xlink:href="#j"/>
<use x="97.412109" xlink:href="#f"/>
<use x="158.691406" xlink:href="#au"/>
<use x="186.474609" xlink:href="#u"/>
<use x="225.683594" xlink:href="#h"/>
<use x="264.546875" xlink:href="#e"/>
</g>
</g>
<g clip-path="url(#a)">
<g transform="translate(1054.5 817.3) scale(.1 -.1)">
<use xlink:href="#t"/>
<use x="61.181641" xlink:href="#s"/>
</g>
</g>
<g clip-path="url(#a)">
<defs>
<path id="aq" d="m37.109 75.984v-7.4844h-8.5938q-4.8281 0-6.7188-1.9531-1.875-1.9531-1.875-7.0312v-4.8281h14.797v-6.9844h-14.797v-47.703h-9.0312v47.703h-8.5938v6.9844h8.5938v3.8125q0 9.125 4.25 13.297 4.25 4.1875 13.469 4.1875z"/>
</defs>
<g transform="translate(1117.2 817.3) scale(.1 -.1)">
<use xlink:href="#t"/>
<use x="61.181641" xlink:href="#aq"/>
<use x="96.386719" xlink:href="#aq"/>
<use x="131.591797" xlink:href="#i"/>
<use x="159.375" xlink:href="#ai"/>
<use x="214.355469" xlink:href="#i"/>
<use x="242.138672" xlink:href="#e"/>
<use x="303.662109" xlink:href="#h"/>
</g>
</g>
<g clip-path="url(#a)">
<g transform="translate(1209.1 817.3) scale(.1 -.1)">
<use xlink:href="#ag"/>
</g>
</g>
<g clip-path="url(#a)">
<g transform="translate(1263.4 817.3) scale(.1 -.1)">
<use xlink:href="#w"/>
<use x="52.099609" xlink:href="#i"/>
<use x="79.882812" xlink:href="#ap"/>
<use x="143.359375" xlink:href="#k"/>
<use x="206.738281" xlink:href="#f"/>
<use x="268.017578" xlink:href="#g"/>
<use x="295.800781" xlink:href="#e"/>
<use x="357.324219" xlink:href="#h"/>
<use x="398.4375" xlink:href="#f"/>
<use x="459.716797" xlink:href="#i"/>
<use x="487.5" xlink:href="#u"/>
</g>
</g>
<g clip-path="url(#a)">
<g transform="translate(1368.5 817.3) scale(.1 -.1)">
<use xlink:href="#g"/>
<use x="27.783203" xlink:href="#ak"/>
</g>
</g>
<g clip-path="url(#a)">
<g transform="translate(1438.6 817.3) scale(.1 -.1)">
<use xlink:href="#f"/>
<use x="61.279297" xlink:href="#k"/>
<use x="124.658203" xlink:href="#i"/>
<use x="152.441406" xlink:href="#j"/>
<use x="249.853516" xlink:href="#f"/>
<use x="311.132812" xlink:href="#g"/>
</g>
</g>
<g clip-path="url(#a)">
<defs>
<path id="d" d="m10.688 12.406h10.312v-12.406h-10.312z"/>
</defs>
<g transform="translate(1540.8 817.3) scale(.1 -.1)">
<use xlink:href="#d"/>
</g>
</g>
<g clip-path="url(#a)">
<defs>
<path id="z" d="m9.8125 72.906h9.8594v-72.906h-9.8594z"/>
<path id="am" d="m9.8125 72.906h14.703l18.594-49.609 18.703 49.609h14.703v-72.906h-9.625v64.016l-18.797-50h-9.9062l-18.797 50v-64.016h-9.5781z"/>
</defs>
<g transform="translate(1526.6 529.24) scale(.1 -.1)">
<use xlink:href="#z"/>
<use x="29.492188" xlink:href="#am"/>
<use x="115.771484" xlink:href="#aa"/>
<use x="176.074219" xlink:href="#ab"/>
<use x="231.787109" xlink:href="#z"/>
<use x="261.279297" xlink:href="#m"/>
<use x="331.103516" xlink:href="#z"/>
<use x="360.595703" xlink:href="#l"/>
</g>
</g>
<g clip-path="url(#a)">
<g transform="translate(1526.6 626.04) scale(.1 -.1)">
<use xlink:href="#z"/>
<use x="29.492188" xlink:href="#am"/>
<use x="115.771484" xlink:href="#aa"/>
<use x="176.074219" xlink:href="#ab"/>
<use x="231.787109" xlink:href="#z"/>
<use x="261.279297" xlink:href="#m"/>
<use x="331.103516" xlink:href="#z"/>
<use x="360.595703" xlink:href="#l"/>
</g>
</g>
<g clip-path="url(#a)">
<defs>
<path id="c" d="m12.406 8.2969h16.109v55.625l-17.531-3.5156v8.9844l17.438 3.5156h9.8594v-64.609h16.109v-8.2969h-41.984z"/>
</defs>
<g transform="translate(127.35 41.547) scale(.1 -.1)">
<use xlink:href="#c"/>
<use x="63.623047" xlink:href="#d"/>
<use x="95.410156" xlink:href="#c"/>
</g>
</g>
<g clip-path="url(#a)">
<defs>
<path id="q" d="m19.188 8.2969h34.422v-8.2969h-46.281v8.2969q5.6094 5.8125 15.297 15.594 9.7031 9.7969 12.188 12.641 4.7344 5.3125 6.6094 9 1.8906 3.6875 1.8906 7.25 0 5.8125-4.0781 9.4688-4.0781 3.6719-10.625 3.6719-4.6406 0-9.7969-1.6094-5.1406-1.6094-11-4.8906v9.9688q5.9531 2.3906 11.125 3.6094 5.1875 1.2188 9.4844 1.2188 11.328 0 18.062-5.6719 6.7344-5.6562 6.7344-15.125 0-4.5-1.6875-8.5312-1.6719-4.0156-6.125-9.4844-1.2188-1.4219-7.7656-8.1875-6.5312-6.7656-18.453-18.922z"/>
</defs>
<g transform="translate(69.693 626.04) scale(.1 -.1)">
<use xlink:href="#c"/>
<use x="63.623047" xlink:href="#d"/>
<use x="95.410156" xlink:href="#q"/>
</g>
</g>
<g clip-path="url(#a)">
<defs>
<path id="o" d="m40.578 39.312q7.0781-1.5156 11.047-6.3125 3.9844-4.7812 3.9844-11.812 0-10.781-7.4219-16.703-7.4219-5.9062-21.094-5.9062-4.5781 0-9.4375 0.90625t-10.031 2.7188v9.5156q4.0938-2.3906 8.9688-3.6094 4.8906-1.2188 10.219-1.2188 9.2656 0 14.125 3.6562t4.8594 10.641q0 6.4531-4.5156 10.078-4.5156 3.6406-12.562 3.6406h-8.5v8.1094h8.8906q7.2656 0 11.125 2.9062t3.8594 8.375q0 5.6094-3.9844 8.6094-3.9688 3.0156-11.391 3.0156-4.0625 0-8.7031-0.89062-4.6406-0.875-10.203-2.7188v8.7812q5.625 1.5625 10.531 2.3438t9.25 0.78125q11.234 0 17.766-5.1094 6.5469-5.0938 6.5469-13.781 0-6.0625-3.4688-10.234t-9.8594-5.7812z"/>
</defs>
<g transform="translate(228.19 139.42) scale(.1 -.1)">
<use xlink:href="#c"/>
<use x="63.623047" xlink:href="#d"/>
<use x="95.410156" xlink:href="#o"/>
</g>
</g>
<g clip-path="url(#a)">
<defs>
<path id="af" d="m33.016 40.375q-6.6406 0-10.531-4.5469-3.875-4.5312-3.875-12.438 0-7.8594 3.875-12.438 3.8906-4.5625 10.531-4.5625t10.516 4.5625q3.875 4.5781 3.875 12.438 0 7.9062-3.875 12.438-3.875 4.5469-10.516 4.5469zm19.578 30.922v-8.9844q-3.7188 1.75-7.5 2.6719-3.7812 0.9375-7.5 0.9375-9.7656 0-14.922-6.5938-5.1406-6.5938-5.875-19.922 2.875 4.25 7.2188 6.5156 4.3594 2.2656 9.5781 2.2656 10.984 0 17.359-6.6719 6.375-6.6562 6.375-18.125 0-11.234-6.6406-18.031-6.6406-6.7812-17.672-6.7812-12.656 0-19.344 9.6875-6.6875 9.7031-6.6875 28.109 0 17.281 8.2031 27.562t22.016 10.281q3.7188 0 7.5-0.73438t7.8906-2.1875z"/>
</defs>
<g transform="translate(118.39 529.24) scale(.1 -.1)">
<use xlink:href="#c"/>
<use x="63.623047" xlink:href="#d"/>
<use x="95.410156" xlink:href="#af"/>
</g>
</g>
<g clip-path="url(#a)">
<defs>
<path id="ae" d="m8.2031 72.906h46.875v-4.2031l-26.469-68.703h-10.297l24.906 64.594h-35.016z"/>
</defs>
<g transform="translate(152.6 722.33) scale(.1 -.1)">
<use xlink:href="#c"/>
<use x="63.623047" xlink:href="#d"/>
<use x="95.410156" xlink:href="#ae"/>
</g>
</g>
<g clip-path="url(#a)">
<defs>
<path id="ad" d="m31.781 34.625q-7.0312 0-11.062-3.7656-4.0156-3.7656-4.0156-10.344 0-6.5938 4.0156-10.359 4.0312-3.7656 11.062-3.7656t11.078 3.7812q4.0625 3.7969 4.0625 10.344 0 6.5781-4.0312 10.344-4.0156 3.7656-11.109 3.7656zm-9.8594 4.1875q-6.3438 1.5625-9.8906 5.9062-3.5312 4.3594-3.5312 10.609 0 8.7344 6.2188 13.812 6.2344 5.0781 17.062 5.0781 10.891 0 17.094-5.0781t6.2031-13.812q0-6.25-3.5469-10.609-3.5312-4.3438-9.8281-5.9062 7.125-1.6562 11.094-6.5 3.9844-4.8281 3.9844-11.797 0-10.609-6.4688-16.281-6.4688-5.6562-18.531-5.6562-12.047 0-18.531 5.6562-6.4688 5.6719-6.4688 16.281 0 6.9688 4 11.797 4.0156 4.8438 11.141 6.5zm-3.6094 15.578q0-5.6562 3.5312-8.8281 3.5469-3.1719 9.9375-3.1719 6.3594 0 9.9375 3.1719 3.5938 3.1719 3.5938 8.8281 0 5.6719-3.5938 8.8438-3.5781 3.1719-9.9375 3.1719-6.3906 0-9.9375-3.1719-3.5312-3.1719-3.5312-8.8438z"/>
</defs>
<g transform="translate(413.59 237.16) scale(.1 -.1)">
<use xlink:href="#c"/>
<use x="63.623047" xlink:href="#d"/>
<use x="95.410156" xlink:href="#ad"/>
</g>
</g>
<g clip-path="url(#a)">
<defs>
<path id="ac" d="m10.984 1.5156v8.9844q3.7188-1.7656 7.5156-2.6875 3.8125-0.92188 7.4844-0.92188 9.7656 0 14.906 6.5625 5.1562 6.5625 5.8906 19.953-2.8281-4.2031-7.1875-6.4531-4.3438-2.25-9.6094-2.25-10.938 0-17.312 6.6094-6.375 6.625-6.375 18.109 0 11.219 6.6406 18 6.6406 6.7969 17.672 6.7969 12.656 0 19.312-9.7031 6.6719-9.6875 6.6719-28.141 0-17.234-8.1875-27.516-8.1719-10.281-21.984-10.281-3.7188 0-7.5312 0.73438-3.7969 0.73438-7.9062 2.2031zm19.625 30.906q6.6406 0 10.516 4.5312 3.8906 4.5469 3.8906 12.469 0 7.8594-3.8906 12.422-3.875 4.5625-10.516 4.5625t-10.516-4.5625-3.875-12.422q0-7.9219 3.875-12.469 3.875-4.5312 10.516-4.5312z"/>
</defs>
<g transform="translate(234.2 626.04) scale(.1 -.1)">
<use xlink:href="#c"/>
<use x="63.623047" xlink:href="#d"/>
<use x="95.410156" xlink:href="#ac"/>
</g>
</g>
<g clip-path="url(#a)">
<defs>
<path id="aj" d="m31.781 66.406q-7.6094 0-11.453-7.5-3.8281-7.4844-3.8281-22.531 0-14.984 3.8281-22.484 3.8438-7.5 11.453-7.5 7.6719 0 11.5 7.5 3.8438 7.5 3.8438 22.484 0 15.047-3.8438 22.531-3.8281 7.5-11.5 7.5zm0 7.8125q12.266 0 18.734-9.7031 6.4688-9.6875 6.4688-28.141 0-18.406-6.4688-28.109-6.4688-9.6875-18.734-9.6875-12.25 0-18.719 9.6875-6.4688 9.7031-6.4688 28.109 0 18.453 6.4688 28.141 6.4688 9.7031 18.719 9.7031z"/>
</defs>
<g transform="translate(350.77 626.04) scale(.1 -.1)">
<use xlink:href="#c"/>
<use x="63.623047" xlink:href="#d"/>
<use x="95.410156" xlink:href="#c"/>
<use x="159.033203" xlink:href="#aj"/>
</g>
</g>
<g clip-path="url(#a)">
<g transform="translate(412.62 722.33) scale(.1 -.1)">
<use xlink:href="#c"/>
<use x="63.623047" xlink:href="#d"/>
<use x="95.410156" xlink:href="#c"/>
<use x="159.033203" xlink:href="#c"/>
</g>
</g>
<g clip-path="url(#a)">
<g transform="translate(600.26 334.73) scale(.1 -.1)">
<use xlink:href="#c"/>
<use x="63.623047" xlink:href="#d"/>
<use x="95.410156" xlink:href="#c"/>
<use x="159.033203" xlink:href="#q"/>
</g>
</g>
<g clip-path="url(#a)">
<defs>
<path id="n" d="m37.797 64.312-24.906-38.922h24.906zm-2.5938 8.5938h12.406v-47.516h10.406v-8.2031h-10.406v-17.188h-9.8125v17.188h-32.906v9.5156z"/>
</defs>
<g transform="translate(504.75 722.33) scale(.1 -.1)">
<use xlink:href="#c"/>
<use x="63.623047" xlink:href="#d"/>
<use x="95.410156" xlink:href="#c"/>
<use x="159.033203" xlink:href="#n"/>
</g>
</g>
<g clip-path="url(#a)">
<defs>
<path id="p" d="m10.797 72.906h38.719v-8.3125h-29.688v-17.859q2.1406 0.73438 4.2812 1.0938 2.1562 0.35938 4.3125 0.35938 12.203 0 19.328-6.6875 7.1406-6.6875 7.1406-18.109 0-11.766-7.3281-18.297-7.3281-6.5156-20.656-6.5156-4.5938 0-9.3594 0.78125-4.75 0.78125-9.8281 2.3438v9.9219q4.3906-2.3906 9.0781-3.5625t9.9062-1.1719q8.4531 0 13.375 4.4375 4.9375 4.4375 4.9375 12.062 0 7.6094-4.9375 12.047-4.9219 4.4531-13.375 4.4531-3.9531 0-7.8906-0.875-3.9219-0.875-8.0156-2.7344z"/>
</defs>
<g transform="translate(883.42 432.11) scale(.1 -.1)">
<use xlink:href="#c"/>
<use x="63.623047" xlink:href="#d"/>
<use x="95.410156" xlink:href="#c"/>
<use x="159.033203" xlink:href="#p"/>
</g>
</g>
<g clip-path="url(#a)">
<g transform="translate(554.75 722.33) scale(.1 -.1)">
<use xlink:href="#c"/>
<use x="63.623047" xlink:href="#d"/>
<use x="95.410156" xlink:href="#c"/>
<use x="159.033203" xlink:href="#ae"/>
</g>
</g>
<g clip-path="url(#a)">
<g transform="translate(607.4 722.33) scale(.1 -.1)">
<use xlink:href="#c"/>
<use x="63.623047" xlink:href="#d"/>
<use x="95.410156" xlink:href="#c"/>
<use x="159.033203" xlink:href="#ad"/>
</g>
</g>
<g clip-path="url(#a)">
<g transform="translate(914.17 529.24) scale(.1 -.1)">
<use xlink:href="#c"/>
<use x="63.623047" xlink:href="#d"/>
<use x="95.410156" xlink:href="#c"/>
<use x="159.033203" xlink:href="#ac"/>
</g>
</g>
<g clip-path="url(#a)">
<g transform="translate(1361.9 529.24) scale(.1 -.1)">
<use xlink:href="#c"/>
<use x="63.623047" xlink:href="#d"/>
<use x="95.410156" xlink:href="#q"/>
<use x="159.033203" xlink:href="#aj"/>
</g>
</g>
<g clip-path="url(#a)">
<g transform="translate(1278.6 722.33) scale(.1 -.1)">
<use xlink:href="#c"/>
<use x="63.623047" xlink:href="#d"/>
<use x="95.410156" xlink:href="#q"/>
<use x="159.033203" xlink:href="#n"/>
</g>
</g>
<g clip-path="url(#a)">
<g transform="translate(1445.3 626.04) scale(.1 -.1)">
<use xlink:href="#c"/>
<use x="63.623047" xlink:href="#d"/>
<use x="95.410156" xlink:href="#q"/>
<use x="159.033203" xlink:href="#p"/>
</g>
</g>
<g clip-path="url(#a)">
<g transform="translate(1360.2 722.33) scale(.1 -.1)">
<use xlink:href="#c"/>
<use x="63.623047" xlink:href="#d"/>
<use x="95.410156" xlink:href="#q"/>
<use x="159.033203" xlink:href="#af"/>
</g>
</g>
<g clip-path="url(#a)">
<g transform="translate(1444.4 722.33) scale(.1 -.1)">
<use xlink:href="#c"/>
<use x="63.623047" xlink:href="#d"/>
<use x="95.410156" xlink:href="#q"/>
<use x="159.033203" xlink:href="#ae"/>
</g>
</g>
<g clip-path="url(#a)">
<g transform="translate(781.99 626.04) scale(.1 -.1)">
<use xlink:href="#c"/>
<use x="63.623047" xlink:href="#d"/>
<use x="95.410156" xlink:href="#q"/>
<use x="159.033203" xlink:href="#ad"/>
</g>
</g>
<g clip-path="url(#a)">
<g transform="translate(1050.5 626.04) scale(.1 -.1)">
<use xlink:href="#c"/>
<use x="63.623047" xlink:href="#d"/>
<use x="95.410156" xlink:href="#q"/>
<use x="159.033203" xlink:href="#ac"/>
</g>
</g>
<g clip-path="url(#a)">
<g transform="translate(978.51 722.33) scale(.1 -.1)">
<use xlink:href="#c"/>
<use x="63.623047" xlink:href="#d"/>
<use x="95.410156" xlink:href="#o"/>
<use x="159.033203" xlink:href="#c"/>
</g>
</g>
<g clip-path="url(#a)">
<g transform="translate(1049.6 722.33) scale(.1 -.1)">
<use xlink:href="#c"/>
<use x="63.623047" xlink:href="#d"/>
<use x="95.410156" xlink:href="#o"/>
<use x="159.033203" xlink:href="#q"/>
</g>
</g>
<g clip-path="url(#a)">
<g transform="translate(1123.3 722.33) scale(.1 -.1)">
<use xlink:href="#c"/>
<use x="63.623047" xlink:href="#d"/>
<use x="95.410156" xlink:href="#o"/>
<use x="159.033203" xlink:href="#o"/>
</g>
</g>
<g clip-path="url(#a)">
<g transform="translate(720.57 722.33) scale(.1 -.1)">
<use xlink:href="#c"/>
<use x="63.623047" xlink:href="#d"/>
<use x="95.410156" xlink:href="#o"/>
<use x="159.033203" xlink:href="#n"/>
</g>
</g>
<g clip-path="url(#a)">
<g transform="translate(781.11 722.33) scale(.1 -.1)">
<use xlink:href="#c"/>
<use x="63.623047" xlink:href="#d"/>
<use x="95.410156" xlink:href="#o"/>
<use x="159.033203" xlink:href="#p"/>
</g>
</g>
<g clip-path="url(#a)">
<g transform="translate(844.28 722.33) scale(.1 -.1)">
<use xlink:href="#c"/>
<use x="63.623047" xlink:href="#d"/>
<use x="95.410156" xlink:href="#o"/>
<use x="159.033203" xlink:href="#af"/>
</g>
</g>
<g clip-path="url(#a)">
<g transform="translate(331.03 722.33) scale(.1 -.1)">
<use xlink:href="#c"/>
<use x="63.623047" xlink:href="#d"/>
<use x="95.410156" xlink:href="#o"/>
<use x="159.033203" xlink:href="#ae"/>
</g>
</g>
<g clip-path="url(#a)">
<g transform="translate(370.51 722.33) scale(.1 -.1)">
<use xlink:href="#c"/>
<use x="63.623047" xlink:href="#d"/>
<use x="95.410156" xlink:href="#o"/>
<use x="159.033203" xlink:href="#ad"/>
</g>
</g>
<g clip-path="url(#a)">
<g transform="translate(173.11 722.33) scale(.1 -.1)">
<use xlink:href="#c"/>
<use x="63.623047" xlink:href="#d"/>
<use x="95.410156" xlink:href="#o"/>
<use x="159.033203" xlink:href="#ac"/>
</g>
</g>
<g clip-path="url(#a)">
<g transform="translate(199.43 722.33) scale(.1 -.1)">
<use xlink:href="#c"/>
<use x="63.623047" xlink:href="#d"/>
<use x="95.410156" xlink:href="#n"/>
<use x="159.033203" xlink:href="#aj"/>
</g>
</g>
<g clip-path="url(#a)">
<g transform="translate(228.38 722.33) scale(.1 -.1)">
<use xlink:href="#c"/>
<use x="63.623047" xlink:href="#d"/>
<use x="95.410156" xlink:href="#n"/>
<use x="159.033203" xlink:href="#c"/>
</g>
</g>
<g clip-path="url(#a)">
<g transform="translate(259.97 722.33) scale(.1 -.1)">
<use xlink:href="#c"/>
<use x="63.623047" xlink:href="#d"/>
<use x="95.410156" xlink:href="#n"/>
<use x="159.033203" xlink:href="#q"/>
</g>
</g>
<g clip-path="url(#a)">
<g transform="translate(294.18 722.33) scale(.1 -.1)">
<use xlink:href="#c"/>
<use x="63.623047" xlink:href="#d"/>
<use x="95.410156" xlink:href="#n"/>
<use x="159.033203" xlink:href="#o"/>
</g>
</g>
<g clip-path="url(#a)">
<g transform="translate(102.04 626.04) scale(.1 -.1)">
<use xlink:href="#c"/>
<use x="63.623047" xlink:href="#d"/>
<use x="95.410156" xlink:href="#n"/>
<use x="159.033203" xlink:href="#n"/>
</g>
</g>
<g clip-path="url(#a)">
<g transform="translate(128.37 722.33) scale(.1 -.1)">
<use xlink:href="#c"/>
<use x="63.623047" xlink:href="#d"/>
<use x="95.410156" xlink:href="#n"/>
<use x="159.033203" xlink:href="#p"/>
</g>
</g>
<g clip-path="url(#a)">
<g transform="translate(94.149 722.33) scale(.1 -.1)">
<use xlink:href="#c"/>
<use x="63.623047" xlink:href="#d"/>
<use x="95.410156" xlink:href="#n"/>
<use x="159.033203" xlink:href="#af"/>
</g>
</g>
<g clip-path="url(#a)">
<g transform="translate(109.94 722.33) scale(.1 -.1)">
<use xlink:href="#c"/>
<use x="63.623047" xlink:href="#d"/>
<use x="95.410156" xlink:href="#n"/>
<use x="159.033203" xlink:href="#ae"/>
</g>
</g>
<g clip-path="url(#a)">
<g transform="translate(62.564 722.33) scale(.1 -.1)">
<use xlink:href="#c"/>
<use x="63.623047" xlink:href="#d"/>
<use x="95.410156" xlink:href="#n"/>
<use x="159.033203" xlink:href="#ad"/>
</g>
</g>
<g clip-path="url(#a)">
<g transform="translate(70.46 722.33) scale(.1 -.1)">
<use xlink:href="#c"/>
<use x="63.623047" xlink:href="#d"/>
<use x="95.410156" xlink:href="#n"/>
<use x="159.033203" xlink:href="#ac"/>
</g>
</g>
<g clip-path="url(#a)">
<g transform="translate(145.76 41.547) scale(.1 -.1)">
<use xlink:href="#c"/>
<use x="63.623047" xlink:href="#d"/>
<use x="95.410156" xlink:href="#p"/>
<use x="159.033203" xlink:href="#aj"/>
</g>
</g>
<g clip-path="url(#a)">
<g transform="translate(80.988 722.33) scale(.1 -.1)">
<use xlink:href="#c"/>
<use x="63.623047" xlink:href="#d"/>
<use x="95.410156" xlink:href="#p"/>
<use x="159.033203" xlink:href="#c"/>
</g>
</g>
<g clip-path="url(#a)">
<g transform="translate(457.37 722.33) scale(.1 -.1)">
<use xlink:href="#c"/>
<use x="63.623047" xlink:href="#d"/>
<use x="95.410156" xlink:href="#p"/>
<use x="159.033203" xlink:href="#q"/>
</g>
</g>
<g clip-path="url(#a)">
<g transform="translate(662.67 722.33) scale(.1 -.1)">
<use xlink:href="#c"/>
<use x="63.623047" xlink:href="#d"/>
<use x="95.410156" xlink:href="#p"/>
<use x="159.033203" xlink:href="#o"/>
</g>
</g>
<g clip-path="url(#a)">
<g transform="translate(910.08 722.33) scale(.1 -.1)">
<use xlink:href="#c"/>
<use x="63.623047" xlink:href="#d"/>
<use x="95.410156" xlink:href="#p"/>
<use x="159.033203" xlink:href="#n"/>
</g>
</g>
<g clip-path="url(#a)">
<g transform="translate(1199.6 722.33) scale(.1 -.1)">
<use xlink:href="#c"/>
<use x="63.623047" xlink:href="#d"/>
<use x="95.410156" xlink:href="#p"/>
<use x="159.033203" xlink:href="#p"/>
</g>
</g>
<g clip-path="url(#a)">
<g transform="translate(1531.2 722.33) scale(.1 -.1)">
<use xlink:href="#c"/>
<use x="63.623047" xlink:href="#d"/>
<use x="95.410156" xlink:href="#p"/>
<use x="159.033203" xlink:href="#af"/>
</g>
</g>
<defs>
<clipPath id="a">
<rect width="1621.3" height="853.33"/>
</clipPath>
</defs>
</svg>
