<?xml version="1.0" encoding="UTF-8"?>
<!DOCTYPE svg  PUBLIC '-//W3C//DTD SVG 1.1//EN'  'http://www.w3.org/Graphics/SVG/1.1/DTD/svg11.dtd'>
<svg width="1317.3pt" height="693.33pt" version="1.1" viewBox="0 0 1317.3 693.33" xmlns="http://www.w3.org/2000/svg" xmlns:xlink="http://www.w3.org/1999/xlink">
<defs>
<style type="text/css">*{stroke-linecap:butt;stroke-linejoin:round;}</style>
</defs>
<path d="m0 693.33h1317.3v-693.33h-1317.3z" fill="#fff"/>
<g fill="none" stroke="#000">
<path d="m454.68 31.515-285.95 254.05" clip-path="url(#a)"/>
<path d="m454.68 31.515 29.939 506.26" clip-path="url(#a)"/>
<path d="m454.68 31.515 277.17 127.18" clip-path="url(#a)"/>
<path d="m454.68 31.515-21.157 506.26" clip-path="url(#a)"/>
<path d="m168.73 285.56-98.201 252.21" clip-path="url(#a)"/>
<path d="m168.73 285.56-51.363 252.21" clip-path="url(#a)"/>
<path d="m168.73 285.56-1.8629 252.21" clip-path="url(#a)"/>
<path d="m168.73 285.56 48.701 252.21" clip-path="url(#a)"/>
<path d="m168.73 285.56 173.25 126.43" clip-path="url(#a)"/>
<path d="m168.73 285.56-70.524 252.21" clip-path="url(#a)"/>
<path d="m484.62 537.77v124.05" clip-path="url(#a)"/>
<path d="m731.85 158.7-192.94 379.07" clip-path="url(#a)"/>
<path d="m731.85 158.7-135.46 379.07" clip-path="url(#a)"/>
<path d="m731.85 158.7-74.782 379.07" clip-path="url(#a)"/>
<path d="m731.85 158.7 22.621 253.3" clip-path="url(#a)"/>
<path d="m731.85 158.7 380.56 126.86" clip-path="url(#a)"/>
<path d="m538.91 537.77v124.05" clip-path="url(#a)"/>
<path d="m596.39 537.77v124.05" clip-path="url(#a)"/>
<path d="m657.07 537.77v124.05" clip-path="url(#a)"/>
<path d="m754.47 412-33.532 125.77" clip-path="url(#a)"/>
<path d="m754.47 412 33.532 125.77" clip-path="url(#a)"/>
<path d="m1112.4 285.56-179.64 126.43" clip-path="url(#a)"/>
<path d="m1112.4 285.56-24.218 252.21" clip-path="url(#a)"/>
<path d="m1112.4 285.56 58.814 252.21" clip-path="url(#a)"/>
<path d="m1112.4 285.56 145.04 252.21" clip-path="url(#a)"/>
<path d="m932.78 412-74.516 125.77" clip-path="url(#a)"/>
<path d="m932.78 412-1.0645 125.77" clip-path="url(#a)"/>
<path d="m932.78 412 75.58 125.77" clip-path="url(#a)"/>
<path d="m1088.2 537.77v124.05" clip-path="url(#a)"/>
<path d="m1171.2 537.77v124.05" clip-path="url(#a)"/>
<path d="m858.26 537.77v124.05" clip-path="url(#a)"/>
<path d="m931.71 537.77v124.05" clip-path="url(#a)"/>
<path d="m1008.4 537.77v124.05" clip-path="url(#a)"/>
<path d="m720.94 537.77v124.05" clip-path="url(#a)"/>
<path d="m788 537.77v124.05" clip-path="url(#a)"/>
<path d="m70.524 537.77-10.645 124.05" clip-path="url(#a)"/>
<path d="m70.524 537.77-1.0645 124.05" clip-path="url(#a)"/>
<path d="m70.524 537.77 11.71 124.05" clip-path="url(#a)"/>
<path d="m117.36 537.77v124.05" clip-path="url(#a)"/>
<path d="m166.86 537.77-27.145 124.05" clip-path="url(#a)"/>
<path d="m166.86 537.77 27.145 124.05" clip-path="url(#a)"/>
<path d="m217.43 537.77-52.161 124.05" clip-path="url(#a)"/>
<path d="m217.43 537.77 8.5161 124.05" clip-path="url(#a)"/>
<path d="m217.43 537.77 43.645 124.05" clip-path="url(#a)"/>
<path d="m341.97 412-42.58 125.77" clip-path="url(#a)"/>
<path d="m341.97 412-1.0645 125.77" clip-path="url(#a)"/>
<path d="m341.97 412 43.645 125.77" clip-path="url(#a)"/>
<path d="m299.39 537.77v124.05" clip-path="url(#a)"/>
<path d="m340.91 537.77v124.05" clip-path="url(#a)"/>
<path d="m385.62 537.77v124.05" clip-path="url(#a)"/>
<path d="m98.201 537.77v124.05" clip-path="url(#a)"/>
<path d="m433.52 537.77v124.05" clip-path="url(#a)"/>
<path d="m1257.5 537.77v124.05" clip-path="url(#a)"/>
</g>
<path d="m313.62 165.23 4.4976-3.9958q1.7942-1.594 0.20019-3.3882l-5.1423-5.7882q-1.594-1.7942-3.3882-0.20019l-4.4976 3.9958q-1.7942 1.594-0.20019 3.3882l5.1423 5.7882q1.594 1.7942 3.3882 0.20019z" clip-path="url(#a)" fill="#fff" stroke="#fff"/>
<g clip-path="url(#a)">
<defs>
<path id="af" d="m9.8125 72.906h9.8594v-29.891h35.844v29.891h9.8594v-72.906h-9.8594v34.719h-35.844v-34.719h-9.8594z"/>
</defs>
<g transform="translate(310.92 162.19) rotate(-41.619) scale(.08 -.08)">
<use xlink:href="#af"/>
</g>
</g>
<path d="m463.26 282.79 0.26315 4.4497q0.14169 2.3958 2.5375 2.2541l7.729-0.45708q2.3958-0.14169 2.2541-2.5375l-0.26315-4.4497q-0.14169-2.3958-2.5375-2.2541l-7.729 0.45708q-2.3958 0.14169-2.2541 2.5375z" clip-path="url(#a)" fill="#fff" stroke="#fff"/>
<g clip-path="url(#a)">
<defs>
<path id="ap" d="m9.8125 72.906h9.8594v-64.609h35.5v-8.2969h-45.359z"/>
</defs>
<g transform="translate(467.31 282.55) rotate(86.616) scale(.08 -.08)">
<use xlink:href="#ap"/>
</g>
</g>
<path d="m587.92 99.553 5.4681 2.5091q2.1813 1.0009 3.1822-1.1804l3.229-7.037q1.0009-2.1813-1.1804-3.1822l-5.4681-2.5091q-2.1813-1.0009-3.1822 1.1804l-3.229 7.037q-1.0009 2.1813 1.1804 3.1822z" clip-path="url(#a)" fill="#fff" stroke="#fff"/>
<g clip-path="url(#a)">
<g transform="translate(589.61 95.859) rotate(24.649) scale(.08 -.08)">
<use xlink:href="#af"/>
</g>
</g>
<path d="m450.24 287.83 0.24448-5.8499q0.10021-2.3979-2.2977-2.4981l-7.7357-0.32329q-2.3979-0.10021-2.4981 2.2977l-0.24448 5.8499q-0.10021 2.3979 2.2977 2.4981l7.7357 0.32329q2.3979 0.10021 2.4981-2.2977z" clip-path="url(#a)" fill="#fff" stroke="#fff"/>
<g clip-path="url(#a)">
<defs>
<path id="v" d="m8.6875 72.906h9.9219v-44.297q0-11.719 4.2344-16.875 4.25-5.1406 13.781-5.1406 9.4688 0 13.719 5.1406 4.25 5.1562 4.25 16.875v44.297h9.9062v-45.516q0-14.25-7.0625-21.531-7.0469-7.2812-20.812-7.2812-13.828 0-20.891 7.2812-7.0469 7.2812-7.0469 21.531z"/>
</defs>
<g transform="translate(446.18 287.66) rotate(-87.607) scale(.08 -.08)">
<use xlink:href="#v"/>
</g>
</g>
<path d="m124.34 416.83 2.2491-5.7763q0.8708-2.2364-1.3656-3.1072l-7.2149-2.8092q-2.2364-0.8708-3.1072 1.3656l-2.2491 5.7763q-0.8708 2.2364 1.3656 3.1072l7.2149 2.8092q2.2364 0.8708 3.1073-1.3656z" clip-path="url(#a)" fill="#fff" stroke="#fff"/>
<g clip-path="url(#a)">
<defs>
<path id="aq" d="m59.516 10.406v19.578h-16.109v8.1094h25.875v-31.312q-5.7031-4.0469-12.594-6.125-6.875-2.0781-14.688-2.0781-17.094 0-26.75 9.9844-9.6406 10-9.6406 27.812 0 17.875 9.6406 27.859 9.6562 9.9844 26.75 9.9844 7.125 0 13.547-1.7656 6.4219-1.75 11.844-5.1719v-10.5q-5.4688 4.6406-11.625 6.9844t-12.938 2.3438q-13.391 0-20.109-7.4688-6.7031-7.4688-6.7031-22.266 0-14.75 6.7031-22.219 6.7188-7.4688 20.109-7.4688 5.2188 0 9.3125 0.90625 4.1094 0.90625 7.375 2.8125z"/>
</defs>
<g transform="translate(120.56 415.36) rotate(-68.726) scale(.08 -.08)">
<use xlink:href="#aq"/>
</g>
</g>
<path d="m148.64 415.6 1.0921-5.3624q0.47894-2.3517-1.8728-2.8307l-7.5868-1.5451q-2.3517-0.47894-2.8307 1.8728l-1.0921 5.3624q-0.47894 2.3517 1.8728 2.8307l7.5868 1.5451q2.3517 0.47894 2.8307-1.8728z" clip-path="url(#a)" fill="#fff" stroke="#fff"/>
<g clip-path="url(#a)">
<defs>
<path id="q" d="m34.188 63.188-13.391-36.281h26.812zm-5.5781 9.7188h11.188l27.781-72.906h-10.25l-6.6406 18.703h-32.859l-6.6406-18.703h-10.406z"/>
</defs>
<g transform="translate(144.66 414.79) rotate(-78.489) scale(.08 -.08)">
<use xlink:href="#q"/>
</g>
</g>
<path d="m174.04 414.79 0.045498-6.1598q0.017727-2.3999-2.3822-2.4177l-7.7423-0.057188q-2.3999-0.017727-2.4177 2.3822l-0.045499 6.1598q-0.017727 2.3999 2.3822 2.4177l7.7423 0.057188q2.3999 0.017727 2.4177-2.3822z" clip-path="url(#a)" fill="#fff" stroke="#fff"/>
<g clip-path="url(#a)">
<defs>
<path id="ag" d="m19.672 64.797v-56.688h11.922q15.094 0 22.094 6.8281 7 6.8438 7 21.594 0 14.641-7 21.453t-22.094 6.8125zm-9.8594 8.1094h20.266q21.188 0 31.094-8.8125 9.9219-8.8125 9.9219-27.562 0-18.859-9.9688-27.703-9.9531-8.8281-31.047-8.8281h-20.266z"/>
</defs>
<g transform="translate(169.98 414.76) rotate(-89.577) scale(.08 -.08)">
<use xlink:href="#ag"/>
</g>
</g>
<path d="m186.44 410.36 0.96292 4.9866q0.45504 2.3565 2.8115 1.9014l7.6021-1.468q2.3565-0.45504 1.9014-2.8115l-0.96292-4.9866q-0.45504-2.3565-2.8115-1.9014l-7.6021 1.468q-2.3565 0.45504-1.9014 2.8115z" clip-path="url(#a)" fill="#fff" stroke="#fff"/>
<g clip-path="url(#a)">
<defs>
<path id="ao" d="m53.516 70.516v-9.625q-5.6094 2.6875-10.594 4-4.9844 1.3281-9.625 1.3281-8.0469 0-12.422-3.125t-4.375-8.8906q0-4.8438 2.9062-7.3125 2.9062-2.4531 11.016-3.9688l5.9531-1.2188q11.031-2.1094 16.281-7.4062t5.25-14.172q0-10.609-7.1094-16.078-7.0938-5.4688-20.812-5.4688-5.1719 0-11.016 1.1719-5.8281 1.1719-12.078 3.4688v10.156q6-3.3594 11.766-5.0781 5.7656-1.7031 11.328-1.7031 8.4375 0 13.031 3.3125 4.5938 3.3281 4.5938 9.4844 0 5.3594-3.2969 8.3906t-10.812 4.5469l-6.0156 1.1719q-11.031 2.1875-15.969 6.875-4.9219 4.6875-4.9219 13.047 0 9.6719 6.8125 15.234t18.766 5.5625q5.1406 0 10.453-0.9375 5.3281-0.92188 10.891-2.7656z"/>
</defs>
<g transform="translate(190.43 409.59) rotate(79.071) scale(.08 -.08)">
<use xlink:href="#ao"/>
</g>
</g>
<path d="m249.44 352.23 4.4205 3.226q1.9387 1.4148 3.3534-0.52387l4.5642-6.2542q1.4148-1.9387-0.52387-3.3534l-4.4205-3.226q-1.9387-1.4148-3.3534 0.52387l-4.5642 6.2542q-1.4148 1.9387 0.52387 3.3534z" clip-path="url(#a)" fill="#fff" stroke="#fff"/>
<g clip-path="url(#a)">
<g transform="translate(251.84 348.95) rotate(36.121) scale(.08 -.08)">
<use xlink:href="#q"/>
</g>
</g>
<path d="m138.71 416.17 1.5767-5.6387q0.64631-2.3113-1.665-2.9576l-7.4565-2.085q-2.3113-0.64631-2.9576 1.665l-1.5767 5.6387q-0.64631 2.3113 1.665 2.9576l7.4565 2.085q2.3113 0.64631 2.9576-1.665z" clip-path="url(#a)" fill="#fff" stroke="#fff"/>
<g clip-path="url(#a)">
<g transform="translate(134.8 415.08) rotate(-74.378) scale(.08 -.08)">
<use xlink:href="#v"/>
</g>
</g>
<path d="m478.35 582.89v33.808q0 2.4 2.4 2.4h7.7425q2.4 0 2.4-2.4v-33.808q0-2.4-2.4-2.4h-7.7425q-2.4 0-2.4 2.4z" clip-path="url(#a)" fill="#fff" stroke="#fff"/>
<g clip-path="url(#a)">
<defs>
<path id="l" d="m-0.29688 72.906h61.672v-8.3125h-25.875v-64.594h-9.9062v64.594h-25.891z"/>
<path id="d" d="m56.203 29.594v-4.3906h-41.312q0.59375-9.2812 5.5938-14.141t13.938-4.8594q5.1719 0 10.031 1.2656t9.6562 3.8125v-8.5q-4.8438-2.0469-9.9219-3.125t-10.297-1.0781q-13.094 0-20.734 7.6094-7.6406 7.625-7.6406 20.625 0 13.422 7.25 21.297 7.25 7.8906 19.562 7.8906 11.031 0 17.453-7.1094 6.4219-7.0938 6.4219-19.297zm-8.9844 2.6406q-0.09375 7.3594-4.125 11.75-4.0312 4.4062-10.672 4.4062-7.5156 0-12.031-4.25t-5.2031-11.969z"/>
<path id="g" d="m41.109 46.297q-1.5156 0.875-3.2969 1.2812-1.7812 0.42188-3.9219 0.42188-7.625 0-11.703-4.9531t-4.0781-14.234v-28.812h-9.0312v54.688h9.0312v-8.5q2.8438 4.9844 7.375 7.3906 4.5469 2.4219 11.047 2.4219 0.92188 0 2.0469-0.125 1.125-0.10938 2.4844-0.35938z"/>
<path id="j" d="m52 44.188q3.375 6.0625 8.0625 8.9375t11.031 2.875q8.5469 0 13.188-5.9844 4.6406-5.9688 4.6406-17v-33.016h-9.0312v32.719q0 7.8594-2.7969 11.656-2.7812 3.8125-8.4844 3.8125-6.9844 0-11.047-4.6406-4.0469-4.625-4.0469-12.641v-30.906h-9.0312v32.719q0 7.9062-2.7812 11.688t-8.5938 3.7812q-6.8906 0-10.953-4.6562-4.0469-4.6562-4.0469-12.625v-30.906h-9.0312v54.688h9.0312v-8.5q3.0781 5.0312 7.375 7.4219t10.203 2.3906q5.9688 0 10.141-3.0312 4.1719-3.0156 6.1719-8.7812z"/>
<path id="h" d="m9.4219 54.688h8.9844v-54.688h-8.9844zm0 21.297h8.9844v-11.391h-8.9844z"/>
<path id="f" d="m54.891 33.016v-33.016h-8.9844v32.719q0 7.7656-3.0312 11.609-3.0312 3.8594-9.0781 3.8594-7.2812 0-11.484-4.6406-4.2031-4.625-4.2031-12.641v-30.906h-9.0312v54.688h9.0312v-8.5q3.2344 4.9375 7.5938 7.375 4.375 2.4375 10.094 2.4375 9.4219 0 14.25-5.8281 4.8438-5.8281 4.8438-17.156z"/>
<path id="e" d="m34.281 27.484q-10.891 0-15.094-2.4844t-4.2031-8.5q0-4.7812 3.1562-7.5938 3.1562-2.7969 8.5625-2.7969 7.4844 0 12 5.2969t4.5156 14.078v2zm17.922 3.7188v-31.203h-8.9844v8.2969q-3.0781-4.9688-7.6719-7.3438t-11.234-2.375q-8.3906 0-13.359 4.7188-4.9531 4.7188-4.9531 12.625 0 9.2188 6.1719 13.906 6.1875 4.6875 18.438 4.6875h12.609v0.89062q0 6.2031-4.0781 9.5938t-11.453 3.3906q-4.6875 0-9.1406-1.125-4.4375-1.125-8.5312-3.375v8.3125q4.9219 1.9062 9.5625 2.8438 4.6406 0.95312 9.0312 0.95312 11.875 0 17.734-6.1562 5.8594-6.1406 5.8594-18.641z"/>
<path id="k" d="m9.4219 75.984h8.9844v-75.984h-8.9844z"/>
</defs>
<g transform="translate(482.41 582.89) rotate(90) scale(.08 -.08)">
<use xlink:href="#l"/>
<use x="44.083984" xlink:href="#d"/>
<use x="105.607422" xlink:href="#g"/>
<use x="144.970703" xlink:href="#j"/>
<use x="242.382812" xlink:href="#h"/>
<use x="270.166016" xlink:href="#f"/>
<use x="333.544922" xlink:href="#e"/>
<use x="394.824219" xlink:href="#k"/>
</g>
</g>
<path d="m639.73 353.52 2.4824-4.8771q1.0887-2.1389-1.0502-3.2275l-6.9001-3.5121q-2.1389-1.0887-3.2275 1.0502l-2.4824 4.8771q-1.0887 2.1389 1.0502 3.2275l6.9001 3.5121q2.1389 1.0887 3.2275-1.0502z" clip-path="url(#a)" fill="#fff" stroke="#fff"/>
<g clip-path="url(#a)">
<g transform="translate(636.11 351.67) rotate(-63.024) scale(.08 -.08)">
<use xlink:href="#q"/>
</g>
</g>
<path d="m668.99 353.25 2.0729-5.8008q0.80761-2.26-1.4524-3.0676l-7.291-2.6054q-2.26-0.80761-3.0676 1.4524l-2.0729 5.8008q-0.80761 2.26 1.4524 3.0676l7.291 2.6054q2.26 0.80761 3.0676-1.4524z" clip-path="url(#a)" fill="#fff" stroke="#fff"/>
<g clip-path="url(#a)">
<g transform="translate(665.16 351.88) rotate(-70.336) scale(.08 -.08)">
<use xlink:href="#ag"/>
</g>
</g>
<path d="m700.15 351.81 0.93362-4.7325q0.46451-2.3546-1.8901-2.8191l-7.5961-1.4985q-2.3546-0.46451-2.8191 1.8901l-0.93362 4.7325q-0.46451 2.3546 1.8901 2.8191l7.5961 1.4985q2.3546 0.46451 2.8191-1.8901z" clip-path="url(#a)" fill="#fff" stroke="#fff"/>
<g clip-path="url(#a)">
<defs>
<path id="ae" d="m19.672 64.797v-27.391h12.406q6.8906 0 10.641 3.5625 3.7656 3.5625 3.7656 10.156 0 6.5469-3.7656 10.109-3.75 3.5625-10.641 3.5625zm-9.8594 8.1094h22.266q12.266 0 18.531-5.5469 6.2812-5.5469 6.2812-16.234 0-10.797-6.2812-16.312-6.2656-5.5156-18.531-5.5156h-12.406v-29.297h-9.8594z"/>
</defs>
<g transform="translate(696.16 351.03) rotate(-78.84) scale(.08 -.08)">
<use xlink:href="#ae"/>
</g>
</g>
<path d="m736.67 283.18 0.48679 5.4508q0.21348 2.3905 2.604 2.177l7.7118-0.68871q2.3905-0.21348 2.177-2.604l-0.48679-5.4508q-0.21348-2.3905-2.604-2.177l-7.7118 0.68871q-2.3905 0.21348-2.177 2.604z" clip-path="url(#a)" fill="#fff" stroke="#fff"/>
<g clip-path="url(#a)">
<g transform="translate(740.72 282.82) rotate(84.897) scale(.08 -.08)">
<use xlink:href="#q"/>
</g>
</g>
<path d="m917.55 227.22 5.1916 1.7307q2.2768 0.759 3.0358-1.5178l2.4486-7.3451q0.759-2.2768-1.5178-3.0358l-5.1916-1.7307q-2.2768-0.759-3.0358 1.5178l-2.4486 7.3451q-0.759 2.2768 1.5178 3.0358z" clip-path="url(#a)" fill="#fff" stroke="#fff"/>
<g clip-path="url(#a)">
<g transform="translate(918.84 223.36) rotate(18.436) scale(.08 -.08)">
<use xlink:href="#q"/>
</g>
</g>
<path d="m532.64 582.89v33.808q0 2.4 2.4 2.4h7.7425q2.4 0 2.4-2.4v-33.808q0-2.4-2.4-2.4h-7.7425q-2.4 0-2.4 2.4z" clip-path="url(#a)" fill="#fff" stroke="#fff"/>
<g clip-path="url(#a)">
<g transform="translate(536.7 582.89) rotate(90) scale(.08 -.08)">
<use xlink:href="#l"/>
<use x="44.083984" xlink:href="#d"/>
<use x="105.607422" xlink:href="#g"/>
<use x="144.970703" xlink:href="#j"/>
<use x="242.382812" xlink:href="#h"/>
<use x="270.166016" xlink:href="#f"/>
<use x="333.544922" xlink:href="#e"/>
<use x="394.824219" xlink:href="#k"/>
</g>
</g>
<path d="m590.12 582.89v33.808q0 2.4 2.4 2.4h7.7425q2.4 0 2.4-2.4v-33.808q0-2.4-2.4-2.4h-7.7425q-2.4 0-2.4 2.4z" clip-path="url(#a)" fill="#fff" stroke="#fff"/>
<g clip-path="url(#a)">
<g transform="translate(594.19 582.89) rotate(90) scale(.08 -.08)">
<use xlink:href="#l"/>
<use x="44.083984" xlink:href="#d"/>
<use x="105.607422" xlink:href="#g"/>
<use x="144.970703" xlink:href="#j"/>
<use x="242.382812" xlink:href="#h"/>
<use x="270.166016" xlink:href="#f"/>
<use x="333.544922" xlink:href="#e"/>
<use x="394.824219" xlink:href="#k"/>
</g>
</g>
<path d="m650.8 582.89v33.808q0 2.4 2.4 2.4h7.7425q2.4 0 2.4-2.4v-33.808q0-2.4-2.4-2.4h-7.7425q-2.4 0-2.4 2.4z" clip-path="url(#a)" fill="#fff" stroke="#fff"/>
<g clip-path="url(#a)">
<g transform="translate(654.86 582.89) rotate(90) scale(.08 -.08)">
<use xlink:href="#l"/>
<use x="44.083984" xlink:href="#d"/>
<use x="105.607422" xlink:href="#g"/>
<use x="144.970703" xlink:href="#j"/>
<use x="242.382812" xlink:href="#h"/>
<use x="270.166016" xlink:href="#f"/>
<use x="333.544922" xlink:href="#e"/>
<use x="394.824219" xlink:href="#k"/>
</g>
</g>
<path d="m743.05 479.18 1.432-5.3711q0.61826-2.319-1.7007-2.9373l-7.4812-1.9945q-2.319-0.61826-2.9373 1.7007l-1.432 5.3711q-0.61826 2.319 1.7007 2.9373l7.4812 1.9945q2.319 0.61826 2.9373-1.7007z" clip-path="url(#a)" fill="#fff" stroke="#fff"/>
<g clip-path="url(#a)">
<defs>
<path id="w" d="m44.391 34.188q3.1719-1.0781 6.1719-4.5938t6.0312-9.6719l10.016-19.922h-10.609l-9.3125 18.703q-3.625 7.3281-7.0156 9.7188t-9.25 2.3906h-10.75v-30.812h-9.8594v72.906h22.266q12.5 0 18.656-5.2344 6.1562-5.2188 6.1562-15.766 0-6.8906-3.2031-11.438-3.2031-4.5312-9.2969-6.2812zm-24.719 30.609v-25.875h12.406q7.125 0 10.766 3.2969t3.6406 9.6875-3.6406 9.6406-10.766 3.25z"/>
</defs>
<g transform="translate(739.12 478.14) rotate(-75.072) scale(.08 -.08)">
<use xlink:href="#w"/>
</g>
</g>
<path d="m764.46 473.8 1.4391 5.3977q0.61826 2.319 2.9373 1.7007l7.4812-1.9945q2.319-0.61826 1.7007-2.9373l-1.4391-5.3977q-0.61826-2.319-2.9373-1.7007l-7.4812 1.9945q-2.319 0.61826-1.7007 2.9373z" clip-path="url(#a)" fill="#fff" stroke="#fff"/>
<g clip-path="url(#a)">
<defs>
<path id="t" d="m64.406 67.281v-10.391q-4.9844 4.6406-10.625 6.9219-5.6406 2.2969-11.984 2.2969-12.5 0-19.141-7.6406t-6.6406-22.094q0-14.406 6.6406-22.047t19.141-7.6406q6.3438 0 11.984 2.2969t10.625 6.9375v-10.312q-5.1719-3.5156-10.969-5.2812-5.7812-1.75-12.219-1.75-16.562 0-26.094 10.125-9.5156 10.141-9.5156 27.672 0 17.578 9.5156 27.703 9.5312 10.141 26.094 10.141 6.5312 0 12.312-1.7344 5.7969-1.7344 10.875-5.2031z"/>
</defs>
<g transform="translate(768.39 472.75) rotate(75.072) scale(.08 -.08)">
<use xlink:href="#t"/>
</g>
</g>
<path d="m1024.1 355.36 4.1338-2.9095q1.9626-1.3813 0.58127-3.344l-4.4563-6.3315q-1.3813-1.9626-3.344-0.58127l-4.1338 2.9095q-1.9626 1.3813-0.58127 3.344l4.4563 6.3315q1.3813 1.9626 3.344 0.58127z" clip-path="url(#a)" fill="#fff" stroke="#fff"/>
<g clip-path="url(#a)">
<defs>
<path id="s" d="m9.8125 72.906h46.094v-8.3125h-36.234v-21.578h34.719v-8.2969h-34.719v-26.422h37.109v-8.2969h-46.969z"/>
</defs>
<g transform="translate(1021.8 352.04) rotate(-35.139) scale(.08 -.08)">
<use xlink:href="#s"/>
</g>
</g>
<path d="m1106.3 415.05 0.53395-5.5607q0.2294-2.389-2.1596-2.6184l-7.707-0.74005q-2.389-0.2294-2.6184 2.1596l-0.53395 5.5607q-0.2294 2.389 2.1596 2.6184l7.7071 0.74005q2.389 0.2294 2.6184-2.1596z" clip-path="url(#a)" fill="#fff" stroke="#fff"/>
<g clip-path="url(#a)">
<g transform="translate(1102.2 414.66) rotate(-84.515) scale(.08 -.08)">
<use xlink:href="#t"/>
</g>
</g>
<path d="m1135.1 410.63 1.148 4.9229q0.54505 2.3373 2.8823 1.7922l7.5402-1.7584q2.3373-0.54505 1.7922-2.8823l-1.148-4.9229q-0.54505-2.3373-2.8823-1.7922l-7.5402 1.7584q-2.3373 0.54505-1.7922 2.8823z" clip-path="url(#a)" fill="#fff" stroke="#fff"/>
<g clip-path="url(#a)">
<g transform="translate(1139.1 409.71) rotate(76.873) scale(.08 -.08)">
<use xlink:href="#s"/>
</g>
</g>
<path d="m1178 412.26 2.9189 5.0756q1.1965 2.0805 3.277 0.88404l6.7118-3.8598q2.0805-1.1965 0.88404-3.277l-2.9189-5.0756q-1.1965-2.0805-3.277-0.88404l-6.7118 3.8598q-2.0805 1.1965-0.88404 3.277z" clip-path="url(#a)" fill="#fff" stroke="#fff"/>
<g clip-path="url(#a)">
<g transform="translate(1181.6 410.23) rotate(60.098) scale(.08 -.08)">
<use xlink:href="#v"/>
</g>
</g>
<path d="m899.63 480.25 2.5766-4.349q1.2233-2.0648-0.8415-3.2881l-6.6612-3.9465q-2.0648-1.2233-3.2881 0.8415l-2.5766 4.349q-1.2233 2.0648 0.8415 3.2881l6.6612 3.9465q2.0648 1.2233 3.2881-0.8415z" clip-path="url(#a)" fill="#fff" stroke="#fff"/>
<g clip-path="url(#a)">
<g transform="translate(896.13 478.18) rotate(-59.355) scale(.08 -.08)">
<use xlink:href="#s"/>
</g>
</g>
<path d="m938.49 477.73 0.047279-5.586q0.020312-2.3999-2.3796-2.4202l-7.7422-0.065528q-2.3999-0.020312-2.4202 2.3796l-0.047278 5.586q-0.020313 2.3999 2.3796 2.4202l7.7422 0.065528q2.3999 0.020313 2.4202-2.3796z" clip-path="url(#a)" fill="#fff" stroke="#fff"/>
<g clip-path="url(#a)">
<g transform="translate(934.43 477.7) rotate(-89.515) scale(.08 -.08)">
<use xlink:href="#t"/>
</g>
</g>
<path d="m963.76 475.73 2.8632 4.7646q1.2362 2.0571 3.2933 0.82096l6.6364-3.988q2.0571-1.2362 0.82096-3.2933l-2.8632-4.7646q-1.2362-2.0571-3.2933-0.82096l-6.6364 3.988q-2.0571 1.2362-0.82096 3.2933z" clip-path="url(#a)" fill="#fff" stroke="#fff"/>
<g clip-path="url(#a)">
<g transform="translate(967.24 473.64) rotate(58.997) scale(.08 -.08)">
<use xlink:href="#w"/>
</g>
</g>
<path d="m1081.9 582.89v33.808q0 2.4 2.4 2.4h7.7425q2.4 0 2.4-2.4v-33.808q0-2.4-2.4-2.4h-7.7425q-2.4 0-2.4 2.4z" clip-path="url(#a)" fill="#fff" stroke="#fff"/>
<g clip-path="url(#a)">
<g transform="translate(1086 582.89) rotate(90) scale(.08 -.08)">
<use xlink:href="#l"/>
<use x="44.083984" xlink:href="#d"/>
<use x="105.607422" xlink:href="#g"/>
<use x="144.970703" xlink:href="#j"/>
<use x="242.382812" xlink:href="#h"/>
<use x="270.166016" xlink:href="#f"/>
<use x="333.544922" xlink:href="#e"/>
<use x="394.824219" xlink:href="#k"/>
</g>
</g>
<path d="m1165 582.89v33.808q0 2.4 2.4 2.4h7.7425q2.4 0 2.4-2.4v-33.808q0-2.4-2.4-2.4h-7.7425q-2.4 0-2.4 2.4z" clip-path="url(#a)" fill="#fff" stroke="#fff"/>
<g clip-path="url(#a)">
<g transform="translate(1169 582.89) rotate(90) scale(.08 -.08)">
<use xlink:href="#l"/>
<use x="44.083984" xlink:href="#d"/>
<use x="105.607422" xlink:href="#g"/>
<use x="144.970703" xlink:href="#j"/>
<use x="242.382812" xlink:href="#h"/>
<use x="270.166016" xlink:href="#f"/>
<use x="333.544922" xlink:href="#e"/>
<use x="394.824219" xlink:href="#k"/>
</g>
</g>
<path d="m851.99 582.89v33.808q0 2.4 2.4 2.4h7.7425q2.4 0 2.4-2.4v-33.808q0-2.4-2.4-2.4h-7.7425q-2.4 0-2.4 2.4z" clip-path="url(#a)" fill="#fff" stroke="#fff"/>
<g clip-path="url(#a)">
<g transform="translate(856.06 582.89) rotate(90) scale(.08 -.08)">
<use xlink:href="#l"/>
<use x="44.083984" xlink:href="#d"/>
<use x="105.607422" xlink:href="#g"/>
<use x="144.970703" xlink:href="#j"/>
<use x="242.382812" xlink:href="#h"/>
<use x="270.166016" xlink:href="#f"/>
<use x="333.544922" xlink:href="#e"/>
<use x="394.824219" xlink:href="#k"/>
</g>
</g>
<path d="m925.44 582.89v33.808q0 2.4 2.4 2.4h7.7425q2.4 0 2.4-2.4v-33.808q0-2.4-2.4-2.4h-7.7425q-2.4 0-2.4 2.4z" clip-path="url(#a)" fill="#fff" stroke="#fff"/>
<g clip-path="url(#a)">
<g transform="translate(929.51 582.89) rotate(90) scale(.08 -.08)">
<use xlink:href="#l"/>
<use x="44.083984" xlink:href="#d"/>
<use x="105.607422" xlink:href="#g"/>
<use x="144.970703" xlink:href="#j"/>
<use x="242.382812" xlink:href="#h"/>
<use x="270.166016" xlink:href="#f"/>
<use x="333.544922" xlink:href="#e"/>
<use x="394.824219" xlink:href="#k"/>
</g>
</g>
<path d="m1002.1 582.89v33.808q0 2.4 2.4 2.4h7.7425q2.4 0 2.4-2.4v-33.808q0-2.4-2.4-2.4h-7.7425q-2.4 0-2.4 2.4z" clip-path="url(#a)" fill="#fff" stroke="#fff"/>
<g clip-path="url(#a)">
<g transform="translate(1006.2 582.89) rotate(90) scale(.08 -.08)">
<use xlink:href="#l"/>
<use x="44.083984" xlink:href="#d"/>
<use x="105.607422" xlink:href="#g"/>
<use x="144.970703" xlink:href="#j"/>
<use x="242.382812" xlink:href="#h"/>
<use x="270.166016" xlink:href="#f"/>
<use x="333.544922" xlink:href="#e"/>
<use x="394.824219" xlink:href="#k"/>
</g>
</g>
<path d="m714.67 582.89v33.808q0 2.4 2.4 2.4h7.7425q2.4 0 2.4-2.4v-33.808q0-2.4-2.4-2.4h-7.7425q-2.4 0-2.4 2.4z" clip-path="url(#a)" fill="#fff" stroke="#fff"/>
<g clip-path="url(#a)">
<g transform="translate(718.73 582.89) rotate(90) scale(.08 -.08)">
<use xlink:href="#l"/>
<use x="44.083984" xlink:href="#d"/>
<use x="105.607422" xlink:href="#g"/>
<use x="144.970703" xlink:href="#j"/>
<use x="242.382812" xlink:href="#h"/>
<use x="270.166016" xlink:href="#f"/>
<use x="333.544922" xlink:href="#e"/>
<use x="394.824219" xlink:href="#k"/>
</g>
</g>
<path d="m781.73 582.89v33.808q0 2.4 2.4 2.4h7.7425q2.4 0 2.4-2.4v-33.808q0-2.4-2.4-2.4h-7.7425q-2.4 0-2.4 2.4z" clip-path="url(#a)" fill="#fff" stroke="#fff"/>
<g clip-path="url(#a)">
<g transform="translate(785.8 582.89) rotate(90) scale(.08 -.08)">
<use xlink:href="#l"/>
<use x="44.083984" xlink:href="#d"/>
<use x="105.607422" xlink:href="#g"/>
<use x="144.970703" xlink:href="#j"/>
<use x="242.382812" xlink:href="#h"/>
<use x="270.166016" xlink:href="#f"/>
<use x="333.544922" xlink:href="#e"/>
<use x="394.824219" xlink:href="#k"/>
</g>
</g>
<path d="m70.004 617.17 2.8906-33.684q0.2052-2.3912-2.186-2.5964l-7.7141-0.66199q-2.3912-0.2052-2.5964 2.186l-2.8906 33.684q-0.2052 2.3912 2.186 2.5964l7.7141 0.66199q2.3912 0.2052 2.5964-2.186z" clip-path="url(#a)" fill="#fff" stroke="#fff"/>
<g clip-path="url(#a)">
<g transform="translate(65.955 616.82) rotate(-85.095) scale(.08 -.08)">
<use xlink:href="#l"/>
<use x="44.083984" xlink:href="#d"/>
<use x="105.607422" xlink:href="#g"/>
<use x="144.970703" xlink:href="#j"/>
<use x="242.382812" xlink:href="#h"/>
<use x="270.166016" xlink:href="#f"/>
<use x="333.544922" xlink:href="#e"/>
<use x="394.824219" xlink:href="#k"/>
</g>
</g>
<path d="m76.118 616.75 0.29011-33.806q0.020595-2.3999-2.3793-2.4205l-7.7422-0.066439q-2.3999-0.020595-2.4205 2.3793l-0.29011 33.806q-0.020594 2.3999 2.3793 2.4205l7.7422 0.06644q2.3999 0.020594 2.4205-2.3793z" clip-path="url(#a)" fill="#fff" stroke="#fff"/>
<g clip-path="url(#a)">
<g transform="translate(72.054 616.72) rotate(-89.508) scale(.08 -.08)">
<use xlink:href="#l"/>
<use x="44.083984" xlink:href="#d"/>
<use x="105.607422" xlink:href="#g"/>
<use x="144.970703" xlink:href="#j"/>
<use x="242.382812" xlink:href="#h"/>
<use x="270.166016" xlink:href="#f"/>
<use x="333.544922" xlink:href="#e"/>
<use x="394.824219" xlink:href="#k"/>
</g>
</g>
<path d="m68.547 583.55 3.1772 33.658q0.22555 2.3894 2.6149 2.1638l7.7082-0.72763q2.3894-0.22555 2.1638-2.6149l-3.1772-33.658q-0.22555-2.3894-2.6149-2.1638l-7.7082 0.72763q-2.3894 0.22555-2.1638 2.6149z" clip-path="url(#a)" fill="#fff" stroke="#fff"/>
<g clip-path="url(#a)">
<g transform="translate(72.592 583.17) rotate(84.607) scale(.08 -.08)">
<use xlink:href="#l"/>
<use x="44.083984" xlink:href="#d"/>
<use x="105.607422" xlink:href="#g"/>
<use x="144.970703" xlink:href="#j"/>
<use x="242.382812" xlink:href="#h"/>
<use x="270.166016" xlink:href="#f"/>
<use x="333.544922" xlink:href="#e"/>
<use x="394.824219" xlink:href="#k"/>
</g>
</g>
<path d="m111.09 582.89v33.808q0 2.4 2.4 2.4h7.7425q2.4 0 2.4-2.4v-33.808q0-2.4-2.4-2.4h-7.7425q-2.4 0-2.4 2.4z" clip-path="url(#a)" fill="#fff" stroke="#fff"/>
<g clip-path="url(#a)">
<g transform="translate(115.15 582.89) rotate(90) scale(.08 -.08)">
<use xlink:href="#l"/>
<use x="44.083984" xlink:href="#d"/>
<use x="105.607422" xlink:href="#g"/>
<use x="144.970703" xlink:href="#j"/>
<use x="242.382812" xlink:href="#h"/>
<use x="270.166016" xlink:href="#f"/>
<use x="333.544922" xlink:href="#e"/>
<use x="394.824219" xlink:href="#k"/>
</g>
</g>
<path d="m155.8 617.65 7.227-33.026q0.51304-2.3445-1.8315-2.8576l-7.5635-1.6551q-2.3445-0.51304-2.8576 1.8315l-7.227 33.026q-0.51304 2.3445 1.8315 2.8576l7.5635 1.6551q2.3445 0.51304 2.8576-1.8315z" clip-path="url(#a)" fill="#fff" stroke="#fff"/>
<g clip-path="url(#a)">
<g transform="translate(151.83 616.78) rotate(-77.657) scale(.08 -.08)">
<use xlink:href="#l"/>
<use x="44.083984" xlink:href="#d"/>
<use x="105.607422" xlink:href="#g"/>
<use x="144.970703" xlink:href="#j"/>
<use x="242.382812" xlink:href="#h"/>
<use x="270.166016" xlink:href="#f"/>
<use x="333.544922" xlink:href="#e"/>
<use x="394.824219" xlink:href="#k"/>
</g>
</g>
<path d="m170.69 584.62 7.227 33.026q0.51304 2.3445 2.8576 1.8315l7.5635-1.6551q2.3445-0.51304 1.8315-2.8576l-7.227-33.026q-0.51304-2.3445-2.8576-1.8315l-7.5635 1.6551q-2.3445 0.51304-1.8315 2.8576z" clip-path="url(#a)" fill="#fff" stroke="#fff"/>
<g clip-path="url(#a)">
<g transform="translate(174.66 583.75) rotate(77.657) scale(.08 -.08)">
<use xlink:href="#l"/>
<use x="44.083984" xlink:href="#d"/>
<use x="105.607422" xlink:href="#g"/>
<use x="144.970703" xlink:href="#j"/>
<use x="242.382812" xlink:href="#h"/>
<use x="270.166016" xlink:href="#f"/>
<use x="333.544922" xlink:href="#e"/>
<use x="394.824219" xlink:href="#k"/>
</g>
</g>
<path d="m190.57 617.81 13.104-31.164q0.93028-2.2124-1.2821-3.1426l-7.1372-3.0011q-2.2124-0.93028-3.1427 1.2821l-13.104 31.164q-0.93028 2.2124 1.2821 3.1426l7.1372 3.0011q2.2124 0.93028 3.1426-1.2821z" clip-path="url(#a)" fill="#fff" stroke="#fff"/>
<g clip-path="url(#a)">
<g transform="translate(186.83 616.23) rotate(-67.194) scale(.08 -.08)">
<use xlink:href="#l"/>
<use x="44.083984" xlink:href="#d"/>
<use x="105.607422" xlink:href="#g"/>
<use x="144.970703" xlink:href="#j"/>
<use x="242.382812" xlink:href="#h"/>
<use x="270.166016" xlink:href="#f"/>
<use x="333.544922" xlink:href="#e"/>
<use x="394.824219" xlink:href="#k"/>
</g>
</g>
<path d="m214.27 583.36 2.3155 33.728q0.16438 2.3944 2.5587 2.23l7.7243-0.53029q2.3944-0.16438 2.23-2.5587l-2.3155-33.728q-0.16438-2.3944-2.5587-2.23l-7.7243 0.53029q-2.3944 0.16438-2.23 2.5587z" clip-path="url(#a)" fill="#fff" stroke="#fff"/>
<g clip-path="url(#a)">
<g transform="translate(218.32 583.08) rotate(86.073) scale(.08 -.08)">
<use xlink:href="#l"/>
<use x="44.083984" xlink:href="#d"/>
<use x="105.607422" xlink:href="#g"/>
<use x="144.970703" xlink:href="#j"/>
<use x="242.382812" xlink:href="#h"/>
<use x="270.166016" xlink:href="#f"/>
<use x="333.544922" xlink:href="#e"/>
<use x="394.824219" xlink:href="#k"/>
</g>
</g>
<path d="m227.72 585.93 11.221 31.891q0.79655 2.264 3.0605 1.4674l7.3036-2.5697q2.264-0.79655 1.4674-3.0605l-11.221-31.891q-0.79655-2.264-3.0605-1.4674l-7.3036 2.5697q-2.264 0.79655-1.4674 3.0605z" clip-path="url(#a)" fill="#fff" stroke="#fff"/>
<g clip-path="url(#a)">
<g transform="translate(231.56 584.58) rotate(70.616) scale(.08 -.08)">
<use xlink:href="#l"/>
<use x="44.083984" xlink:href="#d"/>
<use x="105.607422" xlink:href="#g"/>
<use x="144.970703" xlink:href="#j"/>
<use x="242.382812" xlink:href="#h"/>
<use x="270.166016" xlink:href="#f"/>
<use x="333.544922" xlink:href="#e"/>
<use x="394.824219" xlink:href="#k"/>
</g>
</g>
<path d="m325.73 479.53 1.7825-5.2652q0.76961-2.2733-1.5036-3.0429l-7.3336-2.4828q-2.2733-0.76961-3.0429 1.5036l-1.7825 5.2652q-0.76961 2.2733 1.5037 3.0429l7.3336 2.4828q2.2733 0.76961 3.0429-1.5036z" clip-path="url(#a)" fill="#fff" stroke="#fff"/>
<g clip-path="url(#a)">
<g transform="translate(321.88 478.22) rotate(-71.297) scale(.08 -.08)">
<use xlink:href="#w"/>
</g>
</g>
<path d="m347.69 477.46 0.042783-5.0548q0.020312-2.3999-2.3796-2.4202l-7.7422-0.065528q-2.3999-0.020312-2.4202 2.3796l-0.042783 5.0548q-0.020312 2.3999 2.3796 2.4202l7.7422 0.065528q2.3999 0.020312 2.4202-2.3796z" clip-path="url(#a)" fill="#fff" stroke="#fff"/>
<g clip-path="url(#a)">
<g transform="translate(343.63 477.43) rotate(-89.515) scale(.08 -.08)">
<use xlink:href="#s"/>
</g>
</g>
<path d="m356.96 474.3 1.8314 5.2775q0.7868 2.2674 3.0542 1.4806l7.3146-2.5383q2.2674-0.7868 1.4806-3.0542l-1.8314-5.2775q-0.7868-2.2674-3.0542-1.4806l-7.3146 2.5383q-2.2674 0.7868-1.4806 3.0542z" clip-path="url(#a)" fill="#fff" stroke="#fff"/>
<g clip-path="url(#a)">
<g transform="translate(360.8 472.97) rotate(70.863) scale(.08 -.08)">
<use xlink:href="#t"/>
</g>
</g>
<path d="m293.12 582.89v33.808q0 2.4 2.4 2.4h7.7425q2.4 0 2.4-2.4v-33.808q0-2.4-2.4-2.4h-7.7425q-2.4 0-2.4 2.4z" clip-path="url(#a)" fill="#fff" stroke="#fff"/>
<g clip-path="url(#a)">
<g transform="translate(297.19 582.89) rotate(90) scale(.08 -.08)">
<use xlink:href="#l"/>
<use x="44.083984" xlink:href="#d"/>
<use x="105.607422" xlink:href="#g"/>
<use x="144.970703" xlink:href="#j"/>
<use x="242.382812" xlink:href="#h"/>
<use x="270.166016" xlink:href="#f"/>
<use x="333.544922" xlink:href="#e"/>
<use x="394.824219" xlink:href="#k"/>
</g>
</g>
<path d="m334.64 582.89v33.808q0 2.4 2.4 2.4h7.7425q2.4 0 2.4-2.4v-33.808q0-2.4-2.4-2.4h-7.7425q-2.4 0-2.4 2.4z" clip-path="url(#a)" fill="#fff" stroke="#fff"/>
<g clip-path="url(#a)">
<g transform="translate(338.7 582.89) rotate(90) scale(.08 -.08)">
<use xlink:href="#l"/>
<use x="44.083984" xlink:href="#d"/>
<use x="105.607422" xlink:href="#g"/>
<use x="144.970703" xlink:href="#j"/>
<use x="242.382812" xlink:href="#h"/>
<use x="270.166016" xlink:href="#f"/>
<use x="333.544922" xlink:href="#e"/>
<use x="394.824219" xlink:href="#k"/>
</g>
</g>
<path d="m379.35 582.89v33.808q0 2.4 2.4 2.4h7.7425q2.4 0 2.4-2.4v-33.808q0-2.4-2.4-2.4h-7.7425q-2.4 0-2.4 2.4z" clip-path="url(#a)" fill="#fff" stroke="#fff"/>
<g clip-path="url(#a)">
<g transform="translate(383.41 582.89) rotate(90) scale(.08 -.08)">
<use xlink:href="#l"/>
<use x="44.083984" xlink:href="#d"/>
<use x="105.607422" xlink:href="#g"/>
<use x="144.970703" xlink:href="#j"/>
<use x="242.382812" xlink:href="#h"/>
<use x="270.166016" xlink:href="#f"/>
<use x="333.544922" xlink:href="#e"/>
<use x="394.824219" xlink:href="#k"/>
</g>
</g>
<path d="m91.93 582.89v33.808q0 2.4 2.4 2.4h7.7425q2.4 0 2.4-2.4v-33.808q0-2.4-2.4-2.4h-7.7425q-2.4 0-2.4 2.4z" clip-path="url(#a)" fill="#fff" stroke="#fff"/>
<g clip-path="url(#a)">
<g transform="translate(95.994 582.89) rotate(90) scale(.08 -.08)">
<use xlink:href="#l"/>
<use x="44.083984" xlink:href="#d"/>
<use x="105.607422" xlink:href="#g"/>
<use x="144.970703" xlink:href="#j"/>
<use x="242.382812" xlink:href="#h"/>
<use x="270.166016" xlink:href="#f"/>
<use x="333.544922" xlink:href="#e"/>
<use x="394.824219" xlink:href="#k"/>
</g>
</g>
<path d="m427.25 582.89v33.808q0 2.4 2.4 2.4h7.7425q2.4 0 2.4-2.4v-33.808q0-2.4-2.4-2.4h-7.7425q-2.4 0-2.4 2.4z" clip-path="url(#a)" fill="#fff" stroke="#fff"/>
<g clip-path="url(#a)">
<g transform="translate(431.31 582.89) rotate(90) scale(.08 -.08)">
<use xlink:href="#l"/>
<use x="44.083984" xlink:href="#d"/>
<use x="105.607422" xlink:href="#g"/>
<use x="144.970703" xlink:href="#j"/>
<use x="242.382812" xlink:href="#h"/>
<use x="270.166016" xlink:href="#f"/>
<use x="333.544922" xlink:href="#e"/>
<use x="394.824219" xlink:href="#k"/>
</g>
</g>
<path d="m1251.2 582.89v33.808q0 2.4 2.4 2.4h7.7425q2.4 0 2.4-2.4v-33.808q0-2.4-2.4-2.4h-7.7425q-2.4 0-2.4 2.4z" clip-path="url(#a)" fill="#fff" stroke="#fff"/>
<g clip-path="url(#a)">
<g transform="translate(1255.2 582.89) rotate(90) scale(.08 -.08)">
<use xlink:href="#l"/>
<use x="44.083984" xlink:href="#d"/>
<use x="105.607422" xlink:href="#g"/>
<use x="144.970703" xlink:href="#j"/>
<use x="242.382812" xlink:href="#h"/>
<use x="270.166016" xlink:href="#f"/>
<use x="333.544922" xlink:href="#e"/>
<use x="394.824219" xlink:href="#k"/>
</g>
</g>
<defs>
<path id="b" d="m0 8.6603c2.2967 0 4.4997-0.9125 6.1237-2.5365 1.624-1.624 2.5365-3.827 2.5365-6.1237s-0.9125-4.4997-2.5365-6.1237c-1.624-1.624-3.827-2.5365-6.1237-2.5365s-4.4997 0.9125-6.1237 2.5365c-1.624 1.624-2.5365 3.827-2.5365 6.1237s0.9125 4.4997 2.5365 6.1237c1.624 1.624 3.827 2.5365 6.1237 2.5365z"/>
</defs>
<g clip-path="url(#a)" fill="#ffffff" stroke="#ffffff">
<use x="59.878788" y="661.818182" xlink:href="#b"/>
<use x="69.459394" y="661.818182" xlink:href="#b"/>
<use x="82.233535" y="661.818182" xlink:href="#b"/>
<use x="98.201212" y="661.818182" xlink:href="#b"/>
<use x="117.362424" y="661.818182" xlink:href="#b"/>
<use x="139.717172" y="661.818182" xlink:href="#b"/>
<use x="165.265455" y="661.818182" xlink:href="#b"/>
<use x="194.007273" y="661.818182" xlink:href="#b"/>
<use x="225.942626" y="661.818182" xlink:href="#b"/>
<use x="261.071515" y="661.818182" xlink:href="#b"/>
<use x="299.393939" y="661.818182" xlink:href="#b"/>
<use x="340.909899" y="661.818182" xlink:href="#b"/>
<use x="385.619394" y="661.818182" xlink:href="#b"/>
<use x="433.522424" y="661.818182" xlink:href="#b"/>
<use x="484.61899" y="661.818182" xlink:href="#b"/>
<use x="538.909091" y="661.818182" xlink:href="#b"/>
<use x="596.392727" y="661.818182" xlink:href="#b"/>
<use x="657.069899" y="661.818182" xlink:href="#b"/>
<use x="720.940606" y="661.818182" xlink:href="#b"/>
<use x="788.004848" y="661.818182" xlink:href="#b"/>
<use x="858.262626" y="661.818182" xlink:href="#b"/>
<use x="931.713939" y="661.818182" xlink:href="#b"/>
<use x="1008.358788" y="661.818182" xlink:href="#b"/>
<use x="1088.197172" y="661.818182" xlink:href="#b"/>
<use x="1171.229091" y="661.818182" xlink:href="#b"/>
<use x="1257.454545" y="661.818182" xlink:href="#b"/>
<use x="454.679596" y="31.515152" xlink:href="#b"/>
<use x="168.725118" y="285.563287" xlink:href="#b"/>
<use x="484.61899" y="537.770204" xlink:href="#b"/>
<use x="731.851852" y="158.699688" xlink:href="#b"/>
<use x="538.909091" y="537.770204" xlink:href="#b"/>
<use x="596.392727" y="537.770204" xlink:href="#b"/>
<use x="657.069899" y="537.770204" xlink:href="#b"/>
<use x="754.472727" y="411.996581" xlink:href="#b"/>
<use x="1112.414815" y="285.563287" xlink:href="#b"/>
<use x="932.778451" y="411.996581" xlink:href="#b"/>
<use x="1088.197172" y="537.770204" xlink:href="#b"/>
<use x="1171.229091" y="537.770204" xlink:href="#b"/>
<use x="858.262626" y="537.770204" xlink:href="#b"/>
<use x="931.713939" y="537.770204" xlink:href="#b"/>
<use x="1008.358788" y="537.770204" xlink:href="#b"/>
<use x="720.940606" y="537.770204" xlink:href="#b"/>
<use x="788.004848" y="537.770204" xlink:href="#b"/>
<use x="70.523906" y="537.770204" xlink:href="#b"/>
<use x="117.362424" y="537.770204" xlink:href="#b"/>
<use x="166.862222" y="537.770204" xlink:href="#b"/>
<use x="217.426532" y="537.770204" xlink:href="#b"/>
<use x="341.974411" y="411.996581" xlink:href="#b"/>
<use x="299.393939" y="537.770204" xlink:href="#b"/>
<use x="340.909899" y="537.770204" xlink:href="#b"/>
<use x="385.619394" y="537.770204" xlink:href="#b"/>
<use x="98.201212" y="537.770204" xlink:href="#b"/>
<use x="433.522424" y="537.770204" xlink:href="#b"/>
<use x="1257.454545" y="537.770204" xlink:href="#b"/>
</g>
<g clip-path="url(#a)">
<defs>
<path id="p" d="m30.609 48.391q-7.2188 0-11.422-5.6406t-4.2031-15.453 4.1719-15.453q4.1875-5.6406 11.453-5.6406 7.1875 0 11.375 5.6562 4.2031 5.6719 4.2031 15.438 0 9.7188-4.2031 15.406-4.1875 5.6875-11.375 5.6875zm0 7.6094q11.719 0 18.406-7.625 6.7031-7.6094 6.7031-21.078 0-13.422-6.7031-21.078-6.6875-7.6406-18.406-7.6406-11.766 0-18.438 7.6406-6.6562 7.6562-6.6562 21.078 0 13.469 6.6562 21.078 6.6719 7.625 18.438 7.625z"/>
<path id="ac" d="m8.5 21.578v33.109h8.9844v-32.766q0-7.7656 3.0156-11.656 3.0312-3.875 9.0938-3.875 7.2656 0 11.484 4.6406 4.2344 4.6406 4.2344 12.656v31h8.9844v-54.688h-8.9844v8.4062q-3.2656-4.9844-7.5938-7.4062-4.3125-2.4219-10.031-2.4219-9.4219 0-14.312 5.8594-4.875 5.8594-4.875 17.141z"/>
</defs>
<g transform="translate(48.762 664.58) scale(.1 -.1)">
<use xlink:href="#ae"/>
<use x="56.677734" xlink:href="#p"/>
<use x="117.859375" xlink:href="#ac"/>
<use x="181.238281" xlink:href="#g"/>
</g>
</g>
<g clip-path="url(#a)">
<g transform="translate(58.361 664.58) scale(.1 -.1)">
<use xlink:href="#j"/>
<use x="97.412109" xlink:href="#p"/>
<use x="158.59375" xlink:href="#f"/>
</g>
</g>
<g clip-path="url(#a)">
<defs>
<path id="ad" d="m48.781 52.594v-8.4062q-3.8125 2.1094-7.6406 3.1562t-7.7344 1.0469q-8.75 0-13.594-5.5469-4.8281-5.5312-4.8281-15.547t4.8281-15.562q4.8438-5.5312 13.594-5.5312 3.9062 0 7.7344 1.0469t7.6406 3.1562v-8.3125q-3.7656-1.75-7.7969-2.625-4.0156-0.89062-8.5625-0.89062-12.359 0-19.641 7.7656-7.2656 7.7656-7.2656 20.953 0 13.375 7.3438 21.031 7.3594 7.6719 20.156 7.6719 4.1406 0 8.0938-0.85938 3.9531-0.84375 7.6719-2.5469z"/>
<path id="u" d="m18.109 8.2031v-29h-9.0312v75.484h9.0312v-8.2969q2.8438 4.875 7.1562 7.2344 4.3281 2.375 10.328 2.375 9.9688 0 16.188-7.9062 6.2344-7.9062 6.2344-20.797t-6.2344-20.812q-6.2188-7.9062-16.188-7.9062-6 0-10.328 2.375-4.3125 2.375-7.1562 7.25zm30.578 19.094q0 9.9062-4.0781 15.547t-11.203 5.6406q-7.1406 0-11.219-5.6406t-4.0781-15.547 4.0781-15.547 11.219-5.6406q7.125 0 11.203 5.6406t4.0781 15.547z"/>
<path id="o" d="m18.312 70.219v-15.531h18.5v-6.9844h-18.5v-29.688q0-6.6875 1.8281-8.5938t7.4531-1.9062h9.2188v-7.5156h-9.2188q-10.406 0-14.359 3.875-3.9531 3.8906-3.9531 14.141v29.688h-6.5938v6.9844h6.5938v15.531z"/>
</defs>
<g transform="translate(63.344 664.58) scale(.1 -.1)">
<use xlink:href="#ad"/>
<use x="54.980469" xlink:href="#p"/>
<use x="116.162109" xlink:href="#j"/>
<use x="213.574219" xlink:href="#u"/>
<use x="277.050781" xlink:href="#o"/>
<use x="316.259766" xlink:href="#d"/>
</g>
</g>
<g clip-path="url(#a)">
<defs>
<path id="ai" d="m11.719 12.406h10.297v-8.4062l-8-15.625h-6.2969l4 15.625z"/>
</defs>
<g transform="translate(96.612 664.58) scale(.1 -.1)">
<use xlink:href="#ai"/>
</g>
</g>
<g clip-path="url(#a)">
<defs>
<path id="al" d="m9.4219 54.688h8.9844v-55.672q0-10.438-3.9844-15.125-3.9688-4.6875-12.812-4.6875h-3.4219v7.6094h2.4062q5.125 0 6.9688 2.375 1.8594 2.3594 1.8594 9.8281zm0 21.297h8.9844v-11.391h-8.9844z"/>
</defs>
<g transform="translate(112.9 664.58) scale(.1 -.1)">
<use xlink:href="#al"/>
<use x="27.783203" xlink:href="#d"/>
</g>
</g>
<g clip-path="url(#a)">
<defs>
<path id="aj" d="m17.922 72.906v-27.109h-8.2969v27.109z"/>
</defs>
<g transform="translate(135.17 664.58) scale(.1 -.1)">
<use xlink:href="#f"/>
<use x="63.378906" xlink:href="#aj"/>
</g>
</g>
<g clip-path="url(#a)">
<defs>
<path id="as" d="m56.203 29.594v-4.3906h-41.312q0.59375-9.2812 5.5938-14.141t13.938-4.8594q5.1719 0 10.031 1.2656t9.6562 3.8125v-8.5q-4.8438-2.0469-9.9219-3.125t-10.297-1.0781q-13.094 0-20.734 7.6094-7.6406 7.625-7.6406 20.625 0 13.422 7.25 21.297 7.25 7.8906 19.562 7.8906 11.031 0 17.453-7.1094 6.4219-7.0938 6.4219-19.297zm-8.9844 2.6406q-0.09375 7.3594-4.125 11.75-4.0312 4.4062-10.672 4.4062-7.5156 0-12.031-4.25t-5.2031-11.969zm-8.6875 47.75h9.7188l-15.906-18.359h-7.4844z"/>
<path id="n" d="m44.281 53.078v-8.5q-3.7969 1.9531-7.9062 2.9219-4.0938 0.98438-8.5 0.98438-6.6875 0-10.031-2.0469t-3.3438-6.1562q0-3.125 2.3906-4.9062t9.625-3.3906l3.0781-0.6875q9.5625-2.0469 13.594-5.7812t4.0312-10.422q0-7.625-6.0312-12.078-6.0312-4.4375-16.578-4.4375-4.3906 0-9.1562 0.85938t-10.031 2.5625v9.2812q4.9844-2.5938 9.8125-3.8906 4.8281-1.2812 9.5781-1.2812 6.3438 0 9.75 2.1719 3.4219 2.1719 3.4219 6.125 0 3.6562-2.4688 5.6094-2.4531 1.9531-10.812 3.7656l-3.125 0.73438q-8.3438 1.75-12.062 5.3906-3.7031 3.6406-3.7031 9.9844 0 7.7188 5.4688 11.906 5.4688 4.2031 15.531 4.2031 4.9688 0 9.3594-0.73438 4.4062-0.71875 8.1094-2.1875z"/>
</defs>
<g transform="translate(153.17 664.58) scale(.1 -.1)">
<use xlink:href="#as"/>
<use x="61.523438" xlink:href="#o"/>
<use x="100.732422" xlink:href="#e"/>
<use x="162.011719" xlink:href="#h"/>
<use x="189.794922" xlink:href="#n"/>
</g>
</g>
<g clip-path="url(#a)">
<g transform="translate(185.16 664.58) scale(.1 -.1)">
<use xlink:href="#u"/>
<use x="63.476562" xlink:href="#e"/>
<use x="124.755859" xlink:href="#n"/>
</g>
</g>
<g clip-path="url(#a)">
<g transform="translate(219.7 664.58) scale(.1 -.1)">
<use xlink:href="#d"/>
<use x="61.523438" xlink:href="#f"/>
</g>
</g>
<g clip-path="url(#a)">
<g transform="translate(248.41 664.58) scale(.1 -.1)">
<use xlink:href="#g"/>
<use x="38.863281" xlink:href="#d"/>
<use x="100.386719" xlink:href="#n"/>
<use x="152.486328" xlink:href="#o"/>
<use x="191.695312" xlink:href="#d"/>
</g>
</g>
<g clip-path="url(#a)">
<defs>
<path id="ak" d="m2.9844 54.688h9.5156l17.094-45.891 17.094 45.891h9.5156l-20.516-54.688h-12.203z"/>
</defs>
<g transform="translate(287.54 664.58) scale(.1 -.1)">
<use xlink:href="#e"/>
<use x="61.279297" xlink:href="#ak"/>
<use x="120.458984" xlink:href="#d"/>
<use x="181.982422" xlink:href="#ad"/>
</g>
</g>
<g clip-path="url(#a)">
<g transform="translate(333.84 664.58) scale(.1 -.1)">
<use xlink:href="#k"/>
<use x="27.783203" xlink:href="#d"/>
<use x="89.306641" xlink:href="#n"/>
</g>
</g>
<g clip-path="url(#a)">
<g transform="translate(369.8 664.58) scale(.1 -.1)">
<use xlink:href="#e"/>
<use x="61.279297" xlink:href="#ac"/>
<use x="124.658203" xlink:href="#o"/>
<use x="163.867188" xlink:href="#g"/>
<use x="202.730469" xlink:href="#d"/>
<use x="264.253906" xlink:href="#n"/>
</g>
</g>
<g clip-path="url(#a)">
<g transform="translate(431.93 664.58) scale(.1 -.1)">
<use xlink:href="#ai"/>
</g>
</g>
<g clip-path="url(#a)">
<g transform="translate(479.58 664.58) scale(.1 -.1)">
<use xlink:href="#d"/>
<use x="61.523438" xlink:href="#o"/>
</g>
</g>
<g clip-path="url(#a)">
<g transform="translate(534.44 664.58) scale(.1 -.1)">
<use xlink:href="#al"/>
<use x="27.783203" xlink:href="#d"/>
</g>
</g>
<g clip-path="url(#a)">
<g transform="translate(590.15 664.58) scale(.1 -.1)">
<use xlink:href="#f"/>
<use x="63.378906" xlink:href="#d"/>
</g>
</g>
<g clip-path="url(#a)">
<g transform="translate(638.96 664.58) scale(.1 -.1)">
<use xlink:href="#k"/>
<use x="27.783203" xlink:href="#e"/>
<use x="89.0625" xlink:href="#h"/>
<use x="116.845703" xlink:href="#n"/>
<use x="168.945312" xlink:href="#n"/>
<use x="221.044922" xlink:href="#e"/>
<use x="282.324219" xlink:href="#h"/>
<use x="310.107422" xlink:href="#n"/>
</g>
</g>
<g clip-path="url(#a)">
<defs>
<path id="at" d="m34.281 27.484q-10.891 0-15.094-2.4844t-4.2031-8.5q0-4.7812 3.1562-7.5938 3.1562-2.7969 8.5625-2.7969 7.4844 0 12 5.2969t4.5156 14.078v2zm17.922 3.7188v-31.203h-8.9844v8.2969q-3.0781-4.9688-7.6719-7.3438t-11.234-2.375q-8.3906 0-13.359 4.7188-4.9531 4.7188-4.9531 12.625 0 9.2188 6.1719 13.906 6.1875 4.6875 18.438 4.6875h12.609v0.89062q0 6.2031-4.0781 9.5938t-11.453 3.3906q-4.6875 0-9.1406-1.125-4.4375-1.125-8.5312-3.375v8.3125q4.9219 1.9062 9.5625 2.8438 4.6406 0.95312 9.0312 0.95312 11.875 0 17.734-6.1562 5.8594-6.1406 5.8594-18.641zm-30.281 48.781 13.766-18.266h-7.4688l-15.922 18.266z"/>
</defs>
<g transform="translate(717.88 664.58) scale(.1 -.1)">
<use xlink:href="#at"/>
</g>
</g>
<g clip-path="url(#a)">
<g transform="translate(764.62 664.58) scale(.1 -.1)">
<use xlink:href="#u"/>
<use x="63.476562" xlink:href="#d"/>
<use x="125" xlink:href="#g"/>
<use x="166.113281" xlink:href="#n"/>
<use x="218.212891" xlink:href="#p"/>
<use x="279.394531" xlink:href="#f"/>
<use x="342.773438" xlink:href="#f"/>
<use x="406.152344" xlink:href="#d"/>
</g>
</g>
<g clip-path="url(#a)">
<g transform="translate(850.33 664.58) scale(.1 -.1)">
<use xlink:href="#j"/>
<use x="97.412109" xlink:href="#e"/>
</g>
</g>
<g clip-path="url(#a)">
<g transform="translate(921.46 664.58) scale(.1 -.1)">
<use xlink:href="#u"/>
<use x="63.476562" xlink:href="#e"/>
<use x="124.755859" xlink:href="#g"/>
<use x="165.869141" xlink:href="#o"/>
</g>
</g>
<g clip-path="url(#a)">
<defs>
<path id="am" d="m45.406 46.391v29.594h8.9844v-75.984h-8.9844v8.2031q-2.8281-4.875-7.1562-7.25-4.3125-2.375-10.375-2.375-9.9062 0-16.141 7.9062-6.2188 7.9219-6.2188 20.812t6.2188 20.797q6.2344 7.9062 16.141 7.9062 6.0625 0 10.375-2.375 4.3281-2.3594 7.1562-7.2344zm-30.609-19.094q0-9.9062 4.0781-15.547t11.203-5.6406 11.219 5.6406q4.1094 5.6406 4.1094 15.547t-4.1094 15.547q-4.0938 5.6406-11.219 5.6406t-11.203-5.6406-4.0781-15.547z"/>
</defs>
<g transform="translate(1003.8 664.58) scale(.1 -.1)">
<use xlink:href="#am"/>
<use x="63.476562" xlink:href="#aj"/>
</g>
</g>
<g clip-path="url(#a)">
<defs>
<path id="an" d="m48.688 27.297q0 9.9062-4.0781 15.547t-11.203 5.6406q-7.1406 0-11.219-5.6406t-4.0781-15.547 4.0781-15.547 11.219-5.6406q7.125 0 11.203 5.6406t4.0781 15.547zm-30.578 19.094q2.8438 4.875 7.1562 7.2344 4.3281 2.375 10.328 2.375 9.9688 0 16.188-7.9062 6.2344-7.9062 6.2344-20.797t-6.2344-20.812q-6.2188-7.9062-16.188-7.9062-6 0-10.328 2.375-4.3125 2.375-7.1562 7.25v-8.2031h-9.0312v75.984h9.0312z"/>
</defs>
<g transform="translate(1056 664.58) scale(.1 -.1)">
<use xlink:href="#p"/>
<use x="61.181641" xlink:href="#an"/>
<use x="124.658203" xlink:href="#n"/>
<use x="176.757812" xlink:href="#d"/>
<use x="238.28125" xlink:href="#g"/>
<use x="279.394531" xlink:href="#ak"/>
<use x="338.574219" xlink:href="#e"/>
<use x="399.853516" xlink:href="#o"/>
<use x="439.0625" xlink:href="#h"/>
<use x="466.845703" xlink:href="#p"/>
<use x="528.027344" xlink:href="#f"/>
<use x="591.40625" xlink:href="#n"/>
</g>
</g>
<g clip-path="url(#a)">
<defs>
<path id="au" d="m14.797 27.297q0-9.9062 4.0781-15.547t11.203-5.6406 11.219 5.6406q4.1094 5.6406 4.1094 15.547t-4.1094 15.547q-4.0938 5.6406-11.219 5.6406t-11.203-5.6406-4.0781-15.547zm30.609-19.094q-2.8281-4.875-7.1562-7.25-4.3125-2.375-10.375-2.375-9.9062 0-16.141 7.9062-6.2188 7.9219-6.2188 20.812t6.2188 20.797q6.2344 7.9062 16.141 7.9062 6.0625 0 10.375-2.375 4.3281-2.3594 7.1562-7.2344v8.2969h8.9844v-75.484h-8.9844z"/>
</defs>
<g transform="translate(1138.8 664.58) scale(.1 -.1)">
<use xlink:href="#au"/>
<use x="63.476562" xlink:href="#ac"/>
<use x="126.855469" xlink:href="#p"/>
<use x="188.037109" xlink:href="#o"/>
<use x="227.246094" xlink:href="#h"/>
<use x="255.029297" xlink:href="#am"/>
<use x="318.505859" xlink:href="#h"/>
<use x="346.289062" xlink:href="#d"/>
<use x="407.8125" xlink:href="#f"/>
<use x="471.191406" xlink:href="#f"/>
<use x="534.570312" xlink:href="#d"/>
<use x="596.09375" xlink:href="#n"/>
</g>
</g>
<g clip-path="url(#a)">
<defs>
<path id="i" d="m10.688 12.406h10.312v-12.406h-10.312z"/>
</defs>
<g transform="translate(1255.9 664.58) scale(.1 -.1)">
<use xlink:href="#i"/>
</g>
</g>
<g clip-path="url(#a)">
<defs>
<path id="c" d="m12.406 8.2969h16.109v55.625l-17.531-3.5156v8.9844l17.438 3.5156h9.8594v-64.609h16.109v-8.2969h-41.984z"/>
</defs>
<g transform="translate(446.73 34.275) scale(.1 -.1)">
<use xlink:href="#c"/>
<use x="63.623047" xlink:href="#i"/>
<use x="95.410156" xlink:href="#c"/>
</g>
</g>
<g clip-path="url(#a)">
<defs>
<path id="m" d="m19.188 8.2969h34.422v-8.2969h-46.281v8.2969q5.6094 5.8125 15.297 15.594 9.7031 9.7969 12.188 12.641 4.7344 5.3125 6.6094 9 1.8906 3.6875 1.8906 7.25 0 5.8125-4.0781 9.4688-4.0781 3.6719-10.625 3.6719-4.6406 0-9.7969-1.6094-5.1406-1.6094-11-4.8906v9.9688q5.9531 2.3906 11.125 3.6094 5.1875 1.2188 9.4844 1.2188 11.328 0 18.062-5.6719 6.7344-5.6562 6.7344-15.125 0-4.5-1.6875-8.5312-1.6719-4.0156-6.125-9.4844-1.2188-1.4219-7.7656-8.1875-6.5312-6.7656-18.453-18.922z"/>
</defs>
<g transform="translate(160.77 288.32) scale(.1 -.1)">
<use xlink:href="#c"/>
<use x="63.623047" xlink:href="#i"/>
<use x="95.410156" xlink:href="#m"/>
</g>
</g>
<g clip-path="url(#a)">
<defs>
<path id="r" d="m40.578 39.312q7.0781-1.5156 11.047-6.3125 3.9844-4.7812 3.9844-11.812 0-10.781-7.4219-16.703-7.4219-5.9062-21.094-5.9062-4.5781 0-9.4375 0.90625t-10.031 2.7188v9.5156q4.0938-2.3906 8.9688-3.6094 4.8906-1.2188 10.219-1.2188 9.2656 0 14.125 3.6562t4.8594 10.641q0 6.4531-4.5156 10.078-4.5156 3.6406-12.562 3.6406h-8.5v8.1094h8.8906q7.2656 0 11.125 2.9062t3.8594 8.375q0 5.6094-3.9844 8.6094-3.9688 3.0156-11.391 3.0156-4.0625 0-8.7031-0.89062-4.6406-0.875-10.203-2.7188v8.7812q5.625 1.5625 10.531 2.3438t9.25 0.78125q11.234 0 17.766-5.1094 6.5469-5.0938 6.5469-13.781 0-6.0625-3.4688-10.234t-9.8594-5.7812z"/>
</defs>
<g transform="translate(476.67 540.53) scale(.1 -.1)">
<use xlink:href="#c"/>
<use x="63.623047" xlink:href="#i"/>
<use x="95.410156" xlink:href="#r"/>
</g>
</g>
<g clip-path="url(#a)">
<defs>
<path id="aa" d="m37.797 64.312-24.906-38.922h24.906zm-2.5938 8.5938h12.406v-47.516h10.406v-8.2031h-10.406v-17.188h-9.8125v17.188h-32.906v9.5156z"/>
</defs>
<g transform="translate(723.9 161.46) scale(.1 -.1)">
<use xlink:href="#c"/>
<use x="63.623047" xlink:href="#i"/>
<use x="95.410156" xlink:href="#aa"/>
</g>
</g>
<g clip-path="url(#a)">
<defs>
<path id="z" d="m8.2031 72.906h46.875v-4.2031l-26.469-68.703h-10.297l24.906 64.594h-35.016z"/>
</defs>
<g transform="translate(530.96 540.53) scale(.1 -.1)">
<use xlink:href="#c"/>
<use x="63.623047" xlink:href="#i"/>
<use x="95.410156" xlink:href="#z"/>
</g>
</g>
<g clip-path="url(#a)">
<defs>
<path id="y" d="m31.781 34.625q-7.0312 0-11.062-3.7656-4.0156-3.7656-4.0156-10.344 0-6.5938 4.0156-10.359 4.0312-3.7656 11.062-3.7656t11.078 3.7812q4.0625 3.7969 4.0625 10.344 0 6.5781-4.0312 10.344-4.0156 3.7656-11.109 3.7656zm-9.8594 4.1875q-6.3438 1.5625-9.8906 5.9062-3.5312 4.3594-3.5312 10.609 0 8.7344 6.2188 13.812 6.2344 5.0781 17.062 5.0781 10.891 0 17.094-5.0781t6.2031-13.812q0-6.25-3.5469-10.609-3.5312-4.3438-9.8281-5.9062 7.125-1.6562 11.094-6.5 3.9844-4.8281 3.9844-11.797 0-10.609-6.4688-16.281-6.4688-5.6562-18.531-5.6562-12.047 0-18.531 5.6562-6.4688 5.6719-6.4688 16.281 0 6.9688 4 11.797 4.0156 4.8438 11.141 6.5zm-3.6094 15.578q0-5.6562 3.5312-8.8281 3.5469-3.1719 9.9375-3.1719 6.3594 0 9.9375 3.1719 3.5938 3.1719 3.5938 8.8281 0 5.6719-3.5938 8.8438-3.5781 3.1719-9.9375 3.1719-6.3906 0-9.9375-3.1719-3.5312-3.1719-3.5312-8.8438z"/>
</defs>
<g transform="translate(588.44 540.53) scale(.1 -.1)">
<use xlink:href="#c"/>
<use x="63.623047" xlink:href="#i"/>
<use x="95.410156" xlink:href="#y"/>
</g>
</g>
<g clip-path="url(#a)">
<defs>
<path id="x" d="m10.984 1.5156v8.9844q3.7188-1.7656 7.5156-2.6875 3.8125-0.92188 7.4844-0.92188 9.7656 0 14.906 6.5625 5.1562 6.5625 5.8906 19.953-2.8281-4.2031-7.1875-6.4531-4.3438-2.25-9.6094-2.25-10.938 0-17.312 6.6094-6.375 6.625-6.375 18.109 0 11.219 6.6406 18 6.6406 6.7969 17.672 6.7969 12.656 0 19.312-9.7031 6.6719-9.6875 6.6719-28.141 0-17.234-8.1875-27.516-8.1719-10.281-21.984-10.281-3.7188 0-7.5312 0.73438-3.7969 0.73438-7.9062 2.2031zm19.625 30.906q6.6406 0 10.516 4.5312 3.8906 4.5469 3.8906 12.469 0 7.8594-3.8906 12.422-3.875 4.5625-10.516 4.5625t-10.516-4.5625-3.875-12.422q0-7.9219 3.875-12.469 3.875-4.5312 10.516-4.5312z"/>
</defs>
<g transform="translate(649.12 540.53) scale(.1 -.1)">
<use xlink:href="#c"/>
<use x="63.623047" xlink:href="#i"/>
<use x="95.410156" xlink:href="#x"/>
</g>
</g>
<g clip-path="url(#a)">
<defs>
<path id="ab" d="m31.781 66.406q-7.6094 0-11.453-7.5-3.8281-7.4844-3.8281-22.531 0-14.984 3.8281-22.484 3.8438-7.5 11.453-7.5 7.6719 0 11.5 7.5 3.8438 7.5 3.8438 22.484 0 15.047-3.8438 22.531-3.8281 7.5-11.5 7.5zm0 7.8125q12.266 0 18.734-9.7031 6.4688-9.6875 6.4688-28.141 0-18.406-6.4688-28.109-6.4688-9.6875-18.734-9.6875-12.25 0-18.719 9.6875-6.4688 9.7031-6.4688 28.109 0 18.453 6.4688 28.141 6.4688 9.7031 18.719 9.7031z"/>
</defs>
<g transform="translate(743.34 414.76) scale(.1 -.1)">
<use xlink:href="#c"/>
<use x="63.623047" xlink:href="#i"/>
<use x="95.410156" xlink:href="#c"/>
<use x="159.033203" xlink:href="#ab"/>
</g>
</g>
<g clip-path="url(#a)">
<g transform="translate(1101.3 288.32) scale(.1 -.1)">
<use xlink:href="#c"/>
<use x="63.623047" xlink:href="#i"/>
<use x="95.410156" xlink:href="#c"/>
<use x="159.033203" xlink:href="#c"/>
</g>
</g>
<g clip-path="url(#a)">
<g transform="translate(921.65 414.76) scale(.1 -.1)">
<use xlink:href="#c"/>
<use x="63.623047" xlink:href="#i"/>
<use x="95.410156" xlink:href="#c"/>
<use x="159.033203" xlink:href="#m"/>
</g>
</g>
<g clip-path="url(#a)">
<g transform="translate(1077.1 540.53) scale(.1 -.1)">
<use xlink:href="#c"/>
<use x="63.623047" xlink:href="#i"/>
<use x="95.410156" xlink:href="#c"/>
<use x="159.033203" xlink:href="#r"/>
</g>
</g>
<g clip-path="url(#a)">
<g transform="translate(1160.1 540.53) scale(.1 -.1)">
<use xlink:href="#c"/>
<use x="63.623047" xlink:href="#i"/>
<use x="95.410156" xlink:href="#c"/>
<use x="159.033203" xlink:href="#aa"/>
</g>
</g>
<g clip-path="url(#a)">
<defs>
<path id="ar" d="m10.797 72.906h38.719v-8.3125h-29.688v-17.859q2.1406 0.73438 4.2812 1.0938 2.1562 0.35938 4.3125 0.35938 12.203 0 19.328-6.6875 7.1406-6.6875 7.1406-18.109 0-11.766-7.3281-18.297-7.3281-6.5156-20.656-6.5156-4.5938 0-9.3594 0.78125-4.75 0.78125-9.8281 2.3438v9.9219q4.3906-2.3906 9.0781-3.5625t9.9062-1.1719q8.4531 0 13.375 4.4375 4.9375 4.4375 4.9375 12.062 0 7.6094-4.9375 12.047-4.9219 4.4531-13.375 4.4531-3.9531 0-7.8906-0.875-3.9219-0.875-8.0156-2.7344z"/>
</defs>
<g transform="translate(847.13 540.53) scale(.1 -.1)">
<use xlink:href="#c"/>
<use x="63.623047" xlink:href="#i"/>
<use x="95.410156" xlink:href="#c"/>
<use x="159.033203" xlink:href="#ar"/>
</g>
</g>
<g clip-path="url(#a)">
<defs>
<path id="ah" d="m33.016 40.375q-6.6406 0-10.531-4.5469-3.875-4.5312-3.875-12.438 0-7.8594 3.875-12.438 3.8906-4.5625 10.531-4.5625t10.516 4.5625q3.875 4.5781 3.875 12.438 0 7.9062-3.875 12.438-3.875 4.5469-10.516 4.5469zm19.578 30.922v-8.9844q-3.7188 1.75-7.5 2.6719-3.7812 0.9375-7.5 0.9375-9.7656 0-14.922-6.5938-5.1406-6.5938-5.875-19.922 2.875 4.25 7.2188 6.5156 4.3594 2.2656 9.5781 2.2656 10.984 0 17.359-6.6719 6.375-6.6562 6.375-18.125 0-11.234-6.6406-18.031-6.6406-6.7812-17.672-6.7812-12.656 0-19.344 9.6875-6.6875 9.7031-6.6875 28.109 0 17.281 8.2031 27.562t22.016 10.281q3.7188 0 7.5-0.73438t7.8906-2.1875z"/>
</defs>
<g transform="translate(920.58 540.53) scale(.1 -.1)">
<use xlink:href="#c"/>
<use x="63.623047" xlink:href="#i"/>
<use x="95.410156" xlink:href="#c"/>
<use x="159.033203" xlink:href="#ah"/>
</g>
</g>
<g clip-path="url(#a)">
<g transform="translate(997.23 540.53) scale(.1 -.1)">
<use xlink:href="#c"/>
<use x="63.623047" xlink:href="#i"/>
<use x="95.410156" xlink:href="#c"/>
<use x="159.033203" xlink:href="#z"/>
</g>
</g>
<g clip-path="url(#a)">
<g transform="translate(709.81 540.53) scale(.1 -.1)">
<use xlink:href="#c"/>
<use x="63.623047" xlink:href="#i"/>
<use x="95.410156" xlink:href="#c"/>
<use x="159.033203" xlink:href="#y"/>
</g>
</g>
<g clip-path="url(#a)">
<g transform="translate(776.87 540.53) scale(.1 -.1)">
<use xlink:href="#c"/>
<use x="63.623047" xlink:href="#i"/>
<use x="95.410156" xlink:href="#c"/>
<use x="159.033203" xlink:href="#x"/>
</g>
</g>
<g clip-path="url(#a)">
<g transform="translate(59.391 540.53) scale(.1 -.1)">
<use xlink:href="#c"/>
<use x="63.623047" xlink:href="#i"/>
<use x="95.410156" xlink:href="#m"/>
<use x="159.033203" xlink:href="#ab"/>
</g>
</g>
<g clip-path="url(#a)">
<g transform="translate(106.23 540.53) scale(.1 -.1)">
<use xlink:href="#c"/>
<use x="63.623047" xlink:href="#i"/>
<use x="95.410156" xlink:href="#m"/>
<use x="159.033203" xlink:href="#c"/>
</g>
</g>
<g clip-path="url(#a)">
<g transform="translate(155.73 540.53) scale(.1 -.1)">
<use xlink:href="#c"/>
<use x="63.623047" xlink:href="#i"/>
<use x="95.410156" xlink:href="#m"/>
<use x="159.033203" xlink:href="#m"/>
</g>
</g>
<g clip-path="url(#a)">
<g transform="translate(206.29 540.53) scale(.1 -.1)">
<use xlink:href="#c"/>
<use x="63.623047" xlink:href="#i"/>
<use x="95.410156" xlink:href="#m"/>
<use x="159.033203" xlink:href="#r"/>
</g>
</g>
<g clip-path="url(#a)">
<g transform="translate(330.84 414.76) scale(.1 -.1)">
<use xlink:href="#c"/>
<use x="63.623047" xlink:href="#i"/>
<use x="95.410156" xlink:href="#m"/>
<use x="159.033203" xlink:href="#aa"/>
</g>
</g>
<g clip-path="url(#a)">
<g transform="translate(288.26 540.53) scale(.1 -.1)">
<use xlink:href="#c"/>
<use x="63.623047" xlink:href="#i"/>
<use x="95.410156" xlink:href="#m"/>
<use x="159.033203" xlink:href="#ah"/>
</g>
</g>
<g clip-path="url(#a)">
<g transform="translate(329.78 540.53) scale(.1 -.1)">
<use xlink:href="#c"/>
<use x="63.623047" xlink:href="#i"/>
<use x="95.410156" xlink:href="#m"/>
<use x="159.033203" xlink:href="#z"/>
</g>
</g>
<g clip-path="url(#a)">
<g transform="translate(374.49 540.53) scale(.1 -.1)">
<use xlink:href="#c"/>
<use x="63.623047" xlink:href="#i"/>
<use x="95.410156" xlink:href="#m"/>
<use x="159.033203" xlink:href="#y"/>
</g>
</g>
<g clip-path="url(#a)">
<g transform="translate(87.068 540.53) scale(.1 -.1)">
<use xlink:href="#c"/>
<use x="63.623047" xlink:href="#i"/>
<use x="95.410156" xlink:href="#m"/>
<use x="159.033203" xlink:href="#x"/>
</g>
</g>
<g clip-path="url(#a)">
<g transform="translate(422.39 540.53) scale(.1 -.1)">
<use xlink:href="#c"/>
<use x="63.623047" xlink:href="#i"/>
<use x="95.410156" xlink:href="#r"/>
<use x="159.033203" xlink:href="#ab"/>
</g>
</g>
<g clip-path="url(#a)">
<g transform="translate(1246.3 540.53) scale(.1 -.1)">
<use xlink:href="#c"/>
<use x="63.623047" xlink:href="#i"/>
<use x="95.410156" xlink:href="#r"/>
<use x="159.033203" xlink:href="#c"/>
</g>
</g>
<defs>
<clipPath id="a">
<rect width="1317.3" height="693.33"/>
</clipPath>
</defs>
</svg>
