<?xml version="1.0" encoding="UTF-8"?>
<!DOCTYPE svg  PUBLIC '-//W3C//DTD SVG 1.1//EN'  'http://www.w3.org/Graphics/SVG/1.1/DTD/svg11.dtd'>
<svg width="1520pt" height="800pt" version="1.1" viewBox="0 0 1520 800" xmlns="http://www.w3.org/2000/svg" xmlns:xlink="http://www.w3.org/1999/xlink">
<defs>
<style type="text/css">*{stroke-linecap:butt;stroke-linejoin:round;}</style>
</defs>
<path d="m0 800h1520v-800h-1520z" fill="#fff"/>
<g fill="none" stroke="#000">
<path d="m220.82 37.033v98.522" clip-path="url(#a)"/>
<path d="m220.82 135.55-106.98 455.57" clip-path="url(#a)"/>
<path d="m220.82 135.55-106.98 541.49" clip-path="url(#a)"/>
<path d="m220.82 135.55 213.96 95.703" clip-path="url(#a)"/>
<path d="m113.84 591.12-44.563 85.923" clip-path="url(#a)"/>
<path d="m113.84 591.12 44.563 85.923" clip-path="url(#a)"/>
<path d="m113.84 677.04v85.923" clip-path="url(#a)"/>
<path d="m434.78 231.26-231.82 445.79" clip-path="url(#a)"/>
<path d="m434.78 231.26-187.25 445.79" clip-path="url(#a)"/>
<path d="m434.78 231.26 228.67 359.86" clip-path="url(#a)"/>
<path d="m434.78 231.26 288.53 93.131" clip-path="url(#a)"/>
<path d="m434.78 231.26-98.128 445.79" clip-path="url(#a)"/>
<path d="m202.96 677.04v85.923" clip-path="url(#a)"/>
<path d="m247.53 677.04v85.923" clip-path="url(#a)"/>
<path d="m663.45 591.12-415.92 85.923" clip-path="url(#a)" stroke-dasharray="3.7,1.6"/>
<path d="m663.45 591.12 787.28 171.85" clip-path="url(#a)"/>
<path d="m663.45 591.12-371.36 85.923" clip-path="url(#a)"/>
<path d="m723.31 324.39-342.1 352.66" clip-path="url(#a)"/>
<path d="m723.31 324.39-180.18 90.819" clip-path="url(#a)"/>
<path d="m723.31 324.39 103.53 352.66" clip-path="url(#a)"/>
<path d="m723.31 324.39 359.77 90.819" clip-path="url(#a)"/>
<path d="m723.31 324.39 58.972 352.66" clip-path="url(#a)"/>
<path d="m381.21 677.04v85.923" clip-path="url(#a)"/>
<path d="m543.13 415.21-117.35 261.84" clip-path="url(#a)"/>
<path d="m543.13 415.21-72.786 261.84" clip-path="url(#a)"/>
<path d="m543.13 415.21 190.14 88.796" clip-path="url(#a)"/>
<path d="m826.84 677.04v85.923" clip-path="url(#a)"/>
<path d="m1083.1 415.21-139.26 88.796" clip-path="url(#a)"/>
<path d="m1083.1 415.21 11.141 261.84" clip-path="url(#a)"/>
<path d="m1083.1 415.21 128.12 88.796" clip-path="url(#a)"/>
<path d="m943.82 504-72.415 173.04" clip-path="url(#a)"/>
<path d="m943.82 504-27.852 173.04" clip-path="url(#a)"/>
<path d="m943.82 504 16.711 173.04" clip-path="url(#a)"/>
<path d="m943.82 504 83.556 87.118" clip-path="url(#a)"/>
<path d="m1094.2 677.04v85.923" clip-path="url(#a)"/>
<path d="m1211.2 504-72.415 173.04" clip-path="url(#a)"/>
<path d="m1211.2 504-27.852 173.04" clip-path="url(#a)"/>
<path d="m1211.2 504-5.5704 87.118" clip-path="url(#a)"/>
<path d="m1211.2 504 105.84 87.118" clip-path="url(#a)"/>
<path d="m1138.8 677.04v85.923" clip-path="url(#a)"/>
<path d="m1183.3 677.04v85.923" clip-path="url(#a)"/>
<path d="m1205.6 591.12-22.281 85.923" clip-path="url(#a)" stroke-dasharray="3.7,1.6"/>
<path d="m1205.6 591.12 22.281 85.923" clip-path="url(#a)"/>
<path d="m1317 591.12-44.563 85.923" clip-path="url(#a)"/>
<path d="m1317 591.12v85.923" clip-path="url(#a)"/>
<path d="m1317 591.12 44.563 85.923" clip-path="url(#a)"/>
<path d="m1272.5 677.04v85.923" clip-path="url(#a)"/>
<path d="m1317 677.04v85.923" clip-path="url(#a)"/>
<path d="m1227.9 677.04v85.923" clip-path="url(#a)"/>
<path d="m871.41 677.04v85.923" clip-path="url(#a)"/>
<path d="m915.97 677.04v85.923" clip-path="url(#a)"/>
<path d="m960.53 677.04v85.923" clip-path="url(#a)"/>
<path d="m1027.4 591.12-22.281 85.923" clip-path="url(#a)"/>
<path d="m1027.4 591.12 22.281 85.923" clip-path="url(#a)"/>
<path d="m1005.1 677.04v85.923" clip-path="url(#a)"/>
<path d="m1049.7 677.04v85.923" clip-path="url(#a)"/>
<path d="m425.78 677.04v85.923" clip-path="url(#a)"/>
<path d="m470.34 677.04v85.923" clip-path="url(#a)"/>
<path d="m733.26 504-262.92 173.04" clip-path="url(#a)" stroke-dasharray="3.7,1.6"/>
<path d="m733.26 504 672.9 258.96" clip-path="url(#a)"/>
<path d="m733.26 504-218.36 173.04" clip-path="url(#a)"/>
<path d="m733.26 504-151.51 87.118" clip-path="url(#a)"/>
<path d="m733.26 504-40.107 87.118" clip-path="url(#a)"/>
<path d="m514.9 677.04v85.923" clip-path="url(#a)"/>
<path d="m581.75 591.12-22.281 85.923" clip-path="url(#a)"/>
<path d="m581.75 591.12 22.281 85.923" clip-path="url(#a)"/>
<path d="m693.16 591.12-44.563 85.923" clip-path="url(#a)"/>
<path d="m693.16 591.12v85.923" clip-path="url(#a)"/>
<path d="m693.16 591.12 44.563 85.923" clip-path="url(#a)"/>
<path d="m648.59 677.04v85.923" clip-path="url(#a)"/>
<path d="m693.16 677.04v85.923" clip-path="url(#a)"/>
<path d="m737.72 677.04v85.923" clip-path="url(#a)"/>
<path d="m559.47 677.04v85.923" clip-path="url(#a)"/>
<path d="m604.03 677.04v85.923" clip-path="url(#a)"/>
<path d="m292.09 677.04v85.923" clip-path="url(#a)"/>
<path d="m69.274 677.04v85.923" clip-path="url(#a)"/>
<path d="m158.4 677.04v85.923" clip-path="url(#a)"/>
<path d="m336.65 677.04v85.923" clip-path="url(#a)"/>
<path d="m782.28 677.04v85.923" clip-path="url(#a)"/>
<path d="m1361.6 677.04v85.923" clip-path="url(#a)"/>
</g>
<path d="m214.55 83.286v6.0162q0 2.4 2.4 2.4h7.7425q2.4 0 2.4-2.4v-6.0162q0-2.4-2.4-2.4h-7.7425q-2.4 0-2.4 2.4z" clip-path="url(#a)" fill="#fff" stroke="#fff"/>
<g clip-path="url(#a)">
<defs>
<path id="au" d="m9.8125 72.906h9.8594v-29.891h35.844v29.891h9.8594v-72.906h-9.8594v34.719h-35.844v-34.719h-9.8594z"/>
</defs>
<g transform="translate(218.61 83.286) rotate(90) scale(.08 -.08)">
<use xlink:href="#au"/>
</g>
</g>
<path d="m172.81 367.44 1.2511-5.3276q0.54867-2.3364-1.7878-2.8851l-7.5375-1.77q-2.3364-0.54867-2.8851 1.7878l-1.2511 5.3276q-0.54867 2.3364 1.7878 2.8851l7.5375 1.77q2.3364 0.54867 2.8851-1.7878z" clip-path="url(#a)" fill="#fff" stroke="#fff"/>
<g clip-path="url(#a)">
<defs>
<path id="v" d="m34.188 63.188-13.391-36.281h26.812zm-5.5781 9.7188h11.188l27.781-72.906h-10.25l-6.6406 18.703h-32.859l-6.6406-18.703h-10.406z"/>
</defs>
<g transform="translate(168.85 366.51) rotate(-76.785) scale(.08 -.08)">
<use xlink:href="#v"/>
</g>
</g>
<path d="m173.01 409.88 0.93495-4.7323q0.46517-2.3545-1.8893-2.8197l-7.5957-1.5007q-2.3545-0.46517-2.8197 1.8893l-0.93495 4.7323q-0.46517 2.3545 1.8893 2.8197l7.5957 1.5007q2.3545 0.46517 2.8197-1.8893z" clip-path="url(#a)" fill="#fff" stroke="#fff"/>
<g clip-path="url(#a)">
<defs>
<path id="w" d="m19.672 64.797v-27.391h12.406q6.8906 0 10.641 3.5625 3.7656 3.5625 3.7656 10.156 0 6.5469-3.7656 10.109-3.75 3.5625-10.641 3.5625zm-9.8594 8.1094h22.266q12.266 0 18.531-5.5469 6.2812-5.5469 6.2812-16.234 0-10.797-6.2812-16.312-6.2656-5.5156-18.531-5.5156h-12.406v-29.297h-9.8594z"/>
</defs>
<g transform="translate(169.03 409.09) rotate(-78.824) scale(.08 -.08)">
<use xlink:href="#w"/>
</g>
</g>
<path d="m322.74 188.01 4.9955 2.2345q2.1908 0.97993 3.1708-1.2109l3.1613-7.0677q0.97994-2.1908-1.2109-3.1708l-4.9955-2.2345q-2.1908-0.97993-3.1708 1.2109l-3.1613 7.0677q-0.97993 2.1908 1.2109 3.1708z" clip-path="url(#a)" fill="#fff" stroke="#fff"/>
<g clip-path="url(#a)">
<g transform="translate(324.4 184.3) rotate(24.098) scale(.08 -.08)">
<use xlink:href="#v"/>
</g>
</g>
<path d="m95.836 639.45 2.5719-4.959q1.105-2.1305-1.0255-3.2355l-6.8731-3.5647q-2.1305-1.105-3.2355 1.0255l-2.5719 4.959q-1.105 2.1305 1.0255 3.2355l6.8731 3.5647q2.1305 1.105 3.2355-1.0255z" clip-path="url(#a)" fill="#fff" stroke="#fff"/>
<g clip-path="url(#a)">
<defs>
<path id="n" d="m64.406 67.281v-10.391q-4.9844 4.6406-10.625 6.9219-5.6406 2.2969-11.984 2.2969-12.5 0-19.141-7.6406t-6.6406-22.094q0-14.406 6.6406-22.047t19.141-7.6406q6.3438 0 11.984 2.2969t10.625 6.9375v-10.312q-5.1719-3.5156-10.969-5.2812-5.7812-1.75-12.219-1.75-16.562 0-26.094 10.125-9.5156 10.141-9.5156 27.672 0 17.578 9.5156 27.703 9.5312 10.141 26.094 10.141 6.5312 0 12.312-1.7344 5.7969-1.7344 10.875-5.2031z"/>
</defs>
<g transform="translate(92.229 637.58) rotate(-62.587) scale(.08 -.08)">
<use xlink:href="#n"/>
</g>
</g>
<path d="m129.39 634.73 2.3273 4.4874q1.105 2.1305 3.2355 1.0255l6.8731-3.5647q2.1305-1.105 1.0255-3.2355l-2.3273-4.4874q-1.105-2.1305-3.2355-1.0255l-6.8731 3.5647q-2.1305 1.105-1.0255 3.2355z" clip-path="url(#a)" fill="#fff" stroke="#fff"/>
<g clip-path="url(#a)">
<defs>
<path id="r" d="m9.8125 72.906h46.094v-8.3125h-36.234v-21.578h34.719v-8.2969h-34.719v-26.422h37.109v-8.2969h-46.969z"/>
</defs>
<g transform="translate(132.99 632.86) rotate(62.587) scale(.08 -.08)">
<use xlink:href="#r"/>
</g>
</g>
<path d="m107.57 702.36v35.285q0 2.4 2.4 2.4h7.7425q2.4 0 2.4-2.4v-35.285q0-2.4-2.4-2.4h-7.7425q-2.4 0-2.4 2.4z" clip-path="url(#a)" fill="#fff" stroke="#fff"/>
<g clip-path="url(#a)">
<defs>
<path id="k" d="m-0.29688 72.906h61.672v-8.3125h-25.875v-64.594h-9.9062v64.594h-25.891z"/>
<path id="d" d="m56.203 29.594v-4.3906h-41.312q0.59375-9.2812 5.5938-14.141t13.938-4.8594q5.1719 0 10.031 1.2656t9.6562 3.8125v-8.5q-4.8438-2.0469-9.9219-3.125t-10.297-1.0781q-13.094 0-20.734 7.6094-7.6406 7.625-7.6406 20.625 0 13.422 7.25 21.297 7.25 7.8906 19.562 7.8906 11.031 0 17.453-7.1094 6.4219-7.0938 6.4219-19.297zm-8.9844 2.6406q-0.09375 7.3594-4.125 11.75-4.0312 4.4062-10.672 4.4062-7.5156 0-12.031-4.25t-5.2031-11.969z"/>
<path id="j" d="m41.109 46.297q-1.5156 0.875-3.2969 1.2812-1.7812 0.42188-3.9219 0.42188-7.625 0-11.703-4.9531t-4.0781-14.234v-28.812h-9.0312v54.688h9.0312v-8.5q2.8438 4.9844 7.375 7.3906 4.5469 2.4219 11.047 2.4219 0.92188 0 2.0469-0.125 1.125-0.10938 2.4844-0.35938z"/>
<path id="l" d="m52 44.188q3.375 6.0625 8.0625 8.9375t11.031 2.875q8.5469 0 13.188-5.9844 4.6406-5.9688 4.6406-17v-33.016h-9.0312v32.719q0 7.8594-2.7969 11.656-2.7812 3.8125-8.4844 3.8125-6.9844 0-11.047-4.6406-4.0469-4.625-4.0469-12.641v-30.906h-9.0312v32.719q0 7.9062-2.7812 11.688t-8.5938 3.7812q-6.8906 0-10.953-4.6562-4.0469-4.6562-4.0469-12.625v-30.906h-9.0312v54.688h9.0312v-8.5q3.0781 5.0312 7.375 7.4219t10.203 2.3906q5.9688 0 10.141-3.0312 4.1719-3.0156 6.1719-8.7812z"/>
<path id="i" d="m9.4219 54.688h8.9844v-54.688h-8.9844zm0 21.297h8.9844v-11.391h-8.9844z"/>
<path id="h" d="m54.891 33.016v-33.016h-8.9844v32.719q0 7.7656-3.0312 11.609-3.0312 3.8594-9.0781 3.8594-7.2812 0-11.484-4.6406-4.2031-4.625-4.2031-12.641v-30.906h-9.0312v54.688h9.0312v-8.5q3.2344 4.9375 7.5938 7.375 4.375 2.4375 10.094 2.4375 9.4219 0 14.25-5.8281 4.8438-5.8281 4.8438-17.156z"/>
<path id="g" d="m34.281 27.484q-10.891 0-15.094-2.4844t-4.2031-8.5q0-4.7812 3.1562-7.5938 3.1562-2.7969 8.5625-2.7969 7.4844 0 12 5.2969t4.5156 14.078v2zm17.922 3.7188v-31.203h-8.9844v8.2969q-3.0781-4.9688-7.6719-7.3438t-11.234-2.375q-8.3906 0-13.359 4.7188-4.9531 4.7188-4.9531 12.625 0 9.2188 6.1719 13.906 6.1875 4.6875 18.438 4.6875h12.609v0.89062q0 6.2031-4.0781 9.5938t-11.453 3.3906q-4.6875 0-9.1406-1.125-4.4375-1.125-8.5312-3.375v8.3125q4.9219 1.9062 9.5625 2.8438 4.6406 0.95312 9.0312 0.95312 11.875 0 17.734-6.1562 5.8594-6.1406 5.8594-18.641z"/>
<path id="f" d="m9.4219 75.984h8.9844v-75.984h-8.9844z"/>
</defs>
<g transform="translate(111.63 702.36) rotate(90) scale(.08 -.08)">
<use xlink:href="#k"/>
<use x="60.818359" xlink:href="#d"/>
<use x="122.341797" xlink:href="#j"/>
<use x="163.439453" xlink:href="#l"/>
<use x="260.851562" xlink:href="#i"/>
<use x="288.634766" xlink:href="#h"/>
<use x="352.013672" xlink:href="#g"/>
<use x="413.292969" xlink:href="#f"/>
</g>
</g>
<path d="m323.27 459.29 2.3322-4.4848q1.1073-2.1293-1.022-3.2366l-6.8692-3.5721q-2.1293-1.1073-3.2366 1.022l-2.3322 4.4848q-1.1073 2.1293 1.022 3.2366l6.8692 3.5721q2.1293 1.1073 3.2366-1.022z" clip-path="url(#a)" fill="#fff" stroke="#fff"/>
<g clip-path="url(#a)">
<g transform="translate(319.66 457.41) rotate(-62.525) scale(.08 -.08)">
<use xlink:href="#r"/>
</g>
</g>
<path d="m345.85 459.15 2.1634-5.1503q0.92946-2.2127-1.2833-3.1422l-7.1383-2.9985q-2.2127-0.92946-3.1422 1.2833l-2.1634 5.1503q-0.92946 2.2127 1.2833 3.1422l7.1383 2.9985q2.2127 0.92946 3.1422-1.2833z" clip-path="url(#a)" fill="#fff" stroke="#fff"/>
<g clip-path="url(#a)">
<g transform="translate(342.11 457.58) rotate(-67.215) scale(.08 -.08)">
<use xlink:href="#n"/>
</g>
</g>
<path d="m542.46 412.42 2.7111 4.2665q1.2872 2.0256 3.3128 0.73849l6.5348-4.1524q2.0256-1.2872 0.73849-3.3128l-2.7111-4.2665q-1.2872-2.0256-3.3128-0.73849l-6.5348 4.1524q-2.0256 1.2872-0.73849 3.3128z" clip-path="url(#a)" fill="#fff" stroke="#fff"/>
<g clip-path="url(#a)">
<g transform="translate(545.89 410.24) rotate(57.567) scale(.08 -.08)">
<use xlink:href="#r"/>
</g>
</g>
<path d="m574.71 283.01 4.8106 1.5527q2.284 0.73721 3.0212-1.5468l2.3783-7.3682q0.73721-2.284-1.5468-3.0212l-4.8106-1.5527q-2.284-0.73721-3.0212 1.5468l-2.3783 7.3682q-0.73721 2.284 1.5468 3.0212z" clip-path="url(#a)" fill="#fff" stroke="#fff"/>
<g clip-path="url(#a)">
<g transform="translate(575.96 279.15) rotate(17.889) scale(.08 -.08)">
<use xlink:href="#r"/>
</g>
</g>
<path d="m391.21 458.36 1.2587-5.7181q0.51594-2.3439-1.8279-2.8598l-7.5615-1.6645q-2.3439-0.51594-2.8598 1.8279l-1.2587 5.7181q-0.51594 2.3439 1.8279 2.8598l7.5615 1.6645q2.3439 0.51594 2.8598-1.8279z" clip-path="url(#a)" fill="#fff" stroke="#fff"/>
<g clip-path="url(#a)">
<defs>
<path id="ah" d="m8.6875 72.906h9.9219v-44.297q0-11.719 4.2344-16.875 4.25-5.1406 13.781-5.1406 9.4688 0 13.719 5.1406 4.25 5.1562 4.25 16.875v44.297h9.9062v-45.516q0-14.25-7.0625-21.531-7.0469-7.2812-20.812-7.2812-13.828 0-20.891 7.2812-7.0469 7.2812-7.0469 21.531z"/>
</defs>
<g transform="translate(387.24 457.48) rotate(-77.586) scale(.08 -.08)">
<use xlink:href="#ah"/>
</g>
</g>
<path d="m196.69 702.36v35.285q0 2.4 2.4 2.4h7.7425q2.4 0 2.4-2.4v-35.285q0-2.4-2.4-2.4h-7.7425q-2.4 0-2.4 2.4z" clip-path="url(#a)" fill="#fff" stroke="#fff"/>
<g clip-path="url(#a)">
<g transform="translate(200.76 702.36) rotate(90) scale(.08 -.08)">
<use xlink:href="#k"/>
<use x="60.818359" xlink:href="#d"/>
<use x="122.341797" xlink:href="#j"/>
<use x="163.439453" xlink:href="#l"/>
<use x="260.851562" xlink:href="#i"/>
<use x="288.634766" xlink:href="#h"/>
<use x="352.013672" xlink:href="#g"/>
<use x="413.292969" xlink:href="#f"/>
</g>
</g>
<path d="m241.25 702.36v35.285q0 2.4 2.4 2.4h7.7425q2.4 0 2.4-2.4v-35.285q0-2.4-2.4-2.4h-7.7425q-2.4 0-2.4 2.4z" clip-path="url(#a)" fill="#fff" stroke="#fff"/>
<g clip-path="url(#a)">
<g transform="translate(245.32 702.36) rotate(90) scale(.08 -.08)">
<use xlink:href="#k"/>
<use x="60.818359" xlink:href="#d"/>
<use x="122.341797" xlink:href="#j"/>
<use x="163.439453" xlink:href="#l"/>
<use x="260.851562" xlink:href="#i"/>
<use x="288.634766" xlink:href="#h"/>
<use x="352.013672" xlink:href="#g"/>
<use x="413.292969" xlink:href="#f"/>
</g>
</g>
<path d="m454.08 640.78 5.3593-1.1072q2.3504-0.48555 1.8648-2.8359l-1.5664-7.5824q-0.48555-2.3504-2.8359-1.8648l-5.3593 1.1072q-2.3504 0.48555-1.8648 2.8359l1.5664 7.5824q0.48555 2.3504 2.8359 1.8648z" clip-path="url(#a)" fill="#fff" stroke="#fff"/>
<g clip-path="url(#a)">
<g transform="translate(453.25 636.8) rotate(-11.672) scale(.08 -.08)">
<use xlink:href="#v"/>
</g>
</g>
<path d="m1053.1 682.59 5.3466 1.167q2.3448 0.51182 2.8566-1.833l1.6511-7.5644q0.51182-2.3448-1.833-2.8566l-5.3466-1.167q-2.3448-0.51182-2.8566 1.833l-1.6511 7.5644q-0.51182 2.3448 1.833 2.8566z" clip-path="url(#a)" fill="#fff" stroke="#fff"/>
<g clip-path="url(#a)">
<g transform="translate(1053.9 678.62) rotate(12.313) scale(.08 -.08)">
<use xlink:href="#v"/>
</g>
</g>
<path d="m476.83 640.74 4.6996-1.0874q2.3382-0.54101 1.7972-2.8792l-1.7453-7.5432q-0.54101-2.3382-2.8792-1.7972l-4.6996 1.0874q-2.3382 0.54101-1.7972 2.8792l1.7453 7.5432q0.54101 2.3382 2.8792 1.7972z" clip-path="url(#a)" fill="#fff" stroke="#fff"/>
<g clip-path="url(#a)">
<g transform="translate(475.92 636.78) rotate(-13.028) scale(.08 -.08)">
<use xlink:href="#w"/>
</g>
</g>
<path d="m554.83 507.08 3.8704-3.9899q1.6711-1.7227-0.051585-3.3937l-5.5573-5.3909q-1.7227-1.6711-3.3937 0.051585l-3.8704 3.9899q-1.6711 1.7227 0.051585 3.3937l5.5573 5.3909q1.7227 1.6711 3.3937-0.051584z" clip-path="url(#a)" fill="#fff" stroke="#fff"/>
<g clip-path="url(#a)">
<defs>
<path id="t" d="m44.391 34.188q3.1719-1.0781 6.1719-4.5938t6.0312-9.6719l10.016-19.922h-10.609l-9.3125 18.703q-3.625 7.3281-7.0156 9.7188t-9.25 2.3906h-10.75v-30.812h-9.8594v72.906h22.266q12.5 0 18.656-5.2344 6.1562-5.2188 6.1562-15.766 0-6.8906-3.2031-11.438-3.2031-4.5312-9.2969-6.2812zm-24.719 30.609v-25.875h12.406q7.125 0 10.766 3.2969t3.6406 9.6875-3.6406 9.6406-10.766 3.25z"/>
</defs>
<g transform="translate(551.91 504.25) rotate(-45.871) scale(.08 -.08)">
<use xlink:href="#t"/>
</g>
</g>
<path d="m633.55 376.66 4.9884-2.5143q2.1432-1.0802 1.0629-3.2234l-3.4849-6.9139q-1.0802-2.1432-3.2234-1.0629l-4.9884 2.5143q-2.1432 1.0802-1.0629 3.2234l3.4849 6.9139q1.0802 2.1432 3.2234 1.0629z" clip-path="url(#a)" fill="#fff" stroke="#fff"/>
<g clip-path="url(#a)">
<g transform="translate(631.72 373.03) rotate(-26.75) scale(.08 -.08)">
<use xlink:href="#n"/>
</g>
</g>
<path d="m768.28 499.82 1.5659 5.3336q0.67607 2.3028 2.9789 1.6267l7.429-2.181q2.3028-0.67607 1.6267-2.9789l-1.5659-5.3336q-0.67607-2.3028-2.9789-1.6267l-7.429 2.181q-2.3028 0.67607-1.6267 2.9789z" clip-path="url(#a)" fill="#fff" stroke="#fff"/>
<g clip-path="url(#a)">
<g transform="translate(772.18 498.67) rotate(73.639) scale(.08 -.08)">
<use xlink:href="#t"/>
</g>
</g>
<path d="m898.95 375.19 5.4163 1.3673q2.327 0.58742 2.9144-1.7396l1.895-7.507q0.58742-2.327-1.7396-2.9144l-5.4163-1.3673q-2.327-0.58742-2.9144 1.7396l-1.895 7.507q-0.58742 2.327 1.7396 2.9144z" clip-path="url(#a)" fill="#fff" stroke="#fff"/>
<g clip-path="url(#a)">
<g transform="translate(899.95 371.25) rotate(14.167) scale(.08 -.08)">
<use xlink:href="#n"/>
</g>
</g>
<path d="m746.13 498.86 0.96568 5.7748q0.39584 2.3671 2.763 1.9713l7.6365-1.277q2.3671-0.39584 1.9713-2.763l-0.96568-5.7748q-0.39584-2.3671-2.763-1.9713l-7.6365 1.277q-2.3671 0.39584-1.9713 2.763z" clip-path="url(#a)" fill="#fff" stroke="#fff"/>
<g clip-path="url(#a)">
<g transform="translate(750.14 498.19) rotate(80.507) scale(.08 -.08)">
<use xlink:href="#ah"/>
</g>
</g>
<path d="m374.94 702.36v35.285q0 2.4 2.4 2.4h7.7425q2.4 0 2.4-2.4v-35.285q0-2.4-2.4-2.4h-7.7425q-2.4 0-2.4 2.4z" clip-path="url(#a)" fill="#fff" stroke="#fff"/>
<g clip-path="url(#a)">
<g transform="translate(379.01 702.36) rotate(90) scale(.08 -.08)">
<use xlink:href="#k"/>
<use x="60.818359" xlink:href="#d"/>
<use x="122.341797" xlink:href="#j"/>
<use x="163.439453" xlink:href="#l"/>
<use x="260.851562" xlink:href="#i"/>
<use x="288.634766" xlink:href="#h"/>
<use x="352.013672" xlink:href="#g"/>
<use x="413.292969" xlink:href="#f"/>
</g>
</g>
<path d="m489.14 551 2.0674-4.6129q0.98156-2.1901-1.2085-3.1717l-7.0654-3.1665q-2.1901-0.98155-3.1717 1.2085l-2.0674 4.6129q-0.98155 2.1901 1.2085 3.1717l7.0654 3.1665q2.1901 0.98155 3.1717-1.2085z" clip-path="url(#a)" fill="#fff" stroke="#fff"/>
<g clip-path="url(#a)">
<g transform="translate(485.43 549.33) rotate(-65.859) scale(.08 -.08)">
<use xlink:href="#r"/>
</g>
</g>
<path d="m512.03 550.5 1.4962-5.3822q0.64279-2.3123-1.6695-2.9551l-7.4596-2.0737q-2.3123-0.64279-2.9551 1.6695l-1.4962 5.3822q-0.64279 2.3123 1.6695 2.9551l7.4596 2.0737q2.3123 0.64279 2.9551-1.6695z" clip-path="url(#a)" fill="#fff" stroke="#fff"/>
<g clip-path="url(#a)">
<g transform="translate(508.11 549.41) rotate(-74.465) scale(.08 -.08)">
<use xlink:href="#n"/>
</g>
</g>
<path d="m633.25 464.22 4.5801 2.139q2.1746 1.0155 3.1901-1.159l3.2762-7.0152q1.0155-2.1746-1.159-3.1901l-4.5801-2.139q-2.1746-1.0155-3.1901 1.159l-3.2762 7.0152q-1.0155 2.1746 1.159 3.1901z" clip-path="url(#a)" fill="#fff" stroke="#fff"/>
<g clip-path="url(#a)">
<g transform="translate(634.97 460.54) rotate(25.033) scale(.08 -.08)">
<use xlink:href="#r"/>
</g>
</g>
<path d="m820.57 702.36v35.285q0 2.4 2.4 2.4h7.7425q2.4 0 2.4-2.4v-35.285q0-2.4-2.4-2.4h-7.7425q-2.4 0-2.4 2.4z" clip-path="url(#a)" fill="#fff" stroke="#fff"/>
<g clip-path="url(#a)">
<g transform="translate(824.64 702.36) rotate(90) scale(.08 -.08)">
<use xlink:href="#k"/>
<use x="60.818359" xlink:href="#d"/>
<use x="122.341797" xlink:href="#j"/>
<use x="163.439453" xlink:href="#l"/>
<use x="260.851562" xlink:href="#i"/>
<use x="288.634766" xlink:href="#h"/>
<use x="352.013672" xlink:href="#g"/>
<use x="413.292969" xlink:href="#f"/>
</g>
</g>
<path d="m1014.5 466.39 4.7102-3.0034q2.0236-1.2903 0.73331-3.3139l-4.1626-6.5283q-1.2903-2.0236-3.314-0.73331l-4.7102 3.0034q-2.0236 1.2903-0.73331 3.314l4.1626 6.5283q1.2903 2.0236 3.314 0.73331z" clip-path="url(#a)" fill="#fff" stroke="#fff"/>
<g clip-path="url(#a)">
<g transform="translate(1012.3 462.97) rotate(-32.523) scale(.08 -.08)">
<use xlink:href="#n"/>
</g>
</g>
<path d="m1082.3 543.4 0.25442 5.9796q0.10202 2.3978 2.4999 2.2958l7.7355-0.32913q2.3978-0.10202 2.2958-2.4999l-0.25442-5.9796q-0.10202-2.3978-2.4999-2.2958l-7.7355 0.32913q-2.3978 0.10202-2.2958 2.4999z" clip-path="url(#a)" fill="#fff" stroke="#fff"/>
<g clip-path="url(#a)">
<defs>
<path id="ak" d="m9.8125 72.906h13.281l32.328-60.984v60.984h9.5625v-72.906h-13.281l-32.312 60.984v-60.984h-9.5781z"/>
</defs>
<g transform="translate(1086.3 543.23) rotate(87.564) scale(.08 -.08)">
<use xlink:href="#ak"/>
</g>
</g>
<path d="m1141.3 463.17 4.5913 3.1821q1.9726 1.3671 3.3397-0.60543l4.4104-6.3635q1.3671-1.9726-0.60543-3.3397l-4.5913-3.1821q-1.9726-1.3671-3.3397 0.60543l-4.4104 6.3635q-1.3671 1.9726 0.60543 3.3397z" clip-path="url(#a)" fill="#fff" stroke="#fff"/>
<g clip-path="url(#a)">
<g transform="translate(1143.6 459.83) rotate(34.725) scale(.08 -.08)">
<use xlink:href="#n"/>
</g>
</g>
<path d="m912.33 595.51 2.1459-5.1278q0.9265-2.214-1.2874-3.1405l-7.1423-2.9889q-2.214-0.9265-3.1405 1.2874l-2.1459 5.1278q-0.9265 2.214 1.2874 3.1405l7.1423 2.9889q2.214 0.9265 3.1405-1.2874z" clip-path="url(#a)" fill="#fff" stroke="#fff"/>
<g clip-path="url(#a)">
<g transform="translate(908.58 593.94) rotate(-67.291) scale(.08 -.08)">
<use xlink:href="#t"/>
</g>
</g>
<path d="m935.64 594.28 0.88771-5.5153q0.38138-2.3695-1.9881-2.7509l-7.6441-1.2304q-2.3695-0.38138-2.7509 1.9881l-0.88771 5.5153q-0.38138 2.3695 1.9881 2.7509l7.6441 1.2304q2.3695 0.38138 2.7509-1.9881z" clip-path="url(#a)" fill="#fff" stroke="#fff"/>
<g clip-path="url(#a)">
<g transform="translate(931.63 593.63) rotate(-80.856) scale(.08 -.08)">
<use xlink:href="#n"/>
</g>
</g>
<path d="m945.69 588.61 0.48592 5.0316q0.2307 2.3889 2.6196 2.1582l7.7066-0.74426q2.3889-0.2307 2.1582-2.6196l-0.48592-5.0316q-0.2307-2.3889-2.6196-2.1582l-7.7066 0.74426q-2.3889 0.2307-2.1582 2.6196z" clip-path="url(#a)" fill="#fff" stroke="#fff"/>
<g clip-path="url(#a)">
<g transform="translate(949.74 588.22) rotate(84.484) scale(.08 -.08)">
<use xlink:href="#r"/>
</g>
</g>
<path d="m979.32 550.08 3.4991 3.6482q1.6613 1.7321 3.3934 0.07083l5.5878-5.3593q1.7321-1.6613 0.070831-3.3934l-3.4991-3.6482q-1.6613-1.7321-3.3934-0.07083l-5.5878 5.3593q-1.7321 1.6613-0.07083 3.3934z" clip-path="url(#a)" fill="#fff" stroke="#fff"/>
<g clip-path="url(#a)">
<g transform="translate(982.26 547.27) rotate(46.196) scale(.08 -.08)">
<use xlink:href="#r"/>
</g>
</g>
<path d="m1088 702.36v35.285q0 2.4 2.4 2.4h7.7425q2.4 0 2.4-2.4v-35.285q0-2.4-2.4-2.4h-7.7425q-2.4 0-2.4 2.4z" clip-path="url(#a)" fill="#fff" stroke="#fff"/>
<g clip-path="url(#a)">
<g transform="translate(1092 702.36) rotate(90) scale(.08 -.08)">
<use xlink:href="#k"/>
<use x="60.818359" xlink:href="#d"/>
<use x="122.341797" xlink:href="#j"/>
<use x="163.439453" xlink:href="#l"/>
<use x="260.851562" xlink:href="#i"/>
<use x="288.634766" xlink:href="#h"/>
<use x="352.013672" xlink:href="#g"/>
<use x="413.292969" xlink:href="#f"/>
</g>
</g>
<path d="m1179.7 595.51 2.1459-5.1278q0.9265-2.214-1.2874-3.1405l-7.1423-2.9889q-2.214-0.9265-3.1405 1.2874l-2.1459 5.1278q-0.9265 2.214 1.2874 3.1405l7.1423 2.9889q2.214 0.9265 3.1405-1.2874z" clip-path="url(#a)" fill="#fff" stroke="#fff"/>
<g clip-path="url(#a)">
<g transform="translate(1176 593.94) rotate(-67.291) scale(.08 -.08)">
<use xlink:href="#t"/>
</g>
</g>
<path d="m1203 594.28 0.88771-5.5153q0.38138-2.3695-1.9881-2.7509l-7.6441-1.2304q-2.3695-0.38138-2.7509 1.9881l-0.88771 5.5153q-0.38138 2.3695 1.9881 2.7509l7.6441 1.2304q2.3695 0.38138 2.7509-1.9881z" clip-path="url(#a)" fill="#fff" stroke="#fff"/>
<g clip-path="url(#a)">
<g transform="translate(1199 593.63) rotate(-80.856) scale(.08 -.08)">
<use xlink:href="#n"/>
</g>
</g>
<path d="m1214.5 550.48 0.32256-5.0447q0.15314-2.3951-2.242-2.5483l-7.7267-0.49405q-2.3951-0.15314-2.5483 2.242l-0.32256 5.0447q-0.15314 2.3951 2.242 2.5483l7.7267 0.49405q2.3951 0.15314 2.5483-2.242z" clip-path="url(#a)" fill="#fff" stroke="#fff"/>
<g clip-path="url(#a)">
<g transform="translate(1210.5 550.23) rotate(-86.341) scale(.08 -.08)">
<use xlink:href="#r"/>
</g>
</g>
<path d="m1258.2 550.8 3.9029 3.2126q1.853 1.5253 3.3783-0.32773l4.9206-5.9778q1.5253-1.853-0.32773-3.3783l-3.9029-3.2126q-1.853-1.5253-3.3783 0.32773l-4.9206 5.9778q-1.5253 1.853 0.32773 3.3783z" clip-path="url(#a)" fill="#fff" stroke="#fff"/>
<g clip-path="url(#a)">
<g transform="translate(1260.8 547.66) rotate(39.459) scale(.08 -.08)">
<use xlink:href="#r"/>
</g>
</g>
<path d="m1132.5 702.36v35.285q0 2.4 2.4 2.4h7.7425q2.4 0 2.4-2.4v-35.285q0-2.4-2.4-2.4h-7.7425q-2.4 0-2.4 2.4z" clip-path="url(#a)" fill="#fff" stroke="#fff"/>
<g clip-path="url(#a)">
<g transform="translate(1136.6 702.36) rotate(90) scale(.08 -.08)">
<use xlink:href="#k"/>
<use x="60.818359" xlink:href="#d"/>
<use x="122.341797" xlink:href="#j"/>
<use x="163.439453" xlink:href="#l"/>
<use x="260.851562" xlink:href="#i"/>
<use x="288.634766" xlink:href="#h"/>
<use x="352.013672" xlink:href="#g"/>
<use x="413.292969" xlink:href="#f"/>
</g>
</g>
<path d="m1177.1 702.36v35.285q0 2.4 2.4 2.4h7.7425q2.4 0 2.4-2.4v-35.285q0-2.4-2.4-2.4h-7.7425q-2.4 0-2.4 2.4z" clip-path="url(#a)" fill="#fff" stroke="#fff"/>
<g clip-path="url(#a)">
<g transform="translate(1181.1 702.36) rotate(90) scale(.08 -.08)">
<use xlink:href="#k"/>
<use x="60.818359" xlink:href="#d"/>
<use x="122.341797" xlink:href="#j"/>
<use x="163.439453" xlink:href="#l"/>
<use x="260.851562" xlink:href="#i"/>
<use x="288.634766" xlink:href="#h"/>
<use x="352.013672" xlink:href="#g"/>
<use x="413.292969" xlink:href="#f"/>
</g>
</g>
<path d="m1199.9 638.31 1.3737-5.2973q0.60244-2.3232-1.7207-2.9256l-7.4946-1.9435q-2.3232-0.60244-2.9256 1.7207l-1.3737 5.2973q-0.60244 2.3232 1.7207 2.9256l7.4946 1.9435q2.3232 0.60244 2.9256-1.7207z" clip-path="url(#a)" fill="#fff" stroke="#fff"/>
<g clip-path="url(#a)">
<g transform="translate(1195.9 637.29) rotate(-75.462) scale(.08 -.08)">
<use xlink:href="#v"/>
</g>
</g>
<path d="m1210.1 633.32 1.2108 4.6693q0.60244 2.3232 2.9256 1.7207l7.4946-1.9435q2.3232-0.60244 1.7207-2.9256l-1.2108-4.6693q-0.60244-2.3232-2.9256-1.7207l-7.4946 1.9435q-2.3232 0.60244-1.7207 2.9256z" clip-path="url(#a)" fill="#fff" stroke="#fff"/>
<g clip-path="url(#a)">
<g transform="translate(1214 632.3) rotate(75.462) scale(.08 -.08)">
<use xlink:href="#w"/>
</g>
</g>
<path d="m1299 639.44 2.5593-4.9346q1.105-2.1305-1.0255-3.2355l-6.8731-3.5647q-2.1305-1.105-3.2355 1.0255l-2.5593 4.9346q-1.105 2.1305 1.0255 3.2355l6.8731 3.5647q2.1305 1.105 3.2355-1.0255z" clip-path="url(#a)" fill="#fff" stroke="#fff"/>
<g clip-path="url(#a)">
<g transform="translate(1295.4 637.57) rotate(-62.587) scale(.08 -.08)">
<use xlink:href="#t"/>
</g>
</g>
<path d="m1310.8 631.29v5.5862q0 2.4 2.4 2.4h7.7425q2.4 0 2.4-2.4v-5.5862q0-2.4-2.4-2.4h-7.7425q-2.4 0-2.4 2.4z" clip-path="url(#a)" fill="#fff" stroke="#fff"/>
<g clip-path="url(#a)">
<g transform="translate(1314.8 631.29) rotate(90) scale(.08 -.08)">
<use xlink:href="#n"/>
</g>
</g>
<path d="m1332.4 634.37 2.6957 5.1975q1.105 2.1305 3.2355 1.0255l6.8731-3.5647q2.1305-1.105 1.0255-3.2355l-2.6957-5.1975q-1.105-2.1305-3.2355-1.0255l-6.8731 3.5647q-2.1305 1.105-1.0255 3.2355z" clip-path="url(#a)" fill="#fff" stroke="#fff"/>
<g clip-path="url(#a)">
<g transform="translate(1336 632.5) rotate(62.587) scale(.08 -.08)">
<use xlink:href="#ah"/>
</g>
</g>
<path d="m1266.2 702.36v35.285q0 2.4 2.4 2.4h7.7425q2.4 0 2.4-2.4v-35.285q0-2.4-2.4-2.4h-7.7425q-2.4 0-2.4 2.4z" clip-path="url(#a)" fill="#fff" stroke="#fff"/>
<g clip-path="url(#a)">
<g transform="translate(1270.3 702.36) rotate(90) scale(.08 -.08)">
<use xlink:href="#k"/>
<use x="60.818359" xlink:href="#d"/>
<use x="122.341797" xlink:href="#j"/>
<use x="163.439453" xlink:href="#l"/>
<use x="260.851562" xlink:href="#i"/>
<use x="288.634766" xlink:href="#h"/>
<use x="352.013672" xlink:href="#g"/>
<use x="413.292969" xlink:href="#f"/>
</g>
</g>
<path d="m1310.8 702.36v35.285q0 2.4 2.4 2.4h7.7425q2.4 0 2.4-2.4v-35.285q0-2.4-2.4-2.4h-7.7425q-2.4 0-2.4 2.4z" clip-path="url(#a)" fill="#fff" stroke="#fff"/>
<g clip-path="url(#a)">
<g transform="translate(1314.8 702.36) rotate(90) scale(.08 -.08)">
<use xlink:href="#k"/>
<use x="60.818359" xlink:href="#d"/>
<use x="122.341797" xlink:href="#j"/>
<use x="163.439453" xlink:href="#l"/>
<use x="260.851562" xlink:href="#i"/>
<use x="288.634766" xlink:href="#h"/>
<use x="352.013672" xlink:href="#g"/>
<use x="413.292969" xlink:href="#f"/>
</g>
</g>
<path d="m1221.6 702.36v35.285q0 2.4 2.4 2.4h7.7425q2.4 0 2.4-2.4v-35.285q0-2.4-2.4-2.4h-7.7425q-2.4 0-2.4 2.4z" clip-path="url(#a)" fill="#fff" stroke="#fff"/>
<g clip-path="url(#a)">
<g transform="translate(1225.7 702.36) rotate(90) scale(.08 -.08)">
<use xlink:href="#k"/>
<use x="60.818359" xlink:href="#d"/>
<use x="122.341797" xlink:href="#j"/>
<use x="163.439453" xlink:href="#l"/>
<use x="260.851562" xlink:href="#i"/>
<use x="288.634766" xlink:href="#h"/>
<use x="352.013672" xlink:href="#g"/>
<use x="413.292969" xlink:href="#f"/>
</g>
</g>
<path d="m865.14 702.36v35.285q0 2.4 2.4 2.4h7.7425q2.4 0 2.4-2.4v-35.285q0-2.4-2.4-2.4h-7.7425q-2.4 0-2.4 2.4z" clip-path="url(#a)" fill="#fff" stroke="#fff"/>
<g clip-path="url(#a)">
<g transform="translate(869.2 702.36) rotate(90) scale(.08 -.08)">
<use xlink:href="#k"/>
<use x="60.818359" xlink:href="#d"/>
<use x="122.341797" xlink:href="#j"/>
<use x="163.439453" xlink:href="#l"/>
<use x="260.851562" xlink:href="#i"/>
<use x="288.634766" xlink:href="#h"/>
<use x="352.013672" xlink:href="#g"/>
<use x="413.292969" xlink:href="#f"/>
</g>
</g>
<path d="m909.7 702.36v35.285q0 2.4 2.4 2.4h7.7425q2.4 0 2.4-2.4v-35.285q0-2.4-2.4-2.4h-7.7425q-2.4 0-2.4 2.4z" clip-path="url(#a)" fill="#fff" stroke="#fff"/>
<g clip-path="url(#a)">
<g transform="translate(913.76 702.36) rotate(90) scale(.08 -.08)">
<use xlink:href="#k"/>
<use x="60.818359" xlink:href="#d"/>
<use x="122.341797" xlink:href="#j"/>
<use x="163.439453" xlink:href="#l"/>
<use x="260.851562" xlink:href="#i"/>
<use x="288.634766" xlink:href="#h"/>
<use x="352.013672" xlink:href="#g"/>
<use x="413.292969" xlink:href="#f"/>
</g>
</g>
<path d="m954.26 702.36v35.285q0 2.4 2.4 2.4h7.7425q2.4 0 2.4-2.4v-35.285q0-2.4-2.4-2.4h-7.7425q-2.4 0-2.4 2.4z" clip-path="url(#a)" fill="#fff" stroke="#fff"/>
<g clip-path="url(#a)">
<g transform="translate(958.33 702.36) rotate(90) scale(.08 -.08)">
<use xlink:href="#k"/>
<use x="60.818359" xlink:href="#d"/>
<use x="122.341797" xlink:href="#j"/>
<use x="163.439453" xlink:href="#l"/>
<use x="260.851562" xlink:href="#i"/>
<use x="288.634766" xlink:href="#h"/>
<use x="352.013672" xlink:href="#g"/>
<use x="413.292969" xlink:href="#f"/>
</g>
</g>
<path d="m1021.6 638.35 1.3953-5.3808q0.60244-2.3232-1.7207-2.9256l-7.4946-1.9435q-2.3232-0.60244-2.9256 1.7207l-1.3953 5.3808q-0.60244 2.3232 1.7207 2.9256l7.4946 1.9435q2.3232 0.60244 2.9256-1.7207z" clip-path="url(#a)" fill="#fff" stroke="#fff"/>
<g clip-path="url(#a)">
<g transform="translate(1017.7 637.33) rotate(-75.462) scale(.08 -.08)">
<use xlink:href="#t"/>
</g>
</g>
<path d="m1031.7 632.95 1.4022 5.4074q0.60244 2.3232 2.9256 1.7207l7.4946-1.9435q2.3232-0.60244 1.7207-2.9256l-1.4022-5.4074q-0.60244-2.3232-2.9256-1.7207l-7.4946 1.9435q-2.3232 0.60244-1.7207 2.9256z" clip-path="url(#a)" fill="#fff" stroke="#fff"/>
<g clip-path="url(#a)">
<g transform="translate(1035.7 631.93) rotate(75.462) scale(.08 -.08)">
<use xlink:href="#n"/>
</g>
</g>
<path d="m998.83 702.36v35.285q0 2.4 2.4 2.4h7.7425q2.4 0 2.4-2.4v-35.285q0-2.4-2.4-2.4h-7.7425q-2.4 0-2.4 2.4z" clip-path="url(#a)" fill="#fff" stroke="#fff"/>
<g clip-path="url(#a)">
<g transform="translate(1002.9 702.36) rotate(90) scale(.08 -.08)">
<use xlink:href="#k"/>
<use x="60.818359" xlink:href="#d"/>
<use x="122.341797" xlink:href="#j"/>
<use x="163.439453" xlink:href="#l"/>
<use x="260.851562" xlink:href="#i"/>
<use x="288.634766" xlink:href="#h"/>
<use x="352.013672" xlink:href="#g"/>
<use x="413.292969" xlink:href="#f"/>
</g>
</g>
<path d="m1043.4 702.36v35.285q0 2.4 2.4 2.4h7.7425q2.4 0 2.4-2.4v-35.285q0-2.4-2.4-2.4h-7.7425q-2.4 0-2.4 2.4z" clip-path="url(#a)" fill="#fff" stroke="#fff"/>
<g clip-path="url(#a)">
<g transform="translate(1047.5 702.36) rotate(90) scale(.08 -.08)">
<use xlink:href="#k"/>
<use x="60.818359" xlink:href="#d"/>
<use x="122.341797" xlink:href="#j"/>
<use x="163.439453" xlink:href="#l"/>
<use x="260.851562" xlink:href="#i"/>
<use x="288.634766" xlink:href="#h"/>
<use x="352.013672" xlink:href="#g"/>
<use x="413.292969" xlink:href="#f"/>
</g>
</g>
<path d="m419.51 702.36v35.285q0 2.4 2.4 2.4h7.7425q2.4 0 2.4-2.4v-35.285q0-2.4-2.4-2.4h-7.7425q-2.4 0-2.4 2.4z" clip-path="url(#a)" fill="#fff" stroke="#fff"/>
<g clip-path="url(#a)">
<g transform="translate(423.57 702.36) rotate(90) scale(.08 -.08)">
<use xlink:href="#k"/>
<use x="60.818359" xlink:href="#d"/>
<use x="122.341797" xlink:href="#j"/>
<use x="163.439453" xlink:href="#l"/>
<use x="260.851562" xlink:href="#i"/>
<use x="288.634766" xlink:href="#h"/>
<use x="352.013672" xlink:href="#g"/>
<use x="413.292969" xlink:href="#f"/>
</g>
</g>
<path d="m464.07 702.36v35.285q0 2.4 2.4 2.4h7.7425q2.4 0 2.4-2.4v-35.285q0-2.4-2.4-2.4h-7.7425q-2.4 0-2.4 2.4z" clip-path="url(#a)" fill="#fff" stroke="#fff"/>
<g clip-path="url(#a)">
<g transform="translate(468.13 702.36) rotate(90) scale(.08 -.08)">
<use xlink:href="#k"/>
<use x="60.818359" xlink:href="#d"/>
<use x="122.341797" xlink:href="#j"/>
<use x="163.439453" xlink:href="#l"/>
<use x="260.851562" xlink:href="#i"/>
<use x="288.634766" xlink:href="#h"/>
<use x="352.013672" xlink:href="#g"/>
<use x="413.292969" xlink:href="#f"/>
</g>
</g>
<path d="m602.96 597.27 4.5713-3.0086q2.0048-1.3194 0.68534-3.3242l-4.2565-6.4675q-1.3194-2.0048-3.3242-0.68534l-4.5713 3.0086q-2.0048 1.3194-0.68534 3.3242l4.2565 6.4675q1.3194 2.0048 3.3242 0.68534z" clip-path="url(#a)" fill="#fff" stroke="#fff"/>
<g clip-path="url(#a)">
<g transform="translate(600.73 593.87) rotate(-33.351) scale(.08 -.08)">
<use xlink:href="#v"/>
</g>
</g>
<path d="m1064.9 638.35 5.1073 1.9655q2.2399 0.862 3.1019-1.3779l2.7809-7.2259q0.862-2.2399-1.3779-3.1019l-5.1073-1.9655q-2.2399-0.862-3.1019 1.3779l-2.7809 7.2259q-0.862 2.2399 1.3779 3.1019z" clip-path="url(#a)" fill="#fff" stroke="#fff"/>
<g clip-path="url(#a)">
<g transform="translate(1066.4 634.56) rotate(21.049) scale(.08 -.08)">
<use xlink:href="#v"/>
</g>
</g>
<path d="m625.8 597.16 4.3566-3.4525q1.881-1.4906 0.39038-3.3716l-4.8088-6.0681q-1.4906-1.881-3.3716-0.39038l-4.3566 3.4525q-1.881 1.4906-0.39038 3.3716l4.8088 6.0681q1.4906 1.881 3.3716 0.39038z" clip-path="url(#a)" fill="#fff" stroke="#fff"/>
<g clip-path="url(#a)">
<g transform="translate(623.28 593.98) rotate(-38.395) scale(.08 -.08)">
<use xlink:href="#t"/>
</g>
</g>
<path d="m658.54 554.2 4.1818-2.4044q2.0806-1.1963 0.88428-3.2769l-3.8593-6.7121q-1.1963-2.0806-3.2769-0.88428l-4.1818 2.4044q-2.0806 1.1963-0.88429 3.2769l3.8593 6.7121q1.1963 2.0806 3.2769 0.88428z" clip-path="url(#a)" fill="#fff" stroke="#fff"/>
<g clip-path="url(#a)">
<g transform="translate(656.51 550.68) rotate(-29.898) scale(.08 -.08)">
<use xlink:href="#w"/>
</g>
</g>
<path d="m717.62 552.98 2.576-5.5955q1.0036-2.1801-1.1764-3.1837l-7.033-3.2378q-2.1801-1.0036-3.1837 1.1764l-2.576 5.5955q-1.0036 2.1801 1.1764 3.1837l7.033 3.2378q2.1801 1.0036 3.1837-1.1764z" clip-path="url(#a)" fill="#fff" stroke="#fff"/>
<g clip-path="url(#a)">
<defs>
<path id="av" d="m19.672 64.797v-56.688h11.922q15.094 0 22.094 6.8281 7 6.8438 7 21.594 0 14.641-7 21.453t-22.094 6.8125zm-9.8594 8.1094h20.266q21.188 0 31.094-8.8125 9.9219-8.8125 9.9219-27.562 0-18.859-9.9688-27.703-9.9531-8.8281-31.047-8.8281h-20.266z"/>
</defs>
<g transform="translate(713.93 551.28) rotate(-65.28) scale(.08 -.08)">
<use xlink:href="#av"/>
</g>
</g>
<path d="m508.63 702.36v35.285q0 2.4 2.4 2.4h7.7425q2.4 0 2.4-2.4v-35.285q0-2.4-2.4-2.4h-7.7425q-2.4 0-2.4 2.4z" clip-path="url(#a)" fill="#fff" stroke="#fff"/>
<g clip-path="url(#a)">
<g transform="translate(512.7 702.36) rotate(90) scale(.08 -.08)">
<use xlink:href="#k"/>
<use x="60.818359" xlink:href="#d"/>
<use x="122.341797" xlink:href="#j"/>
<use x="163.439453" xlink:href="#l"/>
<use x="260.851562" xlink:href="#i"/>
<use x="288.634766" xlink:href="#h"/>
<use x="352.013672" xlink:href="#g"/>
<use x="413.292969" xlink:href="#f"/>
</g>
</g>
<path d="m576.04 638.1 1.2689-4.8932q0.60244-2.3232-1.7207-2.9256l-7.4946-1.9435q-2.3232-0.60244-2.9256 1.7207l-1.2689 4.8932q-0.60244 2.3232 1.7207 2.9256l7.4946 1.9435q2.3232 0.60244 2.9256-1.7207z" clip-path="url(#a)" fill="#fff" stroke="#fff"/>
<g clip-path="url(#a)">
<g transform="translate(572.11 637.08) rotate(-75.462) scale(.08 -.08)">
<use xlink:href="#r"/>
</g>
</g>
<path d="m586.12 632.95 1.4022 5.4074q0.60244 2.3232 2.9256 1.7207l7.4946-1.9435q2.3232-0.60244 1.7207-2.9256l-1.4022-5.4074q-0.60244-2.3232-2.9256-1.7207l-7.4946 1.9435q-2.3232 0.60244-1.7207 2.9256z" clip-path="url(#a)" fill="#fff" stroke="#fff"/>
<g clip-path="url(#a)">
<g transform="translate(590.05 631.93) rotate(75.462) scale(.08 -.08)">
<use xlink:href="#n"/>
</g>
</g>
<path d="m675.16 639.44 2.5593-4.9346q1.105-2.1305-1.0255-3.2355l-6.8731-3.5647q-2.1305-1.105-3.2355 1.0255l-2.5593 4.9346q-1.105 2.1305 1.0255 3.2355l6.8731 3.5647q2.1305 1.105 3.2355-1.0255z" clip-path="url(#a)" fill="#fff" stroke="#fff"/>
<g clip-path="url(#a)">
<g transform="translate(671.55 637.57) rotate(-62.587) scale(.08 -.08)">
<use xlink:href="#t"/>
</g>
</g>
<path d="m686.88 631.55v5.055q0 2.4 2.4 2.4h7.7425q2.4 0 2.4-2.4v-5.055q0-2.4-2.4-2.4h-7.7425q-2.4 0-2.4 2.4z" clip-path="url(#a)" fill="#fff" stroke="#fff"/>
<g clip-path="url(#a)">
<g transform="translate(690.95 631.55) rotate(90) scale(.08 -.08)">
<use xlink:href="#r"/>
</g>
</g>
<path d="m708.58 634.49 2.5719 4.959q1.105 2.1305 3.2355 1.0255l6.8731-3.5647q2.1305-1.105 1.0255-3.2355l-2.5719-4.959q-1.105-2.1305-3.2355-1.0255l-6.8731 3.5647q-2.1305 1.105-1.0255 3.2355z" clip-path="url(#a)" fill="#fff" stroke="#fff"/>
<g clip-path="url(#a)">
<g transform="translate(712.19 632.62) rotate(62.587) scale(.08 -.08)">
<use xlink:href="#n"/>
</g>
</g>
<path d="m642.32 702.36v35.285q0 2.4 2.4 2.4h7.7425q2.4 0 2.4-2.4v-35.285q0-2.4-2.4-2.4h-7.7425q-2.4 0-2.4 2.4z" clip-path="url(#a)" fill="#fff" stroke="#fff"/>
<g clip-path="url(#a)">
<g transform="translate(646.39 702.36) rotate(90) scale(.08 -.08)">
<use xlink:href="#k"/>
<use x="60.818359" xlink:href="#d"/>
<use x="122.341797" xlink:href="#j"/>
<use x="163.439453" xlink:href="#l"/>
<use x="260.851562" xlink:href="#i"/>
<use x="288.634766" xlink:href="#h"/>
<use x="352.013672" xlink:href="#g"/>
<use x="413.292969" xlink:href="#f"/>
</g>
</g>
<path d="m686.88 702.36v35.285q0 2.4 2.4 2.4h7.7425q2.4 0 2.4-2.4v-35.285q0-2.4-2.4-2.4h-7.7425q-2.4 0-2.4 2.4z" clip-path="url(#a)" fill="#fff" stroke="#fff"/>
<g clip-path="url(#a)">
<g transform="translate(690.95 702.36) rotate(90) scale(.08 -.08)">
<use xlink:href="#k"/>
<use x="60.818359" xlink:href="#d"/>
<use x="122.341797" xlink:href="#j"/>
<use x="163.439453" xlink:href="#l"/>
<use x="260.851562" xlink:href="#i"/>
<use x="288.634766" xlink:href="#h"/>
<use x="352.013672" xlink:href="#g"/>
<use x="413.292969" xlink:href="#f"/>
</g>
</g>
<path d="m731.45 702.36v35.285q0 2.4 2.4 2.4h7.7425q2.4 0 2.4-2.4v-35.285q0-2.4-2.4-2.4h-7.7425q-2.4 0-2.4 2.4z" clip-path="url(#a)" fill="#fff" stroke="#fff"/>
<g clip-path="url(#a)">
<g transform="translate(735.51 702.36) rotate(90) scale(.08 -.08)">
<use xlink:href="#k"/>
<use x="60.818359" xlink:href="#d"/>
<use x="122.341797" xlink:href="#j"/>
<use x="163.439453" xlink:href="#l"/>
<use x="260.851562" xlink:href="#i"/>
<use x="288.634766" xlink:href="#h"/>
<use x="352.013672" xlink:href="#g"/>
<use x="413.292969" xlink:href="#f"/>
</g>
</g>
<path d="m553.2 702.36v35.285q0 2.4 2.4 2.4h7.7425q2.4 0 2.4-2.4v-35.285q0-2.4-2.4-2.4h-7.7425q-2.4 0-2.4 2.4z" clip-path="url(#a)" fill="#fff" stroke="#fff"/>
<g clip-path="url(#a)">
<g transform="translate(557.26 702.36) rotate(90) scale(.08 -.08)">
<use xlink:href="#k"/>
<use x="60.818359" xlink:href="#d"/>
<use x="122.341797" xlink:href="#j"/>
<use x="163.439453" xlink:href="#l"/>
<use x="260.851562" xlink:href="#i"/>
<use x="288.634766" xlink:href="#h"/>
<use x="352.013672" xlink:href="#g"/>
<use x="413.292969" xlink:href="#f"/>
</g>
</g>
<path d="m597.76 702.36v35.285q0 2.4 2.4 2.4h7.7425q2.4 0 2.4-2.4v-35.285q0-2.4-2.4-2.4h-7.7425q-2.4 0-2.4 2.4z" clip-path="url(#a)" fill="#fff" stroke="#fff"/>
<g clip-path="url(#a)">
<g transform="translate(601.82 702.36) rotate(90) scale(.08 -.08)">
<use xlink:href="#k"/>
<use x="60.818359" xlink:href="#d"/>
<use x="122.341797" xlink:href="#j"/>
<use x="163.439453" xlink:href="#l"/>
<use x="260.851562" xlink:href="#i"/>
<use x="288.634766" xlink:href="#h"/>
<use x="352.013672" xlink:href="#g"/>
<use x="413.292969" xlink:href="#f"/>
</g>
</g>
<path d="m285.82 702.36v35.285q0 2.4 2.4 2.4h7.7425q2.4 0 2.4-2.4v-35.285q0-2.4-2.4-2.4h-7.7425q-2.4 0-2.4 2.4z" clip-path="url(#a)" fill="#fff" stroke="#fff"/>
<g clip-path="url(#a)">
<g transform="translate(289.88 702.36) rotate(90) scale(.08 -.08)">
<use xlink:href="#k"/>
<use x="60.818359" xlink:href="#d"/>
<use x="122.341797" xlink:href="#j"/>
<use x="163.439453" xlink:href="#l"/>
<use x="260.851562" xlink:href="#i"/>
<use x="288.634766" xlink:href="#h"/>
<use x="352.013672" xlink:href="#g"/>
<use x="413.292969" xlink:href="#f"/>
</g>
</g>
<path d="m63.002 702.36v35.285q0 2.4 2.4 2.4h7.7425q2.4 0 2.4-2.4v-35.285q0-2.4-2.4-2.4h-7.7425q-2.4 0-2.4 2.4z" clip-path="url(#a)" fill="#fff" stroke="#fff"/>
<g clip-path="url(#a)">
<g transform="translate(67.066 702.36) rotate(90) scale(.08 -.08)">
<use xlink:href="#k"/>
<use x="60.818359" xlink:href="#d"/>
<use x="122.341797" xlink:href="#j"/>
<use x="163.439453" xlink:href="#l"/>
<use x="260.851562" xlink:href="#i"/>
<use x="288.634766" xlink:href="#h"/>
<use x="352.013672" xlink:href="#g"/>
<use x="413.292969" xlink:href="#f"/>
</g>
</g>
<path d="m152.13 702.36v35.285q0 2.4 2.4 2.4h7.7425q2.4 0 2.4-2.4v-35.285q0-2.4-2.4-2.4h-7.7425q-2.4 0-2.4 2.4z" clip-path="url(#a)" fill="#fff" stroke="#fff"/>
<g clip-path="url(#a)">
<g transform="translate(156.19 702.36) rotate(90) scale(.08 -.08)">
<use xlink:href="#k"/>
<use x="60.818359" xlink:href="#d"/>
<use x="122.341797" xlink:href="#j"/>
<use x="163.439453" xlink:href="#l"/>
<use x="260.851562" xlink:href="#i"/>
<use x="288.634766" xlink:href="#h"/>
<use x="352.013672" xlink:href="#g"/>
<use x="413.292969" xlink:href="#f"/>
</g>
</g>
<path d="m330.38 702.36v35.285q0 2.4 2.4 2.4h7.7425q2.4 0 2.4-2.4v-35.285q0-2.4-2.4-2.4h-7.7425q-2.4 0-2.4 2.4z" clip-path="url(#a)" fill="#fff" stroke="#fff"/>
<g clip-path="url(#a)">
<g transform="translate(334.44 702.36) rotate(90) scale(.08 -.08)">
<use xlink:href="#k"/>
<use x="60.818359" xlink:href="#d"/>
<use x="122.341797" xlink:href="#j"/>
<use x="163.439453" xlink:href="#l"/>
<use x="260.851562" xlink:href="#i"/>
<use x="288.634766" xlink:href="#h"/>
<use x="352.013672" xlink:href="#g"/>
<use x="413.292969" xlink:href="#f"/>
</g>
</g>
<path d="m776.01 702.36v35.285q0 2.4 2.4 2.4h7.7425q2.4 0 2.4-2.4v-35.285q0-2.4-2.4-2.4h-7.7425q-2.4 0-2.4 2.4z" clip-path="url(#a)" fill="#fff" stroke="#fff"/>
<g clip-path="url(#a)">
<g transform="translate(780.07 702.36) rotate(90) scale(.08 -.08)">
<use xlink:href="#k"/>
<use x="60.818359" xlink:href="#d"/>
<use x="122.341797" xlink:href="#j"/>
<use x="163.439453" xlink:href="#l"/>
<use x="260.851562" xlink:href="#i"/>
<use x="288.634766" xlink:href="#h"/>
<use x="352.013672" xlink:href="#g"/>
<use x="413.292969" xlink:href="#f"/>
</g>
</g>
<path d="m1355.3 702.36v35.285q0 2.4 2.4 2.4h7.7425q2.4 0 2.4-2.4v-35.285q0-2.4-2.4-2.4h-7.7425q-2.4 0-2.4 2.4z" clip-path="url(#a)" fill="#fff" stroke="#fff"/>
<g clip-path="url(#a)">
<g transform="translate(1359.4 702.36) rotate(90) scale(.08 -.08)">
<use xlink:href="#k"/>
<use x="60.818359" xlink:href="#d"/>
<use x="122.341797" xlink:href="#j"/>
<use x="163.439453" xlink:href="#l"/>
<use x="260.851562" xlink:href="#i"/>
<use x="288.634766" xlink:href="#h"/>
<use x="352.013672" xlink:href="#g"/>
<use x="413.292969" xlink:href="#f"/>
</g>
</g>
<defs>
<path id="b" d="m0 8.6603c2.2967 0 4.4997-0.9125 6.1237-2.5365 1.624-1.624 2.5365-3.827 2.5365-6.1237s-0.9125-4.4997-2.5365-6.1237c-1.624-1.624-3.827-2.5365-6.1237-2.5365s-4.4997 0.9125-6.1237 2.5365c-1.624 1.624-2.5365 3.827-2.5365 6.1237s0.9125 4.4997 2.5365 6.1237c1.624 1.624 3.827 2.5365 6.1237 2.5365z"/>
</defs>
<g clip-path="url(#a)">
<use x="69.273717" y="762.966661" fill="#ffffff" stroke="#ffffff" xlink:href="#b"/>
</g>
<g clip-path="url(#a)">
<use x="113.836703" y="762.966661" fill="#ffffff" stroke="#ffffff" xlink:href="#b"/>
</g>
<g clip-path="url(#a)">
<use x="158.399689" y="762.966661" fill="#ffffff" stroke="#ffffff" xlink:href="#b"/>
</g>
<g clip-path="url(#a)">
<use x="202.962675" y="762.966661" fill="#ffffff" stroke="#ffffff" xlink:href="#b"/>
</g>
<g clip-path="url(#a)">
<use x="247.525661" y="762.966661" fill="#ffffff" stroke="#ffffff" xlink:href="#b"/>
</g>
<g clip-path="url(#a)">
<use x="292.088647" y="762.966661" fill="#ffffff" stroke="#ffffff" xlink:href="#b"/>
</g>
<g clip-path="url(#a)">
<use x="336.651633" y="762.966661" fill="#ffffff" stroke="#ffffff" xlink:href="#b"/>
</g>
<g clip-path="url(#a)">
<use x="381.214619" y="762.966661" fill="#ffffff" stroke="#ffffff" xlink:href="#b"/>
</g>
<g clip-path="url(#a)">
<use x="425.777605" y="762.966661" fill="#ffffff" stroke="#ffffff" xlink:href="#b"/>
</g>
<g clip-path="url(#a)">
<use x="470.340591" y="762.966661" fill="#ffffff" stroke="#ffffff" xlink:href="#b"/>
</g>
<g clip-path="url(#a)">
<use x="514.903577" y="762.966661" fill="#ffffff" stroke="#ffffff" xlink:href="#b"/>
</g>
<g clip-path="url(#a)">
<use x="559.466563" y="762.966661" fill="#ffffff" stroke="#ffffff" xlink:href="#b"/>
</g>
<g clip-path="url(#a)">
<use x="604.029549" y="762.966661" fill="#ffffff" stroke="#ffffff" xlink:href="#b"/>
</g>
<g clip-path="url(#a)">
<use x="648.592535" y="762.966661" fill="#ffffff" stroke="#ffffff" xlink:href="#b"/>
</g>
<g clip-path="url(#a)">
<use x="693.155521" y="762.966661" fill="#ffffff" stroke="#ffffff" xlink:href="#b"/>
</g>
<g clip-path="url(#a)">
<use x="737.718507" y="762.966661" fill="#ffffff" stroke="#ffffff" xlink:href="#b"/>
</g>
<g clip-path="url(#a)">
<use x="782.281493" y="762.966661" fill="#ffffff" stroke="#ffffff" xlink:href="#b"/>
</g>
<g clip-path="url(#a)">
<use x="826.844479" y="762.966661" fill="#ffffff" stroke="#ffffff" xlink:href="#b"/>
</g>
<g clip-path="url(#a)">
<use x="871.407465" y="762.966661" fill="#ffffff" stroke="#ffffff" xlink:href="#b"/>
</g>
<g clip-path="url(#a)">
<use x="915.970451" y="762.966661" fill="#ffffff" stroke="#ffffff" xlink:href="#b"/>
</g>
<g clip-path="url(#a)">
<use x="960.533437" y="762.966661" fill="#ffffff" stroke="#ffffff" xlink:href="#b"/>
</g>
<g clip-path="url(#a)">
<use x="1005.096423" y="762.966661" fill="#ffffff" stroke="#ffffff" xlink:href="#b"/>
</g>
<g clip-path="url(#a)">
<use x="1049.659409" y="762.966661" fill="#ffffff" stroke="#ffffff" xlink:href="#b"/>
</g>
<g clip-path="url(#a)">
<use x="1094.222395" y="762.966661" fill="#ffffff" stroke="#ffffff" xlink:href="#b"/>
</g>
<g clip-path="url(#a)">
<use x="1138.785381" y="762.966661" fill="#ffffff" stroke="#ffffff" xlink:href="#b"/>
</g>
<g clip-path="url(#a)">
<use x="1183.348367" y="762.966661" fill="#ffffff" stroke="#ffffff" xlink:href="#b"/>
</g>
<g clip-path="url(#a)">
<use x="1227.911353" y="762.966661" fill="#ffffff" stroke="#ffffff" xlink:href="#b"/>
</g>
<g clip-path="url(#a)">
<use x="1272.474339" y="762.966661" fill="#ffffff" stroke="#ffffff" xlink:href="#b"/>
</g>
<g clip-path="url(#a)">
<use x="1317.037325" y="762.966661" fill="#ffffff" stroke="#ffffff" xlink:href="#b"/>
</g>
<g clip-path="url(#a)">
<use x="1361.600311" y="762.966661" fill="#ffffff" stroke="#ffffff" xlink:href="#b"/>
</g>
<g clip-path="url(#a)">
<use x="220.817578" y="37.033339" fill="#ffffff" stroke="#ffffff" xlink:href="#b"/>
</g>
<g clip-path="url(#a)">
<use x="220.817578" y="135.554902" fill="#ffffff" stroke="#ffffff" xlink:href="#b"/>
</g>
<g clip-path="url(#a)">
<use x="113.836703" y="591.121003" fill="#ffffff" stroke="#ffffff" xlink:href="#b"/>
</g>
<g clip-path="url(#a)">
<use x="113.836703" y="677.043832" fill="#ffffff" stroke="#ffffff" xlink:href="#b"/>
</g>
<g clip-path="url(#a)">
<use x="434.779328" y="231.257763" fill="#ffffff" stroke="#ffffff" xlink:href="#b"/>
</g>
<g clip-path="url(#a)">
<use x="202.962675" y="677.043832" fill="#ffffff" stroke="#ffffff" xlink:href="#b"/>
</g>
<g clip-path="url(#a)">
<use x="247.525661" y="677.043832" fill="#ffffff" stroke="#ffffff" xlink:href="#b"/>
</g>
<g clip-path="url(#a)">
<use x="663.446864" y="591.121003" fill="#ffffff" stroke="#ffffff" xlink:href="#b"/>
</g>
<g clip-path="url(#a)">
<use x="723.309808" y="324.388394" fill="#ffffff" stroke="#ffffff" xlink:href="#b"/>
</g>
<g clip-path="url(#a)">
<use x="381.214619" y="677.043832" fill="#ffffff" stroke="#ffffff" xlink:href="#b"/>
</g>
<g clip-path="url(#a)">
<use x="543.126801" y="415.207258" fill="#ffffff" stroke="#ffffff" xlink:href="#b"/>
</g>
<g clip-path="url(#a)">
<use x="826.844479" y="677.043832" fill="#ffffff" stroke="#ffffff" xlink:href="#b"/>
</g>
<g clip-path="url(#a)">
<use x="1083.081649" y="415.207258" fill="#ffffff" stroke="#ffffff" xlink:href="#b"/>
</g>
<g clip-path="url(#a)">
<use x="943.822317" y="504.002893" fill="#ffffff" stroke="#ffffff" xlink:href="#b"/>
</g>
<g clip-path="url(#a)">
<use x="1094.222395" y="677.043832" fill="#ffffff" stroke="#ffffff" xlink:href="#b"/>
</g>
<g clip-path="url(#a)">
<use x="1211.200234" y="504.002893" fill="#ffffff" stroke="#ffffff" xlink:href="#b"/>
</g>
<g clip-path="url(#a)">
<use x="1138.785381" y="677.043832" fill="#ffffff" stroke="#ffffff" xlink:href="#b"/>
</g>
<g clip-path="url(#a)">
<use x="1183.348367" y="677.043832" fill="#ffffff" stroke="#ffffff" xlink:href="#b"/>
</g>
<g clip-path="url(#a)">
<use x="1205.62986" y="591.121003" fill="#ffffff" stroke="#ffffff" xlink:href="#b"/>
</g>
<g clip-path="url(#a)">
<use x="1317.037325" y="591.121003" fill="#ffffff" stroke="#ffffff" xlink:href="#b"/>
</g>
<g clip-path="url(#a)">
<use x="1272.474339" y="677.043832" fill="#ffffff" stroke="#ffffff" xlink:href="#b"/>
</g>
<g clip-path="url(#a)">
<use x="1317.037325" y="677.043832" fill="#ffffff" stroke="#ffffff" xlink:href="#b"/>
</g>
<g clip-path="url(#a)">
<use x="1227.911353" y="677.043832" fill="#ffffff" stroke="#ffffff" xlink:href="#b"/>
</g>
<g clip-path="url(#a)">
<use x="871.407465" y="677.043832" fill="#ffffff" stroke="#ffffff" xlink:href="#b"/>
</g>
<g clip-path="url(#a)">
<use x="915.970451" y="677.043832" fill="#ffffff" stroke="#ffffff" xlink:href="#b"/>
</g>
<g clip-path="url(#a)">
<use x="960.533437" y="677.043832" fill="#ffffff" stroke="#ffffff" xlink:href="#b"/>
</g>
<g clip-path="url(#a)">
<use x="1027.377916" y="591.121003" fill="#ffffff" stroke="#ffffff" xlink:href="#b"/>
</g>
<g clip-path="url(#a)">
<use x="1005.096423" y="677.043832" fill="#ffffff" stroke="#ffffff" xlink:href="#b"/>
</g>
<g clip-path="url(#a)">
<use x="1049.659409" y="677.043832" fill="#ffffff" stroke="#ffffff" xlink:href="#b"/>
</g>
<g clip-path="url(#a)">
<use x="425.777605" y="677.043832" fill="#ffffff" stroke="#ffffff" xlink:href="#b"/>
</g>
<g clip-path="url(#a)">
<use x="470.340591" y="677.043832" fill="#ffffff" stroke="#ffffff" xlink:href="#b"/>
</g>
<g clip-path="url(#a)">
<use x="733.262208" y="504.002893" fill="#ffffff" stroke="#ffffff" xlink:href="#b"/>
</g>
<g clip-path="url(#a)">
<use x="1406.163297" y="762.966661" fill="#ffffff" stroke="#ffffff" xlink:href="#b"/>
</g>
<g clip-path="url(#a)">
<use x="514.903577" y="677.043832" fill="#ffffff" stroke="#ffffff" xlink:href="#b"/>
</g>
<g clip-path="url(#a)">
<use x="581.748056" y="591.121003" fill="#ffffff" stroke="#ffffff" xlink:href="#b"/>
</g>
<g clip-path="url(#a)">
<use x="693.155521" y="591.121003" fill="#ffffff" stroke="#ffffff" xlink:href="#b"/>
</g>
<g clip-path="url(#a)">
<use x="648.592535" y="677.043832" fill="#ffffff" stroke="#ffffff" xlink:href="#b"/>
</g>
<g clip-path="url(#a)">
<use x="693.155521" y="677.043832" fill="#ffffff" stroke="#ffffff" xlink:href="#b"/>
</g>
<g clip-path="url(#a)">
<use x="737.718507" y="677.043832" fill="#ffffff" stroke="#ffffff" xlink:href="#b"/>
</g>
<g clip-path="url(#a)">
<use x="559.466563" y="677.043832" fill="#ffffff" stroke="#ffffff" xlink:href="#b"/>
</g>
<g clip-path="url(#a)">
<use x="604.029549" y="677.043832" fill="#ffffff" stroke="#ffffff" xlink:href="#b"/>
</g>
<g clip-path="url(#a)">
<use x="1450.726283" y="762.966661" fill="#ffffff" stroke="#ffffff" xlink:href="#b"/>
</g>
<g clip-path="url(#a)">
<use x="292.088647" y="677.043832" fill="#ffffff" stroke="#ffffff" xlink:href="#b"/>
</g>
<g clip-path="url(#a)">
<use x="69.273717" y="677.043832" fill="#ffffff" stroke="#ffffff" xlink:href="#b"/>
</g>
<g clip-path="url(#a)">
<use x="158.399689" y="677.043832" fill="#ffffff" stroke="#ffffff" xlink:href="#b"/>
</g>
<g clip-path="url(#a)">
<use x="336.651633" y="677.043832" fill="#ffffff" stroke="#ffffff" xlink:href="#b"/>
</g>
<g clip-path="url(#a)">
<use x="782.281493" y="677.043832" fill="#ffffff" stroke="#ffffff" xlink:href="#b"/>
</g>
<g clip-path="url(#a)">
<use x="1361.600311" y="677.043832" fill="#ffffff" stroke="#ffffff" xlink:href="#b"/>
</g>
<g clip-path="url(#a)">
<defs>
<path id="u" d="m30.609 48.391q-7.2188 0-11.422-5.6406t-4.2031-15.453 4.1719-15.453q4.1875-5.6406 11.453-5.6406 7.1875 0 11.375 5.6562 4.2031 5.6719 4.2031 15.438 0 9.7188-4.2031 15.406-4.1875 5.6875-11.375 5.6875zm0 7.6094q11.719 0 18.406-7.625 6.7031-7.6094 6.7031-21.078 0-13.422-6.7031-21.078-6.6875-7.6406-18.406-7.6406-11.766 0-18.438 7.6406-6.6562 7.6562-6.6562 21.078 0 13.469 6.6562 21.078 6.6719 7.625 18.438 7.625z"/>
<path id="s" d="m8.5 21.578v33.109h8.9844v-32.766q0-7.7656 3.0156-11.656 3.0312-3.875 9.0938-3.875 7.2656 0 11.484 4.6406 4.2344 4.6406 4.2344 12.656v31h8.9844v-54.688h-8.9844v8.4062q-3.2656-4.9844-7.5938-7.4062-4.3125-2.4219-10.031-2.4219-9.4219 0-14.312 5.8594-4.875 5.8594-4.875 17.141z"/>
<path id="m" d="m44.281 53.078v-8.5q-3.7969 1.9531-7.9062 2.9219-4.0938 0.98438-8.5 0.98438-6.6875 0-10.031-2.0469t-3.3438-6.1562q0-3.125 2.3906-4.9062t9.625-3.3906l3.0781-0.6875q9.5625-2.0469 13.594-5.7812t4.0312-10.422q0-7.625-6.0312-12.078-6.0312-4.4375-16.578-4.4375-4.3906 0-9.1562 0.85938t-10.031 2.5625v9.2812q4.9844-2.5938 9.8125-3.8906 4.8281-1.2812 9.5781-1.2812 6.3438 0 9.75 2.1719 3.4219 2.1719 3.4219 6.125 0 3.6562-2.4688 5.6094-2.4531 1.9531-10.812 3.7656l-3.125 0.73438q-8.3438 1.75-12.062 5.3906-3.7031 3.6406-3.7031 9.9844 0 7.7188 5.4688 11.906 5.4688 4.2031 15.531 4.2031 4.9688 0 9.3594-0.73438 4.4062-0.71875 8.1094-2.1875z"/>
</defs>
<g transform="translate(56.7 765.73) scale(.1 -.1)">
<use xlink:href="#ak"/>
<use x="74.804688" xlink:href="#u"/>
<use x="135.986328" xlink:href="#s"/>
<use x="199.365234" xlink:href="#m"/>
</g>
</g>
<g clip-path="url(#a)">
<defs>
<path id="ad" d="m18.109 8.2031v-29h-9.0312v75.484h9.0312v-8.2969q2.8438 4.875 7.1562 7.2344 4.3281 2.375 10.328 2.375 9.9688 0 16.188-7.9062 6.2344-7.9062 6.2344-20.797t-6.2344-20.812q-6.2188-7.9062-16.188-7.9062-6 0-10.328 2.375-4.3125 2.375-7.1562 7.25zm30.578 19.094q0 9.9062-4.0781 15.547t-11.203 5.6406q-7.1406 0-11.219-5.6406t-4.0781-15.547 4.0781-15.547 11.219-5.6406q7.125 0 11.203 5.6406t4.0781 15.547z"/>
<path id="ao" d="m56.203 29.594v-4.3906h-41.312q0.59375-9.2812 5.5938-14.141t13.938-4.8594q5.1719 0 10.031 1.2656t9.6562 3.8125v-8.5q-4.8438-2.0469-9.9219-3.125t-10.297-1.0781q-13.094 0-20.734 7.6094-7.6406 7.625-7.6406 20.625 0 13.422 7.25 21.297 7.25 7.8906 19.562 7.8906 11.031 0 17.453-7.1094 6.4219-7.0938 6.4219-19.297zm-8.9844 2.6406q-0.09375 7.3594-4.125 11.75-4.0312 4.4062-10.672 4.4062-7.5156 0-12.031-4.25t-5.2031-11.969zm-8.6875 47.75h9.7188l-15.906-18.359h-7.4844z"/>
<path id="ae" d="m45.406 46.391v29.594h8.9844v-75.984h-8.9844v8.2031q-2.8281-4.875-7.1562-7.25-4.3125-2.375-10.375-2.375-9.9062 0-16.141 7.9062-6.2188 7.9219-6.2188 20.812t6.2188 20.797q6.2344 7.9062 16.141 7.9062 6.0625 0 10.375-2.375 4.3281-2.3594 7.1562-7.2344zm-30.609-19.094q0-9.9062 4.0781-15.547t11.203-5.6406 11.219 5.6406q4.1094 5.6406 4.1094 15.547t-4.1094 15.547q-4.0938 5.6406-11.219 5.6406t-11.203-5.6406-4.0781-15.547z"/>
</defs>
<g transform="translate(85.921 765.93) scale(.1 -.1)">
<use xlink:href="#ad"/>
<use x="63.476562" xlink:href="#u"/>
<use x="124.658203" xlink:href="#m"/>
<use x="176.757812" xlink:href="#m"/>
<use x="228.857422" xlink:href="#ao"/>
<use x="290.380859" xlink:href="#ae"/>
<use x="353.857422" xlink:href="#i"/>
<use x="381.640625" xlink:href="#u"/>
<use x="442.822266" xlink:href="#h"/>
<use x="506.201172" xlink:href="#m"/>
</g>
</g>
<g clip-path="url(#a)">
<defs>
<path id="aq" d="m18.312 70.219v-15.531h18.5v-6.9844h-18.5v-29.688q0-6.6875 1.8281-8.5938t7.4531-1.9062h9.2188v-7.5156h-9.2188q-10.406 0-14.359 3.875-3.9531 3.8906-3.9531 14.141v29.688h-6.5938v6.9844h6.5938v15.531z"/>
</defs>
<g transform="translate(147.61 765.73) scale(.1 -.1)">
<use xlink:href="#aq"/>
<use x="39.208984" xlink:href="#u"/>
<use x="100.390625" xlink:href="#s"/>
<use x="163.769531" xlink:href="#m"/>
</g>
</g>
<g clip-path="url(#a)">
<g transform="translate(195.89 765.73) scale(.1 -.1)">
<use xlink:href="#f"/>
<use x="27.783203" xlink:href="#d"/>
<use x="89.306641" xlink:href="#m"/>
</g>
</g>
<g clip-path="url(#a)">
<defs>
<path id="at" d="m45.406 27.984q0 9.7656-4.0312 15.125-4.0156 5.375-11.297 5.375-7.2188 0-11.25-5.375-4.0312-5.3594-4.0312-15.125 0-9.7188 4.0312-15.094t11.25-5.375q7.2812 0 11.297 5.375 4.0312 5.375 4.0312 15.094zm8.9844-21.203q0-13.953-6.2031-20.766-6.1875-6.8125-18.984-6.8125-4.7344 0-8.9375 0.70312t-8.1562 2.1719v8.7344q3.9531-2.1406 7.8125-3.1562 3.8594-1.0312 7.8594-1.0312 8.8438 0 13.234 4.6094t4.3906 13.938v4.4531q-2.7812-4.8438-7.125-7.2344t-10.406-2.3906q-10.047 0-16.203 7.6562-6.1562 7.6719-6.1562 20.328 0 12.688 6.1562 20.344 6.1562 7.6719 16.203 7.6719 6.0625 0 10.406-2.3906t7.125-7.2188v8.2969h8.9844z"/>
</defs>
<g transform="translate(230.94 765.73) scale(.1 -.1)">
<use xlink:href="#d"/>
<use x="61.523438" xlink:href="#h"/>
<use x="124.902344" xlink:href="#at"/>
<use x="188.378906" xlink:href="#i"/>
<use x="216.162109" xlink:href="#h"/>
<use x="279.541016" xlink:href="#m"/>
</g>
</g>
<g clip-path="url(#a)">
<defs>
<path id="af" d="m48.781 52.594v-8.4062q-3.8125 2.1094-7.6406 3.1562t-7.7344 1.0469q-8.75 0-13.594-5.5469-4.8281-5.5312-4.8281-15.547t4.8281-15.562q4.8438-5.5312 13.594-5.5312 3.9062 0 7.7344 1.0469t7.6406 3.1562v-8.3125q-3.7656-1.75-7.7969-2.625-4.0156-0.89062-8.5625-0.89062-12.359 0-19.641 7.7656-7.2656 7.7656-7.2656 20.953 0 13.375 7.3438 21.031 7.3594 7.6719 20.156 7.6719 4.1406 0 8.0938-0.85938 3.9531-0.84375 7.6719-2.5469z"/>
</defs>
<g transform="translate(274.17 765.73) scale(.1 -.1)">
<use xlink:href="#af"/>
<use x="54.980469" xlink:href="#u"/>
<use x="116.162109" xlink:href="#h"/>
<use x="179.541016" xlink:href="#h"/>
<use x="242.919922" xlink:href="#s"/>
<use x="306.298828" xlink:href="#m"/>
</g>
</g>
<g clip-path="url(#a)">
<defs>
<path id="an" d="m11.719 12.406h10.297v-8.4062l-8-15.625h-6.2969l4 15.625z"/>
</defs>
<g transform="translate(335.06 765.73) scale(.1 -.1)">
<use xlink:href="#an"/>
</g>
</g>
<g clip-path="url(#a)">
<g transform="translate(364.63 765.73) scale(.1 -.1)">
<use xlink:href="#ae"/>
<use x="63.476562" xlink:href="#d"/>
<use x="125" xlink:href="#ad"/>
<use x="188.476562" xlink:href="#s"/>
<use x="251.855469" xlink:href="#i"/>
<use x="279.638672" xlink:href="#m"/>
</g>
</g>
<g clip-path="url(#a)">
<g transform="translate(421.31 765.73) scale(.1 -.1)">
<use xlink:href="#f"/>
<use x="27.783203" xlink:href="#d"/>
</g>
</g>
<g clip-path="url(#a)">
<defs>
<path id="as" d="m54.891 33.016v-33.016h-8.9844v32.719q0 7.7656-3.0312 11.609-3.0312 3.8594-9.0781 3.8594-7.2812 0-11.484-4.6406-4.2031-4.625-4.2031-12.641v-30.906h-9.0312v75.984h9.0312v-29.797q3.2344 4.9375 7.5938 7.375 4.375 2.4375 10.094 2.4375 9.4219 0 14.25-5.8281 4.8438-5.8281 4.8438-17.156z"/>
</defs>
<g transform="translate(452.65 765.73) scale(.1 -.1)">
<use xlink:href="#as"/>
<use x="63.378906" xlink:href="#g"/>
<use x="124.658203" xlink:href="#j"/>
<use x="165.771484" xlink:href="#ad"/>
<use x="229.248047" xlink:href="#u"/>
<use x="290.429688" xlink:href="#h"/>
</g>
</g>
<g clip-path="url(#a)">
<defs>
<path id="ar" d="m14.797 27.297q0-9.9062 4.0781-15.547t11.203-5.6406 11.219 5.6406q4.1094 5.6406 4.1094 15.547t-4.1094 15.547q-4.0938 5.6406-11.219 5.6406t-11.203-5.6406-4.0781-15.547zm30.609-19.094q-2.8281-4.875-7.1562-7.25-4.3125-2.375-10.375-2.375-9.9062 0-16.141 7.9062-6.2188 7.9219-6.2188 20.812t6.2188 20.797q6.2344 7.9062 16.141 7.9062 6.0625 0 10.375-2.375 4.3281-2.3594 7.1562-7.2344v8.2969h8.9844v-75.484h-8.9844z"/>
</defs>
<g transform="translate(507.17 765.73) scale(.1 -.1)">
<use xlink:href="#ar"/>
<use x="63.476562" xlink:href="#s"/>
<use x="126.855469" xlink:href="#i"/>
</g>
</g>
<g clip-path="url(#a)">
<g transform="translate(553.79 765.73) scale(.1 -.1)">
<use xlink:href="#m"/>
<use x="52.099609" xlink:href="#d"/>
</g>
</g>
<g clip-path="url(#a)">
<g transform="translate(590.58 765.73) scale(.1 -.1)">
<use xlink:href="#f"/>
<use x="27.783203" xlink:href="#g"/>
<use x="89.0625" xlink:href="#h"/>
<use x="152.441406" xlink:href="#af"/>
<use x="207.421875" xlink:href="#d"/>
</g>
</g>
<g clip-path="url(#a)">
<defs>
<path id="ax" d="m34.281 27.484q-10.891 0-15.094-2.4844t-4.2031-8.5q0-4.7812 3.1562-7.5938 3.1562-2.7969 8.5625-2.7969 7.4844 0 12 5.2969t4.5156 14.078v2zm17.922 3.7188v-31.203h-8.9844v8.2969q-3.0781-4.9688-7.6719-7.3438t-11.234-2.375q-8.3906 0-13.359 4.7188-4.9531 4.7188-4.9531 12.625 0 9.2188 6.1719 13.906 6.1875 4.6875 18.438 4.6875h12.609v0.89062q0 6.2031-4.0781 9.5938t-11.453 3.3906q-4.6875 0-9.1406-1.125-4.4375-1.125-8.5312-3.375v8.3125q4.9219 1.9062 9.5625 2.8438 4.6406 0.95312 9.0312 0.95312 11.875 0 17.734-6.1562 5.8594-6.1406 5.8594-18.641zm-30.281 48.781 13.766-18.266h-7.4688l-15.922 18.266z"/>
</defs>
<g transform="translate(645.53 765.73) scale(.1 -.1)">
<use xlink:href="#ax"/>
</g>
</g>
<g clip-path="url(#a)">
<g transform="translate(688.7 765.73) scale(.1 -.1)">
<use xlink:href="#f"/>
<use x="27.783203" xlink:href="#g"/>
</g>
</g>
<g clip-path="url(#a)">
<g transform="translate(725.23 765.73) scale(.1 -.1)">
<use xlink:href="#l"/>
<use x="97.412109" xlink:href="#g"/>
<use x="158.691406" xlink:href="#i"/>
<use x="186.474609" xlink:href="#h"/>
</g>
</g>
<g clip-path="url(#a)">
<g transform="translate(780.69 765.73) scale(.1 -.1)">
<use xlink:href="#an"/>
</g>
</g>
<g clip-path="url(#a)">
<defs>
<path id="ay" d="m9.4219 54.688h8.9844v-55.672q0-10.438-3.9844-15.125-3.9688-4.6875-12.812-4.6875h-3.4219v7.6094h2.4062q5.125 0 6.9688 2.375 1.8594 2.3594 1.8594 9.8281zm0 21.297h8.9844v-11.391h-8.9844z"/>
<path id="aw" d="m17.922 72.906v-27.109h-8.2969v27.109z"/>
</defs>
<g transform="translate(811.96 765.73) scale(.1 -.1)">
<use xlink:href="#ay"/>
<use x="27.783203" xlink:href="#s"/>
<use x="91.162109" xlink:href="#m"/>
<use x="143.261719" xlink:href="#ar"/>
<use x="206.738281" xlink:href="#s"/>
<use x="270.117188" xlink:href="#aw"/>
</g>
</g>
<g clip-path="url(#a)">
<defs>
<path id="aj" d="m54.891 54.688-19.781-26.609 20.797-28.078h-10.594l-15.922 21.484-15.906-21.484h-10.609l21.25 28.609-19.438 26.078h10.594l14.5-19.484 14.5 19.484z"/>
</defs>
<g transform="translate(862.22 765.73) scale(.1 -.1)">
<use xlink:href="#g"/>
<use x="61.279297" xlink:href="#s"/>
<use x="124.658203" xlink:href="#aj"/>
</g>
</g>
<g clip-path="url(#a)">
<defs>
<path id="az" d="m37.109 75.984v-7.4844h-8.5938q-4.8281 0-6.7188-1.9531-1.875-1.9531-1.875-7.0312v-4.8281h14.797v-6.9844h-14.797v-47.703h-9.0312v47.703h-8.5938v6.9844h8.5938v3.8125q0 9.125 4.25 13.297 4.25 4.1875 13.469 4.1875z"/>
<path id="ap" d="m56.203 29.594v-4.3906h-41.312q0.59375-9.2812 5.5938-14.141t13.938-4.8594q5.1719 0 10.031 1.2656t9.6562 3.8125v-8.5q-4.8438-2.0469-9.9219-3.125t-10.297-1.0781q-13.094 0-20.734 7.6094-7.6406 7.625-7.6406 20.625 0 13.422 7.25 21.297 7.25 7.8906 19.562 7.8906 11.031 0 17.453-7.1094 6.4219-7.0938 6.4219-19.297zm-8.9844 2.6406q-0.09375 7.3594-4.125 11.75-4.0312 4.4062-10.672 4.4062-7.5156 0-12.031-4.25t-5.2031-11.969zm-22.547 47.75 13.766-18.266h-7.4688l-15.922 18.266z"/>
</defs>
<g transform="translate(898.15 765.73) scale(.1 -.1)">
<use xlink:href="#az"/>
<use x="35.205078" xlink:href="#f"/>
<use x="62.988281" xlink:href="#ap"/>
<use x="124.511719" xlink:href="#af"/>
<use x="179.492188" xlink:href="#as"/>
<use x="242.871094" xlink:href="#d"/>
<use x="304.394531" xlink:href="#m"/>
</g>
</g>
<g clip-path="url(#a)">
<defs>
<path id="ag" d="m48.688 27.297q0 9.9062-4.0781 15.547t-11.203 5.6406q-7.1406 0-11.219-5.6406t-4.0781-15.547 4.0781-15.547 11.219-5.6406q7.125 0 11.203 5.6406t4.0781 15.547zm-30.578 19.094q2.8438 4.875 7.1562 7.2344 4.3281 2.375 10.328 2.375 9.9688 0 16.188-7.9062 6.2344-7.9062 6.2344-20.797t-6.2344-20.812q-6.2188-7.9062-16.188-7.9062-6 0-10.328 2.375-4.3125 2.375-7.1562 7.25v-8.2031h-9.0312v75.984h9.0312z"/>
</defs>
<g transform="translate(935.84 765.73) scale(.1 -.1)">
<use xlink:href="#ag"/>
<use x="63.476562" xlink:href="#g"/>
<use x="124.755859" xlink:href="#j"/>
<use x="165.869141" xlink:href="#ag"/>
<use x="229.345703" xlink:href="#d"/>
<use x="290.869141" xlink:href="#f"/>
<use x="318.652344" xlink:href="#ao"/>
<use x="380.175781" xlink:href="#d"/>
<use x="441.699219" xlink:href="#m"/>
</g>
</g>
<g clip-path="url(#a)">
<g transform="translate(996.24 765.73) scale(.1 -.1)">
<use xlink:href="#ae"/>
<use x="63.476562" xlink:href="#d"/>
<use x="125" xlink:href="#m"/>
</g>
</g>
<g clip-path="url(#a)">
<g transform="translate(1022.9 765.73) scale(.1 -.1)">
<use xlink:href="#d"/>
<use x="61.523438" xlink:href="#m"/>
<use x="113.623047" xlink:href="#ad"/>
<use x="177.099609" xlink:href="#i"/>
<use x="204.882812" xlink:href="#h"/>
<use x="268.261719" xlink:href="#at"/>
<use x="331.738281" xlink:href="#u"/>
<use x="392.919922" xlink:href="#f"/>
<use x="420.703125" xlink:href="#d"/>
<use x="482.226562" xlink:href="#m"/>
</g>
</g>
<g clip-path="url(#a)">
<g transform="translate(1089.2 765.73) scale(.1 -.1)">
<use xlink:href="#d"/>
<use x="61.523438" xlink:href="#aq"/>
</g>
</g>
<g clip-path="url(#a)">
<g transform="translate(1129.6 765.73) scale(.1 -.1)">
<use xlink:href="#g"/>
<use x="61.279297" xlink:href="#s"/>
<use x="124.658203" xlink:href="#aj"/>
</g>
</g>
<g clip-path="url(#a)">
<g transform="translate(1168.7 765.73) scale(.1 -.1)">
<use xlink:href="#ag"/>
<use x="63.476562" xlink:href="#g"/>
<use x="124.755859" xlink:href="#f"/>
<use x="152.539062" xlink:href="#f"/>
<use x="180.322266" xlink:href="#d"/>
<use x="241.845703" xlink:href="#m"/>
</g>
</g>
<g clip-path="url(#a)">
<g transform="translate(1200 765.73) scale(.1 -.1)">
<use xlink:href="#d"/>
<use x="61.507812" xlink:href="#aj"/>
<use x="120.6875" xlink:href="#ad"/>
<use x="184.164062" xlink:href="#f"/>
<use x="211.947266" xlink:href="#u"/>
<use x="273.128906" xlink:href="#m"/>
<use x="325.228516" xlink:href="#i"/>
<use x="353.011719" xlink:href="#ag"/>
<use x="416.488281" xlink:href="#f"/>
<use x="444.271484" xlink:href="#d"/>
<use x="505.794922" xlink:href="#m"/>
</g>
</g>
<g clip-path="url(#a)">
<g transform="translate(1263.6 765.73) scale(.1 -.1)">
<use xlink:href="#ae"/>
<use x="63.476562" xlink:href="#d"/>
<use x="125" xlink:href="#m"/>
</g>
</g>
<g clip-path="url(#a)">
<g transform="translate(1287.6 765.73) scale(.1 -.1)">
<use xlink:href="#af"/>
<use x="54.980469" xlink:href="#g"/>
<use x="116.259766" xlink:href="#h"/>
<use x="179.638672" xlink:href="#g"/>
<use x="240.917969" xlink:href="#j"/>
<use x="282.015625" xlink:href="#ae"/>
<use x="345.492188" xlink:href="#i"/>
<use x="373.275391" xlink:href="#ap"/>
<use x="434.798828" xlink:href="#j"/>
<use x="475.880859" xlink:href="#d"/>
<use x="537.404297" xlink:href="#m"/>
</g>
</g>
<g clip-path="url(#a)">
<defs>
<path id="e" d="m10.688 12.406h10.312v-12.406h-10.312z"/>
</defs>
<g transform="translate(1360 765.73) scale(.1 -.1)">
<use xlink:href="#e"/>
</g>
</g>
<g clip-path="url(#a)">
<defs>
<path id="c" d="m12.406 8.2969h16.109v55.625l-17.531-3.5156v8.9844l17.438 3.5156h9.8594v-64.609h16.109v-8.2969h-41.984z"/>
</defs>
<g transform="translate(212.87 39.793) scale(.1 -.1)">
<use xlink:href="#c"/>
<use x="63.623047" xlink:href="#e"/>
<use x="95.410156" xlink:href="#c"/>
</g>
</g>
<g clip-path="url(#a)">
<defs>
<path id="o" d="m19.188 8.2969h34.422v-8.2969h-46.281v8.2969q5.6094 5.8125 15.297 15.594 9.7031 9.7969 12.188 12.641 4.7344 5.3125 6.6094 9 1.8906 3.6875 1.8906 7.25 0 5.8125-4.0781 9.4688-4.0781 3.6719-10.625 3.6719-4.6406 0-9.7969-1.6094-5.1406-1.6094-11-4.8906v9.9688q5.9531 2.3906 11.125 3.6094 5.1875 1.2188 9.4844 1.2188 11.328 0 18.062-5.6719 6.7344-5.6562 6.7344-15.125 0-4.5-1.6875-8.5312-1.6719-4.0156-6.125-9.4844-1.2188-1.4219-7.7656-8.1875-6.5312-6.7656-18.453-18.922z"/>
</defs>
<g transform="translate(212.87 138.31) scale(.1 -.1)">
<use xlink:href="#c"/>
<use x="63.623047" xlink:href="#e"/>
<use x="95.410156" xlink:href="#o"/>
</g>
</g>
<g clip-path="url(#a)">
<defs>
<path id="p" d="m37.797 64.312-24.906-38.922h24.906zm-2.5938 8.5938h12.406v-47.516h10.406v-8.2031h-10.406v-17.188h-9.8125v17.188h-32.906v9.5156z"/>
</defs>
<g transform="translate(105.89 593.88) scale(.1 -.1)">
<use xlink:href="#c"/>
<use x="63.623047" xlink:href="#e"/>
<use x="95.410156" xlink:href="#p"/>
</g>
</g>
<g clip-path="url(#a)">
<defs>
<path id="y" d="m10.797 72.906h38.719v-8.3125h-29.688v-17.859q2.1406 0.73438 4.2812 1.0938 2.1562 0.35938 4.3125 0.35938 12.203 0 19.328-6.6875 7.1406-6.6875 7.1406-18.109 0-11.766-7.3281-18.297-7.3281-6.5156-20.656-6.5156-4.5938 0-9.3594 0.78125-4.75 0.78125-9.8281 2.3438v9.9219q4.3906-2.3906 9.0781-3.5625t9.9062-1.1719q8.4531 0 13.375 4.4375 4.9375 4.4375 4.9375 12.062 0 7.6094-4.9375 12.047-4.9219 4.4531-13.375 4.4531-3.9531 0-7.8906-0.875-3.9219-0.875-8.0156-2.7344z"/>
</defs>
<g transform="translate(105.89 679.8) scale(.1 -.1)">
<use xlink:href="#c"/>
<use x="63.623047" xlink:href="#e"/>
<use x="95.410156" xlink:href="#y"/>
</g>
</g>
<g clip-path="url(#a)">
<defs>
<path id="ai" d="m33.016 40.375q-6.6406 0-10.531-4.5469-3.875-4.5312-3.875-12.438 0-7.8594 3.875-12.438 3.8906-4.5625 10.531-4.5625t10.516 4.5625q3.875 4.5781 3.875 12.438 0 7.9062-3.875 12.438-3.875 4.5469-10.516 4.5469zm19.578 30.922v-8.9844q-3.7188 1.75-7.5 2.6719-3.7812 0.9375-7.5 0.9375-9.7656 0-14.922-6.5938-5.1406-6.5938-5.875-19.922 2.875 4.25 7.2188 6.5156 4.3594 2.2656 9.5781 2.2656 10.984 0 17.359-6.6719 6.375-6.6562 6.375-18.125 0-11.234-6.6406-18.031-6.6406-6.7812-17.672-6.7812-12.656 0-19.344 9.6875-6.6875 9.7031-6.6875 28.109 0 17.281 8.2031 27.562t22.016 10.281q3.7188 0 7.5-0.73438t7.8906-2.1875z"/>
</defs>
<g transform="translate(426.83 234.02) scale(.1 -.1)">
<use xlink:href="#c"/>
<use x="63.623047" xlink:href="#e"/>
<use x="95.410156" xlink:href="#ai"/>
</g>
</g>
<g clip-path="url(#a)">
<defs>
<path id="ab" d="m8.2031 72.906h46.875v-4.2031l-26.469-68.703h-10.297l24.906 64.594h-35.016z"/>
</defs>
<g transform="translate(195.01 679.8) scale(.1 -.1)">
<use xlink:href="#c"/>
<use x="63.623047" xlink:href="#e"/>
<use x="95.410156" xlink:href="#ab"/>
</g>
</g>
<g clip-path="url(#a)">
<defs>
<path id="aa" d="m31.781 34.625q-7.0312 0-11.062-3.7656-4.0156-3.7656-4.0156-10.344 0-6.5938 4.0156-10.359 4.0312-3.7656 11.062-3.7656t11.078 3.7812q4.0625 3.7969 4.0625 10.344 0 6.5781-4.0312 10.344-4.0156 3.7656-11.109 3.7656zm-9.8594 4.1875q-6.3438 1.5625-9.8906 5.9062-3.5312 4.3594-3.5312 10.609 0 8.7344 6.2188 13.812 6.2344 5.0781 17.062 5.0781 10.891 0 17.094-5.0781t6.2031-13.812q0-6.25-3.5469-10.609-3.5312-4.3438-9.8281-5.9062 7.125-1.6562 11.094-6.5 3.9844-4.8281 3.9844-11.797 0-10.609-6.4688-16.281-6.4688-5.6562-18.531-5.6562-12.047 0-18.531 5.6562-6.4688 5.6719-6.4688 16.281 0 6.9688 4 11.797 4.0156 4.8438 11.141 6.5zm-3.6094 15.578q0-5.6562 3.5312-8.8281 3.5469-3.1719 9.9375-3.1719 6.3594 0 9.9375 3.1719 3.5938 3.1719 3.5938 8.8281 0 5.6719-3.5938 8.8438-3.5781 3.1719-9.9375 3.1719-6.3906 0-9.9375-3.1719-3.5312-3.1719-3.5312-8.8438z"/>
</defs>
<g transform="translate(239.57 679.8) scale(.1 -.1)">
<use xlink:href="#c"/>
<use x="63.623047" xlink:href="#e"/>
<use x="95.410156" xlink:href="#aa"/>
</g>
</g>
<g clip-path="url(#a)">
<defs>
<path id="z" d="m10.984 1.5156v8.9844q3.7188-1.7656 7.5156-2.6875 3.8125-0.92188 7.4844-0.92188 9.7656 0 14.906 6.5625 5.1562 6.5625 5.8906 19.953-2.8281-4.2031-7.1875-6.4531-4.3438-2.25-9.6094-2.25-10.938 0-17.312 6.6094-6.375 6.625-6.375 18.109 0 11.219 6.6406 18 6.6406 6.7969 17.672 6.7969 12.656 0 19.312-9.7031 6.6719-9.6875 6.6719-28.141 0-17.234-8.1875-27.516-8.1719-10.281-21.984-10.281-3.7188 0-7.5312 0.73438-3.7969 0.73438-7.9062 2.2031zm19.625 30.906q6.6406 0 10.516 4.5312 3.8906 4.5469 3.8906 12.469 0 7.8594-3.8906 12.422-3.875 4.5625-10.516 4.5625t-10.516-4.5625-3.875-12.422q0-7.9219 3.875-12.469 3.875-4.5312 10.516-4.5312z"/>
</defs>
<g transform="translate(655.5 593.88) scale(.1 -.1)">
<use xlink:href="#c"/>
<use x="63.623047" xlink:href="#e"/>
<use x="95.410156" xlink:href="#z"/>
</g>
</g>
<g clip-path="url(#a)">
<defs>
<path id="ac" d="m31.781 66.406q-7.6094 0-11.453-7.5-3.8281-7.4844-3.8281-22.531 0-14.984 3.8281-22.484 3.8438-7.5 11.453-7.5 7.6719 0 11.5 7.5 3.8438 7.5 3.8438 22.484 0 15.047-3.8438 22.531-3.8281 7.5-11.5 7.5zm0 7.8125q12.266 0 18.734-9.7031 6.4688-9.6875 6.4688-28.141 0-18.406-6.4688-28.109-6.4688-9.6875-18.734-9.6875-12.25 0-18.719 9.6875-6.4688 9.7031-6.4688 28.109 0 18.453 6.4688 28.141 6.4688 9.7031 18.719 9.7031z"/>
</defs>
<g transform="translate(712.18 327.15) scale(.1 -.1)">
<use xlink:href="#c"/>
<use x="63.623047" xlink:href="#e"/>
<use x="95.410156" xlink:href="#c"/>
<use x="159.033203" xlink:href="#ac"/>
</g>
</g>
<g clip-path="url(#a)">
<g transform="translate(370.08 679.8) scale(.1 -.1)">
<use xlink:href="#c"/>
<use x="63.623047" xlink:href="#e"/>
<use x="95.410156" xlink:href="#c"/>
<use x="159.033203" xlink:href="#o"/>
</g>
</g>
<g clip-path="url(#a)">
<defs>
<path id="q" d="m40.578 39.312q7.0781-1.5156 11.047-6.3125 3.9844-4.7812 3.9844-11.812 0-10.781-7.4219-16.703-7.4219-5.9062-21.094-5.9062-4.5781 0-9.4375 0.90625t-10.031 2.7188v9.5156q4.0938-2.3906 8.9688-3.6094 4.8906-1.2188 10.219-1.2188 9.2656 0 14.125 3.6562t4.8594 10.641q0 6.4531-4.5156 10.078-4.5156 3.6406-12.562 3.6406h-8.5v8.1094h8.8906q7.2656 0 11.125 2.9062t3.8594 8.375q0 5.6094-3.9844 8.6094-3.9688 3.0156-11.391 3.0156-4.0625 0-8.7031-0.89062-4.6406-0.875-10.203-2.7188v8.7812q5.625 1.5625 10.531 2.3438t9.25 0.78125q11.234 0 17.766-5.1094 6.5469-5.0938 6.5469-13.781 0-6.0625-3.4688-10.234t-9.8594-5.7812z"/>
</defs>
<g transform="translate(531.99 417.97) scale(.1 -.1)">
<use xlink:href="#c"/>
<use x="63.623047" xlink:href="#e"/>
<use x="95.410156" xlink:href="#c"/>
<use x="159.033203" xlink:href="#q"/>
</g>
</g>
<g clip-path="url(#a)">
<g transform="translate(815.71 679.8) scale(.1 -.1)">
<use xlink:href="#c"/>
<use x="63.623047" xlink:href="#e"/>
<use x="95.410156" xlink:href="#c"/>
<use x="159.033203" xlink:href="#p"/>
</g>
</g>
<g clip-path="url(#a)">
<g transform="translate(1071.9 417.97) scale(.1 -.1)">
<use xlink:href="#c"/>
<use x="63.623047" xlink:href="#e"/>
<use x="95.410156" xlink:href="#c"/>
<use x="159.033203" xlink:href="#y"/>
</g>
</g>
<g clip-path="url(#a)">
<g transform="translate(932.69 506.76) scale(.1 -.1)">
<use xlink:href="#c"/>
<use x="63.623047" xlink:href="#e"/>
<use x="95.410156" xlink:href="#c"/>
<use x="159.033203" xlink:href="#ab"/>
</g>
</g>
<g clip-path="url(#a)">
<g transform="translate(1083.1 679.8) scale(.1 -.1)">
<use xlink:href="#c"/>
<use x="63.623047" xlink:href="#e"/>
<use x="95.410156" xlink:href="#c"/>
<use x="159.033203" xlink:href="#aa"/>
</g>
</g>
<g clip-path="url(#a)">
<g transform="translate(1200.1 506.76) scale(.1 -.1)">
<use xlink:href="#c"/>
<use x="63.623047" xlink:href="#e"/>
<use x="95.410156" xlink:href="#c"/>
<use x="159.033203" xlink:href="#z"/>
</g>
</g>
<g clip-path="url(#a)">
<g transform="translate(1127.7 679.8) scale(.1 -.1)">
<use xlink:href="#c"/>
<use x="63.623047" xlink:href="#e"/>
<use x="95.410156" xlink:href="#o"/>
<use x="159.033203" xlink:href="#ac"/>
</g>
</g>
<g clip-path="url(#a)">
<g transform="translate(1172.2 679.8) scale(.1 -.1)">
<use xlink:href="#c"/>
<use x="63.623047" xlink:href="#e"/>
<use x="95.410156" xlink:href="#o"/>
<use x="159.033203" xlink:href="#c"/>
</g>
</g>
<g clip-path="url(#a)">
<g transform="translate(1194.5 593.88) scale(.1 -.1)">
<use xlink:href="#c"/>
<use x="63.623047" xlink:href="#e"/>
<use x="95.410156" xlink:href="#o"/>
<use x="159.033203" xlink:href="#o"/>
</g>
</g>
<g clip-path="url(#a)">
<g transform="translate(1305.9 593.88) scale(.1 -.1)">
<use xlink:href="#c"/>
<use x="63.623047" xlink:href="#e"/>
<use x="95.410156" xlink:href="#o"/>
<use x="159.033203" xlink:href="#q"/>
</g>
</g>
<g clip-path="url(#a)">
<g transform="translate(1261.3 679.8) scale(.1 -.1)">
<use xlink:href="#c"/>
<use x="63.623047" xlink:href="#e"/>
<use x="95.410156" xlink:href="#o"/>
<use x="159.033203" xlink:href="#p"/>
</g>
</g>
<g clip-path="url(#a)">
<g transform="translate(1305.9 679.8) scale(.1 -.1)">
<use xlink:href="#c"/>
<use x="63.623047" xlink:href="#e"/>
<use x="95.410156" xlink:href="#o"/>
<use x="159.033203" xlink:href="#y"/>
</g>
</g>
<g clip-path="url(#a)">
<g transform="translate(1216.8 679.8) scale(.1 -.1)">
<use xlink:href="#c"/>
<use x="63.623047" xlink:href="#e"/>
<use x="95.410156" xlink:href="#o"/>
<use x="159.033203" xlink:href="#ai"/>
</g>
</g>
<g clip-path="url(#a)">
<g transform="translate(860.27 679.8) scale(.1 -.1)">
<use xlink:href="#c"/>
<use x="63.623047" xlink:href="#e"/>
<use x="95.410156" xlink:href="#o"/>
<use x="159.033203" xlink:href="#ab"/>
</g>
</g>
<g clip-path="url(#a)">
<g transform="translate(904.84 679.8) scale(.1 -.1)">
<use xlink:href="#c"/>
<use x="63.623047" xlink:href="#e"/>
<use x="95.410156" xlink:href="#o"/>
<use x="159.033203" xlink:href="#aa"/>
</g>
</g>
<g clip-path="url(#a)">
<g transform="translate(949.4 679.8) scale(.1 -.1)">
<use xlink:href="#c"/>
<use x="63.623047" xlink:href="#e"/>
<use x="95.410156" xlink:href="#o"/>
<use x="159.033203" xlink:href="#z"/>
</g>
</g>
<g clip-path="url(#a)">
<g transform="translate(1016.2 593.88) scale(.1 -.1)">
<use xlink:href="#c"/>
<use x="63.623047" xlink:href="#e"/>
<use x="95.410156" xlink:href="#q"/>
<use x="159.033203" xlink:href="#ac"/>
</g>
</g>
<g clip-path="url(#a)">
<g transform="translate(993.96 679.8) scale(.1 -.1)">
<use xlink:href="#c"/>
<use x="63.623047" xlink:href="#e"/>
<use x="95.410156" xlink:href="#q"/>
<use x="159.033203" xlink:href="#c"/>
</g>
</g>
<g clip-path="url(#a)">
<g transform="translate(1038.5 679.8) scale(.1 -.1)">
<use xlink:href="#c"/>
<use x="63.623047" xlink:href="#e"/>
<use x="95.410156" xlink:href="#q"/>
<use x="159.033203" xlink:href="#o"/>
</g>
</g>
<g clip-path="url(#a)">
<g transform="translate(414.64 679.8) scale(.1 -.1)">
<use xlink:href="#c"/>
<use x="63.623047" xlink:href="#e"/>
<use x="95.410156" xlink:href="#q"/>
<use x="159.033203" xlink:href="#q"/>
</g>
</g>
<g clip-path="url(#a)">
<g transform="translate(459.21 679.8) scale(.1 -.1)">
<use xlink:href="#c"/>
<use x="63.623047" xlink:href="#e"/>
<use x="95.410156" xlink:href="#q"/>
<use x="159.033203" xlink:href="#p"/>
</g>
</g>
<g clip-path="url(#a)">
<g transform="translate(722.13 506.76) scale(.1 -.1)">
<use xlink:href="#c"/>
<use x="63.623047" xlink:href="#e"/>
<use x="95.410156" xlink:href="#q"/>
<use x="159.033203" xlink:href="#y"/>
</g>
</g>
<g clip-path="url(#a)">
<defs>
<path id="x" d="m9.8125 72.906h9.8594v-72.906h-9.8594z"/>
<path id="al" d="m9.8125 72.906h14.703l18.594-49.609 18.703 49.609h14.703v-72.906h-9.625v64.016l-18.797-50h-9.9062l-18.797 50v-64.016h-9.5781z"/>
<path id="am" d="m9.8125 72.906h9.8594v-64.609h35.5v-8.2969h-45.359z"/>
</defs>
<g transform="translate(1385.1 765.73) scale(.1 -.1)">
<use xlink:href="#x"/>
<use x="29.492188" xlink:href="#al"/>
<use x="115.771484" xlink:href="#w"/>
<use x="176.074219" xlink:href="#am"/>
<use x="231.787109" xlink:href="#x"/>
<use x="261.279297" xlink:href="#n"/>
<use x="331.103516" xlink:href="#x"/>
<use x="360.595703" xlink:href="#k"/>
</g>
</g>
<g clip-path="url(#a)">
<g transform="translate(503.77 679.8) scale(.1 -.1)">
<use xlink:href="#c"/>
<use x="63.623047" xlink:href="#e"/>
<use x="95.410156" xlink:href="#q"/>
<use x="159.033203" xlink:href="#ab"/>
</g>
</g>
<g clip-path="url(#a)">
<g transform="translate(570.62 593.88) scale(.1 -.1)">
<use xlink:href="#c"/>
<use x="63.623047" xlink:href="#e"/>
<use x="95.410156" xlink:href="#q"/>
<use x="159.033203" xlink:href="#aa"/>
</g>
</g>
<g clip-path="url(#a)">
<g transform="translate(682.02 593.88) scale(.1 -.1)">
<use xlink:href="#c"/>
<use x="63.623047" xlink:href="#e"/>
<use x="95.410156" xlink:href="#q"/>
<use x="159.033203" xlink:href="#z"/>
</g>
</g>
<g clip-path="url(#a)">
<g transform="translate(637.46 679.8) scale(.1 -.1)">
<use xlink:href="#c"/>
<use x="63.623047" xlink:href="#e"/>
<use x="95.410156" xlink:href="#p"/>
<use x="159.033203" xlink:href="#ac"/>
</g>
</g>
<g clip-path="url(#a)">
<g transform="translate(682.02 679.8) scale(.1 -.1)">
<use xlink:href="#c"/>
<use x="63.623047" xlink:href="#e"/>
<use x="95.410156" xlink:href="#p"/>
<use x="159.033203" xlink:href="#c"/>
</g>
</g>
<g clip-path="url(#a)">
<g transform="translate(726.59 679.8) scale(.1 -.1)">
<use xlink:href="#c"/>
<use x="63.623047" xlink:href="#e"/>
<use x="95.410156" xlink:href="#p"/>
<use x="159.033203" xlink:href="#o"/>
</g>
</g>
<g clip-path="url(#a)">
<g transform="translate(548.33 679.8) scale(.1 -.1)">
<use xlink:href="#c"/>
<use x="63.623047" xlink:href="#e"/>
<use x="95.410156" xlink:href="#p"/>
<use x="159.033203" xlink:href="#q"/>
</g>
</g>
<g clip-path="url(#a)">
<g transform="translate(592.9 679.8) scale(.1 -.1)">
<use xlink:href="#c"/>
<use x="63.623047" xlink:href="#e"/>
<use x="95.410156" xlink:href="#p"/>
<use x="159.033203" xlink:href="#p"/>
</g>
</g>
<g clip-path="url(#a)">
<g transform="translate(1429.6 765.73) scale(.1 -.1)">
<use xlink:href="#x"/>
<use x="29.492188" xlink:href="#al"/>
<use x="115.771484" xlink:href="#w"/>
<use x="176.074219" xlink:href="#am"/>
<use x="231.787109" xlink:href="#x"/>
<use x="261.279297" xlink:href="#n"/>
<use x="331.103516" xlink:href="#x"/>
<use x="360.595703" xlink:href="#k"/>
</g>
</g>
<g clip-path="url(#a)">
<g transform="translate(280.96 679.8) scale(.1 -.1)">
<use xlink:href="#c"/>
<use x="63.623047" xlink:href="#e"/>
<use x="95.410156" xlink:href="#p"/>
<use x="159.033203" xlink:href="#ai"/>
</g>
</g>
<g clip-path="url(#a)">
<g transform="translate(58.141 679.8) scale(.1 -.1)">
<use xlink:href="#c"/>
<use x="63.623047" xlink:href="#e"/>
<use x="95.410156" xlink:href="#p"/>
<use x="159.033203" xlink:href="#ab"/>
</g>
</g>
<g clip-path="url(#a)">
<g transform="translate(147.27 679.8) scale(.1 -.1)">
<use xlink:href="#c"/>
<use x="63.623047" xlink:href="#e"/>
<use x="95.410156" xlink:href="#p"/>
<use x="159.033203" xlink:href="#aa"/>
</g>
</g>
<g clip-path="url(#a)">
<g transform="translate(325.52 679.8) scale(.1 -.1)">
<use xlink:href="#c"/>
<use x="63.623047" xlink:href="#e"/>
<use x="95.410156" xlink:href="#p"/>
<use x="159.033203" xlink:href="#z"/>
</g>
</g>
<g clip-path="url(#a)">
<g transform="translate(771.15 679.8) scale(.1 -.1)">
<use xlink:href="#c"/>
<use x="63.623047" xlink:href="#e"/>
<use x="95.410156" xlink:href="#y"/>
<use x="159.033203" xlink:href="#ac"/>
</g>
</g>
<g clip-path="url(#a)">
<g transform="translate(1350.5 679.8) scale(.1 -.1)">
<use xlink:href="#c"/>
<use x="63.623047" xlink:href="#e"/>
<use x="95.410156" xlink:href="#y"/>
<use x="159.033203" xlink:href="#c"/>
</g>
</g>
<defs>
<clipPath id="a">
<rect width="1520" height="800"/>
</clipPath>
</defs>
</svg>
