<?xml version="1.0" encoding="UTF-8"?>
<!DOCTYPE svg  PUBLIC '-//W3C//DTD SVG 1.1//EN'  'http://www.w3.org/Graphics/SVG/1.1/DTD/svg11.dtd'>
<svg width="1824pt" height="960pt" version="1.1" viewBox="0 0 1824 960" xmlns="http://www.w3.org/2000/svg" xmlns:xlink="http://www.w3.org/1999/xlink">
<defs>
<style type="text/css">*{stroke-linecap:butt;stroke-linejoin:round;}</style>
</defs>
<path d="m0 960h1824v-960h-1824z" fill="#fff"/>
<g fill="none" stroke="#000">
<path d="m328.2 43.636v97.883" clip-path="url(#a)"/>
<path d="m328.2 141.52-57.824 97.76" clip-path="url(#a)"/>
<path d="m328.2 141.52-67.633 679.98" clip-path="url(#a)"/>
<path d="m328.2 141.52-36.838 679.98" clip-path="url(#a)"/>
<path d="m328.2 141.52 60.679 487.11" clip-path="url(#a)"/>
<path d="m328.2 141.52-96.059 679.98" clip-path="url(#a)"/>
<path d="m328.2 141.52 197.68 679.98" clip-path="url(#a)"/>
<path d="m270.38 239.28-148.19 389.35" clip-path="url(#a)"/>
<path d="m270.38 239.28-90.349 486.04" clip-path="url(#a)"/>
<path d="m270.38 239.28 238.54 97.62" clip-path="url(#a)"/>
<path d="m260.57 821.5v94.862" clip-path="url(#a)"/>
<path d="m291.37 821.5v94.862" clip-path="url(#a)"/>
<path d="m388.88 628.63-46.587 96.686" clip-path="url(#a)"/>
<path d="m388.88 628.63 9.0805 192.87" clip-path="url(#a)"/>
<path d="m388.88 628.63 37.506 96.686" clip-path="url(#a)"/>
<path d="m342.3 725.32-17.766 96.182" clip-path="url(#a)"/>
<path d="m342.3 725.32 17.766 96.182" clip-path="url(#a)"/>
<path d="m397.96 821.5v94.862" clip-path="url(#a)"/>
<path d="m426.39 725.32 11.844 96.182" clip-path="url(#a)"/>
<path d="m426.39 725.32 54.483 96.182" clip-path="url(#a)"/>
<path d="m426.39 725.32-66.327 96.182" clip-path="url(#a)" stroke-dasharray="3.7,1.6"/>
<path d="m438.23 821.5v94.862" clip-path="url(#a)"/>
<path d="m480.87 821.5v94.862" clip-path="url(#a)"/>
<path d="m324.53 821.5v94.862" clip-path="url(#a)"/>
<path d="m360.06 821.5v94.862" clip-path="url(#a)"/>
<path d="m122.19 628.63 57.839 96.686" clip-path="url(#a)" stroke-dasharray="3.7,1.6"/>
<path d="m122.19 628.63-39.283 192.87" clip-path="url(#a)"/>
<path d="m122.19 628.63-21.912 96.686" clip-path="url(#a)"/>
<path d="m122.19 628.63 3.3558 192.87" clip-path="url(#a)"/>
<path d="m180.03 725.32-28.426 96.182" clip-path="url(#a)"/>
<path d="m180.03 725.32 2.3688 96.182" clip-path="url(#a)"/>
<path d="m180.03 725.32 26.057 96.182" clip-path="url(#a)"/>
<path d="m508.92 336.9-328.89 388.42" clip-path="url(#a)" stroke-dasharray="3.7,1.6"/>
<path d="m508.92 336.9 64.339 484.6" clip-path="url(#a)"/>
<path d="m508.92 336.9 264.55 97.457" clip-path="url(#a)"/>
<path d="m573.26 821.5v94.862" clip-path="url(#a)"/>
<path d="m773.47 434.36-150.46 387.14" clip-path="url(#a)"/>
<path d="m773.47 434.36-98.349 387.14" clip-path="url(#a)"/>
<path d="m773.47 434.36-43.866 387.14" clip-path="url(#a)"/>
<path d="m773.47 434.36 292.68 97.261" clip-path="url(#a)"/>
<path d="m623 821.5v94.862" clip-path="url(#a)"/>
<path d="m675.12 821.5v94.862" clip-path="url(#a)"/>
<path d="m729.6 821.5v94.862" clip-path="url(#a)"/>
<path d="m1066.1 531.62-279.69 289.88" clip-path="url(#a)"/>
<path d="m1066.1 531.62-238.63 193.7" clip-path="url(#a)"/>
<path d="m1066.1 531.62-94.922 289.88" clip-path="url(#a)"/>
<path d="m1066.1 531.62-28.595 289.88" clip-path="url(#a)"/>
<path d="m1066.1 531.62 75.633 289.88" clip-path="url(#a)"/>
<path d="m1066.1 531.62 184.6 289.88" clip-path="url(#a)"/>
<path d="m1066.1 531.62 381.61 97.015" clip-path="url(#a)"/>
<path d="m786.45 821.5v94.862" clip-path="url(#a)"/>
<path d="m827.51 725.32-97.912 96.182" clip-path="url(#a)" stroke-dasharray="3.7,1.6"/>
<path d="m827.51 725.32 18.161 96.182" clip-path="url(#a)"/>
<path d="m827.51 725.32 79.751 96.182" clip-path="url(#a)"/>
<path d="m971.22 821.5v94.862" clip-path="url(#a)"/>
<path d="m1037.5 821.5v94.862" clip-path="url(#a)"/>
<path d="m1141.8 821.5-35.532 94.862" clip-path="url(#a)"/>
<path d="m1141.8 821.5 35.532 94.862" clip-path="url(#a)"/>
<path d="m1250.7 821.5v94.862" clip-path="url(#a)"/>
<path d="m1447.8 628.63-121.21 192.87" clip-path="url(#a)"/>
<path d="m1447.8 628.63-43.034 192.87" clip-path="url(#a)"/>
<path d="m1447.8 628.63 164.24 96.686" clip-path="url(#a)"/>
<path d="m1326.5 821.5v94.862" clip-path="url(#a)"/>
<path d="m1404.7 821.5v94.862" clip-path="url(#a)"/>
<path d="m1612 725.32-126.73 96.182" clip-path="url(#a)"/>
<path d="m1612 725.32-43.823 96.182" clip-path="url(#a)"/>
<path d="m1612 725.32 41.455 96.182" clip-path="url(#a)"/>
<path d="m1612 725.32 129.1 96.182" clip-path="url(#a)"/>
<path d="m1485.3 821.5v94.862" clip-path="url(#a)"/>
<path d="m1568.2 821.5v94.862" clip-path="url(#a)"/>
<path d="m1653.4 821.5v94.862" clip-path="url(#a)"/>
<path d="m845.67 821.5v94.862" clip-path="url(#a)"/>
<path d="m907.26 821.5v94.862" clip-path="url(#a)"/>
<path d="m151.61 821.5-9.4753 94.862" clip-path="url(#a)"/>
<path d="m151.61 821.5 9.4753 94.862" clip-path="url(#a)"/>
<path d="m182.4 821.5v94.862" clip-path="url(#a)"/>
<path d="m206.09 821.5v94.862" clip-path="url(#a)"/>
<path d="m82.909 821.5v94.862" clip-path="url(#a)"/>
<path d="m100.28 725.32-10.265 96.182" clip-path="url(#a)"/>
<path d="m100.28 725.32-0.78961 96.182" clip-path="url(#a)"/>
<path d="m100.28 725.32 11.055 96.182" clip-path="url(#a)"/>
<path d="m125.55 821.5v94.862" clip-path="url(#a)"/>
<path d="m90.016 821.5v94.862" clip-path="url(#a)"/>
<path d="m99.491 821.5v94.862" clip-path="url(#a)"/>
<path d="m111.34 821.5v94.862" clip-path="url(#a)"/>
<path d="m232.15 821.5v94.862" clip-path="url(#a)"/>
<path d="m525.88 821.5v94.862" clip-path="url(#a)"/>
<path d="m1741.1 821.5v94.862" clip-path="url(#a)"/>
</g>
<path d="m321.93 89.57v6.0162q0 2.4 2.4 2.4h7.7425q2.4 0 2.4-2.4v-6.0162q0-2.4-2.4-2.4h-7.7425q-2.4 0-2.4 2.4z" clip-path="url(#a)" fill="#fff" stroke="#fff"/>
<g clip-path="url(#a)">
<defs>
<path id="ar" d="m9.8125 72.906h9.8594v-29.891h35.844v29.891h9.8594v-72.906h-9.8594v34.719h-35.844v-34.719h-9.8594z"/>
</defs>
<g transform="translate(326 89.57) rotate(90) scale(.08 -.08)">
<use xlink:href="#ar"/>
</g>
</g>
<path d="m303.3 195.95 2.786-4.7102q1.2218-2.0657-0.84386-3.2875l-6.664-3.9417q-2.0657-1.2218-3.2875 0.84386l-2.786 4.7102q-1.2218 2.0657 0.84386 3.2875l6.664 3.9417q2.0657 1.2218 3.2875-0.84386z" clip-path="url(#a)" fill="#fff" stroke="#fff"/>
<g clip-path="url(#a)">
<defs>
<path id="v" d="m34.188 63.188-13.391-36.281h26.812zm-5.5781 9.7188h11.188l27.781-72.906h-10.25l-6.6406 18.703h-32.859l-6.6406-18.703h-10.406z"/>
</defs>
<g transform="translate(299.8 193.88) rotate(-59.396) scale(.08 -.08)">
<use xlink:href="#v"/>
</g>
</g>
<path d="m300.4 484.42 0.45541-4.5787q0.23754-2.3882-2.1507-2.6258l-7.7045-0.76631q-2.3882-0.23754-2.6258 2.1507l-0.45541 4.5787q-0.23754 2.3882 2.1507 2.6258l7.7045 0.76631q2.3882 0.23754 2.6258-2.1507z" clip-path="url(#a)" fill="#fff" stroke="#fff"/>
<g clip-path="url(#a)">
<defs>
<path id="al" d="m9.8125 72.906h41.891v-8.3125h-32.031v-21.484h28.906v-8.2969h-28.906v-34.812h-9.8594z"/>
</defs>
<g transform="translate(296.36 484.02) rotate(-84.32) scale(.08 -.08)">
<use xlink:href="#al"/>
</g>
</g>
<path d="m315.92 484.26 0.26095-4.8167q0.12983-2.3965-2.2667-2.5263l-7.7312-0.41884q-2.3965-0.12983-2.5263 2.2667l-0.26095 4.8167q-0.12983 2.3965 2.2667 2.5263l7.7312 0.41884q2.3965 0.12983 2.5263-2.2667z" clip-path="url(#a)" fill="#fff" stroke="#fff"/>
<g clip-path="url(#a)">
<defs>
<path id="ak" d="m19.672 64.797v-27.391h12.406q6.8906 0 10.641 3.5625 3.7656 3.5625 3.7656 10.156 0 6.5469-3.7656 10.109-3.75 3.5625-10.641 3.5625zm-9.8594 8.1094h22.266q12.266 0 18.531-5.5469 6.2812-5.5469 6.2812-16.234 0-10.797-6.2812-16.312-6.2656-5.5156-18.531-5.5156h-12.406v-29.297h-9.8594z"/>
</defs>
<g transform="translate(311.86 484.04) rotate(-86.899) scale(.08 -.08)">
<use xlink:href="#ak"/>
</g>
</g>
<path d="m351.98 383.14 0.67647 5.4305q0.29667 2.3816 2.6783 2.0849l7.6831-0.95707q2.3816-0.29667 2.0849-2.6783l-0.67647-5.4305q-0.29667-2.3816-2.6783-2.0849l-7.6831 0.95707q-2.3816 0.29667-2.0849 2.6783z" clip-path="url(#a)" fill="#fff" stroke="#fff"/>
<g clip-path="url(#a)">
<g transform="translate(356.02 382.63) rotate(82.899) scale(.08 -.08)">
<use xlink:href="#v"/>
</g>
</g>
<path d="m285.98 485.29 0.81899-5.7974q0.33571-2.3764-2.0407-2.7121l-7.6664-1.083q-2.3764-0.33571-2.7121 2.0407l-0.81899 5.7974q-0.33571 2.3764 2.0407 2.7121l7.6664 1.083q2.3764 0.33571 2.7121-2.0407z" clip-path="url(#a)" fill="#fff" stroke="#fff"/>
<g clip-path="url(#a)">
<defs>
<path id="ad" d="m8.6875 72.906h9.9219v-44.297q0-11.719 4.2344-16.875 4.25-5.1406 13.781-5.1406 9.4688 0 13.719 5.1406 4.25 5.1562 4.25 16.875v44.297h9.9062v-45.516q0-14.25-7.0625-21.531-7.0469-7.2812-20.812-7.2812-13.828 0-20.891 7.2812-7.0469 7.2812-7.0469 21.531z"/>
</defs>
<g transform="translate(281.95 484.72) rotate(-81.959) scale(.08 -.08)">
<use xlink:href="#ad"/>
</g>
</g>
<path d="m420.2 480.45 1.6344 5.6222q0.66996 2.3046 2.9746 1.6346l7.4347-2.1613q2.3046-0.66996 1.6346-2.9746l-1.6344-5.6222q-0.66996-2.3046-2.9746-1.6346l-7.4347 2.1613q-2.3046 0.66996-1.6346 2.9746z" clip-path="url(#a)" fill="#fff" stroke="#fff"/>
<g clip-path="url(#a)">
<g transform="translate(424.11 479.32) rotate(73.79) scale(.08 -.08)">
<use xlink:href="#ad"/>
</g>
</g>
<path d="m201.25 438.55 1.7981-4.7244q0.8537-2.243-1.3893-3.0967l-7.2361-2.7541q-2.243-0.8537-3.0967 1.3893l-1.7981 4.7244q-0.8537 2.243 1.3893 3.0967l7.2361 2.7541q2.243 0.8537 3.0967-1.3893z" clip-path="url(#a)" fill="#fff" stroke="#fff"/>
<g clip-path="url(#a)">
<defs>
<path id="s" d="m9.8125 72.906h46.094v-8.3125h-36.234v-21.578h34.719v-8.2969h-34.719v-26.422h37.109v-8.2969h-46.969z"/>
</defs>
<g transform="translate(197.45 437.1) rotate(-69.163) scale(.08 -.08)">
<use xlink:href="#s"/>
</g>
</g>
<path d="m230.86 486.19 1.0209-5.4922q0.43862-2.3596-1.921-2.7982l-7.6121-1.415q-2.3596-0.43862-2.7982 1.921l-1.0209 5.4922q-0.43862 2.3596 1.921 2.7982l7.6121 1.415q2.3596 0.43862 2.7982-1.921z" clip-path="url(#a)" fill="#fff" stroke="#fff"/>
<g clip-path="url(#a)">
<defs>
<path id="q" d="m64.406 67.281v-10.391q-4.9844 4.6406-10.625 6.9219-5.6406 2.2969-11.984 2.2969-12.5 0-19.141-7.6406t-6.6406-22.094q0-14.406 6.6406-22.047t19.141-7.6406q6.3438 0 11.984 2.2969t10.625 6.9375v-10.312q-5.1719-3.5156-10.969-5.2812-5.7812-1.75-12.219-1.75-16.562 0-26.094 10.125-9.5156 10.141-9.5156 27.672 0 17.578 9.5156 27.703 9.5312 10.141 26.094 10.141 6.5312 0 12.312-1.7344 5.7969-1.7344 10.875-5.2031z"/>
</defs>
<g transform="translate(226.87 485.45) rotate(-79.47) scale(.08 -.08)">
<use xlink:href="#q"/>
</g>
</g>
<path d="m384.93 292.94 4.6784 1.9146q2.2212 0.90901 3.1302-1.3122l2.9325-7.1657q0.90901-2.2212-1.3122-3.1302l-4.6784-1.9146q-2.2212-0.90901-3.1302 1.3122l-2.9325 7.1657q-0.90901 2.2212 1.3122 3.1302z" clip-path="url(#a)" fill="#fff" stroke="#fff"/>
<g clip-path="url(#a)">
<g transform="translate(386.47 289.18) rotate(22.257) scale(.08 -.08)">
<use xlink:href="#s"/>
</g>
</g>
<path d="m254.3 852.03v33.808q0 2.4 2.4 2.4h7.7425q2.4 0 2.4-2.4v-33.808q0-2.4-2.4-2.4h-7.7425q-2.4 0-2.4 2.4z" clip-path="url(#a)" fill="#fff" stroke="#fff"/>
<g clip-path="url(#a)">
<defs>
<path id="l" d="m-0.29688 72.906h61.672v-8.3125h-25.875v-64.594h-9.9062v64.594h-25.891z"/>
<path id="d" d="m56.203 29.594v-4.3906h-41.312q0.59375-9.2812 5.5938-14.141t13.938-4.8594q5.1719 0 10.031 1.2656t9.6562 3.8125v-8.5q-4.8438-2.0469-9.9219-3.125t-10.297-1.0781q-13.094 0-20.734 7.6094-7.6406 7.625-7.6406 20.625 0 13.422 7.25 21.297 7.25 7.8906 19.562 7.8906 11.031 0 17.453-7.1094 6.4219-7.0938 6.4219-19.297zm-8.9844 2.6406q-0.09375 7.3594-4.125 11.75-4.0312 4.4062-10.672 4.4062-7.5156 0-12.031-4.25t-5.2031-11.969z"/>
<path id="f" d="m41.109 46.297q-1.5156 0.875-3.2969 1.2812-1.7812 0.42188-3.9219 0.42188-7.625 0-11.703-4.9531t-4.0781-14.234v-28.812h-9.0312v54.688h9.0312v-8.5q2.8438 4.9844 7.375 7.3906 4.5469 2.4219 11.047 2.4219 0.92188 0 2.0469-0.125 1.125-0.10938 2.4844-0.35938z"/>
<path id="j" d="m52 44.188q3.375 6.0625 8.0625 8.9375t11.031 2.875q8.5469 0 13.188-5.9844 4.6406-5.9688 4.6406-17v-33.016h-9.0312v32.719q0 7.8594-2.7969 11.656-2.7812 3.8125-8.4844 3.8125-6.9844 0-11.047-4.6406-4.0469-4.625-4.0469-12.641v-30.906h-9.0312v32.719q0 7.9062-2.7812 11.688t-8.5938 3.7812q-6.8906 0-10.953-4.6562-4.0469-4.6562-4.0469-12.625v-30.906h-9.0312v54.688h9.0312v-8.5q3.0781 5.0312 7.375 7.4219t10.203 2.3906q5.9688 0 10.141-3.0312 4.1719-3.0156 6.1719-8.7812z"/>
<path id="i" d="m9.4219 54.688h8.9844v-54.688h-8.9844zm0 21.297h8.9844v-11.391h-8.9844z"/>
<path id="h" d="m54.891 33.016v-33.016h-8.9844v32.719q0 7.7656-3.0312 11.609-3.0312 3.8594-9.0781 3.8594-7.2812 0-11.484-4.6406-4.2031-4.625-4.2031-12.641v-30.906h-9.0312v54.688h9.0312v-8.5q3.2344 4.9375 7.5938 7.375 4.375 2.4375 10.094 2.4375 9.4219 0 14.25-5.8281 4.8438-5.8281 4.8438-17.156z"/>
<path id="g" d="m34.281 27.484q-10.891 0-15.094-2.4844t-4.2031-8.5q0-4.7812 3.1562-7.5938 3.1562-2.7969 8.5625-2.7969 7.4844 0 12 5.2969t4.5156 14.078v2zm17.922 3.7188v-31.203h-8.9844v8.2969q-3.0781-4.9688-7.6719-7.3438t-11.234-2.375q-8.3906 0-13.359 4.7188-4.9531 4.7188-4.9531 12.625 0 9.2188 6.1719 13.906 6.1875 4.6875 18.438 4.6875h12.609v0.89062q0 6.2031-4.0781 9.5938t-11.453 3.3906q-4.6875 0-9.1406-1.125-4.4375-1.125-8.5312-3.375v8.3125q4.9219 1.9062 9.5625 2.8438 4.6406 0.95312 9.0312 0.95312 11.875 0 17.734-6.1562 5.8594-6.1406 5.8594-18.641z"/>
<path id="k" d="m9.4219 75.984h8.9844v-75.984h-8.9844z"/>
</defs>
<g transform="translate(258.36 852.03) rotate(90) scale(.08 -.08)">
<use xlink:href="#l"/>
<use x="44.083984" xlink:href="#d"/>
<use x="105.607422" xlink:href="#f"/>
<use x="144.970703" xlink:href="#j"/>
<use x="242.382812" xlink:href="#i"/>
<use x="270.166016" xlink:href="#h"/>
<use x="333.544922" xlink:href="#g"/>
<use x="394.824219" xlink:href="#k"/>
</g>
</g>
<path d="m285.09 852.03v33.808q0 2.4 2.4 2.4h7.7425q2.4 0 2.4-2.4v-33.808q0-2.4-2.4-2.4h-7.7425q-2.4 0-2.4 2.4z" clip-path="url(#a)" fill="#fff" stroke="#fff"/>
<g clip-path="url(#a)">
<g transform="translate(289.16 852.03) rotate(90) scale(.08 -.08)">
<use xlink:href="#l"/>
<use x="44.083984" xlink:href="#d"/>
<use x="105.607422" xlink:href="#f"/>
<use x="144.970703" xlink:href="#j"/>
<use x="242.382812" xlink:href="#i"/>
<use x="270.166016" xlink:href="#h"/>
<use x="333.544922" xlink:href="#g"/>
<use x="394.824219" xlink:href="#k"/>
</g>
</g>
<path d="m370.03 682.21 2.4249-5.0325q1.0418-2.1621-1.1203-3.2039l-6.975-3.3608q-2.1621-1.0418-3.2039 1.1203l-2.4249 5.0325q-1.0418 2.1621 1.1203 3.2039l6.975 3.3608q2.1621 1.0418 3.2039-1.1203z" clip-path="url(#a)" fill="#fff" stroke="#fff"/>
<g clip-path="url(#a)">
<g transform="translate(366.37 680.45) rotate(-64.274) scale(.08 -.08)">
<use xlink:href="#q"/>
</g>
</g>
<path d="m387.02 722.37 0.28147 5.9784q0.11287 2.3973 2.5102 2.2845l7.7339-0.36412q2.3973-0.11287 2.2845-2.5102l-0.28147-5.9784q-0.11287-2.3973-2.5102-2.2845l-7.7339 0.36412q-2.3973 0.11287-2.2845 2.5102z" clip-path="url(#a)" fill="#fff" stroke="#fff"/>
<g clip-path="url(#a)">
<defs>
<path id="ag" d="m9.8125 72.906h13.281l32.328-60.984v60.984h9.5625v-72.906h-13.281l-32.312 60.984v-60.984h-9.5781z"/>
</defs>
<g transform="translate(391.08 722.18) rotate(87.304) scale(.08 -.08)">
<use xlink:href="#ag"/>
</g>
</g>
<path d="m400.78 676.64 2.0203 5.2081q0.86799 2.2375 3.1055 1.3696l7.2184-2.8002q2.2375-0.86799 1.3696-3.1055l-2.0203-5.2081q-0.86799-2.2375-3.1055-1.3696l-7.2184 2.8002q-2.2375 0.86799-1.3696 3.1055z" clip-path="url(#a)" fill="#fff" stroke="#fff"/>
<g clip-path="url(#a)">
<g transform="translate(404.57 675.17) rotate(68.798) scale(.08 -.08)">
<use xlink:href="#q"/>
</g>
</g>
<path d="m339.08 777.28 1.0097-5.4663q0.43594-2.3601-1.9241-2.796l-7.6137-1.4064q-2.3601-0.43594-2.796 1.9241l-1.0097 5.4663q-0.43594 2.3601 1.9241 2.796l7.6137 1.4064q2.3601 0.43594 2.796-1.9241z" clip-path="url(#a)" fill="#fff" stroke="#fff"/>
<g clip-path="url(#a)">
<defs>
<path id="z" d="m44.391 34.188q3.1719-1.0781 6.1719-4.5938t6.0312-9.6719l10.016-19.922h-10.609l-9.3125 18.703q-3.625 7.3281-7.0156 9.7188t-9.25 2.3906h-10.75v-30.812h-9.8594v72.906h22.266q12.5 0 18.656-5.2344 6.1562-5.2188 6.1562-15.766 0-6.8906-3.2031-11.438-3.2031-4.5312-9.2969-6.2812zm-24.719 30.609v-25.875h12.406q7.125 0 10.766 3.2969t3.6406 9.6875-3.6406 9.6406-10.766 3.25z"/>
</defs>
<g transform="translate(335.08 776.54) rotate(-79.535) scale(.08 -.08)">
<use xlink:href="#z"/>
</g>
</g>
<path d="m344.5 771.8 1.0147 5.4933q0.43594 2.3601 2.796 1.9241l7.6137-1.4064q2.3601-0.43594 1.9241-2.796l-1.0147-5.4933q-0.43594-2.3601-2.796-1.9241l-7.6137 1.4064q-2.3601 0.43594-1.9241 2.796z" clip-path="url(#a)" fill="#fff" stroke="#fff"/>
<g clip-path="url(#a)">
<g transform="translate(348.5 771.06) rotate(79.535) scale(.08 -.08)">
<use xlink:href="#q"/>
</g>
</g>
<path d="m391.69 852.03v33.808q0 2.4 2.4 2.4h7.7425q2.4 0 2.4-2.4v-33.808q0-2.4-2.4-2.4h-7.7425q-2.4 0-2.4 2.4z" clip-path="url(#a)" fill="#fff" stroke="#fff"/>
<g clip-path="url(#a)">
<g transform="translate(395.76 852.03) rotate(90) scale(.08 -.08)">
<use xlink:href="#l"/>
<use x="44.083984" xlink:href="#d"/>
<use x="105.607422" xlink:href="#f"/>
<use x="144.970703" xlink:href="#j"/>
<use x="242.382812" xlink:href="#i"/>
<use x="270.166016" xlink:href="#h"/>
<use x="333.544922" xlink:href="#g"/>
<use x="394.824219" xlink:href="#k"/>
</g>
</g>
<path d="m425.75 771.42 0.67939 5.5171q0.29333 2.382 2.6753 2.0887l7.6845-0.94629q2.382-0.29333 2.0887-2.6753l-0.67939-5.5171q-0.29333-2.382-2.6753-2.0887l-7.6845 0.94629q-2.382 0.29333-2.0887 2.6753z" clip-path="url(#a)" fill="#fff" stroke="#fff"/>
<g clip-path="url(#a)">
<g transform="translate(429.78 770.92) rotate(82.98) scale(.08 -.08)">
<use xlink:href="#z"/>
</g>
</g>
<path d="m446.93 774.3 2.4915 4.3984q1.1829 2.0882 3.2711 0.90534l6.7367-3.8161q2.0882-1.1829 0.90534-3.2711l-2.4915-4.3984q-1.1829-2.0882-3.2711-0.90534l-6.7367 3.8161q-2.0882 1.1829-0.90534 3.2711z" clip-path="url(#a)" fill="#fff" stroke="#fff"/>
<g clip-path="url(#a)">
<g transform="translate(450.46 772.3) rotate(60.47) scale(.08 -.08)">
<use xlink:href="#s"/>
</g>
</g>
<path d="m396.8 779.27 3.1713-4.5988q1.3625-1.9758-0.61327-3.3382l-6.3739-4.3954q-1.9758-1.3625-3.3382 0.61327l-3.1713 4.5988q-1.3625 1.9758 0.61327 3.3382l6.3739 4.3954q1.9758 1.3625 3.3382-0.61327z" clip-path="url(#a)" fill="#fff" stroke="#fff"/>
<g clip-path="url(#a)">
<g transform="translate(393.46 776.96) rotate(-55.41) scale(.08 -.08)">
<use xlink:href="#q"/>
</g>
</g>
<path d="m431.96 852.03v33.808q0 2.4 2.4 2.4h7.7425q2.4 0 2.4-2.4v-33.808q0-2.4-2.4-2.4h-7.7425q-2.4 0-2.4 2.4z" clip-path="url(#a)" fill="#fff" stroke="#fff"/>
<g clip-path="url(#a)">
<g transform="translate(436.03 852.03) rotate(90) scale(.08 -.08)">
<use xlink:href="#l"/>
<use x="44.083984" xlink:href="#d"/>
<use x="105.607422" xlink:href="#f"/>
<use x="144.970703" xlink:href="#j"/>
<use x="242.382812" xlink:href="#i"/>
<use x="270.166016" xlink:href="#h"/>
<use x="333.544922" xlink:href="#g"/>
<use x="394.824219" xlink:href="#k"/>
</g>
</g>
<path d="m474.6 852.03v33.808q0 2.4 2.4 2.4h7.7425q2.4 0 2.4-2.4v-33.808q0-2.4-2.4-2.4h-7.7425q-2.4 0-2.4 2.4z" clip-path="url(#a)" fill="#fff" stroke="#fff"/>
<g clip-path="url(#a)">
<g transform="translate(478.67 852.03) rotate(90) scale(.08 -.08)">
<use xlink:href="#l"/>
<use x="44.083984" xlink:href="#d"/>
<use x="105.607422" xlink:href="#f"/>
<use x="144.970703" xlink:href="#j"/>
<use x="242.382812" xlink:href="#i"/>
<use x="270.166016" xlink:href="#h"/>
<use x="333.544922" xlink:href="#g"/>
<use x="394.824219" xlink:href="#k"/>
</g>
</g>
<path d="m318.26 852.03v33.808q0 2.4 2.4 2.4h7.7425q2.4 0 2.4-2.4v-33.808q0-2.4-2.4-2.4h-7.7425q-2.4 0-2.4 2.4z" clip-path="url(#a)" fill="#fff" stroke="#fff"/>
<g clip-path="url(#a)">
<g transform="translate(322.32 852.03) rotate(90) scale(.08 -.08)">
<use xlink:href="#l"/>
<use x="44.083984" xlink:href="#d"/>
<use x="105.607422" xlink:href="#f"/>
<use x="144.970703" xlink:href="#j"/>
<use x="242.382812" xlink:href="#i"/>
<use x="270.166016" xlink:href="#h"/>
<use x="333.544922" xlink:href="#g"/>
<use x="394.824219" xlink:href="#k"/>
</g>
</g>
<path d="m353.79 852.03v33.808q0 2.4 2.4 2.4h7.7425q2.4 0 2.4-2.4v-33.808q0-2.4-2.4-2.4h-7.7425q-2.4 0-2.4 2.4z" clip-path="url(#a)" fill="#fff" stroke="#fff"/>
<g clip-path="url(#a)">
<g transform="translate(357.85 852.03) rotate(90) scale(.08 -.08)">
<use xlink:href="#l"/>
<use x="44.083984" xlink:href="#d"/>
<use x="105.607422" xlink:href="#f"/>
<use x="144.970703" xlink:href="#j"/>
<use x="242.382812" xlink:href="#i"/>
<use x="270.166016" xlink:href="#h"/>
<use x="333.544922" xlink:href="#g"/>
<use x="394.824219" xlink:href="#k"/>
</g>
</g>
<path d="m144.33 677.85 2.8094 4.6963q1.2321 2.0596 3.2917 0.82752l6.6444-3.9747q2.0596-1.2321 0.82752-3.2917l-2.8094-4.6963q-1.2321-2.0596-3.2917-0.82752l-6.6444 3.9747q-2.0596 1.2321-0.82752 3.2917z" clip-path="url(#a)" fill="#fff" stroke="#fff"/>
<g clip-path="url(#a)">
<g transform="translate(147.81 675.76) rotate(59.112) scale(.08 -.08)">
<use xlink:href="#v"/>
</g>
</g>
<path d="m108.19 728.81 1.0136-4.9766q0.47899-2.3517-1.8727-2.8307l-7.5867-1.5453q-2.3517-0.47899-2.8307 1.8727l-1.0136 4.9766q-0.47899 2.3517 1.8727 2.8307l7.5867 1.5453q2.3517 0.47899 2.8307-1.8727z" clip-path="url(#a)" fill="#fff" stroke="#fff"/>
<g clip-path="url(#a)">
<defs>
<path id="aj" d="m53.516 70.516v-9.625q-5.6094 2.6875-10.594 4-4.9844 1.3281-9.625 1.3281-8.0469 0-12.422-3.125t-4.375-8.8906q0-4.8438 2.9062-7.3125 2.9062-2.4531 11.016-3.9688l5.9531-1.2188q11.031-2.1094 16.281-7.4062t5.25-14.172q0-10.609-7.1094-16.078-7.0938-5.4688-20.812-5.4688-5.1719 0-11.016 1.1719-5.8281 1.1719-12.078 3.4688v10.156q6-3.3594 11.766-5.0781 5.7656-1.7031 11.328-1.7031 8.4375 0 13.031 3.3125 4.5938 3.3281 4.5938 9.4844 0 5.3594-3.2969 8.3906t-10.812 4.5469l-6.0156 1.1719q-11.031 2.1875-15.969 6.875-4.9219 4.6875-4.9219 13.047 0 9.6719 6.8125 15.234t18.766 5.5625q5.1406 0 10.453-0.9375 5.3281-0.92188 10.891-2.7656z"/>
</defs>
<g transform="translate(104.21 728) rotate(-78.488) scale(.08 -.08)">
<use xlink:href="#aj"/>
</g>
</g>
<path d="m116.75 681.03 1.2095-5.3372q0.53045-2.3406-1.8102-2.8711l-7.551-1.7113q-2.3406-0.53045-2.8711 1.8102l-1.2095 5.3372q-0.53045 2.3406 1.8102 2.8711l7.551 1.7113q2.3406 0.53045 2.8711-1.8102z" clip-path="url(#a)" fill="#fff" stroke="#fff"/>
<g clip-path="url(#a)">
<g transform="translate(112.78 680.13) rotate(-77.231) scale(.08 -.08)">
<use xlink:href="#v"/>
</g>
</g>
<path d="m117.55 722.25 0.10186 5.8541q0.041753 2.3996 2.4414 2.3579l7.7413-0.1347q2.3996-0.041753 2.3579-2.4414l-0.10186-5.8541q-0.041753-2.3996-2.4414-2.3579l-7.7413 0.1347q-2.3996 0.041753-2.3579 2.4414z" clip-path="url(#a)" fill="#fff" stroke="#fff"/>
<g clip-path="url(#a)">
<g transform="translate(121.61 722.18) rotate(89.003) scale(.08 -.08)">
<use xlink:href="#ad"/>
</g>
</g>
<path d="m171.04 777.87 1.5833-5.3572q0.68022-2.3016-1.6214-2.9818l-7.425-2.1944q-2.3016-0.68022-2.9818 1.6214l-1.5833 5.3572q-0.68022 2.3016 1.6214 2.9818l7.425 2.1944q2.3016 0.68022 2.9818-1.6214z" clip-path="url(#a)" fill="#fff" stroke="#fff"/>
<g clip-path="url(#a)">
<g transform="translate(167.14 776.71) rotate(-73.535) scale(.08 -.08)">
<use xlink:href="#q"/>
</g>
</g>
<path d="m174.87 770.57 0.14736 5.9832q0.059091 2.3993 2.4584 2.3402l7.7402-0.19063q2.3993-0.059091 2.3402-2.4584l-0.14736-5.9832q-0.05909-2.3993-2.4584-2.3402l-7.7402 0.19063q-2.3993 0.05909-2.3402 2.4584z" clip-path="url(#a)" fill="#fff" stroke="#fff"/>
<g clip-path="url(#a)">
<g transform="translate(178.94 770.47) rotate(88.589) scale(.08 -.08)">
<use xlink:href="#ag"/>
</g>
</g>
<path d="m186.28 772.35 1.4607 5.3919q0.62757 2.3165 2.9441 1.6889l7.4731-2.0246q2.3165-0.62757 1.6889-2.9441l-1.4607-5.3919q-0.62757-2.3165-2.9441-1.6889l-7.4731 2.0246q-2.3165 0.62757-1.6889 2.9441z" clip-path="url(#a)" fill="#fff" stroke="#fff"/>
<g clip-path="url(#a)">
<g transform="translate(190.2 771.29) rotate(74.842) scale(.08 -.08)">
<use xlink:href="#q"/>
</g>
</g>
<path d="m347.49 537.25 3.5363-4.1764q1.5509-1.8316-0.28073-3.3825l-5.9088-5.0032q-1.8316-1.5509-3.3825 0.28073l-3.5363 4.1764q-1.5509 1.8316 0.28073 3.3825l5.9088 5.0032q1.8316 1.5509 3.3825-0.28073z" clip-path="url(#a)" fill="#fff" stroke="#fff"/>
<g clip-path="url(#a)">
<g transform="translate(344.39 534.62) rotate(-49.744) scale(.08 -.08)">
<use xlink:href="#v"/>
</g>
</g>
<path d="m534.55 577.64 0.63486 4.7818q0.31587 2.3791 2.695 2.0633l7.6752-1.019q2.3791-0.31587 2.0633-2.695l-0.63486-4.7818q-0.31587-2.3791-2.695-2.0633l-7.6752 1.019q-2.3791 0.31587-2.0633 2.695z" clip-path="url(#a)" fill="#fff" stroke="#fff"/>
<g clip-path="url(#a)">
<g transform="translate(538.58 577.1) rotate(82.437) scale(.08 -.08)">
<use xlink:href="#ak"/>
</g>
</g>
<path d="m636.46 390.57 5.1351 1.8917q2.252 0.82963 3.0817-1.4224l2.6764-7.2652q0.82963-2.252-1.4224-3.0817l-5.1351-1.8917q-2.252-0.82963-3.0817 1.4224l-2.6764 7.2652q-0.82963 2.252 1.4224 3.0817z" clip-path="url(#a)" fill="#fff" stroke="#fff"/>
<g clip-path="url(#a)">
<g transform="translate(637.86 386.75) rotate(20.223) scale(.08 -.08)">
<use xlink:href="#v"/>
</g>
</g>
<path d="m566.99 852.03v33.808q0 2.4 2.4 2.4h7.7425q2.4 0 2.4-2.4v-33.808q0-2.4-2.4-2.4h-7.7425q-2.4 0-2.4 2.4z" clip-path="url(#a)" fill="#fff" stroke="#fff"/>
<g clip-path="url(#a)">
<g transform="translate(571.05 852.03) rotate(90) scale(.08 -.08)">
<use xlink:href="#l"/>
<use x="44.083984" xlink:href="#d"/>
<use x="105.607422" xlink:href="#f"/>
<use x="144.970703" xlink:href="#j"/>
<use x="242.382812" xlink:href="#i"/>
<use x="270.166016" xlink:href="#h"/>
<use x="333.544922" xlink:href="#g"/>
<use x="394.824219" xlink:href="#k"/>
</g>
</g>
<path d="m703.16 632.56 1.8312-4.7117q0.8694-2.237-1.3676-3.1064l-7.2166-2.8047q-2.237-0.8694-3.1064 1.3676l-1.8312 4.7117q-0.8694 2.237 1.3676 3.1064l7.2166 2.8047q2.237 0.8694 3.1064-1.3676z" clip-path="url(#a)" fill="#fff" stroke="#fff"/>
<g clip-path="url(#a)">
<g transform="translate(699.38 631.08) rotate(-68.761) scale(.08 -.08)">
<use xlink:href="#s"/>
</g>
</g>
<path d="m729.75 631.92 1.2446-4.8994q0.59092-2.3261-1.7352-2.917l-7.5041-1.9063q-2.3261-0.59092-2.917 1.7352l-1.2446 4.8994q-0.59092 2.3261 1.7352 2.917l7.5041 1.9063q2.3261 0.59092 2.917-1.7352z" clip-path="url(#a)" fill="#fff" stroke="#fff"/>
<g clip-path="url(#a)">
<g transform="translate(725.81 630.92) rotate(-75.746) scale(.08 -.08)">
<use xlink:href="#s"/>
</g>
</g>
<path d="m757.45 631.41 0.62893-5.5507q0.2702-2.3847-2.1145-2.6549l-7.6933-0.87169q-2.3847-0.2702-2.6549 2.1145l-0.62893 5.5507q-0.2702 2.3847 2.1145 2.6549l7.6933 0.87169q2.3847 0.2702 2.6549-2.1145z" clip-path="url(#a)" fill="#fff" stroke="#fff"/>
<g clip-path="url(#a)">
<g transform="translate(753.41 630.95) rotate(-83.536) scale(.08 -.08)">
<use xlink:href="#q"/>
</g>
</g>
<path d="m915.43 488.14 4.7971 1.5941q2.2775 0.75686 3.0344-1.5207l2.4417-7.3474q0.75686-2.2775-1.5207-3.0344l-4.7971-1.5941q-2.2775-0.75686-3.0344 1.5207l-2.4417 7.3474q-0.75686 2.2775 1.5207 3.0344z" clip-path="url(#a)" fill="#fff" stroke="#fff"/>
<g clip-path="url(#a)">
<g transform="translate(916.71 484.28) rotate(18.382) scale(.08 -.08)">
<use xlink:href="#s"/>
</g>
</g>
<path d="m616.73 852.03v33.808q0 2.4 2.4 2.4h7.7425q2.4 0 2.4-2.4v-33.808q0-2.4-2.4-2.4h-7.7425q-2.4 0-2.4 2.4z" clip-path="url(#a)" fill="#fff" stroke="#fff"/>
<g clip-path="url(#a)">
<g transform="translate(620.8 852.03) rotate(90) scale(.08 -.08)">
<use xlink:href="#l"/>
<use x="44.083984" xlink:href="#d"/>
<use x="105.607422" xlink:href="#f"/>
<use x="144.970703" xlink:href="#j"/>
<use x="242.382812" xlink:href="#i"/>
<use x="270.166016" xlink:href="#h"/>
<use x="333.544922" xlink:href="#g"/>
<use x="394.824219" xlink:href="#k"/>
</g>
</g>
<path d="m668.85 852.03v33.808q0 2.4 2.4 2.4h7.7425q2.4 0 2.4-2.4v-33.808q0-2.4-2.4-2.4h-7.7425q-2.4 0-2.4 2.4z" clip-path="url(#a)" fill="#fff" stroke="#fff"/>
<g clip-path="url(#a)">
<g transform="translate(672.91 852.03) rotate(90) scale(.08 -.08)">
<use xlink:href="#l"/>
<use x="44.083984" xlink:href="#d"/>
<use x="105.607422" xlink:href="#f"/>
<use x="144.970703" xlink:href="#j"/>
<use x="242.382812" xlink:href="#i"/>
<use x="270.166016" xlink:href="#h"/>
<use x="333.544922" xlink:href="#g"/>
<use x="394.824219" xlink:href="#k"/>
</g>
</g>
<path d="m723.33 852.03v33.808q0 2.4 2.4 2.4h7.7425q2.4 0 2.4-2.4v-33.808q0-2.4-2.4-2.4h-7.7425q-2.4 0-2.4 2.4z" clip-path="url(#a)" fill="#fff" stroke="#fff"/>
<g clip-path="url(#a)">
<g transform="translate(727.39 852.03) rotate(90) scale(.08 -.08)">
<use xlink:href="#l"/>
<use x="44.083984" xlink:href="#d"/>
<use x="105.607422" xlink:href="#f"/>
<use x="144.970703" xlink:href="#j"/>
<use x="242.382812" xlink:href="#i"/>
<use x="270.166016" xlink:href="#h"/>
<use x="333.544922" xlink:href="#g"/>
<use x="394.824219" xlink:href="#k"/>
</g>
</g>
<path d="m928.88 682.91 3.8597-4.0003q1.6664-1.7271-0.060728-3.3936l-5.5719-5.3759q-1.7271-1.6664-3.3936 0.060728l-3.8597 4.0003q-1.6664 1.7271 0.060728 3.3936l5.5719 5.3759q1.7271 1.6664 3.3936-0.060728z" clip-path="url(#a)" fill="#fff" stroke="#fff"/>
<g clip-path="url(#a)">
<g transform="translate(925.96 680.09) rotate(-46.025) scale(.08 -.08)">
<use xlink:href="#z"/>
</g>
</g>
<path d="m948.66 635.06 4.2489-3.4489q1.8634-1.5125 0.35084-3.3759l-4.8795-6.0114q-1.5125-1.8634-3.3759-0.35084l-4.2489 3.4489q-1.8634 1.5125-0.35084 3.3759l4.8795 6.0114q1.5125 1.8634 3.3759 0.35084z" clip-path="url(#a)" fill="#fff" stroke="#fff"/>
<g clip-path="url(#a)">
<g transform="translate(946.09 631.91) rotate(-39.067) scale(.08 -.08)">
<use xlink:href="#v"/>
</g>
</g>
<path d="m1023.9 680.7 1.4319-4.3728q0.74686-2.2808-1.534-3.0277l-7.3581-2.4094q-2.2808-0.74686-3.0277 1.534l-1.4319 4.3728q-0.74686 2.2808 1.534 3.0277l7.3581 2.4094q2.2808 0.74686 3.0277-1.534z" clip-path="url(#a)" fill="#fff" stroke="#fff"/>
<g clip-path="url(#a)">
<g transform="translate(1020.1 679.43) rotate(-71.869) scale(.08 -.08)">
<use xlink:href="#al"/>
</g>
</g>
<path d="m1057.8 680.24 0.60471-6.1302q0.2356-2.3884-2.1528-2.624l-7.7051-0.76006q-2.3884-0.2356-2.624 2.1528l-0.60471 6.1302q-0.2356 2.3884 2.1528 2.624l7.7051 0.76006q2.3884 0.2356 2.624-2.1528z" clip-path="url(#a)" fill="#fff" stroke="#fff"/>
<g clip-path="url(#a)">
<defs>
<path id="as" d="m19.672 64.797v-56.688h11.922q15.094 0 22.094 6.8281 7 6.8438 7 21.594 0 14.641-7 21.453t-22.094 6.8125zm-9.8594 8.1094h20.266q21.188 0 31.094-8.8125 9.9219-8.8125 9.9219-27.562 0-18.859-9.9688-27.703-9.9531-8.8281-31.047-8.8281h-20.266z"/>
</defs>
<g transform="translate(1053.7 679.84) rotate(-84.366) scale(.08 -.08)">
<use xlink:href="#as"/>
</g>
</g>
<path d="m1097.3 675.78 1.2336 4.728q0.6059 2.3223 2.9282 1.7164l7.4917-1.9547q2.3223-0.6059 1.7164-2.9282l-1.2336-4.728q-0.6059-2.3223-2.9282-1.7164l-7.4917 1.9547q-2.3223 0.6059-1.7164 2.9282z" clip-path="url(#a)" fill="#fff" stroke="#fff"/>
<g clip-path="url(#a)">
<g transform="translate(1101.2 674.75) rotate(75.377) scale(.08 -.08)">
<use xlink:href="#l"/>
</g>
</g>
<path d="m1151.8 677.79 2.728 4.2839q1.2891 2.0244 3.3135 0.73524l6.5307-4.1588q2.0244-1.2891 0.73524-3.3135l-2.728-4.2839q-1.2891-2.0244-3.3135-0.73524l-6.5307 4.1588q-2.0244 1.2891-0.73524 3.3135z" clip-path="url(#a)" fill="#fff" stroke="#fff"/>
<g clip-path="url(#a)">
<g transform="translate(1155.2 675.6) rotate(57.511) scale(.08 -.08)">
<use xlink:href="#aj"/>
</g>
</g>
<path d="m1252.7 585.53 5.3038 1.3484q2.326 0.59134 2.9173-1.7347l1.9077-7.5038q0.59134-2.326-1.7347-2.9173l-5.3038-1.3484q-2.326-0.59134-2.9173 1.7347l-1.9077 7.5038q-0.59134 2.326 1.7347 2.9173z" clip-path="url(#a)" fill="#fff" stroke="#fff"/>
<g clip-path="url(#a)">
<g transform="translate(1253.8 581.59) rotate(14.264) scale(.08 -.08)">
<use xlink:href="#v"/>
</g>
</g>
<path d="m780.18 852.03v33.808q0 2.4 2.4 2.4h7.7425q2.4 0 2.4-2.4v-33.808q0-2.4-2.4-2.4h-7.7425q-2.4 0-2.4 2.4z" clip-path="url(#a)" fill="#fff" stroke="#fff"/>
<g clip-path="url(#a)">
<g transform="translate(784.24 852.03) rotate(90) scale(.08 -.08)">
<use xlink:href="#l"/>
<use x="44.083984" xlink:href="#d"/>
<use x="105.607422" xlink:href="#f"/>
<use x="144.970703" xlink:href="#j"/>
<use x="242.382812" xlink:href="#i"/>
<use x="270.166016" xlink:href="#h"/>
<use x="333.544922" xlink:href="#g"/>
<use x="394.824219" xlink:href="#k"/>
</g>
</g>
<path d="m781.15 779.66 3.6061-3.5424q1.7121-1.6819 0.030247-3.394l-5.4258-5.5233q-1.6819-1.7121-3.394-0.030247l-3.6061 3.5424q-1.7121 1.6819-0.030248 3.394l5.4258 5.5233q1.6819 1.7121 3.394 0.030247z" clip-path="url(#a)" fill="#fff" stroke="#fff"/>
<g clip-path="url(#a)">
<g transform="translate(778.3 776.76) rotate(-44.489) scale(.08 -.08)">
<use xlink:href="#s"/>
</g>
</g>
<path d="m829.96 772.09 0.93791 4.9672q0.4453 2.3583 2.8036 1.913l7.6081-1.4366q2.3583-0.4453 1.913-2.8036l-0.93791-4.9672q-0.4453-2.3583-2.8036-1.913l-7.6081 1.4366q-2.3583 0.4453-1.913 2.8036z" clip-path="url(#a)" fill="#fff" stroke="#fff"/>
<g clip-path="url(#a)">
<g transform="translate(833.95 771.34) rotate(79.307) scale(.08 -.08)">
<use xlink:href="#s"/>
</g>
</g>
<path d="m860.78 775.26 3.5656 4.3003q1.5319 1.8475 3.3794 0.31562l5.9602-4.942q1.8475-1.5319 0.31562-3.3794l-3.5656-4.3003q-1.5319-1.8475-3.3794-0.31562l-5.9602 4.942q-1.8475 1.5319-0.31562 3.3794z" clip-path="url(#a)" fill="#fff" stroke="#fff"/>
<g clip-path="url(#a)">
<g transform="translate(863.9 772.67) rotate(50.336) scale(.08 -.08)">
<use xlink:href="#q"/>
</g>
</g>
<path d="m964.95 852.03v33.808q0 2.4 2.4 2.4h7.7425q2.4 0 2.4-2.4v-33.808q0-2.4-2.4-2.4h-7.7425q-2.4 0-2.4 2.4z" clip-path="url(#a)" fill="#fff" stroke="#fff"/>
<g clip-path="url(#a)">
<g transform="translate(969.01 852.03) rotate(90) scale(.08 -.08)">
<use xlink:href="#l"/>
<use x="44.083984" xlink:href="#d"/>
<use x="105.607422" xlink:href="#f"/>
<use x="144.970703" xlink:href="#j"/>
<use x="242.382812" xlink:href="#i"/>
<use x="270.166016" xlink:href="#h"/>
<use x="333.544922" xlink:href="#g"/>
<use x="394.824219" xlink:href="#k"/>
</g>
</g>
<path d="m1031.3 852.03v33.808q0 2.4 2.4 2.4h7.7425q2.4 0 2.4-2.4v-33.808q0-2.4-2.4-2.4h-7.7425q-2.4 0-2.4 2.4z" clip-path="url(#a)" fill="#fff" stroke="#fff"/>
<g clip-path="url(#a)">
<g transform="translate(1035.3 852.03) rotate(90) scale(.08 -.08)">
<use xlink:href="#l"/>
<use x="44.083984" xlink:href="#d"/>
<use x="105.607422" xlink:href="#f"/>
<use x="144.970703" xlink:href="#j"/>
<use x="242.382812" xlink:href="#i"/>
<use x="270.166016" xlink:href="#h"/>
<use x="333.544922" xlink:href="#g"/>
<use x="394.824219" xlink:href="#k"/>
</g>
</g>
<path d="m1124 886.96 11.859-31.659q0.84185-2.2475-1.4057-3.0894l-7.2506-2.7158q-2.2475-0.84185-3.0894 1.4057l-11.859 31.659q-0.84185 2.2475 1.4057 3.0894l7.2506 2.7158q2.2475 0.84185 3.0894-1.4057z" clip-path="url(#a)" fill="#fff" stroke="#fff"/>
<g clip-path="url(#a)">
<g transform="translate(1120.1 885.54) rotate(-69.466) scale(.08 -.08)">
<use xlink:href="#l"/>
<use x="44.083984" xlink:href="#d"/>
<use x="105.607422" xlink:href="#f"/>
<use x="144.970703" xlink:href="#j"/>
<use x="242.382812" xlink:href="#i"/>
<use x="270.166016" xlink:href="#h"/>
<use x="333.544922" xlink:href="#g"/>
<use x="394.824219" xlink:href="#k"/>
</g>
</g>
<path d="m1147.7 855.3 11.859 31.659q0.84185 2.2475 3.0894 1.4057l7.2506-2.7158q2.2475-0.84185 1.4057-3.0894l-11.859-31.659q-0.84185-2.2475-3.0894-1.4057l-7.2506 2.7158q-2.2475 0.84185-1.4057 3.0894z" clip-path="url(#a)" fill="#fff" stroke="#fff"/>
<g clip-path="url(#a)">
<g transform="translate(1151.5 853.88) rotate(69.466) scale(.08 -.08)">
<use xlink:href="#l"/>
<use x="44.083984" xlink:href="#d"/>
<use x="105.607422" xlink:href="#f"/>
<use x="144.970703" xlink:href="#j"/>
<use x="242.382812" xlink:href="#i"/>
<use x="270.166016" xlink:href="#h"/>
<use x="333.544922" xlink:href="#g"/>
<use x="394.824219" xlink:href="#k"/>
</g>
</g>
<path d="m1244.5 852.03v33.808q0 2.4 2.4 2.4h7.7425q2.4 0 2.4-2.4v-33.808q0-2.4-2.4-2.4h-7.7425q-2.4 0-2.4 2.4z" clip-path="url(#a)" fill="#fff" stroke="#fff"/>
<g clip-path="url(#a)">
<g transform="translate(1248.5 852.03) rotate(90) scale(.08 -.08)">
<use xlink:href="#l"/>
<use x="44.083984" xlink:href="#d"/>
<use x="105.607422" xlink:href="#f"/>
<use x="144.970703" xlink:href="#j"/>
<use x="242.382812" xlink:href="#i"/>
<use x="270.166016" xlink:href="#h"/>
<use x="333.544922" xlink:href="#g"/>
<use x="394.824219" xlink:href="#k"/>
</g>
</g>
<path d="m1391 730.76 2.9577-4.7065q1.277-2.0321-0.75504-3.3091l-6.5555-4.1197q-2.0321-1.277-3.3091 0.75504l-2.9577 4.7065q-1.277 2.0321 0.75504 3.3091l6.5555 4.1197q2.0321 1.277 3.3091-0.75504z" clip-path="url(#a)" fill="#fff" stroke="#fff"/>
<g clip-path="url(#a)">
<g transform="translate(1387.5 728.6) rotate(-57.853) scale(.08 -.08)">
<use xlink:href="#z"/>
</g>
</g>
<path d="m1431.7 729.16 1.2165-5.4522q0.52265-2.3424-1.8198-2.865l-7.5567-1.6861q-2.3424-0.52265-2.865 1.8198l-1.2165 5.4522q-0.52265 2.3424 1.8198 2.865l7.5567 1.6861q2.3424 0.52265 2.865-1.8198z" clip-path="url(#a)" fill="#fff" stroke="#fff"/>
<g clip-path="url(#a)">
<g transform="translate(1427.8 728.27) rotate(-77.422) scale(.08 -.08)">
<use xlink:href="#q"/>
</g>
</g>
<path d="m1524.5 681.1 4.3562 2.5645q2.0682 1.2176 3.2858-0.85068l3.9279-6.6722q1.2176-2.0682-0.85068-3.2858l-4.3562-2.5645q-2.0682-1.2176-3.2858 0.85068l-3.9279 6.6722q-1.2176 2.0682 0.85068 3.2858z" clip-path="url(#a)" fill="#fff" stroke="#fff"/>
<g clip-path="url(#a)">
<g transform="translate(1526.6 677.6) rotate(30.485) scale(.08 -.08)">
<use xlink:href="#s"/>
</g>
</g>
<path d="m1320.3 852.03v33.808q0 2.4 2.4 2.4h7.7425q2.4 0 2.4-2.4v-33.808q0-2.4-2.4-2.4h-7.7425q-2.4 0-2.4 2.4z" clip-path="url(#a)" fill="#fff" stroke="#fff"/>
<g clip-path="url(#a)">
<g transform="translate(1324.3 852.03) rotate(90) scale(.08 -.08)">
<use xlink:href="#l"/>
<use x="44.083984" xlink:href="#d"/>
<use x="105.607422" xlink:href="#f"/>
<use x="144.970703" xlink:href="#j"/>
<use x="242.382812" xlink:href="#i"/>
<use x="270.166016" xlink:href="#h"/>
<use x="333.544922" xlink:href="#g"/>
<use x="394.824219" xlink:href="#k"/>
</g>
</g>
<path d="m1398.4 852.03v33.808q0 2.4 2.4 2.4h7.7425q2.4 0 2.4-2.4v-33.808q0-2.4-2.4-2.4h-7.7425q-2.4 0-2.4 2.4z" clip-path="url(#a)" fill="#fff" stroke="#fff"/>
<g clip-path="url(#a)">
<g transform="translate(1402.5 852.03) rotate(90) scale(.08 -.08)">
<use xlink:href="#l"/>
<use x="44.083984" xlink:href="#d"/>
<use x="105.607422" xlink:href="#f"/>
<use x="144.970703" xlink:href="#j"/>
<use x="242.382812" xlink:href="#i"/>
<use x="270.166016" xlink:href="#h"/>
<use x="333.544922" xlink:href="#g"/>
<use x="394.824219" xlink:href="#k"/>
</g>
</g>
<path d="m1550.2 780.09 4.4279-3.3605q1.9118-1.4509 0.46086-3.3627l-4.6807-6.1674q-1.4509-1.9118-3.3627-0.46086l-4.4279 3.3605q-1.9118 1.4509-0.46086 3.3627l4.6807 6.1674q1.4509 1.9118 3.3627 0.46086z" clip-path="url(#a)" fill="#fff" stroke="#fff"/>
<g clip-path="url(#a)">
<g transform="translate(1547.7 776.85) rotate(-37.196) scale(.08 -.08)">
<use xlink:href="#z"/>
</g>
</g>
<path d="m1594.7 778.31 2.0959-4.6q0.99509-2.184-1.1889-3.1791l-7.0456-3.2102q-2.184-0.99509-3.1791 1.1889l-2.0959 4.6q-0.99509 2.184 1.1889 3.1791l7.0456 3.2102q2.184 0.99509 3.1791-1.1889z" clip-path="url(#a)" fill="#fff" stroke="#fff"/>
<g clip-path="url(#a)">
<g transform="translate(1591 776.63) rotate(-65.505) scale(.08 -.08)">
<use xlink:href="#s"/>
</g>
</g>
<path d="m1625.9 773.33 2.2111 5.13q0.94993 2.204 3.1539 1.2541l7.1102-3.0645q2.204-0.94993 1.2541-3.1539l-2.2111-5.13q-0.94993-2.204-3.1539-1.2541l-7.1102 3.0645q-2.204 0.94993-1.2541 3.1539z" clip-path="url(#a)" fill="#fff" stroke="#fff"/>
<g clip-path="url(#a)">
<g transform="translate(1629.6 771.72) rotate(66.684) scale(.08 -.08)">
<use xlink:href="#q"/>
</g>
</g>
<path d="m1670.4 776.69 4.6952 3.498q1.9246 1.4338 3.3584-0.49075l4.6257-6.2088q1.4338-1.9246-0.49075-3.3584l-4.6952-3.498q-1.9246-1.4338-3.3584 0.49075l-4.6257 6.2088q-1.4338 1.9246 0.49075 3.3584z" clip-path="url(#a)" fill="#fff" stroke="#fff"/>
<g clip-path="url(#a)">
<g transform="translate(1672.9 773.43) rotate(36.687) scale(.08 -.08)">
<use xlink:href="#ad"/>
</g>
</g>
<path d="m1479 852.03v33.808q0 2.4 2.4 2.4h7.7425q2.4 0 2.4-2.4v-33.808q0-2.4-2.4-2.4h-7.7425q-2.4 0-2.4 2.4z" clip-path="url(#a)" fill="#fff" stroke="#fff"/>
<g clip-path="url(#a)">
<g transform="translate(1483 852.03) rotate(90) scale(.08 -.08)">
<use xlink:href="#l"/>
<use x="44.083984" xlink:href="#d"/>
<use x="105.607422" xlink:href="#f"/>
<use x="144.970703" xlink:href="#j"/>
<use x="242.382812" xlink:href="#i"/>
<use x="270.166016" xlink:href="#h"/>
<use x="333.544922" xlink:href="#g"/>
<use x="394.824219" xlink:href="#k"/>
</g>
</g>
<path d="m1561.9 852.03v33.808q0 2.4 2.4 2.4h7.7425q2.4 0 2.4-2.4v-33.808q0-2.4-2.4-2.4h-7.7425q-2.4 0-2.4 2.4z" clip-path="url(#a)" fill="#fff" stroke="#fff"/>
<g clip-path="url(#a)">
<g transform="translate(1566 852.03) rotate(90) scale(.08 -.08)">
<use xlink:href="#l"/>
<use x="44.083984" xlink:href="#d"/>
<use x="105.607422" xlink:href="#f"/>
<use x="144.970703" xlink:href="#j"/>
<use x="242.382812" xlink:href="#i"/>
<use x="270.166016" xlink:href="#h"/>
<use x="333.544922" xlink:href="#g"/>
<use x="394.824219" xlink:href="#k"/>
</g>
</g>
<path d="m1647.2 852.03v33.808q0 2.4 2.4 2.4h7.7425q2.4 0 2.4-2.4v-33.808q0-2.4-2.4-2.4h-7.7425q-2.4 0-2.4 2.4z" clip-path="url(#a)" fill="#fff" stroke="#fff"/>
<g clip-path="url(#a)">
<g transform="translate(1651.2 852.03) rotate(90) scale(.08 -.08)">
<use xlink:href="#l"/>
<use x="44.083984" xlink:href="#d"/>
<use x="105.607422" xlink:href="#f"/>
<use x="144.970703" xlink:href="#j"/>
<use x="242.382812" xlink:href="#i"/>
<use x="270.166016" xlink:href="#h"/>
<use x="333.544922" xlink:href="#g"/>
<use x="394.824219" xlink:href="#k"/>
</g>
</g>
<path d="m839.4 852.03v33.808q0 2.4 2.4 2.4h7.7425q2.4 0 2.4-2.4v-33.808q0-2.4-2.4-2.4h-7.7425q-2.4 0-2.4 2.4z" clip-path="url(#a)" fill="#fff" stroke="#fff"/>
<g clip-path="url(#a)">
<g transform="translate(843.47 852.03) rotate(90) scale(.08 -.08)">
<use xlink:href="#l"/>
<use x="44.083984" xlink:href="#d"/>
<use x="105.607422" xlink:href="#f"/>
<use x="144.970703" xlink:href="#j"/>
<use x="242.382812" xlink:href="#i"/>
<use x="270.166016" xlink:href="#h"/>
<use x="333.544922" xlink:href="#g"/>
<use x="394.824219" xlink:href="#k"/>
</g>
</g>
<path d="m900.99 852.03v33.808q0 2.4 2.4 2.4h7.7425q2.4 0 2.4-2.4v-33.808q0-2.4-2.4-2.4h-7.7425q-2.4 0-2.4 2.4z" clip-path="url(#a)" fill="#fff" stroke="#fff"/>
<g clip-path="url(#a)">
<g transform="translate(905.05 852.03) rotate(90) scale(.08 -.08)">
<use xlink:href="#l"/>
<use x="44.083984" xlink:href="#d"/>
<use x="105.607422" xlink:href="#f"/>
<use x="144.970703" xlink:href="#j"/>
<use x="242.382812" xlink:href="#i"/>
<use x="270.166016" xlink:href="#h"/>
<use x="333.544922" xlink:href="#g"/>
<use x="394.824219" xlink:href="#k"/>
</g>
</g>
<path d="m151.43 886.38 3.3601-33.64q0.23854-2.3881-2.1496-2.6267l-7.7042-0.76953q-2.3881-0.23854-2.6267 2.1496l-3.3601 33.64q-0.23854 2.3881 2.1496 2.6267l7.7042 0.76953q2.3881 0.23854 2.6267-2.1496z" clip-path="url(#a)" fill="#fff" stroke="#fff"/>
<g clip-path="url(#a)">
<g transform="translate(147.38 885.97) rotate(-84.296) scale(.08 -.08)">
<use xlink:href="#l"/>
<use x="44.083984" xlink:href="#d"/>
<use x="105.607422" xlink:href="#f"/>
<use x="144.970703" xlink:href="#j"/>
<use x="242.382812" xlink:href="#i"/>
<use x="270.166016" xlink:href="#h"/>
<use x="333.544922" xlink:href="#g"/>
<use x="394.824219" xlink:href="#k"/>
</g>
</g>
<path d="m148.42 852.74 3.3601 33.64q0.23854 2.3881 2.6267 2.1496l7.7042-0.76953q2.3881-0.23854 2.1496-2.6267l-3.3601-33.64q-0.23854-2.3881-2.6267-2.1496l-7.7042 0.76953q-2.3881 0.23854-2.1496 2.6267z" clip-path="url(#a)" fill="#fff" stroke="#fff"/>
<g clip-path="url(#a)">
<g transform="translate(152.47 852.33) rotate(84.296) scale(.08 -.08)">
<use xlink:href="#l"/>
<use x="44.083984" xlink:href="#d"/>
<use x="105.607422" xlink:href="#f"/>
<use x="144.970703" xlink:href="#j"/>
<use x="242.382812" xlink:href="#i"/>
<use x="270.166016" xlink:href="#h"/>
<use x="333.544922" xlink:href="#g"/>
<use x="394.824219" xlink:href="#k"/>
</g>
</g>
<path d="m176.13 852.03v33.808q0 2.4 2.4 2.4h7.7425q2.4 0 2.4-2.4v-33.808q0-2.4-2.4-2.4h-7.7425q-2.4 0-2.4 2.4z" clip-path="url(#a)" fill="#fff" stroke="#fff"/>
<g clip-path="url(#a)">
<g transform="translate(180.19 852.03) rotate(90) scale(.08 -.08)">
<use xlink:href="#l"/>
<use x="44.083984" xlink:href="#d"/>
<use x="105.607422" xlink:href="#f"/>
<use x="144.970703" xlink:href="#j"/>
<use x="242.382812" xlink:href="#i"/>
<use x="270.166016" xlink:href="#h"/>
<use x="333.544922" xlink:href="#g"/>
<use x="394.824219" xlink:href="#k"/>
</g>
</g>
<path d="m199.82 852.03v33.808q0 2.4 2.4 2.4h7.7425q2.4 0 2.4-2.4v-33.808q0-2.4-2.4-2.4h-7.7425q-2.4 0-2.4 2.4z" clip-path="url(#a)" fill="#fff" stroke="#fff"/>
<g clip-path="url(#a)">
<g transform="translate(203.88 852.03) rotate(90) scale(.08 -.08)">
<use xlink:href="#l"/>
<use x="44.083984" xlink:href="#d"/>
<use x="105.607422" xlink:href="#f"/>
<use x="144.970703" xlink:href="#j"/>
<use x="242.382812" xlink:href="#i"/>
<use x="270.166016" xlink:href="#h"/>
<use x="333.544922" xlink:href="#g"/>
<use x="394.824219" xlink:href="#k"/>
</g>
</g>
<path d="m76.638 852.03v33.808q0 2.4 2.4 2.4h7.7425q2.4 0 2.4-2.4v-33.808q0-2.4-2.4-2.4h-7.7425q-2.4 0-2.4 2.4z" clip-path="url(#a)" fill="#fff" stroke="#fff"/>
<g clip-path="url(#a)">
<g transform="translate(80.702 852.03) rotate(90) scale(.08 -.08)">
<use xlink:href="#l"/>
<use x="44.083984" xlink:href="#d"/>
<use x="105.607422" xlink:href="#f"/>
<use x="144.970703" xlink:href="#j"/>
<use x="242.382812" xlink:href="#i"/>
<use x="270.166016" xlink:href="#h"/>
<use x="333.544922" xlink:href="#g"/>
<use x="394.824219" xlink:href="#k"/>
</g>
</g>
<path d="m101.09 776.84 0.5899-5.5274q0.25469-2.3864-2.1318-2.6411l-7.6988-0.82165q-2.3864-0.25469-2.6411 2.1318l-0.5899 5.5274q-0.25469 2.3864 2.1318 2.6411l7.6988 0.82165q2.3864 0.25469 2.6411-2.1318z" clip-path="url(#a)" fill="#fff" stroke="#fff"/>
<g clip-path="url(#a)">
<g transform="translate(97.048 776.41) rotate(-83.908) scale(.08 -.08)">
<use xlink:href="#z"/>
</g>
</g>
<path d="m106.14 775.99 0.041498-5.0548q0.019702-2.3999-2.3802-2.4196l-7.7422-0.06356q-2.3999-0.019702-2.4196 2.3802l-0.041498 5.0548q-0.019703 2.3999 2.3802 2.4196l7.7422 0.06356q2.3999 0.019702 2.4196-2.3802z" clip-path="url(#a)" fill="#fff" stroke="#fff"/>
<g clip-path="url(#a)">
<g transform="translate(102.07 775.96) rotate(-89.53) scale(.08 -.08)">
<use xlink:href="#s"/>
</g>
</g>
<path d="m99.259 771.35 0.63785 5.5497q0.27404 2.3843 2.6583 2.1103l7.6919-0.88405q2.3843-0.27404 2.1103-2.6583l-0.63785-5.5497q-0.27404-2.3843-2.6583-2.1103l-7.6919 0.88405q-2.3843 0.27404-2.1103 2.6583z" clip-path="url(#a)" fill="#fff" stroke="#fff"/>
<g clip-path="url(#a)">
<g transform="translate(103.3 770.89) rotate(83.444) scale(.08 -.08)">
<use xlink:href="#q"/>
</g>
</g>
<path d="m119.28 852.03v33.808q0 2.4 2.4 2.4h7.7425q2.4 0 2.4-2.4v-33.808q0-2.4-2.4-2.4h-7.7425q-2.4 0-2.4 2.4z" clip-path="url(#a)" fill="#fff" stroke="#fff"/>
<g clip-path="url(#a)">
<g transform="translate(123.34 852.03) rotate(90) scale(.08 -.08)">
<use xlink:href="#l"/>
<use x="44.083984" xlink:href="#d"/>
<use x="105.607422" xlink:href="#f"/>
<use x="144.970703" xlink:href="#j"/>
<use x="242.382812" xlink:href="#i"/>
<use x="270.166016" xlink:href="#h"/>
<use x="333.544922" xlink:href="#g"/>
<use x="394.824219" xlink:href="#k"/>
</g>
</g>
<path d="m83.744 852.03v33.808q0 2.4 2.4 2.4h7.7425q2.4 0 2.4-2.4v-33.808q0-2.4-2.4-2.4h-7.7425q-2.4 0-2.4 2.4z" clip-path="url(#a)" fill="#fff" stroke="#fff"/>
<g clip-path="url(#a)">
<g transform="translate(87.808 852.03) rotate(90) scale(.08 -.08)">
<use xlink:href="#l"/>
<use x="44.083984" xlink:href="#d"/>
<use x="105.607422" xlink:href="#f"/>
<use x="144.970703" xlink:href="#j"/>
<use x="242.382812" xlink:href="#i"/>
<use x="270.166016" xlink:href="#h"/>
<use x="333.544922" xlink:href="#g"/>
<use x="394.824219" xlink:href="#k"/>
</g>
</g>
<path d="m93.22 852.03v33.808q0 2.4 2.4 2.4h7.7425q2.4 0 2.4-2.4v-33.808q0-2.4-2.4-2.4h-7.7425q-2.4 0-2.4 2.4z" clip-path="url(#a)" fill="#fff" stroke="#fff"/>
<g clip-path="url(#a)">
<g transform="translate(97.283 852.03) rotate(90) scale(.08 -.08)">
<use xlink:href="#l"/>
<use x="44.083984" xlink:href="#d"/>
<use x="105.607422" xlink:href="#f"/>
<use x="144.970703" xlink:href="#j"/>
<use x="242.382812" xlink:href="#i"/>
<use x="270.166016" xlink:href="#h"/>
<use x="333.544922" xlink:href="#g"/>
<use x="394.824219" xlink:href="#k"/>
</g>
</g>
<path d="m105.06 852.03v33.808q0 2.4 2.4 2.4h7.7425q2.4 0 2.4-2.4v-33.808q0-2.4-2.4-2.4h-7.7425q-2.4 0-2.4 2.4z" clip-path="url(#a)" fill="#fff" stroke="#fff"/>
<g clip-path="url(#a)">
<g transform="translate(109.13 852.03) rotate(90) scale(.08 -.08)">
<use xlink:href="#l"/>
<use x="44.083984" xlink:href="#d"/>
<use x="105.607422" xlink:href="#f"/>
<use x="144.970703" xlink:href="#j"/>
<use x="242.382812" xlink:href="#i"/>
<use x="270.166016" xlink:href="#h"/>
<use x="333.544922" xlink:href="#g"/>
<use x="394.824219" xlink:href="#k"/>
</g>
</g>
<path d="m225.87 852.03v33.808q0 2.4 2.4 2.4h7.7425q2.4 0 2.4-2.4v-33.808q0-2.4-2.4-2.4h-7.7425q-2.4 0-2.4 2.4z" clip-path="url(#a)" fill="#fff" stroke="#fff"/>
<g clip-path="url(#a)">
<g transform="translate(229.94 852.03) rotate(90) scale(.08 -.08)">
<use xlink:href="#l"/>
<use x="44.083984" xlink:href="#d"/>
<use x="105.607422" xlink:href="#f"/>
<use x="144.970703" xlink:href="#j"/>
<use x="242.382812" xlink:href="#i"/>
<use x="270.166016" xlink:href="#h"/>
<use x="333.544922" xlink:href="#g"/>
<use x="394.824219" xlink:href="#k"/>
</g>
</g>
<path d="m519.61 852.03v33.808q0 2.4 2.4 2.4h7.7425q2.4 0 2.4-2.4v-33.808q0-2.4-2.4-2.4h-7.7425q-2.4 0-2.4 2.4z" clip-path="url(#a)" fill="#fff" stroke="#fff"/>
<g clip-path="url(#a)">
<g transform="translate(523.67 852.03) rotate(90) scale(.08 -.08)">
<use xlink:href="#l"/>
<use x="44.083984" xlink:href="#d"/>
<use x="105.607422" xlink:href="#f"/>
<use x="144.970703" xlink:href="#j"/>
<use x="242.382812" xlink:href="#i"/>
<use x="270.166016" xlink:href="#h"/>
<use x="333.544922" xlink:href="#g"/>
<use x="394.824219" xlink:href="#k"/>
</g>
</g>
<path d="m1734.8 852.03v33.808q0 2.4 2.4 2.4h7.7425q2.4 0 2.4-2.4v-33.808q0-2.4-2.4-2.4h-7.7425q-2.4 0-2.4 2.4z" clip-path="url(#a)" fill="#fff" stroke="#fff"/>
<g clip-path="url(#a)">
<g transform="translate(1738.9 852.03) rotate(90) scale(.08 -.08)">
<use xlink:href="#l"/>
<use x="44.083984" xlink:href="#d"/>
<use x="105.607422" xlink:href="#f"/>
<use x="144.970703" xlink:href="#j"/>
<use x="242.382812" xlink:href="#i"/>
<use x="270.166016" xlink:href="#h"/>
<use x="333.544922" xlink:href="#g"/>
<use x="394.824219" xlink:href="#k"/>
</g>
</g>
<defs>
<path id="b" d="m0 8.6603c2.2967 0 4.4997-0.9125 6.1237-2.5365 1.624-1.624 2.5365-3.827 2.5365-6.1237s-0.9125-4.4997-2.5365-6.1237c-1.624-1.624-3.827-2.5365-6.1237-2.5365s-4.4997 0.9125-6.1237 2.5365c-1.624 1.624-2.5365 3.827-2.5365 6.1237s0.9125 4.4997 2.5365 6.1237c1.624 1.624 3.827 2.5365 6.1237 2.5365z"/>
</defs>
<g clip-path="url(#a)">
<use x="82.909091" y="916.363636" fill="#ffffff" stroke="#ffffff" xlink:href="#b"/>
</g>
<g clip-path="url(#a)">
<use x="90.015584" y="916.363636" fill="#ffffff" stroke="#ffffff" xlink:href="#b"/>
</g>
<g clip-path="url(#a)">
<use x="99.490909" y="916.363636" fill="#ffffff" stroke="#ffffff" xlink:href="#b"/>
</g>
<g clip-path="url(#a)">
<use x="111.335065" y="916.363636" fill="#ffffff" stroke="#ffffff" xlink:href="#b"/>
</g>
<g clip-path="url(#a)">
<use x="125.548052" y="916.363636" fill="#ffffff" stroke="#ffffff" xlink:href="#b"/>
</g>
<g clip-path="url(#a)">
<use x="142.12987" y="916.363636" fill="#ffffff" stroke="#ffffff" xlink:href="#b"/>
</g>
<g clip-path="url(#a)">
<use x="161.080519" y="916.363636" fill="#ffffff" stroke="#ffffff" xlink:href="#b"/>
</g>
<g clip-path="url(#a)">
<use x="182.4" y="916.363636" fill="#ffffff" stroke="#ffffff" xlink:href="#b"/>
</g>
<g clip-path="url(#a)">
<use x="206.088312" y="916.363636" fill="#ffffff" stroke="#ffffff" xlink:href="#b"/>
</g>
<g clip-path="url(#a)">
<use x="232.145455" y="916.363636" fill="#ffffff" stroke="#ffffff" xlink:href="#b"/>
</g>
<g clip-path="url(#a)">
<use x="260.571429" y="916.363636" fill="#ffffff" stroke="#ffffff" xlink:href="#b"/>
</g>
<g clip-path="url(#a)">
<use x="291.366234" y="916.363636" fill="#ffffff" stroke="#ffffff" xlink:href="#b"/>
</g>
<g clip-path="url(#a)">
<use x="324.52987" y="916.363636" fill="#ffffff" stroke="#ffffff" xlink:href="#b"/>
</g>
<g clip-path="url(#a)">
<use x="360.062338" y="916.363636" fill="#ffffff" stroke="#ffffff" xlink:href="#b"/>
</g>
<g clip-path="url(#a)">
<use x="397.963636" y="916.363636" fill="#ffffff" stroke="#ffffff" xlink:href="#b"/>
</g>
<g clip-path="url(#a)">
<use x="438.233766" y="916.363636" fill="#ffffff" stroke="#ffffff" xlink:href="#b"/>
</g>
<g clip-path="url(#a)">
<use x="480.872727" y="916.363636" fill="#ffffff" stroke="#ffffff" xlink:href="#b"/>
</g>
<g clip-path="url(#a)">
<use x="525.880519" y="916.363636" fill="#ffffff" stroke="#ffffff" xlink:href="#b"/>
</g>
<g clip-path="url(#a)">
<use x="573.257143" y="916.363636" fill="#ffffff" stroke="#ffffff" xlink:href="#b"/>
</g>
<g clip-path="url(#a)">
<use x="623.002597" y="916.363636" fill="#ffffff" stroke="#ffffff" xlink:href="#b"/>
</g>
<g clip-path="url(#a)">
<use x="675.116883" y="916.363636" fill="#ffffff" stroke="#ffffff" xlink:href="#b"/>
</g>
<g clip-path="url(#a)">
<use x="729.6" y="916.363636" fill="#ffffff" stroke="#ffffff" xlink:href="#b"/>
</g>
<g clip-path="url(#a)">
<use x="786.451948" y="916.363636" fill="#ffffff" stroke="#ffffff" xlink:href="#b"/>
</g>
<g clip-path="url(#a)">
<use x="845.672727" y="916.363636" fill="#ffffff" stroke="#ffffff" xlink:href="#b"/>
</g>
<g clip-path="url(#a)">
<use x="907.262338" y="916.363636" fill="#ffffff" stroke="#ffffff" xlink:href="#b"/>
</g>
<g clip-path="url(#a)">
<use x="971.220779" y="916.363636" fill="#ffffff" stroke="#ffffff" xlink:href="#b"/>
</g>
<g clip-path="url(#a)">
<use x="1037.548052" y="916.363636" fill="#ffffff" stroke="#ffffff" xlink:href="#b"/>
</g>
<g clip-path="url(#a)">
<use x="1106.244156" y="916.363636" fill="#ffffff" stroke="#ffffff" xlink:href="#b"/>
</g>
<g clip-path="url(#a)">
<use x="1177.309091" y="916.363636" fill="#ffffff" stroke="#ffffff" xlink:href="#b"/>
</g>
<g clip-path="url(#a)">
<use x="1250.742857" y="916.363636" fill="#ffffff" stroke="#ffffff" xlink:href="#b"/>
</g>
<g clip-path="url(#a)">
<use x="1326.545455" y="916.363636" fill="#ffffff" stroke="#ffffff" xlink:href="#b"/>
</g>
<g clip-path="url(#a)">
<use x="1404.716883" y="916.363636" fill="#ffffff" stroke="#ffffff" xlink:href="#b"/>
</g>
<g clip-path="url(#a)">
<use x="1485.257143" y="916.363636" fill="#ffffff" stroke="#ffffff" xlink:href="#b"/>
</g>
<g clip-path="url(#a)">
<use x="1568.166234" y="916.363636" fill="#ffffff" stroke="#ffffff" xlink:href="#b"/>
</g>
<g clip-path="url(#a)">
<use x="1653.444156" y="916.363636" fill="#ffffff" stroke="#ffffff" xlink:href="#b"/>
</g>
<g clip-path="url(#a)">
<use x="1741.090909" y="916.363636" fill="#ffffff" stroke="#ffffff" xlink:href="#b"/>
</g>
<g clip-path="url(#a)">
<use x="328.204535" y="43.636364" fill="#ffffff" stroke="#ffffff" xlink:href="#b"/>
</g>
<g clip-path="url(#a)">
<use x="328.204535" y="141.519234" fill="#ffffff" stroke="#ffffff" xlink:href="#b"/>
</g>
<g clip-path="url(#a)">
<use x="270.380458" y="239.279508" fill="#ffffff" stroke="#ffffff" xlink:href="#b"/>
</g>
<g clip-path="url(#a)">
<use x="260.571429" y="821.501344" fill="#ffffff" stroke="#ffffff" xlink:href="#b"/>
</g>
<g clip-path="url(#a)">
<use x="291.366234" y="821.501344" fill="#ffffff" stroke="#ffffff" xlink:href="#b"/>
</g>
<g clip-path="url(#a)">
<use x="388.883117" y="628.633017" fill="#ffffff" stroke="#ffffff" xlink:href="#b"/>
</g>
<g clip-path="url(#a)">
<use x="342.296104" y="725.319414" fill="#ffffff" stroke="#ffffff" xlink:href="#b"/>
</g>
<g clip-path="url(#a)">
<use x="397.963636" y="821.501344" fill="#ffffff" stroke="#ffffff" xlink:href="#b"/>
</g>
<g clip-path="url(#a)">
<use x="426.38961" y="725.319414" fill="#ffffff" stroke="#ffffff" xlink:href="#b"/>
</g>
<g clip-path="url(#a)">
<use x="438.233766" y="821.501344" fill="#ffffff" stroke="#ffffff" xlink:href="#b"/>
</g>
<g clip-path="url(#a)">
<use x="480.872727" y="821.501344" fill="#ffffff" stroke="#ffffff" xlink:href="#b"/>
</g>
<g clip-path="url(#a)">
<use x="324.52987" y="821.501344" fill="#ffffff" stroke="#ffffff" xlink:href="#b"/>
</g>
<g clip-path="url(#a)">
<use x="360.062338" y="821.501344" fill="#ffffff" stroke="#ffffff" xlink:href="#b"/>
</g>
<g clip-path="url(#a)">
<use x="122.192208" y="628.633017" fill="#ffffff" stroke="#ffffff" xlink:href="#b"/>
</g>
<g clip-path="url(#a)">
<use x="180.031169" y="725.319414" fill="#ffffff" stroke="#ffffff" xlink:href="#b"/>
</g>
<g clip-path="url(#a)">
<use x="508.917996" y="336.899748" fill="#ffffff" stroke="#ffffff" xlink:href="#b"/>
</g>
<g clip-path="url(#a)">
<use x="573.257143" y="821.501344" fill="#ffffff" stroke="#ffffff" xlink:href="#b"/>
</g>
<g clip-path="url(#a)">
<use x="773.465677" y="434.356667" fill="#ffffff" stroke="#ffffff" xlink:href="#b"/>
</g>
<g clip-path="url(#a)">
<use x="623.002597" y="821.501344" fill="#ffffff" stroke="#ffffff" xlink:href="#b"/>
</g>
<g clip-path="url(#a)">
<use x="675.116883" y="821.501344" fill="#ffffff" stroke="#ffffff" xlink:href="#b"/>
</g>
<g clip-path="url(#a)">
<use x="729.6" y="821.501344" fill="#ffffff" stroke="#ffffff" xlink:href="#b"/>
</g>
<g clip-path="url(#a)">
<use x="1066.143228" y="531.617556" fill="#ffffff" stroke="#ffffff" xlink:href="#b"/>
</g>
<g clip-path="url(#a)">
<use x="786.451948" y="821.501344" fill="#ffffff" stroke="#ffffff" xlink:href="#b"/>
</g>
<g clip-path="url(#a)">
<use x="827.511688" y="725.319414" fill="#ffffff" stroke="#ffffff" xlink:href="#b"/>
</g>
<g clip-path="url(#a)">
<use x="971.220779" y="821.501344" fill="#ffffff" stroke="#ffffff" xlink:href="#b"/>
</g>
<g clip-path="url(#a)">
<use x="1037.548052" y="821.501344" fill="#ffffff" stroke="#ffffff" xlink:href="#b"/>
</g>
<g clip-path="url(#a)">
<use x="1141.776623" y="821.501344" fill="#ffffff" stroke="#ffffff" xlink:href="#b"/>
</g>
<g clip-path="url(#a)">
<use x="1250.742857" y="821.501344" fill="#ffffff" stroke="#ffffff" xlink:href="#b"/>
</g>
<g clip-path="url(#a)">
<use x="1447.750649" y="628.633017" fill="#ffffff" stroke="#ffffff" xlink:href="#b"/>
</g>
<g clip-path="url(#a)">
<use x="1326.545455" y="821.501344" fill="#ffffff" stroke="#ffffff" xlink:href="#b"/>
</g>
<g clip-path="url(#a)">
<use x="1404.716883" y="821.501344" fill="#ffffff" stroke="#ffffff" xlink:href="#b"/>
</g>
<g clip-path="url(#a)">
<use x="1611.98961" y="725.319414" fill="#ffffff" stroke="#ffffff" xlink:href="#b"/>
</g>
<g clip-path="url(#a)">
<use x="1485.257143" y="821.501344" fill="#ffffff" stroke="#ffffff" xlink:href="#b"/>
</g>
<g clip-path="url(#a)">
<use x="1568.166234" y="821.501344" fill="#ffffff" stroke="#ffffff" xlink:href="#b"/>
</g>
<g clip-path="url(#a)">
<use x="1653.444156" y="821.501344" fill="#ffffff" stroke="#ffffff" xlink:href="#b"/>
</g>
<g clip-path="url(#a)">
<use x="845.672727" y="821.501344" fill="#ffffff" stroke="#ffffff" xlink:href="#b"/>
</g>
<g clip-path="url(#a)">
<use x="907.262338" y="821.501344" fill="#ffffff" stroke="#ffffff" xlink:href="#b"/>
</g>
<g clip-path="url(#a)">
<use x="151.605195" y="821.501344" fill="#ffffff" stroke="#ffffff" xlink:href="#b"/>
</g>
<g clip-path="url(#a)">
<use x="182.4" y="821.501344" fill="#ffffff" stroke="#ffffff" xlink:href="#b"/>
</g>
<g clip-path="url(#a)">
<use x="206.088312" y="821.501344" fill="#ffffff" stroke="#ffffff" xlink:href="#b"/>
</g>
<g clip-path="url(#a)">
<use x="82.909091" y="821.501344" fill="#ffffff" stroke="#ffffff" xlink:href="#b"/>
</g>
<g clip-path="url(#a)">
<use x="100.280519" y="725.319414" fill="#ffffff" stroke="#ffffff" xlink:href="#b"/>
</g>
<g clip-path="url(#a)">
<use x="125.548052" y="821.501344" fill="#ffffff" stroke="#ffffff" xlink:href="#b"/>
</g>
<g clip-path="url(#a)">
<use x="90.015584" y="821.501344" fill="#ffffff" stroke="#ffffff" xlink:href="#b"/>
</g>
<g clip-path="url(#a)">
<use x="99.490909" y="821.501344" fill="#ffffff" stroke="#ffffff" xlink:href="#b"/>
</g>
<g clip-path="url(#a)">
<use x="111.335065" y="821.501344" fill="#ffffff" stroke="#ffffff" xlink:href="#b"/>
</g>
<g clip-path="url(#a)">
<use x="232.145455" y="821.501344" fill="#ffffff" stroke="#ffffff" xlink:href="#b"/>
</g>
<g clip-path="url(#a)">
<use x="525.880519" y="821.501344" fill="#ffffff" stroke="#ffffff" xlink:href="#b"/>
</g>
<g clip-path="url(#a)">
<use x="1741.090909" y="821.501344" fill="#ffffff" stroke="#ffffff" xlink:href="#b"/>
</g>
<g clip-path="url(#a)">
<defs>
<path id="m" d="m44.281 53.078v-8.5q-3.7969 1.9531-7.9062 2.9219-4.0938 0.98438-8.5 0.98438-6.6875 0-10.031-2.0469t-3.3438-6.1562q0-3.125 2.3906-4.9062t9.625-3.3906l3.0781-0.6875q9.5625-2.0469 13.594-5.7812t4.0312-10.422q0-7.625-6.0312-12.078-6.0312-4.4375-16.578-4.4375-4.3906 0-9.1562 0.85938t-10.031 2.5625v9.2812q4.9844-2.5938 9.8125-3.8906 4.8281-1.2812 9.5781-1.2812 6.3438 0 9.75 2.1719 3.4219 2.1719 3.4219 6.125 0 3.6562-2.4688 5.6094-2.4531 1.9531-10.812 3.7656l-3.125 0.73438q-8.3438 1.75-12.062 5.3906-3.7031 3.6406-3.7031 9.9844 0 7.7188 5.4688 11.906 5.4688 4.2031 15.531 4.2031 4.9688 0 9.3594-0.73438 4.4062-0.71875 8.1094-2.1875z"/>
</defs>
<g transform="translate(70.286 919.12) scale(.1 -.1)">
<use xlink:href="#v"/>
<use x="68.408203" xlink:href="#m"/>
<use x="120.507812" xlink:href="#m"/>
<use x="172.607422" xlink:href="#i"/>
<use x="200.390625" xlink:href="#m"/>
</g>
</g>
<g clip-path="url(#a)">
<defs>
<path id="t" d="m8.5 21.578v33.109h8.9844v-32.766q0-7.7656 3.0156-11.656 3.0312-3.875 9.0938-3.875 7.2656 0 11.484 4.6406 4.2344 4.6406 4.2344 12.656v31h8.9844v-54.688h-8.9844v8.4062q-3.2656-4.9844-7.5938-7.4062-4.3125-2.4219-10.031-2.4219-9.4219 0-14.312 5.8594-4.875 5.8594-4.875 17.141z"/>
</defs>
<g transform="translate(82.187 919.12) scale(.1 -.1)">
<use xlink:href="#m"/>
<use x="52.099609" xlink:href="#t"/>
<use x="115.478516" xlink:href="#f"/>
</g>
</g>
<g clip-path="url(#a)">
<g transform="translate(95.038 919.12) scale(.1 -.1)">
<use xlink:href="#k"/>
<use x="27.783203" xlink:href="#g"/>
</g>
</g>
<g clip-path="url(#a)">
<defs>
<path id="u" d="m45.406 46.391v29.594h8.9844v-75.984h-8.9844v8.2031q-2.8281-4.875-7.1562-7.25-4.3125-2.375-10.375-2.375-9.9062 0-16.141 7.9062-6.2188 7.9219-6.2188 20.812t6.2188 20.797q6.2344 7.9062 16.141 7.9062 6.0625 0 10.375-2.375 4.3281-2.3594 7.1562-7.2344zm-30.609-19.094q0-9.9062 4.0781-15.547t11.203-5.6406 11.219 5.6406q4.1094 5.6406 4.1094 15.547t-4.1094 15.547q-4.0938 5.6406-11.219 5.6406t-11.203-5.6406-4.0781-15.547z"/>
<path id="r" d="m18.312 70.219v-15.531h18.5v-6.9844h-18.5v-29.688q0-6.6875 1.8281-8.5938t7.4531-1.9062h9.2188v-7.5156h-9.2188q-10.406 0-14.359 3.875-3.9531 3.8906-3.9531 14.141v29.688h-6.5938v6.9844h6.5938v15.531z"/>
</defs>
<g transform="translate(91.75 919.12) scale(.1 -.1)">
<use xlink:href="#u"/>
<use x="63.476562" xlink:href="#t"/>
<use x="126.855469" xlink:href="#h"/>
<use x="190.234375" xlink:href="#d"/>
<use x="251.757812" xlink:href="#r"/>
<use x="290.966797" xlink:href="#r"/>
<use x="330.175781" xlink:href="#d"/>
</g>
</g>
<g clip-path="url(#a)">
<defs>
<path id="ah" d="m11.719 12.406h10.297v-8.4062l-8-15.625h-6.2969l4 15.625z"/>
</defs>
<g transform="translate(123.96 919.12) scale(.1 -.1)">
<use xlink:href="#ah"/>
</g>
</g>
<g clip-path="url(#a)">
<g transform="translate(132.14 919.12) scale(.1 -.1)">
<use xlink:href="#ag"/>
<use x="74.804688" xlink:href="#d"/>
<use x="136.328125" xlink:href="#u"/>
</g>
</g>
<g clip-path="url(#a)">
<defs>
<path id="aq" d="m9.8125 72.906h9.8594v-64.609h35.5v-8.2969h-45.359z"/>
</defs>
<g transform="translate(148.89 919.12) scale(.1 -.1)">
<use xlink:href="#aq"/>
<use x="55.712891" xlink:href="#g"/>
<use x="116.992188" xlink:href="#h"/>
<use x="180.371094" xlink:href="#u"/>
</g>
</g>
<g clip-path="url(#a)">
<g transform="translate(177.36 919.12) scale(.1 -.1)">
<use xlink:href="#d"/>
<use x="61.523438" xlink:href="#r"/>
</g>
</g>
<g clip-path="url(#a)">
<defs>
<path id="w" d="m30.609 48.391q-7.2188 0-11.422-5.6406t-4.2031-15.453 4.1719-15.453q4.1875-5.6406 11.453-5.6406 7.1875 0 11.375 5.6562 4.2031 5.6719 4.2031 15.438 0 9.7188-4.2031 15.406-4.1875 5.6875-11.375 5.6875zm0 7.6094q11.719 0 18.406-7.625 6.7031-7.6094 6.7031-21.078 0-13.422-6.7031-21.078-6.6875-7.6406-18.406-7.6406-11.766 0-18.438 7.6406-6.6562 7.6562-6.6562 21.078 0 13.469 6.6562 21.078 6.6719 7.625 18.438 7.625z"/>
</defs>
<g transform="translate(196.77 919.12) scale(.1 -.1)">
<use xlink:href="#j"/>
<use x="97.412109" xlink:href="#w"/>
<use x="158.59375" xlink:href="#i"/>
</g>
</g>
<g clip-path="url(#a)">
<g transform="translate(230.56 919.12) scale(.1 -.1)">
<use xlink:href="#ah"/>
</g>
</g>
<g clip-path="url(#a)">
<g transform="translate(248.57 919.12) scale(.1 -.1)">
<use xlink:href="#h"/>
<use x="63.378906" xlink:href="#w"/>
<use x="124.560547" xlink:href="#t"/>
<use x="187.939453" xlink:href="#m"/>
</g>
</g>
<g clip-path="url(#a)">
<defs>
<path id="y" d="m48.781 52.594v-8.4062q-3.8125 2.1094-7.6406 3.1562t-7.7344 1.0469q-8.75 0-13.594-5.5469-4.8281-5.5312-4.8281-15.547t4.8281-15.562q4.8438-5.5312 13.594-5.5312 3.9062 0 7.7344 1.0469t7.6406 3.1562v-8.3125q-3.7656-1.75-7.7969-2.625-4.0156-0.89062-8.5625-0.89062-12.359 0-19.641 7.7656-7.2656 7.7656-7.2656 20.953 0 13.375 7.3438 21.031 7.3594 7.6719 20.156 7.6719 4.1406 0 8.0938-0.85938 3.9531-0.84375 7.6719-2.5469z"/>
</defs>
<g transform="translate(269.56 919.12) scale(.1 -.1)">
<use xlink:href="#y"/>
<use x="54.980469" xlink:href="#g"/>
<use x="116.259766" xlink:href="#t"/>
<use x="179.638672" xlink:href="#m"/>
<use x="231.738281" xlink:href="#i"/>
<use x="259.521484" xlink:href="#w"/>
<use x="320.703125" xlink:href="#h"/>
<use x="384.082031" xlink:href="#m"/>
</g>
</g>
<g clip-path="url(#a)">
<g transform="translate(318.28 919.12) scale(.1 -.1)">
<use xlink:href="#u"/>
<use x="63.476562" xlink:href="#d"/>
</g>
</g>
<g clip-path="url(#a)">
<defs>
<path id="an" d="m54.891 33.016v-33.016h-8.9844v32.719q0 7.7656-3.0312 11.609-3.0312 3.8594-9.0781 3.8594-7.2812 0-11.484-4.6406-4.2031-4.625-4.2031-12.641v-30.906h-9.0312v75.984h9.0312v-29.797q3.2344 4.9375 7.5938 7.375 4.375 2.4375 10.094 2.4375 9.4219 0 14.25-5.8281 4.8438-5.8281 4.8438-17.156z"/>
</defs>
<g transform="translate(342.8 919.12) scale(.1 -.1)">
<use xlink:href="#y"/>
<use x="54.980469" xlink:href="#an"/>
<use x="118.359375" xlink:href="#w"/>
<use x="179.541016" xlink:href="#m"/>
<use x="231.640625" xlink:href="#d"/>
<use x="293.164062" xlink:href="#m"/>
</g>
</g>
<g clip-path="url(#a)">
<g transform="translate(392.93 919.12) scale(.1 -.1)">
<use xlink:href="#d"/>
<use x="61.523438" xlink:href="#r"/>
</g>
</g>
<g clip-path="url(#a)">
<defs>
<path id="ai" d="m17.922 72.906v-27.109h-8.2969v27.109z"/>
</defs>
<g transform="translate(433.69 919.12) scale(.1 -.1)">
<use xlink:href="#u"/>
<use x="63.476562" xlink:href="#ai"/>
</g>
</g>
<g clip-path="url(#a)">
<g transform="translate(465.06 919.12) scale(.1 -.1)">
<use xlink:href="#g"/>
<use x="61.279297" xlink:href="#t"/>
<use x="124.658203" xlink:href="#r"/>
<use x="163.867188" xlink:href="#f"/>
<use x="202.730469" xlink:href="#d"/>
<use x="264.253906" xlink:href="#m"/>
</g>
</g>
<g clip-path="url(#a)">
<g transform="translate(524.29 919.12) scale(.1 -.1)">
<use xlink:href="#ah"/>
</g>
</g>
<g clip-path="url(#a)">
<defs>
<path id="ao" d="m45.406 27.984q0 9.7656-4.0312 15.125-4.0156 5.375-11.297 5.375-7.2188 0-11.25-5.375-4.0312-5.3594-4.0312-15.125 0-9.7188 4.0312-15.094t11.25-5.375q7.2812 0 11.297 5.375 4.0312 5.375 4.0312 15.094zm8.9844-21.203q0-13.953-6.2031-20.766-6.1875-6.8125-18.984-6.8125-4.7344 0-8.9375 0.70312t-8.1562 2.1719v8.7344q3.9531-2.1406 7.8125-3.1562 3.8594-1.0312 7.8594-1.0312 8.8438 0 13.234 4.6094t4.3906 13.938v4.4531q-2.7812-4.8438-7.125-7.2344t-10.406-2.3906q-10.047 0-16.203 7.6562-6.1562 7.6719-6.1562 20.328 0 12.688 6.1562 20.344 6.1562 7.6719 16.203 7.6719 6.0625 0 10.406-2.3906t7.125-7.2188v8.2969h8.9844z"/>
</defs>
<g transform="translate(548.66 919.12) scale(.1 -.1)">
<use xlink:href="#f"/>
<use x="38.863281" xlink:href="#d"/>
<use x="100.386719" xlink:href="#ao"/>
<use x="163.863281" xlink:href="#g"/>
<use x="225.142578" xlink:href="#f"/>
<use x="264.505859" xlink:href="#u"/>
<use x="327.982422" xlink:href="#g"/>
<use x="389.261719" xlink:href="#h"/>
<use x="452.640625" xlink:href="#r"/>
</g>
</g>
<g clip-path="url(#a)">
<g transform="translate(610.18 919.12) scale(.1 -.1)">
<use xlink:href="#y"/>
<use x="54.980469" xlink:href="#d"/>
<use x="116.503906" xlink:href="#r"/>
<use x="155.712891" xlink:href="#r"/>
<use x="194.921875" xlink:href="#d"/>
</g>
</g>
<g clip-path="url(#a)">
<defs>
<path id="at" d="m32.172-5.0781q-3.7969-9.7656-7.4219-12.734-3.6094-2.9844-9.6562-2.9844h-7.1875v7.5156h5.2812q3.7031 0 5.75 1.7656 2.0625 1.75 4.5469 8.2969l1.6094 4.0938-22.109 53.812h9.5156l17.094-42.766 17.094 42.766h9.5156z"/>
<path id="am" d="m56.203 29.594v-4.3906h-41.312q0.59375-9.2812 5.5938-14.141t13.938-4.8594q5.1719 0 10.031 1.2656t9.6562 3.8125v-8.5q-4.8438-2.0469-9.9219-3.125t-10.297-1.0781q-13.094 0-20.734 7.6094-7.6406 7.625-7.6406 20.625 0 13.422 7.25 21.297 7.25 7.8906 19.562 7.8906 11.031 0 17.453-7.1094 6.4219-7.0938 6.4219-19.297zm-8.9844 2.6406q-0.09375 7.3594-4.125 11.75-4.0312 4.4062-10.672 4.4062-7.5156 0-12.031-4.25t-5.2031-11.969zm-8.6875 47.75h9.7188l-15.906-18.359h-7.4844z"/>
</defs>
<g transform="translate(644.27 919.32) scale(.1 -.1)">
<use xlink:href="#j"/>
<use x="97.412109" xlink:href="#at"/>
<use x="156.591797" xlink:href="#m"/>
<use x="208.691406" xlink:href="#r"/>
<use x="247.900391" xlink:href="#am"/>
<use x="309.423828" xlink:href="#f"/>
<use x="350.537109" xlink:href="#i"/>
<use x="378.320312" xlink:href="#d"/>
<use x="439.84375" xlink:href="#t"/>
<use x="503.222656" xlink:href="#m"/>
<use x="555.322266" xlink:href="#d"/>
</g>
</g>
<g clip-path="url(#a)">
<g transform="translate(719.6 919.12) scale(.1 -.1)">
<use xlink:href="#j"/>
<use x="97.412109" xlink:href="#d"/>
<use x="158.935547" xlink:href="#f"/>
</g>
</g>
<g clip-path="url(#a)">
<g transform="translate(775.09 919.12) scale(.1 -.1)">
<use xlink:href="#u"/>
<use x="63.476562" xlink:href="#w"/>
<use x="124.658203" xlink:href="#h"/>
<use x="188.037109" xlink:href="#r"/>
</g>
</g>
<g clip-path="url(#a)">
<g transform="translate(838.6 919.12) scale(.1 -.1)">
<use xlink:href="#k"/>
<use x="27.783203" xlink:href="#d"/>
<use x="89.306641" xlink:href="#m"/>
</g>
</g>
<g clip-path="url(#a)">
<defs>
<path id="aw" d="m18.109 8.2031v-29h-9.0312v75.484h9.0312v-8.2969q2.8438 4.875 7.1562 7.2344 4.3281 2.375 10.328 2.375 9.9688 0 16.188-7.9062 6.2344-7.9062 6.2344-20.797t-6.2344-20.812q-6.2188-7.9062-16.188-7.9062-6 0-10.328 2.375-4.3125 2.375-7.1562 7.25zm30.578 19.094q0 9.9062-4.0781 15.547t-11.203 5.6406q-7.1406 0-11.219-5.6406t-4.0781-15.547 4.0781-15.547 11.219-5.6406q7.125 0 11.203 5.6406t4.0781 15.547z"/>
<path id="ay" d="m37.109 75.984v-7.4844h-8.5938q-4.8281 0-6.7188-1.9531-1.875-1.9531-1.875-7.0312v-4.8281h14.797v-6.9844h-14.797v-47.703h-9.0312v47.703h-8.5938v6.9844h8.5938v3.8125q0 9.125 4.25 13.297 4.25 4.1875 13.469 4.1875z"/>
</defs>
<g transform="translate(877.02 919.12) scale(.1 -.1)">
<use xlink:href="#aw"/>
<use x="63.476562" xlink:href="#f"/>
<use x="102.339844" xlink:href="#w"/>
<use x="163.521484" xlink:href="#ay"/>
<use x="198.726562" xlink:href="#w"/>
<use x="259.908203" xlink:href="#h"/>
<use x="323.287109" xlink:href="#u"/>
<use x="386.763672" xlink:href="#d"/>
<use x="448.287109" xlink:href="#t"/>
<use x="511.666016" xlink:href="#f"/>
<use x="552.779297" xlink:href="#m"/>
</g>
</g>
<g clip-path="url(#a)">
<g transform="translate(960.43 919.12) scale(.1 -.1)">
<use xlink:href="#m"/>
<use x="52.099609" xlink:href="#w"/>
<use x="113.28125" xlink:href="#h"/>
<use x="176.660156" xlink:href="#r"/>
</g>
</g>
<g clip-path="url(#a)">
<g transform="translate(1019.2 919.12) scale(.1 -.1)">
<use xlink:href="#f"/>
<use x="38.863281" xlink:href="#d"/>
<use x="100.386719" xlink:href="#m"/>
<use x="152.486328" xlink:href="#r"/>
<use x="191.695312" xlink:href="#am"/>
<use x="253.21875" xlink:href="#d"/>
<use x="314.742188" xlink:href="#m"/>
</g>
</g>
<g clip-path="url(#a)">
<defs>
<path id="ax" d="m9.4219 54.688h8.9844v-55.672q0-10.438-3.9844-15.125-3.9688-4.6875-12.812-4.6875h-3.4219v7.6094h2.4062q5.125 0 6.9688 2.375 1.8594 2.3594 1.8594 9.8281zm0 21.297h8.9844v-11.391h-8.9844z"/>
<path id="av" d="m14.797 27.297q0-9.9062 4.0781-15.547t11.203-5.6406 11.219 5.6406q4.1094 5.6406 4.1094 15.547t-4.1094 15.547q-4.0938 5.6406-11.219 5.6406t-11.203-5.6406-4.0781-15.547zm30.609-19.094q-2.8281-4.875-7.1562-7.25-4.3125-2.375-10.375-2.375-9.9062 0-16.141 7.9062-6.2188 7.9219-6.2188 20.812t6.2188 20.797q6.2344 7.9062 16.141 7.9062 6.0625 0 10.375-2.375 4.3281-2.3594 7.1562-7.2344v8.2969h8.9844v-75.484h-8.9844z"/>
</defs>
<g transform="translate(1091.4 919.12) scale(.1 -.1)">
<use xlink:href="#ax"/>
<use x="27.783203" xlink:href="#t"/>
<use x="91.162109" xlink:href="#m"/>
<use x="143.261719" xlink:href="#av"/>
<use x="206.738281" xlink:href="#t"/>
<use x="270.117188" xlink:href="#ai"/>
</g>
</g>
<g clip-path="url(#a)">
<g transform="translate(1171.8 919.12) scale(.1 -.1)">
<use xlink:href="#i"/>
<use x="27.783203" xlink:href="#y"/>
<use x="82.763672" xlink:href="#i"/>
</g>
</g>
<g clip-path="url(#a)">
<defs>
<path id="ap" d="m48.688 27.297q0 9.9062-4.0781 15.547t-11.203 5.6406q-7.1406 0-11.219-5.6406t-4.0781-15.547 4.0781-15.547 11.219-5.6406q7.125 0 11.203 5.6406t4.0781 15.547zm-30.578 19.094q2.8438 4.875 7.1562 7.2344 4.3281 2.375 10.328 2.375 9.9688 0 16.188-7.9062 6.2344-7.9062 6.2344-20.797t-6.2344-20.812q-6.2188-7.9062-16.188-7.9062-6 0-10.328 2.375-4.3125 2.375-7.1562 7.25v-8.2031h-9.0312v75.984h9.0312z"/>
</defs>
<g transform="translate(1217.7 919.12) scale(.1 -.1)">
<use xlink:href="#i"/>
<use x="27.783203" xlink:href="#h"/>
<use x="91.162109" xlink:href="#g"/>
<use x="152.441406" xlink:href="#y"/>
<use x="207.421875" xlink:href="#y"/>
<use x="262.402344" xlink:href="#d"/>
<use x="323.925781" xlink:href="#m"/>
<use x="376.025391" xlink:href="#m"/>
<use x="428.125" xlink:href="#i"/>
<use x="455.908203" xlink:href="#ap"/>
<use x="519.384766" xlink:href="#k"/>
<use x="547.167969" xlink:href="#d"/>
<use x="608.691406" xlink:href="#m"/>
</g>
</g>
<g clip-path="url(#a)">
<defs>
<path id="au" d="m54.891 54.688-19.781-26.609 20.797-28.078h-10.594l-15.922 21.484-15.906-21.484h-10.609l21.25 28.609-19.438 26.078h10.594l14.5-19.484 14.5 19.484z"/>
</defs>
<g transform="translate(1317.4 919.12) scale(.1 -.1)">
<use xlink:href="#g"/>
<use x="61.279297" xlink:href="#t"/>
<use x="124.658203" xlink:href="#au"/>
</g>
</g>
<g clip-path="url(#a)">
<g transform="translate(1385.7 919.12) scale(.1 -.1)">
<use xlink:href="#f"/>
<use x="38.863281" xlink:href="#d"/>
<use x="100.386719" xlink:href="#ao"/>
<use x="163.863281" xlink:href="#g"/>
<use x="225.142578" xlink:href="#f"/>
<use x="264.505859" xlink:href="#u"/>
<use x="327.982422" xlink:href="#m"/>
</g>
</g>
<g clip-path="url(#a)">
<g transform="translate(1479 919.12) scale(.1 -.1)">
<use xlink:href="#u"/>
<use x="63.476562" xlink:href="#d"/>
</g>
</g>
<g clip-path="url(#a)">
<g transform="translate(1565.4 919.12) scale(.1 -.1)">
<use xlink:href="#k"/>
<use x="27.783203" xlink:href="#ai"/>
</g>
</g>
<g clip-path="url(#a)">
<g transform="translate(1634.4 919.12) scale(.1 -.1)">
<use xlink:href="#an"/>
<use x="63.378906" xlink:href="#w"/>
<use x="124.560547" xlink:href="#j"/>
<use x="221.972656" xlink:href="#j"/>
<use x="319.384766" xlink:href="#d"/>
</g>
</g>
<g clip-path="url(#a)">
<defs>
<path id="e" d="m10.688 12.406h10.312v-12.406h-10.312z"/>
</defs>
<g transform="translate(1739.5 919.12) scale(.1 -.1)">
<use xlink:href="#e"/>
</g>
</g>
<g clip-path="url(#a)">
<defs>
<path id="c" d="m12.406 8.2969h16.109v55.625l-17.531-3.5156v8.9844l17.438 3.5156h9.8594v-64.609h16.109v-8.2969h-41.984z"/>
</defs>
<g transform="translate(320.25 46.396) scale(.1 -.1)">
<use xlink:href="#c"/>
<use x="63.623047" xlink:href="#e"/>
<use x="95.410156" xlink:href="#c"/>
</g>
</g>
<g clip-path="url(#a)">
<defs>
<path id="n" d="m19.188 8.2969h34.422v-8.2969h-46.281v8.2969q5.6094 5.8125 15.297 15.594 9.7031 9.7969 12.188 12.641 4.7344 5.3125 6.6094 9 1.8906 3.6875 1.8906 7.25 0 5.8125-4.0781 9.4688-4.0781 3.6719-10.625 3.6719-4.6406 0-9.7969-1.6094-5.1406-1.6094-11-4.8906v9.9688q5.9531 2.3906 11.125 3.6094 5.1875 1.2188 9.4844 1.2188 11.328 0 18.062-5.6719 6.7344-5.6562 6.7344-15.125 0-4.5-1.6875-8.5312-1.6719-4.0156-6.125-9.4844-1.2188-1.4219-7.7656-8.1875-6.5312-6.7656-18.453-18.922z"/>
</defs>
<g transform="translate(320.25 144.28) scale(.1 -.1)">
<use xlink:href="#c"/>
<use x="63.623047" xlink:href="#e"/>
<use x="95.410156" xlink:href="#n"/>
</g>
</g>
<g clip-path="url(#a)">
<defs>
<path id="o" d="m37.797 64.312-24.906-38.922h24.906zm-2.5938 8.5938h12.406v-47.516h10.406v-8.2031h-10.406v-17.188h-9.8125v17.188h-32.906v9.5156z"/>
</defs>
<g transform="translate(262.43 242.04) scale(.1 -.1)">
<use xlink:href="#c"/>
<use x="63.623047" xlink:href="#e"/>
<use x="95.410156" xlink:href="#o"/>
</g>
</g>
<g clip-path="url(#a)">
<defs>
<path id="x" d="m10.797 72.906h38.719v-8.3125h-29.688v-17.859q2.1406 0.73438 4.2812 1.0938 2.1562 0.35938 4.3125 0.35938 12.203 0 19.328-6.6875 7.1406-6.6875 7.1406-18.109 0-11.766-7.3281-18.297-7.3281-6.5156-20.656-6.5156-4.5938 0-9.3594 0.78125-4.75 0.78125-9.8281 2.3438v9.9219q4.3906-2.3906 9.0781-3.5625t9.9062-1.1719q8.4531 0 13.375 4.4375 4.9375 4.4375 4.9375 12.062 0 7.6094-4.9375 12.047-4.9219 4.4531-13.375 4.4531-3.9531 0-7.8906-0.875-3.9219-0.875-8.0156-2.7344z"/>
</defs>
<g transform="translate(252.62 824.26) scale(.1 -.1)">
<use xlink:href="#c"/>
<use x="63.623047" xlink:href="#e"/>
<use x="95.410156" xlink:href="#x"/>
</g>
</g>
<g clip-path="url(#a)">
<defs>
<path id="ab" d="m33.016 40.375q-6.6406 0-10.531-4.5469-3.875-4.5312-3.875-12.438 0-7.8594 3.875-12.438 3.8906-4.5625 10.531-4.5625t10.516 4.5625q3.875 4.5781 3.875 12.438 0 7.9062-3.875 12.438-3.875 4.5469-10.516 4.5469zm19.578 30.922v-8.9844q-3.7188 1.75-7.5 2.6719-3.7812 0.9375-7.5 0.9375-9.7656 0-14.922-6.5938-5.1406-6.5938-5.875-19.922 2.875 4.25 7.2188 6.5156 4.3594 2.2656 9.5781 2.2656 10.984 0 17.359-6.6719 6.375-6.6562 6.375-18.125 0-11.234-6.6406-18.031-6.6406-6.7812-17.672-6.7812-12.656 0-19.344 9.6875-6.6875 9.7031-6.6875 28.109 0 17.281 8.2031 27.562t22.016 10.281q3.7188 0 7.5-0.73438t7.8906-2.1875z"/>
</defs>
<g transform="translate(283.41 824.26) scale(.1 -.1)">
<use xlink:href="#c"/>
<use x="63.623047" xlink:href="#e"/>
<use x="95.410156" xlink:href="#ab"/>
</g>
</g>
<g clip-path="url(#a)">
<defs>
<path id="aa" d="m8.2031 72.906h46.875v-4.2031l-26.469-68.703h-10.297l24.906 64.594h-35.016z"/>
</defs>
<g transform="translate(380.93 631.39) scale(.1 -.1)">
<use xlink:href="#c"/>
<use x="63.623047" xlink:href="#e"/>
<use x="95.410156" xlink:href="#aa"/>
</g>
</g>
<g clip-path="url(#a)">
<defs>
<path id="ac" d="m31.781 66.406q-7.6094 0-11.453-7.5-3.8281-7.4844-3.8281-22.531 0-14.984 3.8281-22.484 3.8438-7.5 11.453-7.5 7.6719 0 11.5 7.5 3.8438 7.5 3.8438 22.484 0 15.047-3.8438 22.531-3.8281 7.5-11.5 7.5zm0 7.8125q12.266 0 18.734-9.7031 6.4688-9.6875 6.4688-28.141 0-18.406-6.4688-28.109-6.4688-9.6875-18.734-9.6875-12.25 0-18.719 9.6875-6.4688 9.7031-6.4688 28.109 0 18.453 6.4688 28.141 6.4688 9.7031 18.719 9.7031z"/>
</defs>
<g transform="translate(331.16 728.08) scale(.1 -.1)">
<use xlink:href="#c"/>
<use x="63.623047" xlink:href="#e"/>
<use x="95.410156" xlink:href="#c"/>
<use x="159.033203" xlink:href="#ac"/>
</g>
</g>
<g clip-path="url(#a)">
<g transform="translate(386.83 824.26) scale(.1 -.1)">
<use xlink:href="#c"/>
<use x="63.623047" xlink:href="#e"/>
<use x="95.410156" xlink:href="#c"/>
<use x="159.033203" xlink:href="#c"/>
</g>
</g>
<g clip-path="url(#a)">
<g transform="translate(415.26 728.08) scale(.1 -.1)">
<use xlink:href="#c"/>
<use x="63.623047" xlink:href="#e"/>
<use x="95.410156" xlink:href="#c"/>
<use x="159.033203" xlink:href="#n"/>
</g>
</g>
<g clip-path="url(#a)">
<defs>
<path id="p" d="m40.578 39.312q7.0781-1.5156 11.047-6.3125 3.9844-4.7812 3.9844-11.812 0-10.781-7.4219-16.703-7.4219-5.9062-21.094-5.9062-4.5781 0-9.4375 0.90625t-10.031 2.7188v9.5156q4.0938-2.3906 8.9688-3.6094 4.8906-1.2188 10.219-1.2188 9.2656 0 14.125 3.6562t4.8594 10.641q0 6.4531-4.5156 10.078-4.5156 3.6406-12.562 3.6406h-8.5v8.1094h8.8906q7.2656 0 11.125 2.9062t3.8594 8.375q0 5.6094-3.9844 8.6094-3.9688 3.0156-11.391 3.0156-4.0625 0-8.7031-0.89062-4.6406-0.875-10.203-2.7188v8.7812q5.625 1.5625 10.531 2.3438t9.25 0.78125q11.234 0 17.766-5.1094 6.5469-5.0938 6.5469-13.781 0-6.0625-3.4688-10.234t-9.8594-5.7812z"/>
</defs>
<g transform="translate(427.1 824.26) scale(.1 -.1)">
<use xlink:href="#c"/>
<use x="63.623047" xlink:href="#e"/>
<use x="95.410156" xlink:href="#c"/>
<use x="159.033203" xlink:href="#p"/>
</g>
</g>
<g clip-path="url(#a)">
<g transform="translate(469.74 824.26) scale(.1 -.1)">
<use xlink:href="#c"/>
<use x="63.623047" xlink:href="#e"/>
<use x="95.410156" xlink:href="#c"/>
<use x="159.033203" xlink:href="#o"/>
</g>
</g>
<g clip-path="url(#a)">
<g transform="translate(313.4 824.26) scale(.1 -.1)">
<use xlink:href="#c"/>
<use x="63.623047" xlink:href="#e"/>
<use x="95.410156" xlink:href="#c"/>
<use x="159.033203" xlink:href="#x"/>
</g>
</g>
<g clip-path="url(#a)">
<g transform="translate(348.93 824.26) scale(.1 -.1)">
<use xlink:href="#c"/>
<use x="63.623047" xlink:href="#e"/>
<use x="95.410156" xlink:href="#c"/>
<use x="159.033203" xlink:href="#ab"/>
</g>
</g>
<g clip-path="url(#a)">
<g transform="translate(111.06 631.39) scale(.1 -.1)">
<use xlink:href="#c"/>
<use x="63.623047" xlink:href="#e"/>
<use x="95.410156" xlink:href="#c"/>
<use x="159.033203" xlink:href="#aa"/>
</g>
</g>
<g clip-path="url(#a)">
<defs>
<path id="af" d="m31.781 34.625q-7.0312 0-11.062-3.7656-4.0156-3.7656-4.0156-10.344 0-6.5938 4.0156-10.359 4.0312-3.7656 11.062-3.7656t11.078 3.7812q4.0625 3.7969 4.0625 10.344 0 6.5781-4.0312 10.344-4.0156 3.7656-11.109 3.7656zm-9.8594 4.1875q-6.3438 1.5625-9.8906 5.9062-3.5312 4.3594-3.5312 10.609 0 8.7344 6.2188 13.812 6.2344 5.0781 17.062 5.0781 10.891 0 17.094-5.0781t6.2031-13.812q0-6.25-3.5469-10.609-3.5312-4.3438-9.8281-5.9062 7.125-1.6562 11.094-6.5 3.9844-4.8281 3.9844-11.797 0-10.609-6.4688-16.281-6.4688-5.6562-18.531-5.6562-12.047 0-18.531 5.6562-6.4688 5.6719-6.4688 16.281 0 6.9688 4 11.797 4.0156 4.8438 11.141 6.5zm-3.6094 15.578q0-5.6562 3.5312-8.8281 3.5469-3.1719 9.9375-3.1719 6.3594 0 9.9375 3.1719 3.5938 3.1719 3.5938 8.8281 0 5.6719-3.5938 8.8438-3.5781 3.1719-9.9375 3.1719-6.3906 0-9.9375-3.1719-3.5312-3.1719-3.5312-8.8438z"/>
</defs>
<g transform="translate(168.9 728.08) scale(.1 -.1)">
<use xlink:href="#c"/>
<use x="63.623047" xlink:href="#e"/>
<use x="95.410156" xlink:href="#c"/>
<use x="159.033203" xlink:href="#af"/>
</g>
</g>
<g clip-path="url(#a)">
<defs>
<path id="ae" d="m10.984 1.5156v8.9844q3.7188-1.7656 7.5156-2.6875 3.8125-0.92188 7.4844-0.92188 9.7656 0 14.906 6.5625 5.1562 6.5625 5.8906 19.953-2.8281-4.2031-7.1875-6.4531-4.3438-2.25-9.6094-2.25-10.938 0-17.312 6.6094-6.375 6.625-6.375 18.109 0 11.219 6.6406 18 6.6406 6.7969 17.672 6.7969 12.656 0 19.312-9.7031 6.6719-9.6875 6.6719-28.141 0-17.234-8.1875-27.516-8.1719-10.281-21.984-10.281-3.7188 0-7.5312 0.73438-3.7969 0.73438-7.9062 2.2031zm19.625 30.906q6.6406 0 10.516 4.5312 3.8906 4.5469 3.8906 12.469 0 7.8594-3.8906 12.422-3.875 4.5625-10.516 4.5625t-10.516-4.5625-3.875-12.422q0-7.9219 3.875-12.469 3.875-4.5312 10.516-4.5312z"/>
</defs>
<g transform="translate(497.79 339.66) scale(.1 -.1)">
<use xlink:href="#c"/>
<use x="63.623047" xlink:href="#e"/>
<use x="95.410156" xlink:href="#c"/>
<use x="159.033203" xlink:href="#ae"/>
</g>
</g>
<g clip-path="url(#a)">
<g transform="translate(562.12 824.26) scale(.1 -.1)">
<use xlink:href="#c"/>
<use x="63.623047" xlink:href="#e"/>
<use x="95.410156" xlink:href="#n"/>
<use x="159.033203" xlink:href="#ac"/>
</g>
</g>
<g clip-path="url(#a)">
<g transform="translate(762.33 437.12) scale(.1 -.1)">
<use xlink:href="#c"/>
<use x="63.623047" xlink:href="#e"/>
<use x="95.410156" xlink:href="#n"/>
<use x="159.033203" xlink:href="#c"/>
</g>
</g>
<g clip-path="url(#a)">
<g transform="translate(611.87 824.26) scale(.1 -.1)">
<use xlink:href="#c"/>
<use x="63.623047" xlink:href="#e"/>
<use x="95.410156" xlink:href="#n"/>
<use x="159.033203" xlink:href="#n"/>
</g>
</g>
<g clip-path="url(#a)">
<g transform="translate(663.98 824.26) scale(.1 -.1)">
<use xlink:href="#c"/>
<use x="63.623047" xlink:href="#e"/>
<use x="95.410156" xlink:href="#n"/>
<use x="159.033203" xlink:href="#p"/>
</g>
</g>
<g clip-path="url(#a)">
<g transform="translate(718.47 824.26) scale(.1 -.1)">
<use xlink:href="#c"/>
<use x="63.623047" xlink:href="#e"/>
<use x="95.410156" xlink:href="#n"/>
<use x="159.033203" xlink:href="#o"/>
</g>
</g>
<g clip-path="url(#a)">
<g transform="translate(1055 534.38) scale(.1 -.1)">
<use xlink:href="#c"/>
<use x="63.623047" xlink:href="#e"/>
<use x="95.410156" xlink:href="#n"/>
<use x="159.033203" xlink:href="#x"/>
</g>
</g>
<g clip-path="url(#a)">
<g transform="translate(775.32 824.26) scale(.1 -.1)">
<use xlink:href="#c"/>
<use x="63.623047" xlink:href="#e"/>
<use x="95.410156" xlink:href="#n"/>
<use x="159.033203" xlink:href="#ab"/>
</g>
</g>
<g clip-path="url(#a)">
<g transform="translate(816.38 728.08) scale(.1 -.1)">
<use xlink:href="#c"/>
<use x="63.623047" xlink:href="#e"/>
<use x="95.410156" xlink:href="#n"/>
<use x="159.033203" xlink:href="#aa"/>
</g>
</g>
<g clip-path="url(#a)">
<g transform="translate(960.09 824.26) scale(.1 -.1)">
<use xlink:href="#c"/>
<use x="63.623047" xlink:href="#e"/>
<use x="95.410156" xlink:href="#n"/>
<use x="159.033203" xlink:href="#af"/>
</g>
</g>
<g clip-path="url(#a)">
<g transform="translate(1026.4 824.26) scale(.1 -.1)">
<use xlink:href="#c"/>
<use x="63.623047" xlink:href="#e"/>
<use x="95.410156" xlink:href="#n"/>
<use x="159.033203" xlink:href="#ae"/>
</g>
</g>
<g clip-path="url(#a)">
<g transform="translate(1130.6 824.26) scale(.1 -.1)">
<use xlink:href="#c"/>
<use x="63.623047" xlink:href="#e"/>
<use x="95.410156" xlink:href="#p"/>
<use x="159.033203" xlink:href="#ac"/>
</g>
</g>
<g clip-path="url(#a)">
<g transform="translate(1239.6 824.26) scale(.1 -.1)">
<use xlink:href="#c"/>
<use x="63.623047" xlink:href="#e"/>
<use x="95.410156" xlink:href="#p"/>
<use x="159.033203" xlink:href="#c"/>
</g>
</g>
<g clip-path="url(#a)">
<g transform="translate(1436.6 631.39) scale(.1 -.1)">
<use xlink:href="#c"/>
<use x="63.623047" xlink:href="#e"/>
<use x="95.410156" xlink:href="#p"/>
<use x="159.033203" xlink:href="#n"/>
</g>
</g>
<g clip-path="url(#a)">
<g transform="translate(1315.4 824.26) scale(.1 -.1)">
<use xlink:href="#c"/>
<use x="63.623047" xlink:href="#e"/>
<use x="95.410156" xlink:href="#p"/>
<use x="159.033203" xlink:href="#p"/>
</g>
</g>
<g clip-path="url(#a)">
<g transform="translate(1393.6 824.26) scale(.1 -.1)">
<use xlink:href="#c"/>
<use x="63.623047" xlink:href="#e"/>
<use x="95.410156" xlink:href="#p"/>
<use x="159.033203" xlink:href="#o"/>
</g>
</g>
<g clip-path="url(#a)">
<g transform="translate(1600.9 728.08) scale(.1 -.1)">
<use xlink:href="#c"/>
<use x="63.623047" xlink:href="#e"/>
<use x="95.410156" xlink:href="#p"/>
<use x="159.033203" xlink:href="#x"/>
</g>
</g>
<g clip-path="url(#a)">
<g transform="translate(1474.1 824.26) scale(.1 -.1)">
<use xlink:href="#c"/>
<use x="63.623047" xlink:href="#e"/>
<use x="95.410156" xlink:href="#p"/>
<use x="159.033203" xlink:href="#ab"/>
</g>
</g>
<g clip-path="url(#a)">
<g transform="translate(1557 824.26) scale(.1 -.1)">
<use xlink:href="#c"/>
<use x="63.623047" xlink:href="#e"/>
<use x="95.410156" xlink:href="#p"/>
<use x="159.033203" xlink:href="#aa"/>
</g>
</g>
<g clip-path="url(#a)">
<g transform="translate(1642.3 824.26) scale(.1 -.1)">
<use xlink:href="#c"/>
<use x="63.623047" xlink:href="#e"/>
<use x="95.410156" xlink:href="#p"/>
<use x="159.033203" xlink:href="#af"/>
</g>
</g>
<g clip-path="url(#a)">
<g transform="translate(834.54 824.26) scale(.1 -.1)">
<use xlink:href="#c"/>
<use x="63.623047" xlink:href="#e"/>
<use x="95.410156" xlink:href="#p"/>
<use x="159.033203" xlink:href="#ae"/>
</g>
</g>
<g clip-path="url(#a)">
<g transform="translate(896.13 824.26) scale(.1 -.1)">
<use xlink:href="#c"/>
<use x="63.623047" xlink:href="#e"/>
<use x="95.410156" xlink:href="#o"/>
<use x="159.033203" xlink:href="#ac"/>
</g>
</g>
<g clip-path="url(#a)">
<g transform="translate(140.47 824.26) scale(.1 -.1)">
<use xlink:href="#c"/>
<use x="63.623047" xlink:href="#e"/>
<use x="95.410156" xlink:href="#o"/>
<use x="159.033203" xlink:href="#c"/>
</g>
</g>
<g clip-path="url(#a)">
<g transform="translate(171.27 824.26) scale(.1 -.1)">
<use xlink:href="#c"/>
<use x="63.623047" xlink:href="#e"/>
<use x="95.410156" xlink:href="#o"/>
<use x="159.033203" xlink:href="#n"/>
</g>
</g>
<g clip-path="url(#a)">
<g transform="translate(194.96 824.26) scale(.1 -.1)">
<use xlink:href="#c"/>
<use x="63.623047" xlink:href="#e"/>
<use x="95.410156" xlink:href="#o"/>
<use x="159.033203" xlink:href="#p"/>
</g>
</g>
<g clip-path="url(#a)">
<g transform="translate(71.776 824.26) scale(.1 -.1)">
<use xlink:href="#c"/>
<use x="63.623047" xlink:href="#e"/>
<use x="95.410156" xlink:href="#o"/>
<use x="159.033203" xlink:href="#o"/>
</g>
</g>
<g clip-path="url(#a)">
<g transform="translate(89.148 728.08) scale(.1 -.1)">
<use xlink:href="#c"/>
<use x="63.623047" xlink:href="#e"/>
<use x="95.410156" xlink:href="#o"/>
<use x="159.033203" xlink:href="#x"/>
</g>
</g>
<g clip-path="url(#a)">
<g transform="translate(114.42 824.26) scale(.1 -.1)">
<use xlink:href="#c"/>
<use x="63.623047" xlink:href="#e"/>
<use x="95.410156" xlink:href="#o"/>
<use x="159.033203" xlink:href="#ab"/>
</g>
</g>
<g clip-path="url(#a)">
<g transform="translate(78.883 824.26) scale(.1 -.1)">
<use xlink:href="#c"/>
<use x="63.623047" xlink:href="#e"/>
<use x="95.410156" xlink:href="#o"/>
<use x="159.033203" xlink:href="#aa"/>
</g>
</g>
<g clip-path="url(#a)">
<g transform="translate(88.358 824.26) scale(.1 -.1)">
<use xlink:href="#c"/>
<use x="63.623047" xlink:href="#e"/>
<use x="95.410156" xlink:href="#o"/>
<use x="159.033203" xlink:href="#af"/>
</g>
</g>
<g clip-path="url(#a)">
<g transform="translate(100.2 824.26) scale(.1 -.1)">
<use xlink:href="#c"/>
<use x="63.623047" xlink:href="#e"/>
<use x="95.410156" xlink:href="#o"/>
<use x="159.033203" xlink:href="#ae"/>
</g>
</g>
<g clip-path="url(#a)">
<g transform="translate(221.01 824.26) scale(.1 -.1)">
<use xlink:href="#c"/>
<use x="63.623047" xlink:href="#e"/>
<use x="95.410156" xlink:href="#x"/>
<use x="159.033203" xlink:href="#ac"/>
</g>
</g>
<g clip-path="url(#a)">
<g transform="translate(514.75 824.26) scale(.1 -.1)">
<use xlink:href="#c"/>
<use x="63.623047" xlink:href="#e"/>
<use x="95.410156" xlink:href="#x"/>
<use x="159.033203" xlink:href="#c"/>
</g>
</g>
<g clip-path="url(#a)">
<g transform="translate(1730 824.26) scale(.1 -.1)">
<use xlink:href="#c"/>
<use x="63.623047" xlink:href="#e"/>
<use x="95.410156" xlink:href="#x"/>
<use x="159.033203" xlink:href="#n"/>
</g>
</g>
<defs>
<clipPath id="a">
<rect width="1824" height="960"/>
</clipPath>
</defs>
</svg>
