<?xml version="1.0" encoding="UTF-8"?>
<!DOCTYPE svg  PUBLIC '-//W3C//DTD SVG 1.1//EN'  'http://www.w3.org/Graphics/SVG/1.1/DTD/svg11.dtd'>
<svg width="1621.3pt" height="853.33pt" version="1.1" viewBox="0 0 1621.3 853.33" xmlns="http://www.w3.org/2000/svg" xmlns:xlink="http://www.w3.org/1999/xlink">
<defs>
<style type="text/css">*{stroke-linecap:butt;stroke-linejoin:round;}</style>
</defs>
<path d="m0 853.33h1621.3v-853.33h-1621.3z" fill="#fff"/>
<g fill="none" stroke="#000">
<path d="m352.31 38.788v111.85" clip-path="url(#a)"/>
<path d="m352.31 150.63-262.14 223.09" clip-path="url(#a)"/>
<path d="m352.31 150.63-210.06 555.22" clip-path="url(#a)"/>
<path d="m352.31 150.63-188.97 555.22" clip-path="url(#a)"/>
<path d="m352.31 150.63-88.331 334.25" clip-path="url(#a)"/>
<path d="m352.31 150.63 629.96 111.66" clip-path="url(#a)"/>
<path d="m352.31 150.63 119.53 555.22" clip-path="url(#a)"/>
<path d="m90.177 373.73 33.618 111.15" clip-path="url(#a)"/>
<path d="m90.177 373.73-16.48 332.13" clip-path="url(#a)"/>
<path d="m90.177 373.73-8.5694 332.13" clip-path="url(#a)"/>
<path d="m90.177 373.73 1.9776 332.13" clip-path="url(#a)"/>
<path d="m90.177 373.73 23.072 111.15" clip-path="url(#a)"/>
<path d="m142.25 705.86v108.69" clip-path="url(#a)"/>
<path d="m163.35 705.86v108.69" clip-path="url(#a)"/>
<path d="m263.98 484.88-76.905 220.98" clip-path="url(#a)"/>
<path d="m263.98 484.88-50.538 220.98" clip-path="url(#a)"/>
<path d="m263.98 484.88-21.533 220.98" clip-path="url(#a)"/>
<path d="m263.98 484.88 27.246 110.78" clip-path="url(#a)"/>
<path d="m263.98 484.88 121.73 110.78" clip-path="url(#a)"/>
<path d="m982.27 262.29-358.6 111.44" clip-path="url(#a)"/>
<path d="m982.27 262.29 82.838 443.56" clip-path="url(#a)"/>
<path d="m982.27 262.29 275.76 222.59" clip-path="url(#a)"/>
<path d="m623.68 373.73-104.37 332.13" clip-path="url(#a)"/>
<path d="m623.68 373.73-54.273 332.13" clip-path="url(#a)"/>
<path d="m623.68 373.73-1.5381 332.13" clip-path="url(#a)"/>
<path d="m623.68 373.73 160.18 111.15" clip-path="url(#a)"/>
<path d="m1065.1 705.86v108.69" clip-path="url(#a)"/>
<path d="m1258 484.88-119.09 220.98" clip-path="url(#a)"/>
<path d="m1258 484.88-42.627 220.98" clip-path="url(#a)"/>
<path d="m1258 484.88 161.72 110.78" clip-path="url(#a)"/>
<path d="m1138.9 705.86v108.69" clip-path="url(#a)"/>
<path d="m1215.4 705.86v108.69" clip-path="url(#a)"/>
<path d="m1419.8 595.66-125.25 110.2" clip-path="url(#a)"/>
<path d="m1419.8 595.66-43.506 110.2" clip-path="url(#a)"/>
<path d="m1419.8 595.66 40.87 110.2" clip-path="url(#a)"/>
<path d="m1419.8 595.66 127.88 110.2" clip-path="url(#a)"/>
<path d="m1294.5 705.86v108.69" clip-path="url(#a)"/>
<path d="m1376.2 705.86v108.69" clip-path="url(#a)"/>
<path d="m1460.6 705.86v108.69" clip-path="url(#a)"/>
<path d="m519.31 705.86v108.69" clip-path="url(#a)"/>
<path d="m569.4 705.86v108.69" clip-path="url(#a)"/>
<path d="m622.14 705.86v108.69" clip-path="url(#a)"/>
<path d="m783.86 484.88-106.35 220.98" clip-path="url(#a)"/>
<path d="m783.86 484.88-48.34 220.98" clip-path="url(#a)"/>
<path d="m783.86 484.88 12.305 220.98" clip-path="url(#a)"/>
<path d="m783.86 484.88 142.38 110.78" clip-path="url(#a)"/>
<path d="m677.51 705.86v108.69" clip-path="url(#a)"/>
<path d="m735.52 705.86v108.69" clip-path="url(#a)"/>
<path d="m796.16 705.86v108.69" clip-path="url(#a)"/>
<path d="m926.24 595.66-66.797 110.2" clip-path="url(#a)"/>
<path d="m926.24 595.66-0.87891 110.2" clip-path="url(#a)"/>
<path d="m926.24 595.66 67.676 110.2" clip-path="url(#a)"/>
<path d="m859.45 705.86v108.69" clip-path="url(#a)"/>
<path d="m925.36 705.86v108.69" clip-path="url(#a)"/>
<path d="m993.92 705.86v108.69" clip-path="url(#a)"/>
<path d="m187.08 705.86v108.69" clip-path="url(#a)"/>
<path d="m213.44 705.86v108.69" clip-path="url(#a)"/>
<path d="m242.45 705.86v108.69" clip-path="url(#a)"/>
<path d="m291.23 595.66-17.139 110.2" clip-path="url(#a)"/>
<path d="m291.23 595.66 17.139 110.2" clip-path="url(#a)"/>
<path d="m385.71 595.66-40.43 110.2" clip-path="url(#a)"/>
<path d="m385.71 595.66-0.87891 110.2" clip-path="url(#a)"/>
<path d="m385.71 595.66 41.309 110.2" clip-path="url(#a)"/>
<path d="m345.28 705.86v108.69" clip-path="url(#a)"/>
<path d="m384.83 705.86v108.69" clip-path="url(#a)"/>
<path d="m427.02 705.86v108.69" clip-path="url(#a)"/>
<path d="m274.09 705.86v108.69" clip-path="url(#a)"/>
<path d="m308.37 705.86v108.69" clip-path="url(#a)"/>
<path d="m73.697 705.86v108.69" clip-path="url(#a)"/>
<path d="m81.607 705.86v108.69" clip-path="url(#a)"/>
<path d="m92.154 705.86v108.69" clip-path="url(#a)"/>
<path d="m113.25 484.88v110.78" clip-path="url(#a)"/>
<path d="m113.25 595.66-7.9102 110.2" clip-path="url(#a)"/>
<path d="m113.25 595.66 7.9102 110.2" clip-path="url(#a)"/>
<path d="m105.34 705.86v108.69" clip-path="url(#a)"/>
<path d="m121.16 705.86v108.69" clip-path="url(#a)"/>
<path d="m469.87 150.63-306.52 555.22" clip-path="url(#a)"/>
<path d="m469.87 150.63-205.89 334.25" clip-path="url(#a)"/>
<path d="m469.87 150.63 512.41 111.66" clip-path="url(#a)"/>
<path d="m404.9 150.63-314.72 223.09" clip-path="url(#a)"/>
<path d="m404.9 150.63-262.65 555.22" clip-path="url(#a)"/>
<path d="m404.9 150.63 577.37 111.66" clip-path="url(#a)"/>
<path d="m471.85 705.86v108.69" clip-path="url(#a)"/>
<path d="m1547.6 705.86v108.69" clip-path="url(#a)"/>
</g>
<path d="m346.04 91.703v6.0162q0 2.4 2.4 2.4h7.7425q2.4 0 2.4-2.4v-6.0162q0-2.4-2.4-2.4h-7.7425q-2.4 0-2.4 2.4z" clip-path="url(#a)" fill="#fff" stroke="#fff"/>
<g clip-path="url(#a)">
<defs>
<path id="ae" d="m9.8125 72.906h9.8594v-29.891h35.844v29.891h9.8594v-72.906h-9.8594v34.719h-35.844v-34.719h-9.8594z"/>
</defs>
<g transform="translate(350.11 91.703) rotate(90) scale(.08 -.08)">
<use xlink:href="#ae"/>
</g>
</g>
<path d="m223.02 268.91 4.5816-3.8992q1.8277-1.5555 0.27221-3.3832l-5.0181-5.8962q-1.5555-1.8277-3.3832-0.27221l-4.5816 3.8992q-1.8277 1.5555-0.27221 3.3832l5.0181 5.8962q1.5555 1.8277 3.3832 0.27221z" clip-path="url(#a)" fill="#fff" stroke="#fff"/>
<g clip-path="url(#a)">
<g transform="translate(220.38 265.81) rotate(-40.4) scale(.08 -.08)">
<use xlink:href="#ae"/>
</g>
</g>
<path d="m252.36 432.55 1.5773-4.1691q0.84926-2.2447-1.3955-3.094l-7.2416-2.7397q-2.2447-0.84926-3.094 1.3955l-1.5773 4.1691q-0.84926 2.2447 1.3955 3.094l7.2416 2.7397q2.2447 0.84926 3.094-1.3955z" clip-path="url(#a)" fill="#fff" stroke="#fff"/>
<g clip-path="url(#a)">
<defs>
<path id="t" d="m9.8125 72.906h9.8594v-64.609h35.5v-8.2969h-45.359z"/>
</defs>
<g transform="translate(248.56 431.11) rotate(-69.277) scale(.08 -.08)">
<use xlink:href="#t"/>
</g>
</g>
<path d="m263.05 432.38 1.4362-4.2198q0.77326-2.272-1.4988-3.0453l-7.3296-2.4946q-2.272-0.77326-3.0453 1.4988l-1.4362 4.2198q-0.77326 2.272 1.4988 3.0453l7.3296 2.4946q2.272 0.77326 3.0453-1.4988z" clip-path="url(#a)" fill="#fff" stroke="#fff"/>
<g clip-path="url(#a)">
<g transform="translate(259.2 431.07) rotate(-71.204) scale(.08 -.08)">
<use xlink:href="#t"/>
</g>
</g>
<path d="m313.44 322.27 1.5371-5.8166q0.61319-2.3203-1.7072-2.9335l-7.4855-1.9782q-2.3203-0.61319-2.9335 1.7072l-1.5371 5.8166q-0.61319 2.3203 1.7072 2.9335l7.4855 1.9782q2.3203 0.61319 2.9335-1.7072z" clip-path="url(#a)" fill="#fff" stroke="#fff"/>
<g clip-path="url(#a)">
<g transform="translate(309.51 321.23) rotate(-75.197) scale(.08 -.08)">
<use xlink:href="#ae"/>
</g>
</g>
<path d="m663.24 212.11 5.9239 1.05q2.3632 0.41887 2.782-1.9443l1.3513-7.6237q0.41887-2.3632-1.9443-2.782l-5.9239-1.05q-2.3632-0.41887-2.782 1.9443l-1.3513 7.6237q-0.41887 2.3632 1.9443 2.782z" clip-path="url(#a)" fill="#fff" stroke="#fff"/>
<g clip-path="url(#a)">
<g transform="translate(663.95 208.11) rotate(10.051) scale(.08 -.08)">
<use xlink:href="#ae"/>
</g>
</g>
<path d="m405.33 426.7 1.2323 5.7239q0.50512 2.3462 2.8514 1.8411l7.5691-1.6295q2.3462-0.50512 1.8411-2.8514l-1.2323-5.7239q-0.50512-2.3462-2.8514-1.8411l-7.5691 1.6295q-2.3462 0.50512-1.8411 2.8514z" clip-path="url(#a)" fill="#fff" stroke="#fff"/>
<g clip-path="url(#a)">
<defs>
<path id="ao" d="m8.6875 72.906h9.9219v-44.297q0-11.719 4.2344-16.875 4.25-5.1406 13.781-5.1406 9.4688 0 13.719 5.1406 4.25 5.1562 4.25 16.875v44.297h9.9062v-45.516q0-14.25-7.0625-21.531-7.0469-7.2812-20.812-7.2812-13.828 0-20.891 7.2812-7.0469 7.2812-7.0469 21.531z"/>
</defs>
<g transform="translate(409.3 425.85) rotate(77.85) scale(.08 -.08)">
<use xlink:href="#ao"/>
</g>
</g>
<path d="m100.19 428.5 1.5843 5.2382q0.6948 2.2972 2.992 1.6024l7.411-2.2414q2.2972-0.6948 1.6024-2.992l-1.5843-5.2382q-0.6948-2.2972-2.992-1.6024l-7.411 2.2414q-2.2972 0.6948-1.6024 2.992z" clip-path="url(#a)" fill="#fff" stroke="#fff"/>
<g clip-path="url(#a)">
<defs>
<path id="q" d="m34.188 63.188-13.391-36.281h26.812zm-5.5781 9.7188h11.188l27.781-72.906h-10.25l-6.6406 18.703h-32.859l-6.6406-18.703h-10.406z"/>
</defs>
<g transform="translate(104.08 427.33) rotate(73.172) scale(.08 -.08)">
<use xlink:href="#q"/>
</g>
</g>
<path d="m88.086 542.4 0.22802-4.5956q0.11894-2.3971-2.2781-2.516l-7.733-0.3837q-2.3971-0.11894-2.516 2.2781l-0.22802 4.5956q-0.11894 2.3971 2.2781 2.516l7.733 0.3837q2.3971 0.11894 2.516-2.2781z" clip-path="url(#a)" fill="#fff" stroke="#fff"/>
<g clip-path="url(#a)">
<defs>
<path id="am" d="m9.8125 72.906h41.891v-8.3125h-32.031v-21.484h28.906v-8.2969h-28.906v-34.812h-9.8594z"/>
</defs>
<g transform="translate(84.028 542.2) rotate(-87.159) scale(.08 -.08)">
<use xlink:href="#am"/>
</g>
</g>
<path d="m92.102 542.26 0.11868-4.5997q0.061903-2.3992-2.3373-2.4611l-7.7399-0.1997q-2.3992-0.061903-2.4611 2.3373l-0.11868 4.5997q-0.061903 2.3992 2.3373 2.4611l7.7399 0.1997q2.3992 0.061902 2.4611-2.3373z" clip-path="url(#a)" fill="#fff" stroke="#fff"/>
<g clip-path="url(#a)">
<g transform="translate(88.039 542.15) rotate(-88.522) scale(.08 -.08)">
<use xlink:href="#am"/>
</g>
</g>
<path d="m84.88 537.42 0.028721 4.8237q0.01429 2.4 2.4142 2.3857l7.7424-0.046099q2.4-0.01429 2.3857-2.4142l-0.028721-4.8237q-0.01429-2.4-2.4142-2.3857l-7.7424 0.0461q-2.4 0.01429-2.3857 2.4142z" clip-path="url(#a)" fill="#fff" stroke="#fff"/>
<g clip-path="url(#a)">
<defs>
<path id="ab" d="m19.672 64.797v-27.391h12.406q6.8906 0 10.641 3.5625 3.7656 3.5625 3.7656 10.156 0 6.5469-3.7656 10.109-3.75 3.5625-10.641 3.5625zm-9.8594 8.1094h22.266q12.266 0 18.531-5.5469 6.2812-5.5469 6.2812-16.234 0-10.797-6.2812-16.312-6.2656-5.5156-18.531-5.5156h-12.406v-29.297h-9.8594z"/>
</defs>
<g transform="translate(88.944 537.4) rotate(89.659) scale(.08 -.08)">
<use xlink:href="#ab"/>
</g>
</g>
<path d="m95.016 427.9 1.1122 5.3583q0.48776 2.3499 2.8377 1.8622l7.5809-1.5735q2.3499-0.48776 1.8622-2.8377l-1.1122-5.3583q-0.48776-2.3499-2.8377-1.8622l-7.5809 1.5735q-2.3499 0.48776-1.8622 2.8377z" clip-path="url(#a)" fill="#fff" stroke="#fff"/>
<g clip-path="url(#a)">
<g transform="translate(98.995 427.08) rotate(78.274) scale(.08 -.08)">
<use xlink:href="#q"/>
</g>
</g>
<path d="m135.98 743.3v33.808q0 2.4 2.4 2.4h7.7425q2.4 0 2.4-2.4v-33.808q0-2.4-2.4-2.4h-7.7425q-2.4 0-2.4 2.4z" clip-path="url(#a)" fill="#fff" stroke="#fff"/>
<g clip-path="url(#a)">
<defs>
<path id="l" d="m-0.29688 72.906h61.672v-8.3125h-25.875v-64.594h-9.9062v64.594h-25.891z"/>
<path id="d" d="m56.203 29.594v-4.3906h-41.312q0.59375-9.2812 5.5938-14.141t13.938-4.8594q5.1719 0 10.031 1.2656t9.6562 3.8125v-8.5q-4.8438-2.0469-9.9219-3.125t-10.297-1.0781q-13.094 0-20.734 7.6094-7.6406 7.625-7.6406 20.625 0 13.422 7.25 21.297 7.25 7.8906 19.562 7.8906 11.031 0 17.453-7.1094 6.4219-7.0938 6.4219-19.297zm-8.9844 2.6406q-0.09375 7.3594-4.125 11.75-4.0312 4.4062-10.672 4.4062-7.5156 0-12.031-4.25t-5.2031-11.969z"/>
<path id="f" d="m41.109 46.297q-1.5156 0.875-3.2969 1.2812-1.7812 0.42188-3.9219 0.42188-7.625 0-11.703-4.9531t-4.0781-14.234v-28.812h-9.0312v54.688h9.0312v-8.5q2.8438 4.9844 7.375 7.3906 4.5469 2.4219 11.047 2.4219 0.92188 0 2.0469-0.125 1.125-0.10938 2.4844-0.35938z"/>
<path id="k" d="m52 44.188q3.375 6.0625 8.0625 8.9375t11.031 2.875q8.5469 0 13.188-5.9844 4.6406-5.9688 4.6406-17v-33.016h-9.0312v32.719q0 7.8594-2.7969 11.656-2.7812 3.8125-8.4844 3.8125-6.9844 0-11.047-4.6406-4.0469-4.625-4.0469-12.641v-30.906h-9.0312v32.719q0 7.9062-2.7812 11.688t-8.5938 3.7812q-6.8906 0-10.953-4.6562-4.0469-4.6562-4.0469-12.625v-30.906h-9.0312v54.688h9.0312v-8.5q3.0781 5.0312 7.375 7.4219t10.203 2.3906q5.9688 0 10.141-3.0312 4.1719-3.0156 6.1719-8.7812z"/>
<path id="g" d="m9.4219 54.688h8.9844v-54.688h-8.9844zm0 21.297h8.9844v-11.391h-8.9844z"/>
<path id="i" d="m54.891 33.016v-33.016h-8.9844v32.719q0 7.7656-3.0312 11.609-3.0312 3.8594-9.0781 3.8594-7.2812 0-11.484-4.6406-4.2031-4.625-4.2031-12.641v-30.906h-9.0312v54.688h9.0312v-8.5q3.2344 4.9375 7.5938 7.375 4.375 2.4375 10.094 2.4375 9.4219 0 14.25-5.8281 4.8438-5.8281 4.8438-17.156z"/>
<path id="h" d="m34.281 27.484q-10.891 0-15.094-2.4844t-4.2031-8.5q0-4.7812 3.1562-7.5938 3.1562-2.7969 8.5625-2.7969 7.4844 0 12 5.2969t4.5156 14.078v2zm17.922 3.7188v-31.203h-8.9844v8.2969q-3.0781-4.9688-7.6719-7.3438t-11.234-2.375q-8.3906 0-13.359 4.7188-4.9531 4.7188-4.9531 12.625 0 9.2188 6.1719 13.906 6.1875 4.6875 18.438 4.6875h12.609v0.89062q0 6.2031-4.0781 9.5938t-11.453 3.3906q-4.6875 0-9.1406-1.125-4.4375-1.125-8.5312-3.375v8.3125q4.9219 1.9062 9.5625 2.8438 4.6406 0.95312 9.0312 0.95312 11.875 0 17.734-6.1562 5.8594-6.1406 5.8594-18.641z"/>
<path id="j" d="m9.4219 75.984h8.9844v-75.984h-8.9844z"/>
</defs>
<g transform="translate(140.04 743.3) rotate(90) scale(.08 -.08)">
<use xlink:href="#l"/>
<use x="44.083984" xlink:href="#d"/>
<use x="105.607422" xlink:href="#f"/>
<use x="144.970703" xlink:href="#k"/>
<use x="242.382812" xlink:href="#g"/>
<use x="270.166016" xlink:href="#i"/>
<use x="333.544922" xlink:href="#h"/>
<use x="394.824219" xlink:href="#j"/>
</g>
</g>
<path d="m157.07 743.3v33.808q0 2.4 2.4 2.4h7.7425q2.4 0 2.4-2.4v-33.808q0-2.4-2.4-2.4h-7.7425q-2.4 0-2.4 2.4z" clip-path="url(#a)" fill="#fff" stroke="#fff"/>
<g clip-path="url(#a)">
<g transform="translate(161.14 743.3) rotate(90) scale(.08 -.08)">
<use xlink:href="#l"/>
<use x="44.083984" xlink:href="#d"/>
<use x="105.607422" xlink:href="#f"/>
<use x="144.970703" xlink:href="#k"/>
<use x="242.382812" xlink:href="#g"/>
<use x="270.166016" xlink:href="#i"/>
<use x="333.544922" xlink:href="#h"/>
<use x="394.824219" xlink:href="#j"/>
</g>
</g>
<path d="m230.55 600.02 1.7987-5.1684q0.78885-2.2667-1.4778-3.0555l-7.3123-2.5449q-2.2667-0.78885-3.0555 1.4778l-1.7987 5.1684q-0.78885 2.2667 1.4778 3.0555l7.3123 2.5449q2.2667 0.78885 3.0555-1.4778z" clip-path="url(#a)" fill="#fff" stroke="#fff"/>
<g clip-path="url(#a)">
<g transform="translate(226.71 598.68) rotate(-70.811) scale(.08 -.08)">
<use xlink:href="#q"/>
</g>
</g>
<path d="m244.14 599.77 1.3733-6.005q0.53507-2.3396-1.8045-2.8747l-7.5476-1.7262q-2.3396-0.53507-2.8747 1.8045l-1.3733 6.005q-0.53507 2.3396 1.8045 2.8747l7.5476 1.7262q2.3396 0.53507 2.8747-1.8045z" clip-path="url(#a)" fill="#fff" stroke="#fff"/>
<g clip-path="url(#a)">
<defs>
<path id="at" d="m19.672 64.797v-56.688h11.922q15.094 0 22.094 6.8281 7 6.8438 7 21.594 0 14.641-7 21.453t-22.094 6.8125zm-9.8594 8.1094h20.266q21.188 0 31.094-8.8125 9.9219-8.8125 9.9219-27.562 0-18.859-9.9688-27.703-9.9531-8.8281-31.047-8.8281h-20.266z"/>
</defs>
<g transform="translate(240.18 598.87) rotate(-77.118) scale(.08 -.08)">
<use xlink:href="#at"/>
</g>
</g>
<path d="m259.22 598.38 0.46784-4.801q0.23277-2.3887-2.1559-2.6215l-7.706-0.75093q-2.3887-0.23277-2.6215 2.1559l-0.46784 4.801q-0.23277 2.3887 2.1559 2.6215l7.706 0.75093q2.3887 0.23277 2.6215-2.1559z" clip-path="url(#a)" fill="#fff" stroke="#fff"/>
<g clip-path="url(#a)">
<g transform="translate(255.18 597.99) rotate(-84.434) scale(.08 -.08)">
<use xlink:href="#ab"/>
</g>
</g>
<path d="m270.86 539.11 1.307 5.3141q0.57321 2.3305 2.9038 1.7573l7.5184-1.8492q2.3305-0.57321 1.7573-2.9038l-1.307-5.3141q-0.57321-2.3305-2.9038-1.7573l-7.5184 1.8492q-2.3305 0.57321-1.7573 2.9038z" clip-path="url(#a)" fill="#fff" stroke="#fff"/>
<g clip-path="url(#a)">
<g transform="translate(274.81 538.14) rotate(76.182) scale(.08 -.08)">
<use xlink:href="#q"/>
</g>
</g>
<path d="m318.6 543.07 4.0474 3.6833q1.775 1.6153 3.3904-0.15971l5.2111-5.7263q1.6153-1.775-0.15971-3.3904l-4.0474-3.6833q-1.775-1.6153-3.3904 0.15971l-5.2111 5.7263q-1.6153 1.775 0.15971 3.3904z" clip-path="url(#a)" fill="#fff" stroke="#fff"/>
<g clip-path="url(#a)">
<g transform="translate(321.34 540.06) rotate(42.303) scale(.08 -.08)">
<use xlink:href="#q"/>
</g>
</g>
<path d="m802.22 324.81 5.226-1.624q2.2919-0.71221 1.5797-3.0041l-2.2976-7.3937q-0.71221-2.2919-3.0041-1.5797l-5.226 1.624q-2.2919 0.71221-1.5797 3.0041l2.2976 7.3937q0.71221 2.2919 3.0041 1.5797z" clip-path="url(#a)" fill="#fff" stroke="#fff"/>
<g clip-path="url(#a)">
<g transform="translate(801.02 320.93) rotate(-17.263) scale(.08 -.08)">
<use xlink:href="#q"/>
</g>
</g>
<path d="m1017.1 482.86 0.88555 4.7418q0.44059 2.3592 2.7998 1.9186l7.6109-1.4214q2.3592-0.44059 1.9186-2.7998l-0.88555-4.7418q-0.44059-2.3592-2.7998-1.9186l-7.6109 1.4214q-2.3592 0.44059-1.9186 2.7998z" clip-path="url(#a)" fill="#fff" stroke="#fff"/>
<g clip-path="url(#a)">
<g transform="translate(1021.1 482.11) rotate(79.422) scale(.08 -.08)">
<use xlink:href="#ab"/>
</g>
</g>
<path d="m1114.1 376.75 4.2583 3.4373q1.8675 1.5074 3.375-0.36009l4.863-6.0247q1.5074-1.8675-0.36009-3.375l-4.2583-3.4373q-1.8675-1.5074-3.375 0.36009l-4.863 6.0247q-1.5074 1.8675 0.36009 3.375z" clip-path="url(#a)" fill="#fff" stroke="#fff"/>
<g clip-path="url(#a)">
<g transform="translate(1116.6 373.59) rotate(38.91) scale(.08 -.08)">
<use xlink:href="#q"/>
</g>
</g>
<path d="m576.72 544.09 1.5155-4.8225q0.71951-2.2896-1.5701-3.0091l-7.3864-2.3212q-2.2896-0.71951-3.0091 1.5701l-1.5155 4.8225q-0.71951 2.2896 1.5701 3.0091l7.3864 2.3212q2.2896 0.71951 3.0091-1.5701z" clip-path="url(#a)" fill="#fff" stroke="#fff"/>
<g clip-path="url(#a)">
<defs>
<path id="p" d="m9.8125 72.906h46.094v-8.3125h-36.234v-21.578h34.719v-8.2969h-34.719v-26.422h37.109v-8.2969h-46.969z"/>
</defs>
<g transform="translate(572.84 542.87) rotate(-72.555) scale(.08 -.08)">
<use xlink:href="#p"/>
</g>
</g>
<path d="m602.32 543.3 0.81522-4.9888q0.38705-2.3686-1.9815-2.7556l-7.6412-1.2486q-2.3686-0.38705-2.7556 1.9815l-0.81522 4.9888q-0.38705 2.3686 1.9815 2.7556l7.6412 1.2486q2.3686 0.38705 2.7556-1.9815z" clip-path="url(#a)" fill="#fff" stroke="#fff"/>
<g clip-path="url(#a)">
<g transform="translate(598.31 542.64) rotate(-80.719) scale(.08 -.08)">
<use xlink:href="#p"/>
</g>
</g>
<path d="m629.17 542.62 0.02587-5.5862q0.011114-2.4-2.3889-2.4111l-7.7424-0.035855q-2.4-0.011114-2.4111 2.3889l-0.02587 5.5862q-0.011114 2.4 2.3889 2.4111l7.7424 0.035855q2.4 0.011114 2.4111-2.3889z" clip-path="url(#a)" fill="#fff" stroke="#fff"/>
<g clip-path="url(#a)">
<defs>
<path id="s" d="m64.406 67.281v-10.391q-4.9844 4.6406-10.625 6.9219-5.6406 2.2969-11.984 2.2969-12.5 0-19.141-7.6406t-6.6406-22.094q0-14.406 6.6406-22.047t19.141-7.6406q6.3438 0 11.984 2.2969t10.625 6.9375v-10.312q-5.1719-3.5156-10.969-5.2812-5.7812-1.75-12.219-1.75-16.562 0-26.094 10.125-9.5156 10.141-9.5156 27.672 0 17.578 9.5156 27.703 9.5312 10.141 26.094 10.141 6.5312 0 12.312-1.7344 5.7969-1.7344 10.875-5.2031z"/>
</defs>
<g transform="translate(625.1 542.6) rotate(-89.735) scale(.08 -.08)">
<use xlink:href="#s"/>
</g>
</g>
<path d="m698.12 433.02 4.153 2.8819q1.9718 1.3683 3.34-0.60352l4.414-6.361q1.3683-1.9718-0.60352-3.34l-4.153-2.8819q-1.9718-1.3683-3.34 0.60352l-4.414 6.361q-1.3683 1.9718 0.60352 3.34z" clip-path="url(#a)" fill="#fff" stroke="#fff"/>
<g clip-path="url(#a)">
<g transform="translate(700.43 429.68) rotate(34.758) scale(.08 -.08)">
<use xlink:href="#p"/>
</g>
</g>
<path d="m1058.8 743.3v33.808q0 2.4 2.4 2.4h7.7425q2.4 0 2.4-2.4v-33.808q0-2.4-2.4-2.4h-7.7425q-2.4 0-2.4 2.4z" clip-path="url(#a)" fill="#fff" stroke="#fff"/>
<g clip-path="url(#a)">
<g transform="translate(1062.9 743.3) rotate(90) scale(.08 -.08)">
<use xlink:href="#l"/>
<use x="44.083984" xlink:href="#d"/>
<use x="105.607422" xlink:href="#f"/>
<use x="144.970703" xlink:href="#k"/>
<use x="242.382812" xlink:href="#g"/>
<use x="270.166016" xlink:href="#i"/>
<use x="333.544922" xlink:href="#h"/>
<use x="394.824219" xlink:href="#j"/>
</g>
</g>
<path d="m1202.8 600.57 2.3982-4.4499q1.1386-2.1127-0.97408-3.2513l-6.8157-3.6733q-2.1127-1.1386-3.2513 0.97408l-2.3982 4.4499q-1.1386 2.1127 0.97408 3.2513l6.8157 3.6733q2.1127 1.1386 3.2513-0.97408z" clip-path="url(#a)" fill="#fff" stroke="#fff"/>
<g clip-path="url(#a)">
<g transform="translate(1199.2 598.64) rotate(-61.678) scale(.08 -.08)">
<use xlink:href="#p"/>
</g>
</g>
<path d="m1242.3 599.3 1.0581-5.4851q0.45459-2.3566-1.902-2.8111l-7.6023-1.4665q-2.3566-0.45459-2.8111 1.902l-1.0581 5.4851q-0.45459 2.3566 1.902 2.8111l7.6023 1.4665q2.3566 0.45459 2.8111-1.902z" clip-path="url(#a)" fill="#fff" stroke="#fff"/>
<g clip-path="url(#a)">
<g transform="translate(1238.4 598.53) rotate(-79.081) scale(.08 -.08)">
<use xlink:href="#s"/>
</g>
</g>
<path d="m1333.3 544.02 4.1704 2.8567q1.98 1.3563 3.3363-0.62372l4.3755-6.3876q1.3563-1.98-0.62372-3.3363l-4.1704-2.8567q-1.98-1.3563-3.3363 0.62372l-4.3755 6.3876q-1.3563 1.98 0.62372 3.3363z" clip-path="url(#a)" fill="#fff" stroke="#fff"/>
<g clip-path="url(#a)">
<g transform="translate(1335.6 540.66) rotate(34.411) scale(.08 -.08)">
<use xlink:href="#p"/>
</g>
</g>
<path d="m1132.7 743.3v33.808q0 2.4 2.4 2.4h7.7425q2.4 0 2.4-2.4v-33.808q0-2.4-2.4-2.4h-7.7425q-2.4 0-2.4 2.4z" clip-path="url(#a)" fill="#fff" stroke="#fff"/>
<g clip-path="url(#a)">
<g transform="translate(1136.7 743.3) rotate(90) scale(.08 -.08)">
<use xlink:href="#l"/>
<use x="44.083984" xlink:href="#d"/>
<use x="105.607422" xlink:href="#f"/>
<use x="144.970703" xlink:href="#k"/>
<use x="242.382812" xlink:href="#g"/>
<use x="270.166016" xlink:href="#i"/>
<use x="333.544922" xlink:href="#h"/>
<use x="394.824219" xlink:href="#j"/>
</g>
</g>
<path d="m1209.1 743.3v33.808q0 2.4 2.4 2.4h7.7425q2.4 0 2.4-2.4v-33.808q0-2.4-2.4-2.4h-7.7425q-2.4 0-2.4 2.4z" clip-path="url(#a)" fill="#fff" stroke="#fff"/>
<g clip-path="url(#a)">
<g transform="translate(1213.2 743.3) rotate(90) scale(.08 -.08)">
<use xlink:href="#l"/>
<use x="44.083984" xlink:href="#d"/>
<use x="105.607422" xlink:href="#f"/>
<use x="144.970703" xlink:href="#k"/>
<use x="242.382812" xlink:href="#g"/>
<use x="270.166016" xlink:href="#i"/>
<use x="333.544922" xlink:href="#h"/>
<use x="394.824219" xlink:href="#j"/>
</g>
</g>
<path d="m1359.2 657.3 4.1733-3.6719q1.8018-1.5854 0.21647-3.3872l-5.1145-5.8128q-1.5854-1.8018-3.3872-0.21646l-4.1733 3.6719q-1.8018 1.5854-0.21647 3.3872l5.1145 5.8128q1.5854 1.8018 3.3872 0.21646z" clip-path="url(#a)" fill="#fff" stroke="#fff"/>
<g clip-path="url(#a)">
<defs>
<path id="aa" d="m44.391 34.188q3.1719-1.0781 6.1719-4.5938t6.0312-9.6719l10.016-19.922h-10.609l-9.3125 18.703q-3.625 7.3281-7.0156 9.7188t-9.25 2.3906h-10.75v-30.812h-9.8594v72.906h22.266q12.5 0 18.656-5.2344 6.1562-5.2188 6.1562-15.766 0-6.8906-3.2031-11.438-3.2031-4.5312-9.2969-6.2812zm-24.719 30.609v-25.875h12.406q7.125 0 10.766 3.2969t3.6406 9.6875-3.6406 9.6406-10.766 3.25z"/>
</defs>
<g transform="translate(1356.5 654.25) rotate(-41.343) scale(.08 -.08)">
<use xlink:href="#aa"/>
</g>
</g>
<path d="m1402.9 655.41 1.8563-4.7018q0.88132-2.2323-1.351-3.1136l-7.2016-2.8432q-2.2323-0.88132-3.1136 1.351l-1.8563 4.7018q-0.88132 2.2323 1.351 3.1136l7.2016 2.8432q2.2323 0.88132 3.1136-1.351z" clip-path="url(#a)" fill="#fff" stroke="#fff"/>
<g clip-path="url(#a)">
<g transform="translate(1399.1 653.92) rotate(-68.456) scale(.08 -.08)">
<use xlink:href="#p"/>
</g>
</g>
<path d="m1433.3 650.32 1.9425 5.2376q0.83454 2.2502 3.0848 1.4157l7.2593-2.6923q2.2502-0.83454 1.4157-3.0848l-1.9425-5.2376q-0.83454-2.2502-3.0848-1.4157l-7.2593 2.6923q-2.2502 0.83454-1.4157 3.0848z" clip-path="url(#a)" fill="#fff" stroke="#fff"/>
<g clip-path="url(#a)">
<g transform="translate(1437.1 648.91) rotate(69.652) scale(.08 -.08)">
<use xlink:href="#s"/>
</g>
</g>
<path d="m1477.4 653.6 4.4354 3.8221q1.8181 1.5667 3.3848-0.2514l5.0542-5.8653q1.5667-1.8181-0.2514-3.3848l-4.4354-3.8221q-1.8181-1.5667-3.3848 0.2514l-5.0542 5.8653q-1.5667 1.8181 0.2514 3.3848z" clip-path="url(#a)" fill="#fff" stroke="#fff"/>
<g clip-path="url(#a)">
<g transform="translate(1480 650.52) rotate(40.752) scale(.08 -.08)">
<use xlink:href="#ao"/>
</g>
</g>
<path d="m1288.2 743.3v33.808q0 2.4 2.4 2.4h7.7425q2.4 0 2.4-2.4v-33.808q0-2.4-2.4-2.4h-7.7425q-2.4 0-2.4 2.4z" clip-path="url(#a)" fill="#fff" stroke="#fff"/>
<g clip-path="url(#a)">
<g transform="translate(1292.3 743.3) rotate(90) scale(.08 -.08)">
<use xlink:href="#l"/>
<use x="44.083984" xlink:href="#d"/>
<use x="105.607422" xlink:href="#f"/>
<use x="144.970703" xlink:href="#k"/>
<use x="242.382812" xlink:href="#g"/>
<use x="270.166016" xlink:href="#i"/>
<use x="333.544922" xlink:href="#h"/>
<use x="394.824219" xlink:href="#j"/>
</g>
</g>
<path d="m1370 743.3v33.808q0 2.4 2.4 2.4h7.7425q2.4 0 2.4-2.4v-33.808q0-2.4-2.4-2.4h-7.7425q-2.4 0-2.4 2.4z" clip-path="url(#a)" fill="#fff" stroke="#fff"/>
<g clip-path="url(#a)">
<g transform="translate(1374 743.3) rotate(90) scale(.08 -.08)">
<use xlink:href="#l"/>
<use x="44.083984" xlink:href="#d"/>
<use x="105.607422" xlink:href="#f"/>
<use x="144.970703" xlink:href="#k"/>
<use x="242.382812" xlink:href="#g"/>
<use x="270.166016" xlink:href="#i"/>
<use x="333.544922" xlink:href="#h"/>
<use x="394.824219" xlink:href="#j"/>
</g>
</g>
<path d="m1454.4 743.3v33.808q0 2.4 2.4 2.4h7.7425q2.4 0 2.4-2.4v-33.808q0-2.4-2.4-2.4h-7.7425q-2.4 0-2.4 2.4z" clip-path="url(#a)" fill="#fff" stroke="#fff"/>
<g clip-path="url(#a)">
<g transform="translate(1458.4 743.3) rotate(90) scale(.08 -.08)">
<use xlink:href="#l"/>
<use x="44.083984" xlink:href="#d"/>
<use x="105.607422" xlink:href="#f"/>
<use x="144.970703" xlink:href="#k"/>
<use x="242.382812" xlink:href="#g"/>
<use x="270.166016" xlink:href="#i"/>
<use x="333.544922" xlink:href="#h"/>
<use x="394.824219" xlink:href="#j"/>
</g>
</g>
<path d="m513.04 743.3v33.808q0 2.4 2.4 2.4h7.7425q2.4 0 2.4-2.4v-33.808q0-2.4-2.4-2.4h-7.7425q-2.4 0-2.4 2.4z" clip-path="url(#a)" fill="#fff" stroke="#fff"/>
<g clip-path="url(#a)">
<g transform="translate(517.1 743.3) rotate(90) scale(.08 -.08)">
<use xlink:href="#l"/>
<use x="44.083984" xlink:href="#d"/>
<use x="105.607422" xlink:href="#f"/>
<use x="144.970703" xlink:href="#k"/>
<use x="242.382812" xlink:href="#g"/>
<use x="270.166016" xlink:href="#i"/>
<use x="333.544922" xlink:href="#h"/>
<use x="394.824219" xlink:href="#j"/>
</g>
</g>
<path d="m563.13 743.3v33.808q0 2.4 2.4 2.4h7.7425q2.4 0 2.4-2.4v-33.808q0-2.4-2.4-2.4h-7.7425q-2.4 0-2.4 2.4z" clip-path="url(#a)" fill="#fff" stroke="#fff"/>
<g clip-path="url(#a)">
<g transform="translate(567.2 743.3) rotate(90) scale(.08 -.08)">
<use xlink:href="#l"/>
<use x="44.083984" xlink:href="#d"/>
<use x="105.607422" xlink:href="#f"/>
<use x="144.970703" xlink:href="#k"/>
<use x="242.382812" xlink:href="#g"/>
<use x="270.166016" xlink:href="#i"/>
<use x="333.544922" xlink:href="#h"/>
<use x="394.824219" xlink:href="#j"/>
</g>
</g>
<path d="m615.87 743.3v33.808q0 2.4 2.4 2.4h7.7425q2.4 0 2.4-2.4v-33.808q0-2.4-2.4-2.4h-7.7425q-2.4 0-2.4 2.4z" clip-path="url(#a)" fill="#fff" stroke="#fff"/>
<g clip-path="url(#a)">
<g transform="translate(619.93 743.3) rotate(90) scale(.08 -.08)">
<use xlink:href="#l"/>
<use x="44.083984" xlink:href="#d"/>
<use x="105.607422" xlink:href="#f"/>
<use x="144.970703" xlink:href="#k"/>
<use x="242.382812" xlink:href="#g"/>
<use x="270.166016" xlink:href="#i"/>
<use x="333.544922" xlink:href="#h"/>
<use x="394.824219" xlink:href="#j"/>
</g>
</g>
<path d="m735.13 600.59 2.4106-5.0089q1.0408-2.1626-1.1218-3.2034l-6.9766-3.3576q-2.1626-1.0408-3.2034 1.1218l-2.4106 5.0089q-1.0408 2.1626 1.1218 3.2034l6.9766 3.3576q2.1626 1.0408 3.2034-1.1218z" clip-path="url(#a)" fill="#fff" stroke="#fff"/>
<g clip-path="url(#a)">
<g transform="translate(731.47 598.83) rotate(-64.3) scale(.08 -.08)">
<use xlink:href="#aa"/>
</g>
</g>
<path d="m765.28 599.18 1.0803-4.9382q0.51289-2.3446-1.8317-2.8574l-7.5636-1.6546q-2.3446-0.51289-2.8574 1.8317l-1.0803 4.9382q-0.51289 2.3446 1.8317 2.8574l7.5636 1.6546q2.3446 0.51289 2.8574-1.8317z" clip-path="url(#a)" fill="#fff" stroke="#fff"/>
<g clip-path="url(#a)">
<g transform="translate(761.31 598.31) rotate(-77.66) scale(.08 -.08)">
<use xlink:href="#p"/>
</g>
</g>
<path d="m783.6 592.93 0.31058 5.5776q0.13344 2.3963 2.5297 2.2629l7.7305-0.43047q2.3963-0.13344 2.2629-2.5297l-0.31058-5.5776q-0.13344-2.3963-2.5297-2.2629l-7.7305 0.43047q-2.3963 0.13343-2.2629 2.5297z" clip-path="url(#a)" fill="#fff" stroke="#fff"/>
<g clip-path="url(#a)">
<g transform="translate(787.65 592.7) rotate(86.813) scale(.08 -.08)">
<use xlink:href="#s"/>
</g>
</g>
<path d="m849.21 543.67 3.9897 3.1041q1.8942 1.4737 3.368-0.42049l4.7543-6.1109q1.4737-1.8942-0.42049-3.368l-3.9897-3.1041q-1.8942-1.4737-3.368 0.42049l-4.7543 6.1109q-1.4737 1.8942 0.42049 3.368z" clip-path="url(#a)" fill="#fff" stroke="#fff"/>
<g clip-path="url(#a)">
<g transform="translate(851.7 540.46) rotate(37.883) scale(.08 -.08)">
<use xlink:href="#p"/>
</g>
</g>
<path d="m671.24 743.3v33.808q0 2.4 2.4 2.4h7.7425q2.4 0 2.4-2.4v-33.808q0-2.4-2.4-2.4h-7.7425q-2.4 0-2.4 2.4z" clip-path="url(#a)" fill="#fff" stroke="#fff"/>
<g clip-path="url(#a)">
<g transform="translate(675.3 743.3) rotate(90) scale(.08 -.08)">
<use xlink:href="#l"/>
<use x="44.083984" xlink:href="#d"/>
<use x="105.607422" xlink:href="#f"/>
<use x="144.970703" xlink:href="#k"/>
<use x="242.382812" xlink:href="#g"/>
<use x="270.166016" xlink:href="#i"/>
<use x="333.544922" xlink:href="#h"/>
<use x="394.824219" xlink:href="#j"/>
</g>
</g>
<path d="m729.25 743.3v33.808q0 2.4 2.4 2.4h7.7425q2.4 0 2.4-2.4v-33.808q0-2.4-2.4-2.4h-7.7425q-2.4 0-2.4 2.4z" clip-path="url(#a)" fill="#fff" stroke="#fff"/>
<g clip-path="url(#a)">
<g transform="translate(733.31 743.3) rotate(90) scale(.08 -.08)">
<use xlink:href="#l"/>
<use x="44.083984" xlink:href="#d"/>
<use x="105.607422" xlink:href="#f"/>
<use x="144.970703" xlink:href="#k"/>
<use x="242.382812" xlink:href="#g"/>
<use x="270.166016" xlink:href="#i"/>
<use x="333.544922" xlink:href="#h"/>
<use x="394.824219" xlink:href="#j"/>
</g>
</g>
<path d="m789.89 743.3v33.808q0 2.4 2.4 2.4h7.7425q2.4 0 2.4-2.4v-33.808q0-2.4-2.4-2.4h-7.7425q-2.4 0-2.4 2.4z" clip-path="url(#a)" fill="#fff" stroke="#fff"/>
<g clip-path="url(#a)">
<g transform="translate(793.96 743.3) rotate(90) scale(.08 -.08)">
<use xlink:href="#l"/>
<use x="44.083984" xlink:href="#d"/>
<use x="105.607422" xlink:href="#f"/>
<use x="144.970703" xlink:href="#k"/>
<use x="242.382812" xlink:href="#g"/>
<use x="270.166016" xlink:href="#i"/>
<use x="333.544922" xlink:href="#h"/>
<use x="394.824219" xlink:href="#j"/>
</g>
</g>
<path d="m896.77 656.39 2.8814-4.7536q1.2441-2.0524-0.80832-3.2965l-6.6211-4.0134q-2.0524-1.2441-3.2965 0.80832l-2.8814 4.7536q-1.2441 2.0524 0.80832 3.2965l6.6211 4.0134q2.0524 1.2441 3.2965-0.80832z" clip-path="url(#a)" fill="#fff" stroke="#fff"/>
<g clip-path="url(#a)">
<g transform="translate(893.29 654.28) rotate(-58.778) scale(.08 -.08)">
<use xlink:href="#aa"/>
</g>
</g>
<path d="m932.06 653.34 0.040316-5.0548q0.019141-2.3999-2.3808-2.4191l-7.7423-0.06175q-2.3999-0.019141-2.4191 2.3808l-0.040316 5.0548q-0.019141 2.3999 2.3808 2.4191l7.7423 0.06175q2.3999 0.019141 2.4191-2.3808z" clip-path="url(#a)" fill="#fff" stroke="#fff"/>
<g clip-path="url(#a)">
<g transform="translate(927.99 653.3) rotate(-89.543) scale(.08 -.08)">
<use xlink:href="#p"/>
</g>
</g>
<path d="m953.28 651.66 2.9234 4.7602q1.256 2.0451 3.3011 0.78915l6.5977-4.0518q2.0451-1.256 0.78915-3.3011l-2.9234-4.7602q-1.256-2.0451-3.3011-0.78915l-6.5977 4.0518q-2.0451 1.256-0.78915 3.3011z" clip-path="url(#a)" fill="#fff" stroke="#fff"/>
<g clip-path="url(#a)">
<g transform="translate(956.74 649.53) rotate(58.445) scale(.08 -.08)">
<use xlink:href="#s"/>
</g>
</g>
<path d="m853.18 743.3v33.808q0 2.4 2.4 2.4h7.7425q2.4 0 2.4-2.4v-33.808q0-2.4-2.4-2.4h-7.7425q-2.4 0-2.4 2.4z" clip-path="url(#a)" fill="#fff" stroke="#fff"/>
<g clip-path="url(#a)">
<g transform="translate(857.24 743.3) rotate(90) scale(.08 -.08)">
<use xlink:href="#l"/>
<use x="44.083984" xlink:href="#d"/>
<use x="105.607422" xlink:href="#f"/>
<use x="144.970703" xlink:href="#k"/>
<use x="242.382812" xlink:href="#g"/>
<use x="270.166016" xlink:href="#i"/>
<use x="333.544922" xlink:href="#h"/>
<use x="394.824219" xlink:href="#j"/>
</g>
</g>
<path d="m919.09 743.3v33.808q0 2.4 2.4 2.4h7.7425q2.4 0 2.4-2.4v-33.808q0-2.4-2.4-2.4h-7.7425q-2.4 0-2.4 2.4z" clip-path="url(#a)" fill="#fff" stroke="#fff"/>
<g clip-path="url(#a)">
<g transform="translate(923.16 743.3) rotate(90) scale(.08 -.08)">
<use xlink:href="#l"/>
<use x="44.083984" xlink:href="#d"/>
<use x="105.607422" xlink:href="#f"/>
<use x="144.970703" xlink:href="#k"/>
<use x="242.382812" xlink:href="#g"/>
<use x="270.166016" xlink:href="#i"/>
<use x="333.544922" xlink:href="#h"/>
<use x="394.824219" xlink:href="#j"/>
</g>
</g>
<path d="m987.65 743.3v33.808q0 2.4 2.4 2.4h7.7425q2.4 0 2.4-2.4v-33.808q0-2.4-2.4-2.4h-7.7425q-2.4 0-2.4 2.4z" clip-path="url(#a)" fill="#fff" stroke="#fff"/>
<g clip-path="url(#a)">
<g transform="translate(991.71 743.3) rotate(90) scale(.08 -.08)">
<use xlink:href="#l"/>
<use x="44.083984" xlink:href="#d"/>
<use x="105.607422" xlink:href="#f"/>
<use x="144.970703" xlink:href="#k"/>
<use x="242.382812" xlink:href="#g"/>
<use x="270.166016" xlink:href="#i"/>
<use x="333.544922" xlink:href="#h"/>
<use x="394.824219" xlink:href="#j"/>
</g>
</g>
<path d="m180.81 743.3v33.808q0 2.4 2.4 2.4h7.7425q2.4 0 2.4-2.4v-33.808q0-2.4-2.4-2.4h-7.7425q-2.4 0-2.4 2.4z" clip-path="url(#a)" fill="#fff" stroke="#fff"/>
<g clip-path="url(#a)">
<g transform="translate(184.87 743.3) rotate(90) scale(.08 -.08)">
<use xlink:href="#l"/>
<use x="44.083984" xlink:href="#d"/>
<use x="105.607422" xlink:href="#f"/>
<use x="144.970703" xlink:href="#k"/>
<use x="242.382812" xlink:href="#g"/>
<use x="270.166016" xlink:href="#i"/>
<use x="333.544922" xlink:href="#h"/>
<use x="394.824219" xlink:href="#j"/>
</g>
</g>
<path d="m207.17 743.3v33.808q0 2.4 2.4 2.4h7.7425q2.4 0 2.4-2.4v-33.808q0-2.4-2.4-2.4h-7.7425q-2.4 0-2.4 2.4z" clip-path="url(#a)" fill="#fff" stroke="#fff"/>
<g clip-path="url(#a)">
<g transform="translate(211.24 743.3) rotate(90) scale(.08 -.08)">
<use xlink:href="#l"/>
<use x="44.083984" xlink:href="#d"/>
<use x="105.607422" xlink:href="#f"/>
<use x="144.970703" xlink:href="#k"/>
<use x="242.382812" xlink:href="#g"/>
<use x="270.166016" xlink:href="#i"/>
<use x="333.544922" xlink:href="#h"/>
<use x="394.824219" xlink:href="#j"/>
</g>
</g>
<path d="m236.18 743.3v33.808q0 2.4 2.4 2.4h7.7425q2.4 0 2.4-2.4v-33.808q0-2.4-2.4-2.4h-7.7425q-2.4 0-2.4 2.4z" clip-path="url(#a)" fill="#fff" stroke="#fff"/>
<g clip-path="url(#a)">
<g transform="translate(240.24 743.3) rotate(90) scale(.08 -.08)">
<use xlink:href="#l"/>
<use x="44.083984" xlink:href="#d"/>
<use x="105.607422" xlink:href="#f"/>
<use x="144.970703" xlink:href="#k"/>
<use x="242.382812" xlink:href="#g"/>
<use x="270.166016" xlink:href="#i"/>
<use x="333.544922" xlink:href="#h"/>
<use x="394.824219" xlink:href="#j"/>
</g>
</g>
<path d="m288.47 654.22 0.77685-4.995q0.36883-2.3715-2.0027-2.7403l-7.6505-1.1899q-2.3715-0.36883-2.7403 2.0027l-0.77685 4.995q-0.36883 2.3715 2.0027 2.7403l7.6505 1.1899q2.3715 0.36883 2.7403-2.0027z" clip-path="url(#a)" fill="#fff" stroke="#fff"/>
<g clip-path="url(#a)">
<g transform="translate(284.45 653.6) rotate(-81.16) scale(.08 -.08)">
<use xlink:href="#p"/>
</g>
</g>
<path d="m293.17 648.96 0.85849 5.5199q0.36883 2.3715 2.7403 2.0027l7.6505-1.1899q2.3715-0.36883 2.0027-2.7403l-0.85849-5.5199q-0.36883-2.3715-2.7403-2.0027l-7.6505 1.1899q-2.3715 0.36883-2.0027 2.7403z" clip-path="url(#a)" fill="#fff" stroke="#fff"/>
<g clip-path="url(#a)">
<g transform="translate(297.19 648.34) rotate(81.16) scale(.08 -.08)">
<use xlink:href="#s"/>
</g>
</g>
<path d="m370.43 655.53 1.9146-5.2186q0.82664-2.2531-1.4265-3.0798l-7.2687-2.6668q-2.2531-0.82664-3.0798 1.4265l-1.9146 5.2186q-0.82664 2.2531 1.4265 3.0798l7.2687 2.6668q2.2531 0.82664 3.0798-1.4265z" clip-path="url(#a)" fill="#fff" stroke="#fff"/>
<g clip-path="url(#a)">
<g transform="translate(366.61 654.13) rotate(-69.853) scale(.08 -.08)">
<use xlink:href="#aa"/>
</g>
</g>
<path d="m391.52 653.34 0.040316-5.0548q0.019142-2.3999-2.3808-2.4191l-7.7423-0.06175q-2.3999-0.019141-2.4191 2.3808l-0.040316 5.0548q-0.019141 2.3999 2.3808 2.4191l7.7423 0.06175q2.3999 0.019141 2.4191-2.3808z" clip-path="url(#a)" fill="#fff" stroke="#fff"/>
<g clip-path="url(#a)">
<g transform="translate(387.46 653.3) rotate(-89.543) scale(.08 -.08)">
<use xlink:href="#p"/>
</g>
</g>
<path d="m399.51 650.35 1.9608 5.2308q0.84242 2.2473 3.0897 1.4049l7.2499-2.7177q2.2473-0.84242 1.4049-3.0897l-1.9608-5.2308q-0.84242-2.2473-3.0897-1.4049l-7.2499 2.7177q-2.2473 0.84242-1.4049 3.0897z" clip-path="url(#a)" fill="#fff" stroke="#fff"/>
<g clip-path="url(#a)">
<g transform="translate(403.32 648.92) rotate(69.451) scale(.08 -.08)">
<use xlink:href="#s"/>
</g>
</g>
<path d="m339.01 743.3v33.808q0 2.4 2.4 2.4h7.7425q2.4 0 2.4-2.4v-33.808q0-2.4-2.4-2.4h-7.7425q-2.4 0-2.4 2.4z" clip-path="url(#a)" fill="#fff" stroke="#fff"/>
<g clip-path="url(#a)">
<g transform="translate(343.07 743.3) rotate(90) scale(.08 -.08)">
<use xlink:href="#l"/>
<use x="44.083984" xlink:href="#d"/>
<use x="105.607422" xlink:href="#f"/>
<use x="144.970703" xlink:href="#k"/>
<use x="242.382812" xlink:href="#g"/>
<use x="270.166016" xlink:href="#i"/>
<use x="333.544922" xlink:href="#h"/>
<use x="394.824219" xlink:href="#j"/>
</g>
</g>
<path d="m378.56 743.3v33.808q0 2.4 2.4 2.4h7.7425q2.4 0 2.4-2.4v-33.808q0-2.4-2.4-2.4h-7.7425q-2.4 0-2.4 2.4z" clip-path="url(#a)" fill="#fff" stroke="#fff"/>
<g clip-path="url(#a)">
<g transform="translate(382.63 743.3) rotate(90) scale(.08 -.08)">
<use xlink:href="#l"/>
<use x="44.083984" xlink:href="#d"/>
<use x="105.607422" xlink:href="#f"/>
<use x="144.970703" xlink:href="#k"/>
<use x="242.382812" xlink:href="#g"/>
<use x="270.166016" xlink:href="#i"/>
<use x="333.544922" xlink:href="#h"/>
<use x="394.824219" xlink:href="#j"/>
</g>
</g>
<path d="m420.75 743.3v33.808q0 2.4 2.4 2.4h7.7425q2.4 0 2.4-2.4v-33.808q0-2.4-2.4-2.4h-7.7425q-2.4 0-2.4 2.4z" clip-path="url(#a)" fill="#fff" stroke="#fff"/>
<g clip-path="url(#a)">
<g transform="translate(424.81 743.3) rotate(90) scale(.08 -.08)">
<use xlink:href="#l"/>
<use x="44.083984" xlink:href="#d"/>
<use x="105.607422" xlink:href="#f"/>
<use x="144.970703" xlink:href="#k"/>
<use x="242.382812" xlink:href="#g"/>
<use x="270.166016" xlink:href="#i"/>
<use x="333.544922" xlink:href="#h"/>
<use x="394.824219" xlink:href="#j"/>
</g>
</g>
<path d="m267.82 743.3v33.808q0 2.4 2.4 2.4h7.7425q2.4 0 2.4-2.4v-33.808q0-2.4-2.4-2.4h-7.7425q-2.4 0-2.4 2.4z" clip-path="url(#a)" fill="#fff" stroke="#fff"/>
<g clip-path="url(#a)">
<g transform="translate(271.88 743.3) rotate(90) scale(.08 -.08)">
<use xlink:href="#l"/>
<use x="44.083984" xlink:href="#d"/>
<use x="105.607422" xlink:href="#f"/>
<use x="144.970703" xlink:href="#k"/>
<use x="242.382812" xlink:href="#g"/>
<use x="270.166016" xlink:href="#i"/>
<use x="333.544922" xlink:href="#h"/>
<use x="394.824219" xlink:href="#j"/>
</g>
</g>
<path d="m302.1 743.3v33.808q0 2.4 2.4 2.4h7.7425q2.4 0 2.4-2.4v-33.808q0-2.4-2.4-2.4h-7.7425q-2.4 0-2.4 2.4z" clip-path="url(#a)" fill="#fff" stroke="#fff"/>
<g clip-path="url(#a)">
<g transform="translate(306.16 743.3) rotate(90) scale(.08 -.08)">
<use xlink:href="#l"/>
<use x="44.083984" xlink:href="#d"/>
<use x="105.607422" xlink:href="#f"/>
<use x="144.970703" xlink:href="#k"/>
<use x="242.382812" xlink:href="#g"/>
<use x="270.166016" xlink:href="#i"/>
<use x="333.544922" xlink:href="#h"/>
<use x="394.824219" xlink:href="#j"/>
</g>
</g>
<path d="m67.426 743.3v33.808q0 2.4 2.4 2.4h7.7425q2.4 0 2.4-2.4v-33.808q0-2.4-2.4-2.4h-7.7425q-2.4 0-2.4 2.4z" clip-path="url(#a)" fill="#fff" stroke="#fff"/>
<g clip-path="url(#a)">
<g transform="translate(71.489 743.3) rotate(90) scale(.08 -.08)">
<use xlink:href="#l"/>
<use x="44.083984" xlink:href="#d"/>
<use x="105.607422" xlink:href="#f"/>
<use x="144.970703" xlink:href="#k"/>
<use x="242.382812" xlink:href="#g"/>
<use x="270.166016" xlink:href="#i"/>
<use x="333.544922" xlink:href="#h"/>
<use x="394.824219" xlink:href="#j"/>
</g>
</g>
<path d="m75.336 743.3v33.808q0 2.4 2.4 2.4h7.7425q2.4 0 2.4-2.4v-33.808q0-2.4-2.4-2.4h-7.7425q-2.4 0-2.4 2.4z" clip-path="url(#a)" fill="#fff" stroke="#fff"/>
<g clip-path="url(#a)">
<g transform="translate(79.4 743.3) rotate(90) scale(.08 -.08)">
<use xlink:href="#l"/>
<use x="44.083984" xlink:href="#d"/>
<use x="105.607422" xlink:href="#f"/>
<use x="144.970703" xlink:href="#k"/>
<use x="242.382812" xlink:href="#g"/>
<use x="270.166016" xlink:href="#i"/>
<use x="333.544922" xlink:href="#h"/>
<use x="394.824219" xlink:href="#j"/>
</g>
</g>
<path d="m85.883 743.3v33.808q0 2.4 2.4 2.4h7.7425q2.4 0 2.4-2.4v-33.808q0-2.4-2.4-2.4h-7.7425q-2.4 0-2.4 2.4z" clip-path="url(#a)" fill="#fff" stroke="#fff"/>
<g clip-path="url(#a)">
<g transform="translate(89.947 743.3) rotate(90) scale(.08 -.08)">
<use xlink:href="#l"/>
<use x="44.083984" xlink:href="#d"/>
<use x="105.607422" xlink:href="#f"/>
<use x="144.970703" xlink:href="#k"/>
<use x="242.382812" xlink:href="#g"/>
<use x="270.166016" xlink:href="#i"/>
<use x="333.544922" xlink:href="#h"/>
<use x="394.824219" xlink:href="#j"/>
</g>
</g>
<path d="m106.98 537.86v4.8238q0 2.4 2.4 2.4h7.7425q2.4 0 2.4-2.4v-4.8238q0-2.4-2.4-2.4h-7.7425q-2.4 0-2.4 2.4z" clip-path="url(#a)" fill="#fff" stroke="#fff"/>
<g clip-path="url(#a)">
<g transform="translate(111.04 537.86) rotate(90) scale(.08 -.08)">
<use xlink:href="#ab"/>
</g>
</g>
<path d="m115.38 653.5 0.32944-4.5894q0.17183-2.3938-2.222-2.5657l-7.7226-0.55434q-2.3938-0.17183-2.5657 2.222l-0.32944 4.5894q-0.17183 2.3938 2.222 2.5657l7.7226 0.55434q2.3938 0.17183 2.5657-2.222z" clip-path="url(#a)" fill="#fff" stroke="#fff"/>
<g clip-path="url(#a)">
<g transform="translate(111.33 653.21) rotate(-85.894) scale(.08 -.08)">
<use xlink:href="#am"/>
</g>
</g>
<path d="m110.75 648.42 0.39996 5.5719q0.17183 2.3938 2.5657 2.222l7.7226-0.55434q2.3938-0.17183 2.222-2.5657l-0.39996-5.5719q-0.17183-2.3938-2.5657-2.222l-7.7226 0.55434q-2.3938 0.17183-2.222 2.5657z" clip-path="url(#a)" fill="#fff" stroke="#fff"/>
<g clip-path="url(#a)">
<g transform="translate(114.8 648.13) rotate(85.894) scale(.08 -.08)">
<use xlink:href="#s"/>
</g>
</g>
<path d="m99.067 743.3v33.808q0 2.4 2.4 2.4h7.7425q2.4 0 2.4-2.4v-33.808q0-2.4-2.4-2.4h-7.7425q-2.4 0-2.4 2.4z" clip-path="url(#a)" fill="#fff" stroke="#fff"/>
<g clip-path="url(#a)">
<g transform="translate(103.13 743.3) rotate(90) scale(.08 -.08)">
<use xlink:href="#l"/>
<use x="44.083984" xlink:href="#d"/>
<use x="105.607422" xlink:href="#f"/>
<use x="144.970703" xlink:href="#k"/>
<use x="242.382812" xlink:href="#g"/>
<use x="270.166016" xlink:href="#i"/>
<use x="333.544922" xlink:href="#h"/>
<use x="394.824219" xlink:href="#j"/>
</g>
</g>
<path d="m114.89 743.3v33.808q0 2.4 2.4 2.4h7.7425q2.4 0 2.4-2.4v-33.808q0-2.4-2.4-2.4h-7.7425q-2.4 0-2.4 2.4z" clip-path="url(#a)" fill="#fff" stroke="#fff"/>
<g clip-path="url(#a)">
<g transform="translate(118.95 743.3) rotate(90) scale(.08 -.08)">
<use xlink:href="#l"/>
<use x="44.083984" xlink:href="#d"/>
<use x="105.607422" xlink:href="#f"/>
<use x="144.970703" xlink:href="#k"/>
<use x="242.382812" xlink:href="#g"/>
<use x="270.166016" xlink:href="#i"/>
<use x="333.544922" xlink:href="#h"/>
<use x="394.824219" xlink:href="#j"/>
</g>
</g>
<path d="m319.68 435.66 4.8409-8.7687q1.1599-2.1011-0.94114-3.261l-6.7782-3.742q-2.1011-1.1599-3.261 0.94114l-4.8409 8.7687q-1.1599 2.1011 0.94114 3.261l6.7782 3.742q2.1011 1.1599 3.261-0.94114z" clip-path="url(#a)" fill="#fff" stroke="#fff"/>
<g clip-path="url(#a)">
<g transform="translate(316.12 433.7) rotate(-61.098) scale(.08 -.08)">
<use xlink:href="#t"/>
<use x="55.712891" xlink:href="#aa"/>
</g>
</g>
<path d="m369.61 325.35 5.3023-8.608q1.2587-2.0434-0.78475-3.3021l-6.5923-4.0606q-2.0434-1.2587-3.3021 0.78475l-5.3023 8.608q-1.2587 2.0434 0.78475 3.3021l6.5923 4.0606q2.0434 1.2587 3.3021-0.78475z" clip-path="url(#a)" fill="#fff" stroke="#fff"/>
<g clip-path="url(#a)">
<g transform="translate(366.15 323.22) rotate(-58.368) scale(.08 -.08)">
<use xlink:href="#t"/>
<use x="57.962891" xlink:href="#q"/>
</g>
</g>
<path d="m719.8 211.52 9.8782 2.1526q2.345 0.511 2.856-1.834l1.6485-7.565q0.511-2.345-1.834-2.856l-9.8782-2.1526q-2.345-0.511-2.856 1.834l-1.6485 7.565q-0.511 2.345 1.834 2.856z" clip-path="url(#a)" fill="#fff" stroke="#fff"/>
<g clip-path="url(#a)">
<g transform="translate(720.66 207.54) rotate(12.293) scale(.08 -.08)">
<use xlink:href="#t"/>
<use x="57.962891" xlink:href="#q"/>
</g>
</g>
<path d="m247.04 270.22 8.248-5.8466q1.958-1.3879 0.57005-3.3459l-4.4775-6.3165q-1.3879-1.958-3.3459-0.57005l-8.248 5.8466q-1.958 1.3879-0.57005 3.3459l4.4775 6.3165q1.3879 1.958 3.3459 0.57005z" clip-path="url(#a)" fill="#fff" stroke="#fff"/>
<g clip-path="url(#a)">
<g transform="translate(244.69 266.91) rotate(-35.331) scale(.08 -.08)">
<use xlink:href="#t"/>
<use x="57.962891" xlink:href="#q"/>
</g>
</g>
<path d="m277.1 435.46 4.2831-9.0543q1.0263-2.1695-1.1432-3.1958l-6.9989-3.3108q-2.1695-1.0263-3.1958 1.1432l-4.2831 9.0543q-1.0263 2.1695 1.1432 3.1958l6.9989 3.3108q2.1695 1.0263 3.1958-1.1432z" clip-path="url(#a)" fill="#fff" stroke="#fff"/>
<g clip-path="url(#a)">
<g transform="translate(273.43 433.72) rotate(-64.683) scale(.08 -.08)">
<use xlink:href="#t"/>
<use x="55.712891" xlink:href="#aa"/>
</g>
</g>
<path d="m687.43 211.66 9.9261 1.9196q2.3563 0.4557 2.812-1.9006l1.4701-7.6017q0.4557-2.3563-1.9006-2.812l-9.9261-1.9196q-2.3563-0.4557-2.812 1.9006l-1.4701 7.6017q-0.4557 2.3563 1.9006 2.812z" clip-path="url(#a)" fill="#fff" stroke="#fff"/>
<g clip-path="url(#a)">
<g transform="translate(688.21 207.67) rotate(10.945) scale(.08 -.08)">
<use xlink:href="#t"/>
<use x="57.962891" xlink:href="#q"/>
</g>
</g>
<path d="m465.57 743.3v33.808q0 2.4 2.4 2.4h7.7425q2.4 0 2.4-2.4v-33.808q0-2.4-2.4-2.4h-7.7425q-2.4 0-2.4 2.4z" clip-path="url(#a)" fill="#fff" stroke="#fff"/>
<g clip-path="url(#a)">
<g transform="translate(469.64 743.3) rotate(90) scale(.08 -.08)">
<use xlink:href="#l"/>
<use x="44.083984" xlink:href="#d"/>
<use x="105.607422" xlink:href="#f"/>
<use x="144.970703" xlink:href="#k"/>
<use x="242.382812" xlink:href="#g"/>
<use x="270.166016" xlink:href="#i"/>
<use x="333.544922" xlink:href="#h"/>
<use x="394.824219" xlink:href="#j"/>
</g>
</g>
<path d="m1541.4 743.3v33.808q0 2.4 2.4 2.4h7.7425q2.4 0 2.4-2.4v-33.808q0-2.4-2.4-2.4h-7.7425q-2.4 0-2.4 2.4z" clip-path="url(#a)" fill="#fff" stroke="#fff"/>
<g clip-path="url(#a)">
<g transform="translate(1545.4 743.3) rotate(90) scale(.08 -.08)">
<use xlink:href="#l"/>
<use x="44.083984" xlink:href="#d"/>
<use x="105.607422" xlink:href="#f"/>
<use x="144.970703" xlink:href="#k"/>
<use x="242.382812" xlink:href="#g"/>
<use x="270.166016" xlink:href="#i"/>
<use x="333.544922" xlink:href="#h"/>
<use x="394.824219" xlink:href="#j"/>
</g>
</g>
<defs>
<path id="b" d="m0 8.6603c2.2967 0 4.4997-0.9125 6.1237-2.5365 1.624-1.624 2.5365-3.827 2.5365-6.1237s-0.9125-4.4997-2.5365-6.1237c-1.624-1.624-3.827-2.5365-6.1237-2.5365s-4.4997 0.9125-6.1237 2.5365c-1.624 1.624-2.5365 3.827-2.5365 6.1237s0.9125 4.4997 2.5365 6.1237c1.624 1.624 3.827 2.5365 6.1237 2.5365z"/>
</defs>
<g clip-path="url(#a)">
<use x="73.69697" y="814.545455" fill="#ffffff" stroke="#ffffff" xlink:href="#b"/>
<use x="81.607199" y="814.545455" fill="#ffffff" stroke="#ffffff" xlink:href="#b"/>
<use x="92.154171" y="814.545455" fill="#ffffff" stroke="#ffffff" xlink:href="#b"/>
<use x="105.337887" y="814.545455" fill="#ffffff" stroke="#ffffff" xlink:href="#b"/>
<use x="121.158346" y="814.545455" fill="#ffffff" stroke="#ffffff" xlink:href="#b"/>
<use x="142.25229" y="814.545455" fill="#ffffff" stroke="#ffffff" xlink:href="#b"/>
<use x="163.346235" y="814.545455" fill="#ffffff" stroke="#ffffff" xlink:href="#b"/>
<use x="187.076923" y="814.545455" fill="#ffffff" stroke="#ffffff" xlink:href="#b"/>
<use x="213.444354" y="814.545455" fill="#ffffff" stroke="#ffffff" xlink:href="#b"/>
<use x="242.448528" y="814.545455" fill="#ffffff" stroke="#ffffff" xlink:href="#b"/>
<use x="274.089445" y="814.545455" fill="#ffffff" stroke="#ffffff" xlink:href="#b"/>
<use x="308.367106" y="814.545455" fill="#ffffff" stroke="#ffffff" xlink:href="#b"/>
<use x="345.281509" y="814.545455" fill="#ffffff" stroke="#ffffff" xlink:href="#b"/>
<use x="384.832656" y="814.545455" fill="#ffffff" stroke="#ffffff" xlink:href="#b"/>
<use x="427.020545" y="814.545455" fill="#ffffff" stroke="#ffffff" xlink:href="#b"/>
<use x="471.845178" y="814.545455" fill="#ffffff" stroke="#ffffff" xlink:href="#b"/>
<use x="519.306554" y="814.545455" fill="#ffffff" stroke="#ffffff" xlink:href="#b"/>
<use x="569.404673" y="814.545455" fill="#ffffff" stroke="#ffffff" xlink:href="#b"/>
<use x="622.139535" y="814.545455" fill="#ffffff" stroke="#ffffff" xlink:href="#b"/>
<use x="677.51114" y="814.545455" fill="#ffffff" stroke="#ffffff" xlink:href="#b"/>
<use x="735.519488" y="814.545455" fill="#ffffff" stroke="#ffffff" xlink:href="#b"/>
<use x="796.16458" y="814.545455" fill="#ffffff" stroke="#ffffff" xlink:href="#b"/>
<use x="859.446414" y="814.545455" fill="#ffffff" stroke="#ffffff" xlink:href="#b"/>
<use x="925.364992" y="814.545455" fill="#ffffff" stroke="#ffffff" xlink:href="#b"/>
<use x="993.920312" y="814.545455" fill="#ffffff" stroke="#ffffff" xlink:href="#b"/>
<use x="1065.112376" y="814.545455" fill="#ffffff" stroke="#ffffff" xlink:href="#b"/>
<use x="1138.941183" y="814.545455" fill="#ffffff" stroke="#ffffff" xlink:href="#b"/>
<use x="1215.406733" y="814.545455" fill="#ffffff" stroke="#ffffff" xlink:href="#b"/>
<use x="1294.509026" y="814.545455" fill="#ffffff" stroke="#ffffff" xlink:href="#b"/>
<use x="1376.248062" y="814.545455" fill="#ffffff" stroke="#ffffff" xlink:href="#b"/>
<use x="1460.623841" y="814.545455" fill="#ffffff" stroke="#ffffff" xlink:href="#b"/>
<use x="1547.636364" y="814.545455" fill="#ffffff" stroke="#ffffff" xlink:href="#b"/>
<use x="123.795089" y="484.883012" fill="#ffffff" stroke="#ffffff" xlink:href="#b"/>
<use x="352.312824" y="38.787879" fill="#ffffff" stroke="#ffffff" xlink:href="#b"/>
<use x="352.312824" y="150.634602" fill="#ffffff" stroke="#ffffff" xlink:href="#b"/>
<use x="90.176614" y="373.729204" fill="#ffffff" stroke="#ffffff" xlink:href="#b"/>
<use x="142.25229" y="705.858604" fill="#ffffff" stroke="#ffffff" xlink:href="#b"/>
<use x="163.346235" y="705.858604" fill="#ffffff" stroke="#ffffff" xlink:href="#b"/>
<use x="263.98193" y="484.883012" fill="#ffffff" stroke="#ffffff" xlink:href="#b"/>
<use x="982.274697" y="262.294202" fill="#ffffff" stroke="#ffffff" xlink:href="#b"/>
<use x="623.677635" y="373.729204" fill="#ffffff" stroke="#ffffff" xlink:href="#b"/>
<use x="1065.112376" y="705.858604" fill="#ffffff" stroke="#ffffff" xlink:href="#b"/>
<use x="1258.03408" y="484.883012" fill="#ffffff" stroke="#ffffff" xlink:href="#b"/>
<use x="1138.941183" y="705.858604" fill="#ffffff" stroke="#ffffff" xlink:href="#b"/>
<use x="1215.406733" y="705.858604" fill="#ffffff" stroke="#ffffff" xlink:href="#b"/>
<use x="1419.754323" y="595.659799" fill="#ffffff" stroke="#ffffff" xlink:href="#b"/>
<use x="1294.509026" y="705.858604" fill="#ffffff" stroke="#ffffff" xlink:href="#b"/>
<use x="1376.248062" y="705.858604" fill="#ffffff" stroke="#ffffff" xlink:href="#b"/>
<use x="1460.623841" y="705.858604" fill="#ffffff" stroke="#ffffff" xlink:href="#b"/>
<use x="519.306554" y="705.858604" fill="#ffffff" stroke="#ffffff" xlink:href="#b"/>
<use x="569.404673" y="705.858604" fill="#ffffff" stroke="#ffffff" xlink:href="#b"/>
<use x="622.139535" y="705.858604" fill="#ffffff" stroke="#ffffff" xlink:href="#b"/>
<use x="783.859778" y="484.883012" fill="#ffffff" stroke="#ffffff" xlink:href="#b"/>
<use x="677.51114" y="705.858604" fill="#ffffff" stroke="#ffffff" xlink:href="#b"/>
<use x="735.519488" y="705.858604" fill="#ffffff" stroke="#ffffff" xlink:href="#b"/>
<use x="796.16458" y="705.858604" fill="#ffffff" stroke="#ffffff" xlink:href="#b"/>
<use x="926.243906" y="595.659799" fill="#ffffff" stroke="#ffffff" xlink:href="#b"/>
<use x="859.446414" y="705.858604" fill="#ffffff" stroke="#ffffff" xlink:href="#b"/>
<use x="925.364992" y="705.858604" fill="#ffffff" stroke="#ffffff" xlink:href="#b"/>
<use x="993.920312" y="705.858604" fill="#ffffff" stroke="#ffffff" xlink:href="#b"/>
<use x="187.076923" y="705.858604" fill="#ffffff" stroke="#ffffff" xlink:href="#b"/>
<use x="213.444354" y="705.858604" fill="#ffffff" stroke="#ffffff" xlink:href="#b"/>
<use x="242.448528" y="705.858604" fill="#ffffff" stroke="#ffffff" xlink:href="#b"/>
<use x="291.228276" y="595.659799" fill="#ffffff" stroke="#ffffff" xlink:href="#b"/>
<use x="385.71157" y="595.659799" fill="#ffffff" stroke="#ffffff" xlink:href="#b"/>
<use x="345.281509" y="705.858604" fill="#ffffff" stroke="#ffffff" xlink:href="#b"/>
<use x="384.832656" y="705.858604" fill="#ffffff" stroke="#ffffff" xlink:href="#b"/>
<use x="427.020545" y="705.858604" fill="#ffffff" stroke="#ffffff" xlink:href="#b"/>
<use x="274.089445" y="705.858604" fill="#ffffff" stroke="#ffffff" xlink:href="#b"/>
<use x="308.367106" y="705.858604" fill="#ffffff" stroke="#ffffff" xlink:href="#b"/>
<use x="73.69697" y="705.858604" fill="#ffffff" stroke="#ffffff" xlink:href="#b"/>
<use x="81.607199" y="705.858604" fill="#ffffff" stroke="#ffffff" xlink:href="#b"/>
<use x="92.154171" y="705.858604" fill="#ffffff" stroke="#ffffff" xlink:href="#b"/>
<use x="113.248116" y="484.883012" fill="#ffffff" stroke="#ffffff" xlink:href="#b"/>
<use x="113.248116" y="595.659799" fill="#ffffff" stroke="#ffffff" xlink:href="#b"/>
<use x="105.337887" y="705.858604" fill="#ffffff" stroke="#ffffff" xlink:href="#b"/>
<use x="121.158346" y="705.858604" fill="#ffffff" stroke="#ffffff" xlink:href="#b"/>
<use x="469.867621" y="150.634602" fill="#808080" stroke="#808080" xlink:href="#b"/>
<use x="404.9012" y="150.634602" fill="#808080" stroke="#808080" xlink:href="#b"/>
<use x="471.845178" y="705.858604" fill="#ffffff" stroke="#ffffff" xlink:href="#b"/>
<use x="1547.636364" y="705.858604" fill="#ffffff" stroke="#ffffff" xlink:href="#b"/>
</g>
<g clip-path="url(#a)">
<g transform="translate(67.129 817.3) scale(.1 -.1)">
<use xlink:href="#s"/>
<use x="69.824219" xlink:href="#d"/>
</g>
</g>
<g clip-path="url(#a)">
<defs>
<path id="aj" d="m14.797 27.297q0-9.9062 4.0781-15.547t11.203-5.6406 11.219 5.6406q4.1094 5.6406 4.1094 15.547t-4.1094 15.547q-4.0938 5.6406-11.219 5.6406t-11.203-5.6406-4.0781-15.547zm30.609-19.094q-2.8281-4.875-7.1562-7.25-4.3125-2.375-10.375-2.375-9.9062 0-16.141 7.9062-6.2188 7.9219-6.2188 20.812t6.2188 20.797q6.2344 7.9062 16.141 7.9062 6.0625 0 10.375-2.375 4.3281-2.3594 7.1562-7.2344v8.2969h8.9844v-75.484h-8.9844z"/>
<path id="r" d="m8.5 21.578v33.109h8.9844v-32.766q0-7.7656 3.0156-11.656 3.0312-3.875 9.0938-3.875 7.2656 0 11.484 4.6406 4.2344 4.6406 4.2344 12.656v31h8.9844v-54.688h-8.9844v8.4062q-3.2656-4.9844-7.5938-7.4062-4.3125-2.4219-10.031-2.4219-9.4219 0-14.312 5.8594-4.875 5.8594-4.875 17.141z"/>
</defs>
<g transform="translate(73.875 817.3) scale(.1 -.1)">
<use xlink:href="#aj"/>
<use x="63.476562" xlink:href="#r"/>
<use x="126.855469" xlink:href="#g"/>
</g>
</g>
<g clip-path="url(#a)">
<defs>
<path id="an" d="m56.203 29.594v-4.3906h-41.312q0.59375-9.2812 5.5938-14.141t13.938-4.8594q5.1719 0 10.031 1.2656t9.6562 3.8125v-8.5q-4.8438-2.0469-9.9219-3.125t-10.297-1.0781q-13.094 0-20.734 7.6094-7.6406 7.625-7.6406 20.625 0 13.422 7.25 21.297 7.25 7.8906 19.562 7.8906 11.031 0 17.453-7.1094 6.4219-7.0938 6.4219-19.297zm-8.9844 2.6406q-0.09375 7.3594-4.125 11.75-4.0312 4.4062-10.672 4.4062-7.5156 0-12.031-4.25t-5.2031-11.969zm-8.6875 47.75h9.7188l-15.906-18.359h-7.4844z"/>
<path id="ai" d="m2.9844 54.688h9.5156l17.094-45.891 17.094 45.891h9.5156l-20.516-54.688h-12.203z"/>
<path id="u" d="m18.312 70.219v-15.531h18.5v-6.9844h-18.5v-29.688q0-6.6875 1.8281-8.5938t7.4531-1.9062h9.2188v-7.5156h-9.2188q-10.406 0-14.359 3.875-3.9531 3.8906-3.9531 14.141v29.688h-6.5938v6.9844h6.5938v15.531z"/>
</defs>
<g transform="translate(70.193 817.5) scale(.1 -.1)">
<use xlink:href="#an"/>
<use x="61.523438" xlink:href="#aj"/>
<use x="125" xlink:href="#r"/>
<use x="188.378906" xlink:href="#g"/>
<use x="216.162109" xlink:href="#ai"/>
<use x="275.341797" xlink:href="#h"/>
<use x="336.621094" xlink:href="#r"/>
<use x="400" xlink:href="#u"/>
</g>
</g>
<g clip-path="url(#a)">
<defs>
<path id="ax" d="m34.281 27.484q-10.891 0-15.094-2.4844t-4.2031-8.5q0-4.7812 3.1562-7.5938 3.1562-2.7969 8.5625-2.7969 7.4844 0 12 5.2969t4.5156 14.078v2zm17.922 3.7188v-31.203h-8.9844v8.2969q-3.0781-4.9688-7.6719-7.3438t-11.234-2.375q-8.3906 0-13.359 4.7188-4.9531 4.7188-4.9531 12.625 0 9.2188 6.1719 13.906 6.1875 4.6875 18.438 4.6875h12.609v0.89062q0 6.2031-4.0781 9.5938t-11.453 3.3906q-4.6875 0-9.1406-1.125-4.4375-1.125-8.5312-3.375v8.3125q4.9219 1.9062 9.5625 2.8438 4.6406 0.95312 9.0312 0.95312 11.875 0 17.734-6.1562 5.8594-6.1406 5.8594-18.641zm-30.281 48.781 13.766-18.266h-7.4688l-15.922 18.266z"/>
</defs>
<g transform="translate(102.27 817.3) scale(.1 -.1)">
<use xlink:href="#ax"/>
</g>
</g>
<g clip-path="url(#a)">
<defs>
<path id="z" d="m45.406 46.391v29.594h8.9844v-75.984h-8.9844v8.2031q-2.8281-4.875-7.1562-7.25-4.3125-2.375-10.375-2.375-9.9062 0-16.141 7.9062-6.2188 7.9219-6.2188 20.812t6.2188 20.797q6.2344 7.9062 16.141 7.9062 6.0625 0 10.375-2.375 4.3281-2.3594 7.1562-7.2344zm-30.609-19.094q0-9.9062 4.0781-15.547t11.203-5.6406 11.219 5.6406q4.1094 5.6406 4.1094 15.547t-4.1094 15.547q-4.0938 5.6406-11.219 5.6406t-11.203-5.6406-4.0781-15.547z"/>
</defs>
<g transform="translate(111.58 817.3) scale(.1 -.1)">
<use xlink:href="#z"/>
<use x="63.476562" xlink:href="#g"/>
<use x="91.259766" xlink:href="#f"/>
<use x="130.123047" xlink:href="#d"/>
</g>
</g>
<g clip-path="url(#a)">
<g transform="translate(132.83 817.3) scale(.1 -.1)">
<use xlink:href="#aj"/>
<use x="63.476562" xlink:href="#r"/>
<use x="126.855469" xlink:href="#d"/>
</g>
</g>
<g clip-path="url(#a)">
<defs>
<path id="v" d="m44.281 53.078v-8.5q-3.7969 1.9531-7.9062 2.9219-4.0938 0.98438-8.5 0.98438-6.6875 0-10.031-2.0469t-3.3438-6.1562q0-3.125 2.3906-4.9062t9.625-3.3906l3.0781-0.6875q9.5625-2.0469 13.594-5.7812t4.0312-10.422q0-7.625-6.0312-12.078-6.0312-4.4375-16.578-4.4375-4.3906 0-9.1562 0.85938t-10.031 2.5625v9.2812q4.9844-2.5938 9.8125-3.8906 4.8281-1.2812 9.5781-1.2812 6.3438 0 9.75 2.1719 3.4219 2.1719 3.4219 6.125 0 3.6562-2.4688 5.6094-2.4531 1.9531-10.812 3.7656l-3.125 0.73438q-8.3438 1.75-12.062 5.3906-3.7031 3.6406-3.7031 9.9844 0 7.7188 5.4688 11.906 5.4688 4.2031 15.531 4.2031 4.9688 0 9.3594-0.73438 4.4062-0.71875 8.1094-2.1875z"/>
</defs>
<g transform="translate(159.35 817.3) scale(.1 -.1)">
<use xlink:href="#v"/>
<use x="52.099609" xlink:href="#g"/>
</g>
</g>
<g clip-path="url(#a)">
<defs>
<path id="w" d="m30.609 48.391q-7.2188 0-11.422-5.6406t-4.2031-15.453 4.1719-15.453q4.1875-5.6406 11.453-5.6406 7.1875 0 11.375 5.6562 4.2031 5.6719 4.2031 15.438 0 9.7188-4.2031 15.406-4.1875 5.6875-11.375 5.6875zm0 7.6094q11.719 0 18.406-7.625 6.7031-7.6094 6.7031-21.078 0-13.422-6.7031-21.078-6.6875-7.6406-18.406-7.6406-11.766 0-18.438 7.6406-6.6562 7.6562-6.6562 21.078 0 13.469 6.6562 21.078 6.6719 7.625 18.438 7.625z"/>
</defs>
<g transform="translate(175.28 817.3) scale(.1 -.1)">
<use xlink:href="#ai"/>
<use x="59.179688" xlink:href="#w"/>
<use x="120.361328" xlink:href="#r"/>
<use x="183.740234" xlink:href="#v"/>
</g>
</g>
<g clip-path="url(#a)">
<defs>
<path id="ak" d="m18.109 8.2031v-29h-9.0312v75.484h9.0312v-8.2969q2.8438 4.875 7.1562 7.2344 4.3281 2.375 10.328 2.375 9.9688 0 16.188-7.9062 6.2344-7.9062 6.2344-20.797t-6.2344-20.812q-6.2188-7.9062-16.188-7.9062-6 0-10.328 2.375-4.3125 2.375-7.1562 7.25zm30.578 19.094q0 9.9062-4.0781 15.547t-11.203 5.6406q-7.1406 0-11.219-5.6406t-4.0781-15.547 4.0781-15.547 11.219-5.6406q7.125 0 11.203 5.6406t4.0781 15.547z"/>
<path id="ay" d="m5.5156 54.688h42.672v-8.2031l-33.781-39.312h33.781v-7.1719h-43.891v8.2031l33.797 39.312h-32.578z"/>
</defs>
<g transform="translate(193.99 817.3) scale(.1 -.1)">
<use xlink:href="#ak"/>
<use x="63.476562" xlink:href="#w"/>
<use x="124.658203" xlink:href="#r"/>
<use x="188.037109" xlink:href="#ai"/>
<use x="247.216797" xlink:href="#g"/>
<use x="275" xlink:href="#d"/>
<use x="336.523438" xlink:href="#ay"/>
</g>
</g>
<g clip-path="url(#a)">
<g transform="translate(219.64 817.3) scale(.1 -.1)">
<use xlink:href="#h"/>
<use x="61.279297" xlink:href="#u"/>
<use x="100.488281" xlink:href="#u"/>
<use x="139.697266" xlink:href="#d"/>
<use x="201.220703" xlink:href="#g"/>
<use x="229.003906" xlink:href="#i"/>
<use x="292.382812" xlink:href="#z"/>
<use x="355.859375" xlink:href="#f"/>
<use x="394.722656" xlink:href="#d"/>
</g>
</g>
<g clip-path="url(#a)">
<defs>
<path id="x" d="m48.781 52.594v-8.4062q-3.8125 2.1094-7.6406 3.1562t-7.7344 1.0469q-8.75 0-13.594-5.5469-4.8281-5.5312-4.8281-15.547t4.8281-15.562q4.8438-5.5312 13.594-5.5312 3.9062 0 7.7344 1.0469t7.6406 3.1562v-8.3125q-3.7656-1.75-7.7969-2.625-4.0156-0.89062-8.5625-0.89062-12.359 0-19.641 7.7656-7.2656 7.7656-7.2656 20.953 0 13.375 7.3438 21.031 7.3594 7.6719 20.156 7.6719 4.1406 0 8.0938-0.85938 3.9531-0.84375 7.6719-2.5469z"/>
</defs>
<g transform="translate(261.27 817.3) scale(.1 -.1)">
<use xlink:href="#x"/>
<use x="54.980469" xlink:href="#d"/>
<use x="116.503906" xlink:href="#u"/>
<use x="155.712891" xlink:href="#u"/>
<use x="194.921875" xlink:href="#d"/>
</g>
</g>
<g clip-path="url(#a)">
<defs>
<path id="ap" d="m37.109 75.984v-7.4844h-8.5938q-4.8281 0-6.7188-1.9531-1.875-1.9531-1.875-7.0312v-4.8281h14.797v-6.9844h-14.797v-47.703h-9.0312v47.703h-8.5938v6.9844h8.5938v3.8125q0 9.125 4.25 13.297 4.25 4.1875 13.469 4.1875z"/>
</defs>
<g transform="translate(280.73 817.3) scale(.1 -.1)">
<use xlink:href="#ak"/>
<use x="63.476562" xlink:href="#f"/>
<use x="102.339844" xlink:href="#w"/>
<use x="163.521484" xlink:href="#ap"/>
<use x="198.726562" xlink:href="#w"/>
<use x="259.908203" xlink:href="#i"/>
<use x="323.287109" xlink:href="#z"/>
<use x="386.763672" xlink:href="#d"/>
<use x="448.287109" xlink:href="#r"/>
<use x="511.666016" xlink:href="#f"/>
</g>
</g>
<g clip-path="url(#a)">
<g transform="translate(333.27 817.3) scale(.1 -.1)">
<use xlink:href="#z"/>
<use x="63.476562" xlink:href="#h"/>
<use x="124.755859" xlink:href="#i"/>
<use x="188.134766" xlink:href="#v"/>
</g>
</g>
<g clip-path="url(#a)">
<defs>
<path id="av" d="m17.922 72.906v-27.109h-8.2969v27.109z"/>
</defs>
<g transform="translate(382.07 817.3) scale(.1 -.1)">
<use xlink:href="#j"/>
<use x="27.783203" xlink:href="#av"/>
</g>
</g>
<g clip-path="url(#a)">
<defs>
<path id="ar" d="m39.406 66.219q-10.75 0-17.078-8.0156-6.3125-8-6.3125-21.828 0-13.766 6.3125-21.781 6.3281-8 17.078-8 10.734 0 17.016 8 6.2812 8.0156 6.2812 21.781 0 13.828-6.2812 21.828-6.2812 8.0156-17.016 8.0156zm0 8q15.328 0 24.5-10.281 9.1875-10.281 9.1875-27.562 0-17.234-9.1875-27.516-9.1719-10.281-24.5-10.281-15.375 0-24.594 10.25-9.2031 10.266-9.2031 27.547t9.2031 27.562q9.2188 10.281 24.594 10.281z"/>
</defs>
<g transform="translate(411.03 817.3) scale(.1 -.1)">
<use xlink:href="#ar"/>
<use x="78.710938" xlink:href="#x"/>
<use x="133.691406" xlink:href="#an"/>
<use x="195.214844" xlink:href="#h"/>
<use x="256.494141" xlink:href="#i"/>
</g>
</g>
<g clip-path="url(#a)">
<defs>
<path id="au" d="m11.719 12.406h10.297v-8.4062l-8-15.625h-6.2969l4 15.625z"/>
</defs>
<g transform="translate(470.26 817.3) scale(.1 -.1)">
<use xlink:href="#au"/>
</g>
</g>
<g clip-path="url(#a)">
<defs>
<path id="ba" d="m54.891 33.016v-33.016h-8.9844v32.719q0 7.7656-3.0312 11.609-3.0312 3.8594-9.0781 3.8594-7.2812 0-11.484-4.6406-4.2031-4.625-4.2031-12.641v-30.906h-9.0312v75.984h9.0312v-29.797q3.2344 4.9375 7.5938 7.375 4.375 2.4375 10.094 2.4375 9.4219 0 14.25-5.8281 4.8438-5.8281 4.8438-17.156z"/>
</defs>
<g transform="translate(500.9 817.3) scale(.1 -.1)">
<use xlink:href="#x"/>
<use x="54.980469" xlink:href="#ba"/>
<use x="118.359375" xlink:href="#h"/>
<use x="179.638672" xlink:href="#aj"/>
<use x="243.115234" xlink:href="#r"/>
<use x="306.494141" xlink:href="#d"/>
</g>
</g>
<g clip-path="url(#a)">
<defs>
<path id="aw" d="m56.203 29.594v-4.3906h-41.312q0.59375-9.2812 5.5938-14.141t13.938-4.8594q5.1719 0 10.031 1.2656t9.6562 3.8125v-8.5q-4.8438-2.0469-9.9219-3.125t-10.297-1.0781q-13.094 0-20.734 7.6094-7.6406 7.625-7.6406 20.625 0 13.422 7.25 21.297 7.25 7.8906 19.562 7.8906 11.031 0 17.453-7.1094 6.4219-7.0938 6.4219-19.297zm-8.9844 2.6406q-0.09375 7.3594-4.125 11.75-4.0312 4.4062-10.672 4.4062-7.5156 0-12.031-4.25t-5.2031-11.969zm-22.547 47.75 13.766-18.266h-7.4688l-15.922 18.266z"/>
</defs>
<g transform="translate(542.13 817.3) scale(.1 -.1)">
<use xlink:href="#x"/>
<use x="54.980469" xlink:href="#d"/>
<use x="116.503906" xlink:href="#i"/>
<use x="179.882812" xlink:href="#u"/>
<use x="219.091797" xlink:href="#g"/>
<use x="246.875" xlink:href="#k"/>
<use x="344.287109" xlink:href="#aw"/>
<use x="405.810547" xlink:href="#u"/>
<use x="445.019531" xlink:href="#f"/>
<use x="483.882812" xlink:href="#d"/>
</g>
</g>
<g clip-path="url(#a)">
<g transform="translate(609.34 817.3) scale(.1 -.1)">
<use xlink:href="#x"/>
<use x="54.980469" xlink:href="#h"/>
<use x="116.259766" xlink:href="#f"/>
<use x="155.623047" xlink:href="#f"/>
<use x="194.486328" xlink:href="#an"/>
</g>
</g>
<g clip-path="url(#a)">
<g transform="translate(671.26 817.3) scale(.1 -.1)">
<use xlink:href="#z"/>
<use x="63.476562" xlink:href="#d"/>
</g>
</g>
<g clip-path="url(#a)">
<g transform="translate(731.07 817.3) scale(.1 -.1)">
<use xlink:href="#j"/>
<use x="27.783203" xlink:href="#h"/>
</g>
</g>
<g clip-path="url(#a)">
<g transform="translate(777.69 817.3) scale(.1 -.1)">
<use xlink:href="#v"/>
<use x="52.099609" xlink:href="#r"/>
<use x="115.478516" xlink:href="#f"/>
<use x="156.591797" xlink:href="#ap"/>
<use x="191.796875" xlink:href="#h"/>
<use x="253.076172" xlink:href="#x"/>
<use x="308.056641" xlink:href="#d"/>
</g>
</g>
<g clip-path="url(#a)">
<g transform="translate(853.2 817.3) scale(.1 -.1)">
<use xlink:href="#z"/>
<use x="63.476562" xlink:href="#d"/>
</g>
</g>
<g clip-path="url(#a)">
<g transform="translate(912.37 817.3) scale(.1 -.1)">
<use xlink:href="#ai"/>
<use x="59.179688" xlink:href="#w"/>
<use x="120.361328" xlink:href="#u"/>
<use x="159.570312" xlink:href="#f"/>
<use x="198.433594" xlink:href="#d"/>
</g>
</g>
<g clip-path="url(#a)">
<g transform="translate(980.28 817.3) scale(.1 -.1)">
<use xlink:href="#x"/>
<use x="54.980469" xlink:href="#w"/>
<use x="116.162109" xlink:href="#f"/>
<use x="157.275391" xlink:href="#ak"/>
<use x="220.751953" xlink:href="#v"/>
</g>
</g>
<g clip-path="url(#a)">
<defs>
<path id="aq" d="m48.688 27.297q0 9.9062-4.0781 15.547t-11.203 5.6406q-7.1406 0-11.219-5.6406t-4.0781-15.547 4.0781-15.547 11.219-5.6406q7.125 0 11.203 5.6406t4.0781 15.547zm-30.578 19.094q2.8438 4.875 7.1562 7.2344 4.3281 2.375 10.328 2.375 9.9688 0 16.188-7.9062 6.2344-7.9062 6.2344-20.797t-6.2344-20.812q-6.2188-7.9062-16.188-7.9062-6 0-10.328 2.375-4.3125 2.375-7.1562 7.25v-8.2031h-9.0312v75.984h9.0312z"/>
</defs>
<g transform="translate(1046.3 817.3) scale(.1 -.1)">
<use xlink:href="#v"/>
<use x="52.099609" xlink:href="#r"/>
<use x="115.478516" xlink:href="#aq"/>
<use x="178.955078" xlink:href="#g"/>
<use x="206.738281" xlink:href="#f"/>
<use x="247.851562" xlink:href="#h"/>
<use x="309.130859" xlink:href="#g"/>
<use x="336.914062" xlink:href="#u"/>
</g>
</g>
<g clip-path="url(#a)">
<g transform="translate(1129.5 817.3) scale(.1 -.1)">
<use xlink:href="#r"/>
<use x="63.378906" xlink:href="#i"/>
<use x="126.757812" xlink:href="#d"/>
</g>
</g>
<g clip-path="url(#a)">
<g transform="translate(1194.4 817.3) scale(.1 -.1)">
<use xlink:href="#ak"/>
<use x="63.476562" xlink:href="#f"/>
<use x="102.339844" xlink:href="#d"/>
<use x="163.863281" xlink:href="#v"/>
<use x="215.962891" xlink:href="#v"/>
<use x="268.0625" xlink:href="#g"/>
<use x="295.845703" xlink:href="#w"/>
<use x="357.027344" xlink:href="#i"/>
</g>
</g>
<g clip-path="url(#a)">
<g transform="translate(1288.3 817.3) scale(.1 -.1)">
<use xlink:href="#z"/>
<use x="63.476562" xlink:href="#d"/>
</g>
</g>
<g clip-path="url(#a)">
<g transform="translate(1364.1 817.3) scale(.1 -.1)">
<use xlink:href="#k"/>
<use x="97.412109" xlink:href="#g"/>
<use x="125.195312" xlink:href="#j"/>
<use x="152.978516" xlink:href="#j"/>
<use x="180.761719" xlink:href="#d"/>
</g>
</g>
<g clip-path="url(#a)">
<defs>
<path id="az" d="m9.0781 75.984h9.0312v-44.875l26.812 23.578h11.469l-29-25.578 30.234-29.109h-11.719l-27.797 26.703v-26.703h-9.0312z"/>
<path id="bb" d="m45.406 27.984q0 9.7656-4.0312 15.125-4.0156 5.375-11.297 5.375-7.2188 0-11.25-5.375-4.0312-5.3594-4.0312-15.125 0-9.7188 4.0312-15.094t11.25-5.375q7.2812 0 11.297 5.375 4.0312 5.375 4.0312 15.094zm8.9844-21.203q0-13.953-6.2031-20.766-6.1875-6.8125-18.984-6.8125-4.7344 0-8.9375 0.70312t-8.1562 2.1719v8.7344q3.9531-2.1406 7.8125-3.1562 3.8594-1.0312 7.8594-1.0312 8.8438 0 13.234 4.6094t4.3906 13.938v4.4531q-2.7812-4.8438-7.125-7.2344t-10.406-2.3906q-10.047 0-16.203 7.6562-6.1562 7.6719-6.1562 20.328 0 12.688 6.1562 20.344 6.1562 7.6719 16.203 7.6719 6.0625 0 10.406-2.3906t7.125-7.2188v8.2969h8.9844z"/>
</defs>
<g transform="translate(1428.2 817.3) scale(.1 -.1)">
<use xlink:href="#az"/>
<use x="57.910156" xlink:href="#g"/>
<use x="85.693359" xlink:href="#j"/>
<use x="113.476562" xlink:href="#w"/>
<use x="174.658203" xlink:href="#bb"/>
<use x="238.134766" xlink:href="#f"/>
<use x="279.248047" xlink:href="#h"/>
<use x="340.527344" xlink:href="#k"/>
<use x="437.939453" xlink:href="#k"/>
<use x="535.351562" xlink:href="#d"/>
<use x="596.875" xlink:href="#v"/>
</g>
</g>
<g clip-path="url(#a)">
<defs>
<path id="e" d="m10.688 12.406h10.312v-12.406h-10.312z"/>
</defs>
<g transform="translate(1546 817.3) scale(.1 -.1)">
<use xlink:href="#e"/>
</g>
</g>
<g clip-path="url(#a)">
<defs>
<path id="al" d="m9.8125 72.906h9.8594v-72.906h-9.8594z"/>
<path id="as" d="m9.8125 72.906h14.703l18.594-49.609 18.703 49.609h14.703v-72.906h-9.625v64.016l-18.797-50h-9.9062l-18.797 50v-64.016h-9.5781z"/>
</defs>
<g transform="translate(102.71 487.64) scale(.1 -.1)">
<use xlink:href="#al"/>
<use x="29.492188" xlink:href="#as"/>
<use x="115.771484" xlink:href="#ab"/>
<use x="176.074219" xlink:href="#t"/>
<use x="231.787109" xlink:href="#al"/>
<use x="261.279297" xlink:href="#s"/>
<use x="331.103516" xlink:href="#al"/>
<use x="360.595703" xlink:href="#l"/>
</g>
</g>
<g clip-path="url(#a)">
<defs>
<path id="c" d="m12.406 8.2969h16.109v55.625l-17.531-3.5156v8.9844l17.438 3.5156h9.8594v-64.609h16.109v-8.2969h-41.984z"/>
</defs>
<g transform="translate(344.36 41.547) scale(.1 -.1)">
<use xlink:href="#c"/>
<use x="63.623047" xlink:href="#e"/>
<use x="95.410156" xlink:href="#c"/>
</g>
</g>
<g clip-path="url(#a)">
<defs>
<path id="n" d="m19.188 8.2969h34.422v-8.2969h-46.281v8.2969q5.6094 5.8125 15.297 15.594 9.7031 9.7969 12.188 12.641 4.7344 5.3125 6.6094 9 1.8906 3.6875 1.8906 7.25 0 5.8125-4.0781 9.4688-4.0781 3.6719-10.625 3.6719-4.6406 0-9.7969-1.6094-5.1406-1.6094-11-4.8906v9.9688q5.9531 2.3906 11.125 3.6094 5.1875 1.2188 9.4844 1.2188 11.328 0 18.062-5.6719 6.7344-5.6562 6.7344-15.125 0-4.5-1.6875-8.5312-1.6719-4.0156-6.125-9.4844-1.2188-1.4219-7.7656-8.1875-6.5312-6.7656-18.453-18.922z"/>
</defs>
<g transform="translate(344.36 153.39) scale(.1 -.1)">
<use xlink:href="#c"/>
<use x="63.623047" xlink:href="#e"/>
<use x="95.410156" xlink:href="#n"/>
</g>
</g>
<g clip-path="url(#a)">
<defs>
<path id="m" d="m40.578 39.312q7.0781-1.5156 11.047-6.3125 3.9844-4.7812 3.9844-11.812 0-10.781-7.4219-16.703-7.4219-5.9062-21.094-5.9062-4.5781 0-9.4375 0.90625t-10.031 2.7188v9.5156q4.0938-2.3906 8.9688-3.6094 4.8906-1.2188 10.219-1.2188 9.2656 0 14.125 3.6562t4.8594 10.641q0 6.4531-4.5156 10.078-4.5156 3.6406-12.562 3.6406h-8.5v8.1094h8.8906q7.2656 0 11.125 2.9062t3.8594 8.375q0 5.6094-3.9844 8.6094-3.9688 3.0156-11.391 3.0156-4.0625 0-8.7031-0.89062-4.6406-0.875-10.203-2.7188v8.7812q5.625 1.5625 10.531 2.3438t9.25 0.78125q11.234 0 17.766-5.1094 6.5469-5.0938 6.5469-13.781 0-6.0625-3.4688-10.234t-9.8594-5.7812z"/>
</defs>
<g transform="translate(82.225 376.49) scale(.1 -.1)">
<use xlink:href="#c"/>
<use x="63.623047" xlink:href="#e"/>
<use x="95.410156" xlink:href="#m"/>
</g>
</g>
<g clip-path="url(#a)">
<defs>
<path id="o" d="m37.797 64.312-24.906-38.922h24.906zm-2.5938 8.5938h12.406v-47.516h10.406v-8.2031h-10.406v-17.188h-9.8125v17.188h-32.906v9.5156z"/>
</defs>
<g transform="translate(134.3 708.62) scale(.1 -.1)">
<use xlink:href="#c"/>
<use x="63.623047" xlink:href="#e"/>
<use x="95.410156" xlink:href="#o"/>
</g>
</g>
<g clip-path="url(#a)">
<defs>
<path id="y" d="m10.797 72.906h38.719v-8.3125h-29.688v-17.859q2.1406 0.73438 4.2812 1.0938 2.1562 0.35938 4.3125 0.35938 12.203 0 19.328-6.6875 7.1406-6.6875 7.1406-18.109 0-11.766-7.3281-18.297-7.3281-6.5156-20.656-6.5156-4.5938 0-9.3594 0.78125-4.75 0.78125-9.8281 2.3438v9.9219q4.3906-2.3906 9.0781-3.5625t9.9062-1.1719q8.4531 0 13.375 4.4375 4.9375 4.4375 4.9375 12.062 0 7.6094-4.9375 12.047-4.9219 4.4531-13.375 4.4531-3.9531 0-7.8906-0.875-3.9219-0.875-8.0156-2.7344z"/>
</defs>
<g transform="translate(155.39 708.62) scale(.1 -.1)">
<use xlink:href="#c"/>
<use x="63.623047" xlink:href="#e"/>
<use x="95.410156" xlink:href="#y"/>
</g>
</g>
<g clip-path="url(#a)">
<defs>
<path id="ad" d="m33.016 40.375q-6.6406 0-10.531-4.5469-3.875-4.5312-3.875-12.438 0-7.8594 3.875-12.438 3.8906-4.5625 10.531-4.5625t10.516 4.5625q3.875 4.5781 3.875 12.438 0 7.9062-3.875 12.438-3.875 4.5469-10.516 4.5469zm19.578 30.922v-8.9844q-3.7188 1.75-7.5 2.6719-3.7812 0.9375-7.5 0.9375-9.7656 0-14.922-6.5938-5.1406-6.5938-5.875-19.922 2.875 4.25 7.2188 6.5156 4.3594 2.2656 9.5781 2.2656 10.984 0 17.359-6.6719 6.375-6.6562 6.375-18.125 0-11.234-6.6406-18.031-6.6406-6.7812-17.672-6.7812-12.656 0-19.344 9.6875-6.6875 9.7031-6.6875 28.109 0 17.281 8.2031 27.562t22.016 10.281q3.7188 0 7.5-0.73438t7.8906-2.1875z"/>
</defs>
<g transform="translate(256.03 487.64) scale(.1 -.1)">
<use xlink:href="#c"/>
<use x="63.623047" xlink:href="#e"/>
<use x="95.410156" xlink:href="#ad"/>
</g>
</g>
<g clip-path="url(#a)">
<defs>
<path id="ac" d="m8.2031 72.906h46.875v-4.2031l-26.469-68.703h-10.297l24.906 64.594h-35.016z"/>
</defs>
<g transform="translate(974.32 265.05) scale(.1 -.1)">
<use xlink:href="#c"/>
<use x="63.623047" xlink:href="#e"/>
<use x="95.410156" xlink:href="#ac"/>
</g>
</g>
<g clip-path="url(#a)">
<defs>
<path id="ah" d="m31.781 66.406q-7.6094 0-11.453-7.5-3.8281-7.4844-3.8281-22.531 0-14.984 3.8281-22.484 3.8438-7.5 11.453-7.5 7.6719 0 11.5 7.5 3.8438 7.5 3.8438 22.484 0 15.047-3.8438 22.531-3.8281 7.5-11.5 7.5zm0 7.8125q12.266 0 18.734-9.7031 6.4688-9.6875 6.4688-28.141 0-18.406-6.4688-28.109-6.4688-9.6875-18.734-9.6875-12.25 0-18.719 9.6875-6.4688 9.7031-6.4688 28.109 0 18.453 6.4688 28.141 6.4688 9.7031 18.719 9.7031z"/>
</defs>
<g transform="translate(612.54 376.49) scale(.1 -.1)">
<use xlink:href="#c"/>
<use x="63.623047" xlink:href="#e"/>
<use x="95.410156" xlink:href="#c"/>
<use x="159.033203" xlink:href="#ah"/>
</g>
</g>
<g clip-path="url(#a)">
<g transform="translate(1054 708.62) scale(.1 -.1)">
<use xlink:href="#c"/>
<use x="63.623047" xlink:href="#e"/>
<use x="95.410156" xlink:href="#c"/>
<use x="159.033203" xlink:href="#c"/>
</g>
</g>
<g clip-path="url(#a)">
<g transform="translate(1246.9 487.64) scale(.1 -.1)">
<use xlink:href="#c"/>
<use x="63.623047" xlink:href="#e"/>
<use x="95.410156" xlink:href="#c"/>
<use x="159.033203" xlink:href="#n"/>
</g>
</g>
<g clip-path="url(#a)">
<g transform="translate(1127.8 708.62) scale(.1 -.1)">
<use xlink:href="#c"/>
<use x="63.623047" xlink:href="#e"/>
<use x="95.410156" xlink:href="#c"/>
<use x="159.033203" xlink:href="#m"/>
</g>
</g>
<g clip-path="url(#a)">
<g transform="translate(1204.3 708.62) scale(.1 -.1)">
<use xlink:href="#c"/>
<use x="63.623047" xlink:href="#e"/>
<use x="95.410156" xlink:href="#c"/>
<use x="159.033203" xlink:href="#o"/>
</g>
</g>
<g clip-path="url(#a)">
<g transform="translate(1408.6 598.42) scale(.1 -.1)">
<use xlink:href="#c"/>
<use x="63.623047" xlink:href="#e"/>
<use x="95.410156" xlink:href="#c"/>
<use x="159.033203" xlink:href="#y"/>
</g>
</g>
<g clip-path="url(#a)">
<g transform="translate(1283.4 708.62) scale(.1 -.1)">
<use xlink:href="#c"/>
<use x="63.623047" xlink:href="#e"/>
<use x="95.410156" xlink:href="#c"/>
<use x="159.033203" xlink:href="#ad"/>
</g>
</g>
<g clip-path="url(#a)">
<g transform="translate(1365.1 708.62) scale(.1 -.1)">
<use xlink:href="#c"/>
<use x="63.623047" xlink:href="#e"/>
<use x="95.410156" xlink:href="#c"/>
<use x="159.033203" xlink:href="#ac"/>
</g>
</g>
<g clip-path="url(#a)">
<defs>
<path id="ag" d="m31.781 34.625q-7.0312 0-11.062-3.7656-4.0156-3.7656-4.0156-10.344 0-6.5938 4.0156-10.359 4.0312-3.7656 11.062-3.7656t11.078 3.7812q4.0625 3.7969 4.0625 10.344 0 6.5781-4.0312 10.344-4.0156 3.7656-11.109 3.7656zm-9.8594 4.1875q-6.3438 1.5625-9.8906 5.9062-3.5312 4.3594-3.5312 10.609 0 8.7344 6.2188 13.812 6.2344 5.0781 17.062 5.0781 10.891 0 17.094-5.0781t6.2031-13.812q0-6.25-3.5469-10.609-3.5312-4.3438-9.8281-5.9062 7.125-1.6562 11.094-6.5 3.9844-4.8281 3.9844-11.797 0-10.609-6.4688-16.281-6.4688-5.6562-18.531-5.6562-12.047 0-18.531 5.6562-6.4688 5.6719-6.4688 16.281 0 6.9688 4 11.797 4.0156 4.8438 11.141 6.5zm-3.6094 15.578q0-5.6562 3.5312-8.8281 3.5469-3.1719 9.9375-3.1719 6.3594 0 9.9375 3.1719 3.5938 3.1719 3.5938 8.8281 0 5.6719-3.5938 8.8438-3.5781 3.1719-9.9375 3.1719-6.3906 0-9.9375-3.1719-3.5312-3.1719-3.5312-8.8438z"/>
</defs>
<g transform="translate(1449.5 708.62) scale(.1 -.1)">
<use xlink:href="#c"/>
<use x="63.623047" xlink:href="#e"/>
<use x="95.410156" xlink:href="#c"/>
<use x="159.033203" xlink:href="#ag"/>
</g>
</g>
<g clip-path="url(#a)">
<defs>
<path id="af" d="m10.984 1.5156v8.9844q3.7188-1.7656 7.5156-2.6875 3.8125-0.92188 7.4844-0.92188 9.7656 0 14.906 6.5625 5.1562 6.5625 5.8906 19.953-2.8281-4.2031-7.1875-6.4531-4.3438-2.25-9.6094-2.25-10.938 0-17.312 6.6094-6.375 6.625-6.375 18.109 0 11.219 6.6406 18 6.6406 6.7969 17.672 6.7969 12.656 0 19.312-9.7031 6.6719-9.6875 6.6719-28.141 0-17.234-8.1875-27.516-8.1719-10.281-21.984-10.281-3.7188 0-7.5312 0.73438-3.7969 0.73438-7.9062 2.2031zm19.625 30.906q6.6406 0 10.516 4.5312 3.8906 4.5469 3.8906 12.469 0 7.8594-3.8906 12.422-3.875 4.5625-10.516 4.5625t-10.516-4.5625-3.875-12.422q0-7.9219 3.875-12.469 3.875-4.5312 10.516-4.5312z"/>
</defs>
<g transform="translate(508.17 708.62) scale(.1 -.1)">
<use xlink:href="#c"/>
<use x="63.623047" xlink:href="#e"/>
<use x="95.410156" xlink:href="#c"/>
<use x="159.033203" xlink:href="#af"/>
</g>
</g>
<g clip-path="url(#a)">
<g transform="translate(558.27 708.62) scale(.1 -.1)">
<use xlink:href="#c"/>
<use x="63.623047" xlink:href="#e"/>
<use x="95.410156" xlink:href="#n"/>
<use x="159.033203" xlink:href="#ah"/>
</g>
</g>
<g clip-path="url(#a)">
<g transform="translate(611.01 708.62) scale(.1 -.1)">
<use xlink:href="#c"/>
<use x="63.623047" xlink:href="#e"/>
<use x="95.410156" xlink:href="#n"/>
<use x="159.033203" xlink:href="#c"/>
</g>
</g>
<g clip-path="url(#a)">
<g transform="translate(772.73 487.64) scale(.1 -.1)">
<use xlink:href="#c"/>
<use x="63.623047" xlink:href="#e"/>
<use x="95.410156" xlink:href="#n"/>
<use x="159.033203" xlink:href="#n"/>
</g>
</g>
<g clip-path="url(#a)">
<g transform="translate(666.38 708.62) scale(.1 -.1)">
<use xlink:href="#c"/>
<use x="63.623047" xlink:href="#e"/>
<use x="95.410156" xlink:href="#n"/>
<use x="159.033203" xlink:href="#m"/>
</g>
</g>
<g clip-path="url(#a)">
<g transform="translate(724.39 708.62) scale(.1 -.1)">
<use xlink:href="#c"/>
<use x="63.623047" xlink:href="#e"/>
<use x="95.410156" xlink:href="#n"/>
<use x="159.033203" xlink:href="#o"/>
</g>
</g>
<g clip-path="url(#a)">
<g transform="translate(785.03 708.62) scale(.1 -.1)">
<use xlink:href="#c"/>
<use x="63.623047" xlink:href="#e"/>
<use x="95.410156" xlink:href="#n"/>
<use x="159.033203" xlink:href="#y"/>
</g>
</g>
<g clip-path="url(#a)">
<g transform="translate(915.11 598.42) scale(.1 -.1)">
<use xlink:href="#c"/>
<use x="63.623047" xlink:href="#e"/>
<use x="95.410156" xlink:href="#n"/>
<use x="159.033203" xlink:href="#ad"/>
</g>
</g>
<g clip-path="url(#a)">
<g transform="translate(848.31 708.62) scale(.1 -.1)">
<use xlink:href="#c"/>
<use x="63.623047" xlink:href="#e"/>
<use x="95.410156" xlink:href="#n"/>
<use x="159.033203" xlink:href="#ac"/>
</g>
</g>
<g clip-path="url(#a)">
<g transform="translate(914.23 708.62) scale(.1 -.1)">
<use xlink:href="#c"/>
<use x="63.623047" xlink:href="#e"/>
<use x="95.410156" xlink:href="#n"/>
<use x="159.033203" xlink:href="#ag"/>
</g>
</g>
<g clip-path="url(#a)">
<g transform="translate(982.79 708.62) scale(.1 -.1)">
<use xlink:href="#c"/>
<use x="63.623047" xlink:href="#e"/>
<use x="95.410156" xlink:href="#n"/>
<use x="159.033203" xlink:href="#af"/>
</g>
</g>
<g clip-path="url(#a)">
<g transform="translate(175.94 708.62) scale(.1 -.1)">
<use xlink:href="#c"/>
<use x="63.623047" xlink:href="#e"/>
<use x="95.410156" xlink:href="#m"/>
<use x="159.033203" xlink:href="#ah"/>
</g>
</g>
<g clip-path="url(#a)">
<g transform="translate(202.31 708.62) scale(.1 -.1)">
<use xlink:href="#c"/>
<use x="63.623047" xlink:href="#e"/>
<use x="95.410156" xlink:href="#m"/>
<use x="159.033203" xlink:href="#c"/>
</g>
</g>
<g clip-path="url(#a)">
<g transform="translate(231.32 708.62) scale(.1 -.1)">
<use xlink:href="#c"/>
<use x="63.623047" xlink:href="#e"/>
<use x="95.410156" xlink:href="#m"/>
<use x="159.033203" xlink:href="#n"/>
</g>
</g>
<g clip-path="url(#a)">
<g transform="translate(280.1 598.42) scale(.1 -.1)">
<use xlink:href="#c"/>
<use x="63.623047" xlink:href="#e"/>
<use x="95.410156" xlink:href="#m"/>
<use x="159.033203" xlink:href="#m"/>
</g>
</g>
<g clip-path="url(#a)">
<g transform="translate(374.58 598.42) scale(.1 -.1)">
<use xlink:href="#c"/>
<use x="63.623047" xlink:href="#e"/>
<use x="95.410156" xlink:href="#m"/>
<use x="159.033203" xlink:href="#o"/>
</g>
</g>
<g clip-path="url(#a)">
<g transform="translate(334.15 708.62) scale(.1 -.1)">
<use xlink:href="#c"/>
<use x="63.623047" xlink:href="#e"/>
<use x="95.410156" xlink:href="#m"/>
<use x="159.033203" xlink:href="#y"/>
</g>
</g>
<g clip-path="url(#a)">
<g transform="translate(373.7 708.62) scale(.1 -.1)">
<use xlink:href="#c"/>
<use x="63.623047" xlink:href="#e"/>
<use x="95.410156" xlink:href="#m"/>
<use x="159.033203" xlink:href="#ad"/>
</g>
</g>
<g clip-path="url(#a)">
<g transform="translate(415.89 708.62) scale(.1 -.1)">
<use xlink:href="#c"/>
<use x="63.623047" xlink:href="#e"/>
<use x="95.410156" xlink:href="#m"/>
<use x="159.033203" xlink:href="#ac"/>
</g>
</g>
<g clip-path="url(#a)">
<g transform="translate(262.96 708.62) scale(.1 -.1)">
<use xlink:href="#c"/>
<use x="63.623047" xlink:href="#e"/>
<use x="95.410156" xlink:href="#m"/>
<use x="159.033203" xlink:href="#ag"/>
</g>
</g>
<g clip-path="url(#a)">
<g transform="translate(297.23 708.62) scale(.1 -.1)">
<use xlink:href="#c"/>
<use x="63.623047" xlink:href="#e"/>
<use x="95.410156" xlink:href="#m"/>
<use x="159.033203" xlink:href="#af"/>
</g>
</g>
<g clip-path="url(#a)">
<g transform="translate(62.564 708.62) scale(.1 -.1)">
<use xlink:href="#c"/>
<use x="63.623047" xlink:href="#e"/>
<use x="95.410156" xlink:href="#o"/>
<use x="159.033203" xlink:href="#c"/>
</g>
</g>
<g clip-path="url(#a)">
<g transform="translate(70.474 708.62) scale(.1 -.1)">
<use xlink:href="#c"/>
<use x="63.623047" xlink:href="#e"/>
<use x="95.410156" xlink:href="#o"/>
<use x="159.033203" xlink:href="#n"/>
</g>
</g>
<g clip-path="url(#a)">
<g transform="translate(81.021 708.62) scale(.1 -.1)">
<use xlink:href="#c"/>
<use x="63.623047" xlink:href="#e"/>
<use x="95.410156" xlink:href="#o"/>
<use x="159.033203" xlink:href="#m"/>
</g>
</g>
<g clip-path="url(#a)">
<g transform="translate(102.12 487.64) scale(.1 -.1)">
<use xlink:href="#c"/>
<use x="63.623047" xlink:href="#e"/>
<use x="95.410156" xlink:href="#o"/>
<use x="159.033203" xlink:href="#o"/>
</g>
</g>
<g clip-path="url(#a)">
<g transform="translate(102.12 598.42) scale(.1 -.1)">
<use xlink:href="#c"/>
<use x="63.623047" xlink:href="#e"/>
<use x="95.410156" xlink:href="#o"/>
<use x="159.033203" xlink:href="#y"/>
</g>
</g>
<g clip-path="url(#a)">
<g transform="translate(94.205 708.62) scale(.1 -.1)">
<use xlink:href="#c"/>
<use x="63.623047" xlink:href="#e"/>
<use x="95.410156" xlink:href="#o"/>
<use x="159.033203" xlink:href="#ad"/>
</g>
</g>
<g clip-path="url(#a)">
<g transform="translate(110.03 708.62) scale(.1 -.1)">
<use xlink:href="#c"/>
<use x="63.623047" xlink:href="#e"/>
<use x="95.410156" xlink:href="#o"/>
<use x="159.033203" xlink:href="#ac"/>
</g>
</g>
<g clip-path="url(#a)">
<g transform="translate(458.73 153.39) scale(.1 -.1)">
<use xlink:href="#c"/>
<use x="63.623047" xlink:href="#e"/>
<use x="95.410156" xlink:href="#o"/>
<use x="159.033203" xlink:href="#ag"/>
</g>
</g>
<g clip-path="url(#a)">
<g transform="translate(393.77 153.39) scale(.1 -.1)">
<use xlink:href="#c"/>
<use x="63.623047" xlink:href="#e"/>
<use x="95.410156" xlink:href="#o"/>
<use x="159.033203" xlink:href="#af"/>
</g>
</g>
<g clip-path="url(#a)">
<g transform="translate(460.71 708.62) scale(.1 -.1)">
<use xlink:href="#c"/>
<use x="63.623047" xlink:href="#e"/>
<use x="95.410156" xlink:href="#y"/>
<use x="159.033203" xlink:href="#ah"/>
</g>
</g>
<g clip-path="url(#a)">
<g transform="translate(1536.5 708.62) scale(.1 -.1)">
<use xlink:href="#c"/>
<use x="63.623047" xlink:href="#e"/>
<use x="95.410156" xlink:href="#y"/>
<use x="159.033203" xlink:href="#c"/>
</g>
</g>
<defs>
<clipPath id="a">
<rect width="1621.3" height="853.33"/>
</clipPath>
</defs>
</svg>
