<?xml version="1.0" encoding="UTF-8"?>
<!DOCTYPE svg  PUBLIC '-//W3C//DTD SVG 1.1//EN'  'http://www.w3.org/Graphics/SVG/1.1/DTD/svg11.dtd'>
<svg width="506.67pt" height="266.67pt" version="1.1" viewBox="0 0 506.67 266.67" xmlns="http://www.w3.org/2000/svg" xmlns:xlink="http://www.w3.org/1999/xlink">
<defs>
<style type="text/css">*{stroke-linecap:butt;stroke-linejoin:round;}</style>
</defs>
<path d="m0 266.67h506.67v-266.67h-506.67z" fill="#fff"/>
<g fill="none" stroke="#000">
<path d="m159.82 12.121v48.917" clip-path="url(#a)"/>
<path d="m159.82 61.038-126.63 48.794" clip-path="url(#a)"/>
<path d="m159.82 61.038-35.185 145.8" clip-path="url(#a)"/>
<path d="m159.82 61.038 52.872 145.8" clip-path="url(#a)"/>
<path d="m159.82 61.038 172.54 48.794" clip-path="url(#a)"/>
<path d="m159.82 61.038-69.053 145.8" clip-path="url(#a)"/>
<path d="m159.82 61.038 5.4565 145.8" clip-path="url(#a)"/>
<path d="m33.191 109.83 30.481 48.628" clip-path="url(#a)"/>
<path d="m33.191 109.83 30.481 48.628" clip-path="url(#a)"/>
<path d="m33.191 109.83 30.481 48.628" clip-path="url(#a)"/>
<path d="m33.191 109.83v48.628" clip-path="url(#a)"/>
<path d="m124.63 206.83v47.711" clip-path="url(#a)"/>
<path d="m212.69 206.83v47.711" clip-path="url(#a)"/>
<path d="m332.36 109.83 151.28 48.628" clip-path="url(#a)"/>
<path d="m332.36 109.83 151.28 48.628" clip-path="url(#a)"/>
<path d="m332.36 109.83-65.478 97.003" clip-path="url(#a)"/>
<path d="m332.36 109.83 65.478 48.628" clip-path="url(#a)"/>
<path d="m266.88 206.83v47.711" clip-path="url(#a)"/>
<path d="m397.84 158.46-69.994 48.374" clip-path="url(#a)"/>
<path d="m397.84 158.46-2.2579 48.374" clip-path="url(#a)"/>
<path d="m397.84 158.46 72.252 48.374" clip-path="url(#a)"/>
<path d="m327.84 206.83v47.711" clip-path="url(#a)"/>
<path d="m395.58 206.83v47.711" clip-path="url(#a)"/>
<path d="m33.191 158.46-10.16 48.374" clip-path="url(#a)"/>
<path d="m33.191 158.46 10.16 48.374" clip-path="url(#a)"/>
<path d="m23.03 206.83v47.711" clip-path="url(#a)"/>
<path d="m43.351 206.83v47.711" clip-path="url(#a)"/>
<path d="m192.75 61.038-159.56 48.794" clip-path="url(#a)"/>
<path d="m192.75 61.038 19.945 145.8" clip-path="url(#a)"/>
<path d="m192.75 61.038 139.61 48.794" clip-path="url(#a)"/>
<path d="m90.766 206.83v47.711" clip-path="url(#a)"/>
<path d="m165.28 206.83v47.711" clip-path="url(#a)"/>
<path d="m470.09 206.83v47.711" clip-path="url(#a)"/>
</g>
<path d="m153.55 33.572v6.0162q0 2.4 2.4 2.4h7.7425q2.4 0 2.4-2.4v-6.0162q0-2.4-2.4-2.4h-7.7425q-2.4 0-2.4 2.4z" clip-path="url(#a)" fill="#fff" stroke="#fff"/>
<g clip-path="url(#a)">
<defs>
<path id="t" d="m9.8125 72.906h9.8594v-29.891h35.844v29.891h9.8594v-72.906h-9.8594v34.719h-35.844v-34.719h-9.8594z"/>
</defs>
<g transform="translate(157.61 33.572) rotate(90) scale(.08 -.08)">
<use xlink:href="#t"/>
</g>
</g>
<path d="m95.953 92.369 5.6139-2.1632q2.2395-0.86294 1.3766-3.1024l-2.7839-7.2247q-0.86294-2.2395-3.1024-1.3766l-5.6139 2.1632q-2.2395 0.86294-1.3766 3.1024l2.7839 7.2247q0.86294 2.2395 3.1024 1.3766z" clip-path="url(#a)" fill="#fff" stroke="#fff"/>
<g clip-path="url(#a)">
<g transform="translate(94.492 88.577) rotate(-21.073) scale(.08 -.08)">
<use xlink:href="#t"/>
</g>
</g>
<path d="m147.62 138.33 1.4114-5.8484q0.56303-2.333-1.77-2.8961l-7.5264-1.8164q-2.333-0.56303-2.8961 1.77l-1.4114 5.8484q-0.56303 2.333 1.77 2.8961l7.5264 1.8164q2.333 0.56303 2.8961-1.77z" clip-path="url(#a)" fill="#fff" stroke="#fff"/>
<g clip-path="url(#a)">
<g transform="translate(143.67 137.38) rotate(-76.432) scale(.08 -.08)">
<use xlink:href="#t"/>
</g>
</g>
<path d="m179.6 133.98 1.5196 4.1905q0.8182 2.2562 3.0744 1.438l7.2787-2.6396q2.2562-0.8182 1.438-3.0744l-1.5196-4.1905q-0.8182-2.2562-3.0744-1.438l-7.2787 2.6396q-2.2562 0.8182-1.438 3.0744z" clip-path="url(#a)" fill="#fff" stroke="#fff"/>
<g clip-path="url(#a)">
<defs>
<path id="n" d="m9.8125 72.906h9.8594v-64.609h35.5v-8.2969h-45.359z"/>
</defs>
<g transform="translate(183.42 132.59) rotate(70.067) scale(.08 -.08)">
<use xlink:href="#n"/>
</g>
</g>
<path d="m241.49 90.651 5.7892 1.6372q2.3094 0.6531 2.9625-1.6563l2.1069-7.4503q0.6531-2.3094-1.6563-2.9625l-5.7892-1.6372q-2.3094-0.6531-2.9625 1.6563l-2.1069 7.4503q-0.6531 2.3094 1.6563 2.9625z" clip-path="url(#a)" fill="#fff" stroke="#fff"/>
<g clip-path="url(#a)">
<g transform="translate(242.59 86.741) rotate(15.791) scale(.08 -.08)">
<use xlink:href="#t"/>
</g>
</g>
<path d="m129.71 139.27 2.5062-5.2915q1.0273-2.169-1.1417-3.1963l-6.9973-3.3141q-2.169-1.0273-3.1963 1.1417l-2.5062 5.2915q-1.0273 2.169 1.1417 3.1963l6.9973 3.3141q2.169 1.0273 3.1963-1.1417z" clip-path="url(#a)" fill="#fff" stroke="#fff"/>
<g clip-path="url(#a)">
<defs>
<path id="u" d="m8.6875 72.906h9.9219v-44.297q0-11.719 4.2344-16.875 4.25-5.1406 13.781-5.1406 9.4688 0 13.719 5.1406 4.25 5.1562 4.25 16.875v44.297h9.9062v-45.516q0-14.25-7.0625-21.531-7.0469-7.2812-20.812-7.2812-13.828 0-20.891 7.2812-7.0469 7.2812-7.0469 21.531z"/>
</defs>
<g transform="translate(126.04 137.53) rotate(-64.656) scale(.08 -.08)">
<use xlink:href="#u"/>
</g>
</g>
<path d="m156.17 131.25 0.21897 5.8509q0.089758 2.3983 2.4881 2.3086l7.7371-0.28956q2.3983-0.089759 2.3086-2.4881l-0.21897-5.8509q-0.089759-2.3983-2.4881-2.3086l-7.7371 0.28956q-2.3983 0.089759-2.3086 2.4881z" clip-path="url(#a)" fill="#fff" stroke="#fff"/>
<g clip-path="url(#a)">
<g transform="translate(160.23 131.09) rotate(87.857) scale(.08 -.08)">
<use xlink:href="#u"/>
</g>
</g>
<path d="m41.664 135.16 2.9065 4.6369q1.2747 2.0335 3.3082 0.75886l6.5602-4.1121q2.0335-1.2747 0.75886-3.3082l-2.9065-4.6369q-1.2747-2.0335-3.3082-0.75886l-6.5602 4.1121q-2.0335 1.2747-0.75886 3.3082z" clip-path="url(#a)" fill="#fff" stroke="#fff"/>
<g clip-path="url(#a)">
<defs>
<path id="r" d="m34.188 63.188-13.391-36.281h26.812zm-5.5781 9.7188h11.188l27.781-72.906h-10.25l-6.6406 18.703h-32.859l-6.6406-18.703h-10.406z"/>
</defs>
<g transform="translate(45.108 133) rotate(57.92) scale(.08 -.08)">
<use xlink:href="#r"/>
</g>
</g>
<path d="m41.837 135.43 2.5619 4.0872q1.2747 2.0335 3.3082 0.75886l6.5602-4.1121q2.0335-1.2747 0.75887-3.3082l-2.5619-4.0872q-1.2747-2.0335-3.3082-0.75886l-6.5602 4.1121q-2.0335 1.2747-0.75886 3.3082z" clip-path="url(#a)" fill="#fff" stroke="#fff"/>
<g clip-path="url(#a)">
<defs>
<path id="p" d="m19.672 64.797v-27.391h12.406q6.8906 0 10.641 3.5625 3.7656 3.5625 3.7656 10.156 0 6.5469-3.7656 10.109-3.75 3.5625-10.641 3.5625zm-9.8594 8.1094h22.266q12.266 0 18.531-5.5469 6.2812-5.5469 6.2812-16.234 0-10.797-6.2812-16.312-6.2656-5.5156-18.531-5.5156h-12.406v-29.297h-9.8594z"/>
</defs>
<g transform="translate(45.28 133.27) rotate(57.92) scale(.08 -.08)">
<use xlink:href="#p"/>
</g>
</g>
<path d="m41.664 135.16 2.9065 4.6369q1.2747 2.0335 3.3082 0.75886l6.5602-4.1121q2.0335-1.2747 0.75886-3.3082l-2.9065-4.6369q-1.2747-2.0335-3.3082-0.75886l-6.5602 4.1121q-2.0335 1.2747-0.75886 3.3082z" clip-path="url(#a)" fill="#fff" stroke="#fff"/>
<g clip-path="url(#a)">
<g transform="translate(45.108 133) rotate(57.92) scale(.08 -.08)">
<use xlink:href="#r"/>
</g>
</g>
<path d="m26.919 131.41v5.4725q0 2.4 2.4 2.4h7.7425q2.4 0 2.4-2.4v-5.4725q0-2.4-2.4-2.4h-7.7425q-2.4 0-2.4 2.4z" clip-path="url(#a)" fill="#fff" stroke="#fff"/>
<g clip-path="url(#a)">
<g transform="translate(30.983 131.41) rotate(90) scale(.08 -.08)">
<use xlink:href="#r"/>
</g>
</g>
<path d="m118.36 213.79v33.808q0 2.4 2.4 2.4h7.7425q2.4 0 2.4-2.4v-33.808q0-2.4-2.4-2.4h-7.7425q-2.4 0-2.4 2.4z" clip-path="url(#a)" fill="#fff" stroke="#fff"/>
<g clip-path="url(#a)">
<defs>
<path id="f" d="m-0.29688 72.906h61.672v-8.3125h-25.875v-64.594h-9.9062v64.594h-25.891z"/>
<path id="i" d="m56.203 29.594v-4.3906h-41.312q0.59375-9.2812 5.5938-14.141t13.938-4.8594q5.1719 0 10.031 1.2656t9.6562 3.8125v-8.5q-4.8438-2.0469-9.9219-3.125t-10.297-1.0781q-13.094 0-20.734 7.6094-7.6406 7.625-7.6406 20.625 0 13.422 7.25 21.297 7.25 7.8906 19.562 7.8906 11.031 0 17.453-7.1094 6.4219-7.0938 6.4219-19.297zm-8.9844 2.6406q-0.09375 7.3594-4.125 11.75-4.0312 4.4062-10.672 4.4062-7.5156 0-12.031-4.25t-5.2031-11.969z"/>
<path id="l" d="m41.109 46.297q-1.5156 0.875-3.2969 1.2812-1.7812 0.42188-3.9219 0.42188-7.625 0-11.703-4.9531t-4.0781-14.234v-28.812h-9.0312v54.688h9.0312v-8.5q2.8438 4.9844 7.375 7.3906 4.5469 2.4219 11.047 2.4219 0.92188 0 2.0469-0.125 1.125-0.10938 2.4844-0.35938z"/>
<path id="j" d="m52 44.188q3.375 6.0625 8.0625 8.9375t11.031 2.875q8.5469 0 13.188-5.9844 4.6406-5.9688 4.6406-17v-33.016h-9.0312v32.719q0 7.8594-2.7969 11.656-2.7812 3.8125-8.4844 3.8125-6.9844 0-11.047-4.6406-4.0469-4.625-4.0469-12.641v-30.906h-9.0312v32.719q0 7.9062-2.7812 11.688t-8.5938 3.7812q-6.8906 0-10.953-4.6562-4.0469-4.6562-4.0469-12.625v-30.906h-9.0312v54.688h9.0312v-8.5q3.0781 5.0312 7.375 7.4219t10.203 2.3906q5.9688 0 10.141-3.0312 4.1719-3.0156 6.1719-8.7812z"/>
<path id="k" d="m9.4219 54.688h8.9844v-54.688h-8.9844zm0 21.297h8.9844v-11.391h-8.9844z"/>
<path id="h" d="m54.891 33.016v-33.016h-8.9844v32.719q0 7.7656-3.0312 11.609-3.0312 3.8594-9.0781 3.8594-7.2812 0-11.484-4.6406-4.2031-4.625-4.2031-12.641v-30.906h-9.0312v54.688h9.0312v-8.5q3.2344 4.9375 7.5938 7.375 4.375 2.4375 10.094 2.4375 9.4219 0 14.25-5.8281 4.8438-5.8281 4.8438-17.156z"/>
<path id="e" d="m34.281 27.484q-10.891 0-15.094-2.4844t-4.2031-8.5q0-4.7812 3.1562-7.5938 3.1562-2.7969 8.5625-2.7969 7.4844 0 12 5.2969t4.5156 14.078v2zm17.922 3.7188v-31.203h-8.9844v8.2969q-3.0781-4.9688-7.6719-7.3438t-11.234-2.375q-8.3906 0-13.359 4.7188-4.9531 4.7188-4.9531 12.625 0 9.2188 6.1719 13.906 6.1875 4.6875 18.438 4.6875h12.609v0.89062q0 6.2031-4.0781 9.5938t-11.453 3.3906q-4.6875 0-9.1406-1.125-4.4375-1.125-8.5312-3.375v8.3125q4.9219 1.9062 9.5625 2.8438 4.6406 0.95312 9.0312 0.95312 11.875 0 17.734-6.1562 5.8594-6.1406 5.8594-18.641z"/>
<path id="m" d="m9.4219 75.984h8.9844v-75.984h-8.9844z"/>
</defs>
<g transform="translate(122.43 213.79) rotate(90) scale(.08 -.08)">
<use xlink:href="#f"/>
<use x="44.083984" xlink:href="#i"/>
<use x="105.607422" xlink:href="#l"/>
<use x="144.970703" xlink:href="#j"/>
<use x="242.382812" xlink:href="#k"/>
<use x="270.166016" xlink:href="#h"/>
<use x="333.544922" xlink:href="#e"/>
<use x="394.824219" xlink:href="#m"/>
</g>
</g>
<path d="m206.42 213.79v33.808q0 2.4 2.4 2.4h7.7425q2.4 0 2.4-2.4v-33.808q0-2.4-2.4-2.4h-7.7425q-2.4 0-2.4 2.4z" clip-path="url(#a)" fill="#fff" stroke="#fff"/>
<g clip-path="url(#a)">
<g transform="translate(210.48 213.79) rotate(90) scale(.08 -.08)">
<use xlink:href="#f"/>
<use x="44.083984" xlink:href="#i"/>
<use x="105.607422" xlink:href="#l"/>
<use x="144.970703" xlink:href="#j"/>
<use x="242.382812" xlink:href="#k"/>
<use x="270.166016" xlink:href="#h"/>
<use x="333.544922" xlink:href="#e"/>
<use x="394.824219" xlink:href="#m"/>
</g>
</g>
<path d="m403.47 139.28 5.2099 1.6747q2.2849 0.73447 3.0193-1.5504l2.3694-7.371q0.73447-2.2849-1.5504-3.0193l-5.2099-1.6747q-2.2849-0.73447-3.0193 1.5504l-2.3694 7.371q-0.73447 2.2849 1.5504 3.0193z" clip-path="url(#a)" fill="#fff" stroke="#fff"/>
<g clip-path="url(#a)">
<g transform="translate(404.72 135.41) rotate(17.82) scale(.08 -.08)">
<use xlink:href="#r"/>
</g>
</g>
<path d="m403.78 139.38 4.5923 1.4762q2.2849 0.73447 3.0193-1.5504l2.3694-7.371q0.73447-2.2849-1.5504-3.0193l-4.5923-1.4762q-2.2849-0.73447-3.0193 1.5504l-2.3694 7.371q-0.73447 2.2849 1.5504 3.0193z" clip-path="url(#a)" fill="#fff" stroke="#fff"/>
<g clip-path="url(#a)">
<g transform="translate(405.03 135.51) rotate(17.82) scale(.08 -.08)">
<use xlink:href="#p"/>
</g>
</g>
<path d="m303.09 164.39 3.4464-5.1057q1.3428-1.9892-0.64647-3.332l-6.4173-4.3318q-1.9892-1.3428-3.332 0.64647l-3.4464 5.1057q-1.3428 1.9892 0.64647 3.332l6.4173 4.3318q1.9892 1.3428 3.332-0.64647z" clip-path="url(#a)" fill="#fff" stroke="#fff"/>
<g clip-path="url(#a)">
<defs>
<path id="af" d="m19.672 64.797v-56.688h11.922q15.094 0 22.094 6.8281 7 6.8438 7 21.594 0 14.641-7 21.453t-22.094 6.8125zm-9.8594 8.1094h20.266q21.188 0 31.094-8.8125 9.9219-8.8125 9.9219-27.562 0-18.859-9.9688-27.703-9.9531-8.8281-31.047-8.8281h-20.266z"/>
</defs>
<g transform="translate(299.73 162.12) rotate(-55.98) scale(.08 -.08)">
<use xlink:href="#af"/>
</g>
</g>
<path d="m359.16 137.55 4.3934 3.2628q1.9268 1.4309 3.3577-0.49583l4.6163-6.2158q1.4309-1.9268-0.49583-3.3577l-4.3934-3.2628q-1.9268-1.4309-3.3577 0.49583l-4.6163 6.2158q-1.4309 1.9268 0.49583 3.3577z" clip-path="url(#a)" fill="#fff" stroke="#fff"/>
<g clip-path="url(#a)">
<g transform="translate(361.59 134.29) rotate(36.6) scale(.08 -.08)">
<use xlink:href="#r"/>
</g>
</g>
<path d="m260.61 213.79v33.808q0 2.4 2.4 2.4h7.7425q2.4 0 2.4-2.4v-33.808q0-2.4-2.4-2.4h-7.7425q-2.4 0-2.4 2.4z" clip-path="url(#a)" fill="#fff" stroke="#fff"/>
<g clip-path="url(#a)">
<g transform="translate(264.67 213.79) rotate(90) scale(.08 -.08)">
<use xlink:href="#f"/>
<use x="44.083984" xlink:href="#i"/>
<use x="105.607422" xlink:href="#l"/>
<use x="144.970703" xlink:href="#j"/>
<use x="242.382812" xlink:href="#k"/>
<use x="270.166016" xlink:href="#h"/>
<use x="333.544922" xlink:href="#e"/>
<use x="394.824219" xlink:href="#m"/>
</g>
</g>
<path d="m364.12 189.39 4.5729-3.1604q1.9744-1.3645 0.60983-3.3389l-4.402-6.3694q-1.3645-1.9744-3.3389-0.60983l-4.5729 3.1604q-1.9744 1.3645-0.60983 3.3389l4.402 6.3694q1.3645 1.9744 3.3389 0.60983z" clip-path="url(#a)" fill="#fff" stroke="#fff"/>
<g clip-path="url(#a)">
<defs>
<path id="v" d="m44.391 34.188q3.1719-1.0781 6.1719-4.5938t6.0312-9.6719l10.016-19.922h-10.609l-9.3125 18.703q-3.625 7.3281-7.0156 9.7188t-9.25 2.3906h-10.75v-30.812h-9.8594v72.906h22.266q12.5 0 18.656-5.2344 6.1562-5.2188 6.1562-15.766 0-6.8906-3.2031-11.438-3.2031-4.5312-9.2969-6.2812zm-24.719 30.609v-25.875h12.406q7.125 0 10.766 3.2969t3.6406 9.6875-3.6406 9.6406-10.766 3.25z"/>
</defs>
<g transform="translate(361.81 186.04) rotate(-34.649) scale(.08 -.08)">
<use xlink:href="#v"/>
</g>
</g>
<path d="m402.84 185.73 0.26045-5.5802q0.1119-2.3974-2.2855-2.5093l-7.7341-0.36099q-2.3974-0.1119-2.5093 2.2855l-0.26045 5.5802q-0.1119 2.3974 2.2855 2.5093l7.7341 0.36099q2.3974 0.1119 2.5093-2.2855z" clip-path="url(#a)" fill="#fff" stroke="#fff"/>
<g clip-path="url(#a)">
<defs>
<path id="q" d="m64.406 67.281v-10.391q-4.9844 4.6406-10.625 6.9219-5.6406 2.2969-11.984 2.2969-12.5 0-19.141-7.6406t-6.6406-22.094q0-14.406 6.6406-22.047t19.141-7.6406q6.3438 0 11.984 2.2969t10.625 6.9375v-10.312q-5.1719-3.5156-10.969-5.2812-5.7812-1.75-12.219-1.75-16.562 0-26.094 10.125-9.5156 10.141-9.5156 27.672 0 17.578 9.5156 27.703 9.5312 10.141 26.094 10.141 6.5312 0 12.312-1.7344 5.7969-1.7344 10.875-5.2031z"/>
</defs>
<g transform="translate(398.78 185.54) rotate(-87.328) scale(.08 -.08)">
<use xlink:href="#q"/>
</g>
</g>
<path d="m428.04 186.23 4.8652 3.2574q1.9943 1.3352 3.3295-0.65906l4.3075-6.4336q1.3352-1.9943-0.65906-3.3295l-4.8652-3.2574q-1.9943-1.3352-3.3295 0.65906l-4.3075 6.4336q-1.3352 1.9943 0.65906 3.3295z" clip-path="url(#a)" fill="#fff" stroke="#fff"/>
<g clip-path="url(#a)">
<g transform="translate(430.3 182.85) rotate(33.803) scale(.08 -.08)">
<use xlink:href="#u"/>
</g>
</g>
<path d="m321.57 213.79v33.808q0 2.4 2.4 2.4h7.7425q2.4 0 2.4-2.4v-33.808q0-2.4-2.4-2.4h-7.7425q-2.4 0-2.4 2.4z" clip-path="url(#a)" fill="#fff" stroke="#fff"/>
<g clip-path="url(#a)">
<g transform="translate(325.64 213.79) rotate(90) scale(.08 -.08)">
<use xlink:href="#f"/>
<use x="44.083984" xlink:href="#i"/>
<use x="105.607422" xlink:href="#l"/>
<use x="144.970703" xlink:href="#j"/>
<use x="242.382812" xlink:href="#k"/>
<use x="270.166016" xlink:href="#h"/>
<use x="333.544922" xlink:href="#e"/>
<use x="394.824219" xlink:href="#m"/>
</g>
</g>
<path d="m389.31 213.79v33.808q0 2.4 2.4 2.4h7.7425q2.4 0 2.4-2.4v-33.808q0-2.4-2.4-2.4h-7.7425q-2.4 0-2.4 2.4z" clip-path="url(#a)" fill="#fff" stroke="#fff"/>
<g clip-path="url(#a)">
<g transform="translate(393.37 213.79) rotate(90) scale(.08 -.08)">
<use xlink:href="#f"/>
<use x="44.083984" xlink:href="#i"/>
<use x="105.607422" xlink:href="#l"/>
<use x="144.970703" xlink:href="#j"/>
<use x="242.382812" xlink:href="#k"/>
<use x="270.166016" xlink:href="#h"/>
<use x="333.544922" xlink:href="#e"/>
<use x="394.824219" xlink:href="#m"/>
</g>
</g>
<path d="m33.677 186.66 1.1426-5.44q0.49332-2.3488-1.8554-2.8421l-7.5772-1.5915q-2.3488-0.49332-2.8421 1.8554l-1.1426 5.44q-0.49332 2.3488 1.8554 2.8421l7.5772 1.5915q2.3488 0.49332 2.8421-1.8554z" clip-path="url(#a)" fill="#fff" stroke="#fff"/>
<g clip-path="url(#a)">
<g transform="translate(29.7 185.82) rotate(-78.138) scale(.08 -.08)">
<use xlink:href="#v"/>
</g>
</g>
<path d="m31.559 181.2 1.1483 5.467q0.49332 2.3488 2.8421 1.8554l7.5772-1.5915q2.3488-0.49332 1.8554-2.8421l-1.1483-5.467q-0.49332-2.3488-2.8421-1.8554l-7.5772 1.5915q-2.3488 0.49332-1.8554 2.8421z" clip-path="url(#a)" fill="#fff" stroke="#fff"/>
<g clip-path="url(#a)">
<g transform="translate(35.536 180.37) rotate(78.138) scale(.08 -.08)">
<use xlink:href="#q"/>
</g>
</g>
<path d="m16.759 213.79v33.808q0 2.4 2.4 2.4h7.7425q2.4 0 2.4-2.4v-33.808q0-2.4-2.4-2.4h-7.7425q-2.4 0-2.4 2.4z" clip-path="url(#a)" fill="#fff" stroke="#fff"/>
<g clip-path="url(#a)">
<g transform="translate(20.823 213.79) rotate(90) scale(.08 -.08)">
<use xlink:href="#f"/>
<use x="44.083984" xlink:href="#i"/>
<use x="105.607422" xlink:href="#l"/>
<use x="144.970703" xlink:href="#j"/>
<use x="242.382812" xlink:href="#k"/>
<use x="270.166016" xlink:href="#h"/>
<use x="333.544922" xlink:href="#e"/>
<use x="394.824219" xlink:href="#m"/>
</g>
</g>
<path d="m37.08 213.79v33.808q0 2.4 2.4 2.4h7.7425q2.4 0 2.4-2.4v-33.808q0-2.4-2.4-2.4h-7.7425q-2.4 0-2.4 2.4z" clip-path="url(#a)" fill="#fff" stroke="#fff"/>
<g clip-path="url(#a)">
<g transform="translate(41.144 213.79) rotate(90) scale(.08 -.08)">
<use xlink:href="#f"/>
<use x="44.083984" xlink:href="#i"/>
<use x="105.607422" xlink:href="#l"/>
<use x="144.970703" xlink:href="#j"/>
<use x="242.382812" xlink:href="#k"/>
<use x="270.166016" xlink:href="#h"/>
<use x="333.544922" xlink:href="#e"/>
<use x="394.824219" xlink:href="#m"/>
</g>
</g>
<path d="m109.97 92.911 9.668-2.9566q2.2951-0.70186 1.5932-2.9969l-2.2642-7.404q-0.70186-2.2951-2.9969-1.5932l-9.668 2.9566q-2.2951 0.70186-1.5932 2.9969l2.2642 7.404q0.70186 2.2951 2.9969 1.5932z" clip-path="url(#a)" fill="#fff" stroke="#fff"/>
<g clip-path="url(#a)">
<g transform="translate(108.78 89.024) rotate(-17.004) scale(.08 -.08)">
<use xlink:href="#n"/>
<use x="57.962891" xlink:href="#r"/>
</g>
</g>
<path d="m195.83 129.82 1.3576 9.9238q0.32528 2.3779 2.7031 2.0526l7.6711-1.0494q2.3779-0.32528 2.0526-2.7031l-1.3576-9.9238q-0.32528-2.3779-2.7031-2.0526l-7.6711 1.0494q-2.3779 0.32528-2.0526 2.7031z" clip-path="url(#a)" fill="#fff" stroke="#fff"/>
<g clip-path="url(#a)">
<g transform="translate(199.85 129.27) rotate(82.21) scale(.08 -.08)">
<use xlink:href="#n"/>
<use x="55.712891" xlink:href="#v"/>
</g>
</g>
<path d="m255.71 89.688 9.5439 3.3356q2.2656 0.79182 3.0574-1.4738l2.5545-7.309q0.79182-2.2656-1.4738-3.0574l-9.5439-3.3356q-2.2656-0.79182-3.0574 1.4738l-2.5545 7.309q-0.79182 2.2656 1.4738 3.0574z" clip-path="url(#a)" fill="#fff" stroke="#fff"/>
<g clip-path="url(#a)">
<g transform="translate(257.05 85.851) rotate(19.264) scale(.08 -.08)">
<use xlink:href="#n"/>
<use x="57.962891" xlink:href="#r"/>
</g>
</g>
<path d="m84.495 213.79v33.808q0 2.4 2.4 2.4h7.7425q2.4 0 2.4-2.4v-33.808q0-2.4-2.4-2.4h-7.7425q-2.4 0-2.4 2.4z" clip-path="url(#a)" fill="#fff" stroke="#fff"/>
<g clip-path="url(#a)">
<g transform="translate(88.559 213.79) rotate(90) scale(.08 -.08)">
<use xlink:href="#f"/>
<use x="44.083984" xlink:href="#i"/>
<use x="105.607422" xlink:href="#l"/>
<use x="144.970703" xlink:href="#j"/>
<use x="242.382812" xlink:href="#k"/>
<use x="270.166016" xlink:href="#h"/>
<use x="333.544922" xlink:href="#e"/>
<use x="394.824219" xlink:href="#m"/>
</g>
</g>
<path d="m159.01 213.79v33.808q0 2.4 2.4 2.4h7.7425q2.4 0 2.4-2.4v-33.808q0-2.4-2.4-2.4h-7.7425q-2.4 0-2.4 2.4z" clip-path="url(#a)" fill="#fff" stroke="#fff"/>
<g clip-path="url(#a)">
<g transform="translate(163.07 213.79) rotate(90) scale(.08 -.08)">
<use xlink:href="#f"/>
<use x="44.083984" xlink:href="#i"/>
<use x="105.607422" xlink:href="#l"/>
<use x="144.970703" xlink:href="#j"/>
<use x="242.382812" xlink:href="#k"/>
<use x="270.166016" xlink:href="#h"/>
<use x="333.544922" xlink:href="#e"/>
<use x="394.824219" xlink:href="#m"/>
</g>
</g>
<path d="m463.82 213.79v33.808q0 2.4 2.4 2.4h7.7425q2.4 0 2.4-2.4v-33.808q0-2.4-2.4-2.4h-7.7425q-2.4 0-2.4 2.4z" clip-path="url(#a)" fill="#fff" stroke="#fff"/>
<g clip-path="url(#a)">
<g transform="translate(467.88 213.79) rotate(90) scale(.08 -.08)">
<use xlink:href="#f"/>
<use x="44.083984" xlink:href="#i"/>
<use x="105.607422" xlink:href="#l"/>
<use x="144.970703" xlink:href="#j"/>
<use x="242.382812" xlink:href="#k"/>
<use x="270.166016" xlink:href="#h"/>
<use x="333.544922" xlink:href="#e"/>
<use x="394.824219" xlink:href="#m"/>
</g>
</g>
<defs>
<path id="b" d="m0 8.6603c2.2967 0 4.4997-0.9125 6.1237-2.5365 1.624-1.624 2.5365-3.827 2.5365-6.1237s-0.9125-4.4997-2.5365-6.1237c-1.624-1.624-3.827-2.5365-6.1237-2.5365s-4.4997 0.9125-6.1237 2.5365c-1.624 1.624-2.5365 3.827-2.5365 6.1237s0.9125 4.4997 2.5365 6.1237c1.624 1.624 3.827 2.5365 6.1237 2.5365z"/>
</defs>
<g clip-path="url(#a)">
<use x="23.030303" y="254.545455" fill="#ffffff" stroke="#ffffff" xlink:href="#b"/>
<use x="43.351159" y="254.545455" fill="#ffffff" stroke="#ffffff" xlink:href="#b"/>
<use x="90.766488" y="254.545455" fill="#ffffff" stroke="#ffffff" xlink:href="#b"/>
<use x="124.634581" y="254.545455" fill="#ffffff" stroke="#ffffff" xlink:href="#b"/>
<use x="165.276292" y="254.545455" fill="#ffffff" stroke="#ffffff" xlink:href="#b"/>
<use x="212.691622" y="254.545455" fill="#ffffff" stroke="#ffffff" xlink:href="#b"/>
<use x="266.88057" y="254.545455" fill="#ffffff" stroke="#ffffff" xlink:href="#b"/>
<use x="327.843137" y="254.545455" fill="#ffffff" stroke="#ffffff" xlink:href="#b"/>
<use x="395.579323" y="254.545455" fill="#ffffff" stroke="#ffffff" xlink:href="#b"/>
<use x="470.089127" y="254.545455" fill="#ffffff" stroke="#ffffff" xlink:href="#b"/>
<use x="483.636364" y="158.460224" fill="#ffffff" stroke="#ffffff" xlink:href="#b"/>
<use x="483.636364" y="158.460224" fill="#ffffff" stroke="#ffffff" xlink:href="#b"/>
<use x="63.672014" y="158.460224" fill="#ffffff" stroke="#ffffff" xlink:href="#b"/>
<use x="63.672014" y="158.460224" fill="#ffffff" stroke="#ffffff" xlink:href="#b"/>
<use x="63.672014" y="158.460224" fill="#ffffff" stroke="#ffffff" xlink:href="#b"/>
<use x="159.819766" y="12.121212" fill="#ffffff" stroke="#ffffff" xlink:href="#b"/>
<use x="159.819766" y="61.038341" fill="#ffffff" stroke="#ffffff" xlink:href="#b"/>
<use x="33.190731" y="109.832034" fill="#ffffff" stroke="#ffffff" xlink:href="#b"/>
<use x="124.634581" y="206.834694" fill="#ffffff" stroke="#ffffff" xlink:href="#b"/>
<use x="212.691622" y="206.834694" fill="#ffffff" stroke="#ffffff" xlink:href="#b"/>
<use x="332.358883" y="109.832034" fill="#ffffff" stroke="#ffffff" xlink:href="#b"/>
<use x="266.88057" y="206.834694" fill="#ffffff" stroke="#ffffff" xlink:href="#b"/>
<use x="397.837195" y="158.460224" fill="#ffffff" stroke="#ffffff" xlink:href="#b"/>
<use x="327.843137" y="206.834694" fill="#ffffff" stroke="#ffffff" xlink:href="#b"/>
<use x="395.579323" y="206.834694" fill="#ffffff" stroke="#ffffff" xlink:href="#b"/>
<use x="33.190731" y="158.460224" fill="#ffffff" stroke="#ffffff" xlink:href="#b"/>
<use x="23.030303" y="206.834694" fill="#ffffff" stroke="#ffffff" xlink:href="#b"/>
<use x="43.351159" y="206.834694" fill="#ffffff" stroke="#ffffff" xlink:href="#b"/>
<use x="192.747079" y="61.038341" fill="#808080" stroke="#808080" xlink:href="#b"/>
<use x="90.766488" y="206.834694" fill="#ffffff" stroke="#ffffff" xlink:href="#b"/>
<use x="165.276292" y="206.834694" fill="#ffffff" stroke="#ffffff" xlink:href="#b"/>
<use x="470.089127" y="206.834694" fill="#ffffff" stroke="#ffffff" xlink:href="#b"/>
</g>
<g clip-path="url(#a)">
<defs>
<path id="ae" d="m9.8125 72.906h46.094v-8.3125h-36.234v-21.578h34.719v-8.2969h-34.719v-26.422h37.109v-8.2969h-46.969z"/>
</defs>
<g transform="translate(16.702 257.3) scale(.1 -.1)">
<use xlink:href="#ae"/>
<use x="63.183594" xlink:href="#h"/>
</g>
</g>
<g clip-path="url(#a)">
<defs>
<path id="ac" d="m37.109 75.984v-7.4844h-8.5938q-4.8281 0-6.7188-1.9531-1.875-1.9531-1.875-7.0312v-4.8281h14.797v-6.9844h-14.797v-47.703h-9.0312v47.703h-8.5938v6.9844h8.5938v3.8125q0 9.125 4.25 13.297 4.25 4.1875 13.469 4.1875z"/>
<path id="z" d="m44.281 53.078v-8.5q-3.7969 1.9531-7.9062 2.9219-4.0938 0.98438-8.5 0.98438-6.6875 0-10.031-2.0469t-3.3438-6.1562q0-3.125 2.3906-4.9062t9.625-3.3906l3.0781-0.6875q9.5625-2.0469 13.594-5.7812t4.0312-10.422q0-7.625-6.0312-12.078-6.0312-4.4375-16.578-4.4375-4.3906 0-9.1562 0.85938t-10.031 2.5625v9.2812q4.9844-2.5938 9.8125-3.8906 4.8281-1.2812 9.5781-1.2812 6.3438 0 9.75 2.1719 3.4219 2.1719 3.4219 6.125 0 3.6562-2.4688 5.6094-2.4531 1.9531-10.812 3.7656l-3.125 0.73438q-8.3438 1.75-12.062 5.3906-3.7031 3.6406-3.7031 9.9844 0 7.7188 5.4688 11.906 5.4688 4.2031 15.531 4.2031 4.9688 0 9.3594-0.73438 4.4062-0.71875 8.1094-2.1875z"/>
</defs>
<g transform="translate(24.689 257.3) scale(.1 -.1)">
<use xlink:href="#e"/>
<use x="61.279297" xlink:href="#ac"/>
<use x="96.484375" xlink:href="#ac"/>
<use x="131.689453" xlink:href="#e"/>
<use x="192.96875" xlink:href="#k"/>
<use x="220.751953" xlink:href="#l"/>
<use x="259.615234" xlink:href="#i"/>
<use x="321.138672" xlink:href="#z"/>
</g>
</g>
<g clip-path="url(#a)">
<defs>
<path id="aa" d="m11.719 12.406h10.297v-8.4062l-8-15.625h-6.2969l4 15.625z"/>
</defs>
<g transform="translate(89.177 257.3) scale(.1 -.1)">
<use xlink:href="#aa"/>
</g>
</g>
<g clip-path="url(#a)">
<defs>
<path id="ad" d="m9.8125 72.906h13.281l32.328-60.984v60.984h9.5625v-72.906h-13.281l-32.312 60.984v-60.984h-9.5781z"/>
<path id="ao" d="m45.406 46.391v29.594h8.9844v-75.984h-8.9844v8.2031q-2.8281-4.875-7.1562-7.25-4.3125-2.375-10.375-2.375-9.9062 0-16.141 7.9062-6.2188 7.9219-6.2188 20.812t6.2188 20.797q6.2344 7.9062 16.141 7.9062 6.0625 0 10.375-2.375 4.3281-2.3594 7.1562-7.2344zm-30.609-19.094q0-9.9062 4.0781-15.547t11.203-5.6406 11.219 5.6406q4.1094 5.6406 4.1094 15.547t-4.1094 15.547q-4.0938 5.6406-11.219 5.6406t-11.203-5.6406-4.0781-15.547z"/>
</defs>
<g transform="translate(114.64 257.3) scale(.1 -.1)">
<use xlink:href="#ad"/>
<use x="74.804688" xlink:href="#i"/>
<use x="136.328125" xlink:href="#ao"/>
</g>
</g>
<g clip-path="url(#a)">
<g transform="translate(163.69 257.3) scale(.1 -.1)">
<use xlink:href="#aa"/>
</g>
</g>
<g clip-path="url(#a)">
<g transform="translate(200.76 257.3) scale(.1 -.1)">
<use xlink:href="#j"/>
<use x="97.412109" xlink:href="#e"/>
<use x="158.691406" xlink:href="#k"/>
<use x="186.474609" xlink:href="#z"/>
</g>
</g>
<g clip-path="url(#a)">
<defs>
<path id="am" d="m30.609 48.391q-7.2188 0-11.422-5.6406t-4.2031-15.453 4.1719-15.453q4.1875-5.6406 11.453-5.6406 7.1875 0 11.375 5.6562 4.2031 5.6719 4.2031 15.438 0 9.7188-4.2031 15.406-4.1875 5.6875-11.375 5.6875zm0 7.6094q11.719 0 18.406-7.625 6.7031-7.6094 6.7031-21.078 0-13.422-6.7031-21.078-6.6875-7.6406-18.406-7.6406-11.766 0-18.438 7.6406-6.6562 7.6562-6.6562 21.078 0 13.469 6.6562 21.078 6.6719 7.625 18.438 7.625z"/>
</defs>
<g transform="translate(257.48 257.3) scale(.1 -.1)">
<use xlink:href="#h"/>
<use x="63.378906" xlink:href="#am"/>
<use x="124.560547" xlink:href="#h"/>
</g>
</g>
<g clip-path="url(#a)">
<g transform="translate(321.6 257.3) scale(.1 -.1)">
<use xlink:href="#i"/>
<use x="61.523438" xlink:href="#h"/>
</g>
</g>
<g clip-path="url(#a)">
<defs>
<path id="ab" d="m18.312 70.219v-15.531h18.5v-6.9844h-18.5v-29.688q0-6.6875 1.8281-8.5938t7.4531-1.9062h9.2188v-7.5156h-9.2188q-10.406 0-14.359 3.875-3.9531 3.8906-3.9531 14.141v29.688h-6.5938v6.9844h6.5938v15.531z"/>
<path id="an" d="m54.891 33.016v-33.016h-8.9844v32.719q0 7.7656-3.0312 11.609-3.0312 3.8594-9.0781 3.8594-7.2812 0-11.484-4.6406-4.2031-4.625-4.2031-12.641v-30.906h-9.0312v75.984h9.0312v-29.797q3.2344 4.9375 7.5938 7.375 4.375 2.4375 10.094 2.4375 9.4219 0 14.25-5.8281 4.8438-5.8281 4.8438-17.156z"/>
<path id="aj" d="m56.203 29.594v-4.3906h-41.312q0.59375-9.2812 5.5938-14.141t13.938-4.8594q5.1719 0 10.031 1.2656t9.6562 3.8125v-8.5q-4.8438-2.0469-9.9219-3.125t-10.297-1.0781q-13.094 0-20.734 7.6094-7.6406 7.625-7.6406 20.625 0 13.422 7.25 21.297 7.25 7.8906 19.562 7.8906 11.031 0 17.453-7.1094 6.4219-7.0938 6.4219-19.297zm-8.9844 2.6406q-0.09375 7.3594-4.125 11.75-4.0312 4.4062-10.672 4.4062-7.5156 0-12.031-4.25t-5.2031-11.969zm-8.6875 47.75h9.7188l-15.906-18.359h-7.4844z"/>
<path id="al" d="m14.797 27.297q0-9.9062 4.0781-15.547t11.203-5.6406 11.219 5.6406q4.1094 5.6406 4.1094 15.547t-4.1094 15.547q-4.0938 5.6406-11.219 5.6406t-11.203-5.6406-4.0781-15.547zm30.609-19.094q-2.8281-4.875-7.1562-7.25-4.3125-2.375-10.375-2.375-9.9062 0-16.141 7.9062-6.2188 7.9219-6.2188 20.812t6.2188 20.797q6.2344 7.9062 16.141 7.9062 6.0625 0 10.375-2.375 4.3281-2.3594 7.1562-7.2344v8.2969h8.9844v-75.484h-8.9844z"/>
<path id="ak" d="m8.5 21.578v33.109h8.9844v-32.766q0-7.7656 3.0156-11.656 3.0312-3.875 9.0938-3.875 7.2656 0 11.484 4.6406 4.2344 4.6406 4.2344 12.656v31h8.9844v-54.688h-8.9844v8.4062q-3.2656-4.9844-7.5938-7.4062-4.3125-2.4219-10.031-2.4219-9.4219 0-14.312 5.8594-4.875 5.8594-4.875 17.141z"/>
</defs>
<g transform="translate(356.13 257.5) scale(.1 -.1)">
<use xlink:href="#j"/>
<use x="97.412109" xlink:href="#e"/>
<use x="158.691406" xlink:href="#ab"/>
<use x="197.900391" xlink:href="#an"/>
<use x="261.279297" xlink:href="#aj"/>
<use x="322.802734" xlink:href="#j"/>
<use x="420.214844" xlink:href="#e"/>
<use x="481.494141" xlink:href="#ab"/>
<use x="520.703125" xlink:href="#k"/>
<use x="548.486328" xlink:href="#al"/>
<use x="611.962891" xlink:href="#ak"/>
<use x="675.341797" xlink:href="#i"/>
<use x="736.865234" xlink:href="#z"/>
</g>
</g>
<g clip-path="url(#a)">
<defs>
<path id="d" d="m10.688 12.406h10.312v-12.406h-10.312z"/>
</defs>
<g transform="translate(468.5 257.3) scale(.1 -.1)">
<use xlink:href="#d"/>
</g>
</g>
<g clip-path="url(#a)">
<defs>
<path id="g" d="m9.8125 72.906h9.8594v-72.906h-9.8594z"/>
<path id="s" d="m9.8125 72.906h14.703l18.594-49.609 18.703 49.609h14.703v-72.906h-9.625v64.016l-18.797-50h-9.9062l-18.797 50v-64.016h-9.5781z"/>
</defs>
<g transform="translate(462.55 161.22) scale(.1 -.1)">
<use xlink:href="#g"/>
<use x="29.492188" xlink:href="#s"/>
<use x="115.771484" xlink:href="#p"/>
<use x="176.074219" xlink:href="#n"/>
<use x="231.787109" xlink:href="#g"/>
<use x="261.279297" xlink:href="#q"/>
<use x="331.103516" xlink:href="#g"/>
<use x="360.595703" xlink:href="#f"/>
</g>
</g>
<g clip-path="url(#a)">
<g transform="translate(462.55 161.22) scale(.1 -.1)">
<use xlink:href="#g"/>
<use x="29.492188" xlink:href="#s"/>
<use x="115.771484" xlink:href="#p"/>
<use x="176.074219" xlink:href="#n"/>
<use x="231.787109" xlink:href="#g"/>
<use x="261.279297" xlink:href="#q"/>
<use x="331.103516" xlink:href="#g"/>
<use x="360.595703" xlink:href="#f"/>
</g>
</g>
<g clip-path="url(#a)">
<g transform="translate(42.587 161.22) scale(.1 -.1)">
<use xlink:href="#g"/>
<use x="29.492188" xlink:href="#s"/>
<use x="115.771484" xlink:href="#p"/>
<use x="176.074219" xlink:href="#n"/>
<use x="231.787109" xlink:href="#g"/>
<use x="261.279297" xlink:href="#q"/>
<use x="331.103516" xlink:href="#g"/>
<use x="360.595703" xlink:href="#f"/>
</g>
</g>
<g clip-path="url(#a)">
<g transform="translate(42.587 161.22) scale(.1 -.1)">
<use xlink:href="#g"/>
<use x="29.492188" xlink:href="#s"/>
<use x="115.771484" xlink:href="#p"/>
<use x="176.074219" xlink:href="#n"/>
<use x="231.787109" xlink:href="#g"/>
<use x="261.279297" xlink:href="#q"/>
<use x="331.103516" xlink:href="#g"/>
<use x="360.595703" xlink:href="#f"/>
</g>
</g>
<g clip-path="url(#a)">
<g transform="translate(42.587 161.22) scale(.1 -.1)">
<use xlink:href="#g"/>
<use x="29.492188" xlink:href="#s"/>
<use x="115.771484" xlink:href="#p"/>
<use x="176.074219" xlink:href="#n"/>
<use x="231.787109" xlink:href="#g"/>
<use x="261.279297" xlink:href="#q"/>
<use x="331.103516" xlink:href="#g"/>
<use x="360.595703" xlink:href="#f"/>
</g>
</g>
<g clip-path="url(#a)">
<defs>
<path id="c" d="m12.406 8.2969h16.109v55.625l-17.531-3.5156v8.9844l17.438 3.5156h9.8594v-64.609h16.109v-8.2969h-41.984z"/>
</defs>
<g transform="translate(151.87 14.881) scale(.1 -.1)">
<use xlink:href="#c"/>
<use x="63.623047" xlink:href="#d"/>
<use x="95.410156" xlink:href="#c"/>
</g>
</g>
<g clip-path="url(#a)">
<defs>
<path id="o" d="m19.188 8.2969h34.422v-8.2969h-46.281v8.2969q5.6094 5.8125 15.297 15.594 9.7031 9.7969 12.188 12.641 4.7344 5.3125 6.6094 9 1.8906 3.6875 1.8906 7.25 0 5.8125-4.0781 9.4688-4.0781 3.6719-10.625 3.6719-4.6406 0-9.7969-1.6094-5.1406-1.6094-11-4.8906v9.9688q5.9531 2.3906 11.125 3.6094 5.1875 1.2188 9.4844 1.2188 11.328 0 18.062-5.6719 6.7344-5.6562 6.7344-15.125 0-4.5-1.6875-8.5312-1.6719-4.0156-6.125-9.4844-1.2188-1.4219-7.7656-8.1875-6.5312-6.7656-18.453-18.922z"/>
</defs>
<g transform="translate(151.87 63.798) scale(.1 -.1)">
<use xlink:href="#c"/>
<use x="63.623047" xlink:href="#d"/>
<use x="95.410156" xlink:href="#o"/>
</g>
</g>
<g clip-path="url(#a)">
<defs>
<path id="y" d="m40.578 39.312q7.0781-1.5156 11.047-6.3125 3.9844-4.7812 3.9844-11.812 0-10.781-7.4219-16.703-7.4219-5.9062-21.094-5.9062-4.5781 0-9.4375 0.90625t-10.031 2.7188v9.5156q4.0938-2.3906 8.9688-3.6094 4.8906-1.2188 10.219-1.2188 9.2656 0 14.125 3.6562t4.8594 10.641q0 6.4531-4.5156 10.078-4.5156 3.6406-12.562 3.6406h-8.5v8.1094h8.8906q7.2656 0 11.125 2.9062t3.8594 8.375q0 5.6094-3.9844 8.6094-3.9688 3.0156-11.391 3.0156-4.0625 0-8.7031-0.89062-4.6406-0.875-10.203-2.7188v8.7812q5.625 1.5625 10.531 2.3438t9.25 0.78125q11.234 0 17.766-5.1094 6.5469-5.0938 6.5469-13.781 0-6.0625-3.4688-10.234t-9.8594-5.7812z"/>
</defs>
<g transform="translate(25.239 112.59) scale(.1 -.1)">
<use xlink:href="#c"/>
<use x="63.623047" xlink:href="#d"/>
<use x="95.410156" xlink:href="#y"/>
</g>
</g>
<g clip-path="url(#a)">
<defs>
<path id="x" d="m37.797 64.312-24.906-38.922h24.906zm-2.5938 8.5938h12.406v-47.516h10.406v-8.2031h-10.406v-17.188h-9.8125v17.188h-32.906v9.5156z"/>
</defs>
<g transform="translate(116.68 209.59) scale(.1 -.1)">
<use xlink:href="#c"/>
<use x="63.623047" xlink:href="#d"/>
<use x="95.410156" xlink:href="#x"/>
</g>
</g>
<g clip-path="url(#a)">
<defs>
<path id="w" d="m10.797 72.906h38.719v-8.3125h-29.688v-17.859q2.1406 0.73438 4.2812 1.0938 2.1562 0.35938 4.3125 0.35938 12.203 0 19.328-6.6875 7.1406-6.6875 7.1406-18.109 0-11.766-7.3281-18.297-7.3281-6.5156-20.656-6.5156-4.5938 0-9.3594 0.78125-4.75 0.78125-9.8281 2.3438v9.9219q4.3906-2.3906 9.0781-3.5625t9.9062-1.1719q8.4531 0 13.375 4.4375 4.9375 4.4375 4.9375 12.062 0 7.6094-4.9375 12.047-4.9219 4.4531-13.375 4.4531-3.9531 0-7.8906-0.875-3.9219-0.875-8.0156-2.7344z"/>
</defs>
<g transform="translate(204.74 209.59) scale(.1 -.1)">
<use xlink:href="#c"/>
<use x="63.623047" xlink:href="#d"/>
<use x="95.410156" xlink:href="#w"/>
</g>
</g>
<g clip-path="url(#a)">
<defs>
<path id="ah" d="m33.016 40.375q-6.6406 0-10.531-4.5469-3.875-4.5312-3.875-12.438 0-7.8594 3.875-12.438 3.8906-4.5625 10.531-4.5625t10.516 4.5625q3.875 4.5781 3.875 12.438 0 7.9062-3.875 12.438-3.875 4.5469-10.516 4.5469zm19.578 30.922v-8.9844q-3.7188 1.75-7.5 2.6719-3.7812 0.9375-7.5 0.9375-9.7656 0-14.922-6.5938-5.1406-6.5938-5.875-19.922 2.875 4.25 7.2188 6.5156 4.3594 2.2656 9.5781 2.2656 10.984 0 17.359-6.6719 6.375-6.6562 6.375-18.125 0-11.234-6.6406-18.031-6.6406-6.7812-17.672-6.7812-12.656 0-19.344 9.6875-6.6875 9.7031-6.6875 28.109 0 17.281 8.2031 27.562t22.016 10.281q3.7188 0 7.5-0.73438t7.8906-2.1875z"/>
</defs>
<g transform="translate(324.41 112.59) scale(.1 -.1)">
<use xlink:href="#c"/>
<use x="63.623047" xlink:href="#d"/>
<use x="95.410156" xlink:href="#ah"/>
</g>
</g>
<g clip-path="url(#a)">
<g transform="translate(255.75 209.59) scale(.1 -.1)">
<use xlink:href="#c"/>
<use x="63.623047" xlink:href="#d"/>
<use x="95.410156" xlink:href="#c"/>
<use x="159.033203" xlink:href="#o"/>
</g>
</g>
<g clip-path="url(#a)">
<g transform="translate(386.7 161.22) scale(.1 -.1)">
<use xlink:href="#c"/>
<use x="63.623047" xlink:href="#d"/>
<use x="95.410156" xlink:href="#c"/>
<use x="159.033203" xlink:href="#y"/>
</g>
</g>
<g clip-path="url(#a)">
<g transform="translate(316.71 209.59) scale(.1 -.1)">
<use xlink:href="#c"/>
<use x="63.623047" xlink:href="#d"/>
<use x="95.410156" xlink:href="#c"/>
<use x="159.033203" xlink:href="#x"/>
</g>
</g>
<g clip-path="url(#a)">
<g transform="translate(384.45 209.59) scale(.1 -.1)">
<use xlink:href="#c"/>
<use x="63.623047" xlink:href="#d"/>
<use x="95.410156" xlink:href="#c"/>
<use x="159.033203" xlink:href="#w"/>
</g>
</g>
<g clip-path="url(#a)">
<defs>
<path id="ag" d="m10.984 1.5156v8.9844q3.7188-1.7656 7.5156-2.6875 3.8125-0.92188 7.4844-0.92188 9.7656 0 14.906 6.5625 5.1562 6.5625 5.8906 19.953-2.8281-4.2031-7.1875-6.4531-4.3438-2.25-9.6094-2.25-10.938 0-17.312 6.6094-6.375 6.625-6.375 18.109 0 11.219 6.6406 18 6.6406 6.7969 17.672 6.7969 12.656 0 19.312-9.7031 6.6719-9.6875 6.6719-28.141 0-17.234-8.1875-27.516-8.1719-10.281-21.984-10.281-3.7188 0-7.5312 0.73438-3.7969 0.73438-7.9062 2.2031zm19.625 30.906q6.6406 0 10.516 4.5312 3.8906 4.5469 3.8906 12.469 0 7.8594-3.8906 12.422-3.875 4.5625-10.516 4.5625t-10.516-4.5625-3.875-12.422q0-7.9219 3.875-12.469 3.875-4.5312 10.516-4.5312z"/>
</defs>
<g transform="translate(22.058 161.22) scale(.1 -.1)">
<use xlink:href="#c"/>
<use x="63.623047" xlink:href="#d"/>
<use x="95.410156" xlink:href="#c"/>
<use x="159.033203" xlink:href="#ag"/>
</g>
</g>
<g clip-path="url(#a)">
<defs>
<path id="ai" d="m31.781 66.406q-7.6094 0-11.453-7.5-3.8281-7.4844-3.8281-22.531 0-14.984 3.8281-22.484 3.8438-7.5 11.453-7.5 7.6719 0 11.5 7.5 3.8438 7.5 3.8438 22.484 0 15.047-3.8438 22.531-3.8281 7.5-11.5 7.5zm0 7.8125q12.266 0 18.734-9.7031 6.4688-9.6875 6.4688-28.141 0-18.406-6.4688-28.109-6.4688-9.6875-18.734-9.6875-12.25 0-18.719 9.6875-6.4688 9.7031-6.4688 28.109 0 18.453 6.4688 28.141 6.4688 9.7031 18.719 9.7031z"/>
</defs>
<g transform="translate(11.897 209.59) scale(.1 -.1)">
<use xlink:href="#c"/>
<use x="63.623047" xlink:href="#d"/>
<use x="95.410156" xlink:href="#o"/>
<use x="159.033203" xlink:href="#ai"/>
</g>
</g>
<g clip-path="url(#a)">
<g transform="translate(32.218 209.59) scale(.1 -.1)">
<use xlink:href="#c"/>
<use x="63.623047" xlink:href="#d"/>
<use x="95.410156" xlink:href="#o"/>
<use x="159.033203" xlink:href="#c"/>
</g>
</g>
<g clip-path="url(#a)">
<g transform="translate(181.61 63.798) scale(.1 -.1)">
<use xlink:href="#c"/>
<use x="63.623047" xlink:href="#d"/>
<use x="95.410156" xlink:href="#o"/>
<use x="159.033203" xlink:href="#o"/>
</g>
</g>
<g clip-path="url(#a)">
<g transform="translate(79.634 209.59) scale(.1 -.1)">
<use xlink:href="#c"/>
<use x="63.623047" xlink:href="#d"/>
<use x="95.410156" xlink:href="#o"/>
<use x="159.033203" xlink:href="#y"/>
</g>
</g>
<g clip-path="url(#a)">
<g transform="translate(154.14 209.59) scale(.1 -.1)">
<use xlink:href="#c"/>
<use x="63.623047" xlink:href="#d"/>
<use x="95.410156" xlink:href="#o"/>
<use x="159.033203" xlink:href="#x"/>
</g>
</g>
<g clip-path="url(#a)">
<g transform="translate(458.96 209.59) scale(.1 -.1)">
<use xlink:href="#c"/>
<use x="63.623047" xlink:href="#d"/>
<use x="95.410156" xlink:href="#o"/>
<use x="159.033203" xlink:href="#w"/>
</g>
</g>
<defs>
<clipPath id="a">
<rect width="506.67" height="266.67"/>
</clipPath>
</defs>
</svg>
