<?xml version="1.0" encoding="UTF-8"?>
<!DOCTYPE svg  PUBLIC '-//W3C//DTD SVG 1.1//EN'  'http://www.w3.org/Graphics/SVG/1.1/DTD/svg11.dtd'>
<svg width="1621.3pt" height="853.33pt" version="1.1" viewBox="0 0 1621.3 853.33" xmlns="http://www.w3.org/2000/svg" xmlns:xlink="http://www.w3.org/1999/xlink">
<defs>
<style type="text/css">*{stroke-linecap:butt;stroke-linejoin:round;}</style>
</defs>
<path d="m0 853.33h1621.3v-853.33h-1621.3z" fill="#fff"/>
<g fill="none" stroke="#000">
<path d="m349.07 39.376-132.59 613.73" clip-path="url(#a)"/>
<path d="m349.07 39.376 57.549 694.16" clip-path="url(#a)"/>
<path d="m349.07 39.376 187.6 95.083" clip-path="url(#a)"/>
<path d="m349.07 39.376 152.62 694.16" clip-path="url(#a)"/>
<path d="m349.07 39.376-275.19 694.16" clip-path="url(#a)"/>
<path d="m349.07 39.376 10.014 694.16" clip-path="url(#a)"/>
<path d="m216.48 653.1-95.069 160.85" clip-path="url(#a)"/>
<path d="m216.48 653.1-47.535 160.85" clip-path="url(#a)"/>
<path d="m216.48 653.1v160.85" clip-path="url(#a)"/>
<path d="m216.48 653.1 95.069 160.85" clip-path="url(#a)"/>
<path d="m216.48 653.1 47.535 80.427" clip-path="url(#a)"/>
<path d="m406.62 733.53v80.427" clip-path="url(#a)"/>
<path d="m536.68 134.46-82.52 599.07" clip-path="url(#a)"/>
<path d="m536.68 134.46 82.52 92.22" clip-path="url(#a)"/>
<path d="m501.69 733.53v80.427" clip-path="url(#a)"/>
<path d="m454.16 733.53v80.427" clip-path="url(#a)"/>
<path d="m619.2 226.68-69.971 506.85" clip-path="url(#a)"/>
<path d="m619.2 226.68-22.437 506.85" clip-path="url(#a)"/>
<path d="m619.2 226.68 92.408 89.581" clip-path="url(#a)"/>
<path d="m549.23 733.53v80.427" clip-path="url(#a)"/>
<path d="m596.76 733.53v80.427" clip-path="url(#a)"/>
<path d="m711.61 316.26-114.84 417.27" clip-path="url(#a)" stroke-dasharray="3.7,1.6"/>
<path d="m711.61 316.26-67.31 417.27" clip-path="url(#a)"/>
<path d="m711.61 316.26 3.9922 336.84" clip-path="url(#a)"/>
<path d="m711.61 316.26 178.16 87.174" clip-path="url(#a)"/>
<path d="m644.3 733.53v80.427" clip-path="url(#a)"/>
<path d="m715.6 653.1-23.767 80.427" clip-path="url(#a)"/>
<path d="m715.6 653.1 23.767 80.427" clip-path="url(#a)"/>
<path d="m889.77 403.43-102.87 330.1" clip-path="url(#a)"/>
<path d="m889.77 403.43-55.333 330.1" clip-path="url(#a)"/>
<path d="m889.77 403.43-7.7987 330.1" clip-path="url(#a)"/>
<path d="m889.77 403.43 166 85.01" clip-path="url(#a)"/>
<path d="m786.9 733.53v80.427" clip-path="url(#a)"/>
<path d="m834.43 733.53v80.427" clip-path="url(#a)"/>
<path d="m881.97 733.53v80.427" clip-path="url(#a)"/>
<path d="m1055.8 488.44-173.8 245.09" clip-path="url(#a)" stroke-dasharray="3.7,1.6"/>
<path d="m1055.8 488.44-126.26 245.09" clip-path="url(#a)"/>
<path d="m1055.8 488.44 4.4564 83.116" clip-path="url(#a)"/>
<path d="m1055.8 488.44 295.61 83.116" clip-path="url(#a)"/>
<path d="m929.5 733.53v80.427" clip-path="url(#a)"/>
<path d="m1060.2 571.56-83.186 161.97" clip-path="url(#a)"/>
<path d="m1060.2 571.56-35.651 161.97" clip-path="url(#a)"/>
<path d="m1060.2 571.56 11.884 161.97" clip-path="url(#a)"/>
<path d="m1060.2 571.56 106.95 81.546" clip-path="url(#a)"/>
<path d="m1351.4 571.56-89.127 161.97" clip-path="url(#a)"/>
<path d="m1351.4 571.56-41.593 161.97" clip-path="url(#a)"/>
<path d="m1351.4 571.56 5.9418 161.97" clip-path="url(#a)"/>
<path d="m1351.4 571.56 124.78 81.546" clip-path="url(#a)"/>
<path d="m1262.2 733.53v80.427" clip-path="url(#a)"/>
<path d="m1309.8 733.53v80.427" clip-path="url(#a)"/>
<path d="m1357.3 733.53v80.427" clip-path="url(#a)"/>
<path d="m1476.2 653.1-71.302 80.427" clip-path="url(#a)"/>
<path d="m1476.2 653.1-23.767 80.427" clip-path="url(#a)"/>
<path d="m1476.2 653.1 23.767 80.427" clip-path="url(#a)"/>
<path d="m1476.2 653.1 71.302 80.427" clip-path="url(#a)"/>
<path d="m1404.8 733.53v80.427" clip-path="url(#a)"/>
<path d="m1452.4 733.53v80.427" clip-path="url(#a)"/>
<path d="m1499.9 733.53v80.427" clip-path="url(#a)"/>
<path d="m977.04 733.53v80.427" clip-path="url(#a)"/>
<path d="m1024.6 733.53v80.427" clip-path="url(#a)"/>
<path d="m1072.1 733.53v80.427" clip-path="url(#a)"/>
<path d="m1167.2 653.1-47.535 80.427" clip-path="url(#a)"/>
<path d="m1167.2 653.1v80.427" clip-path="url(#a)"/>
<path d="m1167.2 653.1 47.535 80.427" clip-path="url(#a)"/>
<path d="m1119.6 733.53v80.427" clip-path="url(#a)"/>
<path d="m1167.2 733.53v80.427" clip-path="url(#a)"/>
<path d="m1214.7 733.53v80.427" clip-path="url(#a)"/>
<path d="m691.83 733.53v80.427" clip-path="url(#a)"/>
<path d="m739.36 733.53v80.427" clip-path="url(#a)"/>
<path d="m73.88 733.53v80.427" clip-path="url(#a)"/>
<path d="m519.18 39.376 17.493 95.083" clip-path="url(#a)"/>
<path d="m519.18 39.376-17.493 694.16" clip-path="url(#a)"/>
<path d="m386.59 39.376-170.11 613.73" clip-path="url(#a)"/>
<path d="m386.59 39.376 20.028 694.16" clip-path="url(#a)"/>
<path d="m386.59 39.376 150.08 95.083" clip-path="url(#a)"/>
<path d="m264.02 733.53v80.427" clip-path="url(#a)"/>
<path d="m359.09 733.53v80.427" clip-path="url(#a)"/>
<path d="m1547.5 733.53v80.427" clip-path="url(#a)"/>
</g>
<path d="m288.27 350.5 1.2704-5.8806q0.5068-2.3459-1.8391-2.8527l-7.5679-1.635q-2.3459-0.5068-2.8527 1.8391l-1.2704 5.8806q-0.5068 2.3459 1.8391 2.8527l7.5679 1.635q2.3459 0.5068 2.8527-1.8391z" clip-path="url(#a)" fill="#fff" stroke="#fff"/>
<g clip-path="url(#a)">
<defs>
<path id="al" d="m9.8125 72.906h9.8594v-29.891h35.844v29.891h9.8594v-72.906h-9.8594v34.719h-35.844v-34.719h-9.8594z"/>
</defs>
<g transform="translate(284.3 349.65) rotate(-77.809) scale(.08 -.08)">
<use xlink:href="#al"/>
</g>
</g>
<path d="m371.41 384.75 0.36828 4.4423q0.19829 2.3918 2.5901 2.1935l7.716-0.63969q2.3918-0.19829 2.1935-2.5901l-0.36828-4.4423q-0.19829-2.3918-2.5901-2.1935l-7.716 0.63969q-2.3918 0.19829-2.1935 2.5901z" clip-path="url(#a)" fill="#fff" stroke="#fff"/>
<g clip-path="url(#a)">
<defs>
<path id="v" d="m9.8125 72.906h9.8594v-64.609h35.5v-8.2969h-45.359z"/>
</defs>
<g transform="translate(375.46 384.41) rotate(85.261) scale(.08 -.08)">
<use xlink:href="#v"/>
</g>
</g>
<path d="m437.36 91.151 5.3664 2.7198q2.1407 1.085 3.2257-1.0558l3.5002-6.9061q1.085-2.1407-1.0557-3.2257l-5.3664-2.7198q-2.1407-1.085-3.2257 1.0557l-3.5002 6.9061q-1.085 2.1407 1.0558 3.2257z" clip-path="url(#a)" fill="#fff" stroke="#fff"/>
<g clip-path="url(#a)">
<g transform="translate(439.19 87.526) rotate(26.877) scale(.08 -.08)">
<use xlink:href="#al"/>
</g>
</g>
<path d="m418.78 385.62 0.95717 4.3535q0.51536 2.344 2.8594 1.8287l7.5619-1.6626q2.344-0.51536 1.8287-2.8594l-0.95717-4.3535q-0.51536-2.344-2.8594-1.8287l-7.5619 1.6626q-2.344 0.51536-1.8287 2.8594z" clip-path="url(#a)" fill="#fff" stroke="#fff"/>
<g clip-path="url(#a)">
<g transform="translate(422.75 384.75) rotate(77.6) scale(.08 -.08)">
<use xlink:href="#v"/>
</g>
</g>
<path d="m216.23 391.49 2.1578-5.4429q0.8845-2.2311-1.3466-3.1156l-7.1975-2.8534q-2.2311-0.88449-3.1156 1.3466l-2.1578 5.4429q-0.88449 2.2311 1.3466 3.1156l7.1975 2.8534q2.2311 0.88449 3.1156-1.3466z" clip-path="url(#a)" fill="#fff" stroke="#fff"/>
<g clip-path="url(#a)">
<defs>
<path id="ac" d="m8.6875 72.906h9.9219v-44.297q0-11.719 4.2344-16.875 4.25-5.1406 13.781-5.1406 9.4688 0 13.719 5.1406 4.25 5.1562 4.25 16.875v44.297h9.9062v-45.516q0-14.25-7.0625-21.531-7.0469-7.2812-20.812-7.2812-13.828 0-20.891 7.2812-7.0469 7.2812-7.0469 21.531z"/>
</defs>
<g transform="translate(212.45 389.99) rotate(-68.374) scale(.08 -.08)">
<use xlink:href="#ac"/>
</g>
</g>
<path d="m347.77 383.62 0.084456 5.8544q0.034619 2.3998 2.4344 2.3651l7.7417-0.11168q2.3998-0.034619 2.3651-2.4344l-0.084456-5.8544q-0.034619-2.3998-2.4344-2.3651l-7.7417 0.11168q-2.3998 0.034619-2.3651 2.4344z" clip-path="url(#a)" fill="#fff" stroke="#fff"/>
<g clip-path="url(#a)">
<g transform="translate(351.83 383.56) rotate(89.174) scale(.08 -.08)">
<use xlink:href="#ac"/>
</g>
</g>
<path d="m165.37 751.91 17.953-30.376q1.2211-2.0661-0.84498-3.2872l-6.6654-3.9394q-2.0661-1.2211-3.2872 0.84498l-17.953 30.376q-1.2211 2.0661 0.84498 3.2872l6.6654 3.9394q2.0661 1.2211 3.2872-0.84498z" clip-path="url(#a)" fill="#fff" stroke="#fff"/>
<g clip-path="url(#a)">
<defs>
<path id="l" d="m-0.29688 72.906h61.672v-8.3125h-25.875v-64.594h-9.9062v64.594h-25.891z"/>
<path id="d" d="m56.203 29.594v-4.3906h-41.312q0.59375-9.2812 5.5938-14.141t13.938-4.8594q5.1719 0 10.031 1.2656t9.6562 3.8125v-8.5q-4.8438-2.0469-9.9219-3.125t-10.297-1.0781q-13.094 0-20.734 7.6094-7.6406 7.625-7.6406 20.625 0 13.422 7.25 21.297 7.25 7.8906 19.562 7.8906 11.031 0 17.453-7.1094 6.4219-7.0938 6.4219-19.297zm-8.9844 2.6406q-0.09375 7.3594-4.125 11.75-4.0312 4.4062-10.672 4.4062-7.5156 0-12.031-4.25t-5.2031-11.969z"/>
<path id="g" d="m41.109 46.297q-1.5156 0.875-3.2969 1.2812-1.7812 0.42188-3.9219 0.42188-7.625 0-11.703-4.9531t-4.0781-14.234v-28.812h-9.0312v54.688h9.0312v-8.5q2.8438 4.9844 7.375 7.3906 4.5469 2.4219 11.047 2.4219 0.92188 0 2.0469-0.125 1.125-0.10938 2.4844-0.35938z"/>
<path id="k" d="m52 44.188q3.375 6.0625 8.0625 8.9375t11.031 2.875q8.5469 0 13.188-5.9844 4.6406-5.9688 4.6406-17v-33.016h-9.0312v32.719q0 7.8594-2.7969 11.656-2.7812 3.8125-8.4844 3.8125-6.9844 0-11.047-4.6406-4.0469-4.625-4.0469-12.641v-30.906h-9.0312v32.719q0 7.9062-2.7812 11.688t-8.5938 3.7812q-6.8906 0-10.953-4.6562-4.0469-4.6562-4.0469-12.625v-30.906h-9.0312v54.688h9.0312v-8.5q3.0781 5.0312 7.375 7.4219t10.203 2.3906q5.9688 0 10.141-3.0312 4.1719-3.0156 6.1719-8.7812z"/>
<path id="j" d="m9.4219 54.688h8.9844v-54.688h-8.9844zm0 21.297h8.9844v-11.391h-8.9844z"/>
<path id="h" d="m54.891 33.016v-33.016h-8.9844v32.719q0 7.7656-3.0312 11.609-3.0312 3.8594-9.0781 3.8594-7.2812 0-11.484-4.6406-4.2031-4.625-4.2031-12.641v-30.906h-9.0312v54.688h9.0312v-8.5q3.2344 4.9375 7.5938 7.375 4.375 2.4375 10.094 2.4375 9.4219 0 14.25-5.8281 4.8438-5.8281 4.8438-17.156z"/>
<path id="e" d="m34.281 27.484q-10.891 0-15.094-2.4844t-4.2031-8.5q0-4.7812 3.1562-7.5938 3.1562-2.7969 8.5625-2.7969 7.4844 0 12 5.2969t4.5156 14.078v2zm17.922 3.7188v-31.203h-8.9844v8.2969q-3.0781-4.9688-7.6719-7.3438t-11.234-2.375q-8.3906 0-13.359 4.7188-4.9531 4.7188-4.9531 12.625 0 9.2188 6.1719 13.906 6.1875 4.6875 18.438 4.6875h12.609v0.89062q0 6.2031-4.0781 9.5938t-11.453 3.3906q-4.6875 0-9.1406-1.125-4.4375-1.125-8.5312-3.375v8.3125q4.9219 1.9062 9.5625 2.8438 4.6406 0.95312 9.0312 0.95312 11.875 0 17.734-6.1562 5.8594-6.1406 5.8594-18.641z"/>
<path id="i" d="m9.4219 75.984h8.9844v-75.984h-8.9844z"/>
</defs>
<g transform="translate(161.87 749.84) rotate(-59.416) scale(.08 -.08)">
<use xlink:href="#l"/>
<use x="60.818359" xlink:href="#d"/>
<use x="122.341797" xlink:href="#g"/>
<use x="163.439453" xlink:href="#k"/>
<use x="260.851562" xlink:href="#j"/>
<use x="288.634766" xlink:href="#h"/>
<use x="352.013672" xlink:href="#e"/>
<use x="413.292969" xlink:href="#i"/>
</g>
</g>
<path d="m193.73 752.23 9.9998-33.838q0.68016-2.3016-1.6214-2.9818l-7.4251-2.1942q-2.3016-0.68016-2.9818 1.6214l-9.9998 33.838q-0.68016 2.3016 1.6214 2.9818l7.4251 2.1942q2.3016 0.68016 2.9818-1.6214z" clip-path="url(#a)" fill="#fff" stroke="#fff"/>
<g clip-path="url(#a)">
<g transform="translate(189.83 751.08) rotate(-73.537) scale(.08 -.08)">
<use xlink:href="#l"/>
<use x="60.818359" xlink:href="#d"/>
<use x="122.341797" xlink:href="#g"/>
<use x="163.439453" xlink:href="#k"/>
<use x="260.851562" xlink:href="#j"/>
<use x="288.634766" xlink:href="#h"/>
<use x="352.013672" xlink:href="#e"/>
<use x="413.292969" xlink:href="#i"/>
</g>
</g>
<path d="m210.21 715.89v35.285q0 2.4 2.4 2.4h7.7425q2.4 0 2.4-2.4v-35.285q0-2.4-2.4-2.4h-7.7425q-2.4 0-2.4 2.4z" clip-path="url(#a)" fill="#fff" stroke="#fff"/>
<g clip-path="url(#a)">
<g transform="translate(214.28 715.89) rotate(90) scale(.08 -.08)">
<use xlink:href="#l"/>
<use x="60.818359" xlink:href="#d"/>
<use x="122.341797" xlink:href="#g"/>
<use x="163.439453" xlink:href="#k"/>
<use x="260.851562" xlink:href="#j"/>
<use x="288.634766" xlink:href="#h"/>
<use x="352.013672" xlink:href="#e"/>
<use x="413.292969" xlink:href="#i"/>
</g>
</g>
<path d="m249.64 721.53 17.953 30.376q1.2211 2.0661 3.2872 0.84498l6.6654-3.9394q2.0661-1.2211 0.84498-3.2872l-17.953-30.376q-1.2211-2.0661-3.2872-0.84498l-6.6654 3.9394q-2.0661 1.2211-0.84498 3.2872z" clip-path="url(#a)" fill="#fff" stroke="#fff"/>
<g clip-path="url(#a)">
<g transform="translate(253.14 719.47) rotate(59.416) scale(.08 -.08)">
<use xlink:href="#l"/>
<use x="60.818359" xlink:href="#d"/>
<use x="122.341797" xlink:href="#g"/>
<use x="163.439453" xlink:href="#k"/>
<use x="260.851562" xlink:href="#j"/>
<use x="288.634766" xlink:href="#h"/>
<use x="352.013672" xlink:href="#e"/>
<use x="413.292969" xlink:href="#i"/>
</g>
</g>
<path d="m233.36 693.99 2.9791 5.0405q1.2211 2.0661 3.2872 0.84498l6.6654-3.9394q2.0661-1.2211 0.84498-3.2872l-2.9791-5.0405q-1.2211-2.0661-3.2872-0.84498l-6.6654 3.9394q-2.0661 1.2211-0.84498 3.2872z" clip-path="url(#a)" fill="#fff" stroke="#fff"/>
<g clip-path="url(#a)">
<g transform="translate(236.86 691.92) rotate(59.416) scale(.08 -.08)">
<use xlink:href="#ac"/>
</g>
</g>
<path d="m400.35 756.1v35.285q0 2.4 2.4 2.4h7.7425q2.4 0 2.4-2.4v-35.285q0-2.4-2.4-2.4h-7.7425q-2.4 0-2.4 2.4z" clip-path="url(#a)" fill="#fff" stroke="#fff"/>
<g clip-path="url(#a)">
<g transform="translate(404.41 756.1) rotate(90) scale(.08 -.08)">
<use xlink:href="#l"/>
<use x="60.818359" xlink:href="#d"/>
<use x="122.341797" xlink:href="#g"/>
<use x="163.439453" xlink:href="#k"/>
<use x="260.851562" xlink:href="#j"/>
<use x="288.634766" xlink:href="#h"/>
<use x="352.013672" xlink:href="#e"/>
<use x="413.292969" xlink:href="#i"/>
</g>
</g>
<path d="m501.3 437.24 0.65824-4.7786q0.3275-2.3776-2.05-2.705l-7.6701-1.0565q-2.3776-0.3275-2.705 2.05l-0.65824 4.7786q-0.3275 2.3776 2.05 2.705l7.6701 1.0565q2.3776 0.3275 2.705-2.05z" clip-path="url(#a)" fill="#fff" stroke="#fff"/>
<g clip-path="url(#a)">
<defs>
<path id="ai" d="m19.672 64.797v-27.391h12.406q6.8906 0 10.641 3.5625 3.7656 3.5625 3.7656 10.156 0 6.5469-3.7656 10.109-3.75 3.5625-10.641 3.5625zm-9.8594 8.1094h22.266q12.266 0 18.531-5.5469 6.2812-5.5469 6.2812-16.234 0-10.797-6.2812-16.312-6.2656-5.5156-18.531-5.5156h-12.406v-29.297h-9.8594z"/>
</defs>
<g transform="translate(497.27 436.69) rotate(-82.157) scale(.08 -.08)">
<use xlink:href="#ai"/>
</g>
</g>
<path d="m571.44 182.71 3.6492 4.0782q1.6004 1.7885 3.3889 0.18811l5.7698-5.1629q1.7885-1.6004 0.18811-3.3889l-3.6492-4.0782q-1.6004-1.7885-3.3889-0.18811l-5.7698 5.1629q-1.7885 1.6004-0.18811 3.3889z" clip-path="url(#a)" fill="#fff" stroke="#fff"/>
<g clip-path="url(#a)">
<defs>
<path id="u" d="m34.188 63.188-13.391-36.281h26.812zm-5.5781 9.7188h11.188l27.781-72.906h-10.25l-6.6406 18.703h-32.859l-6.6406-18.703h-10.406z"/>
</defs>
<g transform="translate(574.47 180) rotate(48.177) scale(.08 -.08)">
<use xlink:href="#u"/>
</g>
</g>
<path d="m495.42 756.1v35.285q0 2.4 2.4 2.4h7.7425q2.4 0 2.4-2.4v-35.285q0-2.4-2.4-2.4h-7.7425q-2.4 0-2.4 2.4z" clip-path="url(#a)" fill="#fff" stroke="#fff"/>
<g clip-path="url(#a)">
<g transform="translate(499.48 756.1) rotate(90) scale(.08 -.08)">
<use xlink:href="#l"/>
<use x="60.818359" xlink:href="#d"/>
<use x="122.341797" xlink:href="#g"/>
<use x="163.439453" xlink:href="#k"/>
<use x="260.851562" xlink:href="#j"/>
<use x="288.634766" xlink:href="#h"/>
<use x="352.013672" xlink:href="#e"/>
<use x="413.292969" xlink:href="#i"/>
</g>
</g>
<path d="m447.89 756.1v35.285q0 2.4 2.4 2.4h7.7425q2.4 0 2.4-2.4v-35.285q0-2.4-2.4-2.4h-7.7425q-2.4 0-2.4 2.4z" clip-path="url(#a)" fill="#fff" stroke="#fff"/>
<g clip-path="url(#a)">
<g transform="translate(451.95 756.1) rotate(90) scale(.08 -.08)">
<use xlink:href="#l"/>
<use x="60.818359" xlink:href="#d"/>
<use x="122.341797" xlink:href="#g"/>
<use x="163.439453" xlink:href="#k"/>
<use x="260.851562" xlink:href="#j"/>
<use x="288.634766" xlink:href="#h"/>
<use x="352.013672" xlink:href="#e"/>
<use x="413.292969" xlink:href="#i"/>
</g>
</g>
<path d="m590.04 483.72 0.76018-5.5065q0.32821-2.3775-2.0492-2.7057l-7.6698-1.0588q-2.3775-0.32821-2.7057 2.0492l-0.76018 5.5065q-0.32821 2.3775 2.0492 2.7057l7.6698 1.0588q2.3775 0.32821 2.7057-2.0492z" clip-path="url(#a)" fill="#fff" stroke="#fff"/>
<g clip-path="url(#a)">
<defs>
<path id="s" d="m44.391 34.188q3.1719-1.0781 6.1719-4.5938t6.0312-9.6719l10.016-19.922h-10.609l-9.3125 18.703q-3.625 7.3281-7.0156 9.7188t-9.25 2.3906h-10.75v-30.812h-9.8594v72.906h22.266q12.5 0 18.656-5.2344 6.1562-5.2188 6.1562-15.766 0-6.8906-3.2031-11.438-3.2031-4.5312-9.2969-6.2812zm-24.719 30.609v-25.875h12.406q7.125 0 10.766 3.2969t3.6406 9.6875-3.6406 9.6406-10.766 3.25z"/>
</defs>
<g transform="translate(586.02 483.16) rotate(-82.14) scale(.08 -.08)">
<use xlink:href="#s"/>
</g>
</g>
<path d="m614.12 483.17 0.24704-5.5808q0.10614-2.3977-2.2915-2.5038l-7.7349-0.3424q-2.3977-0.10614-2.5038 2.2915l-0.24704 5.5808q-0.10614 2.3977 2.2915 2.5038l7.7349 0.3424q2.3977 0.10614 2.5038-2.2915z" clip-path="url(#a)" fill="#fff" stroke="#fff"/>
<g clip-path="url(#a)">
<defs>
<path id="t" d="m64.406 67.281v-10.391q-4.9844 4.6406-10.625 6.9219-5.6406 2.2969-11.984 2.2969-12.5 0-19.141-7.6406t-6.6406-22.094q0-14.406 6.6406-22.047t19.141-7.6406q6.3438 0 11.984 2.2969t10.625 6.9375v-10.312q-5.1719-3.5156-10.969-5.2812-5.7812-1.75-12.219-1.75-16.562 0-26.094 10.125-9.5156 10.141-9.5156 27.672 0 17.578 9.5156 27.703 9.5312 10.141 26.094 10.141 6.5312 0 12.312-1.7344 5.7969-1.7344 10.875-5.2031z"/>
</defs>
<g transform="translate(610.06 482.99) rotate(-87.465) scale(.08 -.08)">
<use xlink:href="#t"/>
</g>
</g>
<path d="m659.22 274.21 3.6295 3.5185q1.7232 1.6705 3.3937-0.05271l5.3891-5.5591q1.6705-1.7232-0.05271-3.3937l-3.6295-3.5185q-1.7232-1.6705-3.3937 0.05271l-5.3891 5.5591q-1.6705 1.7232 0.05271 3.3937z" clip-path="url(#a)" fill="#fff" stroke="#fff"/>
<g clip-path="url(#a)">
<defs>
<path id="o" d="m9.8125 72.906h46.094v-8.3125h-36.234v-21.578h34.719v-8.2969h-34.719v-26.422h37.109v-8.2969h-46.969z"/>
</defs>
<g transform="translate(662.05 271.29) rotate(44.11) scale(.08 -.08)">
<use xlink:href="#o"/>
</g>
</g>
<path d="m542.95 756.1v35.285q0 2.4 2.4 2.4h7.7425q2.4 0 2.4-2.4v-35.285q0-2.4-2.4-2.4h-7.7425q-2.4 0-2.4 2.4z" clip-path="url(#a)" fill="#fff" stroke="#fff"/>
<g clip-path="url(#a)">
<g transform="translate(547.02 756.1) rotate(90) scale(.08 -.08)">
<use xlink:href="#l"/>
<use x="60.818359" xlink:href="#d"/>
<use x="122.341797" xlink:href="#g"/>
<use x="163.439453" xlink:href="#k"/>
<use x="260.851562" xlink:href="#j"/>
<use x="288.634766" xlink:href="#h"/>
<use x="352.013672" xlink:href="#e"/>
<use x="413.292969" xlink:href="#i"/>
</g>
</g>
<path d="m590.49 756.1v35.285q0 2.4 2.4 2.4h7.7425q2.4 0 2.4-2.4v-35.285q0-2.4-2.4-2.4h-7.7425q-2.4 0-2.4 2.4z" clip-path="url(#a)" fill="#fff" stroke="#fff"/>
<g clip-path="url(#a)">
<g transform="translate(594.55 756.1) rotate(90) scale(.08 -.08)">
<use xlink:href="#l"/>
<use x="60.818359" xlink:href="#d"/>
<use x="122.341797" xlink:href="#g"/>
<use x="163.439453" xlink:href="#k"/>
<use x="260.851562" xlink:href="#j"/>
<use x="288.634766" xlink:href="#h"/>
<use x="352.013672" xlink:href="#e"/>
<use x="413.292969" xlink:href="#i"/>
</g>
</g>
<path d="m659.5 529.2 1.4522-5.2763q0.63686-2.314-1.6771-2.9508l-7.4649-2.0546q-2.314-0.63686-2.9508 1.6771l-1.4522 5.2763q-0.63686 2.314 1.6771 2.9508l7.4649 2.0546q2.314 0.63686 2.9508-1.6771z" clip-path="url(#a)" fill="#fff" stroke="#fff"/>
<g clip-path="url(#a)">
<g transform="translate(655.59 528.12) rotate(-74.612) scale(.08 -.08)">
<use xlink:href="#u"/>
</g>
</g>
<path d="m683.7 528.64 0.88524-5.4878q0.3822-2.3694-1.9872-2.7516l-7.6437-1.233q-2.3694-0.3822-2.7516 1.9872l-0.88524 5.4878q-0.3822 2.3694 1.9872 2.7516l7.6437 1.233q2.3694 0.3822 2.7516-1.9872z" clip-path="url(#a)" fill="#fff" stroke="#fff"/>
<g clip-path="url(#a)">
<g transform="translate(679.69 527.99) rotate(-80.837) scale(.08 -.08)">
<use xlink:href="#s"/>
</g>
</g>
<path d="m707.3 482.34 0.057166 4.8234q0.028442 2.3998 2.4283 2.3714l7.742-0.091755q2.3998-0.028442 2.3714-2.4283l-0.057166-4.8234q-0.028442-2.3998-2.4283-2.3714l-7.742 0.091755q-2.3998 0.028442-2.3714 2.4283z" clip-path="url(#a)" fill="#fff" stroke="#fff"/>
<g clip-path="url(#a)">
<g transform="translate(711.37 482.3) rotate(89.321) scale(.08 -.08)">
<use xlink:href="#ai"/>
</g>
</g>
<path d="m795.47 364.28 4.9156 2.4052q2.1558 1.0548 3.2106-1.101l3.4029-6.9546q1.0548-2.1558-1.101-3.2106l-4.9156-2.4052q-2.1558-1.0548-3.2106 1.101l-3.4029 6.9546q-1.0548 2.1558 1.101 3.2106z" clip-path="url(#a)" fill="#fff" stroke="#fff"/>
<g clip-path="url(#a)">
<g transform="translate(797.26 360.63) rotate(26.072) scale(.08 -.08)">
<use xlink:href="#u"/>
</g>
</g>
<path d="m638.02 756.1v35.285q0 2.4 2.4 2.4h7.7425q2.4 0 2.4-2.4v-35.285q0-2.4-2.4-2.4h-7.7425q-2.4 0-2.4 2.4z" clip-path="url(#a)" fill="#fff" stroke="#fff"/>
<g clip-path="url(#a)">
<g transform="translate(642.09 756.1) rotate(90) scale(.08 -.08)">
<use xlink:href="#l"/>
<use x="60.818359" xlink:href="#d"/>
<use x="122.341797" xlink:href="#g"/>
<use x="163.439453" xlink:href="#k"/>
<use x="260.851562" xlink:href="#j"/>
<use x="288.634766" xlink:href="#h"/>
<use x="352.013672" xlink:href="#e"/>
<use x="413.292969" xlink:href="#i"/>
</g>
</g>
<path d="m709.01 697.52 1.4326-4.8478q0.68016-2.3016-1.6214-2.9818l-7.4251-2.1942q-2.3016-0.68016-2.9818 1.6214l-1.4326 4.8478q-0.68016 2.3016 1.6214 2.9818l7.4251 2.1942q2.3016 0.68016 2.9818-1.6214z" clip-path="url(#a)" fill="#fff" stroke="#fff"/>
<g clip-path="url(#a)">
<g transform="translate(705.11 696.37) rotate(-73.537) scale(.08 -.08)">
<use xlink:href="#o"/>
</g>
</g>
<path d="m720.68 692.42 1.5831 5.3572q0.68016 2.3016 2.9818 1.6214l7.4251-2.1942q2.3016-0.68016 1.6214-2.9818l-1.5831-5.3572q-0.68016-2.3016-2.9818-1.6214l-7.4251 2.1942q-2.3016 0.68016-1.6214 2.9818z" clip-path="url(#a)" fill="#fff" stroke="#fff"/>
<g clip-path="url(#a)">
<g transform="translate(724.57 691.26) rotate(73.537) scale(.08 -.08)">
<use xlink:href="#t"/>
</g>
</g>
<path d="m843.57 572.76 1.5039-4.8261q0.71404-2.2913-1.5773-3.0054l-7.3919-2.3035q-2.2913-0.71404-3.0054 1.5773l-1.5039 4.8261q-0.71404 2.2913 1.5773 3.0054l7.3919 2.3035q2.2913 0.71404 3.0054-1.5773z" clip-path="url(#a)" fill="#fff" stroke="#fff"/>
<g clip-path="url(#a)">
<g transform="translate(839.69 571.55) rotate(-72.691) scale(.08 -.08)">
<use xlink:href="#o"/>
</g>
</g>
<path d="m867.87 572.01 0.8357-4.9854q0.39677-2.367-1.9702-2.7637l-7.636-1.28q-2.367-0.39677-2.7637 1.9702l-0.83569 4.9854q-0.39677 2.367 1.9702 2.7637l7.636 1.28q2.367 0.39677 2.7637-1.9702z" clip-path="url(#a)" fill="#fff" stroke="#fff"/>
<g clip-path="url(#a)">
<g transform="translate(863.86 571.34) rotate(-80.484) scale(.08 -.08)">
<use xlink:href="#o"/>
</g>
</g>
<path d="m892.07 571.42 0.13194-5.5847q0.056685-2.3993-2.3426-2.456l-7.7403-0.18287q-2.3993-0.056684-2.456 2.3426l-0.13194 5.5847q-0.056685 2.3993 2.3426 2.456l7.7403 0.18287q2.3993 0.056685 2.456-2.3426z" clip-path="url(#a)" fill="#fff" stroke="#fff"/>
<g clip-path="url(#a)">
<g transform="translate(888.01 571.33) rotate(-88.647) scale(.08 -.08)">
<use xlink:href="#t"/>
</g>
</g>
<path d="m967.66 450.37 4.4993 2.3041q2.1362 1.094 3.2301-1.0422l3.5291-6.8914q1.094-2.1362-1.0422-3.2301l-4.4993-2.3041q-2.1362-1.094-3.2301 1.0422l-3.5291 6.8914q-1.094 2.1362 1.0422 3.2301z" clip-path="url(#a)" fill="#fff" stroke="#fff"/>
<g clip-path="url(#a)">
<g transform="translate(969.51 446.75) rotate(27.117) scale(.08 -.08)">
<use xlink:href="#o"/>
</g>
</g>
<path d="m780.63 756.1v35.285q0 2.4 2.4 2.4h7.7425q2.4 0 2.4-2.4v-35.285q0-2.4-2.4-2.4h-7.7425q-2.4 0-2.4 2.4z" clip-path="url(#a)" fill="#fff" stroke="#fff"/>
<g clip-path="url(#a)">
<g transform="translate(784.69 756.1) rotate(90) scale(.08 -.08)">
<use xlink:href="#l"/>
<use x="60.818359" xlink:href="#d"/>
<use x="122.341797" xlink:href="#g"/>
<use x="163.439453" xlink:href="#k"/>
<use x="260.851562" xlink:href="#j"/>
<use x="288.634766" xlink:href="#h"/>
<use x="352.013672" xlink:href="#e"/>
<use x="413.292969" xlink:href="#i"/>
</g>
</g>
<path d="m828.16 756.1v35.285q0 2.4 2.4 2.4h7.7425q2.4 0 2.4-2.4v-35.285q0-2.4-2.4-2.4h-7.7425q-2.4 0-2.4 2.4z" clip-path="url(#a)" fill="#fff" stroke="#fff"/>
<g clip-path="url(#a)">
<g transform="translate(832.23 756.1) rotate(90) scale(.08 -.08)">
<use xlink:href="#l"/>
<use x="60.818359" xlink:href="#d"/>
<use x="122.341797" xlink:href="#g"/>
<use x="163.439453" xlink:href="#k"/>
<use x="260.851562" xlink:href="#j"/>
<use x="288.634766" xlink:href="#h"/>
<use x="352.013672" xlink:href="#e"/>
<use x="413.292969" xlink:href="#i"/>
</g>
</g>
<path d="m875.7 756.1v35.285q0 2.4 2.4 2.4h7.7425q2.4 0 2.4-2.4v-35.285q0-2.4-2.4-2.4h-7.7425q-2.4 0-2.4 2.4z" clip-path="url(#a)" fill="#fff" stroke="#fff"/>
<g clip-path="url(#a)">
<g transform="translate(879.76 756.1) rotate(90) scale(.08 -.08)">
<use xlink:href="#l"/>
<use x="60.818359" xlink:href="#d"/>
<use x="122.341797" xlink:href="#g"/>
<use x="163.439453" xlink:href="#k"/>
<use x="260.851562" xlink:href="#j"/>
<use x="288.634766" xlink:href="#h"/>
<use x="352.013672" xlink:href="#e"/>
<use x="413.292969" xlink:href="#i"/>
</g>
</g>
<path d="m972.4 616.85 3.1656-4.464q1.3883-1.9577-0.56945-3.346l-6.3157-4.4786q-1.9577-1.3883-3.346 0.56945l-3.1656 4.464q-1.3883 1.9577 0.56945 3.346l6.3157 4.4786q1.9577 1.3883 3.346-0.56945z" clip-path="url(#a)" fill="#fff" stroke="#fff"/>
<g clip-path="url(#a)">
<g transform="translate(969.09 614.5) rotate(-54.659) scale(.08 -.08)">
<use xlink:href="#u"/>
</g>
</g>
<path d="m997.11 616 2.2092-4.2881q1.0991-2.1335-1.0344-3.2327l-6.8828-3.5459q-2.1335-1.0991-3.2327 1.0344l-2.2092 4.2881q-1.0991 2.1335 1.0344 3.2327l6.8828 3.5459q2.1335 1.0991 3.2327-1.0344z" clip-path="url(#a)" fill="#fff" stroke="#fff"/>
<g clip-path="url(#a)">
<g transform="translate(993.49 614.14) rotate(-62.744) scale(.08 -.08)">
<use xlink:href="#ai"/>
</g>
</g>
<path d="m1051.6 527.26 0.3298 6.1512q0.12849 2.3966 2.5251 2.2681l7.7314-0.41453q2.3966-0.1285 2.2681-2.5251l-0.3298-6.1512q-0.1285-2.3966-2.5251-2.2681l-7.7314 0.41453q-2.3966 0.1285-2.2681 2.5251z" clip-path="url(#a)" fill="#fff" stroke="#fff"/>
<g clip-path="url(#a)">
<defs>
<path id="as" d="m19.672 64.797v-56.688h11.922q15.094 0 22.094 6.8281 7 6.8438 7 21.594 0 14.641-7 21.453t-22.094 6.8125zm-9.8594 8.1094h20.266q21.188 0 31.094-8.8125 9.9219-8.8125 9.9219-27.562 0-18.859-9.9688-27.703-9.9531-8.8281-31.047-8.8281h-20.266z"/>
</defs>
<g transform="translate(1055.6 527.04) rotate(86.931) scale(.08 -.08)">
<use xlink:href="#as"/>
</g>
</g>
<path d="m1199.2 535.3 5.2682 1.4813q2.3104 0.64962 2.96-1.6608l2.0957-7.4535q0.64962-2.3104-1.6608-2.96l-5.2682-1.4813q-2.3104-0.64962-2.96 1.6608l-2.0957 7.4535q-0.64962 2.3104 1.6608 2.96z" clip-path="url(#a)" fill="#fff" stroke="#fff"/>
<g clip-path="url(#a)">
<g transform="translate(1200.3 531.39) rotate(15.704) scale(.08 -.08)">
<use xlink:href="#u"/>
</g>
</g>
<path d="m923.23 756.1v35.285q0 2.4 2.4 2.4h7.7425q2.4 0 2.4-2.4v-35.285q0-2.4-2.4-2.4h-7.7425q-2.4 0-2.4 2.4z" clip-path="url(#a)" fill="#fff" stroke="#fff"/>
<g clip-path="url(#a)">
<g transform="translate(927.3 756.1) rotate(90) scale(.08 -.08)">
<use xlink:href="#l"/>
<use x="60.818359" xlink:href="#d"/>
<use x="122.341797" xlink:href="#g"/>
<use x="163.439453" xlink:href="#k"/>
<use x="260.851562" xlink:href="#j"/>
<use x="288.634766" xlink:href="#h"/>
<use x="352.013672" xlink:href="#e"/>
<use x="413.292969" xlink:href="#i"/>
</g>
</g>
<path d="m1022.9 657.88 2.5395-4.9447q1.0964-2.1349-1.0385-3.2313l-6.8873-3.5372q-2.1349-1.0964-3.2313 1.0385l-2.5395 4.9447q-1.0964 2.1349 1.0385 3.2313l6.8873 3.5372q2.1349 1.0964 3.2313-1.0385z" clip-path="url(#a)" fill="#fff" stroke="#fff"/>
<g clip-path="url(#a)">
<g transform="translate(1019.3 656.03) rotate(-62.816) scale(.08 -.08)">
<use xlink:href="#s"/>
</g>
</g>
<path d="m1048 656.36 1.0866-4.9368q0.5159-2.3439-1.828-2.8598l-7.5615-1.6643q-2.3439-0.5159-2.8598 1.828l-1.0866 4.9368q-0.5159 2.3439 1.828 2.8598l7.5615 1.6643q2.3439 0.5159 2.8598-1.828z" clip-path="url(#a)" fill="#fff" stroke="#fff"/>
<g clip-path="url(#a)">
<g transform="translate(1044 655.49) rotate(-77.587) scale(.08 -.08)">
<use xlink:href="#o"/>
</g>
</g>
<path d="m1059.7 650.22 0.40876 5.5713q0.17561 2.3936 2.5692 2.218l7.7217-0.56653q2.3936-0.17561 2.218-2.5692l-0.40876-5.5713q-0.17561-2.3936-2.5692-2.218l-7.7217 0.56653q-2.3936 0.17561-2.218 2.5692z" clip-path="url(#a)" fill="#fff" stroke="#fff"/>
<g clip-path="url(#a)">
<g transform="translate(1063.8 649.92) rotate(85.804) scale(.08 -.08)">
<use xlink:href="#t"/>
</g>
</g>
<path d="m1107.9 615.79 4.0199 3.0649q1.9085 1.4552 3.3637-0.45338l4.6944-6.157q1.4552-1.9085-0.45339-3.3637l-4.0199-3.0649q-1.9085-1.4552-3.3637 0.45339l-4.6944 6.157q-1.4552 1.9085 0.45338 3.3637z" clip-path="url(#a)" fill="#fff" stroke="#fff"/>
<g clip-path="url(#a)">
<g transform="translate(1110.4 612.55) rotate(37.323) scale(.08 -.08)">
<use xlink:href="#o"/>
</g>
</g>
<path d="m1311 658 2.6798-4.8701q1.157-2.1027-0.94565-3.2597l-6.7833-3.7326q-2.1027-1.157-3.2597 0.94565l-2.6798 4.8701q-1.157 2.1027 0.94565 3.2597l6.7833 3.7326q2.1027 1.157 3.2597-0.94566z" clip-path="url(#a)" fill="#fff" stroke="#fff"/>
<g clip-path="url(#a)">
<g transform="translate(1307.4 656.04) rotate(-61.178) scale(.08 -.08)">
<use xlink:href="#s"/>
</g>
</g>
<path d="m1336 656.55 1.2573-4.8961q0.59693-2.3246-1.7277-2.9215l-7.4992-1.9257q-2.3246-0.59693-2.9215 1.7277l-1.2573 4.8961q-0.59693 2.3246 1.7277 2.9215l7.4992 1.9257q2.3246 0.59693 2.9215-1.7277z" clip-path="url(#a)" fill="#fff" stroke="#fff"/>
<g clip-path="url(#a)">
<g transform="translate(1332.1 655.54) rotate(-75.598) scale(.08 -.08)">
<use xlink:href="#o"/>
</g>
</g>
<path d="m1348 649.98 0.20479 5.5825q0.087983 2.3984 2.4864 2.3104l7.7373-0.28384q2.3984-0.087983 2.3104-2.4864l-0.20479-5.5825q-0.087983-2.3984-2.4864-2.3104l-7.7373 0.28384q-2.3984 0.087983-2.3104 2.4864z" clip-path="url(#a)" fill="#fff" stroke="#fff"/>
<g clip-path="url(#a)">
<g transform="translate(1352 649.83) rotate(87.899) scale(.08 -.08)">
<use xlink:href="#t"/>
</g>
</g>
<path d="m1408.2 616.2 4.2315 2.7654q2.009 1.3129 3.322-0.69608l4.2356-6.4812q1.3129-2.009-0.69608-3.322l-4.2315-2.7654q-2.009-1.3129-3.322 0.69608l-4.2356 6.4812q-1.3129 2.009 0.69608 3.322z" clip-path="url(#a)" fill="#fff" stroke="#fff"/>
<g clip-path="url(#a)">
<g transform="translate(1410.4 612.8) rotate(33.166) scale(.08 -.08)">
<use xlink:href="#o"/>
</g>
</g>
<path d="m1256 756.1v35.285q0 2.4 2.4 2.4h7.7425q2.4 0 2.4-2.4v-35.285q0-2.4-2.4-2.4h-7.7425q-2.4 0-2.4 2.4z" clip-path="url(#a)" fill="#fff" stroke="#fff"/>
<g clip-path="url(#a)">
<g transform="translate(1260 756.1) rotate(90) scale(.08 -.08)">
<use xlink:href="#l"/>
<use x="60.818359" xlink:href="#d"/>
<use x="122.341797" xlink:href="#g"/>
<use x="163.439453" xlink:href="#k"/>
<use x="260.851562" xlink:href="#j"/>
<use x="288.634766" xlink:href="#h"/>
<use x="352.013672" xlink:href="#e"/>
<use x="413.292969" xlink:href="#i"/>
</g>
</g>
<path d="m1303.5 756.1v35.285q0 2.4 2.4 2.4h7.7425q2.4 0 2.4-2.4v-35.285q0-2.4-2.4-2.4h-7.7425q-2.4 0-2.4 2.4z" clip-path="url(#a)" fill="#fff" stroke="#fff"/>
<g clip-path="url(#a)">
<g transform="translate(1307.6 756.1) rotate(90) scale(.08 -.08)">
<use xlink:href="#l"/>
<use x="60.818359" xlink:href="#d"/>
<use x="122.341797" xlink:href="#g"/>
<use x="163.439453" xlink:href="#k"/>
<use x="260.851562" xlink:href="#j"/>
<use x="288.634766" xlink:href="#h"/>
<use x="352.013672" xlink:href="#e"/>
<use x="413.292969" xlink:href="#i"/>
</g>
</g>
<path d="m1351 756.1v35.285q0 2.4 2.4 2.4h7.7425q2.4 0 2.4-2.4v-35.285q0-2.4-2.4-2.4h-7.7425q-2.4 0-2.4 2.4z" clip-path="url(#a)" fill="#fff" stroke="#fff"/>
<g clip-path="url(#a)">
<g transform="translate(1355.1 756.1) rotate(90) scale(.08 -.08)">
<use xlink:href="#l"/>
<use x="60.818359" xlink:href="#d"/>
<use x="122.341797" xlink:href="#g"/>
<use x="163.439453" xlink:href="#k"/>
<use x="260.851562" xlink:href="#j"/>
<use x="288.634766" xlink:href="#h"/>
<use x="352.013672" xlink:href="#e"/>
<use x="413.292969" xlink:href="#i"/>
</g>
</g>
<path d="m1443.3 699.56 3.6876-4.1595q1.5921-1.7959-0.20375-3.388l-5.7936-5.1362q-1.7959-1.5921-3.388 0.20375l-3.6876 4.1595q-1.5921 1.7959 0.20375 3.388l5.7936 5.1362q1.7959 1.5921 3.388-0.20375z" clip-path="url(#a)" fill="#fff" stroke="#fff"/>
<g clip-path="url(#a)">
<g transform="translate(1440.3 696.86) rotate(-48.442) scale(.08 -.08)">
<use xlink:href="#s"/>
</g>
</g>
<path d="m1469.6 697.52 1.4326-4.8478q0.68016-2.3016-1.6214-2.9818l-7.4251-2.1942q-2.3016-0.68016-2.9818 1.6214l-1.4326 4.8478q-0.68016 2.3016 1.6214 2.9818l7.4251 2.1942q2.3016 0.68016 2.9818-1.6214z" clip-path="url(#a)" fill="#fff" stroke="#fff"/>
<g clip-path="url(#a)">
<g transform="translate(1465.7 696.37) rotate(-73.537) scale(.08 -.08)">
<use xlink:href="#o"/>
</g>
</g>
<path d="m1481.2 692.42 1.5831 5.3572q0.68016 2.3016 2.9818 1.6214l7.4251-2.1942q2.3016-0.68016 1.6214-2.9818l-1.5831-5.3572q-0.68016-2.3016-2.9818-1.6214l-7.4251 2.1942q-2.3016 0.68016-1.6214 2.9818z" clip-path="url(#a)" fill="#fff" stroke="#fff"/>
<g clip-path="url(#a)">
<g transform="translate(1485.1 691.26) rotate(73.537) scale(.08 -.08)">
<use xlink:href="#t"/>
</g>
</g>
<path d="m1505.2 695.29 3.8841 4.3812q1.5921 1.7959 3.388 0.20375l5.7936-5.1362q1.7959-1.5921 0.20375-3.388l-3.8841-4.3812q-1.5921-1.7959-3.388-0.20375l-5.7936 5.1362q-1.7959 1.5921-0.20375 3.388z" clip-path="url(#a)" fill="#fff" stroke="#fff"/>
<g clip-path="url(#a)">
<g transform="translate(1508.2 692.59) rotate(48.442) scale(.08 -.08)">
<use xlink:href="#ac"/>
</g>
</g>
<path d="m1398.6 756.1v35.285q0 2.4 2.4 2.4h7.7425q2.4 0 2.4-2.4v-35.285q0-2.4-2.4-2.4h-7.7425q-2.4 0-2.4 2.4z" clip-path="url(#a)" fill="#fff" stroke="#fff"/>
<g clip-path="url(#a)">
<g transform="translate(1402.6 756.1) rotate(90) scale(.08 -.08)">
<use xlink:href="#l"/>
<use x="60.818359" xlink:href="#d"/>
<use x="122.341797" xlink:href="#g"/>
<use x="163.439453" xlink:href="#k"/>
<use x="260.851562" xlink:href="#j"/>
<use x="288.634766" xlink:href="#h"/>
<use x="352.013672" xlink:href="#e"/>
<use x="413.292969" xlink:href="#i"/>
</g>
</g>
<path d="m1446.1 756.1v35.285q0 2.4 2.4 2.4h7.7425q2.4 0 2.4-2.4v-35.285q0-2.4-2.4-2.4h-7.7425q-2.4 0-2.4 2.4z" clip-path="url(#a)" fill="#fff" stroke="#fff"/>
<g clip-path="url(#a)">
<g transform="translate(1450.2 756.1) rotate(90) scale(.08 -.08)">
<use xlink:href="#l"/>
<use x="60.818359" xlink:href="#d"/>
<use x="122.341797" xlink:href="#g"/>
<use x="163.439453" xlink:href="#k"/>
<use x="260.851562" xlink:href="#j"/>
<use x="288.634766" xlink:href="#h"/>
<use x="352.013672" xlink:href="#e"/>
<use x="413.292969" xlink:href="#i"/>
</g>
</g>
<path d="m1493.6 756.1v35.285q0 2.4 2.4 2.4h7.7425q2.4 0 2.4-2.4v-35.285q0-2.4-2.4-2.4h-7.7425q-2.4 0-2.4 2.4z" clip-path="url(#a)" fill="#fff" stroke="#fff"/>
<g clip-path="url(#a)">
<g transform="translate(1497.7 756.1) rotate(90) scale(.08 -.08)">
<use xlink:href="#l"/>
<use x="60.818359" xlink:href="#d"/>
<use x="122.341797" xlink:href="#g"/>
<use x="163.439453" xlink:href="#k"/>
<use x="260.851562" xlink:href="#j"/>
<use x="288.634766" xlink:href="#h"/>
<use x="352.013672" xlink:href="#e"/>
<use x="413.292969" xlink:href="#i"/>
</g>
</g>
<path d="m970.77 756.1v35.285q0 2.4 2.4 2.4h7.7425q2.4 0 2.4-2.4v-35.285q0-2.4-2.4-2.4h-7.7425q-2.4 0-2.4 2.4z" clip-path="url(#a)" fill="#fff" stroke="#fff"/>
<g clip-path="url(#a)">
<g transform="translate(974.83 756.1) rotate(90) scale(.08 -.08)">
<use xlink:href="#l"/>
<use x="60.818359" xlink:href="#d"/>
<use x="122.341797" xlink:href="#g"/>
<use x="163.439453" xlink:href="#k"/>
<use x="260.851562" xlink:href="#j"/>
<use x="288.634766" xlink:href="#h"/>
<use x="352.013672" xlink:href="#e"/>
<use x="413.292969" xlink:href="#i"/>
</g>
</g>
<path d="m1018.3 756.1v35.285q0 2.4 2.4 2.4h7.7425q2.4 0 2.4-2.4v-35.285q0-2.4-2.4-2.4h-7.7425q-2.4 0-2.4 2.4z" clip-path="url(#a)" fill="#fff" stroke="#fff"/>
<g clip-path="url(#a)">
<g transform="translate(1022.4 756.1) rotate(90) scale(.08 -.08)">
<use xlink:href="#l"/>
<use x="60.818359" xlink:href="#d"/>
<use x="122.341797" xlink:href="#g"/>
<use x="163.439453" xlink:href="#k"/>
<use x="260.851562" xlink:href="#j"/>
<use x="288.634766" xlink:href="#h"/>
<use x="352.013672" xlink:href="#e"/>
<use x="413.292969" xlink:href="#i"/>
</g>
</g>
<path d="m1065.8 756.1v35.285q0 2.4 2.4 2.4h7.7425q2.4 0 2.4-2.4v-35.285q0-2.4-2.4-2.4h-7.7425q-2.4 0-2.4 2.4z" clip-path="url(#a)" fill="#fff" stroke="#fff"/>
<g clip-path="url(#a)">
<g transform="translate(1069.9 756.1) rotate(90) scale(.08 -.08)">
<use xlink:href="#l"/>
<use x="60.818359" xlink:href="#d"/>
<use x="122.341797" xlink:href="#g"/>
<use x="163.439453" xlink:href="#k"/>
<use x="260.851562" xlink:href="#j"/>
<use x="288.634766" xlink:href="#h"/>
<use x="352.013672" xlink:href="#e"/>
<use x="413.292969" xlink:href="#i"/>
</g>
</g>
<path d="m1147.4 698.9 2.8283-4.7854q1.2211-2.0661-0.84498-3.2872l-6.6654-3.9394q-2.0661-1.2211-3.2872 0.84498l-2.8283 4.7854q-1.2211 2.0661 0.84498 3.2872l6.6654 3.9394q2.0661 1.2211 3.2872-0.84498z" clip-path="url(#a)" fill="#fff" stroke="#fff"/>
<g clip-path="url(#a)">
<g transform="translate(1143.9 696.83) rotate(-59.416) scale(.08 -.08)">
<use xlink:href="#s"/>
</g>
</g>
<path d="m1160.9 690.79v5.055q0 2.4 2.4 2.4h7.7425q2.4 0 2.4-2.4v-5.055q0-2.4-2.4-2.4h-7.7425q-2.4 0-2.4 2.4z" clip-path="url(#a)" fill="#fff" stroke="#fff"/>
<g clip-path="url(#a)">
<g transform="translate(1165 690.79) rotate(90) scale(.08 -.08)">
<use xlink:href="#o"/>
</g>
</g>
<path d="m1184.1 694.1 2.8423 4.8091q1.2211 2.0661 3.2872 0.84498l6.6654-3.9394q2.0661-1.2211 0.84498-3.2872l-2.8423-4.8091q-1.2211-2.0661-3.2872-0.84498l-6.6654 3.9394q-2.0661 1.2211-0.84498 3.2872z" clip-path="url(#a)" fill="#fff" stroke="#fff"/>
<g clip-path="url(#a)">
<g transform="translate(1187.6 692.04) rotate(59.416) scale(.08 -.08)">
<use xlink:href="#t"/>
</g>
</g>
<path d="m1113.4 756.1v35.285q0 2.4 2.4 2.4h7.7425q2.4 0 2.4-2.4v-35.285q0-2.4-2.4-2.4h-7.7425q-2.4 0-2.4 2.4z" clip-path="url(#a)" fill="#fff" stroke="#fff"/>
<g clip-path="url(#a)">
<g transform="translate(1117.4 756.1) rotate(90) scale(.08 -.08)">
<use xlink:href="#l"/>
<use x="60.818359" xlink:href="#d"/>
<use x="122.341797" xlink:href="#g"/>
<use x="163.439453" xlink:href="#k"/>
<use x="260.851562" xlink:href="#j"/>
<use x="288.634766" xlink:href="#h"/>
<use x="352.013672" xlink:href="#e"/>
<use x="413.292969" xlink:href="#i"/>
</g>
</g>
<path d="m1160.9 756.1v35.285q0 2.4 2.4 2.4h7.7425q2.4 0 2.4-2.4v-35.285q0-2.4-2.4-2.4h-7.7425q-2.4 0-2.4 2.4z" clip-path="url(#a)" fill="#fff" stroke="#fff"/>
<g clip-path="url(#a)">
<g transform="translate(1165 756.1) rotate(90) scale(.08 -.08)">
<use xlink:href="#l"/>
<use x="60.818359" xlink:href="#d"/>
<use x="122.341797" xlink:href="#g"/>
<use x="163.439453" xlink:href="#k"/>
<use x="260.851562" xlink:href="#j"/>
<use x="288.634766" xlink:href="#h"/>
<use x="352.013672" xlink:href="#e"/>
<use x="413.292969" xlink:href="#i"/>
</g>
</g>
<path d="m1208.4 756.1v35.285q0 2.4 2.4 2.4h7.7425q2.4 0 2.4-2.4v-35.285q0-2.4-2.4-2.4h-7.7425q-2.4 0-2.4 2.4z" clip-path="url(#a)" fill="#fff" stroke="#fff"/>
<g clip-path="url(#a)">
<g transform="translate(1212.5 756.1) rotate(90) scale(.08 -.08)">
<use xlink:href="#l"/>
<use x="60.818359" xlink:href="#d"/>
<use x="122.341797" xlink:href="#g"/>
<use x="163.439453" xlink:href="#k"/>
<use x="260.851562" xlink:href="#j"/>
<use x="288.634766" xlink:href="#h"/>
<use x="352.013672" xlink:href="#e"/>
<use x="413.292969" xlink:href="#i"/>
</g>
</g>
<path d="m685.56 756.1v35.285q0 2.4 2.4 2.4h7.7425q2.4 0 2.4-2.4v-35.285q0-2.4-2.4-2.4h-7.7425q-2.4 0-2.4 2.4z" clip-path="url(#a)" fill="#fff" stroke="#fff"/>
<g clip-path="url(#a)">
<g transform="translate(689.62 756.1) rotate(90) scale(.08 -.08)">
<use xlink:href="#l"/>
<use x="60.818359" xlink:href="#d"/>
<use x="122.341797" xlink:href="#g"/>
<use x="163.439453" xlink:href="#k"/>
<use x="260.851562" xlink:href="#j"/>
<use x="288.634766" xlink:href="#h"/>
<use x="352.013672" xlink:href="#e"/>
<use x="413.292969" xlink:href="#i"/>
</g>
</g>
<path d="m733.09 756.1v35.285q0 2.4 2.4 2.4h7.7425q2.4 0 2.4-2.4v-35.285q0-2.4-2.4-2.4h-7.7425q-2.4 0-2.4 2.4z" clip-path="url(#a)" fill="#fff" stroke="#fff"/>
<g clip-path="url(#a)">
<g transform="translate(737.16 756.1) rotate(90) scale(.08 -.08)">
<use xlink:href="#l"/>
<use x="60.818359" xlink:href="#d"/>
<use x="122.341797" xlink:href="#g"/>
<use x="163.439453" xlink:href="#k"/>
<use x="260.851562" xlink:href="#j"/>
<use x="288.634766" xlink:href="#h"/>
<use x="352.013672" xlink:href="#e"/>
<use x="413.292969" xlink:href="#i"/>
</g>
</g>
<path d="m67.609 756.1v35.285q0 2.4 2.4 2.4h7.7425q2.4 0 2.4-2.4v-35.285q0-2.4-2.4-2.4h-7.7425q-2.4 0-2.4 2.4z" clip-path="url(#a)" fill="#fff" stroke="#fff"/>
<g clip-path="url(#a)">
<g transform="translate(71.672 756.1) rotate(90) scale(.08 -.08)">
<use xlink:href="#l"/>
<use x="60.818359" xlink:href="#d"/>
<use x="122.341797" xlink:href="#g"/>
<use x="163.439453" xlink:href="#k"/>
<use x="260.851562" xlink:href="#j"/>
<use x="288.634766" xlink:href="#h"/>
<use x="352.013672" xlink:href="#e"/>
<use x="413.292969" xlink:href="#i"/>
</g>
</g>
<path d="m520.86 83.168 1.7972 9.7686q0.43425 2.3604 2.7946 1.9261l7.6147-1.4009q2.3604-0.43425 1.9261-2.7946l-1.7972-9.7686q-0.43425-2.3604-2.7946-1.9261l-7.6147 1.4009q-2.3604 0.43425-1.9261 2.7946z" clip-path="url(#a)" fill="#fff" stroke="#fff"/>
<g clip-path="url(#a)">
<g transform="translate(524.86 82.432) rotate(79.576) scale(.08 -.08)">
<use xlink:href="#v"/>
<use x="55.744141" xlink:href="#u"/>
</g>
</g>
<path d="m516.58 391.62 0.25233-10.013q0.060461-2.3992-2.3388-2.4597l-7.74-0.19505q-2.3992-0.060461-2.4597 2.3388l-0.25233 10.013q-0.060461 2.3992 2.3388 2.4597l7.74 0.19505q2.3992 0.060461 2.4597-2.3388z" clip-path="url(#a)" fill="#fff" stroke="#fff"/>
<g clip-path="url(#a)">
<g transform="translate(512.52 391.52) rotate(-88.556) scale(.08 -.08)">
<use xlink:href="#v"/>
<use x="55.712891" xlink:href="#s"/>
</g>
</g>
<path d="m306.26 352.7 2.653-9.5716q0.64105-2.3128-1.6717-2.9539l-7.4612-2.0681q-2.3128-0.64105-2.9539 1.6717l-2.653 9.5716q-0.64105 2.3128 1.6717 2.9539l7.4612 2.0681q2.3128 0.64105 2.9539-1.6717z" clip-path="url(#a)" fill="#fff" stroke="#fff"/>
<g clip-path="url(#a)">
<g transform="translate(302.34 351.62) rotate(-74.508) scale(.08 -.08)">
<use xlink:href="#v"/>
<use x="55.744141" xlink:href="#u"/>
</g>
</g>
<path d="m390.2 381.63 0.28887 10.012q0.069216 2.399 2.4682 2.3298l7.7393-0.2233q2.399-0.069216 2.3298-2.4682l-0.28887-10.012q-0.069216-2.399-2.4682-2.3298l-7.7393 0.2233q-2.399 0.069217-2.3298 2.4682z" clip-path="url(#a)" fill="#fff" stroke="#fff"/>
<g clip-path="url(#a)">
<g transform="translate(394.26 381.51) rotate(88.347) scale(.08 -.08)">
<use xlink:href="#v"/>
<use x="55.712891" xlink:href="#s"/>
</g>
</g>
<path d="m454.08 89.557 8.3904 5.3156q2.0274 1.2844 3.3118-0.74296l4.1436-6.5404q1.2844-2.0274-0.74296-3.3118l-8.3904-5.3156q-2.0274-1.2844-3.3118 0.74296l-4.1436 6.5404q-1.2844 2.0274 0.74296 3.3118z" clip-path="url(#a)" fill="#fff" stroke="#fff"/>
<g clip-path="url(#a)">
<g transform="translate(456.26 86.124) rotate(32.356) scale(.08 -.08)">
<use xlink:href="#v"/>
<use x="55.744141" xlink:href="#u"/>
</g>
</g>
<path d="m257.75 756.1v35.285q0 2.4 2.4 2.4h7.7425q2.4 0 2.4-2.4v-35.285q0-2.4-2.4-2.4h-7.7425q-2.4 0-2.4 2.4z" clip-path="url(#a)" fill="#fff" stroke="#fff"/>
<g clip-path="url(#a)">
<g transform="translate(261.81 756.1) rotate(90) scale(.08 -.08)">
<use xlink:href="#l"/>
<use x="60.818359" xlink:href="#d"/>
<use x="122.341797" xlink:href="#g"/>
<use x="163.439453" xlink:href="#k"/>
<use x="260.851562" xlink:href="#j"/>
<use x="288.634766" xlink:href="#h"/>
<use x="352.013672" xlink:href="#e"/>
<use x="413.292969" xlink:href="#i"/>
</g>
</g>
<path d="m352.82 756.1v35.285q0 2.4 2.4 2.4h7.7425q2.4 0 2.4-2.4v-35.285q0-2.4-2.4-2.4h-7.7425q-2.4 0-2.4 2.4z" clip-path="url(#a)" fill="#fff" stroke="#fff"/>
<g clip-path="url(#a)">
<g transform="translate(356.88 756.1) rotate(90) scale(.08 -.08)">
<use xlink:href="#l"/>
<use x="60.818359" xlink:href="#d"/>
<use x="122.341797" xlink:href="#g"/>
<use x="163.439453" xlink:href="#k"/>
<use x="260.851562" xlink:href="#j"/>
<use x="288.634766" xlink:href="#h"/>
<use x="352.013672" xlink:href="#e"/>
<use x="413.292969" xlink:href="#i"/>
</g>
</g>
<path d="m1541.2 756.1v35.285q0 2.4 2.4 2.4h7.7425q2.4 0 2.4-2.4v-35.285q0-2.4-2.4-2.4h-7.7425q-2.4 0-2.4 2.4z" clip-path="url(#a)" fill="#fff" stroke="#fff"/>
<g clip-path="url(#a)">
<g transform="translate(1545.2 756.1) rotate(90) scale(.08 -.08)">
<use xlink:href="#l"/>
<use x="60.818359" xlink:href="#d"/>
<use x="122.341797" xlink:href="#g"/>
<use x="163.439453" xlink:href="#k"/>
<use x="260.851562" xlink:href="#j"/>
<use x="288.634766" xlink:href="#h"/>
<use x="352.013672" xlink:href="#e"/>
<use x="413.292969" xlink:href="#i"/>
</g>
</g>
<defs>
<path id="b" d="m0 8.6603c2.2967 0 4.4997-0.9125 6.1237-2.5365 1.624-1.624 2.5365-3.827 2.5365-6.1237s-0.9125-4.4997-2.5365-6.1237c-1.624-1.624-3.827-2.5365-6.1237-2.5365s-4.4997 0.9125-6.1237 2.5365c-1.624 1.624-2.5365 3.827-2.5365 6.1237s0.9125 4.4997 2.5365 6.1237c1.624 1.624 3.827 2.5365 6.1237 2.5365z"/>
</defs>
<g clip-path="url(#a)">
<use x="73.87978" y="813.957769" fill="#ffffff" stroke="#ffffff" xlink:href="#b"/>
</g>
<g clip-path="url(#a)">
<use x="121.414418" y="813.957769" fill="#ffffff" stroke="#ffffff" xlink:href="#b"/>
</g>
<g clip-path="url(#a)">
<use x="168.949056" y="813.957769" fill="#ffffff" stroke="#ffffff" xlink:href="#b"/>
</g>
<g clip-path="url(#a)">
<use x="216.483694" y="813.957769" fill="#ffffff" stroke="#ffffff" xlink:href="#b"/>
</g>
<g clip-path="url(#a)">
<use x="264.018332" y="813.957769" fill="#ffffff" stroke="#ffffff" xlink:href="#b"/>
</g>
<g clip-path="url(#a)">
<use x="311.552969" y="813.957769" fill="#ffffff" stroke="#ffffff" xlink:href="#b"/>
</g>
<g clip-path="url(#a)">
<use x="359.087607" y="813.957769" fill="#ffffff" stroke="#ffffff" xlink:href="#b"/>
</g>
<g clip-path="url(#a)">
<use x="406.622245" y="813.957769" fill="#ffffff" stroke="#ffffff" xlink:href="#b"/>
</g>
<g clip-path="url(#a)">
<use x="454.156883" y="813.957769" fill="#ffffff" stroke="#ffffff" xlink:href="#b"/>
</g>
<g clip-path="url(#a)">
<use x="501.691521" y="813.957769" fill="#ffffff" stroke="#ffffff" xlink:href="#b"/>
</g>
<g clip-path="url(#a)">
<use x="549.226159" y="813.957769" fill="#ffffff" stroke="#ffffff" xlink:href="#b"/>
</g>
<g clip-path="url(#a)">
<use x="596.760796" y="813.957769" fill="#ffffff" stroke="#ffffff" xlink:href="#b"/>
</g>
<g clip-path="url(#a)">
<use x="644.295434" y="813.957769" fill="#ffffff" stroke="#ffffff" xlink:href="#b"/>
</g>
<g clip-path="url(#a)">
<use x="691.830072" y="813.957769" fill="#ffffff" stroke="#ffffff" xlink:href="#b"/>
</g>
<g clip-path="url(#a)">
<use x="739.36471" y="813.957769" fill="#ffffff" stroke="#ffffff" xlink:href="#b"/>
</g>
<g clip-path="url(#a)">
<use x="786.899348" y="813.957769" fill="#ffffff" stroke="#ffffff" xlink:href="#b"/>
</g>
<g clip-path="url(#a)">
<use x="834.433986" y="813.957769" fill="#ffffff" stroke="#ffffff" xlink:href="#b"/>
</g>
<g clip-path="url(#a)">
<use x="881.968623" y="813.957769" fill="#ffffff" stroke="#ffffff" xlink:href="#b"/>
</g>
<g clip-path="url(#a)">
<use x="929.503261" y="813.957769" fill="#ffffff" stroke="#ffffff" xlink:href="#b"/>
</g>
<g clip-path="url(#a)">
<use x="977.037899" y="813.957769" fill="#ffffff" stroke="#ffffff" xlink:href="#b"/>
</g>
<g clip-path="url(#a)">
<use x="1024.572537" y="813.957769" fill="#ffffff" stroke="#ffffff" xlink:href="#b"/>
</g>
<g clip-path="url(#a)">
<use x="1072.107175" y="813.957769" fill="#ffffff" stroke="#ffffff" xlink:href="#b"/>
</g>
<g clip-path="url(#a)">
<use x="1119.641813" y="813.957769" fill="#ffffff" stroke="#ffffff" xlink:href="#b"/>
</g>
<g clip-path="url(#a)">
<use x="1167.17645" y="813.957769" fill="#ffffff" stroke="#ffffff" xlink:href="#b"/>
</g>
<g clip-path="url(#a)">
<use x="1214.711088" y="813.957769" fill="#ffffff" stroke="#ffffff" xlink:href="#b"/>
</g>
<g clip-path="url(#a)">
<use x="1262.245726" y="813.957769" fill="#ffffff" stroke="#ffffff" xlink:href="#b"/>
</g>
<g clip-path="url(#a)">
<use x="1309.780364" y="813.957769" fill="#ffffff" stroke="#ffffff" xlink:href="#b"/>
</g>
<g clip-path="url(#a)">
<use x="1357.315002" y="813.957769" fill="#ffffff" stroke="#ffffff" xlink:href="#b"/>
</g>
<g clip-path="url(#a)">
<use x="1404.84964" y="813.957769" fill="#ffffff" stroke="#ffffff" xlink:href="#b"/>
</g>
<g clip-path="url(#a)">
<use x="1452.384278" y="813.957769" fill="#ffffff" stroke="#ffffff" xlink:href="#b"/>
</g>
<g clip-path="url(#a)">
<use x="1499.918915" y="813.957769" fill="#ffffff" stroke="#ffffff" xlink:href="#b"/>
</g>
<g clip-path="url(#a)">
<use x="1547.453553" y="813.957769" fill="#ffffff" stroke="#ffffff" xlink:href="#b"/>
</g>
<g clip-path="url(#a)">
<use x="349.073664" y="39.375564" fill="#ffffff" stroke="#ffffff" xlink:href="#b"/>
</g>
<g clip-path="url(#a)">
<use x="216.483694" y="653.104211" fill="#ffffff" stroke="#ffffff" xlink:href="#b"/>
</g>
<g clip-path="url(#a)">
<use x="406.622245" y="733.53099" fill="#ffffff" stroke="#ffffff" xlink:href="#b"/>
</g>
<g clip-path="url(#a)">
<use x="536.677138" y="134.45874" fill="#ffffff" stroke="#ffffff" xlink:href="#b"/>
</g>
<g clip-path="url(#a)">
<use x="501.691521" y="733.53099" fill="#ffffff" stroke="#ffffff" xlink:href="#b"/>
</g>
<g clip-path="url(#a)">
<use x="454.156883" y="733.53099" fill="#ffffff" stroke="#ffffff" xlink:href="#b"/>
</g>
<g clip-path="url(#a)">
<use x="619.197393" y="226.678376" fill="#ffffff" stroke="#ffffff" xlink:href="#b"/>
</g>
<g clip-path="url(#a)">
<use x="549.226159" y="733.53099" fill="#ffffff" stroke="#ffffff" xlink:href="#b"/>
</g>
<g clip-path="url(#a)">
<use x="596.760796" y="733.53099" fill="#ffffff" stroke="#ffffff" xlink:href="#b"/>
</g>
<g clip-path="url(#a)">
<use x="711.605224" y="316.259607" fill="#ffffff" stroke="#ffffff" xlink:href="#b"/>
</g>
<g clip-path="url(#a)">
<use x="644.295434" y="733.53099" fill="#ffffff" stroke="#ffffff" xlink:href="#b"/>
</g>
<g clip-path="url(#a)">
<use x="715.597391" y="653.104211" fill="#ffffff" stroke="#ffffff" xlink:href="#b"/>
</g>
<g clip-path="url(#a)">
<use x="889.767275" y="403.433141" fill="#ffffff" stroke="#ffffff" xlink:href="#b"/>
</g>
<g clip-path="url(#a)">
<use x="786.899348" y="733.53099" fill="#ffffff" stroke="#ffffff" xlink:href="#b"/>
</g>
<g clip-path="url(#a)">
<use x="834.433986" y="733.53099" fill="#ffffff" stroke="#ffffff" xlink:href="#b"/>
</g>
<g clip-path="url(#a)">
<use x="881.968623" y="733.53099" fill="#ffffff" stroke="#ffffff" xlink:href="#b"/>
</g>
<g clip-path="url(#a)">
<use x="1055.767143" y="488.44278" fill="#ffffff" stroke="#ffffff" xlink:href="#b"/>
</g>
<g clip-path="url(#a)">
<use x="929.503261" y="733.53099" fill="#ffffff" stroke="#ffffff" xlink:href="#b"/>
</g>
<g clip-path="url(#a)">
<use x="1060.223515" y="571.558607" fill="#ffffff" stroke="#ffffff" xlink:href="#b"/>
</g>
<g clip-path="url(#a)">
<use x="1351.373172" y="571.558607" fill="#ffffff" stroke="#ffffff" xlink:href="#b"/>
</g>
<g clip-path="url(#a)">
<use x="1262.245726" y="733.53099" fill="#ffffff" stroke="#ffffff" xlink:href="#b"/>
</g>
<g clip-path="url(#a)">
<use x="1309.780364" y="733.53099" fill="#ffffff" stroke="#ffffff" xlink:href="#b"/>
</g>
<g clip-path="url(#a)">
<use x="1357.315002" y="733.53099" fill="#ffffff" stroke="#ffffff" xlink:href="#b"/>
</g>
<g clip-path="url(#a)">
<use x="1476.151596" y="653.104211" fill="#ffffff" stroke="#ffffff" xlink:href="#b"/>
</g>
<g clip-path="url(#a)">
<use x="1404.84964" y="733.53099" fill="#ffffff" stroke="#ffffff" xlink:href="#b"/>
</g>
<g clip-path="url(#a)">
<use x="1452.384278" y="733.53099" fill="#ffffff" stroke="#ffffff" xlink:href="#b"/>
</g>
<g clip-path="url(#a)">
<use x="1499.918915" y="733.53099" fill="#ffffff" stroke="#ffffff" xlink:href="#b"/>
</g>
<g clip-path="url(#a)">
<use x="977.037899" y="733.53099" fill="#ffffff" stroke="#ffffff" xlink:href="#b"/>
</g>
<g clip-path="url(#a)">
<use x="1024.572537" y="733.53099" fill="#ffffff" stroke="#ffffff" xlink:href="#b"/>
</g>
<g clip-path="url(#a)">
<use x="1072.107175" y="733.53099" fill="#ffffff" stroke="#ffffff" xlink:href="#b"/>
</g>
<g clip-path="url(#a)">
<use x="1167.17645" y="653.104211" fill="#ffffff" stroke="#ffffff" xlink:href="#b"/>
</g>
<g clip-path="url(#a)">
<use x="1119.641813" y="733.53099" fill="#ffffff" stroke="#ffffff" xlink:href="#b"/>
</g>
<g clip-path="url(#a)">
<use x="1167.17645" y="733.53099" fill="#ffffff" stroke="#ffffff" xlink:href="#b"/>
</g>
<g clip-path="url(#a)">
<use x="1214.711088" y="733.53099" fill="#ffffff" stroke="#ffffff" xlink:href="#b"/>
</g>
<g clip-path="url(#a)">
<use x="691.830072" y="733.53099" fill="#ffffff" stroke="#ffffff" xlink:href="#b"/>
</g>
<g clip-path="url(#a)">
<use x="739.36471" y="733.53099" fill="#ffffff" stroke="#ffffff" xlink:href="#b"/>
</g>
<g clip-path="url(#a)">
<use x="73.87978" y="733.53099" fill="#ffffff" stroke="#ffffff" xlink:href="#b"/>
</g>
<g clip-path="url(#a)">
<use x="519.184329" y="39.375564" fill="#808080" stroke="#808080" xlink:href="#b"/>
</g>
<g clip-path="url(#a)">
<use x="386.594359" y="39.375564" fill="#808080" stroke="#808080" xlink:href="#b"/>
</g>
<g clip-path="url(#a)">
<use x="264.018332" y="733.53099" fill="#ffffff" stroke="#ffffff" xlink:href="#b"/>
</g>
<g clip-path="url(#a)">
<use x="359.087607" y="733.53099" fill="#ffffff" stroke="#ffffff" xlink:href="#b"/>
</g>
<g clip-path="url(#a)">
<use x="1547.453553" y="733.53099" fill="#ffffff" stroke="#ffffff" xlink:href="#b"/>
</g>
<g clip-path="url(#a)">
<defs>
<path id="aq" d="m4.8906 30.906h90.234v-7.0312h-90.234z"/>
</defs>
<g transform="translate(68.88 816.72) scale(.1 -.1)">
<use xlink:href="#aq"/>
</g>
</g>
<g clip-path="url(#a)">
<defs>
<path id="w" d="m30.609 48.391q-7.2188 0-11.422-5.6406t-4.2031-15.453 4.1719-15.453q4.1875-5.6406 11.453-5.6406 7.1875 0 11.375 5.6562 4.2031 5.6719 4.2031 15.438 0 9.7188-4.2031 15.406-4.1875 5.6875-11.375 5.6875zm0 7.6094q11.719 0 18.406-7.625 6.7031-7.6094 6.7031-21.078 0-13.422-6.7031-21.078-6.6875-7.6406-18.406-7.6406-11.766 0-18.438 7.6406-6.6562 7.6562-6.6562 21.078 0 13.469 6.6562 21.078 6.6719 7.625 18.438 7.625z"/>
</defs>
<g transform="translate(102.05 816.72) scale(.1 -.1)">
<use xlink:href="#t"/>
<use x="69.824219" xlink:href="#w"/>
<use x="131.005859" xlink:href="#k"/>
<use x="228.417969" xlink:href="#k"/>
<use x="325.830078" xlink:href="#d"/>
</g>
</g>
<g clip-path="url(#a)">
<defs>
<path id="y" d="m2.9844 54.688h9.5156l17.094-45.891 17.094 45.891h9.5156l-20.516-54.688h-12.203z"/>
<path id="r" d="m8.5 21.578v33.109h8.9844v-32.766q0-7.7656 3.0156-11.656 3.0312-3.875 9.0938-3.875 7.2656 0 11.484 4.6406 4.2344 4.6406 4.2344 12.656v31h8.9844v-54.688h-8.9844v8.4062q-3.2656-4.9844-7.5938-7.4062-4.3125-2.4219-10.031-2.4219-9.4219 0-14.312 5.8594-4.875 5.8594-4.875 17.141z"/>
<path id="p" d="m44.281 53.078v-8.5q-3.7969 1.9531-7.9062 2.9219-4.0938 0.98438-8.5 0.98438-6.6875 0-10.031-2.0469t-3.3438-6.1562q0-3.125 2.3906-4.9062t9.625-3.3906l3.0781-0.6875q9.5625-2.0469 13.594-5.7812t4.0312-10.422q0-7.625-6.0312-12.078-6.0312-4.4375-16.578-4.4375-4.3906 0-9.1562 0.85938t-10.031 2.5625v9.2812q4.9844-2.5938 9.8125-3.8906 4.8281-1.2812 9.5781-1.2812 6.3438 0 9.75 2.1719 3.4219 2.1719 3.4219 6.125 0 3.6562-2.4688 5.6094-2.4531 1.9531-10.812 3.7656l-3.125 0.73438q-8.3438 1.75-12.062 5.3906-3.7031 3.6406-3.7031 9.9844 0 7.7188 5.4688 11.906 5.4688 4.2031 15.531 4.2031 4.9688 0 9.3594-0.73438 4.4062-0.71875 8.1094-2.1875z"/>
</defs>
<g transform="translate(157.16 816.72) scale(.1 -.1)">
<use xlink:href="#y"/>
<use x="59.179688" xlink:href="#w"/>
<use x="120.361328" xlink:href="#r"/>
<use x="183.740234" xlink:href="#p"/>
</g>
</g>
<g clip-path="url(#a)">
<defs>
<path id="aa" d="m45.406 46.391v29.594h8.9844v-75.984h-8.9844v8.2031q-2.8281-4.875-7.1562-7.25-4.3125-2.375-10.375-2.375-9.9062 0-16.141 7.9062-6.2188 7.9219-6.2188 20.812t6.2188 20.797q6.2344 7.9062 16.141 7.9062 6.0625 0 10.375-2.375 4.3281-2.3594 7.1562-7.2344zm-30.609-19.094q0-9.9062 4.0781-15.547t11.203-5.6406 11.219 5.6406q4.1094 5.6406 4.1094 15.547t-4.1094 15.547q-4.0938 5.6406-11.219 5.6406t-11.203-5.6406-4.0781-15.547z"/>
<path id="z" d="m18.312 70.219v-15.531h18.5v-6.9844h-18.5v-29.688q0-6.6875 1.8281-8.5938t7.4531-1.9062h9.2188v-7.5156h-9.2188q-10.406 0-14.359 3.875-3.9531 3.8906-3.9531 14.141v29.688h-6.5938v6.9844h6.5938v15.531z"/>
</defs>
<g transform="translate(204.28 816.72) scale(.1 -.1)">
<use xlink:href="#aa"/>
<use x="63.476562" xlink:href="#j"/>
<use x="91.259766" xlink:href="#z"/>
<use x="130.46875" xlink:href="#d"/>
<use x="191.992188" xlink:href="#p"/>
</g>
</g>
<g clip-path="url(#a)">
<defs>
<path id="am" d="m11.719 12.406h10.297v-8.4062l-8-15.625h-6.2969l4 15.625z"/>
</defs>
<g transform="translate(262.43 816.72) scale(.1 -.1)">
<use xlink:href="#am"/>
</g>
</g>
<g clip-path="url(#a)">
<defs>
<path id="ar" d="m9.8125 72.906h13.281l32.328-60.984v60.984h9.5625v-72.906h-13.281l-32.312 60.984v-60.984h-9.5781z"/>
</defs>
<g transform="translate(301.56 816.72) scale(.1 -.1)">
<use xlink:href="#ar"/>
<use x="74.804688" xlink:href="#d"/>
<use x="136.328125" xlink:href="#aa"/>
</g>
</g>
<g clip-path="url(#a)">
<g transform="translate(357.5 816.72) scale(.1 -.1)">
<use xlink:href="#am"/>
</g>
</g>
<g clip-path="url(#a)">
<g transform="translate(401.59 816.72) scale(.1 -.1)">
<use xlink:href="#d"/>
<use x="61.523438" xlink:href="#z"/>
</g>
</g>
<g clip-path="url(#a)">
<defs>
<path id="ap" d="m45.406 27.984q0 9.7656-4.0312 15.125-4.0156 5.375-11.297 5.375-7.2188 0-11.25-5.375-4.0312-5.3594-4.0312-15.125 0-9.7188 4.0312-15.094t11.25-5.375q7.2812 0 11.297 5.375 4.0312 5.375 4.0312 15.094zm8.9844-21.203q0-13.953-6.2031-20.766-6.1875-6.8125-18.984-6.8125-4.7344 0-8.9375 0.70312t-8.1562 2.1719v8.7344q3.9531-2.1406 7.8125-3.1562 3.8594-1.0312 7.8594-1.0312 8.8438 0 13.234 4.6094t4.3906 13.938v4.4531q-2.7812-4.8438-7.125-7.2344t-10.406-2.3906q-10.047 0-16.203 7.6562-6.1562 7.6719-6.1562 20.328 0 12.688 6.1562 20.344 6.1562 7.6719 16.203 7.6719 6.0625 0 10.406-2.3906t7.125-7.2188v8.2969h8.9844z"/>
<path id="au" d="m5.5156 54.688h42.672v-8.2031l-33.781-39.312h33.781v-7.1719h-43.891v8.2031l33.797 39.312h-32.578z"/>
</defs>
<g transform="translate(436.45 816.72) scale(.1 -.1)">
<use xlink:href="#p"/>
<use x="52.099609" xlink:href="#w"/>
<use x="113.28125" xlink:href="#h"/>
<use x="176.660156" xlink:href="#ap"/>
<use x="240.136719" xlink:href="#d"/>
<use x="301.660156" xlink:href="#au"/>
</g>
</g>
<g clip-path="url(#a)">
<g transform="translate(489.52 816.72) scale(.1 -.1)">
<use xlink:href="#e"/>
<use x="61.279297" xlink:href="#i"/>
<use x="89.0625" xlink:href="#w"/>
<use x="150.244141" xlink:href="#g"/>
<use x="191.357422" xlink:href="#p"/>
</g>
</g>
<g clip-path="url(#a)">
<defs>
<path id="an" d="m54.891 54.688-19.781-26.609 20.797-28.078h-10.594l-15.922 21.484-15.906-21.484h-10.609l21.25 28.609-19.438 26.078h10.594l14.5-19.484 14.5 19.484z"/>
</defs>
<g transform="translate(540.03 816.72) scale(.1 -.1)">
<use xlink:href="#e"/>
<use x="61.279297" xlink:href="#r"/>
<use x="124.658203" xlink:href="#an"/>
</g>
</g>
<g clip-path="url(#a)">
<g transform="translate(576.76 816.72) scale(.1 -.1)">
<use xlink:href="#g"/>
<use x="41.113281" xlink:href="#e"/>
<use x="102.392578" xlink:href="#y"/>
<use x="161.572266" xlink:href="#e"/>
<use x="222.851562" xlink:href="#ap"/>
<use x="286.328125" xlink:href="#d"/>
<use x="347.851562" xlink:href="#p"/>
</g>
</g>
<g clip-path="url(#a)">
<defs>
<path id="ao" d="m14.797 27.297q0-9.9062 4.0781-15.547t11.203-5.6406 11.219 5.6406q4.1094 5.6406 4.1094 15.547t-4.1094 15.547q-4.0938 5.6406-11.219 5.6406t-11.203-5.6406-4.0781-15.547zm30.609-19.094q-2.8281-4.875-7.1562-7.25-4.3125-2.375-10.375-2.375-9.9062 0-16.141 7.9062-6.2188 7.9219-6.2188 20.812t6.2188 20.797q6.2344 7.9062 16.141 7.9062 6.0625 0 10.375-2.375 4.3281-2.3594 7.1562-7.2344v8.2969h8.9844v-75.484h-8.9844z"/>
</defs>
<g transform="translate(634.88 816.72) scale(.1 -.1)">
<use xlink:href="#ao"/>
<use x="63.476562" xlink:href="#r"/>
<use x="126.855469" xlink:href="#d"/>
</g>
</g>
<g clip-path="url(#a)">
<defs>
<path id="ah" d="m18.109 8.2031v-29h-9.0312v75.484h9.0312v-8.2969q2.8438 4.875 7.1562 7.2344 4.3281 2.375 10.328 2.375 9.9688 0 16.188-7.9062 6.2344-7.9062 6.2344-20.797t-6.2344-20.812q-6.2188-7.9062-16.188-7.9062-6 0-10.328 2.375-4.3125 2.375-7.1562 7.25zm30.578 19.094q0 9.9062-4.0781 15.547t-11.203 5.6406q-7.1406 0-11.219-5.6406t-4.0781-15.547 4.0781-15.547 11.219-5.6406q7.125 0 11.203 5.6406t4.0781 15.547z"/>
</defs>
<g transform="translate(680.45 816.72) scale(.1 -.1)">
<use xlink:href="#ah"/>
<use x="63.476562" xlink:href="#d"/>
<use x="125" xlink:href="#r"/>
<use x="188.378906" xlink:href="#z"/>
</g>
</g>
<g clip-path="url(#a)">
<g transform="translate(718.21 816.72) scale(.1 -.1)">
<use xlink:href="#ah"/>
<use x="63.476562" xlink:href="#g"/>
<use x="104.558594" xlink:href="#w"/>
<use x="165.740234" xlink:href="#aa"/>
<use x="229.216797" xlink:href="#r"/>
<use x="292.595703" xlink:href="#j"/>
<use x="320.378906" xlink:href="#g"/>
<use x="361.460938" xlink:href="#d"/>
</g>
</g>
<g clip-path="url(#a)">
<g transform="translate(777.49 816.72) scale(.1 -.1)">
<use xlink:href="#r"/>
<use x="63.378906" xlink:href="#h"/>
<use x="126.757812" xlink:href="#d"/>
</g>
</g>
<g clip-path="url(#a)">
<g transform="translate(815.82 816.72) scale(.1 -.1)">
<use xlink:href="#ah"/>
<use x="63.476562" xlink:href="#e"/>
<use x="124.755859" xlink:href="#g"/>
<use x="165.837891" xlink:href="#d"/>
<use x="227.361328" xlink:href="#j"/>
<use x="255.144531" xlink:href="#i"/>
<use x="282.927734" xlink:href="#i"/>
<use x="310.710938" xlink:href="#d"/>
</g>
</g>
<g clip-path="url(#a)">
<g transform="translate(865.75 816.72) scale(.1 -.1)">
<use xlink:href="#k"/>
<use x="97.412109" xlink:href="#e"/>
<use x="158.691406" xlink:href="#p"/>
<use x="210.791016" xlink:href="#p"/>
<use x="262.890625" xlink:href="#d"/>
</g>
</g>
<g clip-path="url(#a)">
<defs>
<path id="ab" d="m48.781 52.594v-8.4062q-3.8125 2.1094-7.6406 3.1562t-7.7344 1.0469q-8.75 0-13.594-5.5469-4.8281-5.5312-4.8281-15.547t4.8281-15.562q4.8438-5.5312 13.594-5.5312 3.9062 0 7.7344 1.0469t7.6406 3.1562v-8.3125q-3.7656-1.75-7.7969-2.625-4.0156-0.89062-8.5625-0.89062-12.359 0-19.641 7.7656-7.2656 7.7656-7.2656 20.953 0 13.375 7.3438 21.031 7.3594 7.6719 20.156 7.6719 4.1406 0 8.0938-0.85938 3.9531-0.84375 7.6719-2.5469z"/>
<path id="at" d="m56.203 29.594v-4.3906h-41.312q0.59375-9.2812 5.5938-14.141t13.938-4.8594q5.1719 0 10.031 1.2656t9.6562 3.8125v-8.5q-4.8438-2.0469-9.9219-3.125t-10.297-1.0781q-13.094 0-20.734 7.6094-7.6406 7.625-7.6406 20.625 0 13.422 7.25 21.297 7.25 7.8906 19.562 7.8906 11.031 0 17.453-7.1094 6.4219-7.0938 6.4219-19.297zm-8.9844 2.6406q-0.09375 7.3594-4.125 11.75-4.0312 4.4062-10.672 4.4062-7.5156 0-12.031-4.25t-5.2031-11.969zm-8.6875 47.75h9.7188l-15.906-18.359h-7.4844z"/>
</defs>
<g transform="translate(912.98 816.72) scale(.1 -.1)">
<use xlink:href="#i"/>
<use x="27.783203" xlink:href="#e"/>
<use x="89.0625" xlink:href="#h"/>
<use x="152.441406" xlink:href="#ab"/>
<use x="207.421875" xlink:href="#at"/>
<use x="268.945312" xlink:href="#d"/>
</g>
</g>
<g clip-path="url(#a)">
<g transform="translate(965.19 816.72) scale(.1 -.1)">
<use xlink:href="#e"/>
<use x="61.279297" xlink:href="#y"/>
<use x="120.458984" xlink:href="#d"/>
<use x="181.982422" xlink:href="#ab"/>
</g>
</g>
<g clip-path="url(#a)">
<g transform="translate(1020.1 816.72) scale(.1 -.1)">
<use xlink:href="#i"/>
<use x="27.783203" xlink:href="#e"/>
</g>
</g>
<g clip-path="url(#a)">
<g transform="translate(1054.4 816.72) scale(.1 -.1)">
<use xlink:href="#y"/>
<use x="59.179688" xlink:href="#j"/>
<use x="86.962891" xlink:href="#z"/>
<use x="126.171875" xlink:href="#d"/>
<use x="187.695312" xlink:href="#p"/>
<use x="239.794922" xlink:href="#p"/>
<use x="291.894531" xlink:href="#d"/>
</g>
</g>
<g clip-path="url(#a)">
<defs>
<path id="ak" d="m12.703 72.906h10.297v-7.4219l-8.0156-15.578h-6.2969l4.0156 15.578z"/>
</defs>
<g transform="translate(1114.9 816.72) scale(.1 -.1)">
<use xlink:href="#aa"/>
<use x="63.476562" xlink:href="#ak"/>
</g>
</g>
<g clip-path="url(#a)">
<g transform="translate(1160.8 816.72) scale(.1 -.1)">
<use xlink:href="#r"/>
<use x="63.378906" xlink:href="#h"/>
</g>
</g>
<g clip-path="url(#a)">
<g transform="translate(1195.2 816.72) scale(.1 -.1)">
<use xlink:href="#d"/>
<use x="61.507812" xlink:href="#an"/>
<use x="120.6875" xlink:href="#ah"/>
<use x="184.164062" xlink:href="#g"/>
<use x="225.246094" xlink:href="#d"/>
<use x="286.769531" xlink:href="#p"/>
<use x="338.869141" xlink:href="#p"/>
</g>
</g>
<g clip-path="url(#a)">
<g transform="translate(1246.2 816.72) scale(.1 -.1)">
<use xlink:href="#ab"/>
<use x="54.980469" xlink:href="#w"/>
<use x="116.162109" xlink:href="#h"/>
<use x="179.541016" xlink:href="#z"/>
<use x="218.75" xlink:href="#g"/>
<use x="259.832031" xlink:href="#d"/>
</g>
</g>
<g clip-path="url(#a)">
<g transform="translate(1305.3 816.72) scale(.1 -.1)">
<use xlink:href="#i"/>
<use x="27.783203" xlink:href="#e"/>
</g>
</g>
<g clip-path="url(#a)">
<g transform="translate(1342.1 816.72) scale(.1 -.1)">
<use xlink:href="#ab"/>
<use x="54.980469" xlink:href="#w"/>
<use x="116.162109" xlink:href="#ao"/>
<use x="179.638672" xlink:href="#r"/>
<use x="243.017578" xlink:href="#d"/>
</g>
</g>
<g clip-path="url(#a)">
<g transform="translate(1400.1 816.72) scale(.1 -.1)">
<use xlink:href="#aa"/>
<use x="63.476562" xlink:href="#ak"/>
</g>
</g>
<g clip-path="url(#a)">
<g transform="translate(1446 816.72) scale(.1 -.1)">
<use xlink:href="#r"/>
<use x="63.378906" xlink:href="#h"/>
</g>
</g>
<g clip-path="url(#a)">
<g transform="translate(1484.2 816.72) scale(.1 -.1)">
<use xlink:href="#h"/>
<use x="63.378906" xlink:href="#e"/>
<use x="124.658203" xlink:href="#y"/>
<use x="183.837891" xlink:href="#j"/>
<use x="211.621094" xlink:href="#g"/>
<use x="252.703125" xlink:href="#d"/>
</g>
</g>
<g clip-path="url(#a)">
<defs>
<path id="f" d="m10.688 12.406h10.312v-12.406h-10.312z"/>
</defs>
<g transform="translate(1545.9 816.72) scale(.1 -.1)">
<use xlink:href="#f"/>
</g>
</g>
<g clip-path="url(#a)">
<defs>
<path id="c" d="m12.406 8.2969h16.109v55.625l-17.531-3.5156v8.9844l17.438 3.5156h9.8594v-64.609h16.109v-8.2969h-41.984z"/>
</defs>
<g transform="translate(341.12 42.135) scale(.1 -.1)">
<use xlink:href="#c"/>
<use x="63.623047" xlink:href="#f"/>
<use x="95.410156" xlink:href="#c"/>
</g>
</g>
<g clip-path="url(#a)">
<defs>
<path id="m" d="m40.578 39.312q7.0781-1.5156 11.047-6.3125 3.9844-4.7812 3.9844-11.812 0-10.781-7.4219-16.703-7.4219-5.9062-21.094-5.9062-4.5781 0-9.4375 0.90625t-10.031 2.7188v9.5156q4.0938-2.3906 8.9688-3.6094 4.8906-1.2188 10.219-1.2188 9.2656 0 14.125 3.6562t4.8594 10.641q0 6.4531-4.5156 10.078-4.5156 3.6406-12.562 3.6406h-8.5v8.1094h8.8906q7.2656 0 11.125 2.9062t3.8594 8.375q0 5.6094-3.9844 8.6094-3.9688 3.0156-11.391 3.0156-4.0625 0-8.7031-0.89062-4.6406-0.875-10.203-2.7188v8.7812q5.625 1.5625 10.531 2.3438t9.25 0.78125q11.234 0 17.766-5.1094 6.5469-5.0938 6.5469-13.781 0-6.0625-3.4688-10.234t-9.8594-5.7812z"/>
</defs>
<g transform="translate(208.53 655.86) scale(.1 -.1)">
<use xlink:href="#c"/>
<use x="63.623047" xlink:href="#f"/>
<use x="95.410156" xlink:href="#m"/>
</g>
</g>
<g clip-path="url(#a)">
<defs>
<path id="x" d="m10.797 72.906h38.719v-8.3125h-29.688v-17.859q2.1406 0.73438 4.2812 1.0938 2.1562 0.35938 4.3125 0.35938 12.203 0 19.328-6.6875 7.1406-6.6875 7.1406-18.109 0-11.766-7.3281-18.297-7.3281-6.5156-20.656-6.5156-4.5938 0-9.3594 0.78125-4.75 0.78125-9.8281 2.3438v9.9219q4.3906-2.3906 9.0781-3.5625t9.9062-1.1719q8.4531 0 13.375 4.4375 4.9375 4.4375 4.9375 12.062 0 7.6094-4.9375 12.047-4.9219 4.4531-13.375 4.4531-3.9531 0-7.8906-0.875-3.9219-0.875-8.0156-2.7344z"/>
</defs>
<g transform="translate(398.67 736.29) scale(.1 -.1)">
<use xlink:href="#c"/>
<use x="63.623047" xlink:href="#f"/>
<use x="95.410156" xlink:href="#x"/>
</g>
</g>
<g clip-path="url(#a)">
<defs>
<path id="af" d="m33.016 40.375q-6.6406 0-10.531-4.5469-3.875-4.5312-3.875-12.438 0-7.8594 3.875-12.438 3.8906-4.5625 10.531-4.5625t10.516 4.5625q3.875 4.5781 3.875 12.438 0 7.9062-3.875 12.438-3.875 4.5469-10.516 4.5469zm19.578 30.922v-8.9844q-3.7188 1.75-7.5 2.6719-3.7812 0.9375-7.5 0.9375-9.7656 0-14.922-6.5938-5.1406-6.5938-5.875-19.922 2.875 4.25 7.2188 6.5156 4.3594 2.2656 9.5781 2.2656 10.984 0 17.359-6.6719 6.375-6.6562 6.375-18.125 0-11.234-6.6406-18.031-6.6406-6.7812-17.672-6.7812-12.656 0-19.344 9.6875-6.6875 9.7031-6.6875 28.109 0 17.281 8.2031 27.562t22.016 10.281q3.7188 0 7.5-0.73438t7.8906-2.1875z"/>
</defs>
<g transform="translate(528.73 137.22) scale(.1 -.1)">
<use xlink:href="#c"/>
<use x="63.623047" xlink:href="#f"/>
<use x="95.410156" xlink:href="#af"/>
</g>
</g>
<g clip-path="url(#a)">
<defs>
<path id="ae" d="m8.2031 72.906h46.875v-4.2031l-26.469-68.703h-10.297l24.906 64.594h-35.016z"/>
</defs>
<g transform="translate(493.74 736.29) scale(.1 -.1)">
<use xlink:href="#c"/>
<use x="63.623047" xlink:href="#f"/>
<use x="95.410156" xlink:href="#ae"/>
</g>
</g>
<g clip-path="url(#a)">
<defs>
<path id="ad" d="m10.984 1.5156v8.9844q3.7188-1.7656 7.5156-2.6875 3.8125-0.92188 7.4844-0.92188 9.7656 0 14.906 6.5625 5.1562 6.5625 5.8906 19.953-2.8281-4.2031-7.1875-6.4531-4.3438-2.25-9.6094-2.25-10.938 0-17.312 6.6094-6.375 6.625-6.375 18.109 0 11.219 6.6406 18 6.6406 6.7969 17.672 6.7969 12.656 0 19.312-9.7031 6.6719-9.6875 6.6719-28.141 0-17.234-8.1875-27.516-8.1719-10.281-21.984-10.281-3.7188 0-7.5312 0.73438-3.7969 0.73438-7.9062 2.2031zm19.625 30.906q6.6406 0 10.516 4.5312 3.8906 4.5469 3.8906 12.469 0 7.8594-3.8906 12.422-3.875 4.5625-10.516 4.5625t-10.516-4.5625-3.875-12.422q0-7.9219 3.875-12.469 3.875-4.5312 10.516-4.5312z"/>
</defs>
<g transform="translate(446.21 736.29) scale(.1 -.1)">
<use xlink:href="#c"/>
<use x="63.623047" xlink:href="#f"/>
<use x="95.410156" xlink:href="#ad"/>
</g>
</g>
<g clip-path="url(#a)">
<defs>
<path id="ag" d="m31.781 66.406q-7.6094 0-11.453-7.5-3.8281-7.4844-3.8281-22.531 0-14.984 3.8281-22.484 3.8438-7.5 11.453-7.5 7.6719 0 11.5 7.5 3.8438 7.5 3.8438 22.484 0 15.047-3.8438 22.531-3.8281 7.5-11.5 7.5zm0 7.8125q12.266 0 18.734-9.7031 6.4688-9.6875 6.4688-28.141 0-18.406-6.4688-28.109-6.4688-9.6875-18.734-9.6875-12.25 0-18.719 9.6875-6.4688 9.7031-6.4688 28.109 0 18.453 6.4688 28.141 6.4688 9.7031 18.719 9.7031z"/>
</defs>
<g transform="translate(608.06 229.44) scale(.1 -.1)">
<use xlink:href="#c"/>
<use x="63.623047" xlink:href="#f"/>
<use x="95.410156" xlink:href="#c"/>
<use x="159.033203" xlink:href="#ag"/>
</g>
</g>
<g clip-path="url(#a)">
<g transform="translate(538.09 736.29) scale(.1 -.1)">
<use xlink:href="#c"/>
<use x="63.623047" xlink:href="#f"/>
<use x="95.410156" xlink:href="#c"/>
<use x="159.033203" xlink:href="#c"/>
</g>
</g>
<g clip-path="url(#a)">
<defs>
<path id="n" d="m19.188 8.2969h34.422v-8.2969h-46.281v8.2969q5.6094 5.8125 15.297 15.594 9.7031 9.7969 12.188 12.641 4.7344 5.3125 6.6094 9 1.8906 3.6875 1.8906 7.25 0 5.8125-4.0781 9.4688-4.0781 3.6719-10.625 3.6719-4.6406 0-9.7969-1.6094-5.1406-1.6094-11-4.8906v9.9688q5.9531 2.3906 11.125 3.6094 5.1875 1.2188 9.4844 1.2188 11.328 0 18.062-5.6719 6.7344-5.6562 6.7344-15.125 0-4.5-1.6875-8.5312-1.6719-4.0156-6.125-9.4844-1.2188-1.4219-7.7656-8.1875-6.5312-6.7656-18.453-18.922z"/>
</defs>
<g transform="translate(585.63 736.29) scale(.1 -.1)">
<use xlink:href="#c"/>
<use x="63.623047" xlink:href="#f"/>
<use x="95.410156" xlink:href="#c"/>
<use x="159.033203" xlink:href="#n"/>
</g>
</g>
<g clip-path="url(#a)">
<g transform="translate(700.47 319.02) scale(.1 -.1)">
<use xlink:href="#c"/>
<use x="63.623047" xlink:href="#f"/>
<use x="95.410156" xlink:href="#c"/>
<use x="159.033203" xlink:href="#m"/>
</g>
</g>
<g clip-path="url(#a)">
<defs>
<path id="q" d="m37.797 64.312-24.906-38.922h24.906zm-2.5938 8.5938h12.406v-47.516h10.406v-8.2031h-10.406v-17.188h-9.8125v17.188h-32.906v9.5156z"/>
</defs>
<g transform="translate(633.16 736.29) scale(.1 -.1)">
<use xlink:href="#c"/>
<use x="63.623047" xlink:href="#f"/>
<use x="95.410156" xlink:href="#c"/>
<use x="159.033203" xlink:href="#q"/>
</g>
</g>
<g clip-path="url(#a)">
<g transform="translate(704.46 655.86) scale(.1 -.1)">
<use xlink:href="#c"/>
<use x="63.623047" xlink:href="#f"/>
<use x="95.410156" xlink:href="#c"/>
<use x="159.033203" xlink:href="#x"/>
</g>
</g>
<g clip-path="url(#a)">
<g transform="translate(878.63 406.19) scale(.1 -.1)">
<use xlink:href="#c"/>
<use x="63.623047" xlink:href="#f"/>
<use x="95.410156" xlink:href="#c"/>
<use x="159.033203" xlink:href="#af"/>
</g>
</g>
<g clip-path="url(#a)">
<g transform="translate(775.77 736.29) scale(.1 -.1)">
<use xlink:href="#c"/>
<use x="63.623047" xlink:href="#f"/>
<use x="95.410156" xlink:href="#c"/>
<use x="159.033203" xlink:href="#ae"/>
</g>
</g>
<g clip-path="url(#a)">
<defs>
<path id="aj" d="m31.781 34.625q-7.0312 0-11.062-3.7656-4.0156-3.7656-4.0156-10.344 0-6.5938 4.0156-10.359 4.0312-3.7656 11.062-3.7656t11.078 3.7812q4.0625 3.7969 4.0625 10.344 0 6.5781-4.0312 10.344-4.0156 3.7656-11.109 3.7656zm-9.8594 4.1875q-6.3438 1.5625-9.8906 5.9062-3.5312 4.3594-3.5312 10.609 0 8.7344 6.2188 13.812 6.2344 5.0781 17.062 5.0781 10.891 0 17.094-5.0781t6.2031-13.812q0-6.25-3.5469-10.609-3.5312-4.3438-9.8281-5.9062 7.125-1.6562 11.094-6.5 3.9844-4.8281 3.9844-11.797 0-10.609-6.4688-16.281-6.4688-5.6562-18.531-5.6562-12.047 0-18.531 5.6562-6.4688 5.6719-6.4688 16.281 0 6.9688 4 11.797 4.0156 4.8438 11.141 6.5zm-3.6094 15.578q0-5.6562 3.5312-8.8281 3.5469-3.1719 9.9375-3.1719 6.3594 0 9.9375 3.1719 3.5938 3.1719 3.5938 8.8281 0 5.6719-3.5938 8.8438-3.5781 3.1719-9.9375 3.1719-6.3906 0-9.9375-3.1719-3.5312-3.1719-3.5312-8.8438z"/>
</defs>
<g transform="translate(823.3 736.29) scale(.1 -.1)">
<use xlink:href="#c"/>
<use x="63.623047" xlink:href="#f"/>
<use x="95.410156" xlink:href="#c"/>
<use x="159.033203" xlink:href="#aj"/>
</g>
</g>
<g clip-path="url(#a)">
<g transform="translate(870.84 736.29) scale(.1 -.1)">
<use xlink:href="#c"/>
<use x="63.623047" xlink:href="#f"/>
<use x="95.410156" xlink:href="#c"/>
<use x="159.033203" xlink:href="#ad"/>
</g>
</g>
<g clip-path="url(#a)">
<g transform="translate(1044.6 491.2) scale(.1 -.1)">
<use xlink:href="#c"/>
<use x="63.623047" xlink:href="#f"/>
<use x="95.410156" xlink:href="#n"/>
<use x="159.033203" xlink:href="#ag"/>
</g>
</g>
<g clip-path="url(#a)">
<g transform="translate(918.37 736.29) scale(.1 -.1)">
<use xlink:href="#c"/>
<use x="63.623047" xlink:href="#f"/>
<use x="95.410156" xlink:href="#n"/>
<use x="159.033203" xlink:href="#c"/>
</g>
</g>
<g clip-path="url(#a)">
<g transform="translate(1049.1 574.32) scale(.1 -.1)">
<use xlink:href="#c"/>
<use x="63.623047" xlink:href="#f"/>
<use x="95.410156" xlink:href="#n"/>
<use x="159.033203" xlink:href="#n"/>
</g>
</g>
<g clip-path="url(#a)">
<g transform="translate(1340.2 574.32) scale(.1 -.1)">
<use xlink:href="#c"/>
<use x="63.623047" xlink:href="#f"/>
<use x="95.410156" xlink:href="#n"/>
<use x="159.033203" xlink:href="#m"/>
</g>
</g>
<g clip-path="url(#a)">
<g transform="translate(1251.1 736.29) scale(.1 -.1)">
<use xlink:href="#c"/>
<use x="63.623047" xlink:href="#f"/>
<use x="95.410156" xlink:href="#n"/>
<use x="159.033203" xlink:href="#q"/>
</g>
</g>
<g clip-path="url(#a)">
<g transform="translate(1298.6 736.29) scale(.1 -.1)">
<use xlink:href="#c"/>
<use x="63.623047" xlink:href="#f"/>
<use x="95.410156" xlink:href="#n"/>
<use x="159.033203" xlink:href="#x"/>
</g>
</g>
<g clip-path="url(#a)">
<g transform="translate(1346.2 736.29) scale(.1 -.1)">
<use xlink:href="#c"/>
<use x="63.623047" xlink:href="#f"/>
<use x="95.410156" xlink:href="#n"/>
<use x="159.033203" xlink:href="#af"/>
</g>
</g>
<g clip-path="url(#a)">
<g transform="translate(1465 655.86) scale(.1 -.1)">
<use xlink:href="#c"/>
<use x="63.623047" xlink:href="#f"/>
<use x="95.410156" xlink:href="#n"/>
<use x="159.033203" xlink:href="#ae"/>
</g>
</g>
<g clip-path="url(#a)">
<g transform="translate(1393.7 736.29) scale(.1 -.1)">
<use xlink:href="#c"/>
<use x="63.623047" xlink:href="#f"/>
<use x="95.410156" xlink:href="#n"/>
<use x="159.033203" xlink:href="#aj"/>
</g>
</g>
<g clip-path="url(#a)">
<g transform="translate(1441.3 736.29) scale(.1 -.1)">
<use xlink:href="#c"/>
<use x="63.623047" xlink:href="#f"/>
<use x="95.410156" xlink:href="#n"/>
<use x="159.033203" xlink:href="#ad"/>
</g>
</g>
<g clip-path="url(#a)">
<g transform="translate(1488.8 736.29) scale(.1 -.1)">
<use xlink:href="#c"/>
<use x="63.623047" xlink:href="#f"/>
<use x="95.410156" xlink:href="#m"/>
<use x="159.033203" xlink:href="#ag"/>
</g>
</g>
<g clip-path="url(#a)">
<g transform="translate(965.91 736.29) scale(.1 -.1)">
<use xlink:href="#c"/>
<use x="63.623047" xlink:href="#f"/>
<use x="95.410156" xlink:href="#m"/>
<use x="159.033203" xlink:href="#c"/>
</g>
</g>
<g clip-path="url(#a)">
<g transform="translate(1013.4 736.29) scale(.1 -.1)">
<use xlink:href="#c"/>
<use x="63.623047" xlink:href="#f"/>
<use x="95.410156" xlink:href="#m"/>
<use x="159.033203" xlink:href="#n"/>
</g>
</g>
<g clip-path="url(#a)">
<g transform="translate(1061 736.29) scale(.1 -.1)">
<use xlink:href="#c"/>
<use x="63.623047" xlink:href="#f"/>
<use x="95.410156" xlink:href="#m"/>
<use x="159.033203" xlink:href="#m"/>
</g>
</g>
<g clip-path="url(#a)">
<g transform="translate(1156 655.86) scale(.1 -.1)">
<use xlink:href="#c"/>
<use x="63.623047" xlink:href="#f"/>
<use x="95.410156" xlink:href="#m"/>
<use x="159.033203" xlink:href="#q"/>
</g>
</g>
<g clip-path="url(#a)">
<g transform="translate(1108.5 736.29) scale(.1 -.1)">
<use xlink:href="#c"/>
<use x="63.623047" xlink:href="#f"/>
<use x="95.410156" xlink:href="#m"/>
<use x="159.033203" xlink:href="#x"/>
</g>
</g>
<g clip-path="url(#a)">
<g transform="translate(1156 736.29) scale(.1 -.1)">
<use xlink:href="#c"/>
<use x="63.623047" xlink:href="#f"/>
<use x="95.410156" xlink:href="#m"/>
<use x="159.033203" xlink:href="#af"/>
</g>
</g>
<g clip-path="url(#a)">
<g transform="translate(1203.6 736.29) scale(.1 -.1)">
<use xlink:href="#c"/>
<use x="63.623047" xlink:href="#f"/>
<use x="95.410156" xlink:href="#m"/>
<use x="159.033203" xlink:href="#ae"/>
</g>
</g>
<g clip-path="url(#a)">
<g transform="translate(680.7 736.29) scale(.1 -.1)">
<use xlink:href="#c"/>
<use x="63.623047" xlink:href="#f"/>
<use x="95.410156" xlink:href="#m"/>
<use x="159.033203" xlink:href="#aj"/>
</g>
</g>
<g clip-path="url(#a)">
<g transform="translate(728.23 736.29) scale(.1 -.1)">
<use xlink:href="#c"/>
<use x="63.623047" xlink:href="#f"/>
<use x="95.410156" xlink:href="#m"/>
<use x="159.033203" xlink:href="#ad"/>
</g>
</g>
<g clip-path="url(#a)">
<g transform="translate(62.747 736.29) scale(.1 -.1)">
<use xlink:href="#c"/>
<use x="63.623047" xlink:href="#f"/>
<use x="95.410156" xlink:href="#q"/>
<use x="159.033203" xlink:href="#ag"/>
</g>
</g>
<g clip-path="url(#a)">
<g transform="translate(508.05 42.135) scale(.1 -.1)">
<use xlink:href="#c"/>
<use x="63.623047" xlink:href="#f"/>
<use x="95.410156" xlink:href="#q"/>
<use x="159.033203" xlink:href="#c"/>
</g>
</g>
<g clip-path="url(#a)">
<g transform="translate(375.46 42.135) scale(.1 -.1)">
<use xlink:href="#c"/>
<use x="63.623047" xlink:href="#f"/>
<use x="95.410156" xlink:href="#q"/>
<use x="159.033203" xlink:href="#n"/>
</g>
</g>
<g clip-path="url(#a)">
<g transform="translate(252.89 736.29) scale(.1 -.1)">
<use xlink:href="#c"/>
<use x="63.623047" xlink:href="#f"/>
<use x="95.410156" xlink:href="#q"/>
<use x="159.033203" xlink:href="#m"/>
</g>
</g>
<g clip-path="url(#a)">
<g transform="translate(347.95 736.29) scale(.1 -.1)">
<use xlink:href="#c"/>
<use x="63.623047" xlink:href="#f"/>
<use x="95.410156" xlink:href="#q"/>
<use x="159.033203" xlink:href="#q"/>
</g>
</g>
<g clip-path="url(#a)">
<g transform="translate(1536.3 736.29) scale(.1 -.1)">
<use xlink:href="#c"/>
<use x="63.623047" xlink:href="#f"/>
<use x="95.410156" xlink:href="#q"/>
<use x="159.033203" xlink:href="#x"/>
</g>
</g>
<defs>
<clipPath id="a">
<rect width="1621.3" height="853.33"/>
</clipPath>
</defs>
</svg>
