<?xml version="1.0" encoding="UTF-8"?>
<!DOCTYPE svg  PUBLIC '-//W3C//DTD SVG 1.1//EN'  'http://www.w3.org/Graphics/SVG/1.1/DTD/svg11.dtd'>
<svg width="2026.7pt" height="1066.7pt" version="1.1" viewBox="0 0 2026.7 1066.7" xmlns="http://www.w3.org/2000/svg" xmlns:xlink="http://www.w3.org/1999/xlink">
<defs>
<style type="text/css">*{stroke-linecap:butt;stroke-linejoin:round;}</style>
</defs>
<path d="m0 1066.7h2026.7v-1066.7h-2026.7z" fill="#fff"/>
<g fill="none" stroke="#000">
<path d="m987.93 49.593-659.49 200.34" clip-path="url(#a)"/>
<path d="m987.93 49.593-258 777.94" clip-path="url(#a)"/>
<path d="m987.93 49.593-187.15 777.94" clip-path="url(#a)"/>
<path d="m987.93 49.593-139.91 777.94" clip-path="url(#a)"/>
<path d="m987.93 49.593 64.768 200.34" clip-path="url(#a)"/>
<path d="m987.93 49.593 485.94 396.22" clip-path="url(#a)"/>
<path d="m987.93 49.593 757.54 777.94" clip-path="url(#a)"/>
<path d="m987.93 49.593 875.62 588.4" clip-path="url(#a)"/>
<path d="m987.93 49.593-895.66 777.94" clip-path="url(#a)"/>
<path d="m987.93 49.593-328.85 777.94" clip-path="url(#a)"/>
<path d="m987.93 49.593 285.19 777.94" clip-path="url(#a)"/>
<path d="m328.44 249.93 23.617 195.88" clip-path="url(#a)"/>
<path d="m328.44 249.93-141.7 577.6" clip-path="url(#a)"/>
<path d="m328.44 249.93-70.851 388.06" clip-path="url(#a)"/>
<path d="m328.44 249.93 47.234 388.06" clip-path="url(#a)"/>
<path d="m328.44 249.93 141.7 577.6" clip-path="url(#a)"/>
<path d="m729.93 827.53-23.617 189.54" clip-path="url(#a)"/>
<path d="m729.93 827.53 23.617 189.54" clip-path="url(#a)"/>
<path d="m800.78 827.53v189.54" clip-path="url(#a)"/>
<path d="m848.01 827.53v189.54" clip-path="url(#a)"/>
<path d="m1052.7 249.93-110.21 388.06" clip-path="url(#a)"/>
<path d="m1052.7 249.93-15.745 577.6" clip-path="url(#a)"/>
<path d="m1052.7 249.93 125.96 195.88" clip-path="url(#a)"/>
<path d="m1473.9 445.81-153.51 381.72" clip-path="url(#a)"/>
<path d="m1473.9 445.81 106.28 192.18" clip-path="url(#a)"/>
<path d="m1473.9 445.81-59.043 381.72" clip-path="url(#a)"/>
<path d="m1473.9 445.81-11.809 381.72" clip-path="url(#a)"/>
<path d="m1473.9 445.81 82.66 381.72" clip-path="url(#a)"/>
<path d="m1473.9 445.81 35.426 381.72" clip-path="url(#a)"/>
<path d="m1745.5 827.53v189.54" clip-path="url(#a)"/>
<path d="m1863.5 637.99-70.851 189.54" clip-path="url(#a)"/>
<path d="m1863.5 637.99-23.617 189.54" clip-path="url(#a)"/>
<path d="m1863.5 637.99 23.617 189.54" clip-path="url(#a)"/>
<path d="m1863.5 637.99 70.851 189.54" clip-path="url(#a)"/>
<path d="m1792.7 827.53v189.54" clip-path="url(#a)"/>
<path d="m1839.9 827.53v189.54" clip-path="url(#a)"/>
<path d="m1887.2 827.53v189.54" clip-path="url(#a)"/>
<path d="m1320.4 827.53v189.54" clip-path="url(#a)"/>
<path d="m1580.1 637.99-212.55 189.54" clip-path="url(#a)"/>
<path d="m1580.1 637.99 23.617 189.54" clip-path="url(#a)"/>
<path d="m1580.1 637.99 70.851 189.54" clip-path="url(#a)"/>
<path d="m1580.1 637.99 118.09 189.54" clip-path="url(#a)"/>
<path d="m1414.8 827.53v189.54" clip-path="url(#a)"/>
<path d="m1462.1 827.53v189.54" clip-path="url(#a)"/>
<path d="m1556.5 827.53v189.54" clip-path="url(#a)"/>
<path d="m1367.6 827.53v189.54" clip-path="url(#a)"/>
<path d="m1603.8 827.53v189.54" clip-path="url(#a)"/>
<path d="m1651 827.53v189.54" clip-path="url(#a)"/>
<path d="m1698.2 827.53v189.54" clip-path="url(#a)"/>
<path d="m942.48 637.99-47.234 189.54" clip-path="url(#a)"/>
<path d="m942.48 637.99v189.54" clip-path="url(#a)"/>
<path d="m942.48 637.99 47.234 189.54" clip-path="url(#a)"/>
<path d="m1037 827.53v189.54" clip-path="url(#a)"/>
<path d="m1178.7 445.81-47.234 192.18" clip-path="url(#a)"/>
<path d="m1178.7 445.81 47.234 381.72" clip-path="url(#a)"/>
<path d="m1178.7 445.81v381.72" clip-path="url(#a)" stroke-dasharray="3.7,1.6"/>
<path d="m1131.4 637.99-47.234 189.54" clip-path="url(#a)"/>
<path d="m1131.4 637.99v189.54" clip-path="url(#a)"/>
<path d="m1131.4 637.99 47.234 189.54" clip-path="url(#a)"/>
<path d="m1225.9 827.53v189.54" clip-path="url(#a)"/>
<path d="m1084.2 827.53v189.54" clip-path="url(#a)"/>
<path d="m1131.4 827.53v189.54" clip-path="url(#a)"/>
<path d="m1178.7 827.53v189.54" clip-path="url(#a)"/>
<path d="m895.25 827.53v189.54" clip-path="url(#a)"/>
<path d="m942.48 827.53v189.54" clip-path="url(#a)"/>
<path d="m989.72 827.53v189.54" clip-path="url(#a)"/>
<path d="m352.05 445.81-212.55 381.72" clip-path="url(#a)"/>
<path d="m352.05 445.81 212.55 192.18" clip-path="url(#a)"/>
<path d="m186.73 827.53v189.54" clip-path="url(#a)"/>
<path d="m257.59 637.99-23.617 189.54" clip-path="url(#a)"/>
<path d="m257.59 637.99 23.617 189.54" clip-path="url(#a)"/>
<path d="m375.67 637.99-47.234 189.54" clip-path="url(#a)"/>
<path d="m375.67 637.99v189.54" clip-path="url(#a)"/>
<path d="m375.67 637.99 47.234 189.54" clip-path="url(#a)"/>
<path d="m328.44 827.53v189.54" clip-path="url(#a)"/>
<path d="m375.67 827.53v189.54" clip-path="url(#a)"/>
<path d="m422.91 827.53v189.54" clip-path="url(#a)"/>
<path d="m233.97 827.53v189.54" clip-path="url(#a)"/>
<path d="m281.2 827.53v189.54" clip-path="url(#a)"/>
<path d="m139.5 827.53v189.54" clip-path="url(#a)"/>
<path d="m564.61 637.99-47.234 189.54" clip-path="url(#a)"/>
<path d="m564.61 637.99v189.54" clip-path="url(#a)"/>
<path d="m564.61 637.99 47.234 189.54" clip-path="url(#a)"/>
<path d="m517.37 827.53v189.54" clip-path="url(#a)"/>
<path d="m92.267 827.53v189.54" clip-path="url(#a)"/>
<path d="m564.61 827.53v189.54" clip-path="url(#a)"/>
<path d="m611.84 827.53v189.54" clip-path="url(#a)"/>
<path d="m1694.3 249.93-220.43 195.88" clip-path="url(#a)"/>
<path d="m1694.3 249.93 51.17 577.6" clip-path="url(#a)"/>
<path d="m1694.3 249.93 169.26 388.06" clip-path="url(#a)"/>
<path d="m1124.9 49.593-276.84 777.94" clip-path="url(#a)"/>
<path d="m1124.9 49.593-72.163 200.34" clip-path="url(#a)"/>
<path d="m1124.9 49.593 349.01 396.22" clip-path="url(#a)"/>
<path d="m867.69 49.593-539.26 200.34" clip-path="url(#a)"/>
<path d="m867.69 49.593-66.915 777.94" clip-path="url(#a)"/>
<path d="m867.69 49.593 606.17 396.22" clip-path="url(#a)"/>
<path d="m470.14 827.53v189.54" clip-path="url(#a)"/>
<path d="m659.08 827.53v189.54" clip-path="url(#a)"/>
<path d="m1273.1 827.53v189.54" clip-path="url(#a)"/>
<path d="m1509.3 827.53v189.54" clip-path="url(#a)"/>
<path d="m1934.4 827.53v189.54" clip-path="url(#a)"/>
</g>
<path d="m657.13 156.64 5.7565-1.7487q2.2964-0.6976 1.5988-2.994l-2.2505-7.4082q-0.6976-2.2964-2.994-1.5988l-5.7565 1.7487q-2.2964 0.6976-1.5988 2.994l2.2505 7.4082q0.6976 2.2964 2.994 1.5988z" clip-path="url(#a)" fill="#fff" stroke="#fff"/>
<g clip-path="url(#a)">
<defs>
<path id="aj" d="m9.8125 72.906h9.8594v-29.891h35.844v29.891h9.8594v-72.906h-9.8594v34.719h-35.844v-34.719h-9.8594z"/>
</defs>
<g transform="translate(655.95 152.75) rotate(-16.898) scale(.08 -.08)">
<use xlink:href="#aj"/>
</g>
</g>
<path d="m864.16 442.72 1.4484-4.3673q0.75548-2.278-1.5225-3.0335l-7.3489-2.4372q-2.278-0.75548-3.0335 1.5225l-1.4484 4.3673q-0.75548 2.278 1.5225 3.0335l7.3489 2.4372q2.278 0.75548 3.0335-1.5225z" clip-path="url(#a)" fill="#fff" stroke="#fff"/>
<g clip-path="url(#a)">
<defs>
<path id="af" d="m9.8125 72.906h41.891v-8.3125h-32.031v-21.484h28.906v-8.2969h-28.906v-34.812h-9.8594z"/>
</defs>
<g transform="translate(860.3 441.44) rotate(-71.652) scale(.08 -.08)">
<use xlink:href="#af"/>
</g>
</g>
<path d="m899.93 442.2 1.0426-4.3339q0.56135-2.3334-1.7721-2.8948l-7.5277-1.8109q-2.3334-0.56135-2.8948 1.7721l-1.0426 4.3339q-0.56135 2.3334 1.7721 2.8948l7.5277 1.8109q2.3334 0.56135 2.8948-1.7721z" clip-path="url(#a)" fill="#fff" stroke="#fff"/>
<g clip-path="url(#a)">
<defs>
<path id="s" d="m9.8125 72.906h9.8594v-64.609h35.5v-8.2969h-45.359z"/>
</defs>
<g transform="translate(895.98 441.25) rotate(-76.473) scale(.08 -.08)">
<use xlink:href="#s"/>
</g>
</g>
<path d="m923.75 441.87 0.78903-4.3871q0.42483-2.3621-1.9373-2.7869l-7.6202-1.3705q-2.3621-0.42483-2.7869 1.9373l-0.78903 4.3871q-0.42483 2.3621 1.9373 2.7869l7.6202 1.3705q2.3621 0.42483 2.7869-1.9373z" clip-path="url(#a)" fill="#fff" stroke="#fff"/>
<g clip-path="url(#a)">
<g transform="translate(919.75 441.15) rotate(-79.804) scale(.08 -.08)">
<use xlink:href="#s"/>
</g>
</g>
<path d="m1013.4 148.83 1.8507 5.7245q0.73827 2.2836 3.0219 1.5454l7.3671-2.3817q2.2836-0.73827 1.5454-3.0219l-1.8507-5.7245q-0.73827-2.2836-3.0219-1.5454l-7.3671 2.3817q-2.2836 0.73827-1.5454 3.0219z" clip-path="url(#a)" fill="#fff" stroke="#fff"/>
<g clip-path="url(#a)">
<g transform="translate(1017.3 147.58) rotate(72.085) scale(.08 -.08)">
<use xlink:href="#aj"/>
</g>
</g>
<path d="m1224.6 250.66 4.6627 3.8019q1.8601 1.5166 3.3767-0.34342l4.8927-6.0006q1.5166-1.8601-0.34342-3.3767l-4.6627-3.8019q-1.8601-1.5166-3.3767 0.34342l-4.8927 6.0006q-1.5166 1.8601 0.34342 3.3767z" clip-path="url(#a)" fill="#fff" stroke="#fff"/>
<g clip-path="url(#a)">
<g transform="translate(1227.2 247.51) rotate(39.193) scale(.08 -.08)">
<use xlink:href="#aj"/>
</g>
</g>
<path d="m1360.6 441.34 3.1098 3.1935q1.6744 1.7195 3.3938 0.045096l5.547-5.4015q1.7195-1.6744 0.045097-3.3938l-3.1098-3.1935q-1.6744-1.7195-3.3938-0.045097l-5.547 5.4015q-1.7195 1.6744-0.045097 3.3938z" clip-path="url(#a)" fill="#fff" stroke="#fff"/>
<g clip-path="url(#a)">
<g transform="translate(1363.6 438.51) rotate(45.761) scale(.08 -.08)">
<use xlink:href="#s"/>
</g>
</g>
<path d="m1419.7 347.32 4.9935 3.3556q1.992 1.3386 3.3306-0.65343l4.3184-6.4264q1.3386-1.992-0.65343-3.3306l-4.9935-3.3556q-1.992-1.3386-3.3306 0.65343l-4.3184 6.4264q-1.3386 1.992 0.65343 3.3306z" clip-path="url(#a)" fill="#fff" stroke="#fff"/>
<g clip-path="url(#a)">
<g transform="translate(1422 343.95) rotate(33.9) scale(.08 -.08)">
<use xlink:href="#aj"/>
</g>
</g>
<path d="m542 445.22 4.4204-3.8394q1.812-1.5738 0.23815-3.3857l-5.0771-5.8454q-1.5738-1.812-3.3857-0.23815l-4.4204 3.8394q-1.812 1.5738-0.23815 3.3857l5.0771 5.8454q1.5738 1.812 3.3857 0.23815z" clip-path="url(#a)" fill="#fff" stroke="#fff"/>
<g clip-path="url(#a)">
<defs>
<path id="z" d="m8.6875 72.906h9.9219v-44.297q0-11.719 4.2344-16.875 4.25-5.1406 13.781-5.1406 9.4688 0 13.719 5.1406 4.25 5.1562 4.25 16.875v44.297h9.9062v-45.516q0-14.25-7.0625-21.531-7.0469-7.2812-20.812-7.2812-13.828 0-20.891 7.2812-7.0469 7.2812-7.0469 21.531z"/>
</defs>
<g transform="translate(539.33 442.15) rotate(-40.976) scale(.08 -.08)">
<use xlink:href="#z"/>
</g>
</g>
<path d="m828.14 443.7 2.2797-5.393q0.93447-2.2106-1.2761-3.1451l-7.1315-3.0146q-2.2106-0.93447-3.1451 1.2761l-2.2797 5.393q-0.93446 2.2106 1.2761 3.1451l7.1315 3.0146q2.2106 0.93447 3.1451-1.2761z" clip-path="url(#a)" fill="#fff" stroke="#fff"/>
<g clip-path="url(#a)">
<g transform="translate(824.4 442.12) rotate(-67.085) scale(.08 -.08)">
<use xlink:href="#z"/>
</g>
</g>
<path d="m1123.6 437.97 2.0153 5.4972q0.82608 2.2534 3.0794 1.4273l7.2694-2.665q2.2534-0.82608 1.4273-3.0794l-2.0153-5.4972q-0.82608-2.2534-3.0794-1.4273l-7.2694 2.665q-2.2534 0.82608-1.4273 3.0794z" clip-path="url(#a)" fill="#fff" stroke="#fff"/>
<g clip-path="url(#a)">
<g transform="translate(1127.4 436.57) rotate(69.867) scale(.08 -.08)">
<use xlink:href="#z"/>
</g>
</g>
<path d="m333.69 345.91 0.65508 5.4332q0.28729 2.3827 2.67 2.0955l7.6868-0.9268q2.3827-0.28729 2.0955-2.67l-0.65508-5.4332q-0.28729-2.3827-2.67-2.0955l-7.6868 0.9268q-2.3827 0.28729-2.0955 2.67z" clip-path="url(#a)" fill="#fff" stroke="#fff"/>
<g clip-path="url(#a)">
<defs>
<path id="p" d="m34.188 63.188-13.391-36.281h26.812zm-5.5781 9.7188h11.188l27.781-72.906h-10.25l-6.6406 18.703h-32.859l-6.6406-18.703h-10.406z"/>
</defs>
<g transform="translate(337.73 345.42) rotate(83.125) scale(.08 -.08)">
<use xlink:href="#p"/>
</g>
</g>
<path d="m263.02 542.89 1.3039-5.3149q0.57184-2.3309-1.759-2.9027l-7.5195-1.8448q-2.3309-0.57184-2.9027 1.759l-1.3039 5.3149q-0.57184 2.3309 1.759 2.9027l7.5195 1.8448q2.3309 0.57184 2.9027-1.759z" clip-path="url(#a)" fill="#fff" stroke="#fff"/>
<g clip-path="url(#a)">
<g transform="translate(259.08 541.92) rotate(-76.216) scale(.08 -.08)">
<use xlink:href="#p"/>
</g>
</g>
<path d="m298.75 447.46 0.8664-4.7453q0.43106-2.361-1.9299-2.792l-7.6166-1.3906q-2.361-0.43106-2.792 1.9299l-0.8664 4.7453q-0.43107 2.361 1.9299 2.792l7.6166 1.3906q2.361 0.43107 2.792-1.9299z" clip-path="url(#a)" fill="#fff" stroke="#fff"/>
<g clip-path="url(#a)">
<defs>
<path id="ap" d="m19.672 64.797v-27.391h12.406q6.8906 0 10.641 3.5625 3.7656 3.5625 3.7656 10.156 0 6.5469-3.7656 10.109-3.75 3.5625-10.641 3.5625zm-9.8594 8.1094h22.266q12.266 0 18.531-5.5469 6.2812-5.5469 6.2812-16.234 0-10.797-6.2812-16.312-6.2656-5.5156-18.531-5.5156h-12.406v-29.297h-9.8594z"/>
</defs>
<g transform="translate(294.75 446.73) rotate(-79.653) scale(.08 -.08)">
<use xlink:href="#ap"/>
</g>
</g>
<path d="m345.5 442 0.66123 5.4324q0.28999 2.3824 2.6724 2.0924l7.6858-0.93551q2.3824-0.28999 2.0924-2.6724l-0.66123-5.4324q-0.28999-2.3824-2.6724-2.0924l-7.6858 0.93551q-2.3824 0.28999-2.0924 2.6724z" clip-path="url(#a)" fill="#fff" stroke="#fff"/>
<g clip-path="url(#a)">
<g transform="translate(349.53 441.51) rotate(83.06) scale(.08 -.08)">
<use xlink:href="#p"/>
</g>
</g>
<path d="m392.5 537.38 1.395 5.6864q0.57184 2.3309 2.9027 1.759l7.5195-1.8448q2.3309-0.57184 1.759-2.9027l-1.395-5.6864q-0.57184-2.3309-2.9027-1.759l-7.5195 1.8448q-2.3309 0.57184-1.759 2.9027z" clip-path="url(#a)" fill="#fff" stroke="#fff"/>
<g clip-path="url(#a)">
<g transform="translate(396.45 536.42) rotate(76.216) scale(.08 -.08)">
<use xlink:href="#z"/>
</g>
</g>
<path d="m722.16 940.59 4.3628-35.014q0.29675-2.3816-2.0848-2.6783l-7.6831-0.95732q-2.3816-0.29675-2.6783 2.0848l-4.3628 35.014q-0.29675 2.3816 2.0848 2.6783l7.6831 0.95732q2.3816 0.29675 2.6783-2.0848z" clip-path="url(#a)" fill="#fff" stroke="#fff"/>
<g clip-path="url(#a)">
<defs>
<path id="l" d="m-0.29688 72.906h61.672v-8.3125h-25.875v-64.594h-9.9062v64.594h-25.891z"/>
<path id="d" d="m56.203 29.594v-4.3906h-41.312q0.59375-9.2812 5.5938-14.141t13.938-4.8594q5.1719 0 10.031 1.2656t9.6562 3.8125v-8.5q-4.8438-2.0469-9.9219-3.125t-10.297-1.0781q-13.094 0-20.734 7.6094-7.6406 7.625-7.6406 20.625 0 13.422 7.25 21.297 7.25 7.8906 19.562 7.8906 11.031 0 17.453-7.1094 6.4219-7.0938 6.4219-19.297zm-8.9844 2.6406q-0.09375 7.3594-4.125 11.75-4.0312 4.4062-10.672 4.4062-7.5156 0-12.031-4.25t-5.2031-11.969z"/>
<path id="j" d="m41.109 46.297q-1.5156 0.875-3.2969 1.2812-1.7812 0.42188-3.9219 0.42188-7.625 0-11.703-4.9531t-4.0781-14.234v-28.812h-9.0312v54.688h9.0312v-8.5q2.8438 4.9844 7.375 7.3906 4.5469 2.4219 11.047 2.4219 0.92188 0 2.0469-0.125 1.125-0.10938 2.4844-0.35938z"/>
<path id="k" d="m52 44.188q3.375 6.0625 8.0625 8.9375t11.031 2.875q8.5469 0 13.188-5.9844 4.6406-5.9688 4.6406-17v-33.016h-9.0312v32.719q0 7.8594-2.7969 11.656-2.7812 3.8125-8.4844 3.8125-6.9844 0-11.047-4.6406-4.0469-4.625-4.0469-12.641v-30.906h-9.0312v32.719q0 7.9062-2.7812 11.688t-8.5938 3.7812q-6.8906 0-10.953-4.6562-4.0469-4.6562-4.0469-12.625v-30.906h-9.0312v54.688h9.0312v-8.5q3.0781 5.0312 7.375 7.4219t10.203 2.3906q5.9688 0 10.141-3.0312 4.1719-3.0156 6.1719-8.7812z"/>
<path id="f" d="m9.4219 54.688h8.9844v-54.688h-8.9844zm0 21.297h8.9844v-11.391h-8.9844z"/>
<path id="g" d="m54.891 33.016v-33.016h-8.9844v32.719q0 7.7656-3.0312 11.609-3.0312 3.8594-9.0781 3.8594-7.2812 0-11.484-4.6406-4.2031-4.625-4.2031-12.641v-30.906h-9.0312v54.688h9.0312v-8.5q3.2344 4.9375 7.5938 7.375 4.375 2.4375 10.094 2.4375 9.4219 0 14.25-5.8281 4.8438-5.8281 4.8438-17.156z"/>
<path id="h" d="m34.281 27.484q-10.891 0-15.094-2.4844t-4.2031-8.5q0-4.7812 3.1562-7.5938 3.1562-2.7969 8.5625-2.7969 7.4844 0 12 5.2969t4.5156 14.078v2zm17.922 3.7188v-31.203h-8.9844v8.2969q-3.0781-4.9688-7.6719-7.3438t-11.234-2.375q-8.3906 0-13.359 4.7188-4.9531 4.7188-4.9531 12.625 0 9.2188 6.1719 13.906 6.1875 4.6875 18.438 4.6875h12.609v0.89062q0 6.2031-4.0781 9.5938t-11.453 3.3906q-4.6875 0-9.1406-1.125-4.4375-1.125-8.5312-3.375v8.3125q4.9219 1.9062 9.5625 2.8438 4.6406 0.95312 9.0312 0.95312 11.875 0 17.734-6.1562 5.8594-6.1406 5.8594-18.641z"/>
<path id="i" d="m9.4219 75.984h8.9844v-75.984h-8.9844z"/>
</defs>
<g transform="translate(718.13 940.08) rotate(-82.897) scale(.08 -.08)">
<use xlink:href="#l"/>
<use x="60.818359" xlink:href="#d"/>
<use x="122.341797" xlink:href="#j"/>
<use x="163.439453" xlink:href="#k"/>
<use x="260.851562" xlink:href="#f"/>
<use x="288.634766" xlink:href="#g"/>
<use x="352.013672" xlink:href="#h"/>
<use x="413.292969" xlink:href="#i"/>
</g>
</g>
<path d="m733.33 905.57 4.3628 35.014q0.29675 2.3816 2.6783 2.0848l7.6831-0.95732q2.3816-0.29675 2.0848-2.6783l-4.3628-35.014q-0.29675-2.3816-2.6783-2.0848l-7.6831 0.95732q-2.3816 0.29675-2.0848 2.6783z" clip-path="url(#a)" fill="#fff" stroke="#fff"/>
<g clip-path="url(#a)">
<g transform="translate(737.36 905.07) rotate(82.897) scale(.08 -.08)">
<use xlink:href="#l"/>
<use x="60.818359" xlink:href="#d"/>
<use x="122.341797" xlink:href="#j"/>
<use x="163.439453" xlink:href="#k"/>
<use x="260.851562" xlink:href="#f"/>
<use x="288.634766" xlink:href="#g"/>
<use x="352.013672" xlink:href="#h"/>
<use x="413.292969" xlink:href="#i"/>
</g>
</g>
<path d="m794.51 904.66v35.285q0 2.4 2.4 2.4h7.7425q2.4 0 2.4-2.4v-35.285q0-2.4-2.4-2.4h-7.7425q-2.4 0-2.4 2.4z" clip-path="url(#a)" fill="#fff" stroke="#fff"/>
<g clip-path="url(#a)">
<g transform="translate(798.57 904.66) rotate(90) scale(.08 -.08)">
<use xlink:href="#l"/>
<use x="60.818359" xlink:href="#d"/>
<use x="122.341797" xlink:href="#j"/>
<use x="163.439453" xlink:href="#k"/>
<use x="260.851562" xlink:href="#f"/>
<use x="288.634766" xlink:href="#g"/>
<use x="352.013672" xlink:href="#h"/>
<use x="413.292969" xlink:href="#i"/>
</g>
</g>
<path d="m841.74 904.66v35.285q0 2.4 2.4 2.4h7.7425q2.4 0 2.4-2.4v-35.285q0-2.4-2.4-2.4h-7.7425q-2.4 0-2.4 2.4z" clip-path="url(#a)" fill="#fff" stroke="#fff"/>
<g clip-path="url(#a)">
<g transform="translate(845.81 904.66) rotate(90) scale(.08 -.08)">
<use xlink:href="#l"/>
<use x="60.818359" xlink:href="#d"/>
<use x="122.341797" xlink:href="#j"/>
<use x="163.439453" xlink:href="#k"/>
<use x="260.851562" xlink:href="#f"/>
<use x="288.634766" xlink:href="#g"/>
<use x="352.013672" xlink:href="#h"/>
<use x="413.292969" xlink:href="#i"/>
</g>
</g>
<path d="m1002.9 448.31 1.4951-5.2643q0.6557-2.3087-1.653-2.9644l-7.4479-2.1153q-2.3087-0.6557-2.9644 1.653l-1.4951 5.2643q-0.6557 2.3087 1.653 2.9644l7.4479 2.1153q2.3087 0.6557 2.9644-1.653z" clip-path="url(#a)" fill="#fff" stroke="#fff"/>
<g clip-path="url(#a)">
<g transform="translate(998.96 447.2) rotate(-74.145) scale(.08 -.08)">
<use xlink:href="#p"/>
</g>
</g>
<path d="m1051 541.44 0.13839-5.0769q0.065397-2.3991-2.3337-2.4645l-7.7396-0.21097q-2.3991-0.065397-2.4645 2.3337l-0.13839 5.0769q-0.065397 2.3991 2.3337 2.4645l7.7396 0.21097q2.3991 0.065397 2.4645-2.3337z" clip-path="url(#a)" fill="#fff" stroke="#fff"/>
<g clip-path="url(#a)">
<defs>
<path id="ao" d="m53.516 70.516v-9.625q-5.6094 2.6875-10.594 4-4.9844 1.3281-9.625 1.3281-8.0469 0-12.422-3.125t-4.375-8.8906q0-4.8438 2.9062-7.3125 2.9062-2.4531 11.016-3.9688l5.9531-1.2188q11.031-2.1094 16.281-7.4062t5.25-14.172q0-10.609-7.1094-16.078-7.0938-5.4688-20.812-5.4688-5.1719 0-11.016 1.1719-5.8281 1.1719-12.078 3.4688v10.156q6-3.3594 11.766-5.0781 5.7656-1.7031 11.328-1.7031 8.4375 0 13.031 3.3125 4.5938 3.3281 4.5938 9.4844 0 5.3594-3.2969 8.3906t-10.812 4.5469l-6.0156 1.1719q-11.031 2.1875-15.969 6.875-4.9219 4.6875-4.9219 13.047 0 9.6719 6.8125 15.234t18.766 5.5625q5.1406 0 10.453-0.9375 5.3281-0.92188 10.891-2.7656z"/>
</defs>
<g transform="translate(1047 541.33) rotate(-88.439) scale(.08 -.08)">
<use xlink:href="#ao"/>
</g>
</g>
<path d="m1108.9 348.96 2.9599 4.603q1.2981 2.0187 3.3167 0.72058l6.5123-4.1877q2.0187-1.2981 0.72058-3.3167l-2.9599-4.603q-1.2981-2.0187-3.3167-0.72058l-6.5123 4.1877q-2.0187 1.2981-0.72058 3.3167z" clip-path="url(#a)" fill="#fff" stroke="#fff"/>
<g clip-path="url(#a)">
<g transform="translate(1112.3 346.77) rotate(57.257) scale(.08 -.08)">
<use xlink:href="#p"/>
</g>
</g>
<path d="m1402.1 641.15 1.7168-4.269q0.89548-2.2267-1.3312-3.1222l-7.1834-2.8888q-2.2267-0.89548-3.1222 1.3312l-1.7168 4.269q-0.89548 2.2267 1.3312 3.1222l7.1834 2.8888q2.2267 0.89548 3.1222-1.3312z" clip-path="url(#a)" fill="#fff" stroke="#fff"/>
<g clip-path="url(#a)">
<g transform="translate(1398.3 639.63) rotate(-68.092) scale(.08 -.08)">
<use xlink:href="#af"/>
</g>
</g>
<path d="m1520.3 542.71 2.4578 4.4444q1.1615 2.1002 3.2617 0.93878l6.7755-3.7469q2.1002-1.1615 0.93878-3.2617l-2.4578-4.4444q-1.1615-2.1002-3.2617-0.93878l-6.7755 3.7469q-2.1002 1.1615-0.93878 3.2617z" clip-path="url(#a)" fill="#fff" stroke="#fff"/>
<g clip-path="url(#a)">
<g transform="translate(1523.8 540.75) rotate(61.057) scale(.08 -.08)">
<use xlink:href="#ao"/>
</g>
</g>
<path d="m1450.1 640.68 0.9416-6.0876q0.36686-2.3718-2.0049-2.7387l-7.6515-1.1835q-2.3718-0.36686-2.7387 2.0049l-0.94161 6.0876q-0.36686 2.3718 2.0049 2.7387l7.6515 1.1835q2.3718 0.36686 2.7387-2.0049z" clip-path="url(#a)" fill="#fff" stroke="#fff"/>
<g clip-path="url(#a)">
<defs>
<path id="at" d="m19.672 64.797v-56.688h11.922q15.094 0 22.094 6.8281 7 6.8438 7 21.594 0 14.641-7 21.453t-22.094 6.8125zm-9.8594 8.1094h20.266q21.188 0 31.094-8.8125 9.9219-8.8125 9.9219-27.562 0-18.859-9.9688-27.703-9.9531-8.8281-31.047-8.8281h-20.266z"/>
</defs>
<g transform="translate(1446.1 640.05) rotate(-81.207) scale(.08 -.08)">
<use xlink:href="#at"/>
</g>
</g>
<path d="m1474.2 639.17 0.14227-4.599q0.074209-2.3989-2.3246-2.4731l-7.7388-0.2394q-2.3989-0.074209-2.4731 2.3246l-0.14227 4.599q-0.074209 2.3989 2.3246 2.4731l7.7388 0.2394q2.3989 0.074208 2.4731-2.3246z" clip-path="url(#a)" fill="#fff" stroke="#fff"/>
<g clip-path="url(#a)">
<g transform="translate(1470.1 639.04) rotate(-88.228) scale(.08 -.08)">
<use xlink:href="#af"/>
</g>
</g>
<path d="m1508.5 635.33 1.1582 5.3485q0.50794 2.3456 2.8536 1.8377l7.5671-1.6386q2.3456-0.50794 1.8377-2.8536l-1.1582-5.3485q-0.50794-2.3456-2.8536-1.8377l-7.5671 1.6386q-2.3456 0.50794-1.8377 2.8536z" clip-path="url(#a)" fill="#fff" stroke="#fff"/>
<g clip-path="url(#a)">
<g transform="translate(1512.5 634.47) rotate(77.781) scale(.08 -.08)">
<use xlink:href="#p"/>
</g>
</g>
<path d="m1485.1 634.34 0.54105 5.8299q0.22178 2.3897 2.6115 2.168l7.7094-0.71547q2.3897-0.22178 2.168-2.6115l-0.54105-5.8299q-0.22178-2.3897-2.6115-2.168l-7.7094 0.71547q-2.3897 0.22178-2.168 2.6115z" clip-path="url(#a)" fill="#fff" stroke="#fff"/>
<g clip-path="url(#a)">
<g transform="translate(1489.1 633.96) rotate(84.698) scale(.08 -.08)">
<use xlink:href="#z"/>
</g>
</g>
<path d="m1739.2 904.66v35.285q0 2.4 2.4 2.4h7.7425q2.4 0 2.4-2.4v-35.285q0-2.4-2.4-2.4h-7.7425q-2.4 0-2.4 2.4z" clip-path="url(#a)" fill="#fff" stroke="#fff"/>
<g clip-path="url(#a)">
<g transform="translate(1743.3 904.66) rotate(90) scale(.08 -.08)">
<use xlink:href="#l"/>
<use x="60.818359" xlink:href="#d"/>
<use x="122.341797" xlink:href="#j"/>
<use x="163.439453" xlink:href="#k"/>
<use x="260.851562" xlink:href="#f"/>
<use x="288.634766" xlink:href="#g"/>
<use x="352.013672" xlink:href="#h"/>
<use x="413.292969" xlink:href="#i"/>
</g>
</g>
<path d="m1833 737.52 1.9161-5.1261q0.84034-2.2481-1.4077-3.0884l-7.2524-2.711q-2.2481-0.84034-3.0884 1.4077l-1.9161 5.1261q-0.84034 2.2481 1.4077 3.0884l7.2524 2.711q2.2481 0.84034 3.0884-1.4077z" clip-path="url(#a)" fill="#fff" stroke="#fff"/>
<g clip-path="url(#a)">
<g transform="translate(1829.2 736.1) rotate(-69.504) scale(.08 -.08)">
<use xlink:href="#p"/>
</g>
</g>
<path d="m1857.6 736.25 0.67665-5.4305q0.29675-2.3816-2.0848-2.6783l-7.6831-0.95732q-2.3816-0.29675-2.6783 2.0848l-0.67665 5.4305q-0.29675 2.3816 2.0848 2.6783l7.6831 0.95732q2.3816 0.29675 2.6783-2.0848z" clip-path="url(#a)" fill="#fff" stroke="#fff"/>
<g clip-path="url(#a)">
<g transform="translate(1853.6 735.75) rotate(-82.897) scale(.08 -.08)">
<use xlink:href="#p"/>
</g>
</g>
<path d="m1868.8 731.14 0.59643 4.7867q0.29675 2.3816 2.6783 2.0848l7.6831-0.95732q2.3816-0.29675 2.0848-2.6783l-0.59643-4.7867q-0.29675-2.3816-2.6783-2.0848l-7.6831 0.95732q-2.3816 0.29675-2.0848 2.6783z" clip-path="url(#a)" fill="#fff" stroke="#fff"/>
<g clip-path="url(#a)">
<g transform="translate(1872.9 730.64) rotate(82.897) scale(.08 -.08)">
<use xlink:href="#ap"/>
</g>
</g>
<path d="m1892.1 732.22 2.0501 5.4844q0.84034 2.2481 3.0884 1.4077l7.2524-2.711q2.2481-0.84034 1.4077-3.0884l-2.0501-5.4844q-0.84034-2.2481-3.0884-1.4077l-7.2524 2.711q-2.2481 0.84034-1.4077 3.0884z" clip-path="url(#a)" fill="#fff" stroke="#fff"/>
<g clip-path="url(#a)">
<g transform="translate(1895.9 730.79) rotate(69.504) scale(.08 -.08)">
<use xlink:href="#z"/>
</g>
</g>
<path d="m1786.4 904.66v35.285q0 2.4 2.4 2.4h7.7425q2.4 0 2.4-2.4v-35.285q0-2.4-2.4-2.4h-7.7425q-2.4 0-2.4 2.4z" clip-path="url(#a)" fill="#fff" stroke="#fff"/>
<g clip-path="url(#a)">
<g transform="translate(1790.5 904.66) rotate(90) scale(.08 -.08)">
<use xlink:href="#l"/>
<use x="60.818359" xlink:href="#d"/>
<use x="122.341797" xlink:href="#j"/>
<use x="163.439453" xlink:href="#k"/>
<use x="260.851562" xlink:href="#f"/>
<use x="288.634766" xlink:href="#g"/>
<use x="352.013672" xlink:href="#h"/>
<use x="413.292969" xlink:href="#i"/>
</g>
</g>
<path d="m1833.7 904.66v35.285q0 2.4 2.4 2.4h7.7425q2.4 0 2.4-2.4v-35.285q0-2.4-2.4-2.4h-7.7425q-2.4 0-2.4 2.4z" clip-path="url(#a)" fill="#fff" stroke="#fff"/>
<g clip-path="url(#a)">
<g transform="translate(1837.7 904.66) rotate(90) scale(.08 -.08)">
<use xlink:href="#l"/>
<use x="60.818359" xlink:href="#d"/>
<use x="122.341797" xlink:href="#j"/>
<use x="163.439453" xlink:href="#k"/>
<use x="260.851562" xlink:href="#f"/>
<use x="288.634766" xlink:href="#g"/>
<use x="352.013672" xlink:href="#h"/>
<use x="413.292969" xlink:href="#i"/>
</g>
</g>
<path d="m1880.9 904.66v35.285q0 2.4 2.4 2.4h7.7425q2.4 0 2.4-2.4v-35.285q0-2.4-2.4-2.4h-7.7425q-2.4 0-2.4 2.4z" clip-path="url(#a)" fill="#fff" stroke="#fff"/>
<g clip-path="url(#a)">
<g transform="translate(1885 904.66) rotate(90) scale(.08 -.08)">
<use xlink:href="#l"/>
<use x="60.818359" xlink:href="#d"/>
<use x="122.341797" xlink:href="#j"/>
<use x="163.439453" xlink:href="#k"/>
<use x="260.851562" xlink:href="#f"/>
<use x="288.634766" xlink:href="#g"/>
<use x="352.013672" xlink:href="#h"/>
<use x="413.292969" xlink:href="#i"/>
</g>
</g>
<path d="m1314.1 904.66v35.285q0 2.4 2.4 2.4h7.7425q2.4 0 2.4-2.4v-35.285q0-2.4-2.4-2.4h-7.7425q-2.4 0-2.4 2.4z" clip-path="url(#a)" fill="#fff" stroke="#fff"/>
<g clip-path="url(#a)">
<g transform="translate(1318.1 904.66) rotate(90) scale(.08 -.08)">
<use xlink:href="#l"/>
<use x="60.818359" xlink:href="#d"/>
<use x="122.341797" xlink:href="#j"/>
<use x="163.439453" xlink:href="#k"/>
<use x="260.851562" xlink:href="#f"/>
<use x="288.634766" xlink:href="#g"/>
<use x="352.013672" xlink:href="#h"/>
<use x="413.292969" xlink:href="#i"/>
</g>
</g>
<path d="m1476.2 739.12 3.7728-3.3644q1.7912-1.5973 0.19393-3.3886l-5.153-5.7786q-1.5973-1.7913-3.3886-0.19393l-3.7728 3.3644q-1.7912 1.5973-0.19393 3.3886l5.153 5.7786q1.5973 1.7912 3.3886 0.19393z" clip-path="url(#a)" fill="#fff" stroke="#fff"/>
<g clip-path="url(#a)">
<defs>
<path id="v" d="m9.8125 72.906h46.094v-8.3125h-36.234v-21.578h34.719v-8.2969h-34.719v-26.422h37.109v-8.2969h-46.969z"/>
</defs>
<g transform="translate(1473.4 736.09) rotate(-41.724) scale(.08 -.08)">
<use xlink:href="#v"/>
</g>
</g>
<path d="m1585.4 731.25 0.56892 4.5659q0.29675 2.3816 2.6783 2.0848l7.6831-0.95732q2.3816-0.29675 2.0848-2.6783l-0.56892-4.5659q-0.29675-2.3816-2.6783-2.0848l-7.6831 0.95732q-2.3816 0.29675-2.0848 2.6783z" clip-path="url(#a)" fill="#fff" stroke="#fff"/>
<g clip-path="url(#a)">
<g transform="translate(1589.5 730.75) rotate(82.897) scale(.08 -.08)">
<use xlink:href="#af"/>
</g>
</g>
<path d="m1608.8 732.59 1.77 4.735q0.84034 2.2481 3.0884 1.4077l7.2524-2.711q2.2481-0.84034 1.4077-3.0884l-1.77-4.735q-0.84034-2.2481-3.0884-1.4077l-7.2524 2.711q-2.2481 0.84034-1.4077 3.0884z" clip-path="url(#a)" fill="#fff" stroke="#fff"/>
<g clip-path="url(#a)">
<g transform="translate(1612.6 731.17) rotate(69.504) scale(.08 -.08)">
<use xlink:href="#v"/>
</g>
</g>
<path d="m1632.4 733.71 2.9539 4.7414q1.2691 2.037 3.3061 0.76794l6.5715-4.0941q2.037-1.2691 0.76794-3.3061l-2.9539-4.7414q-1.2691-2.037-3.3061-0.76794l-6.5715 4.0941q-2.037 1.2691-0.76794 3.3061z" clip-path="url(#a)" fill="#fff" stroke="#fff"/>
<g clip-path="url(#a)">
<defs>
<path id="x" d="m64.406 67.281v-10.391q-4.9844 4.6406-10.625 6.9219-5.6406 2.2969-11.984 2.2969-12.5 0-19.141-7.6406t-6.6406-22.094q0-14.406 6.6406-22.047t19.141-7.6406q6.3438 0 11.984 2.2969t10.625 6.9375v-10.312q-5.1719-3.5156-10.969-5.2812-5.7812-1.75-12.219-1.75-16.562 0-26.094 10.125-9.5156 10.141-9.5156 27.672 0 17.578 9.5156 27.703 9.5312 10.141 26.094 10.141 6.5312 0 12.312-1.7344 5.7969-1.7344 10.875-5.2031z"/>
</defs>
<g transform="translate(1635.8 731.56) rotate(58.077) scale(.08 -.08)">
<use xlink:href="#x"/>
</g>
</g>
<path d="m1408.6 904.66v35.285q0 2.4 2.4 2.4h7.7425q2.4 0 2.4-2.4v-35.285q0-2.4-2.4-2.4h-7.7425q-2.4 0-2.4 2.4z" clip-path="url(#a)" fill="#fff" stroke="#fff"/>
<g clip-path="url(#a)">
<g transform="translate(1412.6 904.66) rotate(90) scale(.08 -.08)">
<use xlink:href="#l"/>
<use x="60.818359" xlink:href="#d"/>
<use x="122.341797" xlink:href="#j"/>
<use x="163.439453" xlink:href="#k"/>
<use x="260.851562" xlink:href="#f"/>
<use x="288.634766" xlink:href="#g"/>
<use x="352.013672" xlink:href="#h"/>
<use x="413.292969" xlink:href="#i"/>
</g>
</g>
<path d="m1455.8 904.66v35.285q0 2.4 2.4 2.4h7.7425q2.4 0 2.4-2.4v-35.285q0-2.4-2.4-2.4h-7.7425q-2.4 0-2.4 2.4z" clip-path="url(#a)" fill="#fff" stroke="#fff"/>
<g clip-path="url(#a)">
<g transform="translate(1459.9 904.66) rotate(90) scale(.08 -.08)">
<use xlink:href="#l"/>
<use x="60.818359" xlink:href="#d"/>
<use x="122.341797" xlink:href="#j"/>
<use x="163.439453" xlink:href="#k"/>
<use x="260.851562" xlink:href="#f"/>
<use x="288.634766" xlink:href="#g"/>
<use x="352.013672" xlink:href="#h"/>
<use x="413.292969" xlink:href="#i"/>
</g>
</g>
<path d="m1550.3 904.66v35.285q0 2.4 2.4 2.4h7.7425q2.4 0 2.4-2.4v-35.285q0-2.4-2.4-2.4h-7.7425q-2.4 0-2.4 2.4z" clip-path="url(#a)" fill="#fff" stroke="#fff"/>
<g clip-path="url(#a)">
<g transform="translate(1554.3 904.66) rotate(90) scale(.08 -.08)">
<use xlink:href="#l"/>
<use x="60.818359" xlink:href="#d"/>
<use x="122.341797" xlink:href="#j"/>
<use x="163.439453" xlink:href="#k"/>
<use x="260.851562" xlink:href="#f"/>
<use x="288.634766" xlink:href="#g"/>
<use x="352.013672" xlink:href="#h"/>
<use x="413.292969" xlink:href="#i"/>
</g>
</g>
<path d="m1361.3 904.66v35.285q0 2.4 2.4 2.4h7.7425q2.4 0 2.4-2.4v-35.285q0-2.4-2.4-2.4h-7.7425q-2.4 0-2.4 2.4z" clip-path="url(#a)" fill="#fff" stroke="#fff"/>
<g clip-path="url(#a)">
<g transform="translate(1365.4 904.66) rotate(90) scale(.08 -.08)">
<use xlink:href="#l"/>
<use x="60.818359" xlink:href="#d"/>
<use x="122.341797" xlink:href="#j"/>
<use x="163.439453" xlink:href="#k"/>
<use x="260.851562" xlink:href="#f"/>
<use x="288.634766" xlink:href="#g"/>
<use x="352.013672" xlink:href="#h"/>
<use x="413.292969" xlink:href="#i"/>
</g>
</g>
<path d="m1597.5 904.66v35.285q0 2.4 2.4 2.4h7.7425q2.4 0 2.4-2.4v-35.285q0-2.4-2.4-2.4h-7.7425q-2.4 0-2.4 2.4z" clip-path="url(#a)" fill="#fff" stroke="#fff"/>
<g clip-path="url(#a)">
<g transform="translate(1601.6 904.66) rotate(90) scale(.08 -.08)">
<use xlink:href="#l"/>
<use x="60.818359" xlink:href="#d"/>
<use x="122.341797" xlink:href="#j"/>
<use x="163.439453" xlink:href="#k"/>
<use x="260.851562" xlink:href="#f"/>
<use x="288.634766" xlink:href="#g"/>
<use x="352.013672" xlink:href="#h"/>
<use x="413.292969" xlink:href="#i"/>
</g>
</g>
<path d="m1644.7 904.66v35.285q0 2.4 2.4 2.4h7.7425q2.4 0 2.4-2.4v-35.285q0-2.4-2.4-2.4h-7.7425q-2.4 0-2.4 2.4z" clip-path="url(#a)" fill="#fff" stroke="#fff"/>
<g clip-path="url(#a)">
<g transform="translate(1648.8 904.66) rotate(90) scale(.08 -.08)">
<use xlink:href="#l"/>
<use x="60.818359" xlink:href="#d"/>
<use x="122.341797" xlink:href="#j"/>
<use x="163.439453" xlink:href="#k"/>
<use x="260.851562" xlink:href="#f"/>
<use x="288.634766" xlink:href="#g"/>
<use x="352.013672" xlink:href="#h"/>
<use x="413.292969" xlink:href="#i"/>
</g>
</g>
<path d="m1692 904.66v35.285q0 2.4 2.4 2.4h7.7425q2.4 0 2.4-2.4v-35.285q0-2.4-2.4-2.4h-7.7425q-2.4 0-2.4 2.4z" clip-path="url(#a)" fill="#fff" stroke="#fff"/>
<g clip-path="url(#a)">
<g transform="translate(1696 904.66) rotate(90) scale(.08 -.08)">
<use xlink:href="#l"/>
<use x="60.818359" xlink:href="#d"/>
<use x="122.341797" xlink:href="#j"/>
<use x="163.439453" xlink:href="#k"/>
<use x="260.851562" xlink:href="#f"/>
<use x="288.634766" xlink:href="#g"/>
<use x="352.013672" xlink:href="#h"/>
<use x="413.292969" xlink:href="#i"/>
</g>
</g>
<path d="m924.34 736.73 1.2223-4.905q0.58034-2.3288-1.7484-2.9091l-7.5127-1.8722q-2.3288-0.58034-2.9091 1.7484l-1.2223 4.905q-0.58034 2.3288 1.7484 2.9091l7.5127 1.8722q2.3288 0.58034 2.9091-1.7484z" clip-path="url(#a)" fill="#fff" stroke="#fff"/>
<g clip-path="url(#a)">
<g transform="translate(920.4 735.75) rotate(-76.007) scale(.08 -.08)">
<use xlink:href="#v"/>
</g>
</g>
<path d="m936.21 730.23v5.055q0 2.4 2.4 2.4h7.7425q2.4 0 2.4-2.4v-5.055q0-2.4-2.4-2.4h-7.7425q-2.4 0-2.4 2.4z" clip-path="url(#a)" fill="#fff" stroke="#fff"/>
<g clip-path="url(#a)">
<g transform="translate(940.27 730.23) rotate(90) scale(.08 -.08)">
<use xlink:href="#v"/>
</g>
</g>
<path d="m959.34 731.57 1.3508 5.4205q0.58034 2.3288 2.9091 1.7484l7.5127-1.8722q2.3288-0.58034 1.7484-2.9091l-1.3508-5.4205q-0.58034-2.3288-2.9091-1.7484l-7.5127 1.8722q-2.3288 0.58034-1.7484 2.9091z" clip-path="url(#a)" fill="#fff" stroke="#fff"/>
<g clip-path="url(#a)">
<g transform="translate(963.28 730.59) rotate(76.007) scale(.08 -.08)">
<use xlink:href="#x"/>
</g>
</g>
<path d="m1030.7 904.66v35.285q0 2.4 2.4 2.4h7.7425q2.4 0 2.4-2.4v-35.285q0-2.4-2.4-2.4h-7.7425q-2.4 0-2.4 2.4z" clip-path="url(#a)" fill="#fff" stroke="#fff"/>
<g clip-path="url(#a)">
<g transform="translate(1034.7 904.66) rotate(90) scale(.08 -.08)">
<use xlink:href="#l"/>
<use x="60.818359" xlink:href="#d"/>
<use x="122.341797" xlink:href="#j"/>
<use x="163.439453" xlink:href="#k"/>
<use x="260.851562" xlink:href="#f"/>
<use x="288.634766" xlink:href="#g"/>
<use x="352.013672" xlink:href="#h"/>
<use x="413.292969" xlink:href="#i"/>
</g>
</g>
<path d="m1160.5 545.85 1.2065-4.9089q0.57283-2.3306-1.7578-2.9035l-7.5187-1.848q-2.3306-0.57283-2.9035 1.7578l-1.2065 4.9089q-0.57283 2.3306 1.7578 2.9035l7.5187 1.848q2.3306 0.57283 2.9035-1.7578z" clip-path="url(#a)" fill="#fff" stroke="#fff"/>
<g clip-path="url(#a)">
<g transform="translate(1156.6 544.88) rotate(-76.191) scale(.08 -.08)">
<use xlink:href="#v"/>
</g>
</g>
<path d="m1195.7 634.67 0.68601 5.544q0.29473 2.3818 2.6766 2.0871l7.6839-0.95081q2.3818-0.29473 2.0871-2.6766l-0.68601-5.544q-0.29473-2.3818-2.6766-2.0871l-7.6839 0.95081q-2.3818 0.29473-2.0871 2.6766z" clip-path="url(#a)" fill="#fff" stroke="#fff"/>
<g clip-path="url(#a)">
<g transform="translate(1199.7 634.17) rotate(82.946) scale(.08 -.08)">
<use xlink:href="#x"/>
</g>
</g>
<path d="m1172.4 634.15v5.055q0 2.4 2.4 2.4h7.7425q2.4 0 2.4-2.4v-5.055q0-2.4-2.4-2.4h-7.7425q-2.4 0-2.4 2.4z" clip-path="url(#a)" fill="#fff" stroke="#fff"/>
<g clip-path="url(#a)">
<g transform="translate(1176.4 634.15) rotate(90) scale(.08 -.08)">
<use xlink:href="#v"/>
</g>
</g>
<path d="m1113.2 736.98 1.3441-5.3938q0.58034-2.3288-1.7484-2.9091l-7.5127-1.8722q-2.3288-0.58034-2.9091 1.7484l-1.3441 5.3938q-0.58034 2.3288 1.7484 2.9091l7.5127 1.8722q2.3288 0.58034 2.9091-1.7484z" clip-path="url(#a)" fill="#fff" stroke="#fff"/>
<g clip-path="url(#a)">
<defs>
<path id="aa" d="m44.391 34.188q3.1719-1.0781 6.1719-4.5938t6.0312-9.6719l10.016-19.922h-10.609l-9.3125 18.703q-3.625 7.3281-7.0156 9.7188t-9.25 2.3906h-10.75v-30.812h-9.8594v72.906h22.266q12.5 0 18.656-5.2344 6.1562-5.2188 6.1562-15.766 0-6.8906-3.2031-11.438-3.2031-4.5312-9.2969-6.2812zm-24.719 30.609v-25.875h12.406q7.125 0 10.766 3.2969t3.6406 9.6875-3.6406 9.6406-10.766 3.25z"/>
</defs>
<g transform="translate(1109.3 735.99) rotate(-76.007) scale(.08 -.08)">
<use xlink:href="#aa"/>
</g>
</g>
<path d="m1125.1 729.97v5.5862q0 2.4 2.4 2.4h7.7425q2.4 0 2.4-2.4v-5.5862q0-2.4-2.4-2.4h-7.7425q-2.4 0-2.4 2.4z" clip-path="url(#a)" fill="#fff" stroke="#fff"/>
<g clip-path="url(#a)">
<g transform="translate(1129.2 729.97) rotate(90) scale(.08 -.08)">
<use xlink:href="#x"/>
</g>
</g>
<path d="m1148.3 731.58 1.3441 5.3938q0.58034 2.3288 2.9091 1.7484l7.5127-1.8722q2.3288-0.58034 1.7484-2.9091l-1.3441-5.3938q-0.58034-2.3288-2.9091-1.7484l-7.5127 1.8722q-2.3288 0.58034-1.7484 2.9091z" clip-path="url(#a)" fill="#fff" stroke="#fff"/>
<g clip-path="url(#a)">
<g transform="translate(1152.2 730.6) rotate(76.007) scale(.08 -.08)">
<use xlink:href="#aa"/>
</g>
</g>
<path d="m1219.6 904.66v35.285q0 2.4 2.4 2.4h7.7425q2.4 0 2.4-2.4v-35.285q0-2.4-2.4-2.4h-7.7425q-2.4 0-2.4 2.4z" clip-path="url(#a)" fill="#fff" stroke="#fff"/>
<g clip-path="url(#a)">
<g transform="translate(1223.7 904.66) rotate(90) scale(.08 -.08)">
<use xlink:href="#l"/>
<use x="60.818359" xlink:href="#d"/>
<use x="122.341797" xlink:href="#j"/>
<use x="163.439453" xlink:href="#k"/>
<use x="260.851562" xlink:href="#f"/>
<use x="288.634766" xlink:href="#g"/>
<use x="352.013672" xlink:href="#h"/>
<use x="413.292969" xlink:href="#i"/>
</g>
</g>
<path d="m1077.9 904.66v35.285q0 2.4 2.4 2.4h7.7425q2.4 0 2.4-2.4v-35.285q0-2.4-2.4-2.4h-7.7425q-2.4 0-2.4 2.4z" clip-path="url(#a)" fill="#fff" stroke="#fff"/>
<g clip-path="url(#a)">
<g transform="translate(1082 904.66) rotate(90) scale(.08 -.08)">
<use xlink:href="#l"/>
<use x="60.818359" xlink:href="#d"/>
<use x="122.341797" xlink:href="#j"/>
<use x="163.439453" xlink:href="#k"/>
<use x="260.851562" xlink:href="#f"/>
<use x="288.634766" xlink:href="#g"/>
<use x="352.013672" xlink:href="#h"/>
<use x="413.292969" xlink:href="#i"/>
</g>
</g>
<path d="m1125.1 904.66v35.285q0 2.4 2.4 2.4h7.7425q2.4 0 2.4-2.4v-35.285q0-2.4-2.4-2.4h-7.7425q-2.4 0-2.4 2.4z" clip-path="url(#a)" fill="#fff" stroke="#fff"/>
<g clip-path="url(#a)">
<g transform="translate(1129.2 904.66) rotate(90) scale(.08 -.08)">
<use xlink:href="#l"/>
<use x="60.818359" xlink:href="#d"/>
<use x="122.341797" xlink:href="#j"/>
<use x="163.439453" xlink:href="#k"/>
<use x="260.851562" xlink:href="#f"/>
<use x="288.634766" xlink:href="#g"/>
<use x="352.013672" xlink:href="#h"/>
<use x="413.292969" xlink:href="#i"/>
</g>
</g>
<path d="m1172.4 904.66v35.285q0 2.4 2.4 2.4h7.7425q2.4 0 2.4-2.4v-35.285q0-2.4-2.4-2.4h-7.7425q-2.4 0-2.4 2.4z" clip-path="url(#a)" fill="#fff" stroke="#fff"/>
<g clip-path="url(#a)">
<g transform="translate(1176.4 904.66) rotate(90) scale(.08 -.08)">
<use xlink:href="#l"/>
<use x="60.818359" xlink:href="#d"/>
<use x="122.341797" xlink:href="#j"/>
<use x="163.439453" xlink:href="#k"/>
<use x="260.851562" xlink:href="#f"/>
<use x="288.634766" xlink:href="#g"/>
<use x="352.013672" xlink:href="#h"/>
<use x="413.292969" xlink:href="#i"/>
</g>
</g>
<path d="m888.98 904.66v35.285q0 2.4 2.4 2.4h7.7425q2.4 0 2.4-2.4v-35.285q0-2.4-2.4-2.4h-7.7425q-2.4 0-2.4 2.4z" clip-path="url(#a)" fill="#fff" stroke="#fff"/>
<g clip-path="url(#a)">
<g transform="translate(893.04 904.66) rotate(90) scale(.08 -.08)">
<use xlink:href="#l"/>
<use x="60.818359" xlink:href="#d"/>
<use x="122.341797" xlink:href="#j"/>
<use x="163.439453" xlink:href="#k"/>
<use x="260.851562" xlink:href="#f"/>
<use x="288.634766" xlink:href="#g"/>
<use x="352.013672" xlink:href="#h"/>
<use x="413.292969" xlink:href="#i"/>
</g>
</g>
<path d="m936.21 904.66v35.285q0 2.4 2.4 2.4h7.7425q2.4 0 2.4-2.4v-35.285q0-2.4-2.4-2.4h-7.7425q-2.4 0-2.4 2.4z" clip-path="url(#a)" fill="#fff" stroke="#fff"/>
<g clip-path="url(#a)">
<g transform="translate(940.27 904.66) rotate(90) scale(.08 -.08)">
<use xlink:href="#l"/>
<use x="60.818359" xlink:href="#d"/>
<use x="122.341797" xlink:href="#j"/>
<use x="163.439453" xlink:href="#k"/>
<use x="260.851562" xlink:href="#f"/>
<use x="288.634766" xlink:href="#g"/>
<use x="352.013672" xlink:href="#h"/>
<use x="413.292969" xlink:href="#i"/>
</g>
</g>
<path d="m983.44 904.66v35.285q0 2.4 2.4 2.4h7.7425q2.4 0 2.4-2.4v-35.285q0-2.4-2.4-2.4h-7.7425q-2.4 0-2.4 2.4z" clip-path="url(#a)" fill="#fff" stroke="#fff"/>
<g clip-path="url(#a)">
<g transform="translate(987.51 904.66) rotate(90) scale(.08 -.08)">
<use xlink:href="#l"/>
<use x="60.818359" xlink:href="#d"/>
<use x="122.341797" xlink:href="#j"/>
<use x="163.439453" xlink:href="#k"/>
<use x="260.851562" xlink:href="#f"/>
<use x="288.634766" xlink:href="#g"/>
<use x="352.013672" xlink:href="#h"/>
<use x="413.292969" xlink:href="#i"/>
</g>
</g>
<path d="m249.9 642.16 2.7177-4.8806q1.1676-2.0968-0.92925-3.2644l-6.7645-3.7667q-2.0968-1.1676-3.2644 0.92925l-2.7177 4.8806q-1.1676 2.0968 0.92925 3.2644l6.7645 3.7667q2.0968 1.1676 3.2644-0.92925z" clip-path="url(#a)" fill="#fff" stroke="#fff"/>
<g clip-path="url(#a)">
<g transform="translate(246.35 640.19) rotate(-60.89) scale(.08 -.08)">
<use xlink:href="#x"/>
</g>
</g>
<path d="m452.25 544.86 3.7496 3.3902q1.7802 1.6096 3.3898-0.17066l5.1926-5.7431q1.6096-1.7802-0.17066-3.3898l-3.7496-3.3902q-1.7802-1.6096-3.3898 0.17066l-5.1926 5.7431q-1.6096 1.7802 0.17066 3.3898z" clip-path="url(#a)" fill="#fff" stroke="#fff"/>
<g clip-path="url(#a)">
<g transform="translate(454.98 541.84) rotate(42.118) scale(.08 -.08)">
<use xlink:href="#v"/>
</g>
</g>
<path d="m180.46 904.66v35.285q0 2.4 2.4 2.4h7.7425q2.4 0 2.4-2.4v-35.285q0-2.4-2.4-2.4h-7.7425q-2.4 0-2.4 2.4z" clip-path="url(#a)" fill="#fff" stroke="#fff"/>
<g clip-path="url(#a)">
<g transform="translate(184.53 904.66) rotate(90) scale(.08 -.08)">
<use xlink:href="#l"/>
<use x="60.818359" xlink:href="#d"/>
<use x="122.341797" xlink:href="#j"/>
<use x="163.439453" xlink:href="#k"/>
<use x="260.851562" xlink:href="#f"/>
<use x="288.634766" xlink:href="#g"/>
<use x="352.013672" xlink:href="#h"/>
<use x="413.292969" xlink:href="#i"/>
</g>
</g>
<path d="m251.72 735.82 0.56892-4.5659q0.29675-2.3816-2.0848-2.6783l-7.6831-0.95732q-2.3816-0.29675-2.6783 2.0848l-0.56892 4.5659q-0.29675 2.3816 2.0848 2.6783l7.6831 0.95732q2.3816 0.29675 2.6783-2.0848z" clip-path="url(#a)" fill="#fff" stroke="#fff"/>
<g clip-path="url(#a)">
<g transform="translate(247.68 735.32) rotate(-82.897) scale(.08 -.08)">
<use xlink:href="#af"/>
</g>
</g>
<path d="m262.83 730.77 0.69071 5.5434q0.29675 2.3816 2.6783 2.0848l7.6831-0.95732q2.3816-0.29675 2.0848-2.6783l-0.69071-5.5434q-0.29675-2.3816-2.6783-2.0848l-7.6831 0.95732q-2.3816 0.29675-2.0848 2.6783z" clip-path="url(#a)" fill="#fff" stroke="#fff"/>
<g clip-path="url(#a)">
<g transform="translate(266.86 730.26) rotate(82.897) scale(.08 -.08)">
<use xlink:href="#x"/>
</g>
</g>
<path d="m357.47 736.98 1.3441-5.3938q0.58034-2.3288-1.7484-2.9091l-7.5127-1.8722q-2.3288-0.58034-2.9091 1.7484l-1.3441 5.3938q-0.58034 2.3288 1.7484 2.9091l7.5127 1.8722q2.3288 0.58034 2.9091-1.7484z" clip-path="url(#a)" fill="#fff" stroke="#fff"/>
<g clip-path="url(#a)">
<g transform="translate(353.52 735.99) rotate(-76.007) scale(.08 -.08)">
<use xlink:href="#aa"/>
</g>
</g>
<path d="m369.4 730.23v5.055q0 2.4 2.4 2.4h7.7425q2.4 0 2.4-2.4v-5.055q0-2.4-2.4-2.4h-7.7425q-2.4 0-2.4 2.4z" clip-path="url(#a)" fill="#fff" stroke="#fff"/>
<g clip-path="url(#a)">
<g transform="translate(373.46 730.23) rotate(90) scale(.08 -.08)">
<use xlink:href="#v"/>
</g>
</g>
<path d="m392.53 731.57 1.3508 5.4205q0.58034 2.3288 2.9091 1.7484l7.5127-1.8722q2.3288-0.58034 1.7484-2.9091l-1.3508-5.4205q-0.58034-2.3288-2.9091-1.7484l-7.5127 1.8722q-2.3288 0.58034-1.7484 2.9091z" clip-path="url(#a)" fill="#fff" stroke="#fff"/>
<g clip-path="url(#a)">
<g transform="translate(396.47 730.59) rotate(76.007) scale(.08 -.08)">
<use xlink:href="#x"/>
</g>
</g>
<path d="m322.17 904.66v35.285q0 2.4 2.4 2.4h7.7425q2.4 0 2.4-2.4v-35.285q0-2.4-2.4-2.4h-7.7425q-2.4 0-2.4 2.4z" clip-path="url(#a)" fill="#fff" stroke="#fff"/>
<g clip-path="url(#a)">
<g transform="translate(326.23 904.66) rotate(90) scale(.08 -.08)">
<use xlink:href="#l"/>
<use x="60.818359" xlink:href="#d"/>
<use x="122.341797" xlink:href="#j"/>
<use x="163.439453" xlink:href="#k"/>
<use x="260.851562" xlink:href="#f"/>
<use x="288.634766" xlink:href="#g"/>
<use x="352.013672" xlink:href="#h"/>
<use x="413.292969" xlink:href="#i"/>
</g>
</g>
<path d="m369.4 904.66v35.285q0 2.4 2.4 2.4h7.7425q2.4 0 2.4-2.4v-35.285q0-2.4-2.4-2.4h-7.7425q-2.4 0-2.4 2.4z" clip-path="url(#a)" fill="#fff" stroke="#fff"/>
<g clip-path="url(#a)">
<g transform="translate(373.46 904.66) rotate(90) scale(.08 -.08)">
<use xlink:href="#l"/>
<use x="60.818359" xlink:href="#d"/>
<use x="122.341797" xlink:href="#j"/>
<use x="163.439453" xlink:href="#k"/>
<use x="260.851562" xlink:href="#f"/>
<use x="288.634766" xlink:href="#g"/>
<use x="352.013672" xlink:href="#h"/>
<use x="413.292969" xlink:href="#i"/>
</g>
</g>
<path d="m416.63 904.66v35.285q0 2.4 2.4 2.4h7.7425q2.4 0 2.4-2.4v-35.285q0-2.4-2.4-2.4h-7.7425q-2.4 0-2.4 2.4z" clip-path="url(#a)" fill="#fff" stroke="#fff"/>
<g clip-path="url(#a)">
<g transform="translate(420.7 904.66) rotate(90) scale(.08 -.08)">
<use xlink:href="#l"/>
<use x="60.818359" xlink:href="#d"/>
<use x="122.341797" xlink:href="#j"/>
<use x="163.439453" xlink:href="#k"/>
<use x="260.851562" xlink:href="#f"/>
<use x="288.634766" xlink:href="#g"/>
<use x="352.013672" xlink:href="#h"/>
<use x="413.292969" xlink:href="#i"/>
</g>
</g>
<path d="m227.7 904.66v35.285q0 2.4 2.4 2.4h7.7425q2.4 0 2.4-2.4v-35.285q0-2.4-2.4-2.4h-7.7425q-2.4 0-2.4 2.4z" clip-path="url(#a)" fill="#fff" stroke="#fff"/>
<g clip-path="url(#a)">
<g transform="translate(231.76 904.66) rotate(90) scale(.08 -.08)">
<use xlink:href="#l"/>
<use x="60.818359" xlink:href="#d"/>
<use x="122.341797" xlink:href="#j"/>
<use x="163.439453" xlink:href="#k"/>
<use x="260.851562" xlink:href="#f"/>
<use x="288.634766" xlink:href="#g"/>
<use x="352.013672" xlink:href="#h"/>
<use x="413.292969" xlink:href="#i"/>
</g>
</g>
<path d="m274.93 904.66v35.285q0 2.4 2.4 2.4h7.7425q2.4 0 2.4-2.4v-35.285q0-2.4-2.4-2.4h-7.7425q-2.4 0-2.4 2.4z" clip-path="url(#a)" fill="#fff" stroke="#fff"/>
<g clip-path="url(#a)">
<g transform="translate(279 904.66) rotate(90) scale(.08 -.08)">
<use xlink:href="#l"/>
<use x="60.818359" xlink:href="#d"/>
<use x="122.341797" xlink:href="#j"/>
<use x="163.439453" xlink:href="#k"/>
<use x="260.851562" xlink:href="#f"/>
<use x="288.634766" xlink:href="#g"/>
<use x="352.013672" xlink:href="#h"/>
<use x="413.292969" xlink:href="#i"/>
</g>
</g>
<path d="m133.23 904.66v35.285q0 2.4 2.4 2.4h7.7425q2.4 0 2.4-2.4v-35.285q0-2.4-2.4-2.4h-7.7425q-2.4 0-2.4 2.4z" clip-path="url(#a)" fill="#fff" stroke="#fff"/>
<g clip-path="url(#a)">
<g transform="translate(137.29 904.66) rotate(90) scale(.08 -.08)">
<use xlink:href="#l"/>
<use x="60.818359" xlink:href="#d"/>
<use x="122.341797" xlink:href="#j"/>
<use x="163.439453" xlink:href="#k"/>
<use x="260.851562" xlink:href="#f"/>
<use x="288.634766" xlink:href="#g"/>
<use x="352.013672" xlink:href="#h"/>
<use x="413.292969" xlink:href="#i"/>
</g>
</g>
<path d="m546.47 736.73 1.2223-4.905q0.58034-2.3288-1.7484-2.9091l-7.5127-1.8722q-2.3288-0.58034-2.9091 1.7484l-1.2223 4.905q-0.58034 2.3288 1.7484 2.9091l7.5127 1.8722q2.3288 0.58034 2.9091-1.7484z" clip-path="url(#a)" fill="#fff" stroke="#fff"/>
<g clip-path="url(#a)">
<g transform="translate(542.52 735.75) rotate(-76.007) scale(.08 -.08)">
<use xlink:href="#v"/>
</g>
</g>
<path d="m558.34 730.23v5.055q0 2.4 2.4 2.4h7.7425q2.4 0 2.4-2.4v-5.055q0-2.4-2.4-2.4h-7.7425q-2.4 0-2.4 2.4z" clip-path="url(#a)" fill="#fff" stroke="#fff"/>
<g clip-path="url(#a)">
<g transform="translate(562.4 730.23) rotate(90) scale(.08 -.08)">
<use xlink:href="#v"/>
</g>
</g>
<path d="m581.47 731.57 1.3508 5.4205q0.58034 2.3288 2.9091 1.7484l7.5127-1.8722q2.3288-0.58034 1.7484-2.9091l-1.3508-5.4205q-0.58034-2.3288-2.9091-1.7484l-7.5127 1.8722q-2.3288 0.58034-1.7484 2.9091z" clip-path="url(#a)" fill="#fff" stroke="#fff"/>
<g clip-path="url(#a)">
<g transform="translate(585.41 730.59) rotate(76.007) scale(.08 -.08)">
<use xlink:href="#x"/>
</g>
</g>
<path d="m511.1 904.66v35.285q0 2.4 2.4 2.4h7.7425q2.4 0 2.4-2.4v-35.285q0-2.4-2.4-2.4h-7.7425q-2.4 0-2.4 2.4z" clip-path="url(#a)" fill="#fff" stroke="#fff"/>
<g clip-path="url(#a)">
<g transform="translate(515.17 904.66) rotate(90) scale(.08 -.08)">
<use xlink:href="#l"/>
<use x="60.818359" xlink:href="#d"/>
<use x="122.341797" xlink:href="#j"/>
<use x="163.439453" xlink:href="#k"/>
<use x="260.851562" xlink:href="#f"/>
<use x="288.634766" xlink:href="#g"/>
<use x="352.013672" xlink:href="#h"/>
<use x="413.292969" xlink:href="#i"/>
</g>
</g>
<path d="m85.995 904.66v35.285q0 2.4 2.4 2.4h7.7425q2.4 0 2.4-2.4v-35.285q0-2.4-2.4-2.4h-7.7425q-2.4 0-2.4 2.4z" clip-path="url(#a)" fill="#fff" stroke="#fff"/>
<g clip-path="url(#a)">
<g transform="translate(90.059 904.66) rotate(90) scale(.08 -.08)">
<use xlink:href="#l"/>
<use x="60.818359" xlink:href="#d"/>
<use x="122.341797" xlink:href="#j"/>
<use x="163.439453" xlink:href="#k"/>
<use x="260.851562" xlink:href="#f"/>
<use x="288.634766" xlink:href="#g"/>
<use x="352.013672" xlink:href="#h"/>
<use x="413.292969" xlink:href="#i"/>
</g>
</g>
<path d="m558.34 904.66v35.285q0 2.4 2.4 2.4h7.7425q2.4 0 2.4-2.4v-35.285q0-2.4-2.4-2.4h-7.7425q-2.4 0-2.4 2.4z" clip-path="url(#a)" fill="#fff" stroke="#fff"/>
<g clip-path="url(#a)">
<g transform="translate(562.4 904.66) rotate(90) scale(.08 -.08)">
<use xlink:href="#l"/>
<use x="60.818359" xlink:href="#d"/>
<use x="122.341797" xlink:href="#j"/>
<use x="163.439453" xlink:href="#k"/>
<use x="260.851562" xlink:href="#f"/>
<use x="288.634766" xlink:href="#g"/>
<use x="352.013672" xlink:href="#h"/>
<use x="413.292969" xlink:href="#i"/>
</g>
</g>
<path d="m605.57 904.66v35.285q0 2.4 2.4 2.4h7.7425q2.4 0 2.4-2.4v-35.285q0-2.4-2.4-2.4h-7.7425q-2.4 0-2.4 2.4z" clip-path="url(#a)" fill="#fff" stroke="#fff"/>
<g clip-path="url(#a)">
<g transform="translate(609.64 904.66) rotate(90) scale(.08 -.08)">
<use xlink:href="#l"/>
<use x="60.818359" xlink:href="#d"/>
<use x="122.341797" xlink:href="#j"/>
<use x="163.439453" xlink:href="#k"/>
<use x="260.851562" xlink:href="#f"/>
<use x="288.634766" xlink:href="#g"/>
<use x="352.013672" xlink:href="#h"/>
<use x="413.292969" xlink:href="#i"/>
</g>
</g>
<path d="m1584.5 355.86 7.4246-6.5977q1.794-1.5942 0.19979-3.3882l-5.143-5.7875q-1.5942-1.794-3.3882-0.19979l-7.4246 6.5977q-1.794 1.5942-0.19979 3.3882l5.143 5.7875q1.5942 1.794 3.3882 0.19979z" clip-path="url(#a)" fill="#fff" stroke="#fff"/>
<g clip-path="url(#a)">
<g transform="translate(1581.8 352.82) rotate(-41.625) scale(.08 -.08)">
<use xlink:href="#s"/>
<use x="55.744141" xlink:href="#p"/>
</g>
</g>
<path d="m1713.2 534.3 0.8839 9.9772q0.21179 2.3906 2.6024 2.1788l7.7123-0.68324q2.3906-0.21179 2.1788-2.6024l-0.8839-9.9772q-0.21179-2.3906-2.6024-2.1788l-7.7123 0.68324q-2.3906 0.21179-2.1788 2.6024z" clip-path="url(#a)" fill="#fff" stroke="#fff"/>
<g clip-path="url(#a)">
<g transform="translate(1717.2 533.94) rotate(84.937) scale(.08 -.08)">
<use xlink:href="#s"/>
<use x="55.712891" xlink:href="#aa"/>
</g>
</g>
<path d="m1771.2 441.92 3.9709 9.1042q0.9595 2.1999 3.1594 1.2404l7.0968-3.0954q2.1999-0.9595 1.2404-3.1594l-3.9709-9.1042q-0.9595-2.1999-3.1594-1.2404l-7.0968 3.0954q-2.1999 0.9595-1.2404 3.1594z" clip-path="url(#a)" fill="#fff" stroke="#fff"/>
<g clip-path="url(#a)">
<g transform="translate(1774.9 440.29) rotate(66.435) scale(.08 -.08)">
<use xlink:href="#s"/>
<use x="55.744141" xlink:href="#p"/>
</g>
</g>
<path d="m990.67 445.38 3.3582-9.4365q0.80465-2.2611-1.4564-3.0657l-7.2944-2.5958q-2.2611-0.80465-3.0657 1.4564l-3.3582 9.4365q-0.80465 2.2611 1.4564 3.0657l7.2944 2.5958q2.2611 0.80465 3.0657-1.4564z" clip-path="url(#a)" fill="#fff" stroke="#fff"/>
<g clip-path="url(#a)">
<g transform="translate(986.84 444.02) rotate(-70.411) scale(.08 -.08)">
<use xlink:href="#s"/>
<use x="55.712891" xlink:href="#aa"/>
</g>
</g>
<path d="m1093 156.56 3.366-9.3448q0.81333-2.258-1.4447-3.0713l-7.2844-2.6238q-2.258-0.81333-3.0713 1.4447l-3.366 9.3448q-0.81333 2.258 1.4447 3.0713l7.2844 2.6238q2.258 0.81333 3.0713-1.4447z" clip-path="url(#a)" fill="#fff" stroke="#fff"/>
<g clip-path="url(#a)">
<g transform="translate(1089.2 155.18) rotate(-70.191) scale(.08 -.08)">
<use xlink:href="#s"/>
<use x="55.744141" xlink:href="#p"/>
</g>
</g>
<path d="m1291.4 248.12 6.5652 7.4533q1.5864 1.801 3.3873 0.2146l5.81-5.1177q1.801-1.5864 0.2146-3.3873l-6.5652-7.4533q-1.5864-1.801-3.3873-0.2146l-5.81 5.1177q-1.801 1.5864-0.2146 3.3873z" clip-path="url(#a)" fill="#fff" stroke="#fff"/>
<g clip-path="url(#a)">
<g transform="translate(1294.4 245.44) rotate(48.625) scale(.08 -.08)">
<use xlink:href="#s"/>
<use x="55.744141" xlink:href="#p"/>
</g>
</g>
<path d="m595.59 157.37 9.3107-3.4591q2.2498-0.83582 1.4139-3.0856l-2.6964-7.2578q-0.83582-2.2498-3.0856-1.4139l-9.3107 3.4591q-2.2498 0.83582-1.4139 3.0856l2.6964 7.2578q0.83582 2.2498 3.0856 1.4139z" clip-path="url(#a)" fill="#fff" stroke="#fff"/>
<g clip-path="url(#a)">
<g transform="translate(594.18 153.56) rotate(-20.381) scale(.08 -.08)">
<use xlink:href="#s"/>
<use x="55.744141" xlink:href="#p"/>
</g>
</g>
<path d="m840.06 444.09 0.85839-9.9794q0.20568-2.3912-2.1855-2.5968l-7.714-0.66353q-2.3912-0.20568-2.5968 2.1855l-0.85839 9.9794q-0.20568 2.3912 2.1855 2.5968l7.714 0.66353q2.3912 0.20568 2.5968-2.1855z" clip-path="url(#a)" fill="#fff" stroke="#fff"/>
<g clip-path="url(#a)">
<g transform="translate(836.01 443.74) rotate(-85.084) scale(.08 -.08)">
<use xlink:href="#s"/>
<use x="55.712891" xlink:href="#aa"/>
</g>
</g>
<path d="m1163.2 250.24 8.314 5.4344q2.0089 1.3131 3.322-0.6958l4.2362-6.4808q1.3131-2.0089-0.6958-3.322l-8.314-5.4344q-2.0089-1.3131-3.322 0.6958l-4.2362 6.4808q-1.3131 2.0089 0.6958 3.322z" clip-path="url(#a)" fill="#fff" stroke="#fff"/>
<g clip-path="url(#a)">
<g transform="translate(1165.4 246.83) rotate(33.17) scale(.08 -.08)">
<use xlink:href="#s"/>
<use x="55.744141" xlink:href="#p"/>
</g>
</g>
<path d="m463.87 904.66v35.285q0 2.4 2.4 2.4h7.7425q2.4 0 2.4-2.4v-35.285q0-2.4-2.4-2.4h-7.7425q-2.4 0-2.4 2.4z" clip-path="url(#a)" fill="#fff" stroke="#fff"/>
<g clip-path="url(#a)">
<g transform="translate(467.93 904.66) rotate(90) scale(.08 -.08)">
<use xlink:href="#l"/>
<use x="60.818359" xlink:href="#d"/>
<use x="122.341797" xlink:href="#j"/>
<use x="163.439453" xlink:href="#k"/>
<use x="260.851562" xlink:href="#f"/>
<use x="288.634766" xlink:href="#g"/>
<use x="352.013672" xlink:href="#h"/>
<use x="413.292969" xlink:href="#i"/>
</g>
</g>
<path d="m652.81 904.66v35.285q0 2.4 2.4 2.4h7.7425q2.4 0 2.4-2.4v-35.285q0-2.4-2.4-2.4h-7.7425q-2.4 0-2.4 2.4z" clip-path="url(#a)" fill="#fff" stroke="#fff"/>
<g clip-path="url(#a)">
<g transform="translate(656.87 904.66) rotate(90) scale(.08 -.08)">
<use xlink:href="#l"/>
<use x="60.818359" xlink:href="#d"/>
<use x="122.341797" xlink:href="#j"/>
<use x="163.439453" xlink:href="#k"/>
<use x="260.851562" xlink:href="#f"/>
<use x="288.634766" xlink:href="#g"/>
<use x="352.013672" xlink:href="#h"/>
<use x="413.292969" xlink:href="#i"/>
</g>
</g>
<path d="m1266.9 904.66v35.285q0 2.4 2.4 2.4h7.7425q2.4 0 2.4-2.4v-35.285q0-2.4-2.4-2.4h-7.7425q-2.4 0-2.4 2.4z" clip-path="url(#a)" fill="#fff" stroke="#fff"/>
<g clip-path="url(#a)">
<g transform="translate(1270.9 904.66) rotate(90) scale(.08 -.08)">
<use xlink:href="#l"/>
<use x="60.818359" xlink:href="#d"/>
<use x="122.341797" xlink:href="#j"/>
<use x="163.439453" xlink:href="#k"/>
<use x="260.851562" xlink:href="#f"/>
<use x="288.634766" xlink:href="#g"/>
<use x="352.013672" xlink:href="#h"/>
<use x="413.292969" xlink:href="#i"/>
</g>
</g>
<path d="m1503 904.66v35.285q0 2.4 2.4 2.4h7.7425q2.4 0 2.4-2.4v-35.285q0-2.4-2.4-2.4h-7.7425q-2.4 0-2.4 2.4z" clip-path="url(#a)" fill="#fff" stroke="#fff"/>
<g clip-path="url(#a)">
<g transform="translate(1507.1 904.66) rotate(90) scale(.08 -.08)">
<use xlink:href="#l"/>
<use x="60.818359" xlink:href="#d"/>
<use x="122.341797" xlink:href="#j"/>
<use x="163.439453" xlink:href="#k"/>
<use x="260.851562" xlink:href="#f"/>
<use x="288.634766" xlink:href="#g"/>
<use x="352.013672" xlink:href="#h"/>
<use x="413.292969" xlink:href="#i"/>
</g>
</g>
<path d="m1928.1 904.66v35.285q0 2.4 2.4 2.4h7.7425q2.4 0 2.4-2.4v-35.285q0-2.4-2.4-2.4h-7.7425q-2.4 0-2.4 2.4z" clip-path="url(#a)" fill="#fff" stroke="#fff"/>
<g clip-path="url(#a)">
<g transform="translate(1932.2 904.66) rotate(90) scale(.08 -.08)">
<use xlink:href="#l"/>
<use x="60.818359" xlink:href="#d"/>
<use x="122.341797" xlink:href="#j"/>
<use x="163.439453" xlink:href="#k"/>
<use x="260.851562" xlink:href="#f"/>
<use x="288.634766" xlink:href="#g"/>
<use x="352.013672" xlink:href="#h"/>
<use x="413.292969" xlink:href="#i"/>
</g>
</g>
<defs>
<path id="b" d="m0 8.6603c2.2967 0 4.4997-0.9125 6.1237-2.5365 1.624-1.624 2.5365-3.827 2.5365-6.1237s-0.9125-4.4997-2.5365-6.1237c-1.624-1.624-3.827-2.5365-6.1237-2.5365s-4.4997 0.9125-6.1237 2.5365c-1.624 1.624-2.5365 3.827-2.5365 6.1237s0.9125 4.4997 2.5365 6.1237c1.624 1.624 3.827 2.5365 6.1237 2.5365z"/>
</defs>
<g clip-path="url(#a)">
<use x="92.266536" y="1017.073822" fill="#ffffff" stroke="#ffffff" xlink:href="#b"/>
</g>
<g clip-path="url(#a)">
<use x="139.500731" y="1017.073822" fill="#ffffff" stroke="#ffffff" xlink:href="#b"/>
</g>
<g clip-path="url(#a)">
<use x="186.734926" y="1017.073822" fill="#ffffff" stroke="#ffffff" xlink:href="#b"/>
</g>
<g clip-path="url(#a)">
<use x="233.96912" y="1017.073822" fill="#ffffff" stroke="#ffffff" xlink:href="#b"/>
</g>
<g clip-path="url(#a)">
<use x="281.203315" y="1017.073822" fill="#ffffff" stroke="#ffffff" xlink:href="#b"/>
</g>
<g clip-path="url(#a)">
<use x="328.43751" y="1017.073822" fill="#ffffff" stroke="#ffffff" xlink:href="#b"/>
</g>
<g clip-path="url(#a)">
<use x="375.671704" y="1017.073822" fill="#ffffff" stroke="#ffffff" xlink:href="#b"/>
</g>
<g clip-path="url(#a)">
<use x="422.905899" y="1017.073822" fill="#ffffff" stroke="#ffffff" xlink:href="#b"/>
</g>
<g clip-path="url(#a)">
<use x="470.140094" y="1017.073822" fill="#ffffff" stroke="#ffffff" xlink:href="#b"/>
</g>
<g clip-path="url(#a)">
<use x="517.374289" y="1017.073822" fill="#ffffff" stroke="#ffffff" xlink:href="#b"/>
</g>
<g clip-path="url(#a)">
<use x="564.608483" y="1017.073822" fill="#ffffff" stroke="#ffffff" xlink:href="#b"/>
</g>
<g clip-path="url(#a)">
<use x="611.842678" y="1017.073822" fill="#ffffff" stroke="#ffffff" xlink:href="#b"/>
</g>
<g clip-path="url(#a)">
<use x="659.076873" y="1017.073822" fill="#ffffff" stroke="#ffffff" xlink:href="#b"/>
</g>
<g clip-path="url(#a)">
<use x="706.311068" y="1017.073822" fill="#ffffff" stroke="#ffffff" xlink:href="#b"/>
</g>
<g clip-path="url(#a)">
<use x="753.545262" y="1017.073822" fill="#ffffff" stroke="#ffffff" xlink:href="#b"/>
</g>
<g clip-path="url(#a)">
<use x="800.779457" y="1017.073822" fill="#ffffff" stroke="#ffffff" xlink:href="#b"/>
</g>
<g clip-path="url(#a)">
<use x="848.013652" y="1017.073822" fill="#ffffff" stroke="#ffffff" xlink:href="#b"/>
</g>
<g clip-path="url(#a)">
<use x="895.247847" y="1017.073822" fill="#ffffff" stroke="#ffffff" xlink:href="#b"/>
</g>
<g clip-path="url(#a)">
<use x="942.482041" y="1017.073822" fill="#ffffff" stroke="#ffffff" xlink:href="#b"/>
</g>
<g clip-path="url(#a)">
<use x="989.716236" y="1017.073822" fill="#ffffff" stroke="#ffffff" xlink:href="#b"/>
</g>
<g clip-path="url(#a)">
<use x="1036.950431" y="1017.073822" fill="#ffffff" stroke="#ffffff" xlink:href="#b"/>
</g>
<g clip-path="url(#a)">
<use x="1084.184625" y="1017.073822" fill="#ffffff" stroke="#ffffff" xlink:href="#b"/>
</g>
<g clip-path="url(#a)">
<use x="1131.41882" y="1017.073822" fill="#ffffff" stroke="#ffffff" xlink:href="#b"/>
</g>
<g clip-path="url(#a)">
<use x="1178.653015" y="1017.073822" fill="#ffffff" stroke="#ffffff" xlink:href="#b"/>
</g>
<g clip-path="url(#a)">
<use x="1225.88721" y="1017.073822" fill="#ffffff" stroke="#ffffff" xlink:href="#b"/>
</g>
<g clip-path="url(#a)">
<use x="1273.121404" y="1017.073822" fill="#ffffff" stroke="#ffffff" xlink:href="#b"/>
</g>
<g clip-path="url(#a)">
<use x="1320.355599" y="1017.073822" fill="#ffffff" stroke="#ffffff" xlink:href="#b"/>
</g>
<g clip-path="url(#a)">
<use x="1367.589794" y="1017.073822" fill="#ffffff" stroke="#ffffff" xlink:href="#b"/>
</g>
<g clip-path="url(#a)">
<use x="1414.823989" y="1017.073822" fill="#ffffff" stroke="#ffffff" xlink:href="#b"/>
</g>
<g clip-path="url(#a)">
<use x="1462.058183" y="1017.073822" fill="#ffffff" stroke="#ffffff" xlink:href="#b"/>
</g>
<g clip-path="url(#a)">
<use x="1509.292378" y="1017.073822" fill="#ffffff" stroke="#ffffff" xlink:href="#b"/>
</g>
<g clip-path="url(#a)">
<use x="1556.526573" y="1017.073822" fill="#ffffff" stroke="#ffffff" xlink:href="#b"/>
</g>
<g clip-path="url(#a)">
<use x="1603.760767" y="1017.073822" fill="#ffffff" stroke="#ffffff" xlink:href="#b"/>
</g>
<g clip-path="url(#a)">
<use x="1650.994962" y="1017.073822" fill="#ffffff" stroke="#ffffff" xlink:href="#b"/>
</g>
<g clip-path="url(#a)">
<use x="1698.229157" y="1017.073822" fill="#ffffff" stroke="#ffffff" xlink:href="#b"/>
</g>
<g clip-path="url(#a)">
<use x="1745.463352" y="1017.073822" fill="#ffffff" stroke="#ffffff" xlink:href="#b"/>
</g>
<g clip-path="url(#a)">
<use x="1792.697546" y="1017.073822" fill="#ffffff" stroke="#ffffff" xlink:href="#b"/>
</g>
<g clip-path="url(#a)">
<use x="1839.931741" y="1017.073822" fill="#ffffff" stroke="#ffffff" xlink:href="#b"/>
</g>
<g clip-path="url(#a)">
<use x="1887.165936" y="1017.073822" fill="#ffffff" stroke="#ffffff" xlink:href="#b"/>
</g>
<g clip-path="url(#a)">
<use x="1934.400131" y="1017.073822" fill="#ffffff" stroke="#ffffff" xlink:href="#b"/>
</g>
<g clip-path="url(#a)">
<use x="987.927062" y="49.592845" fill="#ffffff" stroke="#ffffff" xlink:href="#b"/>
</g>
<g clip-path="url(#a)">
<use x="328.43751" y="249.934562" fill="#ffffff" stroke="#ffffff" xlink:href="#b"/>
</g>
<g clip-path="url(#a)">
<use x="729.928165" y="827.532504" fill="#ffffff" stroke="#ffffff" xlink:href="#b"/>
</g>
<g clip-path="url(#a)">
<use x="800.779457" y="827.532504" fill="#ffffff" stroke="#ffffff" xlink:href="#b"/>
</g>
<g clip-path="url(#a)">
<use x="848.013652" y="827.532504" fill="#ffffff" stroke="#ffffff" xlink:href="#b"/>
</g>
<g clip-path="url(#a)">
<use x="1052.695162" y="249.934562" fill="#ffffff" stroke="#ffffff" xlink:href="#b"/>
</g>
<g clip-path="url(#a)">
<use x="1473.866732" y="445.813141" fill="#ffffff" stroke="#ffffff" xlink:href="#b"/>
</g>
<g clip-path="url(#a)">
<use x="1745.463352" y="827.532504" fill="#ffffff" stroke="#ffffff" xlink:href="#b"/>
</g>
<g clip-path="url(#a)">
<use x="1863.548838" y="637.991187" fill="#ffffff" stroke="#ffffff" xlink:href="#b"/>
</g>
<g clip-path="url(#a)">
<use x="1792.697546" y="827.532504" fill="#ffffff" stroke="#ffffff" xlink:href="#b"/>
</g>
<g clip-path="url(#a)">
<use x="1839.931741" y="827.532504" fill="#ffffff" stroke="#ffffff" xlink:href="#b"/>
</g>
<g clip-path="url(#a)">
<use x="1887.165936" y="827.532504" fill="#ffffff" stroke="#ffffff" xlink:href="#b"/>
</g>
<g clip-path="url(#a)">
<use x="1320.355599" y="827.532504" fill="#ffffff" stroke="#ffffff" xlink:href="#b"/>
</g>
<g clip-path="url(#a)">
<use x="1580.14367" y="637.991187" fill="#ffffff" stroke="#ffffff" xlink:href="#b"/>
</g>
<g clip-path="url(#a)">
<use x="1414.823989" y="827.532504" fill="#ffffff" stroke="#ffffff" xlink:href="#b"/>
</g>
<g clip-path="url(#a)">
<use x="1462.058183" y="827.532504" fill="#ffffff" stroke="#ffffff" xlink:href="#b"/>
</g>
<g clip-path="url(#a)">
<use x="1556.526573" y="827.532504" fill="#ffffff" stroke="#ffffff" xlink:href="#b"/>
</g>
<g clip-path="url(#a)">
<use x="1367.589794" y="827.532504" fill="#ffffff" stroke="#ffffff" xlink:href="#b"/>
</g>
<g clip-path="url(#a)">
<use x="1603.760767" y="827.532504" fill="#ffffff" stroke="#ffffff" xlink:href="#b"/>
</g>
<g clip-path="url(#a)">
<use x="1650.994962" y="827.532504" fill="#ffffff" stroke="#ffffff" xlink:href="#b"/>
</g>
<g clip-path="url(#a)">
<use x="1698.229157" y="827.532504" fill="#ffffff" stroke="#ffffff" xlink:href="#b"/>
</g>
<g clip-path="url(#a)">
<use x="942.482041" y="637.991187" fill="#ffffff" stroke="#ffffff" xlink:href="#b"/>
</g>
<g clip-path="url(#a)">
<use x="1036.950431" y="827.532504" fill="#ffffff" stroke="#ffffff" xlink:href="#b"/>
</g>
<g clip-path="url(#a)">
<use x="1178.653015" y="445.813141" fill="#ffffff" stroke="#ffffff" xlink:href="#b"/>
</g>
<g clip-path="url(#a)">
<use x="1131.41882" y="637.991187" fill="#ffffff" stroke="#ffffff" xlink:href="#b"/>
</g>
<g clip-path="url(#a)">
<use x="1225.88721" y="827.532504" fill="#ffffff" stroke="#ffffff" xlink:href="#b"/>
</g>
<g clip-path="url(#a)">
<use x="1084.184625" y="827.532504" fill="#ffffff" stroke="#ffffff" xlink:href="#b"/>
</g>
<g clip-path="url(#a)">
<use x="1131.41882" y="827.532504" fill="#ffffff" stroke="#ffffff" xlink:href="#b"/>
</g>
<g clip-path="url(#a)">
<use x="1178.653015" y="827.532504" fill="#ffffff" stroke="#ffffff" xlink:href="#b"/>
</g>
<g clip-path="url(#a)">
<use x="895.247847" y="827.532504" fill="#ffffff" stroke="#ffffff" xlink:href="#b"/>
</g>
<g clip-path="url(#a)">
<use x="942.482041" y="827.532504" fill="#ffffff" stroke="#ffffff" xlink:href="#b"/>
</g>
<g clip-path="url(#a)">
<use x="989.716236" y="827.532504" fill="#ffffff" stroke="#ffffff" xlink:href="#b"/>
</g>
<g clip-path="url(#a)">
<use x="352.054607" y="445.813141" fill="#ffffff" stroke="#ffffff" xlink:href="#b"/>
</g>
<g clip-path="url(#a)">
<use x="186.734926" y="827.532504" fill="#ffffff" stroke="#ffffff" xlink:href="#b"/>
</g>
<g clip-path="url(#a)">
<use x="257.586218" y="637.991187" fill="#ffffff" stroke="#ffffff" xlink:href="#b"/>
</g>
<g clip-path="url(#a)">
<use x="375.671704" y="637.991187" fill="#ffffff" stroke="#ffffff" xlink:href="#b"/>
</g>
<g clip-path="url(#a)">
<use x="328.43751" y="827.532504" fill="#ffffff" stroke="#ffffff" xlink:href="#b"/>
</g>
<g clip-path="url(#a)">
<use x="375.671704" y="827.532504" fill="#ffffff" stroke="#ffffff" xlink:href="#b"/>
</g>
<g clip-path="url(#a)">
<use x="422.905899" y="827.532504" fill="#ffffff" stroke="#ffffff" xlink:href="#b"/>
</g>
<g clip-path="url(#a)">
<use x="233.96912" y="827.532504" fill="#ffffff" stroke="#ffffff" xlink:href="#b"/>
</g>
<g clip-path="url(#a)">
<use x="281.203315" y="827.532504" fill="#ffffff" stroke="#ffffff" xlink:href="#b"/>
</g>
<g clip-path="url(#a)">
<use x="139.500731" y="827.532504" fill="#ffffff" stroke="#ffffff" xlink:href="#b"/>
</g>
<g clip-path="url(#a)">
<use x="564.608483" y="637.991187" fill="#ffffff" stroke="#ffffff" xlink:href="#b"/>
</g>
<g clip-path="url(#a)">
<use x="517.374289" y="827.532504" fill="#ffffff" stroke="#ffffff" xlink:href="#b"/>
</g>
<g clip-path="url(#a)">
<use x="92.266536" y="827.532504" fill="#ffffff" stroke="#ffffff" xlink:href="#b"/>
</g>
<g clip-path="url(#a)">
<use x="564.608483" y="827.532504" fill="#ffffff" stroke="#ffffff" xlink:href="#b"/>
</g>
<g clip-path="url(#a)">
<use x="611.842678" y="827.532504" fill="#ffffff" stroke="#ffffff" xlink:href="#b"/>
</g>
<g clip-path="url(#a)">
<use x="1694.292974" y="249.934562" fill="#808080" stroke="#808080" xlink:href="#b"/>
</g>
<g clip-path="url(#a)">
<use x="1124.858515" y="49.592845" fill="#808080" stroke="#808080" xlink:href="#b"/>
</g>
<g clip-path="url(#a)">
<use x="867.694566" y="49.592845" fill="#808080" stroke="#808080" xlink:href="#b"/>
</g>
<g clip-path="url(#a)">
<use x="470.140094" y="827.532504" fill="#ffffff" stroke="#ffffff" xlink:href="#b"/>
</g>
<g clip-path="url(#a)">
<use x="659.076873" y="827.532504" fill="#ffffff" stroke="#ffffff" xlink:href="#b"/>
</g>
<g clip-path="url(#a)">
<use x="1273.121404" y="827.532504" fill="#ffffff" stroke="#ffffff" xlink:href="#b"/>
</g>
<g clip-path="url(#a)">
<use x="1509.292378" y="827.532504" fill="#ffffff" stroke="#ffffff" xlink:href="#b"/>
</g>
<g clip-path="url(#a)">
<use x="1934.400131" y="827.532504" fill="#ffffff" stroke="#ffffff" xlink:href="#b"/>
</g>
<g clip-path="url(#a)">
<defs>
<path id="as" d="m4.8906 30.906h90.234v-7.0312h-90.234z"/>
</defs>
<g transform="translate(87.267 1019.8) scale(.1 -.1)">
<use xlink:href="#as"/>
</g>
</g>
<g clip-path="url(#a)">
<defs>
<path id="ar" d="m28.609 0-27.828 72.906h10.297l23.109-61.375 23.141 61.375h10.25l-27.781-72.906z"/>
<path id="y" d="m30.609 48.391q-7.2188 0-11.422-5.6406t-4.2031-15.453 4.1719-15.453q4.1875-5.6406 11.453-5.6406 7.1875 0 11.375 5.6562 4.2031 5.6719 4.2031 15.438 0 9.7188-4.2031 15.406-4.1875 5.6875-11.375 5.6875zm0 7.6094q11.719 0 18.406-7.625 6.7031-7.6094 6.7031-21.078 0-13.422-6.7031-21.078-6.6875-7.6406-18.406-7.6406-11.766 0-18.438 7.6406-6.6562 7.6562-6.6562 21.078 0 13.469 6.6562 21.078 6.6719 7.625 18.438 7.625z"/>
<path id="r" d="m8.5 21.578v33.109h8.9844v-32.766q0-7.7656 3.0156-11.656 3.0312-3.875 9.0938-3.875 7.2656 0 11.484 4.6406 4.2344 4.6406 4.2344 12.656v31h8.9844v-54.688h-8.9844v8.4062q-3.2656-4.9844-7.5938-7.4062-4.3125-2.4219-10.031-2.4219-9.4219 0-14.312 5.8594-4.875 5.8594-4.875 17.141z"/>
<path id="m" d="m44.281 53.078v-8.5q-3.7969 1.9531-7.9062 2.9219-4.0938 0.98438-8.5 0.98438-6.6875 0-10.031-2.0469t-3.3438-6.1562q0-3.125 2.3906-4.9062t9.625-3.3906l3.0781-0.6875q9.5625-2.0469 13.594-5.7812t4.0312-10.422q0-7.625-6.0312-12.078-6.0312-4.4375-16.578-4.4375-4.3906 0-9.1562 0.85938t-10.031 2.5625v9.2812q4.9844-2.5938 9.8125-3.8906 4.8281-1.2812 9.5781-1.2812 6.3438 0 9.75 2.1719 3.4219 2.1719 3.4219 6.125 0 3.6562-2.4688 5.6094-2.4531 1.9531-10.812 3.7656l-3.125 0.73438q-8.3438 1.75-12.062 5.3906-3.7031 3.6406-3.7031 9.9844 0 7.7188 5.4688 11.906 5.4688 4.2031 15.531 4.2031 4.9688 0 9.3594-0.73438 4.4062-0.71875 8.1094-2.1875z"/>
</defs>
<g transform="translate(127.25 1019.8) scale(.1 -.1)">
<use xlink:href="#ar"/>
<use x="68.298828" xlink:href="#y"/>
<use x="129.480469" xlink:href="#r"/>
<use x="192.859375" xlink:href="#m"/>
</g>
</g>
<g clip-path="url(#a)">
<defs>
<path id="ai" d="m12.703 72.906h10.297v-7.4219l-8.0156-15.578h-6.2969l4.0156 15.578z"/>
</defs>
<g transform="translate(180.28 1019.8) scale(.1 -.1)">
<use xlink:href="#k"/>
<use x="97.412109" xlink:href="#ai"/>
</g>
</g>
<g clip-path="url(#a)">
<defs>
<path id="al" d="m2.9844 54.688h9.5156l17.094-45.891 17.094 45.891h9.5156l-20.516-54.688h-12.203z"/>
<path id="av" d="m5.5156 54.688h42.672v-8.2031l-33.781-39.312h33.781v-7.1719h-43.891v8.2031l33.797 39.312h-32.578z"/>
</defs>
<g transform="translate(222.24 1019.8) scale(.1 -.1)">
<use xlink:href="#h"/>
<use x="61.279297" xlink:href="#al"/>
<use x="120.458984" xlink:href="#d"/>
<use x="181.982422" xlink:href="#av"/>
</g>
</g>
<g clip-path="url(#a)">
<defs>
<path id="ae" d="m48.781 52.594v-8.4062q-3.8125 2.1094-7.6406 3.1562t-7.7344 1.0469q-8.75 0-13.594-5.5469-4.8281-5.5312-4.8281-15.547t4.8281-15.562q4.8438-5.5312 13.594-5.5312 3.9062 0 7.7344 1.0469t7.6406 3.1562v-8.3125q-3.7656-1.75-7.7969-2.625-4.0156-0.89062-8.5625-0.89062-12.359 0-19.641 7.7656-7.2656 7.7656-7.2656 20.953 0 13.375 7.3438 21.031 7.3594 7.6719 20.156 7.6719 4.1406 0 8.0938-0.85938 3.9531-0.84375 7.6719-2.5469z"/>
</defs>
<g transform="translate(255.73 1019.8) scale(.1 -.1)">
<use xlink:href="#ae"/>
<use x="54.980469" xlink:href="#y"/>
<use x="116.162109" xlink:href="#g"/>
<use x="179.541016" xlink:href="#al"/>
<use x="238.720703" xlink:href="#h"/>
<use x="300" xlink:href="#f"/>
<use x="327.783203" xlink:href="#g"/>
<use x="391.162109" xlink:href="#ae"/>
<use x="446.142578" xlink:href="#r"/>
</g>
</g>
<g clip-path="url(#a)">
<defs>
<path id="ah" d="m45.406 46.391v29.594h8.9844v-75.984h-8.9844v8.2031q-2.8281-4.875-7.1562-7.25-4.3125-2.375-10.375-2.375-9.9062 0-16.141 7.9062-6.2188 7.9219-6.2188 20.812t6.2188 20.797q6.2344 7.9062 16.141 7.9062 6.0625 0 10.375-2.375 4.3281-2.3594 7.1562-7.2344zm-30.609-19.094q0-9.9062 4.0781-15.547t11.203-5.6406 11.219 5.6406q4.1094 5.6406 4.1094 15.547t-4.1094 15.547q-4.0938 5.6406-11.219 5.6406t-11.203-5.6406-4.0781-15.547z"/>
</defs>
<g transform="translate(323.67 1019.8) scale(.1 -.1)">
<use xlink:href="#ah"/>
<use x="63.476562" xlink:href="#ai"/>
</g>
</g>
<g clip-path="url(#a)">
<g transform="translate(366.26 1019.8) scale(.1 -.1)">
<use xlink:href="#r"/>
<use x="63.378906" xlink:href="#g"/>
<use x="126.757812" xlink:href="#d"/>
</g>
</g>
<g clip-path="url(#a)">
<defs>
<path id="aw" d="m54.891 33.016v-33.016h-8.9844v32.719q0 7.7656-3.0312 11.609-3.0312 3.8594-9.0781 3.8594-7.2812 0-11.484-4.6406-4.2031-4.625-4.2031-12.641v-30.906h-9.0312v75.984h9.0312v-29.797q3.2344 4.9375 7.5938 7.375 4.375 2.4375 10.094 2.4375 9.4219 0 14.25-5.8281 4.8438-5.8281 4.8438-17.156z"/>
</defs>
<g transform="translate(408.25 1019.8) scale(.1 -.1)">
<use xlink:href="#ae"/>
<use x="54.980469" xlink:href="#aw"/>
<use x="118.359375" xlink:href="#y"/>
<use x="179.541016" xlink:href="#m"/>
<use x="231.640625" xlink:href="#d"/>
</g>
</g>
<g clip-path="url(#a)">
<defs>
<path id="ak" d="m11.719 12.406h10.297v-8.4062l-8-15.625h-6.2969l4 15.625z"/>
</defs>
<g transform="translate(468.55 1019.8) scale(.1 -.1)">
<use xlink:href="#ak"/>
</g>
</g>
<g clip-path="url(#a)">
<g transform="translate(493.98 1019.8) scale(.1 -.1)">
<use xlink:href="#k"/>
<use x="97.412109" xlink:href="#y"/>
<use x="158.59375" xlink:href="#g"/>
<use x="221.972656" xlink:href="#m"/>
<use x="274.072266" xlink:href="#f"/>
<use x="301.855469" xlink:href="#d"/>
<use x="363.378906" xlink:href="#r"/>
<use x="426.757812" xlink:href="#j"/>
</g>
</g>
<g clip-path="url(#a)">
<g transform="translate(560.14 1019.8) scale(.1 -.1)">
<use xlink:href="#i"/>
<use x="27.783203" xlink:href="#d"/>
</g>
</g>
<g clip-path="url(#a)">
<defs>
<path id="u" d="m18.312 70.219v-15.531h18.5v-6.9844h-18.5v-29.688q0-6.6875 1.8281-8.5938t7.4531-1.9062h9.2188v-7.5156h-9.2188q-10.406 0-14.359 3.875-3.9531 3.8906-3.9531 14.141v29.688h-6.5938v6.9844h6.5938v15.531z"/>
</defs>
<g transform="translate(584.94 1019.8) scale(.1 -.1)">
<use xlink:href="#g"/>
<use x="63.378906" xlink:href="#h"/>
<use x="124.658203" xlink:href="#u"/>
<use x="163.867188" xlink:href="#r"/>
<use x="227.246094" xlink:href="#j"/>
<use x="268.359375" xlink:href="#h"/>
<use x="329.638672" xlink:href="#i"/>
<use x="357.421875" xlink:href="#f"/>
<use x="385.205078" xlink:href="#m"/>
<use x="437.304688" xlink:href="#u"/>
<use x="476.513672" xlink:href="#d"/>
</g>
</g>
<g clip-path="url(#a)">
<g transform="translate(657.49 1019.8) scale(.1 -.1)">
<use xlink:href="#ak"/>
</g>
</g>
<g clip-path="url(#a)">
<g transform="translate(701.97 1019.8) scale(.1 -.1)">
<use xlink:href="#ae"/>
<use x="54.980469" xlink:href="#ai"/>
</g>
</g>
<g clip-path="url(#a)">
<g transform="translate(745.9 1019.8) scale(.1 -.1)">
<use xlink:href="#d"/>
<use x="61.523438" xlink:href="#m"/>
<use x="113.623047" xlink:href="#u"/>
</g>
</g>
<g clip-path="url(#a)">
<defs>
<path id="am" d="m14.797 27.297q0-9.9062 4.0781-15.547t11.203-5.6406 11.219 5.6406q4.1094 5.6406 4.1094 15.547t-4.1094 15.547q-4.0938 5.6406-11.219 5.6406t-11.203-5.6406-4.0781-15.547zm30.609-19.094q-2.8281-4.875-7.1562-7.25-4.3125-2.375-10.375-2.375-9.9062 0-16.141 7.9062-6.2188 7.9219-6.2188 20.812t6.2188 20.797q6.2344 7.9062 16.141 7.9062 6.0625 0 10.375-2.375 4.3281-2.3594 7.1562-7.2344v8.2969h8.9844v-75.484h-8.9844z"/>
</defs>
<g transform="translate(791.36 1019.8) scale(.1 -.1)">
<use xlink:href="#am"/>
<use x="63.476562" xlink:href="#r"/>
<use x="126.855469" xlink:href="#d"/>
</g>
</g>
<g clip-path="url(#a)">
<g transform="translate(844.02 1019.8) scale(.1 -.1)">
<use xlink:href="#m"/>
<use x="52.099609" xlink:href="#f"/>
</g>
</g>
<g clip-path="url(#a)">
<g transform="translate(889 1019.8) scale(.1 -.1)">
<use xlink:href="#ah"/>
<use x="63.476562" xlink:href="#d"/>
</g>
</g>
<g clip-path="url(#a)">
<g transform="translate(933.45 1019.8) scale(.1 -.1)">
<use xlink:href="#u"/>
<use x="39.208984" xlink:href="#d"/>
<use x="100.732422" xlink:href="#i"/>
<use x="128.515625" xlink:href="#m"/>
</g>
</g>
<g clip-path="url(#a)">
<defs>
<path id="aq" d="m54.891 54.688-19.781-26.609 20.797-28.078h-10.594l-15.922 21.484-15.906-21.484h-10.609l21.25 28.609-19.438 26.078h10.594l14.5-19.484 14.5 19.484z"/>
</defs>
<g transform="translate(968.03 1019.8) scale(.1 -.1)">
<use xlink:href="#h"/>
<use x="61.279297" xlink:href="#g"/>
<use x="124.658203" xlink:href="#f"/>
<use x="152.441406" xlink:href="#k"/>
<use x="249.853516" xlink:href="#h"/>
<use x="311.132812" xlink:href="#r"/>
<use x="374.511719" xlink:href="#aq"/>
</g>
</g>
<g clip-path="url(#a)">
<g transform="translate(1016.8 1019.8) scale(.1 -.1)">
<use xlink:href="#d"/>
<use x="61.507812" xlink:href="#aq"/>
<use x="120.6875" xlink:href="#f"/>
<use x="148.470703" xlink:href="#m"/>
<use x="200.570312" xlink:href="#u"/>
<use x="239.779297" xlink:href="#d"/>
<use x="301.302734" xlink:href="#g"/>
<use x="364.681641" xlink:href="#u"/>
</g>
</g>
<g clip-path="url(#a)">
<g transform="translate(1078 1019.8) scale(.1 -.1)">
<use xlink:href="#h"/>
<use x="61.279297" xlink:href="#r"/>
</g>
</g>
<g clip-path="url(#a)">
<defs>
<path id="an" d="m37.109 75.984v-7.4844h-8.5938q-4.8281 0-6.7188-1.9531-1.875-1.9531-1.875-7.0312v-4.8281h14.797v-6.9844h-14.797v-47.703h-9.0312v47.703h-8.5938v6.9844h8.5938v3.8125q0 9.125 4.25 13.297 4.25 4.1875 13.469 4.1875z"/>
</defs>
<g transform="translate(1120.3 1019.8) scale(.1 -.1)">
<use xlink:href="#an"/>
<use x="35.205078" xlink:href="#y"/>
<use x="96.386719" xlink:href="#g"/>
<use x="159.765625" xlink:href="#ah"/>
</g>
</g>
<g clip-path="url(#a)">
<g transform="translate(1169.8 1019.8) scale(.1 -.1)">
<use xlink:href="#ah"/>
<use x="63.476562" xlink:href="#d"/>
<use x="125" xlink:href="#m"/>
</g>
</g>
<g clip-path="url(#a)">
<g transform="translate(1213.3 1019.8) scale(.1 -.1)">
<use xlink:href="#k"/>
<use x="97.412109" xlink:href="#d"/>
<use x="158.935547" xlink:href="#j"/>
<use x="200.048828" xlink:href="#m"/>
</g>
</g>
<g clip-path="url(#a)">
<g transform="translate(1271.5 1019.8) scale(.1 -.1)">
<use xlink:href="#ak"/>
</g>
</g>
<g clip-path="url(#a)">
<g transform="translate(1317.6 1019.8) scale(.1 -.1)">
<use xlink:href="#f"/>
<use x="27.783203" xlink:href="#i"/>
</g>
</g>
<g clip-path="url(#a)">
<g transform="translate(1357.6 1019.8) scale(.1 -.1)">
<use xlink:href="#an"/>
<use x="35.205078" xlink:href="#h"/>
<use x="96.484375" xlink:href="#r"/>
<use x="159.863281" xlink:href="#u"/>
</g>
</g>
<g clip-path="url(#a)">
<defs>
<path id="au" d="m56.203 29.594v-4.3906h-41.312q0.59375-9.2812 5.5938-14.141t13.938-4.8594q5.1719 0 10.031 1.2656t9.6562 3.8125v-8.5q-4.8438-2.0469-9.9219-3.125t-10.297-1.0781q-13.094 0-20.734 7.6094-7.6406 7.625-7.6406 20.625 0 13.422 7.25 21.297 7.25 7.8906 19.562 7.8906 11.031 0 17.453-7.1094 6.4219-7.0938 6.4219-19.297zm-8.9844 2.6406q-0.09375 7.3594-4.125 11.75-4.0312 4.4062-10.672 4.4062-7.5156 0-12.031-4.25t-5.2031-11.969zm-8.6875 47.75h9.7188l-15.906-18.359h-7.4844z"/>
</defs>
<g transform="translate(1374.9 1019.8) scale(.1 -.1)">
<use xlink:href="#g"/>
<use x="63.378906" xlink:href="#au"/>
<use x="124.902344" xlink:href="#ae"/>
<use x="179.882812" xlink:href="#d"/>
<use x="241.40625" xlink:href="#m"/>
<use x="293.505859" xlink:href="#m"/>
<use x="345.605469" xlink:href="#h"/>
<use x="406.884766" xlink:href="#f"/>
<use x="434.667969" xlink:href="#j"/>
<use x="475.75" xlink:href="#d"/>
<use x="537.273438" xlink:href="#k"/>
<use x="634.685547" xlink:href="#d"/>
<use x="696.208984" xlink:href="#g"/>
<use x="759.587891" xlink:href="#u"/>
</g>
</g>
<g clip-path="url(#a)">
<g transform="translate(1455.7 1019.8) scale(.1 -.1)">
<use xlink:href="#am"/>
<use x="63.476562" xlink:href="#r"/>
</g>
</g>
<g clip-path="url(#a)">
<g transform="translate(1507.7 1019.8) scale(.1 -.1)">
<use xlink:href="#ai"/>
</g>
</g>
<g clip-path="url(#a)">
<g transform="translate(1551.1 1019.8) scale(.1 -.1)">
<use xlink:href="#f"/>
<use x="27.783203" xlink:href="#i"/>
<use x="55.566406" xlink:href="#m"/>
</g>
</g>
<g clip-path="url(#a)">
<g transform="translate(1588.5 1019.8) scale(.1 -.1)">
<use xlink:href="#m"/>
<use x="52.099609" xlink:href="#y"/>
<use x="113.28125" xlink:href="#f"/>
<use x="141.064453" xlink:href="#d"/>
<use x="202.587891" xlink:href="#g"/>
<use x="265.966797" xlink:href="#u"/>
</g>
</g>
<g clip-path="url(#a)">
<g transform="translate(1638.2 1019.8) scale(.1 -.1)">
<use xlink:href="#h"/>
<use x="61.279297" xlink:href="#r"/>
<use x="124.658203" xlink:href="#m"/>
<use x="176.757812" xlink:href="#m"/>
<use x="228.857422" xlink:href="#f"/>
</g>
</g>
<g clip-path="url(#a)">
<g transform="translate(1686.8 1019.8) scale(.1 -.1)">
<use xlink:href="#an"/>
<use x="35.205078" xlink:href="#y"/>
<use x="96.386719" xlink:href="#j"/>
<use x="137.5" xlink:href="#u"/>
<use x="176.708984" xlink:href="#m"/>
</g>
</g>
<g clip-path="url(#a)">
<g transform="translate(1736 1019.8) scale(.1 -.1)">
<use xlink:href="#am"/>
<use x="63.476562" xlink:href="#r"/>
<use x="126.855469" xlink:href="#d"/>
</g>
</g>
<g clip-path="url(#a)">
<g transform="translate(1780.9 1019.8) scale(.1 -.1)">
<use xlink:href="#al"/>
<use x="59.179688" xlink:href="#y"/>
<use x="120.361328" xlink:href="#r"/>
<use x="183.740234" xlink:href="#m"/>
</g>
</g>
<g clip-path="url(#a)">
<g transform="translate(1835.5 1019.8) scale(.1 -.1)">
<use xlink:href="#i"/>
<use x="27.783203" xlink:href="#d"/>
</g>
</g>
<g clip-path="url(#a)">
<g transform="translate(1875 1019.8) scale(.1 -.1)">
<use xlink:href="#ah"/>
<use x="63.476562" xlink:href="#f"/>
<use x="91.259766" xlink:href="#u"/>
<use x="130.46875" xlink:href="#d"/>
<use x="191.992188" xlink:href="#m"/>
</g>
</g>
<g clip-path="url(#a)">
<defs>
<path id="e" d="m10.688 12.406h10.312v-12.406h-10.312z"/>
</defs>
<g transform="translate(1932.8 1019.8) scale(.1 -.1)">
<use xlink:href="#e"/>
</g>
</g>
<g clip-path="url(#a)">
<defs>
<path id="c" d="m12.406 8.2969h16.109v55.625l-17.531-3.5156v8.9844l17.438 3.5156h9.8594v-64.609h16.109v-8.2969h-41.984z"/>
</defs>
<g transform="translate(979.98 52.352) scale(.1 -.1)">
<use xlink:href="#c"/>
<use x="63.623047" xlink:href="#e"/>
<use x="95.410156" xlink:href="#c"/>
</g>
</g>
<g clip-path="url(#a)">
<defs>
<path id="o" d="m40.578 39.312q7.0781-1.5156 11.047-6.3125 3.9844-4.7812 3.9844-11.812 0-10.781-7.4219-16.703-7.4219-5.9062-21.094-5.9062-4.5781 0-9.4375 0.90625t-10.031 2.7188v9.5156q4.0938-2.3906 8.9688-3.6094 4.8906-1.2188 10.219-1.2188 9.2656 0 14.125 3.6562t4.8594 10.641q0 6.4531-4.5156 10.078-4.5156 3.6406-12.562 3.6406h-8.5v8.1094h8.8906q7.2656 0 11.125 2.9062t3.8594 8.375q0 5.6094-3.9844 8.6094-3.9688 3.0156-11.391 3.0156-4.0625 0-8.7031-0.89062-4.6406-0.875-10.203-2.7188v8.7812q5.625 1.5625 10.531 2.3438t9.25 0.78125q11.234 0 17.766-5.1094 6.5469-5.0938 6.5469-13.781 0-6.0625-3.4688-10.234t-9.8594-5.7812z"/>
</defs>
<g transform="translate(320.49 252.69) scale(.1 -.1)">
<use xlink:href="#c"/>
<use x="63.623047" xlink:href="#e"/>
<use x="95.410156" xlink:href="#o"/>
</g>
</g>
<g clip-path="url(#a)">
<defs>
<path id="n" d="m10.797 72.906h38.719v-8.3125h-29.688v-17.859q2.1406 0.73438 4.2812 1.0938 2.1562 0.35938 4.3125 0.35938 12.203 0 19.328-6.6875 7.1406-6.6875 7.1406-18.109 0-11.766-7.3281-18.297-7.3281-6.5156-20.656-6.5156-4.5938 0-9.3594 0.78125-4.75 0.78125-9.8281 2.3438v9.9219q4.3906-2.3906 9.0781-3.5625t9.9062-1.1719q8.4531 0 13.375 4.4375 4.9375 4.4375 4.9375 12.062 0 7.6094-4.9375 12.047-4.9219 4.4531-13.375 4.4531-3.9531 0-7.8906-0.875-3.9219-0.875-8.0156-2.7344z"/>
</defs>
<g transform="translate(721.98 830.29) scale(.1 -.1)">
<use xlink:href="#c"/>
<use x="63.623047" xlink:href="#e"/>
<use x="95.410156" xlink:href="#n"/>
</g>
</g>
<g clip-path="url(#a)">
<defs>
<path id="w" d="m33.016 40.375q-6.6406 0-10.531-4.5469-3.875-4.5312-3.875-12.438 0-7.8594 3.875-12.438 3.8906-4.5625 10.531-4.5625t10.516 4.5625q3.875 4.5781 3.875 12.438 0 7.9062-3.875 12.438-3.875 4.5469-10.516 4.5469zm19.578 30.922v-8.9844q-3.7188 1.75-7.5 2.6719-3.7812 0.9375-7.5 0.9375-9.7656 0-14.922-6.5938-5.1406-6.5938-5.875-19.922 2.875 4.25 7.2188 6.5156 4.3594 2.2656 9.5781 2.2656 10.984 0 17.359-6.6719 6.375-6.6562 6.375-18.125 0-11.234-6.6406-18.031-6.6406-6.7812-17.672-6.7812-12.656 0-19.344 9.6875-6.6875 9.7031-6.6875 28.109 0 17.281 8.2031 27.562t22.016 10.281q3.7188 0 7.5-0.73438t7.8906-2.1875z"/>
</defs>
<g transform="translate(792.83 830.29) scale(.1 -.1)">
<use xlink:href="#c"/>
<use x="63.623047" xlink:href="#e"/>
<use x="95.410156" xlink:href="#w"/>
</g>
</g>
<g clip-path="url(#a)">
<defs>
<path id="ac" d="m8.2031 72.906h46.875v-4.2031l-26.469-68.703h-10.297l24.906 64.594h-35.016z"/>
</defs>
<g transform="translate(840.06 830.29) scale(.1 -.1)">
<use xlink:href="#c"/>
<use x="63.623047" xlink:href="#e"/>
<use x="95.410156" xlink:href="#ac"/>
</g>
</g>
<g clip-path="url(#a)">
<defs>
<path id="ab" d="m31.781 34.625q-7.0312 0-11.062-3.7656-4.0156-3.7656-4.0156-10.344 0-6.5938 4.0156-10.359 4.0312-3.7656 11.062-3.7656t11.078 3.7812q4.0625 3.7969 4.0625 10.344 0 6.5781-4.0312 10.344-4.0156 3.7656-11.109 3.7656zm-9.8594 4.1875q-6.3438 1.5625-9.8906 5.9062-3.5312 4.3594-3.5312 10.609 0 8.7344 6.2188 13.812 6.2344 5.0781 17.062 5.0781 10.891 0 17.094-5.0781t6.2031-13.812q0-6.25-3.5469-10.609-3.5312-4.3438-9.8281-5.9062 7.125-1.6562 11.094-6.5 3.9844-4.8281 3.9844-11.797 0-10.609-6.4688-16.281-6.4688-5.6562-18.531-5.6562-12.047 0-18.531 5.6562-6.4688 5.6719-6.4688 16.281 0 6.9688 4 11.797 4.0156 4.8438 11.141 6.5zm-3.6094 15.578q0-5.6562 3.5312-8.8281 3.5469-3.1719 9.9375-3.1719 6.3594 0 9.9375 3.1719 3.5938 3.1719 3.5938 8.8281 0 5.6719-3.5938 8.8438-3.5781 3.1719-9.9375 3.1719-6.3906 0-9.9375-3.1719-3.5312-3.1719-3.5312-8.8438z"/>
</defs>
<g transform="translate(1044.7 252.69) scale(.1 -.1)">
<use xlink:href="#c"/>
<use x="63.623047" xlink:href="#e"/>
<use x="95.410156" xlink:href="#ab"/>
</g>
</g>
<g clip-path="url(#a)">
<defs>
<path id="ad" d="m31.781 66.406q-7.6094 0-11.453-7.5-3.8281-7.4844-3.8281-22.531 0-14.984 3.8281-22.484 3.8438-7.5 11.453-7.5 7.6719 0 11.5 7.5 3.8438 7.5 3.8438 22.484 0 15.047-3.8438 22.531-3.8281 7.5-11.5 7.5zm0 7.8125q12.266 0 18.734-9.7031 6.4688-9.6875 6.4688-28.141 0-18.406-6.4688-28.109-6.4688-9.6875-18.734-9.6875-12.25 0-18.719 9.6875-6.4688 9.7031-6.4688 28.109 0 18.453 6.4688 28.141 6.4688 9.7031 18.719 9.7031z"/>
</defs>
<g transform="translate(1462.7 448.57) scale(.1 -.1)">
<use xlink:href="#c"/>
<use x="63.623047" xlink:href="#e"/>
<use x="95.410156" xlink:href="#c"/>
<use x="159.033203" xlink:href="#ad"/>
</g>
</g>
<g clip-path="url(#a)">
<g transform="translate(1734.3 830.29) scale(.1 -.1)">
<use xlink:href="#c"/>
<use x="63.623047" xlink:href="#e"/>
<use x="95.410156" xlink:href="#c"/>
<use x="159.033203" xlink:href="#c"/>
</g>
</g>
<g clip-path="url(#a)">
<defs>
<path id="t" d="m19.188 8.2969h34.422v-8.2969h-46.281v8.2969q5.6094 5.8125 15.297 15.594 9.7031 9.7969 12.188 12.641 4.7344 5.3125 6.6094 9 1.8906 3.6875 1.8906 7.25 0 5.8125-4.0781 9.4688-4.0781 3.6719-10.625 3.6719-4.6406 0-9.7969-1.6094-5.1406-1.6094-11-4.8906v9.9688q5.9531 2.3906 11.125 3.6094 5.1875 1.2188 9.4844 1.2188 11.328 0 18.062-5.6719 6.7344-5.6562 6.7344-15.125 0-4.5-1.6875-8.5312-1.6719-4.0156-6.125-9.4844-1.2188-1.4219-7.7656-8.1875-6.5312-6.7656-18.453-18.922z"/>
</defs>
<g transform="translate(1852.4 640.75) scale(.1 -.1)">
<use xlink:href="#c"/>
<use x="63.623047" xlink:href="#e"/>
<use x="95.410156" xlink:href="#c"/>
<use x="159.033203" xlink:href="#t"/>
</g>
</g>
<g clip-path="url(#a)">
<defs>
<path id="q" d="m37.797 64.312-24.906-38.922h24.906zm-2.5938 8.5938h12.406v-47.516h10.406v-8.2031h-10.406v-17.188h-9.8125v17.188h-32.906v9.5156z"/>
</defs>
<g transform="translate(1781.6 830.29) scale(.1 -.1)">
<use xlink:href="#c"/>
<use x="63.623047" xlink:href="#e"/>
<use x="95.410156" xlink:href="#c"/>
<use x="159.033203" xlink:href="#q"/>
</g>
</g>
<g clip-path="url(#a)">
<g transform="translate(1828.8 830.29) scale(.1 -.1)">
<use xlink:href="#c"/>
<use x="63.623047" xlink:href="#e"/>
<use x="95.410156" xlink:href="#c"/>
<use x="159.033203" xlink:href="#n"/>
</g>
</g>
<g clip-path="url(#a)">
<g transform="translate(1876 830.29) scale(.1 -.1)">
<use xlink:href="#c"/>
<use x="63.623047" xlink:href="#e"/>
<use x="95.410156" xlink:href="#c"/>
<use x="159.033203" xlink:href="#w"/>
</g>
</g>
<g clip-path="url(#a)">
<g transform="translate(1309.2 830.29) scale(.1 -.1)">
<use xlink:href="#c"/>
<use x="63.623047" xlink:href="#e"/>
<use x="95.410156" xlink:href="#c"/>
<use x="159.033203" xlink:href="#ac"/>
</g>
</g>
<g clip-path="url(#a)">
<g transform="translate(1569 640.75) scale(.1 -.1)">
<use xlink:href="#c"/>
<use x="63.623047" xlink:href="#e"/>
<use x="95.410156" xlink:href="#c"/>
<use x="159.033203" xlink:href="#ab"/>
</g>
</g>
<g clip-path="url(#a)">
<defs>
<path id="ag" d="m10.984 1.5156v8.9844q3.7188-1.7656 7.5156-2.6875 3.8125-0.92188 7.4844-0.92188 9.7656 0 14.906 6.5625 5.1562 6.5625 5.8906 19.953-2.8281-4.2031-7.1875-6.4531-4.3438-2.25-9.6094-2.25-10.938 0-17.312 6.6094-6.375 6.625-6.375 18.109 0 11.219 6.6406 18 6.6406 6.7969 17.672 6.7969 12.656 0 19.312-9.7031 6.6719-9.6875 6.6719-28.141 0-17.234-8.1875-27.516-8.1719-10.281-21.984-10.281-3.7188 0-7.5312 0.73438-3.7969 0.73438-7.9062 2.2031zm19.625 30.906q6.6406 0 10.516 4.5312 3.8906 4.5469 3.8906 12.469 0 7.8594-3.8906 12.422-3.875 4.5625-10.516 4.5625t-10.516-4.5625-3.875-12.422q0-7.9219 3.875-12.469 3.875-4.5312 10.516-4.5312z"/>
</defs>
<g transform="translate(1403.7 830.29) scale(.1 -.1)">
<use xlink:href="#c"/>
<use x="63.623047" xlink:href="#e"/>
<use x="95.410156" xlink:href="#c"/>
<use x="159.033203" xlink:href="#ag"/>
</g>
</g>
<g clip-path="url(#a)">
<g transform="translate(1450.9 830.29) scale(.1 -.1)">
<use xlink:href="#c"/>
<use x="63.623047" xlink:href="#e"/>
<use x="95.410156" xlink:href="#t"/>
<use x="159.033203" xlink:href="#ad"/>
</g>
</g>
<g clip-path="url(#a)">
<g transform="translate(1545.4 830.29) scale(.1 -.1)">
<use xlink:href="#c"/>
<use x="63.623047" xlink:href="#e"/>
<use x="95.410156" xlink:href="#t"/>
<use x="159.033203" xlink:href="#c"/>
</g>
</g>
<g clip-path="url(#a)">
<g transform="translate(1356.5 830.29) scale(.1 -.1)">
<use xlink:href="#c"/>
<use x="63.623047" xlink:href="#e"/>
<use x="95.410156" xlink:href="#t"/>
<use x="159.033203" xlink:href="#o"/>
</g>
</g>
<g clip-path="url(#a)">
<g transform="translate(1592.6 830.29) scale(.1 -.1)">
<use xlink:href="#c"/>
<use x="63.623047" xlink:href="#e"/>
<use x="95.410156" xlink:href="#t"/>
<use x="159.033203" xlink:href="#q"/>
</g>
</g>
<g clip-path="url(#a)">
<g transform="translate(1639.9 830.29) scale(.1 -.1)">
<use xlink:href="#c"/>
<use x="63.623047" xlink:href="#e"/>
<use x="95.410156" xlink:href="#t"/>
<use x="159.033203" xlink:href="#w"/>
</g>
</g>
<g clip-path="url(#a)">
<g transform="translate(1687.1 830.29) scale(.1 -.1)">
<use xlink:href="#c"/>
<use x="63.623047" xlink:href="#e"/>
<use x="95.410156" xlink:href="#t"/>
<use x="159.033203" xlink:href="#ac"/>
</g>
</g>
<g clip-path="url(#a)">
<g transform="translate(931.35 640.75) scale(.1 -.1)">
<use xlink:href="#c"/>
<use x="63.623047" xlink:href="#e"/>
<use x="95.410156" xlink:href="#t"/>
<use x="159.033203" xlink:href="#ab"/>
</g>
</g>
<g clip-path="url(#a)">
<g transform="translate(1025.8 830.29) scale(.1 -.1)">
<use xlink:href="#c"/>
<use x="63.623047" xlink:href="#e"/>
<use x="95.410156" xlink:href="#t"/>
<use x="159.033203" xlink:href="#ag"/>
</g>
</g>
<g clip-path="url(#a)">
<g transform="translate(1167.5 448.57) scale(.1 -.1)">
<use xlink:href="#c"/>
<use x="63.623047" xlink:href="#e"/>
<use x="95.410156" xlink:href="#o"/>
<use x="159.033203" xlink:href="#ad"/>
</g>
</g>
<g clip-path="url(#a)">
<g transform="translate(1120.3 640.75) scale(.1 -.1)">
<use xlink:href="#c"/>
<use x="63.623047" xlink:href="#e"/>
<use x="95.410156" xlink:href="#o"/>
<use x="159.033203" xlink:href="#c"/>
</g>
</g>
<g clip-path="url(#a)">
<g transform="translate(1214.8 830.29) scale(.1 -.1)">
<use xlink:href="#c"/>
<use x="63.623047" xlink:href="#e"/>
<use x="95.410156" xlink:href="#o"/>
<use x="159.033203" xlink:href="#o"/>
</g>
</g>
<g clip-path="url(#a)">
<g transform="translate(1073.1 830.29) scale(.1 -.1)">
<use xlink:href="#c"/>
<use x="63.623047" xlink:href="#e"/>
<use x="95.410156" xlink:href="#o"/>
<use x="159.033203" xlink:href="#q"/>
</g>
</g>
<g clip-path="url(#a)">
<g transform="translate(1120.3 830.29) scale(.1 -.1)">
<use xlink:href="#c"/>
<use x="63.623047" xlink:href="#e"/>
<use x="95.410156" xlink:href="#o"/>
<use x="159.033203" xlink:href="#n"/>
</g>
</g>
<g clip-path="url(#a)">
<g transform="translate(1167.5 830.29) scale(.1 -.1)">
<use xlink:href="#c"/>
<use x="63.623047" xlink:href="#e"/>
<use x="95.410156" xlink:href="#o"/>
<use x="159.033203" xlink:href="#w"/>
</g>
</g>
<g clip-path="url(#a)">
<g transform="translate(884.12 830.29) scale(.1 -.1)">
<use xlink:href="#c"/>
<use x="63.623047" xlink:href="#e"/>
<use x="95.410156" xlink:href="#o"/>
<use x="159.033203" xlink:href="#ac"/>
</g>
</g>
<g clip-path="url(#a)">
<g transform="translate(931.35 830.29) scale(.1 -.1)">
<use xlink:href="#c"/>
<use x="63.623047" xlink:href="#e"/>
<use x="95.410156" xlink:href="#o"/>
<use x="159.033203" xlink:href="#ab"/>
</g>
</g>
<g clip-path="url(#a)">
<g transform="translate(978.58 830.29) scale(.1 -.1)">
<use xlink:href="#c"/>
<use x="63.623047" xlink:href="#e"/>
<use x="95.410156" xlink:href="#o"/>
<use x="159.033203" xlink:href="#ag"/>
</g>
</g>
<g clip-path="url(#a)">
<g transform="translate(340.92 448.57) scale(.1 -.1)">
<use xlink:href="#c"/>
<use x="63.623047" xlink:href="#e"/>
<use x="95.410156" xlink:href="#q"/>
<use x="159.033203" xlink:href="#ad"/>
</g>
</g>
<g clip-path="url(#a)">
<g transform="translate(175.6 830.29) scale(.1 -.1)">
<use xlink:href="#c"/>
<use x="63.623047" xlink:href="#e"/>
<use x="95.410156" xlink:href="#q"/>
<use x="159.033203" xlink:href="#c"/>
</g>
</g>
<g clip-path="url(#a)">
<g transform="translate(246.45 640.75) scale(.1 -.1)">
<use xlink:href="#c"/>
<use x="63.623047" xlink:href="#e"/>
<use x="95.410156" xlink:href="#q"/>
<use x="159.033203" xlink:href="#t"/>
</g>
</g>
<g clip-path="url(#a)">
<g transform="translate(364.54 640.75) scale(.1 -.1)">
<use xlink:href="#c"/>
<use x="63.623047" xlink:href="#e"/>
<use x="95.410156" xlink:href="#q"/>
<use x="159.033203" xlink:href="#o"/>
</g>
</g>
<g clip-path="url(#a)">
<g transform="translate(317.3 830.29) scale(.1 -.1)">
<use xlink:href="#c"/>
<use x="63.623047" xlink:href="#e"/>
<use x="95.410156" xlink:href="#q"/>
<use x="159.033203" xlink:href="#n"/>
</g>
</g>
<g clip-path="url(#a)">
<g transform="translate(364.54 830.29) scale(.1 -.1)">
<use xlink:href="#c"/>
<use x="63.623047" xlink:href="#e"/>
<use x="95.410156" xlink:href="#q"/>
<use x="159.033203" xlink:href="#w"/>
</g>
</g>
<g clip-path="url(#a)">
<g transform="translate(411.77 830.29) scale(.1 -.1)">
<use xlink:href="#c"/>
<use x="63.623047" xlink:href="#e"/>
<use x="95.410156" xlink:href="#q"/>
<use x="159.033203" xlink:href="#ac"/>
</g>
</g>
<g clip-path="url(#a)">
<g transform="translate(222.84 830.29) scale(.1 -.1)">
<use xlink:href="#c"/>
<use x="63.623047" xlink:href="#e"/>
<use x="95.410156" xlink:href="#q"/>
<use x="159.033203" xlink:href="#ab"/>
</g>
</g>
<g clip-path="url(#a)">
<g transform="translate(270.07 830.29) scale(.1 -.1)">
<use xlink:href="#c"/>
<use x="63.623047" xlink:href="#e"/>
<use x="95.410156" xlink:href="#q"/>
<use x="159.033203" xlink:href="#ag"/>
</g>
</g>
<g clip-path="url(#a)">
<g transform="translate(128.37 830.29) scale(.1 -.1)">
<use xlink:href="#c"/>
<use x="63.623047" xlink:href="#e"/>
<use x="95.410156" xlink:href="#n"/>
<use x="159.033203" xlink:href="#ad"/>
</g>
</g>
<g clip-path="url(#a)">
<g transform="translate(553.48 640.75) scale(.1 -.1)">
<use xlink:href="#c"/>
<use x="63.623047" xlink:href="#e"/>
<use x="95.410156" xlink:href="#n"/>
<use x="159.033203" xlink:href="#c"/>
</g>
</g>
<g clip-path="url(#a)">
<g transform="translate(506.24 830.29) scale(.1 -.1)">
<use xlink:href="#c"/>
<use x="63.623047" xlink:href="#e"/>
<use x="95.410156" xlink:href="#n"/>
<use x="159.033203" xlink:href="#t"/>
</g>
</g>
<g clip-path="url(#a)">
<g transform="translate(81.134 830.29) scale(.1 -.1)">
<use xlink:href="#c"/>
<use x="63.623047" xlink:href="#e"/>
<use x="95.410156" xlink:href="#n"/>
<use x="159.033203" xlink:href="#o"/>
</g>
</g>
<g clip-path="url(#a)">
<g transform="translate(553.48 830.29) scale(.1 -.1)">
<use xlink:href="#c"/>
<use x="63.623047" xlink:href="#e"/>
<use x="95.410156" xlink:href="#n"/>
<use x="159.033203" xlink:href="#q"/>
</g>
</g>
<g clip-path="url(#a)">
<g transform="translate(600.71 830.29) scale(.1 -.1)">
<use xlink:href="#c"/>
<use x="63.623047" xlink:href="#e"/>
<use x="95.410156" xlink:href="#n"/>
<use x="159.033203" xlink:href="#n"/>
</g>
</g>
<g clip-path="url(#a)">
<g transform="translate(1683.2 252.69) scale(.1 -.1)">
<use xlink:href="#c"/>
<use x="63.623047" xlink:href="#e"/>
<use x="95.410156" xlink:href="#n"/>
<use x="159.033203" xlink:href="#w"/>
</g>
</g>
<g clip-path="url(#a)">
<g transform="translate(1113.7 52.352) scale(.1 -.1)">
<use xlink:href="#c"/>
<use x="63.623047" xlink:href="#e"/>
<use x="95.410156" xlink:href="#n"/>
<use x="159.033203" xlink:href="#ac"/>
</g>
</g>
<g clip-path="url(#a)">
<g transform="translate(856.56 52.352) scale(.1 -.1)">
<use xlink:href="#c"/>
<use x="63.623047" xlink:href="#e"/>
<use x="95.410156" xlink:href="#n"/>
<use x="159.033203" xlink:href="#ab"/>
</g>
</g>
<g clip-path="url(#a)">
<g transform="translate(459.01 830.29) scale(.1 -.1)">
<use xlink:href="#c"/>
<use x="63.623047" xlink:href="#e"/>
<use x="95.410156" xlink:href="#n"/>
<use x="159.033203" xlink:href="#ag"/>
</g>
</g>
<g clip-path="url(#a)">
<g transform="translate(647.94 830.29) scale(.1 -.1)">
<use xlink:href="#c"/>
<use x="63.623047" xlink:href="#e"/>
<use x="95.410156" xlink:href="#w"/>
<use x="159.033203" xlink:href="#ad"/>
</g>
</g>
<g clip-path="url(#a)">
<g transform="translate(1262 830.29) scale(.1 -.1)">
<use xlink:href="#c"/>
<use x="63.623047" xlink:href="#e"/>
<use x="95.410156" xlink:href="#w"/>
<use x="159.033203" xlink:href="#c"/>
</g>
</g>
<g clip-path="url(#a)">
<g transform="translate(1498.2 830.29) scale(.1 -.1)">
<use xlink:href="#c"/>
<use x="63.623047" xlink:href="#e"/>
<use x="95.410156" xlink:href="#w"/>
<use x="159.033203" xlink:href="#t"/>
</g>
</g>
<g clip-path="url(#a)">
<g transform="translate(1923.3 830.29) scale(.1 -.1)">
<use xlink:href="#c"/>
<use x="63.623047" xlink:href="#e"/>
<use x="95.410156" xlink:href="#w"/>
<use x="159.033203" xlink:href="#o"/>
</g>
</g>
<defs>
<clipPath id="a">
<rect width="2026.7" height="1066.7"/>
</clipPath>
</defs>
</svg>
