<?xml version="1.0" encoding="utf-8" standalone="no"?>
<!DOCTYPE svg PUBLIC "-//W3C//DTD SVG 1.1//EN"
  "http://www.w3.org/Graphics/SVG/1.1/DTD/svg11.dtd">
<!-- Created with matplotlib (https://matplotlib.org/) -->
<svg height="346.666667pt" version="1.1" viewBox="0 0 658.666667 346.666667" width="658.666667pt" xmlns="http://www.w3.org/2000/svg" xmlns:xlink="http://www.w3.org/1999/xlink">
 <defs>
  <style type="text/css">
*{stroke-linecap:butt;stroke-linejoin:round;}
  </style>
 </defs>
 <g id="figure_1">
  <g id="patch_1">
   <path d="M 0 346.666667 
L 658.666667 346.666667 
L 658.666667 0 
L 0 0 
z
" style="fill:#ffffff;"/>
  </g>
  <g id="axes_1">
   <g id="LineCollection_1">
    <path clip-path="url(#p43aa6e283d)" d="M 248.029234 16.860338 
L 30.411027 268.496394 
" style="fill:none;stroke:#000000;"/>
    <path clip-path="url(#p43aa6e283d)" d="M 248.029234 16.860338 
L 190.943377 81.663821 
" style="fill:none;stroke:#000000;"/>
    <path clip-path="url(#p43aa6e283d)" d="M 248.029234 16.860338 
L 428.974102 268.496394 
" style="fill:none;stroke:#000000;"/>
    <path clip-path="url(#p43aa6e283d)" d="M 248.029234 16.860338 
L 341.788429 145.023636 
" style="fill:none;stroke:#000000;"/>
    <path clip-path="url(#p43aa6e283d)" d="M 30.411027 268.496394 
L 30.411027 329.806329 
" style="fill:none;stroke:#000000;"/>
    <path clip-path="url(#p43aa6e283d)" d="M 190.943377 81.663821 
L 105.141604 207.18646 
" style="fill:none;stroke:#000000;"/>
    <path clip-path="url(#p43aa6e283d)" d="M 190.943377 81.663821 
L 179.87218 268.496394 
" style="fill:none;stroke:#000000;"/>
    <path clip-path="url(#p43aa6e283d)" d="M 190.943377 81.663821 
L 287.816346 145.023636 
" style="fill:none;stroke:#000000;"/>
    <path clip-path="url(#p43aa6e283d)" d="M 428.974102 268.496394 
L 428.974102 329.806329 
" style="fill:none;stroke:#000000;"/>
    <path clip-path="url(#p43aa6e283d)" d="M 341.788429 145.023636 
L 478.794486 268.496394 
" style="fill:none;stroke:#000000;"/>
    <path clip-path="url(#p43aa6e283d)" d="M 341.788429 145.023636 
L 578.435255 207.18646 
" style="fill:none;stroke:#000000;"/>
    <path clip-path="url(#p43aa6e283d)" d="M 341.788429 145.023636 
L 179.87218 268.496394 
" style="fill:none;stroke:#000000;stroke-dasharray:3.7,1.6;stroke-dashoffset:0;"/>
    <path clip-path="url(#p43aa6e283d)" d="M 341.788429 145.023636 
L 130.051796 268.496394 
" style="fill:none;stroke:#000000;stroke-dasharray:3.7,1.6;stroke-dashoffset:0;"/>
    <path clip-path="url(#p43aa6e283d)" d="M 478.794486 268.496394 
L 478.794486 329.806329 
" style="fill:none;stroke:#000000;"/>
    <path clip-path="url(#p43aa6e283d)" d="M 578.435255 207.18646 
L 528.614871 268.496394 
" style="fill:none;stroke:#000000;"/>
    <path clip-path="url(#p43aa6e283d)" d="M 578.435255 207.18646 
L 578.435255 268.496394 
" style="fill:none;stroke:#000000;"/>
    <path clip-path="url(#p43aa6e283d)" d="M 578.435255 207.18646 
L 628.255639 268.496394 
" style="fill:none;stroke:#000000;"/>
    <path clip-path="url(#p43aa6e283d)" d="M 528.614871 268.496394 
L 528.614871 329.806329 
" style="fill:none;stroke:#000000;"/>
    <path clip-path="url(#p43aa6e283d)" d="M 578.435255 268.496394 
L 578.435255 329.806329 
" style="fill:none;stroke:#000000;"/>
    <path clip-path="url(#p43aa6e283d)" d="M 105.141604 207.18646 
L 80.231412 268.496394 
" style="fill:none;stroke:#000000;"/>
    <path clip-path="url(#p43aa6e283d)" d="M 105.141604 207.18646 
L 130.051796 268.496394 
" style="fill:none;stroke:#000000;"/>
    <path clip-path="url(#p43aa6e283d)" d="M 179.87218 268.496394 
L 179.87218 329.806329 
" style="fill:none;stroke:#000000;"/>
    <path clip-path="url(#p43aa6e283d)" d="M 287.816346 145.023636 
L 229.692565 268.496394 
" style="fill:none;stroke:#000000;"/>
    <path clip-path="url(#p43aa6e283d)" d="M 287.816346 145.023636 
L 279.512949 268.496394 
" style="fill:none;stroke:#000000;"/>
    <path clip-path="url(#p43aa6e283d)" d="M 287.816346 145.023636 
L 354.243526 207.18646 
" style="fill:none;stroke:#000000;"/>
    <path clip-path="url(#p43aa6e283d)" d="M 229.692565 268.496394 
L 229.692565 329.806329 
" style="fill:none;stroke:#000000;"/>
    <path clip-path="url(#p43aa6e283d)" d="M 279.512949 268.496394 
L 279.512949 329.806329 
" style="fill:none;stroke:#000000;"/>
    <path clip-path="url(#p43aa6e283d)" d="M 354.243526 207.18646 
L 329.333333 268.496394 
" style="fill:none;stroke:#000000;"/>
    <path clip-path="url(#p43aa6e283d)" d="M 354.243526 207.18646 
L 379.153718 268.496394 
" style="fill:none;stroke:#000000;"/>
    <path clip-path="url(#p43aa6e283d)" d="M 329.333333 268.496394 
L 329.333333 329.806329 
" style="fill:none;stroke:#000000;"/>
    <path clip-path="url(#p43aa6e283d)" d="M 379.153718 268.496394 
L 379.153718 329.806329 
" style="fill:none;stroke:#000000;"/>
    <path clip-path="url(#p43aa6e283d)" d="M 80.231412 268.496394 
L 80.231412 329.806329 
" style="fill:none;stroke:#000000;"/>
    <path clip-path="url(#p43aa6e283d)" d="M 130.051796 268.496394 
L 130.051796 329.806329 
" style="fill:none;stroke:#000000;"/>
    <path clip-path="url(#p43aa6e283d)" d="M 320.568636 16.860338 
L 190.943377 81.663821 
" style="fill:none;stroke:#000000;"/>
    <path clip-path="url(#p43aa6e283d)" d="M 320.568636 16.860338 
L 428.974102 268.496394 
" style="fill:none;stroke:#000000;"/>
    <path clip-path="url(#p43aa6e283d)" d="M 320.568636 16.860338 
L 341.788429 145.023636 
" style="fill:none;stroke:#000000;"/>
    <path clip-path="url(#p43aa6e283d)" d="M 110.677202 16.860338 
L 30.411027 268.496394 
" style="fill:none;stroke:#000000;"/>
    <path clip-path="url(#p43aa6e283d)" d="M 110.677202 16.860338 
L 190.943377 81.663821 
" style="fill:none;stroke:#000000;"/>
    <path clip-path="url(#p43aa6e283d)" d="M 628.255639 268.496394 
L 628.255639 329.806329 
" style="fill:none;stroke:#000000;"/>
   </g>
   <g id="text_1">
    <g id="patch_2">
     <path clip-path="url(#p43aa6e283d)" d="M 142.505703 148.466364 
L 145.421486 145.094789 
Q 146.991397 143.279471 145.176079 141.70956 
L 139.319787 136.644961 
Q 137.504469 135.07505 135.934558 136.890368 
L 133.018776 140.261943 
Q 131.448865 142.077261 133.264182 143.647172 
L 139.120474 148.711771 
Q 140.935792 150.281682 142.505703 148.466364 
z
" style="fill:#ffffff;stroke:#ffffff;stroke-linejoin:miter;"/>
    </g>
    <g clip-path="url(#p43aa6e283d)">
     <!-- L -->
     <defs>
      <path d="M 9.8125 72.90625 
L 19.671875 72.90625 
L 19.671875 8.296875 
L 55.171875 8.296875 
L 55.171875 0 
L 9.8125 0 
z
" id="DejaVuSans-76"/>
     </defs>
     <g transform="translate(139.431954 145.808145)rotate(-49.146314)scale(0.08 -0.08)">
      <use xlink:href="#DejaVuSans-76"/>
     </g>
    </g>
   </g>
   <g id="text_2">
    <g id="patch_3">
     <path clip-path="url(#p43aa6e283d)" d="M 222.203694 55.664672 
L 226.180505 51.150224 
Q 227.766932 49.349322 225.96603 47.762894 
L 220.156246 42.645013 
Q 218.355344 41.058585 216.768916 42.859487 
L 212.792106 47.373936 
Q 211.205678 49.174837 213.00658 50.761265 
L 218.816365 55.879146 
Q 220.617267 57.465574 222.203694 55.664672 
z
" style="fill:#ffffff;stroke:#ffffff;stroke-linejoin:miter;"/>
    </g>
    <g clip-path="url(#p43aa6e283d)">
     <!-- H -->
     <defs>
      <path d="M 9.8125 72.90625 
L 19.671875 72.90625 
L 19.671875 43.015625 
L 55.515625 43.015625 
L 55.515625 72.90625 
L 65.375 72.90625 
L 65.375 0 
L 55.515625 0 
L 55.515625 34.71875 
L 19.671875 34.71875 
L 19.671875 0 
L 9.8125 0 
z
" id="DejaVuSans-72"/>
     </defs>
     <g transform="translate(219.154355 52.978487)rotate(-48.622941)scale(0.08 -0.08)">
      <use xlink:href="#DejaVuSans-72"/>
     </g>
    </g>
   </g>
   <g id="text_3">
    <g id="patch_4">
     <path clip-path="url(#p43aa6e283d)" d="M 332.108933 144.530079 
L 334.711263 148.149082 
Q 336.112405 150.09762 338.060943 148.696477 
L 344.347008 144.176334 
Q 346.295546 142.775191 344.894403 140.826653 
L 342.292073 137.20765 
Q 340.890931 135.259112 338.942393 136.660255 
L 332.656328 141.180398 
Q 330.70779 142.581541 332.108933 144.530079 
z
" style="fill:#ffffff;stroke:#ffffff;stroke-linejoin:miter;"/>
    </g>
    <g clip-path="url(#p43aa6e283d)">
     <!-- L -->
     <g transform="translate(335.408254 142.157623)rotate(-305.718918)scale(0.08 -0.08)">
      <use xlink:href="#DejaVuSans-76"/>
     </g>
    </g>
   </g>
   <g id="text_4">
    <g id="patch_5">
     <path clip-path="url(#p43aa6e283d)" d="M 288.071293 82.216921 
L 291.623484 87.072557 
Q 293.040523 89.009565 294.977531 87.592526 
L 301.226401 83.021101 
Q 303.163409 81.604062 301.74637 79.667054 
L 298.194179 74.811418 
Q 296.777141 72.874409 294.840132 74.291448 
L 288.591263 78.862874 
Q 286.654254 80.279912 288.071293 82.216921 
z
" style="fill:#ffffff;stroke:#ffffff;stroke-linejoin:miter;"/>
    </g>
    <g clip-path="url(#p43aa6e283d)">
     <!-- H -->
     <g transform="translate(291.351092 79.817549)rotate(-306.187725)scale(0.08 -0.08)">
      <use xlink:href="#DejaVuSans-72"/>
     </g>
    </g>
   </g>
   <g id="text_5">
    <g id="patch_6">
     <path clip-path="url(#p43aa6e283d)" d="M 24.139777 281.508861 
L 24.139777 316.793861 
Q 24.139777 319.193861 26.539777 319.193861 
L 34.282277 319.193861 
Q 36.682277 319.193861 36.682277 316.793861 
L 36.682277 281.508861 
Q 36.682277 279.108861 34.282277 279.108861 
L 26.539777 279.108861 
Q 24.139777 279.108861 24.139777 281.508861 
z
" style="fill:#ffffff;stroke:#ffffff;stroke-linejoin:miter;"/>
    </g>
    <g clip-path="url(#p43aa6e283d)">
     <!-- Terminal -->
     <defs>
      <path d="M -0.296875 72.90625 
L 61.375 72.90625 
L 61.375 64.59375 
L 35.5 64.59375 
L 35.5 0 
L 25.59375 0 
L 25.59375 64.59375 
L -0.296875 64.59375 
z
" id="DejaVuSans-84"/>
      <path d="M 56.203125 29.59375 
L 56.203125 25.203125 
L 14.890625 25.203125 
Q 15.484375 15.921875 20.484375 11.0625 
Q 25.484375 6.203125 34.421875 6.203125 
Q 39.59375 6.203125 44.453125 7.46875 
Q 49.3125 8.734375 54.109375 11.28125 
L 54.109375 2.78125 
Q 49.265625 0.734375 44.1875 -0.34375 
Q 39.109375 -1.421875 33.890625 -1.421875 
Q 20.796875 -1.421875 13.15625 6.1875 
Q 5.515625 13.8125 5.515625 26.8125 
Q 5.515625 40.234375 12.765625 48.109375 
Q 20.015625 56 32.328125 56 
Q 43.359375 56 49.78125 48.890625 
Q 56.203125 41.796875 56.203125 29.59375 
z
M 47.21875 32.234375 
Q 47.125 39.59375 43.09375 43.984375 
Q 39.0625 48.390625 32.421875 48.390625 
Q 24.90625 48.390625 20.390625 44.140625 
Q 15.875 39.890625 15.1875 32.171875 
z
" id="DejaVuSans-101"/>
      <path d="M 41.109375 46.296875 
Q 39.59375 47.171875 37.8125 47.578125 
Q 36.03125 48 33.890625 48 
Q 26.265625 48 22.1875 43.046875 
Q 18.109375 38.09375 18.109375 28.8125 
L 18.109375 0 
L 9.078125 0 
L 9.078125 54.6875 
L 18.109375 54.6875 
L 18.109375 46.1875 
Q 20.953125 51.171875 25.484375 53.578125 
Q 30.03125 56 36.53125 56 
Q 37.453125 56 38.578125 55.875 
Q 39.703125 55.765625 41.0625 55.515625 
z
" id="DejaVuSans-114"/>
      <path d="M 52 44.1875 
Q 55.375 50.25 60.0625 53.125 
Q 64.75 56 71.09375 56 
Q 79.640625 56 84.28125 50.015625 
Q 88.921875 44.046875 88.921875 33.015625 
L 88.921875 0 
L 79.890625 0 
L 79.890625 32.71875 
Q 79.890625 40.578125 77.09375 44.375 
Q 74.3125 48.1875 68.609375 48.1875 
Q 61.625 48.1875 57.5625 43.546875 
Q 53.515625 38.921875 53.515625 30.90625 
L 53.515625 0 
L 44.484375 0 
L 44.484375 32.71875 
Q 44.484375 40.625 41.703125 44.40625 
Q 38.921875 48.1875 33.109375 48.1875 
Q 26.21875 48.1875 22.15625 43.53125 
Q 18.109375 38.875 18.109375 30.90625 
L 18.109375 0 
L 9.078125 0 
L 9.078125 54.6875 
L 18.109375 54.6875 
L 18.109375 46.1875 
Q 21.1875 51.21875 25.484375 53.609375 
Q 29.78125 56 35.6875 56 
Q 41.65625 56 45.828125 52.96875 
Q 50 49.953125 52 44.1875 
z
" id="DejaVuSans-109"/>
      <path d="M 9.421875 54.6875 
L 18.40625 54.6875 
L 18.40625 0 
L 9.421875 0 
z
M 9.421875 75.984375 
L 18.40625 75.984375 
L 18.40625 64.59375 
L 9.421875 64.59375 
z
" id="DejaVuSans-105"/>
      <path d="M 54.890625 33.015625 
L 54.890625 0 
L 45.90625 0 
L 45.90625 32.71875 
Q 45.90625 40.484375 42.875 44.328125 
Q 39.84375 48.1875 33.796875 48.1875 
Q 26.515625 48.1875 22.3125 43.546875 
Q 18.109375 38.921875 18.109375 30.90625 
L 18.109375 0 
L 9.078125 0 
L 9.078125 54.6875 
L 18.109375 54.6875 
L 18.109375 46.1875 
Q 21.34375 51.125 25.703125 53.5625 
Q 30.078125 56 35.796875 56 
Q 45.21875 56 50.046875 50.171875 
Q 54.890625 44.34375 54.890625 33.015625 
z
" id="DejaVuSans-110"/>
      <path d="M 34.28125 27.484375 
Q 23.390625 27.484375 19.1875 25 
Q 14.984375 22.515625 14.984375 16.5 
Q 14.984375 11.71875 18.140625 8.90625 
Q 21.296875 6.109375 26.703125 6.109375 
Q 34.1875 6.109375 38.703125 11.40625 
Q 43.21875 16.703125 43.21875 25.484375 
L 43.21875 27.484375 
z
M 52.203125 31.203125 
L 52.203125 0 
L 43.21875 0 
L 43.21875 8.296875 
Q 40.140625 3.328125 35.546875 0.953125 
Q 30.953125 -1.421875 24.3125 -1.421875 
Q 15.921875 -1.421875 10.953125 3.296875 
Q 6 8.015625 6 15.921875 
Q 6 25.140625 12.171875 29.828125 
Q 18.359375 34.515625 30.609375 34.515625 
L 43.21875 34.515625 
L 43.21875 35.40625 
Q 43.21875 41.609375 39.140625 45 
Q 35.0625 48.390625 27.6875 48.390625 
Q 23 48.390625 18.546875 47.265625 
Q 14.109375 46.140625 10.015625 43.890625 
L 10.015625 52.203125 
Q 14.9375 54.109375 19.578125 55.046875 
Q 24.21875 56 28.609375 56 
Q 40.484375 56 46.34375 49.84375 
Q 52.203125 43.703125 52.203125 31.203125 
z
" id="DejaVuSans-97"/>
      <path d="M 9.421875 75.984375 
L 18.40625 75.984375 
L 18.40625 0 
L 9.421875 0 
z
" id="DejaVuSans-108"/>
     </defs>
     <g transform="translate(28.203527 281.508861)rotate(-270)scale(0.08 -0.08)">
      <use xlink:href="#DejaVuSans-84"/>
      <use x="60.818359" xlink:href="#DejaVuSans-101"/>
      <use x="122.341797" xlink:href="#DejaVuSans-114"/>
      <use x="163.439453" xlink:href="#DejaVuSans-109"/>
      <use x="260.851562" xlink:href="#DejaVuSans-105"/>
      <use x="288.634766" xlink:href="#DejaVuSans-110"/>
      <use x="352.013672" xlink:href="#DejaVuSans-97"/>
      <use x="413.292969" xlink:href="#DejaVuSans-108"/>
     </g>
    </g>
   </g>
   <g id="text_6">
    <g id="patch_7">
     <path clip-path="url(#p43aa6e283d)" d="M 151.675667 150.223042 
L 154.763886 145.705171 
Q 156.118244 143.723829 154.136903 142.369471 
L 147.745013 138.000255 
Q 145.763671 136.645897 144.409313 138.627239 
L 141.321094 143.14511 
Q 139.966736 145.126451 141.948078 146.480809 
L 148.339968 150.850025 
Q 150.321309 152.204383 151.675667 150.223042 
z
" style="fill:#ffffff;stroke:#ffffff;stroke-linejoin:miter;"/>
    </g>
    <g clip-path="url(#p43aa6e283d)">
     <!-- A -->
     <defs>
      <path d="M 34.1875 63.1875 
L 20.796875 26.90625 
L 47.609375 26.90625 
z
M 28.609375 72.90625 
L 39.796875 72.90625 
L 67.578125 0 
L 57.328125 0 
L 50.6875 18.703125 
L 17.828125 18.703125 
L 11.1875 0 
L 0.78125 0 
z
" id="DejaVuSans-65"/>
     </defs>
     <g transform="translate(148.320802 147.929803)rotate(-55.6452)scale(0.08 -0.08)">
      <use xlink:href="#DejaVuSans-65"/>
     </g>
    </g>
   </g>
   <g id="text_7">
    <g id="patch_8">
     <path clip-path="url(#p43aa6e283d)" d="M 191.525376 177.858726 
L 191.810718 173.043423 
Q 191.952686 170.647625 189.556889 170.505657 
L 181.827947 170.04766 
Q 179.43215 169.905692 179.290181 172.301489 
L 179.004839 177.116792 
Q 178.862871 179.51259 181.258668 179.654558 
L 188.98761 180.112555 
Q 191.383407 180.254523 191.525376 177.858726 
z
" style="fill:#ffffff;stroke:#ffffff;stroke-linejoin:miter;"/>
    </g>
    <g clip-path="url(#p43aa6e283d)">
     <!-- P -->
     <defs>
      <path d="M 19.671875 64.796875 
L 19.671875 37.40625 
L 32.078125 37.40625 
Q 38.96875 37.40625 42.71875 40.96875 
Q 46.484375 44.53125 46.484375 51.125 
Q 46.484375 57.671875 42.71875 61.234375 
Q 38.96875 64.796875 32.078125 64.796875 
z
M 9.8125 72.90625 
L 32.078125 72.90625 
Q 44.34375 72.90625 50.609375 67.359375 
Q 56.890625 61.8125 56.890625 51.125 
Q 56.890625 40.328125 50.609375 34.8125 
Q 44.34375 29.296875 32.078125 29.296875 
L 19.671875 29.296875 
L 19.671875 0 
L 9.8125 0 
z
" id="DejaVuSans-80"/>
     </defs>
     <g transform="translate(187.468742 177.618341)rotate(-86.608772)scale(0.08 -0.08)">
      <use xlink:href="#DejaVuSans-80"/>
     </g>
    </g>
   </g>
   <g id="text_8">
    <g id="patch_9">
     <path clip-path="url(#p43aa6e283d)" d="M 233.657229 117.094344 
L 238.237116 120.089822 
Q 240.245656 121.403508 241.559342 119.394969 
L 245.797347 112.915338 
Q 247.111033 110.906799 245.102494 109.593113 
L 240.522607 106.597635 
Q 238.514068 105.283949 237.200382 107.292488 
L 232.962376 113.772119 
Q 231.64869 115.780658 233.657229 117.094344 
z
" style="fill:#ffffff;stroke:#ffffff;stroke-linejoin:miter;"/>
    </g>
    <g clip-path="url(#p43aa6e283d)">
     <!-- A -->
     <g transform="translate(235.8816 113.693427)rotate(-326.813287)scale(0.08 -0.08)">
      <use xlink:href="#DejaVuSans-65"/>
     </g>
    </g>
   </g>
   <g id="text_9">
    <g id="patch_10">
     <path clip-path="url(#p43aa6e283d)" d="M 422.702852 281.508861 
L 422.702852 316.793861 
Q 422.702852 319.193861 425.102852 319.193861 
L 432.845352 319.193861 
Q 435.245352 319.193861 435.245352 316.793861 
L 435.245352 281.508861 
Q 435.245352 279.108861 432.845352 279.108861 
L 425.102852 279.108861 
Q 422.702852 279.108861 422.702852 281.508861 
z
" style="fill:#ffffff;stroke:#ffffff;stroke-linejoin:miter;"/>
    </g>
    <g clip-path="url(#p43aa6e283d)">
     <!-- Terminal -->
     <g transform="translate(426.766602 281.508861)rotate(-270)scale(0.08 -0.08)">
      <use xlink:href="#DejaVuSans-84"/>
      <use x="60.818359" xlink:href="#DejaVuSans-101"/>
      <use x="122.341797" xlink:href="#DejaVuSans-114"/>
      <use x="163.439453" xlink:href="#DejaVuSans-109"/>
      <use x="260.851562" xlink:href="#DejaVuSans-105"/>
      <use x="288.634766" xlink:href="#DejaVuSans-110"/>
      <use x="352.013672" xlink:href="#DejaVuSans-97"/>
      <use x="413.292969" xlink:href="#DejaVuSans-108"/>
     </g>
    </g>
   </g>
   <g id="text_10">
    <g id="patch_11">
     <path clip-path="url(#p43aa6e283d)" d="M 403.805115 209.356614 
L 408.381027 213.480523 
Q 410.16385 215.087241 411.770568 213.304418 
L 416.953906 207.552957 
Q 418.560624 205.770134 416.777801 204.163416 
L 412.201889 200.039507 
Q 410.419066 198.432789 408.812348 200.215612 
L 403.629009 205.967074 
Q 402.022292 207.749897 403.805115 209.356614 
z
" style="fill:#ffffff;stroke:#ffffff;stroke-linejoin:miter;"/>
    </g>
    <g clip-path="url(#p43aa6e283d)">
     <!-- D -->
     <defs>
      <path d="M 19.671875 64.796875 
L 19.671875 8.109375 
L 31.59375 8.109375 
Q 46.6875 8.109375 53.6875 14.9375 
Q 60.6875 21.78125 60.6875 36.53125 
Q 60.6875 51.171875 53.6875 57.984375 
Q 46.6875 64.796875 31.59375 64.796875 
z
M 9.8125 72.90625 
L 30.078125 72.90625 
Q 51.265625 72.90625 61.171875 64.09375 
Q 71.09375 55.28125 71.09375 36.53125 
Q 71.09375 17.671875 61.125 8.828125 
Q 51.171875 0 30.078125 0 
L 9.8125 0 
z
" id="DejaVuSans-68"/>
     </defs>
     <g transform="translate(406.525656 206.337886)rotate(-317.974155)scale(0.08 -0.08)">
      <use xlink:href="#DejaVuSans-68"/>
     </g>
    </g>
   </g>
   <g id="text_11">
    <g id="patch_12">
     <path clip-path="url(#p43aa6e283d)" d="M 455.872084 181.475345 
L 461.165019 182.865703 
Q 463.48627 183.475454 464.09602 181.154203 
L 466.0631 173.665752 
Q 466.672851 171.344501 464.3516 170.734751 
L 459.058665 169.344393 
Q 456.737415 168.734642 456.127664 171.055893 
L 454.160584 178.544344 
Q 453.550834 180.865595 455.872084 181.475345 
z
" style="fill:#ffffff;stroke:#ffffff;stroke-linejoin:miter;"/>
    </g>
    <g clip-path="url(#p43aa6e283d)">
     <!-- A -->
     <g transform="translate(456.904531 177.544936)rotate(-345.28195)scale(0.08 -0.08)">
      <use xlink:href="#DejaVuSans-65"/>
     </g>
    </g>
   </g>
   <g id="text_12">
    <g id="patch_13">
     <path clip-path="url(#p43aa6e283d)" d="M 262.715192 213.209272 
L 266.550923 210.284253 
Q 268.459345 208.828944 267.004036 206.920522 
L 262.309149 200.763872 
Q 260.85384 198.855449 258.945417 200.310758 
L 255.109687 203.235778 
Q 253.201265 204.691087 254.656574 206.599509 
L 259.351461 212.756159 
Q 260.80677 214.664581 262.715192 213.209272 
z
" style="fill:#ffffff;stroke:#ffffff;stroke-linejoin:miter;"/>
    </g>
    <g clip-path="url(#p43aa6e283d)">
     <!-- P -->
     <g transform="translate(260.251021 209.977876)rotate(-37.32812)scale(0.08 -0.08)">
      <use xlink:href="#DejaVuSans-80"/>
     </g>
    </g>
   </g>
   <g id="text_13">
    <g id="patch_14">
     <path clip-path="url(#p43aa6e283d)" d="M 236.715534 213.555819 
L 241.442956 210.799056 
Q 243.516197 209.590059 242.3072 207.516818 
L 238.406928 200.828457 
Q 237.197932 198.755216 235.124691 199.964212 
L 230.39727 202.720975 
Q 228.324029 203.929971 229.533025 206.003212 
L 233.433297 212.691574 
Q 234.642293 214.764815 236.715534 213.555819 
z
" style="fill:#ffffff;stroke:#ffffff;stroke-linejoin:miter;"/>
    </g>
    <g clip-path="url(#p43aa6e283d)">
     <!-- A -->
     <g transform="translate(234.668427 210.045347)rotate(-30.248304)scale(0.08 -0.08)">
      <use xlink:href="#DejaVuSans-65"/>
     </g>
    </g>
   </g>
   <g id="text_14">
    <g id="patch_15">
     <path clip-path="url(#p43aa6e283d)" d="M 472.523236 281.508861 
L 472.523236 316.793861 
Q 472.523236 319.193861 474.923236 319.193861 
L 482.665736 319.193861 
Q 485.065736 319.193861 485.065736 316.793861 
L 485.065736 281.508861 
Q 485.065736 279.108861 482.665736 279.108861 
L 474.923236 279.108861 
Q 472.523236 279.108861 472.523236 281.508861 
z
" style="fill:#ffffff;stroke:#ffffff;stroke-linejoin:miter;"/>
    </g>
    <g clip-path="url(#p43aa6e283d)">
     <!-- Terminal -->
     <g transform="translate(476.586986 281.508861)rotate(-270)scale(0.08 -0.08)">
      <use xlink:href="#DejaVuSans-84"/>
      <use x="60.818359" xlink:href="#DejaVuSans-101"/>
      <use x="122.341797" xlink:href="#DejaVuSans-114"/>
      <use x="163.439453" xlink:href="#DejaVuSans-109"/>
      <use x="260.851562" xlink:href="#DejaVuSans-105"/>
      <use x="288.634766" xlink:href="#DejaVuSans-110"/>
      <use x="352.013672" xlink:href="#DejaVuSans-97"/>
      <use x="413.292969" xlink:href="#DejaVuSans-108"/>
     </g>
    </g>
   </g>
   <g id="text_15">
    <g id="patch_16">
     <path clip-path="url(#p43aa6e283d)" d="M 556.798093 243.757854 
L 559.985972 239.834787 
Q 561.499505 237.972204 559.636922 236.458671 
L 553.62815 231.57595 
Q 551.765566 230.062416 550.252033 231.925 
L 547.064154 235.848066 
Q 545.550621 237.71065 547.413204 239.224183 
L 553.421976 244.106904 
Q 555.284559 245.620437 556.798093 243.757854 
z
" style="fill:#ffffff;stroke:#ffffff;stroke-linejoin:miter;"/>
    </g>
    <g clip-path="url(#p43aa6e283d)">
     <!-- E -->
     <defs>
      <path d="M 9.8125 72.90625 
L 55.90625 72.90625 
L 55.90625 64.59375 
L 19.671875 64.59375 
L 19.671875 43.015625 
L 54.390625 43.015625 
L 54.390625 34.71875 
L 19.671875 34.71875 
L 19.671875 8.296875 
L 56.78125 8.296875 
L 56.78125 0 
L 9.8125 0 
z
" id="DejaVuSans-69"/>
     </defs>
     <g transform="translate(553.644312 241.195095)rotate(-50.902729)scale(0.08 -0.08)">
      <use xlink:href="#DejaVuSans-69"/>
     </g>
    </g>
   </g>
   <g id="text_16">
    <g id="patch_17">
     <path clip-path="url(#p43aa6e283d)" d="M 572.164005 235.048302 
L 572.164005 240.634552 
Q 572.164005 243.034552 574.564005 243.034552 
L 582.306505 243.034552 
Q 584.706505 243.034552 584.706505 240.634552 
L 584.706505 235.048302 
Q 584.706505 232.648302 582.306505 232.648302 
L 574.564005 232.648302 
Q 572.164005 232.648302 572.164005 235.048302 
z
" style="fill:#ffffff;stroke:#ffffff;stroke-linejoin:miter;"/>
    </g>
    <g clip-path="url(#p43aa6e283d)">
     <!-- C -->
     <defs>
      <path d="M 64.40625 67.28125 
L 64.40625 56.890625 
Q 59.421875 61.53125 53.78125 63.8125 
Q 48.140625 66.109375 41.796875 66.109375 
Q 29.296875 66.109375 22.65625 58.46875 
Q 16.015625 50.828125 16.015625 36.375 
Q 16.015625 21.96875 22.65625 14.328125 
Q 29.296875 6.6875 41.796875 6.6875 
Q 48.140625 6.6875 53.78125 8.984375 
Q 59.421875 11.28125 64.40625 15.921875 
L 64.40625 5.609375 
Q 59.234375 2.09375 53.4375 0.328125 
Q 47.65625 -1.421875 41.21875 -1.421875 
Q 24.65625 -1.421875 15.125 8.703125 
Q 5.609375 18.84375 5.609375 36.375 
Q 5.609375 53.953125 15.125 64.078125 
Q 24.65625 74.21875 41.21875 74.21875 
Q 47.75 74.21875 53.53125 72.484375 
Q 59.328125 70.75 64.40625 67.28125 
z
" id="DejaVuSans-67"/>
     </defs>
     <g transform="translate(576.227755 235.048302)rotate(-270)scale(0.08 -0.08)">
      <use xlink:href="#DejaVuSans-67"/>
     </g>
    </g>
   </g>
   <g id="text_17">
    <g id="patch_18">
     <path clip-path="url(#p43aa6e283d)" d="M 596.632283 239.524357 
L 600.324673 244.068284 
Q 601.838206 245.930868 603.70079 244.417335 
L 609.709562 239.534613 
Q 611.572145 238.02108 610.058612 236.158497 
L 606.366221 231.614569 
Q 604.852688 229.751986 602.990105 231.265519 
L 596.981333 236.14824 
Q 595.118749 237.661773 596.632283 239.524357 
z
" style="fill:#ffffff;stroke:#ffffff;stroke-linejoin:miter;"/>
    </g>
    <g clip-path="url(#p43aa6e283d)">
     <!-- U -->
     <defs>
      <path d="M 8.6875 72.90625 
L 18.609375 72.90625 
L 18.609375 28.609375 
Q 18.609375 16.890625 22.84375 11.734375 
Q 27.09375 6.59375 36.625 6.59375 
Q 46.09375 6.59375 50.34375 11.734375 
Q 54.59375 16.890625 54.59375 28.609375 
L 54.59375 72.90625 
L 64.5 72.90625 
L 64.5 27.390625 
Q 64.5 13.140625 57.4375 5.859375 
Q 50.390625 -1.421875 36.625 -1.421875 
Q 22.796875 -1.421875 15.734375 5.859375 
Q 8.6875 13.140625 8.6875 27.390625 
z
" id="DejaVuSans-85"/>
     </defs>
     <g transform="translate(599.786063 236.961598)rotate(-309.097271)scale(0.08 -0.08)">
      <use xlink:href="#DejaVuSans-85"/>
     </g>
    </g>
   </g>
   <g id="text_18">
    <g id="patch_19">
     <path clip-path="url(#p43aa6e283d)" d="M 522.343621 281.508861 
L 522.343621 316.793861 
Q 522.343621 319.193861 524.743621 319.193861 
L 532.486121 319.193861 
Q 534.886121 319.193861 534.886121 316.793861 
L 534.886121 281.508861 
Q 534.886121 279.108861 532.486121 279.108861 
L 524.743621 279.108861 
Q 522.343621 279.108861 522.343621 281.508861 
z
" style="fill:#ffffff;stroke:#ffffff;stroke-linejoin:miter;"/>
    </g>
    <g clip-path="url(#p43aa6e283d)">
     <!-- Terminal -->
     <g transform="translate(526.407371 281.508861)rotate(-270)scale(0.08 -0.08)">
      <use xlink:href="#DejaVuSans-84"/>
      <use x="60.818359" xlink:href="#DejaVuSans-101"/>
      <use x="122.341797" xlink:href="#DejaVuSans-114"/>
      <use x="163.439453" xlink:href="#DejaVuSans-109"/>
      <use x="260.851562" xlink:href="#DejaVuSans-105"/>
      <use x="288.634766" xlink:href="#DejaVuSans-110"/>
      <use x="352.013672" xlink:href="#DejaVuSans-97"/>
      <use x="413.292969" xlink:href="#DejaVuSans-108"/>
     </g>
    </g>
   </g>
   <g id="text_19">
    <g id="patch_20">
     <path clip-path="url(#p43aa6e283d)" d="M 572.164005 281.508861 
L 572.164005 316.793861 
Q 572.164005 319.193861 574.564005 319.193861 
L 582.306505 319.193861 
Q 584.706505 319.193861 584.706505 316.793861 
L 584.706505 281.508861 
Q 584.706505 279.108861 582.306505 279.108861 
L 574.564005 279.108861 
Q 572.164005 279.108861 572.164005 281.508861 
z
" style="fill:#ffffff;stroke:#ffffff;stroke-linejoin:miter;"/>
    </g>
    <g clip-path="url(#p43aa6e283d)">
     <!-- Terminal -->
     <g transform="translate(576.227755 281.508861)rotate(-270)scale(0.08 -0.08)">
      <use xlink:href="#DejaVuSans-84"/>
      <use x="60.818359" xlink:href="#DejaVuSans-101"/>
      <use x="122.341797" xlink:href="#DejaVuSans-114"/>
      <use x="163.439453" xlink:href="#DejaVuSans-109"/>
      <use x="260.851562" xlink:href="#DejaVuSans-105"/>
      <use x="288.634766" xlink:href="#DejaVuSans-110"/>
      <use x="352.013672" xlink:href="#DejaVuSans-97"/>
      <use x="413.292969" xlink:href="#DejaVuSans-108"/>
     </g>
    </g>
   </g>
   <g id="text_20">
    <g id="patch_21">
     <path clip-path="url(#p43aa6e283d)" d="M 97.545119 242.543632 
L 99.447903 237.860424 
Q 100.351303 235.636943 98.127821 234.733543 
L 90.954777 231.81914 
Q 88.731296 230.91574 87.827897 233.139222 
L 85.925112 237.82243 
Q 85.021713 240.045911 87.245194 240.94931 
L 94.418238 243.863714 
Q 96.641719 244.767113 97.545119 242.543632 
z
" style="fill:#ffffff;stroke:#ffffff;stroke-linejoin:miter;"/>
    </g>
    <g clip-path="url(#p43aa6e283d)">
     <!-- E -->
     <g transform="translate(93.780255 241.01397)rotate(-67.88812)scale(0.08 -0.08)">
      <use xlink:href="#DejaVuSans-69"/>
     </g>
    </g>
   </g>
   <g id="text_21">
    <g id="patch_22">
     <path clip-path="url(#p43aa6e283d)" d="M 110.735319 237.614336 
L 112.838074 242.78972 
Q 113.741474 245.013202 115.964955 244.109802 
L 123.137999 241.195399 
Q 125.36148 240.291999 124.458081 238.068518 
L 122.355325 232.893133 
Q 121.451926 230.669652 119.228445 231.573051 
L 112.055401 234.487455 
Q 109.831919 235.390854 110.735319 237.614336 
z
" style="fill:#ffffff;stroke:#ffffff;stroke-linejoin:miter;"/>
    </g>
    <g clip-path="url(#p43aa6e283d)">
     <!-- C -->
     <g transform="translate(114.500182 236.084674)rotate(-292.11188)scale(0.08 -0.08)">
      <use xlink:href="#DejaVuSans-67"/>
     </g>
    </g>
   </g>
   <g id="text_22">
    <g id="patch_23">
     <path clip-path="url(#p43aa6e283d)" d="M 173.60093 281.508861 
L 173.60093 316.793861 
Q 173.60093 319.193861 176.00093 319.193861 
L 183.74343 319.193861 
Q 186.14343 319.193861 186.14343 316.793861 
L 186.14343 281.508861 
Q 186.14343 279.108861 183.74343 279.108861 
L 176.00093 279.108861 
Q 173.60093 279.108861 173.60093 281.508861 
z
" style="fill:#ffffff;stroke:#ffffff;stroke-linejoin:miter;"/>
    </g>
    <g clip-path="url(#p43aa6e283d)">
     <!-- Terminal -->
     <g transform="translate(177.66468 281.508861)rotate(-270)scale(0.08 -0.08)">
      <use xlink:href="#DejaVuSans-84"/>
      <use x="60.818359" xlink:href="#DejaVuSans-101"/>
      <use x="122.341797" xlink:href="#DejaVuSans-114"/>
      <use x="163.439453" xlink:href="#DejaVuSans-109"/>
      <use x="260.851562" xlink:href="#DejaVuSans-105"/>
      <use x="288.634766" xlink:href="#DejaVuSans-110"/>
      <use x="352.013672" xlink:href="#DejaVuSans-97"/>
      <use x="413.292969" xlink:href="#DejaVuSans-108"/>
     </g>
    </g>
   </g>
   <g id="text_23">
    <g id="patch_24">
     <path clip-path="url(#p43aa6e283d)" d="M 263.351975 211.717802 
L 265.504954 207.144214 
Q 266.527139 204.972778 264.355703 203.950592 
L 257.350558 200.652978 
Q 255.179122 199.630792 254.156936 201.802228 
L 252.003957 206.375816 
Q 250.981772 208.547253 253.153208 209.569439 
L 260.158353 212.867053 
Q 262.329789 213.889238 263.351975 211.717802 
z
" style="fill:#ffffff;stroke:#ffffff;stroke-linejoin:miter;"/>
    </g>
    <g clip-path="url(#p43aa6e283d)">
     <!-- E -->
     <g transform="translate(259.675235 209.987007)rotate(-64.791676)scale(0.08 -0.08)">
      <use xlink:href="#DejaVuSans-69"/>
     </g>
    </g>
   </g>
   <g id="text_24">
    <g id="patch_25">
     <path clip-path="url(#p43aa6e283d)" d="M 289.734354 209.96763 
L 290.109176 204.393968 
Q 290.27021 201.999377 287.875618 201.838344 
L 280.150566 201.318843 
Q 277.755975 201.157809 277.594941 203.552401 
L 277.220119 209.126062 
Q 277.059086 211.520653 279.453677 211.681687 
L 287.178729 212.201188 
Q 289.573321 212.362221 289.734354 209.96763 
z
" style="fill:#ffffff;stroke:#ffffff;stroke-linejoin:miter;"/>
    </g>
    <g clip-path="url(#p43aa6e283d)">
     <!-- C -->
     <g transform="translate(285.679762 209.694963)rotate(-86.152719)scale(0.08 -0.08)">
      <use xlink:href="#DejaVuSans-67"/>
     </g>
    </g>
   </g>
   <g id="text_25">
    <g id="patch_26">
     <path clip-path="url(#p43aa6e283d)" d="M 314.899439 178.957036 
L 318.590371 182.411026 
Q 320.342743 184.050902 321.982619 182.298531 
L 327.272928 176.645307 
Q 328.912805 174.892936 327.160433 173.25306 
L 323.469501 169.79907 
Q 321.717129 168.159194 320.077253 169.911565 
L 314.786944 175.564789 
Q 313.147067 177.31716 314.899439 178.957036 
z
" style="fill:#ffffff;stroke:#ffffff;stroke-linejoin:miter;"/>
    </g>
    <g clip-path="url(#p43aa6e283d)">
     <!-- E -->
     <g transform="translate(317.676125 175.98987)rotate(-316.899371)scale(0.08 -0.08)">
      <use xlink:href="#DejaVuSans-69"/>
     </g>
    </g>
   </g>
   <g id="text_26">
    <g id="patch_27">
     <path clip-path="url(#p43aa6e283d)" d="M 223.421315 281.508861 
L 223.421315 316.793861 
Q 223.421315 319.193861 225.821315 319.193861 
L 233.563815 319.193861 
Q 235.963815 319.193861 235.963815 316.793861 
L 235.963815 281.508861 
Q 235.963815 279.108861 233.563815 279.108861 
L 225.821315 279.108861 
Q 223.421315 279.108861 223.421315 281.508861 
z
" style="fill:#ffffff;stroke:#ffffff;stroke-linejoin:miter;"/>
    </g>
    <g clip-path="url(#p43aa6e283d)">
     <!-- Terminal -->
     <g transform="translate(227.485065 281.508861)rotate(-270)scale(0.08 -0.08)">
      <use xlink:href="#DejaVuSans-84"/>
      <use x="60.818359" xlink:href="#DejaVuSans-101"/>
      <use x="122.341797" xlink:href="#DejaVuSans-114"/>
      <use x="163.439453" xlink:href="#DejaVuSans-109"/>
      <use x="260.851562" xlink:href="#DejaVuSans-105"/>
      <use x="288.634766" xlink:href="#DejaVuSans-110"/>
      <use x="352.013672" xlink:href="#DejaVuSans-97"/>
      <use x="413.292969" xlink:href="#DejaVuSans-108"/>
     </g>
    </g>
   </g>
   <g id="text_27">
    <g id="patch_28">
     <path clip-path="url(#p43aa6e283d)" d="M 273.241699 281.508861 
L 273.241699 316.793861 
Q 273.241699 319.193861 275.641699 319.193861 
L 283.384199 319.193861 
Q 285.784199 319.193861 285.784199 316.793861 
L 285.784199 281.508861 
Q 285.784199 279.108861 283.384199 279.108861 
L 275.641699 279.108861 
Q 273.241699 279.108861 273.241699 281.508861 
z
" style="fill:#ffffff;stroke:#ffffff;stroke-linejoin:miter;"/>
    </g>
    <g clip-path="url(#p43aa6e283d)">
     <!-- Terminal -->
     <g transform="translate(277.305449 281.508861)rotate(-270)scale(0.08 -0.08)">
      <use xlink:href="#DejaVuSans-84"/>
      <use x="60.818359" xlink:href="#DejaVuSans-101"/>
      <use x="122.341797" xlink:href="#DejaVuSans-114"/>
      <use x="163.439453" xlink:href="#DejaVuSans-109"/>
      <use x="260.851562" xlink:href="#DejaVuSans-105"/>
      <use x="288.634766" xlink:href="#DejaVuSans-110"/>
      <use x="352.013672" xlink:href="#DejaVuSans-97"/>
      <use x="413.292969" xlink:href="#DejaVuSans-108"/>
     </g>
    </g>
   </g>
   <g id="text_28">
    <g id="patch_29">
     <path clip-path="url(#p43aa6e283d)" d="M 346.552231 242.776982 
L 348.644635 237.627074 
Q 349.548034 235.403593 347.324553 234.500194 
L 340.151509 231.58579 
Q 337.928028 230.682391 337.024628 232.905872 
L 334.932224 238.055779 
Q 334.028825 240.279261 336.252306 241.18266 
L 343.42535 244.097064 
Q 345.648831 245.000463 346.552231 242.776982 
z
" style="fill:#ffffff;stroke:#ffffff;stroke-linejoin:miter;"/>
    </g>
    <g clip-path="url(#p43aa6e283d)">
     <!-- R -->
     <defs>
      <path d="M 44.390625 34.1875 
Q 47.5625 33.109375 50.5625 29.59375 
Q 53.5625 26.078125 56.59375 19.921875 
L 66.609375 0 
L 56 0 
L 46.6875 18.703125 
Q 43.0625 26.03125 39.671875 28.421875 
Q 36.28125 30.8125 30.421875 30.8125 
L 19.671875 30.8125 
L 19.671875 0 
L 9.8125 0 
L 9.8125 72.90625 
L 32.078125 72.90625 
Q 44.578125 72.90625 50.734375 67.671875 
Q 56.890625 62.453125 56.890625 51.90625 
Q 56.890625 45.015625 53.6875 40.46875 
Q 50.484375 35.9375 44.390625 34.1875 
z
M 19.671875 64.796875 
L 19.671875 38.921875 
L 32.078125 38.921875 
Q 39.203125 38.921875 42.84375 42.21875 
Q 46.484375 45.515625 46.484375 51.90625 
Q 46.484375 58.296875 42.84375 61.546875 
Q 39.203125 64.796875 32.078125 64.796875 
z
" id="DejaVuSans-82"/>
     </defs>
     <g transform="translate(342.787367 241.24732)rotate(-67.88812)scale(0.08 -0.08)">
      <use xlink:href="#DejaVuSans-82"/>
     </g>
    </g>
   </g>
   <g id="text_29">
    <g id="patch_30">
     <path clip-path="url(#p43aa6e283d)" d="M 359.83724 237.614336 
L 361.939996 242.78972 
Q 362.843395 245.013202 365.066877 244.109802 
L 372.239921 241.195399 
Q 374.463402 240.291999 373.560003 238.068518 
L 371.457247 232.893133 
Q 370.553848 230.669652 368.330366 231.573051 
L 361.157322 234.487455 
Q 358.933841 235.390854 359.83724 237.614336 
z
" style="fill:#ffffff;stroke:#ffffff;stroke-linejoin:miter;"/>
    </g>
    <g clip-path="url(#p43aa6e283d)">
     <!-- C -->
     <g transform="translate(363.602104 236.084674)rotate(-292.11188)scale(0.08 -0.08)">
      <use xlink:href="#DejaVuSans-67"/>
     </g>
    </g>
   </g>
   <g id="text_30">
    <g id="patch_31">
     <path clip-path="url(#p43aa6e283d)" d="M 323.062083 281.508861 
L 323.062083 316.793861 
Q 323.062083 319.193861 325.462083 319.193861 
L 333.204583 319.193861 
Q 335.604583 319.193861 335.604583 316.793861 
L 335.604583 281.508861 
Q 335.604583 279.108861 333.204583 279.108861 
L 325.462083 279.108861 
Q 323.062083 279.108861 323.062083 281.508861 
z
" style="fill:#ffffff;stroke:#ffffff;stroke-linejoin:miter;"/>
    </g>
    <g clip-path="url(#p43aa6e283d)">
     <!-- Terminal -->
     <g transform="translate(327.125833 281.508861)rotate(-270)scale(0.08 -0.08)">
      <use xlink:href="#DejaVuSans-84"/>
      <use x="60.818359" xlink:href="#DejaVuSans-101"/>
      <use x="122.341797" xlink:href="#DejaVuSans-114"/>
      <use x="163.439453" xlink:href="#DejaVuSans-109"/>
      <use x="260.851562" xlink:href="#DejaVuSans-105"/>
      <use x="288.634766" xlink:href="#DejaVuSans-110"/>
      <use x="352.013672" xlink:href="#DejaVuSans-97"/>
      <use x="413.292969" xlink:href="#DejaVuSans-108"/>
     </g>
    </g>
   </g>
   <g id="text_31">
    <g id="patch_32">
     <path clip-path="url(#p43aa6e283d)" d="M 372.882468 281.508861 
L 372.882468 316.793861 
Q 372.882468 319.193861 375.282468 319.193861 
L 383.024968 319.193861 
Q 385.424968 319.193861 385.424968 316.793861 
L 385.424968 281.508861 
Q 385.424968 279.108861 383.024968 279.108861 
L 375.282468 279.108861 
Q 372.882468 279.108861 372.882468 281.508861 
z
" style="fill:#ffffff;stroke:#ffffff;stroke-linejoin:miter;"/>
    </g>
    <g clip-path="url(#p43aa6e283d)">
     <!-- Terminal -->
     <g transform="translate(376.946218 281.508861)rotate(-270)scale(0.08 -0.08)">
      <use xlink:href="#DejaVuSans-84"/>
      <use x="60.818359" xlink:href="#DejaVuSans-101"/>
      <use x="122.341797" xlink:href="#DejaVuSans-114"/>
      <use x="163.439453" xlink:href="#DejaVuSans-109"/>
      <use x="260.851562" xlink:href="#DejaVuSans-105"/>
      <use x="288.634766" xlink:href="#DejaVuSans-110"/>
      <use x="352.013672" xlink:href="#DejaVuSans-97"/>
      <use x="413.292969" xlink:href="#DejaVuSans-108"/>
     </g>
    </g>
   </g>
   <g id="text_32">
    <g id="patch_33">
     <path clip-path="url(#p43aa6e283d)" d="M 73.960162 281.508861 
L 73.960162 316.793861 
Q 73.960162 319.193861 76.360162 319.193861 
L 84.102662 319.193861 
Q 86.502662 319.193861 86.502662 316.793861 
L 86.502662 281.508861 
Q 86.502662 279.108861 84.102662 279.108861 
L 76.360162 279.108861 
Q 73.960162 279.108861 73.960162 281.508861 
z
" style="fill:#ffffff;stroke:#ffffff;stroke-linejoin:miter;"/>
    </g>
    <g clip-path="url(#p43aa6e283d)">
     <!-- Terminal -->
     <g transform="translate(78.023912 281.508861)rotate(-270)scale(0.08 -0.08)">
      <use xlink:href="#DejaVuSans-84"/>
      <use x="60.818359" xlink:href="#DejaVuSans-101"/>
      <use x="122.341797" xlink:href="#DejaVuSans-114"/>
      <use x="163.439453" xlink:href="#DejaVuSans-109"/>
      <use x="260.851562" xlink:href="#DejaVuSans-105"/>
      <use x="288.634766" xlink:href="#DejaVuSans-110"/>
      <use x="352.013672" xlink:href="#DejaVuSans-97"/>
      <use x="413.292969" xlink:href="#DejaVuSans-108"/>
     </g>
    </g>
   </g>
   <g id="text_33">
    <g id="patch_34">
     <path clip-path="url(#p43aa6e283d)" d="M 123.780546 281.508861 
L 123.780546 316.793861 
Q 123.780546 319.193861 126.180546 319.193861 
L 133.923046 319.193861 
Q 136.323046 319.193861 136.323046 316.793861 
L 136.323046 281.508861 
Q 136.323046 279.108861 133.923046 279.108861 
L 126.180546 279.108861 
Q 123.780546 279.108861 123.780546 281.508861 
z
" style="fill:#ffffff;stroke:#ffffff;stroke-linejoin:miter;"/>
    </g>
    <g clip-path="url(#p43aa6e283d)">
     <!-- Terminal -->
     <g transform="translate(127.844296 281.508861)rotate(-270)scale(0.08 -0.08)">
      <use xlink:href="#DejaVuSans-84"/>
      <use x="60.818359" xlink:href="#DejaVuSans-101"/>
      <use x="122.341797" xlink:href="#DejaVuSans-114"/>
      <use x="163.439453" xlink:href="#DejaVuSans-109"/>
      <use x="260.851562" xlink:href="#DejaVuSans-105"/>
      <use x="288.634766" xlink:href="#DejaVuSans-110"/>
      <use x="352.013672" xlink:href="#DejaVuSans-97"/>
      <use x="413.292969" xlink:href="#DejaVuSans-108"/>
     </g>
    </g>
   </g>
   <g id="text_34">
    <g id="patch_35">
     <path clip-path="url(#p43aa6e283d)" d="M 254.118204 57.092138 
L 263.002352 52.650691 
Q 265.149038 51.577499 264.075847 49.430813 
L 260.613687 42.505515 
Q 259.540495 40.358829 257.393809 41.432021 
L 248.50966 45.873468 
Q 246.362975 46.94666 247.436166 49.093346 
L 250.898326 56.018644 
Q 251.971518 58.16533 254.118204 57.092138 
z
" style="fill:#ffffff;stroke:#ffffff;stroke-linejoin:miter;"/>
    </g>
    <g clip-path="url(#p43aa6e283d)">
     <!-- LA -->
     <g transform="translate(252.301045 53.457307)rotate(-26.561817)scale(0.08 -0.08)">
      <use xlink:href="#DejaVuSans-76"/>
      <use x="55.744141" xlink:href="#DejaVuSans-65"/>
     </g>
    </g>
   </g>
   <g id="text_35">
    <g id="patch_36">
     <path clip-path="url(#p43aa6e283d)" d="M 367.03038 140.560115 
L 370.993307 149.759054 
Q 371.942866 151.963217 374.14703 151.013658 
L 381.257754 147.95034 
Q 383.461917 147.000781 382.512358 144.796617 
L 378.549431 135.597678 
Q 377.599872 133.393515 375.395708 134.343074 
L 368.284985 137.406392 
Q 366.080821 138.355952 367.03038 140.560115 
z
" style="fill:#ffffff;stroke:#ffffff;stroke-linejoin:miter;"/>
    </g>
    <g clip-path="url(#p43aa6e283d)">
     <!-- LR -->
     <g transform="translate(370.762534 138.952293)rotate(-293.306503)scale(0.08 -0.08)">
      <use xlink:href="#DejaVuSans-76"/>
      <use x="55.712891" xlink:href="#DejaVuSans-82"/>
     </g>
    </g>
   </g>
   <g id="text_36">
    <g id="patch_37">
     <path clip-path="url(#p43aa6e283d)" d="M 324.180301 77.066814 
L 325.802722 86.865911 
Q 326.194749 89.233677 328.562515 88.84165 
L 336.201026 87.576954 
Q 338.568792 87.184926 338.176764 84.817161 
L 336.554344 75.018063 
Q 336.162316 72.650298 333.794551 73.042325 
L 326.15604 74.307021 
Q 323.788274 74.699048 324.180301 77.066814 
z
" style="fill:#ffffff;stroke:#ffffff;stroke-linejoin:miter;"/>
    </g>
    <g clip-path="url(#p43aa6e283d)">
     <!-- LA -->
     <g transform="translate(328.189471 76.403022)rotate(-279.401086)scale(0.08 -0.08)">
      <use xlink:href="#DejaVuSans-76"/>
      <use x="55.744141" xlink:href="#DejaVuSans-65"/>
     </g>
    </g>
   </g>
   <g id="text_37">
    <g id="patch_38">
     <path clip-path="url(#p43aa6e283d)" d="M 74.996848 149.355421 
L 78.040704 139.812873 
Q 78.770044 137.526378 76.483548 136.797037 
L 69.107217 134.444156 
Q 66.820721 133.714816 66.091381 136.001312 
L 63.047526 145.543859 
Q 62.318186 147.830355 64.604682 148.559695 
L 71.981012 150.912576 
Q 74.267508 151.641916 74.996848 149.355421 
z
" style="fill:#ffffff;stroke:#ffffff;stroke-linejoin:miter;"/>
    </g>
    <g clip-path="url(#p43aa6e283d)">
     <!-- LR -->
     <g transform="translate(71.125287 148.120481)rotate(-72.308501)scale(0.08 -0.08)">
      <use xlink:href="#DejaVuSans-76"/>
      <use x="55.712891" xlink:href="#DejaVuSans-82"/>
     </g>
    </g>
   </g>
   <g id="text_38">
    <g id="patch_39">
     <path clip-path="url(#p43aa6e283d)" d="M 143.006737 51.021846 
L 150.734903 57.261238 
Q 152.602267 58.768868 154.109898 56.901504 
L 158.973576 50.877308 
Q 160.481207 49.009943 158.613842 47.502313 
L 150.885676 41.262921 
Q 149.018312 39.755291 147.510681 41.622655 
L 142.647003 47.646851 
Q 141.139372 49.514216 143.006737 51.021846 
z
" style="fill:#ffffff;stroke:#ffffff;stroke-linejoin:miter;"/>
    </g>
    <g clip-path="url(#p43aa6e283d)">
     <!-- LA -->
     <g transform="translate(145.5595 47.85997)rotate(-321.084074)scale(0.08 -0.08)">
      <use xlink:href="#DejaVuSans-76"/>
      <use x="55.744141" xlink:href="#DejaVuSans-65"/>
     </g>
    </g>
   </g>
   <g id="text_39">
    <g id="patch_40">
     <path clip-path="url(#p43aa6e283d)" d="M 621.984389 281.508861 
L 621.984389 316.793861 
Q 621.984389 319.193861 624.384389 319.193861 
L 632.126889 319.193861 
Q 634.526889 319.193861 634.526889 316.793861 
L 634.526889 281.508861 
Q 634.526889 279.108861 632.126889 279.108861 
L 624.384389 279.108861 
Q 621.984389 279.108861 621.984389 281.508861 
z
" style="fill:#ffffff;stroke:#ffffff;stroke-linejoin:miter;"/>
    </g>
    <g clip-path="url(#p43aa6e283d)">
     <!-- Terminal -->
     <g transform="translate(626.048139 281.508861)rotate(-270)scale(0.08 -0.08)">
      <use xlink:href="#DejaVuSans-84"/>
      <use x="60.818359" xlink:href="#DejaVuSans-101"/>
      <use x="122.341797" xlink:href="#DejaVuSans-114"/>
      <use x="163.439453" xlink:href="#DejaVuSans-109"/>
      <use x="260.851562" xlink:href="#DejaVuSans-105"/>
      <use x="288.634766" xlink:href="#DejaVuSans-110"/>
      <use x="352.013672" xlink:href="#DejaVuSans-97"/>
      <use x="413.292969" xlink:href="#DejaVuSans-108"/>
     </g>
    </g>
   </g>
   <g id="PathCollection_1">
    <defs>
     <path d="M 0 8.660254 
C 2.296726 8.660254 4.499694 7.747755 6.123724 6.123724 
C 7.747755 4.499694 8.660254 2.296726 8.660254 0 
C 8.660254 -2.296726 7.747755 -4.499694 6.123724 -6.123724 
C 4.499694 -7.747755 2.296726 -8.660254 0 -8.660254 
C -2.296726 -8.660254 -4.499694 -7.747755 -6.123724 -6.123724 
C -7.747755 -4.499694 -8.660254 -2.296726 -8.660254 0 
C -8.660254 2.296726 -7.747755 4.499694 -6.123724 6.123724 
C -4.499694 7.747755 -2.296726 8.660254 0 8.660254 
z
" id="C0_0_137320ac49"/>
    </defs>
    <g clip-path="url(#p43aa6e283d)">
     <use style="fill:#ffffff;stroke:#ffffff;" x="30.411027" xlink:href="#C0_0_137320ac49" y="329.806329"/>
    </g>
    <g clip-path="url(#p43aa6e283d)">
     <use style="fill:#ffffff;stroke:#ffffff;" x="80.231412" xlink:href="#C0_0_137320ac49" y="329.806329"/>
    </g>
    <g clip-path="url(#p43aa6e283d)">
     <use style="fill:#ffffff;stroke:#ffffff;" x="130.051796" xlink:href="#C0_0_137320ac49" y="329.806329"/>
    </g>
    <g clip-path="url(#p43aa6e283d)">
     <use style="fill:#ffffff;stroke:#ffffff;" x="179.87218" xlink:href="#C0_0_137320ac49" y="329.806329"/>
    </g>
    <g clip-path="url(#p43aa6e283d)">
     <use style="fill:#ffffff;stroke:#ffffff;" x="229.692565" xlink:href="#C0_0_137320ac49" y="329.806329"/>
    </g>
    <g clip-path="url(#p43aa6e283d)">
     <use style="fill:#ffffff;stroke:#ffffff;" x="279.512949" xlink:href="#C0_0_137320ac49" y="329.806329"/>
    </g>
    <g clip-path="url(#p43aa6e283d)">
     <use style="fill:#ffffff;stroke:#ffffff;" x="329.333333" xlink:href="#C0_0_137320ac49" y="329.806329"/>
    </g>
    <g clip-path="url(#p43aa6e283d)">
     <use style="fill:#ffffff;stroke:#ffffff;" x="379.153718" xlink:href="#C0_0_137320ac49" y="329.806329"/>
    </g>
    <g clip-path="url(#p43aa6e283d)">
     <use style="fill:#ffffff;stroke:#ffffff;" x="428.974102" xlink:href="#C0_0_137320ac49" y="329.806329"/>
    </g>
    <g clip-path="url(#p43aa6e283d)">
     <use style="fill:#ffffff;stroke:#ffffff;" x="478.794486" xlink:href="#C0_0_137320ac49" y="329.806329"/>
    </g>
    <g clip-path="url(#p43aa6e283d)">
     <use style="fill:#ffffff;stroke:#ffffff;" x="528.614871" xlink:href="#C0_0_137320ac49" y="329.806329"/>
    </g>
    <g clip-path="url(#p43aa6e283d)">
     <use style="fill:#ffffff;stroke:#ffffff;" x="578.435255" xlink:href="#C0_0_137320ac49" y="329.806329"/>
    </g>
    <g clip-path="url(#p43aa6e283d)">
     <use style="fill:#ffffff;stroke:#ffffff;" x="628.255639" xlink:href="#C0_0_137320ac49" y="329.806329"/>
    </g>
    <g clip-path="url(#p43aa6e283d)">
     <use style="fill:#ffffff;stroke:#ffffff;" x="248.029234" xlink:href="#C0_0_137320ac49" y="16.860338"/>
    </g>
    <g clip-path="url(#p43aa6e283d)">
     <use style="fill:#ffffff;stroke:#ffffff;" x="30.411027" xlink:href="#C0_0_137320ac49" y="268.496394"/>
    </g>
    <g clip-path="url(#p43aa6e283d)">
     <use style="fill:#ffffff;stroke:#ffffff;" x="190.943377" xlink:href="#C0_0_137320ac49" y="81.663821"/>
    </g>
    <g clip-path="url(#p43aa6e283d)">
     <use style="fill:#ffffff;stroke:#ffffff;" x="428.974102" xlink:href="#C0_0_137320ac49" y="268.496394"/>
    </g>
    <g clip-path="url(#p43aa6e283d)">
     <use style="fill:#ffffff;stroke:#ffffff;" x="341.788429" xlink:href="#C0_0_137320ac49" y="145.023636"/>
    </g>
    <g clip-path="url(#p43aa6e283d)">
     <use style="fill:#ffffff;stroke:#ffffff;" x="478.794486" xlink:href="#C0_0_137320ac49" y="268.496394"/>
    </g>
    <g clip-path="url(#p43aa6e283d)">
     <use style="fill:#ffffff;stroke:#ffffff;" x="578.435255" xlink:href="#C0_0_137320ac49" y="207.18646"/>
    </g>
    <g clip-path="url(#p43aa6e283d)">
     <use style="fill:#ffffff;stroke:#ffffff;" x="528.614871" xlink:href="#C0_0_137320ac49" y="268.496394"/>
    </g>
    <g clip-path="url(#p43aa6e283d)">
     <use style="fill:#ffffff;stroke:#ffffff;" x="578.435255" xlink:href="#C0_0_137320ac49" y="268.496394"/>
    </g>
    <g clip-path="url(#p43aa6e283d)">
     <use style="fill:#ffffff;stroke:#ffffff;" x="105.141604" xlink:href="#C0_0_137320ac49" y="207.18646"/>
    </g>
    <g clip-path="url(#p43aa6e283d)">
     <use style="fill:#ffffff;stroke:#ffffff;" x="179.87218" xlink:href="#C0_0_137320ac49" y="268.496394"/>
    </g>
    <g clip-path="url(#p43aa6e283d)">
     <use style="fill:#ffffff;stroke:#ffffff;" x="287.816346" xlink:href="#C0_0_137320ac49" y="145.023636"/>
    </g>
    <g clip-path="url(#p43aa6e283d)">
     <use style="fill:#ffffff;stroke:#ffffff;" x="229.692565" xlink:href="#C0_0_137320ac49" y="268.496394"/>
    </g>
    <g clip-path="url(#p43aa6e283d)">
     <use style="fill:#ffffff;stroke:#ffffff;" x="279.512949" xlink:href="#C0_0_137320ac49" y="268.496394"/>
    </g>
    <g clip-path="url(#p43aa6e283d)">
     <use style="fill:#ffffff;stroke:#ffffff;" x="354.243526" xlink:href="#C0_0_137320ac49" y="207.18646"/>
    </g>
    <g clip-path="url(#p43aa6e283d)">
     <use style="fill:#ffffff;stroke:#ffffff;" x="329.333333" xlink:href="#C0_0_137320ac49" y="268.496394"/>
    </g>
    <g clip-path="url(#p43aa6e283d)">
     <use style="fill:#ffffff;stroke:#ffffff;" x="379.153718" xlink:href="#C0_0_137320ac49" y="268.496394"/>
    </g>
    <g clip-path="url(#p43aa6e283d)">
     <use style="fill:#ffffff;stroke:#ffffff;" x="80.231412" xlink:href="#C0_0_137320ac49" y="268.496394"/>
    </g>
    <g clip-path="url(#p43aa6e283d)">
     <use style="fill:#ffffff;stroke:#ffffff;" x="130.051796" xlink:href="#C0_0_137320ac49" y="268.496394"/>
    </g>
    <g clip-path="url(#p43aa6e283d)">
     <use style="fill:#808080;stroke:#808080;" x="320.568636" xlink:href="#C0_0_137320ac49" y="16.860338"/>
    </g>
    <g clip-path="url(#p43aa6e283d)">
     <use style="fill:#808080;stroke:#808080;" x="110.677202" xlink:href="#C0_0_137320ac49" y="16.860338"/>
    </g>
    <g clip-path="url(#p43aa6e283d)">
     <use style="fill:#ffffff;stroke:#ffffff;" x="628.255639" xlink:href="#C0_0_137320ac49" y="268.496394"/>
    </g>
   </g>
   <g id="text_40">
    <g clip-path="url(#p43aa6e283d)">
     <!-- Mais -->
     <defs>
      <path d="M 9.8125 72.90625 
L 24.515625 72.90625 
L 43.109375 23.296875 
L 61.8125 72.90625 
L 76.515625 72.90625 
L 76.515625 0 
L 66.890625 0 
L 66.890625 64.015625 
L 48.09375 14.015625 
L 38.1875 14.015625 
L 19.390625 64.015625 
L 19.390625 0 
L 9.8125 0 
z
" id="DejaVuSans-77"/>
      <path d="M 44.28125 53.078125 
L 44.28125 44.578125 
Q 40.484375 46.53125 36.375 47.5 
Q 32.28125 48.484375 27.875 48.484375 
Q 21.1875 48.484375 17.84375 46.4375 
Q 14.5 44.390625 14.5 40.28125 
Q 14.5 37.15625 16.890625 35.375 
Q 19.28125 33.59375 26.515625 31.984375 
L 29.59375 31.296875 
Q 39.15625 29.25 43.1875 25.515625 
Q 47.21875 21.78125 47.21875 15.09375 
Q 47.21875 7.46875 41.1875 3.015625 
Q 35.15625 -1.421875 24.609375 -1.421875 
Q 20.21875 -1.421875 15.453125 -0.5625 
Q 10.6875 0.296875 5.421875 2 
L 5.421875 11.28125 
Q 10.40625 8.6875 15.234375 7.390625 
Q 20.0625 6.109375 24.8125 6.109375 
Q 31.15625 6.109375 34.5625 8.28125 
Q 37.984375 10.453125 37.984375 14.40625 
Q 37.984375 18.0625 35.515625 20.015625 
Q 33.0625 21.96875 24.703125 23.78125 
L 21.578125 24.515625 
Q 13.234375 26.265625 9.515625 29.90625 
Q 5.8125 33.546875 5.8125 39.890625 
Q 5.8125 47.609375 11.28125 51.796875 
Q 16.75 56 26.8125 56 
Q 31.78125 56 36.171875 55.265625 
Q 40.578125 54.546875 44.28125 53.078125 
z
" id="DejaVuSans-115"/>
     </defs>
     <g transform="translate(19.039152 332.565704)scale(0.1 -0.1)">
      <use xlink:href="#DejaVuSans-77"/>
      <use x="86.279297" xlink:href="#DejaVuSans-97"/>
      <use x="147.558594" xlink:href="#DejaVuSans-105"/>
      <use x="175.341797" xlink:href="#DejaVuSans-115"/>
     </g>
    </g>
   </g>
   <g id="text_41">
    <g clip-path="url(#p43aa6e283d)">
     <!-- cette -->
     <defs>
      <path d="M 48.78125 52.59375 
L 48.78125 44.1875 
Q 44.96875 46.296875 41.140625 47.34375 
Q 37.3125 48.390625 33.40625 48.390625 
Q 24.65625 48.390625 19.8125 42.84375 
Q 14.984375 37.3125 14.984375 27.296875 
Q 14.984375 17.28125 19.8125 11.734375 
Q 24.65625 6.203125 33.40625 6.203125 
Q 37.3125 6.203125 41.140625 7.25 
Q 44.96875 8.296875 48.78125 10.40625 
L 48.78125 2.09375 
Q 45.015625 0.34375 40.984375 -0.53125 
Q 36.96875 -1.421875 32.421875 -1.421875 
Q 20.0625 -1.421875 12.78125 6.34375 
Q 5.515625 14.109375 5.515625 27.296875 
Q 5.515625 40.671875 12.859375 48.328125 
Q 20.21875 56 33.015625 56 
Q 37.15625 56 41.109375 55.140625 
Q 45.0625 54.296875 48.78125 52.59375 
z
" id="DejaVuSans-99"/>
      <path d="M 18.3125 70.21875 
L 18.3125 54.6875 
L 36.8125 54.6875 
L 36.8125 47.703125 
L 18.3125 47.703125 
L 18.3125 18.015625 
Q 18.3125 11.328125 20.140625 9.421875 
Q 21.96875 7.515625 27.59375 7.515625 
L 36.8125 7.515625 
L 36.8125 0 
L 27.59375 0 
Q 17.1875 0 13.234375 3.875 
Q 9.28125 7.765625 9.28125 18.015625 
L 9.28125 47.703125 
L 2.6875 47.703125 
L 2.6875 54.6875 
L 9.28125 54.6875 
L 9.28125 70.21875 
z
" id="DejaVuSans-116"/>
     </defs>
     <g transform="translate(67.408755 332.565704)scale(0.1 -0.1)">
      <use xlink:href="#DejaVuSans-99"/>
      <use x="54.980469" xlink:href="#DejaVuSans-101"/>
      <use x="116.503906" xlink:href="#DejaVuSans-116"/>
      <use x="155.712891" xlink:href="#DejaVuSans-116"/>
      <use x="194.921875" xlink:href="#DejaVuSans-101"/>
     </g>
    </g>
   </g>
   <g id="text_42">
    <g clip-path="url(#p43aa6e283d)">
     <!-- rponse -->
     <defs>
      <path d="M 56.203125 29.59375 
L 56.203125 25.203125 
L 14.890625 25.203125 
Q 15.484375 15.921875 20.484375 11.0625 
Q 25.484375 6.203125 34.421875 6.203125 
Q 39.59375 6.203125 44.453125 7.46875 
Q 49.3125 8.734375 54.109375 11.28125 
L 54.109375 2.78125 
Q 49.265625 0.734375 44.1875 -0.34375 
Q 39.109375 -1.421875 33.890625 -1.421875 
Q 20.796875 -1.421875 13.15625 6.1875 
Q 5.515625 13.8125 5.515625 26.8125 
Q 5.515625 40.234375 12.765625 48.109375 
Q 20.015625 56 32.328125 56 
Q 43.359375 56 49.78125 48.890625 
Q 56.203125 41.796875 56.203125 29.59375 
z
M 47.21875 32.234375 
Q 47.125 39.59375 43.09375 43.984375 
Q 39.0625 48.390625 32.421875 48.390625 
Q 24.90625 48.390625 20.390625 44.140625 
Q 15.875 39.890625 15.1875 32.171875 
z
M 38.53125 79.984375 
L 48.25 79.984375 
L 32.34375 61.625 
L 24.859375 61.625 
z
" id="DejaVuSans-233"/>
      <path d="M 18.109375 8.203125 
L 18.109375 -20.796875 
L 9.078125 -20.796875 
L 9.078125 54.6875 
L 18.109375 54.6875 
L 18.109375 46.390625 
Q 20.953125 51.265625 25.265625 53.625 
Q 29.59375 56 35.59375 56 
Q 45.5625 56 51.78125 48.09375 
Q 58.015625 40.1875 58.015625 27.296875 
Q 58.015625 14.40625 51.78125 6.484375 
Q 45.5625 -1.421875 35.59375 -1.421875 
Q 29.59375 -1.421875 25.265625 0.953125 
Q 20.953125 3.328125 18.109375 8.203125 
z
M 48.6875 27.296875 
Q 48.6875 37.203125 44.609375 42.84375 
Q 40.53125 48.484375 33.40625 48.484375 
Q 26.265625 48.484375 22.1875 42.84375 
Q 18.109375 37.203125 18.109375 27.296875 
Q 18.109375 17.390625 22.1875 11.75 
Q 26.265625 6.109375 33.40625 6.109375 
Q 40.53125 6.109375 44.609375 11.75 
Q 48.6875 17.390625 48.6875 27.296875 
z
" id="DejaVuSans-112"/>
      <path d="M 30.609375 48.390625 
Q 23.390625 48.390625 19.1875 42.75 
Q 14.984375 37.109375 14.984375 27.296875 
Q 14.984375 17.484375 19.15625 11.84375 
Q 23.34375 6.203125 30.609375 6.203125 
Q 37.796875 6.203125 41.984375 11.859375 
Q 46.1875 17.53125 46.1875 27.296875 
Q 46.1875 37.015625 41.984375 42.703125 
Q 37.796875 48.390625 30.609375 48.390625 
z
M 30.609375 56 
Q 42.328125 56 49.015625 48.375 
Q 55.71875 40.765625 55.71875 27.296875 
Q 55.71875 13.875 49.015625 6.21875 
Q 42.328125 -1.421875 30.609375 -1.421875 
Q 18.84375 -1.421875 12.171875 6.21875 
Q 5.515625 13.875 5.515625 27.296875 
Q 5.515625 40.765625 12.171875 48.375 
Q 18.84375 56 30.609375 56 
z
" id="DejaVuSans-111"/>
     </defs>
     <g transform="translate(109.837733 332.765704)scale(0.1 -0.1)">
      <use xlink:href="#DejaVuSans-114"/>
      <use x="41.082031" xlink:href="#DejaVuSans-233"/>
      <use x="102.605469" xlink:href="#DejaVuSans-112"/>
      <use x="166.082031" xlink:href="#DejaVuSans-111"/>
      <use x="227.263672" xlink:href="#DejaVuSans-110"/>
      <use x="290.642578" xlink:href="#DejaVuSans-115"/>
      <use x="342.742188" xlink:href="#DejaVuSans-101"/>
     </g>
    </g>
   </g>
   <g id="text_43">
    <g clip-path="url(#p43aa6e283d)">
     <!-- prouvait -->
     <defs>
      <path d="M 8.5 21.578125 
L 8.5 54.6875 
L 17.484375 54.6875 
L 17.484375 21.921875 
Q 17.484375 14.15625 20.5 10.265625 
Q 23.53125 6.390625 29.59375 6.390625 
Q 36.859375 6.390625 41.078125 11.03125 
Q 45.3125 15.671875 45.3125 23.6875 
L 45.3125 54.6875 
L 54.296875 54.6875 
L 54.296875 0 
L 45.3125 0 
L 45.3125 8.40625 
Q 42.046875 3.421875 37.71875 1 
Q 33.40625 -1.421875 27.6875 -1.421875 
Q 18.265625 -1.421875 13.375 4.4375 
Q 8.5 10.296875 8.5 21.578125 
z
M 31.109375 56 
z
" id="DejaVuSans-117"/>
      <path d="M 2.984375 54.6875 
L 12.5 54.6875 
L 29.59375 8.796875 
L 46.6875 54.6875 
L 56.203125 54.6875 
L 35.6875 0 
L 23.484375 0 
z
" id="DejaVuSans-118"/>
     </defs>
     <g transform="translate(159.043274 332.565704)scale(0.1 -0.1)">
      <use xlink:href="#DejaVuSans-112"/>
      <use x="63.476562" xlink:href="#DejaVuSans-114"/>
      <use x="104.558594" xlink:href="#DejaVuSans-111"/>
      <use x="165.740234" xlink:href="#DejaVuSans-117"/>
      <use x="229.119141" xlink:href="#DejaVuSans-118"/>
      <use x="288.298828" xlink:href="#DejaVuSans-97"/>
      <use x="349.578125" xlink:href="#DejaVuSans-105"/>
      <use x="377.361328" xlink:href="#DejaVuSans-116"/>
     </g>
    </g>
   </g>
   <g id="text_44">
    <g clip-path="url(#p43aa6e283d)">
     <!-- l' -->
     <defs>
      <path d="M 17.921875 72.90625 
L 17.921875 45.796875 
L 9.625 45.796875 
L 9.625 72.90625 
z
" id="DejaVuSans-39"/>
     </defs>
     <g transform="translate(226.929283 332.565704)scale(0.1 -0.1)">
      <use xlink:href="#DejaVuSans-108"/>
      <use x="27.783203" xlink:href="#DejaVuSans-39"/>
     </g>
    </g>
   </g>
   <g id="text_45">
    <g clip-path="url(#p43aa6e283d)">
     <!-- obstination -->
     <defs>
      <path d="M 48.6875 27.296875 
Q 48.6875 37.203125 44.609375 42.84375 
Q 40.53125 48.484375 33.40625 48.484375 
Q 26.265625 48.484375 22.1875 42.84375 
Q 18.109375 37.203125 18.109375 27.296875 
Q 18.109375 17.390625 22.1875 11.75 
Q 26.265625 6.109375 33.40625 6.109375 
Q 40.53125 6.109375 44.609375 11.75 
Q 48.6875 17.390625 48.6875 27.296875 
z
M 18.109375 46.390625 
Q 20.953125 51.265625 25.265625 53.625 
Q 29.59375 56 35.59375 56 
Q 45.5625 56 51.78125 48.09375 
Q 58.015625 40.1875 58.015625 27.296875 
Q 58.015625 14.40625 51.78125 6.484375 
Q 45.5625 -1.421875 35.59375 -1.421875 
Q 29.59375 -1.421875 25.265625 0.953125 
Q 20.953125 3.328125 18.109375 8.203125 
L 18.109375 0 
L 9.078125 0 
L 9.078125 75.984375 
L 18.109375 75.984375 
z
" id="DejaVuSans-98"/>
     </defs>
     <g transform="translate(251.515293 332.565704)scale(0.1 -0.1)">
      <use xlink:href="#DejaVuSans-111"/>
      <use x="61.181641" xlink:href="#DejaVuSans-98"/>
      <use x="124.658203" xlink:href="#DejaVuSans-115"/>
      <use x="176.757812" xlink:href="#DejaVuSans-116"/>
      <use x="215.966797" xlink:href="#DejaVuSans-105"/>
      <use x="243.75" xlink:href="#DejaVuSans-110"/>
      <use x="307.128906" xlink:href="#DejaVuSans-97"/>
      <use x="368.408203" xlink:href="#DejaVuSans-116"/>
      <use x="407.617188" xlink:href="#DejaVuSans-105"/>
      <use x="435.400391" xlink:href="#DejaVuSans-111"/>
      <use x="496.582031" xlink:href="#DejaVuSans-110"/>
     </g>
    </g>
   </g>
   <g id="text_46">
    <g clip-path="url(#p43aa6e283d)">
     <!-- du -->
     <defs>
      <path d="M 45.40625 46.390625 
L 45.40625 75.984375 
L 54.390625 75.984375 
L 54.390625 0 
L 45.40625 0 
L 45.40625 8.203125 
Q 42.578125 3.328125 38.25 0.953125 
Q 33.9375 -1.421875 27.875 -1.421875 
Q 17.96875 -1.421875 11.734375 6.484375 
Q 5.515625 14.40625 5.515625 27.296875 
Q 5.515625 40.1875 11.734375 48.09375 
Q 17.96875 56 27.875 56 
Q 33.9375 56 38.25 53.625 
Q 42.578125 51.265625 45.40625 46.390625 
z
M 14.796875 27.296875 
Q 14.796875 17.390625 18.875 11.75 
Q 22.953125 6.109375 30.078125 6.109375 
Q 37.203125 6.109375 41.296875 11.75 
Q 45.40625 17.390625 45.40625 27.296875 
Q 45.40625 37.203125 41.296875 42.84375 
Q 37.203125 48.484375 30.078125 48.484375 
Q 22.953125 48.484375 18.875 42.84375 
Q 14.796875 37.203125 14.796875 27.296875 
z
" id="DejaVuSans-100"/>
     </defs>
     <g transform="translate(322.990365 332.565704)scale(0.1 -0.1)">
      <use xlink:href="#DejaVuSans-100"/>
      <use x="63.476562" xlink:href="#DejaVuSans-117"/>
     </g>
    </g>
   </g>
   <g id="text_47">
    <g clip-path="url(#p43aa6e283d)">
     <!-- harponneur -->
     <defs>
      <path d="M 54.890625 33.015625 
L 54.890625 0 
L 45.90625 0 
L 45.90625 32.71875 
Q 45.90625 40.484375 42.875 44.328125 
Q 39.84375 48.1875 33.796875 48.1875 
Q 26.515625 48.1875 22.3125 43.546875 
Q 18.109375 38.921875 18.109375 30.90625 
L 18.109375 0 
L 9.078125 0 
L 9.078125 75.984375 
L 18.109375 75.984375 
L 18.109375 46.1875 
Q 21.34375 51.125 25.703125 53.5625 
Q 30.078125 56 35.796875 56 
Q 45.21875 56 50.046875 50.171875 
Q 54.890625 44.34375 54.890625 33.015625 
z
" id="DejaVuSans-104"/>
     </defs>
     <g transform="translate(349.993561 332.565704)scale(0.1 -0.1)">
      <use xlink:href="#DejaVuSans-104"/>
      <use x="63.378906" xlink:href="#DejaVuSans-97"/>
      <use x="124.658203" xlink:href="#DejaVuSans-114"/>
      <use x="165.771484" xlink:href="#DejaVuSans-112"/>
      <use x="229.248047" xlink:href="#DejaVuSans-111"/>
      <use x="290.429688" xlink:href="#DejaVuSans-110"/>
      <use x="353.808594" xlink:href="#DejaVuSans-110"/>
      <use x="417.1875" xlink:href="#DejaVuSans-101"/>
      <use x="478.710938" xlink:href="#DejaVuSans-117"/>
      <use x="542.089844" xlink:href="#DejaVuSans-114"/>
     </g>
    </g>
   </g>
   <g id="text_48">
    <g clip-path="url(#p43aa6e283d)">
     <!-- et -->
     <g transform="translate(423.937383 332.565704)scale(0.1 -0.1)">
      <use xlink:href="#DejaVuSans-101"/>
      <use x="61.523438" xlink:href="#DejaVuSans-116"/>
     </g>
    </g>
   </g>
   <g id="text_49">
    <g clip-path="url(#p43aa6e283d)">
     <!-- pas -->
     <g transform="translate(469.951518 332.565704)scale(0.1 -0.1)">
      <use xlink:href="#DejaVuSans-112"/>
      <use x="63.476562" xlink:href="#DejaVuSans-97"/>
      <use x="124.755859" xlink:href="#DejaVuSans-115"/>
     </g>
    </g>
   </g>
   <g id="text_50">
    <g clip-path="url(#p43aa6e283d)">
     <!-- autre -->
     <g transform="translate(515.291433 332.565704)scale(0.1 -0.1)">
      <use xlink:href="#DejaVuSans-97"/>
      <use x="61.279297" xlink:href="#DejaVuSans-117"/>
      <use x="124.658203" xlink:href="#DejaVuSans-116"/>
      <use x="163.867188" xlink:href="#DejaVuSans-114"/>
      <use x="204.949219" xlink:href="#DejaVuSans-101"/>
     </g>
    </g>
   </g>
   <g id="text_51">
    <g clip-path="url(#p43aa6e283d)">
     <!-- chose -->
     <g transform="translate(563.776661 332.565704)scale(0.1 -0.1)">
      <use xlink:href="#DejaVuSans-99"/>
      <use x="54.980469" xlink:href="#DejaVuSans-104"/>
      <use x="118.359375" xlink:href="#DejaVuSans-111"/>
      <use x="179.541016" xlink:href="#DejaVuSans-115"/>
      <use x="231.640625" xlink:href="#DejaVuSans-101"/>
     </g>
    </g>
   </g>
   <g id="text_52">
    <g clip-path="url(#p43aa6e283d)">
     <!-- . -->
     <defs>
      <path d="M 10.6875 12.40625 
L 21 12.40625 
L 21 0 
L 10.6875 0 
z
" id="DejaVuSans-46"/>
     </defs>
     <g transform="translate(626.666577 332.565704)scale(0.1 -0.1)">
      <use xlink:href="#DejaVuSans-46"/>
     </g>
    </g>
   </g>
   <g id="text_53">
    <g clip-path="url(#p43aa6e283d)">
     <!-- 1.1 -->
     <defs>
      <path d="M 12.40625 8.296875 
L 28.515625 8.296875 
L 28.515625 63.921875 
L 10.984375 60.40625 
L 10.984375 69.390625 
L 28.421875 72.90625 
L 38.28125 72.90625 
L 38.28125 8.296875 
L 54.390625 8.296875 
L 54.390625 0 
L 12.40625 0 
z
" id="DejaVuSans-49"/>
     </defs>
     <g transform="translate(240.077671 19.619713)scale(0.1 -0.1)">
      <use xlink:href="#DejaVuSans-49"/>
      <use x="63.623047" xlink:href="#DejaVuSans-46"/>
      <use x="95.410156" xlink:href="#DejaVuSans-49"/>
     </g>
    </g>
   </g>
   <g id="text_54">
    <g clip-path="url(#p43aa6e283d)">
     <!-- 1.2 -->
     <defs>
      <path d="M 19.1875 8.296875 
L 53.609375 8.296875 
L 53.609375 0 
L 7.328125 0 
L 7.328125 8.296875 
Q 12.9375 14.109375 22.625 23.890625 
Q 32.328125 33.6875 34.8125 36.53125 
Q 39.546875 41.84375 41.421875 45.53125 
Q 43.3125 49.21875 43.3125 52.78125 
Q 43.3125 58.59375 39.234375 62.25 
Q 35.15625 65.921875 28.609375 65.921875 
Q 23.96875 65.921875 18.8125 64.3125 
Q 13.671875 62.703125 7.8125 59.421875 
L 7.8125 69.390625 
Q 13.765625 71.78125 18.9375 73 
Q 24.125 74.21875 28.421875 74.21875 
Q 39.75 74.21875 46.484375 68.546875 
Q 53.21875 62.890625 53.21875 53.421875 
Q 53.21875 48.921875 51.53125 44.890625 
Q 49.859375 40.875 45.40625 35.40625 
Q 44.1875 33.984375 37.640625 27.21875 
Q 31.109375 20.453125 19.1875 8.296875 
z
" id="DejaVuSans-50"/>
     </defs>
     <g transform="translate(22.459465 271.255769)scale(0.1 -0.1)">
      <use xlink:href="#DejaVuSans-49"/>
      <use x="63.623047" xlink:href="#DejaVuSans-46"/>
      <use x="95.410156" xlink:href="#DejaVuSans-50"/>
     </g>
    </g>
   </g>
   <g id="text_55">
    <g clip-path="url(#p43aa6e283d)">
     <!-- 1.3 -->
     <defs>
      <path d="M 40.578125 39.3125 
Q 47.65625 37.796875 51.625 33 
Q 55.609375 28.21875 55.609375 21.1875 
Q 55.609375 10.40625 48.1875 4.484375 
Q 40.765625 -1.421875 27.09375 -1.421875 
Q 22.515625 -1.421875 17.65625 -0.515625 
Q 12.796875 0.390625 7.625 2.203125 
L 7.625 11.71875 
Q 11.71875 9.328125 16.59375 8.109375 
Q 21.484375 6.890625 26.8125 6.890625 
Q 36.078125 6.890625 40.9375 10.546875 
Q 45.796875 14.203125 45.796875 21.1875 
Q 45.796875 27.640625 41.28125 31.265625 
Q 36.765625 34.90625 28.71875 34.90625 
L 20.21875 34.90625 
L 20.21875 43.015625 
L 29.109375 43.015625 
Q 36.375 43.015625 40.234375 45.921875 
Q 44.09375 48.828125 44.09375 54.296875 
Q 44.09375 59.90625 40.109375 62.90625 
Q 36.140625 65.921875 28.71875 65.921875 
Q 24.65625 65.921875 20.015625 65.03125 
Q 15.375 64.15625 9.8125 62.3125 
L 9.8125 71.09375 
Q 15.4375 72.65625 20.34375 73.4375 
Q 25.25 74.21875 29.59375 74.21875 
Q 40.828125 74.21875 47.359375 69.109375 
Q 53.90625 64.015625 53.90625 55.328125 
Q 53.90625 49.265625 50.4375 45.09375 
Q 46.96875 40.921875 40.578125 39.3125 
z
" id="DejaVuSans-51"/>
     </defs>
     <g transform="translate(182.991814 84.423196)scale(0.1 -0.1)">
      <use xlink:href="#DejaVuSans-49"/>
      <use x="63.623047" xlink:href="#DejaVuSans-46"/>
      <use x="95.410156" xlink:href="#DejaVuSans-51"/>
     </g>
    </g>
   </g>
   <g id="text_56">
    <g clip-path="url(#p43aa6e283d)">
     <!-- 1.4 -->
     <defs>
      <path d="M 37.796875 64.3125 
L 12.890625 25.390625 
L 37.796875 25.390625 
z
M 35.203125 72.90625 
L 47.609375 72.90625 
L 47.609375 25.390625 
L 58.015625 25.390625 
L 58.015625 17.1875 
L 47.609375 17.1875 
L 47.609375 0 
L 37.796875 0 
L 37.796875 17.1875 
L 4.890625 17.1875 
L 4.890625 26.703125 
z
" id="DejaVuSans-52"/>
     </defs>
     <g transform="translate(421.02254 271.255769)scale(0.1 -0.1)">
      <use xlink:href="#DejaVuSans-49"/>
      <use x="63.623047" xlink:href="#DejaVuSans-46"/>
      <use x="95.410156" xlink:href="#DejaVuSans-52"/>
     </g>
    </g>
   </g>
   <g id="text_57">
    <g clip-path="url(#p43aa6e283d)">
     <!-- 1.5 -->
     <defs>
      <path d="M 10.796875 72.90625 
L 49.515625 72.90625 
L 49.515625 64.59375 
L 19.828125 64.59375 
L 19.828125 46.734375 
Q 21.96875 47.46875 24.109375 47.828125 
Q 26.265625 48.1875 28.421875 48.1875 
Q 40.625 48.1875 47.75 41.5 
Q 54.890625 34.8125 54.890625 23.390625 
Q 54.890625 11.625 47.5625 5.09375 
Q 40.234375 -1.421875 26.90625 -1.421875 
Q 22.3125 -1.421875 17.546875 -0.640625 
Q 12.796875 0.140625 7.71875 1.703125 
L 7.71875 11.625 
Q 12.109375 9.234375 16.796875 8.0625 
Q 21.484375 6.890625 26.703125 6.890625 
Q 35.15625 6.890625 40.078125 11.328125 
Q 45.015625 15.765625 45.015625 23.390625 
Q 45.015625 31 40.078125 35.4375 
Q 35.15625 39.890625 26.703125 39.890625 
Q 22.75 39.890625 18.8125 39.015625 
Q 14.890625 38.140625 10.796875 36.28125 
z
" id="DejaVuSans-53"/>
     </defs>
     <g transform="translate(333.836867 147.783011)scale(0.1 -0.1)">
      <use xlink:href="#DejaVuSans-49"/>
      <use x="63.623047" xlink:href="#DejaVuSans-46"/>
      <use x="95.410156" xlink:href="#DejaVuSans-53"/>
     </g>
    </g>
   </g>
   <g id="text_58">
    <g clip-path="url(#p43aa6e283d)">
     <!-- 1.7 -->
     <defs>
      <path d="M 8.203125 72.90625 
L 55.078125 72.90625 
L 55.078125 68.703125 
L 28.609375 0 
L 18.3125 0 
L 43.21875 64.59375 
L 8.203125 64.59375 
z
" id="DejaVuSans-55"/>
     </defs>
     <g transform="translate(470.842924 271.255769)scale(0.1 -0.1)">
      <use xlink:href="#DejaVuSans-49"/>
      <use x="63.623047" xlink:href="#DejaVuSans-46"/>
      <use x="95.410156" xlink:href="#DejaVuSans-55"/>
     </g>
    </g>
   </g>
   <g id="text_59">
    <g clip-path="url(#p43aa6e283d)">
     <!-- 1.8 -->
     <defs>
      <path d="M 31.78125 34.625 
Q 24.75 34.625 20.71875 30.859375 
Q 16.703125 27.09375 16.703125 20.515625 
Q 16.703125 13.921875 20.71875 10.15625 
Q 24.75 6.390625 31.78125 6.390625 
Q 38.8125 6.390625 42.859375 10.171875 
Q 46.921875 13.96875 46.921875 20.515625 
Q 46.921875 27.09375 42.890625 30.859375 
Q 38.875 34.625 31.78125 34.625 
z
M 21.921875 38.8125 
Q 15.578125 40.375 12.03125 44.71875 
Q 8.5 49.078125 8.5 55.328125 
Q 8.5 64.0625 14.71875 69.140625 
Q 20.953125 74.21875 31.78125 74.21875 
Q 42.671875 74.21875 48.875 69.140625 
Q 55.078125 64.0625 55.078125 55.328125 
Q 55.078125 49.078125 51.53125 44.71875 
Q 48 40.375 41.703125 38.8125 
Q 48.828125 37.15625 52.796875 32.3125 
Q 56.78125 27.484375 56.78125 20.515625 
Q 56.78125 9.90625 50.3125 4.234375 
Q 43.84375 -1.421875 31.78125 -1.421875 
Q 19.734375 -1.421875 13.25 4.234375 
Q 6.78125 9.90625 6.78125 20.515625 
Q 6.78125 27.484375 10.78125 32.3125 
Q 14.796875 37.15625 21.921875 38.8125 
z
M 18.3125 54.390625 
Q 18.3125 48.734375 21.84375 45.5625 
Q 25.390625 42.390625 31.78125 42.390625 
Q 38.140625 42.390625 41.71875 45.5625 
Q 45.3125 48.734375 45.3125 54.390625 
Q 45.3125 60.0625 41.71875 63.234375 
Q 38.140625 66.40625 31.78125 66.40625 
Q 25.390625 66.40625 21.84375 63.234375 
Q 18.3125 60.0625 18.3125 54.390625 
z
" id="DejaVuSans-56"/>
     </defs>
     <g transform="translate(570.483693 209.945835)scale(0.1 -0.1)">
      <use xlink:href="#DejaVuSans-49"/>
      <use x="63.623047" xlink:href="#DejaVuSans-46"/>
      <use x="95.410156" xlink:href="#DejaVuSans-56"/>
     </g>
    </g>
   </g>
   <g id="text_60">
    <g clip-path="url(#p43aa6e283d)">
     <!-- 1.9 -->
     <defs>
      <path d="M 10.984375 1.515625 
L 10.984375 10.5 
Q 14.703125 8.734375 18.5 7.8125 
Q 22.3125 6.890625 25.984375 6.890625 
Q 35.75 6.890625 40.890625 13.453125 
Q 46.046875 20.015625 46.78125 33.40625 
Q 43.953125 29.203125 39.59375 26.953125 
Q 35.25 24.703125 29.984375 24.703125 
Q 19.046875 24.703125 12.671875 31.3125 
Q 6.296875 37.9375 6.296875 49.421875 
Q 6.296875 60.640625 12.9375 67.421875 
Q 19.578125 74.21875 30.609375 74.21875 
Q 43.265625 74.21875 49.921875 64.515625 
Q 56.59375 54.828125 56.59375 36.375 
Q 56.59375 19.140625 48.40625 8.859375 
Q 40.234375 -1.421875 26.421875 -1.421875 
Q 22.703125 -1.421875 18.890625 -0.6875 
Q 15.09375 0.046875 10.984375 1.515625 
z
M 30.609375 32.421875 
Q 37.25 32.421875 41.125 36.953125 
Q 45.015625 41.5 45.015625 49.421875 
Q 45.015625 57.28125 41.125 61.84375 
Q 37.25 66.40625 30.609375 66.40625 
Q 23.96875 66.40625 20.09375 61.84375 
Q 16.21875 57.28125 16.21875 49.421875 
Q 16.21875 41.5 20.09375 36.953125 
Q 23.96875 32.421875 30.609375 32.421875 
z
" id="DejaVuSans-57"/>
     </defs>
     <g transform="translate(520.663308 271.255769)scale(0.1 -0.1)">
      <use xlink:href="#DejaVuSans-49"/>
      <use x="63.623047" xlink:href="#DejaVuSans-46"/>
      <use x="95.410156" xlink:href="#DejaVuSans-57"/>
     </g>
    </g>
   </g>
   <g id="text_61">
    <g clip-path="url(#p43aa6e283d)">
     <!-- 1.10 -->
     <defs>
      <path d="M 31.78125 66.40625 
Q 24.171875 66.40625 20.328125 58.90625 
Q 16.5 51.421875 16.5 36.375 
Q 16.5 21.390625 20.328125 13.890625 
Q 24.171875 6.390625 31.78125 6.390625 
Q 39.453125 6.390625 43.28125 13.890625 
Q 47.125 21.390625 47.125 36.375 
Q 47.125 51.421875 43.28125 58.90625 
Q 39.453125 66.40625 31.78125 66.40625 
z
M 31.78125 74.21875 
Q 44.046875 74.21875 50.515625 64.515625 
Q 56.984375 54.828125 56.984375 36.375 
Q 56.984375 17.96875 50.515625 8.265625 
Q 44.046875 -1.421875 31.78125 -1.421875 
Q 19.53125 -1.421875 13.0625 8.265625 
Q 6.59375 17.96875 6.59375 36.375 
Q 6.59375 54.828125 13.0625 64.515625 
Q 19.53125 74.21875 31.78125 74.21875 
z
" id="DejaVuSans-48"/>
     </defs>
     <g transform="translate(567.302443 271.255769)scale(0.1 -0.1)">
      <use xlink:href="#DejaVuSans-49"/>
      <use x="63.623047" xlink:href="#DejaVuSans-46"/>
      <use x="95.410156" xlink:href="#DejaVuSans-49"/>
      <use x="159.033203" xlink:href="#DejaVuSans-48"/>
     </g>
    </g>
   </g>
   <g id="text_62">
    <g clip-path="url(#p43aa6e283d)">
     <!-- 1.11 -->
     <g transform="translate(94.008791 209.945835)scale(0.1 -0.1)">
      <use xlink:href="#DejaVuSans-49"/>
      <use x="63.623047" xlink:href="#DejaVuSans-46"/>
      <use x="95.410156" xlink:href="#DejaVuSans-49"/>
      <use x="159.033203" xlink:href="#DejaVuSans-49"/>
     </g>
    </g>
   </g>
   <g id="text_63">
    <g clip-path="url(#p43aa6e283d)">
     <!-- 1.12 -->
     <g transform="translate(168.739368 271.255769)scale(0.1 -0.1)">
      <use xlink:href="#DejaVuSans-49"/>
      <use x="63.623047" xlink:href="#DejaVuSans-46"/>
      <use x="95.410156" xlink:href="#DejaVuSans-49"/>
      <use x="159.033203" xlink:href="#DejaVuSans-50"/>
     </g>
    </g>
   </g>
   <g id="text_64">
    <g clip-path="url(#p43aa6e283d)">
     <!-- 1.13 -->
     <g transform="translate(276.683534 147.783011)scale(0.1 -0.1)">
      <use xlink:href="#DejaVuSans-49"/>
      <use x="63.623047" xlink:href="#DejaVuSans-46"/>
      <use x="95.410156" xlink:href="#DejaVuSans-49"/>
      <use x="159.033203" xlink:href="#DejaVuSans-51"/>
     </g>
    </g>
   </g>
   <g id="text_65">
    <g clip-path="url(#p43aa6e283d)">
     <!-- 1.14 -->
     <g transform="translate(218.559752 271.255769)scale(0.1 -0.1)">
      <use xlink:href="#DejaVuSans-49"/>
      <use x="63.623047" xlink:href="#DejaVuSans-46"/>
      <use x="95.410156" xlink:href="#DejaVuSans-49"/>
      <use x="159.033203" xlink:href="#DejaVuSans-52"/>
     </g>
    </g>
   </g>
   <g id="text_66">
    <g clip-path="url(#p43aa6e283d)">
     <!-- 1.15 -->
     <g transform="translate(268.380136 271.255769)scale(0.1 -0.1)">
      <use xlink:href="#DejaVuSans-49"/>
      <use x="63.623047" xlink:href="#DejaVuSans-46"/>
      <use x="95.410156" xlink:href="#DejaVuSans-49"/>
      <use x="159.033203" xlink:href="#DejaVuSans-53"/>
     </g>
    </g>
   </g>
   <g id="text_67">
    <g clip-path="url(#p43aa6e283d)">
     <!-- 1.16 -->
     <defs>
      <path d="M 33.015625 40.375 
Q 26.375 40.375 22.484375 35.828125 
Q 18.609375 31.296875 18.609375 23.390625 
Q 18.609375 15.53125 22.484375 10.953125 
Q 26.375 6.390625 33.015625 6.390625 
Q 39.65625 6.390625 43.53125 10.953125 
Q 47.40625 15.53125 47.40625 23.390625 
Q 47.40625 31.296875 43.53125 35.828125 
Q 39.65625 40.375 33.015625 40.375 
z
M 52.59375 71.296875 
L 52.59375 62.3125 
Q 48.875 64.0625 45.09375 64.984375 
Q 41.3125 65.921875 37.59375 65.921875 
Q 27.828125 65.921875 22.671875 59.328125 
Q 17.53125 52.734375 16.796875 39.40625 
Q 19.671875 43.65625 24.015625 45.921875 
Q 28.375 48.1875 33.59375 48.1875 
Q 44.578125 48.1875 50.953125 41.515625 
Q 57.328125 34.859375 57.328125 23.390625 
Q 57.328125 12.15625 50.6875 5.359375 
Q 44.046875 -1.421875 33.015625 -1.421875 
Q 20.359375 -1.421875 13.671875 8.265625 
Q 6.984375 17.96875 6.984375 36.375 
Q 6.984375 53.65625 15.1875 63.9375 
Q 23.390625 74.21875 37.203125 74.21875 
Q 40.921875 74.21875 44.703125 73.484375 
Q 48.484375 72.75 52.59375 71.296875 
z
" id="DejaVuSans-54"/>
     </defs>
     <g transform="translate(343.110713 209.945835)scale(0.1 -0.1)">
      <use xlink:href="#DejaVuSans-49"/>
      <use x="63.623047" xlink:href="#DejaVuSans-46"/>
      <use x="95.410156" xlink:href="#DejaVuSans-49"/>
      <use x="159.033203" xlink:href="#DejaVuSans-54"/>
     </g>
    </g>
   </g>
   <g id="text_68">
    <g clip-path="url(#p43aa6e283d)">
     <!-- 1.17 -->
     <g transform="translate(318.200521 271.255769)scale(0.1 -0.1)">
      <use xlink:href="#DejaVuSans-49"/>
      <use x="63.623047" xlink:href="#DejaVuSans-46"/>
      <use x="95.410156" xlink:href="#DejaVuSans-49"/>
      <use x="159.033203" xlink:href="#DejaVuSans-55"/>
     </g>
    </g>
   </g>
   <g id="text_69">
    <g clip-path="url(#p43aa6e283d)">
     <!-- 1.18 -->
     <g transform="translate(368.020905 271.255769)scale(0.1 -0.1)">
      <use xlink:href="#DejaVuSans-49"/>
      <use x="63.623047" xlink:href="#DejaVuSans-46"/>
      <use x="95.410156" xlink:href="#DejaVuSans-49"/>
      <use x="159.033203" xlink:href="#DejaVuSans-56"/>
     </g>
    </g>
   </g>
   <g id="text_70">
    <g clip-path="url(#p43aa6e283d)">
     <!-- 1.19 -->
     <g transform="translate(69.098599 271.255769)scale(0.1 -0.1)">
      <use xlink:href="#DejaVuSans-49"/>
      <use x="63.623047" xlink:href="#DejaVuSans-46"/>
      <use x="95.410156" xlink:href="#DejaVuSans-49"/>
      <use x="159.033203" xlink:href="#DejaVuSans-57"/>
     </g>
    </g>
   </g>
   <g id="text_71">
    <g clip-path="url(#p43aa6e283d)">
     <!-- 1.20 -->
     <g transform="translate(118.918983 271.255769)scale(0.1 -0.1)">
      <use xlink:href="#DejaVuSans-49"/>
      <use x="63.623047" xlink:href="#DejaVuSans-46"/>
      <use x="95.410156" xlink:href="#DejaVuSans-50"/>
      <use x="159.033203" xlink:href="#DejaVuSans-48"/>
     </g>
    </g>
   </g>
   <g id="text_72">
    <g clip-path="url(#p43aa6e283d)">
     <!-- 1.21 -->
     <g transform="translate(309.435824 19.619713)scale(0.1 -0.1)">
      <use xlink:href="#DejaVuSans-49"/>
      <use x="63.623047" xlink:href="#DejaVuSans-46"/>
      <use x="95.410156" xlink:href="#DejaVuSans-50"/>
      <use x="159.033203" xlink:href="#DejaVuSans-49"/>
     </g>
    </g>
   </g>
   <g id="text_73">
    <g clip-path="url(#p43aa6e283d)">
     <!-- 1.22 -->
     <g transform="translate(99.54439 19.619713)scale(0.1 -0.1)">
      <use xlink:href="#DejaVuSans-49"/>
      <use x="63.623047" xlink:href="#DejaVuSans-46"/>
      <use x="95.410156" xlink:href="#DejaVuSans-50"/>
      <use x="159.033203" xlink:href="#DejaVuSans-50"/>
     </g>
    </g>
   </g>
   <g id="text_74">
    <g clip-path="url(#p43aa6e283d)">
     <!-- 1.23 -->
     <g transform="translate(617.122827 271.255769)scale(0.1 -0.1)">
      <use xlink:href="#DejaVuSans-49"/>
      <use x="63.623047" xlink:href="#DejaVuSans-46"/>
      <use x="95.410156" xlink:href="#DejaVuSans-50"/>
      <use x="159.033203" xlink:href="#DejaVuSans-51"/>
     </g>
    </g>
   </g>
  </g>
 </g>
 <defs>
  <clipPath id="p43aa6e283d">
   <rect height="346.666667" width="658.666667" x="0" y="0"/>
  </clipPath>
 </defs>
</svg>
