<?xml version="1.0" encoding="UTF-8"?>
<!DOCTYPE svg  PUBLIC '-//W3C//DTD SVG 1.1//EN'  'http://www.w3.org/Graphics/SVG/1.1/DTD/svg11.dtd'>
<svg width="1773.3pt" height="933.33pt" version="1.1" viewBox="0 0 1773.3 933.33" xmlns="http://www.w3.org/2000/svg" xmlns:xlink="http://www.w3.org/1999/xlink">
<defs>
<style type="text/css">*{stroke-linecap:butt;stroke-linejoin:round;}</style>
</defs>
<path d="m0 933.33h1773.3v-933.33h-1773.3z" fill="#fff"/>
<g fill="none" stroke="#000">
<path d="m955.74 43.338-259.72 148.29" clip-path="url(#a)"/>
<path d="m955.74 43.338-184.2 709.84" clip-path="url(#a)"/>
<path d="m955.74 43.338-51.161 434.3" clip-path="url(#a)"/>
<path d="m955.74 43.338 184.21 709.84" clip-path="url(#a)"/>
<path d="m955.74 43.338 402.96 292.91" clip-path="url(#a)"/>
<path d="m955.74 43.338-230.25 709.84" clip-path="url(#a)"/>
<path d="m955.74 43.338 138.16 709.84" clip-path="url(#a)"/>
<path d="m696.01 191.63 996.55 698.36" clip-path="url(#a)"/>
<path d="m696.01 191.63-509.33 144.61" clip-path="url(#a)"/>
<path d="m696.01 191.63-177.76 424.73" clip-path="url(#a)"/>
<path d="m696.01 191.63-62.63 424.73" clip-path="url(#a)"/>
<path d="m696.01 191.63-246.84 561.54" clip-path="url(#a)"/>
<path d="m771.54 753.18v136.82" clip-path="url(#a)"/>
<path d="m904.58 477.64-86.986 275.54" clip-path="url(#a)"/>
<path d="m904.58 477.64 5.1168 275.54" clip-path="url(#a)"/>
<path d="m904.58 477.64 81.869 138.72" clip-path="url(#a)"/>
<path d="m1139.9 753.18v136.82" clip-path="url(#a)"/>
<path d="m1358.7 336.25-126.64 280.11" clip-path="url(#a)"/>
<path d="m1358.7 336.25-11.513 280.11" clip-path="url(#a)"/>
<path d="m1358.7 336.25 138.15 141.39" clip-path="url(#a)"/>
<path d="m1232.1 616.36-46.051 136.82" clip-path="url(#a)"/>
<path d="m1232.1 616.36v136.82" clip-path="url(#a)"/>
<path d="m1232.1 616.36 46.051 136.82" clip-path="url(#a)"/>
<path d="m1347.2 616.36-23.026 136.82" clip-path="url(#a)"/>
<path d="m1347.2 616.36 23.026 136.82" clip-path="url(#a)"/>
<path d="m1496.8 477.64-80.59 275.54" clip-path="url(#a)"/>
<path d="m1496.8 477.64-34.539 275.54" clip-path="url(#a)"/>
<path d="m1496.8 477.64 11.513 275.54" clip-path="url(#a)"/>
<path d="m1496.8 477.64 103.62 138.72" clip-path="url(#a)"/>
<path d="m1416.3 753.18v136.82" clip-path="url(#a)"/>
<path d="m1462.3 753.18v136.82" clip-path="url(#a)"/>
<path d="m1508.4 753.18v136.82" clip-path="url(#a)"/>
<path d="m1600.5 616.36-46.051 136.82" clip-path="url(#a)"/>
<path d="m1600.5 616.36v136.82" clip-path="url(#a)"/>
<path d="m1600.5 616.36 46.051 136.82" clip-path="url(#a)"/>
<path d="m1554.4 753.18v136.82" clip-path="url(#a)"/>
<path d="m1600.5 753.18v136.82" clip-path="url(#a)"/>
<path d="m1324.2 753.18v136.82" clip-path="url(#a)"/>
<path d="m1370.2 753.18v136.82" clip-path="url(#a)"/>
<path d="m1186 753.18v136.82" clip-path="url(#a)"/>
<path d="m1232.1 753.18v136.82" clip-path="url(#a)"/>
<path d="m1278.1 753.18v136.82" clip-path="url(#a)"/>
<path d="m817.59 753.18v136.82" clip-path="url(#a)"/>
<path d="m909.69 753.18-46.051 136.82" clip-path="url(#a)"/>
<path d="m909.69 753.18 46.051 136.82" clip-path="url(#a)"/>
<path d="m986.44 616.36-76.752 136.82" clip-path="url(#a)"/>
<path d="m986.44 616.36 15.35 136.82" clip-path="url(#a)"/>
<path d="m986.44 616.36 61.402 136.82" clip-path="url(#a)"/>
<path d="m909.69 753.18v136.82" clip-path="url(#a)"/>
<path d="m1001.8 753.18v136.82" clip-path="url(#a)"/>
<path d="m1047.8 753.18v136.82" clip-path="url(#a)"/>
<path d="m186.69 336.25-105.92 416.93" clip-path="url(#a)"/>
<path d="m186.69 336.25-59.867 416.93" clip-path="url(#a)"/>
<path d="m186.69 336.25-13.815 416.93" clip-path="url(#a)"/>
<path d="m186.69 336.25 32.236 416.93" clip-path="url(#a)"/>
<path d="m186.69 336.25 147.36 141.39" clip-path="url(#a)"/>
<path d="m518.26 616.36-23.026 136.82" clip-path="url(#a)"/>
<path d="m518.26 616.36 23.026 136.82" clip-path="url(#a)"/>
<path d="m633.38 616.36-46.051 136.82" clip-path="url(#a)"/>
<path d="m633.38 616.36v136.82" clip-path="url(#a)"/>
<path d="m633.38 616.36 46.051 136.82" clip-path="url(#a)"/>
<path d="m587.33 753.18v136.82" clip-path="url(#a)"/>
<path d="m633.38 753.18v136.82" clip-path="url(#a)"/>
<path d="m679.44 753.18v136.82" clip-path="url(#a)"/>
<path d="m495.23 753.18v136.82" clip-path="url(#a)"/>
<path d="m541.28 753.18v136.82" clip-path="url(#a)"/>
<path d="m80.768 753.18v136.82" clip-path="url(#a)"/>
<path d="m126.82 753.18v136.82" clip-path="url(#a)"/>
<path d="m172.87 753.18v136.82" clip-path="url(#a)"/>
<path d="m218.92 753.18v136.82" clip-path="url(#a)"/>
<path d="m334.05 477.64-69.077 275.54" clip-path="url(#a)"/>
<path d="m334.05 477.64v138.72" clip-path="url(#a)"/>
<path d="m334.05 477.64 69.077 275.54" clip-path="url(#a)"/>
<path d="m264.97 753.18v136.82" clip-path="url(#a)"/>
<path d="m334.05 616.36-23.026 136.82" clip-path="url(#a)"/>
<path d="m334.05 616.36 23.026 136.82" clip-path="url(#a)"/>
<path d="m403.13 753.18v136.82" clip-path="url(#a)"/>
<path d="m311.02 753.18v136.82" clip-path="url(#a)"/>
<path d="m357.08 753.18v136.82" clip-path="url(#a)"/>
<path d="m1249.3 191.63-109.37 561.54" clip-path="url(#a)"/>
<path d="m1249.3 191.63 109.37 144.61" clip-path="url(#a)"/>
<path d="m790.71 43.338-94.695 148.29" clip-path="url(#a)"/>
<path d="m790.71 43.338-19.171 709.84" clip-path="url(#a)"/>
<path d="m790.71 43.338 113.87 434.3" clip-path="url(#a)"/>
<path d="m449.18 753.18v136.82" clip-path="url(#a)"/>
<path d="m725.49 753.18v136.82" clip-path="url(#a)"/>
<path d="m1093.9 753.18v136.82" clip-path="url(#a)"/>
<path d="m1646.5 753.18v136.82" clip-path="url(#a)"/>
</g>
<path d="m826.37 124.42 5.2246-2.9831q2.0842-1.19 0.89417-3.2742l-3.8391-6.7237q-1.19-2.0842-3.2742-0.89417l-5.2246 2.9831q-2.0842 1.19-0.89417 3.2742l3.8391 6.7237q1.19 2.0842 3.2742 0.89417z" clip-path="url(#a)" fill="#fff" stroke="#fff"/>
<g clip-path="url(#a)">
<defs>
<path id="ak" d="m9.8125 72.906h9.8594v-29.891h35.844v29.891h9.8594v-72.906h-9.8594v34.719h-35.844v-34.719h-9.8594z"/>
</defs>
<g transform="translate(824.36 120.89) rotate(-29.725) scale(.08 -.08)">
<use xlink:href="#ak"/>
</g>
</g>
<path d="m869.15 401.99 1.1196-4.3146q0.60282-2.3231-1.7202-2.9259l-7.4943-1.9447q-2.3231-0.60282-2.9259 1.7202l-1.1196 4.3146q-0.60282 2.3231 1.7202 2.9259l7.4943 1.9447q2.3231 0.60282 2.9259-1.7202z" clip-path="url(#a)" fill="#fff" stroke="#fff"/>
<g clip-path="url(#a)">
<defs>
<path id="v" d="m9.8125 72.906h9.8594v-64.609h35.5v-8.2969h-45.359z"/>
</defs>
<g transform="translate(865.21 400.97) rotate(-75.453) scale(.08 -.08)">
<use xlink:href="#v"/>
</g>
</g>
<path d="m936.03 264.21 0.70385-5.9749q0.28078-2.3835-2.1027-2.6643l-7.6893-0.90581q-2.3835-0.28078-2.6643 2.1027l-0.70385 5.9749q-0.28078 2.3835 2.1027 2.6643l7.6893 0.90581q2.3835 0.28078 2.6643-2.1027z" clip-path="url(#a)" fill="#fff" stroke="#fff"/>
<g clip-path="url(#a)">
<g transform="translate(932 263.73) rotate(-83.281) scale(.08 -.08)">
<use xlink:href="#ak"/>
</g>
</g>
<path d="m1041.2 397.68 1.1197 4.3146q0.60286 2.323 2.9259 1.7202l7.4943-1.9449q2.323-0.60286 1.7202-2.9259l-1.1197-4.3146q-0.60286-2.323-2.9259-1.7202l-7.4943 1.9449q-2.323 0.60286-1.7202 2.9259z" clip-path="url(#a)" fill="#fff" stroke="#fff"/>
<g clip-path="url(#a)">
<g transform="translate(1045.1 396.66) rotate(75.452) scale(.08 -.08)">
<use xlink:href="#v"/>
</g>
</g>
<path d="m1151.1 193.1 4.8664 3.5374q1.9413 1.4111 3.3524-0.53018l4.5524-6.2628q1.4111-1.9413-0.53018-3.3524l-4.8664-3.5374q-1.9413-1.4111-3.3524 0.53018l-4.5524 6.2628q-1.4111 1.9413 0.53018 3.3524z" clip-path="url(#a)" fill="#fff" stroke="#fff"/>
<g clip-path="url(#a)">
<g transform="translate(1153.5 189.81) rotate(36.013) scale(.08 -.08)">
<use xlink:href="#ak"/>
</g>
</g>
<path d="m845.67 402.98 1.8065-5.5693q0.7405-2.2829-1.5424-3.0234l-7.3647-2.3889q-2.2829-0.7405-3.0234 1.5424l-1.8065 5.5693q-0.7405 2.2829 1.5424 3.0234l7.3647 2.3889q2.2829 0.7405 3.0234-1.5424z" clip-path="url(#a)" fill="#fff" stroke="#fff"/>
<g clip-path="url(#a)">
<defs>
<path id="ah" d="m8.6875 72.906h9.9219v-44.297q0-11.719 4.2344-16.875 4.25-5.1406 13.781-5.1406 9.4688 0 13.719 5.1406 4.25 5.1562 4.25 16.875v44.297h9.9062v-45.516q0-14.25-7.0625-21.531-7.0469-7.2812-20.812-7.2812-13.828 0-20.891 7.2812-7.0469 7.2812-7.0469 21.531z"/>
</defs>
<g transform="translate(841.81 401.72) rotate(-72.029) scale(.08 -.08)">
<use xlink:href="#ah"/>
</g>
</g>
<path d="m1018.1 396.58 1.1186 5.7472q0.45853 2.3558 2.8143 1.8973l7.5999-1.4792q2.3558-0.45852 1.8973-2.8143l-1.1186-5.7472q-0.45852-2.3558-2.8143-1.8973l-7.5999 1.4792q-2.3558 0.45852-1.8973 2.8143z" clip-path="url(#a)" fill="#fff" stroke="#fff"/>
<g clip-path="url(#a)">
<g transform="translate(1022.1 395.81) rotate(78.986) scale(.08 -.08)">
<use xlink:href="#ah"/>
</g>
</g>
<path d="m1188.4 544.38 4.4816 3.1406q1.9654 1.3773 3.3428-0.5881l4.4433-6.3406q1.3773-1.9654-0.5881-3.3428l-4.4816-3.1406q-1.9654-1.3773-3.3428 0.5881l-4.4433 6.3406q-1.3773 1.9654 0.5881 3.3428z" clip-path="url(#a)" fill="#fff" stroke="#fff"/>
<g clip-path="url(#a)">
<defs>
<path id="w" d="m34.188 63.188-13.391-36.281h26.812zm-5.5781 9.7188h11.188l27.781-72.906h-10.25l-6.6406 18.703h-32.859l-6.6406-18.703h-10.406z"/>
</defs>
<g transform="translate(1190.8 541.05) rotate(35.022) scale(.08 -.08)">
<use xlink:href="#w"/>
</g>
</g>
<path d="m440.1 270.81 5.9258-1.6825q2.3087-0.65552 1.6532-2.9643l-2.1147-7.4481q-0.65552-2.3087-2.9643-1.6532l-5.9258 1.6825q-2.3087 0.65552-1.6532 2.9643l2.1147 7.4481q0.65552 2.3087 2.9643 1.6532z" clip-path="url(#a)" fill="#fff" stroke="#fff"/>
<g clip-path="url(#a)">
<defs>
<path id="ap" d="m19.672 64.797v-56.688h11.922q15.094 0 22.094 6.8281 7 6.8438 7 21.594 0 14.641-7 21.453t-22.094 6.8125zm-9.8594 8.1094h20.266q21.188 0 31.094-8.8125 9.9219-8.8125 9.9219-27.562 0-18.859-9.9688-27.703-9.9531-8.8281-31.047-8.8281h-20.266z"/>
</defs>
<g transform="translate(438.99 266.9) rotate(-15.851) scale(.08 -.08)">
<use xlink:href="#ap"/>
</g>
</g>
<path d="m611.86 408.94 2.1128-5.0482q0.92658-2.2139-1.2873-3.1405l-7.1422-2.9892q-2.2139-0.92658-3.1405 1.2873l-2.1128 5.0482q-0.92658 2.2139 1.2873 3.1405l7.1422 2.9892q2.2139 0.92658 3.1405-1.2873z" clip-path="url(#a)" fill="#fff" stroke="#fff"/>
<g clip-path="url(#a)">
<g transform="translate(608.11 407.37) rotate(-67.29) scale(.08 -.08)">
<use xlink:href="#w"/>
</g>
</g>
<path d="m670.55 407.3 0.7037-4.7721q0.35012-2.3743-2.0242-2.7244l-7.6597-1.1295q-2.3743-0.35012-2.7244 2.0242l-0.7037 4.7721q-0.35012 2.3743 2.0242 2.7244l7.6597 1.1295q2.3743 0.35012 2.7244-2.0242z" clip-path="url(#a)" fill="#fff" stroke="#fff"/>
<g clip-path="url(#a)">
<defs>
<path id="ac" d="m19.672 64.797v-27.391h12.406q6.8906 0 10.641 3.5625 3.7656 3.5625 3.7656 10.156 0 6.5469-3.7656 10.109-3.75 3.5625-10.641 3.5625zm-9.8594 8.1094h22.266q12.266 0 18.531-5.5469 6.2812-5.5469 6.2812-16.234 0-10.797-6.2812-16.312-6.2656-5.5156-18.531-5.5156h-12.406v-29.297h-9.8594z"/>
</defs>
<g transform="translate(666.53 406.7) rotate(-81.612) scale(.08 -.08)">
<use xlink:href="#ac"/>
</g>
</g>
<path d="m577.16 477.61 2.3561-5.36q0.96577-2.1971-1.2313-3.1629l-7.088-3.1156q-2.1971-0.96577-3.1629 1.2313l-2.3561 5.36q-0.96577 2.1971 1.2313 3.1629l7.088 3.1156q2.1971 0.96577 3.1629-1.2313z" clip-path="url(#a)" fill="#fff" stroke="#fff"/>
<g clip-path="url(#a)">
<g transform="translate(573.44 475.97) rotate(-66.271) scale(.08 -.08)">
<use xlink:href="#ah"/>
</g>
</g>
<path d="m765.27 803.94v35.285q0 2.4 2.4 2.4h7.7425q2.4 0 2.4-2.4v-35.285q0-2.4-2.4-2.4h-7.7425q-2.4 0-2.4 2.4z" clip-path="url(#a)" fill="#fff" stroke="#fff"/>
<g clip-path="url(#a)">
<defs>
<path id="l" d="m-0.29688 72.906h61.672v-8.3125h-25.875v-64.594h-9.9062v64.594h-25.891z"/>
<path id="d" d="m56.203 29.594v-4.3906h-41.312q0.59375-9.2812 5.5938-14.141t13.938-4.8594q5.1719 0 10.031 1.2656t9.6562 3.8125v-8.5q-4.8438-2.0469-9.9219-3.125t-10.297-1.0781q-13.094 0-20.734 7.6094-7.6406 7.625-7.6406 20.625 0 13.422 7.25 21.297 7.25 7.8906 19.562 7.8906 11.031 0 17.453-7.1094 6.4219-7.0938 6.4219-19.297zm-8.9844 2.6406q-0.09375 7.3594-4.125 11.75-4.0312 4.4062-10.672 4.4062-7.5156 0-12.031-4.25t-5.2031-11.969z"/>
<path id="h" d="m41.109 46.297q-1.5156 0.875-3.2969 1.2812-1.7812 0.42188-3.9219 0.42188-7.625 0-11.703-4.9531t-4.0781-14.234v-28.812h-9.0312v54.688h9.0312v-8.5q2.8438 4.9844 7.375 7.3906 4.5469 2.4219 11.047 2.4219 0.92188 0 2.0469-0.125 1.125-0.10938 2.4844-0.35938z"/>
<path id="k" d="m52 44.188q3.375 6.0625 8.0625 8.9375t11.031 2.875q8.5469 0 13.188-5.9844 4.6406-5.9688 4.6406-17v-33.016h-9.0312v32.719q0 7.8594-2.7969 11.656-2.7812 3.8125-8.4844 3.8125-6.9844 0-11.047-4.6406-4.0469-4.625-4.0469-12.641v-30.906h-9.0312v32.719q0 7.9062-2.7812 11.688t-8.5938 3.7812q-6.8906 0-10.953-4.6562-4.0469-4.6562-4.0469-12.625v-30.906h-9.0312v54.688h9.0312v-8.5q3.0781 5.0312 7.375 7.4219t10.203 2.3906q5.9688 0 10.141-3.0312 4.1719-3.0156 6.1719-8.7812z"/>
<path id="j" d="m9.4219 54.688h8.9844v-54.688h-8.9844zm0 21.297h8.9844v-11.391h-8.9844z"/>
<path id="f" d="m54.891 33.016v-33.016h-8.9844v32.719q0 7.7656-3.0312 11.609-3.0312 3.8594-9.0781 3.8594-7.2812 0-11.484-4.6406-4.2031-4.625-4.2031-12.641v-30.906h-9.0312v54.688h9.0312v-8.5q3.2344 4.9375 7.5938 7.375 4.375 2.4375 10.094 2.4375 9.4219 0 14.25-5.8281 4.8438-5.8281 4.8438-17.156z"/>
<path id="g" d="m34.281 27.484q-10.891 0-15.094-2.4844t-4.2031-8.5q0-4.7812 3.1562-7.5938 3.1562-2.7969 8.5625-2.7969 7.4844 0 12 5.2969t4.5156 14.078v2zm17.922 3.7188v-31.203h-8.9844v8.2969q-3.0781-4.9688-7.6719-7.3438t-11.234-2.375q-8.3906 0-13.359 4.7188-4.9531 4.7188-4.9531 12.625 0 9.2188 6.1719 13.906 6.1875 4.6875 18.438 4.6875h12.609v0.89062q0 6.2031-4.0781 9.5938t-11.453 3.3906q-4.6875 0-9.1406-1.125-4.4375-1.125-8.5312-3.375v8.3125q4.9219 1.9062 9.5625 2.8438 4.6406 0.95312 9.0312 0.95312 11.875 0 17.734-6.1562 5.8594-6.1406 5.8594-18.641z"/>
<path id="i" d="m9.4219 75.984h8.9844v-75.984h-8.9844z"/>
</defs>
<g transform="translate(769.33 803.94) rotate(90) scale(.08 -.08)">
<use xlink:href="#l"/>
<use x="60.818359" xlink:href="#d"/>
<use x="122.341797" xlink:href="#h"/>
<use x="163.439453" xlink:href="#k"/>
<use x="260.851562" xlink:href="#j"/>
<use x="288.634766" xlink:href="#f"/>
<use x="352.013672" xlink:href="#g"/>
<use x="413.292969" xlink:href="#i"/>
</g>
</g>
<path d="m866.24 619.91 1.6475-5.2186q0.72252-2.2887-1.5661-3.0112l-7.3833-2.3309q-2.2887-0.72252-3.0112 1.5661l-1.6475 5.2186q-0.72252 2.2887 1.5661 3.0112l7.3833 2.3309q2.2887 0.72252 3.0112-1.5661z" clip-path="url(#a)" fill="#fff" stroke="#fff"/>
<g clip-path="url(#a)">
<g transform="translate(862.36 618.68) rotate(-72.479) scale(.08 -.08)">
<use xlink:href="#w"/>
</g>
</g>
<path d="m900.81 612.45 0.11437 6.1589q0.044561 2.3996 2.4441 2.355l7.7412-0.14376q2.3996-0.044561 2.355-2.4441l-0.11437-6.1589q-0.044561-2.3996-2.4441-2.355l-7.7412 0.14376q-2.3996 0.044561-2.355 2.4441z" clip-path="url(#a)" fill="#fff" stroke="#fff"/>
<g clip-path="url(#a)">
<g transform="translate(904.87 612.37) rotate(88.936) scale(.08 -.08)">
<use xlink:href="#ap"/>
</g>
</g>
<path d="m938.88 548.11 2.4517 4.1542q1.2198 2.0669 3.2867 0.84707l6.6679-3.9352q2.0669-1.2198 0.84707-3.2867l-2.4517-4.1542q-1.2198-2.0669-3.2867-0.84707l-6.6679 3.9352q-2.0669 1.2198-0.84707 3.2867z" clip-path="url(#a)" fill="#fff" stroke="#fff"/>
<g clip-path="url(#a)">
<g transform="translate(942.38 546.04) rotate(59.452) scale(.08 -.08)">
<use xlink:href="#ac"/>
</g>
</g>
<path d="m1133.7 803.94v35.285q0 2.4 2.4 2.4h7.7425q2.4 0 2.4-2.4v-35.285q0-2.4-2.4-2.4h-7.7425q-2.4 0-2.4 2.4z" clip-path="url(#a)" fill="#fff" stroke="#fff"/>
<g clip-path="url(#a)">
<g transform="translate(1137.7 803.94) rotate(90) scale(.08 -.08)">
<use xlink:href="#l"/>
<use x="60.818359" xlink:href="#d"/>
<use x="122.341797" xlink:href="#h"/>
<use x="163.439453" xlink:href="#k"/>
<use x="260.851562" xlink:href="#j"/>
<use x="288.634766" xlink:href="#f"/>
<use x="352.013672" xlink:href="#g"/>
<use x="413.292969" xlink:href="#i"/>
</g>
</g>
<path d="m1300 481.38 2.2545-4.9865q0.98871-2.1869-1.1982-3.1756l-7.055-3.1896q-2.1869-0.98871-3.1756 1.1982l-2.2545 4.9866q-0.98871 2.1869 1.1982 3.1756l7.055 3.1896q2.1869 0.98871 3.1756-1.1982z" clip-path="url(#a)" fill="#fff" stroke="#fff"/>
<g clip-path="url(#a)">
<g transform="translate(1296.3 479.71) rotate(-65.672) scale(.08 -.08)">
<use xlink:href="#w"/>
</g>
</g>
<path d="m1359.1 478.97 0.19809-4.8197q0.098559-2.398-2.2994-2.4965l-7.736-0.31795q-2.398-0.098558-2.4965 2.2994l-0.19809 4.8197q-0.098559 2.398 2.2994 2.4965l7.736 0.31795q2.398 0.098558 2.4965-2.2994z" clip-path="url(#a)" fill="#fff" stroke="#fff"/>
<g clip-path="url(#a)">
<g transform="translate(1355 478.8) rotate(-87.646) scale(.08 -.08)">
<use xlink:href="#ac"/>
</g>
</g>
<path d="m1421.4 409.37 3.8246 3.9142q1.6773 1.7166 3.3939 0.039312l5.5378-5.411q1.7166-1.6773 0.039312-3.3939l-3.8246-3.9142q-1.6773-1.7166-3.3939-0.039312l-5.5378 5.411q-1.7166 1.6773-0.039312 3.3939z" clip-path="url(#a)" fill="#fff" stroke="#fff"/>
<g clip-path="url(#a)">
<g transform="translate(1424.3 406.53) rotate(45.664) scale(.08 -.08)">
<use xlink:href="#w"/>
</g>
</g>
<path d="m1214.2 689.16 1.6126-4.7909q0.76561-2.2746-1.509-3.0402l-7.338-2.4699q-2.2746-0.76561-3.0402 1.509l-1.6126 4.7909q-0.76561 2.2746 1.509 3.0402l7.338 2.4699q2.2746 0.76561 3.0402-1.509z" clip-path="url(#a)" fill="#fff" stroke="#fff"/>
<g clip-path="url(#a)">
<defs>
<path id="o" d="m9.8125 72.906h46.094v-8.3125h-36.234v-21.578h34.719v-8.2969h-34.719v-26.422h37.109v-8.2969h-46.969z"/>
</defs>
<g transform="translate(1210.3 687.87) rotate(-71.397) scale(.08 -.08)">
<use xlink:href="#o"/>
</g>
</g>
<path d="m1225.8 682.24v5.055q0 2.4 2.4 2.4h7.7425q2.4 0 2.4-2.4v-5.055q0-2.4-2.4-2.4h-7.7425q-2.4 0-2.4 2.4z" clip-path="url(#a)" fill="#fff" stroke="#fff"/>
<g clip-path="url(#a)">
<g transform="translate(1229.8 682.24) rotate(90) scale(.08 -.08)">
<use xlink:href="#o"/>
</g>
</g>
<path d="m1248.2 684.12 1.782 5.2944q0.76561 2.2746 3.0402 1.509l7.338-2.4699q2.2746-0.76561 1.509-3.0402l-1.782-5.2944q-0.76561-2.2746-3.0402-1.509l-7.338 2.4699q-2.2746 0.76561-1.509 3.0402z" clip-path="url(#a)" fill="#fff" stroke="#fff"/>
<g clip-path="url(#a)">
<defs>
<path id="r" d="m64.406 67.281v-10.391q-4.9844 4.6406-10.625 6.9219-5.6406 2.2969-11.984 2.2969-12.5 0-19.141-7.6406t-6.6406-22.094q0-14.406 6.6406-22.047t19.141-7.6406q6.3438 0 11.984 2.2969t10.625 6.9375v-10.312q-5.1719-3.5156-10.969-5.2812-5.7812-1.75-12.219-1.75-16.562 0-26.094 10.125-9.5156 10.141-9.5156 27.672 0 17.578 9.5156 27.703 9.5312 10.141 26.094 10.141 6.5312 0 12.312-1.7344 5.7969-1.7344 10.875-5.2031z"/>
</defs>
<g transform="translate(1252.1 682.83) rotate(71.397) scale(.08 -.08)">
<use xlink:href="#r"/>
</g>
</g>
<path d="m1341.5 688.08 0.76363-4.5374q0.39831-2.3667-1.9684-2.765l-7.6351-1.285q-2.3667-0.39831-2.765 1.9684l-0.76363 4.5374q-0.39831 2.3667 1.9684 2.765l7.6351 1.285q2.3667 0.39831 2.765-1.9684z" clip-path="url(#a)" fill="#fff" stroke="#fff"/>
<g clip-path="url(#a)">
<defs>
<path id="ao" d="m9.8125 72.906h41.891v-8.3125h-32.031v-21.484h28.906v-8.2969h-28.906v-34.812h-9.8594z"/>
</defs>
<g transform="translate(1337.5 687.4) rotate(-80.447) scale(.08 -.08)">
<use xlink:href="#ao"/>
</g>
</g>
<path d="m1352 683.06 0.9271 5.5088q0.39831 2.3667 2.765 1.9684l7.6351-1.285q2.3667-0.39831 1.9684-2.765l-0.9271-5.5088q-0.39831-2.3667-2.765-1.9684l-7.6351 1.285q-2.3667 0.39831-1.9684 2.765z" clip-path="url(#a)" fill="#fff" stroke="#fff"/>
<g clip-path="url(#a)">
<g transform="translate(1356.1 682.38) rotate(80.447) scale(.08 -.08)">
<use xlink:href="#r"/>
</g>
</g>
<path d="m1461.8 619.84 1.5605-5.3352q0.67373-2.3035-1.6298-2.9772l-7.4312-2.1735q-2.3035-0.67373-2.9772 1.6298l-1.5605 5.3352q-0.67373 2.3035 1.6298 2.9772l7.4312 2.1735q2.3035 0.67373 2.9772-1.6298z" clip-path="url(#a)" fill="#fff" stroke="#fff"/>
<g clip-path="url(#a)">
<defs>
<path id="x" d="m44.391 34.188q3.1719-1.0781 6.1719-4.5938t6.0312-9.6719l10.016-19.922h-10.609l-9.3125 18.703q-3.625 7.3281-7.0156 9.7188t-9.25 2.3906h-10.75v-30.812h-9.8594v72.906h22.266q12.5 0 18.656-5.2344 6.1562-5.2188 6.1562-15.766 0-6.8906-3.2031-11.438-3.2031-4.5312-9.2969-6.2812zm-24.719 30.609v-25.875h12.406q7.125 0 10.766 3.2969t3.6406 9.6875-3.6406 9.6406-10.766 3.25z"/>
</defs>
<g transform="translate(1457.9 618.7) rotate(-73.697) scale(.08 -.08)">
<use xlink:href="#x"/>
</g>
</g>
<path d="m1485.5 618.7 0.62872-5.0157q0.2985-2.3814-2.0829-2.6799l-7.6824-0.96298q-2.3814-0.2985-2.6799 2.0829l-0.62872 5.0157q-0.2985 2.3814 2.0829 2.6799l7.6824 0.96298q2.3814 0.2985 2.6799-2.0829z" clip-path="url(#a)" fill="#fff" stroke="#fff"/>
<g clip-path="url(#a)">
<g transform="translate(1481.5 618.19) rotate(-82.855) scale(.08 -.08)">
<use xlink:href="#o"/>
</g>
</g>
<path d="m1496.2 612.88 0.23321 5.5814q0.10019 2.3979 2.4981 2.2977l7.7358-0.32322q2.3979-0.10019 2.2977-2.4981l-0.23321-5.5814q-0.10019-2.3979-2.4981-2.2977l-7.7358 0.32322q-2.3979 0.10019-2.2977 2.4981z" clip-path="url(#a)" fill="#fff" stroke="#fff"/>
<g clip-path="url(#a)">
<g transform="translate(1500.3 612.71) rotate(87.607) scale(.08 -.08)">
<use xlink:href="#r"/>
</g>
</g>
<path d="m1542.1 548.73 3.0251 4.05q1.4362 1.9228 3.359 0.4866l6.2031-4.6333q1.9228-1.4362 0.4866-3.3591l-3.025-4.0499q-1.4362-1.9228-3.3591-0.4866l-6.2031 4.6333q-1.9228 1.4362-0.4866 3.3591z" clip-path="url(#a)" fill="#fff" stroke="#fff"/>
<g clip-path="url(#a)">
<g transform="translate(1545.4 546.3) rotate(53.243) scale(.08 -.08)">
<use xlink:href="#o"/>
</g>
</g>
<path d="m1410 803.94v35.285q0 2.4 2.4 2.4h7.7425q2.4 0 2.4-2.4v-35.285q0-2.4-2.4-2.4h-7.7425q-2.4 0-2.4 2.4z" clip-path="url(#a)" fill="#fff" stroke="#fff"/>
<g clip-path="url(#a)">
<g transform="translate(1414 803.94) rotate(90) scale(.08 -.08)">
<use xlink:href="#l"/>
<use x="60.818359" xlink:href="#d"/>
<use x="122.341797" xlink:href="#h"/>
<use x="163.439453" xlink:href="#k"/>
<use x="260.851562" xlink:href="#j"/>
<use x="288.634766" xlink:href="#f"/>
<use x="352.013672" xlink:href="#g"/>
<use x="413.292969" xlink:href="#i"/>
</g>
</g>
<path d="m1456 803.94v35.285q0 2.4 2.4 2.4h7.7425q2.4 0 2.4-2.4v-35.285q0-2.4-2.4-2.4h-7.7425q-2.4 0-2.4 2.4z" clip-path="url(#a)" fill="#fff" stroke="#fff"/>
<g clip-path="url(#a)">
<g transform="translate(1460.1 803.94) rotate(90) scale(.08 -.08)">
<use xlink:href="#l"/>
<use x="60.818359" xlink:href="#d"/>
<use x="122.341797" xlink:href="#h"/>
<use x="163.439453" xlink:href="#k"/>
<use x="260.851562" xlink:href="#j"/>
<use x="288.634766" xlink:href="#f"/>
<use x="352.013672" xlink:href="#g"/>
<use x="413.292969" xlink:href="#i"/>
</g>
</g>
<path d="m1502.1 803.94v35.285q0 2.4 2.4 2.4h7.7425q2.4 0 2.4-2.4v-35.285q0-2.4-2.4-2.4h-7.7425q-2.4 0-2.4 2.4z" clip-path="url(#a)" fill="#fff" stroke="#fff"/>
<g clip-path="url(#a)">
<g transform="translate(1506.2 803.94) rotate(90) scale(.08 -.08)">
<use xlink:href="#l"/>
<use x="60.818359" xlink:href="#d"/>
<use x="122.341797" xlink:href="#h"/>
<use x="163.439453" xlink:href="#k"/>
<use x="260.851562" xlink:href="#j"/>
<use x="288.634766" xlink:href="#f"/>
<use x="352.013672" xlink:href="#g"/>
<use x="413.292969" xlink:href="#i"/>
</g>
</g>
<path d="m1582.5 689.4 1.7733-5.2683q0.76561-2.2746-1.509-3.0402l-7.338-2.4699q-2.2746-0.76561-3.0402 1.509l-1.7733 5.2683q-0.76561 2.2746 1.509 3.0402l7.338 2.4699q2.2746 0.76561 3.0402-1.509z" clip-path="url(#a)" fill="#fff" stroke="#fff"/>
<g clip-path="url(#a)">
<g transform="translate(1578.6 688.11) rotate(-71.397) scale(.08 -.08)">
<use xlink:href="#x"/>
</g>
</g>
<path d="m1594.2 681.98v5.5862q0 2.4 2.4 2.4h7.7425q2.4 0 2.4-2.4v-5.5862q0-2.4-2.4-2.4h-7.7425q-2.4 0-2.4 2.4z" clip-path="url(#a)" fill="#fff" stroke="#fff"/>
<g clip-path="url(#a)">
<g transform="translate(1598.3 681.98) rotate(90) scale(.08 -.08)">
<use xlink:href="#r"/>
</g>
</g>
<path d="m1616.6 683.99 1.8678 5.5491q0.76561 2.2746 3.0402 1.509l7.338-2.4699q2.2746-0.76561 1.509-3.0402l-1.8678-5.5491q-0.76561-2.2746-3.0402-1.509l-7.338 2.4699q-2.2746 0.76561-1.509 3.0402z" clip-path="url(#a)" fill="#fff" stroke="#fff"/>
<g clip-path="url(#a)">
<g transform="translate(1620.5 682.7) rotate(71.397) scale(.08 -.08)">
<use xlink:href="#ah"/>
</g>
</g>
<path d="m1548.1 803.94v35.285q0 2.4 2.4 2.4h7.7425q2.4 0 2.4-2.4v-35.285q0-2.4-2.4-2.4h-7.7425q-2.4 0-2.4 2.4z" clip-path="url(#a)" fill="#fff" stroke="#fff"/>
<g clip-path="url(#a)">
<g transform="translate(1552.2 803.94) rotate(90) scale(.08 -.08)">
<use xlink:href="#l"/>
<use x="60.818359" xlink:href="#d"/>
<use x="122.341797" xlink:href="#h"/>
<use x="163.439453" xlink:href="#k"/>
<use x="260.851562" xlink:href="#j"/>
<use x="288.634766" xlink:href="#f"/>
<use x="352.013672" xlink:href="#g"/>
<use x="413.292969" xlink:href="#i"/>
</g>
</g>
<path d="m1594.2 803.94v35.285q0 2.4 2.4 2.4h7.7425q2.4 0 2.4-2.4v-35.285q0-2.4-2.4-2.4h-7.7425q-2.4 0-2.4 2.4z" clip-path="url(#a)" fill="#fff" stroke="#fff"/>
<g clip-path="url(#a)">
<g transform="translate(1598.3 803.94) rotate(90) scale(.08 -.08)">
<use xlink:href="#l"/>
<use x="60.818359" xlink:href="#d"/>
<use x="122.341797" xlink:href="#h"/>
<use x="163.439453" xlink:href="#k"/>
<use x="260.851562" xlink:href="#j"/>
<use x="288.634766" xlink:href="#f"/>
<use x="352.013672" xlink:href="#g"/>
<use x="413.292969" xlink:href="#i"/>
</g>
</g>
<path d="m1317.9 803.94v35.285q0 2.4 2.4 2.4h7.7425q2.4 0 2.4-2.4v-35.285q0-2.4-2.4-2.4h-7.7425q-2.4 0-2.4 2.4z" clip-path="url(#a)" fill="#fff" stroke="#fff"/>
<g clip-path="url(#a)">
<g transform="translate(1321.9 803.94) rotate(90) scale(.08 -.08)">
<use xlink:href="#l"/>
<use x="60.818359" xlink:href="#d"/>
<use x="122.341797" xlink:href="#h"/>
<use x="163.439453" xlink:href="#k"/>
<use x="260.851562" xlink:href="#j"/>
<use x="288.634766" xlink:href="#f"/>
<use x="352.013672" xlink:href="#g"/>
<use x="413.292969" xlink:href="#i"/>
</g>
</g>
<path d="m1363.9 803.94v35.285q0 2.4 2.4 2.4h7.7425q2.4 0 2.4-2.4v-35.285q0-2.4-2.4-2.4h-7.7425q-2.4 0-2.4 2.4z" clip-path="url(#a)" fill="#fff" stroke="#fff"/>
<g clip-path="url(#a)">
<g transform="translate(1368 803.94) rotate(90) scale(.08 -.08)">
<use xlink:href="#l"/>
<use x="60.818359" xlink:href="#d"/>
<use x="122.341797" xlink:href="#h"/>
<use x="163.439453" xlink:href="#k"/>
<use x="260.851562" xlink:href="#j"/>
<use x="288.634766" xlink:href="#f"/>
<use x="352.013672" xlink:href="#g"/>
<use x="413.292969" xlink:href="#i"/>
</g>
</g>
<path d="m1179.7 803.94v35.285q0 2.4 2.4 2.4h7.7425q2.4 0 2.4-2.4v-35.285q0-2.4-2.4-2.4h-7.7425q-2.4 0-2.4 2.4z" clip-path="url(#a)" fill="#fff" stroke="#fff"/>
<g clip-path="url(#a)">
<g transform="translate(1183.8 803.94) rotate(90) scale(.08 -.08)">
<use xlink:href="#l"/>
<use x="60.818359" xlink:href="#d"/>
<use x="122.341797" xlink:href="#h"/>
<use x="163.439453" xlink:href="#k"/>
<use x="260.851562" xlink:href="#j"/>
<use x="288.634766" xlink:href="#f"/>
<use x="352.013672" xlink:href="#g"/>
<use x="413.292969" xlink:href="#i"/>
</g>
</g>
<path d="m1225.8 803.94v35.285q0 2.4 2.4 2.4h7.7425q2.4 0 2.4-2.4v-35.285q0-2.4-2.4-2.4h-7.7425q-2.4 0-2.4 2.4z" clip-path="url(#a)" fill="#fff" stroke="#fff"/>
<g clip-path="url(#a)">
<g transform="translate(1229.8 803.94) rotate(90) scale(.08 -.08)">
<use xlink:href="#l"/>
<use x="60.818359" xlink:href="#d"/>
<use x="122.341797" xlink:href="#h"/>
<use x="163.439453" xlink:href="#k"/>
<use x="260.851562" xlink:href="#j"/>
<use x="288.634766" xlink:href="#f"/>
<use x="352.013672" xlink:href="#g"/>
<use x="413.292969" xlink:href="#i"/>
</g>
</g>
<path d="m1271.8 803.94v35.285q0 2.4 2.4 2.4h7.7425q2.4 0 2.4-2.4v-35.285q0-2.4-2.4-2.4h-7.7425q-2.4 0-2.4 2.4z" clip-path="url(#a)" fill="#fff" stroke="#fff"/>
<g clip-path="url(#a)">
<g transform="translate(1275.9 803.94) rotate(90) scale(.08 -.08)">
<use xlink:href="#l"/>
<use x="60.818359" xlink:href="#d"/>
<use x="122.341797" xlink:href="#h"/>
<use x="163.439453" xlink:href="#k"/>
<use x="260.851562" xlink:href="#j"/>
<use x="288.634766" xlink:href="#f"/>
<use x="352.013672" xlink:href="#g"/>
<use x="413.292969" xlink:href="#i"/>
</g>
</g>
<path d="m811.32 803.94v35.285q0 2.4 2.4 2.4h7.7425q2.4 0 2.4-2.4v-35.285q0-2.4-2.4-2.4h-7.7425q-2.4 0-2.4 2.4z" clip-path="url(#a)" fill="#fff" stroke="#fff"/>
<g clip-path="url(#a)">
<g transform="translate(815.38 803.94) rotate(90) scale(.08 -.08)">
<use xlink:href="#l"/>
<use x="60.818359" xlink:href="#d"/>
<use x="122.341797" xlink:href="#h"/>
<use x="163.439453" xlink:href="#k"/>
<use x="260.851562" xlink:href="#j"/>
<use x="288.634766" xlink:href="#f"/>
<use x="352.013672" xlink:href="#g"/>
<use x="413.292969" xlink:href="#i"/>
</g>
</g>
<path d="m886.98 840.31 11.256-33.441q0.76561-2.2746-1.509-3.0402l-7.338-2.4699q-2.2746-0.76561-3.0402 1.509l-11.256 33.441q-0.76561 2.2746 1.509 3.0402l7.338 2.4699q2.2746 0.76561 3.0402-1.509z" clip-path="url(#a)" fill="#fff" stroke="#fff"/>
<g clip-path="url(#a)">
<g transform="translate(883.13 839.01) rotate(-71.397) scale(.08 -.08)">
<use xlink:href="#l"/>
<use x="60.818359" xlink:href="#d"/>
<use x="122.341797" xlink:href="#h"/>
<use x="163.439453" xlink:href="#k"/>
<use x="260.851562" xlink:href="#j"/>
<use x="288.634766" xlink:href="#f"/>
<use x="352.013672" xlink:href="#g"/>
<use x="413.292969" xlink:href="#i"/>
</g>
</g>
<path d="m921.15 806.87 11.256 33.441q0.76561 2.2746 3.0402 1.509l7.338-2.4699q2.2746-0.76561 1.509-3.0402l-11.256-33.441q-0.76561-2.2746-3.0402-1.509l-7.338 2.4699q-2.2746 0.76561-1.509 3.0402z" clip-path="url(#a)" fill="#fff" stroke="#fff"/>
<g clip-path="url(#a)">
<g transform="translate(925 805.57) rotate(71.397) scale(.08 -.08)">
<use xlink:href="#l"/>
<use x="60.818359" xlink:href="#d"/>
<use x="122.341797" xlink:href="#h"/>
<use x="163.439453" xlink:href="#k"/>
<use x="260.851562" xlink:href="#j"/>
<use x="288.634766" xlink:href="#f"/>
<use x="352.013672" xlink:href="#g"/>
<use x="413.292969" xlink:href="#i"/>
</g>
</g>
<path d="m952.3 690.04 2.4732-4.4087q1.1742-2.0931-0.91892-3.2674l-6.7525-3.7881q-2.0931-1.1742-3.2674 0.91892l-2.4732 4.4087q-1.1742 2.0931 0.91892 3.2674l6.7525 3.7881q2.0931 1.1742 3.2674-0.91892z" clip-path="url(#a)" fill="#fff" stroke="#fff"/>
<g clip-path="url(#a)">
<g transform="translate(948.76 688.05) rotate(-60.708) scale(.08 -.08)">
<use xlink:href="#o"/>
</g>
</g>
<path d="m987.61 682.96 0.56362 5.0235q0.26759 2.385 2.6526 2.1174l7.6942-0.86326q2.385-0.26759 2.1174-2.6526l-0.56362-5.0235q-0.26759-2.385-2.6526-2.1174l-7.6942 0.86326q-2.385 0.26759-2.1174 2.6526z" clip-path="url(#a)" fill="#fff" stroke="#fff"/>
<g clip-path="url(#a)">
<g transform="translate(991.64 682.5) rotate(83.598) scale(.08 -.08)">
<use xlink:href="#o"/>
</g>
</g>
<path d="m1010.3 684.79 2.2873 5.0965q0.98266 2.1896 3.1723 1.2069l7.0638-3.1701q2.1896-0.98266 1.2069-3.1723l-2.2873-5.0965q-0.98266-2.1896-3.1723-1.2069l-7.0638 3.1701q-2.1896 0.98266-1.2069 3.1723z" clip-path="url(#a)" fill="#fff" stroke="#fff"/>
<g clip-path="url(#a)">
<g transform="translate(1014 683.12) rotate(65.83) scale(.08 -.08)">
<use xlink:href="#r"/>
</g>
</g>
<path d="m903.42 803.94v35.285q0 2.4 2.4 2.4h7.7425q2.4 0 2.4-2.4v-35.285q0-2.4-2.4-2.4h-7.7425q-2.4 0-2.4 2.4z" clip-path="url(#a)" fill="#fff" stroke="#fff"/>
<g clip-path="url(#a)">
<g transform="translate(907.48 803.94) rotate(90) scale(.08 -.08)">
<use xlink:href="#l"/>
<use x="60.818359" xlink:href="#d"/>
<use x="122.341797" xlink:href="#h"/>
<use x="163.439453" xlink:href="#k"/>
<use x="260.851562" xlink:href="#j"/>
<use x="288.634766" xlink:href="#f"/>
<use x="352.013672" xlink:href="#g"/>
<use x="413.292969" xlink:href="#i"/>
</g>
</g>
<path d="m995.52 803.94v35.285q0 2.4 2.4 2.4h7.7425q2.4 0 2.4-2.4v-35.285q0-2.4-2.4-2.4h-7.7425q-2.4 0-2.4 2.4z" clip-path="url(#a)" fill="#fff" stroke="#fff"/>
<g clip-path="url(#a)">
<g transform="translate(999.59 803.94) rotate(90) scale(.08 -.08)">
<use xlink:href="#l"/>
<use x="60.818359" xlink:href="#d"/>
<use x="122.341797" xlink:href="#h"/>
<use x="163.439453" xlink:href="#k"/>
<use x="260.851562" xlink:href="#j"/>
<use x="288.634766" xlink:href="#f"/>
<use x="352.013672" xlink:href="#g"/>
<use x="413.292969" xlink:href="#i"/>
</g>
</g>
<path d="m1041.6 803.94v35.285q0 2.4 2.4 2.4h7.7425q2.4 0 2.4-2.4v-35.285q0-2.4-2.4-2.4h-7.7425q-2.4 0-2.4 2.4z" clip-path="url(#a)" fill="#fff" stroke="#fff"/>
<g clip-path="url(#a)">
<g transform="translate(1045.6 803.94) rotate(90) scale(.08 -.08)">
<use xlink:href="#l"/>
<use x="60.818359" xlink:href="#d"/>
<use x="122.341797" xlink:href="#h"/>
<use x="163.439453" xlink:href="#k"/>
<use x="260.851562" xlink:href="#j"/>
<use x="288.634766" xlink:href="#f"/>
<use x="352.013672" xlink:href="#g"/>
<use x="413.292969" xlink:href="#i"/>
</g>
</g>
<path d="m139.12 548.95 1.3687-5.3876q0.59093-2.3261-1.7352-2.917l-7.5041-1.9064q-2.3261-0.59093-2.917 1.7352l-1.3687 5.3876q-0.59093 2.3261 1.7352 2.917l7.5041 1.9064q2.3261 0.59093 2.917-1.7352z" clip-path="url(#a)" fill="#fff" stroke="#fff"/>
<g clip-path="url(#a)">
<g transform="translate(135.18 547.95) rotate(-75.746) scale(.08 -.08)">
<use xlink:href="#x"/>
</g>
</g>
<path d="m162.6 548.11 0.71848-5.0037q0.34112-2.3756-2.0345-2.7168l-7.6639-1.1005q-2.3756-0.34112-2.7168 2.0345l-0.71848 5.0037q-0.34112 2.3756 2.0345 2.7168l7.6639 1.1005q2.3756 0.34112 2.7168-2.0345z" clip-path="url(#a)" fill="#fff" stroke="#fff"/>
<g clip-path="url(#a)">
<g transform="translate(158.58 547.53) rotate(-81.829) scale(.08 -.08)">
<use xlink:href="#o"/>
</g>
</g>
<path d="m185.96 547.45 0.16741-5.0522q0.079482-2.3987-2.3192-2.4782l-7.7383-0.25641q-2.3987-0.079483-2.4782 2.3192l-0.16741 5.0522q-0.079483 2.3987 2.3192 2.4782l7.7383 0.25641q2.3987 0.079483 2.4782-2.3192z" clip-path="url(#a)" fill="#fff" stroke="#fff"/>
<g clip-path="url(#a)">
<g transform="translate(181.9 547.31) rotate(-88.102) scale(.08 -.08)">
<use xlink:href="#o"/>
</g>
</g>
<path d="m196.34 542.41 0.43063 5.5696q0.18501 2.3929 2.5779 2.2078l7.7195-0.59685q2.3929-0.18501 2.2078-2.5779l-0.43063-5.5696q-0.18501-2.3929-2.5779-2.2078l-7.7195 0.59685q-2.3929 0.18501-2.2078 2.5779z" clip-path="url(#a)" fill="#fff" stroke="#fff"/>
<g clip-path="url(#a)">
<g transform="translate(200.39 542.1) rotate(85.579) scale(.08 -.08)">
<use xlink:href="#r"/>
</g>
</g>
<path d="m254.2 409.72 3.6476 3.4997q1.7318 1.6616 3.3934-0.070184l5.3604-5.5868q1.6616-1.7318-0.070184-3.3934l-3.6476-3.4997q-1.7318-1.6616-3.3934 0.070184l-5.3604 5.5868q-1.6616 1.7318 0.070184 3.3934z" clip-path="url(#a)" fill="#fff" stroke="#fff"/>
<g clip-path="url(#a)">
<g transform="translate(257.02 406.79) rotate(43.815) scale(.08 -.08)">
<use xlink:href="#o"/>
</g>
</g>
<path d="m512.51 688.3 0.83893-4.9849q0.39831-2.3667-1.9684-2.765l-7.6351-1.285q-2.3667-0.39831-2.765 1.9684l-0.83893 4.9849q-0.3983 2.3667 1.9684 2.765l7.6351 1.285q2.3667 0.39831 2.765-1.9684z" clip-path="url(#a)" fill="#fff" stroke="#fff"/>
<g clip-path="url(#a)">
<g transform="translate(508.5 687.63) rotate(-80.447) scale(.08 -.08)">
<use xlink:href="#o"/>
</g>
</g>
<path d="m523.12 683.06 0.9271 5.5088q0.39831 2.3667 2.765 1.9684l7.6351-1.285q2.3667-0.39831 1.9684-2.765l-0.9271-5.5088q-0.39831-2.3667-2.765-1.9684l-7.6351 1.285q-2.3667 0.39831-1.9684 2.765z" clip-path="url(#a)" fill="#fff" stroke="#fff"/>
<g clip-path="url(#a)">
<g transform="translate(527.13 682.38) rotate(80.447) scale(.08 -.08)">
<use xlink:href="#r"/>
</g>
</g>
<path d="m615.5 689.16 1.6126-4.7909q0.76561-2.2746-1.509-3.0402l-7.338-2.4699q-2.2746-0.76561-3.0402 1.509l-1.6126 4.7909q-0.76561 2.2746 1.509 3.0402l7.338 2.4699q2.2746 0.76561 3.0402-1.509z" clip-path="url(#a)" fill="#fff" stroke="#fff"/>
<g clip-path="url(#a)">
<g transform="translate(611.64 687.87) rotate(-71.397) scale(.08 -.08)">
<use xlink:href="#o"/>
</g>
</g>
<path d="m627.11 682.47v4.6012q0 2.4 2.4 2.4h7.7425q2.4 0 2.4-2.4v-4.6012q0-2.4-2.4-2.4h-7.7425q-2.4 0-2.4 2.4z" clip-path="url(#a)" fill="#fff" stroke="#fff"/>
<g clip-path="url(#a)">
<g transform="translate(631.18 682.47) rotate(90) scale(.08 -.08)">
<use xlink:href="#ao"/>
</g>
</g>
<path d="m649.58 684.12 1.782 5.2944q0.76561 2.2746 3.0402 1.509l7.338-2.4699q2.2746-0.76561 1.509-3.0402l-1.782-5.2944q-0.76561-2.2746-3.0402-1.509l-7.338 2.4699q-2.2746 0.76561-1.509 3.0402z" clip-path="url(#a)" fill="#fff" stroke="#fff"/>
<g clip-path="url(#a)">
<g transform="translate(653.43 682.83) rotate(71.397) scale(.08 -.08)">
<use xlink:href="#r"/>
</g>
</g>
<path d="m581.06 803.94v35.285q0 2.4 2.4 2.4h7.7425q2.4 0 2.4-2.4v-35.285q0-2.4-2.4-2.4h-7.7425q-2.4 0-2.4 2.4z" clip-path="url(#a)" fill="#fff" stroke="#fff"/>
<g clip-path="url(#a)">
<g transform="translate(585.13 803.94) rotate(90) scale(.08 -.08)">
<use xlink:href="#l"/>
<use x="60.818359" xlink:href="#d"/>
<use x="122.341797" xlink:href="#h"/>
<use x="163.439453" xlink:href="#k"/>
<use x="260.851562" xlink:href="#j"/>
<use x="288.634766" xlink:href="#f"/>
<use x="352.013672" xlink:href="#g"/>
<use x="413.292969" xlink:href="#i"/>
</g>
</g>
<path d="m627.11 803.94v35.285q0 2.4 2.4 2.4h7.7425q2.4 0 2.4-2.4v-35.285q0-2.4-2.4-2.4h-7.7425q-2.4 0-2.4 2.4z" clip-path="url(#a)" fill="#fff" stroke="#fff"/>
<g clip-path="url(#a)">
<g transform="translate(631.18 803.94) rotate(90) scale(.08 -.08)">
<use xlink:href="#l"/>
<use x="60.818359" xlink:href="#d"/>
<use x="122.341797" xlink:href="#h"/>
<use x="163.439453" xlink:href="#k"/>
<use x="260.851562" xlink:href="#j"/>
<use x="288.634766" xlink:href="#f"/>
<use x="352.013672" xlink:href="#g"/>
<use x="413.292969" xlink:href="#i"/>
</g>
</g>
<path d="m673.16 803.94v35.285q0 2.4 2.4 2.4h7.7425q2.4 0 2.4-2.4v-35.285q0-2.4-2.4-2.4h-7.7425q-2.4 0-2.4 2.4z" clip-path="url(#a)" fill="#fff" stroke="#fff"/>
<g clip-path="url(#a)">
<g transform="translate(677.23 803.94) rotate(90) scale(.08 -.08)">
<use xlink:href="#l"/>
<use x="60.818359" xlink:href="#d"/>
<use x="122.341797" xlink:href="#h"/>
<use x="163.439453" xlink:href="#k"/>
<use x="260.851562" xlink:href="#j"/>
<use x="288.634766" xlink:href="#f"/>
<use x="352.013672" xlink:href="#g"/>
<use x="413.292969" xlink:href="#i"/>
</g>
</g>
<path d="m488.96 803.94v35.285q0 2.4 2.4 2.4h7.7425q2.4 0 2.4-2.4v-35.285q0-2.4-2.4-2.4h-7.7425q-2.4 0-2.4 2.4z" clip-path="url(#a)" fill="#fff" stroke="#fff"/>
<g clip-path="url(#a)">
<g transform="translate(493.02 803.94) rotate(90) scale(.08 -.08)">
<use xlink:href="#l"/>
<use x="60.818359" xlink:href="#d"/>
<use x="122.341797" xlink:href="#h"/>
<use x="163.439453" xlink:href="#k"/>
<use x="260.851562" xlink:href="#j"/>
<use x="288.634766" xlink:href="#f"/>
<use x="352.013672" xlink:href="#g"/>
<use x="413.292969" xlink:href="#i"/>
</g>
</g>
<path d="m535.01 803.94v35.285q0 2.4 2.4 2.4h7.7425q2.4 0 2.4-2.4v-35.285q0-2.4-2.4-2.4h-7.7425q-2.4 0-2.4 2.4z" clip-path="url(#a)" fill="#fff" stroke="#fff"/>
<g clip-path="url(#a)">
<g transform="translate(539.07 803.94) rotate(90) scale(.08 -.08)">
<use xlink:href="#l"/>
<use x="60.818359" xlink:href="#d"/>
<use x="122.341797" xlink:href="#h"/>
<use x="163.439453" xlink:href="#k"/>
<use x="260.851562" xlink:href="#j"/>
<use x="288.634766" xlink:href="#f"/>
<use x="352.013672" xlink:href="#g"/>
<use x="413.292969" xlink:href="#i"/>
</g>
</g>
<path d="m74.497 803.94v35.285q0 2.4 2.4 2.4h7.7425q2.4 0 2.4-2.4v-35.285q0-2.4-2.4-2.4h-7.7425q-2.4 0-2.4 2.4z" clip-path="url(#a)" fill="#fff" stroke="#fff"/>
<g clip-path="url(#a)">
<g transform="translate(78.56 803.94) rotate(90) scale(.08 -.08)">
<use xlink:href="#l"/>
<use x="60.818359" xlink:href="#d"/>
<use x="122.341797" xlink:href="#h"/>
<use x="163.439453" xlink:href="#k"/>
<use x="260.851562" xlink:href="#j"/>
<use x="288.634766" xlink:href="#f"/>
<use x="352.013672" xlink:href="#g"/>
<use x="413.292969" xlink:href="#i"/>
</g>
</g>
<path d="m120.55 803.94v35.285q0 2.4 2.4 2.4h7.7425q2.4 0 2.4-2.4v-35.285q0-2.4-2.4-2.4h-7.7425q-2.4 0-2.4 2.4z" clip-path="url(#a)" fill="#fff" stroke="#fff"/>
<g clip-path="url(#a)">
<g transform="translate(124.61 803.94) rotate(90) scale(.08 -.08)">
<use xlink:href="#l"/>
<use x="60.818359" xlink:href="#d"/>
<use x="122.341797" xlink:href="#h"/>
<use x="163.439453" xlink:href="#k"/>
<use x="260.851562" xlink:href="#j"/>
<use x="288.634766" xlink:href="#f"/>
<use x="352.013672" xlink:href="#g"/>
<use x="413.292969" xlink:href="#i"/>
</g>
</g>
<path d="m166.6 803.94v35.285q0 2.4 2.4 2.4h7.7425q2.4 0 2.4-2.4v-35.285q0-2.4-2.4-2.4h-7.7425q-2.4 0-2.4 2.4z" clip-path="url(#a)" fill="#fff" stroke="#fff"/>
<g clip-path="url(#a)">
<g transform="translate(170.66 803.94) rotate(90) scale(.08 -.08)">
<use xlink:href="#l"/>
<use x="60.818359" xlink:href="#d"/>
<use x="122.341797" xlink:href="#h"/>
<use x="163.439453" xlink:href="#k"/>
<use x="260.851562" xlink:href="#j"/>
<use x="288.634766" xlink:href="#f"/>
<use x="352.013672" xlink:href="#g"/>
<use x="413.292969" xlink:href="#i"/>
</g>
</g>
<path d="m212.65 803.94v35.285q0 2.4 2.4 2.4h7.7425q2.4 0 2.4-2.4v-35.285q0-2.4-2.4-2.4h-7.7425q-2.4 0-2.4 2.4z" clip-path="url(#a)" fill="#fff" stroke="#fff"/>
<g clip-path="url(#a)">
<g transform="translate(216.71 803.94) rotate(90) scale(.08 -.08)">
<use xlink:href="#l"/>
<use x="60.818359" xlink:href="#d"/>
<use x="122.341797" xlink:href="#h"/>
<use x="163.439453" xlink:href="#k"/>
<use x="260.851562" xlink:href="#j"/>
<use x="288.634766" xlink:href="#f"/>
<use x="352.013672" xlink:href="#g"/>
<use x="413.292969" xlink:href="#i"/>
</g>
</g>
<path d="m304.92 619.63 1.3517-5.3919q0.58362-2.328-1.7443-2.9116l-7.5101-1.8828q-2.328-0.58362-2.9116 1.7443l-1.3517 5.3919q-0.58362 2.328 1.7443 2.9116l7.5101 1.8828q2.328 0.58362 2.9116-1.7443z" clip-path="url(#a)" fill="#fff" stroke="#fff"/>
<g clip-path="url(#a)">
<g transform="translate(300.98 618.64) rotate(-75.926) scale(.08 -.08)">
<use xlink:href="#x"/>
</g>
</g>
<path d="m327.78 544.47v5.055q0 2.4 2.4 2.4h7.7425q2.4 0 2.4-2.4v-5.055q0-2.4-2.4-2.4h-7.7425q-2.4 0-2.4 2.4z" clip-path="url(#a)" fill="#fff" stroke="#fff"/>
<g clip-path="url(#a)">
<g transform="translate(331.84 544.47) rotate(90) scale(.08 -.08)">
<use xlink:href="#o"/>
</g>
</g>
<path d="m361.83 614.22 1.3584 5.4186q0.58362 2.328 2.9116 1.7443l7.5101-1.8828q2.328-0.58362 1.7443-2.9116l-1.3584-5.4186q-0.58362-2.328-2.9116-1.7443l-7.5101 1.8828q-2.328 0.58362-1.7443 2.9116z" clip-path="url(#a)" fill="#fff" stroke="#fff"/>
<g clip-path="url(#a)">
<g transform="translate(365.77 613.24) rotate(75.926) scale(.08 -.08)">
<use xlink:href="#r"/>
</g>
</g>
<path d="m258.7 803.94v35.285q0 2.4 2.4 2.4h7.7425q2.4 0 2.4-2.4v-35.285q0-2.4-2.4-2.4h-7.7425q-2.4 0-2.4 2.4z" clip-path="url(#a)" fill="#fff" stroke="#fff"/>
<g clip-path="url(#a)">
<g transform="translate(262.77 803.94) rotate(90) scale(.08 -.08)">
<use xlink:href="#l"/>
<use x="60.818359" xlink:href="#d"/>
<use x="122.341797" xlink:href="#h"/>
<use x="163.439453" xlink:href="#k"/>
<use x="260.851562" xlink:href="#j"/>
<use x="288.634766" xlink:href="#f"/>
<use x="352.013672" xlink:href="#g"/>
<use x="413.292969" xlink:href="#i"/>
</g>
</g>
<path d="m328.3 688.3 0.83893-4.9849q0.39831-2.3667-1.9684-2.765l-7.6351-1.285q-2.3667-0.39831-2.765 1.9684l-0.83893 4.9849q-0.39831 2.3667 1.9684 2.765l7.6351 1.285q2.3667 0.39831 2.765-1.9684z" clip-path="url(#a)" fill="#fff" stroke="#fff"/>
<g clip-path="url(#a)">
<g transform="translate(324.3 687.63) rotate(-80.447) scale(.08 -.08)">
<use xlink:href="#o"/>
</g>
</g>
<path d="m338.92 683.06 0.9271 5.5088q0.39831 2.3667 2.765 1.9684l7.6351-1.285q2.3667-0.39831 1.9684-2.765l-0.9271-5.5088q-0.39831-2.3667-2.765-1.9684l-7.6351 1.285q-2.3667 0.39831-1.9684 2.765z" clip-path="url(#a)" fill="#fff" stroke="#fff"/>
<g clip-path="url(#a)">
<g transform="translate(342.92 682.38) rotate(80.447) scale(.08 -.08)">
<use xlink:href="#r"/>
</g>
</g>
<path d="m396.86 803.94v35.285q0 2.4 2.4 2.4h7.7425q2.4 0 2.4-2.4v-35.285q0-2.4-2.4-2.4h-7.7425q-2.4 0-2.4 2.4z" clip-path="url(#a)" fill="#fff" stroke="#fff"/>
<g clip-path="url(#a)">
<g transform="translate(400.92 803.94) rotate(90) scale(.08 -.08)">
<use xlink:href="#l"/>
<use x="60.818359" xlink:href="#d"/>
<use x="122.341797" xlink:href="#h"/>
<use x="163.439453" xlink:href="#k"/>
<use x="260.851562" xlink:href="#j"/>
<use x="288.634766" xlink:href="#f"/>
<use x="352.013672" xlink:href="#g"/>
<use x="413.292969" xlink:href="#i"/>
</g>
</g>
<path d="m304.75 803.94v35.285q0 2.4 2.4 2.4h7.7425q2.4 0 2.4-2.4v-35.285q0-2.4-2.4-2.4h-7.7425q-2.4 0-2.4 2.4z" clip-path="url(#a)" fill="#fff" stroke="#fff"/>
<g clip-path="url(#a)">
<g transform="translate(308.82 803.94) rotate(90) scale(.08 -.08)">
<use xlink:href="#l"/>
<use x="60.818359" xlink:href="#d"/>
<use x="122.341797" xlink:href="#h"/>
<use x="163.439453" xlink:href="#k"/>
<use x="260.851562" xlink:href="#j"/>
<use x="288.634766" xlink:href="#f"/>
<use x="352.013672" xlink:href="#g"/>
<use x="413.292969" xlink:href="#i"/>
</g>
</g>
<path d="m350.8 803.94v35.285q0 2.4 2.4 2.4h7.7425q2.4 0 2.4-2.4v-35.285q0-2.4-2.4-2.4h-7.7425q-2.4 0-2.4 2.4z" clip-path="url(#a)" fill="#fff" stroke="#fff"/>
<g clip-path="url(#a)">
<g transform="translate(354.87 803.94) rotate(90) scale(.08 -.08)">
<use xlink:href="#l"/>
<use x="60.818359" xlink:href="#d"/>
<use x="122.341797" xlink:href="#h"/>
<use x="163.439453" xlink:href="#k"/>
<use x="260.851562" xlink:href="#j"/>
<use x="288.634766" xlink:href="#f"/>
<use x="352.013672" xlink:href="#g"/>
<use x="413.292969" xlink:href="#i"/>
</g>
</g>
<path d="m1199.8 478.52 1.9149-9.8315q0.45883-2.3557-1.8969-2.8146l-7.5997-1.4802q-2.3557-0.45883-2.8146 1.8969l-1.9149 9.8315q-0.45883 2.3557 1.8969 2.8146l7.5997 1.4802q2.3557 0.45883 2.8146-1.8969z" clip-path="url(#a)" fill="#fff" stroke="#fff"/>
<g clip-path="url(#a)">
<g transform="translate(1195.8 477.74) rotate(-78.978) scale(.08 -.08)">
<use xlink:href="#v"/>
<use x="55.712891" xlink:href="#x"/>
</g>
</g>
<path d="m1296 263.76 5.9914 7.922q1.4477 1.9142 3.3619 0.46648l6.1753-4.6704q1.9142-1.4477 0.46648-3.3619l-5.9914-7.922q-1.4477-1.9142-3.3619-0.46648l-6.1753 4.6704q-1.9142 1.4477-0.46648 3.3619z" clip-path="url(#a)" fill="#fff" stroke="#fff"/>
<g clip-path="url(#a)">
<g transform="translate(1299.3 261.31) rotate(52.9) scale(.08 -.08)">
<use xlink:href="#v"/>
<use x="55.744141" xlink:href="#w"/>
</g>
</g>
<path d="m745.97 125.05 5.3456-8.3713q1.2917-2.0228-0.73111-3.3144l-6.5255-4.167q-2.0228-1.2917-3.3144 0.73111l-5.3456 8.3713q-1.2917 2.0228 0.73111 3.3144l6.5255 4.167q2.0228 1.2917 3.3144-0.73111z" clip-path="url(#a)" fill="#fff" stroke="#fff"/>
<g clip-path="url(#a)">
<g transform="translate(742.55 122.86) rotate(-57.439) scale(.08 -.08)">
<use xlink:href="#v"/>
<use x="55.744141" xlink:href="#w"/>
</g>
</g>
<path d="m787.26 403.43 0.27042-10.013q0.064794-2.3991-2.3343-2.4639l-7.7397-0.20903q-2.3991-0.064794-2.4639 2.3343l-0.27042 10.013q-0.064795 2.3991 2.3343 2.4639l7.7397 0.20903q2.3991 0.064795 2.4639-2.3343z" clip-path="url(#a)" fill="#fff" stroke="#fff"/>
<g clip-path="url(#a)">
<g transform="translate(783.2 403.32) rotate(-88.453) scale(.08 -.08)">
<use xlink:href="#v"/>
<use x="55.712891" xlink:href="#x"/>
</g>
</g>
<path d="m840.32 257.28 2.519 9.6078q0.60867 2.3215 2.9302 1.7129l7.4894-1.9636q2.3215-0.60867 1.7129-2.9302l-2.519-9.6078q-0.60867-2.3215-2.9302-1.7129l-7.4894 1.9636q-2.3215 0.60867-1.7129 2.9302z" clip-path="url(#a)" fill="#fff" stroke="#fff"/>
<g clip-path="url(#a)">
<g transform="translate(844.25 256.24) rotate(75.309) scale(.08 -.08)">
<use xlink:href="#v"/>
<use x="55.744141" xlink:href="#w"/>
</g>
</g>
<path d="m442.91 803.94v35.285q0 2.4 2.4 2.4h7.7425q2.4 0 2.4-2.4v-35.285q0-2.4-2.4-2.4h-7.7425q-2.4 0-2.4 2.4z" clip-path="url(#a)" fill="#fff" stroke="#fff"/>
<g clip-path="url(#a)">
<g transform="translate(446.97 803.94) rotate(90) scale(.08 -.08)">
<use xlink:href="#l"/>
<use x="60.818359" xlink:href="#d"/>
<use x="122.341797" xlink:href="#h"/>
<use x="163.439453" xlink:href="#k"/>
<use x="260.851562" xlink:href="#j"/>
<use x="288.634766" xlink:href="#f"/>
<use x="352.013672" xlink:href="#g"/>
<use x="413.292969" xlink:href="#i"/>
</g>
</g>
<path d="m719.22 803.94v35.285q0 2.4 2.4 2.4h7.7425q2.4 0 2.4-2.4v-35.285q0-2.4-2.4-2.4h-7.7425q-2.4 0-2.4 2.4z" clip-path="url(#a)" fill="#fff" stroke="#fff"/>
<g clip-path="url(#a)">
<g transform="translate(723.28 803.94) rotate(90) scale(.08 -.08)">
<use xlink:href="#l"/>
<use x="60.818359" xlink:href="#d"/>
<use x="122.341797" xlink:href="#h"/>
<use x="163.439453" xlink:href="#k"/>
<use x="260.851562" xlink:href="#j"/>
<use x="288.634766" xlink:href="#f"/>
<use x="352.013672" xlink:href="#g"/>
<use x="413.292969" xlink:href="#i"/>
</g>
</g>
<path d="m1087.6 803.94v35.285q0 2.4 2.4 2.4h7.7425q2.4 0 2.4-2.4v-35.285q0-2.4-2.4-2.4h-7.7425q-2.4 0-2.4 2.4z" clip-path="url(#a)" fill="#fff" stroke="#fff"/>
<g clip-path="url(#a)">
<g transform="translate(1091.7 803.94) rotate(90) scale(.08 -.08)">
<use xlink:href="#l"/>
<use x="60.818359" xlink:href="#d"/>
<use x="122.341797" xlink:href="#h"/>
<use x="163.439453" xlink:href="#k"/>
<use x="260.851562" xlink:href="#j"/>
<use x="288.634766" xlink:href="#f"/>
<use x="352.013672" xlink:href="#g"/>
<use x="413.292969" xlink:href="#i"/>
</g>
</g>
<path d="m1640.2 803.94v35.285q0 2.4 2.4 2.4h7.7425q2.4 0 2.4-2.4v-35.285q0-2.4-2.4-2.4h-7.7425q-2.4 0-2.4 2.4z" clip-path="url(#a)" fill="#fff" stroke="#fff"/>
<g clip-path="url(#a)">
<g transform="translate(1644.3 803.94) rotate(90) scale(.08 -.08)">
<use xlink:href="#l"/>
<use x="60.818359" xlink:href="#d"/>
<use x="122.341797" xlink:href="#h"/>
<use x="163.439453" xlink:href="#k"/>
<use x="260.851562" xlink:href="#j"/>
<use x="288.634766" xlink:href="#f"/>
<use x="352.013672" xlink:href="#g"/>
<use x="413.292969" xlink:href="#i"/>
</g>
</g>
<defs>
<path id="b" d="m0 8.6603c2.2967 0 4.4997-0.9125 6.1237-2.5365 1.624-1.624 2.5365-3.827 2.5365-6.1237s-0.9125-4.4997-2.5365-6.1237c-1.624-1.624-3.827-2.5365-6.1237-2.5365s-4.4997 0.9125-6.1237 2.5365c-1.624 1.624-2.5365 3.827-2.5365 6.1237s0.9125 4.4997 2.5365 6.1237c1.624 1.624 3.827 2.5365 6.1237 2.5365z"/>
</defs>
<g clip-path="url(#a)">
<use x="80.767986" y="889.995044" fill="#ffffff" stroke="#ffffff" xlink:href="#b"/>
</g>
<g clip-path="url(#a)">
<use x="126.819339" y="889.995044" fill="#ffffff" stroke="#ffffff" xlink:href="#b"/>
</g>
<g clip-path="url(#a)">
<use x="172.870692" y="889.995044" fill="#ffffff" stroke="#ffffff" xlink:href="#b"/>
</g>
<g clip-path="url(#a)">
<use x="218.922046" y="889.995044" fill="#ffffff" stroke="#ffffff" xlink:href="#b"/>
</g>
<g clip-path="url(#a)">
<use x="264.973399" y="889.995044" fill="#ffffff" stroke="#ffffff" xlink:href="#b"/>
</g>
<g clip-path="url(#a)">
<use x="311.024752" y="889.995044" fill="#ffffff" stroke="#ffffff" xlink:href="#b"/>
</g>
<g clip-path="url(#a)">
<use x="357.076105" y="889.995044" fill="#ffffff" stroke="#ffffff" xlink:href="#b"/>
</g>
<g clip-path="url(#a)">
<use x="403.127458" y="889.995044" fill="#ffffff" stroke="#ffffff" xlink:href="#b"/>
</g>
<g clip-path="url(#a)">
<use x="449.178811" y="889.995044" fill="#ffffff" stroke="#ffffff" xlink:href="#b"/>
</g>
<g clip-path="url(#a)">
<use x="495.230165" y="889.995044" fill="#ffffff" stroke="#ffffff" xlink:href="#b"/>
</g>
<g clip-path="url(#a)">
<use x="541.281518" y="889.995044" fill="#ffffff" stroke="#ffffff" xlink:href="#b"/>
</g>
<g clip-path="url(#a)">
<use x="587.332871" y="889.995044" fill="#ffffff" stroke="#ffffff" xlink:href="#b"/>
</g>
<g clip-path="url(#a)">
<use x="633.384224" y="889.995044" fill="#ffffff" stroke="#ffffff" xlink:href="#b"/>
</g>
<g clip-path="url(#a)">
<use x="679.435577" y="889.995044" fill="#ffffff" stroke="#ffffff" xlink:href="#b"/>
</g>
<g clip-path="url(#a)">
<use x="725.486931" y="889.995044" fill="#ffffff" stroke="#ffffff" xlink:href="#b"/>
</g>
<g clip-path="url(#a)">
<use x="771.538284" y="889.995044" fill="#ffffff" stroke="#ffffff" xlink:href="#b"/>
</g>
<g clip-path="url(#a)">
<use x="817.589637" y="889.995044" fill="#ffffff" stroke="#ffffff" xlink:href="#b"/>
</g>
<g clip-path="url(#a)">
<use x="863.64099" y="889.995044" fill="#ffffff" stroke="#ffffff" xlink:href="#b"/>
</g>
<g clip-path="url(#a)">
<use x="909.692343" y="889.995044" fill="#ffffff" stroke="#ffffff" xlink:href="#b"/>
</g>
<g clip-path="url(#a)">
<use x="955.743696" y="889.995044" fill="#ffffff" stroke="#ffffff" xlink:href="#b"/>
</g>
<g clip-path="url(#a)">
<use x="1001.79505" y="889.995044" fill="#ffffff" stroke="#ffffff" xlink:href="#b"/>
</g>
<g clip-path="url(#a)">
<use x="1047.846403" y="889.995044" fill="#ffffff" stroke="#ffffff" xlink:href="#b"/>
</g>
<g clip-path="url(#a)">
<use x="1093.897756" y="889.995044" fill="#ffffff" stroke="#ffffff" xlink:href="#b"/>
</g>
<g clip-path="url(#a)">
<use x="1139.949109" y="889.995044" fill="#ffffff" stroke="#ffffff" xlink:href="#b"/>
</g>
<g clip-path="url(#a)">
<use x="1186.000462" y="889.995044" fill="#ffffff" stroke="#ffffff" xlink:href="#b"/>
</g>
<g clip-path="url(#a)">
<use x="1232.051815" y="889.995044" fill="#ffffff" stroke="#ffffff" xlink:href="#b"/>
</g>
<g clip-path="url(#a)">
<use x="1278.103169" y="889.995044" fill="#ffffff" stroke="#ffffff" xlink:href="#b"/>
</g>
<g clip-path="url(#a)">
<use x="1324.154522" y="889.995044" fill="#ffffff" stroke="#ffffff" xlink:href="#b"/>
</g>
<g clip-path="url(#a)">
<use x="1370.205875" y="889.995044" fill="#ffffff" stroke="#ffffff" xlink:href="#b"/>
</g>
<g clip-path="url(#a)">
<use x="1416.257228" y="889.995044" fill="#ffffff" stroke="#ffffff" xlink:href="#b"/>
</g>
<g clip-path="url(#a)">
<use x="1462.308581" y="889.995044" fill="#ffffff" stroke="#ffffff" xlink:href="#b"/>
</g>
<g clip-path="url(#a)">
<use x="1508.359935" y="889.995044" fill="#ffffff" stroke="#ffffff" xlink:href="#b"/>
</g>
<g clip-path="url(#a)">
<use x="1554.411288" y="889.995044" fill="#ffffff" stroke="#ffffff" xlink:href="#b"/>
</g>
<g clip-path="url(#a)">
<use x="1600.462641" y="889.995044" fill="#ffffff" stroke="#ffffff" xlink:href="#b"/>
</g>
<g clip-path="url(#a)">
<use x="1646.513994" y="889.995044" fill="#ffffff" stroke="#ffffff" xlink:href="#b"/>
</g>
<g clip-path="url(#a)">
<use x="955.736387" y="43.338289" fill="#ffffff" stroke="#ffffff" xlink:href="#b"/>
</g>
<g clip-path="url(#a)">
<use x="696.014065" y="191.633114" fill="#ffffff" stroke="#ffffff" xlink:href="#b"/>
</g>
<g clip-path="url(#a)">
<use x="771.538284" y="753.177429" fill="#ffffff" stroke="#ffffff" xlink:href="#b"/>
</g>
<g clip-path="url(#a)">
<use x="904.575526" y="477.638914" fill="#ffffff" stroke="#ffffff" xlink:href="#b"/>
</g>
<g clip-path="url(#a)">
<use x="1139.949109" y="753.177429" fill="#ffffff" stroke="#ffffff" xlink:href="#b"/>
</g>
<g clip-path="url(#a)">
<use x="1358.693037" y="336.246839" fill="#ffffff" stroke="#ffffff" xlink:href="#b"/>
</g>
<g clip-path="url(#a)">
<use x="1232.051815" y="616.359813" fill="#ffffff" stroke="#ffffff" xlink:href="#b"/>
</g>
<g clip-path="url(#a)">
<use x="1347.180198" y="616.359813" fill="#ffffff" stroke="#ffffff" xlink:href="#b"/>
</g>
<g clip-path="url(#a)">
<use x="1496.847096" y="477.638914" fill="#ffffff" stroke="#ffffff" xlink:href="#b"/>
</g>
<g clip-path="url(#a)">
<use x="1416.257228" y="753.177429" fill="#ffffff" stroke="#ffffff" xlink:href="#b"/>
</g>
<g clip-path="url(#a)">
<use x="1462.308581" y="753.177429" fill="#ffffff" stroke="#ffffff" xlink:href="#b"/>
</g>
<g clip-path="url(#a)">
<use x="1508.359935" y="753.177429" fill="#ffffff" stroke="#ffffff" xlink:href="#b"/>
</g>
<g clip-path="url(#a)">
<use x="1600.462641" y="616.359813" fill="#ffffff" stroke="#ffffff" xlink:href="#b"/>
</g>
<g clip-path="url(#a)">
<use x="1554.411288" y="753.177429" fill="#ffffff" stroke="#ffffff" xlink:href="#b"/>
</g>
<g clip-path="url(#a)">
<use x="1600.462641" y="753.177429" fill="#ffffff" stroke="#ffffff" xlink:href="#b"/>
</g>
<g clip-path="url(#a)">
<use x="1324.154522" y="753.177429" fill="#ffffff" stroke="#ffffff" xlink:href="#b"/>
</g>
<g clip-path="url(#a)">
<use x="1370.205875" y="753.177429" fill="#ffffff" stroke="#ffffff" xlink:href="#b"/>
</g>
<g clip-path="url(#a)">
<use x="1186.000462" y="753.177429" fill="#ffffff" stroke="#ffffff" xlink:href="#b"/>
</g>
<g clip-path="url(#a)">
<use x="1232.051815" y="753.177429" fill="#ffffff" stroke="#ffffff" xlink:href="#b"/>
</g>
<g clip-path="url(#a)">
<use x="1278.103169" y="753.177429" fill="#ffffff" stroke="#ffffff" xlink:href="#b"/>
</g>
<g clip-path="url(#a)">
<use x="817.589637" y="753.177429" fill="#ffffff" stroke="#ffffff" xlink:href="#b"/>
</g>
<g clip-path="url(#a)">
<use x="909.692343" y="753.177429" fill="#ffffff" stroke="#ffffff" xlink:href="#b"/>
</g>
<g clip-path="url(#a)">
<use x="986.444599" y="616.359813" fill="#ffffff" stroke="#ffffff" xlink:href="#b"/>
</g>
<g clip-path="url(#a)">
<use x="909.692343" y="753.177429" fill="#ffffff" stroke="#ffffff" xlink:href="#b"/>
</g>
<g clip-path="url(#a)">
<use x="1001.79505" y="753.177429" fill="#ffffff" stroke="#ffffff" xlink:href="#b"/>
</g>
<g clip-path="url(#a)">
<use x="1047.846403" y="753.177429" fill="#ffffff" stroke="#ffffff" xlink:href="#b"/>
</g>
<g clip-path="url(#a)">
<use x="1692.565347" y="889.995044" fill="#ffffff" stroke="#ffffff" xlink:href="#b"/>
</g>
<g clip-path="url(#a)">
<use x="186.686098" y="336.246839" fill="#ffffff" stroke="#ffffff" xlink:href="#b"/>
</g>
<g clip-path="url(#a)">
<use x="518.255841" y="616.359813" fill="#ffffff" stroke="#ffffff" xlink:href="#b"/>
</g>
<g clip-path="url(#a)">
<use x="633.384224" y="616.359813" fill="#ffffff" stroke="#ffffff" xlink:href="#b"/>
</g>
<g clip-path="url(#a)">
<use x="587.332871" y="753.177429" fill="#ffffff" stroke="#ffffff" xlink:href="#b"/>
</g>
<g clip-path="url(#a)">
<use x="633.384224" y="753.177429" fill="#ffffff" stroke="#ffffff" xlink:href="#b"/>
</g>
<g clip-path="url(#a)">
<use x="679.435577" y="753.177429" fill="#ffffff" stroke="#ffffff" xlink:href="#b"/>
</g>
<g clip-path="url(#a)">
<use x="495.230165" y="753.177429" fill="#ffffff" stroke="#ffffff" xlink:href="#b"/>
</g>
<g clip-path="url(#a)">
<use x="541.281518" y="753.177429" fill="#ffffff" stroke="#ffffff" xlink:href="#b"/>
</g>
<g clip-path="url(#a)">
<use x="80.767986" y="753.177429" fill="#ffffff" stroke="#ffffff" xlink:href="#b"/>
</g>
<g clip-path="url(#a)">
<use x="126.819339" y="753.177429" fill="#ffffff" stroke="#ffffff" xlink:href="#b"/>
</g>
<g clip-path="url(#a)">
<use x="172.870692" y="753.177429" fill="#ffffff" stroke="#ffffff" xlink:href="#b"/>
</g>
<g clip-path="url(#a)">
<use x="218.922046" y="753.177429" fill="#ffffff" stroke="#ffffff" xlink:href="#b"/>
</g>
<g clip-path="url(#a)">
<use x="334.050429" y="477.638914" fill="#ffffff" stroke="#ffffff" xlink:href="#b"/>
</g>
<g clip-path="url(#a)">
<use x="264.973399" y="753.177429" fill="#ffffff" stroke="#ffffff" xlink:href="#b"/>
</g>
<g clip-path="url(#a)">
<use x="334.050429" y="616.359813" fill="#ffffff" stroke="#ffffff" xlink:href="#b"/>
</g>
<g clip-path="url(#a)">
<use x="403.127458" y="753.177429" fill="#ffffff" stroke="#ffffff" xlink:href="#b"/>
</g>
<g clip-path="url(#a)">
<use x="311.024752" y="753.177429" fill="#ffffff" stroke="#ffffff" xlink:href="#b"/>
</g>
<g clip-path="url(#a)">
<use x="357.076105" y="753.177429" fill="#ffffff" stroke="#ffffff" xlink:href="#b"/>
</g>
<g clip-path="url(#a)">
<use x="1249.321073" y="191.633114" fill="#808080" stroke="#808080" xlink:href="#b"/>
</g>
<g clip-path="url(#a)">
<use x="790.709291" y="43.338289" fill="#808080" stroke="#808080" xlink:href="#b"/>
</g>
<g clip-path="url(#a)">
<use x="449.178811" y="753.177429" fill="#ffffff" stroke="#ffffff" xlink:href="#b"/>
</g>
<g clip-path="url(#a)">
<use x="725.486931" y="753.177429" fill="#ffffff" stroke="#ffffff" xlink:href="#b"/>
</g>
<g clip-path="url(#a)">
<use x="1093.897756" y="753.177429" fill="#ffffff" stroke="#ffffff" xlink:href="#b"/>
</g>
<g clip-path="url(#a)">
<use x="1646.513994" y="753.177429" fill="#ffffff" stroke="#ffffff" xlink:href="#b"/>
</g>
<g clip-path="url(#a)">
<defs>
<path id="ab" d="m45.406 46.391v29.594h8.9844v-75.984h-8.9844v8.2031q-2.8281-4.875-7.1562-7.25-4.3125-2.375-10.375-2.375-9.9062 0-16.141 7.9062-6.2188 7.9219-6.2188 20.812t6.2188 20.797q6.2344 7.9062 16.141 7.9062 6.0625 0 10.375-2.375 4.3281-2.3594 7.1562-7.2344zm-30.609-19.094q0-9.9062 4.0781-15.547t11.203-5.6406 11.219 5.6406q4.1094 5.6406 4.1094 15.547t-4.1094 15.547q-4.0938 5.6406-11.219 5.6406t-11.203-5.6406-4.0781-15.547z"/>
<path id="s" d="m18.312 70.219v-15.531h18.5v-6.9844h-18.5v-29.688q0-6.6875 1.8281-8.5938t7.4531-1.9062h9.2188v-7.5156h-9.2188q-10.406 0-14.359 3.875-3.9531 3.8906-3.9531 14.141v29.688h-6.5938v6.9844h6.5938v15.531z"/>
</defs>
<g transform="translate(60.143 892.75) scale(.1 -.1)">
<use xlink:href="#ac"/>
<use x="60.255859" xlink:href="#d"/>
<use x="121.779297" xlink:href="#f"/>
<use x="185.158203" xlink:href="#ab"/>
<use x="248.634766" xlink:href="#g"/>
<use x="309.914062" xlink:href="#f"/>
<use x="373.292969" xlink:href="#s"/>
</g>
</g>
<g clip-path="url(#a)">
<defs>
<path id="t" d="m44.281 53.078v-8.5q-3.7969 1.9531-7.9062 2.9219-4.0938 0.98438-8.5 0.98438-6.6875 0-10.031-2.0469t-3.3438-6.1562q0-3.125 2.3906-4.9062t9.625-3.3906l3.0781-0.6875q9.5625-2.0469 13.594-5.7812t4.0312-10.422q0-7.625-6.0312-12.078-6.0312-4.4375-16.578-4.4375-4.3906 0-9.1562 0.85938t-10.031 2.5625v9.2812q4.9844-2.5938 9.8125-3.8906 4.8281-1.2812 9.5781-1.2812 6.3438 0 9.75 2.1719 3.4219 2.1719 3.4219 6.125 0 3.6562-2.4688 5.6094-2.4531 1.9531-10.812 3.7656l-3.125 0.73438q-8.3438 1.75-12.062 5.3906-3.7031 3.6406-3.7031 9.9844 0 7.7188 5.4688 11.906 5.4688 4.2031 15.531 4.2031 4.9688 0 9.3594-0.73438 4.4062-0.71875 8.1094-2.1875z"/>
</defs>
<g transform="translate(119.75 892.75) scale(.1 -.1)">
<use xlink:href="#i"/>
<use x="27.783203" xlink:href="#d"/>
<use x="89.306641" xlink:href="#t"/>
</g>
</g>
<g clip-path="url(#a)">
<defs>
<path id="ag" d="m18.109 8.2031v-29h-9.0312v75.484h9.0312v-8.2969q2.8438 4.875 7.1562 7.2344 4.3281 2.375 10.328 2.375 9.9688 0 16.188-7.9062 6.2344-7.9062 6.2344-20.797t-6.2344-20.812q-6.2188-7.9062-16.188-7.9062-6 0-10.328 2.375-4.3125 2.375-7.1562 7.25zm30.578 19.094q0 9.9062-4.0781 15.547t-11.203 5.6406q-7.1406 0-11.219-5.6406t-4.0781-15.547 4.0781-15.547 11.219-5.6406q7.125 0 11.203 5.6406t4.0781 15.547z"/>
</defs>
<g transform="translate(150.57 892.75) scale(.1 -.1)">
<use xlink:href="#ag"/>
<use x="63.476562" xlink:href="#h"/>
<use x="104.558594" xlink:href="#d"/>
<use x="166.082031" xlink:href="#k"/>
<use x="263.494141" xlink:href="#j"/>
<use x="291.277344" xlink:href="#d"/>
<use x="352.800781" xlink:href="#h"/>
<use x="393.914062" xlink:href="#t"/>
</g>
</g>
<g clip-path="url(#a)">
<defs>
<path id="aa" d="m30.609 48.391q-7.2188 0-11.422-5.6406t-4.2031-15.453 4.1719-15.453q4.1875-5.6406 11.453-5.6406 7.1875 0 11.375 5.6562 4.2031 5.6719 4.2031 15.438 0 9.7188-4.2031 15.406-4.1875 5.6875-11.375 5.6875zm0 7.6094q11.719 0 18.406-7.625 6.7031-7.6094 6.7031-21.078 0-13.422-6.7031-21.078-6.6875-7.6406-18.406-7.6406-11.766 0-18.438 7.6406-6.6562 7.6562-6.6562 21.078 0 13.469 6.6562 21.078 6.6719 7.625 18.438 7.625z"/>
</defs>
<g transform="translate(207 892.75) scale(.1 -.1)">
<use xlink:href="#k"/>
<use x="97.412109" xlink:href="#aa"/>
<use x="158.59375" xlink:href="#j"/>
<use x="186.376953" xlink:href="#t"/>
</g>
</g>
<g clip-path="url(#a)">
<g transform="translate(258.72 892.75) scale(.1 -.1)">
<use xlink:href="#ab"/>
<use x="63.476562" xlink:href="#d"/>
</g>
</g>
<g clip-path="url(#a)">
<defs>
<path id="at" d="m8.2969 72.906 25.391-82.188h-8.2969l-25.391 82.188z"/>
<path id="u" d="m8.5 21.578v33.109h8.9844v-32.766q0-7.7656 3.0156-11.656 3.0312-3.875 9.0938-3.875 7.2656 0 11.484 4.6406 4.2344 4.6406 4.2344 12.656v31h8.9844v-54.688h-8.9844v8.4062q-3.2656-4.9844-7.5938-7.4062-4.3125-2.4219-10.031-2.4219-9.4219 0-14.312 5.8594-4.875 5.8594-4.875 17.141z"/>
<path id="n" d="m19.188 8.2969h34.422v-8.2969h-46.281v8.2969q5.6094 5.8125 15.297 15.594 9.7031 9.7969 12.188 12.641 4.7344 5.3125 6.6094 9 1.8906 3.6875 1.8906 7.25 0 5.8125-4.0781 9.4688-4.0781 3.6719-10.625 3.6719-4.6406 0-9.7969-1.6094-5.1406-1.6094-11-4.8906v9.9688q5.9531 2.3906 11.125 3.6094 5.1875 1.2188 9.4844 1.2188 11.328 0 18.062-5.6719 6.7344-5.6562 6.7344-15.125 0-4.5-1.6875-8.5312-1.6719-4.0156-6.125-9.4844-1.2188-1.4219-7.7656-8.1875-6.5312-6.7656-18.453-18.922z"/>
<path id="af" d="m31.781 66.406q-7.6094 0-11.453-7.5-3.8281-7.4844-3.8281-22.531 0-14.984 3.8281-22.484 3.8438-7.5 11.453-7.5 7.6719 0 11.5 7.5 3.8438 7.5 3.8438 22.484 0 15.047-3.8438 22.531-3.8281 7.5-11.5 7.5zm0 7.8125q12.266 0 18.734-9.7031 6.4688-9.6875 6.4688-28.141 0-18.406-6.4688-28.109-6.4688-9.6875-18.734-9.6875-12.25 0-18.719 9.6875-6.4688 9.7031-6.4688 28.109 0 18.453 6.4688 28.141 6.4688 9.7031 18.719 9.7031z"/>
<path id="c" d="m12.406 8.2969h16.109v55.625l-17.531-3.5156v8.9844l17.438 3.5156h9.8594v-64.609h16.109v-8.2969h-41.984z"/>
<path id="ad" d="m10.984 1.5156v8.9844q3.7188-1.7656 7.5156-2.6875 3.8125-0.92188 7.4844-0.92188 9.7656 0 14.906 6.5625 5.1562 6.5625 5.8906 19.953-2.8281-4.2031-7.1875-6.4531-4.3438-2.25-9.6094-2.25-10.938 0-17.312 6.6094-6.375 6.625-6.375 18.109 0 11.219 6.6406 18 6.6406 6.7969 17.672 6.7969 12.656 0 19.312-9.7031 6.6719-9.6875 6.6719-28.141 0-17.234-8.1875-27.516-8.1719-10.281-21.984-10.281-3.7188 0-7.5312 0.73438-3.7969 0.73438-7.9062 2.2031zm19.625 30.906q6.6406 0 10.516 4.5312 3.8906 4.5469 3.8906 12.469 0 7.8594-3.8906 12.422-3.875 4.5625-10.516 4.5625t-10.516-4.5625-3.875-12.422q0-7.9219 3.875-12.469 3.875-4.5312 10.516-4.5312z"/>
</defs>
<g transform="translate(292.06 892.75) scale(.1 -.1)">
<use xlink:href="#i"/>
<use x="27.783203" xlink:href="#at"/>
<use x="61.474609" xlink:href="#u"/>
<use x="124.853516" xlink:href="#n"/>
<use x="188.476562" xlink:href="#af"/>
<use x="252.099609" xlink:href="#c"/>
<use x="315.722656" xlink:href="#ad"/>
</g>
</g>
<g clip-path="url(#a)">
<defs>
<path id="am" d="m56.203 29.594v-4.3906h-41.312q0.59375-9.2812 5.5938-14.141t13.938-4.8594q5.1719 0 10.031 1.2656t9.6562 3.8125v-8.5q-4.8438-2.0469-9.9219-3.125t-10.297-1.0781q-13.094 0-20.734 7.6094-7.6406 7.625-7.6406 20.625 0 13.422 7.25 21.297 7.25 7.8906 19.562 7.8906 11.031 0 17.453-7.1094 6.4219-7.0938 6.4219-19.297zm-8.9844 2.6406q-0.09375 7.3594-4.125 11.75-4.0312 4.4062-10.672 4.4062-7.5156 0-12.031-4.25t-5.2031-11.969zm-8.6875 47.75h9.7188l-15.906-18.359h-7.4844z"/>
</defs>
<g transform="translate(341.52 892.75) scale(.1 -.1)">
<use xlink:href="#g"/>
<use x="61.279297" xlink:href="#f"/>
<use x="124.658203" xlink:href="#f"/>
<use x="188.037109" xlink:href="#am"/>
<use x="249.560547" xlink:href="#d"/>
</g>
</g>
<g clip-path="url(#a)">
<defs>
<path id="y" d="m31.781 34.625q-7.0312 0-11.062-3.7656-4.0156-3.7656-4.0156-10.344 0-6.5938 4.0156-10.359 4.0312-3.7656 11.062-3.7656t11.078 3.7812q4.0625 3.7969 4.0625 10.344 0 6.5781-4.0312 10.344-4.0156 3.7656-11.109 3.7656zm-9.8594 4.1875q-6.3438 1.5625-9.8906 5.9062-3.5312 4.3594-3.5312 10.609 0 8.7344 6.2188 13.812 6.2344 5.0781 17.062 5.0781 10.891 0 17.094-5.0781t6.2031-13.812q0-6.25-3.5469-10.609-3.5312-4.3438-9.8281-5.9062 7.125-1.6562 11.094-6.5 3.9844-4.8281 3.9844-11.797 0-10.609-6.4688-16.281-6.4688-5.6562-18.531-5.6562-12.047 0-18.531 5.6562-6.4688 5.6719-6.4688 16.281 0 6.9688 4 11.797 4.0156 4.8438 11.141 6.5zm-3.6094 15.578q0-5.6562 3.5312-8.8281 3.5469-3.1719 9.9375-3.1719 6.3594 0 9.9375 3.1719 3.5938 3.1719 3.5938 8.8281 0 5.6719-3.5938 8.8438-3.5781 3.1719-9.9375 3.1719-6.3906 0-9.9375-3.1719-3.5312-3.1719-3.5312-8.8438z"/>
<path id="ae" d="m33.016 40.375q-6.6406 0-10.531-4.5469-3.875-4.5312-3.875-12.438 0-7.8594 3.875-12.438 3.8906-4.5625 10.531-4.5625t10.516 4.5625q3.875 4.5781 3.875 12.438 0 7.9062-3.875 12.438-3.875 4.5469-10.516 4.5469zm19.578 30.922v-8.9844q-3.7188 1.75-7.5 2.6719-3.7812 0.9375-7.5 0.9375-9.7656 0-14.922-6.5938-5.1406-6.5938-5.875-19.922 2.875 4.25 7.2188 6.5156 4.3594 2.2656 9.5781 2.2656 10.984 0 17.359-6.6719 6.375-6.6562 6.375-18.125 0-11.234-6.6406-18.031-6.6406-6.7812-17.672-6.7812-12.656 0-19.344 9.6875-6.6875 9.7031-6.6875 28.109 0 17.281 8.2031 27.562t22.016 10.281q3.7188 0 7.5-0.73438t7.8906-2.1875z"/>
<path id="z" d="m8.2031 72.906h46.875v-4.2031l-26.469-68.703h-10.297l24.906 64.594h-35.016z"/>
</defs>
<g transform="translate(390.4 892.75) scale(.1 -.1)">
<use xlink:href="#c"/>
<use x="63.623047" xlink:href="#y"/>
<use x="127.246094" xlink:href="#ae"/>
<use x="190.869141" xlink:href="#z"/>
</g>
</g>
<g clip-path="url(#a)">
<defs>
<path id="al" d="m11.719 12.406h10.297v-8.4062l-8-15.625h-6.2969l4 15.625z"/>
</defs>
<g transform="translate(447.59 892.75) scale(.1 -.1)">
<use xlink:href="#al"/>
</g>
</g>
<g clip-path="url(#a)">
<g transform="translate(490.78 892.75) scale(.1 -.1)">
<use xlink:href="#i"/>
<use x="27.783203" xlink:href="#g"/>
</g>
</g>
<g clip-path="url(#a)">
<defs>
<path id="ar" d="m14.797 27.297q0-9.9062 4.0781-15.547t11.203-5.6406 11.219 5.6406q4.1094 5.6406 4.1094 15.547t-4.1094 15.547q-4.0938 5.6406-11.219 5.6406t-11.203-5.6406-4.0781-15.547zm30.609-19.094q-2.8281-4.875-7.1562-7.25-4.3125-2.375-10.375-2.375-9.9062 0-16.141 7.9062-6.2188 7.9219-6.2188 20.812t6.2188 20.797q6.2344 7.9062 16.141 7.9062 6.0625 0 10.375-2.375 4.3281-2.3594 7.1562-7.2344v8.2969h8.9844v-75.484h-8.9844z"/>
</defs>
<g transform="translate(519.68 892.75) scale(.1 -.1)">
<use xlink:href="#ar"/>
<use x="63.476562" xlink:href="#u"/>
<use x="126.855469" xlink:href="#d"/>
<use x="188.378906" xlink:href="#t"/>
<use x="240.478516" xlink:href="#s"/>
<use x="279.6875" xlink:href="#j"/>
<use x="307.470703" xlink:href="#aa"/>
<use x="368.652344" xlink:href="#f"/>
</g>
</g>
<g clip-path="url(#a)">
<g transform="translate(573.91 892.75) scale(.1 -.1)">
<use xlink:href="#ag"/>
<use x="63.476562" xlink:href="#g"/>
<use x="124.755859" xlink:href="#h"/>
<use x="165.869141" xlink:href="#u"/>
<use x="229.248047" xlink:href="#s"/>
</g>
</g>
<g clip-path="url(#a)">
<defs>
<path id="aw" d="m56.203 29.594v-4.3906h-41.312q0.59375-9.2812 5.5938-14.141t13.938-4.8594q5.1719 0 10.031 1.2656t9.6562 3.8125v-8.5q-4.8438-2.0469-9.9219-3.125t-10.297-1.0781q-13.094 0-20.734 7.6094-7.6406 7.625-7.6406 20.625 0 13.422 7.25 21.297 7.25 7.8906 19.562 7.8906 11.031 0 17.453-7.1094 6.4219-7.0938 6.4219-19.297zm-8.9844 2.6406q-0.09375 7.3594-4.125 11.75-4.0312 4.4062-10.672 4.4062-7.5156 0-12.031-4.25t-5.2031-11.969zm-19.078 47.75h7.2188l11.969-18.359h-6.7812l-8.7969 11.953-8.7812-11.953h-6.7969z"/>
</defs>
<g transform="translate(623.22 892.75) scale(.1 -.1)">
<use xlink:href="#aw"/>
<use x="61.523438" xlink:href="#s"/>
<use x="100.732422" xlink:href="#h"/>
<use x="141.814453" xlink:href="#d"/>
</g>
</g>
<g clip-path="url(#a)">
<g transform="translate(657.89 892.75) scale(.1 -.1)">
<use xlink:href="#d"/>
<use x="61.523438" xlink:href="#f"/>
<use x="124.902344" xlink:href="#s"/>
<use x="164.111328" xlink:href="#d"/>
<use x="225.634766" xlink:href="#h"/>
<use x="266.732422" xlink:href="#h"/>
<use x="307.814453" xlink:href="#am"/>
<use x="369.337891" xlink:href="#d"/>
</g>
</g>
<g clip-path="url(#a)">
<g transform="translate(723.9 892.75) scale(.1 -.1)">
<use xlink:href="#al"/>
</g>
</g>
<g clip-path="url(#a)">
<g transform="translate(766.5 892.75) scale(.1 -.1)">
<use xlink:href="#d"/>
<use x="61.523438" xlink:href="#s"/>
</g>
</g>
<g clip-path="url(#a)">
<g transform="translate(808.66 892.75) scale(.1 -.1)">
<use xlink:href="#d"/>
<use x="61.523438" xlink:href="#i"/>
<use x="89.306641" xlink:href="#i"/>
<use x="117.089844" xlink:href="#d"/>
</g>
</g>
<g clip-path="url(#a)">
<g transform="translate(857.4 892.75) scale(.1 -.1)">
<use xlink:href="#f"/>
<use x="63.378906" xlink:href="#d"/>
</g>
</g>
<g clip-path="url(#a)">
<defs>
<path id="an" d="m48.688 27.297q0 9.9062-4.0781 15.547t-11.203 5.6406q-7.1406 0-11.219-5.6406t-4.0781-15.547 4.0781-15.547 11.219-5.6406q7.125 0 11.203 5.6406t4.0781 15.547zm-30.578 19.094q2.8438 4.875 7.1562 7.2344 4.3281 2.375 10.328 2.375 9.9688 0 16.188-7.9062 6.2344-7.9062 6.2344-20.797t-6.2344-20.812q-6.2188-7.9062-16.188-7.9062-6 0-10.328 2.375-4.3125 2.375-7.1562 7.25v-8.2031h-9.0312v75.984h9.0312z"/>
</defs>
<g transform="translate(888.16 892.75) scale(.1 -.1)">
<use xlink:href="#t"/>
<use x="52.099609" xlink:href="#d"/>
<use x="113.623047" xlink:href="#k"/>
<use x="211.035156" xlink:href="#an"/>
<use x="274.511719" xlink:href="#i"/>
<use x="302.294922" xlink:href="#g"/>
<use x="363.574219" xlink:href="#j"/>
<use x="391.357422" xlink:href="#s"/>
</g>
</g>
<g clip-path="url(#a)">
<g transform="translate(946.9 892.75) scale(.1 -.1)">
<use xlink:href="#ag"/>
<use x="63.476562" xlink:href="#g"/>
<use x="124.755859" xlink:href="#t"/>
</g>
</g>
<g clip-path="url(#a)">
<defs>
<path id="aq" d="m2.9844 54.688h9.5156l17.094-45.891 17.094 45.891h9.5156l-20.516-54.688h-12.203z"/>
</defs>
<g transform="translate(986.08 892.75) scale(.1 -.1)">
<use xlink:href="#ab"/>
<use x="63.476562" xlink:href="#d"/>
<use x="125" xlink:href="#aq"/>
<use x="184.179688" xlink:href="#aa"/>
<use x="245.361328" xlink:href="#j"/>
<use x="273.144531" xlink:href="#h"/>
</g>
</g>
<g clip-path="url(#a)">
<defs>
<path id="av" d="m9.4219 54.688h8.9844v-54.688h-8.9844zm4.5 1.3125m-3.6562 23.984h7.2188l11.969-18.359h-6.7812l-8.7969 11.953-8.7812-11.953h-6.7969z"/>
</defs>
<g transform="translate(1028 892.75) scale(.1 -.1)">
<use xlink:href="#h"/>
<use x="41.082031" xlink:href="#d"/>
<use x="102.605469" xlink:href="#f"/>
<use x="165.984375" xlink:href="#g"/>
<use x="227.263672" xlink:href="#av"/>
<use x="255.046875" xlink:href="#s"/>
<use x="294.255859" xlink:href="#h"/>
<use x="335.337891" xlink:href="#d"/>
</g>
</g>
<g clip-path="url(#a)">
<g transform="translate(1092.3 892.75) scale(.1 -.1)">
<use xlink:href="#al"/>
</g>
</g>
<g clip-path="url(#a)">
<g transform="translate(1124.2 892.75) scale(.1 -.1)">
<use xlink:href="#ar"/>
<use x="63.476562" xlink:href="#u"/>
<use x="126.855469" xlink:href="#g"/>
<use x="188.134766" xlink:href="#f"/>
<use x="251.513672" xlink:href="#ab"/>
</g>
</g>
<g clip-path="url(#a)">
<g transform="translate(1179.7 892.75) scale(.1 -.1)">
<use xlink:href="#ab"/>
<use x="63.476562" xlink:href="#d"/>
</g>
</g>
<g clip-path="url(#a)">
<defs>
<path id="ay" d="m54.891 54.688-19.781-26.609 20.797-28.078h-10.594l-15.922 21.484-15.906-21.484h-10.609l21.25 28.609-19.438 26.078h10.594l14.5-19.484 14.5 19.484z"/>
</defs>
<g transform="translate(1207.4 892.75) scale(.1 -.1)">
<use xlink:href="#f"/>
<use x="63.378906" xlink:href="#aa"/>
<use x="124.560547" xlink:href="#u"/>
<use x="187.939453" xlink:href="#aq"/>
<use x="247.119141" xlink:href="#d"/>
<use x="308.642578" xlink:href="#g"/>
<use x="369.921875" xlink:href="#u"/>
<use x="433.300781" xlink:href="#ay"/>
</g>
</g>
<g clip-path="url(#a)">
<defs>
<path id="as" d="m37.109 75.984v-7.4844h-8.5938q-4.8281 0-6.7188-1.9531-1.875-1.9531-1.875-7.0312v-4.8281h14.797v-6.9844h-14.797v-47.703h-9.0312v47.703h-8.5938v6.9844h8.5938v3.8125q0 9.125 4.25 13.297 4.25 4.1875 13.469 4.1875z"/>
</defs>
<g transform="translate(1267.3 892.75) scale(.1 -.1)">
<use xlink:href="#as"/>
<use x="35.205078" xlink:href="#g"/>
<use x="96.484375" xlink:href="#j"/>
<use x="124.267578" xlink:href="#s"/>
<use x="163.476562" xlink:href="#t"/>
</g>
</g>
<g clip-path="url(#a)">
<g transform="translate(1309 892.75) scale(.1 -.1)">
<use xlink:href="#as"/>
<use x="35.205078" xlink:href="#u"/>
<use x="98.583984" xlink:href="#h"/>
<use x="139.666016" xlink:href="#d"/>
<use x="201.189453" xlink:href="#f"/>
<use x="264.568359" xlink:href="#s"/>
</g>
</g>
<g clip-path="url(#a)">
<g transform="translate(1354.3 892.95) scale(.1 -.1)">
<use xlink:href="#ag"/>
<use x="63.476562" xlink:href="#aa"/>
<use x="124.658203" xlink:href="#h"/>
<use x="165.771484" xlink:href="#s"/>
<use x="204.980469" xlink:href="#am"/>
<use x="266.503906" xlink:href="#t"/>
</g>
</g>
<g clip-path="url(#a)">
<defs>
<path id="ax" d="m34.281 27.484q-10.891 0-15.094-2.4844t-4.2031-8.5q0-4.7812 3.1562-7.5938 3.1562-2.7969 8.5625-2.7969 7.4844 0 12 5.2969t4.5156 14.078v2zm17.922 3.7188v-31.203h-8.9844v8.2969q-3.0781-4.9688-7.6719-7.3438t-11.234-2.375q-8.3906 0-13.359 4.7188-4.9531 4.7188-4.9531 12.625 0 9.2188 6.1719 13.906 6.1875 4.6875 18.438 4.6875h12.609v0.89062q0 6.2031-4.0781 9.5938t-11.453 3.3906q-4.6875 0-9.1406-1.125-4.4375-1.125-8.5312-3.375v8.3125q4.9219 1.9062 9.5625 2.8438 4.6406 0.95312 9.0312 0.95312 11.875 0 17.734-6.1562 5.8594-6.1406 5.8594-18.641zm-30.281 48.781 13.766-18.266h-7.4688l-15.922 18.266z"/>
</defs>
<g transform="translate(1413.2 892.75) scale(.1 -.1)">
<use xlink:href="#ax"/>
</g>
</g>
<g clip-path="url(#a)">
<g transform="translate(1457.9 892.75) scale(.1 -.1)">
<use xlink:href="#i"/>
<use x="27.783203" xlink:href="#g"/>
</g>
</g>
<g clip-path="url(#a)">
<defs>
<path id="ai" d="m48.781 52.594v-8.4062q-3.8125 2.1094-7.6406 3.1562t-7.7344 1.0469q-8.75 0-13.594-5.5469-4.8281-5.5312-4.8281-15.547t4.8281-15.562q4.8438-5.5312 13.594-5.5312 3.9062 0 7.7344 1.0469t7.6406 3.1562v-8.3125q-3.7656-1.75-7.7969-2.625-4.0156-0.89062-8.5625-0.89062-12.359 0-19.641 7.7656-7.2656 7.7656-7.2656 20.953 0 13.375 7.3438 21.031 7.3594 7.6719 20.156 7.6719 4.1406 0 8.0938-0.85938 3.9531-0.84375 7.6719-2.5469z"/>
</defs>
<g transform="translate(1474.5 892.75) scale(.1 -.1)">
<use xlink:href="#ai"/>
<use x="54.980469" xlink:href="#aa"/>
<use x="116.162109" xlink:href="#f"/>
<use x="179.541016" xlink:href="#f"/>
<use x="242.919922" xlink:href="#g"/>
<use x="304.199219" xlink:href="#j"/>
<use x="331.982422" xlink:href="#t"/>
<use x="384.082031" xlink:href="#t"/>
<use x="436.181641" xlink:href="#g"/>
<use x="497.460938" xlink:href="#f"/>
<use x="560.839844" xlink:href="#ai"/>
<use x="615.820312" xlink:href="#d"/>
</g>
</g>
<g clip-path="url(#a)">
<g transform="translate(1548.1 892.75) scale(.1 -.1)">
<use xlink:href="#ab"/>
<use x="63.476562" xlink:href="#u"/>
</g>
</g>
<g clip-path="url(#a)">
<g transform="translate(1585.4 892.75) scale(.1 -.1)">
<use xlink:href="#ag"/>
<use x="63.476562" xlink:href="#u"/>
<use x="126.855469" xlink:href="#an"/>
<use x="190.332031" xlink:href="#i"/>
<use x="218.115234" xlink:href="#j"/>
<use x="245.898438" xlink:href="#ai"/>
</g>
</g>
<g clip-path="url(#a)">
<defs>
<path id="e" d="m10.688 12.406h10.312v-12.406h-10.312z"/>
</defs>
<g transform="translate(1644.9 892.75) scale(.1 -.1)">
<use xlink:href="#e"/>
</g>
</g>
<g clip-path="url(#a)">
<g transform="translate(947.78 46.098) scale(.1 -.1)">
<use xlink:href="#c"/>
<use x="63.623047" xlink:href="#e"/>
<use x="95.410156" xlink:href="#c"/>
</g>
</g>
<g clip-path="url(#a)">
<g transform="translate(688.06 194.39) scale(.1 -.1)">
<use xlink:href="#c"/>
<use x="63.623047" xlink:href="#e"/>
<use x="95.410156" xlink:href="#n"/>
</g>
</g>
<g clip-path="url(#a)">
<defs>
<path id="m" d="m37.797 64.312-24.906-38.922h24.906zm-2.5938 8.5938h12.406v-47.516h10.406v-8.2031h-10.406v-17.188h-9.8125v17.188h-32.906v9.5156z"/>
</defs>
<g transform="translate(763.59 755.94) scale(.1 -.1)">
<use xlink:href="#c"/>
<use x="63.623047" xlink:href="#e"/>
<use x="95.410156" xlink:href="#m"/>
</g>
</g>
<g clip-path="url(#a)">
<defs>
<path id="q" d="m10.797 72.906h38.719v-8.3125h-29.688v-17.859q2.1406 0.73438 4.2812 1.0938 2.1562 0.35938 4.3125 0.35938 12.203 0 19.328-6.6875 7.1406-6.6875 7.1406-18.109 0-11.766-7.3281-18.297-7.3281-6.5156-20.656-6.5156-4.5938 0-9.3594 0.78125-4.75 0.78125-9.8281 2.3438v9.9219q4.3906-2.3906 9.0781-3.5625t9.9062-1.1719q8.4531 0 13.375 4.4375 4.9375 4.4375 4.9375 12.062 0 7.6094-4.9375 12.047-4.9219 4.4531-13.375 4.4531-3.9531 0-7.8906-0.875-3.9219-0.875-8.0156-2.7344z"/>
</defs>
<g transform="translate(896.62 480.4) scale(.1 -.1)">
<use xlink:href="#c"/>
<use x="63.623047" xlink:href="#e"/>
<use x="95.410156" xlink:href="#q"/>
</g>
</g>
<g clip-path="url(#a)">
<g transform="translate(1132 755.94) scale(.1 -.1)">
<use xlink:href="#c"/>
<use x="63.623047" xlink:href="#e"/>
<use x="95.410156" xlink:href="#z"/>
</g>
</g>
<g clip-path="url(#a)">
<g transform="translate(1350.7 339.01) scale(.1 -.1)">
<use xlink:href="#c"/>
<use x="63.623047" xlink:href="#e"/>
<use x="95.410156" xlink:href="#y"/>
</g>
</g>
<g clip-path="url(#a)">
<g transform="translate(1220.9 619.12) scale(.1 -.1)">
<use xlink:href="#c"/>
<use x="63.623047" xlink:href="#e"/>
<use x="95.410156" xlink:href="#c"/>
<use x="159.033203" xlink:href="#af"/>
</g>
</g>
<g clip-path="url(#a)">
<g transform="translate(1336 619.12) scale(.1 -.1)">
<use xlink:href="#c"/>
<use x="63.623047" xlink:href="#e"/>
<use x="95.410156" xlink:href="#c"/>
<use x="159.033203" xlink:href="#c"/>
</g>
</g>
<g clip-path="url(#a)">
<g transform="translate(1485.7 480.4) scale(.1 -.1)">
<use xlink:href="#c"/>
<use x="63.623047" xlink:href="#e"/>
<use x="95.410156" xlink:href="#c"/>
<use x="159.033203" xlink:href="#n"/>
</g>
</g>
<g clip-path="url(#a)">
<defs>
<path id="p" d="m40.578 39.312q7.0781-1.5156 11.047-6.3125 3.9844-4.7812 3.9844-11.812 0-10.781-7.4219-16.703-7.4219-5.9062-21.094-5.9062-4.5781 0-9.4375 0.90625t-10.031 2.7188v9.5156q4.0938-2.3906 8.9688-3.6094 4.8906-1.2188 10.219-1.2188 9.2656 0 14.125 3.6562t4.8594 10.641q0 6.4531-4.5156 10.078-4.5156 3.6406-12.562 3.6406h-8.5v8.1094h8.8906q7.2656 0 11.125 2.9062t3.8594 8.375q0 5.6094-3.9844 8.6094-3.9688 3.0156-11.391 3.0156-4.0625 0-8.7031-0.89062-4.6406-0.875-10.203-2.7188v8.7812q5.625 1.5625 10.531 2.3438t9.25 0.78125q11.234 0 17.766-5.1094 6.5469-5.0938 6.5469-13.781 0-6.0625-3.4688-10.234t-9.8594-5.7812z"/>
</defs>
<g transform="translate(1405.1 755.94) scale(.1 -.1)">
<use xlink:href="#c"/>
<use x="63.623047" xlink:href="#e"/>
<use x="95.410156" xlink:href="#c"/>
<use x="159.033203" xlink:href="#p"/>
</g>
</g>
<g clip-path="url(#a)">
<g transform="translate(1451.2 755.94) scale(.1 -.1)">
<use xlink:href="#c"/>
<use x="63.623047" xlink:href="#e"/>
<use x="95.410156" xlink:href="#c"/>
<use x="159.033203" xlink:href="#m"/>
</g>
</g>
<g clip-path="url(#a)">
<g transform="translate(1497.2 755.94) scale(.1 -.1)">
<use xlink:href="#c"/>
<use x="63.623047" xlink:href="#e"/>
<use x="95.410156" xlink:href="#c"/>
<use x="159.033203" xlink:href="#q"/>
</g>
</g>
<g clip-path="url(#a)">
<g transform="translate(1589.3 619.12) scale(.1 -.1)">
<use xlink:href="#c"/>
<use x="63.623047" xlink:href="#e"/>
<use x="95.410156" xlink:href="#c"/>
<use x="159.033203" xlink:href="#ae"/>
</g>
</g>
<g clip-path="url(#a)">
<g transform="translate(1543.3 755.94) scale(.1 -.1)">
<use xlink:href="#c"/>
<use x="63.623047" xlink:href="#e"/>
<use x="95.410156" xlink:href="#c"/>
<use x="159.033203" xlink:href="#z"/>
</g>
</g>
<g clip-path="url(#a)">
<g transform="translate(1589.3 755.94) scale(.1 -.1)">
<use xlink:href="#c"/>
<use x="63.623047" xlink:href="#e"/>
<use x="95.410156" xlink:href="#c"/>
<use x="159.033203" xlink:href="#y"/>
</g>
</g>
<g clip-path="url(#a)">
<g transform="translate(1313 755.94) scale(.1 -.1)">
<use xlink:href="#c"/>
<use x="63.623047" xlink:href="#e"/>
<use x="95.410156" xlink:href="#c"/>
<use x="159.033203" xlink:href="#ad"/>
</g>
</g>
<g clip-path="url(#a)">
<g transform="translate(1359.1 755.94) scale(.1 -.1)">
<use xlink:href="#c"/>
<use x="63.623047" xlink:href="#e"/>
<use x="95.410156" xlink:href="#n"/>
<use x="159.033203" xlink:href="#af"/>
</g>
</g>
<g clip-path="url(#a)">
<g transform="translate(1174.9 755.94) scale(.1 -.1)">
<use xlink:href="#c"/>
<use x="63.623047" xlink:href="#e"/>
<use x="95.410156" xlink:href="#n"/>
<use x="159.033203" xlink:href="#c"/>
</g>
</g>
<g clip-path="url(#a)">
<g transform="translate(1220.9 755.94) scale(.1 -.1)">
<use xlink:href="#c"/>
<use x="63.623047" xlink:href="#e"/>
<use x="95.410156" xlink:href="#n"/>
<use x="159.033203" xlink:href="#n"/>
</g>
</g>
<g clip-path="url(#a)">
<g transform="translate(1267 755.94) scale(.1 -.1)">
<use xlink:href="#c"/>
<use x="63.623047" xlink:href="#e"/>
<use x="95.410156" xlink:href="#n"/>
<use x="159.033203" xlink:href="#p"/>
</g>
</g>
<g clip-path="url(#a)">
<g transform="translate(806.46 755.94) scale(.1 -.1)">
<use xlink:href="#c"/>
<use x="63.623047" xlink:href="#e"/>
<use x="95.410156" xlink:href="#n"/>
<use x="159.033203" xlink:href="#m"/>
</g>
</g>
<g clip-path="url(#a)">
<g transform="translate(898.56 755.94) scale(.1 -.1)">
<use xlink:href="#c"/>
<use x="63.623047" xlink:href="#e"/>
<use x="95.410156" xlink:href="#n"/>
<use x="159.033203" xlink:href="#q"/>
</g>
</g>
<g clip-path="url(#a)">
<g transform="translate(975.31 619.12) scale(.1 -.1)">
<use xlink:href="#c"/>
<use x="63.623047" xlink:href="#e"/>
<use x="95.410156" xlink:href="#n"/>
<use x="159.033203" xlink:href="#ae"/>
</g>
</g>
<g clip-path="url(#a)">
<g transform="translate(898.56 755.94) scale(.1 -.1)">
<use xlink:href="#c"/>
<use x="63.623047" xlink:href="#e"/>
<use x="95.410156" xlink:href="#n"/>
<use x="159.033203" xlink:href="#z"/>
</g>
</g>
<g clip-path="url(#a)">
<g transform="translate(990.66 755.94) scale(.1 -.1)">
<use xlink:href="#c"/>
<use x="63.623047" xlink:href="#e"/>
<use x="95.410156" xlink:href="#n"/>
<use x="159.033203" xlink:href="#y"/>
</g>
</g>
<g clip-path="url(#a)">
<g transform="translate(1036.7 755.94) scale(.1 -.1)">
<use xlink:href="#c"/>
<use x="63.623047" xlink:href="#e"/>
<use x="95.410156" xlink:href="#n"/>
<use x="159.033203" xlink:href="#ad"/>
</g>
</g>
<g clip-path="url(#a)">
<defs>
<path id="aj" d="m9.8125 72.906h9.8594v-72.906h-9.8594z"/>
<path id="au" d="m9.8125 72.906h14.703l18.594-49.609 18.703 49.609h14.703v-72.906h-9.625v64.016l-18.797-50h-9.9062l-18.797 50v-64.016h-9.5781z"/>
</defs>
<g transform="translate(1671.5 892.75) scale(.1 -.1)">
<use xlink:href="#aj"/>
<use x="29.492188" xlink:href="#au"/>
<use x="115.771484" xlink:href="#ac"/>
<use x="176.074219" xlink:href="#v"/>
<use x="231.787109" xlink:href="#aj"/>
<use x="261.279297" xlink:href="#r"/>
<use x="331.103516" xlink:href="#aj"/>
<use x="360.595703" xlink:href="#l"/>
</g>
</g>
<g clip-path="url(#a)">
<g transform="translate(175.55 339.01) scale(.1 -.1)">
<use xlink:href="#c"/>
<use x="63.623047" xlink:href="#e"/>
<use x="95.410156" xlink:href="#p"/>
<use x="159.033203" xlink:href="#c"/>
</g>
</g>
<g clip-path="url(#a)">
<g transform="translate(507.12 619.12) scale(.1 -.1)">
<use xlink:href="#c"/>
<use x="63.623047" xlink:href="#e"/>
<use x="95.410156" xlink:href="#p"/>
<use x="159.033203" xlink:href="#p"/>
</g>
</g>
<g clip-path="url(#a)">
<g transform="translate(622.25 619.12) scale(.1 -.1)">
<use xlink:href="#c"/>
<use x="63.623047" xlink:href="#e"/>
<use x="95.410156" xlink:href="#p"/>
<use x="159.033203" xlink:href="#m"/>
</g>
</g>
<g clip-path="url(#a)">
<g transform="translate(576.2 755.94) scale(.1 -.1)">
<use xlink:href="#c"/>
<use x="63.623047" xlink:href="#e"/>
<use x="95.410156" xlink:href="#p"/>
<use x="159.033203" xlink:href="#q"/>
</g>
</g>
<g clip-path="url(#a)">
<g transform="translate(622.25 755.94) scale(.1 -.1)">
<use xlink:href="#c"/>
<use x="63.623047" xlink:href="#e"/>
<use x="95.410156" xlink:href="#p"/>
<use x="159.033203" xlink:href="#ae"/>
</g>
</g>
<g clip-path="url(#a)">
<g transform="translate(668.3 755.94) scale(.1 -.1)">
<use xlink:href="#c"/>
<use x="63.623047" xlink:href="#e"/>
<use x="95.410156" xlink:href="#p"/>
<use x="159.033203" xlink:href="#z"/>
</g>
</g>
<g clip-path="url(#a)">
<g transform="translate(484.1 755.94) scale(.1 -.1)">
<use xlink:href="#c"/>
<use x="63.623047" xlink:href="#e"/>
<use x="95.410156" xlink:href="#p"/>
<use x="159.033203" xlink:href="#y"/>
</g>
</g>
<g clip-path="url(#a)">
<g transform="translate(530.15 755.94) scale(.1 -.1)">
<use xlink:href="#c"/>
<use x="63.623047" xlink:href="#e"/>
<use x="95.410156" xlink:href="#p"/>
<use x="159.033203" xlink:href="#ad"/>
</g>
</g>
<g clip-path="url(#a)">
<g transform="translate(69.635 755.94) scale(.1 -.1)">
<use xlink:href="#c"/>
<use x="63.623047" xlink:href="#e"/>
<use x="95.410156" xlink:href="#m"/>
<use x="159.033203" xlink:href="#af"/>
</g>
</g>
<g clip-path="url(#a)">
<g transform="translate(115.69 755.94) scale(.1 -.1)">
<use xlink:href="#c"/>
<use x="63.623047" xlink:href="#e"/>
<use x="95.410156" xlink:href="#m"/>
<use x="159.033203" xlink:href="#c"/>
</g>
</g>
<g clip-path="url(#a)">
<g transform="translate(161.74 755.94) scale(.1 -.1)">
<use xlink:href="#c"/>
<use x="63.623047" xlink:href="#e"/>
<use x="95.410156" xlink:href="#m"/>
<use x="159.033203" xlink:href="#n"/>
</g>
</g>
<g clip-path="url(#a)">
<g transform="translate(207.79 755.94) scale(.1 -.1)">
<use xlink:href="#c"/>
<use x="63.623047" xlink:href="#e"/>
<use x="95.410156" xlink:href="#m"/>
<use x="159.033203" xlink:href="#p"/>
</g>
</g>
<g clip-path="url(#a)">
<g transform="translate(322.92 480.4) scale(.1 -.1)">
<use xlink:href="#c"/>
<use x="63.623047" xlink:href="#e"/>
<use x="95.410156" xlink:href="#m"/>
<use x="159.033203" xlink:href="#m"/>
</g>
</g>
<g clip-path="url(#a)">
<g transform="translate(253.84 755.94) scale(.1 -.1)">
<use xlink:href="#c"/>
<use x="63.623047" xlink:href="#e"/>
<use x="95.410156" xlink:href="#m"/>
<use x="159.033203" xlink:href="#q"/>
</g>
</g>
<g clip-path="url(#a)">
<g transform="translate(322.92 619.12) scale(.1 -.1)">
<use xlink:href="#c"/>
<use x="63.623047" xlink:href="#e"/>
<use x="95.410156" xlink:href="#m"/>
<use x="159.033203" xlink:href="#ae"/>
</g>
</g>
<g clip-path="url(#a)">
<g transform="translate(391.99 755.94) scale(.1 -.1)">
<use xlink:href="#c"/>
<use x="63.623047" xlink:href="#e"/>
<use x="95.410156" xlink:href="#m"/>
<use x="159.033203" xlink:href="#z"/>
</g>
</g>
<g clip-path="url(#a)">
<g transform="translate(299.89 755.94) scale(.1 -.1)">
<use xlink:href="#c"/>
<use x="63.623047" xlink:href="#e"/>
<use x="95.410156" xlink:href="#m"/>
<use x="159.033203" xlink:href="#y"/>
</g>
</g>
<g clip-path="url(#a)">
<g transform="translate(345.94 755.94) scale(.1 -.1)">
<use xlink:href="#c"/>
<use x="63.623047" xlink:href="#e"/>
<use x="95.410156" xlink:href="#m"/>
<use x="159.033203" xlink:href="#ad"/>
</g>
</g>
<g clip-path="url(#a)">
<g transform="translate(1238.2 194.39) scale(.1 -.1)">
<use xlink:href="#c"/>
<use x="63.623047" xlink:href="#e"/>
<use x="95.410156" xlink:href="#q"/>
<use x="159.033203" xlink:href="#af"/>
</g>
</g>
<g clip-path="url(#a)">
<g transform="translate(779.58 46.098) scale(.1 -.1)">
<use xlink:href="#c"/>
<use x="63.623047" xlink:href="#e"/>
<use x="95.410156" xlink:href="#q"/>
<use x="159.033203" xlink:href="#c"/>
</g>
</g>
<g clip-path="url(#a)">
<g transform="translate(438.05 755.94) scale(.1 -.1)">
<use xlink:href="#c"/>
<use x="63.623047" xlink:href="#e"/>
<use x="95.410156" xlink:href="#q"/>
<use x="159.033203" xlink:href="#n"/>
</g>
</g>
<g clip-path="url(#a)">
<g transform="translate(714.35 755.94) scale(.1 -.1)">
<use xlink:href="#c"/>
<use x="63.623047" xlink:href="#e"/>
<use x="95.410156" xlink:href="#q"/>
<use x="159.033203" xlink:href="#p"/>
</g>
</g>
<g clip-path="url(#a)">
<g transform="translate(1082.8 755.94) scale(.1 -.1)">
<use xlink:href="#c"/>
<use x="63.623047" xlink:href="#e"/>
<use x="95.410156" xlink:href="#q"/>
<use x="159.033203" xlink:href="#m"/>
</g>
</g>
<g clip-path="url(#a)">
<g transform="translate(1635.4 755.94) scale(.1 -.1)">
<use xlink:href="#c"/>
<use x="63.623047" xlink:href="#e"/>
<use x="95.410156" xlink:href="#q"/>
<use x="159.033203" xlink:href="#q"/>
</g>
</g>
<defs>
<clipPath id="a">
<rect width="1773.3" height="933.33"/>
</clipPath>
</defs>
</svg>
