<?xml version="1.0" encoding="UTF-8"?>
<!DOCTYPE svg  PUBLIC '-//W3C//DTD SVG 1.1//EN'  'http://www.w3.org/Graphics/SVG/1.1/DTD/svg11.dtd'>
<svg width="1773.3pt" height="933.33pt" version="1.1" viewBox="0 0 1773.3 933.33" xmlns="http://www.w3.org/2000/svg" xmlns:xlink="http://www.w3.org/1999/xlink">
<defs>
<style type="text/css">*{stroke-linecap:butt;stroke-linejoin:round;white-space:pre;}</style>
</defs>
<path d="m0 933.33h1773.3v-933.33h-1773.3z" fill="#fff"/>
<g fill="none" stroke="#000">
<path d="m958.76 43.532-271.43 175.24" clip-path="url(#a)"/>
<path d="m958.76 43.532-187.22 680.48" clip-path="url(#a)"/>
<path d="m958.76 43.532-21.44 514.68" clip-path="url(#a)"/>
<path d="m958.76 43.532 181.19 680.48" clip-path="url(#a)"/>
<path d="m958.76 43.532 397.05 175.24" clip-path="url(#a)"/>
<path d="m958.76 43.532-233.28 680.48" clip-path="url(#a)"/>
<path d="m958.76 43.532 135.13 680.48" clip-path="url(#a)"/>
<path d="m687.33 218.77 1005.2 671.03" clip-path="url(#a)"/>
<path d="m687.33 218.77-436.17 171.34" clip-path="url(#a)"/>
<path d="m687.33 218.77-169.07 339.44" clip-path="url(#a)"/>
<path d="m687.33 218.77-99.997 505.23" clip-path="url(#a)"/>
<path d="m687.33 218.77-53.946 505.23" clip-path="url(#a)"/>
<path d="m687.33 218.77-7.8945 505.23" clip-path="url(#a)"/>
<path d="m687.33 218.77-238.15 505.23" clip-path="url(#a)"/>
<path d="m771.54 724.01v165.79" clip-path="url(#a)"/>
<path d="m937.32 558.21-119.73 165.79" clip-path="url(#a)"/>
<path d="m937.32 558.21-27.631 165.79" clip-path="url(#a)"/>
<path d="m937.32 558.21-27.631 165.79" clip-path="url(#a)"/>
<path d="m937.32 558.21 64.472 165.79" clip-path="url(#a)"/>
<path d="m937.32 558.21 110.52 165.79" clip-path="url(#a)"/>
<path d="m1139.9 724.01v165.79" clip-path="url(#a)"/>
<path d="m1355.8 218.77-123.76 339.44" clip-path="url(#a)"/>
<path d="m1355.8 218.77-31.66 505.23" clip-path="url(#a)"/>
<path d="m1355.8 218.77 14.391 505.23" clip-path="url(#a)"/>
<path d="m1355.8 218.77 141.03 171.34" clip-path="url(#a)"/>
<path d="m1232.1 558.21-46.051 165.79" clip-path="url(#a)"/>
<path d="m1232.1 558.21v165.79" clip-path="url(#a)"/>
<path d="m1232.1 558.21 46.051 165.79" clip-path="url(#a)"/>
<path d="m1324.2 724.01v165.79" clip-path="url(#a)"/>
<path d="m1370.2 724.01v165.79" clip-path="url(#a)"/>
<path d="m1496.8 390.11-80.59 333.9" clip-path="url(#a)"/>
<path d="m1496.8 390.11-34.539 333.9" clip-path="url(#a)"/>
<path d="m1496.8 390.11 11.513 333.9" clip-path="url(#a)"/>
<path d="m1496.8 390.11 103.62 168.1" clip-path="url(#a)"/>
<path d="m1416.3 724.01v165.79" clip-path="url(#a)"/>
<path d="m1462.3 724.01v165.79" clip-path="url(#a)"/>
<path d="m1508.4 724.01v165.79" clip-path="url(#a)"/>
<path d="m1600.5 558.21-46.051 165.79" clip-path="url(#a)"/>
<path d="m1600.5 558.21v165.79" clip-path="url(#a)"/>
<path d="m1600.5 558.21 46.051 165.79" clip-path="url(#a)"/>
<path d="m1554.4 724.01v165.79" clip-path="url(#a)"/>
<path d="m1600.5 724.01v165.79" clip-path="url(#a)"/>
<path d="m1186 724.01v165.79" clip-path="url(#a)"/>
<path d="m1232.1 724.01v165.79" clip-path="url(#a)"/>
<path d="m1278.1 724.01v165.79" clip-path="url(#a)"/>
<path d="m817.59 724.01v165.79" clip-path="url(#a)"/>
<path d="m909.69 724.01-46.051 165.79" clip-path="url(#a)"/>
<path d="m909.69 724.01 46.051 165.79" clip-path="url(#a)"/>
<path d="m909.69 724.01v165.79" clip-path="url(#a)"/>
<path d="m1001.8 724.01v165.79" clip-path="url(#a)"/>
<path d="m1047.8 724.01v165.79" clip-path="url(#a)"/>
<path d="m251.16 390.11-170.39 333.9" clip-path="url(#a)"/>
<path d="m251.16 390.11-78.287 168.1" clip-path="url(#a)"/>
<path d="m251.16 390.11 13.815 333.9" clip-path="url(#a)"/>
<path d="m251.16 390.11 82.892 168.1" clip-path="url(#a)"/>
<path d="m251.16 390.11 151.97 333.9" clip-path="url(#a)"/>
<path d="m518.26 558.21-23.026 165.79" clip-path="url(#a)"/>
<path d="m518.26 558.21 23.026 165.79" clip-path="url(#a)"/>
<path d="m587.33 724.01v165.79" clip-path="url(#a)"/>
<path d="m633.38 724.01v165.79" clip-path="url(#a)"/>
<path d="m679.44 724.01v165.79" clip-path="url(#a)"/>
<path d="m495.23 724.01v165.79" clip-path="url(#a)"/>
<path d="m541.28 724.01v165.79" clip-path="url(#a)"/>
<path d="m80.768 724.01v165.79" clip-path="url(#a)"/>
<path d="m172.87 558.21-46.051 165.79" clip-path="url(#a)"/>
<path d="m172.87 558.21v165.79" clip-path="url(#a)"/>
<path d="m172.87 558.21 46.051 165.79" clip-path="url(#a)"/>
<path d="m264.97 724.01v165.79" clip-path="url(#a)"/>
<path d="m334.05 558.21-23.026 165.79" clip-path="url(#a)"/>
<path d="m334.05 558.21 23.026 165.79" clip-path="url(#a)"/>
<path d="m403.13 724.01v165.79" clip-path="url(#a)"/>
<path d="m311.02 724.01v165.79" clip-path="url(#a)"/>
<path d="m357.08 724.01v165.79" clip-path="url(#a)"/>
<path d="m126.82 724.01v165.79" clip-path="url(#a)"/>
<path d="m172.87 724.01v165.79" clip-path="url(#a)"/>
<path d="m218.92 724.01v165.79" clip-path="url(#a)"/>
<path d="m1247.9 43.532-107.93 680.48" clip-path="url(#a)"/>
<path d="m1247.9 43.532 107.93 175.24" clip-path="url(#a)"/>
<path d="m798.73 43.532-111.4 175.24" clip-path="url(#a)"/>
<path d="m798.73 43.532-27.192 680.48" clip-path="url(#a)"/>
<path d="m798.73 43.532 138.59 514.68" clip-path="url(#a)"/>
<path d="m449.18 724.01v165.79" clip-path="url(#a)"/>
<path d="m725.49 724.01v165.79" clip-path="url(#a)"/>
<path d="m1093.9 724.01v165.79" clip-path="url(#a)"/>
<path d="m1646.5 724.01v165.79" clip-path="url(#a)"/>
</g>
<path d="m823.92 138.05 5.0544-3.2632q2.0163-1.3018 0.71454-3.318l-4.1995-6.5046q-1.3018-2.0163-3.318-0.71454l-5.0544 3.2632q-2.0163 1.3018-0.71454 3.318l4.1995 6.5046q1.3018 2.0163 3.318 0.71454z" clip-path="url(#a)" fill="#fff" stroke="#fff"/>
<g clip-path="url(#a)">
<defs>
<path id="ak" d="m9.8125 72.906h9.8594v-29.891h35.844v29.891h9.8594v-72.906h-9.8594v34.719h-35.844v-34.719h-9.8594z"/>
</defs>
<g transform="translate(821.72 134.64) rotate(-32.847) scale(.08 -.08)">
<use xlink:href="#ak"/>
</g>
</g>
<path d="m870.61 387.58 1.1825-4.2978q0.63667-2.314-1.6773-2.9507l-7.4651-2.0539q-2.314-0.63667-2.9507 1.6773l-1.1825 4.2978q-0.63667 2.314 1.6773 2.9507l7.4651 2.0539q2.314 0.63667 2.9507-1.6773z" clip-path="url(#a)" fill="#fff" stroke="#fff"/>
<g clip-path="url(#a)">
<defs>
<path id="s" d="m9.8125 72.906h9.8594v-64.609h35.5v-8.2969h-45.359z"/>
</defs>
<g transform="translate(866.69 386.5) rotate(-74.616) scale(.08 -.08)">
<use xlink:href="#s"/>
</g>
</g>
<path d="m954.18 304.14 0.2504-6.011q0.099889-2.3979-2.298-2.4978l-7.7358-0.32224q-2.3979-0.099888-2.4978 2.298l-0.2504 6.011q-0.099888 2.3979 2.298 2.4978l7.7358 0.32224q2.3979 0.099889 2.4978-2.298z" clip-path="url(#a)" fill="#fff" stroke="#fff"/>
<g clip-path="url(#a)">
<g transform="translate(950.12 303.97) rotate(-87.615) scale(.08 -.08)">
<use xlink:href="#ak"/>
</g>
</g>
<path d="m1042.7 383.23 1.1469 4.3074q0.61752 2.3192 2.9367 1.7017l7.4818-1.9921q2.3192-0.61752 1.7017-2.9367l-1.1469-4.3074q-0.61752-2.3192-2.9367-1.7017l-7.4818 1.9921q-2.3192 0.61752-1.7017 2.9367z" clip-path="url(#a)" fill="#fff" stroke="#fff"/>
<g clip-path="url(#a)">
<g transform="translate(1046.6 382.18) rotate(75.09) scale(.08 -.08)">
<use xlink:href="#s"/>
</g>
</g>
<path d="m1152 135.68 5.504 2.4292q2.1957 0.96907 3.1647-1.2266l3.1263-7.0833q0.96907-2.1957-1.2266-3.1647l-5.504-2.4292q-2.1957-0.96907-3.1647 1.2266l-3.1263 7.0833q-0.96907 2.1957 1.2266 3.1647z" clip-path="url(#a)" fill="#fff" stroke="#fff"/>
<g clip-path="url(#a)">
<g transform="translate(1153.6 131.96) rotate(23.815) scale(.08 -.08)">
<use xlink:href="#ak"/>
</g>
</g>
<path d="m847.11 388.57 1.8987-5.5386q0.77829-2.2703-1.492-3.0486l-7.3241-2.5108q-2.2703-0.77829-3.0486 1.492l-1.8987 5.5386q-0.77829 2.2703 1.492 3.0486l7.3241 2.5108q2.2703 0.77829 3.0486-1.492z" clip-path="url(#a)" fill="#fff" stroke="#fff"/>
<g clip-path="url(#a)">
<defs>
<path id="af" d="m8.6875 72.906h9.9219v-44.297q0-11.719 4.2344-16.875 4.25-5.1406 13.781-5.1406 9.4688 0 13.719 5.1406 4.25 5.1562 4.25 16.875v44.297h9.9062v-45.516q0-14.25-7.0625-21.531-7.0469-7.2812-20.812-7.2812-13.828 0-20.891 7.2812-7.0469 7.2812-7.0469 21.531z"/>
</defs>
<g transform="translate(843.26 387.25) rotate(-71.078) scale(.08 -.08)">
<use xlink:href="#af"/>
</g>
</g>
<path d="m1019.6 382.12 1.1405 5.7429q0.46748 2.354 2.8215 1.8865l7.5942-1.5081q2.354-0.46748 1.8865-2.8215l-1.1405-5.7429q-0.46748-2.354-2.8215-1.8865l-7.5942 1.5081q-2.354 0.46748-1.8865 2.8215z" clip-path="url(#a)" fill="#fff" stroke="#fff"/>
<g clip-path="url(#a)">
<g transform="translate(1023.6 381.33) rotate(78.768) scale(.08 -.08)">
<use xlink:href="#af"/>
</g>
</g>
<path d="m1184.2 557.98 4.5516 3.0383q1.9961 1.3325 3.3286-0.66364l4.2986-6.4396q1.3325-1.9961-0.66364-3.3286l-4.5516-3.0383q-1.9961-1.3325-3.3286 0.66364l-4.2986 6.4396q-1.3325 1.9961 0.66364 3.3286z" clip-path="url(#a)" fill="#fff" stroke="#fff"/>
<g clip-path="url(#a)">
<defs>
<path id="u" d="m34.188 63.188-13.391-36.281h26.812zm-5.5781 9.7188h11.188l27.781-72.906h-10.25l-6.6406 18.703h-32.859l-6.6406-18.703h-10.406z"/>
</defs>
<g transform="translate(1186.4 554.6) rotate(33.724) scale(.08 -.08)">
<use xlink:href="#u"/>
</g>
</g>
<path d="m469.26 311.17 4.5479-1.7865q2.2338-0.8775 1.3563-3.1113l-2.8308-7.2064q-0.8775-2.2338-3.1113-1.3563l-4.5479 1.7865q-2.2338 0.8775-1.3563 3.1113l2.8308 7.2064q0.8775 2.2338 3.1113 1.3563z" clip-path="url(#a)" fill="#fff" stroke="#fff"/>
<g clip-path="url(#a)">
<defs>
<path id="l" d="m-0.29688 72.906h61.672v-8.3125h-25.875v-64.594h-9.9062v64.594h-25.891z"/>
</defs>
<g transform="translate(467.78 307.39) rotate(-21.446) scale(.08 -.08)">
<use xlink:href="#l"/>
</g>
</g>
<path d="m607.19 393.74 2.4399-4.8985q1.07-2.1483-1.0782-3.2183l-6.9304-3.452q-2.1483-1.07-3.2183 1.0782l-2.4399 4.8985q-1.07 2.1483 1.0782 3.2183l6.9304 3.452q2.1483 1.07 3.2183-1.0782z" clip-path="url(#a)" fill="#fff" stroke="#fff"/>
<g clip-path="url(#a)">
<g transform="translate(603.55 391.93) rotate(-63.522) scale(.08 -.08)">
<use xlink:href="#u"/>
</g>
</g>
<path d="m642.89 475.63 1.196-6.0428q0.46598-2.3543-1.8884-2.8203l-7.5952-1.5033q-2.3543-0.46598-2.8203 1.8884l-1.196 6.0428q-0.46598 2.3543 1.8884 2.8203l7.5952 1.5033q2.3543 0.46598 2.8203-1.8884z" clip-path="url(#a)" fill="#fff" stroke="#fff"/>
<g clip-path="url(#a)">
<defs>
<path id="al" d="m19.672 64.797v-56.688h11.922q15.094 0 22.094 6.8281 7 6.8438 7 21.594 0 14.641-7 21.453t-22.094 6.8125zm-9.8594 8.1094h20.266q21.188 0 31.094-8.8125 9.9219-8.8125 9.9219-27.562 0-18.859-9.9688-27.703-9.9531-8.8281-31.047-8.8281h-20.266z"/>
</defs>
<g transform="translate(638.9 474.84) rotate(-78.805) scale(.08 -.08)">
<use xlink:href="#al"/>
</g>
</g>
<path d="m666.35 474.34 0.48852-4.5752q0.25481-2.3864-2.1316-2.6412l-7.6987-0.82203q-2.3864-0.25481-2.6412 2.1316l-0.48852 4.5752q-0.25481 2.3864 2.1316 2.6412l7.6987 0.82203q2.3864 0.25481 2.6412-2.1316z" clip-path="url(#a)" fill="#fff" stroke="#fff"/>
<g clip-path="url(#a)">
<defs>
<path id="ap" d="m9.8125 72.906h41.891v-8.3125h-32.031v-21.484h28.906v-8.2969h-28.906v-34.812h-9.8594z"/>
</defs>
<g transform="translate(662.31 473.91) rotate(-83.905) scale(.08 -.08)">
<use xlink:href="#ap"/>
</g>
</g>
<path d="m689.62 473.9 0.075364-4.8232q0.037497-2.3997-2.3622-2.4372l-7.7416-0.12096q-2.3997-0.037497-2.4372 2.3622l-0.075364 4.8232q-0.037497 2.3997 2.3622 2.4372l7.7416 0.12097q2.3997 0.037496 2.4372-2.3622z" clip-path="url(#a)" fill="#fff" stroke="#fff"/>
<g clip-path="url(#a)">
<defs>
<path id="ab" d="m19.672 64.797v-27.391h12.406q6.8906 0 10.641 3.5625 3.7656 3.5625 3.7656 10.156 0 6.5469-3.7656 10.109-3.75 3.5625-10.641 3.5625zm-9.8594 8.1094h22.266q12.266 0 18.531-5.5469 6.2812-5.5469 6.2812-16.234 0-10.797-6.2812-16.312-6.2656-5.5156-18.531-5.5156h-12.406v-29.297h-9.8594z"/>
</defs>
<g transform="translate(685.55 473.84) rotate(-89.105) scale(.08 -.08)">
<use xlink:href="#ab"/>
</g>
</g>
<path d="m572.68 476.71 2.4964-5.2961q1.0233-2.1709-1.1476-3.1942l-7.0035-3.3012q-2.1709-1.0233-3.1942 1.1476l-2.4964 5.2961q-1.0233 2.1709 1.1476 3.1942l7.0035 3.3012q2.1709 1.0233 3.1942-1.1476z" clip-path="url(#a)" fill="#fff" stroke="#fff"/>
<g clip-path="url(#a)">
<g transform="translate(569 474.98) rotate(-64.762) scale(.08 -.08)">
<use xlink:href="#af"/>
</g>
</g>
<path d="m765.27 789.26v35.285q0 2.4 2.4 2.4h7.7425q2.4 0 2.4-2.4v-35.285q0-2.4-2.4-2.4h-7.7425q-2.4 0-2.4 2.4z" clip-path="url(#a)" fill="#fff" stroke="#fff"/>
<g clip-path="url(#a)">
<defs>
<path id="d" d="m56.203 29.594v-4.3906h-41.312q0.59375-9.2812 5.5938-14.141t13.938-4.8594q5.1719 0 10.031 1.2656t9.6562 3.8125v-8.5q-4.8438-2.0469-9.9219-3.125t-10.297-1.0781q-13.094 0-20.734 7.6094-7.6406 7.625-7.6406 20.625 0 13.422 7.25 21.297 7.25 7.8906 19.562 7.8906 11.031 0 17.453-7.1094 6.4219-7.0938 6.4219-19.297zm-8.9844 2.6406q-0.09375 7.3594-4.125 11.75-4.0312 4.4062-10.672 4.4062-7.5156 0-12.031-4.25t-5.2031-11.969z"/>
<path id="h" d="m41.109 46.297q-1.5156 0.875-3.2969 1.2812-1.7812 0.42188-3.9219 0.42188-7.625 0-11.703-4.9531t-4.0781-14.234v-28.812h-9.0312v54.688h9.0312v-8.5q2.8438 4.9844 7.375 7.3906 4.5469 2.4219 11.047 2.4219 0.92188 0 2.0469-0.125 1.125-0.10938 2.4844-0.35938z"/>
<path id="k" d="m52 44.188q3.375 6.0625 8.0625 8.9375t11.031 2.875q8.5469 0 13.188-5.9844 4.6406-5.9688 4.6406-17v-33.016h-9.0312v32.719q0 7.8594-2.7969 11.656-2.7812 3.8125-8.4844 3.8125-6.9844 0-11.047-4.6406-4.0469-4.625-4.0469-12.641v-30.906h-9.0312v32.719q0 7.9062-2.7812 11.688t-8.5938 3.7812q-6.8906 0-10.953-4.6562-4.0469-4.6562-4.0469-12.625v-30.906h-9.0312v54.688h9.0312v-8.5q3.0781 5.0312 7.375 7.4219t10.203 2.3906q5.9688 0 10.141-3.0312 4.1719-3.0156 6.1719-8.7812z"/>
<path id="j" d="m9.4219 54.688h8.9844v-54.688h-8.9844zm0 21.297h8.9844v-11.391h-8.9844z"/>
<path id="e" d="m54.891 33.016v-33.016h-8.9844v32.719q0 7.7656-3.0312 11.609-3.0312 3.8594-9.0781 3.8594-7.2812 0-11.484-4.6406-4.2031-4.625-4.2031-12.641v-30.906h-9.0312v54.688h9.0312v-8.5q3.2344 4.9375 7.5938 7.375 4.375 2.4375 10.094 2.4375 9.4219 0 14.25-5.8281 4.8438-5.8281 4.8438-17.156z"/>
<path id="f" d="m34.281 27.484q-10.891 0-15.094-2.4844t-4.2031-8.5q0-4.7812 3.1562-7.5938 3.1562-2.7969 8.5625-2.7969 7.4844 0 12 5.2969t4.5156 14.078v2zm17.922 3.7188v-31.203h-8.9844v8.2969q-3.0781-4.9688-7.6719-7.3438t-11.234-2.375q-8.3906 0-13.359 4.7188-4.9531 4.7188-4.9531 12.625 0 9.2188 6.1719 13.906 6.1875 4.6875 18.438 4.6875h12.609v0.89062q0 6.2031-4.0781 9.5938t-11.453 3.3906q-4.6875 0-9.1406-1.125-4.4375-1.125-8.5312-3.375v8.3125q4.9219 1.9062 9.5625 2.8438 4.6406 0.95312 9.0312 0.95312 11.875 0 17.734-6.1562 5.8594-6.1406 5.8594-18.641z"/>
<path id="i" d="m9.4219 75.984h8.9844v-75.984h-8.9844z"/>
</defs>
<g transform="translate(769.33 789.26) rotate(90) scale(.08 -.08)">
<use xlink:href="#l"/>
<use x="60.818359" xlink:href="#d"/>
<use x="122.341797" xlink:href="#h"/>
<use x="163.439453" xlink:href="#k"/>
<use x="260.851562" xlink:href="#j"/>
<use x="288.634766" xlink:href="#e"/>
<use x="352.013672" xlink:href="#f"/>
<use x="413.292969" xlink:href="#i"/>
</g>
</g>
<path d="m880.94 647 3.204-4.4365q1.4051-1.9457-0.54055-3.3508l-6.2768-4.533q-1.9457-1.4051-3.3508 0.54054l-3.204 4.4365q-1.4051 1.9457 0.54055 3.3508l6.2768 4.533q1.9457 1.4051 3.3508-0.54055z" clip-path="url(#a)" fill="#fff" stroke="#fff"/>
<g clip-path="url(#a)">
<g transform="translate(877.64 644.62) rotate(-54.164) scale(.08 -.08)">
<use xlink:href="#u"/>
</g>
</g>
<path d="m929.19 645.18 1.0126-6.0762q0.39454-2.3673-1.9728-2.7619l-7.6372-1.2728q-2.3673-0.39454-2.7619 1.9728l-1.0126 6.0762q-0.39454 2.3673 1.9728 2.7619l7.6372 1.2728q2.3673 0.39454 2.7619-1.9728z" clip-path="url(#a)" fill="#fff" stroke="#fff"/>
<g clip-path="url(#a)">
<g transform="translate(925.18 644.51) rotate(-80.538) scale(.08 -.08)">
<use xlink:href="#al"/>
</g>
</g>
<path d="m929.18 645.2 1.019-6.1144q0.39454-2.3673-1.9728-2.7619l-7.6372-1.2728q-2.3673-0.39454-2.7619 1.9728l-1.019 6.1144q-0.39454 2.3674 1.9728 2.7619l7.6372 1.2728q2.3673 0.39454 2.7619-1.9728z" clip-path="url(#a)" fill="#fff" stroke="#fff"/>
<g clip-path="url(#a)">
<defs>
<path id="au" d="m59.516 10.406v19.578h-16.109v8.1094h25.875v-31.312q-5.7031-4.0469-12.594-6.125-6.875-2.0781-14.688-2.0781-17.094 0-26.75 9.9844-9.6406 10-9.6406 27.812 0 17.875 9.6406 27.859 9.6562 9.9844 26.75 9.9844 7.125 0 13.547-1.7656 6.4219-1.75 11.844-5.1719v-10.5q-5.4688 4.6406-11.625 6.9844t-12.938 2.3438q-13.391 0-20.109-7.4688-6.7031-7.4688-6.7031-22.266 0-14.75 6.7031-22.219 6.7188-7.4688 20.109-7.4688 5.2188 0 9.3125 0.90625 4.1094 0.90625 7.375 2.8125z"/>
</defs>
<g transform="translate(925.18 644.53) rotate(-80.538) scale(.08 -.08)">
<use xlink:href="#au"/>
</g>
</g>
<path d="m962.6 640.51 2.2326 5.7412q0.86983 2.2368 3.1067 1.367l7.2161-2.8061q2.2368-0.86983 1.367-3.1067l-2.2326-5.7412q-0.86983-2.2368-3.1067-1.367l-7.2161 2.8061q-2.2368 0.86983-1.367 3.1067z" clip-path="url(#a)" fill="#fff" stroke="#fff"/>
<g clip-path="url(#a)">
<g transform="translate(966.39 639.04) rotate(68.751) scale(.08 -.08)">
<use xlink:href="#al"/>
</g>
</g>
<path d="m986.03 642.58 2.6756 4.0137q1.3312 1.997 3.3282 0.66573l6.4423-4.2946q1.997-1.3312 0.66573-3.3282l-2.6756-4.0137q-1.3312-1.997-3.3282-0.66573l-6.4423 4.2946q-1.997 1.3312-0.66573 3.3282z" clip-path="url(#a)" fill="#fff" stroke="#fff"/>
<g clip-path="url(#a)">
<g transform="translate(989.41 640.33) rotate(56.311) scale(.08 -.08)">
<use xlink:href="#ab"/>
</g>
</g>
<path d="m1133.7 789.26v35.285q0 2.4 2.4 2.4h7.7425q2.4 0 2.4-2.4v-35.285q0-2.4-2.4-2.4h-7.7425q-2.4 0-2.4 2.4z" clip-path="url(#a)" fill="#fff" stroke="#fff"/>
<g clip-path="url(#a)">
<g transform="translate(1137.7 789.26) rotate(90) scale(.08 -.08)">
<use xlink:href="#l"/>
<use x="60.818359" xlink:href="#d"/>
<use x="122.341797" xlink:href="#h"/>
<use x="163.439453" xlink:href="#k"/>
<use x="260.851562" xlink:href="#j"/>
<use x="288.634766" xlink:href="#e"/>
<use x="352.013672" xlink:href="#f"/>
<use x="413.292969" xlink:href="#i"/>
</g>
</g>
<path d="m1298.9 393.21 1.8746-5.1414q0.82212-2.2548-1.4327-3.0769l-7.2741-2.6522q-2.2548-0.82212-3.0769 1.4327l-1.8746 5.1414q-0.82212 2.2548 1.4327 3.0769l7.2741 2.6522q2.2548 0.82212 3.0769-1.4327z" clip-path="url(#a)" fill="#fff" stroke="#fff"/>
<g clip-path="url(#a)">
<g transform="translate(1295.1 391.82) rotate(-69.968) scale(.08 -.08)">
<use xlink:href="#u"/>
</g>
</g>
<path d="m1346.1 474.08 0.28777-4.5922q0.1501-2.3953-2.2452-2.5454l-7.7273-0.48423q-2.3953-0.1501-2.5454 2.2452l-0.28777 4.5922q-0.1501 2.3953 2.2452 2.5454l7.7273 0.48423q2.3953 0.1501 2.5454-2.2452z" clip-path="url(#a)" fill="#fff" stroke="#fff"/>
<g clip-path="url(#a)">
<g transform="translate(1342 473.82) rotate(-86.414) scale(.08 -.08)">
<use xlink:href="#ap"/>
</g>
</g>
<path d="m1356.7 469.16 0.13734 4.8218q0.068333 2.399 2.4674 2.3307l7.7394-0.22045q2.399-0.068334 2.3307-2.4674l-0.13734-4.8218q-0.068334-2.399-2.4674-2.3307l-7.7394 0.22045q-2.399 0.068334-2.3307 2.4674z" clip-path="url(#a)" fill="#fff" stroke="#fff"/>
<g clip-path="url(#a)">
<g transform="translate(1360.7 469.04) rotate(88.368) scale(.08 -.08)">
<use xlink:href="#ab"/>
</g>
</g>
<path d="m1419.8 306.32 3.4779 4.2252q1.5252 1.853 3.3782 0.32775l5.9779-4.9205q1.853-1.5252 0.32775-3.3783l-3.4779-4.2252q-1.5252-1.853-3.3783-0.32775l-5.9779 4.9205q-1.853 1.5252-0.32775 3.3783z" clip-path="url(#a)" fill="#fff" stroke="#fff"/>
<g clip-path="url(#a)">
<g transform="translate(1422.9 303.73) rotate(50.541) scale(.08 -.08)">
<use xlink:href="#u"/>
</g>
</g>
<path d="m1214.4 645.22 1.3529-4.8706q0.64231-2.3125-1.6701-2.9548l-7.4601-2.0721q-2.3125-0.64231-2.9548 1.6701l-1.3529 4.8706q-0.64231 2.3125 1.6701 2.9548l7.4601 2.0721q2.3125 0.64231 2.9548-1.6701z" clip-path="url(#a)" fill="#fff" stroke="#fff"/>
<g clip-path="url(#a)">
<defs>
<path id="q" d="m9.8125 72.906h46.094v-8.3125h-36.234v-21.578h34.719v-8.2969h-34.719v-26.422h37.109v-8.2969h-46.969z"/>
</defs>
<g transform="translate(1210.5 644.14) rotate(-74.477) scale(.08 -.08)">
<use xlink:href="#q"/>
</g>
</g>
<path d="m1225.8 638.58v5.055q0 2.4 2.4 2.4h7.7425q2.4 0 2.4-2.4v-5.055q0-2.4-2.4-2.4h-7.7425q-2.4 0-2.4 2.4z" clip-path="url(#a)" fill="#fff" stroke="#fff"/>
<g clip-path="url(#a)">
<g transform="translate(1229.8 638.58) rotate(90) scale(.08 -.08)">
<use xlink:href="#q"/>
</g>
</g>
<path d="m1248.3 640.1 1.495 5.3825q0.64231 2.3125 2.9548 1.6701l7.4601-2.0721q2.3125-0.64231 1.6701-2.9548l-1.495-5.3825q-0.64231-2.3125-2.9548-1.6701l-7.4601 2.0721q-2.3125 0.64231-1.6701 2.9548z" clip-path="url(#a)" fill="#fff" stroke="#fff"/>
<g clip-path="url(#a)">
<defs>
<path id="t" d="m64.406 67.281v-10.391q-4.9844 4.6406-10.625 6.9219-5.6406 2.2969-11.984 2.2969-12.5 0-19.141-7.6406t-6.6406-22.094q0-14.406 6.6406-22.047t19.141-7.6406q6.3438 0 11.984 2.2969t10.625 6.9375v-10.312q-5.1719-3.5156-10.969-5.2812-5.7812-1.75-12.219-1.75-16.562 0-26.094 10.125-9.5156 10.141-9.5156 27.672 0 17.578 9.5156 27.703 9.5312 10.141 26.094 10.141 6.5312 0 12.312-1.7344 5.7969-1.7344 10.875-5.2031z"/>
</defs>
<g transform="translate(1252.2 639.01) rotate(74.477) scale(.08 -.08)">
<use xlink:href="#t"/>
</g>
</g>
<path d="m1317.9 789.26v35.285q0 2.4 2.4 2.4h7.7425q2.4 0 2.4-2.4v-35.285q0-2.4-2.4-2.4h-7.7425q-2.4 0-2.4 2.4z" clip-path="url(#a)" fill="#fff" stroke="#fff"/>
<g clip-path="url(#a)">
<g transform="translate(1321.9 789.26) rotate(90) scale(.08 -.08)">
<use xlink:href="#l"/>
<use x="60.818359" xlink:href="#d"/>
<use x="122.341797" xlink:href="#h"/>
<use x="163.439453" xlink:href="#k"/>
<use x="260.851562" xlink:href="#j"/>
<use x="288.634766" xlink:href="#e"/>
<use x="352.013672" xlink:href="#f"/>
<use x="413.292969" xlink:href="#i"/>
</g>
</g>
<path d="m1363.9 789.26v35.285q0 2.4 2.4 2.4h7.7425q2.4 0 2.4-2.4v-35.285q0-2.4-2.4-2.4h-7.7425q-2.4 0-2.4 2.4z" clip-path="url(#a)" fill="#fff" stroke="#fff"/>
<g clip-path="url(#a)">
<g transform="translate(1368 789.26) rotate(90) scale(.08 -.08)">
<use xlink:href="#l"/>
<use x="60.818359" xlink:href="#d"/>
<use x="122.341797" xlink:href="#h"/>
<use x="163.439453" xlink:href="#k"/>
<use x="260.851562" xlink:href="#j"/>
<use x="288.634766" xlink:href="#e"/>
<use x="352.013672" xlink:href="#f"/>
<use x="413.292969" xlink:href="#i"/>
</g>
</g>
<path d="m1462 561.23 1.3042-5.4036q0.5631-2.333-1.7699-2.8961l-7.5264-1.8166q-2.333-0.5631-2.8961 1.7699l-1.3042 5.4036q-0.5631 2.333 1.7699 2.8961l7.5264 1.8166q2.333 0.5631 2.8961-1.7699z" clip-path="url(#a)" fill="#fff" stroke="#fff"/>
<g clip-path="url(#a)">
<defs>
<path id="x" d="m44.391 34.188q3.1719-1.0781 6.1719-4.5938t6.0312-9.6719l10.016-19.922h-10.609l-9.3125 18.703q-3.625 7.3281-7.0156 9.7188t-9.25 2.3906h-10.75v-30.812h-9.8594v72.906h22.266q12.5 0 18.656-5.2344 6.1562-5.2188 6.1562-15.766 0-6.8906-3.2031-11.438-3.2031-4.5312-9.2969-6.2812zm-24.719 30.609v-25.875h12.406q7.125 0 10.766 3.2969t3.6406 9.6875-3.6406 9.6406-10.766 3.25z"/>
</defs>
<g transform="translate(1458 560.28) rotate(-76.43) scale(.08 -.08)">
<use xlink:href="#x"/>
</g>
</g>
<path d="m1485.6 560.22 0.52012-5.0282q0.24694-2.3873-2.1403-2.6342l-7.7014-0.79664q-2.3873-0.24694-2.6342 2.1403l-0.52012 5.0282q-0.24694 2.3873 2.1403 2.6342l7.7014 0.79664q2.3873 0.24694 2.6342-2.1403z" clip-path="url(#a)" fill="#fff" stroke="#fff"/>
<g clip-path="url(#a)">
<g transform="translate(1481.5 559.8) rotate(-84.094) scale(.08 -.08)">
<use xlink:href="#q"/>
</g>
</g>
<path d="m1496.2 554.48 0.1925 5.5829q0.082704 2.3986 2.4813 2.3159l7.7379-0.26681q2.3986-0.082704 2.3159-2.4813l-0.1925-5.5829q-0.082704-2.3986-2.4813-2.3159l-7.7379 0.26681q-2.3986 0.082704-2.3159 2.4813z" clip-path="url(#a)" fill="#fff" stroke="#fff"/>
<g clip-path="url(#a)">
<g transform="translate(1500.3 554.34) rotate(88.025) scale(.08 -.08)">
<use xlink:href="#t"/>
</g>
</g>
<path d="m1542 475.3 2.6524 4.3032q1.2593 2.0431 3.3024 0.78374l6.591-4.0626q2.0431-1.2593 0.78374-3.3024l-2.6524-4.3032q-1.2593-2.0431-3.3024-0.78374l-6.591 4.0626q-2.0431 1.2593-0.78374 3.3024z" clip-path="url(#a)" fill="#fff" stroke="#fff"/>
<g clip-path="url(#a)">
<g transform="translate(1545.4 473.17) rotate(58.351) scale(.08 -.08)">
<use xlink:href="#q"/>
</g>
</g>
<path d="m1410 789.26v35.285q0 2.4 2.4 2.4h7.7425q2.4 0 2.4-2.4v-35.285q0-2.4-2.4-2.4h-7.7425q-2.4 0-2.4 2.4z" clip-path="url(#a)" fill="#fff" stroke="#fff"/>
<g clip-path="url(#a)">
<g transform="translate(1414 789.26) rotate(90) scale(.08 -.08)">
<use xlink:href="#l"/>
<use x="60.818359" xlink:href="#d"/>
<use x="122.341797" xlink:href="#h"/>
<use x="163.439453" xlink:href="#k"/>
<use x="260.851562" xlink:href="#j"/>
<use x="288.634766" xlink:href="#e"/>
<use x="352.013672" xlink:href="#f"/>
<use x="413.292969" xlink:href="#i"/>
</g>
</g>
<path d="m1456 789.26v35.285q0 2.4 2.4 2.4h7.7425q2.4 0 2.4-2.4v-35.285q0-2.4-2.4-2.4h-7.7425q-2.4 0-2.4 2.4z" clip-path="url(#a)" fill="#fff" stroke="#fff"/>
<g clip-path="url(#a)">
<g transform="translate(1460.1 789.26) rotate(90) scale(.08 -.08)">
<use xlink:href="#l"/>
<use x="60.818359" xlink:href="#d"/>
<use x="122.341797" xlink:href="#h"/>
<use x="163.439453" xlink:href="#k"/>
<use x="260.851562" xlink:href="#j"/>
<use x="288.634766" xlink:href="#e"/>
<use x="352.013672" xlink:href="#f"/>
<use x="413.292969" xlink:href="#i"/>
</g>
</g>
<path d="m1502.1 789.26v35.285q0 2.4 2.4 2.4h7.7425q2.4 0 2.4-2.4v-35.285q0-2.4-2.4-2.4h-7.7425q-2.4 0-2.4 2.4z" clip-path="url(#a)" fill="#fff" stroke="#fff"/>
<g clip-path="url(#a)">
<g transform="translate(1506.2 789.26) rotate(90) scale(.08 -.08)">
<use xlink:href="#l"/>
<use x="60.818359" xlink:href="#d"/>
<use x="122.341797" xlink:href="#h"/>
<use x="163.439453" xlink:href="#k"/>
<use x="260.851562" xlink:href="#j"/>
<use x="288.634766" xlink:href="#e"/>
<use x="352.013672" xlink:href="#f"/>
<use x="413.292969" xlink:href="#i"/>
</g>
</g>
<path d="m1582.7 645.47 1.4877-5.356q0.64231-2.3125-1.6701-2.9548l-7.4601-2.0721q-2.3125-0.64231-2.9548 1.6701l-1.4877 5.356q-0.64231 2.3125 1.6701 2.9548l7.4601 2.0721q2.3125 0.64231 2.9548-1.6701z" clip-path="url(#a)" fill="#fff" stroke="#fff"/>
<g clip-path="url(#a)">
<g transform="translate(1578.8 644.38) rotate(-74.477) scale(.08 -.08)">
<use xlink:href="#x"/>
</g>
</g>
<path d="m1594.2 638.32v5.5862q0 2.4 2.4 2.4h7.7425q2.4 0 2.4-2.4v-5.5862q0-2.4-2.4-2.4h-7.7425q-2.4 0-2.4 2.4z" clip-path="url(#a)" fill="#fff" stroke="#fff"/>
<g clip-path="url(#a)">
<g transform="translate(1598.3 638.32) rotate(90) scale(.08 -.08)">
<use xlink:href="#t"/>
</g>
</g>
<path d="m1616.7 639.97 1.567 5.6414q0.64231 2.3125 2.9548 1.6701l7.4601-2.0721q2.3125-0.64231 1.6701-2.9548l-1.567-5.6414q-0.64231-2.3125-2.9548-1.6701l-7.4601 2.0721q-2.3125 0.64231-1.6701 2.9548z" clip-path="url(#a)" fill="#fff" stroke="#fff"/>
<g clip-path="url(#a)">
<g transform="translate(1620.6 638.88) rotate(74.477) scale(.08 -.08)">
<use xlink:href="#af"/>
</g>
</g>
<path d="m1548.1 789.26v35.285q0 2.4 2.4 2.4h7.7425q2.4 0 2.4-2.4v-35.285q0-2.4-2.4-2.4h-7.7425q-2.4 0-2.4 2.4z" clip-path="url(#a)" fill="#fff" stroke="#fff"/>
<g clip-path="url(#a)">
<g transform="translate(1552.2 789.26) rotate(90) scale(.08 -.08)">
<use xlink:href="#l"/>
<use x="60.818359" xlink:href="#d"/>
<use x="122.341797" xlink:href="#h"/>
<use x="163.439453" xlink:href="#k"/>
<use x="260.851562" xlink:href="#j"/>
<use x="288.634766" xlink:href="#e"/>
<use x="352.013672" xlink:href="#f"/>
<use x="413.292969" xlink:href="#i"/>
</g>
</g>
<path d="m1594.2 789.26v35.285q0 2.4 2.4 2.4h7.7425q2.4 0 2.4-2.4v-35.285q0-2.4-2.4-2.4h-7.7425q-2.4 0-2.4 2.4z" clip-path="url(#a)" fill="#fff" stroke="#fff"/>
<g clip-path="url(#a)">
<g transform="translate(1598.3 789.26) rotate(90) scale(.08 -.08)">
<use xlink:href="#l"/>
<use x="60.818359" xlink:href="#d"/>
<use x="122.341797" xlink:href="#h"/>
<use x="163.439453" xlink:href="#k"/>
<use x="260.851562" xlink:href="#j"/>
<use x="288.634766" xlink:href="#e"/>
<use x="352.013672" xlink:href="#f"/>
<use x="413.292969" xlink:href="#i"/>
</g>
</g>
<path d="m1179.7 789.26v35.285q0 2.4 2.4 2.4h7.7425q2.4 0 2.4-2.4v-35.285q0-2.4-2.4-2.4h-7.7425q-2.4 0-2.4 2.4z" clip-path="url(#a)" fill="#fff" stroke="#fff"/>
<g clip-path="url(#a)">
<g transform="translate(1183.8 789.26) rotate(90) scale(.08 -.08)">
<use xlink:href="#l"/>
<use x="60.818359" xlink:href="#d"/>
<use x="122.341797" xlink:href="#h"/>
<use x="163.439453" xlink:href="#k"/>
<use x="260.851562" xlink:href="#j"/>
<use x="288.634766" xlink:href="#e"/>
<use x="352.013672" xlink:href="#f"/>
<use x="413.292969" xlink:href="#i"/>
</g>
</g>
<path d="m1225.8 789.26v35.285q0 2.4 2.4 2.4h7.7425q2.4 0 2.4-2.4v-35.285q0-2.4-2.4-2.4h-7.7425q-2.4 0-2.4 2.4z" clip-path="url(#a)" fill="#fff" stroke="#fff"/>
<g clip-path="url(#a)">
<g transform="translate(1229.8 789.26) rotate(90) scale(.08 -.08)">
<use xlink:href="#l"/>
<use x="60.818359" xlink:href="#d"/>
<use x="122.341797" xlink:href="#h"/>
<use x="163.439453" xlink:href="#k"/>
<use x="260.851562" xlink:href="#j"/>
<use x="288.634766" xlink:href="#e"/>
<use x="352.013672" xlink:href="#f"/>
<use x="413.292969" xlink:href="#i"/>
</g>
</g>
<path d="m1271.8 789.26v35.285q0 2.4 2.4 2.4h7.7425q2.4 0 2.4-2.4v-35.285q0-2.4-2.4-2.4h-7.7425q-2.4 0-2.4 2.4z" clip-path="url(#a)" fill="#fff" stroke="#fff"/>
<g clip-path="url(#a)">
<g transform="translate(1275.9 789.26) rotate(90) scale(.08 -.08)">
<use xlink:href="#l"/>
<use x="60.818359" xlink:href="#d"/>
<use x="122.341797" xlink:href="#h"/>
<use x="163.439453" xlink:href="#k"/>
<use x="260.851562" xlink:href="#j"/>
<use x="288.634766" xlink:href="#e"/>
<use x="352.013672" xlink:href="#f"/>
<use x="413.292969" xlink:href="#i"/>
</g>
</g>
<path d="m811.32 789.26v35.285q0 2.4 2.4 2.4h7.7425q2.4 0 2.4-2.4v-35.285q0-2.4-2.4-2.4h-7.7425q-2.4 0-2.4 2.4z" clip-path="url(#a)" fill="#fff" stroke="#fff"/>
<g clip-path="url(#a)">
<g transform="translate(815.38 789.26) rotate(90) scale(.08 -.08)">
<use xlink:href="#l"/>
<use x="60.818359" xlink:href="#d"/>
<use x="122.341797" xlink:href="#h"/>
<use x="163.439453" xlink:href="#k"/>
<use x="260.851562" xlink:href="#j"/>
<use x="288.634766" xlink:href="#e"/>
<use x="352.013672" xlink:href="#f"/>
<use x="413.292969" xlink:href="#i"/>
</g>
</g>
<path d="m887.99 825.58 9.4433-33.998q0.64231-2.3125-1.6701-2.9548l-7.4601-2.0721q-2.3125-0.64231-2.9548 1.6701l-9.4433 33.998q-0.64231 2.3125 1.6701 2.9548l7.4601 2.0721q2.3125 0.64231 2.9548-1.6701z" clip-path="url(#a)" fill="#fff" stroke="#fff"/>
<g clip-path="url(#a)">
<g transform="translate(884.07 824.49) rotate(-74.477) scale(.08 -.08)">
<use xlink:href="#l"/>
<use x="60.818359" xlink:href="#d"/>
<use x="122.341797" xlink:href="#h"/>
<use x="163.439453" xlink:href="#k"/>
<use x="260.851562" xlink:href="#j"/>
<use x="288.634766" xlink:href="#e"/>
<use x="352.013672" xlink:href="#f"/>
<use x="413.292969" xlink:href="#i"/>
</g>
</g>
<path d="m921.95 791.58 9.4433 33.998q0.64231 2.3125 2.9548 1.6701l7.4601-2.0721q2.3125-0.64231 1.6701-2.9548l-9.4433-33.998q-0.64231-2.3125-2.9548-1.6701l-7.4601 2.0721q-2.3125 0.64231-1.6701 2.9548z" clip-path="url(#a)" fill="#fff" stroke="#fff"/>
<g clip-path="url(#a)">
<g transform="translate(925.87 790.5) rotate(74.477) scale(.08 -.08)">
<use xlink:href="#l"/>
<use x="60.818359" xlink:href="#d"/>
<use x="122.341797" xlink:href="#h"/>
<use x="163.439453" xlink:href="#k"/>
<use x="260.851562" xlink:href="#j"/>
<use x="288.634766" xlink:href="#e"/>
<use x="352.013672" xlink:href="#f"/>
<use x="413.292969" xlink:href="#i"/>
</g>
</g>
<path d="m903.42 789.26v35.285q0 2.4 2.4 2.4h7.7425q2.4 0 2.4-2.4v-35.285q0-2.4-2.4-2.4h-7.7425q-2.4 0-2.4 2.4z" clip-path="url(#a)" fill="#fff" stroke="#fff"/>
<g clip-path="url(#a)">
<g transform="translate(907.48 789.26) rotate(90) scale(.08 -.08)">
<use xlink:href="#l"/>
<use x="60.818359" xlink:href="#d"/>
<use x="122.341797" xlink:href="#h"/>
<use x="163.439453" xlink:href="#k"/>
<use x="260.851562" xlink:href="#j"/>
<use x="288.634766" xlink:href="#e"/>
<use x="352.013672" xlink:href="#f"/>
<use x="413.292969" xlink:href="#i"/>
</g>
</g>
<path d="m995.52 789.26v35.285q0 2.4 2.4 2.4h7.7425q2.4 0 2.4-2.4v-35.285q0-2.4-2.4-2.4h-7.7425q-2.4 0-2.4 2.4z" clip-path="url(#a)" fill="#fff" stroke="#fff"/>
<g clip-path="url(#a)">
<g transform="translate(999.59 789.26) rotate(90) scale(.08 -.08)">
<use xlink:href="#l"/>
<use x="60.818359" xlink:href="#d"/>
<use x="122.341797" xlink:href="#h"/>
<use x="163.439453" xlink:href="#k"/>
<use x="260.851562" xlink:href="#j"/>
<use x="288.634766" xlink:href="#e"/>
<use x="352.013672" xlink:href="#f"/>
<use x="413.292969" xlink:href="#i"/>
</g>
</g>
<path d="m1041.6 789.26v35.285q0 2.4 2.4 2.4h7.7425q2.4 0 2.4-2.4v-35.285q0-2.4-2.4-2.4h-7.7425q-2.4 0-2.4 2.4z" clip-path="url(#a)" fill="#fff" stroke="#fff"/>
<g clip-path="url(#a)">
<g transform="translate(1045.6 789.26) rotate(90) scale(.08 -.08)">
<use xlink:href="#l"/>
<use x="60.818359" xlink:href="#d"/>
<use x="122.341797" xlink:href="#h"/>
<use x="163.439453" xlink:href="#k"/>
<use x="260.851562" xlink:href="#j"/>
<use x="288.634766" xlink:href="#e"/>
<use x="352.013672" xlink:href="#f"/>
<use x="413.292969" xlink:href="#i"/>
</g>
</g>
<path d="m170.29 562.39 2.5267-4.9513q1.0909-2.1377-1.0468-3.2286l-6.8964-3.5193q-2.1377-1.0909-3.2286 1.0468l-2.5267 4.9513q-1.0909 2.1377 1.0468 3.2286l6.8964 3.5193q2.1377 1.0909 3.2286-1.0468z" clip-path="url(#a)" fill="#fff" stroke="#fff"/>
<g clip-path="url(#a)">
<g transform="translate(166.67 560.54) rotate(-62.964) scale(.08 -.08)">
<use xlink:href="#x"/>
</g>
</g>
<path d="m216.63 479.1 2.1341-4.5824q1.0132-2.1756-1.1624-3.1889l-7.0187-3.2687q-2.1756-1.0132-3.1889 1.1624l-2.1341 4.5824q-1.0132 2.1756 1.1624 3.1889l7.0187 3.2687q2.1756 1.0132 3.1889-1.1624z" clip-path="url(#a)" fill="#fff" stroke="#fff"/>
<g clip-path="url(#a)">
<g transform="translate(212.95 477.39) rotate(-65.028) scale(.08 -.08)">
<use xlink:href="#q"/>
</g>
</g>
<path d="m251.68 554.54 0.2298 5.554q0.099219 2.3979 2.4972 2.2987l7.7359-0.32008q2.3979-0.099218 2.2987-2.4972l-0.2298-5.554q-0.099218-2.3979-2.4972-2.2987l-7.7359 0.32008q-2.3979 0.099219-2.2987 2.4972z" clip-path="url(#a)" fill="#fff" stroke="#fff"/>
<g clip-path="url(#a)">
<g transform="translate(255.75 554.37) rotate(87.631) scale(.08 -.08)">
<use xlink:href="#x"/>
</g>
</g>
<path d="m285.86 474.67 2.2356 4.5338q1.0614 2.1525 3.214 1.0911l6.9441-3.4242q2.1525-1.0614 1.0911-3.214l-2.2356-4.5338q-1.0614-2.1525-3.214-1.0911l-6.9441 3.4242q-2.1525 1.0614-1.0911 3.214z" clip-path="url(#a)" fill="#fff" stroke="#fff"/>
<g clip-path="url(#a)">
<g transform="translate(289.51 472.87) rotate(63.752) scale(.08 -.08)">
<use xlink:href="#q"/>
</g>
</g>
<path d="m320.28 557.11 2.3141 5.0844q0.9942 2.1844 3.1786 1.1902l7.0469-3.2073q2.1844-0.9942 1.1902-3.1786l-2.3141-5.0844q-0.9942-2.1844-3.1786-1.1902l-7.0469 3.2073q-2.1844 0.9942-1.1902 3.1786z" clip-path="url(#a)" fill="#fff" stroke="#fff"/>
<g clip-path="url(#a)">
<g transform="translate(323.98 555.43) rotate(65.528) scale(.08 -.08)">
<use xlink:href="#t"/>
</g>
</g>
<path d="m512.61 644.48 0.69537-5.0069q0.33014-2.3772-2.047-2.7073l-7.6689-1.0651q-2.3772-0.33014-2.7073 2.047l-0.69537 5.0069q-0.33014 2.3772 2.047 2.7073l7.6689 1.0651q2.3772 0.33014 2.7073-2.047z" clip-path="url(#a)" fill="#fff" stroke="#fff"/>
<g clip-path="url(#a)">
<g transform="translate(508.58 643.92) rotate(-82.093) scale(.08 -.08)">
<use xlink:href="#q"/>
</g>
</g>
<path d="m523.17 639.21 0.76845 5.5331q0.33014 2.3772 2.7073 2.047l7.6689-1.0651q2.3772-0.33014 2.047-2.7073l-0.76845-5.5331q-0.33014-2.3772-2.7073-2.047l-7.6689 1.0651q-2.3772 0.33014-2.047 2.7073z" clip-path="url(#a)" fill="#fff" stroke="#fff"/>
<g clip-path="url(#a)">
<g transform="translate(527.2 638.65) rotate(82.093) scale(.08 -.08)">
<use xlink:href="#t"/>
</g>
</g>
<path d="m581.06 789.26v35.285q0 2.4 2.4 2.4h7.7425q2.4 0 2.4-2.4v-35.285q0-2.4-2.4-2.4h-7.7425q-2.4 0-2.4 2.4z" clip-path="url(#a)" fill="#fff" stroke="#fff"/>
<g clip-path="url(#a)">
<g transform="translate(585.13 789.26) rotate(90) scale(.08 -.08)">
<use xlink:href="#l"/>
<use x="60.818359" xlink:href="#d"/>
<use x="122.341797" xlink:href="#h"/>
<use x="163.439453" xlink:href="#k"/>
<use x="260.851562" xlink:href="#j"/>
<use x="288.634766" xlink:href="#e"/>
<use x="352.013672" xlink:href="#f"/>
<use x="413.292969" xlink:href="#i"/>
</g>
</g>
<path d="m627.11 789.26v35.285q0 2.4 2.4 2.4h7.7425q2.4 0 2.4-2.4v-35.285q0-2.4-2.4-2.4h-7.7425q-2.4 0-2.4 2.4z" clip-path="url(#a)" fill="#fff" stroke="#fff"/>
<g clip-path="url(#a)">
<g transform="translate(631.18 789.26) rotate(90) scale(.08 -.08)">
<use xlink:href="#l"/>
<use x="60.818359" xlink:href="#d"/>
<use x="122.341797" xlink:href="#h"/>
<use x="163.439453" xlink:href="#k"/>
<use x="260.851562" xlink:href="#j"/>
<use x="288.634766" xlink:href="#e"/>
<use x="352.013672" xlink:href="#f"/>
<use x="413.292969" xlink:href="#i"/>
</g>
</g>
<path d="m673.16 789.26v35.285q0 2.4 2.4 2.4h7.7425q2.4 0 2.4-2.4v-35.285q0-2.4-2.4-2.4h-7.7425q-2.4 0-2.4 2.4z" clip-path="url(#a)" fill="#fff" stroke="#fff"/>
<g clip-path="url(#a)">
<g transform="translate(677.23 789.26) rotate(90) scale(.08 -.08)">
<use xlink:href="#l"/>
<use x="60.818359" xlink:href="#d"/>
<use x="122.341797" xlink:href="#h"/>
<use x="163.439453" xlink:href="#k"/>
<use x="260.851562" xlink:href="#j"/>
<use x="288.634766" xlink:href="#e"/>
<use x="352.013672" xlink:href="#f"/>
<use x="413.292969" xlink:href="#i"/>
</g>
</g>
<path d="m488.96 789.26v35.285q0 2.4 2.4 2.4h7.7425q2.4 0 2.4-2.4v-35.285q0-2.4-2.4-2.4h-7.7425q-2.4 0-2.4 2.4z" clip-path="url(#a)" fill="#fff" stroke="#fff"/>
<g clip-path="url(#a)">
<g transform="translate(493.02 789.26) rotate(90) scale(.08 -.08)">
<use xlink:href="#l"/>
<use x="60.818359" xlink:href="#d"/>
<use x="122.341797" xlink:href="#h"/>
<use x="163.439453" xlink:href="#k"/>
<use x="260.851562" xlink:href="#j"/>
<use x="288.634766" xlink:href="#e"/>
<use x="352.013672" xlink:href="#f"/>
<use x="413.292969" xlink:href="#i"/>
</g>
</g>
<path d="m535.01 789.26v35.285q0 2.4 2.4 2.4h7.7425q2.4 0 2.4-2.4v-35.285q0-2.4-2.4-2.4h-7.7425q-2.4 0-2.4 2.4z" clip-path="url(#a)" fill="#fff" stroke="#fff"/>
<g clip-path="url(#a)">
<g transform="translate(539.07 789.26) rotate(90) scale(.08 -.08)">
<use xlink:href="#l"/>
<use x="60.818359" xlink:href="#d"/>
<use x="122.341797" xlink:href="#h"/>
<use x="163.439453" xlink:href="#k"/>
<use x="260.851562" xlink:href="#j"/>
<use x="288.634766" xlink:href="#e"/>
<use x="352.013672" xlink:href="#f"/>
<use x="413.292969" xlink:href="#i"/>
</g>
</g>
<path d="m74.497 789.26v35.285q0 2.4 2.4 2.4h7.7425q2.4 0 2.4-2.4v-35.285q0-2.4-2.4-2.4h-7.7425q-2.4 0-2.4 2.4z" clip-path="url(#a)" fill="#fff" stroke="#fff"/>
<g clip-path="url(#a)">
<g transform="translate(78.56 789.26) rotate(90) scale(.08 -.08)">
<use xlink:href="#l"/>
<use x="60.818359" xlink:href="#d"/>
<use x="122.341797" xlink:href="#h"/>
<use x="163.439453" xlink:href="#k"/>
<use x="260.851562" xlink:href="#j"/>
<use x="288.634766" xlink:href="#e"/>
<use x="352.013672" xlink:href="#f"/>
<use x="413.292969" xlink:href="#i"/>
</g>
</g>
<path d="m155.21 645.22 1.3529-4.8706q0.64231-2.3125-1.6701-2.9548l-7.4601-2.0721q-2.3125-0.64231-2.9548 1.6701l-1.3529 4.8706q-0.64231 2.3125 1.6701 2.9548l7.4601 2.0721q2.3125 0.64231 2.9548-1.6701z" clip-path="url(#a)" fill="#fff" stroke="#fff"/>
<g clip-path="url(#a)">
<g transform="translate(151.3 644.14) rotate(-74.477) scale(.08 -.08)">
<use xlink:href="#q"/>
</g>
</g>
<path d="m166.6 638.58v5.055q0 2.4 2.4 2.4h7.7425q2.4 0 2.4-2.4v-5.055q0-2.4-2.4-2.4h-7.7425q-2.4 0-2.4 2.4z" clip-path="url(#a)" fill="#fff" stroke="#fff"/>
<g clip-path="url(#a)">
<g transform="translate(170.66 638.58) rotate(90) scale(.08 -.08)">
<use xlink:href="#q"/>
</g>
</g>
<path d="m189.11 640.1 1.495 5.3825q0.64231 2.3125 2.9548 1.6701l7.4601-2.0721q2.3125-0.64231 1.6701-2.9548l-1.495-5.3825q-0.64231-2.3125-2.9548-1.6701l-7.4601 2.0721q-2.3125 0.64231-1.6701 2.9548z" clip-path="url(#a)" fill="#fff" stroke="#fff"/>
<g clip-path="url(#a)">
<g transform="translate(193.02 639.01) rotate(74.477) scale(.08 -.08)">
<use xlink:href="#t"/>
</g>
</g>
<path d="m258.7 789.26v35.285q0 2.4 2.4 2.4h7.7425q2.4 0 2.4-2.4v-35.285q0-2.4-2.4-2.4h-7.7425q-2.4 0-2.4 2.4z" clip-path="url(#a)" fill="#fff" stroke="#fff"/>
<g clip-path="url(#a)">
<g transform="translate(262.77 789.26) rotate(90) scale(.08 -.08)">
<use xlink:href="#l"/>
<use x="60.818359" xlink:href="#d"/>
<use x="122.341797" xlink:href="#h"/>
<use x="163.439453" xlink:href="#k"/>
<use x="260.851562" xlink:href="#j"/>
<use x="288.634766" xlink:href="#e"/>
<use x="352.013672" xlink:href="#f"/>
<use x="413.292969" xlink:href="#i"/>
</g>
</g>
<path d="m328.4 644.48 0.69537-5.0069q0.33014-2.3772-2.047-2.7073l-7.6689-1.0651q-2.3772-0.33014-2.7073 2.047l-0.69537 5.0069q-0.33015 2.3772 2.047 2.7073l7.6689 1.0651q2.3772 0.33014 2.7073-2.047z" clip-path="url(#a)" fill="#fff" stroke="#fff"/>
<g clip-path="url(#a)">
<g transform="translate(324.38 643.92) rotate(-82.093) scale(.08 -.08)">
<use xlink:href="#q"/>
</g>
</g>
<path d="m338.97 639.21 0.76845 5.5331q0.33014 2.3772 2.7073 2.047l7.6689-1.0651q2.3772-0.33014 2.047-2.7073l-0.76845-5.5331q-0.33015-2.3772-2.7073-2.047l-7.6689 1.0651q-2.3772 0.33014-2.047 2.7073z" clip-path="url(#a)" fill="#fff" stroke="#fff"/>
<g clip-path="url(#a)">
<g transform="translate(342.99 638.65) rotate(82.093) scale(.08 -.08)">
<use xlink:href="#t"/>
</g>
</g>
<path d="m396.86 789.26v35.285q0 2.4 2.4 2.4h7.7425q2.4 0 2.4-2.4v-35.285q0-2.4-2.4-2.4h-7.7425q-2.4 0-2.4 2.4z" clip-path="url(#a)" fill="#fff" stroke="#fff"/>
<g clip-path="url(#a)">
<g transform="translate(400.92 789.26) rotate(90) scale(.08 -.08)">
<use xlink:href="#l"/>
<use x="60.818359" xlink:href="#d"/>
<use x="122.341797" xlink:href="#h"/>
<use x="163.439453" xlink:href="#k"/>
<use x="260.851562" xlink:href="#j"/>
<use x="288.634766" xlink:href="#e"/>
<use x="352.013672" xlink:href="#f"/>
<use x="413.292969" xlink:href="#i"/>
</g>
</g>
<path d="m304.75 789.26v35.285q0 2.4 2.4 2.4h7.7425q2.4 0 2.4-2.4v-35.285q0-2.4-2.4-2.4h-7.7425q-2.4 0-2.4 2.4z" clip-path="url(#a)" fill="#fff" stroke="#fff"/>
<g clip-path="url(#a)">
<g transform="translate(308.82 789.26) rotate(90) scale(.08 -.08)">
<use xlink:href="#l"/>
<use x="60.818359" xlink:href="#d"/>
<use x="122.341797" xlink:href="#h"/>
<use x="163.439453" xlink:href="#k"/>
<use x="260.851562" xlink:href="#j"/>
<use x="288.634766" xlink:href="#e"/>
<use x="352.013672" xlink:href="#f"/>
<use x="413.292969" xlink:href="#i"/>
</g>
</g>
<path d="m350.8 789.26v35.285q0 2.4 2.4 2.4h7.7425q2.4 0 2.4-2.4v-35.285q0-2.4-2.4-2.4h-7.7425q-2.4 0-2.4 2.4z" clip-path="url(#a)" fill="#fff" stroke="#fff"/>
<g clip-path="url(#a)">
<g transform="translate(354.87 789.26) rotate(90) scale(.08 -.08)">
<use xlink:href="#l"/>
<use x="60.818359" xlink:href="#d"/>
<use x="122.341797" xlink:href="#h"/>
<use x="163.439453" xlink:href="#k"/>
<use x="260.851562" xlink:href="#j"/>
<use x="288.634766" xlink:href="#e"/>
<use x="352.013672" xlink:href="#f"/>
<use x="413.292969" xlink:href="#i"/>
</g>
</g>
<path d="m120.55 789.26v35.285q0 2.4 2.4 2.4h7.7425q2.4 0 2.4-2.4v-35.285q0-2.4-2.4-2.4h-7.7425q-2.4 0-2.4 2.4z" clip-path="url(#a)" fill="#fff" stroke="#fff"/>
<g clip-path="url(#a)">
<g transform="translate(124.61 789.26) rotate(90) scale(.08 -.08)">
<use xlink:href="#l"/>
<use x="60.818359" xlink:href="#d"/>
<use x="122.341797" xlink:href="#h"/>
<use x="163.439453" xlink:href="#k"/>
<use x="260.851562" xlink:href="#j"/>
<use x="288.634766" xlink:href="#e"/>
<use x="352.013672" xlink:href="#f"/>
<use x="413.292969" xlink:href="#i"/>
</g>
</g>
<path d="m166.6 789.26v35.285q0 2.4 2.4 2.4h7.7425q2.4 0 2.4-2.4v-35.285q0-2.4-2.4-2.4h-7.7425q-2.4 0-2.4 2.4z" clip-path="url(#a)" fill="#fff" stroke="#fff"/>
<g clip-path="url(#a)">
<g transform="translate(170.66 789.26) rotate(90) scale(.08 -.08)">
<use xlink:href="#l"/>
<use x="60.818359" xlink:href="#d"/>
<use x="122.341797" xlink:href="#h"/>
<use x="163.439453" xlink:href="#k"/>
<use x="260.851562" xlink:href="#j"/>
<use x="288.634766" xlink:href="#e"/>
<use x="352.013672" xlink:href="#f"/>
<use x="413.292969" xlink:href="#i"/>
</g>
</g>
<path d="m212.65 789.26v35.285q0 2.4 2.4 2.4h7.7425q2.4 0 2.4-2.4v-35.285q0-2.4-2.4-2.4h-7.7425q-2.4 0-2.4 2.4z" clip-path="url(#a)" fill="#fff" stroke="#fff"/>
<g clip-path="url(#a)">
<g transform="translate(216.71 789.26) rotate(90) scale(.08 -.08)">
<use xlink:href="#l"/>
<use x="60.818359" xlink:href="#d"/>
<use x="122.341797" xlink:href="#h"/>
<use x="163.439453" xlink:href="#k"/>
<use x="260.851562" xlink:href="#j"/>
<use x="288.634766" xlink:href="#e"/>
<use x="352.013672" xlink:href="#f"/>
<use x="413.292969" xlink:href="#i"/>
</g>
</g>
<path d="m1199.3 389.7 1.5691-9.8926q0.37597-2.3704-1.9944-2.7463l-7.6469-1.2129q-2.3704-0.37597-2.7463 1.9944l-1.5691 9.8926q-0.37597 2.3704 1.9944 2.7463l7.6469 1.2129q2.3704 0.37597 2.7463-1.9944z" clip-path="url(#a)" fill="#fff" stroke="#fff"/>
<g clip-path="url(#a)">
<g transform="translate(1195.3 389.06) rotate(-80.987) scale(.08 -.08)">
<use xlink:href="#s"/>
<use x="55.712891" xlink:href="#x"/>
</g>
</g>
<path d="m1293.9 130.21 5.2088 8.4571q1.2586 2.0435 3.3021 0.78489l6.5924-4.0603q2.0435-1.2586 0.78489-3.3021l-5.2088-8.4571q-1.2586-2.0435-3.3021-0.78489l-6.5924 4.0603q-2.0435 1.2586-0.78489 3.3021z" clip-path="url(#a)" fill="#fff" stroke="#fff"/>
<g clip-path="url(#a)">
<g transform="translate(1297.4 128.08) rotate(58.371) scale(.08 -.08)">
<use xlink:href="#s"/>
<use x="55.744141" xlink:href="#u"/>
</g>
</g>
<path d="m745.66 138.71 5.3285-8.3822q1.2875-2.0254-0.73786-3.3129l-6.534-4.1537q-2.0254-1.2875-3.3129 0.73786l-5.3285 8.3822q-1.2875 2.0254 0.73786 3.3129l6.534 4.1537q2.0254 1.2875 3.3129-0.73786z" clip-path="url(#a)" fill="#fff" stroke="#fff"/>
<g clip-path="url(#a)">
<g transform="translate(742.23 136.53) rotate(-57.556) scale(.08 -.08)">
<use xlink:href="#s"/>
<use x="55.744141" xlink:href="#u"/>
</g>
</g>
<path d="m791.2 389.02 0.39994-10.008q0.095829-2.3981-2.3023-2.4939l-7.7363-0.30915q-2.3981-0.095829-2.4939 2.3023l-0.39994 10.008q-0.095829 2.3981 2.3023 2.4939l7.7363 0.30915q2.3981 0.095829 2.4939-2.3023z" clip-path="url(#a)" fill="#fff" stroke="#fff"/>
<g clip-path="url(#a)">
<g transform="translate(787.14 388.86) rotate(-87.712) scale(.08 -.08)">
<use xlink:href="#s"/>
<use x="55.712891" xlink:href="#x"/>
</g>
</g>
<path d="m860.68 297.71 2.5826 9.5909q0.62404 2.3174 2.9415 1.6934l7.4762-2.0132q2.3174-0.62404 1.6934-2.9415l-2.5826-9.5909q-0.62404-2.3174-2.9415-1.6934l-7.4762 2.0132q-2.3174 0.62404-1.6934 2.9415z" clip-path="url(#a)" fill="#fff" stroke="#fff"/>
<g clip-path="url(#a)">
<g transform="translate(864.6 296.65) rotate(74.929) scale(.08 -.08)">
<use xlink:href="#s"/>
<use x="55.744141" xlink:href="#u"/>
</g>
</g>
<path d="m442.91 789.26v35.285q0 2.4 2.4 2.4h7.7425q2.4 0 2.4-2.4v-35.285q0-2.4-2.4-2.4h-7.7425q-2.4 0-2.4 2.4z" clip-path="url(#a)" fill="#fff" stroke="#fff"/>
<g clip-path="url(#a)">
<g transform="translate(446.97 789.26) rotate(90) scale(.08 -.08)">
<use xlink:href="#l"/>
<use x="60.818359" xlink:href="#d"/>
<use x="122.341797" xlink:href="#h"/>
<use x="163.439453" xlink:href="#k"/>
<use x="260.851562" xlink:href="#j"/>
<use x="288.634766" xlink:href="#e"/>
<use x="352.013672" xlink:href="#f"/>
<use x="413.292969" xlink:href="#i"/>
</g>
</g>
<path d="m719.22 789.26v35.285q0 2.4 2.4 2.4h7.7425q2.4 0 2.4-2.4v-35.285q0-2.4-2.4-2.4h-7.7425q-2.4 0-2.4 2.4z" clip-path="url(#a)" fill="#fff" stroke="#fff"/>
<g clip-path="url(#a)">
<g transform="translate(723.28 789.26) rotate(90) scale(.08 -.08)">
<use xlink:href="#l"/>
<use x="60.818359" xlink:href="#d"/>
<use x="122.341797" xlink:href="#h"/>
<use x="163.439453" xlink:href="#k"/>
<use x="260.851562" xlink:href="#j"/>
<use x="288.634766" xlink:href="#e"/>
<use x="352.013672" xlink:href="#f"/>
<use x="413.292969" xlink:href="#i"/>
</g>
</g>
<path d="m1087.6 789.26v35.285q0 2.4 2.4 2.4h7.7425q2.4 0 2.4-2.4v-35.285q0-2.4-2.4-2.4h-7.7425q-2.4 0-2.4 2.4z" clip-path="url(#a)" fill="#fff" stroke="#fff"/>
<g clip-path="url(#a)">
<g transform="translate(1091.7 789.26) rotate(90) scale(.08 -.08)">
<use xlink:href="#l"/>
<use x="60.818359" xlink:href="#d"/>
<use x="122.341797" xlink:href="#h"/>
<use x="163.439453" xlink:href="#k"/>
<use x="260.851562" xlink:href="#j"/>
<use x="288.634766" xlink:href="#e"/>
<use x="352.013672" xlink:href="#f"/>
<use x="413.292969" xlink:href="#i"/>
</g>
</g>
<path d="m1640.2 789.26v35.285q0 2.4 2.4 2.4h7.7425q2.4 0 2.4-2.4v-35.285q0-2.4-2.4-2.4h-7.7425q-2.4 0-2.4 2.4z" clip-path="url(#a)" fill="#fff" stroke="#fff"/>
<g clip-path="url(#a)">
<g transform="translate(1644.3 789.26) rotate(90) scale(.08 -.08)">
<use xlink:href="#l"/>
<use x="60.818359" xlink:href="#d"/>
<use x="122.341797" xlink:href="#h"/>
<use x="163.439453" xlink:href="#k"/>
<use x="260.851562" xlink:href="#j"/>
<use x="288.634766" xlink:href="#e"/>
<use x="352.013672" xlink:href="#f"/>
<use x="413.292969" xlink:href="#i"/>
</g>
</g>
<defs>
<path id="b" d="m0 8.6603c2.2967 0 4.4997-0.9125 6.1237-2.5365 1.624-1.624 2.5365-3.827 2.5365-6.1237s-0.9125-4.4997-2.5365-6.1237c-1.624-1.624-3.827-2.5365-6.1237-2.5365s-4.4997 0.9125-6.1237 2.5365c-1.624 1.624-2.5365 3.827-2.5365 6.1237s0.9125 4.4997 2.5365 6.1237c1.624 1.624 3.827 2.5365 6.1237 2.5365z"/>
</defs>
<g clip-path="url(#a)">
<use x="80.767986" y="889.801456" fill="#ffffff" stroke="#ffffff" xlink:href="#b"/>
</g>
<g clip-path="url(#a)">
<use x="126.819339" y="889.801456" fill="#ffffff" stroke="#ffffff" xlink:href="#b"/>
</g>
<g clip-path="url(#a)">
<use x="172.870692" y="889.801456" fill="#ffffff" stroke="#ffffff" xlink:href="#b"/>
</g>
<g clip-path="url(#a)">
<use x="218.922046" y="889.801456" fill="#ffffff" stroke="#ffffff" xlink:href="#b"/>
</g>
<g clip-path="url(#a)">
<use x="264.973399" y="889.801456" fill="#ffffff" stroke="#ffffff" xlink:href="#b"/>
</g>
<g clip-path="url(#a)">
<use x="311.024752" y="889.801456" fill="#ffffff" stroke="#ffffff" xlink:href="#b"/>
</g>
<g clip-path="url(#a)">
<use x="357.076105" y="889.801456" fill="#ffffff" stroke="#ffffff" xlink:href="#b"/>
</g>
<g clip-path="url(#a)">
<use x="403.127458" y="889.801456" fill="#ffffff" stroke="#ffffff" xlink:href="#b"/>
</g>
<g clip-path="url(#a)">
<use x="449.178811" y="889.801456" fill="#ffffff" stroke="#ffffff" xlink:href="#b"/>
</g>
<g clip-path="url(#a)">
<use x="495.230165" y="889.801456" fill="#ffffff" stroke="#ffffff" xlink:href="#b"/>
</g>
<g clip-path="url(#a)">
<use x="541.281518" y="889.801456" fill="#ffffff" stroke="#ffffff" xlink:href="#b"/>
</g>
<g clip-path="url(#a)">
<use x="587.332871" y="889.801456" fill="#ffffff" stroke="#ffffff" xlink:href="#b"/>
</g>
<g clip-path="url(#a)">
<use x="633.384224" y="889.801456" fill="#ffffff" stroke="#ffffff" xlink:href="#b"/>
</g>
<g clip-path="url(#a)">
<use x="679.435577" y="889.801456" fill="#ffffff" stroke="#ffffff" xlink:href="#b"/>
</g>
<g clip-path="url(#a)">
<use x="725.486931" y="889.801456" fill="#ffffff" stroke="#ffffff" xlink:href="#b"/>
</g>
<g clip-path="url(#a)">
<use x="771.538284" y="889.801456" fill="#ffffff" stroke="#ffffff" xlink:href="#b"/>
</g>
<g clip-path="url(#a)">
<use x="817.589637" y="889.801456" fill="#ffffff" stroke="#ffffff" xlink:href="#b"/>
</g>
<g clip-path="url(#a)">
<use x="863.64099" y="889.801456" fill="#ffffff" stroke="#ffffff" xlink:href="#b"/>
</g>
<g clip-path="url(#a)">
<use x="909.692343" y="889.801456" fill="#ffffff" stroke="#ffffff" xlink:href="#b"/>
</g>
<g clip-path="url(#a)">
<use x="955.743696" y="889.801456" fill="#ffffff" stroke="#ffffff" xlink:href="#b"/>
</g>
<g clip-path="url(#a)">
<use x="1001.79505" y="889.801456" fill="#ffffff" stroke="#ffffff" xlink:href="#b"/>
</g>
<g clip-path="url(#a)">
<use x="1047.846403" y="889.801456" fill="#ffffff" stroke="#ffffff" xlink:href="#b"/>
</g>
<g clip-path="url(#a)">
<use x="1093.897756" y="889.801456" fill="#ffffff" stroke="#ffffff" xlink:href="#b"/>
</g>
<g clip-path="url(#a)">
<use x="1139.949109" y="889.801456" fill="#ffffff" stroke="#ffffff" xlink:href="#b"/>
</g>
<g clip-path="url(#a)">
<use x="1186.000462" y="889.801456" fill="#ffffff" stroke="#ffffff" xlink:href="#b"/>
</g>
<g clip-path="url(#a)">
<use x="1232.051815" y="889.801456" fill="#ffffff" stroke="#ffffff" xlink:href="#b"/>
</g>
<g clip-path="url(#a)">
<use x="1278.103169" y="889.801456" fill="#ffffff" stroke="#ffffff" xlink:href="#b"/>
</g>
<g clip-path="url(#a)">
<use x="1324.154522" y="889.801456" fill="#ffffff" stroke="#ffffff" xlink:href="#b"/>
</g>
<g clip-path="url(#a)">
<use x="1370.205875" y="889.801456" fill="#ffffff" stroke="#ffffff" xlink:href="#b"/>
</g>
<g clip-path="url(#a)">
<use x="1416.257228" y="889.801456" fill="#ffffff" stroke="#ffffff" xlink:href="#b"/>
</g>
<g clip-path="url(#a)">
<use x="1462.308581" y="889.801456" fill="#ffffff" stroke="#ffffff" xlink:href="#b"/>
</g>
<g clip-path="url(#a)">
<use x="1508.359935" y="889.801456" fill="#ffffff" stroke="#ffffff" xlink:href="#b"/>
</g>
<g clip-path="url(#a)">
<use x="1554.411288" y="889.801456" fill="#ffffff" stroke="#ffffff" xlink:href="#b"/>
</g>
<g clip-path="url(#a)">
<use x="1600.462641" y="889.801456" fill="#ffffff" stroke="#ffffff" xlink:href="#b"/>
</g>
<g clip-path="url(#a)">
<use x="1646.513994" y="889.801456" fill="#ffffff" stroke="#ffffff" xlink:href="#b"/>
</g>
<g clip-path="url(#a)">
<use x="958.76288" y="43.531877" fill="#ffffff" stroke="#ffffff" xlink:href="#b"/>
</g>
<g clip-path="url(#a)">
<use x="687.330095" y="218.773669" fill="#ffffff" stroke="#ffffff" xlink:href="#b"/>
</g>
<g clip-path="url(#a)">
<use x="771.538284" y="724.006929" fill="#ffffff" stroke="#ffffff" xlink:href="#b"/>
</g>
<g clip-path="url(#a)">
<use x="937.323155" y="558.212402" fill="#ffffff" stroke="#ffffff" xlink:href="#b"/>
</g>
<g clip-path="url(#a)">
<use x="1139.949109" y="724.006929" fill="#ffffff" stroke="#ffffff" xlink:href="#b"/>
</g>
<g clip-path="url(#a)">
<use x="1355.814827" y="218.773669" fill="#ffffff" stroke="#ffffff" xlink:href="#b"/>
</g>
<g clip-path="url(#a)">
<use x="1232.051815" y="558.212402" fill="#ffffff" stroke="#ffffff" xlink:href="#b"/>
</g>
<g clip-path="url(#a)">
<use x="1324.154522" y="724.006929" fill="#ffffff" stroke="#ffffff" xlink:href="#b"/>
</g>
<g clip-path="url(#a)">
<use x="1370.205875" y="724.006929" fill="#ffffff" stroke="#ffffff" xlink:href="#b"/>
</g>
<g clip-path="url(#a)">
<use x="1496.847096" y="390.111491" fill="#ffffff" stroke="#ffffff" xlink:href="#b"/>
</g>
<g clip-path="url(#a)">
<use x="1416.257228" y="724.006929" fill="#ffffff" stroke="#ffffff" xlink:href="#b"/>
</g>
<g clip-path="url(#a)">
<use x="1462.308581" y="724.006929" fill="#ffffff" stroke="#ffffff" xlink:href="#b"/>
</g>
<g clip-path="url(#a)">
<use x="1508.359935" y="724.006929" fill="#ffffff" stroke="#ffffff" xlink:href="#b"/>
</g>
<g clip-path="url(#a)">
<use x="1600.462641" y="558.212402" fill="#ffffff" stroke="#ffffff" xlink:href="#b"/>
</g>
<g clip-path="url(#a)">
<use x="1554.411288" y="724.006929" fill="#ffffff" stroke="#ffffff" xlink:href="#b"/>
</g>
<g clip-path="url(#a)">
<use x="1600.462641" y="724.006929" fill="#ffffff" stroke="#ffffff" xlink:href="#b"/>
</g>
<g clip-path="url(#a)">
<use x="1186.000462" y="724.006929" fill="#ffffff" stroke="#ffffff" xlink:href="#b"/>
</g>
<g clip-path="url(#a)">
<use x="1232.051815" y="724.006929" fill="#ffffff" stroke="#ffffff" xlink:href="#b"/>
</g>
<g clip-path="url(#a)">
<use x="1278.103169" y="724.006929" fill="#ffffff" stroke="#ffffff" xlink:href="#b"/>
</g>
<g clip-path="url(#a)">
<use x="817.589637" y="724.006929" fill="#ffffff" stroke="#ffffff" xlink:href="#b"/>
</g>
<g clip-path="url(#a)">
<use x="909.692343" y="724.006929" fill="#ffffff" stroke="#ffffff" xlink:href="#b"/>
</g>
<g clip-path="url(#a)">
<use x="909.692343" y="724.006929" fill="#ffffff" stroke="#ffffff" xlink:href="#b"/>
</g>
<g clip-path="url(#a)">
<use x="1001.79505" y="724.006929" fill="#ffffff" stroke="#ffffff" xlink:href="#b"/>
</g>
<g clip-path="url(#a)">
<use x="1047.846403" y="724.006929" fill="#ffffff" stroke="#ffffff" xlink:href="#b"/>
</g>
<g clip-path="url(#a)">
<use x="1692.565347" y="889.801456" fill="#ffffff" stroke="#ffffff" xlink:href="#b"/>
</g>
<g clip-path="url(#a)">
<use x="251.157993" y="390.111491" fill="#ffffff" stroke="#ffffff" xlink:href="#b"/>
</g>
<g clip-path="url(#a)">
<use x="518.255841" y="558.212402" fill="#ffffff" stroke="#ffffff" xlink:href="#b"/>
</g>
<g clip-path="url(#a)">
<use x="587.332871" y="724.006929" fill="#ffffff" stroke="#ffffff" xlink:href="#b"/>
</g>
<g clip-path="url(#a)">
<use x="633.384224" y="724.006929" fill="#ffffff" stroke="#ffffff" xlink:href="#b"/>
</g>
<g clip-path="url(#a)">
<use x="679.435577" y="724.006929" fill="#ffffff" stroke="#ffffff" xlink:href="#b"/>
</g>
<g clip-path="url(#a)">
<use x="495.230165" y="724.006929" fill="#ffffff" stroke="#ffffff" xlink:href="#b"/>
</g>
<g clip-path="url(#a)">
<use x="541.281518" y="724.006929" fill="#ffffff" stroke="#ffffff" xlink:href="#b"/>
</g>
<g clip-path="url(#a)">
<use x="80.767986" y="724.006929" fill="#ffffff" stroke="#ffffff" xlink:href="#b"/>
</g>
<g clip-path="url(#a)">
<use x="172.870692" y="558.212402" fill="#ffffff" stroke="#ffffff" xlink:href="#b"/>
</g>
<g clip-path="url(#a)">
<use x="264.973399" y="724.006929" fill="#ffffff" stroke="#ffffff" xlink:href="#b"/>
</g>
<g clip-path="url(#a)">
<use x="334.050429" y="558.212402" fill="#ffffff" stroke="#ffffff" xlink:href="#b"/>
</g>
<g clip-path="url(#a)">
<use x="403.127458" y="724.006929" fill="#ffffff" stroke="#ffffff" xlink:href="#b"/>
</g>
<g clip-path="url(#a)">
<use x="311.024752" y="724.006929" fill="#ffffff" stroke="#ffffff" xlink:href="#b"/>
</g>
<g clip-path="url(#a)">
<use x="357.076105" y="724.006929" fill="#ffffff" stroke="#ffffff" xlink:href="#b"/>
</g>
<g clip-path="url(#a)">
<use x="126.819339" y="724.006929" fill="#ffffff" stroke="#ffffff" xlink:href="#b"/>
</g>
<g clip-path="url(#a)">
<use x="172.870692" y="724.006929" fill="#ffffff" stroke="#ffffff" xlink:href="#b"/>
</g>
<g clip-path="url(#a)">
<use x="218.922046" y="724.006929" fill="#ffffff" stroke="#ffffff" xlink:href="#b"/>
</g>
<g clip-path="url(#a)">
<use x="1247.881968" y="43.531877" fill="#808080" stroke="#808080" xlink:href="#b"/>
</g>
<g clip-path="url(#a)">
<use x="798.730511" y="43.531877" fill="#808080" stroke="#808080" xlink:href="#b"/>
</g>
<g clip-path="url(#a)">
<use x="449.178811" y="724.006929" fill="#ffffff" stroke="#ffffff" xlink:href="#b"/>
</g>
<g clip-path="url(#a)">
<use x="725.486931" y="724.006929" fill="#ffffff" stroke="#ffffff" xlink:href="#b"/>
</g>
<g clip-path="url(#a)">
<use x="1093.897756" y="724.006929" fill="#ffffff" stroke="#ffffff" xlink:href="#b"/>
</g>
<g clip-path="url(#a)">
<use x="1646.513994" y="724.006929" fill="#ffffff" stroke="#ffffff" xlink:href="#b"/>
</g>
<g clip-path="url(#a)">
<defs>
<path id="aa" d="m45.406 46.391v29.594h8.9844v-75.984h-8.9844v8.2031q-2.8281-4.875-7.1562-7.25-4.3125-2.375-10.375-2.375-9.9062 0-16.141 7.9062-6.2188 7.9219-6.2188 20.812t6.2188 20.797q6.2344 7.9062 16.141 7.9062 6.0625 0 10.375-2.375 4.3281-2.3594 7.1562-7.2344zm-30.609-19.094q0-9.9062 4.0781-15.547t11.203-5.6406 11.219 5.6406q4.1094 5.6406 4.1094 15.547t-4.1094 15.547q-4.0938 5.6406-11.219 5.6406t-11.203-5.6406-4.0781-15.547z"/>
<path id="p" d="m18.312 70.219v-15.531h18.5v-6.9844h-18.5v-29.688q0-6.6875 1.8281-8.5938t7.4531-1.9062h9.2188v-7.5156h-9.2188q-10.406 0-14.359 3.875-3.9531 3.8906-3.9531 14.141v29.688h-6.5938v6.9844h6.5938v15.531z"/>
</defs>
<g transform="translate(60.143 892.56) scale(.1 -.1)">
<use xlink:href="#ab"/>
<use x="60.255859" xlink:href="#d"/>
<use x="121.779297" xlink:href="#e"/>
<use x="185.158203" xlink:href="#aa"/>
<use x="248.634766" xlink:href="#f"/>
<use x="309.914062" xlink:href="#e"/>
<use x="373.292969" xlink:href="#p"/>
</g>
</g>
<g clip-path="url(#a)">
<defs>
<path id="r" d="m44.281 53.078v-8.5q-3.7969 1.9531-7.9062 2.9219-4.0938 0.98438-8.5 0.98438-6.6875 0-10.031-2.0469t-3.3438-6.1562q0-3.125 2.3906-4.9062t9.625-3.3906l3.0781-0.6875q9.5625-2.0469 13.594-5.7812t4.0312-10.422q0-7.625-6.0312-12.078-6.0312-4.4375-16.578-4.4375-4.3906 0-9.1562 0.85938t-10.031 2.5625v9.2812q4.9844-2.5938 9.8125-3.8906 4.8281-1.2812 9.5781-1.2812 6.3438 0 9.75 2.1719 3.4219 2.1719 3.4219 6.125 0 3.6562-2.4688 5.6094-2.4531 1.9531-10.812 3.7656l-3.125 0.73438q-8.3438 1.75-12.062 5.3906-3.7031 3.6406-3.7031 9.9844 0 7.7188 5.4688 11.906 5.4688 4.2031 15.531 4.2031 4.9688 0 9.3594-0.73438 4.4062-0.71875 8.1094-2.1875z"/>
</defs>
<g transform="translate(119.75 892.56) scale(.1 -.1)">
<use xlink:href="#i"/>
<use x="27.783203" xlink:href="#d"/>
<use x="89.306641" xlink:href="#r"/>
</g>
</g>
<g clip-path="url(#a)">
<defs>
<path id="ae" d="m18.109 8.2031v-29h-9.0312v75.484h9.0312v-8.2969q2.8438 4.875 7.1562 7.2344 4.3281 2.375 10.328 2.375 9.9688 0 16.188-7.9062 6.2344-7.9062 6.2344-20.797t-6.2344-20.812q-6.2188-7.9062-16.188-7.9062-6 0-10.328 2.375-4.3125 2.375-7.1562 7.25zm30.578 19.094q0 9.9062-4.0781 15.547t-11.203 5.6406q-7.1406 0-11.219-5.6406t-4.0781-15.547 4.0781-15.547 11.219-5.6406q7.125 0 11.203 5.6406t4.0781 15.547z"/>
</defs>
<g transform="translate(150.57 892.56) scale(.1 -.1)">
<use xlink:href="#ae"/>
<use x="63.476562" xlink:href="#h"/>
<use x="104.558594" xlink:href="#d"/>
<use x="166.082031" xlink:href="#k"/>
<use x="263.494141" xlink:href="#j"/>
<use x="291.277344" xlink:href="#d"/>
<use x="352.800781" xlink:href="#h"/>
<use x="393.914062" xlink:href="#r"/>
</g>
</g>
<g clip-path="url(#a)">
<defs>
<path id="z" d="m30.609 48.391q-7.2188 0-11.422-5.6406t-4.2031-15.453 4.1719-15.453q4.1875-5.6406 11.453-5.6406 7.1875 0 11.375 5.6562 4.2031 5.6719 4.2031 15.438 0 9.7188-4.2031 15.406-4.1875 5.6875-11.375 5.6875zm0 7.6094q11.719 0 18.406-7.625 6.7031-7.6094 6.7031-21.078 0-13.422-6.7031-21.078-6.6875-7.6406-18.406-7.6406-11.766 0-18.438 7.6406-6.6562 7.6562-6.6562 21.078 0 13.469 6.6562 21.078 6.6719 7.625 18.438 7.625z"/>
</defs>
<g transform="translate(207 892.56) scale(.1 -.1)">
<use xlink:href="#k"/>
<use x="97.412109" xlink:href="#z"/>
<use x="158.59375" xlink:href="#j"/>
<use x="186.376953" xlink:href="#r"/>
</g>
</g>
<g clip-path="url(#a)">
<g transform="translate(258.72 892.56) scale(.1 -.1)">
<use xlink:href="#aa"/>
<use x="63.476562" xlink:href="#d"/>
</g>
</g>
<g clip-path="url(#a)">
<defs>
<path id="av" d="m17.922 72.906v-27.109h-8.2969v27.109z"/>
</defs>
<g transform="translate(308.26 892.56) scale(.1 -.1)">
<use xlink:href="#i"/>
<use x="27.783203" xlink:href="#av"/>
</g>
</g>
<g clip-path="url(#a)">
<defs>
<path id="an" d="m56.203 29.594v-4.3906h-41.312q0.59375-9.2812 5.5938-14.141t13.938-4.8594q5.1719 0 10.031 1.2656t9.6562 3.8125v-8.5q-4.8438-2.0469-9.9219-3.125t-10.297-1.0781q-13.094 0-20.734 7.6094-7.6406 7.625-7.6406 20.625 0 13.422 7.25 21.297 7.25 7.8906 19.562 7.8906 11.031 0 17.453-7.1094 6.4219-7.0938 6.4219-19.297zm-8.9844 2.6406q-0.09375 7.3594-4.125 11.75-4.0312 4.4062-10.672 4.4062-7.5156 0-12.031-4.25t-5.2031-11.969zm-8.6875 47.75h9.7188l-15.906-18.359h-7.4844z"/>
</defs>
<g transform="translate(341.52 892.56) scale(.1 -.1)">
<use xlink:href="#f"/>
<use x="61.279297" xlink:href="#e"/>
<use x="124.658203" xlink:href="#e"/>
<use x="188.037109" xlink:href="#an"/>
<use x="249.560547" xlink:href="#d"/>
</g>
</g>
<g clip-path="url(#a)">
<defs>
<path id="c" d="m12.406 8.2969h16.109v55.625l-17.531-3.5156v8.9844l17.438 3.5156h9.8594v-64.609h16.109v-8.2969h-41.984z"/>
<path id="ah" d="m31.781 34.625q-7.0312 0-11.062-3.7656-4.0156-3.7656-4.0156-10.344 0-6.5938 4.0156-10.359 4.0312-3.7656 11.062-3.7656t11.078 3.7812q4.0625 3.7969 4.0625 10.344 0 6.5781-4.0312 10.344-4.0156 3.7656-11.109 3.7656zm-9.8594 4.1875q-6.3438 1.5625-9.8906 5.9062-3.5312 4.3594-3.5312 10.609 0 8.7344 6.2188 13.812 6.2344 5.0781 17.062 5.0781 10.891 0 17.094-5.0781t6.2031-13.812q0-6.25-3.5469-10.609-3.5312-4.3438-9.8281-5.9062 7.125-1.6562 11.094-6.5 3.9844-4.8281 3.9844-11.797 0-10.609-6.4688-16.281-6.4688-5.6562-18.531-5.6562-12.047 0-18.531 5.6562-6.4688 5.6719-6.4688 16.281 0 6.9688 4 11.797 4.0156 4.8438 11.141 6.5zm-3.6094 15.578q0-5.6562 3.5312-8.8281 3.5469-3.1719 9.9375-3.1719 6.3594 0 9.9375 3.1719 3.5938 3.1719 3.5938 8.8281 0 5.6719-3.5938 8.8438-3.5781 3.1719-9.9375 3.1719-6.3906 0-9.9375-3.1719-3.5312-3.1719-3.5312-8.8438z"/>
<path id="y" d="m33.016 40.375q-6.6406 0-10.531-4.5469-3.875-4.5312-3.875-12.438 0-7.8594 3.875-12.438 3.8906-4.5625 10.531-4.5625t10.516 4.5625q3.875 4.5781 3.875 12.438 0 7.9062-3.875 12.438-3.875 4.5469-10.516 4.5469zm19.578 30.922v-8.9844q-3.7188 1.75-7.5 2.6719-3.7812 0.9375-7.5 0.9375-9.7656 0-14.922-6.5938-5.1406-6.5938-5.875-19.922 2.875 4.25 7.2188 6.5156 4.3594 2.2656 9.5781 2.2656 10.984 0 17.359-6.6719 6.375-6.6562 6.375-18.125 0-11.234-6.6406-18.031-6.6406-6.7812-17.672-6.7812-12.656 0-19.344 9.6875-6.6875 9.7031-6.6875 28.109 0 17.281 8.2031 27.562t22.016 10.281q3.7188 0 7.5-0.73438t7.8906-2.1875z"/>
<path id="ac" d="m8.2031 72.906h46.875v-4.2031l-26.469-68.703h-10.297l24.906 64.594h-35.016z"/>
</defs>
<g transform="translate(390.4 892.56) scale(.1 -.1)">
<use xlink:href="#c"/>
<use x="63.623047" xlink:href="#ah"/>
<use x="127.246094" xlink:href="#y"/>
<use x="190.869141" xlink:href="#ac"/>
</g>
</g>
<g clip-path="url(#a)">
<defs>
<path id="am" d="m11.719 12.406h10.297v-8.4062l-8-15.625h-6.2969l4 15.625z"/>
</defs>
<g transform="translate(447.59 892.56) scale(.1 -.1)">
<use xlink:href="#am"/>
</g>
</g>
<g clip-path="url(#a)">
<g transform="translate(490.78 892.56) scale(.1 -.1)">
<use xlink:href="#i"/>
<use x="27.783203" xlink:href="#f"/>
</g>
</g>
<g clip-path="url(#a)">
<defs>
<path id="ar" d="m14.797 27.297q0-9.9062 4.0781-15.547t11.203-5.6406 11.219 5.6406q4.1094 5.6406 4.1094 15.547t-4.1094 15.547q-4.0938 5.6406-11.219 5.6406t-11.203-5.6406-4.0781-15.547zm30.609-19.094q-2.8281-4.875-7.1562-7.25-4.3125-2.375-10.375-2.375-9.9062 0-16.141 7.9062-6.2188 7.9219-6.2188 20.812t6.2188 20.797q6.2344 7.9062 16.141 7.9062 6.0625 0 10.375-2.375 4.3281-2.3594 7.1562-7.2344v8.2969h8.9844v-75.484h-8.9844z"/>
<path id="w" d="m8.5 21.578v33.109h8.9844v-32.766q0-7.7656 3.0156-11.656 3.0312-3.875 9.0938-3.875 7.2656 0 11.484 4.6406 4.2344 4.6406 4.2344 12.656v31h8.9844v-54.688h-8.9844v8.4062q-3.2656-4.9844-7.5938-7.4062-4.3125-2.4219-10.031-2.4219-9.4219 0-14.312 5.8594-4.875 5.8594-4.875 17.141z"/>
</defs>
<g transform="translate(519.68 892.56) scale(.1 -.1)">
<use xlink:href="#ar"/>
<use x="63.476562" xlink:href="#w"/>
<use x="126.855469" xlink:href="#d"/>
<use x="188.378906" xlink:href="#r"/>
<use x="240.478516" xlink:href="#p"/>
<use x="279.6875" xlink:href="#j"/>
<use x="307.470703" xlink:href="#z"/>
<use x="368.652344" xlink:href="#e"/>
</g>
</g>
<g clip-path="url(#a)">
<g transform="translate(573.91 892.56) scale(.1 -.1)">
<use xlink:href="#ae"/>
<use x="63.476562" xlink:href="#f"/>
<use x="124.755859" xlink:href="#h"/>
<use x="165.869141" xlink:href="#w"/>
<use x="229.248047" xlink:href="#p"/>
</g>
</g>
<g clip-path="url(#a)">
<defs>
<path id="ax" d="m56.203 29.594v-4.3906h-41.312q0.59375-9.2812 5.5938-14.141t13.938-4.8594q5.1719 0 10.031 1.2656t9.6562 3.8125v-8.5q-4.8438-2.0469-9.9219-3.125t-10.297-1.0781q-13.094 0-20.734 7.6094-7.6406 7.625-7.6406 20.625 0 13.422 7.25 21.297 7.25 7.8906 19.562 7.8906 11.031 0 17.453-7.1094 6.4219-7.0938 6.4219-19.297zm-8.9844 2.6406q-0.09375 7.3594-4.125 11.75-4.0312 4.4062-10.672 4.4062-7.5156 0-12.031-4.25t-5.2031-11.969zm-19.078 47.75h7.2188l11.969-18.359h-6.7812l-8.7969 11.953-8.7812-11.953h-6.7969z"/>
</defs>
<g transform="translate(623.22 892.56) scale(.1 -.1)">
<use xlink:href="#ax"/>
<use x="61.523438" xlink:href="#p"/>
<use x="100.732422" xlink:href="#h"/>
<use x="141.814453" xlink:href="#d"/>
</g>
</g>
<g clip-path="url(#a)">
<g transform="translate(657.89 892.56) scale(.1 -.1)">
<use xlink:href="#d"/>
<use x="61.523438" xlink:href="#e"/>
<use x="124.902344" xlink:href="#p"/>
<use x="164.111328" xlink:href="#d"/>
<use x="225.634766" xlink:href="#h"/>
<use x="266.732422" xlink:href="#h"/>
<use x="307.814453" xlink:href="#an"/>
<use x="369.337891" xlink:href="#d"/>
</g>
</g>
<g clip-path="url(#a)">
<g transform="translate(723.9 892.56) scale(.1 -.1)">
<use xlink:href="#am"/>
</g>
</g>
<g clip-path="url(#a)">
<g transform="translate(766.5 892.56) scale(.1 -.1)">
<use xlink:href="#d"/>
<use x="61.523438" xlink:href="#p"/>
</g>
</g>
<g clip-path="url(#a)">
<g transform="translate(808.66 892.56) scale(.1 -.1)">
<use xlink:href="#d"/>
<use x="61.523438" xlink:href="#i"/>
<use x="89.306641" xlink:href="#i"/>
<use x="117.089844" xlink:href="#d"/>
</g>
</g>
<g clip-path="url(#a)">
<g transform="translate(857.4 892.56) scale(.1 -.1)">
<use xlink:href="#e"/>
<use x="63.378906" xlink:href="#d"/>
</g>
</g>
<g clip-path="url(#a)">
<defs>
<path id="ao" d="m48.688 27.297q0 9.9062-4.0781 15.547t-11.203 5.6406q-7.1406 0-11.219-5.6406t-4.0781-15.547 4.0781-15.547 11.219-5.6406q7.125 0 11.203 5.6406t4.0781 15.547zm-30.578 19.094q2.8438 4.875 7.1562 7.2344 4.3281 2.375 10.328 2.375 9.9688 0 16.188-7.9062 6.2344-7.9062 6.2344-20.797t-6.2344-20.812q-6.2188-7.9062-16.188-7.9062-6 0-10.328 2.375-4.3125 2.375-7.1562 7.25v-8.2031h-9.0312v75.984h9.0312z"/>
</defs>
<g transform="translate(888.16 892.56) scale(.1 -.1)">
<use xlink:href="#r"/>
<use x="52.099609" xlink:href="#d"/>
<use x="113.623047" xlink:href="#k"/>
<use x="211.035156" xlink:href="#ao"/>
<use x="274.511719" xlink:href="#i"/>
<use x="302.294922" xlink:href="#f"/>
<use x="363.574219" xlink:href="#j"/>
<use x="391.357422" xlink:href="#p"/>
</g>
</g>
<g clip-path="url(#a)">
<g transform="translate(946.9 892.56) scale(.1 -.1)">
<use xlink:href="#ae"/>
<use x="63.476562" xlink:href="#f"/>
<use x="124.755859" xlink:href="#r"/>
</g>
</g>
<g clip-path="url(#a)">
<defs>
<path id="aq" d="m2.9844 54.688h9.5156l17.094-45.891 17.094 45.891h9.5156l-20.516-54.688h-12.203z"/>
</defs>
<g transform="translate(986.08 892.56) scale(.1 -.1)">
<use xlink:href="#aa"/>
<use x="63.476562" xlink:href="#d"/>
<use x="125" xlink:href="#aq"/>
<use x="184.179688" xlink:href="#z"/>
<use x="245.361328" xlink:href="#j"/>
<use x="273.144531" xlink:href="#h"/>
</g>
</g>
<g clip-path="url(#a)">
<defs>
<path id="aw" d="m9.4219 54.688h8.9844v-54.688h-8.9844zm4.5 1.3125m-3.6562 23.984h7.2188l11.969-18.359h-6.7812l-8.7969 11.953-8.7812-11.953h-6.7969z"/>
</defs>
<g transform="translate(1028 892.56) scale(.1 -.1)">
<use xlink:href="#h"/>
<use x="41.082031" xlink:href="#d"/>
<use x="102.605469" xlink:href="#e"/>
<use x="165.984375" xlink:href="#f"/>
<use x="227.263672" xlink:href="#aw"/>
<use x="255.046875" xlink:href="#p"/>
<use x="294.255859" xlink:href="#h"/>
<use x="335.337891" xlink:href="#d"/>
</g>
</g>
<g clip-path="url(#a)">
<g transform="translate(1092.3 892.56) scale(.1 -.1)">
<use xlink:href="#am"/>
</g>
</g>
<g clip-path="url(#a)">
<g transform="translate(1124.2 892.56) scale(.1 -.1)">
<use xlink:href="#ar"/>
<use x="63.476562" xlink:href="#w"/>
<use x="126.855469" xlink:href="#f"/>
<use x="188.134766" xlink:href="#e"/>
<use x="251.513672" xlink:href="#aa"/>
</g>
</g>
<g clip-path="url(#a)">
<g transform="translate(1179.7 892.56) scale(.1 -.1)">
<use xlink:href="#aa"/>
<use x="63.476562" xlink:href="#d"/>
</g>
</g>
<g clip-path="url(#a)">
<defs>
<path id="az" d="m54.891 54.688-19.781-26.609 20.797-28.078h-10.594l-15.922 21.484-15.906-21.484h-10.609l21.25 28.609-19.438 26.078h10.594l14.5-19.484 14.5 19.484z"/>
</defs>
<g transform="translate(1207.4 892.56) scale(.1 -.1)">
<use xlink:href="#e"/>
<use x="63.378906" xlink:href="#z"/>
<use x="124.560547" xlink:href="#w"/>
<use x="187.939453" xlink:href="#aq"/>
<use x="247.119141" xlink:href="#d"/>
<use x="308.642578" xlink:href="#f"/>
<use x="369.921875" xlink:href="#w"/>
<use x="433.300781" xlink:href="#az"/>
</g>
</g>
<g clip-path="url(#a)">
<defs>
<path id="as" d="m37.109 75.984v-7.4844h-8.5938q-4.8281 0-6.7188-1.9531-1.875-1.9531-1.875-7.0312v-4.8281h14.797v-6.9844h-14.797v-47.703h-9.0312v47.703h-8.5938v6.9844h8.5938v3.8125q0 9.125 4.25 13.297 4.25 4.1875 13.469 4.1875z"/>
</defs>
<g transform="translate(1267.3 892.56) scale(.1 -.1)">
<use xlink:href="#as"/>
<use x="35.205078" xlink:href="#f"/>
<use x="96.484375" xlink:href="#j"/>
<use x="124.267578" xlink:href="#p"/>
<use x="163.476562" xlink:href="#r"/>
</g>
</g>
<g clip-path="url(#a)">
<g transform="translate(1309 892.56) scale(.1 -.1)">
<use xlink:href="#as"/>
<use x="35.205078" xlink:href="#w"/>
<use x="98.583984" xlink:href="#h"/>
<use x="139.666016" xlink:href="#d"/>
<use x="201.189453" xlink:href="#e"/>
<use x="264.568359" xlink:href="#p"/>
</g>
</g>
<g clip-path="url(#a)">
<g transform="translate(1354.3 892.76) scale(.1 -.1)">
<use xlink:href="#ae"/>
<use x="63.476562" xlink:href="#z"/>
<use x="124.658203" xlink:href="#h"/>
<use x="165.771484" xlink:href="#p"/>
<use x="204.980469" xlink:href="#an"/>
<use x="266.503906" xlink:href="#r"/>
</g>
</g>
<g clip-path="url(#a)">
<defs>
<path id="ay" d="m34.281 27.484q-10.891 0-15.094-2.4844t-4.2031-8.5q0-4.7812 3.1562-7.5938 3.1562-2.7969 8.5625-2.7969 7.4844 0 12 5.2969t4.5156 14.078v2zm17.922 3.7188v-31.203h-8.9844v8.2969q-3.0781-4.9688-7.6719-7.3438t-11.234-2.375q-8.3906 0-13.359 4.7188-4.9531 4.7188-4.9531 12.625 0 9.2188 6.1719 13.906 6.1875 4.6875 18.438 4.6875h12.609v0.89062q0 6.2031-4.0781 9.5938t-11.453 3.3906q-4.6875 0-9.1406-1.125-4.4375-1.125-8.5312-3.375v8.3125q4.9219 1.9062 9.5625 2.8438 4.6406 0.95312 9.0312 0.95312 11.875 0 17.734-6.1562 5.8594-6.1406 5.8594-18.641zm-30.281 48.781 13.766-18.266h-7.4688l-15.922 18.266z"/>
</defs>
<g transform="translate(1413.2 892.56) scale(.1 -.1)">
<use xlink:href="#ay"/>
</g>
</g>
<g clip-path="url(#a)">
<g transform="translate(1457.9 892.56) scale(.1 -.1)">
<use xlink:href="#i"/>
<use x="27.783203" xlink:href="#f"/>
</g>
</g>
<g clip-path="url(#a)">
<defs>
<path id="ai" d="m48.781 52.594v-8.4062q-3.8125 2.1094-7.6406 3.1562t-7.7344 1.0469q-8.75 0-13.594-5.5469-4.8281-5.5312-4.8281-15.547t4.8281-15.562q4.8438-5.5312 13.594-5.5312 3.9062 0 7.7344 1.0469t7.6406 3.1562v-8.3125q-3.7656-1.75-7.7969-2.625-4.0156-0.89062-8.5625-0.89062-12.359 0-19.641 7.7656-7.2656 7.7656-7.2656 20.953 0 13.375 7.3438 21.031 7.3594 7.6719 20.156 7.6719 4.1406 0 8.0938-0.85938 3.9531-0.84375 7.6719-2.5469z"/>
</defs>
<g transform="translate(1474.5 892.56) scale(.1 -.1)">
<use xlink:href="#ai"/>
<use x="54.980469" xlink:href="#z"/>
<use x="116.162109" xlink:href="#e"/>
<use x="179.541016" xlink:href="#e"/>
<use x="242.919922" xlink:href="#f"/>
<use x="304.199219" xlink:href="#j"/>
<use x="331.982422" xlink:href="#r"/>
<use x="384.082031" xlink:href="#r"/>
<use x="436.181641" xlink:href="#f"/>
<use x="497.460938" xlink:href="#e"/>
<use x="560.839844" xlink:href="#ai"/>
<use x="615.820312" xlink:href="#d"/>
</g>
</g>
<g clip-path="url(#a)">
<g transform="translate(1548.1 892.56) scale(.1 -.1)">
<use xlink:href="#aa"/>
<use x="63.476562" xlink:href="#w"/>
</g>
</g>
<g clip-path="url(#a)">
<g transform="translate(1585.4 892.56) scale(.1 -.1)">
<use xlink:href="#ae"/>
<use x="63.476562" xlink:href="#w"/>
<use x="126.855469" xlink:href="#ao"/>
<use x="190.332031" xlink:href="#i"/>
<use x="218.115234" xlink:href="#j"/>
<use x="245.898438" xlink:href="#ai"/>
</g>
</g>
<g clip-path="url(#a)">
<defs>
<path id="g" d="m10.688 12.406h10.312v-12.406h-10.312z"/>
</defs>
<g transform="translate(1644.9 892.56) scale(.1 -.1)">
<use xlink:href="#g"/>
</g>
</g>
<g clip-path="url(#a)">
<g transform="translate(950.81 46.291) scale(.1 -.1)">
<use xlink:href="#c"/>
<use x="63.623047" xlink:href="#g"/>
<use x="95.410156" xlink:href="#c"/>
</g>
</g>
<g clip-path="url(#a)">
<defs>
<path id="m" d="m19.188 8.2969h34.422v-8.2969h-46.281v8.2969q5.6094 5.8125 15.297 15.594 9.7031 9.7969 12.188 12.641 4.7344 5.3125 6.6094 9 1.8906 3.6875 1.8906 7.25 0 5.8125-4.0781 9.4688-4.0781 3.6719-10.625 3.6719-4.6406 0-9.7969-1.6094-5.1406-1.6094-11-4.8906v9.9688q5.9531 2.3906 11.125 3.6094 5.1875 1.2188 9.4844 1.2188 11.328 0 18.062-5.6719 6.7344-5.6562 6.7344-15.125 0-4.5-1.6875-8.5312-1.6719-4.0156-6.125-9.4844-1.2188-1.4219-7.7656-8.1875-6.5312-6.7656-18.453-18.922z"/>
</defs>
<g transform="translate(679.38 221.53) scale(.1 -.1)">
<use xlink:href="#c"/>
<use x="63.623047" xlink:href="#g"/>
<use x="95.410156" xlink:href="#m"/>
</g>
</g>
<g clip-path="url(#a)">
<defs>
<path id="o" d="m40.578 39.312q7.0781-1.5156 11.047-6.3125 3.9844-4.7812 3.9844-11.812 0-10.781-7.4219-16.703-7.4219-5.9062-21.094-5.9062-4.5781 0-9.4375 0.90625t-10.031 2.7188v9.5156q4.0938-2.3906 8.9688-3.6094 4.8906-1.2188 10.219-1.2188 9.2656 0 14.125 3.6562t4.8594 10.641q0 6.4531-4.5156 10.078-4.5156 3.6406-12.562 3.6406h-8.5v8.1094h8.8906q7.2656 0 11.125 2.9062t3.8594 8.375q0 5.6094-3.9844 8.6094-3.9688 3.0156-11.391 3.0156-4.0625 0-8.7031-0.89062-4.6406-0.875-10.203-2.7188v8.7812q5.625 1.5625 10.531 2.3438t9.25 0.78125q11.234 0 17.766-5.1094 6.5469-5.0938 6.5469-13.781 0-6.0625-3.4688-10.234t-9.8594-5.7812z"/>
</defs>
<g transform="translate(763.59 726.77) scale(.1 -.1)">
<use xlink:href="#c"/>
<use x="63.623047" xlink:href="#g"/>
<use x="95.410156" xlink:href="#o"/>
</g>
</g>
<g clip-path="url(#a)">
<defs>
<path id="n" d="m37.797 64.312-24.906-38.922h24.906zm-2.5938 8.5938h12.406v-47.516h10.406v-8.2031h-10.406v-17.188h-9.8125v17.188h-32.906v9.5156z"/>
</defs>
<g transform="translate(929.37 560.97) scale(.1 -.1)">
<use xlink:href="#c"/>
<use x="63.623047" xlink:href="#g"/>
<use x="95.410156" xlink:href="#n"/>
</g>
</g>
<g clip-path="url(#a)">
<defs>
<path id="v" d="m10.797 72.906h38.719v-8.3125h-29.688v-17.859q2.1406 0.73438 4.2812 1.0938 2.1562 0.35938 4.3125 0.35938 12.203 0 19.328-6.6875 7.1406-6.6875 7.1406-18.109 0-11.766-7.3281-18.297-7.3281-6.5156-20.656-6.5156-4.5938 0-9.3594 0.78125-4.75 0.78125-9.8281 2.3438v9.9219q4.3906-2.3906 9.0781-3.5625t9.9062-1.1719q8.4531 0 13.375 4.4375 4.9375 4.4375 4.9375 12.062 0 7.6094-4.9375 12.047-4.9219 4.4531-13.375 4.4531-3.9531 0-7.8906-0.875-3.9219-0.875-8.0156-2.7344z"/>
</defs>
<g transform="translate(1132 726.77) scale(.1 -.1)">
<use xlink:href="#c"/>
<use x="63.623047" xlink:href="#g"/>
<use x="95.410156" xlink:href="#v"/>
</g>
</g>
<g clip-path="url(#a)">
<g transform="translate(1347.9 221.53) scale(.1 -.1)">
<use xlink:href="#c"/>
<use x="63.623047" xlink:href="#g"/>
<use x="95.410156" xlink:href="#y"/>
</g>
</g>
<g clip-path="url(#a)">
<defs>
<path id="ad" d="m31.781 66.406q-7.6094 0-11.453-7.5-3.8281-7.4844-3.8281-22.531 0-14.984 3.8281-22.484 3.8438-7.5 11.453-7.5 7.6719 0 11.5 7.5 3.8438 7.5 3.8438 22.484 0 15.047-3.8438 22.531-3.8281 7.5-11.5 7.5zm0 7.8125q12.266 0 18.734-9.7031 6.4688-9.6875 6.4688-28.141 0-18.406-6.4688-28.109-6.4688-9.6875-18.734-9.6875-12.25 0-18.719 9.6875-6.4688 9.7031-6.4688 28.109 0 18.453 6.4688 28.141 6.4688 9.7031 18.719 9.7031z"/>
</defs>
<g transform="translate(1220.9 560.97) scale(.1 -.1)">
<use xlink:href="#c"/>
<use x="63.623047" xlink:href="#g"/>
<use x="95.410156" xlink:href="#c"/>
<use x="159.033203" xlink:href="#ad"/>
</g>
</g>
<g clip-path="url(#a)">
<g transform="translate(1313 726.77) scale(.1 -.1)">
<use xlink:href="#c"/>
<use x="63.623047" xlink:href="#g"/>
<use x="95.410156" xlink:href="#c"/>
<use x="159.033203" xlink:href="#c"/>
</g>
</g>
<g clip-path="url(#a)">
<g transform="translate(1359.1 726.77) scale(.1 -.1)">
<use xlink:href="#c"/>
<use x="63.623047" xlink:href="#g"/>
<use x="95.410156" xlink:href="#c"/>
<use x="159.033203" xlink:href="#m"/>
</g>
</g>
<g clip-path="url(#a)">
<g transform="translate(1485.7 392.87) scale(.1 -.1)">
<use xlink:href="#c"/>
<use x="63.623047" xlink:href="#g"/>
<use x="95.410156" xlink:href="#c"/>
<use x="159.033203" xlink:href="#o"/>
</g>
</g>
<g clip-path="url(#a)">
<g transform="translate(1405.1 726.77) scale(.1 -.1)">
<use xlink:href="#c"/>
<use x="63.623047" xlink:href="#g"/>
<use x="95.410156" xlink:href="#c"/>
<use x="159.033203" xlink:href="#n"/>
</g>
</g>
<g clip-path="url(#a)">
<g transform="translate(1451.2 726.77) scale(.1 -.1)">
<use xlink:href="#c"/>
<use x="63.623047" xlink:href="#g"/>
<use x="95.410156" xlink:href="#c"/>
<use x="159.033203" xlink:href="#v"/>
</g>
</g>
<g clip-path="url(#a)">
<g transform="translate(1497.2 726.77) scale(.1 -.1)">
<use xlink:href="#c"/>
<use x="63.623047" xlink:href="#g"/>
<use x="95.410156" xlink:href="#c"/>
<use x="159.033203" xlink:href="#y"/>
</g>
</g>
<g clip-path="url(#a)">
<g transform="translate(1589.3 560.97) scale(.1 -.1)">
<use xlink:href="#c"/>
<use x="63.623047" xlink:href="#g"/>
<use x="95.410156" xlink:href="#c"/>
<use x="159.033203" xlink:href="#ac"/>
</g>
</g>
<g clip-path="url(#a)">
<g transform="translate(1543.3 726.77) scale(.1 -.1)">
<use xlink:href="#c"/>
<use x="63.623047" xlink:href="#g"/>
<use x="95.410156" xlink:href="#c"/>
<use x="159.033203" xlink:href="#ah"/>
</g>
</g>
<g clip-path="url(#a)">
<defs>
<path id="ag" d="m10.984 1.5156v8.9844q3.7188-1.7656 7.5156-2.6875 3.8125-0.92188 7.4844-0.92188 9.7656 0 14.906 6.5625 5.1562 6.5625 5.8906 19.953-2.8281-4.2031-7.1875-6.4531-4.3438-2.25-9.6094-2.25-10.938 0-17.312 6.6094-6.375 6.625-6.375 18.109 0 11.219 6.6406 18 6.6406 6.7969 17.672 6.7969 12.656 0 19.312-9.7031 6.6719-9.6875 6.6719-28.141 0-17.234-8.1875-27.516-8.1719-10.281-21.984-10.281-3.7188 0-7.5312 0.73438-3.7969 0.73438-7.9062 2.2031zm19.625 30.906q6.6406 0 10.516 4.5312 3.8906 4.5469 3.8906 12.469 0 7.8594-3.8906 12.422-3.875 4.5625-10.516 4.5625t-10.516-4.5625-3.875-12.422q0-7.9219 3.875-12.469 3.875-4.5312 10.516-4.5312z"/>
</defs>
<g transform="translate(1589.3 726.77) scale(.1 -.1)">
<use xlink:href="#c"/>
<use x="63.623047" xlink:href="#g"/>
<use x="95.410156" xlink:href="#c"/>
<use x="159.033203" xlink:href="#ag"/>
</g>
</g>
<g clip-path="url(#a)">
<g transform="translate(1174.9 726.77) scale(.1 -.1)">
<use xlink:href="#c"/>
<use x="63.623047" xlink:href="#g"/>
<use x="95.410156" xlink:href="#m"/>
<use x="159.033203" xlink:href="#ad"/>
</g>
</g>
<g clip-path="url(#a)">
<g transform="translate(1220.9 726.77) scale(.1 -.1)">
<use xlink:href="#c"/>
<use x="63.623047" xlink:href="#g"/>
<use x="95.410156" xlink:href="#m"/>
<use x="159.033203" xlink:href="#c"/>
</g>
</g>
<g clip-path="url(#a)">
<g transform="translate(1267 726.77) scale(.1 -.1)">
<use xlink:href="#c"/>
<use x="63.623047" xlink:href="#g"/>
<use x="95.410156" xlink:href="#m"/>
<use x="159.033203" xlink:href="#m"/>
</g>
</g>
<g clip-path="url(#a)">
<g transform="translate(806.46 726.77) scale(.1 -.1)">
<use xlink:href="#c"/>
<use x="63.623047" xlink:href="#g"/>
<use x="95.410156" xlink:href="#m"/>
<use x="159.033203" xlink:href="#o"/>
</g>
</g>
<g clip-path="url(#a)">
<g transform="translate(898.56 726.77) scale(.1 -.1)">
<use xlink:href="#c"/>
<use x="63.623047" xlink:href="#g"/>
<use x="95.410156" xlink:href="#m"/>
<use x="159.033203" xlink:href="#n"/>
</g>
</g>
<g clip-path="url(#a)">
<g transform="translate(898.56 726.77) scale(.1 -.1)">
<use xlink:href="#c"/>
<use x="63.623047" xlink:href="#g"/>
<use x="95.410156" xlink:href="#m"/>
<use x="159.033203" xlink:href="#v"/>
</g>
</g>
<g clip-path="url(#a)">
<g transform="translate(990.66 726.77) scale(.1 -.1)">
<use xlink:href="#c"/>
<use x="63.623047" xlink:href="#g"/>
<use x="95.410156" xlink:href="#m"/>
<use x="159.033203" xlink:href="#y"/>
</g>
</g>
<g clip-path="url(#a)">
<g transform="translate(1036.7 726.77) scale(.1 -.1)">
<use xlink:href="#c"/>
<use x="63.623047" xlink:href="#g"/>
<use x="95.410156" xlink:href="#m"/>
<use x="159.033203" xlink:href="#ac"/>
</g>
</g>
<g clip-path="url(#a)">
<defs>
<path id="aj" d="m9.8125 72.906h9.8594v-72.906h-9.8594z"/>
<path id="at" d="m9.8125 72.906h14.703l18.594-49.609 18.703 49.609h14.703v-72.906h-9.625v64.016l-18.797-50h-9.9062l-18.797 50v-64.016h-9.5781z"/>
</defs>
<g transform="translate(1671.5 892.56) scale(.1 -.1)">
<use xlink:href="#aj"/>
<use x="29.492188" xlink:href="#at"/>
<use x="115.771484" xlink:href="#ab"/>
<use x="176.074219" xlink:href="#s"/>
<use x="231.787109" xlink:href="#aj"/>
<use x="261.279297" xlink:href="#t"/>
<use x="331.103516" xlink:href="#aj"/>
<use x="360.595703" xlink:href="#l"/>
</g>
</g>
<g clip-path="url(#a)">
<g transform="translate(240.03 392.87) scale(.1 -.1)">
<use xlink:href="#c"/>
<use x="63.623047" xlink:href="#g"/>
<use x="95.410156" xlink:href="#m"/>
<use x="159.033203" xlink:href="#ag"/>
</g>
</g>
<g clip-path="url(#a)">
<g transform="translate(507.12 560.97) scale(.1 -.1)">
<use xlink:href="#c"/>
<use x="63.623047" xlink:href="#g"/>
<use x="95.410156" xlink:href="#o"/>
<use x="159.033203" xlink:href="#ad"/>
</g>
</g>
<g clip-path="url(#a)">
<g transform="translate(576.2 726.77) scale(.1 -.1)">
<use xlink:href="#c"/>
<use x="63.623047" xlink:href="#g"/>
<use x="95.410156" xlink:href="#o"/>
<use x="159.033203" xlink:href="#c"/>
</g>
</g>
<g clip-path="url(#a)">
<g transform="translate(622.25 726.77) scale(.1 -.1)">
<use xlink:href="#c"/>
<use x="63.623047" xlink:href="#g"/>
<use x="95.410156" xlink:href="#o"/>
<use x="159.033203" xlink:href="#m"/>
</g>
</g>
<g clip-path="url(#a)">
<g transform="translate(668.3 726.77) scale(.1 -.1)">
<use xlink:href="#c"/>
<use x="63.623047" xlink:href="#g"/>
<use x="95.410156" xlink:href="#o"/>
<use x="159.033203" xlink:href="#o"/>
</g>
</g>
<g clip-path="url(#a)">
<g transform="translate(484.1 726.77) scale(.1 -.1)">
<use xlink:href="#c"/>
<use x="63.623047" xlink:href="#g"/>
<use x="95.410156" xlink:href="#o"/>
<use x="159.033203" xlink:href="#v"/>
</g>
</g>
<g clip-path="url(#a)">
<g transform="translate(530.15 726.77) scale(.1 -.1)">
<use xlink:href="#c"/>
<use x="63.623047" xlink:href="#g"/>
<use x="95.410156" xlink:href="#o"/>
<use x="159.033203" xlink:href="#y"/>
</g>
</g>
<g clip-path="url(#a)">
<g transform="translate(69.635 726.77) scale(.1 -.1)">
<use xlink:href="#c"/>
<use x="63.623047" xlink:href="#g"/>
<use x="95.410156" xlink:href="#o"/>
<use x="159.033203" xlink:href="#ac"/>
</g>
</g>
<g clip-path="url(#a)">
<g transform="translate(161.74 560.97) scale(.1 -.1)">
<use xlink:href="#c"/>
<use x="63.623047" xlink:href="#g"/>
<use x="95.410156" xlink:href="#o"/>
<use x="159.033203" xlink:href="#ah"/>
</g>
</g>
<g clip-path="url(#a)">
<g transform="translate(253.84 726.77) scale(.1 -.1)">
<use xlink:href="#c"/>
<use x="63.623047" xlink:href="#g"/>
<use x="95.410156" xlink:href="#o"/>
<use x="159.033203" xlink:href="#ag"/>
</g>
</g>
<g clip-path="url(#a)">
<g transform="translate(322.92 560.97) scale(.1 -.1)">
<use xlink:href="#c"/>
<use x="63.623047" xlink:href="#g"/>
<use x="95.410156" xlink:href="#n"/>
<use x="159.033203" xlink:href="#ad"/>
</g>
</g>
<g clip-path="url(#a)">
<g transform="translate(391.99 726.77) scale(.1 -.1)">
<use xlink:href="#c"/>
<use x="63.623047" xlink:href="#g"/>
<use x="95.410156" xlink:href="#n"/>
<use x="159.033203" xlink:href="#c"/>
</g>
</g>
<g clip-path="url(#a)">
<g transform="translate(299.89 726.77) scale(.1 -.1)">
<use xlink:href="#c"/>
<use x="63.623047" xlink:href="#g"/>
<use x="95.410156" xlink:href="#n"/>
<use x="159.033203" xlink:href="#m"/>
</g>
</g>
<g clip-path="url(#a)">
<g transform="translate(345.94 726.77) scale(.1 -.1)">
<use xlink:href="#c"/>
<use x="63.623047" xlink:href="#g"/>
<use x="95.410156" xlink:href="#n"/>
<use x="159.033203" xlink:href="#o"/>
</g>
</g>
<g clip-path="url(#a)">
<g transform="translate(115.69 726.77) scale(.1 -.1)">
<use xlink:href="#c"/>
<use x="63.623047" xlink:href="#g"/>
<use x="95.410156" xlink:href="#n"/>
<use x="159.033203" xlink:href="#n"/>
</g>
</g>
<g clip-path="url(#a)">
<g transform="translate(161.74 726.77) scale(.1 -.1)">
<use xlink:href="#c"/>
<use x="63.623047" xlink:href="#g"/>
<use x="95.410156" xlink:href="#n"/>
<use x="159.033203" xlink:href="#v"/>
</g>
</g>
<g clip-path="url(#a)">
<g transform="translate(207.79 726.77) scale(.1 -.1)">
<use xlink:href="#c"/>
<use x="63.623047" xlink:href="#g"/>
<use x="95.410156" xlink:href="#n"/>
<use x="159.033203" xlink:href="#y"/>
</g>
</g>
<g clip-path="url(#a)">
<g transform="translate(1236.7 46.291) scale(.1 -.1)">
<use xlink:href="#c"/>
<use x="63.623047" xlink:href="#g"/>
<use x="95.410156" xlink:href="#n"/>
<use x="159.033203" xlink:href="#ac"/>
</g>
</g>
<g clip-path="url(#a)">
<g transform="translate(787.6 46.291) scale(.1 -.1)">
<use xlink:href="#c"/>
<use x="63.623047" xlink:href="#g"/>
<use x="95.410156" xlink:href="#n"/>
<use x="159.033203" xlink:href="#ah"/>
</g>
</g>
<g clip-path="url(#a)">
<g transform="translate(438.05 726.77) scale(.1 -.1)">
<use xlink:href="#c"/>
<use x="63.623047" xlink:href="#g"/>
<use x="95.410156" xlink:href="#n"/>
<use x="159.033203" xlink:href="#ag"/>
</g>
</g>
<g clip-path="url(#a)">
<g transform="translate(714.35 726.77) scale(.1 -.1)">
<use xlink:href="#c"/>
<use x="63.623047" xlink:href="#g"/>
<use x="95.410156" xlink:href="#v"/>
<use x="159.033203" xlink:href="#ad"/>
</g>
</g>
<g clip-path="url(#a)">
<g transform="translate(1082.8 726.77) scale(.1 -.1)">
<use xlink:href="#c"/>
<use x="63.623047" xlink:href="#g"/>
<use x="95.410156" xlink:href="#v"/>
<use x="159.033203" xlink:href="#c"/>
</g>
</g>
<g clip-path="url(#a)">
<g transform="translate(1635.4 726.77) scale(.1 -.1)">
<use xlink:href="#c"/>
<use x="63.623047" xlink:href="#g"/>
<use x="95.410156" xlink:href="#v"/>
<use x="159.033203" xlink:href="#m"/>
</g>
</g>
<defs>
<clipPath id="a">
<rect width="1773.3" height="933.33"/>
</clipPath>
</defs>
</svg>
