<?xml version="1.0" encoding="UTF-8"?>
<!DOCTYPE svg  PUBLIC '-//W3C//DTD SVG 1.1//EN'  'http://www.w3.org/Graphics/SVG/1.1/DTD/svg11.dtd'>
<svg width="1520pt" height="800pt" version="1.1" viewBox="0 0 1520 800" xmlns="http://www.w3.org/2000/svg" xmlns:xlink="http://www.w3.org/1999/xlink">
<defs>
<style type="text/css">*{stroke-linecap:butt;stroke-linejoin:round;}</style>
</defs>
<path d="m0 800h1520v-800h-1520z" fill="#fff"/>
<g fill="none" stroke="#000">
<path d="m466.16 36.364-215.53 293.13" clip-path="url(#a)"/>
<path d="m466.16 36.364-106.16 293.13" clip-path="url(#a)"/>
<path d="m466.16 36.364 173.76 146.75" clip-path="url(#a)"/>
<path d="m466.16 36.364 536.46 146.75" clip-path="url(#a)"/>
<path d="m466.16 36.364-279.58 584.14" clip-path="url(#a)"/>
<path d="m466.16 36.364-108.95 584.14" clip-path="url(#a)"/>
<path d="m250.63 329.5 584.9 291.01" clip-path="url(#a)" stroke-dasharray="3.7,1.6"/>
<path d="m250.63 329.5-171.75 291.01" clip-path="url(#a)"/>
<path d="m250.63 329.5-173.15 291.01" clip-path="url(#a)"/>
<path d="m250.63 329.5-139.58 145.88" clip-path="url(#a)"/>
<path d="m250.63 329.5-100.42 145.88" clip-path="url(#a)"/>
<path d="m360 329.5 475.52 291.01" clip-path="url(#a)" stroke-dasharray="3.7,1.6"/>
<path d="m360 329.5-41.958 145.88" clip-path="url(#a)"/>
<path d="m360 329.5-130.07 145.88" clip-path="url(#a)"/>
<path d="m360 329.5-62.937 145.88" clip-path="url(#a)"/>
<path d="m360 329.5-282.52 291.01" clip-path="url(#a)" stroke-dasharray="3.7,1.6"/>
<path d="m639.91 183.12 195.61 437.39" clip-path="url(#a)" stroke-dasharray="3.7,1.6"/>
<path d="m639.91 183.12-240.75 437.39" clip-path="url(#a)"/>
<path d="m639.91 183.12-86.131 146.38" clip-path="url(#a)"/>
<path d="m639.91 183.12 131.27 437.39" clip-path="url(#a)"/>
<path d="m1002.6 183.12-167.09 437.39" clip-path="url(#a)"/>
<path d="m1002.6 183.12-28.632 437.39" clip-path="url(#a)"/>
<path d="m1002.6 183.12-30.031 437.39" clip-path="url(#a)"/>
<path d="m1002.6 183.12 225.76 146.38" clip-path="url(#a)"/>
<path d="m835.52 620.5v143.13" clip-path="url(#a)"/>
<path d="m973.99 620.5-71.329 143.13" clip-path="url(#a)"/>
<path d="m973.99 620.5 71.329 143.13" clip-path="url(#a)"/>
<path d="m972.59 620.5v143.13" clip-path="url(#a)"/>
<path d="m1228.4 329.5-107.54 291.01" clip-path="url(#a)"/>
<path d="m1228.4 329.5-29.215 291.01" clip-path="url(#a)"/>
<path d="m1228.4 329.5 136.75 145.88" clip-path="url(#a)"/>
<path d="m1120.8 620.5v143.13" clip-path="url(#a)"/>
<path d="m1199.2 620.5v143.13" clip-path="url(#a)"/>
<path d="m1365.1 475.38-84.848 145.12" clip-path="url(#a)"/>
<path d="m1365.1 475.38-0.9324 145.12" clip-path="url(#a)"/>
<path d="m1365.1 475.38 85.781 145.12" clip-path="url(#a)"/>
<path d="m1280.3 620.5v143.13" clip-path="url(#a)"/>
<path d="m1364.2 620.5v143.13" clip-path="url(#a)"/>
<path d="m399.16 620.5v143.13" clip-path="url(#a)"/>
<path d="m553.78 329.5-86.092 145.88" clip-path="url(#a)"/>
<path d="m553.78 329.5-11.966 291.01" clip-path="url(#a)"/>
<path d="m553.78 329.5 98.057 145.88" clip-path="url(#a)"/>
<path d="m467.69 475.38-23.776 145.12" clip-path="url(#a)"/>
<path d="m467.69 475.38 23.776 145.12" clip-path="url(#a)"/>
<path d="m541.82 620.5v143.13" clip-path="url(#a)"/>
<path d="m651.84 475.38-56.876 145.12" clip-path="url(#a)"/>
<path d="m651.84 475.38-0.9324 145.12" clip-path="url(#a)"/>
<path d="m651.84 475.38 57.809 145.12" clip-path="url(#a)"/>
<path d="m594.97 620.5v143.13" clip-path="url(#a)"/>
<path d="m650.91 620.5v143.13" clip-path="url(#a)"/>
<path d="m709.65 620.5v143.13" clip-path="url(#a)"/>
<path d="m443.92 620.5v143.13" clip-path="url(#a)"/>
<path d="m491.47 620.5v143.13" clip-path="url(#a)"/>
<path d="m229.93 475.38-15.385 145.12" clip-path="url(#a)"/>
<path d="m229.93 475.38 15.385 145.12" clip-path="url(#a)"/>
<path d="m297.06 475.38-18.182 145.12" clip-path="url(#a)"/>
<path d="m297.06 475.38 18.182 145.12" clip-path="url(#a)"/>
<path d="m278.88 620.5v143.13" clip-path="url(#a)"/>
<path d="m315.24 620.5v143.13" clip-path="url(#a)"/>
<path d="m214.55 620.5v143.13" clip-path="url(#a)"/>
<path d="m245.31 620.5v143.13" clip-path="url(#a)"/>
<path d="m78.881 620.5-9.7902 143.13" clip-path="url(#a)"/>
<path d="m78.881 620.5 9.7902 143.13" clip-path="url(#a)"/>
<path d="m77.483 620.5v143.13" clip-path="url(#a)"/>
<path d="m111.05 475.38-8.3916 145.12" clip-path="url(#a)"/>
<path d="m111.05 475.38 8.3916 145.12" clip-path="url(#a)"/>
<path d="m150.21 475.38-11.189 145.12" clip-path="url(#a)"/>
<path d="m150.21 475.38 11.189 145.12" clip-path="url(#a)"/>
<path d="m139.02 620.5v143.13" clip-path="url(#a)"/>
<path d="m161.4 620.5v143.13" clip-path="url(#a)"/>
<path d="m102.66 620.5v143.13" clip-path="url(#a)"/>
<path d="m119.44 620.5v143.13" clip-path="url(#a)"/>
<path d="m186.57 620.5v143.13" clip-path="url(#a)"/>
<path d="m357.2 620.5v143.13" clip-path="url(#a)"/>
<path d="m771.19 620.5v143.13" clip-path="url(#a)"/>
<path d="m1450.9 620.5v143.13" clip-path="url(#a)"/>
</g>
<path d="m361.66 189.07 3.5638-4.8471q1.4217-1.9336-0.51191-3.3553l-6.2379-4.5864q-1.9336-1.4217-3.3553 0.51191l-3.5638 4.8471q-1.4217 1.9336 0.51191 3.3553l6.2379 4.5864q1.9336 1.4217 3.3553-0.51191z" clip-path="url(#a)" fill="#fff" stroke="#fff"/>
<g clip-path="url(#a)">
<defs>
<path id="ab" d="m9.8125 72.906h9.8594v-29.891h35.844v29.891h9.8594v-72.906h-9.8594v34.719h-35.844v-34.719h-9.8594z"/>
</defs>
<g transform="translate(358.39 186.66) rotate(-53.675) scale(.08 -.08)">
<use xlink:href="#ab"/>
</g>
</g>
<path d="m417.95 187.89 2.0486-5.6567q0.81721-2.2566-1.4394-3.0738l-7.2798-2.6364q-2.2566-0.81721-3.0738 1.4394l-2.0486 5.6567q-0.81721 2.2566 1.4394 3.0738l7.2798 2.6364q2.2566 0.81721 3.0738-1.4394z" clip-path="url(#a)" fill="#fff" stroke="#fff"/>
<g clip-path="url(#a)">
<g transform="translate(414.13 186.51) rotate(-70.092) scale(.08 -.08)">
<use xlink:href="#ab"/>
</g>
</g>
<path d="m546.69 112.59 4.5963 3.8819q1.8336 1.5486 3.3821-0.28498l4.9958-5.9151q1.5486-1.8336-0.28498-3.3821l-4.5963-3.8819q-1.8336-1.5486-3.3821 0.28498l-4.9958 5.9151q-1.5486 1.8336 0.28498 3.3821z" clip-path="url(#a)" fill="#fff" stroke="#fff"/>
<g clip-path="url(#a)">
<g transform="translate(549.31 109.48) rotate(40.184) scale(.08 -.08)">
<use xlink:href="#ab"/>
</g>
</g>
<path d="m729.83 114.99 5.803 1.5874q2.3149 0.63326 2.9482-1.6817l2.0429-7.4681q0.63326-2.3149-1.6817-2.9482l-5.803-1.5874q-2.3149-0.63326-2.9482 1.6817l-2.0429 7.4681q-0.63326 2.3149 1.6817 2.9482z" clip-path="url(#a)" fill="#fff" stroke="#fff"/>
<g clip-path="url(#a)">
<g transform="translate(730.9 111.07) rotate(15.299) scale(.08 -.08)">
<use xlink:href="#ab"/>
</g>
</g>
<path d="m330.76 333.78 2.5277-5.2813q1.0361-2.1648-1.1287-3.2009l-6.9838-3.3426q-2.1648-1.0361-3.2009 1.1287l-2.5277 5.2813q-1.0361 2.1648 1.1287 3.2009l6.9838 3.3426q2.1648 1.0361 3.2009-1.1287z" clip-path="url(#a)" fill="#fff" stroke="#fff"/>
<g clip-path="url(#a)">
<defs>
<path id="z" d="m8.6875 72.906h9.9219v-44.297q0-11.719 4.2344-16.875 4.25-5.1406 13.781-5.1406 9.4688 0 13.719 5.1406 4.25 5.1562 4.25 16.875v44.297h9.9062v-45.516q0-14.25-7.0625-21.531-7.0469-7.2812-20.812-7.2812-13.828 0-20.891 7.2812-7.0469 7.2812-7.0469 21.531z"/>
</defs>
<g transform="translate(327.09 332.03) rotate(-64.423) scale(.08 -.08)">
<use xlink:href="#z"/>
</g>
</g>
<path d="m417.31 332.46 1.0736-5.7557q0.44006-2.3593-1.9193-2.7994l-7.6112-1.4196q-2.3593-0.44006-2.7994 1.9193l-1.0736 5.7557q-0.44006 2.3593 1.9193 2.7994l7.6112 1.4196q2.3593 0.44006 2.7994-1.9193z" clip-path="url(#a)" fill="#fff" stroke="#fff"/>
<g clip-path="url(#a)">
<g transform="translate(413.31 331.72) rotate(-79.435) scale(.08 -.08)">
<use xlink:href="#z"/>
</g>
</g>
<path d="m537.83 479.4 4.8996 2.4377q2.1487 1.0691 3.2178-1.0797l3.4489-6.9319q1.0691-2.1487-1.0797-3.2178l-4.8996-2.4377q-2.1487-1.0691-3.2178 1.0797l-3.4489 6.9319q-1.0691 2.1487 1.0797 3.2178z" clip-path="url(#a)" fill="#fff" stroke="#fff"/>
<g clip-path="url(#a)">
<defs>
<path id="s" d="m34.188 63.188-13.391-36.281h26.812zm-5.5781 9.7188h11.188l27.781-72.906h-10.25l-6.6406 18.703h-32.859l-6.6406-18.703h-10.406z"/>
</defs>
<g transform="translate(539.64 475.76) rotate(26.452) scale(.08 -.08)">
<use xlink:href="#s"/>
</g>
</g>
<path d="m168.59 480.84 3.1309-5.305q1.2198-2.0669-0.84704-3.2867l-6.6678-3.9353q-2.0669-1.2198-3.2867 0.84704l-3.1309 5.305q-1.2198 2.0669 0.84704 3.2867l6.6678 3.9353q2.0669 1.2198 3.2867-0.84704z" clip-path="url(#a)" fill="#fff" stroke="#fff"/>
<g clip-path="url(#a)">
<defs>
<path id="ag" d="m19.672 64.797v-56.688h11.922q15.094 0 22.094 6.8281 7 6.8438 7 21.594 0 14.641-7 21.453t-22.094 6.8125zm-9.8594 8.1094h20.266q21.188 0 31.094-8.8125 9.9219-8.8125 9.9219-27.562 0-18.859-9.9688-27.703-9.9531-8.8281-31.047-8.8281h-20.266z"/>
</defs>
<g transform="translate(165.09 478.77) rotate(-59.452) scale(.08 -.08)">
<use xlink:href="#ag"/>
</g>
</g>
<path d="m168.21 480.28 2.4665-4.1455q1.2272-2.0625-0.83534-3.2897l-6.6538-3.9589q-2.0625-1.2272-3.2897 0.83534l-2.4665 4.1455q-1.2272 2.0625 0.83534 3.2897l6.6538 3.9589q2.0625 1.2272 3.2897-0.83534z" clip-path="url(#a)" fill="#fff" stroke="#fff"/>
<g clip-path="url(#a)">
<defs>
<path id="aa" d="m19.672 64.797v-27.391h12.406q6.8906 0 10.641 3.5625 3.7656 3.5625 3.7656 10.156 0 6.5469-3.7656 10.109-3.75 3.5625-10.641 3.5625zm-9.8594 8.1094h22.266q12.266 0 18.531-5.5469 6.2812-5.5469 6.2812-16.234 0-10.797-6.2812-16.312-6.2656-5.5156-18.531-5.5156h-12.406v-29.297h-9.8594z"/>
</defs>
<g transform="translate(164.72 478.2) rotate(-59.248) scale(.08 -.08)">
<use xlink:href="#aa"/>
</g>
</g>
<path d="m183.68 408.54 3.378-3.5305q1.6592-1.7341-0.074936-3.3933l-5.5943-5.3526q-1.7341-1.6592-3.3933 0.074936l-3.378 3.5305q-1.6592 1.7341 0.074937 3.3933l5.5943 5.3526q1.7341 1.6592 3.3933-0.074936z" clip-path="url(#a)" fill="#fff" stroke="#fff"/>
<g clip-path="url(#a)">
<defs>
<path id="k" d="m-0.29688 72.906h61.672v-8.3125h-25.875v-64.594h-9.9062v64.594h-25.891z"/>
</defs>
<g transform="translate(180.75 405.73) rotate(-46.265) scale(.08 -.08)">
<use xlink:href="#k"/>
</g>
</g>
<path d="m204.03 408.25 3.1029-4.5078q1.3608-1.9769-0.61611-3.3377l-6.3776-4.39q-1.9769-1.3608-3.3377 0.61611l-3.1029 4.5078q-1.3608 1.9769 0.61611 3.3377l6.3776 4.39q1.9769 1.3608 3.3377-0.61611z" clip-path="url(#a)" fill="#fff" stroke="#fff"/>
<g clip-path="url(#a)">
<g transform="translate(200.69 405.94) rotate(-55.458) scale(.08 -.08)">
<use xlink:href="#s"/>
</g>
</g>
<path d="m592.15 478.92 4.6678 2.8566q2.0471 1.2528 3.2999-0.79433l4.0415-6.604q1.2528-2.0471-0.79433-3.2999l-4.6678-2.8566q-2.0471-1.2528-3.2999 0.79433l-4.0415 6.604q-1.2528 2.0471 0.79433 3.2999z" clip-path="url(#a)" fill="#fff" stroke="#fff"/>
<g clip-path="url(#a)">
<g transform="translate(594.28 475.45) rotate(31.465) scale(.08 -.08)">
<use xlink:href="#s"/>
</g>
</g>
<path d="m344.2 407.13 1.7027-5.92q0.66338-2.3065-1.6431-2.9699l-7.4409-2.1401q-2.3065-0.66338-2.9699 1.6431l-1.7027 5.92q-0.66338 2.3065 1.6431 2.9699l7.4409 2.1401q2.3065 0.66338 2.9699-1.6431z" clip-path="url(#a)" fill="#fff" stroke="#fff"/>
<g clip-path="url(#a)">
<g transform="translate(340.29 406.01) rotate(-73.954) scale(.08 -.08)">
<use xlink:href="#ag"/>
</g>
</g>
<path d="m298.02 408.44 3.2518-3.6471q1.5972-1.7914-0.19419-3.3886l-5.779-5.1526q-1.7914-1.5972-3.3886 0.19419l-3.2518 3.6471q-1.5972 1.7914 0.19419 3.3886l5.779 5.1526q1.7914 1.5972 3.3886-0.19419z" clip-path="url(#a)" fill="#fff" stroke="#fff"/>
<g clip-path="url(#a)">
<g transform="translate(294.99 405.73) rotate(-48.28) scale(.08 -.08)">
<use xlink:href="#k"/>
</g>
</g>
<path d="m333.21 407.44 2.1678-5.0248q0.9507-2.2037-1.253-3.1544l-7.1091-3.067q-2.2037-0.9507-3.1544 1.253l-2.1678 5.0248q-0.9507 2.2037 1.253 3.1544l7.1091 3.067q2.2037 0.9507 3.1544-1.253z" clip-path="url(#a)" fill="#fff" stroke="#fff"/>
<g clip-path="url(#a)">
<g transform="translate(329.47 405.83) rotate(-66.664) scale(.08 -.08)">
<use xlink:href="#s"/>
</g>
</g>
<path d="m221.56 481.1 3.36-3.461q1.6718-1.722-0.050241-3.3937l-5.5552-5.3931q-1.722-1.6718-3.3937 0.050241l-3.36 3.461q-1.6718 1.722 0.050241 3.3937l5.5552 5.3931q1.722 1.6718 3.3937-0.050241z" clip-path="url(#a)" fill="#fff" stroke="#fff"/>
<g clip-path="url(#a)">
<g transform="translate(218.65 478.27) rotate(-45.848) scale(.08 -.08)">
<use xlink:href="#aa"/>
</g>
</g>
<path d="m730.88 401.87 2.2342 4.9957q0.97981 2.1909 3.1707 1.2111l7.0679-3.1609q2.1909-0.97981 1.2111-3.1707l-2.2342-4.9957q-0.97981-2.1909-3.1707-1.2111l-7.0679 3.1609q-2.1909 0.97981-1.2111 3.1707z" clip-path="url(#a)" fill="#fff" stroke="#fff"/>
<g clip-path="url(#a)">
<g transform="translate(734.59 400.21) rotate(65.905) scale(.08 -.08)">
<use xlink:href="#s"/>
</g>
</g>
<path d="m523.81 407.06 2.449-4.4493q1.1573-2.1025-0.94523-3.2598l-6.7829-3.7335q-2.1025-1.1573-3.2598 0.94523l-2.449 4.4493q-1.1573 2.1025 0.94523 3.2598l6.7829 3.7335q2.1025 1.1573 3.2598-0.94523z" clip-path="url(#a)" fill="#fff" stroke="#fff"/>
<g clip-path="url(#a)">
<defs>
<path id="ao" d="m53.516 70.516v-9.625q-5.6094 2.6875-10.594 4-4.9844 1.3281-9.625 1.3281-8.0469 0-12.422-3.125t-4.375-8.8906q0-4.8438 2.9062-7.3125 2.9062-2.4531 11.016-3.9688l5.9531-1.2188q11.031-2.1094 16.281-7.4062t5.25-14.172q0-10.609-7.1094-16.078-7.0938-5.4688-20.812-5.4688-5.1719 0-11.016 1.1719-5.8281 1.1719-12.078 3.4688v10.156q6-3.3594 11.766-5.0781 5.7656-1.7031 11.328-1.7031 8.4375 0 13.031 3.3125 4.5938 3.3281 4.5938 9.4844 0 5.3594-3.2969 8.3906t-10.812 4.5469l-6.0156 1.1719q-11.031 2.1875-15.969 6.875-4.9219 4.6875-4.9219 13.047 0 9.6719 6.8125 15.234t18.766 5.5625q5.1406 0 10.453-0.9375 5.3281-0.92188 10.891-2.7656z"/>
</defs>
<g transform="translate(520.25 405.1) rotate(-61.17) scale(.08 -.08)">
<use xlink:href="#ao"/>
</g>
</g>
<path d="m600.87 261.84 2.7752-4.7166q1.2171-2.0685-0.85139-3.2856l-6.673-3.9264q-2.0685-1.2171-3.2856 0.85139l-2.7752 4.7166q-1.2171 2.0685 0.85139 3.2856l6.673 3.9264q2.0685 1.2171 3.2856-0.85139z" clip-path="url(#a)" fill="#fff" stroke="#fff"/>
<g clip-path="url(#a)">
<g transform="translate(597.36 259.78) rotate(-59.527) scale(.08 -.08)">
<use xlink:href="#s"/>
</g>
</g>
<path d="m698.7 400.81 1.6831 5.6079q0.68991 2.2987 2.9886 1.6088l7.4157-2.2257q2.2987-0.68991 1.6088-2.9886l-1.6831-5.6079q-0.68991-2.2987-2.9886-1.6088l-7.4157 2.2257q-2.2987 0.68991-1.6088 2.9886z" clip-path="url(#a)" fill="#fff" stroke="#fff"/>
<g clip-path="url(#a)">
<g transform="translate(702.6 399.64) rotate(73.294) scale(.08 -.08)">
<use xlink:href="#z"/>
</g>
</g>
<path d="m923.95 406.6 1.953-5.1122q0.85649-2.242-1.3855-3.0985l-7.2327-2.7631q-2.242-0.85649-3.0985 1.3855l-1.953 5.1122q-0.85649 2.242 1.3855 3.0985l7.2327 2.7631q2.242 0.85649 3.0985-1.3855z" clip-path="url(#a)" fill="#fff" stroke="#fff"/>
<g clip-path="url(#a)">
<g transform="translate(920.16 405.15) rotate(-69.092) scale(.08 -.08)">
<use xlink:href="#s"/>
</g>
</g>
<path d="m994.36 405.29 0.40239-6.1468q0.15677-2.3949-2.2381-2.5516l-7.726-0.50576q-2.3949-0.15677-2.5516 2.2381l-0.40239 6.1468q-0.15677 2.3949 2.2381 2.5516l7.726 0.50576q2.3949 0.15677 2.5516-2.2381z" clip-path="url(#a)" fill="#fff" stroke="#fff"/>
<g clip-path="url(#a)">
<g transform="translate(990.3 405.03) rotate(-86.255) scale(.08 -.08)">
<use xlink:href="#ag"/>
</g>
</g>
<path d="m993.69 404.65 0.33042-4.8124q0.1644-2.3944-2.23-2.5588l-7.7243-0.53035q-2.3944-0.1644-2.5588 2.23l-0.33042 4.8124q-0.1644 2.3944 2.23 2.5588l7.7243 0.53035q2.3944 0.1644 2.5588-2.23z" clip-path="url(#a)" fill="#fff" stroke="#fff"/>
<g clip-path="url(#a)">
<g transform="translate(989.64 404.37) rotate(-86.072) scale(.08 -.08)">
<use xlink:href="#aa"/>
</g>
</g>
<path d="m1109.8 260.08 4.5917 2.9773q2.0137 1.3057 3.3194-0.70803l4.2123-6.4964q1.3057-2.0137-0.70803-3.3194l-4.5917-2.9773q-2.0137-1.3057-3.3194 0.70803l-4.2123 6.4964q-1.3057 2.0137 0.70803 3.3194z" clip-path="url(#a)" fill="#fff" stroke="#fff"/>
<g clip-path="url(#a)">
<g transform="translate(1112 256.67) rotate(32.959) scale(.08 -.08)">
<use xlink:href="#s"/>
</g>
</g>
<path d="m829.25 675.17v33.808q0 2.4 2.4 2.4h7.7425q2.4 0 2.4-2.4v-33.808q0-2.4-2.4-2.4h-7.7425q-2.4 0-2.4 2.4z" clip-path="url(#a)" fill="#fff" stroke="#fff"/>
<g clip-path="url(#a)">
<defs>
<path id="d" d="m56.203 29.594v-4.3906h-41.312q0.59375-9.2812 5.5938-14.141t13.938-4.8594q5.1719 0 10.031 1.2656t9.6562 3.8125v-8.5q-4.8438-2.0469-9.9219-3.125t-10.297-1.0781q-13.094 0-20.734 7.6094-7.6406 7.625-7.6406 20.625 0 13.422 7.25 21.297 7.25 7.8906 19.562 7.8906 11.031 0 17.453-7.1094 6.4219-7.0938 6.4219-19.297zm-8.9844 2.6406q-0.09375 7.3594-4.125 11.75-4.0312 4.4062-10.672 4.4062-7.5156 0-12.031-4.25t-5.2031-11.969z"/>
<path id="j" d="m41.109 46.297q-1.5156 0.875-3.2969 1.2812-1.7812 0.42188-3.9219 0.42188-7.625 0-11.703-4.9531t-4.0781-14.234v-28.812h-9.0312v54.688h9.0312v-8.5q2.8438 4.9844 7.375 7.3906 4.5469 2.4219 11.047 2.4219 0.92188 0 2.0469-0.125 1.125-0.10938 2.4844-0.35938z"/>
<path id="l" d="m52 44.188q3.375 6.0625 8.0625 8.9375t11.031 2.875q8.5469 0 13.188-5.9844 4.6406-5.9688 4.6406-17v-33.016h-9.0312v32.719q0 7.8594-2.7969 11.656-2.7812 3.8125-8.4844 3.8125-6.9844 0-11.047-4.6406-4.0469-4.625-4.0469-12.641v-30.906h-9.0312v32.719q0 7.9062-2.7812 11.688t-8.5938 3.7812q-6.8906 0-10.953-4.6562-4.0469-4.6562-4.0469-12.625v-30.906h-9.0312v54.688h9.0312v-8.5q3.0781 5.0312 7.375 7.4219t10.203 2.3906q5.9688 0 10.141-3.0312 4.1719-3.0156 6.1719-8.7812z"/>
<path id="h" d="m9.4219 54.688h8.9844v-54.688h-8.9844zm0 21.297h8.9844v-11.391h-8.9844z"/>
<path id="f" d="m54.891 33.016v-33.016h-8.9844v32.719q0 7.7656-3.0312 11.609-3.0312 3.8594-9.0781 3.8594-7.2812 0-11.484-4.6406-4.2031-4.625-4.2031-12.641v-30.906h-9.0312v54.688h9.0312v-8.5q3.2344 4.9375 7.5938 7.375 4.375 2.4375 10.094 2.4375 9.4219 0 14.25-5.8281 4.8438-5.8281 4.8438-17.156z"/>
<path id="i" d="m34.281 27.484q-10.891 0-15.094-2.4844t-4.2031-8.5q0-4.7812 3.1562-7.5938 3.1562-2.7969 8.5625-2.7969 7.4844 0 12 5.2969t4.5156 14.078v2zm17.922 3.7188v-31.203h-8.9844v8.2969q-3.0781-4.9688-7.6719-7.3438t-11.234-2.375q-8.3906 0-13.359 4.7188-4.9531 4.7188-4.9531 12.625 0 9.2188 6.1719 13.906 6.1875 4.6875 18.438 4.6875h12.609v0.89062q0 6.2031-4.0781 9.5938t-11.453 3.3906q-4.6875 0-9.1406-1.125-4.4375-1.125-8.5312-3.375v8.3125q4.9219 1.9062 9.5625 2.8438 4.6406 0.95312 9.0312 0.95312 11.875 0 17.734-6.1562 5.8594-6.1406 5.8594-18.641z"/>
<path id="g" d="m9.4219 75.984h8.9844v-75.984h-8.9844z"/>
</defs>
<g transform="translate(833.32 675.17) rotate(90) scale(.08 -.08)">
<use xlink:href="#k"/>
<use x="44.083984" xlink:href="#d"/>
<use x="105.607422" xlink:href="#j"/>
<use x="144.970703" xlink:href="#l"/>
<use x="242.382812" xlink:href="#h"/>
<use x="270.166016" xlink:href="#f"/>
<use x="333.544922" xlink:href="#i"/>
<use x="394.824219" xlink:href="#g"/>
</g>
</g>
<path d="m936.4 710 15.079-30.258q1.0705-2.148-1.0776-3.2185l-6.9297-3.4534q-2.148-1.0705-3.2185 1.0776l-15.079 30.258q-1.0705 2.148 1.0776 3.2185l6.9297 3.4534q2.148 1.0705 3.2185-1.0776z" clip-path="url(#a)" fill="#fff" stroke="#fff"/>
<g clip-path="url(#a)">
<g transform="translate(932.76 708.18) rotate(-63.511) scale(.08 -.08)">
<use xlink:href="#k"/>
<use x="44.083984" xlink:href="#d"/>
<use x="105.607422" xlink:href="#j"/>
<use x="144.970703" xlink:href="#l"/>
<use x="242.382812" xlink:href="#h"/>
<use x="270.166016" xlink:href="#f"/>
<use x="333.544922" xlink:href="#i"/>
<use x="394.824219" xlink:href="#g"/>
</g>
</g>
<path d="m996.5 679.74 15.079 30.258q1.0705 2.148 3.2185 1.0776l6.9297-3.4534q2.148-1.0705 1.0776-3.2185l-15.079-30.258q-1.0705-2.148-3.2185-1.0776l-6.9297 3.4534q-2.148 1.0705-1.0776 3.2185z" clip-path="url(#a)" fill="#fff" stroke="#fff"/>
<g clip-path="url(#a)">
<g transform="translate(1000.1 677.93) rotate(63.511) scale(.08 -.08)">
<use xlink:href="#k"/>
<use x="44.083984" xlink:href="#d"/>
<use x="105.607422" xlink:href="#j"/>
<use x="144.970703" xlink:href="#l"/>
<use x="242.382812" xlink:href="#h"/>
<use x="270.166016" xlink:href="#f"/>
<use x="333.544922" xlink:href="#i"/>
<use x="394.824219" xlink:href="#g"/>
</g>
</g>
<path d="m966.32 675.17v33.808q0 2.4 2.4 2.4h7.7425q2.4 0 2.4-2.4v-33.808q0-2.4-2.4-2.4h-7.7425q-2.4 0-2.4 2.4z" clip-path="url(#a)" fill="#fff" stroke="#fff"/>
<g clip-path="url(#a)">
<g transform="translate(970.38 675.17) rotate(90) scale(.08 -.08)">
<use xlink:href="#k"/>
<use x="44.083984" xlink:href="#d"/>
<use x="105.607422" xlink:href="#j"/>
<use x="144.970703" xlink:href="#l"/>
<use x="242.382812" xlink:href="#h"/>
<use x="270.166016" xlink:href="#f"/>
<use x="333.544922" xlink:href="#i"/>
<use x="394.824219" xlink:href="#g"/>
</g>
</g>
<path d="m1179.6 479.54 1.7522-4.7416q0.8319-2.2512-1.4193-3.0831l-7.2625-2.6837q-2.2512-0.8319-3.0831 1.4193l-1.7522 4.7416q-0.8319 2.2512 1.4193 3.0831l7.2625 2.6837q2.2512 0.8319 3.0831-1.4193z" clip-path="url(#a)" fill="#fff" stroke="#fff"/>
<g clip-path="url(#a)">
<defs>
<path id="w" d="m9.8125 72.906h46.094v-8.3125h-36.234v-21.578h34.719v-8.2969h-34.719v-26.422h37.109v-8.2969h-46.969z"/>
</defs>
<g transform="translate(1175.8 478.14) rotate(-69.719) scale(.08 -.08)">
<use xlink:href="#w"/>
</g>
</g>
<path d="m1219.7 478.41 0.55802-5.5583q0.23974-2.388-2.1483-2.6277l-7.7038-0.77341q-2.388-0.23974-2.6277 2.1483l-0.55802 5.5583q-0.23974 2.388 2.1483 2.6277l7.7038 0.77341q2.388 0.23974 2.6277-2.1483z" clip-path="url(#a)" fill="#fff" stroke="#fff"/>
<g clip-path="url(#a)">
<defs>
<path id="q" d="m64.406 67.281v-10.391q-4.9844 4.6406-10.625 6.9219-5.6406 2.2969-11.984 2.2969-12.5 0-19.141-7.6406t-6.6406-22.094q0-14.406 6.6406-22.047t19.141-7.6406q6.3438 0 11.984 2.2969t10.625 6.9375v-10.312q-5.1719-3.5156-10.969-5.2812-5.7812-1.75-12.219-1.75-16.562 0-26.094 10.125-9.5156 10.141-9.5156 27.672 0 17.578 9.5156 27.703 9.5312 10.141 26.094 10.141 6.5312 0 12.312-1.7344 5.7969-1.7344 10.875-5.2031z"/>
</defs>
<g transform="translate(1215.7 478) rotate(-84.267) scale(.08 -.08)">
<use xlink:href="#q"/>
</g>
</g>
<path d="m1290.4 404.88 3.4571 3.688q1.6414 1.751 3.3923 0.10961l5.6487-5.2951q1.751-1.6414 0.10961-3.3923l-3.4571-3.688q-1.6414-1.751-3.3923-0.10961l-5.6487 5.2951q-1.751 1.6414-0.10961 3.3923z" clip-path="url(#a)" fill="#fff" stroke="#fff"/>
<g clip-path="url(#a)">
<g transform="translate(1293.4 402.1) rotate(46.851) scale(.08 -.08)">
<use xlink:href="#w"/>
</g>
</g>
<path d="m1114.6 675.17v33.808q0 2.4 2.4 2.4h7.7425q2.4 0 2.4-2.4v-33.808q0-2.4-2.4-2.4h-7.7425q-2.4 0-2.4 2.4z" clip-path="url(#a)" fill="#fff" stroke="#fff"/>
<g clip-path="url(#a)">
<g transform="translate(1118.6 675.17) rotate(90) scale(.08 -.08)">
<use xlink:href="#k"/>
<use x="44.083984" xlink:href="#d"/>
<use x="105.607422" xlink:href="#j"/>
<use x="144.970703" xlink:href="#l"/>
<use x="242.382812" xlink:href="#h"/>
<use x="270.166016" xlink:href="#f"/>
<use x="333.544922" xlink:href="#i"/>
<use x="394.824219" xlink:href="#g"/>
</g>
</g>
<path d="m1192.9 675.17v33.808q0 2.4 2.4 2.4h7.7425q2.4 0 2.4-2.4v-33.808q0-2.4-2.4-2.4h-7.7425q-2.4 0-2.4 2.4z" clip-path="url(#a)" fill="#fff" stroke="#fff"/>
<g clip-path="url(#a)">
<g transform="translate(1197 675.17) rotate(90) scale(.08 -.08)">
<use xlink:href="#k"/>
<use x="44.083984" xlink:href="#d"/>
<use x="105.607422" xlink:href="#j"/>
<use x="144.970703" xlink:href="#l"/>
<use x="242.382812" xlink:href="#h"/>
<use x="270.166016" xlink:href="#f"/>
<use x="333.544922" xlink:href="#i"/>
<use x="394.824219" xlink:href="#g"/>
</g>
</g>
<path d="m1326.7 553.51 2.8057-4.7987q1.2113-2.0719-0.86052-3.2832l-6.6839-3.9079q-2.0719-1.2113-3.2832 0.86052l-2.8057 4.7987q-1.2113 2.0719 0.86052 3.2832l6.6839 3.9079q2.0719 1.2113 3.2832-0.86052z" clip-path="url(#a)" fill="#fff" stroke="#fff"/>
<g clip-path="url(#a)">
<defs>
<path id="v" d="m44.391 34.188q3.1719-1.0781 6.1719-4.5938t6.0312-9.6719l10.016-19.922h-10.609l-9.3125 18.703q-3.625 7.3281-7.0156 9.7188t-9.25 2.3906h-10.75v-30.812h-9.8594v72.906h22.266q12.5 0 18.656-5.2344 6.1562-5.2188 6.1562-15.766 0-6.8906-3.2031-11.438-3.2031-4.5312-9.2969-6.2812zm-24.719 30.609v-25.875h12.406q7.125 0 10.766 3.2969t3.6406 9.6875-3.6406 9.6406-10.766 3.25z"/>
</defs>
<g transform="translate(1323.2 551.46) rotate(-59.687) scale(.08 -.08)">
<use xlink:href="#v"/>
</g>
</g>
<path d="m1370.9 550.78 0.03589-5.5861q0.01542-2.4-2.3845-2.4154l-7.7423-0.049744q-2.4-0.015419-2.4154 2.3845l-0.03589 5.5861q-0.015419 2.4 2.3845 2.4154l7.7423 0.049744q2.4 0.015419 2.4154-2.3845z" clip-path="url(#a)" fill="#fff" stroke="#fff"/>
<g clip-path="url(#a)">
<g transform="translate(1366.9 550.75) rotate(-89.632) scale(.08 -.08)">
<use xlink:href="#q"/>
</g>
</g>
<path d="m1401.1 548.61 2.9793 5.0403q1.2212 2.0661 3.2873 0.84483l6.6652-3.9397q2.0661-1.2212 0.84483-3.2873l-2.9793-5.0403q-1.2212-2.0661-3.2873-0.84484l-6.6652 3.9397q-2.0661 1.2212-0.84483 3.2873z" clip-path="url(#a)" fill="#fff" stroke="#fff"/>
<g clip-path="url(#a)">
<g transform="translate(1404.6 546.55) rotate(59.413) scale(.08 -.08)">
<use xlink:href="#z"/>
</g>
</g>
<path d="m1274 675.17v33.808q0 2.4 2.4 2.4h7.7425q2.4 0 2.4-2.4v-33.808q0-2.4-2.4-2.4h-7.7425q-2.4 0-2.4 2.4z" clip-path="url(#a)" fill="#fff" stroke="#fff"/>
<g clip-path="url(#a)">
<g transform="translate(1278.1 675.17) rotate(90) scale(.08 -.08)">
<use xlink:href="#k"/>
<use x="44.083984" xlink:href="#d"/>
<use x="105.607422" xlink:href="#j"/>
<use x="144.970703" xlink:href="#l"/>
<use x="242.382812" xlink:href="#h"/>
<use x="270.166016" xlink:href="#f"/>
<use x="333.544922" xlink:href="#i"/>
<use x="394.824219" xlink:href="#g"/>
</g>
</g>
<path d="m1357.9 675.17v33.808q0 2.4 2.4 2.4h7.7425q2.4 0 2.4-2.4v-33.808q0-2.4-2.4-2.4h-7.7425q-2.4 0-2.4 2.4z" clip-path="url(#a)" fill="#fff" stroke="#fff"/>
<g clip-path="url(#a)">
<g transform="translate(1362 675.17) rotate(90) scale(.08 -.08)">
<use xlink:href="#k"/>
<use x="44.083984" xlink:href="#d"/>
<use x="105.607422" xlink:href="#j"/>
<use x="144.970703" xlink:href="#l"/>
<use x="242.382812" xlink:href="#h"/>
<use x="270.166016" xlink:href="#f"/>
<use x="333.544922" xlink:href="#i"/>
<use x="394.824219" xlink:href="#g"/>
</g>
</g>
<path d="m392.89 675.17v33.808q0 2.4 2.4 2.4h7.7425q2.4 0 2.4-2.4v-33.808q0-2.4-2.4-2.4h-7.7425q-2.4 0-2.4 2.4z" clip-path="url(#a)" fill="#fff" stroke="#fff"/>
<g clip-path="url(#a)">
<g transform="translate(396.95 675.17) rotate(90) scale(.08 -.08)">
<use xlink:href="#k"/>
<use x="44.083984" xlink:href="#d"/>
<use x="105.607422" xlink:href="#j"/>
<use x="144.970703" xlink:href="#l"/>
<use x="242.382812" xlink:href="#h"/>
<use x="270.166016" xlink:href="#f"/>
<use x="333.544922" xlink:href="#i"/>
<use x="394.824219" xlink:href="#g"/>
</g>
</g>
<path d="m514.72 408.03 2.8391-4.811q1.2198-2.0669-0.84716-3.2867l-6.668-3.935q-2.0669-1.2198-3.2867 0.84716l-2.8391 4.811q-1.2198 2.0669 0.84716 3.2867l6.668 3.935q2.0669 1.2198 3.2867-0.84716z" clip-path="url(#a)" fill="#fff" stroke="#fff"/>
<g clip-path="url(#a)">
<g transform="translate(511.22 405.97) rotate(-59.454) scale(.08 -.08)">
<use xlink:href="#q"/>
</g>
</g>
<path d="m553.94 478.25 0.24589-5.9799q0.098601-2.398-2.2994-2.4966l-7.736-0.31809q-2.398-0.098601-2.4966 2.2994l-0.24589 5.9799q-0.098601 2.398 2.2994 2.4966l7.736 0.31809q2.398 0.098601 2.4966-2.2994z" clip-path="url(#a)" fill="#fff" stroke="#fff"/>
<g clip-path="url(#a)">
<defs>
<path id="am" d="m9.8125 72.906h13.281l32.328-60.984v60.984h9.5625v-72.906h-13.281l-32.312 60.984v-60.984h-9.5781z"/>
</defs>
<g transform="translate(549.88 478.08) rotate(-87.645) scale(.08 -.08)">
<use xlink:href="#am"/>
</g>
</g>
<path d="m596.05 403.62 3.1163 4.6363q1.3388 1.9919 3.3307 0.65302l6.4258-4.3192q1.9919-1.3388 0.65301-3.3307l-3.1163-4.6363q-1.3388-1.9919-3.3307-0.65301l-6.4258 4.3192q-1.9919 1.3388-0.65301 3.3307z" clip-path="url(#a)" fill="#fff" stroke="#fff"/>
<g clip-path="url(#a)">
<g transform="translate(599.42 401.35) rotate(56.093) scale(.08 -.08)">
<use xlink:href="#q"/>
</g>
</g>
<path d="m461.54 551.7 0.89873-5.4856q0.38803-2.3684-1.9804-2.7565l-7.6406-1.2518q-2.3684-0.38803-2.7565 1.9804l-0.89873 5.4856q-0.38803 2.3684 1.9804 2.7565l7.6406 1.2518q2.3684 0.38803 2.7565-1.9804z" clip-path="url(#a)" fill="#fff" stroke="#fff"/>
<g clip-path="url(#a)">
<g transform="translate(457.53 551.04) rotate(-80.696) scale(.08 -.08)">
<use xlink:href="#v"/>
</g>
</g>
<path d="m472.94 546.2 0.90318 5.5128q0.38803 2.3684 2.7565 1.9804l7.6406-1.2518q2.3684-0.38803 1.9804-2.7565l-0.90318-5.5128q-0.38803-2.3684-2.7565-1.9804l-7.6406 1.2518q-2.3684 0.38803-1.9804 2.7565z" clip-path="url(#a)" fill="#fff" stroke="#fff"/>
<g clip-path="url(#a)">
<g transform="translate(476.95 545.54) rotate(80.696) scale(.08 -.08)">
<use xlink:href="#q"/>
</g>
</g>
<path d="m535.55 675.17v33.808q0 2.4 2.4 2.4h7.7425q2.4 0 2.4-2.4v-33.808q0-2.4-2.4-2.4h-7.7425q-2.4 0-2.4 2.4z" clip-path="url(#a)" fill="#fff" stroke="#fff"/>
<g clip-path="url(#a)">
<g transform="translate(539.61 675.17) rotate(90) scale(.08 -.08)">
<use xlink:href="#k"/>
<use x="44.083984" xlink:href="#d"/>
<use x="105.607422" xlink:href="#j"/>
<use x="144.970703" xlink:href="#l"/>
<use x="242.382812" xlink:href="#h"/>
<use x="270.166016" xlink:href="#f"/>
<use x="333.544922" xlink:href="#i"/>
<use x="394.824219" xlink:href="#g"/>
</g>
</g>
<path d="m628.23 552.82 2.0284-5.1755q0.87575-2.2345-1.3588-3.1103l-7.2086-2.8252q-2.2345-0.87575-3.1103 1.3588l-2.0284 5.1755q-0.87575 2.2345 1.3588 3.1103l7.2086 2.8252q2.2345 0.87575 3.1103-1.3588z" clip-path="url(#a)" fill="#fff" stroke="#fff"/>
<g clip-path="url(#a)">
<g transform="translate(624.44 551.34) rotate(-68.599) scale(.08 -.08)">
<use xlink:href="#v"/>
</g>
</g>
<path d="m657.63 550.51 0.032478-5.0549q0.015419-2.4-2.3845-2.4154l-7.7423-0.049743q-2.4-0.01542-2.4154 2.3845l-0.032477 5.0549q-0.015419 2.4 2.3845 2.4154l7.7423 0.049744q2.4 0.015419 2.4154-2.3845z" clip-path="url(#a)" fill="#fff" stroke="#fff"/>
<g clip-path="url(#a)">
<g transform="translate(653.57 550.48) rotate(-89.632) scale(.08 -.08)">
<use xlink:href="#w"/>
</g>
</g>
<path d="m673.89 547.67 2.0673 5.1897q0.88815 2.2296 3.1178 1.3415l7.1928-2.8652q2.2296-0.88815 1.3415-3.1178l-2.0673-5.1897q-0.88815-2.2296-3.1178-1.3415l-7.1928 2.8652q-2.2296 0.88815-1.3415 3.1178z" clip-path="url(#a)" fill="#fff" stroke="#fff"/>
<g clip-path="url(#a)">
<g transform="translate(677.66 546.16) rotate(68.28) scale(.08 -.08)">
<use xlink:href="#q"/>
</g>
</g>
<path d="m588.69 675.17v33.808q0 2.4 2.4 2.4h7.7425q2.4 0 2.4-2.4v-33.808q0-2.4-2.4-2.4h-7.7425q-2.4 0-2.4 2.4z" clip-path="url(#a)" fill="#fff" stroke="#fff"/>
<g clip-path="url(#a)">
<g transform="translate(592.76 675.17) rotate(90) scale(.08 -.08)">
<use xlink:href="#k"/>
<use x="44.083984" xlink:href="#d"/>
<use x="105.607422" xlink:href="#j"/>
<use x="144.970703" xlink:href="#l"/>
<use x="242.382812" xlink:href="#h"/>
<use x="270.166016" xlink:href="#f"/>
<use x="333.544922" xlink:href="#i"/>
<use x="394.824219" xlink:href="#g"/>
</g>
</g>
<path d="m644.64 675.17v33.808q0 2.4 2.4 2.4h7.7425q2.4 0 2.4-2.4v-33.808q0-2.4-2.4-2.4h-7.7425q-2.4 0-2.4 2.4z" clip-path="url(#a)" fill="#fff" stroke="#fff"/>
<g clip-path="url(#a)">
<g transform="translate(648.7 675.17) rotate(90) scale(.08 -.08)">
<use xlink:href="#k"/>
<use x="44.083984" xlink:href="#d"/>
<use x="105.607422" xlink:href="#j"/>
<use x="144.970703" xlink:href="#l"/>
<use x="242.382812" xlink:href="#h"/>
<use x="270.166016" xlink:href="#f"/>
<use x="333.544922" xlink:href="#i"/>
<use x="394.824219" xlink:href="#g"/>
</g>
</g>
<path d="m703.38 675.17v33.808q0 2.4 2.4 2.4h7.7425q2.4 0 2.4-2.4v-33.808q0-2.4-2.4-2.4h-7.7425q-2.4 0-2.4 2.4z" clip-path="url(#a)" fill="#fff" stroke="#fff"/>
<g clip-path="url(#a)">
<g transform="translate(707.44 675.17) rotate(90) scale(.08 -.08)">
<use xlink:href="#k"/>
<use x="44.083984" xlink:href="#d"/>
<use x="105.607422" xlink:href="#j"/>
<use x="144.970703" xlink:href="#l"/>
<use x="242.382812" xlink:href="#h"/>
<use x="270.166016" xlink:href="#f"/>
<use x="333.544922" xlink:href="#i"/>
<use x="394.824219" xlink:href="#g"/>
</g>
</g>
<path d="m437.64 675.17v33.808q0 2.4 2.4 2.4h7.7425q2.4 0 2.4-2.4v-33.808q0-2.4-2.4-2.4h-7.7425q-2.4 0-2.4 2.4z" clip-path="url(#a)" fill="#fff" stroke="#fff"/>
<g clip-path="url(#a)">
<g transform="translate(441.71 675.17) rotate(90) scale(.08 -.08)">
<use xlink:href="#k"/>
<use x="44.083984" xlink:href="#d"/>
<use x="105.607422" xlink:href="#j"/>
<use x="144.970703" xlink:href="#l"/>
<use x="242.382812" xlink:href="#h"/>
<use x="270.166016" xlink:href="#f"/>
<use x="333.544922" xlink:href="#i"/>
<use x="394.824219" xlink:href="#g"/>
</g>
</g>
<path d="m485.2 675.17v33.808q0 2.4 2.4 2.4h7.7425q2.4 0 2.4-2.4v-33.808q0-2.4-2.4-2.4h-7.7425q-2.4 0-2.4 2.4z" clip-path="url(#a)" fill="#fff" stroke="#fff"/>
<g clip-path="url(#a)">
<g transform="translate(489.26 675.17) rotate(90) scale(.08 -.08)">
<use xlink:href="#k"/>
<use x="44.083984" xlink:href="#d"/>
<use x="105.607422" xlink:href="#j"/>
<use x="144.970703" xlink:href="#l"/>
<use x="242.382812" xlink:href="#h"/>
<use x="270.166016" xlink:href="#f"/>
<use x="333.544922" xlink:href="#i"/>
<use x="394.824219" xlink:href="#g"/>
</g>
</g>
<path d="m228.21 551.12 0.5329-5.0268q0.25301-2.3866-2.1336-2.6396l-7.6994-0.81621q-2.3866-0.25301-2.6396 2.1336l-0.5329 5.0268q-0.25301 2.3866 2.1336 2.6396l7.6994 0.81621q2.3866 0.25301 2.6396-2.1336z" clip-path="url(#a)" fill="#fff" stroke="#fff"/>
<g clip-path="url(#a)">
<g transform="translate(224.17 550.69) rotate(-83.949) scale(.08 -.08)">
<use xlink:href="#w"/>
</g>
</g>
<path d="m231.09 545.83 0.5889 5.5551q0.25301 2.3866 2.6396 2.1336l7.6994-0.81621q2.3866-0.25301 2.1336-2.6396l-0.5889-5.5551q-0.25301-2.3866-2.6396-2.1336l-7.6994 0.81621q-2.3866 0.25301-2.1336 2.6396z" clip-path="url(#a)" fill="#fff" stroke="#fff"/>
<g clip-path="url(#a)">
<g transform="translate(235.13 545.4) rotate(83.949) scale(.08 -.08)">
<use xlink:href="#q"/>
</g>
</g>
<path d="m293.85 551.48 0.69103-5.5156q0.29835-2.3814-2.083-2.6797l-7.6824-0.9625q-2.3814-0.29835-2.6797 2.083l-0.69103 5.5156q-0.29835 2.3814 2.083 2.6797l7.6824 0.9625q2.3814 0.29835 2.6797-2.083z" clip-path="url(#a)" fill="#fff" stroke="#fff"/>
<g clip-path="url(#a)">
<g transform="translate(289.82 550.97) rotate(-82.859) scale(.08 -.08)">
<use xlink:href="#v"/>
</g>
</g>
<path d="m299.58 545.95 0.69445 5.5429q0.29835 2.3814 2.6797 2.083l7.6824-0.9625q2.3814-0.29835 2.083-2.6797l-0.69445-5.5429q-0.29835-2.3814-2.6797-2.083l-7.6824 0.9625q-2.3814 0.29835-2.083 2.6797z" clip-path="url(#a)" fill="#fff" stroke="#fff"/>
<g clip-path="url(#a)">
<g transform="translate(303.62 545.45) rotate(82.859) scale(.08 -.08)">
<use xlink:href="#q"/>
</g>
</g>
<path d="m272.61 675.17v33.808q0 2.4 2.4 2.4h7.7425q2.4 0 2.4-2.4v-33.808q0-2.4-2.4-2.4h-7.7425q-2.4 0-2.4 2.4z" clip-path="url(#a)" fill="#fff" stroke="#fff"/>
<g clip-path="url(#a)">
<g transform="translate(276.67 675.17) rotate(90) scale(.08 -.08)">
<use xlink:href="#k"/>
<use x="44.083984" xlink:href="#d"/>
<use x="105.607422" xlink:href="#j"/>
<use x="144.970703" xlink:href="#l"/>
<use x="242.382812" xlink:href="#h"/>
<use x="270.166016" xlink:href="#f"/>
<use x="333.544922" xlink:href="#i"/>
<use x="394.824219" xlink:href="#g"/>
</g>
</g>
<path d="m308.97 675.17v33.808q0 2.4 2.4 2.4h7.7425q2.4 0 2.4-2.4v-33.808q0-2.4-2.4-2.4h-7.7425q-2.4 0-2.4 2.4z" clip-path="url(#a)" fill="#fff" stroke="#fff"/>
<g clip-path="url(#a)">
<g transform="translate(313.04 675.17) rotate(90) scale(.08 -.08)">
<use xlink:href="#k"/>
<use x="44.083984" xlink:href="#d"/>
<use x="105.607422" xlink:href="#j"/>
<use x="144.970703" xlink:href="#l"/>
<use x="242.382812" xlink:href="#h"/>
<use x="270.166016" xlink:href="#f"/>
<use x="333.544922" xlink:href="#i"/>
<use x="394.824219" xlink:href="#g"/>
</g>
</g>
<path d="m208.27 675.17v33.808q0 2.4 2.4 2.4h7.7425q2.4 0 2.4-2.4v-33.808q0-2.4-2.4-2.4h-7.7425q-2.4 0-2.4 2.4z" clip-path="url(#a)" fill="#fff" stroke="#fff"/>
<g clip-path="url(#a)">
<g transform="translate(212.34 675.17) rotate(90) scale(.08 -.08)">
<use xlink:href="#k"/>
<use x="44.083984" xlink:href="#d"/>
<use x="105.607422" xlink:href="#j"/>
<use x="144.970703" xlink:href="#l"/>
<use x="242.382812" xlink:href="#h"/>
<use x="270.166016" xlink:href="#f"/>
<use x="333.544922" xlink:href="#i"/>
<use x="394.824219" xlink:href="#g"/>
</g>
</g>
<path d="m239.04 675.17v33.808q0 2.4 2.4 2.4h7.7425q2.4 0 2.4-2.4v-33.808q0-2.4-2.4-2.4h-7.7425q-2.4 0-2.4 2.4z" clip-path="url(#a)" fill="#fff" stroke="#fff"/>
<g clip-path="url(#a)">
<g transform="translate(243.11 675.17) rotate(90) scale(.08 -.08)">
<use xlink:href="#k"/>
<use x="44.083984" xlink:href="#d"/>
<use x="105.607422" xlink:href="#j"/>
<use x="144.970703" xlink:href="#l"/>
<use x="242.382812" xlink:href="#h"/>
<use x="270.166016" xlink:href="#f"/>
<use x="333.544922" xlink:href="#i"/>
<use x="394.824219" xlink:href="#g"/>
</g>
</g>
<path d="m79.089 709.36 2.307-33.729q0.16378-2.3944-2.2306-2.5582l-7.7245-0.52835q-2.3944-0.16378-2.5582 2.2306l-2.307 33.729q-0.16378 2.3944 2.2306 2.5582l7.7245 0.52835q2.3944 0.16378 2.5582-2.2306z" clip-path="url(#a)" fill="#fff" stroke="#fff"/>
<g clip-path="url(#a)">
<g transform="translate(75.035 709.09) rotate(-86.087) scale(.08 -.08)">
<use xlink:href="#k"/>
<use x="44.083984" xlink:href="#d"/>
<use x="105.607422" xlink:href="#j"/>
<use x="144.970703" xlink:href="#l"/>
<use x="242.382812" xlink:href="#h"/>
<use x="270.166016" xlink:href="#f"/>
<use x="333.544922" xlink:href="#i"/>
<use x="394.824219" xlink:href="#g"/>
</g>
</g>
<path d="m76.366 675.63 2.307 33.729q0.16378 2.3944 2.5582 2.2306l7.7245-0.52835q2.3944-0.16378 2.2306-2.5582l-2.307-33.729q-0.16378-2.3944-2.5582-2.2306l-7.7245 0.52835q-2.3944 0.16378-2.2306 2.5582z" clip-path="url(#a)" fill="#fff" stroke="#fff"/>
<g clip-path="url(#a)">
<g transform="translate(80.42 675.36) rotate(86.087) scale(.08 -.08)">
<use xlink:href="#k"/>
<use x="44.083984" xlink:href="#d"/>
<use x="105.607422" xlink:href="#j"/>
<use x="144.970703" xlink:href="#l"/>
<use x="242.382812" xlink:href="#h"/>
<use x="270.166016" xlink:href="#f"/>
<use x="333.544922" xlink:href="#i"/>
<use x="394.824219" xlink:href="#g"/>
</g>
</g>
<path d="m71.211 675.17v33.808q0 2.4 2.4 2.4h7.7425q2.4 0 2.4-2.4v-33.808q0-2.4-2.4-2.4h-7.7425q-2.4 0-2.4 2.4z" clip-path="url(#a)" fill="#fff" stroke="#fff"/>
<g clip-path="url(#a)">
<g transform="translate(75.275 675.17) rotate(90) scale(.08 -.08)">
<use xlink:href="#k"/>
<use x="44.083984" xlink:href="#d"/>
<use x="105.607422" xlink:href="#j"/>
<use x="144.970703" xlink:href="#l"/>
<use x="242.382812" xlink:href="#h"/>
<use x="270.166016" xlink:href="#f"/>
<use x="333.544922" xlink:href="#i"/>
<use x="394.824219" xlink:href="#g"/>
</g>
</g>
<path d="m112.97 550.83 0.29181-5.0466q0.13855-2.396-2.2575-2.5345l-7.7296-0.44696q-2.396-0.13855-2.5345 2.2575l-0.29181 5.0466q-0.13855 2.396 2.2575 2.5345l7.7296 0.44696q2.396 0.13855 2.5345-2.2575z" clip-path="url(#a)" fill="#fff" stroke="#fff"/>
<g clip-path="url(#a)">
<g transform="translate(108.91 550.59) rotate(-86.691) scale(.08 -.08)">
<use xlink:href="#w"/>
</g>
</g>
<path d="m108.82 545.52 0.32248 5.5769q0.13855 2.396 2.5345 2.2575l7.7296-0.44696q2.396-0.13855 2.2575-2.5345l-0.32248-5.5769q-0.13855-2.396-2.5345-2.2575l-7.7296 0.44696q-2.396 0.13855-2.2575 2.5345z" clip-path="url(#a)" fill="#fff" stroke="#fff"/>
<g clip-path="url(#a)">
<g transform="translate(112.88 545.28) rotate(86.691) scale(.08 -.08)">
<use xlink:href="#q"/>
</g>
</g>
<path d="m150.65 551.2 0.4273-5.5423q0.18449-2.3929-2.2084-2.5774l-7.7196-0.59517q-2.3929-0.18449-2.5774 2.2084l-0.4273 5.5423q-0.18449 2.3929 2.2084 2.5774l7.7196 0.59517q2.3929 0.18449 2.5774-2.2084z" clip-path="url(#a)" fill="#fff" stroke="#fff"/>
<g clip-path="url(#a)">
<g transform="translate(146.6 550.88) rotate(-85.591) scale(.08 -.08)">
<use xlink:href="#v"/>
</g>
</g>
<path d="m149.34 545.64 0.42942 5.5697q0.18449 2.3929 2.5774 2.2084l7.7196-0.59517q2.3929-0.18449 2.2084-2.5774l-0.42942-5.5697q-0.18449-2.3929-2.5774-2.2084l-7.7196 0.59517q-2.3929 0.18449-2.2084 2.5774z" clip-path="url(#a)" fill="#fff" stroke="#fff"/>
<g clip-path="url(#a)">
<g transform="translate(153.39 545.33) rotate(85.591) scale(.08 -.08)">
<use xlink:href="#q"/>
</g>
</g>
<path d="m132.75 675.17v33.808q0 2.4 2.4 2.4h7.7425q2.4 0 2.4-2.4v-33.808q0-2.4-2.4-2.4h-7.7425q-2.4 0-2.4 2.4z" clip-path="url(#a)" fill="#fff" stroke="#fff"/>
<g clip-path="url(#a)">
<g transform="translate(136.81 675.17) rotate(90) scale(.08 -.08)">
<use xlink:href="#k"/>
<use x="44.083984" xlink:href="#d"/>
<use x="105.607422" xlink:href="#j"/>
<use x="144.970703" xlink:href="#l"/>
<use x="242.382812" xlink:href="#h"/>
<use x="270.166016" xlink:href="#f"/>
<use x="333.544922" xlink:href="#i"/>
<use x="394.824219" xlink:href="#g"/>
</g>
</g>
<path d="m155.13 675.17v33.808q0 2.4 2.4 2.4h7.7425q2.4 0 2.4-2.4v-33.808q0-2.4-2.4-2.4h-7.7425q-2.4 0-2.4 2.4z" clip-path="url(#a)" fill="#fff" stroke="#fff"/>
<g clip-path="url(#a)">
<g transform="translate(159.19 675.17) rotate(90) scale(.08 -.08)">
<use xlink:href="#k"/>
<use x="44.083984" xlink:href="#d"/>
<use x="105.607422" xlink:href="#j"/>
<use x="144.970703" xlink:href="#l"/>
<use x="242.382812" xlink:href="#h"/>
<use x="270.166016" xlink:href="#f"/>
<use x="333.544922" xlink:href="#i"/>
<use x="394.824219" xlink:href="#g"/>
</g>
</g>
<path d="m96.386 675.17v33.808q0 2.4 2.4 2.4h7.7425q2.4 0 2.4-2.4v-33.808q0-2.4-2.4-2.4h-7.7425q-2.4 0-2.4 2.4z" clip-path="url(#a)" fill="#fff" stroke="#fff"/>
<g clip-path="url(#a)">
<g transform="translate(100.45 675.17) rotate(90) scale(.08 -.08)">
<use xlink:href="#k"/>
<use x="44.083984" xlink:href="#d"/>
<use x="105.607422" xlink:href="#j"/>
<use x="144.970703" xlink:href="#l"/>
<use x="242.382812" xlink:href="#h"/>
<use x="270.166016" xlink:href="#f"/>
<use x="333.544922" xlink:href="#i"/>
<use x="394.824219" xlink:href="#g"/>
</g>
</g>
<path d="m113.17 675.17v33.808q0 2.4 2.4 2.4h7.7425q2.4 0 2.4-2.4v-33.808q0-2.4-2.4-2.4h-7.7425q-2.4 0-2.4 2.4z" clip-path="url(#a)" fill="#fff" stroke="#fff"/>
<g clip-path="url(#a)">
<g transform="translate(117.23 675.17) rotate(90) scale(.08 -.08)">
<use xlink:href="#k"/>
<use x="44.083984" xlink:href="#d"/>
<use x="105.607422" xlink:href="#j"/>
<use x="144.970703" xlink:href="#l"/>
<use x="242.382812" xlink:href="#h"/>
<use x="270.166016" xlink:href="#f"/>
<use x="333.544922" xlink:href="#i"/>
<use x="394.824219" xlink:href="#g"/>
</g>
</g>
<path d="m180.3 675.17v33.808q0 2.4 2.4 2.4h7.7425q2.4 0 2.4-2.4v-33.808q0-2.4-2.4-2.4h-7.7425q-2.4 0-2.4 2.4z" clip-path="url(#a)" fill="#fff" stroke="#fff"/>
<g clip-path="url(#a)">
<g transform="translate(184.37 675.17) rotate(90) scale(.08 -.08)">
<use xlink:href="#k"/>
<use x="44.083984" xlink:href="#d"/>
<use x="105.607422" xlink:href="#j"/>
<use x="144.970703" xlink:href="#l"/>
<use x="242.382812" xlink:href="#h"/>
<use x="270.166016" xlink:href="#f"/>
<use x="333.544922" xlink:href="#i"/>
<use x="394.824219" xlink:href="#g"/>
</g>
</g>
<path d="m350.93 675.17v33.808q0 2.4 2.4 2.4h7.7425q2.4 0 2.4-2.4v-33.808q0-2.4-2.4-2.4h-7.7425q-2.4 0-2.4 2.4z" clip-path="url(#a)" fill="#fff" stroke="#fff"/>
<g clip-path="url(#a)">
<g transform="translate(355 675.17) rotate(90) scale(.08 -.08)">
<use xlink:href="#k"/>
<use x="44.083984" xlink:href="#d"/>
<use x="105.607422" xlink:href="#j"/>
<use x="144.970703" xlink:href="#l"/>
<use x="242.382812" xlink:href="#h"/>
<use x="270.166016" xlink:href="#f"/>
<use x="333.544922" xlink:href="#i"/>
<use x="394.824219" xlink:href="#g"/>
</g>
</g>
<path d="m764.92 675.17v33.808q0 2.4 2.4 2.4h7.7425q2.4 0 2.4-2.4v-33.808q0-2.4-2.4-2.4h-7.7425q-2.4 0-2.4 2.4z" clip-path="url(#a)" fill="#fff" stroke="#fff"/>
<g clip-path="url(#a)">
<g transform="translate(768.98 675.17) rotate(90) scale(.08 -.08)">
<use xlink:href="#k"/>
<use x="44.083984" xlink:href="#d"/>
<use x="105.607422" xlink:href="#j"/>
<use x="144.970703" xlink:href="#l"/>
<use x="242.382812" xlink:href="#h"/>
<use x="270.166016" xlink:href="#f"/>
<use x="333.544922" xlink:href="#i"/>
<use x="394.824219" xlink:href="#g"/>
</g>
</g>
<path d="m1444.6 675.17v33.808q0 2.4 2.4 2.4h7.7425q2.4 0 2.4-2.4v-33.808q0-2.4-2.4-2.4h-7.7425q-2.4 0-2.4 2.4z" clip-path="url(#a)" fill="#fff" stroke="#fff"/>
<g clip-path="url(#a)">
<g transform="translate(1448.7 675.17) rotate(90) scale(.08 -.08)">
<use xlink:href="#k"/>
<use x="44.083984" xlink:href="#d"/>
<use x="105.607422" xlink:href="#j"/>
<use x="144.970703" xlink:href="#l"/>
<use x="242.382812" xlink:href="#h"/>
<use x="270.166016" xlink:href="#f"/>
<use x="333.544922" xlink:href="#i"/>
<use x="394.824219" xlink:href="#g"/>
</g>
</g>
<defs>
<path id="b" d="m0 8.6603c2.2967 0 4.4997-0.9125 6.1237-2.5365 1.624-1.624 2.5365-3.827 2.5365-6.1237s-0.9125-4.4997-2.5365-6.1237c-1.624-1.624-3.827-2.5365-6.1237-2.5365s-4.4997 0.9125-6.1237 2.5365c-1.624 1.624-2.5365 3.827-2.5365 6.1237s0.9125 4.4997 2.5365 6.1237c1.624 1.624 3.827 2.5365 6.1237 2.5365z"/>
</defs>
<g clip-path="url(#a)" fill="#ffffff" stroke="#ffffff">
<use x="69.090909" y="763.636364" xlink:href="#b"/>
<use x="77.482517" y="763.636364" xlink:href="#b"/>
<use x="88.671329" y="763.636364" xlink:href="#b"/>
<use x="102.657343" y="763.636364" xlink:href="#b"/>
<use x="119.440559" y="763.636364" xlink:href="#b"/>
<use x="139.020979" y="763.636364" xlink:href="#b"/>
<use x="161.398601" y="763.636364" xlink:href="#b"/>
<use x="186.573427" y="763.636364" xlink:href="#b"/>
<use x="214.545455" y="763.636364" xlink:href="#b"/>
<use x="245.314685" y="763.636364" xlink:href="#b"/>
<use x="278.881119" y="763.636364" xlink:href="#b"/>
<use x="315.244755" y="763.636364" xlink:href="#b"/>
<use x="357.202797" y="763.636364" xlink:href="#b"/>
<use x="399.160839" y="763.636364" xlink:href="#b"/>
<use x="443.916084" y="763.636364" xlink:href="#b"/>
<use x="491.468531" y="763.636364" xlink:href="#b"/>
<use x="541.818182" y="763.636364" xlink:href="#b"/>
<use x="594.965035" y="763.636364" xlink:href="#b"/>
<use x="650.909091" y="763.636364" xlink:href="#b"/>
<use x="709.65035" y="763.636364" xlink:href="#b"/>
<use x="771.188811" y="763.636364" xlink:href="#b"/>
<use x="835.524476" y="763.636364" xlink:href="#b"/>
<use x="902.657343" y="763.636364" xlink:href="#b"/>
<use x="972.587413" y="763.636364" xlink:href="#b"/>
<use x="1045.314685" y="763.636364" xlink:href="#b"/>
<use x="1120.839161" y="763.636364" xlink:href="#b"/>
<use x="1199.160839" y="763.636364" xlink:href="#b"/>
<use x="1280.27972" y="763.636364" xlink:href="#b"/>
<use x="1364.195804" y="763.636364" xlink:href="#b"/>
<use x="1450.909091" y="763.636364" xlink:href="#b"/>
<use x="318.041958" y="475.380671" xlink:href="#b"/>
<use x="466.156436" y="36.363636" xlink:href="#b"/>
<use x="250.629371" y="329.496101" xlink:href="#b"/>
<use x="360" y="329.496101" xlink:href="#b"/>
<use x="639.91453" y="183.115024" xlink:href="#b"/>
<use x="1002.618493" y="183.115024" xlink:href="#b"/>
<use x="835.524476" y="620.504081" xlink:href="#b"/>
<use x="973.986014" y="620.504081" xlink:href="#b"/>
<use x="972.587413" y="620.504081" xlink:href="#b"/>
<use x="1228.376068" y="329.496101" xlink:href="#b"/>
<use x="1120.839161" y="620.504081" xlink:href="#b"/>
<use x="1199.160839" y="620.504081" xlink:href="#b"/>
<use x="1365.128205" y="475.380671" xlink:href="#b"/>
<use x="1280.27972" y="620.504081" xlink:href="#b"/>
<use x="1364.195804" y="620.504081" xlink:href="#b"/>
<use x="399.160839" y="620.504081" xlink:href="#b"/>
<use x="553.783994" y="329.496101" xlink:href="#b"/>
<use x="467.692308" y="475.380671" xlink:href="#b"/>
<use x="541.818182" y="620.504081" xlink:href="#b"/>
<use x="651.841492" y="475.380671" xlink:href="#b"/>
<use x="594.965035" y="620.504081" xlink:href="#b"/>
<use x="650.909091" y="620.504081" xlink:href="#b"/>
<use x="709.65035" y="620.504081" xlink:href="#b"/>
<use x="443.916084" y="620.504081" xlink:href="#b"/>
<use x="491.468531" y="620.504081" xlink:href="#b"/>
<use x="229.93007" y="475.380671" xlink:href="#b"/>
<use x="297.062937" y="475.380671" xlink:href="#b"/>
<use x="278.881119" y="620.504081" xlink:href="#b"/>
<use x="315.244755" y="620.504081" xlink:href="#b"/>
<use x="214.545455" y="620.504081" xlink:href="#b"/>
<use x="245.314685" y="620.504081" xlink:href="#b"/>
<use x="78.881119" y="620.504081" xlink:href="#b"/>
<use x="77.482517" y="620.504081" xlink:href="#b"/>
<use x="111.048951" y="475.380671" xlink:href="#b"/>
<use x="150.20979" y="475.380671" xlink:href="#b"/>
<use x="139.020979" y="620.504081" xlink:href="#b"/>
<use x="161.398601" y="620.504081" xlink:href="#b"/>
<use x="102.657343" y="620.504081" xlink:href="#b"/>
<use x="119.440559" y="620.504081" xlink:href="#b"/>
<use x="186.573427" y="620.504081" xlink:href="#b"/>
<use x="357.202797" y="620.504081" xlink:href="#b"/>
<use x="771.188811" y="620.504081" xlink:href="#b"/>
<use x="1450.909091" y="620.504081" xlink:href="#b"/>
</g>
<g clip-path="url(#a)">
<g transform="translate(62.274 766.4) scale(.1 -.1)">
<use xlink:href="#am"/>
<use x="74.804688" xlink:href="#d"/>
</g>
</g>
<g clip-path="url(#a)">
<defs>
<path id="al" d="m45.406 46.391v29.594h8.9844v-75.984h-8.9844v8.2031q-2.8281-4.875-7.1562-7.25-4.3125-2.375-10.375-2.375-9.9062 0-16.141 7.9062-6.2188 7.9219-6.2188 20.812t6.2188 20.797q6.2344 7.9062 16.141 7.9062 6.0625 0 10.375-2.375 4.3281-2.3594 7.1562-7.2344zm-30.609-19.094q0-9.9062 4.0781-15.547t11.203-5.6406 11.219 5.6406q4.1094 5.6406 4.1094 15.547t-4.1094 15.547q-4.0938 5.6406-11.219 5.6406t-11.203-5.6406-4.0781-15.547z"/>
<path id="y" d="m30.609 48.391q-7.2188 0-11.422-5.6406t-4.2031-15.453 4.1719-15.453q4.1875-5.6406 11.453-5.6406 7.1875 0 11.375 5.6562 4.2031 5.6719 4.2031 15.438 0 9.7188-4.2031 15.406-4.1875 5.6875-11.375 5.6875zm0 7.6094q11.719 0 18.406-7.625 6.7031-7.6094 6.7031-21.078 0-13.422-6.7031-21.078-6.6875-7.6406-18.406-7.6406-11.766 0-18.438 7.6406-6.6562 7.6562-6.6562 21.078 0 13.469 6.6562 21.078 6.6719 7.625 18.438 7.625z"/>
<path id="t" d="m18.312 70.219v-15.531h18.5v-6.9844h-18.5v-29.688q0-6.6875 1.8281-8.5938t7.4531-1.9062h9.2188v-7.5156h-9.2188q-10.406 0-14.359 3.875-3.9531 3.8906-3.9531 14.141v29.688h-6.5938v6.9844h6.5938v15.531z"/>
</defs>
<g transform="translate(56.718 766.4) scale(.1 -.1)">
<use xlink:href="#al"/>
<use x="63.476562" xlink:href="#y"/>
<use x="124.658203" xlink:href="#f"/>
<use x="188.037109" xlink:href="#f"/>
<use x="251.416016" xlink:href="#i"/>
<use x="312.695312" xlink:href="#f"/>
<use x="376.074219" xlink:href="#t"/>
</g>
</g>
<g clip-path="url(#a)">
<defs>
<path id="u" d="m14.797 27.297q0-9.9062 4.0781-15.547t11.203-5.6406 11.219 5.6406q4.1094 5.6406 4.1094 15.547t-4.1094 15.547q-4.0938 5.6406-11.219 5.6406t-11.203-5.6406-4.0781-15.547zm30.609-19.094q-2.8281-4.875-7.1562-7.25-4.3125-2.375-10.375-2.375-9.9062 0-16.141 7.9062-6.2188 7.9219-6.2188 20.812t6.2188 20.797q6.2344 7.9062 16.141 7.9062 6.0625 0 10.375-2.375 4.3281-2.3594 7.1562-7.2344v8.2969h8.9844v-75.484h-8.9844z"/>
<path id="n" d="m8.5 21.578v33.109h8.9844v-32.766q0-7.7656 3.0156-11.656 3.0312-3.875 9.0938-3.875 7.2656 0 11.484 4.6406 4.2344 4.6406 4.2344 12.656v31h8.9844v-54.688h-8.9844v8.4062q-3.2656-4.9844-7.5938-7.4062-4.3125-2.4219-10.031-2.4219-9.4219 0-14.312 5.8594-4.875 5.8594-4.875 17.141z"/>
</defs>
<g transform="translate(79.252 766.4) scale(.1 -.1)">
<use xlink:href="#u"/>
<use x="63.476562" xlink:href="#n"/>
<use x="126.855469" xlink:href="#d"/>
</g>
</g>
<g clip-path="url(#a)">
<defs>
<path id="r" d="m44.281 53.078v-8.5q-3.7969 1.9531-7.9062 2.9219-4.0938 0.98438-8.5 0.98438-6.6875 0-10.031-2.0469t-3.3438-6.1562q0-3.125 2.3906-4.9062t9.625-3.3906l3.0781-0.6875q9.5625-2.0469 13.594-5.7812t4.0312-10.422q0-7.625-6.0312-12.078-6.0312-4.4375-16.578-4.4375-4.3906 0-9.1562 0.85938t-10.031 2.5625v9.2812q4.9844-2.5938 9.8125-3.8906 4.8281-1.2812 9.5781-1.2812 6.3438 0 9.75 2.1719 3.4219 2.1719 3.4219 6.125 0 3.6562-2.4688 5.6094-2.4531 1.9531-10.812 3.7656l-3.125 0.73438q-8.3438 1.75-12.062 5.3906-3.7031 3.6406-3.7031 9.9844 0 7.7188 5.4688 11.906 5.4688 4.2031 15.531 4.2031 4.9688 0 9.3594-0.73438 4.4062-0.71875 8.1094-2.1875z"/>
</defs>
<g transform="translate(79.825 766.4) scale(.1 -.1)">
<use xlink:href="#u"/>
<use x="63.476562" xlink:href="#n"/>
<use x="126.855469" xlink:href="#d"/>
<use x="188.378906" xlink:href="#g"/>
<use x="216.162109" xlink:href="#u"/>
<use x="279.638672" xlink:href="#n"/>
<use x="343.017578" xlink:href="#d"/>
<use x="404.541016" xlink:href="#r"/>
</g>
</g>
<g clip-path="url(#a)">
<g transform="translate(99.202 766.4) scale(.1 -.1)">
<use xlink:href="#l"/>
<use x="97.412109" xlink:href="#h"/>
<use x="125.195312" xlink:href="#f"/>
<use x="188.574219" xlink:href="#n"/>
<use x="251.953125" xlink:href="#t"/>
<use x="291.162109" xlink:href="#d"/>
<use x="352.685547" xlink:href="#r"/>
</g>
</g>
<g clip-path="url(#a)">
<g transform="translate(132.79 766.4) scale(.1 -.1)">
<use xlink:href="#i"/>
<use x="61.279297" xlink:href="#n"/>
</g>
</g>
<g clip-path="url(#a)">
<defs>
<path id="ae" d="m18.109 8.2031v-29h-9.0312v75.484h9.0312v-8.2969q2.8438 4.875 7.1562 7.2344 4.3281 2.375 10.328 2.375 9.9688 0 16.188-7.9062 6.2344-7.9062 6.2344-20.797t-6.2344-20.812q-6.2188-7.9062-16.188-7.9062-6 0-10.328 2.375-4.3125 2.375-7.1562 7.25zm30.578 19.094q0 9.9062-4.0781 15.547t-11.203 5.6406q-7.1406 0-11.219-5.6406t-4.0781-15.547 4.0781-15.547 11.219-5.6406q7.125 0 11.203 5.6406t4.0781 15.547z"/>
</defs>
<g transform="translate(147.54 766.4) scale(.1 -.1)">
<use xlink:href="#j"/>
<use x="38.863281" xlink:href="#d"/>
<use x="100.386719" xlink:href="#ae"/>
<use x="163.863281" xlink:href="#i"/>
<use x="225.142578" xlink:href="#r"/>
</g>
</g>
<g clip-path="url(#a)">
<defs>
<path id="ak" d="m11.719 12.406h10.297v-8.4062l-8-15.625h-6.2969l4 15.625z"/>
</defs>
<g transform="translate(184.98 766.4) scale(.1 -.1)">
<use xlink:href="#ak"/>
</g>
</g>
<g clip-path="url(#a)">
<g transform="translate(191.71 766.4) scale(.1 -.1)">
<use xlink:href="#u"/>
<use x="63.476562" xlink:href="#n"/>
<use x="126.855469" xlink:href="#d"/>
<use x="188.378906" xlink:href="#g"/>
<use x="216.162109" xlink:href="#u"/>
<use x="279.638672" xlink:href="#n"/>
<use x="343.017578" xlink:href="#d"/>
<use x="404.541016" xlink:href="#r"/>
</g>
</g>
<g clip-path="url(#a)">
<defs>
<path id="av" d="m54.891 33.016v-33.016h-8.9844v32.719q0 7.7656-3.0312 11.609-3.0312 3.8594-9.0781 3.8594-7.2812 0-11.484-4.6406-4.2031-4.625-4.2031-12.641v-30.906h-9.0312v75.984h9.0312v-29.797q3.2344 4.9375 7.5938 7.375 4.375 2.4375 10.094 2.4375 9.4219 0 14.25-5.8281 4.8438-5.8281 4.8438-17.156z"/>
</defs>
<g transform="translate(228.28 766.4) scale(.1 -.1)">
<use xlink:href="#av"/>
<use x="63.378906" xlink:href="#d"/>
<use x="124.902344" xlink:href="#n"/>
<use x="188.28125" xlink:href="#j"/>
<use x="227.144531" xlink:href="#d"/>
<use x="288.667969" xlink:href="#r"/>
</g>
</g>
<g clip-path="url(#a)">
<g transform="translate(272.65 766.4) scale(.1 -.1)">
<use xlink:href="#i"/>
<use x="61.279297" xlink:href="#n"/>
</g>
</g>
<g clip-path="url(#a)">
<g transform="translate(293.99 766.4) scale(.1 -.1)">
<use xlink:href="#r"/>
<use x="52.099609" xlink:href="#y"/>
<use x="113.28125" xlink:href="#l"/>
<use x="210.693359" xlink:href="#l"/>
<use x="308.105469" xlink:href="#d"/>
<use x="369.628906" xlink:href="#h"/>
<use x="397.412109" xlink:href="#g"/>
</g>
</g>
<g clip-path="url(#a)">
<g transform="translate(355.61 766.4) scale(.1 -.1)">
<use xlink:href="#ak"/>
</g>
</g>
<g clip-path="url(#a)">
<defs>
<path id="an" d="m37.109 75.984v-7.4844h-8.5938q-4.8281 0-6.7188-1.9531-1.875-1.9531-1.875-7.0312v-4.8281h14.797v-6.9844h-14.797v-47.703h-9.0312v47.703h-8.5938v6.9844h8.5938v3.8125q0 9.125 4.25 13.297 4.25 4.1875 13.469 4.1875z"/>
<path id="ar" d="m56.203 29.594v-4.3906h-41.312q0.59375-9.2812 5.5938-14.141t13.938-4.8594q5.1719 0 10.031 1.2656t9.6562 3.8125v-8.5q-4.8438-2.0469-9.9219-3.125t-10.297-1.0781q-13.094 0-20.734 7.6094-7.6406 7.625-7.6406 20.625 0 13.422 7.25 21.297 7.25 7.8906 19.562 7.8906 11.031 0 17.453-7.1094 6.4219-7.0938 6.4219-19.297zm-8.9844 2.6406q-0.09375 7.3594-4.125 11.75-4.0312 4.4062-10.672 4.4062-7.5156 0-12.031-4.25t-5.2031-11.969zm-8.6875 47.75h9.7188l-15.906-18.359h-7.4844z"/>
</defs>
<g transform="translate(373.29 766.4) scale(.1 -.1)">
<use xlink:href="#h"/>
<use x="27.783203" xlink:href="#f"/>
<use x="91.162109" xlink:href="#al"/>
<use x="154.638672" xlink:href="#h"/>
<use x="182.421875" xlink:href="#an"/>
<use x="217.626953" xlink:href="#an"/>
<use x="252.832031" xlink:href="#ar"/>
<use x="314.355469" xlink:href="#j"/>
<use x="353.21875" xlink:href="#d"/>
<use x="414.742188" xlink:href="#f"/>
<use x="478.121094" xlink:href="#t"/>
</g>
</g>
<g clip-path="url(#a)">
<g transform="translate(437.68 766.4) scale(.1 -.1)">
<use xlink:href="#i"/>
<use x="61.279297" xlink:href="#n"/>
</g>
</g>
<g clip-path="url(#a)">
<g transform="translate(478.56 766.4) scale(.1 -.1)">
<use xlink:href="#r"/>
<use x="52.099609" xlink:href="#y"/>
<use x="113.28125" xlink:href="#g"/>
<use x="141.064453" xlink:href="#d"/>
<use x="202.587891" xlink:href="#h"/>
<use x="230.371094" xlink:href="#g"/>
</g>
</g>
<g clip-path="url(#a)">
<g transform="translate(535.59 766.4) scale(.1 -.1)">
<use xlink:href="#y"/>
<use x="61.181641" xlink:href="#n"/>
</g>
</g>
<g clip-path="url(#a)">
<defs>
<path id="as" d="m34.281 27.484q-10.891 0-15.094-2.4844t-4.2031-8.5q0-4.7812 3.1562-7.5938 3.1562-2.7969 8.5625-2.7969 7.4844 0 12 5.2969t4.5156 14.078v2zm17.922 3.7188v-31.203h-8.9844v8.2969q-3.0781-4.9688-7.6719-7.3438t-11.234-2.375q-8.3906 0-13.359 4.7188-4.9531 4.7188-4.9531 12.625 0 9.2188 6.1719 13.906 6.1875 4.6875 18.438 4.6875h12.609v0.89062q0 6.2031-4.0781 9.5938t-11.453 3.3906q-4.6875 0-9.1406-1.125-4.4375-1.125-8.5312-3.375v8.3125q4.9219 1.9062 9.5625 2.8438 4.6406 0.95312 9.0312 0.95312 11.875 0 17.734-6.1562 5.8594-6.1406 5.8594-18.641zm-30.281 48.781 13.766-18.266h-7.4688l-15.922 18.266z"/>
</defs>
<g transform="translate(591.9 766.4) scale(.1 -.1)">
<use xlink:href="#as"/>
</g>
</g>
<g clip-path="url(#a)">
<g transform="translate(646.46 766.4) scale(.1 -.1)">
<use xlink:href="#g"/>
<use x="27.783203" xlink:href="#i"/>
</g>
</g>
<g clip-path="url(#a)">
<g transform="translate(697.45 766.4) scale(.1 -.1)">
<use xlink:href="#ae"/>
<use x="63.476562" xlink:href="#g"/>
<use x="91.259766" xlink:href="#n"/>
<use x="154.638672" xlink:href="#h"/>
<use x="182.421875" xlink:href="#d"/>
</g>
</g>
<g clip-path="url(#a)">
<g transform="translate(769.6 766.4) scale(.1 -.1)">
<use xlink:href="#ak"/>
</g>
</g>
<g clip-path="url(#a)">
<defs>
<path id="au" d="m9.4219 54.688h8.9844v-55.672q0-10.438-3.9844-15.125-3.9688-4.6875-12.812-4.6875h-3.4219v7.6094h2.4062q5.125 0 6.9688 2.375 1.8594 2.3594 1.8594 9.8281zm0 21.297h8.9844v-11.391h-8.9844z"/>
</defs>
<g transform="translate(831.06 766.4) scale(.1 -.1)">
<use xlink:href="#au"/>
<use x="27.783203" xlink:href="#d"/>
</g>
</g>
<g clip-path="url(#a)">
<g transform="translate(896.41 766.4) scale(.1 -.1)">
<use xlink:href="#f"/>
<use x="63.378906" xlink:href="#d"/>
</g>
</g>
<g clip-path="url(#a)">
<g transform="translate(953.88 766.4) scale(.1 -.1)">
<use xlink:href="#u"/>
<use x="63.476562" xlink:href="#n"/>
<use x="126.855469" xlink:href="#h"/>
<use x="154.638672" xlink:href="#t"/>
<use x="193.847656" xlink:href="#t"/>
<use x="233.056641" xlink:href="#i"/>
<use x="294.335938" xlink:href="#h"/>
<use x="322.119141" xlink:href="#r"/>
</g>
</g>
<g clip-path="url(#a)">
<g transform="translate(1035 766.4) scale(.1 -.1)">
<use xlink:href="#ae"/>
<use x="63.476562" xlink:href="#g"/>
<use x="91.259766" xlink:href="#n"/>
<use x="154.638672" xlink:href="#r"/>
</g>
</g>
<g clip-path="url(#a)">
<g transform="translate(1116.4 766.4) scale(.1 -.1)">
<use xlink:href="#g"/>
<use x="27.783203" xlink:href="#d"/>
</g>
</g>
<g clip-path="url(#a)">
<g transform="translate(1187.8 766.4) scale(.1 -.1)">
<use xlink:href="#ae"/>
<use x="63.476562" xlink:href="#y"/>
<use x="124.658203" xlink:href="#f"/>
<use x="188.037109" xlink:href="#t"/>
</g>
</g>
<g clip-path="url(#a)">
<g transform="translate(1273.9 766.4) scale(.1 -.1)">
<use xlink:href="#al"/>
<use x="63.476562" xlink:href="#n"/>
</g>
</g>
<g clip-path="url(#a)">
<defs>
<path id="at" d="m2.9844 54.688h9.5156l17.094-45.891 17.094 45.891h9.5156l-20.516-54.688h-12.203z"/>
</defs>
<g transform="translate(1348.6 766.4) scale(.1 -.1)">
<use xlink:href="#f"/>
<use x="63.378906" xlink:href="#i"/>
<use x="124.658203" xlink:href="#at"/>
<use x="183.837891" xlink:href="#h"/>
<use x="211.621094" xlink:href="#j"/>
<use x="250.484375" xlink:href="#d"/>
</g>
</g>
<g clip-path="url(#a)">
<defs>
<path id="e" d="m10.688 12.406h10.312v-12.406h-10.312z"/>
</defs>
<g transform="translate(1449.3 766.4) scale(.1 -.1)">
<use xlink:href="#e"/>
</g>
</g>
<g clip-path="url(#a)">
<defs>
<path id="af" d="m9.8125 72.906h9.8594v-72.906h-9.8594z"/>
<path id="ap" d="m9.8125 72.906h14.703l18.594-49.609 18.703 49.609h14.703v-72.906h-9.625v64.016l-18.797-50h-9.9062l-18.797 50v-64.016h-9.5781z"/>
<path id="aq" d="m9.8125 72.906h9.8594v-64.609h35.5v-8.2969h-45.359z"/>
</defs>
<g transform="translate(296.96 478.14) scale(.1 -.1)">
<use xlink:href="#af"/>
<use x="29.492188" xlink:href="#ap"/>
<use x="115.771484" xlink:href="#aa"/>
<use x="176.074219" xlink:href="#aq"/>
<use x="231.787109" xlink:href="#af"/>
<use x="261.279297" xlink:href="#q"/>
<use x="331.103516" xlink:href="#af"/>
<use x="360.595703" xlink:href="#k"/>
</g>
</g>
<g clip-path="url(#a)">
<defs>
<path id="c" d="m12.406 8.2969h16.109v55.625l-17.531-3.5156v8.9844l17.438 3.5156h9.8594v-64.609h16.109v-8.2969h-41.984z"/>
</defs>
<g transform="translate(458.2 39.123) scale(.1 -.1)">
<use xlink:href="#c"/>
<use x="63.623047" xlink:href="#e"/>
<use x="95.410156" xlink:href="#c"/>
</g>
</g>
<g clip-path="url(#a)">
<defs>
<path id="p" d="m19.188 8.2969h34.422v-8.2969h-46.281v8.2969q5.6094 5.8125 15.297 15.594 9.7031 9.7969 12.188 12.641 4.7344 5.3125 6.6094 9 1.8906 3.6875 1.8906 7.25 0 5.8125-4.0781 9.4688-4.0781 3.6719-10.625 3.6719-4.6406 0-9.7969-1.6094-5.1406-1.6094-11-4.8906v9.9688q5.9531 2.3906 11.125 3.6094 5.1875 1.2188 9.4844 1.2188 11.328 0 18.062-5.6719 6.7344-5.6562 6.7344-15.125 0-4.5-1.6875-8.5312-1.6719-4.0156-6.125-9.4844-1.2188-1.4219-7.7656-8.1875-6.5312-6.7656-18.453-18.922z"/>
</defs>
<g transform="translate(242.68 332.26) scale(.1 -.1)">
<use xlink:href="#c"/>
<use x="63.623047" xlink:href="#e"/>
<use x="95.410156" xlink:href="#p"/>
</g>
</g>
<g clip-path="url(#a)">
<defs>
<path id="m" d="m40.578 39.312q7.0781-1.5156 11.047-6.3125 3.9844-4.7812 3.9844-11.812 0-10.781-7.4219-16.703-7.4219-5.9062-21.094-5.9062-4.5781 0-9.4375 0.90625t-10.031 2.7188v9.5156q4.0938-2.3906 8.9688-3.6094 4.8906-1.2188 10.219-1.2188 9.2656 0 14.125 3.6562t4.8594 10.641q0 6.4531-4.5156 10.078-4.5156 3.6406-12.562 3.6406h-8.5v8.1094h8.8906q7.2656 0 11.125 2.9062t3.8594 8.375q0 5.6094-3.9844 8.6094-3.9688 3.0156-11.391 3.0156-4.0625 0-8.7031-0.89062-4.6406-0.875-10.203-2.7188v8.7812q5.625 1.5625 10.531 2.3438t9.25 0.78125q11.234 0 17.766-5.1094 6.5469-5.0938 6.5469-13.781 0-6.0625-3.4688-10.234t-9.8594-5.7812z"/>
</defs>
<g transform="translate(352.05 332.26) scale(.1 -.1)">
<use xlink:href="#c"/>
<use x="63.623047" xlink:href="#e"/>
<use x="95.410156" xlink:href="#m"/>
</g>
</g>
<g clip-path="url(#a)">
<defs>
<path id="o" d="m37.797 64.312-24.906-38.922h24.906zm-2.5938 8.5938h12.406v-47.516h10.406v-8.2031h-10.406v-17.188h-9.8125v17.188h-32.906v9.5156z"/>
</defs>
<g transform="translate(631.96 185.87) scale(.1 -.1)">
<use xlink:href="#c"/>
<use x="63.623047" xlink:href="#e"/>
<use x="95.410156" xlink:href="#o"/>
</g>
</g>
<g clip-path="url(#a)">
<defs>
<path id="x" d="m10.797 72.906h38.719v-8.3125h-29.688v-17.859q2.1406 0.73438 4.2812 1.0938 2.1562 0.35938 4.3125 0.35938 12.203 0 19.328-6.6875 7.1406-6.6875 7.1406-18.109 0-11.766-7.3281-18.297-7.3281-6.5156-20.656-6.5156-4.5938 0-9.3594 0.78125-4.75 0.78125-9.8281 2.3438v9.9219q4.3906-2.3906 9.0781-3.5625t9.9062-1.1719q8.4531 0 13.375 4.4375 4.9375 4.4375 4.9375 12.062 0 7.6094-4.9375 12.047-4.9219 4.4531-13.375 4.4531-3.9531 0-7.8906-0.875-3.9219-0.875-8.0156-2.7344z"/>
</defs>
<g transform="translate(994.67 185.87) scale(.1 -.1)">
<use xlink:href="#c"/>
<use x="63.623047" xlink:href="#e"/>
<use x="95.410156" xlink:href="#x"/>
</g>
</g>
<g clip-path="url(#a)">
<defs>
<path id="ah" d="m10.984 1.5156v8.9844q3.7188-1.7656 7.5156-2.6875 3.8125-0.92188 7.4844-0.92188 9.7656 0 14.906 6.5625 5.1562 6.5625 5.8906 19.953-2.8281-4.2031-7.1875-6.4531-4.3438-2.25-9.6094-2.25-10.938 0-17.312 6.6094-6.375 6.625-6.375 18.109 0 11.219 6.6406 18 6.6406 6.7969 17.672 6.7969 12.656 0 19.312-9.7031 6.6719-9.6875 6.6719-28.141 0-17.234-8.1875-27.516-8.1719-10.281-21.984-10.281-3.7188 0-7.5312 0.73438-3.7969 0.73438-7.9062 2.2031zm19.625 30.906q6.6406 0 10.516 4.5312 3.8906 4.5469 3.8906 12.469 0 7.8594-3.8906 12.422-3.875 4.5625-10.516 4.5625t-10.516-4.5625-3.875-12.422q0-7.9219 3.875-12.469 3.875-4.5312 10.516-4.5312z"/>
</defs>
<g transform="translate(827.57 623.26) scale(.1 -.1)">
<use xlink:href="#c"/>
<use x="63.623047" xlink:href="#e"/>
<use x="95.410156" xlink:href="#ah"/>
</g>
</g>
<g clip-path="url(#a)">
<defs>
<path id="aj" d="m31.781 66.406q-7.6094 0-11.453-7.5-3.8281-7.4844-3.8281-22.531 0-14.984 3.8281-22.484 3.8438-7.5 11.453-7.5 7.6719 0 11.5 7.5 3.8438 7.5 3.8438 22.484 0 15.047-3.8438 22.531-3.8281 7.5-11.5 7.5zm0 7.8125q12.266 0 18.734-9.7031 6.4688-9.6875 6.4688-28.141 0-18.406-6.4688-28.109-6.4688-9.6875-18.734-9.6875-12.25 0-18.719 9.6875-6.4688 9.7031-6.4688 28.109 0 18.453 6.4688 28.141 6.4688 9.7031 18.719 9.7031z"/>
</defs>
<g transform="translate(962.85 623.26) scale(.1 -.1)">
<use xlink:href="#c"/>
<use x="63.623047" xlink:href="#e"/>
<use x="95.410156" xlink:href="#c"/>
<use x="159.033203" xlink:href="#aj"/>
</g>
</g>
<g clip-path="url(#a)">
<g transform="translate(961.45 623.26) scale(.1 -.1)">
<use xlink:href="#c"/>
<use x="63.623047" xlink:href="#e"/>
<use x="95.410156" xlink:href="#c"/>
<use x="159.033203" xlink:href="#c"/>
</g>
</g>
<g clip-path="url(#a)">
<g transform="translate(1217.2 332.26) scale(.1 -.1)">
<use xlink:href="#c"/>
<use x="63.623047" xlink:href="#e"/>
<use x="95.410156" xlink:href="#c"/>
<use x="159.033203" xlink:href="#p"/>
</g>
</g>
<g clip-path="url(#a)">
<g transform="translate(1109.7 623.26) scale(.1 -.1)">
<use xlink:href="#c"/>
<use x="63.623047" xlink:href="#e"/>
<use x="95.410156" xlink:href="#c"/>
<use x="159.033203" xlink:href="#m"/>
</g>
</g>
<g clip-path="url(#a)">
<g transform="translate(1188 623.26) scale(.1 -.1)">
<use xlink:href="#c"/>
<use x="63.623047" xlink:href="#e"/>
<use x="95.410156" xlink:href="#c"/>
<use x="159.033203" xlink:href="#o"/>
</g>
</g>
<g clip-path="url(#a)">
<g transform="translate(1354 478.14) scale(.1 -.1)">
<use xlink:href="#c"/>
<use x="63.623047" xlink:href="#e"/>
<use x="95.410156" xlink:href="#c"/>
<use x="159.033203" xlink:href="#x"/>
</g>
</g>
<g clip-path="url(#a)">
<defs>
<path id="ad" d="m33.016 40.375q-6.6406 0-10.531-4.5469-3.875-4.5312-3.875-12.438 0-7.8594 3.875-12.438 3.8906-4.5625 10.531-4.5625t10.516 4.5625q3.875 4.5781 3.875 12.438 0 7.9062-3.875 12.438-3.875 4.5469-10.516 4.5469zm19.578 30.922v-8.9844q-3.7188 1.75-7.5 2.6719-3.7812 0.9375-7.5 0.9375-9.7656 0-14.922-6.5938-5.1406-6.5938-5.875-19.922 2.875 4.25 7.2188 6.5156 4.3594 2.2656 9.5781 2.2656 10.984 0 17.359-6.6719 6.375-6.6562 6.375-18.125 0-11.234-6.6406-18.031-6.6406-6.7812-17.672-6.7812-12.656 0-19.344 9.6875-6.6875 9.7031-6.6875 28.109 0 17.281 8.2031 27.562t22.016 10.281q3.7188 0 7.5-0.73438t7.8906-2.1875z"/>
</defs>
<g transform="translate(1269.1 623.26) scale(.1 -.1)">
<use xlink:href="#c"/>
<use x="63.623047" xlink:href="#e"/>
<use x="95.410156" xlink:href="#c"/>
<use x="159.033203" xlink:href="#ad"/>
</g>
</g>
<g clip-path="url(#a)">
<defs>
<path id="ac" d="m8.2031 72.906h46.875v-4.2031l-26.469-68.703h-10.297l24.906 64.594h-35.016z"/>
</defs>
<g transform="translate(1353.1 623.26) scale(.1 -.1)">
<use xlink:href="#c"/>
<use x="63.623047" xlink:href="#e"/>
<use x="95.410156" xlink:href="#c"/>
<use x="159.033203" xlink:href="#ac"/>
</g>
</g>
<g clip-path="url(#a)">
<defs>
<path id="ai" d="m31.781 34.625q-7.0312 0-11.062-3.7656-4.0156-3.7656-4.0156-10.344 0-6.5938 4.0156-10.359 4.0312-3.7656 11.062-3.7656t11.078 3.7812q4.0625 3.7969 4.0625 10.344 0 6.5781-4.0312 10.344-4.0156 3.7656-11.109 3.7656zm-9.8594 4.1875q-6.3438 1.5625-9.8906 5.9062-3.5312 4.3594-3.5312 10.609 0 8.7344 6.2188 13.812 6.2344 5.0781 17.062 5.0781 10.891 0 17.094-5.0781t6.2031-13.812q0-6.25-3.5469-10.609-3.5312-4.3438-9.8281-5.9062 7.125-1.6562 11.094-6.5 3.9844-4.8281 3.9844-11.797 0-10.609-6.4688-16.281-6.4688-5.6562-18.531-5.6562-12.047 0-18.531 5.6562-6.4688 5.6719-6.4688 16.281 0 6.9688 4 11.797 4.0156 4.8438 11.141 6.5zm-3.6094 15.578q0-5.6562 3.5312-8.8281 3.5469-3.1719 9.9375-3.1719 6.3594 0 9.9375 3.1719 3.5938 3.1719 3.5938 8.8281 0 5.6719-3.5938 8.8438-3.5781 3.1719-9.9375 3.1719-6.3906 0-9.9375-3.1719-3.5312-3.1719-3.5312-8.8438z"/>
</defs>
<g transform="translate(388.03 623.26) scale(.1 -.1)">
<use xlink:href="#c"/>
<use x="63.623047" xlink:href="#e"/>
<use x="95.410156" xlink:href="#c"/>
<use x="159.033203" xlink:href="#ai"/>
</g>
</g>
<g clip-path="url(#a)">
<g transform="translate(542.65 332.26) scale(.1 -.1)">
<use xlink:href="#c"/>
<use x="63.623047" xlink:href="#e"/>
<use x="95.410156" xlink:href="#c"/>
<use x="159.033203" xlink:href="#ah"/>
</g>
</g>
<g clip-path="url(#a)">
<g transform="translate(456.56 478.14) scale(.1 -.1)">
<use xlink:href="#c"/>
<use x="63.623047" xlink:href="#e"/>
<use x="95.410156" xlink:href="#p"/>
<use x="159.033203" xlink:href="#c"/>
</g>
</g>
<g clip-path="url(#a)">
<g transform="translate(530.69 623.26) scale(.1 -.1)">
<use xlink:href="#c"/>
<use x="63.623047" xlink:href="#e"/>
<use x="95.410156" xlink:href="#p"/>
<use x="159.033203" xlink:href="#p"/>
</g>
</g>
<g clip-path="url(#a)">
<g transform="translate(640.71 478.14) scale(.1 -.1)">
<use xlink:href="#c"/>
<use x="63.623047" xlink:href="#e"/>
<use x="95.410156" xlink:href="#p"/>
<use x="159.033203" xlink:href="#m"/>
</g>
</g>
<g clip-path="url(#a)">
<g transform="translate(583.83 623.26) scale(.1 -.1)">
<use xlink:href="#c"/>
<use x="63.623047" xlink:href="#e"/>
<use x="95.410156" xlink:href="#p"/>
<use x="159.033203" xlink:href="#o"/>
</g>
</g>
<g clip-path="url(#a)">
<g transform="translate(639.78 623.26) scale(.1 -.1)">
<use xlink:href="#c"/>
<use x="63.623047" xlink:href="#e"/>
<use x="95.410156" xlink:href="#p"/>
<use x="159.033203" xlink:href="#x"/>
</g>
</g>
<g clip-path="url(#a)">
<g transform="translate(698.52 623.26) scale(.1 -.1)">
<use xlink:href="#c"/>
<use x="63.623047" xlink:href="#e"/>
<use x="95.410156" xlink:href="#p"/>
<use x="159.033203" xlink:href="#ad"/>
</g>
</g>
<g clip-path="url(#a)">
<g transform="translate(432.78 623.26) scale(.1 -.1)">
<use xlink:href="#c"/>
<use x="63.623047" xlink:href="#e"/>
<use x="95.410156" xlink:href="#p"/>
<use x="159.033203" xlink:href="#ac"/>
</g>
</g>
<g clip-path="url(#a)">
<g transform="translate(480.34 623.26) scale(.1 -.1)">
<use xlink:href="#c"/>
<use x="63.623047" xlink:href="#e"/>
<use x="95.410156" xlink:href="#p"/>
<use x="159.033203" xlink:href="#ai"/>
</g>
</g>
<g clip-path="url(#a)">
<g transform="translate(218.8 478.14) scale(.1 -.1)">
<use xlink:href="#c"/>
<use x="63.623047" xlink:href="#e"/>
<use x="95.410156" xlink:href="#m"/>
<use x="159.033203" xlink:href="#aj"/>
</g>
</g>
<g clip-path="url(#a)">
<g transform="translate(285.93 478.14) scale(.1 -.1)">
<use xlink:href="#c"/>
<use x="63.623047" xlink:href="#e"/>
<use x="95.410156" xlink:href="#m"/>
<use x="159.033203" xlink:href="#c"/>
</g>
</g>
<g clip-path="url(#a)">
<g transform="translate(267.75 623.26) scale(.1 -.1)">
<use xlink:href="#c"/>
<use x="63.623047" xlink:href="#e"/>
<use x="95.410156" xlink:href="#m"/>
<use x="159.033203" xlink:href="#p"/>
</g>
</g>
<g clip-path="url(#a)">
<g transform="translate(304.11 623.26) scale(.1 -.1)">
<use xlink:href="#c"/>
<use x="63.623047" xlink:href="#e"/>
<use x="95.410156" xlink:href="#m"/>
<use x="159.033203" xlink:href="#m"/>
</g>
</g>
<g clip-path="url(#a)">
<g transform="translate(203.41 623.26) scale(.1 -.1)">
<use xlink:href="#c"/>
<use x="63.623047" xlink:href="#e"/>
<use x="95.410156" xlink:href="#m"/>
<use x="159.033203" xlink:href="#o"/>
</g>
</g>
<g clip-path="url(#a)">
<g transform="translate(234.18 623.26) scale(.1 -.1)">
<use xlink:href="#c"/>
<use x="63.623047" xlink:href="#e"/>
<use x="95.410156" xlink:href="#m"/>
<use x="159.033203" xlink:href="#x"/>
</g>
</g>
<g clip-path="url(#a)">
<g transform="translate(67.748 623.26) scale(.1 -.1)">
<use xlink:href="#c"/>
<use x="63.623047" xlink:href="#e"/>
<use x="95.410156" xlink:href="#m"/>
<use x="159.033203" xlink:href="#ad"/>
</g>
</g>
<g clip-path="url(#a)">
<g transform="translate(66.35 623.26) scale(.1 -.1)">
<use xlink:href="#c"/>
<use x="63.623047" xlink:href="#e"/>
<use x="95.410156" xlink:href="#m"/>
<use x="159.033203" xlink:href="#ac"/>
</g>
</g>
<g clip-path="url(#a)">
<g transform="translate(99.916 478.14) scale(.1 -.1)">
<use xlink:href="#c"/>
<use x="63.623047" xlink:href="#e"/>
<use x="95.410156" xlink:href="#m"/>
<use x="159.033203" xlink:href="#ai"/>
</g>
</g>
<g clip-path="url(#a)">
<g transform="translate(139.08 478.14) scale(.1 -.1)">
<use xlink:href="#c"/>
<use x="63.623047" xlink:href="#e"/>
<use x="95.410156" xlink:href="#m"/>
<use x="159.033203" xlink:href="#ah"/>
</g>
</g>
<g clip-path="url(#a)">
<g transform="translate(127.89 623.26) scale(.1 -.1)">
<use xlink:href="#c"/>
<use x="63.623047" xlink:href="#e"/>
<use x="95.410156" xlink:href="#o"/>
<use x="159.033203" xlink:href="#aj"/>
</g>
</g>
<g clip-path="url(#a)">
<g transform="translate(150.27 623.26) scale(.1 -.1)">
<use xlink:href="#c"/>
<use x="63.623047" xlink:href="#e"/>
<use x="95.410156" xlink:href="#o"/>
<use x="159.033203" xlink:href="#c"/>
</g>
</g>
<g clip-path="url(#a)">
<g transform="translate(91.525 623.26) scale(.1 -.1)">
<use xlink:href="#c"/>
<use x="63.623047" xlink:href="#e"/>
<use x="95.410156" xlink:href="#o"/>
<use x="159.033203" xlink:href="#p"/>
</g>
</g>
<g clip-path="url(#a)">
<g transform="translate(108.31 623.26) scale(.1 -.1)">
<use xlink:href="#c"/>
<use x="63.623047" xlink:href="#e"/>
<use x="95.410156" xlink:href="#o"/>
<use x="159.033203" xlink:href="#m"/>
</g>
</g>
<g clip-path="url(#a)">
<g transform="translate(175.44 623.26) scale(.1 -.1)">
<use xlink:href="#c"/>
<use x="63.623047" xlink:href="#e"/>
<use x="95.410156" xlink:href="#o"/>
<use x="159.033203" xlink:href="#o"/>
</g>
</g>
<g clip-path="url(#a)">
<g transform="translate(346.07 623.26) scale(.1 -.1)">
<use xlink:href="#c"/>
<use x="63.623047" xlink:href="#e"/>
<use x="95.410156" xlink:href="#o"/>
<use x="159.033203" xlink:href="#x"/>
</g>
</g>
<g clip-path="url(#a)">
<g transform="translate(760.06 623.26) scale(.1 -.1)">
<use xlink:href="#c"/>
<use x="63.623047" xlink:href="#e"/>
<use x="95.410156" xlink:href="#o"/>
<use x="159.033203" xlink:href="#ad"/>
</g>
</g>
<g clip-path="url(#a)">
<g transform="translate(1439.8 623.26) scale(.1 -.1)">
<use xlink:href="#c"/>
<use x="63.623047" xlink:href="#e"/>
<use x="95.410156" xlink:href="#o"/>
<use x="159.033203" xlink:href="#ac"/>
</g>
</g>
<defs>
<clipPath id="a">
<rect width="1520" height="800"/>
</clipPath>
</defs>
</svg>
