<?xml version="1.0" encoding="UTF-8"?>
<!DOCTYPE svg  PUBLIC '-//W3C//DTD SVG 1.1//EN'  'http://www.w3.org/Graphics/SVG/1.1/DTD/svg11.dtd'>
<svg width="1672pt" height="880pt" version="1.1" viewBox="0 0 1672 880" xmlns="http://www.w3.org/2000/svg" xmlns:xlink="http://www.w3.org/1999/xlink">
<defs>
<style type="text/css">*{stroke-linecap:butt;stroke-linejoin:round;white-space:pre;}</style>
</defs>
<path d="m0 880h1672v-880h-1672z" fill="#fff"/>
<g fill="none" stroke="#000">
<path d="m715.74 40.775-639.56 689.1" clip-path="url(#a)"/>
<path d="m715.74 40.775-378.64 121.79" clip-path="url(#a)"/>
<path d="m715.74 40.775 262.73 689.1" clip-path="url(#a)"/>
<path d="m715.74 40.775 540.24 355.89" clip-path="url(#a)"/>
<path d="m715.74 40.775 215.24 689.1" clip-path="url(#a)"/>
<path d="m76.177 729.88v109.35" clip-path="url(#a)"/>
<path d="m337.1 162.57-165.95 457.97" clip-path="url(#a)"/>
<path d="m337.1 162.57-70.97 567.31" clip-path="url(#a)"/>
<path d="m337.1 162.57-23.481 567.31" clip-path="url(#a)"/>
<path d="m337.1 162.57 24.008 567.31" clip-path="url(#a)"/>
<path d="m337.1 162.57 236.39 118.52" clip-path="url(#a)"/>
<path d="m978.47 729.88v109.35" clip-path="url(#a)"/>
<path d="m1256 396.66-182.54 223.87" clip-path="url(#a)"/>
<path d="m1256 396.66-87.558 333.22" clip-path="url(#a)"/>
<path d="m1256 396.66 7.4201 223.87" clip-path="url(#a)"/>
<path d="m1256 396.66 262.67 113" clip-path="url(#a)"/>
<path d="m1073.4 620.53-47.489 109.35" clip-path="url(#a)"/>
<path d="m1073.4 620.53v109.35" clip-path="url(#a)"/>
<path d="m1073.4 620.53 47.489 109.35" clip-path="url(#a)"/>
<path d="m1168.4 729.88v109.35" clip-path="url(#a)"/>
<path d="m1263.4 620.53-47.489 109.35" clip-path="url(#a)"/>
<path d="m1263.4 620.53v109.35" clip-path="url(#a)"/>
<path d="m1263.4 620.53 47.489 109.35" clip-path="url(#a)"/>
<path d="m1518.7 509.67-89.042 110.87" clip-path="url(#a)"/>
<path d="m1518.7 509.67 29.681 220.21" clip-path="url(#a)"/>
<path d="m1518.7 509.67-17.808 220.21" clip-path="url(#a)" stroke-dasharray="3.7,1.6"/>
<path d="m1518.7 509.67 77.17 220.21" clip-path="url(#a)"/>
<path d="m1429.6 620.53-71.233 109.35" clip-path="url(#a)"/>
<path d="m1429.6 620.53 23.744 109.35" clip-path="url(#a)"/>
<path d="m1429.6 620.53 71.233 109.35" clip-path="url(#a)"/>
<path d="m1429.6 620.53-23.744 109.35" clip-path="url(#a)"/>
<path d="m1548.3 729.88v109.35" clip-path="url(#a)"/>
<path d="m1358.4 729.88v109.35" clip-path="url(#a)"/>
<path d="m1453.4 729.88v109.35" clip-path="url(#a)"/>
<path d="m1500.8 729.88v109.35" clip-path="url(#a)"/>
<path d="m1215.9 729.88v109.35" clip-path="url(#a)"/>
<path d="m1263.4 729.88v109.35" clip-path="url(#a)"/>
<path d="m1310.9 729.88v109.35" clip-path="url(#a)"/>
<path d="m1026 729.88v109.35" clip-path="url(#a)"/>
<path d="m1073.4 729.88v109.35" clip-path="url(#a)"/>
<path d="m1120.9 729.88v109.35" clip-path="url(#a)"/>
<path d="m171.15 620.53-47.489 109.35" clip-path="url(#a)"/>
<path d="m171.15 620.53v109.35" clip-path="url(#a)"/>
<path d="m171.15 620.53 47.489 109.35" clip-path="url(#a)"/>
<path d="m266.13 729.88v109.35" clip-path="url(#a)"/>
<path d="m313.62 729.88v109.35" clip-path="url(#a)"/>
<path d="m361.11 729.88v109.35" clip-path="url(#a)"/>
<path d="m573.49 281.09-141.15 339.45" clip-path="url(#a)"/>
<path d="m573.49 281.09 141.15 115.58" clip-path="url(#a)"/>
<path d="m432.34 620.53-23.744 109.35" clip-path="url(#a)"/>
<path d="m432.34 620.53 23.744 109.35" clip-path="url(#a)"/>
<path d="m714.64 396.66-147.74 113" clip-path="url(#a)"/>
<path d="m714.64 396.66 121.36 223.87" clip-path="url(#a)"/>
<path d="m714.64 396.66 26.383 333.22" clip-path="url(#a)"/>
<path d="m566.9 509.67-63.319 220.21" clip-path="url(#a)"/>
<path d="m566.9 509.67-15.83 220.21" clip-path="url(#a)"/>
<path d="m566.9 509.67 79.148 110.87" clip-path="url(#a)"/>
<path d="m836 620.53-47.489 109.35" clip-path="url(#a)"/>
<path d="m836 620.53v109.35" clip-path="url(#a)"/>
<path d="m836 620.53 47.489 109.35" clip-path="url(#a)"/>
<path d="m788.51 729.88v109.35" clip-path="url(#a)"/>
<path d="m836 729.88v109.35" clip-path="url(#a)"/>
<path d="m883.49 729.88v109.35" clip-path="url(#a)"/>
<path d="m503.58 729.88v109.35" clip-path="url(#a)"/>
<path d="m551.07 729.88v109.35" clip-path="url(#a)"/>
<path d="m646.04 620.53-47.489 218.69" clip-path="url(#a)"/>
<path d="m646.04 620.53 47.489 218.69" clip-path="url(#a)"/>
<path d="m646.04 620.53v109.35" clip-path="url(#a)"/>
<path d="m408.6 729.88v109.35" clip-path="url(#a)"/>
<path d="m456.09 729.88v109.35" clip-path="url(#a)"/>
<path d="m123.67 729.88v109.35" clip-path="url(#a)"/>
<path d="m171.15 729.88v109.35" clip-path="url(#a)"/>
<path d="m218.64 729.88v109.35" clip-path="url(#a)"/>
<path d="m857.18 40.775-520.08 121.79" clip-path="url(#a)"/>
<path d="m857.18 40.775 121.28 689.1" clip-path="url(#a)"/>
<path d="m857.18 40.775 398.8 355.89" clip-path="url(#a)"/>
<path d="m646.04 729.88v109.35" clip-path="url(#a)"/>
<path d="m741.02 729.88v109.35" clip-path="url(#a)"/>
<path d="m930.98 729.88v109.35" clip-path="url(#a)"/>
<path d="m1405.9 729.88v109.35" clip-path="url(#a)"/>
<path d="m1595.8 729.88v109.35" clip-path="url(#a)"/>
</g>
<path d="m399.04 391.23 3.0323-3.2672q1.6326-1.7591-0.12646-3.3918l-5.675-5.267q-1.7591-1.6326-3.3918 0.12646l-3.0323 3.2672q-1.6326 1.7591 0.12646 3.3918l5.675 5.267q1.7591 1.6326 3.3918-0.12646z" clip-path="url(#a)" fill="#fff" stroke="#fff"/>
<g clip-path="url(#a)">
<defs>
<path id="aa" d="m9.8125 72.906h9.8594v-64.609h35.5v-8.2969h-45.359z"/>
</defs>
<g transform="translate(396.06 388.46) rotate(-47.135) scale(.08 -.08)">
<use xlink:href="#aa"/>
</g>
</g>
<path d="m525.48 108.56 5.7273-1.8422q2.2847-0.7349 1.5498-3.0196l-2.3708-7.3706q-0.7349-2.2847-3.0196-1.5498l-5.7273 1.8422q-2.2847 0.7349-1.5498 3.0196l2.3708 7.3706q0.7349 2.2847 3.0196 1.5498z" clip-path="url(#a)" fill="#fff" stroke="#fff"/>
<g clip-path="url(#a)">
<defs>
<path id="am" d="m9.8125 72.906h9.8594v-29.891h35.844v29.891h9.8594v-72.906h-9.8594v34.719h-35.844v-34.719h-9.8594z"/>
</defs>
<g transform="translate(524.23 104.69) rotate(-17.831) scale(.08 -.08)">
<use xlink:href="#am"/>
</g>
</g>
<path d="m840.45 385.48 1.588 4.1651q0.85498 2.2425 3.0975 1.3876l7.2345-2.7582q2.2425-0.85499 1.3876-3.0975l-1.588-4.1651q-0.85498-2.2425-3.0975-1.3876l-7.2345 2.7582q-2.2425 0.85498-1.3876 3.0975z" clip-path="url(#a)" fill="#fff" stroke="#fff"/>
<g clip-path="url(#a)">
<g transform="translate(844.25 384.03) rotate(69.13) scale(.08 -.08)">
<use xlink:href="#aa"/>
</g>
</g>
<path d="m979.9 222.3 5.0241 3.3097q2.0042 1.3203 3.3245-0.68391l4.2593-6.4656q1.3203-2.0042-0.68391-3.3245l-5.0241-3.3097q-2.0042-1.3203-3.3245 0.68391l-4.2593 6.4656q-1.3203 2.0042 0.68391 3.3245z" clip-path="url(#a)" fill="#fff" stroke="#fff"/>
<g clip-path="url(#a)">
<g transform="translate(982.13 218.91) rotate(33.375) scale(.08 -.08)">
<use xlink:href="#am"/>
</g>
</g>
<path d="m816.5 384.4 1.7456 5.5887q0.71553 2.2909 3.0064 1.5753l7.3904-2.3083q2.2909-0.71553 1.5753-3.0064l-1.7456-5.5887q-0.71553-2.2909-3.0064-1.5753l-7.3904 2.3083q-2.2909 0.71553-1.5753 3.0064z" clip-path="url(#a)" fill="#fff" stroke="#fff"/>
<g clip-path="url(#a)">
<defs>
<path id="y" d="m8.6875 72.906h9.9219v-44.297q0-11.719 4.2344-16.875 4.25-5.1406 13.781-5.1406 9.4688 0 13.719 5.1406 4.25 5.1562 4.25 16.875v44.297h9.9062v-45.516q0-14.25-7.0625-21.531-7.0469-7.2812-20.812-7.2812-13.828 0-20.891 7.2812-7.0469 7.2812-7.0469 21.531z"/>
</defs>
<g transform="translate(820.38 383.19) rotate(72.654) scale(.08 -.08)">
<use xlink:href="#y"/>
</g>
</g>
<path d="m69.906 766.91v35.285q0 2.4 2.4 2.4h7.7425q2.4 0 2.4-2.4v-35.285q0-2.4-2.4-2.4h-7.7425q-2.4 0-2.4 2.4z" clip-path="url(#a)" fill="#fff" stroke="#fff"/>
<g clip-path="url(#a)">
<defs>
<path id="l" d="m-0.29688 72.906h61.672v-8.3125h-25.875v-64.594h-9.9062v64.594h-25.891z"/>
<path id="d" d="m56.203 29.594v-4.3906h-41.312q0.59375-9.2812 5.5938-14.141t13.938-4.8594q5.1719 0 10.031 1.2656t9.6562 3.8125v-8.5q-4.8438-2.0469-9.9219-3.125t-10.297-1.0781q-13.094 0-20.734 7.6094-7.6406 7.625-7.6406 20.625 0 13.422 7.25 21.297 7.25 7.8906 19.562 7.8906 11.031 0 17.453-7.1094 6.4219-7.0938 6.4219-19.297zm-8.9844 2.6406q-0.09375 7.3594-4.125 11.75-4.0312 4.4062-10.672 4.4062-7.5156 0-12.031-4.25t-5.2031-11.969z"/>
<path id="i" d="m41.109 46.297q-1.5156 0.875-3.2969 1.2812-1.7812 0.42188-3.9219 0.42188-7.625 0-11.703-4.9531t-4.0781-14.234v-28.812h-9.0312v54.688h9.0312v-8.5q2.8438 4.9844 7.375 7.3906 4.5469 2.4219 11.047 2.4219 0.92188 0 2.0469-0.125 1.125-0.10938 2.4844-0.35938z"/>
<path id="k" d="m52 44.188q3.375 6.0625 8.0625 8.9375t11.031 2.875q8.5469 0 13.188-5.9844 4.6406-5.9688 4.6406-17v-33.016h-9.0312v32.719q0 7.8594-2.7969 11.656-2.7812 3.8125-8.4844 3.8125-6.9844 0-11.047-4.6406-4.0469-4.625-4.0469-12.641v-30.906h-9.0312v32.719q0 7.9062-2.7812 11.688t-8.5938 3.7812q-6.8906 0-10.953-4.6562-4.0469-4.6562-4.0469-12.625v-30.906h-9.0312v54.688h9.0312v-8.5q3.0781 5.0312 7.375 7.4219t10.203 2.3906q5.9688 0 10.141-3.0312 4.1719-3.0156 6.1719-8.7812z"/>
<path id="g" d="m9.4219 54.688h8.9844v-54.688h-8.9844zm0 21.297h8.9844v-11.391h-8.9844z"/>
<path id="j" d="m54.891 33.016v-33.016h-8.9844v32.719q0 7.7656-3.0312 11.609-3.0312 3.8594-9.0781 3.8594-7.2812 0-11.484-4.6406-4.2031-4.625-4.2031-12.641v-30.906h-9.0312v54.688h9.0312v-8.5q3.2344 4.9375 7.5938 7.375 4.375 2.4375 10.094 2.4375 9.4219 0 14.25-5.8281 4.8438-5.8281 4.8438-17.156z"/>
<path id="f" d="m34.281 27.484q-10.891 0-15.094-2.4844t-4.2031-8.5q0-4.7812 3.1562-7.5938 3.1562-2.7969 8.5625-2.7969 7.4844 0 12 5.2969t4.5156 14.078v2zm17.922 3.7188v-31.203h-8.9844v8.2969q-3.0781-4.9688-7.6719-7.3438t-11.234-2.375q-8.3906 0-13.359 4.7188-4.9531 4.7188-4.9531 12.625 0 9.2188 6.1719 13.906 6.1875 4.6875 18.438 4.6875h12.609v0.89062q0 6.2031-4.0781 9.5938t-11.453 3.3906q-4.6875 0-9.1406-1.125-4.4375-1.125-8.5312-3.375v8.3125q4.9219 1.9062 9.5625 2.8438 4.6406 0.95312 9.0312 0.95312 11.875 0 17.734-6.1562 5.8594-6.1406 5.8594-18.641z"/>
<path id="h" d="m9.4219 75.984h8.9844v-75.984h-8.9844z"/>
</defs>
<g transform="translate(73.97 766.91) rotate(90) scale(.08 -.08)">
<use xlink:href="#l"/>
<use x="60.818359" xlink:href="#d"/>
<use x="122.341797" xlink:href="#i"/>
<use x="163.439453" xlink:href="#k"/>
<use x="260.851562" xlink:href="#g"/>
<use x="288.634766" xlink:href="#j"/>
<use x="352.013672" xlink:href="#f"/>
<use x="413.292969" xlink:href="#h"/>
</g>
</g>
<path d="m258.98 396.58 2.0986-5.7915q0.81764-2.2564-1.4388-3.0741l-7.2793-2.6377q-2.2564-0.81764-3.0741 1.4388l-2.0986 5.7915q-0.81764 2.2564 1.4388 3.0741l7.2793 2.6377q2.2564 0.81764 3.0741-1.4388z" clip-path="url(#a)" fill="#fff" stroke="#fff"/>
<g clip-path="url(#a)">
<defs>
<path id="av" d="m19.672 64.797v-56.688h11.922q15.094 0 22.094 6.8281 7 6.8438 7 21.594 0 14.641-7 21.453t-22.094 6.8125zm-9.8594 8.1094h20.266q21.188 0 31.094-8.8125 9.9219-8.8125 9.9219-27.562 0-18.859-9.9688-27.703-9.9531-8.8281-31.047-8.8281h-20.266z"/>
</defs>
<g transform="translate(255.15 395.2) rotate(-70.082) scale(.08 -.08)">
<use xlink:href="#av"/>
</g>
</g>
<path d="m307.5 449.72 0.6793-5.4302q0.29791-2.3814-2.0835-2.6794l-7.6826-0.96108q-2.3814-0.29791-2.6794 2.0835l-0.6793 5.4302q-0.29791 2.3814 2.0835 2.6794l7.6826 0.96108q2.3814 0.29791 2.6794-2.0835z" clip-path="url(#a)" fill="#fff" stroke="#fff"/>
<g clip-path="url(#a)">
<defs>
<path id="t" d="m34.188 63.188-13.391-36.281h26.812zm-5.5781 9.7188h11.188l27.781-72.906h-10.25l-6.6406 18.703h-32.859l-6.6406-18.703h-10.406z"/>
</defs>
<g transform="translate(303.47 449.21) rotate(-82.869) scale(.08 -.08)">
<use xlink:href="#t"/>
</g>
</g>
<path d="m331.53 448.78 0.19028-4.5973q0.099249-2.3979-2.2987-2.4972l-7.7359-0.32018q-2.3979-0.099249-2.4972 2.2987l-0.19028 4.5973q-0.099249 2.3979 2.2987 2.4972l7.7359 0.32018q2.3979 0.09925 2.4972-2.2987z" clip-path="url(#a)" fill="#fff" stroke="#fff"/>
<g clip-path="url(#a)">
<defs>
<path id="au" d="m9.8125 72.906h41.891v-8.3125h-32.031v-21.484h28.906v-8.2969h-28.906v-34.812h-9.8594z"/>
</defs>
<g transform="translate(327.47 448.61) rotate(-87.63) scale(.08 -.08)">
<use xlink:href="#au"/>
</g>
</g>
<path d="m342.74 444.08 0.20396 4.8194q0.10148 2.3979 2.4993 2.2964l7.7356-0.32736q2.3979-0.10148 2.2964-2.4993l-0.20396-4.8194q-0.10148-2.3979-2.4993-2.2964l-7.7356 0.32736q-2.3979 0.10148-2.2964 2.4993z" clip-path="url(#a)" fill="#fff" stroke="#fff"/>
<g clip-path="url(#a)">
<defs>
<path id="al" d="m19.672 64.797v-27.391h12.406q6.8906 0 10.641 3.5625 3.7656 3.5625 3.7656 10.156 0 6.5469-3.7656 10.109-3.75 3.5625-10.641 3.5625zm-9.8594 8.1094h22.266q12.266 0 18.531-5.5469 6.2812-5.5469 6.2812-16.234 0-10.797-6.2812-16.312-6.2656-5.5156-18.531-5.5156h-12.406v-29.297h-9.8594z"/>
</defs>
<g transform="translate(346.8 443.91) rotate(87.577) scale(.08 -.08)">
<use xlink:href="#al"/>
</g>
</g>
<path d="m450.04 226.21 4.8921 2.4527q2.1454 1.0757 3.2211-1.0698l3.4701-6.9213q1.0757-2.1454-1.0698-3.2211l-4.8921-2.4527q-2.1454-1.0757-3.2211 1.0698l-3.4701 6.9213q-1.0757 2.1454 1.0698 3.2211z" clip-path="url(#a)" fill="#fff" stroke="#fff"/>
<g clip-path="url(#a)">
<g transform="translate(451.86 222.57) rotate(26.628) scale(.08 -.08)">
<use xlink:href="#t"/>
</g>
</g>
<path d="m972.2 766.91v35.285q0 2.4 2.4 2.4h7.7425q2.4 0 2.4-2.4v-35.285q0-2.4-2.4-2.4h-7.7425q-2.4 0-2.4 2.4z" clip-path="url(#a)" fill="#fff" stroke="#fff"/>
<g clip-path="url(#a)">
<g transform="translate(976.26 766.91) rotate(90) scale(.08 -.08)">
<use xlink:href="#l"/>
<use x="60.818359" xlink:href="#d"/>
<use x="122.341797" xlink:href="#i"/>
<use x="163.439453" xlink:href="#k"/>
<use x="260.851562" xlink:href="#g"/>
<use x="288.634766" xlink:href="#j"/>
<use x="352.013672" xlink:href="#f"/>
<use x="413.292969" xlink:href="#h"/>
</g>
</g>
<path d="m1167.8 514.68 3.4582-4.2413q1.5166-1.8601-0.34343-3.3767l-6.0006-4.8927q-1.8601-1.5166-3.3767 0.34343l-3.4582 4.2413q-1.5166 1.8601 0.34343 3.3767l6.0006 4.8927q1.8601 1.5166 3.3767-0.34343z" clip-path="url(#a)" fill="#fff" stroke="#fff"/>
<g clip-path="url(#a)">
<g transform="translate(1164.7 512.11) rotate(-50.807) scale(.08 -.08)">
<use xlink:href="#t"/>
</g>
</g>
<path d="m1217.7 567.2 1.2259-4.6654q0.60993-2.3212-1.7113-2.9311l-7.4883-1.9677q-2.3212-0.60993-2.9311 1.7113l-1.2259 4.6654q-0.60993 2.3212 1.7113 2.9311l7.4883 1.9677q2.3212 0.60993 2.9311-1.7113z" clip-path="url(#a)" fill="#fff" stroke="#fff"/>
<g clip-path="url(#a)">
<g transform="translate(1213.7 566.16) rotate(-75.277) scale(.08 -.08)">
<use xlink:href="#al"/>
</g>
</g>
<path d="m1253.3 506.07 0.18129 5.4695q0.079505 2.3987 2.4782 2.3192l7.7383-0.25648q2.3987-0.079504 2.3192-2.4782l-0.18129-5.4695q-0.079504-2.3987-2.4782-2.3192l-7.7382 0.25648q-2.3987 0.079504-2.3192 2.4782z" clip-path="url(#a)" fill="#fff" stroke="#fff"/>
<g clip-path="url(#a)">
<g transform="translate(1257.4 505.94) rotate(88.102) scale(.08 -.08)">
<use xlink:href="#t"/>
</g>
</g>
<path d="m1382.3 457.84 5.027 2.1626q2.2046 0.94844 3.1531-1.2562l3.0597-7.1123q0.94844-2.2046-1.2562-3.1531l-5.027-2.1626q-2.2046-0.94844-3.1531 1.2562l-3.0597 7.1123q-0.94844 2.2046 1.2562 3.1531z" clip-path="url(#a)" fill="#fff" stroke="#fff"/>
<g clip-path="url(#a)">
<g transform="translate(1383.9 454.11) rotate(23.277) scale(.08 -.08)">
<use xlink:href="#t"/>
</g>
</g>
<path d="m1054.4 680.02 2.0137-4.6366q0.95605-2.2014-1.2453-3.1574l-7.1017-3.0842q-2.2014-0.95605-3.1574 1.2453l-2.0137 4.6366q-0.95605 2.2014 1.2453 3.1574l7.1017 3.0842q2.2014 0.95605 3.1574-1.2453z" clip-path="url(#a)" fill="#fff" stroke="#fff"/>
<g clip-path="url(#a)">
<defs>
<path id="p" d="m9.8125 72.906h46.094v-8.3125h-36.234v-21.578h34.719v-8.2969h-34.719v-26.422h37.109v-8.2969h-46.969z"/>
</defs>
<g transform="translate(1050.7 678.4) rotate(-66.525) scale(.08 -.08)">
<use xlink:href="#p"/>
</g>
</g>
<path d="m1067.2 672.68v5.055q0 2.4 2.4 2.4h7.7425q2.4 0 2.4-2.4v-5.055q0-2.4-2.4-2.4h-7.7425q-2.4 0-2.4 2.4z" clip-path="url(#a)" fill="#fff" stroke="#fff"/>
<g clip-path="url(#a)">
<g transform="translate(1071.2 672.68) rotate(90) scale(.08 -.08)">
<use xlink:href="#p"/>
</g>
</g>
<path d="m1090.3 675.14 2.2253 5.1239q0.95605 2.2014 3.1574 1.2453l7.1017-3.0842q2.2014-0.95605 1.2453-3.1574l-2.2253-5.1239q-0.95605-2.2014-3.1574-1.2453l-7.1017 3.0842q-2.2014 0.95605-1.2453 3.1574z" clip-path="url(#a)" fill="#fff" stroke="#fff"/>
<g clip-path="url(#a)">
<defs>
<path id="q" d="m64.406 67.281v-10.391q-4.9844 4.6406-10.625 6.9219-5.6406 2.2969-11.984 2.2969-12.5 0-19.141-7.6406t-6.6406-22.094q0-14.406 6.6406-22.047t19.141-7.6406q6.3438 0 11.984 2.2969t10.625 6.9375v-10.312q-5.1719-3.5156-10.969-5.2812-5.7812-1.75-12.219-1.75-16.562 0-26.094 10.125-9.5156 10.141-9.5156 27.672 0 17.578 9.5156 27.703 9.5312 10.141 26.094 10.141 6.5312 0 12.312-1.7344 5.7969-1.7344 10.875-5.2031z"/>
</defs>
<g transform="translate(1094.1 673.52) rotate(66.525) scale(.08 -.08)">
<use xlink:href="#q"/>
</g>
</g>
<path d="m1162.2 766.91v35.285q0 2.4 2.4 2.4h7.7425q2.4 0 2.4-2.4v-35.285q0-2.4-2.4-2.4h-7.7425q-2.4 0-2.4 2.4z" clip-path="url(#a)" fill="#fff" stroke="#fff"/>
<g clip-path="url(#a)">
<g transform="translate(1166.2 766.91) rotate(90) scale(.08 -.08)">
<use xlink:href="#l"/>
<use x="60.818359" xlink:href="#d"/>
<use x="122.341797" xlink:href="#i"/>
<use x="163.439453" xlink:href="#k"/>
<use x="260.851562" xlink:href="#g"/>
<use x="288.634766" xlink:href="#j"/>
<use x="352.013672" xlink:href="#f"/>
<use x="413.292969" xlink:href="#h"/>
</g>
</g>
<path d="m1244.4 680.02 2.0137-4.6366q0.95605-2.2014-1.2453-3.1574l-7.1017-3.0842q-2.2014-0.95605-3.1574 1.2453l-2.0137 4.6366q-0.95605 2.2014 1.2453 3.1574l7.1017 3.0842q2.2014 0.95605 3.1574-1.2453z" clip-path="url(#a)" fill="#fff" stroke="#fff"/>
<g clip-path="url(#a)">
<g transform="translate(1240.7 678.4) rotate(-66.525) scale(.08 -.08)">
<use xlink:href="#p"/>
</g>
</g>
<path d="m1257.1 672.41v5.5862q0 2.4 2.4 2.4h7.7425q2.4 0 2.4-2.4v-5.5862q0-2.4-2.4-2.4h-7.7425q-2.4 0-2.4 2.4z" clip-path="url(#a)" fill="#fff" stroke="#fff"/>
<g clip-path="url(#a)">
<g transform="translate(1261.2 672.41) rotate(90) scale(.08 -.08)">
<use xlink:href="#q"/>
</g>
</g>
<path d="m1280.4 675.39 2.0137 4.6366q0.95605 2.2014 3.1574 1.2453l7.1017-3.0842q2.2014-0.95605 1.2453-3.1574l-2.0137-4.6366q-0.95605-2.2014-3.1574-1.2453l-7.1017 3.0842q-2.2014 0.95605-1.2453 3.1574z" clip-path="url(#a)" fill="#fff" stroke="#fff"/>
<g clip-path="url(#a)">
<g transform="translate(1284.1 673.77) rotate(66.525) scale(.08 -.08)">
<use xlink:href="#p"/>
</g>
</g>
<path d="m1477.4 571 3.1654-3.9413q1.5028-1.8712-0.36837-3.3741l-6.0366-4.8482q-1.8712-1.5028-3.3741 0.36837l-3.1654 3.9413q-1.5028 1.8712 0.36837 3.3741l6.0366 4.8482q1.8712 1.5028 3.3741-0.36837z" clip-path="url(#a)" fill="#fff" stroke="#fff"/>
<g clip-path="url(#a)">
<g transform="translate(1474.3 568.45) rotate(-51.231) scale(.08 -.08)">
<use xlink:href="#p"/>
</g>
</g>
<path d="m1526.9 617.84 0.74617 5.5362q0.32058 2.3785 2.6991 2.0579l7.6731-1.0342q2.3785-0.32058 2.0579-2.6991l-0.74617-5.5362q-0.32058-2.3785-2.6991-2.0579l-7.6731 1.0342q-2.3785 0.32058-2.0579 2.6991z" clip-path="url(#a)" fill="#fff" stroke="#fff"/>
<g clip-path="url(#a)">
<g transform="translate(1530.9 617.3) rotate(82.324) scale(.08 -.08)">
<use xlink:href="#q"/>
</g>
</g>
<path d="m1515.8 622.8 0.40746-5.0386q0.19345-2.3922-2.1987-2.5856l-7.7173-0.62409q-2.3922-0.19345-2.5856 2.1987l-0.40746 5.0386q-0.19345 2.3922 2.1987 2.5856l7.7173 0.62409q2.3922 0.19345 2.5856-2.1987z" clip-path="url(#a)" fill="#fff" stroke="#fff"/>
<g clip-path="url(#a)">
<g transform="translate(1511.7 622.47) rotate(-85.377) scale(.08 -.08)">
<use xlink:href="#p"/>
</g>
</g>
<path d="m1550.4 619.08 1.9363 5.5255q0.79371 2.265 3.0587 1.4712l7.3068-2.5605q2.265-0.79371 1.4712-3.0587l-1.9363-5.5255q-0.79371-2.265-3.0587-1.4712l-7.3068 2.5605q-2.265 0.79371-1.4712 3.0587z" clip-path="url(#a)" fill="#fff" stroke="#fff"/>
<g clip-path="url(#a)">
<g transform="translate(1554.2 617.74) rotate(70.688) scale(.08 -.08)">
<use xlink:href="#y"/>
</g>
</g>
<path d="m1397.7 680.96 3.0342-4.6576q1.31-2.0109-0.70092-3.321l-6.4874-4.2262q-2.0109-1.31-3.321 0.70092l-3.0342 4.6576q-1.31 2.0109 0.70092 3.321l6.4874 4.2262q2.0109 1.31 3.321-0.70091z" clip-path="url(#a)" fill="#fff" stroke="#fff"/>
<g clip-path="url(#a)">
<defs>
<path id="z" d="m44.391 34.188q3.1719-1.0781 6.1719-4.5938t6.0312-9.6719l10.016-19.922h-10.609l-9.3125 18.703q-3.625 7.3281-7.0156 9.7188t-9.25 2.3906h-10.75v-30.812h-9.8594v72.906h22.266q12.5 0 18.656-5.2344 6.1562-5.2188 6.1562-15.766 0-6.8906-3.2031-11.438-3.2031-4.5312-9.2969-6.2812zm-24.719 30.609v-25.875h12.406q7.125 0 10.766 3.2969t3.6406 9.6875-3.6406 9.6406-10.766 3.25z"/>
</defs>
<g transform="translate(1394.3 678.74) rotate(-56.918) scale(.08 -.08)">
<use xlink:href="#z"/>
</g>
</g>
<path d="m1434.8 673.81 1.1854 5.459q0.50929 2.3453 2.8546 1.8361l7.5662-1.643q2.3453-0.50929 1.8361-2.8546l-1.1854-5.459q-0.50929-2.3453-2.8546-1.8361l-7.5662 1.643q-2.3453 0.50929-1.8361 2.8546z" clip-path="url(#a)" fill="#fff" stroke="#fff"/>
<g clip-path="url(#a)">
<g transform="translate(1438.7 672.94) rotate(77.748) scale(.08 -.08)">
<use xlink:href="#q"/>
</g>
</g>
<path d="m1458.5 676.3 3.0342 4.6576q1.31 2.0109 3.321 0.70091l6.4874-4.2262q2.0109-1.31 0.70092-3.321l-3.0342-4.6576q-1.31-2.0109-3.321-0.70092l-6.4874 4.2262q-2.0109 1.31-0.70092 3.321z" clip-path="url(#a)" fill="#fff" stroke="#fff"/>
<g clip-path="url(#a)">
<g transform="translate(1461.9 674.08) rotate(56.918) scale(.08 -.08)">
<use xlink:href="#z"/>
</g>
</g>
<path d="m1423.2 679.4 1.2425-5.7217q0.50929-2.3453-1.8361-2.8546l-7.5662-1.643q-2.3453-0.50929-2.8546 1.8361l-1.2425 5.7217q-0.50929 2.3453 1.8361 2.8546l7.5662 1.643q2.3453 0.50929 2.8546-1.8361z" clip-path="url(#a)" fill="#fff" stroke="#fff"/>
<g clip-path="url(#a)">
<g transform="translate(1419.3 678.54) rotate(-77.748) scale(.08 -.08)">
<use xlink:href="#y"/>
</g>
</g>
<path d="m1542.1 766.91v35.285q0 2.4 2.4 2.4h7.7425q2.4 0 2.4-2.4v-35.285q0-2.4-2.4-2.4h-7.7425q-2.4 0-2.4 2.4z" clip-path="url(#a)" fill="#fff" stroke="#fff"/>
<g clip-path="url(#a)">
<g transform="translate(1546.1 766.91) rotate(90) scale(.08 -.08)">
<use xlink:href="#l"/>
<use x="60.818359" xlink:href="#d"/>
<use x="122.341797" xlink:href="#i"/>
<use x="163.439453" xlink:href="#k"/>
<use x="260.851562" xlink:href="#g"/>
<use x="288.634766" xlink:href="#j"/>
<use x="352.013672" xlink:href="#f"/>
<use x="413.292969" xlink:href="#h"/>
</g>
</g>
<path d="m1352.1 766.91v35.285q0 2.4 2.4 2.4h7.7425q2.4 0 2.4-2.4v-35.285q0-2.4-2.4-2.4h-7.7425q-2.4 0-2.4 2.4z" clip-path="url(#a)" fill="#fff" stroke="#fff"/>
<g clip-path="url(#a)">
<g transform="translate(1356.2 766.91) rotate(90) scale(.08 -.08)">
<use xlink:href="#l"/>
<use x="60.818359" xlink:href="#d"/>
<use x="122.341797" xlink:href="#i"/>
<use x="163.439453" xlink:href="#k"/>
<use x="260.851562" xlink:href="#g"/>
<use x="288.634766" xlink:href="#j"/>
<use x="352.013672" xlink:href="#f"/>
<use x="413.292969" xlink:href="#h"/>
</g>
</g>
<path d="m1447.1 766.91v35.285q0 2.4 2.4 2.4h7.7425q2.4 0 2.4-2.4v-35.285q0-2.4-2.4-2.4h-7.7425q-2.4 0-2.4 2.4z" clip-path="url(#a)" fill="#fff" stroke="#fff"/>
<g clip-path="url(#a)">
<g transform="translate(1451.1 766.91) rotate(90) scale(.08 -.08)">
<use xlink:href="#l"/>
<use x="60.818359" xlink:href="#d"/>
<use x="122.341797" xlink:href="#i"/>
<use x="163.439453" xlink:href="#k"/>
<use x="260.851562" xlink:href="#g"/>
<use x="288.634766" xlink:href="#j"/>
<use x="352.013672" xlink:href="#f"/>
<use x="413.292969" xlink:href="#h"/>
</g>
</g>
<path d="m1494.6 766.91v35.285q0 2.4 2.4 2.4h7.7425q2.4 0 2.4-2.4v-35.285q0-2.4-2.4-2.4h-7.7425q-2.4 0-2.4 2.4z" clip-path="url(#a)" fill="#fff" stroke="#fff"/>
<g clip-path="url(#a)">
<g transform="translate(1498.6 766.91) rotate(90) scale(.08 -.08)">
<use xlink:href="#l"/>
<use x="60.818359" xlink:href="#d"/>
<use x="122.341797" xlink:href="#i"/>
<use x="163.439453" xlink:href="#k"/>
<use x="260.851562" xlink:href="#g"/>
<use x="288.634766" xlink:href="#j"/>
<use x="352.013672" xlink:href="#f"/>
<use x="413.292969" xlink:href="#h"/>
</g>
</g>
<path d="m1209.6 766.91v35.285q0 2.4 2.4 2.4h7.7425q2.4 0 2.4-2.4v-35.285q0-2.4-2.4-2.4h-7.7425q-2.4 0-2.4 2.4z" clip-path="url(#a)" fill="#fff" stroke="#fff"/>
<g clip-path="url(#a)">
<g transform="translate(1213.7 766.91) rotate(90) scale(.08 -.08)">
<use xlink:href="#l"/>
<use x="60.818359" xlink:href="#d"/>
<use x="122.341797" xlink:href="#i"/>
<use x="163.439453" xlink:href="#k"/>
<use x="260.851562" xlink:href="#g"/>
<use x="288.634766" xlink:href="#j"/>
<use x="352.013672" xlink:href="#f"/>
<use x="413.292969" xlink:href="#h"/>
</g>
</g>
<path d="m1257.1 766.91v35.285q0 2.4 2.4 2.4h7.7425q2.4 0 2.4-2.4v-35.285q0-2.4-2.4-2.4h-7.7425q-2.4 0-2.4 2.4z" clip-path="url(#a)" fill="#fff" stroke="#fff"/>
<g clip-path="url(#a)">
<g transform="translate(1261.2 766.91) rotate(90) scale(.08 -.08)">
<use xlink:href="#l"/>
<use x="60.818359" xlink:href="#d"/>
<use x="122.341797" xlink:href="#i"/>
<use x="163.439453" xlink:href="#k"/>
<use x="260.851562" xlink:href="#g"/>
<use x="288.634766" xlink:href="#j"/>
<use x="352.013672" xlink:href="#f"/>
<use x="413.292969" xlink:href="#h"/>
</g>
</g>
<path d="m1304.6 766.91v35.285q0 2.4 2.4 2.4h7.7425q2.4 0 2.4-2.4v-35.285q0-2.4-2.4-2.4h-7.7425q-2.4 0-2.4 2.4z" clip-path="url(#a)" fill="#fff" stroke="#fff"/>
<g clip-path="url(#a)">
<g transform="translate(1308.7 766.91) rotate(90) scale(.08 -.08)">
<use xlink:href="#l"/>
<use x="60.818359" xlink:href="#d"/>
<use x="122.341797" xlink:href="#i"/>
<use x="163.439453" xlink:href="#k"/>
<use x="260.851562" xlink:href="#g"/>
<use x="288.634766" xlink:href="#j"/>
<use x="352.013672" xlink:href="#f"/>
<use x="413.292969" xlink:href="#h"/>
</g>
</g>
<path d="m1019.7 766.91v35.285q0 2.4 2.4 2.4h7.7425q2.4 0 2.4-2.4v-35.285q0-2.4-2.4-2.4h-7.7425q-2.4 0-2.4 2.4z" clip-path="url(#a)" fill="#fff" stroke="#fff"/>
<g clip-path="url(#a)">
<g transform="translate(1023.7 766.91) rotate(90) scale(.08 -.08)">
<use xlink:href="#l"/>
<use x="60.818359" xlink:href="#d"/>
<use x="122.341797" xlink:href="#i"/>
<use x="163.439453" xlink:href="#k"/>
<use x="260.851562" xlink:href="#g"/>
<use x="288.634766" xlink:href="#j"/>
<use x="352.013672" xlink:href="#f"/>
<use x="413.292969" xlink:href="#h"/>
</g>
</g>
<path d="m1067.2 766.91v35.285q0 2.4 2.4 2.4h7.7425q2.4 0 2.4-2.4v-35.285q0-2.4-2.4-2.4h-7.7425q-2.4 0-2.4 2.4z" clip-path="url(#a)" fill="#fff" stroke="#fff"/>
<g clip-path="url(#a)">
<g transform="translate(1071.2 766.91) rotate(90) scale(.08 -.08)">
<use xlink:href="#l"/>
<use x="60.818359" xlink:href="#d"/>
<use x="122.341797" xlink:href="#i"/>
<use x="163.439453" xlink:href="#k"/>
<use x="260.851562" xlink:href="#g"/>
<use x="288.634766" xlink:href="#j"/>
<use x="352.013672" xlink:href="#f"/>
<use x="413.292969" xlink:href="#h"/>
</g>
</g>
<path d="m1114.7 766.91v35.285q0 2.4 2.4 2.4h7.7425q2.4 0 2.4-2.4v-35.285q0-2.4-2.4-2.4h-7.7425q-2.4 0-2.4 2.4z" clip-path="url(#a)" fill="#fff" stroke="#fff"/>
<g clip-path="url(#a)">
<g transform="translate(1118.7 766.91) rotate(90) scale(.08 -.08)">
<use xlink:href="#l"/>
<use x="60.818359" xlink:href="#d"/>
<use x="122.341797" xlink:href="#i"/>
<use x="163.439453" xlink:href="#k"/>
<use x="260.851562" xlink:href="#g"/>
<use x="288.634766" xlink:href="#j"/>
<use x="352.013672" xlink:href="#f"/>
<use x="413.292969" xlink:href="#h"/>
</g>
</g>
<path d="m152.16 680.02 2.0137-4.6366q0.95605-2.2014-1.2453-3.1574l-7.1017-3.0842q-2.2014-0.95605-3.1574 1.2453l-2.0137 4.6366q-0.95605 2.2014 1.2453 3.1574l7.1017 3.0842q2.2014 0.95605 3.1574-1.2453z" clip-path="url(#a)" fill="#fff" stroke="#fff"/>
<g clip-path="url(#a)">
<g transform="translate(148.43 678.4) rotate(-66.525) scale(.08 -.08)">
<use xlink:href="#p"/>
</g>
</g>
<path d="m164.88 672.68v5.055q0 2.4 2.4 2.4h7.7425q2.4 0 2.4-2.4v-5.055q0-2.4-2.4-2.4h-7.7425q-2.4 0-2.4 2.4z" clip-path="url(#a)" fill="#fff" stroke="#fff"/>
<g clip-path="url(#a)">
<g transform="translate(168.95 672.68) rotate(90) scale(.08 -.08)">
<use xlink:href="#p"/>
</g>
</g>
<path d="m188.03 675.14 2.2253 5.1239q0.95605 2.2014 3.1574 1.2453l7.1017-3.0842q2.2014-0.95605 1.2453-3.1574l-2.2253-5.1239q-0.95605-2.2014-3.1574-1.2453l-7.1017 3.0842q-2.2014 0.95605-1.2453 3.1574z" clip-path="url(#a)" fill="#fff" stroke="#fff"/>
<g clip-path="url(#a)">
<g transform="translate(191.76 673.52) rotate(66.525) scale(.08 -.08)">
<use xlink:href="#q"/>
</g>
</g>
<path d="m259.86 766.91v35.285q0 2.4 2.4 2.4h7.7425q2.4 0 2.4-2.4v-35.285q0-2.4-2.4-2.4h-7.7425q-2.4 0-2.4 2.4z" clip-path="url(#a)" fill="#fff" stroke="#fff"/>
<g clip-path="url(#a)">
<g transform="translate(263.93 766.91) rotate(90) scale(.08 -.08)">
<use xlink:href="#l"/>
<use x="60.818359" xlink:href="#d"/>
<use x="122.341797" xlink:href="#i"/>
<use x="163.439453" xlink:href="#k"/>
<use x="260.851562" xlink:href="#g"/>
<use x="288.634766" xlink:href="#j"/>
<use x="352.013672" xlink:href="#f"/>
<use x="413.292969" xlink:href="#h"/>
</g>
</g>
<path d="m307.35 766.91v35.285q0 2.4 2.4 2.4h7.7425q2.4 0 2.4-2.4v-35.285q0-2.4-2.4-2.4h-7.7425q-2.4 0-2.4 2.4z" clip-path="url(#a)" fill="#fff" stroke="#fff"/>
<g clip-path="url(#a)">
<g transform="translate(311.41 766.91) rotate(90) scale(.08 -.08)">
<use xlink:href="#l"/>
<use x="60.818359" xlink:href="#d"/>
<use x="122.341797" xlink:href="#i"/>
<use x="163.439453" xlink:href="#k"/>
<use x="260.851562" xlink:href="#g"/>
<use x="288.634766" xlink:href="#j"/>
<use x="352.013672" xlink:href="#f"/>
<use x="413.292969" xlink:href="#h"/>
</g>
</g>
<path d="m354.84 766.91v35.285q0 2.4 2.4 2.4h7.7425q2.4 0 2.4-2.4v-35.285q0-2.4-2.4-2.4h-7.7425q-2.4 0-2.4 2.4z" clip-path="url(#a)" fill="#fff" stroke="#fff"/>
<g clip-path="url(#a)">
<g transform="translate(358.9 766.91) rotate(90) scale(.08 -.08)">
<use xlink:href="#l"/>
<use x="60.818359" xlink:href="#d"/>
<use x="122.341797" xlink:href="#i"/>
<use x="163.439453" xlink:href="#k"/>
<use x="260.851562" xlink:href="#g"/>
<use x="288.634766" xlink:href="#j"/>
<use x="352.013672" xlink:href="#f"/>
<use x="413.292969" xlink:href="#h"/>
</g>
</g>
<path d="m507.73 455.56 1.95-4.6895q0.92147-2.2161-1.2946-3.1375l-7.1491-2.9727q-2.2161-0.92147-3.1375 1.2946l-1.95 4.6895q-0.92147 2.2161 1.2946 3.1375l7.1491 2.9727q2.2161 0.92147 3.1375-1.2946z" clip-path="url(#a)" fill="#fff" stroke="#fff"/>
<g clip-path="url(#a)">
<defs>
<path id="at" d="m53.516 70.516v-9.625q-5.6094 2.6875-10.594 4-4.9844 1.3281-9.625 1.3281-8.0469 0-12.422-3.125t-4.375-8.8906q0-4.8438 2.9062-7.3125 2.9062-2.4531 11.016-3.9688l5.9531-1.2188q11.031-2.1094 16.281-7.4062t5.25-14.172q0-10.609-7.1094-16.078-7.0938-5.4688-20.812-5.4688-5.1719 0-11.016 1.1719-5.8281 1.1719-12.078 3.4688v10.156q6-3.3594 11.766-5.0781 5.7656-1.7031 11.328-1.7031 8.4375 0 13.031 3.3125 4.5938 3.3281 4.5938 9.4844 0 5.3594-3.2969 8.3906t-10.812 4.5469l-6.0156 1.1719q-11.031 2.1875-15.969 6.875-4.9219 4.6875-4.9219 13.047 0 9.6719 6.8125 15.234t18.766 5.5625q5.1406 0 10.453-0.9375 5.3281-0.92188 10.891-2.7656z"/>
</defs>
<g transform="translate(503.98 454) rotate(-67.422) scale(.08 -.08)">
<use xlink:href="#at"/>
</g>
</g>
<path d="m637.98 341.99 4.2341 3.4671q1.8569 1.5205 3.3774-0.3364l4.9052-5.9904q1.5205-1.8569-0.3364-3.3774l-4.2341-3.4671q-1.8569-1.5205-3.3774 0.3364l-4.9052 5.9904q-1.5205 1.8569 0.3364 3.3774z" clip-path="url(#a)" fill="#fff" stroke="#fff"/>
<g clip-path="url(#a)">
<g transform="translate(640.55 338.85) rotate(39.312) scale(.08 -.08)">
<use xlink:href="#t"/>
</g>
</g>
<path d="m426.06 679.01 1.0727-4.9399q0.50929-2.3453-1.8361-2.8546l-7.5662-1.643q-2.3453-0.50929-2.8546 1.8361l-1.0727 4.9399q-0.50929 2.3453 1.8361 2.8546l7.5662 1.643q2.3453 0.50929 2.8546-1.8361z" clip-path="url(#a)" fill="#fff" stroke="#fff"/>
<g clip-path="url(#a)">
<g transform="translate(422.09 678.14) rotate(-77.748) scale(.08 -.08)">
<use xlink:href="#p"/>
</g>
</g>
<path d="m437.5 673.81 1.1854 5.459q0.50929 2.3453 2.8546 1.8361l7.5662-1.643q2.3453-0.50929 1.8361-2.8546l-1.1854-5.459q-0.50929-2.3453-2.8546-1.8361l-7.5662 1.643q-2.3453 0.50929-1.8361 2.8546z" clip-path="url(#a)" fill="#fff" stroke="#fff"/>
<g clip-path="url(#a)">
<g transform="translate(441.47 672.94) rotate(77.748) scale(.08 -.08)">
<use xlink:href="#q"/>
</g>
</g>
<path d="m642.36 459.84 4.4372-3.3938q1.9063-1.4581 0.44826-3.3644l-4.7038-6.1499q-1.4581-1.9063-3.3644-0.44826l-4.4372 3.3938q-1.9063 1.4581-0.44826 3.3644l4.7038 6.1499q1.4581 1.9063 3.3644 0.44826z" clip-path="url(#a)" fill="#fff" stroke="#fff"/>
<g clip-path="url(#a)">
<g transform="translate(639.89 456.61) rotate(-37.411) scale(.08 -.08)">
<use xlink:href="#q"/>
</g>
</g>
<path d="m768.48 509.13 2.6623 4.911q1.1438 2.1099 3.2537 0.96612l6.8067-3.6899q2.1099-1.1438 0.96612-3.2537l-2.6623-4.911q-1.1438-2.1099-3.2537-0.96612l-6.8067 3.6899q-2.1099 1.1438-0.96612 3.2537z" clip-path="url(#a)" fill="#fff" stroke="#fff"/>
<g clip-path="url(#a)">
<g transform="translate(772.05 507.19) rotate(61.538) scale(.08 -.08)">
<use xlink:href="#q"/>
</g>
</g>
<path d="m721.35 560.85 0.46213 5.8367q0.18943 2.3925 2.5819 2.2031l7.7183-0.61111q2.3925-0.18943 2.2031-2.5819l-0.46213-5.8367q-0.18943-2.3925-2.5819-2.2031l-7.7183 0.61111q-2.3925 0.18943-2.2031 2.5819z" clip-path="url(#a)" fill="#fff" stroke="#fff"/>
<g clip-path="url(#a)">
<g transform="translate(725.4 560.53) rotate(85.473) scale(.08 -.08)">
<use xlink:href="#y"/>
</g>
</g>
<path d="m540.5 624.18 1.5361-5.3423q0.66321-2.3065-1.6433-2.9698l-7.441-2.1395q-2.3065-0.66321-2.9698 1.6433l-1.5361 5.3423q-0.66321 2.3065 1.6433 2.9698l7.441 2.1395q2.3065 0.66321 2.9698-1.6433z" clip-path="url(#a)" fill="#fff" stroke="#fff"/>
<g clip-path="url(#a)">
<g transform="translate(536.59 623.05) rotate(-73.958) scale(.08 -.08)">
<use xlink:href="#z"/>
</g>
</g>
<path d="m565.06 622.74 0.36243-5.042q0.17208-2.3938-2.2217-2.5659l-7.7226-0.55512q-2.3938-0.17208-2.5659 2.2217l-0.36243 5.042q-0.17208 2.3938 2.2217 2.5659l7.7226 0.55512q2.3938 0.17208 2.5659-2.2217z" clip-path="url(#a)" fill="#fff" stroke="#fff"/>
<g clip-path="url(#a)">
<g transform="translate(561 622.45) rotate(-85.888) scale(.08 -.08)">
<use xlink:href="#p"/>
</g>
</g>
<path d="m599.74 566.47 3.2458 4.5465q1.3945 1.9533 3.3478 0.55884l6.3015-4.4986q1.9533-1.3945 0.55884-3.3478l-3.2458-4.5465q-1.3945-1.9533-3.3478-0.55884l-6.3015 4.4986q-1.9533 1.3945-0.55884 3.3478z" clip-path="url(#a)" fill="#fff" stroke="#fff"/>
<g clip-path="url(#a)">
<g transform="translate(603.05 564.11) rotate(54.477) scale(.08 -.08)">
<use xlink:href="#q"/>
</g>
</g>
<path d="m816.9 680.25 2.2143-5.0987q0.95605-2.2014-1.2453-3.1574l-7.1017-3.0842q-2.2014-0.95605-3.1574 1.2453l-2.2143 5.0987q-0.95605 2.2014 1.2453 3.1574l7.1017 3.0842q2.2014 0.95605 3.1574-1.2453z" clip-path="url(#a)" fill="#fff" stroke="#fff"/>
<g clip-path="url(#a)">
<g transform="translate(813.17 678.63) rotate(-66.525) scale(.08 -.08)">
<use xlink:href="#z"/>
</g>
</g>
<path d="m829.73 672.68v5.055q0 2.4 2.4 2.4h7.7425q2.4 0 2.4-2.4v-5.055q0-2.4-2.4-2.4h-7.7425q-2.4 0-2.4 2.4z" clip-path="url(#a)" fill="#fff" stroke="#fff"/>
<g clip-path="url(#a)">
<g transform="translate(833.79 672.68) rotate(90) scale(.08 -.08)">
<use xlink:href="#p"/>
</g>
</g>
<path d="m852.88 675.14 2.2253 5.1239q0.95605 2.2014 3.1574 1.2453l7.1017-3.0842q2.2014-0.95605 1.2453-3.1574l-2.2253-5.1239q-0.95605-2.2014-3.1574-1.2453l-7.1017 3.0842q-2.2014 0.95605-1.2453 3.1574z" clip-path="url(#a)" fill="#fff" stroke="#fff"/>
<g clip-path="url(#a)">
<g transform="translate(856.61 673.52) rotate(66.525) scale(.08 -.08)">
<use xlink:href="#q"/>
</g>
</g>
<path d="m782.24 766.91v35.285q0 2.4 2.4 2.4h7.7425q2.4 0 2.4-2.4v-35.285q0-2.4-2.4-2.4h-7.7425q-2.4 0-2.4 2.4z" clip-path="url(#a)" fill="#fff" stroke="#fff"/>
<g clip-path="url(#a)">
<g transform="translate(786.3 766.91) rotate(90) scale(.08 -.08)">
<use xlink:href="#l"/>
<use x="60.818359" xlink:href="#d"/>
<use x="122.341797" xlink:href="#i"/>
<use x="163.439453" xlink:href="#k"/>
<use x="260.851562" xlink:href="#g"/>
<use x="288.634766" xlink:href="#j"/>
<use x="352.013672" xlink:href="#f"/>
<use x="413.292969" xlink:href="#h"/>
</g>
</g>
<path d="m829.73 766.91v35.285q0 2.4 2.4 2.4h7.7425q2.4 0 2.4-2.4v-35.285q0-2.4-2.4-2.4h-7.7425q-2.4 0-2.4 2.4z" clip-path="url(#a)" fill="#fff" stroke="#fff"/>
<g clip-path="url(#a)">
<g transform="translate(833.79 766.91) rotate(90) scale(.08 -.08)">
<use xlink:href="#l"/>
<use x="60.818359" xlink:href="#d"/>
<use x="122.341797" xlink:href="#i"/>
<use x="163.439453" xlink:href="#k"/>
<use x="260.851562" xlink:href="#g"/>
<use x="288.634766" xlink:href="#j"/>
<use x="352.013672" xlink:href="#f"/>
<use x="413.292969" xlink:href="#h"/>
</g>
</g>
<path d="m877.22 766.91v35.285q0 2.4 2.4 2.4h7.7425q2.4 0 2.4-2.4v-35.285q0-2.4-2.4-2.4h-7.7425q-2.4 0-2.4 2.4z" clip-path="url(#a)" fill="#fff" stroke="#fff"/>
<g clip-path="url(#a)">
<g transform="translate(881.28 766.91) rotate(90) scale(.08 -.08)">
<use xlink:href="#l"/>
<use x="60.818359" xlink:href="#d"/>
<use x="122.341797" xlink:href="#i"/>
<use x="163.439453" xlink:href="#k"/>
<use x="260.851562" xlink:href="#g"/>
<use x="288.634766" xlink:href="#j"/>
<use x="352.013672" xlink:href="#f"/>
<use x="413.292969" xlink:href="#h"/>
</g>
</g>
<path d="m497.31 766.91v35.285q0 2.4 2.4 2.4h7.7425q2.4 0 2.4-2.4v-35.285q0-2.4-2.4-2.4h-7.7425q-2.4 0-2.4 2.4z" clip-path="url(#a)" fill="#fff" stroke="#fff"/>
<g clip-path="url(#a)">
<g transform="translate(501.37 766.91) rotate(90) scale(.08 -.08)">
<use xlink:href="#l"/>
<use x="60.818359" xlink:href="#d"/>
<use x="122.341797" xlink:href="#i"/>
<use x="163.439453" xlink:href="#k"/>
<use x="260.851562" xlink:href="#g"/>
<use x="288.634766" xlink:href="#j"/>
<use x="352.013672" xlink:href="#f"/>
<use x="413.292969" xlink:href="#h"/>
</g>
</g>
<path d="m544.8 766.91v35.285q0 2.4 2.4 2.4h7.7425q2.4 0 2.4-2.4v-35.285q0-2.4-2.4-2.4h-7.7425q-2.4 0-2.4 2.4z" clip-path="url(#a)" fill="#fff" stroke="#fff"/>
<g clip-path="url(#a)">
<g transform="translate(548.86 766.91) rotate(90) scale(.08 -.08)">
<use xlink:href="#l"/>
<use x="60.818359" xlink:href="#d"/>
<use x="122.341797" xlink:href="#i"/>
<use x="163.439453" xlink:href="#k"/>
<use x="260.851562" xlink:href="#g"/>
<use x="288.634766" xlink:href="#j"/>
<use x="352.013672" xlink:href="#f"/>
<use x="413.292969" xlink:href="#h"/>
</g>
</g>
<path d="m624.68 748.45 7.4876-34.481q0.50929-2.3453-1.8361-2.8546l-7.5662-1.643q-2.3453-0.50929-2.8546 1.8361l-7.4876 34.481q-0.50929 2.3453 1.8361 2.8546l7.5662 1.643q2.3453 0.50929 2.8546-1.8361z" clip-path="url(#a)" fill="#fff" stroke="#fff"/>
<g clip-path="url(#a)">
<g transform="translate(620.71 747.59) rotate(-77.748) scale(.08 -.08)">
<use xlink:href="#l"/>
<use x="60.818359" xlink:href="#d"/>
<use x="122.341797" xlink:href="#i"/>
<use x="163.439453" xlink:href="#k"/>
<use x="260.851562" xlink:href="#g"/>
<use x="288.634766" xlink:href="#j"/>
<use x="352.013672" xlink:href="#f"/>
<use x="413.292969" xlink:href="#h"/>
</g>
</g>
<path d="m659.92 713.97 7.4876 34.481q0.50929 2.3453 2.8546 1.8361l7.5662-1.643q2.3453-0.50929 1.8361-2.8546l-7.4876-34.481q-0.50929-2.3453-2.8546-1.8361l-7.5662 1.643q-2.3453 0.50929-1.8361 2.8546z" clip-path="url(#a)" fill="#fff" stroke="#fff"/>
<g clip-path="url(#a)">
<g transform="translate(663.89 713.11) rotate(77.748) scale(.08 -.08)">
<use xlink:href="#l"/>
<use x="60.818359" xlink:href="#d"/>
<use x="122.341797" xlink:href="#i"/>
<use x="163.439453" xlink:href="#k"/>
<use x="260.851562" xlink:href="#g"/>
<use x="288.634766" xlink:href="#j"/>
<use x="352.013672" xlink:href="#f"/>
<use x="413.292969" xlink:href="#h"/>
</g>
</g>
<path d="m639.77 672.28v5.855q0 2.4 2.4 2.4h7.7425q2.4 0 2.4-2.4v-5.855q0-2.4-2.4-2.4h-7.7425q-2.4 0-2.4 2.4z" clip-path="url(#a)" fill="#fff" stroke="#fff"/>
<g clip-path="url(#a)">
<g transform="translate(643.84 672.28) rotate(90) scale(.08 -.08)">
<use xlink:href="#y"/>
</g>
</g>
<path d="m402.33 766.91v35.285q0 2.4 2.4 2.4h7.7425q2.4 0 2.4-2.4v-35.285q0-2.4-2.4-2.4h-7.7425q-2.4 0-2.4 2.4z" clip-path="url(#a)" fill="#fff" stroke="#fff"/>
<g clip-path="url(#a)">
<g transform="translate(406.39 766.91) rotate(90) scale(.08 -.08)">
<use xlink:href="#l"/>
<use x="60.818359" xlink:href="#d"/>
<use x="122.341797" xlink:href="#i"/>
<use x="163.439453" xlink:href="#k"/>
<use x="260.851562" xlink:href="#g"/>
<use x="288.634766" xlink:href="#j"/>
<use x="352.013672" xlink:href="#f"/>
<use x="413.292969" xlink:href="#h"/>
</g>
</g>
<path d="m449.82 766.91v35.285q0 2.4 2.4 2.4h7.7425q2.4 0 2.4-2.4v-35.285q0-2.4-2.4-2.4h-7.7425q-2.4 0-2.4 2.4z" clip-path="url(#a)" fill="#fff" stroke="#fff"/>
<g clip-path="url(#a)">
<g transform="translate(453.88 766.91) rotate(90) scale(.08 -.08)">
<use xlink:href="#l"/>
<use x="60.818359" xlink:href="#d"/>
<use x="122.341797" xlink:href="#i"/>
<use x="163.439453" xlink:href="#k"/>
<use x="260.851562" xlink:href="#g"/>
<use x="288.634766" xlink:href="#j"/>
<use x="352.013672" xlink:href="#f"/>
<use x="413.292969" xlink:href="#h"/>
</g>
</g>
<path d="m117.39 766.91v35.285q0 2.4 2.4 2.4h7.7425q2.4 0 2.4-2.4v-35.285q0-2.4-2.4-2.4h-7.7425q-2.4 0-2.4 2.4z" clip-path="url(#a)" fill="#fff" stroke="#fff"/>
<g clip-path="url(#a)">
<g transform="translate(121.46 766.91) rotate(90) scale(.08 -.08)">
<use xlink:href="#l"/>
<use x="60.818359" xlink:href="#d"/>
<use x="122.341797" xlink:href="#i"/>
<use x="163.439453" xlink:href="#k"/>
<use x="260.851562" xlink:href="#g"/>
<use x="288.634766" xlink:href="#j"/>
<use x="352.013672" xlink:href="#f"/>
<use x="413.292969" xlink:href="#h"/>
</g>
</g>
<path d="m164.88 766.91v35.285q0 2.4 2.4 2.4h7.7425q2.4 0 2.4-2.4v-35.285q0-2.4-2.4-2.4h-7.7425q-2.4 0-2.4 2.4z" clip-path="url(#a)" fill="#fff" stroke="#fff"/>
<g clip-path="url(#a)">
<g transform="translate(168.95 766.91) rotate(90) scale(.08 -.08)">
<use xlink:href="#l"/>
<use x="60.818359" xlink:href="#d"/>
<use x="122.341797" xlink:href="#i"/>
<use x="163.439453" xlink:href="#k"/>
<use x="260.851562" xlink:href="#g"/>
<use x="288.634766" xlink:href="#j"/>
<use x="352.013672" xlink:href="#f"/>
<use x="413.292969" xlink:href="#h"/>
</g>
</g>
<path d="m212.37 766.91v35.285q0 2.4 2.4 2.4h7.7425q2.4 0 2.4-2.4v-35.285q0-2.4-2.4-2.4h-7.7425q-2.4 0-2.4 2.4z" clip-path="url(#a)" fill="#fff" stroke="#fff"/>
<g clip-path="url(#a)">
<g transform="translate(216.44 766.91) rotate(90) scale(.08 -.08)">
<use xlink:href="#l"/>
<use x="60.818359" xlink:href="#d"/>
<use x="122.341797" xlink:href="#i"/>
<use x="163.439453" xlink:href="#k"/>
<use x="260.851562" xlink:href="#g"/>
<use x="288.634766" xlink:href="#j"/>
<use x="352.013672" xlink:href="#f"/>
<use x="413.292969" xlink:href="#h"/>
</g>
</g>
<path d="m593.74 108.91 9.6709-2.2647q2.3368-0.54723 1.7896-2.884l-1.7654-7.5386q-0.54723-2.3368-2.884-1.7896l-9.6709 2.2647q-2.3368 0.54723-1.7896 2.884l1.7654 7.5386q0.54723 2.3368 2.884 1.7896z" clip-path="url(#a)" fill="#fff" stroke="#fff"/>
<g clip-path="url(#a)">
<g transform="translate(592.81 104.95) rotate(-13.18) scale(.08 -.08)">
<use xlink:href="#aa"/>
<use x="55.744141" xlink:href="#t"/>
</g>
</g>
<path d="m910.78 381.48 1.7362 9.8646q0.41601 2.3637 2.7797 1.9477l7.6253-1.3421q2.3637-0.41601 1.9477-2.7797l-1.7362-9.8646q-0.41601-2.3637-2.7797-1.9477l-7.6253 1.3421q-2.3637 0.41601-1.9477 2.7797z" clip-path="url(#a)" fill="#fff" stroke="#fff"/>
<g clip-path="url(#a)">
<g transform="translate(914.78 380.78) rotate(80.018) scale(.08 -.08)">
<use xlink:href="#aa"/>
<use x="55.712891" xlink:href="#z"/>
</g>
</g>
<path d="m1048.7 220.09 7.4107 6.6133q1.7907 1.598 3.3886-0.19267l5.1552-5.7767q1.598-1.7907-0.19267-3.3886l-7.4107-6.6133q-1.7907-1.598-3.3886 0.19267l-5.1552 5.7767q-1.598 1.7907 0.19267 3.3886z" clip-path="url(#a)" fill="#fff" stroke="#fff"/>
<g clip-path="url(#a)">
<g transform="translate(1051.4 217.06) rotate(41.746) scale(.08 -.08)">
<use xlink:href="#aa"/>
<use x="55.744141" xlink:href="#t"/>
</g>
</g>
<path d="m639.77 766.91v35.285q0 2.4 2.4 2.4h7.7425q2.4 0 2.4-2.4v-35.285q0-2.4-2.4-2.4h-7.7425q-2.4 0-2.4 2.4z" clip-path="url(#a)" fill="#fff" stroke="#fff"/>
<g clip-path="url(#a)">
<g transform="translate(643.84 766.91) rotate(90) scale(.08 -.08)">
<use xlink:href="#l"/>
<use x="60.818359" xlink:href="#d"/>
<use x="122.341797" xlink:href="#i"/>
<use x="163.439453" xlink:href="#k"/>
<use x="260.851562" xlink:href="#g"/>
<use x="288.634766" xlink:href="#j"/>
<use x="352.013672" xlink:href="#f"/>
<use x="413.292969" xlink:href="#h"/>
</g>
</g>
<path d="m734.75 766.91v35.285q0 2.4 2.4 2.4h7.7425q2.4 0 2.4-2.4v-35.285q0-2.4-2.4-2.4h-7.7425q-2.4 0-2.4 2.4z" clip-path="url(#a)" fill="#fff" stroke="#fff"/>
<g clip-path="url(#a)">
<g transform="translate(738.81 766.91) rotate(90) scale(.08 -.08)">
<use xlink:href="#l"/>
<use x="60.818359" xlink:href="#d"/>
<use x="122.341797" xlink:href="#i"/>
<use x="163.439453" xlink:href="#k"/>
<use x="260.851562" xlink:href="#g"/>
<use x="288.634766" xlink:href="#j"/>
<use x="352.013672" xlink:href="#f"/>
<use x="413.292969" xlink:href="#h"/>
</g>
</g>
<path d="m924.71 766.91v35.285q0 2.4 2.4 2.4h7.7425q2.4 0 2.4-2.4v-35.285q0-2.4-2.4-2.4h-7.7425q-2.4 0-2.4 2.4z" clip-path="url(#a)" fill="#fff" stroke="#fff"/>
<g clip-path="url(#a)">
<g transform="translate(928.77 766.91) rotate(90) scale(.08 -.08)">
<use xlink:href="#l"/>
<use x="60.818359" xlink:href="#d"/>
<use x="122.341797" xlink:href="#i"/>
<use x="163.439453" xlink:href="#k"/>
<use x="260.851562" xlink:href="#g"/>
<use x="288.634766" xlink:href="#j"/>
<use x="352.013672" xlink:href="#f"/>
<use x="413.292969" xlink:href="#h"/>
</g>
</g>
<path d="m1399.6 766.91v35.285q0 2.4 2.4 2.4h7.7425q2.4 0 2.4-2.4v-35.285q0-2.4-2.4-2.4h-7.7425q-2.4 0-2.4 2.4z" clip-path="url(#a)" fill="#fff" stroke="#fff"/>
<g clip-path="url(#a)">
<g transform="translate(1403.7 766.91) rotate(90) scale(.08 -.08)">
<use xlink:href="#l"/>
<use x="60.818359" xlink:href="#d"/>
<use x="122.341797" xlink:href="#i"/>
<use x="163.439453" xlink:href="#k"/>
<use x="260.851562" xlink:href="#g"/>
<use x="288.634766" xlink:href="#j"/>
<use x="352.013672" xlink:href="#f"/>
<use x="413.292969" xlink:href="#h"/>
</g>
</g>
<path d="m1589.6 766.91v35.285q0 2.4 2.4 2.4h7.7425q2.4 0 2.4-2.4v-35.285q0-2.4-2.4-2.4h-7.7425q-2.4 0-2.4 2.4z" clip-path="url(#a)" fill="#fff" stroke="#fff"/>
<g clip-path="url(#a)">
<g transform="translate(1593.6 766.91) rotate(90) scale(.08 -.08)">
<use xlink:href="#l"/>
<use x="60.818359" xlink:href="#d"/>
<use x="122.341797" xlink:href="#i"/>
<use x="163.439453" xlink:href="#k"/>
<use x="260.851562" xlink:href="#g"/>
<use x="288.634766" xlink:href="#j"/>
<use x="352.013672" xlink:href="#f"/>
<use x="413.292969" xlink:href="#h"/>
</g>
</g>
<defs>
<path id="b" d="m0 8.6603c2.2967 0 4.4997-0.9125 6.1237-2.5365 1.624-1.624 2.5365-3.827 2.5365-6.1237s-0.9125-4.4997-2.5365-6.1237c-1.624-1.624-3.827-2.5365-6.1237-2.5365s-4.4997 0.9125-6.1237 2.5365c-1.624 1.624-2.5365 3.827-2.5365 6.1237s0.9125 4.4997 2.5365 6.1237c1.624 1.624 3.827 2.5365 6.1237 2.5365z"/>
</defs>
<g clip-path="url(#a)">
<use x="76.1771" y="839.225209" fill="#ffffff" stroke="#ffffff" xlink:href="#b"/>
</g>
<g clip-path="url(#a)">
<use x="123.666032" y="839.225209" fill="#ffffff" stroke="#ffffff" xlink:href="#b"/>
</g>
<g clip-path="url(#a)">
<use x="171.154963" y="839.225209" fill="#ffffff" stroke="#ffffff" xlink:href="#b"/>
</g>
<g clip-path="url(#a)">
<use x="218.643894" y="839.225209" fill="#ffffff" stroke="#ffffff" xlink:href="#b"/>
</g>
<g clip-path="url(#a)">
<use x="266.132825" y="839.225209" fill="#ffffff" stroke="#ffffff" xlink:href="#b"/>
</g>
<g clip-path="url(#a)">
<use x="313.621756" y="839.225209" fill="#ffffff" stroke="#ffffff" xlink:href="#b"/>
</g>
<g clip-path="url(#a)">
<use x="361.110688" y="839.225209" fill="#ffffff" stroke="#ffffff" xlink:href="#b"/>
</g>
<g clip-path="url(#a)">
<use x="408.599619" y="839.225209" fill="#ffffff" stroke="#ffffff" xlink:href="#b"/>
</g>
<g clip-path="url(#a)">
<use x="456.08855" y="839.225209" fill="#ffffff" stroke="#ffffff" xlink:href="#b"/>
</g>
<g clip-path="url(#a)">
<use x="503.577481" y="839.225209" fill="#ffffff" stroke="#ffffff" xlink:href="#b"/>
</g>
<g clip-path="url(#a)">
<use x="551.066413" y="839.225209" fill="#ffffff" stroke="#ffffff" xlink:href="#b"/>
</g>
<g clip-path="url(#a)">
<use x="598.555344" y="839.225209" fill="#ffffff" stroke="#ffffff" xlink:href="#b"/>
</g>
<g clip-path="url(#a)">
<use x="646.044275" y="839.225209" fill="#ffffff" stroke="#ffffff" xlink:href="#b"/>
</g>
<g clip-path="url(#a)">
<use x="693.533206" y="839.225209" fill="#ffffff" stroke="#ffffff" xlink:href="#b"/>
</g>
<g clip-path="url(#a)">
<use x="741.022138" y="839.225209" fill="#ffffff" stroke="#ffffff" xlink:href="#b"/>
</g>
<g clip-path="url(#a)">
<use x="788.511069" y="839.225209" fill="#ffffff" stroke="#ffffff" xlink:href="#b"/>
</g>
<g clip-path="url(#a)">
<use x="836" y="839.225209" fill="#ffffff" stroke="#ffffff" xlink:href="#b"/>
</g>
<g clip-path="url(#a)">
<use x="883.488931" y="839.225209" fill="#ffffff" stroke="#ffffff" xlink:href="#b"/>
</g>
<g clip-path="url(#a)">
<use x="930.977862" y="839.225209" fill="#ffffff" stroke="#ffffff" xlink:href="#b"/>
</g>
<g clip-path="url(#a)">
<use x="978.466794" y="839.225209" fill="#ffffff" stroke="#ffffff" xlink:href="#b"/>
</g>
<g clip-path="url(#a)">
<use x="1025.955725" y="839.225209" fill="#ffffff" stroke="#ffffff" xlink:href="#b"/>
</g>
<g clip-path="url(#a)">
<use x="1073.444656" y="839.225209" fill="#ffffff" stroke="#ffffff" xlink:href="#b"/>
</g>
<g clip-path="url(#a)">
<use x="1120.933587" y="839.225209" fill="#ffffff" stroke="#ffffff" xlink:href="#b"/>
</g>
<g clip-path="url(#a)">
<use x="1168.422519" y="839.225209" fill="#ffffff" stroke="#ffffff" xlink:href="#b"/>
</g>
<g clip-path="url(#a)">
<use x="1215.91145" y="839.225209" fill="#ffffff" stroke="#ffffff" xlink:href="#b"/>
</g>
<g clip-path="url(#a)">
<use x="1263.400381" y="839.225209" fill="#ffffff" stroke="#ffffff" xlink:href="#b"/>
</g>
<g clip-path="url(#a)">
<use x="1310.889312" y="839.225209" fill="#ffffff" stroke="#ffffff" xlink:href="#b"/>
</g>
<g clip-path="url(#a)">
<use x="1358.378244" y="839.225209" fill="#ffffff" stroke="#ffffff" xlink:href="#b"/>
</g>
<g clip-path="url(#a)">
<use x="1405.867175" y="839.225209" fill="#ffffff" stroke="#ffffff" xlink:href="#b"/>
</g>
<g clip-path="url(#a)">
<use x="1453.356106" y="839.225209" fill="#ffffff" stroke="#ffffff" xlink:href="#b"/>
</g>
<g clip-path="url(#a)">
<use x="1500.845037" y="839.225209" fill="#ffffff" stroke="#ffffff" xlink:href="#b"/>
</g>
<g clip-path="url(#a)">
<use x="1548.333968" y="839.225209" fill="#ffffff" stroke="#ffffff" xlink:href="#b"/>
</g>
<g clip-path="url(#a)">
<use x="1595.8229" y="839.225209" fill="#ffffff" stroke="#ffffff" xlink:href="#b"/>
</g>
<g clip-path="url(#a)">
<use x="715.740877" y="40.774791" fill="#ffffff" stroke="#ffffff" xlink:href="#b"/>
</g>
<g clip-path="url(#a)">
<use x="76.1771" y="729.878966" fill="#ffffff" stroke="#ffffff" xlink:href="#b"/>
</g>
<g clip-path="url(#a)">
<use x="337.102395" y="162.567198" fill="#ffffff" stroke="#ffffff" xlink:href="#b"/>
</g>
<g clip-path="url(#a)">
<use x="978.466794" y="729.878966" fill="#ffffff" stroke="#ffffff" xlink:href="#b"/>
</g>
<g clip-path="url(#a)">
<use x="1255.980236" y="396.663148" fill="#ffffff" stroke="#ffffff" xlink:href="#b"/>
</g>
<g clip-path="url(#a)">
<use x="1073.444656" y="620.532723" fill="#ffffff" stroke="#ffffff" xlink:href="#b"/>
</g>
<g clip-path="url(#a)">
<use x="1168.422519" y="729.878966" fill="#ffffff" stroke="#ffffff" xlink:href="#b"/>
</g>
<g clip-path="url(#a)">
<use x="1263.400381" y="620.532723" fill="#ffffff" stroke="#ffffff" xlink:href="#b"/>
</g>
<g clip-path="url(#a)">
<use x="1518.653386" y="509.665353" fill="#ffffff" stroke="#ffffff" xlink:href="#b"/>
</g>
<g clip-path="url(#a)">
<use x="1429.61164" y="620.532723" fill="#ffffff" stroke="#ffffff" xlink:href="#b"/>
</g>
<g clip-path="url(#a)">
<use x="1548.333968" y="729.878966" fill="#ffffff" stroke="#ffffff" xlink:href="#b"/>
</g>
<g clip-path="url(#a)">
<use x="1358.378244" y="729.878966" fill="#ffffff" stroke="#ffffff" xlink:href="#b"/>
</g>
<g clip-path="url(#a)">
<use x="1453.356106" y="729.878966" fill="#ffffff" stroke="#ffffff" xlink:href="#b"/>
</g>
<g clip-path="url(#a)">
<use x="1500.845037" y="729.878966" fill="#ffffff" stroke="#ffffff" xlink:href="#b"/>
</g>
<g clip-path="url(#a)">
<use x="1215.91145" y="729.878966" fill="#ffffff" stroke="#ffffff" xlink:href="#b"/>
</g>
<g clip-path="url(#a)">
<use x="1263.400381" y="729.878966" fill="#ffffff" stroke="#ffffff" xlink:href="#b"/>
</g>
<g clip-path="url(#a)">
<use x="1310.889312" y="729.878966" fill="#ffffff" stroke="#ffffff" xlink:href="#b"/>
</g>
<g clip-path="url(#a)">
<use x="1025.955725" y="729.878966" fill="#ffffff" stroke="#ffffff" xlink:href="#b"/>
</g>
<g clip-path="url(#a)">
<use x="1073.444656" y="729.878966" fill="#ffffff" stroke="#ffffff" xlink:href="#b"/>
</g>
<g clip-path="url(#a)">
<use x="1120.933587" y="729.878966" fill="#ffffff" stroke="#ffffff" xlink:href="#b"/>
</g>
<g clip-path="url(#a)">
<use x="171.154963" y="620.532723" fill="#ffffff" stroke="#ffffff" xlink:href="#b"/>
</g>
<g clip-path="url(#a)">
<use x="266.132825" y="729.878966" fill="#ffffff" stroke="#ffffff" xlink:href="#b"/>
</g>
<g clip-path="url(#a)">
<use x="313.621756" y="729.878966" fill="#ffffff" stroke="#ffffff" xlink:href="#b"/>
</g>
<g clip-path="url(#a)">
<use x="361.110688" y="729.878966" fill="#ffffff" stroke="#ffffff" xlink:href="#b"/>
</g>
<g clip-path="url(#a)">
<use x="573.491741" y="281.086162" fill="#ffffff" stroke="#ffffff" xlink:href="#b"/>
</g>
<g clip-path="url(#a)">
<use x="432.344085" y="620.532723" fill="#ffffff" stroke="#ffffff" xlink:href="#b"/>
</g>
<g clip-path="url(#a)">
<use x="714.639398" y="396.663148" fill="#ffffff" stroke="#ffffff" xlink:href="#b"/>
</g>
<g clip-path="url(#a)">
<use x="566.896056" y="509.665353" fill="#ffffff" stroke="#ffffff" xlink:href="#b"/>
</g>
<g clip-path="url(#a)">
<use x="836" y="620.532723" fill="#ffffff" stroke="#ffffff" xlink:href="#b"/>
</g>
<g clip-path="url(#a)">
<use x="788.511069" y="729.878966" fill="#ffffff" stroke="#ffffff" xlink:href="#b"/>
</g>
<g clip-path="url(#a)">
<use x="836" y="729.878966" fill="#ffffff" stroke="#ffffff" xlink:href="#b"/>
</g>
<g clip-path="url(#a)">
<use x="883.488931" y="729.878966" fill="#ffffff" stroke="#ffffff" xlink:href="#b"/>
</g>
<g clip-path="url(#a)">
<use x="503.577481" y="729.878966" fill="#ffffff" stroke="#ffffff" xlink:href="#b"/>
</g>
<g clip-path="url(#a)">
<use x="551.066413" y="729.878966" fill="#ffffff" stroke="#ffffff" xlink:href="#b"/>
</g>
<g clip-path="url(#a)">
<use x="646.044275" y="620.532723" fill="#ffffff" stroke="#ffffff" xlink:href="#b"/>
</g>
<g clip-path="url(#a)">
<use x="408.599619" y="729.878966" fill="#ffffff" stroke="#ffffff" xlink:href="#b"/>
</g>
<g clip-path="url(#a)">
<use x="456.08855" y="729.878966" fill="#ffffff" stroke="#ffffff" xlink:href="#b"/>
</g>
<g clip-path="url(#a)">
<use x="123.666032" y="729.878966" fill="#ffffff" stroke="#ffffff" xlink:href="#b"/>
</g>
<g clip-path="url(#a)">
<use x="171.154963" y="729.878966" fill="#ffffff" stroke="#ffffff" xlink:href="#b"/>
</g>
<g clip-path="url(#a)">
<use x="218.643894" y="729.878966" fill="#ffffff" stroke="#ffffff" xlink:href="#b"/>
</g>
<g clip-path="url(#a)">
<use x="857.183141" y="40.774791" fill="#808080" stroke="#808080" xlink:href="#b"/>
</g>
<g clip-path="url(#a)">
<use x="646.044275" y="729.878966" fill="#ffffff" stroke="#ffffff" xlink:href="#b"/>
</g>
<g clip-path="url(#a)">
<use x="741.022138" y="729.878966" fill="#ffffff" stroke="#ffffff" xlink:href="#b"/>
</g>
<g clip-path="url(#a)">
<use x="930.977862" y="729.878966" fill="#ffffff" stroke="#ffffff" xlink:href="#b"/>
</g>
<g clip-path="url(#a)">
<use x="1405.867175" y="729.878966" fill="#ffffff" stroke="#ffffff" xlink:href="#b"/>
</g>
<g clip-path="url(#a)">
<use x="1595.8229" y="729.878966" fill="#ffffff" stroke="#ffffff" xlink:href="#b"/>
</g>
<g clip-path="url(#a)">
<defs>
<path id="v" d="m18.312 70.219v-15.531h18.5v-6.9844h-18.5v-29.688q0-6.6875 1.8281-8.5938t7.4531-1.9062h9.2188v-7.5156h-9.2188q-10.406 0-14.359 3.875-3.9531 3.8906-3.9531 14.141v29.688h-6.5938v6.9844h6.5938v15.531z"/>
</defs>
<g transform="translate(71.058 841.98) scale(.1 -.1)">
<use xlink:href="#p"/>
<use x="63.183594" xlink:href="#v"/>
</g>
</g>
<g clip-path="url(#a)">
<defs>
<path id="ae" d="m14.797 27.297q0-9.9062 4.0781-15.547t11.203-5.6406 11.219 5.6406q4.1094 5.6406 4.1094 15.547t-4.1094 15.547q-4.0938 5.6406-11.219 5.6406t-11.203-5.6406-4.0781-15.547zm30.609-19.094q-2.8281-4.875-7.1562-7.25-4.3125-2.375-10.375-2.375-9.9062 0-16.141 7.9062-6.2188 7.9219-6.2188 20.812t6.2188 20.797q6.2344 7.9062 16.141 7.9062 6.0625 0 10.375-2.375 4.3281-2.3594 7.1562-7.2344v8.2969h8.9844v-75.484h-8.9844z"/>
<path id="u" d="m8.5 21.578v33.109h8.9844v-32.766q0-7.7656 3.0156-11.656 3.0312-3.875 9.0938-3.875 7.2656 0 11.484 4.6406 4.2344 4.6406 4.2344 12.656v31h8.9844v-54.688h-8.9844v8.4062q-3.2656-4.9844-7.5938-7.4062-4.3125-2.4219-10.031-2.4219-9.4219 0-14.312 5.8594-4.875 5.8594-4.875 17.141z"/>
</defs>
<g transform="translate(114.25 841.98) scale(.1 -.1)">
<use xlink:href="#ae"/>
<use x="63.476562" xlink:href="#u"/>
<use x="126.855469" xlink:href="#d"/>
</g>
</g>
<g clip-path="url(#a)">
<defs>
<path id="x" d="m45.406 46.391v29.594h8.9844v-75.984h-8.9844v8.2031q-2.8281-4.875-7.1562-7.25-4.3125-2.375-10.375-2.375-9.9062 0-16.141 7.9062-6.2188 7.9219-6.2188 20.812t6.2188 20.797q6.2344 7.9062 16.141 7.9062 6.0625 0 10.375-2.375 4.3281-2.3594 7.1562-7.2344zm-30.609-19.094q0-9.9062 4.0781-15.547t11.203-5.6406 11.219 5.6406q4.1094 5.6406 4.1094 15.547t-4.1094 15.547q-4.0938 5.6406-11.219 5.6406t-11.203-5.6406-4.0781-15.547z"/>
</defs>
<g transform="translate(164.9 841.98) scale(.1 -.1)">
<use xlink:href="#x"/>
<use x="63.476562" xlink:href="#d"/>
</g>
</g>
<g clip-path="url(#a)">
<defs>
<path id="ar" d="m37.109 75.984v-7.4844h-8.5938q-4.8281 0-6.7188-1.9531-1.875-1.9531-1.875-7.0312v-4.8281h14.797v-6.9844h-14.797v-47.703h-9.0312v47.703h-8.5938v6.9844h8.5938v3.8125q0 9.125 4.25 13.297 4.25 4.1875 13.469 4.1875z"/>
<path id="s" d="m30.609 48.391q-7.2188 0-11.422-5.6406t-4.2031-15.453 4.1719-15.453q4.1875-5.6406 11.453-5.6406 7.1875 0 11.375 5.6562 4.2031 5.6719 4.2031 15.438 0 9.7188-4.2031 15.406-4.1875 5.6875-11.375 5.6875zm0 7.6094q11.719 0 18.406-7.625 6.7031-7.6094 6.7031-21.078 0-13.422-6.7031-21.078-6.6875-7.6406-18.406-7.6406-11.766 0-18.438 7.6406-6.6562 7.6562-6.6562 21.078 0 13.469 6.6562 21.078 6.6719 7.625 18.438 7.625z"/>
<path id="r" d="m44.281 53.078v-8.5q-3.7969 1.9531-7.9062 2.9219-4.0938 0.98438-8.5 0.98438-6.6875 0-10.031-2.0469t-3.3438-6.1562q0-3.125 2.3906-4.9062t9.625-3.3906l3.0781-0.6875q9.5625-2.0469 13.594-5.7812t4.0312-10.422q0-7.625-6.0312-12.078-6.0312-4.4375-16.578-4.4375-4.3906 0-9.1562 0.85938t-10.031 2.5625v9.2812q4.9844-2.5938 9.8125-3.8906 4.8281-1.2812 9.5781-1.2812 6.3438 0 9.75 2.1719 3.4219 2.1719 3.4219 6.125 0 3.6562-2.4688 5.6094-2.4531 1.9531-10.812 3.7656l-3.125 0.73438q-8.3438 1.75-12.062 5.3906-3.7031 3.6406-3.7031 9.9844 0 7.7188 5.4688 11.906 5.4688 4.2031 15.531 4.2031 4.9688 0 9.3594-0.73438 4.4062-0.71875 8.1094-2.1875z"/>
</defs>
<g transform="translate(209.83 841.98) scale(.1 -.1)">
<use xlink:href="#ar"/>
<use x="35.205078" xlink:href="#s"/>
<use x="96.386719" xlink:href="#g"/>
<use x="124.169922" xlink:href="#r"/>
</g>
</g>
<g clip-path="url(#a)">
<defs>
<path id="ap" d="m9.4219 54.688h8.9844v-55.672q0-10.438-3.9844-15.125-3.9688-4.6875-12.812-4.6875h-3.4219v7.6094h2.4062q5.125 0 6.9688 2.375 1.8594 2.3594 1.8594 9.8281zm0 21.297h8.9844v-11.391h-8.9844z"/>
<path id="ah" d="m17.922 72.906v-27.109h-8.2969v27.109z"/>
</defs>
<g transform="translate(263.37 841.98) scale(.1 -.1)">
<use xlink:href="#ap"/>
<use x="27.783203" xlink:href="#ah"/>
</g>
</g>
<g clip-path="url(#a)">
<g transform="translate(309.17 841.98) scale(.1 -.1)">
<use xlink:href="#f"/>
<use x="61.279297" xlink:href="#g"/>
</g>
</g>
<g clip-path="url(#a)">
<defs>
<path id="aj" d="m18.109 8.2031v-29h-9.0312v75.484h9.0312v-8.2969q2.8438 4.875 7.1562 7.2344 4.3281 2.375 10.328 2.375 9.9688 0 16.188-7.9062 6.2344-7.9062 6.2344-20.797t-6.2344-20.812q-6.2188-7.9062-16.188-7.9062-6 0-10.328 2.375-4.3125 2.375-7.1562 7.25zm30.578 19.094q0 9.9062-4.0781 15.547t-11.203 5.6406q-7.1406 0-11.219-5.6406t-4.0781-15.547 4.0781-15.547 11.219-5.6406q7.125 0 11.203 5.6406t4.0781 15.547z"/>
<path id="aq" d="m45.406 27.984q0 9.7656-4.0312 15.125-4.0156 5.375-11.297 5.375-7.2188 0-11.25-5.375-4.0312-5.3594-4.0312-15.125 0-9.7188 4.0312-15.094t11.25-5.375q7.2812 0 11.297 5.375 4.0312 5.375 4.0312 15.094zm8.9844-21.203q0-13.953-6.2031-20.766-6.1875-6.8125-18.984-6.8125-4.7344 0-8.9375 0.70312t-8.1562 2.1719v8.7344q3.9531-2.1406 7.8125-3.1562 3.8594-1.0312 7.8594-1.0312 8.8438 0 13.234 4.6094t4.3906 13.938v4.4531q-2.7812-4.8438-7.125-7.2344t-10.406-2.3906q-10.047 0-16.203 7.6562-6.1562 7.6719-6.1562 20.328 0 12.688 6.1562 20.344 6.1562 7.6719 16.203 7.6719 6.0625 0 10.406-2.3906t7.125-7.2188v8.2969h8.9844z"/>
<path id="ad" d="m56.203 29.594v-4.3906h-41.312q0.59375-9.2812 5.5938-14.141t13.938-4.8594q5.1719 0 10.031 1.2656t9.6562 3.8125v-8.5q-4.8438-2.0469-9.9219-3.125t-10.297-1.0781q-13.094 0-20.734 7.6094-7.6406 7.625-7.6406 20.625 0 13.422 7.25 21.297 7.25 7.8906 19.562 7.8906 11.031 0 17.453-7.1094 6.4219-7.0938 6.4219-19.297zm-8.9844 2.6406q-0.09375 7.3594-4.125 11.75-4.0312 4.4062-10.672 4.4062-7.5156 0-12.031-4.25t-5.2031-11.969zm-8.6875 47.75h9.7188l-15.906-18.359h-7.4844z"/>
</defs>
<g transform="translate(341.54 842.18) scale(.1 -.1)">
<use xlink:href="#aj"/>
<use x="63.476562" xlink:href="#f"/>
<use x="124.755859" xlink:href="#i"/>
<use x="165.869141" xlink:href="#v"/>
<use x="205.078125" xlink:href="#f"/>
<use x="266.357422" xlink:href="#aq"/>
<use x="329.833984" xlink:href="#ad"/>
</g>
</g>
<g clip-path="url(#a)">
<g transform="translate(405.84 841.98) scale(.1 -.1)">
<use xlink:href="#h"/>
<use x="27.783203" xlink:href="#ah"/>
</g>
</g>
<g clip-path="url(#a)">
<g transform="translate(435.5 841.98) scale(.1 -.1)">
<use xlink:href="#ad"/>
<use x="61.523438" xlink:href="#k"/>
<use x="158.935547" xlink:href="#s"/>
<use x="220.117188" xlink:href="#v"/>
<use x="259.326172" xlink:href="#g"/>
<use x="287.109375" xlink:href="#s"/>
<use x="348.291016" xlink:href="#j"/>
</g>
</g>
<g clip-path="url(#a)">
<g transform="translate(497.33 841.98) scale(.1 -.1)">
<use xlink:href="#x"/>
<use x="63.476562" xlink:href="#d"/>
</g>
</g>
<g clip-path="url(#a)">
<g transform="translate(548.3 841.98) scale(.1 -.1)">
<use xlink:href="#h"/>
<use x="27.783203" xlink:href="#ah"/>
</g>
</g>
<g clip-path="url(#a)">
<g transform="translate(588.49 841.98) scale(.1 -.1)">
<use xlink:href="#ad"/>
<use x="61.523438" xlink:href="#v"/>
<use x="100.732422" xlink:href="#f"/>
<use x="162.011719" xlink:href="#v"/>
</g>
</g>
<g clip-path="url(#a)">
<defs>
<path id="an" d="m4.8906 31.391h26.312v-8h-26.312z"/>
</defs>
<g transform="translate(644.24 841.98) scale(.1 -.1)">
<use xlink:href="#an"/>
</g>
</g>
<g clip-path="url(#a)">
<g transform="translate(679.09 841.98) scale(.1 -.1)">
<use xlink:href="#k"/>
<use x="97.412109" xlink:href="#f"/>
<use x="158.691406" xlink:href="#ap"/>
<use x="186.474609" xlink:href="#s"/>
<use x="247.65625" xlink:href="#i"/>
</g>
</g>
<g clip-path="url(#a)">
<defs>
<path id="ao" d="m11.719 12.406h10.297v-8.4062l-8-15.625h-6.2969l4 15.625z"/>
</defs>
<g transform="translate(739.43 841.98) scale(.1 -.1)">
<use xlink:href="#ao"/>
</g>
</g>
<g clip-path="url(#a)">
<g transform="translate(782.26 841.98) scale(.1 -.1)">
<use xlink:href="#x"/>
<use x="63.476562" xlink:href="#d"/>
</g>
</g>
<g clip-path="url(#a)">
<g transform="translate(833.24 841.98) scale(.1 -.1)">
<use xlink:href="#h"/>
<use x="27.783203" xlink:href="#ah"/>
</g>
</g>
<g clip-path="url(#a)">
<g transform="translate(860.19 842.18) scale(.1 -.1)">
<use xlink:href="#ad"/>
<use x="61.523438" xlink:href="#ae"/>
<use x="125" xlink:href="#u"/>
<use x="188.378906" xlink:href="#g"/>
<use x="216.162109" xlink:href="#aj"/>
<use x="279.638672" xlink:href="#f"/>
<use x="340.917969" xlink:href="#aq"/>
<use x="404.394531" xlink:href="#d"/>
</g>
</g>
<g clip-path="url(#a)">
<g transform="translate(929.39 841.98) scale(.1 -.1)">
<use xlink:href="#ao"/>
</g>
</g>
<g clip-path="url(#a)">
<g transform="translate(959.94 841.98) scale(.1 -.1)">
<use xlink:href="#h"/>
<use x="27.783203" xlink:href="#s"/>
<use x="88.964844" xlink:href="#i"/>
<use x="130.078125" xlink:href="#r"/>
<use x="182.177734" xlink:href="#ae"/>
<use x="245.654297" xlink:href="#u"/>
<use x="309.033203" xlink:href="#d"/>
</g>
</g>
<g clip-path="url(#a)">
<g transform="translate(1005.7 841.98) scale(.1 -.1)">
<use xlink:href="#ae"/>
<use x="63.476562" xlink:href="#u"/>
<use x="126.855469" xlink:href="#d"/>
<use x="188.378906" xlink:href="#h"/>
<use x="216.162109" xlink:href="#ae"/>
<use x="279.638672" xlink:href="#u"/>
<use x="343.017578" xlink:href="#d"/>
</g>
</g>
<g clip-path="url(#a)">
<defs>
<path id="ak" d="m48.781 52.594v-8.4062q-3.8125 2.1094-7.6406 3.1562t-7.7344 1.0469q-8.75 0-13.594-5.5469-4.8281-5.5312-4.8281-15.547t4.8281-15.562q4.8438-5.5312 13.594-5.5312 3.9062 0 7.7344 1.0469t7.6406 3.1562v-8.3125q-3.7656-1.75-7.7969-2.625-4.0156-0.89062-8.5625-0.89062-12.359 0-19.641 7.7656-7.2656 7.7656-7.2656 20.953 0 13.375 7.3438 21.031 7.3594 7.6719 20.156 7.6719 4.1406 0 8.0938-0.85938 3.9531-0.84375 7.6719-2.5469z"/>
</defs>
<g transform="translate(1044.9 841.98) scale(.1 -.1)">
<use xlink:href="#ak"/>
<use x="54.980469" xlink:href="#f"/>
<use x="116.259766" xlink:href="#aj"/>
<use x="179.736328" xlink:href="#i"/>
<use x="220.849609" xlink:href="#g"/>
<use x="248.632812" xlink:href="#ak"/>
<use x="303.613281" xlink:href="#g"/>
<use x="331.396484" xlink:href="#d"/>
<use x="392.919922" xlink:href="#u"/>
<use x="456.298828" xlink:href="#r"/>
<use x="508.398438" xlink:href="#d"/>
</g>
</g>
<g clip-path="url(#a)">
<defs>
<path id="as" d="m48.688 27.297q0 9.9062-4.0781 15.547t-11.203 5.6406q-7.1406 0-11.219-5.6406t-4.0781-15.547 4.0781-15.547 11.219-5.6406q7.125 0 11.203 5.6406t4.0781 15.547zm-30.578 19.094q2.8438 4.875 7.1562 7.2344 4.3281 2.375 10.328 2.375 9.9688 0 16.188-7.9062 6.2344-7.9062 6.2344-20.797t-6.2344-20.812q-6.2188-7.9062-16.188-7.9062-6 0-10.328 2.375-4.3125 2.375-7.1562 7.25v-8.2031h-9.0312v75.984h9.0312z"/>
</defs>
<g transform="translate(1102.6 841.98) scale(.1 -.1)">
<use xlink:href="#as"/>
<use x="63.476562" xlink:href="#f"/>
<use x="124.755859" xlink:href="#h"/>
<use x="152.539062" xlink:href="#d"/>
<use x="214.0625" xlink:href="#g"/>
<use x="241.845703" xlink:href="#j"/>
<use x="305.224609" xlink:href="#d"/>
</g>
</g>
<g clip-path="url(#a)">
<defs>
<path id="ax" d="m2.9844 54.688h9.5156l17.094-45.891 17.094 45.891h9.5156l-20.516-54.688h-12.203z"/>
</defs>
<g transform="translate(1151.5 841.98) scale(.1 -.1)">
<use xlink:href="#ad"/>
<use x="61.523438" xlink:href="#h"/>
<use x="89.306641" xlink:href="#d"/>
<use x="150.830078" xlink:href="#ax"/>
<use x="210.009766" xlink:href="#f"/>
<use x="271.289062" xlink:href="#g"/>
<use x="299.072266" xlink:href="#v"/>
</g>
</g>
<g clip-path="url(#a)">
<g transform="translate(1207.1 841.98) scale(.1 -.1)">
<use xlink:href="#r"/>
<use x="52.099609" xlink:href="#s"/>
<use x="113.28125" xlink:href="#j"/>
</g>
</g>
<g clip-path="url(#a)">
<g transform="translate(1254.6 841.98) scale(.1 -.1)">
<use xlink:href="#x"/>
<use x="63.476562" xlink:href="#s"/>
<use x="124.658203" xlink:href="#r"/>
</g>
</g>
<g clip-path="url(#a)">
<defs>
<path id="aw" d="m34.281 27.484q-10.891 0-15.094-2.4844t-4.2031-8.5q0-4.7812 3.1562-7.5938 3.1562-2.7969 8.5625-2.7969 7.4844 0 12 5.2969t4.5156 14.078v2zm17.922 3.7188v-31.203h-8.9844v8.2969q-3.0781-4.9688-7.6719-7.3438t-11.234-2.375q-8.3906 0-13.359 4.7188-4.9531 4.7188-4.9531 12.625 0 9.2188 6.1719 13.906 6.1875 4.6875 18.438 4.6875h12.609v0.89062q0 6.2031-4.0781 9.5938t-11.453 3.3906q-4.6875 0-9.1406-1.125-4.4375-1.125-8.5312-3.375v8.3125q4.9219 1.9062 9.5625 2.8438 4.6406 0.95312 9.0312 0.95312 11.875 0 17.734-6.1562 5.8594-6.1406 5.8594-18.641zm-26.812 48.781h7.2188l11.969-18.359h-6.7812l-8.7969 11.953-8.7812-11.953h-6.7969z"/>
</defs>
<g transform="translate(1291.1 841.98) scale(.1 -.1)">
<use xlink:href="#j"/>
<use x="63.378906" xlink:href="#s"/>
<use x="124.560547" xlink:href="#g"/>
<use x="152.34375" xlink:href="#i"/>
<use x="193.457031" xlink:href="#aw"/>
<use x="254.736328" xlink:href="#v"/>
<use x="293.945312" xlink:href="#i"/>
<use x="335.027344" xlink:href="#d"/>
</g>
</g>
<g clip-path="url(#a)">
<g transform="translate(1352.1 841.98) scale(.1 -.1)">
<use xlink:href="#f"/>
<use x="61.279297" xlink:href="#u"/>
</g>
</g>
<g clip-path="url(#a)">
<g transform="translate(1404.1 841.98) scale(.1 -.1)">
<use xlink:href="#an"/>
</g>
</g>
<g clip-path="url(#a)">
<g transform="translate(1436.1 841.98) scale(.1 -.1)">
<use xlink:href="#x"/>
<use x="63.476562" xlink:href="#d"/>
<use x="125" xlink:href="#r"/>
<use x="177.099609" xlink:href="#r"/>
<use x="229.199219" xlink:href="#u"/>
<use x="292.578125" xlink:href="#r"/>
</g>
</g>
<g clip-path="url(#a)">
<g transform="translate(1492 841.98) scale(.1 -.1)">
<use xlink:href="#x"/>
<use x="63.476562" xlink:href="#d"/>
<use x="125" xlink:href="#r"/>
</g>
</g>
<g clip-path="url(#a)">
<g transform="translate(1537.6 841.98) scale(.1 -.1)">
<use xlink:href="#ar"/>
<use x="35.205078" xlink:href="#h"/>
<use x="62.988281" xlink:href="#s"/>
<use x="124.169922" xlink:href="#v"/>
<use x="163.378906" xlink:href="#r"/>
</g>
</g>
<g clip-path="url(#a)">
<defs>
<path id="e" d="m10.688 12.406h10.312v-12.406h-10.312z"/>
</defs>
<g transform="translate(1594.2 841.98) scale(.1 -.1)">
<use xlink:href="#e"/>
</g>
</g>
<g clip-path="url(#a)">
<defs>
<path id="c" d="m12.406 8.2969h16.109v55.625l-17.531-3.5156v8.9844l17.438 3.5156h9.8594v-64.609h16.109v-8.2969h-41.984z"/>
</defs>
<g transform="translate(707.79 43.534) scale(.1 -.1)">
<use xlink:href="#c"/>
<use x="63.623047" xlink:href="#e"/>
<use x="95.410156" xlink:href="#c"/>
</g>
</g>
<g clip-path="url(#a)">
<defs>
<path id="m" d="m19.188 8.2969h34.422v-8.2969h-46.281v8.2969q5.6094 5.8125 15.297 15.594 9.7031 9.7969 12.188 12.641 4.7344 5.3125 6.6094 9 1.8906 3.6875 1.8906 7.25 0 5.8125-4.0781 9.4688-4.0781 3.6719-10.625 3.6719-4.6406 0-9.7969-1.6094-5.1406-1.6094-11-4.8906v9.9688q5.9531 2.3906 11.125 3.6094 5.1875 1.2188 9.4844 1.2188 11.328 0 18.062-5.6719 6.7344-5.6562 6.7344-15.125 0-4.5-1.6875-8.5312-1.6719-4.0156-6.125-9.4844-1.2188-1.4219-7.7656-8.1875-6.5312-6.7656-18.453-18.922z"/>
</defs>
<g transform="translate(68.226 732.64) scale(.1 -.1)">
<use xlink:href="#c"/>
<use x="63.623047" xlink:href="#e"/>
<use x="95.410156" xlink:href="#m"/>
</g>
</g>
<g clip-path="url(#a)">
<defs>
<path id="o" d="m40.578 39.312q7.0781-1.5156 11.047-6.3125 3.9844-4.7812 3.9844-11.812 0-10.781-7.4219-16.703-7.4219-5.9062-21.094-5.9062-4.5781 0-9.4375 0.90625t-10.031 2.7188v9.5156q4.0938-2.3906 8.9688-3.6094 4.8906-1.2188 10.219-1.2188 9.2656 0 14.125 3.6562t4.8594 10.641q0 6.4531-4.5156 10.078-4.5156 3.6406-12.562 3.6406h-8.5v8.1094h8.8906q7.2656 0 11.125 2.9062t3.8594 8.375q0 5.6094-3.9844 8.6094-3.9688 3.0156-11.391 3.0156-4.0625 0-8.7031-0.89062-4.6406-0.875-10.203-2.7188v8.7812q5.625 1.5625 10.531 2.3438t9.25 0.78125q11.234 0 17.766-5.1094 6.5469-5.0938 6.5469-13.781 0-6.0625-3.4688-10.234t-9.8594-5.7812z"/>
</defs>
<g transform="translate(329.15 165.33) scale(.1 -.1)">
<use xlink:href="#c"/>
<use x="63.623047" xlink:href="#e"/>
<use x="95.410156" xlink:href="#o"/>
</g>
</g>
<g clip-path="url(#a)">
<defs>
<path id="n" d="m37.797 64.312-24.906-38.922h24.906zm-2.5938 8.5938h12.406v-47.516h10.406v-8.2031h-10.406v-17.188h-9.8125v17.188h-32.906v9.5156z"/>
</defs>
<g transform="translate(970.52 732.64) scale(.1 -.1)">
<use xlink:href="#c"/>
<use x="63.623047" xlink:href="#e"/>
<use x="95.410156" xlink:href="#n"/>
</g>
</g>
<g clip-path="url(#a)">
<defs>
<path id="w" d="m10.797 72.906h38.719v-8.3125h-29.688v-17.859q2.1406 0.73438 4.2812 1.0938 2.1562 0.35938 4.3125 0.35938 12.203 0 19.328-6.6875 7.1406-6.6875 7.1406-18.109 0-11.766-7.3281-18.297-7.3281-6.5156-20.656-6.5156-4.5938 0-9.3594 0.78125-4.75 0.78125-9.8281 2.3438v9.9219q4.3906-2.3906 9.0781-3.5625t9.9062-1.1719q8.4531 0 13.375 4.4375 4.9375 4.4375 4.9375 12.062 0 7.6094-4.9375 12.047-4.9219 4.4531-13.375 4.4531-3.9531 0-7.8906-0.875-3.9219-0.875-8.0156-2.7344z"/>
</defs>
<g transform="translate(1248 399.42) scale(.1 -.1)">
<use xlink:href="#c"/>
<use x="63.623047" xlink:href="#e"/>
<use x="95.410156" xlink:href="#w"/>
</g>
</g>
<g clip-path="url(#a)">
<defs>
<path id="ac" d="m31.781 34.625q-7.0312 0-11.062-3.7656-4.0156-3.7656-4.0156-10.344 0-6.5938 4.0156-10.359 4.0312-3.7656 11.062-3.7656t11.078 3.7812q4.0625 3.7969 4.0625 10.344 0 6.5781-4.0312 10.344-4.0156 3.7656-11.109 3.7656zm-9.8594 4.1875q-6.3438 1.5625-9.8906 5.9062-3.5312 4.3594-3.5312 10.609 0 8.7344 6.2188 13.812 6.2344 5.0781 17.062 5.0781 10.891 0 17.094-5.0781t6.2031-13.812q0-6.25-3.5469-10.609-3.5312-4.3438-9.8281-5.9062 7.125-1.6562 11.094-6.5 3.9844-4.8281 3.9844-11.797 0-10.609-6.4688-16.281-6.4688-5.6562-18.531-5.6562-12.047 0-18.531 5.6562-6.4688 5.6719-6.4688 16.281 0 6.9688 4 11.797 4.0156 4.8438 11.141 6.5zm-3.6094 15.578q0-5.6562 3.5312-8.8281 3.5469-3.1719 9.9375-3.1719 6.3594 0 9.9375 3.1719 3.5938 3.1719 3.5938 8.8281 0 5.6719-3.5938 8.8438-3.5781 3.1719-9.9375 3.1719-6.3906 0-9.9375-3.1719-3.5312-3.1719-3.5312-8.8438z"/>
</defs>
<g transform="translate(1065.5 623.29) scale(.1 -.1)">
<use xlink:href="#c"/>
<use x="63.623047" xlink:href="#e"/>
<use x="95.410156" xlink:href="#ac"/>
</g>
</g>
<g clip-path="url(#a)">
<defs>
<path id="ab" d="m10.984 1.5156v8.9844q3.7188-1.7656 7.5156-2.6875 3.8125-0.92188 7.4844-0.92188 9.7656 0 14.906 6.5625 5.1562 6.5625 5.8906 19.953-2.8281-4.2031-7.1875-6.4531-4.3438-2.25-9.6094-2.25-10.938 0-17.312 6.6094-6.375 6.625-6.375 18.109 0 11.219 6.6406 18 6.6406 6.7969 17.672 6.7969 12.656 0 19.312-9.7031 6.6719-9.6875 6.6719-28.141 0-17.234-8.1875-27.516-8.1719-10.281-21.984-10.281-3.7188 0-7.5312 0.73438-3.7969 0.73438-7.9062 2.2031zm19.625 30.906q6.6406 0 10.516 4.5312 3.8906 4.5469 3.8906 12.469 0 7.8594-3.8906 12.422-3.875 4.5625-10.516 4.5625t-10.516-4.5625-3.875-12.422q0-7.9219 3.875-12.469 3.875-4.5312 10.516-4.5312z"/>
</defs>
<g transform="translate(1160.5 732.64) scale(.1 -.1)">
<use xlink:href="#c"/>
<use x="63.623047" xlink:href="#e"/>
<use x="95.410156" xlink:href="#ab"/>
</g>
</g>
<g clip-path="url(#a)">
<defs>
<path id="ag" d="m31.781 66.406q-7.6094 0-11.453-7.5-3.8281-7.4844-3.8281-22.531 0-14.984 3.8281-22.484 3.8438-7.5 11.453-7.5 7.6719 0 11.5 7.5 3.8438 7.5 3.8438 22.484 0 15.047-3.8438 22.531-3.8281 7.5-11.5 7.5zm0 7.8125q12.266 0 18.734-9.7031 6.4688-9.6875 6.4688-28.141 0-18.406-6.4688-28.109-6.4688-9.6875-18.734-9.6875-12.25 0-18.719 9.6875-6.4688 9.7031-6.4688 28.109 0 18.453 6.4688 28.141 6.4688 9.7031 18.719 9.7031z"/>
</defs>
<g transform="translate(1252.3 623.29) scale(.1 -.1)">
<use xlink:href="#c"/>
<use x="63.623047" xlink:href="#e"/>
<use x="95.410156" xlink:href="#c"/>
<use x="159.033203" xlink:href="#ag"/>
</g>
</g>
<g clip-path="url(#a)">
<g transform="translate(1507.5 512.42) scale(.1 -.1)">
<use xlink:href="#c"/>
<use x="63.623047" xlink:href="#e"/>
<use x="95.410156" xlink:href="#c"/>
<use x="159.033203" xlink:href="#c"/>
</g>
</g>
<g clip-path="url(#a)">
<g transform="translate(1418.5 623.29) scale(.1 -.1)">
<use xlink:href="#c"/>
<use x="63.623047" xlink:href="#e"/>
<use x="95.410156" xlink:href="#c"/>
<use x="159.033203" xlink:href="#m"/>
</g>
</g>
<g clip-path="url(#a)">
<g transform="translate(1537.2 732.64) scale(.1 -.1)">
<use xlink:href="#c"/>
<use x="63.623047" xlink:href="#e"/>
<use x="95.410156" xlink:href="#c"/>
<use x="159.033203" xlink:href="#o"/>
</g>
</g>
<g clip-path="url(#a)">
<g transform="translate(1347.2 732.64) scale(.1 -.1)">
<use xlink:href="#c"/>
<use x="63.623047" xlink:href="#e"/>
<use x="95.410156" xlink:href="#c"/>
<use x="159.033203" xlink:href="#n"/>
</g>
</g>
<g clip-path="url(#a)">
<g transform="translate(1442.2 732.64) scale(.1 -.1)">
<use xlink:href="#c"/>
<use x="63.623047" xlink:href="#e"/>
<use x="95.410156" xlink:href="#c"/>
<use x="159.033203" xlink:href="#w"/>
</g>
</g>
<g clip-path="url(#a)">
<defs>
<path id="af" d="m33.016 40.375q-6.6406 0-10.531-4.5469-3.875-4.5312-3.875-12.438 0-7.8594 3.875-12.438 3.8906-4.5625 10.531-4.5625t10.516 4.5625q3.875 4.5781 3.875 12.438 0 7.9062-3.875 12.438-3.875 4.5469-10.516 4.5469zm19.578 30.922v-8.9844q-3.7188 1.75-7.5 2.6719-3.7812 0.9375-7.5 0.9375-9.7656 0-14.922-6.5938-5.1406-6.5938-5.875-19.922 2.875 4.25 7.2188 6.5156 4.3594 2.2656 9.5781 2.2656 10.984 0 17.359-6.6719 6.375-6.6562 6.375-18.125 0-11.234-6.6406-18.031-6.6406-6.7812-17.672-6.7812-12.656 0-19.344 9.6875-6.6875 9.7031-6.6875 28.109 0 17.281 8.2031 27.562t22.016 10.281q3.7188 0 7.5-0.73438t7.8906-2.1875z"/>
</defs>
<g transform="translate(1489.7 732.64) scale(.1 -.1)">
<use xlink:href="#c"/>
<use x="63.623047" xlink:href="#e"/>
<use x="95.410156" xlink:href="#c"/>
<use x="159.033203" xlink:href="#af"/>
</g>
</g>
<g clip-path="url(#a)">
<g transform="translate(1204.8 732.64) scale(.1 -.1)">
<use xlink:href="#c"/>
<use x="63.623047" xlink:href="#e"/>
<use x="95.410156" xlink:href="#c"/>
<use x="159.033203" xlink:href="#ac"/>
</g>
</g>
<g clip-path="url(#a)">
<g transform="translate(1252.3 732.64) scale(.1 -.1)">
<use xlink:href="#c"/>
<use x="63.623047" xlink:href="#e"/>
<use x="95.410156" xlink:href="#c"/>
<use x="159.033203" xlink:href="#ab"/>
</g>
</g>
<g clip-path="url(#a)">
<g transform="translate(1299.8 732.64) scale(.1 -.1)">
<use xlink:href="#c"/>
<use x="63.623047" xlink:href="#e"/>
<use x="95.410156" xlink:href="#m"/>
<use x="159.033203" xlink:href="#ag"/>
</g>
</g>
<g clip-path="url(#a)">
<g transform="translate(1014.8 732.64) scale(.1 -.1)">
<use xlink:href="#c"/>
<use x="63.623047" xlink:href="#e"/>
<use x="95.410156" xlink:href="#m"/>
<use x="159.033203" xlink:href="#c"/>
</g>
</g>
<g clip-path="url(#a)">
<g transform="translate(1062.3 732.64) scale(.1 -.1)">
<use xlink:href="#c"/>
<use x="63.623047" xlink:href="#e"/>
<use x="95.410156" xlink:href="#m"/>
<use x="159.033203" xlink:href="#m"/>
</g>
</g>
<g clip-path="url(#a)">
<g transform="translate(1109.8 732.64) scale(.1 -.1)">
<use xlink:href="#c"/>
<use x="63.623047" xlink:href="#e"/>
<use x="95.410156" xlink:href="#m"/>
<use x="159.033203" xlink:href="#o"/>
</g>
</g>
<g clip-path="url(#a)">
<g transform="translate(160.02 623.29) scale(.1 -.1)">
<use xlink:href="#c"/>
<use x="63.623047" xlink:href="#e"/>
<use x="95.410156" xlink:href="#m"/>
<use x="159.033203" xlink:href="#n"/>
</g>
</g>
<g clip-path="url(#a)">
<g transform="translate(255 732.64) scale(.1 -.1)">
<use xlink:href="#c"/>
<use x="63.623047" xlink:href="#e"/>
<use x="95.410156" xlink:href="#m"/>
<use x="159.033203" xlink:href="#w"/>
</g>
</g>
<g clip-path="url(#a)">
<g transform="translate(302.49 732.64) scale(.1 -.1)">
<use xlink:href="#c"/>
<use x="63.623047" xlink:href="#e"/>
<use x="95.410156" xlink:href="#m"/>
<use x="159.033203" xlink:href="#af"/>
</g>
</g>
<g clip-path="url(#a)">
<defs>
<path id="ai" d="m8.2031 72.906h46.875v-4.2031l-26.469-68.703h-10.297l24.906 64.594h-35.016z"/>
</defs>
<g transform="translate(349.98 732.64) scale(.1 -.1)">
<use xlink:href="#c"/>
<use x="63.623047" xlink:href="#e"/>
<use x="95.410156" xlink:href="#m"/>
<use x="159.033203" xlink:href="#ai"/>
</g>
</g>
<g clip-path="url(#a)">
<g transform="translate(562.36 283.85) scale(.1 -.1)">
<use xlink:href="#c"/>
<use x="63.623047" xlink:href="#e"/>
<use x="95.410156" xlink:href="#m"/>
<use x="159.033203" xlink:href="#ac"/>
</g>
</g>
<g clip-path="url(#a)">
<g transform="translate(421.21 623.29) scale(.1 -.1)">
<use xlink:href="#c"/>
<use x="63.623047" xlink:href="#e"/>
<use x="95.410156" xlink:href="#m"/>
<use x="159.033203" xlink:href="#ab"/>
</g>
</g>
<g clip-path="url(#a)">
<g transform="translate(703.51 399.42) scale(.1 -.1)">
<use xlink:href="#c"/>
<use x="63.623047" xlink:href="#e"/>
<use x="95.410156" xlink:href="#o"/>
<use x="159.033203" xlink:href="#ag"/>
</g>
</g>
<g clip-path="url(#a)">
<g transform="translate(555.76 512.42) scale(.1 -.1)">
<use xlink:href="#c"/>
<use x="63.623047" xlink:href="#e"/>
<use x="95.410156" xlink:href="#o"/>
<use x="159.033203" xlink:href="#c"/>
</g>
</g>
<g clip-path="url(#a)">
<g transform="translate(824.87 623.29) scale(.1 -.1)">
<use xlink:href="#c"/>
<use x="63.623047" xlink:href="#e"/>
<use x="95.410156" xlink:href="#o"/>
<use x="159.033203" xlink:href="#m"/>
</g>
</g>
<g clip-path="url(#a)">
<g transform="translate(777.38 732.64) scale(.1 -.1)">
<use xlink:href="#c"/>
<use x="63.623047" xlink:href="#e"/>
<use x="95.410156" xlink:href="#o"/>
<use x="159.033203" xlink:href="#n"/>
</g>
</g>
<g clip-path="url(#a)">
<g transform="translate(824.87 732.64) scale(.1 -.1)">
<use xlink:href="#c"/>
<use x="63.623047" xlink:href="#e"/>
<use x="95.410156" xlink:href="#o"/>
<use x="159.033203" xlink:href="#w"/>
</g>
</g>
<g clip-path="url(#a)">
<g transform="translate(872.36 732.64) scale(.1 -.1)">
<use xlink:href="#c"/>
<use x="63.623047" xlink:href="#e"/>
<use x="95.410156" xlink:href="#o"/>
<use x="159.033203" xlink:href="#af"/>
</g>
</g>
<g clip-path="url(#a)">
<g transform="translate(492.44 732.64) scale(.1 -.1)">
<use xlink:href="#c"/>
<use x="63.623047" xlink:href="#e"/>
<use x="95.410156" xlink:href="#o"/>
<use x="159.033203" xlink:href="#ai"/>
</g>
</g>
<g clip-path="url(#a)">
<g transform="translate(539.93 732.64) scale(.1 -.1)">
<use xlink:href="#c"/>
<use x="63.623047" xlink:href="#e"/>
<use x="95.410156" xlink:href="#o"/>
<use x="159.033203" xlink:href="#ac"/>
</g>
</g>
<g clip-path="url(#a)">
<g transform="translate(634.91 623.29) scale(.1 -.1)">
<use xlink:href="#c"/>
<use x="63.623047" xlink:href="#e"/>
<use x="95.410156" xlink:href="#o"/>
<use x="159.033203" xlink:href="#ab"/>
</g>
</g>
<g clip-path="url(#a)">
<g transform="translate(397.47 732.64) scale(.1 -.1)">
<use xlink:href="#c"/>
<use x="63.623047" xlink:href="#e"/>
<use x="95.410156" xlink:href="#n"/>
<use x="159.033203" xlink:href="#c"/>
</g>
</g>
<g clip-path="url(#a)">
<g transform="translate(444.96 732.64) scale(.1 -.1)">
<use xlink:href="#c"/>
<use x="63.623047" xlink:href="#e"/>
<use x="95.410156" xlink:href="#n"/>
<use x="159.033203" xlink:href="#m"/>
</g>
</g>
<g clip-path="url(#a)">
<g transform="translate(112.53 732.64) scale(.1 -.1)">
<use xlink:href="#c"/>
<use x="63.623047" xlink:href="#e"/>
<use x="95.410156" xlink:href="#n"/>
<use x="159.033203" xlink:href="#o"/>
</g>
</g>
<g clip-path="url(#a)">
<g transform="translate(160.02 732.64) scale(.1 -.1)">
<use xlink:href="#c"/>
<use x="63.623047" xlink:href="#e"/>
<use x="95.410156" xlink:href="#n"/>
<use x="159.033203" xlink:href="#n"/>
</g>
</g>
<g clip-path="url(#a)">
<g transform="translate(207.51 732.64) scale(.1 -.1)">
<use xlink:href="#c"/>
<use x="63.623047" xlink:href="#e"/>
<use x="95.410156" xlink:href="#n"/>
<use x="159.033203" xlink:href="#w"/>
</g>
</g>
<g clip-path="url(#a)">
<g transform="translate(846.05 43.534) scale(.1 -.1)">
<use xlink:href="#c"/>
<use x="63.623047" xlink:href="#e"/>
<use x="95.410156" xlink:href="#n"/>
<use x="159.033203" xlink:href="#af"/>
</g>
</g>
<g clip-path="url(#a)">
<g transform="translate(634.91 732.64) scale(.1 -.1)">
<use xlink:href="#c"/>
<use x="63.623047" xlink:href="#e"/>
<use x="95.410156" xlink:href="#n"/>
<use x="159.033203" xlink:href="#ai"/>
</g>
</g>
<g clip-path="url(#a)">
<g transform="translate(729.89 732.64) scale(.1 -.1)">
<use xlink:href="#c"/>
<use x="63.623047" xlink:href="#e"/>
<use x="95.410156" xlink:href="#n"/>
<use x="159.033203" xlink:href="#ac"/>
</g>
</g>
<g clip-path="url(#a)">
<g transform="translate(919.85 732.64) scale(.1 -.1)">
<use xlink:href="#c"/>
<use x="63.623047" xlink:href="#e"/>
<use x="95.410156" xlink:href="#n"/>
<use x="159.033203" xlink:href="#ab"/>
</g>
</g>
<g clip-path="url(#a)">
<g transform="translate(1394.7 732.64) scale(.1 -.1)">
<use xlink:href="#c"/>
<use x="63.623047" xlink:href="#e"/>
<use x="95.410156" xlink:href="#w"/>
<use x="159.033203" xlink:href="#ag"/>
</g>
</g>
<g clip-path="url(#a)">
<g transform="translate(1584.7 732.64) scale(.1 -.1)">
<use xlink:href="#c"/>
<use x="63.623047" xlink:href="#e"/>
<use x="95.410156" xlink:href="#w"/>
<use x="159.033203" xlink:href="#c"/>
</g>
</g>
<defs>
<clipPath id="a">
<rect width="1672" height="880"/>
</clipPath>
</defs>
</svg>
