<?xml version="1.0" encoding="utf-8" standalone="no"?>
<!DOCTYPE svg PUBLIC "-//W3C//DTD SVG 1.1//EN"
  "http://www.w3.org/Graphics/SVG/1.1/DTD/svg11.dtd">
<!-- Created with matplotlib (https://matplotlib.org/) -->
<svg height="346.666667pt" version="1.1" viewBox="0 0 658.666667 346.666667" width="658.666667pt" xmlns="http://www.w3.org/2000/svg" xmlns:xlink="http://www.w3.org/1999/xlink">
 <defs>
  <style type="text/css">
*{stroke-linecap:butt;stroke-linejoin:round;}
  </style>
 </defs>
 <g id="figure_1">
  <g id="patch_1">
   <path d="M 0 346.666667 
L 658.666667 346.666667 
L 658.666667 0 
L 0 0 
z
" style="fill:#ffffff;"/>
  </g>
  <g id="axes_1">
   <g id="LineCollection_1">
    <path clip-path="url(#p30daa032c5)" d="M 186.135603 16.860338 
L 30.374801 268.496394 
" style="fill:none;stroke:#000000;"/>
    <path clip-path="url(#p30daa032c5)" d="M 186.135603 16.860338 
L 76.368421 268.496394 
" style="fill:none;stroke:#000000;"/>
    <path clip-path="url(#p30daa032c5)" d="M 186.135603 16.860338 
L 451.663588 81.663821 
" style="fill:none;stroke:#000000;"/>
    <path clip-path="url(#p30daa032c5)" d="M 30.374801 268.496394 
L 30.374801 329.806329 
" style="fill:none;stroke:#000000;"/>
    <path clip-path="url(#p30daa032c5)" d="M 76.368421 268.496394 
L 76.368421 329.806329 
" style="fill:none;stroke:#000000;"/>
    <path clip-path="url(#p30daa032c5)" d="M 451.663588 81.663821 
L 628.291866 329.806329 
" style="fill:none;stroke:#000000;"/>
    <path clip-path="url(#p30daa032c5)" d="M 451.663588 81.663821 
L 197.101675 145.023636 
" style="fill:none;stroke:#000000;"/>
    <path clip-path="url(#p30daa032c5)" d="M 451.663588 81.663821 
L 352.330144 268.496394 
" style="fill:none;stroke:#000000;"/>
    <path clip-path="url(#p30daa032c5)" d="M 451.663588 81.663821 
L 459.648591 268.496394 
" style="fill:none;stroke:#000000;"/>
    <path clip-path="url(#p30daa032c5)" d="M 451.663588 81.663821 
L 490.311005 268.496394 
" style="fill:none;stroke:#000000;"/>
    <path clip-path="url(#p30daa032c5)" d="M 451.663588 81.663821 
L 582.298246 268.496394 
" style="fill:none;stroke:#000000;"/>
    <path clip-path="url(#p30daa032c5)" d="M 197.101675 145.023636 
L 122.362041 268.496394 
" style="fill:none;stroke:#000000;"/>
    <path clip-path="url(#p30daa032c5)" d="M 197.101675 145.023636 
L 168.355662 268.496394 
" style="fill:none;stroke:#000000;"/>
    <path clip-path="url(#p30daa032c5)" d="M 197.101675 145.023636 
L 214.349282 268.496394 
" style="fill:none;stroke:#000000;"/>
    <path clip-path="url(#p30daa032c5)" d="M 197.101675 145.023636 
L 283.339713 207.18646 
" style="fill:none;stroke:#000000;"/>
    <path clip-path="url(#p30daa032c5)" d="M 352.330144 268.496394 
L 352.330144 329.806329 
" style="fill:none;stroke:#000000;"/>
    <path clip-path="url(#p30daa032c5)" d="M 459.648591 268.496394 
L 398.323764 329.806329 
" style="fill:none;stroke:#000000;"/>
    <path clip-path="url(#p30daa032c5)" d="M 459.648591 268.496394 
L 444.317384 329.806329 
" style="fill:none;stroke:#000000;"/>
    <path clip-path="url(#p30daa032c5)" d="M 459.648591 268.496394 
L 536.304625 329.806329 
" style="fill:none;stroke:#000000;"/>
    <path clip-path="url(#p30daa032c5)" d="M 490.311005 268.496394 
L 490.311005 329.806329 
" style="fill:none;stroke:#000000;"/>
    <path clip-path="url(#p30daa032c5)" d="M 122.362041 268.496394 
L 122.362041 329.806329 
" style="fill:none;stroke:#000000;"/>
    <path clip-path="url(#p30daa032c5)" d="M 168.355662 268.496394 
L 168.355662 329.806329 
" style="fill:none;stroke:#000000;"/>
    <path clip-path="url(#p30daa032c5)" d="M 214.349282 268.496394 
L 214.349282 329.806329 
" style="fill:none;stroke:#000000;"/>
    <path clip-path="url(#p30daa032c5)" d="M 283.339713 207.18646 
L 260.342903 268.496394 
" style="fill:none;stroke:#000000;"/>
    <path clip-path="url(#p30daa032c5)" d="M 283.339713 207.18646 
L 306.336523 268.496394 
" style="fill:none;stroke:#000000;"/>
    <path clip-path="url(#p30daa032c5)" d="M 260.342903 268.496394 
L 260.342903 329.806329 
" style="fill:none;stroke:#000000;"/>
    <path clip-path="url(#p30daa032c5)" d="M 306.336523 268.496394 
L 306.336523 329.806329 
" style="fill:none;stroke:#000000;"/>
    <path clip-path="url(#p30daa032c5)" d="M 264.016004 16.860338 
L 76.368421 268.496394 
" style="fill:none;stroke:#000000;"/>
    <path clip-path="url(#p30daa032c5)" d="M 264.016004 16.860338 
L 451.663588 81.663821 
" style="fill:none;stroke:#000000;"/>
    <path clip-path="url(#p30daa032c5)" d="M 582.298246 268.496394 
L 582.298246 329.806329 
" style="fill:none;stroke:#000000;"/>
   </g>
   <g id="text_1">
    <g id="patch_2">
     <path clip-path="url(#p30daa032c5)" d="M 112.414522 147.87413 
L 114.760596 144.083979 
Q 116.023766 142.043292 113.983079 140.780123 
L 107.399738 136.705085 
Q 105.359051 135.441916 104.095882 137.482602 
L 101.749808 141.272753 
Q 100.486638 143.31344 102.527325 144.576609 
L 109.110665 148.651647 
Q 111.151352 149.914817 112.414522 147.87413 
z
" style="fill:#ffffff;stroke:#ffffff;stroke-linejoin:miter;"/>
    </g>
    <g clip-path="url(#p30daa032c5)">
     <!-- L -->
     <defs>
      <path d="M 9.8125 72.90625 
L 19.671875 72.90625 
L 19.671875 8.296875 
L 55.171875 8.296875 
L 55.171875 0 
L 9.8125 0 
z
" id="DejaVuSans-76"/>
     </defs>
     <g transform="translate(108.959171 145.735294)rotate(-58.242808)scale(0.08 -0.08)">
      <use xlink:href="#DejaVuSans-76"/>
     </g>
    </g>
   </g>
   <g id="text_2">
    <g id="patch_3">
     <path clip-path="url(#p30daa032c5)" d="M 136.109055 147.228645 
L 137.891294 143.142946 
Q 138.850885 140.943131 136.651069 139.983541 
L 129.554374 136.887863 
Q 127.354559 135.928272 126.394969 138.128088 
L 124.61273 142.213786 
Q 123.65314 144.413601 125.852955 145.373191 
L 132.94965 148.468869 
Q 135.149465 149.42846 136.109055 147.228645 
z
" style="fill:#ffffff;stroke:#ffffff;stroke-linejoin:miter;"/>
    </g>
    <g clip-path="url(#p30daa032c5)">
     <!-- L -->
     <g transform="translate(132.384264 145.603838)rotate(-66.432494)scale(0.08 -0.08)">
      <use xlink:href="#DejaVuSans-76"/>
     </g>
    </g>
   </g>
   <g id="text_3">
    <g id="patch_4">
     <path clip-path="url(#p30daa032c5)" d="M 314.490354 54.641297 
L 320.335057 56.067727 
Q 322.666624 56.636758 323.235655 54.305191 
L 325.071373 46.78346 
Q 325.640404 44.451893 323.308837 43.882862 
L 317.464133 42.456432 
Q 315.132567 41.887401 314.563536 44.218968 
L 312.727818 51.740699 
Q 312.158787 54.072266 314.490354 54.641297 
z
" style="fill:#ffffff;stroke:#ffffff;stroke-linejoin:miter;"/>
    </g>
    <g clip-path="url(#p30daa032c5)">
     <!-- H -->
     <defs>
      <path d="M 9.8125 72.90625 
L 19.671875 72.90625 
L 19.671875 43.015625 
L 55.515625 43.015625 
L 55.515625 72.90625 
L 65.375 72.90625 
L 65.375 0 
L 55.515625 0 
L 55.515625 34.71875 
L 19.671875 34.71875 
L 19.671875 0 
L 9.8125 0 
z
" id="DejaVuSans-72"/>
     </defs>
     <g transform="translate(315.453854 50.69342)rotate(-346.284779)scale(0.08 -0.08)">
      <use xlink:href="#DejaVuSans-72"/>
     </g>
    </g>
   </g>
   <g id="text_4">
    <g id="patch_5">
     <path clip-path="url(#p30daa032c5)" d="M 24.103551 281.508861 
L 24.103551 316.793861 
Q 24.103551 319.193861 26.503551 319.193861 
L 34.246051 319.193861 
Q 36.646051 319.193861 36.646051 316.793861 
L 36.646051 281.508861 
Q 36.646051 279.108861 34.246051 279.108861 
L 26.503551 279.108861 
Q 24.103551 279.108861 24.103551 281.508861 
z
" style="fill:#ffffff;stroke:#ffffff;stroke-linejoin:miter;"/>
    </g>
    <g clip-path="url(#p30daa032c5)">
     <!-- Terminal -->
     <defs>
      <path d="M -0.296875 72.90625 
L 61.375 72.90625 
L 61.375 64.59375 
L 35.5 64.59375 
L 35.5 0 
L 25.59375 0 
L 25.59375 64.59375 
L -0.296875 64.59375 
z
" id="DejaVuSans-84"/>
      <path d="M 56.203125 29.59375 
L 56.203125 25.203125 
L 14.890625 25.203125 
Q 15.484375 15.921875 20.484375 11.0625 
Q 25.484375 6.203125 34.421875 6.203125 
Q 39.59375 6.203125 44.453125 7.46875 
Q 49.3125 8.734375 54.109375 11.28125 
L 54.109375 2.78125 
Q 49.265625 0.734375 44.1875 -0.34375 
Q 39.109375 -1.421875 33.890625 -1.421875 
Q 20.796875 -1.421875 13.15625 6.1875 
Q 5.515625 13.8125 5.515625 26.8125 
Q 5.515625 40.234375 12.765625 48.109375 
Q 20.015625 56 32.328125 56 
Q 43.359375 56 49.78125 48.890625 
Q 56.203125 41.796875 56.203125 29.59375 
z
M 47.21875 32.234375 
Q 47.125 39.59375 43.09375 43.984375 
Q 39.0625 48.390625 32.421875 48.390625 
Q 24.90625 48.390625 20.390625 44.140625 
Q 15.875 39.890625 15.1875 32.171875 
z
" id="DejaVuSans-101"/>
      <path d="M 41.109375 46.296875 
Q 39.59375 47.171875 37.8125 47.578125 
Q 36.03125 48 33.890625 48 
Q 26.265625 48 22.1875 43.046875 
Q 18.109375 38.09375 18.109375 28.8125 
L 18.109375 0 
L 9.078125 0 
L 9.078125 54.6875 
L 18.109375 54.6875 
L 18.109375 46.1875 
Q 20.953125 51.171875 25.484375 53.578125 
Q 30.03125 56 36.53125 56 
Q 37.453125 56 38.578125 55.875 
Q 39.703125 55.765625 41.0625 55.515625 
z
" id="DejaVuSans-114"/>
      <path d="M 52 44.1875 
Q 55.375 50.25 60.0625 53.125 
Q 64.75 56 71.09375 56 
Q 79.640625 56 84.28125 50.015625 
Q 88.921875 44.046875 88.921875 33.015625 
L 88.921875 0 
L 79.890625 0 
L 79.890625 32.71875 
Q 79.890625 40.578125 77.09375 44.375 
Q 74.3125 48.1875 68.609375 48.1875 
Q 61.625 48.1875 57.5625 43.546875 
Q 53.515625 38.921875 53.515625 30.90625 
L 53.515625 0 
L 44.484375 0 
L 44.484375 32.71875 
Q 44.484375 40.625 41.703125 44.40625 
Q 38.921875 48.1875 33.109375 48.1875 
Q 26.21875 48.1875 22.15625 43.53125 
Q 18.109375 38.875 18.109375 30.90625 
L 18.109375 0 
L 9.078125 0 
L 9.078125 54.6875 
L 18.109375 54.6875 
L 18.109375 46.1875 
Q 21.1875 51.21875 25.484375 53.609375 
Q 29.78125 56 35.6875 56 
Q 41.65625 56 45.828125 52.96875 
Q 50 49.953125 52 44.1875 
z
" id="DejaVuSans-109"/>
      <path d="M 9.421875 54.6875 
L 18.40625 54.6875 
L 18.40625 0 
L 9.421875 0 
z
M 9.421875 75.984375 
L 18.40625 75.984375 
L 18.40625 64.59375 
L 9.421875 64.59375 
z
" id="DejaVuSans-105"/>
      <path d="M 54.890625 33.015625 
L 54.890625 0 
L 45.90625 0 
L 45.90625 32.71875 
Q 45.90625 40.484375 42.875 44.328125 
Q 39.84375 48.1875 33.796875 48.1875 
Q 26.515625 48.1875 22.3125 43.546875 
Q 18.109375 38.921875 18.109375 30.90625 
L 18.109375 0 
L 9.078125 0 
L 9.078125 54.6875 
L 18.109375 54.6875 
L 18.109375 46.1875 
Q 21.34375 51.125 25.703125 53.5625 
Q 30.078125 56 35.796875 56 
Q 45.21875 56 50.046875 50.171875 
Q 54.890625 44.34375 54.890625 33.015625 
z
" id="DejaVuSans-110"/>
      <path d="M 34.28125 27.484375 
Q 23.390625 27.484375 19.1875 25 
Q 14.984375 22.515625 14.984375 16.5 
Q 14.984375 11.71875 18.140625 8.90625 
Q 21.296875 6.109375 26.703125 6.109375 
Q 34.1875 6.109375 38.703125 11.40625 
Q 43.21875 16.703125 43.21875 25.484375 
L 43.21875 27.484375 
z
M 52.203125 31.203125 
L 52.203125 0 
L 43.21875 0 
L 43.21875 8.296875 
Q 40.140625 3.328125 35.546875 0.953125 
Q 30.953125 -1.421875 24.3125 -1.421875 
Q 15.921875 -1.421875 10.953125 3.296875 
Q 6 8.015625 6 15.921875 
Q 6 25.140625 12.171875 29.828125 
Q 18.359375 34.515625 30.609375 34.515625 
L 43.21875 34.515625 
L 43.21875 35.40625 
Q 43.21875 41.609375 39.140625 45 
Q 35.0625 48.390625 27.6875 48.390625 
Q 23 48.390625 18.546875 47.265625 
Q 14.109375 46.140625 10.015625 43.890625 
L 10.015625 52.203125 
Q 14.9375 54.109375 19.578125 55.046875 
Q 24.21875 56 28.609375 56 
Q 40.484375 56 46.34375 49.84375 
Q 52.203125 43.703125 52.203125 31.203125 
z
" id="DejaVuSans-97"/>
      <path d="M 9.421875 75.984375 
L 18.40625 75.984375 
L 18.40625 0 
L 9.421875 0 
z
" id="DejaVuSans-108"/>
     </defs>
     <g transform="translate(28.167301 281.508861)rotate(-270)scale(0.08 -0.08)">
      <use xlink:href="#DejaVuSans-84"/>
      <use x="60.818359" xlink:href="#DejaVuSans-101"/>
      <use x="122.341797" xlink:href="#DejaVuSans-114"/>
      <use x="163.439453" xlink:href="#DejaVuSans-109"/>
      <use x="260.851562" xlink:href="#DejaVuSans-105"/>
      <use x="288.634766" xlink:href="#DejaVuSans-110"/>
      <use x="352.013672" xlink:href="#DejaVuSans-97"/>
      <use x="413.292969" xlink:href="#DejaVuSans-108"/>
     </g>
    </g>
   </g>
   <g id="text_5">
    <g id="patch_6">
     <path clip-path="url(#p30daa032c5)" d="M 70.097171 281.508861 
L 70.097171 316.793861 
Q 70.097171 319.193861 72.497171 319.193861 
L 80.239671 319.193861 
Q 82.639671 319.193861 82.639671 316.793861 
L 82.639671 281.508861 
Q 82.639671 279.108861 80.239671 279.108861 
L 72.497171 279.108861 
Q 70.097171 279.108861 70.097171 281.508861 
z
" style="fill:#ffffff;stroke:#ffffff;stroke-linejoin:miter;"/>
    </g>
    <g clip-path="url(#p30daa032c5)">
     <!-- Terminal -->
     <g transform="translate(74.160921 281.508861)rotate(-270)scale(0.08 -0.08)">
      <use xlink:href="#DejaVuSans-84"/>
      <use x="60.818359" xlink:href="#DejaVuSans-101"/>
      <use x="122.341797" xlink:href="#DejaVuSans-114"/>
      <use x="163.439453" xlink:href="#DejaVuSans-109"/>
      <use x="260.851562" xlink:href="#DejaVuSans-105"/>
      <use x="288.634766" xlink:href="#DejaVuSans-110"/>
      <use x="352.013672" xlink:href="#DejaVuSans-97"/>
      <use x="413.292969" xlink:href="#DejaVuSans-108"/>
     </g>
    </g>
   </g>
   <g id="text_6">
    <g id="patch_7">
     <path clip-path="url(#p30daa032c5)" d="M 533.281861 207.142562 
L 536.45535 211.600951 
Q 537.847104 213.556206 539.802358 212.164452 
L 546.110092 207.674596 
Q 548.065347 206.282842 546.673593 204.327587 
L 543.500104 199.869199 
Q 542.10835 197.913944 540.153095 199.305698 
L 533.845362 203.795554 
Q 531.890107 205.187308 533.281861 207.142562 
z
" style="fill:#ffffff;stroke:#ffffff;stroke-linejoin:miter;"/>
    </g>
    <g clip-path="url(#p30daa032c5)">
     <!-- A -->
     <defs>
      <path d="M 34.1875 63.1875 
L 20.796875 26.90625 
L 47.609375 26.90625 
z
M 28.609375 72.90625 
L 39.796875 72.90625 
L 67.578125 0 
L 57.328125 0 
L 50.6875 18.703125 
L 17.828125 18.703125 
L 11.1875 0 
L 0.78125 0 
z
" id="DejaVuSans-65"/>
     </defs>
     <g transform="translate(536.592555 204.786004)rotate(-305.443329)scale(0.08 -0.08)">
      <use xlink:href="#DejaVuSans-65"/>
     </g>
    </g>
   </g>
   <g id="text_7">
    <g id="patch_8">
     <path clip-path="url(#p30daa032c5)" d="M 323.242077 120.090193 
L 328.552557 118.768428 
Q 330.881502 118.188759 330.301833 115.859814 
L 328.431799 108.346541 
Q 327.85213 106.017596 325.523185 106.597265 
L 320.212705 107.91903 
Q 317.883761 108.498698 318.463429 110.827643 
L 320.333464 118.340916 
Q 320.913132 120.669861 323.242077 120.090193 
z
" style="fill:#ffffff;stroke:#ffffff;stroke-linejoin:miter;"/>
    </g>
    <g clip-path="url(#p30daa032c5)">
     <!-- A -->
     <g transform="translate(322.260566 116.146755)rotate(-13.976773)scale(0.08 -0.08)">
      <use xlink:href="#DejaVuSans-65"/>
     </g>
    </g>
   </g>
   <g id="text_8">
    <g id="patch_9">
     <path clip-path="url(#p30daa032c5)" d="M 406.454122 180.055479 
L 408.614156 175.992751 
Q 409.740824 173.873643 407.621716 172.746975 
L 400.785385 169.112297 
Q 398.666277 167.985629 397.539609 170.104737 
L 395.379575 174.167464 
Q 394.252907 176.286572 396.372015 177.41324 
L 403.208346 181.047919 
Q 405.327454 182.174587 406.454122 180.055479 
z
" style="fill:#ffffff;stroke:#ffffff;stroke-linejoin:miter;"/>
    </g>
    <g clip-path="url(#p30daa032c5)">
     <!-- F -->
     <defs>
      <path d="M 9.8125 72.90625 
L 51.703125 72.90625 
L 51.703125 64.59375 
L 19.671875 64.59375 
L 19.671875 43.109375 
L 48.578125 43.109375 
L 48.578125 34.8125 
L 19.671875 34.8125 
L 19.671875 0 
L 9.8125 0 
z
" id="DejaVuSans-70"/>
     </defs>
     <g transform="translate(402.865987 178.147771)rotate(-62.001721)scale(0.08 -0.08)">
      <use xlink:href="#DejaVuSans-70"/>
     </g>
    </g>
   </g>
   <g id="text_9">
    <g id="patch_10">
     <path clip-path="url(#p30daa032c5)" d="M 449.287572 172.938214 
L 449.493546 177.757564 
Q 449.596025 180.155375 451.993837 180.052896 
L 459.729275 179.722292 
Q 462.127086 179.619813 462.024606 177.222001 
L 461.818633 172.402651 
Q 461.716153 170.00484 459.318342 170.10732 
L 451.582904 170.437923 
Q 449.185093 170.540403 449.287572 172.938214 
z
" style="fill:#ffffff;stroke:#ffffff;stroke-linejoin:miter;"/>
    </g>
    <g clip-path="url(#p30daa032c5)">
     <!-- P -->
     <defs>
      <path d="M 19.671875 64.796875 
L 19.671875 37.40625 
L 32.078125 37.40625 
Q 38.96875 37.40625 42.71875 40.96875 
Q 46.484375 44.53125 46.484375 51.125 
Q 46.484375 57.671875 42.71875 61.234375 
Q 38.96875 64.796875 32.078125 64.796875 
z
M 9.8125 72.90625 
L 32.078125 72.90625 
Q 44.34375 72.90625 50.609375 67.359375 
Q 56.890625 61.8125 56.890625 51.125 
Q 56.890625 40.328125 50.609375 34.8125 
Q 44.34375 29.296875 32.078125 29.296875 
L 19.671875 29.296875 
L 19.671875 0 
L 9.8125 0 
z
" id="DejaVuSans-80"/>
     </defs>
     <g transform="translate(453.347616 172.764692)rotate(-272.447265)scale(0.08 -0.08)">
      <use xlink:href="#DejaVuSans-80"/>
     </g>
    </g>
   </g>
   <g id="text_10">
    <g id="patch_11">
     <path clip-path="url(#p30daa032c5)" d="M 464.222152 173.334312 
L 465.469967 179.366605 
Q 465.956129 181.716849 468.306373 181.230687 
L 475.888358 179.662309 
Q 478.238602 179.176147 477.75244 176.825903 
L 476.504625 170.79361 
Q 476.018463 168.443366 473.668219 168.929528 
L 466.086234 170.497906 
Q 463.73599 170.984068 464.222152 173.334312 
z
" style="fill:#ffffff;stroke:#ffffff;stroke-linejoin:miter;"/>
    </g>
    <g clip-path="url(#p30daa032c5)">
     <!-- D -->
     <defs>
      <path d="M 19.671875 64.796875 
L 19.671875 8.109375 
L 31.59375 8.109375 
Q 46.6875 8.109375 53.6875 14.9375 
Q 60.6875 21.78125 60.6875 36.53125 
Q 60.6875 51.171875 53.6875 57.984375 
Q 46.6875 64.796875 31.59375 64.796875 
z
M 9.8125 72.90625 
L 30.078125 72.90625 
Q 51.265625 72.90625 61.171875 64.09375 
Q 71.09375 55.28125 71.09375 36.53125 
Q 71.09375 17.671875 61.125 8.828125 
Q 51.171875 0 30.078125 0 
L 9.8125 0 
z
" id="DejaVuSans-68"/>
     </defs>
     <g transform="translate(468.201654 172.511129)rotate(-281.687135)scale(0.08 -0.08)">
      <use xlink:href="#DejaVuSans-68"/>
     </g>
    </g>
   </g>
   <g id="text_11">
    <g id="patch_12">
     <path clip-path="url(#p30daa032c5)" d="M 510.163861 176.274503 
L 513.518929 181.072893 
Q 514.894191 183.039782 516.86108 181.664519 
L 523.206346 177.227864 
Q 525.173235 175.852601 523.797973 173.885712 
L 520.442905 169.087323 
Q 519.067642 167.120434 517.100753 168.495696 
L 510.755487 172.932351 
Q 508.788598 174.307614 510.163861 176.274503 
z
" style="fill:#ffffff;stroke:#ffffff;stroke-linejoin:miter;"/>
    </g>
    <g clip-path="url(#p30daa032c5)">
     <!-- U -->
     <defs>
      <path d="M 8.6875 72.90625 
L 18.609375 72.90625 
L 18.609375 28.609375 
Q 18.609375 16.890625 22.84375 11.734375 
Q 27.09375 6.59375 36.625 6.59375 
Q 46.09375 6.59375 50.34375 11.734375 
Q 54.59375 16.890625 54.59375 28.609375 
L 54.59375 72.90625 
L 64.5 72.90625 
L 64.5 27.390625 
Q 64.5 13.140625 57.4375 5.859375 
Q 50.390625 -1.421875 36.625 -1.421875 
Q 22.796875 -1.421875 15.734375 5.859375 
Q 8.6875 13.140625 8.6875 27.390625 
z
" id="DejaVuSans-85"/>
     </defs>
     <g transform="translate(513.494255 173.945868)rotate(-304.961518)scale(0.08 -0.08)">
      <use xlink:href="#DejaVuSans-85"/>
     </g>
    </g>
   </g>
   <g id="text_12">
    <g id="patch_13">
     <path clip-path="url(#p30daa032c5)" d="M 163.78797 212.169709 
L 166.40562 207.845251 
Q 167.648421 205.792096 165.595266 204.549295 
L 158.971702 200.539967 
Q 156.918547 199.297166 155.675746 201.350322 
L 153.058096 205.674779 
Q 151.815295 207.727935 153.86845 208.970735 
L 160.492014 212.980063 
Q 162.545169 214.222864 163.78797 212.169709 
z
" style="fill:#ffffff;stroke:#ffffff;stroke-linejoin:miter;"/>
    </g>
    <g clip-path="url(#p30daa032c5)">
     <!-- E -->
     <defs>
      <path d="M 9.8125 72.90625 
L 55.90625 72.90625 
L 55.90625 64.59375 
L 19.671875 64.59375 
L 19.671875 43.015625 
L 54.390625 43.015625 
L 54.390625 34.71875 
L 19.671875 34.71875 
L 19.671875 8.296875 
L 56.78125 8.296875 
L 56.78125 0 
L 9.8125 0 
z
" id="DejaVuSans-69"/>
     </defs>
     <g transform="translate(160.311508 210.065362)rotate(-58.812946)scale(0.08 -0.08)">
      <use xlink:href="#DejaVuSans-69"/>
     </g>
    </g>
   </g>
   <g id="text_13">
    <g id="patch_14">
     <path clip-path="url(#p30daa032c5)" d="M 188.263466 210.643679 
L 189.40968 205.720345 
Q 189.953877 203.382857 187.616389 202.838661 
L 180.075555 201.08306 
Q 177.738067 200.538863 177.193871 202.876351 
L 176.047656 207.799685 
Q 175.50346 210.137173 177.840948 210.68137 
L 185.381781 212.436971 
Q 187.719269 212.981167 188.263466 210.643679 
z
" style="fill:#ffffff;stroke:#ffffff;stroke-linejoin:miter;"/>
    </g>
    <g clip-path="url(#p30daa032c5)">
     <!-- E -->
     <g transform="translate(184.305563 209.72223)rotate(-76.894277)scale(0.08 -0.08)">
      <use xlink:href="#DejaVuSans-69"/>
     </g>
    </g>
   </g>
   <g id="text_14">
    <g id="patch_15">
     <path clip-path="url(#p30daa032c5)" d="M 199.128119 204.86134 
L 199.900945 210.393874 
Q 200.232971 212.770796 202.609893 212.43877 
L 210.277943 211.367639 
Q 212.654865 211.035612 212.322838 208.65869 
L 211.550012 203.126156 
Q 211.217986 200.749234 208.841064 201.081261 
L 201.173014 202.152392 
Q 198.796092 202.484418 199.128119 204.86134 
z
" style="fill:#ffffff;stroke:#ffffff;stroke-linejoin:miter;"/>
    </g>
    <g clip-path="url(#p30daa032c5)">
     <!-- C -->
     <defs>
      <path d="M 64.40625 67.28125 
L 64.40625 56.890625 
Q 59.421875 61.53125 53.78125 63.8125 
Q 48.140625 66.109375 41.796875 66.109375 
Q 29.296875 66.109375 22.65625 58.46875 
Q 16.015625 50.828125 16.015625 36.375 
Q 16.015625 21.96875 22.65625 14.328125 
Q 29.296875 6.6875 41.796875 6.6875 
Q 48.140625 6.6875 53.78125 8.984375 
Q 59.421875 11.28125 64.40625 15.921875 
L 64.40625 5.609375 
Q 59.234375 2.09375 53.4375 0.328125 
Q 47.65625 -1.421875 41.21875 -1.421875 
Q 24.65625 -1.421875 15.125 8.703125 
Q 5.609375 18.84375 5.609375 36.375 
Q 5.609375 53.953125 15.125 64.078125 
Q 24.65625 74.21875 41.21875 74.21875 
Q 47.75 74.21875 53.53125 72.484375 
Q 59.328125 70.75 64.40625 67.28125 
z
" id="DejaVuSans-67"/>
     </defs>
     <g transform="translate(203.152792 204.299144)rotate(-277.952052)scale(0.08 -0.08)">
      <use xlink:href="#DejaVuSans-67"/>
     </g>
    </g>
   </g>
   <g id="text_15">
    <g id="patch_16">
     <path clip-path="url(#p30daa032c5)" d="M 234.503251 179.714435 
L 238.603945 182.670332 
Q 240.550863 184.073725 241.954256 182.126808 
L 246.481661 175.845971 
Q 247.885054 173.899054 245.938137 172.495661 
L 241.837442 169.539764 
Q 239.890525 168.13637 238.487132 170.083288 
L 233.959726 176.364124 
Q 232.556333 178.311042 234.503251 179.714435 
z
" style="fill:#ffffff;stroke:#ffffff;stroke-linejoin:miter;"/>
    </g>
    <g clip-path="url(#p30daa032c5)">
     <!-- E -->
     <g transform="translate(236.879517 176.417858)rotate(-324.214868)scale(0.08 -0.08)">
      <use xlink:href="#DejaVuSans-69"/>
     </g>
    </g>
   </g>
   <g id="text_16">
    <g id="patch_17">
     <path clip-path="url(#p30daa032c5)" d="M 346.058894 281.508861 
L 346.058894 316.793861 
Q 346.058894 319.193861 348.458894 319.193861 
L 356.201394 319.193861 
Q 358.601394 319.193861 358.601394 316.793861 
L 358.601394 281.508861 
Q 358.601394 279.108861 356.201394 279.108861 
L 348.458894 279.108861 
Q 346.058894 279.108861 346.058894 281.508861 
z
" style="fill:#ffffff;stroke:#ffffff;stroke-linejoin:miter;"/>
    </g>
    <g clip-path="url(#p30daa032c5)">
     <!-- Terminal -->
     <g transform="translate(350.122644 281.508861)rotate(-270)scale(0.08 -0.08)">
      <use xlink:href="#DejaVuSans-84"/>
      <use x="60.818359" xlink:href="#DejaVuSans-101"/>
      <use x="122.341797" xlink:href="#DejaVuSans-114"/>
      <use x="163.439453" xlink:href="#DejaVuSans-109"/>
      <use x="260.851562" xlink:href="#DejaVuSans-105"/>
      <use x="288.634766" xlink:href="#DejaVuSans-110"/>
      <use x="352.013672" xlink:href="#DejaVuSans-97"/>
      <use x="413.292969" xlink:href="#DejaVuSans-108"/>
     </g>
    </g>
   </g>
   <g id="text_17">
    <g id="patch_18">
     <path clip-path="url(#p30daa032c5)" d="M 420.943436 316.05996 
L 445.896729 291.112727 
Q 447.593991 289.415877 445.897141 287.718614 
L 440.423032 282.243175 
Q 438.726181 280.545913 437.028919 282.242763 
L 412.075626 307.189996 
Q 410.378364 308.886846 412.075214 310.584108 
L 417.549324 316.059547 
Q 419.246174 317.75681 420.943436 316.05996 
z
" style="fill:#ffffff;stroke:#ffffff;stroke-linejoin:miter;"/>
    </g>
    <g clip-path="url(#p30daa032c5)">
     <!-- Terminal -->
     <g transform="translate(418.07028 313.186105)rotate(-44.993042)scale(0.08 -0.08)">
      <use xlink:href="#DejaVuSans-84"/>
      <use x="60.818359" xlink:href="#DejaVuSans-101"/>
      <use x="122.341797" xlink:href="#DejaVuSans-114"/>
      <use x="163.439453" xlink:href="#DejaVuSans-109"/>
      <use x="260.851562" xlink:href="#DejaVuSans-105"/>
      <use x="288.634766" xlink:href="#DejaVuSans-110"/>
      <use x="352.013672" xlink:href="#DejaVuSans-97"/>
      <use x="413.292969" xlink:href="#DejaVuSans-108"/>
     </g>
    </g>
   </g>
   <g id="text_18">
    <g id="patch_19">
     <path clip-path="url(#p30daa032c5)" d="M 453.786994 317.788205 
L 462.34682 283.557216 
Q 462.929039 281.228907 460.60073 280.646689 
L 453.089509 278.768427 
Q 450.7612 278.186209 450.178982 280.514518 
L 441.619156 314.745507 
Q 441.036937 317.073815 443.365246 317.656034 
L 450.876467 319.534295 
Q 453.204775 320.116514 453.786994 317.788205 
z
" style="fill:#ffffff;stroke:#ffffff;stroke-linejoin:miter;"/>
    </g>
    <g clip-path="url(#p30daa032c5)">
     <!-- Terminal -->
     <g transform="translate(449.844634 316.802376)rotate(-75.960482)scale(0.08 -0.08)">
      <use xlink:href="#DejaVuSans-84"/>
      <use x="60.818359" xlink:href="#DejaVuSans-101"/>
      <use x="122.341797" xlink:href="#DejaVuSans-114"/>
      <use x="163.439453" xlink:href="#DejaVuSans-109"/>
      <use x="260.851562" xlink:href="#DejaVuSans-105"/>
      <use x="288.634766" xlink:href="#DejaVuSans-110"/>
      <use x="352.013672" xlink:href="#DejaVuSans-97"/>
      <use x="413.292969" xlink:href="#DejaVuSans-108"/>
     </g>
    </g>
   </g>
   <g id="text_19">
    <g id="patch_20">
     <path clip-path="url(#p30daa032c5)" d="M 480.281786 293.029299 
L 507.837353 315.068399 
Q 509.711616 316.567445 511.210662 314.693182 
L 516.046647 308.646733 
Q 517.545693 306.77247 515.67143 305.273424 
L 488.115863 283.234324 
Q 486.2416 281.735278 484.742554 283.60954 
L 479.906569 289.65599 
Q 478.407523 291.530253 480.281786 293.029299 
z
" style="fill:#ffffff;stroke:#ffffff;stroke-linejoin:miter;"/>
    </g>
    <g clip-path="url(#p30daa032c5)">
     <!-- Terminal -->
     <g transform="translate(482.820015 289.855742)rotate(-321.34698)scale(0.08 -0.08)">
      <use xlink:href="#DejaVuSans-84"/>
      <use x="60.818359" xlink:href="#DejaVuSans-101"/>
      <use x="122.341797" xlink:href="#DejaVuSans-114"/>
      <use x="163.439453" xlink:href="#DejaVuSans-109"/>
      <use x="260.851562" xlink:href="#DejaVuSans-105"/>
      <use x="288.634766" xlink:href="#DejaVuSans-110"/>
      <use x="352.013672" xlink:href="#DejaVuSans-97"/>
      <use x="413.292969" xlink:href="#DejaVuSans-108"/>
     </g>
    </g>
   </g>
   <g id="text_20">
    <g id="patch_21">
     <path clip-path="url(#p30daa032c5)" d="M 484.039755 281.508861 
L 484.039755 316.793861 
Q 484.039755 319.193861 486.439755 319.193861 
L 494.182255 319.193861 
Q 496.582255 319.193861 496.582255 316.793861 
L 496.582255 281.508861 
Q 496.582255 279.108861 494.182255 279.108861 
L 486.439755 279.108861 
Q 484.039755 279.108861 484.039755 281.508861 
z
" style="fill:#ffffff;stroke:#ffffff;stroke-linejoin:miter;"/>
    </g>
    <g clip-path="url(#p30daa032c5)">
     <!-- Terminal -->
     <g transform="translate(488.103505 281.508861)rotate(-270)scale(0.08 -0.08)">
      <use xlink:href="#DejaVuSans-84"/>
      <use x="60.818359" xlink:href="#DejaVuSans-101"/>
      <use x="122.341797" xlink:href="#DejaVuSans-114"/>
      <use x="163.439453" xlink:href="#DejaVuSans-109"/>
      <use x="260.851562" xlink:href="#DejaVuSans-105"/>
      <use x="288.634766" xlink:href="#DejaVuSans-110"/>
      <use x="352.013672" xlink:href="#DejaVuSans-97"/>
      <use x="413.292969" xlink:href="#DejaVuSans-108"/>
     </g>
    </g>
   </g>
   <g id="text_21">
    <g id="patch_22">
     <path clip-path="url(#p30daa032c5)" d="M 116.090791 281.508861 
L 116.090791 316.793861 
Q 116.090791 319.193861 118.490791 319.193861 
L 126.233291 319.193861 
Q 128.633291 319.193861 128.633291 316.793861 
L 128.633291 281.508861 
Q 128.633291 279.108861 126.233291 279.108861 
L 118.490791 279.108861 
Q 116.090791 279.108861 116.090791 281.508861 
z
" style="fill:#ffffff;stroke:#ffffff;stroke-linejoin:miter;"/>
    </g>
    <g clip-path="url(#p30daa032c5)">
     <!-- Terminal -->
     <g transform="translate(120.154541 281.508861)rotate(-270)scale(0.08 -0.08)">
      <use xlink:href="#DejaVuSans-84"/>
      <use x="60.818359" xlink:href="#DejaVuSans-101"/>
      <use x="122.341797" xlink:href="#DejaVuSans-114"/>
      <use x="163.439453" xlink:href="#DejaVuSans-109"/>
      <use x="260.851562" xlink:href="#DejaVuSans-105"/>
      <use x="288.634766" xlink:href="#DejaVuSans-110"/>
      <use x="352.013672" xlink:href="#DejaVuSans-97"/>
      <use x="413.292969" xlink:href="#DejaVuSans-108"/>
     </g>
    </g>
   </g>
   <g id="text_22">
    <g id="patch_23">
     <path clip-path="url(#p30daa032c5)" d="M 162.084412 281.508861 
L 162.084412 316.793861 
Q 162.084412 319.193861 164.484412 319.193861 
L 172.226912 319.193861 
Q 174.626912 319.193861 174.626912 316.793861 
L 174.626912 281.508861 
Q 174.626912 279.108861 172.226912 279.108861 
L 164.484412 279.108861 
Q 162.084412 279.108861 162.084412 281.508861 
z
" style="fill:#ffffff;stroke:#ffffff;stroke-linejoin:miter;"/>
    </g>
    <g clip-path="url(#p30daa032c5)">
     <!-- Terminal -->
     <g transform="translate(166.148162 281.508861)rotate(-270)scale(0.08 -0.08)">
      <use xlink:href="#DejaVuSans-84"/>
      <use x="60.818359" xlink:href="#DejaVuSans-101"/>
      <use x="122.341797" xlink:href="#DejaVuSans-114"/>
      <use x="163.439453" xlink:href="#DejaVuSans-109"/>
      <use x="260.851562" xlink:href="#DejaVuSans-105"/>
      <use x="288.634766" xlink:href="#DejaVuSans-110"/>
      <use x="352.013672" xlink:href="#DejaVuSans-97"/>
      <use x="413.292969" xlink:href="#DejaVuSans-108"/>
     </g>
    </g>
   </g>
   <g id="text_23">
    <g id="patch_24">
     <path clip-path="url(#p30daa032c5)" d="M 208.078032 281.508861 
L 208.078032 316.793861 
Q 208.078032 319.193861 210.478032 319.193861 
L 218.220532 319.193861 
Q 220.620532 319.193861 220.620532 316.793861 
L 220.620532 281.508861 
Q 220.620532 279.108861 218.220532 279.108861 
L 210.478032 279.108861 
Q 208.078032 279.108861 208.078032 281.508861 
z
" style="fill:#ffffff;stroke:#ffffff;stroke-linejoin:miter;"/>
    </g>
    <g clip-path="url(#p30daa032c5)">
     <!-- Terminal -->
     <g transform="translate(212.141782 281.508861)rotate(-270)scale(0.08 -0.08)">
      <use xlink:href="#DejaVuSans-84"/>
      <use x="60.818359" xlink:href="#DejaVuSans-101"/>
      <use x="122.341797" xlink:href="#DejaVuSans-114"/>
      <use x="163.439453" xlink:href="#DejaVuSans-109"/>
      <use x="260.851562" xlink:href="#DejaVuSans-105"/>
      <use x="288.634766" xlink:href="#DejaVuSans-110"/>
      <use x="352.013672" xlink:href="#DejaVuSans-97"/>
      <use x="413.292969" xlink:href="#DejaVuSans-108"/>
     </g>
    </g>
   </g>
   <g id="text_24">
    <g id="patch_25">
     <path clip-path="url(#p30daa032c5)" d="M 276.736975 242.646211 
L 278.689198 237.441547 
Q 279.532074 235.194424 277.284951 234.351548 
L 270.035639 231.632396 
Q 267.788517 230.78952 266.945641 233.036643 
L 264.993418 238.241307 
Q 264.150542 240.48843 266.397665 241.331305 
L 273.646976 244.050458 
Q 275.894099 244.893333 276.736975 242.646211 
z
" style="fill:#ffffff;stroke:#ffffff;stroke-linejoin:miter;"/>
    </g>
    <g clip-path="url(#p30daa032c5)">
     <!-- R -->
     <defs>
      <path d="M 44.390625 34.1875 
Q 47.5625 33.109375 50.5625 29.59375 
Q 53.5625 26.078125 56.59375 19.921875 
L 66.609375 0 
L 56 0 
L 46.6875 18.703125 
Q 43.0625 26.03125 39.671875 28.421875 
Q 36.28125 30.8125 30.421875 30.8125 
L 19.671875 30.8125 
L 19.671875 0 
L 9.8125 0 
L 9.8125 72.90625 
L 32.078125 72.90625 
Q 44.578125 72.90625 50.734375 67.671875 
Q 56.890625 62.453125 56.890625 51.90625 
Q 56.890625 45.015625 53.6875 40.46875 
Q 50.484375 35.9375 44.390625 34.1875 
z
M 19.671875 64.796875 
L 19.671875 38.921875 
L 32.078125 38.921875 
Q 39.203125 38.921875 42.84375 42.21875 
Q 46.484375 45.515625 46.484375 51.90625 
Q 46.484375 58.296875 42.84375 61.546875 
Q 39.203125 64.796875 32.078125 64.796875 
z
" id="DejaVuSans-82"/>
     </defs>
     <g transform="translate(272.932081 241.219029)rotate(-69.439379)scale(0.08 -0.08)">
      <use xlink:href="#DejaVuSans-82"/>
     </g>
    </g>
   </g>
   <g id="text_25">
    <g id="patch_26">
     <path clip-path="url(#p30daa032c5)" d="M 287.985399 237.428673 
L 289.94728 242.659085 
Q 290.790156 244.906207 293.037278 244.063332 
L 300.28659 241.34418 
Q 302.533713 240.501304 301.690837 238.254181 
L 299.728956 233.023769 
Q 298.88608 230.776646 296.638958 231.619522 
L 289.389646 234.338674 
Q 287.142523 235.18155 287.985399 237.428673 
z
" style="fill:#ffffff;stroke:#ffffff;stroke-linejoin:miter;"/>
    </g>
    <g clip-path="url(#p30daa032c5)">
     <!-- C -->
     <g transform="translate(291.790293 236.001491)rotate(-290.560621)scale(0.08 -0.08)">
      <use xlink:href="#DejaVuSans-67"/>
     </g>
    </g>
   </g>
   <g id="text_26">
    <g id="patch_27">
     <path clip-path="url(#p30daa032c5)" d="M 254.071653 281.508861 
L 254.071653 316.793861 
Q 254.071653 319.193861 256.471653 319.193861 
L 264.214153 319.193861 
Q 266.614153 319.193861 266.614153 316.793861 
L 266.614153 281.508861 
Q 266.614153 279.108861 264.214153 279.108861 
L 256.471653 279.108861 
Q 254.071653 279.108861 254.071653 281.508861 
z
" style="fill:#ffffff;stroke:#ffffff;stroke-linejoin:miter;"/>
    </g>
    <g clip-path="url(#p30daa032c5)">
     <!-- Terminal -->
     <g transform="translate(258.135403 281.508861)rotate(-270)scale(0.08 -0.08)">
      <use xlink:href="#DejaVuSans-84"/>
      <use x="60.818359" xlink:href="#DejaVuSans-101"/>
      <use x="122.341797" xlink:href="#DejaVuSans-114"/>
      <use x="163.439453" xlink:href="#DejaVuSans-109"/>
      <use x="260.851562" xlink:href="#DejaVuSans-105"/>
      <use x="288.634766" xlink:href="#DejaVuSans-110"/>
      <use x="352.013672" xlink:href="#DejaVuSans-97"/>
      <use x="413.292969" xlink:href="#DejaVuSans-108"/>
     </g>
    </g>
   </g>
   <g id="text_27">
    <g id="patch_28">
     <path clip-path="url(#p30daa032c5)" d="M 300.065273 281.508861 
L 300.065273 316.793861 
Q 300.065273 319.193861 302.465273 319.193861 
L 310.207773 319.193861 
Q 312.607773 319.193861 312.607773 316.793861 
L 312.607773 281.508861 
Q 312.607773 279.108861 310.207773 279.108861 
L 302.465273 279.108861 
Q 300.065273 279.108861 300.065273 281.508861 
z
" style="fill:#ffffff;stroke:#ffffff;stroke-linejoin:miter;"/>
    </g>
    <g clip-path="url(#p30daa032c5)">
     <!-- Terminal -->
     <g transform="translate(304.129023 281.508861)rotate(-270)scale(0.08 -0.08)">
      <use xlink:href="#DejaVuSans-84"/>
      <use x="60.818359" xlink:href="#DejaVuSans-101"/>
      <use x="122.341797" xlink:href="#DejaVuSans-114"/>
      <use x="163.439453" xlink:href="#DejaVuSans-109"/>
      <use x="260.851562" xlink:href="#DejaVuSans-105"/>
      <use x="288.634766" xlink:href="#DejaVuSans-110"/>
      <use x="352.013672" xlink:href="#DejaVuSans-97"/>
      <use x="413.292969" xlink:href="#DejaVuSans-108"/>
     </g>
    </g>
   </g>
   <g id="text_28">
    <g id="patch_29">
     <path clip-path="url(#p30daa032c5)" d="M 172.225704 150.442051 
L 178.213387 142.412548 
Q 179.648099 140.488594 177.724145 139.053881 
L 171.517388 134.425439 
Q 169.593434 132.990727 168.158721 134.914681 
L 162.171039 142.944184 
Q 160.736326 144.868138 162.66028 146.302851 
L 168.867037 150.931293 
Q 170.790992 152.366005 172.225704 150.442051 
z
" style="fill:#ffffff;stroke:#ffffff;stroke-linejoin:miter;"/>
    </g>
    <g clip-path="url(#p30daa032c5)">
     <!-- LR -->
     <g transform="translate(168.968008 148.012754)rotate(-53.287729)scale(0.08 -0.08)">
      <use xlink:href="#DejaVuSans-76"/>
      <use x="55.712891" xlink:href="#DejaVuSans-82"/>
     </g>
    </g>
   </g>
   <g id="text_29">
    <g id="patch_30">
     <path clip-path="url(#p30daa032c5)" d="M 351.09847 53.568672 
L 360.486884 56.81093 
Q 362.755416 57.59436 363.538846 55.325828 
L 366.066224 48.00745 
Q 366.849654 45.738918 364.581122 44.955487 
L 355.192708 41.713229 
Q 352.924176 40.929799 352.140746 43.198331 
L 349.613368 50.51671 
Q 348.829938 52.785242 351.09847 53.568672 
z
" style="fill:#ffffff;stroke:#ffffff;stroke-linejoin:miter;"/>
    </g>
    <g clip-path="url(#p30daa032c5)">
     <!-- LA -->
     <g transform="translate(352.424996 49.727527)rotate(-340.947813)scale(0.08 -0.08)">
      <use xlink:href="#DejaVuSans-76"/>
      <use x="55.744141" xlink:href="#DejaVuSans-65"/>
     </g>
    </g>
   </g>
   <g id="text_30">
    <g id="patch_31">
     <path clip-path="url(#p30daa032c5)" d="M 576.026996 281.508861 
L 576.026996 316.793861 
Q 576.026996 319.193861 578.426996 319.193861 
L 586.169496 319.193861 
Q 588.569496 319.193861 588.569496 316.793861 
L 588.569496 281.508861 
Q 588.569496 279.108861 586.169496 279.108861 
L 578.426996 279.108861 
Q 576.026996 279.108861 576.026996 281.508861 
z
" style="fill:#ffffff;stroke:#ffffff;stroke-linejoin:miter;"/>
    </g>
    <g clip-path="url(#p30daa032c5)">
     <!-- Terminal -->
     <g transform="translate(580.090746 281.508861)rotate(-270)scale(0.08 -0.08)">
      <use xlink:href="#DejaVuSans-84"/>
      <use x="60.818359" xlink:href="#DejaVuSans-101"/>
      <use x="122.341797" xlink:href="#DejaVuSans-114"/>
      <use x="163.439453" xlink:href="#DejaVuSans-109"/>
      <use x="260.851562" xlink:href="#DejaVuSans-105"/>
      <use x="288.634766" xlink:href="#DejaVuSans-110"/>
      <use x="352.013672" xlink:href="#DejaVuSans-97"/>
      <use x="413.292969" xlink:href="#DejaVuSans-108"/>
     </g>
    </g>
   </g>
   <g id="PathCollection_1">
    <defs>
     <path d="M 0 8.660254 
C 2.296726 8.660254 4.499694 7.747755 6.123724 6.123724 
C 7.747755 4.499694 8.660254 2.296726 8.660254 0 
C 8.660254 -2.296726 7.747755 -4.499694 6.123724 -6.123724 
C 4.499694 -7.747755 2.296726 -8.660254 0 -8.660254 
C -2.296726 -8.660254 -4.499694 -7.747755 -6.123724 -6.123724 
C -7.747755 -4.499694 -8.660254 -2.296726 -8.660254 0 
C -8.660254 2.296726 -7.747755 4.499694 -6.123724 6.123724 
C -4.499694 7.747755 -2.296726 8.660254 0 8.660254 
z
" id="C0_0_d9cc4cf461"/>
    </defs>
    <g clip-path="url(#p30daa032c5)">
     <use style="fill:#ffffff;stroke:#ffffff;" x="30.374801" xlink:href="#C0_0_d9cc4cf461" y="329.806329"/>
    </g>
    <g clip-path="url(#p30daa032c5)">
     <use style="fill:#ffffff;stroke:#ffffff;" x="76.368421" xlink:href="#C0_0_d9cc4cf461" y="329.806329"/>
    </g>
    <g clip-path="url(#p30daa032c5)">
     <use style="fill:#ffffff;stroke:#ffffff;" x="122.362041" xlink:href="#C0_0_d9cc4cf461" y="329.806329"/>
    </g>
    <g clip-path="url(#p30daa032c5)">
     <use style="fill:#ffffff;stroke:#ffffff;" x="168.355662" xlink:href="#C0_0_d9cc4cf461" y="329.806329"/>
    </g>
    <g clip-path="url(#p30daa032c5)">
     <use style="fill:#ffffff;stroke:#ffffff;" x="214.349282" xlink:href="#C0_0_d9cc4cf461" y="329.806329"/>
    </g>
    <g clip-path="url(#p30daa032c5)">
     <use style="fill:#ffffff;stroke:#ffffff;" x="260.342903" xlink:href="#C0_0_d9cc4cf461" y="329.806329"/>
    </g>
    <g clip-path="url(#p30daa032c5)">
     <use style="fill:#ffffff;stroke:#ffffff;" x="306.336523" xlink:href="#C0_0_d9cc4cf461" y="329.806329"/>
    </g>
    <g clip-path="url(#p30daa032c5)">
     <use style="fill:#ffffff;stroke:#ffffff;" x="352.330144" xlink:href="#C0_0_d9cc4cf461" y="329.806329"/>
    </g>
    <g clip-path="url(#p30daa032c5)">
     <use style="fill:#ffffff;stroke:#ffffff;" x="398.323764" xlink:href="#C0_0_d9cc4cf461" y="329.806329"/>
    </g>
    <g clip-path="url(#p30daa032c5)">
     <use style="fill:#ffffff;stroke:#ffffff;" x="444.317384" xlink:href="#C0_0_d9cc4cf461" y="329.806329"/>
    </g>
    <g clip-path="url(#p30daa032c5)">
     <use style="fill:#ffffff;stroke:#ffffff;" x="490.311005" xlink:href="#C0_0_d9cc4cf461" y="329.806329"/>
    </g>
    <g clip-path="url(#p30daa032c5)">
     <use style="fill:#ffffff;stroke:#ffffff;" x="536.304625" xlink:href="#C0_0_d9cc4cf461" y="329.806329"/>
    </g>
    <g clip-path="url(#p30daa032c5)">
     <use style="fill:#ffffff;stroke:#ffffff;" x="582.298246" xlink:href="#C0_0_d9cc4cf461" y="329.806329"/>
    </g>
    <g clip-path="url(#p30daa032c5)">
     <use style="fill:#ffffff;stroke:#ffffff;" x="186.135603" xlink:href="#C0_0_d9cc4cf461" y="16.860338"/>
    </g>
    <g clip-path="url(#p30daa032c5)">
     <use style="fill:#ffffff;stroke:#ffffff;" x="30.374801" xlink:href="#C0_0_d9cc4cf461" y="268.496394"/>
    </g>
    <g clip-path="url(#p30daa032c5)">
     <use style="fill:#ffffff;stroke:#ffffff;" x="76.368421" xlink:href="#C0_0_d9cc4cf461" y="268.496394"/>
    </g>
    <g clip-path="url(#p30daa032c5)">
     <use style="fill:#ffffff;stroke:#ffffff;" x="451.663588" xlink:href="#C0_0_d9cc4cf461" y="81.663821"/>
    </g>
    <g clip-path="url(#p30daa032c5)">
     <use style="fill:#ffffff;stroke:#ffffff;" x="628.291866" xlink:href="#C0_0_d9cc4cf461" y="329.806329"/>
    </g>
    <g clip-path="url(#p30daa032c5)">
     <use style="fill:#ffffff;stroke:#ffffff;" x="197.101675" xlink:href="#C0_0_d9cc4cf461" y="145.023636"/>
    </g>
    <g clip-path="url(#p30daa032c5)">
     <use style="fill:#ffffff;stroke:#ffffff;" x="352.330144" xlink:href="#C0_0_d9cc4cf461" y="268.496394"/>
    </g>
    <g clip-path="url(#p30daa032c5)">
     <use style="fill:#ffffff;stroke:#ffffff;" x="459.648591" xlink:href="#C0_0_d9cc4cf461" y="268.496394"/>
    </g>
    <g clip-path="url(#p30daa032c5)">
     <use style="fill:#ffffff;stroke:#ffffff;" x="490.311005" xlink:href="#C0_0_d9cc4cf461" y="268.496394"/>
    </g>
    <g clip-path="url(#p30daa032c5)">
     <use style="fill:#ffffff;stroke:#ffffff;" x="122.362041" xlink:href="#C0_0_d9cc4cf461" y="268.496394"/>
    </g>
    <g clip-path="url(#p30daa032c5)">
     <use style="fill:#ffffff;stroke:#ffffff;" x="168.355662" xlink:href="#C0_0_d9cc4cf461" y="268.496394"/>
    </g>
    <g clip-path="url(#p30daa032c5)">
     <use style="fill:#ffffff;stroke:#ffffff;" x="214.349282" xlink:href="#C0_0_d9cc4cf461" y="268.496394"/>
    </g>
    <g clip-path="url(#p30daa032c5)">
     <use style="fill:#ffffff;stroke:#ffffff;" x="283.339713" xlink:href="#C0_0_d9cc4cf461" y="207.18646"/>
    </g>
    <g clip-path="url(#p30daa032c5)">
     <use style="fill:#ffffff;stroke:#ffffff;" x="260.342903" xlink:href="#C0_0_d9cc4cf461" y="268.496394"/>
    </g>
    <g clip-path="url(#p30daa032c5)">
     <use style="fill:#ffffff;stroke:#ffffff;" x="306.336523" xlink:href="#C0_0_d9cc4cf461" y="268.496394"/>
    </g>
    <g clip-path="url(#p30daa032c5)">
     <use style="fill:#808080;stroke:#808080;" x="264.016004" xlink:href="#C0_0_d9cc4cf461" y="16.860338"/>
    </g>
    <g clip-path="url(#p30daa032c5)">
     <use style="fill:#ffffff;stroke:#ffffff;" x="582.298246" xlink:href="#C0_0_d9cc4cf461" y="268.496394"/>
    </g>
   </g>
   <g id="text_31">
    <g clip-path="url(#p30daa032c5)">
     <!-- Et -->
     <defs>
      <path d="M 18.3125 70.21875 
L 18.3125 54.6875 
L 36.8125 54.6875 
L 36.8125 47.703125 
L 18.3125 47.703125 
L 18.3125 18.015625 
Q 18.3125 11.328125 20.140625 9.421875 
Q 21.96875 7.515625 27.59375 7.515625 
L 36.8125 7.515625 
L 36.8125 0 
L 27.59375 0 
Q 17.1875 0 13.234375 3.875 
Q 9.28125 7.765625 9.28125 18.015625 
L 9.28125 47.703125 
L 2.6875 47.703125 
L 2.6875 54.6875 
L 9.28125 54.6875 
L 9.28125 70.21875 
z
" id="DejaVuSans-116"/>
     </defs>
     <g transform="translate(25.255269 332.565704)scale(0.1 -0.1)">
      <use xlink:href="#DejaVuSans-69"/>
      <use x="63.183594" xlink:href="#DejaVuSans-116"/>
     </g>
    </g>
   </g>
   <g id="text_32">
    <g clip-path="url(#p30daa032c5)">
     <!-- pourtant -->
     <defs>
      <path d="M 18.109375 8.203125 
L 18.109375 -20.796875 
L 9.078125 -20.796875 
L 9.078125 54.6875 
L 18.109375 54.6875 
L 18.109375 46.390625 
Q 20.953125 51.265625 25.265625 53.625 
Q 29.59375 56 35.59375 56 
Q 45.5625 56 51.78125 48.09375 
Q 58.015625 40.1875 58.015625 27.296875 
Q 58.015625 14.40625 51.78125 6.484375 
Q 45.5625 -1.421875 35.59375 -1.421875 
Q 29.59375 -1.421875 25.265625 0.953125 
Q 20.953125 3.328125 18.109375 8.203125 
z
M 48.6875 27.296875 
Q 48.6875 37.203125 44.609375 42.84375 
Q 40.53125 48.484375 33.40625 48.484375 
Q 26.265625 48.484375 22.1875 42.84375 
Q 18.109375 37.203125 18.109375 27.296875 
Q 18.109375 17.390625 22.1875 11.75 
Q 26.265625 6.109375 33.40625 6.109375 
Q 40.53125 6.109375 44.609375 11.75 
Q 48.6875 17.390625 48.6875 27.296875 
z
" id="DejaVuSans-112"/>
      <path d="M 30.609375 48.390625 
Q 23.390625 48.390625 19.1875 42.75 
Q 14.984375 37.109375 14.984375 27.296875 
Q 14.984375 17.484375 19.15625 11.84375 
Q 23.34375 6.203125 30.609375 6.203125 
Q 37.796875 6.203125 41.984375 11.859375 
Q 46.1875 17.53125 46.1875 27.296875 
Q 46.1875 37.015625 41.984375 42.703125 
Q 37.796875 48.390625 30.609375 48.390625 
z
M 30.609375 56 
Q 42.328125 56 49.015625 48.375 
Q 55.71875 40.765625 55.71875 27.296875 
Q 55.71875 13.875 49.015625 6.21875 
Q 42.328125 -1.421875 30.609375 -1.421875 
Q 18.84375 -1.421875 12.171875 6.21875 
Q 5.515625 13.875 5.515625 27.296875 
Q 5.515625 40.765625 12.171875 48.375 
Q 18.84375 56 30.609375 56 
z
" id="DejaVuSans-111"/>
      <path d="M 8.5 21.578125 
L 8.5 54.6875 
L 17.484375 54.6875 
L 17.484375 21.921875 
Q 17.484375 14.15625 20.5 10.265625 
Q 23.53125 6.390625 29.59375 6.390625 
Q 36.859375 6.390625 41.078125 11.03125 
Q 45.3125 15.671875 45.3125 23.6875 
L 45.3125 54.6875 
L 54.296875 54.6875 
L 54.296875 0 
L 45.3125 0 
L 45.3125 8.40625 
Q 42.046875 3.421875 37.71875 1 
Q 33.40625 -1.421875 27.6875 -1.421875 
Q 18.265625 -1.421875 13.375 4.4375 
Q 8.5 10.296875 8.5 21.578125 
z
M 31.109375 56 
z
" id="DejaVuSans-117"/>
     </defs>
     <g transform="translate(54.757483 332.565704)scale(0.1 -0.1)">
      <use xlink:href="#DejaVuSans-112"/>
      <use x="63.476562" xlink:href="#DejaVuSans-111"/>
      <use x="124.658203" xlink:href="#DejaVuSans-117"/>
      <use x="188.037109" xlink:href="#DejaVuSans-114"/>
      <use x="229.150391" xlink:href="#DejaVuSans-116"/>
      <use x="268.359375" xlink:href="#DejaVuSans-97"/>
      <use x="329.638672" xlink:href="#DejaVuSans-110"/>
      <use x="393.017578" xlink:href="#DejaVuSans-116"/>
     </g>
    </g>
   </g>
   <g id="text_33">
    <g clip-path="url(#p30daa032c5)">
     <!-- sa -->
     <defs>
      <path d="M 44.28125 53.078125 
L 44.28125 44.578125 
Q 40.484375 46.53125 36.375 47.5 
Q 32.28125 48.484375 27.875 48.484375 
Q 21.1875 48.484375 17.84375 46.4375 
Q 14.5 44.390625 14.5 40.28125 
Q 14.5 37.15625 16.890625 35.375 
Q 19.28125 33.59375 26.515625 31.984375 
L 29.59375 31.296875 
Q 39.15625 29.25 43.1875 25.515625 
Q 47.21875 21.78125 47.21875 15.09375 
Q 47.21875 7.46875 41.1875 3.015625 
Q 35.15625 -1.421875 24.609375 -1.421875 
Q 20.21875 -1.421875 15.453125 -0.5625 
Q 10.6875 0.296875 5.421875 2 
L 5.421875 11.28125 
Q 10.40625 8.6875 15.234375 7.390625 
Q 20.0625 6.109375 24.8125 6.109375 
Q 31.15625 6.109375 34.5625 8.28125 
Q 37.984375 10.453125 37.984375 14.40625 
Q 37.984375 18.0625 35.515625 20.015625 
Q 33.0625 21.96875 24.703125 23.78125 
L 21.578125 24.515625 
Q 13.234375 26.265625 9.515625 29.90625 
Q 5.8125 33.546875 5.8125 39.890625 
Q 5.8125 47.609375 11.28125 51.796875 
Q 16.75 56 26.8125 56 
Q 31.78125 56 36.171875 55.265625 
Q 40.578125 54.546875 44.28125 53.078125 
z
" id="DejaVuSans-115"/>
     </defs>
     <g transform="translate(116.693291 332.565704)scale(0.1 -0.1)">
      <use xlink:href="#DejaVuSans-115"/>
      <use x="52.099609" xlink:href="#DejaVuSans-97"/>
     </g>
    </g>
   </g>
   <g id="text_34">
    <g clip-path="url(#p30daa032c5)">
     <!-- merveilleuse -->
     <defs>
      <path d="M 2.984375 54.6875 
L 12.5 54.6875 
L 29.59375 8.796875 
L 46.6875 54.6875 
L 56.203125 54.6875 
L 35.6875 0 
L 23.484375 0 
z
" id="DejaVuSans-118"/>
     </defs>
     <g transform="translate(136.223631 332.565704)scale(0.1 -0.1)">
      <use xlink:href="#DejaVuSans-109"/>
      <use x="97.412109" xlink:href="#DejaVuSans-101"/>
      <use x="158.935547" xlink:href="#DejaVuSans-114"/>
      <use x="200.048828" xlink:href="#DejaVuSans-118"/>
      <use x="259.228516" xlink:href="#DejaVuSans-101"/>
      <use x="320.751953" xlink:href="#DejaVuSans-105"/>
      <use x="348.535156" xlink:href="#DejaVuSans-108"/>
      <use x="376.318359" xlink:href="#DejaVuSans-108"/>
      <use x="404.101562" xlink:href="#DejaVuSans-101"/>
      <use x="465.625" xlink:href="#DejaVuSans-117"/>
      <use x="529.003906" xlink:href="#DejaVuSans-115"/>
      <use x="581.103516" xlink:href="#DejaVuSans-101"/>
     </g>
    </g>
   </g>
   <g id="text_35">
    <g clip-path="url(#p30daa032c5)">
     <!-- puissance -->
     <defs>
      <path d="M 48.78125 52.59375 
L 48.78125 44.1875 
Q 44.96875 46.296875 41.140625 47.34375 
Q 37.3125 48.390625 33.40625 48.390625 
Q 24.65625 48.390625 19.8125 42.84375 
Q 14.984375 37.3125 14.984375 27.296875 
Q 14.984375 17.28125 19.8125 11.734375 
Q 24.65625 6.203125 33.40625 6.203125 
Q 37.3125 6.203125 41.140625 7.25 
Q 44.96875 8.296875 48.78125 10.40625 
L 48.78125 2.09375 
Q 45.015625 0.34375 40.984375 -0.53125 
Q 36.96875 -1.421875 32.421875 -1.421875 
Q 20.0625 -1.421875 12.78125 6.34375 
Q 5.515625 14.109375 5.515625 27.296875 
Q 5.515625 40.671875 12.859375 48.328125 
Q 20.21875 56 33.015625 56 
Q 37.15625 56 41.109375 55.140625 
Q 45.0625 54.296875 48.78125 52.59375 
z
" id="DejaVuSans-99"/>
     </defs>
     <g transform="translate(189.349282 332.565704)scale(0.1 -0.1)">
      <use xlink:href="#DejaVuSans-112"/>
      <use x="63.476562" xlink:href="#DejaVuSans-117"/>
      <use x="126.855469" xlink:href="#DejaVuSans-105"/>
      <use x="154.638672" xlink:href="#DejaVuSans-115"/>
      <use x="206.738281" xlink:href="#DejaVuSans-115"/>
      <use x="258.837891" xlink:href="#DejaVuSans-97"/>
      <use x="320.117188" xlink:href="#DejaVuSans-110"/>
      <use x="383.496094" xlink:href="#DejaVuSans-99"/>
      <use x="438.476562" xlink:href="#DejaVuSans-101"/>
     </g>
    </g>
   </g>
   <g id="text_36">
    <g clip-path="url(#p30daa032c5)">
     <!-- de -->
     <defs>
      <path d="M 45.40625 46.390625 
L 45.40625 75.984375 
L 54.390625 75.984375 
L 54.390625 0 
L 45.40625 0 
L 45.40625 8.203125 
Q 42.578125 3.328125 38.25 0.953125 
Q 33.9375 -1.421875 27.875 -1.421875 
Q 17.96875 -1.421875 11.734375 6.484375 
Q 5.515625 14.40625 5.515625 27.296875 
Q 5.515625 40.1875 11.734375 48.09375 
Q 17.96875 56 27.875 56 
Q 33.9375 56 38.25 53.625 
Q 42.578125 51.265625 45.40625 46.390625 
z
M 14.796875 27.296875 
Q 14.796875 17.390625 18.875 11.75 
Q 22.953125 6.109375 30.078125 6.109375 
Q 37.203125 6.109375 41.296875 11.75 
Q 45.40625 17.390625 45.40625 27.296875 
Q 45.40625 37.203125 41.296875 42.84375 
Q 37.203125 48.484375 30.078125 48.484375 
Q 22.953125 48.484375 18.875 42.84375 
Q 14.796875 37.203125 14.796875 27.296875 
z
" id="DejaVuSans-100"/>
     </defs>
     <g transform="translate(254.092121 332.565704)scale(0.1 -0.1)">
      <use xlink:href="#DejaVuSans-100"/>
      <use x="63.476562" xlink:href="#DejaVuSans-101"/>
     </g>
    </g>
   </g>
   <g id="text_37">
    <g clip-path="url(#p30daa032c5)">
     <!-- vision -->
     <g transform="translate(291.766211 332.565704)scale(0.1 -0.1)">
      <use xlink:href="#DejaVuSans-118"/>
      <use x="59.179688" xlink:href="#DejaVuSans-105"/>
      <use x="86.962891" xlink:href="#DejaVuSans-115"/>
      <use x="139.0625" xlink:href="#DejaVuSans-105"/>
      <use x="166.845703" xlink:href="#DejaVuSans-111"/>
      <use x="228.027344" xlink:href="#DejaVuSans-110"/>
     </g>
    </g>
   </g>
   <g id="text_38">
    <g clip-path="url(#p30daa032c5)">
     <!-- aurait -->
     <g transform="translate(337.628581 332.565704)scale(0.1 -0.1)">
      <use xlink:href="#DejaVuSans-97"/>
      <use x="61.279297" xlink:href="#DejaVuSans-117"/>
      <use x="124.658203" xlink:href="#DejaVuSans-114"/>
      <use x="165.771484" xlink:href="#DejaVuSans-97"/>
      <use x="227.050781" xlink:href="#DejaVuSans-105"/>
      <use x="254.833984" xlink:href="#DejaVuSans-116"/>
     </g>
    </g>
   </g>
   <g id="text_39">
    <g clip-path="url(#p30daa032c5)">
     <!-- rendu -->
     <g transform="translate(383.681576 332.565704)scale(0.1 -0.1)">
      <use xlink:href="#DejaVuSans-114"/>
      <use x="41.082031" xlink:href="#DejaVuSans-101"/>
      <use x="102.605469" xlink:href="#DejaVuSans-110"/>
      <use x="165.984375" xlink:href="#DejaVuSans-100"/>
      <use x="229.460938" xlink:href="#DejaVuSans-117"/>
     </g>
    </g>
   </g>
   <g id="text_40">
    <g clip-path="url(#p30daa032c5)">
     <!-- de -->
     <g transform="translate(438.066603 332.565704)scale(0.1 -0.1)">
      <use xlink:href="#DejaVuSans-100"/>
      <use x="63.476562" xlink:href="#DejaVuSans-101"/>
     </g>
    </g>
   </g>
   <g id="text_41">
    <g clip-path="url(#p30daa032c5)">
     <!-- grands -->
     <defs>
      <path d="M 45.40625 27.984375 
Q 45.40625 37.75 41.375 43.109375 
Q 37.359375 48.484375 30.078125 48.484375 
Q 22.859375 48.484375 18.828125 43.109375 
Q 14.796875 37.75 14.796875 27.984375 
Q 14.796875 18.265625 18.828125 12.890625 
Q 22.859375 7.515625 30.078125 7.515625 
Q 37.359375 7.515625 41.375 12.890625 
Q 45.40625 18.265625 45.40625 27.984375 
z
M 54.390625 6.78125 
Q 54.390625 -7.171875 48.1875 -13.984375 
Q 42 -20.796875 29.203125 -20.796875 
Q 24.46875 -20.796875 20.265625 -20.09375 
Q 16.0625 -19.390625 12.109375 -17.921875 
L 12.109375 -9.1875 
Q 16.0625 -11.328125 19.921875 -12.34375 
Q 23.78125 -13.375 27.78125 -13.375 
Q 36.625 -13.375 41.015625 -8.765625 
Q 45.40625 -4.15625 45.40625 5.171875 
L 45.40625 9.625 
Q 42.625 4.78125 38.28125 2.390625 
Q 33.9375 0 27.875 0 
Q 17.828125 0 11.671875 7.65625 
Q 5.515625 15.328125 5.515625 27.984375 
Q 5.515625 40.671875 11.671875 48.328125 
Q 17.828125 56 27.875 56 
Q 33.9375 56 38.28125 53.609375 
Q 42.625 51.21875 45.40625 46.390625 
L 45.40625 54.6875 
L 54.390625 54.6875 
z
" id="DejaVuSans-103"/>
     </defs>
     <g transform="translate(473.069599 332.565704)scale(0.1 -0.1)">
      <use xlink:href="#DejaVuSans-103"/>
      <use x="63.476562" xlink:href="#DejaVuSans-114"/>
      <use x="104.589844" xlink:href="#DejaVuSans-97"/>
      <use x="165.869141" xlink:href="#DejaVuSans-110"/>
      <use x="229.248047" xlink:href="#DejaVuSans-100"/>
      <use x="292.724609" xlink:href="#DejaVuSans-115"/>
     </g>
    </g>
   </g>
   <g id="text_42">
    <g clip-path="url(#p30daa032c5)">
     <!-- services -->
     <g transform="translate(515.789 332.565704)scale(0.1 -0.1)">
      <use xlink:href="#DejaVuSans-115"/>
      <use x="52.099609" xlink:href="#DejaVuSans-101"/>
      <use x="113.623047" xlink:href="#DejaVuSans-114"/>
      <use x="154.736328" xlink:href="#DejaVuSans-118"/>
      <use x="213.916016" xlink:href="#DejaVuSans-105"/>
      <use x="241.699219" xlink:href="#DejaVuSans-99"/>
      <use x="296.679688" xlink:href="#DejaVuSans-101"/>
      <use x="358.203125" xlink:href="#DejaVuSans-115"/>
     </g>
    </g>
   </g>
   <g id="text_43">
    <g clip-path="url(#p30daa032c5)">
     <!-- . -->
     <defs>
      <path d="M 10.6875 12.40625 
L 21 12.40625 
L 21 0 
L 10.6875 0 
z
" id="DejaVuSans-46"/>
     </defs>
     <g transform="translate(580.709183 332.565704)scale(0.1 -0.1)">
      <use xlink:href="#DejaVuSans-46"/>
     </g>
    </g>
   </g>
   <g id="text_44">
    <g clip-path="url(#p30daa032c5)">
     <!-- 1.1 -->
     <defs>
      <path d="M 12.40625 8.296875 
L 28.515625 8.296875 
L 28.515625 63.921875 
L 10.984375 60.40625 
L 10.984375 69.390625 
L 28.421875 72.90625 
L 38.28125 72.90625 
L 38.28125 8.296875 
L 54.390625 8.296875 
L 54.390625 0 
L 12.40625 0 
z
" id="DejaVuSans-49"/>
     </defs>
     <g transform="translate(178.184041 19.619713)scale(0.1 -0.1)">
      <use xlink:href="#DejaVuSans-49"/>
      <use x="63.623047" xlink:href="#DejaVuSans-46"/>
      <use x="95.410156" xlink:href="#DejaVuSans-49"/>
     </g>
    </g>
   </g>
   <g id="text_45">
    <g clip-path="url(#p30daa032c5)">
     <!-- 1.2 -->
     <defs>
      <path d="M 19.1875 8.296875 
L 53.609375 8.296875 
L 53.609375 0 
L 7.328125 0 
L 7.328125 8.296875 
Q 12.9375 14.109375 22.625 23.890625 
Q 32.328125 33.6875 34.8125 36.53125 
Q 39.546875 41.84375 41.421875 45.53125 
Q 43.3125 49.21875 43.3125 52.78125 
Q 43.3125 58.59375 39.234375 62.25 
Q 35.15625 65.921875 28.609375 65.921875 
Q 23.96875 65.921875 18.8125 64.3125 
Q 13.671875 62.703125 7.8125 59.421875 
L 7.8125 69.390625 
Q 13.765625 71.78125 18.9375 73 
Q 24.125 74.21875 28.421875 74.21875 
Q 39.75 74.21875 46.484375 68.546875 
Q 53.21875 62.890625 53.21875 53.421875 
Q 53.21875 48.921875 51.53125 44.890625 
Q 49.859375 40.875 45.40625 35.40625 
Q 44.1875 33.984375 37.640625 27.21875 
Q 31.109375 20.453125 19.1875 8.296875 
z
" id="DejaVuSans-50"/>
     </defs>
     <g transform="translate(22.423238 271.255769)scale(0.1 -0.1)">
      <use xlink:href="#DejaVuSans-49"/>
      <use x="63.623047" xlink:href="#DejaVuSans-46"/>
      <use x="95.410156" xlink:href="#DejaVuSans-50"/>
     </g>
    </g>
   </g>
   <g id="text_46">
    <g clip-path="url(#p30daa032c5)">
     <!-- 1.3 -->
     <defs>
      <path d="M 40.578125 39.3125 
Q 47.65625 37.796875 51.625 33 
Q 55.609375 28.21875 55.609375 21.1875 
Q 55.609375 10.40625 48.1875 4.484375 
Q 40.765625 -1.421875 27.09375 -1.421875 
Q 22.515625 -1.421875 17.65625 -0.515625 
Q 12.796875 0.390625 7.625 2.203125 
L 7.625 11.71875 
Q 11.71875 9.328125 16.59375 8.109375 
Q 21.484375 6.890625 26.8125 6.890625 
Q 36.078125 6.890625 40.9375 10.546875 
Q 45.796875 14.203125 45.796875 21.1875 
Q 45.796875 27.640625 41.28125 31.265625 
Q 36.765625 34.90625 28.71875 34.90625 
L 20.21875 34.90625 
L 20.21875 43.015625 
L 29.109375 43.015625 
Q 36.375 43.015625 40.234375 45.921875 
Q 44.09375 48.828125 44.09375 54.296875 
Q 44.09375 59.90625 40.109375 62.90625 
Q 36.140625 65.921875 28.71875 65.921875 
Q 24.65625 65.921875 20.015625 65.03125 
Q 15.375 64.15625 9.8125 62.3125 
L 9.8125 71.09375 
Q 15.4375 72.65625 20.34375 73.4375 
Q 25.25 74.21875 29.59375 74.21875 
Q 40.828125 74.21875 47.359375 69.109375 
Q 53.90625 64.015625 53.90625 55.328125 
Q 53.90625 49.265625 50.4375 45.09375 
Q 46.96875 40.921875 40.578125 39.3125 
z
" id="DejaVuSans-51"/>
     </defs>
     <g transform="translate(68.416858 271.255769)scale(0.1 -0.1)">
      <use xlink:href="#DejaVuSans-49"/>
      <use x="63.623047" xlink:href="#DejaVuSans-46"/>
      <use x="95.410156" xlink:href="#DejaVuSans-51"/>
     </g>
    </g>
   </g>
   <g id="text_47">
    <g clip-path="url(#p30daa032c5)">
     <!-- 1.4 -->
     <defs>
      <path d="M 37.796875 64.3125 
L 12.890625 25.390625 
L 37.796875 25.390625 
z
M 35.203125 72.90625 
L 47.609375 72.90625 
L 47.609375 25.390625 
L 58.015625 25.390625 
L 58.015625 17.1875 
L 47.609375 17.1875 
L 47.609375 0 
L 37.796875 0 
L 37.796875 17.1875 
L 4.890625 17.1875 
L 4.890625 26.703125 
z
" id="DejaVuSans-52"/>
     </defs>
     <g transform="translate(443.712025 84.423196)scale(0.1 -0.1)">
      <use xlink:href="#DejaVuSans-49"/>
      <use x="63.623047" xlink:href="#DejaVuSans-46"/>
      <use x="95.410156" xlink:href="#DejaVuSans-52"/>
     </g>
    </g>
   </g>
   <g id="text_48">
    <g clip-path="url(#p30daa032c5)">
     <!-- IMPLICIT -->
     <defs>
      <path d="M 9.8125 72.90625 
L 19.671875 72.90625 
L 19.671875 0 
L 9.8125 0 
z
" id="DejaVuSans-73"/>
      <path d="M 9.8125 72.90625 
L 24.515625 72.90625 
L 43.109375 23.296875 
L 61.8125 72.90625 
L 76.515625 72.90625 
L 76.515625 0 
L 66.890625 0 
L 66.890625 64.015625 
L 48.09375 14.015625 
L 38.1875 14.015625 
L 19.390625 64.015625 
L 19.390625 0 
L 9.8125 0 
z
" id="DejaVuSans-77"/>
     </defs>
     <g transform="translate(607.20671 332.565704)scale(0.1 -0.1)">
      <use xlink:href="#DejaVuSans-73"/>
      <use x="29.492188" xlink:href="#DejaVuSans-77"/>
      <use x="115.771484" xlink:href="#DejaVuSans-80"/>
      <use x="176.074219" xlink:href="#DejaVuSans-76"/>
      <use x="231.787109" xlink:href="#DejaVuSans-73"/>
      <use x="261.279297" xlink:href="#DejaVuSans-67"/>
      <use x="331.103516" xlink:href="#DejaVuSans-73"/>
      <use x="360.595703" xlink:href="#DejaVuSans-84"/>
     </g>
    </g>
   </g>
   <g id="text_49">
    <g clip-path="url(#p30daa032c5)">
     <!-- 1.7 -->
     <defs>
      <path d="M 8.203125 72.90625 
L 55.078125 72.90625 
L 55.078125 68.703125 
L 28.609375 0 
L 18.3125 0 
L 43.21875 64.59375 
L 8.203125 64.59375 
z
" id="DejaVuSans-55"/>
     </defs>
     <g transform="translate(189.150112 147.783011)scale(0.1 -0.1)">
      <use xlink:href="#DejaVuSans-49"/>
      <use x="63.623047" xlink:href="#DejaVuSans-46"/>
      <use x="95.410156" xlink:href="#DejaVuSans-55"/>
     </g>
    </g>
   </g>
   <g id="text_50">
    <g clip-path="url(#p30daa032c5)">
     <!-- 1.8 -->
     <defs>
      <path d="M 31.78125 34.625 
Q 24.75 34.625 20.71875 30.859375 
Q 16.703125 27.09375 16.703125 20.515625 
Q 16.703125 13.921875 20.71875 10.15625 
Q 24.75 6.390625 31.78125 6.390625 
Q 38.8125 6.390625 42.859375 10.171875 
Q 46.921875 13.96875 46.921875 20.515625 
Q 46.921875 27.09375 42.890625 30.859375 
Q 38.875 34.625 31.78125 34.625 
z
M 21.921875 38.8125 
Q 15.578125 40.375 12.03125 44.71875 
Q 8.5 49.078125 8.5 55.328125 
Q 8.5 64.0625 14.71875 69.140625 
Q 20.953125 74.21875 31.78125 74.21875 
Q 42.671875 74.21875 48.875 69.140625 
Q 55.078125 64.0625 55.078125 55.328125 
Q 55.078125 49.078125 51.53125 44.71875 
Q 48 40.375 41.703125 38.8125 
Q 48.828125 37.15625 52.796875 32.3125 
Q 56.78125 27.484375 56.78125 20.515625 
Q 56.78125 9.90625 50.3125 4.234375 
Q 43.84375 -1.421875 31.78125 -1.421875 
Q 19.734375 -1.421875 13.25 4.234375 
Q 6.78125 9.90625 6.78125 20.515625 
Q 6.78125 27.484375 10.78125 32.3125 
Q 14.796875 37.15625 21.921875 38.8125 
z
M 18.3125 54.390625 
Q 18.3125 48.734375 21.84375 45.5625 
Q 25.390625 42.390625 31.78125 42.390625 
Q 38.140625 42.390625 41.71875 45.5625 
Q 45.3125 48.734375 45.3125 54.390625 
Q 45.3125 60.0625 41.71875 63.234375 
Q 38.140625 66.40625 31.78125 66.40625 
Q 25.390625 66.40625 21.84375 63.234375 
Q 18.3125 60.0625 18.3125 54.390625 
z
" id="DejaVuSans-56"/>
     </defs>
     <g transform="translate(344.378581 271.255769)scale(0.1 -0.1)">
      <use xlink:href="#DejaVuSans-49"/>
      <use x="63.623047" xlink:href="#DejaVuSans-46"/>
      <use x="95.410156" xlink:href="#DejaVuSans-56"/>
     </g>
    </g>
   </g>
   <g id="text_51">
    <g clip-path="url(#p30daa032c5)">
     <!-- 1.9 -->
     <defs>
      <path d="M 10.984375 1.515625 
L 10.984375 10.5 
Q 14.703125 8.734375 18.5 7.8125 
Q 22.3125 6.890625 25.984375 6.890625 
Q 35.75 6.890625 40.890625 13.453125 
Q 46.046875 20.015625 46.78125 33.40625 
Q 43.953125 29.203125 39.59375 26.953125 
Q 35.25 24.703125 29.984375 24.703125 
Q 19.046875 24.703125 12.671875 31.3125 
Q 6.296875 37.9375 6.296875 49.421875 
Q 6.296875 60.640625 12.9375 67.421875 
Q 19.578125 74.21875 30.609375 74.21875 
Q 43.265625 74.21875 49.921875 64.515625 
Q 56.59375 54.828125 56.59375 36.375 
Q 56.59375 19.140625 48.40625 8.859375 
Q 40.234375 -1.421875 26.421875 -1.421875 
Q 22.703125 -1.421875 18.890625 -0.6875 
Q 15.09375 0.046875 10.984375 1.515625 
z
M 30.609375 32.421875 
Q 37.25 32.421875 41.125 36.953125 
Q 45.015625 41.5 45.015625 49.421875 
Q 45.015625 57.28125 41.125 61.84375 
Q 37.25 66.40625 30.609375 66.40625 
Q 23.96875 66.40625 20.09375 61.84375 
Q 16.21875 57.28125 16.21875 49.421875 
Q 16.21875 41.5 20.09375 36.953125 
Q 23.96875 32.421875 30.609375 32.421875 
z
" id="DejaVuSans-57"/>
     </defs>
     <g transform="translate(451.697029 271.255769)scale(0.1 -0.1)">
      <use xlink:href="#DejaVuSans-49"/>
      <use x="63.623047" xlink:href="#DejaVuSans-46"/>
      <use x="95.410156" xlink:href="#DejaVuSans-57"/>
     </g>
    </g>
   </g>
   <g id="text_52">
    <g clip-path="url(#p30daa032c5)">
     <!-- 1.10 -->
     <defs>
      <path d="M 31.78125 66.40625 
Q 24.171875 66.40625 20.328125 58.90625 
Q 16.5 51.421875 16.5 36.375 
Q 16.5 21.390625 20.328125 13.890625 
Q 24.171875 6.390625 31.78125 6.390625 
Q 39.453125 6.390625 43.28125 13.890625 
Q 47.125 21.390625 47.125 36.375 
Q 47.125 51.421875 43.28125 58.90625 
Q 39.453125 66.40625 31.78125 66.40625 
z
M 31.78125 74.21875 
Q 44.046875 74.21875 50.515625 64.515625 
Q 56.984375 54.828125 56.984375 36.375 
Q 56.984375 17.96875 50.515625 8.265625 
Q 44.046875 -1.421875 31.78125 -1.421875 
Q 19.53125 -1.421875 13.0625 8.265625 
Q 6.59375 17.96875 6.59375 36.375 
Q 6.59375 54.828125 13.0625 64.515625 
Q 19.53125 74.21875 31.78125 74.21875 
z
" id="DejaVuSans-48"/>
     </defs>
     <g transform="translate(479.178192 271.255769)scale(0.1 -0.1)">
      <use xlink:href="#DejaVuSans-49"/>
      <use x="63.623047" xlink:href="#DejaVuSans-46"/>
      <use x="95.410156" xlink:href="#DejaVuSans-49"/>
      <use x="159.033203" xlink:href="#DejaVuSans-48"/>
     </g>
    </g>
   </g>
   <g id="text_53">
    <g clip-path="url(#p30daa032c5)">
     <!-- 1.11 -->
     <g transform="translate(111.229229 271.255769)scale(0.1 -0.1)">
      <use xlink:href="#DejaVuSans-49"/>
      <use x="63.623047" xlink:href="#DejaVuSans-46"/>
      <use x="95.410156" xlink:href="#DejaVuSans-49"/>
      <use x="159.033203" xlink:href="#DejaVuSans-49"/>
     </g>
    </g>
   </g>
   <g id="text_54">
    <g clip-path="url(#p30daa032c5)">
     <!-- 1.12 -->
     <g transform="translate(157.222849 271.255769)scale(0.1 -0.1)">
      <use xlink:href="#DejaVuSans-49"/>
      <use x="63.623047" xlink:href="#DejaVuSans-46"/>
      <use x="95.410156" xlink:href="#DejaVuSans-49"/>
      <use x="159.033203" xlink:href="#DejaVuSans-50"/>
     </g>
    </g>
   </g>
   <g id="text_55">
    <g clip-path="url(#p30daa032c5)">
     <!-- 1.13 -->
     <g transform="translate(203.21647 271.255769)scale(0.1 -0.1)">
      <use xlink:href="#DejaVuSans-49"/>
      <use x="63.623047" xlink:href="#DejaVuSans-46"/>
      <use x="95.410156" xlink:href="#DejaVuSans-49"/>
      <use x="159.033203" xlink:href="#DejaVuSans-51"/>
     </g>
    </g>
   </g>
   <g id="text_56">
    <g clip-path="url(#p30daa032c5)">
     <!-- 1.14 -->
     <g transform="translate(272.2069 209.945835)scale(0.1 -0.1)">
      <use xlink:href="#DejaVuSans-49"/>
      <use x="63.623047" xlink:href="#DejaVuSans-46"/>
      <use x="95.410156" xlink:href="#DejaVuSans-49"/>
      <use x="159.033203" xlink:href="#DejaVuSans-52"/>
     </g>
    </g>
   </g>
   <g id="text_57">
    <g clip-path="url(#p30daa032c5)">
     <!-- 1.15 -->
     <defs>
      <path d="M 10.796875 72.90625 
L 49.515625 72.90625 
L 49.515625 64.59375 
L 19.828125 64.59375 
L 19.828125 46.734375 
Q 21.96875 47.46875 24.109375 47.828125 
Q 26.265625 48.1875 28.421875 48.1875 
Q 40.625 48.1875 47.75 41.5 
Q 54.890625 34.8125 54.890625 23.390625 
Q 54.890625 11.625 47.5625 5.09375 
Q 40.234375 -1.421875 26.90625 -1.421875 
Q 22.3125 -1.421875 17.546875 -0.640625 
Q 12.796875 0.140625 7.71875 1.703125 
L 7.71875 11.625 
Q 12.109375 9.234375 16.796875 8.0625 
Q 21.484375 6.890625 26.703125 6.890625 
Q 35.15625 6.890625 40.078125 11.328125 
Q 45.015625 15.765625 45.015625 23.390625 
Q 45.015625 31 40.078125 35.4375 
Q 35.15625 39.890625 26.703125 39.890625 
Q 22.75 39.890625 18.8125 39.015625 
Q 14.890625 38.140625 10.796875 36.28125 
z
" id="DejaVuSans-53"/>
     </defs>
     <g transform="translate(249.21009 271.255769)scale(0.1 -0.1)">
      <use xlink:href="#DejaVuSans-49"/>
      <use x="63.623047" xlink:href="#DejaVuSans-46"/>
      <use x="95.410156" xlink:href="#DejaVuSans-49"/>
      <use x="159.033203" xlink:href="#DejaVuSans-53"/>
     </g>
    </g>
   </g>
   <g id="text_58">
    <g clip-path="url(#p30daa032c5)">
     <!-- 1.16 -->
     <defs>
      <path d="M 33.015625 40.375 
Q 26.375 40.375 22.484375 35.828125 
Q 18.609375 31.296875 18.609375 23.390625 
Q 18.609375 15.53125 22.484375 10.953125 
Q 26.375 6.390625 33.015625 6.390625 
Q 39.65625 6.390625 43.53125 10.953125 
Q 47.40625 15.53125 47.40625 23.390625 
Q 47.40625 31.296875 43.53125 35.828125 
Q 39.65625 40.375 33.015625 40.375 
z
M 52.59375 71.296875 
L 52.59375 62.3125 
Q 48.875 64.0625 45.09375 64.984375 
Q 41.3125 65.921875 37.59375 65.921875 
Q 27.828125 65.921875 22.671875 59.328125 
Q 17.53125 52.734375 16.796875 39.40625 
Q 19.671875 43.65625 24.015625 45.921875 
Q 28.375 48.1875 33.59375 48.1875 
Q 44.578125 48.1875 50.953125 41.515625 
Q 57.328125 34.859375 57.328125 23.390625 
Q 57.328125 12.15625 50.6875 5.359375 
Q 44.046875 -1.421875 33.015625 -1.421875 
Q 20.359375 -1.421875 13.671875 8.265625 
Q 6.984375 17.96875 6.984375 36.375 
Q 6.984375 53.65625 15.1875 63.9375 
Q 23.390625 74.21875 37.203125 74.21875 
Q 40.921875 74.21875 44.703125 73.484375 
Q 48.484375 72.75 52.59375 71.296875 
z
" id="DejaVuSans-54"/>
     </defs>
     <g transform="translate(295.203711 271.255769)scale(0.1 -0.1)">
      <use xlink:href="#DejaVuSans-49"/>
      <use x="63.623047" xlink:href="#DejaVuSans-46"/>
      <use x="95.410156" xlink:href="#DejaVuSans-49"/>
      <use x="159.033203" xlink:href="#DejaVuSans-54"/>
     </g>
    </g>
   </g>
   <g id="text_59">
    <g clip-path="url(#p30daa032c5)">
     <!-- 1.17 -->
     <g transform="translate(252.883192 19.619713)scale(0.1 -0.1)">
      <use xlink:href="#DejaVuSans-49"/>
      <use x="63.623047" xlink:href="#DejaVuSans-46"/>
      <use x="95.410156" xlink:href="#DejaVuSans-49"/>
      <use x="159.033203" xlink:href="#DejaVuSans-55"/>
     </g>
    </g>
   </g>
   <g id="text_60">
    <g clip-path="url(#p30daa032c5)">
     <!-- 1.18 -->
     <g transform="translate(571.165433 271.255769)scale(0.1 -0.1)">
      <use xlink:href="#DejaVuSans-49"/>
      <use x="63.623047" xlink:href="#DejaVuSans-46"/>
      <use x="95.410156" xlink:href="#DejaVuSans-49"/>
      <use x="159.033203" xlink:href="#DejaVuSans-56"/>
     </g>
    </g>
   </g>
  </g>
 </g>
 <defs>
  <clipPath id="p30daa032c5">
   <rect height="346.666667" width="658.666667" x="0" y="0"/>
  </clipPath>
 </defs>
</svg>
