<?xml version="1.0" encoding="UTF-8"?>
<!DOCTYPE svg  PUBLIC '-//W3C//DTD SVG 1.1//EN'  'http://www.w3.org/Graphics/SVG/1.1/DTD/svg11.dtd'>
<svg width="1976pt" height="1040pt" version="1.1" viewBox="0 0 1976 1040" xmlns="http://www.w3.org/2000/svg" xmlns:xlink="http://www.w3.org/1999/xlink">
<defs>
<style type="text/css">*{stroke-linecap:butt;stroke-linejoin:round;}</style>
</defs>
<path d="m0 1040h1976v-1040h-1976z" fill="#fff"/>
<g fill="none" stroke="#000">
<path d="m1031.4 48.187-791.73 484.04" clip-path="url(#a)"/>
<path d="m1031.4 48.187-419.08 165.28" clip-path="url(#a)"/>
<path d="m1031.4 48.187 440.19 791.14" clip-path="url(#a)"/>
<path d="m1031.4 48.187 693.48 484.04" clip-path="url(#a)"/>
<path d="m1031.4 48.187-572.98 791.14" clip-path="url(#a)"/>
<path d="m1031.4 48.187 302.03 791.14" clip-path="url(#a)"/>
<path d="m1031.4 48.187 348.09 791.14" clip-path="url(#a)"/>
<path d="m239.64 532.23-126.65 307.1" clip-path="url(#a)"/>
<path d="m239.64 532.23 57.566 154.61" clip-path="url(#a)"/>
<path d="m239.64 532.23-11.513 307.1" clip-path="url(#a)"/>
<path d="m239.64 532.23 80.593 154.61" clip-path="url(#a)"/>
<path d="m612.28 213.47-107.84 625.86" clip-path="url(#a)"/>
<path d="m612.28 213.47-61.788 625.86" clip-path="url(#a)"/>
<path d="m612.28 213.47-15.735 625.86" clip-path="url(#a)"/>
<path d="m612.28 213.47 185.36 161.18" clip-path="url(#a)"/>
<path d="m1471.6 839.33-46.053 152.49" clip-path="url(#a)"/>
<path d="m1471.6 839.33v152.49" clip-path="url(#a)"/>
<path d="m1471.6 839.33 46.053 152.49" clip-path="url(#a)"/>
<path d="m1724.9 532.23 161.19 459.58" clip-path="url(#a)"/>
<path d="m1724.9 532.23-138.16 154.61" clip-path="url(#a)"/>
<path d="m1724.9 532.23-69.08 307.1" clip-path="url(#a)"/>
<path d="m1724.9 532.23 46.053 154.61" clip-path="url(#a)"/>
<path d="m1586.7 686.84-23.027 152.49" clip-path="url(#a)"/>
<path d="m1586.7 686.84 23.027 152.49" clip-path="url(#a)"/>
<path d="m1655.8 839.33v152.49" clip-path="url(#a)"/>
<path d="m1770.9 686.84-69.08 152.49" clip-path="url(#a)"/>
<path d="m1770.9 686.84-23.027 152.49" clip-path="url(#a)"/>
<path d="m1770.9 686.84 23.027 152.49" clip-path="url(#a)"/>
<path d="m1770.9 686.84 69.08 152.49" clip-path="url(#a)"/>
<path d="m1701.8 839.33v152.49" clip-path="url(#a)"/>
<path d="m1747.9 839.33v152.49" clip-path="url(#a)"/>
<path d="m1793.9 839.33v152.49" clip-path="url(#a)"/>
<path d="m1563.7 839.33v152.49" clip-path="url(#a)"/>
<path d="m1609.7 839.33v152.49" clip-path="url(#a)"/>
<path d="m504.44 839.33v152.49" clip-path="url(#a)"/>
<path d="m550.5 839.33v152.49" clip-path="url(#a)"/>
<path d="m596.55 839.33v152.49" clip-path="url(#a)"/>
<path d="m797.65 374.64-293.21 464.68" clip-path="url(#a)" stroke-dasharray="3.7,1.6"/>
<path d="m797.65 374.64-85.966 312.19" clip-path="url(#a)"/>
<path d="m797.65 374.64-85.966 464.68" clip-path="url(#a)"/>
<path d="m797.65 374.64 82.896 157.59" clip-path="url(#a)"/>
<path d="m797.65 374.64 382.24 157.59" clip-path="url(#a)"/>
<path d="m711.68 686.84-69.08 152.49" clip-path="url(#a)"/>
<path d="m711.68 686.84 69.08 152.49" clip-path="url(#a)"/>
<path d="m711.68 839.33-23.027 152.49" clip-path="url(#a)"/>
<path d="m711.68 839.33 23.027 152.49" clip-path="url(#a)"/>
<path d="m880.54 532.23-53.729 307.1" clip-path="url(#a)"/>
<path d="m880.54 532.23-7.6755 307.1" clip-path="url(#a)"/>
<path d="m880.54 532.23 61.404 154.61" clip-path="url(#a)"/>
<path d="m1179.9 532.23-122.81 154.61" clip-path="url(#a)"/>
<path d="m1179.9 532.23 15.351 154.61" clip-path="url(#a)"/>
<path d="m1179.9 532.23 107.46 154.61" clip-path="url(#a)"/>
<path d="m1057.1 686.84-46.053 152.49" clip-path="url(#a)"/>
<path d="m1057.1 686.84v152.49" clip-path="url(#a)"/>
<path d="m1057.1 686.84 46.053 152.49" clip-path="url(#a)"/>
<path d="m1195.2 686.84-46.053 152.49" clip-path="url(#a)"/>
<path d="m1195.2 686.84v152.49" clip-path="url(#a)"/>
<path d="m1195.2 686.84 46.053 152.49" clip-path="url(#a)"/>
<path d="m1287.3 686.84v152.49" clip-path="url(#a)"/>
<path d="m1287.3 839.33v152.49" clip-path="url(#a)"/>
<path d="m1149.2 839.33v152.49" clip-path="url(#a)"/>
<path d="m1195.2 839.33v152.49" clip-path="url(#a)"/>
<path d="m1241.3 839.33v152.49" clip-path="url(#a)"/>
<path d="m1011 839.33v152.49" clip-path="url(#a)"/>
<path d="m1057.1 839.33v152.49" clip-path="url(#a)"/>
<path d="m1103.1 839.33v152.49" clip-path="url(#a)"/>
<path d="m826.81 839.33v152.49" clip-path="url(#a)"/>
<path d="m872.87 839.33v152.49" clip-path="url(#a)"/>
<path d="m941.95 686.84-23.027 152.49" clip-path="url(#a)"/>
<path d="m941.95 686.84 23.027 152.49" clip-path="url(#a)"/>
<path d="m918.92 839.33v152.49" clip-path="url(#a)"/>
<path d="m964.97 839.33v152.49" clip-path="url(#a)"/>
<path d="m642.6 839.33v152.49" clip-path="url(#a)"/>
<path d="m780.76 839.33v152.49" clip-path="url(#a)"/>
<path d="m112.99 839.33-23.027 152.49" clip-path="url(#a)"/>
<path d="m112.99 839.33 23.027 152.49" clip-path="url(#a)"/>
<path d="m297.2 686.84-115.13 152.49" clip-path="url(#a)"/>
<path d="m297.2 686.84 115.13 152.49" clip-path="url(#a)"/>
<path d="m228.12 839.33v152.49" clip-path="url(#a)"/>
<path d="m320.23 686.84-46.053 152.49" clip-path="url(#a)"/>
<path d="m320.23 686.84v152.49" clip-path="url(#a)"/>
<path d="m320.23 686.84 46.053 152.49" clip-path="url(#a)"/>
<path d="m274.18 839.33v152.49" clip-path="url(#a)"/>
<path d="m320.23 839.33v152.49" clip-path="url(#a)"/>
<path d="m366.28 839.33v152.49" clip-path="url(#a)"/>
<path d="m182.07 839.33v152.49" clip-path="url(#a)"/>
<path d="m412.34 839.33v152.49" clip-path="url(#a)"/>
<path d="m1269.6 48.187-657.28 165.28" clip-path="url(#a)"/>
<path d="m1269.6 48.187 201.99 791.14" clip-path="url(#a)"/>
<path d="m1269.6 48.187 455.29 484.04" clip-path="url(#a)"/>
<path d="m458.39 839.33v152.49" clip-path="url(#a)"/>
<path d="m1333.4 839.33v152.49" clip-path="url(#a)"/>
<path d="m1379.5 839.33v152.49" clip-path="url(#a)"/>
<path d="m1840 839.33v152.49" clip-path="url(#a)"/>
</g>
<path d="m636.21 297.13 5.133-3.1381q2.0476-1.2519 0.79577-3.2995l-4.0386-6.6058q-1.2519-2.0476-3.2995-0.79577l-5.133 3.1381q-2.0476 1.2519-0.79577 3.2995l4.0386 6.6058q1.2519 2.0476 3.2995 0.79577z" clip-path="url(#a)" fill="#fff" stroke="#fff"/>
<g clip-path="url(#a)">
<defs>
<path id="am" d="m9.8125 72.906h9.8594v-29.891h35.844v29.891h9.8594v-72.906h-9.8594v34.719h-35.844v-34.719h-9.8594z"/>
</defs>
<g transform="translate(634.09 293.66) rotate(-31.44) scale(.08 -.08)">
<use xlink:href="#am"/>
</g>
</g>
<path d="m821.33 137.76 5.5967-2.2073q2.2326-0.88052 1.3521-3.1132l-2.8406-7.2026q-0.88052-2.2326-3.1132-1.3521l-5.5967 2.2073q-2.2326 0.88052-1.3521 3.1132l2.8406 7.2026q0.88052 2.2326 3.1132 1.3521z" clip-path="url(#a)" fill="#fff" stroke="#fff"/>
<g clip-path="url(#a)">
<g transform="translate(819.84 133.98) rotate(-21.523) scale(.08 -.08)">
<use xlink:href="#am"/>
</g>
</g>
<path d="m1244.9 444.86 2.1673 3.8952q1.1669 2.0972 3.2641 0.93032l6.7657-3.7645q2.0972-1.1669 0.93032-3.2641l-2.1673-3.8952q-1.1669-2.0972-3.2641-0.93032l-6.7657 3.7645q-2.0972 1.1669-0.93032 3.2641z" clip-path="url(#a)" fill="#fff" stroke="#fff"/>
<g clip-path="url(#a)">
<defs>
<path id="z" d="m9.8125 72.906h9.8594v-64.609h35.5v-8.2969h-45.359z"/>
</defs>
<g transform="translate(1248.4 442.88) rotate(60.908) scale(.08 -.08)">
<use xlink:href="#z"/>
</g>
</g>
<path d="m1372.1 293.63 4.9334 3.4434q1.968 1.3736 3.3417-0.59437l4.4314-6.3489q1.3736-1.968-0.59437-3.3417l-4.9334-3.4434q-1.968-1.3736-3.3417 0.59437l-4.4314 6.3489q-1.3736 1.968 0.59437 3.3417z" clip-path="url(#a)" fill="#fff" stroke="#fff"/>
<g clip-path="url(#a)">
<g transform="translate(1374.4 290.3) rotate(34.915) scale(.08 -.08)">
<use xlink:href="#am"/>
</g>
</g>
<path d="m748.24 449.81 3.4343-4.742q1.4078-1.9438-0.536-3.3515l-6.2707-4.5415q-1.9438-1.4078-3.3515 0.536l-3.4343 4.742q-1.4078 1.9438 0.536 3.3515l6.2707 4.5415q1.9438 1.4078 3.3515-0.536z" clip-path="url(#a)" fill="#fff" stroke="#fff"/>
<g clip-path="url(#a)">
<defs>
<path id="ag" d="m8.6875 72.906h9.9219v-44.297q0-11.719 4.2344-16.875 4.25-5.1406 13.781-5.1406 9.4688 0 13.719 5.1406 4.25 5.1562 4.25 16.875v44.297h9.9062v-45.516q0-14.25-7.0625-21.531-7.0469-7.2812-20.812-7.2812-13.828 0-20.891 7.2812-7.0469 7.2812-7.0469 21.531z"/>
</defs>
<g transform="translate(744.95 447.42) rotate(-54.086) scale(.08 -.08)">
<use xlink:href="#ag"/>
</g>
</g>
<path d="m1175.5 443.26 2.0883 5.4699q0.85599 2.2422 3.0981 1.3862l7.2333-2.7614q2.2422-0.85599 1.3862-3.0981l-2.0883-5.4699q-0.85599-2.2422-3.0981-1.3862l-7.2333 2.7614q-2.2422 0.85599-1.3862 3.0981z" clip-path="url(#a)" fill="#fff" stroke="#fff"/>
<g clip-path="url(#a)">
<g transform="translate(1179.3 441.81) rotate(69.105) scale(.08 -.08)">
<use xlink:href="#ag"/>
</g>
</g>
<path d="m1198.5 443.6 2.3579 5.3592q0.96654 2.1968 3.1633 1.2302l7.0869-3.1181q2.1968-0.96654 1.2302-3.1633l-2.3579-5.3592q-0.96654-2.1968-3.1633-1.2302l-7.0869 3.1181q-2.1968 0.96654-1.2302 3.1633z" clip-path="url(#a)" fill="#fff" stroke="#fff"/>
<g clip-path="url(#a)">
<g transform="translate(1202.2 441.97) rotate(66.251) scale(.08 -.08)">
<use xlink:href="#ag"/>
</g>
</g>
<path d="m181.07 690.7 2.0864-5.0592q0.915-2.2187-1.3037-3.1337l-7.1577-2.9518q-2.2187-0.915-3.1337 1.3037l-2.0864 5.0592q-0.915 2.2187 1.3037 3.1337l7.1577 2.9518q2.2187 0.915 3.1337-1.3037z" clip-path="url(#a)" fill="#fff" stroke="#fff"/>
<g clip-path="url(#a)">
<defs>
<path id="v" d="m34.188 63.188-13.391-36.281h26.812zm-5.5781 9.7188h11.188l27.781-72.906h-10.25l-6.6406 18.703h-32.859l-6.6406-18.703h-10.406z"/>
</defs>
<g transform="translate(177.31 689.15) rotate(-67.589) scale(.08 -.08)">
<use xlink:href="#v"/>
</g>
</g>
<path d="m261.66 609.34 1.7721 4.7595q0.83744 2.2492 3.0866 1.4117l7.2559-2.7016q2.2492-0.83744 1.4117-3.0866l-1.7721-4.7595q-0.83744-2.2492-3.0866-1.4117l-7.2559 2.7016q-2.2492 0.83744-1.4117 3.0866z" clip-path="url(#a)" fill="#fff" stroke="#fff"/>
<g clip-path="url(#a)">
<defs>
<path id="aq" d="m53.516 70.516v-9.625q-5.6094 2.6875-10.594 4-4.9844 1.3281-9.625 1.3281-8.0469 0-12.422-3.125t-4.375-8.8906q0-4.8438 2.9062-7.3125 2.9062-2.4531 11.016-3.9688l5.9531-1.2188q11.031-2.1094 16.281-7.4062t5.25-14.172q0-10.609-7.1094-16.078-7.0938-5.4688-20.812-5.4688-5.1719 0-11.016 1.1719-5.8281 1.1719-12.078 3.4688v10.156q6-3.3594 11.766-5.0781 5.7656-1.7031 11.328-1.7031 8.4375 0 13.031 3.3125 4.5938 3.3281 4.5938 9.4844 0 5.3594-3.2969 8.3906t-10.812 4.5469l-6.0156 1.1719q-11.031 2.1875-15.969 6.875-4.9219 4.6875-4.9219 13.047 0 9.6719 6.8125 15.234t18.766 5.5625q5.1406 0 10.453-0.9375 5.3281-0.92188 10.891-2.7656z"/>
</defs>
<g transform="translate(265.46 607.92) rotate(69.578) scale(.08 -.08)">
<use xlink:href="#aq"/>
</g>
</g>
<path d="m240.03 689.09 0.23078-6.1557q0.089915-2.3983-2.3084-2.4882l-7.7371-0.29007q-2.3983-0.089915-2.4882 2.3084l-0.23078 6.1557q-0.089914 2.3983 2.3084 2.4882l7.7371 0.29007q2.3983 0.089915 2.4882-2.3084z" clip-path="url(#a)" fill="#fff" stroke="#fff"/>
<g clip-path="url(#a)">
<defs>
<path id="aa" d="m19.672 64.797v-56.688h11.922q15.094 0 22.094 6.8281 7 6.8438 7 21.594 0 14.641-7 21.453t-22.094 6.8125zm-9.8594 8.1094h20.266q21.188 0 31.094-8.8125 9.9219-8.8125 9.9219-27.562 0-18.859-9.9688-27.703-9.9531-8.8281-31.047-8.8281h-20.266z"/>
</defs>
<g transform="translate(235.97 688.94) rotate(-87.853) scale(.08 -.08)">
<use xlink:href="#aa"/>
</g>
</g>
<path d="m272.95 609.7 2.8474 5.4624q1.1094 2.1282 3.2376 1.0188l6.8657-3.5789q2.1282-1.1094 1.0188-3.2376l-2.8474-5.4624q-1.1094-2.1282-3.2376-1.0188l-6.8657 3.5789q-2.1282 1.1094-1.0188 3.2376z" clip-path="url(#a)" fill="#fff" stroke="#fff"/>
<g clip-path="url(#a)">
<g transform="translate(276.55 607.82) rotate(62.468) scale(.08 -.08)">
<use xlink:href="#aa"/>
</g>
</g>
<path d="m564.08 530.16 0.92927-5.393q0.40754-2.3651-1.9576-2.7727l-7.6301-1.3147q-2.3651-0.40754-2.7727 1.9576l-0.92927 5.393q-0.40754 2.3651 1.9576 2.7727l7.6301 1.3147q2.3651 0.40754 2.7727-1.9576z" clip-path="url(#a)" fill="#fff" stroke="#fff"/>
<g clip-path="url(#a)">
<g transform="translate(560.07 529.47) rotate(-80.223) scale(.08 -.08)">
<use xlink:href="#v"/>
</g>
</g>
<path d="m587.39 529.41 0.47392-4.8004q0.23579-2.3884-2.1526-2.6242l-7.705-0.76068q-2.3884-0.23579-2.6242 2.1526l-0.47392 4.8004q-0.23579 2.3884 2.1526 2.6242l7.705 0.76068q2.3884 0.23579 2.6242-2.1526z" clip-path="url(#a)" fill="#fff" stroke="#fff"/>
<g clip-path="url(#a)">
<defs>
<path id="ad" d="m19.672 64.797v-27.391h12.406q6.8906 0 10.641 3.5625 3.7656 3.5625 3.7656 10.156 0 6.5469-3.7656 10.109-3.75 3.5625-10.641 3.5625zm-9.8594 8.1094h22.266q12.266 0 18.531-5.5469 6.2812-5.5469 6.2812-16.234 0-10.797-6.2812-16.312-6.2656-5.5156-18.531-5.5156h-12.406v-29.297h-9.8594z"/>
</defs>
<g transform="translate(583.35 529.01) rotate(-84.362) scale(.08 -.08)">
<use xlink:href="#ad"/>
</g>
</g>
<path d="m610.61 529.63 0.15482-6.1581q0.060319-2.3992-2.3389-2.4596l-7.7401-0.19459q-2.3992-0.06032-2.4596 2.3389l-0.15482 6.1581q-0.06032 2.3992 2.3389 2.4596l7.7401 0.19459q2.3992 0.06032 2.4596-2.3389z" clip-path="url(#a)" fill="#fff" stroke="#fff"/>
<g clip-path="url(#a)">
<g transform="translate(606.55 529.53) rotate(-88.56) scale(.08 -.08)">
<use xlink:href="#aa"/>
</g>
</g>
<path d="m698.79 296.99 4.1297 3.5908q1.8111 1.5748 3.3859-0.23632l5.0803-5.8427q1.5748-1.8111-0.23632-3.3859l-4.1297-3.5908q-1.8111-1.5748-3.3859 0.23632l-5.0803 5.8427q-1.5748 1.8111 0.23632 3.3859z" clip-path="url(#a)" fill="#fff" stroke="#fff"/>
<g clip-path="url(#a)">
<g transform="translate(701.45 293.93) rotate(41.007) scale(.08 -.08)">
<use xlink:href="#v"/>
</g>
</g>
<path d="m1449.4 934.27 10.201-33.778q0.69388-2.2975-1.6036-2.9914l-7.4119-2.2385q-2.2975-0.69388-2.9914 1.6036l-10.201 33.778q-0.69388 2.2975 1.6036 2.9914l7.4119 2.2385q2.2975 0.69388 2.9914-1.6036z" clip-path="url(#a)" fill="#fff" stroke="#fff"/>
<g clip-path="url(#a)">
<defs>
<path id="l" d="m-0.29688 72.906h61.672v-8.3125h-25.875v-64.594h-9.9062v64.594h-25.891z"/>
<path id="d" d="m56.203 29.594v-4.3906h-41.312q0.59375-9.2812 5.5938-14.141t13.938-4.8594q5.1719 0 10.031 1.2656t9.6562 3.8125v-8.5q-4.8438-2.0469-9.9219-3.125t-10.297-1.0781q-13.094 0-20.734 7.6094-7.6406 7.625-7.6406 20.625 0 13.422 7.25 21.297 7.25 7.8906 19.562 7.8906 11.031 0 17.453-7.1094 6.4219-7.0938 6.4219-19.297zm-8.9844 2.6406q-0.09375 7.3594-4.125 11.75-4.0312 4.4062-10.672 4.4062-7.5156 0-12.031-4.25t-5.2031-11.969z"/>
<path id="i" d="m41.109 46.297q-1.5156 0.875-3.2969 1.2812-1.7812 0.42188-3.9219 0.42188-7.625 0-11.703-4.9531t-4.0781-14.234v-28.812h-9.0312v54.688h9.0312v-8.5q2.8438 4.9844 7.375 7.3906 4.5469 2.4219 11.047 2.4219 0.92188 0 2.0469-0.125 1.125-0.10938 2.4844-0.35938z"/>
<path id="k" d="m52 44.188q3.375 6.0625 8.0625 8.9375t11.031 2.875q8.5469 0 13.188-5.9844 4.6406-5.9688 4.6406-17v-33.016h-9.0312v32.719q0 7.8594-2.7969 11.656-2.7812 3.8125-8.4844 3.8125-6.9844 0-11.047-4.6406-4.0469-4.625-4.0469-12.641v-30.906h-9.0312v32.719q0 7.9062-2.7812 11.688t-8.5938 3.7812q-6.8906 0-10.953-4.6562-4.0469-4.6562-4.0469-12.625v-30.906h-9.0312v54.688h9.0312v-8.5q3.0781 5.0312 7.375 7.4219t10.203 2.3906q5.9688 0 10.141-3.0312 4.1719-3.0156 6.1719-8.7812z"/>
<path id="h" d="m9.4219 54.688h8.9844v-54.688h-8.9844zm0 21.297h8.9844v-11.391h-8.9844z"/>
<path id="e" d="m54.891 33.016v-33.016h-8.9844v32.719q0 7.7656-3.0312 11.609-3.0312 3.8594-9.0781 3.8594-7.2812 0-11.484-4.6406-4.2031-4.625-4.2031-12.641v-30.906h-9.0312v54.688h9.0312v-8.5q3.2344 4.9375 7.5938 7.375 4.375 2.4375 10.094 2.4375 9.4219 0 14.25-5.8281 4.8438-5.8281 4.8438-17.156z"/>
<path id="g" d="m34.281 27.484q-10.891 0-15.094-2.4844t-4.2031-8.5q0-4.7812 3.1562-7.5938 3.1562-2.7969 8.5625-2.7969 7.4844 0 12 5.2969t4.5156 14.078v2zm17.922 3.7188v-31.203h-8.9844v8.2969q-3.0781-4.9688-7.6719-7.3438t-11.234-2.375q-8.3906 0-13.359 4.7188-4.9531 4.7188-4.9531 12.625 0 9.2188 6.1719 13.906 6.1875 4.6875 18.438 4.6875h12.609v0.89062q0 6.2031-4.0781 9.5938t-11.453 3.3906q-4.6875 0-9.1406-1.125-4.4375-1.125-8.5312-3.375v8.3125q4.9219 1.9062 9.5625 2.8438 4.6406 0.95312 9.0312 0.95312 11.875 0 17.734-6.1562 5.8594-6.1406 5.8594-18.641z"/>
<path id="j" d="m9.4219 75.984h8.9844v-75.984h-8.9844z"/>
</defs>
<g transform="translate(1445.5 933.1) rotate(-73.195) scale(.08 -.08)">
<use xlink:href="#l"/>
<use x="60.818359" xlink:href="#d"/>
<use x="122.341797" xlink:href="#i"/>
<use x="163.439453" xlink:href="#k"/>
<use x="260.851562" xlink:href="#h"/>
<use x="288.634766" xlink:href="#e"/>
<use x="352.013672" xlink:href="#g"/>
<use x="413.292969" xlink:href="#j"/>
</g>
</g>
<path d="m1465.3 897.93v35.285q0 2.4 2.4 2.4h7.7425q2.4 0 2.4-2.4v-35.285q0-2.4-2.4-2.4h-7.7425q-2.4 0-2.4 2.4z" clip-path="url(#a)" fill="#fff" stroke="#fff"/>
<g clip-path="url(#a)">
<g transform="translate(1469.4 897.93) rotate(90) scale(.08 -.08)">
<use xlink:href="#l"/>
<use x="60.818359" xlink:href="#d"/>
<use x="122.341797" xlink:href="#i"/>
<use x="163.439453" xlink:href="#k"/>
<use x="260.851562" xlink:href="#h"/>
<use x="288.634766" xlink:href="#e"/>
<use x="352.013672" xlink:href="#g"/>
<use x="413.292969" xlink:href="#j"/>
</g>
</g>
<path d="m1483.5 900.49 10.201 33.778q0.69388 2.2975 2.9914 1.6036l7.4119-2.2385q2.2975-0.69388 1.6036-2.9914l-10.201-33.778q-0.69388-2.2975-2.9914-1.6036l-7.4119 2.2385q-2.2975 0.69388-1.6036 2.9914z" clip-path="url(#a)" fill="#fff" stroke="#fff"/>
<g clip-path="url(#a)">
<g transform="translate(1487.4 899.32) rotate(73.195) scale(.08 -.08)">
<use xlink:href="#l"/>
<use x="60.818359" xlink:href="#d"/>
<use x="122.341797" xlink:href="#i"/>
<use x="163.439453" xlink:href="#k"/>
<use x="260.851562" xlink:href="#h"/>
<use x="288.634766" xlink:href="#e"/>
<use x="352.013672" xlink:href="#g"/>
<use x="413.292969" xlink:href="#j"/>
</g>
</g>
<path d="m1798.6 761.51 1.8112 5.1641q0.7943 2.2648 3.059 1.4705l7.3062-2.5624q2.2648-0.7943 1.4705-3.059l-1.8112-5.1641q-0.7943-2.2648-3.059-1.4705l-7.3062 2.5624q-2.2648 0.7943-1.4705 3.059z" clip-path="url(#a)" fill="#fff" stroke="#fff"/>
<g clip-path="url(#a)">
<g transform="translate(1802.5 760.17) rotate(70.673) scale(.08 -.08)">
<use xlink:href="#v"/>
</g>
</g>
<path d="m1658.6 615.75 3.6465-4.0806q1.5992-1.7896-0.1904-3.3888l-5.7733-5.159q-1.7896-1.5992-3.3888 0.1904l-3.6465 4.0806q-1.5992 1.7896 0.1904 3.3888l5.7733 5.159q1.7896 1.5992 3.3888-0.1904z" clip-path="url(#a)" fill="#fff" stroke="#fff"/>
<g clip-path="url(#a)">
<g transform="translate(1655.6 613.04) rotate(-48.216) scale(.08 -.08)">
<use xlink:href="#v"/>
</g>
</g>
<path d="m1695.8 690.16 1.3519-6.0098q0.52671-2.3415-1.8148-2.8682l-7.5537-1.6992q-2.3415-0.52671-2.8682 1.8148l-1.3519 6.0098q-0.52671 2.3415 1.8148 2.8682l7.5537 1.6992q2.3415 0.52671 2.8682-1.8148z" clip-path="url(#a)" fill="#fff" stroke="#fff"/>
<g clip-path="url(#a)">
<g transform="translate(1691.8 689.27) rotate(-77.323) scale(.08 -.08)">
<use xlink:href="#aa"/>
</g>
</g>
<path d="m1741.2 609.01 1.3771 4.623q0.68514 2.3001 2.9853 1.615l7.4203-2.2103q2.3001-0.68514 1.615-2.9853l-1.3771-4.623q-0.68514-2.3001-2.9853-1.615l-7.4203 2.2103q-2.3001 0.68514-1.615 2.9853z" clip-path="url(#a)" fill="#fff" stroke="#fff"/>
<g clip-path="url(#a)">
<g transform="translate(1745.1 607.85) rotate(73.413) scale(.08 -.08)">
<use xlink:href="#ad"/>
</g>
</g>
<path d="m1581 766.52 0.75478-4.9983q0.35835-2.3731-2.0147-2.7314l-7.6557-1.1561q-2.3731-0.35835-2.7314 2.0147l-0.75478 4.9983q-0.35835 2.3731 2.0147 2.7314l7.6557 1.1561q2.3731 0.35835 2.7314-2.0147z" clip-path="url(#a)" fill="#fff" stroke="#fff"/>
<g clip-path="url(#a)">
<defs>
<path id="u" d="m9.8125 72.906h46.094v-8.3125h-36.234v-21.578h34.719v-8.2969h-34.719v-26.422h37.109v-8.2969h-46.969z"/>
</defs>
<g transform="translate(1577 765.91) rotate(-81.413) scale(.08 -.08)">
<use xlink:href="#u"/>
</g>
</g>
<path d="m1591.6 761.26 0.8341 5.5236q0.35835 2.3731 2.7314 2.0147l7.6557-1.1561q2.3731-0.35835 2.0147-2.7314l-0.8341-5.5236q-0.35835-2.3731-2.7314-2.0147l-7.6557 1.1561q-2.3731 0.35835-2.0147 2.7314z" clip-path="url(#a)" fill="#fff" stroke="#fff"/>
<g clip-path="url(#a)">
<defs>
<path id="r" d="m64.406 67.281v-10.391q-4.9844 4.6406-10.625 6.9219-5.6406 2.2969-11.984 2.2969-12.5 0-19.141-7.6406t-6.6406-22.094q0-14.406 6.6406-22.047t19.141-7.6406q6.3438 0 11.984 2.2969t10.625 6.9375v-10.312q-5.1719-3.5156-10.969-5.2812-5.7812-1.75-12.219-1.75-16.562 0-26.094 10.125-9.5156 10.141-9.5156 27.672 0 17.578 9.5156 27.703 9.5312 10.141 26.094 10.141 6.5312 0 12.312-1.7344 5.7969-1.7344 10.875-5.2031z"/>
</defs>
<g transform="translate(1595.6 760.65) rotate(81.413) scale(.08 -.08)">
<use xlink:href="#r"/>
</g>
</g>
<path d="m1649.5 897.93v35.285q0 2.4 2.4 2.4h7.7425q2.4 0 2.4-2.4v-35.285q0-2.4-2.4-2.4h-7.7425q-2.4 0-2.4 2.4z" clip-path="url(#a)" fill="#fff" stroke="#fff"/>
<g clip-path="url(#a)">
<g transform="translate(1653.6 897.93) rotate(90) scale(.08 -.08)">
<use xlink:href="#l"/>
<use x="60.818359" xlink:href="#d"/>
<use x="122.341797" xlink:href="#i"/>
<use x="163.439453" xlink:href="#k"/>
<use x="260.851562" xlink:href="#h"/>
<use x="288.634766" xlink:href="#e"/>
<use x="352.013672" xlink:href="#g"/>
<use x="413.292969" xlink:href="#j"/>
</g>
</g>
<path d="m1741.1 767.77 1.8987-4.1912q0.99036-2.1861-1.1958-3.1765l-7.0526-3.1949q-2.1861-0.99036-3.1765 1.1958l-1.8987 4.1912q-0.99036 2.1861 1.1958 3.1765l7.0526 3.1949q2.1861 0.99036 3.1765-1.1958z" clip-path="url(#a)" fill="#fff" stroke="#fff"/>
<g clip-path="url(#a)">
<defs>
<path id="ap" d="m9.8125 72.906h41.891v-8.3125h-32.031v-21.484h28.906v-8.2969h-28.906v-34.812h-9.8594z"/>
</defs>
<g transform="translate(1737.4 766.09) rotate(-65.629) scale(.08 -.08)">
<use xlink:href="#ap"/>
</g>
</g>
<path d="m1765.2 766.77 0.83-5.4964q0.35835-2.3731-2.0147-2.7314l-7.6557-1.1561q-2.3731-0.35835-2.7314 2.0147l-0.83 5.4964q-0.35835 2.3731 2.0147 2.7314l7.6557 1.1561q2.3731 0.35835 2.7314-2.0147z" clip-path="url(#a)" fill="#fff" stroke="#fff"/>
<g clip-path="url(#a)">
<defs>
<path id="y" d="m44.391 34.188q3.1719-1.0781 6.1719-4.5938t6.0312-9.6719l10.016-19.922h-10.609l-9.3125 18.703q-3.625 7.3281-7.0156 9.7188t-9.25 2.3906h-10.75v-30.812h-9.8594v72.906h22.266q12.5 0 18.656-5.2344 6.1562-5.2188 6.1562-15.766 0-6.8906-3.2031-11.438-3.2031-4.5312-9.2969-6.2812zm-24.719 30.609v-25.875h12.406q7.125 0 10.766 3.2969t3.6406 9.6875-3.6406 9.6406-10.766 3.25z"/>
</defs>
<g transform="translate(1761.2 766.16) rotate(-81.413) scale(.08 -.08)">
<use xlink:href="#y"/>
</g>
</g>
<path d="m1775.8 761.26 0.8341 5.5236q0.35835 2.3731 2.7314 2.0147l7.6557-1.1561q2.3731-0.35835 2.0147-2.7314l-0.8341-5.5236q-0.35835-2.3731-2.7314-2.0147l-7.6557 1.1561q-2.3731 0.35835-2.0147 2.7314z" clip-path="url(#a)" fill="#fff" stroke="#fff"/>
<g clip-path="url(#a)">
<g transform="translate(1779.8 760.65) rotate(81.413) scale(.08 -.08)">
<use xlink:href="#r"/>
</g>
</g>
<path d="m1798.5 763 2.4161 5.3333q0.99036 2.1861 3.1765 1.1958l7.0526-3.1949q2.1861-0.99036 1.1958-3.1765l-2.4161-5.3333q-0.99036-2.1861-3.1765-1.1958l-7.0526 3.1949q-2.1861 0.99036-1.1958 3.1765z" clip-path="url(#a)" fill="#fff" stroke="#fff"/>
<g clip-path="url(#a)">
<g transform="translate(1802.2 761.33) rotate(65.629) scale(.08 -.08)">
<use xlink:href="#ag"/>
</g>
</g>
<path d="m1695.6 897.93v35.285q0 2.4 2.4 2.4h7.7425q2.4 0 2.4-2.4v-35.285q0-2.4-2.4-2.4h-7.7425q-2.4 0-2.4 2.4z" clip-path="url(#a)" fill="#fff" stroke="#fff"/>
<g clip-path="url(#a)">
<g transform="translate(1699.6 897.93) rotate(90) scale(.08 -.08)">
<use xlink:href="#l"/>
<use x="60.818359" xlink:href="#d"/>
<use x="122.341797" xlink:href="#i"/>
<use x="163.439453" xlink:href="#k"/>
<use x="260.851562" xlink:href="#h"/>
<use x="288.634766" xlink:href="#e"/>
<use x="352.013672" xlink:href="#g"/>
<use x="413.292969" xlink:href="#j"/>
</g>
</g>
<path d="m1741.6 897.93v35.285q0 2.4 2.4 2.4h7.7425q2.4 0 2.4-2.4v-35.285q0-2.4-2.4-2.4h-7.7425q-2.4 0-2.4 2.4z" clip-path="url(#a)" fill="#fff" stroke="#fff"/>
<g clip-path="url(#a)">
<g transform="translate(1745.7 897.93) rotate(90) scale(.08 -.08)">
<use xlink:href="#l"/>
<use x="60.818359" xlink:href="#d"/>
<use x="122.341797" xlink:href="#i"/>
<use x="163.439453" xlink:href="#k"/>
<use x="260.851562" xlink:href="#h"/>
<use x="288.634766" xlink:href="#e"/>
<use x="352.013672" xlink:href="#g"/>
<use x="413.292969" xlink:href="#j"/>
</g>
</g>
<path d="m1787.7 897.93v35.285q0 2.4 2.4 2.4h7.7425q2.4 0 2.4-2.4v-35.285q0-2.4-2.4-2.4h-7.7425q-2.4 0-2.4 2.4z" clip-path="url(#a)" fill="#fff" stroke="#fff"/>
<g clip-path="url(#a)">
<g transform="translate(1791.7 897.93) rotate(90) scale(.08 -.08)">
<use xlink:href="#l"/>
<use x="60.818359" xlink:href="#d"/>
<use x="122.341797" xlink:href="#i"/>
<use x="163.439453" xlink:href="#k"/>
<use x="260.851562" xlink:href="#h"/>
<use x="288.634766" xlink:href="#e"/>
<use x="352.013672" xlink:href="#g"/>
<use x="413.292969" xlink:href="#j"/>
</g>
</g>
<path d="m1557.4 897.93v35.285q0 2.4 2.4 2.4h7.7425q2.4 0 2.4-2.4v-35.285q0-2.4-2.4-2.4h-7.7425q-2.4 0-2.4 2.4z" clip-path="url(#a)" fill="#fff" stroke="#fff"/>
<g clip-path="url(#a)">
<g transform="translate(1561.5 897.93) rotate(90) scale(.08 -.08)">
<use xlink:href="#l"/>
<use x="60.818359" xlink:href="#d"/>
<use x="122.341797" xlink:href="#i"/>
<use x="163.439453" xlink:href="#k"/>
<use x="260.851562" xlink:href="#h"/>
<use x="288.634766" xlink:href="#e"/>
<use x="352.013672" xlink:href="#g"/>
<use x="413.292969" xlink:href="#j"/>
</g>
</g>
<path d="m1603.4 897.93v35.285q0 2.4 2.4 2.4h7.7425q2.4 0 2.4-2.4v-35.285q0-2.4-2.4-2.4h-7.7425q-2.4 0-2.4 2.4z" clip-path="url(#a)" fill="#fff" stroke="#fff"/>
<g clip-path="url(#a)">
<g transform="translate(1607.5 897.93) rotate(90) scale(.08 -.08)">
<use xlink:href="#l"/>
<use x="60.818359" xlink:href="#d"/>
<use x="122.341797" xlink:href="#i"/>
<use x="163.439453" xlink:href="#k"/>
<use x="260.851562" xlink:href="#h"/>
<use x="288.634766" xlink:href="#e"/>
<use x="352.013672" xlink:href="#g"/>
<use x="413.292969" xlink:href="#j"/>
</g>
</g>
<path d="m498.17 897.93v35.285q0 2.4 2.4 2.4h7.7425q2.4 0 2.4-2.4v-35.285q0-2.4-2.4-2.4h-7.7425q-2.4 0-2.4 2.4z" clip-path="url(#a)" fill="#fff" stroke="#fff"/>
<g clip-path="url(#a)">
<g transform="translate(502.23 897.93) rotate(90) scale(.08 -.08)">
<use xlink:href="#l"/>
<use x="60.818359" xlink:href="#d"/>
<use x="122.341797" xlink:href="#i"/>
<use x="163.439453" xlink:href="#k"/>
<use x="260.851562" xlink:href="#h"/>
<use x="288.634766" xlink:href="#e"/>
<use x="352.013672" xlink:href="#g"/>
<use x="413.292969" xlink:href="#j"/>
</g>
</g>
<path d="m544.22 897.93v35.285q0 2.4 2.4 2.4h7.7425q2.4 0 2.4-2.4v-35.285q0-2.4-2.4-2.4h-7.7425q-2.4 0-2.4 2.4z" clip-path="url(#a)" fill="#fff" stroke="#fff"/>
<g clip-path="url(#a)">
<g transform="translate(548.29 897.93) rotate(90) scale(.08 -.08)">
<use xlink:href="#l"/>
<use x="60.818359" xlink:href="#d"/>
<use x="122.341797" xlink:href="#i"/>
<use x="163.439453" xlink:href="#k"/>
<use x="260.851562" xlink:href="#h"/>
<use x="288.634766" xlink:href="#e"/>
<use x="352.013672" xlink:href="#g"/>
<use x="413.292969" xlink:href="#j"/>
</g>
</g>
<path d="m590.28 897.93v35.285q0 2.4 2.4 2.4h7.7425q2.4 0 2.4-2.4v-35.285q0-2.4-2.4-2.4h-7.7425q-2.4 0-2.4 2.4z" clip-path="url(#a)" fill="#fff" stroke="#fff"/>
<g clip-path="url(#a)">
<g transform="translate(594.34 897.93) rotate(90) scale(.08 -.08)">
<use xlink:href="#l"/>
<use x="60.818359" xlink:href="#d"/>
<use x="122.341797" xlink:href="#i"/>
<use x="163.439453" xlink:href="#k"/>
<use x="260.851562" xlink:href="#h"/>
<use x="288.634766" xlink:href="#e"/>
<use x="352.013672" xlink:href="#g"/>
<use x="413.292969" xlink:href="#j"/>
</g>
</g>
<path d="m654.89 612.64 2.9203-4.6282q1.2807-2.0297-0.74901-3.3104l-6.548-4.1316q-2.0297-1.2807-3.3104 0.74901l-2.9203 4.6282q-1.2807 2.0297 0.74901 3.3104l6.548 4.1316q2.0297 1.2807 3.3104-0.74901z" clip-path="url(#a)" fill="#fff" stroke="#fff"/>
<g clip-path="url(#a)">
<g transform="translate(651.45 610.48) rotate(-57.749) scale(.08 -.08)">
<use xlink:href="#v"/>
</g>
</g>
<path d="m760.07 534.73 1.2806-4.6507q0.63715-2.3139-1.6767-2.951l-7.4647-2.0555q-2.3139-0.63715-2.951 1.6767l-1.2806 4.6507q-0.63715 2.3139 1.6767 2.951l7.4647 2.0555q2.3139 0.63715 2.951-1.6767z" clip-path="url(#a)" fill="#fff" stroke="#fff"/>
<g clip-path="url(#a)">
<g transform="translate(756.15 533.65) rotate(-74.605) scale(.08 -.08)">
<use xlink:href="#ad"/>
</g>
</g>
<path d="m760.27 611.15 1.1206-6.0572q0.43659-2.36-1.9234-2.7965l-7.6133-1.4085q-2.36-0.43659-2.7965 1.9234l-1.1206 6.0572q-0.43659 2.36 1.9234 2.7965l7.6133 1.4085q2.36 0.43659 2.7965-1.9234z" clip-path="url(#a)" fill="#fff" stroke="#fff"/>
<g clip-path="url(#a)">
<g transform="translate(756.27 610.41) rotate(-79.519) scale(.08 -.08)">
<use xlink:href="#aa"/>
</g>
</g>
<path d="m832.27 453.93 2.5477 4.8433q1.1173 2.124 3.2414 1.0067l6.8523-3.6045q2.124-1.1173 1.0067-3.2414l-2.5477-4.8433q-1.1173-2.124-3.2414-1.0067l-6.8523 3.6045q-2.124 1.1173-1.0067 3.2414z" clip-path="url(#a)" fill="#fff" stroke="#fff"/>
<g clip-path="url(#a)">
<g transform="translate(835.87 452.04) rotate(62.254) scale(.08 -.08)">
<use xlink:href="#v"/>
</g>
</g>
<path d="m983.53 458.06 5.695 2.3479q2.2188 0.91476 3.1336-1.3041l2.951-7.158q0.91476-2.2188-1.3041-3.1336l-5.695-2.3479q-2.2188-0.91476-3.1336 1.3041l-2.951 7.158q-0.91476 2.2188 1.3041 3.1336z" clip-path="url(#a)" fill="#fff" stroke="#fff"/>
<g clip-path="url(#a)">
<g transform="translate(985.08 454.3) rotate(22.405) scale(.08 -.08)">
<use xlink:href="#aa"/>
</g>
</g>
<path d="m681.9 767.77 1.8987-4.1912q0.99036-2.1861-1.1958-3.1765l-7.0526-3.1949q-2.1861-0.99036-3.1765 1.1958l-1.8987 4.1912q-0.99036 2.1861 1.1958 3.1765l7.0526 3.1949q2.1861 0.99036 3.1765-1.1958z" clip-path="url(#a)" fill="#fff" stroke="#fff"/>
<g clip-path="url(#a)">
<g transform="translate(678.2 766.09) rotate(-65.629) scale(.08 -.08)">
<use xlink:href="#ap"/>
</g>
</g>
<path d="m739.36 763.13 2.3052 5.0885q0.99036 2.1861 3.1765 1.1958l7.0526-3.1949q2.1861-0.99036 1.1958-3.1765l-2.3052-5.0885q-0.99036-2.1861-3.1765-1.1958l-7.0526 3.1949q-2.1861 0.99036-1.1958 3.1765z" clip-path="url(#a)" fill="#fff" stroke="#fff"/>
<g clip-path="url(#a)">
<g transform="translate(743.06 761.45) rotate(65.629) scale(.08 -.08)">
<use xlink:href="#r"/>
</g>
</g>
<path d="m703.73 933.95 5.2685-34.889q0.35835-2.3731-2.0147-2.7314l-7.6557-1.1561q-2.3731-0.35835-2.7314 2.0147l-5.2685 34.889q-0.35835 2.3731 2.0147 2.7314l7.6557 1.1561q2.3731 0.35835 2.7314-2.0147z" clip-path="url(#a)" fill="#fff" stroke="#fff"/>
<g clip-path="url(#a)">
<g transform="translate(699.72 933.34) rotate(-81.413) scale(.08 -.08)">
<use xlink:href="#l"/>
<use x="60.818359" xlink:href="#d"/>
<use x="122.341797" xlink:href="#i"/>
<use x="163.439453" xlink:href="#k"/>
<use x="260.851562" xlink:href="#h"/>
<use x="288.634766" xlink:href="#e"/>
<use x="352.013672" xlink:href="#g"/>
<use x="413.292969" xlink:href="#j"/>
</g>
</g>
<path d="m714.36 899.06 5.2685 34.889q0.35835 2.3731 2.7314 2.0147l7.6557-1.1561q2.3731-0.35835 2.0147-2.7314l-5.2685-34.889q-0.35835-2.3731-2.7314-2.0147l-7.6557 1.1561q-2.3731 0.35835-2.0147 2.7314z" clip-path="url(#a)" fill="#fff" stroke="#fff"/>
<g clip-path="url(#a)">
<g transform="translate(718.38 898.45) rotate(81.413) scale(.08 -.08)">
<use xlink:href="#l"/>
<use x="60.818359" xlink:href="#d"/>
<use x="122.341797" xlink:href="#i"/>
<use x="163.439453" xlink:href="#k"/>
<use x="260.851562" xlink:href="#h"/>
<use x="288.634766" xlink:href="#e"/>
<use x="352.013672" xlink:href="#g"/>
<use x="413.292969" xlink:href="#j"/>
</g>
</g>
<path d="m859.42 689.35 0.87118-4.9794q0.41361-2.3641-1.9505-2.7777l-7.6267-1.3343q-2.3641-0.41362-2.7777 1.9505l-0.87118 4.9794q-0.41361 2.3641 1.9505 2.7777l7.6267 1.3343q2.3641 0.41361 2.7777-1.9505z" clip-path="url(#a)" fill="#fff" stroke="#fff"/>
<g clip-path="url(#a)">
<g transform="translate(855.42 688.65) rotate(-80.076) scale(.08 -.08)">
<use xlink:href="#u"/>
</g>
</g>
<path d="m882.9 688.73 0.13958-5.5845q0.059967-2.3993-2.3393-2.4592l-7.7401-0.19345q-2.3993-0.059967-2.4592 2.3393l-0.13958 5.5845q-0.059967 2.3993 2.3393 2.4592l7.7401 0.19346q2.3992 0.059966 2.4592-2.3393z" clip-path="url(#a)" fill="#fff" stroke="#fff"/>
<g clip-path="url(#a)">
<g transform="translate(878.84 688.62) rotate(-88.568) scale(.08 -.08)">
<use xlink:href="#r"/>
</g>
</g>
<path d="m904.48 609.5 1.8659 4.698q0.88587 2.2305 3.1164 1.3447l7.1958-2.8579q2.2305-0.88587 1.3447-3.1164l-1.8659-4.698q-0.88587-2.2305-3.1164-1.3447l-7.1958 2.8579q-2.2305 0.88587-1.3447 3.1164z" clip-path="url(#a)" fill="#fff" stroke="#fff"/>
<g clip-path="url(#a)">
<g transform="translate(908.26 608) rotate(68.339) scale(.08 -.08)">
<use xlink:href="#u"/>
</g>
</g>
<path d="m1121.8 615.41 3.1441-3.9582q1.4927-1.8793-0.38654-3.372l-6.0626-4.8157q-1.8793-1.4927-3.372 0.38654l-3.1441 3.9582q-1.4927 1.8793 0.38654 3.372l6.0626 4.8157q1.8793 1.4927 3.372-0.38654z" clip-path="url(#a)" fill="#fff" stroke="#fff"/>
<g clip-path="url(#a)">
<g transform="translate(1118.6 612.89) rotate(-51.539) scale(.08 -.08)">
<use xlink:href="#u"/>
</g>
</g>
<path d="m1181.1 607.64 0.49945 5.0303q0.23713 2.3883 2.6254 2.1511l7.7046-0.76499q2.3883-0.23713 2.1511-2.6254l-0.49945-5.0303q-0.23713-2.3883-2.6254-2.1511l-7.7046 0.76499q-2.3883 0.23713-2.1511 2.6254z" clip-path="url(#a)" fill="#fff" stroke="#fff"/>
<g clip-path="url(#a)">
<g transform="translate(1185.1 607.24) rotate(84.33) scale(.08 -.08)">
<use xlink:href="#u"/>
</g>
</g>
<path d="m1226.9 610.82 3.1882 4.5871q1.3697 1.9708 3.3405 0.60102l6.3577-4.4188q1.9708-1.3697 0.60103-3.3405l-3.1882-4.5871q-1.3697-1.9708-3.3405-0.60102l-6.3577 4.4188q-1.9708 1.3697-0.60102 3.3405z" clip-path="url(#a)" fill="#fff" stroke="#fff"/>
<g clip-path="url(#a)">
<g transform="translate(1230.2 608.5) rotate(55.2) scale(.08 -.08)">
<use xlink:href="#r"/>
</g>
</g>
<path d="m1039.3 767.56 1.6071-5.3214q0.69388-2.2975-1.6036-2.9914l-7.4119-2.2385q-2.2975-0.69388-2.9914 1.6036l-1.6071 5.3214q-0.69388 2.2975 1.6036 2.9914l7.4119 2.2385q2.2975 0.69388 2.9914-1.6036z" clip-path="url(#a)" fill="#fff" stroke="#fff"/>
<g clip-path="url(#a)">
<g transform="translate(1035.4 766.38) rotate(-73.195) scale(.08 -.08)">
<use xlink:href="#y"/>
</g>
</g>
<path d="m1050.8 760.29v5.5862q0 2.4 2.4 2.4h7.7425q2.4 0 2.4-2.4v-5.5862q0-2.4-2.4-2.4h-7.7425q-2.4 0-2.4 2.4z" clip-path="url(#a)" fill="#fff" stroke="#fff"/>
<g clip-path="url(#a)">
<g transform="translate(1054.9 760.29) rotate(90) scale(.08 -.08)">
<use xlink:href="#r"/>
</g>
</g>
<path d="m1073.3 762.23 1.6071 5.3214q0.69388 2.2975 2.9914 1.6036l7.4119-2.2385q2.2975-0.69388 1.6036-2.9914l-1.6071-5.3214q-0.69388-2.2975-2.9914-1.6036l-7.4119 2.2385q-2.2975 0.69388-1.6036 2.9914z" clip-path="url(#a)" fill="#fff" stroke="#fff"/>
<g clip-path="url(#a)">
<g transform="translate(1077.2 761.06) rotate(73.195) scale(.08 -.08)">
<use xlink:href="#y"/>
</g>
</g>
<path d="m1177.5 767.31 1.4615-4.8391q0.69388-2.2975-1.6036-2.9914l-7.4119-2.2385q-2.2975-0.69388-2.9914 1.6036l-1.4615 4.8391q-0.69388 2.2975 1.6036 2.9914l7.4119 2.2385q2.2975 0.69388 2.9914-1.6036z" clip-path="url(#a)" fill="#fff" stroke="#fff"/>
<g clip-path="url(#a)">
<g transform="translate(1173.6 766.14) rotate(-73.195) scale(.08 -.08)">
<use xlink:href="#u"/>
</g>
</g>
<path d="m1189 760.29v5.5862q0 2.4 2.4 2.4h7.7425q2.4 0 2.4-2.4v-5.5862q0-2.4-2.4-2.4h-7.7425q-2.4 0-2.4 2.4z" clip-path="url(#a)" fill="#fff" stroke="#fff"/>
<g clip-path="url(#a)">
<g transform="translate(1193 760.29) rotate(90) scale(.08 -.08)">
<use xlink:href="#r"/>
</g>
</g>
<path d="m1211.5 762.23 1.6071 5.3214q0.69388 2.2975 2.9914 1.6036l7.4119-2.2385q2.2975-0.69388 1.6036-2.9914l-1.6071-5.3214q-0.69388-2.2975-2.9914-1.6036l-7.4119 2.2385q-2.2975 0.69388-1.6036 2.9914z" clip-path="url(#a)" fill="#fff" stroke="#fff"/>
<g clip-path="url(#a)">
<g transform="translate(1215.3 761.06) rotate(73.195) scale(.08 -.08)">
<use xlink:href="#y"/>
</g>
</g>
<path d="m1281.1 760.67v4.8238q0 2.4 2.4 2.4h7.7425q2.4 0 2.4-2.4v-4.8238q0-2.4-2.4-2.4h-7.7425q-2.4 0-2.4 2.4z" clip-path="url(#a)" fill="#fff" stroke="#fff"/>
<g clip-path="url(#a)">
<g transform="translate(1285.1 760.67) rotate(90) scale(.08 -.08)">
<use xlink:href="#ad"/>
</g>
</g>
<path d="m1281.1 897.93v35.285q0 2.4 2.4 2.4h7.7425q2.4 0 2.4-2.4v-35.285q0-2.4-2.4-2.4h-7.7425q-2.4 0-2.4 2.4z" clip-path="url(#a)" fill="#fff" stroke="#fff"/>
<g clip-path="url(#a)">
<g transform="translate(1285.1 897.93) rotate(90) scale(.08 -.08)">
<use xlink:href="#l"/>
<use x="60.818359" xlink:href="#d"/>
<use x="122.341797" xlink:href="#i"/>
<use x="163.439453" xlink:href="#k"/>
<use x="260.851562" xlink:href="#h"/>
<use x="288.634766" xlink:href="#e"/>
<use x="352.013672" xlink:href="#g"/>
<use x="413.292969" xlink:href="#j"/>
</g>
</g>
<path d="m1142.9 897.93v35.285q0 2.4 2.4 2.4h7.7425q2.4 0 2.4-2.4v-35.285q0-2.4-2.4-2.4h-7.7425q-2.4 0-2.4 2.4z" clip-path="url(#a)" fill="#fff" stroke="#fff"/>
<g clip-path="url(#a)">
<g transform="translate(1147 897.93) rotate(90) scale(.08 -.08)">
<use xlink:href="#l"/>
<use x="60.818359" xlink:href="#d"/>
<use x="122.341797" xlink:href="#i"/>
<use x="163.439453" xlink:href="#k"/>
<use x="260.851562" xlink:href="#h"/>
<use x="288.634766" xlink:href="#e"/>
<use x="352.013672" xlink:href="#g"/>
<use x="413.292969" xlink:href="#j"/>
</g>
</g>
<path d="m1189 897.93v35.285q0 2.4 2.4 2.4h7.7425q2.4 0 2.4-2.4v-35.285q0-2.4-2.4-2.4h-7.7425q-2.4 0-2.4 2.4z" clip-path="url(#a)" fill="#fff" stroke="#fff"/>
<g clip-path="url(#a)">
<g transform="translate(1193 897.93) rotate(90) scale(.08 -.08)">
<use xlink:href="#l"/>
<use x="60.818359" xlink:href="#d"/>
<use x="122.341797" xlink:href="#i"/>
<use x="163.439453" xlink:href="#k"/>
<use x="260.851562" xlink:href="#h"/>
<use x="288.634766" xlink:href="#e"/>
<use x="352.013672" xlink:href="#g"/>
<use x="413.292969" xlink:href="#j"/>
</g>
</g>
<path d="m1235 897.93v35.285q0 2.4 2.4 2.4h7.7425q2.4 0 2.4-2.4v-35.285q0-2.4-2.4-2.4h-7.7425q-2.4 0-2.4 2.4z" clip-path="url(#a)" fill="#fff" stroke="#fff"/>
<g clip-path="url(#a)">
<g transform="translate(1239.1 897.93) rotate(90) scale(.08 -.08)">
<use xlink:href="#l"/>
<use x="60.818359" xlink:href="#d"/>
<use x="122.341797" xlink:href="#i"/>
<use x="163.439453" xlink:href="#k"/>
<use x="260.851562" xlink:href="#h"/>
<use x="288.634766" xlink:href="#e"/>
<use x="352.013672" xlink:href="#g"/>
<use x="413.292969" xlink:href="#j"/>
</g>
</g>
<path d="m1004.8 897.93v35.285q0 2.4 2.4 2.4h7.7425q2.4 0 2.4-2.4v-35.285q0-2.4-2.4-2.4h-7.7425q-2.4 0-2.4 2.4z" clip-path="url(#a)" fill="#fff" stroke="#fff"/>
<g clip-path="url(#a)">
<g transform="translate(1008.8 897.93) rotate(90) scale(.08 -.08)">
<use xlink:href="#l"/>
<use x="60.818359" xlink:href="#d"/>
<use x="122.341797" xlink:href="#i"/>
<use x="163.439453" xlink:href="#k"/>
<use x="260.851562" xlink:href="#h"/>
<use x="288.634766" xlink:href="#e"/>
<use x="352.013672" xlink:href="#g"/>
<use x="413.292969" xlink:href="#j"/>
</g>
</g>
<path d="m1050.8 897.93v35.285q0 2.4 2.4 2.4h7.7425q2.4 0 2.4-2.4v-35.285q0-2.4-2.4-2.4h-7.7425q-2.4 0-2.4 2.4z" clip-path="url(#a)" fill="#fff" stroke="#fff"/>
<g clip-path="url(#a)">
<g transform="translate(1054.9 897.93) rotate(90) scale(.08 -.08)">
<use xlink:href="#l"/>
<use x="60.818359" xlink:href="#d"/>
<use x="122.341797" xlink:href="#i"/>
<use x="163.439453" xlink:href="#k"/>
<use x="260.851562" xlink:href="#h"/>
<use x="288.634766" xlink:href="#e"/>
<use x="352.013672" xlink:href="#g"/>
<use x="413.292969" xlink:href="#j"/>
</g>
</g>
<path d="m1096.9 897.93v35.285q0 2.4 2.4 2.4h7.7425q2.4 0 2.4-2.4v-35.285q0-2.4-2.4-2.4h-7.7425q-2.4 0-2.4 2.4z" clip-path="url(#a)" fill="#fff" stroke="#fff"/>
<g clip-path="url(#a)">
<g transform="translate(1100.9 897.93) rotate(90) scale(.08 -.08)">
<use xlink:href="#l"/>
<use x="60.818359" xlink:href="#d"/>
<use x="122.341797" xlink:href="#i"/>
<use x="163.439453" xlink:href="#k"/>
<use x="260.851562" xlink:href="#h"/>
<use x="288.634766" xlink:href="#e"/>
<use x="352.013672" xlink:href="#g"/>
<use x="413.292969" xlink:href="#j"/>
</g>
</g>
<path d="m820.54 897.93v35.285q0 2.4 2.4 2.4h7.7425q2.4 0 2.4-2.4v-35.285q0-2.4-2.4-2.4h-7.7425q-2.4 0-2.4 2.4z" clip-path="url(#a)" fill="#fff" stroke="#fff"/>
<g clip-path="url(#a)">
<g transform="translate(824.61 897.93) rotate(90) scale(.08 -.08)">
<use xlink:href="#l"/>
<use x="60.818359" xlink:href="#d"/>
<use x="122.341797" xlink:href="#i"/>
<use x="163.439453" xlink:href="#k"/>
<use x="260.851562" xlink:href="#h"/>
<use x="288.634766" xlink:href="#e"/>
<use x="352.013672" xlink:href="#g"/>
<use x="413.292969" xlink:href="#j"/>
</g>
</g>
<path d="m866.6 897.93v35.285q0 2.4 2.4 2.4h7.7425q2.4 0 2.4-2.4v-35.285q0-2.4-2.4-2.4h-7.7425q-2.4 0-2.4 2.4z" clip-path="url(#a)" fill="#fff" stroke="#fff"/>
<g clip-path="url(#a)">
<g transform="translate(870.66 897.93) rotate(90) scale(.08 -.08)">
<use xlink:href="#l"/>
<use x="60.818359" xlink:href="#d"/>
<use x="122.341797" xlink:href="#i"/>
<use x="163.439453" xlink:href="#k"/>
<use x="260.851562" xlink:href="#h"/>
<use x="288.634766" xlink:href="#e"/>
<use x="352.013672" xlink:href="#g"/>
<use x="413.292969" xlink:href="#j"/>
</g>
</g>
<path d="m936.22 766.77 0.83-5.4964q0.35835-2.3731-2.0147-2.7314l-7.6557-1.1561q-2.3731-0.35835-2.7314 2.0147l-0.83 5.4964q-0.35835 2.3731 2.0147 2.7314l7.6557 1.1561q2.3731 0.35835 2.7314-2.0147z" clip-path="url(#a)" fill="#fff" stroke="#fff"/>
<g clip-path="url(#a)">
<g transform="translate(932.2 766.16) rotate(-81.413) scale(.08 -.08)">
<use xlink:href="#y"/>
</g>
</g>
<path d="m946.84 761.26 0.8341 5.5236q0.35835 2.3731 2.7314 2.0147l7.6557-1.1561q2.3731-0.35835 2.0147-2.7314l-0.8341-5.5236q-0.35835-2.3731-2.7314-2.0147l-7.6557 1.1561q-2.3731 0.35835-2.0147 2.7314z" clip-path="url(#a)" fill="#fff" stroke="#fff"/>
<g clip-path="url(#a)">
<g transform="translate(950.86 760.65) rotate(81.413) scale(.08 -.08)">
<use xlink:href="#r"/>
</g>
</g>
<path d="m912.65 897.93v35.285q0 2.4 2.4 2.4h7.7425q2.4 0 2.4-2.4v-35.285q0-2.4-2.4-2.4h-7.7425q-2.4 0-2.4 2.4z" clip-path="url(#a)" fill="#fff" stroke="#fff"/>
<g clip-path="url(#a)">
<g transform="translate(916.71 897.93) rotate(90) scale(.08 -.08)">
<use xlink:href="#l"/>
<use x="60.818359" xlink:href="#d"/>
<use x="122.341797" xlink:href="#i"/>
<use x="163.439453" xlink:href="#k"/>
<use x="260.851562" xlink:href="#h"/>
<use x="288.634766" xlink:href="#e"/>
<use x="352.013672" xlink:href="#g"/>
<use x="413.292969" xlink:href="#j"/>
</g>
</g>
<path d="m958.7 897.93v35.285q0 2.4 2.4 2.4h7.7425q2.4 0 2.4-2.4v-35.285q0-2.4-2.4-2.4h-7.7425q-2.4 0-2.4 2.4z" clip-path="url(#a)" fill="#fff" stroke="#fff"/>
<g clip-path="url(#a)">
<g transform="translate(962.77 897.93) rotate(90) scale(.08 -.08)">
<use xlink:href="#l"/>
<use x="60.818359" xlink:href="#d"/>
<use x="122.341797" xlink:href="#i"/>
<use x="163.439453" xlink:href="#k"/>
<use x="260.851562" xlink:href="#h"/>
<use x="288.634766" xlink:href="#e"/>
<use x="352.013672" xlink:href="#g"/>
<use x="413.292969" xlink:href="#j"/>
</g>
</g>
<path d="m636.33 897.93v35.285q0 2.4 2.4 2.4h7.7425q2.4 0 2.4-2.4v-35.285q0-2.4-2.4-2.4h-7.7425q-2.4 0-2.4 2.4z" clip-path="url(#a)" fill="#fff" stroke="#fff"/>
<g clip-path="url(#a)">
<g transform="translate(640.39 897.93) rotate(90) scale(.08 -.08)">
<use xlink:href="#l"/>
<use x="60.818359" xlink:href="#d"/>
<use x="122.341797" xlink:href="#i"/>
<use x="163.439453" xlink:href="#k"/>
<use x="260.851562" xlink:href="#h"/>
<use x="288.634766" xlink:href="#e"/>
<use x="352.013672" xlink:href="#g"/>
<use x="413.292969" xlink:href="#j"/>
</g>
</g>
<path d="m774.49 897.93v35.285q0 2.4 2.4 2.4h7.7425q2.4 0 2.4-2.4v-35.285q0-2.4-2.4-2.4h-7.7425q-2.4 0-2.4 2.4z" clip-path="url(#a)" fill="#fff" stroke="#fff"/>
<g clip-path="url(#a)">
<g transform="translate(778.55 897.93) rotate(90) scale(.08 -.08)">
<use xlink:href="#l"/>
<use x="60.818359" xlink:href="#d"/>
<use x="122.341797" xlink:href="#i"/>
<use x="163.439453" xlink:href="#k"/>
<use x="260.851562" xlink:href="#h"/>
<use x="288.634766" xlink:href="#e"/>
<use x="352.013672" xlink:href="#g"/>
<use x="413.292969" xlink:href="#j"/>
</g>
</g>
<path d="m105.04 933.95 5.2685-34.889q0.35835-2.3731-2.0147-2.7314l-7.6557-1.1561q-2.3731-0.35835-2.7314 2.0147l-5.2685 34.889q-0.35835 2.3731 2.0147 2.7314l7.6557 1.1561q2.3731 0.35835 2.7314-2.0147z" clip-path="url(#a)" fill="#fff" stroke="#fff"/>
<g clip-path="url(#a)">
<g transform="translate(101.03 933.34) rotate(-81.413) scale(.08 -.08)">
<use xlink:href="#l"/>
<use x="60.818359" xlink:href="#d"/>
<use x="122.341797" xlink:href="#i"/>
<use x="163.439453" xlink:href="#k"/>
<use x="260.851562" xlink:href="#h"/>
<use x="288.634766" xlink:href="#e"/>
<use x="352.013672" xlink:href="#g"/>
<use x="413.292969" xlink:href="#j"/>
</g>
</g>
<path d="m115.67 899.06 5.2685 34.889q0.35835 2.3731 2.7314 2.0147l7.6557-1.1561q2.3731-0.35835 2.0147-2.7314l-5.2685-34.889q-0.35835-2.3731-2.7314-2.0147l-7.6557 1.1561q-2.3731 0.35835-2.0147 2.7314z" clip-path="url(#a)" fill="#fff" stroke="#fff"/>
<g clip-path="url(#a)">
<g transform="translate(119.69 898.45) rotate(81.413) scale(.08 -.08)">
<use xlink:href="#l"/>
<use x="60.818359" xlink:href="#d"/>
<use x="122.341797" xlink:href="#i"/>
<use x="163.439453" xlink:href="#k"/>
<use x="260.851562" xlink:href="#h"/>
<use x="288.634766" xlink:href="#e"/>
<use x="352.013672" xlink:href="#g"/>
<use x="413.292969" xlink:href="#j"/>
</g>
</g>
<path d="m243.12 768.88 3.046-4.0342q1.4462-1.9154-0.4692-3.3615l-6.179-4.6654q-1.9154-1.4462-3.3615 0.4692l-3.046 4.0342q-1.4462 1.9154 0.4692 3.3615l6.179 4.6654q1.9154 1.4462 3.3615-0.4692z" clip-path="url(#a)" fill="#fff" stroke="#fff"/>
<g clip-path="url(#a)">
<g transform="translate(239.88 766.43) rotate(-52.946) scale(.08 -.08)">
<use xlink:href="#u"/>
</g>
</g>
<path d="m348.08 764.63 3.3661 4.4582q1.4462 1.9154 3.3615 0.4692l6.179-4.6654q1.9154-1.4462 0.4692-3.3615l-3.3661-4.4582q-1.4462-1.9154-3.3615-0.4692l-6.179 4.6654q-1.9154 1.4462-0.4692 3.3615z" clip-path="url(#a)" fill="#fff" stroke="#fff"/>
<g clip-path="url(#a)">
<g transform="translate(351.32 762.18) rotate(52.946) scale(.08 -.08)">
<use xlink:href="#r"/>
</g>
</g>
<path d="m221.85 897.93v35.285q0 2.4 2.4 2.4h7.7425q2.4 0 2.4-2.4v-35.285q0-2.4-2.4-2.4h-7.7425q-2.4 0-2.4 2.4z" clip-path="url(#a)" fill="#fff" stroke="#fff"/>
<g clip-path="url(#a)">
<g transform="translate(225.92 897.93) rotate(90) scale(.08 -.08)">
<use xlink:href="#l"/>
<use x="60.818359" xlink:href="#d"/>
<use x="122.341797" xlink:href="#i"/>
<use x="163.439453" xlink:href="#k"/>
<use x="260.851562" xlink:href="#h"/>
<use x="288.634766" xlink:href="#e"/>
<use x="352.013672" xlink:href="#g"/>
<use x="413.292969" xlink:href="#j"/>
</g>
</g>
<path d="m302.48 767.31 1.4615-4.8391q0.69388-2.2975-1.6036-2.9914l-7.4119-2.2385q-2.2975-0.69388-2.9914 1.6036l-1.4615 4.8391q-0.69388 2.2975 1.6036 2.9914l7.4119 2.2385q2.2975 0.69388 2.9914-1.6036z" clip-path="url(#a)" fill="#fff" stroke="#fff"/>
<g clip-path="url(#a)">
<g transform="translate(298.59 766.14) rotate(-73.195) scale(.08 -.08)">
<use xlink:href="#u"/>
</g>
</g>
<path d="m313.96 760.55v5.055q0 2.4 2.4 2.4h7.7425q2.4 0 2.4-2.4v-5.055q0-2.4-2.4-2.4h-7.7425q-2.4 0-2.4 2.4z" clip-path="url(#a)" fill="#fff" stroke="#fff"/>
<g clip-path="url(#a)">
<g transform="translate(318.02 760.55) rotate(90) scale(.08 -.08)">
<use xlink:href="#u"/>
</g>
</g>
<path d="m336.44 762.22 1.6151 5.3477q0.69388 2.2975 2.9914 1.6036l7.4119-2.2385q2.2975-0.69388 1.6036-2.9914l-1.6151-5.3477q-0.69388-2.2975-2.9914-1.6036l-7.4119 2.2385q-2.2975 0.69388-1.6036 2.9914z" clip-path="url(#a)" fill="#fff" stroke="#fff"/>
<g clip-path="url(#a)">
<g transform="translate(340.34 761.05) rotate(73.195) scale(.08 -.08)">
<use xlink:href="#r"/>
</g>
</g>
<path d="m267.9 897.93v35.285q0 2.4 2.4 2.4h7.7425q2.4 0 2.4-2.4v-35.285q0-2.4-2.4-2.4h-7.7425q-2.4 0-2.4 2.4z" clip-path="url(#a)" fill="#fff" stroke="#fff"/>
<g clip-path="url(#a)">
<g transform="translate(271.97 897.93) rotate(90) scale(.08 -.08)">
<use xlink:href="#l"/>
<use x="60.818359" xlink:href="#d"/>
<use x="122.341797" xlink:href="#i"/>
<use x="163.439453" xlink:href="#k"/>
<use x="260.851562" xlink:href="#h"/>
<use x="288.634766" xlink:href="#e"/>
<use x="352.013672" xlink:href="#g"/>
<use x="413.292969" xlink:href="#j"/>
</g>
</g>
<path d="m313.96 897.93v35.285q0 2.4 2.4 2.4h7.7425q2.4 0 2.4-2.4v-35.285q0-2.4-2.4-2.4h-7.7425q-2.4 0-2.4 2.4z" clip-path="url(#a)" fill="#fff" stroke="#fff"/>
<g clip-path="url(#a)">
<g transform="translate(318.02 897.93) rotate(90) scale(.08 -.08)">
<use xlink:href="#l"/>
<use x="60.818359" xlink:href="#d"/>
<use x="122.341797" xlink:href="#i"/>
<use x="163.439453" xlink:href="#k"/>
<use x="260.851562" xlink:href="#h"/>
<use x="288.634766" xlink:href="#e"/>
<use x="352.013672" xlink:href="#g"/>
<use x="413.292969" xlink:href="#j"/>
</g>
</g>
<path d="m360.01 897.93v35.285q0 2.4 2.4 2.4h7.7425q2.4 0 2.4-2.4v-35.285q0-2.4-2.4-2.4h-7.7425q-2.4 0-2.4 2.4z" clip-path="url(#a)" fill="#fff" stroke="#fff"/>
<g clip-path="url(#a)">
<g transform="translate(364.07 897.93) rotate(90) scale(.08 -.08)">
<use xlink:href="#l"/>
<use x="60.818359" xlink:href="#d"/>
<use x="122.341797" xlink:href="#i"/>
<use x="163.439453" xlink:href="#k"/>
<use x="260.851562" xlink:href="#h"/>
<use x="288.634766" xlink:href="#e"/>
<use x="352.013672" xlink:href="#g"/>
<use x="413.292969" xlink:href="#j"/>
</g>
</g>
<path d="m175.8 897.93v35.285q0 2.4 2.4 2.4h7.7425q2.4 0 2.4-2.4v-35.285q0-2.4-2.4-2.4h-7.7425q-2.4 0-2.4 2.4z" clip-path="url(#a)" fill="#fff" stroke="#fff"/>
<g clip-path="url(#a)">
<g transform="translate(179.86 897.93) rotate(90) scale(.08 -.08)">
<use xlink:href="#l"/>
<use x="60.818359" xlink:href="#d"/>
<use x="122.341797" xlink:href="#i"/>
<use x="163.439453" xlink:href="#k"/>
<use x="260.851562" xlink:href="#h"/>
<use x="288.634766" xlink:href="#e"/>
<use x="352.013672" xlink:href="#g"/>
<use x="413.292969" xlink:href="#j"/>
</g>
</g>
<path d="m406.06 897.93v35.285q0 2.4 2.4 2.4h7.7425q2.4 0 2.4-2.4v-35.285q0-2.4-2.4-2.4h-7.7425q-2.4 0-2.4 2.4z" clip-path="url(#a)" fill="#fff" stroke="#fff"/>
<g clip-path="url(#a)">
<g transform="translate(410.13 897.93) rotate(90) scale(.08 -.08)">
<use xlink:href="#l"/>
<use x="60.818359" xlink:href="#d"/>
<use x="122.341797" xlink:href="#i"/>
<use x="163.439453" xlink:href="#k"/>
<use x="260.851562" xlink:href="#h"/>
<use x="288.634766" xlink:href="#e"/>
<use x="352.013672" xlink:href="#g"/>
<use x="413.292969" xlink:href="#j"/>
</g>
</g>
<path d="m937.64 138.12 9.6326-2.4222q2.3275-0.58528 1.7423-2.9128l-1.8881-7.5087q-0.58528-2.3275-2.9128-1.7423l-9.6326 2.4222q-2.3275 0.58528-1.7423 2.9128l1.8881 7.5087q0.58528 2.3275 2.9128 1.7423z" clip-path="url(#a)" fill="#fff" stroke="#fff"/>
<g clip-path="url(#a)">
<g transform="translate(936.65 134.18) rotate(-14.115) scale(.08 -.08)">
<use xlink:href="#z"/>
<use x="55.744141" xlink:href="#v"/>
</g>
</g>
<path d="m1363.2 440.46 2.4779 9.7049q0.59372 2.3254 2.9191 1.7317l7.5018-1.9154q2.3254-0.59372 1.7317-2.9191l-2.4779-9.7049q-0.59372-2.3254-2.9191-1.7317l-7.5018 1.9154q-2.3254 0.59372-1.7317 2.9191z" clip-path="url(#a)" fill="#fff" stroke="#fff"/>
<g clip-path="url(#a)">
<g transform="translate(1367.2 439.45) rotate(75.677) scale(.08 -.08)">
<use xlink:href="#z"/>
<use x="55.712891" xlink:href="#y"/>
</g>
</g>
<path d="m1489.2 290.89 6.8051 7.235q1.6443 1.7482 3.3925 0.10385l5.6397-5.3047q1.7482-1.6443 0.10385-3.3925l-6.8051-7.235q-1.6443-1.7482-3.3925-0.10385l-5.6397 5.3047q-1.7482 1.6443-0.10386 3.3925z" clip-path="url(#a)" fill="#fff" stroke="#fff"/>
<g clip-path="url(#a)">
<g transform="translate(1492.2 288.1) rotate(46.753) scale(.08 -.08)">
<use xlink:href="#z"/>
<use x="55.744141" xlink:href="#v"/>
</g>
</g>
<path d="m452.12 897.93v35.285q0 2.4 2.4 2.4h7.7425q2.4 0 2.4-2.4v-35.285q0-2.4-2.4-2.4h-7.7425q-2.4 0-2.4 2.4z" clip-path="url(#a)" fill="#fff" stroke="#fff"/>
<g clip-path="url(#a)">
<g transform="translate(456.18 897.93) rotate(90) scale(.08 -.08)">
<use xlink:href="#l"/>
<use x="60.818359" xlink:href="#d"/>
<use x="122.341797" xlink:href="#i"/>
<use x="163.439453" xlink:href="#k"/>
<use x="260.851562" xlink:href="#h"/>
<use x="288.634766" xlink:href="#e"/>
<use x="352.013672" xlink:href="#g"/>
<use x="413.292969" xlink:href="#j"/>
</g>
</g>
<path d="m1327.1 897.93v35.285q0 2.4 2.4 2.4h7.7425q2.4 0 2.4-2.4v-35.285q0-2.4-2.4-2.4h-7.7425q-2.4 0-2.4 2.4z" clip-path="url(#a)" fill="#fff" stroke="#fff"/>
<g clip-path="url(#a)">
<g transform="translate(1331.2 897.93) rotate(90) scale(.08 -.08)">
<use xlink:href="#l"/>
<use x="60.818359" xlink:href="#d"/>
<use x="122.341797" xlink:href="#i"/>
<use x="163.439453" xlink:href="#k"/>
<use x="260.851562" xlink:href="#h"/>
<use x="288.634766" xlink:href="#e"/>
<use x="352.013672" xlink:href="#g"/>
<use x="413.292969" xlink:href="#j"/>
</g>
</g>
<path d="m1373.2 897.93v35.285q0 2.4 2.4 2.4h7.7425q2.4 0 2.4-2.4v-35.285q0-2.4-2.4-2.4h-7.7425q-2.4 0-2.4 2.4z" clip-path="url(#a)" fill="#fff" stroke="#fff"/>
<g clip-path="url(#a)">
<g transform="translate(1377.2 897.93) rotate(90) scale(.08 -.08)">
<use xlink:href="#l"/>
<use x="60.818359" xlink:href="#d"/>
<use x="122.341797" xlink:href="#i"/>
<use x="163.439453" xlink:href="#k"/>
<use x="260.851562" xlink:href="#h"/>
<use x="288.634766" xlink:href="#e"/>
<use x="352.013672" xlink:href="#g"/>
<use x="413.292969" xlink:href="#j"/>
</g>
</g>
<path d="m1833.7 897.93v35.285q0 2.4 2.4 2.4h7.7425q2.4 0 2.4-2.4v-35.285q0-2.4-2.4-2.4h-7.7425q-2.4 0-2.4 2.4z" clip-path="url(#a)" fill="#fff" stroke="#fff"/>
<g clip-path="url(#a)">
<g transform="translate(1837.8 897.93) rotate(90) scale(.08 -.08)">
<use xlink:href="#l"/>
<use x="60.818359" xlink:href="#d"/>
<use x="122.341797" xlink:href="#i"/>
<use x="163.439453" xlink:href="#k"/>
<use x="260.851562" xlink:href="#h"/>
<use x="288.634766" xlink:href="#e"/>
<use x="352.013672" xlink:href="#g"/>
<use x="413.292969" xlink:href="#j"/>
</g>
</g>
<defs>
<path id="b" d="m0 8.6603c2.2967 0 4.4997-0.9125 6.1237-2.5365 1.624-1.624 2.5365-3.827 2.5365-6.1237s-0.9125-4.4997-2.5365-6.1237c-1.624-1.624-3.827-2.5365-6.1237-2.5365s-4.4997 0.9125-6.1237 2.5365c-1.624 1.624-2.5365 3.827-2.5365 6.1237s0.9125 4.4997 2.5365 6.1237c1.624 1.624 3.827 2.5365 6.1237 2.5365z"/>
</defs>
<g clip-path="url(#a)">
<use x="89.963505" y="991.813024" fill="#ffffff" stroke="#ffffff" xlink:href="#b"/>
</g>
<g clip-path="url(#a)">
<use x="136.016659" y="991.813024" fill="#ffffff" stroke="#ffffff" xlink:href="#b"/>
</g>
<g clip-path="url(#a)">
<use x="182.069812" y="991.813024" fill="#ffffff" stroke="#ffffff" xlink:href="#b"/>
</g>
<g clip-path="url(#a)">
<use x="228.122966" y="991.813024" fill="#ffffff" stroke="#ffffff" xlink:href="#b"/>
</g>
<g clip-path="url(#a)">
<use x="274.17612" y="991.813024" fill="#ffffff" stroke="#ffffff" xlink:href="#b"/>
</g>
<g clip-path="url(#a)">
<use x="320.229273" y="991.813024" fill="#ffffff" stroke="#ffffff" xlink:href="#b"/>
</g>
<g clip-path="url(#a)">
<use x="366.282427" y="991.813024" fill="#ffffff" stroke="#ffffff" xlink:href="#b"/>
</g>
<g clip-path="url(#a)">
<use x="412.33558" y="991.813024" fill="#ffffff" stroke="#ffffff" xlink:href="#b"/>
</g>
<g clip-path="url(#a)">
<use x="458.388734" y="991.813024" fill="#ffffff" stroke="#ffffff" xlink:href="#b"/>
</g>
<g clip-path="url(#a)">
<use x="504.441887" y="991.813024" fill="#ffffff" stroke="#ffffff" xlink:href="#b"/>
</g>
<g clip-path="url(#a)">
<use x="550.495041" y="991.813024" fill="#ffffff" stroke="#ffffff" xlink:href="#b"/>
</g>
<g clip-path="url(#a)">
<use x="596.548195" y="991.813024" fill="#ffffff" stroke="#ffffff" xlink:href="#b"/>
</g>
<g clip-path="url(#a)">
<use x="642.601348" y="991.813024" fill="#ffffff" stroke="#ffffff" xlink:href="#b"/>
</g>
<g clip-path="url(#a)">
<use x="688.654502" y="991.813024" fill="#ffffff" stroke="#ffffff" xlink:href="#b"/>
</g>
<g clip-path="url(#a)">
<use x="734.707655" y="991.813024" fill="#ffffff" stroke="#ffffff" xlink:href="#b"/>
</g>
<g clip-path="url(#a)">
<use x="780.760809" y="991.813024" fill="#ffffff" stroke="#ffffff" xlink:href="#b"/>
</g>
<g clip-path="url(#a)">
<use x="826.813962" y="991.813024" fill="#ffffff" stroke="#ffffff" xlink:href="#b"/>
</g>
<g clip-path="url(#a)">
<use x="872.867116" y="991.813024" fill="#ffffff" stroke="#ffffff" xlink:href="#b"/>
</g>
<g clip-path="url(#a)">
<use x="918.92027" y="991.813024" fill="#ffffff" stroke="#ffffff" xlink:href="#b"/>
</g>
<g clip-path="url(#a)">
<use x="964.973423" y="991.813024" fill="#ffffff" stroke="#ffffff" xlink:href="#b"/>
</g>
<g clip-path="url(#a)">
<use x="1011.026577" y="991.813024" fill="#ffffff" stroke="#ffffff" xlink:href="#b"/>
</g>
<g clip-path="url(#a)">
<use x="1057.07973" y="991.813024" fill="#ffffff" stroke="#ffffff" xlink:href="#b"/>
</g>
<g clip-path="url(#a)">
<use x="1103.132884" y="991.813024" fill="#ffffff" stroke="#ffffff" xlink:href="#b"/>
</g>
<g clip-path="url(#a)">
<use x="1149.186038" y="991.813024" fill="#ffffff" stroke="#ffffff" xlink:href="#b"/>
</g>
<g clip-path="url(#a)">
<use x="1195.239191" y="991.813024" fill="#ffffff" stroke="#ffffff" xlink:href="#b"/>
</g>
<g clip-path="url(#a)">
<use x="1241.292345" y="991.813024" fill="#ffffff" stroke="#ffffff" xlink:href="#b"/>
</g>
<g clip-path="url(#a)">
<use x="1287.345498" y="991.813024" fill="#ffffff" stroke="#ffffff" xlink:href="#b"/>
</g>
<g clip-path="url(#a)">
<use x="1333.398652" y="991.813024" fill="#ffffff" stroke="#ffffff" xlink:href="#b"/>
</g>
<g clip-path="url(#a)">
<use x="1379.451805" y="991.813024" fill="#ffffff" stroke="#ffffff" xlink:href="#b"/>
</g>
<g clip-path="url(#a)">
<use x="1425.504959" y="991.813024" fill="#ffffff" stroke="#ffffff" xlink:href="#b"/>
</g>
<g clip-path="url(#a)">
<use x="1471.558113" y="991.813024" fill="#ffffff" stroke="#ffffff" xlink:href="#b"/>
</g>
<g clip-path="url(#a)">
<use x="1517.611266" y="991.813024" fill="#ffffff" stroke="#ffffff" xlink:href="#b"/>
</g>
<g clip-path="url(#a)">
<use x="1563.66442" y="991.813024" fill="#ffffff" stroke="#ffffff" xlink:href="#b"/>
</g>
<g clip-path="url(#a)">
<use x="1609.717573" y="991.813024" fill="#ffffff" stroke="#ffffff" xlink:href="#b"/>
</g>
<g clip-path="url(#a)">
<use x="1655.770727" y="991.813024" fill="#ffffff" stroke="#ffffff" xlink:href="#b"/>
</g>
<g clip-path="url(#a)">
<use x="1701.82388" y="991.813024" fill="#ffffff" stroke="#ffffff" xlink:href="#b"/>
</g>
<g clip-path="url(#a)">
<use x="1747.877034" y="991.813024" fill="#ffffff" stroke="#ffffff" xlink:href="#b"/>
</g>
<g clip-path="url(#a)">
<use x="1793.930188" y="991.813024" fill="#ffffff" stroke="#ffffff" xlink:href="#b"/>
</g>
<g clip-path="url(#a)">
<use x="1839.983341" y="991.813024" fill="#ffffff" stroke="#ffffff" xlink:href="#b"/>
</g>
<g clip-path="url(#a)">
<use x="1031.36672" y="48.186976" fill="#ffffff" stroke="#ffffff" xlink:href="#b"/>
</g>
<g clip-path="url(#a)">
<use x="239.636254" y="532.228921" fill="#ffffff" stroke="#ffffff" xlink:href="#b"/>
</g>
<g clip-path="url(#a)">
<use x="612.283022" y="213.466304" fill="#ffffff" stroke="#ffffff" xlink:href="#b"/>
</g>
<g clip-path="url(#a)">
<use x="1471.558113" y="839.325413" fill="#ffffff" stroke="#ffffff" xlink:href="#b"/>
</g>
<g clip-path="url(#a)">
<use x="1724.850457" y="532.228921" fill="#ffffff" stroke="#ffffff" xlink:href="#b"/>
</g>
<g clip-path="url(#a)">
<use x="1886.036495" y="991.813024" fill="#ffffff" stroke="#ffffff" xlink:href="#b"/>
</g>
<g clip-path="url(#a)">
<use x="1586.690997" y="686.837802" fill="#ffffff" stroke="#ffffff" xlink:href="#b"/>
</g>
<g clip-path="url(#a)">
<use x="1655.770727" y="839.325413" fill="#ffffff" stroke="#ffffff" xlink:href="#b"/>
</g>
<g clip-path="url(#a)">
<use x="1770.903611" y="686.837802" fill="#ffffff" stroke="#ffffff" xlink:href="#b"/>
</g>
<g clip-path="url(#a)">
<use x="1701.82388" y="839.325413" fill="#ffffff" stroke="#ffffff" xlink:href="#b"/>
</g>
<g clip-path="url(#a)">
<use x="1747.877034" y="839.325413" fill="#ffffff" stroke="#ffffff" xlink:href="#b"/>
</g>
<g clip-path="url(#a)">
<use x="1793.930188" y="839.325413" fill="#ffffff" stroke="#ffffff" xlink:href="#b"/>
</g>
<g clip-path="url(#a)">
<use x="1563.66442" y="839.325413" fill="#ffffff" stroke="#ffffff" xlink:href="#b"/>
</g>
<g clip-path="url(#a)">
<use x="1609.717573" y="839.325413" fill="#ffffff" stroke="#ffffff" xlink:href="#b"/>
</g>
<g clip-path="url(#a)">
<use x="504.441887" y="839.325413" fill="#ffffff" stroke="#ffffff" xlink:href="#b"/>
</g>
<g clip-path="url(#a)">
<use x="550.495041" y="839.325413" fill="#ffffff" stroke="#ffffff" xlink:href="#b"/>
</g>
<g clip-path="url(#a)">
<use x="596.548195" y="839.325413" fill="#ffffff" stroke="#ffffff" xlink:href="#b"/>
</g>
<g clip-path="url(#a)">
<use x="797.646965" y="374.642929" fill="#ffffff" stroke="#ffffff" xlink:href="#b"/>
</g>
<g clip-path="url(#a)">
<use x="711.681079" y="686.837802" fill="#ffffff" stroke="#ffffff" xlink:href="#b"/>
</g>
<g clip-path="url(#a)">
<use x="711.681079" y="839.325413" fill="#ffffff" stroke="#ffffff" xlink:href="#b"/>
</g>
<g clip-path="url(#a)">
<use x="880.542642" y="532.228921" fill="#ffffff" stroke="#ffffff" xlink:href="#b"/>
</g>
<g clip-path="url(#a)">
<use x="1179.88814" y="532.228921" fill="#ffffff" stroke="#ffffff" xlink:href="#b"/>
</g>
<g clip-path="url(#a)">
<use x="1057.07973" y="686.837802" fill="#ffffff" stroke="#ffffff" xlink:href="#b"/>
</g>
<g clip-path="url(#a)">
<use x="1195.239191" y="686.837802" fill="#ffffff" stroke="#ffffff" xlink:href="#b"/>
</g>
<g clip-path="url(#a)">
<use x="1287.345498" y="686.837802" fill="#ffffff" stroke="#ffffff" xlink:href="#b"/>
</g>
<g clip-path="url(#a)">
<use x="1287.345498" y="839.325413" fill="#ffffff" stroke="#ffffff" xlink:href="#b"/>
</g>
<g clip-path="url(#a)">
<use x="1149.186038" y="839.325413" fill="#ffffff" stroke="#ffffff" xlink:href="#b"/>
</g>
<g clip-path="url(#a)">
<use x="1195.239191" y="839.325413" fill="#ffffff" stroke="#ffffff" xlink:href="#b"/>
</g>
<g clip-path="url(#a)">
<use x="1241.292345" y="839.325413" fill="#ffffff" stroke="#ffffff" xlink:href="#b"/>
</g>
<g clip-path="url(#a)">
<use x="1011.026577" y="839.325413" fill="#ffffff" stroke="#ffffff" xlink:href="#b"/>
</g>
<g clip-path="url(#a)">
<use x="1057.07973" y="839.325413" fill="#ffffff" stroke="#ffffff" xlink:href="#b"/>
</g>
<g clip-path="url(#a)">
<use x="1103.132884" y="839.325413" fill="#ffffff" stroke="#ffffff" xlink:href="#b"/>
</g>
<g clip-path="url(#a)">
<use x="826.813962" y="839.325413" fill="#ffffff" stroke="#ffffff" xlink:href="#b"/>
</g>
<g clip-path="url(#a)">
<use x="872.867116" y="839.325413" fill="#ffffff" stroke="#ffffff" xlink:href="#b"/>
</g>
<g clip-path="url(#a)">
<use x="941.946846" y="686.837802" fill="#ffffff" stroke="#ffffff" xlink:href="#b"/>
</g>
<g clip-path="url(#a)">
<use x="918.92027" y="839.325413" fill="#ffffff" stroke="#ffffff" xlink:href="#b"/>
</g>
<g clip-path="url(#a)">
<use x="964.973423" y="839.325413" fill="#ffffff" stroke="#ffffff" xlink:href="#b"/>
</g>
<g clip-path="url(#a)">
<use x="642.601348" y="839.325413" fill="#ffffff" stroke="#ffffff" xlink:href="#b"/>
</g>
<g clip-path="url(#a)">
<use x="780.760809" y="839.325413" fill="#ffffff" stroke="#ffffff" xlink:href="#b"/>
</g>
<g clip-path="url(#a)">
<use x="112.990082" y="839.325413" fill="#ffffff" stroke="#ffffff" xlink:href="#b"/>
</g>
<g clip-path="url(#a)">
<use x="297.202696" y="686.837802" fill="#ffffff" stroke="#ffffff" xlink:href="#b"/>
</g>
<g clip-path="url(#a)">
<use x="228.122966" y="839.325413" fill="#ffffff" stroke="#ffffff" xlink:href="#b"/>
</g>
<g clip-path="url(#a)">
<use x="320.229273" y="686.837802" fill="#ffffff" stroke="#ffffff" xlink:href="#b"/>
</g>
<g clip-path="url(#a)">
<use x="274.17612" y="839.325413" fill="#ffffff" stroke="#ffffff" xlink:href="#b"/>
</g>
<g clip-path="url(#a)">
<use x="320.229273" y="839.325413" fill="#ffffff" stroke="#ffffff" xlink:href="#b"/>
</g>
<g clip-path="url(#a)">
<use x="366.282427" y="839.325413" fill="#ffffff" stroke="#ffffff" xlink:href="#b"/>
</g>
<g clip-path="url(#a)">
<use x="182.069812" y="839.325413" fill="#ffffff" stroke="#ffffff" xlink:href="#b"/>
</g>
<g clip-path="url(#a)">
<use x="412.33558" y="839.325413" fill="#ffffff" stroke="#ffffff" xlink:href="#b"/>
</g>
<g clip-path="url(#a)">
<use x="1269.563864" y="48.186976" fill="#808080" stroke="#808080" xlink:href="#b"/>
</g>
<g clip-path="url(#a)">
<use x="458.388734" y="839.325413" fill="#ffffff" stroke="#ffffff" xlink:href="#b"/>
</g>
<g clip-path="url(#a)">
<use x="1333.398652" y="839.325413" fill="#ffffff" stroke="#ffffff" xlink:href="#b"/>
</g>
<g clip-path="url(#a)">
<use x="1379.451805" y="839.325413" fill="#ffffff" stroke="#ffffff" xlink:href="#b"/>
</g>
<g clip-path="url(#a)">
<use x="1839.983341" y="839.325413" fill="#ffffff" stroke="#ffffff" xlink:href="#b"/>
</g>
<g clip-path="url(#a)">
<defs>
<path id="at" d="m9.8125 72.906h13.281l32.328-60.984v60.984h9.5625v-72.906h-13.281l-32.312 60.984v-60.984h-9.5781z"/>
<path id="s" d="m45.406 46.391v29.594h8.9844v-75.984h-8.9844v8.2031q-2.8281-4.875-7.1562-7.25-4.3125-2.375-10.375-2.375-9.9062 0-16.141 7.9062-6.2188 7.9219-6.2188 20.812t6.2188 20.797q6.2344 7.9062 16.141 7.9062 6.0625 0 10.375-2.375 4.3281-2.3594 7.1562-7.2344zm-30.609-19.094q0-9.9062 4.0781-15.547t11.203-5.6406 11.219 5.6406q4.1094 5.6406 4.1094 15.547t-4.1094 15.547q-4.0938 5.6406-11.219 5.6406t-11.203-5.6406-4.0781-15.547z"/>
</defs>
<g transform="translate(79.972 994.57) scale(.1 -.1)">
<use xlink:href="#at"/>
<use x="74.804688" xlink:href="#d"/>
<use x="136.328125" xlink:href="#s"/>
</g>
</g>
<g clip-path="url(#a)">
<g transform="translate(123.82 994.57) scale(.1 -.1)">
<use xlink:href="#z"/>
<use x="55.712891" xlink:href="#g"/>
<use x="116.992188" xlink:href="#e"/>
<use x="180.371094" xlink:href="#s"/>
</g>
</g>
<g clip-path="url(#a)">
<defs>
<path id="x" d="m30.609 48.391q-7.2188 0-11.422-5.6406t-4.2031-15.453 4.1719-15.453q4.1875-5.6406 11.453-5.6406 7.1875 0 11.375 5.6562 4.2031 5.6719 4.2031 15.438 0 9.7188-4.2031 15.406-4.1875 5.6875-11.375 5.6875zm0 7.6094q11.719 0 18.406-7.625 6.7031-7.6094 6.7031-21.078 0-13.422-6.7031-21.078-6.6875-7.6406-18.406-7.6406-11.766 0-18.438 7.6406-6.6562 7.6562-6.6562 21.078 0 13.469 6.6562 21.078 6.6719 7.625 18.438 7.625z"/>
<path id="q" d="m18.312 70.219v-15.531h18.5v-6.9844h-18.5v-29.688q0-6.6875 1.8281-8.5938t7.4531-1.9062h9.2188v-7.5156h-9.2188q-10.406 0-14.359 3.875-3.9531 3.8906-3.9531 14.141v29.688h-6.5938v6.9844h6.5938v15.531z"/>
</defs>
<g transform="translate(160.54 994.57) scale(.1 -.1)">
<use xlink:href="#k"/>
<use x="97.412109" xlink:href="#x"/>
<use x="158.59375" xlink:href="#e"/>
<use x="221.972656" xlink:href="#q"/>
<use x="261.181641" xlink:href="#i"/>
<use x="302.294922" xlink:href="#g"/>
<use x="363.574219" xlink:href="#h"/>
<use x="391.357422" xlink:href="#q"/>
</g>
</g>
<g clip-path="url(#a)">
<defs>
<path id="t" d="m8.5 21.578v33.109h8.9844v-32.766q0-7.7656 3.0156-11.656 3.0312-3.875 9.0938-3.875 7.2656 0 11.484 4.6406 4.2344 4.6406 4.2344 12.656v31h8.9844v-54.688h-8.9844v8.4062q-3.2656-4.9844-7.5938-7.4062-4.3125-2.4219-10.031-2.4219-9.4219 0-14.312 5.8594-4.875 5.8594-4.875 17.141z"/>
<path id="bb" d="m9.4219 54.688h8.9844v-55.672q0-10.438-3.9844-15.125-3.9688-4.6875-12.812-4.6875h-3.4219v7.6094h2.4062q5.125 0 6.9688 2.375 1.8594 2.3594 1.8594 9.8281zm0 21.297h8.9844v-11.391h-8.9844z"/>
<path id="w" d="m44.281 53.078v-8.5q-3.7969 1.9531-7.9062 2.9219-4.0938 0.98438-8.5 0.98438-6.6875 0-10.031-2.0469t-3.3438-6.1562q0-3.125 2.3906-4.9062t9.625-3.3906l3.0781-0.6875q9.5625-2.0469 13.594-5.7812t4.0312-10.422q0-7.625-6.0312-12.078-6.0312-4.4375-16.578-4.4375-4.3906 0-9.1562 0.85938t-10.031 2.5625v9.2812q4.9844-2.5938 9.8125-3.8906 4.8281-1.2812 9.5781-1.2812 6.3438 0 9.75 2.1719 3.4219 2.1719 3.4219 6.125 0 3.6562-2.4688 5.6094-2.4531 1.9531-10.812 3.7656l-3.125 0.73438q-8.3438 1.75-12.062 5.3906-3.7031 3.6406-3.7031 9.9844 0 7.7188 5.4688 11.906 5.4688 4.2031 15.531 4.2031 4.9688 0 9.3594-0.73438 4.4062-0.71875 8.1094-2.1875z"/>
</defs>
<g transform="translate(207.66 994.57) scale(.1 -.1)">
<use xlink:href="#q"/>
<use x="39.208984" xlink:href="#x"/>
<use x="100.390625" xlink:href="#t"/>
<use x="163.769531" xlink:href="#bb"/>
<use x="191.552734" xlink:href="#x"/>
<use x="252.734375" xlink:href="#t"/>
<use x="316.113281" xlink:href="#i"/>
<use x="357.226562" xlink:href="#w"/>
</g>
</g>
<g clip-path="url(#a)">
<g transform="translate(269.72 994.57) scale(.1 -.1)">
<use xlink:href="#j"/>
<use x="27.783203" xlink:href="#g"/>
</g>
</g>
<g clip-path="url(#a)">
<defs>
<path id="an" d="m18.109 8.2031v-29h-9.0312v75.484h9.0312v-8.2969q2.8438 4.875 7.1562 7.2344 4.3281 2.375 10.328 2.375 9.9688 0 16.188-7.9062 6.2344-7.9062 6.2344-20.797t-6.2344-20.812q-6.2188-7.9062-16.188-7.9062-6 0-10.328 2.375-4.3125 2.375-7.1562 7.25zm30.578 19.094q0 9.9062-4.0781 15.547t-11.203 5.6406q-7.1406 0-11.219-5.6406t-4.0781-15.547 4.0781-15.547 11.219-5.6406q7.125 0 11.203 5.6406t4.0781 15.547z"/>
</defs>
<g transform="translate(309.89 994.57) scale(.1 -.1)">
<use xlink:href="#an"/>
<use x="63.476562" xlink:href="#j"/>
<use x="91.259766" xlink:href="#t"/>
<use x="154.638672" xlink:href="#w"/>
</g>
</g>
<g clip-path="url(#a)">
<defs>
<path id="ac" d="m48.781 52.594v-8.4062q-3.8125 2.1094-7.6406 3.1562t-7.7344 1.0469q-8.75 0-13.594-5.5469-4.8281-5.5312-4.8281-15.547t4.8281-15.562q4.8438-5.5312 13.594-5.5312 3.9062 0 7.7344 1.0469t7.6406 3.1562v-8.3125q-3.7656-1.75-7.7969-2.625-4.0156-0.89062-8.5625-0.89062-12.359 0-19.641 7.7656-7.2656 7.7656-7.2656 20.953 0 13.375 7.3438 21.031 7.3594 7.6719 20.156 7.6719 4.1406 0 8.0938-0.85938 3.9531-0.84375 7.6719-2.5469z"/>
</defs>
<g transform="translate(349.19 994.57) scale(.1 -.1)">
<use xlink:href="#q"/>
<use x="39.208984" xlink:href="#d"/>
<use x="100.732422" xlink:href="#e"/>
<use x="164.111328" xlink:href="#g"/>
<use x="225.390625" xlink:href="#ac"/>
<use x="280.371094" xlink:href="#d"/>
</g>
</g>
<g clip-path="url(#a)">
<defs>
<path id="aj" d="m56.203 29.594v-4.3906h-41.312q0.59375-9.2812 5.5938-14.141t13.938-4.8594q5.1719 0 10.031 1.2656t9.6562 3.8125v-8.5q-4.8438-2.0469-9.9219-3.125t-10.297-1.0781q-13.094 0-20.734 7.6094-7.6406 7.625-7.6406 20.625 0 13.422 7.25 21.297 7.25 7.8906 19.562 7.8906 11.031 0 17.453-7.1094 6.4219-7.0938 6.4219-19.297zm-8.9844 2.6406q-0.09375 7.3594-4.125 11.75-4.0312 4.4062-10.672 4.4062-7.5156 0-12.031-4.25t-5.2031-11.969zm-8.6875 47.75h9.7188l-15.906-18.359h-7.4844z"/>
</defs>
<g transform="translate(385.74 994.57) scale(.1 -.1)">
<use xlink:href="#h"/>
<use x="27.783203" xlink:href="#e"/>
<use x="91.162109" xlink:href="#ac"/>
<use x="146.142578" xlink:href="#i"/>
<use x="187.224609" xlink:href="#aj"/>
<use x="248.748047" xlink:href="#s"/>
<use x="312.224609" xlink:href="#t"/>
<use x="375.603516" xlink:href="#j"/>
<use x="403.386719" xlink:href="#h"/>
<use x="431.169922" xlink:href="#q"/>
<use x="470.378906" xlink:href="#aj"/>
</g>
</g>
<g clip-path="url(#a)">
<defs>
<path id="av" d="m11.719 51.703h10.297v-12.391h-10.297zm0-39.297h10.297v-8.4062l-8-15.625h-6.2969l4 15.625z"/>
</defs>
<g transform="translate(456.7 994.57) scale(.1 -.1)">
<use xlink:href="#av"/>
</g>
</g>
<g clip-path="url(#a)">
<g transform="translate(501.66 994.57) scale(.1 -.1)">
<use xlink:href="#h"/>
<use x="27.783203" xlink:href="#j"/>
</g>
</g>
<g clip-path="url(#a)">
<defs>
<path id="ak" d="m37.109 75.984v-7.4844h-8.5938q-4.8281 0-6.7188-1.9531-1.875-1.9531-1.875-7.0312v-4.8281h14.797v-6.9844h-14.797v-47.703h-9.0312v47.703h-8.5938v6.9844h8.5938v3.8125q0 9.125 4.25 13.297 4.25 4.1875 13.469 4.1875z"/>
</defs>
<g transform="translate(529.71 994.57) scale(.1 -.1)">
<use xlink:href="#g"/>
<use x="61.279297" xlink:href="#ak"/>
<use x="96.484375" xlink:href="#ak"/>
<use x="131.689453" xlink:href="#d"/>
<use x="193.212891" xlink:href="#ac"/>
<use x="248.193359" xlink:href="#q"/>
<use x="287.402344" xlink:href="#g"/>
<use x="348.681641" xlink:href="#h"/>
<use x="376.464844" xlink:href="#q"/>
</g>
</g>
<g clip-path="url(#a)">
<defs>
<path id="ax" d="m56.203 29.594v-4.3906h-41.312q0.59375-9.2812 5.5938-14.141t13.938-4.8594q5.1719 0 10.031 1.2656t9.6562 3.8125v-8.5q-4.8438-2.0469-9.9219-3.125t-10.297-1.0781q-13.094 0-20.734 7.6094-7.6406 7.625-7.6406 20.625 0 13.422 7.25 21.297 7.25 7.8906 19.562 7.8906 11.031 0 17.453-7.1094 6.4219-7.0938 6.4219-19.297zm-8.9844 2.6406q-0.09375 7.3594-4.125 11.75-4.0312 4.4062-10.672 4.4062-7.5156 0-12.031-4.25t-5.2031-11.969zm-19.078 47.75h7.2188l11.969-18.359h-6.7812l-8.7969 11.953-8.7812-11.953h-6.7969z"/>
</defs>
<g transform="translate(580.65 994.57) scale(.1 -.1)">
<use xlink:href="#k"/>
<use x="97.412109" xlink:href="#ax"/>
<use x="158.935547" xlink:href="#k"/>
<use x="256.347656" xlink:href="#d"/>
</g>
</g>
<g clip-path="url(#a)">
<g transform="translate(636.35 994.57) scale(.1 -.1)">
<use xlink:href="#s"/>
<use x="63.476562" xlink:href="#d"/>
</g>
</g>
<g clip-path="url(#a)">
<g transform="translate(682.41 994.57) scale(.1 -.1)">
<use xlink:href="#e"/>
<use x="63.378906" xlink:href="#d"/>
</g>
</g>
<g clip-path="url(#a)">
<g transform="translate(721.96 994.57) scale(.1 -.1)">
<use xlink:href="#an"/>
<use x="63.476562" xlink:href="#x"/>
<use x="124.658203" xlink:href="#h"/>
<use x="152.441406" xlink:href="#e"/>
<use x="215.820312" xlink:href="#q"/>
</g>
</g>
<g clip-path="url(#a)">
<defs>
<path id="ay" d="m54.891 54.688-19.781-26.609 20.797-28.078h-10.594l-15.922 21.484-15.906-21.484h-10.609l21.25 28.609-19.438 26.078h10.594l14.5-19.484 14.5 19.484z"/>
</defs>
<g transform="translate(757.1 994.57) scale(.1 -.1)">
<use xlink:href="#d"/>
<use x="61.507812" xlink:href="#ay"/>
<use x="120.6875" xlink:href="#g"/>
<use x="181.966797" xlink:href="#k"/>
<use x="279.378906" xlink:href="#h"/>
<use x="307.162109" xlink:href="#e"/>
<use x="370.541016" xlink:href="#d"/>
<use x="432.064453" xlink:href="#i"/>
</g>
</g>
<g clip-path="url(#a)">
<g transform="translate(822.36 994.57) scale(.1 -.1)">
<use xlink:href="#j"/>
<use x="27.783203" xlink:href="#g"/>
</g>
</g>
<g clip-path="url(#a)">
<g transform="translate(854.39 994.57) scale(.1 -.1)">
<use xlink:href="#w"/>
<use x="52.099609" xlink:href="#t"/>
<use x="115.478516" xlink:href="#i"/>
<use x="156.591797" xlink:href="#ak"/>
<use x="191.796875" xlink:href="#g"/>
<use x="253.076172" xlink:href="#ac"/>
<use x="308.056641" xlink:href="#d"/>
</g>
</g>
<g clip-path="url(#a)">
<g transform="translate(910.06 994.57) scale(.1 -.1)">
<use xlink:href="#s"/>
<use x="63.476562" xlink:href="#d"/>
<use x="125" xlink:href="#w"/>
</g>
</g>
<g clip-path="url(#a)">
<g transform="translate(954.2 994.57) scale(.1 -.1)">
<use xlink:href="#ak"/>
<use x="35.205078" xlink:href="#j"/>
<use x="62.988281" xlink:href="#x"/>
<use x="124.169922" xlink:href="#q"/>
<use x="163.378906" xlink:href="#w"/>
</g>
</g>
<g clip-path="url(#a)">
<g transform="translate(1004.8 994.57) scale(.1 -.1)">
<use xlink:href="#d"/>
<use x="61.523438" xlink:href="#e"/>
</g>
</g>
<g clip-path="url(#a)">
<defs>
<path id="bc" d="m54.891 33.016v-33.016h-8.9844v32.719q0 7.7656-3.0312 11.609-3.0312 3.8594-9.0781 3.8594-7.2812 0-11.484-4.6406-4.2031-4.625-4.2031-12.641v-30.906h-9.0312v75.984h9.0312v-29.797q3.2344 4.9375 7.5938 7.375 4.375 2.4375 10.094 2.4375 9.4219 0 14.25-5.8281 4.8438-5.8281 4.8438-17.156z"/>
</defs>
<g transform="translate(1039.9 994.57) scale(.1 -.1)">
<use xlink:href="#s"/>
<use x="63.476562" xlink:href="#d"/>
<use x="125" xlink:href="#bc"/>
<use x="188.378906" xlink:href="#x"/>
<use x="249.560547" xlink:href="#i"/>
<use x="290.673828" xlink:href="#w"/>
</g>
</g>
<g clip-path="url(#a)">
<g transform="translate(1096.9 994.57) scale(.1 -.1)">
<use xlink:href="#s"/>
<use x="63.476562" xlink:href="#d"/>
</g>
</g>
<g clip-path="url(#a)">
<g transform="translate(1140.4 994.57) scale(.1 -.1)">
<use xlink:href="#w"/>
<use x="52.099609" xlink:href="#x"/>
<use x="113.28125" xlink:href="#e"/>
</g>
</g>
<g clip-path="url(#a)">
<g transform="translate(1179.6 994.57) scale(.1 -.1)">
<use xlink:href="#q"/>
<use x="39.208984" xlink:href="#d"/>
<use x="100.732422" xlink:href="#k"/>
<use x="198.144531" xlink:href="#an"/>
<use x="261.621094" xlink:href="#w"/>
</g>
</g>
<g clip-path="url(#a)">
<g transform="translate(1235 994.57) scale(.1 -.1)">
<use xlink:href="#s"/>
<use x="63.476562" xlink:href="#d"/>
</g>
</g>
<g clip-path="url(#a)">
<defs>
<path id="ao" d="m48.688 27.297q0 9.9062-4.0781 15.547t-11.203 5.6406q-7.1406 0-11.219-5.6406t-4.0781-15.547 4.0781-15.547 11.219-5.6406q7.125 0 11.203 5.6406t4.0781 15.547zm-30.578 19.094q2.8438 4.875 7.1562 7.2344 4.3281 2.375 10.328 2.375 9.9688 0 16.188-7.9062 6.2344-7.9062 6.2344-20.797t-6.2344-20.812q-6.2188-7.9062-16.188-7.9062-6 0-10.328 2.375-4.3125 2.375-7.1562 7.25v-8.2031h-9.0312v75.984h9.0312z"/>
</defs>
<g transform="translate(1269.7 994.57) scale(.1 -.1)">
<use xlink:href="#ao"/>
<use x="63.476562" xlink:href="#x"/>
<use x="124.658203" xlink:href="#i"/>
<use x="165.755859" xlink:href="#s"/>
<use x="229.232422" xlink:href="#aj"/>
<use x="290.755859" xlink:href="#d"/>
</g>
</g>
<g clip-path="url(#a)">
<defs>
<path id="aw" d="m11.719 12.406h10.297v-8.4062l-8-15.625h-6.2969l4 15.625z"/>
</defs>
<g transform="translate(1331.8 994.57) scale(.1 -.1)">
<use xlink:href="#aw"/>
</g>
</g>
<g clip-path="url(#a)">
<defs>
<path id="as" d="m4.8906 30.906h90.234v-7.0312h-90.234z"/>
</defs>
<g transform="translate(1374.5 994.57) scale(.1 -.1)">
<use xlink:href="#as"/>
</g>
</g>
<g clip-path="url(#a)">
<g transform="translate(1419.2 994.57) scale(.1 -.1)">
<use xlink:href="#s"/>
<use x="63.476562" xlink:href="#t"/>
</g>
</g>
<g clip-path="url(#a)">
<g transform="translate(1456.5 994.57) scale(.1 -.1)">
<use xlink:href="#k"/>
<use x="97.412109" xlink:href="#x"/>
<use x="158.59375" xlink:href="#h"/>
<use x="186.376953" xlink:href="#e"/>
<use x="249.755859" xlink:href="#w"/>
</g>
</g>
<g clip-path="url(#a)">
<defs>
<path id="ba" d="m14.797 27.297q0-9.9062 4.0781-15.547t11.203-5.6406 11.219 5.6406q4.1094 5.6406 4.1094 15.547t-4.1094 15.547q-4.0938 5.6406-11.219 5.6406t-11.203-5.6406-4.0781-15.547zm30.609-19.094q-2.8281-4.875-7.1562-7.25-4.3125-2.375-10.375-2.375-9.9062 0-16.141 7.9062-6.2188 7.9219-6.2188 20.812t6.2188 20.797q6.2344 7.9062 16.141 7.9062 6.0625 0 10.375-2.375 4.3281-2.3594 7.1562-7.2344v8.2969h8.9844v-75.484h-8.9844z"/>
</defs>
<g transform="translate(1501.9 994.57) scale(.1 -.1)">
<use xlink:href="#ba"/>
<use x="63.476562" xlink:href="#t"/>
<use x="126.855469" xlink:href="#g"/>
<use x="188.134766" xlink:href="#e"/>
<use x="251.513672" xlink:href="#s"/>
</g>
</g>
<g clip-path="url(#a)">
<g transform="translate(1545.3 994.57) scale(.1 -.1)">
<use xlink:href="#g"/>
<use x="61.279297" xlink:href="#t"/>
<use x="124.658203" xlink:href="#ac"/>
<use x="179.638672" xlink:href="#t"/>
<use x="243.017578" xlink:href="#e"/>
<use x="306.396484" xlink:href="#d"/>
</g>
</g>
<g clip-path="url(#a)">
<g transform="translate(1591.4 994.57) scale(.1 -.1)">
<use xlink:href="#ao"/>
<use x="63.476562" xlink:href="#g"/>
<use x="124.755859" xlink:href="#j"/>
<use x="152.539062" xlink:href="#d"/>
<use x="214.0625" xlink:href="#h"/>
<use x="241.845703" xlink:href="#e"/>
<use x="305.224609" xlink:href="#d"/>
</g>
</g>
<g clip-path="url(#a)">
<defs>
<path id="ar" d="m12.703 72.906h10.297v-7.4219l-8.0156-15.578h-6.2969l4.0156 15.578z"/>
</defs>
<g transform="translate(1651 994.57) scale(.1 -.1)">
<use xlink:href="#e"/>
<use x="63.378906" xlink:href="#ar"/>
</g>
</g>
<g clip-path="url(#a)">
<g transform="translate(1690.4 994.57) scale(.1 -.1)">
<use xlink:href="#aj"/>
<use x="61.523438" xlink:href="#q"/>
<use x="100.732422" xlink:href="#g"/>
<use x="162.011719" xlink:href="#h"/>
<use x="189.794922" xlink:href="#q"/>
</g>
</g>
<g clip-path="url(#a)">
<g transform="translate(1741.6 994.57) scale(.1 -.1)">
<use xlink:href="#d"/>
<use x="61.523438" xlink:href="#e"/>
</g>
</g>
<g clip-path="url(#a)">
<defs>
<path id="az" d="m2.9844 54.688h9.5156l17.094-45.891 17.094 45.891h9.5156l-20.516-54.688h-12.203z"/>
</defs>
<g transform="translate(1784.7 994.57) scale(.1 -.1)">
<use xlink:href="#az"/>
<use x="59.179688" xlink:href="#t"/>
<use x="122.558594" xlink:href="#d"/>
</g>
</g>
<g clip-path="url(#a)">
<defs>
<path id="f" d="m10.688 12.406h10.312v-12.406h-10.312z"/>
</defs>
<g transform="translate(1838.4 994.57) scale(.1 -.1)">
<use xlink:href="#f"/>
</g>
</g>
<g clip-path="url(#a)">
<defs>
<path id="c" d="m12.406 8.2969h16.109v55.625l-17.531-3.5156v8.9844l17.438 3.5156h9.8594v-64.609h16.109v-8.2969h-41.984z"/>
</defs>
<g transform="translate(1023.4 50.946) scale(.1 -.1)">
<use xlink:href="#c"/>
<use x="63.623047" xlink:href="#f"/>
<use x="95.410156" xlink:href="#c"/>
</g>
</g>
<g clip-path="url(#a)">
<defs>
<path id="o" d="m19.188 8.2969h34.422v-8.2969h-46.281v8.2969q5.6094 5.8125 15.297 15.594 9.7031 9.7969 12.188 12.641 4.7344 5.3125 6.6094 9 1.8906 3.6875 1.8906 7.25 0 5.8125-4.0781 9.4688-4.0781 3.6719-10.625 3.6719-4.6406 0-9.7969-1.6094-5.1406-1.6094-11-4.8906v9.9688q5.9531 2.3906 11.125 3.6094 5.1875 1.2188 9.4844 1.2188 11.328 0 18.062-5.6719 6.7344-5.6562 6.7344-15.125 0-4.5-1.6875-8.5312-1.6719-4.0156-6.125-9.4844-1.2188-1.4219-7.7656-8.1875-6.5312-6.7656-18.453-18.922z"/>
</defs>
<g transform="translate(231.68 534.99) scale(.1 -.1)">
<use xlink:href="#c"/>
<use x="63.623047" xlink:href="#f"/>
<use x="95.410156" xlink:href="#o"/>
</g>
</g>
<g clip-path="url(#a)">
<defs>
<path id="m" d="m37.797 64.312-24.906-38.922h24.906zm-2.5938 8.5938h12.406v-47.516h10.406v-8.2031h-10.406v-17.188h-9.8125v17.188h-32.906v9.5156z"/>
</defs>
<g transform="translate(604.33 216.23) scale(.1 -.1)">
<use xlink:href="#c"/>
<use x="63.623047" xlink:href="#f"/>
<use x="95.410156" xlink:href="#m"/>
</g>
</g>
<g clip-path="url(#a)">
<defs>
<path id="ab" d="m8.2031 72.906h46.875v-4.2031l-26.469-68.703h-10.297l24.906 64.594h-35.016z"/>
</defs>
<g transform="translate(1463.6 842.08) scale(.1 -.1)">
<use xlink:href="#c"/>
<use x="63.623047" xlink:href="#f"/>
<use x="95.410156" xlink:href="#ab"/>
</g>
</g>
<g clip-path="url(#a)">
<defs>
<path id="ae" d="m31.781 34.625q-7.0312 0-11.062-3.7656-4.0156-3.7656-4.0156-10.344 0-6.5938 4.0156-10.359 4.0312-3.7656 11.062-3.7656t11.078 3.7812q4.0625 3.7969 4.0625 10.344 0 6.5781-4.0312 10.344-4.0156 3.7656-11.109 3.7656zm-9.8594 4.1875q-6.3438 1.5625-9.8906 5.9062-3.5312 4.3594-3.5312 10.609 0 8.7344 6.2188 13.812 6.2344 5.0781 17.062 5.0781 10.891 0 17.094-5.0781t6.2031-13.812q0-6.25-3.5469-10.609-3.5312-4.3438-9.8281-5.9062 7.125-1.6562 11.094-6.5 3.9844-4.8281 3.9844-11.797 0-10.609-6.4688-16.281-6.4688-5.6562-18.531-5.6562-12.047 0-18.531 5.6562-6.4688 5.6719-6.4688 16.281 0 6.9688 4 11.797 4.0156 4.8438 11.141 6.5zm-3.6094 15.578q0-5.6562 3.5312-8.8281 3.5469-3.1719 9.9375-3.1719 6.3594 0 9.9375 3.1719 3.5938 3.1719 3.5938 8.8281 0 5.6719-3.5938 8.8438-3.5781 3.1719-9.9375 3.1719-6.3906 0-9.9375-3.1719-3.5312-3.1719-3.5312-8.8438z"/>
</defs>
<g transform="translate(1716.9 534.99) scale(.1 -.1)">
<use xlink:href="#c"/>
<use x="63.623047" xlink:href="#f"/>
<use x="95.410156" xlink:href="#ae"/>
</g>
</g>
<g clip-path="url(#a)">
<defs>
<path id="al" d="m9.8125 72.906h9.8594v-72.906h-9.8594z"/>
<path id="au" d="m9.8125 72.906h14.703l18.594-49.609 18.703 49.609h14.703v-72.906h-9.625v64.016l-18.797-50h-9.9062l-18.797 50v-64.016h-9.5781z"/>
</defs>
<g transform="translate(1865 994.57) scale(.1 -.1)">
<use xlink:href="#al"/>
<use x="29.492188" xlink:href="#au"/>
<use x="115.771484" xlink:href="#ad"/>
<use x="176.074219" xlink:href="#z"/>
<use x="231.787109" xlink:href="#al"/>
<use x="261.279297" xlink:href="#r"/>
<use x="331.103516" xlink:href="#al"/>
<use x="360.595703" xlink:href="#l"/>
</g>
</g>
<g clip-path="url(#a)">
<g transform="translate(1575.6 689.6) scale(.1 -.1)">
<use xlink:href="#c"/>
<use x="63.623047" xlink:href="#f"/>
<use x="95.410156" xlink:href="#c"/>
<use x="159.033203" xlink:href="#c"/>
</g>
</g>
<g clip-path="url(#a)">
<g transform="translate(1644.6 842.08) scale(.1 -.1)">
<use xlink:href="#c"/>
<use x="63.623047" xlink:href="#f"/>
<use x="95.410156" xlink:href="#c"/>
<use x="159.033203" xlink:href="#o"/>
</g>
</g>
<g clip-path="url(#a)">
<defs>
<path id="n" d="m40.578 39.312q7.0781-1.5156 11.047-6.3125 3.9844-4.7812 3.9844-11.812 0-10.781-7.4219-16.703-7.4219-5.9062-21.094-5.9062-4.5781 0-9.4375 0.90625t-10.031 2.7188v9.5156q4.0938-2.3906 8.9688-3.6094 4.8906-1.2188 10.219-1.2188 9.2656 0 14.125 3.6562t4.8594 10.641q0 6.4531-4.5156 10.078-4.5156 3.6406-12.562 3.6406h-8.5v8.1094h8.8906q7.2656 0 11.125 2.9062t3.8594 8.375q0 5.6094-3.9844 8.6094-3.9688 3.0156-11.391 3.0156-4.0625 0-8.7031-0.89062-4.6406-0.875-10.203-2.7188v8.7812q5.625 1.5625 10.531 2.3438t9.25 0.78125q11.234 0 17.766-5.1094 6.5469-5.0938 6.5469-13.781 0-6.0625-3.4688-10.234t-9.8594-5.7812z"/>
</defs>
<g transform="translate(1759.8 689.6) scale(.1 -.1)">
<use xlink:href="#c"/>
<use x="63.623047" xlink:href="#f"/>
<use x="95.410156" xlink:href="#c"/>
<use x="159.033203" xlink:href="#n"/>
</g>
</g>
<g clip-path="url(#a)">
<g transform="translate(1690.7 842.08) scale(.1 -.1)">
<use xlink:href="#c"/>
<use x="63.623047" xlink:href="#f"/>
<use x="95.410156" xlink:href="#c"/>
<use x="159.033203" xlink:href="#m"/>
</g>
</g>
<g clip-path="url(#a)">
<defs>
<path id="p" d="m10.797 72.906h38.719v-8.3125h-29.688v-17.859q2.1406 0.73438 4.2812 1.0938 2.1562 0.35938 4.3125 0.35938 12.203 0 19.328-6.6875 7.1406-6.6875 7.1406-18.109 0-11.766-7.3281-18.297-7.3281-6.5156-20.656-6.5156-4.5938 0-9.3594 0.78125-4.75 0.78125-9.8281 2.3438v9.9219q4.3906-2.3906 9.0781-3.5625t9.9062-1.1719q8.4531 0 13.375 4.4375 4.9375 4.4375 4.9375 12.062 0 7.6094-4.9375 12.047-4.9219 4.4531-13.375 4.4531-3.9531 0-7.8906-0.875-3.9219-0.875-8.0156-2.7344z"/>
</defs>
<g transform="translate(1736.7 842.08) scale(.1 -.1)">
<use xlink:href="#c"/>
<use x="63.623047" xlink:href="#f"/>
<use x="95.410156" xlink:href="#c"/>
<use x="159.033203" xlink:href="#p"/>
</g>
</g>
<g clip-path="url(#a)">
<defs>
<path id="af" d="m33.016 40.375q-6.6406 0-10.531-4.5469-3.875-4.5312-3.875-12.438 0-7.8594 3.875-12.438 3.8906-4.5625 10.531-4.5625t10.516 4.5625q3.875 4.5781 3.875 12.438 0 7.9062-3.875 12.438-3.875 4.5469-10.516 4.5469zm19.578 30.922v-8.9844q-3.7188 1.75-7.5 2.6719-3.7812 0.9375-7.5 0.9375-9.7656 0-14.922-6.5938-5.1406-6.5938-5.875-19.922 2.875 4.25 7.2188 6.5156 4.3594 2.2656 9.5781 2.2656 10.984 0 17.359-6.6719 6.375-6.6562 6.375-18.125 0-11.234-6.6406-18.031-6.6406-6.7812-17.672-6.7812-12.656 0-19.344 9.6875-6.6875 9.7031-6.6875 28.109 0 17.281 8.2031 27.562t22.016 10.281q3.7188 0 7.5-0.73438t7.8906-2.1875z"/>
</defs>
<g transform="translate(1782.8 842.08) scale(.1 -.1)">
<use xlink:href="#c"/>
<use x="63.623047" xlink:href="#f"/>
<use x="95.410156" xlink:href="#c"/>
<use x="159.033203" xlink:href="#af"/>
</g>
</g>
<g clip-path="url(#a)">
<g transform="translate(1552.5 842.08) scale(.1 -.1)">
<use xlink:href="#c"/>
<use x="63.623047" xlink:href="#f"/>
<use x="95.410156" xlink:href="#c"/>
<use x="159.033203" xlink:href="#ab"/>
</g>
</g>
<g clip-path="url(#a)">
<g transform="translate(1598.6 842.08) scale(.1 -.1)">
<use xlink:href="#c"/>
<use x="63.623047" xlink:href="#f"/>
<use x="95.410156" xlink:href="#c"/>
<use x="159.033203" xlink:href="#ae"/>
</g>
</g>
<g clip-path="url(#a)">
<defs>
<path id="ah" d="m10.984 1.5156v8.9844q3.7188-1.7656 7.5156-2.6875 3.8125-0.92188 7.4844-0.92188 9.7656 0 14.906 6.5625 5.1562 6.5625 5.8906 19.953-2.8281-4.2031-7.1875-6.4531-4.3438-2.25-9.6094-2.25-10.938 0-17.312 6.6094-6.375 6.625-6.375 18.109 0 11.219 6.6406 18 6.6406 6.7969 17.672 6.7969 12.656 0 19.312-9.7031 6.6719-9.6875 6.6719-28.141 0-17.234-8.1875-27.516-8.1719-10.281-21.984-10.281-3.7188 0-7.5312 0.73438-3.7969 0.73438-7.9062 2.2031zm19.625 30.906q6.6406 0 10.516 4.5312 3.8906 4.5469 3.8906 12.469 0 7.8594-3.8906 12.422-3.875 4.5625-10.516 4.5625t-10.516-4.5625-3.875-12.422q0-7.9219 3.875-12.469 3.875-4.5312 10.516-4.5312z"/>
</defs>
<g transform="translate(493.31 842.08) scale(.1 -.1)">
<use xlink:href="#c"/>
<use x="63.623047" xlink:href="#f"/>
<use x="95.410156" xlink:href="#c"/>
<use x="159.033203" xlink:href="#ah"/>
</g>
</g>
<g clip-path="url(#a)">
<defs>
<path id="ai" d="m31.781 66.406q-7.6094 0-11.453-7.5-3.8281-7.4844-3.8281-22.531 0-14.984 3.8281-22.484 3.8438-7.5 11.453-7.5 7.6719 0 11.5 7.5 3.8438 7.5 3.8438 22.484 0 15.047-3.8438 22.531-3.8281 7.5-11.5 7.5zm0 7.8125q12.266 0 18.734-9.7031 6.4688-9.6875 6.4688-28.141 0-18.406-6.4688-28.109-6.4688-9.6875-18.734-9.6875-12.25 0-18.719 9.6875-6.4688 9.7031-6.4688 28.109 0 18.453 6.4688 28.141 6.4688 9.7031 18.719 9.7031z"/>
</defs>
<g transform="translate(539.36 842.08) scale(.1 -.1)">
<use xlink:href="#c"/>
<use x="63.623047" xlink:href="#f"/>
<use x="95.410156" xlink:href="#o"/>
<use x="159.033203" xlink:href="#ai"/>
</g>
</g>
<g clip-path="url(#a)">
<g transform="translate(585.42 842.08) scale(.1 -.1)">
<use xlink:href="#c"/>
<use x="63.623047" xlink:href="#f"/>
<use x="95.410156" xlink:href="#o"/>
<use x="159.033203" xlink:href="#c"/>
</g>
</g>
<g clip-path="url(#a)">
<g transform="translate(786.51 377.4) scale(.1 -.1)">
<use xlink:href="#c"/>
<use x="63.623047" xlink:href="#f"/>
<use x="95.410156" xlink:href="#o"/>
<use x="159.033203" xlink:href="#o"/>
</g>
</g>
<g clip-path="url(#a)">
<g transform="translate(700.55 689.6) scale(.1 -.1)">
<use xlink:href="#c"/>
<use x="63.623047" xlink:href="#f"/>
<use x="95.410156" xlink:href="#o"/>
<use x="159.033203" xlink:href="#n"/>
</g>
</g>
<g clip-path="url(#a)">
<g transform="translate(700.55 842.08) scale(.1 -.1)">
<use xlink:href="#c"/>
<use x="63.623047" xlink:href="#f"/>
<use x="95.410156" xlink:href="#o"/>
<use x="159.033203" xlink:href="#m"/>
</g>
</g>
<g clip-path="url(#a)">
<g transform="translate(869.41 534.99) scale(.1 -.1)">
<use xlink:href="#c"/>
<use x="63.623047" xlink:href="#f"/>
<use x="95.410156" xlink:href="#o"/>
<use x="159.033203" xlink:href="#p"/>
</g>
</g>
<g clip-path="url(#a)">
<g transform="translate(1168.8 534.99) scale(.1 -.1)">
<use xlink:href="#c"/>
<use x="63.623047" xlink:href="#f"/>
<use x="95.410156" xlink:href="#o"/>
<use x="159.033203" xlink:href="#af"/>
</g>
</g>
<g clip-path="url(#a)">
<g transform="translate(1045.9 689.6) scale(.1 -.1)">
<use xlink:href="#c"/>
<use x="63.623047" xlink:href="#f"/>
<use x="95.410156" xlink:href="#o"/>
<use x="159.033203" xlink:href="#ab"/>
</g>
</g>
<g clip-path="url(#a)">
<g transform="translate(1184.1 689.6) scale(.1 -.1)">
<use xlink:href="#c"/>
<use x="63.623047" xlink:href="#f"/>
<use x="95.410156" xlink:href="#o"/>
<use x="159.033203" xlink:href="#ah"/>
</g>
</g>
<g clip-path="url(#a)">
<g transform="translate(1276.2 689.6) scale(.1 -.1)">
<use xlink:href="#c"/>
<use x="63.623047" xlink:href="#f"/>
<use x="95.410156" xlink:href="#n"/>
<use x="159.033203" xlink:href="#ai"/>
</g>
</g>
<g clip-path="url(#a)">
<g transform="translate(1276.2 842.08) scale(.1 -.1)">
<use xlink:href="#c"/>
<use x="63.623047" xlink:href="#f"/>
<use x="95.410156" xlink:href="#n"/>
<use x="159.033203" xlink:href="#c"/>
</g>
</g>
<g clip-path="url(#a)">
<g transform="translate(1138.1 842.08) scale(.1 -.1)">
<use xlink:href="#c"/>
<use x="63.623047" xlink:href="#f"/>
<use x="95.410156" xlink:href="#n"/>
<use x="159.033203" xlink:href="#o"/>
</g>
</g>
<g clip-path="url(#a)">
<g transform="translate(1184.1 842.08) scale(.1 -.1)">
<use xlink:href="#c"/>
<use x="63.623047" xlink:href="#f"/>
<use x="95.410156" xlink:href="#n"/>
<use x="159.033203" xlink:href="#n"/>
</g>
</g>
<g clip-path="url(#a)">
<g transform="translate(1230.2 842.08) scale(.1 -.1)">
<use xlink:href="#c"/>
<use x="63.623047" xlink:href="#f"/>
<use x="95.410156" xlink:href="#n"/>
<use x="159.033203" xlink:href="#m"/>
</g>
</g>
<g clip-path="url(#a)">
<g transform="translate(999.89 842.08) scale(.1 -.1)">
<use xlink:href="#c"/>
<use x="63.623047" xlink:href="#f"/>
<use x="95.410156" xlink:href="#n"/>
<use x="159.033203" xlink:href="#p"/>
</g>
</g>
<g clip-path="url(#a)">
<g transform="translate(1045.9 842.08) scale(.1 -.1)">
<use xlink:href="#c"/>
<use x="63.623047" xlink:href="#f"/>
<use x="95.410156" xlink:href="#n"/>
<use x="159.033203" xlink:href="#af"/>
</g>
</g>
<g clip-path="url(#a)">
<g transform="translate(1092 842.08) scale(.1 -.1)">
<use xlink:href="#c"/>
<use x="63.623047" xlink:href="#f"/>
<use x="95.410156" xlink:href="#n"/>
<use x="159.033203" xlink:href="#ab"/>
</g>
</g>
<g clip-path="url(#a)">
<g transform="translate(815.68 842.08) scale(.1 -.1)">
<use xlink:href="#c"/>
<use x="63.623047" xlink:href="#f"/>
<use x="95.410156" xlink:href="#n"/>
<use x="159.033203" xlink:href="#ae"/>
</g>
</g>
<g clip-path="url(#a)">
<g transform="translate(861.73 842.08) scale(.1 -.1)">
<use xlink:href="#c"/>
<use x="63.623047" xlink:href="#f"/>
<use x="95.410156" xlink:href="#n"/>
<use x="159.033203" xlink:href="#ah"/>
</g>
</g>
<g clip-path="url(#a)">
<g transform="translate(930.81 689.6) scale(.1 -.1)">
<use xlink:href="#c"/>
<use x="63.623047" xlink:href="#f"/>
<use x="95.410156" xlink:href="#m"/>
<use x="159.033203" xlink:href="#ai"/>
</g>
</g>
<g clip-path="url(#a)">
<g transform="translate(907.79 842.08) scale(.1 -.1)">
<use xlink:href="#c"/>
<use x="63.623047" xlink:href="#f"/>
<use x="95.410156" xlink:href="#m"/>
<use x="159.033203" xlink:href="#c"/>
</g>
</g>
<g clip-path="url(#a)">
<g transform="translate(953.84 842.08) scale(.1 -.1)">
<use xlink:href="#c"/>
<use x="63.623047" xlink:href="#f"/>
<use x="95.410156" xlink:href="#m"/>
<use x="159.033203" xlink:href="#o"/>
</g>
</g>
<g clip-path="url(#a)">
<g transform="translate(631.47 842.08) scale(.1 -.1)">
<use xlink:href="#c"/>
<use x="63.623047" xlink:href="#f"/>
<use x="95.410156" xlink:href="#m"/>
<use x="159.033203" xlink:href="#n"/>
</g>
</g>
<g clip-path="url(#a)">
<g transform="translate(769.63 842.08) scale(.1 -.1)">
<use xlink:href="#c"/>
<use x="63.623047" xlink:href="#f"/>
<use x="95.410156" xlink:href="#m"/>
<use x="159.033203" xlink:href="#m"/>
</g>
</g>
<g clip-path="url(#a)">
<g transform="translate(101.86 842.08) scale(.1 -.1)">
<use xlink:href="#c"/>
<use x="63.623047" xlink:href="#f"/>
<use x="95.410156" xlink:href="#m"/>
<use x="159.033203" xlink:href="#p"/>
</g>
</g>
<g clip-path="url(#a)">
<g transform="translate(286.07 689.6) scale(.1 -.1)">
<use xlink:href="#c"/>
<use x="63.623047" xlink:href="#f"/>
<use x="95.410156" xlink:href="#m"/>
<use x="159.033203" xlink:href="#af"/>
</g>
</g>
<g clip-path="url(#a)">
<g transform="translate(216.99 842.08) scale(.1 -.1)">
<use xlink:href="#c"/>
<use x="63.623047" xlink:href="#f"/>
<use x="95.410156" xlink:href="#m"/>
<use x="159.033203" xlink:href="#ab"/>
</g>
</g>
<g clip-path="url(#a)">
<g transform="translate(309.1 689.6) scale(.1 -.1)">
<use xlink:href="#c"/>
<use x="63.623047" xlink:href="#f"/>
<use x="95.410156" xlink:href="#m"/>
<use x="159.033203" xlink:href="#ae"/>
</g>
</g>
<g clip-path="url(#a)">
<g transform="translate(263.04 842.08) scale(.1 -.1)">
<use xlink:href="#c"/>
<use x="63.623047" xlink:href="#f"/>
<use x="95.410156" xlink:href="#m"/>
<use x="159.033203" xlink:href="#ah"/>
</g>
</g>
<g clip-path="url(#a)">
<g transform="translate(309.1 842.08) scale(.1 -.1)">
<use xlink:href="#c"/>
<use x="63.623047" xlink:href="#f"/>
<use x="95.410156" xlink:href="#p"/>
<use x="159.033203" xlink:href="#ai"/>
</g>
</g>
<g clip-path="url(#a)">
<g transform="translate(355.15 842.08) scale(.1 -.1)">
<use xlink:href="#c"/>
<use x="63.623047" xlink:href="#f"/>
<use x="95.410156" xlink:href="#p"/>
<use x="159.033203" xlink:href="#c"/>
</g>
</g>
<g clip-path="url(#a)">
<g transform="translate(170.94 842.08) scale(.1 -.1)">
<use xlink:href="#c"/>
<use x="63.623047" xlink:href="#f"/>
<use x="95.410156" xlink:href="#p"/>
<use x="159.033203" xlink:href="#o"/>
</g>
</g>
<g clip-path="url(#a)">
<g transform="translate(401.2 842.08) scale(.1 -.1)">
<use xlink:href="#c"/>
<use x="63.623047" xlink:href="#f"/>
<use x="95.410156" xlink:href="#p"/>
<use x="159.033203" xlink:href="#n"/>
</g>
</g>
<g clip-path="url(#a)">
<g transform="translate(1258.4 50.946) scale(.1 -.1)">
<use xlink:href="#c"/>
<use x="63.623047" xlink:href="#f"/>
<use x="95.410156" xlink:href="#p"/>
<use x="159.033203" xlink:href="#m"/>
</g>
</g>
<g clip-path="url(#a)">
<g transform="translate(447.26 842.08) scale(.1 -.1)">
<use xlink:href="#c"/>
<use x="63.623047" xlink:href="#f"/>
<use x="95.410156" xlink:href="#p"/>
<use x="159.033203" xlink:href="#p"/>
</g>
</g>
<g clip-path="url(#a)">
<g transform="translate(1322.3 842.08) scale(.1 -.1)">
<use xlink:href="#c"/>
<use x="63.623047" xlink:href="#f"/>
<use x="95.410156" xlink:href="#p"/>
<use x="159.033203" xlink:href="#af"/>
</g>
</g>
<g clip-path="url(#a)">
<g transform="translate(1368.3 842.08) scale(.1 -.1)">
<use xlink:href="#c"/>
<use x="63.623047" xlink:href="#f"/>
<use x="95.410156" xlink:href="#p"/>
<use x="159.033203" xlink:href="#ab"/>
</g>
</g>
<g clip-path="url(#a)">
<g transform="translate(1828.9 842.08) scale(.1 -.1)">
<use xlink:href="#c"/>
<use x="63.623047" xlink:href="#f"/>
<use x="95.410156" xlink:href="#p"/>
<use x="159.033203" xlink:href="#ae"/>
</g>
</g>
<defs>
<clipPath id="a">
<rect width="1976" height="1040"/>
</clipPath>
</defs>
</svg>
