<?xml version="1.0" encoding="UTF-8"?>
<!DOCTYPE svg  PUBLIC '-//W3C//DTD SVG 1.1//EN'  'http://www.w3.org/Graphics/SVG/1.1/DTD/svg11.dtd'>
<svg width="1672pt" height="880pt" version="1.1" viewBox="0 0 1672 880" xmlns="http://www.w3.org/2000/svg" xmlns:xlink="http://www.w3.org/1999/xlink">
<defs>
<style type="text/css">*{stroke-linecap:butt;stroke-linejoin:round;white-space:pre;}</style>
</defs>
<path d="m0 880h1672v-880h-1672z" fill="#fff"/>
<g fill="none" stroke="#000">
<path d="m828.53 41.107-341.63 165.2" clip-path="url(#a)"/>
<path d="m828.53 41.107 7.4673 641.49" clip-path="url(#a)"/>
<path d="m828.53 41.107 374.19 165.2" clip-path="url(#a)"/>
<path d="m828.53 41.107-40.022 641.49" clip-path="url(#a)"/>
<path d="m486.9 206.31 681.52 476.29" clip-path="url(#a)" stroke-dasharray="3.7,1.6"/>
<path d="m486.9 206.31-375.11 319.99" clip-path="url(#a)"/>
<path d="m486.9 206.31-165.36 161.52" clip-path="url(#a)"/>
<path d="m486.9 206.31-30.811 476.29" clip-path="url(#a)"/>
<path d="m486.9 206.31 16.678 476.29" clip-path="url(#a)"/>
<path d="m486.9 206.31 141.34 161.52" clip-path="url(#a)"/>
<path d="m486.9 206.31-268.26 476.29" clip-path="url(#a)"/>
<path d="m836 682.6v156.3" clip-path="url(#a)"/>
<path d="m1202.7 206.31-255.91 161.52" clip-path="url(#a)"/>
<path d="m1202.7 206.31-34.298 476.29" clip-path="url(#a)"/>
<path d="m1202.7 206.31 13.191 476.29" clip-path="url(#a)"/>
<path d="m1202.7 206.31 84.425 319.99" clip-path="url(#a)"/>
<path d="m1202.7 206.31 274.38 319.99" clip-path="url(#a)"/>
<path d="m1202.7 206.31-81.786 476.29" clip-path="url(#a)"/>
<path d="m946.81 367.83-63.319 314.77" clip-path="url(#a)"/>
<path d="m946.81 367.83-15.83 314.77" clip-path="url(#a)"/>
<path d="m946.81 367.83 79.148 158.47" clip-path="url(#a)"/>
<path d="m1168.4 682.6v156.3" clip-path="url(#a)"/>
<path d="m1215.9 682.6v156.3" clip-path="url(#a)"/>
<path d="m1287.1 526.3-23.744 156.3" clip-path="url(#a)"/>
<path d="m1287.1 526.3 23.744 156.3" clip-path="url(#a)"/>
<path d="m1477.1 526.3-118.72 156.3" clip-path="url(#a)"/>
<path d="m1477.1 526.3-71.233 156.3" clip-path="url(#a)"/>
<path d="m1477.1 526.3v156.3" clip-path="url(#a)"/>
<path d="m1477.1 526.3 71.233 156.3" clip-path="url(#a)"/>
<path d="m1477.1 526.3 118.72 156.3" clip-path="url(#a)"/>
<path d="m1358.4 682.6v156.3" clip-path="url(#a)"/>
<path d="m1405.9 682.6v156.3" clip-path="url(#a)"/>
<path d="m1477.1 682.6-23.744 156.3" clip-path="url(#a)"/>
<path d="m1477.1 682.6 23.744 156.3" clip-path="url(#a)"/>
<path d="m1548.3 682.6v156.3" clip-path="url(#a)"/>
<path d="m1263.4 682.6v156.3" clip-path="url(#a)"/>
<path d="m1310.9 682.6v156.3" clip-path="url(#a)"/>
<path d="m883.49 682.6v156.3" clip-path="url(#a)"/>
<path d="m930.98 682.6v156.3" clip-path="url(#a)"/>
<path d="m1026 526.3-47.489 156.3" clip-path="url(#a)"/>
<path d="m1026 526.3v156.3" clip-path="url(#a)"/>
<path d="m1026 526.3 47.489 156.3" clip-path="url(#a)"/>
<path d="m978.47 682.6v156.3" clip-path="url(#a)"/>
<path d="m1026 682.6v156.3" clip-path="url(#a)"/>
<path d="m1073.4 682.6v156.3" clip-path="url(#a)"/>
<path d="m111.79 526.3-35.617 156.3" clip-path="url(#a)"/>
<path d="m111.79 526.3 35.617 156.3" clip-path="url(#a)"/>
<path d="m321.54 367.83-55.404 314.77" clip-path="url(#a)"/>
<path d="m321.54 367.83-7.9148 314.77" clip-path="url(#a)"/>
<path d="m321.54 367.83 63.319 158.47" clip-path="url(#a)"/>
<path d="m456.09 682.6v156.3" clip-path="url(#a)"/>
<path d="m503.58 682.6v156.3" clip-path="url(#a)"/>
<path d="m628.24 367.83-77.17 314.77" clip-path="url(#a)"/>
<path d="m628.24 367.83-29.681 314.77" clip-path="url(#a)"/>
<path d="m628.24 367.83 89.042 158.47" clip-path="url(#a)"/>
<path d="m628.24 367.83 17.808 314.77" clip-path="url(#a)"/>
<path d="m551.07 682.6v156.3" clip-path="url(#a)"/>
<path d="m598.56 682.6v156.3" clip-path="url(#a)"/>
<path d="m717.28 526.3-23.744 156.3" clip-path="url(#a)"/>
<path d="m717.28 526.3 23.744 156.3" clip-path="url(#a)"/>
<path d="m693.53 682.6v156.3" clip-path="url(#a)"/>
<path d="m741.02 682.6v156.3" clip-path="url(#a)"/>
<path d="m266.13 682.6v156.3" clip-path="url(#a)"/>
<path d="m313.62 682.6v156.3" clip-path="url(#a)"/>
<path d="m384.86 526.3-23.744 156.3" clip-path="url(#a)"/>
<path d="m384.86 526.3 23.744 156.3" clip-path="url(#a)"/>
<path d="m361.11 682.6v156.3" clip-path="url(#a)"/>
<path d="m408.6 682.6v156.3" clip-path="url(#a)"/>
<path d="m76.177 682.6v156.3" clip-path="url(#a)"/>
<path d="m147.41 682.6-23.744 156.3" clip-path="url(#a)"/>
<path d="m147.41 682.6 23.744 156.3" clip-path="url(#a)"/>
<path d="m841.87 41.107-354.97 165.2" clip-path="url(#a)"/>
<path d="m841.87 41.107-5.8733 641.49" clip-path="url(#a)"/>
<path d="m841.87 41.107 360.85 165.2" clip-path="url(#a)"/>
<path d="m218.64 682.6v156.3" clip-path="url(#a)"/>
<path d="m646.04 682.6v156.3" clip-path="url(#a)"/>
<path d="m788.51 682.6v156.3" clip-path="url(#a)"/>
<path d="m1120.9 682.6v156.3" clip-path="url(#a)"/>
<path d="m1595.8 682.6v156.3" clip-path="url(#a)"/>
</g>
<path d="m657.74 130.66 5.4162-2.6191q2.1606-1.0448 1.1158-3.2055l-3.3706-6.9703q-1.0448-2.1606-3.2055-1.1158l-5.4162 2.6191q-2.1606 1.0448-1.1158 3.2055l3.3706 6.9703q1.0448 2.1606 3.2055 1.1158z" clip-path="url(#a)" fill="#fff" stroke="#fff"/>
<g clip-path="url(#a)">
<defs>
<path id="al" d="m9.8125 72.906h9.8594v-29.891h35.844v29.891h9.8594v-72.906h-9.8594v34.719h-35.844v-34.719h-9.8594z"/>
</defs>
<g transform="translate(655.97 127.01) rotate(-25.807) scale(.08 -.08)">
<use xlink:href="#al"/>
</g>
</g>
<path d="m825.97 359.7 0.051884 4.4572q0.027935 2.3998 2.4278 2.3719l7.742-0.09012q2.3998-0.027936 2.3719-2.4278l-0.051884-4.4572q-0.027935-2.3998-2.4278-2.3719l-7.742 0.09012q-2.3998 0.027936-2.3719 2.4278z" clip-path="url(#a)" fill="#fff" stroke="#fff"/>
<g clip-path="url(#a)">
<defs>
<path id="aa" d="m9.8125 72.906h9.8594v-64.609h35.5v-8.2969h-45.359z"/>
</defs>
<g transform="translate(830.03 359.65) rotate(89.333) scale(.08 -.08)">
<use xlink:href="#aa"/>
</g>
</g>
<path d="m1010.3 128.23 5.5037 2.4299q2.1955 0.96932 3.1649-1.2262l3.1271-7.0829q0.96932-2.1955-1.2262-3.1649l-5.5037-2.4299q-2.1955-0.96932-3.1649 1.2262l-3.1271 7.0829q-0.96932 2.1955 1.2262 3.1649z" clip-path="url(#a)" fill="#fff" stroke="#fff"/>
<g clip-path="url(#a)">
<g transform="translate(1012 124.51) rotate(23.821) scale(.08 -.08)">
<use xlink:href="#al"/>
</g>
</g>
<path d="m814.6 365.16 0.36458-5.8436q0.14944-2.3953-2.2459-2.5448l-7.7275-0.48211q-2.3953-0.14944-2.5448 2.2459l-0.36458 5.8436q-0.14944 2.3953 2.2459 2.5448l7.7275 0.48211q2.3953 0.14944 2.5448-2.2459z" clip-path="url(#a)" fill="#fff" stroke="#fff"/>
<g clip-path="url(#a)">
<defs>
<path id="z" d="m8.6875 72.906h9.9219v-44.297q0-11.719 4.2344-16.875 4.25-5.1406 13.781-5.1406 9.4688 0 13.719 5.1406 4.25 5.1562 4.25 16.875v44.297h9.9062v-45.516q0-14.25-7.0625-21.531-7.0469-7.2812-20.812-7.2812-13.828 0-20.891 7.2812-7.0469 7.2812-7.0469 21.531z"/>
</defs>
<g transform="translate(810.54 364.91) rotate(-86.43) scale(.08 -.08)">
<use xlink:href="#z"/>
</g>
</g>
<path d="m821.83 448.03 4.4857 3.1348q1.9672 1.3748 3.342-0.59241l4.4352-6.3463q1.3748-1.9672-0.59241-3.342l-4.4857-3.1348q-1.9672-1.3748-3.342 0.59241l-4.4352 6.3463q-1.3748 1.9672 0.59241 3.342z" clip-path="url(#a)" fill="#fff" stroke="#fff"/>
<g clip-path="url(#a)">
<defs>
<path id="s" d="m34.188 63.188-13.391-36.281h26.812zm-5.5781 9.7188h11.188l27.781-72.906h-10.25l-6.6406 18.703h-32.859l-6.6406-18.703h-10.406z"/>
</defs>
<g transform="translate(824.15 444.7) rotate(34.948) scale(.08 -.08)">
<use xlink:href="#s"/>
</g>
</g>
<path d="m301.56 372.66 3.7174-3.1712q1.8259-1.5576 0.26828-3.3835l-5.0249-5.8904q-1.5576-1.8259-3.3835-0.26828l-3.7174 3.1712q-1.8259 1.5576-0.26828 3.3835l5.0249 5.8904q1.5576 1.8259 3.3835 0.26828z" clip-path="url(#a)" fill="#fff" stroke="#fff"/>
<g clip-path="url(#a)">
<defs>
<path id="l" d="m-0.29688 72.906h61.672v-8.3125h-25.875v-64.594h-9.9062v64.594h-25.891z"/>
</defs>
<g transform="translate(298.92 369.57) rotate(-40.466) scale(.08 -.08)">
<use xlink:href="#l"/>
</g>
</g>
<path d="m406.64 293.47 3.9148-3.8239q1.7169-1.677 0.039887-3.3939l-5.4101-5.5387q-1.677-1.7169-3.3939-0.039886l-3.9148 3.8239q-1.7169 1.677-0.039887 3.3939l5.4101 5.5387q1.677 1.7169 3.3939 0.039886z" clip-path="url(#a)" fill="#fff" stroke="#fff"/>
<g clip-path="url(#a)">
<g transform="translate(403.8 290.56) rotate(-44.327) scale(.08 -.08)">
<use xlink:href="#s"/>
</g>
</g>
<path d="m477.6 447.15 0.29704-4.5917q0.15493-2.395-2.2401-2.5499l-7.7264-0.49982q-2.395-0.15493-2.5499 2.2401l-0.29704 4.5917q-0.15493 2.395 2.2401 2.5499l7.7264 0.49982q2.395 0.15493 2.5499-2.2401z" clip-path="url(#a)" fill="#fff" stroke="#fff"/>
<g clip-path="url(#a)">
<defs>
<path id="ao" d="m9.8125 72.906h41.891v-8.3125h-32.031v-21.484h28.906v-8.2969h-28.906v-34.812h-9.8594z"/>
</defs>
<g transform="translate(473.55 446.89) rotate(-86.299) scale(.08 -.08)">
<use xlink:href="#ao"/>
</g>
</g>
<path d="m488.89 442.26 0.1688 4.8208q0.083987 2.3985 2.4825 2.3145l7.7378-0.27094q2.3985-0.083986 2.3145-2.4825l-0.1688-4.8208q-0.083987-2.3985-2.4825-2.3145l-7.7378 0.27094q-2.3985 0.083987-2.3145 2.4825z" clip-path="url(#a)" fill="#fff" stroke="#fff"/>
<g clip-path="url(#a)">
<defs>
<path id="ak" d="m19.672 64.797v-27.391h12.406q6.8906 0 10.641 3.5625 3.7656 3.5625 3.7656 10.156 0 6.5469-3.7656 10.109-3.75 3.5625-10.641 3.5625zm-9.8594 8.1094h22.266q12.266 0 18.531-5.5469 6.2812-5.5469 6.2812-16.234 0-10.797-6.2812-16.312-6.2656-5.5156-18.531-5.5156h-12.406v-29.297h-9.8594z"/>
</defs>
<g transform="translate(492.95 442.12) rotate(87.995) scale(.08 -.08)">
<use xlink:href="#ak"/>
</g>
</g>
<path d="m551.05 289.14 3.6037 4.1184q1.5804 1.8062 3.3866 0.22572l5.8267-5.0986q1.8062-1.5804 0.22572-3.3866l-3.6037-4.1184q-1.5804-1.8062-3.3866-0.22572l-5.8267 5.0986q-1.8062 1.5804-0.22572 3.3866z" clip-path="url(#a)" fill="#fff" stroke="#fff"/>
<g clip-path="url(#a)">
<g transform="translate(554.1 286.46) rotate(48.813) scale(.08 -.08)">
<use xlink:href="#s"/>
</g>
</g>
<path d="m356.8 450.08 2.8733-5.1015q1.1778-2.0911-0.91336-3.2689l-6.7461-3.7996q-2.0911-1.1778-3.2689 0.91336l-2.8733 5.1015q-1.1778 2.0911 0.91336 3.2689l6.7461 3.7996q2.0911 1.1778 3.2689-0.91336z" clip-path="url(#a)" fill="#fff" stroke="#fff"/>
<g clip-path="url(#a)">
<g transform="translate(353.26 448.09) rotate(-60.611) scale(.08 -.08)">
<use xlink:href="#z"/>
</g>
</g>
<path d="m829.73 743.1v35.285q0 2.4 2.4 2.4h7.7425q2.4 0 2.4-2.4v-35.285q0-2.4-2.4-2.4h-7.7425q-2.4 0-2.4 2.4z" clip-path="url(#a)" fill="#fff" stroke="#fff"/>
<g clip-path="url(#a)">
<defs>
<path id="d" d="m56.203 29.594v-4.3906h-41.312q0.59375-9.2812 5.5938-14.141t13.938-4.8594q5.1719 0 10.031 1.2656t9.6562 3.8125v-8.5q-4.8438-2.0469-9.9219-3.125t-10.297-1.0781q-13.094 0-20.734 7.6094-7.6406 7.625-7.6406 20.625 0 13.422 7.25 21.297 7.25 7.8906 19.562 7.8906 11.031 0 17.453-7.1094 6.4219-7.0938 6.4219-19.297zm-8.9844 2.6406q-0.09375 7.3594-4.125 11.75-4.0312 4.4062-10.672 4.4062-7.5156 0-12.031-4.25t-5.2031-11.969z"/>
<path id="g" d="m41.109 46.297q-1.5156 0.875-3.2969 1.2812-1.7812 0.42188-3.9219 0.42188-7.625 0-11.703-4.9531t-4.0781-14.234v-28.812h-9.0312v54.688h9.0312v-8.5q2.8438 4.9844 7.375 7.3906 4.5469 2.4219 11.047 2.4219 0.92188 0 2.0469-0.125 1.125-0.10938 2.4844-0.35938z"/>
<path id="j" d="m52 44.188q3.375 6.0625 8.0625 8.9375t11.031 2.875q8.5469 0 13.188-5.9844 4.6406-5.9688 4.6406-17v-33.016h-9.0312v32.719q0 7.8594-2.7969 11.656-2.7812 3.8125-8.4844 3.8125-6.9844 0-11.047-4.6406-4.0469-4.625-4.0469-12.641v-30.906h-9.0312v32.719q0 7.9062-2.7812 11.688t-8.5938 3.7812q-6.8906 0-10.953-4.6562-4.0469-4.6562-4.0469-12.625v-30.906h-9.0312v54.688h9.0312v-8.5q3.0781 5.0312 7.375 7.4219t10.203 2.3906q5.9688 0 10.141-3.0312 4.1719-3.0156 6.1719-8.7812z"/>
<path id="f" d="m9.4219 54.688h8.9844v-54.688h-8.9844zm0 21.297h8.9844v-11.391h-8.9844z"/>
<path id="h" d="m54.891 33.016v-33.016h-8.9844v32.719q0 7.7656-3.0312 11.609-3.0312 3.8594-9.0781 3.8594-7.2812 0-11.484-4.6406-4.2031-4.625-4.2031-12.641v-30.906h-9.0312v54.688h9.0312v-8.5q3.2344 4.9375 7.5938 7.375 4.375 2.4375 10.094 2.4375 9.4219 0 14.25-5.8281 4.8438-5.8281 4.8438-17.156z"/>
<path id="k" d="m34.281 27.484q-10.891 0-15.094-2.4844t-4.2031-8.5q0-4.7812 3.1562-7.5938 3.1562-2.7969 8.5625-2.7969 7.4844 0 12 5.2969t4.5156 14.078v2zm17.922 3.7188v-31.203h-8.9844v8.2969q-3.0781-4.9688-7.6719-7.3438t-11.234-2.375q-8.3906 0-13.359 4.7188-4.9531 4.7188-4.9531 12.625 0 9.2188 6.1719 13.906 6.1875 4.6875 18.438 4.6875h12.609v0.89062q0 6.2031-4.0781 9.5938t-11.453 3.3906q-4.6875 0-9.1406-1.125-4.4375-1.125-8.5312-3.375v8.3125q4.9219 1.9062 9.5625 2.8438 4.6406 0.95312 9.0312 0.95312 11.875 0 17.734-6.1562 5.8594-6.1406 5.8594-18.641z"/>
<path id="i" d="m9.4219 75.984h8.9844v-75.984h-8.9844z"/>
</defs>
<g transform="translate(833.79 743.1) rotate(90) scale(.08 -.08)">
<use xlink:href="#l"/>
<use x="60.818359" xlink:href="#d"/>
<use x="122.341797" xlink:href="#g"/>
<use x="163.439453" xlink:href="#j"/>
<use x="260.851562" xlink:href="#f"/>
<use x="288.634766" xlink:href="#h"/>
<use x="352.013672" xlink:href="#k"/>
<use x="413.292969" xlink:href="#i"/>
</g>
</g>
<path d="m1076 293.68 4.1321-2.608q2.0296-1.281 0.74858-3.3105l-4.1325-6.5474q-1.281-2.0296-3.3105-0.74858l-4.1321 2.608q-2.0296 1.281-0.74858 3.3105l4.1325 6.5474q1.281 2.0296 3.3105 0.74858z" clip-path="url(#a)" fill="#fff" stroke="#fff"/>
<g clip-path="url(#a)">
<g transform="translate(1073.9 290.24) rotate(-32.258) scale(.08 -.08)">
<use xlink:href="#l"/>
</g>
</g>
<path d="m1191.6 447.63 0.39306-5.4584q0.17238-2.3938-2.2214-2.5662l-7.7225-0.5561q-2.3938-0.17238-2.5662 2.2214l-0.39306 5.4584q-0.17238 2.3938 2.2214 2.5662l7.7225 0.5561q2.3938 0.17238 2.5662-2.2214z" clip-path="url(#a)" fill="#fff" stroke="#fff"/>
<g clip-path="url(#a)">
<g transform="translate(1187.6 447.34) rotate(-85.881) scale(.08 -.08)">
<use xlink:href="#s"/>
</g>
</g>
<path d="m1203 442.22 0.13355 4.8219q0.066446 2.3991 2.4655 2.3326l7.7395-0.21436q2.3991-0.066446 2.3326-2.4655l-0.13355-4.8219q-0.066446-2.3991-2.4655-2.3326l-7.7395 0.21436q-2.3991 0.066445-2.3326 2.4655z" clip-path="url(#a)" fill="#fff" stroke="#fff"/>
<g clip-path="url(#a)">
<g transform="translate(1207 442.1) rotate(88.414) scale(.08 -.08)">
<use xlink:href="#ak"/>
</g>
</g>
<path d="m1238.2 365.26 1.3961 5.2914q0.61225 2.3206 2.9328 1.7083l7.4863-1.9752q2.3206-0.61225 1.7083-2.9328l-1.3961-5.2914q-0.61225-2.3206-2.9328-1.7083l-7.4863 1.9752q-2.3206 0.61225-1.7083 2.9328z" clip-path="url(#a)" fill="#fff" stroke="#fff"/>
<g clip-path="url(#a)">
<g transform="translate(1242.1 364.22) rotate(75.22) scale(.08 -.08)">
<use xlink:href="#s"/>
</g>
</g>
<path d="m1333.4 368.31 3.5622 4.1544q1.5622 1.8219 3.3842 0.2597l5.8776-5.0398q1.8219-1.5622 0.2597-3.3842l-3.5622-4.1544q-1.5622-1.8219-3.3842-0.2597l-5.8776 5.0398q-1.8219 1.5622-0.2597 3.3842z" clip-path="url(#a)" fill="#fff" stroke="#fff"/>
<g clip-path="url(#a)">
<g transform="translate(1336.5 365.66) rotate(49.388) scale(.08 -.08)">
<use xlink:href="#s"/>
</g>
</g>
<path d="m1167.5 448.4 0.9909-5.7705q0.40618-2.3654-1.9592-2.7716l-7.6308-1.3103q-2.3654-0.40618-2.7716 1.9592l-0.9909 5.7705q-0.40618 2.3654 1.9592 2.7716l7.6308 1.3103q2.3654 0.40618 2.7716-1.9592z" clip-path="url(#a)" fill="#fff" stroke="#fff"/>
<g clip-path="url(#a)">
<g transform="translate(1163.5 447.71) rotate(-80.256) scale(.08 -.08)">
<use xlink:href="#z"/>
</g>
</g>
<path d="m920.8 528.93 0.9969-4.9557q0.4733-2.3529-1.8796-2.8262l-7.5904-1.5269q-2.3529-0.4733-2.8262 1.8796l-0.9969 4.9557q-0.4733 2.3529 1.8796 2.8262l7.5904 1.5269q2.3529 0.4733 2.8262-1.8796z" clip-path="url(#a)" fill="#fff" stroke="#fff"/>
<g clip-path="url(#a)">
<defs>
<path id="q" d="m9.8125 72.906h46.094v-8.3125h-36.234v-21.578h34.719v-8.2969h-34.719v-26.422h37.109v-8.2969h-46.969z"/>
</defs>
<g transform="translate(916.81 528.13) rotate(-78.626) scale(.08 -.08)">
<use xlink:href="#q"/>
</g>
</g>
<path d="m945.02 528.32 0.28058-5.5792q0.12054-2.397-2.2764-2.5175l-7.7327-0.38888q-2.397-0.12054-2.5175 2.2764l-0.28058 5.5792q-0.12054 2.397 2.2764 2.5175l7.7327 0.38888q2.397 0.12054 2.5175-2.2764z" clip-path="url(#a)" fill="#fff" stroke="#fff"/>
<g clip-path="url(#a)">
<defs>
<path id="r" d="m64.406 67.281v-10.391q-4.9844 4.6406-10.625 6.9219-5.6406 2.2969-11.984 2.2969-12.5 0-19.141-7.6406t-6.6406-22.094q0-14.406 6.6406-22.047t19.141-7.6406q6.3438 0 11.984 2.2969t10.625 6.9375v-10.312q-5.1719-3.5156-10.969-5.2812-5.7812-1.75-12.219-1.75-16.562 0-26.094 10.125-9.5156 10.141-9.5156 27.672 0 17.578 9.5156 27.703 9.5312 10.141 26.094 10.141 6.5312 0 12.312-1.7344 5.7969-1.7344 10.875-5.2031z"/>
</defs>
<g transform="translate(940.96 528.11) rotate(-87.121) scale(.08 -.08)">
<use xlink:href="#r"/>
</g>
</g>
<path d="m979.64 447.61 2.2587 4.5223q1.0724 2.1471 3.2195 1.0747l6.9266-3.4595q2.1471-1.0724 1.0747-3.2195l-2.2587-4.5223q-1.0724-2.1471-3.2195-1.0747l-6.9266 3.4595q-2.1471 1.0724-1.0747 3.2195z" clip-path="url(#a)" fill="#fff" stroke="#fff"/>
<g clip-path="url(#a)">
<g transform="translate(983.28 445.79) rotate(63.46) scale(.08 -.08)">
<use xlink:href="#q"/>
</g>
</g>
<path d="m1162.2 743.1v35.285q0 2.4 2.4 2.4h7.7425q2.4 0 2.4-2.4v-35.285q0-2.4-2.4-2.4h-7.7425q-2.4 0-2.4 2.4z" clip-path="url(#a)" fill="#fff" stroke="#fff"/>
<g clip-path="url(#a)">
<g transform="translate(1166.2 743.1) rotate(90) scale(.08 -.08)">
<use xlink:href="#l"/>
<use x="60.818359" xlink:href="#d"/>
<use x="122.341797" xlink:href="#g"/>
<use x="163.439453" xlink:href="#j"/>
<use x="260.851562" xlink:href="#f"/>
<use x="288.634766" xlink:href="#h"/>
<use x="352.013672" xlink:href="#k"/>
<use x="413.292969" xlink:href="#i"/>
</g>
</g>
<path d="m1209.6 743.1v35.285q0 2.4 2.4 2.4h7.7425q2.4 0 2.4-2.4v-35.285q0-2.4-2.4-2.4h-7.7425q-2.4 0-2.4 2.4z" clip-path="url(#a)" fill="#fff" stroke="#fff"/>
<g clip-path="url(#a)">
<g transform="translate(1213.7 743.1) rotate(90) scale(.08 -.08)">
<use xlink:href="#l"/>
<use x="60.818359" xlink:href="#d"/>
<use x="122.341797" xlink:href="#g"/>
<use x="163.439453" xlink:href="#j"/>
<use x="260.851562" xlink:href="#f"/>
<use x="288.634766" xlink:href="#h"/>
<use x="352.013672" xlink:href="#k"/>
<use x="413.292969" xlink:href="#i"/>
</g>
</g>
<path d="m1281.1 607.89 0.75924-4.9977q0.36047-2.3728-2.0123-2.7332l-7.6547-1.1629q-2.3728-0.36047-2.7332 2.0123l-0.75924 4.9977q-0.36047 2.3728 2.0123 2.7332l7.6547 1.1629q2.3728 0.36047 2.7332-2.0123z" clip-path="url(#a)" fill="#fff" stroke="#fff"/>
<g clip-path="url(#a)">
<g transform="translate(1277.1 607.28) rotate(-81.362) scale(.08 -.08)">
<use xlink:href="#q"/>
</g>
</g>
<path d="m1292.4 602.63 0.83904 5.5229q0.36047 2.3728 2.7332 2.0123l7.6547-1.1629q2.3728-0.36047 2.0123-2.7332l-0.83904-5.5229q-0.36047-2.3728-2.7332-2.0123l-7.6547 1.1629q-2.3728 0.36047-2.0123 2.7332z" clip-path="url(#a)" fill="#fff" stroke="#fff"/>
<g clip-path="url(#a)">
<g transform="translate(1296.4 602.02) rotate(81.362) scale(.08 -.08)">
<use xlink:href="#r"/>
</g>
</g>
<path d="m1421.1 610.46 3.3624-4.4265q1.4517-1.9112-0.45944-3.3629l-6.1655-4.6833q-1.9112-1.4517-3.3629 0.45944l-3.3624 4.4265q-1.4517 1.9112 0.45944 3.3629l6.1655 4.6833q1.9112 1.4517 3.3629-0.45944z" clip-path="url(#a)" fill="#fff" stroke="#fff"/>
<g clip-path="url(#a)">
<defs>
<path id="v" d="m44.391 34.188q3.1719-1.0781 6.1719-4.5938t6.0312-9.6719l10.016-19.922h-10.609l-9.3125 18.703q-3.625 7.3281-7.0156 9.7188t-9.25 2.3906h-10.75v-30.812h-9.8594v72.906h22.266q12.5 0 18.656-5.2344 6.1562-5.2188 6.1562-15.766 0-6.8906-3.2031-11.438-3.2031-4.5312-9.2969-6.2812zm-24.719 30.609v-25.875h12.406q7.125 0 10.766 3.2969t3.6406 9.6875-3.6406 9.6406-10.766 3.25z"/>
</defs>
<g transform="translate(1417.8 608) rotate(-52.78) scale(.08 -.08)">
<use xlink:href="#v"/>
</g>
</g>
<path d="m1446.1 609.35 2.0964-4.5998q0.99532-2.1839-1.1886-3.1792l-7.0453-3.211q-2.1839-0.99532-3.1792 1.1886l-2.0964 4.5998q-0.99532 2.1839 1.1886 3.1792l7.0453 3.211q2.1839 0.99532 3.1792-1.1886z" clip-path="url(#a)" fill="#fff" stroke="#fff"/>
<g clip-path="url(#a)">
<g transform="translate(1442.4 607.66) rotate(-65.498) scale(.08 -.08)">
<use xlink:href="#q"/>
</g>
</g>
<path d="m1470.8 601.92v5.055q0 2.4 2.4 2.4h7.7425q2.4 0 2.4-2.4v-5.055q0-2.4-2.4-2.4h-7.7425q-2.4 0-2.4 2.4z" clip-path="url(#a)" fill="#fff" stroke="#fff"/>
<g clip-path="url(#a)">
<g transform="translate(1474.9 601.92) rotate(90) scale(.08 -.08)">
<use xlink:href="#q"/>
</g>
</g>
<path d="m1505.9 604.51 2.3167 5.0832q0.99532 2.1839 3.1792 1.1886l7.0453-3.211q2.1839-0.99532 1.1886-3.1792l-2.3167-5.0832q-0.99532-2.1839-3.1792-1.1886l-7.0453 3.211q-2.1839 0.99532-1.1886 3.1792z" clip-path="url(#a)" fill="#fff" stroke="#fff"/>
<g clip-path="url(#a)">
<g transform="translate(1509.6 602.82) rotate(65.498) scale(.08 -.08)">
<use xlink:href="#r"/>
</g>
</g>
<path d="m1529.7 605.91 3.5416 4.6624q1.4517 1.9112 3.3629 0.45944l6.1655-4.6833q1.9112-1.4517 0.45944-3.3629l-3.5416-4.6624q-1.4517-1.9112-3.3629-0.45944l-6.1655 4.6833q-1.9112 1.4517-0.45944 3.3629z" clip-path="url(#a)" fill="#fff" stroke="#fff"/>
<g clip-path="url(#a)">
<g transform="translate(1532.9 603.45) rotate(52.78) scale(.08 -.08)">
<use xlink:href="#z"/>
</g>
</g>
<path d="m1352.1 743.1v35.285q0 2.4 2.4 2.4h7.7425q2.4 0 2.4-2.4v-35.285q0-2.4-2.4-2.4h-7.7425q-2.4 0-2.4 2.4z" clip-path="url(#a)" fill="#fff" stroke="#fff"/>
<g clip-path="url(#a)">
<g transform="translate(1356.2 743.1) rotate(90) scale(.08 -.08)">
<use xlink:href="#l"/>
<use x="60.818359" xlink:href="#d"/>
<use x="122.341797" xlink:href="#g"/>
<use x="163.439453" xlink:href="#j"/>
<use x="260.851562" xlink:href="#f"/>
<use x="288.634766" xlink:href="#h"/>
<use x="352.013672" xlink:href="#k"/>
<use x="413.292969" xlink:href="#i"/>
</g>
</g>
<path d="m1399.6 743.1v35.285q0 2.4 2.4 2.4h7.7425q2.4 0 2.4-2.4v-35.285q0-2.4-2.4-2.4h-7.7425q-2.4 0-2.4 2.4z" clip-path="url(#a)" fill="#fff" stroke="#fff"/>
<g clip-path="url(#a)">
<g transform="translate(1403.7 743.1) rotate(90) scale(.08 -.08)">
<use xlink:href="#l"/>
<use x="60.818359" xlink:href="#d"/>
<use x="122.341797" xlink:href="#g"/>
<use x="163.439453" xlink:href="#j"/>
<use x="260.851562" xlink:href="#f"/>
<use x="288.634766" xlink:href="#h"/>
<use x="352.013672" xlink:href="#k"/>
<use x="413.292969" xlink:href="#i"/>
</g>
</g>
<path d="m1468.8 779.13 5.2997-34.885q0.36047-2.3728-2.0123-2.7332l-7.6547-1.1629q-2.3728-0.36047-2.7332 2.0123l-5.2997 34.885q-0.36047 2.3728 2.0123 2.7332l7.6547 1.1629q2.3728 0.36047 2.7332-2.0123z" clip-path="url(#a)" fill="#fff" stroke="#fff"/>
<g clip-path="url(#a)">
<g transform="translate(1464.8 778.52) rotate(-81.362) scale(.08 -.08)">
<use xlink:href="#l"/>
<use x="60.818359" xlink:href="#d"/>
<use x="122.341797" xlink:href="#g"/>
<use x="163.439453" xlink:href="#j"/>
<use x="260.851562" xlink:href="#f"/>
<use x="288.634766" xlink:href="#h"/>
<use x="352.013672" xlink:href="#k"/>
<use x="413.292969" xlink:href="#i"/>
</g>
</g>
<path d="m1480.1 744.24 5.2997 34.885q0.36047 2.3728 2.7332 2.0123l7.6547-1.1629q2.3728-0.36047 2.0123-2.7332l-5.2997-34.885q-0.36047-2.3728-2.7332-2.0123l-7.6547 1.1629q-2.3728 0.36047-2.0123 2.7332z" clip-path="url(#a)" fill="#fff" stroke="#fff"/>
<g clip-path="url(#a)">
<g transform="translate(1484.1 743.63) rotate(81.362) scale(.08 -.08)">
<use xlink:href="#l"/>
<use x="60.818359" xlink:href="#d"/>
<use x="122.341797" xlink:href="#g"/>
<use x="163.439453" xlink:href="#j"/>
<use x="260.851562" xlink:href="#f"/>
<use x="288.634766" xlink:href="#h"/>
<use x="352.013672" xlink:href="#k"/>
<use x="413.292969" xlink:href="#i"/>
</g>
</g>
<path d="m1542.1 743.1v35.285q0 2.4 2.4 2.4h7.7425q2.4 0 2.4-2.4v-35.285q0-2.4-2.4-2.4h-7.7425q-2.4 0-2.4 2.4z" clip-path="url(#a)" fill="#fff" stroke="#fff"/>
<g clip-path="url(#a)">
<g transform="translate(1546.1 743.1) rotate(90) scale(.08 -.08)">
<use xlink:href="#l"/>
<use x="60.818359" xlink:href="#d"/>
<use x="122.341797" xlink:href="#g"/>
<use x="163.439453" xlink:href="#j"/>
<use x="260.851562" xlink:href="#f"/>
<use x="288.634766" xlink:href="#h"/>
<use x="352.013672" xlink:href="#k"/>
<use x="413.292969" xlink:href="#i"/>
</g>
</g>
<path d="m1257.1 743.1v35.285q0 2.4 2.4 2.4h7.7425q2.4 0 2.4-2.4v-35.285q0-2.4-2.4-2.4h-7.7425q-2.4 0-2.4 2.4z" clip-path="url(#a)" fill="#fff" stroke="#fff"/>
<g clip-path="url(#a)">
<g transform="translate(1261.2 743.1) rotate(90) scale(.08 -.08)">
<use xlink:href="#l"/>
<use x="60.818359" xlink:href="#d"/>
<use x="122.341797" xlink:href="#g"/>
<use x="163.439453" xlink:href="#j"/>
<use x="260.851562" xlink:href="#f"/>
<use x="288.634766" xlink:href="#h"/>
<use x="352.013672" xlink:href="#k"/>
<use x="413.292969" xlink:href="#i"/>
</g>
</g>
<path d="m1304.6 743.1v35.285q0 2.4 2.4 2.4h7.7425q2.4 0 2.4-2.4v-35.285q0-2.4-2.4-2.4h-7.7425q-2.4 0-2.4 2.4z" clip-path="url(#a)" fill="#fff" stroke="#fff"/>
<g clip-path="url(#a)">
<g transform="translate(1308.7 743.1) rotate(90) scale(.08 -.08)">
<use xlink:href="#l"/>
<use x="60.818359" xlink:href="#d"/>
<use x="122.341797" xlink:href="#g"/>
<use x="163.439453" xlink:href="#j"/>
<use x="260.851562" xlink:href="#f"/>
<use x="288.634766" xlink:href="#h"/>
<use x="352.013672" xlink:href="#k"/>
<use x="413.292969" xlink:href="#i"/>
</g>
</g>
<path d="m877.22 743.1v35.285q0 2.4 2.4 2.4h7.7425q2.4 0 2.4-2.4v-35.285q0-2.4-2.4-2.4h-7.7425q-2.4 0-2.4 2.4z" clip-path="url(#a)" fill="#fff" stroke="#fff"/>
<g clip-path="url(#a)">
<g transform="translate(881.28 743.1) rotate(90) scale(.08 -.08)">
<use xlink:href="#l"/>
<use x="60.818359" xlink:href="#d"/>
<use x="122.341797" xlink:href="#g"/>
<use x="163.439453" xlink:href="#j"/>
<use x="260.851562" xlink:href="#f"/>
<use x="288.634766" xlink:href="#h"/>
<use x="352.013672" xlink:href="#k"/>
<use x="413.292969" xlink:href="#i"/>
</g>
</g>
<path d="m924.71 743.1v35.285q0 2.4 2.4 2.4h7.7425q2.4 0 2.4-2.4v-35.285q0-2.4-2.4-2.4h-7.7425q-2.4 0-2.4 2.4z" clip-path="url(#a)" fill="#fff" stroke="#fff"/>
<g clip-path="url(#a)">
<g transform="translate(928.77 743.1) rotate(90) scale(.08 -.08)">
<use xlink:href="#l"/>
<use x="60.818359" xlink:href="#d"/>
<use x="122.341797" xlink:href="#g"/>
<use x="163.439453" xlink:href="#j"/>
<use x="260.851562" xlink:href="#f"/>
<use x="288.634766" xlink:href="#h"/>
<use x="352.013672" xlink:href="#k"/>
<use x="413.292969" xlink:href="#i"/>
</g>
</g>
<path d="m1007.4 608.93 1.616-5.3187q0.69772-2.2963-1.5986-2.9941l-7.4081-2.2509q-2.2963-0.69772-2.9941 1.5986l-1.616 5.3187q-0.69772 2.2963 1.5986 2.9941l7.4081 2.2509q2.2963 0.69772 2.9941-1.5986z" clip-path="url(#a)" fill="#fff" stroke="#fff"/>
<g clip-path="url(#a)">
<g transform="translate(1003.5 607.75) rotate(-73.099) scale(.08 -.08)">
<use xlink:href="#v"/>
</g>
</g>
<path d="m1019.7 601.92v5.055q0 2.4 2.4 2.4h7.7425q2.4 0 2.4-2.4v-5.055q0-2.4-2.4-2.4h-7.7425q-2.4 0-2.4 2.4z" clip-path="url(#a)" fill="#fff" stroke="#fff"/>
<g clip-path="url(#a)">
<g transform="translate(1023.7 601.92) rotate(90) scale(.08 -.08)">
<use xlink:href="#q"/>
</g>
</g>
<path d="m1042.9 603.6 1.624 5.345q0.69772 2.2963 2.9941 1.5986l7.4081-2.2509q2.2963-0.69772 1.5986-2.9941l-1.624-5.345q-0.69772-2.2963-2.9941-1.5986l-7.4081 2.2509q-2.2963 0.69772-1.5986 2.9941z" clip-path="url(#a)" fill="#fff" stroke="#fff"/>
<g clip-path="url(#a)">
<g transform="translate(1046.8 602.42) rotate(73.099) scale(.08 -.08)">
<use xlink:href="#r"/>
</g>
</g>
<path d="m972.2 743.1v35.285q0 2.4 2.4 2.4h7.7425q2.4 0 2.4-2.4v-35.285q0-2.4-2.4-2.4h-7.7425q-2.4 0-2.4 2.4z" clip-path="url(#a)" fill="#fff" stroke="#fff"/>
<g clip-path="url(#a)">
<g transform="translate(976.26 743.1) rotate(90) scale(.08 -.08)">
<use xlink:href="#l"/>
<use x="60.818359" xlink:href="#d"/>
<use x="122.341797" xlink:href="#g"/>
<use x="163.439453" xlink:href="#j"/>
<use x="260.851562" xlink:href="#f"/>
<use x="288.634766" xlink:href="#h"/>
<use x="352.013672" xlink:href="#k"/>
<use x="413.292969" xlink:href="#i"/>
</g>
</g>
<path d="m1019.7 743.1v35.285q0 2.4 2.4 2.4h7.7425q2.4 0 2.4-2.4v-35.285q0-2.4-2.4-2.4h-7.7425q-2.4 0-2.4 2.4z" clip-path="url(#a)" fill="#fff" stroke="#fff"/>
<g clip-path="url(#a)">
<g transform="translate(1023.7 743.1) rotate(90) scale(.08 -.08)">
<use xlink:href="#l"/>
<use x="60.818359" xlink:href="#d"/>
<use x="122.341797" xlink:href="#g"/>
<use x="163.439453" xlink:href="#j"/>
<use x="260.851562" xlink:href="#f"/>
<use x="288.634766" xlink:href="#h"/>
<use x="352.013672" xlink:href="#k"/>
<use x="413.292969" xlink:href="#i"/>
</g>
</g>
<path d="m1067.2 743.1v35.285q0 2.4 2.4 2.4h7.7425q2.4 0 2.4-2.4v-35.285q0-2.4-2.4-2.4h-7.7425q-2.4 0-2.4 2.4z" clip-path="url(#a)" fill="#fff" stroke="#fff"/>
<g clip-path="url(#a)">
<g transform="translate(1071.2 743.1) rotate(90) scale(.08 -.08)">
<use xlink:href="#l"/>
<use x="60.818359" xlink:href="#d"/>
<use x="122.341797" xlink:href="#g"/>
<use x="163.439453" xlink:href="#j"/>
<use x="260.851562" xlink:href="#f"/>
<use x="288.634766" xlink:href="#h"/>
<use x="352.013672" xlink:href="#k"/>
<use x="413.292969" xlink:href="#i"/>
</g>
</g>
<path d="m99.538 608.31 1.1231-4.9286q0.53324-2.34-1.8068-2.8733l-7.549-1.7203q-2.34-0.53324-2.8733 1.8068l-1.1231 4.9286q-0.53324 2.34 1.8068 2.8733l7.549 1.7203q2.34 0.53324 2.8733-1.8068z" clip-path="url(#a)" fill="#fff" stroke="#fff"/>
<g clip-path="url(#a)">
<g transform="translate(95.576 607.4) rotate(-77.163) scale(.08 -.08)">
<use xlink:href="#q"/>
</g>
</g>
<path d="m122.87 603.12 1.2412 5.4466q0.53324 2.34 2.8733 1.8068l7.549-1.7203q2.34-0.53324 1.8068-2.8733l-1.2412-5.4466q-0.53324-2.34-2.8733-1.8068l-7.549 1.7203q-2.34 0.53324-1.8068 2.8733z" clip-path="url(#a)" fill="#fff" stroke="#fff"/>
<g clip-path="url(#a)">
<g transform="translate(126.83 602.22) rotate(77.163) scale(.08 -.08)">
<use xlink:href="#r"/>
</g>
</g>
<path d="m299.57 528.79 0.87629-4.9785q0.41604-2.3637-1.9476-2.7797l-7.6253-1.3422q-2.3637-0.41604-2.7797 1.9476l-0.87629 4.9785q-0.41604 2.3637 1.9476 2.7797l7.6253 1.3422q2.3637 0.41604 2.7797-1.9476z" clip-path="url(#a)" fill="#fff" stroke="#fff"/>
<g clip-path="url(#a)">
<g transform="translate(295.57 528.09) rotate(-80.017) scale(.08 -.08)">
<use xlink:href="#q"/>
</g>
</g>
<path d="m323.78 528.16 0.14042-5.5845q0.060329-2.3992-2.3389-2.4596l-7.7401-0.19462q-2.3992-0.060329-2.4596 2.3389l-0.14042 5.5845q-0.060329 2.3992 2.3389 2.4596l7.7401 0.19462q2.3992 0.060329 2.4596-2.3389z" clip-path="url(#a)" fill="#fff" stroke="#fff"/>
<g clip-path="url(#a)">
<g transform="translate(319.72 528.06) rotate(-88.56) scale(.08 -.08)">
<use xlink:href="#r"/>
</g>
</g>
<path d="m346.43 447.05 1.8756 4.6942q0.8905 2.2287 3.1192 1.3382l7.1898-2.8728q2.2287-0.8905 1.3382-3.1192l-1.8756-4.6942q-0.8905-2.2287-3.1192-1.3382l-7.1898 2.8728q-2.2287 0.8905-1.3382 3.1192z" clip-path="url(#a)" fill="#fff" stroke="#fff"/>
<g clip-path="url(#a)">
<g transform="translate(350.21 445.54) rotate(68.22) scale(.08 -.08)">
<use xlink:href="#q"/>
</g>
</g>
<path d="m449.82 743.1v35.285q0 2.4 2.4 2.4h7.7425q2.4 0 2.4-2.4v-35.285q0-2.4-2.4-2.4h-7.7425q-2.4 0-2.4 2.4z" clip-path="url(#a)" fill="#fff" stroke="#fff"/>
<g clip-path="url(#a)">
<g transform="translate(453.88 743.1) rotate(90) scale(.08 -.08)">
<use xlink:href="#l"/>
<use x="60.818359" xlink:href="#d"/>
<use x="122.341797" xlink:href="#g"/>
<use x="163.439453" xlink:href="#j"/>
<use x="260.851562" xlink:href="#f"/>
<use x="288.634766" xlink:href="#h"/>
<use x="352.013672" xlink:href="#k"/>
<use x="413.292969" xlink:href="#i"/>
</g>
</g>
<path d="m497.31 743.1v35.285q0 2.4 2.4 2.4h7.7425q2.4 0 2.4-2.4v-35.285q0-2.4-2.4-2.4h-7.7425q-2.4 0-2.4 2.4z" clip-path="url(#a)" fill="#fff" stroke="#fff"/>
<g clip-path="url(#a)">
<g transform="translate(501.37 743.1) rotate(90) scale(.08 -.08)">
<use xlink:href="#l"/>
<use x="60.818359" xlink:href="#d"/>
<use x="122.341797" xlink:href="#g"/>
<use x="163.439453" xlink:href="#j"/>
<use x="260.851562" xlink:href="#f"/>
<use x="288.634766" xlink:href="#h"/>
<use x="352.013672" xlink:href="#k"/>
<use x="413.292969" xlink:href="#i"/>
</g>
</g>
<path d="m595.08 529.41 1.3236-5.3989q0.57147-2.331-1.7595-2.9024l-7.5198-1.8436q-2.331-0.57147-2.9024 1.7595l-1.3236 5.3989q-0.57147 2.331 1.7595 2.9024l7.5198 1.8436q2.331 0.57147 2.9024-1.7595z" clip-path="url(#a)" fill="#fff" stroke="#fff"/>
<g clip-path="url(#a)">
<g transform="translate(591.13 528.44) rotate(-76.225) scale(.08 -.08)">
<use xlink:href="#v"/>
</g>
</g>
<path d="m619.38 528.58 0.52442-5.5616q0.22531-2.3894-2.1641-2.6147l-7.7083-0.72685q-2.3894-0.22531-2.6147 2.1641l-0.52442 5.5616q-0.22531 2.3894 2.1641 2.6147l7.7083 0.72685q2.3894 0.22531 2.6147-2.1641z" clip-path="url(#a)" fill="#fff" stroke="#fff"/>
<g clip-path="url(#a)">
<g transform="translate(615.33 528.2) rotate(-84.613) scale(.08 -.08)">
<use xlink:href="#r"/>
</g>
</g>
<path d="m666.05 447.93 2.4762 4.407q1.1756 2.0923 3.268 0.91668l6.75-3.7927q2.0923-1.1756 0.91668-3.268l-2.4762-4.407q-1.1756-2.0923-3.268-0.91668l-6.75 3.7927q-2.0923 1.1756-0.91668 3.268z" clip-path="url(#a)" fill="#fff" stroke="#fff"/>
<g clip-path="url(#a)">
<g transform="translate(669.59 445.94) rotate(60.669) scale(.08 -.08)">
<use xlink:href="#q"/>
</g>
</g>
<path d="m630.71 522.65 0.33073 5.8457q0.13557 2.3962 2.5317 2.2606l7.7301-0.43734q2.3962-0.13557 2.2606-2.5317l-0.33073-5.8457q-0.13557-2.3962-2.5317-2.2606l-7.7301 0.43734q-2.3962 0.13557-2.2606 2.5317z" clip-path="url(#a)" fill="#fff" stroke="#fff"/>
<g clip-path="url(#a)">
<g transform="translate(634.77 522.42) rotate(86.762) scale(.08 -.08)">
<use xlink:href="#z"/>
</g>
</g>
<path d="m544.8 743.1v35.285q0 2.4 2.4 2.4h7.7425q2.4 0 2.4-2.4v-35.285q0-2.4-2.4-2.4h-7.7425q-2.4 0-2.4 2.4z" clip-path="url(#a)" fill="#fff" stroke="#fff"/>
<g clip-path="url(#a)">
<g transform="translate(548.86 743.1) rotate(90) scale(.08 -.08)">
<use xlink:href="#l"/>
<use x="60.818359" xlink:href="#d"/>
<use x="122.341797" xlink:href="#g"/>
<use x="163.439453" xlink:href="#j"/>
<use x="260.851562" xlink:href="#f"/>
<use x="288.634766" xlink:href="#h"/>
<use x="352.013672" xlink:href="#k"/>
<use x="413.292969" xlink:href="#i"/>
</g>
</g>
<path d="m592.28 743.1v35.285q0 2.4 2.4 2.4h7.7425q2.4 0 2.4-2.4v-35.285q0-2.4-2.4-2.4h-7.7425q-2.4 0-2.4 2.4z" clip-path="url(#a)" fill="#fff" stroke="#fff"/>
<g clip-path="url(#a)">
<g transform="translate(596.35 743.1) rotate(90) scale(.08 -.08)">
<use xlink:href="#l"/>
<use x="60.818359" xlink:href="#d"/>
<use x="122.341797" xlink:href="#g"/>
<use x="163.439453" xlink:href="#j"/>
<use x="260.851562" xlink:href="#f"/>
<use x="288.634766" xlink:href="#h"/>
<use x="352.013672" xlink:href="#k"/>
<use x="413.292969" xlink:href="#i"/>
</g>
</g>
<path d="m711.19 608.14 0.83491-5.4957q0.36047-2.3728-2.0123-2.7332l-7.6547-1.1629q-2.3728-0.36047-2.7332 2.0123l-0.83491 5.4957q-0.36047 2.3728 2.0123 2.7332l7.6547 1.1629q2.3728 0.36047 2.7332-2.0123z" clip-path="url(#a)" fill="#fff" stroke="#fff"/>
<g clip-path="url(#a)">
<g transform="translate(707.17 607.53) rotate(-81.362) scale(.08 -.08)">
<use xlink:href="#v"/>
</g>
</g>
<path d="m722.53 602.63 0.83904 5.5229q0.36047 2.3728 2.7332 2.0123l7.6547-1.1629q2.3728-0.36047 2.0123-2.7332l-0.83904-5.5229q-0.36047-2.3728-2.7332-2.0123l-7.6547 1.1629q-2.3728 0.36047-2.0123 2.7332z" clip-path="url(#a)" fill="#fff" stroke="#fff"/>
<g clip-path="url(#a)">
<g transform="translate(726.55 602.02) rotate(81.362) scale(.08 -.08)">
<use xlink:href="#r"/>
</g>
</g>
<path d="m687.26 743.1v35.285q0 2.4 2.4 2.4h7.7425q2.4 0 2.4-2.4v-35.285q0-2.4-2.4-2.4h-7.7425q-2.4 0-2.4 2.4z" clip-path="url(#a)" fill="#fff" stroke="#fff"/>
<g clip-path="url(#a)">
<g transform="translate(691.33 743.1) rotate(90) scale(.08 -.08)">
<use xlink:href="#l"/>
<use x="60.818359" xlink:href="#d"/>
<use x="122.341797" xlink:href="#g"/>
<use x="163.439453" xlink:href="#j"/>
<use x="260.851562" xlink:href="#f"/>
<use x="288.634766" xlink:href="#h"/>
<use x="352.013672" xlink:href="#k"/>
<use x="413.292969" xlink:href="#i"/>
</g>
</g>
<path d="m734.75 743.1v35.285q0 2.4 2.4 2.4h7.7425q2.4 0 2.4-2.4v-35.285q0-2.4-2.4-2.4h-7.7425q-2.4 0-2.4 2.4z" clip-path="url(#a)" fill="#fff" stroke="#fff"/>
<g clip-path="url(#a)">
<g transform="translate(738.81 743.1) rotate(90) scale(.08 -.08)">
<use xlink:href="#l"/>
<use x="60.818359" xlink:href="#d"/>
<use x="122.341797" xlink:href="#g"/>
<use x="163.439453" xlink:href="#j"/>
<use x="260.851562" xlink:href="#f"/>
<use x="288.634766" xlink:href="#h"/>
<use x="352.013672" xlink:href="#k"/>
<use x="413.292969" xlink:href="#i"/>
</g>
</g>
<path d="m259.86 743.1v35.285q0 2.4 2.4 2.4h7.7425q2.4 0 2.4-2.4v-35.285q0-2.4-2.4-2.4h-7.7425q-2.4 0-2.4 2.4z" clip-path="url(#a)" fill="#fff" stroke="#fff"/>
<g clip-path="url(#a)">
<g transform="translate(263.93 743.1) rotate(90) scale(.08 -.08)">
<use xlink:href="#l"/>
<use x="60.818359" xlink:href="#d"/>
<use x="122.341797" xlink:href="#g"/>
<use x="163.439453" xlink:href="#j"/>
<use x="260.851562" xlink:href="#f"/>
<use x="288.634766" xlink:href="#h"/>
<use x="352.013672" xlink:href="#k"/>
<use x="413.292969" xlink:href="#i"/>
</g>
</g>
<path d="m307.35 743.1v35.285q0 2.4 2.4 2.4h7.7425q2.4 0 2.4-2.4v-35.285q0-2.4-2.4-2.4h-7.7425q-2.4 0-2.4 2.4z" clip-path="url(#a)" fill="#fff" stroke="#fff"/>
<g clip-path="url(#a)">
<g transform="translate(311.41 743.1) rotate(90) scale(.08 -.08)">
<use xlink:href="#l"/>
<use x="60.818359" xlink:href="#d"/>
<use x="122.341797" xlink:href="#g"/>
<use x="163.439453" xlink:href="#j"/>
<use x="260.851562" xlink:href="#f"/>
<use x="288.634766" xlink:href="#h"/>
<use x="352.013672" xlink:href="#k"/>
<use x="413.292969" xlink:href="#i"/>
</g>
</g>
<path d="m378.77 608.14 0.83491-5.4957q0.36047-2.3728-2.0123-2.7332l-7.6547-1.1629q-2.3728-0.36047-2.7332 2.0123l-0.83491 5.4957q-0.36047 2.3728 2.0123 2.7332l7.6547 1.1629q2.3728 0.36047 2.7332-2.0123z" clip-path="url(#a)" fill="#fff" stroke="#fff"/>
<g clip-path="url(#a)">
<g transform="translate(374.75 607.53) rotate(-81.362) scale(.08 -.08)">
<use xlink:href="#v"/>
</g>
</g>
<path d="m390.11 602.63 0.83904 5.5229q0.36047 2.3728 2.7332 2.0123l7.6547-1.1629q2.3728-0.36047 2.0123-2.7332l-0.83904-5.5229q-0.36047-2.3728-2.7332-2.0123l-7.6547 1.1629q-2.3728 0.36047-2.0123 2.7332z" clip-path="url(#a)" fill="#fff" stroke="#fff"/>
<g clip-path="url(#a)">
<g transform="translate(394.13 602.02) rotate(81.362) scale(.08 -.08)">
<use xlink:href="#r"/>
</g>
</g>
<path d="m354.84 743.1v35.285q0 2.4 2.4 2.4h7.7425q2.4 0 2.4-2.4v-35.285q0-2.4-2.4-2.4h-7.7425q-2.4 0-2.4 2.4z" clip-path="url(#a)" fill="#fff" stroke="#fff"/>
<g clip-path="url(#a)">
<g transform="translate(358.9 743.1) rotate(90) scale(.08 -.08)">
<use xlink:href="#l"/>
<use x="60.818359" xlink:href="#d"/>
<use x="122.341797" xlink:href="#g"/>
<use x="163.439453" xlink:href="#j"/>
<use x="260.851562" xlink:href="#f"/>
<use x="288.634766" xlink:href="#h"/>
<use x="352.013672" xlink:href="#k"/>
<use x="413.292969" xlink:href="#i"/>
</g>
</g>
<path d="m402.33 743.1v35.285q0 2.4 2.4 2.4h7.7425q2.4 0 2.4-2.4v-35.285q0-2.4-2.4-2.4h-7.7425q-2.4 0-2.4 2.4z" clip-path="url(#a)" fill="#fff" stroke="#fff"/>
<g clip-path="url(#a)">
<g transform="translate(406.39 743.1) rotate(90) scale(.08 -.08)">
<use xlink:href="#l"/>
<use x="60.818359" xlink:href="#d"/>
<use x="122.341797" xlink:href="#g"/>
<use x="163.439453" xlink:href="#j"/>
<use x="260.851562" xlink:href="#f"/>
<use x="288.634766" xlink:href="#h"/>
<use x="352.013672" xlink:href="#k"/>
<use x="413.292969" xlink:href="#i"/>
</g>
</g>
<path d="m69.906 743.1v35.285q0 2.4 2.4 2.4h7.7425q2.4 0 2.4-2.4v-35.285q0-2.4-2.4-2.4h-7.7425q-2.4 0-2.4 2.4z" clip-path="url(#a)" fill="#fff" stroke="#fff"/>
<g clip-path="url(#a)">
<g transform="translate(73.97 743.1) rotate(90) scale(.08 -.08)">
<use xlink:href="#l"/>
<use x="60.818359" xlink:href="#d"/>
<use x="122.341797" xlink:href="#g"/>
<use x="163.439453" xlink:href="#j"/>
<use x="260.851562" xlink:href="#f"/>
<use x="288.634766" xlink:href="#h"/>
<use x="352.013672" xlink:href="#k"/>
<use x="413.292969" xlink:href="#i"/>
</g>
</g>
<path d="m139.09 779.13 5.2997-34.885q0.36047-2.3728-2.0123-2.7332l-7.6547-1.1629q-2.3728-0.36047-2.7332 2.0123l-5.2997 34.885q-0.36047 2.3728 2.0123 2.7332l7.6547 1.1629q2.3728 0.36047 2.7332-2.0123z" clip-path="url(#a)" fill="#fff" stroke="#fff"/>
<g clip-path="url(#a)">
<g transform="translate(135.07 778.52) rotate(-81.362) scale(.08 -.08)">
<use xlink:href="#l"/>
<use x="60.818359" xlink:href="#d"/>
<use x="122.341797" xlink:href="#g"/>
<use x="163.439453" xlink:href="#j"/>
<use x="260.851562" xlink:href="#f"/>
<use x="288.634766" xlink:href="#h"/>
<use x="352.013672" xlink:href="#k"/>
<use x="413.292969" xlink:href="#i"/>
</g>
</g>
<path d="m150.43 744.24 5.2997 34.885q0.36047 2.3728 2.7332 2.0123l7.6547-1.1629q2.3728-0.36047 2.0123-2.7332l-5.2997-34.885q-0.36047-2.3728-2.7332-2.0123l-7.6547 1.1629q-2.3728 0.36047-2.0123 2.7332z" clip-path="url(#a)" fill="#fff" stroke="#fff"/>
<g clip-path="url(#a)">
<g transform="translate(154.45 743.63) rotate(81.362) scale(.08 -.08)">
<use xlink:href="#l"/>
<use x="60.818359" xlink:href="#d"/>
<use x="122.341797" xlink:href="#g"/>
<use x="163.439453" xlink:href="#j"/>
<use x="260.851562" xlink:href="#f"/>
<use x="288.634766" xlink:href="#h"/>
<use x="352.013672" xlink:href="#k"/>
<use x="413.292969" xlink:href="#i"/>
</g>
</g>
<path d="m662.53 131.49 9.0051-4.1909q2.1759-1.0126 1.1633-3.1885l-3.2668-7.0195q-1.0126-2.1759-3.1885-1.1633l-9.0051 4.1909q-2.1759 1.0126-1.1633 3.1885l3.2668 7.0195q1.0126 2.1759 3.1885 1.1633z" clip-path="url(#a)" fill="#fff" stroke="#fff"/>
<g clip-path="url(#a)">
<g transform="translate(660.82 127.81) rotate(-24.957) scale(.08 -.08)">
<use xlink:href="#aa"/>
<use x="55.744141" xlink:href="#s"/>
</g>
</g>
<path d="m845.16 366.92 0.091702-10.016q0.021973-2.3999-2.3779-2.4219l-7.7422-0.070886q-2.3999-0.021972-2.4219 2.3779l-0.091702 10.016q-0.021973 2.3999 2.3779 2.4219l7.7422 0.070886q2.3999 0.021973 2.4219-2.3779z" clip-path="url(#a)" fill="#fff" stroke="#fff"/>
<g clip-path="url(#a)">
<g transform="translate(841.1 366.88) rotate(-89.475) scale(.08 -.08)">
<use xlink:href="#aa"/>
<use x="55.712891" xlink:href="#v"/>
</g>
</g>
<path d="m1015.2 127.34 9.0311 4.1346q2.1822 0.99904 3.1812-1.1831l3.2229-7.0398q0.99904-2.1822-1.1831-3.1812l-9.0311-4.1346q-2.1822-0.99904-3.1812 1.1831l-3.2229 7.0398q-0.99904 2.1822 1.1831 3.1812z" clip-path="url(#a)" fill="#fff" stroke="#fff"/>
<g clip-path="url(#a)">
<g transform="translate(1016.9 123.65) rotate(24.599) scale(.08 -.08)">
<use xlink:href="#aa"/>
<use x="55.744141" xlink:href="#s"/>
</g>
</g>
<path d="m212.37 743.1v35.285q0 2.4 2.4 2.4h7.7425q2.4 0 2.4-2.4v-35.285q0-2.4-2.4-2.4h-7.7425q-2.4 0-2.4 2.4z" clip-path="url(#a)" fill="#fff" stroke="#fff"/>
<g clip-path="url(#a)">
<g transform="translate(216.44 743.1) rotate(90) scale(.08 -.08)">
<use xlink:href="#l"/>
<use x="60.818359" xlink:href="#d"/>
<use x="122.341797" xlink:href="#g"/>
<use x="163.439453" xlink:href="#j"/>
<use x="260.851562" xlink:href="#f"/>
<use x="288.634766" xlink:href="#h"/>
<use x="352.013672" xlink:href="#k"/>
<use x="413.292969" xlink:href="#i"/>
</g>
</g>
<path d="m639.77 743.1v35.285q0 2.4 2.4 2.4h7.7425q2.4 0 2.4-2.4v-35.285q0-2.4-2.4-2.4h-7.7425q-2.4 0-2.4 2.4z" clip-path="url(#a)" fill="#fff" stroke="#fff"/>
<g clip-path="url(#a)">
<g transform="translate(643.84 743.1) rotate(90) scale(.08 -.08)">
<use xlink:href="#l"/>
<use x="60.818359" xlink:href="#d"/>
<use x="122.341797" xlink:href="#g"/>
<use x="163.439453" xlink:href="#j"/>
<use x="260.851562" xlink:href="#f"/>
<use x="288.634766" xlink:href="#h"/>
<use x="352.013672" xlink:href="#k"/>
<use x="413.292969" xlink:href="#i"/>
</g>
</g>
<path d="m782.24 743.1v35.285q0 2.4 2.4 2.4h7.7425q2.4 0 2.4-2.4v-35.285q0-2.4-2.4-2.4h-7.7425q-2.4 0-2.4 2.4z" clip-path="url(#a)" fill="#fff" stroke="#fff"/>
<g clip-path="url(#a)">
<g transform="translate(786.3 743.1) rotate(90) scale(.08 -.08)">
<use xlink:href="#l"/>
<use x="60.818359" xlink:href="#d"/>
<use x="122.341797" xlink:href="#g"/>
<use x="163.439453" xlink:href="#j"/>
<use x="260.851562" xlink:href="#f"/>
<use x="288.634766" xlink:href="#h"/>
<use x="352.013672" xlink:href="#k"/>
<use x="413.292969" xlink:href="#i"/>
</g>
</g>
<path d="m1114.7 743.1v35.285q0 2.4 2.4 2.4h7.7425q2.4 0 2.4-2.4v-35.285q0-2.4-2.4-2.4h-7.7425q-2.4 0-2.4 2.4z" clip-path="url(#a)" fill="#fff" stroke="#fff"/>
<g clip-path="url(#a)">
<g transform="translate(1118.7 743.1) rotate(90) scale(.08 -.08)">
<use xlink:href="#l"/>
<use x="60.818359" xlink:href="#d"/>
<use x="122.341797" xlink:href="#g"/>
<use x="163.439453" xlink:href="#j"/>
<use x="260.851562" xlink:href="#f"/>
<use x="288.634766" xlink:href="#h"/>
<use x="352.013672" xlink:href="#k"/>
<use x="413.292969" xlink:href="#i"/>
</g>
</g>
<path d="m1589.6 743.1v35.285q0 2.4 2.4 2.4h7.7425q2.4 0 2.4-2.4v-35.285q0-2.4-2.4-2.4h-7.7425q-2.4 0-2.4 2.4z" clip-path="url(#a)" fill="#fff" stroke="#fff"/>
<g clip-path="url(#a)">
<g transform="translate(1593.6 743.1) rotate(90) scale(.08 -.08)">
<use xlink:href="#l"/>
<use x="60.818359" xlink:href="#d"/>
<use x="122.341797" xlink:href="#g"/>
<use x="163.439453" xlink:href="#j"/>
<use x="260.851562" xlink:href="#f"/>
<use x="288.634766" xlink:href="#h"/>
<use x="352.013672" xlink:href="#k"/>
<use x="413.292969" xlink:href="#i"/>
</g>
</g>
<defs>
<path id="b" d="m0 8.6603c2.2967 0 4.4997-0.9125 6.1237-2.5365 1.624-1.624 2.5365-3.827 2.5365-6.1237s-0.9125-4.4997-2.5365-6.1237c-1.624-1.624-3.827-2.5365-6.1237-2.5365s-4.4997 0.9125-6.1237 2.5365c-1.624 1.624-2.5365 3.827-2.5365 6.1237s0.9125 4.4997 2.5365 6.1237c1.624 1.624 3.827 2.5365 6.1237 2.5365z"/>
</defs>
<g clip-path="url(#a)">
<use x="76.1771" y="838.892541" fill="#ffffff" stroke="#ffffff" xlink:href="#b"/>
</g>
<g clip-path="url(#a)">
<use x="123.666032" y="838.892541" fill="#ffffff" stroke="#ffffff" xlink:href="#b"/>
</g>
<g clip-path="url(#a)">
<use x="171.154963" y="838.892541" fill="#ffffff" stroke="#ffffff" xlink:href="#b"/>
</g>
<g clip-path="url(#a)">
<use x="218.643894" y="838.892541" fill="#ffffff" stroke="#ffffff" xlink:href="#b"/>
</g>
<g clip-path="url(#a)">
<use x="266.132825" y="838.892541" fill="#ffffff" stroke="#ffffff" xlink:href="#b"/>
</g>
<g clip-path="url(#a)">
<use x="313.621756" y="838.892541" fill="#ffffff" stroke="#ffffff" xlink:href="#b"/>
</g>
<g clip-path="url(#a)">
<use x="361.110688" y="838.892541" fill="#ffffff" stroke="#ffffff" xlink:href="#b"/>
</g>
<g clip-path="url(#a)">
<use x="408.599619" y="838.892541" fill="#ffffff" stroke="#ffffff" xlink:href="#b"/>
</g>
<g clip-path="url(#a)">
<use x="456.08855" y="838.892541" fill="#ffffff" stroke="#ffffff" xlink:href="#b"/>
</g>
<g clip-path="url(#a)">
<use x="503.577481" y="838.892541" fill="#ffffff" stroke="#ffffff" xlink:href="#b"/>
</g>
<g clip-path="url(#a)">
<use x="551.066413" y="838.892541" fill="#ffffff" stroke="#ffffff" xlink:href="#b"/>
</g>
<g clip-path="url(#a)">
<use x="598.555344" y="838.892541" fill="#ffffff" stroke="#ffffff" xlink:href="#b"/>
</g>
<g clip-path="url(#a)">
<use x="646.044275" y="838.892541" fill="#ffffff" stroke="#ffffff" xlink:href="#b"/>
</g>
<g clip-path="url(#a)">
<use x="693.533206" y="838.892541" fill="#ffffff" stroke="#ffffff" xlink:href="#b"/>
</g>
<g clip-path="url(#a)">
<use x="741.022138" y="838.892541" fill="#ffffff" stroke="#ffffff" xlink:href="#b"/>
</g>
<g clip-path="url(#a)">
<use x="788.511069" y="838.892541" fill="#ffffff" stroke="#ffffff" xlink:href="#b"/>
</g>
<g clip-path="url(#a)">
<use x="836" y="838.892541" fill="#ffffff" stroke="#ffffff" xlink:href="#b"/>
</g>
<g clip-path="url(#a)">
<use x="883.488931" y="838.892541" fill="#ffffff" stroke="#ffffff" xlink:href="#b"/>
</g>
<g clip-path="url(#a)">
<use x="930.977862" y="838.892541" fill="#ffffff" stroke="#ffffff" xlink:href="#b"/>
</g>
<g clip-path="url(#a)">
<use x="978.466794" y="838.892541" fill="#ffffff" stroke="#ffffff" xlink:href="#b"/>
</g>
<g clip-path="url(#a)">
<use x="1025.955725" y="838.892541" fill="#ffffff" stroke="#ffffff" xlink:href="#b"/>
</g>
<g clip-path="url(#a)">
<use x="1073.444656" y="838.892541" fill="#ffffff" stroke="#ffffff" xlink:href="#b"/>
</g>
<g clip-path="url(#a)">
<use x="1120.933587" y="838.892541" fill="#ffffff" stroke="#ffffff" xlink:href="#b"/>
</g>
<g clip-path="url(#a)">
<use x="1168.422519" y="838.892541" fill="#ffffff" stroke="#ffffff" xlink:href="#b"/>
</g>
<g clip-path="url(#a)">
<use x="1215.91145" y="838.892541" fill="#ffffff" stroke="#ffffff" xlink:href="#b"/>
</g>
<g clip-path="url(#a)">
<use x="1263.400381" y="838.892541" fill="#ffffff" stroke="#ffffff" xlink:href="#b"/>
</g>
<g clip-path="url(#a)">
<use x="1310.889312" y="838.892541" fill="#ffffff" stroke="#ffffff" xlink:href="#b"/>
</g>
<g clip-path="url(#a)">
<use x="1358.378244" y="838.892541" fill="#ffffff" stroke="#ffffff" xlink:href="#b"/>
</g>
<g clip-path="url(#a)">
<use x="1405.867175" y="838.892541" fill="#ffffff" stroke="#ffffff" xlink:href="#b"/>
</g>
<g clip-path="url(#a)">
<use x="1453.356106" y="838.892541" fill="#ffffff" stroke="#ffffff" xlink:href="#b"/>
</g>
<g clip-path="url(#a)">
<use x="1500.845037" y="838.892541" fill="#ffffff" stroke="#ffffff" xlink:href="#b"/>
</g>
<g clip-path="url(#a)">
<use x="1548.333968" y="838.892541" fill="#ffffff" stroke="#ffffff" xlink:href="#b"/>
</g>
<g clip-path="url(#a)">
<use x="1595.8229" y="838.892541" fill="#ffffff" stroke="#ffffff" xlink:href="#b"/>
</g>
<g clip-path="url(#a)">
<use x="828.532742" y="41.107459" fill="#ffffff" stroke="#ffffff" xlink:href="#b"/>
</g>
<g clip-path="url(#a)">
<use x="486.899821" y="206.309295" fill="#ffffff" stroke="#ffffff" xlink:href="#b"/>
</g>
<g clip-path="url(#a)">
<use x="836" y="682.596718" fill="#ffffff" stroke="#ffffff" xlink:href="#b"/>
</g>
<g clip-path="url(#a)">
<use x="1202.72008" y="206.309295" fill="#ffffff" stroke="#ffffff" xlink:href="#b"/>
</g>
<g clip-path="url(#a)">
<use x="946.807506" y="367.830825" fill="#ffffff" stroke="#ffffff" xlink:href="#b"/>
</g>
<g clip-path="url(#a)">
<use x="1168.422519" y="682.596718" fill="#ffffff" stroke="#ffffff" xlink:href="#b"/>
</g>
<g clip-path="url(#a)">
<use x="1215.91145" y="682.596718" fill="#ffffff" stroke="#ffffff" xlink:href="#b"/>
</g>
<g clip-path="url(#a)">
<use x="1287.144847" y="526.300895" fill="#ffffff" stroke="#ffffff" xlink:href="#b"/>
</g>
<g clip-path="url(#a)">
<use x="1477.100572" y="526.300895" fill="#ffffff" stroke="#ffffff" xlink:href="#b"/>
</g>
<g clip-path="url(#a)">
<use x="1358.378244" y="682.596718" fill="#ffffff" stroke="#ffffff" xlink:href="#b"/>
</g>
<g clip-path="url(#a)">
<use x="1405.867175" y="682.596718" fill="#ffffff" stroke="#ffffff" xlink:href="#b"/>
</g>
<g clip-path="url(#a)">
<use x="1477.100572" y="682.596718" fill="#ffffff" stroke="#ffffff" xlink:href="#b"/>
</g>
<g clip-path="url(#a)">
<use x="1548.333968" y="682.596718" fill="#ffffff" stroke="#ffffff" xlink:href="#b"/>
</g>
<g clip-path="url(#a)">
<use x="1263.400381" y="682.596718" fill="#ffffff" stroke="#ffffff" xlink:href="#b"/>
</g>
<g clip-path="url(#a)">
<use x="1310.889312" y="682.596718" fill="#ffffff" stroke="#ffffff" xlink:href="#b"/>
</g>
<g clip-path="url(#a)">
<use x="883.488931" y="682.596718" fill="#ffffff" stroke="#ffffff" xlink:href="#b"/>
</g>
<g clip-path="url(#a)">
<use x="930.977862" y="682.596718" fill="#ffffff" stroke="#ffffff" xlink:href="#b"/>
</g>
<g clip-path="url(#a)">
<use x="1025.955725" y="526.300895" fill="#ffffff" stroke="#ffffff" xlink:href="#b"/>
</g>
<g clip-path="url(#a)">
<use x="978.466794" y="682.596718" fill="#ffffff" stroke="#ffffff" xlink:href="#b"/>
</g>
<g clip-path="url(#a)">
<use x="1025.955725" y="682.596718" fill="#ffffff" stroke="#ffffff" xlink:href="#b"/>
</g>
<g clip-path="url(#a)">
<use x="1073.444656" y="682.596718" fill="#ffffff" stroke="#ffffff" xlink:href="#b"/>
</g>
<g clip-path="url(#a)">
<use x="111.793799" y="526.300895" fill="#ffffff" stroke="#ffffff" xlink:href="#b"/>
</g>
<g clip-path="url(#a)">
<use x="321.536578" y="367.830825" fill="#ffffff" stroke="#ffffff" xlink:href="#b"/>
</g>
<g clip-path="url(#a)">
<use x="456.08855" y="682.596718" fill="#ffffff" stroke="#ffffff" xlink:href="#b"/>
</g>
<g clip-path="url(#a)">
<use x="503.577481" y="682.596718" fill="#ffffff" stroke="#ffffff" xlink:href="#b"/>
</g>
<g clip-path="url(#a)">
<use x="628.235926" y="367.830825" fill="#ffffff" stroke="#ffffff" xlink:href="#b"/>
</g>
<g clip-path="url(#a)">
<use x="551.066413" y="682.596718" fill="#ffffff" stroke="#ffffff" xlink:href="#b"/>
</g>
<g clip-path="url(#a)">
<use x="598.555344" y="682.596718" fill="#ffffff" stroke="#ffffff" xlink:href="#b"/>
</g>
<g clip-path="url(#a)">
<use x="717.277672" y="526.300895" fill="#ffffff" stroke="#ffffff" xlink:href="#b"/>
</g>
<g clip-path="url(#a)">
<use x="693.533206" y="682.596718" fill="#ffffff" stroke="#ffffff" xlink:href="#b"/>
</g>
<g clip-path="url(#a)">
<use x="741.022138" y="682.596718" fill="#ffffff" stroke="#ffffff" xlink:href="#b"/>
</g>
<g clip-path="url(#a)">
<use x="266.132825" y="682.596718" fill="#ffffff" stroke="#ffffff" xlink:href="#b"/>
</g>
<g clip-path="url(#a)">
<use x="313.621756" y="682.596718" fill="#ffffff" stroke="#ffffff" xlink:href="#b"/>
</g>
<g clip-path="url(#a)">
<use x="384.855153" y="526.300895" fill="#ffffff" stroke="#ffffff" xlink:href="#b"/>
</g>
<g clip-path="url(#a)">
<use x="361.110688" y="682.596718" fill="#ffffff" stroke="#ffffff" xlink:href="#b"/>
</g>
<g clip-path="url(#a)">
<use x="408.599619" y="682.596718" fill="#ffffff" stroke="#ffffff" xlink:href="#b"/>
</g>
<g clip-path="url(#a)">
<use x="76.1771" y="682.596718" fill="#ffffff" stroke="#ffffff" xlink:href="#b"/>
</g>
<g clip-path="url(#a)">
<use x="147.410497" y="682.596718" fill="#ffffff" stroke="#ffffff" xlink:href="#b"/>
</g>
<g clip-path="url(#a)">
<use x="841.8733" y="41.107459" fill="#808080" stroke="#808080" xlink:href="#b"/>
</g>
<g clip-path="url(#a)">
<use x="218.643894" y="682.596718" fill="#ffffff" stroke="#ffffff" xlink:href="#b"/>
</g>
<g clip-path="url(#a)">
<use x="646.044275" y="682.596718" fill="#ffffff" stroke="#ffffff" xlink:href="#b"/>
</g>
<g clip-path="url(#a)">
<use x="788.511069" y="682.596718" fill="#ffffff" stroke="#ffffff" xlink:href="#b"/>
</g>
<g clip-path="url(#a)">
<use x="1120.933587" y="682.596718" fill="#ffffff" stroke="#ffffff" xlink:href="#b"/>
</g>
<g clip-path="url(#a)">
<use x="1595.8229" y="682.596718" fill="#ffffff" stroke="#ffffff" xlink:href="#b"/>
</g>
<g clip-path="url(#a)">
<g transform="translate(70.315 841.65) scale(.1 -.1)">
<use xlink:href="#aa"/>
<use x="55.697266" xlink:href="#d"/>
</g>
</g>
<g clip-path="url(#a)">
<defs>
<path id="m" d="m19.188 8.2969h34.422v-8.2969h-46.281v8.2969q5.6094 5.8125 15.297 15.594 9.7031 9.7969 12.188 12.641 4.7344 5.3125 6.6094 9 1.8906 3.6875 1.8906 7.25 0 5.8125-4.0781 9.4688-4.0781 3.6719-10.625 3.6719-4.6406 0-9.7969-1.6094-5.1406-1.6094-11-4.8906v9.9688q5.9531 2.3906 11.125 3.6094 5.1875 1.2188 9.4844 1.2188 11.328 0 18.062-5.6719 6.7344-5.6562 6.7344-15.125 0-4.5-1.6875-8.5312-1.6719-4.0156-6.125-9.4844-1.2188-1.4219-7.7656-8.1875-6.5312-6.7656-18.453-18.922z"/>
<path id="ae" d="m31.781 66.406q-7.6094 0-11.453-7.5-3.8281-7.4844-3.8281-22.531 0-14.984 3.8281-22.484 3.8438-7.5 11.453-7.5 7.6719 0 11.5 7.5 3.8438 7.5 3.8438 22.484 0 15.047-3.8438 22.531-3.8281 7.5-11.5 7.5zm0 7.8125q12.266 0 18.734-9.7031 6.4688-9.6875 6.4688-28.141 0-18.406-6.4688-28.109-6.4688-9.6875-18.734-9.6875-12.25 0-18.719 9.6875-6.4688 9.7031-6.4688 28.109 0 18.453 6.4688 28.141 6.4688 9.7031 18.719 9.7031z"/>
</defs>
<g transform="translate(117.3 841.65) scale(.1 -.1)">
<use xlink:href="#m"/>
<use x="63.623047" xlink:href="#ae"/>
</g>
</g>
<g clip-path="url(#a)">
<defs>
<path id="au" d="m9.4219 54.688h8.9844v-55.672q0-10.438-3.9844-15.125-3.9688-4.6875-12.812-4.6875h-3.4219v7.6094h2.4062q5.125 0 6.9688 2.375 1.8594 2.3594 1.8594 9.8281zm0 21.297h8.9844v-11.391h-8.9844z"/>
<path id="p" d="m8.5 21.578v33.109h8.9844v-32.766q0-7.7656 3.0156-11.656 3.0312-3.875 9.0938-3.875 7.2656 0 11.484 4.6406 4.2344 4.6406 4.2344 12.656v31h8.9844v-54.688h-8.9844v8.4062q-3.2656-4.9844-7.5938-7.4062-4.3125-2.4219-10.031-2.4219-9.4219 0-14.312 5.8594-4.875 5.8594-4.875 17.141z"/>
<path id="t" d="m18.312 70.219v-15.531h18.5v-6.9844h-18.5v-29.688q0-6.6875 1.8281-8.5938t7.4531-1.9062h9.2188v-7.5156h-9.2188q-10.406 0-14.359 3.875-3.9531 3.8906-3.9531 14.141v29.688h-6.5938v6.9844h6.5938v15.531z"/>
</defs>
<g transform="translate(157.39 841.65) scale(.1 -.1)">
<use xlink:href="#au"/>
<use x="27.783203" xlink:href="#p"/>
<use x="91.162109" xlink:href="#f"/>
<use x="118.945312" xlink:href="#i"/>
<use x="146.728516" xlink:href="#i"/>
<use x="174.511719" xlink:href="#d"/>
<use x="236.035156" xlink:href="#t"/>
</g>
</g>
<g clip-path="url(#a)">
<defs>
<path id="ai" d="m11.719 12.406h10.297v-8.4062l-8-15.625h-6.2969l4 15.625z"/>
</defs>
<g transform="translate(217.05 841.65) scale(.1 -.1)">
<use xlink:href="#ai"/>
</g>
</g>
<g clip-path="url(#a)">
<g transform="translate(261.67 841.65) scale(.1 -.1)">
<use xlink:href="#i"/>
<use x="27.783203" xlink:href="#d"/>
</g>
</g>
<g clip-path="url(#a)">
<defs>
<path id="u" d="m30.609 48.391q-7.2188 0-11.422-5.6406t-4.2031-15.453 4.1719-15.453q4.1875-5.6406 11.453-5.6406 7.1875 0 11.375 5.6562 4.2031 5.6719 4.2031 15.438 0 9.7188-4.2031 15.406-4.1875 5.6875-11.375 5.6875zm0 7.6094q11.719 0 18.406-7.625 6.7031-7.6094 6.7031-21.078 0-13.422-6.7031-21.078-6.6875-7.6406-18.406-7.6406-11.766 0-18.438 7.6406-6.6562 7.6562-6.6562 21.078 0 13.469 6.6562 21.078 6.6719 7.625 18.438 7.625z"/>
<path id="ah" d="m18.109 8.2031v-29h-9.0312v75.484h9.0312v-8.2969q2.8438 4.875 7.1562 7.2344 4.3281 2.375 10.328 2.375 9.9688 0 16.188-7.9062 6.2344-7.9062 6.2344-20.797t-6.2344-20.812q-6.2188-7.9062-16.188-7.9062-6 0-10.328 2.375-4.3125 2.375-7.1562 7.25zm30.578 19.094q0 9.9062-4.0781 15.547t-11.203 5.6406q-7.1406 0-11.219-5.6406t-4.0781-15.547 4.0781-15.547 11.219-5.6406q7.125 0 11.203 5.6406t4.0781 15.547z"/>
<path id="am" d="m14.797 27.297q0-9.9062 4.0781-15.547t11.203-5.6406 11.219 5.6406q4.1094 5.6406 4.1094 15.547t-4.1094 15.547q-4.0938 5.6406-11.219 5.6406t-11.203-5.6406-4.0781-15.547zm30.609-19.094q-2.8281-4.875-7.1562-7.25-4.3125-2.375-10.375-2.375-9.9062 0-16.141 7.9062-6.2188 7.9219-6.2188 20.812t6.2188 20.797q6.2344 7.9062 16.141 7.9062 6.0625 0 10.375-2.375 4.3281-2.3594 7.1562-7.2344v8.2969h8.9844v-75.484h-8.9844z"/>
</defs>
<g transform="translate(292.57 841.65) scale(.1 -.1)">
<use xlink:href="#t"/>
<use x="39.208984" xlink:href="#g"/>
<use x="80.291016" xlink:href="#u"/>
<use x="141.472656" xlink:href="#ah"/>
<use x="204.949219" xlink:href="#f"/>
<use x="232.732422" xlink:href="#am"/>
<use x="296.208984" xlink:href="#p"/>
<use x="359.587891" xlink:href="#d"/>
</g>
</g>
<g clip-path="url(#a)">
<defs>
<path id="y" d="m45.406 46.391v29.594h8.9844v-75.984h-8.9844v8.2031q-2.8281-4.875-7.1562-7.25-4.3125-2.375-10.375-2.375-9.9062 0-16.141 7.9062-6.2188 7.9219-6.2188 20.812t6.2188 20.797q6.2344 7.9062 16.141 7.9062 6.0625 0 10.375-2.375 4.3281-2.3594 7.1562-7.2344zm-30.609-19.094q0-9.9062 4.0781-15.547t11.203-5.6406 11.219 5.6406q4.1094 5.6406 4.1094 15.547t-4.1094 15.547q-4.0938 5.6406-11.219 5.6406t-11.203-5.6406-4.0781-15.547z"/>
</defs>
<g transform="translate(354.77 841.65) scale(.1 -.1)">
<use xlink:href="#y"/>
<use x="63.476562" xlink:href="#p"/>
</g>
</g>
<g clip-path="url(#a)">
<defs>
<path id="af" d="m48.781 52.594v-8.4062q-3.8125 2.1094-7.6406 3.1562t-7.7344 1.0469q-8.75 0-13.594-5.5469-4.8281-5.5312-4.8281-15.547t4.8281-15.562q4.8438-5.5312 13.594-5.5312 3.9062 0 7.7344 1.0469t7.6406 3.1562v-8.3125q-3.7656-1.75-7.7969-2.625-4.0156-0.89062-8.5625-0.89062-12.359 0-19.641 7.7656-7.2656 7.7656-7.2656 20.953 0 13.375 7.3438 21.031 7.3594 7.6719 20.156 7.6719 4.1406 0 8.0938-0.85938 3.9531-0.84375 7.6719-2.5469z"/>
</defs>
<g transform="translate(381.32 841.65) scale(.1 -.1)">
<use xlink:href="#r"/>
<use x="69.824219" xlink:href="#k"/>
<use x="131.103516" xlink:href="#ah"/>
<use x="194.580078" xlink:href="#g"/>
<use x="235.693359" xlink:href="#f"/>
<use x="263.476562" xlink:href="#af"/>
<use x="318.457031" xlink:href="#u"/>
<use x="379.638672" xlink:href="#g"/>
<use x="420.736328" xlink:href="#h"/>
<use x="484.115234" xlink:href="#d"/>
</g>
</g>
<g clip-path="url(#a)">
<defs>
<path id="an" d="m37.109 75.984v-7.4844h-8.5938q-4.8281 0-6.7188-1.9531-1.875-1.9531-1.875-7.0312v-4.8281h14.797v-6.9844h-14.797v-47.703h-9.0312v47.703h-8.5938v6.9844h8.5938v3.8125q0 9.125 4.25 13.297 4.25 4.1875 13.469 4.1875z"/>
</defs>
<g transform="translate(449.2 841.65) scale(.1 -.1)">
<use xlink:href="#an"/>
<use x="35.205078" xlink:href="#p"/>
<use x="98.583984" xlink:href="#t"/>
</g>
</g>
<g clip-path="url(#a)">
<defs>
<path id="aj" d="m56.203 29.594v-4.3906h-41.312q0.59375-9.2812 5.5938-14.141t13.938-4.8594q5.1719 0 10.031 1.2656t9.6562 3.8125v-8.5q-4.8438-2.0469-9.9219-3.125t-10.297-1.0781q-13.094 0-20.734 7.6094-7.6406 7.625-7.6406 20.625 0 13.422 7.25 21.297 7.25 7.8906 19.562 7.8906 11.031 0 17.453-7.1094 6.4219-7.0938 6.4219-19.297zm-8.9844 2.6406q-0.09375 7.3594-4.125 11.75-4.0312 4.4062-10.672 4.4062-7.5156 0-12.031-4.25t-5.2031-11.969zm-8.6875 47.75h9.7188l-15.906-18.359h-7.4844z"/>
</defs>
<g transform="translate(488.35 841.85) scale(.1 -.1)">
<use xlink:href="#af"/>
<use x="54.980469" xlink:href="#u"/>
<use x="116.162109" xlink:href="#p"/>
<use x="179.541016" xlink:href="#ah"/>
<use x="243.017578" xlink:href="#aj"/>
</g>
</g>
<g clip-path="url(#a)">
<g transform="translate(542.77 841.65) scale(.1 -.1)">
<use xlink:href="#ah"/>
<use x="63.476562" xlink:href="#k"/>
<use x="124.755859" xlink:href="#g"/>
</g>
</g>
<g clip-path="url(#a)">
<defs>
<path id="c" d="m12.406 8.2969h16.109v55.625l-17.531-3.5156v8.9844l17.438 3.5156h9.8594v-64.609h16.109v-8.2969h-41.984z"/>
<path id="ad" d="m10.797 72.906h38.719v-8.3125h-29.688v-17.859q2.1406 0.73438 4.2812 1.0938 2.1562 0.35938 4.3125 0.35938 12.203 0 19.328-6.6875 7.1406-6.6875 7.1406-18.109 0-11.766-7.3281-18.297-7.3281-6.5156-20.656-6.5156-4.5938 0-9.3594 0.78125-4.75 0.78125-9.8281 2.3438v9.9219q4.3906-2.3906 9.0781-3.5625t9.9062-1.1719q8.4531 0 13.375 4.4375 4.9375 4.4375 4.9375 12.062 0 7.6094-4.9375 12.047-4.9219 4.4531-13.375 4.4531-3.9531 0-7.8906-0.875-3.9219-0.875-8.0156-2.7344z"/>
</defs>
<g transform="translate(589.01 841.65) scale(.1 -.1)">
<use xlink:href="#c"/>
<use x="63.623047" xlink:href="#ae"/>
<use x="127.246094" xlink:href="#ad"/>
</g>
</g>
<g clip-path="url(#a)">
<defs>
<path id="as" d="m25 67.922q-3.9062 0-6.5938-2.7188-2.6875-2.7031-2.6875-6.6094 0-3.8594 2.6875-6.5156t6.5938-2.6562 6.5938 2.6562 2.6875 6.5156-2.7188 6.5938q-2.7031 2.7344-6.5625 2.7344zm0 6.2969q3.125 0 6-1.2031 2.8906-1.1875 4.9844-3.4375 2.25-2.1875 3.375-4.9844 1.125-2.7812 1.125-6 0-6.4375-4.5156-10.906t-11.062-4.4688q-6.5938 0-11 4.3906-4.3906 4.3906-4.3906 10.984 0 6.5469 4.4844 11.078 4.5 4.5469 11 4.5469z"/>
</defs>
<g transform="translate(643.54 841.65) scale(.1 -.1)">
<use xlink:href="#as"/>
</g>
</g>
<g clip-path="url(#a)">
<g transform="translate(687.28 841.65) scale(.1 -.1)">
<use xlink:href="#y"/>
<use x="63.476562" xlink:href="#d"/>
</g>
</g>
<g clip-path="url(#a)">
<defs>
<path id="aw" d="m45.406 27.984q0 9.7656-4.0312 15.125-4.0156 5.375-11.297 5.375-7.2188 0-11.25-5.375-4.0312-5.3594-4.0312-15.125 0-9.7188 4.0312-15.094t11.25-5.375q7.2812 0 11.297 5.375 4.0312 5.375 4.0312 15.094zm8.9844-21.203q0-13.953-6.2031-20.766-6.1875-6.8125-18.984-6.8125-4.7344 0-8.9375 0.70312t-8.1562 2.1719v8.7344q3.9531-2.1406 7.8125-3.1562 3.8594-1.0312 7.8594-1.0312 8.8438 0 13.234 4.6094t4.3906 13.938v4.4531q-2.7812-4.8438-7.125-7.2344t-10.406-2.3906q-10.047 0-16.203 7.6562-6.1562 7.6719-6.1562 20.328 0 12.688 6.1562 20.344 6.1562 7.6719 16.203 7.6719 6.0625 0 10.406-2.3906t7.125-7.2188v8.2969h8.9844z"/>
</defs>
<g transform="translate(717.46 841.65) scale(.1 -.1)">
<use xlink:href="#i"/>
<use x="27.783203" xlink:href="#u"/>
<use x="88.964844" xlink:href="#h"/>
<use x="152.34375" xlink:href="#aw"/>
<use x="215.820312" xlink:href="#f"/>
<use x="243.603516" xlink:href="#t"/>
<use x="282.8125" xlink:href="#p"/>
<use x="346.191406" xlink:href="#y"/>
<use x="409.667969" xlink:href="#d"/>
</g>
</g>
<g clip-path="url(#a)">
<g transform="translate(786.92 841.65) scale(.1 -.1)">
<use xlink:href="#ai"/>
</g>
</g>
<g clip-path="url(#a)">
<g transform="translate(830.96 841.65) scale(.1 -.1)">
<use xlink:href="#d"/>
<use x="61.523438" xlink:href="#t"/>
</g>
</g>
<g clip-path="url(#a)">
<g transform="translate(879.02 841.65) scale(.1 -.1)">
<use xlink:href="#i"/>
<use x="27.783203" xlink:href="#d"/>
</g>
</g>
<g clip-path="url(#a)">
<defs>
<path id="w" d="m8.2031 72.906h46.875v-4.2031l-26.469-68.703h-10.297l24.906 64.594h-35.016z"/>
</defs>
<g transform="translate(924.62 841.65) scale(.1 -.1)">
<use xlink:href="#m"/>
<use x="63.623047" xlink:href="#w"/>
</g>
</g>
<g clip-path="url(#a)">
<g transform="translate(972.12 841.65) scale(.1 -.1)">
<use xlink:href="#y"/>
<use x="63.476562" xlink:href="#p"/>
</g>
</g>
<g clip-path="url(#a)">
<defs>
<path id="aq" d="m56.203 29.594v-4.3906h-41.312q0.59375-9.2812 5.5938-14.141t13.938-4.8594q5.1719 0 10.031 1.2656t9.6562 3.8125v-8.5q-4.8438-2.0469-9.9219-3.125t-10.297-1.0781q-13.094 0-20.734 7.6094-7.6406 7.625-7.6406 20.625 0 13.422 7.25 21.297 7.25 7.8906 19.562 7.8906 11.031 0 17.453-7.1094 6.4219-7.0938 6.4219-19.297zm-8.9844 2.6406q-0.09375 7.3594-4.125 11.75-4.0312 4.4062-10.672 4.4062-7.5156 0-12.031-4.25t-5.2031-11.969zm-19.078 47.75h7.2188l11.969-18.359h-6.7812l-8.7969 11.953-8.7812-11.953h-6.7969z"/>
</defs>
<g transform="translate(1010.1 841.65) scale(.1 -.1)">
<use xlink:href="#j"/>
<use x="97.412109" xlink:href="#aq"/>
<use x="158.935547" xlink:href="#j"/>
<use x="256.347656" xlink:href="#d"/>
</g>
</g>
<g clip-path="url(#a)">
<defs>
<path id="x" d="m44.281 53.078v-8.5q-3.7969 1.9531-7.9062 2.9219-4.0938 0.98438-8.5 0.98438-6.6875 0-10.031-2.0469t-3.3438-6.1562q0-3.125 2.3906-4.9062t9.625-3.3906l3.0781-0.6875q9.5625-2.0469 13.594-5.7812t4.0312-10.422q0-7.625-6.0312-12.078-6.0312-4.4375-16.578-4.4375-4.3906 0-9.1562 0.85938t-10.031 2.5625v9.2812q4.9844-2.5938 9.8125-3.8906 4.8281-1.2812 9.5781-1.2812 6.3438 0 9.75 2.1719 3.4219 2.1719 3.4219 6.125 0 3.6562-2.4688 5.6094-2.4531 1.9531-10.812 3.7656l-3.125 0.73438q-8.3438 1.75-12.062 5.3906-3.7031 3.6406-3.7031 9.9844 0 7.7188 5.4688 11.906 5.4688 4.2031 15.531 4.2031 4.9688 0 9.3594-0.73438 4.4062-0.71875 8.1094-2.1875z"/>
</defs>
<g transform="translate(1061.5 841.65) scale(.1 -.1)">
<use xlink:href="#j"/>
<use x="97.412109" xlink:href="#u"/>
<use x="158.59375" xlink:href="#f"/>
<use x="186.376953" xlink:href="#x"/>
</g>
</g>
<g clip-path="url(#a)">
<g transform="translate(1119.3 841.65) scale(.1 -.1)">
<use xlink:href="#ai"/>
</g>
</g>
<g clip-path="url(#a)">
<g transform="translate(1156.4 841.65) scale(.1 -.1)">
<use xlink:href="#h"/>
<use x="63.378906" xlink:href="#u"/>
<use x="124.560547" xlink:href="#p"/>
<use x="187.939453" xlink:href="#x"/>
</g>
</g>
<g clip-path="url(#a)">
<defs>
<path id="av" d="m54.891 33.016v-33.016h-8.9844v32.719q0 7.7656-3.0312 11.609-3.0312 3.8594-9.0781 3.8594-7.2812 0-11.484-4.6406-4.2031-4.625-4.2031-12.641v-30.906h-9.0312v75.984h9.0312v-29.797q3.2344 4.9375 7.5938 7.375 4.375 2.4375 10.094 2.4375 9.4219 0 14.25-5.8281 4.8438-5.8281 4.8438-17.156z"/>
</defs>
<g transform="translate(1183.1 841.65) scale(.1 -.1)">
<use xlink:href="#an"/>
<use x="35.205078" xlink:href="#g"/>
<use x="76.318359" xlink:href="#k"/>
<use x="137.597656" xlink:href="#h"/>
<use x="200.976562" xlink:href="#af"/>
<use x="255.957031" xlink:href="#av"/>
<use x="319.335938" xlink:href="#f"/>
<use x="347.119141" xlink:href="#x"/>
<use x="399.21875" xlink:href="#x"/>
<use x="451.318359" xlink:href="#f"/>
<use x="479.101562" xlink:href="#u"/>
<use x="540.283203" xlink:href="#h"/>
<use x="603.662109" xlink:href="#x"/>
</g>
</g>
<g clip-path="url(#a)">
<defs>
<path id="ap" d="m17.922 72.906v-27.109h-8.2969v27.109z"/>
</defs>
<g transform="translate(1260.6 841.65) scale(.1 -.1)">
<use xlink:href="#i"/>
<use x="27.783203" xlink:href="#ap"/>
</g>
</g>
<g clip-path="url(#a)">
<g transform="translate(1288.1 841.85) scale(.1 -.1)">
<use xlink:href="#aj"/>
<use x="61.523438" xlink:href="#am"/>
<use x="125" xlink:href="#p"/>
<use x="188.378906" xlink:href="#k"/>
<use x="249.658203" xlink:href="#t"/>
<use x="288.867188" xlink:href="#d"/>
<use x="350.390625" xlink:href="#p"/>
<use x="413.769531" xlink:href="#g"/>
</g>
</g>
<g clip-path="url(#a)">
<g transform="translate(1350.5 841.65) scale(.1 -.1)">
<use xlink:href="#x"/>
<use x="52.099609" xlink:href="#p"/>
<use x="115.478516" xlink:href="#g"/>
</g>
</g>
<g clip-path="url(#a)">
<g transform="translate(1401.4 841.65) scale(.1 -.1)">
<use xlink:href="#i"/>
<use x="27.783203" xlink:href="#d"/>
</g>
</g>
<g clip-path="url(#a)">
<g transform="translate(1442.4 841.65) scale(.1 -.1)">
<use xlink:href="#af"/>
<use x="54.980469" xlink:href="#d"/>
<use x="116.503906" xlink:href="#h"/>
<use x="179.882812" xlink:href="#t"/>
</g>
</g>
<g clip-path="url(#a)">
<defs>
<path id="at" d="m54.891 54.688-19.781-26.609 20.797-28.078h-10.594l-15.922 21.484-15.906-21.484h-10.609l21.25 28.609-19.438 26.078h10.594l14.5-19.484 14.5 19.484z"/>
<path id="ar" d="m56.203 29.594v-4.3906h-41.312q0.59375-9.2812 5.5938-14.141t13.938-4.8594q5.1719 0 10.031 1.2656t9.6562 3.8125v-8.5q-4.8438-2.0469-9.9219-3.125t-10.297-1.0781q-13.094 0-20.734 7.6094-7.6406 7.625-7.6406 20.625 0 13.422 7.25 21.297 7.25 7.8906 19.562 7.8906 11.031 0 17.453-7.1094 6.4219-7.0938 6.4219-19.297zm-8.9844 2.6406q-0.09375 7.3594-4.125 11.75-4.0312 4.4062-10.672 4.4062-7.5156 0-12.031-4.25t-5.2031-11.969zm-22.547 47.75 13.766-18.266h-7.4688l-15.922 18.266z"/>
</defs>
<g transform="translate(1480.9 841.65) scale(.1 -.1)">
<use xlink:href="#y"/>
<use x="63.476562" xlink:href="#f"/>
<use x="91.259766" xlink:href="#at"/>
<use x="150.439453" xlink:href="#f"/>
<use x="178.222656" xlink:href="#ar"/>
<use x="239.746094" xlink:href="#j"/>
<use x="337.158203" xlink:href="#d"/>
</g>
</g>
<g clip-path="url(#a)">
<g transform="translate(1526.1 841.65) scale(.1 -.1)">
<use xlink:href="#j"/>
<use x="97.412109" xlink:href="#aj"/>
<use x="158.935547" xlink:href="#g"/>
<use x="200.048828" xlink:href="#f"/>
<use x="227.832031" xlink:href="#y"/>
<use x="291.308594" xlink:href="#f"/>
<use x="319.091797" xlink:href="#d"/>
<use x="380.615234" xlink:href="#h"/>
</g>
</g>
<g clip-path="url(#a)">
<defs>
<path id="e" d="m10.688 12.406h10.312v-12.406h-10.312z"/>
</defs>
<g transform="translate(1594.2 841.65) scale(.1 -.1)">
<use xlink:href="#e"/>
</g>
</g>
<g clip-path="url(#a)">
<g transform="translate(820.58 43.867) scale(.1 -.1)">
<use xlink:href="#c"/>
<use x="63.623047" xlink:href="#e"/>
<use x="95.410156" xlink:href="#c"/>
</g>
</g>
<g clip-path="url(#a)">
<g transform="translate(478.95 209.07) scale(.1 -.1)">
<use xlink:href="#c"/>
<use x="63.623047" xlink:href="#e"/>
<use x="95.410156" xlink:href="#m"/>
</g>
</g>
<g clip-path="url(#a)">
<defs>
<path id="o" d="m40.578 39.312q7.0781-1.5156 11.047-6.3125 3.9844-4.7812 3.9844-11.812 0-10.781-7.4219-16.703-7.4219-5.9062-21.094-5.9062-4.5781 0-9.4375 0.90625t-10.031 2.7188v9.5156q4.0938-2.3906 8.9688-3.6094 4.8906-1.2188 10.219-1.2188 9.2656 0 14.125 3.6562t4.8594 10.641q0 6.4531-4.5156 10.078-4.5156 3.6406-12.562 3.6406h-8.5v8.1094h8.8906q7.2656 0 11.125 2.9062t3.8594 8.375q0 5.6094-3.9844 8.6094-3.9688 3.0156-11.391 3.0156-4.0625 0-8.7031-0.89062-4.6406-0.875-10.203-2.7188v8.7812q5.625 1.5625 10.531 2.3438t9.25 0.78125q11.234 0 17.766-5.1094 6.5469-5.0938 6.5469-13.781 0-6.0625-3.4688-10.234t-9.8594-5.7812z"/>
</defs>
<g transform="translate(828.05 685.36) scale(.1 -.1)">
<use xlink:href="#c"/>
<use x="63.623047" xlink:href="#e"/>
<use x="95.410156" xlink:href="#o"/>
</g>
</g>
<g clip-path="url(#a)">
<defs>
<path id="n" d="m37.797 64.312-24.906-38.922h24.906zm-2.5938 8.5938h12.406v-47.516h10.406v-8.2031h-10.406v-17.188h-9.8125v17.188h-32.906v9.5156z"/>
</defs>
<g transform="translate(1194.8 209.07) scale(.1 -.1)">
<use xlink:href="#c"/>
<use x="63.623047" xlink:href="#e"/>
<use x="95.410156" xlink:href="#n"/>
</g>
</g>
<g clip-path="url(#a)">
<g transform="translate(938.86 370.59) scale(.1 -.1)">
<use xlink:href="#c"/>
<use x="63.623047" xlink:href="#e"/>
<use x="95.410156" xlink:href="#w"/>
</g>
</g>
<g clip-path="url(#a)">
<defs>
<path id="ac" d="m31.781 34.625q-7.0312 0-11.062-3.7656-4.0156-3.7656-4.0156-10.344 0-6.5938 4.0156-10.359 4.0312-3.7656 11.062-3.7656t11.078 3.7812q4.0625 3.7969 4.0625 10.344 0 6.5781-4.0312 10.344-4.0156 3.7656-11.109 3.7656zm-9.8594 4.1875q-6.3438 1.5625-9.8906 5.9062-3.5312 4.3594-3.5312 10.609 0 8.7344 6.2188 13.812 6.2344 5.0781 17.062 5.0781 10.891 0 17.094-5.0781t6.2031-13.812q0-6.25-3.5469-10.609-3.5312-4.3438-9.8281-5.9062 7.125-1.6562 11.094-6.5 3.9844-4.8281 3.9844-11.797 0-10.609-6.4688-16.281-6.4688-5.6562-18.531-5.6562-12.047 0-18.531 5.6562-6.4688 5.6719-6.4688 16.281 0 6.9688 4 11.797 4.0156 4.8438 11.141 6.5zm-3.6094 15.578q0-5.6562 3.5312-8.8281 3.5469-3.1719 9.9375-3.1719 6.3594 0 9.9375 3.1719 3.5938 3.1719 3.5938 8.8281 0 5.6719-3.5938 8.8438-3.5781 3.1719-9.9375 3.1719-6.3906 0-9.9375-3.1719-3.5312-3.1719-3.5312-8.8438z"/>
</defs>
<g transform="translate(1160.5 685.36) scale(.1 -.1)">
<use xlink:href="#c"/>
<use x="63.623047" xlink:href="#e"/>
<use x="95.410156" xlink:href="#ac"/>
</g>
</g>
<g clip-path="url(#a)">
<defs>
<path id="ab" d="m10.984 1.5156v8.9844q3.7188-1.7656 7.5156-2.6875 3.8125-0.92188 7.4844-0.92188 9.7656 0 14.906 6.5625 5.1562 6.5625 5.8906 19.953-2.8281-4.2031-7.1875-6.4531-4.3438-2.25-9.6094-2.25-10.938 0-17.312 6.6094-6.375 6.625-6.375 18.109 0 11.219 6.6406 18 6.6406 6.7969 17.672 6.7969 12.656 0 19.312-9.7031 6.6719-9.6875 6.6719-28.141 0-17.234-8.1875-27.516-8.1719-10.281-21.984-10.281-3.7188 0-7.5312 0.73438-3.7969 0.73438-7.9062 2.2031zm19.625 30.906q6.6406 0 10.516 4.5312 3.8906 4.5469 3.8906 12.469 0 7.8594-3.8906 12.422-3.875 4.5625-10.516 4.5625t-10.516-4.5625-3.875-12.422q0-7.9219 3.875-12.469 3.875-4.5312 10.516-4.5312z"/>
</defs>
<g transform="translate(1208 685.36) scale(.1 -.1)">
<use xlink:href="#c"/>
<use x="63.623047" xlink:href="#e"/>
<use x="95.410156" xlink:href="#ab"/>
</g>
</g>
<g clip-path="url(#a)">
<g transform="translate(1276 529.06) scale(.1 -.1)">
<use xlink:href="#c"/>
<use x="63.623047" xlink:href="#e"/>
<use x="95.410156" xlink:href="#c"/>
<use x="159.033203" xlink:href="#ae"/>
</g>
</g>
<g clip-path="url(#a)">
<g transform="translate(1466 529.06) scale(.1 -.1)">
<use xlink:href="#c"/>
<use x="63.623047" xlink:href="#e"/>
<use x="95.410156" xlink:href="#c"/>
<use x="159.033203" xlink:href="#c"/>
</g>
</g>
<g clip-path="url(#a)">
<g transform="translate(1347.2 685.36) scale(.1 -.1)">
<use xlink:href="#c"/>
<use x="63.623047" xlink:href="#e"/>
<use x="95.410156" xlink:href="#c"/>
<use x="159.033203" xlink:href="#o"/>
</g>
</g>
<g clip-path="url(#a)">
<g transform="translate(1394.7 685.36) scale(.1 -.1)">
<use xlink:href="#c"/>
<use x="63.623047" xlink:href="#e"/>
<use x="95.410156" xlink:href="#c"/>
<use x="159.033203" xlink:href="#n"/>
</g>
</g>
<g clip-path="url(#a)">
<g transform="translate(1466 685.36) scale(.1 -.1)">
<use xlink:href="#c"/>
<use x="63.623047" xlink:href="#e"/>
<use x="95.410156" xlink:href="#c"/>
<use x="159.033203" xlink:href="#ad"/>
</g>
</g>
<g clip-path="url(#a)">
<defs>
<path id="ag" d="m33.016 40.375q-6.6406 0-10.531-4.5469-3.875-4.5312-3.875-12.438 0-7.8594 3.875-12.438 3.8906-4.5625 10.531-4.5625t10.516 4.5625q3.875 4.5781 3.875 12.438 0 7.9062-3.875 12.438-3.875 4.5469-10.516 4.5469zm19.578 30.922v-8.9844q-3.7188 1.75-7.5 2.6719-3.7812 0.9375-7.5 0.9375-9.7656 0-14.922-6.5938-5.1406-6.5938-5.875-19.922 2.875 4.25 7.2188 6.5156 4.3594 2.2656 9.5781 2.2656 10.984 0 17.359-6.6719 6.375-6.6562 6.375-18.125 0-11.234-6.6406-18.031-6.6406-6.7812-17.672-6.7812-12.656 0-19.344 9.6875-6.6875 9.7031-6.6875 28.109 0 17.281 8.2031 27.562t22.016 10.281q3.7188 0 7.5-0.73438t7.8906-2.1875z"/>
</defs>
<g transform="translate(1537.2 685.36) scale(.1 -.1)">
<use xlink:href="#c"/>
<use x="63.623047" xlink:href="#e"/>
<use x="95.410156" xlink:href="#c"/>
<use x="159.033203" xlink:href="#ag"/>
</g>
</g>
<g clip-path="url(#a)">
<g transform="translate(1252.3 685.36) scale(.1 -.1)">
<use xlink:href="#c"/>
<use x="63.623047" xlink:href="#e"/>
<use x="95.410156" xlink:href="#c"/>
<use x="159.033203" xlink:href="#w"/>
</g>
</g>
<g clip-path="url(#a)">
<g transform="translate(1299.8 685.36) scale(.1 -.1)">
<use xlink:href="#c"/>
<use x="63.623047" xlink:href="#e"/>
<use x="95.410156" xlink:href="#c"/>
<use x="159.033203" xlink:href="#ac"/>
</g>
</g>
<g clip-path="url(#a)">
<g transform="translate(872.36 685.36) scale(.1 -.1)">
<use xlink:href="#c"/>
<use x="63.623047" xlink:href="#e"/>
<use x="95.410156" xlink:href="#c"/>
<use x="159.033203" xlink:href="#ab"/>
</g>
</g>
<g clip-path="url(#a)">
<g transform="translate(919.85 685.36) scale(.1 -.1)">
<use xlink:href="#c"/>
<use x="63.623047" xlink:href="#e"/>
<use x="95.410156" xlink:href="#m"/>
<use x="159.033203" xlink:href="#ae"/>
</g>
</g>
<g clip-path="url(#a)">
<g transform="translate(1014.8 529.06) scale(.1 -.1)">
<use xlink:href="#c"/>
<use x="63.623047" xlink:href="#e"/>
<use x="95.410156" xlink:href="#m"/>
<use x="159.033203" xlink:href="#c"/>
</g>
</g>
<g clip-path="url(#a)">
<g transform="translate(967.33 685.36) scale(.1 -.1)">
<use xlink:href="#c"/>
<use x="63.623047" xlink:href="#e"/>
<use x="95.410156" xlink:href="#m"/>
<use x="159.033203" xlink:href="#m"/>
</g>
</g>
<g clip-path="url(#a)">
<g transform="translate(1014.8 685.36) scale(.1 -.1)">
<use xlink:href="#c"/>
<use x="63.623047" xlink:href="#e"/>
<use x="95.410156" xlink:href="#m"/>
<use x="159.033203" xlink:href="#o"/>
</g>
</g>
<g clip-path="url(#a)">
<g transform="translate(1062.3 685.36) scale(.1 -.1)">
<use xlink:href="#c"/>
<use x="63.623047" xlink:href="#e"/>
<use x="95.410156" xlink:href="#m"/>
<use x="159.033203" xlink:href="#n"/>
</g>
</g>
<g clip-path="url(#a)">
<g transform="translate(100.66 529.06) scale(.1 -.1)">
<use xlink:href="#c"/>
<use x="63.623047" xlink:href="#e"/>
<use x="95.410156" xlink:href="#m"/>
<use x="159.033203" xlink:href="#ad"/>
</g>
</g>
<g clip-path="url(#a)">
<g transform="translate(310.4 370.59) scale(.1 -.1)">
<use xlink:href="#c"/>
<use x="63.623047" xlink:href="#e"/>
<use x="95.410156" xlink:href="#m"/>
<use x="159.033203" xlink:href="#ag"/>
</g>
</g>
<g clip-path="url(#a)">
<g transform="translate(444.96 685.36) scale(.1 -.1)">
<use xlink:href="#c"/>
<use x="63.623047" xlink:href="#e"/>
<use x="95.410156" xlink:href="#m"/>
<use x="159.033203" xlink:href="#w"/>
</g>
</g>
<g clip-path="url(#a)">
<g transform="translate(492.44 685.36) scale(.1 -.1)">
<use xlink:href="#c"/>
<use x="63.623047" xlink:href="#e"/>
<use x="95.410156" xlink:href="#m"/>
<use x="159.033203" xlink:href="#ac"/>
</g>
</g>
<g clip-path="url(#a)">
<g transform="translate(617.1 370.59) scale(.1 -.1)">
<use xlink:href="#c"/>
<use x="63.623047" xlink:href="#e"/>
<use x="95.410156" xlink:href="#m"/>
<use x="159.033203" xlink:href="#ab"/>
</g>
</g>
<g clip-path="url(#a)">
<g transform="translate(539.93 685.36) scale(.1 -.1)">
<use xlink:href="#c"/>
<use x="63.623047" xlink:href="#e"/>
<use x="95.410156" xlink:href="#o"/>
<use x="159.033203" xlink:href="#c"/>
</g>
</g>
<g clip-path="url(#a)">
<g transform="translate(587.42 685.36) scale(.1 -.1)">
<use xlink:href="#c"/>
<use x="63.623047" xlink:href="#e"/>
<use x="95.410156" xlink:href="#o"/>
<use x="159.033203" xlink:href="#m"/>
</g>
</g>
<g clip-path="url(#a)">
<g transform="translate(706.14 529.06) scale(.1 -.1)">
<use xlink:href="#c"/>
<use x="63.623047" xlink:href="#e"/>
<use x="95.410156" xlink:href="#o"/>
<use x="159.033203" xlink:href="#o"/>
</g>
</g>
<g clip-path="url(#a)">
<g transform="translate(682.4 685.36) scale(.1 -.1)">
<use xlink:href="#c"/>
<use x="63.623047" xlink:href="#e"/>
<use x="95.410156" xlink:href="#o"/>
<use x="159.033203" xlink:href="#ad"/>
</g>
</g>
<g clip-path="url(#a)">
<g transform="translate(729.89 685.36) scale(.1 -.1)">
<use xlink:href="#c"/>
<use x="63.623047" xlink:href="#e"/>
<use x="95.410156" xlink:href="#o"/>
<use x="159.033203" xlink:href="#ag"/>
</g>
</g>
<g clip-path="url(#a)">
<g transform="translate(255 685.36) scale(.1 -.1)">
<use xlink:href="#c"/>
<use x="63.623047" xlink:href="#e"/>
<use x="95.410156" xlink:href="#o"/>
<use x="159.033203" xlink:href="#w"/>
</g>
</g>
<g clip-path="url(#a)">
<g transform="translate(302.49 685.36) scale(.1 -.1)">
<use xlink:href="#c"/>
<use x="63.623047" xlink:href="#e"/>
<use x="95.410156" xlink:href="#o"/>
<use x="159.033203" xlink:href="#ac"/>
</g>
</g>
<g clip-path="url(#a)">
<g transform="translate(373.72 529.06) scale(.1 -.1)">
<use xlink:href="#c"/>
<use x="63.623047" xlink:href="#e"/>
<use x="95.410156" xlink:href="#o"/>
<use x="159.033203" xlink:href="#ab"/>
</g>
</g>
<g clip-path="url(#a)">
<g transform="translate(349.98 685.36) scale(.1 -.1)">
<use xlink:href="#c"/>
<use x="63.623047" xlink:href="#e"/>
<use x="95.410156" xlink:href="#n"/>
<use x="159.033203" xlink:href="#ae"/>
</g>
</g>
<g clip-path="url(#a)">
<g transform="translate(397.47 685.36) scale(.1 -.1)">
<use xlink:href="#c"/>
<use x="63.623047" xlink:href="#e"/>
<use x="95.410156" xlink:href="#n"/>
<use x="159.033203" xlink:href="#c"/>
</g>
</g>
<g clip-path="url(#a)">
<g transform="translate(65.044 685.36) scale(.1 -.1)">
<use xlink:href="#c"/>
<use x="63.623047" xlink:href="#e"/>
<use x="95.410156" xlink:href="#n"/>
<use x="159.033203" xlink:href="#m"/>
</g>
</g>
<g clip-path="url(#a)">
<g transform="translate(136.28 685.36) scale(.1 -.1)">
<use xlink:href="#c"/>
<use x="63.623047" xlink:href="#e"/>
<use x="95.410156" xlink:href="#n"/>
<use x="159.033203" xlink:href="#o"/>
</g>
</g>
<g clip-path="url(#a)">
<g transform="translate(830.74 43.867) scale(.1 -.1)">
<use xlink:href="#c"/>
<use x="63.623047" xlink:href="#e"/>
<use x="95.410156" xlink:href="#n"/>
<use x="159.033203" xlink:href="#n"/>
</g>
</g>
<g clip-path="url(#a)">
<g transform="translate(207.51 685.36) scale(.1 -.1)">
<use xlink:href="#c"/>
<use x="63.623047" xlink:href="#e"/>
<use x="95.410156" xlink:href="#n"/>
<use x="159.033203" xlink:href="#ad"/>
</g>
</g>
<g clip-path="url(#a)">
<g transform="translate(634.91 685.36) scale(.1 -.1)">
<use xlink:href="#c"/>
<use x="63.623047" xlink:href="#e"/>
<use x="95.410156" xlink:href="#n"/>
<use x="159.033203" xlink:href="#ag"/>
</g>
</g>
<g clip-path="url(#a)">
<g transform="translate(777.38 685.36) scale(.1 -.1)">
<use xlink:href="#c"/>
<use x="63.623047" xlink:href="#e"/>
<use x="95.410156" xlink:href="#n"/>
<use x="159.033203" xlink:href="#w"/>
</g>
</g>
<g clip-path="url(#a)">
<g transform="translate(1109.8 685.36) scale(.1 -.1)">
<use xlink:href="#c"/>
<use x="63.623047" xlink:href="#e"/>
<use x="95.410156" xlink:href="#n"/>
<use x="159.033203" xlink:href="#ac"/>
</g>
</g>
<g clip-path="url(#a)">
<g transform="translate(1584.7 685.36) scale(.1 -.1)">
<use xlink:href="#c"/>
<use x="63.623047" xlink:href="#e"/>
<use x="95.410156" xlink:href="#n"/>
<use x="159.033203" xlink:href="#ab"/>
</g>
</g>
<defs>
<clipPath id="a">
<rect width="1672" height="880"/>
</clipPath>
</defs>
</svg>
