<?xml version="1.0" encoding="utf-8" standalone="no"?>
<!DOCTYPE svg PUBLIC "-//W3C//DTD SVG 1.1//EN"
  "http://www.w3.org/Graphics/SVG/1.1/DTD/svg11.dtd">
<!-- Created with matplotlib (https://matplotlib.org/) -->
<svg height="506.666667pt" version="1.1" viewBox="0 0 962.666667 506.666667" width="962.666667pt" xmlns="http://www.w3.org/2000/svg" xmlns:xlink="http://www.w3.org/1999/xlink">
 <defs>
  <style type="text/css">
*{stroke-linecap:butt;stroke-linejoin:round;}
  </style>
 </defs>
 <g id="figure_1">
  <g id="patch_1">
   <path d="M 0 506.666667 
L 962.666667 506.666667 
L 962.666667 0 
L 0 0 
z
" style="fill:#ffffff;"/>
  </g>
  <g id="axes_1">
   <g id="LineCollection_1">
    <path clip-path="url(#p9ce3ba6a86)" d="M 541.254294 24.135508 
L 541.254294 119.058069 
" style="fill:none;stroke:#000000;"/>
    <path clip-path="url(#p9ce3ba6a86)" d="M 541.254294 119.058069 
L 165.533675 211.86598 
" style="fill:none;stroke:#000000;"/>
    <path clip-path="url(#p9ce3ba6a86)" d="M 541.254294 119.058069 
L 529.917896 302.920567 
" style="fill:none;stroke:#000000;"/>
    <path clip-path="url(#p9ce3ba6a86)" d="M 541.254294 119.058069 
L 627.087022 392.725863 
" style="fill:none;stroke:#000000;"/>
    <path clip-path="url(#p9ce3ba6a86)" d="M 541.254294 119.058069 
L 699.963866 392.725863 
" style="fill:none;stroke:#000000;"/>
    <path clip-path="url(#p9ce3ba6a86)" d="M 541.254294 119.058069 
L 792.274536 302.920567 
" style="fill:none;stroke:#000000;"/>
    <path clip-path="url(#p9ce3ba6a86)" d="M 541.254294 119.058069 
L 432.74877 392.725863 
" style="fill:none;stroke:#000000;"/>
    <path clip-path="url(#p9ce3ba6a86)" d="M 165.533675 211.86598 
L 44.072268 392.725863 
" style="fill:none;stroke:#000000;"/>
    <path clip-path="url(#p9ce3ba6a86)" d="M 165.533675 211.86598 
L 116.949112 302.920567 
" style="fill:none;stroke:#000000;"/>
    <path clip-path="url(#p9ce3ba6a86)" d="M 165.533675 211.86598 
L 189.825956 392.725863 
" style="fill:none;stroke:#000000;"/>
    <path clip-path="url(#p9ce3ba6a86)" d="M 165.533675 211.86598 
L 311.287363 302.920567 
" style="fill:none;stroke:#000000;"/>
    <path clip-path="url(#p9ce3ba6a86)" d="M 529.917896 302.920567 
L 481.333333 392.725863 
" style="fill:none;stroke:#000000;"/>
    <path clip-path="url(#p9ce3ba6a86)" d="M 529.917896 302.920567 
L 529.917896 392.725863 
" style="fill:none;stroke:#000000;"/>
    <path clip-path="url(#p9ce3ba6a86)" d="M 529.917896 302.920567 
L 578.502459 392.725863 
" style="fill:none;stroke:#000000;"/>
    <path clip-path="url(#p9ce3ba6a86)" d="M 627.087022 392.725863 
L 627.087022 482.531159 
" style="fill:none;stroke:#000000;"/>
    <path clip-path="url(#p9ce3ba6a86)" d="M 699.963866 392.725863 
L 675.671585 482.531159 
" style="fill:none;stroke:#000000;"/>
    <path clip-path="url(#p9ce3ba6a86)" d="M 699.963866 392.725863 
L 724.256148 482.531159 
" style="fill:none;stroke:#000000;"/>
    <path clip-path="url(#p9ce3ba6a86)" d="M 792.274536 302.920567 
L 772.84071 392.725863 
" style="fill:none;stroke:#000000;"/>
    <path clip-path="url(#p9ce3ba6a86)" d="M 792.274536 302.920567 
L 821.425273 392.725863 
" style="fill:none;stroke:#000000;"/>
    <path clip-path="url(#p9ce3ba6a86)" d="M 792.274536 302.920567 
L 870.009836 392.725863 
" style="fill:none;stroke:#000000;"/>
    <path clip-path="url(#p9ce3ba6a86)" d="M 792.274536 302.920567 
L 578.502459 392.725863 
" style="fill:none;stroke:#000000;stroke-dasharray:3.7,1.6;stroke-dashoffset:0;"/>
    <path clip-path="url(#p9ce3ba6a86)" d="M 792.274536 302.920567 
L 918.594399 392.725863 
" style="fill:none;stroke:#000000;"/>
    <path clip-path="url(#p9ce3ba6a86)" d="M 772.84071 392.725863 
L 772.84071 482.531159 
" style="fill:none;stroke:#000000;"/>
    <path clip-path="url(#p9ce3ba6a86)" d="M 821.425273 392.725863 
L 821.425273 482.531159 
" style="fill:none;stroke:#000000;"/>
    <path clip-path="url(#p9ce3ba6a86)" d="M 870.009836 392.725863 
L 870.009836 482.531159 
" style="fill:none;stroke:#000000;"/>
    <path clip-path="url(#p9ce3ba6a86)" d="M 481.333333 392.725863 
L 481.333333 482.531159 
" style="fill:none;stroke:#000000;"/>
    <path clip-path="url(#p9ce3ba6a86)" d="M 529.917896 392.725863 
L 529.917896 482.531159 
" style="fill:none;stroke:#000000;"/>
    <path clip-path="url(#p9ce3ba6a86)" d="M 578.502459 392.725863 
L 578.502459 482.531159 
" style="fill:none;stroke:#000000;"/>
    <path clip-path="url(#p9ce3ba6a86)" d="M 44.072268 392.725863 
L 44.072268 482.531159 
" style="fill:none;stroke:#000000;"/>
    <path clip-path="url(#p9ce3ba6a86)" d="M 116.949112 302.920567 
L 92.65683 392.725863 
" style="fill:none;stroke:#000000;"/>
    <path clip-path="url(#p9ce3ba6a86)" d="M 116.949112 302.920567 
L 141.241393 392.725863 
" style="fill:none;stroke:#000000;"/>
    <path clip-path="url(#p9ce3ba6a86)" d="M 189.825956 392.725863 
L 189.825956 482.531159 
" style="fill:none;stroke:#000000;"/>
    <path clip-path="url(#p9ce3ba6a86)" d="M 311.287363 302.920567 
L 238.410519 392.725863 
" style="fill:none;stroke:#000000;"/>
    <path clip-path="url(#p9ce3ba6a86)" d="M 311.287363 302.920567 
L 286.995082 392.725863 
" style="fill:none;stroke:#000000;"/>
    <path clip-path="url(#p9ce3ba6a86)" d="M 311.287363 302.920567 
L 335.579645 392.725863 
" style="fill:none;stroke:#000000;"/>
    <path clip-path="url(#p9ce3ba6a86)" d="M 311.287363 302.920567 
L 384.164208 392.725863 
" style="fill:none;stroke:#000000;"/>
    <path clip-path="url(#p9ce3ba6a86)" d="M 238.410519 392.725863 
L 238.410519 482.531159 
" style="fill:none;stroke:#000000;"/>
    <path clip-path="url(#p9ce3ba6a86)" d="M 286.995082 392.725863 
L 286.995082 482.531159 
" style="fill:none;stroke:#000000;"/>
    <path clip-path="url(#p9ce3ba6a86)" d="M 335.579645 392.725863 
L 335.579645 482.531159 
" style="fill:none;stroke:#000000;"/>
    <path clip-path="url(#p9ce3ba6a86)" d="M 384.164208 392.725863 
L 384.164208 482.531159 
" style="fill:none;stroke:#000000;"/>
    <path clip-path="url(#p9ce3ba6a86)" d="M 92.65683 392.725863 
L 92.65683 482.531159 
" style="fill:none;stroke:#000000;"/>
    <path clip-path="url(#p9ce3ba6a86)" d="M 141.241393 392.725863 
L 141.241393 482.531159 
" style="fill:none;stroke:#000000;"/>
    <path clip-path="url(#p9ce3ba6a86)" d="M 432.74877 392.725863 
L 432.74877 482.531159 
" style="fill:none;stroke:#000000;"/>
    <path clip-path="url(#p9ce3ba6a86)" d="M 918.594399 392.725863 
L 918.594399 482.531159 
" style="fill:none;stroke:#000000;"/>
   </g>
   <g id="text_1">
    <g id="patch_2">
     <path clip-path="url(#p9ce3ba6a86)" d="M 534.983044 68.588663 
L 534.983044 74.604913 
Q 534.983044 77.004913 537.383044 77.004913 
L 545.125544 77.004913 
Q 547.525544 77.004913 547.525544 74.604913 
L 547.525544 68.588663 
Q 547.525544 66.188663 545.125544 66.188663 
L 537.383044 66.188663 
Q 534.983044 66.188663 534.983044 68.588663 
z
" style="fill:#ffffff;stroke:#ffffff;stroke-linejoin:miter;"/>
    </g>
    <g clip-path="url(#p9ce3ba6a86)">
     <!-- H -->
     <defs>
      <path d="M 9.8125 72.90625 
L 19.671875 72.90625 
L 19.671875 43.015625 
L 55.515625 43.015625 
L 55.515625 72.90625 
L 65.375 72.90625 
L 65.375 0 
L 55.515625 0 
L 55.515625 34.71875 
L 19.671875 34.71875 
L 19.671875 0 
L 9.8125 0 
z
" id="DejaVuSans-72"/>
     </defs>
     <g transform="translate(539.046794 68.588663)rotate(-270)scale(0.08 -0.08)">
      <use xlink:href="#DejaVuSans-72"/>
     </g>
    </g>
   </g>
   <g id="text_2">
    <g id="patch_3">
     <path clip-path="url(#p9ce3ba6a86)" d="M 352.241456 172.206453 
L 357.554273 170.894117 
Q 359.884244 170.318584 359.308711 167.988614 
L 357.452017 160.472033 
Q 356.876483 158.142062 354.546513 158.717596 
L 349.233695 160.029931 
Q 346.903725 160.605464 347.479258 162.935435 
L 349.335952 170.452016 
Q 349.911485 172.781986 352.241456 172.206453 
z
" style="fill:#ffffff;stroke:#ffffff;stroke-linejoin:miter;"/>
    </g>
    <g clip-path="url(#p9ce3ba6a86)">
     <!-- A -->
     <defs>
      <path d="M 34.1875 63.1875 
L 20.796875 26.90625 
L 47.609375 26.90625 
z
M 28.609375 72.90625 
L 39.796875 72.90625 
L 67.578125 0 
L 57.328125 0 
L 50.6875 18.703125 
L 17.828125 18.703125 
L 11.1875 0 
L 0.78125 0 
z
" id="DejaVuSans-65"/>
     </defs>
     <g transform="translate(351.266946 168.261279)rotate(-13.87506)scale(0.08 -0.08)">
      <use xlink:href="#DejaVuSans-65"/>
     </g>
    </g>
   </g>
   <g id="text_3">
    <g id="patch_4">
     <path clip-path="url(#p9ce3ba6a86)" d="M 541.67707 214.106314 
L 542.013848 208.644187 
Q 542.161544 206.248736 539.766093 206.10104 
L 532.038268 205.624566 
Q 529.642817 205.47687 529.495121 207.872321 
L 529.158343 213.334448 
Q 529.010646 215.729899 531.406098 215.877595 
L 539.133922 216.354069 
Q 541.529374 216.501766 541.67707 214.106314 
z
" style="fill:#ffffff;stroke:#ffffff;stroke-linejoin:miter;"/>
    </g>
    <g clip-path="url(#p9ce3ba6a86)">
     <!-- A -->
     <g transform="translate(537.621022 213.856231)rotate(-86.471784)scale(0.08 -0.08)">
      <use xlink:href="#DejaVuSans-65"/>
     </g>
    </g>
   </g>
   <g id="text_4">
    <g id="patch_5">
     <path clip-path="url(#p9ce3ba6a86)" d="M 577.367956 255.157879 
L 579.00568 260.379576 
Q 579.723915 262.669584 582.013923 261.95135 
L 589.401586 259.634295 
Q 591.691595 258.91606 590.97336 256.626052 
L 589.335636 251.404355 
Q 588.617401 249.114347 586.327393 249.832581 
L 578.93973 252.149636 
Q 576.649721 252.867871 577.367956 255.157879 
z
" style="fill:#ffffff;stroke:#ffffff;stroke-linejoin:miter;"/>
    </g>
    <g clip-path="url(#p9ce3ba6a86)">
     <!-- A -->
     <g transform="translate(581.245465 253.941744)rotate(-287.413428)scale(0.08 -0.08)">
      <use xlink:href="#DejaVuSans-65"/>
     </g>
    </g>
   </g>
   <g id="text_5">
    <g id="patch_6">
     <path clip-path="url(#p9ce3ba6a86)" d="M 613.974121 256.951696 
L 616.394081 261.124508 
Q 617.598103 263.200641 619.674237 261.996618 
L 626.371929 258.112391 
Q 628.448062 256.908368 627.24404 254.832235 
L 624.82408 250.659423 
Q 623.620057 248.58329 621.543924 249.787313 
L 614.846231 253.67154 
Q 612.770098 254.875563 613.974121 256.951696 
z
" style="fill:#ffffff;stroke:#ffffff;stroke-linejoin:miter;"/>
    </g>
    <g clip-path="url(#p9ce3ba6a86)">
     <!-- P -->
     <defs>
      <path d="M 19.671875 64.796875 
L 19.671875 37.40625 
L 32.078125 37.40625 
Q 38.96875 37.40625 42.71875 40.96875 
Q 46.484375 44.53125 46.484375 51.125 
Q 46.484375 57.671875 42.71875 61.234375 
Q 38.96875 64.796875 32.078125 64.796875 
z
M 9.8125 72.90625 
L 32.078125 72.90625 
Q 44.34375 72.90625 50.609375 67.359375 
Q 56.890625 61.8125 56.890625 51.125 
Q 56.890625 40.328125 50.609375 34.8125 
Q 44.34375 29.296875 32.078125 29.296875 
L 19.671875 29.296875 
L 19.671875 0 
L 9.8125 0 
z
" id="DejaVuSans-80"/>
     </defs>
     <g transform="translate(617.48949 254.91301)rotate(-300.110953)scale(0.08 -0.08)">
      <use xlink:href="#DejaVuSans-80"/>
     </g>
    </g>
   </g>
   <g id="text_6">
    <g id="patch_7">
     <path clip-path="url(#p9ce3ba6a86)" d="M 660.851253 214.431723 
L 665.26614 217.665455 
Q 667.202318 219.083629 668.620492 217.147452 
L 673.19558 210.901263 
Q 674.613754 208.965086 672.677577 207.546912 
L 668.262689 204.31318 
Q 666.326512 202.895006 664.908338 204.831183 
L 660.33325 211.077372 
Q 658.915076 213.013549 660.851253 214.431723 
z
" style="fill:#ffffff;stroke:#ffffff;stroke-linejoin:miter;"/>
    </g>
    <g clip-path="url(#p9ce3ba6a86)">
     <!-- A -->
     <g transform="translate(663.252546 211.153331)rotate(-323.778684)scale(0.08 -0.08)">
      <use xlink:href="#DejaVuSans-65"/>
     </g>
    </g>
   </g>
   <g id="text_7">
    <g id="patch_8">
     <path clip-path="url(#p9ce3ba6a86)" d="M 491.752281 260.92478 
L 493.910276 255.48198 
Q 494.794852 253.250943 492.563815 252.366367 
L 485.366397 249.512689 
Q 483.13536 248.628114 482.250784 250.859151 
L 480.092788 256.301952 
Q 479.208213 258.532989 481.43925 259.417564 
L 488.636668 262.271242 
Q 490.867705 263.155817 491.752281 260.92478 
z
" style="fill:#ffffff;stroke:#ffffff;stroke-linejoin:miter;"/>
    </g>
    <g clip-path="url(#p9ce3ba6a86)">
     <!-- U -->
     <defs>
      <path d="M 8.6875 72.90625 
L 18.609375 72.90625 
L 18.609375 28.609375 
Q 18.609375 16.890625 22.84375 11.734375 
Q 27.09375 6.59375 36.625 6.59375 
Q 46.09375 6.59375 50.34375 11.734375 
Q 54.59375 16.890625 54.59375 28.609375 
L 54.59375 72.90625 
L 64.5 72.90625 
L 64.5 27.390625 
Q 64.5 13.140625 57.4375 5.859375 
Q 50.390625 -1.421875 36.625 -1.421875 
Q 22.796875 -1.421875 15.734375 5.859375 
Q 8.6875 13.140625 8.6875 27.390625 
z
" id="DejaVuSans-85"/>
     </defs>
     <g transform="translate(487.974624 259.426991)rotate(-68.372354)scale(0.08 -0.08)">
      <use xlink:href="#DejaVuSans-85"/>
     </g>
    </g>
   </g>
   <g id="text_8">
    <g id="patch_9">
     <path clip-path="url(#p9ce3ba6a86)" d="M 108.459582 308.099601 
L 111.558692 303.484928 
Q 112.896739 301.492534 110.904345 300.154488 
L 104.476801 295.837894 
Q 102.484407 294.499848 101.146361 296.492241 
L 98.04725 301.106915 
Q 96.709204 303.099309 98.701597 304.437355 
L 105.129142 308.753948 
Q 107.121535 310.091995 108.459582 308.099601 
z
" style="fill:#ffffff;stroke:#ffffff;stroke-linejoin:miter;"/>
    </g>
    <g clip-path="url(#p9ce3ba6a86)">
     <!-- R -->
     <defs>
      <path d="M 44.390625 34.1875 
Q 47.5625 33.109375 50.5625 29.59375 
Q 53.5625 26.078125 56.59375 19.921875 
L 66.609375 0 
L 56 0 
L 46.6875 18.703125 
Q 43.0625 26.03125 39.671875 28.421875 
Q 36.28125 30.8125 30.421875 30.8125 
L 19.671875 30.8125 
L 19.671875 0 
L 9.8125 0 
L 9.8125 72.90625 
L 32.078125 72.90625 
Q 44.578125 72.90625 50.734375 67.671875 
Q 56.890625 62.453125 56.890625 51.90625 
Q 56.890625 45.015625 53.6875 40.46875 
Q 50.484375 35.9375 44.390625 34.1875 
z
M 19.671875 64.796875 
L 19.671875 38.921875 
L 32.078125 38.921875 
Q 39.203125 38.921875 42.84375 42.21875 
Q 46.484375 45.515625 46.484375 51.90625 
Q 46.484375 58.296875 42.84375 61.546875 
Q 39.203125 64.796875 32.078125 64.796875 
z
" id="DejaVuSans-82"/>
     </defs>
     <g transform="translate(105.086003 305.833982)rotate(-56.115584)scale(0.08 -0.08)">
      <use xlink:href="#DejaVuSans-82"/>
     </g>
    </g>
   </g>
   <g id="text_9">
    <g id="patch_10">
     <path clip-path="url(#p9ce3ba6a86)" d="M 145.578867 262.585895 
L 147.969715 258.105097 
Q 149.099527 255.987664 146.982093 254.857851 
L 140.151165 251.21303 
Q 138.033731 250.083218 136.903919 252.200652 
L 134.513072 256.68145 
Q 133.38326 258.798883 135.500693 259.928695 
L 142.331622 263.573516 
Q 144.449055 264.703328 145.578867 262.585895 
z
" style="fill:#ffffff;stroke:#ffffff;stroke-linejoin:miter;"/>
    </g>
    <g clip-path="url(#p9ce3ba6a86)">
     <!-- S -->
     <defs>
      <path d="M 53.515625 70.515625 
L 53.515625 60.890625 
Q 47.90625 63.578125 42.921875 64.890625 
Q 37.9375 66.21875 33.296875 66.21875 
Q 25.25 66.21875 20.875 63.09375 
Q 16.5 59.96875 16.5 54.203125 
Q 16.5 49.359375 19.40625 46.890625 
Q 22.3125 44.4375 30.421875 42.921875 
L 36.375 41.703125 
Q 47.40625 39.59375 52.65625 34.296875 
Q 57.90625 29 57.90625 20.125 
Q 57.90625 9.515625 50.796875 4.046875 
Q 43.703125 -1.421875 29.984375 -1.421875 
Q 24.8125 -1.421875 18.96875 -0.25 
Q 13.140625 0.921875 6.890625 3.21875 
L 6.890625 13.375 
Q 12.890625 10.015625 18.65625 8.296875 
Q 24.421875 6.59375 29.984375 6.59375 
Q 38.421875 6.59375 43.015625 9.90625 
Q 47.609375 13.234375 47.609375 19.390625 
Q 47.609375 24.75 44.3125 27.78125 
Q 41.015625 30.8125 33.5 32.328125 
L 27.484375 33.5 
Q 16.453125 35.6875 11.515625 40.375 
Q 6.59375 45.0625 6.59375 53.421875 
Q 6.59375 63.09375 13.40625 68.65625 
Q 20.21875 74.21875 32.171875 74.21875 
Q 37.3125 74.21875 42.625 73.28125 
Q 47.953125 72.359375 53.515625 70.515625 
z
" id="DejaVuSans-83"/>
     </defs>
     <g transform="translate(141.993567 260.672864)rotate(-61.916679)scale(0.08 -0.08)">
      <use xlink:href="#DejaVuSans-83"/>
     </g>
    </g>
   </g>
   <g id="text_10">
    <g id="patch_11">
     <path clip-path="url(#p9ce3ba6a86)" d="M 171.05437 300.078163 
L 171.87439 306.183338 
Q 172.193878 308.561978 174.572518 308.24249 
L 182.246109 307.211808 
Q 184.624749 306.89232 184.305261 304.51368 
L 183.485241 298.408504 
Q 183.165753 296.029865 180.787113 296.349353 
L 173.113522 297.380035 
Q 170.734882 297.699523 171.05437 300.078163 
z
" style="fill:#ffffff;stroke:#ffffff;stroke-linejoin:miter;"/>
    </g>
    <g clip-path="url(#p9ce3ba6a86)">
     <!-- D -->
     <defs>
      <path d="M 19.671875 64.796875 
L 19.671875 8.109375 
L 31.59375 8.109375 
Q 46.6875 8.109375 53.6875 14.9375 
Q 60.6875 21.78125 60.6875 36.53125 
Q 60.6875 51.171875 53.6875 57.984375 
Q 46.6875 64.796875 31.59375 64.796875 
z
M 9.8125 72.90625 
L 30.078125 72.90625 
Q 51.265625 72.90625 61.171875 64.09375 
Q 71.09375 55.28125 71.09375 36.53125 
Q 71.09375 17.671875 61.125 8.828125 
Q 51.171875 0 30.078125 0 
L 9.8125 0 
z
" id="DejaVuSans-68"/>
     </defs>
     <g transform="translate(175.081953 299.537196)rotate(-277.649926)scale(0.08 -0.08)">
      <use xlink:href="#DejaVuSans-68"/>
     </g>
    </g>
   </g>
   <g id="text_11">
    <g id="patch_12">
     <path clip-path="url(#p9ce3ba6a86)" d="M 232.767219 261.262228 
L 237.408483 264.161697 
Q 239.44394 265.433278 240.715521 263.397822 
L 244.817694 256.831356 
Q 246.089275 254.7959 244.053819 253.524319 
L 239.412555 250.624849 
Q 237.377098 249.353268 236.105517 251.388724 
L 232.003344 257.955191 
Q 230.731763 259.990647 232.767219 261.262228 
z
" style="fill:#ffffff;stroke:#ffffff;stroke-linejoin:miter;"/>
    </g>
    <g clip-path="url(#p9ce3ba6a86)">
     <!-- A -->
     <g transform="translate(234.920297 257.815734)rotate(-328.006341)scale(0.08 -0.08)">
      <use xlink:href="#DejaVuSans-65"/>
     </g>
    </g>
   </g>
   <g id="text_12">
    <g id="patch_13">
     <path clip-path="url(#p9ce3ba6a86)" d="M 509.818909 353.251823 
L 512.463924 348.362692 
Q 513.605913 346.251801 511.495022 345.109811 
L 504.685201 341.425706 
Q 502.57431 340.283716 501.43232 342.394607 
L 498.787306 347.283738 
Q 497.645316 349.394629 499.756207 350.536618 
L 506.566029 354.220724 
Q 508.67692 355.362713 509.818909 353.251823 
z
" style="fill:#ffffff;stroke:#ffffff;stroke-linejoin:miter;"/>
    </g>
    <g clip-path="url(#p9ce3ba6a86)">
     <!-- R -->
     <g transform="translate(506.244687 351.318173)rotate(-61.586662)scale(0.08 -0.08)">
      <use xlink:href="#DejaVuSans-82"/>
     </g>
    </g>
   </g>
   <g id="text_13">
    <g id="patch_14">
     <path clip-path="url(#p9ce3ba6a86)" d="M 523.646646 345.295715 
L 523.646646 350.350715 
Q 523.646646 352.750715 526.046646 352.750715 
L 533.789146 352.750715 
Q 536.189146 352.750715 536.189146 350.350715 
L 536.189146 345.295715 
Q 536.189146 342.895715 533.789146 342.895715 
L 526.046646 342.895715 
Q 523.646646 342.895715 523.646646 345.295715 
z
" style="fill:#ffffff;stroke:#ffffff;stroke-linejoin:miter;"/>
    </g>
    <g clip-path="url(#p9ce3ba6a86)">
     <!-- E -->
     <defs>
      <path d="M 9.8125 72.90625 
L 55.90625 72.90625 
L 55.90625 64.59375 
L 19.671875 64.59375 
L 19.671875 43.015625 
L 54.390625 43.015625 
L 54.390625 34.71875 
L 19.671875 34.71875 
L 19.671875 8.296875 
L 56.78125 8.296875 
L 56.78125 0 
L 9.8125 0 
z
" id="DejaVuSans-69"/>
     </defs>
     <g transform="translate(527.710396 345.295715)rotate(-270)scale(0.08 -0.08)">
      <use xlink:href="#DejaVuSans-69"/>
     </g>
    </g>
   </g>
   <g id="text_14">
    <g id="patch_15">
     <path clip-path="url(#p9ce3ba6a86)" d="M 547.365326 348.350598 
L 550.023426 353.263916 
Q 551.165415 355.374807 553.276306 354.232817 
L 560.086128 350.548712 
Q 562.197019 349.406722 561.055029 347.295831 
L 558.396929 342.382513 
Q 557.25494 340.271622 555.144049 341.413612 
L 548.334228 345.097718 
Q 546.223337 346.239707 547.365326 348.350598 
z
" style="fill:#ffffff;stroke:#ffffff;stroke-linejoin:miter;"/>
    </g>
    <g clip-path="url(#p9ce3ba6a86)">
     <!-- C -->
     <defs>
      <path d="M 64.40625 67.28125 
L 64.40625 56.890625 
Q 59.421875 61.53125 53.78125 63.8125 
Q 48.140625 66.109375 41.796875 66.109375 
Q 29.296875 66.109375 22.65625 58.46875 
Q 16.015625 50.828125 16.015625 36.375 
Q 16.015625 21.96875 22.65625 14.328125 
Q 29.296875 6.6875 41.796875 6.6875 
Q 48.140625 6.6875 53.78125 8.984375 
Q 59.421875 11.28125 64.40625 15.921875 
L 64.40625 5.609375 
Q 59.234375 2.09375 53.4375 0.328125 
Q 47.65625 -1.421875 41.21875 -1.421875 
Q 24.65625 -1.421875 15.125 8.703125 
Q 5.609375 18.84375 5.609375 36.375 
Q 5.609375 53.953125 15.125 64.078125 
Q 24.65625 74.21875 41.21875 74.21875 
Q 47.75 74.21875 53.53125 72.484375 
Q 59.328125 70.75 64.40625 67.28125 
z
" id="DejaVuSans-67"/>
     </defs>
     <g transform="translate(550.939548 346.416948)rotate(-298.413338)scale(0.08 -0.08)">
      <use xlink:href="#DejaVuSans-67"/>
     </g>
    </g>
   </g>
   <g id="text_15">
    <g id="patch_16">
     <path clip-path="url(#p9ce3ba6a86)" d="M 620.815772 419.986011 
L 620.815772 455.271011 
Q 620.815772 457.671011 623.215772 457.671011 
L 630.958272 457.671011 
Q 633.358272 457.671011 633.358272 455.271011 
L 633.358272 419.986011 
Q 633.358272 417.586011 630.958272 417.586011 
L 623.215772 417.586011 
Q 620.815772 417.586011 620.815772 419.986011 
z
" style="fill:#ffffff;stroke:#ffffff;stroke-linejoin:miter;"/>
    </g>
    <g clip-path="url(#p9ce3ba6a86)">
     <!-- Terminal -->
     <defs>
      <path d="M -0.296875 72.90625 
L 61.375 72.90625 
L 61.375 64.59375 
L 35.5 64.59375 
L 35.5 0 
L 25.59375 0 
L 25.59375 64.59375 
L -0.296875 64.59375 
z
" id="DejaVuSans-84"/>
      <path d="M 56.203125 29.59375 
L 56.203125 25.203125 
L 14.890625 25.203125 
Q 15.484375 15.921875 20.484375 11.0625 
Q 25.484375 6.203125 34.421875 6.203125 
Q 39.59375 6.203125 44.453125 7.46875 
Q 49.3125 8.734375 54.109375 11.28125 
L 54.109375 2.78125 
Q 49.265625 0.734375 44.1875 -0.34375 
Q 39.109375 -1.421875 33.890625 -1.421875 
Q 20.796875 -1.421875 13.15625 6.1875 
Q 5.515625 13.8125 5.515625 26.8125 
Q 5.515625 40.234375 12.765625 48.109375 
Q 20.015625 56 32.328125 56 
Q 43.359375 56 49.78125 48.890625 
Q 56.203125 41.796875 56.203125 29.59375 
z
M 47.21875 32.234375 
Q 47.125 39.59375 43.09375 43.984375 
Q 39.0625 48.390625 32.421875 48.390625 
Q 24.90625 48.390625 20.390625 44.140625 
Q 15.875 39.890625 15.1875 32.171875 
z
" id="DejaVuSans-101"/>
      <path d="M 41.109375 46.296875 
Q 39.59375 47.171875 37.8125 47.578125 
Q 36.03125 48 33.890625 48 
Q 26.265625 48 22.1875 43.046875 
Q 18.109375 38.09375 18.109375 28.8125 
L 18.109375 0 
L 9.078125 0 
L 9.078125 54.6875 
L 18.109375 54.6875 
L 18.109375 46.1875 
Q 20.953125 51.171875 25.484375 53.578125 
Q 30.03125 56 36.53125 56 
Q 37.453125 56 38.578125 55.875 
Q 39.703125 55.765625 41.0625 55.515625 
z
" id="DejaVuSans-114"/>
      <path d="M 52 44.1875 
Q 55.375 50.25 60.0625 53.125 
Q 64.75 56 71.09375 56 
Q 79.640625 56 84.28125 50.015625 
Q 88.921875 44.046875 88.921875 33.015625 
L 88.921875 0 
L 79.890625 0 
L 79.890625 32.71875 
Q 79.890625 40.578125 77.09375 44.375 
Q 74.3125 48.1875 68.609375 48.1875 
Q 61.625 48.1875 57.5625 43.546875 
Q 53.515625 38.921875 53.515625 30.90625 
L 53.515625 0 
L 44.484375 0 
L 44.484375 32.71875 
Q 44.484375 40.625 41.703125 44.40625 
Q 38.921875 48.1875 33.109375 48.1875 
Q 26.21875 48.1875 22.15625 43.53125 
Q 18.109375 38.875 18.109375 30.90625 
L 18.109375 0 
L 9.078125 0 
L 9.078125 54.6875 
L 18.109375 54.6875 
L 18.109375 46.1875 
Q 21.1875 51.21875 25.484375 53.609375 
Q 29.78125 56 35.6875 56 
Q 41.65625 56 45.828125 52.96875 
Q 50 49.953125 52 44.1875 
z
" id="DejaVuSans-109"/>
      <path d="M 9.421875 54.6875 
L 18.40625 54.6875 
L 18.40625 0 
L 9.421875 0 
z
M 9.421875 75.984375 
L 18.40625 75.984375 
L 18.40625 64.59375 
L 9.421875 64.59375 
z
" id="DejaVuSans-105"/>
      <path d="M 54.890625 33.015625 
L 54.890625 0 
L 45.90625 0 
L 45.90625 32.71875 
Q 45.90625 40.484375 42.875 44.328125 
Q 39.84375 48.1875 33.796875 48.1875 
Q 26.515625 48.1875 22.3125 43.546875 
Q 18.109375 38.921875 18.109375 30.90625 
L 18.109375 0 
L 9.078125 0 
L 9.078125 54.6875 
L 18.109375 54.6875 
L 18.109375 46.1875 
Q 21.34375 51.125 25.703125 53.5625 
Q 30.078125 56 35.796875 56 
Q 45.21875 56 50.046875 50.171875 
Q 54.890625 44.34375 54.890625 33.015625 
z
" id="DejaVuSans-110"/>
      <path d="M 34.28125 27.484375 
Q 23.390625 27.484375 19.1875 25 
Q 14.984375 22.515625 14.984375 16.5 
Q 14.984375 11.71875 18.140625 8.90625 
Q 21.296875 6.109375 26.703125 6.109375 
Q 34.1875 6.109375 38.703125 11.40625 
Q 43.21875 16.703125 43.21875 25.484375 
L 43.21875 27.484375 
z
M 52.203125 31.203125 
L 52.203125 0 
L 43.21875 0 
L 43.21875 8.296875 
Q 40.140625 3.328125 35.546875 0.953125 
Q 30.953125 -1.421875 24.3125 -1.421875 
Q 15.921875 -1.421875 10.953125 3.296875 
Q 6 8.015625 6 15.921875 
Q 6 25.140625 12.171875 29.828125 
Q 18.359375 34.515625 30.609375 34.515625 
L 43.21875 34.515625 
L 43.21875 35.40625 
Q 43.21875 41.609375 39.140625 45 
Q 35.0625 48.390625 27.6875 48.390625 
Q 23 48.390625 18.546875 47.265625 
Q 14.109375 46.140625 10.015625 43.890625 
L 10.015625 52.203125 
Q 14.9375 54.109375 19.578125 55.046875 
Q 24.21875 56 28.609375 56 
Q 40.484375 56 46.34375 49.84375 
Q 52.203125 43.703125 52.203125 31.203125 
z
" id="DejaVuSans-97"/>
      <path d="M 9.421875 75.984375 
L 18.40625 75.984375 
L 18.40625 0 
L 9.421875 0 
z
" id="DejaVuSans-108"/>
     </defs>
     <g transform="translate(624.879522 419.986011)rotate(-270)scale(0.08 -0.08)">
      <use xlink:href="#DejaVuSans-84"/>
      <use x="60.818359" xlink:href="#DejaVuSans-101"/>
      <use x="122.341797" xlink:href="#DejaVuSans-114"/>
      <use x="163.439453" xlink:href="#DejaVuSans-109"/>
      <use x="260.851562" xlink:href="#DejaVuSans-105"/>
      <use x="288.634766" xlink:href="#DejaVuSans-110"/>
      <use x="352.013672" xlink:href="#DejaVuSans-97"/>
      <use x="413.292969" xlink:href="#DejaVuSans-108"/>
     </g>
    </g>
   </g>
   <g id="text_16">
    <g id="patch_17">
     <path clip-path="url(#p9ce3ba6a86)" d="M 689.264687 456.29647 
L 698.478136 422.235589 
Q 699.104812 419.918851 696.788074 419.292174 
L 689.314179 417.27049 
Q 686.997441 416.643814 686.370764 418.960552 
L 677.157315 453.021433 
Q 676.530639 455.338171 678.847377 455.964847 
L 686.321272 457.986532 
Q 688.63801 458.613208 689.264687 456.29647 
z
" style="fill:#ffffff;stroke:#ffffff;stroke-linejoin:miter;"/>
    </g>
    <g clip-path="url(#p9ce3ba6a86)">
     <!-- Terminal -->
     <g transform="translate(685.341918 455.235363)rotate(-74.863757)scale(0.08 -0.08)">
      <use xlink:href="#DejaVuSans-84"/>
      <use x="60.818359" xlink:href="#DejaVuSans-101"/>
      <use x="122.341797" xlink:href="#DejaVuSans-114"/>
      <use x="163.439453" xlink:href="#DejaVuSans-109"/>
      <use x="260.851562" xlink:href="#DejaVuSans-105"/>
      <use x="288.634766" xlink:href="#DejaVuSans-110"/>
      <use x="352.013672" xlink:href="#DejaVuSans-97"/>
      <use x="413.292969" xlink:href="#DejaVuSans-108"/>
     </g>
    </g>
   </g>
   <g id="text_17">
    <g id="patch_18">
     <path clip-path="url(#p9ce3ba6a86)" d="M 701.449597 422.235589 
L 710.663046 456.29647 
Q 711.289722 458.613208 713.60646 457.986532 
L 721.080355 455.964847 
Q 723.397093 455.338171 722.770417 453.021433 
L 713.556968 418.960552 
Q 712.930292 416.643814 710.613553 417.27049 
L 703.139659 419.292174 
Q 700.82292 419.918851 701.449597 422.235589 
z
" style="fill:#ffffff;stroke:#ffffff;stroke-linejoin:miter;"/>
    </g>
    <g clip-path="url(#p9ce3ba6a86)">
     <!-- Terminal -->
     <g transform="translate(705.372366 421.174482)rotate(-285.136243)scale(0.08 -0.08)">
      <use xlink:href="#DejaVuSans-84"/>
      <use x="60.818359" xlink:href="#DejaVuSans-101"/>
      <use x="122.341797" xlink:href="#DejaVuSans-114"/>
      <use x="163.439453" xlink:href="#DejaVuSans-109"/>
      <use x="260.851562" xlink:href="#DejaVuSans-105"/>
      <use x="288.634766" xlink:href="#DejaVuSans-110"/>
      <use x="352.013672" xlink:href="#DejaVuSans-97"/>
      <use x="413.292969" xlink:href="#DejaVuSans-108"/>
     </g>
    </g>
   </g>
   <g id="text_18">
    <g id="patch_19">
     <path clip-path="url(#p9ce3ba6a86)" d="M 788.099151 351.866106 
L 789.274848 346.433111 
Q 789.782458 344.087406 787.436753 343.579797 
L 779.86941 341.942227 
Q 777.523705 341.434618 777.016096 343.780323 
L 775.840398 349.213318 
Q 775.332788 351.559023 777.678493 352.066633 
L 785.245836 353.704202 
Q 787.591541 354.211812 788.099151 351.866106 
z
" style="fill:#ffffff;stroke:#ffffff;stroke-linejoin:miter;"/>
    </g>
    <g clip-path="url(#p9ce3ba6a86)">
     <!-- R -->
     <g transform="translate(784.127334 351.006607)rotate(-77.789497)scale(0.08 -0.08)">
      <use xlink:href="#DejaVuSans-82"/>
     </g>
    </g>
   </g>
   <g id="text_19">
    <g id="patch_20">
     <path clip-path="url(#p9ce3ba6a86)" d="M 800.104686 347.355387 
L 801.665374 352.16343 
Q 802.406353 354.446181 804.689103 353.705202 
L 812.053352 351.314772 
Q 814.336102 350.573793 813.595123 348.291042 
L 812.034435 343.482999 
Q 811.293456 341.200248 809.010706 341.941228 
L 801.646457 344.331658 
Q 799.363707 345.072637 800.104686 347.355387 
z
" style="fill:#ffffff;stroke:#ffffff;stroke-linejoin:miter;"/>
    </g>
    <g clip-path="url(#p9ce3ba6a86)">
     <!-- E -->
     <g transform="translate(803.969906 346.10074)rotate(-287.983395)scale(0.08 -0.08)">
      <use xlink:href="#DejaVuSans-69"/>
     </g>
    </g>
   </g>
   <g id="text_20">
    <g id="patch_21">
     <path clip-path="url(#p9ce3ba6a86)" d="M 824.746394 350.016539 
L 828.054735 353.838568 
Q 829.62546 355.653181 831.440074 354.082455 
L 837.294091 349.015229 
Q 839.108704 347.444503 837.537978 345.62989 
L 834.229637 341.807861 
Q 832.658911 339.993248 830.844298 341.563974 
L 824.990281 346.631201 
Q 823.175668 348.201926 824.746394 350.016539 
z
" style="fill:#ffffff;stroke:#ffffff;stroke-linejoin:miter;"/>
    </g>
    <g clip-path="url(#p9ce3ba6a86)">
     <!-- E -->
     <g transform="translate(827.818949 347.356941)rotate(-310.879404)scale(0.08 -0.08)">
      <use xlink:href="#DejaVuSans-69"/>
     </g>
    </g>
   </g>
   <g id="text_21">
    <g id="patch_22">
     <path clip-path="url(#p9ce3ba6a86)" d="M 685.242292 354.686796 
L 690.392533 352.523188 
Q 692.605213 351.593645 691.67567 349.380966 
L 688.676925 342.24277 
Q 687.747382 340.03009 685.534703 340.959633 
L 680.384461 343.123241 
Q 678.171782 344.052784 679.101325 346.265464 
L 682.100069 353.403659 
Q 683.029612 355.616339 685.242292 354.686796 
z
" style="fill:#ffffff;stroke:#ffffff;stroke-linejoin:miter;"/>
    </g>
    <g clip-path="url(#p9ce3ba6a86)">
     <!-- C -->
     <g transform="translate(683.668362 350.940223)rotate(-22.787196)scale(0.08 -0.08)">
      <use xlink:href="#DejaVuSans-67"/>
     </g>
    </g>
   </g>
   <g id="text_22">
    <g id="patch_23">
     <path clip-path="url(#p9ce3ba6a86)" d="M 849.414745 351.238149 
L 854.186704 354.630705 
Q 856.142759 356.021334 857.533388 354.065279 
L 862.019615 347.754964 
Q 863.410245 345.79891 861.45419 344.40828 
L 856.682231 341.015725 
Q 854.726176 339.625096 853.335547 341.58115 
L 848.849319 347.891465 
Q 847.45869 349.84752 849.414745 351.238149 
z
" style="fill:#ffffff;stroke:#ffffff;stroke-linejoin:miter;"/>
    </g>
    <g clip-path="url(#p9ce3ba6a86)">
     <!-- U -->
     <g transform="translate(851.769399 347.9261)rotate(-324.589622)scale(0.08 -0.08)">
      <use xlink:href="#DejaVuSans-85"/>
     </g>
    </g>
   </g>
   <g id="text_23">
    <g id="patch_24">
     <path clip-path="url(#p9ce3ba6a86)" d="M 766.56946 419.986011 
L 766.56946 455.271011 
Q 766.56946 457.671011 768.96946 457.671011 
L 776.71196 457.671011 
Q 779.11196 457.671011 779.11196 455.271011 
L 779.11196 419.986011 
Q 779.11196 417.586011 776.71196 417.586011 
L 768.96946 417.586011 
Q 766.56946 417.586011 766.56946 419.986011 
z
" style="fill:#ffffff;stroke:#ffffff;stroke-linejoin:miter;"/>
    </g>
    <g clip-path="url(#p9ce3ba6a86)">
     <!-- Terminal -->
     <g transform="translate(770.63321 419.986011)rotate(-270)scale(0.08 -0.08)">
      <use xlink:href="#DejaVuSans-84"/>
      <use x="60.818359" xlink:href="#DejaVuSans-101"/>
      <use x="122.341797" xlink:href="#DejaVuSans-114"/>
      <use x="163.439453" xlink:href="#DejaVuSans-109"/>
      <use x="260.851562" xlink:href="#DejaVuSans-105"/>
      <use x="288.634766" xlink:href="#DejaVuSans-110"/>
      <use x="352.013672" xlink:href="#DejaVuSans-97"/>
      <use x="413.292969" xlink:href="#DejaVuSans-108"/>
     </g>
    </g>
   </g>
   <g id="text_24">
    <g id="patch_25">
     <path clip-path="url(#p9ce3ba6a86)" d="M 815.154023 419.986011 
L 815.154023 455.271011 
Q 815.154023 457.671011 817.554023 457.671011 
L 825.296523 457.671011 
Q 827.696523 457.671011 827.696523 455.271011 
L 827.696523 419.986011 
Q 827.696523 417.586011 825.296523 417.586011 
L 817.554023 417.586011 
Q 815.154023 417.586011 815.154023 419.986011 
z
" style="fill:#ffffff;stroke:#ffffff;stroke-linejoin:miter;"/>
    </g>
    <g clip-path="url(#p9ce3ba6a86)">
     <!-- Terminal -->
     <g transform="translate(819.217773 419.986011)rotate(-270)scale(0.08 -0.08)">
      <use xlink:href="#DejaVuSans-84"/>
      <use x="60.818359" xlink:href="#DejaVuSans-101"/>
      <use x="122.341797" xlink:href="#DejaVuSans-114"/>
      <use x="163.439453" xlink:href="#DejaVuSans-109"/>
      <use x="260.851562" xlink:href="#DejaVuSans-105"/>
      <use x="288.634766" xlink:href="#DejaVuSans-110"/>
      <use x="352.013672" xlink:href="#DejaVuSans-97"/>
      <use x="413.292969" xlink:href="#DejaVuSans-108"/>
     </g>
    </g>
   </g>
   <g id="text_25">
    <g id="patch_26">
     <path clip-path="url(#p9ce3ba6a86)" d="M 863.738586 419.986011 
L 863.738586 455.271011 
Q 863.738586 457.671011 866.138586 457.671011 
L 873.881086 457.671011 
Q 876.281086 457.671011 876.281086 455.271011 
L 876.281086 419.986011 
Q 876.281086 417.586011 873.881086 417.586011 
L 866.138586 417.586011 
Q 863.738586 417.586011 863.738586 419.986011 
z
" style="fill:#ffffff;stroke:#ffffff;stroke-linejoin:miter;"/>
    </g>
    <g clip-path="url(#p9ce3ba6a86)">
     <!-- Terminal -->
     <g transform="translate(867.802336 419.986011)rotate(-270)scale(0.08 -0.08)">
      <use xlink:href="#DejaVuSans-84"/>
      <use x="60.818359" xlink:href="#DejaVuSans-101"/>
      <use x="122.341797" xlink:href="#DejaVuSans-114"/>
      <use x="163.439453" xlink:href="#DejaVuSans-109"/>
      <use x="260.851562" xlink:href="#DejaVuSans-105"/>
      <use x="288.634766" xlink:href="#DejaVuSans-110"/>
      <use x="352.013672" xlink:href="#DejaVuSans-97"/>
      <use x="413.292969" xlink:href="#DejaVuSans-108"/>
     </g>
    </g>
   </g>
   <g id="text_26">
    <g id="patch_27">
     <path clip-path="url(#p9ce3ba6a86)" d="M 475.062083 419.986011 
L 475.062083 455.271011 
Q 475.062083 457.671011 477.462083 457.671011 
L 485.204583 457.671011 
Q 487.604583 457.671011 487.604583 455.271011 
L 487.604583 419.986011 
Q 487.604583 417.586011 485.204583 417.586011 
L 477.462083 417.586011 
Q 475.062083 417.586011 475.062083 419.986011 
z
" style="fill:#ffffff;stroke:#ffffff;stroke-linejoin:miter;"/>
    </g>
    <g clip-path="url(#p9ce3ba6a86)">
     <!-- Terminal -->
     <g transform="translate(479.125833 419.986011)rotate(-270)scale(0.08 -0.08)">
      <use xlink:href="#DejaVuSans-84"/>
      <use x="60.818359" xlink:href="#DejaVuSans-101"/>
      <use x="122.341797" xlink:href="#DejaVuSans-114"/>
      <use x="163.439453" xlink:href="#DejaVuSans-109"/>
      <use x="260.851562" xlink:href="#DejaVuSans-105"/>
      <use x="288.634766" xlink:href="#DejaVuSans-110"/>
      <use x="352.013672" xlink:href="#DejaVuSans-97"/>
      <use x="413.292969" xlink:href="#DejaVuSans-108"/>
     </g>
    </g>
   </g>
   <g id="text_27">
    <g id="patch_28">
     <path clip-path="url(#p9ce3ba6a86)" d="M 523.646646 419.986011 
L 523.646646 455.271011 
Q 523.646646 457.671011 526.046646 457.671011 
L 533.789146 457.671011 
Q 536.189146 457.671011 536.189146 455.271011 
L 536.189146 419.986011 
Q 536.189146 417.586011 533.789146 417.586011 
L 526.046646 417.586011 
Q 523.646646 417.586011 523.646646 419.986011 
z
" style="fill:#ffffff;stroke:#ffffff;stroke-linejoin:miter;"/>
    </g>
    <g clip-path="url(#p9ce3ba6a86)">
     <!-- Terminal -->
     <g transform="translate(527.710396 419.986011)rotate(-270)scale(0.08 -0.08)">
      <use xlink:href="#DejaVuSans-84"/>
      <use x="60.818359" xlink:href="#DejaVuSans-101"/>
      <use x="122.341797" xlink:href="#DejaVuSans-114"/>
      <use x="163.439453" xlink:href="#DejaVuSans-109"/>
      <use x="260.851562" xlink:href="#DejaVuSans-105"/>
      <use x="288.634766" xlink:href="#DejaVuSans-110"/>
      <use x="352.013672" xlink:href="#DejaVuSans-97"/>
      <use x="413.292969" xlink:href="#DejaVuSans-108"/>
     </g>
    </g>
   </g>
   <g id="text_28">
    <g id="patch_29">
     <path clip-path="url(#p9ce3ba6a86)" d="M 572.231209 419.986011 
L 572.231209 455.271011 
Q 572.231209 457.671011 574.631209 457.671011 
L 582.373709 457.671011 
Q 584.773709 457.671011 584.773709 455.271011 
L 584.773709 419.986011 
Q 584.773709 417.586011 582.373709 417.586011 
L 574.631209 417.586011 
Q 572.231209 417.586011 572.231209 419.986011 
z
" style="fill:#ffffff;stroke:#ffffff;stroke-linejoin:miter;"/>
    </g>
    <g clip-path="url(#p9ce3ba6a86)">
     <!-- Terminal -->
     <g transform="translate(576.294959 419.986011)rotate(-270)scale(0.08 -0.08)">
      <use xlink:href="#DejaVuSans-84"/>
      <use x="60.818359" xlink:href="#DejaVuSans-101"/>
      <use x="122.341797" xlink:href="#DejaVuSans-114"/>
      <use x="163.439453" xlink:href="#DejaVuSans-109"/>
      <use x="260.851562" xlink:href="#DejaVuSans-105"/>
      <use x="288.634766" xlink:href="#DejaVuSans-110"/>
      <use x="352.013672" xlink:href="#DejaVuSans-97"/>
      <use x="413.292969" xlink:href="#DejaVuSans-108"/>
     </g>
    </g>
   </g>
   <g id="text_29">
    <g id="patch_30">
     <path clip-path="url(#p9ce3ba6a86)" d="M 37.801018 419.986011 
L 37.801018 455.271011 
Q 37.801018 457.671011 40.201018 457.671011 
L 47.943518 457.671011 
Q 50.343518 457.671011 50.343518 455.271011 
L 50.343518 419.986011 
Q 50.343518 417.586011 47.943518 417.586011 
L 40.201018 417.586011 
Q 37.801018 417.586011 37.801018 419.986011 
z
" style="fill:#ffffff;stroke:#ffffff;stroke-linejoin:miter;"/>
    </g>
    <g clip-path="url(#p9ce3ba6a86)">
     <!-- Terminal -->
     <g transform="translate(41.864768 419.986011)rotate(-270)scale(0.08 -0.08)">
      <use xlink:href="#DejaVuSans-84"/>
      <use x="60.818359" xlink:href="#DejaVuSans-101"/>
      <use x="122.341797" xlink:href="#DejaVuSans-114"/>
      <use x="163.439453" xlink:href="#DejaVuSans-109"/>
      <use x="260.851562" xlink:href="#DejaVuSans-105"/>
      <use x="288.634766" xlink:href="#DejaVuSans-110"/>
      <use x="352.013672" xlink:href="#DejaVuSans-97"/>
      <use x="413.292969" xlink:href="#DejaVuSans-108"/>
     </g>
    </g>
   </g>
   <g id="text_30">
    <g id="patch_31">
     <path clip-path="url(#p9ce3ba6a86)" d="M 110.196688 351.900548 
L 111.516625 347.020918 
Q 112.143302 344.70418 109.826563 344.077503 
L 102.352669 342.055819 
Q 100.035931 341.429143 99.409254 343.745881 
L 98.089317 348.625511 
Q 97.462641 350.94225 99.779379 351.568926 
L 107.253273 353.59061 
Q 109.570012 354.217287 110.196688 351.900548 
z
" style="fill:#ffffff;stroke:#ffffff;stroke-linejoin:miter;"/>
    </g>
    <g clip-path="url(#p9ce3ba6a86)">
     <!-- E -->
     <g transform="translate(106.273919 350.839441)rotate(-74.863757)scale(0.08 -0.08)">
      <use xlink:href="#DejaVuSans-69"/>
     </g>
    </g>
   </g>
   <g id="text_31">
    <g id="patch_32">
     <path clip-path="url(#p9ce3ba6a86)" d="M 122.31224 346.764508 
L 123.770894 352.156958 
Q 124.397571 354.473696 126.714309 353.84702 
L 134.188204 351.825336 
Q 136.504942 351.198659 135.878266 348.881921 
L 134.419611 343.489471 
Q 133.792935 341.172733 131.476196 341.799409 
L 124.002302 343.821093 
Q 121.685563 344.44777 122.31224 346.764508 
z
" style="fill:#ffffff;stroke:#ffffff;stroke-linejoin:miter;"/>
    </g>
    <g clip-path="url(#p9ce3ba6a86)">
     <!-- C -->
     <g transform="translate(126.235009 345.703401)rotate(-285.136243)scale(0.08 -0.08)">
      <use xlink:href="#DejaVuSans-67"/>
     </g>
    </g>
   </g>
   <g id="text_32">
    <g id="patch_33">
     <path clip-path="url(#p9ce3ba6a86)" d="M 183.554706 419.986011 
L 183.554706 455.271011 
Q 183.554706 457.671011 185.954706 457.671011 
L 193.697206 457.671011 
Q 196.097206 457.671011 196.097206 455.271011 
L 196.097206 419.986011 
Q 196.097206 417.586011 193.697206 417.586011 
L 185.954706 417.586011 
Q 183.554706 417.586011 183.554706 419.986011 
z
" style="fill:#ffffff;stroke:#ffffff;stroke-linejoin:miter;"/>
    </g>
    <g clip-path="url(#p9ce3ba6a86)">
     <!-- Terminal -->
     <g transform="translate(187.618456 419.986011)rotate(-270)scale(0.08 -0.08)">
      <use xlink:href="#DejaVuSans-84"/>
      <use x="60.818359" xlink:href="#DejaVuSans-101"/>
      <use x="122.341797" xlink:href="#DejaVuSans-114"/>
      <use x="163.439453" xlink:href="#DejaVuSans-109"/>
      <use x="260.851562" xlink:href="#DejaVuSans-105"/>
      <use x="288.634766" xlink:href="#DejaVuSans-110"/>
      <use x="352.013672" xlink:href="#DejaVuSans-97"/>
      <use x="413.292969" xlink:href="#DejaVuSans-108"/>
     </g>
    </g>
   </g>
   <g id="text_33">
    <g id="patch_34">
     <path clip-path="url(#p9ce3ba6a86)" d="M 277.967182 353.933049 
L 281.469883 349.61671 
Q 282.982181 347.753123 281.118594 346.240826 
L 275.106585 341.362091 
Q 273.242998 339.849793 271.730701 341.71338 
L 268.227999 346.029719 
Q 266.715701 347.893306 268.579288 349.405604 
L 274.591297 354.284339 
Q 276.454884 355.796636 277.967182 353.933049 
z
" style="fill:#ffffff;stroke:#ffffff;stroke-linejoin:miter;"/>
    </g>
    <g clip-path="url(#p9ce3ba6a86)">
     <!-- R -->
     <g transform="translate(274.811702 351.372383)rotate(-50.940729)scale(0.08 -0.08)">
      <use xlink:href="#DejaVuSans-82"/>
     </g>
    </g>
   </g>
   <g id="text_34">
    <g id="patch_35">
     <path clip-path="url(#p9ce3ba6a86)" d="M 304.53494 351.900548 
L 305.854877 347.020918 
Q 306.481553 344.70418 304.164815 344.077503 
L 296.69092 342.055819 
Q 294.374182 341.429143 293.747506 343.745881 
L 292.427568 348.625511 
Q 291.800892 350.94225 294.11763 351.568926 
L 301.591525 353.59061 
Q 303.908263 354.217287 304.53494 351.900548 
z
" style="fill:#ffffff;stroke:#ffffff;stroke-linejoin:miter;"/>
    </g>
    <g clip-path="url(#p9ce3ba6a86)">
     <!-- E -->
     <g transform="translate(300.612171 350.839441)rotate(-74.863757)scale(0.08 -0.08)">
      <use xlink:href="#DejaVuSans-69"/>
     </g>
    </g>
   </g>
   <g id="text_35">
    <g id="patch_36">
     <path clip-path="url(#p9ce3ba6a86)" d="M 316.650491 346.764508 
L 318.109146 352.156958 
Q 318.735822 354.473696 321.052561 353.84702 
L 328.526455 351.825336 
Q 330.843193 351.198659 330.216517 348.881921 
L 328.757862 343.489471 
Q 328.131186 341.172733 325.814448 341.799409 
L 318.340553 343.821093 
Q 316.023815 344.44777 316.650491 346.764508 
z
" style="fill:#ffffff;stroke:#ffffff;stroke-linejoin:miter;"/>
    </g>
    <g clip-path="url(#p9ce3ba6a86)">
     <!-- C -->
     <g transform="translate(320.57326 345.703401)rotate(-285.136243)scale(0.08 -0.08)">
      <use xlink:href="#DejaVuSans-67"/>
     </g>
    </g>
   </g>
   <g id="text_36">
    <g id="patch_37">
     <path clip-path="url(#p9ce3ba6a86)" d="M 341.263556 349.81229 
L 344.448833 353.73747 
Q 345.96113 355.601057 347.824717 354.088759 
L 353.836726 349.210024 
Q 355.700313 347.697726 354.188015 345.83414 
L 351.002738 341.90896 
Q 349.490441 340.045373 347.626854 341.55767 
L 341.614845 346.436405 
Q 339.751258 347.948703 341.263556 349.81229 
z
" style="fill:#ffffff;stroke:#ffffff;stroke-linejoin:miter;"/>
    </g>
    <g clip-path="url(#p9ce3ba6a86)">
     <!-- E -->
     <g transform="translate(344.419035 347.251623)rotate(-309.059271)scale(0.08 -0.08)">
      <use xlink:href="#DejaVuSans-69"/>
     </g>
    </g>
   </g>
   <g id="text_37">
    <g id="patch_38">
     <path clip-path="url(#p9ce3ba6a86)" d="M 232.139269 419.986011 
L 232.139269 455.271011 
Q 232.139269 457.671011 234.539269 457.671011 
L 242.281769 457.671011 
Q 244.681769 457.671011 244.681769 455.271011 
L 244.681769 419.986011 
Q 244.681769 417.586011 242.281769 417.586011 
L 234.539269 417.586011 
Q 232.139269 417.586011 232.139269 419.986011 
z
" style="fill:#ffffff;stroke:#ffffff;stroke-linejoin:miter;"/>
    </g>
    <g clip-path="url(#p9ce3ba6a86)">
     <!-- Terminal -->
     <g transform="translate(236.203019 419.986011)rotate(-270)scale(0.08 -0.08)">
      <use xlink:href="#DejaVuSans-84"/>
      <use x="60.818359" xlink:href="#DejaVuSans-101"/>
      <use x="122.341797" xlink:href="#DejaVuSans-114"/>
      <use x="163.439453" xlink:href="#DejaVuSans-109"/>
      <use x="260.851562" xlink:href="#DejaVuSans-105"/>
      <use x="288.634766" xlink:href="#DejaVuSans-110"/>
      <use x="352.013672" xlink:href="#DejaVuSans-97"/>
      <use x="413.292969" xlink:href="#DejaVuSans-108"/>
     </g>
    </g>
   </g>
   <g id="text_38">
    <g id="patch_39">
     <path clip-path="url(#p9ce3ba6a86)" d="M 280.723832 419.986011 
L 280.723832 455.271011 
Q 280.723832 457.671011 283.123832 457.671011 
L 290.866332 457.671011 
Q 293.266332 457.671011 293.266332 455.271011 
L 293.266332 419.986011 
Q 293.266332 417.586011 290.866332 417.586011 
L 283.123832 417.586011 
Q 280.723832 417.586011 280.723832 419.986011 
z
" style="fill:#ffffff;stroke:#ffffff;stroke-linejoin:miter;"/>
    </g>
    <g clip-path="url(#p9ce3ba6a86)">
     <!-- Terminal -->
     <g transform="translate(284.787582 419.986011)rotate(-270)scale(0.08 -0.08)">
      <use xlink:href="#DejaVuSans-84"/>
      <use x="60.818359" xlink:href="#DejaVuSans-101"/>
      <use x="122.341797" xlink:href="#DejaVuSans-114"/>
      <use x="163.439453" xlink:href="#DejaVuSans-109"/>
      <use x="260.851562" xlink:href="#DejaVuSans-105"/>
      <use x="288.634766" xlink:href="#DejaVuSans-110"/>
      <use x="352.013672" xlink:href="#DejaVuSans-97"/>
      <use x="413.292969" xlink:href="#DejaVuSans-108"/>
     </g>
    </g>
   </g>
   <g id="text_39">
    <g id="patch_40">
     <path clip-path="url(#p9ce3ba6a86)" d="M 329.308395 419.986011 
L 329.308395 455.271011 
Q 329.308395 457.671011 331.708395 457.671011 
L 339.450895 457.671011 
Q 341.850895 457.671011 341.850895 455.271011 
L 341.850895 419.986011 
Q 341.850895 417.586011 339.450895 417.586011 
L 331.708395 417.586011 
Q 329.308395 417.586011 329.308395 419.986011 
z
" style="fill:#ffffff;stroke:#ffffff;stroke-linejoin:miter;"/>
    </g>
    <g clip-path="url(#p9ce3ba6a86)">
     <!-- Terminal -->
     <g transform="translate(333.372145 419.986011)rotate(-270)scale(0.08 -0.08)">
      <use xlink:href="#DejaVuSans-84"/>
      <use x="60.818359" xlink:href="#DejaVuSans-101"/>
      <use x="122.341797" xlink:href="#DejaVuSans-114"/>
      <use x="163.439453" xlink:href="#DejaVuSans-109"/>
      <use x="260.851562" xlink:href="#DejaVuSans-105"/>
      <use x="288.634766" xlink:href="#DejaVuSans-110"/>
      <use x="352.013672" xlink:href="#DejaVuSans-97"/>
      <use x="413.292969" xlink:href="#DejaVuSans-108"/>
     </g>
    </g>
   </g>
   <g id="text_40">
    <g id="patch_41">
     <path clip-path="url(#p9ce3ba6a86)" d="M 377.892958 419.986011 
L 377.892958 455.271011 
Q 377.892958 457.671011 380.292958 457.671011 
L 388.035458 457.671011 
Q 390.435458 457.671011 390.435458 455.271011 
L 390.435458 419.986011 
Q 390.435458 417.586011 388.035458 417.586011 
L 380.292958 417.586011 
Q 377.892958 417.586011 377.892958 419.986011 
z
" style="fill:#ffffff;stroke:#ffffff;stroke-linejoin:miter;"/>
    </g>
    <g clip-path="url(#p9ce3ba6a86)">
     <!-- Terminal -->
     <g transform="translate(381.956708 419.986011)rotate(-270)scale(0.08 -0.08)">
      <use xlink:href="#DejaVuSans-84"/>
      <use x="60.818359" xlink:href="#DejaVuSans-101"/>
      <use x="122.341797" xlink:href="#DejaVuSans-114"/>
      <use x="163.439453" xlink:href="#DejaVuSans-109"/>
      <use x="260.851562" xlink:href="#DejaVuSans-105"/>
      <use x="288.634766" xlink:href="#DejaVuSans-110"/>
      <use x="352.013672" xlink:href="#DejaVuSans-97"/>
      <use x="413.292969" xlink:href="#DejaVuSans-108"/>
     </g>
    </g>
   </g>
   <g id="text_41">
    <g id="patch_42">
     <path clip-path="url(#p9ce3ba6a86)" d="M 86.38558 419.986011 
L 86.38558 455.271011 
Q 86.38558 457.671011 88.78558 457.671011 
L 96.52808 457.671011 
Q 98.92808 457.671011 98.92808 455.271011 
L 98.92808 419.986011 
Q 98.92808 417.586011 96.52808 417.586011 
L 88.78558 417.586011 
Q 86.38558 417.586011 86.38558 419.986011 
z
" style="fill:#ffffff;stroke:#ffffff;stroke-linejoin:miter;"/>
    </g>
    <g clip-path="url(#p9ce3ba6a86)">
     <!-- Terminal -->
     <g transform="translate(90.44933 419.986011)rotate(-270)scale(0.08 -0.08)">
      <use xlink:href="#DejaVuSans-84"/>
      <use x="60.818359" xlink:href="#DejaVuSans-101"/>
      <use x="122.341797" xlink:href="#DejaVuSans-114"/>
      <use x="163.439453" xlink:href="#DejaVuSans-109"/>
      <use x="260.851562" xlink:href="#DejaVuSans-105"/>
      <use x="288.634766" xlink:href="#DejaVuSans-110"/>
      <use x="352.013672" xlink:href="#DejaVuSans-97"/>
      <use x="413.292969" xlink:href="#DejaVuSans-108"/>
     </g>
    </g>
   </g>
   <g id="text_42">
    <g id="patch_43">
     <path clip-path="url(#p9ce3ba6a86)" d="M 134.970143 419.986011 
L 134.970143 455.271011 
Q 134.970143 457.671011 137.370143 457.671011 
L 145.112643 457.671011 
Q 147.512643 457.671011 147.512643 455.271011 
L 147.512643 419.986011 
Q 147.512643 417.586011 145.112643 417.586011 
L 137.370143 417.586011 
Q 134.970143 417.586011 134.970143 419.986011 
z
" style="fill:#ffffff;stroke:#ffffff;stroke-linejoin:miter;"/>
    </g>
    <g clip-path="url(#p9ce3ba6a86)">
     <!-- Terminal -->
     <g transform="translate(139.033893 419.986011)rotate(-270)scale(0.08 -0.08)">
      <use xlink:href="#DejaVuSans-84"/>
      <use x="60.818359" xlink:href="#DejaVuSans-101"/>
      <use x="122.341797" xlink:href="#DejaVuSans-114"/>
      <use x="163.439453" xlink:href="#DejaVuSans-109"/>
      <use x="260.851562" xlink:href="#DejaVuSans-105"/>
      <use x="288.634766" xlink:href="#DejaVuSans-110"/>
      <use x="352.013672" xlink:href="#DejaVuSans-97"/>
      <use x="413.292969" xlink:href="#DejaVuSans-108"/>
     </g>
    </g>
   </g>
   <g id="text_43">
    <g id="patch_44">
     <path clip-path="url(#p9ce3ba6a86)" d="M 426.47752 419.986011 
L 426.47752 455.271011 
Q 426.47752 457.671011 428.87752 457.671011 
L 436.62002 457.671011 
Q 439.02002 457.671011 439.02002 455.271011 
L 439.02002 419.986011 
Q 439.02002 417.586011 436.62002 417.586011 
L 428.87752 417.586011 
Q 426.47752 417.586011 426.47752 419.986011 
z
" style="fill:#ffffff;stroke:#ffffff;stroke-linejoin:miter;"/>
    </g>
    <g clip-path="url(#p9ce3ba6a86)">
     <!-- Terminal -->
     <g transform="translate(430.54127 419.986011)rotate(-270)scale(0.08 -0.08)">
      <use xlink:href="#DejaVuSans-84"/>
      <use x="60.818359" xlink:href="#DejaVuSans-101"/>
      <use x="122.341797" xlink:href="#DejaVuSans-114"/>
      <use x="163.439453" xlink:href="#DejaVuSans-109"/>
      <use x="260.851562" xlink:href="#DejaVuSans-105"/>
      <use x="288.634766" xlink:href="#DejaVuSans-110"/>
      <use x="352.013672" xlink:href="#DejaVuSans-97"/>
      <use x="413.292969" xlink:href="#DejaVuSans-108"/>
     </g>
    </g>
   </g>
   <g id="text_44">
    <g id="patch_45">
     <path clip-path="url(#p9ce3ba6a86)" d="M 912.323149 419.986011 
L 912.323149 455.271011 
Q 912.323149 457.671011 914.723149 457.671011 
L 922.465649 457.671011 
Q 924.865649 457.671011 924.865649 455.271011 
L 924.865649 419.986011 
Q 924.865649 417.586011 922.465649 417.586011 
L 914.723149 417.586011 
Q 912.323149 417.586011 912.323149 419.986011 
z
" style="fill:#ffffff;stroke:#ffffff;stroke-linejoin:miter;"/>
    </g>
    <g clip-path="url(#p9ce3ba6a86)">
     <!-- Terminal -->
     <g transform="translate(916.386899 419.986011)rotate(-270)scale(0.08 -0.08)">
      <use xlink:href="#DejaVuSans-84"/>
      <use x="60.818359" xlink:href="#DejaVuSans-101"/>
      <use x="122.341797" xlink:href="#DejaVuSans-114"/>
      <use x="163.439453" xlink:href="#DejaVuSans-109"/>
      <use x="260.851562" xlink:href="#DejaVuSans-105"/>
      <use x="288.634766" xlink:href="#DejaVuSans-110"/>
      <use x="352.013672" xlink:href="#DejaVuSans-97"/>
      <use x="413.292969" xlink:href="#DejaVuSans-108"/>
     </g>
    </g>
   </g>
   <g id="PathCollection_1">
    <defs>
     <path d="M 0 8.660254 
C 2.296726 8.660254 4.499694 7.747755 6.123724 6.123724 
C 7.747755 4.499694 8.660254 2.296726 8.660254 0 
C 8.660254 -2.296726 7.747755 -4.499694 6.123724 -6.123724 
C 4.499694 -7.747755 2.296726 -8.660254 0 -8.660254 
C -2.296726 -8.660254 -4.499694 -7.747755 -6.123724 -6.123724 
C -7.747755 -4.499694 -8.660254 -2.296726 -8.660254 0 
C -8.660254 2.296726 -7.747755 4.499694 -6.123724 6.123724 
C -4.499694 7.747755 -2.296726 8.660254 0 8.660254 
z
" id="C0_0_4ae64dafae"/>
    </defs>
    <g clip-path="url(#p9ce3ba6a86)">
     <use style="fill:#ffffff;stroke:#ffffff;" x="44.072268" xlink:href="#C0_0_4ae64dafae" y="482.531159"/>
    </g>
    <g clip-path="url(#p9ce3ba6a86)">
     <use style="fill:#ffffff;stroke:#ffffff;" x="92.65683" xlink:href="#C0_0_4ae64dafae" y="482.531159"/>
    </g>
    <g clip-path="url(#p9ce3ba6a86)">
     <use style="fill:#ffffff;stroke:#ffffff;" x="141.241393" xlink:href="#C0_0_4ae64dafae" y="482.531159"/>
    </g>
    <g clip-path="url(#p9ce3ba6a86)">
     <use style="fill:#ffffff;stroke:#ffffff;" x="189.825956" xlink:href="#C0_0_4ae64dafae" y="482.531159"/>
    </g>
    <g clip-path="url(#p9ce3ba6a86)">
     <use style="fill:#ffffff;stroke:#ffffff;" x="238.410519" xlink:href="#C0_0_4ae64dafae" y="482.531159"/>
    </g>
    <g clip-path="url(#p9ce3ba6a86)">
     <use style="fill:#ffffff;stroke:#ffffff;" x="286.995082" xlink:href="#C0_0_4ae64dafae" y="482.531159"/>
    </g>
    <g clip-path="url(#p9ce3ba6a86)">
     <use style="fill:#ffffff;stroke:#ffffff;" x="335.579645" xlink:href="#C0_0_4ae64dafae" y="482.531159"/>
    </g>
    <g clip-path="url(#p9ce3ba6a86)">
     <use style="fill:#ffffff;stroke:#ffffff;" x="384.164208" xlink:href="#C0_0_4ae64dafae" y="482.531159"/>
    </g>
    <g clip-path="url(#p9ce3ba6a86)">
     <use style="fill:#ffffff;stroke:#ffffff;" x="432.74877" xlink:href="#C0_0_4ae64dafae" y="482.531159"/>
    </g>
    <g clip-path="url(#p9ce3ba6a86)">
     <use style="fill:#ffffff;stroke:#ffffff;" x="481.333333" xlink:href="#C0_0_4ae64dafae" y="482.531159"/>
    </g>
    <g clip-path="url(#p9ce3ba6a86)">
     <use style="fill:#ffffff;stroke:#ffffff;" x="529.917896" xlink:href="#C0_0_4ae64dafae" y="482.531159"/>
    </g>
    <g clip-path="url(#p9ce3ba6a86)">
     <use style="fill:#ffffff;stroke:#ffffff;" x="578.502459" xlink:href="#C0_0_4ae64dafae" y="482.531159"/>
    </g>
    <g clip-path="url(#p9ce3ba6a86)">
     <use style="fill:#ffffff;stroke:#ffffff;" x="627.087022" xlink:href="#C0_0_4ae64dafae" y="482.531159"/>
    </g>
    <g clip-path="url(#p9ce3ba6a86)">
     <use style="fill:#ffffff;stroke:#ffffff;" x="675.671585" xlink:href="#C0_0_4ae64dafae" y="482.531159"/>
    </g>
    <g clip-path="url(#p9ce3ba6a86)">
     <use style="fill:#ffffff;stroke:#ffffff;" x="724.256148" xlink:href="#C0_0_4ae64dafae" y="482.531159"/>
    </g>
    <g clip-path="url(#p9ce3ba6a86)">
     <use style="fill:#ffffff;stroke:#ffffff;" x="772.84071" xlink:href="#C0_0_4ae64dafae" y="482.531159"/>
    </g>
    <g clip-path="url(#p9ce3ba6a86)">
     <use style="fill:#ffffff;stroke:#ffffff;" x="821.425273" xlink:href="#C0_0_4ae64dafae" y="482.531159"/>
    </g>
    <g clip-path="url(#p9ce3ba6a86)">
     <use style="fill:#ffffff;stroke:#ffffff;" x="870.009836" xlink:href="#C0_0_4ae64dafae" y="482.531159"/>
    </g>
    <g clip-path="url(#p9ce3ba6a86)">
     <use style="fill:#ffffff;stroke:#ffffff;" x="918.594399" xlink:href="#C0_0_4ae64dafae" y="482.531159"/>
    </g>
    <g clip-path="url(#p9ce3ba6a86)">
     <use style="fill:#ffffff;stroke:#ffffff;" x="541.254294" xlink:href="#C0_0_4ae64dafae" y="24.135508"/>
    </g>
    <g clip-path="url(#p9ce3ba6a86)">
     <use style="fill:#ffffff;stroke:#ffffff;" x="541.254294" xlink:href="#C0_0_4ae64dafae" y="119.058069"/>
    </g>
    <g clip-path="url(#p9ce3ba6a86)">
     <use style="fill:#ffffff;stroke:#ffffff;" x="165.533675" xlink:href="#C0_0_4ae64dafae" y="211.86598"/>
    </g>
    <g clip-path="url(#p9ce3ba6a86)">
     <use style="fill:#ffffff;stroke:#ffffff;" x="529.917896" xlink:href="#C0_0_4ae64dafae" y="302.920567"/>
    </g>
    <g clip-path="url(#p9ce3ba6a86)">
     <use style="fill:#ffffff;stroke:#ffffff;" x="627.087022" xlink:href="#C0_0_4ae64dafae" y="392.725863"/>
    </g>
    <g clip-path="url(#p9ce3ba6a86)">
     <use style="fill:#ffffff;stroke:#ffffff;" x="699.963866" xlink:href="#C0_0_4ae64dafae" y="392.725863"/>
    </g>
    <g clip-path="url(#p9ce3ba6a86)">
     <use style="fill:#ffffff;stroke:#ffffff;" x="792.274536" xlink:href="#C0_0_4ae64dafae" y="302.920567"/>
    </g>
    <g clip-path="url(#p9ce3ba6a86)">
     <use style="fill:#ffffff;stroke:#ffffff;" x="772.84071" xlink:href="#C0_0_4ae64dafae" y="392.725863"/>
    </g>
    <g clip-path="url(#p9ce3ba6a86)">
     <use style="fill:#ffffff;stroke:#ffffff;" x="821.425273" xlink:href="#C0_0_4ae64dafae" y="392.725863"/>
    </g>
    <g clip-path="url(#p9ce3ba6a86)">
     <use style="fill:#ffffff;stroke:#ffffff;" x="870.009836" xlink:href="#C0_0_4ae64dafae" y="392.725863"/>
    </g>
    <g clip-path="url(#p9ce3ba6a86)">
     <use style="fill:#ffffff;stroke:#ffffff;" x="481.333333" xlink:href="#C0_0_4ae64dafae" y="392.725863"/>
    </g>
    <g clip-path="url(#p9ce3ba6a86)">
     <use style="fill:#ffffff;stroke:#ffffff;" x="529.917896" xlink:href="#C0_0_4ae64dafae" y="392.725863"/>
    </g>
    <g clip-path="url(#p9ce3ba6a86)">
     <use style="fill:#ffffff;stroke:#ffffff;" x="578.502459" xlink:href="#C0_0_4ae64dafae" y="392.725863"/>
    </g>
    <g clip-path="url(#p9ce3ba6a86)">
     <use style="fill:#ffffff;stroke:#ffffff;" x="44.072268" xlink:href="#C0_0_4ae64dafae" y="392.725863"/>
    </g>
    <g clip-path="url(#p9ce3ba6a86)">
     <use style="fill:#ffffff;stroke:#ffffff;" x="116.949112" xlink:href="#C0_0_4ae64dafae" y="302.920567"/>
    </g>
    <g clip-path="url(#p9ce3ba6a86)">
     <use style="fill:#ffffff;stroke:#ffffff;" x="189.825956" xlink:href="#C0_0_4ae64dafae" y="392.725863"/>
    </g>
    <g clip-path="url(#p9ce3ba6a86)">
     <use style="fill:#ffffff;stroke:#ffffff;" x="311.287363" xlink:href="#C0_0_4ae64dafae" y="302.920567"/>
    </g>
    <g clip-path="url(#p9ce3ba6a86)">
     <use style="fill:#ffffff;stroke:#ffffff;" x="238.410519" xlink:href="#C0_0_4ae64dafae" y="392.725863"/>
    </g>
    <g clip-path="url(#p9ce3ba6a86)">
     <use style="fill:#ffffff;stroke:#ffffff;" x="286.995082" xlink:href="#C0_0_4ae64dafae" y="392.725863"/>
    </g>
    <g clip-path="url(#p9ce3ba6a86)">
     <use style="fill:#ffffff;stroke:#ffffff;" x="335.579645" xlink:href="#C0_0_4ae64dafae" y="392.725863"/>
    </g>
    <g clip-path="url(#p9ce3ba6a86)">
     <use style="fill:#ffffff;stroke:#ffffff;" x="384.164208" xlink:href="#C0_0_4ae64dafae" y="392.725863"/>
    </g>
    <g clip-path="url(#p9ce3ba6a86)">
     <use style="fill:#ffffff;stroke:#ffffff;" x="92.65683" xlink:href="#C0_0_4ae64dafae" y="392.725863"/>
    </g>
    <g clip-path="url(#p9ce3ba6a86)">
     <use style="fill:#ffffff;stroke:#ffffff;" x="141.241393" xlink:href="#C0_0_4ae64dafae" y="392.725863"/>
    </g>
    <g clip-path="url(#p9ce3ba6a86)">
     <use style="fill:#ffffff;stroke:#ffffff;" x="432.74877" xlink:href="#C0_0_4ae64dafae" y="392.725863"/>
    </g>
    <g clip-path="url(#p9ce3ba6a86)">
     <use style="fill:#ffffff;stroke:#ffffff;" x="918.594399" xlink:href="#C0_0_4ae64dafae" y="392.725863"/>
    </g>
   </g>
   <g id="text_45">
    <g clip-path="url(#p9ce3ba6a86)">
     <!-- Avec -->
     <defs>
      <path d="M 2.984375 54.6875 
L 12.5 54.6875 
L 29.59375 8.796875 
L 46.6875 54.6875 
L 56.203125 54.6875 
L 35.6875 0 
L 23.484375 0 
z
" id="DejaVuSans-118"/>
      <path d="M 48.78125 52.59375 
L 48.78125 44.1875 
Q 44.96875 46.296875 41.140625 47.34375 
Q 37.3125 48.390625 33.40625 48.390625 
Q 24.65625 48.390625 19.8125 42.84375 
Q 14.984375 37.3125 14.984375 27.296875 
Q 14.984375 17.28125 19.8125 11.734375 
Q 24.65625 6.203125 33.40625 6.203125 
Q 37.3125 6.203125 41.140625 7.25 
Q 44.96875 8.296875 48.78125 10.40625 
L 48.78125 2.09375 
Q 45.015625 0.34375 40.984375 -0.53125 
Q 36.96875 -1.421875 32.421875 -1.421875 
Q 20.0625 -1.421875 12.78125 6.34375 
Q 5.515625 14.109375 5.515625 27.296875 
Q 5.515625 40.671875 12.859375 48.328125 
Q 20.21875 56 33.015625 56 
Q 37.15625 56 41.109375 55.140625 
Q 45.0625 54.296875 48.78125 52.59375 
z
" id="DejaVuSans-99"/>
     </defs>
     <g transform="translate(31.870705 485.290534)scale(0.1 -0.1)">
      <use xlink:href="#DejaVuSans-65"/>
      <use x="68.330078" xlink:href="#DejaVuSans-118"/>
      <use x="127.509766" xlink:href="#DejaVuSans-101"/>
      <use x="189.033203" xlink:href="#DejaVuSans-99"/>
     </g>
    </g>
   </g>
   <g id="text_46">
    <g clip-path="url(#p9ce3ba6a86)">
     <!-- la -->
     <g transform="translate(88.203705 485.290534)scale(0.1 -0.1)">
      <use xlink:href="#DejaVuSans-108"/>
      <use x="27.783203" xlink:href="#DejaVuSans-97"/>
     </g>
    </g>
   </g>
   <g id="text_47">
    <g clip-path="url(#p9ce3ba6a86)">
     <!-- mobilit -->
     <defs>
      <path d="M 30.609375 48.390625 
Q 23.390625 48.390625 19.1875 42.75 
Q 14.984375 37.109375 14.984375 27.296875 
Q 14.984375 17.484375 19.15625 11.84375 
Q 23.34375 6.203125 30.609375 6.203125 
Q 37.796875 6.203125 41.984375 11.859375 
Q 46.1875 17.53125 46.1875 27.296875 
Q 46.1875 37.015625 41.984375 42.703125 
Q 37.796875 48.390625 30.609375 48.390625 
z
M 30.609375 56 
Q 42.328125 56 49.015625 48.375 
Q 55.71875 40.765625 55.71875 27.296875 
Q 55.71875 13.875 49.015625 6.21875 
Q 42.328125 -1.421875 30.609375 -1.421875 
Q 18.84375 -1.421875 12.171875 6.21875 
Q 5.515625 13.875 5.515625 27.296875 
Q 5.515625 40.765625 12.171875 48.375 
Q 18.84375 56 30.609375 56 
z
" id="DejaVuSans-111"/>
      <path d="M 48.6875 27.296875 
Q 48.6875 37.203125 44.609375 42.84375 
Q 40.53125 48.484375 33.40625 48.484375 
Q 26.265625 48.484375 22.1875 42.84375 
Q 18.109375 37.203125 18.109375 27.296875 
Q 18.109375 17.390625 22.1875 11.75 
Q 26.265625 6.109375 33.40625 6.109375 
Q 40.53125 6.109375 44.609375 11.75 
Q 48.6875 17.390625 48.6875 27.296875 
z
M 18.109375 46.390625 
Q 20.953125 51.265625 25.265625 53.625 
Q 29.59375 56 35.59375 56 
Q 45.5625 56 51.78125 48.09375 
Q 58.015625 40.1875 58.015625 27.296875 
Q 58.015625 14.40625 51.78125 6.484375 
Q 45.5625 -1.421875 35.59375 -1.421875 
Q 29.59375 -1.421875 25.265625 0.953125 
Q 20.953125 3.328125 18.109375 8.203125 
L 18.109375 0 
L 9.078125 0 
L 9.078125 75.984375 
L 18.109375 75.984375 
z
" id="DejaVuSans-98"/>
      <path d="M 18.3125 70.21875 
L 18.3125 54.6875 
L 36.8125 54.6875 
L 36.8125 47.703125 
L 18.3125 47.703125 
L 18.3125 18.015625 
Q 18.3125 11.328125 20.140625 9.421875 
Q 21.96875 7.515625 27.59375 7.515625 
L 36.8125 7.515625 
L 36.8125 0 
L 27.59375 0 
Q 17.1875 0 13.234375 3.875 
Q 9.28125 7.765625 9.28125 18.015625 
L 9.28125 47.703125 
L 2.6875 47.703125 
L 2.6875 54.6875 
L 9.28125 54.6875 
L 9.28125 70.21875 
z
" id="DejaVuSans-116"/>
      <path d="M 56.203125 29.59375 
L 56.203125 25.203125 
L 14.890625 25.203125 
Q 15.484375 15.921875 20.484375 11.0625 
Q 25.484375 6.203125 34.421875 6.203125 
Q 39.59375 6.203125 44.453125 7.46875 
Q 49.3125 8.734375 54.109375 11.28125 
L 54.109375 2.78125 
Q 49.265625 0.734375 44.1875 -0.34375 
Q 39.109375 -1.421875 33.890625 -1.421875 
Q 20.796875 -1.421875 13.15625 6.1875 
Q 5.515625 13.8125 5.515625 26.8125 
Q 5.515625 40.234375 12.765625 48.109375 
Q 20.015625 56 32.328125 56 
Q 43.359375 56 49.78125 48.890625 
Q 56.203125 41.796875 56.203125 29.59375 
z
M 47.21875 32.234375 
Q 47.125 39.59375 43.09375 43.984375 
Q 39.0625 48.390625 32.421875 48.390625 
Q 24.90625 48.390625 20.390625 44.140625 
Q 15.875 39.890625 15.1875 32.171875 
z
M 38.53125 79.984375 
L 48.25 79.984375 
L 32.34375 61.625 
L 24.859375 61.625 
z
" id="DejaVuSans-233"/>
     </defs>
     <g transform="translate(120.933581 485.290534)scale(0.1 -0.1)">
      <use xlink:href="#DejaVuSans-109"/>
      <use x="97.412109" xlink:href="#DejaVuSans-111"/>
      <use x="158.59375" xlink:href="#DejaVuSans-98"/>
      <use x="222.070312" xlink:href="#DejaVuSans-105"/>
      <use x="249.853516" xlink:href="#DejaVuSans-108"/>
      <use x="277.636719" xlink:href="#DejaVuSans-105"/>
      <use x="305.419922" xlink:href="#DejaVuSans-116"/>
      <use x="344.628906" xlink:href="#DejaVuSans-233"/>
     </g>
    </g>
   </g>
   <g id="text_48">
    <g clip-path="url(#p9ce3ba6a86)">
     <!-- naturelle -->
     <defs>
      <path d="M 8.5 21.578125 
L 8.5 54.6875 
L 17.484375 54.6875 
L 17.484375 21.921875 
Q 17.484375 14.15625 20.5 10.265625 
Q 23.53125 6.390625 29.59375 6.390625 
Q 36.859375 6.390625 41.078125 11.03125 
Q 45.3125 15.671875 45.3125 23.6875 
L 45.3125 54.6875 
L 54.296875 54.6875 
L 54.296875 0 
L 45.3125 0 
L 45.3125 8.40625 
Q 42.046875 3.421875 37.71875 1 
Q 33.40625 -1.421875 27.6875 -1.421875 
Q 18.265625 -1.421875 13.375 4.4375 
Q 8.5 10.296875 8.5 21.578125 
z
M 31.109375 56 
z
" id="DejaVuSans-117"/>
     </defs>
     <g transform="translate(167.479081 485.290534)scale(0.1 -0.1)">
      <use xlink:href="#DejaVuSans-110"/>
      <use x="63.378906" xlink:href="#DejaVuSans-97"/>
      <use x="124.658203" xlink:href="#DejaVuSans-116"/>
      <use x="163.867188" xlink:href="#DejaVuSans-117"/>
      <use x="227.246094" xlink:href="#DejaVuSans-114"/>
      <use x="268.328125" xlink:href="#DejaVuSans-101"/>
      <use x="329.851562" xlink:href="#DejaVuSans-108"/>
      <use x="357.634766" xlink:href="#DejaVuSans-108"/>
      <use x="385.417969" xlink:href="#DejaVuSans-101"/>
     </g>
    </g>
   </g>
   <g id="text_49">
    <g clip-path="url(#p9ce3ba6a86)">
     <!--  -->
     <defs>
      <path d="M 34.28125 27.484375 
Q 23.390625 27.484375 19.1875 25 
Q 14.984375 22.515625 14.984375 16.5 
Q 14.984375 11.71875 18.140625 8.90625 
Q 21.296875 6.109375 26.703125 6.109375 
Q 34.1875 6.109375 38.703125 11.40625 
Q 43.21875 16.703125 43.21875 25.484375 
L 43.21875 27.484375 
z
M 52.203125 31.203125 
L 52.203125 0 
L 43.21875 0 
L 43.21875 8.296875 
Q 40.140625 3.328125 35.546875 0.953125 
Q 30.953125 -1.421875 24.3125 -1.421875 
Q 15.921875 -1.421875 10.953125 3.296875 
Q 6 8.015625 6 15.921875 
Q 6 25.140625 12.171875 29.828125 
Q 18.359375 34.515625 30.609375 34.515625 
L 43.21875 34.515625 
L 43.21875 35.40625 
Q 43.21875 41.609375 39.140625 45 
Q 35.0625 48.390625 27.6875 48.390625 
Q 23 48.390625 18.546875 47.265625 
Q 14.109375 46.140625 10.015625 43.890625 
L 10.015625 52.203125 
Q 14.9375 54.109375 19.578125 55.046875 
Q 24.21875 56 28.609375 56 
Q 40.484375 56 46.34375 49.84375 
Q 52.203125 43.703125 52.203125 31.203125 
z
M 21.921875 79.984375 
L 35.6875 61.71875 
L 28.21875 61.71875 
L 12.296875 79.984375 
z
" id="DejaVuSans-224"/>
     </defs>
     <g transform="translate(235.346457 485.290534)scale(0.1 -0.1)">
      <use xlink:href="#DejaVuSans-224"/>
     </g>
    </g>
   </g>
   <g id="text_50">
    <g clip-path="url(#p9ce3ba6a86)">
     <!-- l' -->
     <defs>
      <path d="M 17.921875 72.90625 
L 17.921875 45.796875 
L 9.625 45.796875 
L 9.625 72.90625 
z
" id="DejaVuSans-39"/>
     </defs>
     <g transform="translate(284.231801 485.290534)scale(0.1 -0.1)">
      <use xlink:href="#DejaVuSans-108"/>
      <use x="27.783203" xlink:href="#DejaVuSans-39"/>
     </g>
    </g>
   </g>
   <g id="text_51">
    <g clip-path="url(#p9ce3ba6a86)">
     <!-- esprit -->
     <defs>
      <path d="M 44.28125 53.078125 
L 44.28125 44.578125 
Q 40.484375 46.53125 36.375 47.5 
Q 32.28125 48.484375 27.875 48.484375 
Q 21.1875 48.484375 17.84375 46.4375 
Q 14.5 44.390625 14.5 40.28125 
Q 14.5 37.15625 16.890625 35.375 
Q 19.28125 33.59375 26.515625 31.984375 
L 29.59375 31.296875 
Q 39.15625 29.25 43.1875 25.515625 
Q 47.21875 21.78125 47.21875 15.09375 
Q 47.21875 7.46875 41.1875 3.015625 
Q 35.15625 -1.421875 24.609375 -1.421875 
Q 20.21875 -1.421875 15.453125 -0.5625 
Q 10.6875 0.296875 5.421875 2 
L 5.421875 11.28125 
Q 10.40625 8.6875 15.234375 7.390625 
Q 20.0625 6.109375 24.8125 6.109375 
Q 31.15625 6.109375 34.5625 8.28125 
Q 37.984375 10.453125 37.984375 14.40625 
Q 37.984375 18.0625 35.515625 20.015625 
Q 33.0625 21.96875 24.703125 23.78125 
L 21.578125 24.515625 
Q 13.234375 26.265625 9.515625 29.90625 
Q 5.8125 33.546875 5.8125 39.890625 
Q 5.8125 47.609375 11.28125 51.796875 
Q 16.75 56 26.8125 56 
Q 31.78125 56 36.171875 55.265625 
Q 40.578125 54.546875 44.28125 53.078125 
z
" id="DejaVuSans-115"/>
      <path d="M 18.109375 8.203125 
L 18.109375 -20.796875 
L 9.078125 -20.796875 
L 9.078125 54.6875 
L 18.109375 54.6875 
L 18.109375 46.390625 
Q 20.953125 51.265625 25.265625 53.625 
Q 29.59375 56 35.59375 56 
Q 45.5625 56 51.78125 48.09375 
Q 58.015625 40.1875 58.015625 27.296875 
Q 58.015625 14.40625 51.78125 6.484375 
Q 45.5625 -1.421875 35.59375 -1.421875 
Q 29.59375 -1.421875 25.265625 0.953125 
Q 20.953125 3.328125 18.109375 8.203125 
z
M 48.6875 27.296875 
Q 48.6875 37.203125 44.609375 42.84375 
Q 40.53125 48.484375 33.40625 48.484375 
Q 26.265625 48.484375 22.1875 42.84375 
Q 18.109375 37.203125 18.109375 27.296875 
Q 18.109375 17.390625 22.1875 11.75 
Q 26.265625 6.109375 33.40625 6.109375 
Q 40.53125 6.109375 44.609375 11.75 
Q 48.6875 17.390625 48.6875 27.296875 
z
" id="DejaVuSans-112"/>
     </defs>
     <g transform="translate(321.319489 485.290534)scale(0.1 -0.1)">
      <use xlink:href="#DejaVuSans-101"/>
      <use x="61.523438" xlink:href="#DejaVuSans-115"/>
      <use x="113.623047" xlink:href="#DejaVuSans-112"/>
      <use x="177.099609" xlink:href="#DejaVuSans-114"/>
      <use x="218.212891" xlink:href="#DejaVuSans-105"/>
      <use x="245.996094" xlink:href="#DejaVuSans-116"/>
     </g>
    </g>
   </g>
   <g id="text_52">
    <g clip-path="url(#p9ce3ba6a86)">
     <!-- humain -->
     <defs>
      <path d="M 54.890625 33.015625 
L 54.890625 0 
L 45.90625 0 
L 45.90625 32.71875 
Q 45.90625 40.484375 42.875 44.328125 
Q 39.84375 48.1875 33.796875 48.1875 
Q 26.515625 48.1875 22.3125 43.546875 
Q 18.109375 38.921875 18.109375 30.90625 
L 18.109375 0 
L 9.078125 0 
L 9.078125 75.984375 
L 18.109375 75.984375 
L 18.109375 46.1875 
Q 21.34375 51.125 25.703125 53.5625 
Q 30.078125 56 35.796875 56 
Q 45.21875 56 50.046875 50.171875 
Q 54.890625 44.34375 54.890625 33.015625 
z
" id="DejaVuSans-104"/>
     </defs>
     <g transform="translate(365.33452 485.290534)scale(0.1 -0.1)">
      <use xlink:href="#DejaVuSans-104"/>
      <use x="63.378906" xlink:href="#DejaVuSans-117"/>
      <use x="126.757812" xlink:href="#DejaVuSans-109"/>
      <use x="224.169922" xlink:href="#DejaVuSans-97"/>
      <use x="285.449219" xlink:href="#DejaVuSans-105"/>
      <use x="313.232422" xlink:href="#DejaVuSans-110"/>
     </g>
    </g>
   </g>
   <g id="text_53">
    <g clip-path="url(#p9ce3ba6a86)">
     <!-- , -->
     <defs>
      <path d="M 11.71875 12.40625 
L 22.015625 12.40625 
L 22.015625 4 
L 14.015625 -11.625 
L 7.71875 -11.625 
L 11.71875 4 
z
" id="DejaVuSans-44"/>
     </defs>
     <g transform="translate(431.159708 485.290534)scale(0.1 -0.1)">
      <use xlink:href="#DejaVuSans-44"/>
     </g>
    </g>
   </g>
   <g id="text_54">
    <g clip-path="url(#p9ce3ba6a86)">
     <!-- d' -->
     <defs>
      <path d="M 45.40625 46.390625 
L 45.40625 75.984375 
L 54.390625 75.984375 
L 54.390625 0 
L 45.40625 0 
L 45.40625 8.203125 
Q 42.578125 3.328125 38.25 0.953125 
Q 33.9375 -1.421875 27.875 -1.421875 
Q 17.96875 -1.421875 11.734375 6.484375 
Q 5.515625 14.40625 5.515625 27.296875 
Q 5.515625 40.1875 11.734375 48.09375 
Q 17.96875 56 27.875 56 
Q 33.9375 56 38.25 53.625 
Q 42.578125 51.265625 45.40625 46.390625 
z
M 14.796875 27.296875 
Q 14.796875 17.390625 18.875 11.75 
Q 22.953125 6.109375 30.078125 6.109375 
Q 37.203125 6.109375 41.296875 11.75 
Q 45.40625 17.390625 45.40625 27.296875 
Q 45.40625 37.203125 41.296875 42.84375 
Q 37.203125 48.484375 30.078125 48.484375 
Q 22.953125 48.484375 18.875 42.84375 
Q 14.796875 37.203125 14.796875 27.296875 
z
" id="DejaVuSans-100"/>
     </defs>
     <g transform="translate(476.784896 485.290534)scale(0.1 -0.1)">
      <use xlink:href="#DejaVuSans-100"/>
      <use x="63.476562" xlink:href="#DejaVuSans-39"/>
     </g>
    </g>
   </g>
   <g id="text_55">
    <g clip-path="url(#p9ce3ba6a86)">
     <!-- un -->
     <g transform="translate(523.580396 485.290534)scale(0.1 -0.1)">
      <use xlink:href="#DejaVuSans-117"/>
      <use x="63.378906" xlink:href="#DejaVuSans-110"/>
     </g>
    </g>
   </g>
   <g id="text_56">
    <g clip-path="url(#p9ce3ba6a86)">
     <!-- excs -->
     <defs>
      <path d="M 54.890625 54.6875 
L 35.109375 28.078125 
L 55.90625 0 
L 45.3125 0 
L 29.390625 21.484375 
L 13.484375 0 
L 2.875 0 
L 24.125 28.609375 
L 4.6875 54.6875 
L 15.28125 54.6875 
L 29.78125 35.203125 
L 44.28125 54.6875 
z
" id="DejaVuSans-120"/>
      <path d="M 56.203125 29.59375 
L 56.203125 25.203125 
L 14.890625 25.203125 
Q 15.484375 15.921875 20.484375 11.0625 
Q 25.484375 6.203125 34.421875 6.203125 
Q 39.59375 6.203125 44.453125 7.46875 
Q 49.3125 8.734375 54.109375 11.28125 
L 54.109375 2.78125 
Q 49.265625 0.734375 44.1875 -0.34375 
Q 39.109375 -1.421875 33.890625 -1.421875 
Q 20.796875 -1.421875 13.15625 6.1875 
Q 5.515625 13.8125 5.515625 26.8125 
Q 5.515625 40.234375 12.765625 48.109375 
Q 20.015625 56 32.328125 56 
Q 43.359375 56 49.78125 48.890625 
Q 56.203125 41.796875 56.203125 29.59375 
z
M 47.21875 32.234375 
Q 47.125 39.59375 43.09375 43.984375 
Q 39.0625 48.390625 32.421875 48.390625 
Q 24.90625 48.390625 20.390625 44.140625 
Q 15.875 39.890625 15.1875 32.171875 
z
M 24.671875 79.984375 
L 38.4375 61.71875 
L 30.96875 61.71875 
L 15.046875 79.984375 
z
" id="DejaVuSans-232"/>
     </defs>
     <g transform="translate(564.037615 485.290534)scale(0.1 -0.1)">
      <use xlink:href="#DejaVuSans-101"/>
      <use x="61.507812" xlink:href="#DejaVuSans-120"/>
      <use x="120.671875" xlink:href="#DejaVuSans-99"/>
      <use x="175.652344" xlink:href="#DejaVuSans-232"/>
      <use x="237.175781" xlink:href="#DejaVuSans-115"/>
     </g>
    </g>
   </g>
   <g id="text_57">
    <g clip-path="url(#p9ce3ba6a86)">
     <!-- on -->
     <g transform="translate(620.858897 485.290534)scale(0.1 -0.1)">
      <use xlink:href="#DejaVuSans-111"/>
      <use x="61.181641" xlink:href="#DejaVuSans-110"/>
     </g>
    </g>
   </g>
   <g id="text_58">
    <g clip-path="url(#p9ce3ba6a86)">
     <!-- se -->
     <g transform="translate(669.990335 485.290534)scale(0.1 -0.1)">
      <use xlink:href="#DejaVuSans-115"/>
      <use x="52.099609" xlink:href="#DejaVuSans-101"/>
     </g>
    </g>
   </g>
   <g id="text_59">
    <g clip-path="url(#p9ce3ba6a86)">
     <!-- jeta -->
     <defs>
      <path d="M 9.421875 54.6875 
L 18.40625 54.6875 
L 18.40625 -0.984375 
Q 18.40625 -11.421875 14.421875 -16.109375 
Q 10.453125 -20.796875 1.609375 -20.796875 
L -1.8125 -20.796875 
L -1.8125 -13.1875 
L 0.59375 -13.1875 
Q 5.71875 -13.1875 7.5625 -10.8125 
Q 9.421875 -8.453125 9.421875 -0.984375 
z
M 9.421875 75.984375 
L 18.40625 75.984375 
L 18.40625 64.59375 
L 9.421875 64.59375 
z
" id="DejaVuSans-106"/>
     </defs>
     <g transform="translate(714.766304 485.290534)scale(0.1 -0.1)">
      <use xlink:href="#DejaVuSans-106"/>
      <use x="27.783203" xlink:href="#DejaVuSans-101"/>
      <use x="89.306641" xlink:href="#DejaVuSans-116"/>
      <use x="128.515625" xlink:href="#DejaVuSans-97"/>
     </g>
    </g>
   </g>
   <g id="text_60">
    <g clip-path="url(#p9ce3ba6a86)">
     <!-- dans -->
     <g transform="translate(760.828992 485.290534)scale(0.1 -0.1)">
      <use xlink:href="#DejaVuSans-100"/>
      <use x="63.476562" xlink:href="#DejaVuSans-97"/>
      <use x="124.755859" xlink:href="#DejaVuSans-110"/>
      <use x="188.134766" xlink:href="#DejaVuSans-115"/>
     </g>
    </g>
   </g>
   <g id="text_61">
    <g clip-path="url(#p9ce3ba6a86)">
     <!-- un -->
     <g transform="translate(815.087773 485.290534)scale(0.1 -0.1)">
      <use xlink:href="#DejaVuSans-117"/>
      <use x="63.378906" xlink:href="#DejaVuSans-110"/>
     </g>
    </g>
   </g>
   <g id="text_62">
    <g clip-path="url(#p9ce3ba6a86)">
     <!-- autre -->
     <g transform="translate(856.686399 485.290534)scale(0.1 -0.1)">
      <use xlink:href="#DejaVuSans-97"/>
      <use x="61.279297" xlink:href="#DejaVuSans-117"/>
      <use x="124.658203" xlink:href="#DejaVuSans-116"/>
      <use x="163.867188" xlink:href="#DejaVuSans-114"/>
      <use x="204.949219" xlink:href="#DejaVuSans-101"/>
     </g>
    </g>
   </g>
   <g id="text_63">
    <g clip-path="url(#p9ce3ba6a86)">
     <!-- . -->
     <defs>
      <path d="M 10.6875 12.40625 
L 21 12.40625 
L 21 0 
L 10.6875 0 
z
" id="DejaVuSans-46"/>
     </defs>
     <g transform="translate(917.005337 485.290534)scale(0.1 -0.1)">
      <use xlink:href="#DejaVuSans-46"/>
     </g>
    </g>
   </g>
   <g id="text_64">
    <g clip-path="url(#p9ce3ba6a86)">
     <!-- 1.1 -->
     <defs>
      <path d="M 12.40625 8.296875 
L 28.515625 8.296875 
L 28.515625 63.921875 
L 10.984375 60.40625 
L 10.984375 69.390625 
L 28.421875 72.90625 
L 38.28125 72.90625 
L 38.28125 8.296875 
L 54.390625 8.296875 
L 54.390625 0 
L 12.40625 0 
z
" id="DejaVuSans-49"/>
     </defs>
     <g transform="translate(533.302732 26.894883)scale(0.1 -0.1)">
      <use xlink:href="#DejaVuSans-49"/>
      <use x="63.623047" xlink:href="#DejaVuSans-46"/>
      <use x="95.410156" xlink:href="#DejaVuSans-49"/>
     </g>
    </g>
   </g>
   <g id="text_65">
    <g clip-path="url(#p9ce3ba6a86)">
     <!-- 1.2 -->
     <defs>
      <path d="M 19.1875 8.296875 
L 53.609375 8.296875 
L 53.609375 0 
L 7.328125 0 
L 7.328125 8.296875 
Q 12.9375 14.109375 22.625 23.890625 
Q 32.328125 33.6875 34.8125 36.53125 
Q 39.546875 41.84375 41.421875 45.53125 
Q 43.3125 49.21875 43.3125 52.78125 
Q 43.3125 58.59375 39.234375 62.25 
Q 35.15625 65.921875 28.609375 65.921875 
Q 23.96875 65.921875 18.8125 64.3125 
Q 13.671875 62.703125 7.8125 59.421875 
L 7.8125 69.390625 
Q 13.765625 71.78125 18.9375 73 
Q 24.125 74.21875 28.421875 74.21875 
Q 39.75 74.21875 46.484375 68.546875 
Q 53.21875 62.890625 53.21875 53.421875 
Q 53.21875 48.921875 51.53125 44.890625 
Q 49.859375 40.875 45.40625 35.40625 
Q 44.1875 33.984375 37.640625 27.21875 
Q 31.109375 20.453125 19.1875 8.296875 
z
" id="DejaVuSans-50"/>
     </defs>
     <g transform="translate(533.302732 121.817444)scale(0.1 -0.1)">
      <use xlink:href="#DejaVuSans-49"/>
      <use x="63.623047" xlink:href="#DejaVuSans-46"/>
      <use x="95.410156" xlink:href="#DejaVuSans-50"/>
     </g>
    </g>
   </g>
   <g id="text_66">
    <g clip-path="url(#p9ce3ba6a86)">
     <!-- 1.4 -->
     <defs>
      <path d="M 37.796875 64.3125 
L 12.890625 25.390625 
L 37.796875 25.390625 
z
M 35.203125 72.90625 
L 47.609375 72.90625 
L 47.609375 25.390625 
L 58.015625 25.390625 
L 58.015625 17.1875 
L 47.609375 17.1875 
L 47.609375 0 
L 37.796875 0 
L 37.796875 17.1875 
L 4.890625 17.1875 
L 4.890625 26.703125 
z
" id="DejaVuSans-52"/>
     </defs>
     <g transform="translate(157.582112 214.625355)scale(0.1 -0.1)">
      <use xlink:href="#DejaVuSans-49"/>
      <use x="63.623047" xlink:href="#DejaVuSans-46"/>
      <use x="95.410156" xlink:href="#DejaVuSans-52"/>
     </g>
    </g>
   </g>
   <g id="text_67">
    <g clip-path="url(#p9ce3ba6a86)">
     <!-- 1.5 -->
     <defs>
      <path d="M 10.796875 72.90625 
L 49.515625 72.90625 
L 49.515625 64.59375 
L 19.828125 64.59375 
L 19.828125 46.734375 
Q 21.96875 47.46875 24.109375 47.828125 
Q 26.265625 48.1875 28.421875 48.1875 
Q 40.625 48.1875 47.75 41.5 
Q 54.890625 34.8125 54.890625 23.390625 
Q 54.890625 11.625 47.5625 5.09375 
Q 40.234375 -1.421875 26.90625 -1.421875 
Q 22.3125 -1.421875 17.546875 -0.640625 
Q 12.796875 0.140625 7.71875 1.703125 
L 7.71875 11.625 
Q 12.109375 9.234375 16.796875 8.0625 
Q 21.484375 6.890625 26.703125 6.890625 
Q 35.15625 6.890625 40.078125 11.328125 
Q 45.015625 15.765625 45.015625 23.390625 
Q 45.015625 31 40.078125 35.4375 
Q 35.15625 39.890625 26.703125 39.890625 
Q 22.75 39.890625 18.8125 39.015625 
Q 14.890625 38.140625 10.796875 36.28125 
z
" id="DejaVuSans-53"/>
     </defs>
     <g transform="translate(521.966334 305.679942)scale(0.1 -0.1)">
      <use xlink:href="#DejaVuSans-49"/>
      <use x="63.623047" xlink:href="#DejaVuSans-46"/>
      <use x="95.410156" xlink:href="#DejaVuSans-53"/>
     </g>
    </g>
   </g>
   <g id="text_68">
    <g clip-path="url(#p9ce3ba6a86)">
     <!-- 1.6 -->
     <defs>
      <path d="M 33.015625 40.375 
Q 26.375 40.375 22.484375 35.828125 
Q 18.609375 31.296875 18.609375 23.390625 
Q 18.609375 15.53125 22.484375 10.953125 
Q 26.375 6.390625 33.015625 6.390625 
Q 39.65625 6.390625 43.53125 10.953125 
Q 47.40625 15.53125 47.40625 23.390625 
Q 47.40625 31.296875 43.53125 35.828125 
Q 39.65625 40.375 33.015625 40.375 
z
M 52.59375 71.296875 
L 52.59375 62.3125 
Q 48.875 64.0625 45.09375 64.984375 
Q 41.3125 65.921875 37.59375 65.921875 
Q 27.828125 65.921875 22.671875 59.328125 
Q 17.53125 52.734375 16.796875 39.40625 
Q 19.671875 43.65625 24.015625 45.921875 
Q 28.375 48.1875 33.59375 48.1875 
Q 44.578125 48.1875 50.953125 41.515625 
Q 57.328125 34.859375 57.328125 23.390625 
Q 57.328125 12.15625 50.6875 5.359375 
Q 44.046875 -1.421875 33.015625 -1.421875 
Q 20.359375 -1.421875 13.671875 8.265625 
Q 6.984375 17.96875 6.984375 36.375 
Q 6.984375 53.65625 15.1875 63.9375 
Q 23.390625 74.21875 37.203125 74.21875 
Q 40.921875 74.21875 44.703125 73.484375 
Q 48.484375 72.75 52.59375 71.296875 
z
" id="DejaVuSans-54"/>
     </defs>
     <g transform="translate(619.135459 395.485238)scale(0.1 -0.1)">
      <use xlink:href="#DejaVuSans-49"/>
      <use x="63.623047" xlink:href="#DejaVuSans-46"/>
      <use x="95.410156" xlink:href="#DejaVuSans-54"/>
     </g>
    </g>
   </g>
   <g id="text_69">
    <g clip-path="url(#p9ce3ba6a86)">
     <!-- 1.7 -->
     <defs>
      <path d="M 8.203125 72.90625 
L 55.078125 72.90625 
L 55.078125 68.703125 
L 28.609375 0 
L 18.3125 0 
L 43.21875 64.59375 
L 8.203125 64.59375 
z
" id="DejaVuSans-55"/>
     </defs>
     <g transform="translate(692.012304 395.485238)scale(0.1 -0.1)">
      <use xlink:href="#DejaVuSans-49"/>
      <use x="63.623047" xlink:href="#DejaVuSans-46"/>
      <use x="95.410156" xlink:href="#DejaVuSans-55"/>
     </g>
    </g>
   </g>
   <g id="text_70">
    <g clip-path="url(#p9ce3ba6a86)">
     <!-- 1.8 -->
     <defs>
      <path d="M 31.78125 34.625 
Q 24.75 34.625 20.71875 30.859375 
Q 16.703125 27.09375 16.703125 20.515625 
Q 16.703125 13.921875 20.71875 10.15625 
Q 24.75 6.390625 31.78125 6.390625 
Q 38.8125 6.390625 42.859375 10.171875 
Q 46.921875 13.96875 46.921875 20.515625 
Q 46.921875 27.09375 42.890625 30.859375 
Q 38.875 34.625 31.78125 34.625 
z
M 21.921875 38.8125 
Q 15.578125 40.375 12.03125 44.71875 
Q 8.5 49.078125 8.5 55.328125 
Q 8.5 64.0625 14.71875 69.140625 
Q 20.953125 74.21875 31.78125 74.21875 
Q 42.671875 74.21875 48.875 69.140625 
Q 55.078125 64.0625 55.078125 55.328125 
Q 55.078125 49.078125 51.53125 44.71875 
Q 48 40.375 41.703125 38.8125 
Q 48.828125 37.15625 52.796875 32.3125 
Q 56.78125 27.484375 56.78125 20.515625 
Q 56.78125 9.90625 50.3125 4.234375 
Q 43.84375 -1.421875 31.78125 -1.421875 
Q 19.734375 -1.421875 13.25 4.234375 
Q 6.78125 9.90625 6.78125 20.515625 
Q 6.78125 27.484375 10.78125 32.3125 
Q 14.796875 37.15625 21.921875 38.8125 
z
M 18.3125 54.390625 
Q 18.3125 48.734375 21.84375 45.5625 
Q 25.390625 42.390625 31.78125 42.390625 
Q 38.140625 42.390625 41.71875 45.5625 
Q 45.3125 48.734375 45.3125 54.390625 
Q 45.3125 60.0625 41.71875 63.234375 
Q 38.140625 66.40625 31.78125 66.40625 
Q 25.390625 66.40625 21.84375 63.234375 
Q 18.3125 60.0625 18.3125 54.390625 
z
" id="DejaVuSans-56"/>
     </defs>
     <g transform="translate(784.322973 305.679942)scale(0.1 -0.1)">
      <use xlink:href="#DejaVuSans-49"/>
      <use x="63.623047" xlink:href="#DejaVuSans-46"/>
      <use x="95.410156" xlink:href="#DejaVuSans-56"/>
     </g>
    </g>
   </g>
   <g id="text_71">
    <g clip-path="url(#p9ce3ba6a86)">
     <!-- 1.10 -->
     <defs>
      <path d="M 31.78125 66.40625 
Q 24.171875 66.40625 20.328125 58.90625 
Q 16.5 51.421875 16.5 36.375 
Q 16.5 21.390625 20.328125 13.890625 
Q 24.171875 6.390625 31.78125 6.390625 
Q 39.453125 6.390625 43.28125 13.890625 
Q 47.125 21.390625 47.125 36.375 
Q 47.125 51.421875 43.28125 58.90625 
Q 39.453125 66.40625 31.78125 66.40625 
z
M 31.78125 74.21875 
Q 44.046875 74.21875 50.515625 64.515625 
Q 56.984375 54.828125 56.984375 36.375 
Q 56.984375 17.96875 50.515625 8.265625 
Q 44.046875 -1.421875 31.78125 -1.421875 
Q 19.53125 -1.421875 13.0625 8.265625 
Q 6.59375 17.96875 6.59375 36.375 
Q 6.59375 54.828125 13.0625 64.515625 
Q 19.53125 74.21875 31.78125 74.21875 
z
" id="DejaVuSans-48"/>
     </defs>
     <g transform="translate(761.707898 395.485238)scale(0.1 -0.1)">
      <use xlink:href="#DejaVuSans-49"/>
      <use x="63.623047" xlink:href="#DejaVuSans-46"/>
      <use x="95.410156" xlink:href="#DejaVuSans-49"/>
      <use x="159.033203" xlink:href="#DejaVuSans-48"/>
     </g>
    </g>
   </g>
   <g id="text_72">
    <g clip-path="url(#p9ce3ba6a86)">
     <!-- 1.11 -->
     <g transform="translate(810.292461 395.485238)scale(0.1 -0.1)">
      <use xlink:href="#DejaVuSans-49"/>
      <use x="63.623047" xlink:href="#DejaVuSans-46"/>
      <use x="95.410156" xlink:href="#DejaVuSans-49"/>
      <use x="159.033203" xlink:href="#DejaVuSans-49"/>
     </g>
    </g>
   </g>
   <g id="text_73">
    <g clip-path="url(#p9ce3ba6a86)">
     <!-- 1.12 -->
     <g transform="translate(858.877024 395.485238)scale(0.1 -0.1)">
      <use xlink:href="#DejaVuSans-49"/>
      <use x="63.623047" xlink:href="#DejaVuSans-46"/>
      <use x="95.410156" xlink:href="#DejaVuSans-49"/>
      <use x="159.033203" xlink:href="#DejaVuSans-50"/>
     </g>
    </g>
   </g>
   <g id="text_74">
    <g clip-path="url(#p9ce3ba6a86)">
     <!-- 1.13 -->
     <defs>
      <path d="M 40.578125 39.3125 
Q 47.65625 37.796875 51.625 33 
Q 55.609375 28.21875 55.609375 21.1875 
Q 55.609375 10.40625 48.1875 4.484375 
Q 40.765625 -1.421875 27.09375 -1.421875 
Q 22.515625 -1.421875 17.65625 -0.515625 
Q 12.796875 0.390625 7.625 2.203125 
L 7.625 11.71875 
Q 11.71875 9.328125 16.59375 8.109375 
Q 21.484375 6.890625 26.8125 6.890625 
Q 36.078125 6.890625 40.9375 10.546875 
Q 45.796875 14.203125 45.796875 21.1875 
Q 45.796875 27.640625 41.28125 31.265625 
Q 36.765625 34.90625 28.71875 34.90625 
L 20.21875 34.90625 
L 20.21875 43.015625 
L 29.109375 43.015625 
Q 36.375 43.015625 40.234375 45.921875 
Q 44.09375 48.828125 44.09375 54.296875 
Q 44.09375 59.90625 40.109375 62.90625 
Q 36.140625 65.921875 28.71875 65.921875 
Q 24.65625 65.921875 20.015625 65.03125 
Q 15.375 64.15625 9.8125 62.3125 
L 9.8125 71.09375 
Q 15.4375 72.65625 20.34375 73.4375 
Q 25.25 74.21875 29.59375 74.21875 
Q 40.828125 74.21875 47.359375 69.109375 
Q 53.90625 64.015625 53.90625 55.328125 
Q 53.90625 49.265625 50.4375 45.09375 
Q 46.96875 40.921875 40.578125 39.3125 
z
" id="DejaVuSans-51"/>
     </defs>
     <g transform="translate(470.200521 395.485238)scale(0.1 -0.1)">
      <use xlink:href="#DejaVuSans-49"/>
      <use x="63.623047" xlink:href="#DejaVuSans-46"/>
      <use x="95.410156" xlink:href="#DejaVuSans-49"/>
      <use x="159.033203" xlink:href="#DejaVuSans-51"/>
     </g>
    </g>
   </g>
   <g id="text_75">
    <g clip-path="url(#p9ce3ba6a86)">
     <!-- 1.14 -->
     <g transform="translate(518.785084 395.485238)scale(0.1 -0.1)">
      <use xlink:href="#DejaVuSans-49"/>
      <use x="63.623047" xlink:href="#DejaVuSans-46"/>
      <use x="95.410156" xlink:href="#DejaVuSans-49"/>
      <use x="159.033203" xlink:href="#DejaVuSans-52"/>
     </g>
    </g>
   </g>
   <g id="text_76">
    <g clip-path="url(#p9ce3ba6a86)">
     <!-- 1.15 -->
     <g transform="translate(567.369647 395.485238)scale(0.1 -0.1)">
      <use xlink:href="#DejaVuSans-49"/>
      <use x="63.623047" xlink:href="#DejaVuSans-46"/>
      <use x="95.410156" xlink:href="#DejaVuSans-49"/>
      <use x="159.033203" xlink:href="#DejaVuSans-53"/>
     </g>
    </g>
   </g>
   <g id="text_77">
    <g clip-path="url(#p9ce3ba6a86)">
     <!-- 1.16 -->
     <g transform="translate(32.939455 395.485238)scale(0.1 -0.1)">
      <use xlink:href="#DejaVuSans-49"/>
      <use x="63.623047" xlink:href="#DejaVuSans-46"/>
      <use x="95.410156" xlink:href="#DejaVuSans-49"/>
      <use x="159.033203" xlink:href="#DejaVuSans-54"/>
     </g>
    </g>
   </g>
   <g id="text_78">
    <g clip-path="url(#p9ce3ba6a86)">
     <!-- 1.17 -->
     <g transform="translate(105.816299 305.679942)scale(0.1 -0.1)">
      <use xlink:href="#DejaVuSans-49"/>
      <use x="63.623047" xlink:href="#DejaVuSans-46"/>
      <use x="95.410156" xlink:href="#DejaVuSans-49"/>
      <use x="159.033203" xlink:href="#DejaVuSans-55"/>
     </g>
    </g>
   </g>
   <g id="text_79">
    <g clip-path="url(#p9ce3ba6a86)">
     <!-- 1.18 -->
     <g transform="translate(178.693144 395.485238)scale(0.1 -0.1)">
      <use xlink:href="#DejaVuSans-49"/>
      <use x="63.623047" xlink:href="#DejaVuSans-46"/>
      <use x="95.410156" xlink:href="#DejaVuSans-49"/>
      <use x="159.033203" xlink:href="#DejaVuSans-56"/>
     </g>
    </g>
   </g>
   <g id="text_80">
    <g clip-path="url(#p9ce3ba6a86)">
     <!-- 1.19 -->
     <defs>
      <path d="M 10.984375 1.515625 
L 10.984375 10.5 
Q 14.703125 8.734375 18.5 7.8125 
Q 22.3125 6.890625 25.984375 6.890625 
Q 35.75 6.890625 40.890625 13.453125 
Q 46.046875 20.015625 46.78125 33.40625 
Q 43.953125 29.203125 39.59375 26.953125 
Q 35.25 24.703125 29.984375 24.703125 
Q 19.046875 24.703125 12.671875 31.3125 
Q 6.296875 37.9375 6.296875 49.421875 
Q 6.296875 60.640625 12.9375 67.421875 
Q 19.578125 74.21875 30.609375 74.21875 
Q 43.265625 74.21875 49.921875 64.515625 
Q 56.59375 54.828125 56.59375 36.375 
Q 56.59375 19.140625 48.40625 8.859375 
Q 40.234375 -1.421875 26.421875 -1.421875 
Q 22.703125 -1.421875 18.890625 -0.6875 
Q 15.09375 0.046875 10.984375 1.515625 
z
M 30.609375 32.421875 
Q 37.25 32.421875 41.125 36.953125 
Q 45.015625 41.5 45.015625 49.421875 
Q 45.015625 57.28125 41.125 61.84375 
Q 37.25 66.40625 30.609375 66.40625 
Q 23.96875 66.40625 20.09375 61.84375 
Q 16.21875 57.28125 16.21875 49.421875 
Q 16.21875 41.5 20.09375 36.953125 
Q 23.96875 32.421875 30.609375 32.421875 
z
" id="DejaVuSans-57"/>
     </defs>
     <g transform="translate(300.154551 305.679942)scale(0.1 -0.1)">
      <use xlink:href="#DejaVuSans-49"/>
      <use x="63.623047" xlink:href="#DejaVuSans-46"/>
      <use x="95.410156" xlink:href="#DejaVuSans-49"/>
      <use x="159.033203" xlink:href="#DejaVuSans-57"/>
     </g>
    </g>
   </g>
   <g id="text_81">
    <g clip-path="url(#p9ce3ba6a86)">
     <!-- 1.20 -->
     <g transform="translate(227.277707 395.485238)scale(0.1 -0.1)">
      <use xlink:href="#DejaVuSans-49"/>
      <use x="63.623047" xlink:href="#DejaVuSans-46"/>
      <use x="95.410156" xlink:href="#DejaVuSans-50"/>
      <use x="159.033203" xlink:href="#DejaVuSans-48"/>
     </g>
    </g>
   </g>
   <g id="text_82">
    <g clip-path="url(#p9ce3ba6a86)">
     <!-- 1.21 -->
     <g transform="translate(275.862269 395.485238)scale(0.1 -0.1)">
      <use xlink:href="#DejaVuSans-49"/>
      <use x="63.623047" xlink:href="#DejaVuSans-46"/>
      <use x="95.410156" xlink:href="#DejaVuSans-50"/>
      <use x="159.033203" xlink:href="#DejaVuSans-49"/>
     </g>
    </g>
   </g>
   <g id="text_83">
    <g clip-path="url(#p9ce3ba6a86)">
     <!-- 1.22 -->
     <g transform="translate(324.446832 395.485238)scale(0.1 -0.1)">
      <use xlink:href="#DejaVuSans-49"/>
      <use x="63.623047" xlink:href="#DejaVuSans-46"/>
      <use x="95.410156" xlink:href="#DejaVuSans-50"/>
      <use x="159.033203" xlink:href="#DejaVuSans-50"/>
     </g>
    </g>
   </g>
   <g id="text_84">
    <g clip-path="url(#p9ce3ba6a86)">
     <!-- 1.23 -->
     <g transform="translate(373.031395 395.485238)scale(0.1 -0.1)">
      <use xlink:href="#DejaVuSans-49"/>
      <use x="63.623047" xlink:href="#DejaVuSans-46"/>
      <use x="95.410156" xlink:href="#DejaVuSans-50"/>
      <use x="159.033203" xlink:href="#DejaVuSans-51"/>
     </g>
    </g>
   </g>
   <g id="text_85">
    <g clip-path="url(#p9ce3ba6a86)">
     <!-- 1.24 -->
     <g transform="translate(81.524018 395.485238)scale(0.1 -0.1)">
      <use xlink:href="#DejaVuSans-49"/>
      <use x="63.623047" xlink:href="#DejaVuSans-46"/>
      <use x="95.410156" xlink:href="#DejaVuSans-50"/>
      <use x="159.033203" xlink:href="#DejaVuSans-52"/>
     </g>
    </g>
   </g>
   <g id="text_86">
    <g clip-path="url(#p9ce3ba6a86)">
     <!-- 1.25 -->
     <g transform="translate(130.108581 395.485238)scale(0.1 -0.1)">
      <use xlink:href="#DejaVuSans-49"/>
      <use x="63.623047" xlink:href="#DejaVuSans-46"/>
      <use x="95.410156" xlink:href="#DejaVuSans-50"/>
      <use x="159.033203" xlink:href="#DejaVuSans-53"/>
     </g>
    </g>
   </g>
   <g id="text_87">
    <g clip-path="url(#p9ce3ba6a86)">
     <!-- 1.26 -->
     <g transform="translate(421.615958 395.485238)scale(0.1 -0.1)">
      <use xlink:href="#DejaVuSans-49"/>
      <use x="63.623047" xlink:href="#DejaVuSans-46"/>
      <use x="95.410156" xlink:href="#DejaVuSans-50"/>
      <use x="159.033203" xlink:href="#DejaVuSans-54"/>
     </g>
    </g>
   </g>
   <g id="text_88">
    <g clip-path="url(#p9ce3ba6a86)">
     <!-- 1.27 -->
     <g transform="translate(907.461587 395.485238)scale(0.1 -0.1)">
      <use xlink:href="#DejaVuSans-49"/>
      <use x="63.623047" xlink:href="#DejaVuSans-46"/>
      <use x="95.410156" xlink:href="#DejaVuSans-50"/>
      <use x="159.033203" xlink:href="#DejaVuSans-55"/>
     </g>
    </g>
   </g>
  </g>
 </g>
 <defs>
  <clipPath id="p9ce3ba6a86">
   <rect height="506.666667" width="962.666667" x="0" y="0"/>
  </clipPath>
 </defs>
</svg>
