<?xml version="1.0" encoding="UTF-8"?>
<!DOCTYPE svg  PUBLIC '-//W3C//DTD SVG 1.1//EN'  'http://www.w3.org/Graphics/SVG/1.1/DTD/svg11.dtd'>
<svg width="1773.3pt" height="933.33pt" version="1.1" viewBox="0 0 1773.3 933.33" xmlns="http://www.w3.org/2000/svg" xmlns:xlink="http://www.w3.org/1999/xlink">
<defs>
<style type="text/css">*{stroke-linecap:butt;stroke-linejoin:round;white-space:pre;}</style>
</defs>
<path d="m0 933.33h1773.3v-933.33h-1773.3z" fill="#fff"/>
<g fill="none" stroke="#000">
<path d="m1030 43.338-523.7 148.29" clip-path="url(#a)"/>
<path d="m1030 43.338 169.43 292.91" clip-path="url(#a)"/>
<path d="m1030 43.338 335.9 434.3" clip-path="url(#a)"/>
<path d="m1030 43.338-165.07 709.84" clip-path="url(#a)"/>
<path d="m1030 43.338 183.43 709.84" clip-path="url(#a)"/>
<path d="m506.25 191.63-229.46 561.54" clip-path="url(#a)"/>
<path d="m506.25 191.63-319.31 144.61" clip-path="url(#a)"/>
<path d="m506.25 191.63 10.134 561.54" clip-path="url(#a)"/>
<path d="m506.25 191.63 75.478 424.73" clip-path="url(#a)"/>
<path d="m506.25 191.63 213.43 424.73" clip-path="url(#a)"/>
<path d="m506.25 191.63 249.73 424.73" clip-path="url(#a)"/>
<path d="m1199.4 336.25 493.19 553.75" clip-path="url(#a)"/>
<path d="m1199.4 336.25 90.237 141.39" clip-path="url(#a)"/>
<path d="m1199.4 336.25-203.81 416.93" clip-path="url(#a)"/>
<path d="m1199.4 336.25-160.25 416.93" clip-path="url(#a)"/>
<path d="m1199.4 336.25-116.69 416.93" clip-path="url(#a)"/>
<path d="m1199.4 336.25-73.123 416.93" clip-path="url(#a)"/>
<path d="m1199.4 336.25-29.56 416.93" clip-path="url(#a)"/>
<path d="m1365.9 477.64 239.59 412.36" clip-path="url(#a)"/>
<path d="m1365.9 477.64-108.91 275.54" clip-path="url(#a)"/>
<path d="m1365.9 477.64 21.781 138.72" clip-path="url(#a)"/>
<path d="m1365.9 477.64-21.781 275.54" clip-path="url(#a)"/>
<path d="m1365.9 477.64 152.47 138.72" clip-path="url(#a)"/>
<path d="m1365.9 477.64-283.16 275.54" clip-path="url(#a)" stroke-dasharray="3.7,1.6"/>
<path d="m1256.9 753.18v136.82" clip-path="url(#a)"/>
<path d="m1387.6 616.36-43.563 136.82" clip-path="url(#a)"/>
<path d="m1387.6 616.36 43.563 136.82" clip-path="url(#a)"/>
<path d="m1344.1 753.18v136.82" clip-path="url(#a)"/>
<path d="m1518.3 616.36-43.563 136.82" clip-path="url(#a)"/>
<path d="m1518.3 616.36v136.82" clip-path="url(#a)"/>
<path d="m1518.3 616.36 43.563 136.82" clip-path="url(#a)"/>
<path d="m1474.8 753.18v136.82" clip-path="url(#a)"/>
<path d="m1518.3 753.18v136.82" clip-path="url(#a)"/>
<path d="m1344.1 753.18-43.563 136.82" clip-path="url(#a)"/>
<path d="m1344.1 753.18 43.563 136.82" clip-path="url(#a)"/>
<path d="m1431.2 753.18v136.82" clip-path="url(#a)"/>
<path d="m1289.6 477.64 359.39 412.36" clip-path="url(#a)"/>
<path d="m1289.6 477.64-359.39 138.72" clip-path="url(#a)"/>
<path d="m995.57 753.18v136.82" clip-path="url(#a)"/>
<path d="m1039.1 753.18v136.82" clip-path="url(#a)"/>
<path d="m1082.7 753.18v136.82" clip-path="url(#a)"/>
<path d="m1126.3 753.18v136.82" clip-path="url(#a)"/>
<path d="m1169.8 753.18v136.82" clip-path="url(#a)"/>
<path d="m930.23 616.36-21.781 136.82" clip-path="url(#a)"/>
<path d="m930.23 616.36 21.781 136.82" clip-path="url(#a)"/>
<path d="m908.45 753.18v136.82" clip-path="url(#a)"/>
<path d="m952.01 753.18v136.82" clip-path="url(#a)"/>
<path d="m276.79 753.18-196.03 136.82" clip-path="url(#a)"/>
<path d="m276.79 753.18 196.03 136.82" clip-path="url(#a)"/>
<path d="m186.94 336.25-62.621 416.93" clip-path="url(#a)"/>
<path d="m186.94 336.25 62.621 141.39" clip-path="url(#a)"/>
<path d="m516.38 753.18v136.82" clip-path="url(#a)"/>
<path d="m581.73 616.36-21.781 136.82" clip-path="url(#a)"/>
<path d="m581.73 616.36 21.781 136.82" clip-path="url(#a)"/>
<path d="m719.68 616.36-72.604 136.82" clip-path="url(#a)"/>
<path d="m719.68 616.36-29.042 136.82" clip-path="url(#a)"/>
<path d="m719.68 616.36 101.65 136.82" clip-path="url(#a)"/>
<path d="m755.98 616.36-21.781 136.82" clip-path="url(#a)"/>
<path d="m755.98 616.36 21.781 136.82" clip-path="url(#a)"/>
<path d="m734.2 753.18v136.82" clip-path="url(#a)"/>
<path d="m777.76 753.18v136.82" clip-path="url(#a)"/>
<path d="m647.07 753.18v136.82" clip-path="url(#a)"/>
<path d="m690.64 753.18v136.82" clip-path="url(#a)"/>
<path d="m821.32 753.18v136.82" clip-path="url(#a)"/>
<path d="m559.95 753.18v136.82" clip-path="url(#a)"/>
<path d="m603.51 753.18v136.82" clip-path="url(#a)"/>
<path d="m124.32 753.18v136.82" clip-path="url(#a)"/>
<path d="m249.56 477.64-81.68 275.54" clip-path="url(#a)"/>
<path d="m249.56 477.64-38.117 275.54" clip-path="url(#a)"/>
<path d="m249.56 477.64 5.4453 275.54" clip-path="url(#a)"/>
<path d="m249.56 477.64 114.35 138.72" clip-path="url(#a)"/>
<path d="m167.88 753.18v136.82" clip-path="url(#a)"/>
<path d="m211.45 753.18v136.82" clip-path="url(#a)"/>
<path d="m255.01 753.18v136.82" clip-path="url(#a)"/>
<path d="m363.92 616.36-65.344 136.82" clip-path="url(#a)"/>
<path d="m363.92 616.36-21.781 136.82" clip-path="url(#a)"/>
<path d="m363.92 616.36 21.781 136.82" clip-path="url(#a)"/>
<path d="m363.92 616.36 65.344 136.82" clip-path="url(#a)"/>
<path d="m298.57 753.18v136.82" clip-path="url(#a)"/>
<path d="m342.13 753.18v136.82" clip-path="url(#a)"/>
<path d="m385.7 753.18v136.82" clip-path="url(#a)"/>
<path d="m429.26 753.18v136.82" clip-path="url(#a)"/>
<path d="m864.89 753.18v136.82" clip-path="url(#a)"/>
<path d="m1213.4 753.18v136.82" clip-path="url(#a)"/>
<path d="m1561.9 753.18v136.82" clip-path="url(#a)"/>
</g>
<path d="m766.92 124.34 5.7886-1.6392q2.3092-0.65389 1.6553-2.9631l-2.1095-7.4496q-0.65389-2.3092-2.9631-1.6553l-5.7886 1.6392q-2.3092 0.65389-1.6553 2.9631l2.1095 7.4496q0.65389 2.3092 2.9631 1.6553z" clip-path="url(#a)" fill="#fff" stroke="#fff"/>
<g clip-path="url(#a)">
<defs>
<path id="ak" d="m9.8125 72.906h9.8594v-29.891h35.844v29.891h9.8594v-72.906h-9.8594v34.719h-35.844v-34.719h-9.8594z"/>
</defs>
<g transform="translate(765.81 120.43) rotate(-15.81) scale(.08 -.08)">
<use xlink:href="#ak"/>
</g>
</g>
<path d="m1107.7 190.33 3.0124 5.2078q1.2017 2.0775 3.2792 0.87577l6.702-3.8768q2.0775-1.2017 0.87577-3.2792l-3.0124-5.2078q-1.2017-2.0775-3.2792-0.87577l-6.702 3.8768q-2.0775 1.2017-0.87577 3.2792z" clip-path="url(#a)" fill="#fff" stroke="#fff"/>
<g clip-path="url(#a)">
<g transform="translate(1111.3 188.29) rotate(59.953) scale(.08 -.08)">
<use xlink:href="#ak"/>
</g>
</g>
<path d="m1191.1 261.95 3.6807 4.7589q1.4683 1.8984 3.3667 0.43012l6.1244-4.7368q1.8984-1.4683 0.43012-3.3667l-3.6807-4.7589q-1.4683-1.8984-3.3667-0.43012l-6.1244 4.7368q-1.8984 1.4683-0.43012 3.3667z" clip-path="url(#a)" fill="#fff" stroke="#fff"/>
<g clip-path="url(#a)">
<g transform="translate(1194.3 259.46) rotate(52.28) scale(.08 -.08)">
<use xlink:href="#ak"/>
</g>
</g>
<path d="m952.86 402.53 1.3261-5.7028q0.54359-2.3376-1.794-2.8812l-7.5413-1.7537q-2.3376-0.5436-2.8812 1.794l-1.3261 5.7028q-0.5436 2.3376 1.794 2.8812l7.5413 1.7537q2.3376 0.5436 2.8812-1.794z" clip-path="url(#a)" fill="#fff" stroke="#fff"/>
<g clip-path="url(#a)">
<defs>
<path id="ah" d="m8.6875 72.906h9.9219v-44.297q0-11.719 4.2344-16.875 4.25-5.1406 13.781-5.1406 9.4688 0 13.719 5.1406 4.25 5.1562 4.25 16.875v44.297h9.9062v-45.516q0-14.25-7.0625-21.531-7.0469-7.2812-20.812-7.2812-13.828 0-20.891 7.2812-7.0469 7.2812-7.0469 21.531z"/>
</defs>
<g transform="translate(948.91 401.61) rotate(-76.909) scale(.08 -.08)">
<use xlink:href="#ah"/>
</g>
</g>
<path d="m1114.9 396.99 1.4649 5.6688q0.60047 2.3237 2.9241 1.7232l7.4962-1.9372q2.3237-0.60047 1.7232-2.9241l-1.4649-5.6688q-0.60047-2.3237-2.9241-1.7232l-7.4962 1.9372q-2.3237 0.60047-1.7232 2.9241z" clip-path="url(#a)" fill="#fff" stroke="#fff"/>
<g clip-path="url(#a)">
<g transform="translate(1118.8 395.98) rotate(75.511) scale(.08 -.08)">
<use xlink:href="#ah"/>
</g>
</g>
<path d="m396.4 477.04 1.8483-4.5232q0.90783-2.2217-1.3138-3.1295l-7.1672-2.9287q-2.2217-0.90783-3.1295 1.3138l-1.8483 4.5232q-0.90783 2.2217 1.3138 3.1295l7.1672 2.9287q2.2217 0.90783 3.1295-1.3138z" clip-path="url(#a)" fill="#fff" stroke="#fff"/>
<g clip-path="url(#a)">
<defs>
<path id="l" d="m-0.29688 72.906h61.672v-8.3125h-25.875v-64.594h-9.9062v64.594h-25.891z"/>
</defs>
<g transform="translate(392.64 475.5) rotate(-67.774) scale(.08 -.08)">
<use xlink:href="#l"/>
</g>
</g>
<path d="m346.69 270.78 4.9851-2.2577q2.1862-0.99014 1.1961-3.1764l-3.1942-7.0529q-0.99014-2.1862-3.1764-1.1961l-4.9851 2.2577q-2.1862 0.99014-1.1961 3.1764l3.1942 7.0529q0.99014 2.1862 3.1764 1.1961z" clip-path="url(#a)" fill="#fff" stroke="#fff"/>
<g clip-path="url(#a)">
<defs>
<path id="y" d="m34.188 63.188-13.391-36.281h26.812zm-5.5781 9.7188h11.188l27.781-72.906h-10.25l-6.6406 18.703h-32.859l-6.6406-18.703h-10.406z"/>
</defs>
<g transform="translate(345.01 267.08) rotate(-24.366) scale(.08 -.08)">
<use xlink:href="#y"/>
</g>
</g>
<path d="m504.99 469.44 0.11115 6.159q0.043307 2.3996 2.4429 2.3563l7.7412-0.13971q2.3996-0.043306 2.3563-2.4429l-0.11115-6.159q-0.043307-2.3996-2.4429-2.3563l-7.7412 0.13971q-2.3996 0.043306-2.3563 2.4429z" clip-path="url(#a)" fill="#fff" stroke="#fff"/>
<g clip-path="url(#a)">
<defs>
<path id="x" d="m19.672 64.797v-56.688h11.922q15.094 0 22.094 6.8281 7 6.8438 7 21.594 0 14.641-7 21.453t-22.094 6.8125zm-9.8594 8.1094h20.266q21.188 0 31.094-8.8125 9.9219-8.8125 9.9219-27.562 0-18.859-9.9688-27.703-9.9531-8.8281-31.047-8.8281h-20.266z"/>
</defs>
<g transform="translate(509.05 469.37) rotate(88.966) scale(.08 -.08)">
<use xlink:href="#x"/>
</g>
</g>
<path d="m537.28 402.06 1.0778 6.065q0.41992 2.363 2.7829 1.9431l7.6231-1.3547q2.363-0.41992 1.9431-2.7829l-1.0778-6.065q-0.41992-2.363-2.7829-1.9431l-7.6231 1.3547q-2.363 0.41992-1.9431 2.7829z" clip-path="url(#a)" fill="#fff" stroke="#fff"/>
<g clip-path="url(#a)">
<g transform="translate(541.28 401.35) rotate(79.923) scale(.08 -.08)">
<use xlink:href="#x"/>
</g>
</g>
<path d="m606.28 404.66 2.1659 4.3102q1.0776 2.1445 3.2221 1.0669l6.9182-3.4764q2.1445-1.0776 1.0669-3.2221l-2.1659-4.3102q-1.0776-2.1445-3.2221-1.0669l-6.9182 3.4764q-2.1445 1.0776-1.0669 3.2221z" clip-path="url(#a)" fill="#fff" stroke="#fff"/>
<g clip-path="url(#a)">
<defs>
<path id="w" d="m19.672 64.797v-27.391h12.406q6.8906 0 10.641 3.5625 3.7656 3.5625 3.7656 10.156 0 6.5469-3.7656 10.109-3.75 3.5625-10.641 3.5625zm-9.8594 8.1094h22.266q12.266 0 18.531-5.5469 6.2812-5.5469 6.2812-16.234 0-10.797-6.2812-16.312-6.2656-5.5156-18.531-5.5156h-12.406v-29.297h-9.8594z"/>
</defs>
<g transform="translate(609.91 402.83) rotate(63.32) scale(.08 -.08)">
<use xlink:href="#w"/>
</g>
</g>
<path d="m624.15 404.52 3.1222 5.3101q1.2164 2.0689 3.2853 0.85243l6.6743-3.9243q2.0689-1.2164 0.85243-3.2853l-3.1222-5.3101q-1.2164-2.0689-3.2853-0.85243l-6.6743 3.9243q-2.0689 1.2164-0.85243 3.2853z" clip-path="url(#a)" fill="#fff" stroke="#fff"/>
<g clip-path="url(#a)">
<g transform="translate(627.65 402.46) rotate(59.546) scale(.08 -.08)">
<use xlink:href="#x"/>
</g>
</g>
<path d="m1439.5 615.25 3.6397 4.0866q1.5962 1.7922 3.3884 0.196l5.7818-5.1495q1.7922-1.5962 0.196-3.3884l-3.6397-4.0866q-1.5962-1.7922-3.3884-0.196l-5.7818 5.1495q-1.7922 1.5962-0.196 3.3884z" clip-path="url(#a)" fill="#fff" stroke="#fff"/>
<g clip-path="url(#a)">
<g transform="translate(1442.5 612.55) rotate(48.31) scale(.08 -.08)">
<use xlink:href="#y"/>
</g>
</g>
<path d="m1237.7 408.01 2.9441 4.6131q1.2911 2.0231 3.3142 0.73195l6.5266-4.1653q2.0231-1.2911 0.73195-3.3142l-2.9441-4.6131q-1.2911-2.0231-3.3142-0.73195l-6.5266 4.1653q-2.0231 1.2911-0.73195 3.3142z" clip-path="url(#a)" fill="#fff" stroke="#fff"/>
<g clip-path="url(#a)">
<g transform="translate(1241.2 405.82) rotate(57.454) scale(.08 -.08)">
<use xlink:href="#y"/>
</g>
</g>
<path d="m1101.8 550.23 2.7053-5.5342q1.054-2.1562-1.1022-3.2102l-6.9559-3.4003q-2.1562-1.054-3.2102 1.1022l-2.7053 5.5342q-1.054 2.1562 1.1022 3.2102l6.9559 3.4003q2.1562 1.054 3.2102-1.1022z" clip-path="url(#a)" fill="#fff" stroke="#fff"/>
<g clip-path="url(#a)">
<g transform="translate(1098.1 548.45) rotate(-63.949) scale(.08 -.08)">
<use xlink:href="#x"/>
</g>
</g>
<path d="m1124 549.84 2.21-5.7499q0.86104-2.2402-1.3792-3.1013l-7.2271-2.7777q-2.2402-0.86104-3.1013 1.3792l-2.21 5.7499q-0.86104 2.2402 1.3792 3.1013l7.2271 2.7777q2.2402 0.86104 3.1013-1.3792z" clip-path="url(#a)" fill="#fff" stroke="#fff"/>
<g clip-path="url(#a)">
<g transform="translate(1120.2 548.38) rotate(-68.976) scale(.08 -.08)">
<use xlink:href="#x"/>
</g>
</g>
<path d="m1146.3 549.04 1.4749-5.27q0.64683-2.3112-1.6644-2.958l-7.456-2.0867q-2.3112-0.64683-2.958 1.6644l-1.4749 5.27q-0.64683 2.3112 1.6644 2.958l7.456 2.0867q2.3112 0.64683 2.958-1.6644z" clip-path="url(#a)" fill="#fff" stroke="#fff"/>
<g clip-path="url(#a)">
<g transform="translate(1142.4 547.94) rotate(-74.365) scale(.08 -.08)">
<use xlink:href="#y"/>
</g>
</g>
<path d="m1168.6 548.06 0.79485-4.5321q0.41459-2.3639-1.9493-2.7785l-7.6261-1.3375q-2.3639-0.41459-2.7785 1.9493l-0.79485 4.5321q-0.41459 2.3639 1.9493 2.7785l7.6261 1.3375q2.3639 0.41459 2.7785-1.9493z" clip-path="url(#a)" fill="#fff" stroke="#fff"/>
<g clip-path="url(#a)">
<defs>
<path id="an" d="m9.8125 72.906h41.891v-8.3125h-32.031v-21.484h28.906v-8.2969h-28.906v-34.812h-9.8594z"/>
</defs>
<g transform="translate(1164.6 547.36) rotate(-80.052) scale(.08 -.08)">
<use xlink:href="#an"/>
</g>
</g>
<path d="m1190.7 547.56 0.34115-4.8117q0.16973-2.394-2.2243-2.5637l-7.7231-0.54757q-2.394-0.16973-2.5637 2.2243l-0.34115 4.8117q-0.16973 2.394 2.2243 2.5637l7.7231 0.54757q2.394 0.16973 2.5637-2.2243z" clip-path="url(#a)" fill="#fff" stroke="#fff"/>
<g clip-path="url(#a)">
<g transform="translate(1186.6 547.27) rotate(-85.945) scale(.08 -.08)">
<use xlink:href="#w"/>
</g>
</g>
<path d="m1478.9 684.6 2.7493 4.7318q1.2057 2.0751 3.2809 0.86941l6.6945-3.8897q2.0751-1.2057 0.86941-3.2809l-2.7493-4.7318q-1.2057-2.0751-3.2809-0.86941l-6.6945 3.8897q-2.0751 1.2057-0.86941 3.2809z" clip-path="url(#a)" fill="#fff" stroke="#fff"/>
<g clip-path="url(#a)">
<g transform="translate(1482.4 682.56) rotate(59.842) scale(.08 -.08)">
<use xlink:href="#y"/>
</g>
</g>
<path d="m1316.4 619.85 1.6913-4.2791q0.88219-2.232-1.3498-3.1142l-7.2005-2.846q-2.232-0.88219-3.1142 1.3498l-1.6913 4.2791q-0.88219 2.232 1.3498 3.1142l7.2005 2.846q2.232 0.88219 3.1142-1.3498z" clip-path="url(#a)" fill="#fff" stroke="#fff"/>
<g clip-path="url(#a)">
<g transform="translate(1312.6 618.36) rotate(-68.434) scale(.08 -.08)">
<use xlink:href="#an"/>
</g>
</g>
<path d="m1370.1 544.93 0.95551 6.0854q0.37228 2.371 2.7432 1.9987l7.6488-1.201q2.371-0.37228 1.9987-2.7432l-0.95551-6.0854q-0.37228-2.371-2.7432-1.9987l-7.6488 1.201q-2.371 0.37228-1.9987 2.7432z" clip-path="url(#a)" fill="#fff" stroke="#fff"/>
<g clip-path="url(#a)">
<g transform="translate(1374.1 544.3) rotate(81.077) scale(.08 -.08)">
<use xlink:href="#x"/>
</g>
</g>
<path d="m1361 618.97 0.48543-6.1408q0.18913-2.3925-2.2034-2.5817l-7.7184-0.61014q-2.3925-0.18913-2.5817 2.2034l-0.48543 6.1408q-0.18913 2.3925 2.2034 2.5817l7.7184 0.61014q2.3925 0.18913 2.5817-2.2034z" clip-path="url(#a)" fill="#fff" stroke="#fff"/>
<g clip-path="url(#a)">
<g transform="translate(1356.9 618.65) rotate(-85.48) scale(.08 -.08)">
<use xlink:href="#x"/>
</g>
</g>
<path d="m1436.1 550.01 3.568 3.2462q1.7752 1.6151 3.3903-0.16007l5.2105-5.7269q1.6151-1.7752-0.16007-3.3903l-3.568-3.2462q-1.7752-1.6151-3.3903 0.16007l-5.2105 5.7269q-1.6151 1.7752 0.16007 3.3903z" clip-path="url(#a)" fill="#fff" stroke="#fff"/>
<g clip-path="url(#a)">
<g transform="translate(1438.8 547.01) rotate(42.297) scale(.08 -.08)">
<use xlink:href="#w"/>
</g>
</g>
<path d="m1226.7 621.81 3.922-3.8165q1.72-1.6738 0.046277-3.3938l-5.3996-5.5489q-1.6738-1.72-3.3938-0.046277l-3.922 3.8165q-1.72 1.6738-0.046276 3.3938l5.3996 5.5489q1.6738 1.72 3.3938 0.046276z" clip-path="url(#a)" fill="#fff" stroke="#fff"/>
<g clip-path="url(#a)">
<g transform="translate(1223.9 618.9) rotate(-44.219) scale(.08 -.08)">
<use xlink:href="#y"/>
</g>
</g>
<path d="m1250.7 803.94v35.285q0 2.4 2.4 2.4h7.7425q2.4 0 2.4-2.4v-35.285q0-2.4-2.4-2.4h-7.7425q-2.4 0-2.4 2.4z" clip-path="url(#a)" fill="#fff" stroke="#fff"/>
<g clip-path="url(#a)">
<defs>
<path id="d" d="m56.203 29.594v-4.3906h-41.312q0.59375-9.2812 5.5938-14.141t13.938-4.8594q5.1719 0 10.031 1.2656t9.6562 3.8125v-8.5q-4.8438-2.0469-9.9219-3.125t-10.297-1.0781q-13.094 0-20.734 7.6094-7.6406 7.625-7.6406 20.625 0 13.422 7.25 21.297 7.25 7.8906 19.562 7.8906 11.031 0 17.453-7.1094 6.4219-7.0938 6.4219-19.297zm-8.9844 2.6406q-0.09375 7.3594-4.125 11.75-4.0312 4.4062-10.672 4.4062-7.5156 0-12.031-4.25t-5.2031-11.969z"/>
<path id="i" d="m41.109 46.297q-1.5156 0.875-3.2969 1.2812-1.7812 0.42188-3.9219 0.42188-7.625 0-11.703-4.9531t-4.0781-14.234v-28.812h-9.0312v54.688h9.0312v-8.5q2.8438 4.9844 7.375 7.3906 4.5469 2.4219 11.047 2.4219 0.92188 0 2.0469-0.125 1.125-0.10938 2.4844-0.35938z"/>
<path id="k" d="m52 44.188q3.375 6.0625 8.0625 8.9375t11.031 2.875q8.5469 0 13.188-5.9844 4.6406-5.9688 4.6406-17v-33.016h-9.0312v32.719q0 7.8594-2.7969 11.656-2.7812 3.8125-8.4844 3.8125-6.9844 0-11.047-4.6406-4.0469-4.625-4.0469-12.641v-30.906h-9.0312v32.719q0 7.9062-2.7812 11.688t-8.5938 3.7812q-6.8906 0-10.953-4.6562-4.0469-4.6562-4.0469-12.625v-30.906h-9.0312v54.688h9.0312v-8.5q3.0781 5.0312 7.375 7.4219t10.203 2.3906q5.9688 0 10.141-3.0312 4.1719-3.0156 6.1719-8.7812z"/>
<path id="e" d="m9.4219 54.688h8.9844v-54.688h-8.9844zm0 21.297h8.9844v-11.391h-8.9844z"/>
<path id="h" d="m54.891 33.016v-33.016h-8.9844v32.719q0 7.7656-3.0312 11.609-3.0312 3.8594-9.0781 3.8594-7.2812 0-11.484-4.6406-4.2031-4.625-4.2031-12.641v-30.906h-9.0312v54.688h9.0312v-8.5q3.2344 4.9375 7.5938 7.375 4.375 2.4375 10.094 2.4375 9.4219 0 14.25-5.8281 4.8438-5.8281 4.8438-17.156z"/>
<path id="g" d="m34.281 27.484q-10.891 0-15.094-2.4844t-4.2031-8.5q0-4.7812 3.1562-7.5938 3.1562-2.7969 8.5625-2.7969 7.4844 0 12 5.2969t4.5156 14.078v2zm17.922 3.7188v-31.203h-8.9844v8.2969q-3.0781-4.9688-7.6719-7.3438t-11.234-2.375q-8.3906 0-13.359 4.7188-4.9531 4.7188-4.9531 12.625 0 9.2188 6.1719 13.906 6.1875 4.6875 18.438 4.6875h12.609v0.89062q0 6.2031-4.0781 9.5938t-11.453 3.3906q-4.6875 0-9.1406-1.125-4.4375-1.125-8.5312-3.375v8.3125q4.9219 1.9062 9.5625 2.8438 4.6406 0.95312 9.0312 0.95312 11.875 0 17.734-6.1562 5.8594-6.1406 5.8594-18.641z"/>
<path id="j" d="m9.4219 75.984h8.9844v-75.984h-8.9844z"/>
</defs>
<g transform="translate(1254.7 803.94) rotate(90) scale(.08 -.08)">
<use xlink:href="#l"/>
<use x="60.818359" xlink:href="#d"/>
<use x="122.341797" xlink:href="#i"/>
<use x="163.439453" xlink:href="#k"/>
<use x="260.851562" xlink:href="#e"/>
<use x="288.634766" xlink:href="#h"/>
<use x="352.013672" xlink:href="#g"/>
<use x="413.292969" xlink:href="#j"/>
</g>
</g>
<path d="m1371 689.33 1.6948-5.3229q0.72814-2.2869-1.5587-3.015l-7.3776-2.349q-2.2869-0.72814-3.015 1.5587l-1.6948 5.3229q-0.72814 2.2869 1.5587 3.015l7.3776 2.349q2.2869 0.72814 3.015-1.5587z" clip-path="url(#a)" fill="#fff" stroke="#fff"/>
<g clip-path="url(#a)">
<defs>
<path id="o" d="m64.406 67.281v-10.391q-4.9844 4.6406-10.625 6.9219-5.6406 2.2969-11.984 2.2969-12.5 0-19.141-7.6406t-6.6406-22.094q0-14.406 6.6406-22.047t19.141-7.6406q6.3438 0 11.984 2.2969t10.625 6.9375v-10.312q-5.1719-3.5156-10.969-5.2812-5.7812-1.75-12.219-1.75-16.562 0-26.094 10.125-9.5156 10.141-9.5156 27.672 0 17.578 9.5156 27.703 9.5312 10.141 26.094 10.141 6.5312 0 12.312-1.7344 5.7969-1.7344 10.875-5.2031z"/>
</defs>
<g transform="translate(1367.1 688.1) rotate(-72.339) scale(.08 -.08)">
<use xlink:href="#o"/>
</g>
</g>
<path d="m1402.6 684.02 1.6865 5.2967q0.72814 2.2869 3.015 1.5587l7.3776-2.349q2.2869-0.72814 1.5587-3.015l-1.6865-5.2967q-0.72814-2.2869-3.015-1.5587l-7.3776 2.349q-2.2869 0.72814-1.5587 3.015z" clip-path="url(#a)" fill="#fff" stroke="#fff"/>
<g clip-path="url(#a)">
<defs>
<path id="v" d="m44.391 34.188q3.1719-1.0781 6.1719-4.5938t6.0312-9.6719l10.016-19.922h-10.609l-9.3125 18.703q-3.625 7.3281-7.0156 9.7188t-9.25 2.3906h-10.75v-30.812h-9.8594v72.906h22.266q12.5 0 18.656-5.2344 6.1562-5.2188 6.1562-15.766 0-6.8906-3.2031-11.438-3.2031-4.5312-9.2969-6.2812zm-24.719 30.609v-25.875h12.406q7.125 0 10.766 3.2969t3.6406 9.6875-3.6406 9.6406-10.766 3.25z"/>
</defs>
<g transform="translate(1406.5 682.79) rotate(72.339) scale(.08 -.08)">
<use xlink:href="#v"/>
</g>
</g>
<path d="m1337.8 803.94v35.285q0 2.4 2.4 2.4h7.7425q2.4 0 2.4-2.4v-35.285q0-2.4-2.4-2.4h-7.7425q-2.4 0-2.4 2.4z" clip-path="url(#a)" fill="#fff" stroke="#fff"/>
<g clip-path="url(#a)">
<g transform="translate(1341.9 803.94) rotate(90) scale(.08 -.08)">
<use xlink:href="#l"/>
<use x="60.818359" xlink:href="#d"/>
<use x="122.341797" xlink:href="#i"/>
<use x="163.439453" xlink:href="#k"/>
<use x="260.851562" xlink:href="#e"/>
<use x="288.634766" xlink:href="#h"/>
<use x="352.013672" xlink:href="#g"/>
<use x="413.292969" xlink:href="#j"/>
</g>
</g>
<path d="m1501.7 689.32 1.6865-5.2967q0.72814-2.2869-1.5587-3.015l-7.3776-2.349q-2.2869-0.72814-3.015 1.5587l-1.6865 5.2967q-0.72814 2.2869 1.5587 3.015l7.3776 2.349q2.2869 0.72814 3.015-1.5587z" clip-path="url(#a)" fill="#fff" stroke="#fff"/>
<g clip-path="url(#a)">
<g transform="translate(1497.8 688.09) rotate(-72.339) scale(.08 -.08)">
<use xlink:href="#v"/>
</g>
</g>
<path d="m1512.1 681.98v5.5862q0 2.4 2.4 2.4h7.7425q2.4 0 2.4-2.4v-5.5862q0-2.4-2.4-2.4h-7.7425q-2.4 0-2.4 2.4z" clip-path="url(#a)" fill="#fff" stroke="#fff"/>
<g clip-path="url(#a)">
<g transform="translate(1516.1 681.98) rotate(90) scale(.08 -.08)">
<use xlink:href="#o"/>
</g>
</g>
<path d="m1533.2 683.88 1.7764 5.579q0.72814 2.2869 3.015 1.5587l7.3776-2.349q2.2869-0.72814 1.5587-3.015l-1.7764-5.579q-0.72814-2.2869-3.015-1.5587l-7.3776 2.349q-2.2869 0.72814-1.5587 3.015z" clip-path="url(#a)" fill="#fff" stroke="#fff"/>
<g clip-path="url(#a)">
<g transform="translate(1537.1 682.65) rotate(72.339) scale(.08 -.08)">
<use xlink:href="#ah"/>
</g>
</g>
<path d="m1468.5 803.94v35.285q0 2.4 2.4 2.4h7.7425q2.4 0 2.4-2.4v-35.285q0-2.4-2.4-2.4h-7.7425q-2.4 0-2.4 2.4z" clip-path="url(#a)" fill="#fff" stroke="#fff"/>
<g clip-path="url(#a)">
<g transform="translate(1472.6 803.94) rotate(90) scale(.08 -.08)">
<use xlink:href="#l"/>
<use x="60.818359" xlink:href="#d"/>
<use x="122.341797" xlink:href="#i"/>
<use x="163.439453" xlink:href="#k"/>
<use x="260.851562" xlink:href="#e"/>
<use x="288.634766" xlink:href="#h"/>
<use x="352.013672" xlink:href="#g"/>
<use x="413.292969" xlink:href="#j"/>
</g>
</g>
<path d="m1512.1 803.94v35.285q0 2.4 2.4 2.4h7.7425q2.4 0 2.4-2.4v-35.285q0-2.4-2.4-2.4h-7.7425q-2.4 0-2.4 2.4z" clip-path="url(#a)" fill="#fff" stroke="#fff"/>
<g clip-path="url(#a)">
<g transform="translate(1516.1 803.94) rotate(90) scale(.08 -.08)">
<use xlink:href="#l"/>
<use x="60.818359" xlink:href="#d"/>
<use x="122.341797" xlink:href="#i"/>
<use x="163.439453" xlink:href="#k"/>
<use x="260.851562" xlink:href="#e"/>
<use x="288.634766" xlink:href="#h"/>
<use x="352.013672" xlink:href="#g"/>
<use x="413.292969" xlink:href="#j"/>
</g>
</g>
<path d="m1322.9 840.3 10.705-33.622q0.72814-2.2869-1.5587-3.015l-7.3776-2.349q-2.2869-0.72814-3.015 1.5587l-10.705 33.622q-0.72814 2.2869 1.5587 3.015l7.3776 2.349q2.2869 0.72814 3.015-1.5587z" clip-path="url(#a)" fill="#fff" stroke="#fff"/>
<g clip-path="url(#a)">
<g transform="translate(1319 839.07) rotate(-72.339) scale(.08 -.08)">
<use xlink:href="#l"/>
<use x="60.818359" xlink:href="#d"/>
<use x="122.341797" xlink:href="#i"/>
<use x="163.439453" xlink:href="#k"/>
<use x="260.851562" xlink:href="#e"/>
<use x="288.634766" xlink:href="#h"/>
<use x="352.013672" xlink:href="#g"/>
<use x="413.292969" xlink:href="#j"/>
</g>
</g>
<path d="m1354.5 806.68 10.705 33.622q0.72814 2.2869 3.015 1.5587l7.3776-2.349q2.2869-0.72814 1.5587-3.015l-10.705-33.622q-0.72814-2.2869-3.015-1.5587l-7.3776 2.349q-2.2869 0.72814-1.5587 3.015z" clip-path="url(#a)" fill="#fff" stroke="#fff"/>
<g clip-path="url(#a)">
<g transform="translate(1358.4 805.45) rotate(72.339) scale(.08 -.08)">
<use xlink:href="#l"/>
<use x="60.818359" xlink:href="#d"/>
<use x="122.341797" xlink:href="#i"/>
<use x="163.439453" xlink:href="#k"/>
<use x="260.851562" xlink:href="#e"/>
<use x="288.634766" xlink:href="#h"/>
<use x="352.013672" xlink:href="#g"/>
<use x="413.292969" xlink:href="#j"/>
</g>
</g>
<path d="m1424.9 803.94v35.285q0 2.4 2.4 2.4h7.7425q2.4 0 2.4-2.4v-35.285q0-2.4-2.4-2.4h-7.7425q-2.4 0-2.4 2.4z" clip-path="url(#a)" fill="#fff" stroke="#fff"/>
<g clip-path="url(#a)">
<g transform="translate(1429 803.94) rotate(90) scale(.08 -.08)">
<use xlink:href="#l"/>
<use x="60.818359" xlink:href="#d"/>
<use x="122.341797" xlink:href="#i"/>
<use x="163.439453" xlink:href="#k"/>
<use x="260.851562" xlink:href="#e"/>
<use x="288.634766" xlink:href="#h"/>
<use x="352.013672" xlink:href="#g"/>
<use x="413.292969" xlink:href="#j"/>
</g>
</g>
<path d="m1462.8 685.87 3.5956 4.1255q1.5769 1.8093 3.3861 0.23239l5.8368-5.0871q1.8093-1.5769 0.23239-3.3861l-3.5956-4.1255q-1.5769-1.8093-3.3861-0.23239l-5.8368 5.0871q-1.8093 1.5769-0.23239 3.3861z" clip-path="url(#a)" fill="#fff" stroke="#fff"/>
<g clip-path="url(#a)">
<g transform="translate(1465.9 683.2) rotate(48.926) scale(.08 -.08)">
<use xlink:href="#y"/>
</g>
</g>
<path d="m1109.9 553.72 4.5002-1.737q2.239-0.86423 1.3748-3.1032l-2.788-7.2231q-0.86423-2.239-3.1032-1.3748l-4.5002 1.737q-2.239 0.86423-1.3748 3.1032l2.788 7.2231q0.86423 2.239 3.1032 1.3748z" clip-path="url(#a)" fill="#fff" stroke="#fff"/>
<g clip-path="url(#a)">
<g transform="translate(1108.5 549.93) rotate(-21.106) scale(.08 -.08)">
<use xlink:href="#w"/>
</g>
</g>
<path d="m989.3 803.94v35.285q0 2.4 2.4 2.4h7.7425q2.4 0 2.4-2.4v-35.285q0-2.4-2.4-2.4h-7.7425q-2.4 0-2.4 2.4z" clip-path="url(#a)" fill="#fff" stroke="#fff"/>
<g clip-path="url(#a)">
<g transform="translate(993.37 803.94) rotate(90) scale(.08 -.08)">
<use xlink:href="#l"/>
<use x="60.818359" xlink:href="#d"/>
<use x="122.341797" xlink:href="#i"/>
<use x="163.439453" xlink:href="#k"/>
<use x="260.851562" xlink:href="#e"/>
<use x="288.634766" xlink:href="#h"/>
<use x="352.013672" xlink:href="#g"/>
<use x="413.292969" xlink:href="#j"/>
</g>
</g>
<path d="m1032.9 803.94v35.285q0 2.4 2.4 2.4h7.7425q2.4 0 2.4-2.4v-35.285q0-2.4-2.4-2.4h-7.7425q-2.4 0-2.4 2.4z" clip-path="url(#a)" fill="#fff" stroke="#fff"/>
<g clip-path="url(#a)">
<g transform="translate(1036.9 803.94) rotate(90) scale(.08 -.08)">
<use xlink:href="#l"/>
<use x="60.818359" xlink:href="#d"/>
<use x="122.341797" xlink:href="#i"/>
<use x="163.439453" xlink:href="#k"/>
<use x="260.851562" xlink:href="#e"/>
<use x="288.634766" xlink:href="#h"/>
<use x="352.013672" xlink:href="#g"/>
<use x="413.292969" xlink:href="#j"/>
</g>
</g>
<path d="m1076.4 803.94v35.285q0 2.4 2.4 2.4h7.7425q2.4 0 2.4-2.4v-35.285q0-2.4-2.4-2.4h-7.7425q-2.4 0-2.4 2.4z" clip-path="url(#a)" fill="#fff" stroke="#fff"/>
<g clip-path="url(#a)">
<g transform="translate(1080.5 803.94) rotate(90) scale(.08 -.08)">
<use xlink:href="#l"/>
<use x="60.818359" xlink:href="#d"/>
<use x="122.341797" xlink:href="#i"/>
<use x="163.439453" xlink:href="#k"/>
<use x="260.851562" xlink:href="#e"/>
<use x="288.634766" xlink:href="#h"/>
<use x="352.013672" xlink:href="#g"/>
<use x="413.292969" xlink:href="#j"/>
</g>
</g>
<path d="m1120 803.94v35.285q0 2.4 2.4 2.4h7.7425q2.4 0 2.4-2.4v-35.285q0-2.4-2.4-2.4h-7.7425q-2.4 0-2.4 2.4z" clip-path="url(#a)" fill="#fff" stroke="#fff"/>
<g clip-path="url(#a)">
<g transform="translate(1124.1 803.94) rotate(90) scale(.08 -.08)">
<use xlink:href="#l"/>
<use x="60.818359" xlink:href="#d"/>
<use x="122.341797" xlink:href="#i"/>
<use x="163.439453" xlink:href="#k"/>
<use x="260.851562" xlink:href="#e"/>
<use x="288.634766" xlink:href="#h"/>
<use x="352.013672" xlink:href="#g"/>
<use x="413.292969" xlink:href="#j"/>
</g>
</g>
<path d="m1163.6 803.94v35.285q0 2.4 2.4 2.4h7.7425q2.4 0 2.4-2.4v-35.285q0-2.4-2.4-2.4h-7.7425q-2.4 0-2.4 2.4z" clip-path="url(#a)" fill="#fff" stroke="#fff"/>
<g clip-path="url(#a)">
<g transform="translate(1167.6 803.94) rotate(90) scale(.08 -.08)">
<use xlink:href="#l"/>
<use x="60.818359" xlink:href="#d"/>
<use x="122.341797" xlink:href="#i"/>
<use x="163.439453" xlink:href="#k"/>
<use x="260.851562" xlink:href="#e"/>
<use x="288.634766" xlink:href="#h"/>
<use x="352.013672" xlink:href="#g"/>
<use x="413.292969" xlink:href="#j"/>
</g>
</g>
<path d="m925.09 688.5 0.87394-5.4896q0.37733-2.3702-1.9928-2.7475l-7.6462-1.2173q-2.3702-0.37733-2.7475 1.9928l-0.87394 5.4896q-0.37733 2.3702 1.9928 2.7475l7.6462 1.2173q2.3702 0.37733 2.7475-1.9928z" clip-path="url(#a)" fill="#fff" stroke="#fff"/>
<g clip-path="url(#a)">
<g transform="translate(921.08 687.86) rotate(-80.954) scale(.08 -.08)">
<use xlink:href="#v"/>
</g>
</g>
<path d="m934.49 683 0.87827 5.5168q0.37733 2.3702 2.7475 1.9928l7.6462-1.2173q2.3702-0.37733 1.9928-2.7475l-0.87827-5.5168q-0.37733-2.3702-2.7475-1.9928l-7.6462 1.2173q-2.3702 0.37733-1.9928 2.7475z" clip-path="url(#a)" fill="#fff" stroke="#fff"/>
<g clip-path="url(#a)">
<g transform="translate(938.5 682.36) rotate(80.954) scale(.08 -.08)">
<use xlink:href="#o"/>
</g>
</g>
<path d="m902.18 803.94v35.285q0 2.4 2.4 2.4h7.7425q2.4 0 2.4-2.4v-35.285q0-2.4-2.4-2.4h-7.7425q-2.4 0-2.4 2.4z" clip-path="url(#a)" fill="#fff" stroke="#fff"/>
<g clip-path="url(#a)">
<g transform="translate(906.24 803.94) rotate(90) scale(.08 -.08)">
<use xlink:href="#l"/>
<use x="60.818359" xlink:href="#d"/>
<use x="122.341797" xlink:href="#i"/>
<use x="163.439453" xlink:href="#k"/>
<use x="260.851562" xlink:href="#e"/>
<use x="288.634766" xlink:href="#h"/>
<use x="352.013672" xlink:href="#g"/>
<use x="413.292969" xlink:href="#j"/>
</g>
</g>
<path d="m945.74 803.94v35.285q0 2.4 2.4 2.4h7.7425q2.4 0 2.4-2.4v-35.285q0-2.4-2.4-2.4h-7.7425q-2.4 0-2.4 2.4z" clip-path="url(#a)" fill="#fff" stroke="#fff"/>
<g clip-path="url(#a)">
<g transform="translate(949.8 803.94) rotate(90) scale(.08 -.08)">
<use xlink:href="#l"/>
<use x="60.818359" xlink:href="#d"/>
<use x="122.341797" xlink:href="#i"/>
<use x="163.439453" xlink:href="#k"/>
<use x="260.851562" xlink:href="#e"/>
<use x="288.634766" xlink:href="#h"/>
<use x="352.013672" xlink:href="#g"/>
<use x="413.292969" xlink:href="#j"/>
</g>
</g>
<path d="m167.9 836.83 28.935-20.195q1.9681-1.3736 0.59448-3.3416l-4.4312-6.3491q-1.3736-1.9681-3.3416-0.59448l-28.935 20.195q-1.9681 1.3736-0.59448 3.3416l4.4312 6.3491q1.3736 1.9681 3.3416 0.59448z" clip-path="url(#a)" fill="#fff" stroke="#fff"/>
<g clip-path="url(#a)">
<g transform="translate(165.57 833.49) rotate(-34.913) scale(.08 -.08)">
<use xlink:href="#l"/>
<use x="60.818359" xlink:href="#d"/>
<use x="122.341797" xlink:href="#i"/>
<use x="163.439453" xlink:href="#k"/>
<use x="260.851562" xlink:href="#e"/>
<use x="288.634766" xlink:href="#h"/>
<use x="352.013672" xlink:href="#g"/>
<use x="413.292969" xlink:href="#j"/>
</g>
</g>
<path d="m356.75 816.63 28.935 20.195q1.9681 1.3736 3.3416-0.59448l4.4312-6.3491q1.3736-1.9681-0.59448-3.3416l-28.935-20.195q-1.9681-1.3736-3.3416 0.59448l-4.4312 6.3491q-1.3736 1.9681 0.59448 3.3416z" clip-path="url(#a)" fill="#fff" stroke="#fff"/>
<g clip-path="url(#a)">
<g transform="translate(359.08 813.3) rotate(34.913) scale(.08 -.08)">
<use xlink:href="#l"/>
<use x="60.818359" xlink:href="#d"/>
<use x="122.341797" xlink:href="#i"/>
<use x="163.439453" xlink:href="#k"/>
<use x="260.851562" xlink:href="#e"/>
<use x="288.634766" xlink:href="#h"/>
<use x="352.013672" xlink:href="#g"/>
<use x="413.292969" xlink:href="#j"/>
</g>
</g>
<path d="m161.42 548.41 0.82972-5.5243q0.35647-2.3734-2.0169-2.7298l-7.6566-1.15q-2.3734-0.35647-2.7298 2.0169l-0.82972 5.5243q-0.35647 2.3734 2.0169 2.7299l7.6566 1.15q2.3734 0.35647 2.7298-2.0169z" clip-path="url(#a)" fill="#fff" stroke="#fff"/>
<g clip-path="url(#a)">
<g transform="translate(157.4 547.8) rotate(-81.458) scale(.08 -.08)">
<use xlink:href="#o"/>
</g>
</g>
<path d="m211.5 407.17 2.047 4.622q0.97188 2.1944 3.1663 1.2225l7.0793-3.1353q2.1944-0.97188 1.2225-3.1663l-2.047-4.622q-0.97188-2.1944-3.1663-1.2225l-7.0793 3.1353q-2.1944 0.97188-1.2225 3.1663z" clip-path="url(#a)" fill="#fff" stroke="#fff"/>
<g clip-path="url(#a)">
<defs>
<path id="aa" d="m9.8125 72.906h46.094v-8.3125h-36.234v-21.578h34.719v-8.2969h-34.719v-26.422h37.109v-8.2969h-46.969z"/>
</defs>
<g transform="translate(215.21 405.53) rotate(66.112) scale(.08 -.08)">
<use xlink:href="#aa"/>
</g>
</g>
<path d="m510.11 803.94v35.285q0 2.4 2.4 2.4h7.7425q2.4 0 2.4-2.4v-35.285q0-2.4-2.4-2.4h-7.7425q-2.4 0-2.4 2.4z" clip-path="url(#a)" fill="#fff" stroke="#fff"/>
<g clip-path="url(#a)">
<g transform="translate(514.18 803.94) rotate(90) scale(.08 -.08)">
<use xlink:href="#l"/>
<use x="60.818359" xlink:href="#d"/>
<use x="122.341797" xlink:href="#i"/>
<use x="163.439453" xlink:href="#k"/>
<use x="260.851562" xlink:href="#e"/>
<use x="288.634766" xlink:href="#h"/>
<use x="352.013672" xlink:href="#g"/>
<use x="413.292969" xlink:href="#j"/>
</g>
</g>
<path d="m576.59 688.51 0.87827-5.5168q0.37733-2.3702-1.9928-2.7475l-7.6462-1.2173q-2.3702-0.37733-2.7475 1.9928l-0.87827 5.5168q-0.37733 2.3702 1.9928 2.7475l7.6462 1.2173q2.3702 0.37733 2.7475-1.9928z" clip-path="url(#a)" fill="#fff" stroke="#fff"/>
<g clip-path="url(#a)">
<g transform="translate(572.58 687.87) rotate(-80.954) scale(.08 -.08)">
<use xlink:href="#o"/>
</g>
</g>
<path d="m585.99 683.01 0.87394 5.4896q0.37733 2.3702 2.7475 1.9928l7.6462-1.2173q2.3702-0.37733 1.9928-2.7475l-0.87394-5.4896q-0.37733-2.3702-2.7475-1.9928l-7.6462 1.2173q-2.3702 0.37733-1.9928 2.7475z" clip-path="url(#a)" fill="#fff" stroke="#fff"/>
<g clip-path="url(#a)">
<g transform="translate(590 682.37) rotate(80.954) scale(.08 -.08)">
<use xlink:href="#v"/>
</g>
</g>
<path d="m687.61 690.18 2.6186-4.9345q1.125-2.12-0.99499-3.245l-6.8392-3.6293q-2.12-1.125-3.245 0.99499l-2.6186 4.9345q-1.125 2.12 0.99499 3.245l6.8392 3.6293q2.12 1.125 3.245-0.99499z" clip-path="url(#a)" fill="#fff" stroke="#fff"/>
<g clip-path="url(#a)">
<g transform="translate(684.02 688.27) rotate(-62.047) scale(.08 -.08)">
<use xlink:href="#o"/>
</g>
</g>
<path d="m710.67 689 1.2427-5.8546q0.49834-2.3477-1.8494-2.846l-7.5738-1.6076q-2.3477-0.49834-2.846 1.8494l-1.2427 5.8546q-0.49834 2.3477 1.8494 2.846l7.5738 1.6076q2.3477 0.49834 2.846-1.8494z" clip-path="url(#a)" fill="#fff" stroke="#fff"/>
<g clip-path="url(#a)">
<defs>
<path id="au" d="m9.8125 72.906h13.281l32.328-60.984v60.984h9.5625v-72.906h-13.281l-32.312 60.984v-60.984h-9.5781z"/>
</defs>
<g transform="translate(706.69 688.15) rotate(-78.016) scale(.08 -.08)">
<use xlink:href="#au"/>
</g>
</g>
<path d="m763.8 686.27 3.3314 4.4842q1.4313 1.9265 3.3578 0.49525l6.215-4.6173q1.9265-1.4313 0.49525-3.3578l-3.3314-4.4842q-1.4313-1.9265-3.3578-0.49525l-6.215 4.6173q-1.9265 1.4313-0.49525 3.3578z" clip-path="url(#a)" fill="#fff" stroke="#fff"/>
<g clip-path="url(#a)">
<g transform="translate(767.06 683.84) rotate(53.39) scale(.08 -.08)">
<use xlink:href="#o"/>
</g>
</g>
<path d="m750.84 688.51 0.87827-5.5168q0.37733-2.3702-1.9928-2.7475l-7.6462-1.2173q-2.3702-0.37733-2.7475 1.9928l-0.87827 5.5168q-0.37733 2.3702 1.9928 2.7475l7.6462 1.2173q2.3702 0.37733 2.7475-1.9928z" clip-path="url(#a)" fill="#fff" stroke="#fff"/>
<g clip-path="url(#a)">
<g transform="translate(746.83 687.87) rotate(-80.954) scale(.08 -.08)">
<use xlink:href="#o"/>
</g>
</g>
<path d="m760.24 683.01 0.87394 5.4896q0.37733 2.3702 2.7475 1.9928l7.6462-1.2173q2.3702-0.37733 1.9928-2.7475l-0.87394-5.4896q-0.37733-2.3702-2.7475-1.9928l-7.6462 1.2173q-2.3702 0.37733-1.9928 2.7475z" clip-path="url(#a)" fill="#fff" stroke="#fff"/>
<g clip-path="url(#a)">
<g transform="translate(764.25 682.37) rotate(80.954) scale(.08 -.08)">
<use xlink:href="#v"/>
</g>
</g>
<path d="m727.93 803.94v35.285q0 2.4 2.4 2.4h7.7425q2.4 0 2.4-2.4v-35.285q0-2.4-2.4-2.4h-7.7425q-2.4 0-2.4 2.4z" clip-path="url(#a)" fill="#fff" stroke="#fff"/>
<g clip-path="url(#a)">
<g transform="translate(731.99 803.94) rotate(90) scale(.08 -.08)">
<use xlink:href="#l"/>
<use x="60.818359" xlink:href="#d"/>
<use x="122.341797" xlink:href="#i"/>
<use x="163.439453" xlink:href="#k"/>
<use x="260.851562" xlink:href="#e"/>
<use x="288.634766" xlink:href="#h"/>
<use x="352.013672" xlink:href="#g"/>
<use x="413.292969" xlink:href="#j"/>
</g>
</g>
<path d="m771.49 803.94v35.285q0 2.4 2.4 2.4h7.7425q2.4 0 2.4-2.4v-35.285q0-2.4-2.4-2.4h-7.7425q-2.4 0-2.4 2.4z" clip-path="url(#a)" fill="#fff" stroke="#fff"/>
<g clip-path="url(#a)">
<g transform="translate(775.55 803.94) rotate(90) scale(.08 -.08)">
<use xlink:href="#l"/>
<use x="60.818359" xlink:href="#d"/>
<use x="122.341797" xlink:href="#i"/>
<use x="163.439453" xlink:href="#k"/>
<use x="260.851562" xlink:href="#e"/>
<use x="288.634766" xlink:href="#h"/>
<use x="352.013672" xlink:href="#g"/>
<use x="413.292969" xlink:href="#j"/>
</g>
</g>
<path d="m640.8 803.94v35.285q0 2.4 2.4 2.4h7.7425q2.4 0 2.4-2.4v-35.285q0-2.4-2.4-2.4h-7.7425q-2.4 0-2.4 2.4z" clip-path="url(#a)" fill="#fff" stroke="#fff"/>
<g clip-path="url(#a)">
<g transform="translate(644.87 803.94) rotate(90) scale(.08 -.08)">
<use xlink:href="#l"/>
<use x="60.818359" xlink:href="#d"/>
<use x="122.341797" xlink:href="#i"/>
<use x="163.439453" xlink:href="#k"/>
<use x="260.851562" xlink:href="#e"/>
<use x="288.634766" xlink:href="#h"/>
<use x="352.013672" xlink:href="#g"/>
<use x="413.292969" xlink:href="#j"/>
</g>
</g>
<path d="m684.36 803.94v35.285q0 2.4 2.4 2.4h7.7425q2.4 0 2.4-2.4v-35.285q0-2.4-2.4-2.4h-7.7425q-2.4 0-2.4 2.4z" clip-path="url(#a)" fill="#fff" stroke="#fff"/>
<g clip-path="url(#a)">
<g transform="translate(688.43 803.94) rotate(90) scale(.08 -.08)">
<use xlink:href="#l"/>
<use x="60.818359" xlink:href="#d"/>
<use x="122.341797" xlink:href="#i"/>
<use x="163.439453" xlink:href="#k"/>
<use x="260.851562" xlink:href="#e"/>
<use x="288.634766" xlink:href="#h"/>
<use x="352.013672" xlink:href="#g"/>
<use x="413.292969" xlink:href="#j"/>
</g>
</g>
<path d="m815.05 803.94v35.285q0 2.4 2.4 2.4h7.7425q2.4 0 2.4-2.4v-35.285q0-2.4-2.4-2.4h-7.7425q-2.4 0-2.4 2.4z" clip-path="url(#a)" fill="#fff" stroke="#fff"/>
<g clip-path="url(#a)">
<g transform="translate(819.12 803.94) rotate(90) scale(.08 -.08)">
<use xlink:href="#l"/>
<use x="60.818359" xlink:href="#d"/>
<use x="122.341797" xlink:href="#i"/>
<use x="163.439453" xlink:href="#k"/>
<use x="260.851562" xlink:href="#e"/>
<use x="288.634766" xlink:href="#h"/>
<use x="352.013672" xlink:href="#g"/>
<use x="413.292969" xlink:href="#j"/>
</g>
</g>
<path d="m553.68 803.94v35.285q0 2.4 2.4 2.4h7.7425q2.4 0 2.4-2.4v-35.285q0-2.4-2.4-2.4h-7.7425q-2.4 0-2.4 2.4z" clip-path="url(#a)" fill="#fff" stroke="#fff"/>
<g clip-path="url(#a)">
<g transform="translate(557.74 803.94) rotate(90) scale(.08 -.08)">
<use xlink:href="#l"/>
<use x="60.818359" xlink:href="#d"/>
<use x="122.341797" xlink:href="#i"/>
<use x="163.439453" xlink:href="#k"/>
<use x="260.851562" xlink:href="#e"/>
<use x="288.634766" xlink:href="#h"/>
<use x="352.013672" xlink:href="#g"/>
<use x="413.292969" xlink:href="#j"/>
</g>
</g>
<path d="m597.24 803.94v35.285q0 2.4 2.4 2.4h7.7425q2.4 0 2.4-2.4v-35.285q0-2.4-2.4-2.4h-7.7425q-2.4 0-2.4 2.4z" clip-path="url(#a)" fill="#fff" stroke="#fff"/>
<g clip-path="url(#a)">
<g transform="translate(601.3 803.94) rotate(90) scale(.08 -.08)">
<use xlink:href="#l"/>
<use x="60.818359" xlink:href="#d"/>
<use x="122.341797" xlink:href="#i"/>
<use x="163.439453" xlink:href="#k"/>
<use x="260.851562" xlink:href="#e"/>
<use x="288.634766" xlink:href="#h"/>
<use x="352.013672" xlink:href="#g"/>
<use x="413.292969" xlink:href="#j"/>
</g>
</g>
<path d="m118.05 803.94v35.285q0 2.4 2.4 2.4h7.7425q2.4 0 2.4-2.4v-35.285q0-2.4-2.4-2.4h-7.7425q-2.4 0-2.4 2.4z" clip-path="url(#a)" fill="#fff" stroke="#fff"/>
<g clip-path="url(#a)">
<g transform="translate(122.11 803.94) rotate(90) scale(.08 -.08)">
<use xlink:href="#l"/>
<use x="60.818359" xlink:href="#d"/>
<use x="122.341797" xlink:href="#i"/>
<use x="163.439453" xlink:href="#k"/>
<use x="260.851562" xlink:href="#e"/>
<use x="288.634766" xlink:href="#h"/>
<use x="352.013672" xlink:href="#g"/>
<use x="413.292969" xlink:href="#j"/>
</g>
</g>
<path d="m213.95 619.86 1.5799-5.3295q0.68211-2.301-1.6189-2.9831l-7.4232-2.2005q-2.301-0.68211-2.9831 1.6189l-1.5799 5.3295q-0.68211 2.301 1.6189 2.9831l7.4232 2.2005q2.301 0.68211 2.9831-1.6189z" clip-path="url(#a)" fill="#fff" stroke="#fff"/>
<g clip-path="url(#a)">
<g transform="translate(210.05 618.7) rotate(-73.488) scale(.08 -.08)">
<use xlink:href="#v"/>
</g>
</g>
<path d="m236.37 618.77 0.6927-5.0073q0.32888-2.3774-2.0485-2.7062l-7.6695-1.061q-2.3774-0.32888-2.7062 2.0485l-0.6927 5.0073q-0.32888 2.3774 2.0485 2.7062l7.6695 1.061q2.3774 0.32888 2.7062-2.0485z" clip-path="url(#a)" fill="#fff" stroke="#fff"/>
<g clip-path="url(#a)">
<g transform="translate(232.35 618.21) rotate(-82.124) scale(.08 -.08)">
<use xlink:href="#aa"/>
</g>
</g>
<path d="m245.96 612.74 0.11038 5.5852q0.04742 2.3995 2.447 2.3521l7.741-0.15298q2.3995-0.047421 2.3521-2.447l-0.11038-5.5852q-0.047421-2.3995-2.447-2.3521l-7.741 0.15298q-2.3995 0.04742-2.3521 2.447z" clip-path="url(#a)" fill="#fff" stroke="#fff"/>
<g clip-path="url(#a)">
<g transform="translate(250.02 612.66) rotate(88.868) scale(.08 -.08)">
<use xlink:href="#o"/>
</g>
</g>
<path d="m300.29 549.04 3.2154 3.9006q1.5266 1.8519 3.3785 0.32532l5.9743-4.9248q1.8519-1.5266 0.32532-3.3785l-3.2154-3.9006q-1.5266-1.8519-3.3785-0.32532l-5.9743 4.9248q-1.8519 1.5266-0.32532 3.3785z" clip-path="url(#a)" fill="#fff" stroke="#fff"/>
<g clip-path="url(#a)">
<g transform="translate(303.43 546.45) rotate(50.5) scale(.08 -.08)">
<use xlink:href="#aa"/>
</g>
</g>
<path d="m161.61 803.94v35.285q0 2.4 2.4 2.4h7.7425q2.4 0 2.4-2.4v-35.285q0-2.4-2.4-2.4h-7.7425q-2.4 0-2.4 2.4z" clip-path="url(#a)" fill="#fff" stroke="#fff"/>
<g clip-path="url(#a)">
<g transform="translate(165.68 803.94) rotate(90) scale(.08 -.08)">
<use xlink:href="#l"/>
<use x="60.818359" xlink:href="#d"/>
<use x="122.341797" xlink:href="#i"/>
<use x="163.439453" xlink:href="#k"/>
<use x="260.851562" xlink:href="#e"/>
<use x="288.634766" xlink:href="#h"/>
<use x="352.013672" xlink:href="#g"/>
<use x="413.292969" xlink:href="#j"/>
</g>
</g>
<path d="m205.18 803.94v35.285q0 2.4 2.4 2.4h7.7425q2.4 0 2.4-2.4v-35.285q0-2.4-2.4-2.4h-7.7425q-2.4 0-2.4 2.4z" clip-path="url(#a)" fill="#fff" stroke="#fff"/>
<g clip-path="url(#a)">
<g transform="translate(209.24 803.94) rotate(90) scale(.08 -.08)">
<use xlink:href="#l"/>
<use x="60.818359" xlink:href="#d"/>
<use x="122.341797" xlink:href="#i"/>
<use x="163.439453" xlink:href="#k"/>
<use x="260.851562" xlink:href="#e"/>
<use x="288.634766" xlink:href="#h"/>
<use x="352.013672" xlink:href="#g"/>
<use x="413.292969" xlink:href="#j"/>
</g>
</g>
<path d="m248.74 803.94v35.285q0 2.4 2.4 2.4h7.7425q2.4 0 2.4-2.4v-35.285q0-2.4-2.4-2.4h-7.7425q-2.4 0-2.4 2.4z" clip-path="url(#a)" fill="#fff" stroke="#fff"/>
<g clip-path="url(#a)">
<g transform="translate(252.8 803.94) rotate(90) scale(.08 -.08)">
<use xlink:href="#l"/>
<use x="60.818359" xlink:href="#d"/>
<use x="122.341797" xlink:href="#i"/>
<use x="163.439453" xlink:href="#k"/>
<use x="260.851562" xlink:href="#e"/>
<use x="288.634766" xlink:href="#h"/>
<use x="352.013672" xlink:href="#g"/>
<use x="413.292969" xlink:href="#j"/>
</g>
</g>
<path d="m335.71 689.98 2.3956-5.016q1.0343-2.1657-1.1314-3.2l-6.9866-3.3368q-2.1657-1.0343-3.2 1.1314l-2.3956 5.016q-1.0343 2.1657 1.1314 3.2l6.9866 3.3368q2.1657 1.0343 3.2-1.1314z" clip-path="url(#a)" fill="#fff" stroke="#fff"/>
<g clip-path="url(#a)">
<g transform="translate(332.04 688.23) rotate(-64.471) scale(.08 -.08)">
<use xlink:href="#v"/>
</g>
</g>
<path d="m358.82 688.25 0.79474-4.9921q0.37733-2.3702-1.9928-2.7475l-7.6462-1.2173q-2.3702-0.37733-2.7475 1.9928l-0.79474 4.9921q-0.37733 2.3702 1.9928 2.7475l7.6462 1.2173q2.3702 0.37733 2.7475-1.9928z" clip-path="url(#a)" fill="#fff" stroke="#fff"/>
<g clip-path="url(#a)">
<g transform="translate(354.81 687.61) rotate(-80.954) scale(.08 -.08)">
<use xlink:href="#aa"/>
</g>
</g>
<path d="m368.17 683 0.87827 5.5168q0.37733 2.3702 2.7475 1.9928l7.6462-1.2173q2.3702-0.37733 1.9928-2.7475l-0.87827-5.5168q-0.37733-2.3702-2.7475-1.9928l-7.6462 1.2173q-2.3702 0.37733-1.9928 2.7475z" clip-path="url(#a)" fill="#fff" stroke="#fff"/>
<g clip-path="url(#a)">
<g transform="translate(372.19 682.36) rotate(80.954) scale(.08 -.08)">
<use xlink:href="#o"/>
</g>
</g>
<path d="m389.84 685.19 2.1785 4.5615q1.0343 2.1657 3.2 1.1314l6.9866-3.3368q2.1657-1.0343 1.1314-3.2l-2.1785-4.5615q-1.0343-2.1657-3.2-1.1314l-6.9866 3.3368q-2.1657 1.0343-1.1314 3.2z" clip-path="url(#a)" fill="#fff" stroke="#fff"/>
<g clip-path="url(#a)">
<g transform="translate(393.51 683.44) rotate(64.471) scale(.08 -.08)">
<use xlink:href="#aa"/>
</g>
</g>
<path d="m292.3 803.94v35.285q0 2.4 2.4 2.4h7.7425q2.4 0 2.4-2.4v-35.285q0-2.4-2.4-2.4h-7.7425q-2.4 0-2.4 2.4z" clip-path="url(#a)" fill="#fff" stroke="#fff"/>
<g clip-path="url(#a)">
<g transform="translate(296.36 803.94) rotate(90) scale(.08 -.08)">
<use xlink:href="#l"/>
<use x="60.818359" xlink:href="#d"/>
<use x="122.341797" xlink:href="#i"/>
<use x="163.439453" xlink:href="#k"/>
<use x="260.851562" xlink:href="#e"/>
<use x="288.634766" xlink:href="#h"/>
<use x="352.013672" xlink:href="#g"/>
<use x="413.292969" xlink:href="#j"/>
</g>
</g>
<path d="m335.86 803.94v35.285q0 2.4 2.4 2.4h7.7425q2.4 0 2.4-2.4v-35.285q0-2.4-2.4-2.4h-7.7425q-2.4 0-2.4 2.4z" clip-path="url(#a)" fill="#fff" stroke="#fff"/>
<g clip-path="url(#a)">
<g transform="translate(339.93 803.94) rotate(90) scale(.08 -.08)">
<use xlink:href="#l"/>
<use x="60.818359" xlink:href="#d"/>
<use x="122.341797" xlink:href="#i"/>
<use x="163.439453" xlink:href="#k"/>
<use x="260.851562" xlink:href="#e"/>
<use x="288.634766" xlink:href="#h"/>
<use x="352.013672" xlink:href="#g"/>
<use x="413.292969" xlink:href="#j"/>
</g>
</g>
<path d="m379.43 803.94v35.285q0 2.4 2.4 2.4h7.7425q2.4 0 2.4-2.4v-35.285q0-2.4-2.4-2.4h-7.7425q-2.4 0-2.4 2.4z" clip-path="url(#a)" fill="#fff" stroke="#fff"/>
<g clip-path="url(#a)">
<g transform="translate(383.49 803.94) rotate(90) scale(.08 -.08)">
<use xlink:href="#l"/>
<use x="60.818359" xlink:href="#d"/>
<use x="122.341797" xlink:href="#i"/>
<use x="163.439453" xlink:href="#k"/>
<use x="260.851562" xlink:href="#e"/>
<use x="288.634766" xlink:href="#h"/>
<use x="352.013672" xlink:href="#g"/>
<use x="413.292969" xlink:href="#j"/>
</g>
</g>
<path d="m422.99 803.94v35.285q0 2.4 2.4 2.4h7.7425q2.4 0 2.4-2.4v-35.285q0-2.4-2.4-2.4h-7.7425q-2.4 0-2.4 2.4z" clip-path="url(#a)" fill="#fff" stroke="#fff"/>
<g clip-path="url(#a)">
<g transform="translate(427.05 803.94) rotate(90) scale(.08 -.08)">
<use xlink:href="#l"/>
<use x="60.818359" xlink:href="#d"/>
<use x="122.341797" xlink:href="#i"/>
<use x="163.439453" xlink:href="#k"/>
<use x="260.851562" xlink:href="#e"/>
<use x="288.634766" xlink:href="#h"/>
<use x="352.013672" xlink:href="#g"/>
<use x="413.292969" xlink:href="#j"/>
</g>
</g>
<path d="m858.61 803.94v35.285q0 2.4 2.4 2.4h7.7425q2.4 0 2.4-2.4v-35.285q0-2.4-2.4-2.4h-7.7425q-2.4 0-2.4 2.4z" clip-path="url(#a)" fill="#fff" stroke="#fff"/>
<g clip-path="url(#a)">
<g transform="translate(862.68 803.94) rotate(90) scale(.08 -.08)">
<use xlink:href="#l"/>
<use x="60.818359" xlink:href="#d"/>
<use x="122.341797" xlink:href="#i"/>
<use x="163.439453" xlink:href="#k"/>
<use x="260.851562" xlink:href="#e"/>
<use x="288.634766" xlink:href="#h"/>
<use x="352.013672" xlink:href="#g"/>
<use x="413.292969" xlink:href="#j"/>
</g>
</g>
<path d="m1207.1 803.94v35.285q0 2.4 2.4 2.4h7.7425q2.4 0 2.4-2.4v-35.285q0-2.4-2.4-2.4h-7.7425q-2.4 0-2.4 2.4z" clip-path="url(#a)" fill="#fff" stroke="#fff"/>
<g clip-path="url(#a)">
<g transform="translate(1211.2 803.94) rotate(90) scale(.08 -.08)">
<use xlink:href="#l"/>
<use x="60.818359" xlink:href="#d"/>
<use x="122.341797" xlink:href="#i"/>
<use x="163.439453" xlink:href="#k"/>
<use x="260.851562" xlink:href="#e"/>
<use x="288.634766" xlink:href="#h"/>
<use x="352.013672" xlink:href="#g"/>
<use x="413.292969" xlink:href="#j"/>
</g>
</g>
<path d="m1555.6 803.94v35.285q0 2.4 2.4 2.4h7.7425q2.4 0 2.4-2.4v-35.285q0-2.4-2.4-2.4h-7.7425q-2.4 0-2.4 2.4z" clip-path="url(#a)" fill="#fff" stroke="#fff"/>
<g clip-path="url(#a)">
<g transform="translate(1559.7 803.94) rotate(90) scale(.08 -.08)">
<use xlink:href="#l"/>
<use x="60.818359" xlink:href="#d"/>
<use x="122.341797" xlink:href="#i"/>
<use x="163.439453" xlink:href="#k"/>
<use x="260.851562" xlink:href="#e"/>
<use x="288.634766" xlink:href="#h"/>
<use x="352.013672" xlink:href="#g"/>
<use x="413.292969" xlink:href="#j"/>
</g>
</g>
<defs>
<path id="b" d="m0 8.6603c2.2967 0 4.4997-0.9125 6.1237-2.5365 1.624-1.624 2.5365-3.827 2.5365-6.1237s-0.9125-4.4997-2.5365-6.1237c-1.624-1.624-3.827-2.5365-6.1237-2.5365s-4.4997 0.9125-6.1237 2.5365c-1.624 1.624-2.5365 3.827-2.5365 6.1237s0.9125 4.4997 2.5365 6.1237c1.624 1.624 3.827 2.5365 6.1237 2.5365z"/>
</defs>
<g clip-path="url(#a)">
<use x="80.759235" y="889.995044" fill="#ffffff" stroke="#ffffff" xlink:href="#b"/>
</g>
<g clip-path="url(#a)">
<use x="124.321799" y="889.995044" fill="#ffffff" stroke="#ffffff" xlink:href="#b"/>
</g>
<g clip-path="url(#a)">
<use x="167.884363" y="889.995044" fill="#ffffff" stroke="#ffffff" xlink:href="#b"/>
</g>
<g clip-path="url(#a)">
<use x="211.446927" y="889.995044" fill="#ffffff" stroke="#ffffff" xlink:href="#b"/>
</g>
<g clip-path="url(#a)">
<use x="255.00949" y="889.995044" fill="#ffffff" stroke="#ffffff" xlink:href="#b"/>
</g>
<g clip-path="url(#a)">
<use x="298.572054" y="889.995044" fill="#ffffff" stroke="#ffffff" xlink:href="#b"/>
</g>
<g clip-path="url(#a)">
<use x="342.134618" y="889.995044" fill="#ffffff" stroke="#ffffff" xlink:href="#b"/>
</g>
<g clip-path="url(#a)">
<use x="385.697182" y="889.995044" fill="#ffffff" stroke="#ffffff" xlink:href="#b"/>
</g>
<g clip-path="url(#a)">
<use x="429.259746" y="889.995044" fill="#ffffff" stroke="#ffffff" xlink:href="#b"/>
</g>
<g clip-path="url(#a)">
<use x="472.82231" y="889.995044" fill="#ffffff" stroke="#ffffff" xlink:href="#b"/>
</g>
<g clip-path="url(#a)">
<use x="516.384874" y="889.995044" fill="#ffffff" stroke="#ffffff" xlink:href="#b"/>
</g>
<g clip-path="url(#a)">
<use x="559.947438" y="889.995044" fill="#ffffff" stroke="#ffffff" xlink:href="#b"/>
</g>
<g clip-path="url(#a)">
<use x="603.510001" y="889.995044" fill="#ffffff" stroke="#ffffff" xlink:href="#b"/>
</g>
<g clip-path="url(#a)">
<use x="647.072565" y="889.995044" fill="#ffffff" stroke="#ffffff" xlink:href="#b"/>
</g>
<g clip-path="url(#a)">
<use x="690.635129" y="889.995044" fill="#ffffff" stroke="#ffffff" xlink:href="#b"/>
</g>
<g clip-path="url(#a)">
<use x="734.197693" y="889.995044" fill="#ffffff" stroke="#ffffff" xlink:href="#b"/>
</g>
<g clip-path="url(#a)">
<use x="777.760257" y="889.995044" fill="#ffffff" stroke="#ffffff" xlink:href="#b"/>
</g>
<g clip-path="url(#a)">
<use x="821.322821" y="889.995044" fill="#ffffff" stroke="#ffffff" xlink:href="#b"/>
</g>
<g clip-path="url(#a)">
<use x="864.885385" y="889.995044" fill="#ffffff" stroke="#ffffff" xlink:href="#b"/>
</g>
<g clip-path="url(#a)">
<use x="908.447949" y="889.995044" fill="#ffffff" stroke="#ffffff" xlink:href="#b"/>
</g>
<g clip-path="url(#a)">
<use x="952.010512" y="889.995044" fill="#ffffff" stroke="#ffffff" xlink:href="#b"/>
</g>
<g clip-path="url(#a)">
<use x="995.573076" y="889.995044" fill="#ffffff" stroke="#ffffff" xlink:href="#b"/>
</g>
<g clip-path="url(#a)">
<use x="1039.13564" y="889.995044" fill="#ffffff" stroke="#ffffff" xlink:href="#b"/>
</g>
<g clip-path="url(#a)">
<use x="1082.698204" y="889.995044" fill="#ffffff" stroke="#ffffff" xlink:href="#b"/>
</g>
<g clip-path="url(#a)">
<use x="1126.260768" y="889.995044" fill="#ffffff" stroke="#ffffff" xlink:href="#b"/>
</g>
<g clip-path="url(#a)">
<use x="1169.823332" y="889.995044" fill="#ffffff" stroke="#ffffff" xlink:href="#b"/>
</g>
<g clip-path="url(#a)">
<use x="1213.385896" y="889.995044" fill="#ffffff" stroke="#ffffff" xlink:href="#b"/>
</g>
<g clip-path="url(#a)">
<use x="1256.94846" y="889.995044" fill="#ffffff" stroke="#ffffff" xlink:href="#b"/>
</g>
<g clip-path="url(#a)">
<use x="1300.511023" y="889.995044" fill="#ffffff" stroke="#ffffff" xlink:href="#b"/>
</g>
<g clip-path="url(#a)">
<use x="1344.073587" y="889.995044" fill="#ffffff" stroke="#ffffff" xlink:href="#b"/>
</g>
<g clip-path="url(#a)">
<use x="1387.636151" y="889.995044" fill="#ffffff" stroke="#ffffff" xlink:href="#b"/>
</g>
<g clip-path="url(#a)">
<use x="1431.198715" y="889.995044" fill="#ffffff" stroke="#ffffff" xlink:href="#b"/>
</g>
<g clip-path="url(#a)">
<use x="1474.761279" y="889.995044" fill="#ffffff" stroke="#ffffff" xlink:href="#b"/>
</g>
<g clip-path="url(#a)">
<use x="1518.323843" y="889.995044" fill="#ffffff" stroke="#ffffff" xlink:href="#b"/>
</g>
<g clip-path="url(#a)">
<use x="1561.886407" y="889.995044" fill="#ffffff" stroke="#ffffff" xlink:href="#b"/>
</g>
<g clip-path="url(#a)">
<use x="1029.952064" y="43.338289" fill="#ffffff" stroke="#ffffff" xlink:href="#b"/>
</g>
<g clip-path="url(#a)">
<use x="506.250527" y="191.633114" fill="#ffffff" stroke="#ffffff" xlink:href="#b"/>
</g>
<g clip-path="url(#a)">
<use x="1199.383643" y="336.246839" fill="#ffffff" stroke="#ffffff" xlink:href="#b"/>
</g>
<g clip-path="url(#a)">
<use x="1365.854869" y="477.638914" fill="#ffffff" stroke="#ffffff" xlink:href="#b"/>
</g>
<g clip-path="url(#a)">
<use x="1605.448971" y="889.995044" fill="#ffffff" stroke="#ffffff" xlink:href="#b"/>
</g>
<g clip-path="url(#a)">
<use x="1256.94846" y="753.177429" fill="#ffffff" stroke="#ffffff" xlink:href="#b"/>
</g>
<g clip-path="url(#a)">
<use x="1387.636151" y="616.359813" fill="#ffffff" stroke="#ffffff" xlink:href="#b"/>
</g>
<g clip-path="url(#a)">
<use x="1344.073587" y="753.177429" fill="#ffffff" stroke="#ffffff" xlink:href="#b"/>
</g>
<g clip-path="url(#a)">
<use x="1518.323843" y="616.359813" fill="#ffffff" stroke="#ffffff" xlink:href="#b"/>
</g>
<g clip-path="url(#a)">
<use x="1474.761279" y="753.177429" fill="#ffffff" stroke="#ffffff" xlink:href="#b"/>
</g>
<g clip-path="url(#a)">
<use x="1518.323843" y="753.177429" fill="#ffffff" stroke="#ffffff" xlink:href="#b"/>
</g>
<g clip-path="url(#a)">
<use x="1344.073587" y="753.177429" fill="#ffffff" stroke="#ffffff" xlink:href="#b"/>
</g>
<g clip-path="url(#a)">
<use x="1431.198715" y="753.177429" fill="#ffffff" stroke="#ffffff" xlink:href="#b"/>
</g>
<g clip-path="url(#a)">
<use x="1692.574098" y="889.995044" fill="#ffffff" stroke="#ffffff" xlink:href="#b"/>
</g>
<g clip-path="url(#a)">
<use x="1289.620382" y="477.638914" fill="#ffffff" stroke="#ffffff" xlink:href="#b"/>
</g>
<g clip-path="url(#a)">
<use x="995.573076" y="753.177429" fill="#ffffff" stroke="#ffffff" xlink:href="#b"/>
</g>
<g clip-path="url(#a)">
<use x="1039.13564" y="753.177429" fill="#ffffff" stroke="#ffffff" xlink:href="#b"/>
</g>
<g clip-path="url(#a)">
<use x="1082.698204" y="753.177429" fill="#ffffff" stroke="#ffffff" xlink:href="#b"/>
</g>
<g clip-path="url(#a)">
<use x="1126.260768" y="753.177429" fill="#ffffff" stroke="#ffffff" xlink:href="#b"/>
</g>
<g clip-path="url(#a)">
<use x="1169.823332" y="753.177429" fill="#ffffff" stroke="#ffffff" xlink:href="#b"/>
</g>
<g clip-path="url(#a)">
<use x="1649.011534" y="889.995044" fill="#ffffff" stroke="#ffffff" xlink:href="#b"/>
</g>
<g clip-path="url(#a)">
<use x="930.229231" y="616.359813" fill="#ffffff" stroke="#ffffff" xlink:href="#b"/>
</g>
<g clip-path="url(#a)">
<use x="908.447949" y="753.177429" fill="#ffffff" stroke="#ffffff" xlink:href="#b"/>
</g>
<g clip-path="url(#a)">
<use x="952.010512" y="753.177429" fill="#ffffff" stroke="#ffffff" xlink:href="#b"/>
</g>
<g clip-path="url(#a)">
<use x="276.790772" y="753.177429" fill="#ffffff" stroke="#ffffff" xlink:href="#b"/>
</g>
<g clip-path="url(#a)">
<use x="186.942984" y="336.246839" fill="#ffffff" stroke="#ffffff" xlink:href="#b"/>
</g>
<g clip-path="url(#a)">
<use x="516.384874" y="753.177429" fill="#ffffff" stroke="#ffffff" xlink:href="#b"/>
</g>
<g clip-path="url(#a)">
<use x="581.72872" y="616.359813" fill="#ffffff" stroke="#ffffff" xlink:href="#b"/>
</g>
<g clip-path="url(#a)">
<use x="719.676838" y="616.359813" fill="#ffffff" stroke="#ffffff" xlink:href="#b"/>
</g>
<g clip-path="url(#a)">
<use x="755.978975" y="616.359813" fill="#ffffff" stroke="#ffffff" xlink:href="#b"/>
</g>
<g clip-path="url(#a)">
<use x="734.197693" y="753.177429" fill="#ffffff" stroke="#ffffff" xlink:href="#b"/>
</g>
<g clip-path="url(#a)">
<use x="777.760257" y="753.177429" fill="#ffffff" stroke="#ffffff" xlink:href="#b"/>
</g>
<g clip-path="url(#a)">
<use x="647.072565" y="753.177429" fill="#ffffff" stroke="#ffffff" xlink:href="#b"/>
</g>
<g clip-path="url(#a)">
<use x="690.635129" y="753.177429" fill="#ffffff" stroke="#ffffff" xlink:href="#b"/>
</g>
<g clip-path="url(#a)">
<use x="821.322821" y="753.177429" fill="#ffffff" stroke="#ffffff" xlink:href="#b"/>
</g>
<g clip-path="url(#a)">
<use x="559.947438" y="753.177429" fill="#ffffff" stroke="#ffffff" xlink:href="#b"/>
</g>
<g clip-path="url(#a)">
<use x="603.510001" y="753.177429" fill="#ffffff" stroke="#ffffff" xlink:href="#b"/>
</g>
<g clip-path="url(#a)">
<use x="124.321799" y="753.177429" fill="#ffffff" stroke="#ffffff" xlink:href="#b"/>
</g>
<g clip-path="url(#a)">
<use x="249.56417" y="477.638914" fill="#ffffff" stroke="#ffffff" xlink:href="#b"/>
</g>
<g clip-path="url(#a)">
<use x="167.884363" y="753.177429" fill="#ffffff" stroke="#ffffff" xlink:href="#b"/>
</g>
<g clip-path="url(#a)">
<use x="211.446927" y="753.177429" fill="#ffffff" stroke="#ffffff" xlink:href="#b"/>
</g>
<g clip-path="url(#a)">
<use x="255.00949" y="753.177429" fill="#ffffff" stroke="#ffffff" xlink:href="#b"/>
</g>
<g clip-path="url(#a)">
<use x="363.9159" y="616.359813" fill="#ffffff" stroke="#ffffff" xlink:href="#b"/>
</g>
<g clip-path="url(#a)">
<use x="298.572054" y="753.177429" fill="#ffffff" stroke="#ffffff" xlink:href="#b"/>
</g>
<g clip-path="url(#a)">
<use x="342.134618" y="753.177429" fill="#ffffff" stroke="#ffffff" xlink:href="#b"/>
</g>
<g clip-path="url(#a)">
<use x="385.697182" y="753.177429" fill="#ffffff" stroke="#ffffff" xlink:href="#b"/>
</g>
<g clip-path="url(#a)">
<use x="429.259746" y="753.177429" fill="#ffffff" stroke="#ffffff" xlink:href="#b"/>
</g>
<g clip-path="url(#a)">
<use x="864.885385" y="753.177429" fill="#ffffff" stroke="#ffffff" xlink:href="#b"/>
</g>
<g clip-path="url(#a)">
<use x="1213.385896" y="753.177429" fill="#ffffff" stroke="#ffffff" xlink:href="#b"/>
</g>
<g clip-path="url(#a)">
<use x="1561.886407" y="753.177429" fill="#ffffff" stroke="#ffffff" xlink:href="#b"/>
</g>
<g clip-path="url(#a)">
<defs>
<path id="av" d="m9.8125 72.906h9.8594v-67.828q0-13.188-5-19.141t-16.094-5.9531h-3.75v8.2969h3.0781q6.5312 0 9.2188 3.6719 2.6875 3.6562 2.6875 13.125z"/>
<path id="t" d="m44.281 53.078v-8.5q-3.7969 1.9531-7.9062 2.9219-4.0938 0.98438-8.5 0.98438-6.6875 0-10.031-2.0469t-3.3438-6.1562q0-3.125 2.3906-4.9062t9.625-3.3906l3.0781-0.6875q9.5625-2.0469 13.594-5.7812t4.0312-10.422q0-7.625-6.0312-12.078-6.0312-4.4375-16.578-4.4375-4.3906 0-9.1562 0.85938t-10.031 2.5625v9.2812q4.9844-2.5938 9.8125-3.8906 4.8281-1.2812 9.5781-1.2812 6.3438 0 9.75 2.1719 3.4219 2.1719 3.4219 6.125 0 3.6562-2.4688 5.6094-2.4531 1.9531-10.812 3.7656l-3.125 0.73438q-8.3438 1.75-12.062 5.3906-3.7031 3.6406-3.7031 9.9844 0 7.7188 5.4688 11.906 5.4688 4.2031 15.531 4.2031 4.9688 0 9.3594-0.73438 4.4062-0.71875 8.1094-2.1875z"/>
</defs>
<g transform="translate(64.292 892.75) scale(.1 -.1)">
<use xlink:href="#av"/>
<use x="29.492188" xlink:href="#g"/>
<use x="90.771484" xlink:href="#k"/>
<use x="188.183594" xlink:href="#g"/>
<use x="249.462891" xlink:href="#e"/>
<use x="277.246094" xlink:href="#t"/>
</g>
</g>
<g clip-path="url(#a)">
<defs>
<path id="am" d="m56.203 29.594v-4.3906h-41.312q0.59375-9.2812 5.5938-14.141t13.938-4.8594q5.1719 0 10.031 1.2656t9.6562 3.8125v-8.5q-4.8438-2.0469-9.9219-3.125t-10.297-1.0781q-13.094 0-20.734 7.6094-7.6406 7.625-7.6406 20.625 0 13.422 7.25 21.297 7.25 7.8906 19.562 7.8906 11.031 0 17.453-7.1094 6.4219-7.0938 6.4219-19.297zm-8.9844 2.6406q-0.09375 7.3594-4.125 11.75-4.0312 4.4062-10.672 4.4062-7.5156 0-12.031-4.25t-5.2031-11.969zm-8.6875 47.75h9.7188l-15.906-18.359h-7.4844z"/>
<path id="ar" d="m14.797 27.297q0-9.9062 4.0781-15.547t11.203-5.6406 11.219 5.6406q4.1094 5.6406 4.1094 15.547t-4.1094 15.547q-4.0938 5.6406-11.219 5.6406t-11.203-5.6406-4.0781-15.547zm30.609-19.094q-2.8281-4.875-7.1562-7.25-4.3125-2.375-10.375-2.375-9.9062 0-16.141 7.9062-6.2188 7.9219-6.2188 20.812t6.2188 20.797q6.2344 7.9062 16.141 7.9062 6.0625 0 10.375-2.375 4.3281-2.3594 7.1562-7.2344v8.2969h8.9844v-75.484h-8.9844z"/>
<path id="q" d="m8.5 21.578v33.109h8.9844v-32.766q0-7.7656 3.0156-11.656 3.0312-3.875 9.0938-3.875 7.2656 0 11.484 4.6406 4.2344 4.6406 4.2344 12.656v31h8.9844v-54.688h-8.9844v8.4062q-3.2656-4.9844-7.5938-7.4062-4.3125-2.4219-10.031-2.4219-9.4219 0-14.312 5.8594-4.875 5.8594-4.875 17.141z"/>
<path id="z" d="m18.109 8.2031v-29h-9.0312v75.484h9.0312v-8.2969q2.8438 4.875 7.1562 7.2344 4.3281 2.375 10.328 2.375 9.9688 0 16.188-7.9062 6.2344-7.9062 6.2344-20.797t-6.2344-20.812q-6.2188-7.9062-16.188-7.9062-6 0-10.328 2.375-4.3125 2.375-7.1562 7.25zm30.578 19.094q0 9.9062-4.0781 15.547t-11.203 5.6406q-7.1406 0-11.219-5.6406t-4.0781-15.547 4.0781-15.547 11.219-5.6406q7.125 0 11.203 5.6406t4.0781 15.547z"/>
<path id="bb" d="m45.406 27.984q0 9.7656-4.0312 15.125-4.0156 5.375-11.297 5.375-7.2188 0-11.25-5.375-4.0312-5.3594-4.0312-15.125 0-9.7188 4.0312-15.094t11.25-5.375q7.2812 0 11.297 5.375 4.0312 5.375 4.0312 15.094zm8.9844-21.203q0-13.953-6.2031-20.766-6.1875-6.8125-18.984-6.8125-4.7344 0-8.9375 0.70312t-8.1562 2.1719v8.7344q3.9531-2.1406 7.8125-3.1562 3.8594-1.0312 7.8594-1.0312 8.8438 0 13.234 4.6094t4.3906 13.938v4.4531q-2.7812-4.8438-7.125-7.2344t-10.406-2.3906q-10.047 0-16.203 7.6562-6.1562 7.6719-6.1562 20.328 0 12.688 6.1562 20.344 6.1562 7.6719 16.203 7.6719 6.0625 0 10.406-2.3906t7.125-7.2188v8.2969h8.9844z"/>
</defs>
<g transform="translate(101.02 892.95) scale(.1 -.1)">
<use xlink:href="#am"/>
<use x="61.523438" xlink:href="#ar"/>
<use x="125" xlink:href="#q"/>
<use x="188.378906" xlink:href="#e"/>
<use x="216.162109" xlink:href="#z"/>
<use x="279.638672" xlink:href="#g"/>
<use x="340.917969" xlink:href="#bb"/>
<use x="404.394531" xlink:href="#d"/>
</g>
</g>
<g clip-path="url(#a)">
<defs>
<path id="ag" d="m45.406 46.391v29.594h8.9844v-75.984h-8.9844v8.2031q-2.8281-4.875-7.1562-7.25-4.3125-2.375-10.375-2.375-9.9062 0-16.141 7.9062-6.2188 7.9219-6.2188 20.812t6.2188 20.797q6.2344 7.9062 16.141 7.9062 6.0625 0 10.375-2.375 4.3281-2.3594 7.1562-7.2344zm-30.609-19.094q0-9.9062 4.0781-15.547t11.203-5.6406 11.219 5.6406q4.1094 5.6406 4.1094 15.547t-4.1094 15.547q-4.0938 5.6406-11.219 5.6406t-11.203-5.6406-4.0781-15.547z"/>
<path id="ap" d="m17.922 72.906v-27.109h-8.2969v27.109z"/>
</defs>
<g transform="translate(163.34 892.75) scale(.1 -.1)">
<use xlink:href="#ag"/>
<use x="63.476562" xlink:href="#ap"/>
</g>
</g>
<g clip-path="url(#a)">
<g transform="translate(205.11 892.75) scale(.1 -.1)">
<use xlink:href="#q"/>
<use x="63.378906" xlink:href="#h"/>
</g>
</g>
<g clip-path="url(#a)">
<defs>
<path id="at" d="m48.688 27.297q0 9.9062-4.0781 15.547t-11.203 5.6406q-7.1406 0-11.219-5.6406t-4.0781-15.547 4.0781-15.547 11.219-5.6406q7.125 0 11.203 5.6406t4.0781 15.547zm-30.578 19.094q2.8438 4.875 7.1562 7.2344 4.3281 2.375 10.328 2.375 9.9688 0 16.188-7.9062 6.2344-7.9062 6.2344-20.797t-6.2344-20.812q-6.2188-7.9062-16.188-7.9062-6 0-10.328 2.375-4.3125 2.375-7.1562 7.25v-8.2031h-9.0312v75.984h9.0312z"/>
<path id="ax" d="m34.281 27.484q-10.891 0-15.094-2.4844t-4.2031-8.5q0-4.7812 3.1562-7.5938 3.1562-2.7969 8.5625-2.7969 7.4844 0 12 5.2969t4.5156 14.078v2zm17.922 3.7188v-31.203h-8.9844v8.2969q-3.0781-4.9688-7.6719-7.3438t-11.234-2.375q-8.3906 0-13.359 4.7188-4.9531 4.7188-4.9531 12.625 0 9.2188 6.1719 13.906 6.1875 4.6875 18.438 4.6875h12.609v0.89062q0 6.2031-4.0781 9.5938t-11.453 3.3906q-4.6875 0-9.1406-1.125-4.4375-1.125-8.5312-3.375v8.3125q4.9219 1.9062 9.5625 2.8438 4.6406 0.95312 9.0312 0.95312 11.875 0 17.734-6.1562 5.8594-6.1406 5.8594-18.641zm-26.812 48.781h7.2188l11.969-18.359h-6.7812l-8.7969 11.953-8.7812-11.953h-6.7969z"/>
<path id="r" d="m18.312 70.219v-15.531h18.5v-6.9844h-18.5v-29.688q0-6.6875 1.8281-8.5938t7.4531-1.9062h9.2188v-7.5156h-9.2188q-10.406 0-14.359 3.875-3.9531 3.8906-3.9531 14.141v29.688h-6.5938v6.9844h6.5938v15.531z"/>
</defs>
<g transform="translate(232.35 892.75) scale(.1 -.1)">
<use xlink:href="#at"/>
<use x="63.476562" xlink:href="#ax"/>
<use x="124.755859" xlink:href="#r"/>
<use x="163.964844" xlink:href="#e"/>
<use x="191.748047" xlink:href="#k"/>
<use x="289.160156" xlink:href="#d"/>
<use x="350.683594" xlink:href="#h"/>
<use x="414.0625" xlink:href="#r"/>
</g>
</g>
<g clip-path="url(#a)">
<g transform="translate(292.32 892.75) scale(.1 -.1)">
<use xlink:href="#ag"/>
<use x="63.476562" xlink:href="#d"/>
</g>
</g>
<g clip-path="url(#a)">
<g transform="translate(337.68 892.75) scale(.1 -.1)">
<use xlink:href="#j"/>
<use x="27.783203" xlink:href="#g"/>
</g>
</g>
<g clip-path="url(#a)">
<g transform="translate(368.07 892.75) scale(.1 -.1)">
<use xlink:href="#k"/>
<use x="97.412109" xlink:href="#g"/>
<use x="158.691406" xlink:href="#i"/>
<use x="199.804688" xlink:href="#e"/>
<use x="227.587891" xlink:href="#h"/>
<use x="290.966797" xlink:href="#d"/>
</g>
</g>
<g clip-path="url(#a)">
<defs>
<path id="ae" d="m48.781 52.594v-8.4062q-3.8125 2.1094-7.6406 3.1562t-7.7344 1.0469q-8.75 0-13.594-5.5469-4.8281-5.5312-4.8281-15.547t4.8281-15.562q4.8438-5.5312 13.594-5.5312 3.9062 0 7.7344 1.0469t7.6406 3.1562v-8.3125q-3.7656-1.75-7.7969-2.625-4.0156-0.89062-8.5625-0.89062-12.359 0-19.641 7.7656-7.2656 7.7656-7.2656 20.953 0 13.375 7.3438 21.031 7.3594 7.6719 20.156 7.6719 4.1406 0 8.0938-0.85938 3.9531-0.84375 7.6719-2.5469z"/>
</defs>
<g transform="translate(401.36 892.75) scale(.1 -.1)">
<use xlink:href="#g"/>
<use x="61.279297" xlink:href="#k"/>
<use x="158.691406" xlink:href="#am"/>
<use x="220.214844" xlink:href="#i"/>
<use x="261.328125" xlink:href="#e"/>
<use x="289.111328" xlink:href="#ae"/>
<use x="344.091797" xlink:href="#g"/>
<use x="405.371094" xlink:href="#e"/>
<use x="433.154297" xlink:href="#h"/>
<use x="496.533203" xlink:href="#d"/>
</g>
</g>
<g clip-path="url(#a)">
<g transform="translate(466.58 892.75) scale(.1 -.1)">
<use xlink:href="#h"/>
<use x="63.378906" xlink:href="#d"/>
</g>
</g>
<g clip-path="url(#a)">
<defs>
<path id="as" d="m30.609 48.391q-7.2188 0-11.422-5.6406t-4.2031-15.453 4.1719-15.453q4.1875-5.6406 11.453-5.6406 7.1875 0 11.375 5.6562 4.2031 5.6719 4.2031 15.438 0 9.7188-4.2031 15.406-4.1875 5.6875-11.375 5.6875zm0 7.6094q11.719 0 18.406-7.625 6.7031-7.6094 6.7031-21.078 0-13.422-6.7031-21.078-6.6875-7.6406-18.406-7.6406-11.766 0-18.438 7.6406-6.6562 7.6562-6.6562 21.078 0 13.469 6.6562 21.078 6.6719 7.625 18.438 7.625z"/>
</defs>
<g transform="translate(498.21 892.75) scale(.1 -.1)">
<use xlink:href="#k"/>
<use x="97.412109" xlink:href="#as"/>
<use x="158.59375" xlink:href="#h"/>
<use x="221.972656" xlink:href="#r"/>
<use x="261.181641" xlink:href="#i"/>
<use x="302.294922" xlink:href="#g"/>
</g>
</g>
<g clip-path="url(#a)">
<g transform="translate(549.61 892.75) scale(.1 -.1)">
<use xlink:href="#z"/>
<use x="63.476562" xlink:href="#j"/>
<use x="91.259766" xlink:href="#q"/>
<use x="154.638672" xlink:href="#t"/>
</g>
</g>
<g clip-path="url(#a)">
<g transform="translate(597.26 892.75) scale(.1 -.1)">
<use xlink:href="#ag"/>
<use x="63.476562" xlink:href="#d"/>
</g>
</g>
<g clip-path="url(#a)">
<g transform="translate(625.41 892.75) scale(.1 -.1)">
<use xlink:href="#z"/>
<use x="63.476562" xlink:href="#g"/>
<use x="124.755859" xlink:href="#r"/>
<use x="163.964844" xlink:href="#e"/>
<use x="191.748047" xlink:href="#d"/>
<use x="253.271484" xlink:href="#h"/>
<use x="316.650391" xlink:href="#ae"/>
<use x="371.630859" xlink:href="#d"/>
</g>
</g>
<g clip-path="url(#a)">
<g transform="translate(685.6 892.75) scale(.1 -.1)">
<use xlink:href="#d"/>
<use x="61.523438" xlink:href="#r"/>
</g>
</g>
<g clip-path="url(#a)">
<g transform="translate(723.86 892.75) scale(.1 -.1)">
<use xlink:href="#z"/>
<use x="63.476562" xlink:href="#j"/>
<use x="91.259766" xlink:href="#q"/>
<use x="154.638672" xlink:href="#t"/>
</g>
</g>
<g clip-path="url(#a)">
<g transform="translate(771.51 892.75) scale(.1 -.1)">
<use xlink:href="#ag"/>
<use x="63.476562" xlink:href="#d"/>
</g>
</g>
<g clip-path="url(#a)">
<defs>
<path id="az" d="m5.5156 54.688h42.672v-8.2031l-33.781-39.312h33.781v-7.1719h-43.891v8.2031l33.797 39.312h-32.578z"/>
<path id="aq" d="m56.203 29.594v-4.3906h-41.312q0.59375-9.2812 5.5938-14.141t13.938-4.8594q5.1719 0 10.031 1.2656t9.6562 3.8125v-8.5q-4.8438-2.0469-9.9219-3.125t-10.297-1.0781q-13.094 0-20.734 7.6094-7.6406 7.625-7.6406 20.625 0 13.422 7.25 21.297 7.25 7.8906 19.562 7.8906 11.031 0 17.453-7.1094 6.4219-7.0938 6.4219-19.297zm-8.9844 2.6406q-0.09375 7.3594-4.125 11.75-4.0312 4.4062-10.672 4.4062-7.5156 0-12.031-4.25t-5.2031-11.969zm-22.547 47.75 13.766-18.266h-7.4688l-15.922 18.266z"/>
</defs>
<g transform="translate(811.16 892.75) scale(.1 -.1)">
<use xlink:href="#az"/>
<use x="52.490234" xlink:href="#aq"/>
<use x="114.013672" xlink:href="#j"/>
<use x="141.796875" xlink:href="#d"/>
</g>
</g>
<g clip-path="url(#a)">
<defs>
<path id="ao" d="m11.719 51.703h10.297v-12.391h-10.297zm0-39.297h10.297v-8.4062l-8-15.625h-6.2969l4 15.625z"/>
</defs>
<g transform="translate(863.2 892.75) scale(.1 -.1)">
<use xlink:href="#ao"/>
</g>
</g>
<g clip-path="url(#a)">
<g transform="translate(899.62 892.75) scale(.1 -.1)">
<use xlink:href="#t"/>
<use x="52.099609" xlink:href="#as"/>
<use x="113.28125" xlink:href="#h"/>
</g>
</g>
<g clip-path="url(#a)">
<g transform="translate(930.5 892.75) scale(.1 -.1)">
<use xlink:href="#e"/>
<use x="27.783203" xlink:href="#h"/>
<use x="91.162109" xlink:href="#t"/>
<use x="143.261719" xlink:href="#q"/>
<use x="206.640625" xlink:href="#ae"/>
<use x="261.621094" xlink:href="#ae"/>
<use x="316.601562" xlink:href="#aq"/>
<use x="378.125" xlink:href="#t"/>
</g>
</g>
<g clip-path="url(#a)">
<g transform="translate(989.33 892.75) scale(.1 -.1)">
<use xlink:href="#h"/>
<use x="63.378906" xlink:href="#d"/>
</g>
</g>
<g clip-path="url(#a)">
<g transform="translate(1021.8 892.75) scale(.1 -.1)">
<use xlink:href="#t"/>
<use x="52.099609" xlink:href="#g"/>
<use x="113.378906" xlink:href="#q"/>
<use x="176.757812" xlink:href="#i"/>
<use x="217.871094" xlink:href="#g"/>
<use x="279.150391" xlink:href="#e"/>
<use x="306.933594" xlink:href="#r"/>
</g>
</g>
<g clip-path="url(#a)">
<g transform="translate(1076.8 892.75) scale(.1 -.1)">
<use xlink:href="#j"/>
<use x="27.783203" xlink:href="#q"/>
<use x="91.162109" xlink:href="#e"/>
</g>
</g>
<g clip-path="url(#a)">
<defs>
<path id="aw" d="m56.203 29.594v-4.3906h-41.312q0.59375-9.2812 5.5938-14.141t13.938-4.8594q5.1719 0 10.031 1.2656t9.6562 3.8125v-8.5q-4.8438-2.0469-9.9219-3.125t-10.297-1.0781q-13.094 0-20.734 7.6094-7.6406 7.625-7.6406 20.625 0 13.422 7.25 21.297 7.25 7.8906 19.562 7.8906 11.031 0 17.453-7.1094 6.4219-7.0938 6.4219-19.297zm-8.9844 2.6406q-0.09375 7.3594-4.125 11.75-4.0312 4.4062-10.672 4.4062-7.5156 0-12.031-4.25t-5.2031-11.969zm-19.078 47.75h7.2188l11.969-18.359h-6.7812l-8.7969 11.953-8.7812-11.953h-6.7969z"/>
</defs>
<g transform="translate(1116.1 892.75) scale(.1 -.1)">
<use xlink:href="#aw"/>
<use x="61.523438" xlink:href="#r"/>
<use x="100.732422" xlink:href="#i"/>
<use x="141.814453" xlink:href="#d"/>
</g>
</g>
<g clip-path="url(#a)">
<g transform="translate(1152.2 892.95) scale(.1 -.1)">
<use xlink:href="#e"/>
<use x="27.783203" xlink:href="#k"/>
<use x="125.195312" xlink:href="#z"/>
<use x="188.671875" xlink:href="#q"/>
<use x="252.050781" xlink:href="#r"/>
<use x="291.259766" xlink:href="#am"/>
</g>
</g>
<g clip-path="url(#a)">
<g transform="translate(1211.7 892.75) scale(.1 -.1)">
<use xlink:href="#ao"/>
</g>
</g>
<g clip-path="url(#a)">
<g transform="translate(1254.2 892.75) scale(.1 -.1)">
<use xlink:href="#e"/>
<use x="27.783203" xlink:href="#j"/>
</g>
</g>
<g clip-path="url(#a)">
<g transform="translate(1294.3 892.75) scale(.1 -.1)">
<use xlink:href="#h"/>
<use x="63.378906" xlink:href="#d"/>
</g>
</g>
<g clip-path="url(#a)">
<g transform="translate(1328 892.75) scale(.1 -.1)">
<use xlink:href="#i"/>
<use x="41.082031" xlink:href="#d"/>
<use x="102.605469" xlink:href="#t"/>
<use x="154.705078" xlink:href="#r"/>
<use x="193.914062" xlink:href="#g"/>
<use x="255.193359" xlink:href="#e"/>
<use x="282.976562" xlink:href="#r"/>
</g>
</g>
<g clip-path="url(#a)">
<g transform="translate(1377.3 892.75) scale(.1 -.1)">
<use xlink:href="#z"/>
<use x="63.476562" xlink:href="#j"/>
<use x="91.259766" xlink:href="#q"/>
<use x="154.638672" xlink:href="#t"/>
</g>
</g>
<g clip-path="url(#a)">
<g transform="translate(1423.5 892.75) scale(.1 -.1)">
<use xlink:href="#ar"/>
<use x="63.476562" xlink:href="#q"/>
<use x="126.855469" xlink:href="#ap"/>
</g>
</g>
<g clip-path="url(#a)">
<defs>
<path id="ay" d="m34.281 27.484q-10.891 0-15.094-2.4844t-4.2031-8.5q0-4.7812 3.1562-7.5938 3.1562-2.7969 8.5625-2.7969 7.4844 0 12 5.2969t4.5156 14.078v2zm17.922 3.7188v-31.203h-8.9844v8.2969q-3.0781-4.9688-7.6719-7.3438t-11.234-2.375q-8.3906 0-13.359 4.7188-4.9531 4.7188-4.9531 12.625 0 9.2188 6.1719 13.906 6.1875 4.6875 18.438 4.6875h12.609v0.89062q0 6.2031-4.0781 9.5938t-11.453 3.3906q-4.6875 0-9.1406-1.125-4.4375-1.125-8.5312-3.375v8.3125q4.9219 1.9062 9.5625 2.8438 4.6406 0.95312 9.0312 0.95312 11.875 0 17.734-6.1562 5.8594-6.1406 5.8594-18.641zm-30.281 48.781 13.766-18.266h-7.4688l-15.922 18.266z"/>
</defs>
<g transform="translate(1471.7 892.75) scale(.1 -.1)">
<use xlink:href="#ay"/>
</g>
</g>
<g clip-path="url(#a)">
<defs>
<path id="ba" d="m2.9844 54.688h9.5156l17.094-45.891 17.094 45.891h9.5156l-20.516-54.688h-12.203z"/>
</defs>
<g transform="translate(1500.5 892.75) scale(.1 -.1)">
<use xlink:href="#i"/>
<use x="41.082031" xlink:href="#d"/>
<use x="102.605469" xlink:href="#ba"/>
<use x="161.785156" xlink:href="#d"/>
<use x="223.308594" xlink:href="#h"/>
<use x="286.6875" xlink:href="#e"/>
<use x="314.470703" xlink:href="#i"/>
</g>
</g>
<g clip-path="url(#a)">
<defs>
<path id="f" d="m10.688 12.406h10.312v-12.406h-10.312z"/>
</defs>
<g transform="translate(1560.3 892.75) scale(.1 -.1)">
<use xlink:href="#f"/>
</g>
</g>
<g clip-path="url(#a)">
<defs>
<path id="c" d="m12.406 8.2969h16.109v55.625l-17.531-3.5156v8.9844l17.438 3.5156h9.8594v-64.609h16.109v-8.2969h-41.984z"/>
</defs>
<g transform="translate(1022 46.098) scale(.1 -.1)">
<use xlink:href="#c"/>
<use x="63.623047" xlink:href="#f"/>
<use x="95.410156" xlink:href="#c"/>
</g>
</g>
<g clip-path="url(#a)">
<defs>
<path id="n" d="m19.188 8.2969h34.422v-8.2969h-46.281v8.2969q5.6094 5.8125 15.297 15.594 9.7031 9.7969 12.188 12.641 4.7344 5.3125 6.6094 9 1.8906 3.6875 1.8906 7.25 0 5.8125-4.0781 9.4688-4.0781 3.6719-10.625 3.6719-4.6406 0-9.7969-1.6094-5.1406-1.6094-11-4.8906v9.9688q5.9531 2.3906 11.125 3.6094 5.1875 1.2188 9.4844 1.2188 11.328 0 18.062-5.6719 6.7344-5.6562 6.7344-15.125 0-4.5-1.6875-8.5312-1.6719-4.0156-6.125-9.4844-1.2188-1.4219-7.7656-8.1875-6.5312-6.7656-18.453-18.922z"/>
</defs>
<g transform="translate(498.3 194.39) scale(.1 -.1)">
<use xlink:href="#c"/>
<use x="63.623047" xlink:href="#f"/>
<use x="95.410156" xlink:href="#n"/>
</g>
</g>
<g clip-path="url(#a)">
<defs>
<path id="m" d="m40.578 39.312q7.0781-1.5156 11.047-6.3125 3.9844-4.7812 3.9844-11.812 0-10.781-7.4219-16.703-7.4219-5.9062-21.094-5.9062-4.5781 0-9.4375 0.90625t-10.031 2.7188v9.5156q4.0938-2.3906 8.9688-3.6094 4.8906-1.2188 10.219-1.2188 9.2656 0 14.125 3.6562t4.8594 10.641q0 6.4531-4.5156 10.078-4.5156 3.6406-12.562 3.6406h-8.5v8.1094h8.8906q7.2656 0 11.125 2.9062t3.8594 8.375q0 5.6094-3.9844 8.6094-3.9688 3.0156-11.391 3.0156-4.0625 0-8.7031-0.89062-4.6406-0.875-10.203-2.7188v8.7812q5.625 1.5625 10.531 2.3438t9.25 0.78125q11.234 0 17.766-5.1094 6.5469-5.0938 6.5469-13.781 0-6.0625-3.4688-10.234t-9.8594-5.7812z"/>
</defs>
<g transform="translate(1191.4 339.01) scale(.1 -.1)">
<use xlink:href="#c"/>
<use x="63.623047" xlink:href="#f"/>
<use x="95.410156" xlink:href="#m"/>
</g>
</g>
<g clip-path="url(#a)">
<defs>
<path id="p" d="m37.797 64.312-24.906-38.922h24.906zm-2.5938 8.5938h12.406v-47.516h10.406v-8.2031h-10.406v-17.188h-9.8125v17.188h-32.906v9.5156z"/>
</defs>
<g transform="translate(1357.9 480.4) scale(.1 -.1)">
<use xlink:href="#c"/>
<use x="63.623047" xlink:href="#f"/>
<use x="95.410156" xlink:href="#p"/>
</g>
</g>
<g clip-path="url(#a)">
<defs>
<path id="s" d="m9.8125 72.906h9.8594v-72.906h-9.8594z"/>
<path id="ai" d="m9.8125 72.906h14.703l18.594-49.609 18.703 49.609h14.703v-72.906h-9.625v64.016l-18.797-50h-9.9062l-18.797 50v-64.016h-9.5781z"/>
<path id="aj" d="m9.8125 72.906h9.8594v-64.609h35.5v-8.2969h-45.359z"/>
</defs>
<g transform="translate(1584.4 892.75) scale(.1 -.1)">
<use xlink:href="#s"/>
<use x="29.492188" xlink:href="#ai"/>
<use x="115.771484" xlink:href="#w"/>
<use x="176.074219" xlink:href="#aj"/>
<use x="231.787109" xlink:href="#s"/>
<use x="261.279297" xlink:href="#o"/>
<use x="331.103516" xlink:href="#s"/>
<use x="360.595703" xlink:href="#l"/>
</g>
</g>
<g clip-path="url(#a)">
<defs>
<path id="ac" d="m31.781 34.625q-7.0312 0-11.062-3.7656-4.0156-3.7656-4.0156-10.344 0-6.5938 4.0156-10.359 4.0312-3.7656 11.062-3.7656t11.078 3.7812q4.0625 3.7969 4.0625 10.344 0 6.5781-4.0312 10.344-4.0156 3.7656-11.109 3.7656zm-9.8594 4.1875q-6.3438 1.5625-9.8906 5.9062-3.5312 4.3594-3.5312 10.609 0 8.7344 6.2188 13.812 6.2344 5.0781 17.062 5.0781 10.891 0 17.094-5.0781t6.2031-13.812q0-6.25-3.5469-10.609-3.5312-4.3438-9.8281-5.9062 7.125-1.6562 11.094-6.5 3.9844-4.8281 3.9844-11.797 0-10.609-6.4688-16.281-6.4688-5.6562-18.531-5.6562-12.047 0-18.531 5.6562-6.4688 5.6719-6.4688 16.281 0 6.9688 4 11.797 4.0156 4.8438 11.141 6.5zm-3.6094 15.578q0-5.6562 3.5312-8.8281 3.5469-3.1719 9.9375-3.1719 6.3594 0 9.9375 3.1719 3.5938 3.1719 3.5938 8.8281 0 5.6719-3.5938 8.8438-3.5781 3.1719-9.9375 3.1719-6.3906 0-9.9375-3.1719-3.5312-3.1719-3.5312-8.8438z"/>
</defs>
<g transform="translate(1249 755.94) scale(.1 -.1)">
<use xlink:href="#c"/>
<use x="63.623047" xlink:href="#f"/>
<use x="95.410156" xlink:href="#ac"/>
</g>
</g>
<g clip-path="url(#a)">
<defs>
<path id="ab" d="m10.984 1.5156v8.9844q3.7188-1.7656 7.5156-2.6875 3.8125-0.92188 7.4844-0.92188 9.7656 0 14.906 6.5625 5.1562 6.5625 5.8906 19.953-2.8281-4.2031-7.1875-6.4531-4.3438-2.25-9.6094-2.25-10.938 0-17.312 6.6094-6.375 6.625-6.375 18.109 0 11.219 6.6406 18 6.6406 6.7969 17.672 6.7969 12.656 0 19.312-9.7031 6.6719-9.6875 6.6719-28.141 0-17.234-8.1875-27.516-8.1719-10.281-21.984-10.281-3.7188 0-7.5312 0.73438-3.7969 0.73438-7.9062 2.2031zm19.625 30.906q6.6406 0 10.516 4.5312 3.8906 4.5469 3.8906 12.469 0 7.8594-3.8906 12.422-3.875 4.5625-10.516 4.5625t-10.516-4.5625-3.875-12.422q0-7.9219 3.875-12.469 3.875-4.5312 10.516-4.5312z"/>
</defs>
<g transform="translate(1379.7 619.12) scale(.1 -.1)">
<use xlink:href="#c"/>
<use x="63.623047" xlink:href="#f"/>
<use x="95.410156" xlink:href="#ab"/>
</g>
</g>
<g clip-path="url(#a)">
<defs>
<path id="ad" d="m31.781 66.406q-7.6094 0-11.453-7.5-3.8281-7.4844-3.8281-22.531 0-14.984 3.8281-22.484 3.8438-7.5 11.453-7.5 7.6719 0 11.5 7.5 3.8438 7.5 3.8438 22.484 0 15.047-3.8438 22.531-3.8281 7.5-11.5 7.5zm0 7.8125q12.266 0 18.734-9.7031 6.4688-9.6875 6.4688-28.141 0-18.406-6.4688-28.109-6.4688-9.6875-18.734-9.6875-12.25 0-18.719 9.6875-6.4688 9.7031-6.4688 28.109 0 18.453 6.4688 28.141 6.4688 9.7031 18.719 9.7031z"/>
</defs>
<g transform="translate(1332.9 755.94) scale(.1 -.1)">
<use xlink:href="#c"/>
<use x="63.623047" xlink:href="#f"/>
<use x="95.410156" xlink:href="#c"/>
<use x="159.033203" xlink:href="#ad"/>
</g>
</g>
<g clip-path="url(#a)">
<g transform="translate(1507.2 619.12) scale(.1 -.1)">
<use xlink:href="#c"/>
<use x="63.623047" xlink:href="#f"/>
<use x="95.410156" xlink:href="#c"/>
<use x="159.033203" xlink:href="#c"/>
</g>
</g>
<g clip-path="url(#a)">
<g transform="translate(1463.6 755.94) scale(.1 -.1)">
<use xlink:href="#c"/>
<use x="63.623047" xlink:href="#f"/>
<use x="95.410156" xlink:href="#c"/>
<use x="159.033203" xlink:href="#n"/>
</g>
</g>
<g clip-path="url(#a)">
<g transform="translate(1507.2 755.94) scale(.1 -.1)">
<use xlink:href="#c"/>
<use x="63.623047" xlink:href="#f"/>
<use x="95.410156" xlink:href="#c"/>
<use x="159.033203" xlink:href="#m"/>
</g>
</g>
<g clip-path="url(#a)">
<defs>
<path id="u" d="m10.797 72.906h38.719v-8.3125h-29.688v-17.859q2.1406 0.73438 4.2812 1.0938 2.1562 0.35938 4.3125 0.35938 12.203 0 19.328-6.6875 7.1406-6.6875 7.1406-18.109 0-11.766-7.3281-18.297-7.3281-6.5156-20.656-6.5156-4.5938 0-9.3594 0.78125-4.75 0.78125-9.8281 2.3438v9.9219q4.3906-2.3906 9.0781-3.5625t9.9062-1.1719q8.4531 0 13.375 4.4375 4.9375 4.4375 4.9375 12.062 0 7.6094-4.9375 12.047-4.9219 4.4531-13.375 4.4531-3.9531 0-7.8906-0.875-3.9219-0.875-8.0156-2.7344z"/>
</defs>
<g transform="translate(1332.9 755.94) scale(.1 -.1)">
<use xlink:href="#c"/>
<use x="63.623047" xlink:href="#f"/>
<use x="95.410156" xlink:href="#c"/>
<use x="159.033203" xlink:href="#u"/>
</g>
</g>
<g clip-path="url(#a)">
<defs>
<path id="af" d="m33.016 40.375q-6.6406 0-10.531-4.5469-3.875-4.5312-3.875-12.438 0-7.8594 3.875-12.438 3.8906-4.5625 10.531-4.5625t10.516 4.5625q3.875 4.5781 3.875 12.438 0 7.9062-3.875 12.438-3.875 4.5469-10.516 4.5469zm19.578 30.922v-8.9844q-3.7188 1.75-7.5 2.6719-3.7812 0.9375-7.5 0.9375-9.7656 0-14.922-6.5938-5.1406-6.5938-5.875-19.922 2.875 4.25 7.2188 6.5156 4.3594 2.2656 9.5781 2.2656 10.984 0 17.359-6.6719 6.375-6.6562 6.375-18.125 0-11.234-6.6406-18.031-6.6406-6.7812-17.672-6.7812-12.656 0-19.344 9.6875-6.6875 9.7031-6.6875 28.109 0 17.281 8.2031 27.562t22.016 10.281q3.7188 0 7.5-0.73438t7.8906-2.1875z"/>
</defs>
<g transform="translate(1420.1 755.94) scale(.1 -.1)">
<use xlink:href="#c"/>
<use x="63.623047" xlink:href="#f"/>
<use x="95.410156" xlink:href="#c"/>
<use x="159.033203" xlink:href="#af"/>
</g>
</g>
<g clip-path="url(#a)">
<g transform="translate(1671.5 892.75) scale(.1 -.1)">
<use xlink:href="#s"/>
<use x="29.492188" xlink:href="#ai"/>
<use x="115.771484" xlink:href="#w"/>
<use x="176.074219" xlink:href="#aj"/>
<use x="231.787109" xlink:href="#s"/>
<use x="261.279297" xlink:href="#o"/>
<use x="331.103516" xlink:href="#s"/>
<use x="360.595703" xlink:href="#l"/>
</g>
</g>
<g clip-path="url(#a)">
<g transform="translate(1278.5 480.4) scale(.1 -.1)">
<use xlink:href="#c"/>
<use x="63.623047" xlink:href="#f"/>
<use x="95.410156" xlink:href="#c"/>
<use x="159.033203" xlink:href="#ac"/>
</g>
</g>
<g clip-path="url(#a)">
<g transform="translate(984.44 755.94) scale(.1 -.1)">
<use xlink:href="#c"/>
<use x="63.623047" xlink:href="#f"/>
<use x="95.410156" xlink:href="#c"/>
<use x="159.033203" xlink:href="#ab"/>
</g>
</g>
<g clip-path="url(#a)">
<g transform="translate(1028 755.94) scale(.1 -.1)">
<use xlink:href="#c"/>
<use x="63.623047" xlink:href="#f"/>
<use x="95.410156" xlink:href="#n"/>
<use x="159.033203" xlink:href="#ad"/>
</g>
</g>
<g clip-path="url(#a)">
<g transform="translate(1071.6 755.94) scale(.1 -.1)">
<use xlink:href="#c"/>
<use x="63.623047" xlink:href="#f"/>
<use x="95.410156" xlink:href="#n"/>
<use x="159.033203" xlink:href="#c"/>
</g>
</g>
<g clip-path="url(#a)">
<g transform="translate(1115.1 755.94) scale(.1 -.1)">
<use xlink:href="#c"/>
<use x="63.623047" xlink:href="#f"/>
<use x="95.410156" xlink:href="#n"/>
<use x="159.033203" xlink:href="#n"/>
</g>
</g>
<g clip-path="url(#a)">
<g transform="translate(1158.7 755.94) scale(.1 -.1)">
<use xlink:href="#c"/>
<use x="63.623047" xlink:href="#f"/>
<use x="95.410156" xlink:href="#n"/>
<use x="159.033203" xlink:href="#m"/>
</g>
</g>
<g clip-path="url(#a)">
<g transform="translate(1627.9 892.75) scale(.1 -.1)">
<use xlink:href="#s"/>
<use x="29.492188" xlink:href="#ai"/>
<use x="115.771484" xlink:href="#w"/>
<use x="176.074219" xlink:href="#aj"/>
<use x="231.787109" xlink:href="#s"/>
<use x="261.279297" xlink:href="#o"/>
<use x="331.103516" xlink:href="#s"/>
<use x="360.595703" xlink:href="#l"/>
</g>
</g>
<g clip-path="url(#a)">
<g transform="translate(919.1 619.12) scale(.1 -.1)">
<use xlink:href="#c"/>
<use x="63.623047" xlink:href="#f"/>
<use x="95.410156" xlink:href="#n"/>
<use x="159.033203" xlink:href="#u"/>
</g>
</g>
<g clip-path="url(#a)">
<g transform="translate(897.32 755.94) scale(.1 -.1)">
<use xlink:href="#c"/>
<use x="63.623047" xlink:href="#f"/>
<use x="95.410156" xlink:href="#n"/>
<use x="159.033203" xlink:href="#af"/>
</g>
</g>
<g clip-path="url(#a)">
<defs>
<path id="al" d="m8.2031 72.906h46.875v-4.2031l-26.469-68.703h-10.297l24.906 64.594h-35.016z"/>
</defs>
<g transform="translate(940.88 755.94) scale(.1 -.1)">
<use xlink:href="#c"/>
<use x="63.623047" xlink:href="#f"/>
<use x="95.410156" xlink:href="#n"/>
<use x="159.033203" xlink:href="#al"/>
</g>
</g>
<g clip-path="url(#a)">
<g transform="translate(265.66 755.94) scale(.1 -.1)">
<use xlink:href="#c"/>
<use x="63.623047" xlink:href="#f"/>
<use x="95.410156" xlink:href="#n"/>
<use x="159.033203" xlink:href="#ac"/>
</g>
</g>
<g clip-path="url(#a)">
<g transform="translate(175.81 339.01) scale(.1 -.1)">
<use xlink:href="#c"/>
<use x="63.623047" xlink:href="#f"/>
<use x="95.410156" xlink:href="#n"/>
<use x="159.033203" xlink:href="#ab"/>
</g>
</g>
<g clip-path="url(#a)">
<g transform="translate(505.25 755.94) scale(.1 -.1)">
<use xlink:href="#c"/>
<use x="63.623047" xlink:href="#f"/>
<use x="95.410156" xlink:href="#m"/>
<use x="159.033203" xlink:href="#ad"/>
</g>
</g>
<g clip-path="url(#a)">
<g transform="translate(570.6 619.12) scale(.1 -.1)">
<use xlink:href="#c"/>
<use x="63.623047" xlink:href="#f"/>
<use x="95.410156" xlink:href="#m"/>
<use x="159.033203" xlink:href="#c"/>
</g>
</g>
<g clip-path="url(#a)">
<g transform="translate(708.54 619.12) scale(.1 -.1)">
<use xlink:href="#c"/>
<use x="63.623047" xlink:href="#f"/>
<use x="95.410156" xlink:href="#m"/>
<use x="159.033203" xlink:href="#n"/>
</g>
</g>
<g clip-path="url(#a)">
<g transform="translate(744.85 619.12) scale(.1 -.1)">
<use xlink:href="#c"/>
<use x="63.623047" xlink:href="#f"/>
<use x="95.410156" xlink:href="#m"/>
<use x="159.033203" xlink:href="#m"/>
</g>
</g>
<g clip-path="url(#a)">
<g transform="translate(723.06 755.94) scale(.1 -.1)">
<use xlink:href="#c"/>
<use x="63.623047" xlink:href="#f"/>
<use x="95.410156" xlink:href="#m"/>
<use x="159.033203" xlink:href="#p"/>
</g>
</g>
<g clip-path="url(#a)">
<g transform="translate(766.63 755.94) scale(.1 -.1)">
<use xlink:href="#c"/>
<use x="63.623047" xlink:href="#f"/>
<use x="95.410156" xlink:href="#m"/>
<use x="159.033203" xlink:href="#u"/>
</g>
</g>
<g clip-path="url(#a)">
<g transform="translate(635.94 755.94) scale(.1 -.1)">
<use xlink:href="#c"/>
<use x="63.623047" xlink:href="#f"/>
<use x="95.410156" xlink:href="#m"/>
<use x="159.033203" xlink:href="#af"/>
</g>
</g>
<g clip-path="url(#a)">
<g transform="translate(679.5 755.94) scale(.1 -.1)">
<use xlink:href="#c"/>
<use x="63.623047" xlink:href="#f"/>
<use x="95.410156" xlink:href="#m"/>
<use x="159.033203" xlink:href="#al"/>
</g>
</g>
<g clip-path="url(#a)">
<g transform="translate(810.19 755.94) scale(.1 -.1)">
<use xlink:href="#c"/>
<use x="63.623047" xlink:href="#f"/>
<use x="95.410156" xlink:href="#m"/>
<use x="159.033203" xlink:href="#ac"/>
</g>
</g>
<g clip-path="url(#a)">
<g transform="translate(548.81 755.94) scale(.1 -.1)">
<use xlink:href="#c"/>
<use x="63.623047" xlink:href="#f"/>
<use x="95.410156" xlink:href="#m"/>
<use x="159.033203" xlink:href="#ab"/>
</g>
</g>
<g clip-path="url(#a)">
<g transform="translate(592.38 755.94) scale(.1 -.1)">
<use xlink:href="#c"/>
<use x="63.623047" xlink:href="#f"/>
<use x="95.410156" xlink:href="#p"/>
<use x="159.033203" xlink:href="#ad"/>
</g>
</g>
<g clip-path="url(#a)">
<g transform="translate(113.19 755.94) scale(.1 -.1)">
<use xlink:href="#c"/>
<use x="63.623047" xlink:href="#f"/>
<use x="95.410156" xlink:href="#p"/>
<use x="159.033203" xlink:href="#c"/>
</g>
</g>
<g clip-path="url(#a)">
<g transform="translate(238.43 480.4) scale(.1 -.1)">
<use xlink:href="#c"/>
<use x="63.623047" xlink:href="#f"/>
<use x="95.410156" xlink:href="#p"/>
<use x="159.033203" xlink:href="#n"/>
</g>
</g>
<g clip-path="url(#a)">
<g transform="translate(156.75 755.94) scale(.1 -.1)">
<use xlink:href="#c"/>
<use x="63.623047" xlink:href="#f"/>
<use x="95.410156" xlink:href="#p"/>
<use x="159.033203" xlink:href="#m"/>
</g>
</g>
<g clip-path="url(#a)">
<g transform="translate(200.31 755.94) scale(.1 -.1)">
<use xlink:href="#c"/>
<use x="63.623047" xlink:href="#f"/>
<use x="95.410156" xlink:href="#p"/>
<use x="159.033203" xlink:href="#p"/>
</g>
</g>
<g clip-path="url(#a)">
<g transform="translate(243.88 755.94) scale(.1 -.1)">
<use xlink:href="#c"/>
<use x="63.623047" xlink:href="#f"/>
<use x="95.410156" xlink:href="#p"/>
<use x="159.033203" xlink:href="#u"/>
</g>
</g>
<g clip-path="url(#a)">
<g transform="translate(352.78 619.12) scale(.1 -.1)">
<use xlink:href="#c"/>
<use x="63.623047" xlink:href="#f"/>
<use x="95.410156" xlink:href="#p"/>
<use x="159.033203" xlink:href="#af"/>
</g>
</g>
<g clip-path="url(#a)">
<g transform="translate(287.44 755.94) scale(.1 -.1)">
<use xlink:href="#c"/>
<use x="63.623047" xlink:href="#f"/>
<use x="95.410156" xlink:href="#p"/>
<use x="159.033203" xlink:href="#al"/>
</g>
</g>
<g clip-path="url(#a)">
<g transform="translate(331 755.94) scale(.1 -.1)">
<use xlink:href="#c"/>
<use x="63.623047" xlink:href="#f"/>
<use x="95.410156" xlink:href="#p"/>
<use x="159.033203" xlink:href="#ac"/>
</g>
</g>
<g clip-path="url(#a)">
<g transform="translate(374.56 755.94) scale(.1 -.1)">
<use xlink:href="#c"/>
<use x="63.623047" xlink:href="#f"/>
<use x="95.410156" xlink:href="#p"/>
<use x="159.033203" xlink:href="#ab"/>
</g>
</g>
<g clip-path="url(#a)">
<g transform="translate(418.13 755.94) scale(.1 -.1)">
<use xlink:href="#c"/>
<use x="63.623047" xlink:href="#f"/>
<use x="95.410156" xlink:href="#u"/>
<use x="159.033203" xlink:href="#ad"/>
</g>
</g>
<g clip-path="url(#a)">
<g transform="translate(853.75 755.94) scale(.1 -.1)">
<use xlink:href="#c"/>
<use x="63.623047" xlink:href="#f"/>
<use x="95.410156" xlink:href="#u"/>
<use x="159.033203" xlink:href="#c"/>
</g>
</g>
<g clip-path="url(#a)">
<g transform="translate(1202.3 755.94) scale(.1 -.1)">
<use xlink:href="#c"/>
<use x="63.623047" xlink:href="#f"/>
<use x="95.410156" xlink:href="#u"/>
<use x="159.033203" xlink:href="#n"/>
</g>
</g>
<g clip-path="url(#a)">
<g transform="translate(1550.8 755.94) scale(.1 -.1)">
<use xlink:href="#c"/>
<use x="63.623047" xlink:href="#f"/>
<use x="95.410156" xlink:href="#u"/>
<use x="159.033203" xlink:href="#m"/>
</g>
</g>
<defs>
<clipPath id="a">
<rect width="1773.3" height="933.33"/>
</clipPath>
</defs>
</svg>
