<?xml version="1.0" encoding="utf-8" standalone="no"?>
<!DOCTYPE svg PUBLIC "-//W3C//DTD SVG 1.1//EN"
  "http://www.w3.org/Graphics/SVG/1.1/DTD/svg11.dtd">
<!-- Created with matplotlib (https://matplotlib.org/) -->
<svg height="373.333333pt" version="1.1" viewBox="0 0 709.333333 373.333333" width="709.333333pt" xmlns="http://www.w3.org/2000/svg" xmlns:xlink="http://www.w3.org/1999/xlink">
 <defs>
  <style type="text/css">
*{stroke-linecap:butt;stroke-linejoin:round;}
  </style>
 </defs>
 <g id="figure_1">
  <g id="patch_1">
   <path d="M 0 373.333333 
L 709.333333 373.333333 
L 709.333333 0 
L 0 0 
z
" style="fill:#ffffff;"/>
  </g>
  <g id="axes_1">
   <g id="LineCollection_1">
    <path clip-path="url(#p90b570e9c3)" d="M 389.497185 18.073011 
L 153.423673 87.89628 
" style="fill:none;stroke:#000000;"/>
    <path clip-path="url(#p90b570e9c3)" d="M 389.497185 18.073011 
L 428.971772 289.201218 
" style="fill:none;stroke:#000000;"/>
    <path clip-path="url(#p90b570e9c3)" d="M 389.497185 18.073011 
L 596.15826 156.164053 
" style="fill:none;stroke:#000000;"/>
    <path clip-path="url(#p90b570e9c3)" d="M 389.497185 18.073011 
L 379.435035 289.201218 
" style="fill:none;stroke:#000000;"/>
    <path clip-path="url(#p90b570e9c3)" d="M 153.423673 87.89628 
L 57.446245 223.142113 
" style="fill:none;stroke:#000000;"/>
    <path clip-path="url(#p90b570e9c3)" d="M 153.423673 87.89628 
L 181.288087 289.201218 
" style="fill:none;stroke:#000000;"/>
    <path clip-path="url(#p90b570e9c3)" d="M 153.423673 87.89628 
L 181.288087 289.201218 
" style="fill:none;stroke:#000000;"/>
    <path clip-path="url(#p90b570e9c3)" d="M 153.423673 87.89628 
L 193.672271 156.164053 
" style="fill:none;stroke:#000000;"/>
    <path clip-path="url(#p90b570e9c3)" d="M 428.971772 289.201218 
L 428.971772 355.260323 
" style="fill:none;stroke:#000000;"/>
    <path clip-path="url(#p90b570e9c3)" d="M 596.15826 156.164053 
L 503.276878 223.142113 
" style="fill:none;stroke:#000000;"/>
    <path clip-path="url(#p90b570e9c3)" d="M 596.15826 156.164053 
L 577.581983 289.201218 
" style="fill:none;stroke:#000000;"/>
    <path clip-path="url(#p90b570e9c3)" d="M 596.15826 156.164053 
L 627.11872 289.201218 
" style="fill:none;stroke:#000000;"/>
    <path clip-path="url(#p90b570e9c3)" d="M 596.15826 156.164053 
L 676.655457 289.201218 
" style="fill:none;stroke:#000000;"/>
    <path clip-path="url(#p90b570e9c3)" d="M 503.276878 223.142113 
L 478.508509 289.201218 
" style="fill:none;stroke:#000000;"/>
    <path clip-path="url(#p90b570e9c3)" d="M 503.276878 223.142113 
L 528.045246 289.201218 
" style="fill:none;stroke:#000000;"/>
    <path clip-path="url(#p90b570e9c3)" d="M 577.581983 289.201218 
L 577.581983 355.260323 
" style="fill:none;stroke:#000000;"/>
    <path clip-path="url(#p90b570e9c3)" d="M 627.11872 289.201218 
L 627.11872 355.260323 
" style="fill:none;stroke:#000000;"/>
    <path clip-path="url(#p90b570e9c3)" d="M 478.508509 289.201218 
L 478.508509 355.260323 
" style="fill:none;stroke:#000000;"/>
    <path clip-path="url(#p90b570e9c3)" d="M 528.045246 289.201218 
L 528.045246 355.260323 
" style="fill:none;stroke:#000000;"/>
    <path clip-path="url(#p90b570e9c3)" d="M 57.446245 223.142113 
L 32.677876 289.201218 
" style="fill:none;stroke:#000000;"/>
    <path clip-path="url(#p90b570e9c3)" d="M 57.446245 223.142113 
L 82.214613 289.201218 
" style="fill:none;stroke:#000000;"/>
    <path clip-path="url(#p90b570e9c3)" d="M 181.288087 289.201218 
L 131.75135 355.260323 
" style="fill:none;stroke:#000000;"/>
    <path clip-path="url(#p90b570e9c3)" d="M 181.288087 289.201218 
L 230.824824 355.260323 
" style="fill:none;stroke:#000000;"/>
    <path clip-path="url(#p90b570e9c3)" d="M 181.288087 289.201218 
L 181.288087 355.260323 
" style="fill:none;stroke:#000000;"/>
    <path clip-path="url(#p90b570e9c3)" d="M 193.672271 156.164053 
L 305.12993 223.142113 
" style="fill:none;stroke:#000000;"/>
    <path clip-path="url(#p90b570e9c3)" d="M 193.672271 156.164053 
L 82.214613 289.201218 
" style="fill:none;stroke:#000000;stroke-dasharray:3.7,1.6;stroke-dashoffset:0;"/>
    <path clip-path="url(#p90b570e9c3)" d="M 305.12993 223.142113 
L 280.361561 289.201218 
" style="fill:none;stroke:#000000;"/>
    <path clip-path="url(#p90b570e9c3)" d="M 305.12993 223.142113 
L 329.898298 289.201218 
" style="fill:none;stroke:#000000;"/>
    <path clip-path="url(#p90b570e9c3)" d="M 280.361561 289.201218 
L 280.361561 355.260323 
" style="fill:none;stroke:#000000;"/>
    <path clip-path="url(#p90b570e9c3)" d="M 329.898298 289.201218 
L 329.898298 355.260323 
" style="fill:none;stroke:#000000;"/>
    <path clip-path="url(#p90b570e9c3)" d="M 32.677876 289.201218 
L 32.677876 355.260323 
" style="fill:none;stroke:#000000;"/>
    <path clip-path="url(#p90b570e9c3)" d="M 82.214613 289.201218 
L 82.214613 355.260323 
" style="fill:none;stroke:#000000;"/>
    <path clip-path="url(#p90b570e9c3)" d="M 392.851235 18.073011 
L 153.423673 87.89628 
" style="fill:none;stroke:#000000;"/>
    <path clip-path="url(#p90b570e9c3)" d="M 392.851235 18.073011 
L 428.971772 289.201218 
" style="fill:none;stroke:#000000;"/>
    <path clip-path="url(#p90b570e9c3)" d="M 392.851235 18.073011 
L 596.15826 156.164053 
" style="fill:none;stroke:#000000;"/>
    <path clip-path="url(#p90b570e9c3)" d="M 379.435035 289.201218 
L 379.435035 355.260323 
" style="fill:none;stroke:#000000;"/>
    <path clip-path="url(#p90b570e9c3)" d="M 676.655457 289.201218 
L 676.655457 355.260323 
" style="fill:none;stroke:#000000;"/>
   </g>
   <g id="text_1">
    <g id="patch_2">
     <path clip-path="url(#p90b570e9c3)" d="M 270.354505 59.851546 
L 276.123702 58.145196 
Q 278.425147 57.464499 277.744451 55.163053 
L 275.548495 47.738494 
Q 274.867798 45.437048 272.566352 46.117745 
L 266.797156 47.824095 
Q 264.49571 48.504792 265.176407 50.806238 
L 267.372363 58.230797 
Q 268.053059 60.532243 270.354505 59.851546 
z
" style="fill:#ffffff;stroke:#ffffff;stroke-linejoin:miter;"/>
    </g>
    <g clip-path="url(#p90b570e9c3)">
     <!-- H -->
     <defs>
      <path d="M 9.8125 72.90625 
L 19.671875 72.90625 
L 19.671875 43.015625 
L 55.515625 43.015625 
L 55.515625 72.90625 
L 65.375 72.90625 
L 65.375 0 
L 55.515625 0 
L 55.515625 34.71875 
L 19.671875 34.71875 
L 19.671875 0 
L 9.8125 0 
z
" id="DejaVuSans-72"/>
     </defs>
     <g transform="translate(269.201929 55.954671)rotate(-16.476593)scale(0.08 -0.08)">
      <use xlink:href="#DejaVuSans-72"/>
     </g>
    </g>
   </g>
   <g id="text_2">
    <g id="patch_3">
     <path clip-path="url(#p90b570e9c3)" d="M 402.707551 152.335146 
L 403.349764 156.74614 
Q 403.695544 159.121101 406.070504 158.775321 
L 413.732225 157.659822 
Q 416.107186 157.314042 415.761406 154.939082 
L 415.119193 150.528088 
Q 414.773413 148.153128 412.398453 148.498907 
L 404.736732 149.614406 
Q 402.361772 149.960186 402.707551 152.335146 
z
" style="fill:#ffffff;stroke:#ffffff;stroke-linejoin:miter;"/>
    </g>
    <g clip-path="url(#p90b570e9c3)">
     <!-- L -->
     <defs>
      <path d="M 9.8125 72.90625 
L 19.671875 72.90625 
L 19.671875 8.296875 
L 55.171875 8.296875 
L 55.171875 0 
L 9.8125 0 
z
" id="DejaVuSans-76"/>
     </defs>
     <g transform="translate(406.728903 151.749662)rotate(-278.283706)scale(0.08 -0.08)">
      <use xlink:href="#DejaVuSans-76"/>
     </g>
    </g>
   </g>
   <g id="text_3">
    <g id="patch_4">
     <path clip-path="url(#p90b570e9c3)" d="M 486.842384 90.66157 
L 491.844663 94.004096 
Q 493.84017 95.337494 495.173568 93.341987 
L 499.475168 86.904399 
Q 500.808567 84.908892 498.81306 83.575493 
L 493.810782 80.232968 
Q 491.815275 78.89957 490.481876 80.895076 
L 486.180276 87.332665 
Q 484.846877 89.328172 486.842384 90.66157 
z
" style="fill:#ffffff;stroke:#ffffff;stroke-linejoin:miter;"/>
    </g>
    <g clip-path="url(#p90b570e9c3)">
     <!-- H -->
     <g transform="translate(489.100134 87.28272)rotate(-326.249132)scale(0.08 -0.08)">
      <use xlink:href="#DejaVuSans-72"/>
     </g>
    </g>
   </g>
   <g id="text_4">
    <g id="patch_5">
     <path clip-path="url(#p90b570e9c3)" d="M 390.624475 156.79518 
L 390.841617 150.944208 
Q 390.930625 148.545859 388.532276 148.456851 
L 380.795102 148.169708 
Q 378.396753 148.0807 378.307745 150.479049 
L 378.090603 156.330021 
Q 378.001595 158.72837 380.399944 158.817378 
L 388.137118 159.104521 
Q 390.535467 159.193529 390.624475 156.79518 
z
" style="fill:#ffffff;stroke:#ffffff;stroke-linejoin:miter;"/>
    </g>
    <g clip-path="url(#p90b570e9c3)">
     <!-- U -->
     <defs>
      <path d="M 8.6875 72.90625 
L 18.609375 72.90625 
L 18.609375 28.609375 
Q 18.609375 16.890625 22.84375 11.734375 
Q 27.09375 6.59375 36.625 6.59375 
Q 46.09375 6.59375 50.34375 11.734375 
Q 54.59375 16.890625 54.59375 28.609375 
L 54.59375 72.90625 
L 64.5 72.90625 
L 64.5 27.390625 
Q 64.5 13.140625 57.4375 5.859375 
Q 50.390625 -1.421875 36.625 -1.421875 
Q 22.796875 -1.421875 15.734375 5.859375 
Q 8.6875 13.140625 8.6875 27.390625 
z
" id="DejaVuSans-85"/>
     </defs>
     <g transform="translate(386.56352 156.644469)rotate(-87.874606)scale(0.08 -0.08)">
      <use xlink:href="#DejaVuSans-85"/>
     </g>
    </g>
   </g>
   <g id="text_5">
    <g id="patch_6">
     <path clip-path="url(#p90b570e9c3)" d="M 108.965712 161.380035 
L 112.132828 156.917117 
Q 113.521787 154.959877 111.564547 153.570917 
L 105.250406 149.090077 
Q 103.293165 147.701117 101.904205 149.658358 
L 98.737089 154.121276 
Q 97.34813 156.078517 99.305371 157.467476 
L 105.619512 161.948316 
Q 107.576752 163.337276 108.965712 161.380035 
z
" style="fill:#ffffff;stroke:#ffffff;stroke-linejoin:miter;"/>
    </g>
    <g clip-path="url(#p90b570e9c3)">
     <!-- A -->
     <defs>
      <path d="M 34.1875 63.1875 
L 20.796875 26.90625 
L 47.609375 26.90625 
z
M 28.609375 72.90625 
L 39.796875 72.90625 
L 67.578125 0 
L 57.328125 0 
L 50.6875 18.703125 
L 17.828125 18.703125 
L 11.1875 0 
L 0.78125 0 
z
" id="DejaVuSans-65"/>
     </defs>
     <g transform="translate(105.651654 159.028208)rotate(-54.63852)scale(0.08 -0.08)">
      <use xlink:href="#DejaVuSans-65"/>
     </g>
    </g>
   </g>
   <g id="text_6">
    <g id="patch_7">
     <path clip-path="url(#p90b570e9c3)" d="M 160.721554 186.357699 
L 161.566162 192.459522 
Q 161.89523 194.836855 164.272563 194.507787 
L 171.94194 193.4462 
Q 174.319273 193.117132 173.990206 190.739799 
L 173.145598 184.637976 
Q 172.81653 182.260643 170.439196 182.589711 
L 162.76982 183.651298 
Q 160.392486 183.980366 160.721554 186.357699 
z
" style="fill:#ffffff;stroke:#ffffff;stroke-linejoin:miter;"/>
    </g>
    <g clip-path="url(#p90b570e9c3)">
     <!-- D -->
     <defs>
      <path d="M 19.671875 64.796875 
L 19.671875 8.109375 
L 31.59375 8.109375 
Q 46.6875 8.109375 53.6875 14.9375 
Q 60.6875 21.78125 60.6875 36.53125 
Q 60.6875 51.171875 53.6875 57.984375 
Q 46.6875 64.796875 31.59375 64.796875 
z
M 9.8125 72.90625 
L 30.078125 72.90625 
Q 51.265625 72.90625 61.171875 64.09375 
Q 71.09375 55.28125 71.09375 36.53125 
Q 71.09375 17.671875 61.125 8.828125 
Q 51.171875 0 30.078125 0 
L 9.8125 0 
z
" id="DejaVuSans-68"/>
     </defs>
     <g transform="translate(164.746924 185.800512)rotate(-277.880744)scale(0.08 -0.08)">
      <use xlink:href="#DejaVuSans-68"/>
     </g>
    </g>
   </g>
   <g id="text_7">
    <g id="patch_8">
     <path clip-path="url(#p90b570e9c3)" d="M 160.813162 187.019514 
L 161.474554 191.797707 
Q 161.803622 194.17504 164.180956 193.845972 
L 171.850332 192.784385 
Q 174.227666 192.455317 173.898598 190.077984 
L 173.237205 185.299791 
Q 172.908138 182.922458 170.530804 183.251526 
L 162.861427 184.313113 
Q 160.484094 184.642181 160.813162 187.019514 
z
" style="fill:#ffffff;stroke:#ffffff;stroke-linejoin:miter;"/>
    </g>
    <g clip-path="url(#p90b570e9c3)">
     <!-- P -->
     <defs>
      <path d="M 19.671875 64.796875 
L 19.671875 37.40625 
L 32.078125 37.40625 
Q 38.96875 37.40625 42.71875 40.96875 
Q 46.484375 44.53125 46.484375 51.125 
Q 46.484375 57.671875 42.71875 61.234375 
Q 38.96875 64.796875 32.078125 64.796875 
z
M 9.8125 72.90625 
L 32.078125 72.90625 
Q 44.34375 72.90625 50.609375 67.359375 
Q 56.890625 61.8125 56.890625 51.125 
Q 56.890625 40.328125 50.609375 34.8125 
Q 44.34375 29.296875 32.078125 29.296875 
L 19.671875 29.296875 
L 19.671875 0 
L 9.8125 0 
z
" id="DejaVuSans-80"/>
     </defs>
     <g transform="translate(164.838532 186.462327)rotate(-277.880744)scale(0.08 -0.08)">
      <use xlink:href="#DejaVuSans-80"/>
     </g>
    </g>
   </g>
   <g id="text_8">
    <g id="patch_9">
     <path clip-path="url(#p90b570e9c3)" d="M 166.75605 122.858078 
L 169.535389 127.572262 
Q 170.754286 129.639698 172.821722 128.420801 
L 179.491355 124.488588 
Q 181.558791 123.269691 180.339894 121.202255 
L 177.560555 116.488071 
Q 176.341658 114.420636 174.274222 115.639533 
L 167.604589 119.571745 
Q 165.537153 120.790642 166.75605 122.858078 
z
" style="fill:#ffffff;stroke:#ffffff;stroke-linejoin:miter;"/>
    </g>
    <g clip-path="url(#p90b570e9c3)">
     <!-- A -->
     <g transform="translate(170.256692 120.794206)rotate(-300.522306)scale(0.08 -0.08)">
      <use xlink:href="#DejaVuSans-65"/>
     </g>
    </g>
   </g>
   <g id="text_9">
    <g id="patch_10">
     <path clip-path="url(#p90b570e9c3)" d="M 422.700522 304.58827 
L 422.700522 339.87327 
Q 422.700522 342.27327 425.100522 342.27327 
L 432.843022 342.27327 
Q 435.243022 342.27327 435.243022 339.87327 
L 435.243022 304.58827 
Q 435.243022 302.18827 432.843022 302.18827 
L 425.100522 302.18827 
Q 422.700522 302.18827 422.700522 304.58827 
z
" style="fill:#ffffff;stroke:#ffffff;stroke-linejoin:miter;"/>
    </g>
    <g clip-path="url(#p90b570e9c3)">
     <!-- Terminal -->
     <defs>
      <path d="M -0.296875 72.90625 
L 61.375 72.90625 
L 61.375 64.59375 
L 35.5 64.59375 
L 35.5 0 
L 25.59375 0 
L 25.59375 64.59375 
L -0.296875 64.59375 
z
" id="DejaVuSans-84"/>
      <path d="M 56.203125 29.59375 
L 56.203125 25.203125 
L 14.890625 25.203125 
Q 15.484375 15.921875 20.484375 11.0625 
Q 25.484375 6.203125 34.421875 6.203125 
Q 39.59375 6.203125 44.453125 7.46875 
Q 49.3125 8.734375 54.109375 11.28125 
L 54.109375 2.78125 
Q 49.265625 0.734375 44.1875 -0.34375 
Q 39.109375 -1.421875 33.890625 -1.421875 
Q 20.796875 -1.421875 13.15625 6.1875 
Q 5.515625 13.8125 5.515625 26.8125 
Q 5.515625 40.234375 12.765625 48.109375 
Q 20.015625 56 32.328125 56 
Q 43.359375 56 49.78125 48.890625 
Q 56.203125 41.796875 56.203125 29.59375 
z
M 47.21875 32.234375 
Q 47.125 39.59375 43.09375 43.984375 
Q 39.0625 48.390625 32.421875 48.390625 
Q 24.90625 48.390625 20.390625 44.140625 
Q 15.875 39.890625 15.1875 32.171875 
z
" id="DejaVuSans-101"/>
      <path d="M 41.109375 46.296875 
Q 39.59375 47.171875 37.8125 47.578125 
Q 36.03125 48 33.890625 48 
Q 26.265625 48 22.1875 43.046875 
Q 18.109375 38.09375 18.109375 28.8125 
L 18.109375 0 
L 9.078125 0 
L 9.078125 54.6875 
L 18.109375 54.6875 
L 18.109375 46.1875 
Q 20.953125 51.171875 25.484375 53.578125 
Q 30.03125 56 36.53125 56 
Q 37.453125 56 38.578125 55.875 
Q 39.703125 55.765625 41.0625 55.515625 
z
" id="DejaVuSans-114"/>
      <path d="M 52 44.1875 
Q 55.375 50.25 60.0625 53.125 
Q 64.75 56 71.09375 56 
Q 79.640625 56 84.28125 50.015625 
Q 88.921875 44.046875 88.921875 33.015625 
L 88.921875 0 
L 79.890625 0 
L 79.890625 32.71875 
Q 79.890625 40.578125 77.09375 44.375 
Q 74.3125 48.1875 68.609375 48.1875 
Q 61.625 48.1875 57.5625 43.546875 
Q 53.515625 38.921875 53.515625 30.90625 
L 53.515625 0 
L 44.484375 0 
L 44.484375 32.71875 
Q 44.484375 40.625 41.703125 44.40625 
Q 38.921875 48.1875 33.109375 48.1875 
Q 26.21875 48.1875 22.15625 43.53125 
Q 18.109375 38.875 18.109375 30.90625 
L 18.109375 0 
L 9.078125 0 
L 9.078125 54.6875 
L 18.109375 54.6875 
L 18.109375 46.1875 
Q 21.1875 51.21875 25.484375 53.609375 
Q 29.78125 56 35.6875 56 
Q 41.65625 56 45.828125 52.96875 
Q 50 49.953125 52 44.1875 
z
" id="DejaVuSans-109"/>
      <path d="M 9.421875 54.6875 
L 18.40625 54.6875 
L 18.40625 0 
L 9.421875 0 
z
M 9.421875 75.984375 
L 18.40625 75.984375 
L 18.40625 64.59375 
L 9.421875 64.59375 
z
" id="DejaVuSans-105"/>
      <path d="M 54.890625 33.015625 
L 54.890625 0 
L 45.90625 0 
L 45.90625 32.71875 
Q 45.90625 40.484375 42.875 44.328125 
Q 39.84375 48.1875 33.796875 48.1875 
Q 26.515625 48.1875 22.3125 43.546875 
Q 18.109375 38.921875 18.109375 30.90625 
L 18.109375 0 
L 9.078125 0 
L 9.078125 54.6875 
L 18.109375 54.6875 
L 18.109375 46.1875 
Q 21.34375 51.125 25.703125 53.5625 
Q 30.078125 56 35.796875 56 
Q 45.21875 56 50.046875 50.171875 
Q 54.890625 44.34375 54.890625 33.015625 
z
" id="DejaVuSans-110"/>
      <path d="M 34.28125 27.484375 
Q 23.390625 27.484375 19.1875 25 
Q 14.984375 22.515625 14.984375 16.5 
Q 14.984375 11.71875 18.140625 8.90625 
Q 21.296875 6.109375 26.703125 6.109375 
Q 34.1875 6.109375 38.703125 11.40625 
Q 43.21875 16.703125 43.21875 25.484375 
L 43.21875 27.484375 
z
M 52.203125 31.203125 
L 52.203125 0 
L 43.21875 0 
L 43.21875 8.296875 
Q 40.140625 3.328125 35.546875 0.953125 
Q 30.953125 -1.421875 24.3125 -1.421875 
Q 15.921875 -1.421875 10.953125 3.296875 
Q 6 8.015625 6 15.921875 
Q 6 25.140625 12.171875 29.828125 
Q 18.359375 34.515625 30.609375 34.515625 
L 43.21875 34.515625 
L 43.21875 35.40625 
Q 43.21875 41.609375 39.140625 45 
Q 35.0625 48.390625 27.6875 48.390625 
Q 23 48.390625 18.546875 47.265625 
Q 14.109375 46.140625 10.015625 43.890625 
L 10.015625 52.203125 
Q 14.9375 54.109375 19.578125 55.046875 
Q 24.21875 56 28.609375 56 
Q 40.484375 56 46.34375 49.84375 
Q 52.203125 43.703125 52.203125 31.203125 
z
" id="DejaVuSans-97"/>
      <path d="M 9.421875 75.984375 
L 18.40625 75.984375 
L 18.40625 0 
L 9.421875 0 
z
" id="DejaVuSans-108"/>
     </defs>
     <g transform="translate(426.764272 304.58827)rotate(-270)scale(0.08 -0.08)">
      <use xlink:href="#DejaVuSans-84"/>
      <use x="60.818359" xlink:href="#DejaVuSans-101"/>
      <use x="122.341797" xlink:href="#DejaVuSans-114"/>
      <use x="163.439453" xlink:href="#DejaVuSans-109"/>
      <use x="260.851562" xlink:href="#DejaVuSans-105"/>
      <use x="288.634766" xlink:href="#DejaVuSans-110"/>
      <use x="352.013672" xlink:href="#DejaVuSans-97"/>
      <use x="413.292969" xlink:href="#DejaVuSans-108"/>
     </g>
    </g>
   </g>
   <g id="text_10">
    <g id="patch_11">
     <path clip-path="url(#p90b570e9c3)" d="M 551.166232 196.340161 
L 555.605008 193.139298 
Q 557.551662 191.735539 556.147903 189.788885 
L 551.619318 183.508899 
Q 550.215558 181.562246 548.268905 182.966005 
L 543.830129 186.166868 
Q 541.883475 187.570627 543.287234 189.517281 
L 547.81582 195.797266 
Q 549.219579 197.74392 551.166232 196.340161 
z
" style="fill:#ffffff;stroke:#ffffff;stroke-linejoin:miter;"/>
    </g>
    <g clip-path="url(#p90b570e9c3)">
     <!-- A -->
     <g transform="translate(548.789347 193.04403)rotate(-35.795899)scale(0.08 -0.08)">
      <use xlink:href="#DejaVuSans-65"/>
     </g>
    </g>
   </g>
   <g id="text_11">
    <g id="patch_12">
     <path clip-path="url(#p90b570e9c3)" d="M 592.702718 226.25985 
L 593.459513 220.839931 
Q 593.79141 218.462991 591.41447 218.131094 
L 583.746363 217.060379 
Q 581.369423 216.728481 581.037525 219.105421 
L 580.28073 224.52534 
Q 579.948832 226.90228 582.325772 227.234177 
L 589.99388 228.304892 
Q 592.37082 228.63679 592.702718 226.25985 
z
" style="fill:#ffffff;stroke:#ffffff;stroke-linejoin:miter;"/>
    </g>
    <g clip-path="url(#p90b570e9c3)">
     <!-- A -->
     <g transform="translate(588.678013 225.697871)rotate(-82.051057)scale(0.08 -0.08)">
      <use xlink:href="#DejaVuSans-65"/>
     </g>
    </g>
   </g>
   <g id="text_12">
    <g id="patch_13">
     <path clip-path="url(#p90b570e9c3)" d="M 604.983777 221.754997 
L 606.077145 226.4532 
Q 606.621137 228.790735 608.958672 228.246743 
L 616.499659 226.491802 
Q 618.837195 225.94781 618.293203 223.610274 
L 617.199835 218.912071 
Q 616.655843 216.574535 614.318307 217.118528 
L 606.77732 218.873469 
Q 604.439785 219.417461 604.983777 221.754997 
z
" style="fill:#ffffff;stroke:#ffffff;stroke-linejoin:miter;"/>
    </g>
    <g clip-path="url(#p90b570e9c3)">
     <!-- P -->
     <g transform="translate(608.94176 220.833893)rotate(-283.100712)scale(0.08 -0.08)">
      <use xlink:href="#DejaVuSans-80"/>
     </g>
    </g>
   </g>
   <g id="text_13">
    <g id="patch_14">
     <path clip-path="url(#p90b570e9c3)" d="M 629.525833 223.424471 
L 632.55687 228.433846 
Q 633.799311 230.487219 635.852684 229.244779 
L 642.476951 225.236613 
Q 644.530325 223.994173 643.287884 221.940799 
L 640.256846 216.931425 
Q 639.014406 214.878051 636.961033 216.120492 
L 630.336765 220.128657 
Q 628.283392 221.371098 629.525833 223.424471 
z
" style="fill:#ffffff;stroke:#ffffff;stroke-linejoin:miter;"/>
    </g>
    <g clip-path="url(#p90b570e9c3)">
     <!-- U -->
     <g transform="translate(633.002664 221.320735)rotate(-301.177)scale(0.08 -0.08)">
      <use xlink:href="#DejaVuSans-85"/>
     </g>
    </g>
   </g>
   <g id="text_14">
    <g id="patch_15">
     <path clip-path="url(#p90b570e9c3)" d="M 495.877413 260.739969 
L 497.652104 256.006736 
Q 498.494687 253.759503 496.247455 252.91692 
L 488.997789 250.198712 
Q 486.750556 249.356129 485.907973 251.603361 
L 484.133283 256.336595 
Q 483.2907 258.583827 485.537932 259.42641 
L 492.787598 262.144618 
Q 495.03483 262.987201 495.877413 260.739969 
z
" style="fill:#ffffff;stroke:#ffffff;stroke-linejoin:miter;"/>
    </g>
    <g clip-path="url(#p90b570e9c3)">
     <!-- E -->
     <defs>
      <path d="M 9.8125 72.90625 
L 55.90625 72.90625 
L 55.90625 64.59375 
L 19.671875 64.59375 
L 19.671875 43.015625 
L 54.390625 43.015625 
L 54.390625 34.71875 
L 19.671875 34.71875 
L 19.671875 8.296875 
L 56.78125 8.296875 
L 56.78125 0 
L 9.8125 0 
z
" id="DejaVuSans-69"/>
     </defs>
     <g transform="translate(492.072334 259.313283)rotate(-69.446841)scale(0.08 -0.08)">
      <use xlink:href="#DejaVuSans-69"/>
     </g>
    </g>
   </g>
   <g id="text_15">
    <g id="patch_16">
     <path clip-path="url(#p90b570e9c3)" d="M 508.808397 255.758018 
L 510.769597 260.988686 
Q 511.61218 263.235919 513.859412 262.393336 
L 521.109078 259.675128 
Q 523.35631 258.832544 522.513727 256.585312 
L 520.552527 251.354644 
Q 519.709944 249.107412 517.462712 249.949995 
L 510.213046 252.668203 
Q 507.965814 253.510786 508.808397 255.758018 
z
" style="fill:#ffffff;stroke:#ffffff;stroke-linejoin:miter;"/>
    </g>
    <g clip-path="url(#p90b570e9c3)">
     <!-- C -->
     <defs>
      <path d="M 64.40625 67.28125 
L 64.40625 56.890625 
Q 59.421875 61.53125 53.78125 63.8125 
Q 48.140625 66.109375 41.796875 66.109375 
Q 29.296875 66.109375 22.65625 58.46875 
Q 16.015625 50.828125 16.015625 36.375 
Q 16.015625 21.96875 22.65625 14.328125 
Q 29.296875 6.6875 41.796875 6.6875 
Q 48.140625 6.6875 53.78125 8.984375 
Q 59.421875 11.28125 64.40625 15.921875 
L 64.40625 5.609375 
Q 59.234375 2.09375 53.4375 0.328125 
Q 47.65625 -1.421875 41.21875 -1.421875 
Q 24.65625 -1.421875 15.125 8.703125 
Q 5.609375 18.84375 5.609375 36.375 
Q 5.609375 53.953125 15.125 64.078125 
Q 24.65625 74.21875 41.21875 74.21875 
Q 47.75 74.21875 53.53125 72.484375 
Q 59.328125 70.75 64.40625 67.28125 
z
" id="DejaVuSans-67"/>
     </defs>
     <g transform="translate(512.613476 254.331332)rotate(-290.553159)scale(0.08 -0.08)">
      <use xlink:href="#DejaVuSans-67"/>
     </g>
    </g>
   </g>
   <g id="text_16">
    <g id="patch_17">
     <path clip-path="url(#p90b570e9c3)" d="M 571.310733 304.58827 
L 571.310733 339.87327 
Q 571.310733 342.27327 573.710733 342.27327 
L 581.453233 342.27327 
Q 583.853233 342.27327 583.853233 339.87327 
L 583.853233 304.58827 
Q 583.853233 302.18827 581.453233 302.18827 
L 573.710733 302.18827 
Q 571.310733 302.18827 571.310733 304.58827 
z
" style="fill:#ffffff;stroke:#ffffff;stroke-linejoin:miter;"/>
    </g>
    <g clip-path="url(#p90b570e9c3)">
     <!-- Terminal -->
     <g transform="translate(575.374483 304.58827)rotate(-270)scale(0.08 -0.08)">
      <use xlink:href="#DejaVuSans-84"/>
      <use x="60.818359" xlink:href="#DejaVuSans-101"/>
      <use x="122.341797" xlink:href="#DejaVuSans-114"/>
      <use x="163.439453" xlink:href="#DejaVuSans-109"/>
      <use x="260.851562" xlink:href="#DejaVuSans-105"/>
      <use x="288.634766" xlink:href="#DejaVuSans-110"/>
      <use x="352.013672" xlink:href="#DejaVuSans-97"/>
      <use x="413.292969" xlink:href="#DejaVuSans-108"/>
     </g>
    </g>
   </g>
   <g id="text_17">
    <g id="patch_18">
     <path clip-path="url(#p90b570e9c3)" d="M 620.84747 304.58827 
L 620.84747 339.87327 
Q 620.84747 342.27327 623.24747 342.27327 
L 630.98997 342.27327 
Q 633.38997 342.27327 633.38997 339.87327 
L 633.38997 304.58827 
Q 633.38997 302.18827 630.98997 302.18827 
L 623.24747 302.18827 
Q 620.84747 302.18827 620.84747 304.58827 
z
" style="fill:#ffffff;stroke:#ffffff;stroke-linejoin:miter;"/>
    </g>
    <g clip-path="url(#p90b570e9c3)">
     <!-- Terminal -->
     <g transform="translate(624.91122 304.58827)rotate(-270)scale(0.08 -0.08)">
      <use xlink:href="#DejaVuSans-84"/>
      <use x="60.818359" xlink:href="#DejaVuSans-101"/>
      <use x="122.341797" xlink:href="#DejaVuSans-114"/>
      <use x="163.439453" xlink:href="#DejaVuSans-109"/>
      <use x="260.851562" xlink:href="#DejaVuSans-105"/>
      <use x="288.634766" xlink:href="#DejaVuSans-110"/>
      <use x="352.013672" xlink:href="#DejaVuSans-97"/>
      <use x="413.292969" xlink:href="#DejaVuSans-108"/>
     </g>
    </g>
   </g>
   <g id="text_18">
    <g id="patch_19">
     <path clip-path="url(#p90b570e9c3)" d="M 472.237259 304.58827 
L 472.237259 339.87327 
Q 472.237259 342.27327 474.637259 342.27327 
L 482.379759 342.27327 
Q 484.779759 342.27327 484.779759 339.87327 
L 484.779759 304.58827 
Q 484.779759 302.18827 482.379759 302.18827 
L 474.637259 302.18827 
Q 472.237259 302.18827 472.237259 304.58827 
z
" style="fill:#ffffff;stroke:#ffffff;stroke-linejoin:miter;"/>
    </g>
    <g clip-path="url(#p90b570e9c3)">
     <!-- Terminal -->
     <g transform="translate(476.301009 304.58827)rotate(-270)scale(0.08 -0.08)">
      <use xlink:href="#DejaVuSans-84"/>
      <use x="60.818359" xlink:href="#DejaVuSans-101"/>
      <use x="122.341797" xlink:href="#DejaVuSans-114"/>
      <use x="163.439453" xlink:href="#DejaVuSans-109"/>
      <use x="260.851562" xlink:href="#DejaVuSans-105"/>
      <use x="288.634766" xlink:href="#DejaVuSans-110"/>
      <use x="352.013672" xlink:href="#DejaVuSans-97"/>
      <use x="413.292969" xlink:href="#DejaVuSans-108"/>
     </g>
    </g>
   </g>
   <g id="text_19">
    <g id="patch_20">
     <path clip-path="url(#p90b570e9c3)" d="M 521.773996 304.58827 
L 521.773996 339.87327 
Q 521.773996 342.27327 524.173996 342.27327 
L 531.916496 342.27327 
Q 534.316496 342.27327 534.316496 339.87327 
L 534.316496 304.58827 
Q 534.316496 302.18827 531.916496 302.18827 
L 524.173996 302.18827 
Q 521.773996 302.18827 521.773996 304.58827 
z
" style="fill:#ffffff;stroke:#ffffff;stroke-linejoin:miter;"/>
    </g>
    <g clip-path="url(#p90b570e9c3)">
     <!-- Terminal -->
     <g transform="translate(525.837746 304.58827)rotate(-270)scale(0.08 -0.08)">
      <use xlink:href="#DejaVuSans-84"/>
      <use x="60.818359" xlink:href="#DejaVuSans-101"/>
      <use x="122.341797" xlink:href="#DejaVuSans-114"/>
      <use x="163.439453" xlink:href="#DejaVuSans-109"/>
      <use x="260.851562" xlink:href="#DejaVuSans-105"/>
      <use x="288.634766" xlink:href="#DejaVuSans-110"/>
      <use x="352.013672" xlink:href="#DejaVuSans-97"/>
      <use x="413.292969" xlink:href="#DejaVuSans-108"/>
     </g>
    </g>
   </g>
   <g id="text_20">
    <g id="patch_21">
     <path clip-path="url(#p90b570e9c3)" d="M 50.04678 260.739969 
L 51.821471 256.006736 
Q 52.664054 253.759503 50.416821 252.91692 
L 43.167156 250.198712 
Q 40.919923 249.356129 40.07734 251.603361 
L 38.30265 256.336595 
Q 37.460067 258.583827 39.707299 259.42641 
L 46.956965 262.144618 
Q 49.204197 262.987201 50.04678 260.739969 
z
" style="fill:#ffffff;stroke:#ffffff;stroke-linejoin:miter;"/>
    </g>
    <g clip-path="url(#p90b570e9c3)">
     <!-- E -->
     <g transform="translate(46.241701 259.313283)rotate(-69.446841)scale(0.08 -0.08)">
      <use xlink:href="#DejaVuSans-69"/>
     </g>
    </g>
   </g>
   <g id="text_21">
    <g id="patch_22">
     <path clip-path="url(#p90b570e9c3)" d="M 62.977764 255.758018 
L 64.938963 260.988686 
Q 65.781547 263.235919 68.028779 262.393336 
L 75.278445 259.675128 
Q 77.525677 258.832544 76.683094 256.585312 
L 74.721894 251.354644 
Q 73.879311 249.107412 71.632079 249.949995 
L 64.382413 252.668203 
Q 62.135181 253.510786 62.977764 255.758018 
z
" style="fill:#ffffff;stroke:#ffffff;stroke-linejoin:miter;"/>
    </g>
    <g clip-path="url(#p90b570e9c3)">
     <!-- C -->
     <g transform="translate(66.782843 254.331332)rotate(-290.553159)scale(0.08 -0.08)">
      <use xlink:href="#DejaVuSans-67"/>
     </g>
    </g>
   </g>
   <g id="text_22">
    <g id="patch_23">
     <path clip-path="url(#p90b570e9c3)" d="M 150.952534 340.10793 
L 172.121457 311.878373 
Q 173.561316 309.958267 171.64121 308.518408 
L 165.446868 303.873363 
Q 163.526762 302.433505 162.086904 304.353611 
L 140.91798 332.583168 
Q 139.478121 334.503274 141.398227 335.943132 
L 147.592569 340.588177 
Q 149.512675 342.028036 150.952534 340.10793 
z
" style="fill:#ffffff;stroke:#ffffff;stroke-linejoin:miter;"/>
    </g>
    <g clip-path="url(#p90b570e9c3)">
     <!-- Terminal -->
     <g transform="translate(147.701354 337.669919)rotate(-53.134317)scale(0.08 -0.08)">
      <use xlink:href="#DejaVuSans-84"/>
      <use x="60.818359" xlink:href="#DejaVuSans-101"/>
      <use x="122.341797" xlink:href="#DejaVuSans-114"/>
      <use x="163.439453" xlink:href="#DejaVuSans-109"/>
      <use x="260.851562" xlink:href="#DejaVuSans-105"/>
      <use x="288.634766" xlink:href="#DejaVuSans-110"/>
      <use x="352.013672" xlink:href="#DejaVuSans-97"/>
      <use x="413.292969" xlink:href="#DejaVuSans-108"/>
     </g>
    </g>
   </g>
   <g id="text_23">
    <g id="patch_24">
     <path clip-path="url(#p90b570e9c3)" d="M 190.454717 311.878373 
L 211.623641 340.10793 
Q 213.063499 342.028036 214.983605 340.588177 
L 221.177947 335.943132 
Q 223.098053 334.503274 221.658194 332.583168 
L 200.489271 304.353611 
Q 199.049412 302.433505 197.129306 303.873363 
L 190.934964 308.518408 
Q 189.014858 309.958267 190.454717 311.878373 
z
" style="fill:#ffffff;stroke:#ffffff;stroke-linejoin:miter;"/>
    </g>
    <g clip-path="url(#p90b570e9c3)">
     <!-- Terminal -->
     <g transform="translate(193.705896 309.440362)rotate(-306.865683)scale(0.08 -0.08)">
      <use xlink:href="#DejaVuSans-84"/>
      <use x="60.818359" xlink:href="#DejaVuSans-101"/>
      <use x="122.341797" xlink:href="#DejaVuSans-114"/>
      <use x="163.439453" xlink:href="#DejaVuSans-109"/>
      <use x="260.851562" xlink:href="#DejaVuSans-105"/>
      <use x="288.634766" xlink:href="#DejaVuSans-110"/>
      <use x="352.013672" xlink:href="#DejaVuSans-97"/>
      <use x="413.292969" xlink:href="#DejaVuSans-108"/>
     </g>
    </g>
   </g>
   <g id="text_24">
    <g id="patch_25">
     <path clip-path="url(#p90b570e9c3)" d="M 175.016837 304.58827 
L 175.016837 339.87327 
Q 175.016837 342.27327 177.416837 342.27327 
L 185.159337 342.27327 
Q 187.559337 342.27327 187.559337 339.87327 
L 187.559337 304.58827 
Q 187.559337 302.18827 185.159337 302.18827 
L 177.416837 302.18827 
Q 175.016837 302.18827 175.016837 304.58827 
z
" style="fill:#ffffff;stroke:#ffffff;stroke-linejoin:miter;"/>
    </g>
    <g clip-path="url(#p90b570e9c3)">
     <!-- Terminal -->
     <g transform="translate(179.080587 304.58827)rotate(-270)scale(0.08 -0.08)">
      <use xlink:href="#DejaVuSans-84"/>
      <use x="60.818359" xlink:href="#DejaVuSans-101"/>
      <use x="122.341797" xlink:href="#DejaVuSans-114"/>
      <use x="163.439453" xlink:href="#DejaVuSans-109"/>
      <use x="260.851562" xlink:href="#DejaVuSans-105"/>
      <use x="288.634766" xlink:href="#DejaVuSans-110"/>
      <use x="352.013672" xlink:href="#DejaVuSans-97"/>
      <use x="413.292969" xlink:href="#DejaVuSans-108"/>
     </g>
    </g>
   </g>
   <g id="text_25">
    <g id="patch_26">
     <path clip-path="url(#p90b570e9c3)" d="M 243.994297 193.72045 
L 248.347505 196.336416 
Q 250.404645 197.572609 251.640839 195.515469 
L 255.628851 188.87905 
Q 256.865045 186.82191 254.807904 185.585716 
L 250.454696 182.96975 
Q 248.397556 181.733556 247.161362 183.790696 
L 243.17335 190.427116 
Q 241.937156 192.484256 243.994297 193.72045 
z
" style="fill:#ffffff;stroke:#ffffff;stroke-linejoin:miter;"/>
    </g>
    <g clip-path="url(#p90b570e9c3)">
     <!-- S -->
     <defs>
      <path d="M 53.515625 70.515625 
L 53.515625 60.890625 
Q 47.90625 63.578125 42.921875 64.890625 
Q 37.9375 66.21875 33.296875 66.21875 
Q 25.25 66.21875 20.875 63.09375 
Q 16.5 59.96875 16.5 54.203125 
Q 16.5 49.359375 19.40625 46.890625 
Q 22.3125 44.4375 30.421875 42.921875 
L 36.375 41.703125 
Q 47.40625 39.59375 52.65625 34.296875 
Q 57.90625 29 57.90625 20.125 
Q 57.90625 9.515625 50.796875 4.046875 
Q 43.703125 -1.421875 29.984375 -1.421875 
Q 24.8125 -1.421875 18.96875 -0.25 
Q 13.140625 0.921875 6.890625 3.21875 
L 6.890625 13.375 
Q 12.890625 10.015625 18.65625 8.296875 
Q 24.421875 6.59375 29.984375 6.59375 
Q 38.421875 6.59375 43.015625 9.90625 
Q 47.609375 13.234375 47.609375 19.390625 
Q 47.609375 24.75 44.3125 27.78125 
Q 41.015625 30.8125 33.5 32.328125 
L 27.484375 33.5 
Q 16.453125 35.6875 11.515625 40.375 
Q 6.59375 45.0625 6.59375 53.421875 
Q 6.59375 63.09375 13.40625 68.65625 
Q 20.21875 74.21875 32.171875 74.21875 
Q 37.3125 74.21875 42.625 73.28125 
Q 47.953125 72.359375 53.515625 70.515625 
z
" id="DejaVuSans-83"/>
     </defs>
     <g transform="translate(246.087456 190.23724)rotate(-328.997151)scale(0.08 -0.08)">
      <use xlink:href="#DejaVuSans-83"/>
     </g>
    </g>
   </g>
   <g id="text_26">
    <g id="patch_27">
     <path clip-path="url(#p90b570e9c3)" d="M 140.99337 228.807469 
L 144.507808 224.612594 
Q 146.049088 222.772904 144.209399 221.231625 
L 138.274484 216.259392 
Q 136.434794 214.718113 134.893515 216.557802 
L 131.379076 220.752677 
Q 129.837797 222.592367 131.677486 224.133646 
L 137.612401 229.105878 
Q 139.45209 230.647158 140.99337 228.807469 
z
" style="fill:#ffffff;stroke:#ffffff;stroke-linejoin:miter;"/>
    </g>
    <g clip-path="url(#p90b570e9c3)">
     <!-- A -->
     <g transform="translate(137.878354 226.197729)rotate(-50.043947)scale(0.08 -0.08)">
      <use xlink:href="#DejaVuSans-65"/>
     </g>
    </g>
   </g>
   <g id="text_27">
    <g id="patch_28">
     <path clip-path="url(#p90b570e9c3)" d="M 297.642038 260.975811 
L 299.593583 255.770893 
Q 300.436166 253.523661 298.188934 252.681078 
L 290.939268 249.96287 
Q 288.692036 249.120287 287.849453 251.367519 
L 285.897908 256.572437 
Q 285.055324 258.81967 287.302557 259.662253 
L 294.552223 262.380461 
Q 296.799455 263.223044 297.642038 260.975811 
z
" style="fill:#ffffff;stroke:#ffffff;stroke-linejoin:miter;"/>
    </g>
    <g clip-path="url(#p90b570e9c3)">
     <!-- R -->
     <defs>
      <path d="M 44.390625 34.1875 
Q 47.5625 33.109375 50.5625 29.59375 
Q 53.5625 26.078125 56.59375 19.921875 
L 66.609375 0 
L 56 0 
L 46.6875 18.703125 
Q 43.0625 26.03125 39.671875 28.421875 
Q 36.28125 30.8125 30.421875 30.8125 
L 19.671875 30.8125 
L 19.671875 0 
L 9.8125 0 
L 9.8125 72.90625 
L 32.078125 72.90625 
Q 44.578125 72.90625 50.734375 67.671875 
Q 56.890625 62.453125 56.890625 51.90625 
Q 56.890625 45.015625 53.6875 40.46875 
Q 50.484375 35.9375 44.390625 34.1875 
z
M 19.671875 64.796875 
L 19.671875 38.921875 
L 32.078125 38.921875 
Q 39.203125 38.921875 42.84375 42.21875 
Q 46.484375 45.515625 46.484375 51.90625 
Q 46.484375 58.296875 42.84375 61.546875 
Q 39.203125 64.796875 32.078125 64.796875 
z
" id="DejaVuSans-82"/>
     </defs>
     <g transform="translate(293.836958 259.549125)rotate(-69.446841)scale(0.08 -0.08)">
      <use xlink:href="#DejaVuSans-82"/>
     </g>
    </g>
   </g>
   <g id="text_28">
    <g id="patch_29">
     <path clip-path="url(#p90b570e9c3)" d="M 310.661449 255.758018 
L 312.622649 260.988686 
Q 313.465232 263.235919 315.712464 262.393336 
L 322.96213 259.675128 
Q 325.209362 258.832544 324.366779 256.585312 
L 322.405579 251.354644 
Q 321.562996 249.107412 319.315764 249.949995 
L 312.066098 252.668203 
Q 309.818866 253.510786 310.661449 255.758018 
z
" style="fill:#ffffff;stroke:#ffffff;stroke-linejoin:miter;"/>
    </g>
    <g clip-path="url(#p90b570e9c3)">
     <!-- C -->
     <g transform="translate(314.466528 254.331332)rotate(-290.553159)scale(0.08 -0.08)">
      <use xlink:href="#DejaVuSans-67"/>
     </g>
    </g>
   </g>
   <g id="text_29">
    <g id="patch_30">
     <path clip-path="url(#p90b570e9c3)" d="M 274.090311 304.58827 
L 274.090311 339.87327 
Q 274.090311 342.27327 276.490311 342.27327 
L 284.232811 342.27327 
Q 286.632811 342.27327 286.632811 339.87327 
L 286.632811 304.58827 
Q 286.632811 302.18827 284.232811 302.18827 
L 276.490311 302.18827 
Q 274.090311 302.18827 274.090311 304.58827 
z
" style="fill:#ffffff;stroke:#ffffff;stroke-linejoin:miter;"/>
    </g>
    <g clip-path="url(#p90b570e9c3)">
     <!-- Terminal -->
     <g transform="translate(278.154061 304.58827)rotate(-270)scale(0.08 -0.08)">
      <use xlink:href="#DejaVuSans-84"/>
      <use x="60.818359" xlink:href="#DejaVuSans-101"/>
      <use x="122.341797" xlink:href="#DejaVuSans-114"/>
      <use x="163.439453" xlink:href="#DejaVuSans-109"/>
      <use x="260.851562" xlink:href="#DejaVuSans-105"/>
      <use x="288.634766" xlink:href="#DejaVuSans-110"/>
      <use x="352.013672" xlink:href="#DejaVuSans-97"/>
      <use x="413.292969" xlink:href="#DejaVuSans-108"/>
     </g>
    </g>
   </g>
   <g id="text_30">
    <g id="patch_31">
     <path clip-path="url(#p90b570e9c3)" d="M 323.627048 304.58827 
L 323.627048 339.87327 
Q 323.627048 342.27327 326.027048 342.27327 
L 333.769548 342.27327 
Q 336.169548 342.27327 336.169548 339.87327 
L 336.169548 304.58827 
Q 336.169548 302.18827 333.769548 302.18827 
L 326.027048 302.18827 
Q 323.627048 302.18827 323.627048 304.58827 
z
" style="fill:#ffffff;stroke:#ffffff;stroke-linejoin:miter;"/>
    </g>
    <g clip-path="url(#p90b570e9c3)">
     <!-- Terminal -->
     <g transform="translate(327.690798 304.58827)rotate(-270)scale(0.08 -0.08)">
      <use xlink:href="#DejaVuSans-84"/>
      <use x="60.818359" xlink:href="#DejaVuSans-101"/>
      <use x="122.341797" xlink:href="#DejaVuSans-114"/>
      <use x="163.439453" xlink:href="#DejaVuSans-109"/>
      <use x="260.851562" xlink:href="#DejaVuSans-105"/>
      <use x="288.634766" xlink:href="#DejaVuSans-110"/>
      <use x="352.013672" xlink:href="#DejaVuSans-97"/>
      <use x="413.292969" xlink:href="#DejaVuSans-108"/>
     </g>
    </g>
   </g>
   <g id="text_31">
    <g id="patch_32">
     <path clip-path="url(#p90b570e9c3)" d="M 26.406626 304.58827 
L 26.406626 339.87327 
Q 26.406626 342.27327 28.806626 342.27327 
L 36.549126 342.27327 
Q 38.949126 342.27327 38.949126 339.87327 
L 38.949126 304.58827 
Q 38.949126 302.18827 36.549126 302.18827 
L 28.806626 302.18827 
Q 26.406626 302.18827 26.406626 304.58827 
z
" style="fill:#ffffff;stroke:#ffffff;stroke-linejoin:miter;"/>
    </g>
    <g clip-path="url(#p90b570e9c3)">
     <!-- Terminal -->
     <g transform="translate(30.470376 304.58827)rotate(-270)scale(0.08 -0.08)">
      <use xlink:href="#DejaVuSans-84"/>
      <use x="60.818359" xlink:href="#DejaVuSans-101"/>
      <use x="122.341797" xlink:href="#DejaVuSans-114"/>
      <use x="163.439453" xlink:href="#DejaVuSans-109"/>
      <use x="260.851562" xlink:href="#DejaVuSans-105"/>
      <use x="288.634766" xlink:href="#DejaVuSans-110"/>
      <use x="352.013672" xlink:href="#DejaVuSans-97"/>
      <use x="413.292969" xlink:href="#DejaVuSans-108"/>
     </g>
    </g>
   </g>
   <g id="text_32">
    <g id="patch_33">
     <path clip-path="url(#p90b570e9c3)" d="M 75.943363 304.58827 
L 75.943363 339.87327 
Q 75.943363 342.27327 78.343363 342.27327 
L 86.085863 342.27327 
Q 88.485863 342.27327 88.485863 339.87327 
L 88.485863 304.58827 
Q 88.485863 302.18827 86.085863 302.18827 
L 78.343363 302.18827 
Q 75.943363 302.18827 75.943363 304.58827 
z
" style="fill:#ffffff;stroke:#ffffff;stroke-linejoin:miter;"/>
    </g>
    <g clip-path="url(#p90b570e9c3)">
     <!-- Terminal -->
     <g transform="translate(80.007113 304.58827)rotate(-270)scale(0.08 -0.08)">
      <use xlink:href="#DejaVuSans-84"/>
      <use x="60.818359" xlink:href="#DejaVuSans-101"/>
      <use x="122.341797" xlink:href="#DejaVuSans-114"/>
      <use x="163.439453" xlink:href="#DejaVuSans-109"/>
      <use x="260.851562" xlink:href="#DejaVuSans-105"/>
      <use x="288.634766" xlink:href="#DejaVuSans-110"/>
      <use x="352.013672" xlink:href="#DejaVuSans-97"/>
      <use x="413.292969" xlink:href="#DejaVuSans-108"/>
     </g>
    </g>
   </g>
   <g id="text_33">
    <g id="patch_34">
     <path clip-path="url(#p90b570e9c3)" d="M 270.125525 60.395482 
L 279.66083 57.614741 
Q 281.964855 56.942827 281.292941 54.638802 
L 279.125321 47.205921 
Q 278.453408 44.901895 276.149382 45.573809 
L 266.614078 48.35455 
Q 264.310053 49.026464 264.981966 51.330489 
L 267.149586 58.76337 
Q 267.8215 61.067396 270.125525 60.395482 
z
" style="fill:#ffffff;stroke:#ffffff;stroke-linejoin:miter;"/>
    </g>
    <g clip-path="url(#p90b570e9c3)">
     <!-- LA -->
     <g transform="translate(268.987822 56.494239)rotate(-16.25805)scale(0.08 -0.08)">
      <use xlink:href="#DejaVuSans-76"/>
      <use x="55.744141" xlink:href="#DejaVuSans-65"/>
     </g>
    </g>
   </g>
   <g id="text_34">
    <g id="patch_35">
     <path clip-path="url(#p90b570e9c3)" d="M 404.033821 149.501008 
L 405.35653 159.429538 
Q 405.673466 161.808519 408.052447 161.491584 
L 415.72714 160.469137 
Q 418.106121 160.152202 417.789186 157.773221 
L 416.466476 147.844691 
Q 416.149541 145.46571 413.77056 145.782645 
L 406.095867 146.805091 
Q 403.716886 147.122026 404.033821 149.501008 
z
" style="fill:#ffffff;stroke:#ffffff;stroke-linejoin:miter;"/>
    </g>
    <g clip-path="url(#p90b570e9c3)">
     <!-- LR -->
     <g transform="translate(408.061982 148.964364)rotate(-277.588437)scale(0.08 -0.08)">
      <use xlink:href="#DejaVuSans-76"/>
      <use x="55.712891" xlink:href="#DejaVuSans-82"/>
     </g>
    </g>
   </g>
   <g id="text_35">
    <g id="patch_36">
     <path clip-path="url(#p90b570e9c3)" d="M 486.872908 89.515873 
L 495.089318 95.096658 
Q 497.074658 96.445148 498.423149 94.459809 
L 502.773435 88.055021 
Q 504.121926 86.069681 502.136586 84.721191 
L 493.920176 79.140406 
Q 491.934836 77.791915 490.586346 79.777255 
L 486.236059 86.182043 
Q 484.887568 88.167383 486.872908 89.515873 
z
" style="fill:#ffffff;stroke:#ffffff;stroke-linejoin:miter;"/>
    </g>
    <g clip-path="url(#p90b570e9c3)">
     <!-- LA -->
     <g transform="translate(489.156212 86.154238)rotate(-325.814706)scale(0.08 -0.08)">
      <use xlink:href="#DejaVuSans-76"/>
      <use x="55.744141" xlink:href="#DejaVuSans-65"/>
     </g>
    </g>
   </g>
   <g id="text_36">
    <g id="patch_37">
     <path clip-path="url(#p90b570e9c3)" d="M 373.163785 304.58827 
L 373.163785 339.87327 
Q 373.163785 342.27327 375.563785 342.27327 
L 383.306285 342.27327 
Q 385.706285 342.27327 385.706285 339.87327 
L 385.706285 304.58827 
Q 385.706285 302.18827 383.306285 302.18827 
L 375.563785 302.18827 
Q 373.163785 302.18827 373.163785 304.58827 
z
" style="fill:#ffffff;stroke:#ffffff;stroke-linejoin:miter;"/>
    </g>
    <g clip-path="url(#p90b570e9c3)">
     <!-- Terminal -->
     <g transform="translate(377.227535 304.58827)rotate(-270)scale(0.08 -0.08)">
      <use xlink:href="#DejaVuSans-84"/>
      <use x="60.818359" xlink:href="#DejaVuSans-101"/>
      <use x="122.341797" xlink:href="#DejaVuSans-114"/>
      <use x="163.439453" xlink:href="#DejaVuSans-109"/>
      <use x="260.851562" xlink:href="#DejaVuSans-105"/>
      <use x="288.634766" xlink:href="#DejaVuSans-110"/>
      <use x="352.013672" xlink:href="#DejaVuSans-97"/>
      <use x="413.292969" xlink:href="#DejaVuSans-108"/>
     </g>
    </g>
   </g>
   <g id="text_37">
    <g id="patch_38">
     <path clip-path="url(#p90b570e9c3)" d="M 670.384207 304.58827 
L 670.384207 339.87327 
Q 670.384207 342.27327 672.784207 342.27327 
L 680.526707 342.27327 
Q 682.926707 342.27327 682.926707 339.87327 
L 682.926707 304.58827 
Q 682.926707 302.18827 680.526707 302.18827 
L 672.784207 302.18827 
Q 670.384207 302.18827 670.384207 304.58827 
z
" style="fill:#ffffff;stroke:#ffffff;stroke-linejoin:miter;"/>
    </g>
    <g clip-path="url(#p90b570e9c3)">
     <!-- Terminal -->
     <g transform="translate(674.447957 304.58827)rotate(-270)scale(0.08 -0.08)">
      <use xlink:href="#DejaVuSans-84"/>
      <use x="60.818359" xlink:href="#DejaVuSans-101"/>
      <use x="122.341797" xlink:href="#DejaVuSans-114"/>
      <use x="163.439453" xlink:href="#DejaVuSans-109"/>
      <use x="260.851562" xlink:href="#DejaVuSans-105"/>
      <use x="288.634766" xlink:href="#DejaVuSans-110"/>
      <use x="352.013672" xlink:href="#DejaVuSans-97"/>
      <use x="413.292969" xlink:href="#DejaVuSans-108"/>
     </g>
    </g>
   </g>
   <g id="PathCollection_1">
    <defs>
     <path d="M 0 8.660254 
C 2.296726 8.660254 4.499694 7.747755 6.123724 6.123724 
C 7.747755 4.499694 8.660254 2.296726 8.660254 0 
C 8.660254 -2.296726 7.747755 -4.499694 6.123724 -6.123724 
C 4.499694 -7.747755 2.296726 -8.660254 0 -8.660254 
C -2.296726 -8.660254 -4.499694 -7.747755 -6.123724 -6.123724 
C -7.747755 -4.499694 -8.660254 -2.296726 -8.660254 0 
C -8.660254 2.296726 -7.747755 4.499694 -6.123724 6.123724 
C -4.499694 7.747755 -2.296726 8.660254 0 8.660254 
z
" id="C0_0_89af49b9a5"/>
    </defs>
    <g clip-path="url(#p90b570e9c3)">
     <use style="fill:#ffffff;stroke:#ffffff;" x="32.677876" xlink:href="#C0_0_89af49b9a5" y="355.260323"/>
    </g>
    <g clip-path="url(#p90b570e9c3)">
     <use style="fill:#ffffff;stroke:#ffffff;" x="82.214613" xlink:href="#C0_0_89af49b9a5" y="355.260323"/>
    </g>
    <g clip-path="url(#p90b570e9c3)">
     <use style="fill:#ffffff;stroke:#ffffff;" x="131.75135" xlink:href="#C0_0_89af49b9a5" y="355.260323"/>
    </g>
    <g clip-path="url(#p90b570e9c3)">
     <use style="fill:#ffffff;stroke:#ffffff;" x="181.288087" xlink:href="#C0_0_89af49b9a5" y="355.260323"/>
    </g>
    <g clip-path="url(#p90b570e9c3)">
     <use style="fill:#ffffff;stroke:#ffffff;" x="230.824824" xlink:href="#C0_0_89af49b9a5" y="355.260323"/>
    </g>
    <g clip-path="url(#p90b570e9c3)">
     <use style="fill:#ffffff;stroke:#ffffff;" x="280.361561" xlink:href="#C0_0_89af49b9a5" y="355.260323"/>
    </g>
    <g clip-path="url(#p90b570e9c3)">
     <use style="fill:#ffffff;stroke:#ffffff;" x="329.898298" xlink:href="#C0_0_89af49b9a5" y="355.260323"/>
    </g>
    <g clip-path="url(#p90b570e9c3)">
     <use style="fill:#ffffff;stroke:#ffffff;" x="379.435035" xlink:href="#C0_0_89af49b9a5" y="355.260323"/>
    </g>
    <g clip-path="url(#p90b570e9c3)">
     <use style="fill:#ffffff;stroke:#ffffff;" x="428.971772" xlink:href="#C0_0_89af49b9a5" y="355.260323"/>
    </g>
    <g clip-path="url(#p90b570e9c3)">
     <use style="fill:#ffffff;stroke:#ffffff;" x="478.508509" xlink:href="#C0_0_89af49b9a5" y="355.260323"/>
    </g>
    <g clip-path="url(#p90b570e9c3)">
     <use style="fill:#ffffff;stroke:#ffffff;" x="528.045246" xlink:href="#C0_0_89af49b9a5" y="355.260323"/>
    </g>
    <g clip-path="url(#p90b570e9c3)">
     <use style="fill:#ffffff;stroke:#ffffff;" x="577.581983" xlink:href="#C0_0_89af49b9a5" y="355.260323"/>
    </g>
    <g clip-path="url(#p90b570e9c3)">
     <use style="fill:#ffffff;stroke:#ffffff;" x="627.11872" xlink:href="#C0_0_89af49b9a5" y="355.260323"/>
    </g>
    <g clip-path="url(#p90b570e9c3)">
     <use style="fill:#ffffff;stroke:#ffffff;" x="676.655457" xlink:href="#C0_0_89af49b9a5" y="355.260323"/>
    </g>
    <g clip-path="url(#p90b570e9c3)">
     <use style="fill:#ffffff;stroke:#ffffff;" x="389.497185" xlink:href="#C0_0_89af49b9a5" y="18.073011"/>
    </g>
    <g clip-path="url(#p90b570e9c3)">
     <use style="fill:#ffffff;stroke:#ffffff;" x="153.423673" xlink:href="#C0_0_89af49b9a5" y="87.89628"/>
    </g>
    <g clip-path="url(#p90b570e9c3)">
     <use style="fill:#ffffff;stroke:#ffffff;" x="428.971772" xlink:href="#C0_0_89af49b9a5" y="289.201218"/>
    </g>
    <g clip-path="url(#p90b570e9c3)">
     <use style="fill:#ffffff;stroke:#ffffff;" x="596.15826" xlink:href="#C0_0_89af49b9a5" y="156.164053"/>
    </g>
    <g clip-path="url(#p90b570e9c3)">
     <use style="fill:#ffffff;stroke:#ffffff;" x="503.276878" xlink:href="#C0_0_89af49b9a5" y="223.142113"/>
    </g>
    <g clip-path="url(#p90b570e9c3)">
     <use style="fill:#ffffff;stroke:#ffffff;" x="577.581983" xlink:href="#C0_0_89af49b9a5" y="289.201218"/>
    </g>
    <g clip-path="url(#p90b570e9c3)">
     <use style="fill:#ffffff;stroke:#ffffff;" x="627.11872" xlink:href="#C0_0_89af49b9a5" y="289.201218"/>
    </g>
    <g clip-path="url(#p90b570e9c3)">
     <use style="fill:#ffffff;stroke:#ffffff;" x="478.508509" xlink:href="#C0_0_89af49b9a5" y="289.201218"/>
    </g>
    <g clip-path="url(#p90b570e9c3)">
     <use style="fill:#ffffff;stroke:#ffffff;" x="528.045246" xlink:href="#C0_0_89af49b9a5" y="289.201218"/>
    </g>
    <g clip-path="url(#p90b570e9c3)">
     <use style="fill:#ffffff;stroke:#ffffff;" x="57.446245" xlink:href="#C0_0_89af49b9a5" y="223.142113"/>
    </g>
    <g clip-path="url(#p90b570e9c3)">
     <use style="fill:#ffffff;stroke:#ffffff;" x="181.288087" xlink:href="#C0_0_89af49b9a5" y="289.201218"/>
    </g>
    <g clip-path="url(#p90b570e9c3)">
     <use style="fill:#ffffff;stroke:#ffffff;" x="181.288087" xlink:href="#C0_0_89af49b9a5" y="289.201218"/>
    </g>
    <g clip-path="url(#p90b570e9c3)">
     <use style="fill:#ffffff;stroke:#ffffff;" x="193.672271" xlink:href="#C0_0_89af49b9a5" y="156.164053"/>
    </g>
    <g clip-path="url(#p90b570e9c3)">
     <use style="fill:#ffffff;stroke:#ffffff;" x="305.12993" xlink:href="#C0_0_89af49b9a5" y="223.142113"/>
    </g>
    <g clip-path="url(#p90b570e9c3)">
     <use style="fill:#ffffff;stroke:#ffffff;" x="280.361561" xlink:href="#C0_0_89af49b9a5" y="289.201218"/>
    </g>
    <g clip-path="url(#p90b570e9c3)">
     <use style="fill:#ffffff;stroke:#ffffff;" x="329.898298" xlink:href="#C0_0_89af49b9a5" y="289.201218"/>
    </g>
    <g clip-path="url(#p90b570e9c3)">
     <use style="fill:#ffffff;stroke:#ffffff;" x="32.677876" xlink:href="#C0_0_89af49b9a5" y="289.201218"/>
    </g>
    <g clip-path="url(#p90b570e9c3)">
     <use style="fill:#ffffff;stroke:#ffffff;" x="82.214613" xlink:href="#C0_0_89af49b9a5" y="289.201218"/>
    </g>
    <g clip-path="url(#p90b570e9c3)">
     <use style="fill:#808080;stroke:#808080;" x="392.851235" xlink:href="#C0_0_89af49b9a5" y="18.073011"/>
    </g>
    <g clip-path="url(#p90b570e9c3)">
     <use style="fill:#ffffff;stroke:#ffffff;" x="379.435035" xlink:href="#C0_0_89af49b9a5" y="289.201218"/>
    </g>
    <g clip-path="url(#p90b570e9c3)">
     <use style="fill:#ffffff;stroke:#ffffff;" x="676.655457" xlink:href="#C0_0_89af49b9a5" y="289.201218"/>
    </g>
   </g>
   <g id="text_38">
    <g clip-path="url(#p90b570e9c3)">
     <!-- Les -->
     <defs>
      <path d="M 44.28125 53.078125 
L 44.28125 44.578125 
Q 40.484375 46.53125 36.375 47.5 
Q 32.28125 48.484375 27.875 48.484375 
Q 21.1875 48.484375 17.84375 46.4375 
Q 14.5 44.390625 14.5 40.28125 
Q 14.5 37.15625 16.890625 35.375 
Q 19.28125 33.59375 26.515625 31.984375 
L 29.59375 31.296875 
Q 39.15625 29.25 43.1875 25.515625 
Q 47.21875 21.78125 47.21875 15.09375 
Q 47.21875 7.46875 41.1875 3.015625 
Q 35.15625 -1.421875 24.609375 -1.421875 
Q 20.21875 -1.421875 15.453125 -0.5625 
Q 10.6875 0.296875 5.421875 2 
L 5.421875 11.28125 
Q 10.40625 8.6875 15.234375 7.390625 
Q 20.0625 6.109375 24.8125 6.109375 
Q 31.15625 6.109375 34.5625 8.28125 
Q 37.984375 10.453125 37.984375 14.40625 
Q 37.984375 18.0625 35.515625 20.015625 
Q 33.0625 21.96875 24.703125 23.78125 
L 21.578125 24.515625 
Q 13.234375 26.265625 9.515625 29.90625 
Q 5.8125 33.546875 5.8125 39.890625 
Q 5.8125 47.609375 11.28125 51.796875 
Q 16.75 56 26.8125 56 
Q 31.78125 56 36.171875 55.265625 
Q 40.578125 54.546875 44.28125 53.078125 
z
" id="DejaVuSans-115"/>
     </defs>
     <g transform="translate(24.21147 358.019698)scale(0.1 -0.1)">
      <use xlink:href="#DejaVuSans-76"/>
      <use x="55.697266" xlink:href="#DejaVuSans-101"/>
      <use x="117.220703" xlink:href="#DejaVuSans-115"/>
     </g>
    </g>
   </g>
   <g id="text_39">
    <g clip-path="url(#p90b570e9c3)">
     <!-- matelots -->
     <defs>
      <path d="M 18.3125 70.21875 
L 18.3125 54.6875 
L 36.8125 54.6875 
L 36.8125 47.703125 
L 18.3125 47.703125 
L 18.3125 18.015625 
Q 18.3125 11.328125 20.140625 9.421875 
Q 21.96875 7.515625 27.59375 7.515625 
L 36.8125 7.515625 
L 36.8125 0 
L 27.59375 0 
Q 17.1875 0 13.234375 3.875 
Q 9.28125 7.765625 9.28125 18.015625 
L 9.28125 47.703125 
L 2.6875 47.703125 
L 2.6875 54.6875 
L 9.28125 54.6875 
L 9.28125 70.21875 
z
" id="DejaVuSans-116"/>
      <path d="M 30.609375 48.390625 
Q 23.390625 48.390625 19.1875 42.75 
Q 14.984375 37.109375 14.984375 27.296875 
Q 14.984375 17.484375 19.15625 11.84375 
Q 23.34375 6.203125 30.609375 6.203125 
Q 37.796875 6.203125 41.984375 11.859375 
Q 46.1875 17.53125 46.1875 27.296875 
Q 46.1875 37.015625 41.984375 42.703125 
Q 37.796875 48.390625 30.609375 48.390625 
z
M 30.609375 56 
Q 42.328125 56 49.015625 48.375 
Q 55.71875 40.765625 55.71875 27.296875 
Q 55.71875 13.875 49.015625 6.21875 
Q 42.328125 -1.421875 30.609375 -1.421875 
Q 18.84375 -1.421875 12.171875 6.21875 
Q 5.515625 13.875 5.515625 27.296875 
Q 5.515625 40.765625 12.171875 48.375 
Q 18.84375 56 30.609375 56 
z
" id="DejaVuSans-111"/>
     </defs>
     <g transform="translate(60.230238 358.019698)scale(0.1 -0.1)">
      <use xlink:href="#DejaVuSans-109"/>
      <use x="97.412109" xlink:href="#DejaVuSans-97"/>
      <use x="158.691406" xlink:href="#DejaVuSans-116"/>
      <use x="197.900391" xlink:href="#DejaVuSans-101"/>
      <use x="259.423828" xlink:href="#DejaVuSans-108"/>
      <use x="287.207031" xlink:href="#DejaVuSans-111"/>
      <use x="348.388672" xlink:href="#DejaVuSans-116"/>
      <use x="387.597656" xlink:href="#DejaVuSans-115"/>
     </g>
    </g>
   </g>
   <g id="text_40">
    <g clip-path="url(#p90b570e9c3)">
     <!-- ne -->
     <g transform="translate(125.506038 358.019698)scale(0.1 -0.1)">
      <use xlink:href="#DejaVuSans-110"/>
      <use x="63.378906" xlink:href="#DejaVuSans-101"/>
     </g>
    </g>
   </g>
   <g id="text_41">
    <g clip-path="url(#p90b570e9c3)">
     <!-- cachrent -->
     <defs>
      <path d="M 48.78125 52.59375 
L 48.78125 44.1875 
Q 44.96875 46.296875 41.140625 47.34375 
Q 37.3125 48.390625 33.40625 48.390625 
Q 24.65625 48.390625 19.8125 42.84375 
Q 14.984375 37.3125 14.984375 27.296875 
Q 14.984375 17.28125 19.8125 11.734375 
Q 24.65625 6.203125 33.40625 6.203125 
Q 37.3125 6.203125 41.140625 7.25 
Q 44.96875 8.296875 48.78125 10.40625 
L 48.78125 2.09375 
Q 45.015625 0.34375 40.984375 -0.53125 
Q 36.96875 -1.421875 32.421875 -1.421875 
Q 20.0625 -1.421875 12.78125 6.34375 
Q 5.515625 14.109375 5.515625 27.296875 
Q 5.515625 40.671875 12.859375 48.328125 
Q 20.21875 56 33.015625 56 
Q 37.15625 56 41.109375 55.140625 
Q 45.0625 54.296875 48.78125 52.59375 
z
" id="DejaVuSans-99"/>
      <path d="M 54.890625 33.015625 
L 54.890625 0 
L 45.90625 0 
L 45.90625 32.71875 
Q 45.90625 40.484375 42.875 44.328125 
Q 39.84375 48.1875 33.796875 48.1875 
Q 26.515625 48.1875 22.3125 43.546875 
Q 18.109375 38.921875 18.109375 30.90625 
L 18.109375 0 
L 9.078125 0 
L 9.078125 75.984375 
L 18.109375 75.984375 
L 18.109375 46.1875 
Q 21.34375 51.125 25.703125 53.5625 
Q 30.078125 56 35.796875 56 
Q 45.21875 56 50.046875 50.171875 
Q 54.890625 44.34375 54.890625 33.015625 
z
" id="DejaVuSans-104"/>
      <path d="M 56.203125 29.59375 
L 56.203125 25.203125 
L 14.890625 25.203125 
Q 15.484375 15.921875 20.484375 11.0625 
Q 25.484375 6.203125 34.421875 6.203125 
Q 39.59375 6.203125 44.453125 7.46875 
Q 49.3125 8.734375 54.109375 11.28125 
L 54.109375 2.78125 
Q 49.265625 0.734375 44.1875 -0.34375 
Q 39.109375 -1.421875 33.890625 -1.421875 
Q 20.796875 -1.421875 13.15625 6.1875 
Q 5.515625 13.8125 5.515625 26.8125 
Q 5.515625 40.234375 12.765625 48.109375 
Q 20.015625 56 32.328125 56 
Q 43.359375 56 49.78125 48.890625 
Q 56.203125 41.796875 56.203125 29.59375 
z
M 47.21875 32.234375 
Q 47.125 39.59375 43.09375 43.984375 
Q 39.0625 48.390625 32.421875 48.390625 
Q 24.90625 48.390625 20.390625 44.140625 
Q 15.875 39.890625 15.1875 32.171875 
z
M 24.671875 79.984375 
L 38.4375 61.71875 
L 30.96875 61.71875 
L 15.046875 79.984375 
z
" id="DejaVuSans-232"/>
     </defs>
     <g transform="translate(156.2209 358.019698)scale(0.1 -0.1)">
      <use xlink:href="#DejaVuSans-99"/>
      <use x="54.980469" xlink:href="#DejaVuSans-97"/>
      <use x="116.259766" xlink:href="#DejaVuSans-99"/>
      <use x="171.240234" xlink:href="#DejaVuSans-104"/>
      <use x="234.619141" xlink:href="#DejaVuSans-232"/>
      <use x="296.142578" xlink:href="#DejaVuSans-114"/>
      <use x="337.224609" xlink:href="#DejaVuSans-101"/>
      <use x="398.748047" xlink:href="#DejaVuSans-110"/>
      <use x="462.126953" xlink:href="#DejaVuSans-116"/>
     </g>
    </g>
   </g>
   <g id="text_42">
    <g clip-path="url(#p90b570e9c3)">
     <!-- point -->
     <defs>
      <path d="M 18.109375 8.203125 
L 18.109375 -20.796875 
L 9.078125 -20.796875 
L 9.078125 54.6875 
L 18.109375 54.6875 
L 18.109375 46.390625 
Q 20.953125 51.265625 25.265625 53.625 
Q 29.59375 56 35.59375 56 
Q 45.5625 56 51.78125 48.09375 
Q 58.015625 40.1875 58.015625 27.296875 
Q 58.015625 14.40625 51.78125 6.484375 
Q 45.5625 -1.421875 35.59375 -1.421875 
Q 29.59375 -1.421875 25.265625 0.953125 
Q 20.953125 3.328125 18.109375 8.203125 
z
M 48.6875 27.296875 
Q 48.6875 37.203125 44.609375 42.84375 
Q 40.53125 48.484375 33.40625 48.484375 
Q 26.265625 48.484375 22.1875 42.84375 
Q 18.109375 37.203125 18.109375 27.296875 
Q 18.109375 17.390625 22.1875 11.75 
Q 26.265625 6.109375 33.40625 6.109375 
Q 40.53125 6.109375 44.609375 11.75 
Q 48.6875 17.390625 48.6875 27.296875 
z
" id="DejaVuSans-112"/>
     </defs>
     <g transform="translate(218.073262 358.019698)scale(0.1 -0.1)">
      <use xlink:href="#DejaVuSans-112"/>
      <use x="63.476562" xlink:href="#DejaVuSans-111"/>
      <use x="124.658203" xlink:href="#DejaVuSans-105"/>
      <use x="152.441406" xlink:href="#DejaVuSans-110"/>
      <use x="215.820312" xlink:href="#DejaVuSans-116"/>
     </g>
    </g>
   </g>
   <g id="text_43">
    <g clip-path="url(#p90b570e9c3)">
     <!-- leur -->
     <defs>
      <path d="M 8.5 21.578125 
L 8.5 54.6875 
L 17.484375 54.6875 
L 17.484375 21.921875 
Q 17.484375 14.15625 20.5 10.265625 
Q 23.53125 6.390625 29.59375 6.390625 
Q 36.859375 6.390625 41.078125 11.03125 
Q 45.3125 15.671875 45.3125 23.6875 
L 45.3125 54.6875 
L 54.296875 54.6875 
L 54.296875 0 
L 45.3125 0 
L 45.3125 8.40625 
Q 42.046875 3.421875 37.71875 1 
Q 33.40625 -1.421875 27.6875 -1.421875 
Q 18.265625 -1.421875 13.375 4.4375 
Q 8.5 10.296875 8.5 21.578125 
z
M 31.109375 56 
z
" id="DejaVuSans-117"/>
     </defs>
     <g transform="translate(270.671717 358.019698)scale(0.1 -0.1)">
      <use xlink:href="#DejaVuSans-108"/>
      <use x="27.783203" xlink:href="#DejaVuSans-101"/>
      <use x="89.306641" xlink:href="#DejaVuSans-117"/>
      <use x="152.685547" xlink:href="#DejaVuSans-114"/>
     </g>
    </g>
   </g>
   <g id="text_44">
    <g clip-path="url(#p90b570e9c3)">
     <!-- mcontentement -->
     <defs>
      <path d="M 56.203125 29.59375 
L 56.203125 25.203125 
L 14.890625 25.203125 
Q 15.484375 15.921875 20.484375 11.0625 
Q 25.484375 6.203125 34.421875 6.203125 
Q 39.59375 6.203125 44.453125 7.46875 
Q 49.3125 8.734375 54.109375 11.28125 
L 54.109375 2.78125 
Q 49.265625 0.734375 44.1875 -0.34375 
Q 39.109375 -1.421875 33.890625 -1.421875 
Q 20.796875 -1.421875 13.15625 6.1875 
Q 5.515625 13.8125 5.515625 26.8125 
Q 5.515625 40.234375 12.765625 48.109375 
Q 20.015625 56 32.328125 56 
Q 43.359375 56 49.78125 48.890625 
Q 56.203125 41.796875 56.203125 29.59375 
z
M 47.21875 32.234375 
Q 47.125 39.59375 43.09375 43.984375 
Q 39.0625 48.390625 32.421875 48.390625 
Q 24.90625 48.390625 20.390625 44.140625 
Q 15.875 39.890625 15.1875 32.171875 
z
M 38.53125 79.984375 
L 48.25 79.984375 
L 32.34375 61.625 
L 24.859375 61.625 
z
" id="DejaVuSans-233"/>
     </defs>
     <g transform="translate(286.656111 358.019698)scale(0.1 -0.1)">
      <use xlink:href="#DejaVuSans-109"/>
      <use x="97.412109" xlink:href="#DejaVuSans-233"/>
      <use x="158.935547" xlink:href="#DejaVuSans-99"/>
      <use x="213.916016" xlink:href="#DejaVuSans-111"/>
      <use x="275.097656" xlink:href="#DejaVuSans-110"/>
      <use x="338.476562" xlink:href="#DejaVuSans-116"/>
      <use x="377.685547" xlink:href="#DejaVuSans-101"/>
      <use x="439.208984" xlink:href="#DejaVuSans-110"/>
      <use x="502.587891" xlink:href="#DejaVuSans-116"/>
      <use x="541.796875" xlink:href="#DejaVuSans-101"/>
      <use x="603.320312" xlink:href="#DejaVuSans-109"/>
      <use x="700.732422" xlink:href="#DejaVuSans-101"/>
      <use x="762.255859" xlink:href="#DejaVuSans-110"/>
      <use x="825.634766" xlink:href="#DejaVuSans-116"/>
     </g>
    </g>
   </g>
   <g id="text_45">
    <g clip-path="url(#p90b570e9c3)">
     <!-- , -->
     <defs>
      <path d="M 11.71875 12.40625 
L 22.015625 12.40625 
L 22.015625 4 
L 14.015625 -11.625 
L 7.71875 -11.625 
L 11.71875 4 
z
" id="DejaVuSans-44"/>
     </defs>
     <g transform="translate(377.845973 358.019698)scale(0.1 -0.1)">
      <use xlink:href="#DejaVuSans-44"/>
     </g>
    </g>
   </g>
   <g id="text_46">
    <g clip-path="url(#p90b570e9c3)">
     <!-- et -->
     <g transform="translate(423.935053 358.019698)scale(0.1 -0.1)">
      <use xlink:href="#DejaVuSans-101"/>
      <use x="61.523438" xlink:href="#DejaVuSans-116"/>
     </g>
    </g>
   </g>
   <g id="text_47">
    <g clip-path="url(#p90b570e9c3)">
     <!-- le -->
     <g transform="translate(474.042884 358.019698)scale(0.1 -0.1)">
      <use xlink:href="#DejaVuSans-108"/>
      <use x="27.783203" xlink:href="#DejaVuSans-101"/>
     </g>
    </g>
   </g>
   <g id="text_48">
    <g clip-path="url(#p90b570e9c3)">
     <!-- service -->
     <defs>
      <path d="M 2.984375 54.6875 
L 12.5 54.6875 
L 29.59375 8.796875 
L 46.6875 54.6875 
L 56.203125 54.6875 
L 35.6875 0 
L 23.484375 0 
z
" id="DejaVuSans-118"/>
     </defs>
     <g transform="translate(510.134309 358.019698)scale(0.1 -0.1)">
      <use xlink:href="#DejaVuSans-115"/>
      <use x="52.099609" xlink:href="#DejaVuSans-101"/>
      <use x="113.623047" xlink:href="#DejaVuSans-114"/>
      <use x="154.736328" xlink:href="#DejaVuSans-118"/>
      <use x="213.916016" xlink:href="#DejaVuSans-105"/>
      <use x="241.699219" xlink:href="#DejaVuSans-99"/>
      <use x="296.679688" xlink:href="#DejaVuSans-101"/>
     </g>
    </g>
   </g>
   <g id="text_49">
    <g clip-path="url(#p90b570e9c3)">
     <!-- en -->
     <g transform="translate(571.336671 358.019698)scale(0.1 -0.1)">
      <use xlink:href="#DejaVuSans-101"/>
      <use x="61.523438" xlink:href="#DejaVuSans-110"/>
     </g>
    </g>
   </g>
   <g id="text_50">
    <g clip-path="url(#p90b570e9c3)">
     <!-- souffrit -->
     <defs>
      <path d="M 37.109375 75.984375 
L 37.109375 68.5 
L 28.515625 68.5 
Q 23.6875 68.5 21.796875 66.546875 
Q 19.921875 64.59375 19.921875 59.515625 
L 19.921875 54.6875 
L 34.71875 54.6875 
L 34.71875 47.703125 
L 19.921875 47.703125 
L 19.921875 0 
L 10.890625 0 
L 10.890625 47.703125 
L 2.296875 47.703125 
L 2.296875 54.6875 
L 10.890625 54.6875 
L 10.890625 58.5 
Q 10.890625 67.625 15.140625 71.796875 
Q 19.390625 75.984375 28.609375 75.984375 
z
" id="DejaVuSans-102"/>
     </defs>
     <g transform="translate(609.360908 358.019698)scale(0.1 -0.1)">
      <use xlink:href="#DejaVuSans-115"/>
      <use x="52.099609" xlink:href="#DejaVuSans-111"/>
      <use x="113.28125" xlink:href="#DejaVuSans-117"/>
      <use x="176.660156" xlink:href="#DejaVuSans-102"/>
      <use x="211.865234" xlink:href="#DejaVuSans-102"/>
      <use x="247.070312" xlink:href="#DejaVuSans-114"/>
      <use x="288.183594" xlink:href="#DejaVuSans-105"/>
      <use x="315.966797" xlink:href="#DejaVuSans-116"/>
     </g>
    </g>
   </g>
   <g id="text_51">
    <g clip-path="url(#p90b570e9c3)">
     <!-- . -->
     <defs>
      <path d="M 10.6875 12.40625 
L 21 12.40625 
L 21 0 
L 10.6875 0 
z
" id="DejaVuSans-46"/>
     </defs>
     <g transform="translate(675.066395 358.019698)scale(0.1 -0.1)">
      <use xlink:href="#DejaVuSans-46"/>
     </g>
    </g>
   </g>
   <g id="text_52">
    <g clip-path="url(#p90b570e9c3)">
     <!-- 1.1 -->
     <defs>
      <path d="M 12.40625 8.296875 
L 28.515625 8.296875 
L 28.515625 63.921875 
L 10.984375 60.40625 
L 10.984375 69.390625 
L 28.421875 72.90625 
L 38.28125 72.90625 
L 38.28125 8.296875 
L 54.390625 8.296875 
L 54.390625 0 
L 12.40625 0 
z
" id="DejaVuSans-49"/>
     </defs>
     <g transform="translate(381.545622 20.832386)scale(0.1 -0.1)">
      <use xlink:href="#DejaVuSans-49"/>
      <use x="63.623047" xlink:href="#DejaVuSans-46"/>
      <use x="95.410156" xlink:href="#DejaVuSans-49"/>
     </g>
    </g>
   </g>
   <g id="text_53">
    <g clip-path="url(#p90b570e9c3)">
     <!-- 1.2 -->
     <defs>
      <path d="M 19.1875 8.296875 
L 53.609375 8.296875 
L 53.609375 0 
L 7.328125 0 
L 7.328125 8.296875 
Q 12.9375 14.109375 22.625 23.890625 
Q 32.328125 33.6875 34.8125 36.53125 
Q 39.546875 41.84375 41.421875 45.53125 
Q 43.3125 49.21875 43.3125 52.78125 
Q 43.3125 58.59375 39.234375 62.25 
Q 35.15625 65.921875 28.609375 65.921875 
Q 23.96875 65.921875 18.8125 64.3125 
Q 13.671875 62.703125 7.8125 59.421875 
L 7.8125 69.390625 
Q 13.765625 71.78125 18.9375 73 
Q 24.125 74.21875 28.421875 74.21875 
Q 39.75 74.21875 46.484375 68.546875 
Q 53.21875 62.890625 53.21875 53.421875 
Q 53.21875 48.921875 51.53125 44.890625 
Q 49.859375 40.875 45.40625 35.40625 
Q 44.1875 33.984375 37.640625 27.21875 
Q 31.109375 20.453125 19.1875 8.296875 
z
" id="DejaVuSans-50"/>
     </defs>
     <g transform="translate(145.47211 90.655655)scale(0.1 -0.1)">
      <use xlink:href="#DejaVuSans-49"/>
      <use x="63.623047" xlink:href="#DejaVuSans-46"/>
      <use x="95.410156" xlink:href="#DejaVuSans-50"/>
     </g>
    </g>
   </g>
   <g id="text_54">
    <g clip-path="url(#p90b570e9c3)">
     <!-- 1.3 -->
     <defs>
      <path d="M 40.578125 39.3125 
Q 47.65625 37.796875 51.625 33 
Q 55.609375 28.21875 55.609375 21.1875 
Q 55.609375 10.40625 48.1875 4.484375 
Q 40.765625 -1.421875 27.09375 -1.421875 
Q 22.515625 -1.421875 17.65625 -0.515625 
Q 12.796875 0.390625 7.625 2.203125 
L 7.625 11.71875 
Q 11.71875 9.328125 16.59375 8.109375 
Q 21.484375 6.890625 26.8125 6.890625 
Q 36.078125 6.890625 40.9375 10.546875 
Q 45.796875 14.203125 45.796875 21.1875 
Q 45.796875 27.640625 41.28125 31.265625 
Q 36.765625 34.90625 28.71875 34.90625 
L 20.21875 34.90625 
L 20.21875 43.015625 
L 29.109375 43.015625 
Q 36.375 43.015625 40.234375 45.921875 
Q 44.09375 48.828125 44.09375 54.296875 
Q 44.09375 59.90625 40.109375 62.90625 
Q 36.140625 65.921875 28.71875 65.921875 
Q 24.65625 65.921875 20.015625 65.03125 
Q 15.375 64.15625 9.8125 62.3125 
L 9.8125 71.09375 
Q 15.4375 72.65625 20.34375 73.4375 
Q 25.25 74.21875 29.59375 74.21875 
Q 40.828125 74.21875 47.359375 69.109375 
Q 53.90625 64.015625 53.90625 55.328125 
Q 53.90625 49.265625 50.4375 45.09375 
Q 46.96875 40.921875 40.578125 39.3125 
z
" id="DejaVuSans-51"/>
     </defs>
     <g transform="translate(421.02021 291.960593)scale(0.1 -0.1)">
      <use xlink:href="#DejaVuSans-49"/>
      <use x="63.623047" xlink:href="#DejaVuSans-46"/>
      <use x="95.410156" xlink:href="#DejaVuSans-51"/>
     </g>
    </g>
   </g>
   <g id="text_55">
    <g clip-path="url(#p90b570e9c3)">
     <!-- 1.4 -->
     <defs>
      <path d="M 37.796875 64.3125 
L 12.890625 25.390625 
L 37.796875 25.390625 
z
M 35.203125 72.90625 
L 47.609375 72.90625 
L 47.609375 25.390625 
L 58.015625 25.390625 
L 58.015625 17.1875 
L 47.609375 17.1875 
L 47.609375 0 
L 37.796875 0 
L 37.796875 17.1875 
L 4.890625 17.1875 
L 4.890625 26.703125 
z
" id="DejaVuSans-52"/>
     </defs>
     <g transform="translate(588.206697 158.923428)scale(0.1 -0.1)">
      <use xlink:href="#DejaVuSans-49"/>
      <use x="63.623047" xlink:href="#DejaVuSans-46"/>
      <use x="95.410156" xlink:href="#DejaVuSans-52"/>
     </g>
    </g>
   </g>
   <g id="text_56">
    <g clip-path="url(#p90b570e9c3)">
     <!-- 1.7 -->
     <defs>
      <path d="M 8.203125 72.90625 
L 55.078125 72.90625 
L 55.078125 68.703125 
L 28.609375 0 
L 18.3125 0 
L 43.21875 64.59375 
L 8.203125 64.59375 
z
" id="DejaVuSans-55"/>
     </defs>
     <g transform="translate(495.325315 225.901488)scale(0.1 -0.1)">
      <use xlink:href="#DejaVuSans-49"/>
      <use x="63.623047" xlink:href="#DejaVuSans-46"/>
      <use x="95.410156" xlink:href="#DejaVuSans-55"/>
     </g>
    </g>
   </g>
   <g id="text_57">
    <g clip-path="url(#p90b570e9c3)">
     <!-- 1.8 -->
     <defs>
      <path d="M 31.78125 34.625 
Q 24.75 34.625 20.71875 30.859375 
Q 16.703125 27.09375 16.703125 20.515625 
Q 16.703125 13.921875 20.71875 10.15625 
Q 24.75 6.390625 31.78125 6.390625 
Q 38.8125 6.390625 42.859375 10.171875 
Q 46.921875 13.96875 46.921875 20.515625 
Q 46.921875 27.09375 42.890625 30.859375 
Q 38.875 34.625 31.78125 34.625 
z
M 21.921875 38.8125 
Q 15.578125 40.375 12.03125 44.71875 
Q 8.5 49.078125 8.5 55.328125 
Q 8.5 64.0625 14.71875 69.140625 
Q 20.953125 74.21875 31.78125 74.21875 
Q 42.671875 74.21875 48.875 69.140625 
Q 55.078125 64.0625 55.078125 55.328125 
Q 55.078125 49.078125 51.53125 44.71875 
Q 48 40.375 41.703125 38.8125 
Q 48.828125 37.15625 52.796875 32.3125 
Q 56.78125 27.484375 56.78125 20.515625 
Q 56.78125 9.90625 50.3125 4.234375 
Q 43.84375 -1.421875 31.78125 -1.421875 
Q 19.734375 -1.421875 13.25 4.234375 
Q 6.78125 9.90625 6.78125 20.515625 
Q 6.78125 27.484375 10.78125 32.3125 
Q 14.796875 37.15625 21.921875 38.8125 
z
M 18.3125 54.390625 
Q 18.3125 48.734375 21.84375 45.5625 
Q 25.390625 42.390625 31.78125 42.390625 
Q 38.140625 42.390625 41.71875 45.5625 
Q 45.3125 48.734375 45.3125 54.390625 
Q 45.3125 60.0625 41.71875 63.234375 
Q 38.140625 66.40625 31.78125 66.40625 
Q 25.390625 66.40625 21.84375 63.234375 
Q 18.3125 60.0625 18.3125 54.390625 
z
" id="DejaVuSans-56"/>
     </defs>
     <g transform="translate(569.630421 291.960593)scale(0.1 -0.1)">
      <use xlink:href="#DejaVuSans-49"/>
      <use x="63.623047" xlink:href="#DejaVuSans-46"/>
      <use x="95.410156" xlink:href="#DejaVuSans-56"/>
     </g>
    </g>
   </g>
   <g id="text_58">
    <g clip-path="url(#p90b570e9c3)">
     <!-- 1.9 -->
     <defs>
      <path d="M 10.984375 1.515625 
L 10.984375 10.5 
Q 14.703125 8.734375 18.5 7.8125 
Q 22.3125 6.890625 25.984375 6.890625 
Q 35.75 6.890625 40.890625 13.453125 
Q 46.046875 20.015625 46.78125 33.40625 
Q 43.953125 29.203125 39.59375 26.953125 
Q 35.25 24.703125 29.984375 24.703125 
Q 19.046875 24.703125 12.671875 31.3125 
Q 6.296875 37.9375 6.296875 49.421875 
Q 6.296875 60.640625 12.9375 67.421875 
Q 19.578125 74.21875 30.609375 74.21875 
Q 43.265625 74.21875 49.921875 64.515625 
Q 56.59375 54.828125 56.59375 36.375 
Q 56.59375 19.140625 48.40625 8.859375 
Q 40.234375 -1.421875 26.421875 -1.421875 
Q 22.703125 -1.421875 18.890625 -0.6875 
Q 15.09375 0.046875 10.984375 1.515625 
z
M 30.609375 32.421875 
Q 37.25 32.421875 41.125 36.953125 
Q 45.015625 41.5 45.015625 49.421875 
Q 45.015625 57.28125 41.125 61.84375 
Q 37.25 66.40625 30.609375 66.40625 
Q 23.96875 66.40625 20.09375 61.84375 
Q 16.21875 57.28125 16.21875 49.421875 
Q 16.21875 41.5 20.09375 36.953125 
Q 23.96875 32.421875 30.609375 32.421875 
z
" id="DejaVuSans-57"/>
     </defs>
     <g transform="translate(619.167158 291.960593)scale(0.1 -0.1)">
      <use xlink:href="#DejaVuSans-49"/>
      <use x="63.623047" xlink:href="#DejaVuSans-46"/>
      <use x="95.410156" xlink:href="#DejaVuSans-57"/>
     </g>
    </g>
   </g>
   <g id="text_59">
    <g clip-path="url(#p90b570e9c3)">
     <!-- 1.10 -->
     <defs>
      <path d="M 31.78125 66.40625 
Q 24.171875 66.40625 20.328125 58.90625 
Q 16.5 51.421875 16.5 36.375 
Q 16.5 21.390625 20.328125 13.890625 
Q 24.171875 6.390625 31.78125 6.390625 
Q 39.453125 6.390625 43.28125 13.890625 
Q 47.125 21.390625 47.125 36.375 
Q 47.125 51.421875 43.28125 58.90625 
Q 39.453125 66.40625 31.78125 66.40625 
z
M 31.78125 74.21875 
Q 44.046875 74.21875 50.515625 64.515625 
Q 56.984375 54.828125 56.984375 36.375 
Q 56.984375 17.96875 50.515625 8.265625 
Q 44.046875 -1.421875 31.78125 -1.421875 
Q 19.53125 -1.421875 13.0625 8.265625 
Q 6.59375 17.96875 6.59375 36.375 
Q 6.59375 54.828125 13.0625 64.515625 
Q 19.53125 74.21875 31.78125 74.21875 
z
" id="DejaVuSans-48"/>
     </defs>
     <g transform="translate(467.375697 291.960593)scale(0.1 -0.1)">
      <use xlink:href="#DejaVuSans-49"/>
      <use x="63.623047" xlink:href="#DejaVuSans-46"/>
      <use x="95.410156" xlink:href="#DejaVuSans-49"/>
      <use x="159.033203" xlink:href="#DejaVuSans-48"/>
     </g>
    </g>
   </g>
   <g id="text_60">
    <g clip-path="url(#p90b570e9c3)">
     <!-- 1.11 -->
     <g transform="translate(516.912434 291.960593)scale(0.1 -0.1)">
      <use xlink:href="#DejaVuSans-49"/>
      <use x="63.623047" xlink:href="#DejaVuSans-46"/>
      <use x="95.410156" xlink:href="#DejaVuSans-49"/>
      <use x="159.033203" xlink:href="#DejaVuSans-49"/>
     </g>
    </g>
   </g>
   <g id="text_61">
    <g clip-path="url(#p90b570e9c3)">
     <!-- 1.12 -->
     <g transform="translate(46.313432 225.901488)scale(0.1 -0.1)">
      <use xlink:href="#DejaVuSans-49"/>
      <use x="63.623047" xlink:href="#DejaVuSans-46"/>
      <use x="95.410156" xlink:href="#DejaVuSans-49"/>
      <use x="159.033203" xlink:href="#DejaVuSans-50"/>
     </g>
    </g>
   </g>
   <g id="text_62">
    <g clip-path="url(#p90b570e9c3)">
     <!-- 1.13 -->
     <g transform="translate(170.155275 291.960593)scale(0.1 -0.1)">
      <use xlink:href="#DejaVuSans-49"/>
      <use x="63.623047" xlink:href="#DejaVuSans-46"/>
      <use x="95.410156" xlink:href="#DejaVuSans-49"/>
      <use x="159.033203" xlink:href="#DejaVuSans-51"/>
     </g>
    </g>
   </g>
   <g id="text_63">
    <g clip-path="url(#p90b570e9c3)">
     <!-- 1.14 -->
     <g transform="translate(170.155275 291.960593)scale(0.1 -0.1)">
      <use xlink:href="#DejaVuSans-49"/>
      <use x="63.623047" xlink:href="#DejaVuSans-46"/>
      <use x="95.410156" xlink:href="#DejaVuSans-49"/>
      <use x="159.033203" xlink:href="#DejaVuSans-52"/>
     </g>
    </g>
   </g>
   <g id="text_64">
    <g clip-path="url(#p90b570e9c3)">
     <!-- 1.15 -->
     <defs>
      <path d="M 10.796875 72.90625 
L 49.515625 72.90625 
L 49.515625 64.59375 
L 19.828125 64.59375 
L 19.828125 46.734375 
Q 21.96875 47.46875 24.109375 47.828125 
Q 26.265625 48.1875 28.421875 48.1875 
Q 40.625 48.1875 47.75 41.5 
Q 54.890625 34.8125 54.890625 23.390625 
Q 54.890625 11.625 47.5625 5.09375 
Q 40.234375 -1.421875 26.90625 -1.421875 
Q 22.3125 -1.421875 17.546875 -0.640625 
Q 12.796875 0.140625 7.71875 1.703125 
L 7.71875 11.625 
Q 12.109375 9.234375 16.796875 8.0625 
Q 21.484375 6.890625 26.703125 6.890625 
Q 35.15625 6.890625 40.078125 11.328125 
Q 45.015625 15.765625 45.015625 23.390625 
Q 45.015625 31 40.078125 35.4375 
Q 35.15625 39.890625 26.703125 39.890625 
Q 22.75 39.890625 18.8125 39.015625 
Q 14.890625 38.140625 10.796875 36.28125 
z
" id="DejaVuSans-53"/>
     </defs>
     <g transform="translate(182.539459 158.923428)scale(0.1 -0.1)">
      <use xlink:href="#DejaVuSans-49"/>
      <use x="63.623047" xlink:href="#DejaVuSans-46"/>
      <use x="95.410156" xlink:href="#DejaVuSans-49"/>
      <use x="159.033203" xlink:href="#DejaVuSans-53"/>
     </g>
    </g>
   </g>
   <g id="text_65">
    <g clip-path="url(#p90b570e9c3)">
     <!-- 1.16 -->
     <defs>
      <path d="M 33.015625 40.375 
Q 26.375 40.375 22.484375 35.828125 
Q 18.609375 31.296875 18.609375 23.390625 
Q 18.609375 15.53125 22.484375 10.953125 
Q 26.375 6.390625 33.015625 6.390625 
Q 39.65625 6.390625 43.53125 10.953125 
Q 47.40625 15.53125 47.40625 23.390625 
Q 47.40625 31.296875 43.53125 35.828125 
Q 39.65625 40.375 33.015625 40.375 
z
M 52.59375 71.296875 
L 52.59375 62.3125 
Q 48.875 64.0625 45.09375 64.984375 
Q 41.3125 65.921875 37.59375 65.921875 
Q 27.828125 65.921875 22.671875 59.328125 
Q 17.53125 52.734375 16.796875 39.40625 
Q 19.671875 43.65625 24.015625 45.921875 
Q 28.375 48.1875 33.59375 48.1875 
Q 44.578125 48.1875 50.953125 41.515625 
Q 57.328125 34.859375 57.328125 23.390625 
Q 57.328125 12.15625 50.6875 5.359375 
Q 44.046875 -1.421875 33.015625 -1.421875 
Q 20.359375 -1.421875 13.671875 8.265625 
Q 6.984375 17.96875 6.984375 36.375 
Q 6.984375 53.65625 15.1875 63.9375 
Q 23.390625 74.21875 37.203125 74.21875 
Q 40.921875 74.21875 44.703125 73.484375 
Q 48.484375 72.75 52.59375 71.296875 
z
" id="DejaVuSans-54"/>
     </defs>
     <g transform="translate(293.997117 225.901488)scale(0.1 -0.1)">
      <use xlink:href="#DejaVuSans-49"/>
      <use x="63.623047" xlink:href="#DejaVuSans-46"/>
      <use x="95.410156" xlink:href="#DejaVuSans-49"/>
      <use x="159.033203" xlink:href="#DejaVuSans-54"/>
     </g>
    </g>
   </g>
   <g id="text_66">
    <g clip-path="url(#p90b570e9c3)">
     <!-- 1.17 -->
     <g transform="translate(269.228749 291.960593)scale(0.1 -0.1)">
      <use xlink:href="#DejaVuSans-49"/>
      <use x="63.623047" xlink:href="#DejaVuSans-46"/>
      <use x="95.410156" xlink:href="#DejaVuSans-49"/>
      <use x="159.033203" xlink:href="#DejaVuSans-55"/>
     </g>
    </g>
   </g>
   <g id="text_67">
    <g clip-path="url(#p90b570e9c3)">
     <!-- 1.18 -->
     <g transform="translate(318.765486 291.960593)scale(0.1 -0.1)">
      <use xlink:href="#DejaVuSans-49"/>
      <use x="63.623047" xlink:href="#DejaVuSans-46"/>
      <use x="95.410156" xlink:href="#DejaVuSans-49"/>
      <use x="159.033203" xlink:href="#DejaVuSans-56"/>
     </g>
    </g>
   </g>
   <g id="text_68">
    <g clip-path="url(#p90b570e9c3)">
     <!-- 1.19 -->
     <g transform="translate(21.545064 291.960593)scale(0.1 -0.1)">
      <use xlink:href="#DejaVuSans-49"/>
      <use x="63.623047" xlink:href="#DejaVuSans-46"/>
      <use x="95.410156" xlink:href="#DejaVuSans-49"/>
      <use x="159.033203" xlink:href="#DejaVuSans-57"/>
     </g>
    </g>
   </g>
   <g id="text_69">
    <g clip-path="url(#p90b570e9c3)">
     <!-- 1.20 -->
     <g transform="translate(71.081801 291.960593)scale(0.1 -0.1)">
      <use xlink:href="#DejaVuSans-49"/>
      <use x="63.623047" xlink:href="#DejaVuSans-46"/>
      <use x="95.410156" xlink:href="#DejaVuSans-50"/>
      <use x="159.033203" xlink:href="#DejaVuSans-48"/>
     </g>
    </g>
   </g>
   <g id="text_70">
    <g clip-path="url(#p90b570e9c3)">
     <!-- 1.21 -->
     <g transform="translate(381.718422 20.832386)scale(0.1 -0.1)">
      <use xlink:href="#DejaVuSans-49"/>
      <use x="63.623047" xlink:href="#DejaVuSans-46"/>
      <use x="95.410156" xlink:href="#DejaVuSans-50"/>
      <use x="159.033203" xlink:href="#DejaVuSans-49"/>
     </g>
    </g>
   </g>
   <g id="text_71">
    <g clip-path="url(#p90b570e9c3)">
     <!-- 1.22 -->
     <g transform="translate(368.302223 291.960593)scale(0.1 -0.1)">
      <use xlink:href="#DejaVuSans-49"/>
      <use x="63.623047" xlink:href="#DejaVuSans-46"/>
      <use x="95.410156" xlink:href="#DejaVuSans-50"/>
      <use x="159.033203" xlink:href="#DejaVuSans-50"/>
     </g>
    </g>
   </g>
   <g id="text_72">
    <g clip-path="url(#p90b570e9c3)">
     <!-- 1.23 -->
     <g transform="translate(665.522645 291.960593)scale(0.1 -0.1)">
      <use xlink:href="#DejaVuSans-49"/>
      <use x="63.623047" xlink:href="#DejaVuSans-46"/>
      <use x="95.410156" xlink:href="#DejaVuSans-50"/>
      <use x="159.033203" xlink:href="#DejaVuSans-51"/>
     </g>
    </g>
   </g>
  </g>
 </g>
 <defs>
  <clipPath id="p90b570e9c3">
   <rect height="373.333333" width="709.333333" x="0" y="0"/>
  </clipPath>
 </defs>
</svg>
