<?xml version="1.0" encoding="UTF-8"?>
<!DOCTYPE svg  PUBLIC '-//W3C//DTD SVG 1.1//EN'  'http://www.w3.org/Graphics/SVG/1.1/DTD/svg11.dtd'>
<svg width="1722.7pt" height="906.67pt" version="1.1" viewBox="0 0 1722.7 906.67" xmlns="http://www.w3.org/2000/svg" xmlns:xlink="http://www.w3.org/1999/xlink">
<defs>
<style type="text/css">*{stroke-linecap:butt;stroke-linejoin:round;}</style>
</defs>
<path d="m0 906.67h1722.7v-906.67h-1722.7z" fill="#fff"/>
<g fill="none" stroke="#000">
<path d="m655.46 41.212-534.6 166.32" clip-path="url(#a)"/>
<path d="m655.46 41.212-285.85 662.03" clip-path="url(#a)"/>
<path d="m655.46 41.212-246.01 662.03" clip-path="url(#a)"/>
<path d="m655.46 41.212 10.293 332.22" clip-path="url(#a)"/>
<path d="m655.46 41.212 515.16 166.32" clip-path="url(#a)"/>
<path d="m655.46 41.212 289.29 662.03" clip-path="url(#a)"/>
<path d="m655.46 41.212 529.63 166.32" clip-path="url(#a)"/>
<path d="m655.46 41.212-323.2 662.03" clip-path="url(#a)"/>
<path d="m655.46 41.212 45.288 662.03" clip-path="url(#a)"/>
<path d="m120.86 207.53-42.554 495.71" clip-path="url(#a)"/>
<path d="m120.86 207.53-23.881 495.71" clip-path="url(#a)"/>
<path d="m120.86 207.53-25.126 495.71" clip-path="url(#a)"/>
<path d="m120.86 207.53 2.2615 495.71" clip-path="url(#a)"/>
<path d="m120.86 207.53 89.299 165.9" clip-path="url(#a)"/>
<path d="m369.61 703.24v162.22" clip-path="url(#a)"/>
<path d="m409.44 703.24v162.22" clip-path="url(#a)"/>
<path d="m665.75 373.43 214.26 329.81" clip-path="url(#a)" stroke-dasharray="3.7,1.6"/>
<path d="m665.75 373.43-168.34 165.34" clip-path="url(#a)"/>
<path d="m665.75 373.43-45.922 165.34" clip-path="url(#a)"/>
<path d="m1170.6 207.53-336.67 165.9" clip-path="url(#a)"/>
<path d="m1170.6 207.53 473.75 165.9" clip-path="url(#a)"/>
<path d="m1170.6 207.53 57.956 495.71" clip-path="url(#a)"/>
<path d="m1170.6 207.53 278.72 165.9" clip-path="url(#a)"/>
<path d="m944.74 703.24v162.22" clip-path="url(#a)"/>
<path d="m1185.1 207.53-173.12 495.71" clip-path="url(#a)"/>
<path d="m1185.1 207.53-103.41 495.71" clip-path="url(#a)"/>
<path d="m1185.1 207.53 43.488 495.71" clip-path="url(#a)" stroke-dasharray="3.7,1.6"/>
<path d="m1185.1 207.53 264.25 165.9" clip-path="url(#a)" stroke-dasharray="3.7,1.6"/>
<path d="m1185.1 207.53-31.205 495.71" clip-path="url(#a)"/>
<path d="m1012 703.24v162.22" clip-path="url(#a)"/>
<path d="m1081.7 703.24v162.22" clip-path="url(#a)"/>
<path d="m833.95 373.43-46.061 165.34" clip-path="url(#a)"/>
<path d="m833.95 373.43 46.061 329.81" clip-path="url(#a)"/>
<path d="m1228.6 703.24v162.22" clip-path="url(#a)"/>
<path d="m1449.3 373.43 195.03 165.34" clip-path="url(#a)"/>
<path d="m1449.3 373.43-103.74 165.34" clip-path="url(#a)"/>
<path d="m1449.3 373.43 103.74 165.34" clip-path="url(#a)"/>
<path d="m1345.6 538.76-39.836 164.47" clip-path="url(#a)"/>
<path d="m1345.6 538.76 39.836 164.47" clip-path="url(#a)"/>
<path d="m1553.1 538.76-85.482 164.47" clip-path="url(#a)"/>
<path d="m1553.1 538.76-0.82992 164.47" clip-path="url(#a)"/>
<path d="m1553.1 538.76 86.312 164.47" clip-path="url(#a)"/>
<path d="m1467.6 703.24v162.22" clip-path="url(#a)"/>
<path d="m1552.2 703.24v162.22" clip-path="url(#a)"/>
<path d="m1305.8 703.24v162.22" clip-path="url(#a)"/>
<path d="m1385.4 703.24v162.22" clip-path="url(#a)"/>
<path d="m787.89 538.76-29.877 164.47" clip-path="url(#a)"/>
<path d="m787.89 538.76 29.877 164.47" clip-path="url(#a)"/>
<path d="m880.01 703.24v162.22" clip-path="url(#a)"/>
<path d="m758.01 703.24v162.22" clip-path="url(#a)"/>
<path d="m817.76 703.24v162.22" clip-path="url(#a)"/>
<path d="m497.41 538.76-45.646 164.47" clip-path="url(#a)"/>
<path d="m497.41 538.76-0.82992 164.47" clip-path="url(#a)"/>
<path d="m497.41 538.76 46.476 164.47" clip-path="url(#a)"/>
<path d="m619.83 538.76-26.143 164.47" clip-path="url(#a)"/>
<path d="m619.83 538.76 26.143 164.47" clip-path="url(#a)"/>
<path d="m593.68 703.24v162.22" clip-path="url(#a)"/>
<path d="m645.97 703.24v162.22" clip-path="url(#a)"/>
<path d="m451.77 703.24v162.22" clip-path="url(#a)"/>
<path d="m496.58 703.24v162.22" clip-path="url(#a)"/>
<path d="m543.89 703.24v162.22" clip-path="url(#a)"/>
<path d="m78.303 703.24v162.22" clip-path="url(#a)"/>
<path d="m96.976 703.24-11.204 162.22" clip-path="url(#a)"/>
<path d="m96.976 703.24 11.204 162.22" clip-path="url(#a)"/>
<path d="m95.731 703.24v162.22" clip-path="url(#a)"/>
<path d="m123.12 703.24v162.22" clip-path="url(#a)"/>
<path d="m210.16 373.43-69.61 329.81" clip-path="url(#a)"/>
<path d="m210.16 373.43-26.454 329.81" clip-path="url(#a)"/>
<path d="m210.16 373.43 25.001 329.81" clip-path="url(#a)"/>
<path d="m210.16 373.43 71.062 165.34" clip-path="url(#a)"/>
<path d="m140.55 703.24v162.22" clip-path="url(#a)"/>
<path d="m183.7 703.24-23.238 162.22" clip-path="url(#a)"/>
<path d="m183.7 703.24-0.82992 162.22" clip-path="url(#a)"/>
<path d="m183.7 703.24 24.068 162.22" clip-path="url(#a)"/>
<path d="m235.16 703.24v162.22" clip-path="url(#a)"/>
<path d="m281.22 538.76-16.183 164.47" clip-path="url(#a)"/>
<path d="m281.22 538.76 16.183 164.47" clip-path="url(#a)"/>
<path d="m265.04 703.24v162.22" clip-path="url(#a)"/>
<path d="m297.4 703.24v162.22" clip-path="url(#a)"/>
<path d="m1100.1 41.212 70.47 166.32" clip-path="url(#a)"/>
<path d="m1100.1 41.212-155.41 662.03" clip-path="url(#a)"/>
<path d="m1100.1 41.212 84.938 166.32" clip-path="url(#a)"/>
<path d="m748.6 41.212-339.16 662.03" clip-path="url(#a)"/>
<path d="m748.6 41.212-82.854 332.22" clip-path="url(#a)"/>
<path d="m748.6 41.212 422.01 166.32" clip-path="url(#a)"/>
<path d="m553.69 41.212-432.84 166.32" clip-path="url(#a)"/>
<path d="m553.69 41.212-184.09 662.03" clip-path="url(#a)"/>
<path d="m553.69 41.212 616.92 166.32" clip-path="url(#a)"/>
<path d="m332.26 703.24v162.22" clip-path="url(#a)"/>
<path d="m700.74 703.24v162.22" clip-path="url(#a)"/>
<path d="m1153.9 703.24v162.22" clip-path="url(#a)"/>
<path d="m1639.4 703.24v162.22" clip-path="url(#a)"/>
</g>
<path d="m387.15 131.25 5.7447-1.7872q2.2917-0.71296 1.5787-3.0046l-2.3-7.393q-0.71296-2.2917-3.0046-1.5787l-5.7447 1.7872q-2.2917 0.71296-1.5787 3.0046l2.3 7.393q0.71296 2.2917 3.0046 1.5787z" clip-path="url(#a)" fill="#fff" stroke="#fff"/>
<g clip-path="url(#a)">
<defs>
<path id="ag" d="m9.8125 72.906h9.8594v-29.891h35.844v29.891h9.8594v-72.906h-9.8594v34.719h-35.844v-34.719h-9.8594z"/>
</defs>
<g transform="translate(385.94 127.37) rotate(-17.281) scale(.08 -.08)">
<use xlink:href="#ag"/>
</g>
</g>
<path d="m517.4 376.76 1.767-4.0923q0.95138-2.2034-1.252-3.1548l-7.1082-3.0692q-2.2034-0.95138-3.1548 1.252l-1.767 4.0923q-0.95138 2.2034 1.252 3.1548l7.1082 3.0692q2.2034 0.95138 3.1548-1.252z" clip-path="url(#a)" fill="#fff" stroke="#fff"/>
<g clip-path="url(#a)">
<defs>
<path id="q" d="m9.8125 72.906h9.8594v-64.609h35.5v-8.2969h-45.359z"/>
</defs>
<g transform="translate(513.67 375.15) rotate(-66.646) scale(.08 -.08)">
<use xlink:href="#q"/>
</g>
</g>
<path d="m537.55 376.5 1.5527-4.1783q0.836-2.2497-1.4137-3.0857l-7.2576-2.697q-2.2497-0.836-3.0857 1.4137l-1.5527 4.1783q-0.836 2.2497 1.4137 3.0857l7.2576 2.697q2.2497 0.836 3.0857-1.4137z" clip-path="url(#a)" fill="#fff" stroke="#fff"/>
<g clip-path="url(#a)">
<g transform="translate(533.74 375.08) rotate(-69.615) scale(.08 -.08)">
<use xlink:href="#q"/>
</g>
</g>
<path d="m654.24 204.51 0.18632 6.0134q0.074326 2.3988 2.4732 2.3245l7.7388-0.23978q2.3988-0.074325 2.3245-2.4732l-0.18632-6.0134q-0.074326-2.3988-2.4732-2.3245l-7.7388 0.23978q-2.3988 0.074325-2.3245 2.4732z" clip-path="url(#a)" fill="#fff" stroke="#fff"/>
<g clip-path="url(#a)">
<g transform="translate(658.3 204.38) rotate(88.225) scale(.08 -.08)">
<use xlink:href="#ag"/>
</g>
</g>
<path d="m908.25 129.41 5.7253 1.8484q2.2839 0.73736 3.0213-1.5466l2.3787-7.368q0.73736-2.2839-1.5466-3.0213l-5.7253-1.8484q-2.2839-0.73736-3.0213 1.5466l-2.3787 7.368q-0.73736 2.2839 1.5466 3.0213z" clip-path="url(#a)" fill="#fff" stroke="#fff"/>
<g clip-path="url(#a)">
<g transform="translate(909.5 125.55) rotate(17.892) scale(.08 -.08)">
<use xlink:href="#ag"/>
</g>
</g>
<path d="m793.46 372.69 1.7848 4.0846q0.96099 2.1992 3.1602 1.2382l7.0947-3.1002q2.1992-0.96099 1.2382-3.1602l-1.7848-4.0846q-0.96099-2.1992-3.1602-1.2382l-7.0947 3.1002q-2.1992 0.96098-1.2382 3.1602z" clip-path="url(#a)" fill="#fff" stroke="#fff"/>
<g clip-path="url(#a)">
<g transform="translate(797.18 371.07) rotate(66.396) scale(.08 -.08)">
<use xlink:href="#q"/>
</g>
</g>
<path d="m915.52 129.45 5.7399 1.8025q2.2898 0.71904 3.0088-1.5707l2.3197-7.3868q0.71904-2.2898-1.5707-3.0088l-5.7399-1.8025q-2.2898-0.71904-3.0088 1.5707l-2.3197 7.3868q-0.71904 2.2898 1.5707 3.0088z" clip-path="url(#a)" fill="#fff" stroke="#fff"/>
<g clip-path="url(#a)">
<g transform="translate(916.74 125.58) rotate(17.434) scale(.08 -.08)">
<use xlink:href="#ag"/>
</g>
</g>
<path d="m498.21 377.61 2.5686-5.2615q1.0529-2.1567-1.1038-3.2096l-6.9576-3.3967q-2.1567-1.0529-3.2096 1.1038l-2.5686 5.2615q-1.0529 2.1567 1.1038 3.2096l6.9576 3.3967q2.1567 1.0529 3.2096-1.1038z" clip-path="url(#a)" fill="#fff" stroke="#fff"/>
<g clip-path="url(#a)">
<defs>
<path id="af" d="m8.6875 72.906h9.9219v-44.297q0-11.719 4.2344-16.875 4.25-5.1406 13.781-5.1406 9.4688 0 13.719 5.1406 4.25 5.1562 4.25 16.875v44.297h9.9062v-45.516q0-14.25-7.0625-21.531-7.0469-7.2812-20.812-7.2812-13.828 0-20.891 7.2812-7.0469 7.2812-7.0469 21.531z"/>
</defs>
<g transform="translate(494.56 375.82) rotate(-63.979) scale(.08 -.08)">
<use xlink:href="#af"/>
</g>
</g>
<path d="m671.64 369.73 0.3996 5.8413q0.1638 2.3944 2.5582 2.2306l7.7244-0.52842q2.3944-0.1638 2.2306-2.5582l-0.3996-5.8413q-0.1638-2.3944-2.5582-2.2306l-7.7244 0.52842q-2.3944 0.1638-2.2306 2.5582z" clip-path="url(#a)" fill="#fff" stroke="#fff"/>
<g clip-path="url(#a)">
<g transform="translate(675.7 369.46) rotate(86.087) scale(.08 -.08)">
<use xlink:href="#af"/>
</g>
</g>
<path d="m105.59 458.65 0.46807-5.4524q0.20527-2.3912-2.1859-2.5965l-7.7141-0.66222q-2.3912-0.20527-2.5965 2.1859l-0.46807 5.4524q-0.20527 2.3912 2.1859 2.5965l7.7141 0.66222q2.3912 0.20527 2.5965-2.1859z" clip-path="url(#a)" fill="#fff" stroke="#fff"/>
<g clip-path="url(#a)">
<defs>
<path id="m" d="m34.188 63.188-13.391-36.281h26.812zm-5.5781 9.7188h11.188l27.781-72.906h-10.25l-6.6406 18.703h-32.859l-6.6406-18.703h-10.406z"/>
</defs>
<g transform="translate(101.55 458.3) rotate(-85.093) scale(.08 -.08)">
<use xlink:href="#m"/>
</g>
</g>
<path d="m115.03 458.76 0.29642-6.1529q0.11549-2.3972-2.2817-2.5127l-7.7335-0.37257q-2.3972-0.11549-2.5127 2.2817l-0.29642 6.1529q-0.11549 2.3972 2.2817 2.5127l7.7335 0.37257q2.3972 0.11549 2.5127-2.2817z" clip-path="url(#a)" fill="#fff" stroke="#fff"/>
<g clip-path="url(#a)">
<defs>
<path id="am" d="m19.672 64.797v-56.688h11.922q15.094 0 22.094 6.8281 7 6.8438 7 21.594 0 14.641-7 21.453t-22.094 6.8125zm-9.8594 8.1094h20.266q21.188 0 31.094-8.8125 9.9219-8.8125 9.9219-27.562 0-18.859-9.9688-27.703-9.9531-8.8281-31.047-8.8281h-20.266z"/>
</defs>
<g transform="translate(110.97 458.57) rotate(-87.242) scale(.08 -.08)">
<use xlink:href="#am"/>
</g>
</g>
<path d="m114.4 458.78 0.31183-6.1521q0.12149-2.3969-2.2754-2.5184l-7.7326-0.39194q-2.3969-0.12149-2.5184 2.2754l-0.31183 6.1521q-0.12149 2.3969 2.2754 2.5184l7.7326 0.39194q2.3969 0.12149 2.5184-2.2754z" clip-path="url(#a)" fill="#fff" stroke="#fff"/>
<g clip-path="url(#a)">
<g transform="translate(110.34 458.57) rotate(-87.098) scale(.08 -.08)">
<use xlink:href="#am"/>
</g>
</g>
<path d="m115.71 453 0.022007 4.8237q0.010949 2.4 2.4109 2.389l7.7424-0.035323q2.4-0.010949 2.389-2.4109l-0.022007-4.8237q-0.010949-2.4-2.4109-2.389l-7.7424 0.035323q-2.4 0.010949-2.389 2.4109z" clip-path="url(#a)" fill="#fff" stroke="#fff"/>
<g clip-path="url(#a)">
<defs>
<path id="v" d="m19.672 64.797v-27.391h12.406q6.8906 0 10.641 3.5625 3.7656 3.5625 3.7656 10.156 0 6.5469-3.7656 10.109-3.75 3.5625-10.641 3.5625zm-9.8594 8.1094h22.266q12.266 0 18.531-5.5469 6.2812-5.5469 6.2812-16.234 0-10.797-6.2812-16.312-6.2656-5.5156-18.531-5.5156h-12.406v-29.297h-9.8594z"/>
</defs>
<g transform="translate(119.77 452.98) rotate(89.739) scale(.08 -.08)">
<use xlink:href="#v"/>
</g>
</g>
<path d="m158.69 291.04 2.5938 4.8187q1.1375 2.1133 3.2508 0.97575l6.8176-3.6697q2.1133-1.1375 0.97576-3.2508l-2.5938-4.8187q-1.1375-2.1133-3.2508-0.97575l-6.8176 3.6697q-2.1133 1.1375-0.97576 3.2508z" clip-path="url(#a)" fill="#fff" stroke="#fff"/>
<g clip-path="url(#a)">
<g transform="translate(162.27 289.12) rotate(61.707) scale(.08 -.08)">
<use xlink:href="#m"/>
</g>
</g>
<path d="m363.33 767.44v33.808q0 2.4 2.4 2.4h7.7425q2.4 0 2.4-2.4v-33.808q0-2.4-2.4-2.4h-7.7425q-2.4 0-2.4 2.4z" clip-path="url(#a)" fill="#fff" stroke="#fff"/>
<g clip-path="url(#a)">
<defs>
<path id="l" d="m-0.29688 72.906h61.672v-8.3125h-25.875v-64.594h-9.9062v64.594h-25.891z"/>
<path id="d" d="m56.203 29.594v-4.3906h-41.312q0.59375-9.2812 5.5938-14.141t13.938-4.8594q5.1719 0 10.031 1.2656t9.6562 3.8125v-8.5q-4.8438-2.0469-9.9219-3.125t-10.297-1.0781q-13.094 0-20.734 7.6094-7.6406 7.625-7.6406 20.625 0 13.422 7.25 21.297 7.25 7.8906 19.562 7.8906 11.031 0 17.453-7.1094 6.4219-7.0938 6.4219-19.297zm-8.9844 2.6406q-0.09375 7.3594-4.125 11.75-4.0312 4.4062-10.672 4.4062-7.5156 0-12.031-4.25t-5.2031-11.969z"/>
<path id="g" d="m41.109 46.297q-1.5156 0.875-3.2969 1.2812-1.7812 0.42188-3.9219 0.42188-7.625 0-11.703-4.9531t-4.0781-14.234v-28.812h-9.0312v54.688h9.0312v-8.5q2.8438 4.9844 7.375 7.3906 4.5469 2.4219 11.047 2.4219 0.92188 0 2.0469-0.125 1.125-0.10938 2.4844-0.35938z"/>
<path id="j" d="m52 44.188q3.375 6.0625 8.0625 8.9375t11.031 2.875q8.5469 0 13.188-5.9844 4.6406-5.9688 4.6406-17v-33.016h-9.0312v32.719q0 7.8594-2.7969 11.656-2.7812 3.8125-8.4844 3.8125-6.9844 0-11.047-4.6406-4.0469-4.625-4.0469-12.641v-30.906h-9.0312v32.719q0 7.9062-2.7812 11.688t-8.5938 3.7812q-6.8906 0-10.953-4.6562-4.0469-4.6562-4.0469-12.625v-30.906h-9.0312v54.688h9.0312v-8.5q3.0781 5.0312 7.375 7.4219t10.203 2.3906q5.9688 0 10.141-3.0312 4.1719-3.0156 6.1719-8.7812z"/>
<path id="i" d="m9.4219 54.688h8.9844v-54.688h-8.9844zm0 21.297h8.9844v-11.391h-8.9844z"/>
<path id="h" d="m54.891 33.016v-33.016h-8.9844v32.719q0 7.7656-3.0312 11.609-3.0312 3.8594-9.0781 3.8594-7.2812 0-11.484-4.6406-4.2031-4.625-4.2031-12.641v-30.906h-9.0312v54.688h9.0312v-8.5q3.2344 4.9375 7.5938 7.375 4.375 2.4375 10.094 2.4375 9.4219 0 14.25-5.8281 4.8438-5.8281 4.8438-17.156z"/>
<path id="f" d="m34.281 27.484q-10.891 0-15.094-2.4844t-4.2031-8.5q0-4.7812 3.1562-7.5938 3.1562-2.7969 8.5625-2.7969 7.4844 0 12 5.2969t4.5156 14.078v2zm17.922 3.7188v-31.203h-8.9844v8.2969q-3.0781-4.9688-7.6719-7.3438t-11.234-2.375q-8.3906 0-13.359 4.7188-4.9531 4.7188-4.9531 12.625 0 9.2188 6.1719 13.906 6.1875 4.6875 18.438 4.6875h12.609v0.89062q0 6.2031-4.0781 9.5938t-11.453 3.3906q-4.6875 0-9.1406-1.125-4.4375-1.125-8.5312-3.375v8.3125q4.9219 1.9062 9.5625 2.8438 4.6406 0.95312 9.0312 0.95312 11.875 0 17.734-6.1562 5.8594-6.1406 5.8594-18.641z"/>
<path id="k" d="m9.4219 75.984h8.9844v-75.984h-8.9844z"/>
</defs>
<g transform="translate(367.4 767.44) rotate(90) scale(.08 -.08)">
<use xlink:href="#l"/>
<use x="44.083984" xlink:href="#d"/>
<use x="105.607422" xlink:href="#g"/>
<use x="144.970703" xlink:href="#j"/>
<use x="242.382812" xlink:href="#i"/>
<use x="270.166016" xlink:href="#h"/>
<use x="333.544922" xlink:href="#f"/>
<use x="394.824219" xlink:href="#k"/>
</g>
</g>
<path d="m403.17 767.44v33.808q0 2.4 2.4 2.4h7.7425q2.4 0 2.4-2.4v-33.808q0-2.4-2.4-2.4h-7.7425q-2.4 0-2.4 2.4z" clip-path="url(#a)" fill="#fff" stroke="#fff"/>
<g clip-path="url(#a)">
<g transform="translate(407.23 767.44) rotate(90) scale(.08 -.08)">
<use xlink:href="#l"/>
<use x="44.083984" xlink:href="#d"/>
<use x="105.607422" xlink:href="#g"/>
<use x="144.970703" xlink:href="#j"/>
<use x="242.382812" xlink:href="#i"/>
<use x="270.166016" xlink:href="#h"/>
<use x="333.544922" xlink:href="#f"/>
<use x="394.824219" xlink:href="#k"/>
</g>
</g>
<path d="m766.13 539.46 2.9813 4.5891q1.3075 2.0126 3.3201 0.70513l6.4927-4.2179q2.0126-1.3075 0.70513-3.3201l-2.9813-4.5891q-1.3075-2.0126-3.3201-0.70513l-6.4927 4.2179q-2.0126 1.3075-0.70513 3.3201z" clip-path="url(#a)" fill="#fff" stroke="#fff"/>
<g clip-path="url(#a)">
<g transform="translate(769.54 537.24) rotate(56.991) scale(.08 -.08)">
<use xlink:href="#m"/>
</g>
</g>
<path d="m584.23 462.28 3.486-3.4239q1.7122-1.6817 0.030512-3.394l-5.4253-5.5238q-1.6817-1.7122-3.394-0.030513l-3.486 3.4239q-1.7122 1.6817-0.030512 3.394l5.4253 5.5238q1.6817 1.7122 3.394 0.030512z" clip-path="url(#a)" fill="#fff" stroke="#fff"/>
<g clip-path="url(#a)">
<g transform="translate(581.38 459.38) rotate(-44.485) scale(.08 -.08)">
<use xlink:href="#l"/>
</g>
</g>
<path d="m648.18 460.1 1.2909-4.6478q0.64229-2.3125-1.6702-2.9547l-7.4601-2.0721q-2.3125-0.64229-2.9547 1.6702l-1.2909 4.6478q-0.64229 2.3125 1.6702 2.9547l7.4601 2.0721q2.3125 0.64229 2.9547-1.6702z" clip-path="url(#a)" fill="#fff" stroke="#fff"/>
<g clip-path="url(#a)">
<g transform="translate(644.27 459.01) rotate(-74.477) scale(.08 -.08)">
<use xlink:href="#v"/>
</g>
</g>
<path d="m1002.6 297.31 4.9089-2.4189q2.1528-1.0608 1.092-3.2137l-3.4223-6.9451q-1.0608-2.1528-3.2137-1.092l-4.9089 2.4189q-2.1528 1.0608-1.092 3.2136l3.4223 6.9451q1.0608 2.1528 3.2136 1.092z" clip-path="url(#a)" fill="#fff" stroke="#fff"/>
<g clip-path="url(#a)">
<g transform="translate(1000.8 293.67) rotate(-26.232) scale(.08 -.08)">
<use xlink:href="#m"/>
</g>
</g>
<path d="m1402.8 295.49 5.165 1.8087q2.2651 0.79321 3.0583-1.4719l2.5589-7.3074q0.79321-2.2651-1.4719-3.0583l-5.165-1.8087q-2.2651-0.79321-3.0583 1.4719l-2.5589 7.3074q-0.79321 2.2651 1.4719 3.0583z" clip-path="url(#a)" fill="#fff" stroke="#fff"/>
<g clip-path="url(#a)">
<g transform="translate(1404.2 291.66) rotate(19.299) scale(.08 -.08)">
<use xlink:href="#m"/>
</g>
</g>
<path d="m1193.1 453.72 0.56016 4.7911q0.2787 2.3838 2.6625 2.1051l7.6901-0.8991q2.3838-0.2787 2.1051-2.6625l-0.56016-4.7911q-0.2787-2.3838-2.6625-2.1051l-7.6901 0.8991q-2.3838 0.2787-2.1051 2.6625z" clip-path="url(#a)" fill="#fff" stroke="#fff"/>
<g clip-path="url(#a)">
<g transform="translate(1197.1 453.24) rotate(83.331) scale(.08 -.08)">
<use xlink:href="#v"/>
</g>
</g>
<path d="m1304.4 294.47 4.7025 2.7991q2.0623 1.2275 3.2899-0.83477l3.9601-6.6531q1.2275-2.0623-0.83477-3.2899l-4.7025-2.7991q-2.0623-1.2275-3.2899 0.83477l-3.9601 6.6531q-1.2275 2.0623 0.83477 3.2899z" clip-path="url(#a)" fill="#fff" stroke="#fff"/>
<g clip-path="url(#a)">
<g transform="translate(1306.5 290.98) rotate(30.762) scale(.08 -.08)">
<use xlink:href="#m"/>
</g>
</g>
<path d="m938.47 767.44v33.808q0 2.4 2.4 2.4h7.7425q2.4 0 2.4-2.4v-33.808q0-2.4-2.4-2.4h-7.7425q-2.4 0-2.4 2.4z" clip-path="url(#a)" fill="#fff" stroke="#fff"/>
<g clip-path="url(#a)">
<g transform="translate(942.53 767.44) rotate(90) scale(.08 -.08)">
<use xlink:href="#l"/>
<use x="44.083984" xlink:href="#d"/>
<use x="105.607422" xlink:href="#g"/>
<use x="144.970703" xlink:href="#j"/>
<use x="242.382812" xlink:href="#i"/>
<use x="270.166016" xlink:href="#h"/>
<use x="333.544922" xlink:href="#f"/>
<use x="394.824219" xlink:href="#k"/>
</g>
</g>
<path d="m1103.4 460.36 2.031-5.8155q0.79131-2.2658-1.4745-3.0571l-7.3096-2.5528q-2.2658-0.79131-3.0571 1.4745l-2.031 5.8155q-0.79131 2.2658 1.4745 3.0571l7.3096 2.5528q2.2658 0.79131 3.0571-1.4745z" clip-path="url(#a)" fill="#fff" stroke="#fff"/>
<g clip-path="url(#a)">
<g transform="translate(1099.6 459.02) rotate(-70.749) scale(.08 -.08)">
<use xlink:href="#am"/>
</g>
</g>
<path d="m1139 459.34 1.1175-5.3572q0.49011-2.3494-1.8593-2.8395l-7.5793-1.5811q-2.3494-0.49011-2.8395 1.8593l-1.1175 5.3572q-0.49011 2.3494 1.8593 2.8395l7.5793 1.5811q2.3494 0.49011 2.8395-1.8593z" clip-path="url(#a)" fill="#fff" stroke="#fff"/>
<g clip-path="url(#a)">
<g transform="translate(1135 458.51) rotate(-78.217) scale(.08 -.08)">
<use xlink:href="#m"/>
</g>
</g>
<path d="m1200.4 453.53 0.42156 4.8053q0.20974 2.3908 2.6006 2.1811l7.7129-0.67664q2.3908-0.20974 2.1811-2.6006l-0.42156-4.8053q-0.20974-2.3908-2.6006-2.1811l-7.7129 0.67664q-2.3908 0.20974-2.1811 2.6006z" clip-path="url(#a)" fill="#fff" stroke="#fff"/>
<g clip-path="url(#a)">
<g transform="translate(1204.4 453.17) rotate(84.986) scale(.08 -.08)">
<use xlink:href="#v"/>
</g>
</g>
<path d="m1311.6 294.34 4.6348 2.9098q2.0326 1.2761 3.3087-0.75651l4.1168-6.5573q1.2761-2.0326-0.75651-3.3087l-4.6348-2.9098q-2.0326-1.2761-3.3087 0.75651l-4.1168 6.5573q-1.2761 2.0326 0.75651 3.3087z" clip-path="url(#a)" fill="#fff" stroke="#fff"/>
<g clip-path="url(#a)">
<g transform="translate(1313.7 290.89) rotate(32.121) scale(.08 -.08)">
<use xlink:href="#m"/>
</g>
</g>
<path d="m1175.6 458.7 0.36785-5.8434q0.15078-2.3953-2.2445-2.546l-7.7272-0.48643q-2.3953-0.15078-2.546 2.2445l-0.36785 5.8434q-0.15078 2.3953 2.2445 2.546l7.7272 0.48643q2.3953 0.15078 2.546-2.2445z" clip-path="url(#a)" fill="#fff" stroke="#fff"/>
<g clip-path="url(#a)">
<g transform="translate(1171.5 458.44) rotate(-86.398) scale(.08 -.08)">
<use xlink:href="#af"/>
</g>
</g>
<path d="m1005.7 767.44v33.808q0 2.4 2.4 2.4h7.7425q2.4 0 2.4-2.4v-33.808q0-2.4-2.4-2.4h-7.7425q-2.4 0-2.4 2.4z" clip-path="url(#a)" fill="#fff" stroke="#fff"/>
<g clip-path="url(#a)">
<g transform="translate(1009.8 767.44) rotate(90) scale(.08 -.08)">
<use xlink:href="#l"/>
<use x="44.083984" xlink:href="#d"/>
<use x="105.607422" xlink:href="#g"/>
<use x="144.970703" xlink:href="#j"/>
<use x="242.382812" xlink:href="#i"/>
<use x="270.166016" xlink:href="#h"/>
<use x="333.544922" xlink:href="#f"/>
<use x="394.824219" xlink:href="#k"/>
</g>
</g>
<path d="m1075.4 767.44v33.808q0 2.4 2.4 2.4h7.7425q2.4 0 2.4-2.4v-33.808q0-2.4-2.4-2.4h-7.7425q-2.4 0-2.4 2.4z" clip-path="url(#a)" fill="#fff" stroke="#fff"/>
<g clip-path="url(#a)">
<g transform="translate(1079.5 767.44) rotate(90) scale(.08 -.08)">
<use xlink:href="#l"/>
<use x="44.083984" xlink:href="#d"/>
<use x="105.607422" xlink:href="#g"/>
<use x="144.970703" xlink:href="#j"/>
<use x="242.382812" xlink:href="#i"/>
<use x="270.166016" xlink:href="#h"/>
<use x="333.544922" xlink:href="#f"/>
<use x="394.824219" xlink:href="#k"/>
</g>
</g>
<path d="m816.28 460.21 1.3566-4.8696q0.64408-2.312-1.6679-2.956l-7.4585-2.0778q-2.312-0.64408-2.956 1.6679l-1.3566 4.8696q-0.64408 2.312 1.6679 2.956l7.4585 2.0778q2.312 0.64408 2.956-1.6679z" clip-path="url(#a)" fill="#fff" stroke="#fff"/>
<g clip-path="url(#a)">
<defs>
<path id="ab" d="m9.8125 72.906h46.094v-8.3125h-36.234v-21.578h34.719v-8.2969h-34.719v-26.422h37.109v-8.2969h-46.969z"/>
</defs>
<g transform="translate(812.36 459.12) rotate(-74.433) scale(.08 -.08)">
<use xlink:href="#ab"/>
</g>
</g>
<path d="m850.38 536.43 0.77267 5.5326q0.33196 2.3769 2.7089 2.045l7.6681-1.0709q2.3769-0.33196 2.045-2.7089l-0.77267-5.5326q-0.33196-2.3769-2.7089-2.045l-7.6681 1.0709q-2.3769 0.33196-2.045 2.7089z" clip-path="url(#a)" fill="#fff" stroke="#fff"/>
<g clip-path="url(#a)">
<defs>
<path id="s" d="m64.406 67.281v-10.391q-4.9844 4.6406-10.625 6.9219-5.6406 2.2969-11.984 2.2969-12.5 0-19.141-7.6406t-6.6406-22.094q0-14.406 6.6406-22.047t19.141-7.6406q6.3438 0 11.984 2.2969t10.625 6.9375v-10.312q-5.1719-3.5156-10.969-5.2812-5.7812-1.75-12.219-1.75-16.562 0-26.094 10.125-9.5156 10.141-9.5156 27.672 0 17.578 9.5156 27.703 9.5312 10.141 26.094 10.141 6.5312 0 12.312-1.7344 5.7969-1.7344 10.875-5.2031z"/>
</defs>
<g transform="translate(854.4 535.87) rotate(82.05) scale(.08 -.08)">
<use xlink:href="#s"/>
</g>
</g>
<path d="m1222.3 767.44v33.808q0 2.4 2.4 2.4h7.7425q2.4 0 2.4-2.4v-33.808q0-2.4-2.4-2.4h-7.7425q-2.4 0-2.4 2.4z" clip-path="url(#a)" fill="#fff" stroke="#fff"/>
<g clip-path="url(#a)">
<g transform="translate(1226.4 767.44) rotate(90) scale(.08 -.08)">
<use xlink:href="#l"/>
<use x="44.083984" xlink:href="#d"/>
<use x="105.607422" xlink:href="#g"/>
<use x="144.970703" xlink:href="#j"/>
<use x="242.382812" xlink:href="#i"/>
<use x="270.166016" xlink:href="#h"/>
<use x="333.544922" xlink:href="#f"/>
<use x="394.824219" xlink:href="#k"/>
</g>
</g>
<path d="m1540.7 459.11 4.1744 3.5388q1.8307 1.552 3.3826-0.27874l5.0067-5.9059q1.552-1.8307-0.27874-3.3826l-4.1744-3.5388q-1.8307-1.552-3.3826 0.27874l-5.0067 5.9059q-1.552 1.8307 0.27874 3.3826z" clip-path="url(#a)" fill="#fff" stroke="#fff"/>
<g clip-path="url(#a)">
<g transform="translate(1543.3 456.01) rotate(40.289) scale(.08 -.08)">
<use xlink:href="#m"/>
</g>
</g>
<path d="m1401.5 461.5 2.597-4.139q1.2756-2.033-0.75738-3.3085l-6.5584-4.1151q-2.033-1.2756-3.3085 0.75738l-2.597 4.139q-1.2756 2.033 0.75738 3.3085l6.5584 4.1151q2.033 1.2756 3.3085-0.75738z" clip-path="url(#a)" fill="#fff" stroke="#fff"/>
<g clip-path="url(#a)">
<g transform="translate(1398 459.34) rotate(-57.894) scale(.08 -.08)">
<use xlink:href="#l"/>
</g>
</g>
<path d="m1494.6 457.39 2.5638 4.086q1.2756 2.033 3.3085 0.75738l6.5584-4.1151q2.033-1.2756 0.75738-3.3085l-2.5638-4.086q-1.2756-2.033-3.3085-0.75738l-6.5584 4.1151q-2.033 1.2756-0.75738 3.3085z" clip-path="url(#a)" fill="#fff" stroke="#fff"/>
<g clip-path="url(#a)">
<g transform="translate(1498.1 455.23) rotate(57.894) scale(.08 -.08)">
<use xlink:href="#v"/>
</g>
</g>
<path d="m1331.2 624.93 1.1899-4.9129q0.56496-2.3326-1.7676-2.8975l-7.5249-1.8226q-2.3326-0.56496-2.8975 1.7676l-1.1899 4.9129q-0.56496 2.3326 1.7676 2.8975l7.5249 1.8226q2.3326 0.56496 2.8975-1.7676z" clip-path="url(#a)" fill="#fff" stroke="#fff"/>
<g clip-path="url(#a)">
<g transform="translate(1327.2 623.98) rotate(-76.385) scale(.08 -.08)">
<use xlink:href="#ab"/>
</g>
</g>
<path d="m1358.8 619.76 1.315 5.4293q0.56496 2.3326 2.8975 1.7676l7.5249-1.8226q2.3326-0.56496 1.7676-2.8975l-1.315-5.4293q-0.56496-2.3326-2.8975-1.7676l-7.5249 1.8226q-2.3326 0.56496-1.7676 2.8975z" clip-path="url(#a)" fill="#fff" stroke="#fff"/>
<g clip-path="url(#a)">
<g transform="translate(1362.7 618.81) rotate(76.385) scale(.08 -.08)">
<use xlink:href="#s"/>
</g>
</g>
<path d="m1514.6 626.36 2.5635-4.9324q1.1068-2.1296-1.0228-3.2364l-6.87-3.5706q-2.1296-1.1068-3.2364 1.0228l-2.5635 4.9324q-1.1068 2.1296 1.0228 3.2364l6.87 3.5706q2.1296 1.1068 3.2364-1.0228z" clip-path="url(#a)" fill="#fff" stroke="#fff"/>
<g clip-path="url(#a)">
<defs>
<path id="z" d="m44.391 34.188q3.1719-1.0781 6.1719-4.5938t6.0312-9.6719l10.016-19.922h-10.609l-9.3125 18.703q-3.625 7.3281-7.0156 9.7188t-9.25 2.3906h-10.75v-30.812h-9.8594v72.906h22.266q12.5 0 18.656-5.2344 6.1562-5.2188 6.1562-15.766 0-6.8906-3.2031-11.438-3.2031-4.5312-9.2969-6.2812zm-24.719 30.609v-25.875h12.406q7.125 0 10.766 3.2969t3.6406 9.6875-3.6406 9.6406-10.766 3.25z"/>
</defs>
<g transform="translate(1511 624.49) rotate(-62.538) scale(.08 -.08)">
<use xlink:href="#z"/>
</g>
</g>
<path d="m1558.9 623.83 0.028188-5.5862q0.01211-2.4-2.3879-2.4121l-7.7424-0.039067q-2.4-0.01211-2.4121 2.3879l-0.028187 5.5862q-0.01211 2.4 2.3879 2.4121l7.7424 0.039068q2.4 0.01211 2.4121-2.3879z" clip-path="url(#a)" fill="#fff" stroke="#fff"/>
<g clip-path="url(#a)">
<g transform="translate(1554.9 623.81) rotate(-89.711) scale(.08 -.08)">
<use xlink:href="#s"/>
</g>
</g>
<path d="m1589.3 621.32 2.7207 5.1845q1.1152 2.1252 3.2404 1.0099l6.8558-3.5978q2.1252-1.1152 1.0099-3.2404l-2.7207-5.1845q-1.1152-2.1252-3.2404-1.0099l-6.8558 3.5978q-2.1252 1.1152-1.0099 3.2404z" clip-path="url(#a)" fill="#fff" stroke="#fff"/>
<g clip-path="url(#a)">
<g transform="translate(1592.9 619.43) rotate(62.311) scale(.08 -.08)">
<use xlink:href="#af"/>
</g>
</g>
<path d="m1461.3 767.44v33.808q0 2.4 2.4 2.4h7.7425q2.4 0 2.4-2.4v-33.808q0-2.4-2.4-2.4h-7.7425q-2.4 0-2.4 2.4z" clip-path="url(#a)" fill="#fff" stroke="#fff"/>
<g clip-path="url(#a)">
<g transform="translate(1465.4 767.44) rotate(90) scale(.08 -.08)">
<use xlink:href="#l"/>
<use x="44.083984" xlink:href="#d"/>
<use x="105.607422" xlink:href="#g"/>
<use x="144.970703" xlink:href="#j"/>
<use x="242.382812" xlink:href="#i"/>
<use x="270.166016" xlink:href="#h"/>
<use x="333.544922" xlink:href="#f"/>
<use x="394.824219" xlink:href="#k"/>
</g>
</g>
<path d="m1546 767.44v33.808q0 2.4 2.4 2.4h7.7425q2.4 0 2.4-2.4v-33.808q0-2.4-2.4-2.4h-7.7425q-2.4 0-2.4 2.4z" clip-path="url(#a)" fill="#fff" stroke="#fff"/>
<g clip-path="url(#a)">
<g transform="translate(1550 767.44) rotate(90) scale(.08 -.08)">
<use xlink:href="#l"/>
<use x="44.083984" xlink:href="#d"/>
<use x="105.607422" xlink:href="#g"/>
<use x="144.970703" xlink:href="#j"/>
<use x="242.382812" xlink:href="#i"/>
<use x="270.166016" xlink:href="#h"/>
<use x="333.544922" xlink:href="#f"/>
<use x="394.824219" xlink:href="#k"/>
</g>
</g>
<path d="m1299.5 767.44v33.808q0 2.4 2.4 2.4h7.7425q2.4 0 2.4-2.4v-33.808q0-2.4-2.4-2.4h-7.7425q-2.4 0-2.4 2.4z" clip-path="url(#a)" fill="#fff" stroke="#fff"/>
<g clip-path="url(#a)">
<g transform="translate(1303.5 767.44) rotate(90) scale(.08 -.08)">
<use xlink:href="#l"/>
<use x="44.083984" xlink:href="#d"/>
<use x="105.607422" xlink:href="#g"/>
<use x="144.970703" xlink:href="#j"/>
<use x="242.382812" xlink:href="#i"/>
<use x="270.166016" xlink:href="#h"/>
<use x="333.544922" xlink:href="#f"/>
<use x="394.824219" xlink:href="#k"/>
</g>
</g>
<path d="m1379.2 767.44v33.808q0 2.4 2.4 2.4h7.7425q2.4 0 2.4-2.4v-33.808q0-2.4-2.4-2.4h-7.7425q-2.4 0-2.4 2.4z" clip-path="url(#a)" fill="#fff" stroke="#fff"/>
<g clip-path="url(#a)">
<g transform="translate(1383.2 767.44) rotate(90) scale(.08 -.08)">
<use xlink:href="#l"/>
<use x="44.083984" xlink:href="#d"/>
<use x="105.607422" xlink:href="#g"/>
<use x="144.970703" xlink:href="#j"/>
<use x="242.382812" xlink:href="#i"/>
<use x="270.166016" xlink:href="#h"/>
<use x="333.544922" xlink:href="#f"/>
<use x="394.824219" xlink:href="#k"/>
</g>
</g>
<path d="m778.67 624.61 0.90347-4.9736q0.42895-2.3614-1.9324-2.7903l-7.6178-1.3838q-2.3614-0.42895-2.7903 1.9324l-0.90347 4.9736q-0.42895 2.3614 1.9324 2.7903l7.6178 1.3838q2.3614 0.42895 2.7903-1.9324z" clip-path="url(#a)" fill="#fff" stroke="#fff"/>
<g clip-path="url(#a)">
<g transform="translate(774.67 623.88) rotate(-79.704) scale(.08 -.08)">
<use xlink:href="#ab"/>
</g>
</g>
<path d="m796.15 619.37 0.99842 5.4963q0.42895 2.3614 2.7903 1.9324l7.6178-1.3838q2.3614-0.42895 1.9324-2.7903l-0.99842-5.4963q-0.42895-2.3614-2.7903-1.9324l-7.6178 1.3838q-2.3614 0.42895-1.9324 2.7903z" clip-path="url(#a)" fill="#fff" stroke="#fff"/>
<g clip-path="url(#a)">
<g transform="translate(800.15 618.65) rotate(79.704) scale(.08 -.08)">
<use xlink:href="#s"/>
</g>
</g>
<path d="m873.74 767.44v33.808q0 2.4 2.4 2.4h7.7425q2.4 0 2.4-2.4v-33.808q0-2.4-2.4-2.4h-7.7425q-2.4 0-2.4 2.4z" clip-path="url(#a)" fill="#fff" stroke="#fff"/>
<g clip-path="url(#a)">
<g transform="translate(877.8 767.44) rotate(90) scale(.08 -.08)">
<use xlink:href="#l"/>
<use x="44.083984" xlink:href="#d"/>
<use x="105.607422" xlink:href="#g"/>
<use x="144.970703" xlink:href="#j"/>
<use x="242.382812" xlink:href="#i"/>
<use x="270.166016" xlink:href="#h"/>
<use x="333.544922" xlink:href="#f"/>
<use x="394.824219" xlink:href="#k"/>
</g>
</g>
<path d="m751.74 767.44v33.808q0 2.4 2.4 2.4h7.7425q2.4 0 2.4-2.4v-33.808q0-2.4-2.4-2.4h-7.7425q-2.4 0-2.4 2.4z" clip-path="url(#a)" fill="#fff" stroke="#fff"/>
<g clip-path="url(#a)">
<g transform="translate(755.8 767.44) rotate(90) scale(.08 -.08)">
<use xlink:href="#l"/>
<use x="44.083984" xlink:href="#d"/>
<use x="105.607422" xlink:href="#g"/>
<use x="144.970703" xlink:href="#j"/>
<use x="242.382812" xlink:href="#i"/>
<use x="270.166016" xlink:href="#h"/>
<use x="333.544922" xlink:href="#f"/>
<use x="394.824219" xlink:href="#k"/>
</g>
</g>
<path d="m811.49 767.44v33.808q0 2.4 2.4 2.4h7.7425q2.4 0 2.4-2.4v-33.808q0-2.4-2.4-2.4h-7.7425q-2.4 0-2.4 2.4z" clip-path="url(#a)" fill="#fff" stroke="#fff"/>
<g clip-path="url(#a)">
<g transform="translate(815.55 767.44) rotate(90) scale(.08 -.08)">
<use xlink:href="#l"/>
<use x="44.083984" xlink:href="#d"/>
<use x="105.607422" xlink:href="#g"/>
<use x="144.970703" xlink:href="#j"/>
<use x="242.382812" xlink:href="#i"/>
<use x="270.166016" xlink:href="#h"/>
<use x="333.544922" xlink:href="#f"/>
<use x="394.824219" xlink:href="#k"/>
</g>
</g>
<path d="m479.96 625.11 1.3518-4.8709q0.64181-2.3126-1.6708-2.9544l-7.4605-2.0705q-2.3126-0.64181-2.9544 1.6708l-1.3518 4.8709q-0.64181 2.3126 1.6708 2.9544l7.4605 2.0705q2.3126 0.64181 2.9544-1.6708z" clip-path="url(#a)" fill="#fff" stroke="#fff"/>
<g clip-path="url(#a)">
<g transform="translate(476.04 624.03) rotate(-74.489) scale(.08 -.08)">
<use xlink:href="#ab"/>
</g>
</g>
<path d="m503.26 623.56 0.025507-5.0549q0.01211-2.4-2.3879-2.4121l-7.7424-0.039068q-2.4-0.01211-2.4121 2.3879l-0.025507 5.0549q-0.01211 2.4 2.3879 2.4121l7.7424 0.039067q2.4 0.012111 2.4121-2.3879z" clip-path="url(#a)" fill="#fff" stroke="#fff"/>
<g clip-path="url(#a)">
<g transform="translate(499.19 623.54) rotate(-89.711) scale(.08 -.08)">
<use xlink:href="#ab"/>
</g>
</g>
<path d="m513.86 620.02 1.519 5.3758q0.65262 2.3096 2.9622 1.6569l7.4508-2.1054q2.3096-0.65262 1.6569-2.9622l-1.519-5.3758q-0.65262-2.3096-2.9622-1.6569l-7.4508 2.1054q-2.3096 0.65262-1.6569 2.9622z" clip-path="url(#a)" fill="#fff" stroke="#fff"/>
<g clip-path="url(#a)">
<g transform="translate(517.77 618.91) rotate(74.221) scale(.08 -.08)">
<use xlink:href="#s"/>
</g>
</g>
<path d="m612.59 624.26 0.72229-4.5442q0.37674-2.3702-1.9935-2.747l-7.6465-1.2154q-2.3702-0.37674-2.747 1.9935l-0.72229 4.5442q-0.37674 2.3702 1.9935 2.747l7.6465 1.2154q2.3702 0.37674 2.747-1.9935z" clip-path="url(#a)" fill="#fff" stroke="#fff"/>
<g clip-path="url(#a)">
<defs>
<path id="al" d="m9.8125 72.906h41.891v-8.3125h-32.031v-21.484h28.906v-8.2969h-28.906v-34.812h-9.8594z"/>
</defs>
<g transform="translate(608.57 623.62) rotate(-80.969) scale(.08 -.08)">
<use xlink:href="#al"/>
</g>
</g>
<path d="m626.27 619.23 0.87691 5.517q0.37674 2.3702 2.747 1.9935l7.6465-1.2154q2.3702-0.37674 1.9935-2.747l-0.87691-5.517q-0.37674-2.3702-2.747-1.9935l-7.6465 1.2154q-2.3702 0.37674-1.9935 2.747z" clip-path="url(#a)" fill="#fff" stroke="#fff"/>
<g clip-path="url(#a)">
<g transform="translate(630.28 618.59) rotate(80.969) scale(.08 -.08)">
<use xlink:href="#s"/>
</g>
</g>
<path d="m587.41 767.44v33.808q0 2.4 2.4 2.4h7.7425q2.4 0 2.4-2.4v-33.808q0-2.4-2.4-2.4h-7.7425q-2.4 0-2.4 2.4z" clip-path="url(#a)" fill="#fff" stroke="#fff"/>
<g clip-path="url(#a)">
<g transform="translate(591.48 767.44) rotate(90) scale(.08 -.08)">
<use xlink:href="#l"/>
<use x="44.083984" xlink:href="#d"/>
<use x="105.607422" xlink:href="#g"/>
<use x="144.970703" xlink:href="#j"/>
<use x="242.382812" xlink:href="#i"/>
<use x="270.166016" xlink:href="#h"/>
<use x="333.544922" xlink:href="#f"/>
<use x="394.824219" xlink:href="#k"/>
</g>
</g>
<path d="m639.7 767.44v33.808q0 2.4 2.4 2.4h7.7425q2.4 0 2.4-2.4v-33.808q0-2.4-2.4-2.4h-7.7425q-2.4 0-2.4 2.4z" clip-path="url(#a)" fill="#fff" stroke="#fff"/>
<g clip-path="url(#a)">
<g transform="translate(643.76 767.44) rotate(90) scale(.08 -.08)">
<use xlink:href="#l"/>
<use x="44.083984" xlink:href="#d"/>
<use x="105.607422" xlink:href="#g"/>
<use x="144.970703" xlink:href="#j"/>
<use x="242.382812" xlink:href="#i"/>
<use x="270.166016" xlink:href="#h"/>
<use x="333.544922" xlink:href="#f"/>
<use x="394.824219" xlink:href="#k"/>
</g>
</g>
<path d="m445.5 767.44v33.808q0 2.4 2.4 2.4h7.7425q2.4 0 2.4-2.4v-33.808q0-2.4-2.4-2.4h-7.7425q-2.4 0-2.4 2.4z" clip-path="url(#a)" fill="#fff" stroke="#fff"/>
<g clip-path="url(#a)">
<g transform="translate(449.56 767.44) rotate(90) scale(.08 -.08)">
<use xlink:href="#l"/>
<use x="44.083984" xlink:href="#d"/>
<use x="105.607422" xlink:href="#g"/>
<use x="144.970703" xlink:href="#j"/>
<use x="242.382812" xlink:href="#i"/>
<use x="270.166016" xlink:href="#h"/>
<use x="333.544922" xlink:href="#f"/>
<use x="394.824219" xlink:href="#k"/>
</g>
</g>
<path d="m490.31 767.44v33.808q0 2.4 2.4 2.4h7.7425q2.4 0 2.4-2.4v-33.808q0-2.4-2.4-2.4h-7.7425q-2.4 0-2.4 2.4z" clip-path="url(#a)" fill="#fff" stroke="#fff"/>
<g clip-path="url(#a)">
<g transform="translate(494.38 767.44) rotate(90) scale(.08 -.08)">
<use xlink:href="#l"/>
<use x="44.083984" xlink:href="#d"/>
<use x="105.607422" xlink:href="#g"/>
<use x="144.970703" xlink:href="#j"/>
<use x="242.382812" xlink:href="#i"/>
<use x="270.166016" xlink:href="#h"/>
<use x="333.544922" xlink:href="#f"/>
<use x="394.824219" xlink:href="#k"/>
</g>
</g>
<path d="m537.62 767.44v33.808q0 2.4 2.4 2.4h7.7425q2.4 0 2.4-2.4v-33.808q0-2.4-2.4-2.4h-7.7425q-2.4 0-2.4 2.4z" clip-path="url(#a)" fill="#fff" stroke="#fff"/>
<g clip-path="url(#a)">
<g transform="translate(541.68 767.44) rotate(90) scale(.08 -.08)">
<use xlink:href="#l"/>
<use x="44.083984" xlink:href="#d"/>
<use x="105.607422" xlink:href="#g"/>
<use x="144.970703" xlink:href="#j"/>
<use x="242.382812" xlink:href="#i"/>
<use x="270.166016" xlink:href="#h"/>
<use x="333.544922" xlink:href="#f"/>
<use x="394.824219" xlink:href="#k"/>
</g>
</g>
<path d="m72.032 767.44v33.808q0 2.4 2.4 2.4h7.7425q2.4 0 2.4-2.4v-33.808q0-2.4-2.4-2.4h-7.7425q-2.4 0-2.4 2.4z" clip-path="url(#a)" fill="#fff" stroke="#fff"/>
<g clip-path="url(#a)">
<g transform="translate(76.096 767.44) rotate(90) scale(.08 -.08)">
<use xlink:href="#l"/>
<use x="44.083984" xlink:href="#d"/>
<use x="105.607422" xlink:href="#g"/>
<use x="144.970703" xlink:href="#j"/>
<use x="242.382812" xlink:href="#i"/>
<use x="270.166016" xlink:href="#h"/>
<use x="333.544922" xlink:href="#f"/>
<use x="394.824219" xlink:href="#k"/>
</g>
</g>
<path d="m96.466 801.64 2.3295-33.727q0.16537-2.3943-2.2289-2.5597l-7.7241-0.53349q-2.3943-0.16537-2.5597 2.2289l-2.3295 33.727q-0.16537 2.3943 2.2289 2.5597l7.7241 0.53349q2.3943 0.16537 2.5597-2.2289z" clip-path="url(#a)" fill="#fff" stroke="#fff"/>
<g clip-path="url(#a)">
<g transform="translate(92.412 801.36) rotate(-86.049) scale(.08 -.08)">
<use xlink:href="#l"/>
<use x="44.083984" xlink:href="#d"/>
<use x="105.607422" xlink:href="#g"/>
<use x="144.970703" xlink:href="#j"/>
<use x="242.382812" xlink:href="#i"/>
<use x="270.166016" xlink:href="#h"/>
<use x="333.544922" xlink:href="#f"/>
<use x="394.824219" xlink:href="#k"/>
</g>
</g>
<path d="m95.157 767.91 2.3295 33.727q0.16537 2.3943 2.5597 2.2289l7.7241-0.53349q2.3943-0.16537 2.2289-2.5597l-2.3295-33.727q-0.16537-2.3943-2.5597-2.2289l-7.7241 0.53349q-2.3943 0.16537-2.2289 2.5597z" clip-path="url(#a)" fill="#fff" stroke="#fff"/>
<g clip-path="url(#a)">
<g transform="translate(99.211 767.63) rotate(86.049) scale(.08 -.08)">
<use xlink:href="#l"/>
<use x="44.083984" xlink:href="#d"/>
<use x="105.607422" xlink:href="#g"/>
<use x="144.970703" xlink:href="#j"/>
<use x="242.382812" xlink:href="#i"/>
<use x="270.166016" xlink:href="#h"/>
<use x="333.544922" xlink:href="#f"/>
<use x="394.824219" xlink:href="#k"/>
</g>
</g>
<path d="m89.46 767.44v33.808q0 2.4 2.4 2.4h7.7425q2.4 0 2.4-2.4v-33.808q0-2.4-2.4-2.4h-7.7425q-2.4 0-2.4 2.4z" clip-path="url(#a)" fill="#fff" stroke="#fff"/>
<g clip-path="url(#a)">
<g transform="translate(93.524 767.44) rotate(90) scale(.08 -.08)">
<use xlink:href="#l"/>
<use x="44.083984" xlink:href="#d"/>
<use x="105.607422" xlink:href="#g"/>
<use x="144.970703" xlink:href="#j"/>
<use x="242.382812" xlink:href="#i"/>
<use x="270.166016" xlink:href="#h"/>
<use x="333.544922" xlink:href="#f"/>
<use x="394.824219" xlink:href="#k"/>
</g>
</g>
<path d="m116.85 767.44v33.808q0 2.4 2.4 2.4h7.7425q2.4 0 2.4-2.4v-33.808q0-2.4-2.4-2.4h-7.7425q-2.4 0-2.4 2.4z" clip-path="url(#a)" fill="#fff" stroke="#fff"/>
<g clip-path="url(#a)">
<g transform="translate(120.91 767.44) rotate(90) scale(.08 -.08)">
<use xlink:href="#l"/>
<use x="44.083984" xlink:href="#d"/>
<use x="105.607422" xlink:href="#g"/>
<use x="144.970703" xlink:href="#j"/>
<use x="242.382812" xlink:href="#i"/>
<use x="270.166016" xlink:href="#h"/>
<use x="333.544922" xlink:href="#f"/>
<use x="394.824219" xlink:href="#k"/>
</g>
</g>
<path d="m180.91 542.35 1.1479-5.4389q0.49563-2.3483-1.8526-2.8439l-7.5756-1.5989q-2.3483-0.49562-2.8439 1.8526l-1.1479 5.4389q-0.49562 2.3483 1.8526 2.8439l7.5756 1.5989q2.3483 0.49563 2.8439-1.8526z" clip-path="url(#a)" fill="#fff" stroke="#fff"/>
<g clip-path="url(#a)">
<g transform="translate(176.94 541.51) rotate(-78.082) scale(.08 -.08)">
<use xlink:href="#z"/>
</g>
</g>
<path d="m203 541.13 0.36788-4.5865q0.19189-2.3923-2.2004-2.5842l-7.7177-0.61903q-2.3923-0.19189-2.5842 2.2004l-0.36788 4.5865q-0.19189 2.3923 2.2004 2.5842l7.7177 0.61903q2.3923 0.19189 2.5842-2.2004z" clip-path="url(#a)" fill="#fff" stroke="#fff"/>
<g clip-path="url(#a)">
<g transform="translate(198.95 540.8) rotate(-85.414) scale(.08 -.08)">
<use xlink:href="#al"/>
</g>
</g>
<path d="m216.22 536.4 0.36462 4.81q0.18141 2.3931 2.5745 2.2117l7.7204-0.58525q2.3931-0.18141 2.2117-2.5745l-0.36462-4.81q-0.18141-2.3931-2.5745-2.2117l-7.7203 0.58525q-2.3931 0.18141-2.2117 2.5745z" clip-path="url(#a)" fill="#fff" stroke="#fff"/>
<g clip-path="url(#a)">
<g transform="translate(220.27 536.1) rotate(85.665) scale(.08 -.08)">
<use xlink:href="#v"/>
</g>
</g>
<path d="m238.85 456.06 2.161 5.0278q0.9477 2.205 3.1527 1.2573l7.1133-3.0573q2.205-0.9477 1.2573-3.1527l-2.161-5.0278q-0.9477-2.205-3.1527-1.2573l-7.1133 3.0573q-2.205 0.9477-1.2573 3.1527z" clip-path="url(#a)" fill="#fff" stroke="#fff"/>
<g clip-path="url(#a)">
<g transform="translate(242.58 454.45) rotate(66.742) scale(.08 -.08)">
<use xlink:href="#m"/>
</g>
</g>
<path d="m134.28 767.44v33.808q0 2.4 2.4 2.4h7.7425q2.4 0 2.4-2.4v-33.808q0-2.4-2.4-2.4h-7.7425q-2.4 0-2.4 2.4z" clip-path="url(#a)" fill="#fff" stroke="#fff"/>
<g clip-path="url(#a)">
<g transform="translate(138.34 767.44) rotate(90) scale(.08 -.08)">
<use xlink:href="#l"/>
<use x="44.083984" xlink:href="#d"/>
<use x="105.607422" xlink:href="#g"/>
<use x="144.970703" xlink:href="#j"/>
<use x="242.382812" xlink:href="#i"/>
<use x="270.166016" xlink:href="#h"/>
<use x="333.544922" xlink:href="#f"/>
<use x="394.824219" xlink:href="#k"/>
</g>
</g>
<path d="m175.89 801.97 4.794-33.466q0.34033-2.3757-2.0354-2.7161l-7.6643-1.0979q-2.3757-0.34033-2.7161 2.0354l-4.794 33.466q-0.34033 2.3757 2.0354 2.7161l7.6643 1.0979q2.3757 0.34033 2.7161-2.0354z" clip-path="url(#a)" fill="#fff" stroke="#fff"/>
<g clip-path="url(#a)">
<g transform="translate(171.87 801.39) rotate(-81.848) scale(.08 -.08)">
<use xlink:href="#l"/>
<use x="44.083984" xlink:href="#d"/>
<use x="105.607422" xlink:href="#g"/>
<use x="144.970703" xlink:href="#j"/>
<use x="242.382812" xlink:href="#i"/>
<use x="270.166016" xlink:href="#h"/>
<use x="333.544922" xlink:href="#f"/>
<use x="394.824219" xlink:href="#k"/>
</g>
</g>
<path d="m189.47 801.28 0.17296-33.807q0.012278-2.4-2.3877-2.4122l-7.7424-0.039611q-2.4-0.012279-2.4122 2.3877l-0.17296 33.807q-0.012279 2.4 2.3877 2.4122l7.7424 0.039611q2.4 0.012278 2.4122-2.3877z" clip-path="url(#a)" fill="#fff" stroke="#fff"/>
<g clip-path="url(#a)">
<g transform="translate(185.41 801.26) rotate(-89.707) scale(.08 -.08)">
<use xlink:href="#l"/>
<use x="44.083984" xlink:href="#d"/>
<use x="105.607422" xlink:href="#g"/>
<use x="144.970703" xlink:href="#j"/>
<use x="242.382812" xlink:href="#i"/>
<use x="270.166016" xlink:href="#h"/>
<use x="333.544922" xlink:href="#f"/>
<use x="394.824219" xlink:href="#k"/>
</g>
</g>
<path d="m187.05 768.55 4.9616 33.441q0.35223 2.374 2.7262 2.0218l7.6587-1.1363q2.374-0.35223 2.0218-2.7262l-4.9616-33.441q-0.35223-2.374-2.7262-2.0218l-7.6587 1.1363q-2.374 0.35223-2.0218 2.7262z" clip-path="url(#a)" fill="#fff" stroke="#fff"/>
<g clip-path="url(#a)">
<g transform="translate(191.07 767.95) rotate(81.561) scale(.08 -.08)">
<use xlink:href="#l"/>
<use x="44.083984" xlink:href="#d"/>
<use x="105.607422" xlink:href="#g"/>
<use x="144.970703" xlink:href="#j"/>
<use x="242.382812" xlink:href="#i"/>
<use x="270.166016" xlink:href="#h"/>
<use x="333.544922" xlink:href="#f"/>
<use x="394.824219" xlink:href="#k"/>
</g>
</g>
<path d="m228.89 767.44v33.808q0 2.4 2.4 2.4h7.7425q2.4 0 2.4-2.4v-33.808q0-2.4-2.4-2.4h-7.7425q-2.4 0-2.4 2.4z" clip-path="url(#a)" fill="#fff" stroke="#fff"/>
<g clip-path="url(#a)">
<g transform="translate(232.95 767.44) rotate(90) scale(.08 -.08)">
<use xlink:href="#l"/>
<use x="44.083984" xlink:href="#d"/>
<use x="105.607422" xlink:href="#g"/>
<use x="144.970703" xlink:href="#j"/>
<use x="242.382812" xlink:href="#i"/>
<use x="270.166016" xlink:href="#h"/>
<use x="333.544922" xlink:href="#f"/>
<use x="394.824219" xlink:href="#k"/>
</g>
</g>
<path d="m279.1 624.38 0.54433-5.532q0.23502-2.3885-2.1535-2.6235l-7.7053-0.75817q-2.3885-0.23502-2.6235 2.1535l-0.54433 5.532q-0.23501 2.3885 2.1535 2.6235l7.7053 0.75817q2.3885 0.23502 2.6235-2.1535z" clip-path="url(#a)" fill="#fff" stroke="#fff"/>
<g clip-path="url(#a)">
<g transform="translate(275.05 623.98) rotate(-84.38) scale(.08 -.08)">
<use xlink:href="#z"/>
</g>
</g>
<path d="m282.8 618.84 0.54702 5.5594q0.23501 2.3885 2.6235 2.1535l7.7053-0.75817q2.3885-0.23502 2.1534-2.6235l-0.54702-5.5594q-0.23502-2.3885-2.6235-2.1535l-7.7053 0.75817q-2.3885 0.23502-2.1535 2.6235z" clip-path="url(#a)" fill="#fff" stroke="#fff"/>
<g clip-path="url(#a)">
<g transform="translate(286.84 618.44) rotate(84.38) scale(.08 -.08)">
<use xlink:href="#s"/>
</g>
</g>
<path d="m258.76 767.44v33.808q0 2.4 2.4 2.4h7.7425q2.4 0 2.4-2.4v-33.808q0-2.4-2.4-2.4h-7.7425q-2.4 0-2.4 2.4z" clip-path="url(#a)" fill="#fff" stroke="#fff"/>
<g clip-path="url(#a)">
<g transform="translate(262.83 767.44) rotate(90) scale(.08 -.08)">
<use xlink:href="#l"/>
<use x="44.083984" xlink:href="#d"/>
<use x="105.607422" xlink:href="#g"/>
<use x="144.970703" xlink:href="#j"/>
<use x="242.382812" xlink:href="#i"/>
<use x="270.166016" xlink:href="#h"/>
<use x="333.544922" xlink:href="#f"/>
<use x="394.824219" xlink:href="#k"/>
</g>
</g>
<path d="m291.13 767.44v33.808q0 2.4 2.4 2.4h7.7425q2.4 0 2.4-2.4v-33.808q0-2.4-2.4-2.4h-7.7425q-2.4 0-2.4 2.4z" clip-path="url(#a)" fill="#fff" stroke="#fff"/>
<g clip-path="url(#a)">
<g transform="translate(295.19 767.44) rotate(90) scale(.08 -.08)">
<use xlink:href="#l"/>
<use x="44.083984" xlink:href="#d"/>
<use x="105.607422" xlink:href="#g"/>
<use x="144.970703" xlink:href="#j"/>
<use x="242.382812" xlink:href="#i"/>
<use x="270.166016" xlink:href="#h"/>
<use x="333.544922" xlink:href="#f"/>
<use x="394.824219" xlink:href="#k"/>
</g>
</g>
<path d="m1127.6 122.16 3.9442 9.3089q0.93631 2.2098 3.1461 1.2735l7.129-3.0206q2.2098-0.93631 1.2735-3.1461l-3.9442-9.3089q-0.93631-2.2098-3.1461-1.2735l-7.129 3.0206q-2.2098 0.93631-1.2735 3.1461z" clip-path="url(#a)" fill="#fff" stroke="#fff"/>
<g clip-path="url(#a)">
<g transform="translate(1131.4 120.58) rotate(67.037) scale(.08 -.08)">
<use xlink:href="#q"/>
<use x="57.962891" xlink:href="#m"/>
</g>
</g>
<path d="m1027.4 378.53 2.289-9.7512q0.54848-2.3365-1.788-2.885l-7.5376-1.7694q-2.3365-0.54848-2.885 1.788l-2.289 9.7512q-0.54848 2.3365 1.788 2.885l7.5376 1.7694q2.3365 0.54848 2.885-1.788z" clip-path="url(#a)" fill="#fff" stroke="#fff"/>
<g clip-path="url(#a)">
<g transform="translate(1023.4 377.61) rotate(-76.789) scale(.08 -.08)">
<use xlink:href="#q"/>
<use x="55.712891" xlink:href="#z"/>
</g>
</g>
<path d="m1134.7 122.72 4.5982 9.0038q1.0916 2.1374 3.229 1.0458l6.8954-3.5214q2.1374-1.0916 1.0458-3.229l-4.5982-9.0038q-1.0916-2.1374-3.229-1.0458l-6.8954 3.5214q-2.1374 1.0916-1.0458 3.229z" clip-path="url(#a)" fill="#fff" stroke="#fff"/>
<g clip-path="url(#a)">
<g transform="translate(1138.4 120.87) rotate(62.947) scale(.08 -.08)">
<use xlink:href="#q"/>
<use x="57.962891" xlink:href="#m"/>
</g>
</g>
<path d="m582.32 379.54 4.567-8.9145q1.0943-2.136-1.0417-3.2303l-6.8908-3.5302q-2.136-1.0943-3.2303 1.0417l-4.567 8.9145q-1.0943 2.136 1.0417 3.2303l6.8908 3.5302q2.136 1.0943 3.2303-1.0417z" clip-path="url(#a)" fill="#fff" stroke="#fff"/>
<g clip-path="url(#a)">
<g transform="translate(578.7 377.69) rotate(-62.874) scale(.08 -.08)">
<use xlink:href="#q"/>
<use x="55.712891" xlink:href="#z"/>
</g>
</g>
<path d="m712.04 213.74 2.4465-9.8095q0.58076-2.3287-1.7479-2.9094l-7.5124-1.8736q-2.3287-0.58076-2.9094 1.7479l-2.4465 9.8095q-0.58076 2.3287 1.7479 2.9094l7.5124 1.8736q2.3287 0.58076 2.9094-1.7479z" clip-path="url(#a)" fill="#fff" stroke="#fff"/>
<g clip-path="url(#a)">
<g transform="translate(708.09 212.76) rotate(-75.996) scale(.08 -.08)">
<use xlink:href="#q"/>
<use x="57.962891" xlink:href="#m"/>
</g>
</g>
<path d="m952.61 128.35 9.4059 3.7069q2.2329 0.87998 3.1128-1.3529l2.8388-7.2033q0.87998-2.2329-1.3529-3.1128l-9.4059-3.7069q-2.2329-0.87998-3.1128 1.3529l-2.8389 7.2033q-0.87998 2.2329 1.3529 3.1128z" clip-path="url(#a)" fill="#fff" stroke="#fff"/>
<g clip-path="url(#a)">
<g transform="translate(954.1 124.57) rotate(21.51) scale(.08 -.08)">
<use xlink:href="#q"/>
<use x="57.962891" xlink:href="#m"/>
</g>
</g>
<path d="m334.81 132.04 9.4373-3.6263q2.2403-0.86084 1.3795-3.1011l-2.7771-7.2273q-0.86084-2.2403-3.1011-1.3795l-9.4373 3.6263q-2.2403 0.86084-1.3795 3.1011l2.7771 7.2273q0.86084 2.2403 3.1011 1.3795z" clip-path="url(#a)" fill="#fff" stroke="#fff"/>
<g clip-path="url(#a)">
<g transform="translate(333.35 128.24) rotate(-21.019) scale(.08 -.08)">
<use xlink:href="#q"/>
<use x="57.962891" xlink:href="#m"/>
</g>
</g>
<path d="m466.35 378.73 2.6834-9.6501q0.64297-2.3123-1.6693-2.9552l-7.4595-2.0742q-2.3123-0.64297-2.9552 1.6693l-2.6834 9.6501q-0.64297 2.3123 1.6693 2.9552l7.4595 2.0742q2.3123 0.64297 2.9552-1.6693z" clip-path="url(#a)" fill="#fff" stroke="#fff"/>
<g clip-path="url(#a)">
<g transform="translate(462.43 377.64) rotate(-74.46) scale(.08 -.08)">
<use xlink:href="#q"/>
<use x="55.712891" xlink:href="#z"/>
</g>
</g>
<path d="m855.64 129.11 9.7615 2.6316q2.3173 0.62472 2.942-1.6925l2.0154-7.4756q0.62472-2.3173-1.6925-2.942l-9.7615-2.6316q-2.3173-0.62472-2.942 1.6925l-2.0154 7.4756q-0.62472 2.3173 1.6925 2.942z" clip-path="url(#a)" fill="#fff" stroke="#fff"/>
<g clip-path="url(#a)">
<g transform="translate(856.7 125.19) rotate(15.088) scale(.08 -.08)">
<use xlink:href="#q"/>
<use x="57.962891" xlink:href="#m"/>
</g>
</g>
<path d="m325.99 767.44v33.808q0 2.4 2.4 2.4h7.7425q2.4 0 2.4-2.4v-33.808q0-2.4-2.4-2.4h-7.7425q-2.4 0-2.4 2.4z" clip-path="url(#a)" fill="#fff" stroke="#fff"/>
<g clip-path="url(#a)">
<g transform="translate(330.05 767.44) rotate(90) scale(.08 -.08)">
<use xlink:href="#l"/>
<use x="44.083984" xlink:href="#d"/>
<use x="105.607422" xlink:href="#g"/>
<use x="144.970703" xlink:href="#j"/>
<use x="242.382812" xlink:href="#i"/>
<use x="270.166016" xlink:href="#h"/>
<use x="333.544922" xlink:href="#f"/>
<use x="394.824219" xlink:href="#k"/>
</g>
</g>
<path d="m694.47 767.44v33.808q0 2.4 2.4 2.4h7.7425q2.4 0 2.4-2.4v-33.808q0-2.4-2.4-2.4h-7.7425q-2.4 0-2.4 2.4z" clip-path="url(#a)" fill="#fff" stroke="#fff"/>
<g clip-path="url(#a)">
<g transform="translate(698.54 767.44) rotate(90) scale(.08 -.08)">
<use xlink:href="#l"/>
<use x="44.083984" xlink:href="#d"/>
<use x="105.607422" xlink:href="#g"/>
<use x="144.970703" xlink:href="#j"/>
<use x="242.382812" xlink:href="#i"/>
<use x="270.166016" xlink:href="#h"/>
<use x="333.544922" xlink:href="#f"/>
<use x="394.824219" xlink:href="#k"/>
</g>
</g>
<path d="m1147.6 767.44v33.808q0 2.4 2.4 2.4h7.7425q2.4 0 2.4-2.4v-33.808q0-2.4-2.4-2.4h-7.7425q-2.4 0-2.4 2.4z" clip-path="url(#a)" fill="#fff" stroke="#fff"/>
<g clip-path="url(#a)">
<g transform="translate(1151.7 767.44) rotate(90) scale(.08 -.08)">
<use xlink:href="#l"/>
<use x="44.083984" xlink:href="#d"/>
<use x="105.607422" xlink:href="#g"/>
<use x="144.970703" xlink:href="#j"/>
<use x="242.382812" xlink:href="#i"/>
<use x="270.166016" xlink:href="#h"/>
<use x="333.544922" xlink:href="#f"/>
<use x="394.824219" xlink:href="#k"/>
</g>
</g>
<path d="m1633.1 767.44v33.808q0 2.4 2.4 2.4h7.7425q2.4 0 2.4-2.4v-33.808q0-2.4-2.4-2.4h-7.7425q-2.4 0-2.4 2.4z" clip-path="url(#a)" fill="#fff" stroke="#fff"/>
<g clip-path="url(#a)">
<g transform="translate(1637.2 767.44) rotate(90) scale(.08 -.08)">
<use xlink:href="#l"/>
<use x="44.083984" xlink:href="#d"/>
<use x="105.607422" xlink:href="#g"/>
<use x="144.970703" xlink:href="#j"/>
<use x="242.382812" xlink:href="#i"/>
<use x="270.166016" xlink:href="#h"/>
<use x="333.544922" xlink:href="#f"/>
<use x="394.824219" xlink:href="#k"/>
</g>
</g>
<defs>
<path id="b" d="m0 8.6603c2.2967 0 4.4997-0.9125 6.1237-2.5365 1.624-1.624 2.5365-3.827 2.5365-6.1237s-0.9125-4.4997-2.5365-6.1237c-1.624-1.624-3.827-2.5365-6.1237-2.5365s-4.4997 0.9125-6.1237 2.5365c-1.624 1.624-2.5365 3.827-2.5365 6.1237s0.9125 4.4997 2.5365 6.1237c1.624 1.624 3.827 2.5365 6.1237 2.5365z"/>
</defs>
<g clip-path="url(#a)">
<use x="78.30303" y="865.454545" fill="#ffffff" stroke="#ffffff" xlink:href="#b"/>
</g>
<g clip-path="url(#a)">
<use x="85.772318" y="865.454545" fill="#ffffff" stroke="#ffffff" xlink:href="#b"/>
</g>
<g clip-path="url(#a)">
<use x="95.731368" y="865.454545" fill="#ffffff" stroke="#ffffff" xlink:href="#b"/>
</g>
<g clip-path="url(#a)">
<use x="108.18018" y="865.454545" fill="#ffffff" stroke="#ffffff" xlink:href="#b"/>
</g>
<g clip-path="url(#a)">
<use x="123.118755" y="865.454545" fill="#ffffff" stroke="#ffffff" xlink:href="#b"/>
</g>
<g clip-path="url(#a)">
<use x="140.547093" y="865.454545" fill="#ffffff" stroke="#ffffff" xlink:href="#b"/>
</g>
<g clip-path="url(#a)">
<use x="160.465192" y="865.454545" fill="#ffffff" stroke="#ffffff" xlink:href="#b"/>
</g>
<g clip-path="url(#a)">
<use x="182.873055" y="865.454545" fill="#ffffff" stroke="#ffffff" xlink:href="#b"/>
</g>
<g clip-path="url(#a)">
<use x="207.77068" y="865.454545" fill="#ffffff" stroke="#ffffff" xlink:href="#b"/>
</g>
<g clip-path="url(#a)">
<use x="235.158067" y="865.454545" fill="#ffffff" stroke="#ffffff" xlink:href="#b"/>
</g>
<g clip-path="url(#a)">
<use x="265.035217" y="865.454545" fill="#ffffff" stroke="#ffffff" xlink:href="#b"/>
</g>
<g clip-path="url(#a)">
<use x="297.402129" y="865.454545" fill="#ffffff" stroke="#ffffff" xlink:href="#b"/>
</g>
<g clip-path="url(#a)">
<use x="332.258804" y="865.454545" fill="#ffffff" stroke="#ffffff" xlink:href="#b"/>
</g>
<g clip-path="url(#a)">
<use x="369.605242" y="865.454545" fill="#ffffff" stroke="#ffffff" xlink:href="#b"/>
</g>
<g clip-path="url(#a)">
<use x="409.441441" y="865.454545" fill="#ffffff" stroke="#ffffff" xlink:href="#b"/>
</g>
<g clip-path="url(#a)">
<use x="451.767404" y="865.454545" fill="#ffffff" stroke="#ffffff" xlink:href="#b"/>
</g>
<g clip-path="url(#a)">
<use x="496.583129" y="865.454545" fill="#ffffff" stroke="#ffffff" xlink:href="#b"/>
</g>
<g clip-path="url(#a)">
<use x="543.888616" y="865.454545" fill="#ffffff" stroke="#ffffff" xlink:href="#b"/>
</g>
<g clip-path="url(#a)">
<use x="593.683866" y="865.454545" fill="#ffffff" stroke="#ffffff" xlink:href="#b"/>
</g>
<g clip-path="url(#a)">
<use x="645.968878" y="865.454545" fill="#ffffff" stroke="#ffffff" xlink:href="#b"/>
</g>
<g clip-path="url(#a)">
<use x="700.743653" y="865.454545" fill="#ffffff" stroke="#ffffff" xlink:href="#b"/>
</g>
<g clip-path="url(#a)">
<use x="758.00819" y="865.454545" fill="#ffffff" stroke="#ffffff" xlink:href="#b"/>
</g>
<g clip-path="url(#a)">
<use x="817.76249" y="865.454545" fill="#ffffff" stroke="#ffffff" xlink:href="#b"/>
</g>
<g clip-path="url(#a)">
<use x="880.006552" y="865.454545" fill="#ffffff" stroke="#ffffff" xlink:href="#b"/>
</g>
<g clip-path="url(#a)">
<use x="944.740377" y="865.454545" fill="#ffffff" stroke="#ffffff" xlink:href="#b"/>
</g>
<g clip-path="url(#a)">
<use x="1011.963964" y="865.454545" fill="#ffffff" stroke="#ffffff" xlink:href="#b"/>
</g>
<g clip-path="url(#a)">
<use x="1081.677314" y="865.454545" fill="#ffffff" stroke="#ffffff" xlink:href="#b"/>
</g>
<g clip-path="url(#a)">
<use x="1153.880426" y="865.454545" fill="#ffffff" stroke="#ffffff" xlink:href="#b"/>
</g>
<g clip-path="url(#a)">
<use x="1228.573301" y="865.454545" fill="#ffffff" stroke="#ffffff" xlink:href="#b"/>
</g>
<g clip-path="url(#a)">
<use x="1305.755938" y="865.454545" fill="#ffffff" stroke="#ffffff" xlink:href="#b"/>
</g>
<g clip-path="url(#a)">
<use x="1385.428337" y="865.454545" fill="#ffffff" stroke="#ffffff" xlink:href="#b"/>
</g>
<g clip-path="url(#a)">
<use x="1467.5905" y="865.454545" fill="#ffffff" stroke="#ffffff" xlink:href="#b"/>
</g>
<g clip-path="url(#a)">
<use x="1552.242424" y="865.454545" fill="#ffffff" stroke="#ffffff" xlink:href="#b"/>
</g>
<g clip-path="url(#a)">
<use x="1639.384111" y="865.454545" fill="#ffffff" stroke="#ffffff" xlink:href="#b"/>
</g>
<g clip-path="url(#a)">
<use x="1644.363636" y="373.428914" fill="#ffffff" stroke="#ffffff" xlink:href="#b"/>
</g>
<g clip-path="url(#a)">
<use x="1644.363636" y="538.76476" fill="#ffffff" stroke="#ffffff" xlink:href="#b"/>
</g>
<g clip-path="url(#a)">
<use x="655.455334" y="41.212121" fill="#ffffff" stroke="#ffffff" xlink:href="#b"/>
</g>
<g clip-path="url(#a)">
<use x="120.857221" y="207.530361" fill="#ffffff" stroke="#ffffff" xlink:href="#b"/>
</g>
<g clip-path="url(#a)">
<use x="369.605242" y="703.237958" fill="#ffffff" stroke="#ffffff" xlink:href="#b"/>
</g>
<g clip-path="url(#a)">
<use x="409.441441" y="703.237958" fill="#ffffff" stroke="#ffffff" xlink:href="#b"/>
</g>
<g clip-path="url(#a)">
<use x="665.748658" y="373.428914" fill="#ffffff" stroke="#ffffff" xlink:href="#b"/>
</g>
<g clip-path="url(#a)">
<use x="1170.617163" y="207.530361" fill="#ffffff" stroke="#ffffff" xlink:href="#b"/>
</g>
<g clip-path="url(#a)">
<use x="944.740377" y="703.237958" fill="#ffffff" stroke="#ffffff" xlink:href="#b"/>
</g>
<g clip-path="url(#a)">
<use x="1185.085449" y="207.530361" fill="#ffffff" stroke="#ffffff" xlink:href="#b"/>
</g>
<g clip-path="url(#a)">
<use x="1011.963964" y="703.237958" fill="#ffffff" stroke="#ffffff" xlink:href="#b"/>
</g>
<g clip-path="url(#a)">
<use x="1081.677314" y="703.237958" fill="#ffffff" stroke="#ffffff" xlink:href="#b"/>
</g>
<g clip-path="url(#a)">
<use x="833.945946" y="373.428914" fill="#ffffff" stroke="#ffffff" xlink:href="#b"/>
</g>
<g clip-path="url(#a)">
<use x="1228.573301" y="703.237958" fill="#ffffff" stroke="#ffffff" xlink:href="#b"/>
</g>
<g clip-path="url(#a)">
<use x="1449.332241" y="373.428914" fill="#ffffff" stroke="#ffffff" xlink:href="#b"/>
</g>
<g clip-path="url(#a)">
<use x="1345.592138" y="538.76476" fill="#ffffff" stroke="#ffffff" xlink:href="#b"/>
</g>
<g clip-path="url(#a)">
<use x="1553.072345" y="538.76476" fill="#ffffff" stroke="#ffffff" xlink:href="#b"/>
</g>
<g clip-path="url(#a)">
<use x="1467.5905" y="703.237958" fill="#ffffff" stroke="#ffffff" xlink:href="#b"/>
</g>
<g clip-path="url(#a)">
<use x="1552.242424" y="703.237958" fill="#ffffff" stroke="#ffffff" xlink:href="#b"/>
</g>
<g clip-path="url(#a)">
<use x="1305.755938" y="703.237958" fill="#ffffff" stroke="#ffffff" xlink:href="#b"/>
</g>
<g clip-path="url(#a)">
<use x="1385.428337" y="703.237958" fill="#ffffff" stroke="#ffffff" xlink:href="#b"/>
</g>
<g clip-path="url(#a)">
<use x="787.88534" y="538.76476" fill="#ffffff" stroke="#ffffff" xlink:href="#b"/>
</g>
<g clip-path="url(#a)">
<use x="880.006552" y="703.237958" fill="#ffffff" stroke="#ffffff" xlink:href="#b"/>
</g>
<g clip-path="url(#a)">
<use x="758.00819" y="703.237958" fill="#ffffff" stroke="#ffffff" xlink:href="#b"/>
</g>
<g clip-path="url(#a)">
<use x="817.76249" y="703.237958" fill="#ffffff" stroke="#ffffff" xlink:href="#b"/>
</g>
<g clip-path="url(#a)">
<use x="497.413049" y="538.76476" fill="#ffffff" stroke="#ffffff" xlink:href="#b"/>
</g>
<g clip-path="url(#a)">
<use x="619.826372" y="538.76476" fill="#ffffff" stroke="#ffffff" xlink:href="#b"/>
</g>
<g clip-path="url(#a)">
<use x="593.683866" y="703.237958" fill="#ffffff" stroke="#ffffff" xlink:href="#b"/>
</g>
<g clip-path="url(#a)">
<use x="645.968878" y="703.237958" fill="#ffffff" stroke="#ffffff" xlink:href="#b"/>
</g>
<g clip-path="url(#a)">
<use x="451.767404" y="703.237958" fill="#ffffff" stroke="#ffffff" xlink:href="#b"/>
</g>
<g clip-path="url(#a)">
<use x="496.583129" y="703.237958" fill="#ffffff" stroke="#ffffff" xlink:href="#b"/>
</g>
<g clip-path="url(#a)">
<use x="543.888616" y="703.237958" fill="#ffffff" stroke="#ffffff" xlink:href="#b"/>
</g>
<g clip-path="url(#a)">
<use x="78.30303" y="703.237958" fill="#ffffff" stroke="#ffffff" xlink:href="#b"/>
</g>
<g clip-path="url(#a)">
<use x="96.976249" y="703.237958" fill="#ffffff" stroke="#ffffff" xlink:href="#b"/>
</g>
<g clip-path="url(#a)">
<use x="95.731368" y="703.237958" fill="#ffffff" stroke="#ffffff" xlink:href="#b"/>
</g>
<g clip-path="url(#a)">
<use x="123.118755" y="703.237958" fill="#ffffff" stroke="#ffffff" xlink:href="#b"/>
</g>
<g clip-path="url(#a)">
<use x="210.156702" y="373.428914" fill="#ffffff" stroke="#ffffff" xlink:href="#b"/>
</g>
<g clip-path="url(#a)">
<use x="140.547093" y="703.237958" fill="#ffffff" stroke="#ffffff" xlink:href="#b"/>
</g>
<g clip-path="url(#a)">
<use x="183.702976" y="703.237958" fill="#ffffff" stroke="#ffffff" xlink:href="#b"/>
</g>
<g clip-path="url(#a)">
<use x="235.158067" y="703.237958" fill="#ffffff" stroke="#ffffff" xlink:href="#b"/>
</g>
<g clip-path="url(#a)">
<use x="281.218673" y="538.76476" fill="#ffffff" stroke="#ffffff" xlink:href="#b"/>
</g>
<g clip-path="url(#a)">
<use x="265.035217" y="703.237958" fill="#ffffff" stroke="#ffffff" xlink:href="#b"/>
</g>
<g clip-path="url(#a)">
<use x="297.402129" y="703.237958" fill="#ffffff" stroke="#ffffff" xlink:href="#b"/>
</g>
<g clip-path="url(#a)">
<use x="1100.147663" y="41.212121" fill="#808080" stroke="#808080" xlink:href="#b"/>
</g>
<g clip-path="url(#a)">
<use x="748.602421" y="41.212121" fill="#808080" stroke="#808080" xlink:href="#b"/>
</g>
<g clip-path="url(#a)">
<use x="553.693208" y="41.212121" fill="#808080" stroke="#808080" xlink:href="#b"/>
</g>
<g clip-path="url(#a)">
<use x="332.258804" y="703.237958" fill="#ffffff" stroke="#ffffff" xlink:href="#b"/>
</g>
<g clip-path="url(#a)">
<use x="700.743653" y="703.237958" fill="#ffffff" stroke="#ffffff" xlink:href="#b"/>
</g>
<g clip-path="url(#a)">
<use x="1153.880426" y="703.237958" fill="#ffffff" stroke="#ffffff" xlink:href="#b"/>
</g>
<g clip-path="url(#a)">
<use x="1639.384111" y="703.237958" fill="#ffffff" stroke="#ffffff" xlink:href="#b"/>
</g>
<g clip-path="url(#a)">
<defs>
<path id="at" d="m9.8125 72.906h9.8594v-67.828q0-13.188-5-19.141t-16.094-5.9531h-3.75v8.2969h3.0781q6.5312 0 9.2188 3.6719 2.6875 3.6562 2.6875 13.125z"/>
</defs>
<g transform="translate(73.751 868.21) scale(.1 -.1)">
<use xlink:href="#at"/>
<use x="29.492188" xlink:href="#d"/>
</g>
</g>
<g clip-path="url(#a)">
<g transform="translate(79.527 868.21) scale(.1 -.1)">
<use xlink:href="#h"/>
<use x="63.378906" xlink:href="#d"/>
</g>
</g>
<g clip-path="url(#a)">
<defs>
<path id="as" d="m2.9844 54.688h9.5156l17.094-45.891 17.094 45.891h9.5156l-20.516-54.688h-12.203z"/>
<path id="y" d="m8.5 21.578v33.109h8.9844v-32.766q0-7.7656 3.0156-11.656 3.0312-3.875 9.0938-3.875 7.2656 0 11.484 4.6406 4.2344 4.6406 4.2344 12.656v31h8.9844v-54.688h-8.9844v8.4062q-3.2656-4.9844-7.5938-7.4062-4.3125-2.4219-10.031-2.4219-9.4219 0-14.312 5.8594-4.875 5.8594-4.875 17.141z"/>
<path id="ax" d="m54.891 54.688-19.781-26.609 20.797-28.078h-10.594l-15.922 21.484-15.906-21.484h-10.609l21.25 28.609-19.438 26.078h10.594l14.5-19.484 14.5 19.484z"/>
</defs>
<g transform="translate(83.567 868.21) scale(.1 -.1)">
<use xlink:href="#as"/>
<use x="59.179688" xlink:href="#d"/>
<use x="120.703125" xlink:href="#y"/>
<use x="184.082031" xlink:href="#ax"/>
</g>
</g>
<g clip-path="url(#a)">
<defs>
<path id="aj" d="m18.109 8.2031v-29h-9.0312v75.484h9.0312v-8.2969q2.8438 4.875 7.1562 7.2344 4.3281 2.375 10.328 2.375 9.9688 0 16.188-7.9062 6.2344-7.9062 6.2344-20.797t-6.2344-20.812q-6.2188-7.9062-16.188-7.9062-6 0-10.328 2.375-4.3125 2.375-7.1562 7.25zm30.578 19.094q0 9.9062-4.0781 15.547t-11.203 5.6406q-7.1406 0-11.219-5.6406t-4.0781-15.547 4.0781-15.547 11.219-5.6406q7.125 0 11.203 5.6406t4.0781 15.547z"/>
<path id="w" d="m44.281 53.078v-8.5q-3.7969 1.9531-7.9062 2.9219-4.0938 0.98438-8.5 0.98438-6.6875 0-10.031-2.0469t-3.3438-6.1562q0-3.125 2.3906-4.9062t9.625-3.3906l3.0781-0.6875q9.5625-2.0469 13.594-5.7812t4.0312-10.422q0-7.625-6.0312-12.078-6.0312-4.4375-16.578-4.4375-4.3906 0-9.1562 0.85938t-10.031 2.5625v9.2812q4.9844-2.5938 9.8125-3.8906 4.8281-1.2812 9.5781-1.2812 6.3438 0 9.75 2.1719 3.4219 2.1719 3.4219 6.125 0 3.6562-2.4688 5.6094-2.4531 1.9531-10.812 3.7656l-3.125 0.73438q-8.3438 1.75-12.062 5.3906-3.7031 3.6406-3.7031 9.9844 0 7.7188 5.4688 11.906 5.4688 4.2031 15.531 4.2031 4.9688 0 9.3594-0.73438 4.4062-0.71875 8.1094-2.1875z"/>
</defs>
<g transform="translate(99.337 868.21) scale(.1 -.1)">
<use xlink:href="#aj"/>
<use x="63.476562" xlink:href="#f"/>
<use x="124.755859" xlink:href="#w"/>
</g>
</g>
<g clip-path="url(#a)">
<defs>
<path id="x" d="m45.406 46.391v29.594h8.9844v-75.984h-8.9844v8.2031q-2.8281-4.875-7.1562-7.25-4.3125-2.375-10.375-2.375-9.9062 0-16.141 7.9062-6.2188 7.9219-6.2188 20.812t6.2188 20.797q6.2344 7.9062 16.141 7.9062 6.0625 0 10.375-2.375 4.3281-2.3594 7.1562-7.2344zm-30.609-19.094q0-9.9062 4.0781-15.547t11.203-5.6406 11.219 5.6406q4.1094 5.6406 4.1094 15.547t-4.1094 15.547q-4.0938 5.6406-11.219 5.6406t-11.203-5.6406-4.0781-15.547z"/>
</defs>
<g transform="translate(113.54 868.21) scale(.1 -.1)">
<use xlink:href="#x"/>
<use x="63.476562" xlink:href="#i"/>
<use x="91.259766" xlink:href="#g"/>
<use x="130.123047" xlink:href="#d"/>
</g>
</g>
<g clip-path="url(#a)">
<defs>
<path id="ay" d="m14.797 27.297q0-9.9062 4.0781-15.547t11.203-5.6406 11.219 5.6406q4.1094 5.6406 4.1094 15.547t-4.1094 15.547q-4.0938 5.6406-11.219 5.6406t-11.203-5.6406-4.0781-15.547zm30.609-19.094q-2.8281-4.875-7.1562-7.25-4.3125-2.375-10.375-2.375-9.9062 0-16.141 7.9062-6.2188 7.9219-6.2188 20.812t6.2188 20.797q6.2344 7.9062 16.141 7.9062 6.0625 0 10.375-2.375 4.3281-2.3594 7.1562-7.2344v8.2969h8.9844v-75.484h-8.9844z"/>
<path id="aq" d="m17.922 72.906v-27.109h-8.2969v27.109z"/>
</defs>
<g transform="translate(132.83 868.21) scale(.1 -.1)">
<use xlink:href="#ay"/>
<use x="63.476562" xlink:href="#y"/>
<use x="126.855469" xlink:href="#aq"/>
</g>
</g>
<g clip-path="url(#a)">
<g transform="translate(157.69 868.21) scale(.1 -.1)">
<use xlink:href="#i"/>
<use x="27.783203" xlink:href="#k"/>
</g>
</g>
<g clip-path="url(#a)">
<defs>
<path id="aw" d="m32.172-5.0781q-3.7969-9.7656-7.4219-12.734-3.6094-2.9844-9.6562-2.9844h-7.1875v7.5156h5.2812q3.7031 0 5.75 1.7656 2.0625 1.75 4.5469 8.2969l1.6094 4.0938-22.109 53.812h9.5156l17.094-42.766 17.094 42.766h9.5156z"/>
</defs>
<g transform="translate(179.91 868.21) scale(.1 -.1)">
<use xlink:href="#aw"/>
</g>
</g>
<g clip-path="url(#a)">
<defs>
<path id="u" d="m18.312 70.219v-15.531h18.5v-6.9844h-18.5v-29.688q0-6.6875 1.8281-8.5938t7.4531-1.9062h9.2188v-7.5156h-9.2188q-10.406 0-14.359 3.875-3.9531 3.8906-3.9531 14.141v29.688h-6.5938v6.9844h6.5938v15.531z"/>
</defs>
<g transform="translate(199.57 868.21) scale(.1 -.1)">
<use xlink:href="#d"/>
<use x="61.523438" xlink:href="#y"/>
<use x="124.902344" xlink:href="#u"/>
</g>
</g>
<g clip-path="url(#a)">
<defs>
<path id="ar" d="m56.203 29.594v-4.3906h-41.312q0.59375-9.2812 5.5938-14.141t13.938-4.8594q5.1719 0 10.031 1.2656t9.6562 3.8125v-8.5q-4.8438-2.0469-9.9219-3.125t-10.297-1.0781q-13.094 0-20.734 7.6094-7.6406 7.625-7.6406 20.625 0 13.422 7.25 21.297 7.25 7.8906 19.562 7.8906 11.031 0 17.453-7.1094 6.4219-7.0938 6.4219-19.297zm-8.9844 2.6406q-0.09375 7.3594-4.125 11.75-4.0312 4.4062-10.672 4.4062-7.5156 0-12.031-4.25t-5.2031-11.969zm-8.6875 47.75h9.7188l-15.906-18.359h-7.4844z"/>
<path id="r" d="m30.609 48.391q-7.2188 0-11.422-5.6406t-4.2031-15.453 4.1719-15.453q4.1875-5.6406 11.453-5.6406 7.1875 0 11.375 5.6562 4.2031 5.6719 4.2031 15.438 0 9.7188-4.2031 15.406-4.1875 5.6875-11.375 5.6875zm0 7.6094q11.719 0 18.406-7.625 6.7031-7.6094 6.7031-21.078 0-13.422-6.7031-21.078-6.6875-7.6406-18.406-7.6406-11.766 0-18.438 7.6406-6.6562 7.6562-6.6562 21.078 0 13.469 6.6562 21.078 6.6719 7.625 18.438 7.625z"/>
</defs>
<g transform="translate(217.69 868.21) scale(.1 -.1)">
<use xlink:href="#g"/>
<use x="38.863281" xlink:href="#ar"/>
<use x="100.386719" xlink:href="#as"/>
<use x="159.566406" xlink:href="#r"/>
<use x="220.748047" xlink:href="#k"/>
<use x="248.53125" xlink:href="#u"/>
<use x="287.740234" xlink:href="#d"/>
</g>
</g>
<g clip-path="url(#a)">
<defs>
<path id="av" d="m34.281 27.484q-10.891 0-15.094-2.4844t-4.2031-8.5q0-4.7812 3.1562-7.5938 3.1562-2.7969 8.5625-2.7969 7.4844 0 12 5.2969t4.5156 14.078v2zm17.922 3.7188v-31.203h-8.9844v8.2969q-3.0781-4.9688-7.6719-7.3438t-11.234-2.375q-8.3906 0-13.359 4.7188-4.9531 4.7188-4.9531 12.625 0 9.2188 6.1719 13.906 6.1875 4.6875 18.438 4.6875h12.609v0.89062q0 6.2031-4.0781 9.5938t-11.453 3.3906q-4.6875 0-9.1406-1.125-4.4375-1.125-8.5312-3.375v8.3125q4.9219 1.9062 9.5625 2.8438 4.6406 0.95312 9.0312 0.95312 11.875 0 17.734-6.1562 5.8594-6.1406 5.8594-18.641zm-30.281 48.781 13.766-18.266h-7.4688l-15.922 18.266z"/>
</defs>
<g transform="translate(261.97 868.21) scale(.1 -.1)">
<use xlink:href="#av"/>
</g>
</g>
<g clip-path="url(#a)">
<defs>
<path id="ae" d="m48.688 27.297q0 9.9062-4.0781 15.547t-11.203 5.6406q-7.1406 0-11.219-5.6406t-4.0781-15.547 4.0781-15.547 11.219-5.6406q7.125 0 11.203 5.6406t4.0781 15.547zm-30.578 19.094q2.8438 4.875 7.1562 7.2344 4.3281 2.375 10.328 2.375 9.9688 0 16.188-7.9062 6.2344-7.9062 6.2344-20.797t-6.2344-20.812q-6.2188-7.9062-16.188-7.9062-6 0-10.328 2.375-4.3125 2.375-7.1562 7.25v-8.2031h-9.0312v75.984h9.0312z"/>
</defs>
<g transform="translate(286.03 868.21) scale(.1 -.1)">
<use xlink:href="#ae"/>
<use x="63.476562" xlink:href="#r"/>
<use x="124.658203" xlink:href="#g"/>
<use x="164.021484" xlink:href="#x"/>
</g>
</g>
<g clip-path="url(#a)">
<defs>
<path id="ao" d="m11.719 12.406h10.297v-8.4062l-8-15.625h-6.2969l4 15.625z"/>
</defs>
<g transform="translate(330.67 868.21) scale(.1 -.1)">
<use xlink:href="#ao"/>
</g>
</g>
<g clip-path="url(#a)">
<g transform="translate(357.68 868.21) scale(.1 -.1)">
<use xlink:href="#j"/>
<use x="97.412109" xlink:href="#f"/>
<use x="158.691406" xlink:href="#i"/>
<use x="186.474609" xlink:href="#w"/>
</g>
</g>
<g clip-path="url(#a)">
<defs>
<path id="au" d="m56.203 29.594v-4.3906h-41.312q0.59375-9.2812 5.5938-14.141t13.938-4.8594q5.1719 0 10.031 1.2656t9.6562 3.8125v-8.5q-4.8438-2.0469-9.9219-3.125t-10.297-1.0781q-13.094 0-20.734 7.6094-7.6406 7.625-7.6406 20.625 0 13.422 7.25 21.297 7.25 7.8906 19.562 7.8906 11.031 0 17.453-7.1094 6.4219-7.0938 6.4219-19.297zm-8.9844 2.6406q-0.09375 7.3594-4.125 11.75-4.0312 4.4062-10.672 4.4062-7.5156 0-12.031-4.25t-5.2031-11.969zm-22.547 47.75 13.766-18.266h-7.4688l-15.922 18.266z"/>
</defs>
<g transform="translate(395.58 868.41) scale(.1 -.1)">
<use xlink:href="#f"/>
<use x="61.279297" xlink:href="#aj"/>
<use x="124.755859" xlink:href="#g"/>
<use x="163.619141" xlink:href="#au"/>
<use x="225.142578" xlink:href="#w"/>
</g>
</g>
<g clip-path="url(#a)">
<g transform="translate(442.35 868.21) scale(.1 -.1)">
<use xlink:href="#y"/>
<use x="63.378906" xlink:href="#h"/>
<use x="126.757812" xlink:href="#d"/>
</g>
</g>
<g clip-path="url(#a)">
<g transform="translate(467.37 868.21) scale(.1 -.1)">
<use xlink:href="#g"/>
<use x="41.113281" xlink:href="#f"/>
<use x="102.392578" xlink:href="#i"/>
<use x="130.175781" xlink:href="#w"/>
<use x="182.275391" xlink:href="#r"/>
<use x="243.457031" xlink:href="#h"/>
<use x="306.835938" xlink:href="#h"/>
<use x="370.214844" xlink:href="#f"/>
<use x="431.494141" xlink:href="#ae"/>
<use x="494.970703" xlink:href="#k"/>
<use x="522.753906" xlink:href="#d"/>
</g>
</g>
<g clip-path="url(#a)">
<g transform="translate(524.88 868.41) scale(.1 -.1)">
<use xlink:href="#aj"/>
<use x="63.476562" xlink:href="#ar"/>
<use x="125" xlink:href="#g"/>
<use x="166.113281" xlink:href="#i"/>
<use x="193.896484" xlink:href="#r"/>
<use x="255.078125" xlink:href="#x"/>
<use x="318.554688" xlink:href="#d"/>
</g>
</g>
<g clip-path="url(#a)">
<g transform="translate(589.14 868.21) scale(.1 -.1)">
<use xlink:href="#x"/>
<use x="63.476562" xlink:href="#aq"/>
</g>
</g>
<g clip-path="url(#a)">
<g transform="translate(617.97 868.21) scale(.1 -.1)">
<use xlink:href="#r"/>
<use x="61.181641" xlink:href="#ae"/>
<use x="124.658203" xlink:href="#w"/>
<use x="176.757812" xlink:href="#u"/>
<use x="215.966797" xlink:href="#i"/>
<use x="243.75" xlink:href="#h"/>
<use x="307.128906" xlink:href="#f"/>
<use x="368.408203" xlink:href="#u"/>
<use x="407.617188" xlink:href="#i"/>
<use x="435.400391" xlink:href="#r"/>
<use x="496.582031" xlink:href="#h"/>
</g>
</g>
<g clip-path="url(#a)">
<g transform="translate(699.15 868.21) scale(.1 -.1)">
<use xlink:href="#ao"/>
</g>
</g>
<g clip-path="url(#a)">
<g transform="translate(753.54 868.21) scale(.1 -.1)">
<use xlink:href="#k"/>
<use x="27.783203" xlink:href="#d"/>
</g>
</g>
<g clip-path="url(#a)">
<defs>
<path id="ak" d="m48.781 52.594v-8.4062q-3.8125 2.1094-7.6406 3.1562t-7.7344 1.0469q-8.75 0-13.594-5.5469-4.8281-5.5312-4.8281-15.547t4.8281-15.562q4.8438-5.5312 13.594-5.5312 3.9062 0 7.7344 1.0469t7.6406 3.1562v-8.3125q-3.7656-1.75-7.7969-2.625-4.0156-0.89062-8.5625-0.89062-12.359 0-19.641 7.7656-7.2656 7.7656-7.2656 20.953 0 13.375 7.3438 21.031 7.3594 7.6719 20.156 7.6719 4.1406 0 8.0938-0.85938 3.9531-0.84375 7.6719-2.5469z"/>
</defs>
<g transform="translate(784.61 868.21) scale(.1 -.1)">
<use xlink:href="#ak"/>
<use x="54.980469" xlink:href="#r"/>
<use x="116.162109" xlink:href="#j"/>
<use x="213.574219" xlink:href="#j"/>
<use x="310.986328" xlink:href="#f"/>
<use x="372.265625" xlink:href="#h"/>
<use x="435.644531" xlink:href="#x"/>
<use x="499.121094" xlink:href="#f"/>
<use x="560.400391" xlink:href="#h"/>
<use x="623.779297" xlink:href="#u"/>
</g>
</g>
<g clip-path="url(#a)">
<defs>
<path id="ba" d="m45.406 27.984q0 9.7656-4.0312 15.125-4.0156 5.375-11.297 5.375-7.2188 0-11.25-5.375-4.0312-5.3594-4.0312-15.125 0-9.7188 4.0312-15.094t11.25-5.375q7.2812 0 11.297 5.375 4.0312 5.375 4.0312 15.094zm8.9844-21.203q0-13.953-6.2031-20.766-6.1875-6.8125-18.984-6.8125-4.7344 0-8.9375 0.70312t-8.1562 2.1719v8.7344q3.9531-2.1406 7.8125-3.1562 3.8594-1.0312 7.8594-1.0312 8.8438 0 13.234 4.6094t4.3906 13.938v4.4531q-2.7812-4.8438-7.125-7.2344t-10.406-2.3906q-10.047 0-16.203 7.6562-6.1562 7.6719-6.1562 20.328 0 12.688 6.1562 20.344 6.1562 7.6719 16.203 7.6719 6.0625 0 10.406-2.3906t7.125-7.2188v8.2969h8.9844z"/>
</defs>
<g transform="translate(859.13 868.21) scale(.1 -.1)">
<use xlink:href="#al"/>
<use x="48.394531" xlink:href="#f"/>
<use x="109.673828" xlink:href="#g"/>
<use x="149.037109" xlink:href="#g"/>
<use x="190.150391" xlink:href="#f"/>
<use x="251.429688" xlink:href="#ba"/>
<use x="314.90625" xlink:href="#y"/>
<use x="378.285156" xlink:href="#u"/>
</g>
</g>
<g clip-path="url(#a)">
<g transform="translate(926.11 868.21) scale(.1 -.1)">
<use xlink:href="#ak"/>
<use x="54.980469" xlink:href="#r"/>
<use x="116.162109" xlink:href="#j"/>
<use x="213.574219" xlink:href="#j"/>
<use x="310.986328" xlink:href="#d"/>
</g>
</g>
<g clip-path="url(#a)">
<defs>
<path id="bb" d="m37.109 75.984v-7.4844h-8.5938q-4.8281 0-6.7188-1.9531-1.875-1.9531-1.875-7.0312v-4.8281h14.797v-6.9844h-14.797v-47.703h-9.0312v47.703h-8.5938v6.9844h8.5938v3.8125q0 9.125 4.25 13.297 4.25 4.1875 13.469 4.1875z"/>
</defs>
<g transform="translate(989.94 868.21) scale(.1 -.1)">
<use xlink:href="#f"/>
<use x="61.279297" xlink:href="#y"/>
<use x="124.658203" xlink:href="#u"/>
<use x="163.867188" xlink:href="#g"/>
<use x="202.730469" xlink:href="#d"/>
<use x="264.253906" xlink:href="#bb"/>
<use x="299.458984" xlink:href="#r"/>
<use x="360.640625" xlink:href="#i"/>
<use x="388.423828" xlink:href="#w"/>
</g>
</g>
<g clip-path="url(#a)">
<g transform="translate(1062.6 868.21) scale(.1 -.1)">
<use xlink:href="#s"/>
<use x="69.824219" xlink:href="#r"/>
<use x="131.005859" xlink:href="#k"/>
<use x="158.789062" xlink:href="#r"/>
<use x="219.970703" xlink:href="#j"/>
<use x="317.382812" xlink:href="#ae"/>
</g>
</g>
<g clip-path="url(#a)">
<g transform="translate(1152.3 868.21) scale(.1 -.1)">
<use xlink:href="#ao"/>
</g>
</g>
<g clip-path="url(#a)">
<g transform="translate(1205 868.21) scale(.1 -.1)">
<use xlink:href="#x"/>
<use x="63.476562" xlink:href="#d"/>
<use x="125" xlink:href="#j"/>
<use x="222.412109" xlink:href="#f"/>
<use x="283.691406" xlink:href="#h"/>
<use x="347.070312" xlink:href="#x"/>
<use x="410.546875" xlink:href="#f"/>
</g>
</g>
<g clip-path="url(#a)">
<g transform="translate(1294.8 868.21) scale(.1 -.1)">
<use xlink:href="#u"/>
<use x="39.208984" xlink:href="#g"/>
<use x="78.072266" xlink:href="#r"/>
<use x="139.253906" xlink:href="#i"/>
<use x="167.037109" xlink:href="#w"/>
</g>
</g>
<g clip-path="url(#a)">
<defs>
<path id="az" d="m9.4219 54.688h8.9844v-55.672q0-10.438-3.9844-15.125-3.9688-4.6875-12.812-4.6875h-3.4219v7.6094h2.4062q5.125 0 6.9688 2.375 1.8594 2.3594 1.8594 9.8281zm0 21.297h8.9844v-11.391h-8.9844z"/>
</defs>
<g transform="translate(1373.2 868.21) scale(.1 -.1)">
<use xlink:href="#az"/>
<use x="27.783203" xlink:href="#r"/>
<use x="88.964844" xlink:href="#y"/>
<use x="152.34375" xlink:href="#g"/>
<use x="193.457031" xlink:href="#w"/>
</g>
</g>
<g clip-path="url(#a)">
<g transform="translate(1461.3 868.21) scale(.1 -.1)">
<use xlink:href="#x"/>
<use x="63.476562" xlink:href="#d"/>
</g>
</g>
<g clip-path="url(#a)">
<g transform="translate(1530.6 868.21) scale(.1 -.1)">
<use xlink:href="#aj"/>
<use x="63.476562" xlink:href="#f"/>
<use x="124.755859" xlink:href="#u"/>
<use x="163.964844" xlink:href="#i"/>
<use x="191.748047" xlink:href="#d"/>
<use x="253.271484" xlink:href="#h"/>
<use x="316.650391" xlink:href="#ak"/>
<use x="371.630859" xlink:href="#d"/>
</g>
</g>
<g clip-path="url(#a)">
<defs>
<path id="e" d="m10.688 12.406h10.312v-12.406h-10.312z"/>
</defs>
<g transform="translate(1637.8 868.21) scale(.1 -.1)">
<use xlink:href="#e"/>
</g>
</g>
<g clip-path="url(#a)">
<defs>
<path id="aa" d="m9.8125 72.906h9.8594v-72.906h-9.8594z"/>
<path id="ap" d="m9.8125 72.906h14.703l18.594-49.609 18.703 49.609h14.703v-72.906h-9.625v64.016l-18.797-50h-9.9062l-18.797 50v-64.016h-9.5781z"/>
</defs>
<g transform="translate(1623.3 376.19) scale(.1 -.1)">
<use xlink:href="#aa"/>
<use x="29.492188" xlink:href="#ap"/>
<use x="115.771484" xlink:href="#v"/>
<use x="176.074219" xlink:href="#q"/>
<use x="231.787109" xlink:href="#aa"/>
<use x="261.279297" xlink:href="#s"/>
<use x="331.103516" xlink:href="#aa"/>
<use x="360.595703" xlink:href="#l"/>
</g>
</g>
<g clip-path="url(#a)">
<g transform="translate(1623.3 541.52) scale(.1 -.1)">
<use xlink:href="#aa"/>
<use x="29.492188" xlink:href="#ap"/>
<use x="115.771484" xlink:href="#v"/>
<use x="176.074219" xlink:href="#q"/>
<use x="231.787109" xlink:href="#aa"/>
<use x="261.279297" xlink:href="#s"/>
<use x="331.103516" xlink:href="#aa"/>
<use x="360.595703" xlink:href="#l"/>
</g>
</g>
<g clip-path="url(#a)">
<defs>
<path id="c" d="m12.406 8.2969h16.109v55.625l-17.531-3.5156v8.9844l17.438 3.5156h9.8594v-64.609h16.109v-8.2969h-41.984z"/>
</defs>
<g transform="translate(647.5 43.971) scale(.1 -.1)">
<use xlink:href="#c"/>
<use x="63.623047" xlink:href="#e"/>
<use x="95.410156" xlink:href="#c"/>
</g>
</g>
<g clip-path="url(#a)">
<defs>
<path id="o" d="m19.188 8.2969h34.422v-8.2969h-46.281v8.2969q5.6094 5.8125 15.297 15.594 9.7031 9.7969 12.188 12.641 4.7344 5.3125 6.6094 9 1.8906 3.6875 1.8906 7.25 0 5.8125-4.0781 9.4688-4.0781 3.6719-10.625 3.6719-4.6406 0-9.7969-1.6094-5.1406-1.6094-11-4.8906v9.9688q5.9531 2.3906 11.125 3.6094 5.1875 1.2188 9.4844 1.2188 11.328 0 18.062-5.6719 6.7344-5.6562 6.7344-15.125 0-4.5-1.6875-8.5312-1.6719-4.0156-6.125-9.4844-1.2188-1.4219-7.7656-8.1875-6.5312-6.7656-18.453-18.922z"/>
</defs>
<g transform="translate(112.91 210.29) scale(.1 -.1)">
<use xlink:href="#c"/>
<use x="63.623047" xlink:href="#e"/>
<use x="95.410156" xlink:href="#o"/>
</g>
</g>
<g clip-path="url(#a)">
<defs>
<path id="n" d="m40.578 39.312q7.0781-1.5156 11.047-6.3125 3.9844-4.7812 3.9844-11.812 0-10.781-7.4219-16.703-7.4219-5.9062-21.094-5.9062-4.5781 0-9.4375 0.90625t-10.031 2.7188v9.5156q4.0938-2.3906 8.9688-3.6094 4.8906-1.2188 10.219-1.2188 9.2656 0 14.125 3.6562t4.8594 10.641q0 6.4531-4.5156 10.078-4.5156 3.6406-12.562 3.6406h-8.5v8.1094h8.8906q7.2656 0 11.125 2.9062t3.8594 8.375q0 5.6094-3.9844 8.6094-3.9688 3.0156-11.391 3.0156-4.0625 0-8.7031-0.89062-4.6406-0.875-10.203-2.7188v8.7812q5.625 1.5625 10.531 2.3438t9.25 0.78125q11.234 0 17.766-5.1094 6.5469-5.0938 6.5469-13.781 0-6.0625-3.4688-10.234t-9.8594-5.7812z"/>
</defs>
<g transform="translate(361.65 706) scale(.1 -.1)">
<use xlink:href="#c"/>
<use x="63.623047" xlink:href="#e"/>
<use x="95.410156" xlink:href="#n"/>
</g>
</g>
<g clip-path="url(#a)">
<defs>
<path id="p" d="m37.797 64.312-24.906-38.922h24.906zm-2.5938 8.5938h12.406v-47.516h10.406v-8.2031h-10.406v-17.188h-9.8125v17.188h-32.906v9.5156z"/>
</defs>
<g transform="translate(401.49 706) scale(.1 -.1)">
<use xlink:href="#c"/>
<use x="63.623047" xlink:href="#e"/>
<use x="95.410156" xlink:href="#p"/>
</g>
</g>
<g clip-path="url(#a)">
<defs>
<path id="t" d="m10.797 72.906h38.719v-8.3125h-29.688v-17.859q2.1406 0.73438 4.2812 1.0938 2.1562 0.35938 4.3125 0.35938 12.203 0 19.328-6.6875 7.1406-6.6875 7.1406-18.109 0-11.766-7.3281-18.297-7.3281-6.5156-20.656-6.5156-4.5938 0-9.3594 0.78125-4.75 0.78125-9.8281 2.3438v9.9219q4.3906-2.3906 9.0781-3.5625t9.9062-1.1719q8.4531 0 13.375 4.4375 4.9375 4.4375 4.9375 12.062 0 7.6094-4.9375 12.047-4.9219 4.4531-13.375 4.4531-3.9531 0-7.8906-0.875-3.9219-0.875-8.0156-2.7344z"/>
</defs>
<g transform="translate(657.8 376.19) scale(.1 -.1)">
<use xlink:href="#c"/>
<use x="63.623047" xlink:href="#e"/>
<use x="95.410156" xlink:href="#t"/>
</g>
</g>
<g clip-path="url(#a)">
<defs>
<path id="ah" d="m33.016 40.375q-6.6406 0-10.531-4.5469-3.875-4.5312-3.875-12.438 0-7.8594 3.875-12.438 3.8906-4.5625 10.531-4.5625t10.516 4.5625q3.875 4.5781 3.875 12.438 0 7.9062-3.875 12.438-3.875 4.5469-10.516 4.5469zm19.578 30.922v-8.9844q-3.7188 1.75-7.5 2.6719-3.7812 0.9375-7.5 0.9375-9.7656 0-14.922-6.5938-5.1406-6.5938-5.875-19.922 2.875 4.25 7.2188 6.5156 4.3594 2.2656 9.5781 2.2656 10.984 0 17.359-6.6719 6.375-6.6562 6.375-18.125 0-11.234-6.6406-18.031-6.6406-6.7812-17.672-6.7812-12.656 0-19.344 9.6875-6.6875 9.7031-6.6875 28.109 0 17.281 8.2031 27.562t22.016 10.281q3.7188 0 7.5-0.73438t7.8906-2.1875z"/>
</defs>
<g transform="translate(1162.7 210.29) scale(.1 -.1)">
<use xlink:href="#c"/>
<use x="63.623047" xlink:href="#e"/>
<use x="95.410156" xlink:href="#ah"/>
</g>
</g>
<g clip-path="url(#a)">
<defs>
<path id="ad" d="m8.2031 72.906h46.875v-4.2031l-26.469-68.703h-10.297l24.906 64.594h-35.016z"/>
</defs>
<g transform="translate(936.79 706) scale(.1 -.1)">
<use xlink:href="#c"/>
<use x="63.623047" xlink:href="#e"/>
<use x="95.410156" xlink:href="#ad"/>
</g>
</g>
<g clip-path="url(#a)">
<defs>
<path id="ac" d="m31.781 34.625q-7.0312 0-11.062-3.7656-4.0156-3.7656-4.0156-10.344 0-6.5938 4.0156-10.359 4.0312-3.7656 11.062-3.7656t11.078 3.7812q4.0625 3.7969 4.0625 10.344 0 6.5781-4.0312 10.344-4.0156 3.7656-11.109 3.7656zm-9.8594 4.1875q-6.3438 1.5625-9.8906 5.9062-3.5312 4.3594-3.5312 10.609 0 8.7344 6.2188 13.812 6.2344 5.0781 17.062 5.0781 10.891 0 17.094-5.0781t6.2031-13.812q0-6.25-3.5469-10.609-3.5312-4.3438-9.8281-5.9062 7.125-1.6562 11.094-6.5 3.9844-4.8281 3.9844-11.797 0-10.609-6.4688-16.281-6.4688-5.6562-18.531-5.6562-12.047 0-18.531 5.6562-6.4688 5.6719-6.4688 16.281 0 6.9688 4 11.797 4.0156 4.8438 11.141 6.5zm-3.6094 15.578q0-5.6562 3.5312-8.8281 3.5469-3.1719 9.9375-3.1719 6.3594 0 9.9375 3.1719 3.5938 3.1719 3.5938 8.8281 0 5.6719-3.5938 8.8438-3.5781 3.1719-9.9375 3.1719-6.3906 0-9.9375-3.1719-3.5312-3.1719-3.5312-8.8438z"/>
</defs>
<g transform="translate(1177.1 210.29) scale(.1 -.1)">
<use xlink:href="#c"/>
<use x="63.623047" xlink:href="#e"/>
<use x="95.410156" xlink:href="#ac"/>
</g>
</g>
<g clip-path="url(#a)">
<g transform="translate(1000.8 706) scale(.1 -.1)">
<use xlink:href="#c"/>
<use x="63.623047" xlink:href="#e"/>
<use x="95.410156" xlink:href="#c"/>
<use x="159.033203" xlink:href="#o"/>
</g>
</g>
<g clip-path="url(#a)">
<g transform="translate(1070.5 706) scale(.1 -.1)">
<use xlink:href="#c"/>
<use x="63.623047" xlink:href="#e"/>
<use x="95.410156" xlink:href="#c"/>
<use x="159.033203" xlink:href="#n"/>
</g>
</g>
<g clip-path="url(#a)">
<g transform="translate(822.81 376.19) scale(.1 -.1)">
<use xlink:href="#c"/>
<use x="63.623047" xlink:href="#e"/>
<use x="95.410156" xlink:href="#c"/>
<use x="159.033203" xlink:href="#t"/>
</g>
</g>
<g clip-path="url(#a)">
<g transform="translate(1217.4 706) scale(.1 -.1)">
<use xlink:href="#c"/>
<use x="63.623047" xlink:href="#e"/>
<use x="95.410156" xlink:href="#c"/>
<use x="159.033203" xlink:href="#ad"/>
</g>
</g>
<g clip-path="url(#a)">
<g transform="translate(1438.2 376.19) scale(.1 -.1)">
<use xlink:href="#c"/>
<use x="63.623047" xlink:href="#e"/>
<use x="95.410156" xlink:href="#c"/>
<use x="159.033203" xlink:href="#ac"/>
</g>
</g>
<g clip-path="url(#a)">
<defs>
<path id="ai" d="m31.781 66.406q-7.6094 0-11.453-7.5-3.8281-7.4844-3.8281-22.531 0-14.984 3.8281-22.484 3.8438-7.5 11.453-7.5 7.6719 0 11.5 7.5 3.8438 7.5 3.8438 22.484 0 15.047-3.8438 22.531-3.8281 7.5-11.5 7.5zm0 7.8125q12.266 0 18.734-9.7031 6.4688-9.6875 6.4688-28.141 0-18.406-6.4688-28.109-6.4688-9.6875-18.734-9.6875-12.25 0-18.719 9.6875-6.4688 9.7031-6.4688 28.109 0 18.453 6.4688 28.141 6.4688 9.7031 18.719 9.7031z"/>
</defs>
<g transform="translate(1334.5 541.52) scale(.1 -.1)">
<use xlink:href="#c"/>
<use x="63.623047" xlink:href="#e"/>
<use x="95.410156" xlink:href="#o"/>
<use x="159.033203" xlink:href="#ai"/>
</g>
</g>
<g clip-path="url(#a)">
<g transform="translate(1541.9 541.52) scale(.1 -.1)">
<use xlink:href="#c"/>
<use x="63.623047" xlink:href="#e"/>
<use x="95.410156" xlink:href="#o"/>
<use x="159.033203" xlink:href="#c"/>
</g>
</g>
<g clip-path="url(#a)">
<g transform="translate(1456.5 706) scale(.1 -.1)">
<use xlink:href="#c"/>
<use x="63.623047" xlink:href="#e"/>
<use x="95.410156" xlink:href="#o"/>
<use x="159.033203" xlink:href="#o"/>
</g>
</g>
<g clip-path="url(#a)">
<g transform="translate(1541.1 706) scale(.1 -.1)">
<use xlink:href="#c"/>
<use x="63.623047" xlink:href="#e"/>
<use x="95.410156" xlink:href="#o"/>
<use x="159.033203" xlink:href="#n"/>
</g>
</g>
<g clip-path="url(#a)">
<g transform="translate(1294.6 706) scale(.1 -.1)">
<use xlink:href="#c"/>
<use x="63.623047" xlink:href="#e"/>
<use x="95.410156" xlink:href="#o"/>
<use x="159.033203" xlink:href="#p"/>
</g>
</g>
<g clip-path="url(#a)">
<g transform="translate(1374.3 706) scale(.1 -.1)">
<use xlink:href="#c"/>
<use x="63.623047" xlink:href="#e"/>
<use x="95.410156" xlink:href="#o"/>
<use x="159.033203" xlink:href="#t"/>
</g>
</g>
<g clip-path="url(#a)">
<g transform="translate(776.75 541.52) scale(.1 -.1)">
<use xlink:href="#c"/>
<use x="63.623047" xlink:href="#e"/>
<use x="95.410156" xlink:href="#o"/>
<use x="159.033203" xlink:href="#ah"/>
</g>
</g>
<g clip-path="url(#a)">
<g transform="translate(868.87 706) scale(.1 -.1)">
<use xlink:href="#c"/>
<use x="63.623047" xlink:href="#e"/>
<use x="95.410156" xlink:href="#o"/>
<use x="159.033203" xlink:href="#ad"/>
</g>
</g>
<g clip-path="url(#a)">
<g transform="translate(746.88 706) scale(.1 -.1)">
<use xlink:href="#c"/>
<use x="63.623047" xlink:href="#e"/>
<use x="95.410156" xlink:href="#o"/>
<use x="159.033203" xlink:href="#ac"/>
</g>
</g>
<g clip-path="url(#a)">
<defs>
<path id="an" d="m10.984 1.5156v8.9844q3.7188-1.7656 7.5156-2.6875 3.8125-0.92188 7.4844-0.92188 9.7656 0 14.906 6.5625 5.1562 6.5625 5.8906 19.953-2.8281-4.2031-7.1875-6.4531-4.3438-2.25-9.6094-2.25-10.938 0-17.312 6.6094-6.375 6.625-6.375 18.109 0 11.219 6.6406 18 6.6406 6.7969 17.672 6.7969 12.656 0 19.312-9.7031 6.6719-9.6875 6.6719-28.141 0-17.234-8.1875-27.516-8.1719-10.281-21.984-10.281-3.7188 0-7.5312 0.73438-3.7969 0.73438-7.9062 2.2031zm19.625 30.906q6.6406 0 10.516 4.5312 3.8906 4.5469 3.8906 12.469 0 7.8594-3.8906 12.422-3.875 4.5625-10.516 4.5625t-10.516-4.5625-3.875-12.422q0-7.9219 3.875-12.469 3.875-4.5312 10.516-4.5312z"/>
</defs>
<g transform="translate(806.63 706) scale(.1 -.1)">
<use xlink:href="#c"/>
<use x="63.623047" xlink:href="#e"/>
<use x="95.410156" xlink:href="#o"/>
<use x="159.033203" xlink:href="#an"/>
</g>
</g>
<g clip-path="url(#a)">
<g transform="translate(486.28 541.52) scale(.1 -.1)">
<use xlink:href="#c"/>
<use x="63.623047" xlink:href="#e"/>
<use x="95.410156" xlink:href="#n"/>
<use x="159.033203" xlink:href="#ai"/>
</g>
</g>
<g clip-path="url(#a)">
<g transform="translate(608.69 541.52) scale(.1 -.1)">
<use xlink:href="#c"/>
<use x="63.623047" xlink:href="#e"/>
<use x="95.410156" xlink:href="#n"/>
<use x="159.033203" xlink:href="#c"/>
</g>
</g>
<g clip-path="url(#a)">
<g transform="translate(582.55 706) scale(.1 -.1)">
<use xlink:href="#c"/>
<use x="63.623047" xlink:href="#e"/>
<use x="95.410156" xlink:href="#n"/>
<use x="159.033203" xlink:href="#o"/>
</g>
</g>
<g clip-path="url(#a)">
<g transform="translate(634.84 706) scale(.1 -.1)">
<use xlink:href="#c"/>
<use x="63.623047" xlink:href="#e"/>
<use x="95.410156" xlink:href="#n"/>
<use x="159.033203" xlink:href="#n"/>
</g>
</g>
<g clip-path="url(#a)">
<g transform="translate(440.63 706) scale(.1 -.1)">
<use xlink:href="#c"/>
<use x="63.623047" xlink:href="#e"/>
<use x="95.410156" xlink:href="#n"/>
<use x="159.033203" xlink:href="#p"/>
</g>
</g>
<g clip-path="url(#a)">
<g transform="translate(485.45 706) scale(.1 -.1)">
<use xlink:href="#c"/>
<use x="63.623047" xlink:href="#e"/>
<use x="95.410156" xlink:href="#n"/>
<use x="159.033203" xlink:href="#t"/>
</g>
</g>
<g clip-path="url(#a)">
<g transform="translate(532.76 706) scale(.1 -.1)">
<use xlink:href="#c"/>
<use x="63.623047" xlink:href="#e"/>
<use x="95.410156" xlink:href="#n"/>
<use x="159.033203" xlink:href="#ah"/>
</g>
</g>
<g clip-path="url(#a)">
<g transform="translate(67.17 706) scale(.1 -.1)">
<use xlink:href="#c"/>
<use x="63.623047" xlink:href="#e"/>
<use x="95.410156" xlink:href="#n"/>
<use x="159.033203" xlink:href="#ad"/>
</g>
</g>
<g clip-path="url(#a)">
<g transform="translate(85.843 706) scale(.1 -.1)">
<use xlink:href="#c"/>
<use x="63.623047" xlink:href="#e"/>
<use x="95.410156" xlink:href="#n"/>
<use x="159.033203" xlink:href="#ac"/>
</g>
</g>
<g clip-path="url(#a)">
<g transform="translate(84.599 706) scale(.1 -.1)">
<use xlink:href="#c"/>
<use x="63.623047" xlink:href="#e"/>
<use x="95.410156" xlink:href="#n"/>
<use x="159.033203" xlink:href="#an"/>
</g>
</g>
<g clip-path="url(#a)">
<g transform="translate(111.99 706) scale(.1 -.1)">
<use xlink:href="#c"/>
<use x="63.623047" xlink:href="#e"/>
<use x="95.410156" xlink:href="#p"/>
<use x="159.033203" xlink:href="#ai"/>
</g>
</g>
<g clip-path="url(#a)">
<g transform="translate(199.02 376.19) scale(.1 -.1)">
<use xlink:href="#c"/>
<use x="63.623047" xlink:href="#e"/>
<use x="95.410156" xlink:href="#p"/>
<use x="159.033203" xlink:href="#c"/>
</g>
</g>
<g clip-path="url(#a)">
<g transform="translate(129.41 706) scale(.1 -.1)">
<use xlink:href="#c"/>
<use x="63.623047" xlink:href="#e"/>
<use x="95.410156" xlink:href="#p"/>
<use x="159.033203" xlink:href="#o"/>
</g>
</g>
<g clip-path="url(#a)">
<g transform="translate(172.57 706) scale(.1 -.1)">
<use xlink:href="#c"/>
<use x="63.623047" xlink:href="#e"/>
<use x="95.410156" xlink:href="#p"/>
<use x="159.033203" xlink:href="#n"/>
</g>
</g>
<g clip-path="url(#a)">
<g transform="translate(224.03 706) scale(.1 -.1)">
<use xlink:href="#c"/>
<use x="63.623047" xlink:href="#e"/>
<use x="95.410156" xlink:href="#p"/>
<use x="159.033203" xlink:href="#p"/>
</g>
</g>
<g clip-path="url(#a)">
<g transform="translate(270.09 541.52) scale(.1 -.1)">
<use xlink:href="#c"/>
<use x="63.623047" xlink:href="#e"/>
<use x="95.410156" xlink:href="#p"/>
<use x="159.033203" xlink:href="#t"/>
</g>
</g>
<g clip-path="url(#a)">
<g transform="translate(253.9 706) scale(.1 -.1)">
<use xlink:href="#c"/>
<use x="63.623047" xlink:href="#e"/>
<use x="95.410156" xlink:href="#p"/>
<use x="159.033203" xlink:href="#ah"/>
</g>
</g>
<g clip-path="url(#a)">
<g transform="translate(286.27 706) scale(.1 -.1)">
<use xlink:href="#c"/>
<use x="63.623047" xlink:href="#e"/>
<use x="95.410156" xlink:href="#p"/>
<use x="159.033203" xlink:href="#ad"/>
</g>
</g>
<g clip-path="url(#a)">
<g transform="translate(1089 43.971) scale(.1 -.1)">
<use xlink:href="#c"/>
<use x="63.623047" xlink:href="#e"/>
<use x="95.410156" xlink:href="#p"/>
<use x="159.033203" xlink:href="#ac"/>
</g>
</g>
<g clip-path="url(#a)">
<g transform="translate(737.47 43.971) scale(.1 -.1)">
<use xlink:href="#c"/>
<use x="63.623047" xlink:href="#e"/>
<use x="95.410156" xlink:href="#p"/>
<use x="159.033203" xlink:href="#an"/>
</g>
</g>
<g clip-path="url(#a)">
<g transform="translate(542.56 43.971) scale(.1 -.1)">
<use xlink:href="#c"/>
<use x="63.623047" xlink:href="#e"/>
<use x="95.410156" xlink:href="#t"/>
<use x="159.033203" xlink:href="#ai"/>
</g>
</g>
<g clip-path="url(#a)">
<g transform="translate(321.13 706) scale(.1 -.1)">
<use xlink:href="#c"/>
<use x="63.623047" xlink:href="#e"/>
<use x="95.410156" xlink:href="#t"/>
<use x="159.033203" xlink:href="#c"/>
</g>
</g>
<g clip-path="url(#a)">
<g transform="translate(689.61 706) scale(.1 -.1)">
<use xlink:href="#c"/>
<use x="63.623047" xlink:href="#e"/>
<use x="95.410156" xlink:href="#t"/>
<use x="159.033203" xlink:href="#o"/>
</g>
</g>
<g clip-path="url(#a)">
<g transform="translate(1142.7 706) scale(.1 -.1)">
<use xlink:href="#c"/>
<use x="63.623047" xlink:href="#e"/>
<use x="95.410156" xlink:href="#t"/>
<use x="159.033203" xlink:href="#n"/>
</g>
</g>
<g clip-path="url(#a)">
<g transform="translate(1628.3 706) scale(.1 -.1)">
<use xlink:href="#c"/>
<use x="63.623047" xlink:href="#e"/>
<use x="95.410156" xlink:href="#t"/>
<use x="159.033203" xlink:href="#p"/>
</g>
</g>
<defs>
<clipPath id="a">
<rect width="1722.7" height="906.67"/>
</clipPath>
</defs>
</svg>
