<?xml version="1.0" encoding="UTF-8"?>
<!DOCTYPE svg  PUBLIC '-//W3C//DTD SVG 1.1//EN'  'http://www.w3.org/Graphics/SVG/1.1/DTD/svg11.dtd'>
<svg width="1469.3pt" height="773.33pt" version="1.1" viewBox="0 0 1469.3 773.33" xmlns="http://www.w3.org/2000/svg" xmlns:xlink="http://www.w3.org/1999/xlink">
<defs>
<style type="text/css">*{stroke-linecap:butt;stroke-linejoin:round;}</style>
</defs>
<path d="m0 773.33h1469.3v-773.33h-1469.3z" fill="#fff"/>
<g fill="none" stroke="#000">
<path d="m471.11 35.926-315.29 211.13" clip-path="url(#a)"/>
<path d="m471.11 35.926 26.633 605.41" clip-path="url(#a)"/>
<path d="m471.11 35.926 305.1 107" clip-path="url(#a)"/>
<path d="m471.11 35.926-16.444 605.41" clip-path="url(#a)"/>
<path d="m155.82 247.05-88.847 394.29" clip-path="url(#a)"/>
<path d="m155.82 247.05-45.769 394.29" clip-path="url(#a)"/>
<path d="m155.82 247.05 134.62 101.54" clip-path="url(#a)"/>
<path d="m497.74 641.34v96.066" clip-path="url(#a)"/>
<path d="m776.21 142.93-192.32 402.35" clip-path="url(#a)"/>
<path d="m776.21 142.93-106.16 498.41" clip-path="url(#a)"/>
<path d="m776.21 142.93 90.079 304.94" clip-path="url(#a)"/>
<path d="m776.21 142.93-20.007 498.41" clip-path="url(#a)"/>
<path d="m776.21 142.93 228.4 104.13" clip-path="url(#a)"/>
<path d="m583.9 545.27-43.077 192.13" clip-path="url(#a)"/>
<path d="m583.9 545.27 43.077 192.13" clip-path="url(#a)"/>
<path d="m583.9 545.27v96.066" clip-path="url(#a)"/>
<path d="m670.05 641.34v96.066" clip-path="url(#a)"/>
<path d="m866.29 447.87-81.368 97.403" clip-path="url(#a)"/>
<path d="m866.29 447.87 19.145 193.47" clip-path="url(#a)"/>
<path d="m866.29 447.87 62.223 193.47" clip-path="url(#a)"/>
<path d="m756.21 641.34v96.066" clip-path="url(#a)"/>
<path d="m1004.6 247.05-33.026 394.29" clip-path="url(#a)"/>
<path d="m1004.6 247.05 10.051 394.29" clip-path="url(#a)"/>
<path d="m1004.6 247.05 22.974 101.54" clip-path="url(#a)"/>
<path d="m971.59 641.34v96.066" clip-path="url(#a)"/>
<path d="m1014.7 641.34v96.066" clip-path="url(#a)"/>
<path d="m1027.6 348.59-443.69 196.68" clip-path="url(#a)" stroke-dasharray="3.7,1.6"/>
<path d="m1027.6 348.59 331.69 388.81" clip-path="url(#a)"/>
<path d="m1027.6 348.59 30.154 292.75" clip-path="url(#a)"/>
<path d="m1027.6 348.59 8.6154 99.278" clip-path="url(#a)"/>
<path d="m1027.6 348.59 73.231 292.75" clip-path="url(#a)"/>
<path d="m1057.7 641.34v96.066" clip-path="url(#a)"/>
<path d="m1036.2 447.87-452.31 97.403" clip-path="url(#a)" stroke-dasharray="3.7,1.6"/>
<path d="m1036.2 447.87 280 289.54" clip-path="url(#a)"/>
<path d="m1036.2 447.87 172.31 97.403" clip-path="url(#a)"/>
<path d="m1208.5 545.27-64.616 96.066" clip-path="url(#a)"/>
<path d="m1208.5 545.27-21.539 96.066" clip-path="url(#a)"/>
<path d="m1208.5 545.27 21.539 96.066" clip-path="url(#a)"/>
<path d="m1208.5 545.27 64.616 96.066" clip-path="url(#a)"/>
<path d="m1143.9 641.34v96.066" clip-path="url(#a)"/>
<path d="m1187 641.34v96.066" clip-path="url(#a)"/>
<path d="m784.92 545.27-71.795 96.066" clip-path="url(#a)"/>
<path d="m784.92 545.27 14.359 96.066" clip-path="url(#a)"/>
<path d="m784.92 545.27 57.436 96.066" clip-path="url(#a)"/>
<path d="m885.44 641.34v96.066" clip-path="url(#a)"/>
<path d="m928.51 641.34v96.066" clip-path="url(#a)"/>
<path d="m713.13 641.34v96.066" clip-path="url(#a)"/>
<path d="m799.28 641.34v96.066" clip-path="url(#a)"/>
<path d="m842.36 641.34v96.066" clip-path="url(#a)"/>
<path d="m66.971 641.34v96.066" clip-path="url(#a)"/>
<path d="m110.05 641.34v96.066" clip-path="url(#a)"/>
<path d="m290.43 348.59-137.31 292.75" clip-path="url(#a)"/>
<path d="m290.43 348.59-94.231 292.75" clip-path="url(#a)"/>
<path d="m290.43 348.59-51.154 292.75" clip-path="url(#a)"/>
<path d="m290.43 348.59 282.69 99.278" clip-path="url(#a)"/>
<path d="m153.13 641.34v96.066" clip-path="url(#a)"/>
<path d="m196.2 641.34v96.066" clip-path="url(#a)"/>
<path d="m239.28 641.34v96.066" clip-path="url(#a)"/>
<path d="m573.13 447.87-333.85 193.47" clip-path="url(#a)" stroke-dasharray="3.7,1.6"/>
<path d="m573.13 447.87 829.24 289.54" clip-path="url(#a)"/>
<path d="m573.13 447.87-290.77 193.47" clip-path="url(#a)"/>
<path d="m573.13 447.87-204.62 97.403" clip-path="url(#a)"/>
<path d="m282.36 641.34v96.066" clip-path="url(#a)"/>
<path d="m368.51 545.27-43.077 96.066" clip-path="url(#a)"/>
<path d="m368.51 545.27v96.066" clip-path="url(#a)"/>
<path d="m368.51 545.27 43.077 96.066" clip-path="url(#a)"/>
<path d="m325.43 641.34v96.066" clip-path="url(#a)"/>
<path d="m368.51 641.34v96.066" clip-path="url(#a)"/>
<path d="m411.59 641.34v96.066" clip-path="url(#a)"/>
<path d="m476.59 35.926-320.77 211.13" clip-path="url(#a)"/>
<path d="m476.59 35.926 21.152 605.41" clip-path="url(#a)"/>
<path d="m476.59 35.926 299.62 107" clip-path="url(#a)"/>
<path d="m454.67 641.34v96.066" clip-path="url(#a)"/>
<path d="m583.9 641.34v96.066" clip-path="url(#a)"/>
<path d="m1100.8 641.34v96.066" clip-path="url(#a)"/>
<path d="m1230.1 641.34v96.066" clip-path="url(#a)"/>
<path d="m1273.1 641.34v96.066" clip-path="url(#a)"/>
</g>
<path d="m314.45 148.37 4.999-3.3474q1.9942-1.3354 0.65884-3.3296l-4.3079-6.4334q-1.3354-1.9942-3.3296-0.65884l-4.999 3.3474q-1.9942 1.3354-0.65884 3.3296l4.3079 6.4334q1.3354 1.9942 3.3296 0.65884z" clip-path="url(#a)" fill="#fff" stroke="#fff"/>
<g clip-path="url(#a)">
<defs>
<path id="am" d="m9.8125 72.906h9.8594v-29.891h35.844v29.891h9.8594v-72.906h-9.8594v34.719h-35.844v-34.719h-9.8594z"/>
</defs>
<g transform="translate(312.19 145) rotate(-33.807) scale(.08 -.08)">
<use xlink:href="#am"/>
</g>
</g>
<path d="m478.06 336.68 0.1959 4.4532q0.10548 2.3977 2.5032 2.2922l7.735-0.34028q2.3977-0.10548 2.2922-2.5032l-0.1959-4.4532q-0.10548-2.3977-2.5032-2.2922l-7.735 0.34028q-2.3977 0.10548-2.2922 2.5032z" clip-path="url(#a)" fill="#fff" stroke="#fff"/>
<g clip-path="url(#a)">
<defs>
<path id="v" d="m9.8125 72.906h9.8594v-64.609h35.5v-8.2969h-45.359z"/>
</defs>
<g transform="translate(482.12 336.5) rotate(87.481) scale(.08 -.08)">
<use xlink:href="#v"/>
</g>
</g>
<path d="m618.75 94.349 5.6772 1.991q2.2648 0.79426 3.059-1.4705l2.5623-7.3062q0.79426-2.2648-1.4705-3.059l-5.6772-1.991q-2.2648-0.79426-3.059 1.4705l-2.5623 7.3062q-0.79426 2.2648 1.4705 3.059z" clip-path="url(#a)" fill="#fff" stroke="#fff"/>
<g clip-path="url(#a)">
<g transform="translate(620.09 90.514) rotate(19.326) scale(.08 -.08)">
<use xlink:href="#am"/>
</g>
</g>
<path d="m469.08 341.73 0.15897-5.8528q0.065164-2.3991-2.334-2.4643l-7.7396-0.21022q-2.3991-0.065164-2.4643 2.334l-0.15897 5.8528q-0.065164 2.3991 2.334 2.4643l7.7396 0.21022q2.3991 0.065164 2.4643-2.334z" clip-path="url(#a)" fill="#fff" stroke="#fff"/>
<g clip-path="url(#a)">
<defs>
<path id="aa" d="m8.6875 72.906h9.9219v-44.297q0-11.719 4.2344-16.875 4.25-5.1406 13.781-5.1406 9.4688 0 13.719 5.1406 4.25 5.1562 4.25 16.875v44.297h9.9062v-45.516q0-14.25-7.0625-21.531-7.0469-7.2812-20.812-7.2812-13.828 0-20.891 7.2812-7.0469 7.2812-7.0469 21.531z"/>
</defs>
<g transform="translate(465.01 341.62) rotate(-88.444) scale(.08 -.08)">
<use xlink:href="#aa"/>
</g>
</g>
<path d="m116.91 448.24 1.203-5.3386q0.52757-2.3413-1.8137-2.8689l-7.5531-1.702q-2.3413-0.52757-2.8689 1.8137l-1.203 5.3386q-0.52757 2.3413 1.8137 2.8689l7.5531 1.702q2.3413 0.52757 2.8689-1.8137z" clip-path="url(#a)" fill="#fff" stroke="#fff"/>
<g clip-path="url(#a)">
<defs>
<path id="m" d="m34.188 63.188-13.391-36.281h26.812zm-5.5781 9.7188h11.188l27.781-72.906h-10.25l-6.6406 18.703h-32.859l-6.6406-18.703h-10.406z"/>
</defs>
<g transform="translate(112.95 447.35) rotate(-77.301) scale(.08 -.08)">
<use xlink:href="#m"/>
</g>
</g>
<path d="m138.87 447.44 0.58562-5.0449q0.27674-2.384-2.1073-2.6607l-7.6909-0.89276q-2.384-0.27674-2.6607 2.1073l-0.58562 5.0449q-0.27674 2.384 2.1073 2.6607l7.6909 0.89276q2.384 0.27674 2.6607-2.1073z" clip-path="url(#a)" fill="#fff" stroke="#fff"/>
<g clip-path="url(#a)">
<defs>
<path id="ar" d="m53.516 70.516v-9.625q-5.6094 2.6875-10.594 4-4.9844 1.3281-9.625 1.3281-8.0469 0-12.422-3.125t-4.375-8.8906q0-4.8438 2.9062-7.3125 2.9062-2.4531 11.016-3.9688l5.9531-1.2188q11.031-2.1094 16.281-7.4062t5.25-14.172q0-10.609-7.1094-16.078-7.0938-5.4688-20.812-5.4688-5.1719 0-11.016 1.1719-5.8281 1.1719-12.078 3.4688v10.156q6-3.3594 11.766-5.0781 5.7656-1.7031 11.328-1.7031 8.4375 0 13.031 3.3125 4.5938 3.3281 4.5938 9.4844 0 5.3594-3.2969 8.3906t-10.812 4.5469l-6.0156 1.1719q-11.031 2.1875-15.969 6.875-4.9219 4.6875-4.9219 13.047 0 9.6719 6.8125 15.234t18.766 5.5625q5.1406 0 10.453-0.9375 5.3281-0.92188 10.891-2.7656z"/>
</defs>
<g transform="translate(134.83 446.97) rotate(-83.379) scale(.08 -.08)">
<use xlink:href="#ar"/>
</g>
</g>
<path d="m217.16 301.18 4.369 3.2955q1.916 1.4453 3.3613-0.47078l4.6625-6.1812q1.4453-1.916-0.47078-3.3613l-4.369-3.2955q-1.916-1.4453-3.3613 0.47078l-4.6625 6.1812q-1.4453 1.916 0.47078 3.3613z" clip-path="url(#a)" fill="#fff" stroke="#fff"/>
<g clip-path="url(#a)">
<g transform="translate(219.61 297.94) rotate(37.027) scale(.08 -.08)">
<use xlink:href="#m"/>
</g>
</g>
<path d="m491.47 671.73v35.285q0 2.4 2.4 2.4h7.7425q2.4 0 2.4-2.4v-35.285q0-2.4-2.4-2.4h-7.7425q-2.4 0-2.4 2.4z" clip-path="url(#a)" fill="#fff" stroke="#fff"/>
<g clip-path="url(#a)">
<defs>
<path id="k" d="m-0.29688 72.906h61.672v-8.3125h-25.875v-64.594h-9.9062v64.594h-25.891z"/>
<path id="d" d="m56.203 29.594v-4.3906h-41.312q0.59375-9.2812 5.5938-14.141t13.938-4.8594q5.1719 0 10.031 1.2656t9.6562 3.8125v-8.5q-4.8438-2.0469-9.9219-3.125t-10.297-1.0781q-13.094 0-20.734 7.6094-7.6406 7.625-7.6406 20.625 0 13.422 7.25 21.297 7.25 7.8906 19.562 7.8906 11.031 0 17.453-7.1094 6.4219-7.0938 6.4219-19.297zm-8.9844 2.6406q-0.09375 7.3594-4.125 11.75-4.0312 4.4062-10.672 4.4062-7.5156 0-12.031-4.25t-5.2031-11.969z"/>
<path id="h" d="m41.109 46.297q-1.5156 0.875-3.2969 1.2812-1.7812 0.42188-3.9219 0.42188-7.625 0-11.703-4.9531t-4.0781-14.234v-28.812h-9.0312v54.688h9.0312v-8.5q2.8438 4.9844 7.375 7.3906 4.5469 2.4219 11.047 2.4219 0.92188 0 2.0469-0.125 1.125-0.10938 2.4844-0.35938z"/>
<path id="j" d="m52 44.188q3.375 6.0625 8.0625 8.9375t11.031 2.875q8.5469 0 13.188-5.9844 4.6406-5.9688 4.6406-17v-33.016h-9.0312v32.719q0 7.8594-2.7969 11.656-2.7812 3.8125-8.4844 3.8125-6.9844 0-11.047-4.6406-4.0469-4.625-4.0469-12.641v-30.906h-9.0312v32.719q0 7.9062-2.7812 11.688t-8.5938 3.7812q-6.8906 0-10.953-4.6562-4.0469-4.6562-4.0469-12.625v-30.906h-9.0312v54.688h9.0312v-8.5q3.0781 5.0312 7.375 7.4219t10.203 2.3906q5.9688 0 10.141-3.0312 4.1719-3.0156 6.1719-8.7812z"/>
<path id="i" d="m9.4219 54.688h8.9844v-54.688h-8.9844zm0 21.297h8.9844v-11.391h-8.9844z"/>
<path id="g" d="m54.891 33.016v-33.016h-8.9844v32.719q0 7.7656-3.0312 11.609-3.0312 3.8594-9.0781 3.8594-7.2812 0-11.484-4.6406-4.2031-4.625-4.2031-12.641v-30.906h-9.0312v54.688h9.0312v-8.5q3.2344 4.9375 7.5938 7.375 4.375 2.4375 10.094 2.4375 9.4219 0 14.25-5.8281 4.8438-5.8281 4.8438-17.156z"/>
<path id="f" d="m34.281 27.484q-10.891 0-15.094-2.4844t-4.2031-8.5q0-4.7812 3.1562-7.5938 3.1562-2.7969 8.5625-2.7969 7.4844 0 12 5.2969t4.5156 14.078v2zm17.922 3.7188v-31.203h-8.9844v8.2969q-3.0781-4.9688-7.6719-7.3438t-11.234-2.375q-8.3906 0-13.359 4.7188-4.9531 4.7188-4.9531 12.625 0 9.2188 6.1719 13.906 6.1875 4.6875 18.438 4.6875h12.609v0.89062q0 6.2031-4.0781 9.5938t-11.453 3.3906q-4.6875 0-9.1406-1.125-4.4375-1.125-8.5312-3.375v8.3125q4.9219 1.9062 9.5625 2.8438 4.6406 0.95312 9.0312 0.95312 11.875 0 17.734-6.1562 5.8594-6.1406 5.8594-18.641z"/>
<path id="l" d="m9.4219 75.984h8.9844v-75.984h-8.9844z"/>
</defs>
<g transform="translate(495.53 671.73) rotate(90) scale(.08 -.08)">
<use xlink:href="#k"/>
<use x="60.818359" xlink:href="#d"/>
<use x="122.341797" xlink:href="#h"/>
<use x="163.439453" xlink:href="#j"/>
<use x="260.851562" xlink:href="#i"/>
<use x="288.634766" xlink:href="#g"/>
<use x="352.013672" xlink:href="#f"/>
<use x="413.292969" xlink:href="#l"/>
</g>
</g>
<path d="m684.53 349.27 2.36-4.9375q1.035-2.1654-1.1303-3.2004l-6.9855-3.339q-2.1654-1.035-3.2004 1.1303l-2.36 4.9375q-1.035 2.1654 1.1303 3.2004l6.9855 3.339q2.1654 1.035 3.2004-1.1303z" clip-path="url(#a)" fill="#fff" stroke="#fff"/>
<g clip-path="url(#a)">
<g transform="translate(680.87 347.52) rotate(-64.453) scale(.08 -.08)">
<use xlink:href="#m"/>
</g>
</g>
<path d="m728.62 396.45 1.2833-6.0248q0.49998-2.3473-1.8474-2.8473l-7.5726-1.613q-2.3473-0.49998-2.8473 1.8474l-1.2833 6.0248q-0.49998 2.3473 1.8474 2.8473l7.5726 1.613q2.3473 0.49998 2.8473-1.8474z" clip-path="url(#a)" fill="#fff" stroke="#fff"/>
<g clip-path="url(#a)">
<defs>
<path id="ao" d="m19.672 64.797v-56.688h11.922q15.094 0 22.094 6.8281 7 6.8438 7 21.594 0 14.641-7 21.453t-22.094 6.8125zm-9.8594 8.1094h20.266q21.188 0 31.094-8.8125 9.9219-8.8125 9.9219-27.562 0-18.859-9.9688-27.703-9.9531-8.8281-31.047-8.8281h-20.266z"/>
</defs>
<g transform="translate(724.65 395.61) rotate(-77.976) scale(.08 -.08)">
<use xlink:href="#ao"/>
</g>
</g>
<path d="m814.55 294.86 1.3665 4.6261q0.67991 2.3017 2.9816 1.6218l7.4253-2.1934q2.3017-0.67991 1.6218-2.9816l-1.3665-4.6261q-0.67991-2.3017-2.9816-1.6218l-7.4253 2.1934q-2.3017 0.67991-1.6218 2.9816z" clip-path="url(#a)" fill="#fff" stroke="#fff"/>
<g clip-path="url(#a)">
<defs>
<path id="u" d="m19.672 64.797v-27.391h12.406q6.8906 0 10.641 3.5625 3.7656 3.5625 3.7656 10.156 0 6.5469-3.7656 10.109-3.75 3.5625-10.641 3.5625zm-9.8594 8.1094h22.266q12.266 0 18.531-5.5469 6.2812-5.5469 6.2812-16.234 0-10.797-6.2812-16.312-6.2656-5.5156-18.531-5.5156h-12.406v-29.297h-9.8594z"/>
</defs>
<g transform="translate(818.45 293.71) rotate(73.543) scale(.08 -.08)">
<use xlink:href="#u"/>
</g>
</g>
<path d="m772.35 395.46 0.24707-6.155q0.096261-2.3981-2.3018-2.4943l-7.7363-0.31054q-2.3981-0.096261-2.4943 2.3018l-0.24707 6.155q-0.096261 2.3981 2.3018 2.4943l7.7363 0.31054q2.3981 0.096262 2.4943-2.3018z" clip-path="url(#a)" fill="#fff" stroke="#fff"/>
<g clip-path="url(#a)">
<g transform="translate(768.29 395.3) rotate(-87.701) scale(.08 -.08)">
<use xlink:href="#ao"/>
</g>
</g>
<path d="m885.32 199.56 4.9795 2.27q2.1838 0.99554 3.1793-1.1882l3.2117-7.045q0.99554-2.1838-1.1882-3.1793l-4.9795-2.27q-2.1838-0.99554-3.1793 1.1882l-3.2117 7.045q-0.99554 2.1838 1.1882 3.1793z" clip-path="url(#a)" fill="#fff" stroke="#fff"/>
<g clip-path="url(#a)">
<g transform="translate(887.01 195.86) rotate(24.507) scale(.08 -.08)">
<use xlink:href="#m"/>
</g>
</g>
<path d="m564.62 659.93 7.7194-34.43q0.52506-2.3419-1.8168-2.8669l-7.5549-1.6939q-2.3419-0.52506-2.8669 1.8168l-7.7194 34.43q-0.52506 2.3419 1.8168 2.8669l7.5549 1.6939q2.3419 0.52506 2.8669-1.8168z" clip-path="url(#a)" fill="#fff" stroke="#fff"/>
<g clip-path="url(#a)">
<g transform="translate(560.65 659.04) rotate(-77.363) scale(.08 -.08)">
<use xlink:href="#k"/>
<use x="60.818359" xlink:href="#d"/>
<use x="122.341797" xlink:href="#h"/>
<use x="163.439453" xlink:href="#j"/>
<use x="260.851562" xlink:href="#i"/>
<use x="288.634766" xlink:href="#g"/>
<use x="352.013672" xlink:href="#f"/>
<use x="413.292969" xlink:href="#l"/>
</g>
</g>
<path d="m595.46 625.5 7.7194 34.43q0.52506 2.3419 2.8669 1.8168l7.5549-1.6939q2.3419-0.52506 1.8168-2.8669l-7.7194-34.43q-0.52506-2.3419-2.8669-1.8168l-7.5549 1.6939q-2.3419 0.52506-1.8168 2.8669z" clip-path="url(#a)" fill="#fff" stroke="#fff"/>
<g clip-path="url(#a)">
<g transform="translate(599.42 624.61) rotate(77.363) scale(.08 -.08)">
<use xlink:href="#k"/>
<use x="60.818359" xlink:href="#d"/>
<use x="122.341797" xlink:href="#h"/>
<use x="163.439453" xlink:href="#j"/>
<use x="260.851562" xlink:href="#i"/>
<use x="288.634766" xlink:href="#g"/>
<use x="352.013672" xlink:href="#f"/>
<use x="413.292969" xlink:href="#l"/>
</g>
</g>
<path d="m577.63 590.38v5.855q0 2.4 2.4 2.4h7.7425q2.4 0 2.4-2.4v-5.855q0-2.4-2.4-2.4h-7.7425q-2.4 0-2.4 2.4z" clip-path="url(#a)" fill="#fff" stroke="#fff"/>
<g clip-path="url(#a)">
<g transform="translate(581.69 590.38) rotate(90) scale(.08 -.08)">
<use xlink:href="#aa"/>
</g>
</g>
<path d="m663.78 671.73v35.285q0 2.4 2.4 2.4h7.7425q2.4 0 2.4-2.4v-35.285q0-2.4-2.4-2.4h-7.7425q-2.4 0-2.4 2.4z" clip-path="url(#a)" fill="#fff" stroke="#fff"/>
<g clip-path="url(#a)">
<g transform="translate(667.84 671.73) rotate(90) scale(.08 -.08)">
<use xlink:href="#k"/>
<use x="60.818359" xlink:href="#d"/>
<use x="122.341797" xlink:href="#h"/>
<use x="163.439453" xlink:href="#j"/>
<use x="260.851562" xlink:href="#i"/>
<use x="288.634766" xlink:href="#g"/>
<use x="352.013672" xlink:href="#f"/>
<use x="413.292969" xlink:href="#l"/>
</g>
</g>
<path d="m828.8 502.53 3.2408-3.8795q1.5387-1.8419-0.30322-3.3805l-5.942-4.9638q-1.8419-1.5387-3.3805 0.30322l-3.2408 3.8795q-1.5387 1.8419 0.30322 3.3805l5.942 4.9638q1.8419 1.5387 3.3805-0.30322z" clip-path="url(#a)" fill="#fff" stroke="#fff"/>
<g clip-path="url(#a)">
<defs>
<path id="t" d="m9.8125 72.906h46.094v-8.3125h-36.234v-21.578h34.719v-8.2969h-34.719v-26.422h37.109v-8.2969h-46.969z"/>
</defs>
<g transform="translate(825.68 499.93) rotate(-50.125) scale(.08 -.08)">
<use xlink:href="#t"/>
</g>
</g>
<path d="m869.4 542.93 0.45312 4.5789q0.23635 2.3883 2.6247 2.152l7.7049-0.76246q2.3883-0.23635 2.152-2.6247l-0.45312-4.5789q-0.23635-2.3883-2.6247-2.152l-7.7049 0.76246q-2.3883 0.23635-2.152 2.6247z" clip-path="url(#a)" fill="#fff" stroke="#fff"/>
<g clip-path="url(#a)">
<defs>
<path id="an" d="m9.8125 72.906h41.891v-8.3125h-32.031v-21.484h28.906v-8.2969h-28.906v-34.812h-9.8594z"/>
</defs>
<g transform="translate(873.44 542.53) rotate(84.349) scale(.08 -.08)">
<use xlink:href="#an"/>
</g>
</g>
<path d="m890.58 543.87 1.7103 5.318q0.73481 2.2847 3.0196 1.5499l7.3707-2.3705q2.2847-0.73481 1.5499-3.0196l-1.7103-5.318q-0.73481-2.2847-3.0196-1.5499l-7.3707 2.3705q-2.2847 0.73481-1.5499 3.0196z" clip-path="url(#a)" fill="#fff" stroke="#fff"/>
<g clip-path="url(#a)">
<defs>
<path id="r" d="m64.406 67.281v-10.391q-4.9844 4.6406-10.625 6.9219-5.6406 2.2969-11.984 2.2969-12.5 0-19.141-7.6406t-6.6406-22.094q0-14.406 6.6406-22.047t19.141-7.6406q6.3438 0 11.984 2.2969t10.625 6.9375v-10.312q-5.1719-3.5156-10.969-5.2812-5.7812-1.75-12.219-1.75-16.562 0-26.094 10.125-9.5156 10.141-9.5156 27.672 0 17.578 9.5156 27.703 9.5312 10.141 26.094 10.141 6.5312 0 12.312-1.7344 5.7969-1.7344 10.875-5.2031z"/>
</defs>
<g transform="translate(894.45 542.62) rotate(72.171) scale(.08 -.08)">
<use xlink:href="#r"/>
</g>
</g>
<path d="m749.93 671.73v35.285q0 2.4 2.4 2.4h7.7425q2.4 0 2.4-2.4v-35.285q0-2.4-2.4-2.4h-7.7425q-2.4 0-2.4 2.4z" clip-path="url(#a)" fill="#fff" stroke="#fff"/>
<g clip-path="url(#a)">
<g transform="translate(754 671.73) rotate(90) scale(.08 -.08)">
<use xlink:href="#k"/>
<use x="60.818359" xlink:href="#d"/>
<use x="122.341797" xlink:href="#h"/>
<use x="163.439453" xlink:href="#j"/>
<use x="260.851562" xlink:href="#i"/>
<use x="288.634766" xlink:href="#g"/>
<use x="352.013672" xlink:href="#f"/>
<use x="413.292969" xlink:href="#l"/>
</g>
</g>
<path d="m994.12 447.49 0.46398-5.5394q0.20032-2.3916-2.1913-2.5919l-7.7155-0.64625q-2.3916-0.20032-2.5919 2.1913l-0.46398 5.5394q-0.20032 2.3916 2.1913 2.5919l7.7155 0.64625q2.3916 0.20032 2.5919-2.1913z" clip-path="url(#a)" fill="#fff" stroke="#fff"/>
<g clip-path="url(#a)">
<defs>
<path id="aj" d="m44.391 34.188q3.1719-1.0781 6.1719-4.5938t6.0312-9.6719l10.016-19.922h-10.609l-9.3125 18.703q-3.625 7.3281-7.0156 9.7188t-9.25 2.3906h-10.75v-30.812h-9.8594v72.906h22.266q12.5 0 18.656-5.2344 6.1562-5.2188 6.1562-15.766 0-6.8906-3.2031-11.438-3.2031-4.5312-9.2969-6.2812zm-24.719 30.609v-25.875h12.406q7.125 0 10.766 3.2969t3.6406 9.6875-3.6406 9.6406-10.766 3.25z"/>
</defs>
<g transform="translate(990.07 447.15) rotate(-85.212) scale(.08 -.08)">
<use xlink:href="#aj"/>
</g>
</g>
<path d="m1003.3 441.83 0.12882 5.0534q0.061161 2.3992 2.4604 2.3381l7.74-0.19731q2.3992-0.061162 2.3381-2.4604l-0.12882-5.0534q-0.061162-2.3992-2.4604-2.3381l-7.74 0.19731q-2.3992 0.061161-2.3381 2.4604z" clip-path="url(#a)" fill="#fff" stroke="#fff"/>
<g clip-path="url(#a)">
<g transform="translate(1007.4 441.73) rotate(88.54) scale(.08 -.08)">
<use xlink:href="#t"/>
</g>
</g>
<path d="m1009.4 296.48 1.2328 5.4485q0.52964 2.3408 2.8705 1.8112l7.5516-1.7086q2.3408-0.52964 1.8112-2.8705l-1.2328-5.4485q-0.52964-2.3408-2.8705-1.8112l-7.5516 1.7086q-2.3408 0.52964-1.8112 2.8705z" clip-path="url(#a)" fill="#fff" stroke="#fff"/>
<g clip-path="url(#a)">
<g transform="translate(1013.3 295.59) rotate(77.251) scale(.08 -.08)">
<use xlink:href="#r"/>
</g>
</g>
<path d="m965.32 671.73v35.285q0 2.4 2.4 2.4h7.7425q2.4 0 2.4-2.4v-35.285q0-2.4-2.4-2.4h-7.7425q-2.4 0-2.4 2.4z" clip-path="url(#a)" fill="#fff" stroke="#fff"/>
<g clip-path="url(#a)">
<g transform="translate(969.38 671.73) rotate(90) scale(.08 -.08)">
<use xlink:href="#k"/>
<use x="60.818359" xlink:href="#d"/>
<use x="122.341797" xlink:href="#h"/>
<use x="163.439453" xlink:href="#j"/>
<use x="260.851562" xlink:href="#i"/>
<use x="288.634766" xlink:href="#g"/>
<use x="352.013672" xlink:href="#f"/>
<use x="413.292969" xlink:href="#l"/>
</g>
</g>
<path d="m1008.4 671.73v35.285q0 2.4 2.4 2.4h7.7425q2.4 0 2.4-2.4v-35.285q0-2.4-2.4-2.4h-7.7425q-2.4 0-2.4 2.4z" clip-path="url(#a)" fill="#fff" stroke="#fff"/>
<g clip-path="url(#a)">
<g transform="translate(1012.5 671.73) rotate(90) scale(.08 -.08)">
<use xlink:href="#k"/>
<use x="60.818359" xlink:href="#d"/>
<use x="122.341797" xlink:href="#h"/>
<use x="163.439453" xlink:href="#j"/>
<use x="260.851562" xlink:href="#i"/>
<use x="288.634766" xlink:href="#g"/>
<use x="352.013672" xlink:href="#f"/>
<use x="413.292969" xlink:href="#l"/>
</g>
</g>
<path d="m805.78 453.78 5.003-2.2177q2.1941-0.9726 1.2215-3.1667l-3.1376-7.0782q-0.9726-2.1941-3.1667-1.2215l-5.003 2.2177q-2.1941 0.9726-1.2215 3.1667l3.1376 7.0782q0.9726 2.1941 3.1667 1.2215z" clip-path="url(#a)" fill="#fff" stroke="#fff"/>
<g clip-path="url(#a)">
<g transform="translate(804.14 450.06) rotate(-23.907) scale(.08 -.08)">
<use xlink:href="#m"/>
</g>
</g>
<path d="m1186.9 544.99 3.5517 4.1634q1.5576 1.8259 3.3835 0.26824l5.8903-5.025q1.8259-1.5576 0.26824-3.3835l-3.5517-4.1634q-1.5576-1.8259-3.3835-0.26824l-5.8903 5.025q-1.8259 1.5576-0.26824 3.3835z" clip-path="url(#a)" fill="#fff" stroke="#fff"/>
<g clip-path="url(#a)">
<g transform="translate(1190 542.35) rotate(49.533) scale(.08 -.08)">
<use xlink:href="#m"/>
</g>
</g>
<path d="m1036.2 493.21 0.49425 4.7984q0.24591 2.3874 2.6333 2.1415l7.7018-0.79331q2.3874-0.24591 2.1415-2.6333l-0.49425-4.7984q-0.24591-2.3874-2.6333-2.1415l-7.7018 0.79331q-2.3874 0.24591-2.1415 2.6333z" clip-path="url(#a)" fill="#fff" stroke="#fff"/>
<g clip-path="url(#a)">
<g transform="translate(1040.2 492.79) rotate(84.119) scale(.08 -.08)">
<use xlink:href="#u"/>
</g>
</g>
<path d="m1025.4 396.05 0.47313 5.452q0.20749 2.391 2.5985 2.1835l7.7135-0.66938q2.391-0.20749 2.1835-2.5985l-0.47313-5.452q-0.20749-2.391-2.5985-2.1835l-7.7135 0.66938q-2.391 0.20749-2.1835 2.5985z" clip-path="url(#a)" fill="#fff" stroke="#fff"/>
<g clip-path="url(#a)">
<g transform="translate(1029.5 395.7) rotate(85.04) scale(.08 -.08)">
<use xlink:href="#m"/>
</g>
</g>
<path d="m1057.4 493.65 1.4209 5.68q0.58242 2.3283 2.9107 1.7458l7.5111-1.8789q2.3283-0.58242 1.7458-2.9107l-1.4209-5.68q-0.58242-2.3283-2.9107-1.7458l-7.5111 1.8789q-2.3283 0.58242-1.7458 2.9107z" clip-path="url(#a)" fill="#fff" stroke="#fff"/>
<g clip-path="url(#a)">
<g transform="translate(1061.4 492.66) rotate(75.956) scale(.08 -.08)">
<use xlink:href="#aa"/>
</g>
</g>
<path d="m1051.5 671.73v35.285q0 2.4 2.4 2.4h7.7425q2.4 0 2.4-2.4v-35.285q0-2.4-2.4-2.4h-7.7425q-2.4 0-2.4 2.4z" clip-path="url(#a)" fill="#fff" stroke="#fff"/>
<g clip-path="url(#a)">
<g transform="translate(1055.5 671.73) rotate(90) scale(.08 -.08)">
<use xlink:href="#k"/>
<use x="60.818359" xlink:href="#d"/>
<use x="122.341797" xlink:href="#h"/>
<use x="163.439453" xlink:href="#j"/>
<use x="260.851562" xlink:href="#i"/>
<use x="288.634766" xlink:href="#g"/>
<use x="352.013672" xlink:href="#f"/>
<use x="413.292969" xlink:href="#l"/>
</g>
</g>
<path d="m808.7 503.28 5.3499-1.1521q2.3462-0.50525 1.841-2.8515l-1.6299-7.569q-0.50525-2.3462-2.8515-1.841l-5.3499 1.1521q-2.3462 0.50525-1.841 2.8515l1.6299 7.569q0.50525 2.3462 2.8515 1.841z" clip-path="url(#a)" fill="#fff" stroke="#fff"/>
<g clip-path="url(#a)">
<g transform="translate(807.84 499.31) rotate(-12.153) scale(.08 -.08)">
<use xlink:href="#m"/>
</g>
</g>
<path d="m1169.8 595.03 3.8043 3.9339q1.6684 1.7252 3.3936 0.056811l5.5656-5.3824q1.7252-1.6684 0.056811-3.3936l-3.8043-3.9339q-1.6684-1.7252-3.3936-0.056811l-5.5656 5.3824q-1.7252 1.6684-0.056811 3.3936z" clip-path="url(#a)" fill="#fff" stroke="#fff"/>
<g clip-path="url(#a)">
<g transform="translate(1172.7 592.21) rotate(45.959) scale(.08 -.08)">
<use xlink:href="#m"/>
</g>
</g>
<path d="m1117.2 500.85 4.1993 2.3738q2.0893 1.181 3.2703-0.90826l3.8101-6.7401q1.181-2.0893-0.90826-3.2703l-4.1993-2.3738q-2.0893-1.181-3.2703 0.90826l-3.8101 6.7401q-1.181 2.0893 0.90826 3.2703z" clip-path="url(#a)" fill="#fff" stroke="#fff"/>
<g clip-path="url(#a)">
<g transform="translate(1119.2 497.31) rotate(29.479) scale(.08 -.08)">
<use xlink:href="#u"/>
</g>
</g>
<path d="m1180.1 598.72 2.568-3.818q1.3395-1.9914-0.65197-3.3309l-6.4245-4.3212q-1.9914-1.3395-3.3309 0.65197l-2.568 3.818q-1.3395 1.9914 0.65197 3.3309l6.4245 4.3212q1.9914 1.3395 3.3309-0.65197z" clip-path="url(#a)" fill="#fff" stroke="#fff"/>
<g clip-path="url(#a)">
<g transform="translate(1176.8 596.45) rotate(-56.075) scale(.08 -.08)">
<use xlink:href="#an"/>
</g>
</g>
<path d="m1203.3 597.4 1.2221-5.4509q0.52506-2.3419-1.8168-2.8669l-7.5549-1.6939q-2.3419-0.52506-2.8669 1.8168l-1.2221 5.4509q-0.52506 2.3419 1.8168 2.8669l7.5549 1.6939q2.3419 0.52506 2.8669-1.8168z" clip-path="url(#a)" fill="#fff" stroke="#fff"/>
<g clip-path="url(#a)">
<g transform="translate(1199.3 596.52) rotate(-77.363) scale(.08 -.08)">
<use xlink:href="#r"/>
</g>
</g>
<path d="m1212.5 591.82 1.2809 5.7132q0.52506 2.3419 2.8669 1.8168l7.5549-1.6939q2.3419-0.52506 1.8168-2.8669l-1.2809-5.7132q-0.52506-2.3419-2.8669-1.8168l-7.5549 1.6939q-2.3419 0.52506-1.8168 2.8669z" clip-path="url(#a)" fill="#fff" stroke="#fff"/>
<g clip-path="url(#a)">
<g transform="translate(1216.5 590.93) rotate(77.363) scale(.08 -.08)">
<use xlink:href="#aa"/>
</g>
</g>
<path d="m1234 594.38 3.2677 4.8583q1.3395 1.9914 3.3309 0.65197l6.4245-4.3212q1.9914-1.3395 0.65197-3.3309l-3.2677-4.8583q-1.3395-1.9914-3.3309-0.65197l-6.4245 4.3212q-1.9914 1.3395-0.65197 3.3309z" clip-path="url(#a)" fill="#fff" stroke="#fff"/>
<g clip-path="url(#a)">
<g transform="translate(1237.4 592.11) rotate(56.075) scale(.08 -.08)">
<use xlink:href="#aa"/>
</g>
</g>
<path d="m1137.6 671.73v35.285q0 2.4 2.4 2.4h7.7425q2.4 0 2.4-2.4v-35.285q0-2.4-2.4-2.4h-7.7425q-2.4 0-2.4 2.4z" clip-path="url(#a)" fill="#fff" stroke="#fff"/>
<g clip-path="url(#a)">
<g transform="translate(1141.7 671.73) rotate(90) scale(.08 -.08)">
<use xlink:href="#k"/>
<use x="60.818359" xlink:href="#d"/>
<use x="122.341797" xlink:href="#h"/>
<use x="163.439453" xlink:href="#j"/>
<use x="260.851562" xlink:href="#i"/>
<use x="288.634766" xlink:href="#g"/>
<use x="352.013672" xlink:href="#f"/>
<use x="413.292969" xlink:href="#l"/>
</g>
</g>
<path d="m1180.7 671.73v35.285q0 2.4 2.4 2.4h7.7425q2.4 0 2.4-2.4v-35.285q0-2.4-2.4-2.4h-7.7425q-2.4 0-2.4 2.4z" clip-path="url(#a)" fill="#fff" stroke="#fff"/>
<g clip-path="url(#a)">
<g transform="translate(1184.8 671.73) rotate(90) scale(.08 -.08)">
<use xlink:href="#k"/>
<use x="60.818359" xlink:href="#d"/>
<use x="122.341797" xlink:href="#h"/>
<use x="163.439453" xlink:href="#j"/>
<use x="260.851562" xlink:href="#i"/>
<use x="288.634766" xlink:href="#g"/>
<use x="352.013672" xlink:href="#f"/>
<use x="413.292969" xlink:href="#l"/>
</g>
</g>
<path d="m752.54 599.09 3.0261-4.0491q1.4367-1.9224-0.48571-3.3592l-6.2019-4.635q-1.9224-1.4367-3.3592 0.48571l-3.0261 4.0491q-1.4367 1.9224 0.48571 3.3592l6.2019 4.635q1.9224 1.4367 3.3592-0.48571z" clip-path="url(#a)" fill="#fff" stroke="#fff"/>
<g clip-path="url(#a)">
<g transform="translate(749.28 596.65) rotate(-53.227) scale(.08 -.08)">
<use xlink:href="#t"/>
</g>
</g>
<path d="m785.53 591.73 0.74727 4.9995q0.35479 2.3736 2.7284 2.0188l7.6574-1.1446q2.3736-0.35479 2.0188-2.7284l-0.74727-4.9995q-0.35479-2.3736-2.7284-2.0188l-7.6574 1.1446q-2.3736 0.35479-2.0188 2.7284z" clip-path="url(#a)" fill="#fff" stroke="#fff"/>
<g clip-path="url(#a)">
<g transform="translate(789.55 591.13) rotate(81.499) scale(.08 -.08)">
<use xlink:href="#t"/>
</g>
</g>
<path d="m806.83 594.13 2.8666 4.7946q1.2316 2.0599 3.2915 0.82833l6.6453-3.9731q2.0599-1.2316 0.82833-3.2915l-2.8666-4.7946q-1.2316-2.0599-3.2915-0.82833l-6.6453 3.9731q-2.0599 1.2316-0.82833 3.2915z" clip-path="url(#a)" fill="#fff" stroke="#fff"/>
<g clip-path="url(#a)">
<g transform="translate(810.31 592.04) rotate(59.126) scale(.08 -.08)">
<use xlink:href="#r"/>
</g>
</g>
<path d="m879.17 671.73v35.285q0 2.4 2.4 2.4h7.7425q2.4 0 2.4-2.4v-35.285q0-2.4-2.4-2.4h-7.7425q-2.4 0-2.4 2.4z" clip-path="url(#a)" fill="#fff" stroke="#fff"/>
<g clip-path="url(#a)">
<g transform="translate(883.23 671.73) rotate(90) scale(.08 -.08)">
<use xlink:href="#k"/>
<use x="60.818359" xlink:href="#d"/>
<use x="122.341797" xlink:href="#h"/>
<use x="163.439453" xlink:href="#j"/>
<use x="260.851562" xlink:href="#i"/>
<use x="288.634766" xlink:href="#g"/>
<use x="352.013672" xlink:href="#f"/>
<use x="413.292969" xlink:href="#l"/>
</g>
</g>
<path d="m922.24 671.73v35.285q0 2.4 2.4 2.4h7.7425q2.4 0 2.4-2.4v-35.285q0-2.4-2.4-2.4h-7.7425q-2.4 0-2.4 2.4z" clip-path="url(#a)" fill="#fff" stroke="#fff"/>
<g clip-path="url(#a)">
<g transform="translate(926.31 671.73) rotate(90) scale(.08 -.08)">
<use xlink:href="#k"/>
<use x="60.818359" xlink:href="#d"/>
<use x="122.341797" xlink:href="#h"/>
<use x="163.439453" xlink:href="#j"/>
<use x="260.851562" xlink:href="#i"/>
<use x="288.634766" xlink:href="#g"/>
<use x="352.013672" xlink:href="#f"/>
<use x="413.292969" xlink:href="#l"/>
</g>
</g>
<path d="m706.86 671.73v35.285q0 2.4 2.4 2.4h7.7425q2.4 0 2.4-2.4v-35.285q0-2.4-2.4-2.4h-7.7425q-2.4 0-2.4 2.4z" clip-path="url(#a)" fill="#fff" stroke="#fff"/>
<g clip-path="url(#a)">
<g transform="translate(710.92 671.73) rotate(90) scale(.08 -.08)">
<use xlink:href="#k"/>
<use x="60.818359" xlink:href="#d"/>
<use x="122.341797" xlink:href="#h"/>
<use x="163.439453" xlink:href="#j"/>
<use x="260.851562" xlink:href="#i"/>
<use x="288.634766" xlink:href="#g"/>
<use x="352.013672" xlink:href="#f"/>
<use x="413.292969" xlink:href="#l"/>
</g>
</g>
<path d="m793.01 671.73v35.285q0 2.4 2.4 2.4h7.7425q2.4 0 2.4-2.4v-35.285q0-2.4-2.4-2.4h-7.7425q-2.4 0-2.4 2.4z" clip-path="url(#a)" fill="#fff" stroke="#fff"/>
<g clip-path="url(#a)">
<g transform="translate(797.07 671.73) rotate(90) scale(.08 -.08)">
<use xlink:href="#k"/>
<use x="60.818359" xlink:href="#d"/>
<use x="122.341797" xlink:href="#h"/>
<use x="163.439453" xlink:href="#j"/>
<use x="260.851562" xlink:href="#i"/>
<use x="288.634766" xlink:href="#g"/>
<use x="352.013672" xlink:href="#f"/>
<use x="413.292969" xlink:href="#l"/>
</g>
</g>
<path d="m836.09 671.73v35.285q0 2.4 2.4 2.4h7.7425q2.4 0 2.4-2.4v-35.285q0-2.4-2.4-2.4h-7.7425q-2.4 0-2.4 2.4z" clip-path="url(#a)" fill="#fff" stroke="#fff"/>
<g clip-path="url(#a)">
<g transform="translate(840.15 671.73) rotate(90) scale(.08 -.08)">
<use xlink:href="#k"/>
<use x="60.818359" xlink:href="#d"/>
<use x="122.341797" xlink:href="#h"/>
<use x="163.439453" xlink:href="#j"/>
<use x="260.851562" xlink:href="#i"/>
<use x="288.634766" xlink:href="#g"/>
<use x="352.013672" xlink:href="#f"/>
<use x="413.292969" xlink:href="#l"/>
</g>
</g>
<path d="m60.699 671.73v35.285q0 2.4 2.4 2.4h7.7425q2.4 0 2.4-2.4v-35.285q0-2.4-2.4-2.4h-7.7425q-2.4 0-2.4 2.4z" clip-path="url(#a)" fill="#fff" stroke="#fff"/>
<g clip-path="url(#a)">
<g transform="translate(64.763 671.73) rotate(90) scale(.08 -.08)">
<use xlink:href="#k"/>
<use x="60.818359" xlink:href="#d"/>
<use x="122.341797" xlink:href="#h"/>
<use x="163.439453" xlink:href="#j"/>
<use x="260.851562" xlink:href="#i"/>
<use x="288.634766" xlink:href="#g"/>
<use x="352.013672" xlink:href="#f"/>
<use x="413.292969" xlink:href="#l"/>
</g>
</g>
<path d="m103.78 671.73v35.285q0 2.4 2.4 2.4h7.7425q2.4 0 2.4-2.4v-35.285q0-2.4-2.4-2.4h-7.7425q-2.4 0-2.4 2.4z" clip-path="url(#a)" fill="#fff" stroke="#fff"/>
<g clip-path="url(#a)">
<g transform="translate(107.84 671.73) rotate(90) scale(.08 -.08)">
<use xlink:href="#k"/>
<use x="60.818359" xlink:href="#d"/>
<use x="122.341797" xlink:href="#h"/>
<use x="163.439453" xlink:href="#j"/>
<use x="260.851562" xlink:href="#i"/>
<use x="288.634766" xlink:href="#g"/>
<use x="352.013672" xlink:href="#f"/>
<use x="413.292969" xlink:href="#l"/>
</g>
</g>
<path d="m226.38 499.92 2.1466-4.5766q1.0191-2.1729-1.1537-3.192l-7.0098-3.2878q-2.1729-1.0191-3.192 1.1537l-2.1466 4.5766q-1.0191 2.1729 1.1537 3.192l7.0098 3.2878q2.1729 1.0191 3.192-1.1537z" clip-path="url(#a)" fill="#fff" stroke="#fff"/>
<g clip-path="url(#a)">
<g transform="translate(222.7 498.19) rotate(-64.872) scale(.08 -.08)">
<use xlink:href="#t"/>
</g>
</g>
<path d="m248.51 499.29 1.5489-4.8119q0.73537-2.2846-1.5492-3.0199l-7.3701-2.3723q-2.2846-0.73537-3.0199 1.5492l-1.5489 4.8119q-0.73537 2.2846 1.5492 3.0199l7.3701 2.3723q2.2846 0.73537 3.0199-1.5492z" clip-path="url(#a)" fill="#fff" stroke="#fff"/>
<g clip-path="url(#a)">
<g transform="translate(244.64 498.05) rotate(-72.157) scale(.08 -.08)">
<use xlink:href="#t"/>
</g>
</g>
<path d="m270.55 498.8 0.96156-5.5029q0.41311-2.3642-1.9511-2.7773l-7.6269-1.3327q-2.3642-0.41311-2.7773 1.9511l-0.96156 5.5029q-0.41311 2.3642 1.9511 2.7773l7.6269 1.3327q2.3642 0.41311 2.7773-1.9511z" clip-path="url(#a)" fill="#fff" stroke="#fff"/>
<g clip-path="url(#a)">
<g transform="translate(266.55 498.1) rotate(-80.088) scale(.08 -.08)">
<use xlink:href="#r"/>
</g>
</g>
<path d="m427.32 403.31 4.7694 1.675q2.2644 0.79524 3.0597-1.4692l2.5655-7.3051q0.79524-2.2644-1.4692-3.0597l-4.7694-1.675q-2.2644-0.79524-3.0597 1.4692l-2.5655 7.3051q-0.79524 2.2644 1.4692 3.0597z" clip-path="url(#a)" fill="#fff" stroke="#fff"/>
<g clip-path="url(#a)">
<g transform="translate(428.66 399.48) rotate(19.351) scale(.08 -.08)">
<use xlink:href="#t"/>
</g>
</g>
<path d="m146.85 671.73v35.285q0 2.4 2.4 2.4h7.7425q2.4 0 2.4-2.4v-35.285q0-2.4-2.4-2.4h-7.7425q-2.4 0-2.4 2.4z" clip-path="url(#a)" fill="#fff" stroke="#fff"/>
<g clip-path="url(#a)">
<g transform="translate(150.92 671.73) rotate(90) scale(.08 -.08)">
<use xlink:href="#k"/>
<use x="60.818359" xlink:href="#d"/>
<use x="122.341797" xlink:href="#h"/>
<use x="163.439453" xlink:href="#j"/>
<use x="260.851562" xlink:href="#i"/>
<use x="288.634766" xlink:href="#g"/>
<use x="352.013672" xlink:href="#f"/>
<use x="413.292969" xlink:href="#l"/>
</g>
</g>
<path d="m189.93 671.73v35.285q0 2.4 2.4 2.4h7.7425q2.4 0 2.4-2.4v-35.285q0-2.4-2.4-2.4h-7.7425q-2.4 0-2.4 2.4z" clip-path="url(#a)" fill="#fff" stroke="#fff"/>
<g clip-path="url(#a)">
<g transform="translate(193.99 671.73) rotate(90) scale(.08 -.08)">
<use xlink:href="#k"/>
<use x="60.818359" xlink:href="#d"/>
<use x="122.341797" xlink:href="#h"/>
<use x="163.439453" xlink:href="#j"/>
<use x="260.851562" xlink:href="#i"/>
<use x="288.634766" xlink:href="#g"/>
<use x="352.013672" xlink:href="#f"/>
<use x="413.292969" xlink:href="#l"/>
</g>
</g>
<path d="m233.01 671.73v35.285q0 2.4 2.4 2.4h7.7425q2.4 0 2.4-2.4v-35.285q0-2.4-2.4-2.4h-7.7425q-2.4 0-2.4 2.4z" clip-path="url(#a)" fill="#fff" stroke="#fff"/>
<g clip-path="url(#a)">
<g transform="translate(237.07 671.73) rotate(90) scale(.08 -.08)">
<use xlink:href="#k"/>
<use x="60.818359" xlink:href="#d"/>
<use x="122.341797" xlink:href="#h"/>
<use x="163.439453" xlink:href="#j"/>
<use x="260.851562" xlink:href="#i"/>
<use x="288.634766" xlink:href="#g"/>
<use x="352.013672" xlink:href="#f"/>
<use x="413.292969" xlink:href="#l"/>
</g>
</g>
<path d="m406.98 551.4 4.7349-2.7439q2.0765-1.2034 0.87315-3.2799l-3.8821-6.6989q-1.2034-2.0765-3.2799-0.87315l-4.7349 2.7439q-2.0765 1.2034-0.87315 3.2799l3.8821 6.6989q1.2034 2.0765 3.2799 0.87315z" clip-path="url(#a)" fill="#fff" stroke="#fff"/>
<g clip-path="url(#a)">
<g transform="translate(404.94 547.89) rotate(-30.093) scale(.08 -.08)">
<use xlink:href="#m"/>
</g>
</g>
<path d="m983.09 597.66 5.1666 1.804q2.2659 0.79114 3.057-1.4747l2.5523-7.3097q0.79115-2.2659-1.4747-3.057l-5.1666-1.804q-2.2659-0.79115-3.057 1.4747l-2.5523 7.3097q-0.79115 2.2659 1.4747 3.057z" clip-path="url(#a)" fill="#fff" stroke="#fff"/>
<g clip-path="url(#a)">
<g transform="translate(984.43 593.82) rotate(19.247) scale(.08 -.08)">
<use xlink:href="#m"/>
</g>
</g>
<path d="m429.21 551.16 4.016-2.6721q1.9981-1.3295 0.66864-3.3276l-4.289-6.446q-1.3295-1.9981-3.3276-0.66864l-4.016 2.6721q-1.9981 1.3295-0.66864 3.3276l4.289 6.446q1.3295 1.9981 3.3276 0.66864z" clip-path="url(#a)" fill="#fff" stroke="#fff"/>
<g clip-path="url(#a)">
<g transform="translate(426.96 547.78) rotate(-33.638) scale(.08 -.08)">
<use xlink:href="#u"/>
</g>
</g>
<path d="m471.04 503.41 4.9412-2.3522q2.167-1.0316 1.1355-3.1986l-3.3278-6.9908q-1.0316-2.167-3.1986-1.1355l-4.9412 2.3522q-2.167 1.0316-1.1355 3.1986l3.3278 6.9908q1.0316 2.167 3.1986 1.1355z" clip-path="url(#a)" fill="#fff" stroke="#fff"/>
<g clip-path="url(#a)">
<g transform="translate(469.3 499.74) rotate(-25.456) scale(.08 -.08)">
<use xlink:href="#m"/>
</g>
</g>
<path d="m276.09 671.73v35.285q0 2.4 2.4 2.4h7.7425q2.4 0 2.4-2.4v-35.285q0-2.4-2.4-2.4h-7.7425q-2.4 0-2.4 2.4z" clip-path="url(#a)" fill="#fff" stroke="#fff"/>
<g clip-path="url(#a)">
<g transform="translate(280.15 671.73) rotate(90) scale(.08 -.08)">
<use xlink:href="#k"/>
<use x="60.818359" xlink:href="#d"/>
<use x="122.341797" xlink:href="#h"/>
<use x="163.439453" xlink:href="#j"/>
<use x="260.851562" xlink:href="#i"/>
<use x="288.634766" xlink:href="#g"/>
<use x="352.013672" xlink:href="#f"/>
<use x="413.292969" xlink:href="#l"/>
</g>
</g>
<path d="m351.56 598.41 2.2744-5.0722q0.98198-2.1899-1.2079-3.1719l-7.0648-3.1679q-2.1899-0.98198-3.1719 1.2079l-2.2744 5.0722q-0.98198 2.1899 1.2079 3.1719l7.0648 3.1679q2.1899 0.98198 3.1719-1.2079z" clip-path="url(#a)" fill="#fff" stroke="#fff"/>
<g clip-path="url(#a)">
<g transform="translate(347.85 596.75) rotate(-65.848) scale(.08 -.08)">
<use xlink:href="#aj"/>
</g>
</g>
<path d="m362.24 590.51v5.5862q0 2.4 2.4 2.4h7.7425q2.4 0 2.4-2.4v-5.5862q0-2.4-2.4-2.4h-7.7425q-2.4 0-2.4 2.4z" clip-path="url(#a)" fill="#fff" stroke="#fff"/>
<g clip-path="url(#a)">
<g transform="translate(366.3 590.51) rotate(90) scale(.08 -.08)">
<use xlink:href="#r"/>
</g>
</g>
<path d="m383.29 593.57 2.0683 4.6125q0.98198 2.1899 3.1719 1.2079l7.0648-3.1679q2.1899-0.98198 1.2079-3.1719l-2.0683-4.6125q-0.98198-2.1899-3.1719-1.2079l-7.0648 3.1679q-2.1899 0.98198-1.2079 3.1719z" clip-path="url(#a)" fill="#fff" stroke="#fff"/>
<g clip-path="url(#a)">
<g transform="translate(387 591.9) rotate(65.848) scale(.08 -.08)">
<use xlink:href="#t"/>
</g>
</g>
<path d="m319.16 671.73v35.285q0 2.4 2.4 2.4h7.7425q2.4 0 2.4-2.4v-35.285q0-2.4-2.4-2.4h-7.7425q-2.4 0-2.4 2.4z" clip-path="url(#a)" fill="#fff" stroke="#fff"/>
<g clip-path="url(#a)">
<g transform="translate(323.23 671.73) rotate(90) scale(.08 -.08)">
<use xlink:href="#k"/>
<use x="60.818359" xlink:href="#d"/>
<use x="122.341797" xlink:href="#h"/>
<use x="163.439453" xlink:href="#j"/>
<use x="260.851562" xlink:href="#i"/>
<use x="288.634766" xlink:href="#g"/>
<use x="352.013672" xlink:href="#f"/>
<use x="413.292969" xlink:href="#l"/>
</g>
</g>
<path d="m362.24 671.73v35.285q0 2.4 2.4 2.4h7.7425q2.4 0 2.4-2.4v-35.285q0-2.4-2.4-2.4h-7.7425q-2.4 0-2.4 2.4z" clip-path="url(#a)" fill="#fff" stroke="#fff"/>
<g clip-path="url(#a)">
<g transform="translate(366.3 671.73) rotate(90) scale(.08 -.08)">
<use xlink:href="#k"/>
<use x="60.818359" xlink:href="#d"/>
<use x="122.341797" xlink:href="#h"/>
<use x="163.439453" xlink:href="#j"/>
<use x="260.851562" xlink:href="#i"/>
<use x="288.634766" xlink:href="#g"/>
<use x="352.013672" xlink:href="#f"/>
<use x="413.292969" xlink:href="#l"/>
</g>
</g>
<path d="m405.32 671.73v35.285q0 2.4 2.4 2.4h7.7425q2.4 0 2.4-2.4v-35.285q0-2.4-2.4-2.4h-7.7425q-2.4 0-2.4 2.4z" clip-path="url(#a)" fill="#fff" stroke="#fff"/>
<g clip-path="url(#a)">
<g transform="translate(409.38 671.73) rotate(90) scale(.08 -.08)">
<use xlink:href="#k"/>
<use x="60.818359" xlink:href="#d"/>
<use x="122.341797" xlink:href="#h"/>
<use x="163.439453" xlink:href="#j"/>
<use x="260.851562" xlink:href="#i"/>
<use x="288.634766" xlink:href="#g"/>
<use x="352.013672" xlink:href="#f"/>
<use x="413.292969" xlink:href="#l"/>
</g>
</g>
<path d="m315.5 149.46 8.2967-5.4607q2.0047-1.3195 0.68526-3.3242l-4.2567-6.4674q-1.3195-2.0047-3.3242-0.68526l-8.2967 5.4607q-2.0047 1.3195-0.68526 3.3242l4.2567 6.4674q1.3195 2.0047 3.3242 0.68526z" clip-path="url(#a)" fill="#fff" stroke="#fff"/>
<g clip-path="url(#a)">
<g transform="translate(313.27 146.06) rotate(-33.352) scale(.08 -.08)">
<use xlink:href="#v"/>
<use x="55.744141" xlink:href="#m"/>
</g>
</g>
<path d="m480.72 333.85 0.34973 10.01q0.083799 2.3985 2.4823 2.3147l7.7378-0.27034q2.3985-0.083798 2.3147-2.4823l-0.34973-10.01q-0.083799-2.3985-2.4823-2.3147l-7.7378 0.27034q-2.3985 0.083798-2.3147 2.4823z" clip-path="url(#a)" fill="#fff" stroke="#fff"/>
<g clip-path="url(#a)">
<g transform="translate(484.79 333.71) rotate(87.999) scale(.08 -.08)">
<use xlink:href="#v"/>
<use x="55.712891" xlink:href="#aj"/>
</g>
</g>
<path d="m619.62 93.662 9.3539 3.3405q2.2602 0.80716 3.0674-1.453l2.6039-7.2915q0.80716-2.2602-1.453-3.0674l-9.3539-3.3405q-2.2602-0.80716-3.0674 1.453l-2.6039 7.2915q-0.80716 2.2602 1.453 3.0674z" clip-path="url(#a)" fill="#fff" stroke="#fff"/>
<g clip-path="url(#a)">
<g transform="translate(620.98 89.835) rotate(19.653) scale(.08 -.08)">
<use xlink:href="#v"/>
<use x="55.744141" xlink:href="#m"/>
</g>
</g>
<path d="m448.39 671.73v35.285q0 2.4 2.4 2.4h7.7425q2.4 0 2.4-2.4v-35.285q0-2.4-2.4-2.4h-7.7425q-2.4 0-2.4 2.4z" clip-path="url(#a)" fill="#fff" stroke="#fff"/>
<g clip-path="url(#a)">
<g transform="translate(452.46 671.73) rotate(90) scale(.08 -.08)">
<use xlink:href="#k"/>
<use x="60.818359" xlink:href="#d"/>
<use x="122.341797" xlink:href="#h"/>
<use x="163.439453" xlink:href="#j"/>
<use x="260.851562" xlink:href="#i"/>
<use x="288.634766" xlink:href="#g"/>
<use x="352.013672" xlink:href="#f"/>
<use x="413.292969" xlink:href="#l"/>
</g>
</g>
<path d="m577.63 671.73v35.285q0 2.4 2.4 2.4h7.7425q2.4 0 2.4-2.4v-35.285q0-2.4-2.4-2.4h-7.7425q-2.4 0-2.4 2.4z" clip-path="url(#a)" fill="#fff" stroke="#fff"/>
<g clip-path="url(#a)">
<g transform="translate(581.69 671.73) rotate(90) scale(.08 -.08)">
<use xlink:href="#k"/>
<use x="60.818359" xlink:href="#d"/>
<use x="122.341797" xlink:href="#h"/>
<use x="163.439453" xlink:href="#j"/>
<use x="260.851562" xlink:href="#i"/>
<use x="288.634766" xlink:href="#g"/>
<use x="352.013672" xlink:href="#f"/>
<use x="413.292969" xlink:href="#l"/>
</g>
</g>
<path d="m1094.6 671.73v35.285q0 2.4 2.4 2.4h7.7425q2.4 0 2.4-2.4v-35.285q0-2.4-2.4-2.4h-7.7425q-2.4 0-2.4 2.4z" clip-path="url(#a)" fill="#fff" stroke="#fff"/>
<g clip-path="url(#a)">
<g transform="translate(1098.6 671.73) rotate(90) scale(.08 -.08)">
<use xlink:href="#k"/>
<use x="60.818359" xlink:href="#d"/>
<use x="122.341797" xlink:href="#h"/>
<use x="163.439453" xlink:href="#j"/>
<use x="260.851562" xlink:href="#i"/>
<use x="288.634766" xlink:href="#g"/>
<use x="352.013672" xlink:href="#f"/>
<use x="413.292969" xlink:href="#l"/>
</g>
</g>
<path d="m1223.8 671.73v35.285q0 2.4 2.4 2.4h7.7425q2.4 0 2.4-2.4v-35.285q0-2.4-2.4-2.4h-7.7425q-2.4 0-2.4 2.4z" clip-path="url(#a)" fill="#fff" stroke="#fff"/>
<g clip-path="url(#a)">
<g transform="translate(1227.8 671.73) rotate(90) scale(.08 -.08)">
<use xlink:href="#k"/>
<use x="60.818359" xlink:href="#d"/>
<use x="122.341797" xlink:href="#h"/>
<use x="163.439453" xlink:href="#j"/>
<use x="260.851562" xlink:href="#i"/>
<use x="288.634766" xlink:href="#g"/>
<use x="352.013672" xlink:href="#f"/>
<use x="413.292969" xlink:href="#l"/>
</g>
</g>
<path d="m1266.9 671.73v35.285q0 2.4 2.4 2.4h7.7425q2.4 0 2.4-2.4v-35.285q0-2.4-2.4-2.4h-7.7425q-2.4 0-2.4 2.4z" clip-path="url(#a)" fill="#fff" stroke="#fff"/>
<g clip-path="url(#a)">
<g transform="translate(1270.9 671.73) rotate(90) scale(.08 -.08)">
<use xlink:href="#k"/>
<use x="60.818359" xlink:href="#d"/>
<use x="122.341797" xlink:href="#h"/>
<use x="163.439453" xlink:href="#j"/>
<use x="260.851562" xlink:href="#i"/>
<use x="288.634766" xlink:href="#g"/>
<use x="352.013672" xlink:href="#f"/>
<use x="413.292969" xlink:href="#l"/>
</g>
</g>
<defs>
<path id="b" d="m0 8.6603c2.2967 0 4.4997-0.9125 6.1237-2.5365 1.624-1.624 2.5365-3.827 2.5365-6.1237s-0.9125-4.4997-2.5365-6.1237c-1.624-1.624-3.827-2.5365-6.1237-2.5365s-4.4997 0.9125-6.1237 2.5365c-1.624 1.624-2.5365 3.827-2.5365 6.1237s0.9125 4.4997 2.5365 6.1237c1.624 1.624 3.827 2.5365 6.1237 2.5365z"/>
</defs>
<g clip-path="url(#a)">
<use x="66.970685" y="737.407235" fill="#ffffff" stroke="#ffffff" xlink:href="#b"/>
</g>
<g clip-path="url(#a)">
<use x="110.047845" y="737.407235" fill="#ffffff" stroke="#ffffff" xlink:href="#b"/>
</g>
<g clip-path="url(#a)">
<use x="153.125005" y="737.407235" fill="#ffffff" stroke="#ffffff" xlink:href="#b"/>
</g>
<g clip-path="url(#a)">
<use x="196.202165" y="737.407235" fill="#ffffff" stroke="#ffffff" xlink:href="#b"/>
</g>
<g clip-path="url(#a)">
<use x="239.279325" y="737.407235" fill="#ffffff" stroke="#ffffff" xlink:href="#b"/>
</g>
<g clip-path="url(#a)">
<use x="282.356485" y="737.407235" fill="#ffffff" stroke="#ffffff" xlink:href="#b"/>
</g>
<g clip-path="url(#a)">
<use x="325.433645" y="737.407235" fill="#ffffff" stroke="#ffffff" xlink:href="#b"/>
</g>
<g clip-path="url(#a)">
<use x="368.510806" y="737.407235" fill="#ffffff" stroke="#ffffff" xlink:href="#b"/>
</g>
<g clip-path="url(#a)">
<use x="411.587966" y="737.407235" fill="#ffffff" stroke="#ffffff" xlink:href="#b"/>
</g>
<g clip-path="url(#a)">
<use x="454.665126" y="737.407235" fill="#ffffff" stroke="#ffffff" xlink:href="#b"/>
</g>
<g clip-path="url(#a)">
<use x="497.742286" y="737.407235" fill="#ffffff" stroke="#ffffff" xlink:href="#b"/>
</g>
<g clip-path="url(#a)">
<use x="540.819446" y="737.407235" fill="#ffffff" stroke="#ffffff" xlink:href="#b"/>
</g>
<g clip-path="url(#a)">
<use x="583.896606" y="737.407235" fill="#ffffff" stroke="#ffffff" xlink:href="#b"/>
</g>
<g clip-path="url(#a)">
<use x="626.973766" y="737.407235" fill="#ffffff" stroke="#ffffff" xlink:href="#b"/>
</g>
<g clip-path="url(#a)">
<use x="670.050926" y="737.407235" fill="#ffffff" stroke="#ffffff" xlink:href="#b"/>
</g>
<g clip-path="url(#a)">
<use x="713.128087" y="737.407235" fill="#ffffff" stroke="#ffffff" xlink:href="#b"/>
</g>
<g clip-path="url(#a)">
<use x="756.205247" y="737.407235" fill="#ffffff" stroke="#ffffff" xlink:href="#b"/>
</g>
<g clip-path="url(#a)">
<use x="799.282407" y="737.407235" fill="#ffffff" stroke="#ffffff" xlink:href="#b"/>
</g>
<g clip-path="url(#a)">
<use x="842.359567" y="737.407235" fill="#ffffff" stroke="#ffffff" xlink:href="#b"/>
</g>
<g clip-path="url(#a)">
<use x="885.436727" y="737.407235" fill="#ffffff" stroke="#ffffff" xlink:href="#b"/>
</g>
<g clip-path="url(#a)">
<use x="928.513887" y="737.407235" fill="#ffffff" stroke="#ffffff" xlink:href="#b"/>
</g>
<g clip-path="url(#a)">
<use x="971.591047" y="737.407235" fill="#ffffff" stroke="#ffffff" xlink:href="#b"/>
</g>
<g clip-path="url(#a)">
<use x="1014.668208" y="737.407235" fill="#ffffff" stroke="#ffffff" xlink:href="#b"/>
</g>
<g clip-path="url(#a)">
<use x="1057.745368" y="737.407235" fill="#ffffff" stroke="#ffffff" xlink:href="#b"/>
</g>
<g clip-path="url(#a)">
<use x="1100.822528" y="737.407235" fill="#ffffff" stroke="#ffffff" xlink:href="#b"/>
</g>
<g clip-path="url(#a)">
<use x="1143.899688" y="737.407235" fill="#ffffff" stroke="#ffffff" xlink:href="#b"/>
</g>
<g clip-path="url(#a)">
<use x="1186.976848" y="737.407235" fill="#ffffff" stroke="#ffffff" xlink:href="#b"/>
</g>
<g clip-path="url(#a)">
<use x="1230.054008" y="737.407235" fill="#ffffff" stroke="#ffffff" xlink:href="#b"/>
</g>
<g clip-path="url(#a)">
<use x="1273.131168" y="737.407235" fill="#ffffff" stroke="#ffffff" xlink:href="#b"/>
</g>
<g clip-path="url(#a)">
<use x="471.109233" y="35.926099" fill="#ffffff" stroke="#ffffff" xlink:href="#b"/>
</g>
<g clip-path="url(#a)">
<use x="155.817327" y="247.052413" fill="#ffffff" stroke="#ffffff" xlink:href="#b"/>
</g>
<g clip-path="url(#a)">
<use x="497.742286" y="641.340747" fill="#ffffff" stroke="#ffffff" xlink:href="#b"/>
</g>
<g clip-path="url(#a)">
<use x="776.212194" y="142.927203" fill="#ffffff" stroke="#ffffff" xlink:href="#b"/>
</g>
<g clip-path="url(#a)">
<use x="583.896606" y="545.27426" fill="#ffffff" stroke="#ffffff" xlink:href="#b"/>
</g>
<g clip-path="url(#a)">
<use x="670.050926" y="641.340747" fill="#ffffff" stroke="#ffffff" xlink:href="#b"/>
</g>
<g clip-path="url(#a)">
<use x="866.291323" y="447.871382" fill="#ffffff" stroke="#ffffff" xlink:href="#b"/>
</g>
<g clip-path="url(#a)">
<use x="756.205247" y="641.340747" fill="#ffffff" stroke="#ffffff" xlink:href="#b"/>
</g>
<g clip-path="url(#a)">
<use x="1004.61687" y="247.052413" fill="#ffffff" stroke="#ffffff" xlink:href="#b"/>
</g>
<g clip-path="url(#a)">
<use x="971.591047" y="641.340747" fill="#ffffff" stroke="#ffffff" xlink:href="#b"/>
</g>
<g clip-path="url(#a)">
<use x="1014.668208" y="641.340747" fill="#ffffff" stroke="#ffffff" xlink:href="#b"/>
</g>
<g clip-path="url(#a)">
<use x="1027.591356" y="348.592938" fill="#ffffff" stroke="#ffffff" xlink:href="#b"/>
</g>
<g clip-path="url(#a)">
<use x="1359.285489" y="737.407235" fill="#ffffff" stroke="#ffffff" xlink:href="#b"/>
</g>
<g clip-path="url(#a)">
<use x="1057.745368" y="641.340747" fill="#ffffff" stroke="#ffffff" xlink:href="#b"/>
</g>
<g clip-path="url(#a)">
<use x="1036.206788" y="447.871382" fill="#ffffff" stroke="#ffffff" xlink:href="#b"/>
</g>
<g clip-path="url(#a)">
<use x="1316.208329" y="737.407235" fill="#ffffff" stroke="#ffffff" xlink:href="#b"/>
</g>
<g clip-path="url(#a)">
<use x="1208.515428" y="545.27426" fill="#ffffff" stroke="#ffffff" xlink:href="#b"/>
</g>
<g clip-path="url(#a)">
<use x="1143.899688" y="641.340747" fill="#ffffff" stroke="#ffffff" xlink:href="#b"/>
</g>
<g clip-path="url(#a)">
<use x="1186.976848" y="641.340747" fill="#ffffff" stroke="#ffffff" xlink:href="#b"/>
</g>
<g clip-path="url(#a)">
<use x="784.923353" y="545.27426" fill="#ffffff" stroke="#ffffff" xlink:href="#b"/>
</g>
<g clip-path="url(#a)">
<use x="885.436727" y="641.340747" fill="#ffffff" stroke="#ffffff" xlink:href="#b"/>
</g>
<g clip-path="url(#a)">
<use x="928.513887" y="641.340747" fill="#ffffff" stroke="#ffffff" xlink:href="#b"/>
</g>
<g clip-path="url(#a)">
<use x="713.128087" y="641.340747" fill="#ffffff" stroke="#ffffff" xlink:href="#b"/>
</g>
<g clip-path="url(#a)">
<use x="799.282407" y="641.340747" fill="#ffffff" stroke="#ffffff" xlink:href="#b"/>
</g>
<g clip-path="url(#a)">
<use x="842.359567" y="641.340747" fill="#ffffff" stroke="#ffffff" xlink:href="#b"/>
</g>
<g clip-path="url(#a)">
<use x="66.970685" y="641.340747" fill="#ffffff" stroke="#ffffff" xlink:href="#b"/>
</g>
<g clip-path="url(#a)">
<use x="110.047845" y="641.340747" fill="#ffffff" stroke="#ffffff" xlink:href="#b"/>
</g>
<g clip-path="url(#a)">
<use x="290.433453" y="348.592938" fill="#ffffff" stroke="#ffffff" xlink:href="#b"/>
</g>
<g clip-path="url(#a)">
<use x="153.125005" y="641.340747" fill="#ffffff" stroke="#ffffff" xlink:href="#b"/>
</g>
<g clip-path="url(#a)">
<use x="196.202165" y="641.340747" fill="#ffffff" stroke="#ffffff" xlink:href="#b"/>
</g>
<g clip-path="url(#a)">
<use x="239.279325" y="641.340747" fill="#ffffff" stroke="#ffffff" xlink:href="#b"/>
</g>
<g clip-path="url(#a)">
<use x="573.127316" y="447.871382" fill="#ffffff" stroke="#ffffff" xlink:href="#b"/>
</g>
<g clip-path="url(#a)">
<use x="1402.362649" y="737.407235" fill="#ffffff" stroke="#ffffff" xlink:href="#b"/>
</g>
<g clip-path="url(#a)">
<use x="282.356485" y="641.340747" fill="#ffffff" stroke="#ffffff" xlink:href="#b"/>
</g>
<g clip-path="url(#a)">
<use x="368.510806" y="545.27426" fill="#ffffff" stroke="#ffffff" xlink:href="#b"/>
</g>
<g clip-path="url(#a)">
<use x="325.433645" y="641.340747" fill="#ffffff" stroke="#ffffff" xlink:href="#b"/>
</g>
<g clip-path="url(#a)">
<use x="368.510806" y="641.340747" fill="#ffffff" stroke="#ffffff" xlink:href="#b"/>
</g>
<g clip-path="url(#a)">
<use x="411.587966" y="641.340747" fill="#ffffff" stroke="#ffffff" xlink:href="#b"/>
</g>
<g clip-path="url(#a)">
<use x="476.590603" y="35.926099" fill="#808080" stroke="#808080" xlink:href="#b"/>
</g>
<g clip-path="url(#a)">
<use x="454.665126" y="641.340747" fill="#ffffff" stroke="#ffffff" xlink:href="#b"/>
</g>
<g clip-path="url(#a)">
<use x="583.896606" y="641.340747" fill="#ffffff" stroke="#ffffff" xlink:href="#b"/>
</g>
<g clip-path="url(#a)">
<use x="1100.822528" y="641.340747" fill="#ffffff" stroke="#ffffff" xlink:href="#b"/>
</g>
<g clip-path="url(#a)">
<use x="1230.054008" y="641.340747" fill="#ffffff" stroke="#ffffff" xlink:href="#b"/>
</g>
<g clip-path="url(#a)">
<use x="1273.131168" y="641.340747" fill="#ffffff" stroke="#ffffff" xlink:href="#b"/>
</g>
<g clip-path="url(#a)">
<defs>
<path id="as" d="m12.703 72.906h10.297v-7.4219l-8.0156-15.578h-6.2969l4.0156 15.578z"/>
</defs>
<g transform="translate(61.89 740.17) scale(.1 -.1)">
<use xlink:href="#r"/>
<use x="69.824219" xlink:href="#as"/>
</g>
</g>
<g clip-path="url(#a)">
<defs>
<path id="ac" d="m56.203 29.594v-4.3906h-41.312q0.59375-9.2812 5.5938-14.141t13.938-4.8594q5.1719 0 10.031 1.2656t9.6562 3.8125v-8.5q-4.8438-2.0469-9.9219-3.125t-10.297-1.0781q-13.094 0-20.734 7.6094-7.6406 7.625-7.6406 20.625 0 13.422 7.25 21.297 7.25 7.8906 19.562 7.8906 11.031 0 17.453-7.1094 6.4219-7.0938 6.4219-19.297zm-8.9844 2.6406q-0.09375 7.3594-4.125 11.75-4.0312 4.4062-10.672 4.4062-7.5156 0-12.031-4.25t-5.2031-11.969zm-8.6875 47.75h9.7188l-15.906-18.359h-7.4844z"/>
<path id="q" d="m18.312 70.219v-15.531h18.5v-6.9844h-18.5v-29.688q0-6.6875 1.8281-8.5938t7.4531-1.9062h9.2188v-7.5156h-9.2188q-10.406 0-14.359 3.875-3.9531 3.8906-3.9531 14.141v29.688h-6.5938v6.9844h6.5938v15.531z"/>
</defs>
<g transform="translate(98.598 740.17) scale(.1 -.1)">
<use xlink:href="#ac"/>
<use x="61.523438" xlink:href="#q"/>
<use x="100.732422" xlink:href="#f"/>
<use x="162.011719" xlink:href="#i"/>
<use x="189.794922" xlink:href="#q"/>
</g>
</g>
<g clip-path="url(#a)">
<defs>
<path id="ad" d="m8.5 21.578v33.109h8.9844v-32.766q0-7.7656 3.0156-11.656 3.0312-3.875 9.0938-3.875 7.2656 0 11.484 4.6406 4.2344 4.6406 4.2344 12.656v31h8.9844v-54.688h-8.9844v8.4062q-3.2656-4.9844-7.5938-7.4062-4.3125-2.4219-10.031-2.4219-9.4219 0-14.312 5.8594-4.875 5.8594-4.875 17.141z"/>
</defs>
<g transform="translate(146.79 740.17) scale(.1 -.1)">
<use xlink:href="#ad"/>
<use x="63.378906" xlink:href="#g"/>
</g>
</g>
<g clip-path="url(#a)">
<defs>
<path id="y" d="m44.281 53.078v-8.5q-3.7969 1.9531-7.9062 2.9219-4.0938 0.98438-8.5 0.98438-6.6875 0-10.031-2.0469t-3.3438-6.1562q0-3.125 2.3906-4.9062t9.625-3.3906l3.0781-0.6875q9.5625-2.0469 13.594-5.7812t4.0312-10.422q0-7.625-6.0312-12.078-6.0312-4.4375-16.578-4.4375-4.3906 0-9.1562 0.85938t-10.031 2.5625v9.2812q4.9844-2.5938 9.8125-3.8906 4.8281-1.2812 9.5781-1.2812 6.3438 0 9.75 2.1719 3.4219 2.1719 3.4219 6.125 0 3.6562-2.4688 5.6094-2.4531 1.9531-10.812 3.7656l-3.125 0.73438q-8.3438 1.75-12.062 5.3906-3.7031 3.6406-3.7031 9.9844 0 7.7188 5.4688 11.906 5.4688 4.2031 15.531 4.2031 4.9688 0 9.3594-0.73438 4.4062-0.71875 8.1094-2.1875z"/>
<path id="z" d="m18.109 8.2031v-29h-9.0312v75.484h9.0312v-8.2969q2.8438 4.875 7.1562 7.2344 4.3281 2.375 10.328 2.375 9.9688 0 16.188-7.9062 6.2344-7.9062 6.2344-20.797t-6.2344-20.812q-6.2188-7.9062-16.188-7.9062-6 0-10.328 2.375-4.3125 2.375-7.1562 7.25zm30.578 19.094q0 9.9062-4.0781 15.547t-11.203 5.6406q-7.1406 0-11.219-5.6406t-4.0781-15.547 4.0781-15.547 11.219-5.6406q7.125 0 11.203 5.6406t4.0781 15.547z"/>
<path id="ax" d="m56.203 29.594v-4.3906h-41.312q0.59375-9.2812 5.5938-14.141t13.938-4.8594q5.1719 0 10.031 1.2656t9.6562 3.8125v-8.5q-4.8438-2.0469-9.9219-3.125t-10.297-1.0781q-13.094 0-20.734 7.6094-7.6406 7.625-7.6406 20.625 0 13.422 7.25 21.297 7.25 7.8906 19.562 7.8906 11.031 0 17.453-7.1094 6.4219-7.0938 6.4219-19.297zm-8.9844 2.6406q-0.09375 7.3594-4.125 11.75-4.0312 4.4062-10.672 4.4062-7.5156 0-12.031-4.25t-5.2031-11.969zm-19.078 47.75h7.2188l11.969-18.359h-6.7812l-8.7969 11.953-8.7812-11.953h-6.7969z"/>
</defs>
<g transform="translate(174.18 740.37) scale(.1 -.1)">
<use xlink:href="#y"/>
<use x="52.099609" xlink:href="#ad"/>
<use x="115.478516" xlink:href="#z"/>
<use x="178.955078" xlink:href="#h"/>
<use x="220.037109" xlink:href="#ax"/>
<use x="281.560547" xlink:href="#j"/>
<use x="378.972656" xlink:href="#d"/>
</g>
</g>
<g clip-path="url(#a)">
<defs>
<path id="ai" d="m45.406 46.391v29.594h8.9844v-75.984h-8.9844v8.2031q-2.8281-4.875-7.1562-7.25-4.3125-2.375-10.375-2.375-9.9062 0-16.141 7.9062-6.2188 7.9219-6.2188 20.812t6.2188 20.797q6.2344 7.9062 16.141 7.9062 6.0625 0 10.375-2.375 4.3281-2.3594 7.1562-7.2344zm-30.609-19.094q0-9.9062 4.0781-15.547t11.203-5.6406 11.219 5.6406q4.1094 5.6406 4.1094 15.547t-4.1094 15.547q-4.0938 5.6406-11.219 5.6406t-11.203-5.6406-4.0781-15.547z"/>
<path id="bd" d="m37.109 75.984v-7.4844h-8.5938q-4.8281 0-6.7188-1.9531-1.875-1.9531-1.875-7.0312v-4.8281h14.797v-6.9844h-14.797v-47.703h-9.0312v47.703h-8.5938v6.9844h8.5938v3.8125q0 9.125 4.25 13.297 4.25 4.1875 13.469 4.1875z"/>
</defs>
<g transform="translate(229.88 740.17) scale(.1 -.1)">
<use xlink:href="#ai"/>
<use x="63.476562" xlink:href="#ac"/>
<use x="125" xlink:href="#bd"/>
<use x="160.205078" xlink:href="#i"/>
</g>
</g>
<g clip-path="url(#a)">
<defs>
<path id="w" d="m30.609 48.391q-7.2188 0-11.422-5.6406t-4.2031-15.453 4.1719-15.453q4.1875-5.6406 11.453-5.6406 7.1875 0 11.375 5.6562 4.2031 5.6719 4.2031 15.438 0 9.7188-4.2031 15.406-4.1875 5.6875-11.375 5.6875zm0 7.6094q11.719 0 18.406-7.625 6.7031-7.6094 6.7031-21.078 0-13.422-6.7031-21.078-6.6875-7.6406-18.406-7.6406-11.766 0-18.438 7.6406-6.6562 7.6562-6.6562 21.078 0 13.469 6.6562 21.078 6.6719 7.625 18.438 7.625z"/>
</defs>
<g transform="translate(269.03 740.37) scale(.1 -.1)">
<use xlink:href="#z"/>
<use x="63.476562" xlink:href="#w"/>
<use x="124.658203" xlink:href="#h"/>
<use x="165.771484" xlink:href="#q"/>
<use x="204.980469" xlink:href="#ac"/>
</g>
</g>
<g clip-path="url(#a)">
<g transform="translate(319.2 740.17) scale(.1 -.1)">
<use xlink:href="#f"/>
<use x="61.279297" xlink:href="#ad"/>
</g>
</g>
<g clip-path="url(#a)">
<defs>
<path id="ba" d="m4.2031 54.688h8.9844l11.234-42.672 11.172 42.672h10.594l11.234-42.672 11.188 42.672h8.9844l-14.312-54.688h-10.594l-11.766 44.828-11.812-44.828h-10.609z"/>
</defs>
<g transform="translate(351.68 740.17) scale(.1 -.1)">
<use xlink:href="#g"/>
<use x="63.378906" xlink:href="#f"/>
<use x="124.658203" xlink:href="#h"/>
<use x="165.771484" xlink:href="#ba"/>
<use x="247.558594" xlink:href="#f"/>
<use x="308.837891" xlink:href="#l"/>
</g>
</g>
<g clip-path="url(#a)">
<defs>
<path id="bc" d="m45.406 27.984q0 9.7656-4.0312 15.125-4.0156 5.375-11.297 5.375-7.2188 0-11.25-5.375-4.0312-5.3594-4.0312-15.125 0-9.7188 4.0312-15.094t11.25-5.375q7.2812 0 11.297 5.375 4.0312 5.375 4.0312 15.094zm8.9844-21.203q0-13.953-6.2031-20.766-6.1875-6.8125-18.984-6.8125-4.7344 0-8.9375 0.70312t-8.1562 2.1719v8.7344q3.9531-2.1406 7.8125-3.1562 3.8594-1.0312 7.8594-1.0312 8.8438 0 13.234 4.6094t4.3906 13.938v4.4531q-2.7812-4.8438-7.125-7.2344t-10.406-2.3906q-10.047 0-16.203 7.6562-6.1562 7.6719-6.1562 20.328 0 12.688 6.1562 20.344 6.1562 7.6719 16.203 7.6719 6.0625 0 10.406-2.3906t7.125-7.2188v8.2969h8.9844z"/>
</defs>
<g transform="translate(397.14 740.37) scale(.1 -.1)">
<use xlink:href="#bc"/>
<use x="63.476562" xlink:href="#ac"/>
<use x="125" xlink:href="#f"/>
<use x="186.279297" xlink:href="#g"/>
<use x="249.658203" xlink:href="#q"/>
</g>
</g>
<g clip-path="url(#a)">
<defs>
<path id="au" d="m11.719 12.406h10.297v-8.4062l-8-15.625h-6.2969l4 15.625z"/>
</defs>
<g transform="translate(453.08 740.17) scale(.1 -.1)">
<use xlink:href="#au"/>
</g>
</g>
<g clip-path="url(#a)">
<g transform="translate(492.71 740.17) scale(.1 -.1)">
<use xlink:href="#d"/>
<use x="61.523438" xlink:href="#q"/>
</g>
</g>
<g clip-path="url(#a)">
<defs>
<path id="ae" d="m48.781 52.594v-8.4062q-3.8125 2.1094-7.6406 3.1562t-7.7344 1.0469q-8.75 0-13.594-5.5469-4.8281-5.5312-4.8281-15.547t4.8281-15.562q4.8438-5.5312 13.594-5.5312 3.9062 0 7.7344 1.0469t7.6406 3.1562v-8.3125q-3.7656-1.75-7.7969-2.625-4.0156-0.89062-8.5625-0.89062-12.359 0-19.641 7.7656-7.2656 7.7656-7.2656 20.953 0 13.375 7.3438 21.031 7.3594 7.6719 20.156 7.6719 4.1406 0 8.0938-0.85938 3.9531-0.84375 7.6719-2.5469z"/>
</defs>
<g transform="translate(529.05 740.17) scale(.1 -.1)">
<use xlink:href="#ae"/>
<use x="54.980469" xlink:href="#d"/>
<use x="116.503906" xlink:href="#l"/>
<use x="144.287109" xlink:href="#ad"/>
<use x="207.666016" xlink:href="#i"/>
</g>
</g>
<g clip-path="url(#a)">
<defs>
<path id="at" d="m4.8906 31.391h26.312v-8h-26.312z"/>
</defs>
<g transform="translate(582.09 740.17) scale(.1 -.1)">
<use xlink:href="#at"/>
</g>
</g>
<g clip-path="url(#a)">
<g transform="translate(622.84 740.17) scale(.1 -.1)">
<use xlink:href="#ae"/>
<use x="54.980469" xlink:href="#i"/>
</g>
</g>
<g clip-path="url(#a)">
<g transform="translate(663.81 740.17) scale(.1 -.1)">
<use xlink:href="#g"/>
<use x="63.378906" xlink:href="#d"/>
</g>
</g>
<g clip-path="url(#a)">
<defs>
<path id="bb" d="m2.9844 54.688h9.5156l17.094-45.891 17.094 45.891h9.5156l-20.516-54.688h-12.203z"/>
</defs>
<g transform="translate(694.35 740.17) scale(.1 -.1)">
<use xlink:href="#z"/>
<use x="63.476562" xlink:href="#w"/>
<use x="124.658203" xlink:href="#ad"/>
<use x="188.037109" xlink:href="#bb"/>
<use x="247.216797" xlink:href="#f"/>
<use x="308.496094" xlink:href="#i"/>
<use x="336.279297" xlink:href="#q"/>
</g>
</g>
<g clip-path="url(#a)">
<defs>
<path id="aq" d="m48.688 27.297q0 9.9062-4.0781 15.547t-11.203 5.6406q-7.1406 0-11.219-5.6406t-4.0781-15.547 4.0781-15.547 11.219-5.6406q7.125 0 11.203 5.6406t4.0781 15.547zm-30.578 19.094q2.8438 4.875 7.1562 7.2344 4.3281 2.375 10.328 2.375 9.9688 0 16.188-7.9062 6.2344-7.9062 6.2344-20.797t-6.2344-20.812q-6.2188-7.9062-16.188-7.9062-6 0-10.328 2.375-4.3125 2.375-7.1562 7.25v-8.2031h-9.0312v75.984h9.0312z"/>
</defs>
<g transform="translate(713.92 740.17) scale(.1 -.1)">
<use xlink:href="#h"/>
<use x="41.113281" xlink:href="#f"/>
<use x="102.392578" xlink:href="#i"/>
<use x="130.175781" xlink:href="#y"/>
<use x="182.275391" xlink:href="#w"/>
<use x="243.457031" xlink:href="#g"/>
<use x="306.835938" xlink:href="#g"/>
<use x="370.214844" xlink:href="#f"/>
<use x="431.494141" xlink:href="#aq"/>
<use x="494.970703" xlink:href="#l"/>
<use x="522.753906" xlink:href="#d"/>
<use x="584.277344" xlink:href="#j"/>
<use x="681.689453" xlink:href="#d"/>
<use x="743.212891" xlink:href="#g"/>
<use x="806.591797" xlink:href="#q"/>
</g>
</g>
<g clip-path="url(#a)">
<g transform="translate(793.6 740.17) scale(.1 -.1)">
<use xlink:href="#y"/>
<use x="52.099609" xlink:href="#d"/>
</g>
</g>
<g clip-path="url(#a)">
<g transform="translate(818.04 740.17) scale(.1 -.1)">
<use xlink:href="#ai"/>
<use x="63.476562" xlink:href="#i"/>
<use x="91.259766" xlink:href="#y"/>
<use x="143.359375" xlink:href="#z"/>
<use x="206.835938" xlink:href="#d"/>
<use x="268.359375" xlink:href="#g"/>
<use x="331.738281" xlink:href="#y"/>
<use x="383.837891" xlink:href="#d"/>
<use x="445.361328" xlink:href="#h"/>
</g>
</g>
<g clip-path="url(#a)">
<g transform="translate(879.19 740.17) scale(.1 -.1)">
<use xlink:href="#ai"/>
<use x="63.476562" xlink:href="#d"/>
</g>
</g>
<g clip-path="url(#a)">
<g transform="translate(905.68 740.37) scale(.1 -.1)">
<use xlink:href="#h"/>
<use x="41.082031" xlink:href="#ac"/>
<use x="102.605469" xlink:href="#z"/>
<use x="166.082031" xlink:href="#w"/>
<use x="227.263672" xlink:href="#g"/>
<use x="290.642578" xlink:href="#ai"/>
<use x="354.119141" xlink:href="#h"/>
<use x="395.201172" xlink:href="#d"/>
</g>
</g>
<g clip-path="url(#a)">
<defs>
<path id="ap" d="m34.281 27.484q-10.891 0-15.094-2.4844t-4.2031-8.5q0-4.7812 3.1562-7.5938 3.1562-2.7969 8.5625-2.7969 7.4844 0 12 5.2969t4.5156 14.078v2zm17.922 3.7188v-31.203h-8.9844v8.2969q-3.0781-4.9688-7.6719-7.3438t-11.234-2.375q-8.3906 0-13.359 4.7188-4.9531 4.7188-4.9531 12.625 0 9.2188 6.1719 13.906 6.1875 4.6875 18.438 4.6875h12.609v0.89062q0 6.2031-4.0781 9.5938t-11.453 3.3906q-4.6875 0-9.1406-1.125-4.4375-1.125-8.5312-3.375v8.3125q4.9219 1.9062 9.5625 2.8438 4.6406 0.95312 9.0312 0.95312 11.875 0 17.734-6.1562 5.8594-6.1406 5.8594-18.641zm-30.281 48.781 13.766-18.266h-7.4688l-15.922 18.266z"/>
</defs>
<g transform="translate(968.53 740.17) scale(.1 -.1)">
<use xlink:href="#ap"/>
</g>
</g>
<g clip-path="url(#a)">
<g transform="translate(1001.8 740.17) scale(.1 -.1)">
<use xlink:href="#ae"/>
<use x="54.980469" xlink:href="#d"/>
<use x="116.503906" xlink:href="#q"/>
<use x="155.712891" xlink:href="#q"/>
<use x="194.921875" xlink:href="#d"/>
</g>
</g>
<g clip-path="url(#a)">
<g transform="translate(1029.7 740.17) scale(.1 -.1)">
<use xlink:href="#y"/>
<use x="52.099609" xlink:href="#w"/>
<use x="113.28125" xlink:href="#j"/>
<use x="210.693359" xlink:href="#j"/>
<use x="308.105469" xlink:href="#f"/>
<use x="369.384766" xlink:href="#q"/>
<use x="408.59375" xlink:href="#i"/>
<use x="436.376953" xlink:href="#w"/>
<use x="497.558594" xlink:href="#g"/>
</g>
</g>
<g clip-path="url(#a)">
<defs>
<path id="az" d="m51.812 51.703v-9.3125l-14.703-13.094 14.703-13.078v-9.3281l-22.906 20.406v4zm-21.203 0v-9.3125l-14.688-13.094 14.688-13.078v-9.3281l-22.891 20.406v4z"/>
</defs>
<g transform="translate(1097.8 740.17) scale(.1 -.1)">
<use xlink:href="#az"/>
</g>
</g>
<g clip-path="url(#a)">
<g transform="translate(1140.8 740.17) scale(.1 -.1)">
<use xlink:href="#ap"/>
</g>
</g>
<g clip-path="url(#a)">
<defs>
<path id="aw" d="m9.4219 54.688h8.9844v-54.688h-8.9844zm4.5 1.3125m-3.6562 23.984h7.2188l11.969-18.359h-6.7812l-8.7969 11.953-8.7812-11.953h-6.7969z"/>
</defs>
<g transform="translate(1156.5 740.37) scale(.1 -.1)">
<use xlink:href="#ae"/>
<use x="54.980469" xlink:href="#w"/>
<use x="116.162109" xlink:href="#j"/>
<use x="213.574219" xlink:href="#z"/>
<use x="277.050781" xlink:href="#f"/>
<use x="338.330078" xlink:href="#h"/>
<use x="379.443359" xlink:href="#f"/>
<use x="440.722656" xlink:href="#aw"/>
<use x="468.505859" xlink:href="#q"/>
<use x="507.714844" xlink:href="#h"/>
<use x="548.796875" xlink:href="#d"/>
</g>
</g>
<g clip-path="url(#a)">
<defs>
<path id="av" d="m15.094 12.406h9.9062v-12.406h-9.9062zm0 60.5h9.9062v-31.984l-0.96875-17.438h-7.9219l-1.0156 17.438z"/>
</defs>
<g transform="translate(1228 740.17) scale(.1 -.1)">
<use xlink:href="#av"/>
</g>
</g>
<g clip-path="url(#a)">
<defs>
<path id="ay" d="m9.4219 51.703 22.906-20.406v-4l-22.906-20.406v9.3281l14.703 13.078-14.703 13.094zm21.188 0 22.906-20.406v-4l-22.906-20.406v9.3281l14.703 13.078-14.703 13.094z"/>
</defs>
<g transform="translate(1270.1 740.17) scale(.1 -.1)">
<use xlink:href="#ay"/>
</g>
</g>
<g clip-path="url(#a)">
<defs>
<path id="c" d="m12.406 8.2969h16.109v55.625l-17.531-3.5156v8.9844l17.438 3.5156h9.8594v-64.609h16.109v-8.2969h-41.984z"/>
<path id="e" d="m10.688 12.406h10.312v-12.406h-10.312z"/>
</defs>
<g transform="translate(463.16 38.685) scale(.1 -.1)">
<use xlink:href="#c"/>
<use x="63.623047" xlink:href="#e"/>
<use x="95.410156" xlink:href="#c"/>
</g>
</g>
<g clip-path="url(#a)">
<defs>
<path id="p" d="m19.188 8.2969h34.422v-8.2969h-46.281v8.2969q5.6094 5.8125 15.297 15.594 9.7031 9.7969 12.188 12.641 4.7344 5.3125 6.6094 9 1.8906 3.6875 1.8906 7.25 0 5.8125-4.0781 9.4688-4.0781 3.6719-10.625 3.6719-4.6406 0-9.7969-1.6094-5.1406-1.6094-11-4.8906v9.9688q5.9531 2.3906 11.125 3.6094 5.1875 1.2188 9.4844 1.2188 11.328 0 18.062-5.6719 6.7344-5.6562 6.7344-15.125 0-4.5-1.6875-8.5312-1.6719-4.0156-6.125-9.4844-1.2188-1.4219-7.7656-8.1875-6.5312-6.7656-18.453-18.922z"/>
</defs>
<g transform="translate(147.87 249.81) scale(.1 -.1)">
<use xlink:href="#c"/>
<use x="63.623047" xlink:href="#e"/>
<use x="95.410156" xlink:href="#p"/>
</g>
</g>
<g clip-path="url(#a)">
<defs>
<path id="n" d="m37.797 64.312-24.906-38.922h24.906zm-2.5938 8.5938h12.406v-47.516h10.406v-8.2031h-10.406v-17.188h-9.8125v17.188h-32.906v9.5156z"/>
</defs>
<g transform="translate(489.79 644.1) scale(.1 -.1)">
<use xlink:href="#c"/>
<use x="63.623047" xlink:href="#e"/>
<use x="95.410156" xlink:href="#n"/>
</g>
</g>
<g clip-path="url(#a)">
<defs>
<path id="x" d="m10.797 72.906h38.719v-8.3125h-29.688v-17.859q2.1406 0.73438 4.2812 1.0938 2.1562 0.35938 4.3125 0.35938 12.203 0 19.328-6.6875 7.1406-6.6875 7.1406-18.109 0-11.766-7.3281-18.297-7.3281-6.5156-20.656-6.5156-4.5938 0-9.3594 0.78125-4.75 0.78125-9.8281 2.3438v9.9219q4.3906-2.3906 9.0781-3.5625t9.9062-1.1719q8.4531 0 13.375 4.4375 4.9375 4.4375 4.9375 12.062 0 7.6094-4.9375 12.047-4.9219 4.4531-13.375 4.4531-3.9531 0-7.8906-0.875-3.9219-0.875-8.0156-2.7344z"/>
</defs>
<g transform="translate(768.26 145.69) scale(.1 -.1)">
<use xlink:href="#c"/>
<use x="63.623047" xlink:href="#e"/>
<use x="95.410156" xlink:href="#x"/>
</g>
</g>
<g clip-path="url(#a)">
<defs>
<path id="ab" d="m33.016 40.375q-6.6406 0-10.531-4.5469-3.875-4.5312-3.875-12.438 0-7.8594 3.875-12.438 3.8906-4.5625 10.531-4.5625t10.516 4.5625q3.875 4.5781 3.875 12.438 0 7.9062-3.875 12.438-3.875 4.5469-10.516 4.5469zm19.578 30.922v-8.9844q-3.7188 1.75-7.5 2.6719-3.7812 0.9375-7.5 0.9375-9.7656 0-14.922-6.5938-5.1406-6.5938-5.875-19.922 2.875 4.25 7.2188 6.5156 4.3594 2.2656 9.5781 2.2656 10.984 0 17.359-6.6719 6.375-6.6562 6.375-18.125 0-11.234-6.6406-18.031-6.6406-6.7812-17.672-6.7812-12.656 0-19.344 9.6875-6.6875 9.7031-6.6875 28.109 0 17.281 8.2031 27.562t22.016 10.281q3.7188 0 7.5-0.73438t7.8906-2.1875z"/>
</defs>
<g transform="translate(575.95 548.03) scale(.1 -.1)">
<use xlink:href="#c"/>
<use x="63.623047" xlink:href="#e"/>
<use x="95.410156" xlink:href="#ab"/>
</g>
</g>
<g clip-path="url(#a)">
<defs>
<path id="ag" d="m8.2031 72.906h46.875v-4.2031l-26.469-68.703h-10.297l24.906 64.594h-35.016z"/>
</defs>
<g transform="translate(662.1 644.1) scale(.1 -.1)">
<use xlink:href="#c"/>
<use x="63.623047" xlink:href="#e"/>
<use x="95.410156" xlink:href="#ag"/>
</g>
</g>
<g clip-path="url(#a)">
<defs>
<path id="al" d="m31.781 34.625q-7.0312 0-11.062-3.7656-4.0156-3.7656-4.0156-10.344 0-6.5938 4.0156-10.359 4.0312-3.7656 11.062-3.7656t11.078 3.7812q4.0625 3.7969 4.0625 10.344 0 6.5781-4.0312 10.344-4.0156 3.7656-11.109 3.7656zm-9.8594 4.1875q-6.3438 1.5625-9.8906 5.9062-3.5312 4.3594-3.5312 10.609 0 8.7344 6.2188 13.812 6.2344 5.0781 17.062 5.0781 10.891 0 17.094-5.0781t6.2031-13.812q0-6.25-3.5469-10.609-3.5312-4.3438-9.8281-5.9062 7.125-1.6562 11.094-6.5 3.9844-4.8281 3.9844-11.797 0-10.609-6.4688-16.281-6.4688-5.6562-18.531-5.6562-12.047 0-18.531 5.6562-6.4688 5.6719-6.4688 16.281 0 6.9688 4 11.797 4.0156 4.8438 11.141 6.5zm-3.6094 15.578q0-5.6562 3.5312-8.8281 3.5469-3.1719 9.9375-3.1719 6.3594 0 9.9375 3.1719 3.5938 3.1719 3.5938 8.8281 0 5.6719-3.5938 8.8438-3.5781 3.1719-9.9375 3.1719-6.3906 0-9.9375-3.1719-3.5312-3.1719-3.5312-8.8438z"/>
</defs>
<g transform="translate(858.34 450.63) scale(.1 -.1)">
<use xlink:href="#c"/>
<use x="63.623047" xlink:href="#e"/>
<use x="95.410156" xlink:href="#al"/>
</g>
</g>
<g clip-path="url(#a)">
<defs>
<path id="af" d="m10.984 1.5156v8.9844q3.7188-1.7656 7.5156-2.6875 3.8125-0.92188 7.4844-0.92188 9.7656 0 14.906 6.5625 5.1562 6.5625 5.8906 19.953-2.8281-4.2031-7.1875-6.4531-4.3438-2.25-9.6094-2.25-10.938 0-17.312 6.6094-6.375 6.625-6.375 18.109 0 11.219 6.6406 18 6.6406 6.7969 17.672 6.7969 12.656 0 19.312-9.7031 6.6719-9.6875 6.6719-28.141 0-17.234-8.1875-27.516-8.1719-10.281-21.984-10.281-3.7188 0-7.5312 0.73438-3.7969 0.73438-7.9062 2.2031zm19.625 30.906q6.6406 0 10.516 4.5312 3.8906 4.5469 3.8906 12.469 0 7.8594-3.8906 12.422-3.875 4.5625-10.516 4.5625t-10.516-4.5625-3.875-12.422q0-7.9219 3.875-12.469 3.875-4.5312 10.516-4.5312z"/>
</defs>
<g transform="translate(748.25 644.1) scale(.1 -.1)">
<use xlink:href="#c"/>
<use x="63.623047" xlink:href="#e"/>
<use x="95.410156" xlink:href="#af"/>
</g>
</g>
<g clip-path="url(#a)">
<defs>
<path id="ah" d="m31.781 66.406q-7.6094 0-11.453-7.5-3.8281-7.4844-3.8281-22.531 0-14.984 3.8281-22.484 3.8438-7.5 11.453-7.5 7.6719 0 11.5 7.5 3.8438 7.5 3.8438 22.484 0 15.047-3.8438 22.531-3.8281 7.5-11.5 7.5zm0 7.8125q12.266 0 18.734-9.7031 6.4688-9.6875 6.4688-28.141 0-18.406-6.4688-28.109-6.4688-9.6875-18.734-9.6875-12.25 0-18.719 9.6875-6.4688 9.7031-6.4688 28.109 0 18.453 6.4688 28.141 6.4688 9.7031 18.719 9.7031z"/>
</defs>
<g transform="translate(993.48 249.81) scale(.1 -.1)">
<use xlink:href="#c"/>
<use x="63.623047" xlink:href="#e"/>
<use x="95.410156" xlink:href="#c"/>
<use x="159.033203" xlink:href="#ah"/>
</g>
</g>
<g clip-path="url(#a)">
<g transform="translate(960.46 644.1) scale(.1 -.1)">
<use xlink:href="#c"/>
<use x="63.623047" xlink:href="#e"/>
<use x="95.410156" xlink:href="#c"/>
<use x="159.033203" xlink:href="#c"/>
</g>
</g>
<g clip-path="url(#a)">
<g transform="translate(1003.5 644.1) scale(.1 -.1)">
<use xlink:href="#c"/>
<use x="63.623047" xlink:href="#e"/>
<use x="95.410156" xlink:href="#c"/>
<use x="159.033203" xlink:href="#p"/>
</g>
</g>
<g clip-path="url(#a)">
<defs>
<path id="o" d="m40.578 39.312q7.0781-1.5156 11.047-6.3125 3.9844-4.7812 3.9844-11.812 0-10.781-7.4219-16.703-7.4219-5.9062-21.094-5.9062-4.5781 0-9.4375 0.90625t-10.031 2.7188v9.5156q4.0938-2.3906 8.9688-3.6094 4.8906-1.2188 10.219-1.2188 9.2656 0 14.125 3.6562t4.8594 10.641q0 6.4531-4.5156 10.078-4.5156 3.6406-12.562 3.6406h-8.5v8.1094h8.8906q7.2656 0 11.125 2.9062t3.8594 8.375q0 5.6094-3.9844 8.6094-3.9688 3.0156-11.391 3.0156-4.0625 0-8.7031-0.89062-4.6406-0.875-10.203-2.7188v8.7812q5.625 1.5625 10.531 2.3438t9.25 0.78125q11.234 0 17.766-5.1094 6.5469-5.0938 6.5469-13.781 0-6.0625-3.4688-10.234t-9.8594-5.7812z"/>
</defs>
<g transform="translate(1016.5 351.35) scale(.1 -.1)">
<use xlink:href="#c"/>
<use x="63.623047" xlink:href="#e"/>
<use x="95.410156" xlink:href="#c"/>
<use x="159.033203" xlink:href="#o"/>
</g>
</g>
<g clip-path="url(#a)">
<defs>
<path id="s" d="m9.8125 72.906h9.8594v-72.906h-9.8594z"/>
<path id="ak" d="m9.8125 72.906h14.703l18.594-49.609 18.703 49.609h14.703v-72.906h-9.625v64.016l-18.797-50h-9.9062l-18.797 50v-64.016h-9.5781z"/>
</defs>
<g transform="translate(1338.2 740.17) scale(.1 -.1)">
<use xlink:href="#s"/>
<use x="29.492188" xlink:href="#ak"/>
<use x="115.771484" xlink:href="#u"/>
<use x="176.074219" xlink:href="#v"/>
<use x="231.787109" xlink:href="#s"/>
<use x="261.279297" xlink:href="#r"/>
<use x="331.103516" xlink:href="#s"/>
<use x="360.595703" xlink:href="#k"/>
</g>
</g>
<g clip-path="url(#a)">
<g transform="translate(1046.6 644.1) scale(.1 -.1)">
<use xlink:href="#c"/>
<use x="63.623047" xlink:href="#e"/>
<use x="95.410156" xlink:href="#c"/>
<use x="159.033203" xlink:href="#x"/>
</g>
</g>
<g clip-path="url(#a)">
<g transform="translate(1025.1 450.63) scale(.1 -.1)">
<use xlink:href="#c"/>
<use x="63.623047" xlink:href="#e"/>
<use x="95.410156" xlink:href="#c"/>
<use x="159.033203" xlink:href="#ab"/>
</g>
</g>
<g clip-path="url(#a)">
<g transform="translate(1295.1 740.17) scale(.1 -.1)">
<use xlink:href="#s"/>
<use x="29.492188" xlink:href="#ak"/>
<use x="115.771484" xlink:href="#u"/>
<use x="176.074219" xlink:href="#v"/>
<use x="231.787109" xlink:href="#s"/>
<use x="261.279297" xlink:href="#r"/>
<use x="331.103516" xlink:href="#s"/>
<use x="360.595703" xlink:href="#k"/>
</g>
</g>
<g clip-path="url(#a)">
<g transform="translate(1197.4 548.03) scale(.1 -.1)">
<use xlink:href="#c"/>
<use x="63.623047" xlink:href="#e"/>
<use x="95.410156" xlink:href="#c"/>
<use x="159.033203" xlink:href="#af"/>
</g>
</g>
<g clip-path="url(#a)">
<g transform="translate(1132.8 644.1) scale(.1 -.1)">
<use xlink:href="#c"/>
<use x="63.623047" xlink:href="#e"/>
<use x="95.410156" xlink:href="#p"/>
<use x="159.033203" xlink:href="#p"/>
</g>
</g>
<g clip-path="url(#a)">
<g transform="translate(1175.8 644.1) scale(.1 -.1)">
<use xlink:href="#c"/>
<use x="63.623047" xlink:href="#e"/>
<use x="95.410156" xlink:href="#p"/>
<use x="159.033203" xlink:href="#o"/>
</g>
</g>
<g clip-path="url(#a)">
<g transform="translate(773.79 548.03) scale(.1 -.1)">
<use xlink:href="#c"/>
<use x="63.623047" xlink:href="#e"/>
<use x="95.410156" xlink:href="#p"/>
<use x="159.033203" xlink:href="#n"/>
</g>
</g>
<g clip-path="url(#a)">
<g transform="translate(874.3 644.1) scale(.1 -.1)">
<use xlink:href="#c"/>
<use x="63.623047" xlink:href="#e"/>
<use x="95.410156" xlink:href="#p"/>
<use x="159.033203" xlink:href="#x"/>
</g>
</g>
<g clip-path="url(#a)">
<g transform="translate(917.38 644.1) scale(.1 -.1)">
<use xlink:href="#c"/>
<use x="63.623047" xlink:href="#e"/>
<use x="95.410156" xlink:href="#p"/>
<use x="159.033203" xlink:href="#ab"/>
</g>
</g>
<g clip-path="url(#a)">
<g transform="translate(702 644.1) scale(.1 -.1)">
<use xlink:href="#c"/>
<use x="63.623047" xlink:href="#e"/>
<use x="95.410156" xlink:href="#p"/>
<use x="159.033203" xlink:href="#ag"/>
</g>
</g>
<g clip-path="url(#a)">
<g transform="translate(788.15 644.1) scale(.1 -.1)">
<use xlink:href="#c"/>
<use x="63.623047" xlink:href="#e"/>
<use x="95.410156" xlink:href="#p"/>
<use x="159.033203" xlink:href="#af"/>
</g>
</g>
<g clip-path="url(#a)">
<g transform="translate(831.23 644.1) scale(.1 -.1)">
<use xlink:href="#c"/>
<use x="63.623047" xlink:href="#e"/>
<use x="95.410156" xlink:href="#o"/>
<use x="159.033203" xlink:href="#ah"/>
</g>
</g>
<g clip-path="url(#a)">
<g transform="translate(55.838 644.1) scale(.1 -.1)">
<use xlink:href="#c"/>
<use x="63.623047" xlink:href="#e"/>
<use x="95.410156" xlink:href="#o"/>
<use x="159.033203" xlink:href="#p"/>
</g>
</g>
<g clip-path="url(#a)">
<g transform="translate(98.915 644.1) scale(.1 -.1)">
<use xlink:href="#c"/>
<use x="63.623047" xlink:href="#e"/>
<use x="95.410156" xlink:href="#o"/>
<use x="159.033203" xlink:href="#o"/>
</g>
</g>
<g clip-path="url(#a)">
<g transform="translate(279.3 351.35) scale(.1 -.1)">
<use xlink:href="#c"/>
<use x="63.623047" xlink:href="#e"/>
<use x="95.410156" xlink:href="#o"/>
<use x="159.033203" xlink:href="#n"/>
</g>
</g>
<g clip-path="url(#a)">
<g transform="translate(141.99 644.1) scale(.1 -.1)">
<use xlink:href="#c"/>
<use x="63.623047" xlink:href="#e"/>
<use x="95.410156" xlink:href="#o"/>
<use x="159.033203" xlink:href="#x"/>
</g>
</g>
<g clip-path="url(#a)">
<g transform="translate(185.07 644.1) scale(.1 -.1)">
<use xlink:href="#c"/>
<use x="63.623047" xlink:href="#e"/>
<use x="95.410156" xlink:href="#o"/>
<use x="159.033203" xlink:href="#ab"/>
</g>
</g>
<g clip-path="url(#a)">
<g transform="translate(228.15 644.1) scale(.1 -.1)">
<use xlink:href="#c"/>
<use x="63.623047" xlink:href="#e"/>
<use x="95.410156" xlink:href="#o"/>
<use x="159.033203" xlink:href="#ag"/>
</g>
</g>
<g clip-path="url(#a)">
<g transform="translate(561.99 450.63) scale(.1 -.1)">
<use xlink:href="#c"/>
<use x="63.623047" xlink:href="#e"/>
<use x="95.410156" xlink:href="#o"/>
<use x="159.033203" xlink:href="#al"/>
</g>
</g>
<g clip-path="url(#a)">
<g transform="translate(1381.3 740.17) scale(.1 -.1)">
<use xlink:href="#s"/>
<use x="29.492188" xlink:href="#ak"/>
<use x="115.771484" xlink:href="#u"/>
<use x="176.074219" xlink:href="#v"/>
<use x="231.787109" xlink:href="#s"/>
<use x="261.279297" xlink:href="#r"/>
<use x="331.103516" xlink:href="#s"/>
<use x="360.595703" xlink:href="#k"/>
</g>
</g>
<g clip-path="url(#a)">
<g transform="translate(271.22 644.1) scale(.1 -.1)">
<use xlink:href="#c"/>
<use x="63.623047" xlink:href="#e"/>
<use x="95.410156" xlink:href="#n"/>
<use x="159.033203" xlink:href="#ah"/>
</g>
</g>
<g clip-path="url(#a)">
<g transform="translate(357.38 548.03) scale(.1 -.1)">
<use xlink:href="#c"/>
<use x="63.623047" xlink:href="#e"/>
<use x="95.410156" xlink:href="#n"/>
<use x="159.033203" xlink:href="#c"/>
</g>
</g>
<g clip-path="url(#a)">
<g transform="translate(314.3 644.1) scale(.1 -.1)">
<use xlink:href="#c"/>
<use x="63.623047" xlink:href="#e"/>
<use x="95.410156" xlink:href="#n"/>
<use x="159.033203" xlink:href="#p"/>
</g>
</g>
<g clip-path="url(#a)">
<g transform="translate(357.38 644.1) scale(.1 -.1)">
<use xlink:href="#c"/>
<use x="63.623047" xlink:href="#e"/>
<use x="95.410156" xlink:href="#n"/>
<use x="159.033203" xlink:href="#o"/>
</g>
</g>
<g clip-path="url(#a)">
<g transform="translate(400.46 644.1) scale(.1 -.1)">
<use xlink:href="#c"/>
<use x="63.623047" xlink:href="#e"/>
<use x="95.410156" xlink:href="#n"/>
<use x="159.033203" xlink:href="#n"/>
</g>
</g>
<g clip-path="url(#a)">
<g transform="translate(465.46 38.685) scale(.1 -.1)">
<use xlink:href="#c"/>
<use x="63.623047" xlink:href="#e"/>
<use x="95.410156" xlink:href="#n"/>
<use x="159.033203" xlink:href="#x"/>
</g>
</g>
<g clip-path="url(#a)">
<g transform="translate(443.53 644.1) scale(.1 -.1)">
<use xlink:href="#c"/>
<use x="63.623047" xlink:href="#e"/>
<use x="95.410156" xlink:href="#n"/>
<use x="159.033203" xlink:href="#ab"/>
</g>
</g>
<g clip-path="url(#a)">
<g transform="translate(572.76 644.1) scale(.1 -.1)">
<use xlink:href="#c"/>
<use x="63.623047" xlink:href="#e"/>
<use x="95.410156" xlink:href="#n"/>
<use x="159.033203" xlink:href="#ag"/>
</g>
</g>
<g clip-path="url(#a)">
<g transform="translate(1089.7 644.1) scale(.1 -.1)">
<use xlink:href="#c"/>
<use x="63.623047" xlink:href="#e"/>
<use x="95.410156" xlink:href="#n"/>
<use x="159.033203" xlink:href="#al"/>
</g>
</g>
<g clip-path="url(#a)">
<g transform="translate(1218.9 644.1) scale(.1 -.1)">
<use xlink:href="#c"/>
<use x="63.623047" xlink:href="#e"/>
<use x="95.410156" xlink:href="#n"/>
<use x="159.033203" xlink:href="#af"/>
</g>
</g>
<g clip-path="url(#a)">
<g transform="translate(1262 644.1) scale(.1 -.1)">
<use xlink:href="#c"/>
<use x="63.623047" xlink:href="#e"/>
<use x="95.410156" xlink:href="#x"/>
<use x="159.033203" xlink:href="#ah"/>
</g>
</g>
<defs>
<clipPath id="a">
<rect width="1469.3" height="773.33"/>
</clipPath>
</defs>
</svg>
