<?xml version="1.0" encoding="utf-8" standalone="no"?>
<!DOCTYPE svg PUBLIC "-//W3C//DTD SVG 1.1//EN"
  "http://www.w3.org/Graphics/SVG/1.1/DTD/svg11.dtd">
<!-- Created with matplotlib (https://matplotlib.org/) -->
<svg height="426.666667pt" version="1.1" viewBox="0 0 810.666667 426.666667" width="810.666667pt" xmlns="http://www.w3.org/2000/svg" xmlns:xlink="http://www.w3.org/1999/xlink">
 <defs>
  <style type="text/css">
*{stroke-linecap:butt;stroke-linejoin:round;}
  </style>
 </defs>
 <g id="figure_1">
  <g id="patch_1">
   <path d="M 0 426.666667 
L 810.666667 426.666667 
L 810.666667 0 
L 0 0 
z
" style="fill:#ffffff;"/>
  </g>
  <g id="axes_1">
   <g id="LineCollection_1">
    <path clip-path="url(#p3316a35304)" d="M 287.743491 20.498151 
L 287.743491 100.361078 
" style="fill:none;stroke:#000000;"/>
    <path clip-path="url(#p3316a35304)" d="M 287.743491 100.361078 
L 94.48714 178.444849 
" style="fill:none;stroke:#000000;"/>
    <path clip-path="url(#p3316a35304)" d="M 287.743491 100.361078 
L 233.549911 330.61099 
" style="fill:none;stroke:#000000;"/>
    <path clip-path="url(#p3316a35304)" d="M 287.743491 100.361078 
L 282.630889 330.61099 
" style="fill:none;stroke:#000000;"/>
    <path clip-path="url(#p3316a35304)" d="M 287.743491 100.361078 
L 540.306022 178.444849 
" style="fill:none;stroke:#000000;"/>
    <path clip-path="url(#p3316a35304)" d="M 94.48714 178.444849 
L 37.226 330.61099 
" style="fill:none;stroke:#000000;"/>
    <path clip-path="url(#p3316a35304)" d="M 94.48714 178.444849 
L 86.306978 330.61099 
" style="fill:none;stroke:#000000;"/>
    <path clip-path="url(#p3316a35304)" d="M 94.48714 178.444849 
L 159.928444 255.053464 
" style="fill:none;stroke:#000000;"/>
    <path clip-path="url(#p3316a35304)" d="M 233.549911 330.61099 
L 233.549911 406.168516 
" style="fill:none;stroke:#000000;"/>
    <path clip-path="url(#p3316a35304)" d="M 282.630889 330.61099 
L 282.630889 406.168516 
" style="fill:none;stroke:#000000;"/>
    <path clip-path="url(#p3316a35304)" d="M 540.306022 178.444849 
L 380.792844 255.053464 
" style="fill:none;stroke:#000000;"/>
    <path clip-path="url(#p3316a35304)" d="M 540.306022 178.444849 
L 503.495289 255.053464 
" style="fill:none;stroke:#000000;"/>
    <path clip-path="url(#p3316a35304)" d="M 540.306022 178.444849 
L 577.116756 330.61099 
" style="fill:none;stroke:#000000;"/>
    <path clip-path="url(#p3316a35304)" d="M 540.306022 178.444849 
L 699.8192 255.053464 
" style="fill:none;stroke:#000000;"/>
    <path clip-path="url(#p3316a35304)" d="M 380.792844 255.053464 
L 331.711867 330.61099 
" style="fill:none;stroke:#000000;"/>
    <path clip-path="url(#p3316a35304)" d="M 380.792844 255.053464 
L 380.792844 330.61099 
" style="fill:none;stroke:#000000;"/>
    <path clip-path="url(#p3316a35304)" d="M 380.792844 255.053464 
L 429.873822 330.61099 
" style="fill:none;stroke:#000000;"/>
    <path clip-path="url(#p3316a35304)" d="M 503.495289 255.053464 
L 478.9548 330.61099 
" style="fill:none;stroke:#000000;"/>
    <path clip-path="url(#p3316a35304)" d="M 503.495289 255.053464 
L 528.035778 330.61099 
" style="fill:none;stroke:#000000;"/>
    <path clip-path="url(#p3316a35304)" d="M 577.116756 330.61099 
L 577.116756 406.168516 
" style="fill:none;stroke:#000000;"/>
    <path clip-path="url(#p3316a35304)" d="M 699.8192 255.053464 
L 626.197734 330.61099 
" style="fill:none;stroke:#000000;"/>
    <path clip-path="url(#p3316a35304)" d="M 699.8192 255.053464 
L 675.278711 330.61099 
" style="fill:none;stroke:#000000;"/>
    <path clip-path="url(#p3316a35304)" d="M 699.8192 255.053464 
L 724.359689 330.61099 
" style="fill:none;stroke:#000000;"/>
    <path clip-path="url(#p3316a35304)" d="M 699.8192 255.053464 
L 773.440667 330.61099 
" style="fill:none;stroke:#000000;"/>
    <path clip-path="url(#p3316a35304)" d="M 626.197734 330.61099 
L 626.197734 406.168516 
" style="fill:none;stroke:#000000;"/>
    <path clip-path="url(#p3316a35304)" d="M 675.278711 330.61099 
L 675.278711 406.168516 
" style="fill:none;stroke:#000000;"/>
    <path clip-path="url(#p3316a35304)" d="M 724.359689 330.61099 
L 724.359689 406.168516 
" style="fill:none;stroke:#000000;"/>
    <path clip-path="url(#p3316a35304)" d="M 478.9548 330.61099 
L 478.9548 406.168516 
" style="fill:none;stroke:#000000;"/>
    <path clip-path="url(#p3316a35304)" d="M 528.035778 330.61099 
L 528.035778 406.168516 
" style="fill:none;stroke:#000000;"/>
    <path clip-path="url(#p3316a35304)" d="M 331.711867 330.61099 
L 331.711867 406.168516 
" style="fill:none;stroke:#000000;"/>
    <path clip-path="url(#p3316a35304)" d="M 380.792844 330.61099 
L 380.792844 406.168516 
" style="fill:none;stroke:#000000;"/>
    <path clip-path="url(#p3316a35304)" d="M 429.873822 330.61099 
L 429.873822 406.168516 
" style="fill:none;stroke:#000000;"/>
    <path clip-path="url(#p3316a35304)" d="M 37.226 330.61099 
L 37.226 406.168516 
" style="fill:none;stroke:#000000;"/>
    <path clip-path="url(#p3316a35304)" d="M 86.306978 330.61099 
L 86.306978 406.168516 
" style="fill:none;stroke:#000000;"/>
    <path clip-path="url(#p3316a35304)" d="M 159.928444 255.053464 
L 135.387955 330.61099 
" style="fill:none;stroke:#000000;"/>
    <path clip-path="url(#p3316a35304)" d="M 159.928444 255.053464 
L 184.468933 330.61099 
" style="fill:none;stroke:#000000;"/>
    <path clip-path="url(#p3316a35304)" d="M 135.387955 330.61099 
L 135.387955 406.168516 
" style="fill:none;stroke:#000000;"/>
    <path clip-path="url(#p3316a35304)" d="M 184.468933 330.61099 
L 184.468933 406.168516 
" style="fill:none;stroke:#000000;"/>
    <path clip-path="url(#p3316a35304)" d="M 773.440667 330.61099 
L 773.440667 406.168516 
" style="fill:none;stroke:#000000;"/>
   </g>
   <g id="text_1">
    <g id="patch_2">
     <path clip-path="url(#p3316a35304)" d="M 281.472241 57.421489 
L 281.472241 63.437739 
Q 281.472241 65.837739 283.872241 65.837739 
L 291.614741 65.837739 
Q 294.014741 65.837739 294.014741 63.437739 
L 294.014741 57.421489 
Q 294.014741 55.021489 291.614741 55.021489 
L 283.872241 55.021489 
Q 281.472241 55.021489 281.472241 57.421489 
z
" style="fill:#ffffff;stroke:#ffffff;stroke-linejoin:miter;"/>
    </g>
    <g clip-path="url(#p3316a35304)">
     <!-- H -->
     <defs>
      <path d="M 9.8125 72.90625 
L 19.671875 72.90625 
L 19.671875 43.015625 
L 55.515625 43.015625 
L 55.515625 72.90625 
L 65.375 72.90625 
L 65.375 0 
L 55.515625 0 
L 55.515625 34.71875 
L 19.671875 34.71875 
L 19.671875 0 
L 9.8125 0 
z
" id="DejaVuSans-72"/>
     </defs>
     <g transform="translate(285.535991 57.421489)rotate(-270)scale(0.08 -0.08)">
      <use xlink:href="#DejaVuSans-72"/>
     </g>
    </g>
   </g>
   <g id="text_2">
    <g id="patch_3">
     <path clip-path="url(#p3316a35304)" d="M 190.927656 146.242585 
L 196.001641 144.19248 
Q 198.22687 143.293393 197.327783 141.068164 
L 194.427291 133.889484 
Q 193.528204 131.664255 191.302975 132.563342 
L 186.22899 134.613447 
Q 184.003762 135.512534 184.902848 137.737763 
L 187.80334 144.916444 
Q 188.702427 147.141672 190.927656 146.242585 
z
" style="fill:#ffffff;stroke:#ffffff;stroke-linejoin:miter;"/>
    </g>
    <g clip-path="url(#p3316a35304)">
     <!-- A -->
     <defs>
      <path d="M 34.1875 63.1875 
L 20.796875 26.90625 
L 47.609375 26.90625 
z
M 28.609375 72.90625 
L 39.796875 72.90625 
L 67.578125 0 
L 57.328125 0 
L 50.6875 18.703125 
L 17.828125 18.703125 
L 11.1875 0 
L 0.78125 0 
z
" id="DejaVuSans-65"/>
     </defs>
     <g transform="translate(189.405296 142.474763)rotate(-22.0008)scale(0.08 -0.08)">
      <use xlink:href="#DejaVuSans-65"/>
     </g>
    </g>
   </g>
   <g id="text_3">
    <g id="patch_4">
     <path clip-path="url(#p3316a35304)" d="M 266.124245 219.586296 
L 267.378039 214.259359 
Q 267.927898 211.923196 265.591735 211.373337 
L 258.055178 209.599469 
Q 255.719015 209.04961 255.169156 211.385772 
L 253.915363 216.712709 
Q 253.365504 219.048872 255.701666 219.598731 
L 263.238224 221.372599 
Q 265.574386 221.922458 266.124245 219.586296 
z
" style="fill:#ffffff;stroke:#ffffff;stroke-linejoin:miter;"/>
    </g>
    <g clip-path="url(#p3316a35304)">
     <!-- A -->
     <g transform="translate(262.168587 218.655258)rotate(-76.755441)scale(0.08 -0.08)">
      <use xlink:href="#DejaVuSans-65"/>
     </g>
    </g>
   </g>
   <g id="text_4">
    <g id="patch_5">
     <path clip-path="url(#p3316a35304)" d="M 291.400522 218.163999 
L 291.513266 213.086501 
Q 291.566544 210.687092 289.167135 210.633815 
L 281.426543 210.461938 
Q 279.027135 210.40866 278.973857 212.808069 
L 278.861113 217.885567 
Q 278.807835 220.284976 281.207244 220.338254 
L 288.947836 220.51013 
Q 291.347245 220.563408 291.400522 218.163999 
z
" style="fill:#ffffff;stroke:#ffffff;stroke-linejoin:miter;"/>
    </g>
    <g clip-path="url(#p3316a35304)">
     <!-- S -->
     <defs>
      <path d="M 53.515625 70.515625 
L 53.515625 60.890625 
Q 47.90625 63.578125 42.921875 64.890625 
Q 37.9375 66.21875 33.296875 66.21875 
Q 25.25 66.21875 20.875 63.09375 
Q 16.5 59.96875 16.5 54.203125 
Q 16.5 49.359375 19.40625 46.890625 
Q 22.3125 44.4375 30.421875 42.921875 
L 36.375 41.703125 
Q 47.40625 39.59375 52.65625 34.296875 
Q 57.90625 29 57.90625 20.125 
Q 57.90625 9.515625 50.796875 4.046875 
Q 43.703125 -1.421875 29.984375 -1.421875 
Q 24.8125 -1.421875 18.96875 -0.25 
Q 13.140625 0.921875 6.890625 3.21875 
L 6.890625 13.375 
Q 12.890625 10.015625 18.65625 8.296875 
Q 24.421875 6.59375 29.984375 6.59375 
Q 38.421875 6.59375 43.015625 9.90625 
Q 47.609375 13.234375 47.609375 19.390625 
Q 47.609375 24.75 44.3125 27.78125 
Q 41.015625 30.8125 33.5 32.328125 
L 27.484375 33.5 
Q 16.453125 35.6875 11.515625 40.375 
Q 6.59375 45.0625 6.59375 53.421875 
Q 6.59375 63.09375 13.40625 68.65625 
Q 20.21875 74.21875 32.171875 74.21875 
Q 37.3125 74.21875 42.625 73.28125 
Q 47.953125 72.359375 53.515625 70.515625 
z
" id="DejaVuSans-83"/>
     </defs>
     <g transform="translate(287.337774 218.073788)rotate(-88.72798)scale(0.08 -0.08)">
      <use xlink:href="#DejaVuSans-83"/>
     </g>
    </g>
   </g>
   <g id="text_5">
    <g id="patch_6">
     <path clip-path="url(#p3316a35304)" d="M 409.558241 144.586194 
L 414.786571 146.202617 
Q 417.079489 146.911509 417.788381 144.618591 
L 420.075297 137.221543 
Q 420.78419 134.928626 418.491272 134.219733 
L 413.262942 132.603311 
Q 410.970024 131.894418 410.261132 134.187336 
L 407.974216 141.584384 
Q 407.265323 143.877302 409.558241 144.586194 
z
" style="fill:#ffffff;stroke:#ffffff;stroke-linejoin:miter;"/>
    </g>
    <g clip-path="url(#p3316a35304)">
     <!-- A -->
     <g transform="translate(410.758558 140.703759)rotate(-342.820164)scale(0.08 -0.08)">
      <use xlink:href="#DejaVuSans-65"/>
     </g>
    </g>
   </g>
   <g id="text_6">
    <g id="patch_7">
     <path clip-path="url(#p3316a35304)" d="M 70.835825 259.102179 
L 72.616173 254.371071 
Q 73.461442 252.124847 71.215218 251.279578 
L 63.968808 248.552705 
Q 61.722584 247.707436 60.877315 249.95366 
L 59.096967 254.684768 
Q 58.251698 256.930992 60.497922 257.776261 
L 67.744333 260.503134 
Q 69.990556 261.348403 70.835825 259.102179 
z
" style="fill:#ffffff;stroke:#ffffff;stroke-linejoin:miter;"/>
    </g>
    <g clip-path="url(#p3316a35304)">
     <!-- E -->
     <defs>
      <path d="M 9.8125 72.90625 
L 55.90625 72.90625 
L 55.90625 64.59375 
L 19.671875 64.59375 
L 19.671875 43.015625 
L 54.390625 43.015625 
L 54.390625 34.71875 
L 19.671875 34.71875 
L 19.671875 8.296875 
L 56.78125 8.296875 
L 56.78125 0 
L 9.8125 0 
z
" id="DejaVuSans-69"/>
     </defs>
     <g transform="translate(67.032454 257.670945)rotate(-69.378344)scale(0.08 -0.08)">
      <use xlink:href="#DejaVuSans-69"/>
     </g>
    </g>
   </g>
   <g id="text_7">
    <g id="patch_8">
     <path clip-path="url(#p3316a35304)" d="M 96.50933 257.653662 
L 96.809203 252.075466 
Q 96.938037 249.678927 94.541497 249.550093 
L 86.810161 249.134471 
Q 84.413621 249.005638 84.284788 251.402177 
L 83.984915 256.980373 
Q 83.856081 259.376913 86.252621 259.505746 
L 93.983957 259.921368 
Q 96.380497 260.050201 96.50933 257.653662 
z
" style="fill:#ffffff;stroke:#ffffff;stroke-linejoin:miter;"/>
    </g>
    <g clip-path="url(#p3316a35304)">
     <!-- C -->
     <defs>
      <path d="M 64.40625 67.28125 
L 64.40625 56.890625 
Q 59.421875 61.53125 53.78125 63.8125 
Q 48.140625 66.109375 41.796875 66.109375 
Q 29.296875 66.109375 22.65625 58.46875 
Q 16.015625 50.828125 16.015625 36.375 
Q 16.015625 21.96875 22.65625 14.328125 
Q 29.296875 6.6875 41.796875 6.6875 
Q 48.140625 6.6875 53.78125 8.984375 
Q 59.421875 11.28125 64.40625 15.921875 
L 64.40625 5.609375 
Q 59.234375 2.09375 53.4375 0.328125 
Q 47.65625 -1.421875 41.21875 -1.421875 
Q 24.65625 -1.421875 15.125 8.703125 
Q 5.609375 18.84375 5.609375 36.375 
Q 5.609375 53.953125 15.125 64.078125 
Q 24.65625 74.21875 41.21875 74.21875 
Q 47.75 74.21875 53.53125 72.484375 
Q 59.328125 70.75 64.40625 67.28125 
z
" id="DejaVuSans-67"/>
     </defs>
     <g transform="translate(92.45144 257.435517)rotate(-86.92285)scale(0.08 -0.08)">
      <use xlink:href="#DejaVuSans-67"/>
     </g>
    </g>
   </g>
   <g id="text_8">
    <g id="patch_9">
     <path clip-path="url(#p3316a35304)" d="M 120.797801 218.900631 
L 124.081091 222.744202 
Q 125.639922 224.569043 127.464763 223.010211 
L 133.351775 217.981354 
Q 135.176616 216.422522 133.617784 214.597682 
L 130.334494 210.754111 
Q 128.775662 208.929271 126.950822 210.488102 
L 121.06381 215.516959 
Q 119.238969 217.075791 120.797801 218.900631 
z
" style="fill:#ffffff;stroke:#ffffff;stroke-linejoin:miter;"/>
    </g>
    <g clip-path="url(#p3316a35304)">
     <!-- E -->
     <g transform="translate(123.887674 216.261172)rotate(-310.504915)scale(0.08 -0.08)">
      <use xlink:href="#DejaVuSans-69"/>
     </g>
    </g>
   </g>
   <g id="text_9">
    <g id="patch_10">
     <path clip-path="url(#p3316a35304)" d="M 227.278661 350.747253 
L 227.278661 386.032253 
Q 227.278661 388.432253 229.678661 388.432253 
L 237.421161 388.432253 
Q 239.821161 388.432253 239.821161 386.032253 
L 239.821161 350.747253 
Q 239.821161 348.347253 237.421161 348.347253 
L 229.678661 348.347253 
Q 227.278661 348.347253 227.278661 350.747253 
z
" style="fill:#ffffff;stroke:#ffffff;stroke-linejoin:miter;"/>
    </g>
    <g clip-path="url(#p3316a35304)">
     <!-- Terminal -->
     <defs>
      <path d="M -0.296875 72.90625 
L 61.375 72.90625 
L 61.375 64.59375 
L 35.5 64.59375 
L 35.5 0 
L 25.59375 0 
L 25.59375 64.59375 
L -0.296875 64.59375 
z
" id="DejaVuSans-84"/>
      <path d="M 56.203125 29.59375 
L 56.203125 25.203125 
L 14.890625 25.203125 
Q 15.484375 15.921875 20.484375 11.0625 
Q 25.484375 6.203125 34.421875 6.203125 
Q 39.59375 6.203125 44.453125 7.46875 
Q 49.3125 8.734375 54.109375 11.28125 
L 54.109375 2.78125 
Q 49.265625 0.734375 44.1875 -0.34375 
Q 39.109375 -1.421875 33.890625 -1.421875 
Q 20.796875 -1.421875 13.15625 6.1875 
Q 5.515625 13.8125 5.515625 26.8125 
Q 5.515625 40.234375 12.765625 48.109375 
Q 20.015625 56 32.328125 56 
Q 43.359375 56 49.78125 48.890625 
Q 56.203125 41.796875 56.203125 29.59375 
z
M 47.21875 32.234375 
Q 47.125 39.59375 43.09375 43.984375 
Q 39.0625 48.390625 32.421875 48.390625 
Q 24.90625 48.390625 20.390625 44.140625 
Q 15.875 39.890625 15.1875 32.171875 
z
" id="DejaVuSans-101"/>
      <path d="M 41.109375 46.296875 
Q 39.59375 47.171875 37.8125 47.578125 
Q 36.03125 48 33.890625 48 
Q 26.265625 48 22.1875 43.046875 
Q 18.109375 38.09375 18.109375 28.8125 
L 18.109375 0 
L 9.078125 0 
L 9.078125 54.6875 
L 18.109375 54.6875 
L 18.109375 46.1875 
Q 20.953125 51.171875 25.484375 53.578125 
Q 30.03125 56 36.53125 56 
Q 37.453125 56 38.578125 55.875 
Q 39.703125 55.765625 41.0625 55.515625 
z
" id="DejaVuSans-114"/>
      <path d="M 52 44.1875 
Q 55.375 50.25 60.0625 53.125 
Q 64.75 56 71.09375 56 
Q 79.640625 56 84.28125 50.015625 
Q 88.921875 44.046875 88.921875 33.015625 
L 88.921875 0 
L 79.890625 0 
L 79.890625 32.71875 
Q 79.890625 40.578125 77.09375 44.375 
Q 74.3125 48.1875 68.609375 48.1875 
Q 61.625 48.1875 57.5625 43.546875 
Q 53.515625 38.921875 53.515625 30.90625 
L 53.515625 0 
L 44.484375 0 
L 44.484375 32.71875 
Q 44.484375 40.625 41.703125 44.40625 
Q 38.921875 48.1875 33.109375 48.1875 
Q 26.21875 48.1875 22.15625 43.53125 
Q 18.109375 38.875 18.109375 30.90625 
L 18.109375 0 
L 9.078125 0 
L 9.078125 54.6875 
L 18.109375 54.6875 
L 18.109375 46.1875 
Q 21.1875 51.21875 25.484375 53.609375 
Q 29.78125 56 35.6875 56 
Q 41.65625 56 45.828125 52.96875 
Q 50 49.953125 52 44.1875 
z
" id="DejaVuSans-109"/>
      <path d="M 9.421875 54.6875 
L 18.40625 54.6875 
L 18.40625 0 
L 9.421875 0 
z
M 9.421875 75.984375 
L 18.40625 75.984375 
L 18.40625 64.59375 
L 9.421875 64.59375 
z
" id="DejaVuSans-105"/>
      <path d="M 54.890625 33.015625 
L 54.890625 0 
L 45.90625 0 
L 45.90625 32.71875 
Q 45.90625 40.484375 42.875 44.328125 
Q 39.84375 48.1875 33.796875 48.1875 
Q 26.515625 48.1875 22.3125 43.546875 
Q 18.109375 38.921875 18.109375 30.90625 
L 18.109375 0 
L 9.078125 0 
L 9.078125 54.6875 
L 18.109375 54.6875 
L 18.109375 46.1875 
Q 21.34375 51.125 25.703125 53.5625 
Q 30.078125 56 35.796875 56 
Q 45.21875 56 50.046875 50.171875 
Q 54.890625 44.34375 54.890625 33.015625 
z
" id="DejaVuSans-110"/>
      <path d="M 34.28125 27.484375 
Q 23.390625 27.484375 19.1875 25 
Q 14.984375 22.515625 14.984375 16.5 
Q 14.984375 11.71875 18.140625 8.90625 
Q 21.296875 6.109375 26.703125 6.109375 
Q 34.1875 6.109375 38.703125 11.40625 
Q 43.21875 16.703125 43.21875 25.484375 
L 43.21875 27.484375 
z
M 52.203125 31.203125 
L 52.203125 0 
L 43.21875 0 
L 43.21875 8.296875 
Q 40.140625 3.328125 35.546875 0.953125 
Q 30.953125 -1.421875 24.3125 -1.421875 
Q 15.921875 -1.421875 10.953125 3.296875 
Q 6 8.015625 6 15.921875 
Q 6 25.140625 12.171875 29.828125 
Q 18.359375 34.515625 30.609375 34.515625 
L 43.21875 34.515625 
L 43.21875 35.40625 
Q 43.21875 41.609375 39.140625 45 
Q 35.0625 48.390625 27.6875 48.390625 
Q 23 48.390625 18.546875 47.265625 
Q 14.109375 46.140625 10.015625 43.890625 
L 10.015625 52.203125 
Q 14.9375 54.109375 19.578125 55.046875 
Q 24.21875 56 28.609375 56 
Q 40.484375 56 46.34375 49.84375 
Q 52.203125 43.703125 52.203125 31.203125 
z
" id="DejaVuSans-97"/>
      <path d="M 9.421875 75.984375 
L 18.40625 75.984375 
L 18.40625 0 
L 9.421875 0 
z
" id="DejaVuSans-108"/>
     </defs>
     <g transform="translate(231.342411 350.747253)rotate(-270)scale(0.08 -0.08)">
      <use xlink:href="#DejaVuSans-84"/>
      <use x="60.818359" xlink:href="#DejaVuSans-101"/>
      <use x="122.341797" xlink:href="#DejaVuSans-114"/>
      <use x="163.439453" xlink:href="#DejaVuSans-109"/>
      <use x="260.851562" xlink:href="#DejaVuSans-105"/>
      <use x="288.634766" xlink:href="#DejaVuSans-110"/>
      <use x="352.013672" xlink:href="#DejaVuSans-97"/>
      <use x="413.292969" xlink:href="#DejaVuSans-108"/>
     </g>
    </g>
   </g>
   <g id="text_10">
    <g id="patch_11">
     <path clip-path="url(#p3316a35304)" d="M 276.359639 350.747253 
L 276.359639 386.032253 
Q 276.359639 388.432253 278.759639 388.432253 
L 286.502139 388.432253 
Q 288.902139 388.432253 288.902139 386.032253 
L 288.902139 350.747253 
Q 288.902139 348.347253 286.502139 348.347253 
L 278.759639 348.347253 
Q 276.359639 348.347253 276.359639 350.747253 
z
" style="fill:#ffffff;stroke:#ffffff;stroke-linejoin:miter;"/>
    </g>
    <g clip-path="url(#p3316a35304)">
     <!-- Terminal -->
     <g transform="translate(280.423389 350.747253)rotate(-270)scale(0.08 -0.08)">
      <use xlink:href="#DejaVuSans-84"/>
      <use x="60.818359" xlink:href="#DejaVuSans-101"/>
      <use x="122.341797" xlink:href="#DejaVuSans-114"/>
      <use x="163.439453" xlink:href="#DejaVuSans-109"/>
      <use x="260.851562" xlink:href="#DejaVuSans-105"/>
      <use x="288.634766" xlink:href="#DejaVuSans-110"/>
      <use x="352.013672" xlink:href="#DejaVuSans-97"/>
      <use x="413.292969" xlink:href="#DejaVuSans-108"/>
     </g>
    </g>
   </g>
   <g id="text_11">
    <g id="patch_12">
     <path clip-path="url(#p3316a35304)" d="M 460.986052 223.496467 
L 465.54278 221.30803 
Q 467.706211 220.269009 466.667191 218.105577 
L 463.315267 211.126257 
Q 462.276246 208.962826 460.112815 210.001846 
L 455.556087 212.190284 
Q 453.392655 213.229304 454.431676 215.392736 
L 457.7836 222.372056 
Q 458.822621 224.535488 460.986052 223.496467 
z
" style="fill:#ffffff;stroke:#ffffff;stroke-linejoin:miter;"/>
    </g>
    <g clip-path="url(#p3316a35304)">
     <!-- E -->
     <g transform="translate(459.226752 219.833282)rotate(-25.65335)scale(0.08 -0.08)">
      <use xlink:href="#DejaVuSans-69"/>
     </g>
    </g>
   </g>
   <g id="text_12">
    <g id="patch_13">
     <path clip-path="url(#p3316a35304)" d="M 526.45856 221.743387 
L 528.647881 217.187084 
Q 529.687321 215.023854 527.524092 213.984414 
L 520.545422 210.631136 
Q 518.382192 209.591696 517.342751 211.754926 
L 515.15343 216.311229 
Q 514.11399 218.474459 516.27722 219.513899 
L 523.25589 222.867177 
Q 525.41912 223.906617 526.45856 221.743387 
z
" style="fill:#ffffff;stroke:#ffffff;stroke-linejoin:miter;"/>
    </g>
    <g clip-path="url(#p3316a35304)">
     <!-- E -->
     <g transform="translate(522.795716 219.983377)rotate(-64.335537)scale(0.08 -0.08)">
      <use xlink:href="#DejaVuSans-69"/>
     </g>
    </g>
   </g>
   <g id="text_13">
    <g id="patch_14">
     <path clip-path="url(#p3316a35304)" d="M 551.959214 253.287657 
L 553.272705 258.717291 
Q 553.837015 261.050005 556.169729 260.485695 
L 563.695161 258.665207 
Q 566.027875 258.100896 565.463564 255.768183 
L 564.150074 250.338548 
Q 563.585763 248.005834 561.253049 248.570144 
L 553.727617 250.390633 
Q 551.394903 250.954943 551.959214 253.287657 
z
" style="fill:#ffffff;stroke:#ffffff;stroke-linejoin:miter;"/>
    </g>
    <g clip-path="url(#p3316a35304)">
     <!-- C -->
     <g transform="translate(555.909033 252.33215)rotate(-283.599242)scale(0.08 -0.08)">
      <use xlink:href="#DejaVuSans-67"/>
     </g>
    </g>
   </g>
   <g id="text_14">
    <g id="patch_15">
     <path clip-path="url(#p3316a35304)" d="M 615.069265 221.30803 
L 619.625992 223.496467 
Q 621.789424 224.535488 622.828445 222.372056 
L 626.180369 215.392736 
Q 627.219389 213.229304 625.055958 212.190284 
L 620.49923 210.001846 
Q 618.335799 208.962826 617.296778 211.126257 
L 613.944854 218.105577 
Q 612.905833 220.269009 615.069265 221.30803 
z
" style="fill:#ffffff;stroke:#ffffff;stroke-linejoin:miter;"/>
    </g>
    <g clip-path="url(#p3316a35304)">
     <!-- E -->
     <g transform="translate(616.828565 217.644844)rotate(-334.34665)scale(0.08 -0.08)">
      <use xlink:href="#DejaVuSans-69"/>
     </g>
    </g>
   </g>
   <g id="text_15">
    <g id="patch_16">
     <path clip-path="url(#p3316a35304)" d="M 359.997398 298.57924 
L 363.02549 293.917656 
Q 364.332873 291.905009 362.320226 290.597625 
L 355.827343 286.379951 
Q 353.814697 285.072567 352.507313 287.085214 
L 349.479221 291.746798 
Q 348.171838 293.759445 350.184485 295.066829 
L 356.677368 299.284503 
Q 358.690015 300.591887 359.997398 298.57924 
z
" style="fill:#ffffff;stroke:#ffffff;stroke-linejoin:miter;"/>
    </g>
    <g clip-path="url(#p3316a35304)">
     <!-- R -->
     <defs>
      <path d="M 44.390625 34.1875 
Q 47.5625 33.109375 50.5625 29.59375 
Q 53.5625 26.078125 56.59375 19.921875 
L 66.609375 0 
L 56 0 
L 46.6875 18.703125 
Q 43.0625 26.03125 39.671875 28.421875 
Q 36.28125 30.8125 30.421875 30.8125 
L 19.671875 30.8125 
L 19.671875 0 
L 9.8125 0 
L 9.8125 72.90625 
L 32.078125 72.90625 
Q 44.578125 72.90625 50.734375 67.671875 
Q 56.890625 62.453125 56.890625 51.90625 
Q 56.890625 45.015625 53.6875 40.46875 
Q 50.484375 35.9375 44.390625 34.1875 
z
M 19.671875 64.796875 
L 19.671875 38.921875 
L 32.078125 38.921875 
Q 39.203125 38.921875 42.84375 42.21875 
Q 46.484375 45.515625 46.484375 51.90625 
Q 46.484375 58.296875 42.84375 61.546875 
Q 39.203125 64.796875 32.078125 64.796875 
z
" id="DejaVuSans-82"/>
     </defs>
     <g transform="translate(356.589526 296.365539)rotate(-56.992882)scale(0.08 -0.08)">
      <use xlink:href="#DejaVuSans-82"/>
     </g>
    </g>
   </g>
   <g id="text_16">
    <g id="patch_17">
     <path clip-path="url(#p3316a35304)" d="M 374.521594 290.039102 
L 374.521594 295.625352 
Q 374.521594 298.025352 376.921594 298.025352 
L 384.664094 298.025352 
Q 387.064094 298.025352 387.064094 295.625352 
L 387.064094 290.039102 
Q 387.064094 287.639102 384.664094 287.639102 
L 376.921594 287.639102 
Q 374.521594 287.639102 374.521594 290.039102 
z
" style="fill:#ffffff;stroke:#ffffff;stroke-linejoin:miter;"/>
    </g>
    <g clip-path="url(#p3316a35304)">
     <!-- C -->
     <g transform="translate(378.585344 290.039102)rotate(-270)scale(0.08 -0.08)">
      <use xlink:href="#DejaVuSans-67"/>
     </g>
    </g>
   </g>
   <g id="text_17">
    <g id="patch_18">
     <path clip-path="url(#p3316a35304)" d="M 398.560199 293.917656 
L 401.588291 298.57924 
Q 402.895674 300.591887 404.908321 299.284503 
L 411.401204 295.066829 
Q 413.413851 293.759445 412.106467 291.746798 
L 409.078376 287.085214 
Q 407.770992 285.072567 405.758345 286.379951 
L 399.265462 290.597625 
Q 397.252815 291.905009 398.560199 293.917656 
z
" style="fill:#ffffff;stroke:#ffffff;stroke-linejoin:miter;"/>
    </g>
    <g clip-path="url(#p3316a35304)">
     <!-- R -->
     <g transform="translate(401.968072 291.703956)rotate(-303.007118)scale(0.08 -0.08)">
      <use xlink:href="#DejaVuSans-82"/>
     </g>
    </g>
   </g>
   <g id="text_18">
    <g id="patch_19">
     <path clip-path="url(#p3316a35304)" d="M 496.408818 297.173347 
L 497.970344 292.365576 
Q 498.711722 290.082955 496.429101 289.341577 
L 489.065269 286.949863 
Q 486.782648 286.208486 486.041271 288.491107 
L 484.479745 293.298878 
Q 483.738367 295.581499 486.020989 296.322876 
L 493.38482 298.714591 
Q 495.667441 299.455968 496.408818 297.173347 
z
" style="fill:#ffffff;stroke:#ffffff;stroke-linejoin:miter;"/>
    </g>
    <g clip-path="url(#p3316a35304)">
     <!-- E -->
     <g transform="translate(492.543817 295.918025)rotate(-72.006612)scale(0.08 -0.08)">
      <use xlink:href="#DejaVuSans-69"/>
     </g>
    </g>
   </g>
   <g id="text_19">
    <g id="patch_20">
     <path clip-path="url(#p3316a35304)" d="M 508.93818 292.112942 
L 510.663813 297.425981 
Q 511.405191 299.708602 513.687812 298.967225 
L 521.051643 296.57551 
Q 523.334264 295.834133 522.592887 293.551512 
L 520.867254 288.238473 
Q 520.125876 285.955852 517.843255 286.697229 
L 510.479424 289.088943 
Q 508.196803 289.830321 508.93818 292.112942 
z
" style="fill:#ffffff;stroke:#ffffff;stroke-linejoin:miter;"/>
    </g>
    <g clip-path="url(#p3316a35304)">
     <!-- C -->
     <g transform="translate(512.803181 290.85762)rotate(-287.993388)scale(0.08 -0.08)">
      <use xlink:href="#DejaVuSans-67"/>
     </g>
    </g>
   </g>
   <g id="text_20">
    <g id="patch_21">
     <path clip-path="url(#p3316a35304)" d="M 570.845506 350.747253 
L 570.845506 386.032253 
Q 570.845506 388.432253 573.245506 388.432253 
L 580.988006 388.432253 
Q 583.388006 388.432253 583.388006 386.032253 
L 583.388006 350.747253 
Q 583.388006 348.347253 580.988006 348.347253 
L 573.245506 348.347253 
Q 570.845506 348.347253 570.845506 350.747253 
z
" style="fill:#ffffff;stroke:#ffffff;stroke-linejoin:miter;"/>
    </g>
    <g clip-path="url(#p3316a35304)">
     <!-- Terminal -->
     <g transform="translate(574.909256 350.747253)rotate(-270)scale(0.08 -0.08)">
      <use xlink:href="#DejaVuSans-84"/>
      <use x="60.818359" xlink:href="#DejaVuSans-101"/>
      <use x="122.341797" xlink:href="#DejaVuSans-114"/>
      <use x="163.439453" xlink:href="#DejaVuSans-109"/>
      <use x="260.851562" xlink:href="#DejaVuSans-105"/>
      <use x="288.634766" xlink:href="#DejaVuSans-110"/>
      <use x="352.013672" xlink:href="#DejaVuSans-97"/>
      <use x="413.292969" xlink:href="#DejaVuSans-108"/>
     </g>
    </g>
   </g>
   <g id="text_21">
    <g id="patch_22">
     <path clip-path="url(#p3316a35304)" d="M 665.560437 299.199404 
L 669.439728 295.218098 
Q 671.114619 293.499162 669.395683 291.824271 
L 663.850323 286.421004 
Q 662.131387 284.746113 660.456497 286.465049 
L 656.577206 290.446356 
Q 654.902315 292.165292 656.621251 293.840183 
L 662.16661 299.24345 
Q 663.885546 300.91834 665.560437 299.199404 
z
" style="fill:#ffffff;stroke:#ffffff;stroke-linejoin:miter;"/>
    </g>
    <g clip-path="url(#p3316a35304)">
     <!-- R -->
     <g transform="translate(662.649884 296.363431)rotate(-45.743548)scale(0.08 -0.08)">
      <use xlink:href="#DejaVuSans-82"/>
     </g>
    </g>
   </g>
   <g id="text_22">
    <g id="patch_23">
     <path clip-path="url(#p3316a35304)" d="M 692.73273 297.173347 
L 694.294256 292.365576 
Q 695.035633 290.082955 692.753012 289.341577 
L 685.389181 286.949863 
Q 683.106559 286.208486 682.365182 288.491107 
L 680.803656 293.298878 
Q 680.062279 295.581499 682.3449 296.322876 
L 689.708731 298.714591 
Q 691.991352 299.455968 692.73273 297.173347 
z
" style="fill:#ffffff;stroke:#ffffff;stroke-linejoin:miter;"/>
    </g>
    <g clip-path="url(#p3316a35304)">
     <!-- E -->
     <g transform="translate(688.867729 295.918025)rotate(-72.006612)scale(0.08 -0.08)">
      <use xlink:href="#DejaVuSans-69"/>
     </g>
    </g>
   </g>
   <g id="text_23">
    <g id="patch_24">
     <path clip-path="url(#p3316a35304)" d="M 705.262091 292.112942 
L 706.987724 297.425981 
Q 707.729102 299.708602 710.011723 298.967225 
L 717.375554 296.57551 
Q 719.658175 295.834133 718.916798 293.551512 
L 717.191165 288.238473 
Q 716.449788 285.955852 714.167166 286.697229 
L 706.803335 289.088943 
Q 704.520714 289.830321 705.262091 292.112942 
z
" style="fill:#ffffff;stroke:#ffffff;stroke-linejoin:miter;"/>
    </g>
    <g clip-path="url(#p3316a35304)">
     <!-- C -->
     <g transform="translate(709.127092 290.85762)rotate(-287.993388)scale(0.08 -0.08)">
      <use xlink:href="#DejaVuSans-67"/>
     </g>
    </g>
   </g>
   <g id="text_24">
    <g id="patch_25">
     <path clip-path="url(#p3316a35304)" d="M 730.0953 295.112007 
L 734.181336 299.305495 
Q 735.856226 301.024431 737.575162 299.34954 
L 743.120522 293.946273 
Q 744.839458 292.271383 743.164567 290.552447 
L 739.078532 286.358959 
Q 737.403641 284.640023 735.684705 286.314913 
L 730.139346 291.71818 
Q 728.420409 293.393071 730.0953 295.112007 
z
" style="fill:#ffffff;stroke:#ffffff;stroke-linejoin:miter;"/>
    </g>
    <g clip-path="url(#p3316a35304)">
     <!-- U -->
     <defs>
      <path d="M 8.6875 72.90625 
L 18.609375 72.90625 
L 18.609375 28.609375 
Q 18.609375 16.890625 22.84375 11.734375 
Q 27.09375 6.59375 36.625 6.59375 
Q 46.09375 6.59375 50.34375 11.734375 
Q 54.59375 16.890625 54.59375 28.609375 
L 54.59375 72.90625 
L 64.5 72.90625 
L 64.5 27.390625 
Q 64.5 13.140625 57.4375 5.859375 
Q 50.390625 -1.421875 36.625 -1.421875 
Q 22.796875 -1.421875 15.734375 5.859375 
Q 8.6875 13.140625 8.6875 27.390625 
z
" id="DejaVuSans-85"/>
     </defs>
     <g transform="translate(733.005853 292.276033)rotate(-314.256452)scale(0.08 -0.08)">
      <use xlink:href="#DejaVuSans-85"/>
     </g>
    </g>
   </g>
   <g id="text_25">
    <g id="patch_26">
     <path clip-path="url(#p3316a35304)" d="M 619.926484 350.747253 
L 619.926484 386.032253 
Q 619.926484 388.432253 622.326484 388.432253 
L 630.068984 388.432253 
Q 632.468984 388.432253 632.468984 386.032253 
L 632.468984 350.747253 
Q 632.468984 348.347253 630.068984 348.347253 
L 622.326484 348.347253 
Q 619.926484 348.347253 619.926484 350.747253 
z
" style="fill:#ffffff;stroke:#ffffff;stroke-linejoin:miter;"/>
    </g>
    <g clip-path="url(#p3316a35304)">
     <!-- Terminal -->
     <g transform="translate(623.990234 350.747253)rotate(-270)scale(0.08 -0.08)">
      <use xlink:href="#DejaVuSans-84"/>
      <use x="60.818359" xlink:href="#DejaVuSans-101"/>
      <use x="122.341797" xlink:href="#DejaVuSans-114"/>
      <use x="163.439453" xlink:href="#DejaVuSans-109"/>
      <use x="260.851562" xlink:href="#DejaVuSans-105"/>
      <use x="288.634766" xlink:href="#DejaVuSans-110"/>
      <use x="352.013672" xlink:href="#DejaVuSans-97"/>
      <use x="413.292969" xlink:href="#DejaVuSans-108"/>
     </g>
    </g>
   </g>
   <g id="text_26">
    <g id="patch_27">
     <path clip-path="url(#p3316a35304)" d="M 669.007461 350.747253 
L 669.007461 386.032253 
Q 669.007461 388.432253 671.407461 388.432253 
L 679.149961 388.432253 
Q 681.549961 388.432253 681.549961 386.032253 
L 681.549961 350.747253 
Q 681.549961 348.347253 679.149961 348.347253 
L 671.407461 348.347253 
Q 669.007461 348.347253 669.007461 350.747253 
z
" style="fill:#ffffff;stroke:#ffffff;stroke-linejoin:miter;"/>
    </g>
    <g clip-path="url(#p3316a35304)">
     <!-- Terminal -->
     <g transform="translate(673.071211 350.747253)rotate(-270)scale(0.08 -0.08)">
      <use xlink:href="#DejaVuSans-84"/>
      <use x="60.818359" xlink:href="#DejaVuSans-101"/>
      <use x="122.341797" xlink:href="#DejaVuSans-114"/>
      <use x="163.439453" xlink:href="#DejaVuSans-109"/>
      <use x="260.851562" xlink:href="#DejaVuSans-105"/>
      <use x="288.634766" xlink:href="#DejaVuSans-110"/>
      <use x="352.013672" xlink:href="#DejaVuSans-97"/>
      <use x="413.292969" xlink:href="#DejaVuSans-108"/>
     </g>
    </g>
   </g>
   <g id="text_27">
    <g id="patch_28">
     <path clip-path="url(#p3316a35304)" d="M 718.088439 350.747253 
L 718.088439 386.032253 
Q 718.088439 388.432253 720.488439 388.432253 
L 728.230939 388.432253 
Q 730.630939 388.432253 730.630939 386.032253 
L 730.630939 350.747253 
Q 730.630939 348.347253 728.230939 348.347253 
L 720.488439 348.347253 
Q 718.088439 348.347253 718.088439 350.747253 
z
" style="fill:#ffffff;stroke:#ffffff;stroke-linejoin:miter;"/>
    </g>
    <g clip-path="url(#p3316a35304)">
     <!-- Terminal -->
     <g transform="translate(722.152189 350.747253)rotate(-270)scale(0.08 -0.08)">
      <use xlink:href="#DejaVuSans-84"/>
      <use x="60.818359" xlink:href="#DejaVuSans-101"/>
      <use x="122.341797" xlink:href="#DejaVuSans-114"/>
      <use x="163.439453" xlink:href="#DejaVuSans-109"/>
      <use x="260.851562" xlink:href="#DejaVuSans-105"/>
      <use x="288.634766" xlink:href="#DejaVuSans-110"/>
      <use x="352.013672" xlink:href="#DejaVuSans-97"/>
      <use x="413.292969" xlink:href="#DejaVuSans-108"/>
     </g>
    </g>
   </g>
   <g id="text_28">
    <g id="patch_29">
     <path clip-path="url(#p3316a35304)" d="M 472.68355 350.747253 
L 472.68355 386.032253 
Q 472.68355 388.432253 475.08355 388.432253 
L 482.82605 388.432253 
Q 485.22605 388.432253 485.22605 386.032253 
L 485.22605 350.747253 
Q 485.22605 348.347253 482.82605 348.347253 
L 475.08355 348.347253 
Q 472.68355 348.347253 472.68355 350.747253 
z
" style="fill:#ffffff;stroke:#ffffff;stroke-linejoin:miter;"/>
    </g>
    <g clip-path="url(#p3316a35304)">
     <!-- Terminal -->
     <g transform="translate(476.7473 350.747253)rotate(-270)scale(0.08 -0.08)">
      <use xlink:href="#DejaVuSans-84"/>
      <use x="60.818359" xlink:href="#DejaVuSans-101"/>
      <use x="122.341797" xlink:href="#DejaVuSans-114"/>
      <use x="163.439453" xlink:href="#DejaVuSans-109"/>
      <use x="260.851562" xlink:href="#DejaVuSans-105"/>
      <use x="288.634766" xlink:href="#DejaVuSans-110"/>
      <use x="352.013672" xlink:href="#DejaVuSans-97"/>
      <use x="413.292969" xlink:href="#DejaVuSans-108"/>
     </g>
    </g>
   </g>
   <g id="text_29">
    <g id="patch_30">
     <path clip-path="url(#p3316a35304)" d="M 521.764528 350.747253 
L 521.764528 386.032253 
Q 521.764528 388.432253 524.164528 388.432253 
L 531.907028 388.432253 
Q 534.307028 388.432253 534.307028 386.032253 
L 534.307028 350.747253 
Q 534.307028 348.347253 531.907028 348.347253 
L 524.164528 348.347253 
Q 521.764528 348.347253 521.764528 350.747253 
z
" style="fill:#ffffff;stroke:#ffffff;stroke-linejoin:miter;"/>
    </g>
    <g clip-path="url(#p3316a35304)">
     <!-- Terminal -->
     <g transform="translate(525.828278 350.747253)rotate(-270)scale(0.08 -0.08)">
      <use xlink:href="#DejaVuSans-84"/>
      <use x="60.818359" xlink:href="#DejaVuSans-101"/>
      <use x="122.341797" xlink:href="#DejaVuSans-114"/>
      <use x="163.439453" xlink:href="#DejaVuSans-109"/>
      <use x="260.851562" xlink:href="#DejaVuSans-105"/>
      <use x="288.634766" xlink:href="#DejaVuSans-110"/>
      <use x="352.013672" xlink:href="#DejaVuSans-97"/>
      <use x="413.292969" xlink:href="#DejaVuSans-108"/>
     </g>
    </g>
   </g>
   <g id="text_30">
    <g id="patch_31">
     <path clip-path="url(#p3316a35304)" d="M 325.440617 350.747253 
L 325.440617 386.032253 
Q 325.440617 388.432253 327.840617 388.432253 
L 335.583117 388.432253 
Q 337.983117 388.432253 337.983117 386.032253 
L 337.983117 350.747253 
Q 337.983117 348.347253 335.583117 348.347253 
L 327.840617 348.347253 
Q 325.440617 348.347253 325.440617 350.747253 
z
" style="fill:#ffffff;stroke:#ffffff;stroke-linejoin:miter;"/>
    </g>
    <g clip-path="url(#p3316a35304)">
     <!-- Terminal -->
     <g transform="translate(329.504367 350.747253)rotate(-270)scale(0.08 -0.08)">
      <use xlink:href="#DejaVuSans-84"/>
      <use x="60.818359" xlink:href="#DejaVuSans-101"/>
      <use x="122.341797" xlink:href="#DejaVuSans-114"/>
      <use x="163.439453" xlink:href="#DejaVuSans-109"/>
      <use x="260.851562" xlink:href="#DejaVuSans-105"/>
      <use x="288.634766" xlink:href="#DejaVuSans-110"/>
      <use x="352.013672" xlink:href="#DejaVuSans-97"/>
      <use x="413.292969" xlink:href="#DejaVuSans-108"/>
     </g>
    </g>
   </g>
   <g id="text_31">
    <g id="patch_32">
     <path clip-path="url(#p3316a35304)" d="M 374.521594 350.747253 
L 374.521594 386.032253 
Q 374.521594 388.432253 376.921594 388.432253 
L 384.664094 388.432253 
Q 387.064094 388.432253 387.064094 386.032253 
L 387.064094 350.747253 
Q 387.064094 348.347253 384.664094 348.347253 
L 376.921594 348.347253 
Q 374.521594 348.347253 374.521594 350.747253 
z
" style="fill:#ffffff;stroke:#ffffff;stroke-linejoin:miter;"/>
    </g>
    <g clip-path="url(#p3316a35304)">
     <!-- Terminal -->
     <g transform="translate(378.585344 350.747253)rotate(-270)scale(0.08 -0.08)">
      <use xlink:href="#DejaVuSans-84"/>
      <use x="60.818359" xlink:href="#DejaVuSans-101"/>
      <use x="122.341797" xlink:href="#DejaVuSans-114"/>
      <use x="163.439453" xlink:href="#DejaVuSans-109"/>
      <use x="260.851562" xlink:href="#DejaVuSans-105"/>
      <use x="288.634766" xlink:href="#DejaVuSans-110"/>
      <use x="352.013672" xlink:href="#DejaVuSans-97"/>
      <use x="413.292969" xlink:href="#DejaVuSans-108"/>
     </g>
    </g>
   </g>
   <g id="text_32">
    <g id="patch_33">
     <path clip-path="url(#p3316a35304)" d="M 423.602572 350.747253 
L 423.602572 386.032253 
Q 423.602572 388.432253 426.002572 388.432253 
L 433.745072 388.432253 
Q 436.145072 388.432253 436.145072 386.032253 
L 436.145072 350.747253 
Q 436.145072 348.347253 433.745072 348.347253 
L 426.002572 348.347253 
Q 423.602572 348.347253 423.602572 350.747253 
z
" style="fill:#ffffff;stroke:#ffffff;stroke-linejoin:miter;"/>
    </g>
    <g clip-path="url(#p3316a35304)">
     <!-- Terminal -->
     <g transform="translate(427.666322 350.747253)rotate(-270)scale(0.08 -0.08)">
      <use xlink:href="#DejaVuSans-84"/>
      <use x="60.818359" xlink:href="#DejaVuSans-101"/>
      <use x="122.341797" xlink:href="#DejaVuSans-114"/>
      <use x="163.439453" xlink:href="#DejaVuSans-109"/>
      <use x="260.851562" xlink:href="#DejaVuSans-105"/>
      <use x="288.634766" xlink:href="#DejaVuSans-110"/>
      <use x="352.013672" xlink:href="#DejaVuSans-97"/>
      <use x="413.292969" xlink:href="#DejaVuSans-108"/>
     </g>
    </g>
   </g>
   <g id="text_33">
    <g id="patch_34">
     <path clip-path="url(#p3316a35304)" d="M 30.95475 350.747253 
L 30.95475 386.032253 
Q 30.95475 388.432253 33.35475 388.432253 
L 41.09725 388.432253 
Q 43.49725 388.432253 43.49725 386.032253 
L 43.49725 350.747253 
Q 43.49725 348.347253 41.09725 348.347253 
L 33.35475 348.347253 
Q 30.95475 348.347253 30.95475 350.747253 
z
" style="fill:#ffffff;stroke:#ffffff;stroke-linejoin:miter;"/>
    </g>
    <g clip-path="url(#p3316a35304)">
     <!-- Terminal -->
     <g transform="translate(35.0185 350.747253)rotate(-270)scale(0.08 -0.08)">
      <use xlink:href="#DejaVuSans-84"/>
      <use x="60.818359" xlink:href="#DejaVuSans-101"/>
      <use x="122.341797" xlink:href="#DejaVuSans-114"/>
      <use x="163.439453" xlink:href="#DejaVuSans-109"/>
      <use x="260.851562" xlink:href="#DejaVuSans-105"/>
      <use x="288.634766" xlink:href="#DejaVuSans-110"/>
      <use x="352.013672" xlink:href="#DejaVuSans-97"/>
      <use x="413.292969" xlink:href="#DejaVuSans-108"/>
     </g>
    </g>
   </g>
   <g id="text_34">
    <g id="patch_35">
     <path clip-path="url(#p3316a35304)" d="M 80.035728 350.747253 
L 80.035728 386.032253 
Q 80.035728 388.432253 82.435728 388.432253 
L 90.178228 388.432253 
Q 92.578228 388.432253 92.578228 386.032253 
L 92.578228 350.747253 
Q 92.578228 348.347253 90.178228 348.347253 
L 82.435728 348.347253 
Q 80.035728 348.347253 80.035728 350.747253 
z
" style="fill:#ffffff;stroke:#ffffff;stroke-linejoin:miter;"/>
    </g>
    <g clip-path="url(#p3316a35304)">
     <!-- Terminal -->
     <g transform="translate(84.099478 350.747253)rotate(-270)scale(0.08 -0.08)">
      <use xlink:href="#DejaVuSans-84"/>
      <use x="60.818359" xlink:href="#DejaVuSans-101"/>
      <use x="122.341797" xlink:href="#DejaVuSans-114"/>
      <use x="163.439453" xlink:href="#DejaVuSans-109"/>
      <use x="260.851562" xlink:href="#DejaVuSans-105"/>
      <use x="288.634766" xlink:href="#DejaVuSans-110"/>
      <use x="352.013672" xlink:href="#DejaVuSans-97"/>
      <use x="413.292969" xlink:href="#DejaVuSans-108"/>
     </g>
    </g>
   </g>
   <g id="text_35">
    <g id="patch_36">
     <path clip-path="url(#p3316a35304)" d="M 152.764167 297.412903 
L 154.481306 292.12602 
Q 155.222683 289.843398 152.940062 289.102021 
L 145.576231 286.710307 
Q 143.293609 285.968929 142.552232 288.251551 
L 140.835094 293.538434 
Q 140.093717 295.821055 142.376338 296.562433 
L 149.740169 298.954147 
Q 152.02279 299.695524 152.764167 297.412903 
z
" style="fill:#ffffff;stroke:#ffffff;stroke-linejoin:miter;"/>
    </g>
    <g clip-path="url(#p3316a35304)">
     <!-- R -->
     <g transform="translate(148.899167 296.157581)rotate(-72.006612)scale(0.08 -0.08)">
      <use xlink:href="#DejaVuSans-82"/>
     </g>
    </g>
   </g>
   <g id="text_36">
    <g id="patch_37">
     <path clip-path="url(#p3316a35304)" d="M 165.371335 292.112942 
L 167.096968 297.425981 
Q 167.838346 299.708602 170.120967 298.967225 
L 177.484798 296.57551 
Q 179.767419 295.834133 179.026042 293.551512 
L 177.300409 288.238473 
Q 176.559032 285.955852 174.27641 286.697229 
L 166.912579 289.088943 
Q 164.629958 289.830321 165.371335 292.112942 
z
" style="fill:#ffffff;stroke:#ffffff;stroke-linejoin:miter;"/>
    </g>
    <g clip-path="url(#p3316a35304)">
     <!-- C -->
     <g transform="translate(169.236336 290.85762)rotate(-287.993388)scale(0.08 -0.08)">
      <use xlink:href="#DejaVuSans-67"/>
     </g>
    </g>
   </g>
   <g id="text_37">
    <g id="patch_38">
     <path clip-path="url(#p3316a35304)" d="M 129.116705 350.747253 
L 129.116705 386.032253 
Q 129.116705 388.432253 131.516705 388.432253 
L 139.259205 388.432253 
Q 141.659205 388.432253 141.659205 386.032253 
L 141.659205 350.747253 
Q 141.659205 348.347253 139.259205 348.347253 
L 131.516705 348.347253 
Q 129.116705 348.347253 129.116705 350.747253 
z
" style="fill:#ffffff;stroke:#ffffff;stroke-linejoin:miter;"/>
    </g>
    <g clip-path="url(#p3316a35304)">
     <!-- Terminal -->
     <g transform="translate(133.180455 350.747253)rotate(-270)scale(0.08 -0.08)">
      <use xlink:href="#DejaVuSans-84"/>
      <use x="60.818359" xlink:href="#DejaVuSans-101"/>
      <use x="122.341797" xlink:href="#DejaVuSans-114"/>
      <use x="163.439453" xlink:href="#DejaVuSans-109"/>
      <use x="260.851562" xlink:href="#DejaVuSans-105"/>
      <use x="288.634766" xlink:href="#DejaVuSans-110"/>
      <use x="352.013672" xlink:href="#DejaVuSans-97"/>
      <use x="413.292969" xlink:href="#DejaVuSans-108"/>
     </g>
    </g>
   </g>
   <g id="text_38">
    <g id="patch_39">
     <path clip-path="url(#p3316a35304)" d="M 178.197683 350.747253 
L 178.197683 386.032253 
Q 178.197683 388.432253 180.597683 388.432253 
L 188.340183 388.432253 
Q 190.740183 388.432253 190.740183 386.032253 
L 190.740183 350.747253 
Q 190.740183 348.347253 188.340183 348.347253 
L 180.597683 348.347253 
Q 178.197683 348.347253 178.197683 350.747253 
z
" style="fill:#ffffff;stroke:#ffffff;stroke-linejoin:miter;"/>
    </g>
    <g clip-path="url(#p3316a35304)">
     <!-- Terminal -->
     <g transform="translate(182.261433 350.747253)rotate(-270)scale(0.08 -0.08)">
      <use xlink:href="#DejaVuSans-84"/>
      <use x="60.818359" xlink:href="#DejaVuSans-101"/>
      <use x="122.341797" xlink:href="#DejaVuSans-114"/>
      <use x="163.439453" xlink:href="#DejaVuSans-109"/>
      <use x="260.851562" xlink:href="#DejaVuSans-105"/>
      <use x="288.634766" xlink:href="#DejaVuSans-110"/>
      <use x="352.013672" xlink:href="#DejaVuSans-97"/>
      <use x="413.292969" xlink:href="#DejaVuSans-108"/>
     </g>
    </g>
   </g>
   <g id="text_39">
    <g id="patch_40">
     <path clip-path="url(#p3316a35304)" d="M 767.169417 350.747253 
L 767.169417 386.032253 
Q 767.169417 388.432253 769.569417 388.432253 
L 777.311917 388.432253 
Q 779.711917 388.432253 779.711917 386.032253 
L 779.711917 350.747253 
Q 779.711917 348.347253 777.311917 348.347253 
L 769.569417 348.347253 
Q 767.169417 348.347253 767.169417 350.747253 
z
" style="fill:#ffffff;stroke:#ffffff;stroke-linejoin:miter;"/>
    </g>
    <g clip-path="url(#p3316a35304)">
     <!-- Terminal -->
     <g transform="translate(771.233167 350.747253)rotate(-270)scale(0.08 -0.08)">
      <use xlink:href="#DejaVuSans-84"/>
      <use x="60.818359" xlink:href="#DejaVuSans-101"/>
      <use x="122.341797" xlink:href="#DejaVuSans-114"/>
      <use x="163.439453" xlink:href="#DejaVuSans-109"/>
      <use x="260.851562" xlink:href="#DejaVuSans-105"/>
      <use x="288.634766" xlink:href="#DejaVuSans-110"/>
      <use x="352.013672" xlink:href="#DejaVuSans-97"/>
      <use x="413.292969" xlink:href="#DejaVuSans-108"/>
     </g>
    </g>
   </g>
   <g id="PathCollection_1">
    <defs>
     <path d="M 0 8.660254 
C 2.296726 8.660254 4.499694 7.747755 6.123724 6.123724 
C 7.747755 4.499694 8.660254 2.296726 8.660254 0 
C 8.660254 -2.296726 7.747755 -4.499694 6.123724 -6.123724 
C 4.499694 -7.747755 2.296726 -8.660254 0 -8.660254 
C -2.296726 -8.660254 -4.499694 -7.747755 -6.123724 -6.123724 
C -7.747755 -4.499694 -8.660254 -2.296726 -8.660254 0 
C -8.660254 2.296726 -7.747755 4.499694 -6.123724 6.123724 
C -4.499694 7.747755 -2.296726 8.660254 0 8.660254 
z
" id="C0_0_cc2361799b"/>
    </defs>
    <g clip-path="url(#p3316a35304)">
     <use style="fill:#ffffff;stroke:#ffffff;" x="37.226" xlink:href="#C0_0_cc2361799b" y="406.168516"/>
    </g>
    <g clip-path="url(#p3316a35304)">
     <use style="fill:#ffffff;stroke:#ffffff;" x="86.306978" xlink:href="#C0_0_cc2361799b" y="406.168516"/>
    </g>
    <g clip-path="url(#p3316a35304)">
     <use style="fill:#ffffff;stroke:#ffffff;" x="135.387955" xlink:href="#C0_0_cc2361799b" y="406.168516"/>
    </g>
    <g clip-path="url(#p3316a35304)">
     <use style="fill:#ffffff;stroke:#ffffff;" x="184.468933" xlink:href="#C0_0_cc2361799b" y="406.168516"/>
    </g>
    <g clip-path="url(#p3316a35304)">
     <use style="fill:#ffffff;stroke:#ffffff;" x="233.549911" xlink:href="#C0_0_cc2361799b" y="406.168516"/>
    </g>
    <g clip-path="url(#p3316a35304)">
     <use style="fill:#ffffff;stroke:#ffffff;" x="282.630889" xlink:href="#C0_0_cc2361799b" y="406.168516"/>
    </g>
    <g clip-path="url(#p3316a35304)">
     <use style="fill:#ffffff;stroke:#ffffff;" x="331.711867" xlink:href="#C0_0_cc2361799b" y="406.168516"/>
    </g>
    <g clip-path="url(#p3316a35304)">
     <use style="fill:#ffffff;stroke:#ffffff;" x="380.792844" xlink:href="#C0_0_cc2361799b" y="406.168516"/>
    </g>
    <g clip-path="url(#p3316a35304)">
     <use style="fill:#ffffff;stroke:#ffffff;" x="429.873822" xlink:href="#C0_0_cc2361799b" y="406.168516"/>
    </g>
    <g clip-path="url(#p3316a35304)">
     <use style="fill:#ffffff;stroke:#ffffff;" x="478.9548" xlink:href="#C0_0_cc2361799b" y="406.168516"/>
    </g>
    <g clip-path="url(#p3316a35304)">
     <use style="fill:#ffffff;stroke:#ffffff;" x="528.035778" xlink:href="#C0_0_cc2361799b" y="406.168516"/>
    </g>
    <g clip-path="url(#p3316a35304)">
     <use style="fill:#ffffff;stroke:#ffffff;" x="577.116756" xlink:href="#C0_0_cc2361799b" y="406.168516"/>
    </g>
    <g clip-path="url(#p3316a35304)">
     <use style="fill:#ffffff;stroke:#ffffff;" x="626.197734" xlink:href="#C0_0_cc2361799b" y="406.168516"/>
    </g>
    <g clip-path="url(#p3316a35304)">
     <use style="fill:#ffffff;stroke:#ffffff;" x="675.278711" xlink:href="#C0_0_cc2361799b" y="406.168516"/>
    </g>
    <g clip-path="url(#p3316a35304)">
     <use style="fill:#ffffff;stroke:#ffffff;" x="724.359689" xlink:href="#C0_0_cc2361799b" y="406.168516"/>
    </g>
    <g clip-path="url(#p3316a35304)">
     <use style="fill:#ffffff;stroke:#ffffff;" x="773.440667" xlink:href="#C0_0_cc2361799b" y="406.168516"/>
    </g>
    <g clip-path="url(#p3316a35304)">
     <use style="fill:#ffffff;stroke:#ffffff;" x="287.743491" xlink:href="#C0_0_cc2361799b" y="20.498151"/>
    </g>
    <g clip-path="url(#p3316a35304)">
     <use style="fill:#ffffff;stroke:#ffffff;" x="287.743491" xlink:href="#C0_0_cc2361799b" y="100.361078"/>
    </g>
    <g clip-path="url(#p3316a35304)">
     <use style="fill:#ffffff;stroke:#ffffff;" x="94.48714" xlink:href="#C0_0_cc2361799b" y="178.444849"/>
    </g>
    <g clip-path="url(#p3316a35304)">
     <use style="fill:#ffffff;stroke:#ffffff;" x="233.549911" xlink:href="#C0_0_cc2361799b" y="330.61099"/>
    </g>
    <g clip-path="url(#p3316a35304)">
     <use style="fill:#ffffff;stroke:#ffffff;" x="282.630889" xlink:href="#C0_0_cc2361799b" y="330.61099"/>
    </g>
    <g clip-path="url(#p3316a35304)">
     <use style="fill:#ffffff;stroke:#ffffff;" x="540.306022" xlink:href="#C0_0_cc2361799b" y="178.444849"/>
    </g>
    <g clip-path="url(#p3316a35304)">
     <use style="fill:#ffffff;stroke:#ffffff;" x="380.792844" xlink:href="#C0_0_cc2361799b" y="255.053464"/>
    </g>
    <g clip-path="url(#p3316a35304)">
     <use style="fill:#ffffff;stroke:#ffffff;" x="503.495289" xlink:href="#C0_0_cc2361799b" y="255.053464"/>
    </g>
    <g clip-path="url(#p3316a35304)">
     <use style="fill:#ffffff;stroke:#ffffff;" x="577.116756" xlink:href="#C0_0_cc2361799b" y="330.61099"/>
    </g>
    <g clip-path="url(#p3316a35304)">
     <use style="fill:#ffffff;stroke:#ffffff;" x="699.8192" xlink:href="#C0_0_cc2361799b" y="255.053464"/>
    </g>
    <g clip-path="url(#p3316a35304)">
     <use style="fill:#ffffff;stroke:#ffffff;" x="626.197734" xlink:href="#C0_0_cc2361799b" y="330.61099"/>
    </g>
    <g clip-path="url(#p3316a35304)">
     <use style="fill:#ffffff;stroke:#ffffff;" x="675.278711" xlink:href="#C0_0_cc2361799b" y="330.61099"/>
    </g>
    <g clip-path="url(#p3316a35304)">
     <use style="fill:#ffffff;stroke:#ffffff;" x="724.359689" xlink:href="#C0_0_cc2361799b" y="330.61099"/>
    </g>
    <g clip-path="url(#p3316a35304)">
     <use style="fill:#ffffff;stroke:#ffffff;" x="478.9548" xlink:href="#C0_0_cc2361799b" y="330.61099"/>
    </g>
    <g clip-path="url(#p3316a35304)">
     <use style="fill:#ffffff;stroke:#ffffff;" x="528.035778" xlink:href="#C0_0_cc2361799b" y="330.61099"/>
    </g>
    <g clip-path="url(#p3316a35304)">
     <use style="fill:#ffffff;stroke:#ffffff;" x="331.711867" xlink:href="#C0_0_cc2361799b" y="330.61099"/>
    </g>
    <g clip-path="url(#p3316a35304)">
     <use style="fill:#ffffff;stroke:#ffffff;" x="380.792844" xlink:href="#C0_0_cc2361799b" y="330.61099"/>
    </g>
    <g clip-path="url(#p3316a35304)">
     <use style="fill:#ffffff;stroke:#ffffff;" x="429.873822" xlink:href="#C0_0_cc2361799b" y="330.61099"/>
    </g>
    <g clip-path="url(#p3316a35304)">
     <use style="fill:#ffffff;stroke:#ffffff;" x="37.226" xlink:href="#C0_0_cc2361799b" y="330.61099"/>
    </g>
    <g clip-path="url(#p3316a35304)">
     <use style="fill:#ffffff;stroke:#ffffff;" x="86.306978" xlink:href="#C0_0_cc2361799b" y="330.61099"/>
    </g>
    <g clip-path="url(#p3316a35304)">
     <use style="fill:#ffffff;stroke:#ffffff;" x="159.928444" xlink:href="#C0_0_cc2361799b" y="255.053464"/>
    </g>
    <g clip-path="url(#p3316a35304)">
     <use style="fill:#ffffff;stroke:#ffffff;" x="135.387955" xlink:href="#C0_0_cc2361799b" y="330.61099"/>
    </g>
    <g clip-path="url(#p3316a35304)">
     <use style="fill:#ffffff;stroke:#ffffff;" x="184.468933" xlink:href="#C0_0_cc2361799b" y="330.61099"/>
    </g>
    <g clip-path="url(#p3316a35304)">
     <use style="fill:#ffffff;stroke:#ffffff;" x="773.440667" xlink:href="#C0_0_cc2361799b" y="330.61099"/>
    </g>
   </g>
   <g id="text_40">
    <g clip-path="url(#p3316a35304)">
     <!-- Les -->
     <defs>
      <path d="M 9.8125 72.90625 
L 19.671875 72.90625 
L 19.671875 8.296875 
L 55.171875 8.296875 
L 55.171875 0 
L 9.8125 0 
z
" id="DejaVuSans-76"/>
      <path d="M 44.28125 53.078125 
L 44.28125 44.578125 
Q 40.484375 46.53125 36.375 47.5 
Q 32.28125 48.484375 27.875 48.484375 
Q 21.1875 48.484375 17.84375 46.4375 
Q 14.5 44.390625 14.5 40.28125 
Q 14.5 37.15625 16.890625 35.375 
Q 19.28125 33.59375 26.515625 31.984375 
L 29.59375 31.296875 
Q 39.15625 29.25 43.1875 25.515625 
Q 47.21875 21.78125 47.21875 15.09375 
Q 47.21875 7.46875 41.1875 3.015625 
Q 35.15625 -1.421875 24.609375 -1.421875 
Q 20.21875 -1.421875 15.453125 -0.5625 
Q 10.6875 0.296875 5.421875 2 
L 5.421875 11.28125 
Q 10.40625 8.6875 15.234375 7.390625 
Q 20.0625 6.109375 24.8125 6.109375 
Q 31.15625 6.109375 34.5625 8.28125 
Q 37.984375 10.453125 37.984375 14.40625 
Q 37.984375 18.0625 35.515625 20.015625 
Q 33.0625 21.96875 24.703125 23.78125 
L 21.578125 24.515625 
Q 13.234375 26.265625 9.515625 29.90625 
Q 5.8125 33.546875 5.8125 39.890625 
Q 5.8125 47.609375 11.28125 51.796875 
Q 16.75 56 26.8125 56 
Q 31.78125 56 36.171875 55.265625 
Q 40.578125 54.546875 44.28125 53.078125 
z
" id="DejaVuSans-115"/>
     </defs>
     <g transform="translate(28.759593 408.927891)scale(0.1 -0.1)">
      <use xlink:href="#DejaVuSans-76"/>
      <use x="55.697266" xlink:href="#DejaVuSans-101"/>
      <use x="117.220703" xlink:href="#DejaVuSans-115"/>
     </g>
    </g>
   </g>
   <g id="text_41">
    <g clip-path="url(#p3316a35304)">
     <!-- terres -->
     <defs>
      <path d="M 18.3125 70.21875 
L 18.3125 54.6875 
L 36.8125 54.6875 
L 36.8125 47.703125 
L 18.3125 47.703125 
L 18.3125 18.015625 
Q 18.3125 11.328125 20.140625 9.421875 
Q 21.96875 7.515625 27.59375 7.515625 
L 36.8125 7.515625 
L 36.8125 0 
L 27.59375 0 
Q 17.1875 0 13.234375 3.875 
Q 9.28125 7.765625 9.28125 18.015625 
L 9.28125 47.703125 
L 2.6875 47.703125 
L 2.6875 54.6875 
L 9.28125 54.6875 
L 9.28125 70.21875 
z
" id="DejaVuSans-116"/>
     </defs>
     <g transform="translate(71.480415 408.927891)scale(0.1 -0.1)">
      <use xlink:href="#DejaVuSans-116"/>
      <use x="39.208984" xlink:href="#DejaVuSans-101"/>
      <use x="100.732422" xlink:href="#DejaVuSans-114"/>
      <use x="141.830078" xlink:href="#DejaVuSans-114"/>
      <use x="182.912109" xlink:href="#DejaVuSans-101"/>
      <use x="244.435547" xlink:href="#DejaVuSans-115"/>
     </g>
    </g>
   </g>
   <g id="text_42">
    <g clip-path="url(#p3316a35304)">
     <!-- du -->
     <defs>
      <path d="M 45.40625 46.390625 
L 45.40625 75.984375 
L 54.390625 75.984375 
L 54.390625 0 
L 45.40625 0 
L 45.40625 8.203125 
Q 42.578125 3.328125 38.25 0.953125 
Q 33.9375 -1.421875 27.875 -1.421875 
Q 17.96875 -1.421875 11.734375 6.484375 
Q 5.515625 14.40625 5.515625 27.296875 
Q 5.515625 40.1875 11.734375 48.09375 
Q 17.96875 56 27.875 56 
Q 33.9375 56 38.25 53.625 
Q 42.578125 51.265625 45.40625 46.390625 
z
M 14.796875 27.296875 
Q 14.796875 17.390625 18.875 11.75 
Q 22.953125 6.109375 30.078125 6.109375 
Q 37.203125 6.109375 41.296875 11.75 
Q 45.40625 17.390625 45.40625 27.296875 
Q 45.40625 37.203125 41.296875 42.84375 
Q 37.203125 48.484375 30.078125 48.484375 
Q 22.953125 48.484375 18.875 42.84375 
Q 14.796875 37.203125 14.796875 27.296875 
z
" id="DejaVuSans-100"/>
      <path d="M 8.5 21.578125 
L 8.5 54.6875 
L 17.484375 54.6875 
L 17.484375 21.921875 
Q 17.484375 14.15625 20.5 10.265625 
Q 23.53125 6.390625 29.59375 6.390625 
Q 36.859375 6.390625 41.078125 11.03125 
Q 45.3125 15.671875 45.3125 23.6875 
L 45.3125 54.6875 
L 54.296875 54.6875 
L 54.296875 0 
L 45.3125 0 
L 45.3125 8.40625 
Q 42.046875 3.421875 37.71875 1 
Q 33.40625 -1.421875 27.6875 -1.421875 
Q 18.265625 -1.421875 13.375 4.4375 
Q 8.5 10.296875 8.5 21.578125 
z
M 31.109375 56 
z
" id="DejaVuSans-117"/>
     </defs>
     <g transform="translate(129.044987 408.927891)scale(0.1 -0.1)">
      <use xlink:href="#DejaVuSans-100"/>
      <use x="63.476562" xlink:href="#DejaVuSans-117"/>
     </g>
    </g>
   </g>
   <g id="text_43">
    <g clip-path="url(#p3316a35304)">
     <!-- Japon -->
     <defs>
      <path d="M 9.8125 72.90625 
L 19.671875 72.90625 
L 19.671875 5.078125 
Q 19.671875 -8.109375 14.671875 -14.0625 
Q 9.671875 -20.015625 -1.421875 -20.015625 
L -5.171875 -20.015625 
L -5.171875 -11.71875 
L -2.09375 -11.71875 
Q 4.4375 -11.71875 7.125 -8.046875 
Q 9.8125 -4.390625 9.8125 5.078125 
z
" id="DejaVuSans-74"/>
      <path d="M 18.109375 8.203125 
L 18.109375 -20.796875 
L 9.078125 -20.796875 
L 9.078125 54.6875 
L 18.109375 54.6875 
L 18.109375 46.390625 
Q 20.953125 51.265625 25.265625 53.625 
Q 29.59375 56 35.59375 56 
Q 45.5625 56 51.78125 48.09375 
Q 58.015625 40.1875 58.015625 27.296875 
Q 58.015625 14.40625 51.78125 6.484375 
Q 45.5625 -1.421875 35.59375 -1.421875 
Q 29.59375 -1.421875 25.265625 0.953125 
Q 20.953125 3.328125 18.109375 8.203125 
z
M 48.6875 27.296875 
Q 48.6875 37.203125 44.609375 42.84375 
Q 40.53125 48.484375 33.40625 48.484375 
Q 26.265625 48.484375 22.1875 42.84375 
Q 18.109375 37.203125 18.109375 27.296875 
Q 18.109375 17.390625 22.1875 11.75 
Q 26.265625 6.109375 33.40625 6.109375 
Q 40.53125 6.109375 44.609375 11.75 
Q 48.6875 17.390625 48.6875 27.296875 
z
" id="DejaVuSans-112"/>
      <path d="M 30.609375 48.390625 
Q 23.390625 48.390625 19.1875 42.75 
Q 14.984375 37.109375 14.984375 27.296875 
Q 14.984375 17.484375 19.15625 11.84375 
Q 23.34375 6.203125 30.609375 6.203125 
Q 37.796875 6.203125 41.984375 11.859375 
Q 46.1875 17.53125 46.1875 27.296875 
Q 46.1875 37.015625 41.984375 42.703125 
Q 37.796875 48.390625 30.609375 48.390625 
z
M 30.609375 56 
Q 42.328125 56 49.015625 48.375 
Q 55.71875 40.765625 55.71875 27.296875 
Q 55.71875 13.875 49.015625 6.21875 
Q 42.328125 -1.421875 30.609375 -1.421875 
Q 18.84375 -1.421875 12.171875 6.21875 
Q 5.515625 13.875 5.515625 27.296875 
Q 5.515625 40.765625 12.171875 48.375 
Q 18.84375 56 30.609375 56 
z
" id="DejaVuSans-111"/>
     </defs>
     <g transform="translate(170.527527 408.927891)scale(0.1 -0.1)">
      <use xlink:href="#DejaVuSans-74"/>
      <use x="29.492188" xlink:href="#DejaVuSans-97"/>
      <use x="90.771484" xlink:href="#DejaVuSans-112"/>
      <use x="154.248047" xlink:href="#DejaVuSans-111"/>
      <use x="215.429688" xlink:href="#DejaVuSans-110"/>
     </g>
    </g>
   </g>
   <g id="text_44">
    <g clip-path="url(#p3316a35304)">
     <!-- nous -->
     <g transform="translate(221.548348 408.927891)scale(0.1 -0.1)">
      <use xlink:href="#DejaVuSans-110"/>
      <use x="63.378906" xlink:href="#DejaVuSans-111"/>
      <use x="124.560547" xlink:href="#DejaVuSans-117"/>
      <use x="187.939453" xlink:href="#DejaVuSans-115"/>
     </g>
    </g>
   </g>
   <g id="text_45">
    <g clip-path="url(#p3316a35304)">
     <!-- restaient -->
     <g transform="translate(260.276983 408.927891)scale(0.1 -0.1)">
      <use xlink:href="#DejaVuSans-114"/>
      <use x="41.082031" xlink:href="#DejaVuSans-101"/>
      <use x="102.605469" xlink:href="#DejaVuSans-115"/>
      <use x="154.705078" xlink:href="#DejaVuSans-116"/>
      <use x="193.914062" xlink:href="#DejaVuSans-97"/>
      <use x="255.193359" xlink:href="#DejaVuSans-105"/>
      <use x="282.976562" xlink:href="#DejaVuSans-101"/>
      <use x="344.5" xlink:href="#DejaVuSans-110"/>
      <use x="407.878906" xlink:href="#DejaVuSans-116"/>
     </g>
    </g>
   </g>
   <g id="text_46">
    <g clip-path="url(#p3316a35304)">
     <!--  -->
     <defs>
      <path d="M 34.28125 27.484375 
Q 23.390625 27.484375 19.1875 25 
Q 14.984375 22.515625 14.984375 16.5 
Q 14.984375 11.71875 18.140625 8.90625 
Q 21.296875 6.109375 26.703125 6.109375 
Q 34.1875 6.109375 38.703125 11.40625 
Q 43.21875 16.703125 43.21875 25.484375 
L 43.21875 27.484375 
z
M 52.203125 31.203125 
L 52.203125 0 
L 43.21875 0 
L 43.21875 8.296875 
Q 40.140625 3.328125 35.546875 0.953125 
Q 30.953125 -1.421875 24.3125 -1.421875 
Q 15.921875 -1.421875 10.953125 3.296875 
Q 6 8.015625 6 15.921875 
Q 6 25.140625 12.171875 29.828125 
Q 18.359375 34.515625 30.609375 34.515625 
L 43.21875 34.515625 
L 43.21875 35.40625 
Q 43.21875 41.609375 39.140625 45 
Q 35.0625 48.390625 27.6875 48.390625 
Q 23 48.390625 18.546875 47.265625 
Q 14.109375 46.140625 10.015625 43.890625 
L 10.015625 52.203125 
Q 14.9375 54.109375 19.578125 55.046875 
Q 24.21875 56 28.609375 56 
Q 40.484375 56 46.34375 49.84375 
Q 52.203125 43.703125 52.203125 31.203125 
z
M 21.921875 79.984375 
L 35.6875 61.71875 
L 28.21875 61.71875 
L 12.296875 79.984375 
z
" id="DejaVuSans-224"/>
     </defs>
     <g transform="translate(328.647804 408.927891)scale(0.1 -0.1)">
      <use xlink:href="#DejaVuSans-224"/>
     </g>
    </g>
   </g>
   <g id="text_47">
    <g clip-path="url(#p3316a35304)">
     <!-- moins -->
     <g transform="translate(365.700657 408.927891)scale(0.1 -0.1)">
      <use xlink:href="#DejaVuSans-109"/>
      <use x="97.412109" xlink:href="#DejaVuSans-111"/>
      <use x="158.59375" xlink:href="#DejaVuSans-105"/>
      <use x="186.376953" xlink:href="#DejaVuSans-110"/>
      <use x="249.755859" xlink:href="#DejaVuSans-115"/>
     </g>
    </g>
   </g>
   <g id="text_48">
    <g clip-path="url(#p3316a35304)">
     <!-- de -->
     <g transform="translate(423.623041 408.927891)scale(0.1 -0.1)">
      <use xlink:href="#DejaVuSans-100"/>
      <use x="63.476562" xlink:href="#DejaVuSans-101"/>
     </g>
    </g>
   </g>
   <g id="text_49">
    <g clip-path="url(#p3316a35304)">
     <!-- deux -->
     <defs>
      <path d="M 54.890625 54.6875 
L 35.109375 28.078125 
L 55.90625 0 
L 45.3125 0 
L 29.390625 21.484375 
L 13.484375 0 
L 2.875 0 
L 24.125 28.609375 
L 4.6875 54.6875 
L 15.28125 54.6875 
L 29.78125 35.203125 
L 44.28125 54.6875 
z
" id="DejaVuSans-120"/>
     </defs>
     <g transform="translate(466.575894 408.927891)scale(0.1 -0.1)">
      <use xlink:href="#DejaVuSans-100"/>
      <use x="63.476562" xlink:href="#DejaVuSans-101"/>
      <use x="125" xlink:href="#DejaVuSans-117"/>
      <use x="188.378906" xlink:href="#DejaVuSans-120"/>
     </g>
    </g>
   </g>
   <g id="text_50">
    <g clip-path="url(#p3316a35304)">
     <!-- cents -->
     <defs>
      <path d="M 48.78125 52.59375 
L 48.78125 44.1875 
Q 44.96875 46.296875 41.140625 47.34375 
Q 37.3125 48.390625 33.40625 48.390625 
Q 24.65625 48.390625 19.8125 42.84375 
Q 14.984375 37.3125 14.984375 27.296875 
Q 14.984375 17.28125 19.8125 11.734375 
Q 24.65625 6.203125 33.40625 6.203125 
Q 37.3125 6.203125 41.140625 7.25 
Q 44.96875 8.296875 48.78125 10.40625 
L 48.78125 2.09375 
Q 45.015625 0.34375 40.984375 -0.53125 
Q 36.96875 -1.421875 32.421875 -1.421875 
Q 20.0625 -1.421875 12.78125 6.34375 
Q 5.515625 14.109375 5.515625 27.296875 
Q 5.515625 40.671875 12.859375 48.328125 
Q 20.21875 56 33.015625 56 
Q 37.15625 56 41.109375 55.140625 
Q 45.0625 54.296875 48.78125 52.59375 
z
" id="DejaVuSans-99"/>
     </defs>
     <g transform="translate(514.476403 408.927891)scale(0.1 -0.1)">
      <use xlink:href="#DejaVuSans-99"/>
      <use x="54.980469" xlink:href="#DejaVuSans-101"/>
      <use x="116.503906" xlink:href="#DejaVuSans-110"/>
      <use x="179.882812" xlink:href="#DejaVuSans-116"/>
      <use x="219.091797" xlink:href="#DejaVuSans-115"/>
     </g>
    </g>
   </g>
   <g id="text_51">
    <g clip-path="url(#p3316a35304)">
     <!-- milles -->
     <g transform="translate(562.398006 408.927891)scale(0.1 -0.1)">
      <use xlink:href="#DejaVuSans-109"/>
      <use x="97.412109" xlink:href="#DejaVuSans-105"/>
      <use x="125.195312" xlink:href="#DejaVuSans-108"/>
      <use x="152.978516" xlink:href="#DejaVuSans-108"/>
      <use x="180.761719" xlink:href="#DejaVuSans-101"/>
      <use x="242.285156" xlink:href="#DejaVuSans-115"/>
     </g>
    </g>
   </g>
   <g id="text_52">
    <g clip-path="url(#p3316a35304)">
     <!-- sous -->
     <g transform="translate(614.760234 408.927891)scale(0.1 -0.1)">
      <use xlink:href="#DejaVuSans-115"/>
      <use x="52.099609" xlink:href="#DejaVuSans-111"/>
      <use x="113.28125" xlink:href="#DejaVuSans-117"/>
      <use x="176.660156" xlink:href="#DejaVuSans-115"/>
     </g>
    </g>
   </g>
   <g id="text_53">
    <g clip-path="url(#p3316a35304)">
     <!-- le -->
     <g transform="translate(670.813086 408.927891)scale(0.1 -0.1)">
      <use xlink:href="#DejaVuSans-108"/>
      <use x="27.783203" xlink:href="#DejaVuSans-101"/>
     </g>
    </g>
   </g>
   <g id="text_54">
    <g clip-path="url(#p3316a35304)">
     <!-- vent -->
     <defs>
      <path d="M 2.984375 54.6875 
L 12.5 54.6875 
L 29.59375 8.796875 
L 46.6875 54.6875 
L 56.203125 54.6875 
L 35.6875 0 
L 23.484375 0 
z
" id="DejaVuSans-118"/>
     </defs>
     <g transform="translate(713.194845 408.927891)scale(0.1 -0.1)">
      <use xlink:href="#DejaVuSans-118"/>
      <use x="59.179688" xlink:href="#DejaVuSans-101"/>
      <use x="120.703125" xlink:href="#DejaVuSans-110"/>
      <use x="184.082031" xlink:href="#DejaVuSans-116"/>
     </g>
    </g>
   </g>
   <g id="text_55">
    <g clip-path="url(#p3316a35304)">
     <!-- . -->
     <defs>
      <path d="M 10.6875 12.40625 
L 21 12.40625 
L 21 0 
L 10.6875 0 
z
" id="DejaVuSans-46"/>
     </defs>
     <g transform="translate(771.851604 408.927891)scale(0.1 -0.1)">
      <use xlink:href="#DejaVuSans-46"/>
     </g>
    </g>
   </g>
   <g id="text_56">
    <g clip-path="url(#p3316a35304)">
     <!-- 1.1 -->
     <defs>
      <path d="M 12.40625 8.296875 
L 28.515625 8.296875 
L 28.515625 63.921875 
L 10.984375 60.40625 
L 10.984375 69.390625 
L 28.421875 72.90625 
L 38.28125 72.90625 
L 38.28125 8.296875 
L 54.390625 8.296875 
L 54.390625 0 
L 12.40625 0 
z
" id="DejaVuSans-49"/>
     </defs>
     <g transform="translate(279.791928 23.257526)scale(0.1 -0.1)">
      <use xlink:href="#DejaVuSans-49"/>
      <use x="63.623047" xlink:href="#DejaVuSans-46"/>
      <use x="95.410156" xlink:href="#DejaVuSans-49"/>
     </g>
    </g>
   </g>
   <g id="text_57">
    <g clip-path="url(#p3316a35304)">
     <!-- 1.2 -->
     <defs>
      <path d="M 19.1875 8.296875 
L 53.609375 8.296875 
L 53.609375 0 
L 7.328125 0 
L 7.328125 8.296875 
Q 12.9375 14.109375 22.625 23.890625 
Q 32.328125 33.6875 34.8125 36.53125 
Q 39.546875 41.84375 41.421875 45.53125 
Q 43.3125 49.21875 43.3125 52.78125 
Q 43.3125 58.59375 39.234375 62.25 
Q 35.15625 65.921875 28.609375 65.921875 
Q 23.96875 65.921875 18.8125 64.3125 
Q 13.671875 62.703125 7.8125 59.421875 
L 7.8125 69.390625 
Q 13.765625 71.78125 18.9375 73 
Q 24.125 74.21875 28.421875 74.21875 
Q 39.75 74.21875 46.484375 68.546875 
Q 53.21875 62.890625 53.21875 53.421875 
Q 53.21875 48.921875 51.53125 44.890625 
Q 49.859375 40.875 45.40625 35.40625 
Q 44.1875 33.984375 37.640625 27.21875 
Q 31.109375 20.453125 19.1875 8.296875 
z
" id="DejaVuSans-50"/>
     </defs>
     <g transform="translate(279.791928 103.120453)scale(0.1 -0.1)">
      <use xlink:href="#DejaVuSans-49"/>
      <use x="63.623047" xlink:href="#DejaVuSans-46"/>
      <use x="95.410156" xlink:href="#DejaVuSans-50"/>
     </g>
    </g>
   </g>
   <g id="text_58">
    <g clip-path="url(#p3316a35304)">
     <!-- 1.4 -->
     <defs>
      <path d="M 37.796875 64.3125 
L 12.890625 25.390625 
L 37.796875 25.390625 
z
M 35.203125 72.90625 
L 47.609375 72.90625 
L 47.609375 25.390625 
L 58.015625 25.390625 
L 58.015625 17.1875 
L 47.609375 17.1875 
L 47.609375 0 
L 37.796875 0 
L 37.796875 17.1875 
L 4.890625 17.1875 
L 4.890625 26.703125 
z
" id="DejaVuSans-52"/>
     </defs>
     <g transform="translate(86.535578 181.204224)scale(0.1 -0.1)">
      <use xlink:href="#DejaVuSans-49"/>
      <use x="63.623047" xlink:href="#DejaVuSans-46"/>
      <use x="95.410156" xlink:href="#DejaVuSans-52"/>
     </g>
    </g>
   </g>
   <g id="text_59">
    <g clip-path="url(#p3316a35304)">
     <!-- 1.5 -->
     <defs>
      <path d="M 10.796875 72.90625 
L 49.515625 72.90625 
L 49.515625 64.59375 
L 19.828125 64.59375 
L 19.828125 46.734375 
Q 21.96875 47.46875 24.109375 47.828125 
Q 26.265625 48.1875 28.421875 48.1875 
Q 40.625 48.1875 47.75 41.5 
Q 54.890625 34.8125 54.890625 23.390625 
Q 54.890625 11.625 47.5625 5.09375 
Q 40.234375 -1.421875 26.90625 -1.421875 
Q 22.3125 -1.421875 17.546875 -0.640625 
Q 12.796875 0.140625 7.71875 1.703125 
L 7.71875 11.625 
Q 12.109375 9.234375 16.796875 8.0625 
Q 21.484375 6.890625 26.703125 6.890625 
Q 35.15625 6.890625 40.078125 11.328125 
Q 45.015625 15.765625 45.015625 23.390625 
Q 45.015625 31 40.078125 35.4375 
Q 35.15625 39.890625 26.703125 39.890625 
Q 22.75 39.890625 18.8125 39.015625 
Q 14.890625 38.140625 10.796875 36.28125 
z
" id="DejaVuSans-53"/>
     </defs>
     <g transform="translate(225.598348 333.370365)scale(0.1 -0.1)">
      <use xlink:href="#DejaVuSans-49"/>
      <use x="63.623047" xlink:href="#DejaVuSans-46"/>
      <use x="95.410156" xlink:href="#DejaVuSans-53"/>
     </g>
    </g>
   </g>
   <g id="text_60">
    <g clip-path="url(#p3316a35304)">
     <!-- 1.6 -->
     <defs>
      <path d="M 33.015625 40.375 
Q 26.375 40.375 22.484375 35.828125 
Q 18.609375 31.296875 18.609375 23.390625 
Q 18.609375 15.53125 22.484375 10.953125 
Q 26.375 6.390625 33.015625 6.390625 
Q 39.65625 6.390625 43.53125 10.953125 
Q 47.40625 15.53125 47.40625 23.390625 
Q 47.40625 31.296875 43.53125 35.828125 
Q 39.65625 40.375 33.015625 40.375 
z
M 52.59375 71.296875 
L 52.59375 62.3125 
Q 48.875 64.0625 45.09375 64.984375 
Q 41.3125 65.921875 37.59375 65.921875 
Q 27.828125 65.921875 22.671875 59.328125 
Q 17.53125 52.734375 16.796875 39.40625 
Q 19.671875 43.65625 24.015625 45.921875 
Q 28.375 48.1875 33.59375 48.1875 
Q 44.578125 48.1875 50.953125 41.515625 
Q 57.328125 34.859375 57.328125 23.390625 
Q 57.328125 12.15625 50.6875 5.359375 
Q 44.046875 -1.421875 33.015625 -1.421875 
Q 20.359375 -1.421875 13.671875 8.265625 
Q 6.984375 17.96875 6.984375 36.375 
Q 6.984375 53.65625 15.1875 63.9375 
Q 23.390625 74.21875 37.203125 74.21875 
Q 40.921875 74.21875 44.703125 73.484375 
Q 48.484375 72.75 52.59375 71.296875 
z
" id="DejaVuSans-54"/>
     </defs>
     <g transform="translate(274.679326 333.370365)scale(0.1 -0.1)">
      <use xlink:href="#DejaVuSans-49"/>
      <use x="63.623047" xlink:href="#DejaVuSans-46"/>
      <use x="95.410156" xlink:href="#DejaVuSans-54"/>
     </g>
    </g>
   </g>
   <g id="text_61">
    <g clip-path="url(#p3316a35304)">
     <!-- 1.7 -->
     <defs>
      <path d="M 8.203125 72.90625 
L 55.078125 72.90625 
L 55.078125 68.703125 
L 28.609375 0 
L 18.3125 0 
L 43.21875 64.59375 
L 8.203125 64.59375 
z
" id="DejaVuSans-55"/>
     </defs>
     <g transform="translate(532.35446 181.204224)scale(0.1 -0.1)">
      <use xlink:href="#DejaVuSans-49"/>
      <use x="63.623047" xlink:href="#DejaVuSans-46"/>
      <use x="95.410156" xlink:href="#DejaVuSans-55"/>
     </g>
    </g>
   </g>
   <g id="text_62">
    <g clip-path="url(#p3316a35304)">
     <!-- 1.8 -->
     <defs>
      <path d="M 31.78125 34.625 
Q 24.75 34.625 20.71875 30.859375 
Q 16.703125 27.09375 16.703125 20.515625 
Q 16.703125 13.921875 20.71875 10.15625 
Q 24.75 6.390625 31.78125 6.390625 
Q 38.8125 6.390625 42.859375 10.171875 
Q 46.921875 13.96875 46.921875 20.515625 
Q 46.921875 27.09375 42.890625 30.859375 
Q 38.875 34.625 31.78125 34.625 
z
M 21.921875 38.8125 
Q 15.578125 40.375 12.03125 44.71875 
Q 8.5 49.078125 8.5 55.328125 
Q 8.5 64.0625 14.71875 69.140625 
Q 20.953125 74.21875 31.78125 74.21875 
Q 42.671875 74.21875 48.875 69.140625 
Q 55.078125 64.0625 55.078125 55.328125 
Q 55.078125 49.078125 51.53125 44.71875 
Q 48 40.375 41.703125 38.8125 
Q 48.828125 37.15625 52.796875 32.3125 
Q 56.78125 27.484375 56.78125 20.515625 
Q 56.78125 9.90625 50.3125 4.234375 
Q 43.84375 -1.421875 31.78125 -1.421875 
Q 19.734375 -1.421875 13.25 4.234375 
Q 6.78125 9.90625 6.78125 20.515625 
Q 6.78125 27.484375 10.78125 32.3125 
Q 14.796875 37.15625 21.921875 38.8125 
z
M 18.3125 54.390625 
Q 18.3125 48.734375 21.84375 45.5625 
Q 25.390625 42.390625 31.78125 42.390625 
Q 38.140625 42.390625 41.71875 45.5625 
Q 45.3125 48.734375 45.3125 54.390625 
Q 45.3125 60.0625 41.71875 63.234375 
Q 38.140625 66.40625 31.78125 66.40625 
Q 25.390625 66.40625 21.84375 63.234375 
Q 18.3125 60.0625 18.3125 54.390625 
z
" id="DejaVuSans-56"/>
     </defs>
     <g transform="translate(372.841282 257.812839)scale(0.1 -0.1)">
      <use xlink:href="#DejaVuSans-49"/>
      <use x="63.623047" xlink:href="#DejaVuSans-46"/>
      <use x="95.410156" xlink:href="#DejaVuSans-56"/>
     </g>
    </g>
   </g>
   <g id="text_63">
    <g clip-path="url(#p3316a35304)">
     <!-- 1.9 -->
     <defs>
      <path d="M 10.984375 1.515625 
L 10.984375 10.5 
Q 14.703125 8.734375 18.5 7.8125 
Q 22.3125 6.890625 25.984375 6.890625 
Q 35.75 6.890625 40.890625 13.453125 
Q 46.046875 20.015625 46.78125 33.40625 
Q 43.953125 29.203125 39.59375 26.953125 
Q 35.25 24.703125 29.984375 24.703125 
Q 19.046875 24.703125 12.671875 31.3125 
Q 6.296875 37.9375 6.296875 49.421875 
Q 6.296875 60.640625 12.9375 67.421875 
Q 19.578125 74.21875 30.609375 74.21875 
Q 43.265625 74.21875 49.921875 64.515625 
Q 56.59375 54.828125 56.59375 36.375 
Q 56.59375 19.140625 48.40625 8.859375 
Q 40.234375 -1.421875 26.421875 -1.421875 
Q 22.703125 -1.421875 18.890625 -0.6875 
Q 15.09375 0.046875 10.984375 1.515625 
z
M 30.609375 32.421875 
Q 37.25 32.421875 41.125 36.953125 
Q 45.015625 41.5 45.015625 49.421875 
Q 45.015625 57.28125 41.125 61.84375 
Q 37.25 66.40625 30.609375 66.40625 
Q 23.96875 66.40625 20.09375 61.84375 
Q 16.21875 57.28125 16.21875 49.421875 
Q 16.21875 41.5 20.09375 36.953125 
Q 23.96875 32.421875 30.609375 32.421875 
z
" id="DejaVuSans-57"/>
     </defs>
     <g transform="translate(495.543726 257.812839)scale(0.1 -0.1)">
      <use xlink:href="#DejaVuSans-49"/>
      <use x="63.623047" xlink:href="#DejaVuSans-46"/>
      <use x="95.410156" xlink:href="#DejaVuSans-57"/>
     </g>
    </g>
   </g>
   <g id="text_64">
    <g clip-path="url(#p3316a35304)">
     <!-- 1.10 -->
     <defs>
      <path d="M 31.78125 66.40625 
Q 24.171875 66.40625 20.328125 58.90625 
Q 16.5 51.421875 16.5 36.375 
Q 16.5 21.390625 20.328125 13.890625 
Q 24.171875 6.390625 31.78125 6.390625 
Q 39.453125 6.390625 43.28125 13.890625 
Q 47.125 21.390625 47.125 36.375 
Q 47.125 51.421875 43.28125 58.90625 
Q 39.453125 66.40625 31.78125 66.40625 
z
M 31.78125 74.21875 
Q 44.046875 74.21875 50.515625 64.515625 
Q 56.984375 54.828125 56.984375 36.375 
Q 56.984375 17.96875 50.515625 8.265625 
Q 44.046875 -1.421875 31.78125 -1.421875 
Q 19.53125 -1.421875 13.0625 8.265625 
Q 6.59375 17.96875 6.59375 36.375 
Q 6.59375 54.828125 13.0625 64.515625 
Q 19.53125 74.21875 31.78125 74.21875 
z
" id="DejaVuSans-48"/>
     </defs>
     <g transform="translate(565.983943 333.370365)scale(0.1 -0.1)">
      <use xlink:href="#DejaVuSans-49"/>
      <use x="63.623047" xlink:href="#DejaVuSans-46"/>
      <use x="95.410156" xlink:href="#DejaVuSans-49"/>
      <use x="159.033203" xlink:href="#DejaVuSans-48"/>
     </g>
    </g>
   </g>
   <g id="text_65">
    <g clip-path="url(#p3316a35304)">
     <!-- 1.11 -->
     <g transform="translate(688.686388 257.812839)scale(0.1 -0.1)">
      <use xlink:href="#DejaVuSans-49"/>
      <use x="63.623047" xlink:href="#DejaVuSans-46"/>
      <use x="95.410156" xlink:href="#DejaVuSans-49"/>
      <use x="159.033203" xlink:href="#DejaVuSans-49"/>
     </g>
    </g>
   </g>
   <g id="text_66">
    <g clip-path="url(#p3316a35304)">
     <!-- 1.12 -->
     <g transform="translate(615.064921 333.370365)scale(0.1 -0.1)">
      <use xlink:href="#DejaVuSans-49"/>
      <use x="63.623047" xlink:href="#DejaVuSans-46"/>
      <use x="95.410156" xlink:href="#DejaVuSans-49"/>
      <use x="159.033203" xlink:href="#DejaVuSans-50"/>
     </g>
    </g>
   </g>
   <g id="text_67">
    <g clip-path="url(#p3316a35304)">
     <!-- 1.13 -->
     <defs>
      <path d="M 40.578125 39.3125 
Q 47.65625 37.796875 51.625 33 
Q 55.609375 28.21875 55.609375 21.1875 
Q 55.609375 10.40625 48.1875 4.484375 
Q 40.765625 -1.421875 27.09375 -1.421875 
Q 22.515625 -1.421875 17.65625 -0.515625 
Q 12.796875 0.390625 7.625 2.203125 
L 7.625 11.71875 
Q 11.71875 9.328125 16.59375 8.109375 
Q 21.484375 6.890625 26.8125 6.890625 
Q 36.078125 6.890625 40.9375 10.546875 
Q 45.796875 14.203125 45.796875 21.1875 
Q 45.796875 27.640625 41.28125 31.265625 
Q 36.765625 34.90625 28.71875 34.90625 
L 20.21875 34.90625 
L 20.21875 43.015625 
L 29.109375 43.015625 
Q 36.375 43.015625 40.234375 45.921875 
Q 44.09375 48.828125 44.09375 54.296875 
Q 44.09375 59.90625 40.109375 62.90625 
Q 36.140625 65.921875 28.71875 65.921875 
Q 24.65625 65.921875 20.015625 65.03125 
Q 15.375 64.15625 9.8125 62.3125 
L 9.8125 71.09375 
Q 15.4375 72.65625 20.34375 73.4375 
Q 25.25 74.21875 29.59375 74.21875 
Q 40.828125 74.21875 47.359375 69.109375 
Q 53.90625 64.015625 53.90625 55.328125 
Q 53.90625 49.265625 50.4375 45.09375 
Q 46.96875 40.921875 40.578125 39.3125 
z
" id="DejaVuSans-51"/>
     </defs>
     <g transform="translate(664.145899 333.370365)scale(0.1 -0.1)">
      <use xlink:href="#DejaVuSans-49"/>
      <use x="63.623047" xlink:href="#DejaVuSans-46"/>
      <use x="95.410156" xlink:href="#DejaVuSans-49"/>
      <use x="159.033203" xlink:href="#DejaVuSans-51"/>
     </g>
    </g>
   </g>
   <g id="text_68">
    <g clip-path="url(#p3316a35304)">
     <!-- 1.14 -->
     <g transform="translate(713.226877 333.370365)scale(0.1 -0.1)">
      <use xlink:href="#DejaVuSans-49"/>
      <use x="63.623047" xlink:href="#DejaVuSans-46"/>
      <use x="95.410156" xlink:href="#DejaVuSans-49"/>
      <use x="159.033203" xlink:href="#DejaVuSans-52"/>
     </g>
    </g>
   </g>
   <g id="text_69">
    <g clip-path="url(#p3316a35304)">
     <!-- 1.15 -->
     <g transform="translate(467.821988 333.370365)scale(0.1 -0.1)">
      <use xlink:href="#DejaVuSans-49"/>
      <use x="63.623047" xlink:href="#DejaVuSans-46"/>
      <use x="95.410156" xlink:href="#DejaVuSans-49"/>
      <use x="159.033203" xlink:href="#DejaVuSans-53"/>
     </g>
    </g>
   </g>
   <g id="text_70">
    <g clip-path="url(#p3316a35304)">
     <!-- 1.16 -->
     <g transform="translate(516.902965 333.370365)scale(0.1 -0.1)">
      <use xlink:href="#DejaVuSans-49"/>
      <use x="63.623047" xlink:href="#DejaVuSans-46"/>
      <use x="95.410156" xlink:href="#DejaVuSans-49"/>
      <use x="159.033203" xlink:href="#DejaVuSans-54"/>
     </g>
    </g>
   </g>
   <g id="text_71">
    <g clip-path="url(#p3316a35304)">
     <!-- 1.17 -->
     <g transform="translate(320.579054 333.370365)scale(0.1 -0.1)">
      <use xlink:href="#DejaVuSans-49"/>
      <use x="63.623047" xlink:href="#DejaVuSans-46"/>
      <use x="95.410156" xlink:href="#DejaVuSans-49"/>
      <use x="159.033203" xlink:href="#DejaVuSans-55"/>
     </g>
    </g>
   </g>
   <g id="text_72">
    <g clip-path="url(#p3316a35304)">
     <!-- 1.18 -->
     <g transform="translate(369.660032 333.370365)scale(0.1 -0.1)">
      <use xlink:href="#DejaVuSans-49"/>
      <use x="63.623047" xlink:href="#DejaVuSans-46"/>
      <use x="95.410156" xlink:href="#DejaVuSans-49"/>
      <use x="159.033203" xlink:href="#DejaVuSans-56"/>
     </g>
    </g>
   </g>
   <g id="text_73">
    <g clip-path="url(#p3316a35304)">
     <!-- 1.19 -->
     <g transform="translate(418.74101 333.370365)scale(0.1 -0.1)">
      <use xlink:href="#DejaVuSans-49"/>
      <use x="63.623047" xlink:href="#DejaVuSans-46"/>
      <use x="95.410156" xlink:href="#DejaVuSans-49"/>
      <use x="159.033203" xlink:href="#DejaVuSans-57"/>
     </g>
    </g>
   </g>
   <g id="text_74">
    <g clip-path="url(#p3316a35304)">
     <!-- 1.20 -->
     <g transform="translate(26.093187 333.370365)scale(0.1 -0.1)">
      <use xlink:href="#DejaVuSans-49"/>
      <use x="63.623047" xlink:href="#DejaVuSans-46"/>
      <use x="95.410156" xlink:href="#DejaVuSans-50"/>
      <use x="159.033203" xlink:href="#DejaVuSans-48"/>
     </g>
    </g>
   </g>
   <g id="text_75">
    <g clip-path="url(#p3316a35304)">
     <!-- 1.21 -->
     <g transform="translate(75.174165 333.370365)scale(0.1 -0.1)">
      <use xlink:href="#DejaVuSans-49"/>
      <use x="63.623047" xlink:href="#DejaVuSans-46"/>
      <use x="95.410156" xlink:href="#DejaVuSans-50"/>
      <use x="159.033203" xlink:href="#DejaVuSans-49"/>
     </g>
    </g>
   </g>
   <g id="text_76">
    <g clip-path="url(#p3316a35304)">
     <!-- 1.22 -->
     <g transform="translate(148.795632 257.812839)scale(0.1 -0.1)">
      <use xlink:href="#DejaVuSans-49"/>
      <use x="63.623047" xlink:href="#DejaVuSans-46"/>
      <use x="95.410156" xlink:href="#DejaVuSans-50"/>
      <use x="159.033203" xlink:href="#DejaVuSans-50"/>
     </g>
    </g>
   </g>
   <g id="text_77">
    <g clip-path="url(#p3316a35304)">
     <!-- 1.23 -->
     <g transform="translate(124.255143 333.370365)scale(0.1 -0.1)">
      <use xlink:href="#DejaVuSans-49"/>
      <use x="63.623047" xlink:href="#DejaVuSans-46"/>
      <use x="95.410156" xlink:href="#DejaVuSans-50"/>
      <use x="159.033203" xlink:href="#DejaVuSans-51"/>
     </g>
    </g>
   </g>
   <g id="text_78">
    <g clip-path="url(#p3316a35304)">
     <!-- 1.24 -->
     <g transform="translate(173.336121 333.370365)scale(0.1 -0.1)">
      <use xlink:href="#DejaVuSans-49"/>
      <use x="63.623047" xlink:href="#DejaVuSans-46"/>
      <use x="95.410156" xlink:href="#DejaVuSans-50"/>
      <use x="159.033203" xlink:href="#DejaVuSans-52"/>
     </g>
    </g>
   </g>
   <g id="text_79">
    <g clip-path="url(#p3316a35304)">
     <!-- 1.25 -->
     <g transform="translate(762.307854 333.370365)scale(0.1 -0.1)">
      <use xlink:href="#DejaVuSans-49"/>
      <use x="63.623047" xlink:href="#DejaVuSans-46"/>
      <use x="95.410156" xlink:href="#DejaVuSans-50"/>
      <use x="159.033203" xlink:href="#DejaVuSans-53"/>
     </g>
    </g>
   </g>
  </g>
 </g>
 <defs>
  <clipPath id="p3316a35304">
   <rect height="426.666667" width="810.666667" x="0" y="0"/>
  </clipPath>
 </defs>
</svg>
