<?xml version="1.0" encoding="utf-8" standalone="no"?>
<!DOCTYPE svg PUBLIC "-//W3C//DTD SVG 1.1//EN"
  "http://www.w3.org/Graphics/SVG/1.1/DTD/svg11.dtd">
<!-- Created with matplotlib (https://matplotlib.org/) -->
<svg height="293.333333pt" version="1.1" viewBox="0 0 557.333333 293.333333" width="557.333333pt" xmlns="http://www.w3.org/2000/svg" xmlns:xlink="http://www.w3.org/1999/xlink">
 <defs>
  <style type="text/css">
*{stroke-linecap:butt;stroke-linejoin:round;}
  </style>
 </defs>
 <g id="figure_1">
  <g id="patch_1">
   <path d="M 0 293.333333 
L 557.333333 293.333333 
L 557.333333 0 
L 0 0 
z
" style="fill:#ffffff;"/>
  </g>
  <g id="axes_1">
   <g id="LineCollection_1">
    <path clip-path="url(#p7fcec45a2e)" d="M 316.932895 14.243103 
L 316.932895 60.631983 
" style="fill:none;stroke:#000000;"/>
    <path clip-path="url(#p7fcec45a2e)" d="M 316.932895 60.631983 
L 77.856735 105.869358 
" style="fill:none;stroke:#000000;"/>
    <path clip-path="url(#p7fcec45a2e)" d="M 316.932895 60.631983 
L 379.773765 236.291596 
" style="fill:none;stroke:#000000;"/>
    <path clip-path="url(#p7fcec45a2e)" d="M 316.932895 60.631983 
L 480.880863 193.492963 
" style="fill:none;stroke:#000000;"/>
    <path clip-path="url(#p7fcec45a2e)" d="M 316.932895 60.631983 
L 329.220216 236.291596 
" style="fill:none;stroke:#000000;"/>
    <path clip-path="url(#p7fcec45a2e)" d="M 77.856735 105.869358 
L 25.898921 236.291596 
" style="fill:none;stroke:#000000;"/>
    <path clip-path="url(#p7fcec45a2e)" d="M 77.856735 105.869358 
L 131.218815 150.098953 
" style="fill:none;stroke:#000000;"/>
    <path clip-path="url(#p7fcec45a2e)" d="M 77.856735 105.869358 
L 76.45247 236.291596 
" style="fill:none;stroke:#000000;"/>
    <path clip-path="url(#p7fcec45a2e)" d="M 379.773765 236.291596 
L 379.773765 279.09023 
" style="fill:none;stroke:#000000;"/>
    <path clip-path="url(#p7fcec45a2e)" d="M 480.880863 193.492963 
L 430.327314 236.291596 
" style="fill:none;stroke:#000000;"/>
    <path clip-path="url(#p7fcec45a2e)" d="M 480.880863 193.492963 
L 480.880863 236.291596 
" style="fill:none;stroke:#000000;"/>
    <path clip-path="url(#p7fcec45a2e)" d="M 480.880863 193.492963 
L 531.434413 236.291596 
" style="fill:none;stroke:#000000;"/>
    <path clip-path="url(#p7fcec45a2e)" d="M 430.327314 236.291596 
L 430.327314 279.09023 
" style="fill:none;stroke:#000000;"/>
    <path clip-path="url(#p7fcec45a2e)" d="M 480.880863 236.291596 
L 480.880863 279.09023 
" style="fill:none;stroke:#000000;"/>
    <path clip-path="url(#p7fcec45a2e)" d="M 25.898921 236.291596 
L 25.898921 279.09023 
" style="fill:none;stroke:#000000;"/>
    <path clip-path="url(#p7fcec45a2e)" d="M 131.218815 150.098953 
L 25.898921 236.291596 
" style="fill:none;stroke:#000000;stroke-dasharray:3.7,1.6;stroke-dashoffset:0;"/>
    <path clip-path="url(#p7fcec45a2e)" d="M 131.218815 150.098953 
L 127.006019 236.291596 
" style="fill:none;stroke:#000000;"/>
    <path clip-path="url(#p7fcec45a2e)" d="M 131.218815 150.098953 
L 240.751505 193.492963 
" style="fill:none;stroke:#000000;"/>
    <path clip-path="url(#p7fcec45a2e)" d="M 127.006019 236.291596 
L 127.006019 279.09023 
" style="fill:none;stroke:#000000;"/>
    <path clip-path="url(#p7fcec45a2e)" d="M 240.751505 193.492963 
L 202.836343 236.291596 
" style="fill:none;stroke:#000000;"/>
    <path clip-path="url(#p7fcec45a2e)" d="M 240.751505 193.492963 
L 278.666667 236.291596 
" style="fill:none;stroke:#000000;"/>
    <path clip-path="url(#p7fcec45a2e)" d="M 202.836343 236.291596 
L 177.559568 279.09023 
" style="fill:none;stroke:#000000;"/>
    <path clip-path="url(#p7fcec45a2e)" d="M 202.836343 236.291596 
L 228.113117 279.09023 
" style="fill:none;stroke:#000000;"/>
    <path clip-path="url(#p7fcec45a2e)" d="M 278.666667 236.291596 
L 278.666667 279.09023 
" style="fill:none;stroke:#000000;"/>
    <path clip-path="url(#p7fcec45a2e)" d="M 76.45247 236.291596 
L 76.45247 279.09023 
" style="fill:none;stroke:#000000;"/>
    <path clip-path="url(#p7fcec45a2e)" d="M 329.220216 236.291596 
L 329.220216 279.09023 
" style="fill:none;stroke:#000000;"/>
    <path clip-path="url(#p7fcec45a2e)" d="M 531.434413 236.291596 
L 531.434413 279.09023 
" style="fill:none;stroke:#000000;"/>
   </g>
   <g id="text_1">
    <g id="patch_2">
     <path clip-path="url(#p7fcec45a2e)" d="M 310.661645 34.429418 
L 310.661645 40.445668 
Q 310.661645 42.845668 313.061645 42.845668 
L 320.804145 42.845668 
Q 323.204145 42.845668 323.204145 40.445668 
L 323.204145 34.429418 
Q 323.204145 32.029418 320.804145 32.029418 
L 313.061645 32.029418 
Q 310.661645 32.029418 310.661645 34.429418 
z
" style="fill:#ffffff;stroke:#ffffff;stroke-linejoin:miter;"/>
    </g>
    <g clip-path="url(#p7fcec45a2e)">
     <!-- H -->
     <defs>
      <path d="M 9.8125 72.90625 
L 19.671875 72.90625 
L 19.671875 43.015625 
L 55.515625 43.015625 
L 55.515625 72.90625 
L 65.375 72.90625 
L 65.375 0 
L 55.515625 0 
L 55.515625 34.71875 
L 19.671875 34.71875 
L 19.671875 0 
L 9.8125 0 
z
" id="DejaVuSans-72"/>
     </defs>
     <g transform="translate(314.725395 34.429418)rotate(-270)scale(0.08 -0.08)">
      <use xlink:href="#DejaVuSans-72"/>
     </g>
    </g>
   </g>
   <g id="text_2">
    <g id="patch_3">
     <path clip-path="url(#p7fcec45a2e)" d="M 195.872212 89.921302 
L 201.2493 88.903863 
Q 203.607457 88.457659 203.161252 86.099502 
L 201.721779 78.491992 
Q 201.275574 76.133835 198.917418 76.580039 
L 193.54033 77.597478 
Q 191.182174 78.043682 191.628378 80.401839 
L 193.067851 88.00935 
Q 193.514056 90.367506 195.872212 89.921302 
z
" style="fill:#ffffff;stroke:#ffffff;stroke-linejoin:miter;"/>
    </g>
    <g clip-path="url(#p7fcec45a2e)">
     <!-- A -->
     <defs>
      <path d="M 34.1875 63.1875 
L 20.796875 26.90625 
L 47.609375 26.90625 
z
M 28.609375 72.90625 
L 39.796875 72.90625 
L 67.578125 0 
L 57.328125 0 
L 50.6875 18.703125 
L 17.828125 18.703125 
L 11.1875 0 
L 0.78125 0 
z
" id="DejaVuSans-65"/>
     </defs>
     <g transform="translate(195.116686 85.928403)rotate(-10.714685)scale(0.08 -0.08)">
      <use xlink:href="#DejaVuSans-65"/>
     </g>
    </g>
   </g>
   <g id="text_3">
    <g id="patch_4">
     <path clip-path="url(#p7fcec45a2e)" d="M 341.636144 148.303246 
L 343.260961 152.84511 
Q 344.06937 155.104861 346.329121 154.296453 
L 353.619173 151.688493 
Q 355.878924 150.880085 355.070515 148.620333 
L 353.445698 144.078469 
Q 352.63729 141.818718 350.377539 142.627126 
L 343.087487 145.235086 
Q 340.827736 146.043494 341.636144 148.303246 
z
" style="fill:#ffffff;stroke:#ffffff;stroke-linejoin:miter;"/>
    </g>
    <g clip-path="url(#p7fcec45a2e)">
     <!-- P -->
     <defs>
      <path d="M 19.671875 64.796875 
L 19.671875 37.40625 
L 32.078125 37.40625 
Q 38.96875 37.40625 42.71875 40.96875 
Q 46.484375 44.53125 46.484375 51.125 
Q 46.484375 57.671875 42.71875 61.234375 
Q 38.96875 64.796875 32.078125 64.796875 
z
M 9.8125 72.90625 
L 32.078125 72.90625 
Q 44.34375 72.90625 50.609375 67.359375 
Q 56.890625 61.8125 56.890625 51.125 
Q 56.890625 40.328125 50.609375 34.8125 
Q 44.34375 29.296875 32.078125 29.296875 
L 19.671875 29.296875 
L 19.671875 0 
L 9.8125 0 
z
" id="DejaVuSans-80"/>
     </defs>
     <g transform="translate(345.462421 146.934425)rotate(-289.684277)scale(0.08 -0.08)">
      <use xlink:href="#DejaVuSans-80"/>
     </g>
    </g>
   </g>
   <g id="text_4">
    <g id="patch_5">
     <path clip-path="url(#p7fcec45a2e)" d="M 392.832645 130.211967 
L 397.084326 133.657466 
Q 398.948928 135.168512 400.459974 133.30391 
L 405.33467 127.288626 
Q 406.845716 125.424024 404.981114 123.912978 
L 400.729432 120.467479 
Q 398.86483 118.956433 397.353784 120.821036 
L 392.479088 126.83632 
Q 390.968043 128.700922 392.832645 130.211967 
z
" style="fill:#ffffff;stroke:#ffffff;stroke-linejoin:miter;"/>
    </g>
    <g clip-path="url(#p7fcec45a2e)">
     <!-- A -->
     <g transform="translate(395.391191 127.054769)rotate(-320.979209)scale(0.08 -0.08)">
      <use xlink:href="#DejaVuSans-65"/>
     </g>
    </g>
   </g>
   <g id="text_5">
    <g id="patch_6">
     <path clip-path="url(#p7fcec45a2e)" d="M 316.616313 145.979028 
L 317.02487 151.819756 
Q 317.19234 154.213906 319.58649 154.046436 
L 327.310117 153.506171 
Q 329.704267 153.338701 329.536797 150.944552 
L 329.128241 145.103823 
Q 328.960771 142.709673 326.566621 142.877143 
L 318.842993 143.417408 
Q 316.448844 143.584878 316.616313 145.979028 
z
" style="fill:#ffffff;stroke:#ffffff;stroke-linejoin:miter;"/>
    </g>
    <g clip-path="url(#p7fcec45a2e)">
     <!-- U -->
     <defs>
      <path d="M 8.6875 72.90625 
L 18.609375 72.90625 
L 18.609375 28.609375 
Q 18.609375 16.890625 22.84375 11.734375 
Q 27.09375 6.59375 36.625 6.59375 
Q 46.09375 6.59375 50.34375 11.734375 
Q 54.59375 16.890625 54.59375 28.609375 
L 54.59375 72.90625 
L 64.5 72.90625 
L 64.5 27.390625 
Q 64.5 13.140625 57.4375 5.859375 
Q 50.390625 -1.421875 36.625 -1.421875 
Q 22.796875 -1.421875 15.734375 5.859375 
Q 8.6875 13.140625 8.6875 27.390625 
z
" id="DejaVuSans-85"/>
     </defs>
     <g transform="translate(320.670158 145.695463)rotate(-274.0013)scale(0.08 -0.08)">
      <use xlink:href="#DejaVuSans-85"/>
     </g>
    </g>
   </g>
   <g id="text_6">
    <g id="patch_7">
     <path clip-path="url(#p7fcec45a2e)" d="M 56.670064 175.996228 
L 58.737502 170.806633 
Q 59.625728 168.577047 57.396142 167.688821 
L 50.203404 164.823367 
Q 47.973818 163.935141 47.085592 166.164727 
L 45.018154 171.354321 
Q 44.129928 173.583908 46.359514 174.472134 
L 53.552252 177.337588 
Q 55.781838 178.225814 56.670064 175.996228 
z
" style="fill:#ffffff;stroke:#ffffff;stroke-linejoin:miter;"/>
    </g>
    <g clip-path="url(#p7fcec45a2e)">
     <!-- C -->
     <defs>
      <path d="M 64.40625 67.28125 
L 64.40625 56.890625 
Q 59.421875 61.53125 53.78125 63.8125 
Q 48.140625 66.109375 41.796875 66.109375 
Q 29.296875 66.109375 22.65625 58.46875 
Q 16.015625 50.828125 16.015625 36.375 
Q 16.015625 21.96875 22.65625 14.328125 
Q 29.296875 6.6875 41.796875 6.6875 
Q 48.140625 6.6875 53.78125 8.984375 
Q 59.421875 11.28125 64.40625 15.921875 
L 64.40625 5.609375 
Q 59.234375 2.09375 53.4375 0.328125 
Q 47.65625 -1.421875 41.21875 -1.421875 
Q 24.65625 -1.421875 15.125 8.703125 
Q 5.609375 18.84375 5.609375 36.375 
Q 5.609375 53.953125 15.125 64.078125 
Q 24.65625 74.21875 41.21875 74.21875 
Q 47.75 74.21875 53.53125 72.484375 
Q 59.328125 70.75 64.40625 67.28125 
z
" id="DejaVuSans-67"/>
     </defs>
     <g transform="translate(52.894863 174.492257)rotate(-68.278575)scale(0.08 -0.08)">
      <use xlink:href="#DejaVuSans-67"/>
     </g>
    </g>
   </g>
   <g id="text_7">
    <g id="patch_8">
     <path clip-path="url(#p7fcec45a2e)" d="M 98.589829 131.199552 
L 102.48174 134.425394 
Q 104.329532 135.956951 105.861089 134.10916 
L 110.801955 128.148107 
Q 112.333512 126.300316 110.485721 124.768759 
L 106.59381 121.542917 
Q 104.746019 120.01136 103.214462 121.859152 
L 98.273595 127.820204 
Q 96.742038 129.667995 98.589829 131.199552 
z
" style="fill:#ffffff;stroke:#ffffff;stroke-linejoin:miter;"/>
    </g>
    <g clip-path="url(#p7fcec45a2e)">
     <!-- E -->
     <defs>
      <path d="M 9.8125 72.90625 
L 55.90625 72.90625 
L 55.90625 64.59375 
L 19.671875 64.59375 
L 19.671875 43.015625 
L 54.390625 43.015625 
L 54.390625 34.71875 
L 19.671875 34.71875 
L 19.671875 8.296875 
L 56.78125 8.296875 
L 56.78125 0 
L 9.8125 0 
z
" id="DejaVuSans-69"/>
     </defs>
     <g transform="translate(101.183106 128.070818)rotate(-320.346086)scale(0.08 -0.08)">
      <use xlink:href="#DejaVuSans-69"/>
     </g>
    </g>
   </g>
   <g id="text_8">
    <g id="patch_9">
     <path clip-path="url(#p7fcec45a2e)" d="M 83.39397 174.075327 
L 83.457008 168.220666 
Q 83.482847 165.820805 81.082986 165.794966 
L 73.340935 165.711607 
Q 70.941074 165.685767 70.915235 168.085628 
L 70.852197 173.940289 
Q 70.826358 176.34015 73.226219 176.365989 
L 80.96827 176.449348 
Q 83.368131 176.475188 83.39397 174.075327 
z
" style="fill:#ffffff;stroke:#ffffff;stroke-linejoin:miter;"/>
    </g>
    <g clip-path="url(#p7fcec45a2e)">
     <!-- U -->
     <g transform="translate(79.330456 174.031575)rotate(-89.383116)scale(0.08 -0.08)">
      <use xlink:href="#DejaVuSans-85"/>
     </g>
    </g>
   </g>
   <g id="text_9">
    <g id="patch_10">
     <path clip-path="url(#p7fcec45a2e)" d="M 373.502515 240.048413 
L 373.502515 275.333413 
Q 373.502515 277.733413 375.902515 277.733413 
L 383.645015 277.733413 
Q 386.045015 277.733413 386.045015 275.333413 
L 386.045015 240.048413 
Q 386.045015 237.648413 383.645015 237.648413 
L 375.902515 237.648413 
Q 373.502515 237.648413 373.502515 240.048413 
z
" style="fill:#ffffff;stroke:#ffffff;stroke-linejoin:miter;"/>
    </g>
    <g clip-path="url(#p7fcec45a2e)">
     <!-- Terminal -->
     <defs>
      <path d="M -0.296875 72.90625 
L 61.375 72.90625 
L 61.375 64.59375 
L 35.5 64.59375 
L 35.5 0 
L 25.59375 0 
L 25.59375 64.59375 
L -0.296875 64.59375 
z
" id="DejaVuSans-84"/>
      <path d="M 56.203125 29.59375 
L 56.203125 25.203125 
L 14.890625 25.203125 
Q 15.484375 15.921875 20.484375 11.0625 
Q 25.484375 6.203125 34.421875 6.203125 
Q 39.59375 6.203125 44.453125 7.46875 
Q 49.3125 8.734375 54.109375 11.28125 
L 54.109375 2.78125 
Q 49.265625 0.734375 44.1875 -0.34375 
Q 39.109375 -1.421875 33.890625 -1.421875 
Q 20.796875 -1.421875 13.15625 6.1875 
Q 5.515625 13.8125 5.515625 26.8125 
Q 5.515625 40.234375 12.765625 48.109375 
Q 20.015625 56 32.328125 56 
Q 43.359375 56 49.78125 48.890625 
Q 56.203125 41.796875 56.203125 29.59375 
z
M 47.21875 32.234375 
Q 47.125 39.59375 43.09375 43.984375 
Q 39.0625 48.390625 32.421875 48.390625 
Q 24.90625 48.390625 20.390625 44.140625 
Q 15.875 39.890625 15.1875 32.171875 
z
" id="DejaVuSans-101"/>
      <path d="M 41.109375 46.296875 
Q 39.59375 47.171875 37.8125 47.578125 
Q 36.03125 48 33.890625 48 
Q 26.265625 48 22.1875 43.046875 
Q 18.109375 38.09375 18.109375 28.8125 
L 18.109375 0 
L 9.078125 0 
L 9.078125 54.6875 
L 18.109375 54.6875 
L 18.109375 46.1875 
Q 20.953125 51.171875 25.484375 53.578125 
Q 30.03125 56 36.53125 56 
Q 37.453125 56 38.578125 55.875 
Q 39.703125 55.765625 41.0625 55.515625 
z
" id="DejaVuSans-114"/>
      <path d="M 52 44.1875 
Q 55.375 50.25 60.0625 53.125 
Q 64.75 56 71.09375 56 
Q 79.640625 56 84.28125 50.015625 
Q 88.921875 44.046875 88.921875 33.015625 
L 88.921875 0 
L 79.890625 0 
L 79.890625 32.71875 
Q 79.890625 40.578125 77.09375 44.375 
Q 74.3125 48.1875 68.609375 48.1875 
Q 61.625 48.1875 57.5625 43.546875 
Q 53.515625 38.921875 53.515625 30.90625 
L 53.515625 0 
L 44.484375 0 
L 44.484375 32.71875 
Q 44.484375 40.625 41.703125 44.40625 
Q 38.921875 48.1875 33.109375 48.1875 
Q 26.21875 48.1875 22.15625 43.53125 
Q 18.109375 38.875 18.109375 30.90625 
L 18.109375 0 
L 9.078125 0 
L 9.078125 54.6875 
L 18.109375 54.6875 
L 18.109375 46.1875 
Q 21.1875 51.21875 25.484375 53.609375 
Q 29.78125 56 35.6875 56 
Q 41.65625 56 45.828125 52.96875 
Q 50 49.953125 52 44.1875 
z
" id="DejaVuSans-109"/>
      <path d="M 9.421875 54.6875 
L 18.40625 54.6875 
L 18.40625 0 
L 9.421875 0 
z
M 9.421875 75.984375 
L 18.40625 75.984375 
L 18.40625 64.59375 
L 9.421875 64.59375 
z
" id="DejaVuSans-105"/>
      <path d="M 54.890625 33.015625 
L 54.890625 0 
L 45.90625 0 
L 45.90625 32.71875 
Q 45.90625 40.484375 42.875 44.328125 
Q 39.84375 48.1875 33.796875 48.1875 
Q 26.515625 48.1875 22.3125 43.546875 
Q 18.109375 38.921875 18.109375 30.90625 
L 18.109375 0 
L 9.078125 0 
L 9.078125 54.6875 
L 18.109375 54.6875 
L 18.109375 46.1875 
Q 21.34375 51.125 25.703125 53.5625 
Q 30.078125 56 35.796875 56 
Q 45.21875 56 50.046875 50.171875 
Q 54.890625 44.34375 54.890625 33.015625 
z
" id="DejaVuSans-110"/>
      <path d="M 34.28125 27.484375 
Q 23.390625 27.484375 19.1875 25 
Q 14.984375 22.515625 14.984375 16.5 
Q 14.984375 11.71875 18.140625 8.90625 
Q 21.296875 6.109375 26.703125 6.109375 
Q 34.1875 6.109375 38.703125 11.40625 
Q 43.21875 16.703125 43.21875 25.484375 
L 43.21875 27.484375 
z
M 52.203125 31.203125 
L 52.203125 0 
L 43.21875 0 
L 43.21875 8.296875 
Q 40.140625 3.328125 35.546875 0.953125 
Q 30.953125 -1.421875 24.3125 -1.421875 
Q 15.921875 -1.421875 10.953125 3.296875 
Q 6 8.015625 6 15.921875 
Q 6 25.140625 12.171875 29.828125 
Q 18.359375 34.515625 30.609375 34.515625 
L 43.21875 34.515625 
L 43.21875 35.40625 
Q 43.21875 41.609375 39.140625 45 
Q 35.0625 48.390625 27.6875 48.390625 
Q 23 48.390625 18.546875 47.265625 
Q 14.109375 46.140625 10.015625 43.890625 
L 10.015625 52.203125 
Q 14.9375 54.109375 19.578125 55.046875 
Q 24.21875 56 28.609375 56 
Q 40.484375 56 46.34375 49.84375 
Q 52.203125 43.703125 52.203125 31.203125 
z
" id="DejaVuSans-97"/>
      <path d="M 9.421875 75.984375 
L 18.40625 75.984375 
L 18.40625 0 
L 9.421875 0 
z
" id="DejaVuSans-108"/>
     </defs>
     <g transform="translate(377.566265 240.048413)rotate(-270)scale(0.08 -0.08)">
      <use xlink:href="#DejaVuSans-84"/>
      <use x="60.818359" xlink:href="#DejaVuSans-101"/>
      <use x="122.341797" xlink:href="#DejaVuSans-114"/>
      <use x="163.439453" xlink:href="#DejaVuSans-109"/>
      <use x="260.851562" xlink:href="#DejaVuSans-105"/>
      <use x="288.634766" xlink:href="#DejaVuSans-110"/>
      <use x="352.013672" xlink:href="#DejaVuSans-97"/>
      <use x="413.292969" xlink:href="#DejaVuSans-108"/>
     </g>
    </g>
   </g>
   <g id="text_10">
    <g id="patch_11">
     <path clip-path="url(#p7fcec45a2e)" d="M 457.534928 221.47448 
L 461.777468 217.882745 
Q 463.609192 216.332008 462.058455 214.500284 
L 457.055711 208.591066 
Q 455.504973 206.759342 453.673249 208.310079 
L 449.430709 211.901813 
Q 447.598985 213.452551 449.149723 215.284275 
L 454.152467 221.193493 
Q 455.703204 223.025217 457.534928 221.47448 
z
" style="fill:#ffffff;stroke:#ffffff;stroke-linejoin:miter;"/>
    </g>
    <g clip-path="url(#p7fcec45a2e)">
     <!-- R -->
     <defs>
      <path d="M 44.390625 34.1875 
Q 47.5625 33.109375 50.5625 29.59375 
Q 53.5625 26.078125 56.59375 19.921875 
L 66.609375 0 
L 56 0 
L 46.6875 18.703125 
Q 43.0625 26.03125 39.671875 28.421875 
Q 36.28125 30.8125 30.421875 30.8125 
L 19.671875 30.8125 
L 19.671875 0 
L 9.8125 0 
L 9.8125 72.90625 
L 32.078125 72.90625 
Q 44.578125 72.90625 50.734375 67.671875 
Q 56.890625 62.453125 56.890625 51.90625 
Q 56.890625 45.015625 53.6875 40.46875 
Q 50.484375 35.9375 44.390625 34.1875 
z
M 19.671875 64.796875 
L 19.671875 38.921875 
L 32.078125 38.921875 
Q 39.203125 38.921875 42.84375 42.21875 
Q 46.484375 45.515625 46.484375 51.90625 
Q 46.484375 58.296875 42.84375 61.546875 
Q 39.203125 64.796875 32.078125 64.796875 
z
" id="DejaVuSans-82"/>
     </defs>
     <g transform="translate(454.909174 218.372951)rotate(-40.251251)scale(0.08 -0.08)">
      <use xlink:href="#DejaVuSans-82"/>
     </g>
    </g>
   </g>
   <g id="text_11">
    <g id="patch_12">
     <path clip-path="url(#p7fcec45a2e)" d="M 474.609613 212.099154 
L 474.609613 217.685404 
Q 474.609613 220.085404 477.009613 220.085404 
L 484.752113 220.085404 
Q 487.152113 220.085404 487.152113 217.685404 
L 487.152113 212.099154 
Q 487.152113 209.699154 484.752113 209.699154 
L 477.009613 209.699154 
Q 474.609613 209.699154 474.609613 212.099154 
z
" style="fill:#ffffff;stroke:#ffffff;stroke-linejoin:miter;"/>
    </g>
    <g clip-path="url(#p7fcec45a2e)">
     <!-- C -->
     <g transform="translate(478.673363 212.099154)rotate(-270)scale(0.08 -0.08)">
      <use xlink:href="#DejaVuSans-67"/>
     </g>
    </g>
   </g>
   <g id="text_12">
    <g id="patch_13">
     <path clip-path="url(#p7fcec45a2e)" d="M 499.871207 217.787036 
L 504.33985 221.570189 
Q 506.171574 223.120927 507.722312 221.289203 
L 512.725056 215.379985 
Q 514.275793 213.548261 512.444069 211.997523 
L 507.975426 208.21437 
Q 506.143702 206.663632 504.592964 208.495356 
L 499.59022 214.404574 
Q 498.039483 216.236298 499.871207 217.787036 
z
" style="fill:#ffffff;stroke:#ffffff;stroke-linejoin:miter;"/>
    </g>
    <g clip-path="url(#p7fcec45a2e)">
     <!-- U -->
     <g transform="translate(502.496961 214.685507)rotate(-319.748749)scale(0.08 -0.08)">
      <use xlink:href="#DejaVuSans-85"/>
     </g>
    </g>
   </g>
   <g id="text_13">
    <g id="patch_14">
     <path clip-path="url(#p7fcec45a2e)" d="M 424.056064 240.048413 
L 424.056064 275.333413 
Q 424.056064 277.733413 426.456064 277.733413 
L 434.198564 277.733413 
Q 436.598564 277.733413 436.598564 275.333413 
L 436.598564 240.048413 
Q 436.598564 237.648413 434.198564 237.648413 
L 426.456064 237.648413 
Q 424.056064 237.648413 424.056064 240.048413 
z
" style="fill:#ffffff;stroke:#ffffff;stroke-linejoin:miter;"/>
    </g>
    <g clip-path="url(#p7fcec45a2e)">
     <!-- Terminal -->
     <g transform="translate(428.119814 240.048413)rotate(-270)scale(0.08 -0.08)">
      <use xlink:href="#DejaVuSans-84"/>
      <use x="60.818359" xlink:href="#DejaVuSans-101"/>
      <use x="122.341797" xlink:href="#DejaVuSans-114"/>
      <use x="163.439453" xlink:href="#DejaVuSans-109"/>
      <use x="260.851562" xlink:href="#DejaVuSans-105"/>
      <use x="288.634766" xlink:href="#DejaVuSans-110"/>
      <use x="352.013672" xlink:href="#DejaVuSans-97"/>
      <use x="413.292969" xlink:href="#DejaVuSans-108"/>
     </g>
    </g>
   </g>
   <g id="text_14">
    <g id="patch_15">
     <path clip-path="url(#p7fcec45a2e)" d="M 474.609613 240.048413 
L 474.609613 275.333413 
Q 474.609613 277.733413 477.009613 277.733413 
L 484.752113 277.733413 
Q 487.152113 277.733413 487.152113 275.333413 
L 487.152113 240.048413 
Q 487.152113 237.648413 484.752113 237.648413 
L 477.009613 237.648413 
Q 474.609613 237.648413 474.609613 240.048413 
z
" style="fill:#ffffff;stroke:#ffffff;stroke-linejoin:miter;"/>
    </g>
    <g clip-path="url(#p7fcec45a2e)">
     <!-- Terminal -->
     <g transform="translate(478.673363 240.048413)rotate(-270)scale(0.08 -0.08)">
      <use xlink:href="#DejaVuSans-84"/>
      <use x="60.818359" xlink:href="#DejaVuSans-101"/>
      <use x="122.341797" xlink:href="#DejaVuSans-114"/>
      <use x="163.439453" xlink:href="#DejaVuSans-109"/>
      <use x="260.851562" xlink:href="#DejaVuSans-105"/>
      <use x="288.634766" xlink:href="#DejaVuSans-110"/>
      <use x="352.013672" xlink:href="#DejaVuSans-97"/>
      <use x="413.292969" xlink:href="#DejaVuSans-108"/>
     </g>
    </g>
   </g>
   <g id="text_15">
    <g id="patch_16">
     <path clip-path="url(#p7fcec45a2e)" d="M 19.627671 240.048413 
L 19.627671 275.333413 
Q 19.627671 277.733413 22.027671 277.733413 
L 29.770171 277.733413 
Q 32.170171 277.733413 32.170171 275.333413 
L 32.170171 240.048413 
Q 32.170171 237.648413 29.770171 237.648413 
L 22.027671 237.648413 
Q 19.627671 237.648413 19.627671 240.048413 
z
" style="fill:#ffffff;stroke:#ffffff;stroke-linejoin:miter;"/>
    </g>
    <g clip-path="url(#p7fcec45a2e)">
     <!-- Terminal -->
     <g transform="translate(23.691421 240.048413)rotate(-270)scale(0.08 -0.08)">
      <use xlink:href="#DejaVuSans-84"/>
      <use x="60.818359" xlink:href="#DejaVuSans-101"/>
      <use x="122.341797" xlink:href="#DejaVuSans-114"/>
      <use x="163.439453" xlink:href="#DejaVuSans-109"/>
      <use x="260.851562" xlink:href="#DejaVuSans-105"/>
      <use x="288.634766" xlink:href="#DejaVuSans-110"/>
      <use x="352.013672" xlink:href="#DejaVuSans-97"/>
      <use x="413.292969" xlink:href="#DejaVuSans-108"/>
     </g>
    </g>
   </g>
   <g id="text_16">
    <g id="patch_17">
     <path clip-path="url(#p7fcec45a2e)" d="M 80.413137 199.781421 
L 84.648188 196.315502 
Q 86.505497 194.7955 84.985496 192.938192 
L 80.081909 186.946436 
Q 78.561908 185.089127 76.704599 186.609128 
L 72.469547 190.075047 
Q 70.612239 191.595049 72.13224 193.452357 
L 77.035827 199.444113 
Q 78.555828 201.301422 80.413137 199.781421 
z
" style="fill:#ffffff;stroke:#ffffff;stroke-linejoin:miter;"/>
    </g>
    <g clip-path="url(#p7fcec45a2e)">
     <!-- A -->
     <g transform="translate(77.839427 196.636571)rotate(-39.296517)scale(0.08 -0.08)">
      <use xlink:href="#DejaVuSans-65"/>
     </g>
    </g>
   </g>
   <g id="text_17">
    <g id="patch_18">
     <path clip-path="url(#p7fcec45a2e)" d="M 135.252222 196.037773 
L 135.500157 190.965079 
Q 135.617321 188.56794 133.220183 188.450776 
L 125.486914 188.072801 
Q 123.089776 187.955637 122.972612 190.352776 
L 122.724677 195.42547 
Q 122.607513 197.822609 125.004651 197.939773 
L 132.73792 198.317748 
Q 135.135058 198.434912 135.252222 196.037773 
z
" style="fill:#ffffff;stroke:#ffffff;stroke-linejoin:miter;"/>
    </g>
    <g clip-path="url(#p7fcec45a2e)">
     <!-- S -->
     <defs>
      <path d="M 53.515625 70.515625 
L 53.515625 60.890625 
Q 47.90625 63.578125 42.921875 64.890625 
Q 37.9375 66.21875 33.296875 66.21875 
Q 25.25 66.21875 20.875 63.09375 
Q 16.5 59.96875 16.5 54.203125 
Q 16.5 49.359375 19.40625 46.890625 
Q 22.3125 44.4375 30.421875 42.921875 
L 36.375 41.703125 
Q 47.40625 39.59375 52.65625 34.296875 
Q 57.90625 29 57.90625 20.125 
Q 57.90625 9.515625 50.796875 4.046875 
Q 43.703125 -1.421875 29.984375 -1.421875 
Q 24.8125 -1.421875 18.96875 -0.25 
Q 13.140625 0.921875 6.890625 3.21875 
L 6.890625 13.375 
Q 12.890625 10.015625 18.65625 8.296875 
Q 24.421875 6.59375 29.984375 6.59375 
Q 38.421875 6.59375 43.015625 9.90625 
Q 47.609375 13.234375 47.609375 19.390625 
Q 47.609375 24.75 44.3125 27.78125 
Q 41.015625 30.8125 33.5 32.328125 
L 27.484375 33.5 
Q 16.453125 35.6875 11.515625 40.375 
Q 6.59375 45.0625 6.59375 53.421875 
Q 6.59375 63.09375 13.40625 68.65625 
Q 20.21875 74.21875 32.171875 74.21875 
Q 37.3125 74.21875 42.625 73.28125 
Q 47.953125 72.359375 53.515625 70.515625 
z
" id="DejaVuSans-83"/>
     </defs>
     <g transform="translate(131.193317 195.839388)rotate(-87.201809)scale(0.08 -0.08)">
      <use xlink:href="#DejaVuSans-83"/>
     </g>
    </g>
   </g>
   <g id="text_18">
    <g id="patch_19">
     <path clip-path="url(#p7fcec45a2e)" d="M 181.131432 176.618505 
L 186.219205 178.634149 
Q 188.450481 179.518123 189.334454 177.286847 
L 192.18619 170.088659 
Q 193.070163 167.857383 190.838888 166.97341 
L 185.751114 164.957766 
Q 183.519839 164.073793 182.635865 166.305068 
L 179.78413 173.503256 
Q 178.900156 175.734532 181.131432 176.618505 
z
" style="fill:#ffffff;stroke:#ffffff;stroke-linejoin:miter;"/>
    </g>
    <g clip-path="url(#p7fcec45a2e)">
     <!-- A -->
     <g transform="translate(182.628202 172.840444)rotate(-338.387814)scale(0.08 -0.08)">
      <use xlink:href="#DejaVuSans-65"/>
     </g>
    </g>
   </g>
   <g id="text_19">
    <g id="patch_20">
     <path clip-path="url(#p7fcec45a2e)" d="M 120.734769 240.048413 
L 120.734769 275.333413 
Q 120.734769 277.733413 123.134769 277.733413 
L 130.877269 277.733413 
Q 133.277269 277.733413 133.277269 275.333413 
L 133.277269 240.048413 
Q 133.277269 237.648413 130.877269 237.648413 
L 123.134769 237.648413 
Q 120.734769 237.648413 120.734769 240.048413 
z
" style="fill:#ffffff;stroke:#ffffff;stroke-linejoin:miter;"/>
    </g>
    <g clip-path="url(#p7fcec45a2e)">
     <!-- Terminal -->
     <g transform="translate(124.798519 240.048413)rotate(-270)scale(0.08 -0.08)">
      <use xlink:href="#DejaVuSans-84"/>
      <use x="60.818359" xlink:href="#DejaVuSans-101"/>
      <use x="122.341797" xlink:href="#DejaVuSans-114"/>
      <use x="163.439453" xlink:href="#DejaVuSans-109"/>
      <use x="260.851562" xlink:href="#DejaVuSans-105"/>
      <use x="288.634766" xlink:href="#DejaVuSans-110"/>
      <use x="352.013672" xlink:href="#DejaVuSans-97"/>
      <use x="413.292969" xlink:href="#DejaVuSans-108"/>
     </g>
    </g>
   </g>
   <g id="text_20">
    <g id="patch_21">
     <path clip-path="url(#p7fcec45a2e)" d="M 224.645047 221.131238 
L 228.331119 216.9704 
Q 229.922587 215.17395 228.126138 213.582482 
L 222.330718 208.44834 
Q 220.534269 206.856872 218.942801 208.653321 
L 215.256729 212.814159 
Q 213.665261 214.610608 215.46171 216.202076 
L 221.25713 221.336219 
Q 223.053579 222.927687 224.645047 221.131238 
z
" style="fill:#ffffff;stroke:#ffffff;stroke-linejoin:miter;"/>
    </g>
    <g clip-path="url(#p7fcec45a2e)">
     <!-- R -->
     <g transform="translate(221.603247 218.436518)rotate(-48.462378)scale(0.08 -0.08)">
      <use xlink:href="#DejaVuSans-82"/>
     </g>
    </g>
   </g>
   <g id="text_21">
    <g id="patch_22">
     <path clip-path="url(#p7fcec45a2e)" d="M 253.162773 216.960107 
L 256.867081 221.14153 
Q 258.458549 222.937979 260.254998 221.346511 
L 266.050417 216.212369 
Q 267.846867 214.620901 266.255399 212.824451 
L 262.551091 208.643029 
Q 260.959623 206.84658 259.163174 208.438048 
L 253.367754 213.57219 
Q 251.571305 215.163658 253.162773 216.960107 
z
" style="fill:#ffffff;stroke:#ffffff;stroke-linejoin:miter;"/>
    </g>
    <g clip-path="url(#p7fcec45a2e)">
     <!-- C -->
     <g transform="translate(256.204573 214.265387)rotate(-311.537622)scale(0.08 -0.08)">
      <use xlink:href="#DejaVuSans-67"/>
     </g>
    </g>
   </g>
   <g id="text_22">
    <g id="patch_23">
     <path clip-path="url(#p7fcec45a2e)" d="M 186.626027 276.071003 
L 204.569528 245.689068 
Q 205.790001 243.622562 203.723496 242.402089 
L 197.056863 238.464791 
Q 194.990358 237.244318 193.769884 239.310823 
L 175.826383 269.692758 
Q 174.60591 271.759264 176.672415 272.979737 
L 183.339048 276.917035 
Q 185.405553 278.137509 186.626027 276.071003 
z
" style="fill:#ffffff;stroke:#ffffff;stroke-linejoin:miter;"/>
    </g>
    <g clip-path="url(#p7fcec45a2e)">
     <!-- Terminal -->
     <g transform="translate(183.12696 274.004462)rotate(-59.433999)scale(0.08 -0.08)">
      <use xlink:href="#DejaVuSans-84"/>
      <use x="60.818359" xlink:href="#DejaVuSans-101"/>
      <use x="122.341797" xlink:href="#DejaVuSans-114"/>
      <use x="163.439453" xlink:href="#DejaVuSans-109"/>
      <use x="260.851562" xlink:href="#DejaVuSans-105"/>
      <use x="288.634766" xlink:href="#DejaVuSans-110"/>
      <use x="352.013672" xlink:href="#DejaVuSans-97"/>
      <use x="413.292969" xlink:href="#DejaVuSans-108"/>
     </g>
    </g>
   </g>
   <g id="text_23">
    <g id="patch_24">
     <path clip-path="url(#p7fcec45a2e)" d="M 201.103158 245.689068 
L 219.046659 276.071003 
Q 220.267132 278.137509 222.333638 276.917035 
L 229.00027 272.979737 
Q 231.066776 271.759264 229.846303 269.692758 
L 211.902801 239.310823 
Q 210.682328 237.244318 208.615823 238.464791 
L 201.94919 242.402089 
Q 199.882684 243.622562 201.103158 245.689068 
z
" style="fill:#ffffff;stroke:#ffffff;stroke-linejoin:miter;"/>
    </g>
    <g clip-path="url(#p7fcec45a2e)">
     <!-- Terminal -->
     <g transform="translate(204.602225 243.622527)rotate(-300.566001)scale(0.08 -0.08)">
      <use xlink:href="#DejaVuSans-84"/>
      <use x="60.818359" xlink:href="#DejaVuSans-101"/>
      <use x="122.341797" xlink:href="#DejaVuSans-114"/>
      <use x="163.439453" xlink:href="#DejaVuSans-109"/>
      <use x="260.851562" xlink:href="#DejaVuSans-105"/>
      <use x="288.634766" xlink:href="#DejaVuSans-110"/>
      <use x="352.013672" xlink:href="#DejaVuSans-97"/>
      <use x="413.292969" xlink:href="#DejaVuSans-108"/>
     </g>
    </g>
   </g>
   <g id="text_24">
    <g id="patch_25">
     <path clip-path="url(#p7fcec45a2e)" d="M 272.395417 240.048413 
L 272.395417 275.333413 
Q 272.395417 277.733413 274.795417 277.733413 
L 282.537917 277.733413 
Q 284.937917 277.733413 284.937917 275.333413 
L 284.937917 240.048413 
Q 284.937917 237.648413 282.537917 237.648413 
L 274.795417 237.648413 
Q 272.395417 237.648413 272.395417 240.048413 
z
" style="fill:#ffffff;stroke:#ffffff;stroke-linejoin:miter;"/>
    </g>
    <g clip-path="url(#p7fcec45a2e)">
     <!-- Terminal -->
     <g transform="translate(276.459167 240.048413)rotate(-270)scale(0.08 -0.08)">
      <use xlink:href="#DejaVuSans-84"/>
      <use x="60.818359" xlink:href="#DejaVuSans-101"/>
      <use x="122.341797" xlink:href="#DejaVuSans-114"/>
      <use x="163.439453" xlink:href="#DejaVuSans-109"/>
      <use x="260.851562" xlink:href="#DejaVuSans-105"/>
      <use x="288.634766" xlink:href="#DejaVuSans-110"/>
      <use x="352.013672" xlink:href="#DejaVuSans-97"/>
      <use x="413.292969" xlink:href="#DejaVuSans-108"/>
     </g>
    </g>
   </g>
   <g id="text_25">
    <g id="patch_26">
     <path clip-path="url(#p7fcec45a2e)" d="M 70.18122 240.048413 
L 70.18122 275.333413 
Q 70.18122 277.733413 72.58122 277.733413 
L 80.32372 277.733413 
Q 82.72372 277.733413 82.72372 275.333413 
L 82.72372 240.048413 
Q 82.72372 237.648413 80.32372 237.648413 
L 72.58122 237.648413 
Q 70.18122 237.648413 70.18122 240.048413 
z
" style="fill:#ffffff;stroke:#ffffff;stroke-linejoin:miter;"/>
    </g>
    <g clip-path="url(#p7fcec45a2e)">
     <!-- Terminal -->
     <g transform="translate(74.24497 240.048413)rotate(-270)scale(0.08 -0.08)">
      <use xlink:href="#DejaVuSans-84"/>
      <use x="60.818359" xlink:href="#DejaVuSans-101"/>
      <use x="122.341797" xlink:href="#DejaVuSans-114"/>
      <use x="163.439453" xlink:href="#DejaVuSans-109"/>
      <use x="260.851562" xlink:href="#DejaVuSans-105"/>
      <use x="288.634766" xlink:href="#DejaVuSans-110"/>
      <use x="352.013672" xlink:href="#DejaVuSans-97"/>
      <use x="413.292969" xlink:href="#DejaVuSans-108"/>
     </g>
    </g>
   </g>
   <g id="text_26">
    <g id="patch_27">
     <path clip-path="url(#p7fcec45a2e)" d="M 322.948966 240.048413 
L 322.948966 275.333413 
Q 322.948966 277.733413 325.348966 277.733413 
L 333.091466 277.733413 
Q 335.491466 277.733413 335.491466 275.333413 
L 335.491466 240.048413 
Q 335.491466 237.648413 333.091466 237.648413 
L 325.348966 237.648413 
Q 322.948966 237.648413 322.948966 240.048413 
z
" style="fill:#ffffff;stroke:#ffffff;stroke-linejoin:miter;"/>
    </g>
    <g clip-path="url(#p7fcec45a2e)">
     <!-- Terminal -->
     <g transform="translate(327.012716 240.048413)rotate(-270)scale(0.08 -0.08)">
      <use xlink:href="#DejaVuSans-84"/>
      <use x="60.818359" xlink:href="#DejaVuSans-101"/>
      <use x="122.341797" xlink:href="#DejaVuSans-114"/>
      <use x="163.439453" xlink:href="#DejaVuSans-109"/>
      <use x="260.851562" xlink:href="#DejaVuSans-105"/>
      <use x="288.634766" xlink:href="#DejaVuSans-110"/>
      <use x="352.013672" xlink:href="#DejaVuSans-97"/>
      <use x="413.292969" xlink:href="#DejaVuSans-108"/>
     </g>
    </g>
   </g>
   <g id="text_27">
    <g id="patch_28">
     <path clip-path="url(#p7fcec45a2e)" d="M 525.163163 240.048413 
L 525.163163 275.333413 
Q 525.163163 277.733413 527.563163 277.733413 
L 535.305663 277.733413 
Q 537.705663 277.733413 537.705663 275.333413 
L 537.705663 240.048413 
Q 537.705663 237.648413 535.305663 237.648413 
L 527.563163 237.648413 
Q 525.163163 237.648413 525.163163 240.048413 
z
" style="fill:#ffffff;stroke:#ffffff;stroke-linejoin:miter;"/>
    </g>
    <g clip-path="url(#p7fcec45a2e)">
     <!-- Terminal -->
     <g transform="translate(529.226913 240.048413)rotate(-270)scale(0.08 -0.08)">
      <use xlink:href="#DejaVuSans-84"/>
      <use x="60.818359" xlink:href="#DejaVuSans-101"/>
      <use x="122.341797" xlink:href="#DejaVuSans-114"/>
      <use x="163.439453" xlink:href="#DejaVuSans-109"/>
      <use x="260.851562" xlink:href="#DejaVuSans-105"/>
      <use x="288.634766" xlink:href="#DejaVuSans-110"/>
      <use x="352.013672" xlink:href="#DejaVuSans-97"/>
      <use x="413.292969" xlink:href="#DejaVuSans-108"/>
     </g>
    </g>
   </g>
   <g id="PathCollection_1">
    <defs>
     <path d="M 0 8.660254 
C 2.296726 8.660254 4.499694 7.747755 6.123724 6.123724 
C 7.747755 4.499694 8.660254 2.296726 8.660254 0 
C 8.660254 -2.296726 7.747755 -4.499694 6.123724 -6.123724 
C 4.499694 -7.747755 2.296726 -8.660254 0 -8.660254 
C -2.296726 -8.660254 -4.499694 -7.747755 -6.123724 -6.123724 
C -7.747755 -4.499694 -8.660254 -2.296726 -8.660254 0 
C -8.660254 2.296726 -7.747755 4.499694 -6.123724 6.123724 
C -4.499694 7.747755 -2.296726 8.660254 0 8.660254 
z
" id="C0_0_553cdcc5e1"/>
    </defs>
    <g clip-path="url(#p7fcec45a2e)">
     <use style="fill:#ffffff;stroke:#ffffff;" x="25.898921" xlink:href="#C0_0_553cdcc5e1" y="279.09023"/>
    </g>
    <g clip-path="url(#p7fcec45a2e)">
     <use style="fill:#ffffff;stroke:#ffffff;" x="76.45247" xlink:href="#C0_0_553cdcc5e1" y="279.09023"/>
    </g>
    <g clip-path="url(#p7fcec45a2e)">
     <use style="fill:#ffffff;stroke:#ffffff;" x="127.006019" xlink:href="#C0_0_553cdcc5e1" y="279.09023"/>
    </g>
    <g clip-path="url(#p7fcec45a2e)">
     <use style="fill:#ffffff;stroke:#ffffff;" x="177.559568" xlink:href="#C0_0_553cdcc5e1" y="279.09023"/>
    </g>
    <g clip-path="url(#p7fcec45a2e)">
     <use style="fill:#ffffff;stroke:#ffffff;" x="228.113117" xlink:href="#C0_0_553cdcc5e1" y="279.09023"/>
    </g>
    <g clip-path="url(#p7fcec45a2e)">
     <use style="fill:#ffffff;stroke:#ffffff;" x="278.666667" xlink:href="#C0_0_553cdcc5e1" y="279.09023"/>
    </g>
    <g clip-path="url(#p7fcec45a2e)">
     <use style="fill:#ffffff;stroke:#ffffff;" x="329.220216" xlink:href="#C0_0_553cdcc5e1" y="279.09023"/>
    </g>
    <g clip-path="url(#p7fcec45a2e)">
     <use style="fill:#ffffff;stroke:#ffffff;" x="379.773765" xlink:href="#C0_0_553cdcc5e1" y="279.09023"/>
    </g>
    <g clip-path="url(#p7fcec45a2e)">
     <use style="fill:#ffffff;stroke:#ffffff;" x="430.327314" xlink:href="#C0_0_553cdcc5e1" y="279.09023"/>
    </g>
    <g clip-path="url(#p7fcec45a2e)">
     <use style="fill:#ffffff;stroke:#ffffff;" x="480.880863" xlink:href="#C0_0_553cdcc5e1" y="279.09023"/>
    </g>
    <g clip-path="url(#p7fcec45a2e)">
     <use style="fill:#ffffff;stroke:#ffffff;" x="531.434413" xlink:href="#C0_0_553cdcc5e1" y="279.09023"/>
    </g>
    <g clip-path="url(#p7fcec45a2e)">
     <use style="fill:#ffffff;stroke:#ffffff;" x="316.932895" xlink:href="#C0_0_553cdcc5e1" y="14.243103"/>
    </g>
    <g clip-path="url(#p7fcec45a2e)">
     <use style="fill:#ffffff;stroke:#ffffff;" x="316.932895" xlink:href="#C0_0_553cdcc5e1" y="60.631983"/>
    </g>
    <g clip-path="url(#p7fcec45a2e)">
     <use style="fill:#ffffff;stroke:#ffffff;" x="77.856735" xlink:href="#C0_0_553cdcc5e1" y="105.869358"/>
    </g>
    <g clip-path="url(#p7fcec45a2e)">
     <use style="fill:#ffffff;stroke:#ffffff;" x="379.773765" xlink:href="#C0_0_553cdcc5e1" y="236.291596"/>
    </g>
    <g clip-path="url(#p7fcec45a2e)">
     <use style="fill:#ffffff;stroke:#ffffff;" x="480.880863" xlink:href="#C0_0_553cdcc5e1" y="193.492963"/>
    </g>
    <g clip-path="url(#p7fcec45a2e)">
     <use style="fill:#ffffff;stroke:#ffffff;" x="430.327314" xlink:href="#C0_0_553cdcc5e1" y="236.291596"/>
    </g>
    <g clip-path="url(#p7fcec45a2e)">
     <use style="fill:#ffffff;stroke:#ffffff;" x="480.880863" xlink:href="#C0_0_553cdcc5e1" y="236.291596"/>
    </g>
    <g clip-path="url(#p7fcec45a2e)">
     <use style="fill:#ffffff;stroke:#ffffff;" x="25.898921" xlink:href="#C0_0_553cdcc5e1" y="236.291596"/>
    </g>
    <g clip-path="url(#p7fcec45a2e)">
     <use style="fill:#ffffff;stroke:#ffffff;" x="131.218815" xlink:href="#C0_0_553cdcc5e1" y="150.098953"/>
    </g>
    <g clip-path="url(#p7fcec45a2e)">
     <use style="fill:#ffffff;stroke:#ffffff;" x="127.006019" xlink:href="#C0_0_553cdcc5e1" y="236.291596"/>
    </g>
    <g clip-path="url(#p7fcec45a2e)">
     <use style="fill:#ffffff;stroke:#ffffff;" x="240.751505" xlink:href="#C0_0_553cdcc5e1" y="193.492963"/>
    </g>
    <g clip-path="url(#p7fcec45a2e)">
     <use style="fill:#ffffff;stroke:#ffffff;" x="202.836343" xlink:href="#C0_0_553cdcc5e1" y="236.291596"/>
    </g>
    <g clip-path="url(#p7fcec45a2e)">
     <use style="fill:#ffffff;stroke:#ffffff;" x="278.666667" xlink:href="#C0_0_553cdcc5e1" y="236.291596"/>
    </g>
    <g clip-path="url(#p7fcec45a2e)">
     <use style="fill:#ffffff;stroke:#ffffff;" x="76.45247" xlink:href="#C0_0_553cdcc5e1" y="236.291596"/>
    </g>
    <g clip-path="url(#p7fcec45a2e)">
     <use style="fill:#ffffff;stroke:#ffffff;" x="329.220216" xlink:href="#C0_0_553cdcc5e1" y="236.291596"/>
    </g>
    <g clip-path="url(#p7fcec45a2e)">
     <use style="fill:#ffffff;stroke:#ffffff;" x="531.434413" xlink:href="#C0_0_553cdcc5e1" y="236.291596"/>
    </g>
   </g>
   <g id="text_28">
    <g clip-path="url(#p7fcec45a2e)">
     <!-- Conseil -->
     <defs>
      <path d="M 30.609375 48.390625 
Q 23.390625 48.390625 19.1875 42.75 
Q 14.984375 37.109375 14.984375 27.296875 
Q 14.984375 17.484375 19.15625 11.84375 
Q 23.34375 6.203125 30.609375 6.203125 
Q 37.796875 6.203125 41.984375 11.859375 
Q 46.1875 17.53125 46.1875 27.296875 
Q 46.1875 37.015625 41.984375 42.703125 
Q 37.796875 48.390625 30.609375 48.390625 
z
M 30.609375 56 
Q 42.328125 56 49.015625 48.375 
Q 55.71875 40.765625 55.71875 27.296875 
Q 55.71875 13.875 49.015625 6.21875 
Q 42.328125 -1.421875 30.609375 -1.421875 
Q 18.84375 -1.421875 12.171875 6.21875 
Q 5.515625 13.875 5.515625 27.296875 
Q 5.515625 40.765625 12.171875 48.375 
Q 18.84375 56 30.609375 56 
z
" id="DejaVuSans-111"/>
      <path d="M 44.28125 53.078125 
L 44.28125 44.578125 
Q 40.484375 46.53125 36.375 47.5 
Q 32.28125 48.484375 27.875 48.484375 
Q 21.1875 48.484375 17.84375 46.4375 
Q 14.5 44.390625 14.5 40.28125 
Q 14.5 37.15625 16.890625 35.375 
Q 19.28125 33.59375 26.515625 31.984375 
L 29.59375 31.296875 
Q 39.15625 29.25 43.1875 25.515625 
Q 47.21875 21.78125 47.21875 15.09375 
Q 47.21875 7.46875 41.1875 3.015625 
Q 35.15625 -1.421875 24.609375 -1.421875 
Q 20.21875 -1.421875 15.453125 -0.5625 
Q 10.6875 0.296875 5.421875 2 
L 5.421875 11.28125 
Q 10.40625 8.6875 15.234375 7.390625 
Q 20.0625 6.109375 24.8125 6.109375 
Q 31.15625 6.109375 34.5625 8.28125 
Q 37.984375 10.453125 37.984375 14.40625 
Q 37.984375 18.0625 35.515625 20.015625 
Q 33.0625 21.96875 24.703125 23.78125 
L 21.578125 24.515625 
Q 13.234375 26.265625 9.515625 29.90625 
Q 5.8125 33.546875 5.8125 39.890625 
Q 5.8125 47.609375 11.28125 51.796875 
Q 16.75 56 26.8125 56 
Q 31.78125 56 36.171875 55.265625 
Q 40.578125 54.546875 44.28125 53.078125 
z
" id="DejaVuSans-115"/>
     </defs>
     <g transform="translate(7.720015 281.849605)scale(0.1 -0.1)">
      <use xlink:href="#DejaVuSans-67"/>
      <use x="69.824219" xlink:href="#DejaVuSans-111"/>
      <use x="131.005859" xlink:href="#DejaVuSans-110"/>
      <use x="194.384766" xlink:href="#DejaVuSans-115"/>
      <use x="246.484375" xlink:href="#DejaVuSans-101"/>
      <use x="308.007812" xlink:href="#DejaVuSans-105"/>
      <use x="335.791016" xlink:href="#DejaVuSans-108"/>
     </g>
    </g>
   </g>
   <g id="text_29">
    <g clip-path="url(#p7fcec45a2e)">
     <!-- , -->
     <defs>
      <path d="M 11.71875 12.40625 
L 22.015625 12.40625 
L 22.015625 4 
L 14.015625 -11.625 
L 7.71875 -11.625 
L 11.71875 4 
z
" id="DejaVuSans-44"/>
     </defs>
     <g transform="translate(74.863407 281.849605)scale(0.1 -0.1)">
      <use xlink:href="#DejaVuSans-44"/>
     </g>
    </g>
   </g>
   <g id="text_30">
    <g clip-path="url(#p7fcec45a2e)">
     <!-- posté -->
     <defs>
      <path d="M 18.109375 8.203125 
L 18.109375 -20.796875 
L 9.078125 -20.796875 
L 9.078125 54.6875 
L 18.109375 54.6875 
L 18.109375 46.390625 
Q 20.953125 51.265625 25.265625 53.625 
Q 29.59375 56 35.59375 56 
Q 45.5625 56 51.78125 48.09375 
Q 58.015625 40.1875 58.015625 27.296875 
Q 58.015625 14.40625 51.78125 6.484375 
Q 45.5625 -1.421875 35.59375 -1.421875 
Q 29.59375 -1.421875 25.265625 0.953125 
Q 20.953125 3.328125 18.109375 8.203125 
z
M 48.6875 27.296875 
Q 48.6875 37.203125 44.609375 42.84375 
Q 40.53125 48.484375 33.40625 48.484375 
Q 26.265625 48.484375 22.1875 42.84375 
Q 18.109375 37.203125 18.109375 27.296875 
Q 18.109375 17.390625 22.1875 11.75 
Q 26.265625 6.109375 33.40625 6.109375 
Q 40.53125 6.109375 44.609375 11.75 
Q 48.6875 17.390625 48.6875 27.296875 
z
" id="DejaVuSans-112"/>
      <path d="M 18.3125 70.21875 
L 18.3125 54.6875 
L 36.8125 54.6875 
L 36.8125 47.703125 
L 18.3125 47.703125 
L 18.3125 18.015625 
Q 18.3125 11.328125 20.140625 9.421875 
Q 21.96875 7.515625 27.59375 7.515625 
L 36.8125 7.515625 
L 36.8125 0 
L 27.59375 0 
Q 17.1875 0 13.234375 3.875 
Q 9.28125 7.765625 9.28125 18.015625 
L 9.28125 47.703125 
L 2.6875 47.703125 
L 2.6875 54.6875 
L 9.28125 54.6875 
L 9.28125 70.21875 
z
" id="DejaVuSans-116"/>
      <path d="M 56.203125 29.59375 
L 56.203125 25.203125 
L 14.890625 25.203125 
Q 15.484375 15.921875 20.484375 11.0625 
Q 25.484375 6.203125 34.421875 6.203125 
Q 39.59375 6.203125 44.453125 7.46875 
Q 49.3125 8.734375 54.109375 11.28125 
L 54.109375 2.78125 
Q 49.265625 0.734375 44.1875 -0.34375 
Q 39.109375 -1.421875 33.890625 -1.421875 
Q 20.796875 -1.421875 13.15625 6.1875 
Q 5.515625 13.8125 5.515625 26.8125 
Q 5.515625 40.234375 12.765625 48.109375 
Q 20.015625 56 32.328125 56 
Q 43.359375 56 49.78125 48.890625 
Q 56.203125 41.796875 56.203125 29.59375 
z
M 47.21875 32.234375 
Q 47.125 39.59375 43.09375 43.984375 
Q 39.0625 48.390625 32.421875 48.390625 
Q 24.90625 48.390625 20.390625 44.140625 
Q 15.875 39.890625 15.1875 32.171875 
z
M 38.53125 79.984375 
L 48.25 79.984375 
L 32.34375 61.625 
L 24.859375 61.625 
z
" id="DejaVuSans-233"/>
     </defs>
     <g transform="translate(113.131019 282.049605)scale(0.1 -0.1)">
      <use xlink:href="#DejaVuSans-112"/>
      <use x="63.476562" xlink:href="#DejaVuSans-111"/>
      <use x="124.658203" xlink:href="#DejaVuSans-115"/>
      <use x="176.757812" xlink:href="#DejaVuSans-116"/>
      <use x="215.966797" xlink:href="#DejaVuSans-233"/>
     </g>
    </g>
   </g>
   <g id="text_31">
    <g clip-path="url(#p7fcec45a2e)">
     <!-- près -->
     <defs>
      <path d="M 56.203125 29.59375 
L 56.203125 25.203125 
L 14.890625 25.203125 
Q 15.484375 15.921875 20.484375 11.0625 
Q 25.484375 6.203125 34.421875 6.203125 
Q 39.59375 6.203125 44.453125 7.46875 
Q 49.3125 8.734375 54.109375 11.28125 
L 54.109375 2.78125 
Q 49.265625 0.734375 44.1875 -0.34375 
Q 39.109375 -1.421875 33.890625 -1.421875 
Q 20.796875 -1.421875 13.15625 6.1875 
Q 5.515625 13.8125 5.515625 26.8125 
Q 5.515625 40.234375 12.765625 48.109375 
Q 20.015625 56 32.328125 56 
Q 43.359375 56 49.78125 48.890625 
Q 56.203125 41.796875 56.203125 29.59375 
z
M 47.21875 32.234375 
Q 47.125 39.59375 43.09375 43.984375 
Q 39.0625 48.390625 32.421875 48.390625 
Q 24.90625 48.390625 20.390625 44.140625 
Q 15.875 39.890625 15.1875 32.171875 
z
M 24.671875 79.984375 
L 38.4375 61.71875 
L 30.96875 61.71875 
L 15.046875 79.984375 
z
" id="DejaVuSans-232"/>
     </defs>
     <g transform="translate(166.650193 282.049605)scale(0.1 -0.1)">
      <use xlink:href="#DejaVuSans-112"/>
      <use x="63.476562" xlink:href="#DejaVuSans-114"/>
      <use x="104.558594" xlink:href="#DejaVuSans-232"/>
      <use x="166.082031" xlink:href="#DejaVuSans-115"/>
     </g>
    </g>
   </g>
   <g id="text_32">
    <g clip-path="url(#p7fcec45a2e)">
     <!-- de -->
     <defs>
      <path d="M 45.40625 46.390625 
L 45.40625 75.984375 
L 54.390625 75.984375 
L 54.390625 0 
L 45.40625 0 
L 45.40625 8.203125 
Q 42.578125 3.328125 38.25 0.953125 
Q 33.9375 -1.421875 27.875 -1.421875 
Q 17.96875 -1.421875 11.734375 6.484375 
Q 5.515625 14.40625 5.515625 27.296875 
Q 5.515625 40.1875 11.734375 48.09375 
Q 17.96875 56 27.875 56 
Q 33.9375 56 38.25 53.625 
Q 42.578125 51.265625 45.40625 46.390625 
z
M 14.796875 27.296875 
Q 14.796875 17.390625 18.875 11.75 
Q 22.953125 6.109375 30.078125 6.109375 
Q 37.203125 6.109375 41.296875 11.75 
Q 45.40625 17.390625 45.40625 27.296875 
Q 45.40625 37.203125 41.296875 42.84375 
Q 37.203125 48.484375 30.078125 48.484375 
Q 22.953125 48.484375 18.875 42.84375 
Q 14.796875 37.203125 14.796875 27.296875 
z
" id="DejaVuSans-100"/>
     </defs>
     <g transform="translate(221.862336 281.849605)scale(0.1 -0.1)">
      <use xlink:href="#DejaVuSans-100"/>
      <use x="63.476562" xlink:href="#DejaVuSans-101"/>
     </g>
    </g>
   </g>
   <g id="text_33">
    <g clip-path="url(#p7fcec45a2e)">
     <!-- moi -->
     <g transform="translate(269.347917 281.849605)scale(0.1 -0.1)">
      <use xlink:href="#DejaVuSans-109"/>
      <use x="97.412109" xlink:href="#DejaVuSans-111"/>
      <use x="158.59375" xlink:href="#DejaVuSans-105"/>
     </g>
    </g>
   </g>
   <g id="text_34">
    <g clip-path="url(#p7fcec45a2e)">
     <!-- , -->
     <g transform="translate(327.631153 281.849605)scale(0.1 -0.1)">
      <use xlink:href="#DejaVuSans-44"/>
     </g>
    </g>
   </g>
   <g id="text_35">
    <g clip-path="url(#p7fcec45a2e)">
     <!-- regardait -->
     <defs>
      <path d="M 45.40625 27.984375 
Q 45.40625 37.75 41.375 43.109375 
Q 37.359375 48.484375 30.078125 48.484375 
Q 22.859375 48.484375 18.828125 43.109375 
Q 14.796875 37.75 14.796875 27.984375 
Q 14.796875 18.265625 18.828125 12.890625 
Q 22.859375 7.515625 30.078125 7.515625 
Q 37.359375 7.515625 41.375 12.890625 
Q 45.40625 18.265625 45.40625 27.984375 
z
M 54.390625 6.78125 
Q 54.390625 -7.171875 48.1875 -13.984375 
Q 42 -20.796875 29.203125 -20.796875 
Q 24.46875 -20.796875 20.265625 -20.09375 
Q 16.0625 -19.390625 12.109375 -17.921875 
L 12.109375 -9.1875 
Q 16.0625 -11.328125 19.921875 -12.34375 
Q 23.78125 -13.375 27.78125 -13.375 
Q 36.625 -13.375 41.015625 -8.765625 
Q 45.40625 -4.15625 45.40625 5.171875 
L 45.40625 9.625 
Q 42.625 4.78125 38.28125 2.390625 
Q 33.9375 0 27.875 0 
Q 17.828125 0 11.671875 7.65625 
Q 5.515625 15.328125 5.515625 27.984375 
Q 5.515625 40.671875 11.671875 48.328125 
Q 17.828125 56 27.875 56 
Q 33.9375 56 38.28125 53.609375 
Q 42.625 51.21875 45.40625 46.390625 
L 45.40625 54.6875 
L 54.390625 54.6875 
z
" id="DejaVuSans-103"/>
     </defs>
     <g transform="translate(356.762828 281.849605)scale(0.1 -0.1)">
      <use xlink:href="#DejaVuSans-114"/>
      <use x="41.082031" xlink:href="#DejaVuSans-101"/>
      <use x="102.605469" xlink:href="#DejaVuSans-103"/>
      <use x="166.082031" xlink:href="#DejaVuSans-97"/>
      <use x="227.361328" xlink:href="#DejaVuSans-114"/>
      <use x="268.458984" xlink:href="#DejaVuSans-100"/>
      <use x="331.935547" xlink:href="#DejaVuSans-97"/>
      <use x="393.214844" xlink:href="#DejaVuSans-105"/>
      <use x="420.998047" xlink:href="#DejaVuSans-116"/>
     </g>
    </g>
   </g>
   <g id="text_36">
    <g clip-path="url(#p7fcec45a2e)">
     <!-- devant -->
     <defs>
      <path d="M 2.984375 54.6875 
L 12.5 54.6875 
L 29.59375 8.796875 
L 46.6875 54.6875 
L 56.203125 54.6875 
L 35.6875 0 
L 23.484375 0 
z
" id="DejaVuSans-118"/>
     </defs>
     <g transform="translate(412.924189 281.849605)scale(0.1 -0.1)">
      <use xlink:href="#DejaVuSans-100"/>
      <use x="63.476562" xlink:href="#DejaVuSans-101"/>
      <use x="125" xlink:href="#DejaVuSans-118"/>
      <use x="184.179688" xlink:href="#DejaVuSans-97"/>
      <use x="245.458984" xlink:href="#DejaVuSans-110"/>
      <use x="308.837891" xlink:href="#DejaVuSans-116"/>
     </g>
    </g>
   </g>
   <g id="text_37">
    <g clip-path="url(#p7fcec45a2e)">
     <!-- lui -->
     <defs>
      <path d="M 8.5 21.578125 
L 8.5 54.6875 
L 17.484375 54.6875 
L 17.484375 21.921875 
Q 17.484375 14.15625 20.5 10.265625 
Q 23.53125 6.390625 29.59375 6.390625 
Q 36.859375 6.390625 41.078125 11.03125 
Q 45.3125 15.671875 45.3125 23.6875 
L 45.3125 54.6875 
L 54.296875 54.6875 
L 54.296875 0 
L 45.3125 0 
L 45.3125 8.40625 
Q 42.046875 3.421875 37.71875 1 
Q 33.40625 -1.421875 27.6875 -1.421875 
Q 18.265625 -1.421875 13.375 4.4375 
Q 8.5 10.296875 8.5 21.578125 
z
M 31.109375 56 
z
" id="DejaVuSans-117"/>
     </defs>
     <g transform="translate(474.933988 281.849605)scale(0.1 -0.1)">
      <use xlink:href="#DejaVuSans-108"/>
      <use x="27.783203" xlink:href="#DejaVuSans-117"/>
      <use x="91.162109" xlink:href="#DejaVuSans-105"/>
     </g>
    </g>
   </g>
   <g id="text_38">
    <g clip-path="url(#p7fcec45a2e)">
     <!-- . -->
     <defs>
      <path d="M 10.6875 12.40625 
L 21 12.40625 
L 21 0 
L 10.6875 0 
z
" id="DejaVuSans-46"/>
     </defs>
     <g transform="translate(529.84535 281.849605)scale(0.1 -0.1)">
      <use xlink:href="#DejaVuSans-46"/>
     </g>
    </g>
   </g>
   <g id="text_39">
    <g clip-path="url(#p7fcec45a2e)">
     <!-- 1.1 -->
     <defs>
      <path d="M 12.40625 8.296875 
L 28.515625 8.296875 
L 28.515625 63.921875 
L 10.984375 60.40625 
L 10.984375 69.390625 
L 28.421875 72.90625 
L 38.28125 72.90625 
L 38.28125 8.296875 
L 54.390625 8.296875 
L 54.390625 0 
L 12.40625 0 
z
" id="DejaVuSans-49"/>
     </defs>
     <g transform="translate(308.981332 17.002478)scale(0.1 -0.1)">
      <use xlink:href="#DejaVuSans-49"/>
      <use x="63.623047" xlink:href="#DejaVuSans-46"/>
      <use x="95.410156" xlink:href="#DejaVuSans-49"/>
     </g>
    </g>
   </g>
   <g id="text_40">
    <g clip-path="url(#p7fcec45a2e)">
     <!-- 1.2 -->
     <defs>
      <path d="M 19.1875 8.296875 
L 53.609375 8.296875 
L 53.609375 0 
L 7.328125 0 
L 7.328125 8.296875 
Q 12.9375 14.109375 22.625 23.890625 
Q 32.328125 33.6875 34.8125 36.53125 
Q 39.546875 41.84375 41.421875 45.53125 
Q 43.3125 49.21875 43.3125 52.78125 
Q 43.3125 58.59375 39.234375 62.25 
Q 35.15625 65.921875 28.609375 65.921875 
Q 23.96875 65.921875 18.8125 64.3125 
Q 13.671875 62.703125 7.8125 59.421875 
L 7.8125 69.390625 
Q 13.765625 71.78125 18.9375 73 
Q 24.125 74.21875 28.421875 74.21875 
Q 39.75 74.21875 46.484375 68.546875 
Q 53.21875 62.890625 53.21875 53.421875 
Q 53.21875 48.921875 51.53125 44.890625 
Q 49.859375 40.875 45.40625 35.40625 
Q 44.1875 33.984375 37.640625 27.21875 
Q 31.109375 20.453125 19.1875 8.296875 
z
" id="DejaVuSans-50"/>
     </defs>
     <g transform="translate(308.981332 63.391358)scale(0.1 -0.1)">
      <use xlink:href="#DejaVuSans-49"/>
      <use x="63.623047" xlink:href="#DejaVuSans-46"/>
      <use x="95.410156" xlink:href="#DejaVuSans-50"/>
     </g>
    </g>
   </g>
   <g id="text_41">
    <g clip-path="url(#p7fcec45a2e)">
     <!-- 1.4 -->
     <defs>
      <path d="M 37.796875 64.3125 
L 12.890625 25.390625 
L 37.796875 25.390625 
z
M 35.203125 72.90625 
L 47.609375 72.90625 
L 47.609375 25.390625 
L 58.015625 25.390625 
L 58.015625 17.1875 
L 47.609375 17.1875 
L 47.609375 0 
L 37.796875 0 
L 37.796875 17.1875 
L 4.890625 17.1875 
L 4.890625 26.703125 
z
" id="DejaVuSans-52"/>
     </defs>
     <g transform="translate(69.905173 108.628733)scale(0.1 -0.1)">
      <use xlink:href="#DejaVuSans-49"/>
      <use x="63.623047" xlink:href="#DejaVuSans-46"/>
      <use x="95.410156" xlink:href="#DejaVuSans-52"/>
     </g>
    </g>
   </g>
   <g id="text_42">
    <g clip-path="url(#p7fcec45a2e)">
     <!-- 1.5 -->
     <defs>
      <path d="M 10.796875 72.90625 
L 49.515625 72.90625 
L 49.515625 64.59375 
L 19.828125 64.59375 
L 19.828125 46.734375 
Q 21.96875 47.46875 24.109375 47.828125 
Q 26.265625 48.1875 28.421875 48.1875 
Q 40.625 48.1875 47.75 41.5 
Q 54.890625 34.8125 54.890625 23.390625 
Q 54.890625 11.625 47.5625 5.09375 
Q 40.234375 -1.421875 26.90625 -1.421875 
Q 22.3125 -1.421875 17.546875 -0.640625 
Q 12.796875 0.140625 7.71875 1.703125 
L 7.71875 11.625 
Q 12.109375 9.234375 16.796875 8.0625 
Q 21.484375 6.890625 26.703125 6.890625 
Q 35.15625 6.890625 40.078125 11.328125 
Q 45.015625 15.765625 45.015625 23.390625 
Q 45.015625 31 40.078125 35.4375 
Q 35.15625 39.890625 26.703125 39.890625 
Q 22.75 39.890625 18.8125 39.015625 
Q 14.890625 38.140625 10.796875 36.28125 
z
" id="DejaVuSans-53"/>
     </defs>
     <g transform="translate(371.822203 239.050971)scale(0.1 -0.1)">
      <use xlink:href="#DejaVuSans-49"/>
      <use x="63.623047" xlink:href="#DejaVuSans-46"/>
      <use x="95.410156" xlink:href="#DejaVuSans-53"/>
     </g>
    </g>
   </g>
   <g id="text_43">
    <g clip-path="url(#p7fcec45a2e)">
     <!-- 1.6 -->
     <defs>
      <path d="M 33.015625 40.375 
Q 26.375 40.375 22.484375 35.828125 
Q 18.609375 31.296875 18.609375 23.390625 
Q 18.609375 15.53125 22.484375 10.953125 
Q 26.375 6.390625 33.015625 6.390625 
Q 39.65625 6.390625 43.53125 10.953125 
Q 47.40625 15.53125 47.40625 23.390625 
Q 47.40625 31.296875 43.53125 35.828125 
Q 39.65625 40.375 33.015625 40.375 
z
M 52.59375 71.296875 
L 52.59375 62.3125 
Q 48.875 64.0625 45.09375 64.984375 
Q 41.3125 65.921875 37.59375 65.921875 
Q 27.828125 65.921875 22.671875 59.328125 
Q 17.53125 52.734375 16.796875 39.40625 
Q 19.671875 43.65625 24.015625 45.921875 
Q 28.375 48.1875 33.59375 48.1875 
Q 44.578125 48.1875 50.953125 41.515625 
Q 57.328125 34.859375 57.328125 23.390625 
Q 57.328125 12.15625 50.6875 5.359375 
Q 44.046875 -1.421875 33.015625 -1.421875 
Q 20.359375 -1.421875 13.671875 8.265625 
Q 6.984375 17.96875 6.984375 36.375 
Q 6.984375 53.65625 15.1875 63.9375 
Q 23.390625 74.21875 37.203125 74.21875 
Q 40.921875 74.21875 44.703125 73.484375 
Q 48.484375 72.75 52.59375 71.296875 
z
" id="DejaVuSans-54"/>
     </defs>
     <g transform="translate(472.929301 196.252338)scale(0.1 -0.1)">
      <use xlink:href="#DejaVuSans-49"/>
      <use x="63.623047" xlink:href="#DejaVuSans-46"/>
      <use x="95.410156" xlink:href="#DejaVuSans-54"/>
     </g>
    </g>
   </g>
   <g id="text_44">
    <g clip-path="url(#p7fcec45a2e)">
     <!-- 1.8 -->
     <defs>
      <path d="M 31.78125 34.625 
Q 24.75 34.625 20.71875 30.859375 
Q 16.703125 27.09375 16.703125 20.515625 
Q 16.703125 13.921875 20.71875 10.15625 
Q 24.75 6.390625 31.78125 6.390625 
Q 38.8125 6.390625 42.859375 10.171875 
Q 46.921875 13.96875 46.921875 20.515625 
Q 46.921875 27.09375 42.890625 30.859375 
Q 38.875 34.625 31.78125 34.625 
z
M 21.921875 38.8125 
Q 15.578125 40.375 12.03125 44.71875 
Q 8.5 49.078125 8.5 55.328125 
Q 8.5 64.0625 14.71875 69.140625 
Q 20.953125 74.21875 31.78125 74.21875 
Q 42.671875 74.21875 48.875 69.140625 
Q 55.078125 64.0625 55.078125 55.328125 
Q 55.078125 49.078125 51.53125 44.71875 
Q 48 40.375 41.703125 38.8125 
Q 48.828125 37.15625 52.796875 32.3125 
Q 56.78125 27.484375 56.78125 20.515625 
Q 56.78125 9.90625 50.3125 4.234375 
Q 43.84375 -1.421875 31.78125 -1.421875 
Q 19.734375 -1.421875 13.25 4.234375 
Q 6.78125 9.90625 6.78125 20.515625 
Q 6.78125 27.484375 10.78125 32.3125 
Q 14.796875 37.15625 21.921875 38.8125 
z
M 18.3125 54.390625 
Q 18.3125 48.734375 21.84375 45.5625 
Q 25.390625 42.390625 31.78125 42.390625 
Q 38.140625 42.390625 41.71875 45.5625 
Q 45.3125 48.734375 45.3125 54.390625 
Q 45.3125 60.0625 41.71875 63.234375 
Q 38.140625 66.40625 31.78125 66.40625 
Q 25.390625 66.40625 21.84375 63.234375 
Q 18.3125 60.0625 18.3125 54.390625 
z
" id="DejaVuSans-56"/>
     </defs>
     <g transform="translate(422.375752 239.050971)scale(0.1 -0.1)">
      <use xlink:href="#DejaVuSans-49"/>
      <use x="63.623047" xlink:href="#DejaVuSans-46"/>
      <use x="95.410156" xlink:href="#DejaVuSans-56"/>
     </g>
    </g>
   </g>
   <g id="text_45">
    <g clip-path="url(#p7fcec45a2e)">
     <!-- 1.9 -->
     <defs>
      <path d="M 10.984375 1.515625 
L 10.984375 10.5 
Q 14.703125 8.734375 18.5 7.8125 
Q 22.3125 6.890625 25.984375 6.890625 
Q 35.75 6.890625 40.890625 13.453125 
Q 46.046875 20.015625 46.78125 33.40625 
Q 43.953125 29.203125 39.59375 26.953125 
Q 35.25 24.703125 29.984375 24.703125 
Q 19.046875 24.703125 12.671875 31.3125 
Q 6.296875 37.9375 6.296875 49.421875 
Q 6.296875 60.640625 12.9375 67.421875 
Q 19.578125 74.21875 30.609375 74.21875 
Q 43.265625 74.21875 49.921875 64.515625 
Q 56.59375 54.828125 56.59375 36.375 
Q 56.59375 19.140625 48.40625 8.859375 
Q 40.234375 -1.421875 26.421875 -1.421875 
Q 22.703125 -1.421875 18.890625 -0.6875 
Q 15.09375 0.046875 10.984375 1.515625 
z
M 30.609375 32.421875 
Q 37.25 32.421875 41.125 36.953125 
Q 45.015625 41.5 45.015625 49.421875 
Q 45.015625 57.28125 41.125 61.84375 
Q 37.25 66.40625 30.609375 66.40625 
Q 23.96875 66.40625 20.09375 61.84375 
Q 16.21875 57.28125 16.21875 49.421875 
Q 16.21875 41.5 20.09375 36.953125 
Q 23.96875 32.421875 30.609375 32.421875 
z
" id="DejaVuSans-57"/>
     </defs>
     <g transform="translate(472.929301 239.050971)scale(0.1 -0.1)">
      <use xlink:href="#DejaVuSans-49"/>
      <use x="63.623047" xlink:href="#DejaVuSans-46"/>
      <use x="95.410156" xlink:href="#DejaVuSans-57"/>
     </g>
    </g>
   </g>
   <g id="text_46">
    <g clip-path="url(#p7fcec45a2e)">
     <!-- 1.10 -->
     <defs>
      <path d="M 31.78125 66.40625 
Q 24.171875 66.40625 20.328125 58.90625 
Q 16.5 51.421875 16.5 36.375 
Q 16.5 21.390625 20.328125 13.890625 
Q 24.171875 6.390625 31.78125 6.390625 
Q 39.453125 6.390625 43.28125 13.890625 
Q 47.125 21.390625 47.125 36.375 
Q 47.125 51.421875 43.28125 58.90625 
Q 39.453125 66.40625 31.78125 66.40625 
z
M 31.78125 74.21875 
Q 44.046875 74.21875 50.515625 64.515625 
Q 56.984375 54.828125 56.984375 36.375 
Q 56.984375 17.96875 50.515625 8.265625 
Q 44.046875 -1.421875 31.78125 -1.421875 
Q 19.53125 -1.421875 13.0625 8.265625 
Q 6.59375 17.96875 6.59375 36.375 
Q 6.59375 54.828125 13.0625 64.515625 
Q 19.53125 74.21875 31.78125 74.21875 
z
" id="DejaVuSans-48"/>
     </defs>
     <g transform="translate(14.766108 239.050971)scale(0.1 -0.1)">
      <use xlink:href="#DejaVuSans-49"/>
      <use x="63.623047" xlink:href="#DejaVuSans-46"/>
      <use x="95.410156" xlink:href="#DejaVuSans-49"/>
      <use x="159.033203" xlink:href="#DejaVuSans-48"/>
     </g>
    </g>
   </g>
   <g id="text_47">
    <g clip-path="url(#p7fcec45a2e)">
     <!-- 1.11 -->
     <g transform="translate(120.086002 152.858328)scale(0.1 -0.1)">
      <use xlink:href="#DejaVuSans-49"/>
      <use x="63.623047" xlink:href="#DejaVuSans-46"/>
      <use x="95.410156" xlink:href="#DejaVuSans-49"/>
      <use x="159.033203" xlink:href="#DejaVuSans-49"/>
     </g>
    </g>
   </g>
   <g id="text_48">
    <g clip-path="url(#p7fcec45a2e)">
     <!-- 1.13 -->
     <defs>
      <path d="M 40.578125 39.3125 
Q 47.65625 37.796875 51.625 33 
Q 55.609375 28.21875 55.609375 21.1875 
Q 55.609375 10.40625 48.1875 4.484375 
Q 40.765625 -1.421875 27.09375 -1.421875 
Q 22.515625 -1.421875 17.65625 -0.515625 
Q 12.796875 0.390625 7.625 2.203125 
L 7.625 11.71875 
Q 11.71875 9.328125 16.59375 8.109375 
Q 21.484375 6.890625 26.8125 6.890625 
Q 36.078125 6.890625 40.9375 10.546875 
Q 45.796875 14.203125 45.796875 21.1875 
Q 45.796875 27.640625 41.28125 31.265625 
Q 36.765625 34.90625 28.71875 34.90625 
L 20.21875 34.90625 
L 20.21875 43.015625 
L 29.109375 43.015625 
Q 36.375 43.015625 40.234375 45.921875 
Q 44.09375 48.828125 44.09375 54.296875 
Q 44.09375 59.90625 40.109375 62.90625 
Q 36.140625 65.921875 28.71875 65.921875 
Q 24.65625 65.921875 20.015625 65.03125 
Q 15.375 64.15625 9.8125 62.3125 
L 9.8125 71.09375 
Q 15.4375 72.65625 20.34375 73.4375 
Q 25.25 74.21875 29.59375 74.21875 
Q 40.828125 74.21875 47.359375 69.109375 
Q 53.90625 64.015625 53.90625 55.328125 
Q 53.90625 49.265625 50.4375 45.09375 
Q 46.96875 40.921875 40.578125 39.3125 
z
" id="DejaVuSans-51"/>
     </defs>
     <g transform="translate(115.873207 239.050971)scale(0.1 -0.1)">
      <use xlink:href="#DejaVuSans-49"/>
      <use x="63.623047" xlink:href="#DejaVuSans-46"/>
      <use x="95.410156" xlink:href="#DejaVuSans-49"/>
      <use x="159.033203" xlink:href="#DejaVuSans-51"/>
     </g>
    </g>
   </g>
   <g id="text_49">
    <g clip-path="url(#p7fcec45a2e)">
     <!-- 1.14 -->
     <g transform="translate(229.618692 196.252338)scale(0.1 -0.1)">
      <use xlink:href="#DejaVuSans-49"/>
      <use x="63.623047" xlink:href="#DejaVuSans-46"/>
      <use x="95.410156" xlink:href="#DejaVuSans-49"/>
      <use x="159.033203" xlink:href="#DejaVuSans-52"/>
     </g>
    </g>
   </g>
   <g id="text_50">
    <g clip-path="url(#p7fcec45a2e)">
     <!-- 1.15 -->
     <g transform="translate(191.70353 239.050971)scale(0.1 -0.1)">
      <use xlink:href="#DejaVuSans-49"/>
      <use x="63.623047" xlink:href="#DejaVuSans-46"/>
      <use x="95.410156" xlink:href="#DejaVuSans-49"/>
      <use x="159.033203" xlink:href="#DejaVuSans-53"/>
     </g>
    </g>
   </g>
   <g id="text_51">
    <g clip-path="url(#p7fcec45a2e)">
     <!-- 1.16 -->
     <g transform="translate(267.533854 239.050971)scale(0.1 -0.1)">
      <use xlink:href="#DejaVuSans-49"/>
      <use x="63.623047" xlink:href="#DejaVuSans-46"/>
      <use x="95.410156" xlink:href="#DejaVuSans-49"/>
      <use x="159.033203" xlink:href="#DejaVuSans-54"/>
     </g>
    </g>
   </g>
   <g id="text_52">
    <g clip-path="url(#p7fcec45a2e)">
     <!-- 1.17 -->
     <defs>
      <path d="M 8.203125 72.90625 
L 55.078125 72.90625 
L 55.078125 68.703125 
L 28.609375 0 
L 18.3125 0 
L 43.21875 64.59375 
L 8.203125 64.59375 
z
" id="DejaVuSans-55"/>
     </defs>
     <g transform="translate(65.319657 239.050971)scale(0.1 -0.1)">
      <use xlink:href="#DejaVuSans-49"/>
      <use x="63.623047" xlink:href="#DejaVuSans-46"/>
      <use x="95.410156" xlink:href="#DejaVuSans-49"/>
      <use x="159.033203" xlink:href="#DejaVuSans-55"/>
     </g>
    </g>
   </g>
   <g id="text_53">
    <g clip-path="url(#p7fcec45a2e)">
     <!-- 1.18 -->
     <g transform="translate(318.087403 239.050971)scale(0.1 -0.1)">
      <use xlink:href="#DejaVuSans-49"/>
      <use x="63.623047" xlink:href="#DejaVuSans-46"/>
      <use x="95.410156" xlink:href="#DejaVuSans-49"/>
      <use x="159.033203" xlink:href="#DejaVuSans-56"/>
     </g>
    </g>
   </g>
   <g id="text_54">
    <g clip-path="url(#p7fcec45a2e)">
     <!-- 1.19 -->
     <g transform="translate(520.3016 239.050971)scale(0.1 -0.1)">
      <use xlink:href="#DejaVuSans-49"/>
      <use x="63.623047" xlink:href="#DejaVuSans-46"/>
      <use x="95.410156" xlink:href="#DejaVuSans-49"/>
      <use x="159.033203" xlink:href="#DejaVuSans-57"/>
     </g>
    </g>
   </g>
  </g>
 </g>
 <defs>
  <clipPath id="p7fcec45a2e">
   <rect height="293.333333" width="557.333333" x="0" y="0"/>
  </clipPath>
 </defs>
</svg>
