<?xml version="1.0" encoding="UTF-8"?>
<!DOCTYPE svg  PUBLIC '-//W3C//DTD SVG 1.1//EN'  'http://www.w3.org/Graphics/SVG/1.1/DTD/svg11.dtd'>
<svg width="2178.7pt" height="1146.7pt" version="1.1" viewBox="0 0 2178.7 1146.7" xmlns="http://www.w3.org/2000/svg" xmlns:xlink="http://www.w3.org/1999/xlink">
<defs>
<style type="text/css">*{stroke-linecap:butt;stroke-linejoin:round;}</style>
</defs>
<path d="m0 1146.7h2178.7v-1146.7h-2178.7z" fill="#fff"/>
<g fill="none" stroke="#000">
<path d="m364.92 52.121v150.29" clip-path="url(#a)"/>
<path d="m364.92 202.42 405.37 150.04" clip-path="url(#a)"/>
<path d="m364.92 202.42-115.39 746.08" clip-path="url(#a)"/>
<path d="m364.92 202.42-89.301 746.08" clip-path="url(#a)"/>
<path d="m364.92 202.42-139.47 746.08" clip-path="url(#a)"/>
<path d="m364.92 202.42-61.208 746.08" clip-path="url(#a)"/>
<path d="m770.29 352.46-642.04 299.1" clip-path="url(#a)"/>
<path d="m770.29 352.46-337.01 299.1" clip-path="url(#a)"/>
<path d="m770.29 352.46-75.269 596.04" clip-path="url(#a)"/>
<path d="m770.29 352.46 271.65 149.74" clip-path="url(#a)"/>
<path d="m770.29 352.46 990.41 447.96" clip-path="url(#a)"/>
<path d="m770.29 352.46-671.26 596.04" clip-path="url(#a)"/>
<path d="m770.29 352.46-123.43 596.04" clip-path="url(#a)"/>
<path d="m770.29 352.46 586.94 596.04" clip-path="url(#a)"/>
<path d="m249.53 948.5v146.05" clip-path="url(#a)"/>
<path d="m275.62 948.5v146.05" clip-path="url(#a)"/>
<path d="m128.25 651.56-23.197 296.94" clip-path="url(#a)"/>
<path d="m128.25 651.56-15.171 296.94" clip-path="url(#a)"/>
<path d="m128.25 651.56-5.1371 296.94" clip-path="url(#a)"/>
<path d="m128.25 651.56 6.903 296.94" clip-path="url(#a)"/>
<path d="m128.25 651.56 36.602 148.86" clip-path="url(#a)"/>
<path d="m433.28 651.56-99.465 296.94" clip-path="url(#a)"/>
<path d="m433.28 651.56-32.241 296.94" clip-path="url(#a)"/>
<path d="m433.28 651.56-33.244 296.94" clip-path="url(#a)"/>
<path d="m433.28 651.56 41.003 296.94" clip-path="url(#a)"/>
<path d="m433.28 651.56 123.95 148.86" clip-path="url(#a)"/>
<path d="m695.02 948.5v146.05" clip-path="url(#a)"/>
<path d="m1041.9 502.2-224.96 149.36" clip-path="url(#a)"/>
<path d="m1041.9 502.2-15.817 446.3" clip-path="url(#a)"/>
<path d="m1041.9 502.2 46.391 446.3" clip-path="url(#a)"/>
<path d="m1041.9 502.2 194.38 149.36" clip-path="url(#a)"/>
<path d="m1760.7 800.42-331.23 148.08" clip-path="url(#a)"/>
<path d="m1760.7 800.42-139.59 148.08" clip-path="url(#a)"/>
<path d="m1760.7 800.42-180.73 148.08" clip-path="url(#a)"/>
<path d="m1760.7 800.42-102.47 148.08" clip-path="url(#a)"/>
<path d="m1760.7 800.42 60.075 148.08" clip-path="url(#a)"/>
<path d="m1760.7 800.42 144.36 148.08" clip-path="url(#a)"/>
<path d="m1760.7 800.42 230.64 148.08" clip-path="url(#a)"/>
<path d="m1760.7 800.42 318.94 148.08" clip-path="url(#a)"/>
<path d="m1429.5 948.5v146.05" clip-path="url(#a)"/>
<path d="m1621.1 948.5-117.39 146.05" clip-path="url(#a)"/>
<path d="m1621.1 948.5 117.39 146.05" clip-path="url(#a)"/>
<path d="m1580 948.5v146.05" clip-path="url(#a)"/>
<path d="m1658.2 948.5v146.05" clip-path="url(#a)"/>
<path d="m1820.8 948.5v146.05" clip-path="url(#a)"/>
<path d="m1905.1 948.5v146.05" clip-path="url(#a)"/>
<path d="m1991.3 948.5v146.05" clip-path="url(#a)"/>
<path d="m816.98 651.56-71.795 296.94" clip-path="url(#a)"/>
<path d="m816.98 651.56-19.621 296.94" clip-path="url(#a)"/>
<path d="m816.98 651.56 91.416 148.86" clip-path="url(#a)"/>
<path d="m1026.1 948.5v146.05" clip-path="url(#a)"/>
<path d="m1088.3 948.5v146.05" clip-path="url(#a)"/>
<path d="m1236.3 651.56-50.669 148.86" clip-path="url(#a)"/>
<path d="m1236.3 651.56 50.669 296.94" clip-path="url(#a)"/>
<path d="m1185.7 800.42-33.11 148.08" clip-path="url(#a)"/>
<path d="m1185.7 800.42 33.11 148.08" clip-path="url(#a)"/>
<path d="m1287 948.5v146.05" clip-path="url(#a)"/>
<path d="m1152.5 948.5v146.05" clip-path="url(#a)"/>
<path d="m1218.8 948.5v146.05" clip-path="url(#a)"/>
<path d="m745.19 948.5v146.05" clip-path="url(#a)"/>
<path d="m797.36 948.5v146.05" clip-path="url(#a)"/>
<path d="m908.4 800.42-56.856 148.08" clip-path="url(#a)"/>
<path d="m908.4 800.42-0.6689 148.08" clip-path="url(#a)"/>
<path d="m908.4 800.42 57.525 148.08" clip-path="url(#a)"/>
<path d="m851.54 948.5v146.05" clip-path="url(#a)"/>
<path d="m907.73 948.5v146.05" clip-path="url(#a)"/>
<path d="m965.92 948.5v146.05" clip-path="url(#a)"/>
<path d="m333.81 948.5v146.05" clip-path="url(#a)"/>
<path d="m401.04 948.5-35.117 146.05" clip-path="url(#a)"/>
<path d="m401.04 948.5 35.117 146.05" clip-path="url(#a)"/>
<path d="m400.03 948.5v146.05" clip-path="url(#a)"/>
<path d="m474.28 948.5v146.05" clip-path="url(#a)"/>
<path d="m557.23 800.42-42.809 148.08" clip-path="url(#a)"/>
<path d="m557.23 800.42-0.6689 148.08" clip-path="url(#a)"/>
<path d="m557.23 800.42 43.478 148.08" clip-path="url(#a)"/>
<path d="m514.42 948.5v146.05" clip-path="url(#a)"/>
<path d="m556.56 948.5v146.05" clip-path="url(#a)"/>
<path d="m600.7 948.5v146.05" clip-path="url(#a)"/>
<path d="m105.05 948.5v146.05" clip-path="url(#a)"/>
<path d="m113.08 948.5v146.05" clip-path="url(#a)"/>
<path d="m123.11 948.5v146.05" clip-path="url(#a)"/>
<path d="m135.15 948.5v146.05" clip-path="url(#a)"/>
<path d="m164.85 800.42-41.739 148.08" clip-path="url(#a)" stroke-dasharray="3.7,1.6"/>
<path d="m164.85 800.42-15.652 148.08" clip-path="url(#a)"/>
<path d="m164.85 800.42 0.40134 148.08" clip-path="url(#a)"/>
<path d="m164.85 800.42 18.462 148.08" clip-path="url(#a)"/>
<path d="m164.85 800.42 38.529 148.08" clip-path="url(#a)"/>
<path d="m149.2 948.5v146.05" clip-path="url(#a)"/>
<path d="m165.25 948.5v146.05" clip-path="url(#a)"/>
<path d="m183.31 948.5v146.05" clip-path="url(#a)"/>
<path d="m203.38 948.5v146.05" clip-path="url(#a)"/>
<path d="m723.41 352.46-290.13 299.1" clip-path="url(#a)"/>
<path d="m723.41 352.46-28.394 596.04" clip-path="url(#a)"/>
<path d="m723.41 352.46 318.53 149.74" clip-path="url(#a)"/>
<path d="m99.03 948.5v146.05" clip-path="url(#a)"/>
<path d="m225.45 948.5v146.05" clip-path="url(#a)"/>
<path d="m303.71 948.5v146.05" clip-path="url(#a)"/>
<path d="m646.86 948.5v146.05" clip-path="url(#a)"/>
<path d="m1357.2 948.5v146.05" clip-path="url(#a)"/>
<path d="m2079.6 948.5v146.05" clip-path="url(#a)"/>
</g>
<path d="m358.65 124.26v6.0162q0 2.4 2.4 2.4h7.7425q2.4 0 2.4-2.4v-6.0162q0-2.4-2.4-2.4h-7.7425q-2.4 0-2.4 2.4z" clip-path="url(#a)" fill="#fff" stroke="#fff"/>
<g clip-path="url(#a)">
<defs>
<path id="af" d="m9.8125 72.906h9.8594v-29.891h35.844v29.891h9.8594v-72.906h-9.8594v34.719h-35.844v-34.719h-9.8594z"/>
</defs>
<g transform="translate(362.71 124.26) rotate(90) scale(.08 -.08)">
<use xlink:href="#af"/>
</g>
</g>
<path d="m562.86 282.37 5.1322 1.8996q2.2508 0.8331 3.0839-1.4177l2.6876-7.2611q0.8331-2.2508-1.4177-3.0839l-5.1322-1.8996q-2.2508-0.8331-3.0839 1.4177l-2.6876 7.2611q-0.8331 2.2508 1.4177 3.0839z" clip-path="url(#a)" fill="#fff" stroke="#fff"/>
<g clip-path="url(#a)">
<defs>
<path id="m" d="m34.188 63.188-13.391-36.281h26.812zm-5.5781 9.7188h11.188l27.781-72.906h-10.25l-6.6406 18.703h-32.859l-6.6406-18.703h-10.406z"/>
</defs>
<g transform="translate(564.27 278.56) rotate(20.312) scale(.08 -.08)">
<use xlink:href="#m"/>
</g>
</g>
<path d="m313.06 578.8 0.73727-4.7671q0.36682-2.3718-2.005-2.7386l-7.6515-1.1834q-2.3718-0.36682-2.7386 2.005l-0.73727 4.7671q-0.36682 2.3718 2.005 2.7386l7.6515 1.1834q2.3718 0.36682 2.7386-2.005z" clip-path="url(#a)" fill="#fff" stroke="#fff"/>
<g clip-path="url(#a)">
<defs>
<path id="ae" d="m19.672 64.797v-27.391h12.406q6.8906 0 10.641 3.5625 3.7656 3.5625 3.7656 10.156 0 6.5469-3.7656 10.109-3.75 3.5625-10.641 3.5625zm-9.8594 8.1094h22.266q12.266 0 18.531-5.5469 6.2812-5.5469 6.2812-16.234 0-10.797-6.2812-16.312-6.2656-5.5156-18.531-5.5156h-12.406v-29.297h-9.8594z"/>
</defs>
<g transform="translate(309.04 578.18) rotate(-81.208) scale(.08 -.08)">
<use xlink:href="#ae"/>
</g>
</g>
<path d="m326.17 578.92 0.65038-5.4337q0.28523-2.383-2.0978-2.6682l-7.6876-0.92016q-2.383-0.28523-2.6682 2.0978l-0.65038 5.4337q-0.28523 2.383 2.0978 2.6682l7.6876 0.92016q2.383 0.28523 2.6682-2.0978z" clip-path="url(#a)" fill="#fff" stroke="#fff"/>
<g clip-path="url(#a)">
<g transform="translate(322.14 578.44) rotate(-83.175) scale(.08 -.08)">
<use xlink:href="#m"/>
</g>
</g>
<path d="m300.81 579.49 1.0759-5.7553q0.441-2.3591-1.9181-2.8001l-7.6107-1.4227q-2.3591-0.441-2.8001 1.9181l-1.0759 5.7553q-0.441 2.3591 1.9181 2.8001l7.6107 1.4227q2.3591 0.441 2.8001-1.9181z" clip-path="url(#a)" fill="#fff" stroke="#fff"/>
<g clip-path="url(#a)">
<defs>
<path id="v" d="m8.6875 72.906h9.9219v-44.297q0-11.719 4.2344-16.875 4.25-5.1406 13.781-5.1406 9.4688 0 13.719 5.1406 4.25 5.1562 4.25 16.875v44.297h9.9062v-45.516q0-14.25-7.0625-21.531-7.0469-7.2812-20.812-7.2812-13.828 0-20.891 7.2812-7.0469 7.2812-7.0469 21.531z"/>
</defs>
<g transform="translate(296.82 578.74) rotate(-79.412) scale(.08 -.08)">
<use xlink:href="#v"/>
</g>
</g>
<path d="m340.33 578.89 0.47873-5.8354q0.19623-2.392-2.1957-2.5882l-7.7166-0.63306q-2.392-0.19623-2.5882 2.1957l-0.47873 5.8354q-0.19623 2.392 2.1957 2.5882l7.7166 0.63306q2.392 0.19623 2.5882-2.1957z" clip-path="url(#a)" fill="#fff" stroke="#fff"/>
<g clip-path="url(#a)">
<g transform="translate(336.28 578.55) rotate(-85.31) scale(.08 -.08)">
<use xlink:href="#v"/>
</g>
</g>
<path d="m449.19 508.96 5.4535-2.5406q2.1755-1.0135 1.162-3.189l-3.2696-7.0183q-1.0135-2.1755-3.189-1.162l-5.4535 2.5406q-2.1755 1.0135-1.162 3.189l3.2696 7.0183q1.0135 2.1755 3.189 1.162z" clip-path="url(#a)" fill="#fff" stroke="#fff"/>
<g clip-path="url(#a)">
<g transform="translate(447.47 505.28) rotate(-24.979) scale(.08 -.08)">
<use xlink:href="#af"/>
</g>
</g>
<path d="m603.7 508.7 4.4996-3.9936q1.795-1.5931 0.20189-3.3881l-5.1394-5.7907q-1.5931-1.795-3.3881-0.20189l-4.4996 3.9936q-1.795 1.5931-0.20189 3.3881l5.1394 5.7907q1.5931 1.795 3.3881 0.20189z" clip-path="url(#a)" fill="#fff" stroke="#fff"/>
<g clip-path="url(#a)">
<g transform="translate(601 505.66) rotate(-41.59) scale(.08 -.08)">
<use xlink:href="#af"/>
</g>
</g>
<path d="m738.6 653.47 0.55846-4.4224q0.30069-2.3811-2.0804-2.6818l-7.6815-0.97003q-2.3811-0.30069-2.6818 2.0804l-0.55846 4.4224q-0.30069 2.3811 2.0804 2.6818l7.6815 0.97003q2.3811 0.30069 2.6818-2.0804z" clip-path="url(#a)" fill="#fff" stroke="#fff"/>
<g clip-path="url(#a)">
<defs>
<path id="ai" d="m9.8125 72.906h9.8594v-64.609h35.5v-8.2969h-45.359z"/>
</defs>
<g transform="translate(734.56 652.97) rotate(-82.803) scale(.08 -.08)">
<use xlink:href="#ai"/>
</g>
</g>
<path d="m900.45 431.37 5.2688 2.9043q2.1018 1.1586 3.2604-0.94326l3.7376-6.7806q1.1586-2.1018-0.94326-3.2604l-5.2688-2.9043q-2.1018-1.1586-3.2604 0.94326l-3.7376 6.7806q-1.1586 2.1018 0.94326 3.2604z" clip-path="url(#a)" fill="#fff" stroke="#fff"/>
<g clip-path="url(#a)">
<g transform="translate(902.41 427.81) rotate(28.865) scale(.08 -.08)">
<use xlink:href="#af"/>
</g>
</g>
<path d="m1260.2 580.91 5.4816 2.4793q2.1867 0.98905 3.1758-1.1977l3.1907-7.0545q0.98905-2.1867-1.1977-3.1758l-5.4816-2.4793q-2.1867-0.98905-3.1758 1.1977l-3.1907 7.0545q-0.98905 2.1867 1.1977 3.1758z" clip-path="url(#a)" fill="#fff" stroke="#fff"/>
<g clip-path="url(#a)">
<g transform="translate(1261.8 577.21) rotate(24.337) scale(.08 -.08)">
<use xlink:href="#af"/>
</g>
</g>
<path d="m436.63 657.11 4.3781-3.8875q1.7946-1.5935 0.2011-3.3882l-5.1408-5.7895q-1.5935-1.7946-3.3882-0.2011l-4.3781 3.8875q-1.7946 1.5935-0.20109 3.3882l5.1408 5.7895q1.5935 1.7946 3.3882 0.2011z" clip-path="url(#a)" fill="#fff" stroke="#fff"/>
<g clip-path="url(#a)">
<g transform="translate(433.94 654.07) rotate(-41.603) scale(.08 -.08)">
<use xlink:href="#v"/>
</g>
</g>
<path d="m714.12 654.62 1.1873-5.7334q0.48667-2.3501-1.8635-2.8368l-7.5816-1.57q-2.3501-0.48667-2.8368 1.8635l-1.1873 5.7334q-0.48667 2.3501 1.8635 2.8368l7.5816 1.57q2.3501 0.48667 2.8368-1.8635z" clip-path="url(#a)" fill="#fff" stroke="#fff"/>
<g clip-path="url(#a)">
<g transform="translate(710.14 653.79) rotate(-78.3) scale(.08 -.08)">
<use xlink:href="#v"/>
</g>
</g>
<path d="m1057.2 652.79 4.1081 4.1718q1.684 1.7101 3.394 0.026107l5.5167-5.4325q1.7101-1.684 0.026107-3.394l-4.1081-4.1718q-1.684-1.7101-3.394-0.026107l-5.5167 5.4325q-1.7101 1.684-0.026108 3.394z" clip-path="url(#a)" fill="#fff" stroke="#fff"/>
<g clip-path="url(#a)">
<g transform="translate(1060.1 649.94) rotate(45.441) scale(.08 -.08)">
<use xlink:href="#v"/>
</g>
</g>
<path d="m243.26 1004.6v33.808q0 2.4 2.4 2.4h7.7425q2.4 0 2.4-2.4v-33.808q0-2.4-2.4-2.4h-7.7425q-2.4 0-2.4 2.4z" clip-path="url(#a)" fill="#fff" stroke="#fff"/>
<g clip-path="url(#a)">
<defs>
<path id="l" d="m-0.29688 72.906h61.672v-8.3125h-25.875v-64.594h-9.9062v64.594h-25.891z"/>
<path id="d" d="m56.203 29.594v-4.3906h-41.312q0.59375-9.2812 5.5938-14.141t13.938-4.8594q5.1719 0 10.031 1.2656t9.6562 3.8125v-8.5q-4.8438-2.0469-9.9219-3.125t-10.297-1.0781q-13.094 0-20.734 7.6094-7.6406 7.625-7.6406 20.625 0 13.422 7.25 21.297 7.25 7.8906 19.562 7.8906 11.031 0 17.453-7.1094 6.4219-7.0938 6.4219-19.297zm-8.9844 2.6406q-0.09375 7.3594-4.125 11.75-4.0312 4.4062-10.672 4.4062-7.5156 0-12.031-4.25t-5.2031-11.969z"/>
<path id="g" d="m41.109 46.297q-1.5156 0.875-3.2969 1.2812-1.7812 0.42188-3.9219 0.42188-7.625 0-11.703-4.9531t-4.0781-14.234v-28.812h-9.0312v54.688h9.0312v-8.5q2.8438 4.9844 7.375 7.3906 4.5469 2.4219 11.047 2.4219 0.92188 0 2.0469-0.125 1.125-0.10938 2.4844-0.35938z"/>
<path id="k" d="m52 44.188q3.375 6.0625 8.0625 8.9375t11.031 2.875q8.5469 0 13.188-5.9844 4.6406-5.9688 4.6406-17v-33.016h-9.0312v32.719q0 7.8594-2.7969 11.656-2.7812 3.8125-8.4844 3.8125-6.9844 0-11.047-4.6406-4.0469-4.625-4.0469-12.641v-30.906h-9.0312v32.719q0 7.9062-2.7812 11.688t-8.5938 3.7812q-6.8906 0-10.953-4.6562-4.0469-4.6562-4.0469-12.625v-30.906h-9.0312v54.688h9.0312v-8.5q3.0781 5.0312 7.375 7.4219t10.203 2.3906q5.9688 0 10.141-3.0312 4.1719-3.0156 6.1719-8.7812z"/>
<path id="f" d="m9.4219 54.688h8.9844v-54.688h-8.9844zm0 21.297h8.9844v-11.391h-8.9844z"/>
<path id="h" d="m54.891 33.016v-33.016h-8.9844v32.719q0 7.7656-3.0312 11.609-3.0312 3.8594-9.0781 3.8594-7.2812 0-11.484-4.6406-4.2031-4.625-4.2031-12.641v-30.906h-9.0312v54.688h9.0312v-8.5q3.2344 4.9375 7.5938 7.375 4.375 2.4375 10.094 2.4375 9.4219 0 14.25-5.8281 4.8438-5.8281 4.8438-17.156z"/>
<path id="j" d="m34.281 27.484q-10.891 0-15.094-2.4844t-4.2031-8.5q0-4.7812 3.1562-7.5938 3.1562-2.7969 8.5625-2.7969 7.4844 0 12 5.2969t4.5156 14.078v2zm17.922 3.7188v-31.203h-8.9844v8.2969q-3.0781-4.9688-7.6719-7.3438t-11.234-2.375q-8.3906 0-13.359 4.7188-4.9531 4.7188-4.9531 12.625 0 9.2188 6.1719 13.906 6.1875 4.6875 18.438 4.6875h12.609v0.89062q0 6.2031-4.0781 9.5938t-11.453 3.3906q-4.6875 0-9.1406-1.125-4.4375-1.125-8.5312-3.375v8.3125q4.9219 1.9062 9.5625 2.8438 4.6406 0.95312 9.0312 0.95312 11.875 0 17.734-6.1562 5.8594-6.1406 5.8594-18.641z"/>
<path id="i" d="m9.4219 75.984h8.9844v-75.984h-8.9844z"/>
</defs>
<g transform="translate(247.32 1004.6) rotate(90) scale(.08 -.08)">
<use xlink:href="#l"/>
<use x="44.083984" xlink:href="#d"/>
<use x="105.607422" xlink:href="#g"/>
<use x="144.970703" xlink:href="#k"/>
<use x="242.382812" xlink:href="#f"/>
<use x="270.166016" xlink:href="#h"/>
<use x="333.544922" xlink:href="#j"/>
<use x="394.824219" xlink:href="#i"/>
</g>
</g>
<path d="m269.35 1004.6v33.808q0 2.4 2.4 2.4h7.7425q2.4 0 2.4-2.4v-33.808q0-2.4-2.4-2.4h-7.7425q-2.4 0-2.4 2.4z" clip-path="url(#a)" fill="#fff" stroke="#fff"/>
<g clip-path="url(#a)">
<g transform="translate(273.41 1004.6) rotate(90) scale(.08 -.08)">
<use xlink:href="#l"/>
<use x="44.083984" xlink:href="#d"/>
<use x="105.607422" xlink:href="#g"/>
<use x="144.970703" xlink:href="#k"/>
<use x="242.382812" xlink:href="#f"/>
<use x="270.166016" xlink:href="#h"/>
<use x="333.544922" xlink:href="#j"/>
<use x="394.824219" xlink:href="#i"/>
</g>
</g>
<path d="m122.68 803.29 0.43294-5.5419q0.18692-2.3927-2.2058-2.5796l-7.719-0.60303q-2.3927-0.18692-2.5796 2.2058l-0.43294 5.5419q-0.18692 2.3927 2.2058 2.5796l7.719 0.60303q2.3927 0.18692 2.5796-2.2058z" clip-path="url(#a)" fill="#fff" stroke="#fff"/>
<g clip-path="url(#a)">
<defs>
<path id="ad" d="m44.391 34.188q3.1719-1.0781 6.1719-4.5938t6.0312-9.6719l10.016-19.922h-10.609l-9.3125 18.703q-3.625 7.3281-7.0156 9.7188t-9.25 2.3906h-10.75v-30.812h-9.8594v72.906h22.266q12.5 0 18.656-5.2344 6.1562-5.2188 6.1562-15.766 0-6.8906-3.2031-11.438-3.2031-4.5312-9.2969-6.2812zm-24.719 30.609v-25.875h12.406q7.125 0 10.766 3.2969t3.6406 9.6875-3.6406 9.6406-10.766 3.25z"/>
</defs>
<g transform="translate(118.63 802.97) rotate(-85.533) scale(.08 -.08)">
<use xlink:href="#ad"/>
</g>
</g>
<path d="m126.79 803.08 0.27923-5.4654q0.12246-2.3969-2.2744-2.5193l-7.7324-0.39505q-2.3969-0.12246-2.5193 2.2744l-0.27923 5.4654q-0.12246 2.3969 2.2744 2.5193l7.7324 0.39505q2.3969 0.12246 2.5193-2.2744z" clip-path="url(#a)" fill="#fff" stroke="#fff"/>
<g clip-path="url(#a)">
<g transform="translate(122.73 802.87) rotate(-87.075) scale(.08 -.08)">
<use xlink:href="#m"/>
</g>
</g>
<path d="m131.9 802.87 0.094663-5.4717q0.041515-2.3996-2.3581-2.4412l-7.7413-0.13393q-2.3996-0.041515-2.4412 2.3581l-0.094663 5.4717q-0.041515 2.3996 2.3581 2.4412l7.7413 0.13393q2.3996 0.041515 2.4412-2.3581z" clip-path="url(#a)" fill="#fff" stroke="#fff"/>
<g clip-path="url(#a)">
<g transform="translate(127.84 802.8) rotate(-89.009) scale(.08 -.08)">
<use xlink:href="#m"/>
</g>
</g>
<path d="m125.37 797.76 0.11211 4.8224q0.055779 2.3994 2.4551 2.3436l7.7404-0.17994q2.3994-0.055779 2.3436-2.4551l-0.11211-4.8224q-0.055779-2.3994-2.4551-2.3436l-7.7404 0.17994q-2.3994 0.055779-2.3436 2.4551z" clip-path="url(#a)" fill="#fff" stroke="#fff"/>
<g clip-path="url(#a)">
<g transform="translate(129.44 797.67) rotate(88.668) scale(.08 -.08)">
<use xlink:href="#ae"/>
</g>
</g>
<path d="m139.81 724.83 1.3067 5.3142q0.57306 2.3306 2.9036 1.7575l7.5185-1.8487q2.3306-0.57306 1.7575-2.9036l-1.3067-5.3142q-0.57306-2.3306-2.9036-1.7575l-7.5185 1.8487q-2.3306 0.57306-1.7575 2.9036z" clip-path="url(#a)" fill="#fff" stroke="#fff"/>
<g clip-path="url(#a)">
<g transform="translate(143.75 723.86) rotate(76.186) scale(.08 -.08)">
<use xlink:href="#m"/>
</g>
</g>
<path d="m388.62 804.62 1.7382-5.1891q0.7623-2.2757-1.5134-3.038l-7.3416-2.4592q-2.2757-0.7623-3.038 1.5134l-1.7382 5.1891q-0.7623 2.2757 1.5134 3.038l7.3416 2.4592q2.2757 0.7623 3.038-1.5134z" clip-path="url(#a)" fill="#fff" stroke="#fff"/>
<g clip-path="url(#a)">
<g transform="translate(384.77 803.33) rotate(-71.481) scale(.08 -.08)">
<use xlink:href="#m"/>
</g>
</g>
<path d="m423.13 803.14 0.52744-4.8577q0.25907-2.386-2.1269-2.645l-7.6973-0.83576q-2.386-0.25907-2.645 2.1269l-0.52744 4.8577q-0.25907 2.386 2.1269 2.645l7.6973 0.83576q2.386 0.25907 2.645-2.1269z" clip-path="url(#a)" fill="#fff" stroke="#fff"/>
<g clip-path="url(#a)">
<g transform="translate(419.09 802.7) rotate(-83.803) scale(.08 -.08)">
<use xlink:href="#l"/>
</g>
</g>
<path d="m422.63 803.01 0.51195-4.5727q0.26703-2.3851-2.1181-2.6521l-7.6944-0.86145q-2.3851-0.26703-2.6521 2.1181l-0.51195 4.5727q-0.26703 2.3851 2.1181 2.6521l7.6944 0.86145q2.3851 0.26703 2.6521-2.1181z" clip-path="url(#a)" fill="#fff" stroke="#fff"/>
<g clip-path="url(#a)">
<defs>
<path id="am" d="m9.8125 72.906h41.891v-8.3125h-32.031v-21.484h28.906v-8.2969h-28.906v-34.812h-9.8594z"/>
</defs>
<g transform="translate(418.59 802.56) rotate(-83.612) scale(.08 -.08)">
<use xlink:href="#am"/>
</g>
</g>
<path d="m447.24 798.5 0.65984 4.7784q0.3283 2.3774 2.7057 2.0491l7.6697-1.0591q2.3774-0.3283 2.0491-2.7057l-0.65984-4.7784q-0.3283-2.3774-2.7057-2.0491l-7.6697 1.0591q-2.3774 0.3283-2.0491 2.7057z" clip-path="url(#a)" fill="#fff" stroke="#fff"/>
<g clip-path="url(#a)">
<g transform="translate(451.26 797.94) rotate(82.138) scale(.08 -.08)">
<use xlink:href="#ae"/>
</g>
</g>
<path d="m488.68 727.9 3.5017 4.2055q1.5357 1.8443 3.3801 0.30863l5.9499-4.9543q1.8443-1.5357 0.30863-3.3801l-3.5017-4.2055q-1.5357-1.8443-3.3801-0.30863l-5.9499 4.9543q-1.8443 1.5357-0.30863 3.3801z" clip-path="url(#a)" fill="#fff" stroke="#fff"/>
<g clip-path="url(#a)">
<g transform="translate(491.8 725.3) rotate(50.217) scale(.08 -.08)">
<use xlink:href="#m"/>
</g>
</g>
<path d="m688.75 1004.6v33.808q0 2.4 2.4 2.4h7.7425q2.4 0 2.4-2.4v-33.808q0-2.4-2.4-2.4h-7.7425q-2.4 0-2.4 2.4z" clip-path="url(#a)" fill="#fff" stroke="#fff"/>
<g clip-path="url(#a)">
<g transform="translate(692.81 1004.6) rotate(90) scale(.08 -.08)">
<use xlink:href="#l"/>
<use x="44.083984" xlink:href="#d"/>
<use x="105.607422" xlink:href="#g"/>
<use x="144.970703" xlink:href="#k"/>
<use x="242.382812" xlink:href="#f"/>
<use x="270.166016" xlink:href="#h"/>
<use x="333.544922" xlink:href="#j"/>
<use x="394.824219" xlink:href="#i"/>
</g>
</g>
<path d="m930.65 583.62 4.5591-3.027q1.9994-1.3275 0.67189-3.3269l-4.2827-6.4502q-1.3275-1.9994-3.3269-0.67189l-4.5591 3.027q-1.9994 1.3275-0.67189 3.3269l4.2827 6.4502q1.3275 1.9994 3.3269 0.67189z" clip-path="url(#a)" fill="#fff" stroke="#fff"/>
<g clip-path="url(#a)">
<g transform="translate(928.4 580.23) rotate(-33.582) scale(.08 -.08)">
<use xlink:href="#m"/>
</g>
</g>
<path d="m1040.2 728.65 0.21817-6.1561q0.085002-2.3985-2.3135-2.4835l-7.7376-0.27422q-2.3985-0.085002-2.4835 2.3135l-0.21817 6.1561q-0.085001 2.3985 2.3135 2.4835l7.7376 0.27422q2.3985 0.085001 2.4835-2.3135z" clip-path="url(#a)" fill="#fff" stroke="#fff"/>
<g clip-path="url(#a)">
<defs>
<path id="an" d="m19.672 64.797v-56.688h11.922q15.094 0 22.094 6.8281 7 6.8438 7 21.594 0 14.641-7 21.453t-22.094 6.8125zm-9.8594 8.1094h20.266q21.188 0 31.094-8.8125 9.9219-8.8125 9.9219-27.562 0-18.859-9.9688-27.703-9.9531-8.8281-31.047-8.8281h-20.266z"/>
</defs>
<g transform="translate(1036.1 728.5) rotate(-87.97) scale(.08 -.08)">
<use xlink:href="#an"/>
</g>
</g>
<path d="m1058.6 723.6 0.49872 4.7979q0.24813 2.3871 2.6353 2.139l7.701-0.80049q2.3871-0.24813 2.139-2.6353l-0.49872-4.7979q-0.24813-2.3871-2.6353-2.139l-7.701 0.80049q-2.3871 0.24813-2.139 2.6353z" clip-path="url(#a)" fill="#fff" stroke="#fff"/>
<g clip-path="url(#a)">
<g transform="translate(1062.7 723.18) rotate(84.066) scale(.08 -.08)">
<use xlink:href="#ae"/>
</g>
</g>
<path d="m1133.1 580.19 4.3394 3.3343q1.9031 1.4623 3.3654-0.44077l4.7174-6.1394q1.4623-1.9031-0.44077-3.3654l-4.3394-3.3343q-1.9031-1.4623-3.3654 0.44077l-4.7174 6.1394q-1.4623 1.9031 0.44077 3.3654z" clip-path="url(#a)" fill="#fff" stroke="#fff"/>
<g clip-path="url(#a)">
<g transform="translate(1135.6 576.96) rotate(37.538) scale(.08 -.08)">
<use xlink:href="#m"/>
</g>
</g>
<path d="m1595.1 881.3 4.996-2.2335q2.191-0.97952 1.2115-3.1705l-3.16-7.0683q-0.97952-2.191-3.1705-1.2115l-4.996 2.2335q-2.191 0.97952-1.2115 3.1705l3.16 7.0683q0.97952 2.191 3.1705 1.2115z" clip-path="url(#a)" fill="#fff" stroke="#fff"/>
<g clip-path="url(#a)">
<g transform="translate(1593.5 877.59) rotate(-24.088) scale(.08 -.08)">
<use xlink:href="#m"/>
</g>
</g>
<path d="m1693.4 881 4.2254-4.4824q1.6463-1.7464-0.10012-3.3926l-5.6339-5.3109q-1.7464-1.6463-3.3926 0.10012l-4.2254 4.4824q-1.6463 1.7464 0.10012 3.3926l5.6339 5.3109q1.7464 1.6463 3.3926-0.10012z" clip-path="url(#a)" fill="#fff" stroke="#fff"/>
<g clip-path="url(#a)">
<g transform="translate(1690.4 878.21) rotate(-46.69) scale(.08 -.08)">
<use xlink:href="#an"/>
</g>
</g>
<path d="m1672.2 881.04 4.2331-3.4684q1.8564-1.5211 0.33536-3.3775l-4.907-5.9889q-1.5211-1.8564-3.3775-0.33536l-4.2331 3.4684q-1.8564 1.5211-0.33536 3.3775l4.907 5.9889q1.5211 1.8564 3.3775 0.33536z" clip-path="url(#a)" fill="#fff" stroke="#fff"/>
<g clip-path="url(#a)">
<g transform="translate(1669.6 877.9) rotate(-39.33) scale(.08 -.08)">
<use xlink:href="#m"/>
</g>
</g>
<path d="m1713.3 879.92 2.6182-3.7837q1.3657-1.9736-0.60792-3.3392l-6.3668-4.4057q-1.9736-1.3657-3.3392 0.60792l-2.6182 3.7837q-1.3657 1.9736 0.60792 3.3392l6.3668 4.4057q1.9736 1.3657 3.3392-0.60792z" clip-path="url(#a)" fill="#fff" stroke="#fff"/>
<g clip-path="url(#a)">
<g transform="translate(1710 877.61) rotate(-55.318) scale(.08 -.08)">
<use xlink:href="#am"/>
</g>
</g>
<path d="m1784.1 874.68 1.7298 4.2637q0.90225 2.2239 3.1262 1.3217l7.1746-2.9107q2.2239-0.90225 1.3217-3.1262l-1.7298-4.2637q-0.90225-2.2239-3.1262-1.3217l-7.1746 2.9107q-2.2239 0.90225-1.3217 3.1262z" clip-path="url(#a)" fill="#fff" stroke="#fff"/>
<g clip-path="url(#a)">
<g transform="translate(1787.8 873.16) rotate(67.918) scale(.08 -.08)">
<use xlink:href="#am"/>
</g>
</g>
<path d="m1826.2 876.63 4.3 4.4109q1.6753 1.7185 3.3938 0.043208l5.544-5.4046q1.7185-1.6753 0.043209-3.3938l-4.3-4.4109q-1.6753-1.7185-3.3938-0.043209l-5.544 5.4046q-1.7185 1.6753-0.043208 3.3938z" clip-path="url(#a)" fill="#fff" stroke="#fff"/>
<g clip-path="url(#a)">
<g transform="translate(1829.1 873.79) rotate(45.729) scale(.08 -.08)">
<use xlink:href="#an"/>
</g>
</g>
<path d="m1870.5 878.36 4.2738 2.7439q2.0196 1.2966 3.3162-0.72296l4.183-6.5153q1.2966-2.0196-0.72296-3.3162l-4.2738-2.7439q-2.0196-1.2966-3.3162 0.72296l-4.183 6.5153q-1.2966 2.0196 0.72296 3.3162z" clip-path="url(#a)" fill="#fff" stroke="#fff"/>
<g clip-path="url(#a)">
<defs>
<path id="ar" d="m53.516 70.516v-9.625q-5.6094 2.6875-10.594 4-4.9844 1.3281-9.625 1.3281-8.0469 0-12.422-3.125t-4.375-8.8906q0-4.8438 2.9062-7.3125 2.9062-2.4531 11.016-3.9688l5.9531-1.2188q11.031-2.1094 16.281-7.4062t5.25-14.172q0-10.609-7.1094-16.078-7.0938-5.4688-20.812-5.4688-5.1719 0-11.016 1.1719-5.8281 1.1719-12.078 3.4688v10.156q6-3.3594 11.766-5.0781 5.7656-1.7031 11.328-1.7031 8.4375 0 13.031 3.3125 4.5938 3.3281 4.5938 9.4844 0 5.3594-3.2969 8.3906t-10.812 4.5469l-6.0156 1.1719q-11.031 2.1875-15.969 6.875-4.9219 4.6875-4.9219 13.047 0 9.6719 6.8125 15.234t18.766 5.5625q5.1406 0 10.453-0.9375 5.3281-0.92188 10.891-2.7656z"/>
</defs>
<g transform="translate(1872.7 874.94) rotate(32.702) scale(.08 -.08)">
<use xlink:href="#ar"/>
</g>
</g>
<path d="m1914.9 878.91 5.3105 2.4656q2.1768 1.0107 3.1875-1.1661l3.2605-7.0225q1.0107-2.1768-1.1661-3.1875l-5.3105-2.4656q-2.1768-1.0107-3.1875 1.1661l-3.2605 7.0225q-1.0107 2.1768 1.1661 3.1875z" clip-path="url(#a)" fill="#fff" stroke="#fff"/>
<g clip-path="url(#a)">
<g transform="translate(1916.6 875.23) rotate(24.905) scale(.08 -.08)">
<use xlink:href="#v"/>
</g>
</g>
<path d="m1423.2 1004.6v33.808q0 2.4 2.4 2.4h7.7425q2.4 0 2.4-2.4v-33.808q0-2.4-2.4-2.4h-7.7425q-2.4 0-2.4 2.4z" clip-path="url(#a)" fill="#fff" stroke="#fff"/>
<g clip-path="url(#a)">
<g transform="translate(1427.3 1004.6) rotate(90) scale(.08 -.08)">
<use xlink:href="#l"/>
<use x="44.083984" xlink:href="#d"/>
<use x="105.607422" xlink:href="#g"/>
<use x="144.970703" xlink:href="#k"/>
<use x="242.382812" xlink:href="#f"/>
<use x="270.166016" xlink:href="#h"/>
<use x="333.544922" xlink:href="#j"/>
<use x="394.824219" xlink:href="#i"/>
</g>
</g>
<path d="m1556.7 1038.6 21.18-26.35q1.5036-1.8706-0.36704-3.3742l-6.0347-4.8506q-1.8706-1.5036-3.3742 0.36704l-21.18 26.35q-1.5036 1.8706 0.36704 3.3742l6.0347 4.8506q1.8706 1.5036 3.3742-0.36704z" clip-path="url(#a)" fill="#fff" stroke="#fff"/>
<g clip-path="url(#a)">
<g transform="translate(1553.5 1036.1) rotate(-51.208) scale(.08 -.08)">
<use xlink:href="#l"/>
<use x="44.083984" xlink:href="#d"/>
<use x="105.607422" xlink:href="#g"/>
<use x="144.970703" xlink:href="#k"/>
<use x="242.382812" xlink:href="#f"/>
<use x="270.166016" xlink:href="#h"/>
<use x="333.544922" xlink:href="#j"/>
<use x="394.824219" xlink:href="#i"/>
</g>
</g>
<path d="m1664.3 1012.3 21.18 26.35q1.5036 1.8706 3.3742 0.36704l6.0347-4.8506q1.8706-1.5036 0.36704-3.3742l-21.18-26.35q-1.5036-1.8706-3.3742-0.36704l-6.0347 4.8506q-1.8706 1.5036-0.36704 3.3742z" clip-path="url(#a)" fill="#fff" stroke="#fff"/>
<g clip-path="url(#a)">
<g transform="translate(1667.5 1009.7) rotate(51.208) scale(.08 -.08)">
<use xlink:href="#l"/>
<use x="44.083984" xlink:href="#d"/>
<use x="105.607422" xlink:href="#g"/>
<use x="144.970703" xlink:href="#k"/>
<use x="242.382812" xlink:href="#f"/>
<use x="270.166016" xlink:href="#h"/>
<use x="333.544922" xlink:href="#j"/>
<use x="394.824219" xlink:href="#i"/>
</g>
</g>
<path d="m1573.7 1004.6v33.808q0 2.4 2.4 2.4h7.7425q2.4 0 2.4-2.4v-33.808q0-2.4-2.4-2.4h-7.7425q-2.4 0-2.4 2.4z" clip-path="url(#a)" fill="#fff" stroke="#fff"/>
<g clip-path="url(#a)">
<g transform="translate(1577.8 1004.6) rotate(90) scale(.08 -.08)">
<use xlink:href="#l"/>
<use x="44.083984" xlink:href="#d"/>
<use x="105.607422" xlink:href="#g"/>
<use x="144.970703" xlink:href="#k"/>
<use x="242.382812" xlink:href="#f"/>
<use x="270.166016" xlink:href="#h"/>
<use x="333.544922" xlink:href="#j"/>
<use x="394.824219" xlink:href="#i"/>
</g>
</g>
<path d="m1652 1004.6v33.808q0 2.4 2.4 2.4h7.7425q2.4 0 2.4-2.4v-33.808q0-2.4-2.4-2.4h-7.7425q-2.4 0-2.4 2.4z" clip-path="url(#a)" fill="#fff" stroke="#fff"/>
<g clip-path="url(#a)">
<g transform="translate(1656 1004.6) rotate(90) scale(.08 -.08)">
<use xlink:href="#l"/>
<use x="44.083984" xlink:href="#d"/>
<use x="105.607422" xlink:href="#g"/>
<use x="144.970703" xlink:href="#k"/>
<use x="242.382812" xlink:href="#f"/>
<use x="270.166016" xlink:href="#h"/>
<use x="333.544922" xlink:href="#j"/>
<use x="394.824219" xlink:href="#i"/>
</g>
</g>
<path d="m1814.5 1004.6v33.808q0 2.4 2.4 2.4h7.7425q2.4 0 2.4-2.4v-33.808q0-2.4-2.4-2.4h-7.7425q-2.4 0-2.4 2.4z" clip-path="url(#a)" fill="#fff" stroke="#fff"/>
<g clip-path="url(#a)">
<g transform="translate(1818.6 1004.6) rotate(90) scale(.08 -.08)">
<use xlink:href="#l"/>
<use x="44.083984" xlink:href="#d"/>
<use x="105.607422" xlink:href="#g"/>
<use x="144.970703" xlink:href="#k"/>
<use x="242.382812" xlink:href="#f"/>
<use x="270.166016" xlink:href="#h"/>
<use x="333.544922" xlink:href="#j"/>
<use x="394.824219" xlink:href="#i"/>
</g>
</g>
<path d="m1898.8 1004.6v33.808q0 2.4 2.4 2.4h7.7425q2.4 0 2.4-2.4v-33.808q0-2.4-2.4-2.4h-7.7425q-2.4 0-2.4 2.4z" clip-path="url(#a)" fill="#fff" stroke="#fff"/>
<g clip-path="url(#a)">
<g transform="translate(1902.8 1004.6) rotate(90) scale(.08 -.08)">
<use xlink:href="#l"/>
<use x="44.083984" xlink:href="#d"/>
<use x="105.607422" xlink:href="#g"/>
<use x="144.970703" xlink:href="#k"/>
<use x="242.382812" xlink:href="#f"/>
<use x="270.166016" xlink:href="#h"/>
<use x="333.544922" xlink:href="#j"/>
<use x="394.824219" xlink:href="#i"/>
</g>
</g>
<path d="m1985.1 1004.6v33.808q0 2.4 2.4 2.4h7.7425q2.4 0 2.4-2.4v-33.808q0-2.4-2.4-2.4h-7.7425q-2.4 0-2.4 2.4z" clip-path="url(#a)" fill="#fff" stroke="#fff"/>
<g clip-path="url(#a)">
<g transform="translate(1989.1 1004.6) rotate(90) scale(.08 -.08)">
<use xlink:href="#l"/>
<use x="44.083984" xlink:href="#d"/>
<use x="105.607422" xlink:href="#g"/>
<use x="144.970703" xlink:href="#k"/>
<use x="242.382812" xlink:href="#f"/>
<use x="270.166016" xlink:href="#h"/>
<use x="333.544922" xlink:href="#j"/>
<use x="394.824219" xlink:href="#i"/>
</g>
</g>
<path d="m786.58 803.96 1.188-4.9134q0.56403-2.3328-1.7687-2.8968l-7.5256-1.8196q-2.3328-0.56403-2.8968 1.7687l-1.188 4.9134q-0.56403 2.3328 1.7687 2.8968l7.5256 1.8196q2.3328 0.56403 2.8968-1.7687z" clip-path="url(#a)" fill="#fff" stroke="#fff"/>
<g clip-path="url(#a)">
<defs>
<path id="y" d="m9.8125 72.906h46.094v-8.3125h-36.234v-21.578h34.719v-8.2969h-34.719v-26.422h37.109v-8.2969h-46.969z"/>
</defs>
<g transform="translate(782.63 803.01) rotate(-76.408) scale(.08 -.08)">
<use xlink:href="#y"/>
</g>
</g>
<path d="m813.24 803.23 0.36833-5.5741q0.15824-2.3948-2.2365-2.553l-7.7257-0.5105q-2.3948-0.15824-2.553 2.2365l-0.36833 5.5741q-0.15824 2.3948 2.2365 2.553l7.7257 0.5105q2.3948 0.15824 2.553-2.2365z" clip-path="url(#a)" fill="#fff" stroke="#fff"/>
<g clip-path="url(#a)">
<defs>
<path id="z" d="m64.406 67.281v-10.391q-4.9844 4.6406-10.625 6.9219-5.6406 2.2969-11.984 2.2969-12.5 0-19.141-7.6406t-6.6406-22.094q0-14.406 6.6406-22.047t19.141-7.6406q6.3438 0 11.984 2.2969t10.625 6.9375v-10.312q-5.1719-3.5156-10.969-5.2812-5.7812-1.75-12.219-1.75-16.562 0-26.094 10.125-9.5156 10.141-9.5156 27.672 0 17.578 9.5156 27.703 9.5312 10.141 26.094 10.141 6.5312 0 12.312-1.7344 5.7969-1.7344 10.875-5.2031z"/>
</defs>
<g transform="translate(809.19 802.96) rotate(-86.219) scale(.08 -.08)">
<use xlink:href="#z"/>
</g>
</g>
<path d="m856.02 727.12 2.6454 4.3076q1.256 2.0451 3.3011 0.78917l6.5977-4.0518q2.0451-1.256 0.78917-3.3011l-2.6454-4.3076q-1.256-2.0451-3.3011-0.78917l-6.5977 4.0518q-2.0451 1.256-0.78917 3.3011z" clip-path="url(#a)" fill="#fff" stroke="#fff"/>
<g clip-path="url(#a)">
<g transform="translate(859.48 724.99) rotate(58.445) scale(.08 -.08)">
<use xlink:href="#y"/>
</g>
</g>
<path d="m1019.9 1004.6v33.808q0 2.4 2.4 2.4h7.7425q2.4 0 2.4-2.4v-33.808q0-2.4-2.4-2.4h-7.7425q-2.4 0-2.4 2.4z" clip-path="url(#a)" fill="#fff" stroke="#fff"/>
<g clip-path="url(#a)">
<g transform="translate(1023.9 1004.6) rotate(90) scale(.08 -.08)">
<use xlink:href="#l"/>
<use x="44.083984" xlink:href="#d"/>
<use x="105.607422" xlink:href="#g"/>
<use x="144.970703" xlink:href="#k"/>
<use x="242.382812" xlink:href="#f"/>
<use x="270.166016" xlink:href="#h"/>
<use x="333.544922" xlink:href="#j"/>
<use x="394.824219" xlink:href="#i"/>
</g>
</g>
<path d="m1082.1 1004.6v33.808q0 2.4 2.4 2.4h7.7425q2.4 0 2.4-2.4v-33.808q0-2.4-2.4-2.4h-7.7425q-2.4 0-2.4 2.4z" clip-path="url(#a)" fill="#fff" stroke="#fff"/>
<g clip-path="url(#a)">
<g transform="translate(1086.1 1004.6) rotate(90) scale(.08 -.08)">
<use xlink:href="#l"/>
<use x="44.083984" xlink:href="#d"/>
<use x="105.607422" xlink:href="#g"/>
<use x="144.970703" xlink:href="#k"/>
<use x="242.382812" xlink:href="#f"/>
<use x="270.166016" xlink:href="#h"/>
<use x="333.544922" xlink:href="#j"/>
<use x="394.824219" xlink:href="#i"/>
</g>
</g>
<path d="m1216.1 730.4 1.6289-4.7854q0.77336-2.272-1.4986-3.0453l-7.3295-2.4949q-2.272-0.77336-3.0453 1.4986l-1.6289 4.7854q-0.77336 2.272 1.4986 3.0453l7.3295 2.4949q2.272 0.77336 3.0453-1.4986z" clip-path="url(#a)" fill="#fff" stroke="#fff"/>
<g clip-path="url(#a)">
<g transform="translate(1212.3 729.09) rotate(-71.202) scale(.08 -.08)">
<use xlink:href="#y"/>
</g>
</g>
<path d="m1255 798.33 0.93965 5.5067q0.4037 2.3658 2.7695 1.9621l7.6322-1.3024q2.3658-0.4037 1.9621-2.7695l-0.93965-5.5067q-0.4037-2.3658-2.7695-1.9621l-7.6322 1.3024q-2.3658 0.4037-1.9621 2.7695z" clip-path="url(#a)" fill="#fff" stroke="#fff"/>
<g clip-path="url(#a)">
<g transform="translate(1259 797.65) rotate(80.316) scale(.08 -.08)">
<use xlink:href="#z"/>
</g>
</g>
<path d="m1174.7 878.29 1.1031-4.9332q0.5237-2.3422-1.8185-2.8659l-7.5559-1.6895q-2.3422-0.5237-2.8659 1.8185l-1.1031 4.9332q-0.5237 2.3422 1.8185 2.8659l7.5559 1.6895q2.3422 0.5237 2.8659-1.8185z" clip-path="url(#a)" fill="#fff" stroke="#fff"/>
<g clip-path="url(#a)">
<g transform="translate(1170.7 877.41) rotate(-77.396) scale(.08 -.08)">
<use xlink:href="#y"/>
</g>
</g>
<path d="m1195.5 873.1 1.219 5.4516q0.5237 2.3422 2.8659 1.8185l7.5559-1.6895q2.3422-0.5237 1.8185-2.8659l-1.219-5.4516q-0.5237-2.3422-2.8659-1.8185l-7.5559 1.6895q-2.3422 0.5237-1.8185 2.8659z" clip-path="url(#a)" fill="#fff" stroke="#fff"/>
<g clip-path="url(#a)">
<g transform="translate(1199.4 872.21) rotate(77.396) scale(.08 -.08)">
<use xlink:href="#z"/>
</g>
</g>
<path d="m1280.7 1004.6v33.808q0 2.4 2.4 2.4h7.7425q2.4 0 2.4-2.4v-33.808q0-2.4-2.4-2.4h-7.7425q-2.4 0-2.4 2.4z" clip-path="url(#a)" fill="#fff" stroke="#fff"/>
<g clip-path="url(#a)">
<g transform="translate(1284.8 1004.6) rotate(90) scale(.08 -.08)">
<use xlink:href="#l"/>
<use x="44.083984" xlink:href="#d"/>
<use x="105.607422" xlink:href="#g"/>
<use x="144.970703" xlink:href="#k"/>
<use x="242.382812" xlink:href="#f"/>
<use x="270.166016" xlink:href="#h"/>
<use x="333.544922" xlink:href="#j"/>
<use x="394.824219" xlink:href="#i"/>
</g>
</g>
<path d="m1146.3 1004.6v33.808q0 2.4 2.4 2.4h7.7425q2.4 0 2.4-2.4v-33.808q0-2.4-2.4-2.4h-7.7425q-2.4 0-2.4 2.4z" clip-path="url(#a)" fill="#fff" stroke="#fff"/>
<g clip-path="url(#a)">
<g transform="translate(1150.3 1004.6) rotate(90) scale(.08 -.08)">
<use xlink:href="#l"/>
<use x="44.083984" xlink:href="#d"/>
<use x="105.607422" xlink:href="#g"/>
<use x="144.970703" xlink:href="#k"/>
<use x="242.382812" xlink:href="#f"/>
<use x="270.166016" xlink:href="#h"/>
<use x="333.544922" xlink:href="#j"/>
<use x="394.824219" xlink:href="#i"/>
</g>
</g>
<path d="m1212.5 1004.6v33.808q0 2.4 2.4 2.4h7.7425q2.4 0 2.4-2.4v-33.808q0-2.4-2.4-2.4h-7.7425q-2.4 0-2.4 2.4z" clip-path="url(#a)" fill="#fff" stroke="#fff"/>
<g clip-path="url(#a)">
<g transform="translate(1216.6 1004.6) rotate(90) scale(.08 -.08)">
<use xlink:href="#l"/>
<use x="44.083984" xlink:href="#d"/>
<use x="105.607422" xlink:href="#g"/>
<use x="144.970703" xlink:href="#k"/>
<use x="242.382812" xlink:href="#f"/>
<use x="270.166016" xlink:href="#h"/>
<use x="333.544922" xlink:href="#j"/>
<use x="394.824219" xlink:href="#i"/>
</g>
</g>
<path d="m738.91 1004.6v33.808q0 2.4 2.4 2.4h7.7425q2.4 0 2.4-2.4v-33.808q0-2.4-2.4-2.4h-7.7425q-2.4 0-2.4 2.4z" clip-path="url(#a)" fill="#fff" stroke="#fff"/>
<g clip-path="url(#a)">
<g transform="translate(742.98 1004.6) rotate(90) scale(.08 -.08)">
<use xlink:href="#l"/>
<use x="44.083984" xlink:href="#d"/>
<use x="105.607422" xlink:href="#g"/>
<use x="144.970703" xlink:href="#k"/>
<use x="242.382812" xlink:href="#f"/>
<use x="270.166016" xlink:href="#h"/>
<use x="333.544922" xlink:href="#j"/>
<use x="394.824219" xlink:href="#i"/>
</g>
</g>
<path d="m791.09 1004.6v33.808q0 2.4 2.4 2.4h7.7425q2.4 0 2.4-2.4v-33.808q0-2.4-2.4-2.4h-7.7425q-2.4 0-2.4 2.4z" clip-path="url(#a)" fill="#fff" stroke="#fff"/>
<g clip-path="url(#a)">
<g transform="translate(795.15 1004.6) rotate(90) scale(.08 -.08)">
<use xlink:href="#l"/>
<use x="44.083984" xlink:href="#d"/>
<use x="105.607422" xlink:href="#g"/>
<use x="144.970703" xlink:href="#k"/>
<use x="242.382812" xlink:href="#f"/>
<use x="270.166016" xlink:href="#h"/>
<use x="333.544922" xlink:href="#j"/>
<use x="394.824219" xlink:href="#i"/>
</g>
</g>
<path d="m884.83 879.3 1.9925-5.1894q0.86027-2.2405-1.3803-3.1008l-7.228-2.7753q-2.2405-0.86027-3.1008 1.3803l-1.9925 5.1894q-0.86027 2.2405 1.3803 3.1008l7.228 2.7753q2.2405 0.86026 3.1008-1.3803z" clip-path="url(#a)" fill="#fff" stroke="#fff"/>
<g clip-path="url(#a)">
<g transform="translate(881.03 877.84) rotate(-68.995) scale(.08 -.08)">
<use xlink:href="#ad"/>
</g>
</g>
<path d="m914.32 877.01 0.022834-5.0549q0.010841-2.4-2.3891-2.4108l-7.7424-0.034973q-2.4-0.010841-2.4108 2.3891l-0.022834 5.0549q-0.010841 2.4 2.3891 2.4108l7.7424 0.034974q2.4 0.010841 2.4108-2.3891z" clip-path="url(#a)" fill="#fff" stroke="#fff"/>
<g clip-path="url(#a)">
<g transform="translate(910.26 877) rotate(-89.741) scale(.08 -.08)">
<use xlink:href="#y"/>
</g>
</g>
<path d="m930.3 874.12 2.0228 5.2071q0.86907 2.2371 3.1062 1.3681l7.2171-2.8036q2.2371-0.86907 1.3681-3.1062l-2.0228-5.2071q-0.86907-2.2371-3.1062-1.3681l-7.2171 2.8036q-2.2371 0.86907-1.3681 3.1062z" clip-path="url(#a)" fill="#fff" stroke="#fff"/>
<g clip-path="url(#a)">
<g transform="translate(934.09 872.65) rotate(68.77) scale(.08 -.08)">
<use xlink:href="#z"/>
</g>
</g>
<path d="m845.27 1004.6v33.808q0 2.4 2.4 2.4h7.7425q2.4 0 2.4-2.4v-33.808q0-2.4-2.4-2.4h-7.7425q-2.4 0-2.4 2.4z" clip-path="url(#a)" fill="#fff" stroke="#fff"/>
<g clip-path="url(#a)">
<g transform="translate(849.33 1004.6) rotate(90) scale(.08 -.08)">
<use xlink:href="#l"/>
<use x="44.083984" xlink:href="#d"/>
<use x="105.607422" xlink:href="#g"/>
<use x="144.970703" xlink:href="#k"/>
<use x="242.382812" xlink:href="#f"/>
<use x="270.166016" xlink:href="#h"/>
<use x="333.544922" xlink:href="#j"/>
<use x="394.824219" xlink:href="#i"/>
</g>
</g>
<path d="m901.46 1004.6v33.808q0 2.4 2.4 2.4h7.7425q2.4 0 2.4-2.4v-33.808q0-2.4-2.4-2.4h-7.7425q-2.4 0-2.4 2.4z" clip-path="url(#a)" fill="#fff" stroke="#fff"/>
<g clip-path="url(#a)">
<g transform="translate(905.52 1004.6) rotate(90) scale(.08 -.08)">
<use xlink:href="#l"/>
<use x="44.083984" xlink:href="#d"/>
<use x="105.607422" xlink:href="#g"/>
<use x="144.970703" xlink:href="#k"/>
<use x="242.382812" xlink:href="#f"/>
<use x="270.166016" xlink:href="#h"/>
<use x="333.544922" xlink:href="#j"/>
<use x="394.824219" xlink:href="#i"/>
</g>
</g>
<path d="m959.65 1004.6v33.808q0 2.4 2.4 2.4h7.7425q2.4 0 2.4-2.4v-33.808q0-2.4-2.4-2.4h-7.7425q-2.4 0-2.4 2.4z" clip-path="url(#a)" fill="#fff" stroke="#fff"/>
<g clip-path="url(#a)">
<g transform="translate(963.71 1004.6) rotate(90) scale(.08 -.08)">
<use xlink:href="#l"/>
<use x="44.083984" xlink:href="#d"/>
<use x="105.607422" xlink:href="#g"/>
<use x="144.970703" xlink:href="#k"/>
<use x="242.382812" xlink:href="#f"/>
<use x="270.166016" xlink:href="#h"/>
<use x="333.544922" xlink:href="#j"/>
<use x="394.824219" xlink:href="#i"/>
</g>
</g>
<path d="m327.54 1004.6v33.808q0 2.4 2.4 2.4h7.7425q2.4 0 2.4-2.4v-33.808q0-2.4-2.4-2.4h-7.7425q-2.4 0-2.4 2.4z" clip-path="url(#a)" fill="#fff" stroke="#fff"/>
<g clip-path="url(#a)">
<g transform="translate(331.61 1004.6) rotate(90) scale(.08 -.08)">
<use xlink:href="#l"/>
<use x="44.083984" xlink:href="#d"/>
<use x="105.607422" xlink:href="#g"/>
<use x="144.970703" xlink:href="#k"/>
<use x="242.382812" xlink:href="#f"/>
<use x="270.166016" xlink:href="#h"/>
<use x="333.544922" xlink:href="#j"/>
<use x="394.824219" xlink:href="#i"/>
</g>
</g>
<path d="m385.62 1039.4 7.9037-32.871q0.56109-2.3335-1.7724-2.8946l-7.5279-1.8101q-2.3335-0.56109-2.8946 1.7724l-7.9037 32.871q-0.56109 2.3335 1.7724 2.8946l7.5279 1.8101q2.3335 0.56109 2.8946-1.7724z" clip-path="url(#a)" fill="#fff" stroke="#fff"/>
<g clip-path="url(#a)">
<g transform="translate(381.67 1038.5) rotate(-76.48) scale(.08 -.08)">
<use xlink:href="#l"/>
<use x="44.083984" xlink:href="#d"/>
<use x="105.607422" xlink:href="#g"/>
<use x="144.970703" xlink:href="#k"/>
<use x="242.382812" xlink:href="#f"/>
<use x="270.166016" xlink:href="#h"/>
<use x="333.544922" xlink:href="#j"/>
<use x="394.824219" xlink:href="#i"/>
</g>
</g>
<path d="m408.55 1006.6 7.9037 32.871q0.56109 2.3335 2.8946 1.7724l7.5279-1.8101q2.3335-0.56109 1.7724-2.8946l-7.9037-32.871q-0.56109-2.3335-2.8946-1.7724l-7.5279 1.8101q-2.3335 0.56109-1.7724 2.8946z" clip-path="url(#a)" fill="#fff" stroke="#fff"/>
<g clip-path="url(#a)">
<g transform="translate(412.5 1005.6) rotate(76.48) scale(.08 -.08)">
<use xlink:href="#l"/>
<use x="44.083984" xlink:href="#d"/>
<use x="105.607422" xlink:href="#g"/>
<use x="144.970703" xlink:href="#k"/>
<use x="242.382812" xlink:href="#f"/>
<use x="270.166016" xlink:href="#h"/>
<use x="333.544922" xlink:href="#j"/>
<use x="394.824219" xlink:href="#i"/>
</g>
</g>
<path d="m393.76 1004.6v33.808q0 2.4 2.4 2.4h7.7425q2.4 0 2.4-2.4v-33.808q0-2.4-2.4-2.4h-7.7425q-2.4 0-2.4 2.4z" clip-path="url(#a)" fill="#fff" stroke="#fff"/>
<g clip-path="url(#a)">
<g transform="translate(397.83 1004.6) rotate(90) scale(.08 -.08)">
<use xlink:href="#l"/>
<use x="44.083984" xlink:href="#d"/>
<use x="105.607422" xlink:href="#g"/>
<use x="144.970703" xlink:href="#k"/>
<use x="242.382812" xlink:href="#f"/>
<use x="270.166016" xlink:href="#h"/>
<use x="333.544922" xlink:href="#j"/>
<use x="394.824219" xlink:href="#i"/>
</g>
</g>
<path d="m468.01 1004.6v33.808q0 2.4 2.4 2.4h7.7425q2.4 0 2.4-2.4v-33.808q0-2.4-2.4-2.4h-7.7425q-2.4 0-2.4 2.4z" clip-path="url(#a)" fill="#fff" stroke="#fff"/>
<g clip-path="url(#a)">
<g transform="translate(472.07 1004.6) rotate(90) scale(.08 -.08)">
<use xlink:href="#l"/>
<use x="44.083984" xlink:href="#d"/>
<use x="105.607422" xlink:href="#g"/>
<use x="144.970703" xlink:href="#k"/>
<use x="242.382812" xlink:href="#f"/>
<use x="270.166016" xlink:href="#h"/>
<use x="333.544922" xlink:href="#j"/>
<use x="394.824219" xlink:href="#i"/>
</g>
</g>
<path d="m541.07 878.87 1.5438-5.3401q0.66654-2.3056-1.639-2.9721l-7.4379-2.1503q-2.3056-0.66654-2.9721 1.639l-1.5438 5.3401q-0.66654 2.3056 1.639 2.9721l7.4379 2.1503q2.3056 0.66654 2.9721-1.639z" clip-path="url(#a)" fill="#fff" stroke="#fff"/>
<g clip-path="url(#a)">
<g transform="translate(537.17 877.74) rotate(-73.876) scale(.08 -.08)">
<use xlink:href="#ad"/>
</g>
</g>
<path d="m563.15 877.01 0.022834-5.0549q0.010841-2.4-2.3891-2.4108l-7.7424-0.034973q-2.4-0.010841-2.4108 2.3891l-0.022834 5.0549q-0.010841 2.4 2.3891 2.4108l7.7424 0.034974q2.4 0.010841 2.4108-2.3891z" clip-path="url(#a)" fill="#fff" stroke="#fff"/>
<g clip-path="url(#a)">
<g transform="translate(559.09 877) rotate(-89.741) scale(.08 -.08)">
<use xlink:href="#y"/>
</g>
</g>
<path d="m572.16 873.54 1.5738 5.36q0.67613 2.3028 2.9789 1.6267l7.4289-2.1812q2.3028-0.67613 1.6267-2.9789l-1.5738-5.36q-0.67613-2.3028-2.9789-1.6267l-7.4289 2.1812q-2.3028 0.67613-1.6267 2.9789z" clip-path="url(#a)" fill="#fff" stroke="#fff"/>
<g clip-path="url(#a)">
<g transform="translate(576.06 872.4) rotate(73.637) scale(.08 -.08)">
<use xlink:href="#z"/>
</g>
</g>
<path d="m508.14 1004.6v33.808q0 2.4 2.4 2.4h7.7425q2.4 0 2.4-2.4v-33.808q0-2.4-2.4-2.4h-7.7425q-2.4 0-2.4 2.4z" clip-path="url(#a)" fill="#fff" stroke="#fff"/>
<g clip-path="url(#a)">
<g transform="translate(512.21 1004.6) rotate(90) scale(.08 -.08)">
<use xlink:href="#l"/>
<use x="44.083984" xlink:href="#d"/>
<use x="105.607422" xlink:href="#g"/>
<use x="144.970703" xlink:href="#k"/>
<use x="242.382812" xlink:href="#f"/>
<use x="270.166016" xlink:href="#h"/>
<use x="333.544922" xlink:href="#j"/>
<use x="394.824219" xlink:href="#i"/>
</g>
</g>
<path d="m550.29 1004.6v33.808q0 2.4 2.4 2.4h7.7425q2.4 0 2.4-2.4v-33.808q0-2.4-2.4-2.4h-7.7425q-2.4 0-2.4 2.4z" clip-path="url(#a)" fill="#fff" stroke="#fff"/>
<g clip-path="url(#a)">
<g transform="translate(554.35 1004.6) rotate(90) scale(.08 -.08)">
<use xlink:href="#l"/>
<use x="44.083984" xlink:href="#d"/>
<use x="105.607422" xlink:href="#g"/>
<use x="144.970703" xlink:href="#k"/>
<use x="242.382812" xlink:href="#f"/>
<use x="270.166016" xlink:href="#h"/>
<use x="333.544922" xlink:href="#j"/>
<use x="394.824219" xlink:href="#i"/>
</g>
</g>
<path d="m594.43 1004.6v33.808q0 2.4 2.4 2.4h7.7425q2.4 0 2.4-2.4v-33.808q0-2.4-2.4-2.4h-7.7425q-2.4 0-2.4 2.4z" clip-path="url(#a)" fill="#fff" stroke="#fff"/>
<g clip-path="url(#a)">
<g transform="translate(598.5 1004.6) rotate(90) scale(.08 -.08)">
<use xlink:href="#l"/>
<use x="44.083984" xlink:href="#d"/>
<use x="105.607422" xlink:href="#g"/>
<use x="144.970703" xlink:href="#k"/>
<use x="242.382812" xlink:href="#f"/>
<use x="270.166016" xlink:href="#h"/>
<use x="333.544922" xlink:href="#j"/>
<use x="394.824219" xlink:href="#i"/>
</g>
</g>
<path d="m98.779 1004.6v33.808q0 2.4 2.4 2.4h7.7425q2.4 0 2.4-2.4v-33.808q0-2.4-2.4-2.4h-7.7425q-2.4 0-2.4 2.4z" clip-path="url(#a)" fill="#fff" stroke="#fff"/>
<g clip-path="url(#a)">
<g transform="translate(102.84 1004.6) rotate(90) scale(.08 -.08)">
<use xlink:href="#l"/>
<use x="44.083984" xlink:href="#d"/>
<use x="105.607422" xlink:href="#g"/>
<use x="144.970703" xlink:href="#k"/>
<use x="242.382812" xlink:href="#f"/>
<use x="270.166016" xlink:href="#h"/>
<use x="333.544922" xlink:href="#j"/>
<use x="394.824219" xlink:href="#i"/>
</g>
</g>
<path d="m106.81 1004.6v33.808q0 2.4 2.4 2.4h7.7425q2.4 0 2.4-2.4v-33.808q0-2.4-2.4-2.4h-7.7425q-2.4 0-2.4 2.4z" clip-path="url(#a)" fill="#fff" stroke="#fff"/>
<g clip-path="url(#a)">
<g transform="translate(110.87 1004.6) rotate(90) scale(.08 -.08)">
<use xlink:href="#l"/>
<use x="44.083984" xlink:href="#d"/>
<use x="105.607422" xlink:href="#g"/>
<use x="144.970703" xlink:href="#k"/>
<use x="242.382812" xlink:href="#f"/>
<use x="270.166016" xlink:href="#h"/>
<use x="333.544922" xlink:href="#j"/>
<use x="394.824219" xlink:href="#i"/>
</g>
</g>
<path d="m116.84 1004.6v33.808q0 2.4 2.4 2.4h7.7425q2.4 0 2.4-2.4v-33.808q0-2.4-2.4-2.4h-7.7425q-2.4 0-2.4 2.4z" clip-path="url(#a)" fill="#fff" stroke="#fff"/>
<g clip-path="url(#a)">
<g transform="translate(120.9 1004.6) rotate(90) scale(.08 -.08)">
<use xlink:href="#l"/>
<use x="44.083984" xlink:href="#d"/>
<use x="105.607422" xlink:href="#g"/>
<use x="144.970703" xlink:href="#k"/>
<use x="242.382812" xlink:href="#f"/>
<use x="270.166016" xlink:href="#h"/>
<use x="333.544922" xlink:href="#j"/>
<use x="394.824219" xlink:href="#i"/>
</g>
</g>
<path d="m128.88 1004.6v33.808q0 2.4 2.4 2.4h7.7425q2.4 0 2.4-2.4v-33.808q0-2.4-2.4-2.4h-7.7425q-2.4 0-2.4 2.4z" clip-path="url(#a)" fill="#fff" stroke="#fff"/>
<g clip-path="url(#a)">
<g transform="translate(132.94 1004.6) rotate(90) scale(.08 -.08)">
<use xlink:href="#l"/>
<use x="44.083984" xlink:href="#d"/>
<use x="105.607422" xlink:href="#g"/>
<use x="144.970703" xlink:href="#k"/>
<use x="242.382812" xlink:href="#f"/>
<use x="270.166016" xlink:href="#h"/>
<use x="333.544922" xlink:href="#j"/>
<use x="394.824219" xlink:href="#i"/>
</g>
</g>
<path d="m149.27 878.79 1.4847-5.2673q0.65112-2.31-1.6589-2.9611l-7.4521-2.1005q-2.31-0.65112-2.9611 1.6589l-1.4847 5.2673q-0.65112 2.31 1.6589 2.9611l7.4521 2.1005q2.31 0.65112 2.9611-1.6589z" clip-path="url(#a)" fill="#fff" stroke="#fff"/>
<g clip-path="url(#a)">
<g transform="translate(145.36 877.69) rotate(-74.258) scale(.08 -.08)">
<use xlink:href="#m"/>
</g>
</g>
<path d="m162.97 877.88 0.58431-5.528q0.25228-2.3867-2.1344-2.639l-7.6996-0.81386q-2.3867-0.25228-2.639 2.1344l-0.58431 5.528q-0.25228 2.3867 2.1344 2.639l7.6996 0.81386q2.3867 0.25228 2.639-2.1344z" clip-path="url(#a)" fill="#fff" stroke="#fff"/>
<g clip-path="url(#a)">
<g transform="translate(158.93 877.45) rotate(-83.966) scale(.08 -.08)">
<use xlink:href="#ad"/>
</g>
</g>
<path d="m158.77 871.74 0.014832 5.4725q0.006505 2.4 2.4065 2.3935l7.7425-0.020984q2.4-0.006505 2.3935-2.4065l-0.014832-5.4725q-0.006505-2.4-2.4065-2.3935l-7.7425 0.020984q-2.4 0.006505-2.3935 2.4065z" clip-path="url(#a)" fill="#fff" stroke="#fff"/>
<g clip-path="url(#a)">
<g transform="translate(162.84 871.73) rotate(89.845) scale(.08 -.08)">
<use xlink:href="#m"/>
</g>
</g>
<path d="m167.52 872.52 0.67703 5.4305q0.29692 2.3816 2.6785 2.0846l7.683-0.95787q2.3816-0.29692 2.0846-2.6785l-0.67703-5.4305q-0.29692-2.3816-2.6785-2.0846l-7.683 0.95787q-2.3816 0.29692-2.0846 2.6785z" clip-path="url(#a)" fill="#fff" stroke="#fff"/>
<g clip-path="url(#a)">
<g transform="translate(171.55 872.02) rotate(82.893) scale(.08 -.08)">
<use xlink:href="#m"/>
</g>
</g>
<path d="m177.44 873.7 1.2146 4.6683q0.60433 2.3227 2.927 1.7183l7.493-1.9496q2.3227-0.60433 1.7183-2.927l-1.2146-4.6683q-0.60433-2.3227-2.927-1.7183l-7.493 1.9496q-2.3227 0.60433-1.7183 2.927z" clip-path="url(#a)" fill="#fff" stroke="#fff"/>
<g clip-path="url(#a)">
<g transform="translate(181.37 872.68) rotate(75.416) scale(.08 -.08)">
<use xlink:href="#ae"/>
</g>
</g>
<path d="m142.93 1004.6v33.808q0 2.4 2.4 2.4h7.7425q2.4 0 2.4-2.4v-33.808q0-2.4-2.4-2.4h-7.7425q-2.4 0-2.4 2.4z" clip-path="url(#a)" fill="#fff" stroke="#fff"/>
<g clip-path="url(#a)">
<g transform="translate(146.99 1004.6) rotate(90) scale(.08 -.08)">
<use xlink:href="#l"/>
<use x="44.083984" xlink:href="#d"/>
<use x="105.607422" xlink:href="#g"/>
<use x="144.970703" xlink:href="#k"/>
<use x="242.382812" xlink:href="#f"/>
<use x="270.166016" xlink:href="#h"/>
<use x="333.544922" xlink:href="#j"/>
<use x="394.824219" xlink:href="#i"/>
</g>
</g>
<path d="m158.98 1004.6v33.808q0 2.4 2.4 2.4h7.7425q2.4 0 2.4-2.4v-33.808q0-2.4-2.4-2.4h-7.7425q-2.4 0-2.4 2.4z" clip-path="url(#a)" fill="#fff" stroke="#fff"/>
<g clip-path="url(#a)">
<g transform="translate(163.04 1004.6) rotate(90) scale(.08 -.08)">
<use xlink:href="#l"/>
<use x="44.083984" xlink:href="#d"/>
<use x="105.607422" xlink:href="#g"/>
<use x="144.970703" xlink:href="#k"/>
<use x="242.382812" xlink:href="#f"/>
<use x="270.166016" xlink:href="#h"/>
<use x="333.544922" xlink:href="#j"/>
<use x="394.824219" xlink:href="#i"/>
</g>
</g>
<path d="m177.04 1004.6v33.808q0 2.4 2.4 2.4h7.7425q2.4 0 2.4-2.4v-33.808q0-2.4-2.4-2.4h-7.7425q-2.4 0-2.4 2.4z" clip-path="url(#a)" fill="#fff" stroke="#fff"/>
<g clip-path="url(#a)">
<g transform="translate(181.1 1004.6) rotate(90) scale(.08 -.08)">
<use xlink:href="#l"/>
<use x="44.083984" xlink:href="#d"/>
<use x="105.607422" xlink:href="#g"/>
<use x="144.970703" xlink:href="#k"/>
<use x="242.382812" xlink:href="#f"/>
<use x="270.166016" xlink:href="#h"/>
<use x="333.544922" xlink:href="#j"/>
<use x="394.824219" xlink:href="#i"/>
</g>
</g>
<path d="m197.11 1004.6v33.808q0 2.4 2.4 2.4h7.7425q2.4 0 2.4-2.4v-33.808q0-2.4-2.4-2.4h-7.7425q-2.4 0-2.4 2.4z" clip-path="url(#a)" fill="#fff" stroke="#fff"/>
<g clip-path="url(#a)">
<g transform="translate(201.17 1004.6) rotate(90) scale(.08 -.08)">
<use xlink:href="#l"/>
<use x="44.083984" xlink:href="#d"/>
<use x="105.607422" xlink:href="#g"/>
<use x="144.970703" xlink:href="#k"/>
<use x="242.382812" xlink:href="#f"/>
<use x="270.166016" xlink:href="#h"/>
<use x="333.544922" xlink:href="#j"/>
<use x="394.824219" xlink:href="#i"/>
</g>
</g>
<path d="m579.33 510 7.0392-7.2568q1.671-1.7227-0.051664-3.3937l-5.5575-5.3908q-1.7227-1.671-3.3937 0.051664l-7.0392 7.2568q-1.671 1.7227 0.051664 3.3937l5.5575 5.3908q1.7227 1.671 3.3937-0.051664z" clip-path="url(#a)" fill="#fff" stroke="#fff"/>
<g clip-path="url(#a)">
<g transform="translate(576.41 507.18) rotate(-45.872) scale(.08 -.08)">
<use xlink:href="#ai"/>
<use x="57.962891" xlink:href="#m"/>
</g>
</g>
<path d="m715.24 655.78 0.47661-10.005q0.1142-2.3973-2.2831-2.5115l-7.7337-0.36841q-2.3973-0.1142-2.5115 2.2831l-0.47661 10.005q-0.1142 2.3973 2.2831 2.5115l7.7337 0.36841q2.3973 0.1142 2.5115-2.2831z" clip-path="url(#a)" fill="#fff" stroke="#fff"/>
<g clip-path="url(#a)">
<g transform="translate(711.18 655.59) rotate(-87.273) scale(.08 -.08)">
<use xlink:href="#ai"/>
<use x="55.712891" xlink:href="#ad"/>
</g>
</g>
<path d="m875.43 430.85 9.1494 4.3012q2.172 1.0211 3.193-1.1509l3.294-7.0069q1.0211-2.172-1.1509-3.193l-9.1494-4.3012q-2.172-1.0211-3.193 1.1509l-3.294 7.0069q-1.0211 2.172 1.1509 3.193z" clip-path="url(#a)" fill="#fff" stroke="#fff"/>
<g clip-path="url(#a)">
<g transform="translate(877.16 427.18) rotate(25.178) scale(.08 -.08)">
<use xlink:href="#ai"/>
<use x="57.962891" xlink:href="#m"/>
</g>
</g>
<path d="m92.759 1004.6v33.808q0 2.4 2.4 2.4h7.7425q2.4 0 2.4-2.4v-33.808q0-2.4-2.4-2.4h-7.7425q-2.4 0-2.4 2.4z" clip-path="url(#a)" fill="#fff" stroke="#fff"/>
<g clip-path="url(#a)">
<g transform="translate(96.823 1004.6) rotate(90) scale(.08 -.08)">
<use xlink:href="#l"/>
<use x="44.083984" xlink:href="#d"/>
<use x="105.607422" xlink:href="#g"/>
<use x="144.970703" xlink:href="#k"/>
<use x="242.382812" xlink:href="#f"/>
<use x="270.166016" xlink:href="#h"/>
<use x="333.544922" xlink:href="#j"/>
<use x="394.824219" xlink:href="#i"/>
</g>
</g>
<path d="m219.18 1004.6v33.808q0 2.4 2.4 2.4h7.7425q2.4 0 2.4-2.4v-33.808q0-2.4-2.4-2.4h-7.7425q-2.4 0-2.4 2.4z" clip-path="url(#a)" fill="#fff" stroke="#fff"/>
<g clip-path="url(#a)">
<g transform="translate(223.24 1004.6) rotate(90) scale(.08 -.08)">
<use xlink:href="#l"/>
<use x="44.083984" xlink:href="#d"/>
<use x="105.607422" xlink:href="#g"/>
<use x="144.970703" xlink:href="#k"/>
<use x="242.382812" xlink:href="#f"/>
<use x="270.166016" xlink:href="#h"/>
<use x="333.544922" xlink:href="#j"/>
<use x="394.824219" xlink:href="#i"/>
</g>
</g>
<path d="m297.44 1004.6v33.808q0 2.4 2.4 2.4h7.7425q2.4 0 2.4-2.4v-33.808q0-2.4-2.4-2.4h-7.7425q-2.4 0-2.4 2.4z" clip-path="url(#a)" fill="#fff" stroke="#fff"/>
<g clip-path="url(#a)">
<g transform="translate(301.51 1004.6) rotate(90) scale(.08 -.08)">
<use xlink:href="#l"/>
<use x="44.083984" xlink:href="#d"/>
<use x="105.607422" xlink:href="#g"/>
<use x="144.970703" xlink:href="#k"/>
<use x="242.382812" xlink:href="#f"/>
<use x="270.166016" xlink:href="#h"/>
<use x="333.544922" xlink:href="#j"/>
<use x="394.824219" xlink:href="#i"/>
</g>
</g>
<path d="m640.59 1004.6v33.808q0 2.4 2.4 2.4h7.7425q2.4 0 2.4-2.4v-33.808q0-2.4-2.4-2.4h-7.7425q-2.4 0-2.4 2.4z" clip-path="url(#a)" fill="#fff" stroke="#fff"/>
<g clip-path="url(#a)">
<g transform="translate(644.65 1004.6) rotate(90) scale(.08 -.08)">
<use xlink:href="#l"/>
<use x="44.083984" xlink:href="#d"/>
<use x="105.607422" xlink:href="#g"/>
<use x="144.970703" xlink:href="#k"/>
<use x="242.382812" xlink:href="#f"/>
<use x="270.166016" xlink:href="#h"/>
<use x="333.544922" xlink:href="#j"/>
<use x="394.824219" xlink:href="#i"/>
</g>
</g>
<path d="m1351 1004.6v33.808q0 2.4 2.4 2.4h7.7425q2.4 0 2.4-2.4v-33.808q0-2.4-2.4-2.4h-7.7425q-2.4 0-2.4 2.4z" clip-path="url(#a)" fill="#fff" stroke="#fff"/>
<g clip-path="url(#a)">
<g transform="translate(1355 1004.6) rotate(90) scale(.08 -.08)">
<use xlink:href="#l"/>
<use x="44.083984" xlink:href="#d"/>
<use x="105.607422" xlink:href="#g"/>
<use x="144.970703" xlink:href="#k"/>
<use x="242.382812" xlink:href="#f"/>
<use x="270.166016" xlink:href="#h"/>
<use x="333.544922" xlink:href="#j"/>
<use x="394.824219" xlink:href="#i"/>
</g>
</g>
<path d="m2073.4 1004.6v33.808q0 2.4 2.4 2.4h7.7425q2.4 0 2.4-2.4v-33.808q0-2.4-2.4-2.4h-7.7425q-2.4 0-2.4 2.4z" clip-path="url(#a)" fill="#fff" stroke="#fff"/>
<g clip-path="url(#a)">
<g transform="translate(2077.4 1004.6) rotate(90) scale(.08 -.08)">
<use xlink:href="#l"/>
<use x="44.083984" xlink:href="#d"/>
<use x="105.607422" xlink:href="#g"/>
<use x="144.970703" xlink:href="#k"/>
<use x="242.382812" xlink:href="#f"/>
<use x="270.166016" xlink:href="#h"/>
<use x="333.544922" xlink:href="#j"/>
<use x="394.824219" xlink:href="#i"/>
</g>
</g>
<defs>
<path id="b" d="m0 8.6603c2.2967 0 4.4997-0.9125 6.1237-2.5365 1.624-1.624 2.5365-3.827 2.5365-6.1237s-0.9125-4.4997-2.5365-6.1237c-1.624-1.624-3.827-2.5365-6.1237-2.5365s-4.4997 0.9125-6.1237 2.5365c-1.624 1.624-2.5365 3.827-2.5365 6.1237s0.9125 4.4997 2.5365 6.1237c1.624 1.624 3.827 2.5365 6.1237 2.5365z"/>
</defs>
<g clip-path="url(#a)">
<use x="99.030303" y="1094.545455" fill="#ffffff" stroke="#ffffff" xlink:href="#b"/>
<use x="105.050382" y="1094.545455" fill="#ffffff" stroke="#ffffff" xlink:href="#b"/>
<use x="113.077155" y="1094.545455" fill="#ffffff" stroke="#ffffff" xlink:href="#b"/>
<use x="123.11062" y="1094.545455" fill="#ffffff" stroke="#ffffff" xlink:href="#b"/>
<use x="135.150778" y="1094.545455" fill="#ffffff" stroke="#ffffff" xlink:href="#b"/>
<use x="149.19763" y="1094.545455" fill="#ffffff" stroke="#ffffff" xlink:href="#b"/>
<use x="165.251174" y="1094.545455" fill="#ffffff" stroke="#ffffff" xlink:href="#b"/>
<use x="183.311412" y="1094.545455" fill="#ffffff" stroke="#ffffff" xlink:href="#b"/>
<use x="203.378343" y="1094.545455" fill="#ffffff" stroke="#ffffff" xlink:href="#b"/>
<use x="225.451966" y="1094.545455" fill="#ffffff" stroke="#ffffff" xlink:href="#b"/>
<use x="249.532283" y="1094.545455" fill="#ffffff" stroke="#ffffff" xlink:href="#b"/>
<use x="275.619293" y="1094.545455" fill="#ffffff" stroke="#ffffff" xlink:href="#b"/>
<use x="303.712996" y="1094.545455" fill="#ffffff" stroke="#ffffff" xlink:href="#b"/>
<use x="333.813392" y="1094.545455" fill="#ffffff" stroke="#ffffff" xlink:href="#b"/>
<use x="365.920481" y="1094.545455" fill="#ffffff" stroke="#ffffff" xlink:href="#b"/>
<use x="400.034264" y="1094.545455" fill="#ffffff" stroke="#ffffff" xlink:href="#b"/>
<use x="436.154739" y="1094.545455" fill="#ffffff" stroke="#ffffff" xlink:href="#b"/>
<use x="474.281907" y="1094.545455" fill="#ffffff" stroke="#ffffff" xlink:href="#b"/>
<use x="514.415769" y="1094.545455" fill="#ffffff" stroke="#ffffff" xlink:href="#b"/>
<use x="556.556323" y="1094.545455" fill="#ffffff" stroke="#ffffff" xlink:href="#b"/>
<use x="600.703571" y="1094.545455" fill="#ffffff" stroke="#ffffff" xlink:href="#b"/>
<use x="646.857511" y="1094.545455" fill="#ffffff" stroke="#ffffff" xlink:href="#b"/>
<use x="695.018145" y="1094.545455" fill="#ffffff" stroke="#ffffff" xlink:href="#b"/>
<use x="745.185472" y="1094.545455" fill="#ffffff" stroke="#ffffff" xlink:href="#b"/>
<use x="797.359492" y="1094.545455" fill="#ffffff" stroke="#ffffff" xlink:href="#b"/>
<use x="851.540204" y="1094.545455" fill="#ffffff" stroke="#ffffff" xlink:href="#b"/>
<use x="907.72761" y="1094.545455" fill="#ffffff" stroke="#ffffff" xlink:href="#b"/>
<use x="965.921709" y="1094.545455" fill="#ffffff" stroke="#ffffff" xlink:href="#b"/>
<use x="1026.122502" y="1094.545455" fill="#ffffff" stroke="#ffffff" xlink:href="#b"/>
<use x="1088.329987" y="1094.545455" fill="#ffffff" stroke="#ffffff" xlink:href="#b"/>
<use x="1152.544165" y="1094.545455" fill="#ffffff" stroke="#ffffff" xlink:href="#b"/>
<use x="1218.765036" y="1094.545455" fill="#ffffff" stroke="#ffffff" xlink:href="#b"/>
<use x="1286.992601" y="1094.545455" fill="#ffffff" stroke="#ffffff" xlink:href="#b"/>
<use x="1357.226858" y="1094.545455" fill="#ffffff" stroke="#ffffff" xlink:href="#b"/>
<use x="1429.467809" y="1094.545455" fill="#ffffff" stroke="#ffffff" xlink:href="#b"/>
<use x="1503.715452" y="1094.545455" fill="#ffffff" stroke="#ffffff" xlink:href="#b"/>
<use x="1579.969789" y="1094.545455" fill="#ffffff" stroke="#ffffff" xlink:href="#b"/>
<use x="1658.230819" y="1094.545455" fill="#ffffff" stroke="#ffffff" xlink:href="#b"/>
<use x="1738.498542" y="1094.545455" fill="#ffffff" stroke="#ffffff" xlink:href="#b"/>
<use x="1820.772958" y="1094.545455" fill="#ffffff" stroke="#ffffff" xlink:href="#b"/>
<use x="1905.054067" y="1094.545455" fill="#ffffff" stroke="#ffffff" xlink:href="#b"/>
<use x="1991.341869" y="1094.545455" fill="#ffffff" stroke="#ffffff" xlink:href="#b"/>
<use x="2079.636364" y="1094.545455" fill="#ffffff" stroke="#ffffff" xlink:href="#b"/>
<use x="364.920702" y="52.121212" fill="#ffffff" stroke="#ffffff" xlink:href="#b"/>
<use x="364.920702" y="202.415246" fill="#ffffff" stroke="#ffffff" xlink:href="#b"/>
<use x="770.286972" y="352.457834" fill="#ffffff" stroke="#ffffff" xlink:href="#b"/>
<use x="249.532283" y="948.497499" fill="#ffffff" stroke="#ffffff" xlink:href="#b"/>
<use x="275.619293" y="948.497499" fill="#ffffff" stroke="#ffffff" xlink:href="#b"/>
<use x="128.247754" y="651.561547" fill="#ffffff" stroke="#ffffff" xlink:href="#b"/>
<use x="433.278479" y="651.561547" fill="#ffffff" stroke="#ffffff" xlink:href="#b"/>
<use x="695.018145" y="948.497499" fill="#ffffff" stroke="#ffffff" xlink:href="#b"/>
<use x="1041.939145" y="502.198618" fill="#ffffff" stroke="#ffffff" xlink:href="#b"/>
<use x="1760.697584" y="800.417855" fill="#ffffff" stroke="#ffffff" xlink:href="#b"/>
<use x="1429.467809" y="948.497499" fill="#ffffff" stroke="#ffffff" xlink:href="#b"/>
<use x="1621.106997" y="948.497499" fill="#ffffff" stroke="#ffffff" xlink:href="#b"/>
<use x="1579.969789" y="948.497499" fill="#ffffff" stroke="#ffffff" xlink:href="#b"/>
<use x="1658.230819" y="948.497499" fill="#ffffff" stroke="#ffffff" xlink:href="#b"/>
<use x="1820.772958" y="948.497499" fill="#ffffff" stroke="#ffffff" xlink:href="#b"/>
<use x="1905.054067" y="948.497499" fill="#ffffff" stroke="#ffffff" xlink:href="#b"/>
<use x="1991.341869" y="948.497499" fill="#ffffff" stroke="#ffffff" xlink:href="#b"/>
<use x="816.98049" y="651.561547" fill="#ffffff" stroke="#ffffff" xlink:href="#b"/>
<use x="1026.122502" y="948.497499" fill="#ffffff" stroke="#ffffff" xlink:href="#b"/>
<use x="1088.329987" y="948.497499" fill="#ffffff" stroke="#ffffff" xlink:href="#b"/>
<use x="1236.323601" y="651.561547" fill="#ffffff" stroke="#ffffff" xlink:href="#b"/>
<use x="1185.654601" y="800.417855" fill="#ffffff" stroke="#ffffff" xlink:href="#b"/>
<use x="1286.992601" y="948.497499" fill="#ffffff" stroke="#ffffff" xlink:href="#b"/>
<use x="1152.544165" y="948.497499" fill="#ffffff" stroke="#ffffff" xlink:href="#b"/>
<use x="1218.765036" y="948.497499" fill="#ffffff" stroke="#ffffff" xlink:href="#b"/>
<use x="745.185472" y="948.497499" fill="#ffffff" stroke="#ffffff" xlink:href="#b"/>
<use x="797.359492" y="948.497499" fill="#ffffff" stroke="#ffffff" xlink:href="#b"/>
<use x="908.396508" y="800.417855" fill="#ffffff" stroke="#ffffff" xlink:href="#b"/>
<use x="851.540204" y="948.497499" fill="#ffffff" stroke="#ffffff" xlink:href="#b"/>
<use x="907.72761" y="948.497499" fill="#ffffff" stroke="#ffffff" xlink:href="#b"/>
<use x="965.921709" y="948.497499" fill="#ffffff" stroke="#ffffff" xlink:href="#b"/>
<use x="333.813392" y="948.497499" fill="#ffffff" stroke="#ffffff" xlink:href="#b"/>
<use x="401.03761" y="948.497499" fill="#ffffff" stroke="#ffffff" xlink:href="#b"/>
<use x="400.034264" y="948.497499" fill="#ffffff" stroke="#ffffff" xlink:href="#b"/>
<use x="474.281907" y="948.497499" fill="#ffffff" stroke="#ffffff" xlink:href="#b"/>
<use x="557.225221" y="800.417855" fill="#ffffff" stroke="#ffffff" xlink:href="#b"/>
<use x="514.415769" y="948.497499" fill="#ffffff" stroke="#ffffff" xlink:href="#b"/>
<use x="556.556323" y="948.497499" fill="#ffffff" stroke="#ffffff" xlink:href="#b"/>
<use x="600.703571" y="948.497499" fill="#ffffff" stroke="#ffffff" xlink:href="#b"/>
<use x="105.050382" y="948.497499" fill="#ffffff" stroke="#ffffff" xlink:href="#b"/>
<use x="113.077155" y="948.497499" fill="#ffffff" stroke="#ffffff" xlink:href="#b"/>
<use x="123.11062" y="948.497499" fill="#ffffff" stroke="#ffffff" xlink:href="#b"/>
<use x="135.150778" y="948.497499" fill="#ffffff" stroke="#ffffff" xlink:href="#b"/>
<use x="164.849836" y="800.417855" fill="#ffffff" stroke="#ffffff" xlink:href="#b"/>
<use x="149.19763" y="948.497499" fill="#ffffff" stroke="#ffffff" xlink:href="#b"/>
<use x="165.251174" y="948.497499" fill="#ffffff" stroke="#ffffff" xlink:href="#b"/>
<use x="183.311412" y="948.497499" fill="#ffffff" stroke="#ffffff" xlink:href="#b"/>
<use x="203.378343" y="948.497499" fill="#ffffff" stroke="#ffffff" xlink:href="#b"/>
<use x="723.411923" y="352.457834" fill="#808080" stroke="#808080" xlink:href="#b"/>
<use x="99.030303" y="948.497499" fill="#ffffff" stroke="#ffffff" xlink:href="#b"/>
<use x="225.451966" y="948.497499" fill="#ffffff" stroke="#ffffff" xlink:href="#b"/>
<use x="303.712996" y="948.497499" fill="#ffffff" stroke="#ffffff" xlink:href="#b"/>
<use x="646.857511" y="948.497499" fill="#ffffff" stroke="#ffffff" xlink:href="#b"/>
<use x="1357.226858" y="948.497499" fill="#ffffff" stroke="#ffffff" xlink:href="#b"/>
<use x="2079.636364" y="948.497499" fill="#ffffff" stroke="#ffffff" xlink:href="#b"/>
</g>
<g clip-path="url(#a)">
<defs>
<path id="at" d="m4.8906 31.391h26.312v-8h-26.312z"/>
</defs>
<g transform="translate(97.226 1097.3) scale(.1 -.1)">
<use xlink:href="#at"/>
</g>
</g>
<g clip-path="url(#a)">
<defs>
<path id="as" d="m39.406 66.219q-10.75 0-17.078-8.0156-6.3125-8-6.3125-21.828 0-13.766 6.3125-21.781 6.3281-8 17.078-8 10.734 0 17.016 8 6.2812 8.0156 6.2812 21.781 0 13.828-6.2812 21.828-6.2812 8.0156-17.016 8.0156zm13.812-64.906 13-14.203h-11.922l-10.797 11.672q-1.6094-0.09375-2.4688-0.14062-0.84375-0.0625-1.625-0.0625-15.375 0-24.594 10.281-9.2031 10.281-9.2031 27.516 0 17.281 9.2031 27.562 9.2188 10.281 24.594 10.281 15.328 0 24.5-10.281 9.1875-10.281 9.1875-27.562 0-12.688-5.1094-21.734-5.0938-9.0312-14.766-13.328z"/>
<path id="s" d="m8.5 21.578v33.109h8.9844v-32.766q0-7.7656 3.0156-11.656 3.0312-3.875 9.0938-3.875 7.2656 0 11.484 4.6406 4.2344 4.6406 4.2344 12.656v31h8.9844v-54.688h-8.9844v8.4062q-3.2656-4.9844-7.5938-7.4062-4.3125-2.4219-10.031-2.4219-9.4219 0-14.312 5.8594-4.875 5.8594-4.875 17.141z"/>
</defs>
<g transform="translate(94.869 1097.3) scale(.1 -.1)">
<use xlink:href="#as"/>
<use x="78.710938" xlink:href="#s"/>
<use x="142.089844" xlink:href="#d"/>
</g>
</g>
<g clip-path="url(#a)">
<defs>
<path id="u" d="m30.609 48.391q-7.2188 0-11.422-5.6406t-4.2031-15.453 4.1719-15.453q4.1875-5.6406 11.453-5.6406 7.1875 0 11.375 5.6562 4.2031 5.6719 4.2031 15.438 0 9.7188-4.2031 15.406-4.1875 5.6875-11.375 5.6875zm0 7.6094q11.719 0 18.406-7.625 6.7031-7.6094 6.7031-21.078 0-13.422-6.7031-21.078-6.6875-7.6406-18.406-7.6406-11.766 0-18.438 7.6406-6.6562 7.6562-6.6562 21.078 0 13.469 6.6562 21.078 6.6719 7.625 18.438 7.625z"/>
<path id="x" d="m44.281 53.078v-8.5q-3.7969 1.9531-7.9062 2.9219-4.0938 0.98438-8.5 0.98438-6.6875 0-10.031-2.0469t-3.3438-6.1562q0-3.125 2.3906-4.9062t9.625-3.3906l3.0781-0.6875q9.5625-2.0469 13.594-5.7812t4.0312-10.422q0-7.625-6.0312-12.078-6.0312-4.4375-16.578-4.4375-4.3906 0-9.1562 0.85938t-10.031 2.5625v9.2812q4.9844-2.5938 9.8125-3.8906 4.8281-1.2812 9.5781-1.2812 6.3438 0 9.75 2.1719 3.4219 2.1719 3.4219 6.125 0 3.6562-2.4688 5.6094-2.4531 1.9531-10.812 3.7656l-3.125 0.73438q-8.3438 1.75-12.062 5.3906-3.7031 3.6406-3.7031 9.9844 0 7.7188 5.4688 11.906 5.4688 4.2031 15.531 4.2031 4.9688 0 9.3594-0.73438 4.4062-0.71875 8.1094-2.1875z"/>
</defs>
<g transform="translate(89.684 1097.3) scale(.1 -.1)">
<use xlink:href="#k"/>
<use x="97.412109" xlink:href="#u"/>
<use x="158.59375" xlink:href="#h"/>
<use x="221.972656" xlink:href="#x"/>
<use x="274.072266" xlink:href="#f"/>
<use x="301.855469" xlink:href="#d"/>
<use x="363.378906" xlink:href="#s"/>
<use x="426.757812" xlink:href="#g"/>
</g>
</g>
<g clip-path="url(#a)">
<g transform="translate(115.16 1097.3) scale(.1 -.1)">
<use xlink:href="#k"/>
<use x="97.412109" xlink:href="#d"/>
</g>
</g>
<g clip-path="url(#a)">
<defs>
<path id="t" d="m18.109 8.2031v-29h-9.0312v75.484h9.0312v-8.2969q2.8438 4.875 7.1562 7.2344 4.3281 2.375 10.328 2.375 9.9688 0 16.188-7.9062 6.2344-7.9062 6.2344-20.797t-6.2344-20.812q-6.2188-7.9062-16.188-7.9062-6 0-10.328 2.375-4.3125 2.375-7.1562 7.25zm30.578 19.094q0 9.9062-4.0781 15.547t-11.203 5.6406q-7.1406 0-11.219-5.6406t-4.0781-15.547 4.0781-15.547 11.219-5.6406q7.125 0 11.203 5.6406t4.0781 15.547z"/>
<path id="r" d="m18.312 70.219v-15.531h18.5v-6.9844h-18.5v-29.688q0-6.6875 1.8281-8.5938t7.4531-1.9062h9.2188v-7.5156h-9.2188q-10.406 0-14.359 3.875-3.9531 3.8906-3.9531 14.141v29.688h-6.5938v6.9844h6.5938v15.531z"/>
</defs>
<g transform="translate(111.99 1097.3) scale(.1 -.1)">
<use xlink:href="#t"/>
<use x="63.476562" xlink:href="#d"/>
<use x="125" xlink:href="#g"/>
<use x="164.363281" xlink:href="#k"/>
<use x="261.775391" xlink:href="#d"/>
<use x="323.298828" xlink:href="#r"/>
<use x="362.507812" xlink:href="#r"/>
<use x="401.716797" xlink:href="#d"/>
</g>
</g>
<g clip-path="url(#a)">
<defs>
<path id="ah" d="m45.406 46.391v29.594h8.9844v-75.984h-8.9844v8.2031q-2.8281-4.875-7.1562-7.25-4.3125-2.375-10.375-2.375-9.9062 0-16.141 7.9062-6.2188 7.9219-6.2188 20.812t6.2188 20.797q6.2344 7.9062 16.141 7.9062 6.0625 0 10.375-2.375 4.3281-2.3594 7.1562-7.2344zm-30.609-19.094q0-9.9062 4.0781-15.547t11.203-5.6406 11.219 5.6406q4.1094 5.6406 4.1094 15.547t-4.1094 15.547q-4.0938 5.6406-11.219 5.6406t-11.203-5.6406-4.0781-15.547z"/>
</defs>
<g transform="translate(142.95 1097.3) scale(.1 -.1)">
<use xlink:href="#ah"/>
<use x="63.476562" xlink:href="#d"/>
</g>
</g>
<g clip-path="url(#a)">
<g transform="translate(160.79 1097.3) scale(.1 -.1)">
<use xlink:href="#i"/>
<use x="27.783203" xlink:href="#d"/>
</g>
</g>
<g clip-path="url(#a)">
<g transform="translate(177.36 1097.3) scale(.1 -.1)">
<use xlink:href="#i"/>
<use x="27.783203" xlink:href="#s"/>
<use x="91.162109" xlink:href="#f"/>
</g>
</g>
<g clip-path="url(#a)">
<g transform="translate(193.8 1097.3) scale(.1 -.1)">
<use xlink:href="#ah"/>
<use x="63.476562" xlink:href="#f"/>
<use x="91.259766" xlink:href="#g"/>
<use x="130.123047" xlink:href="#d"/>
</g>
</g>
<g clip-path="url(#a)">
<defs>
<path id="aj" d="m11.719 12.406h10.297v-8.4062l-8-15.625h-6.2969l4 15.625z"/>
</defs>
<g transform="translate(223.86 1097.3) scale(.1 -.1)">
<use xlink:href="#aj"/>
</g>
</g>
<g clip-path="url(#a)">
<defs>
<path id="ak" d="m56.203 29.594v-4.3906h-41.312q0.59375-9.2812 5.5938-14.141t13.938-4.8594q5.1719 0 10.031 1.2656t9.6562 3.8125v-8.5q-4.8438-2.0469-9.9219-3.125t-10.297-1.0781q-13.094 0-20.734 7.6094-7.6406 7.625-7.6406 20.625 0 13.422 7.25 21.297 7.25 7.8906 19.562 7.8906 11.031 0 17.453-7.1094 6.4219-7.0938 6.4219-19.297zm-8.9844 2.6406q-0.09375 7.3594-4.125 11.75-4.0312 4.4062-10.672 4.4062-7.5156 0-12.031-4.25t-5.2031-11.969zm-8.6875 47.75h9.7188l-15.906-18.359h-7.4844z"/>
</defs>
<g transform="translate(228.59 1097.5) scale(.1 -.1)">
<use xlink:href="#g"/>
<use x="38.863281" xlink:href="#ak"/>
<use x="100.386719" xlink:href="#t"/>
<use x="163.863281" xlink:href="#u"/>
<use x="225.044922" xlink:href="#h"/>
<use x="288.423828" xlink:href="#ah"/>
<use x="351.900391" xlink:href="#f"/>
<use x="379.683594" xlink:href="#r"/>
</g>
</g>
<g clip-path="url(#a)">
<g transform="translate(257.44 1097.3) scale(.1 -.1)">
<use xlink:href="#z"/>
<use x="69.824219" xlink:href="#u"/>
<use x="131.005859" xlink:href="#h"/>
<use x="194.384766" xlink:href="#x"/>
<use x="246.484375" xlink:href="#d"/>
<use x="308.007812" xlink:href="#f"/>
<use x="335.791016" xlink:href="#i"/>
</g>
</g>
<g clip-path="url(#a)">
<g transform="translate(302.12 1097.3) scale(.1 -.1)">
<use xlink:href="#aj"/>
</g>
</g>
<g clip-path="url(#a)">
<defs>
<path id="aq" d="m9.4219 54.688h8.9844v-55.672q0-10.438-3.9844-15.125-3.9688-4.6875-12.812-4.6875h-3.4219v7.6094h2.4062q5.125 0 6.9688 2.375 1.8594 2.3594 1.8594 9.8281zm0 21.297h8.9844v-11.391h-8.9844z"/>
</defs>
<g transform="translate(329.35 1097.3) scale(.1 -.1)">
<use xlink:href="#aq"/>
<use x="27.783203" xlink:href="#d"/>
</g>
</g>
<g clip-path="url(#a)">
<defs>
<path id="ao" d="m17.922 72.906v-27.109h-8.2969v27.109z"/>
</defs>
<g transform="translate(361.38 1097.3) scale(.1 -.1)">
<use xlink:href="#h"/>
<use x="63.378906" xlink:href="#ao"/>
</g>
</g>
<g clip-path="url(#a)">
<g transform="translate(395.58 1097.3) scale(.1 -.1)">
<use xlink:href="#j"/>
<use x="61.279297" xlink:href="#f"/>
</g>
</g>
<g clip-path="url(#a)">
<g transform="translate(419.77 1097.3) scale(.1 -.1)">
<use xlink:href="#aq"/>
<use x="27.783203" xlink:href="#j"/>
<use x="89.0625" xlink:href="#k"/>
<use x="186.474609" xlink:href="#j"/>
<use x="247.753906" xlink:href="#f"/>
<use x="275.537109" xlink:href="#x"/>
</g>
</g>
<g clip-path="url(#a)">
<defs>
<path id="al" d="m48.781 52.594v-8.4062q-3.8125 2.1094-7.6406 3.1562t-7.7344 1.0469q-8.75 0-13.594-5.5469-4.8281-5.5312-4.8281-15.547t4.8281-15.562q4.8438-5.5312 13.594-5.5312 3.9062 0 7.7344 1.0469t7.6406 3.1562v-8.3125q-3.7656-1.75-7.7969-2.625-4.0156-0.89062-8.5625-0.89062-12.359 0-19.641 7.7656-7.2656 7.7656-7.2656 20.953 0 13.375 7.3438 21.031 7.3594 7.6719 20.156 7.6719 4.1406 0 8.0938-0.85938 3.9531-0.84375 7.6719-2.5469z"/>
</defs>
<g transform="translate(455.39 1097.5) scale(.1 -.1)">
<use xlink:href="#al"/>
<use x="54.980469" xlink:href="#u"/>
<use x="116.162109" xlink:href="#k"/>
<use x="213.574219" xlink:href="#t"/>
<use x="277.050781" xlink:href="#r"/>
<use x="316.259766" xlink:href="#ak"/>
</g>
</g>
<g clip-path="url(#a)">
<g transform="translate(506.59 1097.3) scale(.1 -.1)">
<use xlink:href="#x"/>
<use x="52.099609" xlink:href="#s"/>
<use x="115.478516" xlink:href="#g"/>
</g>
</g>
<g clip-path="url(#a)">
<g transform="translate(543.73 1097.3) scale(.1 -.1)">
<use xlink:href="#al"/>
<use x="54.980469" xlink:href="#d"/>
<use x="116.503906" xlink:href="#r"/>
<use x="155.712891" xlink:href="#r"/>
<use x="194.921875" xlink:href="#d"/>
</g>
</g>
<g clip-path="url(#a)">
<g transform="translate(586.14 1097.3) scale(.1 -.1)">
<use xlink:href="#t"/>
<use x="63.476562" xlink:href="#g"/>
<use x="104.589844" xlink:href="#f"/>
<use x="132.373047" xlink:href="#k"/>
<use x="229.785156" xlink:href="#d"/>
</g>
</g>
<g clip-path="url(#a)">
<g transform="translate(645.27 1097.3) scale(.1 -.1)">
<use xlink:href="#aj"/>
</g>
</g>
<g clip-path="url(#a)">
<g transform="translate(689.98 1097.3) scale(.1 -.1)">
<use xlink:href="#d"/>
<use x="61.523438" xlink:href="#r"/>
</g>
</g>
<g clip-path="url(#a)">
<g transform="translate(740.72 1097.3) scale(.1 -.1)">
<use xlink:href="#i"/>
<use x="27.783203" xlink:href="#d"/>
</g>
</g>
<g clip-path="url(#a)">
<defs>
<path id="au" d="m45.406 27.984q0 9.7656-4.0312 15.125-4.0156 5.375-11.297 5.375-7.2188 0-11.25-5.375-4.0312-5.3594-4.0312-15.125 0-9.7188 4.0312-15.094t11.25-5.375q7.2812 0 11.297 5.375 4.0312 5.375 4.0312 15.094zm8.9844-21.203q0-13.953-6.2031-20.766-6.1875-6.8125-18.984-6.8125-4.7344 0-8.9375 0.70312t-8.1562 2.1719v8.7344q3.9531-2.1406 7.8125-3.1562 3.8594-1.0312 7.8594-1.0312 8.8438 0 13.234 4.6094t4.3906 13.938v4.4531q-2.7812-4.8438-7.125-7.2344t-10.406-2.3906q-10.047 0-16.203 7.6562-6.1562 7.6719-6.1562 20.328 0 12.688 6.1562 20.344 6.1562 7.6719 16.203 7.6719 6.0625 0 10.406-2.3906t7.125-7.2188v8.2969h8.9844z"/>
<path id="ap" d="m2.9844 54.688h9.5156l17.094-45.891 17.094 45.891h9.5156l-20.516-54.688h-12.203z"/>
</defs>
<g transform="translate(760.63 1097.3) scale(.1 -.1)">
<use xlink:href="#au"/>
<use x="63.476562" xlink:href="#u"/>
<use x="124.658203" xlink:href="#s"/>
<use x="188.037109" xlink:href="#ap"/>
<use x="247.216797" xlink:href="#d"/>
<use x="308.740234" xlink:href="#g"/>
<use x="348.103516" xlink:href="#h"/>
<use x="411.482422" xlink:href="#d"/>
<use x="473.005859" xlink:href="#k"/>
<use x="570.417969" xlink:href="#d"/>
<use x="631.941406" xlink:href="#h"/>
<use x="695.320312" xlink:href="#r"/>
</g>
</g>
<g clip-path="url(#a)">
<g transform="translate(845.29 1097.3) scale(.1 -.1)">
<use xlink:href="#ah"/>
<use x="63.476562" xlink:href="#d"/>
</g>
</g>
<g clip-path="url(#a)">
<g transform="translate(904.96 1097.3) scale(.1 -.1)">
<use xlink:href="#i"/>
<use x="27.783203" xlink:href="#ao"/>
</g>
</g>
<g clip-path="url(#a)">
<g transform="translate(951.48 1097.3) scale(.1 -.1)">
<use xlink:href="#v"/>
<use x="73.193359" xlink:href="#h"/>
<use x="136.572266" xlink:href="#f"/>
<use x="164.355469" xlink:href="#u"/>
<use x="225.537109" xlink:href="#h"/>
</g>
</g>
<g clip-path="url(#a)">
<g transform="translate(1007.3 1097.3) scale(.1 -.1)">
<use xlink:href="#t"/>
<use x="63.476562" xlink:href="#u"/>
<use x="124.658203" xlink:href="#s"/>
<use x="188.037109" xlink:href="#ap"/>
<use x="247.216797" xlink:href="#j"/>
<use x="308.496094" xlink:href="#f"/>
<use x="336.279297" xlink:href="#r"/>
</g>
</g>
<g clip-path="url(#a)">
<g transform="translate(1063.3 1097.3) scale(.1 -.1)">
<use xlink:href="#t"/>
<use x="63.476562" xlink:href="#g"/>
<use x="102.339844" xlink:href="#u"/>
<use x="163.521484" xlink:href="#k"/>
<use x="260.933594" xlink:href="#d"/>
<use x="322.457031" xlink:href="#r"/>
<use x="361.666016" xlink:href="#r"/>
<use x="400.875" xlink:href="#g"/>
<use x="439.738281" xlink:href="#d"/>
</g>
</g>
<g clip-path="url(#a)">
<g transform="translate(1141.6 1097.3) scale(.1 -.1)">
<use xlink:href="#al"/>
<use x="54.980469" xlink:href="#d"/>
<use x="116.503906" xlink:href="#h"/>
<use x="179.882812" xlink:href="#r"/>
</g>
</g>
<g clip-path="url(#a)">
<g transform="translate(1206.7 1097.3) scale(.1 -.1)">
<use xlink:href="#k"/>
<use x="97.412109" xlink:href="#f"/>
<use x="125.195312" xlink:href="#i"/>
<use x="152.978516" xlink:href="#i"/>
<use x="180.761719" xlink:href="#d"/>
</g>
</g>
<g clip-path="url(#a)">
<g transform="translate(1270.3 1097.3) scale(.1 -.1)">
<use xlink:href="#ah"/>
<use x="63.476562" xlink:href="#u"/>
<use x="124.658203" xlink:href="#i"/>
<use x="152.441406" xlink:href="#i"/>
<use x="180.224609" xlink:href="#j"/>
<use x="241.503906" xlink:href="#g"/>
<use x="282.617188" xlink:href="#x"/>
</g>
</g>
<g clip-path="url(#a)">
<g transform="translate(1355.6 1097.3) scale(.1 -.1)">
<use xlink:href="#aj"/>
</g>
</g>
<g clip-path="url(#a)">
<g transform="translate(1426.7 1097.3) scale(.1 -.1)">
<use xlink:href="#f"/>
<use x="27.783203" xlink:href="#i"/>
</g>
</g>
<g clip-path="url(#a)">
<g transform="translate(1499.2 1097.3) scale(.1 -.1)">
<use xlink:href="#h"/>
<use x="63.378906" xlink:href="#ao"/>
</g>
</g>
<g clip-path="url(#a)">
<g transform="translate(1573.7 1097.3) scale(.1 -.1)">
<use xlink:href="#d"/>
<use x="61.523438" xlink:href="#h"/>
</g>
</g>
<g clip-path="url(#a)">
<g transform="translate(1643.5 1097.3) scale(.1 -.1)">
<use xlink:href="#j"/>
<use x="61.279297" xlink:href="#s"/>
<use x="124.658203" xlink:href="#g"/>
<use x="165.771484" xlink:href="#j"/>
<use x="227.050781" xlink:href="#f"/>
<use x="254.833984" xlink:href="#r"/>
</g>
</g>
<g clip-path="url(#a)">
<g transform="translate(1729.7 1097.3) scale(.1 -.1)">
<use xlink:href="#t"/>
<use x="63.476562" xlink:href="#j"/>
<use x="124.755859" xlink:href="#x"/>
</g>
</g>
<g clip-path="url(#a)">
<g transform="translate(1812.7 1097.3) scale(.1 -.1)">
<use xlink:href="#ak"/>
<use x="61.523438" xlink:href="#r"/>
<use x="100.732422" xlink:href="#ak"/>
</g>
</g>
<g clip-path="url(#a)">
<g transform="translate(1894.7 1097.3) scale(.1 -.1)">
<use xlink:href="#t"/>
<use x="63.476562" xlink:href="#i"/>
<use x="91.259766" xlink:href="#s"/>
<use x="154.638672" xlink:href="#x"/>
</g>
</g>
<g clip-path="url(#a)">
<g transform="translate(1974 1097.3) scale(.1 -.1)">
<use xlink:href="#t"/>
<use x="63.476562" xlink:href="#j"/>
<use x="124.755859" xlink:href="#s"/>
<use x="188.134766" xlink:href="#ap"/>
<use x="247.314453" xlink:href="#g"/>
<use x="286.177734" xlink:href="#d"/>
</g>
</g>
<g clip-path="url(#a)">
<defs>
<path id="e" d="m10.688 12.406h10.312v-12.406h-10.312z"/>
</defs>
<g transform="translate(2078 1097.3) scale(.1 -.1)">
<use xlink:href="#e"/>
</g>
</g>
<g clip-path="url(#a)">
<defs>
<path id="c" d="m12.406 8.2969h16.109v55.625l-17.531-3.5156v8.9844l17.438 3.5156h9.8594v-64.609h16.109v-8.2969h-41.984z"/>
</defs>
<g transform="translate(356.97 54.881) scale(.1 -.1)">
<use xlink:href="#c"/>
<use x="63.623047" xlink:href="#e"/>
<use x="95.410156" xlink:href="#c"/>
</g>
</g>
<g clip-path="url(#a)">
<defs>
<path id="p" d="m19.188 8.2969h34.422v-8.2969h-46.281v8.2969q5.6094 5.8125 15.297 15.594 9.7031 9.7969 12.188 12.641 4.7344 5.3125 6.6094 9 1.8906 3.6875 1.8906 7.25 0 5.8125-4.0781 9.4688-4.0781 3.6719-10.625 3.6719-4.6406 0-9.7969-1.6094-5.1406-1.6094-11-4.8906v9.9688q5.9531 2.3906 11.125 3.6094 5.1875 1.2188 9.4844 1.2188 11.328 0 18.062-5.6719 6.7344-5.6562 6.7344-15.125 0-4.5-1.6875-8.5312-1.6719-4.0156-6.125-9.4844-1.2188-1.4219-7.7656-8.1875-6.5312-6.7656-18.453-18.922z"/>
</defs>
<g transform="translate(356.97 205.17) scale(.1 -.1)">
<use xlink:href="#c"/>
<use x="63.623047" xlink:href="#e"/>
<use x="95.410156" xlink:href="#p"/>
</g>
</g>
<g clip-path="url(#a)">
<defs>
<path id="q" d="m40.578 39.312q7.0781-1.5156 11.047-6.3125 3.9844-4.7812 3.9844-11.812 0-10.781-7.4219-16.703-7.4219-5.9062-21.094-5.9062-4.5781 0-9.4375 0.90625t-10.031 2.7188v9.5156q4.0938-2.3906 8.9688-3.6094 4.8906-1.2188 10.219-1.2188 9.2656 0 14.125 3.6562t4.8594 10.641q0 6.4531-4.5156 10.078-4.5156 3.6406-12.562 3.6406h-8.5v8.1094h8.8906q7.2656 0 11.125 2.9062t3.8594 8.375q0 5.6094-3.9844 8.6094-3.9688 3.0156-11.391 3.0156-4.0625 0-8.7031-0.89062-4.6406-0.875-10.203-2.7188v8.7812q5.625 1.5625 10.531 2.3438t9.25 0.78125q11.234 0 17.766-5.1094 6.5469-5.0938 6.5469-13.781 0-6.0625-3.4688-10.234t-9.8594-5.7812z"/>
</defs>
<g transform="translate(762.34 355.22) scale(.1 -.1)">
<use xlink:href="#c"/>
<use x="63.623047" xlink:href="#e"/>
<use x="95.410156" xlink:href="#q"/>
</g>
</g>
<g clip-path="url(#a)">
<defs>
<path id="o" d="m37.797 64.312-24.906-38.922h24.906zm-2.5938 8.5938h12.406v-47.516h10.406v-8.2031h-10.406v-17.188h-9.8125v17.188h-32.906v9.5156z"/>
</defs>
<g transform="translate(241.58 951.26) scale(.1 -.1)">
<use xlink:href="#c"/>
<use x="63.623047" xlink:href="#e"/>
<use x="95.410156" xlink:href="#o"/>
</g>
</g>
<g clip-path="url(#a)">
<defs>
<path id="n" d="m10.797 72.906h38.719v-8.3125h-29.688v-17.859q2.1406 0.73438 4.2812 1.0938 2.1562 0.35938 4.3125 0.35938 12.203 0 19.328-6.6875 7.1406-6.6875 7.1406-18.109 0-11.766-7.3281-18.297-7.3281-6.5156-20.656-6.5156-4.5938 0-9.3594 0.78125-4.75 0.78125-9.8281 2.3438v9.9219q4.3906-2.3906 9.0781-3.5625t9.9062-1.1719q8.4531 0 13.375 4.4375 4.9375 4.4375 4.9375 12.062 0 7.6094-4.9375 12.047-4.9219 4.4531-13.375 4.4531-3.9531 0-7.8906-0.875-3.9219-0.875-8.0156-2.7344z"/>
</defs>
<g transform="translate(267.67 951.26) scale(.1 -.1)">
<use xlink:href="#c"/>
<use x="63.623047" xlink:href="#e"/>
<use x="95.410156" xlink:href="#n"/>
</g>
</g>
<g clip-path="url(#a)">
<defs>
<path id="ab" d="m31.781 34.625q-7.0312 0-11.062-3.7656-4.0156-3.7656-4.0156-10.344 0-6.5938 4.0156-10.359 4.0312-3.7656 11.062-3.7656t11.078 3.7812q4.0625 3.7969 4.0625 10.344 0 6.5781-4.0312 10.344-4.0156 3.7656-11.109 3.7656zm-9.8594 4.1875q-6.3438 1.5625-9.8906 5.9062-3.5312 4.3594-3.5312 10.609 0 8.7344 6.2188 13.812 6.2344 5.0781 17.062 5.0781 10.891 0 17.094-5.0781t6.2031-13.812q0-6.25-3.5469-10.609-3.5312-4.3438-9.8281-5.9062 7.125-1.6562 11.094-6.5 3.9844-4.8281 3.9844-11.797 0-10.609-6.4688-16.281-6.4688-5.6562-18.531-5.6562-12.047 0-18.531 5.6562-6.4688 5.6719-6.4688 16.281 0 6.9688 4 11.797 4.0156 4.8438 11.141 6.5zm-3.6094 15.578q0-5.6562 3.5312-8.8281 3.5469-3.1719 9.9375-3.1719 6.3594 0 9.9375 3.1719 3.5938 3.1719 3.5938 8.8281 0 5.6719-3.5938 8.8438-3.5781 3.1719-9.9375 3.1719-6.3906 0-9.9375-3.1719-3.5312-3.1719-3.5312-8.8438z"/>
</defs>
<g transform="translate(120.3 654.32) scale(.1 -.1)">
<use xlink:href="#c"/>
<use x="63.623047" xlink:href="#e"/>
<use x="95.410156" xlink:href="#ab"/>
</g>
</g>
<g clip-path="url(#a)">
<defs>
<path id="aa" d="m10.984 1.5156v8.9844q3.7188-1.7656 7.5156-2.6875 3.8125-0.92188 7.4844-0.92188 9.7656 0 14.906 6.5625 5.1562 6.5625 5.8906 19.953-2.8281-4.2031-7.1875-6.4531-4.3438-2.25-9.6094-2.25-10.938 0-17.312 6.6094-6.375 6.625-6.375 18.109 0 11.219 6.6406 18 6.6406 6.7969 17.672 6.7969 12.656 0 19.312-9.7031 6.6719-9.6875 6.6719-28.141 0-17.234-8.1875-27.516-8.1719-10.281-21.984-10.281-3.7188 0-7.5312 0.73438-3.7969 0.73438-7.9062 2.2031zm19.625 30.906q6.6406 0 10.516 4.5312 3.8906 4.5469 3.8906 12.469 0 7.8594-3.8906 12.422-3.875 4.5625-10.516 4.5625t-10.516-4.5625-3.875-12.422q0-7.9219 3.875-12.469 3.875-4.5312 10.516-4.5312z"/>
</defs>
<g transform="translate(425.33 654.32) scale(.1 -.1)">
<use xlink:href="#c"/>
<use x="63.623047" xlink:href="#e"/>
<use x="95.410156" xlink:href="#aa"/>
</g>
</g>
<g clip-path="url(#a)">
<defs>
<path id="ac" d="m31.781 66.406q-7.6094 0-11.453-7.5-3.8281-7.4844-3.8281-22.531 0-14.984 3.8281-22.484 3.8438-7.5 11.453-7.5 7.6719 0 11.5 7.5 3.8438 7.5 3.8438 22.484 0 15.047-3.8438 22.531-3.8281 7.5-11.5 7.5zm0 7.8125q12.266 0 18.734-9.7031 6.4688-9.6875 6.4688-28.141 0-18.406-6.4688-28.109-6.4688-9.6875-18.734-9.6875-12.25 0-18.719 9.6875-6.4688 9.7031-6.4688 28.109 0 18.453 6.4688 28.141 6.4688 9.7031 18.719 9.7031z"/>
</defs>
<g transform="translate(683.89 951.26) scale(.1 -.1)">
<use xlink:href="#c"/>
<use x="63.623047" xlink:href="#e"/>
<use x="95.410156" xlink:href="#c"/>
<use x="159.033203" xlink:href="#ac"/>
</g>
</g>
<g clip-path="url(#a)">
<g transform="translate(1030.8 504.96) scale(.1 -.1)">
<use xlink:href="#c"/>
<use x="63.623047" xlink:href="#e"/>
<use x="95.410156" xlink:href="#c"/>
<use x="159.033203" xlink:href="#c"/>
</g>
</g>
<g clip-path="url(#a)">
<g transform="translate(1749.6 803.18) scale(.1 -.1)">
<use xlink:href="#c"/>
<use x="63.623047" xlink:href="#e"/>
<use x="95.410156" xlink:href="#c"/>
<use x="159.033203" xlink:href="#p"/>
</g>
</g>
<g clip-path="url(#a)">
<defs>
<path id="w" d="m33.016 40.375q-6.6406 0-10.531-4.5469-3.875-4.5312-3.875-12.438 0-7.8594 3.875-12.438 3.8906-4.5625 10.531-4.5625t10.516 4.5625q3.875 4.5781 3.875 12.438 0 7.9062-3.875 12.438-3.875 4.5469-10.516 4.5469zm19.578 30.922v-8.9844q-3.7188 1.75-7.5 2.6719-3.7812 0.9375-7.5 0.9375-9.7656 0-14.922-6.5938-5.1406-6.5938-5.875-19.922 2.875 4.25 7.2188 6.5156 4.3594 2.2656 9.5781 2.2656 10.984 0 17.359-6.6719 6.375-6.6562 6.375-18.125 0-11.234-6.6406-18.031-6.6406-6.7812-17.672-6.7812-12.656 0-19.344 9.6875-6.6875 9.7031-6.6875 28.109 0 17.281 8.2031 27.562t22.016 10.281q3.7188 0 7.5-0.73438t7.8906-2.1875z"/>
</defs>
<g transform="translate(1418.3 951.26) scale(.1 -.1)">
<use xlink:href="#c"/>
<use x="63.623047" xlink:href="#e"/>
<use x="95.410156" xlink:href="#c"/>
<use x="159.033203" xlink:href="#w"/>
</g>
</g>
<g clip-path="url(#a)">
<defs>
<path id="ag" d="m8.2031 72.906h46.875v-4.2031l-26.469-68.703h-10.297l24.906 64.594h-35.016z"/>
</defs>
<g transform="translate(1610 951.26) scale(.1 -.1)">
<use xlink:href="#c"/>
<use x="63.623047" xlink:href="#e"/>
<use x="95.410156" xlink:href="#c"/>
<use x="159.033203" xlink:href="#ag"/>
</g>
</g>
<g clip-path="url(#a)">
<g transform="translate(1568.8 951.26) scale(.1 -.1)">
<use xlink:href="#c"/>
<use x="63.623047" xlink:href="#e"/>
<use x="95.410156" xlink:href="#c"/>
<use x="159.033203" xlink:href="#ab"/>
</g>
</g>
<g clip-path="url(#a)">
<g transform="translate(1647.1 951.26) scale(.1 -.1)">
<use xlink:href="#c"/>
<use x="63.623047" xlink:href="#e"/>
<use x="95.410156" xlink:href="#c"/>
<use x="159.033203" xlink:href="#aa"/>
</g>
</g>
<g clip-path="url(#a)">
<g transform="translate(1809.6 951.26) scale(.1 -.1)">
<use xlink:href="#c"/>
<use x="63.623047" xlink:href="#e"/>
<use x="95.410156" xlink:href="#p"/>
<use x="159.033203" xlink:href="#ac"/>
</g>
</g>
<g clip-path="url(#a)">
<g transform="translate(1893.9 951.26) scale(.1 -.1)">
<use xlink:href="#c"/>
<use x="63.623047" xlink:href="#e"/>
<use x="95.410156" xlink:href="#p"/>
<use x="159.033203" xlink:href="#c"/>
</g>
</g>
<g clip-path="url(#a)">
<g transform="translate(1980.2 951.26) scale(.1 -.1)">
<use xlink:href="#c"/>
<use x="63.623047" xlink:href="#e"/>
<use x="95.410156" xlink:href="#p"/>
<use x="159.033203" xlink:href="#p"/>
</g>
</g>
<g clip-path="url(#a)">
<g transform="translate(805.85 654.32) scale(.1 -.1)">
<use xlink:href="#c"/>
<use x="63.623047" xlink:href="#e"/>
<use x="95.410156" xlink:href="#p"/>
<use x="159.033203" xlink:href="#o"/>
</g>
</g>
<g clip-path="url(#a)">
<g transform="translate(1015 951.26) scale(.1 -.1)">
<use xlink:href="#c"/>
<use x="63.623047" xlink:href="#e"/>
<use x="95.410156" xlink:href="#p"/>
<use x="159.033203" xlink:href="#n"/>
</g>
</g>
<g clip-path="url(#a)">
<g transform="translate(1077.2 951.26) scale(.1 -.1)">
<use xlink:href="#c"/>
<use x="63.623047" xlink:href="#e"/>
<use x="95.410156" xlink:href="#p"/>
<use x="159.033203" xlink:href="#w"/>
</g>
</g>
<g clip-path="url(#a)">
<g transform="translate(1225.2 654.32) scale(.1 -.1)">
<use xlink:href="#c"/>
<use x="63.623047" xlink:href="#e"/>
<use x="95.410156" xlink:href="#p"/>
<use x="159.033203" xlink:href="#ag"/>
</g>
</g>
<g clip-path="url(#a)">
<g transform="translate(1174.5 803.18) scale(.1 -.1)">
<use xlink:href="#c"/>
<use x="63.623047" xlink:href="#e"/>
<use x="95.410156" xlink:href="#p"/>
<use x="159.033203" xlink:href="#ab"/>
</g>
</g>
<g clip-path="url(#a)">
<g transform="translate(1275.9 951.26) scale(.1 -.1)">
<use xlink:href="#c"/>
<use x="63.623047" xlink:href="#e"/>
<use x="95.410156" xlink:href="#p"/>
<use x="159.033203" xlink:href="#aa"/>
</g>
</g>
<g clip-path="url(#a)">
<g transform="translate(1141.4 951.26) scale(.1 -.1)">
<use xlink:href="#c"/>
<use x="63.623047" xlink:href="#e"/>
<use x="95.410156" xlink:href="#q"/>
<use x="159.033203" xlink:href="#ac"/>
</g>
</g>
<g clip-path="url(#a)">
<g transform="translate(1207.6 951.26) scale(.1 -.1)">
<use xlink:href="#c"/>
<use x="63.623047" xlink:href="#e"/>
<use x="95.410156" xlink:href="#q"/>
<use x="159.033203" xlink:href="#c"/>
</g>
</g>
<g clip-path="url(#a)">
<g transform="translate(734.05 951.26) scale(.1 -.1)">
<use xlink:href="#c"/>
<use x="63.623047" xlink:href="#e"/>
<use x="95.410156" xlink:href="#q"/>
<use x="159.033203" xlink:href="#p"/>
</g>
</g>
<g clip-path="url(#a)">
<g transform="translate(786.23 951.26) scale(.1 -.1)">
<use xlink:href="#c"/>
<use x="63.623047" xlink:href="#e"/>
<use x="95.410156" xlink:href="#q"/>
<use x="159.033203" xlink:href="#q"/>
</g>
</g>
<g clip-path="url(#a)">
<g transform="translate(897.26 803.18) scale(.1 -.1)">
<use xlink:href="#c"/>
<use x="63.623047" xlink:href="#e"/>
<use x="95.410156" xlink:href="#q"/>
<use x="159.033203" xlink:href="#o"/>
</g>
</g>
<g clip-path="url(#a)">
<g transform="translate(840.41 951.26) scale(.1 -.1)">
<use xlink:href="#c"/>
<use x="63.623047" xlink:href="#e"/>
<use x="95.410156" xlink:href="#q"/>
<use x="159.033203" xlink:href="#n"/>
</g>
</g>
<g clip-path="url(#a)">
<g transform="translate(896.59 951.26) scale(.1 -.1)">
<use xlink:href="#c"/>
<use x="63.623047" xlink:href="#e"/>
<use x="95.410156" xlink:href="#q"/>
<use x="159.033203" xlink:href="#w"/>
</g>
</g>
<g clip-path="url(#a)">
<g transform="translate(954.79 951.26) scale(.1 -.1)">
<use xlink:href="#c"/>
<use x="63.623047" xlink:href="#e"/>
<use x="95.410156" xlink:href="#q"/>
<use x="159.033203" xlink:href="#ag"/>
</g>
</g>
<g clip-path="url(#a)">
<g transform="translate(322.68 951.26) scale(.1 -.1)">
<use xlink:href="#c"/>
<use x="63.623047" xlink:href="#e"/>
<use x="95.410156" xlink:href="#q"/>
<use x="159.033203" xlink:href="#ab"/>
</g>
</g>
<g clip-path="url(#a)">
<g transform="translate(389.9 951.26) scale(.1 -.1)">
<use xlink:href="#c"/>
<use x="63.623047" xlink:href="#e"/>
<use x="95.410156" xlink:href="#q"/>
<use x="159.033203" xlink:href="#aa"/>
</g>
</g>
<g clip-path="url(#a)">
<g transform="translate(388.9 951.26) scale(.1 -.1)">
<use xlink:href="#c"/>
<use x="63.623047" xlink:href="#e"/>
<use x="95.410156" xlink:href="#o"/>
<use x="159.033203" xlink:href="#ac"/>
</g>
</g>
<g clip-path="url(#a)">
<g transform="translate(463.15 951.26) scale(.1 -.1)">
<use xlink:href="#c"/>
<use x="63.623047" xlink:href="#e"/>
<use x="95.410156" xlink:href="#o"/>
<use x="159.033203" xlink:href="#c"/>
</g>
</g>
<g clip-path="url(#a)">
<g transform="translate(546.09 803.18) scale(.1 -.1)">
<use xlink:href="#c"/>
<use x="63.623047" xlink:href="#e"/>
<use x="95.410156" xlink:href="#o"/>
<use x="159.033203" xlink:href="#p"/>
</g>
</g>
<g clip-path="url(#a)">
<g transform="translate(503.28 951.26) scale(.1 -.1)">
<use xlink:href="#c"/>
<use x="63.623047" xlink:href="#e"/>
<use x="95.410156" xlink:href="#o"/>
<use x="159.033203" xlink:href="#q"/>
</g>
</g>
<g clip-path="url(#a)">
<g transform="translate(545.42 951.26) scale(.1 -.1)">
<use xlink:href="#c"/>
<use x="63.623047" xlink:href="#e"/>
<use x="95.410156" xlink:href="#o"/>
<use x="159.033203" xlink:href="#o"/>
</g>
</g>
<g clip-path="url(#a)">
<g transform="translate(589.57 951.26) scale(.1 -.1)">
<use xlink:href="#c"/>
<use x="63.623047" xlink:href="#e"/>
<use x="95.410156" xlink:href="#o"/>
<use x="159.033203" xlink:href="#n"/>
</g>
</g>
<g clip-path="url(#a)">
<g transform="translate(93.918 951.26) scale(.1 -.1)">
<use xlink:href="#c"/>
<use x="63.623047" xlink:href="#e"/>
<use x="95.410156" xlink:href="#o"/>
<use x="159.033203" xlink:href="#w"/>
</g>
</g>
<g clip-path="url(#a)">
<g transform="translate(101.94 951.26) scale(.1 -.1)">
<use xlink:href="#c"/>
<use x="63.623047" xlink:href="#e"/>
<use x="95.410156" xlink:href="#o"/>
<use x="159.033203" xlink:href="#ag"/>
</g>
</g>
<g clip-path="url(#a)">
<g transform="translate(111.98 951.26) scale(.1 -.1)">
<use xlink:href="#c"/>
<use x="63.623047" xlink:href="#e"/>
<use x="95.410156" xlink:href="#o"/>
<use x="159.033203" xlink:href="#ab"/>
</g>
</g>
<g clip-path="url(#a)">
<g transform="translate(124.02 951.26) scale(.1 -.1)">
<use xlink:href="#c"/>
<use x="63.623047" xlink:href="#e"/>
<use x="95.410156" xlink:href="#o"/>
<use x="159.033203" xlink:href="#aa"/>
</g>
</g>
<g clip-path="url(#a)">
<g transform="translate(153.72 803.18) scale(.1 -.1)">
<use xlink:href="#c"/>
<use x="63.623047" xlink:href="#e"/>
<use x="95.410156" xlink:href="#n"/>
<use x="159.033203" xlink:href="#ac"/>
</g>
</g>
<g clip-path="url(#a)">
<g transform="translate(138.06 951.26) scale(.1 -.1)">
<use xlink:href="#c"/>
<use x="63.623047" xlink:href="#e"/>
<use x="95.410156" xlink:href="#n"/>
<use x="159.033203" xlink:href="#c"/>
</g>
</g>
<g clip-path="url(#a)">
<g transform="translate(154.12 951.26) scale(.1 -.1)">
<use xlink:href="#c"/>
<use x="63.623047" xlink:href="#e"/>
<use x="95.410156" xlink:href="#n"/>
<use x="159.033203" xlink:href="#p"/>
</g>
</g>
<g clip-path="url(#a)">
<g transform="translate(172.18 951.26) scale(.1 -.1)">
<use xlink:href="#c"/>
<use x="63.623047" xlink:href="#e"/>
<use x="95.410156" xlink:href="#n"/>
<use x="159.033203" xlink:href="#q"/>
</g>
</g>
<g clip-path="url(#a)">
<g transform="translate(192.25 951.26) scale(.1 -.1)">
<use xlink:href="#c"/>
<use x="63.623047" xlink:href="#e"/>
<use x="95.410156" xlink:href="#n"/>
<use x="159.033203" xlink:href="#o"/>
</g>
</g>
<g clip-path="url(#a)">
<g transform="translate(712.28 355.22) scale(.1 -.1)">
<use xlink:href="#c"/>
<use x="63.623047" xlink:href="#e"/>
<use x="95.410156" xlink:href="#n"/>
<use x="159.033203" xlink:href="#n"/>
</g>
</g>
<g clip-path="url(#a)">
<g transform="translate(87.897 951.26) scale(.1 -.1)">
<use xlink:href="#c"/>
<use x="63.623047" xlink:href="#e"/>
<use x="95.410156" xlink:href="#n"/>
<use x="159.033203" xlink:href="#w"/>
</g>
</g>
<g clip-path="url(#a)">
<g transform="translate(214.32 951.26) scale(.1 -.1)">
<use xlink:href="#c"/>
<use x="63.623047" xlink:href="#e"/>
<use x="95.410156" xlink:href="#n"/>
<use x="159.033203" xlink:href="#ag"/>
</g>
</g>
<g clip-path="url(#a)">
<g transform="translate(292.58 951.26) scale(.1 -.1)">
<use xlink:href="#c"/>
<use x="63.623047" xlink:href="#e"/>
<use x="95.410156" xlink:href="#n"/>
<use x="159.033203" xlink:href="#ab"/>
</g>
</g>
<g clip-path="url(#a)">
<g transform="translate(635.72 951.26) scale(.1 -.1)">
<use xlink:href="#c"/>
<use x="63.623047" xlink:href="#e"/>
<use x="95.410156" xlink:href="#n"/>
<use x="159.033203" xlink:href="#aa"/>
</g>
</g>
<g clip-path="url(#a)">
<g transform="translate(1346.1 951.26) scale(.1 -.1)">
<use xlink:href="#c"/>
<use x="63.623047" xlink:href="#e"/>
<use x="95.410156" xlink:href="#w"/>
<use x="159.033203" xlink:href="#ac"/>
</g>
</g>
<g clip-path="url(#a)">
<g transform="translate(2068.5 951.26) scale(.1 -.1)">
<use xlink:href="#c"/>
<use x="63.623047" xlink:href="#e"/>
<use x="95.410156" xlink:href="#w"/>
<use x="159.033203" xlink:href="#c"/>
</g>
</g>
<defs>
<clipPath id="a">
<rect width="2178.7" height="1146.7"/>
</clipPath>
</defs>
</svg>
