<?xml version="1.0" encoding="UTF-8"?>
<!DOCTYPE svg  PUBLIC '-//W3C//DTD SVG 1.1//EN'  'http://www.w3.org/Graphics/SVG/1.1/DTD/svg11.dtd'>
<svg width="1266.7pt" height="666.67pt" version="1.1" viewBox="0 0 1266.7 666.67" xmlns="http://www.w3.org/2000/svg" xmlns:xlink="http://www.w3.org/1999/xlink">
<defs>
<style type="text/css">*{stroke-linecap:butt;stroke-linejoin:round;}</style>
</defs>
<path d="m0 666.67h1266.7v-666.67h-1266.7z" fill="#fff"/>
<g fill="none" stroke="#000">
<path d="m582.59 31.216-524.79 506.59" clip-path="url(#a)"/>
<path d="m582.59 31.216-47.577 105.83" clip-path="url(#a)"/>
<path d="m582.59 31.216 165.85 506.59" clip-path="url(#a)"/>
<path d="m582.59 31.216 286.71 209.04" clip-path="url(#a)"/>
<path d="m582.59 31.216 119.81 506.59" clip-path="url(#a)"/>
<path d="m57.802 537.81v97.643" clip-path="url(#a)"/>
<path d="m535.01 137.05 673.85 498.4" clip-path="url(#a)"/>
<path d="m535.01 137.05-377.45 204.11" clip-path="url(#a)"/>
<path d="m535.01 137.05-223.98 303.11" clip-path="url(#a)"/>
<path d="m535.01 137.05-72.421 103.21" clip-path="url(#a)"/>
<path d="m748.44 537.81v97.643" clip-path="url(#a)"/>
<path d="m869.3 240.26-74.819 297.55" clip-path="url(#a)"/>
<path d="m869.3 240.26-28.777 297.55" clip-path="url(#a)"/>
<path d="m869.3 240.26 103.6 100.91" clip-path="url(#a)"/>
<path d="m794.48 537.81v97.643" clip-path="url(#a)"/>
<path d="m840.52 537.81v97.643" clip-path="url(#a)"/>
<path d="m972.9 341.16-86.33 196.64" clip-path="url(#a)"/>
<path d="m972.9 341.16-40.287 196.64" clip-path="url(#a)"/>
<path d="m972.9 341.16 5.7553 196.64" clip-path="url(#a)"/>
<path d="m972.9 341.16 120.86 99.001" clip-path="url(#a)"/>
<path d="m886.57 537.81v97.643" clip-path="url(#a)"/>
<path d="m932.61 537.81v97.643" clip-path="url(#a)"/>
<path d="m978.65 537.81v97.643" clip-path="url(#a)"/>
<path d="m1093.8 440.16-69.064 97.643" clip-path="url(#a)"/>
<path d="m1093.8 440.16-23.021 97.643" clip-path="url(#a)"/>
<path d="m1093.8 440.16 23.021 97.643" clip-path="url(#a)"/>
<path d="m1093.8 440.16 69.064 97.643" clip-path="url(#a)"/>
<path d="m1024.7 537.81v97.643" clip-path="url(#a)"/>
<path d="m1070.7 537.81v97.643" clip-path="url(#a)"/>
<path d="m1116.8 537.81v97.643" clip-path="url(#a)"/>
<path d="m157.56 341.16-53.716 196.64" clip-path="url(#a)"/>
<path d="m157.56 341.16-7.6737 196.64" clip-path="url(#a)"/>
<path d="m157.56 341.16 61.39 99.001" clip-path="url(#a)"/>
<path d="m311.04 440.16-23.021 97.643" clip-path="url(#a)"/>
<path d="m311.04 440.16 23.021 97.643" clip-path="url(#a)"/>
<path d="m462.59 240.26-82.493 297.55" clip-path="url(#a)"/>
<path d="m462.59 240.26-36.45 297.55" clip-path="url(#a)"/>
<path d="m462.59 240.26 9.5922 297.55" clip-path="url(#a)"/>
<path d="m462.59 240.26 109.35 100.91" clip-path="url(#a)"/>
<path d="m380.1 537.81v97.643" clip-path="url(#a)"/>
<path d="m426.14 537.81v97.643" clip-path="url(#a)"/>
<path d="m472.18 537.81v97.643" clip-path="url(#a)"/>
<path d="m571.94 341.16-53.716 196.64" clip-path="url(#a)"/>
<path d="m571.94 341.16-7.6737 196.64" clip-path="url(#a)"/>
<path d="m571.94 341.16 61.39 99.001" clip-path="url(#a)"/>
<path d="m518.23 537.81v97.643" clip-path="url(#a)"/>
<path d="m564.27 537.81v97.643" clip-path="url(#a)"/>
<path d="m633.33 440.16-23.021 97.643" clip-path="url(#a)"/>
<path d="m633.33 440.16 23.021 97.643" clip-path="url(#a)"/>
<path d="m610.31 537.81v97.643" clip-path="url(#a)"/>
<path d="m656.35 537.81v97.643" clip-path="url(#a)"/>
<path d="m288.01 537.81v97.643" clip-path="url(#a)"/>
<path d="m334.06 537.81v97.643" clip-path="url(#a)"/>
<path d="m103.84 537.81v97.643" clip-path="url(#a)"/>
<path d="m149.89 537.81v97.643" clip-path="url(#a)"/>
<path d="m218.95 440.16-23.021 97.643" clip-path="url(#a)"/>
<path d="m218.95 440.16 23.021 97.643" clip-path="url(#a)"/>
<path d="m195.93 537.81v97.643" clip-path="url(#a)"/>
<path d="m241.97 537.81v97.643" clip-path="url(#a)"/>
<path d="m717.58 31.216-182.57 105.83" clip-path="url(#a)"/>
<path d="m717.58 31.216 30.855 506.59" clip-path="url(#a)"/>
<path d="m717.58 31.216 151.72 209.04" clip-path="url(#a)"/>
<path d="m702.4 537.81v97.643" clip-path="url(#a)"/>
<path d="m1162.8 537.81v97.643" clip-path="url(#a)"/>
</g>
<path d="m322.95 290.57 3.207-3.0958q1.7267-1.6669 0.059874-3.3936l-5.3773-5.5705q-1.6669-1.7267-3.3936-0.059874l-3.207 3.0958q-1.7267 1.6669-0.059874 3.3936l5.3773 5.5705q1.6669 1.7267 3.3936 0.059874z" clip-path="url(#a)" fill="#fff" stroke="#fff"/>
<g clip-path="url(#a)">
<defs>
<path id="u" d="m9.8125 72.906h9.8594v-64.609h35.5v-8.2969h-45.359z"/>
</defs>
<g transform="translate(320.13 287.65) rotate(-43.989) scale(.08 -.08)">
<use xlink:href="#u"/>
</g>
</g>
<path d="m563.29 89.448 2.4668-5.4873q0.98405-2.189-1.2049-3.173l-7.0617-3.1746q-2.189-0.98405-3.173 1.2049l-2.4668 5.4873q-0.98405 2.189 1.2049 3.173l7.0617 3.1746q2.189 0.98405 3.173-1.2049z" clip-path="url(#a)" fill="#fff" stroke="#fff"/>
<g clip-path="url(#a)">
<defs>
<path id="ak" d="m9.8125 72.906h9.8594v-29.891h35.844v29.891h9.8594v-72.906h-9.8594v34.719h-35.844v-34.719h-9.8594z"/>
</defs>
<g transform="translate(559.58 87.782) rotate(-65.794) scale(.08 -.08)">
<use xlink:href="#ak"/>
</g>
</g>
<path d="m658.86 284.35 1.3869 4.2363q0.74672 2.2809 3.0276 1.5342l7.3582-2.4089q2.2809-0.74672 1.5342-3.0276l-1.3869-4.2363q-0.74672-2.2809-3.0276-1.5342l-7.3582 2.4089q-2.2809 0.74672-1.5342 3.0276z" clip-path="url(#a)" fill="#fff" stroke="#fff"/>
<g clip-path="url(#a)">
<g transform="translate(662.72 283.08) rotate(71.872) scale(.08 -.08)">
<use xlink:href="#u"/>
</g>
</g>
<path d="m719.82 139.03 4.8613 3.5444q1.9393 1.4139 3.3532-0.52535l4.5614-6.2562q1.4139-1.9393-0.52535-3.3532l-4.8613-3.5444q-1.9393-1.4139-3.3532 0.52535l-4.5614 6.2562q-1.4139 1.9393 0.52535 3.3532z" clip-path="url(#a)" fill="#fff" stroke="#fff"/>
<g clip-path="url(#a)">
<g transform="translate(722.21 135.75) rotate(36.096) scale(.08 -.08)">
<use xlink:href="#ak"/>
</g>
</g>
<path d="m635.72 283.11 1.3475 5.6978q0.55235 2.3356 2.8879 1.7832l7.5347-1.7819q2.3356-0.55235 1.7832-2.8879l-1.3475-5.6978q-0.55235-2.3356-2.8879-1.7832l-7.5347 1.7819q-2.3356 0.55235-1.7832 2.8879z" clip-path="url(#a)" fill="#fff" stroke="#fff"/>
<g clip-path="url(#a)">
<defs>
<path id="aj" d="m8.6875 72.906h9.9219v-44.297q0-11.719 4.2344-16.875 4.25-5.1406 13.781-5.1406 9.4688 0 13.719 5.1406 4.25 5.1562 4.25 16.875v44.297h9.9062v-45.516q0-14.25-7.0625-21.531-7.0469-7.2812-20.812-7.2812-13.828 0-20.891 7.2812-7.0469 7.2812-7.0469 21.531z"/>
</defs>
<g transform="translate(639.67 282.17) rotate(76.694) scale(.08 -.08)">
<use xlink:href="#aj"/>
</g>
</g>
<path d="m51.531 568.99v35.285q0 2.4 2.4 2.4h7.7425q2.4 0 2.4-2.4v-35.285q0-2.4-2.4-2.4h-7.7425q-2.4 0-2.4 2.4z" clip-path="url(#a)" fill="#fff" stroke="#fff"/>
<g clip-path="url(#a)">
<defs>
<path id="k" d="m-0.29688 72.906h61.672v-8.3125h-25.875v-64.594h-9.9062v64.594h-25.891z"/>
<path id="e" d="m56.203 29.594v-4.3906h-41.312q0.59375-9.2812 5.5938-14.141t13.938-4.8594q5.1719 0 10.031 1.2656t9.6562 3.8125v-8.5q-4.8438-2.0469-9.9219-3.125t-10.297-1.0781q-13.094 0-20.734 7.6094-7.6406 7.625-7.6406 20.625 0 13.422 7.25 21.297 7.25 7.8906 19.562 7.8906 11.031 0 17.453-7.1094 6.4219-7.0938 6.4219-19.297zm-8.9844 2.6406q-0.09375 7.3594-4.125 11.75-4.0312 4.4062-10.672 4.4062-7.5156 0-12.031-4.25t-5.2031-11.969z"/>
<path id="i" d="m41.109 46.297q-1.5156 0.875-3.2969 1.2812-1.7812 0.42188-3.9219 0.42188-7.625 0-11.703-4.9531t-4.0781-14.234v-28.812h-9.0312v54.688h9.0312v-8.5q2.8438 4.9844 7.375 7.3906 4.5469 2.4219 11.047 2.4219 0.92188 0 2.0469-0.125 1.125-0.10938 2.4844-0.35938z"/>
<path id="l" d="m52 44.188q3.375 6.0625 8.0625 8.9375t11.031 2.875q8.5469 0 13.188-5.9844 4.6406-5.9688 4.6406-17v-33.016h-9.0312v32.719q0 7.8594-2.7969 11.656-2.7812 3.8125-8.4844 3.8125-6.9844 0-11.047-4.6406-4.0469-4.625-4.0469-12.641v-30.906h-9.0312v32.719q0 7.9062-2.7812 11.688t-8.5938 3.7812q-6.8906 0-10.953-4.6562-4.0469-4.6562-4.0469-12.625v-30.906h-9.0312v54.688h9.0312v-8.5q3.0781 5.0312 7.375 7.4219t10.203 2.3906q5.9688 0 10.141-3.0312 4.1719-3.0156 6.1719-8.7812z"/>
<path id="g" d="m9.4219 54.688h8.9844v-54.688h-8.9844zm0 21.297h8.9844v-11.391h-8.9844z"/>
<path id="j" d="m54.891 33.016v-33.016h-8.9844v32.719q0 7.7656-3.0312 11.609-3.0312 3.8594-9.0781 3.8594-7.2812 0-11.484-4.6406-4.2031-4.625-4.2031-12.641v-30.906h-9.0312v54.688h9.0312v-8.5q3.2344 4.9375 7.5938 7.375 4.375 2.4375 10.094 2.4375 9.4219 0 14.25-5.8281 4.8438-5.8281 4.8438-17.156z"/>
<path id="d" d="m34.281 27.484q-10.891 0-15.094-2.4844t-4.2031-8.5q0-4.7812 3.1562-7.5938 3.1562-2.7969 8.5625-2.7969 7.4844 0 12 5.2969t4.5156 14.078v2zm17.922 3.7188v-31.203h-8.9844v8.2969q-3.0781-4.9688-7.6719-7.3438t-11.234-2.375q-8.3906 0-13.359 4.7188-4.9531 4.7188-4.9531 12.625 0 9.2188 6.1719 13.906 6.1875 4.6875 18.438 4.6875h12.609v0.89062q0 6.2031-4.0781 9.5938t-11.453 3.3906q-4.6875 0-9.1406-1.125-4.4375-1.125-8.5312-3.375v8.3125q4.9219 1.9062 9.5625 2.8438 4.6406 0.95312 9.0312 0.95312 11.875 0 17.734-6.1562 5.8594-6.1406 5.8594-18.641z"/>
<path id="h" d="m9.4219 75.984h8.9844v-75.984h-8.9844z"/>
</defs>
<g transform="translate(55.595 568.99) rotate(90) scale(.08 -.08)">
<use xlink:href="#k"/>
<use x="60.818359" xlink:href="#e"/>
<use x="122.341797" xlink:href="#i"/>
<use x="163.439453" xlink:href="#l"/>
<use x="260.851562" xlink:href="#g"/>
<use x="288.634766" xlink:href="#j"/>
<use x="352.013672" xlink:href="#d"/>
<use x="413.292969" xlink:href="#h"/>
</g>
</g>
<path d="m866.01 389.67 4.3998 3.2542q1.9296 1.4272 3.3567-0.5024l4.6041-6.2248q1.4272-1.9296-0.5024-3.3567l-4.3998-3.2542q-1.9296-1.4272-3.3567 0.5024l-4.6041 6.2248q-1.4272 1.9296 0.5024 3.3567z" clip-path="url(#a)" fill="#fff" stroke="#fff"/>
<g clip-path="url(#a)">
<defs>
<path id="s" d="m34.188 63.188-13.391-36.281h26.812zm-5.5781 9.7188h11.188l27.781-72.906h-10.25l-6.6406 18.703h-32.859l-6.6406-18.703h-10.406z"/>
</defs>
<g transform="translate(868.43 386.4) rotate(36.488) scale(.08 -.08)">
<use xlink:href="#s"/>
</g>
</g>
<path d="m346.86 245.92 4.8137-2.6031q2.1111-1.1416 0.96948-3.2527l-3.6829-6.8105q-1.1416-2.1111-3.2527-0.96948l-4.8137 2.6031q-2.1111 1.1416-0.96948 3.2527l3.6829 6.8105q1.1416 2.1111 3.2527 0.96948z" clip-path="url(#a)" fill="#fff" stroke="#fff"/>
<g clip-path="url(#a)">
<g transform="translate(344.93 242.35) rotate(-28.403) scale(.08 -.08)">
<use xlink:href="#s"/>
</g>
</g>
<path d="m426.64 294.27 2.8667-3.8795q1.4263-1.9302-0.50394-3.3565l-6.227-4.6012q-1.9302-1.4263-3.3565 0.50394l-2.8667 3.8795q-1.4263 1.9302 0.50394 3.3565l6.227 4.6012q1.9302 1.4263 3.3565-0.50394z" clip-path="url(#a)" fill="#fff" stroke="#fff"/>
<g clip-path="url(#a)">
<defs>
<path id="y" d="m19.672 64.797v-27.391h12.406q6.8906 0 10.641 3.5625 3.7656 3.5625 3.7656 10.156 0 6.5469-3.7656 10.109-3.75 3.5625-10.641 3.5625zm-9.8594 8.1094h22.266q12.266 0 18.531-5.5469 6.2812-5.5469 6.2812-16.234 0-10.797-6.2812-16.312-6.2656-5.5156-18.531-5.5156h-12.406v-29.297h-9.8594z"/>
</defs>
<g transform="translate(423.37 291.86) rotate(-53.539) scale(.08 -.08)">
<use xlink:href="#y"/>
</g>
</g>
<path d="m502.36 194.5 3.1434-4.4796q1.3786-1.9646-0.58602-3.3431l-6.3378-4.4473q-1.9646-1.3786-3.3431 0.58602l-3.1434 4.4796q-1.3786 1.9646 0.58602 3.3431l6.3378 4.4473q1.9646 1.3786 3.3431-0.58602z" clip-path="url(#a)" fill="#fff" stroke="#fff"/>
<g clip-path="url(#a)">
<g transform="translate(499.04 192.16) rotate(-54.942) scale(.08 -.08)">
<use xlink:href="#s"/>
</g>
</g>
<path d="m742.17 568.99v35.285q0 2.4 2.4 2.4h7.7425q2.4 0 2.4-2.4v-35.285q0-2.4-2.4-2.4h-7.7425q-2.4 0-2.4 2.4z" clip-path="url(#a)" fill="#fff" stroke="#fff"/>
<g clip-path="url(#a)">
<g transform="translate(746.23 568.99) rotate(90) scale(.08 -.08)">
<use xlink:href="#k"/>
<use x="60.818359" xlink:href="#e"/>
<use x="122.341797" xlink:href="#i"/>
<use x="163.439453" xlink:href="#l"/>
<use x="260.851562" xlink:href="#g"/>
<use x="288.634766" xlink:href="#j"/>
<use x="352.013672" xlink:href="#d"/>
<use x="413.292969" xlink:href="#h"/>
</g>
</g>
<path d="m837.31 393.22 1.3345-5.3073q0.58526-2.3275-1.7423-2.9128l-7.5088-1.8881q-2.3275-0.58526-2.9128 1.7423l-1.3345 5.3073q-0.58526 2.3275 1.7423 2.9128l7.5088 1.8881q2.3275 0.58526 2.9128-1.7423z" clip-path="url(#a)" fill="#fff" stroke="#fff"/>
<g clip-path="url(#a)">
<g transform="translate(833.37 392.22) rotate(-75.886) scale(.08 -.08)">
<use xlink:href="#s"/>
</g>
</g>
<path d="m860.92 392.04 0.46434-4.8013q0.23103-2.3889-2.1578-2.6199l-7.7065-0.74531q-2.3889-0.23103-2.6199 2.1578l-0.46434 4.8013q-0.23103 2.3889 2.1578 2.6199l7.7065 0.74531q2.3889 0.23103 2.6199-2.1578z" clip-path="url(#a)" fill="#fff" stroke="#fff"/>
<g clip-path="url(#a)">
<g transform="translate(856.88 391.65) rotate(-84.476) scale(.08 -.08)">
<use xlink:href="#y"/>
</g>
</g>
<path d="m914.76 293.29 3.9202 3.8184q1.7192 1.6746 3.3938-0.044611l5.4023-5.5463q1.6746-1.7192-0.044611-3.3938l-3.9202-3.8184q-1.7192-1.6746-3.3938 0.044611l-5.4023 5.5463q-1.6746 1.7192 0.044612 3.3938z" clip-path="url(#a)" fill="#fff" stroke="#fff"/>
<g clip-path="url(#a)">
<g transform="translate(917.6 290.38) rotate(44.247) scale(.08 -.08)">
<use xlink:href="#s"/>
</g>
</g>
<path d="m788.21 568.99v35.285q0 2.4 2.4 2.4h7.7425q2.4 0 2.4-2.4v-35.285q0-2.4-2.4-2.4h-7.7425q-2.4 0-2.4 2.4z" clip-path="url(#a)" fill="#fff" stroke="#fff"/>
<g clip-path="url(#a)">
<g transform="translate(792.27 568.99) rotate(90) scale(.08 -.08)">
<use xlink:href="#k"/>
<use x="60.818359" xlink:href="#e"/>
<use x="122.341797" xlink:href="#i"/>
<use x="163.439453" xlink:href="#l"/>
<use x="260.851562" xlink:href="#g"/>
<use x="288.634766" xlink:href="#j"/>
<use x="352.013672" xlink:href="#d"/>
<use x="413.292969" xlink:href="#h"/>
</g>
</g>
<path d="m834.25 568.99v35.285q0 2.4 2.4 2.4h7.7425q2.4 0 2.4-2.4v-35.285q0-2.4-2.4-2.4h-7.7425q-2.4 0-2.4 2.4z" clip-path="url(#a)" fill="#fff" stroke="#fff"/>
<g clip-path="url(#a)">
<g transform="translate(838.32 568.99) rotate(90) scale(.08 -.08)">
<use xlink:href="#k"/>
<use x="60.818359" xlink:href="#e"/>
<use x="122.341797" xlink:href="#i"/>
<use x="163.439453" xlink:href="#l"/>
<use x="260.851562" xlink:href="#g"/>
<use x="288.634766" xlink:href="#j"/>
<use x="352.013672" xlink:href="#d"/>
<use x="413.292969" xlink:href="#h"/>
</g>
</g>
<path d="m934.46 444.32 2.032-4.6286q0.96476-2.1976-1.2328-3.1623l-7.0894-3.1124q-2.1976-0.96476-3.1623 1.2328l-2.032 4.6286q-0.96476 2.1976 1.2328 3.1623l7.0894 3.1124q2.1976 0.96476 3.1623-1.2328z" clip-path="url(#a)" fill="#fff" stroke="#fff"/>
<g clip-path="url(#a)">
<defs>
<path id="p" d="m9.8125 72.906h46.094v-8.3125h-36.234v-21.578h34.719v-8.2969h-34.719v-26.422h37.109v-8.2969h-46.969z"/>
</defs>
<g transform="translate(930.74 442.69) rotate(-66.298) scale(.08 -.08)">
<use xlink:href="#p"/>
</g>
</g>
<path d="m958.39 443.22 1.0146-4.9521q0.48169-2.3512-1.8695-2.8329l-7.585-1.554q-2.3512-0.48169-2.8329 1.8695l-1.0146 4.9521q-0.48169 2.3512 1.8695 2.8329l7.585 1.554q2.3512 0.48169 2.8329-1.8695z" clip-path="url(#a)" fill="#fff" stroke="#fff"/>
<g clip-path="url(#a)">
<g transform="translate(954.41 442.4) rotate(-78.422) scale(.08 -.08)">
<use xlink:href="#p"/>
</g>
</g>
<path d="m969.42 436.88 0.16343 5.5839q0.070212 2.399 2.4692 2.3288l7.7392-0.22651q2.399-0.070213 2.3288-2.4692l-0.16343-5.5839q-0.070212-2.399-2.4692-2.3288l-7.7392 0.22651q-2.399 0.070213-2.3288 2.4692z" clip-path="url(#a)" fill="#fff" stroke="#fff"/>
<g clip-path="url(#a)">
<defs>
<path id="r" d="m64.406 67.281v-10.391q-4.9844 4.6406-10.625 6.9219-5.6406 2.2969-11.984 2.2969-12.5 0-19.141-7.6406t-6.6406-22.094q0-14.406 6.6406-22.047t19.141-7.6406q6.3438 0 11.984 2.2969t10.625 6.9375v-10.312q-5.1719-3.5156-10.969-5.2812-5.7812-1.75-12.219-1.75-16.562 0-26.094 10.125-9.5156 10.141-9.5156 27.672 0 17.578 9.5156 27.703 9.5312 10.141 26.094 10.141 6.5312 0 12.312-1.7344 5.7969-1.7344 10.875-5.2031z"/>
</defs>
<g transform="translate(973.49 436.76) rotate(88.324) scale(.08 -.08)">
<use xlink:href="#r"/>
</g>
</g>
<path d="m1027.4 393.91 3.9105 3.2032q1.8566 1.5208 3.3775-0.33581l4.9062-5.9896q1.5208-1.8566-0.33581-3.3775l-3.9105-3.2032q-1.8566-1.5208-3.3775 0.33581l-4.9062 5.9896q-1.5208 1.8566 0.33581 3.3775z" clip-path="url(#a)" fill="#fff" stroke="#fff"/>
<g clip-path="url(#a)">
<g transform="translate(1030 390.77) rotate(39.322) scale(.08 -.08)">
<use xlink:href="#p"/>
</g>
</g>
<path d="m880.3 568.99v35.285q0 2.4 2.4 2.4h7.7425q2.4 0 2.4-2.4v-35.285q0-2.4-2.4-2.4h-7.7425q-2.4 0-2.4 2.4z" clip-path="url(#a)" fill="#fff" stroke="#fff"/>
<g clip-path="url(#a)">
<g transform="translate(884.36 568.99) rotate(90) scale(.08 -.08)">
<use xlink:href="#k"/>
<use x="60.818359" xlink:href="#e"/>
<use x="122.341797" xlink:href="#i"/>
<use x="163.439453" xlink:href="#l"/>
<use x="260.851562" xlink:href="#g"/>
<use x="288.634766" xlink:href="#j"/>
<use x="352.013672" xlink:href="#d"/>
<use x="413.292969" xlink:href="#h"/>
</g>
</g>
<path d="m926.34 568.99v35.285q0 2.4 2.4 2.4h7.7425q2.4 0 2.4-2.4v-35.285q0-2.4-2.4-2.4h-7.7425q-2.4 0-2.4 2.4z" clip-path="url(#a)" fill="#fff" stroke="#fff"/>
<g clip-path="url(#a)">
<g transform="translate(930.4 568.99) rotate(90) scale(.08 -.08)">
<use xlink:href="#k"/>
<use x="60.818359" xlink:href="#e"/>
<use x="122.341797" xlink:href="#i"/>
<use x="163.439453" xlink:href="#l"/>
<use x="260.851562" xlink:href="#g"/>
<use x="288.634766" xlink:href="#j"/>
<use x="352.013672" xlink:href="#d"/>
<use x="413.292969" xlink:href="#h"/>
</g>
</g>
<path d="m972.38 568.99v35.285q0 2.4 2.4 2.4h7.7425q2.4 0 2.4-2.4v-35.285q0-2.4-2.4-2.4h-7.7425q-2.4 0-2.4 2.4z" clip-path="url(#a)" fill="#fff" stroke="#fff"/>
<g clip-path="url(#a)">
<g transform="translate(976.44 568.99) rotate(90) scale(.08 -.08)">
<use xlink:href="#k"/>
<use x="60.818359" xlink:href="#e"/>
<use x="122.341797" xlink:href="#i"/>
<use x="163.439453" xlink:href="#l"/>
<use x="260.851562" xlink:href="#g"/>
<use x="288.634766" xlink:href="#j"/>
<use x="352.013672" xlink:href="#d"/>
<use x="413.292969" xlink:href="#h"/>
</g>
</g>
<path d="m1062.7 494.88 3.21-4.5383q1.3859-1.9594-0.5735-3.3453l-6.3211-4.471q-1.9594-1.3859-3.3453 0.5735l-3.21 4.5383q-1.3859 1.9594 0.5735 3.3453l6.3211 4.471q1.9594 1.3859 3.3453-0.5735z" clip-path="url(#a)" fill="#fff" stroke="#fff"/>
<g clip-path="url(#a)">
<defs>
<path id="t" d="m44.391 34.188q3.1719-1.0781 6.1719-4.5938t6.0312-9.6719l10.016-19.922h-10.609l-9.3125 18.703q-3.625 7.3281-7.0156 9.7188t-9.25 2.3906h-10.75v-30.812h-9.8594v72.906h22.266q12.5 0 18.656-5.2344 6.1562-5.2188 6.1562-15.766 0-6.8906-3.2031-11.438-3.2031-4.5312-9.2969-6.2812zm-24.719 30.609v-25.875h12.406q7.125 0 10.766 3.2969t3.6406 9.6875-3.6406 9.6406-10.766 3.25z"/>
</defs>
<g transform="translate(1059.4 492.53) rotate(-54.728) scale(.08 -.08)">
<use xlink:href="#t"/>
</g>
</g>
<path d="m1087.8 492.89 1.16-4.9201q0.55075-2.336-1.7852-2.8867l-7.5359-1.7767q-2.336-0.55075-2.8867 1.7852l-1.16 4.9201q-0.55075 2.336 1.7852 2.8867l7.5359 1.7767q2.336 0.55075 2.8867-1.7852z" clip-path="url(#a)" fill="#fff" stroke="#fff"/>
<g clip-path="url(#a)">
<g transform="translate(1083.8 491.95) rotate(-76.734) scale(.08 -.08)">
<use xlink:href="#p"/>
</g>
</g>
<path d="m1098.5 487.71 1.2819 5.4372q0.55075 2.336 2.8867 1.7852l7.5359-1.7767q2.336-0.55075 1.7852-2.8867l-1.2819-5.4372q-0.55075-2.336-2.8867-1.7852l-7.5359 1.7767q-2.336 0.55075-1.7852 2.8867z" clip-path="url(#a)" fill="#fff" stroke="#fff"/>
<g clip-path="url(#a)">
<g transform="translate(1102.5 486.77) rotate(76.734) scale(.08 -.08)">
<use xlink:href="#r"/>
</g>
</g>
<path d="m1121.5 490.22 3.381 4.7801q1.3859 1.9594 3.3453 0.5735l6.3211-4.471q1.9594-1.3859 0.5735-3.3453l-3.381-4.7801q-1.3859-1.9594-3.3453-0.5735l-6.3211 4.471q-1.9594 1.3859-0.5735 3.3453z" clip-path="url(#a)" fill="#fff" stroke="#fff"/>
<g clip-path="url(#a)">
<g transform="translate(1124.8 487.87) rotate(54.728) scale(.08 -.08)">
<use xlink:href="#aj"/>
</g>
</g>
<path d="m1018.4 568.99v35.285q0 2.4 2.4 2.4h7.7425q2.4 0 2.4-2.4v-35.285q0-2.4-2.4-2.4h-7.7425q-2.4 0-2.4 2.4z" clip-path="url(#a)" fill="#fff" stroke="#fff"/>
<g clip-path="url(#a)">
<g transform="translate(1022.5 568.99) rotate(90) scale(.08 -.08)">
<use xlink:href="#k"/>
<use x="60.818359" xlink:href="#e"/>
<use x="122.341797" xlink:href="#i"/>
<use x="163.439453" xlink:href="#l"/>
<use x="260.851562" xlink:href="#g"/>
<use x="288.634766" xlink:href="#j"/>
<use x="352.013672" xlink:href="#d"/>
<use x="413.292969" xlink:href="#h"/>
</g>
</g>
<path d="m1064.5 568.99v35.285q0 2.4 2.4 2.4h7.7425q2.4 0 2.4-2.4v-35.285q0-2.4-2.4-2.4h-7.7425q-2.4 0-2.4 2.4z" clip-path="url(#a)" fill="#fff" stroke="#fff"/>
<g clip-path="url(#a)">
<g transform="translate(1068.5 568.99) rotate(90) scale(.08 -.08)">
<use xlink:href="#k"/>
<use x="60.818359" xlink:href="#e"/>
<use x="122.341797" xlink:href="#i"/>
<use x="163.439453" xlink:href="#l"/>
<use x="260.851562" xlink:href="#g"/>
<use x="288.634766" xlink:href="#j"/>
<use x="352.013672" xlink:href="#d"/>
<use x="413.292969" xlink:href="#h"/>
</g>
</g>
<path d="m1110.5 568.99v35.285q0 2.4 2.4 2.4h7.7425q2.4 0 2.4-2.4v-35.285q0-2.4-2.4-2.4h-7.7425q-2.4 0-2.4 2.4z" clip-path="url(#a)" fill="#fff" stroke="#fff"/>
<g clip-path="url(#a)">
<g transform="translate(1114.6 568.99) rotate(90) scale(.08 -.08)">
<use xlink:href="#k"/>
<use x="60.818359" xlink:href="#e"/>
<use x="122.341797" xlink:href="#i"/>
<use x="163.439453" xlink:href="#l"/>
<use x="260.851562" xlink:href="#g"/>
<use x="288.634766" xlink:href="#j"/>
<use x="352.013672" xlink:href="#d"/>
<use x="413.292969" xlink:href="#h"/>
</g>
</g>
<path d="m136.09 443.58 1.332-4.8763q0.63243-2.3152-1.6828-2.9476l-7.4689-2.0402q-2.3152-0.63242-2.9476 1.6828l-1.332 4.8763q-0.63242 2.3152 1.6828 2.9476l7.4689 2.0402q2.3152 0.63242 2.9476-1.6828z" clip-path="url(#a)" fill="#fff" stroke="#fff"/>
<g clip-path="url(#a)">
<g transform="translate(132.17 442.51) rotate(-74.722) scale(.08 -.08)">
<use xlink:href="#p"/>
</g>
</g>
<path d="m159.88 442.52 0.21783-5.582q0.093586-2.3982-2.3046-2.4918l-7.7366-0.30191q-2.3982-0.093586-2.4918 2.3046l-0.21783 5.582q-0.093586 2.3982 2.3046 2.4918l7.7366 0.30191q2.3982 0.093585 2.4918-2.3046z" clip-path="url(#a)" fill="#fff" stroke="#fff"/>
<g clip-path="url(#a)">
<g transform="translate(155.82 442.36) rotate(-87.765) scale(.08 -.08)">
<use xlink:href="#r"/>
</g>
</g>
<path d="m181.59 391.82 2.664 4.2961q1.2648 2.0397 3.3045 0.77489l6.5801-4.0803q2.0397-1.2648 0.77489-3.3045l-2.664-4.2961q-1.2648-2.0397-3.3045-0.77489l-6.5801 4.0803q-2.0397 1.2648-0.77489 3.3045z" clip-path="url(#a)" fill="#fff" stroke="#fff"/>
<g clip-path="url(#a)">
<g transform="translate(185.05 389.68) rotate(58.197) scale(.08 -.08)">
<use xlink:href="#p"/>
</g>
</g>
<path d="m305.1 492.66 1.0559-4.4785q0.55075-2.336-1.7852-2.8867l-7.5359-1.7767q-2.336-0.55075-2.8867 1.7852l-1.0559 4.4785q-0.55075 2.336 1.7852 2.8867l7.5359 1.7767q2.336 0.55075 2.8867-1.7852z" clip-path="url(#a)" fill="#fff" stroke="#fff"/>
<g clip-path="url(#a)">
<defs>
<path id="an" d="m9.8125 72.906h41.891v-8.3125h-32.031v-21.484h28.906v-8.2969h-28.906v-34.812h-9.8594z"/>
</defs>
<g transform="translate(301.15 491.73) rotate(-76.734) scale(.08 -.08)">
<use xlink:href="#an"/>
</g>
</g>
<path d="m315.8 487.71 1.2819 5.4372q0.55075 2.336 2.8867 1.7852l7.5359-1.7767q2.336-0.55075 1.7852-2.8867l-1.2819-5.4372q-0.55075-2.336-2.8867-1.7852l-7.5359 1.7767q-2.336 0.55075-1.7852 2.8867z" clip-path="url(#a)" fill="#fff" stroke="#fff"/>
<g clip-path="url(#a)">
<g transform="translate(319.76 486.77) rotate(76.734) scale(.08 -.08)">
<use xlink:href="#r"/>
</g>
</g>
<path d="m426.65 393.39 1.4851-5.3567q0.64119-2.3128-1.6716-2.954l-7.4611-2.0685q-2.3128-0.64119-2.954 1.6716l-1.4851 5.3567q-0.64119 2.3128 1.6716 2.954l7.4611 2.0685q2.3128 0.64119 2.954-1.6716z" clip-path="url(#a)" fill="#fff" stroke="#fff"/>
<g clip-path="url(#a)">
<g transform="translate(422.73 392.3) rotate(-74.505) scale(.08 -.08)">
<use xlink:href="#t"/>
</g>
</g>
<path d="m450.28 392.3 0.61465-5.0175q0.29182-2.3822-2.0904-2.674l-7.6851-0.94143q-2.3822-0.29182-2.674 2.0904l-0.61465 5.0175q-0.29182 2.3822 2.0904 2.674l7.6851 0.94143q2.3822 0.29182 2.674-2.0904z" clip-path="url(#a)" fill="#fff" stroke="#fff"/>
<g clip-path="url(#a)">
<g transform="translate(446.25 391.81) rotate(-83.016) scale(.08 -.08)">
<use xlink:href="#p"/>
</g>
</g>
<path d="m461.03 386.44 0.17999 5.5833q0.077329 2.3988 2.4761 2.3214l7.7385-0.24947q2.3988-0.077329 2.3214-2.4761l-0.17999-5.5834q-0.077329-2.3988-2.4761-2.3214l-7.7385 0.24947q-2.3988 0.077329-2.3214 2.4761z" clip-path="url(#a)" fill="#fff" stroke="#fff"/>
<g clip-path="url(#a)">
<g transform="translate(465.09 386.31) rotate(88.154) scale(.08 -.08)">
<use xlink:href="#r"/>
</g>
</g>
<path d="m511.16 293.6 3.715 3.4281q1.7638 1.6276 3.3914-0.13619l5.2507-5.69q1.6276-1.7638-0.13619-3.3914l-3.715-3.4281q-1.7638-1.6276-3.3914 0.13619l-5.2507 5.69q-1.6276 1.7638 0.13619 3.3914z" clip-path="url(#a)" fill="#fff" stroke="#fff"/>
<g clip-path="url(#a)">
<g transform="translate(513.91 290.62) rotate(42.7) scale(.08 -.08)">
<use xlink:href="#p"/>
</g>
</g>
<path d="m373.83 568.99v35.285q0 2.4 2.4 2.4h7.7425q2.4 0 2.4-2.4v-35.285q0-2.4-2.4-2.4h-7.7425q-2.4 0-2.4 2.4z" clip-path="url(#a)" fill="#fff" stroke="#fff"/>
<g clip-path="url(#a)">
<g transform="translate(377.89 568.99) rotate(90) scale(.08 -.08)">
<use xlink:href="#k"/>
<use x="60.818359" xlink:href="#e"/>
<use x="122.341797" xlink:href="#i"/>
<use x="163.439453" xlink:href="#l"/>
<use x="260.851562" xlink:href="#g"/>
<use x="288.634766" xlink:href="#j"/>
<use x="352.013672" xlink:href="#d"/>
<use x="413.292969" xlink:href="#h"/>
</g>
</g>
<path d="m419.87 568.99v35.285q0 2.4 2.4 2.4h7.7425q2.4 0 2.4-2.4v-35.285q0-2.4-2.4-2.4h-7.7425q-2.4 0-2.4 2.4z" clip-path="url(#a)" fill="#fff" stroke="#fff"/>
<g clip-path="url(#a)">
<g transform="translate(423.93 568.99) rotate(90) scale(.08 -.08)">
<use xlink:href="#k"/>
<use x="60.818359" xlink:href="#e"/>
<use x="122.341797" xlink:href="#i"/>
<use x="163.439453" xlink:href="#l"/>
<use x="260.851562" xlink:href="#g"/>
<use x="288.634766" xlink:href="#j"/>
<use x="352.013672" xlink:href="#d"/>
<use x="413.292969" xlink:href="#h"/>
</g>
</g>
<path d="m465.91 568.99v35.285q0 2.4 2.4 2.4h7.7425q2.4 0 2.4-2.4v-35.285q0-2.4-2.4-2.4h-7.7425q-2.4 0-2.4 2.4z" clip-path="url(#a)" fill="#fff" stroke="#fff"/>
<g clip-path="url(#a)">
<g transform="translate(469.98 568.99) rotate(90) scale(.08 -.08)">
<use xlink:href="#k"/>
<use x="60.818359" xlink:href="#e"/>
<use x="122.341797" xlink:href="#i"/>
<use x="163.439453" xlink:href="#l"/>
<use x="260.851562" xlink:href="#g"/>
<use x="288.634766" xlink:href="#j"/>
<use x="352.013672" xlink:href="#d"/>
<use x="413.292969" xlink:href="#h"/>
</g>
</g>
<path d="m550.4 443.82 1.4648-5.3623q0.63242-2.3152-1.6828-2.9476l-7.4689-2.0402q-2.3152-0.63242-2.9476 1.6828l-1.4648 5.3623q-0.63243 2.3152 1.6828 2.9476l7.4689 2.0402q2.3152 0.63243 2.9476-1.6828z" clip-path="url(#a)" fill="#fff" stroke="#fff"/>
<g clip-path="url(#a)">
<g transform="translate(546.48 442.75) rotate(-74.722) scale(.08 -.08)">
<use xlink:href="#t"/>
</g>
</g>
<path d="m574.26 442.52 0.21783-5.582q0.093585-2.3982-2.3046-2.4918l-7.7366-0.30191q-2.3982-0.093586-2.4918 2.3046l-0.21783 5.582q-0.093585 2.3982 2.3046 2.4918l7.7366 0.30191q2.3982 0.093585 2.4918-2.3046z" clip-path="url(#a)" fill="#fff" stroke="#fff"/>
<g clip-path="url(#a)">
<g transform="translate(570.2 442.36) rotate(-87.765) scale(.08 -.08)">
<use xlink:href="#r"/>
</g>
</g>
<path d="m595.98 391.82 2.664 4.2961q1.2648 2.0397 3.3045 0.77489l6.5801-4.0803q2.0397-1.2648 0.77489-3.3045l-2.664-4.2961q-1.2648-2.0397-3.3045-0.77489l-6.5801 4.0803q-2.0397 1.2648-0.77489 3.3045z" clip-path="url(#a)" fill="#fff" stroke="#fff"/>
<g clip-path="url(#a)">
<g transform="translate(599.43 389.68) rotate(58.197) scale(.08 -.08)">
<use xlink:href="#p"/>
</g>
</g>
<path d="m511.96 568.99v35.285q0 2.4 2.4 2.4h7.7425q2.4 0 2.4-2.4v-35.285q0-2.4-2.4-2.4h-7.7425q-2.4 0-2.4 2.4z" clip-path="url(#a)" fill="#fff" stroke="#fff"/>
<g clip-path="url(#a)">
<g transform="translate(516.02 568.99) rotate(90) scale(.08 -.08)">
<use xlink:href="#k"/>
<use x="60.818359" xlink:href="#e"/>
<use x="122.341797" xlink:href="#i"/>
<use x="163.439453" xlink:href="#l"/>
<use x="260.851562" xlink:href="#g"/>
<use x="288.634766" xlink:href="#j"/>
<use x="352.013672" xlink:href="#d"/>
<use x="413.292969" xlink:href="#h"/>
</g>
</g>
<path d="m558 568.99v35.285q0 2.4 2.4 2.4h7.7425q2.4 0 2.4-2.4v-35.285q0-2.4-2.4-2.4h-7.7425q-2.4 0-2.4 2.4z" clip-path="url(#a)" fill="#fff" stroke="#fff"/>
<g clip-path="url(#a)">
<g transform="translate(562.06 568.99) rotate(90) scale(.08 -.08)">
<use xlink:href="#k"/>
<use x="60.818359" xlink:href="#e"/>
<use x="122.341797" xlink:href="#i"/>
<use x="163.439453" xlink:href="#l"/>
<use x="260.851562" xlink:href="#g"/>
<use x="288.634766" xlink:href="#j"/>
<use x="352.013672" xlink:href="#d"/>
<use x="413.292969" xlink:href="#h"/>
</g>
</g>
<path d="m627.29 493.13 1.2756-5.4104q0.55075-2.336-1.7852-2.8867l-7.5359-1.7767q-2.336-0.55075-2.8867 1.7852l-1.2756 5.4104q-0.55075 2.336 1.7852 2.8867l7.5359 1.7767q2.336 0.55075 2.8867-1.7852z" clip-path="url(#a)" fill="#fff" stroke="#fff"/>
<g clip-path="url(#a)">
<g transform="translate(623.33 492.2) rotate(-76.734) scale(.08 -.08)">
<use xlink:href="#t"/>
</g>
</g>
<path d="m638.1 487.71 1.2819 5.4372q0.55075 2.336 2.8867 1.7852l7.5359-1.7767q2.336-0.55075 1.7852-2.8867l-1.2819-5.4372q-0.55075-2.336-2.8867-1.7852l-7.5359 1.7767q-2.336 0.55075-1.7852 2.8867z" clip-path="url(#a)" fill="#fff" stroke="#fff"/>
<g clip-path="url(#a)">
<g transform="translate(642.05 486.77) rotate(76.734) scale(.08 -.08)">
<use xlink:href="#r"/>
</g>
</g>
<path d="m604.04 568.99v35.285q0 2.4 2.4 2.4h7.7425q2.4 0 2.4-2.4v-35.285q0-2.4-2.4-2.4h-7.7425q-2.4 0-2.4 2.4z" clip-path="url(#a)" fill="#fff" stroke="#fff"/>
<g clip-path="url(#a)">
<g transform="translate(608.1 568.99) rotate(90) scale(.08 -.08)">
<use xlink:href="#k"/>
<use x="60.818359" xlink:href="#e"/>
<use x="122.341797" xlink:href="#i"/>
<use x="163.439453" xlink:href="#l"/>
<use x="260.851562" xlink:href="#g"/>
<use x="288.634766" xlink:href="#j"/>
<use x="352.013672" xlink:href="#d"/>
<use x="413.292969" xlink:href="#h"/>
</g>
</g>
<path d="m650.08 568.99v35.285q0 2.4 2.4 2.4h7.7425q2.4 0 2.4-2.4v-35.285q0-2.4-2.4-2.4h-7.7425q-2.4 0-2.4 2.4z" clip-path="url(#a)" fill="#fff" stroke="#fff"/>
<g clip-path="url(#a)">
<g transform="translate(654.15 568.99) rotate(90) scale(.08 -.08)">
<use xlink:href="#k"/>
<use x="60.818359" xlink:href="#e"/>
<use x="122.341797" xlink:href="#i"/>
<use x="163.439453" xlink:href="#l"/>
<use x="260.851562" xlink:href="#g"/>
<use x="288.634766" xlink:href="#j"/>
<use x="352.013672" xlink:href="#d"/>
<use x="413.292969" xlink:href="#h"/>
</g>
</g>
<path d="m281.74 568.99v35.285q0 2.4 2.4 2.4h7.7425q2.4 0 2.4-2.4v-35.285q0-2.4-2.4-2.4h-7.7425q-2.4 0-2.4 2.4z" clip-path="url(#a)" fill="#fff" stroke="#fff"/>
<g clip-path="url(#a)">
<g transform="translate(285.81 568.99) rotate(90) scale(.08 -.08)">
<use xlink:href="#k"/>
<use x="60.818359" xlink:href="#e"/>
<use x="122.341797" xlink:href="#i"/>
<use x="163.439453" xlink:href="#l"/>
<use x="260.851562" xlink:href="#g"/>
<use x="288.634766" xlink:href="#j"/>
<use x="352.013672" xlink:href="#d"/>
<use x="413.292969" xlink:href="#h"/>
</g>
</g>
<path d="m327.79 568.99v35.285q0 2.4 2.4 2.4h7.7425q2.4 0 2.4-2.4v-35.285q0-2.4-2.4-2.4h-7.7425q-2.4 0-2.4 2.4z" clip-path="url(#a)" fill="#fff" stroke="#fff"/>
<g clip-path="url(#a)">
<g transform="translate(331.85 568.99) rotate(90) scale(.08 -.08)">
<use xlink:href="#k"/>
<use x="60.818359" xlink:href="#e"/>
<use x="122.341797" xlink:href="#i"/>
<use x="163.439453" xlink:href="#l"/>
<use x="260.851562" xlink:href="#g"/>
<use x="288.634766" xlink:href="#j"/>
<use x="352.013672" xlink:href="#d"/>
<use x="413.292969" xlink:href="#h"/>
</g>
</g>
<path d="m97.574 568.99v35.285q0 2.4 2.4 2.4h7.7425q2.4 0 2.4-2.4v-35.285q0-2.4-2.4-2.4h-7.7425q-2.4 0-2.4 2.4z" clip-path="url(#a)" fill="#fff" stroke="#fff"/>
<g clip-path="url(#a)">
<g transform="translate(101.64 568.99) rotate(90) scale(.08 -.08)">
<use xlink:href="#k"/>
<use x="60.818359" xlink:href="#e"/>
<use x="122.341797" xlink:href="#i"/>
<use x="163.439453" xlink:href="#l"/>
<use x="260.851562" xlink:href="#g"/>
<use x="288.634766" xlink:href="#j"/>
<use x="352.013672" xlink:href="#d"/>
<use x="413.292969" xlink:href="#h"/>
</g>
</g>
<path d="m143.62 568.99v35.285q0 2.4 2.4 2.4h7.7425q2.4 0 2.4-2.4v-35.285q0-2.4-2.4-2.4h-7.7425q-2.4 0-2.4 2.4z" clip-path="url(#a)" fill="#fff" stroke="#fff"/>
<g clip-path="url(#a)">
<g transform="translate(147.68 568.99) rotate(90) scale(.08 -.08)">
<use xlink:href="#k"/>
<use x="60.818359" xlink:href="#e"/>
<use x="122.341797" xlink:href="#i"/>
<use x="163.439453" xlink:href="#l"/>
<use x="260.851562" xlink:href="#g"/>
<use x="288.634766" xlink:href="#j"/>
<use x="352.013672" xlink:href="#d"/>
<use x="413.292969" xlink:href="#h"/>
</g>
</g>
<path d="m212.91 493.13 1.2756-5.4104q0.55075-2.336-1.7852-2.8867l-7.5359-1.7767q-2.336-0.55075-2.8867 1.7852l-1.2756 5.4104q-0.55075 2.336 1.7852 2.8867l7.5359 1.7767q2.336 0.55075 2.8867-1.7852z" clip-path="url(#a)" fill="#fff" stroke="#fff"/>
<g clip-path="url(#a)">
<g transform="translate(208.95 492.2) rotate(-76.734) scale(.08 -.08)">
<use xlink:href="#t"/>
</g>
</g>
<path d="m223.72 487.71 1.2819 5.4372q0.55075 2.336 2.8867 1.7852l7.5359-1.7767q2.336-0.55075 1.7852-2.8867l-1.2819-5.4372q-0.55075-2.336-2.8867-1.7852l-7.5359 1.7767q-2.336 0.55075-1.7852 2.8867z" clip-path="url(#a)" fill="#fff" stroke="#fff"/>
<g clip-path="url(#a)">
<g transform="translate(227.67 486.77) rotate(76.734) scale(.08 -.08)">
<use xlink:href="#r"/>
</g>
</g>
<path d="m189.66 568.99v35.285q0 2.4 2.4 2.4h7.7425q2.4 0 2.4-2.4v-35.285q0-2.4-2.4-2.4h-7.7425q-2.4 0-2.4 2.4z" clip-path="url(#a)" fill="#fff" stroke="#fff"/>
<g clip-path="url(#a)">
<g transform="translate(193.72 568.99) rotate(90) scale(.08 -.08)">
<use xlink:href="#k"/>
<use x="60.818359" xlink:href="#e"/>
<use x="122.341797" xlink:href="#i"/>
<use x="163.439453" xlink:href="#l"/>
<use x="260.851562" xlink:href="#g"/>
<use x="288.634766" xlink:href="#j"/>
<use x="352.013672" xlink:href="#d"/>
<use x="413.292969" xlink:href="#h"/>
</g>
</g>
<path d="m235.7 568.99v35.285q0 2.4 2.4 2.4h7.7425q2.4 0 2.4-2.4v-35.285q0-2.4-2.4-2.4h-7.7425q-2.4 0-2.4 2.4z" clip-path="url(#a)" fill="#fff" stroke="#fff"/>
<g clip-path="url(#a)">
<g transform="translate(239.76 568.99) rotate(90) scale(.08 -.08)">
<use xlink:href="#k"/>
<use x="60.818359" xlink:href="#e"/>
<use x="122.341797" xlink:href="#i"/>
<use x="163.439453" xlink:href="#l"/>
<use x="260.851562" xlink:href="#g"/>
<use x="288.634766" xlink:href="#j"/>
<use x="352.013672" xlink:href="#d"/>
<use x="413.292969" xlink:href="#h"/>
</g>
</g>
<path d="m625.15 92.049 8.5931-4.9813q2.0764-1.2036 0.87273-3.28l-3.883-6.6984q-1.2036-2.0764-3.28-0.87273l-8.5931 4.9813q-2.0764 1.2036-0.87273 3.28l3.883 6.6984q1.2036 2.0764 3.28 0.87273z" clip-path="url(#a)" fill="#fff" stroke="#fff"/>
<g clip-path="url(#a)">
<g transform="translate(623.11 88.534) rotate(-30.1) scale(.08 -.08)">
<use xlink:href="#u"/>
<use x="55.744141" xlink:href="#s"/>
</g>
</g>
<path d="m726.45 279.89 0.60893 9.9977q0.14591 2.3956 2.5415 2.2497l7.7282-0.4707q2.3956-0.14591 2.2497-2.5415l-0.60893-9.9977q-0.14591-2.3956-2.5415-2.2497l-7.7282 0.4707q-2.3956 0.14591-2.2497 2.5415z" clip-path="url(#a)" fill="#fff" stroke="#fff"/>
<g clip-path="url(#a)">
<g transform="translate(730.5 279.65) rotate(86.515) scale(.08 -.08)">
<use xlink:href="#u"/>
<use x="55.712891" xlink:href="#t"/>
</g>
</g>
<path d="m785.45 135.4 5.8341 8.0385q1.4097 1.9423 3.3521 0.53264l6.2661-4.5478q1.9423-1.4097 0.53264-3.3521l-5.8341-8.0385q-1.4097-1.9423-3.3521-0.53264l-6.2661 4.5478q-1.9423 1.4097-0.53264 3.3521z" clip-path="url(#a)" fill="#fff" stroke="#fff"/>
<g clip-path="url(#a)">
<g transform="translate(788.74 133.01) rotate(54.029) scale(.08 -.08)">
<use xlink:href="#u"/>
<use x="55.744141" xlink:href="#s"/>
</g>
</g>
<path d="m696.13 568.99v35.285q0 2.4 2.4 2.4h7.7425q2.4 0 2.4-2.4v-35.285q0-2.4-2.4-2.4h-7.7425q-2.4 0-2.4 2.4z" clip-path="url(#a)" fill="#fff" stroke="#fff"/>
<g clip-path="url(#a)">
<g transform="translate(700.19 568.99) rotate(90) scale(.08 -.08)">
<use xlink:href="#k"/>
<use x="60.818359" xlink:href="#e"/>
<use x="122.341797" xlink:href="#i"/>
<use x="163.439453" xlink:href="#l"/>
<use x="260.851562" xlink:href="#g"/>
<use x="288.634766" xlink:href="#j"/>
<use x="352.013672" xlink:href="#d"/>
<use x="413.292969" xlink:href="#h"/>
</g>
</g>
<path d="m1156.6 568.99v35.285q0 2.4 2.4 2.4h7.7425q2.4 0 2.4-2.4v-35.285q0-2.4-2.4-2.4h-7.7425q-2.4 0-2.4 2.4z" clip-path="url(#a)" fill="#fff" stroke="#fff"/>
<g clip-path="url(#a)">
<g transform="translate(1160.6 568.99) rotate(90) scale(.08 -.08)">
<use xlink:href="#k"/>
<use x="60.818359" xlink:href="#e"/>
<use x="122.341797" xlink:href="#i"/>
<use x="163.439453" xlink:href="#l"/>
<use x="260.851562" xlink:href="#g"/>
<use x="288.634766" xlink:href="#j"/>
<use x="352.013672" xlink:href="#d"/>
<use x="413.292969" xlink:href="#h"/>
</g>
</g>
<defs>
<path id="b" d="m0 8.6603c2.2967 0 4.4997-0.9125 6.1237-2.5365 1.624-1.624 2.5365-3.827 2.5365-6.1237s-0.9125-4.4997-2.5365-6.1237c-1.624-1.624-3.827-2.5365-6.1237-2.5365s-4.4997 0.9125-6.1237 2.5365c-1.624 1.624-2.5365 3.827-2.5365 6.1237s0.9125 4.4997 2.5365 6.1237c1.624 1.624 3.827 2.5365 6.1237 2.5365z"/>
</defs>
<g clip-path="url(#a)">
<use x="57.80241" y="635.450377" fill="#ffffff" stroke="#ffffff" xlink:href="#b"/>
</g>
<g clip-path="url(#a)">
<use x="103.844883" y="635.450377" fill="#ffffff" stroke="#ffffff" xlink:href="#b"/>
</g>
<g clip-path="url(#a)">
<use x="149.887357" y="635.450377" fill="#ffffff" stroke="#ffffff" xlink:href="#b"/>
</g>
<g clip-path="url(#a)">
<use x="195.929831" y="635.450377" fill="#ffffff" stroke="#ffffff" xlink:href="#b"/>
</g>
<g clip-path="url(#a)">
<use x="241.972305" y="635.450377" fill="#ffffff" stroke="#ffffff" xlink:href="#b"/>
</g>
<g clip-path="url(#a)">
<use x="288.014779" y="635.450377" fill="#ffffff" stroke="#ffffff" xlink:href="#b"/>
</g>
<g clip-path="url(#a)">
<use x="334.057253" y="635.450377" fill="#ffffff" stroke="#ffffff" xlink:href="#b"/>
</g>
<g clip-path="url(#a)">
<use x="380.099727" y="635.450377" fill="#ffffff" stroke="#ffffff" xlink:href="#b"/>
</g>
<g clip-path="url(#a)">
<use x="426.142201" y="635.450377" fill="#ffffff" stroke="#ffffff" xlink:href="#b"/>
</g>
<g clip-path="url(#a)">
<use x="472.184675" y="635.450377" fill="#ffffff" stroke="#ffffff" xlink:href="#b"/>
</g>
<g clip-path="url(#a)">
<use x="518.227149" y="635.450377" fill="#ffffff" stroke="#ffffff" xlink:href="#b"/>
</g>
<g clip-path="url(#a)">
<use x="564.269622" y="635.450377" fill="#ffffff" stroke="#ffffff" xlink:href="#b"/>
</g>
<g clip-path="url(#a)">
<use x="610.312096" y="635.450377" fill="#ffffff" stroke="#ffffff" xlink:href="#b"/>
</g>
<g clip-path="url(#a)">
<use x="656.35457" y="635.450377" fill="#ffffff" stroke="#ffffff" xlink:href="#b"/>
</g>
<g clip-path="url(#a)">
<use x="702.397044" y="635.450377" fill="#ffffff" stroke="#ffffff" xlink:href="#b"/>
</g>
<g clip-path="url(#a)">
<use x="748.439518" y="635.450377" fill="#ffffff" stroke="#ffffff" xlink:href="#b"/>
</g>
<g clip-path="url(#a)">
<use x="794.481992" y="635.450377" fill="#ffffff" stroke="#ffffff" xlink:href="#b"/>
</g>
<g clip-path="url(#a)">
<use x="840.524466" y="635.450377" fill="#ffffff" stroke="#ffffff" xlink:href="#b"/>
</g>
<g clip-path="url(#a)">
<use x="886.56694" y="635.450377" fill="#ffffff" stroke="#ffffff" xlink:href="#b"/>
</g>
<g clip-path="url(#a)">
<use x="932.609414" y="635.450377" fill="#ffffff" stroke="#ffffff" xlink:href="#b"/>
</g>
<g clip-path="url(#a)">
<use x="978.651888" y="635.450377" fill="#ffffff" stroke="#ffffff" xlink:href="#b"/>
</g>
<g clip-path="url(#a)">
<use x="1024.694362" y="635.450377" fill="#ffffff" stroke="#ffffff" xlink:href="#b"/>
</g>
<g clip-path="url(#a)">
<use x="1070.736835" y="635.450377" fill="#ffffff" stroke="#ffffff" xlink:href="#b"/>
</g>
<g clip-path="url(#a)">
<use x="1116.779309" y="635.450377" fill="#ffffff" stroke="#ffffff" xlink:href="#b"/>
</g>
<g clip-path="url(#a)">
<use x="1162.821783" y="635.450377" fill="#ffffff" stroke="#ffffff" xlink:href="#b"/>
</g>
<g clip-path="url(#a)">
<use x="582.59069" y="31.21629" fill="#ffffff" stroke="#ffffff" xlink:href="#b"/>
</g>
<g clip-path="url(#a)">
<use x="57.80241" y="537.807658" fill="#ffffff" stroke="#ffffff" xlink:href="#b"/>
</g>
<g clip-path="url(#a)">
<use x="535.013467" y="137.049956" fill="#ffffff" stroke="#ffffff" xlink:href="#b"/>
</g>
<g clip-path="url(#a)">
<use x="748.439518" y="537.807658" fill="#ffffff" stroke="#ffffff" xlink:href="#b"/>
</g>
<g clip-path="url(#a)">
<use x="869.301012" y="240.256529" fill="#ffffff" stroke="#ffffff" xlink:href="#b"/>
</g>
<g clip-path="url(#a)">
<use x="794.481992" y="537.807658" fill="#ffffff" stroke="#ffffff" xlink:href="#b"/>
</g>
<g clip-path="url(#a)">
<use x="840.524466" y="537.807658" fill="#ffffff" stroke="#ffffff" xlink:href="#b"/>
</g>
<g clip-path="url(#a)">
<use x="972.896578" y="341.163904" fill="#ffffff" stroke="#ffffff" xlink:href="#b"/>
</g>
<g clip-path="url(#a)">
<use x="886.56694" y="537.807658" fill="#ffffff" stroke="#ffffff" xlink:href="#b"/>
</g>
<g clip-path="url(#a)">
<use x="932.609414" y="537.807658" fill="#ffffff" stroke="#ffffff" xlink:href="#b"/>
</g>
<g clip-path="url(#a)">
<use x="978.651888" y="537.807658" fill="#ffffff" stroke="#ffffff" xlink:href="#b"/>
</g>
<g clip-path="url(#a)">
<use x="1093.758072" y="440.16494" fill="#ffffff" stroke="#ffffff" xlink:href="#b"/>
</g>
<g clip-path="url(#a)">
<use x="1024.694362" y="537.807658" fill="#ffffff" stroke="#ffffff" xlink:href="#b"/>
</g>
<g clip-path="url(#a)">
<use x="1070.736835" y="537.807658" fill="#ffffff" stroke="#ffffff" xlink:href="#b"/>
</g>
<g clip-path="url(#a)">
<use x="1116.779309" y="537.807658" fill="#ffffff" stroke="#ffffff" xlink:href="#b"/>
</g>
<g clip-path="url(#a)">
<use x="1208.864257" y="635.450377" fill="#ffffff" stroke="#ffffff" xlink:href="#b"/>
</g>
<g clip-path="url(#a)">
<use x="157.561103" y="341.163904" fill="#ffffff" stroke="#ffffff" xlink:href="#b"/>
</g>
<g clip-path="url(#a)">
<use x="311.036016" y="440.16494" fill="#ffffff" stroke="#ffffff" xlink:href="#b"/>
</g>
<g clip-path="url(#a)">
<use x="462.592493" y="240.256529" fill="#ffffff" stroke="#ffffff" xlink:href="#b"/>
</g>
<g clip-path="url(#a)">
<use x="380.099727" y="537.807658" fill="#ffffff" stroke="#ffffff" xlink:href="#b"/>
</g>
<g clip-path="url(#a)">
<use x="426.142201" y="537.807658" fill="#ffffff" stroke="#ffffff" xlink:href="#b"/>
</g>
<g clip-path="url(#a)">
<use x="472.184675" y="537.807658" fill="#ffffff" stroke="#ffffff" xlink:href="#b"/>
</g>
<g clip-path="url(#a)">
<use x="571.943368" y="341.163904" fill="#ffffff" stroke="#ffffff" xlink:href="#b"/>
</g>
<g clip-path="url(#a)">
<use x="518.227149" y="537.807658" fill="#ffffff" stroke="#ffffff" xlink:href="#b"/>
</g>
<g clip-path="url(#a)">
<use x="564.269622" y="537.807658" fill="#ffffff" stroke="#ffffff" xlink:href="#b"/>
</g>
<g clip-path="url(#a)">
<use x="633.333333" y="440.16494" fill="#ffffff" stroke="#ffffff" xlink:href="#b"/>
</g>
<g clip-path="url(#a)">
<use x="610.312096" y="537.807658" fill="#ffffff" stroke="#ffffff" xlink:href="#b"/>
</g>
<g clip-path="url(#a)">
<use x="656.35457" y="537.807658" fill="#ffffff" stroke="#ffffff" xlink:href="#b"/>
</g>
<g clip-path="url(#a)">
<use x="288.014779" y="537.807658" fill="#ffffff" stroke="#ffffff" xlink:href="#b"/>
</g>
<g clip-path="url(#a)">
<use x="334.057253" y="537.807658" fill="#ffffff" stroke="#ffffff" xlink:href="#b"/>
</g>
<g clip-path="url(#a)">
<use x="103.844883" y="537.807658" fill="#ffffff" stroke="#ffffff" xlink:href="#b"/>
</g>
<g clip-path="url(#a)">
<use x="149.887357" y="537.807658" fill="#ffffff" stroke="#ffffff" xlink:href="#b"/>
</g>
<g clip-path="url(#a)">
<use x="218.951068" y="440.16494" fill="#ffffff" stroke="#ffffff" xlink:href="#b"/>
</g>
<g clip-path="url(#a)">
<use x="195.929831" y="537.807658" fill="#ffffff" stroke="#ffffff" xlink:href="#b"/>
</g>
<g clip-path="url(#a)">
<use x="241.972305" y="537.807658" fill="#ffffff" stroke="#ffffff" xlink:href="#b"/>
</g>
<g clip-path="url(#a)">
<use x="717.584666" y="31.21629" fill="#808080" stroke="#808080" xlink:href="#b"/>
</g>
<g clip-path="url(#a)">
<use x="702.397044" y="537.807658" fill="#ffffff" stroke="#ffffff" xlink:href="#b"/>
</g>
<g clip-path="url(#a)">
<use x="1162.821783" y="537.807658" fill="#ffffff" stroke="#ffffff" xlink:href="#b"/>
</g>
<g clip-path="url(#a)">
<defs>
<path id="q" d="m18.312 70.219v-15.531h18.5v-6.9844h-18.5v-29.688q0-6.6875 1.8281-8.5938t7.4531-1.9062h9.2188v-7.5156h-9.2188q-10.406 0-14.359 3.875-3.9531 3.8906-3.9531 14.141v29.688h-6.5938v6.9844h6.5938v15.531z"/>
</defs>
<g transform="translate(52.683 638.21) scale(.1 -.1)">
<use xlink:href="#p"/>
<use x="63.183594" xlink:href="#q"/>
</g>
</g>
<g clip-path="url(#a)">
<g transform="translate(99.379 638.21) scale(.1 -.1)">
<use xlink:href="#h"/>
<use x="27.783203" xlink:href="#e"/>
</g>
</g>
<g clip-path="url(#a)">
<defs>
<path id="ai" d="m48.688 27.297q0 9.9062-4.0781 15.547t-11.203 5.6406q-7.1406 0-11.219-5.6406t-4.0781-15.547 4.0781-15.547 11.219-5.6406q7.125 0 11.203 5.6406t4.0781 15.547zm-30.578 19.094q2.8438 4.875 7.1562 7.2344 4.3281 2.375 10.328 2.375 9.9688 0 16.188-7.9062 6.2344-7.9062 6.2344-20.797t-6.2344-20.812q-6.2188-7.9062-16.188-7.9062-6 0-10.328 2.375-4.3125 2.375-7.1562 7.25v-8.2031h-9.0312v75.984h9.0312z"/>
<path id="ah" d="m30.609 48.391q-7.2188 0-11.422-5.6406t-4.2031-15.453 4.1719-15.453q4.1875-5.6406 11.453-5.6406 7.1875 0 11.375 5.6562 4.2031 5.6719 4.2031 15.438 0 9.7188-4.2031 15.406-4.1875 5.6875-11.375 5.6875zm0 7.6094q11.719 0 18.406-7.625 6.7031-7.6094 6.7031-21.078 0-13.422-6.7031-21.078-6.6875-7.6406-18.406-7.6406-11.766 0-18.438 7.6406-6.6562 7.6562-6.6562 21.078 0 13.469 6.6562 21.078 6.6719 7.625 18.438 7.625z"/>
<path id="v" d="m8.5 21.578v33.109h8.9844v-32.766q0-7.7656 3.0156-11.656 3.0312-3.875 9.0938-3.875 7.2656 0 11.484 4.6406 4.2344 4.6406 4.2344 12.656v31h8.9844v-54.688h-8.9844v8.4062q-3.2656-4.9844-7.5938-7.4062-4.3125-2.4219-10.031-2.4219-9.4219 0-14.312 5.8594-4.875 5.8594-4.875 17.141z"/>
<path id="o" d="m44.281 53.078v-8.5q-3.7969 1.9531-7.9062 2.9219-4.0938 0.98438-8.5 0.98438-6.6875 0-10.031-2.0469t-3.3438-6.1562q0-3.125 2.3906-4.9062t9.625-3.3906l3.0781-0.6875q9.5625-2.0469 13.594-5.7812t4.0312-10.422q0-7.625-6.0312-12.078-6.0312-4.4375-16.578-4.4375-4.3906 0-9.1562 0.85938t-10.031 2.5625v9.2812q4.9844-2.5938 9.8125-3.8906 4.8281-1.2812 9.5781-1.2812 6.3438 0 9.75 2.1719 3.4219 2.1719 3.4219 6.125 0 3.6562-2.4688 5.6094-2.4531 1.9531-10.812 3.7656l-3.125 0.73438q-8.3438 1.75-12.062 5.3906-3.7031 3.6406-3.7031 9.9844 0 7.7188 5.4688 11.906 5.4688 4.2031 15.531 4.2031 4.9688 0 9.3594-0.73438 4.4062-0.71875 8.1094-2.1875z"/>
</defs>
<g transform="translate(122.53 638.21) scale(.1 -.1)">
<use xlink:href="#ai"/>
<use x="63.476562" xlink:href="#d"/>
<use x="124.755859" xlink:href="#ai"/>
<use x="188.232422" xlink:href="#g"/>
<use x="216.015625" xlink:href="#i"/>
<use x="257.097656" xlink:href="#ah"/>
<use x="318.279297" xlink:href="#v"/>
<use x="381.658203" xlink:href="#o"/>
<use x="433.757812" xlink:href="#o"/>
<use x="485.857422" xlink:href="#d"/>
</g>
</g>
<g clip-path="url(#a)">
<defs>
<path id="w" d="m45.406 46.391v29.594h8.9844v-75.984h-8.9844v8.2031q-2.8281-4.875-7.1562-7.25-4.3125-2.375-10.375-2.375-9.9062 0-16.141 7.9062-6.2188 7.9219-6.2188 20.812t6.2188 20.797q6.2344 7.9062 16.141 7.9062 6.0625 0 10.375-2.375 4.3281-2.3594 7.1562-7.2344zm-30.609-19.094q0-9.9062 4.0781-15.547t11.203-5.6406 11.219 5.6406q4.1094 5.6406 4.1094 15.547t-4.1094 15.547q-4.0938 5.6406-11.219 5.6406t-11.203-5.6406-4.0781-15.547z"/>
</defs>
<g transform="translate(189.68 638.21) scale(.1 -.1)">
<use xlink:href="#w"/>
<use x="63.476562" xlink:href="#e"/>
</g>
</g>
<g clip-path="url(#a)">
<g transform="translate(218.58 638.21) scale(.1 -.1)">
<use xlink:href="#l"/>
<use x="97.412109" xlink:href="#ah"/>
<use x="158.59375" xlink:href="#j"/>
<use x="221.972656" xlink:href="#o"/>
<use x="274.072266" xlink:href="#g"/>
<use x="301.855469" xlink:href="#e"/>
<use x="363.378906" xlink:href="#v"/>
<use x="426.757812" xlink:href="#i"/>
</g>
</g>
<g clip-path="url(#a)">
<g transform="translate(273.86 638.21) scale(.1 -.1)">
<use xlink:href="#o"/>
<use x="52.099609" xlink:href="#e"/>
<use x="113.623047" xlink:href="#i"/>
<use x="154.736328" xlink:href="#d"/>
<use x="216.015625" xlink:href="#g"/>
<use x="243.798828" xlink:href="#q"/>
</g>
</g>
<g clip-path="url(#a)">
<defs>
<path id="aq" d="m56.203 29.594v-4.3906h-41.312q0.59375-9.2812 5.5938-14.141t13.938-4.8594q5.1719 0 10.031 1.2656t9.6562 3.8125v-8.5q-4.8438-2.0469-9.9219-3.125t-10.297-1.0781q-13.094 0-20.734 7.6094-7.6406 7.625-7.6406 20.625 0 13.422 7.25 21.297 7.25 7.8906 19.562 7.8906 11.031 0 17.453-7.1094 6.4219-7.0938 6.4219-19.297zm-8.9844 2.6406q-0.09375 7.3594-4.125 11.75-4.0312 4.4062-10.672 4.4062-7.5156 0-12.031-4.25t-5.2031-11.969zm-8.6875 47.75h9.7188l-15.906-18.359h-7.4844z"/>
</defs>
<g transform="translate(316.02 638.21) scale(.1 -.1)">
<use xlink:href="#g"/>
<use x="27.783203" xlink:href="#j"/>
<use x="91.162109" xlink:href="#o"/>
<use x="143.261719" xlink:href="#q"/>
<use x="182.470703" xlink:href="#d"/>
<use x="243.75" xlink:href="#h"/>
<use x="271.533203" xlink:href="#h"/>
<use x="299.316406" xlink:href="#aq"/>
</g>
</g>
<g clip-path="url(#a)">
<g transform="translate(368.09 638.21) scale(.1 -.1)">
<use xlink:href="#w"/>
<use x="63.476562" xlink:href="#d"/>
<use x="124.755859" xlink:href="#j"/>
<use x="188.134766" xlink:href="#o"/>
</g>
</g>
<g clip-path="url(#a)">
<g transform="translate(420.47 638.21) scale(.1 -.1)">
<use xlink:href="#o"/>
<use x="52.099609" xlink:href="#d"/>
</g>
</g>
<g clip-path="url(#a)">
<defs>
<path id="ac" d="m48.781 52.594v-8.4062q-3.8125 2.1094-7.6406 3.1562t-7.7344 1.0469q-8.75 0-13.594-5.5469-4.8281-5.5312-4.8281-15.547t4.8281-15.562q4.8438-5.5312 13.594-5.5312 3.9062 0 7.7344 1.0469t7.6406 3.1562v-8.3125q-3.7656-1.75-7.7969-2.625-4.0156-0.89062-8.5625-0.89062-12.359 0-19.641 7.7656-7.2656 7.7656-7.2656 20.953 0 13.375 7.3438 21.031 7.3594 7.6719 20.156 7.6719 4.1406 0 8.0938-0.85938 3.9531-0.84375 7.6719-2.5469z"/>
<path id="at" d="m45.406 27.984q0 9.7656-4.0312 15.125-4.0156 5.375-11.297 5.375-7.2188 0-11.25-5.375-4.0312-5.3594-4.0312-15.125 0-9.7188 4.0312-15.094t11.25-5.375q7.2812 0 11.297 5.375 4.0312 5.375 4.0312 15.094zm8.9844-21.203q0-13.953-6.2031-20.766-6.1875-6.8125-18.984-6.8125-4.7344 0-8.9375 0.70312t-8.1562 2.1719v8.7344q3.9531-2.1406 7.8125-3.1562 3.8594-1.0312 7.8594-1.0312 8.8438 0 13.234 4.6094t4.3906 13.938v4.4531q-2.7812-4.8438-7.125-7.2344t-10.406-2.3906q-10.047 0-16.203 7.6562-6.1562 7.6719-6.1562 20.328 0 12.688 6.1562 20.344 6.1562 7.6719 16.203 7.6719 6.0625 0 10.406-2.3906t7.125-7.2188v8.2969h8.9844z"/>
</defs>
<g transform="translate(460.12 638.21) scale(.1 -.1)">
<use xlink:href="#ac"/>
<use x="54.980469" xlink:href="#d"/>
<use x="116.259766" xlink:href="#at"/>
<use x="179.736328" xlink:href="#e"/>
</g>
</g>
<g clip-path="url(#a)">
<g transform="translate(511.88 638.21) scale(.1 -.1)">
<use xlink:href="#w"/>
<use x="63.476562" xlink:href="#v"/>
</g>
</g>
<g clip-path="url(#a)">
<defs>
<path id="am" d="m9.8125 72.906h9.8594v-67.828q0-13.188-5-19.141t-16.094-5.9531h-3.75v8.2969h3.0781q6.5312 0 9.2188 3.6719 2.6875 3.6562 2.6875 13.125z"/>
</defs>
<g transform="translate(549.94 638.21) scale(.1 -.1)">
<use xlink:href="#am"/>
<use x="29.492188" xlink:href="#d"/>
<use x="90.771484" xlink:href="#i"/>
<use x="131.869141" xlink:href="#w"/>
<use x="195.345703" xlink:href="#g"/>
<use x="223.128906" xlink:href="#j"/>
</g>
</g>
<g clip-path="url(#a)">
<g transform="translate(601.46 638.21) scale(.1 -.1)">
<use xlink:href="#w"/>
<use x="63.476562" xlink:href="#e"/>
<use x="125" xlink:href="#o"/>
</g>
</g>
<g clip-path="url(#a)">
<g transform="translate(638.08 638.21) scale(.1 -.1)">
<use xlink:href="#y"/>
<use x="60.302734" xlink:href="#h"/>
<use x="88.085938" xlink:href="#d"/>
<use x="149.365234" xlink:href="#j"/>
<use x="212.744141" xlink:href="#q"/>
<use x="251.953125" xlink:href="#e"/>
<use x="313.476562" xlink:href="#o"/>
</g>
</g>
<g clip-path="url(#a)">
<defs>
<path id="ao" d="m11.719 12.406h10.297v-8.4062l-8-15.625h-6.2969l4 15.625z"/>
</defs>
<g transform="translate(700.81 638.21) scale(.1 -.1)">
<use xlink:href="#ao"/>
</g>
</g>
<g clip-path="url(#a)">
<g transform="translate(743.4 638.21) scale(.1 -.1)">
<use xlink:href="#e"/>
<use x="61.523438" xlink:href="#q"/>
</g>
</g>
<g clip-path="url(#a)">
<g transform="translate(791.7 638.21) scale(.1 -.1)">
<use xlink:href="#g"/>
<use x="27.783203" xlink:href="#h"/>
</g>
</g>
<g clip-path="url(#a)">
<g transform="translate(818.55 638.21) scale(.1 -.1)">
<use xlink:href="#d"/>
<use x="61.279297" xlink:href="#q"/>
<use x="100.488281" xlink:href="#q"/>
<use x="139.697266" xlink:href="#g"/>
<use x="167.480469" xlink:href="#i"/>
<use x="208.5625" xlink:href="#e"/>
<use x="270.085938" xlink:href="#i"/>
<use x="311.199219" xlink:href="#d"/>
<use x="372.478516" xlink:href="#g"/>
<use x="400.261719" xlink:href="#q"/>
</g>
</g>
<g clip-path="url(#a)">
<g transform="translate(875.77 638.21) scale(.1 -.1)">
<use xlink:href="#q"/>
<use x="39.208984" xlink:href="#ah"/>
<use x="100.390625" xlink:href="#v"/>
<use x="163.769531" xlink:href="#o"/>
</g>
</g>
<g clip-path="url(#a)">
<g transform="translate(925.54 638.21) scale(.1 -.1)">
<use xlink:href="#h"/>
<use x="27.783203" xlink:href="#e"/>
<use x="89.306641" xlink:href="#o"/>
</g>
</g>
<g clip-path="url(#a)">
<defs>
<path id="ar" d="m54.891 54.688-19.781-26.609 20.797-28.078h-10.594l-15.922 21.484-15.906-21.484h-10.609l21.25 28.609-19.438 26.078h10.594l14.5-19.484 14.5 19.484z"/>
</defs>
<g transform="translate(960.08 638.21) scale(.1 -.1)">
<use xlink:href="#ac"/>
<use x="54.980469" xlink:href="#v"/>
<use x="118.359375" xlink:href="#i"/>
<use x="159.472656" xlink:href="#g"/>
<use x="187.255859" xlink:href="#e"/>
<use x="248.779297" xlink:href="#v"/>
<use x="312.158203" xlink:href="#ar"/>
</g>
</g>
<g clip-path="url(#a)">
<g transform="translate(1018.4 638.21) scale(.1 -.1)">
<use xlink:href="#w"/>
<use x="63.476562" xlink:href="#e"/>
</g>
</g>
<g clip-path="url(#a)">
<g transform="translate(1066.3 638.21) scale(.1 -.1)">
<use xlink:href="#h"/>
<use x="27.783203" xlink:href="#d"/>
</g>
</g>
<g clip-path="url(#a)">
<defs>
<path id="as" d="m18.109 8.2031v-29h-9.0312v75.484h9.0312v-8.2969q2.8438 4.875 7.1562 7.2344 4.3281 2.375 10.328 2.375 9.9688 0 16.188-7.9062 6.2344-7.9062 6.2344-20.797t-6.2344-20.812q-6.2188-7.9062-16.188-7.9062-6 0-10.328 2.375-4.3125 2.375-7.1562 7.25zm30.578 19.094q0 9.9062-4.0781 15.547t-11.203 5.6406q-7.1406 0-11.219-5.6406t-4.0781-15.547 4.0781-15.547 11.219-5.6406q7.125 0 11.203 5.6406t4.0781 15.547z"/>
</defs>
<g transform="translate(1096.9 638.21) scale(.1 -.1)">
<use xlink:href="#ac"/>
<use x="54.980469" xlink:href="#d"/>
<use x="116.259766" xlink:href="#as"/>
<use x="179.736328" xlink:href="#g"/>
<use x="207.519531" xlink:href="#q"/>
<use x="246.728516" xlink:href="#d"/>
<use x="308.007812" xlink:href="#h"/>
<use x="335.791016" xlink:href="#e"/>
</g>
</g>
<g clip-path="url(#a)">
<defs>
<path id="ap" d="m15.094 12.406h9.9062v-12.406h-9.9062zm0 60.5h9.9062v-31.984l-0.96875-17.438h-7.9219l-1.0156 17.438z"/>
</defs>
<g transform="translate(1160.8 638.21) scale(.1 -.1)">
<use xlink:href="#ap"/>
</g>
</g>
<g clip-path="url(#a)">
<defs>
<path id="c" d="m12.406 8.2969h16.109v55.625l-17.531-3.5156v8.9844l17.438 3.5156h9.8594v-64.609h16.109v-8.2969h-41.984z"/>
<path id="f" d="m10.688 12.406h10.312v-12.406h-10.312z"/>
</defs>
<g transform="translate(574.64 33.976) scale(.1 -.1)">
<use xlink:href="#c"/>
<use x="63.623047" xlink:href="#f"/>
<use x="95.410156" xlink:href="#c"/>
</g>
</g>
<g clip-path="url(#a)">
<defs>
<path id="n" d="m19.188 8.2969h34.422v-8.2969h-46.281v8.2969q5.6094 5.8125 15.297 15.594 9.7031 9.7969 12.188 12.641 4.7344 5.3125 6.6094 9 1.8906 3.6875 1.8906 7.25 0 5.8125-4.0781 9.4688-4.0781 3.6719-10.625 3.6719-4.6406 0-9.7969-1.6094-5.1406-1.6094-11-4.8906v9.9688q5.9531 2.3906 11.125 3.6094 5.1875 1.2188 9.4844 1.2188 11.328 0 18.062-5.6719 6.7344-5.6562 6.7344-15.125 0-4.5-1.6875-8.5312-1.6719-4.0156-6.125-9.4844-1.2188-1.4219-7.7656-8.1875-6.5312-6.7656-18.453-18.922z"/>
</defs>
<g transform="translate(49.851 540.57) scale(.1 -.1)">
<use xlink:href="#c"/>
<use x="63.623047" xlink:href="#f"/>
<use x="95.410156" xlink:href="#n"/>
</g>
</g>
<g clip-path="url(#a)">
<defs>
<path id="m" d="m40.578 39.312q7.0781-1.5156 11.047-6.3125 3.9844-4.7812 3.9844-11.812 0-10.781-7.4219-16.703-7.4219-5.9062-21.094-5.9062-4.5781 0-9.4375 0.90625t-10.031 2.7188v9.5156q4.0938-2.3906 8.9688-3.6094 4.8906-1.2188 10.219-1.2188 9.2656 0 14.125 3.6562t4.8594 10.641q0 6.4531-4.5156 10.078-4.5156 3.6406-12.562 3.6406h-8.5v8.1094h8.8906q7.2656 0 11.125 2.9062t3.8594 8.375q0 5.6094-3.9844 8.6094-3.9688 3.0156-11.391 3.0156-4.0625 0-8.7031-0.89062-4.6406-0.875-10.203-2.7188v8.7812q5.625 1.5625 10.531 2.3438t9.25 0.78125q11.234 0 17.766-5.1094 6.5469-5.0938 6.5469-13.781 0-6.0625-3.4688-10.234t-9.8594-5.7812z"/>
</defs>
<g transform="translate(527.06 139.81) scale(.1 -.1)">
<use xlink:href="#c"/>
<use x="63.623047" xlink:href="#f"/>
<use x="95.410156" xlink:href="#m"/>
</g>
</g>
<g clip-path="url(#a)">
<defs>
<path id="ab" d="m10.797 72.906h38.719v-8.3125h-29.688v-17.859q2.1406 0.73438 4.2812 1.0938 2.1562 0.35938 4.3125 0.35938 12.203 0 19.328-6.6875 7.1406-6.6875 7.1406-18.109 0-11.766-7.3281-18.297-7.3281-6.5156-20.656-6.5156-4.5938 0-9.3594 0.78125-4.75 0.78125-9.8281 2.3438v9.9219q4.3906-2.3906 9.0781-3.5625t9.9062-1.1719q8.4531 0 13.375 4.4375 4.9375 4.4375 4.9375 12.062 0 7.6094-4.9375 12.047-4.9219 4.4531-13.375 4.4531-3.9531 0-7.8906-0.875-3.9219-0.875-8.0156-2.7344z"/>
</defs>
<g transform="translate(740.49 540.57) scale(.1 -.1)">
<use xlink:href="#c"/>
<use x="63.623047" xlink:href="#f"/>
<use x="95.410156" xlink:href="#ab"/>
</g>
</g>
<g clip-path="url(#a)">
<defs>
<path id="aa" d="m33.016 40.375q-6.6406 0-10.531-4.5469-3.875-4.5312-3.875-12.438 0-7.8594 3.875-12.438 3.8906-4.5625 10.531-4.5625t10.516 4.5625q3.875 4.5781 3.875 12.438 0 7.9062-3.875 12.438-3.875 4.5469-10.516 4.5469zm19.578 30.922v-8.9844q-3.7188 1.75-7.5 2.6719-3.7812 0.9375-7.5 0.9375-9.7656 0-14.922-6.5938-5.1406-6.5938-5.875-19.922 2.875 4.25 7.2188 6.5156 4.3594 2.2656 9.5781 2.2656 10.984 0 17.359-6.6719 6.375-6.6562 6.375-18.125 0-11.234-6.6406-18.031-6.6406-6.7812-17.672-6.7812-12.656 0-19.344 9.6875-6.6875 9.7031-6.6875 28.109 0 17.281 8.2031 27.562t22.016 10.281q3.7188 0 7.5-0.73438t7.8906-2.1875z"/>
</defs>
<g transform="translate(861.35 243.02) scale(.1 -.1)">
<use xlink:href="#c"/>
<use x="63.623047" xlink:href="#f"/>
<use x="95.410156" xlink:href="#aa"/>
</g>
</g>
<g clip-path="url(#a)">
<defs>
<path id="af" d="m8.2031 72.906h46.875v-4.2031l-26.469-68.703h-10.297l24.906 64.594h-35.016z"/>
</defs>
<g transform="translate(786.53 540.57) scale(.1 -.1)">
<use xlink:href="#c"/>
<use x="63.623047" xlink:href="#f"/>
<use x="95.410156" xlink:href="#af"/>
</g>
</g>
<g clip-path="url(#a)">
<defs>
<path id="ae" d="m31.781 34.625q-7.0312 0-11.062-3.7656-4.0156-3.7656-4.0156-10.344 0-6.5938 4.0156-10.359 4.0312-3.7656 11.062-3.7656t11.078 3.7812q4.0625 3.7969 4.0625 10.344 0 6.5781-4.0312 10.344-4.0156 3.7656-11.109 3.7656zm-9.8594 4.1875q-6.3438 1.5625-9.8906 5.9062-3.5312 4.3594-3.5312 10.609 0 8.7344 6.2188 13.812 6.2344 5.0781 17.062 5.0781 10.891 0 17.094-5.0781t6.2031-13.812q0-6.25-3.5469-10.609-3.5312-4.3438-9.8281-5.9062 7.125-1.6562 11.094-6.5 3.9844-4.8281 3.9844-11.797 0-10.609-6.4688-16.281-6.4688-5.6562-18.531-5.6562-12.047 0-18.531 5.6562-6.4688 5.6719-6.4688 16.281 0 6.9688 4 11.797 4.0156 4.8438 11.141 6.5zm-3.6094 15.578q0-5.6562 3.5312-8.8281 3.5469-3.1719 9.9375-3.1719 6.3594 0 9.9375 3.1719 3.5938 3.1719 3.5938 8.8281 0 5.6719-3.5938 8.8438-3.5781 3.1719-9.9375 3.1719-6.3906 0-9.9375-3.1719-3.5312-3.1719-3.5312-8.8438z"/>
</defs>
<g transform="translate(832.57 540.57) scale(.1 -.1)">
<use xlink:href="#c"/>
<use x="63.623047" xlink:href="#f"/>
<use x="95.410156" xlink:href="#ae"/>
</g>
</g>
<g clip-path="url(#a)">
<defs>
<path id="z" d="m10.984 1.5156v8.9844q3.7188-1.7656 7.5156-2.6875 3.8125-0.92188 7.4844-0.92188 9.7656 0 14.906 6.5625 5.1562 6.5625 5.8906 19.953-2.8281-4.2031-7.1875-6.4531-4.3438-2.25-9.6094-2.25-10.938 0-17.312 6.6094-6.375 6.625-6.375 18.109 0 11.219 6.6406 18 6.6406 6.7969 17.672 6.7969 12.656 0 19.312-9.7031 6.6719-9.6875 6.6719-28.141 0-17.234-8.1875-27.516-8.1719-10.281-21.984-10.281-3.7188 0-7.5312 0.73438-3.7969 0.73438-7.9062 2.2031zm19.625 30.906q6.6406 0 10.516 4.5312 3.8906 4.5469 3.8906 12.469 0 7.8594-3.8906 12.422-3.875 4.5625-10.516 4.5625t-10.516-4.5625-3.875-12.422q0-7.9219 3.875-12.469 3.875-4.5312 10.516-4.5312z"/>
</defs>
<g transform="translate(964.95 343.92) scale(.1 -.1)">
<use xlink:href="#c"/>
<use x="63.623047" xlink:href="#f"/>
<use x="95.410156" xlink:href="#z"/>
</g>
</g>
<g clip-path="url(#a)">
<g transform="translate(875.43 540.57) scale(.1 -.1)">
<use xlink:href="#c"/>
<use x="63.623047" xlink:href="#f"/>
<use x="95.410156" xlink:href="#c"/>
<use x="159.033203" xlink:href="#c"/>
</g>
</g>
<g clip-path="url(#a)">
<g transform="translate(921.48 540.57) scale(.1 -.1)">
<use xlink:href="#c"/>
<use x="63.623047" xlink:href="#f"/>
<use x="95.410156" xlink:href="#c"/>
<use x="159.033203" xlink:href="#n"/>
</g>
</g>
<g clip-path="url(#a)">
<g transform="translate(967.52 540.57) scale(.1 -.1)">
<use xlink:href="#c"/>
<use x="63.623047" xlink:href="#f"/>
<use x="95.410156" xlink:href="#c"/>
<use x="159.033203" xlink:href="#m"/>
</g>
</g>
<g clip-path="url(#a)">
<defs>
<path id="x" d="m37.797 64.312-24.906-38.922h24.906zm-2.5938 8.5938h12.406v-47.516h10.406v-8.2031h-10.406v-17.188h-9.8125v17.188h-32.906v9.5156z"/>
</defs>
<g transform="translate(1082.6 442.92) scale(.1 -.1)">
<use xlink:href="#c"/>
<use x="63.623047" xlink:href="#f"/>
<use x="95.410156" xlink:href="#c"/>
<use x="159.033203" xlink:href="#x"/>
</g>
</g>
<g clip-path="url(#a)">
<g transform="translate(1013.6 540.57) scale(.1 -.1)">
<use xlink:href="#c"/>
<use x="63.623047" xlink:href="#f"/>
<use x="95.410156" xlink:href="#c"/>
<use x="159.033203" xlink:href="#ab"/>
</g>
</g>
<g clip-path="url(#a)">
<g transform="translate(1059.6 540.57) scale(.1 -.1)">
<use xlink:href="#c"/>
<use x="63.623047" xlink:href="#f"/>
<use x="95.410156" xlink:href="#c"/>
<use x="159.033203" xlink:href="#aa"/>
</g>
</g>
<g clip-path="url(#a)">
<g transform="translate(1105.6 540.57) scale(.1 -.1)">
<use xlink:href="#c"/>
<use x="63.623047" xlink:href="#f"/>
<use x="95.410156" xlink:href="#c"/>
<use x="159.033203" xlink:href="#af"/>
</g>
</g>
<g clip-path="url(#a)">
<defs>
<path id="ad" d="m9.8125 72.906h9.8594v-72.906h-9.8594z"/>
<path id="al" d="m9.8125 72.906h14.703l18.594-49.609 18.703 49.609h14.703v-72.906h-9.625v64.016l-18.797-50h-9.9062l-18.797 50v-64.016h-9.5781z"/>
</defs>
<g transform="translate(1187.8 638.21) scale(.1 -.1)">
<use xlink:href="#ad"/>
<use x="29.492188" xlink:href="#al"/>
<use x="115.771484" xlink:href="#y"/>
<use x="176.074219" xlink:href="#u"/>
<use x="231.787109" xlink:href="#ad"/>
<use x="261.279297" xlink:href="#r"/>
<use x="331.103516" xlink:href="#ad"/>
<use x="360.595703" xlink:href="#k"/>
</g>
</g>
<g clip-path="url(#a)">
<g transform="translate(146.43 343.92) scale(.1 -.1)">
<use xlink:href="#c"/>
<use x="63.623047" xlink:href="#f"/>
<use x="95.410156" xlink:href="#c"/>
<use x="159.033203" xlink:href="#z"/>
</g>
</g>
<g clip-path="url(#a)">
<defs>
<path id="ag" d="m31.781 66.406q-7.6094 0-11.453-7.5-3.8281-7.4844-3.8281-22.531 0-14.984 3.8281-22.484 3.8438-7.5 11.453-7.5 7.6719 0 11.5 7.5 3.8438 7.5 3.8438 22.484 0 15.047-3.8438 22.531-3.8281 7.5-11.5 7.5zm0 7.8125q12.266 0 18.734-9.7031 6.4688-9.6875 6.4688-28.141 0-18.406-6.4688-28.109-6.4688-9.6875-18.734-9.6875-12.25 0-18.719 9.6875-6.4688 9.7031-6.4688 28.109 0 18.453 6.4688 28.141 6.4688 9.7031 18.719 9.7031z"/>
</defs>
<g transform="translate(299.9 442.92) scale(.1 -.1)">
<use xlink:href="#c"/>
<use x="63.623047" xlink:href="#f"/>
<use x="95.410156" xlink:href="#n"/>
<use x="159.033203" xlink:href="#ag"/>
</g>
</g>
<g clip-path="url(#a)">
<g transform="translate(451.46 243.02) scale(.1 -.1)">
<use xlink:href="#c"/>
<use x="63.623047" xlink:href="#f"/>
<use x="95.410156" xlink:href="#n"/>
<use x="159.033203" xlink:href="#c"/>
</g>
</g>
<g clip-path="url(#a)">
<g transform="translate(368.97 540.57) scale(.1 -.1)">
<use xlink:href="#c"/>
<use x="63.623047" xlink:href="#f"/>
<use x="95.410156" xlink:href="#n"/>
<use x="159.033203" xlink:href="#n"/>
</g>
</g>
<g clip-path="url(#a)">
<g transform="translate(415.01 540.57) scale(.1 -.1)">
<use xlink:href="#c"/>
<use x="63.623047" xlink:href="#f"/>
<use x="95.410156" xlink:href="#n"/>
<use x="159.033203" xlink:href="#m"/>
</g>
</g>
<g clip-path="url(#a)">
<g transform="translate(461.05 540.57) scale(.1 -.1)">
<use xlink:href="#c"/>
<use x="63.623047" xlink:href="#f"/>
<use x="95.410156" xlink:href="#n"/>
<use x="159.033203" xlink:href="#x"/>
</g>
</g>
<g clip-path="url(#a)">
<g transform="translate(560.81 343.92) scale(.1 -.1)">
<use xlink:href="#c"/>
<use x="63.623047" xlink:href="#f"/>
<use x="95.410156" xlink:href="#n"/>
<use x="159.033203" xlink:href="#ab"/>
</g>
</g>
<g clip-path="url(#a)">
<g transform="translate(507.09 540.57) scale(.1 -.1)">
<use xlink:href="#c"/>
<use x="63.623047" xlink:href="#f"/>
<use x="95.410156" xlink:href="#n"/>
<use x="159.033203" xlink:href="#aa"/>
</g>
</g>
<g clip-path="url(#a)">
<g transform="translate(553.14 540.57) scale(.1 -.1)">
<use xlink:href="#c"/>
<use x="63.623047" xlink:href="#f"/>
<use x="95.410156" xlink:href="#n"/>
<use x="159.033203" xlink:href="#ae"/>
</g>
</g>
<g clip-path="url(#a)">
<g transform="translate(622.2 442.92) scale(.1 -.1)">
<use xlink:href="#c"/>
<use x="63.623047" xlink:href="#f"/>
<use x="95.410156" xlink:href="#n"/>
<use x="159.033203" xlink:href="#z"/>
</g>
</g>
<g clip-path="url(#a)">
<g transform="translate(599.18 540.57) scale(.1 -.1)">
<use xlink:href="#c"/>
<use x="63.623047" xlink:href="#f"/>
<use x="95.410156" xlink:href="#m"/>
<use x="159.033203" xlink:href="#ag"/>
</g>
</g>
<g clip-path="url(#a)">
<g transform="translate(645.22 540.57) scale(.1 -.1)">
<use xlink:href="#c"/>
<use x="63.623047" xlink:href="#f"/>
<use x="95.410156" xlink:href="#m"/>
<use x="159.033203" xlink:href="#c"/>
</g>
</g>
<g clip-path="url(#a)">
<g transform="translate(276.88 540.57) scale(.1 -.1)">
<use xlink:href="#c"/>
<use x="63.623047" xlink:href="#f"/>
<use x="95.410156" xlink:href="#m"/>
<use x="159.033203" xlink:href="#n"/>
</g>
</g>
<g clip-path="url(#a)">
<g transform="translate(322.92 540.57) scale(.1 -.1)">
<use xlink:href="#c"/>
<use x="63.623047" xlink:href="#f"/>
<use x="95.410156" xlink:href="#m"/>
<use x="159.033203" xlink:href="#m"/>
</g>
</g>
<g clip-path="url(#a)">
<g transform="translate(92.712 540.57) scale(.1 -.1)">
<use xlink:href="#c"/>
<use x="63.623047" xlink:href="#f"/>
<use x="95.410156" xlink:href="#m"/>
<use x="159.033203" xlink:href="#x"/>
</g>
</g>
<g clip-path="url(#a)">
<g transform="translate(138.75 540.57) scale(.1 -.1)">
<use xlink:href="#c"/>
<use x="63.623047" xlink:href="#f"/>
<use x="95.410156" xlink:href="#m"/>
<use x="159.033203" xlink:href="#ab"/>
</g>
</g>
<g clip-path="url(#a)">
<g transform="translate(207.82 442.92) scale(.1 -.1)">
<use xlink:href="#c"/>
<use x="63.623047" xlink:href="#f"/>
<use x="95.410156" xlink:href="#m"/>
<use x="159.033203" xlink:href="#aa"/>
</g>
</g>
<g clip-path="url(#a)">
<g transform="translate(184.8 540.57) scale(.1 -.1)">
<use xlink:href="#c"/>
<use x="63.623047" xlink:href="#f"/>
<use x="95.410156" xlink:href="#m"/>
<use x="159.033203" xlink:href="#af"/>
</g>
</g>
<g clip-path="url(#a)">
<g transform="translate(230.84 540.57) scale(.1 -.1)">
<use xlink:href="#c"/>
<use x="63.623047" xlink:href="#f"/>
<use x="95.410156" xlink:href="#m"/>
<use x="159.033203" xlink:href="#ae"/>
</g>
</g>
<g clip-path="url(#a)">
<g transform="translate(706.45 33.976) scale(.1 -.1)">
<use xlink:href="#c"/>
<use x="63.623047" xlink:href="#f"/>
<use x="95.410156" xlink:href="#m"/>
<use x="159.033203" xlink:href="#z"/>
</g>
</g>
<g clip-path="url(#a)">
<g transform="translate(691.26 540.57) scale(.1 -.1)">
<use xlink:href="#c"/>
<use x="63.623047" xlink:href="#f"/>
<use x="95.410156" xlink:href="#x"/>
<use x="159.033203" xlink:href="#ag"/>
</g>
</g>
<g clip-path="url(#a)">
<g transform="translate(1151.7 540.57) scale(.1 -.1)">
<use xlink:href="#c"/>
<use x="63.623047" xlink:href="#f"/>
<use x="95.410156" xlink:href="#x"/>
<use x="159.033203" xlink:href="#c"/>
</g>
</g>
<defs>
<clipPath id="a">
<rect width="1266.7" height="666.67"/>
</clipPath>
</defs>
</svg>
