<?xml version="1.0" encoding="UTF-8"?>
<!DOCTYPE svg  PUBLIC '-//W3C//DTD SVG 1.1//EN'  'http://www.w3.org/Graphics/SVG/1.1/DTD/svg11.dtd'>
<svg width="1722.7pt" height="906.67pt" version="1.1" viewBox="0 0 1722.7 906.67" xmlns="http://www.w3.org/2000/svg" xmlns:xlink="http://www.w3.org/1999/xlink">
<defs>
<style type="text/css">*{stroke-linecap:butt;stroke-linejoin:round;white-space:pre;}</style>
</defs>
<path d="m0 906.67h1722.7v-906.67h-1722.7z" fill="#fff"/>
<g fill="none" stroke="#000">
<path d="m1034.3 41.987-736.17 125.49" clip-path="url(#a)"/>
<path d="m1034.3 41.987 472.18 483.13" clip-path="url(#a)"/>
<path d="m1034.3 41.987 44.503 710.03" clip-path="url(#a)"/>
<path d="m1034.3 41.987 87.996 710.03" clip-path="url(#a)"/>
<path d="m1034.3 41.987 131.49 710.03" clip-path="url(#a)"/>
<path d="m298.12 167.48 445.92 122.12" clip-path="url(#a)"/>
<path d="m298.12 167.48-132.68 584.54" clip-path="url(#a)"/>
<path d="m298.12 167.48-89.185 584.54" clip-path="url(#a)"/>
<path d="m298.12 167.48-45.692 584.54" clip-path="url(#a)"/>
<path d="m298.12 167.48-176.17 584.54" clip-path="url(#a)"/>
<path d="m298.12 167.48-2.1988 584.54" clip-path="url(#a)"/>
<path d="m1506.5 525.11 94.235 339.57" clip-path="url(#a)"/>
<path d="m1506.5 525.11 50.742 339.57" clip-path="url(#a)"/>
<path d="m1506.5 525.11-144.98 114.23" clip-path="url(#a)"/>
<path d="m1361.5 639.35-152.23 112.67" clip-path="url(#a)"/>
<path d="m1361.5 639.35-108.73 112.67" clip-path="url(#a)"/>
<path d="m1361.5 639.35-65.239 112.67" clip-path="url(#a)"/>
<path d="m1361.5 639.35-21.746 112.67" clip-path="url(#a)"/>
<path d="m1361.5 639.35 65.239 112.67" clip-path="url(#a)"/>
<path d="m1361.5 639.35 21.746 112.67" clip-path="url(#a)"/>
<path d="m1361.5 639.35 108.73 112.67" clip-path="url(#a)"/>
<path d="m1361.5 639.35 152.23 112.67" clip-path="url(#a)"/>
<path d="m1209.3 752.01v112.67" clip-path="url(#a)"/>
<path d="m1252.8 752.01v112.67" clip-path="url(#a)"/>
<path d="m1296.3 752.01v112.67" clip-path="url(#a)"/>
<path d="m1339.8 752.01v112.67" clip-path="url(#a)"/>
<path d="m1426.7 752.01v112.67" clip-path="url(#a)"/>
<path d="m744.05 289.59-411.15 119.09" clip-path="url(#a)"/>
<path d="m744.05 289.59 30.3 462.42" clip-path="url(#a)"/>
<path d="m744.05 289.59 320.25 349.75" clip-path="url(#a)"/>
<path d="m744.05 289.59-13.193 462.42" clip-path="url(#a)"/>
<path d="m744.05 289.59 73.793 462.42" clip-path="url(#a)"/>
<path d="m165.45 752.01v112.67" clip-path="url(#a)"/>
<path d="m208.94 752.01v112.67" clip-path="url(#a)"/>
<path d="m252.43 752.01v112.67" clip-path="url(#a)"/>
<path d="m332.89 408.68-254.43 343.33" clip-path="url(#a)"/>
<path d="m332.89 408.68 6.5239 343.33" clip-path="url(#a)"/>
<path d="m332.89 408.68 50.017 343.33" clip-path="url(#a)"/>
<path d="m332.89 408.68 197.89 116.43" clip-path="url(#a)"/>
<path d="m774.35 752.01v112.67" clip-path="url(#a)"/>
<path d="m1064.3 639.35 579.91 225.33" clip-path="url(#a)"/>
<path d="m1064.3 639.35-202.97 112.67" clip-path="url(#a)"/>
<path d="m1064.3 639.35-115.98 112.67" clip-path="url(#a)"/>
<path d="m1064.3 639.35-72.488 112.67" clip-path="url(#a)"/>
<path d="m1064.3 639.35-28.995 112.67" clip-path="url(#a)"/>
<path d="m1064.3 639.35-159.47 112.67" clip-path="url(#a)"/>
<path d="m861.33 752.01v112.67" clip-path="url(#a)"/>
<path d="m948.32 752.01v112.67" clip-path="url(#a)"/>
<path d="m991.81 752.01v112.67" clip-path="url(#a)"/>
<path d="m1035.3 752.01v112.67" clip-path="url(#a)"/>
<path d="m78.46 752.01v112.67" clip-path="url(#a)"/>
<path d="m339.42 752.01v112.67" clip-path="url(#a)"/>
<path d="m382.91 752.01v112.67" clip-path="url(#a)"/>
<path d="m530.79 525.11-104.38 226.9" clip-path="url(#a)"/>
<path d="m530.79 525.11-60.89 226.9" clip-path="url(#a)"/>
<path d="m530.79 525.11-17.397 226.9" clip-path="url(#a)"/>
<path d="m530.79 525.11 47.842 226.9" clip-path="url(#a)"/>
<path d="m530.79 525.11 134.83 114.23" clip-path="url(#a)"/>
<path d="m426.4 752.01v112.67" clip-path="url(#a)"/>
<path d="m469.9 752.01v112.67" clip-path="url(#a)"/>
<path d="m513.39 752.01v112.67" clip-path="url(#a)"/>
<path d="m578.63 752.01-21.746 112.67" clip-path="url(#a)"/>
<path d="m578.63 752.01 21.746 112.67" clip-path="url(#a)"/>
<path d="m665.62 639.35-21.746 112.67" clip-path="url(#a)"/>
<path d="m665.62 639.35 21.746 112.67" clip-path="url(#a)"/>
<path d="m643.87 752.01v112.67" clip-path="url(#a)"/>
<path d="m687.36 752.01v112.67" clip-path="url(#a)"/>
<path d="m121.95 752.01v112.67" clip-path="url(#a)"/>
<path d="m295.93 752.01v112.67" clip-path="url(#a)"/>
<path d="m730.85 752.01v112.67" clip-path="url(#a)"/>
<path d="m817.84 752.01v112.67" clip-path="url(#a)"/>
<path d="m904.83 752.01v112.67" clip-path="url(#a)"/>
<path d="m1078.8 752.01v112.67" clip-path="url(#a)"/>
<path d="m1122.3 752.01v112.67" clip-path="url(#a)"/>
<path d="m1165.8 752.01v112.67" clip-path="url(#a)"/>
<path d="m1383.2 752.01v112.67" clip-path="url(#a)"/>
<path d="m1470.2 752.01v112.67" clip-path="url(#a)"/>
<path d="m1513.7 752.01v112.67" clip-path="url(#a)"/>
</g>
<path d="m664.3 111.42 5.9307-1.011q2.3659-0.4033 1.9626-2.7692l-1.301-7.6324q-0.4033-2.3659-2.7692-1.9626l-5.9307 1.011q-2.3659 0.4033-1.9626 2.7692l1.301 7.6324q0.40329 2.3659 2.7692 1.9626z" clip-path="url(#a)" fill="#fff" stroke="#fff"/>
<g clip-path="url(#a)">
<defs>
<path id="ab" d="m9.8125 72.906h9.8594v-29.891h35.844v29.891h9.8594v-72.906h-9.8594v34.719h-35.844v-34.719h-9.8594z"/>
</defs>
<g transform="translate(663.62 107.41) rotate(-9.6738) scale(.08 -.08)">
<use xlink:href="#ab"/>
</g>
</g>
<path d="m1263.8 285.78 4.2051 4.3026q1.6775 1.7164 3.3939 0.038878l5.5371-5.4117q1.7164-1.6775 0.038879-3.3939l-4.2051-4.3026q-1.6775-1.7164-3.3939-0.038878l-5.5371 5.4117q-1.7164 1.6775-0.038878 3.3939z" clip-path="url(#a)" fill="#fff" stroke="#fff"/>
<g clip-path="url(#a)">
<g transform="translate(1266.7 282.94) rotate(45.656) scale(.08 -.08)">
<use xlink:href="#ab"/>
</g>
</g>
<path d="m1050.1 394.47 0.36626 5.8435q0.15013 2.3953 2.5454 2.2452l7.7273-0.48433q2.3953-0.15013 2.2452-2.5454l-0.36626-5.8435q-0.15013-2.3953-2.5454-2.2452l-7.7273 0.48433q-2.3953 0.15013-2.2452 2.5454z" clip-path="url(#a)" fill="#fff" stroke="#fff"/>
<g clip-path="url(#a)">
<defs>
<path id="p" d="m8.6875 72.906h9.9219v-44.297q0-11.719 4.2344-16.875 4.25-5.1406 13.781-5.1406 9.4688 0 13.719 5.1406 4.25 5.1562 4.25 16.875v44.297h9.9062v-45.516q0-14.25-7.0625-21.531-7.0469-7.2812-20.812-7.2812-13.828 0-20.891 7.2812-7.0469 7.2812-7.0469 21.531z"/>
</defs>
<g transform="translate(1054.2 394.22) rotate(86.414) scale(.08 -.08)">
<use xlink:href="#p"/>
</g>
</g>
<path d="m1071.7 394.87 0.72012 5.8105q0.29518 2.3818 2.677 2.0866l7.6837-0.95227q2.3818-0.29518 2.0866-2.677l-0.72012-5.8105q-0.29518-2.3818-2.677-2.0866l-7.6837 0.95227q-2.3818 0.29518-2.0866 2.677z" clip-path="url(#a)" fill="#fff" stroke="#fff"/>
<g clip-path="url(#a)">
<g transform="translate(1075.7 394.37) rotate(82.935) scale(.08 -.08)">
<use xlink:href="#p"/>
</g>
</g>
<path d="m1093.3 395.26 1.0662 5.7571q0.43702 2.3599 2.7969 1.9229l7.6131-1.4099q2.3599-0.43702 1.9229-2.7969l-1.0662-5.7571q-0.43702-2.3599-2.7969-1.9229l-7.6131 1.4099q-2.3599 0.43702-1.9229 2.7969z" clip-path="url(#a)" fill="#fff" stroke="#fff"/>
<g clip-path="url(#a)">
<g transform="translate(1097.3 394.52) rotate(79.508) scale(.08 -.08)">
<use xlink:href="#p"/>
</g>
</g>
<path d="m516.79 233.86 5.2782 1.4454q2.3148 0.63391 2.9487-1.6809l2.045-7.4675q0.63391-2.3148-1.6809-2.9487l-5.2782-1.4454q-2.3148-0.63391-2.9487 1.6809l-2.045 7.4675q-0.63391 2.3148 1.6809 2.9487z" clip-path="url(#a)" fill="#fff" stroke="#fff"/>
<g clip-path="url(#a)">
<defs>
<path id="q" d="m34.188 63.188-13.391-36.281h26.812zm-5.5781 9.7188h11.188l27.781-72.906h-10.25l-6.6406 18.703h-32.859l-6.6406-18.703h-10.406z"/>
</defs>
<g transform="translate(517.86 229.94) rotate(15.315) scale(.08 -.08)">
<use xlink:href="#q"/>
</g>
</g>
<path d="m237.37 463.49 1.0677-4.7041q0.53124-2.3405-1.8092-2.8717l-7.5504-1.7138q-2.3405-0.53124-2.8717 1.8092l-1.0677 4.7041q-0.53124 2.3405 1.8092 2.8717l7.5504 1.7138q2.3405 0.53124 2.8717-1.8092z" clip-path="url(#a)" fill="#fff" stroke="#fff"/>
<g clip-path="url(#a)">
<defs>
<path id="t" d="m19.672 64.797v-27.391h12.406q6.8906 0 10.641 3.5625 3.7656 3.5625 3.7656 10.156 0 6.5469-3.7656 10.109-3.75 3.5625-10.641 3.5625zm-9.8594 8.1094h22.266q12.266 0 18.531-5.5469 6.2812-5.5469 6.2812-16.234 0-10.797-6.2812-16.312-6.2656-5.5156-18.531-5.5156h-12.406v-29.297h-9.8594z"/>
</defs>
<g transform="translate(233.4 462.59) rotate(-77.212) scale(.08 -.08)">
<use xlink:href="#t"/>
</g>
</g>
<path d="m259.27 463.74 0.9291-6.0895q0.36199-2.3725-2.0106-2.7345l-7.6539-1.1678q-2.3725-0.36199-2.7345 2.0106l-0.9291 6.0895q-0.36199 2.3725 2.0106 2.7345l7.6539 1.1678q2.3725 0.36199 2.7345-2.0106z" clip-path="url(#a)" fill="#fff" stroke="#fff"/>
<g clip-path="url(#a)">
<defs>
<path id="ai" d="m19.672 64.797v-56.688h11.922q15.094 0 22.094 6.8281 7 6.8438 7 21.594 0 14.641-7 21.453t-22.094 6.8125zm-9.8594 8.1094h20.266q21.188 0 31.094-8.8125 9.9219-8.8125 9.9219-27.562 0-18.859-9.9688-27.703-9.9531-8.8281-31.047-8.8281h-20.266z"/>
</defs>
<g transform="translate(255.25 463.12) rotate(-81.325) scale(.08 -.08)">
<use xlink:href="#ai"/>
</g>
</g>
<path d="m281.32 462.96 0.42647-5.4559q0.18703-2.3927-2.2057-2.5797l-7.719-0.60337q-2.3927-0.18703-2.5797 2.2057l-0.42647 5.4559q-0.18703 2.3927 2.2057 2.5797l7.719 0.60337q2.3927 0.18703 2.5797-2.2057z" clip-path="url(#a)" fill="#fff" stroke="#fff"/>
<g clip-path="url(#a)">
<g transform="translate(277.27 462.65) rotate(-85.53) scale(.08 -.08)">
<use xlink:href="#q"/>
</g>
</g>
<path d="m215.2 464.36 1.6895-5.6059q0.69255-2.2979-1.6054-2.9905l-7.4131-2.2342q-2.2979-0.69256-2.9905 1.6054l-1.6895 5.6059q-0.69256 2.2979 1.6054 2.9905l7.4131 2.2342q2.2979 0.69255 2.9905-1.6054z" clip-path="url(#a)" fill="#fff" stroke="#fff"/>
<g clip-path="url(#a)">
<g transform="translate(211.31 463.19) rotate(-73.228) scale(.08 -.08)">
<use xlink:href="#p"/>
</g>
</g>
<path d="m303.28 462.7 0.022024-5.855q0.009028-2.4-2.391-2.409l-7.7424-0.029124q-2.4-0.009028-2.409 2.391l-0.022024 5.855q-0.009028 2.4 2.391 2.409l7.7424 0.029125q2.4 0.009027 2.409-2.391z" clip-path="url(#a)" fill="#fff" stroke="#fff"/>
<g clip-path="url(#a)">
<g transform="translate(299.22 462.68) rotate(-89.784) scale(.08 -.08)">
<use xlink:href="#p"/>
</g>
</g>
<path d="m1546.9 694.25 1.2899 4.6481q0.64178 2.3126 2.9544 1.6708l7.4605-2.0704q2.3126-0.64178 1.6708-2.9544l-1.2899-4.6481q-0.64178-2.3126-2.9544-1.6708l-7.4605 2.0704q-2.3126 0.64178-1.6708 2.9544z" clip-path="url(#a)" fill="#fff" stroke="#fff"/>
<g clip-path="url(#a)">
<g transform="translate(1550.8 693.16) rotate(74.49) scale(.08 -.08)">
<use xlink:href="#t"/>
</g>
</g>
<path d="m1525.2 693.12 0.80878 5.4124q0.3547 2.3736 2.7283 2.0189l7.6575-1.1443q2.3736-0.3547 2.0189-2.7283l-0.80878-5.4124q-0.3547-2.3736-2.7283-2.0189l-7.6575 1.1443q-2.3736 0.3547-2.0189 2.7283z" clip-path="url(#a)" fill="#fff" stroke="#fff"/>
<g clip-path="url(#a)">
<g transform="translate(1529.3 692.52) rotate(81.501) scale(.08 -.08)">
<use xlink:href="#q"/>
</g>
</g>
<path d="m1435.7 588.85 4.2985-3.387q1.8851-1.4854 0.39975-3.3705l-4.7919-6.0815q-1.4854-1.8851-3.3705-0.39975l-4.2985 3.387q-1.8851 1.4854-0.39975 3.3705l4.7919 6.0815q1.4854 1.8851 3.3705 0.39975z" clip-path="url(#a)" fill="#fff" stroke="#fff"/>
<g clip-path="url(#a)">
<g transform="translate(1433.2 585.66) rotate(-38.236) scale(.08 -.08)">
<use xlink:href="#q"/>
</g>
</g>
<path d="m1287.3 702.09 3.6985-2.7373q1.9291-1.4278 0.50132-3.3569l-4.6061-6.2234q-1.4278-1.9291-3.3569-0.50132l-3.6985 2.7373q-1.9291 1.4278-0.50132 3.3569l4.6061 6.2234q1.4278 1.9291 3.3569 0.50132z" clip-path="url(#a)" fill="#fff" stroke="#fff"/>
<g clip-path="url(#a)">
<defs>
<path id="ah" d="m9.8125 72.906h41.891v-8.3125h-32.031v-21.484h28.906v-8.2969h-28.906v-34.812h-9.8594z"/>
</defs>
<g transform="translate(1284.9 698.82) rotate(-36.506) scale(.08 -.08)">
<use xlink:href="#ah"/>
</g>
</g>
<path d="m1309.5 702.25 4.2777-4.4325q1.6666-1.7269-0.060297-3.3936l-5.5712-5.3766q-1.7269-1.6666-3.3936 0.060298l-4.2777 4.4325q-1.6666 1.7269 0.060297 3.3936l5.5712 5.3766q1.7269 1.6666 3.3936-0.060298z" clip-path="url(#a)" fill="#fff" stroke="#fff"/>
<g clip-path="url(#a)">
<g transform="translate(1306.6 699.43) rotate(-46.018) scale(.08 -.08)">
<use xlink:href="#ai"/>
</g>
</g>
<path d="m1332.9 701.19 2.7423-4.7358q1.2026-2.0769-0.87428-3.2796l-6.7003-3.8798q-2.0769-1.2026-3.2796 0.87428l-2.7423 4.7358q-1.2026 2.0769 0.87428 3.2796l6.7003 3.8798q2.0769 1.2026 3.2796-0.87428z" clip-path="url(#a)" fill="#fff" stroke="#fff"/>
<g clip-path="url(#a)">
<g transform="translate(1329.4 699.15) rotate(-59.927) scale(.08 -.08)">
<use xlink:href="#q"/>
</g>
</g>
<path d="m1356.3 699.24 0.91419-4.7363q0.45484-2.3565-1.9017-2.8114l-7.6022-1.4673q-2.3565-0.45485-2.8114 1.9017l-0.91419 4.7363q-0.45484 2.3565 1.9017 2.8114l7.6022 1.4673q2.3565 0.45485 2.8114-1.9017z" clip-path="url(#a)" fill="#fff" stroke="#fff"/>
<g clip-path="url(#a)">
<g transform="translate(1352.3 698.47) rotate(-79.075) scale(.08 -.08)">
<use xlink:href="#t"/>
</g>
</g>
<path d="m1387.1 696.14 3.1062 5.3643q1.2026 2.0769 3.2796 0.87428l6.7003-3.8798q2.0769-1.2026 0.87428-3.2796l-3.1062-5.3643q-1.2026-2.0769-3.2796-0.87428l-6.7003 3.8798q-2.0769 1.2026-0.87428 3.2796z" clip-path="url(#a)" fill="#fff" stroke="#fff"/>
<g clip-path="url(#a)">
<defs>
<path id="ao" d="m59.516 10.406v19.578h-16.109v8.1094h25.875v-31.312q-5.7031-4.0469-12.594-6.125-6.875-2.0781-14.688-2.0781-17.094 0-26.75 9.9844-9.6406 10-9.6406 27.812 0 17.875 9.6406 27.859 9.6562 9.9844 26.75 9.9844 7.125 0 13.547-1.7656 6.4219-1.75 11.844-5.1719v-10.5q-5.4688 4.6406-11.625 6.9844t-12.938 2.3438q-13.391 0-20.109-7.4688-6.7031-7.4688-6.7031-22.266 0-14.75 6.7031-22.219 6.7188-7.4688 20.109-7.4688 5.2188 0 9.3125 0.90625 4.1094 0.90625 7.375 2.8125z"/>
</defs>
<g transform="translate(1390.7 694.1) rotate(59.927) scale(.08 -.08)">
<use xlink:href="#ao"/>
</g>
</g>
<path d="m1365.7 693.99 1.1096 5.7489q0.45484 2.3565 2.8114 1.9017l7.6022-1.4673q2.3565-0.45485 1.9017-2.8114l-1.1096-5.7489q-0.45484-2.3565-2.8114-1.9017l-7.6022 1.4673q-2.3565 0.45485-1.9017 2.8114z" clip-path="url(#a)" fill="#fff" stroke="#fff"/>
<g clip-path="url(#a)">
<g transform="translate(1369.7 693.22) rotate(79.075) scale(.08 -.08)">
<use xlink:href="#p"/>
</g>
</g>
<path d="m1409.3 697.93 4.0659 4.213q1.6666 1.7269 3.3936 0.060297l5.5712-5.3766q1.7269-1.6666 0.060298-3.3936l-4.0659-4.213q-1.6666-1.7269-3.3936-0.060297l-5.5712 5.3766q-1.7269 1.6666-0.060297 3.3936z" clip-path="url(#a)" fill="#fff" stroke="#fff"/>
<g clip-path="url(#a)">
<g transform="translate(1412.2 695.11) rotate(46.018) scale(.08 -.08)">
<use xlink:href="#p"/>
</g>
</g>
<path d="m1431.5 698.98 4.7062 3.4832q1.9291 1.4278 3.3569-0.50132l4.6061-6.2234q1.4278-1.9291-0.50132-3.3569l-4.7062-3.4832q-1.9291-1.4278-3.3569 0.50132l-4.6061 6.2234q-1.4278 1.9291 0.50132 3.3569z" clip-path="url(#a)" fill="#fff" stroke="#fff"/>
<g clip-path="url(#a)">
<g transform="translate(1433.9 695.71) rotate(36.506) scale(.08 -.08)">
<use xlink:href="#p"/>
</g>
</g>
<path d="m1203 790.7v35.285q0 2.4 2.4 2.4h7.7425q2.4 0 2.4-2.4v-35.285q0-2.4-2.4-2.4h-7.7425q-2.4 0-2.4 2.4z" clip-path="url(#a)" fill="#fff" stroke="#fff"/>
<g clip-path="url(#a)">
<defs>
<path id="l" d="m-0.29688 72.906h61.672v-8.3125h-25.875v-64.594h-9.9062v64.594h-25.891z"/>
<path id="d" d="m56.203 29.594v-4.3906h-41.312q0.59375-9.2812 5.5938-14.141t13.938-4.8594q5.1719 0 10.031 1.2656t9.6562 3.8125v-8.5q-4.8438-2.0469-9.9219-3.125t-10.297-1.0781q-13.094 0-20.734 7.6094-7.6406 7.625-7.6406 20.625 0 13.422 7.25 21.297 7.25 7.8906 19.562 7.8906 11.031 0 17.453-7.1094 6.4219-7.0938 6.4219-19.297zm-8.9844 2.6406q-0.09375 7.3594-4.125 11.75-4.0312 4.4062-10.672 4.4062-7.5156 0-12.031-4.25t-5.2031-11.969z"/>
<path id="i" d="m41.109 46.297q-1.5156 0.875-3.2969 1.2812-1.7812 0.42188-3.9219 0.42188-7.625 0-11.703-4.9531t-4.0781-14.234v-28.812h-9.0312v54.688h9.0312v-8.5q2.8438 4.9844 7.375 7.3906 4.5469 2.4219 11.047 2.4219 0.92188 0 2.0469-0.125 1.125-0.10938 2.4844-0.35938z"/>
<path id="k" d="m52 44.188q3.375 6.0625 8.0625 8.9375t11.031 2.875q8.5469 0 13.188-5.9844 4.6406-5.9688 4.6406-17v-33.016h-9.0312v32.719q0 7.8594-2.7969 11.656-2.7812 3.8125-8.4844 3.8125-6.9844 0-11.047-4.6406-4.0469-4.625-4.0469-12.641v-30.906h-9.0312v32.719q0 7.9062-2.7812 11.688t-8.5938 3.7812q-6.8906 0-10.953-4.6562-4.0469-4.6562-4.0469-12.625v-30.906h-9.0312v54.688h9.0312v-8.5q3.0781 5.0312 7.375 7.4219t10.203 2.3906q5.9688 0 10.141-3.0312 4.1719-3.0156 6.1719-8.7812z"/>
<path id="h" d="m9.4219 54.688h8.9844v-54.688h-8.9844zm0 21.297h8.9844v-11.391h-8.9844z"/>
<path id="f" d="m54.891 33.016v-33.016h-8.9844v32.719q0 7.7656-3.0312 11.609-3.0312 3.8594-9.0781 3.8594-7.2812 0-11.484-4.6406-4.2031-4.625-4.2031-12.641v-30.906h-9.0312v54.688h9.0312v-8.5q3.2344 4.9375 7.5938 7.375 4.375 2.4375 10.094 2.4375 9.4219 0 14.25-5.8281 4.8438-5.8281 4.8438-17.156z"/>
<path id="j" d="m34.281 27.484q-10.891 0-15.094-2.4844t-4.2031-8.5q0-4.7812 3.1562-7.5938 3.1562-2.7969 8.5625-2.7969 7.4844 0 12 5.2969t4.5156 14.078v2zm17.922 3.7188v-31.203h-8.9844v8.2969q-3.0781-4.9688-7.6719-7.3438t-11.234-2.375q-8.3906 0-13.359 4.7188-4.9531 4.7188-4.9531 12.625 0 9.2188 6.1719 13.906 6.1875 4.6875 18.438 4.6875h12.609v0.89062q0 6.2031-4.0781 9.5938t-11.453 3.3906q-4.6875 0-9.1406-1.125-4.4375-1.125-8.5312-3.375v8.3125q4.9219 1.9062 9.5625 2.8438 4.6406 0.95312 9.0312 0.95312 11.875 0 17.734-6.1562 5.8594-6.1406 5.8594-18.641z"/>
<path id="g" d="m9.4219 75.984h8.9844v-75.984h-8.9844z"/>
</defs>
<g transform="translate(1207.1 790.7) rotate(90) scale(.08 -.08)">
<use xlink:href="#l"/>
<use x="60.818359" xlink:href="#d"/>
<use x="122.341797" xlink:href="#i"/>
<use x="163.439453" xlink:href="#k"/>
<use x="260.851562" xlink:href="#h"/>
<use x="288.634766" xlink:href="#f"/>
<use x="352.013672" xlink:href="#j"/>
<use x="413.292969" xlink:href="#g"/>
</g>
</g>
<path d="m1246.5 790.7v35.285q0 2.4 2.4 2.4h7.7425q2.4 0 2.4-2.4v-35.285q0-2.4-2.4-2.4h-7.7425q-2.4 0-2.4 2.4z" clip-path="url(#a)" fill="#fff" stroke="#fff"/>
<g clip-path="url(#a)">
<g transform="translate(1250.6 790.7) rotate(90) scale(.08 -.08)">
<use xlink:href="#l"/>
<use x="60.818359" xlink:href="#d"/>
<use x="122.341797" xlink:href="#i"/>
<use x="163.439453" xlink:href="#k"/>
<use x="260.851562" xlink:href="#h"/>
<use x="288.634766" xlink:href="#f"/>
<use x="352.013672" xlink:href="#j"/>
<use x="413.292969" xlink:href="#g"/>
</g>
</g>
<path d="m1290 790.7v35.285q0 2.4 2.4 2.4h7.7425q2.4 0 2.4-2.4v-35.285q0-2.4-2.4-2.4h-7.7425q-2.4 0-2.4 2.4z" clip-path="url(#a)" fill="#fff" stroke="#fff"/>
<g clip-path="url(#a)">
<g transform="translate(1294.1 790.7) rotate(90) scale(.08 -.08)">
<use xlink:href="#l"/>
<use x="60.818359" xlink:href="#d"/>
<use x="122.341797" xlink:href="#i"/>
<use x="163.439453" xlink:href="#k"/>
<use x="260.851562" xlink:href="#h"/>
<use x="288.634766" xlink:href="#f"/>
<use x="352.013672" xlink:href="#j"/>
<use x="413.292969" xlink:href="#g"/>
</g>
</g>
<path d="m1333.5 790.7v35.285q0 2.4 2.4 2.4h7.7425q2.4 0 2.4-2.4v-35.285q0-2.4-2.4-2.4h-7.7425q-2.4 0-2.4 2.4z" clip-path="url(#a)" fill="#fff" stroke="#fff"/>
<g clip-path="url(#a)">
<g transform="translate(1337.5 790.7) rotate(90) scale(.08 -.08)">
<use xlink:href="#l"/>
<use x="60.818359" xlink:href="#d"/>
<use x="122.341797" xlink:href="#i"/>
<use x="163.439453" xlink:href="#k"/>
<use x="260.851562" xlink:href="#h"/>
<use x="288.634766" xlink:href="#f"/>
<use x="352.013672" xlink:href="#j"/>
<use x="413.292969" xlink:href="#g"/>
</g>
</g>
<path d="m1420.5 790.7v35.285q0 2.4 2.4 2.4h7.7425q2.4 0 2.4-2.4v-35.285q0-2.4-2.4-2.4h-7.7425q-2.4 0-2.4 2.4z" clip-path="url(#a)" fill="#fff" stroke="#fff"/>
<g clip-path="url(#a)">
<g transform="translate(1424.5 790.7) rotate(90) scale(.08 -.08)">
<use xlink:href="#l"/>
<use x="60.818359" xlink:href="#d"/>
<use x="122.341797" xlink:href="#i"/>
<use x="163.439453" xlink:href="#k"/>
<use x="260.851562" xlink:href="#h"/>
<use x="288.634766" xlink:href="#f"/>
<use x="352.013672" xlink:href="#j"/>
<use x="413.292969" xlink:href="#g"/>
</g>
</g>
<path d="m537.33 356 5.7787-1.6738q2.3053-0.66769 1.6376-2.9729l-2.154-7.4368q-0.66769-2.3053-2.9729-1.6376l-5.7787 1.6737q-2.3053 0.66769-1.6376 2.9729l2.154 7.4368q0.66769 2.3053 2.9729 1.6376z" clip-path="url(#a)" fill="#fff" stroke="#fff"/>
<g clip-path="url(#a)">
<g transform="translate(536.2 352.09) rotate(-16.153) scale(.08 -.08)">
<use xlink:href="#ab"/>
</g>
</g>
<path d="m752.79 518.99 0.29145 4.448q0.15692 2.3949 2.5518 2.2379l7.7259-0.50624q2.3949-0.15692 2.2379-2.5518l-0.29145-4.448q-0.15692-2.3949-2.5518-2.2379l-7.7259 0.50624q-2.3949 0.15692-2.2379 2.5518z" clip-path="url(#a)" fill="#fff" stroke="#fff"/>
<g clip-path="url(#a)">
<defs>
<path id="aa" d="m9.8125 72.906h9.8594v-64.609h35.5v-8.2969h-45.359z"/>
</defs>
<g transform="translate(756.85 518.72) rotate(86.251) scale(.08 -.08)">
<use xlink:href="#aa"/>
</g>
</g>
<path d="m897.52 466.49 4.0629 4.4371q1.6208 1.7701 3.3908 0.1493l5.7103-5.2287q1.7701-1.6208 0.1493-3.3908l-4.0629-4.4371q-1.6208-1.7701-3.3908-0.1493l-5.7103 5.2287q-1.7701 1.6208-0.1493 3.3908z" clip-path="url(#a)" fill="#fff" stroke="#fff"/>
<g clip-path="url(#a)">
<g transform="translate(900.51 463.74) rotate(47.521) scale(.08 -.08)">
<use xlink:href="#ab"/>
</g>
</g>
<path d="m743.64 523.91 0.16698-5.8526q0.068444-2.399-2.3306-2.4675l-7.7394-0.2208q-2.399-0.068444-2.4675 2.3306l-0.16698 5.8526q-0.068444 2.399 2.3306 2.4675l7.7394 0.2208q2.399 0.068444 2.4675-2.3306z" clip-path="url(#a)" fill="#fff" stroke="#fff"/>
<g clip-path="url(#a)">
<g transform="translate(739.57 523.79) rotate(-88.366) scale(.08 -.08)">
<use xlink:href="#p"/>
</g>
</g>
<path d="m774.29 518.9 0.92267 5.7818q0.37821 2.37 2.7482 1.9918l7.6458-1.2201q2.37-0.37821 1.9918-2.7482l-0.92267-5.7818q-0.37821-2.37-2.7482-1.9918l-7.6458 1.2201q-2.37 0.37821-1.9918 2.7482z" clip-path="url(#a)" fill="#fff" stroke="#fff"/>
<g clip-path="url(#a)">
<g transform="translate(778.3 518.26) rotate(80.933) scale(.08 -.08)">
<use xlink:href="#p"/>
</g>
</g>
<path d="m159.18 790.7v35.285q0 2.4 2.4 2.4h7.7425q2.4 0 2.4-2.4v-35.285q0-2.4-2.4-2.4h-7.7425q-2.4 0-2.4 2.4z" clip-path="url(#a)" fill="#fff" stroke="#fff"/>
<g clip-path="url(#a)">
<g transform="translate(163.24 790.7) rotate(90) scale(.08 -.08)">
<use xlink:href="#l"/>
<use x="60.818359" xlink:href="#d"/>
<use x="122.341797" xlink:href="#i"/>
<use x="163.439453" xlink:href="#k"/>
<use x="260.851562" xlink:href="#h"/>
<use x="288.634766" xlink:href="#f"/>
<use x="352.013672" xlink:href="#j"/>
<use x="413.292969" xlink:href="#g"/>
</g>
</g>
<path d="m202.67 790.7v35.285q0 2.4 2.4 2.4h7.7425q2.4 0 2.4-2.4v-35.285q0-2.4-2.4-2.4h-7.7425q-2.4 0-2.4 2.4z" clip-path="url(#a)" fill="#fff" stroke="#fff"/>
<g clip-path="url(#a)">
<g transform="translate(206.73 790.7) rotate(90) scale(.08 -.08)">
<use xlink:href="#l"/>
<use x="60.818359" xlink:href="#d"/>
<use x="122.341797" xlink:href="#i"/>
<use x="163.439453" xlink:href="#k"/>
<use x="260.851562" xlink:href="#h"/>
<use x="288.634766" xlink:href="#f"/>
<use x="352.013672" xlink:href="#j"/>
<use x="413.292969" xlink:href="#g"/>
</g>
</g>
<path d="m246.16 790.7v35.285q0 2.4 2.4 2.4h7.7425q2.4 0 2.4-2.4v-35.285q0-2.4-2.4-2.4h-7.7425q-2.4 0-2.4 2.4z" clip-path="url(#a)" fill="#fff" stroke="#fff"/>
<g clip-path="url(#a)">
<g transform="translate(250.22 790.7) rotate(90) scale(.08 -.08)">
<use xlink:href="#l"/>
<use x="60.818359" xlink:href="#d"/>
<use x="122.341797" xlink:href="#i"/>
<use x="163.439453" xlink:href="#k"/>
<use x="260.851562" xlink:href="#h"/>
<use x="288.634766" xlink:href="#f"/>
<use x="352.013672" xlink:href="#j"/>
<use x="413.292969" xlink:href="#g"/>
</g>
</g>
<path d="m208.87 586.57 3.6907-4.9803q1.429-1.9282-0.49928-3.3572l-6.2206-4.6099q-1.9282-1.429-3.3572 0.49928l-3.6907 4.9803q-1.429 1.9282 0.49928 3.3572l6.2206 4.6099q1.9282 1.429 3.3572-0.49928z" clip-path="url(#a)" fill="#fff" stroke="#fff"/>
<g clip-path="url(#a)">
<g transform="translate(205.61 584.15) rotate(-53.459) scale(.08 -.08)">
<use xlink:href="#ao"/>
</g>
</g>
<path d="m329.83 577.73 0.10397 5.4715q0.045596 2.3996 2.4452 2.354l7.7411-0.1471q2.3996-0.045596 2.354-2.4452l-0.10397-5.4715q-0.045597-2.3996-2.4452-2.354l-7.7411 0.1471q-2.3996 0.045596-2.354 2.4452z" clip-path="url(#a)" fill="#fff" stroke="#fff"/>
<g clip-path="url(#a)">
<g transform="translate(333.9 577.65) rotate(88.911) scale(.08 -.08)">
<use xlink:href="#q"/>
</g>
</g>
<path d="m351.35 578.86 0.69539 4.7734q0.34598 2.3749 2.7209 2.029l7.6616-1.1161q2.3749-0.34598 2.029-2.7209l-0.69538-4.7734q-0.34598-2.3749-2.7209-2.029l-7.6616 1.1161q-2.3749 0.34598-2.029 2.7209z" clip-path="url(#a)" fill="#fff" stroke="#fff"/>
<g clip-path="url(#a)">
<g transform="translate(355.37 578.28) rotate(81.711) scale(.08 -.08)">
<use xlink:href="#t"/>
</g>
</g>
<path d="m426.3 470.91 4.7167 2.7751q2.0685 1.217 3.2856-0.85148l3.9262-6.6731q1.217-2.0685-0.85148-3.2856l-4.7167-2.7751q-2.0685-1.217-3.2856 0.85148l-3.9262 6.6731q-1.217 2.0685 0.85148 3.2856z" clip-path="url(#a)" fill="#fff" stroke="#fff"/>
<g clip-path="url(#a)">
<g transform="translate(428.36 467.41) rotate(30.471) scale(.08 -.08)">
<use xlink:href="#q"/>
</g>
</g>
<path d="m768.08 790.7v35.285q0 2.4 2.4 2.4h7.7425q2.4 0 2.4-2.4v-35.285q0-2.4-2.4-2.4h-7.7425q-2.4 0-2.4 2.4z" clip-path="url(#a)" fill="#fff" stroke="#fff"/>
<g clip-path="url(#a)">
<g transform="translate(772.14 790.7) rotate(90) scale(.08 -.08)">
<use xlink:href="#l"/>
<use x="60.818359" xlink:href="#d"/>
<use x="122.341797" xlink:href="#i"/>
<use x="163.439453" xlink:href="#k"/>
<use x="260.851562" xlink:href="#h"/>
<use x="288.634766" xlink:href="#f"/>
<use x="352.013672" xlink:href="#j"/>
<use x="413.292969" xlink:href="#g"/>
</g>
</g>
<path d="m1349.4 756.87 5.1009 1.9821q2.2371 0.86925 3.1063-1.3678l2.8042-7.2168q0.86925-2.2371-1.3678-3.1063l-5.1009-1.9821q-2.2371-0.86925-3.1063 1.3678l-2.8042 7.2168q-0.86925 2.2371 1.3678 3.1063z" clip-path="url(#a)" fill="#fff" stroke="#fff"/>
<g clip-path="url(#a)">
<g transform="translate(1350.9 753.08) rotate(21.234) scale(.08 -.08)">
<use xlink:href="#q"/>
</g>
</g>
<path d="m963.17 702.66 5.3859-2.9897q2.0984-1.1648 0.93358-3.2632l-3.7577-6.7695q-1.1648-2.0984-3.2632-0.93358l-5.3859 2.9897q-2.0984 1.1648-0.93358 3.2632l3.7577 6.7695q1.1648 2.0984 3.2632 0.93358z" clip-path="url(#a)" fill="#fff" stroke="#fff"/>
<g clip-path="url(#a)">
<g transform="translate(961.2 699.11) rotate(-29.034) scale(.08 -.08)">
<use xlink:href="#ai"/>
</g>
</g>
<path d="m1009 701.78 3.3004-3.2061q1.7215-1.6723 0.049203-3.3938l-5.3948-5.5536q-1.6723-1.7215-3.3938-0.049204l-3.3004 3.2061q-1.7215 1.6723-0.049204 3.3938l5.3948 5.5536q1.6723 1.7215 3.3938 0.049204z" clip-path="url(#a)" fill="#fff" stroke="#fff"/>
<g clip-path="url(#a)">
<g transform="translate(1006.2 698.87) rotate(-44.169) scale(.08 -.08)">
<use xlink:href="#ah"/>
</g>
</g>
<path d="m1031.8 701.37 2.961-4.6022q1.2986-2.0183-0.71976-3.3169l-6.5112-4.1893q-2.0183-1.2986-3.3169 0.71976l-2.961 4.6022q-1.2986 2.0183 0.71976 3.3169l6.5112 4.1893q2.0183 1.2986 3.3169-0.71976z" clip-path="url(#a)" fill="#fff" stroke="#fff"/>
<g clip-path="url(#a)">
<g transform="translate(1028.4 699.18) rotate(-57.243) scale(.08 -.08)">
<use xlink:href="#q"/>
</g>
</g>
<path d="m1055.3 699.58 1.2022-4.6715q0.59816-2.3243-1.7261-2.9224l-7.4982-1.9297q-2.3243-0.59816-2.9224 1.7261l-1.2022 4.6715q-0.59816 2.3243 1.7261 2.9224l7.4982 1.9297q2.3243 0.59816 2.9224-1.7261z" clip-path="url(#a)" fill="#fff" stroke="#fff"/>
<g clip-path="url(#a)">
<g transform="translate(1051.3 698.57) rotate(-75.568) scale(.08 -.08)">
<use xlink:href="#t"/>
</g>
</g>
<path d="m985.79 702.49 4.782-3.3784q1.9602-1.3848 0.57534-3.345l-4.4675-6.3236q-1.3848-1.9602-3.345-0.57534l-4.782 3.3784q-1.9602 1.3848-0.57534 3.345l4.4675 6.3236q1.3848 1.9602 3.345 0.57534z" clip-path="url(#a)" fill="#fff" stroke="#fff"/>
<g clip-path="url(#a)">
<g transform="translate(983.45 699.17) rotate(-35.241) scale(.08 -.08)">
<use xlink:href="#p"/>
</g>
</g>
<path d="m855.06 790.7v35.285q0 2.4 2.4 2.4h7.7425q2.4 0 2.4-2.4v-35.285q0-2.4-2.4-2.4h-7.7425q-2.4 0-2.4 2.4z" clip-path="url(#a)" fill="#fff" stroke="#fff"/>
<g clip-path="url(#a)">
<g transform="translate(859.13 790.7) rotate(90) scale(.08 -.08)">
<use xlink:href="#l"/>
<use x="60.818359" xlink:href="#d"/>
<use x="122.341797" xlink:href="#i"/>
<use x="163.439453" xlink:href="#k"/>
<use x="260.851562" xlink:href="#h"/>
<use x="288.634766" xlink:href="#f"/>
<use x="352.013672" xlink:href="#j"/>
<use x="413.292969" xlink:href="#g"/>
</g>
</g>
<path d="m942.05 790.7v35.285q0 2.4 2.4 2.4h7.7425q2.4 0 2.4-2.4v-35.285q0-2.4-2.4-2.4h-7.7425q-2.4 0-2.4 2.4z" clip-path="url(#a)" fill="#fff" stroke="#fff"/>
<g clip-path="url(#a)">
<g transform="translate(946.11 790.7) rotate(90) scale(.08 -.08)">
<use xlink:href="#l"/>
<use x="60.818359" xlink:href="#d"/>
<use x="122.341797" xlink:href="#i"/>
<use x="163.439453" xlink:href="#k"/>
<use x="260.851562" xlink:href="#h"/>
<use x="288.634766" xlink:href="#f"/>
<use x="352.013672" xlink:href="#j"/>
<use x="413.292969" xlink:href="#g"/>
</g>
</g>
<path d="m985.54 790.7v35.285q0 2.4 2.4 2.4h7.7425q2.4 0 2.4-2.4v-35.285q0-2.4-2.4-2.4h-7.7425q-2.4 0-2.4 2.4z" clip-path="url(#a)" fill="#fff" stroke="#fff"/>
<g clip-path="url(#a)">
<g transform="translate(989.6 790.7) rotate(90) scale(.08 -.08)">
<use xlink:href="#l"/>
<use x="60.818359" xlink:href="#d"/>
<use x="122.341797" xlink:href="#i"/>
<use x="163.439453" xlink:href="#k"/>
<use x="260.851562" xlink:href="#h"/>
<use x="288.634766" xlink:href="#f"/>
<use x="352.013672" xlink:href="#j"/>
<use x="413.292969" xlink:href="#g"/>
</g>
</g>
<path d="m1029 790.7v35.285q0 2.4 2.4 2.4h7.7425q2.4 0 2.4-2.4v-35.285q0-2.4-2.4-2.4h-7.7425q-2.4 0-2.4 2.4z" clip-path="url(#a)" fill="#fff" stroke="#fff"/>
<g clip-path="url(#a)">
<g transform="translate(1033.1 790.7) rotate(90) scale(.08 -.08)">
<use xlink:href="#l"/>
<use x="60.818359" xlink:href="#d"/>
<use x="122.341797" xlink:href="#i"/>
<use x="163.439453" xlink:href="#k"/>
<use x="260.851562" xlink:href="#h"/>
<use x="288.634766" xlink:href="#f"/>
<use x="352.013672" xlink:href="#j"/>
<use x="413.292969" xlink:href="#g"/>
</g>
</g>
<path d="m72.189 790.7v35.285q0 2.4 2.4 2.4h7.7425q2.4 0 2.4-2.4v-35.285q0-2.4-2.4-2.4h-7.7425q-2.4 0-2.4 2.4z" clip-path="url(#a)" fill="#fff" stroke="#fff"/>
<g clip-path="url(#a)">
<g transform="translate(76.253 790.7) rotate(90) scale(.08 -.08)">
<use xlink:href="#l"/>
<use x="60.818359" xlink:href="#d"/>
<use x="122.341797" xlink:href="#i"/>
<use x="163.439453" xlink:href="#k"/>
<use x="260.851562" xlink:href="#h"/>
<use x="288.634766" xlink:href="#f"/>
<use x="352.013672" xlink:href="#j"/>
<use x="413.292969" xlink:href="#g"/>
</g>
</g>
<path d="m333.15 790.7v35.285q0 2.4 2.4 2.4h7.7425q2.4 0 2.4-2.4v-35.285q0-2.4-2.4-2.4h-7.7425q-2.4 0-2.4 2.4z" clip-path="url(#a)" fill="#fff" stroke="#fff"/>
<g clip-path="url(#a)">
<g transform="translate(337.21 790.7) rotate(90) scale(.08 -.08)">
<use xlink:href="#l"/>
<use x="60.818359" xlink:href="#d"/>
<use x="122.341797" xlink:href="#i"/>
<use x="163.439453" xlink:href="#k"/>
<use x="260.851562" xlink:href="#h"/>
<use x="288.634766" xlink:href="#f"/>
<use x="352.013672" xlink:href="#j"/>
<use x="413.292969" xlink:href="#g"/>
</g>
</g>
<path d="m376.64 790.7v35.285q0 2.4 2.4 2.4h7.7425q2.4 0 2.4-2.4v-35.285q0-2.4-2.4-2.4h-7.7425q-2.4 0-2.4 2.4z" clip-path="url(#a)" fill="#fff" stroke="#fff"/>
<g clip-path="url(#a)">
<g transform="translate(380.7 790.7) rotate(90) scale(.08 -.08)">
<use xlink:href="#l"/>
<use x="60.818359" xlink:href="#d"/>
<use x="122.341797" xlink:href="#i"/>
<use x="163.439453" xlink:href="#k"/>
<use x="260.851562" xlink:href="#h"/>
<use x="288.634766" xlink:href="#f"/>
<use x="352.013672" xlink:href="#j"/>
<use x="413.292969" xlink:href="#g"/>
</g>
</g>
<path d="m483.13 643.71 2.3232-5.05q1.003-2.1803-1.1773-3.1834l-7.0339-3.2359q-2.1803-1.003-3.1834 1.1773l-2.3232 5.05q-1.003 2.1803 1.1773 3.1834l7.0339 3.2359q2.1803 1.003 3.1834-1.1773z" clip-path="url(#a)" fill="#fff" stroke="#fff"/>
<g clip-path="url(#a)">
<defs>
<path id="an" d="m44.391 34.188q3.1719-1.0781 6.1719-4.5938t6.0312-9.6719l10.016-19.922h-10.609l-9.3125 18.703q-3.625 7.3281-7.0156 9.7188t-9.25 2.3906h-10.75v-30.812h-9.8594v72.906h22.266q12.5 0 18.656-5.2344 6.1562-5.2188 6.1562-15.766 0-6.8906-3.2031-11.438-3.2031-4.5312-9.2969-6.2812zm-24.719 30.609v-25.875h12.406q7.125 0 10.766 3.2969t3.6406 9.6875-3.6406 9.6406-10.766 3.25z"/>
</defs>
<g transform="translate(479.44 642.01) rotate(-65.296) scale(.08 -.08)">
<use xlink:href="#an"/>
</g>
</g>
<path d="m505.8 642.41 1.1926-4.444q0.62205-2.318-1.6959-2.94l-7.4779-2.0068q-2.318-0.62205-2.94 1.6959l-1.1926 4.444q-0.62205 2.318 1.6959 2.94l7.4779 2.0068q2.318 0.62205 2.94-1.6959z" clip-path="url(#a)" fill="#fff" stroke="#fff"/>
<g clip-path="url(#a)">
<g transform="translate(501.88 641.36) rotate(-74.978) scale(.08 -.08)">
<use xlink:href="#ah"/>
</g>
</g>
<path d="m528.13 641.77 0.41837-5.4565q0.18348-2.393-2.2095-2.5765l-7.7198-0.59191q-2.393-0.18348-2.5765 2.2095l-0.41837 5.4565q-0.18348 2.393 2.2095 2.5765l7.7198 0.59191q2.393 0.18348 2.5765-2.2095z" clip-path="url(#a)" fill="#fff" stroke="#fff"/>
<g clip-path="url(#a)">
<g transform="translate(524.08 641.46) rotate(-85.616) scale(.08 -.08)">
<use xlink:href="#q"/>
</g>
</g>
<path d="m548.07 637.5 0.99522 4.72q0.49516 2.3484 2.8435 1.8532l7.5759-1.5974q2.3484-0.49516 1.8532-2.8435l-0.99521-4.72q-0.49516-2.3484-2.8435-1.8532l-7.5759 1.5974q-2.3484 0.49516-1.8532 2.8435z" clip-path="url(#a)" fill="#fff" stroke="#fff"/>
<g clip-path="url(#a)">
<g transform="translate(552.05 636.66) rotate(78.093) scale(.08 -.08)">
<use xlink:href="#t"/>
</g>
</g>
<path d="m592.06 585.25 4.1754 3.5376q1.8311 1.5514 3.3826-0.2797l5.005-5.9073q1.5514-1.8311-0.2797-3.3826l-4.1754-3.5376q-1.8311-1.5514-3.3826 0.2797l-5.005 5.9073q-1.5514 1.8311 0.2797 3.3826z" clip-path="url(#a)" fill="#fff" stroke="#fff"/>
<g clip-path="url(#a)">
<g transform="translate(594.69 582.15) rotate(40.273) scale(.08 -.08)">
<use xlink:href="#q"/>
</g>
</g>
<path d="m420.13 790.7v35.285q0 2.4 2.4 2.4h7.7425q2.4 0 2.4-2.4v-35.285q0-2.4-2.4-2.4h-7.7425q-2.4 0-2.4 2.4z" clip-path="url(#a)" fill="#fff" stroke="#fff"/>
<g clip-path="url(#a)">
<g transform="translate(424.2 790.7) rotate(90) scale(.08 -.08)">
<use xlink:href="#l"/>
<use x="60.818359" xlink:href="#d"/>
<use x="122.341797" xlink:href="#i"/>
<use x="163.439453" xlink:href="#k"/>
<use x="260.851562" xlink:href="#h"/>
<use x="288.634766" xlink:href="#f"/>
<use x="352.013672" xlink:href="#j"/>
<use x="413.292969" xlink:href="#g"/>
</g>
</g>
<path d="m463.63 790.7v35.285q0 2.4 2.4 2.4h7.7425q2.4 0 2.4-2.4v-35.285q0-2.4-2.4-2.4h-7.7425q-2.4 0-2.4 2.4z" clip-path="url(#a)" fill="#fff" stroke="#fff"/>
<g clip-path="url(#a)">
<g transform="translate(467.69 790.7) rotate(90) scale(.08 -.08)">
<use xlink:href="#l"/>
<use x="60.818359" xlink:href="#d"/>
<use x="122.341797" xlink:href="#i"/>
<use x="163.439453" xlink:href="#k"/>
<use x="260.851562" xlink:href="#h"/>
<use x="288.634766" xlink:href="#f"/>
<use x="352.013672" xlink:href="#j"/>
<use x="413.292969" xlink:href="#g"/>
</g>
</g>
<path d="m507.12 790.7v35.285q0 2.4 2.4 2.4h7.7425q2.4 0 2.4-2.4v-35.285q0-2.4-2.4-2.4h-7.7425q-2.4 0-2.4 2.4z" clip-path="url(#a)" fill="#fff" stroke="#fff"/>
<g clip-path="url(#a)">
<g transform="translate(511.18 790.7) rotate(90) scale(.08 -.08)">
<use xlink:href="#l"/>
<use x="60.818359" xlink:href="#d"/>
<use x="122.341797" xlink:href="#i"/>
<use x="163.439453" xlink:href="#k"/>
<use x="260.851562" xlink:href="#h"/>
<use x="288.634766" xlink:href="#f"/>
<use x="352.013672" xlink:href="#j"/>
<use x="413.292969" xlink:href="#g"/>
</g>
</g>
<path d="m570.57 826.86 6.6872-34.646q0.45484-2.3565-1.9017-2.8114l-7.6022-1.4673q-2.3565-0.45484-2.8114 1.9017l-6.6872 34.646q-0.45484 2.3565 1.9017 2.8114l7.6022 1.4673q2.3565 0.45484 2.8114-1.9017z" clip-path="url(#a)" fill="#fff" stroke="#fff"/>
<g clip-path="url(#a)">
<g transform="translate(566.58 826.09) rotate(-79.075) scale(.08 -.08)">
<use xlink:href="#l"/>
<use x="60.818359" xlink:href="#d"/>
<use x="122.341797" xlink:href="#i"/>
<use x="163.439453" xlink:href="#k"/>
<use x="260.851562" xlink:href="#h"/>
<use x="288.634766" xlink:href="#f"/>
<use x="352.013672" xlink:href="#j"/>
<use x="413.292969" xlink:href="#g"/>
</g>
</g>
<path d="m580 792.21 6.6872 34.646q0.45485 2.3565 2.8114 1.9017l7.6022-1.4673q2.3565-0.45485 1.9017-2.8114l-6.6872-34.646q-0.45484-2.3565-2.8114-1.9017l-7.6022 1.4673q-2.3565 0.45485-1.9017 2.8114z" clip-path="url(#a)" fill="#fff" stroke="#fff"/>
<g clip-path="url(#a)">
<g transform="translate(583.99 791.44) rotate(79.075) scale(.08 -.08)">
<use xlink:href="#l"/>
<use x="60.818359" xlink:href="#d"/>
<use x="122.341797" xlink:href="#i"/>
<use x="163.439453" xlink:href="#k"/>
<use x="260.851562" xlink:href="#h"/>
<use x="288.634766" xlink:href="#f"/>
<use x="352.013672" xlink:href="#j"/>
<use x="413.292969" xlink:href="#g"/>
</g>
</g>
<path d="m660.37 699.6 1.0535-5.458q0.45484-2.3565-1.9017-2.8114l-7.6022-1.4673q-2.3565-0.45484-2.8114 1.9017l-1.0535 5.458q-0.45485 2.3565 1.9017 2.8114l7.6022 1.4673q2.3565 0.45484 2.8114-1.9017z" clip-path="url(#a)" fill="#fff" stroke="#fff"/>
<g clip-path="url(#a)">
<g transform="translate(656.38 698.83) rotate(-79.075) scale(.08 -.08)">
<use xlink:href="#an"/>
</g>
</g>
<path d="m669.8 694.13 1.0587 5.485q0.45484 2.3565 2.8114 1.9017l7.6022-1.4673q2.3565-0.45484 1.9017-2.8114l-1.0587-5.485q-0.45484-2.3565-2.8114-1.9017l-7.6022 1.4673q-2.3565 0.45484-1.9017 2.8114z" clip-path="url(#a)" fill="#fff" stroke="#fff"/>
<g clip-path="url(#a)">
<defs>
<path id="v" d="m64.406 67.281v-10.391q-4.9844 4.6406-10.625 6.9219-5.6406 2.2969-11.984 2.2969-12.5 0-19.141-7.6406t-6.6406-22.094q0-14.406 6.6406-22.047t19.141-7.6406q6.3438 0 11.984 2.2969t10.625 6.9375v-10.312q-5.1719-3.5156-10.969-5.2812-5.7812-1.75-12.219-1.75-16.562 0-26.094 10.125-9.5156 10.141-9.5156 27.672 0 17.578 9.5156 27.703 9.5312 10.141 26.094 10.141 6.5312 0 12.312-1.7344 5.7969-1.7344 10.875-5.2031z"/>
</defs>
<g transform="translate(673.79 693.36) rotate(79.075) scale(.08 -.08)">
<use xlink:href="#v"/>
</g>
</g>
<path d="m637.6 790.7v35.285q0 2.4 2.4 2.4h7.7425q2.4 0 2.4-2.4v-35.285q0-2.4-2.4-2.4h-7.7425q-2.4 0-2.4 2.4z" clip-path="url(#a)" fill="#fff" stroke="#fff"/>
<g clip-path="url(#a)">
<g transform="translate(641.66 790.7) rotate(90) scale(.08 -.08)">
<use xlink:href="#l"/>
<use x="60.818359" xlink:href="#d"/>
<use x="122.341797" xlink:href="#i"/>
<use x="163.439453" xlink:href="#k"/>
<use x="260.851562" xlink:href="#h"/>
<use x="288.634766" xlink:href="#f"/>
<use x="352.013672" xlink:href="#j"/>
<use x="413.292969" xlink:href="#g"/>
</g>
</g>
<path d="m681.09 790.7v35.285q0 2.4 2.4 2.4h7.7425q2.4 0 2.4-2.4v-35.285q0-2.4-2.4-2.4h-7.7425q-2.4 0-2.4 2.4z" clip-path="url(#a)" fill="#fff" stroke="#fff"/>
<g clip-path="url(#a)">
<g transform="translate(685.15 790.7) rotate(90) scale(.08 -.08)">
<use xlink:href="#l"/>
<use x="60.818359" xlink:href="#d"/>
<use x="122.341797" xlink:href="#i"/>
<use x="163.439453" xlink:href="#k"/>
<use x="260.851562" xlink:href="#h"/>
<use x="288.634766" xlink:href="#f"/>
<use x="352.013672" xlink:href="#j"/>
<use x="413.292969" xlink:href="#g"/>
</g>
</g>
<path d="m115.68 790.7v35.285q0 2.4 2.4 2.4h7.7425q2.4 0 2.4-2.4v-35.285q0-2.4-2.4-2.4h-7.7425q-2.4 0-2.4 2.4z" clip-path="url(#a)" fill="#fff" stroke="#fff"/>
<g clip-path="url(#a)">
<g transform="translate(119.75 790.7) rotate(90) scale(.08 -.08)">
<use xlink:href="#l"/>
<use x="60.818359" xlink:href="#d"/>
<use x="122.341797" xlink:href="#i"/>
<use x="163.439453" xlink:href="#k"/>
<use x="260.851562" xlink:href="#h"/>
<use x="288.634766" xlink:href="#f"/>
<use x="352.013672" xlink:href="#j"/>
<use x="413.292969" xlink:href="#g"/>
</g>
</g>
<path d="m289.65 790.7v35.285q0 2.4 2.4 2.4h7.7425q2.4 0 2.4-2.4v-35.285q0-2.4-2.4-2.4h-7.7425q-2.4 0-2.4 2.4z" clip-path="url(#a)" fill="#fff" stroke="#fff"/>
<g clip-path="url(#a)">
<g transform="translate(293.72 790.7) rotate(90) scale(.08 -.08)">
<use xlink:href="#l"/>
<use x="60.818359" xlink:href="#d"/>
<use x="122.341797" xlink:href="#i"/>
<use x="163.439453" xlink:href="#k"/>
<use x="260.851562" xlink:href="#h"/>
<use x="288.634766" xlink:href="#f"/>
<use x="352.013672" xlink:href="#j"/>
<use x="413.292969" xlink:href="#g"/>
</g>
</g>
<path d="m724.58 790.7v35.285q0 2.4 2.4 2.4h7.7425q2.4 0 2.4-2.4v-35.285q0-2.4-2.4-2.4h-7.7425q-2.4 0-2.4 2.4z" clip-path="url(#a)" fill="#fff" stroke="#fff"/>
<g clip-path="url(#a)">
<g transform="translate(728.65 790.7) rotate(90) scale(.08 -.08)">
<use xlink:href="#l"/>
<use x="60.818359" xlink:href="#d"/>
<use x="122.341797" xlink:href="#i"/>
<use x="163.439453" xlink:href="#k"/>
<use x="260.851562" xlink:href="#h"/>
<use x="288.634766" xlink:href="#f"/>
<use x="352.013672" xlink:href="#j"/>
<use x="413.292969" xlink:href="#g"/>
</g>
</g>
<path d="m811.57 790.7v35.285q0 2.4 2.4 2.4h7.7425q2.4 0 2.4-2.4v-35.285q0-2.4-2.4-2.4h-7.7425q-2.4 0-2.4 2.4z" clip-path="url(#a)" fill="#fff" stroke="#fff"/>
<g clip-path="url(#a)">
<g transform="translate(815.63 790.7) rotate(90) scale(.08 -.08)">
<use xlink:href="#l"/>
<use x="60.818359" xlink:href="#d"/>
<use x="122.341797" xlink:href="#i"/>
<use x="163.439453" xlink:href="#k"/>
<use x="260.851562" xlink:href="#h"/>
<use x="288.634766" xlink:href="#f"/>
<use x="352.013672" xlink:href="#j"/>
<use x="413.292969" xlink:href="#g"/>
</g>
</g>
<path d="m898.56 790.7v35.285q0 2.4 2.4 2.4h7.7425q2.4 0 2.4-2.4v-35.285q0-2.4-2.4-2.4h-7.7425q-2.4 0-2.4 2.4z" clip-path="url(#a)" fill="#fff" stroke="#fff"/>
<g clip-path="url(#a)">
<g transform="translate(902.62 790.7) rotate(90) scale(.08 -.08)">
<use xlink:href="#l"/>
<use x="60.818359" xlink:href="#d"/>
<use x="122.341797" xlink:href="#i"/>
<use x="163.439453" xlink:href="#k"/>
<use x="260.851562" xlink:href="#h"/>
<use x="288.634766" xlink:href="#f"/>
<use x="352.013672" xlink:href="#j"/>
<use x="413.292969" xlink:href="#g"/>
</g>
</g>
<path d="m1072.5 790.7v35.285q0 2.4 2.4 2.4h7.7425q2.4 0 2.4-2.4v-35.285q0-2.4-2.4-2.4h-7.7425q-2.4 0-2.4 2.4z" clip-path="url(#a)" fill="#fff" stroke="#fff"/>
<g clip-path="url(#a)">
<g transform="translate(1076.6 790.7) rotate(90) scale(.08 -.08)">
<use xlink:href="#l"/>
<use x="60.818359" xlink:href="#d"/>
<use x="122.341797" xlink:href="#i"/>
<use x="163.439453" xlink:href="#k"/>
<use x="260.851562" xlink:href="#h"/>
<use x="288.634766" xlink:href="#f"/>
<use x="352.013672" xlink:href="#j"/>
<use x="413.292969" xlink:href="#g"/>
</g>
</g>
<path d="m1116 790.7v35.285q0 2.4 2.4 2.4h7.7425q2.4 0 2.4-2.4v-35.285q0-2.4-2.4-2.4h-7.7425q-2.4 0-2.4 2.4z" clip-path="url(#a)" fill="#fff" stroke="#fff"/>
<g clip-path="url(#a)">
<g transform="translate(1120.1 790.7) rotate(90) scale(.08 -.08)">
<use xlink:href="#l"/>
<use x="60.818359" xlink:href="#d"/>
<use x="122.341797" xlink:href="#i"/>
<use x="163.439453" xlink:href="#k"/>
<use x="260.851562" xlink:href="#h"/>
<use x="288.634766" xlink:href="#f"/>
<use x="352.013672" xlink:href="#j"/>
<use x="413.292969" xlink:href="#g"/>
</g>
</g>
<path d="m1159.5 790.7v35.285q0 2.4 2.4 2.4h7.7425q2.4 0 2.4-2.4v-35.285q0-2.4-2.4-2.4h-7.7425q-2.4 0-2.4 2.4z" clip-path="url(#a)" fill="#fff" stroke="#fff"/>
<g clip-path="url(#a)">
<g transform="translate(1163.6 790.7) rotate(90) scale(.08 -.08)">
<use xlink:href="#l"/>
<use x="60.818359" xlink:href="#d"/>
<use x="122.341797" xlink:href="#i"/>
<use x="163.439453" xlink:href="#k"/>
<use x="260.851562" xlink:href="#h"/>
<use x="288.634766" xlink:href="#f"/>
<use x="352.013672" xlink:href="#j"/>
<use x="413.292969" xlink:href="#g"/>
</g>
</g>
<path d="m1377 790.7v35.285q0 2.4 2.4 2.4h7.7425q2.4 0 2.4-2.4v-35.285q0-2.4-2.4-2.4h-7.7425q-2.4 0-2.4 2.4z" clip-path="url(#a)" fill="#fff" stroke="#fff"/>
<g clip-path="url(#a)">
<g transform="translate(1381 790.7) rotate(90) scale(.08 -.08)">
<use xlink:href="#l"/>
<use x="60.818359" xlink:href="#d"/>
<use x="122.341797" xlink:href="#i"/>
<use x="163.439453" xlink:href="#k"/>
<use x="260.851562" xlink:href="#h"/>
<use x="288.634766" xlink:href="#f"/>
<use x="352.013672" xlink:href="#j"/>
<use x="413.292969" xlink:href="#g"/>
</g>
</g>
<path d="m1464 790.7v35.285q0 2.4 2.4 2.4h7.7425q2.4 0 2.4-2.4v-35.285q0-2.4-2.4-2.4h-7.7425q-2.4 0-2.4 2.4z" clip-path="url(#a)" fill="#fff" stroke="#fff"/>
<g clip-path="url(#a)">
<g transform="translate(1468 790.7) rotate(90) scale(.08 -.08)">
<use xlink:href="#l"/>
<use x="60.818359" xlink:href="#d"/>
<use x="122.341797" xlink:href="#i"/>
<use x="163.439453" xlink:href="#k"/>
<use x="260.851562" xlink:href="#h"/>
<use x="288.634766" xlink:href="#f"/>
<use x="352.013672" xlink:href="#j"/>
<use x="413.292969" xlink:href="#g"/>
</g>
</g>
<path d="m1507.5 790.7v35.285q0 2.4 2.4 2.4h7.7425q2.4 0 2.4-2.4v-35.285q0-2.4-2.4-2.4h-7.7425q-2.4 0-2.4 2.4z" clip-path="url(#a)" fill="#fff" stroke="#fff"/>
<g clip-path="url(#a)">
<g transform="translate(1511.5 790.7) rotate(90) scale(.08 -.08)">
<use xlink:href="#l"/>
<use x="60.818359" xlink:href="#d"/>
<use x="122.341797" xlink:href="#i"/>
<use x="163.439453" xlink:href="#k"/>
<use x="260.851562" xlink:href="#h"/>
<use x="288.634766" xlink:href="#f"/>
<use x="352.013672" xlink:href="#j"/>
<use x="413.292969" xlink:href="#g"/>
</g>
</g>
<defs>
<path id="b" d="m0 8.6603c2.2967 0 4.4997-0.9125 6.1237-2.5365 1.624-1.624 2.5365-3.827 2.5365-6.1237s-0.9125-4.4997-2.5365-6.1237c-1.624-1.624-3.827-2.5365-6.1237-2.5365s-4.4997 0.9125-6.1237 2.5365c-1.624 1.624-2.5365 3.827-2.5365 6.1237s0.9125 4.4997 2.5365 6.1237c1.624 1.624 3.827 2.5365 6.1237 2.5365z"/>
</defs>
<g clip-path="url(#a)">
<use x="78.460458" y="864.679711" fill="#ffffff" stroke="#ffffff" xlink:href="#b"/>
</g>
<g clip-path="url(#a)">
<use x="121.953395" y="864.679711" fill="#ffffff" stroke="#ffffff" xlink:href="#b"/>
</g>
<g clip-path="url(#a)">
<use x="165.446333" y="864.679711" fill="#ffffff" stroke="#ffffff" xlink:href="#b"/>
</g>
<g clip-path="url(#a)">
<use x="208.93927" y="864.679711" fill="#ffffff" stroke="#ffffff" xlink:href="#b"/>
</g>
<g clip-path="url(#a)">
<use x="252.432208" y="864.679711" fill="#ffffff" stroke="#ffffff" xlink:href="#b"/>
</g>
<g clip-path="url(#a)">
<use x="295.925145" y="864.679711" fill="#ffffff" stroke="#ffffff" xlink:href="#b"/>
</g>
<g clip-path="url(#a)">
<use x="339.418083" y="864.679711" fill="#ffffff" stroke="#ffffff" xlink:href="#b"/>
</g>
<g clip-path="url(#a)">
<use x="382.911021" y="864.679711" fill="#ffffff" stroke="#ffffff" xlink:href="#b"/>
</g>
<g clip-path="url(#a)">
<use x="426.403958" y="864.679711" fill="#ffffff" stroke="#ffffff" xlink:href="#b"/>
</g>
<g clip-path="url(#a)">
<use x="469.896896" y="864.679711" fill="#ffffff" stroke="#ffffff" xlink:href="#b"/>
</g>
<g clip-path="url(#a)">
<use x="513.389833" y="864.679711" fill="#ffffff" stroke="#ffffff" xlink:href="#b"/>
</g>
<g clip-path="url(#a)">
<use x="556.882771" y="864.679711" fill="#ffffff" stroke="#ffffff" xlink:href="#b"/>
</g>
<g clip-path="url(#a)">
<use x="600.375708" y="864.679711" fill="#ffffff" stroke="#ffffff" xlink:href="#b"/>
</g>
<g clip-path="url(#a)">
<use x="643.868646" y="864.679711" fill="#ffffff" stroke="#ffffff" xlink:href="#b"/>
</g>
<g clip-path="url(#a)">
<use x="687.361583" y="864.679711" fill="#ffffff" stroke="#ffffff" xlink:href="#b"/>
</g>
<g clip-path="url(#a)">
<use x="730.854521" y="864.679711" fill="#ffffff" stroke="#ffffff" xlink:href="#b"/>
</g>
<g clip-path="url(#a)">
<use x="774.347458" y="864.679711" fill="#ffffff" stroke="#ffffff" xlink:href="#b"/>
</g>
<g clip-path="url(#a)">
<use x="817.840396" y="864.679711" fill="#ffffff" stroke="#ffffff" xlink:href="#b"/>
</g>
<g clip-path="url(#a)">
<use x="861.333333" y="864.679711" fill="#ffffff" stroke="#ffffff" xlink:href="#b"/>
</g>
<g clip-path="url(#a)">
<use x="904.826271" y="864.679711" fill="#ffffff" stroke="#ffffff" xlink:href="#b"/>
</g>
<g clip-path="url(#a)">
<use x="948.319208" y="864.679711" fill="#ffffff" stroke="#ffffff" xlink:href="#b"/>
</g>
<g clip-path="url(#a)">
<use x="991.812146" y="864.679711" fill="#ffffff" stroke="#ffffff" xlink:href="#b"/>
</g>
<g clip-path="url(#a)">
<use x="1035.305083" y="864.679711" fill="#ffffff" stroke="#ffffff" xlink:href="#b"/>
</g>
<g clip-path="url(#a)">
<use x="1078.798021" y="864.679711" fill="#ffffff" stroke="#ffffff" xlink:href="#b"/>
</g>
<g clip-path="url(#a)">
<use x="1122.290959" y="864.679711" fill="#ffffff" stroke="#ffffff" xlink:href="#b"/>
</g>
<g clip-path="url(#a)">
<use x="1165.783896" y="864.679711" fill="#ffffff" stroke="#ffffff" xlink:href="#b"/>
</g>
<g clip-path="url(#a)">
<use x="1209.276834" y="864.679711" fill="#ffffff" stroke="#ffffff" xlink:href="#b"/>
</g>
<g clip-path="url(#a)">
<use x="1252.769771" y="864.679711" fill="#ffffff" stroke="#ffffff" xlink:href="#b"/>
</g>
<g clip-path="url(#a)">
<use x="1296.262709" y="864.679711" fill="#ffffff" stroke="#ffffff" xlink:href="#b"/>
</g>
<g clip-path="url(#a)">
<use x="1339.755646" y="864.679711" fill="#ffffff" stroke="#ffffff" xlink:href="#b"/>
</g>
<g clip-path="url(#a)">
<use x="1383.248584" y="864.679711" fill="#ffffff" stroke="#ffffff" xlink:href="#b"/>
</g>
<g clip-path="url(#a)">
<use x="1426.741521" y="864.679711" fill="#ffffff" stroke="#ffffff" xlink:href="#b"/>
</g>
<g clip-path="url(#a)">
<use x="1470.234459" y="864.679711" fill="#ffffff" stroke="#ffffff" xlink:href="#b"/>
</g>
<g clip-path="url(#a)">
<use x="1513.727396" y="864.679711" fill="#ffffff" stroke="#ffffff" xlink:href="#b"/>
</g>
<g clip-path="url(#a)">
<use x="1034.295081" y="41.986956" fill="#ffffff" stroke="#ffffff" xlink:href="#b"/>
</g>
<g clip-path="url(#a)">
<use x="298.123955" y="167.477192" fill="#ffffff" stroke="#ffffff" xlink:href="#b"/>
</g>
<g clip-path="url(#a)">
<use x="1506.478573" y="525.113847" fill="#ffffff" stroke="#ffffff" xlink:href="#b"/>
</g>
<g clip-path="url(#a)">
<use x="1600.713271" y="864.679711" fill="#ffffff" stroke="#ffffff" xlink:href="#b"/>
</g>
<g clip-path="url(#a)">
<use x="1557.220334" y="864.679711" fill="#ffffff" stroke="#ffffff" xlink:href="#b"/>
</g>
<g clip-path="url(#a)">
<use x="1361.502115" y="639.347342" fill="#ffffff" stroke="#ffffff" xlink:href="#b"/>
</g>
<g clip-path="url(#a)">
<use x="1209.276834" y="752.013526" fill="#ffffff" stroke="#ffffff" xlink:href="#b"/>
</g>
<g clip-path="url(#a)">
<use x="1252.769771" y="752.013526" fill="#ffffff" stroke="#ffffff" xlink:href="#b"/>
</g>
<g clip-path="url(#a)">
<use x="1296.262709" y="752.013526" fill="#ffffff" stroke="#ffffff" xlink:href="#b"/>
</g>
<g clip-path="url(#a)">
<use x="1339.755646" y="752.013526" fill="#ffffff" stroke="#ffffff" xlink:href="#b"/>
</g>
<g clip-path="url(#a)">
<use x="1426.741521" y="752.013526" fill="#ffffff" stroke="#ffffff" xlink:href="#b"/>
</g>
<g clip-path="url(#a)">
<use x="744.047378" y="289.594596" fill="#ffffff" stroke="#ffffff" xlink:href="#b"/>
</g>
<g clip-path="url(#a)">
<use x="165.446333" y="752.013526" fill="#ffffff" stroke="#ffffff" xlink:href="#b"/>
</g>
<g clip-path="url(#a)">
<use x="208.93927" y="752.013526" fill="#ffffff" stroke="#ffffff" xlink:href="#b"/>
</g>
<g clip-path="url(#a)">
<use x="252.432208" y="752.013526" fill="#ffffff" stroke="#ffffff" xlink:href="#b"/>
</g>
<g clip-path="url(#a)">
<use x="332.894142" y="408.680699" fill="#ffffff" stroke="#ffffff" xlink:href="#b"/>
</g>
<g clip-path="url(#a)">
<use x="774.347458" y="752.013526" fill="#ffffff" stroke="#ffffff" xlink:href="#b"/>
</g>
<g clip-path="url(#a)">
<use x="1064.300375" y="639.347342" fill="#ffffff" stroke="#ffffff" xlink:href="#b"/>
</g>
<g clip-path="url(#a)">
<use x="1644.206209" y="864.679711" fill="#ffffff" stroke="#ffffff" xlink:href="#b"/>
</g>
<g clip-path="url(#a)">
<use x="861.333333" y="752.013526" fill="#ffffff" stroke="#ffffff" xlink:href="#b"/>
</g>
<g clip-path="url(#a)">
<use x="948.319208" y="752.013526" fill="#ffffff" stroke="#ffffff" xlink:href="#b"/>
</g>
<g clip-path="url(#a)">
<use x="991.812146" y="752.013526" fill="#ffffff" stroke="#ffffff" xlink:href="#b"/>
</g>
<g clip-path="url(#a)">
<use x="1035.305083" y="752.013526" fill="#ffffff" stroke="#ffffff" xlink:href="#b"/>
</g>
<g clip-path="url(#a)">
<use x="78.460458" y="752.013526" fill="#ffffff" stroke="#ffffff" xlink:href="#b"/>
</g>
<g clip-path="url(#a)">
<use x="339.418083" y="752.013526" fill="#ffffff" stroke="#ffffff" xlink:href="#b"/>
</g>
<g clip-path="url(#a)">
<use x="382.911021" y="752.013526" fill="#ffffff" stroke="#ffffff" xlink:href="#b"/>
</g>
<g clip-path="url(#a)">
<use x="530.787008" y="525.113847" fill="#ffffff" stroke="#ffffff" xlink:href="#b"/>
</g>
<g clip-path="url(#a)">
<use x="426.403958" y="752.013526" fill="#ffffff" stroke="#ffffff" xlink:href="#b"/>
</g>
<g clip-path="url(#a)">
<use x="469.896896" y="752.013526" fill="#ffffff" stroke="#ffffff" xlink:href="#b"/>
</g>
<g clip-path="url(#a)">
<use x="513.389833" y="752.013526" fill="#ffffff" stroke="#ffffff" xlink:href="#b"/>
</g>
<g clip-path="url(#a)">
<use x="578.629239" y="752.013526" fill="#ffffff" stroke="#ffffff" xlink:href="#b"/>
</g>
<g clip-path="url(#a)">
<use x="665.615114" y="639.347342" fill="#ffffff" stroke="#ffffff" xlink:href="#b"/>
</g>
<g clip-path="url(#a)">
<use x="643.868646" y="752.013526" fill="#ffffff" stroke="#ffffff" xlink:href="#b"/>
</g>
<g clip-path="url(#a)">
<use x="687.361583" y="752.013526" fill="#ffffff" stroke="#ffffff" xlink:href="#b"/>
</g>
<g clip-path="url(#a)">
<use x="121.953395" y="752.013526" fill="#ffffff" stroke="#ffffff" xlink:href="#b"/>
</g>
<g clip-path="url(#a)">
<use x="295.925145" y="752.013526" fill="#ffffff" stroke="#ffffff" xlink:href="#b"/>
</g>
<g clip-path="url(#a)">
<use x="730.854521" y="752.013526" fill="#ffffff" stroke="#ffffff" xlink:href="#b"/>
</g>
<g clip-path="url(#a)">
<use x="817.840396" y="752.013526" fill="#ffffff" stroke="#ffffff" xlink:href="#b"/>
</g>
<g clip-path="url(#a)">
<use x="904.826271" y="752.013526" fill="#ffffff" stroke="#ffffff" xlink:href="#b"/>
</g>
<g clip-path="url(#a)">
<use x="1078.798021" y="752.013526" fill="#ffffff" stroke="#ffffff" xlink:href="#b"/>
</g>
<g clip-path="url(#a)">
<use x="1122.290959" y="752.013526" fill="#ffffff" stroke="#ffffff" xlink:href="#b"/>
</g>
<g clip-path="url(#a)">
<use x="1165.783896" y="752.013526" fill="#ffffff" stroke="#ffffff" xlink:href="#b"/>
</g>
<g clip-path="url(#a)">
<use x="1383.248584" y="752.013526" fill="#ffffff" stroke="#ffffff" xlink:href="#b"/>
</g>
<g clip-path="url(#a)">
<use x="1470.234459" y="752.013526" fill="#ffffff" stroke="#ffffff" xlink:href="#b"/>
</g>
<g clip-path="url(#a)">
<use x="1513.727396" y="752.013526" fill="#ffffff" stroke="#ffffff" xlink:href="#b"/>
</g>
<g clip-path="url(#a)">
<defs>
<path id="ap" d="m9.8125 72.906h46.094v-8.3125h-36.234v-21.578h34.719v-8.2969h-34.719v-26.422h37.109v-8.2969h-46.969z"/>
<path id="ae" d="m37.109 75.984v-7.4844h-8.5938q-4.8281 0-6.7188-1.9531-1.875-1.9531-1.875-7.0312v-4.8281h14.797v-6.9844h-14.797v-47.703h-9.0312v47.703h-8.5938v6.9844h8.5938v3.8125q0 9.125 4.25 13.297 4.25 4.1875 13.469 4.1875z"/>
<path id="as" d="m48.781 52.594v-8.4062q-3.8125 2.1094-7.6406 3.1562t-7.7344 1.0469q-8.75 0-13.594-5.5469-4.8281-5.5312-4.8281-15.547t4.8281-15.562q4.8438-5.5312 13.594-5.5312 3.9062 0 7.7344 1.0469t7.6406 3.1562v-8.3125q-3.7656-1.75-7.7969-2.625-4.0156-0.89062-8.5625-0.89062-12.359 0-19.641 7.7656-7.2656 7.7656-7.2656 20.953 0 13.375 7.3438 21.031 7.3594 7.6719 20.156 7.6719 4.1406 0 8.0938-0.85938 3.9531-0.84375 7.6719-2.5469z"/>
<path id="u" d="m18.312 70.219v-15.531h18.5v-6.9844h-18.5v-29.688q0-6.6875 1.8281-8.5938t7.4531-1.9062h9.2188v-7.5156h-9.2188q-10.406 0-14.359 3.875-3.9531 3.8906-3.9531 14.141v29.688h-6.5938v6.9844h6.5938v15.531z"/>
<path id="aw" d="m2.9844 54.688h9.5156l17.094-45.891 17.094 45.891h9.5156l-20.516-54.688h-12.203z"/>
</defs>
<g transform="translate(43.494 867.44) scale(.1 -.1)">
<use xlink:href="#ap"/>
<use x="63.183594" xlink:href="#ae"/>
<use x="98.388672" xlink:href="#ae"/>
<use x="133.59375" xlink:href="#d"/>
<use x="195.117188" xlink:href="#as"/>
<use x="250.097656" xlink:href="#u"/>
<use x="289.306641" xlink:href="#h"/>
<use x="317.089844" xlink:href="#aw"/>
<use x="376.269531" xlink:href="#d"/>
<use x="437.792969" xlink:href="#k"/>
<use x="535.205078" xlink:href="#d"/>
<use x="596.728516" xlink:href="#f"/>
<use x="660.107422" xlink:href="#u"/>
</g>
</g>
<g clip-path="url(#a)">
<defs>
<path id="ad" d="m11.719 12.406h10.297v-8.4062l-8-15.625h-6.2969l4 15.625z"/>
</defs>
<g transform="translate(120.36 867.44) scale(.1 -.1)">
<use xlink:href="#ad"/>
</g>
</g>
<g clip-path="url(#a)">
<defs>
<path id="av" d="m56.203 29.594v-4.3906h-41.312q0.59375-9.2812 5.5938-14.141t13.938-4.8594q5.1719 0 10.031 1.2656t9.6562 3.8125v-8.5q-4.8438-2.0469-9.9219-3.125t-10.297-1.0781q-13.094 0-20.734 7.6094-7.6406 7.625-7.6406 20.625 0 13.422 7.25 21.297 7.25 7.8906 19.562 7.8906 11.031 0 17.453-7.1094 6.4219-7.0938 6.4219-19.297zm-8.9844 2.6406q-0.09375 7.3594-4.125 11.75-4.0312 4.4062-10.672 4.4062-7.5156 0-12.031-4.25t-5.2031-11.969zm-8.6875 47.75h9.7188l-15.906-18.359h-7.4844z"/>
<path id="ar" d="m18.109 8.2031v-29h-9.0312v75.484h9.0312v-8.2969q2.8438 4.875 7.1562 7.2344 4.3281 2.375 10.328 2.375 9.9688 0 16.188-7.9062 6.2344-7.9062 6.2344-20.797t-6.2344-20.812q-6.2188-7.9062-16.188-7.9062-6 0-10.328 2.375-4.3125 2.375-7.1562 7.25zm30.578 19.094q0 9.9062-4.0781 15.547t-11.203 5.6406q-7.1406 0-11.219-5.6406t-4.0781-15.547 4.0781-15.547 11.219-5.6406q7.125 0 11.203 5.6406t4.0781 15.547z"/>
<path id="x" d="m30.609 48.391q-7.2188 0-11.422-5.6406t-4.2031-15.453 4.1719-15.453q4.1875-5.6406 11.453-5.6406 7.1875 0 11.375 5.6562 4.2031 5.6719 4.2031 15.438 0 9.7188-4.2031 15.406-4.1875 5.6875-11.375 5.6875zm0 7.6094q11.719 0 18.406-7.625 6.7031-7.6094 6.7031-21.078 0-13.422-6.7031-21.078-6.6875-7.6406-18.406-7.6406-11.766 0-18.438 7.6406-6.6562 7.6562-6.6562 21.078 0 13.469 6.6562 21.078 6.6719 7.625 18.438 7.625z"/>
<path id="af" d="m45.406 46.391v29.594h8.9844v-75.984h-8.9844v8.2031q-2.8281-4.875-7.1562-7.25-4.3125-2.375-10.375-2.375-9.9062 0-16.141 7.9062-6.2188 7.9219-6.2188 20.812t6.2188 20.797q6.2344 7.9062 16.141 7.9062 6.0625 0 10.375-2.375 4.3281-2.3594 7.1562-7.2344zm-30.609-19.094q0-9.9062 4.0781-15.547t11.203-5.6406 11.219 5.6406q4.1094 5.6406 4.1094 15.547t-4.1094 15.547q-4.0938 5.6406-11.219 5.6406t-11.203-5.6406-4.0781-15.547z"/>
</defs>
<g transform="translate(144.39 867.64) scale(.1 -.1)">
<use xlink:href="#i"/>
<use x="41.082031" xlink:href="#av"/>
<use x="102.605469" xlink:href="#ar"/>
<use x="166.082031" xlink:href="#x"/>
<use x="227.263672" xlink:href="#f"/>
<use x="290.642578" xlink:href="#af"/>
<use x="354.119141" xlink:href="#h"/>
<use x="381.902344" xlink:href="#u"/>
</g>
</g>
<g clip-path="url(#a)">
<defs>
<path id="am" d="m14.797 27.297q0-9.9062 4.0781-15.547t11.203-5.6406 11.219 5.6406q4.1094 5.6406 4.1094 15.547t-4.1094 15.547q-4.0938 5.6406-11.219 5.6406t-11.203-5.6406-4.0781-15.547zm30.609-19.094q-2.8281-4.875-7.1562-7.25-4.3125-2.375-10.375-2.375-9.9062 0-16.141 7.9062-6.2188 7.9219-6.2188 20.812t6.2188 20.797q6.2344 7.9062 16.141 7.9062 6.0625 0 10.375-2.375 4.3281-2.3594 7.1562-7.2344v8.2969h8.9844v-75.484h-8.9844z"/>
<path id="w" d="m8.5 21.578v33.109h8.9844v-32.766q0-7.7656 3.0156-11.656 3.0312-3.875 9.0938-3.875 7.2656 0 11.484 4.6406 4.2344 4.6406 4.2344 12.656v31h8.9844v-54.688h-8.9844v8.4062q-3.2656-4.9844-7.5938-7.4062-4.3125-2.4219-10.031-2.4219-9.4219 0-14.312 5.8594-4.875 5.8594-4.875 17.141z"/>
</defs>
<g transform="translate(172.03 867.44) scale(.1 -.1)">
<use xlink:href="#u"/>
<use x="39.208984" xlink:href="#i"/>
<use x="80.322266" xlink:href="#j"/>
<use x="141.601562" xlink:href="#f"/>
<use x="204.980469" xlink:href="#am"/>
<use x="268.457031" xlink:href="#w"/>
<use x="331.835938" xlink:href="#h"/>
<use x="359.619141" xlink:href="#g"/>
<use x="387.402344" xlink:href="#g"/>
<use x="415.185547" xlink:href="#d"/>
<use x="476.708984" xlink:href="#k"/>
<use x="574.121094" xlink:href="#d"/>
<use x="635.644531" xlink:href="#f"/>
<use x="699.023438" xlink:href="#u"/>
</g>
</g>
<g clip-path="url(#a)">
<defs>
<path id="z" d="m44.281 53.078v-8.5q-3.7969 1.9531-7.9062 2.9219-4.0938 0.98438-8.5 0.98438-6.6875 0-10.031-2.0469t-3.3438-6.1562q0-3.125 2.3906-4.9062t9.625-3.3906l3.0781-0.6875q9.5625-2.0469 13.594-5.7812t4.0312-10.422q0-7.625-6.0312-12.078-6.0312-4.4375-16.578-4.4375-4.3906 0-9.1562 0.85938t-10.031 2.5625v9.2812q4.9844-2.5938 9.8125-3.8906 4.8281-1.2812 9.5781-1.2812 6.3438 0 9.75 2.1719 3.4219 2.1719 3.4219 6.125 0 3.6562-2.4688 5.6094-2.4531 1.9531-10.812 3.7656l-3.125 0.73438q-8.3438 1.75-12.062 5.3906-3.7031 3.6406-3.7031 9.9844 0 7.7188 5.4688 11.906 5.4688 4.2031 15.531 4.2031 4.9688 0 9.3594-0.73438 4.4062-0.71875 8.1094-2.1875z"/>
</defs>
<g transform="translate(234.25 867.44) scale(.1 -.1)">
<use xlink:href="#v"/>
<use x="69.824219" xlink:href="#x"/>
<use x="131.005859" xlink:href="#f"/>
<use x="194.384766" xlink:href="#z"/>
<use x="246.484375" xlink:href="#d"/>
<use x="308.007812" xlink:href="#h"/>
<use x="335.791016" xlink:href="#g"/>
</g>
</g>
<g clip-path="url(#a)">
<g transform="translate(294.34 867.44) scale(.1 -.1)">
<use xlink:href="#ad"/>
</g>
</g>
<g clip-path="url(#a)">
<defs>
<path id="ax" d="m9.4219 54.688h8.9844v-55.672q0-10.438-3.9844-15.125-3.9688-4.6875-12.812-4.6875h-3.4219v7.6094h2.4062q5.125 0 6.9688 2.375 1.8594 2.3594 1.8594 9.8281zm0 21.297h8.9844v-11.391h-8.9844z"/>
</defs>
<g transform="translate(334.95 867.44) scale(.1 -.1)">
<use xlink:href="#ax"/>
<use x="27.783203" xlink:href="#d"/>
</g>
</g>
<g clip-path="url(#a)">
<g transform="translate(367.81 867.44) scale(.1 -.1)">
<use xlink:href="#ar"/>
<use x="63.476562" xlink:href="#d"/>
<use x="125" xlink:href="#f"/>
<use x="188.378906" xlink:href="#z"/>
<use x="240.478516" xlink:href="#d"/>
</g>
</g>
<g clip-path="url(#a)">
<g transform="translate(416.98 867.44) scale(.1 -.1)">
<use xlink:href="#am"/>
<use x="63.476562" xlink:href="#w"/>
<use x="126.855469" xlink:href="#d"/>
</g>
</g>
<g clip-path="url(#a)">
<defs>
<path id="au" d="m17.922 72.906v-27.109h-8.2969v27.109z"/>
</defs>
<g transform="translate(467.13 867.44) scale(.1 -.1)">
<use xlink:href="#g"/>
<use x="27.783203" xlink:href="#au"/>
</g>
</g>
<g clip-path="url(#a)">
<g transform="translate(507.16 867.44) scale(.1 -.1)">
<use xlink:href="#x"/>
<use x="61.181641" xlink:href="#f"/>
</g>
</g>
<g clip-path="url(#a)">
<g transform="translate(551.2 867.44) scale(.1 -.1)">
<use xlink:href="#z"/>
<use x="52.099609" xlink:href="#d"/>
</g>
</g>
<g clip-path="url(#a)">
<g transform="translate(577.91 867.44) scale(.1 -.1)">
<use xlink:href="#k"/>
<use x="97.412109" xlink:href="#x"/>
<use x="158.59375" xlink:href="#am"/>
<use x="222.070312" xlink:href="#w"/>
<use x="285.449219" xlink:href="#d"/>
<use x="346.972656" xlink:href="#i"/>
<use x="388.085938" xlink:href="#j"/>
</g>
</g>
<g clip-path="url(#a)">
<g transform="translate(637.62 867.44) scale(.1 -.1)">
<use xlink:href="#af"/>
<use x="63.476562" xlink:href="#d"/>
</g>
</g>
<g clip-path="url(#a)">
<g transform="translate(663.97 867.44) scale(.1 -.1)">
<use xlink:href="#k"/>
<use x="97.412109" xlink:href="#x"/>
<use x="158.59375" xlink:href="#f"/>
<use x="221.972656" xlink:href="#z"/>
<use x="274.072266" xlink:href="#h"/>
<use x="301.855469" xlink:href="#d"/>
<use x="363.378906" xlink:href="#w"/>
<use x="426.757812" xlink:href="#i"/>
</g>
</g>
<g clip-path="url(#a)">
<defs>
<path id="e" d="m10.688 12.406h10.312v-12.406h-10.312z"/>
</defs>
<g transform="translate(729.27 867.44) scale(.1 -.1)">
<use xlink:href="#e"/>
</g>
</g>
<g clip-path="url(#a)">
<g transform="translate(769.23 867.44) scale(.1 -.1)">
<use xlink:href="#ap"/>
<use x="63.183594" xlink:href="#u"/>
</g>
</g>
<g clip-path="url(#a)">
<g transform="translate(816.25 867.44) scale(.1 -.1)">
<use xlink:href="#ad"/>
</g>
</g>
<g clip-path="url(#a)">
<g transform="translate(851.38 867.44) scale(.1 -.1)">
<use xlink:href="#ae"/>
<use x="35.205078" xlink:href="#j"/>
<use x="96.484375" xlink:href="#w"/>
<use x="159.863281" xlink:href="#u"/>
</g>
</g>
<g clip-path="url(#a)">
<defs>
<path id="al" d="m4.8906 31.391h26.312v-8h-26.312z"/>
</defs>
<g transform="translate(903.02 867.44) scale(.1 -.1)">
<use xlink:href="#al"/>
</g>
</g>
<g clip-path="url(#a)">
<g transform="translate(945.54 867.44) scale(.1 -.1)">
<use xlink:href="#h"/>
<use x="27.783203" xlink:href="#g"/>
</g>
</g>
<g clip-path="url(#a)">
<g transform="translate(987.35 867.44) scale(.1 -.1)">
<use xlink:href="#g"/>
<use x="27.783203" xlink:href="#d"/>
</g>
</g>
<g clip-path="url(#a)">
<g transform="translate(1025.6 867.44) scale(.1 -.1)">
<use xlink:href="#af"/>
<use x="63.476562" xlink:href="#h"/>
<use x="91.259766" xlink:href="#i"/>
<use x="132.341797" xlink:href="#d"/>
</g>
</g>
<g clip-path="url(#a)">
<g transform="translate(1074 867.44) scale(.1 -.1)">
<use xlink:href="#e"/>
<use x="31.787109" xlink:href="#e"/>
<use x="63.574219" xlink:href="#e"/>
</g>
</g>
<g clip-path="url(#a)">
<defs>
<path id="at" d="m19.094 12.406h9.9062v-12.406h-9.9062zm9.625 7.1719h-9.3281v7.5156q0 4.9375 1.3594 8.1094 1.375 3.1719 5.7656 7.375l4.3906 4.3438q2.7812 2.5938 4.0312 4.8906t1.25 4.6875q0 4.3438-3.2031 7.0312t-8.4688 2.6875q-3.8594 0-8.2344-1.7188-4.3594-1.7031-9.1094-4.9844v9.1875q4.5938 2.7812 9.2969 4.1406 4.7188 1.375 9.75 1.375 8.9844 0 14.422-4.7344 5.4531-4.7344 5.4531-12.5 0-3.7188-1.7656-7.0625-1.75-3.3438-6.1406-7.5312l-4.2969-4.2031q-2.2969-2.2969-3.25-3.5938t-1.3438-2.5156q-0.29688-1.0156-0.4375-2.4844t-0.14062-4z"/>
</defs>
<g transform="translate(1119.6 867.44) scale(.1 -.1)">
<use xlink:href="#at"/>
</g>
</g>
<g clip-path="url(#a)">
<g transform="translate(1164 867.44) scale(.1 -.1)">
<use xlink:href="#al"/>
</g>
</g>
<g clip-path="url(#a)">
<defs>
<path id="r" d="m9.8125 72.906h9.8594v-72.906h-9.8594z"/>
</defs>
<g transform="translate(1206.4 867.44) scale(.1 -.1)">
<use xlink:href="#r"/>
<use x="29.492188" xlink:href="#g"/>
</g>
</g>
<g clip-path="url(#a)">
<g transform="translate(1242.8 867.44) scale(.1 -.1)">
<use xlink:href="#ae"/>
<use x="35.205078" xlink:href="#j"/>
<use x="96.484375" xlink:href="#w"/>
<use x="159.863281" xlink:href="#u"/>
</g>
</g>
<g clip-path="url(#a)">
<g transform="translate(1291.8 867.44) scale(.1 -.1)">
<use xlink:href="#g"/>
<use x="27.783203" xlink:href="#d"/>
</g>
</g>
<g clip-path="url(#a)">
<g transform="translate(1330.1 867.44) scale(.1 -.1)">
<use xlink:href="#af"/>
<use x="63.476562" xlink:href="#h"/>
<use x="91.259766" xlink:href="#i"/>
<use x="132.341797" xlink:href="#d"/>
</g>
</g>
<g clip-path="url(#a)">
<g transform="translate(1381.7 867.44) scale(.1 -.1)">
<use xlink:href="#ad"/>
</g>
</g>
<g clip-path="url(#a)">
<g transform="translate(1408.6 867.44) scale(.1 -.1)">
<use xlink:href="#v"/>
<use x="69.824219" xlink:href="#x"/>
<use x="131.005859" xlink:href="#f"/>
<use x="194.384766" xlink:href="#z"/>
<use x="246.484375" xlink:href="#d"/>
<use x="308.007812" xlink:href="#h"/>
<use x="335.791016" xlink:href="#g"/>
</g>
</g>
<g clip-path="url(#a)">
<g transform="translate(1468.6 867.44) scale(.1 -.1)">
<use xlink:href="#e"/>
</g>
</g>
<g clip-path="url(#a)">
<g transform="translate(1511.9 867.44) scale(.1 -.1)">
<use xlink:href="#al"/>
</g>
</g>
<g clip-path="url(#a)">
<defs>
<path id="c" d="m12.406 8.2969h16.109v55.625l-17.531-3.5156v8.9844l17.438 3.5156h9.8594v-64.609h16.109v-8.2969h-41.984z"/>
</defs>
<g transform="translate(1026.3 44.746) scale(.1 -.1)">
<use xlink:href="#c"/>
<use x="63.623047" xlink:href="#e"/>
<use x="95.410156" xlink:href="#c"/>
</g>
</g>
<g clip-path="url(#a)">
<defs>
<path id="s" d="m19.188 8.2969h34.422v-8.2969h-46.281v8.2969q5.6094 5.8125 15.297 15.594 9.7031 9.7969 12.188 12.641 4.7344 5.3125 6.6094 9 1.8906 3.6875 1.8906 7.25 0 5.8125-4.0781 9.4688-4.0781 3.6719-10.625 3.6719-4.6406 0-9.7969-1.6094-5.1406-1.6094-11-4.8906v9.9688q5.9531 2.3906 11.125 3.6094 5.1875 1.2188 9.4844 1.2188 11.328 0 18.062-5.6719 6.7344-5.6562 6.7344-15.125 0-4.5-1.6875-8.5312-1.6719-4.0156-6.125-9.4844-1.2188-1.4219-7.7656-8.1875-6.5312-6.7656-18.453-18.922z"/>
</defs>
<g transform="translate(290.17 170.24) scale(.1 -.1)">
<use xlink:href="#c"/>
<use x="63.623047" xlink:href="#e"/>
<use x="95.410156" xlink:href="#s"/>
</g>
</g>
<g clip-path="url(#a)">
<defs>
<path id="n" d="m40.578 39.312q7.0781-1.5156 11.047-6.3125 3.9844-4.7812 3.9844-11.812 0-10.781-7.4219-16.703-7.4219-5.9062-21.094-5.9062-4.5781 0-9.4375 0.90625t-10.031 2.7188v9.5156q4.0938-2.3906 8.9688-3.6094 4.8906-1.2188 10.219-1.2188 9.2656 0 14.125 3.6562t4.8594 10.641q0 6.4531-4.5156 10.078-4.5156 3.6406-12.562 3.6406h-8.5v8.1094h8.8906q7.2656 0 11.125 2.9062t3.8594 8.375q0 5.6094-3.9844 8.6094-3.9688 3.0156-11.391 3.0156-4.0625 0-8.7031-0.89062-4.6406-0.875-10.203-2.7188v8.7812q5.625 1.5625 10.531 2.3438t9.25 0.78125q11.234 0 17.766-5.1094 6.5469-5.0938 6.5469-13.781 0-6.0625-3.4688-10.234t-9.8594-5.7812z"/>
</defs>
<g transform="translate(1498.5 527.87) scale(.1 -.1)">
<use xlink:href="#c"/>
<use x="63.623047" xlink:href="#e"/>
<use x="95.410156" xlink:href="#n"/>
</g>
</g>
<g clip-path="url(#a)">
<defs>
<path id="ag" d="m9.8125 72.906h14.703l18.594-49.609 18.703 49.609h14.703v-72.906h-9.625v64.016l-18.797-50h-9.9062l-18.797 50v-64.016h-9.5781z"/>
</defs>
<g transform="translate(1579.6 867.44) scale(.1 -.1)">
<use xlink:href="#r"/>
<use x="29.492188" xlink:href="#ag"/>
<use x="115.771484" xlink:href="#t"/>
<use x="176.074219" xlink:href="#aa"/>
<use x="231.787109" xlink:href="#r"/>
<use x="261.279297" xlink:href="#v"/>
<use x="331.103516" xlink:href="#r"/>
<use x="360.595703" xlink:href="#l"/>
</g>
</g>
<g clip-path="url(#a)">
<g transform="translate(1536.1 867.44) scale(.1 -.1)">
<use xlink:href="#r"/>
<use x="29.492188" xlink:href="#ag"/>
<use x="115.771484" xlink:href="#t"/>
<use x="176.074219" xlink:href="#aa"/>
<use x="231.787109" xlink:href="#r"/>
<use x="261.279297" xlink:href="#v"/>
<use x="331.103516" xlink:href="#r"/>
<use x="360.595703" xlink:href="#l"/>
</g>
</g>
<g clip-path="url(#a)">
<g transform="translate(1350.4 642.11) scale(.1 -.1)">
<use xlink:href="#c"/>
<use x="63.623047" xlink:href="#e"/>
<use x="95.410156" xlink:href="#c"/>
<use x="159.033203" xlink:href="#c"/>
</g>
</g>
<g clip-path="url(#a)">
<g transform="translate(1198.1 754.77) scale(.1 -.1)">
<use xlink:href="#c"/>
<use x="63.623047" xlink:href="#e"/>
<use x="95.410156" xlink:href="#c"/>
<use x="159.033203" xlink:href="#s"/>
</g>
</g>
<g clip-path="url(#a)">
<g transform="translate(1241.6 754.77) scale(.1 -.1)">
<use xlink:href="#c"/>
<use x="63.623047" xlink:href="#e"/>
<use x="95.410156" xlink:href="#c"/>
<use x="159.033203" xlink:href="#n"/>
</g>
</g>
<g clip-path="url(#a)">
<defs>
<path id="m" d="m37.797 64.312-24.906-38.922h24.906zm-2.5938 8.5938h12.406v-47.516h10.406v-8.2031h-10.406v-17.188h-9.8125v17.188h-32.906v9.5156z"/>
</defs>
<g transform="translate(1285.1 754.77) scale(.1 -.1)">
<use xlink:href="#c"/>
<use x="63.623047" xlink:href="#e"/>
<use x="95.410156" xlink:href="#c"/>
<use x="159.033203" xlink:href="#m"/>
</g>
</g>
<g clip-path="url(#a)">
<defs>
<path id="o" d="m10.797 72.906h38.719v-8.3125h-29.688v-17.859q2.1406 0.73438 4.2812 1.0938 2.1562 0.35938 4.3125 0.35938 12.203 0 19.328-6.6875 7.1406-6.6875 7.1406-18.109 0-11.766-7.3281-18.297-7.3281-6.5156-20.656-6.5156-4.5938 0-9.3594 0.78125-4.75 0.78125-9.8281 2.3438v9.9219q4.3906-2.3906 9.0781-3.5625t9.9062-1.1719q8.4531 0 13.375 4.4375 4.9375 4.4375 4.9375 12.062 0 7.6094-4.9375 12.047-4.9219 4.4531-13.375 4.4531-3.9531 0-7.8906-0.875-3.9219-0.875-8.0156-2.7344z"/>
</defs>
<g transform="translate(1328.6 754.77) scale(.1 -.1)">
<use xlink:href="#c"/>
<use x="63.623047" xlink:href="#e"/>
<use x="95.410156" xlink:href="#c"/>
<use x="159.033203" xlink:href="#o"/>
</g>
</g>
<g clip-path="url(#a)">
<defs>
<path id="y" d="m33.016 40.375q-6.6406 0-10.531-4.5469-3.875-4.5312-3.875-12.438 0-7.8594 3.875-12.438 3.8906-4.5625 10.531-4.5625t10.516 4.5625q3.875 4.5781 3.875 12.438 0 7.9062-3.875 12.438-3.875 4.5469-10.516 4.5469zm19.578 30.922v-8.9844q-3.7188 1.75-7.5 2.6719-3.7812 0.9375-7.5 0.9375-9.7656 0-14.922-6.5938-5.1406-6.5938-5.875-19.922 2.875 4.25 7.2188 6.5156 4.3594 2.2656 9.5781 2.2656 10.984 0 17.359-6.6719 6.375-6.6562 6.375-18.125 0-11.234-6.6406-18.031-6.6406-6.7812-17.672-6.7812-12.656 0-19.344 9.6875-6.6875 9.7031-6.6875 28.109 0 17.281 8.2031 27.562t22.016 10.281q3.7188 0 7.5-0.73438t7.8906-2.1875z"/>
</defs>
<g transform="translate(1415.6 754.77) scale(.1 -.1)">
<use xlink:href="#c"/>
<use x="63.623047" xlink:href="#e"/>
<use x="95.410156" xlink:href="#c"/>
<use x="159.033203" xlink:href="#y"/>
</g>
</g>
<g clip-path="url(#a)">
<defs>
<path id="ak" d="m31.781 34.625q-7.0312 0-11.062-3.7656-4.0156-3.7656-4.0156-10.344 0-6.5938 4.0156-10.359 4.0312-3.7656 11.062-3.7656t11.078 3.7812q4.0625 3.7969 4.0625 10.344 0 6.5781-4.0312 10.344-4.0156 3.7656-11.109 3.7656zm-9.8594 4.1875q-6.3438 1.5625-9.8906 5.9062-3.5312 4.3594-3.5312 10.609 0 8.7344 6.2188 13.812 6.2344 5.0781 17.062 5.0781 10.891 0 17.094-5.0781t6.2031-13.812q0-6.25-3.5469-10.609-3.5312-4.3438-9.8281-5.9062 7.125-1.6562 11.094-6.5 3.9844-4.8281 3.9844-11.797 0-10.609-6.4688-16.281-6.4688-5.6562-18.531-5.6562-12.047 0-18.531 5.6562-6.4688 5.6719-6.4688 16.281 0 6.9688 4 11.797 4.0156 4.8438 11.141 6.5zm-3.6094 15.578q0-5.6562 3.5312-8.8281 3.5469-3.1719 9.9375-3.1719 6.3594 0 9.9375 3.1719 3.5938 3.1719 3.5938 8.8281 0 5.6719-3.5938 8.8438-3.5781 3.1719-9.9375 3.1719-6.3906 0-9.9375-3.1719-3.5312-3.1719-3.5312-8.8438z"/>
</defs>
<g transform="translate(732.91 292.35) scale(.1 -.1)">
<use xlink:href="#c"/>
<use x="63.623047" xlink:href="#e"/>
<use x="95.410156" xlink:href="#c"/>
<use x="159.033203" xlink:href="#ak"/>
</g>
</g>
<g clip-path="url(#a)">
<defs>
<path id="aj" d="m10.984 1.5156v8.9844q3.7188-1.7656 7.5156-2.6875 3.8125-0.92188 7.4844-0.92188 9.7656 0 14.906 6.5625 5.1562 6.5625 5.8906 19.953-2.8281-4.2031-7.1875-6.4531-4.3438-2.25-9.6094-2.25-10.938 0-17.312 6.6094-6.375 6.625-6.375 18.109 0 11.219 6.6406 18 6.6406 6.7969 17.672 6.7969 12.656 0 19.312-9.7031 6.6719-9.6875 6.6719-28.141 0-17.234-8.1875-27.516-8.1719-10.281-21.984-10.281-3.7188 0-7.5312 0.73438-3.7969 0.73438-7.9062 2.2031zm19.625 30.906q6.6406 0 10.516 4.5312 3.8906 4.5469 3.8906 12.469 0 7.8594-3.8906 12.422-3.875 4.5625-10.516 4.5625t-10.516-4.5625-3.875-12.422q0-7.9219 3.875-12.469 3.875-4.5312 10.516-4.5312z"/>
</defs>
<g transform="translate(154.31 754.77) scale(.1 -.1)">
<use xlink:href="#c"/>
<use x="63.623047" xlink:href="#e"/>
<use x="95.410156" xlink:href="#c"/>
<use x="159.033203" xlink:href="#aj"/>
</g>
</g>
<g clip-path="url(#a)">
<defs>
<path id="ac" d="m31.781 66.406q-7.6094 0-11.453-7.5-3.8281-7.4844-3.8281-22.531 0-14.984 3.8281-22.484 3.8438-7.5 11.453-7.5 7.6719 0 11.5 7.5 3.8438 7.5 3.8438 22.484 0 15.047-3.8438 22.531-3.8281 7.5-11.5 7.5zm0 7.8125q12.266 0 18.734-9.7031 6.4688-9.6875 6.4688-28.141 0-18.406-6.4688-28.109-6.4688-9.6875-18.734-9.6875-12.25 0-18.719 9.6875-6.4688 9.7031-6.4688 28.109 0 18.453 6.4688 28.141 6.4688 9.7031 18.719 9.7031z"/>
</defs>
<g transform="translate(197.81 754.77) scale(.1 -.1)">
<use xlink:href="#c"/>
<use x="63.623047" xlink:href="#e"/>
<use x="95.410156" xlink:href="#s"/>
<use x="159.033203" xlink:href="#ac"/>
</g>
</g>
<g clip-path="url(#a)">
<g transform="translate(241.3 754.77) scale(.1 -.1)">
<use xlink:href="#c"/>
<use x="63.623047" xlink:href="#e"/>
<use x="95.410156" xlink:href="#s"/>
<use x="159.033203" xlink:href="#c"/>
</g>
</g>
<g clip-path="url(#a)">
<g transform="translate(321.76 411.44) scale(.1 -.1)">
<use xlink:href="#c"/>
<use x="63.623047" xlink:href="#e"/>
<use x="95.410156" xlink:href="#s"/>
<use x="159.033203" xlink:href="#m"/>
</g>
</g>
<g clip-path="url(#a)">
<g transform="translate(763.21 754.77) scale(.1 -.1)">
<use xlink:href="#c"/>
<use x="63.623047" xlink:href="#e"/>
<use x="95.410156" xlink:href="#s"/>
<use x="159.033203" xlink:href="#o"/>
</g>
</g>
<g clip-path="url(#a)">
<g transform="translate(1053.2 642.11) scale(.1 -.1)">
<use xlink:href="#c"/>
<use x="63.623047" xlink:href="#e"/>
<use x="95.410156" xlink:href="#s"/>
<use x="159.033203" xlink:href="#y"/>
</g>
</g>
<g clip-path="url(#a)">
<g transform="translate(1623.1 867.44) scale(.1 -.1)">
<use xlink:href="#r"/>
<use x="29.492188" xlink:href="#ag"/>
<use x="115.771484" xlink:href="#t"/>
<use x="176.074219" xlink:href="#aa"/>
<use x="231.787109" xlink:href="#r"/>
<use x="261.279297" xlink:href="#v"/>
<use x="331.103516" xlink:href="#r"/>
<use x="360.595703" xlink:href="#l"/>
</g>
</g>
<g clip-path="url(#a)">
<g transform="translate(850.2 754.77) scale(.1 -.1)">
<use xlink:href="#c"/>
<use x="63.623047" xlink:href="#e"/>
<use x="95.410156" xlink:href="#n"/>
<use x="159.033203" xlink:href="#ac"/>
</g>
</g>
<g clip-path="url(#a)">
<g transform="translate(937.19 754.77) scale(.1 -.1)">
<use xlink:href="#c"/>
<use x="63.623047" xlink:href="#e"/>
<use x="95.410156" xlink:href="#n"/>
<use x="159.033203" xlink:href="#c"/>
</g>
</g>
<g clip-path="url(#a)">
<g transform="translate(980.68 754.77) scale(.1 -.1)">
<use xlink:href="#c"/>
<use x="63.623047" xlink:href="#e"/>
<use x="95.410156" xlink:href="#n"/>
<use x="159.033203" xlink:href="#s"/>
</g>
</g>
<g clip-path="url(#a)">
<g transform="translate(1024.2 754.77) scale(.1 -.1)">
<use xlink:href="#c"/>
<use x="63.623047" xlink:href="#e"/>
<use x="95.410156" xlink:href="#n"/>
<use x="159.033203" xlink:href="#n"/>
</g>
</g>
<g clip-path="url(#a)">
<g transform="translate(67.328 754.77) scale(.1 -.1)">
<use xlink:href="#c"/>
<use x="63.623047" xlink:href="#e"/>
<use x="95.410156" xlink:href="#n"/>
<use x="159.033203" xlink:href="#o"/>
</g>
</g>
<g clip-path="url(#a)">
<g transform="translate(328.29 754.77) scale(.1 -.1)">
<use xlink:href="#c"/>
<use x="63.623047" xlink:href="#e"/>
<use x="95.410156" xlink:href="#n"/>
<use x="159.033203" xlink:href="#y"/>
</g>
</g>
<g clip-path="url(#a)">
<defs>
<path id="aq" d="m8.2031 72.906h46.875v-4.2031l-26.469-68.703h-10.297l24.906 64.594h-35.016z"/>
</defs>
<g transform="translate(371.78 754.77) scale(.1 -.1)">
<use xlink:href="#c"/>
<use x="63.623047" xlink:href="#e"/>
<use x="95.410156" xlink:href="#n"/>
<use x="159.033203" xlink:href="#aq"/>
</g>
</g>
<g clip-path="url(#a)">
<g transform="translate(519.65 527.87) scale(.1 -.1)">
<use xlink:href="#c"/>
<use x="63.623047" xlink:href="#e"/>
<use x="95.410156" xlink:href="#n"/>
<use x="159.033203" xlink:href="#ak"/>
</g>
</g>
<g clip-path="url(#a)">
<g transform="translate(415.27 754.77) scale(.1 -.1)">
<use xlink:href="#c"/>
<use x="63.623047" xlink:href="#e"/>
<use x="95.410156" xlink:href="#n"/>
<use x="159.033203" xlink:href="#aj"/>
</g>
</g>
<g clip-path="url(#a)">
<g transform="translate(458.76 754.77) scale(.1 -.1)">
<use xlink:href="#c"/>
<use x="63.623047" xlink:href="#e"/>
<use x="95.410156" xlink:href="#m"/>
<use x="159.033203" xlink:href="#ac"/>
</g>
</g>
<g clip-path="url(#a)">
<g transform="translate(502.26 754.77) scale(.1 -.1)">
<use xlink:href="#c"/>
<use x="63.623047" xlink:href="#e"/>
<use x="95.410156" xlink:href="#m"/>
<use x="159.033203" xlink:href="#c"/>
</g>
</g>
<g clip-path="url(#a)">
<g transform="translate(567.5 754.77) scale(.1 -.1)">
<use xlink:href="#c"/>
<use x="63.623047" xlink:href="#e"/>
<use x="95.410156" xlink:href="#m"/>
<use x="159.033203" xlink:href="#s"/>
</g>
</g>
<g clip-path="url(#a)">
<g transform="translate(654.48 642.11) scale(.1 -.1)">
<use xlink:href="#c"/>
<use x="63.623047" xlink:href="#e"/>
<use x="95.410156" xlink:href="#m"/>
<use x="159.033203" xlink:href="#n"/>
</g>
</g>
<g clip-path="url(#a)">
<g transform="translate(632.74 754.77) scale(.1 -.1)">
<use xlink:href="#c"/>
<use x="63.623047" xlink:href="#e"/>
<use x="95.410156" xlink:href="#m"/>
<use x="159.033203" xlink:href="#m"/>
</g>
</g>
<g clip-path="url(#a)">
<g transform="translate(676.23 754.77) scale(.1 -.1)">
<use xlink:href="#c"/>
<use x="63.623047" xlink:href="#e"/>
<use x="95.410156" xlink:href="#m"/>
<use x="159.033203" xlink:href="#o"/>
</g>
</g>
<g clip-path="url(#a)">
<g transform="translate(110.82 754.77) scale(.1 -.1)">
<use xlink:href="#c"/>
<use x="63.623047" xlink:href="#e"/>
<use x="95.410156" xlink:href="#m"/>
<use x="159.033203" xlink:href="#y"/>
</g>
</g>
<g clip-path="url(#a)">
<g transform="translate(284.79 754.77) scale(.1 -.1)">
<use xlink:href="#c"/>
<use x="63.623047" xlink:href="#e"/>
<use x="95.410156" xlink:href="#m"/>
<use x="159.033203" xlink:href="#aq"/>
</g>
</g>
<g clip-path="url(#a)">
<g transform="translate(719.72 754.77) scale(.1 -.1)">
<use xlink:href="#c"/>
<use x="63.623047" xlink:href="#e"/>
<use x="95.410156" xlink:href="#m"/>
<use x="159.033203" xlink:href="#ak"/>
</g>
</g>
<g clip-path="url(#a)">
<g transform="translate(806.71 754.77) scale(.1 -.1)">
<use xlink:href="#c"/>
<use x="63.623047" xlink:href="#e"/>
<use x="95.410156" xlink:href="#m"/>
<use x="159.033203" xlink:href="#aj"/>
</g>
</g>
<g clip-path="url(#a)">
<g transform="translate(893.69 754.77) scale(.1 -.1)">
<use xlink:href="#c"/>
<use x="63.623047" xlink:href="#e"/>
<use x="95.410156" xlink:href="#o"/>
<use x="159.033203" xlink:href="#ac"/>
</g>
</g>
<g clip-path="url(#a)">
<g transform="translate(1067.7 754.77) scale(.1 -.1)">
<use xlink:href="#c"/>
<use x="63.623047" xlink:href="#e"/>
<use x="95.410156" xlink:href="#o"/>
<use x="159.033203" xlink:href="#c"/>
</g>
</g>
<g clip-path="url(#a)">
<g transform="translate(1111.2 754.77) scale(.1 -.1)">
<use xlink:href="#c"/>
<use x="63.623047" xlink:href="#e"/>
<use x="95.410156" xlink:href="#o"/>
<use x="159.033203" xlink:href="#s"/>
</g>
</g>
<g clip-path="url(#a)">
<g transform="translate(1154.7 754.77) scale(.1 -.1)">
<use xlink:href="#c"/>
<use x="63.623047" xlink:href="#e"/>
<use x="95.410156" xlink:href="#o"/>
<use x="159.033203" xlink:href="#n"/>
</g>
</g>
<g clip-path="url(#a)">
<g transform="translate(1372.1 754.77) scale(.1 -.1)">
<use xlink:href="#c"/>
<use x="63.623047" xlink:href="#e"/>
<use x="95.410156" xlink:href="#o"/>
<use x="159.033203" xlink:href="#m"/>
</g>
</g>
<g clip-path="url(#a)">
<g transform="translate(1459.1 754.77) scale(.1 -.1)">
<use xlink:href="#c"/>
<use x="63.623047" xlink:href="#e"/>
<use x="95.410156" xlink:href="#o"/>
<use x="159.033203" xlink:href="#o"/>
</g>
</g>
<g clip-path="url(#a)">
<g transform="translate(1502.6 754.77) scale(.1 -.1)">
<use xlink:href="#c"/>
<use x="63.623047" xlink:href="#e"/>
<use x="95.410156" xlink:href="#o"/>
<use x="159.033203" xlink:href="#y"/>
</g>
</g>
<defs>
<clipPath id="a">
<rect width="1722.7" height="906.67"/>
</clipPath>
</defs>
</svg>
