<?xml version="1.0" encoding="UTF-8"?>
<!DOCTYPE svg  PUBLIC '-//W3C//DTD SVG 1.1//EN'  'http://www.w3.org/Graphics/SVG/1.1/DTD/svg11.dtd'>
<svg width="1368pt" height="720pt" version="1.1" viewBox="0 0 1368 720" xmlns="http://www.w3.org/2000/svg" xmlns:xlink="http://www.w3.org/1999/xlink">
<defs>
<style type="text/css">*{stroke-linecap:butt;stroke-linejoin:round;}</style>
</defs>
<path d="m0 720h1368v-720h-1368z" fill="#fff"/>
<g fill="none" stroke="#000">
<path d="m309.67 32.727 216.21 110.08" clip-path="url(#a)"/>
<path d="m309.67 32.727-121.28 329.53" clip-path="url(#a)"/>
<path d="m309.67 32.727 34.947 329.53" clip-path="url(#a)"/>
<path d="m309.67 32.727-192.08 547.39" clip-path="url(#a)"/>
<path d="m309.67 32.727-53.554 547.39" clip-path="url(#a)"/>
<path d="m309.67 32.727 115.75 547.39" clip-path="url(#a)"/>
<path d="m525.88 142.81-452.41 328.66" clip-path="url(#a)"/>
<path d="m525.88 142.81-25.04 328.66" clip-path="url(#a)"/>
<path d="m525.88 142.81 85.779 437.31" clip-path="url(#a)"/>
<path d="m525.88 142.81 391.67 109.86" clip-path="url(#a)"/>
<path d="m188.39 362.26-36.94 109.21" clip-path="url(#a)"/>
<path d="m188.39 362.26 3.0783 217.86" clip-path="url(#a)"/>
<path d="m188.39 362.26 33.861 217.86" clip-path="url(#a)"/>
<path d="m344.62 362.26 34.631 109.21" clip-path="url(#a)"/>
<path d="m344.62 362.26-31.553 109.21" clip-path="url(#a)"/>
<path d="m344.62 362.26 31.553 217.86" clip-path="url(#a)"/>
<path d="m313.06 471.47-20.009 108.64" clip-path="url(#a)"/>
<path d="m313.06 471.47 20.009 108.64" clip-path="url(#a)"/>
<path d="m376.17 580.12v107.15" clip-path="url(#a)"/>
<path d="m293.05 580.12v107.15" clip-path="url(#a)"/>
<path d="m333.07 580.12v107.15" clip-path="url(#a)"/>
<path d="m151.45 471.47-12.313 108.64" clip-path="url(#a)"/>
<path d="m151.45 471.47 12.313 108.64" clip-path="url(#a)"/>
<path d="m191.47 580.12v107.15" clip-path="url(#a)"/>
<path d="m222.25 580.12v107.15" clip-path="url(#a)"/>
<path d="m139.14 580.12v107.15" clip-path="url(#a)"/>
<path d="m163.77 580.12v107.15" clip-path="url(#a)"/>
<path d="m73.469 471.47-11.287 108.64" clip-path="url(#a)"/>
<path d="m73.469 471.47 11.287 108.64" clip-path="url(#a)"/>
<path d="m500.84 471.47-26.166 108.64" clip-path="url(#a)"/>
<path d="m500.84 471.47 26.166 108.64" clip-path="url(#a)"/>
<path d="m611.66 580.12-29.244 107.15" clip-path="url(#a)"/>
<path d="m611.66 580.12 29.244 107.15" clip-path="url(#a)"/>
<path d="m917.55 252.67-137.61 109.59" clip-path="url(#a)"/>
<path d="m917.55 252.67 61.965 327.44" clip-path="url(#a)"/>
<path d="m917.55 252.67 75.647 109.59" clip-path="url(#a)"/>
<path d="m779.94 362.26-77.471 217.86" clip-path="url(#a)"/>
<path d="m779.94 362.26-12.826 217.86" clip-path="url(#a)"/>
<path d="m779.94 362.26 90.297 109.21" clip-path="url(#a)"/>
<path d="m979.52 580.12v107.15" clip-path="url(#a)"/>
<path d="m993.2 362.26 63.276 217.86" clip-path="url(#a)"/>
<path d="m993.2 362.26 227.45 109.21" clip-path="url(#a)"/>
<path d="m993.2 362.26-290.73 217.86" clip-path="url(#a)" stroke-dasharray="3.7,1.6"/>
<path d="m1056.5 580.12v107.15" clip-path="url(#a)"/>
<path d="m1220.7 471.47-84.14 108.64" clip-path="url(#a)"/>
<path d="m1220.7 471.47-1.0261 108.64" clip-path="url(#a)"/>
<path d="m1220.7 471.47 85.167 108.64" clip-path="url(#a)"/>
<path d="m1136.5 580.12v107.15" clip-path="url(#a)"/>
<path d="m1219.6 580.12v107.15" clip-path="url(#a)"/>
<path d="m702.47 580.12v107.15" clip-path="url(#a)"/>
<path d="m767.11 580.12v107.15" clip-path="url(#a)"/>
<path d="m870.24 471.47-35.401 108.64" clip-path="url(#a)"/>
<path d="m870.24 471.47 35.401 108.64" clip-path="url(#a)"/>
<path d="m834.84 580.12v107.15" clip-path="url(#a)"/>
<path d="m905.64 580.12v107.15" clip-path="url(#a)"/>
<path d="m474.68 580.12v107.15" clip-path="url(#a)"/>
<path d="m527.01 580.12v107.15" clip-path="url(#a)"/>
<path d="m62.182 580.12v107.15" clip-path="url(#a)"/>
<path d="m84.756 580.12-13.339 107.15" clip-path="url(#a)"/>
<path d="m84.756 580.12-1.0261 107.15" clip-path="url(#a)"/>
<path d="m84.756 580.12 14.365 107.15" clip-path="url(#a)"/>
<path d="m117.59 580.12v107.15" clip-path="url(#a)"/>
<path d="m256.12 580.12v107.15" clip-path="url(#a)"/>
<path d="m425.42 580.12v107.15" clip-path="url(#a)"/>
<path d="m1305.8 580.12v107.15" clip-path="url(#a)"/>
</g>
<path d="m412.25 91.993 5.3613 2.7297q2.1387 1.0889 3.2277-1.0498l3.513-6.8997q1.0889-2.1387-1.0498-3.2277l-5.3613-2.7297q-2.1387-1.0889-3.2277 1.0498l-3.513 6.8997q-1.0889 2.1387 1.0498 3.2277z" clip-path="url(#a)" fill="#fff" stroke="#fff"/>
<g clip-path="url(#a)">
<defs>
<path id="ae" d="m9.8125 72.906h9.8594v-29.891h35.844v29.891h9.8594v-72.906h-9.8594v34.719h-35.844v-34.719h-9.8594z"/>
</defs>
<g transform="translate(414.09 88.372) rotate(26.983) scale(.08 -.08)">
<use xlink:href="#ae"/>
</g>
</g>
<path d="m253.88 202.48 2.0779-5.646q0.82891-2.2523-1.4234-3.0812l-7.266-2.6741q-2.2523-0.82891-3.0812 1.4234l-2.0779 5.646q-0.82891 2.2523 1.4234 3.0812l7.266 2.6741q2.2523 0.82891 3.0812-1.4234z" clip-path="url(#a)" fill="#fff" stroke="#fff"/>
<g clip-path="url(#a)">
<g transform="translate(250.06 201.08) rotate(-69.795) scale(.08 -.08)">
<use xlink:href="#ae"/>
</g>
</g>
<path d="m320.59 195.16 0.63446 5.9827q0.2531 2.3866 2.6397 2.1335l7.6993-0.81651q2.3866-0.2531 2.1335-2.6397l-0.63446-5.9827q-0.2531-2.3866-2.6397-2.1335l-7.6993 0.81651q-2.3866 0.2531-2.1335 2.6397z" clip-path="url(#a)" fill="#fff" stroke="#fff"/>
<g clip-path="url(#a)">
<g transform="translate(324.63 194.74) rotate(83.946) scale(.08 -.08)">
<use xlink:href="#ae"/>
</g>
</g>
<path d="m218.58 311.26 1.9386-5.5247q0.79465-2.2646-1.47-3.0593l-7.3058-2.5636q-2.2646-0.79465-3.0593 1.47l-1.9386 5.5247q-0.79465 2.2646 1.47 3.0593l7.3058 2.5636q2.2646 0.79465 3.0593-1.47z" clip-path="url(#a)" fill="#fff" stroke="#fff"/>
<g clip-path="url(#a)">
<defs>
<path id="v" d="m8.6875 72.906h9.9219v-44.297q0-11.719 4.2344-16.875 4.25-5.1406 13.781-5.1406 9.4688 0 13.719 5.1406 4.25 5.1562 4.25 16.875v44.297h9.9062v-45.516q0-14.25-7.0625-21.531-7.0469-7.2812-20.812-7.2812-13.828 0-20.891 7.2812-7.0469 7.2812-7.0469 21.531z"/>
</defs>
<g transform="translate(214.74 309.92) rotate(-70.664) scale(.08 -.08)">
<use xlink:href="#v"/>
</g>
</g>
<path d="m288.85 309.95 0.57011-5.8272q0.23369-2.3886-2.1549-2.6223l-7.7057-0.75389q-2.3886-0.23369-2.6223 2.1549l-0.57011 5.8272q-0.23369 2.3886 2.1549 2.6223l7.7057 0.75389q2.3886 0.23369 2.6223-2.1549z" clip-path="url(#a)" fill="#fff" stroke="#fff"/>
<g clip-path="url(#a)">
<g transform="translate(284.8 309.55) rotate(-84.412) scale(.08 -.08)">
<use xlink:href="#v"/>
</g>
</g>
<path d="m360.8 304.86 1.2113 5.7283q0.49653 2.3481 2.8446 1.8515l7.575-1.6018q2.3481-0.49653 1.8515-2.8446l-1.2113-5.7283q-0.49653-2.3481-2.8446-1.8515l-7.575 1.6018q-2.3481 0.49653-1.8515 2.8446z" clip-path="url(#a)" fill="#fff" stroke="#fff"/>
<g clip-path="url(#a)">
<g transform="translate(364.78 304.02) rotate(78.06) scale(.08 -.08)">
<use xlink:href="#v"/>
</g>
</g>
<path d="m301.38 313.65 3.9532-2.8719q1.9417-1.4106 0.53112-3.3523l-4.5506-6.264q-1.4106-1.9417-3.3523-0.53112l-3.9532 2.8719q-1.9417 1.4106-0.53112 3.3523l4.5506 6.264q1.4106 1.9417 3.3523 0.53112z" clip-path="url(#a)" fill="#fff" stroke="#fff"/>
<g clip-path="url(#a)">
<defs>
<path id="k" d="m-0.29688 72.906h61.672v-8.3125h-25.875v-64.594h-9.9062v64.594h-25.891z"/>
</defs>
<g transform="translate(299 310.37) rotate(-35.997) scale(.08 -.08)">
<use xlink:href="#k"/>
</g>
</g>
<path d="m519.41 310.35 0.41573-5.4567q0.18232-2.3931-2.2107-2.5754l-7.7201-0.58817q-2.3931-0.18232-2.5754 2.2107l-0.41573 5.4567q-0.18232 2.3931 2.2107 2.5754l7.7201 0.58817q2.3931 0.18232 2.5754-2.2107z" clip-path="url(#a)" fill="#fff" stroke="#fff"/>
<g clip-path="url(#a)">
<defs>
<path id="s" d="m34.188 63.188-13.391-36.281h26.812zm-5.5781 9.7188h11.188l27.781-72.906h-10.25l-6.6406 18.703h-32.859l-6.6406-18.703h-10.406z"/>
</defs>
<g transform="translate(515.35 310.04) rotate(-85.643) scale(.08 -.08)">
<use xlink:href="#s"/>
</g>
</g>
<path d="m562.15 360.31 0.9285 4.7335q0.46196 2.3551 2.8171 1.8932l7.5977-1.4903q2.3551-0.46196 1.8932-2.8171l-0.9285-4.7335q-0.46196-2.3551-2.8171-1.8932l-7.5977 1.4903q-2.3551 0.46196-1.8932 2.8171z" clip-path="url(#a)" fill="#fff" stroke="#fff"/>
<g clip-path="url(#a)">
<defs>
<path id="ac" d="m19.672 64.797v-27.391h12.406q6.8906 0 10.641 3.5625 3.7656 3.5625 3.7656 10.156 0 6.5469-3.7656 10.109-3.75 3.5625-10.641 3.5625zm-9.8594 8.1094h22.266q12.266 0 18.531-5.5469 6.2812-5.5469 6.2812-16.234 0-10.797-6.2812-16.312-6.2656-5.5156-18.531-5.5156h-12.406v-29.297h-9.8594z"/>
</defs>
<g transform="translate(566.14 359.52) rotate(78.902) scale(.08 -.08)">
<use xlink:href="#ac"/>
</g>
</g>
<path d="m717.39 203.04 5.2691 1.478q2.3108 0.64818 2.959-1.6626l2.091-7.4548q0.64818-2.3108-1.6626-2.959l-5.2691-1.478q-2.3108-0.64818-2.959 1.6626l-2.091 7.4548q-0.64818 2.3108 1.6626 2.959z" clip-path="url(#a)" fill="#fff" stroke="#fff"/>
<g clip-path="url(#a)">
<g transform="translate(718.49 199.13) rotate(15.669) scale(.08 -.08)">
<use xlink:href="#s"/>
</g>
</g>
<path d="m174.99 421.47 1.7534-5.184q0.76896-2.2735-1.5045-3.0424l-7.3343-2.4807q-2.2735-0.76896-3.0424 1.5045l-1.7534 5.184q-0.76896 2.2735 1.5045 3.0424l7.3343 2.4807q2.2735 0.76896 3.0424-1.5045z" clip-path="url(#a)" fill="#fff" stroke="#fff"/>
<g clip-path="url(#a)">
<g transform="translate(171.14 420.17) rotate(-71.313) scale(.08 -.08)">
<use xlink:href="#s"/>
</g>
</g>
<path d="m183.63 468.98 0.065008 4.6008q0.033909 2.3998 2.4337 2.3659l7.7417-0.10939q2.3998-0.033908 2.3659-2.4337l-0.065008-4.6008q-0.033908-2.3998-2.4337-2.3659l-7.7417 0.10939q-2.3998 0.033908-2.3659 2.4337z" clip-path="url(#a)" fill="#fff" stroke="#fff"/>
<g clip-path="url(#a)">
<defs>
<path id="as" d="m9.8125 72.906h41.891v-8.3125h-32.031v-21.484h28.906v-8.2969h-28.906v-34.812h-9.8594z"/>
</defs>
<g transform="translate(187.69 468.92) rotate(89.19) scale(.08 -.08)">
<use xlink:href="#as"/>
</g>
</g>
<path d="m198.74 469.64 0.78002 5.0185q0.3686 2.3715 2.7401 2.0029l7.6506-1.1891q2.3715-0.3686 2.0029-2.7401l-0.78002-5.0185q-0.3686-2.3715-2.7401-2.0029l-7.6506 1.1891q-2.3715 0.3686-2.0029 2.7401z" clip-path="url(#a)" fill="#fff" stroke="#fff"/>
<g clip-path="url(#a)">
<defs>
<path id="aj" d="m53.516 70.516v-9.625q-5.6094 2.6875-10.594 4-4.9844 1.3281-9.625 1.3281-8.0469 0-12.422-3.125t-4.375-8.8906q0-4.8438 2.9062-7.3125 2.9062-2.4531 11.016-3.9688l5.9531-1.2188q11.031-2.1094 16.281-7.4062t5.25-14.172q0-10.609-7.1094-16.078-7.0938-5.4688-20.812-5.4688-5.1719 0-11.016 1.1719-5.8281 1.1719-12.078 3.4688v10.156q6-3.3594 11.766-5.0781 5.7656-1.7031 11.328-1.7031 8.4375 0 13.031 3.3125 4.5938 3.3281 4.5938 9.4844 0 5.3594-3.2969 8.3906t-10.812 4.5469l-6.0156 1.1719q-11.031 2.1875-15.969 6.875-4.9219 4.6875-4.9219 13.047 0 9.6719 6.8125 15.234t18.766 5.5625q5.1406 0 10.453-0.9375 5.3281-0.92188 10.891-2.7656z"/>
</defs>
<g transform="translate(202.75 469.02) rotate(81.165) scale(.08 -.08)">
<use xlink:href="#aj"/>
</g>
</g>
<path d="m355.13 416.15 1.6541 5.2165q0.72542 2.2877 3.0132 1.5623l7.3803-2.3403q2.2877-0.72542 1.5623-3.0132l-1.6541-5.2165q-0.72543-2.2877-3.0132-1.5623l-7.3803 2.3403q-2.2877 0.72542-1.5623 3.0132z" clip-path="url(#a)" fill="#fff" stroke="#fff"/>
<g clip-path="url(#a)">
<g transform="translate(359 414.93) rotate(72.407) scale(.08 -.08)">
<use xlink:href="#s"/>
</g>
</g>
<path d="m334.11 421.24 1.5189-5.2575q0.66613-2.3057-1.6396-2.9718l-7.4383-2.149q-2.3057-0.66613-2.9718 1.6396l-1.5189 5.2575q-0.66613 2.3057 1.6396 2.9718l7.4383 2.149q2.3057 0.66613 2.9718-1.6396z" clip-path="url(#a)" fill="#fff" stroke="#fff"/>
<g clip-path="url(#a)">
<g transform="translate(330.2 420.11) rotate(-73.886) scale(.08 -.08)">
<use xlink:href="#s"/>
</g>
</g>
<path d="m353.84 469.7 0.69142 4.7739q0.344 2.3752 2.7192 2.0312l7.6626-1.1098q2.3752-0.34401 2.0312-2.7192l-0.69142-4.7739q-0.344-2.3752-2.7192-2.0312l-7.6626 1.1098q-2.3752 0.344-2.0312 2.7192z" clip-path="url(#a)" fill="#fff" stroke="#fff"/>
<g clip-path="url(#a)">
<g transform="translate(357.86 469.12) rotate(81.759) scale(.08 -.08)">
<use xlink:href="#ac"/>
</g>
</g>
<path d="m308.77 529.42 0.91558-4.9714q0.4347-2.3603-1.9256-2.795l-7.6144-1.4024q-2.3603-0.4347-2.795 1.9256l-0.91558 4.9714q-0.4347 2.3603 1.9256 2.795l7.6144 1.4024q2.3603 0.4347 2.795-1.9256z" clip-path="url(#a)" fill="#fff" stroke="#fff"/>
<g clip-path="url(#a)">
<defs>
<path id="r" d="m9.8125 72.906h46.094v-8.3125h-36.234v-21.578h34.719v-8.2969h-34.719v-26.422h37.109v-8.2969h-46.969z"/>
</defs>
<g transform="translate(304.77 528.68) rotate(-79.565) scale(.08 -.08)">
<use xlink:href="#r"/>
</g>
</g>
<path d="m316.39 524.19 1.0118 5.4939q0.4347 2.3603 2.795 1.9256l7.6144-1.4024q2.3603-0.4347 1.9256-2.795l-1.0118-5.4939q-0.4347-2.3603-2.795-1.9256l-7.6144 1.4024q-2.3603 0.4347-1.9256 2.795z" clip-path="url(#a)" fill="#fff" stroke="#fff"/>
<g clip-path="url(#a)">
<defs>
<path id="o" d="m64.406 67.281v-10.391q-4.9844 4.6406-10.625 6.9219-5.6406 2.2969-11.984 2.2969-12.5 0-19.141-7.6406t-6.6406-22.094q0-14.406 6.6406-22.047t19.141-7.6406q6.3438 0 11.984 2.2969t10.625 6.9375v-10.312q-5.1719-3.5156-10.969-5.2812-5.7812-1.75-12.219-1.75-16.562 0-26.094 10.125-9.5156 10.141-9.5156 27.672 0 17.578 9.5156 27.703 9.5312 10.141 26.094 10.141 6.5312 0 12.312-1.7344 5.7969-1.7344 10.875-5.2031z"/>
</defs>
<g transform="translate(320.39 523.45) rotate(79.565) scale(.08 -.08)">
<use xlink:href="#o"/>
</g>
</g>
<path d="m369.9 616.79v33.808q0 2.4 2.4 2.4h7.7425q2.4 0 2.4-2.4v-33.808q0-2.4-2.4-2.4h-7.7425q-2.4 0-2.4 2.4z" clip-path="url(#a)" fill="#fff" stroke="#fff"/>
<g clip-path="url(#a)">
<defs>
<path id="d" d="m56.203 29.594v-4.3906h-41.312q0.59375-9.2812 5.5938-14.141t13.938-4.8594q5.1719 0 10.031 1.2656t9.6562 3.8125v-8.5q-4.8438-2.0469-9.9219-3.125t-10.297-1.0781q-13.094 0-20.734 7.6094-7.6406 7.625-7.6406 20.625 0 13.422 7.25 21.297 7.25 7.8906 19.562 7.8906 11.031 0 17.453-7.1094 6.4219-7.0938 6.4219-19.297zm-8.9844 2.6406q-0.09375 7.3594-4.125 11.75-4.0312 4.4062-10.672 4.4062-7.5156 0-12.031-4.25t-5.2031-11.969z"/>
<path id="i" d="m41.109 46.297q-1.5156 0.875-3.2969 1.2812-1.7812 0.42188-3.9219 0.42188-7.625 0-11.703-4.9531t-4.0781-14.234v-28.812h-9.0312v54.688h9.0312v-8.5q2.8438 4.9844 7.375 7.3906 4.5469 2.4219 11.047 2.4219 0.92188 0 2.0469-0.125 1.125-0.10938 2.4844-0.35938z"/>
<path id="l" d="m52 44.188q3.375 6.0625 8.0625 8.9375t11.031 2.875q8.5469 0 13.188-5.9844 4.6406-5.9688 4.6406-17v-33.016h-9.0312v32.719q0 7.8594-2.7969 11.656-2.7812 3.8125-8.4844 3.8125-6.9844 0-11.047-4.6406-4.0469-4.625-4.0469-12.641v-30.906h-9.0312v32.719q0 7.9062-2.7812 11.688t-8.5938 3.7812q-6.8906 0-10.953-4.6562-4.0469-4.6562-4.0469-12.625v-30.906h-9.0312v54.688h9.0312v-8.5q3.0781 5.0312 7.375 7.4219t10.203 2.3906q5.9688 0 10.141-3.0312 4.1719-3.0156 6.1719-8.7812z"/>
<path id="h" d="m9.4219 54.688h8.9844v-54.688h-8.9844zm0 21.297h8.9844v-11.391h-8.9844z"/>
<path id="j" d="m54.891 33.016v-33.016h-8.9844v32.719q0 7.7656-3.0312 11.609-3.0312 3.8594-9.0781 3.8594-7.2812 0-11.484-4.6406-4.2031-4.625-4.2031-12.641v-30.906h-9.0312v54.688h9.0312v-8.5q3.2344 4.9375 7.5938 7.375 4.375 2.4375 10.094 2.4375 9.4219 0 14.25-5.8281 4.8438-5.8281 4.8438-17.156z"/>
<path id="f" d="m34.281 27.484q-10.891 0-15.094-2.4844t-4.2031-8.5q0-4.7812 3.1562-7.5938 3.1562-2.7969 8.5625-2.7969 7.4844 0 12 5.2969t4.5156 14.078v2zm17.922 3.7188v-31.203h-8.9844v8.2969q-3.0781-4.9688-7.6719-7.3438t-11.234-2.375q-8.3906 0-13.359 4.7188-4.9531 4.7188-4.9531 12.625 0 9.2188 6.1719 13.906 6.1875 4.6875 18.438 4.6875h12.609v0.89062q0 6.2031-4.0781 9.5938t-11.453 3.3906q-4.6875 0-9.1406-1.125-4.4375-1.125-8.5312-3.375v8.3125q4.9219 1.9062 9.5625 2.8438 4.6406 0.95312 9.0312 0.95312 11.875 0 17.734-6.1562 5.8594-6.1406 5.8594-18.641z"/>
<path id="g" d="m9.4219 75.984h8.9844v-75.984h-8.9844z"/>
</defs>
<g transform="translate(373.96 616.79) rotate(90) scale(.08 -.08)">
<use xlink:href="#k"/>
<use x="44.083984" xlink:href="#d"/>
<use x="105.607422" xlink:href="#i"/>
<use x="144.970703" xlink:href="#l"/>
<use x="242.382812" xlink:href="#h"/>
<use x="270.166016" xlink:href="#j"/>
<use x="333.544922" xlink:href="#f"/>
<use x="394.824219" xlink:href="#g"/>
</g>
</g>
<path d="m286.78 616.79v33.808q0 2.4 2.4 2.4h7.7425q2.4 0 2.4-2.4v-33.808q0-2.4-2.4-2.4h-7.7425q-2.4 0-2.4 2.4z" clip-path="url(#a)" fill="#fff" stroke="#fff"/>
<g clip-path="url(#a)">
<g transform="translate(290.85 616.79) rotate(90) scale(.08 -.08)">
<use xlink:href="#k"/>
<use x="44.083984" xlink:href="#d"/>
<use x="105.607422" xlink:href="#i"/>
<use x="144.970703" xlink:href="#l"/>
<use x="242.382812" xlink:href="#h"/>
<use x="270.166016" xlink:href="#j"/>
<use x="333.544922" xlink:href="#f"/>
<use x="394.824219" xlink:href="#g"/>
</g>
</g>
<path d="m326.8 616.79v33.808q0 2.4 2.4 2.4h7.7425q2.4 0 2.4-2.4v-33.808q0-2.4-2.4-2.4h-7.7425q-2.4 0-2.4 2.4z" clip-path="url(#a)" fill="#fff" stroke="#fff"/>
<g clip-path="url(#a)">
<g transform="translate(330.87 616.79) rotate(90) scale(.08 -.08)">
<use xlink:href="#k"/>
<use x="44.083984" xlink:href="#d"/>
<use x="105.607422" xlink:href="#i"/>
<use x="144.970703" xlink:href="#l"/>
<use x="242.382812" xlink:href="#h"/>
<use x="270.166016" xlink:href="#j"/>
<use x="333.544922" xlink:href="#f"/>
<use x="394.824219" xlink:href="#g"/>
</g>
</g>
<path d="m151.24 529.01 0.56926-5.0228q0.27028-2.3847-2.1145-2.655l-7.6932-0.87192q-2.3847-0.27027-2.655 2.1145l-0.56926 5.0228q-0.27028 2.3847 2.1145 2.655l7.6932 0.87192q2.3847 0.27028 2.655-2.1145z" clip-path="url(#a)" fill="#fff" stroke="#fff"/>
<g clip-path="url(#a)">
<g transform="translate(147.2 528.56) rotate(-83.534) scale(.08 -.08)">
<use xlink:href="#r"/>
</g>
</g>
<path d="m151.06 523.73 0.62909 5.5507q0.27027 2.3847 2.655 2.1145l7.6932-0.87192q2.3847-0.27027 2.1145-2.655l-0.62909-5.5507q-0.27027-2.3847-2.655-2.1145l-7.6932 0.87192q-2.3847 0.27027-2.1145 2.655z" clip-path="url(#a)" fill="#fff" stroke="#fff"/>
<g clip-path="url(#a)">
<g transform="translate(155.1 523.27) rotate(83.534) scale(.08 -.08)">
<use xlink:href="#o"/>
</g>
</g>
<path d="m185.2 616.79v33.808q0 2.4 2.4 2.4h7.7425q2.4 0 2.4-2.4v-33.808q0-2.4-2.4-2.4h-7.7425q-2.4 0-2.4 2.4z" clip-path="url(#a)" fill="#fff" stroke="#fff"/>
<g clip-path="url(#a)">
<g transform="translate(189.26 616.79) rotate(90) scale(.08 -.08)">
<use xlink:href="#k"/>
<use x="44.083984" xlink:href="#d"/>
<use x="105.607422" xlink:href="#i"/>
<use x="144.970703" xlink:href="#l"/>
<use x="242.382812" xlink:href="#h"/>
<use x="270.166016" xlink:href="#j"/>
<use x="333.544922" xlink:href="#f"/>
<use x="394.824219" xlink:href="#g"/>
</g>
</g>
<path d="m215.98 616.79v33.808q0 2.4 2.4 2.4h7.7425q2.4 0 2.4-2.4v-33.808q0-2.4-2.4-2.4h-7.7425q-2.4 0-2.4 2.4z" clip-path="url(#a)" fill="#fff" stroke="#fff"/>
<g clip-path="url(#a)">
<g transform="translate(220.05 616.79) rotate(90) scale(.08 -.08)">
<use xlink:href="#k"/>
<use x="44.083984" xlink:href="#d"/>
<use x="105.607422" xlink:href="#i"/>
<use x="144.970703" xlink:href="#l"/>
<use x="242.382812" xlink:href="#h"/>
<use x="270.166016" xlink:href="#j"/>
<use x="333.544922" xlink:href="#f"/>
<use x="394.824219" xlink:href="#g"/>
</g>
</g>
<path d="m132.87 616.79v33.808q0 2.4 2.4 2.4h7.7425q2.4 0 2.4-2.4v-33.808q0-2.4-2.4-2.4h-7.7425q-2.4 0-2.4 2.4z" clip-path="url(#a)" fill="#fff" stroke="#fff"/>
<g clip-path="url(#a)">
<g transform="translate(136.93 616.79) rotate(90) scale(.08 -.08)">
<use xlink:href="#k"/>
<use x="44.083984" xlink:href="#d"/>
<use x="105.607422" xlink:href="#i"/>
<use x="144.970703" xlink:href="#l"/>
<use x="242.382812" xlink:href="#h"/>
<use x="270.166016" xlink:href="#j"/>
<use x="333.544922" xlink:href="#f"/>
<use x="394.824219" xlink:href="#g"/>
</g>
</g>
<path d="m157.49 616.79v33.808q0 2.4 2.4 2.4h7.7425q2.4 0 2.4-2.4v-33.808q0-2.4-2.4-2.4h-7.7425q-2.4 0-2.4 2.4z" clip-path="url(#a)" fill="#fff" stroke="#fff"/>
<g clip-path="url(#a)">
<g transform="translate(161.56 616.79) rotate(90) scale(.08 -.08)">
<use xlink:href="#k"/>
<use x="44.083984" xlink:href="#d"/>
<use x="105.607422" xlink:href="#i"/>
<use x="144.970703" xlink:href="#l"/>
<use x="242.382812" xlink:href="#h"/>
<use x="270.166016" xlink:href="#j"/>
<use x="333.544922" xlink:href="#f"/>
<use x="394.824219" xlink:href="#g"/>
</g>
</g>
<path d="m73.802 528.96 0.52236-5.0279q0.248-2.3872-2.1391-2.6352l-7.7011-0.80007q-2.3872-0.248-2.6352 2.1391l-0.52236 5.0279q-0.248 2.3872 2.1391 2.6352l7.7011 0.80007q2.3872 0.248 2.6352-2.1391z" clip-path="url(#a)" fill="#fff" stroke="#fff"/>
<g clip-path="url(#a)">
<g transform="translate(69.76 528.54) rotate(-84.069) scale(.08 -.08)">
<use xlink:href="#r"/>
</g>
</g>
<path d="m72.586 523.67 0.57725 5.5563q0.248 2.3872 2.6352 2.1391l7.7011-0.80007q2.3872-0.248 2.1391-2.6352l-0.57725-5.5563q-0.248-2.3872-2.6352-2.1391l-7.7011 0.80007q-2.3872 0.248-2.1391 2.6352z" clip-path="url(#a)" fill="#fff" stroke="#fff"/>
<g clip-path="url(#a)">
<g transform="translate(76.628 523.25) rotate(84.069) scale(.08 -.08)">
<use xlink:href="#o"/>
</g>
</g>
<path d="m493.26 529.72 1.1836-4.9145q0.56194-2.3333-1.7713-2.8952l-7.5273-1.8128q-2.3333-0.56194-2.8952 1.7713l-1.1836 4.9145q-0.56194 2.3333 1.7713 2.8952l7.5273 1.8128q2.3333 0.56194 2.8952-1.7713z" clip-path="url(#a)" fill="#fff" stroke="#fff"/>
<g clip-path="url(#a)">
<g transform="translate(489.31 528.77) rotate(-76.459) scale(.08 -.08)">
<use xlink:href="#r"/>
</g>
</g>
<path d="m507.17 524.55 1.308 5.431q0.56194 2.3333 2.8952 1.7713l7.5273-1.8128q2.3333-0.56194 1.7713-2.8952l-1.308-5.431q-0.56194-2.3333-2.8952-1.7713l-7.5273 1.8128q-2.3333 0.56194-1.7713 2.8952z" clip-path="url(#a)" fill="#fff" stroke="#fff"/>
<g clip-path="url(#a)">
<g transform="translate(511.12 523.6) rotate(76.459) scale(.08 -.08)">
<use xlink:href="#o"/>
</g>
</g>
<path d="m598.64 651.65 8.9011-32.615q0.63189-2.3153-1.6834-2.9472l-7.4693-2.0385q-2.3153-0.63189-2.9472 1.6834l-8.9011 32.615q-0.63189 2.3153 1.6834 2.9472l7.4693 2.0385q2.3153 0.63189 2.9472-1.6834z" clip-path="url(#a)" fill="#fff" stroke="#fff"/>
<g clip-path="url(#a)">
<g transform="translate(594.72 650.58) rotate(-74.735) scale(.08 -.08)">
<use xlink:href="#k"/>
<use x="44.083984" xlink:href="#d"/>
<use x="105.607422" xlink:href="#i"/>
<use x="144.970703" xlink:href="#l"/>
<use x="242.382812" xlink:href="#h"/>
<use x="270.166016" xlink:href="#j"/>
<use x="333.544922" xlink:href="#f"/>
<use x="394.824219" xlink:href="#g"/>
</g>
</g>
<path d="m615.78 619.04 8.9011 32.615q0.63189 2.3153 2.9472 1.6834l7.4693-2.0385q2.3153-0.63189 1.6834-2.9472l-8.9011-32.615q-0.63189-2.3153-2.9472-1.6834l-7.4693 2.0385q-2.3153 0.63189-1.6834 2.9472z" clip-path="url(#a)" fill="#fff" stroke="#fff"/>
<g clip-path="url(#a)">
<g transform="translate(619.7 617.97) rotate(74.735) scale(.08 -.08)">
<use xlink:href="#k"/>
<use x="44.083984" xlink:href="#d"/>
<use x="105.607422" xlink:href="#i"/>
<use x="144.970703" xlink:href="#l"/>
<use x="242.382812" xlink:href="#h"/>
<use x="270.166016" xlink:href="#j"/>
<use x="333.544922" xlink:href="#f"/>
<use x="394.824219" xlink:href="#g"/>
</g>
</g>
<path d="m850.47 314.11 4.3699-3.4799q1.8774-1.4951 0.38236-3.3725l-4.8232-6.0567q-1.4951-1.8774-3.3725-0.38236l-4.3699 3.4799q-1.8774 1.4951-0.38236 3.3725l4.8232 6.0567q1.4951 1.8774 3.3725 0.38236z" clip-path="url(#a)" fill="#fff" stroke="#fff"/>
<g clip-path="url(#a)">
<g transform="translate(847.94 310.93) rotate(-38.532) scale(.08 -.08)">
<use xlink:href="#o"/>
</g>
</g>
<path d="m941.82 414.62 1.1128 5.8806q0.44625 2.3581 2.8044 1.9119l7.6075-1.4396q2.3581-0.44625 1.9119-2.8044l-1.1128-5.8806q-0.44625-2.3581-2.8044-1.9119l-7.6075 1.4396q-2.3581 0.44625-1.9119 2.8044z" clip-path="url(#a)" fill="#fff" stroke="#fff"/>
<g clip-path="url(#a)">
<defs>
<path id="aq" d="m9.8125 72.906h13.281l32.328-60.984v60.984h9.5625v-72.906h-13.281l-32.312 60.984v-60.984h-9.5781z"/>
</defs>
<g transform="translate(945.81 413.87) rotate(79.284) scale(.08 -.08)">
<use xlink:href="#aq"/>
</g>
</g>
<path d="m948.63 308.73 3.1735 4.5973q1.3634 1.9751 3.3385 0.6117l6.3718-4.3984q1.9751-1.3634 0.6117-3.3385l-3.1735-4.5973q-1.3634-1.9751-3.3385-0.6117l-6.3718 4.3984q-1.9751 1.3634-0.6117 3.3385z" clip-path="url(#a)" fill="#fff" stroke="#fff"/>
<g clip-path="url(#a)">
<g transform="translate(951.97 306.42) rotate(55.383) scale(.08 -.08)">
<use xlink:href="#o"/>
</g>
</g>
<path d="m746.18 475.91 1.8624-5.2375q0.80412-2.2613-1.4572-3.0654l-7.295-2.5941q-2.2613-0.80412-3.0654 1.4572l-1.8624 5.2375q-0.80412 2.2613 1.4572 3.0654l7.295 2.5941q2.2613 0.80412 3.0654-1.4572z" clip-path="url(#a)" fill="#fff" stroke="#fff"/>
<g clip-path="url(#a)">
<defs>
<path id="w" d="m44.391 34.188q3.1719-1.0781 6.1719-4.5938t6.0312-9.6719l10.016-19.922h-10.609l-9.3125 18.703q-3.625 7.3281-7.0156 9.7188t-9.25 2.3906h-10.75v-30.812h-9.8594v72.906h22.266q12.5 0 18.656-5.2344 6.1562-5.2188 6.1562-15.766 0-6.8906-3.2031-11.438-3.2031-4.5312-9.2969-6.2812zm-24.719 30.609v-25.875h12.406q7.125 0 10.766 3.2969t3.6406 9.6875-3.6406 9.6406-10.766 3.25z"/>
</defs>
<g transform="translate(742.35 474.55) rotate(-70.425) scale(.08 -.08)">
<use xlink:href="#w"/>
</g>
</g>
<path d="m779.62 474.35 0.32832-5.5766q0.14105-2.3959-2.2548-2.5369l-7.7291-0.45505q-2.3959-0.14105-2.5369 2.2548l-0.32832 5.5766q-0.14105 2.3959 2.2548 2.5369l7.7291 0.45505q2.3959 0.14106 2.5369-2.2548z" clip-path="url(#a)" fill="#fff" stroke="#fff"/>
<g clip-path="url(#a)">
<g transform="translate(775.57 474.11) rotate(-86.631) scale(.08 -.08)">
<use xlink:href="#o"/>
</g>
</g>
<path d="m818.65 418.92 3.2211 3.8959q1.5293 1.8497 3.379 0.32038l5.9671-4.9335q1.8497-1.5293 0.32038-3.379l-3.2211-3.8959q-1.5293-1.8497-3.379-0.32038l-5.9671 4.9335q-1.8497 1.5293-0.32038 3.379z" clip-path="url(#a)" fill="#fff" stroke="#fff"/>
<g clip-path="url(#a)">
<g transform="translate(821.78 416.33) rotate(50.416) scale(.08 -.08)">
<use xlink:href="#r"/>
</g>
</g>
<path d="m973.25 616.79v33.808q0 2.4 2.4 2.4h7.7425q2.4 0 2.4-2.4v-33.808q0-2.4-2.4-2.4h-7.7425q-2.4 0-2.4 2.4z" clip-path="url(#a)" fill="#fff" stroke="#fff"/>
<g clip-path="url(#a)">
<g transform="translate(977.31 616.79) rotate(90) scale(.08 -.08)">
<use xlink:href="#k"/>
<use x="44.083984" xlink:href="#d"/>
<use x="105.607422" xlink:href="#i"/>
<use x="144.970703" xlink:href="#l"/>
<use x="242.382812" xlink:href="#h"/>
<use x="270.166016" xlink:href="#j"/>
<use x="333.544922" xlink:href="#f"/>
<use x="394.824219" xlink:href="#g"/>
</g>
</g>
<path d="m1018 470.26 1.5581 5.3646q0.66941 2.3048 2.9742 1.6353l7.4352-2.1595q2.3048-0.66941 1.6353-2.9742l-1.5581-5.3646q-0.66941-2.3048-2.9742-1.6353l-7.4352 2.1595q-2.3048 0.66941-1.6353 2.9742z" clip-path="url(#a)" fill="#fff" stroke="#fff"/>
<g clip-path="url(#a)">
<g transform="translate(1021.9 469.12) rotate(73.804) scale(.08 -.08)">
<use xlink:href="#o"/>
</g>
</g>
<path d="m1101.9 421.43 4.5569 2.1881q2.1635 1.0388 3.2024-1.1247l3.3513-6.9796q1.0388-2.1635-1.1247-3.2024l-4.5569-2.1881q-2.1635-1.0388-3.2024 1.1247l-3.3513 6.9796q-1.0388 2.1635 1.1247 3.2024z" clip-path="url(#a)" fill="#fff" stroke="#fff"/>
<g clip-path="url(#a)">
<g transform="translate(1103.7 417.76) rotate(25.649) scale(.08 -.08)">
<use xlink:href="#r"/>
</g>
</g>
<path d="m849.37 477.88 4.4484-3.3334q1.9206-1.4392 0.48139-3.3598l-4.6429-6.1959q-1.4392-1.9206-3.3598-0.48139l-4.4484 3.3334q-1.9206 1.4392-0.48139 3.3598l4.6429 6.1959q1.4392 1.9206 3.3598 0.48139z" clip-path="url(#a)" fill="#fff" stroke="#fff"/>
<g clip-path="url(#a)">
<g transform="translate(846.93 474.62) rotate(-36.846) scale(.08 -.08)">
<use xlink:href="#w"/>
</g>
</g>
<path d="m1050.2 616.79v33.808q0 2.4 2.4 2.4h7.7425q2.4 0 2.4-2.4v-33.808q0-2.4-2.4-2.4h-7.7425q-2.4 0-2.4 2.4z" clip-path="url(#a)" fill="#fff" stroke="#fff"/>
<g clip-path="url(#a)">
<g transform="translate(1054.3 616.79) rotate(90) scale(.08 -.08)">
<use xlink:href="#k"/>
<use x="44.083984" xlink:href="#d"/>
<use x="105.607422" xlink:href="#i"/>
<use x="144.970703" xlink:href="#l"/>
<use x="242.382812" xlink:href="#h"/>
<use x="270.166016" xlink:href="#j"/>
<use x="333.544922" xlink:href="#f"/>
<use x="394.824219" xlink:href="#g"/>
</g>
</g>
<path d="m1181.8 531.83 3.4036-4.3949q1.4695-1.8975-0.42796-3.367l-6.1214-4.7408q-1.8975-1.4695-3.367 0.42796l-3.4036 4.3949q-1.4695 1.8975 0.42797 3.367l6.1214 4.7408q1.8975 1.4695 3.367-0.42796z" clip-path="url(#a)" fill="#fff" stroke="#fff"/>
<g clip-path="url(#a)">
<g transform="translate(1178.6 529.35) rotate(-52.244) scale(.08 -.08)">
<use xlink:href="#w"/>
</g>
</g>
<path d="m1226.4 528.65 0.052758-5.586q0.022666-2.3999-2.3772-2.4226l-7.7422-0.073122q-2.3999-0.022666-2.4226 2.3772l-0.052757 5.586q-0.022666 2.3999 2.3772 2.4226l7.7422 0.073121q2.3999 0.022666 2.4226-2.3772z" clip-path="url(#a)" fill="#fff" stroke="#fff"/>
<g clip-path="url(#a)">
<g transform="translate(1222.3 528.61) rotate(-89.459) scale(.08 -.08)">
<use xlink:href="#o"/>
</g>
</g>
<path d="m1256.5 527.36 3.6122 4.6079q1.4807 1.8888 3.3695 0.40817l6.0934-4.7767q1.8888-1.4807 0.40817-3.3695l-3.6122-4.6079q-1.4807-1.8888-3.3695-0.40817l-6.0934 4.7767q-1.8888 1.4807-0.40817 3.3695z" clip-path="url(#a)" fill="#fff" stroke="#fff"/>
<g clip-path="url(#a)">
<g transform="translate(1259.7 524.85) rotate(51.907) scale(.08 -.08)">
<use xlink:href="#v"/>
</g>
</g>
<path d="m1130.2 616.79v33.808q0 2.4 2.4 2.4h7.7425q2.4 0 2.4-2.4v-33.808q0-2.4-2.4-2.4h-7.7425q-2.4 0-2.4 2.4z" clip-path="url(#a)" fill="#fff" stroke="#fff"/>
<g clip-path="url(#a)">
<g transform="translate(1134.3 616.79) rotate(90) scale(.08 -.08)">
<use xlink:href="#k"/>
<use x="44.083984" xlink:href="#d"/>
<use x="105.607422" xlink:href="#i"/>
<use x="144.970703" xlink:href="#l"/>
<use x="242.382812" xlink:href="#h"/>
<use x="270.166016" xlink:href="#j"/>
<use x="333.544922" xlink:href="#f"/>
<use x="394.824219" xlink:href="#g"/>
</g>
</g>
<path d="m1213.4 616.79v33.808q0 2.4 2.4 2.4h7.7425q2.4 0 2.4-2.4v-33.808q0-2.4-2.4-2.4h-7.7425q-2.4 0-2.4 2.4z" clip-path="url(#a)" fill="#fff" stroke="#fff"/>
<g clip-path="url(#a)">
<g transform="translate(1217.4 616.79) rotate(90) scale(.08 -.08)">
<use xlink:href="#k"/>
<use x="44.083984" xlink:href="#d"/>
<use x="105.607422" xlink:href="#i"/>
<use x="144.970703" xlink:href="#l"/>
<use x="242.382812" xlink:href="#h"/>
<use x="270.166016" xlink:href="#j"/>
<use x="333.544922" xlink:href="#f"/>
<use x="394.824219" xlink:href="#g"/>
</g>
</g>
<path d="m696.2 616.79v33.808q0 2.4 2.4 2.4h7.7425q2.4 0 2.4-2.4v-33.808q0-2.4-2.4-2.4h-7.7425q-2.4 0-2.4 2.4z" clip-path="url(#a)" fill="#fff" stroke="#fff"/>
<g clip-path="url(#a)">
<g transform="translate(700.26 616.79) rotate(90) scale(.08 -.08)">
<use xlink:href="#k"/>
<use x="44.083984" xlink:href="#d"/>
<use x="105.607422" xlink:href="#i"/>
<use x="144.970703" xlink:href="#l"/>
<use x="242.382812" xlink:href="#h"/>
<use x="270.166016" xlink:href="#j"/>
<use x="333.544922" xlink:href="#f"/>
<use x="394.824219" xlink:href="#g"/>
</g>
</g>
<path d="m760.84 616.79v33.808q0 2.4 2.4 2.4h7.7425q2.4 0 2.4-2.4v-33.808q0-2.4-2.4-2.4h-7.7425q-2.4 0-2.4 2.4z" clip-path="url(#a)" fill="#fff" stroke="#fff"/>
<g clip-path="url(#a)">
<g transform="translate(764.91 616.79) rotate(90) scale(.08 -.08)">
<use xlink:href="#k"/>
<use x="44.083984" xlink:href="#d"/>
<use x="105.607422" xlink:href="#i"/>
<use x="144.970703" xlink:href="#l"/>
<use x="242.382812" xlink:href="#h"/>
<use x="270.166016" xlink:href="#j"/>
<use x="333.544922" xlink:href="#f"/>
<use x="394.824219" xlink:href="#g"/>
</g>
</g>
<path d="m857.64 530.38 1.7221-5.2853q0.74354-2.2819-1.5384-3.0255l-7.3616-2.3987q-2.2819-0.74354-3.0255 1.5384l-1.7221 5.2853q-0.74354 2.2819 1.5384 3.0255l7.3616 2.3987q2.2819 0.74354 3.0255-1.5384z" clip-path="url(#a)" fill="#fff" stroke="#fff"/>
<g clip-path="url(#a)">
<g transform="translate(853.78 529.12) rotate(-71.952) scale(.08 -.08)">
<use xlink:href="#w"/>
</g>
</g>
<path d="m881.11 525.08 1.7307 5.3114q0.74354 2.2819 3.0255 1.5384l7.3616-2.3987q2.2819-0.74354 1.5384-3.0255l-1.7307-5.3114q-0.74354-2.2819-3.0255-1.5384l-7.3616 2.3987q-2.2819 0.74354-1.5384 3.0255z" clip-path="url(#a)" fill="#fff" stroke="#fff"/>
<g clip-path="url(#a)">
<g transform="translate(884.97 523.83) rotate(71.952) scale(.08 -.08)">
<use xlink:href="#o"/>
</g>
</g>
<path d="m828.57 616.79v33.808q0 2.4 2.4 2.4h7.7425q2.4 0 2.4-2.4v-33.808q0-2.4-2.4-2.4h-7.7425q-2.4 0-2.4 2.4z" clip-path="url(#a)" fill="#fff" stroke="#fff"/>
<g clip-path="url(#a)">
<g transform="translate(832.63 616.79) rotate(90) scale(.08 -.08)">
<use xlink:href="#k"/>
<use x="44.083984" xlink:href="#d"/>
<use x="105.607422" xlink:href="#i"/>
<use x="144.970703" xlink:href="#l"/>
<use x="242.382812" xlink:href="#h"/>
<use x="270.166016" xlink:href="#j"/>
<use x="333.544922" xlink:href="#f"/>
<use x="394.824219" xlink:href="#g"/>
</g>
</g>
<path d="m899.37 616.79v33.808q0 2.4 2.4 2.4h7.7425q2.4 0 2.4-2.4v-33.808q0-2.4-2.4-2.4h-7.7425q-2.4 0-2.4 2.4z" clip-path="url(#a)" fill="#fff" stroke="#fff"/>
<g clip-path="url(#a)">
<g transform="translate(903.43 616.79) rotate(90) scale(.08 -.08)">
<use xlink:href="#k"/>
<use x="44.083984" xlink:href="#d"/>
<use x="105.607422" xlink:href="#i"/>
<use x="144.970703" xlink:href="#l"/>
<use x="242.382812" xlink:href="#h"/>
<use x="270.166016" xlink:href="#j"/>
<use x="333.544922" xlink:href="#f"/>
<use x="394.824219" xlink:href="#g"/>
</g>
</g>
<path d="m468.4 616.79v33.808q0 2.4 2.4 2.4h7.7425q2.4 0 2.4-2.4v-33.808q0-2.4-2.4-2.4h-7.7425q-2.4 0-2.4 2.4z" clip-path="url(#a)" fill="#fff" stroke="#fff"/>
<g clip-path="url(#a)">
<g transform="translate(472.47 616.79) rotate(90) scale(.08 -.08)">
<use xlink:href="#k"/>
<use x="44.083984" xlink:href="#d"/>
<use x="105.607422" xlink:href="#i"/>
<use x="144.970703" xlink:href="#l"/>
<use x="242.382812" xlink:href="#h"/>
<use x="270.166016" xlink:href="#j"/>
<use x="333.544922" xlink:href="#f"/>
<use x="394.824219" xlink:href="#g"/>
</g>
</g>
<path d="m520.74 616.79v33.808q0 2.4 2.4 2.4h7.7425q2.4 0 2.4-2.4v-33.808q0-2.4-2.4-2.4h-7.7425q-2.4 0-2.4 2.4z" clip-path="url(#a)" fill="#fff" stroke="#fff"/>
<g clip-path="url(#a)">
<g transform="translate(524.8 616.79) rotate(90) scale(.08 -.08)">
<use xlink:href="#k"/>
<use x="44.083984" xlink:href="#d"/>
<use x="105.607422" xlink:href="#i"/>
<use x="144.970703" xlink:href="#l"/>
<use x="242.382812" xlink:href="#h"/>
<use x="270.166016" xlink:href="#j"/>
<use x="333.544922" xlink:href="#f"/>
<use x="394.824219" xlink:href="#g"/>
</g>
</g>
<path d="m55.911 616.79v33.808q0 2.4 2.4 2.4h7.7425q2.4 0 2.4-2.4v-33.808q0-2.4-2.4-2.4h-7.7425q-2.4 0-2.4 2.4z" clip-path="url(#a)" fill="#fff" stroke="#fff"/>
<g clip-path="url(#a)">
<g transform="translate(59.974 616.79) rotate(90) scale(.08 -.08)">
<use xlink:href="#k"/>
<use x="44.083984" xlink:href="#d"/>
<use x="105.607422" xlink:href="#i"/>
<use x="144.970703" xlink:href="#l"/>
<use x="242.382812" xlink:href="#h"/>
<use x="270.166016" xlink:href="#j"/>
<use x="333.544922" xlink:href="#f"/>
<use x="394.824219" xlink:href="#g"/>
</g>
</g>
<path d="m82.221 651.24 4.1764-33.549q0.29648-2.3816-2.0851-2.6781l-7.6832-0.95646q-2.3816-0.29648-2.6781 2.0851l-4.1764 33.549q-0.29648 2.3816 2.0851 2.6781l7.6832 0.95646q2.3816 0.29648 2.6781-2.0851z" clip-path="url(#a)" fill="#fff" stroke="#fff"/>
<g clip-path="url(#a)">
<g transform="translate(78.189 650.74) rotate(-82.904) scale(.08 -.08)">
<use xlink:href="#k"/>
<use x="44.083984" xlink:href="#d"/>
<use x="105.607422" xlink:href="#i"/>
<use x="144.970703" xlink:href="#l"/>
<use x="242.382812" xlink:href="#h"/>
<use x="270.166016" xlink:href="#j"/>
<use x="333.544922" xlink:href="#f"/>
<use x="394.824219" xlink:href="#g"/>
</g>
</g>
<path d="m90.352 650.66 0.32373-33.806q0.022981-2.3999-2.3769-2.4229l-7.7421-0.074139q-2.3999-0.022981-2.4229 2.3769l-0.32373 33.806q-0.022981 2.3999 2.3769 2.4229l7.7421 0.074139q2.3999 0.022981 2.4229-2.3769z" clip-path="url(#a)" fill="#fff" stroke="#fff"/>
<g clip-path="url(#a)">
<g transform="translate(86.289 650.62) rotate(-89.451) scale(.08 -.08)">
<use xlink:href="#k"/>
<use x="44.083984" xlink:href="#d"/>
<use x="105.607422" xlink:href="#i"/>
<use x="144.970703" xlink:href="#l"/>
<use x="242.382812" xlink:href="#h"/>
<use x="270.166016" xlink:href="#j"/>
<use x="333.544922" xlink:href="#f"/>
<use x="394.824219" xlink:href="#g"/>
</g>
</g>
<path d="m83.477 617.78 4.4922 33.508q0.3189 2.3787 2.6976 2.0598l7.6738-1.0288q2.3787-0.3189 2.0598-2.6976l-4.4922-33.508q-0.3189-2.3787-2.6976-2.0598l-7.6738 1.0288q-2.3787 0.3189-2.0598 2.6976z" clip-path="url(#a)" fill="#fff" stroke="#fff"/>
<g clip-path="url(#a)">
<g transform="translate(87.505 617.24) rotate(82.364) scale(.08 -.08)">
<use xlink:href="#k"/>
<use x="44.083984" xlink:href="#d"/>
<use x="105.607422" xlink:href="#i"/>
<use x="144.970703" xlink:href="#l"/>
<use x="242.382812" xlink:href="#h"/>
<use x="270.166016" xlink:href="#j"/>
<use x="333.544922" xlink:href="#f"/>
<use x="394.824219" xlink:href="#g"/>
</g>
</g>
<path d="m111.32 616.79v33.808q0 2.4 2.4 2.4h7.7425q2.4 0 2.4-2.4v-33.808q0-2.4-2.4-2.4h-7.7425q-2.4 0-2.4 2.4z" clip-path="url(#a)" fill="#fff" stroke="#fff"/>
<g clip-path="url(#a)">
<g transform="translate(115.38 616.79) rotate(90) scale(.08 -.08)">
<use xlink:href="#k"/>
<use x="44.083984" xlink:href="#d"/>
<use x="105.607422" xlink:href="#i"/>
<use x="144.970703" xlink:href="#l"/>
<use x="242.382812" xlink:href="#h"/>
<use x="270.166016" xlink:href="#j"/>
<use x="333.544922" xlink:href="#f"/>
<use x="394.824219" xlink:href="#g"/>
</g>
</g>
<path d="m249.84 616.79v33.808q0 2.4 2.4 2.4h7.7425q2.4 0 2.4-2.4v-33.808q0-2.4-2.4-2.4h-7.7425q-2.4 0-2.4 2.4z" clip-path="url(#a)" fill="#fff" stroke="#fff"/>
<g clip-path="url(#a)">
<g transform="translate(253.91 616.79) rotate(90) scale(.08 -.08)">
<use xlink:href="#k"/>
<use x="44.083984" xlink:href="#d"/>
<use x="105.607422" xlink:href="#i"/>
<use x="144.970703" xlink:href="#l"/>
<use x="242.382812" xlink:href="#h"/>
<use x="270.166016" xlink:href="#j"/>
<use x="333.544922" xlink:href="#f"/>
<use x="394.824219" xlink:href="#g"/>
</g>
</g>
<path d="m419.15 616.79v33.808q0 2.4 2.4 2.4h7.7425q2.4 0 2.4-2.4v-33.808q0-2.4-2.4-2.4h-7.7425q-2.4 0-2.4 2.4z" clip-path="url(#a)" fill="#fff" stroke="#fff"/>
<g clip-path="url(#a)">
<g transform="translate(423.21 616.79) rotate(90) scale(.08 -.08)">
<use xlink:href="#k"/>
<use x="44.083984" xlink:href="#d"/>
<use x="105.607422" xlink:href="#i"/>
<use x="144.970703" xlink:href="#l"/>
<use x="242.382812" xlink:href="#h"/>
<use x="270.166016" xlink:href="#j"/>
<use x="333.544922" xlink:href="#f"/>
<use x="394.824219" xlink:href="#g"/>
</g>
</g>
<path d="m1299.5 616.79v33.808q0 2.4 2.4 2.4h7.7425q2.4 0 2.4-2.4v-33.808q0-2.4-2.4-2.4h-7.7425q-2.4 0-2.4 2.4z" clip-path="url(#a)" fill="#fff" stroke="#fff"/>
<g clip-path="url(#a)">
<g transform="translate(1303.6 616.79) rotate(90) scale(.08 -.08)">
<use xlink:href="#k"/>
<use x="44.083984" xlink:href="#d"/>
<use x="105.607422" xlink:href="#i"/>
<use x="144.970703" xlink:href="#l"/>
<use x="242.382812" xlink:href="#h"/>
<use x="270.166016" xlink:href="#j"/>
<use x="333.544922" xlink:href="#f"/>
<use x="394.824219" xlink:href="#g"/>
</g>
</g>
<defs>
<path id="b" d="m0 8.6603c2.2967 0 4.4997-0.9125 6.1237-2.5365 1.624-1.624 2.5365-3.827 2.5365-6.1237s-0.9125-4.4997-2.5365-6.1237c-1.624-1.624-3.827-2.5365-6.1237-2.5365s-4.4997 0.9125-6.1237 2.5365c-1.624 1.624-2.5365 3.827-2.5365 6.1237s0.9125 4.4997 2.5365 6.1237c1.624 1.624 3.827 2.5365 6.1237 2.5365z"/>
</defs>
<g clip-path="url(#a)">
<use x="62.181818" y="687.272727" fill="#ffffff" stroke="#ffffff" xlink:href="#b"/>
</g>
<g clip-path="url(#a)">
<use x="71.416742" y="687.272727" fill="#ffffff" stroke="#ffffff" xlink:href="#b"/>
</g>
<g clip-path="url(#a)">
<use x="83.729973" y="687.272727" fill="#ffffff" stroke="#ffffff" xlink:href="#b"/>
</g>
<g clip-path="url(#a)">
<use x="99.121512" y="687.272727" fill="#ffffff" stroke="#ffffff" xlink:href="#b"/>
</g>
<g clip-path="url(#a)">
<use x="117.591359" y="687.272727" fill="#ffffff" stroke="#ffffff" xlink:href="#b"/>
</g>
<g clip-path="url(#a)">
<use x="139.139514" y="687.272727" fill="#ffffff" stroke="#ffffff" xlink:href="#b"/>
</g>
<g clip-path="url(#a)">
<use x="163.765977" y="687.272727" fill="#ffffff" stroke="#ffffff" xlink:href="#b"/>
</g>
<g clip-path="url(#a)">
<use x="191.470747" y="687.272727" fill="#ffffff" stroke="#ffffff" xlink:href="#b"/>
</g>
<g clip-path="url(#a)">
<use x="222.253825" y="687.272727" fill="#ffffff" stroke="#ffffff" xlink:href="#b"/>
</g>
<g clip-path="url(#a)">
<use x="256.115212" y="687.272727" fill="#ffffff" stroke="#ffffff" xlink:href="#b"/>
</g>
<g clip-path="url(#a)">
<use x="293.054905" y="687.272727" fill="#ffffff" stroke="#ffffff" xlink:href="#b"/>
</g>
<g clip-path="url(#a)">
<use x="333.072907" y="687.272727" fill="#ffffff" stroke="#ffffff" xlink:href="#b"/>
</g>
<g clip-path="url(#a)">
<use x="376.169217" y="687.272727" fill="#ffffff" stroke="#ffffff" xlink:href="#b"/>
</g>
<g clip-path="url(#a)">
<use x="425.422142" y="687.272727" fill="#ffffff" stroke="#ffffff" xlink:href="#b"/>
</g>
<g clip-path="url(#a)">
<use x="474.675068" y="687.272727" fill="#ffffff" stroke="#ffffff" xlink:href="#b"/>
</g>
<g clip-path="url(#a)">
<use x="527.006301" y="687.272727" fill="#ffffff" stroke="#ffffff" xlink:href="#b"/>
</g>
<g clip-path="url(#a)">
<use x="582.415842" y="687.272727" fill="#ffffff" stroke="#ffffff" xlink:href="#b"/>
</g>
<g clip-path="url(#a)">
<use x="640.90369" y="687.272727" fill="#ffffff" stroke="#ffffff" xlink:href="#b"/>
</g>
<g clip-path="url(#a)">
<use x="702.469847" y="687.272727" fill="#ffffff" stroke="#ffffff" xlink:href="#b"/>
</g>
<g clip-path="url(#a)">
<use x="767.114311" y="687.272727" fill="#ffffff" stroke="#ffffff" xlink:href="#b"/>
</g>
<g clip-path="url(#a)">
<use x="834.837084" y="687.272727" fill="#ffffff" stroke="#ffffff" xlink:href="#b"/>
</g>
<g clip-path="url(#a)">
<use x="905.638164" y="687.272727" fill="#ffffff" stroke="#ffffff" xlink:href="#b"/>
</g>
<g clip-path="url(#a)">
<use x="979.517552" y="687.272727" fill="#ffffff" stroke="#ffffff" xlink:href="#b"/>
</g>
<g clip-path="url(#a)">
<use x="1056.475248" y="687.272727" fill="#ffffff" stroke="#ffffff" xlink:href="#b"/>
</g>
<g clip-path="url(#a)">
<use x="1136.511251" y="687.272727" fill="#ffffff" stroke="#ffffff" xlink:href="#b"/>
</g>
<g clip-path="url(#a)">
<use x="1219.625563" y="687.272727" fill="#ffffff" stroke="#ffffff" xlink:href="#b"/>
</g>
<g clip-path="url(#a)">
<use x="1305.818182" y="687.272727" fill="#ffffff" stroke="#ffffff" xlink:href="#b"/>
</g>
<g clip-path="url(#a)">
<use x="379.247525" y="471.474763" fill="#ffffff" stroke="#ffffff" xlink:href="#b"/>
</g>
<g clip-path="url(#a)">
<use x="309.669692" y="32.727273" fill="#ffffff" stroke="#ffffff" xlink:href="#b"/>
</g>
<g clip-path="url(#a)">
<use x="525.880438" y="142.811757" fill="#ffffff" stroke="#ffffff" xlink:href="#b"/>
</g>
<g clip-path="url(#a)">
<use x="188.392439" y="362.260638" fill="#ffffff" stroke="#ffffff" xlink:href="#b"/>
</g>
<g clip-path="url(#a)">
<use x="344.616562" y="362.260638" fill="#ffffff" stroke="#ffffff" xlink:href="#b"/>
</g>
<g clip-path="url(#a)">
<use x="313.063906" y="471.474763" fill="#ffffff" stroke="#ffffff" xlink:href="#b"/>
</g>
<g clip-path="url(#a)">
<use x="376.169217" y="580.119058" fill="#ffffff" stroke="#ffffff" xlink:href="#b"/>
</g>
<g clip-path="url(#a)">
<use x="293.054905" y="580.119058" fill="#ffffff" stroke="#ffffff" xlink:href="#b"/>
</g>
<g clip-path="url(#a)">
<use x="333.072907" y="580.119058" fill="#ffffff" stroke="#ffffff" xlink:href="#b"/>
</g>
<g clip-path="url(#a)">
<use x="151.452745" y="471.474763" fill="#ffffff" stroke="#ffffff" xlink:href="#b"/>
</g>
<g clip-path="url(#a)">
<use x="191.470747" y="580.119058" fill="#ffffff" stroke="#ffffff" xlink:href="#b"/>
</g>
<g clip-path="url(#a)">
<use x="222.253825" y="580.119058" fill="#ffffff" stroke="#ffffff" xlink:href="#b"/>
</g>
<g clip-path="url(#a)">
<use x="139.139514" y="580.119058" fill="#ffffff" stroke="#ffffff" xlink:href="#b"/>
</g>
<g clip-path="url(#a)">
<use x="163.765977" y="580.119058" fill="#ffffff" stroke="#ffffff" xlink:href="#b"/>
</g>
<g clip-path="url(#a)">
<use x="73.468947" y="471.474763" fill="#ffffff" stroke="#ffffff" xlink:href="#b"/>
</g>
<g clip-path="url(#a)">
<use x="500.840684" y="471.474763" fill="#ffffff" stroke="#ffffff" xlink:href="#b"/>
</g>
<g clip-path="url(#a)">
<use x="611.659766" y="580.119058" fill="#ffffff" stroke="#ffffff" xlink:href="#b"/>
</g>
<g clip-path="url(#a)">
<use x="917.552355" y="252.674811" fill="#ffffff" stroke="#ffffff" xlink:href="#b"/>
</g>
<g clip-path="url(#a)">
<use x="779.940594" y="362.260638" fill="#ffffff" stroke="#ffffff" xlink:href="#b"/>
</g>
<g clip-path="url(#a)">
<use x="979.517552" y="580.119058" fill="#ffffff" stroke="#ffffff" xlink:href="#b"/>
</g>
<g clip-path="url(#a)">
<use x="993.19892" y="362.260638" fill="#ffffff" stroke="#ffffff" xlink:href="#b"/>
</g>
<g clip-path="url(#a)">
<use x="1056.475248" y="580.119058" fill="#ffffff" stroke="#ffffff" xlink:href="#b"/>
</g>
<g clip-path="url(#a)">
<use x="1220.651665" y="471.474763" fill="#ffffff" stroke="#ffffff" xlink:href="#b"/>
</g>
<g clip-path="url(#a)">
<use x="1136.511251" y="580.119058" fill="#ffffff" stroke="#ffffff" xlink:href="#b"/>
</g>
<g clip-path="url(#a)">
<use x="1219.625563" y="580.119058" fill="#ffffff" stroke="#ffffff" xlink:href="#b"/>
</g>
<g clip-path="url(#a)">
<use x="702.469847" y="580.119058" fill="#ffffff" stroke="#ffffff" xlink:href="#b"/>
</g>
<g clip-path="url(#a)">
<use x="767.114311" y="580.119058" fill="#ffffff" stroke="#ffffff" xlink:href="#b"/>
</g>
<g clip-path="url(#a)">
<use x="870.237624" y="471.474763" fill="#ffffff" stroke="#ffffff" xlink:href="#b"/>
</g>
<g clip-path="url(#a)">
<use x="834.837084" y="580.119058" fill="#ffffff" stroke="#ffffff" xlink:href="#b"/>
</g>
<g clip-path="url(#a)">
<use x="905.638164" y="580.119058" fill="#ffffff" stroke="#ffffff" xlink:href="#b"/>
</g>
<g clip-path="url(#a)">
<use x="474.675068" y="580.119058" fill="#ffffff" stroke="#ffffff" xlink:href="#b"/>
</g>
<g clip-path="url(#a)">
<use x="527.006301" y="580.119058" fill="#ffffff" stroke="#ffffff" xlink:href="#b"/>
</g>
<g clip-path="url(#a)">
<use x="62.181818" y="580.119058" fill="#ffffff" stroke="#ffffff" xlink:href="#b"/>
</g>
<g clip-path="url(#a)">
<use x="84.756076" y="580.119058" fill="#ffffff" stroke="#ffffff" xlink:href="#b"/>
</g>
<g clip-path="url(#a)">
<use x="117.591359" y="580.119058" fill="#ffffff" stroke="#ffffff" xlink:href="#b"/>
</g>
<g clip-path="url(#a)">
<use x="256.115212" y="580.119058" fill="#ffffff" stroke="#ffffff" xlink:href="#b"/>
</g>
<g clip-path="url(#a)">
<use x="425.422142" y="580.119058" fill="#ffffff" stroke="#ffffff" xlink:href="#b"/>
</g>
<g clip-path="url(#a)">
<use x="1305.818182" y="580.119058" fill="#ffffff" stroke="#ffffff" xlink:href="#b"/>
</g>
<g clip-path="url(#a)">
<defs>
<path id="ak" d="m9.8125 72.906h9.8594v-64.609h35.5v-8.2969h-45.359z"/>
</defs>
<g transform="translate(56.407 690.03) scale(.1 -.1)">
<use xlink:href="#ak"/>
<use x="53.962891" xlink:href="#d"/>
</g>
</g>
<g clip-path="url(#a)">
<defs>
<path id="c" d="m12.406 8.2969h16.109v55.625l-17.531-3.5156v8.9844l17.438 3.5156h9.8594v-64.609h16.109v-8.2969h-41.984z"/>
<path id="m" d="m40.578 39.312q7.0781-1.5156 11.047-6.3125 3.9844-4.7812 3.9844-11.812 0-10.781-7.4219-16.703-7.4219-5.9062-21.094-5.9062-4.5781 0-9.4375 0.90625t-10.031 2.7188v9.5156q4.0938-2.3906 8.9688-3.6094 4.8906-1.2188 10.219-1.2188 9.2656 0 14.125 3.6562t4.8594 10.641q0 6.4531-4.5156 10.078-4.5156 3.6406-12.562 3.6406h-8.5v8.1094h8.8906q7.2656 0 11.125 2.9062t3.8594 8.375q0 5.6094-3.9844 8.6094-3.9688 3.0156-11.391 3.0156-4.0625 0-8.7031-0.89062-4.6406-0.875-10.203-2.7188v8.7812q5.625 1.5625 10.531 2.3438t9.25 0.78125q11.234 0 17.766-5.1094 6.5469-5.0938 6.5469-13.781 0-6.0625-3.4688-10.234t-9.8594-5.7812z"/>
</defs>
<g transform="translate(65.054 690.03) scale(.1 -.1)">
<use xlink:href="#c"/>
<use x="63.623047" xlink:href="#m"/>
</g>
</g>
<g clip-path="url(#a)">
<defs>
<path id="an" d="m2.9844 54.688h9.5156l17.094-45.891 17.094 45.891h9.5156l-20.516-54.688h-12.203z"/>
</defs>
<g transform="translate(72.873 690.03) scale(.1 -.1)">
<use xlink:href="#f"/>
<use x="61.279297" xlink:href="#an"/>
<use x="120.458984" xlink:href="#i"/>
<use x="161.572266" xlink:href="#h"/>
<use x="189.355469" xlink:href="#g"/>
</g>
</g>
<g clip-path="url(#a)">
<defs>
<path id="x" d="m31.781 34.625q-7.0312 0-11.062-3.7656-4.0156-3.7656-4.0156-10.344 0-6.5938 4.0156-10.359 4.0312-3.7656 11.062-3.7656t11.078 3.7812q4.0625 3.7969 4.0625 10.344 0 6.5781-4.0312 10.344-4.0156 3.7656-11.109 3.7656zm-9.8594 4.1875q-6.3438 1.5625-9.8906 5.9062-3.5312 4.3594-3.5312 10.609 0 8.7344 6.2188 13.812 6.2344 5.0781 17.062 5.0781 10.891 0 17.094-5.0781t6.2031-13.812q0-6.25-3.5469-10.609-3.5312-4.3438-9.8281-5.9062 7.125-1.6562 11.094-6.5 3.9844-4.8281 3.9844-11.797 0-10.609-6.4688-16.281-6.4688-5.6562-18.531-5.6562-12.047 0-18.531 5.6562-6.4688 5.6719-6.4688 16.281 0 6.9688 4 11.797 4.0156 4.8438 11.141 6.5zm-3.6094 15.578q0-5.6562 3.5312-8.8281 3.5469-3.1719 9.9375-3.1719 6.3594 0 9.9375 3.1719 3.5938 3.1719 3.5938 8.8281 0 5.6719-3.5938 8.8438-3.5781 3.1719-9.9375 3.1719-6.3906 0-9.9375-3.1719-3.5312-3.1719-3.5312-8.8438z"/>
<path id="y" d="m33.016 40.375q-6.6406 0-10.531-4.5469-3.875-4.5312-3.875-12.438 0-7.8594 3.875-12.438 3.8906-4.5625 10.531-4.5625t10.516 4.5625q3.875 4.5781 3.875 12.438 0 7.9062-3.875 12.438-3.875 4.5469-10.516 4.5469zm19.578 30.922v-8.9844q-3.7188 1.75-7.5 2.6719-3.7812 0.9375-7.5 0.9375-9.7656 0-14.922-6.5938-5.1406-6.5938-5.875-19.922 2.875 4.25 7.2188 6.5156 4.3594 2.2656 9.5781 2.2656 10.984 0 17.359-6.6719 6.375-6.6562 6.375-18.125 0-11.234-6.6406-18.031-6.6406-6.7812-17.672-6.7812-12.656 0-19.344 9.6875-6.6875 9.7031-6.6875 28.109 0 17.281 8.2031 27.562t22.016 10.281q3.7188 0 7.5-0.73438t7.8906-2.1875z"/>
<path id="t" d="m8.2031 72.906h46.875v-4.2031l-26.469-68.703h-10.297l24.906 64.594h-35.016z"/>
</defs>
<g transform="translate(86.397 690.03) scale(.1 -.1)">
<use xlink:href="#c"/>
<use x="63.623047" xlink:href="#x"/>
<use x="127.246094" xlink:href="#y"/>
<use x="190.869141" xlink:href="#t"/>
</g>
</g>
<g clip-path="url(#a)">
<defs>
<path id="ag" d="m11.719 12.406h10.297v-8.4062l-8-15.625h-6.2969l4 15.625z"/>
</defs>
<g transform="translate(116 690.03) scale(.1 -.1)">
<use xlink:href="#ag"/>
</g>
</g>
<g clip-path="url(#a)">
<g transform="translate(134.69 690.03) scale(.1 -.1)">
<use xlink:href="#g"/>
<use x="27.783203" xlink:href="#f"/>
</g>
</g>
<g clip-path="url(#a)">
<g transform="translate(153.76 690.03) scale(.1 -.1)">
<use xlink:href="#l"/>
<use x="97.412109" xlink:href="#d"/>
<use x="158.935547" xlink:href="#i"/>
</g>
</g>
<g clip-path="url(#a)">
<defs>
<path id="at" d="m56.203 29.594v-4.3906h-41.312q0.59375-9.2812 5.5938-14.141t13.938-4.8594q5.1719 0 10.031 1.2656t9.6562 3.8125v-8.5q-4.8438-2.0469-9.9219-3.125t-10.297-1.0781q-13.094 0-20.734 7.6094-7.6406 7.625-7.6406 20.625 0 13.422 7.25 21.297 7.25 7.8906 19.562 7.8906 11.031 0 17.453-7.1094 6.4219-7.0938 6.4219-19.297zm-8.9844 2.6406q-0.09375 7.3594-4.125 11.75-4.0312 4.4062-10.672 4.4062-7.5156 0-12.031-4.25t-5.2031-11.969zm-8.6875 47.75h9.7188l-15.906-18.359h-7.4844z"/>
<path id="p" d="m18.312 70.219v-15.531h18.5v-6.9844h-18.5v-29.688q0-6.6875 1.8281-8.5938t7.4531-1.9062h9.2188v-7.5156h-9.2188q-10.406 0-14.359 3.875-3.9531 3.8906-3.9531 14.141v29.688h-6.5938v6.9844h6.5938v15.531z"/>
</defs>
<g transform="translate(178.24 690.03) scale(.1 -.1)">
<use xlink:href="#at"/>
<use x="61.523438" xlink:href="#p"/>
<use x="100.732422" xlink:href="#f"/>
<use x="162.011719" xlink:href="#j"/>
<use x="225.390625" xlink:href="#p"/>
</g>
</g>
<g clip-path="url(#a)">
<defs>
<path id="ab" d="m48.688 27.297q0 9.9062-4.0781 15.547t-11.203 5.6406q-7.1406 0-11.219-5.6406t-4.0781-15.547 4.0781-15.547 11.219-5.6406q7.125 0 11.203 5.6406t4.0781 15.547zm-30.578 19.094q2.8438 4.875 7.1562 7.2344 4.3281 2.375 10.328 2.375 9.9688 0 16.188-7.9062 6.2344-7.9062 6.2344-20.797t-6.2344-20.812q-6.2188-7.9062-16.188-7.9062-6 0-10.328 2.375-4.3125 2.375-7.1562 7.25v-8.2031h-9.0312v75.984h9.0312z"/>
</defs>
<g transform="translate(210.15 690.03) scale(.1 -.1)">
<use xlink:href="#ab"/>
<use x="63.476562" xlink:href="#d"/>
<use x="125" xlink:href="#g"/>
<use x="152.783203" xlink:href="#g"/>
<use x="180.566406" xlink:href="#d"/>
</g>
</g>
<g clip-path="url(#a)">
<g transform="translate(254.53 690.03) scale(.1 -.1)">
<use xlink:href="#ag"/>
</g>
</g>
<g clip-path="url(#a)">
<g transform="translate(288.6 690.03) scale(.1 -.1)">
<use xlink:href="#g"/>
<use x="27.783203" xlink:href="#f"/>
</g>
</g>
<g clip-path="url(#a)">
<defs>
<path id="ao" d="m44.281 53.078v-8.5q-3.7969 1.9531-7.9062 2.9219-4.0938 0.98438-8.5 0.98438-6.6875 0-10.031-2.0469t-3.3438-6.1562q0-3.125 2.3906-4.9062t9.625-3.3906l3.0781-0.6875q9.5625-2.0469 13.594-5.7812t4.0312-10.422q0-7.625-6.0312-12.078-6.0312-4.4375-16.578-4.4375-4.3906 0-9.1562 0.85938t-10.031 2.5625v9.2812q4.9844-2.5938 9.8125-3.8906 4.8281-1.2812 9.5781-1.2812 6.3438 0 9.75 2.1719 3.4219 2.1719 3.4219 6.125 0 3.6562-2.4688 5.6094-2.4531 1.9531-10.812 3.7656l-3.125 0.73438q-8.3438 1.75-12.062 5.3906-3.7031 3.6406-3.7031 9.9844 0 7.7188 5.4688 11.906 5.4688 4.2031 15.531 4.2031 4.9688 0 9.3594-0.73438 4.4062-0.71875 8.1094-2.1875z"/>
</defs>
<g transform="translate(320.77 690.03) scale(.1 -.1)">
<use xlink:href="#ab"/>
<use x="63.476562" xlink:href="#i"/>
<use x="104.589844" xlink:href="#h"/>
<use x="132.373047" xlink:href="#ao"/>
<use x="184.472656" xlink:href="#d"/>
</g>
</g>
<g clip-path="url(#a)">
<g transform="translate(352.97 690.03) scale(.1 -.1)">
<use xlink:href="#l"/>
<use x="97.412109" xlink:href="#f"/>
<use x="158.691406" xlink:href="#j"/>
<use x="222.070312" xlink:href="#h"/>
<use x="249.853516" xlink:href="#f"/>
<use x="311.132812" xlink:href="#ab"/>
<use x="374.609375" xlink:href="#g"/>
<use x="402.392578" xlink:href="#d"/>
</g>
</g>
<g clip-path="url(#a)">
<g transform="translate(423.83 690.03) scale(.1 -.1)">
<use xlink:href="#ag"/>
</g>
</g>
<g clip-path="url(#a)">
<g transform="translate(470.21 690.03) scale(.1 -.1)">
<use xlink:href="#g"/>
<use x="27.783203" xlink:href="#d"/>
</g>
</g>
<g clip-path="url(#a)">
<defs>
<path id="ap" d="m48.781 52.594v-8.4062q-3.8125 2.1094-7.6406 3.1562t-7.7344 1.0469q-8.75 0-13.594-5.5469-4.8281-5.5312-4.8281-15.547t4.8281-15.562q4.8438-5.5312 13.594-5.5312 3.9062 0 7.7344 1.0469t7.6406 3.1562v-8.3125q-3.7656-1.75-7.7969-2.625-4.0156-0.89062-8.5625-0.89062-12.359 0-19.641 7.7656-7.2656 7.7656-7.2656 20.953 0 13.375 7.3438 21.031 7.3594 7.6719 20.156 7.6719 4.1406 0 8.0938-0.85938 3.9531-0.84375 7.6719-2.5469z"/>
<path id="ai" d="m30.609 48.391q-7.2188 0-11.422-5.6406t-4.2031-15.453 4.1719-15.453q4.1875-5.6406 11.453-5.6406 7.1875 0 11.375 5.6562 4.2031 5.6719 4.2031 15.438 0 9.7188-4.2031 15.406-4.1875 5.6875-11.375 5.6875zm0 7.6094q11.719 0 18.406-7.625 6.7031-7.6094 6.7031-21.078 0-13.422-6.7031-21.078-6.6875-7.6406-18.406-7.6406-11.766 0-18.438 7.6406-6.6562 7.6562-6.6562 21.078 0 13.469 6.6562 21.078 6.6719 7.625 18.438 7.625z"/>
</defs>
<g transform="translate(511.61 690.03) scale(.1 -.1)">
<use xlink:href="#aj"/>
<use x="63.476562" xlink:href="#ap"/>
<use x="118.457031" xlink:href="#ai"/>
<use x="179.638672" xlink:href="#p"/>
<use x="218.847656" xlink:href="#h"/>
<use x="246.630859" xlink:href="#f"/>
</g>
</g>
<g clip-path="url(#a)">
<g transform="translate(576.73 690.03) scale(.1 -.1)">
<use xlink:href="#ao"/>
<use x="52.099609" xlink:href="#d"/>
</g>
</g>
<g clip-path="url(#a)">
<defs>
<path id="ah" d="m8.5 21.578v33.109h8.9844v-32.766q0-7.7656 3.0156-11.656 3.0312-3.875 9.0938-3.875 7.2656 0 11.484 4.6406 4.2344 4.6406 4.2344 12.656v31h8.9844v-54.688h-8.9844v8.4062q-3.2656-4.9844-7.5938-7.4062-4.3125-2.4219-10.031-2.4219-9.4219 0-14.312 5.8594-4.875 5.8594-4.875 17.141z"/>
</defs>
<g transform="translate(621.4 690.03) scale(.1 -.1)">
<use xlink:href="#p"/>
<use x="39.208984" xlink:href="#i"/>
<use x="78.072266" xlink:href="#ai"/>
<use x="139.253906" xlink:href="#ah"/>
<use x="202.632812" xlink:href="#an"/>
<use x="261.8125" xlink:href="#f"/>
<use x="323.091797" xlink:href="#h"/>
<use x="350.875" xlink:href="#p"/>
</g>
</g>
<g clip-path="url(#a)">
<defs>
<path id="au" d="m18.109 8.2031v-29h-9.0312v75.484h9.0312v-8.2969q2.8438 4.875 7.1562 7.2344 4.3281 2.375 10.328 2.375 9.9688 0 16.188-7.9062 6.2344-7.9062 6.2344-20.797t-6.2344-20.812q-6.2188-7.9062-16.188-7.9062-6 0-10.328 2.375-4.3125 2.375-7.1562 7.25zm30.578 19.094q0 9.9062-4.0781 15.547t-11.203 5.6406q-7.1406 0-11.219-5.6406t-4.0781-15.547 4.0781-15.547 11.219-5.6406q7.125 0 11.203 5.6406t4.0781 15.547z"/>
</defs>
<g transform="translate(694.18 690.03) scale(.1 -.1)">
<use xlink:href="#au"/>
<use x="63.476562" xlink:href="#f"/>
<use x="124.755859" xlink:href="#i"/>
</g>
</g>
<g clip-path="url(#a)">
<defs>
<path id="u" d="m10.797 72.906h38.719v-8.3125h-29.688v-17.859q2.1406 0.73438 4.2812 1.0938 2.1562 0.35938 4.3125 0.35938 12.203 0 19.328-6.6875 7.1406-6.6875 7.1406-18.109 0-11.766-7.3281-18.297-7.3281-6.5156-20.656-6.5156-4.5938 0-9.3594 0.78125-4.75 0.78125-9.8281 2.3438v9.9219q4.3906-2.3906 9.0781-3.5625t9.9062-1.1719q8.4531 0 13.375 4.4375 4.9375 4.4375 4.9375 12.062 0 7.6094-4.9375 12.047-4.9219 4.4531-13.375 4.4531-3.9531 0-7.8906-0.875-3.9219-0.875-8.0156-2.7344z"/>
<path id="am" d="m25 67.922q-3.9062 0-6.5938-2.7188-2.6875-2.7031-2.6875-6.6094 0-3.8594 2.6875-6.5156t6.5938-2.6562 6.5938 2.6562 2.6875 6.5156-2.7188 6.5938q-2.7031 2.7344-6.5625 2.7344zm0 6.2969q3.125 0 6-1.2031 2.8906-1.1875 4.9844-3.4375 2.25-2.1875 3.375-4.9844 1.125-2.7812 1.125-6 0-6.4375-4.5156-10.906t-11.062-4.4688q-6.5938 0-11 4.3906-4.3906 4.3906-4.3906 10.984 0 6.5469 4.4844 11.078 4.5 4.5469 11 4.5469z"/>
<path id="n" d="m19.188 8.2969h34.422v-8.2969h-46.281v8.2969q5.6094 5.8125 15.297 15.594 9.7031 9.7969 12.188 12.641 4.7344 5.3125 6.6094 9 1.8906 3.6875 1.8906 7.25 0 5.8125-4.0781 9.4688-4.0781 3.6719-10.625 3.6719-4.6406 0-9.7969-1.6094-5.1406-1.6094-11-4.8906v9.9688q5.9531 2.3906 11.125 3.6094 5.1875 1.2188 9.4844 1.2188 11.328 0 18.062-5.6719 6.7344-5.6562 6.7344-15.125 0-4.5-1.6875-8.5312-1.6719-4.0156-6.125-9.4844-1.2188-1.4219-7.7656-8.1875-6.5312-6.7656-18.453-18.922z"/>
<path id="al" d="m17.922 72.906v-27.109h-8.2969v27.109z"/>
</defs>
<g transform="translate(750.52 690.03) scale(.1 -.1)">
<use xlink:href="#c"/>
<use x="63.623047" xlink:href="#u"/>
<use x="127.246094" xlink:href="#am"/>
<use x="177.246094" xlink:href="#c"/>
<use x="240.869141" xlink:href="#n"/>
<use x="304.492188" xlink:href="#al"/>
</g>
</g>
<g clip-path="url(#a)">
<defs>
<path id="aa" d="m45.406 46.391v29.594h8.9844v-75.984h-8.9844v8.2031q-2.8281-4.875-7.1562-7.25-4.3125-2.375-10.375-2.375-9.9062 0-16.141 7.9062-6.2188 7.9219-6.2188 20.812t6.2188 20.797q6.2344 7.9062 16.141 7.9062 6.0625 0 10.375-2.375 4.3281-2.3594 7.1562-7.2344zm-30.609-19.094q0-9.9062 4.0781-15.547t11.203-5.6406 11.219 5.6406q4.1094 5.6406 4.1094 15.547t-4.1094 15.547q-4.0938 5.6406-11.219 5.6406t-11.203-5.6406-4.0781-15.547z"/>
</defs>
<g transform="translate(828.59 690.03) scale(.1 -.1)">
<use xlink:href="#aa"/>
<use x="63.476562" xlink:href="#d"/>
</g>
</g>
<g clip-path="url(#a)">
<defs>
<path id="av" d="m45.406 27.984q0 9.7656-4.0312 15.125-4.0156 5.375-11.297 5.375-7.2188 0-11.25-5.375-4.0312-5.3594-4.0312-15.125 0-9.7188 4.0312-15.094t11.25-5.375q7.2812 0 11.297 5.375 4.0312 5.375 4.0312 15.094zm8.9844-21.203q0-13.953-6.2031-20.766-6.1875-6.8125-18.984-6.8125-4.7344 0-8.9375 0.70312t-8.1562 2.1719v8.7344q3.9531-2.1406 7.8125-3.1562 3.8594-1.0312 7.8594-1.0312 8.8438 0 13.234 4.6094t4.3906 13.938v4.4531q-2.7812-4.8438-7.125-7.2344t-10.406-2.3906q-10.047 0-16.203 7.6562-6.1562 7.6719-6.1562 20.328 0 12.688 6.1562 20.344 6.1562 7.6719 16.203 7.6719 6.0625 0 10.406-2.3906t7.125-7.2188v8.2969h8.9844z"/>
</defs>
<g transform="translate(882.08 690.03) scale(.1 -.1)">
<use xlink:href="#g"/>
<use x="27.783203" xlink:href="#ai"/>
<use x="88.964844" xlink:href="#j"/>
<use x="152.34375" xlink:href="#av"/>
<use x="215.820312" xlink:href="#h"/>
<use x="243.603516" xlink:href="#p"/>
<use x="282.8125" xlink:href="#ah"/>
<use x="346.191406" xlink:href="#aa"/>
<use x="409.667969" xlink:href="#d"/>
</g>
</g>
<g clip-path="url(#a)">
<g transform="translate(974.48 690.03) scale(.1 -.1)">
<use xlink:href="#d"/>
<use x="61.523438" xlink:href="#p"/>
</g>
</g>
<g clip-path="url(#a)">
<defs>
<path id="q" d="m37.797 64.312-24.906-38.922h24.906zm-2.5938 8.5938h12.406v-47.516h10.406v-8.2031h-10.406v-17.188h-9.8125v17.188h-32.906v9.5156z"/>
</defs>
<g transform="translate(1039.9 690.03) scale(.1 -.1)">
<use xlink:href="#q"/>
<use x="63.623047" xlink:href="#u"/>
<use x="127.246094" xlink:href="#am"/>
<use x="177.246094" xlink:href="#m"/>
<use x="240.869141" xlink:href="#t"/>
<use x="304.492188" xlink:href="#al"/>
</g>
</g>
<g clip-path="url(#a)">
<g transform="translate(1130.3 690.03) scale(.1 -.1)">
<use xlink:href="#aa"/>
<use x="63.476562" xlink:href="#d"/>
</g>
</g>
<g clip-path="url(#a)">
<g transform="translate(1200.4 690.03) scale(.1 -.1)">
<use xlink:href="#g"/>
<use x="27.783203" xlink:href="#f"/>
<use x="89.0625" xlink:href="#p"/>
<use x="128.271484" xlink:href="#h"/>
<use x="156.054688" xlink:href="#p"/>
<use x="195.263672" xlink:href="#ah"/>
<use x="258.642578" xlink:href="#aa"/>
<use x="322.119141" xlink:href="#d"/>
</g>
</g>
<g clip-path="url(#a)">
<defs>
<path id="e" d="m10.688 12.406h10.312v-12.406h-10.312z"/>
</defs>
<g transform="translate(1304.2 690.03) scale(.1 -.1)">
<use xlink:href="#e"/>
</g>
</g>
<g clip-path="url(#a)">
<defs>
<path id="ad" d="m9.8125 72.906h9.8594v-72.906h-9.8594z"/>
<path id="ar" d="m9.8125 72.906h14.703l18.594-49.609 18.703 49.609h14.703v-72.906h-9.625v64.016l-18.797-50h-9.9062l-18.797 50v-64.016h-9.5781z"/>
</defs>
<g transform="translate(358.16 474.23) scale(.1 -.1)">
<use xlink:href="#ad"/>
<use x="29.492188" xlink:href="#ar"/>
<use x="115.771484" xlink:href="#ac"/>
<use x="176.074219" xlink:href="#ak"/>
<use x="231.787109" xlink:href="#ad"/>
<use x="261.279297" xlink:href="#o"/>
<use x="331.103516" xlink:href="#ad"/>
<use x="360.595703" xlink:href="#k"/>
</g>
</g>
<g clip-path="url(#a)">
<g transform="translate(301.72 35.487) scale(.1 -.1)">
<use xlink:href="#c"/>
<use x="63.623047" xlink:href="#e"/>
<use x="95.410156" xlink:href="#c"/>
</g>
</g>
<g clip-path="url(#a)">
<g transform="translate(517.93 145.57) scale(.1 -.1)">
<use xlink:href="#c"/>
<use x="63.623047" xlink:href="#e"/>
<use x="95.410156" xlink:href="#n"/>
</g>
</g>
<g clip-path="url(#a)">
<g transform="translate(180.44 365.02) scale(.1 -.1)">
<use xlink:href="#c"/>
<use x="63.623047" xlink:href="#e"/>
<use x="95.410156" xlink:href="#m"/>
</g>
</g>
<g clip-path="url(#a)">
<g transform="translate(336.66 365.02) scale(.1 -.1)">
<use xlink:href="#c"/>
<use x="63.623047" xlink:href="#e"/>
<use x="95.410156" xlink:href="#q"/>
</g>
</g>
<g clip-path="url(#a)">
<defs>
<path id="z" d="m31.781 66.406q-7.6094 0-11.453-7.5-3.8281-7.4844-3.8281-22.531 0-14.984 3.8281-22.484 3.8438-7.5 11.453-7.5 7.6719 0 11.5 7.5 3.8438 7.5 3.8438 22.484 0 15.047-3.8438 22.531-3.8281 7.5-11.5 7.5zm0 7.8125q12.266 0 18.734-9.7031 6.4688-9.6875 6.4688-28.141 0-18.406-6.4688-28.109-6.4688-9.6875-18.734-9.6875-12.25 0-18.719 9.6875-6.4688 9.7031-6.4688 28.109 0 18.453 6.4688 28.141 6.4688 9.7031 18.719 9.7031z"/>
</defs>
<g transform="translate(301.93 474.23) scale(.1 -.1)">
<use xlink:href="#c"/>
<use x="63.623047" xlink:href="#e"/>
<use x="95.410156" xlink:href="#c"/>
<use x="159.033203" xlink:href="#z"/>
</g>
</g>
<g clip-path="url(#a)">
<g transform="translate(365.04 582.88) scale(.1 -.1)">
<use xlink:href="#c"/>
<use x="63.623047" xlink:href="#e"/>
<use x="95.410156" xlink:href="#c"/>
<use x="159.033203" xlink:href="#c"/>
</g>
</g>
<g clip-path="url(#a)">
<g transform="translate(281.92 582.88) scale(.1 -.1)">
<use xlink:href="#c"/>
<use x="63.623047" xlink:href="#e"/>
<use x="95.410156" xlink:href="#c"/>
<use x="159.033203" xlink:href="#n"/>
</g>
</g>
<g clip-path="url(#a)">
<g transform="translate(321.94 582.88) scale(.1 -.1)">
<use xlink:href="#c"/>
<use x="63.623047" xlink:href="#e"/>
<use x="95.410156" xlink:href="#c"/>
<use x="159.033203" xlink:href="#m"/>
</g>
</g>
<g clip-path="url(#a)">
<g transform="translate(140.32 474.23) scale(.1 -.1)">
<use xlink:href="#c"/>
<use x="63.623047" xlink:href="#e"/>
<use x="95.410156" xlink:href="#c"/>
<use x="159.033203" xlink:href="#q"/>
</g>
</g>
<g clip-path="url(#a)">
<g transform="translate(180.34 582.88) scale(.1 -.1)">
<use xlink:href="#c"/>
<use x="63.623047" xlink:href="#e"/>
<use x="95.410156" xlink:href="#c"/>
<use x="159.033203" xlink:href="#u"/>
</g>
</g>
<g clip-path="url(#a)">
<g transform="translate(211.12 582.88) scale(.1 -.1)">
<use xlink:href="#c"/>
<use x="63.623047" xlink:href="#e"/>
<use x="95.410156" xlink:href="#c"/>
<use x="159.033203" xlink:href="#y"/>
</g>
</g>
<g clip-path="url(#a)">
<g transform="translate(128.01 582.88) scale(.1 -.1)">
<use xlink:href="#c"/>
<use x="63.623047" xlink:href="#e"/>
<use x="95.410156" xlink:href="#c"/>
<use x="159.033203" xlink:href="#t"/>
</g>
</g>
<g clip-path="url(#a)">
<g transform="translate(152.63 582.88) scale(.1 -.1)">
<use xlink:href="#c"/>
<use x="63.623047" xlink:href="#e"/>
<use x="95.410156" xlink:href="#c"/>
<use x="159.033203" xlink:href="#x"/>
</g>
</g>
<g clip-path="url(#a)">
<defs>
<path id="af" d="m10.984 1.5156v8.9844q3.7188-1.7656 7.5156-2.6875 3.8125-0.92188 7.4844-0.92188 9.7656 0 14.906 6.5625 5.1562 6.5625 5.8906 19.953-2.8281-4.2031-7.1875-6.4531-4.3438-2.25-9.6094-2.25-10.938 0-17.312 6.6094-6.375 6.625-6.375 18.109 0 11.219 6.6406 18 6.6406 6.7969 17.672 6.7969 12.656 0 19.312-9.7031 6.6719-9.6875 6.6719-28.141 0-17.234-8.1875-27.516-8.1719-10.281-21.984-10.281-3.7188 0-7.5312 0.73438-3.7969 0.73438-7.9062 2.2031zm19.625 30.906q6.6406 0 10.516 4.5312 3.8906 4.5469 3.8906 12.469 0 7.8594-3.8906 12.422-3.875 4.5625-10.516 4.5625t-10.516-4.5625-3.875-12.422q0-7.9219 3.875-12.469 3.875-4.5312 10.516-4.5312z"/>
</defs>
<g transform="translate(62.336 474.23) scale(.1 -.1)">
<use xlink:href="#c"/>
<use x="63.623047" xlink:href="#e"/>
<use x="95.410156" xlink:href="#c"/>
<use x="159.033203" xlink:href="#af"/>
</g>
</g>
<g clip-path="url(#a)">
<g transform="translate(489.71 474.23) scale(.1 -.1)">
<use xlink:href="#c"/>
<use x="63.623047" xlink:href="#e"/>
<use x="95.410156" xlink:href="#n"/>
<use x="159.033203" xlink:href="#z"/>
</g>
</g>
<g clip-path="url(#a)">
<g transform="translate(600.53 582.88) scale(.1 -.1)">
<use xlink:href="#c"/>
<use x="63.623047" xlink:href="#e"/>
<use x="95.410156" xlink:href="#n"/>
<use x="159.033203" xlink:href="#c"/>
</g>
</g>
<g clip-path="url(#a)">
<g transform="translate(906.42 255.43) scale(.1 -.1)">
<use xlink:href="#c"/>
<use x="63.623047" xlink:href="#e"/>
<use x="95.410156" xlink:href="#n"/>
<use x="159.033203" xlink:href="#n"/>
</g>
</g>
<g clip-path="url(#a)">
<g transform="translate(768.81 365.02) scale(.1 -.1)">
<use xlink:href="#c"/>
<use x="63.623047" xlink:href="#e"/>
<use x="95.410156" xlink:href="#n"/>
<use x="159.033203" xlink:href="#m"/>
</g>
</g>
<g clip-path="url(#a)">
<g transform="translate(968.38 582.88) scale(.1 -.1)">
<use xlink:href="#c"/>
<use x="63.623047" xlink:href="#e"/>
<use x="95.410156" xlink:href="#n"/>
<use x="159.033203" xlink:href="#q"/>
</g>
</g>
<g clip-path="url(#a)">
<g transform="translate(982.07 365.02) scale(.1 -.1)">
<use xlink:href="#c"/>
<use x="63.623047" xlink:href="#e"/>
<use x="95.410156" xlink:href="#n"/>
<use x="159.033203" xlink:href="#u"/>
</g>
</g>
<g clip-path="url(#a)">
<g transform="translate(1045.3 582.88) scale(.1 -.1)">
<use xlink:href="#c"/>
<use x="63.623047" xlink:href="#e"/>
<use x="95.410156" xlink:href="#n"/>
<use x="159.033203" xlink:href="#y"/>
</g>
</g>
<g clip-path="url(#a)">
<g transform="translate(1209.5 474.23) scale(.1 -.1)">
<use xlink:href="#c"/>
<use x="63.623047" xlink:href="#e"/>
<use x="95.410156" xlink:href="#n"/>
<use x="159.033203" xlink:href="#t"/>
</g>
</g>
<g clip-path="url(#a)">
<g transform="translate(1125.4 582.88) scale(.1 -.1)">
<use xlink:href="#c"/>
<use x="63.623047" xlink:href="#e"/>
<use x="95.410156" xlink:href="#n"/>
<use x="159.033203" xlink:href="#x"/>
</g>
</g>
<g clip-path="url(#a)">
<g transform="translate(1208.5 582.88) scale(.1 -.1)">
<use xlink:href="#c"/>
<use x="63.623047" xlink:href="#e"/>
<use x="95.410156" xlink:href="#n"/>
<use x="159.033203" xlink:href="#af"/>
</g>
</g>
<g clip-path="url(#a)">
<g transform="translate(691.34 582.88) scale(.1 -.1)">
<use xlink:href="#c"/>
<use x="63.623047" xlink:href="#e"/>
<use x="95.410156" xlink:href="#m"/>
<use x="159.033203" xlink:href="#z"/>
</g>
</g>
<g clip-path="url(#a)">
<g transform="translate(755.98 582.88) scale(.1 -.1)">
<use xlink:href="#c"/>
<use x="63.623047" xlink:href="#e"/>
<use x="95.410156" xlink:href="#m"/>
<use x="159.033203" xlink:href="#c"/>
</g>
</g>
<g clip-path="url(#a)">
<g transform="translate(859.1 474.23) scale(.1 -.1)">
<use xlink:href="#c"/>
<use x="63.623047" xlink:href="#e"/>
<use x="95.410156" xlink:href="#m"/>
<use x="159.033203" xlink:href="#n"/>
</g>
</g>
<g clip-path="url(#a)">
<g transform="translate(823.7 582.88) scale(.1 -.1)">
<use xlink:href="#c"/>
<use x="63.623047" xlink:href="#e"/>
<use x="95.410156" xlink:href="#m"/>
<use x="159.033203" xlink:href="#m"/>
</g>
</g>
<g clip-path="url(#a)">
<g transform="translate(894.51 582.88) scale(.1 -.1)">
<use xlink:href="#c"/>
<use x="63.623047" xlink:href="#e"/>
<use x="95.410156" xlink:href="#m"/>
<use x="159.033203" xlink:href="#q"/>
</g>
</g>
<g clip-path="url(#a)">
<g transform="translate(463.54 582.88) scale(.1 -.1)">
<use xlink:href="#c"/>
<use x="63.623047" xlink:href="#e"/>
<use x="95.410156" xlink:href="#m"/>
<use x="159.033203" xlink:href="#u"/>
</g>
</g>
<g clip-path="url(#a)">
<g transform="translate(515.87 582.88) scale(.1 -.1)">
<use xlink:href="#c"/>
<use x="63.623047" xlink:href="#e"/>
<use x="95.410156" xlink:href="#m"/>
<use x="159.033203" xlink:href="#y"/>
</g>
</g>
<g clip-path="url(#a)">
<g transform="translate(51.049 582.88) scale(.1 -.1)">
<use xlink:href="#c"/>
<use x="63.623047" xlink:href="#e"/>
<use x="95.410156" xlink:href="#m"/>
<use x="159.033203" xlink:href="#t"/>
</g>
</g>
<g clip-path="url(#a)">
<g transform="translate(73.623 582.88) scale(.1 -.1)">
<use xlink:href="#c"/>
<use x="63.623047" xlink:href="#e"/>
<use x="95.410156" xlink:href="#m"/>
<use x="159.033203" xlink:href="#x"/>
</g>
</g>
<g clip-path="url(#a)">
<g transform="translate(106.46 582.88) scale(.1 -.1)">
<use xlink:href="#c"/>
<use x="63.623047" xlink:href="#e"/>
<use x="95.410156" xlink:href="#m"/>
<use x="159.033203" xlink:href="#af"/>
</g>
</g>
<g clip-path="url(#a)">
<g transform="translate(244.98 582.88) scale(.1 -.1)">
<use xlink:href="#c"/>
<use x="63.623047" xlink:href="#e"/>
<use x="95.410156" xlink:href="#q"/>
<use x="159.033203" xlink:href="#z"/>
</g>
</g>
<g clip-path="url(#a)">
<g transform="translate(414.29 582.88) scale(.1 -.1)">
<use xlink:href="#c"/>
<use x="63.623047" xlink:href="#e"/>
<use x="95.410156" xlink:href="#q"/>
<use x="159.033203" xlink:href="#c"/>
</g>
</g>
<g clip-path="url(#a)">
<g transform="translate(1294.7 582.88) scale(.1 -.1)">
<use xlink:href="#c"/>
<use x="63.623047" xlink:href="#e"/>
<use x="95.410156" xlink:href="#q"/>
<use x="159.033203" xlink:href="#n"/>
</g>
</g>
<defs>
<clipPath id="a">
<rect width="1368" height="720"/>
</clipPath>
</defs>
</svg>
