<?xml version="1.0" encoding="UTF-8"?>
<!DOCTYPE svg  PUBLIC '-//W3C//DTD SVG 1.1//EN'  'http://www.w3.org/Graphics/SVG/1.1/DTD/svg11.dtd'>
<svg width="1925.3pt" height="1013.3pt" version="1.1" viewBox="0 0 1925.3 1013.3" xmlns="http://www.w3.org/2000/svg" xmlns:xlink="http://www.w3.org/1999/xlink">
<defs>
<style type="text/css">*{stroke-linecap:butt;stroke-linejoin:round;}</style>
</defs>
<path d="m0 1013.3h1925.3v-1013.3h-1925.3z" fill="#fff"/>
<g fill="none" stroke="#000">
<path d="m539.99 46.061-428.82 371.3" clip-path="url(#a)"/>
<path d="m539.99 46.061-378.14 739.91" clip-path="url(#a)"/>
<path d="m539.99 46.061-278.08 371.3" clip-path="url(#a)"/>
<path d="m539.99 46.061-74.029 739.91" clip-path="url(#a)"/>
<path d="m539.99 46.061 209.55 185.89" clip-path="url(#a)"/>
<path d="m539.99 46.061 455.34 739.91" clip-path="url(#a)"/>
<path d="m539.99 46.061 608.75 185.89" clip-path="url(#a)"/>
<path d="m539.99 46.061-114.58 739.91" clip-path="url(#a)"/>
<path d="m111.17 417.36-20.274 184.79" clip-path="url(#a)"/>
<path d="m111.17 417.36-7.8842 368.61" clip-path="url(#a)"/>
<path d="m111.17 417.36 3.379 368.61" clip-path="url(#a)"/>
<path d="m111.17 417.36 24.779 184.79" clip-path="url(#a)"/>
<path d="m161.85 785.97v181.3" clip-path="url(#a)"/>
<path d="m261.91 417.36-79.781 368.61" clip-path="url(#a)"/>
<path d="m261.91 417.36-57.255 368.61" clip-path="url(#a)"/>
<path d="m261.91 417.36 11.451 368.61" clip-path="url(#a)"/>
<path d="m261.91 417.36-5.4439 368.61" clip-path="url(#a)"/>
<path d="m261.91 417.36 23.84 368.61" clip-path="url(#a)"/>
<path d="m261.91 417.36 107.19 184.79" clip-path="url(#a)"/>
<path d="m465.96 785.97v181.3" clip-path="url(#a)"/>
<path d="m749.54 231.95-129.65 185.42" clip-path="url(#a)"/>
<path d="m749.54 231.95 7.0082 554.03" clip-path="url(#a)"/>
<path d="m749.54 231.95 122.64 370.2" clip-path="url(#a)"/>
<path d="m995.33 785.97v181.3" clip-path="url(#a)"/>
<path d="m1148.7 231.95-54.289 554.03" clip-path="url(#a)"/>
<path d="m1148.7 231.95 381.6 185.42" clip-path="url(#a)"/>
<path d="m1148.7 231.95-498.06 554.03" clip-path="url(#a)" stroke-dasharray="3.7,1.6"/>
<path d="m1148.7 231.95 49.333 554.03" clip-path="url(#a)"/>
<path d="m1148.7 231.95 121.42 554.03" clip-path="url(#a)"/>
<path d="m1094.4 785.97-33.79 181.3" clip-path="url(#a)"/>
<path d="m1094.4 785.97 33.79 181.3" clip-path="url(#a)"/>
<path d="m1530.3 417.36-147.55 184.79" clip-path="url(#a)"/>
<path d="m1530.3 417.36 177.96 184.79" clip-path="url(#a)"/>
<path d="m1530.3 417.36-30.411 368.61" clip-path="url(#a)"/>
<path d="m1382.8 602.15-38.295 183.82" clip-path="url(#a)"/>
<path d="m1382.8 602.15 38.295 183.82" clip-path="url(#a)"/>
<path d="m1708.3 602.15-127.27 183.82" clip-path="url(#a)"/>
<path d="m1708.3 602.15-43.927 183.82" clip-path="url(#a)"/>
<path d="m1708.3 602.15 41.674 183.82" clip-path="url(#a)"/>
<path d="m1708.3 602.15 129.53 183.82" clip-path="url(#a)"/>
<path d="m1581 785.97v181.3" clip-path="url(#a)"/>
<path d="m1664.4 785.97v181.3" clip-path="url(#a)"/>
<path d="m1344.5 785.97v181.3" clip-path="url(#a)"/>
<path d="m1421.1 785.97v181.3" clip-path="url(#a)"/>
<path d="m619.89 417.36-88.604 184.79" clip-path="url(#a)"/>
<path d="m619.89 417.36 6.007 184.79" clip-path="url(#a)"/>
<path d="m619.89 417.36 82.597 368.61" clip-path="url(#a)"/>
<path d="m756.55 785.97v181.3" clip-path="url(#a)"/>
<path d="m872.19 602.15-59.32 183.82" clip-path="url(#a)"/>
<path d="m872.19 602.15-0.75088 183.82" clip-path="url(#a)"/>
<path d="m872.19 602.15 60.07 183.82" clip-path="url(#a)"/>
<path d="m812.87 785.97v181.3" clip-path="url(#a)"/>
<path d="m871.43 785.97v181.3" clip-path="url(#a)"/>
<path d="m932.26 785.97v181.3" clip-path="url(#a)"/>
<path d="m531.29 602.15-22.526 183.82" clip-path="url(#a)"/>
<path d="m531.29 602.15 22.526 183.82" clip-path="url(#a)"/>
<path d="m625.9 602.15-24.779 183.82" clip-path="url(#a)"/>
<path d="m625.9 602.15 24.779 183.82" clip-path="url(#a)"/>
<path d="m702.49 785.97v181.3" clip-path="url(#a)"/>
<path d="m601.12 785.97v181.3" clip-path="url(#a)"/>
<path d="m650.68 785.97v181.3" clip-path="url(#a)"/>
<path d="m508.76 785.97v181.3" clip-path="url(#a)"/>
<path d="m553.81 785.97v181.3" clip-path="url(#a)"/>
<path d="m182.13 785.97v181.3" clip-path="url(#a)"/>
<path d="m204.65 785.97v181.3" clip-path="url(#a)"/>
<path d="m273.36 785.97-43.927 181.3" clip-path="url(#a)"/>
<path d="m273.36 785.97 43.927 181.3" clip-path="url(#a)"/>
<path d="m256.46 785.97v181.3" clip-path="url(#a)"/>
<path d="m285.75 785.97v181.3" clip-path="url(#a)"/>
<path d="m369.1 602.15-18.021 183.82" clip-path="url(#a)"/>
<path d="m369.1 602.15 18.021 183.82" clip-path="url(#a)"/>
<path d="m351.07 785.97v181.3" clip-path="url(#a)"/>
<path d="m387.12 785.97v181.3" clip-path="url(#a)"/>
<path d="m90.894 602.15-3.379 183.82" clip-path="url(#a)"/>
<path d="m90.894 602.15 3.379 183.82" clip-path="url(#a)"/>
<path d="m103.28 785.97v181.3" clip-path="url(#a)"/>
<path d="m114.55 785.97v181.3" clip-path="url(#a)"/>
<path d="m135.95 602.15-7.8842 183.82" clip-path="url(#a)"/>
<path d="m135.95 602.15 7.8842 183.82" clip-path="url(#a)"/>
<path d="m128.06 785.97v181.3" clip-path="url(#a)"/>
<path d="m143.83 785.97v181.3" clip-path="url(#a)"/>
<path d="m87.515 785.97v181.3" clip-path="url(#a)"/>
<path d="m94.273 785.97v181.3" clip-path="url(#a)"/>
<path d="m211.88 231.95-50.027 554.03" clip-path="url(#a)"/>
<path d="m211.88 231.95 50.027 185.42" clip-path="url(#a)"/>
<path d="m425.41 785.97v181.3" clip-path="url(#a)"/>
<path d="m1198.1 785.97v181.3" clip-path="url(#a)"/>
<path d="m1270.2 785.97v181.3" clip-path="url(#a)"/>
<path d="m1499.9 785.97v181.3" clip-path="url(#a)"/>
<path d="m1750 785.97v181.3" clip-path="url(#a)"/>
<path d="m1837.8 785.97v181.3" clip-path="url(#a)"/>
</g>
<path d="m327.41 238.42 4.5482-3.9381q1.8144-1.571 0.24337-3.3854l-5.0681-5.8532q-1.571-1.8144-3.3854-0.24337l-4.5482 3.9381q-1.8144 1.571-0.24337 3.3854l5.0681 5.8532q1.571 1.8144 3.3854 0.24337z" clip-path="url(#a)" fill="#fff" stroke="#fff"/>
<g clip-path="url(#a)">
<defs>
<path id="y" d="m9.8125 72.906h9.8594v-29.891h35.844v29.891h9.8594v-72.906h-9.8594v34.719h-35.844v-34.719h-9.8594z"/>
</defs>
<g transform="translate(324.75 235.35) rotate(-40.888) scale(.08 -.08)">
<use xlink:href="#y"/>
</g>
</g>
<path d="m355.49 420.85 2.0285-3.9692q1.0922-2.1371-1.0449-3.2293l-6.8943-3.5234q-2.1371-1.0922-3.2293 1.0449l-2.0285 3.9692q-1.0922 2.1371 1.0449 3.2293l6.8943 3.5234q2.1371 1.0922 3.2293-1.0449z" clip-path="url(#a)" fill="#fff" stroke="#fff"/>
<g clip-path="url(#a)">
<defs>
<path id="x" d="m9.8125 72.906h9.8594v-64.609h35.5v-8.2969h-45.359z"/>
</defs>
<g transform="translate(351.87 419.01) rotate(-62.93) scale(.08 -.08)">
<use xlink:href="#x"/>
</g>
</g>
<path d="m404.16 237.88 3.6065-4.8155q1.4387-1.921-0.48229-3.3597l-6.1972-4.6413q-1.921-1.4387-3.3597 0.48229l-3.6065 4.8155q-1.4387 1.921 0.48229 3.3597l6.1972 4.6413q1.921 1.4387 3.3597-0.48229z" clip-path="url(#a)" fill="#fff" stroke="#fff"/>
<g clip-path="url(#a)">
<g transform="translate(400.91 235.44) rotate(-53.169) scale(.08 -.08)">
<use xlink:href="#y"/>
</g>
</g>
<path d="m508.99 418.86 0.44376-4.4354q0.23893-2.3881-2.1491-2.627l-7.704-0.7708q-2.3881-0.23893-2.627 2.1491l-0.44376 4.4354q-0.23893 2.3881 2.1491 2.627l7.704 0.7708q2.3881 0.23893 2.627-2.1491z" clip-path="url(#a)" fill="#fff" stroke="#fff"/>
<g clip-path="url(#a)">
<g transform="translate(504.95 418.45) rotate(-84.287) scale(.08 -.08)">
<use xlink:href="#x"/>
</g>
</g>
<path d="m638.35 141.7 4.5007 3.9924q1.7954 1.5926 3.388-0.20279l5.1379-5.7921q1.5926-1.7954-0.20279-3.388l-4.5007-3.9924q-1.7954-1.5926-3.388 0.20279l-5.1379 5.7921q-1.5926 1.7954 0.20279 3.388z" clip-path="url(#a)" fill="#fff" stroke="#fff"/>
<g clip-path="url(#a)">
<g transform="translate(641.05 138.66) rotate(41.575) scale(.08 -.08)">
<use xlink:href="#y"/>
</g>
</g>
<path d="m761.15 417.4 2.3362 3.7962q1.2579 2.044 3.3018 0.78611l6.5939-4.0579q2.044-1.2579 0.78611-3.3018l-2.3362-3.7962q-1.2579-2.044-3.3018-0.78611l-6.5939 4.0579q-2.044 1.2579-0.78611 3.3018z" clip-path="url(#a)" fill="#fff" stroke="#fff"/>
<g clip-path="url(#a)">
<g transform="translate(764.61 415.28) rotate(58.392) scale(.08 -.08)">
<use xlink:href="#x"/>
</g>
</g>
<path d="m839.65 144.12 5.754 1.757q2.2954 0.70091 2.9963-1.5945l2.2612-7.405q0.70091-2.2954-1.5945-2.9963l-5.754-1.757q-2.2954-0.70091-2.9963 1.5945l-2.2612 7.405q-0.70091 2.2954 1.5945 2.9963z" clip-path="url(#a)" fill="#fff" stroke="#fff"/>
<g clip-path="url(#a)">
<g transform="translate(840.84 140.24) rotate(16.98) scale(.08 -.08)">
<use xlink:href="#y"/>
</g>
</g>
<path d="m488.45 419.87 0.89598-5.786q0.36727-2.3717-2.0045-2.739l-7.6513-1.1848q-2.3717-0.36727-2.739 2.0045l-0.89598 5.786q-0.36727 2.3717 2.0045 2.739l7.6513 1.1848q2.3717 0.36727 2.739-2.0045z" clip-path="url(#a)" fill="#fff" stroke="#fff"/>
<g clip-path="url(#a)">
<defs>
<path id="v" d="m8.6875 72.906h9.9219v-44.297q0-11.719 4.2344-16.875 4.25-5.1406 13.781-5.1406 9.4688 0 13.719 5.1406 4.25 5.1562 4.25 16.875v44.297h9.9062v-45.516q0-14.25-7.0625-21.531-7.0469-7.2812-20.812-7.2812-13.828 0-20.891 7.2812-7.0469 7.2812-7.0469 21.531z"/>
</defs>
<g transform="translate(484.43 419.25) rotate(-81.198) scale(.08 -.08)">
<use xlink:href="#v"/>
</g>
</g>
<path d="m106.97 513.16 0.59683-5.4399q0.26174-2.3857-2.1239-2.6474l-7.6963-0.8444q-2.3857-0.26174-2.6474 2.1239l-0.59683 5.4399q-0.26174 2.3857 2.1239 2.6474l7.6963 0.8444q2.3857 0.26174 2.6474-2.1239z" clip-path="url(#a)" fill="#fff" stroke="#fff"/>
<g clip-path="url(#a)">
<defs>
<path id="r" d="m34.188 63.188-13.391-36.281h26.812zm-5.5781 9.7188h11.188l27.781-72.906h-10.25l-6.6406 18.703h-32.859l-6.6406-18.703h-10.406z"/>
</defs>
<g transform="translate(102.93 512.72) rotate(-83.739) scale(.08 -.08)">
<use xlink:href="#r"/>
</g>
</g>
<path d="m113.45 604.1 0.098394-4.6002q0.051322-2.3995-2.3481-2.4508l-7.7407-0.16557q-2.3995-0.051322-2.4508 2.3481l-0.098394 4.6002q-0.051322 2.3995 2.3481 2.4508l7.7407 0.16557q2.3995 0.051322 2.4508-2.3481z" clip-path="url(#a)" fill="#fff" stroke="#fff"/>
<g clip-path="url(#a)">
<defs>
<path id="an" d="m9.8125 72.906h41.891v-8.3125h-32.031v-21.484h28.906v-8.2969h-28.906v-34.812h-9.8594z"/>
</defs>
<g transform="translate(109.38 604.01) rotate(-88.775) scale(.08 -.08)">
<use xlink:href="#an"/>
</g>
</g>
<path d="m106.56 598.63 0.05682 6.1985q0.022 2.3999 2.4219 2.3779l7.7422-0.070971q2.3999-0.021999 2.3779-2.4219l-0.05682-6.1985q-0.021999-2.3999-2.4219-2.3779l-7.7422 0.07097q-2.3999 0.022-2.3779 2.4219z" clip-path="url(#a)" fill="#fff" stroke="#fff"/>
<g clip-path="url(#a)">
<defs>
<path id="at" d="m59.516 10.406v19.578h-16.109v8.1094h25.875v-31.312q-5.7031-4.0469-12.594-6.125-6.875-2.0781-14.688-2.0781-17.094 0-26.75 9.9844-9.6406 10-9.6406 27.812 0 17.875 9.6406 27.859 9.6562 9.9844 26.75 9.9844 7.125 0 13.547-1.7656 6.4219-1.75 11.844-5.1719v-10.5q-5.4688 4.6406-11.625 6.9844t-12.938 2.3438q-13.391 0-20.109-7.4688-6.7031-7.4688-6.7031-22.266 0-14.75 6.7031-22.219 6.7188-7.4688 20.109-7.4688 5.2188 0 9.3125 0.90625 4.1094 0.90625 7.375 2.8125z"/>
</defs>
<g transform="translate(110.62 598.59) rotate(89.475) scale(.08 -.08)">
<use xlink:href="#at"/>
</g>
</g>
<path d="m117 508.07 0.67499 5.0337q0.31897 2.3787 2.6977 2.0597l7.6738-1.029q2.3787-0.31897 2.0597-2.6977l-0.675-5.0337q-0.31897-2.3787-2.6977-2.0597l-7.6738 1.029q-2.3787 0.31897-2.0597 2.6977z" clip-path="url(#a)" fill="#fff" stroke="#fff"/>
<g clip-path="url(#a)">
<defs>
<path id="ar" d="m53.516 70.516v-9.625q-5.6094 2.6875-10.594 4-4.9844 1.3281-9.625 1.3281-8.0469 0-12.422-3.125t-4.375-8.8906q0-4.8438 2.9062-7.3125 2.9062-2.4531 11.016-3.9688l5.9531-1.2188q11.031-2.1094 16.281-7.4062t5.25-14.172q0-10.609-7.1094-16.078-7.0938-5.4688-20.812-5.4688-5.1719 0-11.016 1.1719-5.8281 1.1719-12.078 3.4688v10.156q6-3.3594 11.766-5.0781 5.7656-1.7031 11.328-1.7031 8.4375 0 13.031 3.3125 4.5938 3.3281 4.5938 9.4844 0 5.3594-3.2969 8.3906t-10.812 4.5469l-6.0156 1.1719q-11.031 2.1875-15.969 6.875-4.9219 4.6875-4.9219 13.047 0 9.6719 6.8125 15.234t18.766 5.5625q5.1406 0 10.453-0.9375 5.3281-0.92188 10.891-2.7656z"/>
</defs>
<g transform="translate(121.03 507.53) rotate(82.362) scale(.08 -.08)">
<use xlink:href="#ar"/>
</g>
</g>
<path d="m155.58 859.72v33.808q0 2.4 2.4 2.4h7.7425q2.4 0 2.4-2.4v-33.808q0-2.4-2.4-2.4h-7.7425q-2.4 0-2.4 2.4z" clip-path="url(#a)" fill="#fff" stroke="#fff"/>
<g clip-path="url(#a)">
<defs>
<path id="l" d="m-0.29688 72.906h61.672v-8.3125h-25.875v-64.594h-9.9062v64.594h-25.891z"/>
<path id="d" d="m56.203 29.594v-4.3906h-41.312q0.59375-9.2812 5.5938-14.141t13.938-4.8594q5.1719 0 10.031 1.2656t9.6562 3.8125v-8.5q-4.8438-2.0469-9.9219-3.125t-10.297-1.0781q-13.094 0-20.734 7.6094-7.6406 7.625-7.6406 20.625 0 13.422 7.25 21.297 7.25 7.8906 19.562 7.8906 11.031 0 17.453-7.1094 6.4219-7.0938 6.4219-19.297zm-8.9844 2.6406q-0.09375 7.3594-4.125 11.75-4.0312 4.4062-10.672 4.4062-7.5156 0-12.031-4.25t-5.2031-11.969z"/>
<path id="g" d="m41.109 46.297q-1.5156 0.875-3.2969 1.2812-1.7812 0.42188-3.9219 0.42188-7.625 0-11.703-4.9531t-4.0781-14.234v-28.812h-9.0312v54.688h9.0312v-8.5q2.8438 4.9844 7.375 7.3906 4.5469 2.4219 11.047 2.4219 0.92188 0 2.0469-0.125 1.125-0.10938 2.4844-0.35938z"/>
<path id="k" d="m52 44.188q3.375 6.0625 8.0625 8.9375t11.031 2.875q8.5469 0 13.188-5.9844 4.6406-5.9688 4.6406-17v-33.016h-9.0312v32.719q0 7.8594-2.7969 11.656-2.7812 3.8125-8.4844 3.8125-6.9844 0-11.047-4.6406-4.0469-4.625-4.0469-12.641v-30.906h-9.0312v32.719q0 7.9062-2.7812 11.688t-8.5938 3.7812q-6.8906 0-10.953-4.6562-4.0469-4.6562-4.0469-12.625v-30.906h-9.0312v54.688h9.0312v-8.5q3.0781 5.0312 7.375 7.4219t10.203 2.3906q5.9688 0 10.141-3.0312 4.1719-3.0156 6.1719-8.7812z"/>
<path id="h" d="m9.4219 54.688h8.9844v-54.688h-8.9844zm0 21.297h8.9844v-11.391h-8.9844z"/>
<path id="f" d="m54.891 33.016v-33.016h-8.9844v32.719q0 7.7656-3.0312 11.609-3.0312 3.8594-9.0781 3.8594-7.2812 0-11.484-4.6406-4.2031-4.625-4.2031-12.641v-30.906h-9.0312v54.688h9.0312v-8.5q3.2344 4.9375 7.5938 7.375 4.375 2.4375 10.094 2.4375 9.4219 0 14.25-5.8281 4.8438-5.8281 4.8438-17.156z"/>
<path id="i" d="m34.281 27.484q-10.891 0-15.094-2.4844t-4.2031-8.5q0-4.7812 3.1562-7.5938 3.1562-2.7969 8.5625-2.7969 7.4844 0 12 5.2969t4.5156 14.078v2zm17.922 3.7188v-31.203h-8.9844v8.2969q-3.0781-4.9688-7.6719-7.3438t-11.234-2.375q-8.3906 0-13.359 4.7188-4.9531 4.7188-4.9531 12.625 0 9.2188 6.1719 13.906 6.1875 4.6875 18.438 4.6875h12.609v0.89062q0 6.2031-4.0781 9.5938t-11.453 3.3906q-4.6875 0-9.1406-1.125-4.4375-1.125-8.5312-3.375v8.3125q4.9219 1.9062 9.5625 2.8438 4.6406 0.95312 9.0312 0.95312 11.875 0 17.734-6.1562 5.8594-6.1406 5.8594-18.641z"/>
<path id="j" d="m9.4219 75.984h8.9844v-75.984h-8.9844z"/>
</defs>
<g transform="translate(159.64 859.72) rotate(90) scale(.08 -.08)">
<use xlink:href="#l"/>
<use x="44.083984" xlink:href="#d"/>
<use x="105.607422" xlink:href="#g"/>
<use x="144.970703" xlink:href="#k"/>
<use x="242.382812" xlink:href="#h"/>
<use x="270.166016" xlink:href="#f"/>
<use x="333.544922" xlink:href="#i"/>
<use x="394.824219" xlink:href="#j"/>
</g>
</g>
<path d="m227.57 605.67 1.1576-5.3487q0.5077-2.3457-1.838-2.8534l-7.5673-1.6378q-2.3457-0.5077-2.8534 1.838l-1.1576 5.3487q-0.5077 2.3457 1.838 2.8534l7.5673 1.6378q2.3457 0.5077 2.8534-1.838z" clip-path="url(#a)" fill="#fff" stroke="#fff"/>
<g clip-path="url(#a)">
<g transform="translate(223.6 604.81) rotate(-77.787) scale(.08 -.08)">
<use xlink:href="#r"/>
</g>
</g>
<path d="m239 605.67 0.94547-6.087q0.36836-2.3716-2.0032-2.7399l-7.6508-1.1884q-2.3716-0.36836-2.7399 2.0032l-0.94547 6.087q-0.36836 2.3716 2.0032 2.7399l7.6508 1.1884q2.3716 0.36836 2.7399-2.0032z" clip-path="url(#a)" fill="#fff" stroke="#fff"/>
<g clip-path="url(#a)">
<defs>
<path id="au" d="m19.672 64.797v-56.688h11.922q15.094 0 22.094 6.8281 7 6.8438 7 21.594 0 14.641-7 21.453t-22.094 6.8125zm-9.8594 8.1094h20.266q21.188 0 31.094-8.8125 9.9219-8.8125 9.9219-27.562 0-18.859-9.9688-27.703-9.9531-8.8281-31.047-8.8281h-20.266z"/>
</defs>
<g transform="translate(234.99 605.05) rotate(-81.171) scale(.08 -.08)">
<use xlink:href="#au"/>
</g>
</g>
<path d="m261.29 599.45 0.14978 4.8214q0.07452 2.3988 2.4734 2.3243l7.7388-0.24041q2.3988-0.074521 2.3243-2.4734l-0.14978-4.8214q-0.074521-2.3988-2.4734-2.3243l-7.7388 0.24041q-2.3988 0.07452-2.3243 2.4734z" clip-path="url(#a)" fill="#fff" stroke="#fff"/>
<g clip-path="url(#a)">
<defs>
<path id="w" d="m19.672 64.797v-27.391h12.406q6.8906 0 10.641 3.5625 3.7656 3.5625 3.7656 10.156 0 6.5469-3.7656 10.109-3.75 3.5625-10.641 3.5625zm-9.8594 8.1094h22.266q12.266 0 18.531-5.5469 6.2812-5.5469 6.2812-16.234 0-10.797-6.2812-16.312-6.2656-5.5156-18.531-5.5156h-12.406v-29.297h-9.8594z"/>
</defs>
<g transform="translate(265.35 599.32) rotate(88.221) scale(.08 -.08)">
<use xlink:href="#w"/>
</g>
</g>
<path d="m265.42 604.5 0.080813-5.4719q0.035441-2.3997-2.3643-2.4352l-7.7417-0.11433q-2.3997-0.035441-2.4352 2.3643l-0.080812 5.4719q-0.035441 2.3997 2.3643 2.4352l7.7417 0.11433q2.3997 0.035441 2.4352-2.3643z" clip-path="url(#a)" fill="#fff" stroke="#fff"/>
<g clip-path="url(#a)">
<g transform="translate(261.35 604.44) rotate(-89.154) scale(.08 -.08)">
<use xlink:href="#r"/>
</g>
</g>
<path d="m267.42 599.78 0.29697 4.5917q0.1549 2.395 2.5499 2.2401l7.7264-0.49971q2.395-0.1549 2.2401-2.5499l-0.29697-4.5917q-0.1549-2.395-2.5499-2.2401l-7.7264 0.49972q-2.395 0.1549-2.2401 2.5499z" clip-path="url(#a)" fill="#fff" stroke="#fff"/>
<g clip-path="url(#a)">
<g transform="translate(271.48 599.51) rotate(86.299) scale(.08 -.08)">
<use xlink:href="#an"/>
</g>
</g>
<path d="m308.7 510.54 2.7459 4.7338q1.2042 2.076 3.2802 0.8718l6.6973-3.8849q2.076-1.2042 0.8718-3.2802l-2.7459-4.7338q-1.2042-2.076-3.2802-0.8718l-6.6973 3.8849q-2.076 1.2042-0.8718 3.2802z" clip-path="url(#a)" fill="#fff" stroke="#fff"/>
<g clip-path="url(#a)">
<g transform="translate(312.22 508.5) rotate(59.884) scale(.08 -.08)">
<use xlink:href="#r"/>
</g>
</g>
<path d="m459.69 859.72v33.808q0 2.4 2.4 2.4h7.7425q2.4 0 2.4-2.4v-33.808q0-2.4-2.4-2.4h-7.7425q-2.4 0-2.4 2.4z" clip-path="url(#a)" fill="#fff" stroke="#fff"/>
<g clip-path="url(#a)">
<g transform="translate(463.75 859.72) rotate(90) scale(.08 -.08)">
<use xlink:href="#l"/>
<use x="44.083984" xlink:href="#d"/>
<use x="105.607422" xlink:href="#g"/>
<use x="144.970703" xlink:href="#k"/>
<use x="242.382812" xlink:href="#h"/>
<use x="270.166016" xlink:href="#f"/>
<use x="333.544922" xlink:href="#i"/>
<use x="394.824219" xlink:href="#j"/>
</g>
</g>
<path d="m688.29 330.49 3.136-4.4848q1.3753-1.9668-0.59153-3.3422l-6.3451-4.4368q-1.9668-1.3753-3.3422 0.59153l-3.136 4.4848q-1.3753 1.9668 0.59153 3.3422l6.3451 4.4368q1.9668 1.3753 3.3422-0.59153z" clip-path="url(#a)" fill="#fff" stroke="#fff"/>
<g clip-path="url(#a)">
<g transform="translate(684.96 328.16) rotate(-55.037) scale(.08 -.08)">
<use xlink:href="#r"/>
</g>
</g>
<path d="m746.74 506.63 0.061014 4.8234q0.030357 2.3998 2.4302 2.3695l7.7419-0.097932q2.3998-0.030357 2.3695-2.4302l-0.061014-4.8234q-0.030357-2.3998-2.4302-2.3695l-7.7419 0.097931q-2.3998 0.030357-2.3695 2.4302z" clip-path="url(#a)" fill="#fff" stroke="#fff"/>
<g clip-path="url(#a)">
<g transform="translate(750.81 506.58) rotate(89.275) scale(.08 -.08)">
<use xlink:href="#w"/>
</g>
</g>
<path d="m804.05 416.42 1.721 5.1948q0.75475 2.2782 3.033 1.5235l7.3497-2.4349q2.2782-0.75475 1.5235-3.033l-1.721-5.1948q-0.75475-2.2782-3.033-1.5235l-7.3497 2.4349q-2.2782 0.75475-1.5235 3.033z" clip-path="url(#a)" fill="#fff" stroke="#fff"/>
<g clip-path="url(#a)">
<g transform="translate(807.91 415.14) rotate(71.671) scale(.08 -.08)">
<use xlink:href="#r"/>
</g>
</g>
<path d="m989.06 859.72v33.808q0 2.4 2.4 2.4h7.7425q2.4 0 2.4-2.4v-33.808q0-2.4-2.4-2.4h-7.7425q-2.4 0-2.4 2.4z" clip-path="url(#a)" fill="#fff" stroke="#fff"/>
<g clip-path="url(#a)">
<g transform="translate(993.12 859.72) rotate(90) scale(.08 -.08)">
<use xlink:href="#l"/>
<use x="44.083984" xlink:href="#d"/>
<use x="105.607422" xlink:href="#g"/>
<use x="144.970703" xlink:href="#k"/>
<use x="242.382812" xlink:href="#h"/>
<use x="270.166016" xlink:href="#f"/>
<use x="333.544922" xlink:href="#i"/>
<use x="394.824219" xlink:href="#j"/>
</g>
</g>
<path d="m1127.6 511.97 0.47042-4.8008q0.23405-2.3886-2.1545-2.6226l-7.7056-0.75507q-2.3886-0.23405-2.6226 2.1545l-0.47042 4.8008q-0.23405 2.3886 2.1545 2.6226l7.7056 0.75507q2.3886 0.23405 2.6226-2.1545z" clip-path="url(#a)" fill="#fff" stroke="#fff"/>
<g clip-path="url(#a)">
<g transform="translate(1123.6 511.57) rotate(-84.403) scale(.08 -.08)">
<use xlink:href="#w"/>
</g>
</g>
<path d="m1334.3 329.1 4.9222 2.3917q2.1587 1.0489 3.2076-1.1098l3.3837-6.964q1.0489-2.1587-1.1098-3.2076l-4.9222-2.3917q-2.1587-1.0489-3.2076 1.1098l-3.3837 6.9639q-1.0489 2.1587 1.1098 3.2076z" clip-path="url(#a)" fill="#fff" stroke="#fff"/>
<g clip-path="url(#a)">
<g transform="translate(1336.1 325.44) rotate(25.915) scale(.08 -.08)">
<use xlink:href="#r"/>
</g>
</g>
<path d="m902.54 515.19 3.6586-4.0697q1.6045-1.7848-0.1803-3.3893l-5.7579-5.1762q-1.7848-1.6045-3.3893 0.1803l-3.6586 4.0697q-1.6045 1.7848 0.1803 3.3893l5.7579 5.1762q1.7848 1.6045 3.3893-0.1803z" clip-path="url(#a)" fill="#fff" stroke="#fff"/>
<g clip-path="url(#a)">
<g transform="translate(899.52 512.47) rotate(-48.045) scale(.08 -.08)">
<use xlink:href="#r"/>
</g>
</g>
<path d="m1166.9 506.6 0.5193 5.8319q0.21286 2.3905 2.6034 2.1777l7.712-0.68671q2.3905-0.21286 2.1777-2.6034l-0.5193-5.8319q-0.21286-2.3905-2.6034-2.1777l-7.712 0.68671q-2.3905 0.21286-2.1777 2.6034z" clip-path="url(#a)" fill="#fff" stroke="#fff"/>
<g clip-path="url(#a)">
<g transform="translate(1170.9 506.24) rotate(84.912) scale(.08 -.08)">
<use xlink:href="#v"/>
</g>
</g>
<path d="m1202.7 507.44 1.2534 5.7193q0.51378 2.3444 2.8581 1.8306l7.563-1.6575q2.3444-0.51378 1.8306-2.8581l-1.2534-5.7193q-0.51378-2.3444-2.8581-1.8306l-7.563 1.6575q-2.3444 0.51378-1.8306 2.8581z" clip-path="url(#a)" fill="#fff" stroke="#fff"/>
<g clip-path="url(#a)">
<g transform="translate(1206.7 506.57) rotate(77.639) scale(.08 -.08)">
<use xlink:href="#v"/>
</g>
</g>
<path d="m1080.6 894.39 6.1942-33.235q0.43972-2.3594-1.9196-2.7991l-7.6114-1.4186q-2.3594-0.43972-2.7991 1.9196l-6.1942 33.235q-0.43972 2.3594 1.9196 2.7991l7.6114 1.4186q2.3594 0.43972 2.7991-1.9196z" clip-path="url(#a)" fill="#fff" stroke="#fff"/>
<g clip-path="url(#a)">
<g transform="translate(1076.6 893.64) rotate(-79.443) scale(.08 -.08)">
<use xlink:href="#l"/>
<use x="44.083984" xlink:href="#d"/>
<use x="105.607422" xlink:href="#g"/>
<use x="144.970703" xlink:href="#k"/>
<use x="242.382812" xlink:href="#h"/>
<use x="270.166016" xlink:href="#f"/>
<use x="333.544922" xlink:href="#i"/>
<use x="394.824219" xlink:href="#j"/>
</g>
</g>
<path d="m1102.1 861.15 6.1942 33.235q0.43972 2.3594 2.7991 1.9196l7.6114-1.4186q2.3594-0.43972 1.9196-2.7991l-6.1942-33.235q-0.43972-2.3594-2.7991-1.9196l-7.6114 1.4186q-2.3594 0.43972-1.9196 2.7991z" clip-path="url(#a)" fill="#fff" stroke="#fff"/>
<g clip-path="url(#a)">
<g transform="translate(1106.1 860.41) rotate(79.443) scale(.08 -.08)">
<use xlink:href="#l"/>
<use x="44.083984" xlink:href="#d"/>
<use x="105.607422" xlink:href="#g"/>
<use x="144.970703" xlink:href="#k"/>
<use x="242.382812" xlink:href="#h"/>
<use x="270.166016" xlink:href="#f"/>
<use x="333.544922" xlink:href="#i"/>
<use x="394.824219" xlink:href="#j"/>
</g>
</g>
<path d="m1459.6 516.02 3.754-4.7014q1.4975-1.8755-0.37795-3.373l-6.0504-4.8311q-1.8755-1.4975-3.373 0.37795l-3.754 4.7014q-1.4975 1.8755 0.37795 3.373l6.0504 4.8311q1.8755 1.4975 3.373-0.37795z" clip-path="url(#a)" fill="#fff" stroke="#fff"/>
<g clip-path="url(#a)">
<g transform="translate(1456.4 513.48) rotate(-51.393) scale(.08 -.08)">
<use xlink:href="#y"/>
</g>
</g>
<path d="m1612.7 511.94 4.1733 4.3334q1.6648 1.7287 3.3935 0.06388l5.5768-5.3708q1.7287-1.6648 0.06388-3.3935l-4.1733-4.3334q-1.6648-1.7287-3.3935-0.06388l-5.5768 5.3708q-1.7287 1.6648-0.06388 3.3935z" clip-path="url(#a)" fill="#fff" stroke="#fff"/>
<g clip-path="url(#a)">
<g transform="translate(1615.6 509.12) rotate(46.078) scale(.08 -.08)">
<use xlink:href="#y"/>
</g>
</g>
<path d="m1521.1 605.1 0.48141-5.8352q0.19733-2.3919-2.1945-2.5892l-7.7163-0.6366q-2.3919-0.19733-2.5892 2.1945l-0.48141 5.8352q-0.19733 2.3919 2.1945 2.5892l7.7163 0.6366q2.3919 0.19733 2.5892-2.1945z" clip-path="url(#a)" fill="#fff" stroke="#fff"/>
<g clip-path="url(#a)">
<g transform="translate(1517.1 604.77) rotate(-85.284) scale(.08 -.08)">
<use xlink:href="#v"/>
</g>
</g>
<path d="m1369.2 698.02 1.1161-5.3575q0.48947-2.3496-1.8601-2.839l-7.5798-1.5791q-2.3496-0.48947-2.839 1.8601l-1.1161 5.3575q-0.48947 2.3496 1.8601 2.839l7.5798 1.5791q2.3496 0.48947 2.839-1.8601z" clip-path="url(#a)" fill="#fff" stroke="#fff"/>
<g clip-path="url(#a)">
<g transform="translate(1365.2 697.19) rotate(-78.232) scale(.08 -.08)">
<use xlink:href="#r"/>
</g>
</g>
<path d="m1395.3 692.98 0.98379 4.7224q0.48947 2.3496 2.839 1.8601l7.5798-1.5791q2.3496-0.48947 1.8601-2.839l-0.98379-4.7224q-0.48947-2.3496-2.839-1.8601l-7.5798 1.5791q-2.3496 0.48947-1.8601 2.839z" clip-path="url(#a)" fill="#fff" stroke="#fff"/>
<g clip-path="url(#a)">
<g transform="translate(1399.3 692.15) rotate(78.232) scale(.08 -.08)">
<use xlink:href="#w"/>
</g>
</g>
<path d="m1648.3 699.88 3.1152-4.4993q1.3662-1.9732-0.60701-3.3394l-6.3656-4.4074q-1.9732-1.3662-3.3394 0.60701l-3.1152 4.4993q-1.3662 1.9732 0.60701 3.3394l6.3656 4.4074q1.9732 1.3662 3.3394-0.60701z" clip-path="url(#a)" fill="#fff" stroke="#fff"/>
<g clip-path="url(#a)">
<g transform="translate(1644.9 697.57) rotate(-55.302) scale(.08 -.08)">
<use xlink:href="#r"/>
</g>
</g>
<path d="m1691.9 697.86 1.1211-4.6917q0.5578-2.3343-1.7765-2.8921l-7.5305-1.7995q-2.3343-0.5578-2.8921 1.7765l-1.1211 4.6917q-0.5578 2.3343 1.7765 2.8921l7.5305 1.7995q2.3343 0.5578 2.8921-1.7765z" clip-path="url(#a)" fill="#fff" stroke="#fff"/>
<g clip-path="url(#a)">
<g transform="translate(1687.9 696.92) rotate(-76.561) scale(.08 -.08)">
<use xlink:href="#w"/>
</g>
</g>
<path d="m1722.4 692.59 1.2945 5.7101q0.53063 2.3406 2.8712 1.81l7.5509-1.7118q2.3406-0.53063 1.81-2.8712l-1.2945-5.7101q-0.53063-2.3406-2.8712-1.81l-7.5509 1.7118q-2.3406 0.53063-1.81 2.8712z" clip-path="url(#a)" fill="#fff" stroke="#fff"/>
<g clip-path="url(#a)">
<g transform="translate(1726.3 691.69) rotate(77.227) scale(.08 -.08)">
<use xlink:href="#v"/>
</g>
</g>
<path d="m1766.2 695.28 3.3725 4.7862q1.3824 1.9619 3.3443 0.57948l6.3291-4.4597q1.9619-1.3824 0.57948-3.3443l-3.3725-4.7862q-1.3824-1.9619-3.3443-0.57948l-6.3291 4.4597q-1.9619 1.3824-0.57948 3.3443z" clip-path="url(#a)" fill="#fff" stroke="#fff"/>
<g clip-path="url(#a)">
<g transform="translate(1769.6 692.94) rotate(54.83) scale(.08 -.08)">
<use xlink:href="#v"/>
</g>
</g>
<path d="m1574.7 859.72v33.808q0 2.4 2.4 2.4h7.7425q2.4 0 2.4-2.4v-33.808q0-2.4-2.4-2.4h-7.7425q-2.4 0-2.4 2.4z" clip-path="url(#a)" fill="#fff" stroke="#fff"/>
<g clip-path="url(#a)">
<g transform="translate(1578.8 859.72) rotate(90) scale(.08 -.08)">
<use xlink:href="#l"/>
<use x="44.083984" xlink:href="#d"/>
<use x="105.607422" xlink:href="#g"/>
<use x="144.970703" xlink:href="#k"/>
<use x="242.382812" xlink:href="#h"/>
<use x="270.166016" xlink:href="#f"/>
<use x="333.544922" xlink:href="#i"/>
<use x="394.824219" xlink:href="#j"/>
</g>
</g>
<path d="m1658.1 859.72v33.808q0 2.4 2.4 2.4h7.7425q2.4 0 2.4-2.4v-33.808q0-2.4-2.4-2.4h-7.7425q-2.4 0-2.4 2.4z" clip-path="url(#a)" fill="#fff" stroke="#fff"/>
<g clip-path="url(#a)">
<g transform="translate(1662.2 859.72) rotate(90) scale(.08 -.08)">
<use xlink:href="#l"/>
<use x="44.083984" xlink:href="#d"/>
<use x="105.607422" xlink:href="#g"/>
<use x="144.970703" xlink:href="#k"/>
<use x="242.382812" xlink:href="#h"/>
<use x="270.166016" xlink:href="#f"/>
<use x="333.544922" xlink:href="#i"/>
<use x="394.824219" xlink:href="#j"/>
</g>
</g>
<path d="m1338.2 859.72v33.808q0 2.4 2.4 2.4h7.7425q2.4 0 2.4-2.4v-33.808q0-2.4-2.4-2.4h-7.7425q-2.4 0-2.4 2.4z" clip-path="url(#a)" fill="#fff" stroke="#fff"/>
<g clip-path="url(#a)">
<g transform="translate(1342.3 859.72) rotate(90) scale(.08 -.08)">
<use xlink:href="#l"/>
<use x="44.083984" xlink:href="#d"/>
<use x="105.607422" xlink:href="#g"/>
<use x="144.970703" xlink:href="#k"/>
<use x="242.382812" xlink:href="#h"/>
<use x="270.166016" xlink:href="#f"/>
<use x="333.544922" xlink:href="#i"/>
<use x="394.824219" xlink:href="#j"/>
</g>
</g>
<path d="m1414.8 859.72v33.808q0 2.4 2.4 2.4h7.7425q2.4 0 2.4-2.4v-33.808q0-2.4-2.4-2.4h-7.7425q-2.4 0-2.4 2.4z" clip-path="url(#a)" fill="#fff" stroke="#fff"/>
<g clip-path="url(#a)">
<g transform="translate(1418.9 859.72) rotate(90) scale(.08 -.08)">
<use xlink:href="#l"/>
<use x="44.083984" xlink:href="#d"/>
<use x="105.607422" xlink:href="#g"/>
<use x="144.970703" xlink:href="#k"/>
<use x="242.382812" xlink:href="#h"/>
<use x="270.166016" xlink:href="#f"/>
<use x="333.544922" xlink:href="#i"/>
<use x="394.824219" xlink:href="#j"/>
</g>
</g>
<path d="m580.2 514.64 2.0856-4.3496q1.0377-2.1641-1.1264-3.2017l-6.9814-3.3475q-2.1641-1.0377-3.2017 1.1264l-2.0856 4.3496q-1.0377 2.1641 1.1264 3.2017l6.9814 3.3475q2.1641 1.0377 3.2017-1.1264z" clip-path="url(#a)" fill="#fff" stroke="#fff"/>
<g clip-path="url(#a)">
<g transform="translate(576.54 512.88) rotate(-64.383) scale(.08 -.08)">
<use xlink:href="#w"/>
</g>
</g>
<path d="m616.54 507.22 0.17781 5.4696q0.077978 2.3987 2.4767 2.3208l7.7384-0.25156q2.3987-0.077978 2.3208-2.4767l-0.17781-5.4696q-0.077978-2.3987-2.4767-2.3208l-7.7384 0.25156q-2.3987 0.077978-2.3208 2.4767z" clip-path="url(#a)" fill="#fff" stroke="#fff"/>
<g clip-path="url(#a)">
<g transform="translate(620.6 507.09) rotate(88.138) scale(.08 -.08)">
<use xlink:href="#r"/>
</g>
</g>
<path d="m654.46 600.33 1.2154 5.4242q0.52477 2.3419 2.8667 1.8172l7.5551-1.6929q2.3419-0.52477 1.8172-2.8667l-1.2154-5.4242q-0.52477-2.3419-2.8667-1.8172l-7.5552 1.6929q-2.3419 0.52477-1.8172 2.8667z" clip-path="url(#a)" fill="#fff" stroke="#fff"/>
<g clip-path="url(#a)">
<defs>
<path id="ad" d="m44.391 34.188q3.1719-1.0781 6.1719-4.5938t6.0312-9.6719l10.016-19.922h-10.609l-9.3125 18.703q-3.625 7.3281-7.0156 9.7188t-9.25 2.3906h-10.75v-30.812h-9.8594v72.906h22.266q12.5 0 18.656-5.2344 6.1562-5.2188 6.1562-15.766 0-6.8906-3.2031-11.438-3.2031-4.5312-9.2969-6.2812zm-24.719 30.609v-25.875h12.406q7.125 0 10.766 3.2969t3.6406 9.6875-3.6406 9.6406-10.766 3.25z"/>
</defs>
<g transform="translate(658.43 599.44) rotate(77.37) scale(.08 -.08)">
<use xlink:href="#ad"/>
</g>
</g>
<path d="m750.28 859.72v33.808q0 2.4 2.4 2.4h7.7425q2.4 0 2.4-2.4v-33.808q0-2.4-2.4-2.4h-7.7425q-2.4 0-2.4 2.4z" clip-path="url(#a)" fill="#fff" stroke="#fff"/>
<g clip-path="url(#a)">
<g transform="translate(754.34 859.72) rotate(90) scale(.08 -.08)">
<use xlink:href="#l"/>
<use x="44.083984" xlink:href="#d"/>
<use x="105.607422" xlink:href="#g"/>
<use x="144.970703" xlink:href="#k"/>
<use x="242.382812" xlink:href="#h"/>
<use x="270.166016" xlink:href="#f"/>
<use x="333.544922" xlink:href="#i"/>
<use x="394.824219" xlink:href="#j"/>
</g>
</g>
<path d="m847.64 698.63 1.7071-5.2901q0.73705-2.284-1.547-3.0211l-7.3683-2.3778q-2.284-0.73705-3.0211 1.547l-1.7071 5.2901q-0.73705 2.284 1.547 3.0211l7.3683 2.3778q2.284 0.73705 3.0211-1.547z" clip-path="url(#a)" fill="#fff" stroke="#fff"/>
<g clip-path="url(#a)">
<g transform="translate(843.77 697.38) rotate(-72.115) scale(.08 -.08)">
<use xlink:href="#ad"/>
</g>
</g>
<path d="m878.07 696.61 0.020649-5.055q0.009803-2.4-2.3902-2.4098l-7.7424-0.031626q-2.4-0.009804-2.4098 2.3902l-0.020648 5.055q-0.009804 2.4 2.3902 2.4098l7.7424 0.031626q2.4 0.009803 2.4098-2.3902z" clip-path="url(#a)" fill="#fff" stroke="#fff"/>
<g clip-path="url(#a)">
<defs>
<path id="ag" d="m9.8125 72.906h46.094v-8.3125h-36.234v-21.578h34.719v-8.2969h-34.719v-26.422h37.109v-8.2969h-46.969z"/>
</defs>
<g transform="translate(874.01 696.6) rotate(-89.766) scale(.08 -.08)">
<use xlink:href="#ag"/>
</g>
</g>
<path d="m895.39 693.35 1.7352 5.3099q0.74549 2.2813 3.0268 1.5358l7.3595-2.405q2.2813-0.74549 1.5358-3.0268l-1.7352-5.3099q-0.74549-2.2813-3.0268-1.5358l-7.3595 2.405q-2.2813 0.74549-1.5358 3.0268z" clip-path="url(#a)" fill="#fff" stroke="#fff"/>
<g clip-path="url(#a)">
<defs>
<path id="z" d="m64.406 67.281v-10.391q-4.9844 4.6406-10.625 6.9219-5.6406 2.2969-11.984 2.2969-12.5 0-19.141-7.6406t-6.6406-22.094q0-14.406 6.6406-22.047t19.141-7.6406q6.3438 0 11.984 2.2969t10.625 6.9375v-10.312q-5.1719-3.5156-10.969-5.2812-5.7812-1.75-12.219-1.75-16.562 0-26.094 10.125-9.5156 10.141-9.5156 27.672 0 17.578 9.5156 27.703 9.5312 10.141 26.094 10.141 6.5312 0 12.312-1.7344 5.7969-1.7344 10.875-5.2031z"/>
</defs>
<g transform="translate(899.25 692.09) rotate(71.903) scale(.08 -.08)">
<use xlink:href="#z"/>
</g>
</g>
<path d="m806.59 859.72v33.808q0 2.4 2.4 2.4h7.7425q2.4 0 2.4-2.4v-33.808q0-2.4-2.4-2.4h-7.7425q-2.4 0-2.4 2.4z" clip-path="url(#a)" fill="#fff" stroke="#fff"/>
<g clip-path="url(#a)">
<g transform="translate(810.66 859.72) rotate(90) scale(.08 -.08)">
<use xlink:href="#l"/>
<use x="44.083984" xlink:href="#d"/>
<use x="105.607422" xlink:href="#g"/>
<use x="144.970703" xlink:href="#k"/>
<use x="242.382812" xlink:href="#h"/>
<use x="270.166016" xlink:href="#f"/>
<use x="333.544922" xlink:href="#i"/>
<use x="394.824219" xlink:href="#j"/>
</g>
</g>
<path d="m865.16 859.72v33.808q0 2.4 2.4 2.4h7.7425q2.4 0 2.4-2.4v-33.808q0-2.4-2.4-2.4h-7.7425q-2.4 0-2.4 2.4z" clip-path="url(#a)" fill="#fff" stroke="#fff"/>
<g clip-path="url(#a)">
<g transform="translate(869.23 859.72) rotate(90) scale(.08 -.08)">
<use xlink:href="#l"/>
<use x="44.083984" xlink:href="#d"/>
<use x="105.607422" xlink:href="#g"/>
<use x="144.970703" xlink:href="#k"/>
<use x="242.382812" xlink:href="#h"/>
<use x="270.166016" xlink:href="#f"/>
<use x="333.544922" xlink:href="#i"/>
<use x="394.824219" xlink:href="#j"/>
</g>
</g>
<path d="m925.98 859.72v33.808q0 2.4 2.4 2.4h7.7425q2.4 0 2.4-2.4v-33.808q0-2.4-2.4-2.4h-7.7425q-2.4 0-2.4 2.4z" clip-path="url(#a)" fill="#fff" stroke="#fff"/>
<g clip-path="url(#a)">
<g transform="translate(930.05 859.72) rotate(90) scale(.08 -.08)">
<use xlink:href="#l"/>
<use x="44.083984" xlink:href="#d"/>
<use x="105.607422" xlink:href="#g"/>
<use x="144.970703" xlink:href="#k"/>
<use x="242.382812" xlink:href="#h"/>
<use x="270.166016" xlink:href="#f"/>
<use x="333.544922" xlink:href="#i"/>
<use x="394.824219" xlink:href="#j"/>
</g>
</g>
<path d="m525.94 697.33 0.61486-5.0175q0.29192-2.3822-2.0903-2.6741l-7.685-0.94175q-2.3822-0.29192-2.6741 2.0903l-0.61486 5.0175q-0.29192 2.3822 2.0903 2.6741l7.685 0.94175q2.3822 0.29192 2.6741-2.0903z" clip-path="url(#a)" fill="#fff" stroke="#fff"/>
<g clip-path="url(#a)">
<g transform="translate(521.91 696.84) rotate(-83.014) scale(.08 -.08)">
<use xlink:href="#ag"/>
</g>
</g>
<path d="m535.98 692.05 0.67948 5.5448q0.29192 2.3822 2.6741 2.0903l7.685-0.94175q2.3822-0.29192 2.0903-2.6741l-0.67948-5.5448q-0.29192-2.3822-2.6741-2.0903l-7.685 0.94175q-2.3822 0.29192-2.0903 2.6741z" clip-path="url(#a)" fill="#fff" stroke="#fff"/>
<g clip-path="url(#a)">
<g transform="translate(540.02 691.56) rotate(83.014) scale(.08 -.08)">
<use xlink:href="#z"/>
</g>
</g>
<path d="m619.35 697.65 0.7426-5.5089q0.32062-2.3785-2.0579-2.6991l-7.6731-1.0343q-2.3785-0.32062-2.6991 2.0579l-0.7426 5.5089q-0.32062 2.3785 2.0579 2.6991l7.6731 1.0343q2.3785 0.32062 2.6991-2.0579z" clip-path="url(#a)" fill="#fff" stroke="#fff"/>
<g clip-path="url(#a)">
<g transform="translate(615.32 697.11) rotate(-82.323) scale(.08 -.08)">
<use xlink:href="#ad"/>
</g>
</g>
<path d="m631.7 692.13 0.74627 5.5362q0.32062 2.3785 2.6991 2.0579l7.6731-1.0343q2.3785-0.32062 2.0579-2.6991l-0.74627-5.5362q-0.32062-2.3785-2.6991-2.0579l-7.6731 1.0343q-2.3785 0.32062-2.0579 2.6991z" clip-path="url(#a)" fill="#fff" stroke="#fff"/>
<g clip-path="url(#a)">
<g transform="translate(635.73 691.59) rotate(82.323) scale(.08 -.08)">
<use xlink:href="#z"/>
</g>
</g>
<path d="m696.22 859.72v33.808q0 2.4 2.4 2.4h7.7425q2.4 0 2.4-2.4v-33.808q0-2.4-2.4-2.4h-7.7425q-2.4 0-2.4 2.4z" clip-path="url(#a)" fill="#fff" stroke="#fff"/>
<g clip-path="url(#a)">
<g transform="translate(700.28 859.72) rotate(90) scale(.08 -.08)">
<use xlink:href="#l"/>
<use x="44.083984" xlink:href="#d"/>
<use x="105.607422" xlink:href="#g"/>
<use x="144.970703" xlink:href="#k"/>
<use x="242.382812" xlink:href="#h"/>
<use x="270.166016" xlink:href="#f"/>
<use x="333.544922" xlink:href="#i"/>
<use x="394.824219" xlink:href="#j"/>
</g>
</g>
<path d="m594.85 859.72v33.808q0 2.4 2.4 2.4h7.7425q2.4 0 2.4-2.4v-33.808q0-2.4-2.4-2.4h-7.7425q-2.4 0-2.4 2.4z" clip-path="url(#a)" fill="#fff" stroke="#fff"/>
<g clip-path="url(#a)">
<g transform="translate(598.91 859.72) rotate(90) scale(.08 -.08)">
<use xlink:href="#l"/>
<use x="44.083984" xlink:href="#d"/>
<use x="105.607422" xlink:href="#g"/>
<use x="144.970703" xlink:href="#k"/>
<use x="242.382812" xlink:href="#h"/>
<use x="270.166016" xlink:href="#f"/>
<use x="333.544922" xlink:href="#i"/>
<use x="394.824219" xlink:href="#j"/>
</g>
</g>
<path d="m644.4 859.72v33.808q0 2.4 2.4 2.4h7.7425q2.4 0 2.4-2.4v-33.808q0-2.4-2.4-2.4h-7.7425q-2.4 0-2.4 2.4z" clip-path="url(#a)" fill="#fff" stroke="#fff"/>
<g clip-path="url(#a)">
<g transform="translate(648.47 859.72) rotate(90) scale(.08 -.08)">
<use xlink:href="#l"/>
<use x="44.083984" xlink:href="#d"/>
<use x="105.607422" xlink:href="#g"/>
<use x="144.970703" xlink:href="#k"/>
<use x="242.382812" xlink:href="#h"/>
<use x="270.166016" xlink:href="#f"/>
<use x="333.544922" xlink:href="#i"/>
<use x="394.824219" xlink:href="#j"/>
</g>
</g>
<path d="m502.49 859.72v33.808q0 2.4 2.4 2.4h7.7425q2.4 0 2.4-2.4v-33.808q0-2.4-2.4-2.4h-7.7425q-2.4 0-2.4 2.4z" clip-path="url(#a)" fill="#fff" stroke="#fff"/>
<g clip-path="url(#a)">
<g transform="translate(506.55 859.72) rotate(90) scale(.08 -.08)">
<use xlink:href="#l"/>
<use x="44.083984" xlink:href="#d"/>
<use x="105.607422" xlink:href="#g"/>
<use x="144.970703" xlink:href="#k"/>
<use x="242.382812" xlink:href="#h"/>
<use x="270.166016" xlink:href="#f"/>
<use x="333.544922" xlink:href="#i"/>
<use x="394.824219" xlink:href="#j"/>
</g>
</g>
<path d="m547.54 859.72v33.808q0 2.4 2.4 2.4h7.7425q2.4 0 2.4-2.4v-33.808q0-2.4-2.4-2.4h-7.7425q-2.4 0-2.4 2.4z" clip-path="url(#a)" fill="#fff" stroke="#fff"/>
<g clip-path="url(#a)">
<g transform="translate(551.6 859.72) rotate(90) scale(.08 -.08)">
<use xlink:href="#l"/>
<use x="44.083984" xlink:href="#d"/>
<use x="105.607422" xlink:href="#g"/>
<use x="144.970703" xlink:href="#k"/>
<use x="242.382812" xlink:href="#h"/>
<use x="270.166016" xlink:href="#f"/>
<use x="333.544922" xlink:href="#i"/>
<use x="394.824219" xlink:href="#j"/>
</g>
</g>
<path d="m175.85 859.72v33.808q0 2.4 2.4 2.4h7.7425q2.4 0 2.4-2.4v-33.808q0-2.4-2.4-2.4h-7.7425q-2.4 0-2.4 2.4z" clip-path="url(#a)" fill="#fff" stroke="#fff"/>
<g clip-path="url(#a)">
<g transform="translate(179.92 859.72) rotate(90) scale(.08 -.08)">
<use xlink:href="#l"/>
<use x="44.083984" xlink:href="#d"/>
<use x="105.607422" xlink:href="#g"/>
<use x="144.970703" xlink:href="#k"/>
<use x="242.382812" xlink:href="#h"/>
<use x="270.166016" xlink:href="#f"/>
<use x="333.544922" xlink:href="#i"/>
<use x="394.824219" xlink:href="#j"/>
</g>
</g>
<path d="m198.38 859.72v33.808q0 2.4 2.4 2.4h7.7425q2.4 0 2.4-2.4v-33.808q0-2.4-2.4-2.4h-7.7425q-2.4 0-2.4 2.4z" clip-path="url(#a)" fill="#fff" stroke="#fff"/>
<g clip-path="url(#a)">
<g transform="translate(202.45 859.72) rotate(90) scale(.08 -.08)">
<use xlink:href="#l"/>
<use x="44.083984" xlink:href="#d"/>
<use x="105.607422" xlink:href="#g"/>
<use x="144.970703" xlink:href="#k"/>
<use x="242.382812" xlink:href="#h"/>
<use x="270.166016" xlink:href="#f"/>
<use x="333.544922" xlink:href="#i"/>
<use x="394.824219" xlink:href="#j"/>
</g>
</g>
<path d="m253.51 894.53 7.9607-32.857q0.56513-2.3325-1.7674-2.8976l-7.5248-1.8231q-2.3325-0.56513-2.8976 1.7674l-7.9607 32.857q-0.56513 2.3325 1.7674 2.8976l7.5248 1.8231q2.3325 0.56513 2.8976-1.7674z" clip-path="url(#a)" fill="#fff" stroke="#fff"/>
<g clip-path="url(#a)">
<g transform="translate(249.56 893.57) rotate(-76.381) scale(.08 -.08)">
<use xlink:href="#l"/>
<use x="44.083984" xlink:href="#d"/>
<use x="105.607422" xlink:href="#g"/>
<use x="144.970703" xlink:href="#k"/>
<use x="242.382812" xlink:href="#h"/>
<use x="270.166016" xlink:href="#f"/>
<use x="333.544922" xlink:href="#i"/>
<use x="394.824219" xlink:href="#j"/>
</g>
</g>
<path d="m285.25 861.67 7.9607 32.857q0.56513 2.3325 2.8976 1.7674l7.5248-1.8231q2.3325-0.56513 1.7674-2.8976l-7.9607-32.857q-0.56513-2.3325-2.8976-1.7674l-7.5248 1.8231q-2.3325 0.56513-1.7674 2.8976z" clip-path="url(#a)" fill="#fff" stroke="#fff"/>
<g clip-path="url(#a)">
<g transform="translate(289.2 860.71) rotate(76.381) scale(.08 -.08)">
<use xlink:href="#l"/>
<use x="44.083984" xlink:href="#d"/>
<use x="105.607422" xlink:href="#g"/>
<use x="144.970703" xlink:href="#k"/>
<use x="242.382812" xlink:href="#h"/>
<use x="270.166016" xlink:href="#f"/>
<use x="333.544922" xlink:href="#i"/>
<use x="394.824219" xlink:href="#j"/>
</g>
</g>
<path d="m250.19 859.72v33.808q0 2.4 2.4 2.4h7.7425q2.4 0 2.4-2.4v-33.808q0-2.4-2.4-2.4h-7.7425q-2.4 0-2.4 2.4z" clip-path="url(#a)" fill="#fff" stroke="#fff"/>
<g clip-path="url(#a)">
<g transform="translate(254.26 859.72) rotate(90) scale(.08 -.08)">
<use xlink:href="#l"/>
<use x="44.083984" xlink:href="#d"/>
<use x="105.607422" xlink:href="#g"/>
<use x="144.970703" xlink:href="#k"/>
<use x="242.382812" xlink:href="#h"/>
<use x="270.166016" xlink:href="#f"/>
<use x="333.544922" xlink:href="#i"/>
<use x="394.824219" xlink:href="#j"/>
</g>
</g>
<path d="m279.48 859.72v33.808q0 2.4 2.4 2.4h7.7425q2.4 0 2.4-2.4v-33.808q0-2.4-2.4-2.4h-7.7425q-2.4 0-2.4 2.4z" clip-path="url(#a)" fill="#fff" stroke="#fff"/>
<g clip-path="url(#a)">
<g transform="translate(283.54 859.72) rotate(90) scale(.08 -.08)">
<use xlink:href="#l"/>
<use x="44.083984" xlink:href="#d"/>
<use x="105.607422" xlink:href="#g"/>
<use x="144.970703" xlink:href="#k"/>
<use x="242.382812" xlink:href="#h"/>
<use x="270.166016" xlink:href="#f"/>
<use x="333.544922" xlink:href="#i"/>
<use x="394.824219" xlink:href="#j"/>
</g>
</g>
<path d="m366.06 697.44 0.54235-5.5322q0.23416-2.3885-2.1544-2.6227l-7.7056-0.75542q-2.3885-0.23416-2.6227 2.1544l-0.54235 5.5322q-0.23416 2.3885 2.1544 2.6227l7.7056 0.75542q2.3885 0.23416 2.6227-2.1544z" clip-path="url(#a)" fill="#fff" stroke="#fff"/>
<g clip-path="url(#a)">
<g transform="translate(362.01 697.04) rotate(-84.401) scale(.08 -.08)">
<use xlink:href="#ad"/>
</g>
</g>
<path d="m371.59 691.89 0.54504 5.5596q0.23416 2.3885 2.6227 2.1544l7.7056-0.75542q2.3886-0.23416 2.1544-2.6227l-0.54504-5.5596q-0.23416-2.3886-2.6227-2.1544l-7.7056 0.75542q-2.3886 0.23416-2.1544 2.6227z" clip-path="url(#a)" fill="#fff" stroke="#fff"/>
<g clip-path="url(#a)">
<g transform="translate(375.64 691.5) rotate(84.401) scale(.08 -.08)">
<use xlink:href="#z"/>
</g>
</g>
<path d="m344.8 859.72v33.808q0 2.4 2.4 2.4h7.7425q2.4 0 2.4-2.4v-33.808q0-2.4-2.4-2.4h-7.7425q-2.4 0-2.4 2.4z" clip-path="url(#a)" fill="#fff" stroke="#fff"/>
<g clip-path="url(#a)">
<g transform="translate(348.87 859.72) rotate(90) scale(.08 -.08)">
<use xlink:href="#l"/>
<use x="44.083984" xlink:href="#d"/>
<use x="105.607422" xlink:href="#g"/>
<use x="144.970703" xlink:href="#k"/>
<use x="242.382812" xlink:href="#h"/>
<use x="270.166016" xlink:href="#f"/>
<use x="333.544922" xlink:href="#i"/>
<use x="394.824219" xlink:href="#j"/>
</g>
</g>
<path d="m380.85 859.72v33.808q0 2.4 2.4 2.4h7.7425q2.4 0 2.4-2.4v-33.808q0-2.4-2.4-2.4h-7.7425q-2.4 0-2.4 2.4z" clip-path="url(#a)" fill="#fff" stroke="#fff"/>
<g clip-path="url(#a)">
<g transform="translate(384.91 859.72) rotate(90) scale(.08 -.08)">
<use xlink:href="#l"/>
<use x="44.083984" xlink:href="#d"/>
<use x="105.607422" xlink:href="#g"/>
<use x="144.970703" xlink:href="#k"/>
<use x="242.382812" xlink:href="#h"/>
<use x="270.166016" xlink:href="#f"/>
<use x="333.544922" xlink:href="#i"/>
<use x="394.824219" xlink:href="#j"/>
</g>
</g>
<path d="m95.428 696.7 0.092904-5.0541q0.044108-2.3996-2.3555-2.4437l-7.7412-0.1423q-2.3996-0.044108-2.4437 2.3555l-0.092903 5.0541q-0.044109 2.3996 2.3555 2.4437l7.7412 0.1423q2.3996 0.044109 2.4437-2.3555z" clip-path="url(#a)" fill="#fff" stroke="#fff"/>
<g clip-path="url(#a)">
<g transform="translate(91.365 696.63) rotate(-88.947) scale(.08 -.08)">
<use xlink:href="#ag"/>
</g>
</g>
<path d="m86.262 691.38 0.10267 5.5853q0.044109 2.3996 2.4437 2.3555l7.7412-0.1423q2.3996-0.044109 2.3555-2.4437l-0.10267-5.5853q-0.044109-2.3996-2.4437-2.3555l-7.7412 0.1423q-2.3996 0.044108-2.3555 2.4437z" clip-path="url(#a)" fill="#fff" stroke="#fff"/>
<g clip-path="url(#a)">
<g transform="translate(90.325 691.31) rotate(88.947) scale(.08 -.08)">
<use xlink:href="#z"/>
</g>
</g>
<path d="m97.012 859.72v33.808q0 2.4 2.4 2.4h7.7425q2.4 0 2.4-2.4v-33.808q0-2.4-2.4-2.4h-7.7425q-2.4 0-2.4 2.4z" clip-path="url(#a)" fill="#fff" stroke="#fff"/>
<g clip-path="url(#a)">
<g transform="translate(101.08 859.72) rotate(90) scale(.08 -.08)">
<use xlink:href="#l"/>
<use x="44.083984" xlink:href="#d"/>
<use x="105.607422" xlink:href="#g"/>
<use x="144.970703" xlink:href="#k"/>
<use x="242.382812" xlink:href="#h"/>
<use x="270.166016" xlink:href="#f"/>
<use x="333.544922" xlink:href="#i"/>
<use x="394.824219" xlink:href="#j"/>
</g>
</g>
<path d="m108.28 859.72v33.808q0 2.4 2.4 2.4h7.7425q2.4 0 2.4-2.4v-33.808q0-2.4-2.4-2.4h-7.7425q-2.4 0-2.4 2.4z" clip-path="url(#a)" fill="#fff" stroke="#fff"/>
<g clip-path="url(#a)">
<g transform="translate(112.34 859.72) rotate(90) scale(.08 -.08)">
<use xlink:href="#l"/>
<use x="44.083984" xlink:href="#d"/>
<use x="105.607422" xlink:href="#g"/>
<use x="144.970703" xlink:href="#k"/>
<use x="242.382812" xlink:href="#h"/>
<use x="270.166016" xlink:href="#f"/>
<use x="333.544922" xlink:href="#i"/>
<use x="394.824219" xlink:href="#j"/>
</g>
</g>
<path d="m138.16 696.85 0.21661-5.0504q0.10284-2.3978-2.295-2.5006l-7.7354-0.33177q-2.3978-0.10284-2.5006 2.295l-0.21661 5.0504q-0.10284 2.3978 2.295 2.5006l7.7354 0.33177q2.3978 0.10284 2.5006-2.295z" clip-path="url(#a)" fill="#fff" stroke="#fff"/>
<g clip-path="url(#a)">
<g transform="translate(134.1 696.68) rotate(-87.544) scale(.08 -.08)">
<use xlink:href="#ag"/>
</g>
</g>
<path d="m133.5 691.54 0.23938 5.5811q0.10284 2.3978 2.5006 2.295l7.7354-0.33177q2.3978-0.10284 2.295-2.5006l-0.23938-5.5811q-0.10284-2.3978-2.5006-2.295l-7.7354 0.33177q-2.3978 0.10284-2.295 2.5006z" clip-path="url(#a)" fill="#fff" stroke="#fff"/>
<g clip-path="url(#a)">
<g transform="translate(137.56 691.36) rotate(87.544) scale(.08 -.08)">
<use xlink:href="#z"/>
</g>
</g>
<path d="m121.79 859.72v33.808q0 2.4 2.4 2.4h7.7425q2.4 0 2.4-2.4v-33.808q0-2.4-2.4-2.4h-7.7425q-2.4 0-2.4 2.4z" clip-path="url(#a)" fill="#fff" stroke="#fff"/>
<g clip-path="url(#a)">
<g transform="translate(125.86 859.72) rotate(90) scale(.08 -.08)">
<use xlink:href="#l"/>
<use x="44.083984" xlink:href="#d"/>
<use x="105.607422" xlink:href="#g"/>
<use x="144.970703" xlink:href="#k"/>
<use x="242.382812" xlink:href="#h"/>
<use x="270.166016" xlink:href="#f"/>
<use x="333.544922" xlink:href="#i"/>
<use x="394.824219" xlink:href="#j"/>
</g>
</g>
<path d="m137.56 859.72v33.808q0 2.4 2.4 2.4h7.7425q2.4 0 2.4-2.4v-33.808q0-2.4-2.4-2.4h-7.7425q-2.4 0-2.4 2.4z" clip-path="url(#a)" fill="#fff" stroke="#fff"/>
<g clip-path="url(#a)">
<g transform="translate(141.62 859.72) rotate(90) scale(.08 -.08)">
<use xlink:href="#l"/>
<use x="44.083984" xlink:href="#d"/>
<use x="105.607422" xlink:href="#g"/>
<use x="144.970703" xlink:href="#k"/>
<use x="242.382812" xlink:href="#h"/>
<use x="270.166016" xlink:href="#f"/>
<use x="333.544922" xlink:href="#i"/>
<use x="394.824219" xlink:href="#j"/>
</g>
</g>
<path d="m81.244 859.72v33.808q0 2.4 2.4 2.4h7.7425q2.4 0 2.4-2.4v-33.808q0-2.4-2.4-2.4h-7.7425q-2.4 0-2.4 2.4z" clip-path="url(#a)" fill="#fff" stroke="#fff"/>
<g clip-path="url(#a)">
<g transform="translate(85.308 859.72) rotate(90) scale(.08 -.08)">
<use xlink:href="#l"/>
<use x="44.083984" xlink:href="#d"/>
<use x="105.607422" xlink:href="#g"/>
<use x="144.970703" xlink:href="#k"/>
<use x="242.382812" xlink:href="#h"/>
<use x="270.166016" xlink:href="#f"/>
<use x="333.544922" xlink:href="#i"/>
<use x="394.824219" xlink:href="#j"/>
</g>
</g>
<path d="m88.002 859.72v33.808q0 2.4 2.4 2.4h7.7425q2.4 0 2.4-2.4v-33.808q0-2.4-2.4-2.4h-7.7425q-2.4 0-2.4 2.4z" clip-path="url(#a)" fill="#fff" stroke="#fff"/>
<g clip-path="url(#a)">
<g transform="translate(92.066 859.72) rotate(90) scale(.08 -.08)">
<use xlink:href="#l"/>
<use x="44.083984" xlink:href="#d"/>
<use x="105.607422" xlink:href="#g"/>
<use x="144.970703" xlink:href="#k"/>
<use x="242.382812" xlink:href="#h"/>
<use x="270.166016" xlink:href="#f"/>
<use x="333.544922" xlink:href="#i"/>
<use x="394.824219" xlink:href="#j"/>
</g>
</g>
<path d="m192.66 514.51 0.90078-9.9757q0.21584-2.3903-2.1744-2.6061l-7.7111-0.6963q-2.3903-0.21584-2.6061 2.1744l-0.90078 9.9757q-0.21584 2.3903 2.1744 2.6061l7.7111 0.6963q2.3903 0.21584 2.6061-2.1744z" clip-path="url(#a)" fill="#fff" stroke="#fff"/>
<g clip-path="url(#a)">
<g transform="translate(188.61 514.15) rotate(-84.84) scale(.08 -.08)">
<use xlink:href="#x"/>
<use x="55.712891" xlink:href="#ad"/>
</g>
</g>
<path d="m229.52 321.41 2.6336 9.761q0.62519 2.3171 2.9423 1.6919l7.4752-2.0169q2.3171-0.62519 1.6919-2.9423l-2.6336-9.761q-0.62519-2.3171-2.9423-1.6919l-7.4752 2.0169q-2.3171 0.62519-1.6919 2.9423z" clip-path="url(#a)" fill="#fff" stroke="#fff"/>
<g clip-path="url(#a)">
<g transform="translate(233.45 320.35) rotate(74.9) scale(.08 -.08)">
<use xlink:href="#x"/>
<use x="57.962891" xlink:href="#r"/>
</g>
</g>
<path d="m419.14 859.72v33.808q0 2.4 2.4 2.4h7.7425q2.4 0 2.4-2.4v-33.808q0-2.4-2.4-2.4h-7.7425q-2.4 0-2.4 2.4z" clip-path="url(#a)" fill="#fff" stroke="#fff"/>
<g clip-path="url(#a)">
<g transform="translate(423.2 859.72) rotate(90) scale(.08 -.08)">
<use xlink:href="#l"/>
<use x="44.083984" xlink:href="#d"/>
<use x="105.607422" xlink:href="#g"/>
<use x="144.970703" xlink:href="#k"/>
<use x="242.382812" xlink:href="#h"/>
<use x="270.166016" xlink:href="#f"/>
<use x="333.544922" xlink:href="#i"/>
<use x="394.824219" xlink:href="#j"/>
</g>
</g>
<path d="m1191.8 859.72v33.808q0 2.4 2.4 2.4h7.7425q2.4 0 2.4-2.4v-33.808q0-2.4-2.4-2.4h-7.7425q-2.4 0-2.4 2.4z" clip-path="url(#a)" fill="#fff" stroke="#fff"/>
<g clip-path="url(#a)">
<g transform="translate(1195.9 859.72) rotate(90) scale(.08 -.08)">
<use xlink:href="#l"/>
<use x="44.083984" xlink:href="#d"/>
<use x="105.607422" xlink:href="#g"/>
<use x="144.970703" xlink:href="#k"/>
<use x="242.382812" xlink:href="#h"/>
<use x="270.166016" xlink:href="#f"/>
<use x="333.544922" xlink:href="#i"/>
<use x="394.824219" xlink:href="#j"/>
</g>
</g>
<path d="m1263.9 859.72v33.808q0 2.4 2.4 2.4h7.7425q2.4 0 2.4-2.4v-33.808q0-2.4-2.4-2.4h-7.7425q-2.4 0-2.4 2.4z" clip-path="url(#a)" fill="#fff" stroke="#fff"/>
<g clip-path="url(#a)">
<g transform="translate(1267.9 859.72) rotate(90) scale(.08 -.08)">
<use xlink:href="#l"/>
<use x="44.083984" xlink:href="#d"/>
<use x="105.607422" xlink:href="#g"/>
<use x="144.970703" xlink:href="#k"/>
<use x="242.382812" xlink:href="#h"/>
<use x="270.166016" xlink:href="#f"/>
<use x="333.544922" xlink:href="#i"/>
<use x="394.824219" xlink:href="#j"/>
</g>
</g>
<path d="m1493.7 859.72v33.808q0 2.4 2.4 2.4h7.7425q2.4 0 2.4-2.4v-33.808q0-2.4-2.4-2.4h-7.7425q-2.4 0-2.4 2.4z" clip-path="url(#a)" fill="#fff" stroke="#fff"/>
<g clip-path="url(#a)">
<g transform="translate(1497.7 859.72) rotate(90) scale(.08 -.08)">
<use xlink:href="#l"/>
<use x="44.083984" xlink:href="#d"/>
<use x="105.607422" xlink:href="#g"/>
<use x="144.970703" xlink:href="#k"/>
<use x="242.382812" xlink:href="#h"/>
<use x="270.166016" xlink:href="#f"/>
<use x="333.544922" xlink:href="#i"/>
<use x="394.824219" xlink:href="#j"/>
</g>
</g>
<path d="m1743.7 859.72v33.808q0 2.4 2.4 2.4h7.7425q2.4 0 2.4-2.4v-33.808q0-2.4-2.4-2.4h-7.7425q-2.4 0-2.4 2.4z" clip-path="url(#a)" fill="#fff" stroke="#fff"/>
<g clip-path="url(#a)">
<g transform="translate(1747.8 859.72) rotate(90) scale(.08 -.08)">
<use xlink:href="#l"/>
<use x="44.083984" xlink:href="#d"/>
<use x="105.607422" xlink:href="#g"/>
<use x="144.970703" xlink:href="#k"/>
<use x="242.382812" xlink:href="#h"/>
<use x="270.166016" xlink:href="#f"/>
<use x="333.544922" xlink:href="#i"/>
<use x="394.824219" xlink:href="#j"/>
</g>
</g>
<path d="m1831.5 859.72v33.808q0 2.4 2.4 2.4h7.7425q2.4 0 2.4-2.4v-33.808q0-2.4-2.4-2.4h-7.7425q-2.4 0-2.4 2.4z" clip-path="url(#a)" fill="#fff" stroke="#fff"/>
<g clip-path="url(#a)">
<g transform="translate(1835.6 859.72) rotate(90) scale(.08 -.08)">
<use xlink:href="#l"/>
<use x="44.083984" xlink:href="#d"/>
<use x="105.607422" xlink:href="#g"/>
<use x="144.970703" xlink:href="#k"/>
<use x="242.382812" xlink:href="#h"/>
<use x="270.166016" xlink:href="#f"/>
<use x="333.544922" xlink:href="#i"/>
<use x="394.824219" xlink:href="#j"/>
</g>
</g>
<defs>
<path id="b" d="m0 8.6603c2.2967 0 4.4997-0.9125 6.1237-2.5365 1.624-1.624 2.5365-3.827 2.5365-6.1237s-0.9125-4.4997-2.5365-6.1237c-1.624-1.624-3.827-2.5365-6.1237-2.5365s-4.4997 0.9125-6.1237 2.5365c-1.624 1.624-2.5365 3.827-2.5365 6.1237s0.9125 4.4997 2.5365 6.1237c1.624 1.624 3.827 2.5365 6.1237 2.5365z"/>
</defs>
<g clip-path="url(#a)">
<use x="87.515152" y="967.272727" fill="#ffffff" stroke="#ffffff" xlink:href="#b"/>
</g>
<g clip-path="url(#a)">
<use x="94.273078" y="967.272727" fill="#ffffff" stroke="#ffffff" xlink:href="#b"/>
</g>
<g clip-path="url(#a)">
<use x="103.283647" y="967.272727" fill="#ffffff" stroke="#ffffff" xlink:href="#b"/>
</g>
<g clip-path="url(#a)">
<use x="114.546859" y="967.272727" fill="#ffffff" stroke="#ffffff" xlink:href="#b"/>
</g>
<g clip-path="url(#a)">
<use x="128.062712" y="967.272727" fill="#ffffff" stroke="#ffffff" xlink:href="#b"/>
</g>
<g clip-path="url(#a)">
<use x="143.831208" y="967.272727" fill="#ffffff" stroke="#ffffff" xlink:href="#b"/>
</g>
<g clip-path="url(#a)">
<use x="161.852346" y="967.272727" fill="#ffffff" stroke="#ffffff" xlink:href="#b"/>
</g>
<g clip-path="url(#a)">
<use x="182.126126" y="967.272727" fill="#ffffff" stroke="#ffffff" xlink:href="#b"/>
</g>
<g clip-path="url(#a)">
<use x="204.652549" y="967.272727" fill="#ffffff" stroke="#ffffff" xlink:href="#b"/>
</g>
<g clip-path="url(#a)">
<use x="229.431613" y="967.272727" fill="#ffffff" stroke="#ffffff" xlink:href="#b"/>
</g>
<g clip-path="url(#a)">
<use x="256.46332" y="967.272727" fill="#ffffff" stroke="#ffffff" xlink:href="#b"/>
</g>
<g clip-path="url(#a)">
<use x="285.74767" y="967.272727" fill="#ffffff" stroke="#ffffff" xlink:href="#b"/>
</g>
<g clip-path="url(#a)">
<use x="317.284661" y="967.272727" fill="#ffffff" stroke="#ffffff" xlink:href="#b"/>
</g>
<g clip-path="url(#a)">
<use x="351.074295" y="967.272727" fill="#ffffff" stroke="#ffffff" xlink:href="#b"/>
</g>
<g clip-path="url(#a)">
<use x="387.116571" y="967.272727" fill="#ffffff" stroke="#ffffff" xlink:href="#b"/>
</g>
<g clip-path="url(#a)">
<use x="425.411489" y="967.272727" fill="#ffffff" stroke="#ffffff" xlink:href="#b"/>
</g>
<g clip-path="url(#a)">
<use x="465.95905" y="967.272727" fill="#ffffff" stroke="#ffffff" xlink:href="#b"/>
</g>
<g clip-path="url(#a)">
<use x="508.759253" y="967.272727" fill="#ffffff" stroke="#ffffff" xlink:href="#b"/>
</g>
<g clip-path="url(#a)">
<use x="553.812098" y="967.272727" fill="#ffffff" stroke="#ffffff" xlink:href="#b"/>
</g>
<g clip-path="url(#a)">
<use x="601.117585" y="967.272727" fill="#ffffff" stroke="#ffffff" xlink:href="#b"/>
</g>
<g clip-path="url(#a)">
<use x="650.675715" y="967.272727" fill="#ffffff" stroke="#ffffff" xlink:href="#b"/>
</g>
<g clip-path="url(#a)">
<use x="702.486486" y="967.272727" fill="#ffffff" stroke="#ffffff" xlink:href="#b"/>
</g>
<g clip-path="url(#a)">
<use x="756.549901" y="967.272727" fill="#ffffff" stroke="#ffffff" xlink:href="#b"/>
</g>
<g clip-path="url(#a)">
<use x="812.865957" y="967.272727" fill="#ffffff" stroke="#ffffff" xlink:href="#b"/>
</g>
<g clip-path="url(#a)">
<use x="871.434655" y="967.272727" fill="#ffffff" stroke="#ffffff" xlink:href="#b"/>
</g>
<g clip-path="url(#a)">
<use x="932.255996" y="967.272727" fill="#ffffff" stroke="#ffffff" xlink:href="#b"/>
</g>
<g clip-path="url(#a)">
<use x="995.329979" y="967.272727" fill="#ffffff" stroke="#ffffff" xlink:href="#b"/>
</g>
<g clip-path="url(#a)">
<use x="1060.656605" y="967.272727" fill="#ffffff" stroke="#ffffff" xlink:href="#b"/>
</g>
<g clip-path="url(#a)">
<use x="1128.235872" y="967.272727" fill="#ffffff" stroke="#ffffff" xlink:href="#b"/>
</g>
<g clip-path="url(#a)">
<use x="1198.067782" y="967.272727" fill="#ffffff" stroke="#ffffff" xlink:href="#b"/>
</g>
<g clip-path="url(#a)">
<use x="1270.152334" y="967.272727" fill="#ffffff" stroke="#ffffff" xlink:href="#b"/>
</g>
<g clip-path="url(#a)">
<use x="1344.489528" y="967.272727" fill="#ffffff" stroke="#ffffff" xlink:href="#b"/>
</g>
<g clip-path="url(#a)">
<use x="1421.079365" y="967.272727" fill="#ffffff" stroke="#ffffff" xlink:href="#b"/>
</g>
<g clip-path="url(#a)">
<use x="1499.921844" y="967.272727" fill="#ffffff" stroke="#ffffff" xlink:href="#b"/>
</g>
<g clip-path="url(#a)">
<use x="1581.016965" y="967.272727" fill="#ffffff" stroke="#ffffff" xlink:href="#b"/>
</g>
<g clip-path="url(#a)">
<use x="1664.364728" y="967.272727" fill="#ffffff" stroke="#ffffff" xlink:href="#b"/>
</g>
<g clip-path="url(#a)">
<use x="1749.965134" y="967.272727" fill="#ffffff" stroke="#ffffff" xlink:href="#b"/>
</g>
<g clip-path="url(#a)">
<use x="1837.818182" y="967.272727" fill="#ffffff" stroke="#ffffff" xlink:href="#b"/>
</g>
<g clip-path="url(#a)">
<use x="539.98807" y="46.060606" fill="#ffffff" stroke="#ffffff" xlink:href="#b"/>
</g>
<g clip-path="url(#a)">
<use x="111.167895" y="417.361728" fill="#ffffff" stroke="#ffffff" xlink:href="#b"/>
</g>
<g clip-path="url(#a)">
<use x="161.852346" y="785.971836" fill="#ffffff" stroke="#ffffff" xlink:href="#b"/>
</g>
<g clip-path="url(#a)">
<use x="261.907206" y="417.361728" fill="#ffffff" stroke="#ffffff" xlink:href="#b"/>
</g>
<g clip-path="url(#a)">
<use x="465.95905" y="785.971836" fill="#ffffff" stroke="#ffffff" xlink:href="#b"/>
</g>
<g clip-path="url(#a)">
<use x="749.54168" y="231.945697" fill="#ffffff" stroke="#ffffff" xlink:href="#b"/>
</g>
<g clip-path="url(#a)">
<use x="995.329979" y="785.971836" fill="#ffffff" stroke="#ffffff" xlink:href="#b"/>
</g>
<g clip-path="url(#a)">
<use x="1148.734917" y="231.945697" fill="#ffffff" stroke="#ffffff" xlink:href="#b"/>
</g>
<g clip-path="url(#a)">
<use x="1094.446238" y="785.971836" fill="#ffffff" stroke="#ffffff" xlink:href="#b"/>
</g>
<g clip-path="url(#a)">
<use x="1530.332514" y="417.361728" fill="#ffffff" stroke="#ffffff" xlink:href="#b"/>
</g>
<g clip-path="url(#a)">
<use x="1382.784447" y="602.14885" fill="#ffffff" stroke="#ffffff" xlink:href="#b"/>
</g>
<g clip-path="url(#a)">
<use x="1708.291252" y="602.14885" fill="#ffffff" stroke="#ffffff" xlink:href="#b"/>
</g>
<g clip-path="url(#a)">
<use x="1581.016965" y="785.971836" fill="#ffffff" stroke="#ffffff" xlink:href="#b"/>
</g>
<g clip-path="url(#a)">
<use x="1664.364728" y="785.971836" fill="#ffffff" stroke="#ffffff" xlink:href="#b"/>
</g>
<g clip-path="url(#a)">
<use x="1344.489528" y="785.971836" fill="#ffffff" stroke="#ffffff" xlink:href="#b"/>
</g>
<g clip-path="url(#a)">
<use x="1421.079365" y="785.971836" fill="#ffffff" stroke="#ffffff" xlink:href="#b"/>
</g>
<g clip-path="url(#a)">
<use x="619.889604" y="417.361728" fill="#ffffff" stroke="#ffffff" xlink:href="#b"/>
</g>
<g clip-path="url(#a)">
<use x="756.549901" y="785.971836" fill="#ffffff" stroke="#ffffff" xlink:href="#b"/>
</g>
<g clip-path="url(#a)">
<use x="872.185536" y="602.14885" fill="#ffffff" stroke="#ffffff" xlink:href="#b"/>
</g>
<g clip-path="url(#a)">
<use x="812.865957" y="785.971836" fill="#ffffff" stroke="#ffffff" xlink:href="#b"/>
</g>
<g clip-path="url(#a)">
<use x="871.434655" y="785.971836" fill="#ffffff" stroke="#ffffff" xlink:href="#b"/>
</g>
<g clip-path="url(#a)">
<use x="932.255996" y="785.971836" fill="#ffffff" stroke="#ffffff" xlink:href="#b"/>
</g>
<g clip-path="url(#a)">
<use x="531.285675" y="602.14885" fill="#ffffff" stroke="#ffffff" xlink:href="#b"/>
</g>
<g clip-path="url(#a)">
<use x="625.89665" y="602.14885" fill="#ffffff" stroke="#ffffff" xlink:href="#b"/>
</g>
<g clip-path="url(#a)">
<use x="702.486486" y="785.971836" fill="#ffffff" stroke="#ffffff" xlink:href="#b"/>
</g>
<g clip-path="url(#a)">
<use x="601.117585" y="785.971836" fill="#ffffff" stroke="#ffffff" xlink:href="#b"/>
</g>
<g clip-path="url(#a)">
<use x="650.675715" y="785.971836" fill="#ffffff" stroke="#ffffff" xlink:href="#b"/>
</g>
<g clip-path="url(#a)">
<use x="508.759253" y="785.971836" fill="#ffffff" stroke="#ffffff" xlink:href="#b"/>
</g>
<g clip-path="url(#a)">
<use x="553.812098" y="785.971836" fill="#ffffff" stroke="#ffffff" xlink:href="#b"/>
</g>
<g clip-path="url(#a)">
<use x="182.126126" y="785.971836" fill="#ffffff" stroke="#ffffff" xlink:href="#b"/>
</g>
<g clip-path="url(#a)">
<use x="204.652549" y="785.971836" fill="#ffffff" stroke="#ffffff" xlink:href="#b"/>
</g>
<g clip-path="url(#a)">
<use x="273.358137" y="785.971836" fill="#ffffff" stroke="#ffffff" xlink:href="#b"/>
</g>
<g clip-path="url(#a)">
<use x="256.46332" y="785.971836" fill="#ffffff" stroke="#ffffff" xlink:href="#b"/>
</g>
<g clip-path="url(#a)">
<use x="285.74767" y="785.971836" fill="#ffffff" stroke="#ffffff" xlink:href="#b"/>
</g>
<g clip-path="url(#a)">
<use x="369.095433" y="602.14885" fill="#ffffff" stroke="#ffffff" xlink:href="#b"/>
</g>
<g clip-path="url(#a)">
<use x="351.074295" y="785.971836" fill="#ffffff" stroke="#ffffff" xlink:href="#b"/>
</g>
<g clip-path="url(#a)">
<use x="387.116571" y="785.971836" fill="#ffffff" stroke="#ffffff" xlink:href="#b"/>
</g>
<g clip-path="url(#a)">
<use x="90.894115" y="602.14885" fill="#ffffff" stroke="#ffffff" xlink:href="#b"/>
</g>
<g clip-path="url(#a)">
<use x="103.283647" y="785.971836" fill="#ffffff" stroke="#ffffff" xlink:href="#b"/>
</g>
<g clip-path="url(#a)">
<use x="114.546859" y="785.971836" fill="#ffffff" stroke="#ffffff" xlink:href="#b"/>
</g>
<g clip-path="url(#a)">
<use x="135.94696" y="602.14885" fill="#ffffff" stroke="#ffffff" xlink:href="#b"/>
</g>
<g clip-path="url(#a)">
<use x="128.062712" y="785.971836" fill="#ffffff" stroke="#ffffff" xlink:href="#b"/>
</g>
<g clip-path="url(#a)">
<use x="143.831208" y="785.971836" fill="#ffffff" stroke="#ffffff" xlink:href="#b"/>
</g>
<g clip-path="url(#a)">
<use x="87.515152" y="785.971836" fill="#ffffff" stroke="#ffffff" xlink:href="#b"/>
</g>
<g clip-path="url(#a)">
<use x="94.273078" y="785.971836" fill="#ffffff" stroke="#ffffff" xlink:href="#b"/>
</g>
<g clip-path="url(#a)">
<use x="211.879776" y="231.945697" fill="#808080" stroke="#808080" xlink:href="#b"/>
</g>
<g clip-path="url(#a)">
<use x="425.411489" y="785.971836" fill="#ffffff" stroke="#ffffff" xlink:href="#b"/>
</g>
<g clip-path="url(#a)">
<use x="1198.067782" y="785.971836" fill="#ffffff" stroke="#ffffff" xlink:href="#b"/>
</g>
<g clip-path="url(#a)">
<use x="1270.152334" y="785.971836" fill="#ffffff" stroke="#ffffff" xlink:href="#b"/>
</g>
<g clip-path="url(#a)">
<use x="1499.921844" y="785.971836" fill="#ffffff" stroke="#ffffff" xlink:href="#b"/>
</g>
<g clip-path="url(#a)">
<use x="1749.965134" y="785.971836" fill="#ffffff" stroke="#ffffff" xlink:href="#b"/>
</g>
<g clip-path="url(#a)">
<use x="1837.818182" y="785.971836" fill="#ffffff" stroke="#ffffff" xlink:href="#b"/>
</g>
<g clip-path="url(#a)">
<defs>
<path id="ak" d="m17.922 72.906v-27.109h-8.2969v27.109z"/>
</defs>
<g transform="translate(83.355 970.03) scale(.1 -.1)">
<use xlink:href="#x"/>
<use x="55.712891" xlink:href="#ak"/>
</g>
</g>
<g clip-path="url(#a)">
<defs>
<path id="ai" d="m48.688 27.297q0 9.9062-4.0781 15.547t-11.203 5.6406q-7.1406 0-11.219-5.6406t-4.0781-15.547 4.0781-15.547 11.219-5.6406q7.125 0 11.203 5.6406t4.0781 15.547zm-30.578 19.094q2.8438 4.875 7.1562 7.2344 4.3281 2.375 10.328 2.375 9.9688 0 16.188-7.9062 6.2344-7.9062 6.2344-20.797t-6.2344-20.812q-6.2188-7.9062-16.188-7.9062-6 0-10.328 2.375-4.3125 2.375-7.1562 7.25v-8.2031h-9.0312v75.984h9.0312z"/>
<path id="s" d="m30.609 48.391q-7.2188 0-11.422-5.6406t-4.2031-15.453 4.1719-15.453q4.1875-5.6406 11.453-5.6406 7.1875 0 11.375 5.6562 4.2031 5.6719 4.2031 15.438 0 9.7188-4.2031 15.406-4.1875 5.6875-11.375 5.6875zm0 7.6094q11.719 0 18.406-7.625 6.7031-7.6094 6.7031-21.078 0-13.422-6.7031-21.078-6.6875-7.6406-18.406-7.6406-11.766 0-18.438 7.6406-6.6562 7.6562-6.6562 21.078 0 13.469 6.6562 21.078 6.6719 7.625 18.438 7.625z"/>
<path id="am" d="m45.406 46.391v29.594h8.9844v-75.984h-8.9844v8.2031q-2.8281-4.875-7.1562-7.25-4.3125-2.375-10.375-2.375-9.9062 0-16.141 7.9062-6.2188 7.9219-6.2188 20.812t6.2188 20.797q6.2344 7.9062 16.141 7.9062 6.0625 0 10.375-2.375 4.3281-2.3594 7.1562-7.2344zm-30.609-19.094q0-9.9062 4.0781-15.547t11.203-5.6406 11.219 5.6406q4.1094 5.6406 4.1094 15.547t-4.1094 15.547q-4.0938 5.6406-11.219 5.6406t-11.203-5.6406-4.0781-15.547z"/>
<path id="aq" d="m45.406 27.984q0 9.7656-4.0312 15.125-4.0156 5.375-11.297 5.375-7.2188 0-11.25-5.375-4.0312-5.3594-4.0312-15.125 0-9.7188 4.0312-15.094t11.25-5.375q7.2812 0 11.297 5.375 4.0312 5.375 4.0312 15.094zm8.9844-21.203q0-13.953-6.2031-20.766-6.1875-6.8125-18.984-6.8125-4.7344 0-8.9375 0.70312t-8.1562 2.1719v8.7344q3.9531-2.1406 7.8125-3.1562 3.8594-1.0312 7.8594-1.0312 8.8438 0 13.234 4.6094t4.3906 13.938v4.4531q-2.7812-4.8438-7.125-7.2344t-10.406-2.3906q-10.047 0-16.203 7.6562-6.1562 7.6719-6.1562 20.328 0 12.688 6.1562 20.344 6.1562 7.6719 16.203 7.6719 6.0625 0 10.406-2.3906t7.125-7.2188v8.2969h8.9844z"/>
</defs>
<g transform="translate(70.518 970.03) scale(.1 -.1)">
<use xlink:href="#i"/>
<use x="61.279297" xlink:href="#ai"/>
<use x="124.755859" xlink:href="#s"/>
<use x="185.9375" xlink:href="#g"/>
<use x="225.300781" xlink:href="#am"/>
<use x="288.777344" xlink:href="#i"/>
<use x="350.056641" xlink:href="#aq"/>
<use x="413.533203" xlink:href="#d"/>
</g>
</g>
<g clip-path="url(#a)">
<defs>
<path id="bc" d="m2.9844 54.688h9.5156l17.094-45.891 17.094 45.891h9.5156l-20.516-54.688h-12.203z"/>
<path id="u" d="m18.312 70.219v-15.531h18.5v-6.9844h-18.5v-29.688q0-6.6875 1.8281-8.5938t7.4531-1.9062h9.2188v-7.5156h-9.2188q-10.406 0-14.359 3.875-3.9531 3.8906-3.9531 14.141v29.688h-6.5938v6.9844h6.5938v15.531z"/>
</defs>
<g transform="translate(90.847 970.03) scale(.1 -.1)">
<use xlink:href="#i"/>
<use x="61.279297" xlink:href="#bc"/>
<use x="120.458984" xlink:href="#i"/>
<use x="181.738281" xlink:href="#h"/>
<use x="209.521484" xlink:href="#u"/>
</g>
</g>
<g clip-path="url(#a)">
<defs>
<path id="q" d="m44.281 53.078v-8.5q-3.7969 1.9531-7.9062 2.9219-4.0938 0.98438-8.5 0.98438-6.6875 0-10.031-2.0469t-3.3438-6.1562q0-3.125 2.3906-4.9062t9.625-3.3906l3.0781-0.6875q9.5625-2.0469 13.594-5.7812t4.0312-10.422q0-7.625-6.0312-12.078-6.0312-4.4375-16.578-4.4375-4.3906 0-9.1562 0.85938t-10.031 2.5625v9.2812q4.9844-2.5938 9.8125-3.8906 4.8281-1.2812 9.5781-1.2812 6.3438 0 9.75 2.1719 3.4219 2.1719 3.4219 6.125 0 3.6562-2.4688 5.6094-2.4531 1.9531-10.812 3.7656l-3.125 0.73438q-8.3438 1.75-12.062 5.3906-3.7031 3.6406-3.7031 9.9844 0 7.7188 5.4688 11.906 5.4688 4.2031 15.531 4.2031 4.9688 0 9.3594-0.73438 4.4062-0.71875 8.1094-2.1875z"/>
<path id="af" d="m56.203 29.594v-4.3906h-41.312q0.59375-9.2812 5.5938-14.141t13.938-4.8594q5.1719 0 10.031 1.2656t9.6562 3.8125v-8.5q-4.8438-2.0469-9.9219-3.125t-10.297-1.0781q-13.094 0-20.734 7.6094-7.6406 7.625-7.6406 20.625 0 13.422 7.25 21.297 7.25 7.8906 19.562 7.8906 11.031 0 17.453-7.1094 6.4219-7.0938 6.4219-19.297zm-8.9844 2.6406q-0.09375 7.3594-4.125 11.75-4.0312 4.4062-10.672 4.4062-7.5156 0-12.031-4.25t-5.2031-11.969zm-8.6875 47.75h9.7188l-15.906-18.359h-7.4844z"/>
</defs>
<g transform="translate(96.355 970.03) scale(.1 -.1)">
<use xlink:href="#q"/>
<use x="52.099609" xlink:href="#d"/>
<use x="113.623047" xlink:href="#k"/>
<use x="211.035156" xlink:href="#ai"/>
<use x="274.511719" xlink:href="#j"/>
<use x="302.294922" xlink:href="#af"/>
</g>
</g>
<g clip-path="url(#a)">
<g transform="translate(124.07 970.03) scale(.1 -.1)">
<use xlink:href="#q"/>
<use x="52.099609" xlink:href="#h"/>
</g>
</g>
<g clip-path="url(#a)">
<g transform="translate(131.06 970.23) scale(.1 -.1)">
<use xlink:href="#j"/>
<use x="27.783203" xlink:href="#af"/>
<use x="89.306641" xlink:href="#aq"/>
<use x="152.783203" xlink:href="#d"/>
<use x="214.306641" xlink:href="#g"/>
</g>
</g>
<g clip-path="url(#a)">
<defs>
<path id="al" d="m14.797 27.297q0-9.9062 4.0781-15.547t11.203-5.6406 11.219 5.6406q4.1094 5.6406 4.1094 15.547t-4.1094 15.547q-4.0938 5.6406-11.219 5.6406t-11.203-5.6406-4.0781-15.547zm30.609-19.094q-2.8281-4.875-7.1562-7.25-4.3125-2.375-10.375-2.375-9.9062 0-16.141 7.9062-6.2188 7.9219-6.2188 20.812t6.2188 20.797q6.2344 7.9062 16.141 7.9062 6.0625 0 10.375-2.375 4.3281-2.3594 7.1562-7.2344v8.2969h8.9844v-75.484h-8.9844z"/>
<path id="t" d="m8.5 21.578v33.109h8.9844v-32.766q0-7.7656 3.0156-11.656 3.0312-3.875 9.0938-3.875 7.2656 0 11.484 4.6406 4.2344 4.6406 4.2344 12.656v31h8.9844v-54.688h-8.9844v8.4062q-3.2656-4.9844-7.5938-7.4062-4.3125-2.4219-10.031-2.4219-9.4219 0-14.312 5.8594-4.875 5.8594-4.875 17.141z"/>
</defs>
<g transform="translate(152.43 970.03) scale(.1 -.1)">
<use xlink:href="#al"/>
<use x="63.476562" xlink:href="#t"/>
<use x="126.855469" xlink:href="#d"/>
</g>
</g>
<g clip-path="url(#a)">
<defs>
<path id="ap" d="m18.109 8.2031v-29h-9.0312v75.484h9.0312v-8.2969q2.8438 4.875 7.1562 7.2344 4.3281 2.375 10.328 2.375 9.9688 0 16.188-7.9062 6.2344-7.9062 6.2344-20.797t-6.2344-20.812q-6.2188-7.9062-16.188-7.9062-6 0-10.328 2.375-4.3125 2.375-7.1562 7.25zm30.578 19.094q0 9.9062-4.0781 15.547t-11.203 5.6406q-7.1406 0-11.219-5.6406t-4.0781-15.547 4.0781-15.547 11.219-5.6406q7.125 0 11.203 5.6406t4.0781 15.547z"/>
</defs>
<g transform="translate(158.74 970.03) scale(.1 -.1)">
<use xlink:href="#ap"/>
<use x="63.476562" xlink:href="#d"/>
<use x="125" xlink:href="#g"/>
<use x="166.113281" xlink:href="#q"/>
<use x="218.212891" xlink:href="#s"/>
<use x="279.394531" xlink:href="#f"/>
<use x="342.773438" xlink:href="#f"/>
<use x="406.152344" xlink:href="#d"/>
</g>
</g>
<g clip-path="url(#a)">
<g transform="translate(198.41 970.03) scale(.1 -.1)">
<use xlink:href="#f"/>
<use x="63.378906" xlink:href="#d"/>
</g>
</g>
<g clip-path="url(#a)">
<g transform="translate(225.45 970.03) scale(.1 -.1)">
<use xlink:href="#q"/>
<use x="52.099609" xlink:href="#ak"/>
</g>
</g>
<g clip-path="url(#a)">
<g transform="translate(250.22 970.03) scale(.1 -.1)">
<use xlink:href="#d"/>
<use x="61.523438" xlink:href="#f"/>
</g>
</g>
<g clip-path="url(#a)">
<defs>
<path id="bd" d="m37.109 75.984v-7.4844h-8.5938q-4.8281 0-6.7188-1.9531-1.875-1.9531-1.875-7.0312v-4.8281h14.797v-6.9844h-14.797v-47.703h-9.0312v47.703h-8.5938v6.9844h8.5938v3.8125q0 9.125 4.25 13.297 4.25 4.1875 13.469 4.1875z"/>
<path id="ax" d="m8.5 21.578v33.109h8.9844v-32.766q0-7.7656 3.0156-11.656 3.0312-3.875 9.0938-3.875 7.2656 0 11.484 4.6406 4.2344 4.6406 4.2344 12.656v31h8.9844v-54.688h-8.9844v8.4062q-3.2656-4.9844-7.5938-7.4062-4.3125-2.4219-10.031-2.4219-9.4219 0-14.312 5.8594-4.875 5.8594-4.875 17.141zm22.609 34.422m-3.7188 23.984h7.2188l11.969-18.359h-6.7812l-8.7969 11.953-8.7812-11.953h-6.7969z"/>
</defs>
<g transform="translate(278.86 970.03) scale(.1 -.1)">
<use xlink:href="#bd"/>
<use x="35.205078" xlink:href="#ax"/>
<use x="98.583984" xlink:href="#u"/>
</g>
</g>
<g clip-path="url(#a)">
<g transform="translate(296.88 970.23) scale(.1 -.1)">
<use xlink:href="#h"/>
<use x="27.783203" xlink:href="#f"/>
<use x="91.162109" xlink:href="#al"/>
<use x="154.638672" xlink:href="#t"/>
<use x="218.017578" xlink:href="#h"/>
<use x="245.800781" xlink:href="#af"/>
<use x="307.324219" xlink:href="#u"/>
<use x="346.533203" xlink:href="#af"/>
</g>
</g>
<g clip-path="url(#a)">
<defs>
<path id="az" d="m34.281 27.484q-10.891 0-15.094-2.4844t-4.2031-8.5q0-4.7812 3.1562-7.5938 3.1562-2.7969 8.5625-2.7969 7.4844 0 12 5.2969t4.5156 14.078v2zm17.922 3.7188v-31.203h-8.9844v8.2969q-3.0781-4.9688-7.6719-7.3438t-11.234-2.375q-8.3906 0-13.359 4.7188-4.9531 4.7188-4.9531 12.625 0 9.2188 6.1719 13.906 6.1875 4.6875 18.438 4.6875h12.609v0.89062q0 6.2031-4.0781 9.5938t-11.453 3.3906q-4.6875 0-9.1406-1.125-4.4375-1.125-8.5312-3.375v8.3125q4.9219 1.9062 9.5625 2.8438 4.6406 0.95312 9.0312 0.95312 11.875 0 17.734-6.1562 5.8594-6.1406 5.8594-18.641zm-30.281 48.781 13.766-18.266h-7.4688l-15.922 18.266z"/>
</defs>
<g transform="translate(348.01 970.03) scale(.1 -.1)">
<use xlink:href="#az"/>
</g>
</g>
<g clip-path="url(#a)">
<g transform="translate(375.74 970.03) scale(.1 -.1)">
<use xlink:href="#ai"/>
<use x="63.476562" xlink:href="#s"/>
<use x="124.658203" xlink:href="#g"/>
<use x="164.021484" xlink:href="#am"/>
</g>
</g>
<g clip-path="url(#a)">
<defs>
<path id="aw" d="m11.719 12.406h10.297v-8.4062l-8-15.625h-6.2969l4 15.625z"/>
</defs>
<g transform="translate(423.82 970.03) scale(.1 -.1)">
<use xlink:href="#aw"/>
</g>
</g>
<g clip-path="url(#a)">
<g transform="translate(454.52 970.03) scale(.1 -.1)">
<use xlink:href="#q"/>
<use x="52.099609" xlink:href="#i"/>
<use x="113.378906" xlink:href="#f"/>
<use x="176.757812" xlink:href="#q"/>
</g>
</g>
<g clip-path="url(#a)">
<g transform="translate(504.29 970.03) scale(.1 -.1)">
<use xlink:href="#j"/>
<use x="27.783203" xlink:href="#d"/>
</g>
</g>
<g clip-path="url(#a)">
<defs>
<path id="ac" d="m48.781 52.594v-8.4062q-3.8125 2.1094-7.6406 3.1562t-7.7344 1.0469q-8.75 0-13.594-5.5469-4.8281-5.5312-4.8281-15.547t4.8281-15.562q4.8438-5.5312 13.594-5.5312 3.9062 0 7.7344 1.0469t7.6406 3.1562v-8.3125q-3.7656-1.75-7.7969-2.625-4.0156-0.89062-8.5625-0.89062-12.359 0-19.641 7.7656-7.2656 7.7656-7.2656 20.953 0 13.375 7.3438 21.031 7.3594 7.6719 20.156 7.6719 4.1406 0 8.0938-0.85938 3.9531-0.84375 7.6719-2.5469z"/>
</defs>
<g transform="translate(547.62 970.03) scale(.1 -.1)">
<use xlink:href="#ac"/>
<use x="54.980469" xlink:href="#g"/>
<use x="96.09375" xlink:href="#h"/>
</g>
</g>
<g clip-path="url(#a)">
<g transform="translate(592.26 970.03) scale(.1 -.1)">
<use xlink:href="#am"/>
<use x="63.476562" xlink:href="#d"/>
<use x="125" xlink:href="#q"/>
</g>
</g>
<g clip-path="url(#a)">
<g transform="translate(634.35 970.03) scale(.1 -.1)">
<use xlink:href="#ac"/>
<use x="54.980469" xlink:href="#i"/>
<use x="116.259766" xlink:href="#j"/>
<use x="144.042969" xlink:href="#h"/>
<use x="171.826172" xlink:href="#d"/>
<use x="233.349609" xlink:href="#g"/>
<use x="274.462891" xlink:href="#q"/>
</g>
</g>
<g clip-path="url(#a)">
<g transform="translate(694.75 970.03) scale(.1 -.1)">
<use xlink:href="#al"/>
<use x="63.476562" xlink:href="#t"/>
<use x="126.855469" xlink:href="#h"/>
</g>
</g>
<g clip-path="url(#a)">
<defs>
<path id="ay" d="m56.203 29.594v-4.3906h-41.312q0.59375-9.2812 5.5938-14.141t13.938-4.8594q5.1719 0 10.031 1.2656t9.6562 3.8125v-8.5q-4.8438-2.0469-9.9219-3.125t-10.297-1.0781q-13.094 0-20.734 7.6094-7.6406 7.625-7.6406 20.625 0 13.422 7.25 21.297 7.25 7.8906 19.562 7.8906 11.031 0 17.453-7.1094 6.4219-7.0938 6.4219-19.297zm-8.9844 2.6406q-0.09375 7.3594-4.125 11.75-4.0312 4.4062-10.672 4.4062-7.5156 0-12.031-4.25t-5.2031-11.969zm-22.547 47.75 13.766-18.266h-7.4688l-15.922 18.266z"/>
</defs>
<g transform="translate(725.25 970.03) scale(.1 -.1)">
<use xlink:href="#g"/>
<use x="38.863281" xlink:href="#d"/>
<use x="100.386719" xlink:href="#k"/>
<use x="197.798828" xlink:href="#s"/>
<use x="258.980469" xlink:href="#f"/>
<use x="322.359375" xlink:href="#u"/>
<use x="361.568359" xlink:href="#ay"/>
<use x="423.091797" xlink:href="#g"/>
<use x="461.955078" xlink:href="#d"/>
<use x="523.478516" xlink:href="#f"/>
<use x="586.857422" xlink:href="#u"/>
</g>
</g>
<g clip-path="url(#a)">
<g transform="translate(805.04 970.03) scale(.1 -.1)">
<use xlink:href="#q"/>
<use x="52.099609" xlink:href="#t"/>
<use x="115.478516" xlink:href="#g"/>
</g>
</g>
<g clip-path="url(#a)">
<g transform="translate(866.97 970.03) scale(.1 -.1)">
<use xlink:href="#j"/>
<use x="27.783203" xlink:href="#d"/>
</g>
</g>
<g clip-path="url(#a)">
<g transform="translate(920.89 970.03) scale(.1 -.1)">
<use xlink:href="#ap"/>
<use x="63.476562" xlink:href="#s"/>
<use x="124.658203" xlink:href="#f"/>
<use x="188.037109" xlink:href="#u"/>
</g>
</g>
<g clip-path="url(#a)">
<g transform="translate(989.08 970.03) scale(.1 -.1)">
<use xlink:href="#d"/>
<use x="61.523438" xlink:href="#f"/>
</g>
</g>
<g clip-path="url(#a)">
<g transform="translate(1056.7 970.03) scale(.1 -.1)">
<use xlink:href="#q"/>
<use x="52.099609" xlink:href="#ak"/>
</g>
</g>
<g clip-path="url(#a)">
<g transform="translate(1110.8 970.03) scale(.1 -.1)">
<use xlink:href="#af"/>
<use x="61.523438" xlink:href="#ac"/>
<use x="116.503906" xlink:href="#g"/>
<use x="157.617188" xlink:href="#h"/>
<use x="185.400391" xlink:href="#i"/>
<use x="246.679688" xlink:href="#f"/>
<use x="310.058594" xlink:href="#u"/>
</g>
</g>
<g clip-path="url(#a)">
<defs>
<path id="av" d="m11.719 12.406h10.297v-12.406h-10.297zm0 39.297h10.297v-12.391h-10.297z"/>
</defs>
<g transform="translate(1196.4 970.03) scale(.1 -.1)">
<use xlink:href="#av"/>
</g>
</g>
<g clip-path="url(#a)">
<defs>
<path id="bb" d="m51.812 51.703v-9.3125l-14.703-13.094 14.703-13.078v-9.3281l-22.906 20.406v4zm-21.203 0v-9.3125l-14.688-13.094 14.688-13.078v-9.3281l-22.891 20.406v4z"/>
</defs>
<g transform="translate(1267.1 970.03) scale(.1 -.1)">
<use xlink:href="#bb"/>
</g>
</g>
<g clip-path="url(#a)">
<defs>
<path id="as" d="m9.8125 72.906h13.281l32.328-60.984v60.984h9.5625v-72.906h-13.281l-32.312 60.984v-60.984h-9.5781z"/>
</defs>
<g transform="translate(1331.9 970.03) scale(.1 -.1)">
<use xlink:href="#as"/>
<use x="74.804688" xlink:href="#s"/>
<use x="135.986328" xlink:href="#t"/>
<use x="199.365234" xlink:href="#q"/>
</g>
</g>
<g clip-path="url(#a)">
<g transform="translate(1401.9 970.03) scale(.1 -.1)">
<use xlink:href="#ac"/>
<use x="54.980469" xlink:href="#s"/>
<use x="116.162109" xlink:href="#t"/>
<use x="179.541016" xlink:href="#j"/>
<use x="207.324219" xlink:href="#s"/>
<use x="268.505859" xlink:href="#f"/>
<use x="331.884766" xlink:href="#q"/>
</g>
</g>
<g clip-path="url(#a)">
<defs>
<path id="ao" d="m15.094 12.406h9.9062v-12.406h-9.9062zm0 60.5h9.9062v-31.984l-0.96875-17.438h-7.9219l-1.0156 17.438z"/>
</defs>
<g transform="translate(1497.9 970.03) scale(.1 -.1)">
<use xlink:href="#ao"/>
</g>
</g>
<g clip-path="url(#a)">
<g transform="translate(1569 970.03) scale(.1 -.1)">
<use xlink:href="#f"/>
<use x="63.378906" xlink:href="#s"/>
<use x="124.560547" xlink:href="#t"/>
<use x="187.939453" xlink:href="#q"/>
</g>
</g>
<g clip-path="url(#a)">
<g transform="translate(1645.2 970.03) scale(.1 -.1)">
<use xlink:href="#ac"/>
<use x="54.980469" xlink:href="#s"/>
<use x="116.162109" xlink:href="#t"/>
<use x="179.541016" xlink:href="#j"/>
<use x="207.324219" xlink:href="#s"/>
<use x="268.505859" xlink:href="#f"/>
<use x="331.884766" xlink:href="#q"/>
</g>
</g>
<g clip-path="url(#a)">
<g transform="translate(1748 970.03) scale(.1 -.1)">
<use xlink:href="#ao"/>
</g>
</g>
<g clip-path="url(#a)">
<defs>
<path id="ba" d="m9.4219 51.703 22.906-20.406v-4l-22.906-20.406v9.3281l14.703 13.078-14.703 13.094zm21.188 0 22.906-20.406v-4l-22.906-20.406v9.3281l14.703 13.078-14.703 13.094z"/>
</defs>
<g transform="translate(1834.8 970.03) scale(.1 -.1)">
<use xlink:href="#ba"/>
</g>
</g>
<g clip-path="url(#a)">
<defs>
<path id="c" d="m12.406 8.2969h16.109v55.625l-17.531-3.5156v8.9844l17.438 3.5156h9.8594v-64.609h16.109v-8.2969h-41.984z"/>
<path id="e" d="m10.688 12.406h10.312v-12.406h-10.312z"/>
</defs>
<g transform="translate(532.04 48.82) scale(.1 -.1)">
<use xlink:href="#c"/>
<use x="63.623047" xlink:href="#e"/>
<use x="95.410156" xlink:href="#c"/>
</g>
</g>
<g clip-path="url(#a)">
<defs>
<path id="p" d="m19.188 8.2969h34.422v-8.2969h-46.281v8.2969q5.6094 5.8125 15.297 15.594 9.7031 9.7969 12.188 12.641 4.7344 5.3125 6.6094 9 1.8906 3.6875 1.8906 7.25 0 5.8125-4.0781 9.4688-4.0781 3.6719-10.625 3.6719-4.6406 0-9.7969-1.6094-5.1406-1.6094-11-4.8906v9.9688q5.9531 2.3906 11.125 3.6094 5.1875 1.2188 9.4844 1.2188 11.328 0 18.062-5.6719 6.7344-5.6562 6.7344-15.125 0-4.5-1.6875-8.5312-1.6719-4.0156-6.125-9.4844-1.2188-1.4219-7.7656-8.1875-6.5312-6.7656-18.453-18.922z"/>
</defs>
<g transform="translate(103.22 420.12) scale(.1 -.1)">
<use xlink:href="#c"/>
<use x="63.623047" xlink:href="#e"/>
<use x="95.410156" xlink:href="#p"/>
</g>
</g>
<g clip-path="url(#a)">
<defs>
<path id="o" d="m40.578 39.312q7.0781-1.5156 11.047-6.3125 3.9844-4.7812 3.9844-11.812 0-10.781-7.4219-16.703-7.4219-5.9062-21.094-5.9062-4.5781 0-9.4375 0.90625t-10.031 2.7188v9.5156q4.0938-2.3906 8.9688-3.6094 4.8906-1.2188 10.219-1.2188 9.2656 0 14.125 3.6562t4.8594 10.641q0 6.4531-4.5156 10.078-4.5156 3.6406-12.562 3.6406h-8.5v8.1094h8.8906q7.2656 0 11.125 2.9062t3.8594 8.375q0 5.6094-3.9844 8.6094-3.9688 3.0156-11.391 3.0156-4.0625 0-8.7031-0.89062-4.6406-0.875-10.203-2.7188v8.7812q5.625 1.5625 10.531 2.3438t9.25 0.78125q11.234 0 17.766-5.1094 6.5469-5.0938 6.5469-13.781 0-6.0625-3.4688-10.234t-9.8594-5.7812z"/>
</defs>
<g transform="translate(153.9 788.73) scale(.1 -.1)">
<use xlink:href="#c"/>
<use x="63.623047" xlink:href="#e"/>
<use x="95.410156" xlink:href="#o"/>
</g>
</g>
<g clip-path="url(#a)">
<defs>
<path id="m" d="m37.797 64.312-24.906-38.922h24.906zm-2.5938 8.5938h12.406v-47.516h10.406v-8.2031h-10.406v-17.188h-9.8125v17.188h-32.906v9.5156z"/>
</defs>
<g transform="translate(253.96 420.12) scale(.1 -.1)">
<use xlink:href="#c"/>
<use x="63.623047" xlink:href="#e"/>
<use x="95.410156" xlink:href="#m"/>
</g>
</g>
<g clip-path="url(#a)">
<defs>
<path id="n" d="m10.797 72.906h38.719v-8.3125h-29.688v-17.859q2.1406 0.73438 4.2812 1.0938 2.1562 0.35938 4.3125 0.35938 12.203 0 19.328-6.6875 7.1406-6.6875 7.1406-18.109 0-11.766-7.3281-18.297-7.3281-6.5156-20.656-6.5156-4.5938 0-9.3594 0.78125-4.75 0.78125-9.8281 2.3438v9.9219q4.3906-2.3906 9.0781-3.5625t9.9062-1.1719q8.4531 0 13.375 4.4375 4.9375 4.4375 4.9375 12.062 0 7.6094-4.9375 12.047-4.9219 4.4531-13.375 4.4531-3.9531 0-7.8906-0.875-3.9219-0.875-8.0156-2.7344z"/>
</defs>
<g transform="translate(458.01 788.73) scale(.1 -.1)">
<use xlink:href="#c"/>
<use x="63.623047" xlink:href="#e"/>
<use x="95.410156" xlink:href="#n"/>
</g>
</g>
<g clip-path="url(#a)">
<defs>
<path id="ae" d="m33.016 40.375q-6.6406 0-10.531-4.5469-3.875-4.5312-3.875-12.438 0-7.8594 3.875-12.438 3.8906-4.5625 10.531-4.5625t10.516 4.5625q3.875 4.5781 3.875 12.438 0 7.9062-3.875 12.438-3.875 4.5469-10.516 4.5469zm19.578 30.922v-8.9844q-3.7188 1.75-7.5 2.6719-3.7812 0.9375-7.5 0.9375-9.7656 0-14.922-6.5938-5.1406-6.5938-5.875-19.922 2.875 4.25 7.2188 6.5156 4.3594 2.2656 9.5781 2.2656 10.984 0 17.359-6.6719 6.375-6.6562 6.375-18.125 0-11.234-6.6406-18.031-6.6406-6.7812-17.672-6.7812-12.656 0-19.344 9.6875-6.6875 9.7031-6.6875 28.109 0 17.281 8.2031 27.562t22.016 10.281q3.7188 0 7.5-0.73438t7.8906-2.1875z"/>
</defs>
<g transform="translate(741.59 234.71) scale(.1 -.1)">
<use xlink:href="#c"/>
<use x="63.623047" xlink:href="#e"/>
<use x="95.410156" xlink:href="#ae"/>
</g>
</g>
<g clip-path="url(#a)">
<defs>
<path id="ab" d="m8.2031 72.906h46.875v-4.2031l-26.469-68.703h-10.297l24.906 64.594h-35.016z"/>
</defs>
<g transform="translate(987.38 788.73) scale(.1 -.1)">
<use xlink:href="#c"/>
<use x="63.623047" xlink:href="#e"/>
<use x="95.410156" xlink:href="#ab"/>
</g>
</g>
<g clip-path="url(#a)">
<defs>
<path id="aa" d="m31.781 34.625q-7.0312 0-11.062-3.7656-4.0156-3.7656-4.0156-10.344 0-6.5938 4.0156-10.359 4.0312-3.7656 11.062-3.7656t11.078 3.7812q4.0625 3.7969 4.0625 10.344 0 6.5781-4.0312 10.344-4.0156 3.7656-11.109 3.7656zm-9.8594 4.1875q-6.3438 1.5625-9.8906 5.9062-3.5312 4.3594-3.5312 10.609 0 8.7344 6.2188 13.812 6.2344 5.0781 17.062 5.0781 10.891 0 17.094-5.0781t6.2031-13.812q0-6.25-3.5469-10.609-3.5312-4.3438-9.8281-5.9062 7.125-1.6562 11.094-6.5 3.9844-4.8281 3.9844-11.797 0-10.609-6.4688-16.281-6.4688-5.6562-18.531-5.6562-12.047 0-18.531 5.6562-6.4688 5.6719-6.4688 16.281 0 6.9688 4 11.797 4.0156 4.8438 11.141 6.5zm-3.6094 15.578q0-5.6562 3.5312-8.8281 3.5469-3.1719 9.9375-3.1719 6.3594 0 9.9375 3.1719 3.5938 3.1719 3.5938 8.8281 0 5.6719-3.5938 8.8438-3.5781 3.1719-9.9375 3.1719-6.3906 0-9.9375-3.1719-3.5312-3.1719-3.5312-8.8438z"/>
</defs>
<g transform="translate(1140.8 234.71) scale(.1 -.1)">
<use xlink:href="#c"/>
<use x="63.623047" xlink:href="#e"/>
<use x="95.410156" xlink:href="#aa"/>
</g>
</g>
<g clip-path="url(#a)">
<defs>
<path id="ah" d="m31.781 66.406q-7.6094 0-11.453-7.5-3.8281-7.4844-3.8281-22.531 0-14.984 3.8281-22.484 3.8438-7.5 11.453-7.5 7.6719 0 11.5 7.5 3.8438 7.5 3.8438 22.484 0 15.047-3.8438 22.531-3.8281 7.5-11.5 7.5zm0 7.8125q12.266 0 18.734-9.7031 6.4688-9.6875 6.4688-28.141 0-18.406-6.4688-28.109-6.4688-9.6875-18.734-9.6875-12.25 0-18.719 9.6875-6.4688 9.7031-6.4688 28.109 0 18.453 6.4688 28.141 6.4688 9.7031 18.719 9.7031z"/>
</defs>
<g transform="translate(1083.3 788.73) scale(.1 -.1)">
<use xlink:href="#c"/>
<use x="63.623047" xlink:href="#e"/>
<use x="95.410156" xlink:href="#c"/>
<use x="159.033203" xlink:href="#ah"/>
</g>
</g>
<g clip-path="url(#a)">
<g transform="translate(1519.2 420.12) scale(.1 -.1)">
<use xlink:href="#c"/>
<use x="63.623047" xlink:href="#e"/>
<use x="95.410156" xlink:href="#c"/>
<use x="159.033203" xlink:href="#c"/>
</g>
</g>
<g clip-path="url(#a)">
<g transform="translate(1371.7 604.91) scale(.1 -.1)">
<use xlink:href="#c"/>
<use x="63.623047" xlink:href="#e"/>
<use x="95.410156" xlink:href="#c"/>
<use x="159.033203" xlink:href="#m"/>
</g>
</g>
<g clip-path="url(#a)">
<g transform="translate(1697.2 604.91) scale(.1 -.1)">
<use xlink:href="#c"/>
<use x="63.623047" xlink:href="#e"/>
<use x="95.410156" xlink:href="#c"/>
<use x="159.033203" xlink:href="#n"/>
</g>
</g>
<g clip-path="url(#a)">
<g transform="translate(1569.9 788.73) scale(.1 -.1)">
<use xlink:href="#c"/>
<use x="63.623047" xlink:href="#e"/>
<use x="95.410156" xlink:href="#c"/>
<use x="159.033203" xlink:href="#ab"/>
</g>
</g>
<g clip-path="url(#a)">
<g transform="translate(1653.2 788.73) scale(.1 -.1)">
<use xlink:href="#c"/>
<use x="63.623047" xlink:href="#e"/>
<use x="95.410156" xlink:href="#c"/>
<use x="159.033203" xlink:href="#aa"/>
</g>
</g>
<g clip-path="url(#a)">
<g transform="translate(1333.4 788.73) scale(.1 -.1)">
<use xlink:href="#c"/>
<use x="63.623047" xlink:href="#e"/>
<use x="95.410156" xlink:href="#p"/>
<use x="159.033203" xlink:href="#c"/>
</g>
</g>
<g clip-path="url(#a)">
<g transform="translate(1409.9 788.73) scale(.1 -.1)">
<use xlink:href="#c"/>
<use x="63.623047" xlink:href="#e"/>
<use x="95.410156" xlink:href="#p"/>
<use x="159.033203" xlink:href="#p"/>
</g>
</g>
<g clip-path="url(#a)">
<g transform="translate(608.76 420.12) scale(.1 -.1)">
<use xlink:href="#c"/>
<use x="63.623047" xlink:href="#e"/>
<use x="95.410156" xlink:href="#p"/>
<use x="159.033203" xlink:href="#o"/>
</g>
</g>
<g clip-path="url(#a)">
<g transform="translate(745.42 788.73) scale(.1 -.1)">
<use xlink:href="#c"/>
<use x="63.623047" xlink:href="#e"/>
<use x="95.410156" xlink:href="#p"/>
<use x="159.033203" xlink:href="#m"/>
</g>
</g>
<g clip-path="url(#a)">
<g transform="translate(861.05 604.91) scale(.1 -.1)">
<use xlink:href="#c"/>
<use x="63.623047" xlink:href="#e"/>
<use x="95.410156" xlink:href="#p"/>
<use x="159.033203" xlink:href="#n"/>
</g>
</g>
<g clip-path="url(#a)">
<g transform="translate(801.73 788.73) scale(.1 -.1)">
<use xlink:href="#c"/>
<use x="63.623047" xlink:href="#e"/>
<use x="95.410156" xlink:href="#p"/>
<use x="159.033203" xlink:href="#ae"/>
</g>
</g>
<g clip-path="url(#a)">
<g transform="translate(860.3 788.73) scale(.1 -.1)">
<use xlink:href="#c"/>
<use x="63.623047" xlink:href="#e"/>
<use x="95.410156" xlink:href="#p"/>
<use x="159.033203" xlink:href="#ab"/>
</g>
</g>
<g clip-path="url(#a)">
<g transform="translate(921.12 788.73) scale(.1 -.1)">
<use xlink:href="#c"/>
<use x="63.623047" xlink:href="#e"/>
<use x="95.410156" xlink:href="#p"/>
<use x="159.033203" xlink:href="#aa"/>
</g>
</g>
<g clip-path="url(#a)">
<defs>
<path id="aj" d="m10.984 1.5156v8.9844q3.7188-1.7656 7.5156-2.6875 3.8125-0.92188 7.4844-0.92188 9.7656 0 14.906 6.5625 5.1562 6.5625 5.8906 19.953-2.8281-4.2031-7.1875-6.4531-4.3438-2.25-9.6094-2.25-10.938 0-17.312 6.6094-6.375 6.625-6.375 18.109 0 11.219 6.6406 18 6.6406 6.7969 17.672 6.7969 12.656 0 19.312-9.7031 6.6719-9.6875 6.6719-28.141 0-17.234-8.1875-27.516-8.1719-10.281-21.984-10.281-3.7188 0-7.5312 0.73438-3.7969 0.73438-7.9062 2.2031zm19.625 30.906q6.6406 0 10.516 4.5312 3.8906 4.5469 3.8906 12.469 0 7.8594-3.8906 12.422-3.875 4.5625-10.516 4.5625t-10.516-4.5625-3.875-12.422q0-7.9219 3.875-12.469 3.875-4.5312 10.516-4.5312z"/>
</defs>
<g transform="translate(520.15 604.91) scale(.1 -.1)">
<use xlink:href="#c"/>
<use x="63.623047" xlink:href="#e"/>
<use x="95.410156" xlink:href="#p"/>
<use x="159.033203" xlink:href="#aj"/>
</g>
</g>
<g clip-path="url(#a)">
<g transform="translate(614.76 604.91) scale(.1 -.1)">
<use xlink:href="#c"/>
<use x="63.623047" xlink:href="#e"/>
<use x="95.410156" xlink:href="#o"/>
<use x="159.033203" xlink:href="#ah"/>
</g>
</g>
<g clip-path="url(#a)">
<g transform="translate(691.35 788.73) scale(.1 -.1)">
<use xlink:href="#c"/>
<use x="63.623047" xlink:href="#e"/>
<use x="95.410156" xlink:href="#o"/>
<use x="159.033203" xlink:href="#c"/>
</g>
</g>
<g clip-path="url(#a)">
<g transform="translate(589.98 788.73) scale(.1 -.1)">
<use xlink:href="#c"/>
<use x="63.623047" xlink:href="#e"/>
<use x="95.410156" xlink:href="#o"/>
<use x="159.033203" xlink:href="#p"/>
</g>
</g>
<g clip-path="url(#a)">
<g transform="translate(639.54 788.73) scale(.1 -.1)">
<use xlink:href="#c"/>
<use x="63.623047" xlink:href="#e"/>
<use x="95.410156" xlink:href="#o"/>
<use x="159.033203" xlink:href="#o"/>
</g>
</g>
<g clip-path="url(#a)">
<g transform="translate(497.63 788.73) scale(.1 -.1)">
<use xlink:href="#c"/>
<use x="63.623047" xlink:href="#e"/>
<use x="95.410156" xlink:href="#o"/>
<use x="159.033203" xlink:href="#m"/>
</g>
</g>
<g clip-path="url(#a)">
<g transform="translate(542.68 788.73) scale(.1 -.1)">
<use xlink:href="#c"/>
<use x="63.623047" xlink:href="#e"/>
<use x="95.410156" xlink:href="#o"/>
<use x="159.033203" xlink:href="#n"/>
</g>
</g>
<g clip-path="url(#a)">
<g transform="translate(170.99 788.73) scale(.1 -.1)">
<use xlink:href="#c"/>
<use x="63.623047" xlink:href="#e"/>
<use x="95.410156" xlink:href="#o"/>
<use x="159.033203" xlink:href="#ae"/>
</g>
</g>
<g clip-path="url(#a)">
<g transform="translate(193.52 788.73) scale(.1 -.1)">
<use xlink:href="#c"/>
<use x="63.623047" xlink:href="#e"/>
<use x="95.410156" xlink:href="#o"/>
<use x="159.033203" xlink:href="#ab"/>
</g>
</g>
<g clip-path="url(#a)">
<g transform="translate(262.23 788.73) scale(.1 -.1)">
<use xlink:href="#c"/>
<use x="63.623047" xlink:href="#e"/>
<use x="95.410156" xlink:href="#o"/>
<use x="159.033203" xlink:href="#aa"/>
</g>
</g>
<g clip-path="url(#a)">
<g transform="translate(245.33 788.73) scale(.1 -.1)">
<use xlink:href="#c"/>
<use x="63.623047" xlink:href="#e"/>
<use x="95.410156" xlink:href="#o"/>
<use x="159.033203" xlink:href="#aj"/>
</g>
</g>
<g clip-path="url(#a)">
<g transform="translate(274.61 788.73) scale(.1 -.1)">
<use xlink:href="#c"/>
<use x="63.623047" xlink:href="#e"/>
<use x="95.410156" xlink:href="#m"/>
<use x="159.033203" xlink:href="#ah"/>
</g>
</g>
<g clip-path="url(#a)">
<g transform="translate(357.96 604.91) scale(.1 -.1)">
<use xlink:href="#c"/>
<use x="63.623047" xlink:href="#e"/>
<use x="95.410156" xlink:href="#m"/>
<use x="159.033203" xlink:href="#c"/>
</g>
</g>
<g clip-path="url(#a)">
<g transform="translate(339.94 788.73) scale(.1 -.1)">
<use xlink:href="#c"/>
<use x="63.623047" xlink:href="#e"/>
<use x="95.410156" xlink:href="#m"/>
<use x="159.033203" xlink:href="#p"/>
</g>
</g>
<g clip-path="url(#a)">
<g transform="translate(375.98 788.73) scale(.1 -.1)">
<use xlink:href="#c"/>
<use x="63.623047" xlink:href="#e"/>
<use x="95.410156" xlink:href="#m"/>
<use x="159.033203" xlink:href="#o"/>
</g>
</g>
<g clip-path="url(#a)">
<g transform="translate(79.761 604.91) scale(.1 -.1)">
<use xlink:href="#c"/>
<use x="63.623047" xlink:href="#e"/>
<use x="95.410156" xlink:href="#m"/>
<use x="159.033203" xlink:href="#m"/>
</g>
</g>
<g clip-path="url(#a)">
<g transform="translate(92.151 788.73) scale(.1 -.1)">
<use xlink:href="#c"/>
<use x="63.623047" xlink:href="#e"/>
<use x="95.410156" xlink:href="#m"/>
<use x="159.033203" xlink:href="#n"/>
</g>
</g>
<g clip-path="url(#a)">
<g transform="translate(103.41 788.73) scale(.1 -.1)">
<use xlink:href="#c"/>
<use x="63.623047" xlink:href="#e"/>
<use x="95.410156" xlink:href="#m"/>
<use x="159.033203" xlink:href="#ae"/>
</g>
</g>
<g clip-path="url(#a)">
<g transform="translate(124.81 604.91) scale(.1 -.1)">
<use xlink:href="#c"/>
<use x="63.623047" xlink:href="#e"/>
<use x="95.410156" xlink:href="#m"/>
<use x="159.033203" xlink:href="#ab"/>
</g>
</g>
<g clip-path="url(#a)">
<g transform="translate(116.93 788.73) scale(.1 -.1)">
<use xlink:href="#c"/>
<use x="63.623047" xlink:href="#e"/>
<use x="95.410156" xlink:href="#m"/>
<use x="159.033203" xlink:href="#aa"/>
</g>
</g>
<g clip-path="url(#a)">
<g transform="translate(132.7 788.73) scale(.1 -.1)">
<use xlink:href="#c"/>
<use x="63.623047" xlink:href="#e"/>
<use x="95.410156" xlink:href="#m"/>
<use x="159.033203" xlink:href="#aj"/>
</g>
</g>
<g clip-path="url(#a)">
<g transform="translate(76.382 788.73) scale(.1 -.1)">
<use xlink:href="#c"/>
<use x="63.623047" xlink:href="#e"/>
<use x="95.410156" xlink:href="#n"/>
<use x="159.033203" xlink:href="#ah"/>
</g>
</g>
<g clip-path="url(#a)">
<g transform="translate(83.14 788.73) scale(.1 -.1)">
<use xlink:href="#c"/>
<use x="63.623047" xlink:href="#e"/>
<use x="95.410156" xlink:href="#n"/>
<use x="159.033203" xlink:href="#c"/>
</g>
</g>
<g clip-path="url(#a)">
<g transform="translate(200.75 234.71) scale(.1 -.1)">
<use xlink:href="#c"/>
<use x="63.623047" xlink:href="#e"/>
<use x="95.410156" xlink:href="#n"/>
<use x="159.033203" xlink:href="#p"/>
</g>
</g>
<g clip-path="url(#a)">
<g transform="translate(414.28 788.73) scale(.1 -.1)">
<use xlink:href="#c"/>
<use x="63.623047" xlink:href="#e"/>
<use x="95.410156" xlink:href="#n"/>
<use x="159.033203" xlink:href="#o"/>
</g>
</g>
<g clip-path="url(#a)">
<g transform="translate(1186.9 788.73) scale(.1 -.1)">
<use xlink:href="#c"/>
<use x="63.623047" xlink:href="#e"/>
<use x="95.410156" xlink:href="#n"/>
<use x="159.033203" xlink:href="#m"/>
</g>
</g>
<g clip-path="url(#a)">
<g transform="translate(1259 788.73) scale(.1 -.1)">
<use xlink:href="#c"/>
<use x="63.623047" xlink:href="#e"/>
<use x="95.410156" xlink:href="#n"/>
<use x="159.033203" xlink:href="#n"/>
</g>
</g>
<g clip-path="url(#a)">
<g transform="translate(1488.8 788.73) scale(.1 -.1)">
<use xlink:href="#c"/>
<use x="63.623047" xlink:href="#e"/>
<use x="95.410156" xlink:href="#n"/>
<use x="159.033203" xlink:href="#ae"/>
</g>
</g>
<g clip-path="url(#a)">
<g transform="translate(1738.8 788.73) scale(.1 -.1)">
<use xlink:href="#c"/>
<use x="63.623047" xlink:href="#e"/>
<use x="95.410156" xlink:href="#n"/>
<use x="159.033203" xlink:href="#ab"/>
</g>
</g>
<g clip-path="url(#a)">
<g transform="translate(1826.7 788.73) scale(.1 -.1)">
<use xlink:href="#c"/>
<use x="63.623047" xlink:href="#e"/>
<use x="95.410156" xlink:href="#n"/>
<use x="159.033203" xlink:href="#aa"/>
</g>
</g>
<defs>
<clipPath id="a">
<rect width="1925.3" height="1013.3"/>
</clipPath>
</defs>
</svg>
