<?xml version="1.0" encoding="UTF-8"?>
<!DOCTYPE svg  PUBLIC '-//W3C//DTD SVG 1.1//EN'  'http://www.w3.org/Graphics/SVG/1.1/DTD/svg11.dtd'>
<svg width="1165.3pt" height="613.33pt" version="1.1" viewBox="0 0 1165.3 613.33" xmlns="http://www.w3.org/2000/svg" xmlns:xlink="http://www.w3.org/1999/xlink">
<defs>
<style type="text/css">*{stroke-linecap:butt;stroke-linejoin:round;white-space:pre;}</style>
</defs>
<path d="m0 613.33h1165.3v-613.33h-1165.3z" fill="#fff"/>
<g fill="none" stroke="#000">
<path d="m478.72 28.985-298.66 227.44" clip-path="url(#a)"/>
<path d="m478.72 28.985 86.303 337.76" clip-path="url(#a)"/>
<path d="m478.72 28.985 103.95 446.56" clip-path="url(#a)"/>
<path d="m478.72 28.985 209.35 115" clip-path="url(#a)"/>
<path d="m478.72 28.985-160.78 446.56" clip-path="url(#a)"/>
<path d="m478.72 28.985 59.83 446.56" clip-path="url(#a)"/>
<path d="m180.06 256.43-104.79 110.32" clip-path="url(#a)"/>
<path d="m180.06 256.43 5.5152 219.12" clip-path="url(#a)"/>
<path d="m180.06 256.43 5.5152 219.12" clip-path="url(#a)"/>
<path d="m180.06 256.43 93.759 219.12" clip-path="url(#a)"/>
<path d="m565.02 366.74 547.11 217.6" clip-path="url(#a)"/>
<path d="m565.02 366.74-202.96 108.8" clip-path="url(#a)"/>
<path d="m565.02 366.74-158.84 108.8" clip-path="url(#a)"/>
<path d="m565.02 366.74-114.72 108.8" clip-path="url(#a)"/>
<path d="m565.02 366.74-70.595 108.8" clip-path="url(#a)"/>
<path d="m582.67 475.55v108.8" clip-path="url(#a)"/>
<path d="m688.07 143.99-61.28 331.56" clip-path="url(#a)"/>
<path d="m688.07 143.99 63.731 112.44" clip-path="url(#a)"/>
<path d="m688.07 143.99 247.57 331.56" clip-path="url(#a)"/>
<path d="m688.07 143.99 269.63 222.76" clip-path="url(#a)"/>
<path d="m688.07 143.99-326.01 331.56" clip-path="url(#a)" stroke-dasharray="3.7,1.6"/>
<path d="m688.07 143.99-193.65 331.56" clip-path="url(#a)" stroke-dasharray="3.7,1.6"/>
<path d="m626.79 475.55v108.8" clip-path="url(#a)"/>
<path d="m751.8 256.43-80.89 219.12" clip-path="url(#a)"/>
<path d="m751.8 256.43-14.707 110.32" clip-path="url(#a)"/>
<path d="m751.8 256.43 95.597 110.32" clip-path="url(#a)"/>
<path d="m935.64 475.55v108.8" clip-path="url(#a)"/>
<path d="m957.7 366.74 110.3 217.6" clip-path="url(#a)"/>
<path d="m957.7 366.74 22.061 108.8" clip-path="url(#a)"/>
<path d="m957.7 366.74-198.55 108.8" clip-path="url(#a)" stroke-dasharray="3.7,1.6"/>
<path d="m957.7 366.74 66.183 108.8" clip-path="url(#a)"/>
<path d="m979.76 475.55v108.8" clip-path="url(#a)"/>
<path d="m670.91 475.55v108.8" clip-path="url(#a)"/>
<path d="m737.09 366.74-22.061 108.8" clip-path="url(#a)"/>
<path d="m737.09 366.74 22.061 108.8" clip-path="url(#a)"/>
<path d="m847.4 366.74-44.122 108.8" clip-path="url(#a)"/>
<path d="m847.4 366.74v108.8" clip-path="url(#a)"/>
<path d="m847.4 366.74 44.122 108.8" clip-path="url(#a)"/>
<path d="m803.28 475.55v108.8" clip-path="url(#a)"/>
<path d="m847.4 475.55v108.8" clip-path="url(#a)"/>
<path d="m891.52 475.55v108.8" clip-path="url(#a)"/>
<path d="m715.03 475.55v108.8" clip-path="url(#a)"/>
<path d="m759.15 475.55v108.8" clip-path="url(#a)"/>
<path d="m362.06 475.55v108.8" clip-path="url(#a)"/>
<path d="m406.18 475.55v108.8" clip-path="url(#a)"/>
<path d="m450.3 475.55v108.8" clip-path="url(#a)"/>
<path d="m494.42 475.55v108.8" clip-path="url(#a)"/>
<path d="m75.267 366.74-22.061 108.8" clip-path="url(#a)"/>
<path d="m75.267 366.74 22.061 108.8" clip-path="url(#a)"/>
<path d="m185.57 475.55-44.122 108.8" clip-path="url(#a)"/>
<path d="m185.57 475.55 44.122 108.8" clip-path="url(#a)"/>
<path d="m185.57 475.55v108.8" clip-path="url(#a)"/>
<path d="m273.81 475.55v108.8" clip-path="url(#a)"/>
<path d="m53.206 475.55v108.8" clip-path="url(#a)"/>
<path d="m97.328 475.55v108.8" clip-path="url(#a)"/>
<path d="m611.92 28.985-46.9 337.76" clip-path="url(#a)"/>
<path d="m611.92 28.985-29.251 446.56" clip-path="url(#a)"/>
<path d="m611.92 28.985 76.151 115" clip-path="url(#a)"/>
<path d="m317.94 475.55v108.8" clip-path="url(#a)"/>
<path d="m538.54 475.55v108.8" clip-path="url(#a)"/>
<path d="m1023.9 475.55v108.8" clip-path="url(#a)"/>
</g>
<path d="m330.79 149.52 4.7863-3.645q1.9094-1.4541 0.4553-3.3634l-4.6909-6.1597q-1.4541-1.9094-3.3634-0.4553l-4.7863 3.645q-1.9094 1.4541-0.4553 3.3634l4.6909 6.1597q1.4541 1.9094 3.3634 0.4553z" clip-path="url(#a)" fill="#fff" stroke="#fff"/>
<g clip-path="url(#a)">
<defs>
<path id="ae" d="m9.8125 72.906h9.8594v-29.891h35.844v29.891h9.8594v-72.906h-9.8594v34.719h-35.844v-34.719h-9.8594z"/>
</defs>
<g transform="translate(328.33 146.28) rotate(-37.291) scale(.08 -.08)">
<use xlink:href="#ae"/>
</g>
</g>
<path d="m515.05 196.5 1.4894 5.829q0.59415 2.3253 2.9194 1.7311l7.5015-1.9168q2.3253-0.59415 1.7311-2.9194l-1.4894-5.829q-0.59415-2.3253-2.9194-1.7311l-7.5015 1.9168q-2.3253 0.59415-1.7311 2.9194z" clip-path="url(#a)" fill="#fff" stroke="#fff"/>
<g clip-path="url(#a)">
<g transform="translate(518.98 195.5) rotate(75.667) scale(.08 -.08)">
<use xlink:href="#ae"/>
</g>
</g>
<path d="m524.08 251.52 1.0106 4.3414q0.54413 2.3375 2.8816 1.7934l7.5409-1.7554q2.3375-0.54413 1.7934-2.8816l-1.0106-4.3414q-0.54413-2.3375-2.8816-1.7934l-7.5409 1.7554q-2.3375 0.54413-1.7934 2.8816z" clip-path="url(#a)" fill="#fff" stroke="#fff"/>
<g clip-path="url(#a)">
<defs>
<path id="q" d="m9.8125 72.906h9.8594v-64.609h35.5v-8.2969h-45.359z"/>
</defs>
<g transform="translate(528.04 250.6) rotate(76.896) scale(.08 -.08)">
<use xlink:href="#q"/>
</g>
</g>
<path d="m577.74 90.534 5.273 2.8966q2.1035 1.1555 3.259-0.94801l3.7277-6.786q1.1555-2.1035-0.94801-3.259l-5.273-2.8966q-2.1035-1.1555-3.259 0.94801l-3.7277 6.786q-1.1555 2.1035 0.94801 3.259z" clip-path="url(#a)" fill="#fff" stroke="#fff"/>
<g clip-path="url(#a)">
<g transform="translate(579.69 86.973) rotate(28.781) scale(.08 -.08)">
<use xlink:href="#ae"/>
</g>
</g>
<path d="m403.23 257.14 1.9834-5.5088q0.813-2.2581-1.4451-3.0711l-7.2847-2.6228q-2.2581-0.813-3.0711 1.4451l-1.9834 5.5088q-0.813 2.2581 1.4451 3.0711l7.2847 2.6228q2.2581 0.813 3.0711-1.4451z" clip-path="url(#a)" fill="#fff" stroke="#fff"/>
<g clip-path="url(#a)">
<defs>
<path id="ac" d="m8.6875 72.906h9.9219v-44.297q0-11.719 4.2344-16.875 4.25-5.1406 13.781-5.1406 9.4688 0 13.719 5.1406 4.25 5.1562 4.25 16.875v44.297h9.9062v-45.516q0-14.25-7.0625-21.531-7.0469-7.2812-20.812-7.2812-13.828 0-20.891 7.2812-7.0469 7.2812-7.0469 21.531z"/>
</defs>
<g transform="translate(399.41 255.77) rotate(-70.199) scale(.08 -.08)">
<use xlink:href="#ac"/>
</g>
</g>
<path d="m502.03 250.2 0.7775 5.8031q0.3187 2.3787 2.6974 2.06l7.6739-1.0281q2.3787-0.3187 2.06-2.6974l-0.7775-5.8031q-0.3187-2.3787-2.6974-2.06l-7.6739 1.0281q-2.3787 0.3187-2.06 2.6974z" clip-path="url(#a)" fill="#fff" stroke="#fff"/>
<g clip-path="url(#a)">
<g transform="translate(506.05 249.66) rotate(82.369) scale(.08 -.08)">
<use xlink:href="#ac"/>
</g>
</g>
<path d="m130.32 317.89 3.769-3.9678q1.6529-1.7401-0.08718-3.393l-5.6136-5.3323q-1.7401-1.6529-3.393 0.087179l-3.769 3.9678q-1.6529 1.7401 0.087179 3.393l5.6136 5.3323q1.7401 1.6529 3.393-0.087179z" clip-path="url(#a)" fill="#fff" stroke="#fff"/>
<g clip-path="url(#a)">
<defs>
<path id="o" d="m34.188 63.188-13.391-36.281h26.812zm-5.5781 9.7188h11.188l27.781-72.906h-10.25l-6.6406 18.703h-32.859l-6.6406-18.703h-10.406z"/>
</defs>
<g transform="translate(127.38 315.09) rotate(-46.472) scale(.08 -.08)">
<use xlink:href="#o"/>
</g>
</g>
<path d="m176.47 363.07 0.155 6.158q0.060389 2.3992 2.4596 2.3389l7.74-0.19482q2.3992-0.060388 2.3389-2.4596l-0.155-6.158q-0.060389-2.3992-2.4596-2.3389l-7.74 0.19482q-2.3992 0.060389-2.3389 2.4596z" clip-path="url(#a)" fill="#fff" stroke="#fff"/>
<g clip-path="url(#a)">
<defs>
<path id="an" d="m19.672 64.797v-56.688h11.922q15.094 0 22.094 6.8281 7 6.8438 7 21.594 0 14.641-7 21.453t-22.094 6.8125zm-9.8594 8.1094h20.266q21.188 0 31.094-8.8125 9.9219-8.8125 9.9219-27.562 0-18.859-9.9688-27.703-9.9531-8.8281-31.047-8.8281h-20.266z"/>
</defs>
<g transform="translate(180.53 362.96) rotate(88.558) scale(.08 -.08)">
<use xlink:href="#an"/>
</g>
</g>
<path d="m176.49 363.84 0.11578 4.5998q0.060389 2.3992 2.4596 2.3389l7.74-0.19482q2.3992-0.060389 2.3389-2.4596l-0.11578-4.5998q-0.060389-2.3992-2.4596-2.3389l-7.74 0.19482q-2.3992 0.060389-2.3389 2.4596z" clip-path="url(#a)" fill="#fff" stroke="#fff"/>
<g clip-path="url(#a)">
<defs>
<path id="af" d="m9.8125 72.906h41.891v-8.3125h-32.031v-21.484h28.906v-8.2969h-28.906v-34.812h-9.8594z"/>
</defs>
<g transform="translate(180.55 363.74) rotate(88.558) scale(.08 -.08)">
<use xlink:href="#af"/>
</g>
</g>
<path d="m220.22 366.24 1.8976 4.4348q0.94414 2.2065 3.1506 1.2624l7.1182-3.0458q2.2065-0.94414 1.2624-3.1506l-1.8976-4.4348q-0.94414-2.2065-3.1506-1.2624l-7.1182 3.0458q-2.2065 0.94414-1.2624 3.1506z" clip-path="url(#a)" fill="#fff" stroke="#fff"/>
<g clip-path="url(#a)">
<defs>
<path id="u" d="m19.672 64.797v-27.391h12.406q6.8906 0 10.641 3.5625 3.7656 3.5625 3.7656 10.156 0 6.5469-3.7656 10.109-3.75 3.5625-10.641 3.5625zm-9.8594 8.1094h22.266q12.266 0 18.531-5.5469 6.2812-5.5469 6.2812-16.234 0-10.797-6.2812-16.312-6.2656-5.5156-18.531-5.5156h-12.406v-29.297h-9.8594z"/>
</defs>
<g transform="translate(223.96 364.64) rotate(66.834) scale(.08 -.08)">
<use xlink:href="#u"/>
</g>
</g>
<path d="m833.71 480.36 5.085 2.0225q2.2301 0.88698 3.1171-1.3431l2.8614-7.1943q0.88698-2.2301-1.3431-3.1171l-5.085-2.0225q-2.2301-0.88698-3.1171 1.3431l-2.8614 7.1943q-0.88698 2.2301 1.3431 3.1171z" clip-path="url(#a)" fill="#fff" stroke="#fff"/>
<g clip-path="url(#a)">
<g transform="translate(835.21 476.59) rotate(21.689) scale(.08 -.08)">
<use xlink:href="#o"/>
</g>
</g>
<path d="m464.09 427.96 4.8232-2.5856q2.1152-1.1339 0.9813-3.2492l-3.6581-6.8238q-1.1339-2.1152-3.2492-0.9813l-4.8232 2.5856q-2.1152 1.1339-0.9813 3.2492l3.6581 6.8238q1.1339 2.1152 3.2492 0.9813z" clip-path="url(#a)" fill="#fff" stroke="#fff"/>
<g clip-path="url(#a)">
<g transform="translate(462.17 424.38) rotate(-28.195) scale(.08 -.08)">
<use xlink:href="#o"/>
</g>
</g>
<path d="m487.24 427.62 3.7961-2.6003q1.98-1.3563 0.62373-3.3363l-4.3755-6.3876q-1.3563-1.98-3.3363-0.62373l-3.7961 2.6003q-1.98 1.3563-0.62373 3.3363l4.3755 6.3876q1.3563 1.98 3.3363 0.62373z" clip-path="url(#a)" fill="#fff" stroke="#fff"/>
<g clip-path="url(#a)">
<g transform="translate(484.95 424.27) rotate(-34.411) scale(.08 -.08)">
<use xlink:href="#af"/>
</g>
</g>
<path d="m510.31 427.28 3.3385-3.1664q1.7413-1.6516 0.089773-3.3929l-5.3281-5.6177q-1.6516-1.7413-3.3929-0.089772l-3.3385 3.1664q-1.7413 1.6516-0.089773 3.3929l5.3281 5.6177q1.6516 1.7413 3.3929 0.089773z" clip-path="url(#a)" fill="#fff" stroke="#fff"/>
<g clip-path="url(#a)">
<g transform="translate(507.51 424.33) rotate(-43.484) scale(.08 -.08)">
<use xlink:href="#af"/>
</g>
</g>
<path d="m533.67 426.58 2.6256-4.0466q1.3063-2.0133-0.70701-3.3197l-6.4951-4.2142q-2.0133-1.3063-3.3197 0.70702l-2.6256 4.0466q-1.3063 2.0133 0.70701 3.3197l6.4951 4.2142q2.0133 1.3063 3.3197-0.70702z" clip-path="url(#a)" fill="#fff" stroke="#fff"/>
<g clip-path="url(#a)">
<g transform="translate(530.26 424.37) rotate(-57.023) scale(.08 -.08)">
<use xlink:href="#u"/>
</g>
</g>
<path d="m576.4 512.3v35.285q0 2.4 2.4 2.4h7.7425q2.4 0 2.4-2.4v-35.285q0-2.4-2.4-2.4h-7.7425q-2.4 0-2.4 2.4z" clip-path="url(#a)" fill="#fff" stroke="#fff"/>
<g clip-path="url(#a)">
<defs>
<path id="j" d="m-0.29688 72.906h61.672v-8.3125h-25.875v-64.594h-9.9062v64.594h-25.891z"/>
<path id="h" d="m56.203 29.594v-4.3906h-41.312q0.59375-9.2812 5.5938-14.141t13.938-4.8594q5.1719 0 10.031 1.2656t9.6562 3.8125v-8.5q-4.8438-2.0469-9.9219-3.125t-10.297-1.0781q-13.094 0-20.734 7.6094-7.6406 7.625-7.6406 20.625 0 13.422 7.25 21.297 7.25 7.8906 19.562 7.8906 11.031 0 17.453-7.1094 6.4219-7.0938 6.4219-19.297zm-8.9844 2.6406q-0.09375 7.3594-4.125 11.75-4.0312 4.4062-10.672 4.4062-7.5156 0-12.031-4.25t-5.2031-11.969z"/>
<path id="g" d="m41.109 46.297q-1.5156 0.875-3.2969 1.2812-1.7812 0.42188-3.9219 0.42188-7.625 0-11.703-4.9531t-4.0781-14.234v-28.812h-9.0312v54.688h9.0312v-8.5q2.8438 4.9844 7.375 7.3906 4.5469 2.4219 11.047 2.4219 0.92188 0 2.0469-0.125 1.125-0.10938 2.4844-0.35938z"/>
<path id="l" d="m52 44.188q3.375 6.0625 8.0625 8.9375t11.031 2.875q8.5469 0 13.188-5.9844 4.6406-5.9688 4.6406-17v-33.016h-9.0312v32.719q0 7.8594-2.7969 11.656-2.7812 3.8125-8.4844 3.8125-6.9844 0-11.047-4.6406-4.0469-4.625-4.0469-12.641v-30.906h-9.0312v32.719q0 7.9062-2.7812 11.688t-8.5938 3.7812q-6.8906 0-10.953-4.6562-4.0469-4.6562-4.0469-12.625v-30.906h-9.0312v54.688h9.0312v-8.5q3.0781 5.0312 7.375 7.4219t10.203 2.3906q5.9688 0 10.141-3.0312 4.1719-3.0156 6.1719-8.7812z"/>
<path id="i" d="m9.4219 54.688h8.9844v-54.688h-8.9844zm0 21.297h8.9844v-11.391h-8.9844z"/>
<path id="f" d="m54.891 33.016v-33.016h-8.9844v32.719q0 7.7656-3.0312 11.609-3.0312 3.8594-9.0781 3.8594-7.2812 0-11.484-4.6406-4.2031-4.625-4.2031-12.641v-30.906h-9.0312v54.688h9.0312v-8.5q3.2344 4.9375 7.5938 7.375 4.375 2.4375 10.094 2.4375 9.4219 0 14.25-5.8281 4.8438-5.8281 4.8438-17.156z"/>
<path id="d" d="m34.281 27.484q-10.891 0-15.094-2.4844t-4.2031-8.5q0-4.7812 3.1562-7.5938 3.1562-2.7969 8.5625-2.7969 7.4844 0 12 5.2969t4.5156 14.078v2zm17.922 3.7188v-31.203h-8.9844v8.2969q-3.0781-4.9688-7.6719-7.3438t-11.234-2.375q-8.3906 0-13.359 4.7188-4.9531 4.7188-4.9531 12.625 0 9.2188 6.1719 13.906 6.1875 4.6875 18.438 4.6875h12.609v0.89062q0 6.2031-4.0781 9.5938t-11.453 3.3906q-4.6875 0-9.1406-1.125-4.4375-1.125-8.5312-3.375v8.3125q4.9219 1.9062 9.5625 2.8438 4.6406 0.95312 9.0312 0.95312 11.875 0 17.734-6.1562 5.8594-6.1406 5.8594-18.641z"/>
<path id="k" d="m9.4219 75.984h8.9844v-75.984h-8.9844z"/>
</defs>
<g transform="translate(580.46 512.3) rotate(90) scale(.08 -.08)">
<use xlink:href="#j"/>
<use x="60.818359" xlink:href="#h"/>
<use x="122.341797" xlink:href="#g"/>
<use x="163.439453" xlink:href="#l"/>
<use x="260.851562" xlink:href="#i"/>
<use x="288.634766" xlink:href="#f"/>
<use x="352.013672" xlink:href="#d"/>
<use x="413.292969" xlink:href="#k"/>
</g>
</g>
<path d="m663.09 313.64 1.0103-5.4662q0.43619-2.36-1.9238-2.7962l-7.6136-1.4072q-2.36-0.43619-2.7962 1.9238l-1.0103 5.4662q-0.43619 2.36 1.9238 2.7962l7.6136 1.4072q2.36 0.43619 2.7962-1.9238z" clip-path="url(#a)" fill="#fff" stroke="#fff"/>
<g clip-path="url(#a)">
<defs>
<path id="w" d="m44.391 34.188q3.1719-1.0781 6.1719-4.5938t6.0312-9.6719l10.016-19.922h-10.609l-9.3125 18.703q-3.625 7.3281-7.0156 9.7188t-9.25 2.3906h-10.75v-30.812h-9.8594v72.906h22.266q12.5 0 18.656-5.2344 6.1562-5.2188 6.1562-15.766 0-6.8906-3.2031-11.438-3.2031-4.5312-9.2969-6.2812zm-24.719 30.609v-25.875h12.406q7.125 0 10.766 3.2969t3.6406 9.6875-3.6406 9.6406-10.766 3.25z"/>
</defs>
<g transform="translate(659.09 312.9) rotate(-79.529) scale(.08 -.08)">
<use xlink:href="#w"/>
</g>
</g>
<path d="m713.13 200.92 2.6985 4.7609q1.1834 2.0879 3.2714 0.90449l6.7358-3.8178q2.0879-1.1834 0.90449-3.2714l-2.6985-4.7609q-1.1834-2.0879-3.2714-0.90449l-6.7358 3.8178q-2.0879 1.1834-0.90449 3.2714z" clip-path="url(#a)" fill="#fff" stroke="#fff"/>
<g clip-path="url(#a)">
<g transform="translate(716.66 198.92) rotate(60.455) scale(.08 -.08)">
<use xlink:href="#o"/>
</g>
</g>
<path d="m805.17 311.29 3.3258 4.4541q1.4359 1.923 3.359 0.48713l6.2038-4.6324q1.923-1.4359 0.48712-3.359l-3.3258-4.4541q-1.4359-1.923-3.359-0.48712l-6.2038 4.6324q-1.923 1.4359-0.48712 3.359z" clip-path="url(#a)" fill="#fff" stroke="#fff"/>
<g clip-path="url(#a)">
<g transform="translate(808.42 308.86) rotate(53.252) scale(.08 -.08)">
<use xlink:href="#w"/>
</g>
</g>
<path d="m816.78 258.46 4.219 3.4855q1.8503 1.5286 3.3788-0.32167l4.9313-5.969q1.5286-1.8503-0.32167-3.3788l-4.219-3.4855q-1.8503-1.5286-3.3788 0.32167l-4.9313 5.969q-1.5286 1.8503 0.32167 3.3788z" clip-path="url(#a)" fill="#fff" stroke="#fff"/>
<g clip-path="url(#a)">
<g transform="translate(819.37 255.32) rotate(39.562) scale(.08 -.08)">
<use xlink:href="#o"/>
</g>
</g>
<path d="m527.62 316.11 3.8369-3.9022q1.6827-1.7113-0.028636-3.394l-5.5208-5.4284q-1.7113-1.6827-3.394 0.028636l-3.8369 3.9022q-1.6827 1.7113 0.028636 3.394l5.5208 5.4284q1.7113 1.6827 3.394-0.028636z" clip-path="url(#a)" fill="#fff" stroke="#fff"/>
<g clip-path="url(#a)">
<g transform="translate(524.72 313.27) rotate(-45.483) scale(.08 -.08)">
<use xlink:href="#o"/>
</g>
</g>
<path d="m595.44 315.01 2.4328-4.1654q1.2104-2.0724-0.86204-3.2828l-6.6857-3.9048q-2.0724-1.2104-3.2828 0.86204l-2.4328 4.1654q-1.2104 2.0724 0.86204 3.2828l6.6857 3.9048q2.0724 1.2104 3.2828-0.86204z" clip-path="url(#a)" fill="#fff" stroke="#fff"/>
<g clip-path="url(#a)">
<g transform="translate(591.94 312.96) rotate(-59.713) scale(.08 -.08)">
<use xlink:href="#u"/>
</g>
</g>
<path d="m620.52 512.3v35.285q0 2.4 2.4 2.4h7.7425q2.4 0 2.4-2.4v-35.285q0-2.4-2.4-2.4h-7.7425q-2.4 0-2.4 2.4z" clip-path="url(#a)" fill="#fff" stroke="#fff"/>
<g clip-path="url(#a)">
<g transform="translate(624.58 512.3) rotate(90) scale(.08 -.08)">
<use xlink:href="#j"/>
<use x="60.818359" xlink:href="#h"/>
<use x="122.341797" xlink:href="#g"/>
<use x="163.439453" xlink:href="#l"/>
<use x="260.851562" xlink:href="#i"/>
<use x="288.634766" xlink:href="#f"/>
<use x="352.013672" xlink:href="#d"/>
<use x="413.292969" xlink:href="#k"/>
</g>
</g>
<path d="m716.28 370.77 1.9251-5.2148q0.83116-2.2515-1.4203-3.0826l-7.2634-2.6814q-2.2515-0.83116-3.0826 1.4203l-1.9251 5.2148q-0.83116 2.2515 1.4203 3.0826l7.2634 2.6814q2.2515 0.83116 3.0826-1.4203z" clip-path="url(#a)" fill="#fff" stroke="#fff"/>
<g clip-path="url(#a)">
<g transform="translate(712.46 369.36) rotate(-69.738) scale(.08 -.08)">
<use xlink:href="#w"/>
</g>
</g>
<path d="m750.3 315.13 0.72319-5.4245q0.31716-2.379-2.0618-2.6961l-7.6746-1.0232q-2.379-0.31716-2.6961 2.0618l-0.72319 5.4245q-0.31716 2.379 2.0618 2.6961l7.6746 1.0232q2.379 0.31716 2.6961-2.0618z" clip-path="url(#a)" fill="#fff" stroke="#fff"/>
<g clip-path="url(#a)">
<g transform="translate(746.27 314.59) rotate(-82.406) scale(.08 -.08)">
<use xlink:href="#o"/>
</g>
</g>
<path d="m793.2 313.77 3.326 3.8381q1.5717 1.8137 3.3855 0.242l5.8512-5.0705q1.8137-1.5717 0.242-3.3855l-3.326-3.8381q-1.5717-1.8137-3.3855-0.242l-5.8512 5.0705q-1.8137 1.5717-0.242 3.3855z" clip-path="url(#a)" fill="#fff" stroke="#fff"/>
<g clip-path="url(#a)">
<defs>
<path id="ad" d="m53.516 70.516v-9.625q-5.6094 2.6875-10.594 4-4.9844 1.3281-9.625 1.3281-8.0469 0-12.422-3.125t-4.375-8.8906q0-4.8438 2.9062-7.3125 2.9062-2.4531 11.016-3.9688l5.9531-1.2188q11.031-2.1094 16.281-7.4062t5.25-14.172q0-10.609-7.1094-16.078-7.0938-5.4688-20.812-5.4688-5.1719 0-11.016 1.1719-5.8281 1.1719-12.078 3.4688v10.156q6-3.3594 11.766-5.0781 5.7656-1.7031 11.328-1.7031 8.4375 0 13.031 3.3125 4.5938 3.3281 4.5938 9.4844 0 5.3594-3.2969 8.3906t-10.812 4.5469l-6.0156 1.1719q-11.031 2.1875-15.969 6.875-4.9219 4.6875-4.9219 13.047 0 9.6719 6.8125 15.234t18.766 5.5625q5.1406 0 10.453-0.9375 5.3281-0.92188 10.891-2.7656z"/>
</defs>
<g transform="translate(796.27 311.11) rotate(49.089) scale(.08 -.08)">
<use xlink:href="#ad"/>
</g>
</g>
<path d="m929.37 512.3v35.285q0 2.4 2.4 2.4h7.7425q2.4 0 2.4-2.4v-35.285q0-2.4-2.4-2.4h-7.7425q-2.4 0-2.4 2.4z" clip-path="url(#a)" fill="#fff" stroke="#fff"/>
<g clip-path="url(#a)">
<g transform="translate(933.43 512.3) rotate(90) scale(.08 -.08)">
<use xlink:href="#j"/>
<use x="60.818359" xlink:href="#h"/>
<use x="122.341797" xlink:href="#g"/>
<use x="163.439453" xlink:href="#l"/>
<use x="260.851562" xlink:href="#i"/>
<use x="288.634766" xlink:href="#f"/>
<use x="352.013672" xlink:href="#d"/>
<use x="413.292969" xlink:href="#k"/>
</g>
</g>
<path d="m1005.9 475.63 2.7851 5.4944q1.0851 2.1407 3.2258 1.0556l6.9059-3.5006q2.1407-1.0851 1.0556-3.2258l-2.7851-5.4944q-1.0851-2.1407-3.2258-1.0556l-6.9059 3.5006q-2.1407 1.0851-1.0556 3.2258z" clip-path="url(#a)" fill="#fff" stroke="#fff"/>
<g clip-path="url(#a)">
<g transform="translate(1009.5 473.8) rotate(63.119) scale(.08 -.08)">
<use xlink:href="#an"/>
</g>
</g>
<path d="m962.08 419.9 1.0092 4.9775q0.47692 2.3521 2.8291 1.8752l7.5881-1.5386q2.3521-0.47692 1.8752-2.8291l-1.0092-4.9775q-0.47692-2.3521-2.8291-1.8752l-7.5881 1.5386q-2.3521 0.47692-1.8752 2.8291z" clip-path="url(#a)" fill="#fff" stroke="#fff"/>
<g clip-path="url(#a)">
<g transform="translate(966.06 419.09) rotate(78.538) scale(.08 -.08)">
<use xlink:href="#ad"/>
</g>
</g>
<path d="m859.04 427.96 4.7992-2.6299q2.1047-1.1534 0.95134-3.2581l-3.7208-6.7899q-1.1534-2.1047-3.2581-0.95134l-4.7992 2.6299q-2.1047 1.1534-0.95134 3.2581l3.7208 6.7899q1.1534 2.1047 3.2581 0.95134z" clip-path="url(#a)" fill="#fff" stroke="#fff"/>
<g clip-path="url(#a)">
<g transform="translate(857.09 424.4) rotate(-28.722) scale(.08 -.08)">
<use xlink:href="#o"/>
</g>
</g>
<path d="m983.91 421.9 3.0428 5.0022q1.2473 2.0505 3.2977 0.8032l6.6148-4.0237q2.0505-1.2473 0.8032-3.2977l-3.0428-5.0023q-1.2473-2.0505-3.2977-0.8032l-6.6148 4.0237q-2.0505 1.2473-0.8032 3.2977z" clip-path="url(#a)" fill="#fff" stroke="#fff"/>
<g clip-path="url(#a)">
<g transform="translate(987.39 419.79) rotate(58.689) scale(.08 -.08)">
<use xlink:href="#ac"/>
</g>
</g>
<path d="m973.49 512.3v35.285q0 2.4 2.4 2.4h7.7425q2.4 0 2.4-2.4v-35.285q0-2.4-2.4-2.4h-7.7425q-2.4 0-2.4 2.4z" clip-path="url(#a)" fill="#fff" stroke="#fff"/>
<g clip-path="url(#a)">
<g transform="translate(977.55 512.3) rotate(90) scale(.08 -.08)">
<use xlink:href="#j"/>
<use x="60.818359" xlink:href="#h"/>
<use x="122.341797" xlink:href="#g"/>
<use x="163.439453" xlink:href="#l"/>
<use x="260.851562" xlink:href="#i"/>
<use x="288.634766" xlink:href="#f"/>
<use x="352.013672" xlink:href="#d"/>
<use x="413.292969" xlink:href="#k"/>
</g>
</g>
<path d="m664.64 512.3v35.285q0 2.4 2.4 2.4h7.7425q2.4 0 2.4-2.4v-35.285q0-2.4-2.4-2.4h-7.7425q-2.4 0-2.4 2.4z" clip-path="url(#a)" fill="#fff" stroke="#fff"/>
<g clip-path="url(#a)">
<g transform="translate(668.7 512.3) rotate(90) scale(.08 -.08)">
<use xlink:href="#j"/>
<use x="60.818359" xlink:href="#h"/>
<use x="122.341797" xlink:href="#g"/>
<use x="163.439453" xlink:href="#l"/>
<use x="260.851562" xlink:href="#i"/>
<use x="288.634766" xlink:href="#f"/>
<use x="352.013672" xlink:href="#d"/>
<use x="413.292969" xlink:href="#k"/>
</g>
</g>
<path d="m731.71 424.87 1.0045-4.9542q0.47692-2.3521-1.8752-2.8291l-7.5881-1.5386q-2.3521-0.47692-2.8291 1.8752l-1.0045 4.9542q-0.47692 2.3521 1.8752 2.8291l7.5881 1.5386q2.3521 0.47692 2.8291-1.8752z" clip-path="url(#a)" fill="#fff" stroke="#fff"/>
<g clip-path="url(#a)">
<defs>
<path id="am" d="m9.8125 72.906h46.094v-8.3125h-36.234v-21.578h34.719v-8.2969h-34.719v-26.422h37.109v-8.2969h-46.969z"/>
</defs>
<g transform="translate(727.72 424.06) rotate(-78.538) scale(.08 -.08)">
<use xlink:href="#am"/>
</g>
</g>
<path d="m741.42 419.65 1.1101 5.4748q0.47692 2.3521 2.8291 1.8752l7.5881-1.5386q2.3521-0.47692 1.8752-2.8291l-1.1101-5.4748q-0.47692-2.3521-2.8291-1.8752l-7.5881 1.5386q-2.3521 0.47692-1.8752 2.8291z" clip-path="url(#a)" fill="#fff" stroke="#fff"/>
<g clip-path="url(#a)">
<defs>
<path id="t" d="m64.406 67.281v-10.391q-4.9844 4.6406-10.625 6.9219-5.6406 2.2969-11.984 2.2969-12.5 0-19.141-7.6406t-6.6406-22.094q0-14.406 6.6406-22.047t19.141-7.6406q6.3438 0 11.984 2.2969t10.625 6.9375v-10.312q-5.1719-3.5156-10.969-5.2812-5.7812-1.75-12.219-1.75-16.562 0-26.094 10.125-9.5156 10.141-9.5156 27.672 0 17.578 9.5156 27.703 9.5312 10.141 26.094 10.141 6.5312 0 12.312-1.7344 5.7969-1.7344 10.875-5.2031z"/>
</defs>
<g transform="translate(745.4 418.85) rotate(78.538) scale(.08 -.08)">
<use xlink:href="#t"/>
</g>
</g>
<path d="m830.1 426.09 2.0993-5.1768q0.90191-2.2241-1.3222-3.126l-7.175-2.9096q-2.2241-0.90191-3.126 1.3222l-2.0993 5.1768q-0.90191 2.2241 1.3222 3.126l7.175 2.9096q2.2241 0.90191 3.126-1.3222z" clip-path="url(#a)" fill="#fff" stroke="#fff"/>
<g clip-path="url(#a)">
<g transform="translate(826.33 424.56) rotate(-67.926) scale(.08 -.08)">
<use xlink:href="#t"/>
</g>
</g>
<path d="m841.13 418.15v5.985q0 2.4 2.4 2.4h7.7425q2.4 0 2.4-2.4v-5.985q0-2.4-2.4-2.4h-7.7425q-2.4 0-2.4 2.4z" clip-path="url(#a)" fill="#fff" stroke="#fff"/>
<g clip-path="url(#a)">
<defs>
<path id="as" d="m9.8125 72.906h13.281l32.328-60.984v60.984h9.5625v-72.906h-13.281l-32.312 60.984v-60.984h-9.5781z"/>
</defs>
<g transform="translate(845.19 418.15) rotate(90) scale(.08 -.08)">
<use xlink:href="#as"/>
</g>
</g>
<path d="m862.6 420.91 2.0993 5.1768q0.90191 2.2241 3.126 1.3222l7.175-2.9096q2.2241-0.90191 1.3222-3.126l-2.0993-5.1768q-0.90191-2.2241-3.126-1.3222l-7.175 2.9096q-2.2241 0.90191-1.3222 3.126z" clip-path="url(#a)" fill="#fff" stroke="#fff"/>
<g clip-path="url(#a)">
<g transform="translate(866.36 419.39) rotate(67.926) scale(.08 -.08)">
<use xlink:href="#t"/>
</g>
</g>
<path d="m797 512.3v35.285q0 2.4 2.4 2.4h7.7425q2.4 0 2.4-2.4v-35.285q0-2.4-2.4-2.4h-7.7425q-2.4 0-2.4 2.4z" clip-path="url(#a)" fill="#fff" stroke="#fff"/>
<g clip-path="url(#a)">
<g transform="translate(801.07 512.3) rotate(90) scale(.08 -.08)">
<use xlink:href="#j"/>
<use x="60.818359" xlink:href="#h"/>
<use x="122.341797" xlink:href="#g"/>
<use x="163.439453" xlink:href="#l"/>
<use x="260.851562" xlink:href="#i"/>
<use x="288.634766" xlink:href="#f"/>
<use x="352.013672" xlink:href="#d"/>
<use x="413.292969" xlink:href="#k"/>
</g>
</g>
<path d="m841.13 512.3v35.285q0 2.4 2.4 2.4h7.7425q2.4 0 2.4-2.4v-35.285q0-2.4-2.4-2.4h-7.7425q-2.4 0-2.4 2.4z" clip-path="url(#a)" fill="#fff" stroke="#fff"/>
<g clip-path="url(#a)">
<g transform="translate(845.19 512.3) rotate(90) scale(.08 -.08)">
<use xlink:href="#j"/>
<use x="60.818359" xlink:href="#h"/>
<use x="122.341797" xlink:href="#g"/>
<use x="163.439453" xlink:href="#l"/>
<use x="260.851562" xlink:href="#i"/>
<use x="288.634766" xlink:href="#f"/>
<use x="352.013672" xlink:href="#d"/>
<use x="413.292969" xlink:href="#k"/>
</g>
</g>
<path d="m885.25 512.3v35.285q0 2.4 2.4 2.4h7.7425q2.4 0 2.4-2.4v-35.285q0-2.4-2.4-2.4h-7.7425q-2.4 0-2.4 2.4z" clip-path="url(#a)" fill="#fff" stroke="#fff"/>
<g clip-path="url(#a)">
<g transform="translate(889.31 512.3) rotate(90) scale(.08 -.08)">
<use xlink:href="#j"/>
<use x="60.818359" xlink:href="#h"/>
<use x="122.341797" xlink:href="#g"/>
<use x="163.439453" xlink:href="#l"/>
<use x="260.851562" xlink:href="#i"/>
<use x="288.634766" xlink:href="#f"/>
<use x="352.013672" xlink:href="#d"/>
<use x="413.292969" xlink:href="#k"/>
</g>
</g>
<path d="m708.76 512.3v35.285q0 2.4 2.4 2.4h7.7425q2.4 0 2.4-2.4v-35.285q0-2.4-2.4-2.4h-7.7425q-2.4 0-2.4 2.4z" clip-path="url(#a)" fill="#fff" stroke="#fff"/>
<g clip-path="url(#a)">
<g transform="translate(712.82 512.3) rotate(90) scale(.08 -.08)">
<use xlink:href="#j"/>
<use x="60.818359" xlink:href="#h"/>
<use x="122.341797" xlink:href="#g"/>
<use x="163.439453" xlink:href="#l"/>
<use x="260.851562" xlink:href="#i"/>
<use x="288.634766" xlink:href="#f"/>
<use x="352.013672" xlink:href="#d"/>
<use x="413.292969" xlink:href="#k"/>
</g>
</g>
<path d="m752.88 512.3v35.285q0 2.4 2.4 2.4h7.7425q2.4 0 2.4-2.4v-35.285q0-2.4-2.4-2.4h-7.7425q-2.4 0-2.4 2.4z" clip-path="url(#a)" fill="#fff" stroke="#fff"/>
<g clip-path="url(#a)">
<g transform="translate(756.95 512.3) rotate(90) scale(.08 -.08)">
<use xlink:href="#j"/>
<use x="60.818359" xlink:href="#h"/>
<use x="122.341797" xlink:href="#g"/>
<use x="163.439453" xlink:href="#l"/>
<use x="260.851562" xlink:href="#i"/>
<use x="288.634766" xlink:href="#f"/>
<use x="352.013672" xlink:href="#d"/>
<use x="413.292969" xlink:href="#k"/>
</g>
</g>
<path d="m355.79 512.3v35.285q0 2.4 2.4 2.4h7.7425q2.4 0 2.4-2.4v-35.285q0-2.4-2.4-2.4h-7.7425q-2.4 0-2.4 2.4z" clip-path="url(#a)" fill="#fff" stroke="#fff"/>
<g clip-path="url(#a)">
<g transform="translate(359.85 512.3) rotate(90) scale(.08 -.08)">
<use xlink:href="#j"/>
<use x="60.818359" xlink:href="#h"/>
<use x="122.341797" xlink:href="#g"/>
<use x="163.439453" xlink:href="#l"/>
<use x="260.851562" xlink:href="#i"/>
<use x="288.634766" xlink:href="#f"/>
<use x="352.013672" xlink:href="#d"/>
<use x="413.292969" xlink:href="#k"/>
</g>
</g>
<path d="m399.91 512.3v35.285q0 2.4 2.4 2.4h7.7425q2.4 0 2.4-2.4v-35.285q0-2.4-2.4-2.4h-7.7425q-2.4 0-2.4 2.4z" clip-path="url(#a)" fill="#fff" stroke="#fff"/>
<g clip-path="url(#a)">
<g transform="translate(403.97 512.3) rotate(90) scale(.08 -.08)">
<use xlink:href="#j"/>
<use x="60.818359" xlink:href="#h"/>
<use x="122.341797" xlink:href="#g"/>
<use x="163.439453" xlink:href="#l"/>
<use x="260.851562" xlink:href="#i"/>
<use x="288.634766" xlink:href="#f"/>
<use x="352.013672" xlink:href="#d"/>
<use x="413.292969" xlink:href="#k"/>
</g>
</g>
<path d="m444.03 512.3v35.285q0 2.4 2.4 2.4h7.7425q2.4 0 2.4-2.4v-35.285q0-2.4-2.4-2.4h-7.7425q-2.4 0-2.4 2.4z" clip-path="url(#a)" fill="#fff" stroke="#fff"/>
<g clip-path="url(#a)">
<g transform="translate(448.09 512.3) rotate(90) scale(.08 -.08)">
<use xlink:href="#j"/>
<use x="60.818359" xlink:href="#h"/>
<use x="122.341797" xlink:href="#g"/>
<use x="163.439453" xlink:href="#l"/>
<use x="260.851562" xlink:href="#i"/>
<use x="288.634766" xlink:href="#f"/>
<use x="352.013672" xlink:href="#d"/>
<use x="413.292969" xlink:href="#k"/>
</g>
</g>
<path d="m488.15 512.3v35.285q0 2.4 2.4 2.4h7.7425q2.4 0 2.4-2.4v-35.285q0-2.4-2.4-2.4h-7.7425q-2.4 0-2.4 2.4z" clip-path="url(#a)" fill="#fff" stroke="#fff"/>
<g clip-path="url(#a)">
<g transform="translate(492.22 512.3) rotate(90) scale(.08 -.08)">
<use xlink:href="#j"/>
<use x="60.818359" xlink:href="#h"/>
<use x="122.341797" xlink:href="#g"/>
<use x="163.439453" xlink:href="#l"/>
<use x="260.851562" xlink:href="#i"/>
<use x="288.634766" xlink:href="#f"/>
<use x="352.013672" xlink:href="#d"/>
<use x="413.292969" xlink:href="#k"/>
</g>
</g>
<path d="m69.88 424.87 1.0045-4.9542q0.47692-2.3521-1.8752-2.8291l-7.5881-1.5386q-2.3521-0.47692-2.8291 1.8752l-1.0045 4.9542q-0.47692 2.3521 1.8752 2.8291l7.5881 1.5386q2.3521 0.47692 2.8291-1.8752z" clip-path="url(#a)" fill="#fff" stroke="#fff"/>
<g clip-path="url(#a)">
<g transform="translate(65.897 424.06) rotate(-78.538) scale(.08 -.08)">
<use xlink:href="#am"/>
</g>
</g>
<path d="m79.596 419.65 1.1101 5.4748q0.47692 2.3521 2.8291 1.8752l7.5881-1.5386q2.3521-0.47692 1.8752-2.8291l-1.1101-5.4748q-0.47692-2.3521-2.8291-1.8752l-7.5881 1.5386q-2.3521 0.47692-1.8752 2.8291z" clip-path="url(#a)" fill="#fff" stroke="#fff"/>
<g clip-path="url(#a)">
<g transform="translate(83.579 418.85) rotate(78.538) scale(.08 -.08)">
<use xlink:href="#t"/>
</g>
</g>
<path d="m162.69 548.65 13.26-32.699q0.90191-2.2241-1.3222-3.126l-7.175-2.9096q-2.2241-0.90191-3.126 1.3222l-13.26 32.699q-0.90191 2.2241 1.3222 3.126l7.175 2.9096q2.2241 0.90191 3.126-1.3222z" clip-path="url(#a)" fill="#fff" stroke="#fff"/>
<g clip-path="url(#a)">
<g transform="translate(158.93 547.13) rotate(-67.926) scale(.08 -.08)">
<use xlink:href="#j"/>
<use x="60.818359" xlink:href="#h"/>
<use x="122.341797" xlink:href="#g"/>
<use x="163.439453" xlink:href="#l"/>
<use x="260.851562" xlink:href="#i"/>
<use x="288.634766" xlink:href="#f"/>
<use x="352.013672" xlink:href="#d"/>
<use x="413.292969" xlink:href="#k"/>
</g>
</g>
<path d="m195.19 515.95 13.26 32.699q0.90191 2.2241 3.126 1.3222l7.175-2.9096q2.2241-0.90191 1.3222-3.126l-13.26-32.699q-0.90191-2.2241-3.126-1.3222l-7.175 2.9096q-2.2241 0.90191-1.3222 3.126z" clip-path="url(#a)" fill="#fff" stroke="#fff"/>
<g clip-path="url(#a)">
<g transform="translate(198.96 514.43) rotate(67.926) scale(.08 -.08)">
<use xlink:href="#j"/>
<use x="60.818359" xlink:href="#h"/>
<use x="122.341797" xlink:href="#g"/>
<use x="163.439453" xlink:href="#l"/>
<use x="260.851562" xlink:href="#i"/>
<use x="288.634766" xlink:href="#f"/>
<use x="352.013672" xlink:href="#d"/>
<use x="413.292969" xlink:href="#k"/>
</g>
</g>
<path d="m179.3 512.3v35.285q0 2.4 2.4 2.4h7.7425q2.4 0 2.4-2.4v-35.285q0-2.4-2.4-2.4h-7.7425q-2.4 0-2.4 2.4z" clip-path="url(#a)" fill="#fff" stroke="#fff"/>
<g clip-path="url(#a)">
<g transform="translate(183.36 512.3) rotate(90) scale(.08 -.08)">
<use xlink:href="#j"/>
<use x="60.818359" xlink:href="#h"/>
<use x="122.341797" xlink:href="#g"/>
<use x="163.439453" xlink:href="#l"/>
<use x="260.851562" xlink:href="#i"/>
<use x="288.634766" xlink:href="#f"/>
<use x="352.013672" xlink:href="#d"/>
<use x="413.292969" xlink:href="#k"/>
</g>
</g>
<path d="m267.54 512.3v35.285q0 2.4 2.4 2.4h7.7425q2.4 0 2.4-2.4v-35.285q0-2.4-2.4-2.4h-7.7425q-2.4 0-2.4 2.4z" clip-path="url(#a)" fill="#fff" stroke="#fff"/>
<g clip-path="url(#a)">
<g transform="translate(271.61 512.3) rotate(90) scale(.08 -.08)">
<use xlink:href="#j"/>
<use x="60.818359" xlink:href="#h"/>
<use x="122.341797" xlink:href="#g"/>
<use x="163.439453" xlink:href="#l"/>
<use x="260.851562" xlink:href="#i"/>
<use x="288.634766" xlink:href="#f"/>
<use x="352.013672" xlink:href="#d"/>
<use x="413.292969" xlink:href="#k"/>
</g>
</g>
<path d="m46.935 512.3v35.285q0 2.4 2.4 2.4h7.7425q2.4 0 2.4-2.4v-35.285q0-2.4-2.4-2.4h-7.7425q-2.4 0-2.4 2.4z" clip-path="url(#a)" fill="#fff" stroke="#fff"/>
<g clip-path="url(#a)">
<g transform="translate(50.998 512.3) rotate(90) scale(.08 -.08)">
<use xlink:href="#j"/>
<use x="60.818359" xlink:href="#h"/>
<use x="122.341797" xlink:href="#g"/>
<use x="163.439453" xlink:href="#l"/>
<use x="260.851562" xlink:href="#i"/>
<use x="288.634766" xlink:href="#f"/>
<use x="352.013672" xlink:href="#d"/>
<use x="413.292969" xlink:href="#k"/>
</g>
</g>
<path d="m91.056 512.3v35.285q0 2.4 2.4 2.4h7.7425q2.4 0 2.4-2.4v-35.285q0-2.4-2.4-2.4h-7.7425q-2.4 0-2.4 2.4z" clip-path="url(#a)" fill="#fff" stroke="#fff"/>
<g clip-path="url(#a)">
<g transform="translate(95.12 512.3) rotate(90) scale(.08 -.08)">
<use xlink:href="#j"/>
<use x="60.818359" xlink:href="#h"/>
<use x="122.341797" xlink:href="#g"/>
<use x="163.439453" xlink:href="#l"/>
<use x="260.851562" xlink:href="#i"/>
<use x="288.634766" xlink:href="#f"/>
<use x="352.013672" xlink:href="#d"/>
<use x="413.292969" xlink:href="#k"/>
</g>
</g>
<path d="m594 203.65 1.3661-9.8381q0.33009-2.3772-2.0471-2.7073l-7.6689-1.0649q-2.3772-0.33009-2.7073 2.0471l-1.3661 9.8381q-0.33009 2.3772 2.0471 2.7073l7.6689 1.0649q2.3772 0.33009 2.7073-2.0471z" clip-path="url(#a)" fill="#fff" stroke="#fff"/>
<g clip-path="url(#a)">
<g transform="translate(589.97 203.09) rotate(-82.095) scale(.08 -.08)">
<use xlink:href="#q"/>
<use x="55.744141" xlink:href="#o"/>
</g>
</g>
<path d="m603.22 257.67 0.65469-9.9948q0.15687-2.3949-2.238-2.5517l-7.7259-0.50607q-2.3949-0.15687-2.5517 2.238l-0.65469 9.9948q-0.15687 2.3949 2.238 2.5517l7.7259 0.50607q2.3949 0.15687 2.5517-2.238z" clip-path="url(#a)" fill="#fff" stroke="#fff"/>
<g clip-path="url(#a)">
<g transform="translate(599.17 257.41) rotate(-86.252) scale(.08 -.08)">
<use xlink:href="#q"/>
<use x="55.712891" xlink:href="#w"/>
</g>
</g>
<path d="m642.02 85.808 5.4837 8.2815q1.325 2.0011 3.3261 0.67602l6.4555-4.2746q2.0011-1.325 0.67602-3.3261l-5.4837-8.2815q-1.325-2.0011-3.3261-0.67602l-6.4555 4.2746q-2.0011 1.325-0.67602 3.3261z" clip-path="url(#a)" fill="#fff" stroke="#fff"/>
<g clip-path="url(#a)">
<g transform="translate(645.41 83.564) rotate(56.489) scale(.08 -.08)">
<use xlink:href="#q"/>
<use x="55.744141" xlink:href="#o"/>
</g>
</g>
<path d="m311.66 512.3v35.285q0 2.4 2.4 2.4h7.7425q2.4 0 2.4-2.4v-35.285q0-2.4-2.4-2.4h-7.7425q-2.4 0-2.4 2.4z" clip-path="url(#a)" fill="#fff" stroke="#fff"/>
<g clip-path="url(#a)">
<g transform="translate(315.73 512.3) rotate(90) scale(.08 -.08)">
<use xlink:href="#j"/>
<use x="60.818359" xlink:href="#h"/>
<use x="122.341797" xlink:href="#g"/>
<use x="163.439453" xlink:href="#l"/>
<use x="260.851562" xlink:href="#i"/>
<use x="288.634766" xlink:href="#f"/>
<use x="352.013672" xlink:href="#d"/>
<use x="413.292969" xlink:href="#k"/>
</g>
</g>
<path d="m532.27 512.3v35.285q0 2.4 2.4 2.4h7.7425q2.4 0 2.4-2.4v-35.285q0-2.4-2.4-2.4h-7.7425q-2.4 0-2.4 2.4z" clip-path="url(#a)" fill="#fff" stroke="#fff"/>
<g clip-path="url(#a)">
<g transform="translate(536.34 512.3) rotate(90) scale(.08 -.08)">
<use xlink:href="#j"/>
<use x="60.818359" xlink:href="#h"/>
<use x="122.341797" xlink:href="#g"/>
<use x="163.439453" xlink:href="#l"/>
<use x="260.851562" xlink:href="#i"/>
<use x="288.634766" xlink:href="#f"/>
<use x="352.013672" xlink:href="#d"/>
<use x="413.292969" xlink:href="#k"/>
</g>
</g>
<path d="m1017.6 512.3v35.285q0 2.4 2.4 2.4h7.7425q2.4 0 2.4-2.4v-35.285q0-2.4-2.4-2.4h-7.7425q-2.4 0-2.4 2.4z" clip-path="url(#a)" fill="#fff" stroke="#fff"/>
<g clip-path="url(#a)">
<g transform="translate(1021.7 512.3) rotate(90) scale(.08 -.08)">
<use xlink:href="#j"/>
<use x="60.818359" xlink:href="#h"/>
<use x="122.341797" xlink:href="#g"/>
<use x="163.439453" xlink:href="#l"/>
<use x="260.851562" xlink:href="#i"/>
<use x="288.634766" xlink:href="#f"/>
<use x="352.013672" xlink:href="#d"/>
<use x="413.292969" xlink:href="#k"/>
</g>
</g>
<defs>
<path id="b" d="m0 8.6603c2.2967 0 4.4997-0.9125 6.1237-2.5365 1.624-1.624 2.5365-3.827 2.5365-6.1237s-0.9125-4.4997-2.5365-6.1237c-1.624-1.624-3.827-2.5365-6.1237-2.5365s-4.4997 0.9125-6.1237 2.5365c-1.624 1.624-2.5365 3.827-2.5365 6.1237s0.9125 4.4997 2.5365 6.1237c1.624 1.624 3.827 2.5365 6.1237 2.5365z"/>
</defs>
<g clip-path="url(#a)">
<use x="53.20578" y="584.348418" fill="#ffffff" stroke="#ffffff" xlink:href="#b"/>
</g>
<g clip-path="url(#a)">
<use x="97.327521" y="584.348418" fill="#ffffff" stroke="#ffffff" xlink:href="#b"/>
</g>
<g clip-path="url(#a)">
<use x="141.449261" y="584.348418" fill="#ffffff" stroke="#ffffff" xlink:href="#b"/>
</g>
<g clip-path="url(#a)">
<use x="185.571002" y="584.348418" fill="#ffffff" stroke="#ffffff" xlink:href="#b"/>
</g>
<g clip-path="url(#a)">
<use x="229.692743" y="584.348418" fill="#ffffff" stroke="#ffffff" xlink:href="#b"/>
</g>
<g clip-path="url(#a)">
<use x="273.814483" y="584.348418" fill="#ffffff" stroke="#ffffff" xlink:href="#b"/>
</g>
<g clip-path="url(#a)">
<use x="317.936224" y="584.348418" fill="#ffffff" stroke="#ffffff" xlink:href="#b"/>
</g>
<g clip-path="url(#a)">
<use x="362.057964" y="584.348418" fill="#ffffff" stroke="#ffffff" xlink:href="#b"/>
</g>
<g clip-path="url(#a)">
<use x="406.179705" y="584.348418" fill="#ffffff" stroke="#ffffff" xlink:href="#b"/>
</g>
<g clip-path="url(#a)">
<use x="450.301445" y="584.348418" fill="#ffffff" stroke="#ffffff" xlink:href="#b"/>
</g>
<g clip-path="url(#a)">
<use x="494.423186" y="584.348418" fill="#ffffff" stroke="#ffffff" xlink:href="#b"/>
</g>
<g clip-path="url(#a)">
<use x="538.544926" y="584.348418" fill="#ffffff" stroke="#ffffff" xlink:href="#b"/>
</g>
<g clip-path="url(#a)">
<use x="582.666667" y="584.348418" fill="#ffffff" stroke="#ffffff" xlink:href="#b"/>
</g>
<g clip-path="url(#a)">
<use x="626.788407" y="584.348418" fill="#ffffff" stroke="#ffffff" xlink:href="#b"/>
</g>
<g clip-path="url(#a)">
<use x="670.910148" y="584.348418" fill="#ffffff" stroke="#ffffff" xlink:href="#b"/>
</g>
<g clip-path="url(#a)">
<use x="715.031888" y="584.348418" fill="#ffffff" stroke="#ffffff" xlink:href="#b"/>
</g>
<g clip-path="url(#a)">
<use x="759.153629" y="584.348418" fill="#ffffff" stroke="#ffffff" xlink:href="#b"/>
</g>
<g clip-path="url(#a)">
<use x="803.275369" y="584.348418" fill="#ffffff" stroke="#ffffff" xlink:href="#b"/>
</g>
<g clip-path="url(#a)">
<use x="847.39711" y="584.348418" fill="#ffffff" stroke="#ffffff" xlink:href="#b"/>
</g>
<g clip-path="url(#a)">
<use x="891.51885" y="584.348418" fill="#ffffff" stroke="#ffffff" xlink:href="#b"/>
</g>
<g clip-path="url(#a)">
<use x="935.640591" y="584.348418" fill="#ffffff" stroke="#ffffff" xlink:href="#b"/>
</g>
<g clip-path="url(#a)">
<use x="979.762331" y="584.348418" fill="#ffffff" stroke="#ffffff" xlink:href="#b"/>
</g>
<g clip-path="url(#a)">
<use x="1023.884072" y="584.348418" fill="#ffffff" stroke="#ffffff" xlink:href="#b"/>
</g>
<g clip-path="url(#a)">
<use x="478.715029" y="28.984916" fill="#ffffff" stroke="#ffffff" xlink:href="#b"/>
</g>
<g clip-path="url(#a)">
<use x="180.055784" y="256.427415" fill="#ffffff" stroke="#ffffff" xlink:href="#b"/>
</g>
<g clip-path="url(#a)">
<use x="565.01797" y="366.743457" fill="#ffffff" stroke="#ffffff" xlink:href="#b"/>
</g>
<g clip-path="url(#a)">
<use x="582.666667" y="475.545937" fill="#ffffff" stroke="#ffffff" xlink:href="#b"/>
</g>
<g clip-path="url(#a)">
<use x="688.068602" y="143.987154" fill="#ffffff" stroke="#ffffff" xlink:href="#b"/>
</g>
<g clip-path="url(#a)">
<use x="626.788407" y="475.545937" fill="#ffffff" stroke="#ffffff" xlink:href="#b"/>
</g>
<g clip-path="url(#a)">
<use x="751.800005" y="256.427415" fill="#ffffff" stroke="#ffffff" xlink:href="#b"/>
</g>
<g clip-path="url(#a)">
<use x="935.640591" y="475.545937" fill="#ffffff" stroke="#ffffff" xlink:href="#b"/>
</g>
<g clip-path="url(#a)">
<use x="957.701461" y="366.743457" fill="#ffffff" stroke="#ffffff" xlink:href="#b"/>
</g>
<g clip-path="url(#a)">
<use x="1068.005812" y="584.348418" fill="#ffffff" stroke="#ffffff" xlink:href="#b"/>
</g>
<g clip-path="url(#a)">
<use x="979.762331" y="475.545937" fill="#ffffff" stroke="#ffffff" xlink:href="#b"/>
</g>
<g clip-path="url(#a)">
<use x="670.910148" y="475.545937" fill="#ffffff" stroke="#ffffff" xlink:href="#b"/>
</g>
<g clip-path="url(#a)">
<use x="737.092758" y="366.743457" fill="#ffffff" stroke="#ffffff" xlink:href="#b"/>
</g>
<g clip-path="url(#a)">
<use x="847.39711" y="366.743457" fill="#ffffff" stroke="#ffffff" xlink:href="#b"/>
</g>
<g clip-path="url(#a)">
<use x="803.275369" y="475.545937" fill="#ffffff" stroke="#ffffff" xlink:href="#b"/>
</g>
<g clip-path="url(#a)">
<use x="847.39711" y="475.545937" fill="#ffffff" stroke="#ffffff" xlink:href="#b"/>
</g>
<g clip-path="url(#a)">
<use x="891.51885" y="475.545937" fill="#ffffff" stroke="#ffffff" xlink:href="#b"/>
</g>
<g clip-path="url(#a)">
<use x="715.031888" y="475.545937" fill="#ffffff" stroke="#ffffff" xlink:href="#b"/>
</g>
<g clip-path="url(#a)">
<use x="759.153629" y="475.545937" fill="#ffffff" stroke="#ffffff" xlink:href="#b"/>
</g>
<g clip-path="url(#a)">
<use x="1112.127553" y="584.348418" fill="#ffffff" stroke="#ffffff" xlink:href="#b"/>
</g>
<g clip-path="url(#a)">
<use x="362.057964" y="475.545937" fill="#ffffff" stroke="#ffffff" xlink:href="#b"/>
</g>
<g clip-path="url(#a)">
<use x="406.179705" y="475.545937" fill="#ffffff" stroke="#ffffff" xlink:href="#b"/>
</g>
<g clip-path="url(#a)">
<use x="450.301445" y="475.545937" fill="#ffffff" stroke="#ffffff" xlink:href="#b"/>
</g>
<g clip-path="url(#a)">
<use x="494.423186" y="475.545937" fill="#ffffff" stroke="#ffffff" xlink:href="#b"/>
</g>
<g clip-path="url(#a)">
<use x="75.266651" y="366.743457" fill="#ffffff" stroke="#ffffff" xlink:href="#b"/>
</g>
<g clip-path="url(#a)">
<use x="185.571002" y="475.545937" fill="#ffffff" stroke="#ffffff" xlink:href="#b"/>
</g>
<g clip-path="url(#a)">
<use x="185.571002" y="475.545937" fill="#ffffff" stroke="#ffffff" xlink:href="#b"/>
</g>
<g clip-path="url(#a)">
<use x="273.814483" y="475.545937" fill="#ffffff" stroke="#ffffff" xlink:href="#b"/>
</g>
<g clip-path="url(#a)">
<use x="53.20578" y="475.545937" fill="#ffffff" stroke="#ffffff" xlink:href="#b"/>
</g>
<g clip-path="url(#a)">
<use x="97.327521" y="475.545937" fill="#ffffff" stroke="#ffffff" xlink:href="#b"/>
</g>
<g clip-path="url(#a)">
<use x="611.917746" y="28.984916" fill="#808080" stroke="#808080" xlink:href="#b"/>
</g>
<g clip-path="url(#a)">
<use x="317.936224" y="475.545937" fill="#ffffff" stroke="#ffffff" xlink:href="#b"/>
</g>
<g clip-path="url(#a)">
<use x="538.544926" y="475.545937" fill="#ffffff" stroke="#ffffff" xlink:href="#b"/>
</g>
<g clip-path="url(#a)">
<use x="1023.884072" y="475.545937" fill="#ffffff" stroke="#ffffff" xlink:href="#b"/>
</g>
<g clip-path="url(#a)">
<g transform="translate(47.344 587.11) scale(.1 -.1)">
<use xlink:href="#q"/>
<use x="55.697266" xlink:href="#h"/>
</g>
</g>
<g clip-path="url(#a)">
<defs>
<path id="ab" d="m48.781 52.594v-8.4062q-3.8125 2.1094-7.6406 3.1562t-7.7344 1.0469q-8.75 0-13.594-5.5469-4.8281-5.5312-4.8281-15.547t4.8281-15.562q4.8438-5.5312 13.594-5.5312 3.9062 0 7.7344 1.0469t7.6406 3.1562v-8.3125q-3.7656-1.75-7.7969-2.625-4.0156-0.89062-8.5625-0.89062-12.359 0-19.641 7.7656-7.2656 7.7656-7.2656 20.953 0 13.375 7.3438 21.031 7.3594 7.6719 20.156 7.6719 4.1406 0 8.0938-0.85938 3.9531-0.84375 7.6719-2.5469z"/>
<path id="v" d="m30.609 48.391q-7.2188 0-11.422-5.6406t-4.2031-15.453 4.1719-15.453q4.1875-5.6406 11.453-5.6406 7.1875 0 11.375 5.6562 4.2031 5.6719 4.2031 15.438 0 9.7188-4.2031 15.406-4.1875 5.6875-11.375 5.6875zm0 7.6094q11.719 0 18.406-7.625 6.7031-7.6094 6.7031-21.078 0-13.422-6.7031-21.078-6.6875-7.6406-18.406-7.6406-11.766 0-18.438 7.6406-6.6562 7.6562-6.6562 21.078 0 13.469 6.6562 21.078 6.6719 7.625 18.438 7.625z"/>
<path id="m" d="m18.312 70.219v-15.531h18.5v-6.9844h-18.5v-29.688q0-6.6875 1.8281-8.5938t7.4531-1.9062h9.2188v-7.5156h-9.2188q-10.406 0-14.359 3.875-3.9531 3.8906-3.9531 14.141v29.688h-6.5938v6.9844h6.5938v15.531z"/>
</defs>
<g transform="translate(81.931 587.11) scale(.1 -.1)">
<use xlink:href="#ad"/>
<use x="63.476562" xlink:href="#ab"/>
<use x="118.457031" xlink:href="#v"/>
<use x="179.638672" xlink:href="#m"/>
<use x="218.847656" xlink:href="#i"/>
<use x="246.630859" xlink:href="#d"/>
</g>
</g>
<g clip-path="url(#a)">
<defs>
<path id="at" d="m17.922 72.906v-27.109h-8.2969v27.109z"/>
</defs>
<g transform="translate(136.91 587.11) scale(.1 -.1)">
<use xlink:href="#f"/>
<use x="63.378906" xlink:href="#at"/>
</g>
</g>
<g clip-path="url(#a)">
<defs>
<path id="aq" d="m2.9844 54.688h9.5156l17.094-45.891 17.094 45.891h9.5156l-20.516-54.688h-12.203z"/>
</defs>
<g transform="translate(173.13 587.11) scale(.1 -.1)">
<use xlink:href="#d"/>
<use x="61.279297" xlink:href="#aq"/>
<use x="120.458984" xlink:href="#d"/>
<use x="181.738281" xlink:href="#i"/>
<use x="209.521484" xlink:href="#m"/>
</g>
</g>
<g clip-path="url(#a)">
<defs>
<path id="aa" d="m18.109 8.2031v-29h-9.0312v75.484h9.0312v-8.2969q2.8438 4.875 7.1562 7.2344 4.3281 2.375 10.328 2.375 9.9688 0 16.188-7.9062 6.2344-7.9062 6.2344-20.797t-6.2344-20.812q-6.2188-7.9062-16.188-7.9062-6 0-10.328 2.375-4.3125 2.375-7.1562 7.25zm30.578 19.094q0 9.9062-4.0781 15.547t-11.203 5.6406q-7.1406 0-11.219-5.6406t-4.0781-15.547 4.0781-15.547 11.219-5.6406q7.125 0 11.203 5.6406t4.0781 15.547z"/>
<path id="ar" d="m44.281 53.078v-8.5q-3.7969 1.9531-7.9062 2.9219-4.0938 0.98438-8.5 0.98438-6.6875 0-10.031-2.0469t-3.3438-6.1562q0-3.125 2.3906-4.9062t9.625-3.3906l3.0781-0.6875q9.5625-2.0469 13.594-5.7812t4.0312-10.422q0-7.625-6.0312-12.078-6.0312-4.4375-16.578-4.4375-4.3906 0-9.1562 0.85938t-10.031 2.5625v9.2812q4.9844-2.5938 9.8125-3.8906 4.8281-1.2812 9.5781-1.2812 6.3438 0 9.75 2.1719 3.4219 2.1719 3.4219 6.125 0 3.6562-2.4688 5.6094-2.4531 1.9531-10.812 3.7656l-3.125 0.73438q-8.3438 1.75-12.062 5.3906-3.7031 3.6406-3.7031 9.9844 0 7.7188 5.4688 11.906 5.4688 4.2031 15.531 4.2031 4.9688 0 9.3594-0.73438 4.4062-0.71875 8.1094-2.1875z"/>
</defs>
<g transform="translate(220.85 587.11) scale(.1 -.1)">
<use xlink:href="#aa"/>
<use x="63.476562" xlink:href="#d"/>
<use x="124.755859" xlink:href="#ar"/>
</g>
</g>
<g clip-path="url(#a)">
<defs>
<path id="ak" d="m54.891 33.016v-33.016h-8.9844v32.719q0 7.7656-3.0312 11.609-3.0312 3.8594-9.0781 3.8594-7.2812 0-11.484-4.6406-4.2031-4.625-4.2031-12.641v-30.906h-9.0312v75.984h9.0312v-29.797q3.2344 4.9375 7.5938 7.375 4.375 2.4375 10.094 2.4375 9.4219 0 14.25-5.8281 4.8438-5.8281 4.8438-17.156z"/>
<path id="r" d="m8.5 21.578v33.109h8.9844v-32.766q0-7.7656 3.0156-11.656 3.0312-3.875 9.0938-3.875 7.2656 0 11.484 4.6406 4.2344 4.6406 4.2344 12.656v31h8.9844v-54.688h-8.9844v8.4062q-3.2656-4.9844-7.5938-7.4062-4.3125-2.4219-10.031-2.4219-9.4219 0-14.312 5.8594-4.875 5.8594-4.875 17.141z"/>
<path id="z" d="m56.203 29.594v-4.3906h-41.312q0.59375-9.2812 5.5938-14.141t13.938-4.8594q5.1719 0 10.031 1.2656t9.6562 3.8125v-8.5q-4.8438-2.0469-9.9219-3.125t-10.297-1.0781q-13.094 0-20.734 7.6094-7.6406 7.625-7.6406 20.625 0 13.422 7.25 21.297 7.25 7.8906 19.562 7.8906 11.031 0 17.453-7.1094 6.4219-7.0938 6.4219-19.297zm-8.9844 2.6406q-0.09375 7.3594-4.125 11.75-4.0312 4.4062-10.672 4.4062-7.5156 0-12.031-4.25t-5.2031-11.969zm-8.6875 47.75h9.7188l-15.906-18.359h-7.4844z"/>
</defs>
<g transform="translate(257.31 587.11) scale(.1 -.1)">
<use xlink:href="#ak"/>
<use x="63.378906" xlink:href="#h"/>
<use x="124.902344" xlink:href="#r"/>
<use x="188.28125" xlink:href="#g"/>
<use x="229.394531" xlink:href="#m"/>
<use x="268.603516" xlink:href="#z"/>
</g>
</g>
<g clip-path="url(#a)">
<defs>
<path id="ap" d="m11.719 12.406h10.297v-8.4062l-8-15.625h-6.2969l4 15.625z"/>
</defs>
<g transform="translate(316.35 587.11) scale(.1 -.1)">
<use xlink:href="#ap"/>
</g>
</g>
<g clip-path="url(#a)">
<g transform="translate(359.28 587.11) scale(.1 -.1)">
<use xlink:href="#i"/>
<use x="27.783203" xlink:href="#k"/>
</g>
</g>
<g clip-path="url(#a)">
<g transform="translate(393.74 587.11) scale(.1 -.1)">
<use xlink:href="#d"/>
<use x="61.279297" xlink:href="#aq"/>
<use x="120.458984" xlink:href="#d"/>
<use x="181.738281" xlink:href="#i"/>
<use x="209.521484" xlink:href="#m"/>
</g>
</g>
<g clip-path="url(#a)">
<g transform="translate(442.19 587.11) scale(.1 -.1)">
<use xlink:href="#z"/>
<use x="61.523438" xlink:href="#m"/>
<use x="100.732422" xlink:href="#z"/>
</g>
</g>
<g clip-path="url(#a)">
<g transform="translate(477.92 587.11) scale(.1 -.1)">
<use xlink:href="#ak"/>
<use x="63.378906" xlink:href="#h"/>
<use x="124.902344" xlink:href="#r"/>
<use x="188.28125" xlink:href="#g"/>
<use x="229.394531" xlink:href="#m"/>
<use x="268.603516" xlink:href="#z"/>
</g>
</g>
<g clip-path="url(#a)">
<g transform="translate(536.96 587.11) scale(.1 -.1)">
<use xlink:href="#ap"/>
</g>
</g>
<g clip-path="url(#a)">
<g transform="translate(577.63 587.11) scale(.1 -.1)">
<use xlink:href="#h"/>
<use x="61.523438" xlink:href="#m"/>
</g>
</g>
<g clip-path="url(#a)">
<defs>
<path id="au" d="m30.609 48.391q-7.2188 0-11.422-5.6406t-4.2031-15.453 4.1719-15.453q4.1875-5.6406 11.453-5.6406 7.1875 0 11.375 5.6562 4.2031 5.6719 4.2031 15.438 0 9.7188-4.2031 15.406-4.1875 5.6875-11.375 5.6875zm0 7.6094q11.719 0 18.406-7.625 6.7031-7.6094 6.7031-21.078 0-13.422-6.7031-21.078-6.6875-7.6406-18.406-7.6406-11.766 0-18.438 7.6406-6.6562 7.6562-6.6562 21.078 0 13.469 6.6562 21.078 6.6719 7.625 18.438 7.625zm-3.5938 23.984h7.2188l11.969-18.359h-6.7812l-8.7969 11.953-8.7812-11.953h-6.7969z"/>
</defs>
<g transform="translate(612.08 587.31) scale(.1 -.1)">
<use xlink:href="#aa"/>
<use x="63.476562" xlink:href="#k"/>
<use x="91.259766" xlink:href="#r"/>
<use x="154.638672" xlink:href="#m"/>
<use x="193.847656" xlink:href="#au"/>
<use x="255.029297" xlink:href="#m"/>
</g>
</g>
<g clip-path="url(#a)">
<g transform="translate(662.62 587.11) scale(.1 -.1)">
<use xlink:href="#aa"/>
<use x="63.476562" xlink:href="#d"/>
<use x="124.755859" xlink:href="#g"/>
</g>
</g>
<g clip-path="url(#a)">
<g transform="translate(708.69 587.11) scale(.1 -.1)">
<use xlink:href="#r"/>
<use x="63.378906" xlink:href="#f"/>
</g>
</g>
<g clip-path="url(#a)">
<g transform="translate(731.73 587.11) scale(.1 -.1)">
<use xlink:href="#i"/>
<use x="27.783203" xlink:href="#f"/>
<use x="91.162109" xlink:href="#ar"/>
<use x="143.261719" xlink:href="#m"/>
<use x="182.470703" xlink:href="#g"/>
<use x="223.583984" xlink:href="#r"/>
<use x="286.962891" xlink:href="#l"/>
<use x="384.375" xlink:href="#h"/>
<use x="445.898438" xlink:href="#f"/>
<use x="509.277344" xlink:href="#m"/>
</g>
</g>
<g clip-path="url(#a)">
<g transform="translate(778.92 587.11) scale(.1 -.1)">
<use xlink:href="#m"/>
<use x="39.208984" xlink:href="#g"/>
<use x="80.322266" xlink:href="#d"/>
<use x="141.601562" xlink:href="#f"/>
<use x="204.980469" xlink:href="#ab"/>
<use x="259.960938" xlink:href="#ak"/>
<use x="323.339844" xlink:href="#d"/>
<use x="384.619141" xlink:href="#f"/>
<use x="447.998047" xlink:href="#m"/>
</g>
</g>
<g clip-path="url(#a)">
<g transform="translate(841.17 587.11) scale(.1 -.1)">
<use xlink:href="#v"/>
<use x="61.181641" xlink:href="#r"/>
</g>
</g>
<g clip-path="url(#a)">
<defs>
<path id="aw" d="m37.109 75.984v-7.4844h-8.5938q-4.8281 0-6.7188-1.9531-1.875-1.9531-1.875-7.0312v-4.8281h14.797v-6.9844h-14.797v-47.703h-9.0312v47.703h-8.5938v6.9844h8.5938v3.8125q0 9.125 4.25 13.297 4.25 4.1875 13.469 4.1875z"/>
</defs>
<g transform="translate(868.14 587.11) scale(.1 -.1)">
<use xlink:href="#aa"/>
<use x="63.476562" xlink:href="#h"/>
<use x="125" xlink:href="#g"/>
<use x="166.113281" xlink:href="#aw"/>
<use x="201.318359" xlink:href="#v"/>
<use x="262.5" xlink:href="#g"/>
<use x="303.613281" xlink:href="#d"/>
<use x="364.892578" xlink:href="#f"/>
<use x="428.271484" xlink:href="#m"/>
</g>
</g>
<g clip-path="url(#a)">
<defs>
<path id="av" d="m14.797 27.297q0-9.9062 4.0781-15.547t11.203-5.6406 11.219 5.6406q4.1094 5.6406 4.1094 15.547t-4.1094 15.547q-4.0938 5.6406-11.219 5.6406t-11.203-5.6406-4.0781-15.547zm30.609-19.094q-2.8281-4.875-7.1562-7.25-4.3125-2.375-10.375-2.375-9.9062 0-16.141 7.9062-6.2188 7.9219-6.2188 20.812t6.2188 20.797q6.2344 7.9062 16.141 7.9062 6.0625 0 10.375-2.375 4.3281-2.3594 7.1562-7.2344v8.2969h8.9844v-75.484h-8.9844z"/>
</defs>
<g transform="translate(926.22 587.11) scale(.1 -.1)">
<use xlink:href="#av"/>
<use x="63.476562" xlink:href="#r"/>
<use x="126.855469" xlink:href="#h"/>
</g>
</g>
<g clip-path="url(#a)">
<defs>
<path id="ax" d="m45.406 46.391v29.594h8.9844v-75.984h-8.9844v8.2031q-2.8281-4.875-7.1562-7.25-4.3125-2.375-10.375-2.375-9.9062 0-16.141 7.9062-6.2188 7.9219-6.2188 20.812t6.2188 20.797q6.2344 7.9062 16.141 7.9062 6.0625 0 10.375-2.375 4.3281-2.3594 7.1562-7.2344zm-30.609-19.094q0-9.9062 4.0781-15.547t11.203-5.6406 11.219 5.6406q4.1094 5.6406 4.1094 15.547t-4.1094 15.547q-4.0938 5.6406-11.219 5.6406t-11.203-5.6406-4.0781-15.547z"/>
</defs>
<g transform="translate(951.23 587.11) scale(.1 -.1)">
<use xlink:href="#ab"/>
<use x="54.980469" xlink:href="#v"/>
<use x="116.162109" xlink:href="#f"/>
<use x="179.541016" xlink:href="#m"/>
<use x="218.75" xlink:href="#v"/>
<use x="279.931641" xlink:href="#f"/>
<use x="343.310547" xlink:href="#ax"/>
<use x="406.787109" xlink:href="#d"/>
<use x="468.066406" xlink:href="#f"/>
<use x="531.445312" xlink:href="#m"/>
</g>
</g>
<g clip-path="url(#a)">
<defs>
<path id="e" d="m10.688 12.406h10.312v-12.406h-10.312z"/>
</defs>
<g transform="translate(1022.3 587.11) scale(.1 -.1)">
<use xlink:href="#e"/>
</g>
</g>
<g clip-path="url(#a)">
<defs>
<path id="c" d="m12.406 8.2969h16.109v55.625l-17.531-3.5156v8.9844l17.438 3.5156h9.8594v-64.609h16.109v-8.2969h-41.984z"/>
</defs>
<g transform="translate(470.76 31.744) scale(.1 -.1)">
<use xlink:href="#c"/>
<use x="63.623047" xlink:href="#e"/>
<use x="95.410156" xlink:href="#c"/>
</g>
</g>
<g clip-path="url(#a)">
<defs>
<path id="n" d="m19.188 8.2969h34.422v-8.2969h-46.281v8.2969q5.6094 5.8125 15.297 15.594 9.7031 9.7969 12.188 12.641 4.7344 5.3125 6.6094 9 1.8906 3.6875 1.8906 7.25 0 5.8125-4.0781 9.4688-4.0781 3.6719-10.625 3.6719-4.6406 0-9.7969-1.6094-5.1406-1.6094-11-4.8906v9.9688q5.9531 2.3906 11.125 3.6094 5.1875 1.2188 9.4844 1.2188 11.328 0 18.062-5.6719 6.7344-5.6562 6.7344-15.125 0-4.5-1.6875-8.5312-1.6719-4.0156-6.125-9.4844-1.2188-1.4219-7.7656-8.1875-6.5312-6.7656-18.453-18.922z"/>
</defs>
<g transform="translate(172.1 259.19) scale(.1 -.1)">
<use xlink:href="#c"/>
<use x="63.623047" xlink:href="#e"/>
<use x="95.410156" xlink:href="#n"/>
</g>
</g>
<g clip-path="url(#a)">
<defs>
<path id="p" d="m40.578 39.312q7.0781-1.5156 11.047-6.3125 3.9844-4.7812 3.9844-11.812 0-10.781-7.4219-16.703-7.4219-5.9062-21.094-5.9062-4.5781 0-9.4375 0.90625t-10.031 2.7188v9.5156q4.0938-2.3906 8.9688-3.6094 4.8906-1.2188 10.219-1.2188 9.2656 0 14.125 3.6562t4.8594 10.641q0 6.4531-4.5156 10.078-4.5156 3.6406-12.562 3.6406h-8.5v8.1094h8.8906q7.2656 0 11.125 2.9062t3.8594 8.375q0 5.6094-3.9844 8.6094-3.9688 3.0156-11.391 3.0156-4.0625 0-8.7031-0.89062-4.6406-0.875-10.203-2.7188v8.7812q5.625 1.5625 10.531 2.3438t9.25 0.78125q11.234 0 17.766-5.1094 6.5469-5.0938 6.5469-13.781 0-6.0625-3.4688-10.234t-9.8594-5.7812z"/>
</defs>
<g transform="translate(557.07 369.5) scale(.1 -.1)">
<use xlink:href="#c"/>
<use x="63.623047" xlink:href="#e"/>
<use x="95.410156" xlink:href="#p"/>
</g>
</g>
<g clip-path="url(#a)">
<defs>
<path id="y" d="m37.797 64.312-24.906-38.922h24.906zm-2.5938 8.5938h12.406v-47.516h10.406v-8.2031h-10.406v-17.188h-9.8125v17.188h-32.906v9.5156z"/>
</defs>
<g transform="translate(574.72 478.31) scale(.1 -.1)">
<use xlink:href="#c"/>
<use x="63.623047" xlink:href="#e"/>
<use x="95.410156" xlink:href="#y"/>
</g>
</g>
<g clip-path="url(#a)">
<defs>
<path id="x" d="m10.797 72.906h38.719v-8.3125h-29.688v-17.859q2.1406 0.73438 4.2812 1.0938 2.1562 0.35938 4.3125 0.35938 12.203 0 19.328-6.6875 7.1406-6.6875 7.1406-18.109 0-11.766-7.3281-18.297-7.3281-6.5156-20.656-6.5156-4.5938 0-9.3594 0.78125-4.75 0.78125-9.8281 2.3438v9.9219q4.3906-2.3906 9.0781-3.5625t9.9062-1.1719q8.4531 0 13.375 4.4375 4.9375 4.4375 4.9375 12.062 0 7.6094-4.9375 12.047-4.9219 4.4531-13.375 4.4531-3.9531 0-7.8906-0.875-3.9219-0.875-8.0156-2.7344z"/>
</defs>
<g transform="translate(680.12 146.75) scale(.1 -.1)">
<use xlink:href="#c"/>
<use x="63.623047" xlink:href="#e"/>
<use x="95.410156" xlink:href="#x"/>
</g>
</g>
<g clip-path="url(#a)">
<defs>
<path id="ag" d="m10.984 1.5156v8.9844q3.7188-1.7656 7.5156-2.6875 3.8125-0.92188 7.4844-0.92188 9.7656 0 14.906 6.5625 5.1562 6.5625 5.8906 19.953-2.8281-4.2031-7.1875-6.4531-4.3438-2.25-9.6094-2.25-10.938 0-17.312 6.6094-6.375 6.625-6.375 18.109 0 11.219 6.6406 18 6.6406 6.7969 17.672 6.7969 12.656 0 19.312-9.7031 6.6719-9.6875 6.6719-28.141 0-17.234-8.1875-27.516-8.1719-10.281-21.984-10.281-3.7188 0-7.5312 0.73438-3.7969 0.73438-7.9062 2.2031zm19.625 30.906q6.6406 0 10.516 4.5312 3.8906 4.5469 3.8906 12.469 0 7.8594-3.8906 12.422-3.875 4.5625-10.516 4.5625t-10.516-4.5625-3.875-12.422q0-7.9219 3.875-12.469 3.875-4.5312 10.516-4.5312z"/>
</defs>
<g transform="translate(618.84 478.31) scale(.1 -.1)">
<use xlink:href="#c"/>
<use x="63.623047" xlink:href="#e"/>
<use x="95.410156" xlink:href="#ag"/>
</g>
</g>
<g clip-path="url(#a)">
<defs>
<path id="aj" d="m31.781 66.406q-7.6094 0-11.453-7.5-3.8281-7.4844-3.8281-22.531 0-14.984 3.8281-22.484 3.8438-7.5 11.453-7.5 7.6719 0 11.5 7.5 3.8438 7.5 3.8438 22.484 0 15.047-3.8438 22.531-3.8281 7.5-11.5 7.5zm0 7.8125q12.266 0 18.734-9.7031 6.4688-9.6875 6.4688-28.141 0-18.406-6.4688-28.109-6.4688-9.6875-18.734-9.6875-12.25 0-18.719 9.6875-6.4688 9.7031-6.4688 28.109 0 18.453 6.4688 28.141 6.4688 9.7031 18.719 9.7031z"/>
</defs>
<g transform="translate(740.67 259.19) scale(.1 -.1)">
<use xlink:href="#c"/>
<use x="63.623047" xlink:href="#e"/>
<use x="95.410156" xlink:href="#c"/>
<use x="159.033203" xlink:href="#aj"/>
</g>
</g>
<g clip-path="url(#a)">
<g transform="translate(924.51 478.31) scale(.1 -.1)">
<use xlink:href="#c"/>
<use x="63.623047" xlink:href="#e"/>
<use x="95.410156" xlink:href="#c"/>
<use x="159.033203" xlink:href="#c"/>
</g>
</g>
<g clip-path="url(#a)">
<g transform="translate(946.57 369.5) scale(.1 -.1)">
<use xlink:href="#c"/>
<use x="63.623047" xlink:href="#e"/>
<use x="95.410156" xlink:href="#c"/>
<use x="159.033203" xlink:href="#n"/>
</g>
</g>
<g clip-path="url(#a)">
<defs>
<path id="s" d="m9.8125 72.906h9.8594v-72.906h-9.8594z"/>
<path id="al" d="m9.8125 72.906h14.703l18.594-49.609 18.703 49.609h14.703v-72.906h-9.625v64.016l-18.797-50h-9.9062l-18.797 50v-64.016h-9.5781z"/>
</defs>
<g transform="translate(1046.9 587.11) scale(.1 -.1)">
<use xlink:href="#s"/>
<use x="29.492188" xlink:href="#al"/>
<use x="115.771484" xlink:href="#u"/>
<use x="176.074219" xlink:href="#q"/>
<use x="231.787109" xlink:href="#s"/>
<use x="261.279297" xlink:href="#t"/>
<use x="331.103516" xlink:href="#s"/>
<use x="360.595703" xlink:href="#j"/>
</g>
</g>
<g clip-path="url(#a)">
<g transform="translate(968.63 478.31) scale(.1 -.1)">
<use xlink:href="#c"/>
<use x="63.623047" xlink:href="#e"/>
<use x="95.410156" xlink:href="#c"/>
<use x="159.033203" xlink:href="#y"/>
</g>
</g>
<g clip-path="url(#a)">
<g transform="translate(659.78 478.31) scale(.1 -.1)">
<use xlink:href="#c"/>
<use x="63.623047" xlink:href="#e"/>
<use x="95.410156" xlink:href="#c"/>
<use x="159.033203" xlink:href="#x"/>
</g>
</g>
<g clip-path="url(#a)">
<defs>
<path id="ai" d="m33.016 40.375q-6.6406 0-10.531-4.5469-3.875-4.5312-3.875-12.438 0-7.8594 3.875-12.438 3.8906-4.5625 10.531-4.5625t10.516 4.5625q3.875 4.5781 3.875 12.438 0 7.9062-3.875 12.438-3.875 4.5469-10.516 4.5469zm19.578 30.922v-8.9844q-3.7188 1.75-7.5 2.6719-3.7812 0.9375-7.5 0.9375-9.7656 0-14.922-6.5938-5.1406-6.5938-5.875-19.922 2.875 4.25 7.2188 6.5156 4.3594 2.2656 9.5781 2.2656 10.984 0 17.359-6.6719 6.375-6.6562 6.375-18.125 0-11.234-6.6406-18.031-6.6406-6.7812-17.672-6.7812-12.656 0-19.344 9.6875-6.6875 9.7031-6.6875 28.109 0 17.281 8.2031 27.562t22.016 10.281q3.7188 0 7.5-0.73438t7.8906-2.1875z"/>
</defs>
<g transform="translate(725.96 369.5) scale(.1 -.1)">
<use xlink:href="#c"/>
<use x="63.623047" xlink:href="#e"/>
<use x="95.410156" xlink:href="#c"/>
<use x="159.033203" xlink:href="#ai"/>
</g>
</g>
<g clip-path="url(#a)">
<defs>
<path id="ah" d="m8.2031 72.906h46.875v-4.2031l-26.469-68.703h-10.297l24.906 64.594h-35.016z"/>
</defs>
<g transform="translate(836.26 369.5) scale(.1 -.1)">
<use xlink:href="#c"/>
<use x="63.623047" xlink:href="#e"/>
<use x="95.410156" xlink:href="#c"/>
<use x="159.033203" xlink:href="#ah"/>
</g>
</g>
<g clip-path="url(#a)">
<defs>
<path id="ao" d="m31.781 34.625q-7.0312 0-11.062-3.7656-4.0156-3.7656-4.0156-10.344 0-6.5938 4.0156-10.359 4.0312-3.7656 11.062-3.7656t11.078 3.7812q4.0625 3.7969 4.0625 10.344 0 6.5781-4.0312 10.344-4.0156 3.7656-11.109 3.7656zm-9.8594 4.1875q-6.3438 1.5625-9.8906 5.9062-3.5312 4.3594-3.5312 10.609 0 8.7344 6.2188 13.812 6.2344 5.0781 17.062 5.0781 10.891 0 17.094-5.0781t6.2031-13.812q0-6.25-3.5469-10.609-3.5312-4.3438-9.8281-5.9062 7.125-1.6562 11.094-6.5 3.9844-4.8281 3.9844-11.797 0-10.609-6.4688-16.281-6.4688-5.6562-18.531-5.6562-12.047 0-18.531 5.6562-6.4688 5.6719-6.4688 16.281 0 6.9688 4 11.797 4.0156 4.8438 11.141 6.5zm-3.6094 15.578q0-5.6562 3.5312-8.8281 3.5469-3.1719 9.9375-3.1719 6.3594 0 9.9375 3.1719 3.5938 3.1719 3.5938 8.8281 0 5.6719-3.5938 8.8438-3.5781 3.1719-9.9375 3.1719-6.3906 0-9.9375-3.1719-3.5312-3.1719-3.5312-8.8438z"/>
</defs>
<g transform="translate(792.14 478.31) scale(.1 -.1)">
<use xlink:href="#c"/>
<use x="63.623047" xlink:href="#e"/>
<use x="95.410156" xlink:href="#c"/>
<use x="159.033203" xlink:href="#ao"/>
</g>
</g>
<g clip-path="url(#a)">
<g transform="translate(836.26 478.31) scale(.1 -.1)">
<use xlink:href="#c"/>
<use x="63.623047" xlink:href="#e"/>
<use x="95.410156" xlink:href="#c"/>
<use x="159.033203" xlink:href="#ag"/>
</g>
</g>
<g clip-path="url(#a)">
<g transform="translate(880.39 478.31) scale(.1 -.1)">
<use xlink:href="#c"/>
<use x="63.623047" xlink:href="#e"/>
<use x="95.410156" xlink:href="#n"/>
<use x="159.033203" xlink:href="#aj"/>
</g>
</g>
<g clip-path="url(#a)">
<g transform="translate(703.9 478.31) scale(.1 -.1)">
<use xlink:href="#c"/>
<use x="63.623047" xlink:href="#e"/>
<use x="95.410156" xlink:href="#n"/>
<use x="159.033203" xlink:href="#c"/>
</g>
</g>
<g clip-path="url(#a)">
<g transform="translate(748.02 478.31) scale(.1 -.1)">
<use xlink:href="#c"/>
<use x="63.623047" xlink:href="#e"/>
<use x="95.410156" xlink:href="#n"/>
<use x="159.033203" xlink:href="#n"/>
</g>
</g>
<g clip-path="url(#a)">
<g transform="translate(1091 587.11) scale(.1 -.1)">
<use xlink:href="#s"/>
<use x="29.492188" xlink:href="#al"/>
<use x="115.771484" xlink:href="#u"/>
<use x="176.074219" xlink:href="#q"/>
<use x="231.787109" xlink:href="#s"/>
<use x="261.279297" xlink:href="#t"/>
<use x="331.103516" xlink:href="#s"/>
<use x="360.595703" xlink:href="#j"/>
</g>
</g>
<g clip-path="url(#a)">
<g transform="translate(350.93 478.31) scale(.1 -.1)">
<use xlink:href="#c"/>
<use x="63.623047" xlink:href="#e"/>
<use x="95.410156" xlink:href="#n"/>
<use x="159.033203" xlink:href="#y"/>
</g>
</g>
<g clip-path="url(#a)">
<g transform="translate(395.05 478.31) scale(.1 -.1)">
<use xlink:href="#c"/>
<use x="63.623047" xlink:href="#e"/>
<use x="95.410156" xlink:href="#n"/>
<use x="159.033203" xlink:href="#x"/>
</g>
</g>
<g clip-path="url(#a)">
<g transform="translate(439.17 478.31) scale(.1 -.1)">
<use xlink:href="#c"/>
<use x="63.623047" xlink:href="#e"/>
<use x="95.410156" xlink:href="#n"/>
<use x="159.033203" xlink:href="#ai"/>
</g>
</g>
<g clip-path="url(#a)">
<g transform="translate(483.29 478.31) scale(.1 -.1)">
<use xlink:href="#c"/>
<use x="63.623047" xlink:href="#e"/>
<use x="95.410156" xlink:href="#n"/>
<use x="159.033203" xlink:href="#ah"/>
</g>
</g>
<g clip-path="url(#a)">
<g transform="translate(64.134 369.5) scale(.1 -.1)">
<use xlink:href="#c"/>
<use x="63.623047" xlink:href="#e"/>
<use x="95.410156" xlink:href="#n"/>
<use x="159.033203" xlink:href="#ao"/>
</g>
</g>
<g clip-path="url(#a)">
<g transform="translate(174.44 478.31) scale(.1 -.1)">
<use xlink:href="#c"/>
<use x="63.623047" xlink:href="#e"/>
<use x="95.410156" xlink:href="#n"/>
<use x="159.033203" xlink:href="#ag"/>
</g>
</g>
<g clip-path="url(#a)">
<g transform="translate(174.44 478.31) scale(.1 -.1)">
<use xlink:href="#c"/>
<use x="63.623047" xlink:href="#e"/>
<use x="95.410156" xlink:href="#p"/>
<use x="159.033203" xlink:href="#aj"/>
</g>
</g>
<g clip-path="url(#a)">
<g transform="translate(262.68 478.31) scale(.1 -.1)">
<use xlink:href="#c"/>
<use x="63.623047" xlink:href="#e"/>
<use x="95.410156" xlink:href="#p"/>
<use x="159.033203" xlink:href="#c"/>
</g>
</g>
<g clip-path="url(#a)">
<g transform="translate(42.073 478.31) scale(.1 -.1)">
<use xlink:href="#c"/>
<use x="63.623047" xlink:href="#e"/>
<use x="95.410156" xlink:href="#p"/>
<use x="159.033203" xlink:href="#n"/>
</g>
</g>
<g clip-path="url(#a)">
<g transform="translate(86.195 478.31) scale(.1 -.1)">
<use xlink:href="#c"/>
<use x="63.623047" xlink:href="#e"/>
<use x="95.410156" xlink:href="#p"/>
<use x="159.033203" xlink:href="#p"/>
</g>
</g>
<g clip-path="url(#a)">
<g transform="translate(600.78 31.744) scale(.1 -.1)">
<use xlink:href="#c"/>
<use x="63.623047" xlink:href="#e"/>
<use x="95.410156" xlink:href="#p"/>
<use x="159.033203" xlink:href="#y"/>
</g>
</g>
<g clip-path="url(#a)">
<g transform="translate(306.8 478.31) scale(.1 -.1)">
<use xlink:href="#c"/>
<use x="63.623047" xlink:href="#e"/>
<use x="95.410156" xlink:href="#p"/>
<use x="159.033203" xlink:href="#x"/>
</g>
</g>
<g clip-path="url(#a)">
<g transform="translate(527.41 478.31) scale(.1 -.1)">
<use xlink:href="#c"/>
<use x="63.623047" xlink:href="#e"/>
<use x="95.410156" xlink:href="#p"/>
<use x="159.033203" xlink:href="#ai"/>
</g>
</g>
<g clip-path="url(#a)">
<g transform="translate(1012.8 478.31) scale(.1 -.1)">
<use xlink:href="#c"/>
<use x="63.623047" xlink:href="#e"/>
<use x="95.410156" xlink:href="#p"/>
<use x="159.033203" xlink:href="#ah"/>
</g>
</g>
<defs>
<clipPath id="a">
<rect width="1165.3" height="613.33"/>
</clipPath>
</defs>
</svg>
